<svg xmlns="http://www.w3.org/2000/svg" version="1.0" viewBox="0 0 35 42"><switch><g><linearGradient id="a" x1="-52.69" x2="-51.017" y1="-445.123" y2="-445.123" gradientTransform="rotate(-25.596 1055.589 -376.253)" gradientUnits="userSpaceOnUse"><stop offset="0" stop-color="#cb9866"/><stop offset="1" stop-color="#996733"/></linearGradient><path fill="url(#a)" stroke="#996733" stroke-miterlimit="10" stroke-width=".25" d="M25.9 39.6c.3.8.7 1.5 1.6 1.4.3-.7.1-1.5-.2-2.2"/><linearGradient id="b" x1="-54.801" x2="-35.227" y1="-459.514" y2="-459.959" gradientTransform="rotate(-25.596 1055.589 -376.253)" gradientUnits="userSpaceOnUse"><stop offset="0" stop-color="#cb9866"/><stop offset="1" stop-color="#996733"/></linearGradient><path fill="url(#b)" stroke="#996733" stroke-miterlimit="10" stroke-width=".25" d="M3.9 20s5 14.4 13.7 18.1c3.7 1.6 6.1 2.6 9.3 1.4l1.3-.6c3-1.7 3.7-4.2 4.8-8.1 2.6-9.1-5.5-22-5.5-22"/><path fill="#FCF8CD" d="M13.3 19.2c-.1 2 2.5 6.4 3.6 8 1.2 1.7 2.8 3.3 4.9 4 1.9.6 4.5-.4 6.4.6 1.8 1 1.8 3.5.4 5.1-2.7 2.9-8.1 2.1-11.4.3-3.7-2-5.6-5-7.5-8.5-1.2-2.3-4.1-6.2-4.4-8.6" opacity=".18"/><path fill="#FCF8CD" d="M15.2 32.2c1.8 1.5 2.3 1.5 4.4 2.1 2.2.6 3.5-1.2 5.4-1.6 1.9-.4 3.8.9 2.5 2.9-1.7 2.6-6.6 2.5-8.8.9 0 0-6.1-3-8.4-9.3 0 0 1.2 2.1 4.9 5z" opacity=".33"/><linearGradient id="c" x1="-64.957" x2="-63.812" y1="-339.633" y2="-355.607" gradientTransform="matrix(.9027 -.4062 .4633 1.0297 247.294 341.913)" gradientUnits="userSpaceOnUse"><stop offset="0" stop-color="#cee194"/><stop offset="1" stop-color="#659941"/></linearGradient><path fill="url(#c)" stroke="#659941" stroke-miterlimit="10" stroke-width=".25" d="M27.9 10s1-1.2 0-3.2c-1.1-2.1-1.8 1.1-1.4 1.8.4.7 1.4 1.4 1.4 1.4z"/><linearGradient id="d" x1="-84.544" x2="-83.488" y1="-337.601" y2="-352.333" gradientTransform="matrix(.9027 -.4062 .4633 1.0297 247.294 341.913)" gradientUnits="userSpaceOnUse"><stop offset="0" stop-color="#cee194"/><stop offset="1" stop-color="#659941"/></linearGradient><path fill="url(#d)" stroke="#659941" stroke-miterlimit="10" stroke-width=".25" d="M9.7 21.2s2.8-.6 3.7-1.2c.9-.6-1.9-3.8-2.8-2.7-.9 1.1-1.9 2.6-1.7 3 .2.4.8.9.8.9z"/><linearGradient id="e" x1="-75.476" x2="-75.944" y1="-340.332" y2="-350.298" gradientTransform="matrix(.9027 -.4062 .4633 1.0297 247.294 341.913)" gradientUnits="userSpaceOnUse"><stop offset="0" stop-color="#cee194"/><stop offset="1" stop-color="#659941"/></linearGradient><path fill="url(#e)" stroke="#659941" stroke-miterlimit="10" stroke-width=".25" d="M16.9 15.3l.4 2.7s1.9-.9 3.4-1.9c-.1 0-3.1-3.6-3.8-.8z"/><linearGradient id="f" x1="-79.379" x2="-80.491" y1="-333.282" y2="-356.969" gradientTransform="matrix(.9027 -.4062 .4633 1.0297 247.294 341.913)" gradientUnits="userSpaceOnUse"><stop offset="0" stop-color="#cee194"/><stop offset="1" stop-color="#659941"/></linearGradient><path fill="url(#f)" stroke="#659941" stroke-miterlimit="10" stroke-width=".25" d="M11.5 18c.1 1.2 1.2 1.4 2 1.9 0 0 3.5-1.7 3.8-1.9.3-.3-.2-2.7-1.2-3.9-.9-1.3-3.5-2.1-3.5-2.1l-1.8 2.8.7 3.2z"/><linearGradient id="g" x1="-90.798" x2="-91.686" y1="-337.3" y2="-356.225" gradientTransform="matrix(.9027 -.4062 .4633 1.0297 247.294 341.913)" gradientUnits="userSpaceOnUse"><stop offset="0" stop-color="#cee194"/><stop offset="1" stop-color="#659941"/></linearGradient><path fill="url(#g)" stroke="#659941" stroke-miterlimit="10" stroke-width=".25" d="M1.1 17.5s.1 1.6 1.1 2.8c1 1.2 2.1 1.3 2.8 1.3.7 0-1.4-3.3-1.4-3.3l-1.9-1.8-.6 1z"/><linearGradient id="h" x1="-87.106" x2="-88.245" y1="-333.216" y2="-357.482" gradientTransform="matrix(.9027 -.4062 .4633 1.0297 247.294 341.913)" gradientUnits="userSpaceOnUse"><stop offset="0" stop-color="#cee194"/><stop offset="1" stop-color="#659941"/></linearGradient><path fill="url(#h)" stroke="#659941" stroke-miterlimit="10" stroke-width=".25" d="M5.5 14.7s-2.1 2.1-1.9 3.6c.2 1.5 1.1 3.2 1.1 3.2s3.1.4 5.1-.3c.1-2.7-1.8-8-4.3-6.5z"/><linearGradient id="i" x1="-69.651" x2="-68.942" y1="-340.885" y2="-350.774" gradientTransform="matrix(.9027 -.4062 .4633 1.0297 247.294 341.913)" gradientUnits="userSpaceOnUse"><stop offset="0" stop-color="#cee194"/><stop offset="1" stop-color="#659941"/></linearGradient><path fill="url(#i)" stroke="#659941" stroke-miterlimit="10" stroke-width=".25" d="M23.7 14.1s1-.6 1.5-1.3c.6-.7-2-1-2-1s-.5 1.1-.1 2c.4.8.6.3.6.3z"/><linearGradient id="j" x1="-91.915" x2="-87.244" y1="-340.901" y2="-360.176" gradientTransform="matrix(.9027 -.4062 .4633 1.0297 247.294 341.913)" gradientUnits="userSpaceOnUse"><stop offset="0" stop-color="#cee194"/><stop offset="1" stop-color="#659941"/></linearGradient><path fill="url(#j)" stroke="#659941" stroke-miterlimit="10" stroke-width=".25" d="M1.7 16.8c-.1 1.1.2 2.3 1 3.1.3.3.8.7 1.2.9.5.2.6-.1 1-.5 1.3-1.3 2-3.3.8-5.3-.3-.5-.9-1.3-1.5-1.4-.9-.1-1.3.9-1.7 1.5l-.8 1.7z"/><linearGradient id="k" x1="-72.146" x2="-73.166" y1="-334.756" y2="-356.47" gradientTransform="matrix(.9027 -.4062 .4633 1.0297 247.294 341.913)" gradientUnits="userSpaceOnUse"><stop offset="0" stop-color="#cee194"/><stop offset="1" stop-color="#659941"/></linearGradient><path fill="url(#k)" stroke="#659941" stroke-miterlimit="10" stroke-width=".25" d="M18.3 14.6s.7 1.4 2 1.7c1.9-1.1 3.5-2.2 3.5-2.2s-.4-1.8-1.4-2.9c-1-1.1-5.4-3.1-5.1.3.3 3.3 1 3.1 1 3.1z"/><linearGradient id="l" x1="-86.343" x2="-81.746" y1="-333.247" y2="-364.535" gradientTransform="matrix(.9027 -.4062 .4633 1.0297 247.294 341.913)" gradientUnits="userSpaceOnUse"><stop offset="0" stop-color="#cee194"/><stop offset="1" stop-color="#659941"/></linearGradient><path fill="url(#l)" stroke="#659941" stroke-miterlimit="10" stroke-width=".25" d="M7.1 15.1c-.5 1.4 1 5.2 2.8 5 .8-.1 1.5-1.4 1.8-2.2.3-.8.4-2 .2-2.9-.2-1.1-1.1-2.6-1.8-3.4-1.3-1.3-2.3.8-2.4 2.1l-.6 1.4z"/><linearGradient id="m" x1="-74.763" x2="-77.821" y1="-334.977" y2="-361.777" gradientTransform="matrix(.9027 -.4062 .4633 1.0297 247.294 341.913)" gradientUnits="userSpaceOnUse"><stop offset="0" stop-color="#cee194"/><stop offset="1" stop-color="#659941"/></linearGradient><path fill="url(#m)" stroke="#659941" stroke-miterlimit="10" stroke-width=".25" d="M13.2 11.8c.3 2.1 2.5 4.6 4.5 4.4 2.2-.2 1-3.7.4-5.1-.5-1.1-1.4-2.1-2.5-2.5-1.4-.6-2.3-.5-2.7 1l.3 2.2z"/><linearGradient id="n" x1="-66.198" x2="-67.074" y1="-337.233" y2="-355.901" gradientTransform="matrix(.9027 -.4062 .4633 1.0297 247.294 341.913)" gradientUnits="userSpaceOnUse"><stop offset="0" stop-color="#cee194"/><stop offset="1" stop-color="#659941"/></linearGradient><path fill="url(#n)" stroke="#659941" stroke-miterlimit="10" stroke-width=".25" d="M23.4 11s.5 1.5 1.6 2c1.6-.9 2.4-1.7 2.6-2.1.2-.4.5-1.1.5-1.1s-.3-1.4-2.1-2.5c-1.9-1.1-4.1-.1-3.2 2.3.9 2.5.6 1.4.6 1.4z"/><linearGradient id="o" x1="-89.307" x2="-81.747" y1="-341.67" y2="-363.907" gradientTransform="matrix(.9027 -.4062 .4633 1.0297 247.294 341.913)" gradientUnits="userSpaceOnUse"><stop offset="0" stop-color="#cee194"/><stop offset="1" stop-color="#659941"/></linearGradient><path fill="url(#o)" stroke="#659941" stroke-miterlimit="10" stroke-width=".25" d="M4.2 12.2c-.1.9-.1 1.5.3 2.4.5 1.1.9 1.1 1.8 1.7 1.3-1.2 2.9-2.6 2.6-4.7-.1-.8-.6-1.7-1.5-1.8-1.1-.2-1.4.9-2.2 1.3l-1 1.1z"/><linearGradient id="p" x1="-63.558" x2="-74.347" y1="-335.572" y2="-358.818" gradientTransform="matrix(.9027 -.4062 .4633 1.0297 247.294 341.913)" gradientUnits="userSpaceOnUse"><stop offset="0" stop-color="#cee194"/><stop offset="1" stop-color="#659941"/></linearGradient><path fill="url(#p)" stroke="#659941" stroke-miterlimit="10" stroke-width=".25" d="M18.2 9.1c.6 1.7 4 5.2 5.5 3.3 1.1-1.4-.4-4.5-1.8-5.3-1.2-.7-3.4-1.2-3.8.5l.1 1.5z"/><linearGradient id="q" x1="-60.523" x2="-69.644" y1="-335.137" y2="-364.444" gradientTransform="matrix(.9027 -.4062 .4633 1.0297 247.294 341.913)" gradientUnits="userSpaceOnUse"><stop offset="0" stop-color="#cee194"/><stop offset="1" stop-color="#659941"/></linearGradient><path fill="url(#q)" stroke="#659941" stroke-miterlimit="10" stroke-width=".25" d="M22.9 7.6c.7 1.6 4.8 1.7 5 .1 0 0 .1-1.2-.8-2.3-.9-1.2-5.2-2.4-5.5-1.2-.1 1.1 1.3 3.4 1.3 3.4z"/><linearGradient id="r" x1="-83.082" x2="-77.466" y1="-336.937" y2="-364.126" gradientTransform="matrix(.9027 -.4062 .4633 1.0297 247.294 341.913)" gradientUnits="userSpaceOnUse"><stop offset="0" stop-color="#cee194"/><stop offset="1" stop-color="#659941"/></linearGradient><path fill="url(#r)" stroke="#659941" stroke-miterlimit="10" stroke-width=".25" d="M10.6 8.3c.7-.9 1-1.2 2-.4 1.8 1.4 1.9 3.7.6 5.2-.3.4-.6.8-1 1-.5.4-.6.3-1.1-.2-.8-.8-1.9-2-1.6-3.3l1.1-2.3z"/><linearGradient id="s" x1="948.052" x2="955.614" y1="-341.39" y2="-363.632" gradientTransform="matrix(-.9027 .4062 .4633 1.0297 1043.435 -17.201)" gradientUnits="userSpaceOnUse"><stop offset="0" stop-color="#cee194"/><stop offset="1" stop-color="#659941"/></linearGradient><path fill="url(#s)" stroke="#659941" stroke-miterlimit="10" stroke-width=".25" d="M21.6 3.8c.8.5 1.2.9 1.6 1.8.5 1 .2 1.4.1 2.4-1.8.1-3.8.4-5.3-1.2-.6-.6-.9-1.6-.4-2.3.6-.9 1.7-.4 2.6-.8l1.4.1z"/><linearGradient id="t" x1="-97.903" x2="-83.447" y1="-339.818" y2="-363.541" gradientTransform="matrix(.9027 -.4062 .4633 1.0297 247.294 341.913)" gradientUnits="userSpaceOnUse"><stop offset="0" stop-color="#cee194"/><stop offset="1" stop-color="#659941"/></linearGradient><path fill="url(#t)" stroke="#659941" stroke-miterlimit="10" stroke-width=".25" d="M4.1 12.7c.3.5.1 1.3-.1 1.8-.2.7-.5 1-1 1.5-.6.7-1.3 1.3-1.9 1.9 0 0-.7-2.5.9-5 1.9-.4 2.1-.2 2.1-.2z"/><linearGradient id="u" x1="-58.577" x2="-71.528" y1="-344.189" y2="-362.365" gradientTransform="matrix(.9027 -.4062 .4633 1.0297 247.294 341.913)" gradientUnits="userSpaceOnUse"><stop offset="0" stop-color="#cee194"/><stop offset="1" stop-color="#659941"/></linearGradient><path fill="url(#u)" stroke="#659941" stroke-miterlimit="10" stroke-width=".25" d="M22.3 4.2s1.9 2.5 4.9 1.1c-1.1-2.2-2.9-2.4-3.2-2.4l-.8.2-.9 1.1z"/><linearGradient id="v" x1="953.003" x2="958.62" y1="-336.434" y2="-363.628" gradientTransform="matrix(-.9027 .4062 .4633 1.0297 1043.053 -17.03)" gradientUnits="userSpaceOnUse"><stop offset="0" stop-color="#cee194"/><stop offset="1" stop-color="#659941"/></linearGradient><path fill="url(#v)" stroke="#659941" stroke-miterlimit="10" stroke-width=".25" d="M15.4 5.9c-1.1-.1-1.5 0-1.6 1.3-.2 2.3 1.5 3.8 3.5 3.9.5 0 1 .1 1.4 0 .6-.1.6-.3.6-.9 0-1.2-.3-2.8-1.4-3.4l-2.5-.9z"/><linearGradient id="w" x1="-94.152" x2="-74.727" y1="-352.858" y2="-358.567" gradientTransform="matrix(.9027 -.4062 .4633 1.0297 247.294 341.913)" gradientUnits="userSpaceOnUse"><stop offset="0" stop-color="#cee194"/><stop offset="1" stop-color="#659941"/></linearGradient><path fill="url(#w)" stroke="#659941" stroke-miterlimit="10" stroke-width=".25" d="M1.9 13.4s4.4-.5 5.7-3.7c.6-1.9.6-2.7.6-2.7s-4.3 2.7-6.3 6.4z"/><linearGradient id="x" x1="-77.211" x2="-85.517" y1="-364.043" y2="-345.207" gradientTransform="matrix(.9027 -.4062 .4633 1.0297 247.294 341.913)" gradientUnits="userSpaceOnUse"><stop offset="0" stop-color="#cee194"/><stop offset="1" stop-color="#659941"/></linearGradient><path fill="url(#x)" stroke="#659941" stroke-miterlimit="10" stroke-width=".25" d="M10.6 5.4c.6 1.2 1.3 2.1.9 3.4-.4 1.5-1.2 2.1-2.5 2.6-.4-.4-1.1-1-1.4-1.6-.4-.7-.1-1.4-.3-2.1l1.4-1.1 1.9-1.2z"/><linearGradient id="y" x1="962.066" x2="953.649" y1="-363.399" y2="-344.311" gradientTransform="matrix(-.9027 .4062 .4633 1.0297 1043.172 -17.082)" gradientUnits="userSpaceOnUse"><stop offset="0" stop-color="#cee194"/><stop offset="1" stop-color="#659941"/></linearGradient><path fill="url(#y)" stroke="#659941" stroke-miterlimit="10" stroke-width=".25" d="M10.6 5.4c.4 1.3.7 2.4 2 3 1.4.7 2.4.5 3.6-.2 0-.6 0-1.5-.3-2.1-.3-.8-1.6-1.7-2.1-2.3l-1.5.5-1.7 1.1z"/><linearGradient id="z" x1="-68.21" x2="-76.218" y1="-342.355" y2="-368.528" gradientTransform="matrix(.9027 -.4062 .4633 1.0297 247.294 341.913)" gradientUnits="userSpaceOnUse"><stop offset="0" stop-color="#cee194"/><stop offset="1" stop-color="#659941"/></linearGradient><path fill="url(#z)" stroke="#659941" stroke-miterlimit="10" stroke-width=".25" d="M13.8 3.8c1.2 1.5 2.2 2.5 4 2.6 1 0 1.6 0 1.4-1.2-.1-.8-.6-1.9-1.1-2.5 0 0-2.8.4-4.4 1.2"/><linearGradient id="A" x1="-57.831" x2="-78.521" y1="-342.283" y2="-369.646" gradientTransform="matrix(.9027 -.4062 .4633 1.0297 247.294 341.913)" gradientUnits="userSpaceOnUse"><stop offset="0" stop-color="#cee194"/><stop offset="1" stop-color="#659941"/></linearGradient><path fill="url(#A)" stroke="#659941" stroke-miterlimit="10" stroke-width=".25" d="M17.7 2.9c.9 1.3 2 1.9 3.4 1.7 1-.1 2.6-.7 2.9-1.7.1 0-2.8-1.2-6.3 0z"/><path fill="none" stroke="#346733" stroke-miterlimit="10" stroke-width=".25" d="M1.3 18.2C0 11.8 7.1 6.9 11.8 4.7c2.8-1.3 7-3.2 10.1-2.5 4.1 1 4.5 1 6.3 4.7 0 0 2.4 5-9.8 10.2C8.6 22 10.2 22 3.8 21.5c-2-1.5-2.5-3.3-2.5-3.3z"/><path fill="#346733" d="M9.4 5.8c.5 1.7 2.7.4 2.8-1 .1-1.4-1.5-2.3-1.8-3.7-.7-.1-1.4.2-1.8.7l.8 4z"/></g></switch></svg>
