<svg xmlns="http://www.w3.org/2000/svg" version="1.0" viewBox="0 0 220 129"><switch><g><path fill="#BA8E62" d="M16.4 2.6H220v113.6H16.4z"/><path fill="#100D09" d="M.6 103.2s53.5-10.1 64.6-10.6C76.3 92 72 0 72 0H.6v103.2zM151.2.1l3.1 94.3s22.3-.6 38.3 5.7c15.9 6.3 19.6 5.8 19.6 5.8l7.8 5.1L219.7.1h-68.5z" opacity=".26"/><path fill="#D4B187" d="M218.9 109.3v14h-22.6L176 97s15.7 3 25.6 6.3c9.8 3.3 17.3 6 17.3 6z"/><path fill="#EDCA9C" d="M196.1 123.6h-1.4l-19.8-26.9 2 .6z"/><path fill="#D4B187" d="M194.7 123.6h-25l-20.8-30.9s8.5 1 13.2 1.8c4.7.8 12.8 2.1 12.8 2.1l19.8 27z"/><path fill="#EDCA9C" d="M169.6 123.5h-1.4L147 92.3l1.6.4z"/><path fill="#D4B187" d="M168.2 123.5l-25.5-.1-21.6-32.9s12.3.7 16.5 1.1c4.2.4 9.5.8 9.5.8l21.1 31.1z"/><path fill="#EDCA9C" d="M142.9 123.3h-1.3l-22.1-32.8 1.5-.1z"/><path fill="#D4B187" d="M141.6 123.3h-24.1L93.3 90s10.3-.1 14.6 0c4.2.1 11.6.5 11.6.5l22.1 32.8z"/><path fill="#EDCA9C" d="M117.5 123.4h-1.9L91.7 90.2h1.6z"/><path fill="#D4B187" d="M115.4 123.3h-25l-24.2-32s10.3-1.5 14.6-1.4c4.2.1 11.2.2 11.2.2l23.4 33.2z"/><path fill="#EDCA9C" d="M90.3 123.3h-1.8L65 91.5l1.6-.1z"/><path fill="#D4B187" d="M88.4 123.4h-25L39.2 94.5s10-1.2 14.2-2C58 91.7 65 91.2 65 91.2l23.4 32.2z"/><path fill="#EDCA9C" d="M63.2 123.3h-.9L38.4 94.6h.6z"/><path fill="#D4B187" d="M38.4 94.6l23.9 28.7-35.8.3-15.8-23.4s12-2.9 14.5-3.3c2.5-.3 13.2-2.3 13.2-2.3z"/><path fill="#EDCA9C" d="M10.8 100.2l-.8.1 15.2 23.3h1.3z"/><path fill="#D4B187" d="M0 103.2l10-2.9 15.2 23.3-25.2-.3z"/><path fill="#C12227" stroke="#A01F22" stroke-width=".25" d="M192.6 100.1s0 .7 2.1 1.7-1.7 1.7 2.9 2.7c4.6 1 5.9-.3 7.2 0 1.3.3 2.1 2.1 5 1.7 2.9-.4 6.3-3.1 6.3-3.1l4 1.3V0h-24.6s-4.6 10.8-5.1 16.6c-.4 5.8-4.2 15.4-2.5 22.9 1.7 7.5.8 10.3 5.5 15.1 4.6 4.8 7.6 7.1 7.6 7.1s.4.7.4 2.8c0 2.1-1.7 9.2-2.5 13-.8 3.8-4.2 14.4-4.2 14.4l-2.1 8.2z"/><g stroke="#A01F22" stroke-width=".25"><g fill="#8C181B"><path d="M200 61.8s-1.3 3.1.8 3.3c2.1.2 12.1-2.9 12.1-2.9l7.1-1-.8-3.4s-7 3-10.1 2.5c-3.3-.5-9.1 1.5-9.1 1.5z"/><path d="M203 104.3c4.2-5.6 3.7-11.9 3.9-18.1.2-5.1 1.5-13.3 5.1-17.6 2.5 3.6-3.4 13.7-4.3 18-1.4 6.1-4.1 12.8-4.6 19M215.1 0s-4.1 20.4-2.5 29.9c1.6 9.5 6.6 27.8 6.6 27.8l.8-56.4-4.9-1.3zM194 102.2c2.6-3.7 2.2-9.1 3.9-13.2 1.9-4.3 4-13.9 5-20.4-5.3 14.7-8.3 25.2-10.7 32.7m22.8 2.2c-4.2-3.9-1.2-10.1-.1-14.5.6-2.5.9-5.1 1.4-7.6.5-2.1-.4-5.4.9-7.3-.7 5-1.6 9.8-1.6 14.9 0 5-1 9.6-.2 14.5m-9.5-42.8c-5.3-2.1-11.5-9.7-13.1-14.3-1.8-5-1.9-11.2-1.1-16.2.9-5.1 2.6-10.3 3.6-15.5.8-4.6 2.9-13.3 9.4-14.2-1.3 2.5-3.4 3.9-5.2 6.1-2 2.5-2.4 4.9-3.3 7.8-1.5 5.2-1.5 10.3-.9 15.7 1.1 10.8 1.9 21.5 9.2 30.7" opacity=".54"/><path d="M211 59.3c.2-2.4-2.7-4-4-6.1-1.2-2-1.7-4.1-2.5-6.2-1.7-4.3-2.6-8.3-3.1-12.8-.5-5 .2-8.4 1.7-13.1 1.1-3.6 1.4-10.4 6.6-12.6-7.1 6.4-5.1 16.9-5.1 24.6.1 8.2.5 18.3 5.9 25.7" opacity=".54"/></g><path fill="#C12227" d="M197 6.7s-17.2 6.2-24.8 8.9c-7.6 2.7-20.6 6.5-29 8.9-8.4 2.4-19.5 4.9-33.3 4.3-13.8-.6-26.9-2.6-35.3-5-8.4-2.4-28.6-9.6-35.8-11.6-7.2-2.1-11.4-1.7-13.5-2.4C23.3 9.1 10 0 10 0h192.8L197 6.7z"/><path fill="#8C181B" d="M28.5 10.3s54.2 18.3 81.4 18.6c27.2.3 81.4-20 81.4-20l3.4-1.6 2.6-4.3s-50.6 24.5-86.6 22.7c-36-1.9-79.3-15.6-79.3-15.6l-2.9.2z" opacity=".54"/><path fill="#8C181B" d="M16.4.8s59 20.9 94.2 20.8c35.2-.1 69.6-11.1 74.3-14.3 4.6-3.2 12.8-7.3 12.8-7.3s-16.9 7.9-29.6 10.8c-12.7 2.9-48.7 7.7-57.4 7.4-8.7-.4-50.7-6.8-56.1-8.6C49.1 7.8 19.5.3 19.5.3l-3.1.5z" opacity=".54"/><path fill="#8C181B" d="M36.7.3S91.1 12 108.9 12c25.5 0 46.5-3.4 56.9-5.8C176.3 3.7 182.1 0 182.1 0H176s-49.3 12.1-67.1 10.1C91 8.2 46.6 0 46.6 0l-9.9.3z" opacity=".54"/><path fill="#8C181B" d="M90.3.8s10.1 3.7 19.1 3.7c9 0 24.5-3.6 26.8-3.7 2.3-.1-22.4 2.1-26.4 1.8-4.1-.2-18-2.6-18-2.6l-1.5.8z" opacity=".54"/><path fill="#C12227" d="M31.3 49.5c.8-5.5 1.7-28.4 0-32.2-1.7-3.8-4.9-12.7-5.4-14-.5-1.4 0-3.3 0-3.3H.6v103.2s-.1-1.4 2.5 0c2.5 1.4 5.5 3.4 8.4 3.1 3-.3 4.9 0 4.9 0s-2 0 2.6-1.4 5.9-2.7 5.9-2.7l2.5-2.1s-1.7-3.8-2.5-8.2c-.8-4.5-2.1-13-3.4-15.1-1.3-2.1-3.4-8.9-3.4-8.9v-3.8c.1.1 12.3-9.1 13.2-14.6z"/><path fill="#8C181B" d="M.6 57.7l17.6 6.5s1.8 2.2-1.3 2.2S5.5 64.8 3 63.2C.6 61.6.6 57.7.6 57.7z"/><path fill="#8C181B" d="M.6 57.7s4-10.9 4.6-23.7C5.8 21.2.6 0 .6 0v57.7zm6.6 0s13.6-15 11.1-32.3C15.8 8.2 5.2.3 5.2.3L10 0s12.1 21.3 12.2 28.7c.2 12.4-12.5 30.6-12.5 30.6l-2.5.8v-2.4z" opacity=".54"/><path fill="#8C181B" d="M13.7 61.4s11-4.4 14.7-18.2c3.8-13.7-.3-24-1.9-27.3C24.9 12.7 13.7 0 13.7 0l2.7.8s18.2 12.8 15.2 33.3c-3 20.4-15.2 28.1-15.2 28.1l-2.7-.8zM3 103.3c3-4.6 1.3-13.8 1.4-19 .1-5.8-1.1-13.1.8-18.7 4.7 11.8-3.1 25.9-3.1 38" opacity=".54"/><path fill="#8C181B" d="M2.1 103.3c4.6 2.8 9.8 5.5 11.3-.7.9-3.8.1-8.2.1-12.1 0-3.8.7-7.5.5-11.3-.2-3.8-3.1-8.5-2.2-12.2 2.2 1.2 2.9 8.3 3.5 10.6.9 3.8 1.2 8.2 1 12.1-.2 3.8-.9 7.5-.9 11.3 0 1.7.9 4.9-1.8 5.5-1.3.3-6.8-1.7-8.3-2.1m12.8-35.5c0 6.3 2 12.3 4.6 18.2 1.3 3.1 2.5 6.1 3.5 9.2 1.5 4.5.4 5.8-5.7 7.1-.4-1.4-.1-2.9.7-4.2.2.4.4.7.6 1.1 6.2 1.1 2.7-5.5 2.3-7.8-.6-3.3-.8-6-2-9.2-1.9-5.3-2.3-12.6-4.4-17.1" opacity=".54"/></g><path fill="#F4EF82" d="M46.6 115.3c0 2.6-2.8 4.7-6.2 4.7-3.4 0-6.2-2.1-6.2-4.7s2.8-4.7 6.2-4.7c3.5 0 6.2 2.1 6.2 4.7z" opacity=".9"/><ellipse cx="67.3" cy="117.3" fill="#F4EF82" opacity=".9" rx="6.2" ry="4.7"/><ellipse cx="94.4" cy="117.8" fill="#F4EF82" opacity=".9" rx="6.2" ry="4.7"/><path fill="#F4EF82" d="M128.2 117.8c0 2.6-2.8 4.7-6.2 4.7-3.4 0-6.2-2.1-6.2-4.7s2.8-4.7 6.2-4.7c3.4 0 6.2 2.1 6.2 4.7zm26.6-.5c0 2.6-2.8 4.7-6.2 4.7-3.4 0-6.2-2.1-6.2-4.7s2.8-4.7 6.2-4.7c3.5.1 6.2 2.2 6.2 4.7zm27.3-1c0 2.6-2.8 4.7-6.2 4.7-3.4 0-6.2-2.1-6.2-4.7s2.8-4.7 6.2-4.7c3.5 0 6.2 2.1 6.2 4.7zm28.5-2.5c0 2.6-2.8 4.7-6.2 4.7-3.4 0-6.2-2.1-6.2-4.7s2.8-4.7 6.2-4.7c3.4 0 6.2 2.1 6.2 4.7zm-189.5 0c0 2.6-2.8 4.7-6.2 4.7-3.4 0-6.2-2.1-6.2-4.7s2.8-4.7 6.2-4.7c3.4 0 6.2 2.1 6.2 4.7z" opacity=".9"/><path fill="#A8794F" stroke="#A8794F" d="M.6 111s59.4 6 109.7 5.2c50.3-.8 49.5-.4 63-1.2 13.5-.8 46.7-4 46.7-4v18H.6v-18z"/><path fill="#D49439" d="M46.9 90.2s.8.9 0 2.1c-.8 1.2-2.9 2.5-2.7 3.6.1 1.1 0 3 0 3h-1.8s-.4-1.9 0-2.6c.4-.7.4-6.1.4-6.1h4.1zm56.8-1.4s-.8.9 0 2.1c.8 1.2 2.8 2.5 2.6 3.6-.1 1.2 0 3 0 3h1.8s.4-1.9 0-2.6c-.4-.7-.4-6.1-.4-6.1h-4z"/><path fill="#E9B04C" d="M35.9 74.8l1 .5S41.4 64.7 54 64.2c11.7-.5 11.1 1.3 17.4 3.9 5.2 2.2 7 4 13.2 5.6 6.9 1.7 14 2.4 14.9 2.8.9.4 4.2 1.5 5.3 3.7 2.2 4.1 1.5 4.4 1.5 4.4l-63.1 1.3s-.3-3.9-1.4-5.4c-1.1-1.4-4.2-4.6-4.2-4.6l-1.7-1.1z"/><path fill="#F2C460" stroke="#F2C460" stroke-width=".119" d="M43.7 92.5s-1-9.4-2-11.3c-1-1.9-3.5-7.1-8.6-5.4l-1.1.8s-.8-.2-1.1 1.7c-.4 1.9-.3 3 1.1 4.6 1.4 1.6 3.2 3.1 5.2 4.4 2 1.3 2.2 3.2 2.2 3.2l-.1 1.9h4.4z"/><path fill="#F2C460" stroke="#F2C460" stroke-width=".119" d="M36.9 75.1l1 .5s4.6-11.1 17.2-10.9c12.6.2 9.8 1.7 15.9 4 5.3 2 10.1 5.7 16.5 6.5 6.4.9 10.7 1.2 11.6 1.6.9.4 4.8 2 5.3 4.3s1.4 3.9 1.4 3.9l-61.6 1.1s-.3-3.9-1.4-5.4c-1.1-1.4-4.2-4.6-4.2-4.6l-1.7-1z"/><path fill="none" stroke="#E9B04C" stroke-width=".119" d="M36.2 79c4 3.6 3.7 8.5 3.9 13"/><path fill="#F5C76F" stroke="#F2C460" stroke-width=".119" d="M107 84.8l8.1 2.1-72 1.2V86z"/><path fill="#E9B04C" d="M39.4 90.6c0 1.6-.1 1.9-.1 1.9s65.7.5 68.4 0c2.8-.5 6.6-1.2 6.6-1.2l.8-4.3-71.9 1.2-5 .1c-.1-.1 1.3.6 1.2 2.3z"/><path fill="#E1A542" d="M43.7 92.5s.8.9 0 2.1c-.8 1.1-2.9 2.5-2.7 3.6.1 1.2 0 3 0 3h-1.8s-.4-1.9 0-2.6c.4-.7.4-6.1.4-6.1h4.1zm66.8-1.3s-.8.9 0 2.1c.8 1.1 2.8 2.5 2.6 3.6-.1 1.1 0 3 0 3h1.8s.4-1.9 0-2.6c-.4-.7-.4-6.1-.4-6.1h-4z"/><g fill="#E9B04C"><ellipse cx="44.2" cy="73.8" rx="1.2" ry="1"/><path d="M45.2 76.3c-.5-.5-.7-1-.6-1.6m-1-.8c-1.2-.2-2.3.3-2.5 1.2m3.9-1.7c-.3 0-.4-.1-.4-.3.5-.3 1.1-.5 1.7-.6m-2.3.8c0-.6-.2-1.1-.8-1.5"/></g><g fill="#E9B04C"><ellipse cx="59.1" cy="69.8" rx="1.2" ry="1"/><path d="M60.1 72.2c-.5-.5-.7-1-.6-1.6m-1-.8c-1.2-.2-2.3.3-2.5 1.2m3.9-1.6c-.3 0-.4-.1-.4-.3.5-.3 1.1-.5 1.7-.6m-2.3.7c0-.6-.2-1.1-.8-1.5"/></g><g fill="#E9B04C"><ellipse cx="68.2" cy="72.3" rx="1.2" ry="1"/><path d="M69.2 74.8c-.5-.5-.7-1-.6-1.6m-.9-.8c-1.2-.2-2.3.3-2.5 1.2m3.8-1.7c-.3 0-.4-.1-.4-.3.5-.3 1.1-.5 1.7-.6m-2.3.8c0-.6-.2-1.1-.8-1.5"/></g><g fill="#E9B04C"><path d="M60.2 83c0 .6-.5 1-1.2 1-.6 0-1.2-.4-1.2-1s.5-1 1.2-1c.6 0 1.2.5 1.2 1zm-.2 2.5c-.5-.5-.7-1-.6-1.6m-1-.8c-1.2-.2-2.3.3-2.5 1.2"/><path d="M59.8 82.6c-.3 0-.5-.1-.4-.3.5-.3 1.1-.5 1.7-.6m-2.3.8c0-.6-.2-1.1-.8-1.5"/></g><g fill="#E9B04C"><ellipse cx="47.8" cy="81.6" rx="1.2" ry="1"/><path d="M48.8 84.1c-.5-.5-.7-1-.6-1.6m-1-.8c-1.2-.2-2.3.3-2.5 1.2m3.9-1.7c-.3 0-.4-.1-.4-.3.5-.3 1.1-.5 1.7-.6m-2.3.8c0-.6-.2-1.1-.8-1.5"/></g><g fill="#E9B04C"><ellipse cx="55.9" cy="75.8" rx="1.2" ry="1"/><path d="M56.8 78.3c-.5-.5-.7-1-.6-1.6m-.9-.8c-1.2-.2-2.3.3-2.5 1.2m3.8-1.7c-.3 0-.5-.1-.4-.3.5-.3 1.1-.5 1.7-.6m-2.2.8c0-.6-.2-1.1-.8-1.5"/></g><g fill="#E9B04C"><ellipse cx="77.1" cy="76.1" rx="1.2" ry="1"/><path d="M78.1 78.5c-.5-.5-.7-1-.6-1.6m-1-.8c-1.2-.2-2.3.3-2.5 1.2m3.9-1.6c-.3 0-.4-.1-.4-.3.5-.3 1.1-.5 1.7-.6m-2.3.7c0-.6-.2-1.1-.8-1.5"/></g><ellipse cx="77.4" cy="82.1" fill="#DDD0BC" rx="1.2" ry="1"/><path fill="none" stroke="#DDD0BC" stroke-width=".119" d="M78.4 84.5c-.5-.5-.7-1-.6-1.6m-1-.8c-1.2-.2-2.3.3-2.5 1.2m3.9-1.6c-.3 0-.4-.1-.4-.3.5-.3 1.1-.5 1.7-.6m-2.3.7c0-.6-.2-1.1-.8-1.5"/><path fill="#DDD0BC" d="M87.2 80c0 .6-.5 1-1.2 1s-1.2-.4-1.2-1 .5-1 1.2-1 1.2.4 1.2 1z"/><path fill="none" stroke="#DDD0BC" stroke-width=".119" d="M87 82.4c-.5-.5-.7-1-.6-1.6m-.9-.8c-1.2-.2-2.3.3-2.5 1.2m3.8-1.6c-.3 0-.4-.1-.4-.3.5-.3 1.1-.5 1.7-.6m-2.2.7c0-.6-.2-1.1-.8-1.5"/><ellipse cx="95.6" cy="81.9" fill="#DDD0BC" rx="1.2" ry="1"/><path fill="none" stroke="#DDD0BC" stroke-width=".119" d="M96.5 84.3c-.5-.5-.7-1-.6-1.6M95 82c-1.2-.2-2.3.3-2.5 1.2m3.8-1.7c-.3 0-.4-.1-.4-.3.5-.3 1.1-.5 1.7-.6m-2.2.8c0-.6-.2-1.1-.8-1.5"/><g fill="#E9B04C"><ellipse cx="66.8" cy="79.9" rx="1.2" ry="1"/><path d="M67.8 82.3c-.5-.5-.7-1-.6-1.6m-1-.8c-1.2-.2-2.3.3-2.5 1.2m3.9-1.6c-.3 0-.4-.1-.4-.3.5-.3 1.1-.5 1.7-.6m-2.3.7c0-.6-.2-1.1-.8-1.5"/></g><g fill="#E9B04C"><ellipse cx="50.5" cy="69" rx="1.2" ry="1"/><path d="M51.5 71.4c-.5-.5-.7-1-.6-1.6m-1-.7c-1.2-.2-2.3.3-2.5 1.2m3.9-1.7c-.3 0-.5-.1-.4-.3.5-.3 1.1-.5 1.7-.6m-2.3.8c0-.6-.2-1.1-.8-1.5"/></g><path fill="#952B20" stroke="#952B20" stroke-width=".119" d="M89.1 75.7s4 .6 6.6 0c2.5-.6 6.3 0 6.3 0l.8 9.1s-3.9.6-5.7.5c-1.8-.1-6.3 0-6.3 0s-.4-4.9-.4-5.7c0-.8-1.3-3.9-1.3-3.9z"/><g stroke-width=".119"><path fill="#684119" stroke="#684119" d="M72.3 83.1s2.1-1.4 2.8-4c.7-2.6 2.2-6.8 2.2-6.8s4.8 1.4 6.9 1.1c2.1-.4 5.9.1 5.9.1s-2.2 5.6-2.8 7.3c-.6 1.7-.5 4.8-.5 4.8s-6.9 0-8.9-1c-2.1-.9-5.6-1.5-5.6-1.5z"/><g fill="#4B2B16" stroke="#4B2B16"><circle cx="80.4" cy="78.9" r=".6"/><path d="M81 80.2c-.3-.3-.4-.6-.3-.9m-.6-.4c-.7-.1-1.2.2-1.4.7m2.2-.9c-.2 0-.2-.1-.2-.2.3-.2.6-.3 1-.3m-1.4.4c0-.3-.1-.6-.4-.8"/></g></g><g fill="#80201A" stroke="#80201A" stroke-width=".119"><circle cx="96.5" cy="80.5" r=".6"/><path d="M97 81.9c-.3-.3-.4-.6-.3-.9m-.5-.4c-.6-.1-1.2.2-1.4.7m2.1-1c-.2 0-.2-.1-.2-.2.3-.2.6-.3 1-.3m-1.3.4c0-.3-.1-.6-.4-.8"/></g><g fill="#DEA03D"><ellipse cx="50.5" cy="69" rx=".7" ry=".6"/><ellipse cx="59.1" cy="69.8" rx=".7" ry=".6"/><ellipse cx="68.2" cy="72.3" rx=".7" ry=".6"/><ellipse cx="55.9" cy="75.8" rx=".7" ry=".6"/><ellipse cx="66.8" cy="79.9" rx=".7" ry=".6"/><ellipse cx="59" cy="83" rx=".7" ry=".6"/><ellipse cx="47.8" cy="81.6" rx=".7" ry=".6"/><ellipse cx="44.2" cy="73.8" rx=".7" ry=".6"/></g><path fill="#F4EF82" d="M164.3 35.8l41.5-32.1-32.4 38.1s-4.9.3-7.7-1.1c-2.7-1.5-1.4-4.9-1.4-4.9zM42.9 41.3L14.6 1.9 54 35.6l-3 5.7zm126.4 35.1l35.6 35.9-45.6-29.1 1.9-5.9zM60.9 97.2L7.2 115.9 54 88.6l7.3 2.6z" opacity=".18"/><path fill="#FFF" stroke="#FFF" d="M127.8 61c-.8-.2-2.9 1-3.7 1.4-1.3.6-2.9 1.3-4 2 .8.8 2.2 1.6 3.3 2.1.7.3 4.9 1.2 2.7 2.4-.7.4-3.9-.5-4.7-.8-1.4-.5-3-1.2-4.2-1.9-1.5-.9-2.3-1.5-1.4-2.9.7-1.2 1.9-2.2 3.4-2.8 1.5-.6 3.5-1 5.1-1.4.6-.1 2-.6 2.6-.2.8.5-.3 1.6.8 2.2m6.6-2.3c1.2 0 2.4.2 3.6.2 1.5 0 2.4.3 3.8.6 0 .6-1 1.5-1.2 2.2-.3.7-.7 1.6-.9 2.4-.3 1.2-1.3 3.1-.8 4.4-1.1-.3-2.7-.3-3.8-.1.1-1.6-.4-3.1-.6-4.7-.3-1.7-.2-3.3-.1-5"/><path fill="#A84498" stroke="#A84498" d="M123.4 105.1c0-1.6-.6-3.1-.8-4.7-.2-1.5-.8-3.2-.5-4.6.2-1.3.7-2.9 1.2-4.1.4-1 .7-2.2 1.3-3.1.3-.5.8-.8 1.1-1.2.4-.5.6-1.1.9-1.6.4-.7.8-1.4 1.1-2.2.6-1.5 1.2-2.9 2.3-4.2 1.1-1.4 2-2.8 2.9-4.2.4-.7.8-1.3 1.1-2 .5-1 1.1-2.6-.4-3.2-1-.4-2.8-.4-3.9 0-1.8.6-3.8 2-5.2 3.2-1.4 1.2-2.1 3-2.9 4.5-.4.7-.4 1.4-.6 2.1-.3.8-.8 1.6-1.2 2.4-.7 1.5-1.1 3.1-1.9 4.5-1 1.7-1.4 3-1.6 4.9-.4 3.1-1.2 6.1-1.2 9.2 0 .9-.2 2.1.7 2.8.7.6 2.4 1.5 3.3 1.7 1.5.4 2.7-.3 4.2-.3m21.5-34.5c1.4 0 1.4-.1 2.1.9.5.7.9 1.7 1.6 2.3.7.8 1.4 1.2 1.9 2.1.5.8 1 1.6 1.6 2.3.6.7.7 1.4 1.3 2.1.6.8 1.3 1.3 1.7 2.3 1.2 3.1 2.6 6 3.2 9.3.5 3 1.2 5.9.7 8.9-.2 1.1.4 2.2.8 3.2-.3 0-.7 0-.9.1-.3.2-.5.4-.8.6-.7.4-1.3.5-2.2.6-1.5.2-3 .5-4.5.7-2.3.4-4.7.6-7 .7-.9 0-1.8.3-2.3-.3-.4-.6-.1-1.8-.1-2.4.1-.9 0-1.9.1-2.8.2-1 0-1.8 0-2.8-.1-2.5.6-4.9.2-7.4-.1-.8-.1-1.6-.2-2.3-.4-2.2-.3-4.4-.9-6.6-.2-.7-.2-1.2-.3-1.9-.1-.8-.6-1.5-.6-2.3-.1-1-.1-2.1-.1-3.1 0-.8.2-1.6 0-2.4-.2-1-1.5-2.3.5-2.3 1.3-.2 2.7.5 4.2.5z"/><path fill="#FFF" d="M126.2 106.3l3.3.3c1.1.1 2.2.4 3.4.5 1.1.1 2.2-.1 3.3 0 1.7.1 5.4.9 5.8-1.2.1-.8-.1-1.8-.1-2.7.1-2.2-.3-4.7.2-6.9.1-.7.3-1.6.1-2.3-.1-.7-.6-1.4-.7-2.1-.1-.8.1-1.4.2-2.2.1-.8 0-1.5-.1-2.3-.2-1.5-.3-3-.7-4.5-.4-1.4-.5-2.9-.8-4.4-.3-1.4.1-2.8 0-4.2 0-.6-.2-1.3-.3-1.9-.1-.4-.3-1.9-.6-2.2-.9-.8-4.2-.2-4.9.5-1.1 1.1-1.2 2.9-1.9 4.2-.8 1.4-1.3 2.8-2.3 4.1-1.1 1.5-2.4 2.6-3.1 4.2-.6 1.4-1.2 2.8-1.8 4.1-.3.7-.9 1.3-1.2 2-.4.8-.6 1.6-.8 2.4-.3 1.1-1.1 2-1.3 3.2-.1 1.2 0 2.5-.1 3.7-.1 1.2.2 2.5.6 3.6.3 1.4 1.4 3.7 3.8 4.1z"/><path fill="#DAA3CA" d="M136.8 82.1c0 .3-.2.5-.4.5s-.4-.2-.4-.5.2-.5.4-.5c.3 0 .4.2.4.5z"/><ellipse cx="141.2" cy="104.9" fill="#DAA3CA" rx=".4" ry=".5"/><ellipse cx="121.6" cy="97.9" fill="#DAA3CA" rx=".4" ry=".5"/><ellipse cx="133.8" cy="75.1" fill="#DAA3CA" rx=".4" ry=".5"/><path fill="#DAA3CA" d="M138.9 82.6c0 .3-.2.5-.4.5s-.4-.2-.4-.5.2-.5.4-.5.4.2.4.5zm-8.8-.5c0 .3-.2.5-.4.5s-.4-.2-.4-.5.2-.5.4-.5.4.2.4.5zm9.7 6.2c0 .3-.2.5-.4.5s-.4-.2-.4-.5.2-.5.4-.5.4.2.4.5z"/><ellipse cx="131.5" cy="93" fill="#DAA3CA" rx=".4" ry=".5"/><path fill="#DAA3CA" d="M128.8 100.1c0 .3-.2.5-.4.5s-.4-.2-.4-.5.2-.5.4-.5c.3 0 .4.3.4.5zm7.3.5c0 .3-.2.5-.4.5s-.4-.2-.4-.5.2-.5.4-.5c.3 0 .4.3.4.5zm5.1-5.5c0 .3-.2.5-.4.5s-.4-.2-.4-.5.2-.5.4-.5c.2-.1.4.2.4.5zm0 6.1c0 .3-.2.5-.4.5s-.4-.2-.4-.5.2-.5.4-.5c.2-.1.4.2.4.5zm-2.6 4.7c0 .3-.2.5-.4.5s-.4-.2-.4-.5.2-.5.4-.5.4.3.4.5zm-4.7-.5c0 .3-.2.5-.4.5s-.4-.2-.4-.5.2-.5.4-.5c.3 0 .4.3.4.5zm-5.7 0c0 .3-.2.5-.4.5s-.4-.2-.4-.5.2-.5.4-.5c.3 0 .4.3.4.5z"/><ellipse cx="123.5" cy="102.2" fill="#DAA3CA" rx=".4" ry=".5"/><ellipse cx="124.6" cy="95.1" fill="#DAA3CA" rx=".4" ry=".5"/><path fill="#DAA3CA" d="M135.4 70.7c0 .3-.2.5-.4.5s-.4-.2-.4-.5.2-.5.4-.5.4.2.4.5zm3.1 6.8c0 .3-.2.5-.4.5s-.4-.2-.4-.5.2-.5.4-.5c.3 0 .4.2.4.5zm-.7-10.9c0 .3-.2.5-.4.5s-.4-.2-.4-.5.2-.5.4-.5.4.2.4.5zm-1 26.9c0 .3-.2.5-.4.5s-.4-.2-.4-.5.2-.5.4-.5c.3 0 .4.3.4.5zm-3.8 4.6c0 .3-.2.5-.4.5s-.4-.2-.4-.5.2-.5.4-.5.4.2.4.5zm-5.1-11.6c0 .3-.2.5-.4.5s-.4-.2-.4-.5.2-.5.4-.5.4.2.4.5zm8.9 1.8c0 .3-.2.5-.4.5s-.4-.2-.4-.5.2-.5.4-.5c.3 0 .4.2.4.5zm-8.6 5.7c0 .3-.2.5-.4.5s-.4-.2-.4-.5.2-.5.4-.5c.3 0 .4.3.4.5zm9.6-21.3c0 .3-.2.5-.4.5s-.4-.2-.4-.5.2-.5.4-.5.4.3.4.5zm-5.2 6.8c0 .3-.2.5-.4.5s-.4-.2-.4-.5.2-.5.4-.5c.3 0 .4.3.4.5z"/><ellipse cx="131.9" cy="87" fill="#DAA3CA" rx=".4" ry=".5"/><ellipse cx="139" cy="62.8" fill="#DAA3CA" rx=".4" ry=".5"/><path fill="#DAA3CA" d="M135.8 63.3c0 .3-.2.5-.4.5s-.4-.2-.4-.5.2-.5.4-.5.4.2.4.5z"/><path fill="#E4E4E4" stroke="#BFBDBD" stroke-width=".25" d="M141.2 68.7c-.1-.1 0-.3-.1-.4.1 0 .4-.1.5-.1 0-.8 0-.9.5-1.6.3-.5.7-1.1.1-1.6.7-.5.6-.6.9-1.2.2-.4.9-.5.1-1 .7-.3.8-.6 1-1.1.1-.2-.1-.4 0-.6.1-.3.5-.4.7-.6.2-.2.9-.8.5-1.2-.3-.3-1.3-.1-1.8-.1.5 0 .4-.1.5-.4.2-.4.9-.8 1-1.4-.2 0-.4-.1-.8 0 .5-.3.7-.8.2-1.1-1.4.6-1.7 1.7-2.5 2.7-.9 1-1.5 1.9-2 3.1l-1.2 3c-.3.8-1 2.1-.5 2.9.4.7 2.7.3 2.9.7z"/><path fill="#FDD9B6" d="M126.3 68.7c-.7.2-.9 1.4-1 1.9-.1 1 .6 1.8 1.2.7.2-.4.4-2 1.6-1.1 1 .9-1.4.8-1.7 1.2.7.2 2.5.3 2.9-.3.5.8-.9 1.3-1.2 1.9 1.3 1 2.1-1.7 2.4-2.2.8.2.6 1.2.5 1.8.9.5.9-1.4.7-1.8-.1-.1-1.5-.9-.7-1 .4-.1 1.1.8 1.5 1 .5-.8-2.4-1.9-3.1-2.2-1-.5-3.3-1.1-3.3.7"/><path fill="#DCDBDA" stroke="#DCDBDA" d="M136.1 73.2c-.6 1.2-1.5 2.3-2.3 3.5-.7 1.1-1.3 2.4-1.8 3.7-.5 1.3-.9 2.5-1.7 3.7-.8 1.1-1.8 2.5-1.8 3.7.8-.3 1.5-2.1 1.9-2.7.5-1.1.9-2.1 1.6-3.1.7-1 1.2-1.9 1.9-2.9.3-.4.7-1.2 1.1-1.4 1-.6.8 0 .8.6.1 2.1-.1 4-.1 6.2 0 1.1.4 2 .5 3.1.1 1.4-.7 2.2.9 3.1 1.3-.7.6-3.4.5-4.4-.1-1.5-.2-3-.4-4.4-.2-1.4-.4-2.8-.4-4.2-.1-1.6-.6-3.1-.7-4.5" opacity=".36"/><path fill="#FABE14" d="M145.4 68.6c-.3.4 0 1.4-.3 1.7-.3.3-1.5.2-2.1.1-1.5-.1-2.9-.4-4.4-.5-1.5-.1-2.9 0-4.4-.1-1.3-.1-3.2-.6-4.4 0 0-.1.5-1.4.6-1.5.5-.3 1.7.2 2.2.2 1.3.1 2.8.1 4.1 0 3 0 5.9.1 8.7.1"/><path fill="#FDD9B6" d="M134 58.8l.2 1.8s1.7.2 3.2.5c1.5.3 3.2-.1 3.4 0 .3.2 1.9-1.9 1.9-1.9l.7-.5-9.4.1z"/><path fill="#E2A325" d="M135.1 71c1.2 1.5 1.7.6 3 .1-.1-.1-.2-.2-.3-.2.4-.2 1.6-.2 1.1-.8.5-.2 1.1-.5 1-1.1-.1-.4-.3-.3-.5-.6l-.8-.8c-.2-.2-.6-.2-.8-.3-.2 0-.3 0-.4-.1-.2-.1 0-.5-.2-.5-1-.4-1 .2-1.7.5-.6.2-1.2 0-1.6.5-.2.2.1.5-.1.7-.2.3-.8.1-.9.3-.1.1 0 .6 0 .7.2.5.5.2.7.5.2.2 0 .5.2.7.3.2.7.1 1 .3"/><path fill="#FABE14" d="M135.4 68.3c.3-.1.8-.1 1.2-.1.9.2.8.1.8.8 0 1-1.1 1-2.1.7v-1"/><path fill="#FDD9B6" d="M136.1 53.7c1.5 2.1-1.8 3.1-2.4 4.8-.7 2.4 2.9 2.9 4.9 2.6 3.1-.5 3-2 4.3-3.9.7-1.1-.6-1.4-.3-2.6.3-.9 2.3-1.8 2.4-2.8-1.4.3-2.7 1.3-4.2 1.7-1.4.3-2.9.3-4.3.3"/><path fill="#FDD9B6" d="M150.2 50.3s-2.3 1.4-5.3 2.4c-2.6.9-5.7 2.8-8.3 1.8-5.1-2-8.3-8-6.3-9.2 2-1.3-.8-3-.8-4.6 0-1.6.8-7.5 5.8-7.7 5-.2 12.6 2.7 12.4 4.4-.2 1.7 2 9.9 3 9.9 1.1 0-.5 3-.5 3z"/><linearGradient id="a" x1="2246.887" x2="2251.742" y1="50.841" y2="50.841" gradientTransform="matrix(-1 -.0006 -.0006 1 2382.337 -.576)" gradientUnits="userSpaceOnUse"><stop offset="0" stop-color="#ec1475"/><stop offset="1" stop-color="#fff5cb"/></linearGradient><path fill="url(#a)" d="M130.6 48.9c0 1 1.1 1.9 2.4 1.9 1.3 0 2.4-.9 2.4-1.9 0-1.1-1.1-1.9-2.4-1.9-1.3 0-2.4.9-2.4 1.9z" opacity=".18"/><circle cx="135.4" cy="43" r=".7" fill="#050506"/><path fill="#050506" d="M141.3 44.2c0 .4.3.7.7.7.4 0 .7-.3.7-.7 0-.4-.3-.7-.7-.7-.4 0-.7.3-.7.7z"/><linearGradient id="b" x1="2240.337" x2="2234.305" y1="51.576" y2="51.576" gradientTransform="matrix(-1 -.0006 -.0006 1 2382.337 -.576)" gradientUnits="userSpaceOnUse"><stop offset="0" stop-color="#ec1475"/><stop offset="1" stop-color="#fff5cb"/></linearGradient><path fill="url(#b)" d="M148 49.7c0 1.3-1.3 2.4-3 2.4s-3-1.1-3-2.4c0-1.3 1.4-2.4 3-2.4 1.7 0 3 1 3 2.4z" opacity=".18"/><path fill="none" stroke="#E58833" stroke-width=".25" d="M137.3 46.3c-1.2 0-1 1.3-.4 1.9"/><path fill="none" stroke="#F8EE6B" stroke-width=".25" d="M144.5 32.5c.7.4.8 1.9-.4 1.7.1-.2 0-.4.1-.5.4.8-.8 1.1-1.5.8"/><linearGradient id="c" x1="127.773" x2="155.791" y1="41.943" y2="41.943" gradientUnits="userSpaceOnUse"><stop offset="0" stop-color="#f05525"/><stop offset=".116" stop-color="#f36930"/><stop offset=".391" stop-color="#f89348"/><stop offset=".64" stop-color="#fcb259"/><stop offset=".851" stop-color="#fec463"/><stop offset="1" stop-color="#ffcb67"/></linearGradient><path fill="url(#c)" d="M136.5 37.1c2-.4 2.4 2.9 3.5 3.8 1.5 1.3 4.1.6 5.7 1.8 2.1 1.5 3.7 7.8 1 9.4 2.7 1.7 7.3-1.1 8.3-3.2 1.4-2.8.9-5.7.2-8.6-1.6-6.1-9-10-16.2-8.8-3.3.5-6.8 1.9-9.2 3.8-2.7 2.2 0 4.1-1.8 7.9-.4.8.2 3.1.8 3.7 1.8 1.6 2.7-1.9 2.7-2.7 0-2.1 1.4-7.3 4.7-6.8"/><path fill="none" d="M136.5 36.1c3.2-.3 1.7 1.9 2.5 3.2.6 1 4.1 1.9 5.4 2.5 2 1 3.1 2.3 4 4.2.8 1.7.2 3.6 3.1 3.2 3.6-.5 4.3-6.4 3.9-8.9-.7-3.9-5-6.6-8.4-8.8-6.8-4.4-19 1.3-20 8.1-.2 1.3-.1 3.5.4 4.8.3.7 1 2.1 2.3 1.7.9-.3.5-1.7.5-2.3 0-1.8.5-3.3 1.5-4.9.8-1.2 3.3-3.4 5.2-2.8"/><linearGradient id="d" x1="139.028" x2="147.994" y1="59.571" y2="59.571" gradientUnits="userSpaceOnUse"><stop offset="0" stop-color="#f05525"/><stop offset=".116" stop-color="#f36930"/><stop offset=".391" stop-color="#f89348"/><stop offset=".64" stop-color="#fcb259"/><stop offset=".851" stop-color="#fec463"/><stop offset="1" stop-color="#ffcb67"/></linearGradient><path fill="url(#d)" d="M146.5 52.2c-.8.3-2.4 1.2-2.4 2 0 1 2 1.1 1 2.3-.7.8-2.1 0-2.8 1-.8 1.3 1.4 1.4.9 2.7-.6 1.6-4.2.6-3.7 3.3.2 1.3 1.1.8.4 2.2-.2.5-1.1.4-.9 1.2.2.6 1.1.7 1.6.5 0-.3-.2-1.1-.1-1.3 0 0 .7-1.2.7-1.1.1-.7.2-.4.1-1.1-.1-.4-.9-.7-.9-1.3.1-1.8 3.4-.7 3.5-3.1 0-1.6-1.1-.9.7-2 1.1-.7 1.7 0 1.9-1.6.1-.7-.8-1.7-.5-2.4.4-.9 2-.6 2-1.9-.8-.4-1.6.1-2.1.7"/><linearGradient id="e" x1="146.119" x2="148.654" y1="48.312" y2="48.312" gradientUnits="userSpaceOnUse"><stop offset="0" stop-color="#f05525"/><stop offset=".116" stop-color="#f36930"/><stop offset=".391" stop-color="#f89348"/><stop offset=".64" stop-color="#fcb259"/><stop offset=".851" stop-color="#fec463"/><stop offset="1" stop-color="#ffcb67"/></linearGradient><path fill="url(#e)" d="M147.5 45.1c-.4.2-.7.5-.6.8 2.7.3-.3 1.2-.3 1.8 0 .4.9.5.6 1-.2.4-1.4.5-1 1.1 2.9-.2.1.9.1 1.4.3.1 1 .2 1.5.2.2 0 .3-.1.3-.3-.5-.2-1.1-.2-1.8-.2-.6-.7 1-.9 1.3-1.4-.9-.2-1.1-.4-1.2-.8 0-.2.8-.4.8-.6 0-.2-.7-.5-.6-.6.3-.5 2.1-.7 2-1.2-.1-.5-2-.3-1.3-1.1"/><linearGradient id="f" x1="129.839" x2="132.379" y1="47.014" y2="47.014" gradientUnits="userSpaceOnUse"><stop offset="0" stop-color="#f05525"/><stop offset=".116" stop-color="#f36930"/><stop offset=".391" stop-color="#f89348"/><stop offset=".64" stop-color="#fcb259"/><stop offset=".851" stop-color="#fec463"/><stop offset="1" stop-color="#ffcb67"/></linearGradient><path fill="url(#f)" d="M131.2 43.8c-.4.2-.7.5-.6.8 2.7.3-.3 1.2-.3 1.8 0 .4.9.5.6 1-.2.4-1.4.5-1 1.1 2.9-.2.1.9.1 1.4.3.1 1 .2 1.5.2.2 0 .3-.1.3-.3-.5-.2-1.1-.2-1.8-.2-.6-.7 1-.9 1.3-1.4-.9-.2-1.1-.4-1.2-.8 0-.2.8-.4.8-.6 0-.2-.7-.5-.6-.6.3-.5 2.1-.7 2-1.2-.1-.5-2-.2-1.3-1.1"/><path fill="#FDD9B6" d="M167.2 66.9c1-.3 2.3-.2 3.5-.7 1.4-.6 1.8-1.5 3.3-1.5 1 1-3.3 1.5-2.8 2.3.9-.1 2.2-.9 3.2-1.1.6-.1 1.2-.1.7.5-.3.3-1.2.5-1.6.7-.3.1-1.5.5-1.6.7-.4.5.5.5 1 .6.7.1 2.8.1 2.8.9-.5.2-1.7.2-2.2.1-.7-.1-1.5-.5-2.3-.4-2.5.4 1.8 2.7 1.8 3.5 0 1.1-1.8-.2-2.1-.5-.3-.3-.6-.7-1-1-.3-.2-1.1-.7-1.4-.8-2-.2.9 3.8-.1 3.8-1-.3-2-2.8-2.1-3.6-.1-.8-.7-1 0-1.6.7-.5.9-1 .8-1.7"/><path fill="#A84498" stroke="#983392" d="M145.1 61.9c.6-1.2.7-2.4 2.1-3.3 1.3-.8 2.5-.8 3.9-.4.7.2 1.2.6 1.5 1.3.4.8-.2.9-.8 1.4-.5.4-.9 1-.9 1.6 0 .6.5 1 .7 1.6-1.2.5-2.9.7-4.2.4-1.7-.3-2.5-1.4-2.4-2.8"/><path fill="#E4E4E4" stroke="#BFBDBD" stroke-width=".25" d="M152.3 60.4c1.5-.1-.2 1.2-.4 1.4-.7.7 0 1.2-.1 1.9-.8.2-1-.9-.9-1.3.1-.8.5-1.5 1.4-1.9"/><path fill="#FFF" stroke="#FFF" d="M152.9 61l13.6 5.6s.8.7 0 1.4-1.2.5-1.2.5l-13.5-5.3s-.4-.8-.2-1.1c.3-.3 1.3-1.1 1.3-1.1z"/><path fill="#E4E4E4" stroke="#BFBDBD" stroke-width=".25" d="M167 66.4c1 .6-.3 3.3-1.3 2.8-.9-.5.6-.8.8-1 .4-.4.7-1.2.1-1.5.2-.2.6-.3.9-.2"/><path fill="#FFF" d="M145.3 62.8c-2 2.2-2 4-2.3 6.6-4.4-.6.4-6.2 1.9-7.5"/><path fill="#A84498" stroke="#A84498" d="M131.3 61.9c-2.9.9-7-2.9-4.6-5.1.9-.8 3.2-1.8 4.3-.8 1.2 1 .7 2.9 1.8 4-.3.3-.5.7-.7 1"/><path fill="#E4E4E4" stroke="#BFBDBD" stroke-width=".25" d="M135.1 68.2c.1-.7-.3-1.4-.5-2.1-.2-.7-.1-1.4-.1-2.1 0-1.5-.3-2.8-.1-4.3.1-.7-.3-1.4 0-2.1.2-.5 1.9-1.4 1.5-2-.9-1.3-4.2.3-3.7 1.6-.7.1-.8.6-1.2 1-.3.4-.8.8-.3 1.2-.3.2-.5 1.1-.7 1.4.2 0 .3.2.5.2-.2.2-.3.5-.5.7.3.2.2.3.3.6-.1.1-.1.2-.2.3 0 .1.4.4.4.4.1.6-.2 1.2.8 1.3-.3.8.5 1 .7 1.8-.2 0-.7.1-.8.3-.1.5.3.3.3.6s-.5 1.2 0 1.5c.6.4 3.5.3 3.7-.4"/><linearGradient id="g" x1="137.118" x2="146.088" y1="60.256" y2="60.256" gradientUnits="userSpaceOnUse"><stop offset="0" stop-color="#f05525"/><stop offset=".116" stop-color="#f36930"/><stop offset=".391" stop-color="#f89348"/><stop offset=".64" stop-color="#fcb259"/><stop offset=".851" stop-color="#fec463"/><stop offset="1" stop-color="#ffcb67"/></linearGradient><path fill="url(#g)" d="M144.6 52.9c-.8.3-2.4 1.2-2.4 2.1 0 1 2 1.1 1 2.3-.7.8-2.1 0-2.8 1-.8 1.3 1.4 1.4.9 2.7-.6 1.5-4.2.6-3.7 3.3.2 1.3 1.1.8.4 2.2-.2.5-1.1.4-.9 1.2.2.6 1.1.7 1.6.5 0-.3-.2-1.1-.1-1.3 0-.1.7-1.2.7-1.1.1-.7.2-.4.1-1.1-.1-.4-.9-.7-.9-1.3.1-1.8 3.4-.7 3.5-3.1 0-1.6-1.1-.9.7-2 1.1-.7 1.7 0 1.9-1.6.1-.7-.8-1.7-.5-2.4.4-.9 2-.6 2-1.9-.8-.4-1.6 0-2.1.7"/><linearGradient id="h" x1="1671.373" x2="1678.547" y1="576.113" y2="576.113" gradientTransform="scale(-1 1) rotate(-37.198 .482 3019.3)" gradientUnits="userSpaceOnUse"><stop offset="0" stop-color="#f05525"/><stop offset=".116" stop-color="#f36930"/><stop offset=".391" stop-color="#f89348"/><stop offset=".64" stop-color="#fcb259"/><stop offset=".851" stop-color="#fec463"/><stop offset="1" stop-color="#ffcb67"/></linearGradient><path fill="url(#h)" d="M145.7 53.4c.5.7 1 2.2.4 2.9-.7.8-2.4-.1-2.4 1.3 0 .9 1.7 1.1 1.5 2.2-.3 1.4-2.1.4-2.7 1.6-.6 1.5 2.9 2.7.6 4.6-1.1.9-1.5.1-1.9 1.5-.2.6.6.9-.2 1.4-.6.4-1.4 0-1.7-.4.2-.2.9-.7 1-1 0-.1.3-1.3.2-1.2.4-.6.1-.4.8-.9.4-.3 1.2-.1 1.6-.5 1.3-1.5-2.3-2.3-.6-4.2 1.1-1.3 1.6-.2.9-2-.4-1.1-1.4-.9-.4-2.3.5-.6 1.9-1 2.1-1.7.3-.9-1.2-1.5-.2-2.6.9.1 1.3.9 1.1 1.6"/><ellipse cx="123.1" cy="60.3" fill="#DAA3CA" rx=".4" ry=".5"/><ellipse cx="120.4" cy="62.1" fill="#DAA3CA" rx=".4" ry=".5"/><ellipse cx="118.2" cy="65.6" fill="#DAA3CA" rx=".4" ry=".5"/><ellipse cx="116.4" cy="63.3" fill="#DAA3CA" rx=".4" ry=".5"/><path fill="#DAA3CA" d="M164.1 67.8c0 .3-.2.5-.4.5s-.4-.2-.4-.5.2-.5.4-.5.4.2.4.5zm-1.5-3.1c0 .3-.2.5-.4.5s-.4-.2-.4-.5.2-.5.4-.5.4.2.4.5zm-2.9.4c0 .3-.2.5-.4.5s-.4-.2-.4-.5.2-.5.4-.5.4.2.4.5z"/><ellipse cx="155.8" cy="62.8" fill="#DAA3CA" rx=".4" ry=".5"/><path fill="#DAA3CA" d="M153.3 62.8c0 .3-.2.5-.4.5s-.4-.2-.4-.5.2-.5.4-.5.4.2.4.5z"/><ellipse cx="123.1" cy="66.7" fill="#DAA3CA" rx=".4" ry=".5"/><path fill="#E58833" stroke="#E58833" stroke-width=".25" d="M135.5 51.9c0-.3.2-.5.3-.8.2-.3.2-.6.3-.9.2-.9 1-.1 1.1.4.2.7.1 1.1-.7 1.4-.3.1-.8.3-1 0-.2-.3.3-.6.4-.9"/><path fill="#FFF" d="M136 50.3c0 .4.8.4 1.1.3 0-.4-1.1-1.1-1.1-.3"/><path fill="#EC2024" stroke="#EC2024" stroke-width=".25" d="M137.4 51.6c0-.4-.3-2-1.2-1.7-.5.2 0 .7-.1.9-.3.6-.5-.2-.4-.4 0-.3-.1-.7.2-.9.2-.1.4 0 .7.1.2 0 .5 0 .6.1.3.3 1 1.8.4 2.1"/><path fill="#EC2024" stroke="#EC2024" stroke-width=".25" d="M135.6 51.1c-.4.1-.6.5-.7.8-.1.5 0 .5.5.6 1 .2 1.4-.1 2-.7-.7-.3-1 .6-1.6.4-.7-.2.8-1.3-.2-1.1"/><path fill="#E4E4E4" stroke="#BFBDBD" stroke-width=".25" d="M125.6 69.7c-.2-1.1.7-1.8 1.9-1.8-.6-1.9-2.3.7-2.3 1.6"/></g></switch></svg>
