<svg xmlns="http://www.w3.org/2000/svg" version="1.0" viewBox="0 0 189 47.4"><switch><g><linearGradient id="a" x1="125.531" x2="144.639" y1="34.55" y2="34.55" gradientUnits="userSpaceOnUse"><stop offset="0" stop-color="#979764"/><stop offset="1" stop-color="#676833"/></linearGradient><path fill="url(#a)" stroke="#343433" stroke-width=".15" d="M138 31.6c2.7.8 5.5.9 6.7 4-.9-.7-2.2-1.1-3.3-1.3.6 1.1.9 2.3 1.1 3.5-1.9-1.3-3.4-2.8-5.9-2.4.1.6-.1 1.3 0 1.9-2.6-3.4-7.4-3-11-4 0-.8.3-1.5 1-2"/><linearGradient id="b" x1="-1622.559" x2="-1624.128" y1="185.238" y2="136.993" gradientTransform="rotate(15.929 -304.555 6371.512) scale(1.0001)" gradientUnits="userSpaceOnUse"><stop offset="0" stop-color="#979764"/><stop offset="1" stop-color="#676833"/></linearGradient><path fill="url(#b)" stroke="#343433" stroke-width=".15" d="M125 7.3c-2.3-3 4.9-3.5 6.5-2.8 7 3.2 4.7 3.1 5.8 4.3 1.3 1.3 2.7 4.1 4.6 4.4 2.3.4 4.4-1.6 6.8-.1-.7.9-2.1.5-2.8 1.5 1.9.8 3.4 1.3 4.9 2.7-2.5 1.3-8 2-10.8 1.3-2.5-.6-5.2-1.2-7.2-3-2.5-2.3-4.6-4.6-7.3-6.7"/><linearGradient id="c" x1="-1754.108" x2="-1755.68" y1="-28.73" y2="-77.079" gradientTransform="rotate(-1.507 2599.534 -69338.241)" gradientUnits="userSpaceOnUse"><stop offset="0" stop-color="#979764"/><stop offset="1" stop-color="#676833"/></linearGradient><path fill="url(#c)" stroke="#343433" stroke-width=".15" d="M58.4 12.4c3.4-3 6.2-7.1 10.6-8.3 2-.6 3.9-.8 5.5 1 1.7 1.9 2 5.2.1 7.2"/><linearGradient id="d" x1="-1663.155" x2="-1664.726" y1="-31.728" y2="-80.043" gradientTransform="rotate(-1.507 2599.534 -69338.241)" gradientUnits="userSpaceOnUse"><stop offset="0" stop-color="#979764"/><stop offset="1" stop-color="#676833"/></linearGradient><path fill="url(#d)" stroke="#343433" stroke-width=".15" d="M180.9 32.1s.8 1.8-2.3 2.7c-7.2 2.2-13.7-.9-21.4-2.4-7-1.4-16.3-.6-18.1-5.3-.5-1.5-3.6-5.3.2-9.3"/><path fill="#CACA97" stroke="#343433" stroke-width=".15" d="M152.5 25c0 .6-.2 1-.2 1.6.5-.3.8-.7.7-1.3m1.1.4c.1.6-.2 1-.2 1.6.5-.3.8-.8.7-1.3m.8.6c.1.6-.2 1-.2 1.6.5-.3.8-.8.8-1.3m21 4.9c.3.5.2 1.2.4 1.7.3-.4.4-.9.3-1.5m.8-.3c.3.5.2 1.2.4 1.7.3-.4.4-.9.3-1.5m-20.3-3.4c0 .5.1 1.1-.1 1.6.5-.2.8-.8.7-1.3m.8 0c0 .5.1 1.1-.1 1.6.5-.2.8-.8.7-1.3m1 .1c0 .5.1 1.1 0 1.5.5-.2.8-.8.7-1.3m1 .1c0 .5 0 1.1-.1 1.5.5-.2.8-.8.7-1.3m5.8 2.8c-.2.5-.5 1.1-1 1.3.2-.5.2-1.3.4-1.8m-.8-.1c-.2.5-.5 1.1-1 1.3.2-.5.2-1.3.4-1.8m-.6-.4c-.2.5-.5 1.1-.9 1.3.2-.6.2-1.3.4-1.8m4.9 1.9c-.2.5-.1 1.5-.8 2.1 0-.7-.1-1.3-.3-1.9"/><linearGradient id="e" x1="-1728.867" x2="-1730.438" y1="-29.604" y2="-77.907" gradientTransform="rotate(-1.507 2599.534 -69338.241)" gradientUnits="userSpaceOnUse"><stop offset="0" stop-color="#979764"/><stop offset="1" stop-color="#676833"/></linearGradient><path fill="url(#e)" stroke="#343433" stroke-width=".15" d="M142.1 21.9c4.3-1.3 10.8 3 13.7 5 2.8 2 5.5 2 8.5 2.8 2.9.7 5 3.3 8 3.1 1.8-.2 3.3-1 5-.9 1.6.1 2.9.5 4.7 0 2.6-.8 5.6-4.1 3.2-6.8-5.2-3.6-3.5-.8-7.3-2.1-4-.3-7.2-2.3-10.3-3.7-2.7-1.3-5.3-2.6-7.6-4.6-1.4-1.2-1.6-2.1-3.7-2.1-1.8 0-2.9.7-4.6 0 0 0-5.2-2.5-8.6-3.7 0 0-7.8-.7-10.2 0l-2.4.7S126 5.9 118.8 5c-7.1-.9-27.4-1.8-36 .5-19.7 5.4-19.7 5.4-24.4 6.9 0 0-44 7-43.6.1.2-4.3 5.6-3.2 20.9-4.2C46.6 7.5 27.2-1.8 10 4.6-8.1 11.4 0 28.2 21.1 32c21.1 3.8 47.2 1.9 47.2 1.9 5.5-.4 8.5 1.5 8.5 1.5s25.1 4.1 45.3-1.4c6.6-1.2 5.6-1.1 8.6-.9 3 .3 7.3-.2 11.6-3 0 0-2.9-1.1-3.6-4.4-.8-3.3-.7-3.7.4-5.3"/><linearGradient id="f" x1="-1749.49" x2="-1751.061" y1="-28.921" y2="-77.234" gradientTransform="rotate(-1.507 2599.534 -69338.241)" gradientUnits="userSpaceOnUse"><stop offset="0" stop-color="#979764"/><stop offset="1" stop-color="#676833"/></linearGradient><path fill="url(#f)" stroke="#343433" stroke-width=".15" d="M66.4 24.8c5.1-3.2 14-4 17.4 2.4 1.5 2.9.8 6.6-2 8.2-2.8 1.6-6.1 1.3-9.1 2.3 5.4-2.3 11.1-.8 12 5.6-1.2-.3-1.9-2-3.4-2.1.2.4 1.9 2.5.9 3.4-.8-1-3.1-2.7-4.2-3.4 1 1.3 2.2 2.9 1.3 3.8-1-.5-2.7-2.3-3.3-3.2-.1 1.3 1.2 1.3.1 3.2-.3-.8-1.5-3-2.6-3.3-1.2-.3-3-.3-4.4-.6-2.4-.4-4.8 0-7.1-.5-.6-3.1 3.6-9 6.8-9.2"/><linearGradient id="g" x1="-1701.904" x2="-1703.474" y1="-30.48" y2="-78.774" gradientTransform="rotate(-1.507 2599.534 -69338.241)" gradientUnits="userSpaceOnUse"><stop offset="0" stop-color="#979764"/><stop offset="1" stop-color="#676833"/></linearGradient><path fill="url(#g)" stroke="#343433" stroke-width=".15" d="M126.1 29.2c-.5 3.4-2.6 5.2-6 6.2 2.6.9 5.1 1.5 7.8 2.5l1.1.6c2 .2 4.4 3.7 5.3 5.5-.3.2-.5.3-.9.2-.7-1.1-2.7-2.4-3.9-3 1.3.9 2.3 3 2.2 4.6-1.6.9-2.7-2-4.1-2.8.1 1.3.9 3.2.4 4.4-1.4.8-2.6-2.9-3.3-4-.6.9-1.2 2.6-2.3 3.2-.1-1.3.6-2.4.3-3.8-.8-.5-1.6-.6-2.5-.8l-2.2-.7c-2.3-.8-4.9-1.2-7.2-2.2-3.3-1.4-3.2-3.2-1.8-6.1 1-1.9 3.3-5.9 5.7-6.1"/><path fill="#FFCC05" stroke="#35351A" stroke-width=".15" d="M158.7 17c.1-1.6-2-3-3.4-2-2.2 1.7 1.5 2.6 2.8 2.4.9 0 .6-.4.6-.4z"/><path fill="#35351A" d="M157.1 15.1c.7.4.5 1.5 0 2-1-.5-.6-1.5 0-2.1"/><path fill="#FFF" d="M155.4 15.5c.1-.3.5-.5.9-.3.4.1.7.4.6.7-.1.3-.5.5-.9.4-.4-.2-.7-.5-.6-.8z"/><linearGradient id="h" x1="-1681.178" x2="-1682.747" y1="-31.193" y2="-79.424" gradientTransform="rotate(-1.507 2599.534 -69338.241)" gradientUnits="userSpaceOnUse"><stop offset="0" stop-color="#979764"/><stop offset="1" stop-color="#676833"/></linearGradient><path fill="url(#h)" stroke="#343433" stroke-width=".15" d="M142.6 18.3c-4.4.3-5 5-.8 6.3"/><path fill="#676833" stroke="#343433" stroke-width=".15" d="M180.9 23.7c-1.3.2 2 1.8 2.3 2"/><path fill="#343433" d="M182.4 23.5c-1.3.5.5 1.2 1.1 1.1 0-.2 0-.4-.1-.5"/><path fill="none" stroke="#343433" stroke-width=".15" d="M147.6 11.6c-1.7-.1-2.6-.5-4.1.6-1.6 1.1-.6 1.9.8 2.6 2.5 1.2 6.3-1 8.7-1.9m1.3 2.7c-.9-.5-1 .5-.6 1s1.3.8 1.8 1.1c.7.3 3.4 1.3 3.3-.2m-16.6 4.6c-1.5.2-.2 1.2.3 1.5.8.5 1.8.6 2.7.7 2 .3 2.9.2 4.8-.1m-18.7 8.7c-2.3-1.7-3.7-4.2-3.7-7.1m6.7 7c-3.1-.4-4.4-4.3-5-6.9m8.5 6.3c-2.3-.6-5.9-5.5-5.9-7.7m8.7 6.4c-3.6.2-5.5-6-5.9-8.5m-5 8.9c.5-.4 1.4-.4 1.9.1m-3.1-2.1c.5-.4 1.1-.6 1.7-.2m.6.8c1.1-.6 2.2-.8 3.8-.1m-2 2.4c1.4-.4 2.5-.4 4-.4m-6.8-4.2c.3-1.1 2.2-.7 3-.4m2.5 3.4c.4-.7 1.7-1 2.5-.9m-4.4-1.5c.3-.8 2-.9 2.8-1m.6 1c.5-.8 1.5-.7 2.4-.7m.2 3c.2-.7 1.1-.7 1.9-.9m-5.8-4.1c.4-.7 2.2-1 2.8-.3m-9.9 7.7c-1.2-.6-2.6-3.6-2.5-5.1m1.2 3.4c-.2-.7.9-1.1 1.6-1.1m1.8 2.3c-.5-.1-.8.1-1 .5"/><linearGradient id="i" x1="-1683.951" x2="-1685.516" y1="-31.235" y2="-79.37" gradientTransform="rotate(-1.507 2599.534 -69338.241)" gradientUnits="userSpaceOnUse"><stop offset="0" stop-color="#979764"/><stop offset="1" stop-color="#676833"/></linearGradient><path fill="url(#i)" stroke="#343433" stroke-width=".15" d="M139.8 9.6c-.4-.5-2.5-2-3.4-1.9-.6.2-1.4 1.3-1.4 1.7 0 .6.6.8 1.7.9"/><linearGradient id="j" x1="-1691.335" x2="-1692.908" y1="-30.759" y2="-79.125" gradientTransform="rotate(-1.507 2599.534 -69338.241)" gradientUnits="userSpaceOnUse"><stop offset="0" stop-color="#979764"/><stop offset="1" stop-color="#676833"/></linearGradient><path fill="url(#j)" stroke="#343433" stroke-width=".15" d="M132.1 10.6c-.2-.9-.9-2.1-1.8-2.7-1.4-.8-1.5.2-2.4 1.3.4.5 1.2 1 1.5.9"/><path fill="none" stroke="#343433" stroke-width=".15" d="M154.9 23.8c1.8 3.1 8.1 3.3 11.3 3.7 2.3.3 3.2 1 5.3 2 1.7.9 3.9.2 5.6.9" opacity=".52"/><path fill="none" stroke="#343433" stroke-width=".15" d="M148.8 14.6c1.4.1 2 1.4 3.1 2.2 1.1.8 2.2 1.5 3.5 1.8M116 40.5c0-.1-.2.3 0 0 .4-1.5 1.8-2.1 2.9-2.9m-5.2 1.9c1.1-1.2 1.9-2.5 3.6-2.9m-7.6 1.9c1-2 3.5-2.1 5.1-3m6.8-.8c-.3-2.1-3.1-2.3-5.2-2.2m6.5 1.3c-.8-1.8-2.6-3.8-5.1-3.5m-9.4 4.8c.8-1.5 4-2.8 5.7-2.7m-3.7-2.1c.8-.2 1.5-.6 2.5-.6m11.8 2.6c.2-2.5-2.7-5.1-5-5.4m-42.1 9.6c.8-1.1-.3-2.3-1.1-3.1-1.6-1.7-3-1.4-5.2-1.4m8.8 4.1c.4-1.2-1-3.8-1.7-4.8-2-2.4-4.3-2.8-7.3-2.8m10.8 6.7c4.1-5.1-5.5-11.5-9.6-10.1"/><linearGradient id="k" x1="-1701.388" x2="-1702.96" y1="-30.454" y2="-78.792" gradientTransform="rotate(-1.507 2599.534 -69338.241)" gradientUnits="userSpaceOnUse"><stop offset="0" stop-color="#979764"/><stop offset="1" stop-color="#676833"/></linearGradient><path fill="url(#k)" stroke="#343433" stroke-width=".15" d="M123 8.5c-.6-1.7-4.7-3.6-6.2-1.8s4.3 3.3 5.3 2.7"/><path fill="none" stroke="#343433" stroke-width=".15" d="M113.2 8.6c-.4-1.3-.6-1.9-1.9-2.4-.8-.3-3.4-.9-4.2-.4-1.6.9-.7 2.3.7 2.6 1.2.3 2.9 0 4.2.1m-8.6-.2c-.5-2.5-1.4-2.2-3.7-2.4-1.7-.1-4.3-.7-3.8 1.9 1.4.8 4.3 1.1 6 .5m-10.2 0c-.6-1-.6-1.7-2.2-1.9-1.4-.2-2.7.2-4 .8-1.4.7-2 1.5-.3 2 .8.2 4 .3 4.3 0m-9.7.9c-.4-3.1-6.4-.5-7.3 1.2.7.7 1.5.7 2.5.6.9-.1 3.3-.3 4-.9m-10.6 1.8c-2.7-.8-5.1-.3-7.6 1.4 1.7.7 4.6 1 6.1-.3m-8.3 1.4c-.4-.4-.8-.8-1.1-1.3-1.4.3-2.9.3-4.4.4.1 2.6 2.1 2 4.2 1.6m-5.2-.2c-1.7-1.7-4-1.2-6.2-.2.2 1.9 3.5 2 4.7 1.1m-7 .4c-.7-1.1-2.7-1.9-4-.7-1.9 1.7 1.7 1.3 2.5 1.4m-5.9 0c-.5-1.2-2.2-1.6-3.4-1.3-2.1.5.2 1.9 1.4 1.3m-4.9-1c-1.2-.1-2.7-.6-4 0-.6 2 1.7 1.4 3 1.4m-5.6-.6c-.2-1.3-3.5-1.4-4.5-1-.1 1.7 2.6 1.2 3.7 1.2m-6.6-2c-.8-.7-2.5-2.3-3.5-2.2-1.2 2 2.1 3.5 3.5 2.7m-4.6-4.2c-.6-1-.8-4 1-3.7-.1 1.2 1.5 3.6-.5 3.7M12.9 7c.8-1.5 2.4-1.4 3.8-1.4C17.8 8.1 14 7.4 12.9 7m5.5-1.6c1-.6 3.1-.7 3.8.3.2 1.7-2.8 1.2-3.7.7.1-.2.3-.2.4-.3m5.4-1.2c.8 0 2.6-.4 3.1.4.7 1.4-2 .6-2.5.4m4.6-.4c2.3-1.2 3.4 1.1.5.8m-16.3 5.8c-.3-.9-.8-2.2-.4-3.1.4-.1 1.1-.2 1.4-.2.7 1.3-.3 2.8-1 3.8m2.9-3.3C17.1 8 18.8 7 19.7 8c-.9.6-1.9.7-3 1.1m5.1-1.3c1.1-.4 2.1-1.1 3.3-.7.1.2.1.5 0 .8-1.2.8-2.4-.3-3.3.1m5.8-.7c.6-.3 1.1-.2 1.5.2-.7.4-1.7.2-2.3-.1"/><linearGradient id="l" x1="-1805.408" x2="-1806.984" y1="-26.961" y2="-75.413" gradientTransform="rotate(-1.507 2599.534 -69338.241)" gradientUnits="userSpaceOnUse"><stop offset="0" stop-color="#979764"/><stop offset="1" stop-color="#676833"/></linearGradient><path fill="url(#l)" stroke="#343433" stroke-width=".15" d="M17.9 14.9c-.6-.5-4.1-3.7-4-1.3.9.6 2.1 1.3 3.2 1.3"/><linearGradient id="m" x1="-1799.666" x2="-1801.229" y1="-27.542" y2="-75.605" gradientTransform="rotate(-1.507 2599.534 -69338.241)" gradientUnits="userSpaceOnUse"><stop offset="0" stop-color="#979764"/><stop offset="1" stop-color="#676833"/></linearGradient><path fill="url(#m)" stroke="#343433" stroke-width=".15" d="M24.3 15.7c-1-.9-4-1.5-5-.5.9.6 2.6.6 3.7.6"/><linearGradient id="n" x1="-1792.91" x2="-1794.488" y1="-27.292" y2="-75.818" gradientTransform="rotate(-1.507 2599.534 -69338.241)" gradientUnits="userSpaceOnUse"><stop offset="0" stop-color="#979764"/><stop offset="1" stop-color="#676833"/></linearGradient><path fill="url(#n)" stroke="#343433" stroke-width=".15" d="M31.3 15.4c-1-1.5-4.5-1.3-5.5.1 1 .3 2.3.3 3.3.4"/><linearGradient id="o" x1="-1783.686" x2="-1785.263" y1="-27.643" y2="-76.12" gradientTransform="rotate(-1.507 2599.534 -69338.241)" gradientUnits="userSpaceOnUse"><stop offset="0" stop-color="#979764"/><stop offset="1" stop-color="#676833"/></linearGradient><path fill="url(#o)" stroke="#343433" stroke-width=".15" d="M40.1 14.8c-1.4 0-3.4-1.2-4.7.5.7.8 1.7.2 2.5.4"/><linearGradient id="p" x1="-1777.593" x2="-1779.162" y1="-28.062" y2="-76.321" gradientTransform="rotate(-1.507 2599.534 -69338.241)" gradientUnits="userSpaceOnUse"><stop offset="0" stop-color="#979764"/><stop offset="1" stop-color="#676833"/></linearGradient><path fill="url(#p)" stroke="#343433" stroke-width=".15" d="M46.6 14c-1.5.1-4.5-1.8-5.5.8 1.4-.1 3 .5 4.3-.1"/><linearGradient id="q" x1="-1769.319" x2="-1770.896" y1="-28.093" y2="-76.587" gradientTransform="rotate(-1.507 2599.534 -69338.241)" gradientUnits="userSpaceOnUse"><stop offset="0" stop-color="#979764"/><stop offset="1" stop-color="#676833"/></linearGradient><path fill="url(#q)" stroke="#343433" stroke-width=".15" d="M54.9 12.8c-1.5-.4-5.3-1.2-5.6 1.1 1.1 0 3.1.3 4-.4"/><linearGradient id="r" x1="-1759.718" x2="-1761.294" y1="-28.458" y2="-76.894" gradientTransform="rotate(-1.507 2599.534 -69338.241)" gradientUnits="userSpaceOnUse"><stop offset="0" stop-color="#979764"/><stop offset="1" stop-color="#676833"/></linearGradient><path fill="url(#r)" stroke="#343433" stroke-width=".15" d="M65.1 11c-.9-.7-2.5-1.4-3.9-1.1-1 .3-3.4 1.4-3.2 2.7 1.3.2 2.5-.4 3.8-.4"/><linearGradient id="s" x1="-1749.247" x2="-1750.814" y1="-29.044" y2="-77.25" gradientTransform="rotate(-1.507 2599.534 -69338.241)" gradientUnits="userSpaceOnUse"><stop offset="0" stop-color="#979764"/><stop offset="1" stop-color="#676833"/></linearGradient><path fill="url(#s)" stroke="#343433" stroke-width=".15" d="M75.7 7.7c-2.6-1.3-5.2.7-7.6 2.2 1.4 0 3.2-.1 4.5-.7"/><linearGradient id="t" x1="-1737.935" x2="-1739.508" y1="-29.247" y2="-77.605" gradientTransform="rotate(-1.507 2599.534 -69338.241)" gradientUnits="userSpaceOnUse"><stop offset="0" stop-color="#979764"/><stop offset="1" stop-color="#676833"/></linearGradient><path fill="url(#t)" stroke="#343433" stroke-width=".15" d="M86.6 5.3c-1.7-.9-6.2-.7-7.1 1.3 1.3.5 3 .1 4.3-.2"/><linearGradient id="u" x1="-1725.35" x2="-1726.911" y1="-30.051" y2="-78.071" gradientTransform="rotate(-1.507 2599.534 -69338.241)" gradientUnits="userSpaceOnUse"><stop offset="0" stop-color="#979764"/><stop offset="1" stop-color="#676833"/></linearGradient><path fill="url(#u)" stroke="#343433" stroke-width=".15" d="M99.4 4.6c.1-2.4-6.7-1-7.6 0 1.1.4 3.2.9 4.3.4"/><linearGradient id="v" x1="-1715.128" x2="-1716.696" y1="-30.144" y2="-78.362" gradientTransform="rotate(-1.507 2599.534 -69338.241)" gradientUnits="userSpaceOnUse"><stop offset="0" stop-color="#979764"/><stop offset="1" stop-color="#676833"/></linearGradient><path fill="url(#v)" stroke="#343433" stroke-width=".15" d="M109.6 4.2c-1.4-.6-5.8-2.1-7.5 0 .8 1 3.7.8 5 .9"/><linearGradient id="w" x1="-1706.402" x2="-1707.975" y1="-30.251" y2="-78.628" gradientTransform="rotate(-1.507 2599.534 -69338.241)" gradientUnits="userSpaceOnUse"><stop offset="0" stop-color="#979764"/><stop offset="1" stop-color="#676833"/></linearGradient><path fill="url(#w)" stroke="#343433" stroke-width=".15" d="M117.9 5.1c-.3-1.8-6.5-2.6-6.7-.7 1.4 0 3.3.1 4.6.6"/><linearGradient id="x" x1="-1698.475" x2="-1700.047" y1="-30.548" y2="-78.889" gradientTransform="rotate(-1.507 2599.534 -69338.241)" gradientUnits="userSpaceOnUse"><stop offset="0" stop-color="#979764"/><stop offset="1" stop-color="#676833"/></linearGradient><path fill="url(#x)" stroke="#343433" stroke-width=".15" d="M126 7.2c-.7-2.4-4.6-3.2-6.7-2.1.6.7 1.7.2 2.5.4s1.9.7 2.5 1.3"/><path fill="none" stroke="#343433" stroke-width=".15" d="M65.7 40.7c1.1-1.5 3.3-2.5 5.3-2.5m-8.2 2.5c.7-4 7.6-5.6 10.5-3.2m2.5-4.8c1 .5 1.5-1.5 1.6-2.1m.4 4.6c.8.3 1.8-.5 2.1-1.3m-1-1.8c.9.9 2.6-2.1 2.6-3m-5.9.1c.8.4 2.1-2.5 1.7-3.3m2.7 9.4c1.1.1 2-.6 2.5-1.4m-2.6-6.5c1.2-.5 1.3-2.3.9-3.3m2.1 7.4c1-.2 1.4-1.4 1.4-2.4m-19.8 8.7c.2.9.9 1.9 1.9 1.7m1.5-3c-.3.6.1 1.7.5 2.2m-2.6-1.8c-.5-.6-.2-1.5 0-2.1m4.7 1.7c0-.6.3-1.5 1-1.7m-4.1 4.3c.2.8 1 .6 1.6.7m51.5-6.7c.7 0 .9-.8 1.1-1.2m-1.5-1.4c1.2-.1 1.3-2.1 1.5-2.9m1 5.8c.8-.2 1.9-1.3 1.9-2.3m-13.2 1.7c-.2-.9-.8-1.9-.1-2.7m-1.8 3.9c0 1.3.7 2.5 1.6 3.2m1.9-4.6c0 1.2.1 2.2.9 3.1m-1.7 1c.4.8 1.2 1.4 2 1.7M116 37c.4.8 1.1.9 1.8 1.1M88.3 36c-.5-1.8-.9-4.3.1-6.2m6.6 6.7c-1-2.4-.2-5.3.5-7.8m7.3 8c-.8-2.2-1.1-5.7.2-7.8m-42 5.2c-1.9-1-2.6-4-2.4-5.9m-1.2 5.9c-1.8-1.5-3.2-3.4-3-5.9m-1.9 5.6c-.2.2-.1.4-.4.4-2.3-1.4-3.2-4.2-3.6-6.5M45.9 34c-2.7.8-3.5-6.3-3.5-8.1m-2.1 7.8c-2.1.7-2.9-4.4-3-5.9m-4.1 5.7c-1.6-.6-2.8-3.8-2.1-5.5m-5.5 4.5c-1.2-1-2-2.8-1.9-4.4m-6.1 3.1c-.7-1.2-.5-2.8-.6-4.2m-7 1.1c0-1.2-.3-2.4.6-3.3m-6.3-.4c-.1-1.1.4-2.5 1.5-2.9M.6 19.6c-.1-1.2.5-2.5 1.2-3.4"/><path fill="#CACA97" stroke="#343433" stroke-width=".15" d="M78 43.2c0 1.5.7 2.1 1.5 2.9.4-.8-.1-3-1.2-2.9m3.4-.8c1 1.1 1 2 .9 3.2-.8-.3-2-2.2-1.2-2.9m2.4-1.6c1 1.1 1 2 1 3.2-.8-.3-2-2.2-1.2-2.9m43.2 4.3c0 1.5.7 2.2 1.5 2.9.3-.8-.1-3-1.2-2.9m3.4-1.4c0 1.5.7 2.2 1.5 2.9.4-.8-.1-3-1.2-2.9m1.9-1.7c0 1.5.7 2.2 1.5 2.9.3-.8-.1-3-1.2-2.9"/></g></switch></svg>
