<svg xmlns="http://www.w3.org/2000/svg" version="1.0" viewBox="0 0 220 130"><switch><g><linearGradient id="a" x1="109.244" x2="110.878" y1="6.378" y2="110.109" gradientUnits="userSpaceOnUse"><stop offset="0" stop-color="#fbf8cd"/><stop offset="1" stop-color="#309767"/></linearGradient><path fill="url(#a)" d="M.3 0h219.3v98.9H.3z"/><linearGradient id="b" x1="110.585" x2="110.785" y1="42.473" y2="38.28" gradientUnits="userSpaceOnUse"><stop offset="0" stop-color="#70c396"/><stop offset="1" stop-color="#70bf67"/></linearGradient><path fill="url(#b)" stroke="#70BF67" d="M21.2 5c.5-.4.9-.8 1.6-1 .4.4 1.3 1.1 1.5 1.5.3-.1.7-.7.9-.7.3 0 .6.7 1.2.7.6-.1.6-.5 1.1-.7.2.3.5 1.4.6 1.8.1 0 1.4-.3 1.3-.3-.1 1 .7 1.9.8 2.6.4-.2.9-.5 1.3-.7.1 1.1.8 1.2 1.1 1.9.5-.2 1-.5 1.5-.8.2.8 1 1.5 1.1 2 .5-.8 1.7-1.4 1.7-2.7.4 0 1 .5 1.3.7.4 0 .4-.9.7-1 .4.4.3.7 1 1.1.1-.3.8-1.2 1.1-1.6.3.3 1.6.8 2 1.2.4-.4 1.6-.8 2-1.2.8 1.8 2.1 2.3 3.8.9.2.8 1.3 1.7 1.5 2.2.9-.8 2.6-1.6 3.5-2.3 1.9.6 1.6.7 3.7.4.9 1.1 1.8 1.2 3.2 1.9.3.1.8-.4 1-.5.5.4 1.3.9 1.9 1.2 1.6-.9 2.7-.6 3.8.8.5-.2 1-.5 1.6-.8.2.1.8.8 1 .8 2-.5 3.7-.1 4.3 1.5 3.7-.1 4.2 2.5 5.5 4.3.2-.4.4-.7.6-1.1 1.5 1.9 10.4 2.7 11-.7.8.2 2.3 0 3.1.3.3-.3.9-1 1.1-1.3.3.2.6.3.8.5.1-1.3 1.1-2.4 1.7-3.4.7.8 2.1 1.3 2.7 2.3.5-.1.4-.4.9-.7 1.5 1.1 5.7 1.4 7.9 1.8 2.5.5 6.1 1 8.2 2.3.4-2.2 1.7-3.8 3.3-5.5.3.6 1.1 1 1.3 1.4.3-1.2 1.1-1.5 1.8-2.5.1.4.3 1 .5 1.4.6-.7 2.3-1.4 2.9-1.9.7 1.5.5 3.3.2 4.8 3-2.2 5.7 1.1 9.8.1 5.1-1.3 3.1-3.1 3.2-6.8 2 1.6 4.9 2 7.1 3.3 1-2.9 1.3-5.6 3.2-8.4 1 2.9 1 5.4.5 8.3 1.1-2.6 2-5.3 2.7-8 1.8 1.6 2.3 5.3 2 7.8.4-.8 2.2-1.8 4.1-1.3.3-2.3-1.4-4.2-1.4-6.5 1.7 1.6 4.3 4 5.1 5.4 0-2.5-.4-4.7-1-7 1.7.9 7.4 5.2 9.1 5.4 2.3.3 8.2-3 10-4.6 2.4 3.4 6.5-3.1 11.3-2 .9.2.8 1.8 1.6 2 1.1.3 2.3-.1 3.1.1 1.6.3 3.8-.3 5.7.3 2.5.7 3.2 2.4 5.2 3 2.6.8 4.9-.7 6.8-.3 4.8 1.1 2.9 6.1 3.1 9.3.4 5.8.4 4.9-7.3 5.9-9.6 1.3-19.4 2.6-29.2 3.8-11.5 1.4-22 4.6-33.2 6.3-12 1.8-24.9 1.7-36.2 5.2-7.8 2.4-15.8 2.2-24.1 3.2-4.3.6-7.6 1-11.6 0-3.8-1-6.2-2.3-10.4-2.7-7.1-.7-13-3.2-20-2.7-7.7.5-6.9-1.7-12.4-5-4.6-2.8-9.3-2.3-14.2-3.8-2.6-.8-4.6-2.8-6.7-4-3.1-1.8-12.8-5.5-8.9-9.3"/><path fill="#969595" stroke="#343433" stroke-width=".5" d="M26.2 104.4l2.3-4.7 5-.7 3.2 3.2 4.6-1.8 3.6 3.6-3.6 2.5-15.6.4z"/><linearGradient id="c" x1=".095" x2="219.749" y1="65.297" y2="65.297" gradientUnits="userSpaceOnUse"><stop offset="0" stop-color="#aadee7"/><stop offset="1" stop-color="#4dbc93"/></linearGradient><path fill="url(#c)" d="M.6 87.8c8.7-3.9 18-7 26.8-3.9 12.1 4.2 10.3-1.8 20.7 2.6 20 8.5 38.8 3.6 59.2-2.6 7.7-2.4 17.9-2.2 26.3-.9 9.9 1.5 26.6 2.7 37.4 5.2 25.6 5.9 47.1 8.8 48.7-4.1-5.8-14.6.6-29.5-2.1-43.8-7.9-.2-16.1 4.8-24.6 5.8-8.7 1-18 .7-26.8 1.3-18.7 1.4-38.5 6.2-56.5 2.1C72.1 40.9 39.9 33.6.3 39.6.5 60.8.1 72.2.1 87.1"/><path fill="#C99564" d="M219.7 44.9c-13.7.7-67.9 2.6-94.4-5.2-30.5-9-66.4-13.2-96.6-10C5.5 32.2 1 33.5.2 33.9v.7c.3 1 .7 3 .9 3.5 11.1 1.3 12.5.5 23.3.8 12 .4 21.8.3 33.1.7 10.6.3 19 2.8 28.8 4.8 9.2 1.9 15.1 3 23.8 5.1 8.6 2.1 19 2.1 27.9 3.4 5 .7 9 2.3 13.9 3 4.8.7 9.8.9 14.8 1.2 5.2.3 10.4.1 15.3.8 3.9.5 7.3 2.2 11.3 2.6 8 .8 17.6-.6 26.4-1.5V44.9z"/><path fill="#986732" d="M219.7 48.4c-2.1-.7-4.7-1-7-1.2-13.8-1.4-28.4-2.5-42.4-2.5-3.2 0-6.5-.4-9.7-.1-3.1.3-6.1 1.4-8-1l-3.6 2.2c2.7 2.7-.6 4.6.7 7.1 2.4.2 2-1.6 2.6-2.7 1.6-.1 2.8.4 4.4.4.7 1.1.8 4.4 2.6 4.7.6-1.6-2-8.3 1.5-8.6 2.8-.3 2.7 7.8 2.1 9.2 2.2-.2 2.1-6.5 1.9-8 2-.2 3.9-.2 5.9-.1 1.9 2.7 2 5.9 1.5 8.8.6.2 1.9.3 2.5.3.8-1.2.8-2.9.6-4.3.7-.3 1.9-.6 2.7-.8.4 1.5 1.2 3.5.5 5 .4.1 1.2.2 1.5.1.8-1.4-.6-7.6 3.6-6.4 2.4.7 3.7 5.8 3.9 7.3 3.4.2 1-3.7 1.7-5 1-1.6 5.3-1.9 8.1-1.5 4.5.8 5.4 6.2 5.9 9 3.2.3 1.8-3.3 1.8-4.5 1.5.8 1 2.2 2.4 3 .7-1.1-.9-1-1.2-2.1-.2-.8 1.2-1.7.5-2.8 1.9 1.3 3 3.6 3.3 5.2 2.1-.5-.1-4.7 4.8-5.4 3.6-.5 3.7 3 3.7 4.9h1.2V48.4zm-93-4.1c-5.9-1.7-5 2.8-4.6 5.1-1-.2-3.3-.2-4.3-.4-.2-1.3.6-1.7.1-2.9-.3-.9 0-2.8-.8-3.6-2-1.8-6.3-1.7-10.1-2.1-1.8 1.1-2 2.8-1.7 4.1-3.9-.3.1-5.9-1.4-7.4-3.2-3.2-5.9 2.1-6.7 4.2-3-.7-4.3-.7-4.8-2.4-.4-1.5 1.6-3.5.4-4.7-1.9 1.6-2.6 3.8-3.9 5.5-.3-.1-.6-.1-1-.2-.1-1.5.9-2.8 1.6-4.3 1.2-2.6.5-1.8-3-2.9-.7 2.2-2.5 4.1-2.7 6.4-.5 0-.9 0-1.4-.1-1.2-2.8 3.7-6.9-4.3-7.6-8.8-.8-8.3 2.5-11.8 5.5-.5-2.4 2-3.7 2.5-5.8-4.5-.7-8.6.9-9.8 3.1-.7 1.3.4 2.1-2.6 2.2-2.3.1-3-.5-3.2-1.6-.2 1.1-.9 2-2.9 2.5l-.7-.2c.6-1.9 2.8-4.7.5-6.5-1.8 1-3.6 2.2-3.9 3.4-.2.9 2.5 4-1.2 3.5 0-1.6-.9-3.3-1.3-4.8-5.6-.1-6.8 3.2-12 3.3-.2 1.1-.1 2 .2 3.2-2.7 0-2.2-2.5-3-3.6-2.8.2-1.6 2.4-1.6 3.5-5 .6-2.3-3.5-7.5-2.4-.1.4-.4.8-.4 1.2-.2-.2-.9-.5-1.1-.8-.1 0-.6.2-.7.2.3.5 0 1.2.4 1.7-7 .5-2.6-2.2-4.6-4-2.6 1-2 2.4-3.1 3.6-.9-.8-.1-2-.7-3-.7.2-3 .4-3.5.8-.6.4.2 1.6-.8 2.3-.2-1.1-.4-2.2 0-3.2 0 0 42.9-7.4 62-6.5 19.1.8 40.9 5.4 44.6 8.2 3.5 2.8 14.8 7.5 14.8 7.5z" opacity=".41"/><linearGradient id="d" x1="210.323" x2="96.034" y1="-196.02" y2="72.977" gradientUnits="userSpaceOnUse"><stop offset="0" stop-color="#663817"/><stop offset="1" stop-color="#98cb67"/></linearGradient><path fill="url(#d)" stroke="#386833" d="M219.7 15.3l-1.1-11c-5.2.8-12.3.6-17.8 1.3-5.3.7-10.6 2.6-16.2 2.9C174 9.1 162 7 151.6 7c-11 0-21.4 3.6-32.7 3.5-5 0-25.9.8-25 4.8-.2 0-1.7.1-1.8.1-.5-1.3-1.4-2.5-1.8-3.8-1 1.5-2.2 3.3-3.6 4.5-.3-1.6-.1-3.3-1.4-4.7-3.6.6-5.2 3-6.8 4.8.2-3.1-3-6.4-7.5-7.2 1.6 1.8-.1 4.1-1.6 5.8-.9-1.1-2.4-2.2-4.2-3-.3 1.5-1.2 2.3-3.2 2.9-.3-1.5-.4-3.1-.5-4.7-2.9 1.2-3.7 3.4-5.1 5.3-1.4-1.6-.9-3.7-.6-5.5-2.3 1.5-3.3 3.9-4.2 5.9-.4-.8-1.4-1.4-1.7-2.3-.6 1-1.4 1.8-1.1 3.2-1.5-.3-2.6-1-3.4-1.8l-5.8 1.7c-2 .5-3.4.3-4.1 1.4-1.7-.3-4.2-.7-6-1.1.7.6 1.1 1.7 2.1 2.3-2.3-.5-5.1-1.2-8.1-.7 4 1.5 6 2.9 3 5.3-3-.6-6.1.1-5.8 1.8-1.3-.6-2.3-.3-3.4-.6-.6 2.8-3.9 2.4-7.4 3.7-3.2 1.2-6.1 4.1-9.4 5.6v.1c3.4.4 7.6-2.5 9.4-.8.7-.3 1.7-.5 2.4-.7 0 .5.4 1 .4 1.4.5-.3 1.8-.5 2.3-1 .4.7 2 1.5 2.4 2 1.1-.8 2.7-1.7 3.4-2.6 3 .6 7.1.5 10 .1.7.7 2.2.9 3 1.5.2-.5 1.1-.9 1.4-1.4 2.5.8 6.1.5 8.7 1-.7-1.1-.3-1.4-2.6-2.2 3.4-.3 6.8.2 8.6 1.3.3-1.1 1-1.3-.5-2.4 3.6-.3 7-1.3 9.9-2.3 2.9 1.9 12.8 1.6 16.3 0-.6 1.2-3.3 2.2-4.3 3.5 2.1-1.1 5.4-1.4 8.5-1.3-1.1.8-1.3 1.7-2.2 2.5 3.2-1.6 8.4-2 12.7-1.5-.6.6-.7 1.7-1.7 2.4 1.6-.4 3.8-.8 5.3-1.4 2 1.3 4.9 2.5 6.6 3.8 1.6 1.2 1.5 2.6 3 3.9 1-.5 2.9-.7 3.8-1 .3 1.2 1 2.5 2.4 3.2.5-.6 2.1-1.5 2.6-2.2 4.1 2.3 10.6 2.9 10.3 6.4 1.2-.7 2.6-1.5 3.1-2.5.5.7 2 1.6 2.7 2.2.5-.8 1.8-1.7 2.2-2.5.8 2.8 6.9 1.6 11.6 1.4 8.7-.3 8.4-.2 10.6 3.2.1-.2 1.4-1.9 2-2.6 6.4 1.3 3.2 4.7 6.4 6.7.7-1.8 3.3-7.8 8.9-4.2 2.3-2.3 11-1.2 15.4-.7.2 1.1 1.2 2.2 2.9 2.8.5-1 1.7-1.7 3.3-2.2 1.2 2.3 5.6 2.8 9.4 3.7-1.2-1-.9-2.2.5-3.3 6.6.2 6.2 3.2 9.7 4.6 1-1.5 2.2-3.1 2.6-4.7 1 .7 2.8 1.2 4 1.9.8-1.3 1.1-2.5 1.9-3.8h.1V15.3z"/><linearGradient id="e" x1="135.17" x2="135.23" y1="12.914" y2="12.217" gradientUnits="userSpaceOnUse"><stop offset="0" stop-color="#663817"/><stop offset="1" stop-color="#98cb67"/></linearGradient><path fill="url(#e)" stroke="#386833" d="M135.1 12.3c.3-.1.3-.1 0 0z"/><linearGradient id="f" x1="148.593" x2="160.917" y1="135.988" y2="-7.083" gradientUnits="userSpaceOnUse"><stop offset="0" stop-color="#663817"/><stop offset="1" stop-color="#98cb67"/></linearGradient><path fill="url(#f)" stroke="#386833" d="M219.7 8.4c-.4-2.4-1.3-4.8-3.7-6.4-.7.3-1.8.6-2.5.9-.4-.7-1.5-.6-1.5-1.9-.9.9-3 1.4-4 2.2-.3-.5-1.5-.9-1.7-1.9-1 .5-4 1.1-5.2 1.8-.3-.9-1.7-1.7-1.9-2.7-2.5 1.2-5.8 2.1-7.7 0-3-.2-3.9-.4-6.8.3-1.5.3.6 4.3-4.6 1.6-.1.7-.7 1.4-.8 1.9-.4-.3-2.1-1-2.6-1.4-.6 1.5-.7 3-1.3 4.5-2.3-1.6-5.5-1.5-8.1 0 .1-.7-.4-1.5-.2-2.2-2.3 1.6-4.4 1.6-5.6-.2-1.8.7-3.8 1.7-5.2 2.6-.3-.6-1-1.1-1.1-1.9-1.1 1-2.8 2.4-5.3 1.8-.5.5-2 1.2-2.6 1.7-.6-.3-1.7-.7-2.2-1-.9 1-2.2 1.9-3.1 2.7.8 1.9-.2 3.8-3.9 3-.1.2-.1.5-.2.7-2.1-.7-2.6-.5-2.8-2.2-.5.3-1.9.8-1.9.8-.8-.3-.7-.9-1.4-1-.4.1.1.7-.8.9-.7-.5-1.8-.8-2.7-1.1-.6.4-.4.8-.9 1.2-.8 0-2.2-.5-2.7-.5-1.7.5-1.8.9-3.7-.7-.2-.1-1.2.4-1.8.4-.4-.5-.1-1-.4-1.5-1 .3-1.2.4-2.5.4.1-1.1-1-1.7-1.1-2.7-2.2.3-3.9 1.1-5.3 2.3-.3-.4-1.8-1.2-2-1.5-.3.8-1.7 1.6-2.1 2.2-.6-.4-2.2-.7-2.8-1.1.2.6-.2 1.4-.1 1.9-1.4-.1-3.3.5-4.6.4 1.1.8.7 1.5 2.8 2.2-.8 0-1.8.3-2.6.3.9.6 1.5 1.8 2.2 2.2l1.4.3c1.4 1.2 3.6 2.4 6.3 2-.8-.9-.9-2.4-1.5-3.5 2.9.3 5.6.9 7.2 2.4 9.4-4 13.9-1.4 22.7-.8 3.2.2 8.6.3 11.8.3 4.2 0 7.1-.2 7.2-3.6 3.4 1.4 3.5 3.8 6.2 5.3 3.6-2.5 7.3-2.1 11.1 0 1.1-1.3 2.8-2.7 4.4-3.7.8 1.6 1.5 3.4 1.3 5.1 5.7-.1 10.5-.8 15.7-1.6 4.3-.6 3.4.9 6.3-1.4.9-.7.7-2.9 1.1-3.8 2.2.9 3.1 2.5 3.8 4.1.5-1.3 1.8-2.5 3.6-3.3 0 1.3 1.3 1.9 1.9 3.1 4.2.8 4.8-1.9 8.3-2.8V8.4z"/><path fill="#386833" d="M219.7 27.7l-.5-3.5c-2.2 1-2.5 2.8-3.8 4.1-1-.5-2-.6-3.1-.2 1.4-2 1.4-3.8.2-5.9-5.1 0-6.3 2.2-8.7 4.3-.4-2-2.4-3.5-3.8-5.3-6.3 1.7-3.6 5.8-2.9 8.9-1-.5-2.5-.4-3.6.3 1.2-2.5-5.9-7.3-10.2-5.5 3.2 1.5 6.5 4.4 3.2 6.8-3.8-.1-2.9-5.6-9.1-2.7 1.3-1.6 1.7-3.2 2.1-5-4.8.6-6.9 2.1-9 4.7-1.2-.7-3.1-1.4-4.6-.7-1.1-1.1-5.5-5.4-7-1.8-3.7-1.9-4.3 1.6-4.7 2.9-1.5-.7-4.1-2.6-6-1.5-.7-2.8-1.1-7.1-6.8-8.1-2.3 2.1-1.9 3.3-2.5 5.5-3.1-.7-4.7-1.1-7.6.3 2.5-.1 6 1.1 6 2.7-1.7-1.1-4.3-.3-4.4 1.2-1.5-1.7-5.1 0-6.5.9-2.1 1.4-1.8 2.8-3 4.4 2.7-1.1 4.3-1.7 7.4-1.1-1.5 1.2-3.1 7.9-1.5 9.2l90.6 3.3V27.7zm-96.6 6.8c-.1.1-.1.1 0 0z" opacity=".59"/><path fill="#659841" d="M11.5 32.1c-.4.6-1 1.2-1.6 1.7.2-.6.2-1.4 0-2.1-1 .6-1.5.4-2.5.7.2-.3.1-.6.2-1-2.9.4-5.5 3-7.5 2.6 1.7-.1 3-3.3 4.7-3.4-.1-.8-1.4-1.3-2.4-1.8 2.6-.4 5.2 0 6.2 1.3-.1-.6.1-1.4 0-2 1.3.1 2.2.7 2.9 1.4.2-.2.5-.6.7-.8.2.1.3.3.6.3.9-1 .3-2-.8-2.8 2 .5 3.3 1.6 3.3 2.8.4-1.1.6-2.2.6-3.4 1.1.6 1.6 1.4 1.8 2.3.2-1.3 1.6-3.7 5-3.7-1.1 1.4-.9 3.5-2.6 4.6.8-1 2.9-1.6 4.8-1.6-.5 1-1.7 2-2.4 2.9 1.7-.8 3.5-.3 3.8.8-2.6.1-5.6-.2-8.1-.3.1.3-.2.8 0 1.2-2-.1-3.6-1.4-5.4-.1" opacity=".25"/><path fill="#986732" d="M76.6 17.6c-4.2 1.1-12.1.5-16.7.5-5 0-10.4.5-15 1.5.7.1 1.3.3 2.6.2-3.5 1.6-8.8 1-12.9 1.5-2.7.3-7.7 1.4-9.8 2.4 2.6 0 5.1 0 7.6.2-1.5 2.1-8.7 1-10.9 2.7 5.4.8 13.6 1.8 19.5 1.1 2.5-.3 2.3-.9 3.7-1.4 1.7-.6 2.5-.7 5-.9 3.4-.2 7-.4 10.4-.5.7 2.1 19.1-1 23.3.2.3.8-.7 1.5-1.7 2.1 7.3.5 17 1.8 24.5 1.2.7 1.3-1.2 2.7-1.9 3.9 4.2.7 11.2 1 15.5-.2 2.7-.7 3.5-2.1 6-3.2 1.9-.8 4.8-1 5.2-2.5-8.2-.5 6.3-4.8 6.1-5.2-.7-2.3-13 .6-15.8.5 2-1.7 7.6-3.1.1-3-4.3 0-8.6.6-12.7.9-6.7.5-18.2 1.8-23.8-.2.4-.3.7-.8 1.2-1.1-2-.7-4.8-1.1-7.5-.8" opacity=".15"/><path fill="#97C93E" stroke="#659841" d="M51.9 20.3c-2.6-1.3-4.1-3.2-6-4.8-.4.4.4 1 .8 1.3.4.4.6 1 1.1 1.4.8.6 2.2 2 3.6 2.2"/><path fill="#97C93E" stroke="#659841" d="M51.5 20.2c.3-.5 0-1.4-.1-2-.1-.9-.2-1.8-.4-2.6-.3-1.1-1.1-2.4-2.2-3.4 1.2-.4 2.8 3.1 2.9 3.6.2.8.4 1.5.5 2.2.1.6.5 1.8-.3 2.3"/><path fill="#97C93E" stroke="#659841" d="M51.5 20.2c2.6-1.1 5-2.7 8.4-3.3-.9-.7-8.9 2.4-8.5 3.3"/><path fill="#97C93E" stroke="#659841" d="M59.4 16.2h.3c.9-.3-.4-1-.5-1.3-.2-.5 1-1.1 1.9-1 1.3.1.8 1.1.8 1.5 0 .6.1 1.1.4 1.6.3.4.8.9.4 1.4-.2.3-.9 1.2-1.3 1.3-.5.1-.9-.2-1.3-.3-.4-.1-.7-.2-1.2-.3-.8-.1-2.2-.5-1.8-1.1-1 .1-1-.4-.9-.8-1.1.1-.6-.8-.4-1.1-.8-.1.2-.7.3-1-.7-.2 1.3-1.1 2.1-.8 1 .4-.2 1.2.7 1.7l.5.2z"/><path fill="#CDE194" d="M59.7 16.2c.3.6 1.2 1 1.5 1.6.1.2.9 1.9.2 1.9.2-.6-.2-1.4-.5-1.9-.2-.3-.4-.6-.7-.9-.1-.1-1-.6-.6-.7"/><path fill="none" stroke="#CDE194" d="M59.5 16.3c-1-.1-1.5-.3-1.6-.8 0-.3-.1-.5-.4-.7-.2-.1-.7-.4-1-.2m3.1 1.8c-1.9.8-2.3-1-3.4-1.2"/><path fill="none" stroke="#CDE194" d="M59.6 16.5c-.2.4-1.4.4-2 .3-.7-.1-1.3-.3-1.8-.6"/><path fill="none" stroke="#CDE194" d="M59.7 16.5c.2.4-1 .7-1.6.8-.4.1-.7.1-1.1 0-.3 0-.6-.1-.9-.2m3.7-.5c.5.5-1.7 1.5-2.6 1.4"/><path fill="none" stroke="#CDE194" d="M60.1 16.8c.5.4.1.9-.5 1.2-.4.2-1.5.6-2 .6m3.2-1.1c-.1.3.1.6-.4 1-.3.2-.8.4-1 .7m1.9-.7c0 .4-.8.6-.8 1m-.8-3.2c.4.1.7-.2.8-.4 0-.2-.3-.4-.5-.6-.4-.3-.6-.9.1-1.3"/><path fill="none" stroke="#CDE194" d="M59.7 16.3c1 .2 1.5-.7 1.4-1.1-.1-.4-.8-1 0-1.4"/><path fill="none" stroke="#CDE194" d="M59.8 16.4c.2.2.7.1 1 0 .4-.1.7-.3.8-.6.2-.4-.1-.8.4-1.2m-2 2c.5.4 1.7.1 1.9-.4m-1.5.8c.4.2 1.6.4 1.9-.1m-1.5.6c.4.3 1.3.4 1.8 0m-1.2.9c.3.2.6.3.7.6"/><path fill="#97C93E" stroke="#659841" d="M43.9 18.3c-.7.3-2.1-1-1.8-1.5-.8-.2-1.2-.8-.5-1.2-.8-.3-.5-.9.5-1.2-1.1-.2.7-.8 1.1-1-.4-.5 1-.7 1.5-.8 0-.5 1.2-.2 1.5-.1.2-.4.9 0 1 .2.2.3.3.5 0 .9-.3.5-2.2 1.1-1.3 1.6l.3.1c1.3-.1.7-1.1 1.1-1.6.3-.3.7-.5 1.2-.6.3-.1 1.5-.2 1 .2.4 0 1.6.2.9.6.4.2 1.1.8.1 1.1.1.2.5 1.3-.5 1.1.3.5-.2 1-1.2 1-.2.6-1.3.9-2.1.7-.2.4-2.7.9-2.8.5"/><path fill="#CDE194" d="M45.9 15.3c-.1.2-.5.5-.7.7-.2.3-.5.5-.6.8-.2.3-.2.5-.4.8-.1.2-.5.6-.4.8.7-.1.7-1.2.9-1.5.2-.3.4-.5.7-.8.2-.2.6-.5.8-.7"/><g fill="none" stroke="#CDE194"><path d="M45.9 15.4c-1.2-.2-.3-.9.2-1.3.4-.3.7-1.2.1-1.5"/><path d="M45.8 15.4c-.3-.1-.8 0-.9-.3-.2-.3 0-.6.1-.8.1-.5 0-.9-.2-1.4"/><path d="M45.9 15.4c-.8.3-1.7-.2-1.9-.6-.3-.3 0-1.1-.7-1.3"/><path d="M45.8 15.5c-.7.4-1.7.1-2.1-.2-.3-.3-.8-.9-1.6-.8"/><path d="M45.8 15.6c-.7.2-1.2.5-2 .4-.6-.1-1.5-.6-2.1-.4m3.4.5c-.4.3-.7.5-1.3.6-.6.1-1.2.1-1.7.2m2.4-.1c-.5.4-1.5.6-1.9 1"/></g><g fill="none" stroke="#CDE194"><path d="M46.1 15.4c1.3.2 1.4-.5 1.6-1 .2-.4 1.1-1.1 1.9-1.1"/><path d="M46.1 15.5c.4 0 .6.2 1.2.1.5-.2.8-.4 1.1-.7.6-.4 1.3-.7 2.1-1"/><path d="M46.1 15.4c.2.5 1.5.4 2.2.2.6-.1 1.6-.8 2.2-.7"/><path d="M46 15.6c-.1.5 1 .7 1.8.6.6-.1 1.8-.3 2.3-.1"/><path d="M45.9 15.6c.1.4.1.8.9 1 .5.2 1.8.1 2.1.4m-3.8-.9c-.1.3.4.7.7 1 .3.3.7.4.9.7m-2-.9c-.2.5.7 1 .4 1.5"/></g><path fill="#97C93E" stroke="#659841" d="M47.5 10.8c-.1.2.5.3.6.5.1.2.1.4.3.5.6.7.8.4.7-.2-.1-.5-1-.8-1.6-1.1-.6-.3-.7-1.2.6-.9.9.2 1 1.5 1.4 1.9.6.6 1.6 1 2.4 1.5.7.5 1.4.9 2 1.4.4.3 1.7 1 .6 1.4-.5-.2-.8-.7-1.2-1-.5-.3-1.5-.5-1.9-.8-.6.2-1.9-.4-2.1-.7-.2.5-1.4-.7-1.5-.8 0 0 0 .1-.1.1-.6-.1-1.3-.5-1.2-.9l-.1.1c-.6-.1-.9-.8-1-1.1-.2-.6 1.3-.4 1.7-.1l.4.2z"/><path fill="#CDE194" d="M49.1 12.2s1.5 1.1 3 1.7c1.5.6 2.4 2 2.4 2s0-.4-.4-.9c-.4-.4-3.5-2-4-2.4-.4-.3-1-.4-1-.4z"/><path fill="none" stroke="#CDE194" d="M49.2 12.2c-.2.3-.8 0-.9-.1-.2-.2-.2-.5-.4-.7-.3-.3-1.6-1-2.2-.6"/><path fill="none" stroke="#CDE194" d="M49.2 12.3c.1.2-.3.3-.6.3s-.5-.2-.7-.3c-.3-.3-.6-.7-1.4-.5"/><path fill="none" stroke="#CDE194" d="M49.2 12.3c.1.2-.1.4-.5.4-.4.1-.6-.2-1-.1m1.6-.3c.6.4-.2.7 0 1.1m.9-.7c.1.1.3.2.4.3.1.1 0 .3.1.4.1.2.5.5.8.6m.5-.3c.3.2.3.6.7.8m-3.6-2.4c.4 0 .3-.5.2-.7-.1-.2-.4-.4-.7-.6-.3-.2-1.8-1.2-.7-1.4"/><path fill="none" stroke="#CDE194" d="M49.2 12.2c.4.1.5-.3.4-.5-.1-.2-.3-.4-.5-.6-.2-.2-1.2-1-.5-1.2m.7 2.3c-.1.2.9.1 1-.1m-.1.6c.2.1.6.1.8.1.3 0 .6.1.9.1m.1.8h1.1m.4.9c.7.3 1.4.4 1.5 1"/><path fill="#97C93E" stroke="#659841" d="M51.8 19.4c.1-1.2 1.1-2.6 1.5-3.9.5-1.2.7-2.3.7-3.5 1.9-.1-1.5 7.6-2.5 8.4"/><path fill="#97C93E" stroke="#659841" d="M57.9 14.2c.1.4-2.4.3-2.8 0-.6.2-1.6.1-1.9-.4-.9.1-1.4-.2-1.3-.7-.8.3-.7-.6-.7-.8-.9-.1-.4-.7-.2-.9-.6-.2.3-.5.6-.6-.4-.3.5-.3.8-.3.5 0 .8.2 1.1.4.5.3.2 1.3 1.3 1.2l.3-.1c.6-.5-1.1-.8-1.5-1.1-.3-.2-.3-.5-.2-.7.1-.2.5-.6.8-.3.2-.1 1.1-.5 1.3-.1.5 0 1.6 0 1.5.4.3.1 2 .4 1.1.7.8.1 1.2.5.7.9.6.3.4.9-.2 1.1.5.3-.1 1.4-.7 1.3"/><path fill="#CDE194" d="M55 12c.2.1.3.4.5.6.2.2.4.4.7.6.3.2.6.3.9.5.3.2.5.4.8.5.3-.3-1.2-.8-1.5-1-.3-.2-.5-.4-.7-.6-.2-.2-.3-.4-.5-.6"/><g fill="none" stroke="#CDE194"><path d="M55.1 12.1c-1 .3-1.3-.3-1.6-.6-.2-.3-1.1-.8-1.8-.7"/><path d="M55.1 12.1c-.3 0-.5.3-.9.2-.5-.1-.7-.3-1.1-.4-.6-.3-1.2-.4-2-.5"/><path d="M55.1 12.1c0 .4-1.2.5-1.8.4-.5 0-1.5-.5-2-.3"/><path d="M55.2 12.2c.2.4-.7.7-1.4.7-.5 0-1.6-.1-1.9.2"/><path d="M55.3 12.3c0 .4.1.7-.5.9-.4.2-1.5.3-1.6.6m2.4-1.1c.2.3.3.5.1.8-.2.3-.5.5-.6.7m1.2-1c.3.4 0 .8.4 1.1"/></g><g fill="none" stroke="#CDE194"><path d="M55.2 12c1-.3.1-.7-.4-1-.4-.2-.9-.9-.5-1.2"/><path d="M55.3 12c.2-.2.6-.1.7-.4.1-.3-.1-.5-.3-.7-.2-.4-.2-.8-.1-1.2"/><path d="M55.3 12c.7.2 1.3-.4 1.5-.7.1-.3-.2-.9.3-1.1"/><path d="M55.4 12.1c.6.3 1.4-.1 1.7-.4.2-.3.5-.8 1.1-.9"/><path d="M55.4 12.2c.6.1 1.1.3 1.8.1.5-.1 1.1-.6 1.6-.6m-3.2 1c.4.2 1.1.2 1.7.2.5 0 1-.1 1.5 0m-2.4.3c.5.3 1.7.2 2.1.5"/></g><path fill="#97C93E" stroke="#659841" d="M33.3 24.3c2.3-1.6 3.5-3.6 5.1-5.4.5.4-.3 1-.5 1.4-.3.5-.5 1-.9 1.5-.7.7-1.9 2.2-3.2 2.5"/><path fill="#97C93E" stroke="#659841" d="M33.7 24.2c-.4-.4-.2-1.4-.3-2-.1-.9-.1-1.8 0-2.6.1-1.2.7-2.5 1.6-3.6-1.2-.3-2.2 3.4-2.3 3.9-.1.8-.2 1.5-.1 2.3.1.6-.2 1.9.7 2.2"/><path fill="#97C93E" stroke="#659841" d="M33.7 24.2c-2.8-.9-5.4-2.2-8.8-2.4.8-.8 9.2 1.5 8.9 2.3"/><path fill="#97C93E" stroke="#659841" d="M25.2 21h-.3c-.9-.2.2-1.1.3-1.4.1-.5-1.2-1-2.1-.8-1.3.3-.6 1.1-.5 1.6.1.6.1 1.1-.1 1.7-.2.5-.6 1-.2 1.4.2.2 1.1 1.1 1.5 1.2.5.1.9-.3 1.2-.5.4-.2.7-.3 1.2-.4.8-.2 2.1-.8 1.6-1.3 1 0 .9-.5.8-.8 1.1 0 .4-.9.2-1.1.7-.2-.3-.7-.5-.9.6-.3-1.5-1-2.2-.6-.9.5.4 1.2-.4 1.8l-.5.1z"/><path fill="#CDE194" d="M24.9 21c-.2.6-1 1.1-1.2 1.7-.1.2-.6 1.9.1 1.9-.3-.6-.1-1.4.2-2 .1-.3.3-.6.5-.9.1-.1.9-.7.5-.8"/><path fill="none" stroke="#CDE194" d="M25.1 21.2c1-.2 1.5-.4 1.5-1 0-.3 0-.5.3-.7.2-.1.7-.5 1-.3M25 21.3c2 .6 2.1-1.3 3.2-1.5"/><path fill="none" stroke="#CDE194" d="M25 21.3c.3.4 1.5.2 2 .1.7-.2 1.3-.5 1.7-.8"/><path fill="none" stroke="#CDE194" d="M24.9 21.4c-.1.4 1.1.6 1.7.6.4 0 .7 0 1.1-.1.3-.1.5-.2.9-.3m-3.8-.1c-.4.5 2 1.3 2.8 1.1"/><path fill="none" stroke="#CDE194" d="M24.6 21.7c-.5.4.1.9.7 1.2.4.2 1.6.5 2.1.4m-3.4-.8c.1.3 0 .6.6.9.4.2.8.3 1.1.5m-2-.4c.1.4.9.5 1 .9m.2-3.2c-.4.1-.8-.2-.8-.3-.1-.2.2-.4.4-.6.3-.4.4-1-.3-1.2"/><path fill="none" stroke="#CDE194" d="M24.9 21.2c-1 .3-1.7-.6-1.6-.9.1-.4.6-1.1-.3-1.4"/><path fill="none" stroke="#CDE194" d="M24.8 21.3c-.1.2-.7.2-1 .1-.5-.1-.7-.3-.9-.5-.3-.4-.1-.8-.6-1.2m2.4 1.8c-.5.4-1.7.2-1.9-.2m1.6.6c-.4.3-1.5.5-1.9.1m1.5.5c-.4.3-1.2.5-1.8.2m1.4.8c-.3.2-.6.4-.6.6"/><path fill="#97C93E" stroke="#659841" d="M40.9 21.5c.7.3 1.9-1.2 1.5-1.6.7-.2 1.1-.9.3-1.3.7-.4.3-.9-.7-1.1 1-.3-.9-.7-1.2-.8.3-.6-1.1-.6-1.6-.6-.1-.5-1.2-.1-1.5 0-.3-.4-.9.1-1 .3-.2.3-.2.6.1.9.4.4 2.4.8 1.6 1.4l-.3.1c-1.3.1-.9-1-1.4-1.5-.3-.3-.7-.4-1.3-.5-.3 0-1.5 0-1 .3-.4 0-1.5.4-.8.7-.3.3-.9.9.1 1.1-.1.2-.3 1.3.7 1-.2.5.4 1 1.4.9.3.5 1.4.7 2.2.5.3.4 2.9.6 2.9.2"/><path fill="#CDE194" d="M38.4 18.7c.1.2.6.4.8.6.3.2.5.5.7.7.2.3.3.5.5.8.2.2.6.5.5.7-.7 0-.9-1.1-1.1-1.4-.2-.2-.5-.5-.8-.7-.3-.2-.7-.4-.9-.6"/><g fill="none" stroke="#CDE194"><path d="M38.4 18.8c1.2-.4.2-.9-.4-1.2-.5-.3-.9-1.1-.4-1.4"/><path d="M38.5 18.8c.2-.2.7-.1.9-.4.1-.3-.1-.6-.2-.8-.2-.5-.1-.9 0-1.4"/><path d="M38.5 18.8c.8.2 1.6-.4 1.8-.8.2-.3-.1-1.1.5-1.3"/><path d="M38.6 18.9c.7.3 1.7 0 2.1-.4.3-.3.7-.9 1.4-1"/><path d="M38.6 19c.7.2 1.3.4 2.1.2.6-.1 1.4-.7 2-.6m-3.4.8c.4.2.7.4 1.4.5.6.1 1.2 0 1.7 0m-2.4.2c.6.4 1.6.4 2 .8"/></g><g fill="none" stroke="#CDE194"><path d="M38.3 18.9c-1.2.4-1.5-.4-1.7-.8-.2-.4-1.2-1-2.1-.9"/><path d="M38.2 18.9c-.4 0-.6.3-1.1.2-.5-.1-.8-.3-1.2-.5-.6-.4-1.4-.5-2.2-.7"/><path d="M38.2 18.9c-.1.5-1.5.5-2.1.5-.6-.1-1.7-.6-2.3-.4"/><path d="M38.3 19c.1.5-.9.8-1.7.7-.6 0-1.8-.2-2.3.1"/><path d="M38.5 19.1c-.1.4 0 .8-.7 1.1-.5.2-1.8.3-2 .6m3.5-1.4c.2.3-.2.7-.5 1.1-.2.3-.7.5-.8.8m1.9-1.1c.3.5-.6 1.1-.1 1.5"/></g><path fill="#97C93E" stroke="#659841" d="M36 14.4c.1.2-.4.4-.5.6-.1.2-.1.4-.2.5-.5.7-.8.4-.8-.1s.9-.9 1.4-1.3c.5-.4.4-1.3-.8-.8-.8.3-.7 1.6-1 2-.4.7-1.5 1.1-2.2 1.8-.6.6-1.2 1.1-1.8 1.6-.4.4-1.5 1.2-.3 1.5.5-.2.7-.8 1-1.1.4-.4 1.4-.6 1.7-1 .6.2 1.8-.6 2-.9.3.5 1.3-.8 1.3-1 0 0 0 .1.1.1.6-.2 1.2-.7 1-1.1l.1.1c.6-.2.8-.9.8-1.2.1-.7-1.3-.3-1.7.1l-.1.2z"/><path fill="#CDE194" d="M34.7 15.9s-1.3 1.2-2.7 2c-1.4.8-2.1 2.3-2.1 2.3s0-.4.3-.9c.3-.4 3.1-2.4 3.5-2.8l1-.6z"/><path fill="none" stroke="#CDE194" d="M34.6 16c.2.3.7-.1.9-.2.1-.2.1-.5.3-.7.2-.3 1.4-1.2 2.1-.8"/><path fill="none" stroke="#CDE194" d="M34.6 16.1c0 .2.3.3.6.2.3 0 .5-.2.6-.4.2-.3.5-.8 1.3-.7"/><path fill="none" stroke="#CDE194" d="M34.6 16.1c0 .2.2.4.6.4.4 0 .5-.2.9-.2m-1.6-.2c-.5.4.3.7.2 1.1m-.9-.6c-.1.1-.3.2-.3.4-.1.1.1.3 0 .4-.1.2-.4.5-.7.7m-.7-.3c-.2.3-.2.7-.6.9m3.2-2.8c-.4.1-.3-.5-.3-.6.1-.2.3-.4.6-.7.3-.2 1.6-1.4.5-1.4"/><path fill="none" stroke="#CDE194" d="M34.6 16c-.4.1-.5-.3-.5-.4 0-.2.3-.5.4-.6.2-.2 1-1.1.2-1.2m-.2 2.2c.1.2-.8.2-1 0m.2.6c-.1.2-.5.2-.8.2-.3.1-.6.1-.8.2m0 .8c-.4.1-.7.1-1.1.2m-.3.9c-.6.4-1.3.6-1.3 1.1"/><path fill="#97C93E" stroke="#659841" d="M33.3 23.4c-.3-1.2-1.5-2.5-2.2-3.7-.7-1.1-1.1-2.2-1.3-3.4-1.9.1 2.8 7.3 3.9 8"/><path fill="#97C93E" stroke="#659841" d="M26.3 18.9c0 .4 2.5 0 2.8-.3.6.1 1.6-.1 1.8-.6.9 0 1.4-.4 1.2-.8.8.2.6-.7.5-.9.8-.2.3-.7 0-.9.6-.3-.4-.5-.7-.5.4-.3-.6-.3-.9-.2-.5.1-.8.2-1.1.5-.4.4 0 1.3-1.1 1.3l-.3-.1c-.7-.5 1-.9 1.3-1.3.2-.3.2-.5 0-.7-.1-.1-.6-.6-.9-.2-.2-.1-1.2-.4-1.3 0-.5 0-1.6.1-1.4.6-.3.1-1.9.6-1 .8-.8.2-1.1.7-.5 1-.6.4-.3.9.3 1.1-.1.3.8 1.4 1.3 1.2"/><path fill="#CDE194" d="M28.9 16.5c-.2.1-.3.4-.4.6l-.6.6c-.2.2-.5.4-.8.6-.2.2-.4.5-.7.6-.3-.3 1-.9 1.3-1.1.2-.2.4-.4.6-.7.2-.2.2-.5.4-.7"/><g fill="none" stroke="#CDE194"><path d="M28.8 16.5c1 .2 1.2-.4 1.4-.8.2-.3 1-.9 1.7-.9"/><path d="M28.8 16.5c.3 0 .5.2 1 .1.4-.1.7-.3 1-.5.5-.3 1.2-.5 1.9-.7"/><path d="M28.8 16.5c.1.4 1.3.4 1.8.3.5-.1 1.4-.6 1.9-.5"/><path d="M28.7 16.6c-.1.4.8.6 1.5.5.5 0 1.5-.2 1.9 0"/><path d="M28.6 16.7c.1.3 0 .7.7.9.4.1 1.5.1 1.7.4m-2.6-.9c-.1.3-.2.5 0 .8.2.2.6.4.7.7m-1.3-.8c-.2.4.2.8-.2 1.2"/></g><g fill="none" stroke="#CDE194"><path d="M28.6 16.5c-1-.2-.2-.7.3-1.1.4-.3.7-1 .3-1.2"/><path d="M28.5 16.5c-.2-.1-.6-.1-.7-.3-.1-.2.1-.5.2-.7.2-.4.1-.8-.1-1.2"/><path d="M28.6 16.5c-.7.2-1.4-.2-1.6-.5-.2-.3.1-.9-.5-1.1"/><path d="M28.5 16.6c-.6.3-1.4.1-1.8-.2-.3-.2-.6-.7-1.2-.8"/><path d="M28.5 16.7c-.6.2-1 .4-1.8.3-.5-.1-1.2-.5-1.7-.4m3.4.5c-.3.2-1.1.3-1.6.4-.5.1-1 0-1.5.1m2.4.2c-.5.3-1.6.4-2 .8"/></g><path fill="#FFF" d="M14.1 49.9c-3.1.1-6.4.3-9.2 1.1-2.5 3.1 11.9 1.9 15.9 1.8 6.3-.1 13-.2 19.4-.6 7.4-.5 15.2-1.9 22.2-1.8 2.6 0 8.9.1 8.2 2.3-.7 1.9-7 2.5-8.8 1.3.4-.1 1-.5 1.6-.7.6.2 1.1.3 1.8.4 5-3-12.5-2.1-15.5-1.9-7.3.3-14.9 1.9-21.9 2.5-5.4.5-15 .9-20.2.5-9.1-.6-5-5.9 2-5" opacity=".44"/><path fill="#FFF" d="M186.3 72.3c-3.1 1.7-8.5-.3-11.3-.3-3.1 0-7.8-1-11.2-.5-9.9 1.6-12-6.5-19.8-7.8-5.6-.9-40.6 3.5-37.1-.9-1.3-.2-2.9-.1-4.3.2.6 4.1-15.1.2-18.3-.8-1.5-.5-4-1-5.1-1.6-1.3-.8-.9-2.1-2.7-2.8-1-.4-11.3-1.9-10.9-.5.3 1.4 9-.4 9.4 2.1.3 1.6-6.2 3.6-8.7 4.2-4.9 1.2-7.2 0-12.2.6-3.3.4-7.2 2.5-10.4 1.1-1.3-.6-1-1.4 0-2.1-4.8-.6-5.5 2.7-2.5 3.6 3.4 1.1 8.9-.4 12.6-.9 5.6-.7 9.5.5 14.5-.1 4.9-.6 6.5-2.8 11.7-2.6 4.2.2 8 1.6 11.2 2.6 4.5 1.4 8 1.6 13.3 2 9.5.8 17.2-.3 27-2 10.3-1.7 12.1-.3 20.4 1.4 4.8 1 6.6 0 11-1.1 4-1 7.3-.6 10.4-1.2m28.9 17.4c-11.2 4-24.4 2.3-35.1.9-7.9-1-18 1.4-25.4-.5-3.6-.9-5.3-2.7-9.3-2.9-4.3-.3-9.5 1-13.7 1.6-4.7.6-8.4 1-11.9-.2-3.4-1.2-4.6-2.3-8.8-3.1-3.6-.7-11.5-1.5-5.7-3.7 3.1-1.2 10.4-1 11.4.6.8-.1 2.8-.7 3.5-.9-1.6-3.9-26.7-1.4-22.3 2.9 2.7 2.6 14.1 2.7 17.8 4.8 3.4 1.9 4.5 2.2 10.7 1.4 5.1-.7 9.2-1.7 14.4-1.1 5.1.5 8.7 2.3 13.9 2.8 4.4.4 8.5-.2 12.8-.1 8.8.1-.8 4.8 30.1 5.7l18.1-1.8-.5-6.4z" opacity=".25"/><path fill="#FFF" d="M209 79.6c-3.2.3-7.7-.4-11.6-.2-5 .3-8.3.4-12.8-.7-4.5-1-7.1-3-11.2-4.1-4.5-1.3-7.9-.8-12.7-.7-9.3.1-16.7-2.7-25.8-3.1-2.1-.1-3.8.3-6 0-1.4-.2-2.7-1.3-4.4-1.4-4.5-.3-8.1 1.9-3.8 3.4-2.8-2.8 16.7.2 19.5.3 8 .3 14.8 2.9 22.6 2.7 4-.1 7.8-.7 11.6.4 3.6 1 4.6 3.1 7.3 4.5 6.4 3.3 15.5 3.6 23.8 2.9 1.8-.2 1.9.2 3.3-.4" opacity=".25"/><path fill="#FFF" d="M58.9 58.1c-4.8-1-8.7 1.8-13.2 2-2.2.1-4.7-.7-7.1-.6-2.7.1-5.5.6-8.2.7-5.8.4-29.4 2.5-23.1-3.3-7.9 2.1 1.5 4.1 6 4.4 5.1.3 12.5-.1 17.9-.4 2.8-.2 5.8-.4 8.4-.1 2.4.3 4.1 1 6.8.7 2.5-.3 4.6-1.4 6.6-2.2 2.8-1 3.7-.8 7-1.3" opacity=".44"/><path fill="#C99564" d="M.4 88.1c9.8-5.5 9.4-2.4 20.5-5.4 4-1.1 15 .3 19.1 1.2 6 1.4 11.6-5 17.1-2.2 16.8 8.3 29.8 6.7 46.4 2.2 4.3-1.2 19.7-1.6 24.3-2 5.9-.5 13-.4 18.5 1.5 8.2 2.8 14.9.6 23.3-.4 8.9-1.1 18.2-1.9 27.2-1.8 8.6.1 14.9 2.5 23.2-1.5V129H.2l.2-40.9z"/><path fill="#969595" stroke="#343433" stroke-width=".5" d="M186.9 85.9l3.7-4.7s3.2-3.2 5-3.2 6.9 1.6 6.9 1.6l3.7.9 2.3 3.2.9 4.7-4.6 1.4-11 .4-6.9-4.3z"/><path fill="#969595" stroke="#343433" stroke-width=".5" d="M185 87.3s5-5.7 8.7-4.7c3.7 1.1 7.2 5.6 7.2 5.6l-5.4 1.9-5.5.4-5-3.2zm-53.6-3.9l4.6-2.1 5 3.9s-4.1 1.8-5.9 1.8-5.5-2.1-5.5-2.1l1.8-1.5z"/><path fill="#969595" stroke="#343433" stroke-width=".5" d="M173.2 86.5s.5-4.3 5.5-3.6c5 .7 7.3 3.2 7.3 3.2l.5 3.9 3.7-.4s2.3 1.4.5 2.5c-1.8 1.1-5.5 0-5.5 0s-2.3 1.1-4.1.7-9.6-2.5-9.6-2.5l1.7-3.8z"/><path fill="#FFF" d="M90.6 82.3c-3.2.3-7.7-.4-11.6-.2-5 .3-8.3.4-12.8-.7-4.5-1-7.1-3-11.2-4.1-4.5-1.3-7.9-.8-12.7-.7-9.3.1-16.7-2.7-25.8-3.1-2.1-.1-3.8.3-6 0-1.4-.2-2.7-1.3-4.4-1.4-4.5-.3-8.1 1.9-3.8 3.4-2.8-2.8 16.7.2 19.5.3 8 .3 14.8 2.9 22.6 2.7 4-.1 7.8-.7 11.6.4 3.6 1 4.6 3.1 7.3 4.5 6.4 3.3 15.5 3.6 23.8 2.9 1.8-.2 1.9.2 3.3-.4" opacity=".25"/><linearGradient id="g" x1="22.438" x2="124.967" y1="189.06" y2="116.836" gradientUnits="userSpaceOnUse"><stop offset="0" stop-color="#658239"/><stop offset="1" stop-color="#98cb67"/></linearGradient><path fill="url(#g)" stroke="#386833" d="M219.7 119.7v-2.4c-8.1-3.2-19.4 6.8-25.2 10.1-1.6-4.6 3.4-9.7 3.4-13.8-7.5 3.4-11.2 6.4-15.3 11.9-1.4-6-7-5.5-2.1-10.4-11.1-1.4-18.1 2.6-22.8 9.5 0-4.8-3.9-4.7 0-9.1-7.1-1.3-10.3-2.6-14.7 1.6-1.7-6.4-4.6-1.2-9-6.7-2.2 7-6.7 5.1-12.5 11.2 1.5-4 2-5.4-1.2-8.5-2 3.6-2.1 5.6-8.1 6.6-1.9-5.8-5.8-5.6-5.7-11.5-9.5 5.4-9.3-.4-14.4 8.6-2.2-3.3-5.1-2.4-4.2-6.1-6.6 3.2-9.2 3.7-10.2 9.4-3.5-4.5-4.6-4-10.7-6.6 1.3 3.4.1 5.3-2.3 8.7-3-1.2-3.6-3.8-5.2-6.1-.9 2.5-1.1 5-2.3 7.3-3.4-1.4-6-5.3-8.4-7.7-.8 2.5-.8 5.2-2.3 7.4-2-2.1-1.8-4.9-3.4-7.1-2 2.8-3 5.9-4.7 8.6-2.4-3.1-4.3-3.3-4.7-7-6.2 5.1-5.1 4.7-7.9 10.9-.7-5.2-3.6-5-8.5-8.6 1.6 3.4 2.7 6 .4 8.8H211c-.9-2.4 5.4-6.6 8.7-9z"/><g fill="none" stroke="#09F" stroke-miterlimit="10"><path d="M4.4 103.1h1.5"/><path stroke-dasharray="3.009 3.009" d="M8.9 103.1H206"/><path d="M207.5 103.1h1.5"/></g><path fill="none" d="M201.7 99h12.4v8.7h-12.4z"/><path fill="#09F" d="M201.7 105.9h8.1v1.7l4.3-4.3-4.3-4.3v1.7h-8.1z"/><path fill="#F5E0AB" stroke="#F5E0AB" stroke-width=".25" d="M42.4 55.6c-2 .7-4.5 1-6.6 1.4-2.6.6-4.3 2.4-6.4 3.9-1.1.7-1.7 2-2.8 2.6-.9.6-2.5.8-3.1 1.8-.5.9-.1 2.7.9 3 1.2.4 2.1-1 3.2-1 0 .6-.6.7-1 1 .5.2 2-.4 2.2-1 .3-.9-.7-1.6-.4-2.5.6-1.6 3.3-3 4.7-3.9 1.6-.9 3.3-1.6 5.1-1.8.8-.1 1.7 0 2.5-.1s1.7-.5 2.4-.4"/><path fill="#F3F4F5" d="M36.8 71s-3.7 4.4-4 4.9c-.3.5-.6 2.8-.9 3.3-.3.4-1.2 2.5-.8 2.9.3.4 2.9 1.4 4.3 2 1.4.6 2.6 1.8 3.3 1.6.6-.2 2.7-1.2 3-2.5.3-1.4.5-2.4 1.9-3.2 1.4-.7 2.7-1.6 3.3-1.7.5-.1 5.5-.3 5.8-.4.3-.1 2-.3 1.8-1.2-.2-.8-.9-.9-.4-2.6.5-1.7.5-2.8 1.5-3.8.9-.9 1.5-1.7.9-1.9-.5-.2-2.1.5-2.8 0-.9-.4-.7-1.6-.7-1.6s-4.5 2.3-5.8 2.7c-1.2.5-3.6 1.1-5.2 1.2-1.6.1-5.2.3-5.2.3z"/><path fill="#EDBA46" d="M43.8 53.7c-.3 0-3.7.6-3.1 1.6.6.9 1.7 2.6 1.5 3.6-.2.9-.6 2.1 0 1.4.6-.7.7-2.3 1.6-3.1.8-.9.7-1.4.8-1.8"/><path fill="#F6C854" d="M56.6 59.9s-.8 2.1-1.4 3.3c-.5 1.2-1.4 2.8-1.7 3.3-.3.4-2.2 2.2-2.2 2.2s-5.2 2.2-6.1 2.5c-.9.2-6.5-.9-7.4 0-.9.9-1.7 1.8-1.4 0 .3-1.8 1.9-4.2 2.2-5.1.3-.9 1.4-2.4 2-3.6.6-1.2 1.2-2 1.3-2.5.1-.5.2-4.8.7-5.5.5-.6 1.8-2.2 2-2.8.2-.6.8-.9 1.9-1.1 1.1-.1 2.5.9 3.3 1.5.8.5 2.6.6 3.2.8.4.2 3.6 7 3.6 7z"/><path fill="#EDBA46" d="M56.6 54.9s-1.2 2.5-.9 3.2c.3.7.3.9-.1 1.2-.3.3-2.1.5-3.3.4-1.2-.1-1.6.4-2.3 0-.7-.3-2.6-1.2-2.4-2.4.2-1.1-.4-2.3.9-2.5 1.4-.2 3.2-.4 4.1-.7.9-.3 2.8 0 2.8 0l1.2.8z"/><path fill="#F5E0AB" stroke="#F5E0AB" stroke-width=".25" d="M56 55.7c.7.3 1.9-.2 2.7-.2.9-.1 1.9-.1 2.8-.2 2-.1 3.2-1.4 5-2.3.8-.4 2-.9 2.1-1.9.1-.8-.7-1.4-.6-2.4.2-2.5 2.6-2.7 4-.8 1.5 2-.4 3.5-2 4.6-1.7 1.2-2.7 2.9-4.3 4.2-1.3 1-3.5 1.4-5.1 1.9-1.6.5-3.3.2-5 .3M54.9 71c1.8-.3 3.7-1 5.5-1.4 1.9-.4 3.3-1.2 4.4 1 .8 1.7 1.8 3.2 3 4.7.9 1.1 3.2 2.8 2 4.3-.9 1.1-1.5.4-2.3-.3-.7-.7-1.6-1.1-2.3-1.8-1.6-1.3-2-2.5-2.4-4.4-.5-2.8-1.8-1.3-3.4-.1-1.4 1-3.7 2.2-5.5 2m-20.4 8.6c-.8 1.5-5.9 7.1-3.4 8.8 1.3.9 3.6-1.4 4.4-2.3 1.3-1.4 2.3-3.8 3.2-5.4"/><path fill="#F5E0AB" stroke="#F5E0AB" stroke-width=".25" d="M30.2 84.8c0-.1 0-.1 0 0-.2 1-.4 3.1 0 4.1 1.7-1.6-.2-3.3-.1-4.9-1.6-.1-2.4 1.8-2.1 3 .2.7.5 1.4.7 2.1.2.6.2 1.4.5 2 .6 0 1-.7 1.1-1.2"/><path fill="#9E9ECE" stroke="#9E9ECE" stroke-width=".25" d="M25.4 82.2c.4.8.6 3.4 1.7 3.6 1 .2 3-2.1 3.9-2.5-.5-1.1-1.5-2.2-1.9-3.4-.6-1.5-.3-2.2-2.1-1.5-2.7.9-5.2 1.4-7.1 3.9-1.3 1.7-1.9 5.7 1.3 5.1 1.3-.3 2.4-.8 3.4-1.7 1-.8.8-2.6 1.6-1.1m43.9-8.2c1.2.4 1.7 1.1 2.9.3 1-.7 1.1-1.9 1.9-2.8.9-1 2.5-1.5 3.8.5.6.9 0 2.5-.2 3.5-.3 1-1.6 2-2.3 2.7-.8.8-2.1 1.3-3.2 1.8-1 .5-2.1 1.7-3.2 1.1-1-.6-.2-1.9-.9-3"/><path fill="#D2D2D0" stroke="#D2D2D0" d="M46.1 78.8c-2.2.6-3.8 2-4.7 4.1-.8 2.1-2.6 3.4-4.8 2 1.3-1 3.1-1.4 4.3-2.6 1.5-1.4 2.4-3.4 3.9-4.7 1.1-1 3.3-1.2 4.7-1.2 1.4 0 3.2.4 4.5 0 .4 1.2-2.7 1.8-3.6 1.9-1.6.2-3.1-.3-4.5.6" opacity=".29"/><path fill="#D2D2D0" stroke="#D2D2D0" d="M38.4 71.1c-1.6.5-3.1 2.5-3.9 3.9-.8 1.3-1.5 2.9-1.7 4.4-.2 1.8-.1 2.8 1.7 3.5.6.2 1.5.3 2.1.7 1.1.8.4 1.3-.6.9-1.4-.5-2.9-1.1-4.2-1.7-1.1-.5-1.1-.8-.7-1.8.3-.7.7-1.4 1-2.1 1.3-3.2 2.9-6.5 6.3-7.8m17.9-2.3c0 .6-.8 1.2-1.2 1.8-.4.6-.5 1.2-.7 1.9-.3 1.3-.4 2.7-.5 4-1.8-.1-.7-2.9-.4-4.1.7-2.4-.4-2.8-2.3-3.7-.4 2-3.9 2.6-5.6 2.8-2 .2-4.6.8-6.5-.2.7-.6 2.2-.3 3.1-.3 1.2 0 2.4.1 3.5 0 1.4-.1 2.5-.7 3.7-1.3 1.2-.6 2.1-2.2 3.4-1.6.6.3.9.8 1.6.9.3 0 1.9 0 1.9-.2z" opacity=".29"/><path fill="none" stroke="#FFF" stroke-width="2" d="M73.5 76.8c-.1.7.8 1 1.4.9m-2.8-.4c.3.7.7 1.7 1.5 1.6"/><path fill="#E9E4E3" stroke="#E9E4E3" stroke-width=".25" d="M28.1 78.4c-.7-.5-2.5.4-3.2.8-1.2.6-2.4 1.4-3.5 2.2-.9.6-2.3 1.6-2.5 2.7-.2.9.2 1.7 1.1 3.3-1.2.1-2.2-2-2.1-2.8.2-1.2 2.2-3.1 3-3.9 1.6-1.5 5.2-3 7.2-2.3"/><path fill="#FFF" stroke="#FFF" stroke-width=".25" d="M74.8 74.3c-.5 1.5 4 2.3 4.1.9.1-.5-1.4-1.9-1.8-2-.8-.4-2 .2-2.3 1.1"/><path fill="#E9E4E3" stroke="#E9E4E3" stroke-width=".25" d="M69.6 83.3c1.7.1 4-1.5 5.2-2.5.8-.6 1.7-1.3 2.3-2.1.7-.9.9-2.3 1.5-3.1.7.4 0 2.2-.3 2.8-.5 1-1.7 2.1-2.6 2.8-1.1.8-4.9 3.7-6.1 2"/><path fill="none" stroke="#FFF" stroke-width="2" d="M24 83.3c1.1-.1 2.2.9 1.7 2m-2.6-.9c1.2-.5 1.4 1.2 1.2 1.9"/><path fill="#F7F6F5" d="M65.1 37.9l-.2.4c-.5 1.1-1.7 4.2-1.9 5.4-.2 1.5-.2 4.1.3 4.3.6.2.4-1.8.4-2.6s.8-3.8.9-4.6" opacity=".14"/><linearGradient id="h" x1="54.971" x2="92.638" y1="-20.558" y2="-20.558" gradientTransform="matrix(.835 .0492 -.0588 .9983 -15.262 58.754)" gradientUnits="userSpaceOnUse"><stop offset="0" stop-color="#fff2ca"/><stop offset=".436" stop-color="#ffeabc"/><stop offset="1" stop-color="#ffdda4"/></linearGradient><path fill="url(#h)" stroke="#F1B74F" stroke-width=".349" d="M60.1 31.1s3 6.2 2.9 8.2c-.1 2-.9 5.5-.6 8.1.1.7.6 2.4.4 3.1-.2.9-1.3 2.4-4 3.3-2.7.8-6.4.5-7.9.4-2.3-.1-8.7 0-10.4-.2-3.8-.4-6.5-3.5-6.1-3.6 2-.1-.7-2.2-.4-3.3.3-1.2-2.3-1.4-2.3-1.4 1 .1 8.7-7.7 12.6-9.3 3.8-1.6 7.7-6.9 10.6-6.8 2.8.2 5.2 1.5 5.2 1.5z"/><linearGradient id="i" x1="58.696" x2="70.18" y1="-12.747" y2="-12.747" gradientTransform="matrix(.7342 .0433 -.0588 .9983 -3.043 59.622)" gradientUnits="userSpaceOnUse"><stop offset="0" stop-color="#ec1475"/><stop offset="1" stop-color="#fff5cb"/></linearGradient><path fill="url(#i)" d="M40.8 49.4c-.1 2.3 1.6 4.3 4 4.4 2.3.1 4.3-1.6 4.5-3.9.1-2.3-1.7-4.3-4-4.4-2.4-.1-4.4 1.6-4.5 3.9z" opacity=".13"/><linearGradient id="j" x1="208.278" x2="216.526" y1="3.072" y2="3.072" gradientTransform="matrix(.6405 -.5248 .3637 .8503 -77.054 157.923)" gradientUnits="userSpaceOnUse"><stop offset="0" stop-color="#ec1475"/><stop offset="1" stop-color="#fff5cb"/></linearGradient><path fill="url(#j)" d="M62.9 47.3c.9 1.6.3 3.6-1.2 4.6-1.5 1-3.5.5-4.3-1-.9-1.6-.3-3.6 1.2-4.6 1.5-1.1 3.4-.6 4.3 1z" opacity=".13"/><path fill="none" stroke="#BD6428" stroke-width=".349" d="M51.9 45.9s.5-1 1.8-.8c1.3.2 1.5 1.1 1.5 1.1"/><path fill="none" stroke="#A43A23" stroke-width=".349" d="M54.3 51.6c0 .2-.2.3-.3.3-.2 0-.3-.2-.3-.4s.2-.3.3-.3c.2 0 .3.2.3.4z"/><path fill="#025590" stroke="#025590" d="M40.6 70.3l2.8.8-8.6 12.5-1.5-1.6z"/><path fill="none" d="M50.9 44.2c-1.2-2.2-3.6-1.7-6-1.5"/><path fill="#030305" d="M55.8 43.2c1-.7 2.1-.8 3.1-.3m-13 2.2c.8-.9 1.8-1.3 3-1"/><path fill="#1D110B" d="M43 37.9c1.3 3 13.9-.6 17.1-1.9.2-.6.1-1.3-.2-1.9.9 2.9 1.7 6.4 3.4 8.6.7-12-4.4-14.7-15.4-14.1-13.3.8-16.9 6-16.4 12.9.4 5.9 2.4 8.3 8.6 7.8.1-1.5-.8-3-2.1-4.2 3.5-1.3 2.8-2.3 4.3-4.6"/><linearGradient id="k" x1="31.547" x2="37.287" y1="49.075" y2="49.075" gradientUnits="userSpaceOnUse"><stop offset="0" stop-color="#fff2ca"/><stop offset=".436" stop-color="#ffeabc"/><stop offset="1" stop-color="#ffdda4"/></linearGradient><path fill="url(#k)" stroke="#F1B74F" stroke-width=".349" d="M34.8 48c-.3-1.1-1.6-2.5-2.7-1.6-.8.7-.7 2.4-.2 3.1.7 1.2 1.7 1.6 2.9 1.8.7.2 2.6 1.4 2.5-.1"/></g></switch></svg>
