<svg xmlns="http://www.w3.org/2000/svg" version="1.0" viewBox="0 0 39.5 11.3"><switch><g><path fill="none" stroke="#006a9d" stroke-miterlimit="10" d="M39.2 0c-1.2.8-1.6 1.3-3 1.9-.4.1-.7.3-1.1.4-.6.3-1.3.5-1.9.4-.5-.1-1.1-.4-1.5-.2-.6.3-1 1.5-1.5 1-.2-.5-.8-.8-1.4-.7 0 1-.9 1.7-1.8 2-.9.3-1.9.3-2.8.5-1.2.3-2.4 1-3.5 1.5s-2.6.8-3.7.3c-1.4-.6-2.4-2.4-4-2.2-1.4.2-2.2 1.8-3.5 2-.7.2-1.5 0-1.7.6-.2.6.5 1.3 0 1.7-.3.3-.8-.1-1.2-.5-.9-1-2.5-1.4-3.8-1S.5 9.3.3 10.6c-.2 0-.4-.3-.3-.5"/></g></switch></svg>
