<svg xmlns="http://www.w3.org/2000/svg" viewBox="0 0 46.6 58.5"><path fill="#D0E7C4" stroke="#669866" stroke-width=".25" d="M2.3 8l-.1-.6.2-.9-.7-1v-.4l.2-.9-.7-1.9.4-1 2-1.3 1.1.7-1.8 1.8V5l-1.1.5.6 1v.8l3.3-1.2.8-.2 3.9.4 6.7-.3 1.5.3.3 1.7.4 1.8.3 2 1.3 2.2 1.6 1.3 5.9-.3 1.3-2.2.1-1.6 3.4-.2.9 1 4.4.3-.5 3.1.8 1.8-.2 4.3.7 2 .9 2.4-.5 1.8.5 1.2.9-.3.8-.1 4.7-.2-.2 5.6-.3 1.4.3 1.5-7.5.2-.4 13.1.4 1.9 1.5 1.3 2.2 2.7.8.9-5.2 1.3-1.5.3-1.3-.2-1.8.2-2.9-.5-2.9-.3-1.4-.1-1.4-1.8-16.2.4-1-.5-1.9-1.6H4.8l-1.8 1-1.3-.4-1.7.6v-5.9l1.5-2.6.2-1.5.5-2.5v-1.3l.5-1.1.1-1.6 1.5-2 .2-.7.9-1h.8l.9-1.3.6-2.6.3-2.4-.6-1.4v-.7l-.7-1.5-1-2.5-.9-2.8.5-.7.9-.9-.1-.7v-.9L4 12.1v-1.4L3 9.5z"/></svg>
