<svg xmlns="http://www.w3.org/2000/svg" version="1.0" viewBox="-483 355 56 60"><switch><g><path fill="#C11B33" d="M-463.5 368.1s2.5.7 5.4.7c2.9 0 6-.4 7-.4s3.2-1.1 5.7-.4c2.5.9 6 2 7.8 5.6 1.7 3.6 3 7.8 3 9.6 0 1.8-.1 5.9-.9 8.2-1 2.2-4.8 9.5-5.1 10.4-.5.9-2.7 5-3.2 6.1-.6 1.2-2.1 2.5-3 3.3-1 .8-1.6 1.8-1.6 1.8s-1.3.9-3 1c-1.6.2-4.1-1.1-4.4-1.1-.3 0-3 1.1-5.1 1.2-2.2.1-3.8-1-3.8-1s-1.6 1.9-3.5 1.9-3.3-.5-5.5-3.7c-2.1-3.2-8.6-15.3-8.9-21.2-.5-6-.5-9 1.1-12.5 1.3-3.3 4.3-6.5 5.7-7.7 1.6-1.2 3.2-1.9 4.8-2 1.6-.2.3-.4 4-.1-.1 0 3.5.3 3.5.3z"/><path fill="#FFF" stroke="#FFF" d="M-460 373.4c-.6.2-1.3.7-1.6 1.4v2.2c1 1.4 3.5-.5 4.1.9-1.9.9 1.9 1.5 2.5 1.6 1.3.5 2.5 0 4.1.2.6-2.8 2.9-1.4 4.8-2.5-.3-3.4-2.5-4.9-6-4.3-1.3.2-2.7.2-4.1.2-1.3-.1-2.9-.7-4 .2" opacity=".1"/><path fill="#050505" stroke="#050505" d="M-462.8 370.6c-.6.2-2.5-1.8-3.2-2.6 1.4-.4 2.4 1.9 3.2 2.9m14.4-2.9c-1.7.1-4.3 1.2-5.4 2.5 1.1-1.2 3-1.6 4.6-2.2" opacity=".18"/><path fill="#910923" d="M-453.6 370.6c.8-.2 1.6-.7 1.9-1.6-.6-.4-1.3 0-1.9-.1-.8-.1-1.3-.4-2.2-.3-1.3.2-2.5.3-4 .4-.6 0-1.3 0-1.9-.2-.8-.2-1.4-.9-2.1-.8-1 .1-1.3.5-2.1.2-.6-.1-1.4-.7-2.1-.1.3.5 1.3.5 1.9.9.6.5 1.3 1 1.7 1.6.3.5.9 1.3 1.4.5.1-.4-.2-.5.3-.9.3-.2.8-.1 1 .3.6.2 1.3-1 1.9-.5.3.2 0 .6.5.7.2 0 .8-.6 1.1-.6 0 .2 0 .5.3.6 0-.3.3-1.1 1-.8.6.2 0 .8 0 1.2.3 0 .9-.5 1.3-.6.5-.2 1-.2 1.6-.3-.3.1-.5.4-.5.5.5.1.8-.1 1.1-.1"/><path fill="#88AA59" d="M-463.2 364.3s2.1 5.7 2.5 6.4c.6.8 1.6 0 1.6 0l-1.3-5.1-.2-1.3s-.2-.9-1.4-.9c-1 0-1.2.9-1.2.9zm31-8.9c.2 1.5-1.7 2.3-2.9 2.3-.6 3-2.4 5.8-5.9 6.8-1.3.4-2.9.2-4.1.4-1.4.1-6.8 3.5-7.3 1.1 0-.9-.2-2.4 0-3.4.5-3 3.8-2.1 6-2.7 1.6-.4 2.2-1.9 3.5-2.7.8-.6 2.4-.6 3.5-.9 1-.2 2.4-.5 3.5-.4 1.1.1 2.9 1.2 3.5-.7"/><path fill="#667C3C" d="M-455.5 370.6c1.6.5 2.1-1.6 2.7-2.5 1.1-1.4 2.1-2.2 3.6-3.1 1.4-.9 2.5-1.5 4.1-1.9 1.3-.3 3.2-.6 4-1.8-1.8-.2-3.6 1.2-4.9 1.8-2.2.9-4 1.4-5.7 2.9-.6.6-1.6 1.1-2.2 1.9-.1.2-1.7 2.7-1.6 2.7z"/><path fill="#A1C170" d="M-435.1 357.8c.5-.5 1.1-.2 1.9-.5.8-.6.6-1.2.8-2 .6-.2 1.9.2 2.2.5 0-.2.3-.5.3-.8.9.2 1.9.3 2.9.5 0 .4-1.3 1-1.8 1.3-.2.2-.2.5-.5.6-.3.1-1 0-1.3 0-1.6.1-4.1.9-5.1 2 .1-.5.6-1 .6-1.6"/><path fill="#667C3C" d="M-449.8 364.6c-.3-1 .3-2 .9-2.6.6-.6 2.2-1.2 2.2-2-2.5.9-3.2 2.5-3.6 4.9m4.6-2c.2-1.9 4.4-4.3 5.9-5.3-1.4-.5-2.4 1.4-3 2.2-1.1 1.1-2.2 2.2-3.2 3.3"/><path fill="#910923" d="M-455.5 370.9c-1.3 0-2.2.2-3.3.2-1.3 0-2.4-1.2-3.3 0 .2.3.3.5.6.8-1.3-1.8-3.2.1-4.6-.8-.8-.5-.5-1.3-1.6-1.5-.5 0-1.1.2-1.3.5-.2.7.2.5.6.7.2.1.8-.1 1.1.1.3.3.5.9 1 1.1.8.5 1.7-.1 2.5-.2.5-.2 1-.4 1.3-.2.6.2.6.8 1 1 .9.3 1.9-.2 2.7-.3.8 0 1.6.2 2.2 0 .5-.2.2-.8.5-.9.6-.1 1 .4 1.3.4 1.3 0 .9-1 2.1-.9.5 0 .9.9 1.4.7.6-.2 0-.7.5-1 .5-.4 1.7.1 2.2-.4 1.1-1.1-1.1-.9-1.6-.7-1.6.5-3 1.1-4.9 1.1"/><path fill="#AD1734" d="M-469.2 367.6s-3.5.4-4.6.9c-1.1.7-6.2 4.8-7.5 8.3-1.3 3.3-1.9 5.4-1.7 8.8.2 3.4.5 6.9 1.6 10.2 1.3 3.2 2.9 6.8 4 8.9 1 2.2 3.2 6.1 4.1 7.3 1 1.3 3.2 3.1 4.4 3 1.6-.2 3.8-1.3 3.8-1.8s1.3 1.5 3.8 1c1.8-.3 3.5-.7 5.2-1.2 0 0 2.7 1.6 4.6 1.1 1-.3 1.9-.6 2.9-1l3.6-3.7s7.9-14.9 8.7-16.8c.6-1.7 1.8-8.3 1-11.2-.6-3-1.6-6.1-2.5-7.8-.9-1.6-2.7-3.4-4.1-4.1-1.3-.6-4.1-2.1-4.6-1.9-.6.2-2.2 1.1-1.1 1.6 0 0 7.6 1.6 8.6 5.4.8 3.7 4 5.6.5 7.7-3.5 2.1-7.6 2.3-10 2.4-2.2.2-3.8.9-5.1 2.2-1.3 1.4.2 2.4-3.5 2.4s-8.2-.3-9.2-.6-2.7-1.5-2.7-1.5l-.6-2s-1.8 1.2-2.1-1.3c-.1-2.5.6-2-.3-3.6-.8-1.6-2.7-3.6-2.7-3.6s-1.1-2.4.6-3.3c1.8-.8 6.5-2.5 6.5-2.5l.8-3-2.4-.3z"/><path fill="#CC2344" d="M-474.1 370.5c.2-.1.5-.1.8-.2 0 1.1-1.9 3.7-1.3 4.8 1.3 2 3.2-1.1 4.8-1.2.2 1.1-.3 2.4-.3 3.3.3-1.2 1.3-2.1 2.5-2.2.8 1.1 0 2.5.3 3.8 1.3 0 2.2-1 3.2-1.9.5 2.2-1.1 4.5-1 6.8 2.2.4 2.2-3 3.3-4.4-.2 1.9 1.1 4.8 1.8 6.6 1.8-1.6 0-4.7 1.1-6.6 2.1 4.4 4.1.7 6.5-.5 1.2 1.1 2.5 2.1 3.8 3 .6-1.1.6-2.7 1.8-3.3.3.9 1.1.9 1.3 1.2 1.3-1.9-3-10.3-5.2-9.3.3.6 0 1.5.3 2-2.2.4-4.8.6-5.4-1.9-1.4-.1-1.6 1.3-1.6 2.4-1.9-.4-2.9-1.3-4.8.1.2-.4.2-1.1.3-1.5-1.8-1-3.2.8-4.8 1.5 0-.6-.6-1.5-.6-2-1.7 1.4-3.8 2.8-3.5-.9-1.3-.3-2.9.5-4.1.8.6.6 1.3.5 2.1.5"/><path fill="#910923" d="M-476.8 406s3.3 6.4 4.9 7.5c1.6 1.1 2.7 1.6 3.8 1.4 1.3-.3 2.4-.9 2.7-1.2.3-.2.6-.6.6-.6s1.6 1.2 3.8 1c2.1-.2 4.4-.9 4.4-.9l.6-.2s2.9 1.1 3.8 1.1c1.1.1 2.7-.6 3.2-.8.5-.2 1.3-1.5 1.3-1.5s1.6-.9 2.4-2c.8-1.2 1.4-2.6 1.7-3.1.3-.3-1.9 3.5-4.8 5-2.8 1.5-5.1.9-6.3.3-1.3-.6-4.1 1.9-6.7.9-2.5-.9-5.4 1.2-7.8 0-2.2-1.2-7.6-6.9-7.6-6.9z"/></g></switch></svg>
