<svg xmlns="http://www.w3.org/2000/svg" id="Capa_1" x="0" y="0" version="1.0" xml:space="preserve" viewBox="0 0 725 59"><style>.st0{fill:#081fc1}.st3{fill:#d0e7c4;stroke:#bddda8;stroke-width:.25}</style><switch><g><path d="M0 0h725v59.8H0z" class="st0"/><path d="M0 0h725v59.8H0z" class="st0"/><path d="M0 0h725v59.8H0z" class="st0"/><path d="M0 0h725v59.8H0z" class="st0"/><path d="M0 0h725v59.8H0z" class="st0"/><path d="M0 0h725v59.8H0z" class="st0"/><path d="M0 0h725v59.8H0z" class="st0"/><path d="M0 0h725v59.8H0z" class="st0"/><path fill="#1672a5" d="M0 0h725v59.8H0z"/><radialGradient id="SVGID_1_" cx="259.45" cy="41.936" r="30.747" gradientUnits="userSpaceOnUse"><stop offset="0" stop-color="#aadee8"/><stop offset=".511" stop-color="#71c8f0"/><stop offset="1" stop-color="#3298cb"/></radialGradient><path fill="url(#SVGID_1_)" d="M295.3 28.6c-1.1-1-2.6-1.5-4-2-4-1.3-8.1-2.7-12.3-2.6-5 .1-9.7 2.1-14.3 4-1.1.5-2.4 1.1-2.8 2.3-.4 1.1.1 2.3-.3 3.3-.9 2.9-5.5 1.5-8.1 3-2.4 1.4-2.6 4.7-4.2 6.9-1.9 2.4-5.2 3-8.2 3.6-4.3.9-8.5 2.3-12.4 4.2-3.4 1.6-6.7 3.7-8.3 7.1-.2.4-.3.9-.5 1.3h32.4c1-.6 2.5-.7 3.7-.2.2.1.3.1.5.2h11.2c1.1-5 4.8-9.3 9.5-11.1 3.9-1.5 7.3-.9 11.1.1 3.5.9 5.4.4 5.1-4 2.9-.6 5.1-2.9 5.7-5.8.5-2.9-.5-5.8-2-8.3-.6-.7-1.1-1.4-1.8-2z"/><path d="M336.7 38.7h-.1l-3.4 1.2-3.3 1.3-2.2.3-2.5.4-.7.3H323l-1.2-.6v.9l-1.1.2s-.4.3-1.4 1.2c-1.1.9-2.7 1.5-2.7 1.5l-1.3.6-1.8.2-.9.1.3.4-.9.1 1.5-1.4-1-.3-.9 1.4-2.2.2-.6.3-.6 1h-1.1l.5.5-.2.7H306l1 .5v.6h-.9l-.4.7-1 .8-1.2.8-.7 1.4-1 .4.5.5-1.2.3s1.6.1.6.4c-1 .3-.6.8-.6.8h-1.6s1.6.4 1.1.7-1 .1-1 .1h-1.9l.4-.7-.9-.1v-1l-1.1.5-.8-.4-.7.2-.9.2.5-.6-.7-.3.4-.4h-.9l.4-1h-.7l.2-.6-1-.3.3-1.1-.7-.4v-.7l-.4-.2 1-1-.4-.3.8-.6-1.5.9.1-.8.7-.3h-.4l.2-.7.8-.6-1 .3-.2-.4.7-.6-1.2-.7.2-.3 1-.4.4-.3s-1 .2-.9-.3c0-.5.6-1.2.6-1.2l1.1-1 1.2.4h.9l.6-.1v-.9h-.4l-.7.6-1.1-.5 2.7-.2V41l.7-.6.5-.6 1.1-.6v-.4h-1.8l-2.4-.6.7.4 1.1.6v.3l-3.1.8-.1-.3-1-.5.4-.4.4-.6 1-.2.3-.1-.4-.5.8-.3 1.7.2 1.4.5 1.1.1-.2-.8-.2-.8v-.5h-1l-.8-.3h-.4l-.6.5h-2.4l1.3-.8 1.2-1.4-.6-.7.4-.5-.1-1.9-1.3-.8V29l-.8-.4-2.7-.2-1.5-.4-1.4.2h-1.9l-.5-.1-.9.1-.4.2-2.5-.5 2.1-.6-2.2-.1h-.7l-.2-.5 3.3-.3h2.5l1.2-.4-1.2-.1-1 .2h-2l-.9-.2-1.4-.4-1-.4 1-.7h2.1l2.6-.4 1.8-.2 2.3-.1 1.9-.6.7-.9h1.1l-2.2.1-1.1-.1-.3-.4 1.9-.4 2.4-.4 1.6-.2.4.5v-.5h1.4l1.1.1v-.4l.7-.1-.2-.3 2.5-.3 2 .7-1.6-.9h3.3l1.8-.3 1.1.3-.8.9 1.7-.8 1.3.3 1.4.3-.6-.5h1.4l-1-.6h2.1l1.7.4 2.8.6-.2-.6-1.9-.4h2.3l2 .3-2.5-.7h3.3l3.2.4-3.5-.7 1.1-.5h2.8l1 .3.9-.3.7-.4h1.9l5-.2 2.8.3 1.2.4-5.1.3 8.1-.4-.9.6 2-.1 2.7.4-2.4.3-4.6.1-6.4.6 6.5-.5 2.2.1-3 .6 3.9-.4.3-.4h2.2v.7l-3.6 1.5 3.1-.8 2.6-.6 2.3.2 1.3-.5 2.1-.1 2.3.2 1.2.2-2.3.7h-1.1v.3l-6.3.2 3.2.2 1 .2-3.4.3-1.8.2.3.3 1.1-.3h2.3l-1.2.5h-1.4l-.3.5-.9.7-1.1.3-1.7 1.5.5.3.9-.7h1.1l1.1.5h-1.6l-.5.3.7.2 1 .2.6-.1.6.1v.5l-1.1.2-2.1-.1-1.6.3-.8.2.6.6 1 .2.6.2h-1.1l2 .1v.7l-.5.5-1-.2-1.4-.4.9.6-1.3.2h1.4l.5.1.3.3-1.1.2 1.5.2h.6l-.4.5h-1.3l-.2-.3-2.3.6s-.3-.4.8 0 1.3.6 1.3.6l-.2.4-1.3.2-1.1.3-2-.7-.4-.2-.8.5-1.6.4h-1l1.6.4-.2.3-1.3.1 1.9.2-.9.4 1.1-.2 2.2 1.1-.2.8h1.1l-.3 1.5h-2.7l-.6-.9-.4-.5-1.5-.6h-1.7l2.4.5-.6.4-2.4.4 2.8-.1v.4l-3.3 1 3-.4 1.4.2 2.5.5zm-162.5.8l-1.3-.7-2.7.1-2.1-.2-3.1-.7-3.7-.1.3-.6-2.7.2V37l-1.5.2.9-.6-.6-.4-5.5 1.1-3 .6-3.5.7-3.9 1.9-3.9.2-1.8 1.1 1.1 1.1-.7 1 2.7.2-1.7 1.1-.9.7-3.2-.1 1.2-.9-3.2.5-.2.4H130l-3.6.9 1.3.6-1.1.2-.5 1.1 1.3.2 3.2-.1 3.8-.7-1.7.9-.1.7-1.7 1-2.2.1-2 .8-.8-.4-1.8.5-1.6.9-2.7 1.1-1.3.8-.5.8 1.6-.5-1 .8.1.4h1.4s-.5.6-.5.5c0-.1-.8-.2-.8-.2l-.5-.4-1.2.5V58l1.4-.1 2-.7 1.6-.8-1.8 1.2-.6 1-1.1.6-.6.6h1.3l1-.3.3.3.7-.1v.1h1.5l.8-.4-.6.4h1.4l1.8-.5-1.1.5h5.3v-.1l-.6-.2.8-.6.7-.1 1-.5h.7l.1-.3 1.3-.5v-.3l1.4-.5s.4-.1 1.7-.6c1.3-.5 2.8-.9 2.8-.9l.8.6-1 .1-.2-.2-2.2.5-.6.8-2.3 1.1v.2l.9-.2-1.3.6-.8.3v.3l1.5-.3 1.2-.4 1.8-.6 1.2-.5.4.5 1.7-.8.9-.4-.2-.6 1.3-.4.7-.4.2.5 1.1-.1v.3l.3.3-.4.4.9.1.9-.3-.3.6.6.2v.3l1.2-.2 1-.1 1.1.3.6-.1-.1.4.9.4 1-.4.8-.2-1 .9.3.3.5.3.2.5h4.1l.1-.1v.1h1.6l-.4-1.2.5-.8-2.1.3-2.9 1v-2.6h-2.4L159 51l15.2-11.5zm-58.7 17.4l-1.6.3h-1.1v.3l.6.4h1.3zm153.9 2.2l-.3-.2.2-.3-.3-.5.1-.4-.4-.1.3-.4-.2-.2-.3.1-.8.7v.2l-.3-.1s-.4-.2-.4.1.3.7.3.7l-.5-.1-.1.3-.3.1-.3.1.2.3-.6.1-.2.3h4v-.3h-1l.9-.4zM258 53.2l-.6-.3-.7.2-1 .2h-.3l-.6-.1-.4.1-.5-.2-.6-.3-1-.2-.8.2-.8.4-.3.9v.2l.2.2v.3l-1 .8-.4.4.3.2-.3.3.2.2-.4.3v.4l-.1.2.1.2-.4.4-.5.3-.6.4-.1.2-1.2.7H260l.4-.4-.3-.2.4-.5v-.6l-1.3-.2 1.5-.1.3-.3s.1-.2.2-.6c0-.4.8-.7.8-.7v-.4l-.3.1-.7.1v-.3l-.4.1-1.4-.4-.1-.2.1-.3s.8-.3.3-.4c-.5-.1-.6 0-.6 0v-.4l-.5-.1.1-.3-.5-.5z" class="st3"/><path d="M221.4 59.7l.5-.9.5-.7 1.3-1.3.9-.8 1-.5.5-.5.3-.3 1.3-.5-.1-.3h.6l.6-.5.5-.3 1-.5.7-.1-.2-.3.6-.1.9.2.6-.3h.5l.4-.6v-.3l-.3-.2-.5-.4h.5l.4.2.5.1.3-.2.4.1.7-.3.1-.3h.3l.2-.4.4.3h1.2l.8-.3.9-.5.9-.6 1.1-.4.3-.4-.2-.1-1.3-.1h-.7l-.6-.3s.1-.3-.4-.5.3-.4.3-.4l.6.3.4.3.5.4.8.1.7-.1 1.1-.5.5-.3.6-.2.4-.3-.5-.2-.3-.2.2-.3h1.1s.5-.2.6-.1c.1.1 0 .5 0 .5h.5l.3.2.3-.4.4.2.3.1h.3v-.3l-.2-.6-.1-.3.1-.2.4.4.2.1-.1.1.2.5h.4l.8-.3.9-.3h.3l.7-.5h.6l.6-.4.4-.4.1-.3-.5-.7.3-.3v-.6l.5-.3-.2-.2.7-.1.9-.4.8-.4-.3-.2h-.7l-.1-.3-.6-.2.7-.2-.9-.1h-.4l-.9-.2-.3-.1-.9.1-.3-.1-.6.7s-.6.1-.2.4c.4.3 0 .7 0 .7l-.2.1-.7.1-.5.3-1 .9-1.5.6-.6.7-.4-.1-1.1.4v-.4l-.4-.7.5-.7.4-.3.4.2.4-.4.3-.6-.9-.9-1.1.5-.6.6-.4.2-.8.6-.2-.3.7-.6-.1-.6-.3-.2 1-.1.4-.5h-.7l-.3-.2-.7.2-.3-.2-.7-.1 1.4-.6-.2-.3s-.3-.2.3-.1c.6.2 1 .1 1 .1v-.4h-.3l-.2-.6-.3-.3.4-.3.4-.6-.4-.6v-.2l-.7-.1-.5-.2-.9.2-.8.3.2.2-.4.4-.5-.2-.9.2-.1.2-.2.1-.6.4.1.4h.5l-.2.2-.5.1-.9.6v.6l.4.1.8.4.4-.2.2.2c.2.2 1 .1 1 .1v.2l-.6.2-.2-.1-.6.1.1.4.3.1v.3l-.4.3-.3.3-.8.2-.9.5-.6.3h-1l-.9.6.1.4-.3.3.1.3-.4.2-.4.4h-1v.5l-.4-.6 1.3-.1.2-.4-.6-.1v-.3l.3-.2h.1l1.2-1-.7.1-.3.2v-.3l-.3-.1-.1-.3-.5-.1-.3-.1-.2.3-.5.1-.5-.1.1.3h-.3l.1.5-.3-.4-.3.2.1.3-.7.1h-.7l-.8-.2h-1l-1 .1h-1.1l-1.1-.4-.1-.3-.6.2-.9-.1-.1-.4h-.5v-.3l-.5.1-1.2.2-.8.4-1.5.1-.1.3-.6.2v.4l-.3.6-.1.6h-.7l-.4.4v.5l-.6-1.2h.9l.3-.4-.8-.4.1-.4h-.7l-.4-.5-1.5.3h-.2l-1.3.2-1.1.1-1.8-.2-.7-.1-.5.1-.4-.2.7-.1.3-.3.4.1.2-.2h1.1l.4-.6-.6-.5-.9-.3h-.6l-.5.2-1.9-.3-.6-.4-1.6-.3-1-.7-2.2-.1-.8.5-.6.2h-1.1l.8-.5-.1-.1.4-.6-.9.3-.4.3-.6.2-.1.3-.5.1-.4.2-.4-.3-.2-.4.5-1-.4-.5-.6.3.1.3-1.1.3-.3.2-1.3.3-.3-.1-1.8.3-1.8.8v-.5h-.6l-1.1.4-1.1.3-.3.2v.2l-1 .1.5-.4 2.9-1h1.3l1.7-.5 1.4-.5-.3-.1-1.7.1-.9.4-2 .3-1.7.6-1.5.1.8-.4-.5-.2-1.1.3-1.7.4-.5 1-1.1-.4-1.9-.5-.6-.6-2.2-.2-20.9 17.4h2.4v2.6l2.9-1 2.1-.3-.5.8.3.9h61l-.1-.1zm9.6-17.1l.4.3-.4.3-.6.1-.3-.4.9-.3z" class="st3"/><path d="M268 54l-.1-.5h.2l-.1-.5-.2-.2v-.3l-.6-.2-.6-.6s-.6 0-.6-.3c0-.4-.4-.9-.4-.9l.3-.2 1.1.7.2-.5.6.7.6.3.3.3.6.1.3.1.6-.2.5.1v-.7l.4-.7.3.6.4-.4v-.5l-.2-.1.1-.3-.3-.2-.1-.4.5-.3-.5-.2v-.4l-.4.1-.2-.1v-.2l-.4-.1h-.3l.1-.3-.2-.3v-.7l-.9.1.3-.4-.3-.2.2-.3-.6-.3h.6l.3.2-.2.3.4.1.8-.2-.4-.4v-.5l.5.3.4-.2-.3-.3.7.1.2-.2.1.4h.4l-.2.4.4-.2v.3l.6-.1-.4.4h.7l-.5.5h.8l-.4.5.5.1.2.5h.4l.4.4.5-.4.1-.5.1-.4.3-.3.6.3.5-.3.6-.3V46h.5l-.3-.5.2-.2.5.1.8-.6.5-.1-.4-.5-.4-.1-.7.2h-1l.5-.4-.4-.2h-.6l.3-.4-.1-.4-.7-.1-.1-.3-.7.1-.1-.2-.6-.1-.2-.3-.3-.1-.8-.1-.1-.4-.7-.2-.6-.2 1.2-.3s.2-.3.2-.4c0-.1-.4-.3-.4-.3s.5-.2.9 0 1.1.2 1.1.2l.6-.2-.9-.5-.4-.2.9-.1.4-.1v-.4l-.3-.4-.3-.2-1.1.2.6-.5.3-.3-1.1-.2-.5.1h-.7l-.1-.3v-.4h-.2l-.1-.1.2-.6-1-.2-1.7.3-.5-.2-.1-.3v-.2l.1-.4-.5-.1h-.6l.5-.2s1.2-.3 0-.4c-1.2-.1-1.7-.3-1.7-.3l-.3-.1h-.5l-.8.2-.9.2-.1.2.6.4-.9-.1-.3.3-.2-.3-.3.2.1-.3-.2-.1h-.8l-.7.1-.4.4-.5-.1.6-.6 1-.4v-.4l.3-.4-.6-.2.5-.6s.7-.3-.5-.2c-1.2 0-2.2.2-2.2.2h-.8v.3l-.8-.1-.4.3-.5-.1-.3.2 1.1.4-1.4-.2-.5.1.8.4-1.1-.2-.6.4-.1.4.5.4h-.7l-.5.3-.6.2.2.5.7.2-.2.2-.4.2-.6.3h-.5l-1.1.2 1.9-.5-.8-.4-.1-.8.8-.6v-.4l.2-.3 2.1-1 1.5-.6-1-.2-1.7.1-2.5.5-1.8.9-.3.5-.8.3-.7.5-.8.8-.9.8 2.7.4.6.4-1.2.1-.5-.2H247v.8l.3.3.5.1.6.1h.6l.4-.2.1.1.3-.1v.4l.5.3h.5l.9-.1 1.2.2 1.1-.1.5.3h1l.1-.2.5.1.4.2-.1-.5h1.2l.7.1.4.2.8-.1.6-.1.1-.5-.6-.1.4-.2.3-.1.4.3.4.2h.6l-.3.6h.8v.6l.4.3.4.3v.4l.2.2.6-.1-.3.4.2.5h.6l.1-.4-.1.6.2.2h.4v.6l.2.2-.1.5v.5l-.4.3-.4.2-.7.2-.1.3 1.9.2.7-.6.7-.1.5.4.8.5-.7.4h-1.1l-1.2.4.4-.7-.3-.3-2-.3-.9.4-1 .4-.6.4.5.6-.1.6-.7-.2-1 .3h-.8l-.8.1-.3.1-1.4-.4-.6.1-.3.1v.3l-1.3.6-.4.4v.5l.5.2h.5l.3.2.3-.2 1.1-.1.5-.4 1.2.3.5-.3.4-.2.3.1v.3l.5-.2h.3l-.2.2.3.2.2.3.2.4.1.3.5-.1-.1.3h.8l.4.2-.7.4h-.5l.3.4.4.3h.5l-.1.2.5.2.5.2.5-.1h.4l-.3.3.2.3.5.3 1 .3h.5l.5.3.7.1.4.2h.7z" class="st3"/><path d="M267.6 33.3l-.9-.7-1.4-.2h-1.2l-1-.2-.9.7.3.3.2.1-.1.4.5.3 1.2-.2 1.3-.1 1.6.1h.4zm-.7-3.5l-1.7.5v.3l-.3.3-2.2.2-1.2-.2v-.4h-.3l-.1.2-.5.2h-1.9l-.7.1h-3l-.8-.1.3-.2.2-.2-.5.1-.9.2h-1.2l-.5-.1v-.3l-.4.3h-.4l-.5-.1.3-.6v-.2l.7-.3.7-.6v-.8l-.2-.3.7-.3 1.1.1.8-.2.9.3-.5.1 1.4.2v.2l-1.2.1h-.6l-.4.3h1.1l.1.2.3.2-.6.2.4.1.2.2.3-.3.3-.1.2.2h.8l.8-.1.5.4 1-.2.1-.1 2.3-.3.8-.2.6.2 1.1-.2 1.2.1.1.2h1.1l-.2.3h.6v.2z" class="st3"/><path d="M271.8 27.2l-.7.3-.7.3-1.4.2-2.2.3.4-.5h-1l-.4-.2-.6.3-.4-.1-.4-.1-.5.1-.3-.2-.5.2h-.7l-.1.3-1.5-.2-.3-.2-.5.2-.8-.1v-.1l-.4.2-.7-.1v-.3l-.8.3-.4-.1-.3-.2-.6.2-.2-.3.5-.1h.5l.1.2.5-.4 2-.4 1.4-.1h.5v-.2h-.7v-.6l.4-.2 1.1-.1h.7l.4.2-.1.4h.7l.4.2.6-.1h.6l1.2-.3-1.9.1-.4-.3.4-.2.6-.3.2-.3-1.1.3-.3-.3h-.8l-.5.2-.4-.1.7-.6 1-.3 1.2-.2h2.1l1.5.2-.7-.5-.3-.7-1-.3.4-.5.8-.3 1.9.1h.9l1.2.8.7-.1-1.1-.7 1.7-.3 2.3-.1 1.9-.1.4-.3-3.5.2-2.5-.1-.8.3-2.5-.1-.4-.1 1-.4-2 .4-1.6-.3.3-.3.2-.3-.8-.3-.9-.2 2.5-.2.9-.1 1.9-.1h.7l1-.1 1.2-.4 1-.1 1.1.3.3.2.6-.1 2 .2-1.8-.5 1-.2.3-.1 1 .1v-.3l2.2.2-1-.3.9-.2 2.1.2.9.5.5-.1-.9-.5 1.6-.1h1.6l1 .3v-.3h2.5l1.1-.1 2.3.2 1.6.1-1.7.3 2.3-.2.8.1.5-.3.5.3 1-.2.1.4 1.1.1.8.1-.5.3-1.8.3-2.4.3-3.8.1-.9.2 4-.1-3 .9-3.2.4-1.2.3-.6-.1v.4h-2.5l1.1.2-.1.3-2.3.2-.3-.2h-1.2l.8.2v.2l-1 .1-.8.1h-3l-1.4.5 2.6-.3 1.2.2-.5.2-1.6.1 1.1.2-.7.5h-.8l.5.2-1.1.3h-1.1l1.1.1-.5.3h-2.8l-.2.3-.2.3-1.2.4-1 .1h-1.3l-1.1-.4-.6.4 2.7.1.4.1-.5.3h1.3z" class="st3"/><path d="M258 26l-.6-.1-.7.1-.4.4.7.2.8-.1.3-.3zm9.1-3.1l-.4.1-.5-.4-.6.2.5-.6.2-.5h-.9l-.3.3-.6.1-.1-.3.4-.3h-.5l-.9-.1-.5-.7-1.3-.3h-.9l.6.3-1.4.2-.4-.1-1 .2.9.3v.1h-1.5l-.6.1-.7.3s.6.2.7.2h.7l-.7.1h-.9l-.8-.1-.1.3-.3.3.3.1h1.1l-1.3.3.2.3 1.3-.1.2.2 1.5-.3 1 .3-1.7.1-1 .1-.8.2.1.2.5.1v.3l.4.1-.3.3.3.1 1.2.2h.6l.1-.2.3.1.6.3.2-.6.3.5.8-.2.2-.2.3-.5.4.3.3-.2.4-.5.6-.2-.6.4 1.2-.2 1.2-.2 1.1-.1h.7l.4-.2-.2-.5zM254 25.8l-2.1-.1h-.4l-1.1.4.9.2h2l.6-.3zm-.5-1.3h-.9l-.2-.2-1.3-.3-.9.4-.4.2v.3l.6.2-.6.1.4.5 1-.3 1.9-.2v-.3h.5l.3-.1zm-.8-2.3l-.8-.1-.8.1v.2l.5.1.2.2.6-.1.2-.2zm-.3 5.1l-.4-.3-.5.1-1.1-.2h-.9l-1.1.2v.1l-.5.1.9.4v.3l.2.1h2.1s.3.2.3-.1c.2-.3 1-.7 1-.7zm-3.3 2.2l-.4-.4-1.2.1-.8.2-.3.1-.7.3-.9.3.8.3.7.3.5.1 1.5-.1.4-.4.3-.4zm1.5 2.5l-1.1-.3-1.1.2s.6-.2-.5-.3c-1-.1-1.2 0-1.2 0h-.8l-1.4.1.1.5h-.5l-.3.1-.8.6-.3.4-.3.2-.5.5s.7-.4.1.4-.2.9-.2.9l1-.1 1.3-.7v-.4l.6-.2.7.1h.9l1.8-.8 1.2-.5.9-.3.3-.2.1-.2zm-2.2-7.5l-.4.4.1.4-.6.2h-1.7l.1-.4-.8-.1-.6-.1-.3-.1h-.5l-1.1.1h-.6l-.1-.3.6-.2.6.2h.5l.3-.2V24l-.8-.1-.4-.3.4-.3h1l.8-.1.9.1.2.5.8-.1.4.1.3.4h.6zm-3.8 1.2l-1.1-.2-.1.3.2.1.7-.1zm1.4 1.8h-.8l-.2.1-.4.1-.6-.3h-1.6l.2.1v.3c.1 0 .3.1.3.1l.3.2s-.5-.2-.4.1c.1.3-.3.4-.3.4l-.6-.1v-.4l-.1-.2-.4-.1h-.7v.4l-.2.3h.4l-.4.2.2.1s-.2.3-.2.1c0-.2-.6-.4-.6-.4l-.5.2-.4.3-.8.2s.1.1.2.1h.8l.8-.1.8.1 1.9-.2-2.1.4-.3.2.6.1-.7.1.1.3h.6l.6-.1h1.6l.7-.3v-.3l.8-.1.4-.2v-.3l.7-.3.4-.6.2-.2-.3-.3zm-6.3.6l-.5-.1-1.2.1-.9.3.6.2 1.1-.2.6-.1zm-.8-.7l-.7.1-.5.4h1l.5-.1-.1-.3zm0-1.7l-.3.3-.1.5.4.1.8-.1-.2-.3s.4-.1 0-.3c-.4-.2-.7-.3-.6-.2zm2.6 6.4h-1.4l-1.1.2s-.3-.5-.6-.3-1.1.2-1.1.2h-.7l.1.5-.5-.2-.7.2.4.3 1-.1v.2l-.7.1v.3l-.5.3-1 .2-.4-.3-.1-.4h-.7l-1 .5v.2l.4.3v.3h.8l.4.6.3.3.2.4-.3.4.7.1 1.2-.3-.1-.5.5-.1-.1.3.5.1 1.2-.3.9-.5.4-.3-.1-.2.8-.2.2-.4h-.4l-.5.1.1-.5-1.2-.1 1.5-.6.7-.1v-.3l1-.1-.1-.3zm-5.3-2.5l-.5-.1-.8.2-.1.3h.8l.5-.2zm-.9-.9l-.4.4-1.5.6-1.6.4h-3.2l-1.3.2-1.2.2-1.9.4-2.2.2-.7-.4s-.6.2.8-.1c1.4-.3 2.8-.4 2.8-.4l1.9-.4-1.8.1-.8.1H223l.5-.4-1 .3-.9.2h-.4l-.4-.1-.4.2-.3-.2-.1-.2-.6.1h-.5l-.3-.2 1.5-.3h.8l1.8-.3-2.5.1.4-.2.9-.2h2l-1.9-.2.6-.3.9-.2h1.1l-.6-.2.5-.3h1.4l.2.4h.6l.7.1.4.3-.4.3h.5l-.1.4h.8l1.2.1h.7l.5-.3-.9-.2 1.2-.3-.6-.4.7-.3 1.9-.6.5.1-.4.4v.3l-.7.4.4.1.7.2.8-.3h.7l.4.4zm-.2-3.4l-1.6.3.1.3-.5.2-2.8.3-.4-.2-.3-.2 1-.6 4.1-.3zm1.4-.7l-.6.3h-1.4l-.4-.2-.9.2-1.6-.1.2-.2 1.6-.2 1.5-.2 1.5.2zm-9 2.6l-.3-.1-1 .1-.3.1h1.1zm-7.4 1.3l-1.5.2-1 .4.2.2 1.3-.3zm1.4-1.1l-1.5.4-.1.2-1.2.4-.1-.3-.7.3-1.4.4.1-.5-.8.5-.6-.3h-.9v-.2l2.6-.5 2.5-.7 2.2-.6 2-.1h1l.2-.3h.5l.7.1v.2l-1.4.3.3.3h-.7v.4l-1.5.2-1 .5-.9-.2.4-.3zm5.2 13.3l.3-.4.1-.6-1.1.3-.7.3.6-.5-.1-.4.5.2.7-.1.7-.5.5.4.4-.2.2.2.5-.1.4-.7-.4-.1-1.2-.8-.4.1-.7-.3v-.3l-.3-.3.9-.5.5-.4-.1-.6 1-1.5.1-.4.3.3 2.2-1.1-.4-.4-1.8.1-1 .3.7.4.1.3-.5.1-.7-.4-.4.2-.9-.3-.3.2-.2.1-1.3 1.4-.2.8-1.3.4-.2-.2 1-1.4-.7-.5-1.1-.1.5.5-.4.2-1-.2-1 .4-.7.1 1.5-.6-1-.4-1.1-.1-1.2.5-1.2.1 1.6-.8.2-.3-.4-.1-1.5.2-3.2.6-2.3.7v.3l-.3.1-2 .7v.3l1.2.1-.8.3.5.1.9-.1 2.3-.2-1.6.3-2.7.5-.7.3.2.3.1.2h3.9l1.4-.1 1.8.4.1.2-2.2.1h-2.2l-2.8.4-1.2.2.1.5.8.7 2 .1.5.1-.3.4-.1.5.1.4 3-.1 3-.3 1.2-.5 1.8-.2 1.2-.6h.7l.2.1-.4.2 1 .2.2.1.2.3h.9l1.7.3.9-.3z" class="st3"/><path d="M221.1 41.4v-.5h-1l-3.2.5-1.1.5.3.3 1-.1v-.2l1.7-.2 1.4-.3zm-6.1-9.9l-1.7.2-1.3-.7-4.5.1-.5.9.1.3-2.9 1.1v.3h-.7l-.8.6-1.7.6-.6.4h.8l.4.2c.4.3.4.8.4.8l-.1.4.1.1 2.4-.6h.8l1.7-.6 1.6-.8 1.2-.2 1.1-.5 3.4-.8 3.5-.7-.4-.5-.7-.6-.9-.2-.7.2zm19.9 9.4v-1l-1.2-.8-.9.3-.8.4-.2.2-1.4.4-.5.4.9.1 1.9.5h1.2zm8.5 5.9l-1.4 1.7-.9.7-.1.5-2.3.8.3.3 1.6-.3.5-.1v.3l-.6.7.7.2 1.1-.5 1.4-.6 1.4-.8.5.2.4.1-.1.6h.9l.8.4 1.4-.6-.4-.7-1.4.1.7-.7-.2-.5-.8-.3-.7-.6h-.6l-.4-.5-.7.4v-.5l.4-.5-.5-.3zm1.7 5.2h-1.9l-1.2 1.1.1.3 1.4-.3 1.9-.8.1-.2zm2.7 1l-.9.5-.3.7.4.3 1.2-.9.4-.3-.3-.3zM261 41.8l-1.9 1-.7.9h1.8l1.8-.5v-.5l.4-.6zm375.2 6.1l.3-.3c-.2-.1-.5-.2-.7-.4-.1-.1-.2-.3-.3-.4-.4-.3-.9-.3-1.4-.4.5 0 1 .1 1.5.2h1.3l-1.2-.4c.4 0 1 .2 1.4.1-.2-.9-1.6-1.1-2.3-1.3-.9-.3-1.8-.7-2.8-.7-.6 0-1.3 0-1.9-.2-.4-.1-.7-.2-1.1-.3l-1.2.1s1 .3 1.4.4c.4.1 1.1.8 1.1.8l.4.3c-.4-.1-.7-.3-1.1-.4-.5-.1-1.1-.1-1.5-.5-.5-.4-1.1-1.1-1.7-1.2-.6-.1-1.1-.4-1.6-.5-.8-.2-1.6-.4-2.3-.6-1.9-.5-3.8-1.1-5.7-1.7l-5.7-1.2-4.5-.5-3.6-.1-3.7-.1.7.6 1.3.5 1.4.9-1.3.3-1-.6-1.9-.3-1.7-.9 1.9.1-.1-.3-2-.3-.6.9-2.7-.3-1.8-.2-3 .3 1.3 1.4-1.9-1.1-2.7-.8-1.4-1-4.3-1c-2.9.2-6 1-8.7-.3-1.4-.6-2.8-.5-4.3-.8.2-.1.5-.3.8-.4-.5-.2-1-.4-1.6-.5-1-.2-2.2-.1-3.2-.1v.7l-2 .1.6-.7-2.8-.1.7-.4-5.7-.4v.3l-1.7.5 3.7 1.4-3.3.1.7.5-3.7-.8-1.7.3-3.2-1 .6 1.1v.8l-3.2-.5-3.9-1.7h1.8l-.9-.7-1.2-.1v-.4l-2.7-1.1h-2.1s-.6 0-1.9-.3c-1.2-.3-1.9 0-1.9 0l1.2 1.3-1.4-.2h-4.2l-2-.6v-.3l-3.4-.2h-1.4l-1.4.2.1.4-1.7-.8-.7.1-2.2.1-1.9.5-1.2.3h-1.6l-.7.6.3-.9 1.4-.3 1.7-1 1.6-.9 1.3-.9-.8-1.1-3.7-1.1-.9-.1-3.5-.2h-.8l-.3.3H501l.5-.8H500l-2.7-.1 2-.5-4-.4-1 .5-.5.7.9.7 1.6.3-4-.4 1.5.8h-4.7v-.2l-3 .2v.2l-2.4.3-3.3 1-.7.2 1.1 1.7v.2l-1.9.4h-5.1l-.7.4.2.3.8.7v.3l2.2.8 1.6.6v.3l-1.1.1-2.8-.7-2.2-.3h-1l.1-.4s.5-.5-1-.2c-1.4.3-.6.5-.6.5l2.3.7-.5.1-1.1-.3-1.1.2s-1.6.2 1 .6c2.6.4 4.1 1 4.1 1l-1 .1-1.1-.5h-1.7l-1.3-.3-.6-.5-.3-.9-.5-.7-1.3-.5-1.2-.4 1.2.7s.8.2 1.1 1c.3.7-1.3.5-1.3.5l-.5.7.8.4 1.8 1.2-.3 1.1.9.6.3.8h1.6l1.4-.3 2.5.7 1.2 1.1-.4.2.3.4 2.2.6-1.7.1-1.2-.4-.6-1.5-1.1-.6-3.2.4v.4l1.1 1.3-.4.6v.5l-1.3 1.1-.1.4-.5.2-2.3-.1-2.5-.8h3.5l1.3-2v-1.3l-2.2-1.2-1.2-3.1-2-1.1.6-.6v-1.2l-1.3-.5-2.6-.2H459l-.1 1.1-.3 1.2-1.2 1v.3l1 .3.5 1-.2.2v.4l2.5 1.2 1.4.5-.4 1.2-2.3-1-4.2-1.2-3.2-.5-2.5-.1-.7.3 1.5.9v.5l-.9.3v.4h-1.1l-.2-.7-.9-.3-2.5.7-2.8.5-1.2-1-1.3.3-1.5.3-4.5 1.7v1.2l-1.6.2s-1.9-.4-2.5-.9c-.7-.5.7-.7.7-.7l1.4-.2-1.1-1.1H428l-.8-.3 1.4 1.4-.1 1.2.7.5.1 1.6-.9-.1-.4-.3-1.1-.3h-.2l-1.8 1.2-1.3.7v.3l1.4 1.4s-.2-.2-.9-.1c-.6.1-2-.3-2-.3l-1.2-.2-1.1-.4-.8.5s.8 1 1.5 1c.8 0 1.2.8 1.2.8l-1.2.3-1.3-.4-1.2-.7-1-.2-.8-1.4-.5-.3.7-.8-1.4-.8-1.6-.8-1.5-1 1.2.1 1.4.6 2.1.5 2.7.5 2.5.4 2.2-.6 1.1-1.1-.1-.4-.9-1-2-.6-2.2-1.1-4-1.2h-2.3l-.6.2-1.7-1h1l-1.4-.6-1.3.7-2.3.9-.3 1.5 1.2.5.9.6v.4l-1 .9v.3l1.7 2-.1.3-.3.6.1.9.6.2v.7l.8.3-.5 1 1.3.7.9.6v.5l-.8.9-2.4 2.1-1.4.8-.4.4 1.3-.4-.1.4.8.6h1.2l.5.5-1.3-.2-.6.4-.4-.1-.3.4-.5-.3c0 .6-.1 1-.3 1.6-.1.2-.1.4-.2.5h174l.5-.6 4.3-.3h4.5l.7-.9 2.3.6 1.2-.4 1.1.4v.7h4.3l1.4-.4-1.2-.5-1.2-.3c-.3-.1-.1-3.2.1-3.5.9-1.5 2.1-.9 3.6-.5l.6-.4c.2.2.4.5.7.8.2.3.4.7.7.9.2.1.7.1 1 .2.1.2.1.5.2.7 0 0 .6-.3.6-.4.1-.1.2-.4.2-.5.5-1.2.8-1.6-.4-2.6 1.4-1.6 3.7 1.8 4.3 3-.3-.6-1.9 3-1.8 3.5 0 .2.1.3.1.5h4.7c-1.3-2.3-.5-1.7 1.3-1.9 0-.2-.1-.4-.2-.6-.1-.1.8-.6.9-.6.1 0 .2.1.4.2.3.3.6.6 1 .9v-.3l.1-.9s1.6-.2 1.7-.2c1.4-.2 2.7.7 4 1.2-.2-.3-.2-.8-.4-1.1.9-.6 1.1-1.6 1.4-2.5 1-.2 2.7-.9 2.7-1.9.3.1.7.2 1 .3.9.2 1.9.3 2.8.5.1 0-.1-.7-.3-.8-.3-.2-.7-.1-1-.4-.1-.1-.2-.3-.3-.4-.2-.1-.4-.2-.6-.2-.7-.2-1.2-.4-1.7-1-.6-.6-1.5-.7-2.2-1v.4c-.5-.2-1-.3-1.5-.6-.3-.2-1.1-1.1-1.4-.3-.2-.1-.6-.1-.7-.2-.2-.2-.4-.5-.6-.8.2.2 1 .4 1.3.4.4.1.8.2 1.3.2.6.1 1.2.1 1.8.1.3-.3.5-.5.7-.9l-.5-.5c-.1.1-.3.1-.5.1.6 0-.4-.7-.5-.7-.4-.2-.8-.4-1-.8.3-.2.8-.3 1.1-.4-.3.3.9.9 1.1 1.1.5.3 1 .7 1.7.6.5-.1 1-.3 1.5-.3s.9.3 1.4.4c.6.2 1 .3 1.5.6.4.3.8.4 1.3.4 1.1.1 2.2.6 3.2.9h1.2c0-.5-.7-.7-1-.9zm-244.1-7.7c.1 0 0 0 0 0z" class="st3"/><path d="M409.2 38.5l-1.9-.7-1.3-.1-1 .5.4-.8-1.2-.1-.9.9-.3-.2v-.4l-1.1.9-.6.5-.1-.6.9-.8h-.5l-.6.1-.9.1-.4.5-1 .1.1.7-.6-.2-1.9-.2.6.4v.3l-.9-.1-.5.2-.6.6v-.6l-.8.3-.9.1-.2.3h-.4v.3l-.4-.2c.1.1 0 .2-.4.4-.6.3-.6.7-.6.7l-.9.2-.6.4 1.3.2-1.4.2-.5.1-.8.2v.1l.4.1-.9.3-.2.4.8.1-1.1.4.1.4-.6.3-1.1.6-.3.6-.5.6-.9.4-.6 1.1-1 .6.1.5h-.5l-1.1.5-.6.6-.1.2v.5l-.8.2v.1l-.9.2-.5.6h-1l-.7.2.2.4.2.2h-1.3l-.5.5-.6.4h-.9l.1.3v.4l-.4.2.4.3-.2.6.4.3h-.5v.9l.7.1.1.1-.8.3.3.3.4.1-.4.3.1.4h.4l-.7.5.2.5h.8l.1.2-.1.2h6.5l.4-.3.1-.6h.3l.1.5.6.3v.1h.6l.2-1 1.5-1.8-.7-1.1.6-.2.5-.6-1.1-.5.1-.8-.8-1 .8-1v-1.3l1.4-.7h1.2v-.5l-.6-.5 1-1.1.1-1.5 1.1-.4.9-.9.6-.4v-.4l-.2-.3.5-.6.8-.5.9.1.4-.3v-.4l.6-.4 1.6.4.5-.1v-.9l.4-.4 1.3-.4 1.8 1.1 1.8-.2 1.3.2 1-.7v-1l1-.6 1.7-.2 1.8.6.1.4 1.6-.4-1.8-.5 1.6-.3.8-.2z" class="st3"/><path d="M398.6 37.8l-1.7.3 1 .3zm-7.2 2.4l-.9.1-.1.4h.6zm-2.4 1.1l-1.3-.2-.7.9-.7.3 1.4-.2 1.5-.8m21 9l.5-1-.7-.3-.1-.8-.7-.1v-.9l.3-.9-1.7-2V44l1-.9-.1-.4-.9-.6-1.1-.5.3-1.4-.2-.5-1.8-.7-1.7.3-.9.5v1l-1 .7-1.3-.2-1.8.2-1.8-1.2-1.3.5.7.5 1.6.5 1.8.8 1 2.4-.1.9.7.9 1.5.6.2 1.2-3.9 2.5-1.6 1.7.8 1.8v2l1.8 1.2 1.8.3 3.5-.9 2.4-.2 1.4-.4.1-.5-1.3.3.4-.4 1.2-.8 1.1-1 1.4-1.2.7-.9v-.5l-.8-.6z" class="st3"/><path d="M400.3 45l-.3-.5-.4-1.2-.3-.7-1.8-.8-1.5-.5-.8-.5-.3.3-.1.9-.5.1-1.6-.3-.7.3v.5l-.4.2-.9-.1-.7.5-.5.6.3.3v.4l-.6.4-.9.9-1.1.5-.1 1.5-1 1.1.5.5v.5l-1.2.1-1.4.7v1.2l-.8 1.1.8.9v.9l1 .5-.4.5-.6.3.7 1-.7.9-.7.9-.2.9h9.7l.5-.2.1-.3.9-.8-.3-.8-1-.7-1.4-.4-.2-1.4.6-1.4-.5-.5.8-.2.2-.5-.3-.3.8.1.3-.5 1.2-.6 1.8-.8.6-.8.7-.3-.9-.3.2-.7.7-.7.9-.5v-.4h2.4l-.7-.9z" class="st3"/></g></switch></svg>
