<svg xmlns="http://www.w3.org/2000/svg" version="1.0" viewBox="0 0 67.39 164.47"><path fill="#d0e7c4" stroke="#669866" stroke-width=".25" d="M54.27 61.76l1.09 2.43 3.79 1.76 2.02 2.28-.59 1.59.84 1.52 2.27 1.26.92 1.85-.41 2.27-1.6 3.45v1.35l-3.37 1.93-5.3 1.43-4.96.76h-3.54l-1.51-.76.59 1.69 1.01 1.09.67 1.01v1.18l-.59.34.26 1.42-.34 1.02 1.68 1.51-.17 1.35-2.27.84-3.2.33-1.51-.75-2.86-.93-.42-.51-1.01.43-.26 1.09 1.52 2.44.5 1.52.17 1 2.78.93.25.84 1.85-.17-.5-.67 1.26-.59 1.51 2.27v.93l-1.68.59-1.77-2.02-2.1 1.09v.51l2.86 1.17-1.68.85-1.09 2.1 1.26 2.44v.67l.17 1.18-.93 1.18.84 1.17-2.1.34-1.18.93-1.43.16-.76 2.19-.08 2.61 1.6 2.02 1.59.75 1.35 1.27 2.44.33.68-.08 1.43.67.67 1.77-.42.76-.34.42 1.01.25.08.67-3.19 3.45-1.35 1.85.93 2.87v1.34l-1.1.76-1.09-.34.5.67-1.68.76v1.35l.51 1.17.5 1.52 1.43 1.85 2.02 2.27 1.68 1.18-3.36-.51-6.06-.84h-4.38l-2.52-2.18-1.77-3.96-1.51-.42-2.27.17-2.7-3.11-1.34-3.2 2.19-2.69-.42-1.52.42-1.43-1.43-1.51v-1.85l.75-1.43-.5-1.94.33-1.26-1.26-2.02v-1.26l-.92-1.51 1.09-1.6-1.77-1.35-2.18-.84 3.19-.76-.5-1.34-2.19-.17-.67-2.1-.67-1.52-1.35-1.68-.34-.93-1.26-.5-1.26-4.04 1.09-.51-1.34-2.44-1.6-3.78v-2.52l-.59-1.02.17-1.26-.59-1.09.59-2.02-.51-1.6 1.69-1.26v-.59l-1.69-2.78-1.09-1.84-.51-2.11-.84-2.27.93-1.85 1.51-1.77-1.51-3.62V64.1l1.09-2.01-.84-1.94-.59-2.78-1.01-.92-.25-1.68-1.94-3.37L0 48.79v-2.1l.25-3.28 1.01-1.52-1.01-3.44L0 37.1l.59-.84.08-2.61 1.35-3.2 1.09-4.2 1.68-.59v-.59l-1.43-2.36.34-1.43-1.09-3.79.42-1.68-.67-1.34.5-1.6 3.87-2.02.76-5.05-.62-1.57L11.08 0l2.02.9 4.59.33 1.8 2.47L20.61.78l2.24-.22 2.81.78 4.71 5.05 3.37 2.02.33.9 4.38 1.68 4.73 2.61 4.13 1.77 2.02 1.57.22 1.79-1.4 4.25-.95 3.49 6.06 1.35 3.47.45 1.58-.68h.55l1.35-1.79 2.58-1.35.04-5.55 2.54-.73 1.85 3.7.17 4.04-3.87 2.69-5.89 6.9-4.37 6.9.11 10.1.89 3.02-.78 1.01-.11 1.24zm-9.43 91.69l4.71 9.59 4.38.59 3.96.84 1.84-.67 2.53-.09-.17-1.17-2.19.16-4.54-1.68-3.37-1.85-3.28-1.93-1.09-1.01-1.01-.51v-1.34l-1.94-1.44z"/></svg>
