<svg xmlns="http://www.w3.org/2000/svg" version="1.0" viewBox="0 0 24 24"><switch><g><path fill="#804715" d="M7.2 21.4c-.2-.5-.4-.9-.3-1.4s1-.8 1.2-.3c-.1-.8-.3-1.6-.1-2.4.2-.8 1-1.5 1.9-1.5.6 0 1.1.3 1.7.3.6.1 1.3-.3 1.2-.8 0-.3-.4-.5-.5-.8-.4-.7.2-1.5.8-2.1 1.4-1.5 3-3 5.1-3.5.4-.1.9-.2 1.3-.4.6-.3.8-.9 1.2-1.4.4-.5 1.2-.8 1.7-.4.2-1.2.4-2.5 0-3.7-.5-1.2-1.8-2.2-3.2-1.9-1.4.3-2.1 1.8-2.5 3 .2-.6.5-1.2.3-1.8-.2-.6-.9-1.1-1.5-.9-1.1.5-.2 2.3-1.1 3-.7.6-2 .1-2.9.6-.4.3-.6.8-.7 1.3-.3 1.2-.3 2.4-.7 3.6-.4 1.2-1.4 2.3-2.7 2.5 0 .4 0 .9-.1 1.3-.8-.2-1.6-.3-2.5-.3.3 1-.4 2.1-1.4 2.6-.1.5 0 1 .2 1.4-1.4 1.2-3.9 4.2-1.8 5.4 1.3.7 6.1.6 5.4-1.4z"/></g></switch></svg>
