<svg xmlns="http://www.w3.org/2000/svg" version="1.0" viewBox="0 0 58.5 57.2"><switch><g><path fill="#40C4F2" d="M.8 50.2l2.9.8h1.8s-.3 1.7 1.5 2.5 4.6 1.9 4.6 1.9l5.1 1.8s10.1-1.8 15.1-2.8c5-1 11.2-1.8 11.9-2.2.7-.4 3.5-1.2 3.5-1.2l1.9-2.1 1-1.9 1.4-1.1s-.6-5.1-1-8.2c-.4-3-.7-4.8-1.1-5.1-.4-.3-1.2-2.5-1.2-2.5s.6-1.7-.7-5.4c-1.2-3.7-3.7-6.5-3.7-6.5s-2.2-10.7-5-13.1C36 2.6 30.5 1.1 28.6.7 26.7.3 20.4-.5 17.5.7c-1.8.8-4.2 4-5.3 5.7-1.1 1.7-3.6 4.3-4.4 5.5-.9 1.2-2.5 9.2-2.8 11.2-.3 1.9-1.2 3.7-1.2 3.7L2.2 28 .8 30.1v.4l.7.1 1-.6-1.7 4.2s-.7 0-.8 1.1c-.1 1.2.8 14.9.8 14.9z"/><path fill="#3A86C7" d="M17.1 56l-.1-4s-5.1-27.2 1.5-32.8c6.5-5.6 12.1-4.6 15.3-4.6 3.2-.1 9.9 2.8 10.9 3.9s3.5 9.6 3.5 9.6v8.1c0 1.6 1.3 7.5 1.1 8.7-.1 1.2-1.5 4.8-1.5 4.8s-1.4 1.8-1.7 1.7c-.3-.1-16 1.5-16.3 2.6-.3 1-9.2 1.9-9.2 1.9l-3.5.1z"/><path fill="#126996" stroke="#126996" d="M17.9 52s-.8.4-.8 0-3.5-24.6.4-31.3c3.9-6.6 8.4-5.4 10.5-5.9 1.5-.4 4-.2 5.4-.1.6.1.9.1.9.1s-11.2.5-13.3 3.1c-2.1 2.6-5.1 5.1-4.4 17.8.7 12.8 1.3 16.3 1.3 16.3z"/><path fill="#126996" stroke="#126996" d="M48.2 29.6s-1.7-8.8-3.7-10.4c-1.9-1.6-9.5-3.5-12-3.4-2.5.1-8.2 1.2-9.4 1.9-2.3 1.4-3.9 4-4.3 5.5-.4 1.5-1.1 5.4-1.2 9.3-.1 3.9.8 15.1 1 16.2.1 1.1 1.2 2.1.3 2.6l-1 .6s-1.7-22.3-.9-25.6c.8-3.2 2.4-8 4.1-9 2.2-1.4 7.9-2.3 10.1-2.6 2.2-.4 5.2.4 8 1.3 0 0 3.1.9 4.4 1.7 1.3.7 2.1 1.7 2.6 2.6.5 1 2.2 6.2 2.1 6.7-.1.5-.1 2.6-.1 2.6z"/><path fill="#D3D7D9" stroke="#BCBDBF" d="M13.1 47.3l3.1-3.4h1v1.7l-2.6 2.9s.4 1.6-.9 2.4c-1.3.8-2.8.1-3.1-.5-.3-.6-.3-1.8 0-2.2.3-.4 1.2-.6 1.5-.6.4 0 1-.3 1-.3z"/><path fill="#1F97BB" d="M43 17.4s-1.9-5.3-2.4-7.8-1.4-3.7-3.2-4.7C35.8 3.8 31 2 29.7 1.8c-1.3-.2-6.9-1.9-9.5-.9-2.6 1.1-5.6 2.1-6.5 4-.9 1.9-3.2 10.4-3.4 13.2-.2 2.8.2 9.5 0 12.3-.2 2.8-.2 8.4 0 10.7.2 2.3.9 6.5.9 6.5l-.9 1.7-.1-.7s-.6-14.5-.8-21.8c0-1.9-.1-3.3 0-3.8.2-2.4 1.3-10.3 1.4-12.7C11 8 13.4 4 15.1 2.5l.5-.5s2.6-1.6 1.2-1c0 0 2.3-.9 3.7-1 1.4 0 5.1.2 6.2.3 1 .2 4.7 1 5.7 1.4 1.1.4 3.3 1.3 4.2 1.9.9.6 2.3 1.5 2.9 2.5.6 1 1.6 3.2 1.9 4 .3.9 1.4 4.7 1.5 5.1"/><path fill="#1F97BB" d="M5.8 27.7c-.4.3-2.5.9-2.5.9l.4-1.8s1.4-.6 2.7-.8c1.3-.2 3-.8 3-.8v1.6s-1.1 0-1.5.1c-.3 0-2.1.8-2.1.8z"/><path fill="#3A86C7" d="M8.9 33.3s-4.2.1-6.2.5C.8 34.3 0 35.4 0 35.4l.8 14.4s4.1 1.4 4.7 1.2c.6-.2 1.3-.9 1.7-1.2.4-.3 2.1-2.2 2.1-2.2l-.4-14.3z"/><path fill="#1F97BB" d="M46.1 51.3s-.1 0-.3-.1c-.4-.1-.9-.2-.9.1 0 .4-2.6-.1-3 0-.4.1-3.4.6-3.9.8-.5.2-5 .7-5.6.9-.6.2-5.8 1.5-6.7 1.5-.9 0-6.9 1.3-7.3 1.5-.4.2-3.6-.5-4-.8-.5-.3-1.5-1.7-1.5-1.7l-6.5-2.3-.9-.2s-.9.8.5 1.8c1.4.9 6.6 3.1 8.4 3.7 1.8.6 3 .7 3.4.6.4-.1 17.4-3.2 20.2-3.7 2.8-.5 5.1-.9 5.7-1.1.6-.3 2.4-1 2.4-1z"/><path fill="#3A86C7" d="M0 52l.6 3.8 8-1.8-2.5-1.2-.8-.8zm48.3-2.2s.5.9 1.8.8c1.3-.1 5.1-.8 5.1-.8s.6-.2.7.4c.1.6-.9 2-.9 2l-.5.7s-4.4-.8-4.9-.8h-1.4l-.9-.6.4-1 .6-.7z"/><path fill="#D3D7D9" stroke="#BCBDBF" d="M1.1 29.3s-.5.5-.4.9c.1.4.5.7.9.4.5-.3.8-.5 1.1-.8.2-.3.4-.2.5-.7.1-.5.8-2.4 1-2.5.2-.1 1.1-1.2 1.1-1.2l.7-1.2-.5-.6s-.8.8-.8.9c0 .1-.8 1.7-.9 1.9-.1.1-1 1.3-1.1 1.3-.1 0-1.3 1.3-1.3 1.3l-.3.3z"/><path fill="#126996" stroke="#126996" d="M46.8 51l.4-.8c.2-.3.4-.7.8-.9.1 0 .3-1.3.4-1.4.7-.9.9-3.2.9-3.2l-1.1-4.2v-9.9l-.1-.6s1.4 4.1 1.2 6.7c-.1 2.6.7 6.4.7 6.4v3.8L46.8 51z"/><path fill="#D3D7D9" d="M5.9 22.5S8.8 10.4 9.1 10c.4-.3 1.1-1 1.1-1L6.9 23.2l-1-.7z"/><path fill="#D3D7D9" stroke="#BCBDBF" d="M6.5 22.5s-.5-.4-.8 0c-.2.4-.4.7-.3.9.1.2.3.4.4.5.1.1.4-.1.5 0 .1.1.2-.2.2-.4v-1z"/><path fill="#D3D7D9" stroke="#A5A5A6" d="M6.5 22.5s.7-2.2 1.6-7c.9-4.8 1.4-5.8 1.4-5.8"/><path fill="#C7C6C1" d="M23.9 35.7s.7-.6 1-.9c.3-.3.8-.9.9-1.4.1-.6.2-.9 0-.9s-.5.3-.7.5c-.2.2-.8.7-.8.7s.5.1.5.4c0 .3-.6 1.2-.6 1.2l-.3.4z"/><path stroke="#000" d="M24.3 31.5s1.8-2.8 2.7-3.8c.9-.9 2.4-1.8 2.4-1.8s0 .5-.3 1.3-1.3 2.5-1.7 3.1c-.4.6-1.5 1.8-1.5 1.8l-.2.3-1.4-.9z" opacity=".12"/><path fill="#A4A3A0" stroke="#777676" d="M23.8 34s1.1-.9 1.2-1.1l.5-.5-1.3-.9s-.6 1.3-.8 1.7c-.1.4-.2.5-.2.5l.6.3z"/><path fill="#AB1F24" stroke="#AB1F24" d="M27.2 27.5l1.3.9.2-.3-1.2-.8zm-1.4 4.6l-.2.3-1.3-.9.2-.3z"/><path fill="#F4DE05" stroke="#AB1F24" d="M28.4 26.6c.1 0 .7.5.7.5s.6-1.1.3-1.2c-.2-.1-1 .7-1 .7z"/><path stroke="#000" d="M29.4 25.9s-2.1 1.9-2.7 2.7c-.6.7-2.1 3.1-2.1 3.1l-1.2 2.1-.1-.1s.7-1.7 1-2.2c.3-.5 1.7-2.6 2-2.9.2-.3.8-.9.8-.9s.8-.6.9-.8c.1-.1.9-.8.9-.8l.1-.1.4-.1z" opacity=".12"/><path fill="#C7C6C1" d="M23.8 33.3l.6-1.2c.1-.1.3-.4.3-.4s-.4-.4-1.1.1c-.7.5-1.2 1.3-1.3 1.6-.1.3-.4.8-.4.8s.8-.9 1.1-1.1c.3-.1.5-.1.5-.1l.3.3z"/><path stroke="#000" d="M29.3 26s-1 2.3-1.4 2.9c-.8 1.4-2.6 3.3-2.6 3.3l-1.7 1.7.2.1 1.8-1.6s1.8-2.2 2-2.5c.2-.3 1-1.8 1.2-2.1.1-.3.8-1.6.6-1.7-.1-.1 0-.2-.1-.1zm-5.5 7.3l-.2-.2c-.1 0-.2-.1-.4 0-.3.2-.9.7-1 .8-.1.1-.3.4-.3.4s.8-1 1.1-1.1c.2-.1.7 0 .7 0l.1.1zm.9-1.6s-.3.4-.5.8-.4.7-.4.7l-.1-.1s.2-.2.4-.7c.2-.5.5-.8.5-.8l.1.1z" opacity=".12"/><path stroke="#000" d="M21.9 34.3s0-.1.6-.8c.6-.6.6-.7.8-.6.2.2.5.3.5.3h-.1l-.5-.1-.6.4-.7.8zm2.4-.7s.5.1.4.4c-.1.3-.8 1.7-.8 1.7l.6-.8c.3-.4.4-.8.4-1-.1-.2-.3-.5-.3-.5l-.3.2z" opacity=".12"/><path fill="#49C0BE" stroke="#49C0BE" stroke-width=".25" d="M41.4 45.9s1.3-.6 2-1.2 2.1-4.2 1.4-4.5c-.7-.4-3.1-.7-3.5-.7-.5-.1-3.6.6-3.8.9-.2.3-.2 3.7.4 4.1.6.3 2.8 1.3 2.8 1.3l.7.1z"/><linearGradient id="a" x1="39.968" x2="44.021" y1="41.994" y2="41.994" gradientUnits="userSpaceOnUse"><stop offset="0" stop-color="#f3e906"/><stop offset="1" stop-color="#74bf44"/></linearGradient><path fill="url(#a)" stroke="#000" stroke-width=".25" d="M40 41.1l3-.8s1 2.4 1 2.7c0 .3-3.2.8-3.5.6-.3-.2-.5-2.5-.5-2.5z"/><linearGradient id="b" x1="40.127" x2="43.789" y1="42.038" y2="42.038" gradientUnits="userSpaceOnUse"><stop offset="0" stop-color="#f3e906"/><stop offset="1" stop-color="#74bf44"/></linearGradient><path fill="url(#b)" stroke="#000" stroke-width=".25" d="M40.1 41.3l2.7-.7s.9 2.2.9 2.4c0 .2-2.9.7-3.2.6-.1-.3-.4-2.3-.4-2.3z"/><path fill="#49C0BE" d="M44.7 28.9c.4.3 1.4 2.5 1.3 3.4-.1 1 .1 3-.1 3.6-.1.7.1 1.3-.6 1.6-.7.4-2.4 1.2-3.2 1.2-.9 0-3.8-.5-4.3-.8-.6-.3-1.3-.6-1.5-1.1-.3-.4-.3-1.8-.3-1.8s-1.1-3.7-.2-4.8c.8-1 3.7-2.4 5.1-2.6.2 0 .1-.1.3-.1 1.6.1 2.9 1 3.5 1.4z"/><path fill="none" stroke="#49C0BE" stroke-width=".25" d="M36 35s-1.1-3.7-.2-4.8c.8-1 3.7-2.4 5.1-2.6.2 0 .1-.1.3-.1 1.6.1 2.9 1 3.5 1.4.4.3 1.4 2.5 1.3 3.4-.1 1 .1 3-.1 3.6-.1.7.1 1.3-.6 1.6-.7.4-2.4 1.2-3.2 1.2-.9 0-3.8-.5-4.3-.8-.6-.3-1.3-.6-1.5-1.1-.3-.4-.3-1.8-.3-1.8z"/><circle cx="41.9" cy="29" r=".1" fill="none"/><path fill="#FFF" stroke="#33A7A4" stroke-width=".25" d="M46 35.1s-.1 0-.4.3c-.3.3-1.3.6-3.8.9-2.9.3-5.7-1.3-5.7-1.3s-.1 1.5.1 1.9c.1.4 2.3 1.3 3.3 1.6 1.1.3 2.7.4 4.4 0 .8-.2 1.9-.8 2.2-1.2 0-.4-.1-2.2-.1-2.2z"/><path fill="none" stroke="#020303" stroke-width=".25" d="M47.7 42.2s1.1.3 1.3.4"/><path fill="none" stroke="#BEC3C3" stroke-width=".25" d="M37.4 35.6v2.2m1.3-1.8s-.1.9-.1 1.3c-.1.4 0 .9 0 .9m1.4-1.9l-.4 2.3"/><path fill="#F8FBF6" stroke="#BEC3C3" stroke-width=".25" d="M42.4 36.2l-.3 2.5-.1.1"/><path fill="none" stroke="#BEC3C3" stroke-width=".25" d="M43.4 36.1v2.5m.9-2.6l.2 2.1"/><path fill="#F8FBF6" stroke="#BEC3C3" stroke-width=".25" d="M41.5 36.3l-.5 2.4"/><circle cx="39.1" cy="33.1" r=".3" fill="#050506"/><g fill="#6ABC45"><circle cx="41.3" cy="27.9" r=".2"/><circle cx="41.4" cy="28.5" r=".2"/><circle cx="41.6" cy="29.5" r=".2"/><circle cx="41.7" cy="30.2" r=".2"/><circle cx="41.7" cy="31" r=".2"/><circle cx="41.7" cy="31.8" r=".2"/><circle cx="41.7" cy="32.6" r=".2"/><circle cx="41.7" cy="33.4" r=".2"/><circle cx="41.7" cy="34.2" r=".2"/><circle cx="41.8" cy="35.1" r=".2"/><circle cx="41.8" cy="36" r=".2"/></g><circle cx="43.5" cy="32.9" r=".3" fill="#050506"/><path fill="#E82929" stroke="#050506" stroke-width=".25" d="M39.4 41.7c0 .2-.1.3-.3.3H39c-.1 0-.3-.1-.3-.3 0-.1.1-.3.3-.3h.2c.1.1.2.2.2.3z"/><path fill="#6CBD45" stroke="#050506" stroke-width=".25" d="M39.5 42.8c0 .2-.1.3-.3.3H39c-.1 0-.3-.1-.3-.3 0-.1.1-.3.3-.3h.2c.1.1.3.2.3.3z"/><path fill="#F05926" stroke="#050506" stroke-width=".25" d="M39.6 43.9c0 .1-.1.3-.3.3h-.2c-.1 0-.3-.1-.3-.3 0-.1.1-.3.3-.3h.2c.2 0 .3.1.3.3z"/><path fill="#49C0BE" d="M38.8 26c.1 0 .2.1.2.2s-.1.2-.2.2h-.3c-.1 0-.2-.1-.2-.2s0-.1.1-.2c0 0 .1-.1.2-.1h.2z"/><path fill="none" stroke="#090A0A" stroke-width=".25" d="M39 26.3c0 .1-.1.2-.2.2h-.3c-.1 0-.2-.1-.2-.2s0-.1.1-.2c0 0 .1-.1.2-.1h.3s.1.1.1.3z"/><path fill="none" stroke="#000" stroke-width=".25" d="M41 27.6s-.2-1.2-.5-1.3c-.2-.1-.2-1-.2-1l-.4-.8"/><path fill="none" stroke="#000" stroke-width=".25" d="M40.6 26.3s-.2.1-.5 0c-.3 0-.2-.2-.4-.2-.1-.1-.2 0-.3 0h-.5"/><path fill="none" d="M36.1 35s0 .1 1.4.6c.8.3 2 .6 3.9.6 3.4 0 4.3-.9 4.7-1.2"/><path fill="none" stroke="#020303" stroke-width=".25" d="M36.1 37s2.6 1.8 5.3 1.8c2.9 0 4-1.2 4.4-1.5"/><path fill="none" stroke="#BEC3C3" stroke-width=".25" d="M45.2 35.7l.2 2"/><path fill="#99CB56" stroke="#000" stroke-width=".25" d="M37.3 49.6s.6.1 1.3 0c.7-.1 1.1-.2 1.2-.2.1-.1 0-1.6-1.2-1.7-1.2-.1-1.4 1-1.4 1.2.1.3.1.7.1.7z"/><path fill="#009050" stroke="#23110E" stroke-width=".25" d="M38.3 47.8s0 .1.2.1.3 0 .3-.1c.1 0 .1-.1.1-.1s-.3-.1-.4-.1c0 0-.2.1-.2.2z"/><path fill="#F7F7F8" stroke="#000" stroke-width=".25" d="M37.3 49.7s0 .4.1.4c.1.1 1.1 0 1.3 0 .3 0 1.2-.2 1.2-.2l-.1-.6s-.9.2-1.2.2c-.8.1-1.1 0-1.2 0 0 .1-.1.1-.1.2z"/><path fill="none" stroke="#000" stroke-width=".25" d="M39.7 49.4l.1.6m-.4-.5l.1.6m-.3-.5v.5m-.4-.5l.1.6m-.4-.6l.1.6m-.5-.5v.5m-.4-.5v.4"/><path fill="#009050" stroke="#23110E" stroke-width=".25" d="M37.5 49.6s.4-1.1 1-1.2c.6-.1 1.4.9 1.4 1 0 0-1 .2-1.3.2-.4.1-1 0-1.1 0z"/><path fill="none" stroke="#11AC5D" stroke-width=".25" d="M37.3 49.1s.2-.7.4-.9c.2-.1.2-.1.2-.2"/><path fill="none" stroke="#11AC5D" stroke-width=".25" d="M37.3 49.4s.2-.7.4-.9c.2-.1.2-.2.2-.2m1.1 0s.5.2.6.4l.3.6v.1"/><path fill="none" stroke="#11AC5D" stroke-width=".25" d="M38.9 48s.3 0 .4.1c.1.1.2.3.2.3.1.1.2.3.2.4"/><path fill="none" stroke="#4B7639" stroke-width=".25" d="M38.6 48.5s.6-1 1.1-.9c.5 0 .6.1.2.5-.4.3-.8.5-1 .6-.2 0-.6.1-.6.1s-1.5 0-1.4-.5c.1-.5.3-.6.6-.5.3.1.5.4.7.6.2.1.2.2.3.2-.1-.1.1-.1.1-.1z"/><path fill="none" stroke="#4B7639" stroke-width=".25" d="M38.4 48.6l-.1-.1c0-.1.1-.1.2-.1 0 .1.3 0 .1-.1-.2.1-.3.1-.2.3 0 .1.2 0 .1-.1 0-.1-.2.1-.1.1l.1-.1"/><path fill="#99CB56" stroke="#000" stroke-width=".25" d="M42.3 49.4s.6.1 1.3 0c.7-.1 1.1-.2 1.2-.2.1-.1 0-1.6-1.2-1.7-1.2-.1-1.4 1-1.4 1.2.1.2.1.7.1.7z"/><path fill="#009050" stroke="#23110E" stroke-width=".25" d="M43.3 47.5s0 .1.2.1.3 0 .3-.1c.1 0 .1-.1.1-.1s-.3-.1-.4-.1c0 0-.2.1-.2.2z"/><path fill="#F7F7F8" stroke="#000" stroke-width=".25" d="M42.3 49.4s0 .4.1.4c.1.1 1.1 0 1.3 0 .3 0 1.2-.2 1.2-.2l-.1-.6s-.9.2-1.2.2c-.8.1-1.1 0-1.2 0 0 .2-.1.2-.1.2z"/><path fill="none" stroke="#000" stroke-width=".25" d="M44.7 49.2l.1.6m-.4-.5l.1.5m-.3-.5v.6m-.4-.5l.1.5m-.4-.5l.1.5m-.5-.5v.5m-.4-.5v.5"/><path fill="#009050" stroke="#23110E" stroke-width=".25" d="M42.5 49.4s.4-1.1 1-1.2c.6-.1 1.4.9 1.4 1 0 0-1 .2-1.3.2h-1.1z"/><path fill="none" stroke="#11AC5D" stroke-width=".25" d="M42.3 48.8s.2-.7.4-.9c.2-.1.2-.2.2-.2m-.6 1.4s.2-.7.4-.9c.2-.1.2-.2.2-.2m1.1.1s.5.2.6.4l.3.6v.1"/><path fill="none" stroke="#11AC5D" stroke-width=".25" d="M43.9 47.8s.3 0 .4.1c.1.1.2.3.2.3.1.1.2.3.2.4"/><path fill="none" stroke="#4B7639" stroke-width=".25" d="M43.6 48.2s.6-1 1.1-.9c.5 0 .6.1.2.5-.4.3-.8.5-1 .6-.2 0-.6.1-.6.1s-1.5 0-1.4-.5c.1-.5.3-.6.6-.5.3.1.5.4.7.6.2.1.2.2.3.3-.1-.2.1-.2.1-.2z"/><path fill="none" stroke="#4B7639" stroke-width=".25" d="M43.4 48.4l-.1-.1c0-.1.1-.1.2-.1 0 .1.3 0 .1-.1-.2 0-.3.1-.2.3 0 .1.2 0 .1-.1 0-.2-.2.1-.1.1l.1-.1"/><radialGradient id="c" cx="1258.585" cy="-1528.206" r=".958" gradientTransform="matrix(.3312 0 0 .3324 -380.774 539.83)" gradientUnits="userSpaceOnUse"><stop offset="0" stop-color="#fff9f7"/><stop offset="1" stop-color="#43c1cb"/></radialGradient><ellipse cx="36.1" cy="31.9" fill="url(#c)" stroke="#000" stroke-width=".25" rx=".2" ry=".4"/><radialGradient id="d" cx="1258.628" cy="-1524.992" r=".959" gradientTransform="matrix(.3312 0 0 .3324 -380.774 539.83)" gradientUnits="userSpaceOnUse"><stop offset="0" stop-color="#fff9f7"/><stop offset="1" stop-color="#43c1cb"/></radialGradient><ellipse cx="36.1" cy="32.9" fill="url(#d)" stroke="#000" stroke-width=".25" rx=".2" ry=".4"/><path fill="#807F7F" stroke="#080707" stroke-width=".25" d="M40.4 41.5l2.3-.6s.8 1.8.8 2c0 .2-2.4.6-2.6.5-.3-.2-.5-1.9-.5-1.9z" opacity=".28"/><linearGradient id="e" x1="42.202" x2="45.068" y1="29.423" y2="29.423" gradientUnits="userSpaceOnUse"><stop offset="0" stop-color="#89d1d5"/><stop offset=".167" stop-color="#8ed3d6"/><stop offset=".357" stop-color="#9bd7da"/><stop offset=".557" stop-color="#b2dfe1"/><stop offset=".765" stop-color="#d2eaea"/><stop offset=".977" stop-color="#faf7f6"/><stop offset="1" stop-color="#fff9f7"/></linearGradient><path fill="url(#e)" d="M43.8 29.4c-1.4-1.1-1.2-.6-1.6-1 0 0 .8.1 1.8 1 .6.5.9.9 1 1.2"/><linearGradient id="f" x1="53.912" x2="55.255" y1="492.417" y2="492.417" gradientTransform="scale(1 -1) rotate(11.672 2676.504 165.42)" gradientUnits="userSpaceOnUse"><stop offset="0" stop-color="#89d1d5"/><stop offset=".167" stop-color="#8ed3d6"/><stop offset=".357" stop-color="#9bd7da"/><stop offset=".557" stop-color="#b2dfe1"/><stop offset=".765" stop-color="#d2eaea"/><stop offset=".977" stop-color="#faf7f6"/><stop offset="1" stop-color="#fff9f7"/></linearGradient><path fill="url(#f)" d="M42.7 44.6c-.6.6-.7.6-.6.7 0 0 .4-.1.7-.6.2-.3.3-.5.4-.6"/><linearGradient id="g" x1="-91.106" x2="-88.228" y1="234.644" y2="234.644" gradientTransform="matrix(-.4083 .382 .5609 .5995 -130.252 -64.77)" gradientUnits="userSpaceOnUse"><stop offset="0" stop-color="#89d1d5"/><stop offset=".167" stop-color="#8ed3d6"/><stop offset=".357" stop-color="#9bd7da"/><stop offset=".557" stop-color="#b2dfe1"/><stop offset=".765" stop-color="#d2eaea"/><stop offset=".977" stop-color="#faf7f6"/><stop offset="1" stop-color="#fff9f7"/></linearGradient><path fill="url(#g)" d="M37.9 41.7c-.1-1.2.1-.8.1-1.2 0 0-.3.4-.2 1.3.1.5.2.9.2 1.1"/><path fill="none" stroke="#E82429" stroke-width=".25" d="M40.8 43.3l.4-1 .6.4v-1.1l.7.5.1-.9.5.7"/><radialGradient id="h" cx="1285.014" cy="-1502.28" r=".807" gradientTransform="matrix(.3312 0 0 .3324 -380.774 539.83)" gradientUnits="userSpaceOnUse"><stop offset="0" stop-color="#fff9f7"/><stop offset="1" stop-color="#43c1cb"/></radialGradient><ellipse cx="44.8" cy="40.5" fill="url(#h)" stroke="#000" stroke-width=".25" rx=".2" ry=".3"/><path fill="none" stroke="#000" stroke-width=".25" d="M44.8 40.4s.5.6.8.5c.3-.1.6.4.6.6 0 .2.8.2.8.2l.1.7.7-.1.4.4"/><radialGradient id="i" cx="1263.039" cy="-1501.77" r=".807" gradientTransform="matrix(.3312 0 0 .3324 -380.774 539.83)" gradientUnits="userSpaceOnUse"><stop offset="0" stop-color="#fff9f7"/><stop offset="1" stop-color="#43c1cb"/></radialGradient><ellipse cx="37.5" cy="40.6" fill="url(#i)" stroke="#000" stroke-width=".25" rx=".2" ry=".3"/><g fill="none" stroke-width=".25"><path stroke="#000" d="M34.2 42.5l.5-.2.2-.7.6.2s.3-.7.5-.6c.2.1.7 0 .8-.3.1-.3.8-.5.8-.5"/><path stroke="#020303" d="M34.7 42.4s-.7.8-.9 1"/></g><radialGradient id="j" cx="-1057.318" cy="-1574.164" r=".807" gradientTransform="matrix(.1314 .2349 -.2888 .1628 -273.349 550.088)" gradientUnits="userSpaceOnUse"><stop offset="0" stop-color="#fff9f7"/><stop offset="1" stop-color="#43c1cb"/></radialGradient><path fill="url(#j)" stroke="#000" stroke-width=".25" d="M42.4 45.6c-.2.1-.3.1-.4 0 0-.1.1-.2.2-.3.2-.1.3-.1.4 0 .1.1 0 .2-.2.3z"/><radialGradient id="k" cx="-2433.653" cy="-176.029" r=".806" gradientTransform="matrix(-.0939 .2524 -.3103 -.1163 -243.143 639.29)" gradientUnits="userSpaceOnUse"><stop offset="0" stop-color="#fff9f7"/><stop offset="1" stop-color="#43c1cb"/></radialGradient><path fill="url(#k)" stroke="#000" stroke-width=".25" d="M39.9 45.6c-.2-.1-.3-.2-.3-.3 0-.1.2-.1.4 0s.3.2.3.3c0 .1-.2.1-.4 0z"/><path fill="none" stroke="#020303" stroke-width=".25" d="M40.1 45.5s-1 2.2-1.6 2.3"/><radialGradient id="l" cx="-1450.56" cy="-1112.63" r=".806" gradientTransform="matrix(.0081 .3324 -.3311 .0081 -315.33 530.753)" gradientUnits="userSpaceOnUse"><stop offset="0" stop-color="#fff9f7"/><stop offset="1" stop-color="#43c1cb"/></radialGradient><ellipse cx="41.3" cy="39.6" fill="url(#l)" stroke="#000" stroke-width=".25" rx=".3" ry=".2"/><path fill="none" stroke="#000" stroke-width=".25" d="M41.2 38.8l.1.8"/><path fill="none" stroke="#4B7639" stroke-width=".25" d="M43.5 48.2s.8-.8 1.2-.8c.4 0 .2.2-.2.4-.3.3-.7.4-.8.5-.2 0-.5.1-.5.1s-1.3 0-1.2-.5c.1-.4.2-.5.4-.4.3.1.6.4.7.5l.2.2h.2zm-5 .3s.8-.8 1.2-.8c.4 0 .2.2-.2.4-.3.3-.7.4-.8.5-.2 0-.5.1-.5.1s-1.3 0-1.2-.5c.1-.4.2-.5.4-.4.3.1.6.4.7.5l.2.2h.2z"/><path fill="none" stroke="#020303" stroke-width=".25" d="M42.3 45.4s.9 2 1.4 2.2"/><path fill="none" stroke="#4B7639" stroke-width=".25" d="M38.5 48v.4m4.9-.6v.4"/><path fill="#49C0BE" d="M40.1 24.3c.1 0 .2.1.2.2s-.1.2-.2.2h-.3c-.1 0-.2-.1-.2-.2s0-.1.1-.2c0 0 .1-.1.2-.1h.2z"/><path fill="none" stroke="#090A0A" stroke-width=".25" d="M40.3 24.5c0 .1-.1.2-.2.2h-.3c-.1 0-.2-.1-.2-.2s0-.1.1-.2c0 0 .1-.1.2-.1h.3c0 .1.1.2.1.3z"/><path fill="#69BC46" d="M28.4 22.2l-.7-.4-.8.4.2-.8-.6-.6.8-.1.4-.8.4.8.8.1-.6.6z"/><path fill="#F4EA11" d="M28.9 41.6l-.8-.4-.8.4.2-.9-.6-.6.9-.1.4-.7.3.7.9.2-.7.6z"/><path fill="#C3E7F2" d="M35 28.3l-.7-.4-.8.4.2-.9-.6-.6.8-.1.4-.7.4.8.8.1-.6.6z"/><path fill="#ED4294" d="M30.5 52.2l-.8-.4-.7.3.1-.8-.6-.6.9-.1.4-.8.3.8.9.2-.6.5z"/><path fill="#FFF" d="M43.4 24.3l-.7-.4-.8.4.2-.8-.6-.6.8-.1.4-.8.4.8.8.1-.6.6z"/><path fill="#69BC46" d="M20 31.7l-.7-.4-.8.4.2-.9-.6-.6.8-.1.4-.7.4.7.8.2-.6.6z"/><path fill="#F4EA11" d="M37 21.1l-.7-.4-.8.3.2-.8-.6-.6.8-.1.4-.8.4.8.8.1-.6.6z"/><path fill="#C3E7F2" d="M47.5 47.6l-.7-.4-.8.4.2-.8-.6-.6.8-.1.4-.8.4.8.8.1-.6.6z"/><path fill="#ED4294" d="M22.3 25.1l-.7-.4-.8.4.2-.8-.6-.6.8-.1.4-.8.4.8.8.1-.6.6z"/><path fill="#FFF" d="M23.5 47.6l-.7-.4-.8.4.2-.8-.6-.6.8-.1.4-.8.4.8.8.1-.6.6z"/></g></switch></svg>
