<svg xmlns="http://www.w3.org/2000/svg" version="1.0" viewBox="0 0 39 25.9"><switch><g><path fill="#CB9866" stroke="#996733" stroke-miterlimit="10" stroke-width=".25" d="M39 7.3L27.1 5.5 1.3 6.7l-.6 6.5L34 11.5z"/><path fill="#CB9866" stroke="#996733" stroke-miterlimit="10" stroke-width=".25" d="M.1 23.9c0-2.6-.2-5.3 0-8 .2-2.8-.1-6.5 1.2-9.2 3.2.1 6.2 1.1 9.5 1.1 2.9.1 6.5-.3 9.8-.4 1.6 0 3.1.1 4.4 0 2.1-.1 2.5.1 4.5.2 2.5.2 7.1 0 9.5-.4.4 4.9-3.6 11.3-.3 15.9l-10.1 2.7L.1 23.9zm28.5 2s-3.3-10.7-1.5-18.6"/><path fill="#996733" d="M10.8 7.8c2.4-3.5 4.9-5.8 6.7-6 1.6-.2 2.7-.1 3.3.3 1.2.9 0 3.2-.7 4.6l-.3.6 1.2.2.3-.6c.9-1.8 2.1-4.2.5-5.4-.9-.6-2.4-.8-4.5-.6-3 .4-6 4.2-7.6 6.5l1.1.4zm21.6-1.5c1.1-1.3 2-3.8.6-5.3-.5-.5-1.4-1.1-3.3-1-3.5.1-6.2 4-6.5 5.6l1.3.1c.4-1.6 3-4.8 5.3-4.9 1 0 1.7.2 2.2.6 1 1.1.3 3.3-.7 4.4l1.1.5z"/></g></switch></svg>
