<svg xmlns="http://www.w3.org/2000/svg" version="1.0" viewBox="0 0 220 129"><switch><g><linearGradient id="a" x1="-.429" x2="220.429" y1=".744" y2="128.256" gradientUnits="userSpaceOnUse"><stop offset="0" stop-color="#22205f"/><stop offset=".022" stop-color="#28316e"/><stop offset=".073" stop-color="#34538a"/><stop offset=".129" stop-color="#3e71a2"/><stop offset=".191" stop-color="#4788b6"/><stop offset=".262" stop-color="#4d9bc5"/><stop offset=".346" stop-color="#52a7d0"/><stop offset=".456" stop-color="#54afd6"/><stop offset=".693" stop-color="#55b1d8"/><stop offset="1" stop-color="#57b6dd"/></linearGradient><path fill="url(#a)" d="M0 0h220v129H0z"/><path fill="#FFF" stroke="#D1ECF2" d="M85 26.4c2-1.7.3-3.1-3-2.6-.2-1.2-1.3-1.6-3.1-1.4.5-2.2 1-3.6-2.2-4.9-1.7-.7-6.8-1.5-6.7 1.4-1.7-.3-2.3-.3-3.8.3-1.3-1.8-7.6-2.9-7.6-.1-2-.2-2.9 1-1.4 2.1-1.7.1-2.4.9-2.2 2-3.3-.7-4.6.6-7.4 1-2.4 2.8 1.4 2 3.8 2.5 2.8.5 5.3 2.3 8.4.1.4 1.6 9.5 3.6 10.8 1.5 1.6.9 2.9.7 3-.9 1.9.8 4 .7 4.8-.8 1.8 1.9 5.2.8 6.6-.7"/><g fill="#FC3"><path stroke="#CA9731" d="M19.6 5.6c.8-.1 1.3 1.3 2.6.8.9-.4 1.7-2 1.8-2.7.7.8.2 2.6 2.1 2.1 1.1-.3 1.7-2.1 2.4-2.8 0 2.3 0 2.8 1.9 4.2 1.9 1.5 3.6.4 5.3-1-.3.8-.6 1.7-.7 2.5-.1 1.4.3.9 1 1.6 1.1 1 .3.8 1.9.7.8 0 1.4-.2 2.2-.3 0 1.3-1.6 2.2-1 3.5 1.1 2.2 4.9.5 6.6 2.3-1.1 1.1-3.5 2.1-3.5 3.8 0 .8.7 1 .8 1.6.1.7-.3 1.1-.2 1.8.1.6 1.1.8.6 1.5-.2.3-1.5.2-1.9.6-1.4 1.4.3 3 1.6 3.2-1.9.3-2.9 1.1-2.5 2.7.4 1.6.7 2.9.4 4.7-1.1-.5-1.9-1.1-3.2-1.1.2 1.8.3 2.8-.5 4.5-1-.6-1-1.5-2.3-1.6-.6 0-.4.5-1 .6-.4.1-.9-.1-1.3 0-1.8.6-2 2.8-2.1 4.3-.5-1.3-1.6-3.6-3.5-2-1-1.3-1.8-.1-2.8.2-1.1.4-2.2.3-3.3.3-.2-2.7-4.3-.5-5.5-.2.2-.7.6-1.8.3-2.4-.4-1.2-1.6-1.1-2.7-1.4.2-3.6-4.9-4.6-7.9-4.3.9-.6 2.2-1.6 2.7-2.5.7-1.3.2-1.7-.6-2.9 1.9-2-.3-3.8-1.3-5.8 2.8-.1 3.5.2 2.3-2.4-.8-1.7-2.1-3.1-2.9-4.7 2.6-.3 4.5 1 2.8-2.5 1 .3 2.7.7 2.6-.9 2.1-.5 2.1-1.8 2.4-3.6 3.1 2.3 4.2-.2 3.7-2.8.6.3 3.1 3.3 2.7.5" opacity=".25"/><ellipse cx="25.2" cy="23.5" rx="15.1" ry="14.7"/></g><path fill="#FFF" stroke="#98CBCB" d="M23.2 105.1c1.4.4.7-1.5 2.3-1.3 0-.6.3-.9.9-1.3-1.5-.8-2.2-3.7.6-3.6-.3-1.6 3.7-2.3 5.3-2.1 2.5.3 3.3 2.3 5.8.2.7-.6.6-1.5 1.5-2.1.4-.3 1.2-.3 1.5-.4.6-.3.9-.8 1.5-1.3 1.5-1.2 6.4-1.9 7.1.4 1.7.1 4.3.9 2.8 2.4 2.1.1 1.9 3.7 1.3 4.8 1.3 0 4-.4 3.7 1.2 1-.7 3.2-.8 3.5.5 1.5 0 2.9-.4 3.3 1.2.3 1.3-.6 1.6-2.2 1.5 1.3.1 1.7 1.2 1 2-.7.7-2 .3-2.8.6-1.4.5-1.9 1.3-3.7 1.6-.4.1-.9-.4-1.5-.3-.5.1-1 .9-1.7 1.1-1.1.3-5.7.5-6.8.2-.8-.2-1.3-.8-2.1-1-1.2-.3-2.5.3-3-1-1.3 0-3.3-.9-4-.7-.5.1-.7 1.2-1.3 1.5-.5.2-1.5 0-2.1 0-1 .1-2.5.6-3.8.2-.5-.1-.9-.8-1.3-1-.5-.2-1.2-.3-1.7-.6-1.1.8-3.1.7-4.3.5-1.1-.2-4.1-1.1-1.9-2.1-.3-.1.8-1.5 2.1-1.1z"/><path fill="#CCCBCB" d="M57.7 102.2c.9-.2 2.8.1 2.5 1h-.3c1.9.7-1 1.3-1.8 1.3 2 .6-.6 2.9-2.7 1.6.1.7-.7.5-1.2.7-.9.3-1 .7-2.1.6-.3 0-.6-.1-1-.1h-1c-.7-.1-1.6-.1-1.6-.8-1-.1-.9-1.9-.9-2.4-1.2 0-2.7 1.8-3.8.6-.5.7-2 .6-2.4-.1-.7.7-2.7 2.1-4.1 1.8-.1.1-.1.2-.1.3-.1 0-.3.1-.4.1v.4c1.8-.1 3.3.9 5.1.9-.3 1 1.3.7 1.9.7 1 .1 1.3.5 2.1.9 1.4.6 3.6.5 5.2.3.8-.1 1.8-.1 2.4-.4.9-.5.6-.9 1.7-.9.9 0 1.3.2 2.2-.1.7-.3 1.2-.7 1.9-1.1.9-.5 2.6-.2 3.3-.9 1.2-1.1-1.7-.9-1.5-1.7.2-.7 2.4-.1 2.6-1.2.2-1.1-1.8-1.1-2.9-1.1-.5-1.1-2.5-1.1-3.5-.6m-25.9-4.8c-2.1 0-3.7 1.4-1.2 2.4-1.1-.1-1.8.4-1.8 1.2.1.9.8.9 1.8 1.2-.4.3-.5.7-.2 1-.4.2-.6.5-.5.9-.7-.1-2.1-.3-1.7.7-1.1-.2-1.1.7-.8 1.2-.3.1-4.2-.5-2.4.9 1 .7 3.3.2 3.8-.7-.4 1.7 3.1 1.6 4 .6.1 1 2.3.8 3.2.6 0 .7.8 1.1-.2 1.5-.7.3-1.9.1-2.7.1-.9.1-1.6.3-2.4-.2-.7-.3-1.2-.7-1.9-1-.2-.1-.7-.4-1-.5-.6-.1-.4.1-.9.2-.9.2-1.7.3-2.7.2-1.4-.1-4-.5-2.5-1.8.6-.5 1.2-.7 2-.8 1.3-.1.7-.1 1.6-.8.2-.2.8-.3.9-.4.2-.2.1-.5.3-.7.5-.6 1.2-.5.9-1.2-.3-.6-1-.8-.8-1.7.2-.8.8-.8 1.3-1.3.4-.4.4-.9 1.1-1.3.7-.4 1.6-.5 2.4-.5m18.5-3.3c1.3.1 2.2 1.6.6 1.9 1.7.3 1.8 2.7-.2 2.7 0 .4.1.8-.1 1.1.1-.2-.8.7-.7.6-.6.4-1.9.7-2.6.2-.7.9-2.7.7-3.1-.2-.3 1.3 2.7 2.1 3.9 1.4.7 1.5 3.7 1.4 3.7-.3 1.9.1 2.6-.9 2.5-2.2 0-.5 0-1.2-.2-1.7-.3-.6-1-.8-1.5-1.2 1.5-1.1 0-2-1.6-2.2" opacity=".28"/><path fill="#1B335E" d="M139.1 14.6s13.7 3.9 17.6 18.1c3.9 14.2-.5 24.6-2 27.9-1.5 3.3-4.9 9.1-7.2 12.2-2.3 3.1-6 8.5-8.5 10.9-2.4 2.4-7.8 6.7-7.8 6.7l-4.4 8.6h-14.5c-.8 0-2.4-5.2-3.8-6.2-1.3-1-2.8-2.9-2.8-2.9S88.2 73.3 83 61.7c-5.2-11.6-6-23.8-2.9-29 3.1-5.2 2.1-7.2 7.3-11.7 5.2-4.6 10.6-6.4 10.6-6.4s3.4-2.6 6.5-3.3c3.1-.7 7 0 7 0s1.5-1.1 2.6-1.3c1.1-.2 2.5-.8 4.1-.7 1.6.2 6.1 1.3 6.1 1.3s2.3-.3 4.9-.2c6.2.4 9.9 4.2 9.9 4.2z"/><path fill="#4069B1" stroke="#4069B1" d="M156.3 31.7s-2.9-2.1-4-2.1-3.4-.3-3.4-.3.7-1.6-1-2.2c-1.6-.6-6.5-3.1-9.8-2.6-3.3.5-5.8 1-6.2 1-.3 0-7-5.2-11-4.9-4 .3-11 1.1-11 1.1s-5.4-1-10.3.8-8.4 5.9-8.4 5.9-2.9 1-5.1 1.3c-2.3.3-4.9 2.9-4.9 2.9L79 35.4s2.9-6.6 3.3-7.4c.4-.8 2-3.5 2-3.5s2.2-1.2 4-1.1c1.7.1 4.2.5 4.2.5s.4-1.8 3.8-3.3c3.4-1.6 3.4-1.9 6.4-2.1 2.9-.2 6.5 0 6.5 0s2.8-1.5 5.6-2.1c2.8-.5 3.3-2.3 4.7-1.3 1.5.9 4.9 1.6 6.1 1.8 1.2.3 4.6 1.4 4.6 1.4s1.8.6 2.4.4c.6-.2 1.2-1.5 4.1-.7 2.9.8 3.1.9 4.8 1.5 1.7.6 2.5.9 3.3 1.1.8.2 1 .7 1.4 1.7.5.9 2 1.2 2.6 1.3.7 0 3.4.2 3.4.2s1.2 1.6 2 3.1c.9 1.4 2.1 4.8 2.1 4.8z"/><path fill="#EECC2C" stroke="#EECC2C" d="M84.3 24.5s3.1-1.3 4.9-1.1c1.8.2 3.2.6 3.2.6s-.3-1 2.4-2.8c2.6-1.8 6-2.4 7.8-2.6 1.8-.2 3.9-.5 5.4 0 1.5.5 1.6-.8 3.8-1.3 2.1-.5 5.7-1.7 8.2-1.3 2.4.3 7.7 1.5 7.7 1.5l2.6 1 1.7.5s2.6-1.3 4.7-1c2.1.3 6.2 2.1 7.3 2.2 1.1 0 2.8 3 2.8 3s1.5.4 2.8.4 2.7.2 2.7.2-4.8-5.3-5.8-5.7c-1-.4-4.2-2.1-4.2-2.1l-3.2-1.3s-3.6-2.9-7.2-3.7c-1-.2-3.1-.4-4.3-.4-1.1 0-3.3.2-3.3.2s-3.3-1.4-6.1-1.3c-2.8.1-6 1.1-6 1.1s-5.6-.1-8.3 1c-2.7 1.1-7.3 3.6-7.3 3.6s-2.1.7-3.8 1.8c-1.8 1.2-4.3 2.9-5 3.4-2.1 1.6-3.5 4.1-3.5 4.1z"/><path fill="#4069B1" stroke="#4069B1" d="M91 73.6s1-1.6 1.2-2c.3-.4-.2-1.4 1.4-.7 1.6.7 3.4.3 5.2 1.3 1.2.6 3.1 0 3.1 0s1.1 1 3.2.9c2.1-.1 5.5.2 6.6.1 1.1-.1 2.8-1 2.8-1s2 0 4.3-.8 6-2 6.5-2 3.2-1 3.3-1.2c0-.2 3.5-.6 5.2-.5 1.6.1 3.8.4 4.3.2 1.3-.6 1.1.5 2.6.1s2.3.6 4.1 1.3c1.8.7 2 1.5 2 1.5l1.3 1.2s-2.3 3.6-3.7 5.5c-1.4 1.9-5.1 6.3-5.1 6.3l-4.1 3.7-3.7 3-1.6-1.6s-4.1-.2-5.2-.2c-1.1.1-7 .5-7 .5s-4.2-.5-5-.3c-.8.2-1.1.3-2.4.3h-2.1l-1.2 2s-5.4-5.4-8.3-8.6c-2.9-3.2-5.6-6.3-5.6-6.3L91 73.6z"/><path fill="#469585" stroke="#469585" d="M85.7 66.6s.8-.6 1.4-1.4c.6-.9 1.5-1.6 2.3-2.1.8-.5 3-1.1 3.5-1.6s2.6-.8 2.6-.8l.5-1.3s1.5-1.1 2.8-1.8c1.3-.7 3.8-1.1 4.6-1.3.8-.2 5.2.5 6.5 0 1.3-.5 2.4-1.5 2.4-1.5s3.4-.3 5.9-.4c2.6-.2 8.3 1.2 9.1 1.3.8.2 2.6.5 2.6.5s5.8 1.8 6.7 2.3c1 .5 3.4 1 4.7 1.1 1.3.2 2.6.8 2.6.8s2 1 3.9 1.6c2 .6 2.9 2.1 2.9 2.1l1 1.7-3.9 6.3s-1.9-2.2-2.6-2.5c-.7-.3-4.8-1.6-4.8-1.6s-1.5-.1-3.9 0-5.9-.1-7 0c-1.2.1-1.3.3-3.9 1.3-2.5 1-3.5 1.4-4.2 1.7-.7.3-4.8 1.5-5.3 1.5s-1.8-.3-1.8-.3-4.1 1.5-4.6 1.5h-4.6l-2.3-.5s-3.4-.8-4.3-.9c-.9-.1-4.4-1-5.2-1.3-.8-.2-2.6 2.7-2.6 2.7l-5-7.1z"/><path fill="#BC3627" stroke="#BC3627" d="M158 49.7s.5-2.4-3.4-3.7c-3.9-1.3-6-2.8-6.7-2.8h-2.4s-2.6-1.7-7-1.7c-4.4-.1-7.3 0-7.3 0S125 39 121 39.2c-4 .2-10.1 2.3-10.1 2.3s-8.2.1-11.8.8c-3.6.7-6.8 4.4-6.8 4.4s-9 1.6-10 2.5c-1 .9-3.9 2.9-3.9 2.9s.3-8 0-9.5.3-6 .3-6l.8-2.2s2.4-2.5 3.6-3.2c1.2-.8 4.8-1.7 5.7-2 .9-.3 2.6-.8 2.6-.8s1.6-2.3 4.6-3.9c3-1.6 5-2.4 6.3-2.6 1.3-.2 3.9-.4 4.9-.4 1 0 2.9.3 2.9.3s1.6-1.3 3.4-1.8c1.8-.5 6.6-.7 7.6 0s5.6 2.2 6 2.5c.4.2 3.4 2.1 3.4 2.1s.4.3 1.6.6c1.2.3 4.5-1.1 7.5-.6 3 .5 4.2.8 5.7 1.4 1.5.6 3.9 1.5 3.8 2-.2.5-.2 1.4.8 1.5 1 .1 3.8.5 4.5.9.7.4 2.1 1.4 2.1 1.4s1.2 3.9 1.6 6.2c.3 2.3.5 6.3.5 6.3l-.6 5.4z"/><path fill="#EECC2C" stroke="#EECC2C" d="M151.8 65.7s1.5-2.7 2.8-5.1c.4-.7.7-1.4 1-2 1.1-2.5 1.9-5.5 1.9-5.5l.6-5.1s-5.7-2.8-7.2-3.5c-1.5-.7-3-1.3-3-1.3h-2.4s-4.1-1.7-7-1.7h-7.3s-4.3-2.6-8.7-2.3c-4.4.3-9.9 1.7-10.8 2-.9.3-5.3-.1-7.5.3s-4.6 0-6.9 1.3c-2.3 1.3-5.1 3.8-5.1 3.8s-5.8-.5-7.9 1c-2.1 1.5-5 2.6-4.9 3.1.1.5-1.1 1.4-1.1 1.4s1.6 4.9 3.1 8.5c1.5 3.6 4.3 6 4.3 6l2-2.2s3.4-2 4.3-2.5c.9-.5 3.5-1.3 3.5-1.3s2-2.8 4.2-3.5c2.2-.6 5-.9 6.3-.9 1.3.1 3.9-.1 3.9-.1l2.4-1s2.2-1.3 5.9-1c3.7.3 5.7.6 7.4 1 1.7.4 4.3.8 4.3.8s.6.2 2 .6c1.5.5 5.2 1.9 6.2 2.1 1 .2 4.1.7 5 1.1.9.4 4.8 2 4.8 2l2.9 2.1 1 1.9z"/><path fill="none" stroke="#030306" d="M129.7 88.8s4.6-7.7 8-14.7c3.4-7 7.2-15.5 8.8-19.9 1.6-4.4 3.3-22.2 2.3-25.8-1-3.6-3.8-9.3-4.2-9.5-.5-.2-2.2-3.1-2.2-3.1l3.1 1.7c4.3 3.4 8 6.3 9.7 10.7 1.7 4.4 3.4 10.5 3.2 15.2-.2 4.7.2 10.2-3.5 17.1-3.7 6.9-9.6 15.8-11.9 18.7-2.3 2.9-5.8 6.4-7.8 8.1-2.1 1.7-3.7 3-3.7 3l-1.6-1v-.5z" opacity=".1"/><path fill="#030306" stroke="#030306" d="M80.1 32.7s-2.8 10.6 2 20.5c4.7 9.9 7.5 14.9 10.8 19.2 3.3 4.2 9.3 10.8 10.3 12.2 1 1.5 4.9 4.6 4.9 4.6l-1.2 2s-4.6-4.3-9.7-10.2c-5.1-5.9-11-12.7-15.9-23.7s-3-11-3-14.6c.1-3.6.7-7.3.7-7.3l1.1-2.7zm44.3-22s4.4 2.6 5.2 5.2c.8 2.6 2.3 9.6 2.3 13.7S129.1 67 128.1 72c-1 5.1-3.8 16.6-3.8 16.6h2.8l2.4.2s2.1-3.6 4-7.1c1.9-3.5 6.2-12.3 7.4-14.8 1.1-2.5 5.3-12 5.7-13.7.4-1.7 2-14.6 2.1-16.4.1-1.8-.5-10.4-2.1-13.6-1.6-3.2-3.9-6.4-3.9-6.4s.5-.4-.5-.9-3.2-1.3-3.2-1.3-3.4-2.7-5.7-3.3c-2.2-.6-5.8-.8-5.8-.8l-3.1.2z" opacity=".04"/><path fill="none" stroke="#030306" d="M111.7 88.1s-7.2-12.2-10.6-18.8c-3.4-6.5-6-11.1-7.5-16.2S91.3 41.5 91 38.9c-.3-2.6.2-5.9 0-8.6-.2-2.8 1.2-6 1.9-7.3.7-1.3 1.7-3.9 2-4.4.3-.5 1.8-3.4 1.8-3.4s-4.7 2.3-6.6 3.7c-1.9 1.5-6.2 5.8-6.9 7.2-.6 1.4-3.2 6.7-3.2 6.7s-1.1 8.4-.5 11.7c.6 3.3 3.7 11.4 5.8 15.5 2.2 4.1 4.4 8.7 7.4 12.4 3 3.7 8.4 9.8 9.3 11 .9 1.2 5.8 5.8 5.8 5.8h2.1l1.8-1.1zm-.1-76.8s-1.6 3.9-1.6 8.8 1 27.6 1.8 32c.8 4.4 2.3 18.4 3.1 21.8.8 3.4 2.6 11.6 2.6 12.6v2.6l7-.5s2.2-9.4 2.8-12.2c.6-2.8 2.3-15.9 2.7-20.4.4-4.6 2.2-23.2 2-26.4-.2-3.2-1.5-12.2-2.3-13.7-.8-1.5-5.2-5.2-5.2-5.2s-3.3-.8-6.1-1.3-6 1.1-6 1.1l-.8.8z" opacity=".1"/><path fill="#030306" stroke="#030306" d="M117.4 89.1s-3.6-.2-4.1-.3c-.5-.2-1.6.2-1.6.2s-1.6-3.6-2.5-5.2c-.9-1.6-10.4-18.7-11.3-20.5-.9-1.8-4.7-10-5.7-16.6-1-6.6-1.3-15.8-1.2-17.1.1-1.3 2.5-7.9 2.9-8.9.4-.9 1.5-5.1 2.8-5.6 1.3-.5 2.4-1.6 4.6-2.6 2.2-.9 6.5-2.7 7.3-2.1.8.6 3.1 0 3.1 0s-1.5 4.9-1.6 6.9c-.2 2 .1 12.2.2 14 .1 1.8.5 10.9.8 14.8.3 3.9 1.3 10.5 1.7 13.9.4 3.4 1.7 12.7 2 13.8.3 1.2 1.2 5.5 1.4 6.3.2.8 1.2 5.5 1.2 5.5v3.5z" opacity=".04"/><path fill="#FFF" stroke="#FFF" d="M95.5 17.6s-9.3 14.1-9.3 20.1c0 6 10.4 27.9 13.4 33.9 2.5 5.1 8.7 14.3 10.6 17 .4.5.6.8.6.8s-8.7-17.9-10.7-22.2-7-17.7-7.9-23.2c-.8-5.5-1.4-11.7-.5-14.8.8-3 3.8-11.6 3.8-11.6zm23-7.6s-2.5 8.2-2.5 10.1c0 2-1.1 19.4 0 23.8 1.1 4.4 3.8 31.4 3.8 31.4v14l3.3-1.2s2.7-38.5 2.2-44.5-1.1-31.1-2.5-33.3c-1.3-2.1-4.3-.3-4.3-.3zm-7.7 1.1s-6 3.9-6.3 12.7c-.3 8.7-1.9 21 0 27.9 1.9 6.8 6.6 20.9 7.9 22.6 1.1 1.3 3.3 8.9 4.2 12.2.3.9.4 1.5.4 1.5s-3.6-32.9-4.4-34.5c-.8-1.6-3.8-23.5-3.8-25.1 0-1.6 1.4-11.5 1.9-11.9.5-.4 1.4-5.4 1.4-5.4h-1.3zm14.6 78.3s11.1-31.8 12.8-45.2c1.6-13.4-.8-21.4-1.9-24.1-1.1-2.7-5.5-7.3-5.5-7.3l-3.6-1.7s.5 2.4 3 9.1c2.5 6.6 5.7 16.4 4.4 22-1.4 5.6-5.2 24.1-5.5 26.1-.3 1.9-3.7 21.1-3.7 21.1zm19-69.2s5.5 10.6 5.2 15.8c-.3 5.3-5.5 21.1-5.2 22.7.3 1.6-4.1 11.7-4.1 11.7s2.2-2 4.6-6.6c2.5-4.6 5.7-21.9 6.3-27.5.5-5.6-1.1-13-2.7-15.2-1.6-2.2-4.1-3.7-4.1-3.7v2.8z" opacity=".12"/><path fill="#122A49" d="M108.6 92.9s7.3-1.9 10.7-1.8c3.4.1 10.4 1.8 10.4 1.8l1.6-2.4s-1.7-3.1-12.5-2.5c-13.3.8-12 3.1-12 3.1l1.8 1.8z"/><ellipse cx="119.6" cy="99.1" fill="#122A49" stroke="#122A49" rx="7.5" ry="1"/><path fill="#542E16" stroke="#542E16" d="M126.7 112.5c0 .8-3.2 1.5-7.2 1.5s-7.5-.8-7.5-1.7c0-.8 2.4-1.8 6.4-1.8 3.9 0 8.3 1.2 8.3 2z"/><linearGradient id="b" x1="113.472" x2="125.919" y1="118.013" y2="118.013" gradientUnits="userSpaceOnUse"><stop offset="0" stop-color="#c79533"/><stop offset="1" stop-color="#663a19"/></linearGradient><path fill="url(#b)" stroke="#663A19" d="M113.9 116c-.1-.5-.6-1.6-.4-2.1.2-.4.9-.4 1.4-.4.5.1 1 .6 1.5.8.5.1 1 0 1.6.1.6.1 1.1.3 1.7.3 1 .1 2.2.1 3.2 0s2.2-.8 3.1-.5c-.5.6-.7.8-.8 1.5-.1.6-.3 1.1-.4 1.7-.2 1.1-.3 2.2-.5 3.3-.5.2-.7.3-1.1.6-.3.2-.3.2-.6.3h-.3c-.1 0-.3.2-.4.2 0 .1 0 .1-.1.2-.1 0-.2-.1-.3-.1-.1-.1-.2-.1-.3 0-.2.1-.1.4-.3.5-.3.1-.4-.2-.6-.2-.3 0-.5.2-.8.2-.4 0-.8-.3-1.2-.3-.2 0-.4.2-.6.2-.4 0-.4-.1-.8-.4-.4-.2-1-.4-1.4-.6-1.1-.3-1.2-.7-1-1.8.1-1.1-.2-2.3-.6-3.5z"/><linearGradient id="c" x1="111.917" x2="126.972" y1="113.276" y2="113.276" gradientUnits="userSpaceOnUse"><stop offset="0" stop-color="#c79533"/><stop offset="1" stop-color="#663a19"/></linearGradient><path fill="url(#c)" stroke="#663A19" d="M113.5 113.7c-.4-.1-1.5-.8-1.6-1.3-.1-1 1.2-.8 1.7-.5.7.4 1 .6 1.9.7.8.1 1.3.5 2 .7.6.2 1.2.1 1.8.1.7 0 1.3.2 2 .1 1.3-.1 2.6 0 3.8-.2.6-.1 1.1-1.1 1.7-.5.6.6-.5 1.5-1.1 1.7-.6.2-1.2 0-1.8.1-.7.1-1.3.4-2 .4-.6 0-1.2-.1-1.9-.1s-1.3-.2-2-.3c-.6-.1-1.3 0-1.8-.2-.7-.2-1.2-.8-2-.8-.3 0-.5.1-.8.2"/><linearGradient id="d" x1="124.013" x2="126.937" y1="113.523" y2="113.523" gradientUnits="userSpaceOnUse"><stop offset="0" stop-color="#c79533"/><stop offset="1" stop-color="#663a19"/></linearGradient><path fill="url(#d)" stroke="#663A19" d="M124.3 113c.5.2 1.3-.1 1.8-.3.3-.1.5-.4.8 0 .2.3-.2.9-.4 1.1-.4.4-1.3.8-1.8.6-.3-.1-.6-.4-.6-.8 0-.5.3-.6.8-.7"/><linearGradient id="e" x1="113.396" x2="124.91" y1="121.731" y2="121.731" gradientUnits="userSpaceOnUse"><stop offset="0" stop-color="#c79533"/><stop offset="1" stop-color="#663a19"/></linearGradient><path fill="url(#e)" stroke="#663A19" d="M124.3 120.9c-.2 0-.5-.1-.7.1-.3.2-.2.5-.5.7-.2.1-1.8-.3-1 .5-.3-.2-1.4-.4-1.4.2-.5-.1-.6 0-1.1 0-.4 0-.9-.2-1.4-.2-.4 0-.8.1-1.2 0-.2-.1-.4-.2-.6-.4-.3-.2-.4-.1-.7-.2-.3-.1-.3 0-.6-.2-.2-.1-.3-.4-.4-.5-.2-.1-.3 0-.5-.1s.1-.7-.4-.5c-1.1.4 1.3 2 1.5 2.2.7.6 1.7.5 2.6.6 1 .1 1.8.2 2.8 0 .4-.1.8-.1 1.2-.2.2 0 .4-.1.6-.1.3 0 .5-.1.6-.2.6-.1.8-.1 1.3-.5.2-.2 1-.9.3-1.1"/><linearGradient id="f" x1="114.145" x2="116.736" y1="113.243" y2="113.243" gradientUnits="userSpaceOnUse"><stop offset="0" stop-color="#c79533"/><stop offset="1" stop-color="#663a19"/></linearGradient><path fill="url(#f)" stroke="#663A19" d="M114.3 112.4c.9-.1 2.4-.3 2.4 1.1 0 .5-.4 1-.9.7-.3-.2-.2-.5-.5-.6-.2-.1-.5-.1-.8-.1 0-.3.1-.4 0-.7-.1-.2-.7-.4-.2-.6"/><linearGradient id="g" x1="124.019" x2="126.867" y1="113.465" y2="113.465" gradientUnits="userSpaceOnUse"><stop offset="0" stop-color="#c79533"/><stop offset="1" stop-color="#663a19"/></linearGradient><path fill="url(#g)" stroke="#663A19" d="M124.3 113.4c-.8.6.1 1 .7 1 .5 0 1.4-.1 1.7-.5.4-.5.2-1.3-.5-1.3-.6 0-1.3.6-1.7 1"/><linearGradient id="h" x1="118.293" x2="121.126" y1="114.063" y2="114.063" gradientUnits="userSpaceOnUse"><stop offset="0" stop-color="#c79533"/><stop offset="1" stop-color="#663a19"/></linearGradient><path fill="url(#h)" stroke="#663A19" d="M118.3 113.4c.2.5.7 1.1 1.2 1.3.3.1 1.3.3 1.6 0 .5-.6-2.3-2-2.7-1.1"/><linearGradient id="i" x1="113.351" x2="114.861" y1="121.048" y2="121.048" gradientUnits="userSpaceOnUse"><stop offset="0" stop-color="#c79533"/><stop offset="1" stop-color="#663a19"/></linearGradient><path fill="url(#i)" stroke="#663A19" d="M114.7 121.2c.3 1.2-1.3.2-1.3-.4 0-.5.5-.6.8-.4.4.3.2.8.7 1"/><linearGradient id="j" x1="123.276" x2="124.8" y1="121.566" y2="121.566" gradientUnits="userSpaceOnUse"><stop offset="0" stop-color="#c79533"/><stop offset="1" stop-color="#663a19"/></linearGradient><path fill="url(#j)" stroke="#663A19" d="M123.3 121.4c.4.1.7.4.6.9.5-.2 1.2-.7.8-1.3-.6-.7-1 .3-1.4.4"/><linearGradient id="k" x1="114.624" x2="117.002" y1="122.214" y2="122.214" gradientUnits="userSpaceOnUse"><stop offset="0" stop-color="#c79533"/><stop offset="1" stop-color="#663a19"/></linearGradient><path fill="url(#k)" stroke="#663A19" d="M114.8 121.4c1.3 0 1.8.5 2.2 1.7-.8.2-3.1-1.4-2.2-1.7"/><linearGradient id="l" x1="122.028" x2="123.972" y1="122.16" y2="122.16" gradientUnits="userSpaceOnUse"><stop offset="0" stop-color="#c79533"/><stop offset="1" stop-color="#663a19"/></linearGradient><path fill="url(#l)" stroke="#663A19" d="M123.3 121.7c-.3-.2-1.1 0-1.2.4.3.3.9 0 .8.7.2.1.9-.2 1-.4.2-.3 0-.8-.5-.7"/><linearGradient id="m" x1="116.799" x2="118.275" y1="122.674" y2="122.674" gradientUnits="userSpaceOnUse"><stop offset="0" stop-color="#c79533"/><stop offset="1" stop-color="#663a19"/></linearGradient><path fill="url(#m)" stroke="#663A19" d="M116.9 122.3c.8-.6 1.1.4 1.4.9-.4.1-.9-.1-1.3-.1-.1-.3-.1-.6-.1-.9"/><linearGradient id="n" x1="120.857" x2="122.816" y1="122.438" y2="122.438" gradientUnits="userSpaceOnUse"><stop offset="0" stop-color="#c79533"/><stop offset="1" stop-color="#663a19"/></linearGradient><path fill="url(#n)" stroke="#663A19" d="M121.3 121.9c-.2.1-.4.3-.5.5.5.6 1.3.6 2 .2-.1-.4-1-.7-1.4-.6"/><linearGradient id="o" x1="117.792" x2="121.03" y1="122.67" y2="122.67" gradientUnits="userSpaceOnUse"><stop offset="0" stop-color="#c79533"/><stop offset="1" stop-color="#663a19"/></linearGradient><path fill="url(#o)" stroke="#663A19" d="M117.8 122.5c-.1-.8 1.3 0 1.5 0 .6 0 1.4-.5 1.7.4-.2.3-.9.3-1.3.3 0-.3-.2-.4-.4-.6l.1-.1"/><path fill="none" stroke="#B7B7B7" d="M112.4 99.1l-.5 13.3m6-14.1l-.7 12.2m4.5-12.2l.2 12.5m5-11.7l-.2 13.4"/><path fill="none" stroke="#663A19" d="M120.2 113.3c.4 1 1.7-.3 2.4.1.2.2.3 1 .2 1.3-.3.4-1.1.2-1.5.2-.1-.6-.4-1.1-1-1.4"/><path fill="none" stroke="#966929" stroke-width=".5" d="M114.4 113.6c1.2 2.8.7 6 2.2 8.7m-.1-7.9c.4 1.3.4 2.5.6 3.8.2 1.2.3 3.2.9 4.2m1.1-7.6c.5.9.5 2.5.6 3.5.2 1.3.3 2.4.8 3.6m.7-6.8c.2 2 .4 4.5 1 6.4m.5-6.5c-.4.8.1 2.1.2 3 .1 1.1 0 2.4.4 3.4"/><linearGradient id="p" x1="123.945" x2="124.258" y1="117.51" y2="117.51" gradientUnits="userSpaceOnUse"><stop offset="0" stop-color="#c79533"/><stop offset="1" stop-color="#663a19"/></linearGradient><path fill="url(#p)" stroke="#663A19" d="M124.3 114.4c0 2.1-.4 4.1-.3 6.2"/><path fill="none" stroke="#966929" stroke-width=".5" d="M114.5 113.7c-.3.5-.6 1.1-.8 1.6m.6 1.9c.5-1 1.5-1.7 2-2.6m-2 4c1.4-1.5 4-1.8 4.8-3.9m2 .1c-1.2 2.6-4.4 4.1-6.4 6.1m7.9-6c.2 1.1-1.6 2.9-2.3 3.6-1.1 1.1-2.7 2.3-3.5 3.7m7.4-7.8c-.1 2.8-2.7 5.7-4.5 7.8m3.6-.6c-.3-1.2 1.1-3.6 1.4-4.8"/><path fill="#FFF" stroke="#98CBCB" d="M209.7 29.9c-2.8.7-1.5-3-4.7-2.7.1-1.3-.5-1.9-1.8-2.7 3-1.6 4.4-7.5-1.3-7.2.6-3.3-7.5-4.7-10.8-4.3-5.1.6-6.7 4.6-11.7.3-1.4-1.2-1.2-3.1-3.1-4.3-.9-.6-2.4-.5-3-.9-1.1-.7-1.8-1.6-3-2.6-3.1-2.4-12.9-3.8-14.3.9-3.5.2-8.7 1.8-5.6 4.9-4.3.1-3.7 7.4-2.7 9.7-2.7 0-8.2-.7-7.6 2.5-2.1-1.3-6.5-1.5-7 1.1-3.1 0-6-.9-6.8 2.4-.7 2.7 1.3 3.3 4.5 3-2.6.3-3.5 2.5-2 4 1.4 1.4 4.1.6 5.7 1.3 2.8 1.1 3.9 2.7 7.6 3.3.9.1 1.9-.8 3.1-.6 1 .2 2 1.8 3.4 2.2 2.3.6 11.5 1 13.8.4 1.6-.4 2.6-1.5 4.3-2 2.5-.7 5 .6 6.1-1.9 2.6.1 6.7-1.8 8.2-1.4 1 .3 1.4 2.5 2.6 3 1.1.4 3-.1 4.3.1 2 .2 5.1 1.2 7.8.3 1-.3 1.8-1.6 2.6-2 .9-.4 2.5-.6 3.5-1.3 2.2 1.6 6.3 1.4 8.6 1 2.2-.4 8.3-2.1 3.9-4.3.1-.3-2-2.9-4.6-2.2z"/><path fill="#CCCBCB" d="M139.7 24c-1.8-.4-5.6.1-5.1 2.1.2 0 .4 0 .6.1-3.9 1.5 2.1 2.6 3.6 2.6-4 1.2 1.3 5.8 5.4 3.3-.2 1.4 1.5 1.1 2.5 1.5 1.8.7 1.9 1.4 4.3 1.2.7-.1 1.3-.2 1.9-.3.6-.1 1.3 0 1.9 0 1.4-.1 3.3-.2 3.3-1.6 2-.1 1.8-3.8 1.7-4.9 2.4 0 5.4 3.7 7.7 1.2 1.1 1.4 4.1 1.2 4.9-.2 1.5 1.4 5.5 4.3 8.2 3.6.2.2.2.3.2.6.2.1.7.1.8.2.1.3 0 .5 0 .8-3.7-.1-6.7 1.7-10.3 1.9.5 2-2.5 1.4-3.9 1.5-2 .2-2.6 1-4.3 1.7-2.9 1.2-7.3 1-10.6.7-1.6-.1-3.6-.1-4.9-.9-1.7-.9-1.2-1.8-3.5-1.8-1.8 0-2.6.5-4.5-.2-1.5-.5-2.5-1.4-3.8-2.1-1.8-1-5.3-.4-6.7-1.7-2.4-2.2 3.4-1.8 3-3.3-.3-1.4-4.8-.1-5.2-2.5-.4-2.3 3.7-2.2 5.8-2.2.9-2.3 5-2.3 7.1-1.1" opacity=".53"/><path fill="#CCCBCB" d="M193 14c4.3 0 7.5 2.8 2.4 4.8 2.2-.3 3.7.8 3.6 2.5-.1 1.9-1.6 1.9-3.6 2.3.7.6 1.1 1.5.4 2.1.8.4 1.2 1.1 1 1.8 1.4-.2 4.3-.6 3.5 1.4 2.2-.5 2.2 1.4 1.7 2.4.6.2 8.6-1 4.9 1.8-2 1.5-6.6.3-7.7-1.4.7 3.4-6.3 3.3-8.2 1.2-.2 2.1-4.7 1.7-6.4 1.3 0 1.4-1.6 2.2.4 3.1 1.3.6 3.9.1 5.4.3 1.9.2 3.1.5 4.9-.3 1.4-.7 2.4-1.3 3.9-1.9.5-.2 1.5-.9 2-.9 1.2-.2.9.3 1.9.5 1.8.4 3.5.6 5.4.5 2.9-.1 8-1 5.1-3.6-1.1-1-2.4-1.4-4-1.5-2.6-.2-1.5-.2-3.2-1.5-.4-.3-1.7-.6-1.8-.8-.5-.5-.2-1-.6-1.5-1-1.3-2.5-1-1.7-2.5.6-1.3 1.9-1.6 1.5-3.4-.4-1.6-1.6-1.5-2.6-2.6-.8-.8-.8-1.9-2.2-2.6-1.4-.7-3.2-1-4.9-1" opacity=".28"/><path fill="#CCCBCB" d="M156.3 6.8c-2.6.1-4.5 3.3-1.3 3.9-3.3.7-3.7 5.4.4 5.5.1.7-.1 1.6.2 2.3-.2-.4 1.7 1.3 1.5 1.2 1.2.8 3.9 1.4 5.3.4 1.4 1.8 5.5 1.4 6.4-.5.7 2.7-5.5 4.2-7.9 2.9-1.4 3-7.5 2.9-7.4-.7-3.9.2-5.2-1.8-5.1-4.5 0-1.1-.1-2.5.4-3.5.6-1.2 1.9-1.5 3-2.5-3-2.2.1-4 3.3-4.4" opacity=".53"/></g></switch></svg>
