<svg xmlns="http://www.w3.org/2000/svg" version="1.0" viewBox="0 0 64.5 101.5"><switch><g><linearGradient id="a" x1="109.415" x2="97.53" y1="-185.706" y2="-345.306" gradientTransform="rotate(-7.545 2883.42 360.55)" gradientUnits="userSpaceOnUse"><stop offset="0" stop-color="#ffcb67"/><stop offset="1" stop-color="#a6d38b"/></linearGradient><path fill="url(#a)" stroke="#659941" d="M34.5 100.5s-9.3-67.3-3.6-93.3l3.8-.1s-2.6 23.7-.6 41.8c2 18.1 4.5 51.4 4.5 51.4s-.7 2.4-4.1.2z"/><path fill="#CEE194" d="M34.2 11.1c-1.3-.4-3.9-.7-4.9-.4 1.1.7 4.8 1.6 5.4.6-.2-.2-.4-.3-.7-.5m-.2 9.3c-1.3-.4-3.9-.7-4.9-.4 1.1.7 4.8 1.6 5.4.6-.2-.2-.4-.3-.7-.5m0 9.1c-1.3-.4-3.9-.7-4.9-.4 1.1.7 4.8 1.6 5.4.6-.2-.2-.4-.3-.7-.5m0 11.1c-1.3-.4-3.9-.7-4.9-.4 1.1.7 4.8 1.6 5.4.6-.2-.2-.4-.3-.7-.5m1.2 13.7c-1.4-.4-4.2-.8-5.3-.5 1.2.7 5.2 1.7 5.9.8-.2-.2-.5-.4-.7-.5m1.5 16c-1.3-.4-3.9-.7-4.9-.4 1.1.7 4.8 1.6 5.4.6-.2-.2-.4-.3-.7-.5"/><linearGradient id="b" x1="91.996" x2="101.015" y1="-347.243" y2="-347.243" gradientTransform="rotate(-7.545 2883.42 360.55)" gradientUnits="userSpaceOnUse"><stop offset="0" stop-color="#349946"/><stop offset="1" stop-color="#a6d38b"/></linearGradient><path fill="url(#b)" stroke="#349946" stroke-width=".25" d="M29.6 32.7c-.5-1-.8-2.5-1.5-3.5s-1.8-1.8-2.7-2.7c-2-2.4-3.3-6-2.9-9.1 3.9 2.4 3.1 6.8 4.8 10.4.6-1.3.4-2.9 1.1-4.4.6-1.3 1.9-3.6 3.2-4.1.2 2.3-.6 4.4-1.8 6.4-.5.8-1.3 1.5-1.4 2.4-.1 1.1.7 2 .9 2.9"/><linearGradient id="c" x1="99.861" x2="112.456" y1="-339.066" y2="-339.066" gradientTransform="rotate(-7.545 2883.42 360.55)" gradientUnits="userSpaceOnUse"><stop offset="0" stop-color="#349946"/><stop offset="1" stop-color="#a6d38b"/></linearGradient><path fill="url(#c)" stroke="#349946" stroke-width=".25" d="M32.8 37.6c.5-.8 1.6-1.4 1.9-2.3.3-.8.2-2.3.5-3.3.9-2.9 3.2-5.2 5.8-6.7-1 3.9-3.5 6.7-5.6 10 1.5 0 3-.8 4.6-.9 1.9-.2 3.3 0 5.1.7-2.2.9-4.6 1.9-7.1 1.6-.8-.1-2-.9-2.8-.6-.7.2-1.7 1.8-2.2 2.3"/><linearGradient id="d" x1="91.316" x2="96.489" y1="-324.822" y2="-324.822" gradientTransform="rotate(-7.545 2883.42 360.55)" gradientUnits="userSpaceOnUse"><stop offset="0" stop-color="#349946"/><stop offset="1" stop-color="#a6d38b"/></linearGradient><path fill="url(#d)" stroke="#349946" stroke-width=".25" d="M31.2 52.9c-1.6-1.1-1.7-3.7-2.6-5.6-.9-1.9-2.2-4.2-3.6-5.6.2 2.5 0 5.8 1.4 8 .8 1.2 3.5 3.5 5 3.4"/><linearGradient id="e" x1="98.513" x2="109.915" y1="-319.002" y2="-319.002" gradientTransform="rotate(-7.545 2883.42 360.55)" gradientUnits="userSpaceOnUse"><stop offset="0" stop-color="#349946"/><stop offset="1" stop-color="#a6d38b"/></linearGradient><path fill="url(#e)" stroke="#349946" stroke-width=".25" d="M34.1 58c.7-.6 1.7-1.7 2.2-2.5.6-1 .3-2.1.7-3.3.7-2.5 2.5-5.2 4.7-6.6 1.8 3-2.8 7.7-4.6 9.8 2.7-1.3 5.5-1.6 8.2 0-1.9.9-4.5 1.6-6.6 1.3-1.8-.2-3.4-.9-4 1.6"/><path fill="#CCDD60" d="M30.8 52.1c1.6.6.6-2.6 2.2-2.5.5.9.5 2.9 1.1 3.2m1.6 15.9c-.7-.5-2.2-2.6-3-2.5-.7.1-1.4 1.8-1.7 2.3"/><linearGradient id="f" x1="97.845" x2="102.396" y1="-364.609" y2="-364.609" gradientTransform="rotate(-7.545 2883.42 360.55)" gradientUnits="userSpaceOnUse"><stop offset="0" stop-color="#349946"/><stop offset="1" stop-color="#a6d38b"/></linearGradient><path fill="url(#f)" stroke="#349946" stroke-width=".25" d="M30.1 12.4c.3-1.7 1.4-3.1 1.2-4.9-.2-1.6-1.2-4.4-2-5.8-2.2 1-.4 7.2 0 9-1-.6-1.8-1.5-2.5-2.4 0 2.1 1.4 3.4 3.5 3.6"/><linearGradient id="g" x1="103.738" x2="112.48" y1="-364.526" y2="-364.526" gradientTransform="rotate(-7.545 2883.42 360.55)" gradientUnits="userSpaceOnUse"><stop offset="0" stop-color="#349946"/><stop offset="1" stop-color="#a6d38b"/></linearGradient><path fill="url(#g)" stroke="#349946" stroke-width=".25" d="M33.3 12.3c1.3-1.2 3.5-2.7 3.1-4.8C39.1 6 40.6 3.1 40.5 0c-1.8 1-4 3.2-4.7 5.2-.4 1.1.2 1.9 0 2.9-.2 1.1-1.1 1.4-1.5 2.4"/><linearGradient id="h" x1="95.275" x2="84.653" y1="-195.208" y2="-337.846" gradientTransform="rotate(-7.545 2883.42 360.55)" gradientUnits="userSpaceOnUse"><stop offset="0" stop-color="#ffcb67"/><stop offset="1" stop-color="#a6d38b"/></linearGradient><path fill="url(#h)" stroke="#659941" d="M30 100.7s-5.8-37.9-12.8-58.8l-7-20.9 3.6-1.6s6.4 22.1 10.5 35.7c4.1 13.6 10.2 45.3 10.2 45.3l-4.5.3z"/><path fill="#CEE194" d="M15.4 24.7c-1.1.1-3.2.9-3.9 1.7 1.1.3 4.3-.3 4.4-1.6-.2-.1-.5-.2-.7-.2m4.1 12.6c-1.1.1-3.2.9-3.9 1.7 1.1.3 4.3-.3 4.4-1.6-.2-.1-.5-.2-.7-.2m4.1 13.2c-1.1.1-3.2.9-3.9 1.7 1.1.3 4.3-.3 4.4-1.6-.2-.1-.5-.2-.7-.2m3.4 13.4c-1.1.1-3.2.9-3.9 1.7 1.1.3 4.3-.3 4.4-1.6-.2-.1-.5-.2-.7-.2"/><linearGradient id="i" x1="58.095" x2="86.253" y1="-356.696" y2="-328.031" gradientTransform="rotate(-7.545 2883.42 360.55)" gradientUnits="userSpaceOnUse"><stop offset="0" stop-color="#349946"/><stop offset="1" stop-color="#a6d38b"/></linearGradient><path fill="url(#i)" stroke="#349946" stroke-width=".25" d="M16.6 39.5c-.6-.5-1.5-.9-1.9-1.5-.5-.6-.7-1.6-1.3-2.4-1.7-2.1-4.5-3.2-6.6-5 .3 1.6 1.9 4 3 5.3 1 1.2 2.6 2.1 4.1 2.4-2.1.5-4.2.3-6.1 1.9 1.8.3 3.8.2 5.5-.8.7-.4 1.1-1 1.9-.7.7.2.8 1.2 1.7 1.3"/><linearGradient id="j" x1="87.046" x2="91.446" y1="-334.515" y2="-334.515" gradientTransform="rotate(-7.545 2883.42 360.55)" gradientUnits="userSpaceOnUse"><stop offset="0" stop-color="#349946"/><stop offset="1" stop-color="#a6d38b"/></linearGradient><path fill="url(#j)" stroke="#349946" stroke-width=".25" d="M21.4 45.5c-.3-2.4 1.8-4.8 2.2-7.1.4-2.1.2-5.1-.3-7.3-1.8 1.8-2.5 5.1-2.2 7.6.2 1.5.9 2.2.5 3.5-.4 1.2-1 1.7-.8 3.1"/><linearGradient id="k" x1="77.967" x2="86.035" y1="-324.987" y2="-324.987" gradientTransform="rotate(-7.545 2883.42 360.55)" gradientUnits="userSpaceOnUse"><stop offset="0" stop-color="#349946"/><stop offset="1" stop-color="#a6d38b"/></linearGradient><path fill="url(#k)" stroke="#349946" stroke-width=".25" d="M21 54.1c-.7-.9-1.5-2-2.4-2.6-1-.8-2.3-.9-3.3-1.7-2.1-1.7-2.6-4-3.9-6.3 2.2 1.2 4.1 2.8 5.4 5 1.1 1.7 2.8 3.2 3.5 5.2"/><linearGradient id="l" x1="72.934" x2="86.035" y1="-321.035" y2="-321.035" gradientTransform="rotate(-7.545 2883.42 360.55)" gradientUnits="userSpaceOnUse"><stop offset="0" stop-color="#349946"/><stop offset="1" stop-color="#a6d38b"/></linearGradient><path fill="url(#l)" stroke="#349946" stroke-width=".25" d="M20.8 54.1c-3.2-3.4-9.1-2.9-13.4-2.3 1.2.1 2.4 1.1 3.5 1.4 1.2.4 2.4.6 3.7.7 1.3 0 2.4-.7 3.7-.6.9.1 1.7.9 2.7 1"/><path fill="#CCDD60" d="M23.4 64.2c.5-.7.9-1.5.9-2.5 1.2-.5 1.4.9 1.8 1.7-1 .1-1.7.4-2.5.9m-3.2-13.7c-.2-.4-.1-1-.2-1.5.9-1 2.1.1 2.1 1.2-.6 0-1.3.2-1.8.4"/><linearGradient id="m" x1="78.677" x2="88.396" y1="-306.887" y2="-306.887" gradientTransform="rotate(-7.545 2883.42 360.55)" gradientUnits="userSpaceOnUse"><stop offset="0" stop-color="#349946"/><stop offset="1" stop-color="#a6d38b"/></linearGradient><path fill="url(#m)" stroke="#349946" stroke-width=".25" d="M25.6 70.5c-2.4-.3-3.1-2.5-4.3-4.2-1.4-1.9-4.2-4-6.5-4.5 2.3 3.1 3.9 6.3 7.6 7.3-1.9.9-4.8.9-6.3 3 2.6.6 5.3-.3 7.1-2.2.8.6 1.6 1 2.5 1"/><linearGradient id="n" x1="82.712" x2="85.422" y1="-354.748" y2="-354.748" gradientTransform="rotate(-7.545 2883.42 360.55)" gradientUnits="userSpaceOnUse"><stop offset="0" stop-color="#349946"/><stop offset="1" stop-color="#a6d38b"/></linearGradient><path fill="url(#n)" stroke="#349946" stroke-width=".25" d="M15.3 24.9c-.4-1.7.6-3.4.5-5.2-.1-2.2-.8-4.6-1.3-6.8-3.3 3.5-1 8 .5 11.5"/><linearGradient id="o" x1="69.73" x2="80.302" y1="-355.929" y2="-355.929" gradientTransform="rotate(-7.545 2883.42 360.55)" gradientUnits="userSpaceOnUse"><stop offset="0" stop-color="#349946"/><stop offset="1" stop-color="#a6d38b"/></linearGradient><path fill="url(#o)" stroke="#349946" stroke-width=".25" d="M11.1 22.8c-1.5-1-2-2.8-3.2-4-1.5-1.5-4.2-2.8-5.2-4.6-.1 3.7 3.4 4.7 5.4 6.1-2.7.3-5.3-1.3-8.1-.7 1.6.6 2.6 1.5 4.4 1.6 1.4.1 2.9-.3 4.4-.4.1 1.1 1.3 2.2 2.2 2.6"/><linearGradient id="p" x1="5476.309" x2="5467.574" y1="527.765" y2="410.474" gradientTransform="scale(-1 1) rotate(-7.06 -240.376 44956.09)" gradientUnits="userSpaceOnUse"><stop offset="0" stop-color="#ffcb67"/><stop offset="1" stop-color="#a6d38b"/></linearGradient><path fill="url(#p)" stroke="#659941" d="M40.4 100.2S44.9 69 50.5 51.8l5.6-17.2-3-1.3S48 51.5 44.7 62.8c-3.3 11.2-8.1 37.3-8.1 37.3l3.8.1z"/><path fill="#CEE194" d="M51.8 37.6c.9.1 2.7.7 3.2 1.4-.9.2-3.5-.2-3.6-1.3.2-.1.4-.2.6-.2m-3.3 10.4c.9.1 2.7.7 3.2 1.4-.9.2-3.5-.2-3.6-1.3.2-.1.4-.2.6-.2m-3.3 10.9c.9.1 2.7.7 3.2 1.4-.9.2-3.5-.2-3.6-1.3.2-.1.4-.2.6-.2M43 69.7c.9.1 2.7.7 3.2 1.4-.9.2-3.5-.2-3.6-1.3.2-.1.4-.2.6-.2"/><linearGradient id="q" x1="5445.737" x2="5468.891" y1="394.975" y2="418.544" gradientTransform="scale(-1 1) rotate(-7.06 -240.376 44956.09)" gradientUnits="userSpaceOnUse"><stop offset="0" stop-color="#349946"/><stop offset="1" stop-color="#a6d38b"/></linearGradient><path fill="url(#q)" stroke="#349946" stroke-width=".25" d="M51 49.8c.5-.4 1.2-.7 1.6-1.2.4-.5.5-1.4 1-1.9C55 45 57.3 44 59 42.6c-.2 1.3-1.6 3.3-2.4 4.4-.8 1-2.1 1.7-3.3 2 1.8.4 3.5.2 5 1.5-1.5.3-3.1.2-4.5-.6-.6-.3-.9-.8-1.6-.6-.6.2-.7 1-1.4 1.1"/><linearGradient id="r" x1="5469.542" x2="5473.161" y1="413.213" y2="413.213" gradientTransform="scale(-1 1) rotate(-7.06 -240.376 44956.09)" gradientUnits="userSpaceOnUse"><stop offset="0" stop-color="#349946"/><stop offset="1" stop-color="#a6d38b"/></linearGradient><path fill="url(#r)" stroke="#349946" stroke-width=".25" d="M47 54.8c.3-2-1.5-3.9-1.9-5.8-.3-1.7-.2-4.2.2-6 1.5 1.5 2.1 4.2 1.9 6.2-.2 1.2-.7 1.8-.4 2.9.3 1 .9 1.4.7 2.6"/><linearGradient id="s" x1="5462.077" x2="5468.711" y1="421.048" y2="421.048" gradientTransform="scale(-1 1) rotate(-7.06 -240.376 44956.09)" gradientUnits="userSpaceOnUse"><stop offset="0" stop-color="#349946"/><stop offset="1" stop-color="#a6d38b"/></linearGradient><path fill="url(#s)" stroke="#349946" stroke-width=".25" d="M47.4 61.8c.6-.7 1.2-1.6 1.9-2.2.9-.6 1.9-.7 2.7-1.5 1.7-1.4 2.2-3.3 3.1-5.2-1.8 1-3.3 2.4-4.4 4.2-.9 1.4-2.3 2.7-2.9 4.3"/><linearGradient id="t" x1="5457.939" x2="5468.711" y1="424.298" y2="424.298" gradientTransform="scale(-1 1) rotate(-7.06 -240.376 44956.09)" gradientUnits="userSpaceOnUse"><stop offset="0" stop-color="#349946"/><stop offset="1" stop-color="#a6d38b"/></linearGradient><path fill="url(#t)" stroke="#349946" stroke-width=".25" d="M47.6 61.8c2.6-2.9 7.4-2.4 11-2-1 .1-2 .9-2.9 1.2-1 .3-2 .5-3 .6-1.1 0-2-.6-3-.5-.8.1-1.4.8-2.2.8"/><path fill="#CCDD60" d="M45.6 70.1c-.4-.6-.7-1.2-.8-2-1-.4-1.2.8-1.5 1.4.8.1 1.4.4 2.1.7M47.9 59c.1-.4.1-.9.1-1.2-.7-.8-1.7.1-1.8 1 .5 0 1.1.1 1.5.3"/><linearGradient id="u" x1="5462.659" x2="5470.651" y1="435.932" y2="435.932" gradientTransform="scale(-1 1) rotate(-7.06 -240.376 44956.09)" gradientUnits="userSpaceOnUse"><stop offset="0" stop-color="#349946"/><stop offset="1" stop-color="#a6d38b"/></linearGradient><path fill="url(#u)" stroke="#349946" stroke-width=".25" d="M43.8 75.3c2-.2 2.5-2.1 3.5-3.5 1.1-1.6 3.5-3.3 5.3-3.8-1.9 2.5-3.2 5.2-6.2 6.1 1.6.7 3.9.7 5.2 2.4-2.1.5-4.4-.2-5.9-1.7-.6.5-1.3.9-2.1.9"/><linearGradient id="v" x1="5465.981" x2="5468.209" y1="396.576" y2="396.576" gradientTransform="scale(-1 1) rotate(-7.06 -240.376 44956.09)" gradientUnits="userSpaceOnUse"><stop offset="0" stop-color="#349946"/><stop offset="1" stop-color="#a6d38b"/></linearGradient><path fill="url(#v)" stroke="#349946" stroke-width=".25" d="M51.9 37.8c.3-1.4-.5-2.8-.5-4.2 0-1.8.6-3.8 1-5.6 2.7 2.9.9 6.6-.4 9.4"/><linearGradient id="w" x1="5455.305" x2="5463.998" y1="395.605" y2="395.605" gradientTransform="scale(-1 1) rotate(-7.06 -240.376 44956.09)" gradientUnits="userSpaceOnUse"><stop offset="0" stop-color="#349946"/><stop offset="1" stop-color="#a6d38b"/></linearGradient><path fill="url(#w)" stroke="#349946" stroke-width=".25" d="M55.4 36c1.2-.8 1.7-2.3 2.6-3.3 1.2-1.2 3.4-2.3 4.2-3.8.1 3.1-2.8 3.9-4.4 5 2.2.3 4.3-1.1 6.6-.6-1.3.5-2.1 1.3-3.6 1.4-1.2.1-2.4-.2-3.6-.3-.1.9-1.1 1.8-1.8 2.1"/></g></switch></svg>
