<svg xmlns="http://www.w3.org/2000/svg" version="1.0" viewBox="0 0 4.4 5.6"><switch><g><path fill="#D0E7C4" stroke="#669866" stroke-width=".25" d="M1.2.3c.3.1.3.6.5.8.1.1.2.2.2.4.1.1.1.2.2.3 0 .1.2.3.2.4.1.1.3.1.4.1.3.2.6.3.7.5.3-.1.4.1.6.2.2.1.2 0 .2.3 0 .1.1.3 0 .4 0 .1-.2.2-.2.3-.1.1-.1.1-.1.3-.1.3-.3.4-.5.6-.1.1-.2.2-.4.3-.2.1-.2.2-.4.2-.1 0-.3-.1-.5-.2-.1 0-.1-.1-.2-.1h-.3c-.3 0-.6-.2-.9-.4-.2-.1-.1-.2-.2-.4 0-.2-.2-.3-.3-.5-.2-.3 0-.8 0-1.2 0-.4-.1-.8 0-1.1 0-.2.1-.4 0-.5C.1.8 0 .8 0 .5.1.1.5 0 .8 0l.4.3z"/></g></switch></svg>
