<svg xmlns="http://www.w3.org/2000/svg" version="1.0" viewBox="0 792 220 129"><switch><g><linearGradient id="a" x2="220" y1="856.5" y2="856.5" gradientUnits="userSpaceOnUse"><stop offset=".006" stop-color="#bed63a"/><stop offset="1" stop-color="#c0db84"/></linearGradient><path fill="url(#a)" d="M0 792h220v129H0z"/><path fill="#FFF" d="M220 887l-220 .5V921h220z"/><path fill="#070504" d="M0 894.6l12.6-6.1-12.6-.1zm30 1.9l16.1-7.6 35.8.4-13.9 7.3z"/><path fill="#2C1A0E" stroke="#2C1A0E" stroke-width=".25" d="M104.2 896.5l12.6-8 30.6.3-10.2 7.5zm64.7.2l8.5-7.4h30.7l-7 7.5z"/><path fill="#070504" d="M0 904.3h15.1L29 897l-29-.3z"/><path fill="#2C1A0E" stroke="#2C1A0E" stroke-width=".25" d="M53.5 904.8l15.1-8 35.5-.6-12.7 8.3zm73.1.1l11-8.3h31.9l-8.3 8.4zm93.4-8.7h-18.3l-8.5 8.4H220z"/><path fill="#070504" d="M0 911v1.2h38l13.9-7.3-38.2-.3z"/><path fill="#2C1A0E" stroke="#2C1A0E" stroke-width=".25" d="M77.1 912.8l15.1-8 35.6-.6-12.8 8.4zm72.7.6l9.8-8.4h33.1l-8.3 8.5z"/><path fill="#070504" d="M21.9 920.9h44.5l13.1-7.9-41.9-.4z"/><path fill="#2C1A0E" stroke="#2C1A0E" stroke-width=".25" d="M105.2 921h37.3l9.7-8.8-35.5.6zm72.7 0h34.8l7.3-7.5v-.1h-35.5z"/><path fill="#513114" d="M.9 885.7H216v4.3H.9z"/><path fill="#E4C5A9" d="M112.7 865.6v6.1l.7 1.4.6-7.5z"/><path fill="#E4C5A9" d="M113.2 873.2l-.7-1.4v-6.3h1.7l-.5 7.7h-.5zm-.2-1.5l.3.6.5-6.6h-.8v6z"/><path fill="#907663" d="M117.5 875.8s-.4 2-.8 3.5c-.4 1.4-.7 4.2-.7 5.1 0 .9 1.6 5.8 1.7 7.2.1 1.3-1.7 4.4-1.7 4.4l-2 .9s-.8-.7-1.2-1.3c-.4-.7-.1-1.9.4-2.8.4-.9 1.4-.3 1.4-.3l.1 1-.1.6s.4-.1.8-.6-.1-2.3-.4-3.1c-.3-.9-.8-2.7-1.5-4.6-.7-1.9-.7-4.4-.7-4.4-.1-1.8 1.4-5.7 1.9-7 .5-1.3 0-2 0-2v-6.5h3l-.2 9.9z"/><path fill="#907663" d="M113.9 897l-.1-.1s-.8-.7-1.3-1.3c-.6-.9.1-2.5.3-3 .2-.5.7-.6 1-.6.4 0 .8.2.8.2h.1l.1 1.1v.3l.3-.3c.3-.4-.1-2-.4-3-.1-.3-.2-.7-.4-1.2-.3-1-.6-2.1-1.1-3.4-.7-1.9-.7-4.4-.7-4.4-.1-1.8 1.3-5.6 1.9-7.1.5-1.2 0-1.9 0-1.9v-6.7h3.4l-.1 10.3s-.4 2.1-.8 3.5-.7 4-.7 5.1c0 .4.4 2 .8 3.4.4 1.5.8 3.1.9 3.7.1 1.3-1.6 4.3-1.7 4.5l-2.3.9zm-.1-4.7c-.1 0-.4 0-.5.4-.4.9-.8 2.1-.4 2.7.3.5.9 1 1.1 1.2l1.8-.8c.2-.4 1.7-3.1 1.6-4.3 0-.6-.5-2.2-.9-3.7s-.8-3-.8-3.5c0-1 .3-3.7.7-5.1.4-1.4.8-3.4.8-3.4l.1-10h-2.6v6.3c.1.2.5.9 0 2.1-.6 1.5-2 5.2-1.9 7 0 0 0 2.5.7 4.4.5 1.2.8 2.4 1.1 3.4.1.5.3.9.4 1.2 0 0 .9 2.5.4 3.2-.4.6-.9.6-.9.7h-.3l.1-.8-.1-.9s-.2-.1-.4-.1z"/><path fill="#6D564A" d="M113.8 866l-.4 7.1s-2 4.8-2.1 6.2c-.1 1.4.9 5.4 1.2 6.9.3 1.5 1 2.6 1.3 3.2.3.7.4 2 .5 2.2.1.2.1.8.1.8v1.6s.4-.1.6-.3c.2-.2.3-.9.3-1.2 0-.3-.8-3.3-1.1-4.2-.3-.9-1.2-3.5-1.3-4.6-.1-1.1-.2-2.6.1-4.3.4-1.7 1.2-4.1 1.2-4.1s1-1.3.8-1.6c-.2-.3-.4-1.4-.4-1.4v-6.5l-.8.2z"/><path fill="#6D564A" d="M114.3 894.1v-1.8c0-.1-.1-.6-.1-.7 0-.1-.1-.3-.2-.6-.1-.5-.2-1.1-.4-1.5-.1-.2-.2-.4-.3-.7-.3-.6-.8-1.5-1-2.6-.1-.3-.2-.8-.3-1.4-.4-1.9-1-4.4-.9-5.5.1-1.4 1.9-5.8 2.1-6.2l.4-7.2 1.3-.6v6.8c.1.4.3 1.1.4 1.3.2.3-.4 1.2-.8 1.8-.1.2-.9 2.5-1.2 4.1-.3 1.4-.3 2.7-.1 4.3.1.8.7 2.6 1.1 3.7.1.3.2.6.3.8.3.8 1.1 3.9 1.1 4.2 0 .3-.1 1-.3 1.3-.2.3-.7.4-.7.4l-.4.1zm-.3-28l-.4 7s-2 4.8-2.1 6.1c-.1 1.1.5 3.7.9 5.5.1.5.2 1 .3 1.4.2 1 .6 1.9.9 2.5.1.3.3.5.3.7.2.4.3 1.1.4 1.6.1.3.1.5.1.6.1.2.1.7.2.8v1.3c.1 0 .2-.1.2-.2.2-.2.3-.9.3-1.1 0-.3-.8-3.2-1.1-4.1-.1-.2-.2-.5-.3-.8-.4-1.2-1-2.9-1.1-3.8-.2-1.5-.1-3 .2-4.3.4-1.7 1.2-4.1 1.2-4.2.5-.7.9-1.3.8-1.5-.2-.3-.4-1.3-.5-1.4V866l-.3.1z"/><path fill="#6D564A" d="M112.7 891.9h.7l.5.2s-1 .4-1.2 1.2c-.1.8 0 2.2 0 2.2l-1.4-.9s-.6-1 0-1.6c.7-.7 1.4-1.1 1.4-1.1z"/><path fill="#907663" d="M111.4 865.5v3.8s-1.7 2.3-1.8 4.3c-.1 2 .7 3.1.9 4.7.3 1.7.9 2.8.9 2.8s-.1-1.9.1-2.5c.2-.6 1.3-4 1.3-4l.6-1.6-.7-1.4v-6.1h-1.3z"/><path fill="#6D564A" d="M111.1 886s.1.4.6.6l.5.2.4-.6-.7-.4-.8.2z"/><path fill="#6D564A" d="M113.8 889.4h-1.1l-.9-.4s-1.6-2.3-1.8-2.7c-.2-.4-.8-1.5 0-1.7.8-.2 1.8.6 1.8.6v.6l-.7.2.6.6.9.2 1.2 2.6z"/><path fill="#907663" d="M112.2 884.6l-1.1-.5-1.1.5 1.1.2.7.4h.7z"/><path fill="#E4C5A9" d="M116 876.6v-11h14.3c5.3 0 12.7-.4 12.7-.4l-.6 10.8s-1.3-1.3-2.8-1.2c-1.6.1-7 1.6-9.1 1.6-2.1.1-7.3-1-9.6-1.2-2.6-.2-4.9 1.4-4.9 1.4z"/><path fill="#E4C5A9" d="M115.8 877v-11.5h14.5c5.2 0 12.6-.4 12.7-.4h.2l-.7 11.4-.4-.4s-1.2-1.2-2.6-1.2c-.7 0-2.2.4-3.8.7-2 .4-4.1.9-5.3.9-1.3 0-3.6-.3-5.8-.7-1.5-.2-2.9-.4-3.8-.5-2.4-.2-4.7 1.4-4.7 1.4l-.3.3zm.4-11.2v10.5c.8-.5 2.7-1.4 4.7-1.2.9.1 2.3.3 3.8.5 2.2.3 4.5.7 5.7.6 1.1 0 3.3-.5 5.2-.9 1.6-.4 3.2-.7 3.9-.7 1.2-.1 2.1.6 2.6 1l.6-10.1c-1.3.1-7.8.4-12.5.4h-14v-.1z"/><path fill="#907663" d="M118.6 874.9v-7.7h11.7c4.3 0 10.4-.3 10.4-.3l-.5 7.5s-1-.9-2.3-.9c-1.3.1-5.7 1.1-7.4 1.1-1.7.1-6-.7-7.8-.8-2.2 0-4.1 1.1-4.1 1.1z"/><path fill="#C8A35F" stroke="#C8A35F" stroke-width=".25" d="M130.7 870.7c0 .4-.5.8-1 .8-.6 0-1-.3-1-.8 0-.4.5-.8 1-.8s1 .3 1 .8z"/><path fill="#E4C5A9" d="M163.3 876.4l-20.8.1.5-11.3h20.4z"/><path fill="#907663" d="M192.4 866.7s-.5 3.1-.5 4c0 .8-.3.9 0 2.1.3 1.2 1.6 2.9 1.8 4.9.3 2 .2 3.7-.5 5.2s-3.7 6.2-3.9 7.1c-.2.9-.7 2.2 0 2.7s1.7.3 1.7.3l-.3-.4s-1.2-.5-1.1-1.3c.1-.9.9-2.8 1.3-3.4.4-.6 1.2-2.4 1.8-3 .6-.7 1.8-3.4 1.8-4.1 0-.7 0-3.2-.2-3.9-.1-.5-1.6-3.2-1.8-4.1-.2-.9.6-6 .6-6h-.7z"/><path fill="#907663" d="M190.7 893.1c-.4 0-1-.1-1.5-.4-.7-.4-.4-1.4-.2-2.3 0-.2.1-.3.1-.5.1-.5 1.1-2.2 2.1-4 .7-1.3 1.4-2.5 1.7-3.1.6-1.4.8-3 .5-5.1-.2-1.2-.7-2.2-1.1-3.2-.3-.7-.6-1.2-.7-1.7-.2-.8-.1-1.1-.1-1.4 0-.2.1-.4.1-.7 0-.8.5-3.8.5-4v-.1h1.2v.2c0 .1-.8 5.1-.6 6 .1.5.6 1.6 1.1 2.5.3.7.6 1.3.7 1.5.2.8.2 3.6.2 3.9 0 .7-1.1 3.5-1.8 4.2-.4.4-.8 1.2-1.2 1.9-.3.5-.5.9-.7 1.2-.4.6-1.2 2.5-1.3 3.3-.1.7 1 1.2 1 1.2h.1l.4.6h-.5zm1.9-25.3c-.1.8-.5 2.1-.5 2.9 0 .3 0 .5-.1.7-.1.3-.1.6.1 1.4.1.5.4 1 .7 1.6.5 1 1 2 1.2 3.2.3 2.2.1 3.8-.5 5.3-.3.6-1 1.9-1.7 3.1-.9 1.6-2 3.5-2.1 3.9 0 .2-.1.3-.1.5-.2.7-.4 1.7.1 2 .4.2.9.3 1.2.3l-.1-.1c-.3-.1-1.3-.6-1.2-1.4.1-.9.9-2.8 1.3-3.4.2-.2.4-.7.7-1.1.4-.7.8-1.5 1.2-1.9.6-.7 1.7-3.4 1.7-4 0-1.1 0-3.2-.2-3.9 0-.2-.3-.8-.7-1.5-.5-1-1-2.1-1.1-2.6-.2-.8.5-4.8.6-5.9h-.4v.9z"/><path fill="#907663" d="M191.2 890.9s1.1.2 1.5.9c.4.7 0 1.8 0 1.8l1.1-.6s.4-1.4-.6-2.1c-1-.7-1.3-.3-1.3-.3l-.7.3z"/><path fill="#6D564A" d="M187.1 874.5s1.8 4 1.9 5.4c.2 1.4-.3 5.4-1.1 6.6-.8 1.2-1.7 2.8-1.7 3.9 0 0 .7 2.1 1 3.1.3 1 .7 1.5.7 1.5l2.3.5s1.2-.2 1.1-.6 1.3-1.1 1.3-1.1l.2-.4s.5-1.6-.2-2c-.6-.4-1.3-.6-1.3-.6s-.9-.2-1.1.5c-.2.7.6 1.2.6 1.2s-.3.6-.6.4c-.4-.1-1.3-.7-1-1.9.3-1.2 1-2.8 1.4-3.3.3-.6 1.4-2.4 1.8-3.2.4-.7 1.5-2.9 1.6-3.9.1-1 .1-2.7-.1-3.5-.2-.8-1.5-3.6-1.7-4.1-.1-.4.1-4.9.1-4.9l.2-2.4-2.2-1H188l-.9 9.8zm-3.8.5s.3 2.2 0 3.2c-.4 1.1-1.4 5.1-1.6 5.8-.5 1.7.9 4.1.9 4.1h.9s-1.2-2-.9-3.4c.3-1.3.9-4.2 1.3-5.3.4-1.1.5-3.7.5-3.7v-1l-1.1.3z"/><path fill="#6D564A" d="M183.4 888.3h-1l-.1-.1c-.1-.1-1.4-2.4-.9-4.2.1-.2.2-.7.3-1.2.4-1.5 1-3.9 1.3-4.6.3-1 0-3.1 0-3.2v-.1l1.5-.3v1.2c0 .1-.2 2.7-.5 3.8-.3 1-.9 3.6-1.2 5l-.1.3c-.3 1.2.9 3.2.9 3.3l.1.2h-.3v-.1zm-.7-.3h.4c-.3-.6-1-2.1-.8-3.2l.1-.3c.3-1.4.9-4 1.2-5 .3-1 .5-3.7.5-3.7v-.8l-.6.1c.1.5.3 2.2 0 3.1-.3.8-.9 3.1-1.3 4.6-.2.6-.3 1-.3 1.2-.4 1.6.6 3.5.8 4z"/><path fill="#907663" d="M185.1 884.8v-.4s-.8-.5 0-.8c.8-.3 1.2.3 1.1.6-.2.3-1.4 3-1.4 3l-.8.9h-.6s-.5-1-.7-1.6c-.2-.6-.1-2-.1-2s.8-3.6 1-4.2c.2-.7.6-2.7.6-3 0-.3.1-2 .1-2v-.4l2.3-.4s0 1-.5 2.8c-.5 1.8-1.6 4.1-1.5 4.1l-.3 2.1v1.6s-.3.3 0 .5c.3-.1.8-.8.8-.8z"/><path fill="#907663" d="M184.1 888.3h-.8l-.1-.1s-.6-1.1-.7-1.7c-.2-.6-.1-2-.1-2.1 0-.2.8-3.6 1-4.3.2-.7.6-2.6.6-3 0-.3.1-2 .1-2v-.5l2.8-.5v.2s0 1.1-.5 2.8c-.4 1.3-1 2.9-1.4 3.6l-.2.4c0 .2-.1.7-.3 2.1v1.6c0 .1-.1.2-.1.2l.5-.5v-.3c-.1-.1-.4-.3-.3-.5 0-.2.2-.3.5-.5.5-.2 1-.1 1.3.2.2.2.2.4.1.6-.1.2-.9 1.9-1.4 3l-1 1.3zm-.5-.3h.3l.7-.8c.2-.4 1.2-2.8 1.4-3 0 0 0-.2-.1-.3-.1-.1-.2-.2-.4-.2-.1 0-.2 0-.3.1-.2.1-.2.1-.2.2s.2.3.3.3l.1.1v.5c-.2.3-.6.7-.9.7h-.2c-.3-.2-.2-.5-.1-.6v-1.5c.1-.7.3-1.8.3-2 0-.1 0-.2.2-.6.3-.8 1-2.3 1.3-3.6.4-1.3.5-2.2.5-2.6l-1.9.3v.3c0 .1-.1 1.7-.1 2 0 .3-.4 2.3-.6 3-.2.7-1 4.2-1 4.2s0 1.4.1 2c.1.5.5 1.2.6 1.5z"/><g fill="#E4C5A9"><path d="M163.1 876.3v-11h14.3c5.3 0 12.7-.4 12.7-.4l-.6 10.8s-1.3-1.3-2.8-1.2c-1.6.1-7 1.6-9.1 1.6-2.1.1-7.3-1-9.6-1.2-2.5-.2-4.9 1.4-4.9 1.4z"/><path d="M162.9 876.7v-11.5h14.5c5.2 0 12.6-.4 12.7-.4h.2l-.7 11.4-.4-.4s-1.2-1.2-2.6-1.2c-.7 0-2.2.4-3.8.7-2 .4-4.1.9-5.3.9-1.3 0-3.6-.3-5.8-.7-1.5-.2-2.9-.4-3.8-.5-2.4-.2-4.7 1.4-4.7 1.4l-.3.3zm.5-11.3V876c.8-.5 2.6-1.4 4.7-1.2.9.1 2.3.3 3.8.5 2.2.3 4.5.7 5.7.7 1.1 0 3.3-.5 5.2-.9 1.6-.4 3.2-.7 3.9-.7 1.2-.1 2.1.6 2.6 1l.6-10.1c-1.3.1-7.8.4-12.5.4h-14v-.3z"/></g><path fill="#907663" d="M165.8 874.5v-7.7h11.7c4.3 0 10.4-.3 10.4-.3l-.5 7.5s-1-.9-2.3-.9c-1.3.1-5.7 1.1-7.4 1.1-1.7.1-6-.7-7.8-.8-2.2 0-4.1 1.1-4.1 1.1z"/><path fill="#C8A35F" stroke="#C8A35F" stroke-width=".25" d="M177.8 870.3c0 .4-.5.8-1 .8-.6 0-1-.3-1-.8 0-.4.5-.8 1-.8.6.1 1 .4 1 .8z"/><path fill="#B49884" d="M109.6 863.8s-.7.6 0 .6c2.8 0 1.3 1.4 1.3 1.6 0 .3.8.3 2 .7 1.3.5 1.5.2.1.6-.5.2.4.2-.3.3-.5.1.2.7.2.7s3.4.1 6.8.4c1.9.1 3.4.4 3.4.4s7.4-.2 10.4-.4 19.3 0 21.6 0c2.3 0 19.5-.3 21.8-.3h16.3s5.6-.7 5.6-.8c0 0 .3-.5-.4-.6-1.3-.1-3.7.2-4.8-.2-.6-.2-2.3-.9-3.4-1-1.1-.2-7-1.2-7-1.2l-.8-.5-68.5-.7-4.3.4z"/><path fill="#E4C5A9" d="M110 863.8s2.1.3 2.1.6-1.3.8 0 1.2c1.3.5 2.8.7 2.8 1.1 0 .2-.9.4-1.6.5-.5.1-.8.1-.8.1s3.3.5 6.9.5c2 0 3.2.3 3.2.3s7.4-.2 10.4-.4 19.3 0 21.6 0c2.3 0 19.5-.3 21.8-.3h16.3l5.9-.5s-3.8-.3-5.5-1c-.6-.2-2.3-.9-3.4-1.1-1.1-.2-7-1.2-7-1.2l-.9-.5-67.8.1-4 .6z"/><g fill="#0F0C17"><path d="M121.7 861.7s-.1 0 0 0c-.1.1.1.1.1.1h2.6v-.1h-2.7zm0 .4s-.1 0 0 0c-.1.1.1.1.1.1h2.6v-.1h-2.7zm-.1-.8c-.1.1.1.1.1.1h2.6v-.1h-2.7zm0-.8c-.1.1.1.1.1.1h2.6v-.1h-2.7zm0 .4c-.1.1.1.1.1.1h2.6v-.1h-2.7zm0-.7s-.1 0 0 0c-.1.1.1.1.1.1h2.6v-.1h-2.7zm.1-.8s-.1 0 0 0c-.1.1.1.1.1.1h2.6v-.1h-2.7zm0 .4s-.1 0 0 0c-.1.1.1.1.1.1h2.6v-.1h-2.7zm-.1-.8c-.1.1.1.1.1.1h2.6v-.1h-2.7zm.1-.8s-.1 0 0 0c-.1.1.1.1.1.1h2.6v-.1h-2.7zm0 .4s-.1 0 0 0c-.1.1.1.1.1.1h2.6v-.1h-2.7zm0-.7s-.1 0 0 0c-.1.1.1.1.1.1h2.6v-.1h-2.7zm0-.8s-.1 0 0 0c-.1.1.1.1.1.1h2.6v-.1h-2.7zm0 .4s-.1 0 0 0c-.1.1.1.1.1.1h2.6v-.1h-2.7zm0-.8s-.1 0 0 0c-.1.1.1.1.1.1h2.6v-.1h-2.7zm0-.7c-.1.1.1.1.1.1h2.6v-.1h-2.7zm0 .3c-.1.1.1.1.1.1h2.6v-.1h-2.7zm0-.7s-.1 0 0 0c-.1.1.1.1.1.1h2.6v-.1h-2.7zm.1-.8s-.1 0 0 0c-.1.1.1.1.1.1h2.6v-.1h-2.7zm0 .4s-.1 0 0 0c-.1.1.1.1.1.1h2.6v-.1h-2.7zm-.1-.8c-.1.1.1.1.1.1h2.6v-.1h-2.7zm.1-.7s-.1 0 0 0c-.1.1.1.1.1.1h2.6v-.1h-2.7zm0 .4s-.1 0 0 0c-.1.1.1.1.1.1h2.6v-.1h-2.7zm0-.8s-.1 0 0 0c-.1.1.1.1.1.1h2.6v-.1h-2.7zm0-.8s-.1 0 0 0c-.1.1 0 .1 0 .1h2.6v-.1h-2.6zm0 .4s-.1 0 0 0c-.1.1.1.1.1.1h2.6v-.1h-2.7zm0-.7s-.1 0 0 0c-.1.1.1.1.1.1h2.6v-.1h-2.7z"/><path d="M122.4 851.8s2-.4 2.3.1c.2.2 1 4.5 1.1 5.6.1 1.1-.3 4.8-.5 5-.4.5-3.2-.1-3.4-.1-.2 0-.2-.2 0-.2s1.7-.1 1.9-.1c.3 0 .7-2.2.7-2.9s-.2-2.9-.4-3.6c-.2-.7-.2-3.1-.3-3.3-.1-.2-.2-.2-.7-.2h-.9s-.3-.1-.3-.2c-.2-.2.5-.1.5-.1z"/></g><path fill="#565756" d="M130.4 865c-.9.3-2.3 0-3.2-.1-.9-.2-3.2-.8-3.4-1.1-.2-.3 1.3-6 1.6-6.1.3-.2 1.8-.5 2.3-.8.5-.3 1-1 1-1.4 0-.4.4-2.8.5-3.4.2-.6.4-1.2.7-1.2.3 0 .7-.3.9-.2.2.1.9.5 1 .6v.7c0 .4-.6 1.9-.8 2.2-.2.3-.7 1.5-.7 1.8 0 .3-.2.8-.1 1 .1.2 1.9 1.6 2.1 1.8-.1 0-1 5.8-1.9 6.2z"/><path fill="#868682" d="M130.3 864.8c-.8.3-2.2 0-3.1-.1-.9-.2-3.1-.8-3.3-1-.2-.3 1.3-5.8 1.5-5.9.3-.1 1.7-.5 2.2-.8.5-.3.9-.9 1-1.3 0-.4.3-2.7.5-3.3.2-.6.3-1.1.6-1.2.3 0 .7-.3.8-.2.2.1.9.4.9.6v.7c0 .4-.6 1.8-.8 2.1-.2.3-.7 1.4-.7 1.7 0 .2-.2.7-.1.9.1.2 1.9 1.6 2 1.7.2.2-.7 5.8-1.5 6.1z"/><path fill="#1E1E1D" d="M124.7 863.8s-.3-.2-.4-.4c0-.2 1.4-5.3 1.4-5.3s.2-.5.8-.5c.6 0 4 .6 4 .6s.7.1.9.4c.2.3.1.6.1.6l-1.3 4.9s-.6.5-.8.4c-.1.1-4.7-.7-4.7-.7z"/><path d="M128.9 864.5v.3l.2.1v-.4z"/><path fill="#FFFFFA" d="M129 864.8c.1.1 0 .1 0 0 0 .1 0 .1 0 0-.1.1-.1 0 0 0z"/><path d="M128.4 864.5v.3l.1.1v-.4z"/><path fill="#FFFFFA" d="M128.4 864.8s.1 0 0 0c.1.1.1.1 0 0 .1.1 0 .1 0 0 0 .1 0 0 0 0z"/><path d="M127.9 864.4l-.1.4h.1l.1-.3z"/><path fill="#FFFFFA" d="M127.8 864.8s.1 0 0 0c.1 0 .1 0 0 0z"/><path d="M127.5 864.3l-.1.3.1.1.1-.3z"/><path fill="#FFFFFA" d="M127.4 864.7c0-.1.1 0 0 0 .1 0 .1 0 0 0z"/><path d="M127 864.3l-.2.3h.1l.2-.3z"/><path fill="#FFFFFA" d="M126.8 864.6c.1 0 .1 0 0 0 .1 0 .1 0 0 0z"/><path d="M126.6 864.2l-.2.3h.1l.2-.3z"/><path fill="#FFFFFA" d="M126.4 864.5c.1 0 .1 0 0 0 .1 0 .1.1 0 0 0 .1 0 .1 0 0z"/><path d="M126 864.1l-.2.3h.1l.2-.3z"/><path fill="#FFFFFA" d="M125.8 864.4c.1 0 .1 0 0 0 .1 0 .1.1 0 0 0 .1 0 0 0 0z"/><path d="M125.7 864l-.3.2.1.1.3-.3z"/><path fill="#FFFFFA" d="M125.4 864.2c.1 0 .1.1 0 0 .1.1.1.1 0 0 0 .1 0 .1 0 0 0 .1 0 0 0 0z"/><path d="M125.1 863.8l-.3.3.1.1.3-.3zm-.5-.2l-.5.1.1.1.4-.1z"/><path fill="#FFFFFA" d="M124.1 863.7c.1.1.1.1 0 0 .1.1 0 .1 0 0 0 .1 0 .1 0 0z"/><path d="M124.5 863.1h-.7v.1h.7z"/><path fill="#FFFFFA" d="M123.8 863.1c0 .1-.1.1-.1.1v-.1c0-.1.1 0 .1 0z"/><path d="M124.6 862.6h-.7v.1h.7z"/><path fill="#FFFFFA" d="M123.9 862.6c0 .1 0 .1 0 0 0 .1-.1.1-.1.1v-.1h.1z"/><path d="M124.7 862.3h-.7v.1h.7z"/><path fill="#FFFFFA" d="M124 862.3c0 .1-.1.1-.1.1v-.1c0-.1.1 0 .1 0z"/><path d="M124.8 862h-.7v.1h.7z"/><path fill="#FFFFFA" d="M124.1 862c0 .1-.1.1-.1.1v-.1c0-.1.1-.1.1 0z"/><path d="M124.9 861.7l-.7-.1-.1.1.8.1z"/><path fill="#FFFFFA" d="M124.2 861.6c0 .1 0 .1 0 0 0 .1-.1.1-.1.1v-.1h.1z"/><path d="M125 861.3h-.7l-.1.1h.8z"/><path fill="#FFFFFA" d="M124.3 861.3c0 .1-.1.1-.1.1v-.1c0-.1 0-.1.1 0z"/><path d="M125.1 861l-.6-.1-.1.1.7.1z"/><path fill="#FFFFFA" d="M124.4 860.9c.1.1.1.1 0 0 0 .1-.1.1-.1.1v-.1h.1z"/><path d="M125.1 860.6h-.7v.1h.7z"/><path fill="#FFFFFA" d="M124.4 860.6c0 .1-.1.1-.1.1v-.1c0-.1.1-.1.1 0z"/><path d="M125.2 860.2h-.7l-.1.1h.8z"/><path fill="#FFFFFA" d="M124.5 860.2c0 .1-.1.1-.1 0v-.1l.1.1z"/><path d="M125.3 860l-.7-.1v.1l.7.1z"/><path fill="#FFFFFA" d="M124.6 859.9c.1 0 .1.1 0 0 0 .1-.1.1-.1.1v-.1h.1z"/><path d="M125.5 859.6h-.7v.1h.7z"/><path fill="#FFFFFA" d="M124.8 859.6c0 .1-.1.1-.1.1v-.1c0-.1.1 0 .1 0z"/><path d="M125.5 859.3l-.7-.1v.1l.7.1z"/><path fill="#FFFFFA" d="M124.8 859.2s0 .1 0 0c0 .1-.1.1-.1 0v-.1c0 .1.1.1.1.1z"/><path d="M125.6 859l-.7-.1v.1l.7.1z"/><path fill="#FFFFFA" d="M124.9 858.9s0 .1 0 0c0 .1-.1.1-.1.1v-.1h.1z"/><path d="M125.7 858.6l-.7-.1-.1.1.8.1z"/><path fill="#FFFFFA" d="M125 858.5s0 .1 0 0c-.1.1-.1.1-.1 0v-.1l.1.1z"/><path d="M126 858.2l-.6-.3-.2.1.7.3z"/><path fill="#FFFFFA" d="M125.4 857.9c0 .1-.1.1 0 0-.1.1-.1 0-.1 0h.1c-.1 0-.1 0 0 0z"/><path d="M129.6 864.4l.4.4h.2l-.4-.4z"/><path fill="#FFFFFA" d="M130 864.8h.1s.1 0 0 .1l-.1-.1c0 .1 0 0 0 0z"/><path d="M130 864l.6.2h.1l-.6-.3z"/><path fill="#FFFFFA" d="M130.6 864.2c.1-.1.1-.1.1 0 .1 0 .1.1-.1 0 .1.1 0 .1 0 0z"/><path d="M130.2 863.6l.6.2.1-.1-.7-.2z"/><path fill="#FFFFFA" d="M130.8 863.8c.1-.1.1-.1.1 0 .1 0 0 .1-.1 0 .1.1 0 .1 0 0z"/><path d="M130.3 863.3l.7.1v-.1l-.7-.1z"/><path fill="#FFFFFA" d="M131 863.4s0-.1 0 0c.1-.1.1-.1.1 0v.1l-.1-.1z"/><path d="M130.3 863l.7.1v-.1l-.7-.1z"/><path fill="#FFFFFA" d="M131 863.1c-.1 0 0-.1 0 0 .1-.1.1-.1.1 0v.1l-.1-.1z"/><path d="M130.4 862.7l.7.1v-.1l-.7-.1z"/><path fill="#FFFFFA" d="M131.1 862.8c-.1 0 0-.1 0 0 .1-.1.1-.1.1 0v.1l-.1-.1z"/><path d="M130.3 862.4l.7.1.1-.1-.7-.1z"/><path fill="#FFFFFA" d="M131 862.5c0-.1 0-.1 0 0 .1-.1.1-.1.1 0v.1c0-.1 0-.1-.1-.1z"/><path d="M130.5 862l.6.1.1-.1-.7-.1z"/><path fill="#FFFFFA" d="M131.2 862.1c-.1 0-.1-.1 0 0 .1-.1.1-.1.1 0v.1c-.1 0-.1-.1-.1-.1z"/><path d="M130.7 861.7h.7v-.1h-.7z"/><path fill="#FFFFFA" d="M131.4 861.7c.1-.1.1-.1.1 0v.1s-.1 0-.1-.1z"/><path d="M130.7 861.3l.7.1.1-.1-.8-.1z"/><path fill="#FFFFFA" d="M131.4 861.4c0-.1 0-.1 0 0 0-.1.1-.1.1 0v.1c0-.1-.1-.1-.1-.1z"/><path d="M130.9 860.9l.7.1.1-.1-.7-.1z"/><path fill="#FFFFFA" d="M131.6 861s0-.1 0 0c.1-.1.1-.1.1 0v.1c0-.1 0-.1-.1-.1z"/><path d="M131 860.6l.7.1v-.1l-.7-.1z"/><path fill="#FFFFFA" d="M131.7 860.7c0-.1 0-.1 0 0 .1-.1.1-.1.1 0v.1c0-.1-.1-.1-.1-.1z"/><path d="M131 860.2l.7.1.1-.1-.8-.1z"/><path fill="#FFFFFA" d="M131.7 860.3s0-.1 0 0c.1-.1.1-.1.1 0v.1l-.1-.1z"/><path d="M131.2 859.9l.7.1v-.1l-.7-.1z"/><path fill="#FFFFFA" d="M131.9 860c0-.1 0-.1 0 0 0-.1.1-.1.1 0v.1c0-.1-.1-.1-.1-.1z"/><path d="M131.4 859.5l.7.1.1-.1-.8-.1z"/><path fill="#FFFFFA" d="M132.1 859.6s0-.1 0 0c.1-.1.1-.1.1 0v.1c0-.1-.1-.1-.1-.1zm-2.9 4.7h.2v.1h-.2v-.1zm-.5-.3h.2v.1c-.2 0-.2 0-.2-.1-.1.1-.1 0 0 0zm-.7 0h.2v.1c-.1.1-.2.1-.2-.1 0 .1 0 0 0 0zm-.6-.3h.2v.1h-.2v-.1zm0 .4h.2v.1h-.2c-.1 0-.1 0 0-.1zm-.4-.3h.2v.1h-.2v-.1zm-.6.1h.2v.1c-.1 0-.2 0-.2-.1-.1 0-.1 0 0 0zm-.6-.3h.2v.1c-.1.1-.2.1-.2-.1 0 .1 0 .1 0 0zm1.7-.1h.2v.1c-.1.1-.2.1-.2-.1-.1.1 0 0 0 0zm-1-.2h.2v.1c-.2.1-.2.1-.2-.1-.1.1-.1.1 0 0zm-.1.3h.2v.1c-.1 0-.2 0-.2-.1-.1 0 0 0 0 0zm-.5-.2h.2v.1h-.2c-.1-.1-.1-.1 0-.1zm.6-.3h.2v.1h-.2v-.1zm-1.1.3h.2v.1h-.2c-.1-.1-.1-.1 0-.1zm1.6.2h.2v.1h-.2v-.1zm0-.3h.2v.1h-.2v-.1zm.1-.3h.2v.1c-.1 0-.2 0-.2-.1-.1.1-.1 0 0 0zm0-.3h.2v.1h-.2c-.1 0-.1-.1 0-.1zm.1-.3h.2v.1h-.2v-.1zm0-.3h.2v.1h-.2c-.1-.1 0-.1 0-.1zm.1-.2h.2v.1h-.2c-.1-.1 0-.1 0-.1zm.1-.3h.2v.1h-.2c-.1 0-.1-.1 0-.1zm.1-.3h.2v.1h-.2c-.1-.1-.1-.1 0-.1zm.1-.5h.2v.1h-.2v-.1zm.2-.3h.2v.1h-.2c-.1 0-.1-.1 0-.1zm.1-.3h.2v.1h-.2c-.1 0-.1-.1 0-.1zm0-.3h.2v.1c-.1 0-.2 0-.2-.1-.1.1-.1 0 0 0zm.1-.3h.2v.1h-.2c-.1-.1-.1-.1 0-.1zm-.4 1.5h.2v.1c-.2 0-.2 0-.2-.1-.1 0-.1 0 0 0zm.5-1.9h.2v.1c-.2.1-.2.1-.2-.1-.1.1-.1.1 0 0zm.2-.5h.2v.1c-.1 0-.2 0-.2-.1-.1 0 0 0 0 0zm.1-.3h.2v.1c-.2.1-.2.1-.2-.1-.1.1-.1.1 0 0zm-.2.6h.2v.1h-.2c-.1-.1-.1-.1 0-.1zm1.3 4.9h.2v.1c-.1 0-.2 0-.2-.1-.1 0 0 0 0 0zm-.3-.5h.2v.1c-.1 0-.2 0-.2-.1 0 .1 0 0 0 0zm.5 0h.2v.1h-.2c-.1 0-.1-.1 0-.1zm.2-.4h.2v.1h-.2c-.1 0-.1 0 0-.1zm.1-.4h.2v.1c-.2.1-.2.1-.2-.1-.1.1-.1.1 0 0zm0-.4h.1v.1c0 .1-.1.1-.1-.1-.1.1 0 0 0 0zm0-.4h.2v.1c-.1.1-.2.1-.2-.1-.1.1-.1.1 0 0zm0-.3h.2v.1c-.1 0-.1 0-.2-.1 0 .1 0 0 0 0zm.2-.4h.2v.1c-.1.1-.2 0-.2-.1-.1.1 0 0 0 0zm0-.4h.2v.1h-.2v-.1zm.2-.3h.2v.1c-.1 0-.2 0-.2-.1-.1 0-.1 0 0 0zm0-.4h.2v.1c-.2 0-.2 0-.2-.1-.1 0-.1 0 0 0zm0-.5h.2v.1c-.2 0-.2 0-.2-.1-.1 0-.1 0 0 0zm-.6-.6h.2v.1c-.1.1-.2.1-.2-.1-.1.1 0 0 0 0zm.9-.5h.2v.1h-.2c-.1 0-.1 0 0-.1zm-.2.6h.2v.1h-.2c-.1-.1-.1-.1 0-.1zm-1.4 4.1h.2v.1h-.2c-.1 0 0-.1 0-.1zm.1-.4h.2v.1h-.2c-.1 0-.1-.1 0-.1zm.2-.3h.2v.1c-.1 0-.2 0-.2-.1-.1 0 0 0 0 0zm0-.5h.2v.1h-.2c-.1 0 0-.1 0-.1zm0-.3h.2v.1h-.2c-.1-.1 0-.1 0-.1zm.2-.4h.2v.1h-.2c-.1 0-.1 0 0-.1zm.1-.4h.2v.1h-.2c-.1-.1-.1-.1 0-.1zm0-.5h.2v.1h-.2c-.1 0 0 0 0-.1zm.1-.4h.2v.1c-.1.1-.2 0-.2-.1-.1.1-.1 0 0 0zm-1.6 3.5h.2v.1h-.2c-.1 0-.1-.1 0-.1zm.1-.2h.2v.1h-.2v-.1zm.1-.3h.2v.1c-.1.1-.2.1-.2-.1-.1.1 0 0 0 0zm.1-.3h.2v.1c-.1 0-.2 0-.2-.1-.1 0-.1 0 0 0zm1.3-3.1h.2v.1c-.1 0-.2 0-.2-.1zm-1.8 4.2h.2v.1c-.1.1-.2.1-.2-.1-.1.1 0 .1 0 0zm.6-1.5h.2v.1c-.1.1-.2.1-.2-.1-.1.1-.1.1 0 0zm1.3-3.7h.2v.1h-.2c-.1 0-.1 0 0-.1zm0-.2h.2v.1h-.2v-.1zm-1.3 3.7h.2v.1h-.2c-.1-.1-.1-.1 0-.1zm-1 1.2h.2v.1c-.2.1-.2.1-.2-.1-.1.1-.1.1 0 0zm.1-.3h.2v.1h-.2c-.1 0-.1-.1 0-.1zm.1-.3h.2v.1c-.2.1-.2 0-.2-.1-.1.1-.1 0 0 0zm0-.2h.2v.1c-.1.1-.2 0-.2-.1-.1.1-.1 0 0 0zm0-.3h.2v.1h-.2c-.1-.1-.1-.1 0-.1zm.3-.2h.2v.1h-.2c-.1-.1-.1-.1 0-.1zm0-.4h.2v.1c-.1.1-.2.1-.2-.1-.1.1 0 0 0 0zm.1-.3h.2v.1c-.1.1-.2.1-.2-.1-.1.1-.1 0 0 0zm0-.3h.2v.1c-.1.1-.2.1-.2-.1 0 .1 0 .1 0 0zm.2-.4h.2v.1c-.1 0-.2 0-.2-.1-.1.1-.1 0 0 0zm.1-.4h.2v.1c-.1.1-.2.1-.2-.1 0 .1 0 0 0 0zm.1-.2h.2v.1c-.1 0-.2 0-.2-.1zm.1 1.8h.2v.1c-.2.1-.2.1-.2-.1-.1.1-.1.1 0 0zm0-.3h.2v.1h-.2v-.1zm-.4-.7h.2v.1c-.1.1-.2.1-.2-.1 0 .1 0 .1 0 0zm-1.2-2.5h.2v.1c-.1 0-.1 0-.2-.1zm1.8 2.6h.2v.1h-.2c-.1 0-.1 0 0-.1zm.1-.2h.2v.1h-.2c-.1 0 0 0 0-.1zm-.2.6h.2v.1c-.1 0-.2 0-.2-.1zm.2-.8h.2v.1c-.1 0-.2 0-.2-.1zm.1-.4h.2v.1h-.2c-.1 0-.1 0 0-.1zm.1-.2h.2v.1h-.2c-.1-.1-.1-.1 0-.1zm-.6-.3h.2v.1h-.2c-.1 0-.1-.1 0-.1zm.6-.1h.2v.1c-.2.1-.2.1-.2-.1-.1.1-.1 0 0 0zm-.6-.1h.2v.1h-.2c-.1-.1 0-.1 0-.1zm0-.3h.2v.1h-.2c-.1-.1 0-.1 0-.1zm.6.1h.2v.1c-.1.1-.2.1-.2-.1-.1.1-.1.1 0 0zm-.2-.5h.2v.1c-.2.1-.2.1-.2-.1-.1.1-.1 0 0 0zm.4-.2h.2v.1h-.2c-.1 0-.1 0 0-.1zm-.4-.1h.2v.1c-.2 0-.2 0-.2-.1-.1 0-.1 0 0 0zm-1.8.2h.2v.1c-.2 0-.2 0-.2-.1-.1.1-.1 0 0 0zm.7-.3h.2v.1c-.1 0-.2 0-.2-.1zm-1.8 4h.2v.1c-.2.1-.2.1-.2-.1-.1.1-.1 0 0 0zm3.2-3.4h.2v.1c-.1 0-.2 0-.2-.1-.1.1-.1 0 0 0zm-4.4 3.1h.2v.1h-.2c-.1 0-.1-.1 0-.1zm2.8-3.4h.2v.1c-.1.1-.2.1-.2-.1-.1.1-.1.1 0 0zm-1.2-.4h.2v.1c-.1 0-.2 0-.2-.1zm.2.4h.2v.1h-.2c-.1-.1-.1-.1 0-.1zm-1.8 5h.2v.1c-.1.1-.2.1-.2-.1-.1.1-.1 0 0 0zm1.8-3.7h.2v.1c-.2 0-.2 0-.2-.1-.1 0-.1 0 0 0zm-.7 3.2h.2v.1h-.2c-.1 0-.1-.1 0-.1zm-.5-.1h.2v.1h-.2c-.1 0-.1-.1 0-.1zm-.8.1h.2v.1c-.1.1-.2.1-.2-.1 0 .1 0 .1 0 0zm0-.4h.2v.1c-.1 0-.2 0-.2-.1-.1.1 0 0 0 0zm.7-.1h.2v.1c-.2.1-.2.1-.2-.1-.1.1-.1.1 0 0zm.6.3h.2v.1h-.2c-.1 0-.1-.1 0-.1zm.6 0h.2v.1h-.2v-.1zm.1-.6h.2v.1c-.1.1-.2 0-.2-.1-.1.1-.1 0 0 0zm-.8.3h.2v.1c-.1 0-.2 0-.2-.1 0 .1 0 0 0 0zm-.4-.3h.2v.1h-.2c-.1 0 0 0 0-.1zm-.6 0h.2v.1c-.2.1-.2 0-.2-.1-.1.1-.1 0 0 0zm.8-.4h.2v.1c-.1 0-.2 0-.2-.1-.1.1 0 0 0 0zm.9.7h.2v.1h-.2c-.1-.1 0-.1 0-.1zm.2-.5h.2v.1c-.1 0-.2 0-.2-.1zm-.6 0h.2v.1h-.1c-.2-.1-.2-.1-.1-.1zm.4-2h.2v.1c-.1 0-.2 0-.2-.1-.1.1-.1 0 0 0zm-.4 1.7h.2v.1c-.1 0-.2 0-.2-.1-.1 0-.1 0 0 0zm.6 0h.2v.1c-.1 0-.2 0-.2-.1-.1.1-.1 0 0 0zm-.6-.3h.2v.1c-.1.1-.2.1-.2-.1-.1.1-.1.1 0 0zm.8 0h.2v.1c-.2.1-.2.1-.2-.1-.1.1-.1.1 0 0zm-.7-.3h.2v.1h-.2v-.1zm-.7.2h.2v.1c-.1.1-.1.1-.2-.1 0 .1 0 .1 0 0zm1.5-.4h.2v.1c-.1.1-.1 0-.2-.1 0 .1 0 0 0 0zm-.7-.1h.2v.1h-.2v-.1zm-.7.1h.2v.1h-.2c-.1 0-.1-.1 0-.1zm1.4-.2h.2v.1c-.1 0-.2 0-.2-.1-.1 0 0 0 0 0zm-1.2-.2h.2v.1c-.1.1-.2.1-.2-.1-.1.1-.1.1 0 0zm-.5-.2h.2v.1c-.2 0-.2 0-.2-.1-.1.1-.1 0 0 0zm.5-.2h.2v.1h-.1c-.2 0-.2-.1-.1-.1zm.7.2h.2v.1c-.2 0-.2 0-.2-.1-.1 0-.1 0 0 0zm.6 0h.2v.1h-.2c-.1 0-.1 0 0-.1zm-.7.3h.2v.1h-.2v-.1zm.7-.5h.2v.1h-.2v-.1zm-1.8-.5h.2v.1c-.1 0-.2 0-.2-.1zm.7.1h.2v.1h-.2v-.1zm.1-1.3h.2v.1h-.2c-.1 0-.1 0 0-.1zm1 1.3h.2v.1c-.1.1-.2 0-.2-.1 0 .1 0 0 0 0zm-.4-.2h.2v.1h-.2v-.1zm.6-.1h.2v.1h-.2v-.1zm-.4-.2h.2v.1h-.2c-.1-.1-.1-.1 0-.1zm-.6-.3h.2v.1c-.1 0-.2 0-.2-.1 0 .1 0 0 0 0zm-.2.5h.2v.1h-.2c-.1-.1-.1-.1 0-.1zm.9-.6h.2v.1h-.2v-.1zm.5.3h.1v.1h-.2c0-.1 0-.1.1-.1zm.1-.3h.2v.1c-.1.1-.2.1-.2-.1 0 .1 0 0 0 0zm-2 0h.2v.1c-.1 0-.1 0-.2-.1 0 .1 0 0 0 0zm.5-.7h.2v.1h-.2v-.1zm.1-.2h.2v.1c-.1.1-.2 0-.2-.1 0 .1 0 0 0 0z"/><path fill="#FFFFFA" d="M126.1 858.4h.2v.1c-.1.1-.2.1-.2-.1 0 .1 0 .1 0 0zm-1.1 3.1h.2v.1c-.1 0-.2 0-.2-.1-.1.1-.1 0 0 0zm.7-2.3h.2v.1c-.2.1-.2.1-.2-.1-.1.1-.1 0 0 0zm-.5 1.5h.2v.1h-.2v-.1zm-.1.4h.2v.1c-.1 0-.2 0-.2-.1-.1 0 0 0 0 0z"/><path fill="#E4C5A9" d="M16.1 865.6v6.1l.7 1.4.5-7.5z"/><path fill="#E4C5A9" d="M16.6 873.2l-.7-1.4v-6.3h1.7l-.5 7.7h-.5zm-.3-1.5l.3.6.5-6.6h-.8v6z"/><path fill="#907663" d="M20.9 875.8s-.4 2-.8 3.5c-.4 1.4-.7 4.2-.7 5.1 0 .9 1.6 5.8 1.7 7.2.1 1.3-1.7 4.4-1.7 4.4l-2 .9s-.8-.7-1.2-1.3c-.4-.7-.1-1.9.4-2.8.4-.9 1.4-.3 1.4-.3l.1 1-.1.6s.4-.1.8-.6-.1-2.3-.4-3.1c-.3-.9-.8-2.7-1.5-4.6-.7-1.9-.7-4.4-.7-4.4-.1-1.8 1.4-5.7 1.9-7 .5-1.3 0-2 0-2v-6.5h3l-.2 9.9z"/><path fill="#907663" d="M17.3 897l-.1-.1s-.8-.7-1.3-1.4c-.6-.9.1-2.5.3-3 .2-.5.7-.6 1-.6.4 0 .8.2.8.2h.1l.1 1.1v.3l.3-.3c.3-.4-.1-2-.4-3-.1-.3-.2-.7-.4-1.2-.3-1-.6-2.1-1.1-3.4-.7-1.9-.7-4.4-.7-4.4-.1-1.8 1.3-5.6 1.9-7.1.5-1.2 0-1.9 0-1.9v-6.7h3.4l-.1 10.3s-.4 2.1-.8 3.5-.7 4.1-.7 5.1c0 .4.4 1.9.8 3.4s.8 3.1.9 3.7c.1 1.3-1.6 4.3-1.7 4.5l-2.3 1zm-.1-4.7c-.1 0-.4 0-.5.4-.4.9-.8 2.1-.4 2.7.3.5.9 1 1.1 1.2l1.8-.8c.2-.4 1.7-3.1 1.6-4.3 0-.6-.5-2.2-.9-3.7s-.8-3-.8-3.5c0-1 .3-3.7.7-5.1.4-1.4.8-3.4.8-3.4l.1-10h-2.6v6.3c.1.2.5.9 0 2.1-.6 1.5-2 5.2-1.9 7 0 0 0 2.5.7 4.4.5 1.2.8 2.4 1.1 3.4.1.5.3.9.4 1.2 0 0 .9 2.5.4 3.2-.4.6-.9.6-.9.7h-.3l.1-.8-.1-.9c-.1 0-.3-.1-.4-.1z"/><path fill="#6D564A" d="M17.1 866l-.4 7.1s-2 4.8-2.1 6.2c-.1 1.4.9 5.4 1.2 6.9.3 1.5 1 2.6 1.3 3.2.3.7.4 2 .5 2.2.1.2.1.8.1.8v1.6s.4-.1.6-.3c.2-.2.3-.9.3-1.2 0-.3-.8-3.3-1.1-4.2-.3-.9-1.2-3.5-1.3-4.6-.1-1.1-.2-2.6.1-4.3.4-1.7 1.2-4.1 1.2-4.1s1-1.3.8-1.6c-.2-.3-.4-1.4-.4-1.4v-6.5l-.8.2z"/><path fill="#6D564A" d="M17.6 894.1v-1.8c0-.1-.1-.6-.1-.7 0-.1-.1-.3-.2-.6-.1-.5-.2-1.1-.4-1.5-.1-.2-.2-.4-.3-.7-.3-.6-.8-1.5-1-2.6-.1-.3-.2-.8-.3-1.4-.4-1.9-1-4.4-.9-5.5.1-1.4 1.9-5.8 2.1-6.2l.4-7.2 1.3-.6v6.8c.1.4.3 1.1.4 1.3.2.3-.4 1.2-.8 1.8-.1.2-.9 2.5-1.2 4.1-.3 1.4-.3 2.7-.1 4.3.1.8.7 2.6 1.1 3.7.1.3.2.6.3.8.3.8 1.1 3.9 1.1 4.2 0 .3-.1 1-.3 1.3-.2.3-.7.4-.7.4l-.4.1zm-.2-28l-.4 7s-2 4.8-2.1 6.1c-.1 1.1.5 3.7.9 5.5.1.6.2 1 .3 1.4.2 1 .6 1.9.9 2.5.1.3.3.5.3.7.2.4.3 1.1.4 1.6.1.3.1.5.1.6.1.2.1.7.2.8v1.3c.1 0 .2-.1.2-.2.2-.2.3-.9.3-1.1 0-.3-.8-3.2-1.1-4.2-.1-.2-.2-.5-.3-.8-.4-1.2-1-2.9-1.1-3.8-.2-1.5-.1-3 .2-4.3.4-1.7 1.2-4.1 1.2-4.2.5-.7.9-1.3.8-1.5-.2-.3-.4-1.3-.5-1.4v-6.2l-.3.2z"/><path fill="#6D564A" d="M16.1 891.9h.7l.5.2s-1 .4-1.2 1.2c-.1.8 0 2.2 0 2.2l-1.4-.9s-.6-1 0-1.6c.6-.7 1.4-1.1 1.4-1.1z"/><path fill="#907663" d="M14.7 865.5v3.9s-1.7 2.3-1.8 4.3c-.1 2 .7 3.1.9 4.7.3 1.7.9 2.8.9 2.8s-.1-1.9.1-2.5c.2-.6 1.3-4 1.3-4l.6-1.6-.7-1.4v-6.1l-1.3-.1z"/><path fill="#6D564A" d="M14.4 886s.1.4.6.6l.5.2.4-.6-.7-.4-.8.2z"/><path fill="#6D564A" d="M17.1 889.4H16l-.9-.4s-1.6-2.3-1.8-2.7c-.2-.4-.8-1.5 0-1.7.8-.2 1.8.6 1.8.6v.6l-.7.2.6.6.9.2 1.2 2.6z"/><path fill="#907663" d="M15.5 884.6l-1.1-.5-1.1.5 1.1.2.7.4h.8z"/><path fill="#E4C5A9" d="M19.3 876.6v-11h14.3c5.3 0 12.7-.4 12.7-.4l-.6 10.8s-1.3-1.3-2.8-1.2c-1.6.1-7 1.6-9.1 1.6-2.1.1-7.3-1-9.6-1.2-2.6-.2-4.9 1.4-4.9 1.4z"/><path fill="#E4C5A9" d="M19.1 877v-11.5h14.5c5.2 0 12.6-.4 12.7-.4h.2l-.7 11.4-.4-.4s-1.2-1.2-2.6-1.2c-.7 0-2.2.4-3.8.7-2 .4-4.1.9-5.3.9-1.3 0-3.6-.3-5.8-.7-1.5-.2-2.9-.4-3.8-.5-2.4-.2-4.7 1.4-4.7 1.4l-.3.3zm.4-11.2v10.5c.8-.5 2.7-1.4 4.7-1.2.9.1 2.3.3 3.8.5 2.2.3 4.5.7 5.7.7 1.1 0 3.3-.5 5.2-.9 1.6-.4 3.2-.7 3.9-.7 1.2-.1 2.1.6 2.6 1l.6-10.1c-1.3.1-7.8.4-12.5.4h-14v-.2z"/><path fill="#907663" d="M21.9 874.9v-7.7h11.7c4.3 0 10.4-.3 10.4-.3l-.5 7.5s-1-.9-2.3-.9c-1.3.1-5.7 1.1-7.4 1.1-1.7.1-6-.7-7.8-.8-2.1-.1-4.1 1.1-4.1 1.1z"/><path fill="#C8A35F" stroke="#C8A35F" stroke-width=".25" d="M34 870.7c0 .4-.5.8-1 .8-.6 0-1-.3-1-.8 0-.4.5-.8 1-.8s1 .3 1 .8z"/><path fill="#E4C5A9" d="M66.6 876.4l-20.7.1.4-11.3h20.4z"/><path fill="#907663" d="M95.8 866.7s-.5 3.1-.5 4c0 .9-.3.9 0 2.1.3 1.2 1.6 2.9 1.8 4.9.3 2 .2 3.7-.5 5.2s-3.7 6.2-3.9 7.1c-.2.9-.7 2.2 0 2.7s1.7.3 1.7.3l-.3-.4s-1.2-.5-1.1-1.3c.1-.9.9-2.8 1.3-3.4.4-.6 1.2-2.4 1.8-3 .6-.7 1.8-3.4 1.8-4.1 0-.7 0-3.2-.2-3.9-.1-.5-1.6-3.2-1.8-4.1-.2-.9.6-6 .6-6h-.7z"/><path fill="#907663" d="M94 893.1c-.4 0-1-.1-1.5-.4-.7-.4-.4-1.5-.2-2.3 0-.2.1-.3.1-.5.1-.5 1.1-2.2 2.1-4 .7-1.3 1.4-2.5 1.7-3.1.6-1.4.8-3 .5-5.1-.2-1.2-.7-2.2-1.1-3.2-.3-.7-.6-1.2-.7-1.7-.2-.8-.1-1.1-.1-1.4 0-.2.1-.4.1-.7 0-.8.5-3.8.5-4v-.1h1.2v.2c0 .1-.8 5.1-.6 6 .1.5.6 1.6 1.1 2.5.3.7.6 1.3.7 1.5.2.8.2 3.6.2 3.9 0 .7-1.1 3.5-1.8 4.2-.4.4-.8 1.2-1.2 1.8-.3.5-.5.9-.7 1.2-.4.6-1.2 2.5-1.3 3.3-.1.7 1 1.2 1 1.2h.1l.4.6h-.3c.2.1 0 .1-.2.1zm2-25.3c-.1.8-.5 2.1-.5 2.9 0 .3 0 .5-.1.7-.1.3-.1.6.1 1.4.1.5.4 1 .7 1.7.5 1 1 2 1.2 3.2.3 2.2.1 3.8-.5 5.3-.3.6-1 1.9-1.7 3.1-.9 1.6-2 3.5-2.1 3.9 0 .2-.1.3-.1.5-.2.7-.4 1.7.1 2 .4.2.9.3 1.2.3l-.1-.1c-.3-.1-1.3-.6-1.2-1.4.1-.9.9-2.8 1.3-3.4.2-.2.4-.7.7-1.1.4-.7.8-1.5 1.2-1.9.6-.7 1.7-3.4 1.7-4 0-1.1 0-3.2-.2-3.8 0-.2-.3-.8-.7-1.5-.5-1-1-2.1-1.1-2.6-.2-.8.5-4.8.6-5.9H96v.7z"/><path fill="#907663" d="M94.5 890.9s1.1.2 1.5.9c.4.7 0 1.8 0 1.8l1.1-.6s.4-1.4-.6-2.1c-1-.7-1.3-.3-1.3-.3l-.7.3z"/><path fill="#6D564A" d="M90.4 874.5s1.8 4 1.9 5.4c.2 1.4-.3 5.4-1.1 6.6-.8 1.2-1.7 2.8-1.7 3.9 0 0 .7 2.1 1 3.1.3 1 .7 1.5.7 1.5l2.3.5s1.2-.2 1.1-.6c-.1-.4 1.3-1.1 1.3-1.1l.2-.4s.5-1.6-.2-2c-.6-.4-1.3-.6-1.3-.6s-.9-.2-1.1.5c-.2.7.6 1.2.6 1.2s-.3.6-.6.4c-.4-.1-1.3-.7-1-1.9.3-1.2 1-2.8 1.4-3.3.3-.6 1.4-2.4 1.8-3.2.4-.7 1.5-2.9 1.6-3.9.1-1 .1-2.7-.1-3.5-.2-.8-1.5-3.6-1.7-4.1-.1-.4.1-4.9.1-4.9l.2-2.4-2.2-1h-2.3l-.9 9.8zm-3.8.5s.3 2.2 0 3.2c-.4 1.1-1.4 5.1-1.6 5.8-.5 1.7.9 4.1.9 4.1h.9s-1.2-2-.9-3.4c.3-1.3.9-4.2 1.3-5.3.4-1.1.5-3.7.5-3.7v-1l-1.1.3z"/><path fill="#6D564A" d="M86.8 888.3h-1l-.1-.1c-.1-.1-1.4-2.4-.9-4.2.1-.2.2-.7.3-1.2.4-1.5 1-3.9 1.3-4.6.3-1 0-3.1 0-3.2v-.1l1.5-.3v1.2c0 .1-.2 2.7-.5 3.8-.3 1-.9 3.6-1.2 5l-.1.3c-.3 1.3.9 3.2.9 3.3l.1.2h-.3v-.1zm-.8-.3h.4c-.3-.6-1-2.1-.8-3.2l.1-.3c.3-1.4.9-4 1.2-5 .3-1 .5-3.7.5-3.7v-.8l-.6.1c.1.5.3 2.2 0 3.1-.3.8-.9 3.1-1.3 4.6-.2.6-.3 1-.3 1.2-.4 1.6.6 3.5.8 4z"/><path fill="#907663" d="M88.5 884.8v-.4s-.8-.5 0-.8c.8-.3 1.2.3 1.1.6-.2.3-1.4 3-1.4 3l-.8.9h-.5s-.6-1-.7-1.6c-.2-.6-.1-2-.1-2s.8-3.6 1-4.2c.2-.7.6-2.7.6-3 0-.3.1-2 .1-2v-.4l2.3-.4s0 1-.5 2.8c-.5 1.8-1.6 4.1-1.5 4.1l-.3 2.1v1.6s-.3.3 0 .5c.1-.1.7-.8.7-.8z"/><path fill="#907663" d="M87.4 888.3h-.8l-.1-.1s-.6-1.1-.7-1.7c-.2-.6-.1-2-.1-2.1 0-.2.8-3.6 1-4.3.2-.7.6-2.6.6-3 0-.3.1-2 .1-2v-.5l2.8-.5v.2s0 1.1-.5 2.8c-.4 1.3-1 2.9-1.4 3.6l-.2.4c0 .2-.1.7-.3 2.1v1.6c-.1.1-.1.2-.1.2l.5-.5v-.3c-.1-.1-.4-.3-.3-.5 0-.2.2-.3.5-.5.5-.2 1-.1 1.3.2.2.2.2.4.1.6-.1.2-.9 1.9-1.4 3l-1 1.3zm-.5-.3h.3l.7-.8c.2-.4 1.2-2.8 1.4-3 0 0 0-.2-.1-.3-.1-.1-.2-.2-.4-.2-.1 0-.2 0-.3.1-.2.1-.2.1-.2.2s.2.3.3.3h.1v.5c-.2.3-.6.7-.9.7h-.2c-.3-.2-.2-.5-.1-.6v-1.5c.1-.7.3-1.8.3-2 0-.1 0-.2.2-.6.3-.8 1-2.3 1.3-3.6.4-1.3.5-2.2.5-2.6l-1.9.3v.3c0 .1-.1 1.7-.1 2 0 .3-.4 2.3-.6 3-.2.7-1 4.2-1 4.2s0 1.4.1 2c.1.6.5 1.3.6 1.6z"/><g fill="#E4C5A9"><path d="M66.5 876.3v-11h14.3c5.3 0 12.7-.4 12.7-.4l-.6 10.8s-1.3-1.3-2.8-1.2c-1.6.1-7 1.6-9.1 1.6-2.1.1-7.3-1-9.6-1.2-2.6-.2-4.9 1.4-4.9 1.4z"/><path d="M66.2 876.7v-11.5h14.5c5.2 0 12.6-.4 12.7-.4h.2l-.6 11.3-.4-.4s-1.2-1.2-2.6-1.2c-.7 0-2.2.4-3.8.7-2 .4-4.1.9-5.3.9-1.3 0-3.6-.3-5.8-.7-1.5-.2-2.9-.4-3.8-.5-2.4-.2-4.7 1.4-4.7 1.4l-.4.4zm.5-11.3v10.5c.8-.5 2.6-1.4 4.7-1.2.9.1 2.3.3 3.8.5 2.2.3 4.5.7 5.7.7 1.1 0 3.3-.5 5.2-.9 1.6-.4 3.2-.7 3.9-.7 1.2-.1 2.1.6 2.6 1l.6-10.1c-1.3.1-7.8.4-12.5.4h-14v-.2z"/></g><path fill="#907663" d="M69.1 874.5v-7.7h11.7c4.3 0 10.4-.3 10.4-.3l-.5 7.5s-1-.9-2.3-.9c-1.3.1-5.7 1.1-7.4 1.1-1.7.1-6-.7-7.8-.8-2.2 0-4.1 1.1-4.1 1.1z"/><ellipse cx="80.1" cy="870.3" fill="#C8A35F" stroke="#C8A35F" stroke-width=".25" rx="1" ry=".8"/><path fill="#B49884" d="M13 863.8s-.7.6 0 .6c2.8 0 1.3 1.3 1.3 1.6 0 .3.8.3 2 .7 1.3.5 1.5.2.1.6-.5.2.4.2-.3.3-.5.1.2.7.2.7s3.4.1 6.8.4c1.9.1 3.4.4 3.4.4s7.4-.2 10.4-.4 19.3 0 21.6 0c2.3 0 19.5-.3 21.8-.3h16.3s5.6-.7 5.6-.8c0 0 .3-.5-.4-.6-1.3-.1-3.7.2-4.8-.2-.6-.2-2.3-.9-3.4-1.1-1.1-.2-7-1.2-7-1.2l-.8-.5-68.5-.7-4.3.5z"/><path fill="#E4C5A9" d="M13.3 863.8s2.1.3 2.1.6-1.3.8 0 1.2c1.3.5 2.8.7 2.8 1.1 0 .2-.9.4-1.6.5-.5.1-.8.1-.8.1s3.3.5 6.9.5c2 0 3.2.3 3.2.3s7.4-.2 10.4-.4 19.3 0 21.6 0c2.3 0 19.5-.3 21.8-.3H96l5.9-.5s-3.8-.3-5.5-1c-.6-.2-2.3-.9-3.4-1.1-1.1-.2-7-1.2-7-1.2l-.9-.5-67.8.1-4 .6z"/><g fill="#0F0C17"><path d="M23.8 861.7s-.1 0 0 0c-.1.1.1.1.1.1h2.6v-.1h-2.7zm0 .3s-.1.1 0 0c-.1.1.1.1.1.1h2.6v-.1h-2.7zm-.1-.7c-.1.1.1.1.1.1h2.6v-.1h-2.7zm0-.8c-.1.1.1.1.1.1h2.6v-.1h-2.7zm0 .4s-.1 0 0 0c-.1.1.1.1.1.1h2.6v-.1h-2.7zm0-.7s-.1 0 0 0c-.1.1.1.1.1.1h2.6v-.1h-2.7zm.1-.8s-.1 0 0 0c-.1.1.1.1.1.1h2.6v-.1h-2.7zm0 .4s-.1 0 0 0c-.1.1.1.1.1.1h2.6v-.1h-2.7zm-.1-.8c-.1.1.1.1.1.1h2.6v-.1h-2.7zm.1-.8s-.1 0 0 0c-.1.1.1.1.1.1h2.6v-.1h-2.7zm0 .4s-.1 0 0 0c-.1.1.1.1.1.1h2.6v-.1h-2.7zm0-.7s-.1 0 0 0c-.1.1.1.1.1.1h2.6v-.1h-2.7zm0-.8s-.1 0 0 0c-.1.1.1.1.1.1h2.6v-.1h-2.7zm0 .4s-.1 0 0 0c-.1.1.1.1.1.1h2.6v-.1h-2.7zm0-.8s-.1 0 0 0c-.1.1.1.1.1.1h2.6v-.1h-2.7zm0-.8s0 .1 0 0c-.1.1.1.1.1.1h2.6v-.1h-2.7zm0 .4c-.1.1.1.1.1.1h2.6v-.1h-2.7zm0-.7s-.1 0 0 0c-.1.1.1.1.1.1h2.6v-.1h-2.7zm0-.8c-.1.1.1.1.1.1h2.6v-.1h-2.7zm0 .4c-.1.1.1.1.1.1h2.6v-.1h-2.7zm0-.8s-.1 0 0 0c-.1.1.1.1.1.1h2.6v-.1h-2.7zm.1-.7s-.1 0 0 0c-.1.1.1.1.1.1h2.6v-.1h-2.7zm0 .4s-.1 0 0 0c-.1.1.1.1.1.1h2.6v-.1h-2.7zm-.1-.8c-.1.1.1.1.1.1h2.6v-.1h-2.7zm.1-.8s-.1 0 0 0c-.1.1 0 .1 0 .1h2.6v-.1h-2.6zm0 .4s-.1 0 0 0c-.1.1.1.1.1.1h2.6v-.1h-2.7zm0-.7s-.1 0 0 0c-.1.1.1.1.1.1h2.6v-.1h-2.7z"/><path d="M24.5 851.8s2-.4 2.3.1c.2.2 1 4.5 1.1 5.6.1 1.1-.3 4.7-.5 5-.4.5-3.2-.1-3.4-.1-.2 0-.2-.2 0-.2s1.7-.1 1.9-.1c.3 0 .7-2.2.7-2.9 0-.8-.2-2.9-.4-3.6-.2-.7-.2-3.1-.3-3.3-.1-.2-.2-.2-.7-.2h-.9s-.3-.1-.3-.2c-.2-.2.5-.1.5-.1z"/></g><path fill="#565756" d="M32.5 865c-.9.3-2.3 0-3.2-.1s-3.2-.8-3.4-1.1c-.2-.3 1.3-6 1.6-6.1.3-.2 1.8-.5 2.3-.8.5-.3 1-1 1-1.4 0-.4.4-2.8.5-3.4.2-.6.4-1.2.7-1.2.3 0 .7-.3.9-.2.2.1.9.5 1 .6v.7c0 .4-.6 1.9-.8 2.2-.2.3-.7 1.5-.8 1.8 0 .3-.2.8-.1 1 .1.2 1.9 1.6 2.1 1.8s-.9 5.8-1.8 6.2z"/><path fill="#868682" d="M32.3 864.8c-.8.3-2.2 0-3.1-.1-.9-.2-3.1-.8-3.3-1-.2-.3 1.3-5.8 1.5-5.9.3-.1 1.7-.5 2.2-.8.5-.3.9-.9 1-1.3 0-.4.3-2.7.5-3.3.2-.6.3-1.1.6-1.2.3 0 .7-.3.8-.2.2.1.9.4.9.6v.7c0 .4-.6 1.8-.8 2.1-.2.3-.7 1.4-.7 1.7 0 .2-.2.7-.1.9.1.2 1.9 1.6 2 1.7.3.2-.6 5.8-1.5 6.1z"/><path fill="#1E1E1D" d="M26.7 863.8s-.3-.2-.4-.4c0-.2 1.4-5.3 1.4-5.3s.2-.5.8-.5c.6 0 4 .6 4 .6s.7.1.9.4c.2.3.1.6.1.6l-1.3 4.9s-.6.5-.7.4c-.1.1-4.8-.7-4.8-.7z"/><path d="M31 864.5v.3l.2.1-.1-.4z"/><path fill="#FFFFFA" d="M31 864.8c.1 0 .1 0 0 0 .1.1.1.1 0 0 .1.1.1.1 0 0 0 .1 0 0 0 0z"/><path d="M30.5 864.5v.3l.1.1v-.4z"/><path fill="#FFFFFA" d="M30.5 864.8s.1 0 0 0c.1.1.1.1 0 0 .1.1 0 .1 0 0 0 .1 0 0 0 0z"/><path d="M30 864.4l-.1.3.1.1.1-.3z"/><path fill="#FFFFFA" d="M29.9 864.8c0-.1.1 0 0 0 .1 0 .1 0 0 0z"/><path d="M29.6 864.3l-.1.3.1.1.1-.3z"/><path fill="#FFFFFA" d="M29.5 864.6s0 .1 0 0c.1.1 0 .1 0 0 0 .1 0 .1 0 0-.1.1-.1.1 0 0z"/><path d="M29.1 864.3l-.2.3h.1l.2-.3z"/><path fill="#FFFFFA" d="M28.9 864.6c.1 0 .1 0 0 0 .1 0 .1 0 0 0z"/><path d="M28.7 864.2l-.2.3h.1l.2-.3z"/><path fill="#FFFFFA" d="M28.5 864.5c.1 0 .1 0 0 0 .1 0 .1.1 0 0 0 .1 0 .1 0 0z"/><path d="M28.1 864.1l-.2.3h.1l.2-.3z"/><path fill="#FFFFFA" d="M27.9 864.4c.1 0 .1 0 0 0 .1 0 .1 0 0 0 0 .1 0 0 0 0z"/><path d="M27.8 864l-.3.2.1.1.3-.3z"/><path fill="#FFFFFA" d="M27.5 864.2s.1.1 0 0c.1.1.1.1 0 0 0 .1 0 .1 0 0 0 .1 0 0 0 0z"/><path d="M27.2 863.8l-.3.3h.1l.3-.2zm-.5-.2l-.5.1.1.1.4-.1z"/><path fill="#FFFFFA" d="M26.2 863.7c.1.1.1.1 0 0 .1.1 0 .1 0 0 0 .1-.1.1 0 0z"/><path d="M26.6 863.1h-.7v.1h.7z"/><path fill="#FFFFFA" d="M25.9 863.1c0 .1-.1.1-.1.1v-.1c0-.1.1-.1.1 0z"/><path d="M26.7 862.6H26v.1h.7z"/><path fill="#FFFFFA" d="M26 862.6c0 .1 0 .1 0 0 0 .1-.1.1-.1.1v-.1h.1z"/><path d="M26.8 862.3h-.7l-.1.1h.8z"/><path fill="#FFFFFA" d="M26.1 862.3c0 .1-.1.1-.1.1v-.1c0-.1.1 0 .1 0z"/><path d="M26.9 862h-.7v.1h.7z"/><path fill="#FFFFFA" d="M26.2 862c0 .1-.1.1-.1.1v-.1c0-.1.1-.1.1 0z"/><path d="M27 861.7l-.7-.1-.1.1.8.1z"/><path fill="#FFFFFA" d="M26.3 861.6c0 .1 0 .1 0 0 0 .1-.1.1-.1.1v-.1h.1z"/><path d="M27.1 861.3h-.7l-.1.1h.7z"/><path fill="#FFFFFA" d="M26.4 861.3c0 .1-.1.1-.1.1v-.1c0-.1 0-.1.1 0z"/><path d="M27.2 861l-.7-.1v.1l.7.1z"/><path fill="#FFFFFA" d="M26.5 860.9c.1.1.1.1 0 0 0 .1-.1.1-.1.1v-.1h.1z"/><path d="M27.2 860.6h-.7l-.1.1h.8z"/><path fill="#FFFFFA" d="M26.5 860.6c0 .1-.1.1-.1.1v-.1c0-.1.1-.1.1 0z"/><path d="M27.3 860.2h-.7l-.1.1h.8z"/><path fill="#FFFFFA" d="M26.6 860.2c0 .1-.1.1-.1.1v-.1c0-.1 0-.1.1 0z"/><path d="M27.4 860l-.7-.1v.1l.7.1z"/><path fill="#FFFFFA" d="M26.7 859.9c.1 0 0 .1 0 0 0 .1-.1.1-.1.1v-.1h.1z"/><path d="M27.6 859.6h-.7l-.1.1h.8z"/><path fill="#FFFFFA" d="M26.9 859.6c0 .1-.1.1-.1.1v-.1c0-.1.1 0 .1 0z"/><path d="M27.6 859.3l-.7-.1v.1l.7.1z"/><path fill="#FFFFFA" d="M26.9 859.2s0 .1 0 0c0 .1-.1.1-.1.1v-.1h.1z"/><path d="M27.7 858.9H27v.1l.7.1z"/><path fill="#FFFFFA" d="M27 858.9s0 .1 0 0c0 .1-.1.1-.1 0v-.1c0 .1.1.1.1.1z"/><path d="M27.8 858.6l-.7-.1-.1.1.8.1z"/><path fill="#FFFFFA" d="M27.1 858.5c-.1.1-.1.1-.1 0v-.1l.1.1z"/><path d="M28.1 858.2l-.6-.3-.2.1.7.3z"/><path fill="#FFFFFA" d="M27.4 857.9c.1.1 0 .1 0 0-.1.1-.1 0-.2 0h.2z"/><path d="M31.7 864.4l.4.4h.2l-.4-.5z"/><path fill="#FFFFFA" d="M32.1 864.8h.1s.1 0 0 .1l-.1-.1c0 .1 0 0 0 0z"/><path d="M32.1 864l.6.2.1-.1-.7-.2z"/><path fill="#FFFFFA" d="M32.7 864.2c.1-.1.1 0 .1 0 .1 0 .1.1-.1 0 .1.1 0 0 0 0z"/><path d="M32.3 863.6l.6.2.1-.1-.7-.2z"/><path fill="#FFFFFA" d="M32.9 863.8c.1-.1.1 0 .1 0 .1 0 0 .1-.1 0 .1.1 0 .1 0 0z"/><path d="M32.4 863.3l.7.1v-.1l-.7-.1z"/><path fill="#FFFFFA" d="M33.1 863.4s0-.1 0 0c.1-.1.1-.1.1 0v.1c0-.1-.1-.1-.1-.1z"/><path d="M32.4 863l.6.1.1-.1-.7-.1z"/><path fill="#FFFFFA" d="M33.1 863.1c-.1 0-.1-.1 0 0 .1-.1.1-.1.1 0v.1l-.1-.1z"/><path d="M32.5 862.7l.6.1.1-.1-.7-.1z"/><path fill="#FFFFFA" d="M33.2 862.8c-.1 0-.1-.1 0 0 .1-.1.1-.1.1 0v.1l-.1-.1z"/><path d="M32.4 862.4l.7.1.1-.1-.8-.1z"/><path fill="#FFFFFA" d="M33.1 862.5c0-.1 0-.1 0 0 .1-.1.1-.1.1 0v.1c0-.1-.1-.1-.1-.1z"/><path d="M32.5 862l.7.1.1-.1-.7-.1z"/><path fill="#FFFFFA" d="M33.2 862.1s0-.1 0 0c.1-.1.1-.1.1 0v.1c0-.1 0-.1-.1-.1z"/><path d="M32.8 861.6l.7.1v-.1l-.7-.1z"/><path fill="#FFFFFA" d="M33.5 861.7c-.1 0 0 0 0 0 .1-.1.1-.1.1 0v.1s-.1 0-.1-.1z"/><path d="M32.8 861.3l.7.1v-.1l-.7-.1z"/><path fill="#FFFFFA" d="M33.5 861.4c0-.1 0-.1 0 0 0-.1.1-.1.1 0v.1c0-.1-.1-.1-.1-.1z"/><path d="M33 860.9l.7.1.1-.1-.7-.1z"/><path fill="#FFFFFA" d="M33.7 861s0-.1 0 0c.1-.1.1-.1.1 0v.1c0-.1 0-.1-.1-.1z"/><path d="M33.1 860.6l.7.1v-.1l-.7-.1z"/><path fill="#FFFFFA" d="M33.8 860.7c0-.1 0-.1 0 0 .1-.1.1-.1.1 0v.1c0-.1-.1-.1-.1-.1z"/><path d="M33.1 860.2l.7.1.1-.1-.8-.1z"/><path fill="#FFFFFA" d="M33.8 860.3s0-.1 0 0c.1-.1.1-.1.1 0v.1c0-.1-.1-.1-.1-.1z"/><path d="M33.3 859.9l.6.1.1-.1-.7-.1z"/><path fill="#FFFFFA" d="M34 860c-.1-.1-.1-.1 0 0 0-.1.1-.1.1 0v.1l-.1-.1z"/><path d="M33.5 859.5l.7.1.1-.1-.8-.1z"/><path fill="#FFFFFA" d="M34.2 859.6s0-.1 0 0c.1-.1.1-.1.1 0v.1c0-.1-.1-.1-.1-.1zm-2.9 4.7h.2v.1h-.2v-.1zm-.6-.3h.2v.1c-.1 0-.1 0-.2-.1zm-.6 0h.2v.1h-.2v-.1zm-.6-.3h.2v.1h-.2v-.1zm0 .4h.2v.1c-.1.1-.2.1-.2-.1-.1.1-.1.1 0 0zm-.4-.3h.2v.1h-.2v-.1zm-.6.1h.2v.1h-.2c-.1-.1-.1-.1 0-.1zm-.6-.3h.2v.1h-.2v-.1zm1.7-.1h.2v.1h-.2c-.1 0-.1-.1 0-.1zm-1-.2h.2v.1c-.2.1-.2.1-.2-.1-.1.1-.1 0 0 0zm-.1.3h.2v.1h-.2c-.1-.1 0-.1 0-.1zm-.5-.3h.2v.1H28c-.1 0-.1 0 0-.1zm.6-.2h.2v.1c-.1 0-.2 0-.2-.1zm-1.2.3h.2v.1h-.2v-.1zm1.7.2h.2v.1h-.2v-.1zm0-.3h.2v.1h-.2v-.1zm.1-.3h.2v.1h-.2c-.1-.1-.1-.1 0-.1zm0-.3h.2v.1c-.1 0-.2 0-.2-.1-.1 0-.1 0 0 0zm.1-.3h.2v.1h-.2c-.1-.1 0-.1 0-.1zm0-.3h.2v.1c-.1 0-.2 0-.2-.1-.1 0 0 0 0 0zm.1-.2h.2v.1h-.2c-.1-.1-.1-.1 0-.1zm.1-.3h.2v.1h-.2c-.1-.1-.1-.1 0-.1zm.1-.3h.2v.1h-.2c-.1-.1-.1-.1 0-.1zm.1-.5h.2v.1c-.1.1-.2.1-.2-.1 0 .1 0 0 0 0zm.2-.4h.2v.1h-.2c-.1 0-.1 0 0-.1zm.1-.2h.2v.1c-.2 0-.2 0-.2-.1-.1.1-.1 0 0 0zm0-.3h.2v.1c-.1 0-.2 0-.2-.1-.1 0-.1 0 0 0zm.1-.4h.2v.1h-.2c-.1 0-.1 0 0-.1zm-.4 1.6h.2v.1c-.2 0-.2 0-.2-.1-.1 0-.1 0 0 0zm.5-1.9h.2v.1h-.2c-.1 0-.1-.1 0-.1zm.2-.5h.2v.1h-.2c-.1-.1 0-.1 0-.1zm.1-.3h.2v.1h-.2c-.1 0-.1-.1 0-.1zm-.2.6h.2v.1h-.2c-.1-.1-.1-.1 0-.1zm1.3 4.9h.2v.1c-.1 0-.2 0-.2-.1-.1 0-.1 0 0 0zm-.3-.5h.2v.1h-.2c-.1 0 0-.1 0-.1zm.4 0h.2v.1h-.2v-.1zm.3-.4h.2v.1c-.2.1-.2.1-.2-.1-.1.1-.1.1 0 0zm0-.4h.2v.1H32v-.1zm.1-.4h.2v.1c-.1.1-.2 0-.2-.1-.1.1 0 0 0 0zm0-.4h.2v.1c-.2.1-.2.1-.2-.1-.1.1-.1.1 0 0zm0-.3h.2v.1c-.1 0-.2 0-.2-.1 0 .1 0 0 0 0zm.2-.4h.2v.1h-.2c-.1 0-.1-.1 0-.1zm0-.4h.2v.1h-.2v-.1zm.2-.3h.2v.1h-.2c-.1-.1-.1-.1 0-.1zm-.1-.4h.2v.1h-.2v-.1zm0-.6h.2v.1h-.2v-.1zm-.5-.5h.2v.1c-.1.1-.2 0-.2-.1-.1.1-.1 0 0 0zm.8-.5h.2v.1h-.2v-.1zm-.1.6h.2v.1h-.2c-.1-.1-.1-.1 0-.1zm-1.4 4.1h.2v.1h-.2c-.1 0 0-.1 0-.1zm.1-.4h.2v.1c-.2 0-.2 0-.2-.1-.1 0-.1 0 0 0zm.2-.3h.2v.1c-.1 0-.2 0-.2-.1-.1 0-.1 0 0 0zm0-.5h.2v.1c-.1.1-.2.1-.2-.1-.1.1-.1 0 0 0zm0-.3h.2v.1c-.1 0-.2 0-.2-.1-.1 0-.1 0 0 0zm.2-.4h.2v.1h-.2c-.1 0-.1-.1 0-.1zm0-.4h.2v.1h-.2v-.1zm.1-.5h.2v.1h-.2c-.1 0-.1-.1 0-.1zm.1-.4h.2v.1h-.2c-.1 0-.1-.1 0-.1zm-1.6 3.5h.2v.1h-.2c-.1 0-.1-.1 0-.1zm.1-.3h.2v.1c-.1.1-.2.1-.2-.1 0 .1 0 .1 0 0zm.1-.2h.2v.1c-.1.1-.2.1-.2-.1-.1.1 0 0 0 0zm.1-.3h.2v.1h-.2c-.1-.1-.1-.1 0-.1zm1.3-3.2h.2v.1c-.1.1-.2.1-.2-.1 0 .1 0 .1 0 0zm-1.8 4.3h.2v.1h-.2c-.1 0 0 0 0-.1zm.6-1.5h.2v.1h-.2c-.1 0-.1 0 0-.1zm1.3-3.7h.2v.1c-.1.1-.2.1-.2-.1-.1.1-.1 0 0 0zm0-.2h.2v.1h-.1c-.1 0-.1-.1-.1-.1zm-1.3 3.7h.2v.1h-.2c-.1-.1-.1-.1 0-.1zm-1.1 1.2h.2v.1h-.2v-.1zm.2-.3h.2v.1c-.2 0-.2 0-.2-.1-.1 0-.1 0 0 0zm0-.3h.2v.1c-.1.1-.1 0-.2-.1 0 .1 0 0 0 0zm.1-.2h.2v.1c-.2.1-.2 0-.2-.1-.1.1-.1 0 0 0zm0-.3h.2v.1c-.1 0-.2 0-.2-.1-.1 0-.1 0 0 0zm.2-.3h.2v.1c-.1.1-.1.1-.2-.1 0 .1 0 .1 0 0zm.1-.3h.2v.1c-.1.1-.2.1-.2-.1-.1.1-.1 0 0 0zm.1-.3h.2v.1h-.2c-.1 0-.1-.1 0-.1zm0-.3h.2v.1h-.2v-.1zm.2-.4h.2v.1c-.1 0-.2 0-.2-.1-.1.1-.1 0 0 0zm.1-.4h.2v.1h-.2v-.1zm.1-.2h.2v.1h-.2c-.1-.1 0-.1 0-.1zm0 1.8h.2v.1c-.1.1-.1.1-.2-.1 0 .1 0 .1 0 0zm.1-.3h.2v.1h-.2v-.1zm-.4-.7h.2v.1h-.2c-.1 0 0 0 0-.1zm-1.2-2.5h.2v.1h-.2v-.1zm1.8 2.6h.2v.1c-.2.1-.2.1-.2-.1-.1.1-.1.1 0 0zm.1-.2h.2v.1h-.2c-.1 0-.1-.1 0-.1zm-.2.6h.2v.1h-.2v-.1zm.2-.8h.2v.1c-.1 0-.2 0-.2-.1zm.1-.4h.2v.1h-.2c-.1 0-.1-.1 0-.1zm.1-.2h.2v.1h-.2c-.1-.1-.1-.1 0-.1zm-.7-.3h.2v.1c-.1.1-.1 0-.2-.1 0 .1 0 0 0 0zm.7-.1h.2v.1h-.2c-.1 0-.1-.1 0-.1zm-.6-.1h.2v.1h-.2c-.1-.1-.1-.1 0-.1zm0-.4h.2v.1h-.2c-.1 0-.1 0 0-.1zm.6.2h.2v.1h-.2c-.1 0-.1 0 0-.1zm-.2-.5h.2v.1h-.2c-.1 0-.1-.1 0-.1zm.4-.2h.2v.1c-.1.1-.2.1-.2-.1-.1.1-.1.1 0 0zm-.4-.1h.2v.1c-.2 0-.2 0-.2-.1-.1 0-.1 0 0 0zm-1.8.2h.2v.1h-.2c-.1 0-.1-.1 0-.1zm.7-.3h.2v.1H30v-.1zm-1.9 4h.2v.1h-.2v-.1zm3.3-3.4h.2v.1h-.2c-.1 0-.1-.1 0-.1zm-4.4 3.1h.2v.1c-.1.1-.2 0-.2-.1-.1.1-.1 0 0 0zm2.8-3.4h.2v.1h-.2c-.1 0-.1 0 0-.1zm-1.2-.5h.2v.1h-.2c-.1 0 0 0 0-.1zm.2.4h.2v.1h-.2c-.1 0-.1 0 0-.1zm-1.8 5.1h.2v.1H27c-.1 0-.1-.1 0-.1zm1.8-3.7h.2v.1h-.2c-.1-.1-.1-.1 0-.1zm-.7 3.2h.2v.1h-.2c-.1 0-.1-.1 0-.1zm-.5-.1h.2v.1h-.2c-.1 0-.1-.1 0-.1zm-.8.1h.2v.1c-.1.1-.2.1-.2-.1 0 .1 0 .1 0 0zm0-.4h.2v.1h-.2c-.1 0-.1-.1 0-.1zm.7-.1h.2v.1c-.2.1-.2.1-.2-.1-.1.1-.1.1 0 0zm.6.3h.2v.1c-.2 0-.2 0-.2-.1-.1 0-.1 0 0 0zm.6 0h.2v.1h-.2v-.1zm.1-.6h.2v.1c-.1 0-.2 0-.2-.1-.1.1-.1 0 0 0zm-.8.3h.2v.1H28v-.1zm-.4-.3h.2v.1c-.1.1-.2.1-.2-.1-.1.1-.1.1 0 0zm-.6 0h.2v.1c-.2 0-.2 0-.2-.1-.1.1-.1 0 0 0zm.8-.4h.2v.1c-.1 0-.2 0-.2-.1-.1.1-.1 0 0 0zm.9.7h.2v.1h-.2c-.1-.1 0-.1 0-.1zm.2-.5h.2v.1h-.2c-.1-.1 0-.1 0-.1zm-.6 0h.1v.1h-.2c0-.1 0-.1.1-.1zm.4-2h.2v.1c-.1 0-.2 0-.2-.1-.1.1-.1 0 0 0zm-.4 1.7h.2v.1c-.2 0-.2 0-.2-.1-.1 0-.1 0 0 0zm.6 0h.2v.1c-.1 0-.2 0-.2-.1-.1.1-.1 0 0 0zm-.6-.3h.2v.1h-.2c-.1 0-.1 0 0-.1zm.7 0h.2v.1H29v-.1zm-.6-.3h.2v.1c-.1 0-.2 0-.2-.1-.1 0 0 0 0 0zm-.7.2h.2v.1c-.1.1-.2.1-.2-.1 0 .1 0 .1 0 0zm1.5-.4h.2v.1h-.2v-.1zm-.7-.1h.2v.1h-.2v-.1zm-.7.1h.2v.1c-.1 0-.2 0-.2-.1-.1.1-.1 0 0 0zm1.4-.3h.2v.1h-.2c-.1 0-.1 0 0-.1zm-1.2-.1h.2v.1H28c-.1 0-.1 0 0-.1zm-.5-.2h.2v.1c-.2 0-.2 0-.2-.1-.1.1-.1 0 0 0zm.5-.2h.2v.1c-.1 0-.2 0-.2-.1-.1.1-.1 0 0 0zm.6.2h.2v.1h-.2v-.1zm.7 0h.2v.1c-.2.1-.2.1-.2-.1-.1.1-.1.1 0 0zm-.7.2h.2v.1c-.1.1-.2.1-.2-.1 0 .1 0 .1 0 0zm.7-.4h.2v.1h-.2v-.1zm-1.8-.5h.2v.1c-.1 0-.2 0-.2-.1zm.7.1h.2v.1h-.2v-.1zm.1-1.3h.2v.1c-.1.1-.2.1-.2-.1-.1.1-.1.1 0 0zm1 1.3h.2v.1h-.2v-.1zm-.4-.2h.2v.1c-.1 0-.2 0-.2-.1zm.6-.1h.2v.1c-.1.1-.2.1-.2-.1 0 .1 0 .1 0 0zm-.4-.3h.2v.1h-.2c-.1 0-.1 0 0-.1zm-.6-.2h.2v.1c-.1 0-.2 0-.2-.1 0 .1 0 0 0 0zm-.2.4h.2v.1c-.1.1-.2.1-.2-.1-.1.1-.1.1 0 0zm.9-.5h.2v.1c-.1.1-.2 0-.2-.1-.1.1 0 0 0 0zm.5.3h.2v.1c-.1 0-.2 0-.2-.1-.1 0-.1 0 0 0zm.1-.3h.2v.1c-.1.1-.2.1-.2-.1 0 .1 0 0 0 0zm-2 0h.2v.1c-.1 0-.1 0-.2-.1 0 .1 0 0 0 0zm.5-.7h.2v.1h-.2v-.1zm.1-.2h.2v.1c-.1 0-.2 0-.2-.1-.1.1 0 0 0 0z"/><path fill="#FFFFFA" d="M28.2 858.4h.2v.1c-.1.1-.2.1-.2-.1 0 .1 0 .1 0 0zm-1.1 3.1h.2v.1h-.2c-.1 0-.1-.1 0-.1zm.6-2.3h.2v.1h-.2v-.1zm-.4 1.4h.2v.1h-.2c-.1 0 0 0 0-.1zm-.1.5h.2v.1c-.1 0-.2 0-.2-.1-.1 0-.1 0 0 0z"/><g stroke-width=".25"><ellipse cx="155.1" cy="829" fill="#BADEF5" stroke="#BADEF5" rx="25.4" ry="19.3"/><path fill="#7B5120" stroke="#513114" d="M155.3 806c-16 0-29 10.4-29 23.2 0 12.8 13 23.2 29 23.2s29-10.4 29-23.2c0-12.9-13-23.2-29-23.2zm-.2 42.3c-14.1 0-25.4-8.6-25.4-19.3 0-10.7 11.4-19.3 25.4-19.3 14 0 25.4 8.6 25.4 19.3 0 10.7-11.4 19.3-25.4 19.3z"/></g><path fill="#FCFAFB" stroke="#C8C8C8" stroke-width=".25" d="M185.6 834.9c-2.7 5.6-5.7 4.1-12.9 4.7-7.4.5-11.5 2.4-9.6-4.6 4.1-.4 9.8 2 13.7.3 3.7-1.6 3.5-6.8 6.4-9.2 2.4 0 3.6 1.2 3.5 3"/><path fill="#C6C4C3" stroke="#AAA" stroke-width=".25" d="M156.1 835s.3-.4 1.1-.1c.2.1 8.2 4.9 8.2 4.9s.3.3.2.7c-.1.4-.1.6-.3.7-.2.1-.6.4-.6.4l-8.6-6.6z"/><path fill="#80BFE3" stroke="#80BFE3" stroke-width=".25" d="M182 825.9l7 .9h4.7l-12.8 13.1z"/><path fill="#7A5F38" stroke="#573D1E" stroke-width=".25" d="M185.8 859.5l3.4 30 7 1.2-1.3-30.6z"/><path fill="#7A5F38" stroke="#573D1E" stroke-width=".25" d="M188.7 859.5l3.4 30 7 1.2-1.4-30.6z"/><path fill="#573D1E" stroke="#573D1E" stroke-width=".25" d="M191.2 889.8c-2.5-1.4-5.6 1.9-7.1 3.1-2.3 1.9-5.5 3.4-.3 3.4 2.1 0 6.1-.3 8-.9 1.4-.4 2.2-1.3 3.7-1.6 1.4-.3 2.9-.1 4.3-.5.6-3.6-5.4-2.5-9-4.1"/><path fill="none" d="M199.8 893.2l.4 2.2-8.3-.1 3.7-1.6z"/><path fill="#573D1E" stroke="#573D1E" stroke-width=".25" d="M187.2 890c-2.9.1-9.3 1.3-9.1 3.9 4.8.3 6.2-2 9.8-3.9"/><path fill="#FCFAFB" stroke="#C8C8C8" stroke-width=".25" d="M181.2 867.7s24.6-2.1 28.4-3.1c1.1-.3-11.3-32.3-13.3-34.5-2-2.2-6.4-.1-9.8 3.1-3.5 3.2-6.3 10.6-6.4 15.1-.3 4.4 1.1 19.4 1.1 19.4z"/><path fill="#FCFAFB" stroke="#C8C8C8" stroke-width=".25" d="M195.3 825.4c0 .7.9 2.4.6 3-.9 1.7-1.8.8-3.7 1.8 3 2-1.1 3.2-2.8 4.6-2.1 1.8-3.3 3.9-6.2 5.1 1.4-2.3 1.4-4.6 3.2-6.8 1.8-2.2 6.2-5.6 8.7-7.3"/><path fill="#020202" d="M185.3 829.3c-1.6.2-2.4.9-2.8 2 0 .5.2.9.6 1.2-.1.4-.5 1.2-.6 1.6-.6 2-2.2 3.6-1.6 5.8 2.4-.6 2.9-3.9 3.4-5.4.6-1.5 1.4-3.4 1-5.2"/><path fill="none" stroke="#2683AC" stroke-width=".25" d="M185.1 829.3c-1.1.1-2.2 1-3.2 2.2-.6-.7-.9-3.5-.5-4.3m3.7 2.1c.5.8.8 1.9 1.5 2.7"/><path fill="#93602D" stroke="#683C17" stroke-width=".25" d="M156.8 841c1.3-2 1.4-4 3.2-5.6 2.6 1 2 3.5 1.7 5.6"/><path fill="#FDD9BE" d="M159.8 833.7c-.5 1-.7 2.1.4 2.8.6-.1 1-.3 1.2-.7.2.8.8 1.1 1.3 1.8.5-.5.9-1.5.9-2.1-1.3-.6-2.7-1.1-4.1-1.5m37.3-11s-.4-1.2-2.2 1.9c-1.5 2.7-6.8 4.3-10.6 4-7.7-.6-14-5.6-11.7-7.3 2.3-1.8.8-3.3.2-4.8-.5-1.5-1.1-6.6 5.7-8 6.7-1.5 14.7-1.2 15 .5.3 1.7 3.5 9.3 4.8 9 1.3-.4-1.2 4.7-1.2 4.7z"/><linearGradient id="b" x1="328.757" x2="332.154" y1="200.848" y2="200.848" gradientTransform="rotate(-14.895 2631.522 1111.33)" gradientUnits="userSpaceOnUse"><stop offset="0" stop-color="#ec1475"/><stop offset="1" stop-color="#fff5cb"/></linearGradient><path fill="url(#b)" d="M172.3 821.5c-1 .8-.4 2.2 1.3 3.5 1.3-.5 2-1.4 1.7-2.2-.2-.9-1.5-1.4-3-1.3z" opacity=".18"/><linearGradient id="c" x1="3014.916" x2="3006.6" y1="207.314" y2="207.314" gradientTransform="scale(-1 1) rotate(14.863 -948.32 -11738.79)" gradientUnits="userSpaceOnUse"><stop offset="0" stop-color="#ec1475"/><stop offset="1" stop-color="#fff5cb"/></linearGradient><path fill="url(#c)" d="M190.1 822.3c.5 1.3-1 2.7-3.3 3.1-2.2.4-4.4-.2-4.9-1.5s1-2.7 3.3-3.1c2.2-.4 4.4.2 4.9 1.5z" opacity=".18"/><path fill="none" stroke="#B6762A" stroke-width=".25" d="M179.4 821.6s-1.2-1.3-2.4-.9-.7 1.2-.7 1.2"/><path fill="#020202" d="M178.3 827c1.5-.3 3-.4 4.5-.3"/><path fill="none" stroke="#020202" stroke-width=".25" d="M176.1 818.8c.2.7-.4 1.3-1.4 1.5-1 .2-2-.2-2.2-.8-.2-.7.4-1.3 1.4-1.5 1-.2 2 .2 2.2.8zm6.4-.2c.2.7-.4 1.3-1.4 1.5-1 .2-2-.2-2.2-.8-.2-.7.4-1.3 1.4-1.5 1-.2 2 .1 2.2.8z"/><path fill="#050506" d="M174.5 819c.1.2-.1.3-.3.4-.2 0-.5 0-.6-.2-.1-.2.1-.3.3-.4.3-.1.5 0 .6.2zm6.7-.1c.1.2-.1.3-.3.4-.2 0-.5 0-.5-.2-.1-.2.1-.3.3-.4.2-.1.4 0 .5.2z"/><path fill="none" d="M177.4 813.3c-.5-2.4 3.2-5 6-5.5"/><path fill="#020202" d="M176.4 819.6c.6-.6 1.7-.5 2.4-.1 0-.3-.1-.8-.3-1.1-.8.1-2.7 0-2.4.9m16.7 2.2c1.2-.3 1.9-.2 2-1.2.1-1.4-1.8-1.7.2-2.4 1.2-.4 2.6.2 2.8-1.2.1-.9-1.6-2.5-2.1-3.4-1.6-2.9-2.7-6.1-7.4-6.5-3.1-.2-6.6.6-9.5 1.6-1.5.5-4.5 1.1-5.7 2-1.9 1.5-.8 3.4-.7 4.3 4 .3 7.4-1.8 11.2-2.3 2.2-.3 4.3 0 5.7 1.3 1 .9 2.3 2 2.4 3.2.1.6-.2 1.1-.1 1.8 0 .9.6 2 1.2 2.8z"/><path fill="#020202" d="M182.5 818.6s7.8-2.4 10.2-2.6c2.4-.2 3.9.4 4.7 1.2.8.8.6 1.6.6 1.6s-2.8-2.3-3.5-2.2c-.7.1-11.7 2.8-11.7 2.8l-.3-.8z"/><path fill="#FDD9BE" stroke="#FBCDB3" stroke-width=".25" d="M195.6 821.8c-1.1.9 1.2 1.3 2 .7.7-.5.5-2.2.4-2.8-.3-2.8-4.8-2.5-3.5-.2"/><g fill="#0F0C17"><path d="M191.3 856.6s-.1 0 0 0c-.1.1.1.1.1.1h2.6v-.1h-2.7zm0 .4s-.1 0 0 0c-.1.1.1.1.1.1h2.6v-.1h-2.7zm0-.8s-.1 0 0 0c-.1.1.1.1.1.1h2.6v-.1h-2.7zm0-.7s-.1 0 0 0c-.1.1.1.1.1.1h2.6v-.1h-2.7zm-.1.4c-.1.1.1.1.1.1h2.6v-.1h-2.7zm0-.8c-.1.1.1.1.1.1h2.6v-.1h-2.7zm.1-.8s-.1.1 0 0c-.1.1.1.1.1.1h2.6v-.1h-2.7zm0 .4s-.1 0 0 0c-.1.1.1.1.1.1h2.6v-.1h-2.7zm0-.7s-.1 0 0 0c-.1.1.1.1.1.1h2.6v-.1h-2.7zm0-.8s-.1 0 0 0c-.1.1.1.1.1.1h2.6v-.1h-2.7zm0 .4s-.1 0 0 0c-.1.1.1.1.1.1h2.6v-.1h-2.7zm0-.8s-.1 0 0 0c-.1.1.1.1.1.1h2.6v-.1h-2.7zm0-.8c-.1.1.1.1.1.1h2.6v-.1h-2.7zm0 .4c-.1.1.1.1.1.1h2.6v-.1h-2.7zm0-.7s-.1 0 0 0c-.1.1.1.1.1.1h2.6v-.1h-2.7zm.1-.8s-.1 0 0 0c-.1.1.1.1.1.1h2.6v-.1h-2.7zm0 .4s-.1 0 0 0c-.1.1.1.1.1.1h2.6v-.1h-2.7zm-.1-.8c-.1.1.1.1.1.1h2.6v-.1h-2.7zm.1-.7s-.1 0 0 0c-.1.1.1.1.1.1h2.6v-.1h-2.7zm0 .3s-.1 0 0 0c-.1.1.1.1.1.1h2.6v-.1h-2.7zm0-.7s-.1 0 0 0c-.1.1.1.1.1.1h2.6v-.1h-2.7zm0-.8s-.1 0 0 0c-.1.1.1.1.1.1h2.6v-.1h-2.7zm0 .4s-.1 0 0 0c-.1.1.1.1.1.1h2.6v-.1h-2.7zm0-.8s-.1.1 0 0c-.1.1.1.1.1.1h2.6v-.1h-2.7zm0-.7c-.1.1 0 .1 0 .1h2.6v-.1h-2.6zm0 .4s-.1 0 0 0c-.1.1.1.1.1.1h2.6v-.1h-2.7zm0-.8s-.1 0 0 0c-.1.1.1.1.1.1h2.6v-.1h-2.7z"/><path d="M192 846.7s1.9-.4 2.3.1c.2.2 1 4.5 1.1 5.6.1 1.1-.3 4.8-.5 5-.4.5-3.2-.1-3.4-.1-.2 0-.2-.2-.1-.2.2 0 1.7 0 1.9-.1.3 0 .7-2.2.7-2.9 0-.8-.2-2.9-.4-3.6-.2-.7-.2-3.1-.3-3.3-.1-.2-.2-.2-.7-.2h-.9s-.3-.1-.3-.2c-.1-.1.6-.1.6-.1z"/></g><path fill="#FCFAFB" stroke="#C8C8C8" stroke-width=".25" d="M189.7 862.5l9.4-1.2-2.2-8.5-9.4 1.2z"/><path fill="#FCFAFB" stroke="#C8C8C8" stroke-width=".25" d="M196.9 852.8l-9.4 1.2.5 1.8 9.2-1.2z"/><g stroke-width=".25"><ellipse cx="57" cy="829" fill="#BADEF5" stroke="#BADEF5" rx="25.4" ry="19.3"/><path fill="#7B5120" stroke="#513114" d="M57.2 806c-16 0-29 10.4-29 23.2 0 12.8 13 23.2 29 23.2s29-10.4 29-23.2c0-12.9-13-23.2-29-23.2zm-.2 42.3c-14.1 0-25.4-8.6-25.4-19.3 0-10.7 11.4-19.3 25.4-19.3 14 0 25.4 8.6 25.4 19.3 0 10.7-11.4 19.3-25.4 19.3z"/></g><path fill="#989898" stroke="#757574" stroke-width=".25" d="M130.3 878.6l2.5 7.1 1.8-3.1-.9-4.5z"/><ellipse cx="156.8" cy="907.4" fill="#989898" stroke="#757574" stroke-width=".25" rx="19.4" ry="5.5"/><path fill="#506B48" d="M142.7 882s-14.3-19.4-6.9-29.5c7.4-10 14-8.5 20.3-8.3 6.3.2 18.6 3 19.4 8.3.9 5.3-4.9 28-4.9 28.6.1.7-27.9.9-27.9.9z"/><path fill="#F8DC4D" d="M153.1 858.9c1.2.1 7.2-1.3 7.1.4-.1 1.4-7.8 2.6-6.9-.4"/><path fill="#EBBB8C" d="M148.4 847.4c-.3 3 1.6 8.7 4.8 10.6 5.1 2.9 9.5-1.2 10.8-5 1.1-3 2.1-8-2.2-9.4-5.1-1.7-10.1-.2-12.6 3.4"/><path fill="none" d="M148.4 851c-3.6-2-4.4 4.8.9 4.3m15.9-4.3c.5-.2 1.1-.3 1.6-.3 1.7 1.9-1.2 4.3-3.9 4.2"/><path fill="#EBBB8C" d="M158.4 860.6c0-.9.1-1.8-.1-2.6h-3.6v2.6"/><path fill="#FCFDFF" stroke="#FCFDFF" stroke-width=".25" d="M154.1 859.3c-3.1 0-3.2 3.3-4 4.9-1 2.1-2.7 4.1-4 6-1.4 2-2.8 4-4.4 6-2 2.4-5.3 4-7.1 6.4-2.8 3.8-3.4 8-3.1 12.2.1 1.2-.3 5.5 2.4 5.4 2.6-.1 1-4.9 1.1-6.1.1-5.1 5.3-8.7 10.7-11.5 4.5-2.4 11.4-5.8 16.8-3.9 5.7 2 11.5 5.3 14.5 9.2 2.7 3.6 6.8 7.8 5 12.2 3.7-1.2 1.4-8.2.3-10.4-2.1-4.3-4-8.1-8.7-11.1-4.5-2.9-7.4-6.3-9.7-10.4-1-1.9-1.1-10.5-3.2-8.6-1.1 1.1-2.2 2.1-6.6 1.2-.4-1.7-2.6-1.5-3 .1"/><path fill="#506B48" d="M135.5 873c-2.5-.1-13.8.7-10.3 4.5.9 1 4.6 1.2 6.1 1 3.9-.4 3.8-1.4 2.4-3.3 1.4-.2 2.9 0 4.4-.2-.4-.5-.9-1.2-1.5-1.7m34.6 1c.7 0 3.2-.2 3.6.3 1.1 1.4-1.6.8-1.7 1.8-.1 2 5.5 0 7.8 1.7 1.9 1.5 2-3.3-.3-4.7-1.6-.9-6-.4-8-.4m-34.8 18.6c1-3.4 13.9-2.7 17.8-3 4.8-.5 18.6-2 14.6 4.1 1.9.9 5.2-.3 5.9-1.7 1-1.9-1.2-4.6-2.5-6-2.9-3.1-9.5-5.6-14.4-6.4-5.5-.9-10.9 1.7-15.4 3.9-2.6 1.2-5.9 2.7-7.2 4.9-.9 1.5-1.5 4.9 1.5 5.3"/><path fill="#93602D" stroke="#683C17" stroke-width=".25" d="M153 881.1c-.5-2 3.7-2.2 2.5-4.3-1.6-2.8-5.5.7-6.2 2.2-.4.8-1 4.7-.3 5.3 2.3 2.1 2.6-2.2 3.7-3m5.7-.6c-4.3-3 3.2-7.4 4-1 .1 1 .8 4-.3 4.6-3.2 1.8-3.1-1.9-2.4-3.2-.4-.3-.8-.5-1.3-.7"/><path fill="#989898" stroke="#757574" stroke-width=".25" d="M138.1 893.1c10.9.3 21.6-1.5 32.2.2 1.9-6.4-9.6-5.6-15.1-5.3-3.4.2-6.8.9-10.3 1-3.9.2-7.2.3-7 4 .2.1.5.2.7.2m37-12.6v-4.2h3.1l-1.6 5.2z"/><path fill="#E2E2E1" stroke="#E2E2E1" stroke-width=".25" d="M148.7 893.5c-5.1 1.1-8.3 7-14.2 7-.3-2-1.2-7.8.8-9.1 3.8 2.6 7.9 2 12.9 2m20.5.5c2.4.5 3.6 2.9 5.7 3.9 1.7.8 5.3 3.2 6.6 2.1 2.9-2.5-1.8-9.8-4.3-11.4-1.1 1.1-.1 2.5-1.6 3.6-1.4 1-3.9.6-5.6.8 0 .2-.1.4-.1.5"/><path fill="#989898" stroke="#757574" stroke-width=".25" d="M152.2 892.9v13.9h9.3l-.7-1.1 1-13.1z"/><path fill="#93602D" stroke="#683C17" stroke-width=".25" d="M149.3 846.5c.1 1.8.1 4.3-.2 5.8-.1-.9-.7-1.3-1.5-1.9-1.5-1.1-1.3.4-2-1.5-.2-.5-.1-1.8 0-2.3.5-1.5 2-1.5 2.7-2.6 1.3-2 0-3.7 3.5-4.9 2.5-.8 4.9-.5 7.1.3 4.7 1.6 9.8 4.7 9.2 9-.3 2.2-2.9 3-4 .5-.9-1.9 1.7-4.3-3.1-3.9 0 1.5-3 3.7-5.2 3.2-2.5-.6-2.1-3.9-6-2.6"/><linearGradient id="d" x1="153.985" x2="150.361" y1="853.539" y2="853.539" gradientUnits="userSpaceOnUse"><stop offset="0" stop-color="#ec0d74"/><stop offset="1" stop-color="#fff5cb"/></linearGradient><ellipse cx="152.2" cy="853.5" fill="url(#d)" opacity=".38" rx="1.8" ry="1.4"/><linearGradient id="e" x1="159.916" x2="164.141" y1="852.993" y2="852.993" gradientUnits="userSpaceOnUse"><stop offset="0" stop-color="#ec0d74"/><stop offset="1" stop-color="#fff5cb"/></linearGradient><path fill="url(#e)" d="M164.1 853c0 .8-.9 1.5-2.1 1.5-1.2 0-2.1-.7-2.1-1.5s.9-1.5 2.1-1.5c1.2 0 2.1.7 2.1 1.5z" opacity=".38"/><circle cx="158.4" cy="850.5" r=".7" fill="#010103"/><path fill="#010103" d="M155.4 850.7c0 .4-.3.7-.7.7-.4 0-.7-.3-.7-.7 0-.4.3-.7.7-.7.4 0 .7.3.7.7z"/><path fill="none" stroke="#B6762A" stroke-width=".25" d="M154.7 853.1s.5-.9 1.9-.8c1.4.1 1.7.8 1.7.8m-3.2 2.7c.2.3 1.3.3 3 .3"/><path fill="#FCFAFB" stroke="#C8C8C8" stroke-width=".25" d="M196.6 842c-2.7 5.6-5.7 4.1-12.9 4.7-7.4.5-11.5 2.4-9.6-4.6 4.1-.4 9.8 2 13.7.3 3.7-1.6 3.5-6.8 6.4-9.2 2.4 0 3.6 1.2 3.5 3"/><path fill="#C6C4C3" stroke="#AAA" stroke-width=".25" d="M163.9 841.8s-7.5-2.5-8-2.6c-.5-.1-.6-.4-.7-.5-.1-.1 0-.3 0-.3l7.9 1.8 1.5 1.4s0 .1-.1.1-.6.1-.6.1z"/><path fill="#0F4673" d="M165.7 842.4l-1.3-.4-.3-.2s.3 0 .4-.1c.1-.1.3-.2.3-.2l.9.9z"/><path fill="#0D4F85" d="M165.5 840.4s.3.2.7.5c.4.3.9.5.8.8v.4c0 .1-.2.4-.2.5 0 .1 0 .3.2.5s.7.5 1 .7c.3.2 1.1.7 1.2.8.1.1.3.2.4.2 0 .1-.1.3-.3.2-.2-.1-1.1-.6-1.5-.5-.3 0-1 .5-1.1.6-.1.1-.2.3-.3.3-.1-.1-.2-.3-.2-.3s0-.2.1-.2.3-.2.4-.3c.1-.1.3-.4.2-.7-.1-.3-.2-.6-.4-.8-.2-.2-.3-.3-.5-.4-.1-.1-1.3-1.1-1.3-1.1s.4-.1.6-.3c.2-.1.3-.2.3-.4-.1-.2-.1-.5-.1-.5z"/><path fill="#0D4F85" d="M171.9 843.2v-.5s-.6 0-1-.3c-.3-.2-.6-.6-.6-.7 0-.1-.1-.4 0-.6l.2-.4-.4-.2-.2.4-.4.4c-.2.1-.4.2-.7.2h-.8s-.2-.1-.5-.1-.5-.1-.5-.1h-.1s.1.2.1.3v.4s.1.1.1 0c.1-.1.4-.2.5-.2h.5c.2.1.5.2.7.2.1 0 .9.3 1 .4.1.1.6.2.9.3.2.1.8.3.9.3 0 .1.3.2.3.2z"/><path fill="#C6C4C3" d="M165.7 841.5c-.1.2-.1.4.2.5.2.1.5.1.7-.1.1-.2.1-.4-.2-.5-.3-.1-.6-.1-.7.1zm.5.6l-.3-.7"/><path fill="#020202" d="M165.3 840.1c.5.6 0 1.1-.6 1.4 0 .1 0 .1.1.1.2-.2.6-.4.8-.6.1-.2.1-.4 0-.5 0-.1-.1-.6-.3-.4m-.6 1.5c-.1 0-.3.1-.4.1h-.5c.2.4.6 0 .9-.1" opacity=".08"/><path fill="#0D4F85" d="M170.2 840.5c-.7.8-.3 1.9.8 2.4 1.1.6 2.6.4 3.3-.4.7-.8.3-1.9-.8-2.4-1.1-.6-2.6-.4-3.3.4zm.6.2c.5-.6 1.5-.7 2.3-.3.8.4 1 1.1.5 1.7-.5.6-1.5.7-2.3.3-.8-.4-1-1.1-.5-1.7zM166 845c-.7.8-.3 1.9.8 2.4 1.1.6 2.6.4 3.3-.4.7-.8.3-1.9-.8-2.4s-2.6-.4-3.3.4zm.6.3c.5-.6 1.5-.7 2.3-.3.8.4 1 1.1.5 1.7-.5.6-1.5.7-2.3.3-.8-.4-1-1.2-.5-1.7z"/><path fill="#FDD9BE" d="M173.5 843.1c-1 .1-.7-.4-.6-1.1 0-.3-.7-1.1-.9-1.4-.2-.3-1.1 0-1.3.3-.3.3 0 .6.1.9.1.3.3.7.2 1-.3.6-1.1 1.4-1.9 1.7-.7.3-2 .1-2.4.7-.6 1 1.1.8 1.7 1-.4.1-.8.6-.6.9.3.5.9.2 1.3.4-.2.2-.5.1-.6.3-.2.3 0 .6.3.7.5.2 1.5-.1 2-.2.8-.2.9-.7 1.3-1.2s.5-1.1 1-1.5"/><path fill="none" stroke="#FFF" stroke-width=".25" d="M56 817.9l9.2 6.9m-4.9-9.4l13.5 10.2m82.3-5.8l16.2 10.5m-11.4-9.8l6.5 3.9"/><path fill="none" d="M73.9 836.8v-.1"/><path fill="#030202" d="M72.2 838.6l.3 2.5s.3.1 1.1-.8c.6-1-1.4-1.7-1.4-1.7z" opacity=".04"/><ellipse cx="61.9" cy="905" fill="#989898" stroke="#757574" stroke-width=".25" rx="17.1" ry="5.5"/><path fill="#506B48" d="M49.3 879.4s-12.6-19.4-6-29.5c6.5-10 12.3-8.5 17.8-8.3 5.5.2 16.3 3 17.1 8.3.8 5.3-4.3 28-4.3 28.6 0 .7-24.6.9-24.6.9z"/><path fill="none" d="M54.3 848.4c-3.2-2-3.9 4.8.8 4.3m14-4.3c.5-.2.9-.3 1.4-.3 1.5 1.9-1 4.3-3.5 4.2"/><path fill="#506B48" d="M43 870.4c-2.2-.1-12.1.7-9 4.5.8 1 4 1.2 5.3 1 3.4-.4 3.3-1.4 2.1-3.3 1.3-.2 2.6 0 3.9-.2-.4-.5-.8-1.2-1.3-1.7m1 18.3c.9-3.4 12.2-2.7 15.6-3 4.2-.5 16.4-2 12.8 4.1 1.7.9 4.6-.3 5.2-1.6.9-1.9-1-4.6-2.2-6-2.6-3.1-8.3-5.6-12.6-6.4-4.8-.9-9.6 1.7-13.6 3.9-2.3 1.2-5.2 2.7-6.3 4.9-.8 1.5-1.3 4.9 1.3 5.3"/><path fill="#989898" stroke="#757574" stroke-width=".25" d="M45.2 890.5c9.6.3 19-1.5 28.3.2 1.6-6.4-8.4-5.6-13.3-5.3-3 .2-6 .9-9 1-3.4.2-6.3.3-6.2 4 .2.1.4.2.6.2"/><path fill="#989898" stroke="#757574" stroke-width=".25" d="M57.6 890.3v13.8h9.3l-1.7-1 .9-13.2z"/><path fill="#506B48" d="M75.8 869.7c2.2-.1 11.6 1.1 8.5 5-.8 1-4 1.2-5.3 1-3.4-.4-3.3-1.4-2.1-3.3-1.3-.2.2-2.6-1.1-2.7.3-.5-.5.4 0 0"/><path fill="#E2E2E1" stroke="#E2E2E1" stroke-width=".25" d="M50.6 890.4c-1.9 1.1-9.4.1-6.5-2-2.5.5-4.9 2.2-5.8 4.2-.5 1.2-1.2 4.8-.5 6 2.5 4.1 12.1-6.2 13.9-8m16.4-.2c4.1.7 7.5 4.6 12 4 2.7-.3 2.6-1.3 2.4-3.6-.2-2.1-1.2-4.5-3.6-5.5-.9 1.5.1 3.3-2.2 4.3-1.5.7-6.5 1.2-8.1 1.2"/><path fill="none" stroke="#FCFDFF" stroke-width=".25" d="M45.1 888.4v.7"/><path fill="#EBBB8C" d="M41.1 840.5s-.3 4 .5 4.7c.7.7 3.5 2.2 10 3.1 7.4 1 11 .9 14.4 0 2.9-.7 5.2-1.6 6.6-2.5 1.4-1 2.1-1.7 2.5-2.7.4-1.1.7-2.1.4-2.4-.3-.3.9-4.5.9-5.2 0-3.6-11.9-7.7-18.1-8.1-5.9-.3-16.3 4.6-16.4 9-.1.8-.8 4.1-.8 4.1z"/><path fill="#EBBB8C" d="M41.1 843.2s-1.5.8-1.9.3c-.5-.5-.9-1.7-.8-2.3.1-.6 1.6-2.1 2-2.1.4 0 1.3.1 1.3.1l-.6 4zm34.1-4.2s1.4-1 1.9-.5 1 1.6 1 2.2c0 .6-1.4 2.2-1.8 2.2H75l.2-3.9z"/><circle cx="65.5" cy="838.3" r=".7" fill="#010103"/><circle cx="52.5" cy="839.3" r=".7" fill="#010103"/><path fill="none" stroke="#B6762A" stroke-width=".25" d="M57.6 842.5s.4-.9 1.7-.8c1.3.1 1.5.8 1.5.8"/><linearGradient id="f" x1="53.758" x2="48.397" y1="844.129" y2="844.129" gradientUnits="userSpaceOnUse"><stop offset="0" stop-color="#ec0d74"/><stop offset="1" stop-color="#fff5cb"/></linearGradient><path fill="url(#f)" d="M48.4 844.1c0 1.3 1.2 2.4 2.7 2.4 1.5 0 2.7-1.1 2.7-2.4 0-1.3-1.2-2.4-2.7-2.4-1.5 0-2.7 1.1-2.7 2.4z" opacity=".38"/><linearGradient id="g" x1="64.09" x2="70.343" y1="843.835" y2="843.835" gradientUnits="userSpaceOnUse"><stop offset="0" stop-color="#ec0d74"/><stop offset="1" stop-color="#fff5cb"/></linearGradient><path fill="url(#g)" d="M70.3 843.8c0 1.4-1.4 2.5-3.1 2.5-1.7 0-3.1-1.1-3.1-2.5s1.4-2.5 3.1-2.5c1.7.1 3.1 1.2 3.1 2.5z" opacity=".38"/><linearGradient id="h" x1="40.91" x2="76.3" y1="834.937" y2="834.937" gradientUnits="userSpaceOnUse"><stop offset="0" stop-color="#ef5123"/><stop offset=".057" stop-color="#db4a20"/><stop offset=".255" stop-color="#993416"/><stop offset=".444" stop-color="#63210e"/><stop offset=".618" stop-color="#381308"/><stop offset=".774" stop-color="#190904"/><stop offset=".907" stop-color="#070201"/><stop offset="1"/></linearGradient><path fill="url(#h)" d="M43.1 842l-.4-3.1s3.4-6.6 5.7-6.8c2.3-.2 8.3-1.5 10.6-1.4 2.3.2 7.4.7 9.7 2.6 2.3 1.9 5.5 3.6 5.5 5.1v2.9l1.2-.7s1.5-4.8.7-6.1c-1.1-1.9-9.1-8.3-17.9-7.2-8.5 1.1-13.5 3.9-15.2 6.3-1.7 2.4-1.9 7.9-2 8.5-.1.5 1.8.5 1.8.5l.3-.6z"/><linearGradient id="i" x1="43.301" x2="64.349" y1="830.55" y2="830.55" gradientUnits="userSpaceOnUse"><stop offset="0" stop-color="#ef5123"/><stop offset=".057" stop-color="#db4a20"/><stop offset=".255" stop-color="#993416"/><stop offset=".444" stop-color="#63210e"/><stop offset=".618" stop-color="#381308"/><stop offset=".774" stop-color="#190904"/><stop offset=".907" stop-color="#070201"/><stop offset="1"/></linearGradient><path fill="url(#i)" d="M63.9 828.6s.8 2.5.2 2.7c-.6.2-9.3 1-12.5 1-3.2 0-5.3 1-6.1 1.5-.8.5-2.3-1.5-2.3-1.5s8-5.4 15.5-5.1c7.7.3 5.2 1.4 5.2 1.4z"/><linearGradient id="j" x1="-15.754" x2="-3.75" y1="783.968" y2="783.968" gradientTransform="rotate(-13.6 280.283 549.112)" gradientUnits="userSpaceOnUse"><stop offset="0" stop-color="#ef5123"/><stop offset=".057" stop-color="#db4a20"/><stop offset=".255" stop-color="#993416"/><stop offset=".444" stop-color="#63210e"/><stop offset=".618" stop-color="#381308"/><stop offset=".774" stop-color="#190904"/><stop offset=".907" stop-color="#070201"/><stop offset="1"/></linearGradient><path fill="url(#j)" d="M58.3 843.4s-6.4 1-7.8 1.5c-1.4.6-3.9 2.1-2.3 1.7 1.7-.4 6.6-.1 8.1-.4 1.5-.3 2.5-1.1 3-1.2.6-.1-.1-1.6-.1-1.6h-.9z"/><linearGradient id="k" x1="134.018" x2="143.651" y1="862.172" y2="862.172" gradientTransform="matrix(.9777 .2277 -.2545 1.0926 147.525 -128.235)" gradientUnits="userSpaceOnUse"><stop offset="0" stop-color="#ef5123"/><stop offset=".057" stop-color="#db4a20"/><stop offset=".255" stop-color="#993416"/><stop offset=".444" stop-color="#63210e"/><stop offset=".618" stop-color="#381308"/><stop offset=".774" stop-color="#190904"/><stop offset=".907" stop-color="#070201"/><stop offset="1"/></linearGradient><path fill="url(#k)" d="M60.3 843.5s5.1.5 6.2 1c1.1.5 3 2 1.7 1.7-1.3-.3-5.4.5-6.6.3-1.2-.2-1.9-1-2.3-1-.4-.1 0-1.8 0-1.8l1-.2z"/><path fill="#030202" d="M59.3 843.7s-8.8 2-11.5 1.8c-2.7-.2-3.2.1-4.1-1.4-.9-1.5-2.8-2-2.8-2s-.3 1.9.7 3c1 1.2 11.1 4.4 18.5 3.6 7.4-.8 9.1-1 11.2-2.2 2.2-1.2 3.3-2.2 3.1-2.7-.2-.5-2.3.9-4.8 1.4-2.5.5-10.2-1.4-10.3-1.5z" opacity=".04"/><path fill="#030202" d="M73.7 841.3l.2 2.5s.3.1.9-.8c.7-.9-1.1-1.7-1.1-1.7z" opacity=".04"/><path fill="#B46B29" d="M58.2 836.6c0-.1-.2-.1-.2-.3 0-.2.2-.2.3-.3.1-.2.2-.3-.2-.4h-.6s-.1-.1 0-.1c-.2-.1-.1-.1-.3-.1-.1 0-.2.1-.4.2-.2 0-.5-.1-.7-.1-.2 0-.5-.1-.7-.1-.2 0-.5.2-.7.2-.2 0-.4-.1-.6-.2-.3 0-.4.1-.7.2-.5.1-.9 0-1.4.2-.1 0-.2.1-.3.1-.1 0-.1.2-.3.2-.4.1-.3-.1-.5-.1-.3-.1-.4 0-.7.1-.1 0-.2-.1-.2 0-.2 0-.1.2-.2.2-.3.2-.4.1-.8.1-.2 0-.5.2-.7.2-.3 0-.5-.2-.7-.1-.3 0-.5.3-.6.4-.1.1-.1.2-.2.3 0 .1-.2.1-.3.2-.3.2-.1.4-.2.6-.1.2-.4.3-.5.5-.1.2-.1.5-.3.7l-.1.2s-.2.2-.3.2c-.1.1-.4.5-.4.6.1.2.5.2.7.3h.4c.1 0 .2.1.3.1.3 0 .5 0 .7-.2.2-.2.1-.4.3-.5 0-.1.3 0 .3-.1.1-.1 0-.3.1-.3.2-.1.5.1.4-.3.1 0 .2-.1.3-.1l-.1-.2.2-.2c.1-.1.2-.3.4-.4.1 0 .5-.2.6-.2.1 0 .2.1.3.1.2 0 .2-.1.3-.2.3-.2.8-.3 1.2-.4.2-.1 1.2-.4 1 .1.2 0 .5-.1.7-.1 0 0 .2.1.3.1.1 0 .1-.1.1-.1.1 0 .2.1.2.1.3 0 .3-.3.6-.3.1 0 .2.2.3.2.2 0 .3-.1.4-.1.3-.1.4 0 .8 0 .1 0 .3 0 .5-.1h.4c.1 0 .1.2.2.2.2 0 .3-.1.5-.1.6-.4 1.2-.2 1.1-.9zm2.1-.7c.1-.2.2-.6.5-.6.2 0 .2.1.4.1h.4c.3 0 .6-.1.8-.2.2-.1.1-.2.3-.2.1 0 .3.1.5.1.3 0 .5-.1.8-.2.4-.1.5 0 .9 0 .3 0 .5-.2.8-.1.3.1.4.2.8.2v.2c.2 0 .5.1.7.1 0-.3.7-.2 1-.3.2.8 1.7-.1 1.9.4.2-.3.4-.1.5.1.1.1.1.2.3.3.1.1.3.1.4.2.1.1.1.3.2.3.1.1.2.1.3.2.3.2.5.4.6.7.1.1.1.2.2.4.1.1.3.1.4.2.1.1.5.6.4.8 0 .1-.8.3-.9.3-.3 0-.6-.2-.9 0 0-.3-.2-.6-.5-.8-.1-.1-.4-.1-.5-.2-.1-.1-.3-.2-.5-.3 0-.3-.5-.9-.8-.9-.2 0-.4.1-.6.1-.2 0-.5-.2-.7-.2-.4-.1-.9-.1-1.3-.1-.3 0-.4.1-.7.1-.3 0-.4-.2-.6.1-.1 0-.2-.1-.2-.1 0 .3-.3.2-.4.1-.1 0-.1-.1-.2-.2-.2 0-.3.1-.4.1-.1 0 0 .1-.2.1-.1 0-.3-.1-.4-.1-.3 0-.5.1-.8.2-.1 0-.2-.1-.4 0-.1 0-.2.2-.3.2-.3 0-.5-.2-.8-.1-.4.1-.4.3-.5-.1-.1-.2 0-.5-.2-.7"/><path fill="#FCFDFF" stroke="#FCFDFF" stroke-width=".25" d="M49.1 848.3c.4 4.6-6.5 7.2-9.5 10-3.7 3.4-3.4 7.1-2.9 11.6.6 5.9-.3 11.7-.8 17.6-.2 2.6-1.8 11.2 2 12.6.8-2.8-.2-5.2 1.4-7.9 1.7-3 16.3-4.4 16.8-7.9.7-5.8-14.6-12.6-6.1-14.1 3.3-.6 6.3.4 9.4 1 3 .6 7.9 1.3 10.4 2.9 3.4 2.1-2.2 5.7-.9 8.6.7 1.6 6.3 2.1 5.9 4-.4 1.7-2 2.6-2.8 4.2 3.4.9 5.6-4.4 8.3-3.7 2.1.6 2.5 5.8.9 7 4.6-1.3 6.3-7.6 7.1-11.2.4-1.9.7-4.1.3-6.1-.4-2.3-2.1-4-3-6-.9-2-.7-4.2-1.6-6.2-1-2.2-2.9-3.9-4-6-1.4-2.6-2.3-3.3-5-5.2-2-1.4-5.9-3.9-5.9-6.2-3.3.5-5.7 1.5-9.3 1.5-3.2 0-6.7.4-9.7-.7"/><path fill="#453427" d="M65.6 901.5s2.4 4.9.7 6.5c-1.8 1.6-2.6 3.1-8.4 2.7-5.8-.4-7-.2-7.2-2.1-.2-1.9 1.1-6.2 1.7-7.1.6-.9 2.3-1.4 2.3-1.4s4.5 1.4 5.5 1.5c.8.2 5.4-.1 5.4-.1z"/><path fill="#7A5F38" d="M68.5 884.8s-1.3 10-1.8 12.7c-.5 2.7-.7 3.6-1 4.4-.3.8-5.2 1.1-6.6.1s-3.8-1-4.1-1.8c-.2-.8-.6-5.8.1-9.5.8-3.6.7-7 1.3-8.1.6-1 1.9-1.6 2.7-1.3.8.3 4 1 5.1 1.5 1.1.5 4.7 1.6 4.7 1.6l-.4.4z"/><path fill="#1A144B" d="M65.7 873.8s-1.4 2.8-4.2 4.7c-2.8 1.9-3.2 4-3.8 4.3-.6.4-1.2.6-1.2.6s-.3-5.6 2.2-7.4c2.3-1.6 4.1-2 4.7-2.2 1-.1 2.3 0 2.3 0z"/><path fill="#7A5F38" d="M70.3 874.6s-1.5 5.7-2.4 6c-.9.4-3.4-1.1-4.6-2.2-1.3-1.1-2.3-2.3-2.3-2.3l2.6-3.3 6.7 1.8z"/><path fill="#7A5F38" d="M66.6 878.6s-1.6-.6-4.3 2c-2.7 2.5-2.4 3.6-2.5 4.2-.1.6-17.3-8-16.6-11 .7-3.1 6.4-5.2 9.8-4.6 3.4.6 8.9 2.6 10.5 4 1.6 1.4 3 3.8 4.5 4.5 1.4.6-1.4.9-1.4.9z"/><path fill="#DCB38B" d="M68.3 880.4s-1.3-2.5-2.4-2.8c-1-.3-4.8 4.2-4.8 4.2l2 2.5s2.3-1.9 2.8-2.6c.6-.6 2.4-1.3 2.4-1.3z"/><path fill="#1E1917" d="M73.7 882.2s-1.4-5.3-7.1 1.6c-5.7 6.9-6 7.2-5.1 9 .9 1.9 6.3.3 8.2-2.3 1.9-2.6 2.8-3.9 3.5-5 .7-.9.5-3.3.5-3.3z"/><path fill="#453427" d="M67.6 880.2s3.2-.4 4.4.4c1.3.9-5.6 6.1-7 8.6-1.4 2.5-1.7 3.8-2.8 3.9-1.1.1-.6-7.3-.2-8.2.4-.8 1.9-1.6 3-3.1 1.2-1.5 2.6-1.6 2.6-1.6z"/><path fill="#080404" d="M75.3 904.7c.3 1.2-1.4 2.8-3.8 3.6-2.4.7-4.6.3-4.9-.9-.3-1.2 1.4-2.8 3.8-3.6 2.4-.7 4.6-.3 4.9.9z" opacity=".04"/><path fill="#FCFDFF" stroke="#EAEAE9" stroke-width=".25" d="M42.8 842.7c.5-2.4 4.5-1.1 3.1 1.2 3.2-1.3 4.9 1.7 2.5 1.7 1-.6 2.2-.7 3.4-.2.3.4.2.7-.1 1 .9-1.1 3.4-1.9 4.2-.2 1-1.2 3.5-.6 5.2-.7.4.2.8.4 1.3.5.8-.2.8-1.2 1.6-1.3 1.2-.2 2.3.4 3.6.5.2-2 2.8-1.8 4.2-.7-.1-1.4 1.6-2.8 2.9-1.3-.3.5.2-.8.2-.5 3.3 1.4-7 6.1-8.7 6.6l-1.5-.3c-.5.2-.8.6-.9 1-1.2.3-1.8.9-3.3.6-1.4-.3-2.2-1.2-3.4-1.5-1.3-.3-2.2.9-3.7-.4-1.2 1.6-2.3 1.3-4 1-.5-.1-1.1-1.1-1.8-1.3-.7-.2-1.6.7-2.4.4-1-.3-.6-1.3-1.4-1.6-.6-.3-1.8.1-2.3-.3-1.6-1.4-.8-2.5.8-3.8"/><path fill="#CECECD" d="M161.5 867.3c1.8 1.8 2.7 4.3 4.2 6.3 1.3 1.7 5.8 4.3 6.1 6.1-1.3.1-2.4-.8-3.8-.8-.8-2.2-2.8-3.6-4.1-5.6-1.6-2.4-2.2-3.6-2.2-6.3m-12.3.1c.7 4.5-5.6 8.5-8 12.2.8-.1 1.8-.2 2.6.1 1.6-3.2 3.8-7.1 4.3-10.6"/></g></switch></svg>
