<svg xmlns="http://www.w3.org/2000/svg" xmlns:xlink="http://www.w3.org/1999/xlink" version="1.0" viewBox="0 129 110 123"><switch><g><radialGradient id="a" cx="34.607" cy="9.035" r="5.091" gradientTransform="matrix(.9445 0 0 -.9445 44.914 205.286)" gradientUnits="userSpaceOnUse"><stop offset="0" stop-color="#fff"/><stop offset=".309" stop-color="#fcfdfe"/><stop offset=".525" stop-color="#f3f6fb"/><stop offset=".712" stop-color="#e4ebf6"/><stop offset=".883" stop-color="#cedbef"/><stop offset="1" stop-color="#bacce9"/></radialGradient><path fill="url(#a)" d="M79.2 195.2c0-1.8-2.5-3.9-3.6-2-.6 1-.1 1.7-.6 2.6-.7 1.2-2.3 1-2.5 2.5.8.4 1.7.2 2.6.3-.9 2.7 2.1 3.4 3.3 1-.9.9 1.3 1.2 2.2.7 1.1-.5.3-1.2.8-1.7.5-.6 1.2-.6 1.6-1.2-.3-.1-.4-.5-.9-.5 1.9-1.2-1.6-2.6-2.8-2.5"/><radialGradient id="b" cx="17.593" cy="7.884" r="1.624" gradientTransform="matrix(1.8259 0 0 -1.5655 37.576 211.619)" gradientUnits="userSpaceOnUse"><stop offset="0" stop-color="#fff"/><stop offset=".309" stop-color="#fcfdfe"/><stop offset=".525" stop-color="#f3f6fb"/><stop offset=".712" stop-color="#e4ebf6"/><stop offset=".883" stop-color="#cedbef"/><stop offset="1" stop-color="#bacce9"/></radialGradient><path fill="url(#b)" d="M68.4 199.5s.4-.8 1.2-.2c.8.6 1.7.9 1.2 1.3-.4.5-1.1 1.1.2 1.2 1.2.1 1.7-1 1.6-1.8-.2-.9.2-1.3-1.1-2.3-1.2-1.1-1.8-.9-2.4-.8-.6.1-1.3.4-1.7 1-.3.6-.8 1.4-.8 1.6.1.2 1.8 0 1.8 0z"/><path fill="#060606" d="M63.8 199.7c2.2-1.6 5-.2 5.7-2.7.8-2.8-4.6-3.5-8.2-1.1-2.7 1.7 1.9 2.5.4 4.9-.7 1-3.6 2.4-3.4 3.5.4 1.4 3.4.6 4.2.2" opacity=".04"/><path fill="#FFC" stroke="#FF9" stroke-width=".25" d="M105 204.9c0 1.7-1.8 3.8-4.1 3.8H55c-2.3 0-3.2-1.2-3.2-2.9l.1-18.4c0-1.7.8-2.8 3.2-2.8h45.8c2.3 0 4.2 1.4 4.2 3.2l-.1 17.1z"/><path fill="#FF9" stroke="#CC0" stroke-width=".25" d="M54.6 208.7l-.5-24.8-47.8 36.9s2.3 27.4 3.8 27.4c1.7 0 44.5-39.5 44.5-39.5z"/><path fill="#BFB88F" stroke="#E7E3BE" stroke-width=".145" d="M54.6 208.7l24.4-.5-15.5 14.6H38.4l16.2-14.1z"/><path fill="#FFC" stroke="#990" stroke-width=".25" d="M108 209.3l-.5-25.2-44 37.9s-1.6 26.7 0 26.7 44.5-39.4 44.5-39.4z"/><path fill="#F4EED0" stroke="#E7E3BE" stroke-width=".145" d="M6.3 220.8h5.5l42.7-32.5 4.2-3.7s-2.9-1.9-4.5-.7c-1.7 1.2-49.4 36.3-49.8 36.9-.6.6 1.9 0 1.9 0z"/><path fill="#FF9" stroke="#CC0" stroke-width=".25" d="M54.1 183.9s53.4-1.2 53.4 1-3.5.9-3.5.9H51.7l2.4-1.9z"/><path fill="#FFC" stroke="#990" stroke-width=".25" d="M64.6 245.3c0 2.1-2.1 4.7-4.8 4.7H6.3c-2.8 0-3.7-1.4-3.7-3.6l.1-22.3c0-2.1 1-3.4 3.6-3.4h53.4c2.7 0 4.9 1.7 4.9 3.8v20.8z"/><path fill="none" d="M75.7 188.6l.3.2m-.5-.2l.3.2m-.4-.1l.4.2m-.2-.2l.4.2m-.5-.2l.3.2m-.4-.1l.4.1m-.5 0l.3.1m-.3-.3l.4.4m-.5-.2l.4.2m-.5-.2l.4.3m-.2-.3l.2.2m-.3-.1l.4.1m-.4 0h.4m-.2.1h.2m-.3.1l.3-.1m-.1.2l.2-.1m-.1.2l.1-.3m0 .3v-.2m.1.1v-.2m-.1-.4l.2.1m-.4-.3l.3.2m-.4-.1l.4.2m-.2-.2l.3.2m-.4-.2l.3.1m-.4 0l.4.1m-.6 0l.4.1m-.3-.3l.4.4m-.6-.3l.4.2m-.3-.2l.4.3m-.4-.2l.3.1m-.3-.1l.4.2m-.4 0h.4m-.3.1l.3-.1m-.3.2l.3-.1m.2.2v-.2m-.4.1h.2m-.1.1l.2-.1m-.1.2l.2-.1m.1-.7v.2m0-.2v.2m0-.3l-.1.2m.1-.2v.4m0-.4v.3m.1-.2v.3m-.2-.3l.1.2m.2-.2l-.1.3m.2-.2v.4m-.1-.5v.2m.2-.1v.2m.1-.2v.3m-.1-.4v.3m.3-.2v.4m-.1-.4v.3m.2-.2l-.1.3m-.6-.2l-.2.3m.3-.2l-.2.2m.3-.5v.3m.1-.3v.2m.1-.1v.2m.1-.2v.2m.1-.1v.2m.1-.3v.3m-.2-.4l-.1.3m.4-.1v.2m0-.1v.2m-.3 0l.2.1m-.7 0l.1.2m-.2-.2l.2.2m.5-.3l.2.2m-.2-.2l.1.2m-.2-.1l.2.1m-.2 0h.2m-.3 0l.3.1m-.1 0h-.2c.4 0-.3.1 0 .1l.2-.1m-.2.1l.2-.1m-.2-.8v.2m.1-.1l-.1.2m.2-.2l-.1.2m.2-.1v.2m.1-.3v.3m-.2-.4l-.1.3m.1-.1v.2m.3-.1l-.1.2m-.8.1l.2.2m-.2-.2l.1.2m.6-.3l.1.2m-.1-.2l.1.2m-.1-.3l.2.1m-.4.1l.2.1m-.2 0h.2m-.2 0l.2.1m-.3 0h.2m-.2.1l.2-.1m-.8-.7l.2.1m-.4-.3l.4.2m-.5 0l.4.2m-.2-.3l.3.2m-.4-.2l.4.2m-.6-.1l.5.2m-.5-.5l.5.4m-.1-.2l.2.2m-.4-.3l.3.2m-.2-.1l.3.2m-.5-.2l.4.2m-.5-.2l.3.1m.2-.3v.3m0-.3v.2m.1-.2v.2m-.1-.3v.4m.2-.1v.2m0-.4l.1.3m-.3-.3l.1.3m.3-.2l-.1.3m.2-.3l-.1.4m0-.4v.2m.2-.2v.2m.1-.2v.4m-.2-.5v.4m-.4-.1v.3m.7-.4v.2m-.6 0l-.1.2m.2-.2l-.2.2m.4-.4l-.2.1m.2-.1l-.1.3m.2-.3v.2m.1-.2l-.1.3m.3-.2v.2m-.1-.3l-.1.3m0-.1v.2m.2-.2l-.1.2m-.1-.4l-.1.2m.2-.2l-.1.3m.3-.2l-.1.2m-.1-.3v.3m0-.1v.2m.1-.2l-.1.2m.1 0l.2.1m-.5.4h.2m-.1.2l.1-.2m-.2.1l.2-.1m0 .3l.2-.1m-.3 0l.1-.2c.2 0-.7.2-.2 0l.2-.1m0 .4l.1-.2m.1.3l.1-.2m-.2.1l.2-.1m-.9-1.2l-.1.3m.1-.2v.2m-.3-.4v.3m-.2-.3l.2.3m-.7.1l.4.2m-.5 0h.6m-.4.1l.4-.1m-.3.3l.3-.3m-.1.3l.3-.3m-.6.2l.4-.2m-.5.1l.5-.1m-.6 0h.6m-.4.2l.3-.2m-.2.2l.3-.2m-.2.3l.2-.2m0 .3l.1-.3m0 .3v-.4m.1.3v-.2m0 0v.2m-.1 0h.3m-.4 0h.3m-.3.1h.2m-.2-.1l.3.1m-.4 0h.3m-.1-.1l.2.1m-.2-.1l.3.2m-.2-.3l.2.2m-.4.1h.2m-.3-.1v.2m-.2-.2l.1.2m0-.2v.2m-.2-.2l.1.2m0-.1l.1.2m-.3-.2l.2.1m-.2.1l.3-.1m-.3.2l.3-.1m-.3.1l.3-.1m-.4 0l.3-.1m-.4 0l.4-.1m-.3.2l.3-.1m-.2.2h.2m-.2.1l.2-.1m-.3.1l.3-.2m-.3.1l.3-.1m-.3.1l.3-.1m-.3 0h.3m-.4.2l.4-.1m-.3-.1h.2m-.2-.1h.3m1.6.3l.3-.3m-.5.2l.2-.2m-.4.1l.4-.2m-.5 0h.4m.1.3l.2-.3m-.1.3l.3-.2m-.6-.4l.5-.2m-.6.3l.5-.1m-.5.3l.4-.2m-.1.2l.3-.1m-.5.3l.4-.2m-.3 0l.2-.1m-.4.2l.4-.2m-.3.3l.6-.3m-.5.3l.5-.1m-.5.1l.4-.2m-.5.2l.4-.2m-.2.4l.3-.2m-.4.2l.5-.3m-.5.1l.3-.2m.1.3l.4-.1m-1.1.2l.6-.1m-.5 0l.6-.1m-.6 0h.4m-.4 0l.7-.2m-.7.1l.4-.2m-.4.1l.6-.2m.2.4l-.2.2m.1-.1l-.5.1m.1-.4l-.2.1m-.1-.1l.5-.1m-.5.1l1-.2m-.8.1l.3-.1m-.3-.1l.4-.2m-.7.3l.6-.1m-.5.3l.4-.1m-.4 0l.4-.1m-.2.3l.4-.1m-.5 0h.5m-.2.2l.2.1m0 0l.2-.1m-.5-.2h.4m-.5.2l.5-.1m-.5 0l.7-.1m-.6.2h.5m-.4.1l.6.1m-.6-.1l.5.1m-.4-.1l.3-.1m-.5-.1l.4.1m-.6-.2h.6m-.2.4l.5-.1m-.6.1h.5m-.2-.2l-.1.2m.3-.3l-.3.2m.2-.3l-.3.3m.2-.5l-.3.2m.4-.1l-.2.2m.1-.2l-.2.3m.1-.4l-.2.3m.1-.3l-.2.3m.2-.5l-.3.4m.2 0l.2-.2m-.4.4l.4-.3m-.3.3l.4-.2m-.5.1l.4-.2m-.3.4l.3-.1m-.4.1l.5-.2m-.5.1l.4-.3m-.2.5l.5-.1m-.5.1h.4m-.7 0l.5-.1m.1 0l.3-.1m-1 .2l.5-.1m-.5-.1h.6m-.6 0l.7-.2m-.4.4h.2m-.2 0l.6-.1m-.1-.1l-.2.1m.1-.1l-.4.2m.4-.3h-.2m.3 0l-.3.3"/><path fill="#FF9" stroke="#CC0" stroke-width=".25" d="M64.6 224.6l42.9-40.1-4.6.3S64.8 220 63 221c-2.4 1.2-2 3.6-.2 3.6h1.8z"/><path fill="#FFC" stroke="#990" stroke-width=".25" d="M57.2 185.6l-.8-39.4-14.1 6.4s0 25.2-1.2 30.4-7.2 11.4-9.5 13c-2.2 1.4-22.3 18.4-23.8 18.8-1.5.4 0 9.8 0 9.8l49.4-39z"/><path fill="#FF9" stroke="#CC0" stroke-width=".25" d="M2.6 214.8h5.3v9.8H2.6v-9.8zm0 0s29.6-19 34-29.8c4.4-10.8 1.7-32.4 1.7-32.4l4-.2s1.4 30.2-1.6 34.3c-5.9 8.1-32.8 28-32.8 28H2.6z"/><path fill="#FF9" stroke="#CC0" stroke-width=".25" d="M38 152.6h4.4l14.1-6.5h-4.7L38 152.6z"/><radialGradient id="c" cx="4.508" cy="-72.246" r="26.661" gradientTransform="matrix(1.032 0 0 -1.032 51.95 133.128)" gradientUnits="userSpaceOnUse"><stop offset="0" stop-color="#fff"/><stop offset=".309" stop-color="#fcfdfe"/><stop offset=".525" stop-color="#f3f6fb"/><stop offset=".712" stop-color="#e4ebf6"/><stop offset=".883" stop-color="#cedbef"/><stop offset="1" stop-color="#bacce9"/></radialGradient><path fill="url(#c)" d="M55 195.2c6.1 4.8 13 2.9 19.6 1.1 3.2-.9 18.2-6.3 17.7-.9-7.1 2.2-8.4 7.5-13.3 12.9-5.5 6.1-10.2 7.3-15.9 12.9-5.1 4.8-5.8 0-24.7-.9-6.2-.3-11.1.6-17.5-.4 12.1-9.2 21.1-16.6 32.5-27.7-.1 2.2.3 2.9 2.6 3.6" opacity=".66"/><radialGradient id="d" cx="29.581" cy="8.015" r="5.091" gradientTransform="matrix(.9445 0 0 -.9445 44.914 205.286)" gradientUnits="userSpaceOnUse"><stop offset="0" stop-color="#fff"/><stop offset=".309" stop-color="#fcfdfe"/><stop offset=".525" stop-color="#f3f6fb"/><stop offset=".712" stop-color="#e4ebf6"/><stop offset=".883" stop-color="#cedbef"/><stop offset="1" stop-color="#bacce9"/></radialGradient><path fill="url(#d)" d="M74.4 196.1c0-1.8-2.5-3.9-3.6-2-.6 1-.1 1.7-.6 2.6-.7 1.2-2.3 1-2.5 2.5.8.4 1.7.2 2.6.3-.9 2.7 2.1 3.4 3.3 1-.9.9 1.3 1.2 2.2.7 1.1-.5.3-1.2.8-1.7.5-.6 1.2-.6 1.6-1.2-.3-.1-.4-.5-.9-.5 1.9-1.2-1.6-2.6-2.8-2.5"/><radialGradient id="e" cx="14.85" cy="9.811" r="7.572" gradientTransform="matrix(.9445 0 0 -.9445 44.914 205.286)" gradientUnits="userSpaceOnUse"><stop offset="0" stop-color="#fff"/><stop offset=".309" stop-color="#fcfdfe"/><stop offset=".525" stop-color="#f3f6fb"/><stop offset=".712" stop-color="#e4ebf6"/><stop offset=".883" stop-color="#cedbef"/><stop offset="1" stop-color="#bacce9"/></radialGradient><path fill="url(#e)" d="M55.6 198.8c2.3 0 1.1 3.5 3.6 4.2 2.9.9 3-1.5 2.8-3.8-.1-.6-.5-2.3-.3-2.8.7-1.2 1.8-.3 2.9-.9 3-1.4.9-4.5-1.2-5.6-.8-.4-1.8-.4-2.7-.3-.4.1-.9 1-1.3 1-1-.2-.5-1-1-1.2-1.4-.7-1.2-1.2-2.8.2-1.2 1.1-1.2 1.8-1.1 3.2.1 1.3 1.4 1 .3 2.3-.7.8-2-.1-2.7 1.4-1.3 3.4 2.1 2.8 4 3"/><radialGradient id="f" cx="25.323" cy="10.637" r="1.624" gradientTransform="matrix(1.8259 0 0 -1.5655 37.576 211.619)" gradientUnits="userSpaceOnUse"><stop offset="0" stop-color="#fff"/><stop offset=".309" stop-color="#fcfdfe"/><stop offset=".525" stop-color="#f3f6fb"/><stop offset=".712" stop-color="#e4ebf6"/><stop offset=".883" stop-color="#cedbef"/><stop offset="1" stop-color="#bacce9"/></radialGradient><path fill="url(#f)" d="M82.5 195.2s.4-.8 1.2-.2c.8.6 1.7.9 1.2 1.3-.4.5-1.1 1.1.2 1.2 1.2.1 1.7-1 1.6-1.8-.2-.9.2-1.3-1.1-2.3-1.2-1.1-1.8-.9-2.4-.8-.6.1-1.3.4-1.7 1-.3.6-.8 1.4-.8 1.6.1.1 1.8 0 1.8 0z"/><radialGradient id="g" cx="211.98" cy="60.974" r="13.23" gradientTransform="matrix(.4682 0 0 -.4933 -31.126 235.401)" gradientUnits="userSpaceOnUse"><stop offset="0" stop-color="#fff"/><stop offset=".309" stop-color="#fcfdfe"/><stop offset=".525" stop-color="#f3f6fb"/><stop offset=".712" stop-color="#e4ebf6"/><stop offset=".883" stop-color="#cedbef"/><stop offset="1" stop-color="#bacce9"/></radialGradient><path fill="url(#g)" d="M61.7 206.5c-.3-2.3 2.3-1.3 3.3-1.6.1-1.2-.1-1.4 1.2-1.8.6-.2.9-.2 1.3-.1s.5.6 1.1.3c1-.4.5-1.7 1.8-1.9.9-.1 1.5.6 2.2.5-.1-1 .9-2.2 1.9-1.9 1.6.4 0 1.7-.5 2.4-.6.7-1.3 2.3-1 3 .3.5 1.4.5 1.3 1.2 0 .5-1 .9-1.3 1.2-.7.5-1.5 2-2.5 2.1-.5.1-.8-.5-1.2-.3-.6.2-.7 1-1.3 1.2-1 .4-1.9-.4-2.9-.4-.7.1-1 .7-1.3-.2-.4-.8.4-.9.4-1.5-.9-.1-1.6.5-2.4.1-1.2-.6-.6-1.4.4-1.7-.4-.3-.6-.9-.4-1.3"/><radialGradient id="h" cx="37.138" cy="4.502" r="7.567" gradientTransform="matrix(.9445 0 0 -.9445 44.914 205.286)" gradientUnits="userSpaceOnUse"><stop offset="0" stop-color="#fff"/><stop offset=".309" stop-color="#fcfdfe"/><stop offset=".525" stop-color="#f3f6fb"/><stop offset=".712" stop-color="#e4ebf6"/><stop offset=".883" stop-color="#cedbef"/><stop offset="1" stop-color="#bacce9"/></radialGradient><path fill="url(#h)" d="M76.6 203.9c2.3 0 1.1 3.5 3.6 4.2 2.9.9 3-1.5 2.8-3.8-.1-.6-.5-2.3-.3-2.8.8-1.2 1.8-.3 2.9-.9 3-1.4.9-4.5-1.2-5.6-.8-.4-1.8-.4-2.7-.3-.4.1-.9 1-1.3 1-1.1-.2-.6-1-1.1-1.2-1.4-.7-1.2-1.2-2.8.2-1.2 1.1-1.2 1.8-1.1 3.2.1 1.3 1.4 1 .3 2.3-.7.8-2-.1-2.7 1.4-1.3 3.4 2.1 2.8 4 3"/><path fill="#89C0E8" d="M48.3 204.8c-1.3 5.3.2 3.6 2.9 6.3 0 .8 0 1.6.2 2.4.8.5 2.8.8 3.4 1.2 1.5 1.2 3.3-.9 3.6 2.3 3.8.6 6.8-.7 10.5-1.3-3.4.5-7-1.2-10.2-1.9-1.7-.4-3.6-.3-5.3-1.1-1.6-.8-.2-3.1-3.4-3.2-.7-3 1.1-5.8-1.2-8.5-1.1 1.2-1.3 3-1 4.7" opacity=".21"/><path fill="#89C0E8" d="M46.1 214.6c-.6 3.6 2.6 3.4 5.2 2.5.7 3.4 13 2.7 16.3 1.5-3.4-.2-6.8-.1-10.2-.1-4.2 0-8.2-3.3-11.8-2.5m-1.1-8.3c-.3 2.4.5 4.8.5 7-2.9-1.3-3-7.9-.2-9.4.4 1.2-.2 1.8-.7 2.9" opacity=".21"/><radialGradient id="i" cx="15.126" cy="6.382" r="1.624" gradientTransform="matrix(1.8259 0 0 -1.5655 37.576 211.619)" gradientUnits="userSpaceOnUse"><stop offset="0" stop-color="#fff"/><stop offset=".309" stop-color="#fcfdfe"/><stop offset=".525" stop-color="#f3f6fb"/><stop offset=".712" stop-color="#e4ebf6"/><stop offset=".883" stop-color="#cedbef"/><stop offset="1" stop-color="#bacce9"/></radialGradient><path fill="url(#i)" d="M63.9 201.9s.4-.8 1.2-.2c.8.6 1.7.9 1.2 1.3-.4.5-1.1 1.1.2 1.2 1.2.1 1.7-1 1.6-1.8-.2-.9.2-1.3-1.1-2.3-1.2-1.1-1.8-.9-2.4-.8-.6.1-1.3.4-1.7 1-.3.6-.8 1.4-.8 1.6.1.1 1.8 0 1.8 0z"/><radialGradient id="j" cx="-1186.306" cy="7.44" r="1.624" gradientTransform="matrix(-1.0867 0 0 -1.5655 -1226.415 211.619)" gradientUnits="userSpaceOnUse"><stop offset="0" stop-color="#fff"/><stop offset=".309" stop-color="#fcfdfe"/><stop offset=".525" stop-color="#f3f6fb"/><stop offset=".712" stop-color="#e4ebf6"/><stop offset=".883" stop-color="#cedbef"/><stop offset="1" stop-color="#bacce9"/></radialGradient><path fill="url(#j)" d="M63.6 200.2s-.3-.8-.7-.2c-.5.6-1 .9-.8 1.3.3.5.6 1.1-.1 1.2-.7.1-1.1-1-1-1.8s-.1-1.3.6-2.3c.7-1.1 1.1-.9 1.4-.8.3.1.8.4 1 1 .2.6.5 1.4.5 1.6 0 .1-.9 0-.9 0z"/><radialGradient id="k" cx="12.798" cy="2.503" r="1.624" gradientTransform="matrix(1.8259 0 0 -1.5655 37.576 211.619)" gradientUnits="userSpaceOnUse"><stop offset="0" stop-color="#fff"/><stop offset=".309" stop-color="#fcfdfe"/><stop offset=".525" stop-color="#f3f6fb"/><stop offset=".712" stop-color="#e4ebf6"/><stop offset=".883" stop-color="#cedbef"/><stop offset="1" stop-color="#bacce9"/></radialGradient><path fill="url(#k)" d="M59.6 207.9s.4-.8 1.2-.2c.8.6 1.7.9 1.2 1.3-.4.5-1.1 1.1.2 1.2 1.2.1 1.7-1 1.6-1.8-.2-.9.2-1.3-1.1-2.3-1.2-1.1-1.8-.9-2.4-.8-.6.1-1.3.4-1.7 1-.3.6-.8 1.4-.8 1.6.2.1 1.8 0 1.8 0z"/><radialGradient id="l" cx="-1182.394" cy="3.562" r="1.624" gradientTransform="matrix(-1.0867 0 0 -1.5655 -1226.415 211.619)" gradientUnits="userSpaceOnUse"><stop offset="0" stop-color="#fff"/><stop offset=".309" stop-color="#fcfdfe"/><stop offset=".525" stop-color="#f3f6fb"/><stop offset=".712" stop-color="#e4ebf6"/><stop offset=".883" stop-color="#cedbef"/><stop offset="1" stop-color="#bacce9"/></radialGradient><path fill="url(#l)" d="M59.2 206.3s-.2-.8-.7-.2c-.5.6-1 .9-.8 1.3.3.5.6 1.1-.1 1.2s-1.1-1-1-1.8-.1-1.3.6-2.3c.7-1.1 1.1-.9 1.4-.8.3.1.8.4 1 1 .2.6.5 1.4.5 1.6.2.1-.9 0-.9 0z"/><radialGradient id="m" cx="10.268" cy="1.87" r="7.566" gradientTransform="matrix(.9445 0 0 -.9445 44.914 205.286)" gradientUnits="userSpaceOnUse"><stop offset="0" stop-color="#fff"/><stop offset=".309" stop-color="#fcfdfe"/><stop offset=".525" stop-color="#f3f6fb"/><stop offset=".712" stop-color="#e4ebf6"/><stop offset=".883" stop-color="#cedbef"/><stop offset="1" stop-color="#bacce9"/></radialGradient><path fill="url(#m)" d="M51.3 206.4c2.3 0 1.1 3.5 3.6 4.2 2.9.9 3-1.5 2.8-3.8-.1-.6-.5-2.3-.3-2.8.7-1.2 1.8-.3 2.9-.9 3-1.4.9-4.5-1.2-5.6-.8-.4-1.8-.4-2.7-.3-.4.1-.9 1-1.3 1-1.1-.2-.6-1-1.1-1.2-1.4-.7-1.2-1.2-2.8.2-1.2 1.1-1.2 1.8-1.1 3.2.1 1.3 1.4 1 .3 2.3-.7.8-2-.1-2.7 1.4-1.3 3.4 2.1 2.8 4 3"/><radialGradient id="n" cx="23.352" cy="-.937" r="7.567" gradientTransform="matrix(.9445 0 0 -.9445 44.914 205.286)" gradientUnits="userSpaceOnUse"><stop offset="0" stop-color="#fff"/><stop offset=".309" stop-color="#fcfdfe"/><stop offset=".525" stop-color="#f3f6fb"/><stop offset=".712" stop-color="#e4ebf6"/><stop offset=".883" stop-color="#cedbef"/><stop offset="1" stop-color="#bacce9"/></radialGradient><path fill="url(#n)" d="M63.7 209c2.3 0 1.1 3.5 3.6 4.2 2.9.9 3-1.5 2.8-3.8-.1-.6-.5-2.3-.3-2.8.8-1.2 1.8-.3 2.9-.9 3-1.4.9-4.5-1.2-5.6-.8-.4-1.8-.4-2.7-.3-.4.1-.9 1-1.3 1-1.1-.2-.6-1-1.1-1.2-1.4-.7-1.2-1.2-2.8.2-1.2 1.1-1.2 1.8-1.1 3.2.1 1.3 1.4 1 .3 2.3-.7.8-2-.1-2.7 1.4-1.3 3.4 2.1 2.8 4 3"/><radialGradient id="o" cx="21.92" cy="5.79" r="3.676" gradientTransform="matrix(1.8259 0 0 -1.5655 37.576 211.619)" gradientUnits="userSpaceOnUse"><stop offset="0" stop-color="#fff"/><stop offset=".309" stop-color="#fcfdfe"/><stop offset=".525" stop-color="#f3f6fb"/><stop offset=".712" stop-color="#e4ebf6"/><stop offset=".883" stop-color="#cedbef"/><stop offset="1" stop-color="#bacce9"/></radialGradient><path fill="url(#o)" d="M86.8 203.2c.3 2.2-17.1 1.1-18.3 0-1.2-1.1 18.2-3.9 18.1-2"/><radialGradient id="p" cx="-1189.221" cy="1.877" r="1.624" gradientTransform="matrix(-1.0867 0 0 -1.5655 -1226.415 211.619)" gradientUnits="userSpaceOnUse"><stop offset="0" stop-color="#fff"/><stop offset=".309" stop-color="#fcfdfe"/><stop offset=".525" stop-color="#f3f6fb"/><stop offset=".712" stop-color="#e4ebf6"/><stop offset=".883" stop-color="#cedbef"/><stop offset="1" stop-color="#bacce9"/></radialGradient><path fill="url(#p)" d="M66.7 208.9s-.3-.8-.7-.2c-.5.6-1 .9-.8 1.3.3.5.6 1.1-.1 1.2-.7.1-1.1-1-1-1.8.1-.9-.1-1.3.6-2.3.7-1.1 1.1-.9 1.4-.8.3.1.8.4 1 1s.5 1.4.5 1.6c.1.2-.9 0-.9 0z"/><radialGradient id="q" cx="-1184.843" cy="4.408" r="1.624" gradientTransform="matrix(-1.0867 0 0 -1.5655 -1226.415 211.619)" gradientUnits="userSpaceOnUse"><stop offset="0" stop-color="#fff"/><stop offset=".309" stop-color="#fcfdfe"/><stop offset=".525" stop-color="#f3f6fb"/><stop offset=".712" stop-color="#e4ebf6"/><stop offset=".883" stop-color="#cedbef"/><stop offset="1" stop-color="#bacce9"/></radialGradient><path fill="url(#q)" d="M61.9 205s-.2-.8-.7-.2c-.5.6-1 .9-.8 1.3.2.5.6 1.1-.1 1.2-.7.1-1.1-1-1-1.8s-.1-1.3.6-2.3c.7-1.1 1.1-.9 1.4-.8.3.1.8.4 1 1 .2.6.5 1.4.5 1.6h-.9z"/><radialGradient id="r" cx="-1198.82" cy="10.52" r="1.624" gradientTransform="matrix(-1.0867 0 0 -1.5655 -1226.415 211.619)" gradientUnits="userSpaceOnUse"><stop offset="0" stop-color="#fff"/><stop offset=".309" stop-color="#fcfdfe"/><stop offset=".525" stop-color="#f3f6fb"/><stop offset=".712" stop-color="#e4ebf6"/><stop offset=".883" stop-color="#cedbef"/><stop offset="1" stop-color="#bacce9"/></radialGradient><path fill="url(#r)" d="M77.1 195.3s-.2-.8-.7-.2c-.5.6-1 .9-.8 1.3.2.5.6 1.1-.1 1.2s-1.1-1-1-1.8c.1-.9-.1-1.3.6-2.3.7-1.1 1.1-.9 1.4-.8.3.1.8.4 1 1 .2.6.5 1.4.5 1.6.2.2-.9 0-.9 0z"/><radialGradient id="s" cx="-1194.908" cy="6.641" r="1.624" gradientTransform="matrix(-1.0867 0 0 -1.5655 -1226.415 211.619)" gradientUnits="userSpaceOnUse"><stop offset="0" stop-color="#fff"/><stop offset=".309" stop-color="#fcfdfe"/><stop offset=".525" stop-color="#f3f6fb"/><stop offset=".712" stop-color="#e4ebf6"/><stop offset=".883" stop-color="#cedbef"/><stop offset="1" stop-color="#bacce9"/></radialGradient><path fill="url(#s)" d="M72.9 201.5s-.2-.8-.7-.2c-.5.6-1 .9-.8 1.3.2.5.6 1.1-.1 1.2-.7.1-1.1-1-1-1.8.1-.9-.1-1.3.6-2.3.7-1.1 1.1-.9 1.4-.8.3.1.8.4 1 1s.5 1.4.5 1.6c0 .1-.9 0-.9 0z"/><radialGradient id="t" cx="-1202.947" cy="8.982" r="1.624" gradientTransform="matrix(-1.0867 0 0 -1.5655 -1226.415 211.619)" gradientUnits="userSpaceOnUse"><stop offset="0" stop-color="#fff"/><stop offset=".309" stop-color="#fcfdfe"/><stop offset=".525" stop-color="#f3f6fb"/><stop offset=".712" stop-color="#e4ebf6"/><stop offset=".883" stop-color="#cedbef"/><stop offset="1" stop-color="#bacce9"/></radialGradient><path fill="url(#t)" d="M81.6 197.8s-.2-.8-.7-.2c-.5.6-1 .9-.8 1.3.2.5.6 1.1-.1 1.2-.7.1-1.1-1-1-1.8.1-.9-.1-1.3.6-2.3.7-1.1 1.1-.9 1.4-.8.3.1.8.4 1 1 .2.6.5 1.4.5 1.6.1.1-.9 0-.9 0z"/><radialGradient id="u" cx="500.751" cy="7.487" r="1.624" gradientTransform="matrix(.8058 0 0 -1.5655 -325.649 211.619)" gradientUnits="userSpaceOnUse"><stop offset="0" stop-color="#fff"/><stop offset=".309" stop-color="#fcfdfe"/><stop offset=".525" stop-color="#f3f6fb"/><stop offset=".712" stop-color="#e4ebf6"/><stop offset=".883" stop-color="#cedbef"/><stop offset="1" stop-color="#bacce9"/></radialGradient><path fill="url(#u)" d="M77.3 200.2s.2-.8.6-.2.8.9.6 1.3c-.2.5-.5 1.1.1 1.2.6.1.8-1 .7-1.8-.1-.9.1-1.3-.5-2.3-.6-1.1-.9-.9-1.1-.8-.3.1-.6.4-.8 1-.2.5-.4 1.3-.4 1.5 0 .1.8.1.8.1z"/><path fill="#89C0E8" d="M47.7 198.5c.7.8 1.5 2.1 1.5 3.1 0 1.3-1.9 1.8-1.8 2.4.3 3.3 2.4 3.3 5.6 3.7-.2 2.1 1.5 3.9 3.8 3.7 3.1-.2 1.6-2.2 4.2-3.6.9 2.4 2.3.9 3.9 2 1.3 1 .8 3.6 3.6 3.2.7-.1 2.9-3 3.5-3.6 1.4-1.2 3.7-.2 2.2-3.8 4.5-1.5 3.1 2.9 1.1 4.7-2.2 2-5.2 3.4-7.5 5.4-1.9 1.6-4.6 5.7-7.2 5.9-1.9.2-5.6-1.8-8.2-1.9-10.6-.3-20.8 0-31.2-.5 4.2-3.5 9.6-5.4 14-8.6 4.4-3.3 8.3-7.5 11.5-11.9"/><path fill="#FF9" stroke="#CC0" stroke-width=".25" d="M7.5 224.6h56s6.4-3.4 3.2-3.6c-3.3-.3-50.8-1.1-56.8 0-3 .5-2.4 3.6-2.4 3.6z"/><ellipse cx="70.3" cy="167.8" fill="#65C7C9" stroke="#020202" stroke-width=".145" opacity=".5" rx="2.1" ry="2.2"/><path fill="#F5EB43" d="M71 165.8c.3 0-1.4.9-1.5 1.5-.1.7.3 1.9.3 1.9s-1.6-1.7-1.2-2.2c.4-.5 1.7-1.4 1.7-1.4l.7.2zm.6 2c.1.1-.2.3-.2.4.5-.1.6-.3.4-.7-.1.1-.2.2-.2.3" opacity=".52"/><path fill="#B2549F" d="M69.8 166.8c.9-.2 1.3.1 1.4.7.1.5.3 1.5 0 1.9-.3.3-1 .5-1.1.1-.1-.4-.5-.8-.6-1.1 0-.1-.4-2.1.3-1.6" opacity=".3"/><ellipse cx="62.2" cy="179.9" fill="#65C7C9" stroke="#020202" stroke-width=".145" opacity=".5" rx="2.1" ry="2.2"/><path fill="#F5EB43" d="M62.9 177.9c.3 0-1.4.8-1.5 1.5-.1.7.3 1.9.3 1.9s-1.6-1.7-1.2-2.2c.4-.5 1.7-1.4 1.7-1.4l.7.2zm.7 1.9c.1.1-.2.3-.2.4.5-.1.6-.3.4-.7-.1.1-.2.2-.2.3" opacity=".52"/><path fill="#B2549F" d="M61.7 178.9c.9-.2 1.3.1 1.4.7.1.5.3 1.5 0 1.9-.3.3-1 .5-1.1.1-.1-.4-.5-.8-.6-1.1 0-.1-.3-2.1.3-1.6" opacity=".3"/><ellipse cx="72.9" cy="178.5" fill="#65C7C9" stroke="#020202" stroke-width=".145" opacity=".5" rx="2.1" ry="2.2"/><path fill="#F5EB43" d="M73.6 176.5c.3 0-1.4.9-1.5 1.5-.1.7.3 1.9.3 1.9s-1.6-1.7-1.2-2.2c.4-.5 1.7-1.4 1.7-1.4l.7.2zm.6 2c.1.1-.2.3-.2.4.5-.1.6-.3.4-.7-.1.1-.1.2-.2.3" opacity=".52"/><ellipse cx="80" cy="158" fill="#65C7C9" stroke="#020202" stroke-width=".145" opacity=".5" rx="2.1" ry="2.2"/><path fill="#F5EB43" d="M80.7 156c.3 0-1.4.9-1.5 1.5-.1.7.3 1.9.3 1.9s-1.6-1.7-1.2-2.2c.4-.5 1.7-1.4 1.7-1.4l.7.2zm.6 1.9c.1.1-.2.3-.2.4.5-.1.6-.3.4-.7-.1.1-.2.2-.2.3" opacity=".52"/><ellipse cx="69.5" cy="147.9" fill="#65C7C9" stroke="#020202" stroke-width=".145" opacity=".5" rx="2.1" ry="2.2"/><path fill="#F5EB43" d="M70.2 145.9c.3 0-1.4.9-1.5 1.5-.1.7.3 1.9.3 1.9s-1.6-1.7-1.2-2.2c.4-.5 1.7-1.4 1.7-1.4l.7.2zm.7 2c.1.1-.2.3-.2.4.5-.1.6-.3.4-.7-.1 0-.1.2-.2.3" opacity=".52"/><path fill="#EBBB8C" d="M73.4 191.6s3.2 2 3.2 3.2c0 1.2-.9 3.7-.9 3.7l-2.3-6.9z"/><path fill="#EBBB8C" d="M64.6 192.1s-3.5 7.9-3.5 8.4c0 .6 5.3 1.2 6.8 1.2s8.1.2 8.5-.2c.4-.4-2.1-7.2-2.4-8.1-.3-1-.7-1.9-.6-2 .2-.2-3.5.4-4.5.4s-4.3.3-4.3.3z"/><path fill="#F7F8F9" d="M61.5 200.6s-.5 0-.5-.4c0-.1 1.3-1.9 1.7-2.6.4-.6 1.2-2.5 1.5-2.4.3 0-1 2.5-1.3 3.2-.3.7-1.4 2.2-1.4 2.2z" opacity=".21"/><path fill="#231F20" d="M73.4 191.7s.6 1.8.6 1.9c0 0 .1-.1.1-.2s-.2-.6-.3-.9c-.2-.3-.4-.8-.4-.8z" opacity=".09"/><path fill="#FAE100" d="M67.8 204.3s8.6-8.7 6.4-9.9-11.6 7.2-13.2 8.2c-1.5 1.1-1.7 1.5-1.7 1.5s-.2 0 .5.4 1.1 1 1.1 1-.3.7.2.6c.5-.2.2-.3.9-.4s1.5-.3 2-.1c.4.2.9.3 1.4.2.6-.1 1-.5 1-.5l1.3-.6.1-.4z"/><path fill="#CC2027" d="M65.1 204.4l-.4-2.9 3.7-2.4 1.3 1.9s-2.3 2-2.6 2.2c-.2.2-2 1.2-2 1.2zm3.4-5.8l-1.8-1.2-4 2.2 2.2 1.5 3.6-2.5z"/><path fill="#9C8F33" d="M72.3 198.2c.7-1 .5-2 .2-2-.2 0-1.3-1.2-1.3-1.2s-1.5-.1-1.7.4c-.2.5-.1 1.5-.1 1.5s2.2 2.2 2.9 1.3z"/><path fill="#72662A" d="M70.2 196.9s.4 0 .8-.5.4-1.3.2-1.3-1.3-.3-1.5-.1c-.2.2-.4 1.4-.4 1.4l.2.7.7-.2z"/><path fill="#3953A3" d="M64.1 205.7l-.3 1.2s.8.8 1.9.4c1.2-.4 3.6-2.5 4.8-3.4s3-3.6 3.7-4.5c.8-.9 1.2-1.9 1.3-2.7.1-.8-.6-1.7-.8-1.9-.2-.2-.9 2.8-1.8 3.8-1 1.1-4 4.4-4.6 5s-1.8 1.5-2.7 1.8c-.8.2-1.5.3-1.5.3z"/><path fill="#EBBB8C" d="M63.7 194.4l-2.3 1.6 2.9 4s1.1.2 1.5.5.6.9-.1 1.1c-.7.2-1.2.2-1 .5.2.3-.1.5-.3.8-.3.3-.9 0-.9 0s-.3-.2-.5-.1c-.1.1-.7-.1-.7-.3 0-.3.2-.5-.3-.7-.5-.2-.5 0-.3-.5s-2.4-4.5-2.5-5.4 1.1-2.2 1.1-2.3 1.5-.8 1.8-.9c.4 0 1.8-.3 1.9-.3"/><path fill="#EDBC8D" stroke="#D69561" stroke-width=".25" d="M58.4 187.5s-.2 2.7.3 3.1c.4.5 2.2 1.8 6.1 1.8s6.1-.3 7.5-.3c1.4 0 2.3-.6 3.3-1 1-.5 1.6-1.4 1.8-2.2.2-.7.1-1.5.2-1.7.4-.9.4-2.6.4-3.1 0-2.4-8.1-3.6-10.4-3.6s-8.4 3.7-8.7 4.1c-.4.5-.5 2.9-.5 2.9z"/><linearGradient id="v" x1="18.828" x2="22.884" y1="-54.15" y2="-54.15" gradientTransform="matrix(1.032 0 0 -1.032 51.95 133.128)" gradientUnits="userSpaceOnUse"><stop offset="0" stop-color="#ed0874"/><stop offset="1" stop-color="#fff5cb"/></linearGradient><path fill="url(#v)" d="M75.6 189c0 1.2-1 2.2-2.1 2.2-1.2 0-2.1-1-2.1-2.2s1-2.2 2.1-2.2c1.1.1 2.1 1.1 2.1 2.2z" opacity=".1"/><linearGradient id="w" x1="12.934" x2="8.889" y1="-54.708" y2="-54.708" gradientTransform="matrix(1.032 0 0 -1.032 51.95 133.128)" gradientUnits="userSpaceOnUse"><stop offset="0" stop-color="#ed0874"/><stop offset="1" stop-color="#fff5cb"/></linearGradient><ellipse cx="63.2" cy="189.6" fill="url(#w)" opacity=".1" rx="2.1" ry="2.2"/><linearGradient id="x" x1="10.033" x2="18.021" y1="-39.728" y2="-39.728" gradientTransform="matrix(1.032 0 0 -1.032 51.95 133.128)" gradientUnits="userSpaceOnUse"><stop offset="0" stop-color="#000205"/><stop offset=".405" stop-color="#010818"/><stop offset="1" stop-color="#03123a"/></linearGradient><path fill="url(#x)" stroke="#000" stroke-width=".25" d="M65.5 171.4l.4-.4 1.5.5s-.5.2-.5.5.7.5.7.5.4.1.4.4.4.7 0 .7-.6.3-.6.3v.5s1.8-.5 2.1-.5.3.4.3.4l-.9.4.5.5.5.3h.7v.2s-.3-.2-.5 0 0 .5 0 .5v.5s-2.7-.3-3.6-.1c-1 .1-3.3.9-3.4.8s-.3-.4-.5-.5c-.2-.2-.4-.4-.2-.4s.9.2 1 0c.1-.1-.3-.6-.3-.6s.5.2.7 0c.2-.2.2-.6.2-.6h-.7v-.5s1.2.3 1.2 0v-.8s-.5.2-.5 0 .5-.5.7-.5h.9c.2 0 .6-.4.6-.4l-.4-.5-.2-.3h.4l.4-.4H66c0 .1-.5-.5-.5-.5z"/><path fill="none" stroke="#000" stroke-width=".25" d="M69.5 180l-1.3 1.7m9.6 4v.2m-19.4 1.5v.2m.1-.2"/><path fill="#F7F8F9" stroke="#020000" stroke-width=".25" d="M74.7 180.6s-4.1-1-4.9-.4c-.8.6-2.6.8-2.3.3.3-.5 3.9-1.1 3.3-1.2-8.4-.9-7.8-2.6 3.9 1.3zm-5.6-3.9c-.7.6-4.5.6-5.6.1" opacity=".09"/><path fill="#F7F8F9" stroke="#020000" stroke-width=".25" d="M68.6 182.2c.7.1 1.3-.8 1.8-1.2.5-.4 1.1-1 1-1.6-.3.2-.4.6-.6.9-.2.4-.5.6-.8.9s-.5.5-.9.6c-.3.1-.9.1-.8.5m-2.5-.3c-1.2.2-3.1 0-4-1 .4.1.7.3 1.1.5.4.2.9.2 1.3.2h1.7c0 .1-.1.2-.1.3" opacity=".09"/><path fill="none" stroke="#D3793C" stroke-width=".25" d="M58.6 189s3.8 1.6 10.5 1.3c4.8-.2 6.6-1.5 7.3-1.7.7-.2 1.4-1 1.4-1"/><path fill="none" stroke="#000" stroke-width=".25" d="M58.5 187.4l-.4.2m.2-.2l-.2.5m.4-.5l-.2.4m.3-.5l-.5.9m0-.8l-.1.3m.2-.3l-.2.3m.5-.3l-.2.5m-.3-.5l-.4.5m.9-.5l-.3.4"/><path fill="none" stroke="#020000" stroke-width=".25" d="M58.5 187.3l-.2.4"/><path fill="#F7F8F9" stroke="#020000" stroke-width=".25" d="M68.5 174.6c-.4.3-2.7.2-3.4-.1" opacity=".09"/><path fill="none" stroke="#000" stroke-width=".25" d="M77.5 185.7h.2m-.2 0h.4m-.3.1h.2m-.2-.1h.2"/><path fill="none" stroke="#01012D" stroke-width=".25" d="M77.8 185.7h.2m-.2 0h.2m-.1.1"/><path fill="none" stroke="#010133" stroke-width=".25" d="M77.7 185.8l.4-.1m-.3.1h.2m-.2.1l.3-.1m-.2.1l.2-.1"/><path fill="none" stroke="#01012D" stroke-width=".25" d="M77.9 185.8l.2-.1"/><path fill="none" stroke="#010133" stroke-width=".25" d="M77.7 185.9l.3-.1m-.4 0l.5-.1"/><path fill="none" stroke="#01012D" stroke-width=".25" d="M77.6 185.7h.5m-.3 0h.4"/><path fill="none" stroke="#010133" stroke-width=".25" d="M77.6 185.8h.9m-.2-.1l-.3.3m.3-.3l-.2.2m-.3 0l.4-.1m0 .1l-.2-.1m-2.4-3l.4-.8"/><path fill="#EDBC8D" stroke="#D3793C" stroke-width=".25" d="M67.9 188.5s.3-.6 1-.5c.7.1.9.6.9.6"/><linearGradient id="y" x1="5.6" x2="25.527" y1="-46.915" y2="-46.915" gradientTransform="matrix(1.032 0 0 -1.032 51.95 133.128)" gradientUnits="userSpaceOnUse"><stop offset="0" stop-color="#000205"/><stop offset=".405" stop-color="#010818"/><stop offset="1" stop-color="#03123a"/></linearGradient><path fill="url(#y)" stroke="#000" stroke-width=".25" d="M61.7 183c3.3-1.7 4.5-.9 6.1.5 1 .9 2-.8 2-.8s2.2-1.5 3.7-1.1c4 1.2 4.4 5.2 4.6 3.4.2-1.6-1.6-5.6-2.8-6.3-2.4-1.5-3.1-1.7-4.2-2.1l-2.1-.8c-1 0-5.7.3-6.4 1.2-.8 1-2 2.4-3.4 3.9-1.3 1.6-2.3 4.9-1.2 6.2.8 1 1.5-3 3.7-4.1z"/><path fill="#EDBC8D" d="M58.4 188.4c0-.6.3-.8.4-1.2.1-.5-1.2-.8-1.4-.5s-.5.8-.6 1.4c-.2.7.8 1.4 1.1 1.4h.8c-.1.1-.3-.3-.3-1.1z"/><path fill="#0BFF5C" d="M57.9 186.4l1.1-.1.1 1-.9-.1-.3-.8zm19.4-1.7l.9.2.1 1-1.1-.2.1-1z"/><path fill="#EDBC8D" d="M77.7 186.8c.1-.5 0-.8-.1-1.2 0-.5 1.3-.4 1.5 0s.2.9.2 1.5c-.1.7-1.2 1.1-1.3 1-.2-.1-.7-.3-.7-.3s.3-.4.4-1z"/><path fill="#FFF" d="M69.2 185.6c.1.2.8 2.1 1.2 2.1.6.1 2.2-.3 2.6-.4.5-.1 2.2-.6 2.5-.6.5-.1 1.7-.3 1.7-.3s.2-1.1 0-1.7c-.2-.6-.4-1.8-1.2-2.5-1-.6-1.8-1-3-1s-3.1 1.8-4.6 1.8c-1.2.1-1.4-.6-2.3-.9-1-.4-1.2-.3-2-.4-1.1-.2-2.5.7-3.2 1-.6.4-1.3.8-1.6 1.4-.4.7-.5 1.1-.6 1.5-.1.5-.1 1.5-.1 1.5.1 0 2 .4 3.4.5 1.3.1 4.2.3 4.6.2.5-.2 1.2-1.9 1.3-2.3.2-.5.5-.3.7-.3.5.2.6.4.6.4z"/><ellipse cx="72.2" cy="185.1" fill="#000002" rx=".4" ry=".5"/><ellipse cx="64.8" cy="185.8" fill="#000002" rx=".4" ry=".5"/><path fill="none" d="M69.2 185.6c.1.2.8 2.1 1.2 2.1.6.1 2.2-.3 2.6-.4.5-.1 2.2-.6 2.5-.6.5-.1 1.7-.3 1.7-.3s.2-1.1 0-1.7c-.2-.6-.4-1.8-1.2-2.5-1-.6-1.8-1-3-1s-3.1 1.8-4.6 1.8c-1.2.1-1.4-.6-2.3-.9-1-.4-1.2-.3-2-.4-1.1-.2-2.5.7-3.2 1-.6.4-1.2.8-1.6 1.4-.3.7-.5 1.1-.6 1.5s-.1 1.5-.1 1.5c.1 0 2 .4 3.4.5s4.2.3 4.6.2c.5-.2 1.2-1.9 1.3-2.3.2-.5.5-.3.7-.3.4.2.6.4.6.4z"/><path fill="#FFF" d="M61.4 180.4c.3-1 1.7-1.7 2.6-2 .5 1.7-2.1.8-2.4 2.1m4.7.5c-1-1.2-5.2-.3-5.7 1.2 1.3-1.3 3.8-1.7 5.6-1.6m3.3 1.7c.6-1.3 2.6-1.8 3.8-1.9.9-.1 3-.4 3.5.6-.1-1.3-2.5-.9-3.3-.7-.7.1-1.2.3-1.8.7-.6.3-1.2 1.2-1.8 1.3-.1-.1-.1-.2-.1-.3" opacity=".15"/><path fill="#FFF" d="M68.5 182.2c-1.2-.9-3-1.2-4.4-1 .7-.2 4.9-.8 4.4.8m.3-1.8c.9-.7 1.4-1.1 2.6-1.2.5-.1.9-.1 1.3-.1.5.1.9.4 1.3.4-.2-1-1.8-.9-2.5-.9-1.3 0-1.6.6-2.6 1.4m-3.4-3.3c.5-.3 1-.9 1.5-1.2.5-.2 1.2-.4 1.8-.3-.8.9-2.3 1-3.2 1.8m4.4-.5c-.5 1.2-3.1 1.5-4.1 1.7 1.4 1.1 3.7-.5 4.4-1.7" opacity=".15"/><path fill="#0979AA" stroke="#06FF23" stroke-width=".25" d="M69.2 185.6c.1.2.8 2.1 1.2 2.1.6.1 2.2-.3 2.6-.4.5-.1 2.2-.6 2.5-.6.5-.1 1.7-.3 1.7-.3s.2-1.1 0-1.7c-.2-.6-.4-1.8-1.2-2.5-1-.6-1.8-1-3-1s-3.1 1.8-4.6 1.8c-1.2.1-1.4-.6-2.3-.9-1-.4-1.2-.3-2-.4-1.1-.2-2.5.7-3.2 1-.6.4-1.2.8-1.6 1.4-.4.7-.5 1.1-.6 1.5s-.1 1.5-.1 1.5c.1 0 2 .4 3.4.5s4.2.4 4.6.2c.5-.2 1.2-1.9 1.3-2.3.2-.5.5-.3.7-.3.5.3.6.4.6.4z" opacity=".38"/><path fill="#0BFF5C" d="M67.8 183.1c.2.1.4.6.4 1.2s-.2 1.3-.3 1.6c.5-.9 1.1-.4 1.4-.2-.6-.7-.6-1.5-.3-2.6-.3.1-.5.1-1 .1"/><path fill="#FAFFFF" stroke="#FAFFFF" stroke-width=".25" d="M60.5 184.5s.8-.9 1.3-1.1c.6-.2 1.3-.3 1.7-.3.5 0-1.1.2-1.6.5-.6.4-1.4.9-1.4.9zm9.4-.5s.8-.9 1.3-1.1c.6-.2 1.3-.3 1.7-.3.5 0-1.1.2-1.6.5-.6.4-1.4.9-1.4.9z" opacity=".31"/><path fill="#050505" d="M65.2 187.7c1-.1 1.8-1.1 1.9-2.1.2-1.2-.4-1.8-1.2-2.6-.3-.3-.6-.5-.9-.8.4 0 .9.2 1.2.4l1.2.6c.5.2.7.3.7.9 0 .4 0 .8-.1 1.2l-.3.6c-.1.2-.1.4-.2.6-.2.4-.4.7-.6 1.1-.3.6-1.4.8-2 .3.1 0 .3-.1.4-.2" opacity=".06"/><path fill="#050505" d="M74.2 181.8c.1.1.4.1.6.2s.4.2.5.2c.4.2.7.3 1 .7.2.4.6.6.7 1 .1.4.3.8.3 1.2 0 .4-.1.9-.1 1.3-.3.2-.8.2-1.1.2.5-.2.6-.8.6-1.2 0-.6.1-1-.2-1.4-.5-.7-1.3-1.2-1.8-1.8-.2-.3-.3-.5-.5-.4" opacity=".09"/><path fill="#F7BD18" d="M89.3 231.9v6.6h-8.8v2.6l-6.1-6.2 6-6v3h8.9z"/><pattern id="z" patternTransform="matrix(.3842 0 0 -.3842 -9725.535 -6527.047)" xlink:href="#z"/><path fill="url(#z)" stroke="#C3C3C1" stroke-width=".534" d="M89.6 148.2v78c4.2 4.3 5.4-3.7 7.1-5.3 1.7-1.6 3.7-.5 5.6-1.9 2-1.5 1.2-3.7 2.1-5.4 1.2-1.9 3-1 3.2-4.3.1-2.1-1-3.8-1-5.9.2-5.8.4-7.3.2-11.6l-.1-59.9-.5 1.4-1.5.6-.3 2.2s-1.8-.2-2.1.4c-.3.7-.3 2-.3 2l-1.7.7s0 2.2-.6 2.7-2.6 1-2.6 1l.2 1.5-1.9 1.3s.5 1.9-.6 2.2-1.7-.1-1.7-.1l-2.1-.5c-.1 0-1.4.9-1.4.9z"/><path fill="#161615" stroke="#C3C3C1" stroke-width=".534" d="M95.1 158.9c2.4 4.1-.8 10.8-.2 15.3.8 5.7.3 10.9.2 16.6-.1 4.3.5 8.7.5 13.2 0 3.6.2 9.8 1.7 12.9 1.2-2.2-.4-4.7-1-6.8-.8-2.7-.2-5.4 0-8.1.5-5.3.5-10.6.5-15.9 0-5.2.1-10.4-.4-15.6-.3-3.5 1.7-12.4-1.3-14.5-.5 1.8-.2 3.2.4 5m7.1-8.9c2.4 4.1-.8 10.8-.2 15.3.8 5.7.3 10.9.2 16.6-.1 4.3.5 8.7.5 13.2 0 3.6.2 9.8 1.7 12.9 1.2-2.2-.4-4.7-1-6.8-.8-2.7-.2-5.4 0-8.1.5-5.3.5-10.6.5-15.9 0-5.2.1-10.4-.4-15.6-.3-3.5 1.7-12.4-1.3-14.5-.5 1.8-.2 3.2.4 5" opacity=".08"/><path fill="#70BE44" stroke="#70BE44" stroke-width=".133" d="M94.6 147l1.2-1.3-.6-5s-.8-.1-1.4.6c-.6.7-.2 1.2-.2 1.2l1 4.5zm4.3-3.4l1.2-1.3-.6-3.6s-.8-.1-1.4.6c-.6.8-.1 1.2-.1 1.2l.9 3.1zm3.4-3.1l1.2-1.3-.5-3.5s-.8-.1-1.4.6c-.6.7-.2 1.2-.2 1.2l.9 3zm3.6-2.2l1.2-1.3-.6-3.6s-.8-.1-1.4.6c-.6.7-.2 1.2-.2 1.2l1 3.1z"/><path fill="#D1D1D1" d="M65.2 132.6h40.6l.3 1.6-40.6-.1-.3-1.5z"/><path fill="#D1D1D1" d="M106.8 132.5L69 154.3v1.7l37.7-22.3v-1.2z"/><path fill="#D1D1D1" d="M4.1 154.3h65.8l.2 1.6-65.8-.1-.2-1.5z"/><path fill="#C3C3C1" stroke="#C3C3C1" stroke-width=".534" d="M89.6 149.8v78c4.2 4.3 5.4-3.7 7.1-5.3 1.7-1.6 3.7-.5 5.6-1.9 2-1.5 1.2-3.7 2.1-5.4 1.2-1.9 3-1 3.2-4.3.1-2.1-1-3.8-1-5.9.2-5.8.4-7.3.2-11.6l-.2-60-.5 1.4-1.5.6-.2 2.3s-1.8-.2-2.1.4c-.3.7-.3 2-.3 2l-1.7.7s0 2.2-.6 2.7-2.6 1-2.6 1l.2 1.5-1.9 1.3s.5 1.9-.6 2.2-1.7-.1-1.7-.1l-2.1-.6c-.1.1-1.4 1-1.4 1z" opacity=".14"/><path fill="#D1D1D1" d="M65.5 134.2L6.6 153.8l-.4-1.2 59-20 .3 1.6z"/><path fill="#70BE44" stroke="#70BE44" stroke-width=".133" d="M89.9 150.2l1.2-1.3-.6-5.6s-.8-.2-1.4.5c-.6.7-.2.5-.2.5l1 5.9z"/><pattern id="A" patternTransform="matrix(.2587 0 0 -.2587 -11737.162 -4579.69)" xlink:href="#B"/><path fill="url(#A)" stroke="#C3C3C1" stroke-width=".37" d="M4.2 157.5s.7.8 1.6.8c1 .1 2.1-.9 3-1 .9-.2 3.3 2.1 3.3 2.1s1.8-.7 2.9-1.7c1.1-1.1 3 1.6 4.1 1.6 1.2-.1 3.5-1.2 3.5-1.2s2.3 1.2 2.8 1.1 1.8-1.5 1.8-1.5l2.3 1.3s1.2-.8 2.5-1.2c1.2-.5 1.6 1.5 2.2 1.6.6.1 1.2-1.1 1.3-1.4.2-.4 1.1-.5 1.7 0 .7.5 1.2 1.2 2 .4 1-.9 1.7-1.1 1.7-1.1l1.5 1.8c.6.7 1.1.5 2-.1 1-.5.9-1.2 1.8-1.3 1 0 .3 1.6 1.1 2 .8.5 2.4-2.1 2.4-2.1l2.3-1.3-.4 90.4c.3 4.1-4.4.4-5.4.3-2.3-.3-4 2-6.9 1.4-2.2-.5-4.3-1.5-6.7-1.6-3-.1-3.6 1.6-6.1 2.2-3.1.7-4-2.7-6.4-2.9-2.4-.2-3.7 2.4-6.2 2.3-2.1-.1-2-1.3-3.6-2-1.8-.8-.7-.1-2.6.2-1.2.2-1.9 1.5-3.2-.1-.6-.8-.5-2-.1-2.8l-.2-86.2z"/><path fill="#161615" stroke="#C3C3C1" stroke-width=".37" d="M12.5 176.2c2.7 4.6-.9 11.9-.2 16.9.9 6.3.3 12.1.2 18.4-.1 4.8.5 9.7.5 14.6 0 3.9.2 10.9 1.9 14.3 1.2-2.4-.4-5.2-1.1-7.6-.8-3-.3-6 0-8.9.5-5.9.6-11.7.6-17.6 0-5.8.1-11.5-.5-17.2-.4-3.8 1.9-13.7-1.4-16.1-.6 2-.2 3.6.4 5.5m23.5-1.2c2.7 4.6-.9 11.9-.2 16.9.9 6.3.3 12.1.2 18.4-.1 4.8.5 9.7.5 14.6 0 3.9.2 10.9 1.9 14.3 1.2-2.4-.4-5.2-1.1-7.6-.8-3-.3-6 0-8.9.5-5.9.6-11.7.6-17.6 0-5.8.1-11.5-.5-17.2-.4-3.8 1.9-13.7-1.4-16.1-.6 2-.2 3.6.4 5.5" opacity=".08"/><path fill="#70BE44" stroke="#70BE44" stroke-width=".092" d="M7.5 158.6l1.4-1.5-.6-3.9s-.9-.1-1.5.7c-.7.8-.2 1.2-.2 1.2l.9 3.5zm7.7.5l1.4-1.4-.6-3.9s-.9-.1-1.5.7c-.7.8-.2 1.2-.2 1.2l.9 3.4zm37.3-.4l1.4-1.4-.6-3.9s-.9-.1-1.5.7c-.7.8-.2 1.2-.2 1.2l.9 3.4zm-5.4.6l1.4-1.4-.6-3.9s-.9-.1-1.5.7c-.7.8-.2 1.2-.2 1.2l.9 3.4zm-5.9-.6l1.4-1.4-.6-3.9s-.9-.1-1.5.7c-.7.8-.2 1.2-.2 1.2l.9 3.4zm-5.1.2l1.4-1.4-.6-3.9s-.9-.1-1.5.7c-.7.8-.2 1.2-.2 1.2l.9 3.4zm-6.3.8l1.4-1.4-.6-3.9s-.9-.1-1.5.7c-.7.8-.2 1.2-.2 1.2l.9 3.4zm-7.2-.8l1.4-1.4-.6-3.9s-.9-.1-1.5.7c-.7.8-.2 1.2-.2 1.2l.9 3.4z"/><path fill="#C3C3C1" stroke="#C3C3C1" stroke-width=".37" d="M4.1 157.5s.7.8 1.6.8c1 .1 2.1-.9 3-1 .9-.2 3.3 2.1 3.3 2.1s1.8-.7 2.9-1.7c1.1-1.1 3 1.6 4.1 1.6 1.2-.1 3.5-1.2 3.5-1.2s2.3 1.2 2.8 1.1 1.8-1.5 1.8-1.5l2.3 1.3s1.2-.8 2.5-1.2c1.2-.5 1.6 1.5 2.2 1.6.6.1 1.2-1.1 1.3-1.4.2-.4 1.1-.5 1.7 0 .7.5 1.1 1.2 2 .4 1-.9 1.7-1.1 1.7-1.1l1.5 1.8c.6.7 1.1.5 2-.1 1-.5.9-1.2 1.8-1.3 1 0 .3 1.6 1.1 2 .8.5 2.4-2.1 2.4-2.1l2.3-1.3-.4 90.4c.3 4.1-4.4.4-5.4.3-2.3-.3-4 2-6.9 1.4-2.2-.5-4.3-1.5-6.7-1.6-3-.1-3.6 1.6-6.1 2.2-3.1.7-4-2.7-6.4-2.9-2.4-.2-3.7 2.4-6.2 2.3-2.1-.1-2-1.3-3.6-2-1.8-.8-.7-.1-2.6.2-1.2.2-1.9 1.5-3.2-.1-.6-.8-.5-2-.1-2.8l-.2-86.2z" opacity=".14"/></g></switch></svg>
