<svg xmlns="http://www.w3.org/2000/svg" version="1.0" viewBox="0 0 220 129"><switch><g><path fill="#D7DAEE" d="M0 0h220v127.9H0z"/><path fill="#D6E8F7" stroke="#D6E8F7" d="M0 127.9l49.2-36.6h146.3l23.1 36.6L0 129"/><path fill="#F8F2C5" d="M200.7 89.1c0 .7-.2 1.3-.5 1.3H53.5c-.3 0-.5-.6-.5-1.3V1.9c0-.7.2-1.3.5-1.3h146.7c.3 0 .5.6.5 1.3v87.2z"/><path fill="#AFD25A" stroke="#AFD25A" d="M53 1h8.7v8.5H53zm34.8 0h8.7v8.5h-8.7zM70.4 1h8.7v8.5h-8.7zm34.7 0h8.7v8.5h-8.7zm34.8 0h8.7v8.5h-8.7zm-17.4 0h8.7v8.5h-8.7zm34.8 0h8.7v8.5h-8.7zM192 1h8.7v8.5H192zm-17.3 0h8.7v8.5h-8.7zm-113 8.5h8.7V18h-8.7zm34.8 0h8.7V18h-8.7zm-17.4 0h8.7V18h-8.7zm34.7 0h8.7V18h-8.7zm34.8 0h8.7V18h-8.7zm-17.4 0h8.7V18h-8.7zm34.8 0h8.7V18H166zm17.3 0h8.7V18h-8.7zM53 18.1h8.7v8.5H53zm34.8 0h8.7v8.5h-8.7zm-17.4 0h8.7v8.5h-8.7zm34.7 0h8.7v8.5h-8.7zm34.8 0h8.7v8.5h-8.7zm-17.4 0h8.7v8.5h-8.7zm34.8 0h8.7v8.5h-8.7zm34.7 0h8.7v8.5H192zm-17.3 0h8.7v8.5h-8.7zm-113 8.5h8.7v8.5h-8.7zm34.8 0h8.7v8.5h-8.7zm-17.4 0h8.7v8.5h-8.7zm34.7 0h8.7v8.5h-8.7zm34.8 0h8.7v8.5h-8.7zm-17.4 0h8.7v8.5h-8.7zm34.8 0h8.7v8.5H166zm17.3 0h8.7v8.5h-8.7zM53 35.1h8.7v8.5H53zm34.8 0h8.7v8.5h-8.7zm-17.4 0h8.7v8.5h-8.7zm34.7 0h8.7v8.5h-8.7zm34.8 0h8.7v8.5h-8.7zm-17.4 0h8.7v8.5h-8.7zm34.8 0h8.7v8.5h-8.7zm34.7 0h8.7v8.5H192zm-17.3 0h8.7v8.5h-8.7zm-113 8.5h8.7v8.5h-8.7zm34.8 0h8.7v8.5h-8.7zm-17.4 0h8.7v8.5h-8.7zm34.7 0h8.7v8.5h-8.7zm34.8 0h8.7v8.5h-8.7zm-17.4 0h8.7v8.5h-8.7zm34.8 0h8.7v8.5H166zm17.3 0h8.7v8.5h-8.7zM53 52.1h8.7v8.5H53zm34.8 0h8.7v8.5h-8.7zm-17.4 0h8.7v8.5h-8.7zm34.7 0h8.7v8.5h-8.7zm34.8 0h8.7v8.5h-8.7zm-17.4 0h8.7v8.5h-8.7zm34.8 0h8.7v8.5h-8.7zm34.7 0h8.7v8.5H192zm-17.3 0h8.7v8.5h-8.7zM61.8 61.3h8.7v8.5h-8.7zm34.7 0h8.7v8.5h-8.7zm-17.4 0h8.7v8.5h-8.7zm34.8 0h8.7v8.5h-8.7zm34.8 0h8.7v8.5h-8.7zm-17.4 0h8.7v8.5h-8.7zm34.7 0h8.7v8.5H166zm17.4 0h8.7v8.5h-8.7zM52.8 69.6h8.7v8.5h-8.7z"/><path fill="#AFD25A" stroke="#AFD25A" d="M87.6 69.6h8.7v8.5h-8.7zm-17.4 0h8.7v8.5h-8.7zm34.8 0h8.7v8.5H105zm34.7 0h8.7v8.5h-8.7zm-17.4 0h8.7v8.5h-8.7zm34.8 0h8.7v8.5h-8.7zm34.7 0h8.7v8.5h-8.7zm-17.3 0h8.7v8.5h-8.7zM61.6 78.8h8.7v8.5h-8.7zm34.7 0h8.7v8.5h-8.7zm-17.3 0h8.7v8.5H79zm34.7 0h8.7v8.5h-8.7zm34.8 0h8.7v8.5h-8.7zm-17.4 0h8.7v8.5h-8.7zm34.7 0h8.7v8.5h-8.7zm17.4 0h8.7v8.5h-8.7z"/><path fill="#AFD25A" stroke="#AFD25A" d="M53 87.1h8.7v2.7H53zm34.8 0h8.7v2.7h-8.7zm-17.4 0h8.7v2.7h-8.7zm34.7 0h8.7v2.7h-8.7zm34.8 0h8.7v2.7h-8.7zm-17.4 0h8.7v2.7h-8.7zm34.8 0h8.7v2.7h-8.7zm34.7 0h8.7v2.7H192zm-17.3 0h8.7v2.7h-8.7z"/><path fill="#00ACDA" stroke="#00ACDA" stroke-width=".111" d="M200 89.6c0 .4-.2.7-.4.7h-150c-.2 0-.4-.3-.4-.7V88c0-.4.2-.7.4-.7h149.9c.2 0 .4.3.4.7v1.6z"/><g opacity=".13"><path fill="#050606" d="M126.3 36.1s.5 2.6.4 4.4c-.1 1.8.4 16.3.4 16.3s-3.2.7-7.1 1c-3.9.2-14.8-.7-14.6-1.4.2-.7-1.5-20.4-1.5-20.4s7.3-.7 10.9-.9c3.7-.4 11.5 1 11.5 1z"/><path fill="none" stroke="#050606" stroke-width=".111" d="M103.9 35.9s1.7 19.7 1.5 20.4c-.2.7 10.7 1.7 14.6 1.4 3.9-.2 7.1-1 7.1-1s-.5-14.5-.4-16.3c.1-1.8-.4-4.4-.4-4.4s-7.8-1.4-11.4-1.2c-3.7.4-11 1.1-11 1.1z"/></g><linearGradient id="a" x1="103.367" x2="128.403" y1="36.815" y2="36.815" gradientUnits="userSpaceOnUse"><stop offset="0" stop-color="#e2c1c2"/><stop offset=".178" stop-color="#e0b4b6"/><stop offset="1" stop-color="#d67d83"/></linearGradient><path fill="url(#a)" d="M103.4 36.5h25v.7h-25z"/><path fill="#FFF" d="M126.8 35.5s.5 2.6.4 4.4c-.1 1.8.4 16.3.4 16.3s-3.2.7-7 1c-3.9.2-14.8-.7-14.6-1.4.2-.7-1.5-20.4-1.5-20.4s7.3-.7 10.9-1c3.7-.3 11.4 1.1 11.4 1.1z"/><path fill="#099B49" d="M104.9 35.4l1.4 20.1s7.8.8 9.1.9c1.3.1 8.6-.4 9.4-.4.8-.1 1.7-.2 2-.3.2-.1-.7-19.7-.7-19.7l.6-.5s1.1 20.6.7 20.7c-.4.1-9.3 1-11 .8-1.8-.2-10.2-.8-10.5-1.1-.3-.4-1.6-20.6-1.6-20.6l.6.1z"/><path fill="#F5EB45" d="M115.2 57.4c.2.2.2.4.1.6.2-.1.2-.6-.1-.6 0-.1 0-.1 0 0" opacity=".52"/><path fill="#099B49" d="M106.8 54.1l1.5-1.6 1.2 2zm3.3.4l1.5-1.6 1.2 2zm3.7.5l1.4-1.8 1.3 1.9zm3.6 0l1.2-1.8 1.5 1.7zm3.7-.1l1.2-1.8 1.5 1.7zm3.2-.3l1-1.8 1.4 1.7z"/><path fill="#099B49" d="M107.2 54.1l1-1 .8 1.3zm3.3.3l1-1.1.8 1.4zm3.7.5l.8-1.2 1 1.1zm3.5-.1l.9-1.2 1 1.2zm3.8-.1l.8-1.2 1 1.2zm3.1-.3l.8-1.2 1 1.2z"/><linearGradient id="b" x1="130.852" x2="155.888" y1="36.557" y2="36.557" gradientUnits="userSpaceOnUse"><stop offset="0" stop-color="#e2c1c2"/><stop offset=".178" stop-color="#e0b4b6"/><stop offset="1" stop-color="#d67d83"/></linearGradient><path fill="url(#b)" d="M130.9 36.2h25v.7h-25z"/><path fill="#FFF" d="M154.3 35.5s.5 2.6.4 4.4c-.1 1.8.4 16.3.4 16.3s-3.2.7-7 1c-3.9.2-14.8-.7-14.6-1.4.2-.7-1.5-20.4-1.5-20.4s7.3-.7 10.9-1c3.6-.3 11.4 1.1 11.4 1.1z"/><path fill="#099B49" d="M132.4 35.1l1.4 20.1s7.8.8 9.1.9c1.3.1 8.6-.4 9.4-.4.8-.1 1.7-.2 2-.3.2-.1-.7-19.7-.7-19.7l.6-.5s1.1 20.6.7 20.7c-.4.1-9.2 1-11 .8-1.8-.2-10.2-.8-10.5-1.1-.3-.3-1.6-20.6-1.6-20.6l.6.1z"/><path fill="#F5EB45" d="M142.7 57.1c.2.2.2.4.1.6.2-.1.2-.6-.1-.6 0-.1 0-.1 0 0" opacity=".52"/><path fill="#099B49" d="M134.3 53.9l1.5-1.6 1.2 1.9zm3.3.3l1.5-1.6 1.2 2zm3.7.5l1.4-1.7 1.3 1.9zm3.6.1l1.2-1.9 1.5 1.8zm3.6-.1l1.3-1.9 1.5 1.8zm3.3-.4l1-1.7 1.4 1.7z"/><path fill="#099B49" d="M134.7 53.9l1-1.1.8 1.3zm3.3.2l1-1 .7 1.3zm3.7.5l.8-1.2 1 1.2zm3.5 0l.9-1.2.9 1.2zm3.8-.2l.8-1.2 1 1.2zm3.1-.2l.8-1.2 1 1.1z"/><linearGradient id="c" x1="249.092" x2="256.582" y1="88.244" y2="88.244" gradientTransform="matrix(-1.143 0 0 1 425.69 0)" gradientUnits="userSpaceOnUse"><stop offset="0" stop-color="#ffebc2"/><stop offset=".228" stop-color="#fce4b4"/><stop offset=".655" stop-color="#f3d290"/><stop offset="1" stop-color="#ebc16e"/></linearGradient><path fill="url(#c)" d="M136.5 99.4s2.3-1.7 2.1-2.6c-.2-.9-2.3-7.8-2.3-7.8s-3.9-10.6-3.9-11.6 1.8-1.1 1.8-1.1 3.9 8 4.2 10.1c.4 2.1 2.5 8.5 2.5 8.5s-.8 2.1-1 2.8c-.2.7-.7 2.5-.9 2.6-.4.1-2.5-.9-2.5-.9z"/><linearGradient id="d" x1="132.694" x2="137.772" y1="91.191" y2="91.191" gradientUnits="userSpaceOnUse"><stop offset="0" stop-color="#ffebc2"/><stop offset=".228" stop-color="#fce4b4"/><stop offset=".655" stop-color="#f3d290"/><stop offset="1" stop-color="#ebc16e"/></linearGradient><path fill="url(#d)" d="M135 81.6s-1.3 6.2-1.3 7c0 .8.2 10.3.2 10.3l-.9.6c-.3.2-.7.4 0 .8s1.3.5 1.6.4c.3-.1.9-1.3 1-1.4.1-.1 1-10 .8-10.5-.1-.4-.1-.3.1-1.1s1.2-5.9 1.2-5.9h-2.6"/><linearGradient id="e" x1="126.682" x2="129.717" y1="75.337" y2="75.337" gradientUnits="userSpaceOnUse"><stop offset="0" stop-color="#ffebc2"/><stop offset=".228" stop-color="#fce4b4"/><stop offset=".655" stop-color="#f3d290"/><stop offset="1" stop-color="#ebc16e"/></linearGradient><path fill="url(#e)" d="M127.4 72.8s-.9 3.2-.6 4.2c.2 1 .3 1.1.5 1.3.1.2.4-1.5.4-1.7 0-.2.2-.7.3-.7.1 0 .6 0 1.1.5.2.2.6.3.6-.1s-.1-.9-.1-1.4c0-.5-.1-1.8-.3-2.1-.2-.3-.8-.3-.8-.3-.1-.1-1.2.2-1.1.3"/><linearGradient id="f" x1="251.532" x2="255.802" y1="56.628" y2="56.628" gradientTransform="matrix(-1.143 0 0 1 425.69 0)" gradientUnits="userSpaceOnUse"><stop offset="0" stop-color="#ffebc2"/><stop offset=".322" stop-color="#ffe4b4"/><stop offset=".928" stop-color="#ffd390"/><stop offset="1" stop-color="#ffd18b"/></linearGradient><path fill="url(#f)" d="M138.2 56.9l-1.2-1 .3-3.6-4 1.2s-.1 7.3.7 7.3c.8 0 2.5-3.2 3-3.3.4-.1 1.2-.6 1.2-.6z"/><linearGradient id="g" x1="246.015" x2="262.708" y1="42.712" y2="42.712" gradientTransform="matrix(-1.143 0 0 1 425.69 0)" gradientUnits="userSpaceOnUse"><stop offset="0" stop-color="#ffebc2"/><stop offset=".228" stop-color="#fce4b4"/><stop offset=".655" stop-color="#f3d290"/><stop offset="1" stop-color="#ebc16e"/></linearGradient><path fill="url(#g)" d="M138.2 50.7s-1.6 2.9-5.6 2.7c-4.1-.2-4.7-1-5.2-1.9-.4-.7-.7-3 .5-3.8.9-.6.3-2.5-.4-3.5-.6-1-2.6-4-2-5.1.6-1 4.9-6.6 7-7 2.1-.3 10.2 1.8 11.1 5.4 1 3.6 1.2 8.1-.3 10.4-1.4 2.2-5.1 2.8-5.1 2.8z"/><path fill="#CE7EB4" d="M140 98.2s-.3 3-.8 3.1c-.5.1-2.5.4-3-.1s-.6-1.2-.3-1.6c.2-.3.8-.4 1.2-.2.4.2.9.6 1.3.6.4.1.8.1.8.1s.6-2 .6-2.1l.2.2z"/><path fill="#030305" d="M131.7 45.4c0 .4.2.6.5.6s.5-.3.5-.6c0-.4-.2-.6-.5-.6s-.5.2-.5.6z"/><path fill="none" d="M130.3 47.8s-.3-.6-1-.5c-.7.1-.9.6-.9.6"/><linearGradient id="h" x1="255.13" x2="258.547" y1="49.836" y2="49.836" gradientTransform="matrix(-1.143 0 0 1 425.69 0)" gradientUnits="userSpaceOnUse"><stop offset="0" stop-color="#e80f74"/><stop offset="1" stop-color="#fff2c8"/></linearGradient><path fill="url(#h)" d="M134.1 49.8c0 1.1-.9 2-2 2s-2-.9-2-2 .9-2 2-2 2 .9 2 2z" opacity=".13"/><path fill="#030305" d="M128.6 45.6c0 .3.2.6.5.6s.5-.3.5-.6-.2-.6-.5-.6-.5.3-.5.6z"/><linearGradient id="i" x1="250.492" x2="257.935" y1="60.861" y2="60.861" gradientTransform="matrix(-1.143 0 0 1 425.69 0)" gradientUnits="userSpaceOnUse"><stop offset="0" stop-color="#ffebc2"/><stop offset=".228" stop-color="#fce4b4"/><stop offset=".655" stop-color="#f3d290"/><stop offset="1" stop-color="#ebc16e"/></linearGradient><path fill="url(#i)" d="M139.4 56.9l-2.6-1.1-2.7.6-.9-.8-1.4 2.5-.9 1.4s.3 3.2.7 3.8c.4.6 1.8 1.9 1.8 1.9l1.8.9s1.7-.6 2.7-.5c1 .1 1.1-.5 1.1-.5s-.1-1.3-.6-2-.2-2.6.1-3.3c.3-.7.3-1.7.3-1.7l.6-1.2z"/><path fill="#FAD4DA" stroke="#F7B3BE" stroke-width=".25" d="M125.4 41.9s.4-.3 1.1-.7c1.6-.9 4.6-2.5 6.2-2.2 2.3.5 2.8.6 3.8-.1s1.7-1.5 2.5-2.8c.7-1.3 1.5-1.6 1.4-2.7-.1-1.1-3.1-2.3-5.7-2.2-2.6.2-4.2 1-6.1 2.3-1.9 1.3-2.8 3.1-3.2 3.8-.3 1 0 4.6 0 4.6z"/><path fill="#FAD4DA" stroke="#F7B3BE" stroke-width=".25" d="M133.8 40s4.5 3.1 4.8 4c.2.9 1.1 4.5 1 5.1-.1.6.3 1.2 1.2.9.9-.3 2.7-1.2 3.6-4 .9-2.8 1.2-6.7-.2-8.8-1.3-2.1-2.5-2.4-3.2-2.8-.7-.4-1.4-.3-1.4-.3l-5.8 5.9z"/><path fill="#FAD4DA" stroke="#F7B3BE" stroke-width=".25" d="M135.8 25.8s3.1.8 3.9 1.8c.8 1 1.6 1.3 1.7 2.6.1 1.3.2 1.9-.2 2.7-.4.8-.5 1.8-1.6 1s-1.2-.2-1.9-1.3c-.7-1-1-.6-1.4-2-.5-1.4-1-2.5-1-3.2.1-.7.2-1.6.2-1.6"/><path fill="#FAD4DA" stroke="#F7B3BE" stroke-width=".25" d="M141.1 33.6s1 1.3 2.4 1.3c1.3.1 2.6-.2 3.2-.4.6-.3.8-1.2.3-1.9-.5-.8-.6-.9-1.3-1.3-.7-.3-2.4-.3-2.4-.3-.7.2-1.6.3-1.6.3l-.6 1.3v1zm-8.4 22.8l.7 3.5 4.1-3.7s1.2 5.8 1.6 7.6c.4 1.7 1.5 3.1 1.9 4.4.5 1.3-2.1 13.7-2.1 13.7h-5.6s-3-6.9-2.6-9.3c.5-2.4 1.9-3.9 2.4-5.2.4-1.4-.4-2.6-.4-2.6s-1.8-1.8-2-.7c-.2 1.2-1.1 5.2-1.3 6.2-.2 1-.1 2.4-.1 2.4l-1.8.3s2.1-12.4 2.5-13.1c.4-.8 1.9-3.9 1.9-3.9l.8.4z"/><radialGradient id="j" cx="100.067" cy="4.749" r="1.155" gradientTransform="matrix(1.3223 0 0 1.6243 -4.138 41.922)" gradientUnits="userSpaceOnUse"><stop offset=".011" stop-color="#f289a9"/><stop offset="1" stop-color="#ecc9cf"/></radialGradient><ellipse cx="128.2" cy="49.6" fill="url(#j)" opacity=".35" rx="1.2" ry="2.2"/><radialGradient id="k" cx="118.866" cy="14.468" r="1.154" gradientTransform="matrix(1.7895 .2396 -.267 1.6065 -75.508 -2.262)" gradientUnits="userSpaceOnUse"><stop offset=".011" stop-color="#f289a9"/><stop offset="1" stop-color="#ecc9cf"/></radialGradient><path fill="url(#k)" d="M135 49.7c-.2 1.2-1.1 2-2 1.9-.9-.1-1.5-1.2-1.3-2.4.2-1.2 1.1-2 2-1.9.9.1 1.5 1.2 1.3 2.4z" opacity=".35"/><path fill="#CE7EB4" d="M132.7 56.1s-.3-.9-1.2 0c-.9.9-1.7.9-1.1 2 .6 1.2 1.5 2 1.5 2s.2 1 0 1.2c-.2.2-.4.8 0 1.4.4.6.7.6 1.1 1.3.4.8 1 1.3 1.2 2 .2.6.1 1.2.3 1.9.2.7.4 3 .5 3.5.1.5.2 2.8.2 3.4-.1.6-.2 7.1-.2 7.1l.3-.1-.6-15.6s-.2-2.7.2-3.2c.5-.6.5-1.8.3-2.4-.2-.6-.7-1.4-.7-1.4s-.2-1 .5-1.1c.6-.1 1.1-.3 2-.6.9-.3 1.3-.5 1.5-1.1.2-.6-1.8-.1-2.1-.5-.4-.3-1.1.2-1.5.4-.4.1-.8 1.1-1 1.2-.2.1-.3.5-.3.5s0-.6-.2-1.1l-.6-1.2m.5 2.1l1.5 11.3"/><path fill="#CE7EB4" d="M132.8 66s6.2-1.1 6.5-1.3c.3-.2.9 1.5.9 1.5s-4.8 1.6-5.5 1.7c-.6.1-2.1 0-2.1 0l.3-1.1-.1-.8z"/><path fill="#CE7EB4" d="M133.9 66c-.3 1 .1 1.3.3 2.2.2.9-.2 1.9-.1 2.8.1 1-.2 2.1-.1 3.2.1 1 .7 1.9.6 3-.1 1.1-.3 2.2-1.1 3-1-.2-1.3-2.4-1.5-3.1-.3-1.2.2-2.2.5-3.4.2-1-.5-1.9-.4-2.8.1-1.1 1.2-1.9 1.6-2.9.6 0 1.1.6 1.2 1.1.1.4.1 1 0 1.4-.1.7-.1.8.3 1.5s.5 1.1.6 1.8c.1.5.3.8.4 1.3.1.5-.1 1.1 0 1.6.1.4.5 3.3 1.6 2.2-.2-.5-.7-.8-.8-1.4 0-.4.3-.9.4-1.3.1-.9-.4-2.1-.7-3-.2-.5-.5-.9-.3-1.4.3-.7.7-.5.2-1.3-.6-1-1-1.8-1.3-2.9 1-.1-.6-1.5-1.3-1.4-1.5.2-.3 2.8 1.3 2 1.5-.9-.1-2.8-1.4-2.2"/><path fill="#FAD4DA" stroke="#F7B3BE" stroke-width=".25" d="M128.1 44.8c0 .6.1 2.7.1 2.7s-1.7-1.5-1.9-2.3c-.2-.8-1.1-2.6-1.1-2.6l1.3-1.3 1.6 3.5z"/><path fill="#0C0C08" d="M133.5 38.9c-1.9-.9-5.2 2-7.5 1.9-.1 4.3 6.4-2.4 7.7-1.1l1.6 1.8 2.2 2 1.3 3.2v3l1.6-.3-2.1-5.8-4.8-4.7z"/><linearGradient id="l" x1="158.508" x2="165.78" y1="72.385" y2="72.385" gradientTransform="matrix(.603 .1868 -.263 .849 57.7 -47.586)" gradientUnits="userSpaceOnUse"><stop offset="0" stop-color="#ffebc2"/><stop offset=".228" stop-color="#fce4b4"/><stop offset=".655" stop-color="#f3d290"/><stop offset="1" stop-color="#ebc16e"/></linearGradient><path fill="url(#l)" d="M135.2 41.7l.5-.3.5.6.2 1.1-.3.9s-.6-.3-.7-.2c-.1.1-.5.7-.4 1.1.1.4.1.8.4 1.1.2.3.9.9 1.2 1.1.3.2.8.7 1.1.3.4-.4.4-2.3.2-2.9-.1-.7-1-2.6-1.2-2.9-.2-.3-.7-.5-.9-.6-.2-.1-.3-.2-.4 0-.2.1-.3.2-.4.3-.1.1-.3.4-.3.4l.2.2.3-.2z"/><ellipse cx="129.4" cy="50.7" fill="#908C8D" rx=".7" ry="1.3"/><path fill="#FAD4DA" stroke="#F7B3BE" stroke-width=".25" d="M136.4 47.5l2-.7 2 4.5-1.8 9.3-1.6-1 1.8-7.2z"/><path fill="#FAD4DA" stroke="#F7B3BE" stroke-width=".25" d="M137.4 61.2l1.2-.3.1-1.7-.7-1-1.1.8"/><path fill="#E38DBB" d="M140.8 94c-.9.5-.8 3.1-1 4.2l.1.2s.9-2.8.9-3.3v-.9"/><path fill="#CE7EB4" d="M134.9 99.5c-1.7.1-5.4.9-5.3 1.2.9 2.3 9.6 0 6.9-1.5-1.3.1-1 1.8-1.6 1.7-1.1 0-2.8-.8-1.4-1.4"/><path fill="#AFD25A" stroke="#AFD25A" d="M76.3 118.5l24.6-23.6h24.4l-16.5 23.6z"/><path fill="#AFD25A" d="M76.3 118.5l24.6-23.6h24.4l-16.5 23.6z"/><path fill="#FFF" stroke="#BEE6F3" stroke-width=".25" d="M79.9 117.4l21.8-21.3h21l-15.9 21.3z"/><path fill="#FFF0B8" stroke="#AFD25A" stroke-width=".25" d="M110 101.7c-.6-.2-.8-1.1-.9-1.7-.1-.4-.1-.6.2-.9.4-.3.7-.3.6.2-.1.4-.3.5.1.8.2.2.5.3.7.5.5.6.7 1.5.8 2.3.1 1.4-.7 2.8-1.8 3.6-.7.4-1.3.3-2 .3-.6 0-1.7-.1-1.7.8-1 0-.5-1.4.1-1.7.4-.2.7-.2 1.1-.1.5 0 .8-.1 1.2-.3.7-.4 1.3-.9 1.5-1.7.1-.7.3-1.9-.4-2.3"/><path fill="#FFF0B8" stroke="#AFD25A" stroke-width=".25" d="M110.9 104.5c-.5 0-1.4-.6-1.6-1.1-.4-.7-.5-1.6-.9-2.3.2-.1.3-.2.4-.4.3 0 .7.4.9.6.4.2.8.3 1.2.5.4.2.4 1.1.5 1.6 0 .3-.1 1.5-.5 1.1"/><path fill="#FFF0B8" stroke="#AFD25A" stroke-width=".25" d="M110.9 104.5c-.3-.4-1.3-.6-1.8-.5-.8.2-1.6.6-2.4.8 0 .2 0 .4-.1.5.2.2.8.2 1.1.3.4.1.7.5 1.1.6.4.1 1.1-.4 1.5-.6.2-.1 1.1-1 .5-1.1"/><path fill="#AFD25A" stroke="#AFD25A" stroke-width=".25" d="M114.9 106.7l-3.1-1.4c-.7-.3-.9-.2-.9-.2s.4-1.1.4-.9c0 .4.5.5.5.5l3.4 1.7c-.1-.1-.1 0-.3.3z"/><path fill="none" stroke="#AFD25A" stroke-width=".25" d="M107.5 104.8s.8.3 1.7.2c.9 0 1.3-.1 1.6-.2.2-.1.1-.9-.2-1.3-.3-.4-1.6-1.6-1.7-1.6"/><path fill="none" stroke="#AFD25A" stroke-width=".25" d="M106.9 105s1.1.1 1.5.1c.5.1 1.1.1 1.4.1.3-.1.7-.1.9-.3.2-.2.3-.5.2-.9-.1-.4-1-1.5-1.3-1.7-.3-.3-.8-.6-.8-.7-.1-.1 0-.3 0-.3"/><path fill="none" stroke="#AFD25A" stroke-width=".25" d="M107.1 105.2s1.2.1 1.7.1c.5.1 1.3.1 1.6-.2.3-.3.5-.6.5-.6s.2-.8-.1-1.4c-.4-.6-1.2-1.2-1.4-1.4-.2-.3-.4-.5-.4-.5"/><path fill="#AFD25A" d="M108.4 103c.1.1.2.2.1.3-.1.1-.2.2-.3.1-.1-.1-.2-.2-.1-.3.1-.1.2-.2.3-.1zm0 .7c.1.1.2.2.1.3-.1.1-.2.2-.3.1-.1-.1-.2-.2-.1-.3 0-.1.1-.2.3-.1zm.5-1.1c.1.1.2.2.1.3-.1.1-.2.2-.3.1-.1-.1-.2-.2-.1-.3 0-.1.2-.2.3-.1zm.1.7c.1.1.2.2.1.3-.1.1-.2.2-.3.1-.1-.1-.2-.2-.1-.3 0-.1.1-.1.3-.1z"/><path fill="#FFF0B8" stroke="#AFD25A" stroke-width=".25" d="M115.2 99.3c-.4-.1-.5-.7-.6-1 0-.2-.1-.4.1-.6.2-.2.4-.2.4.1 0 .3-.2.3.1.5.1.1.3.2.4.3.3.3.5.9.5 1.4.1.8-.4 1.8-1.1 2.2-.4.3-.8.2-1.3.2-.4 0-1 0-1 .5-.6 0-.3-.8.1-1 .3-.1.4-.1.7-.1.3 0 .5-.1.8-.2.4-.2.8-.6.9-1.1.1-.5.2-1.2-.2-1.4"/><path fill="#FFF0B8" stroke="#AFD25A" stroke-width=".25" d="M115.7 101.1c-.3 0-.8-.3-1-.6-.2-.5-.4-1-.6-1.4.1 0 .2-.1.2-.3.2 0 .4.3.6.4.2.1.5.1.7.3.2.1.3.7.3 1 .1 0 0 .7-.2.6"/><path fill="#FFF0B8" stroke="#AFD25A" stroke-width=".25" d="M115.7 101c-.2-.2-.8-.4-1.1-.3-.5.1-1 .4-1.5.5v.3c.2.1.5.1.7.2.2.1.5.3.7.3.3.1.7-.3.9-.4.1 0 .6-.6.3-.6"/><path fill="#AFD25A" stroke="#AFD25A" stroke-width=".25" d="M118.3 102.3s-1.9-.8-2-.8c-.5-.2-.6-.1-.6-.1s.2-.7.3-.6c0 .2.3.3.3.3l2.1 1s-.1 0-.1.2z"/><path fill="none" stroke="#AFD25A" stroke-width=".25" d="M113.6 101.2s.5.1 1.1.1c.5 0 .8-.1 1-.2.1-.1.1-.5-.2-.8-.2-.3-1-.9-1-1"/><path fill="none" stroke="#AFD25A" stroke-width=".25" d="M113.3 101.4s.7 0 .9.1c.3 0 .7.1.9 0 .2-.1.4-.1.6-.2.1-.2.2-.3.1-.6s-.7-.9-.9-1.1c-.2-.2-.5-.3-.5-.4V99"/><path fill="none" stroke="#AFD25A" stroke-width=".25" d="M113.4 101.5s.7 0 1.1.1c.3 0 .8 0 1-.1.2-.2.3-.4.3-.4s.1-.5-.1-.9c-.2-.3-.7-.7-.9-.9l-.3-.3"/><path fill="#AFD25A" d="M114.2 100.1c.1 0 .1.1.1.2s-.1.1-.2.1-.1-.1-.1-.2.1-.1.2-.1zm-.1.4c.1 0 .1.1.1.2s-.1.1-.2.1-.1-.1-.1-.2c.1 0 .2-.1.2-.1z"/><circle cx="114.4" cy="100" r=".2" fill="#AFD25A" transform="rotate(-65.537 114.4 100.025)"/><circle cx="114.4" cy="100.5" r=".2" fill="#AFD25A" transform="rotate(-65.392 114.45 100.48)"/><path fill="#FFF0B8" stroke="#AFD25A" stroke-width=".25" d="M107.6 109.2c-.4-.1-.6-.6-.7-1-.1-.2-.1-.4.1-.6.2-.2.4-.2.4.1 0 .3-.1.3.1.5.2.1.3.1.5.3.3.3.6.9.7 1.3.2.8-.2 1.8-.8 2.3-.4.3-.8.3-1.2.3-.4 0-1 .1-.9.6-.6.1-.4-.8-.1-1 .3-.2.4-.2.7-.2.3 0 .5-.1.7-.3.4-.3.7-.6.7-1.2 0-.5 0-1.2-.4-1.4"/><path fill="#FFF0B8" stroke="#AFD25A" stroke-width=".25" d="M108.4 110.9c-.3 0-.9-.2-1.1-.5-.3-.4-.5-.9-.8-1.3.1-.1.2-.2.2-.3.2 0 .4.2.6.3.2.1.5.1.8.2.2.1.4.6.4.9.1.1.1.9-.1.7"/><path fill="#FFF0B8" stroke="#AFD25A" stroke-width=".25" d="M108.4 110.8c-.2-.2-.9-.3-1.2-.2-.5.2-.9.5-1.4.7 0 .1.1.2 0 .3.2.1.5.1.7.1.2.1.5.2.7.3.3 0 .7-.3.9-.5.1-.1.6-.7.3-.7"/><path fill="#AFD25A" stroke="#AFD25A" stroke-width=".25" d="M111.1 111.9l-2-.6c-.5-.1-.6-.1-.6-.1s.2-.7.2-.6c.1.2.3.3.3.3l2.2.7c-.1 0-.1 0-.1.3z"/><path fill="none" stroke="#AFD25A" stroke-width=".25" d="M106.3 111.3s.5.1 1.1 0c.5-.1.8-.2.9-.3.1-.1 0-.5-.3-.8-.3-.2-1.1-.8-1.2-.8"/><path fill="none" stroke="#AFD25A" stroke-width=".25" d="M106 111.5s.7-.1.9-.1c.3 0 .7 0 .9-.1.2-.1.4-.1.5-.3.1-.2.1-.3 0-.6-.1-.2-.8-.8-1-1-.2-.1-.5-.3-.6-.4-.1-.1 0-.2 0-.2"/><path fill="none" stroke="#AFD25A" stroke-width=".25" d="M106.1 111.6s.7 0 1.1-.1c.3 0 .8-.1 1-.3.2-.2.3-.4.3-.4s.1-.5-.2-.8c-.3-.3-.8-.6-1-.8-.2-.1-.3-.3-.3-.3"/><ellipse cx="106.7" cy="110.3" fill="#AFD25A" rx=".2" ry=".1" transform="rotate(-72.44 106.697 110.288)"/><path fill="#AFD25A" d="M106.8 110.6c.1 0 .1.1.1.2s-.1.1-.2.1-.1-.1-.1-.2.1-.2.2-.1z"/><ellipse cx="106.9" cy="110" fill="#AFD25A" rx=".2" ry=".1" transform="rotate(-72.794 106.947 110.025)"/><circle cx="107.1" cy="110.5" r=".2" fill="#AFD25A" transform="rotate(-72.794 107.056 110.477)"/><path fill="#6C491C" d="M182.5 24.7c0 .3-.2.5-.4.5h-23.4c-.2 0-.4-.2-.4-.5s.2-.5.4-.5H182c.3 0 .5.2.5.5z"/><path fill="#8B5C28" d="M158.6 24.2l2.7-1.4H181l1 1.4z"/><path fill="#6C491C" d="M182.7 31.7c0 .3-.2.5-.4.5h-23.4c-.2 0-.4-.2-.4-.5s.2-.5.4-.5h23.4c.2 0 .4.2.4.5z"/><path fill="#8B5C28" d="M158.9 31.2l2.6-1.4h19.7l1.1 1.4z"/><path fill="#A7D7B1" d="M180.9 27.1c0 .7-.5 1.2-1.2 1.2h-17.4c-.7 0-1.2-.5-1.2-1.2s.5-1.2 1.2-1.2h17.4c.7 0 1.2.5 1.2 1.2z"/><path fill="#675BA7" d="M180.9 29.4c0 .7-.5 1.2-1.2 1.2h-17.4c-.7 0-1.2-.5-1.2-1.2s.5-1.2 1.2-1.2h17.4c.7 0 1.2.6 1.2 1.2z"/><path fill="#BFE6F2" stroke="#BFE6F2" stroke-width=".25" d="M203.3 9.9l-.3 32.4 13.3 18.4V27.9z"/><path fill="#DDCF89" stroke="#EADD90" d="M202.6 14.7l2.5 2.5.1 28.8-3 .2z"/><path fill="#F3E89B" stroke="#F3E89B" d="M203.3 9.9l-.3 4.8 13.2 18.5v-5.4z"/><path fill="#EADD90" stroke="#EADD90" d="M216.2 28.7h3.1v39.4h-3.1zm3.2 0h-3.2L203 10.2l3.3-.6z"/><path fill="#EADD90" stroke="#EADD90" d="M218.6 65.1h-3.1l-13.6-18.5 3.3-.6z"/><path fill="#F3E89B" stroke="#F3E89B" d="M202 46.5v2.8l14.2 19v-3.2z"/><g stroke-width=".25"><path fill="#020202" stroke="#3F3F3D" d="M64.6 10.3s2.2.4 2.9 2.2c.7 1.8 1 2.3 1 2.3s-2.5 1.9-3.7 1.9c-1.2.1-2.8-.1-2.8-.1s-1.9.1 0 .6 1.9.3 3.3 0 3.3-1.2 3.9-1.9c.6-.7-.1-3.4-.8-4-.7-.5-1.3-1.4-2-1.5-.7-.1-1.8-.6-1.7-1.3.1-.7-.4-2.4-.4-2.4l-.3.7.6 3.5z" opacity=".08"/><ellipse cx="63.9" cy="14.6" fill="#6C6C6D" stroke="#000" rx="4.9" ry="2"/><path fill="#7D7A7A" stroke="#7D7A7A" d="M62.7 10.3s.1-2.3.1-2.5c.1-.2.3-.9.3-.9l.1 3.5-.5-.1z"/><ellipse cx="63.8" cy="14.1" stroke="#000" rx="4.7" ry="1.8"/><ellipse cx="63.9" cy="14.4" fill="#C9C8C4" stroke="#000" rx="3.9" ry="1.6"/><ellipse cx="62.1" cy="14.1" fill="#929291" stroke="#706F6B" rx=".2" ry=".1"/><ellipse cx="63.6" cy="10.5" fill="#3F3F3D" stroke="#3F3F3D" opacity=".17" rx="1.3" ry=".2"/><path fill="#D3D3D1" stroke="#D3D3D1" d="M63.2 10.3h1.4s0-3.7-.6-3.9c-.6-.2-.8.1-1 .1-.2.1.1 1 .1 1.6.1.6.1 2.2.1 2.2z"/><path fill="#3F3F3D" stroke="#3F3F3D" d="M63.2 10.3s.3-1.4.3-2c0-.6-.1-1.8-.1-1.8s0-.1-.1-.1c-.1.1-.1.2-.1.4-.2.5 0 3.5 0 3.5z" opacity=".17"/><path fill="#3F3F3D" stroke="#3F3F3D" d="M63.3 6.6c.4 0 .9-.1 1 .4v.6c0 .2.1.4.1.6 0 .8-.7 1.8-1.3 2.3.2.1.6 0 .8 0h.4c.3 0 .2 0 .3-.2.1-.3 0-.6 0-.9v-.9c0-.3-.1-.6-.2-.9-.1-.3-.1-.7-.2-.9-.2-.2-.6-.3-.9-.3-.3 0-.4.3-.3.7.1-.2.2-.4.4-.5" opacity=".17"/><ellipse cx="63" cy="13.8" fill="#929291" stroke="#706F6B" rx=".2" ry=".1"/><ellipse cx="63.6" cy="14.1" fill="#929291" stroke="#706F6B" rx=".2" ry=".1"/><ellipse cx="64.5" cy="14.8" fill="#929291" stroke="#706F6B" rx=".2" ry=".1"/><ellipse cx="66" cy="14.6" fill="#929291" stroke="#706F6B" rx=".2" ry=".1"/><ellipse cx="66.7" cy="14.3" fill="#929291" stroke="#706F6B" rx=".2" ry=".1"/><ellipse cx="65.9" cy="14.1" fill="#929291" stroke="#706F6B" rx=".2" ry=".1"/><ellipse cx="65.1" cy="13.9" fill="#929291" stroke="#706F6B" rx=".2" ry=".1"/><ellipse cx="63.5" cy="14.6" fill="#929291" stroke="#706F6B" rx=".2" ry=".1"/><ellipse cx="65.3" cy="14.5" fill="#929291" stroke="#706F6B" rx=".2" ry=".1"/><ellipse cx="64.1" cy="14.4" fill="#929291" stroke="#706F6B" rx=".2" ry=".1"/><ellipse cx="64.2" cy="13.8" fill="#929291" stroke="#706F6B" rx=".2" ry=".1"/><ellipse cx="63" cy="14.3" fill="#929291" stroke="#706F6B" rx=".2" ry=".1"/><ellipse cx="66.7" cy="14.8" fill="#929291" stroke="#706F6B" rx=".2" ry=".1"/><ellipse cx="65.1" cy="15" fill="#929291" stroke="#706F6B" rx=".2" ry=".1"/><ellipse cx="62.8" cy="15" fill="#929291" stroke="#706F6B" rx=".2" ry=".1"/><ellipse cx="63.8" cy="15" fill="#929291" stroke="#706F6B" rx=".2" ry=".1"/><ellipse cx="61.3" cy="14.3" fill="#929291" stroke="#706F6B" rx=".2" ry=".1"/><ellipse cx="62.1" cy="14.6" fill="#929291" stroke="#706F6B" rx=".2" ry=".1"/><path fill="#B7B7B7" stroke="#B7B7B7" d="M59 14.2s1.2-2.1 5-1.9c3.8.2 4.6 2 4.6 2s-.7-4.2-4.9-4.2c-4.1-.1-4.7 4-4.7 4.1"/></g><g fill="none" stroke="#DEDCEE" stroke-dasharray="12 4"><path d="M60.6 13.8L56 19m5.4-4.8l-.5 2.5m.6-3l1.9 4.6m-1.1-3.8l-1.7 4.9m1.9-5.6l.2 6.1m-.2-6.6l-1.9 10.4m2.9-10.4l2.2 9.2m-1.2-9.2l1.8 7.9m-3.1-6.8l.5 6.2m1.5-7l2 6.6M66 13.8l1.9 5.6M63 13.7l-1.9 10.5m2.4-10.9L53.3 26.8m8.2-13.1l5.4 14.2m-1.6-14.2l3 11.1M64 14.3l-4.6 13.1m5-12.9l-1 10.7" opacity=".43"/><path d="M61.5 14.3l.9 16.4m-1.8-16.9l-1.2 14.5" opacity=".3"/><path d="M64.5 13.5l.8 17.2" opacity=".18"/></g><g fill="none" stroke="#FCFDFF" stroke-dasharray="12 4"><path d="M60.9 15.3l-4.6 5.2m5.4-4.8l-.5 2.5m.6-3l1.9 4.5M62.6 16l-1.7 4.9m1.9-5.6l.2 6m-.2-6.5l-1.9 10.3m2.9-10.3L66 24m-1.2-9.2l1.8 7.9m-3.1-6.8l.5 6.2m1.5-7l2 6.6m-1.3-6.4l2 5.6m-4.9-5.7l-1.9 10.5m2.4-10.9L53.6 28.2m8.2-13l5.4 14.2m-1.6-14.2l2.9 11.1m-4.2-10.5l-4.6 13.1m5-12.9l-1 10.7" opacity=".43"/><path d="M61.8 15.8l.9 16.4m-1.8-16.9l-1.2 14.5" opacity=".3"/><path d="M64.8 15l.8 17.2" opacity=".18"/></g><path fill="#FCFDFB" stroke="#9D9D9C" stroke-width=".25" d="M160.4 75.5c.2 0 .2.1.4.1s.2-.1.2-.2c.1-.2.1-.3.1-.5 0-.3.2-.6 0-.9-.1-.2-.1-.3-.1-.5v-.2c0-.1.1-.1 0-.2 0 .1.1.1.1.2v.3c0 .3 0 .5-.1.8-.1.3 0 .5 0 .8 0 .2.1.4 0 .5-.3.1-.8 0-.6-.2" opacity=".18"/><path fill="#999998" stroke="#999998" stroke-width=".25" d="M154.4 68.7c0-.1 0-.7.2-.6.3.1.4 1.2.4 1.3 0 .1.1.2.1.2l.4-.1s-.1-1.3-.4-1.5c-.3-.3-.3-.4-.6-.1-.3.3-.4.8-.4.8s-.6.1-.6.6c0 .4.1.4.4.4.4 0 .7-.1.7-.4 0-.4-.2-.6-.2-.6z"/><path fill="#F1F1F2" stroke="#8D8D8D" stroke-width=".25" d="M161.2 68.6l-3.6-.7s-2.3.7-2.9 2.5c-.9 2.9.7 4 1.9 4.8 1.2.8 3.5 1.1 3.5 1.1"/><ellipse cx="160.7" cy="72.5" fill="#E1E2E0" stroke="#999998" stroke-width=".25" rx="3.4" ry="3.9"/><circle cx="160.7" cy="72.5" r="1.1" fill="#8C6226" stroke="#7F5321" stroke-width=".25" opacity=".27"/><path fill="#B7B7B7" stroke="#B7B7B7" stroke-width=".25" d="M159.7 72.2l1.1.5.4-.1-1.4-.7z"/><path fill="#999998" d="M160.9 73l-.1-.3-1.1-.5z"/><path fill="#999998" d="M160.8 72.5s.2 1.2.1 1.7c0 .5-.1 1.1-.3 1.1-.1 0 0-.5-.2-.5h-.4s-.2.6.2.8c.4.2.7.3.9-.1.2-.3.2-1.9.2-2.2 0-.3-.1-.7-.2-.9-.1 0-.3.1-.3.1z"/><g stroke="#B7B7B7" stroke-width=".25"><circle cx="160.2" cy="74.9" r=".5" fill="#B7B7B7"/><path fill="#FCFDFB" d="M160.1 74.6c-.3.2-.2.6.2.7-.3-.3-.2-.4.1-.7" opacity=".18"/></g><path fill="#FCFDFB" stroke="#9D9D9C" stroke-width=".25" d="M160.9 73c.1.3 0 .7 0 1 0 .3.1.7 0 1.1.3-.3.3-.8.2-1.2-.1-.4-.1-.8-.2-1.2-.1 0-.1.4 0 .5" opacity=".18"/><path fill="#00ACDA" stroke="#00ACDA" stroke-width=".111" d="M218.6 127.9l-20.5-36.5v-6.1l21.9 40.3v2.3z"/><path fill="#AFD25A" d="M196.5 91.6s-33.5-6.9-34.3 4.8c-.5 8.7 34.3 5.2 34.3 5.2v-10z"/><path fill="#FFF" stroke="#BEE6F3" stroke-width=".25" d="M182.4 94.6s.2-1.3.6.4c.5 2.1-1.6 1.4-.2 1.6 1.4.2 3.9.1 3.9.1l6.6-.1.6 2.9s-29.3 4-29.3-3.8c0-4.5 6.7-4.8 9.9-4.8 3.6 0 6.6-.1 7.5.2 1.7.6.2 1.7.2 1.7l.2 1.8z"/><ellipse cx="182.2" cy="92.3" fill="#099B49" rx=".4" ry=".3"/><path fill="#D6E8F7" d="M192.2 92.3s-18.6-1.8-17.9 3.5c.4 3.1 10.4 2.9 13 2.7 2.7-.1 6.7-.1 6.7-.1"/><path fill="#FFF0B8" stroke="#AFD25A" stroke-width=".25" d="M199.7 60.7l2.9 1.4-10.1.1-2.2-1.2z"/><path fill="#FFFFFB" stroke="#CCC" stroke-width=".25" d="M192.5 65.2v16.1l9.5-.1.5-16.2z"/><path fill="#DBDBDA" stroke="#919191" stroke-width=".25" d="M176.1 95.6l.7 1.8.1-2.9-.7-1.7z"/><path fill="#F3E9A3" d="M188.9 83.8h2.3l.7-.1-.2 1s-2.1.3-2.4.3c-.3 0-.9-.2-.9-.2l.5-1z"/><path fill="#FFFFFB" stroke="#CCC" stroke-width=".25" d="M176.2 92.8l.7 1.7 20.4-1s-.9-2.9-.6-6c.3-3.1 5.2-6.3 5.2-6.3l-9.6.1-.7 3.4-3.3.1s.4-.9.9-2.4c.5-1.6.4-2.4.4-2.4s-5.5 1.3-8.5 1.4c-3 .1-8.7-.8-9.1-.8-1.4 0-1.2-.2-1.2-.2l.5 2.9s.5 1.8 1.9 2.6 3 1.8 4.1 2.4c1 .6 2.3 1.7 2.2 1.9-.1.2-.3 2.1-.3 2.1l-3 .5z"/><path fill="#E4E4E2" stroke="#AAA" stroke-width=".25" d="M176.9 94.5l20.4-1s1 .1 1.2.9c.2.5.2 1.6-.5 2.2-.8.8-20.6.7-21.1.7s-.4-.3-.3-1.3c.3-.6.3-1.5.3-1.5z"/><path fill="#F2F2EF" stroke="#C6C6C6" stroke-width=".25" d="M190.3 77.4l2.2 3.9V65.2l-2.2-2.1z"/><path fill="#EFEFEF" stroke="#929292" stroke-width=".25" d="M179.2 92.3l1.4 2.2h-3.7l-.7-1.7z" opacity=".03"/><path fill="#E4E4E2" stroke="#B7B7B7" stroke-width=".25" d="M188.8 83.8h2.3l.7-.1-.2 1s-2.1.3-2.4.3c-.3 0-.9-.2-.9-.2l.5-1z"/><path fill="#F3E9A3" d="M190.3 77.4s.9 2.2.6 3.5c-.4 1.3-.7 3-.7 3l1.7.6.6-3.2-2.2-3.9z"/><path fill="#E4E4E2" stroke="#B7B7B7" stroke-width=".25" d="M190.5 77.4s.9 2.2.6 3.5c-.4 1.3-.7 3-.7 3l1.7.6.6-3.2-2.2-3.9z"/><path fill="#E4E4E2" stroke="#C9C9C9" stroke-width=".25" d="M179.5 90.2l1.2.9-.1 3.2-1.4-2z"/><path fill="#FBE68F" stroke="#AFD25A" stroke-width=".25" d="M202.5 65l-10 .2v-3l10.1-.1z"/><path fill="#FFF0B8" stroke="#AFD25A" stroke-width=".25" d="M190.3 61v2.8l2.3 1.4-.1-3zm-21.7 33.6c-.4.1-.8-.3-1-.6-.2-.2-.2-.3-.2-.5.1-.3.3-.3.4-.1.1.2 0 .3.3.4.2 0 .3 0 .5.1.4.1.8.6 1.1.9.5.6.6 1.6.2 2.3-.2.4-.6.5-.9.8-.3.2-.9.5-.6.9-.5.3-.7-.5-.5-.9.2-.2.3-.3.5-.4.2-.1.4-.3.5-.5.2-.4.4-.8.2-1.3-.2-.4-.4-1-.9-1"/><path fill="#FFF0B8" stroke="#AFD25A" stroke-width=".25" d="M170 95.8c-.3.1-.9.1-1.1-.1l-1.2-.9c.1-.1.1-.2.1-.3.2-.1.5 0 .7 0 .2 0 .5-.1.7-.1.3 0 .6.4.7.6 0 .2.3.8.1.8"/><path fill="#FFF0B8" stroke="#AFD25A" stroke-width=".25" d="M169.9 95.7c-.3-.1-.9.1-1.1.3-.3.4-.6.8-1 1.1.1.1.1.2.1.3.2 0 .4-.1.6-.2.2 0 .5 0 .7-.1.2-.1.4-.5.6-.8.2 0 .4-.7.1-.6"/><path fill="#AFD25A" stroke="#AFD25A" stroke-width=".25" d="M172.7 95.6l-2 .2c-.5.1-.6.2-.6.2s-.1-.7-.1-.6c.1.2.4.1.4.1l2.2-.2c0 .1 0 .1.1.3z"/><path fill="none" stroke="#AFD25A" stroke-width=".25" d="M168.3 96.9s.5-.1.9-.4c.4-.3.7-.4.7-.6.1-.1-.2-.5-.5-.6-.3-.1-1.3-.3-1.3-.3"/><path fill="none" stroke="#AFD25A" stroke-width=".25" d="M168.1 97.2s.5-.3.8-.4c.2-.1.6-.3.7-.4.1-.1.3-.2.4-.4 0-.2 0-.3-.2-.5s-1-.4-1.2-.5c-.2 0-.6-.1-.6-.1-.1 0-.1-.1-.1-.1"/><path fill="none" stroke="#AFD25A" stroke-width=".25" d="M168.3 97.2s.6-.3.9-.4c.3-.1.7-.3.8-.6.1-.2.1-.5.1-.5s-.1-.5-.5-.7c-.4-.2-.9-.2-1.1-.3-.2-.1-.4-.1-.4-.1"/><path fill="#AFD25A" d="M168.2 95.7c.1 0 .1.1.1.1 0 .1 0 .2-.1.2s-.1 0-.1-.1.1-.2.1-.2z"/><ellipse cx="168.4" cy="96.2" fill="#AFD25A" rx=".2" ry=".1" transform="rotate(-96.575 168.438 96.247)"/><ellipse cx="168.4" cy="95.5" fill="#AFD25A" rx=".2" ry=".1" transform="rotate(-96.58 168.36 95.544)"/><ellipse cx="168.6" cy="95.9" fill="#AFD25A" rx=".2" ry=".1" transform="rotate(-96.575 168.64 95.897)"/><path fill="#FFF0B8" stroke="#AFD25A" stroke-width=".25" d="M172.5 92.5c-.2-.1-.3-.4-.3-.6 0-.1 0-.2.1-.3.1-.1.3-.1.2.1 0 .2-.1.2 0 .3.1.1.2.1.2.2.2.2.2.6.2.9 0 .5-.3 1-.8 1.2-.3.1-.5.1-.8 0-.2 0-.6-.1-.6.2-.3 0-.1-.5.1-.6.2-.1.3 0 .4 0 .2 0 .3 0 .5-.1.3-.1.5-.3.6-.6.1-.3.2-.7-.1-.8"/><path fill="#FFF0B8" stroke="#AFD25A" stroke-width=".25" d="M172.7 93.5c-.2 0-.5-.3-.5-.4-.1-.3-.1-.6-.3-.9.1 0 .1-.1.1-.1.1 0 .2.2.3.2.1.1.3.1.4.2.1.1.1.4.1.6.1.1 0 .6-.1.4"/><path fill="#FFF0B8" stroke="#AFD25A" stroke-width=".25" d="M172.7 93.5c-.1-.1-.5-.3-.7-.2-.3.1-.6.2-.9.2v.2c.1.1.3.1.4.2.1.1.3.2.4.2.1.1.4-.1.6-.2 0-.1.4-.4.2-.4"/><path fill="#AFD25A" stroke="#AFD25A" stroke-width=".25" d="M174.1 94.4l-1.1-.6-.3-.1s.2-.4.2-.3c0 .1.2.2.2.2l1.2.7c-.2 0-.2 0-.2.1z"/><path fill="none" stroke="#AFD25A" stroke-width=".25" d="M171.4 93.5s.3.1.6.1h.6c.1 0 .1-.3 0-.5s-.5-.6-.5-.6"/><path fill="none" stroke="#AFD25A" stroke-width=".25" d="M171.2 93.6s.4.1.5.1c.2 0 .4.1.5.1.1 0 .2 0 .3-.1.1-.1.1-.2.1-.3 0-.2-.3-.6-.4-.7-.1-.1-.3-.2-.3-.3v-.1"/><path fill="none" stroke="#AFD25A" stroke-width=".25" d="M171.3 93.7s.4.1.6.1c.2 0 .5.1.6 0l.2-.2s.1-.3 0-.5-.4-.5-.5-.6c-.1-.1-.1-.2-.1-.2"/><circle cx="171.8" cy="93" r=".1" fill="#AFD25A" transform="rotate(-59.023 171.784 92.975)"/><circle cx="171.7" cy="93.2" r=".1" fill="#AFD25A" transform="rotate(-59.42 171.73 93.234)"/><circle cx="172" cy="92.9" r=".1" fill="#AFD25A" transform="rotate(-59.556 171.965 92.86)"/><circle cx="172" cy="93.1" r=".1" fill="#AFD25A" transform="rotate(-59.303 171.957 93.125)"/><path fill="#FFF0B8" stroke="#AFD25A" stroke-width=".25" d="M171.7 97.8c-.2.1-.5 0-.7-.1-.1-.1-.2-.1-.2-.3 0-.2.1-.3.2-.1.1.1.1.2.3.1.1 0 .2-.1.3-.1.3 0 .6.1.9.2.4.2.7.8.7 1.3 0 .3-.2.5-.3.7-.1.2-.4.5-.1.7-.2.3-.5-.1-.5-.4 0-.2.1-.2.2-.4.1-.1.1-.3.2-.4 0-.3 0-.6-.2-.8-.2-.2-.5-.5-.8-.4"/><path fill="#FFF0B8" stroke="#AFD25A" stroke-width=".25" d="M172.8 98.1c-.1.2-.5.3-.6.3-.3 0-.6-.2-.9-.2 0-.1 0-.1-.1-.2.1-.1.3-.1.4-.2.1-.1.2-.2.4-.2.1-.1.4.1.6.2 0 0 .3.2.2.3"/><path fill="#FFF0B8" stroke="#AFD25A" stroke-width=".25" d="M172.8 98.1c-.2 0-.5.3-.5.4-.1.3-.1.6-.2.9.1 0 .1.1.1.1.1 0 .2-.2.3-.3.1-.1.3-.1.4-.2.1-.1.1-.4.1-.6 0 0-.1-.5-.2-.3"/><path fill="#AFD25A" stroke="#AFD25A" stroke-width=".25" d="M174.3 97.3l-1.1.6c-.2.2-.3.2-.3.2l-.2-.3c.1.1.3 0 .3 0l1.2-.7c0 .1 0 .1.1.2z"/><path fill="none" stroke="#AFD25A" stroke-width=".25" d="M172.2 99.1s.2-.2.4-.5.2-.4.3-.5c0-.1-.2-.2-.5-.2-.2 0-.8.1-.8.2"/><path fill="none" stroke="#AFD25A" stroke-width=".25" d="M172.1 99.3s.2-.3.3-.4c.1-.1.3-.3.3-.4 0-.1.1-.2.1-.3 0-.1-.1-.2-.3-.2-.2-.1-.7 0-.8 0-.1 0-.3.1-.4.1h-.1"/><path fill="none" stroke="#AFD25A" stroke-width=".25" d="M172.2 99.3s.3-.3.4-.5c.1-.1.3-.4.3-.5 0-.2-.1-.3-.1-.3s-.2-.2-.5-.2c-.2 0-.6.1-.7.1h-.2"/><circle cx="171.8" cy="98.6" r=".1" fill="#AFD25A" transform="rotate(-121.386 171.84 98.566)"/><circle cx="172" cy="98.7" r=".1" fill="#AFD25A" transform="rotate(-121.547 172.042 98.738)"/><circle cx="171.8" cy="98.4" r=".1" fill="#AFD25A" transform="rotate(-121.78 171.81 98.36)"/><circle cx="172.1" cy="98.5" r=".1" fill="#AFD25A" transform="rotate(-121.434 172.07 98.494)"/><path fill="#F2F2EF" stroke="#C6C6C6" stroke-width=".25" d="M170.4 78.2l.3 2.3s4 1 10.5.8c4.2-.1 8.1-1.4 8.5-1.4.4 0 .2-2.1.2-2.1s-5.8.9-8.8 1.2c-3.5.3-8.6.1-9.2-.2-1.4-.4-1.5-.6-1.5-.6z"/><path fill="#FBE68F" stroke="#AFD25A" stroke-width=".25" d="M170 76.8c.1-.1.1-.1.2 0 .1 1-.5 1.4.8 1.9.8.3 1.7.4 2.5.5 1.6.2 3.1.5 4.7.5 3.2 0 6.3-.1 9.4-.7.6-.1 1.9-.4 2.3-.7.9-.8.2-1.5-.7-1.5-1.6 0-3.3.5-4.9.7-1.8.3-3.6 0-5.3-.1-1.8-.1-3.4-.1-5.2-.3-1.1-.1-2.5-.5-3.5-.2"/><ellipse cx="180.2" cy="76.7" fill="#FFF0B8" stroke="#AFD25A" stroke-width=".25" rx="9.9" ry="1.7"/><path fill="#FFF0B8" stroke="#AFD25A" stroke-width=".25" d="M180.9 77.1c.4 0 .8.2 1 .3.1.1.2.1.1.3-.1.1-.3.1-.4 0-.1-.1 0-.2-.3-.2h-.5c-.4-.1-.8-.3-1.1-.5-.5-.3-.4-.8 0-1.1.3-.2.7-.2 1.1-.3.4-.1 1-.2.7-.4.5-.1.7.3.4.4-.2.1-.4.1-.6.2-.3 0-.4.1-.6.2-.3.2-.5.4-.4.6.1.2.4.5.8.5"/><path fill="#FFF0B8" stroke="#AFD25A" stroke-width=".25" d="M179.6 76.5c.3-.1.9 0 1.2.1.4.1.7.3 1.2.5-.1 0-.1.1-.1.1h-1.5c-.3 0-.5-.2-.7-.3-.1-.1-.4-.4-.1-.4"/><path fill="#FFF0B8" stroke="#AFD25A" stroke-width=".25" d="M179.6 76.5c.3.1.9 0 1.2-.1.4-.1.7-.3 1.2-.5-.1 0-.1-.1-.1-.1h-1.5c-.3 0-.5.2-.7.3-.1.2-.4.5-.1.4"/><path fill="#AFD25A" stroke="#AFD25A" stroke-width=".25" d="M176.7 76.5h2.2c.5 0 .6-.1.6-.1s.1.3 0 .3c-.1-.1-.4-.1-.4-.1h-2.4v-.1z"/><path fill="none" stroke="#AFD25A" stroke-width=".25" d="M181.5 76.1s-.6 0-1 .2c-.5.1-.8.2-.8.2-.1.1.2.2.5.3.3.1 1.3.2 1.4.2"/><path fill="none" stroke="#AFD25A" stroke-width=".25" d="M181.7 75.9s-.6.1-.9.2c-.3 0-.6.1-.8.2-.2.1-.4.1-.4.2-.1.1 0 .2.2.3.2.1 1 .2 1.3.3.3 0 .6.1.7.1.1 0 .1.1.1.1"/><path fill="none" stroke="#AFD25A" stroke-width=".25" d="M181.6 75.9s-.7.1-1 .2c-.3 0-.8.1-.9.2-.1.1-.1.2-.1.2s.1.2.5.3c.4.1 1 .1 1.2.2.2 0 .4.1.4.1"/><circle cx="181.4" cy="76.5" r=".1" fill="#AFD25A"/><ellipse cx="181.3" cy="76.4" fill="#AFD25A" rx=".2" ry=".1"/><path fill="#AFD25A" d="M181.3 76.8c-.1 0-.2 0-.2-.1 0 0 .1-.1.2-.1s.2 0 .2.1c-.1 0-.1.1-.2.1zm-.3-.2c-.1 0-.2 0-.2-.1 0 0 .1-.1.2-.1s.2 0 .2.1c0 0-.1.1-.2.1z"/><path fill="#ECB42A" d="M192.9 55.9l.9 4.3c0 .3 1.1.5 2.5.5s2.5-.2 2.5-.5l.9-4.3h-6.8z"/><ellipse cx="196.4" cy="55.9" fill="#6C5635" rx="3.4" ry=".5"/><path fill="#AFD25A" stroke="#AFD25A" stroke-width="4" d="M200.1 109.2c1.2 2.5-21.4-1.6-20.2 6.2 1.9 13.1 24.2 8.5 32.4 7.3.6-3.2-7.1-13.2-10.3-13.3"/><path fill="#FFF" stroke="#BEE6F3" stroke-width=".25" d="M200.4 108.8c1.2 2.5-21.4-1.6-20.2 6.2 1.9 13.1 24.1 8.5 32.9 7.3 0-3.6-7.6-13.2-10.8-13.3"/><path fill="#D6E8F7" d="M207.6 112.5s-14.2-4-12.7 2.8c.8 3.6 5.7 4.1 9.4 4 3.7-.1 8.3-1.3 8.3-1.3l-5-5.5z"/><g stroke-width=".25"><path fill="#F2F2EF" stroke="#CCCBCB" d="M198.5 117.4s.3.1 2.8.3c2.5.2 8.2.3 8.4-.4.2-.7-1.4-16.3-1.2-20.5.2-4.2.4-7.8.4-7.8l-8.9-1.4s1 9 .3 12.9c-.7 3.9-2.2 8.1-2.5 10.6-.3 2.9.7 6.3.7 6.3"/><path fill="#FFFFFB" stroke="#C8C8C8" d="M216.2 87.6l.4-5.9s-9.9 1.9-14.7 2.2c-4.8.3-9.9-.3-11.5-1-1.6-.7-3.9-3.4-3.9-3.4s2.2 4.4 4.8 6c2.7 1.6 4 2.5 9.2 3.1 5.3.5 9.4.4 11.7.3 2.4-.2 4-1.3 4-1.3z"/><path fill="#F2F2EF" stroke="#CCCBCB" d="M186.5 79.5s1.1 4.8 10.6 4.7c9.5-.1 17-1.9 17-1.9l2.4-.6-11.5-7.1s-13 .3-14.9.9c-1.3.4-2.1 1-3.1 1.9-.8.7-.5 2.1-.5 2.1z"/><path fill="#E4E4E2" stroke="#CCCBCB" d="M203.7 76.2s-11.2 0-12.9 1.1c-1.5 1-1.7 2.4-.4 3.7 1.3 1.3 6.1 1.9 11.9 1.5 5.7-.4 9.5-1.3 9.5-1.3l-8.1-5z"/></g><path fill="#050505" d="M199.7 88.5c.9-.1 3.1.2 3.4 1 .4.9-.4 3.1-.6 4-.7 2.6-1.1 5.5-1.4 8.3-.3 2.5-.5 5.4-.3 7.9.1 1.4.6 2.7.7 4.1.2 1.7 1 2.7 1.9 4-1 .3-2.8 0-3.9-.2-1.2-.2-1.1-.1-1.4-1.2-.2-.7-.3-1.5-.4-2.2-.2-2.9.6-5.6 1.4-8.4 1.6-5.4 2.2-11.1.9-16.7m-9.1-11.3s4.1 3.3 5.7 4c1.7.7 3.4 1 4.6.7 1.2-.3 2.5-6.4 2.5-6.4s-10.8.1-11.9.6l-1.1.5.2.6z" opacity=".03"/><path fill="#83807F" d="M208 77.9l-.1.1s.4.3.9.4c.4.1.8.1 1.2 0 .4 0 .8-.2.8-.2V78s-1.1.3-1.4.2c-.2-.1-1-.2-1.1-.2-.2 0-.3-.1-.3-.1z"/><path fill="#A7A4A4" d="M203.6 69.2l-.1.2s.6.1.8.2c.2.1.4 0 .4 0v-.2l-.6-.2c-.1.1-.5 0-.5 0z"/><path fill="#C7C2BF" d="M203.5 69.1s-.1.1.6.1c.7.1.8.1.8.1s.2-1.1.3-1.5c.2-.4.7-1.1 1-1.3.3-.2.8-.4 1.2-.3.3.2.6.2.9.9.4.6.3 1 .4 1.4V74s-.2 0 .4.1c.6.1.8 0 .8 0l.1-.1c0 .3 0-5.4-.1-6.1-.1-.4-.5-1.5-.9-2s-1.7-.9-2.2-.9c-.8.1-1.9.8-2.4 1.6 0 0-.6.9-.7 1.3-.2.5-.3.8-.3.8l-.1.4h.2z"/><path fill="#A7A4A4" d="M208.6 74.2s.2.1.5.1h.8c.1 0 .1 0 .2-.1s0-.2 0-.2h-.1s-.1.1-.2.1h-.8c-.2 0-.2-.1-.2-.1s-.1 0-.1.1c-.1 0-.1 0-.1.1z"/><path fill="#050505" d="M207.9 78s.6.3.9.3h1.2c.4 0 .6-.1.6-.1V78s0-.2.1 0c0 .2.1.2 0 .3-.1.1-.9.3-1.3.3s-.8-.1-1.1-.1c-.3-.1-.5-.2-.5-.2s-.1-.1.1-.3z" opacity=".49"/><path fill="#C7C2BF" d="M211.8 75.5s-.5.3-.6.7c-.1.3-.1.7-.1.9.1.2.1.3.3.4.2.1.3 0 .3 0h.1l-.2.1-1.1-.1s.1 0 .1.2.1.2.1.2l-.1.1-.6.2h-1.3c-.2 0-.7-.2-.7-.2l-.1-.1v-.3c0-.1.2-.3.3-.4.1-.1.1-1.6.1-1.6l.1-.9s0-.2.1-.3c.1-.1.2-.1.2-.1s.4.1.7.1h.7l.2-.1s.1 0 .2.1c0 0 .1.1.1.3v.6s-.1 0 0 .1.5.1.7.1c0-.1.5 0 .5 0zm1.6-1.7v-.1s.1-.1.2-.1v-.2s-.1-.1 0-.2.2-.1.2-.1c.1 0 .2.1.2.2v.4l.1.1v.1h-.3c-.2-.1-.3-.1-.4-.1z"/><path fill="#C7C2BF" d="M213.3 76.5s.1.1.2.1h.4v-.7c0-.2.1-.6.1-.7 0-.1.1-.5.1-.7 0-.2-.1-.4-.1-.5 0-.1-.1-.2-.1-.2h-.6s-.2.3-.2.5 0 .3.1.5c.1.3.1.6.1.7v.8c.1 0 0 .2 0 .2z"/><path fill="none" d="M213.7 73.2s.1 0 0 0c.1.1.1.3.1.3h-.1v-.3z"/><path fill="#050505" d="M213.7 74s0 .2-.1.5v2.1h.1v-2.1c.1-.1.1-.5 0-.5zm0-.7c0-.1.1-.2.1 0 0 .1 0 .2-.1.3-.1 0 0-.3 0-.3" opacity=".79"/><path fill="#050505" d="M214 76.6s-.1-.7-.1-.9c0-.1 0-.3.1-.4 0-.1.1-.9.1-1 0-.1-.1-.2-.1-.3 0-.1-.1-.2-.1-.2l-.1-.1h.2s.1.3.2.5v.6c0 .1-.1.5-.2.7v1.1zm-.6-2.8c.1 0-.1.4-.1.5 0 .1.1.8.1.9v1.2c0 .1-.1.2-.1.2h-.1s.1-.7.1-.9c0-.2-.1-.4-.1-.5 0-.1-.1-.6-.1-.6v-.4c.2-.2.3-.4.3-.4z" opacity=".28"/><path fill="none" d="M213.1 77c0 .2.6.2.7.2 0 0-.1 0-.1.1v.1s-.1 0-.1-.1h-.1c-.3 0-.5-.1-.4-.3"/><path fill="none" d="M213.2 77.2c.1 0 .1.1.2.1h.2c.2 0 .3 0 .4-.1-.2.4-.8.3-.8 0"/><path fill="#B6B2B1" d="M211.8 75.5s.3.1.4.1c.1 0 .3.3.4.4.1.1.3.2.3.2l.1.2h.3s.7 0 .7.2c.1.2.2.3.2.4 0 .1-.1.3-.3.4-.2.1-.2.2-.4.1-.2 0-.4-.2-.4-.2h-.2s-.1.1-.2.1h-.2l-.3.1s-.1 0-.2.1h-.3c-.1 0-.3.1-.4 0 0-.1-.2-.2-.2-.3v-.5c0-.1 0-.3.1-.6s.2-.3.3-.4l.3-.3z"/><path fill="#050505" d="M211.4 76.2c.1.1.2.1.3.2.1 0 .2.1.3.1.1 0 .2 0 .3.1.1 0 .3.1.3.1-.1.1-.3 0-.4 0-.1 0-.3 0-.4-.1-.1 0-.3-.1-.4-.1.1-.1 0-.2 0-.3-.1 0 .1 0 0 0m-.2.7c0 .1.1.1.2.2s.1.1.2.1h.9c.1 0 .3-.1.4-.1 0 0-.1 0-.2.1h-.3c-.2 0-.4 0-.5.1h-.2c-.1 0-.1 0-.2-.1l-.2-.2c-.1 0-.1-.1-.1-.1" opacity=".79"/><path fill="#FFF" d="M213.3 76.8c0 .1.2.2.3.2h.6c0 .1-.2.1-.3.1h-.6c-.1 0-.2-.1-.2-.2s.2-.2.2-.1m-.4-.6c-.1 0-.2.1-.2.1-.1.1-.1.2-.2.3 0-.1 0-.2.1-.3.1 0 .2-.1.3-.1m.3.3c-.1.1-.1.2-.2.3v-.2c.2 0 .3-.1.2-.1 0-.1 0 0 0 0" opacity=".7"/><path fill="#050505" d="M212.5 76.7v.4c.1 0 .1-.1.1-.2s-.1-.2-.1-.2m.4-.5c-.2 0-.3.3-.3.4-.2-.1.1-.4.3-.4m-1-.7c-.2 0-.3.2-.4.3-.1.1-.2.3-.3.4-.1.3-.1.9.2 1.1 0 0 .1 0 .1.1h.1c-.2.1-.5 0-.6-.3 0-.1-.1-.2-.1-.3v-.3c0-.1 0-.2.1-.3 0-.1.1-.2.1-.3 0 0 .1-.1.1-.2 0 0 .1-.1.2-.1.3 0 .4-.1.5-.1" opacity=".79"/><path fill="#050505" d="M210.3 75.5c-.1 0-.1 0 0 0-.1 0 0-.1-.1-.1s-.2.1-.2.2c.2.1.5.2.7.2.2 0 .5.1.7.1.1-.1-.4-.2-.5-.2-.3-.1-.5-.1-.6-.2" opacity=".28"/><path fill="#050505" d="M209.3 74.7v1.1l.2-.1s.2 0 .2-.1l.1-.1-.2.1v-.8h-.3z" opacity=".49"/><path fill="#050505" d="M209.2 77v1.6h.2l.1-.2v-.9l-.3-.5zm1.3.5s.2.1.2.2v.5l.1.1.1-.1-.1-.2v-.1l-.1-.4h-.2z" opacity=".79"/><path fill="none" d="M210.2 74.3s.1.2.1.3c0 .1.1.6.1.6s0-.6-.1-.7c.1-.1-.1-.3-.1-.2z"/><path fill="#050505" d="M207.8 78.1s0 .1.1.2c.1 0 .3.2.3.2s.2-.3.2-.6c0-.2.2-.5.2-.7 0-.2-.1-1.4 0-1.6.1-.3-.1-.8.1-.9.1-.1.3-.2.3-.2l-.3-.1s-.2.1-.2.3c0 .2-.1 1.4-.1 1.5 0 .1-.1.9-.1.9v.3c0 .1-.2.3-.2.3v.3l-.3.1z" opacity=".49"/><path fill="none" d="M209.8 74.8v.3c0 .1.1.3.2.2-.2 0-.1-.6-.2-.7v.2"/><path fill="#050505" d="M209.2 74.5c-.3 0-.2.6-.2.8 0 .3 0 .5-.1.8.1 0 .3-.2.4-.2.1-.1.3-.1.4-.2.1-.1.3-.2.4-.3.1-.1.3-.1.4-.2-.1-.2-.5.1-.6.2-.2.1-.3.3-.6.3v-1c.1 0 .4 0 .2-.1-.1-.1-.4-.1-.4 0" opacity=".79"/><path fill="#050505" d="M209.9 74.4c.1 0 .2-.1.3 0v.2c0 .1 0 .1.1.2 0 .2.1.4-.1.5-.1 0-.2.1-.3 0V75c0-.2-.2-.5 0-.6z" opacity=".49"/><path fill="#050505" d="M211.7 75.6c-.2 0-.5-.1-.7-.2-.1 0-.2-.1-.4-.1h-.2c-.1-.1 0-.1.1 0 .3.1.5.1.8.2h.4c.1 0 .2.1 0 .1" opacity=".79"/><path fill="#050505" d="M210 77.3c-.1-.1-.1-.1 0 0 .1-.1.3 0 .5-.1 0-.1-.4-.1-.5-.1h-.3c-.1.1.2.1.2.2-.2-.1-.4-.1-.5-.2.1.1.3.1.4.2.1 0 .3.1.4.1l-.2-.1" opacity=".25"/><path fill="#050505" d="M210.2 77.7c.1.1.3 0 .4-.1 0 .2-.3.1-.4.1" opacity=".79"/><path fill="#FFF" d="M209.6 77.6c0-.1.4 0 .5 0 .2 0 0-.1.1-.2s.2-.1.2 0c-.1.1-.2 0-.2.2 0 .1.1.2.1.3 0 .1 0 .6-.2.5V78c0-.1-.1-.3 0-.4-.1 0-.2.1-.3.1-.1.1-.4.1-.2-.1" opacity=".7"/><path fill="#FFF" d="M209 75.3c0 .1 0 .3-.1.4 0 .1-.1.3 0 .4 0-.1.2-.2.2-.2h.1c.1 0 .1-.1.2-.1.2-.1.4-.2.6 0 .1.1 0 .2 0 .3v.6c0 .1.1.2.1.3-.3.1-.5-.2-.7-.3 0 0-.3-.3-.3-.2-.1 0 0 .3 0 .3 0 .2 0 .4-.1.7v.6c0 .1 0 .4-.1.4-.1.1-.2 0-.3 0-.1 0-.2 0-.2-.2 0-.1.1-.2.1-.3.1-.1.1-.2.1-.3 0-.1 0-.2.1-.4v-.7c0-.2.1-.4.1-.7v-.6c0-.2-.1-.5 0-.7 0-.1.1-.1.1-.1l.1-.1s.3-.1.3 0c0 0-.1 0-.1.1l-.1.1c-.1.3-.1.5-.1.7z" opacity=".52"/><path fill="#FFF" d="M209.7 74.8c-.2.1-.2.2-.1.3 0 .1 0 .3.1.3s.1 0 .2-.1v-.2c-.1-.1-.1-.3-.2-.3" opacity=".52"/><path fill="#050505" d="M211.1 76.3c-.3-.1-.6-.1-.9-.1h-.4c-.1 0-.3-.1-.4 0-.1.1.2.2.3.2h1c.1 0 .2 0 .4-.1" opacity=".25"/><path fill="#FFF" d="M211 76.6c0 .1 0 .4.1.4 0-.1.1-.2.1-.3-.1-.1-.1-.1-.2-.1.1-.2.2-.2.2-.3.1-.1.1-.3.2-.4.1-.1.3-.2.3-.3-.2 0-.3.3-.4.4-.2.2-.3.4-.3.6" opacity=".7"/><path fill="#050505" d="M203.6 69.2l-.2-.2s.4-1.3.7-1.9c.2-.3.4-.6.6-.8.1-.2.2-.3.3-.4.1-.1.1-.2.2-.2.1-.1.6-.4.8-.5h.1c.1 0 .5-.3.6-.2h.5s-.4.1-.6.1c-1.8.6-2.7 2.8-2.7 3-.1.2-.3 1.1-.3 1.1m1.3.2l.2-1c.1-.4.6-1.3.8-1.5.1-.1.3-.4.7-.5.1-.1.2-.1.4-.1h.2c.2 0 .5.1.7.2.3.1.5.3.7.5.2.2.5 2 .5 2v5.1s-.1-.1-.2 0 0 .2 0 .2-.1.2-.2.2c0 .1-.2 1.9-.2 1.9s-.1.8-.1.9c0 .1-.2.3-.2.5s-.1.1-.1.1v-.3c.1-.1.2-.5.3-.6 0-.2.2-2.2.2-2.3 0-.1.2-.4.2-.4V74l.1-.2v-5s0-1.2-.5-1.9c-.5-.6-1-.7-1-.7s-.9 0-1.2.4c-.3.3-.8 1.1-.8 1.2 0 .1-.2.9-.3 1-.2.1-.2.6-.2.6zm4.4 5l.1-.3h.1v.2z" opacity=".79"/><path fill="#050505" d="M208.7 66.6s.2.2.4.6c.2.5.2.8.3 1V74h-.1s.2-6 0-6.3c-.2-.2-.6-1.1-.6-1.1z" opacity=".79"/><path fill="#FFF" d="M208.9 67.5l.1 1.1.1 5.4.1.1s0-5.7-.1-6c0-.3-.2-.6-.2-.6zm-4.3 1.7c0-.1-.1-.3.1-.8.2-.4.4-1 .4-1 0-.1.3-.5.3-.5-.1 0-.7 1.1-.8 1.4-.1.3-.2.8-.2.8v.3h.2v-.2l.2-.1" opacity=".7"/><ellipse cx="214.1" cy="77" fill="#050505" rx=".1" ry=".3"/><ellipse cx="214.1" cy="77" fill="#B6B2B1" rx=".1" ry=".3"/><ellipse cx="214.2" cy="77" fill="#FFF" opacity=".7" rx=".1" ry=".2"/><path fill="#050505" d="M214 76.6c0 .1.1.1.2.2 0-.1-.1-.3-.2-.2 0-.1 0-.1 0 0" opacity=".36"/><path fill="#FFF" d="M211.4 76.3c.7 0 1.4.5 2.1.5-.6-.3-1.1-.9-1.7-1.1-.5-.2-1.5 0-1.9-.4-.1-.1 0-.8-.4-.4-.2.1-.1.7.1.9.3.4 1.4.6 1.9.7" opacity=".52"/><path fill="#050505" d="M203.8 69.2l.3.2s.3-1.5.5-2c.3-.4.9-1.5 1.3-1.7.3-.1 1.4-.4 1.7-.3.6.2 1.4.8 1.6 1.2.1.1.3.7.3 1.5.1 2.2 0 5.9 0 5.9l.3-.2s-.2-5.9-.2-6.1c0-.2-.6-1.8-1-2.1-.3-.3-1.7-.6-2.2-.5-.5.2-1.6.6-2.4 2.5 0 .6-.2 1.6-.2 1.6z" opacity=".4"/><path fill="#FFF0B8" stroke="#AFD25A" stroke-width=".25" d="M188.3 116c-.4.2-1-.2-1.3-.5-.2-.2-.3-.3-.3-.6s.2-.5.4-.2.1.4.5.4c.2 0 .4-.1.6 0 .5.1 1.1.5 1.6.8.8.6 1.1 1.8.8 2.7-.2.6-.6.8-.9 1.1-.3.3-.9.8-.5 1.2-.5.5-.9-.5-.8-1 .1-.3.3-.4.5-.6.3-.2.4-.4.5-.7.2-.5.2-1.1-.1-1.6-.3-.5-.8-1.1-1.3-1"/><path fill="#FFF0B8" stroke="#AFD25A" stroke-width=".25" d="M190.1 117.1c-.3.2-1 .3-1.4.2-.6-.2-1.1-.6-1.7-.8 0-.1.1-.3 0-.4.2-.1.6-.1.8-.1.3-.1.6-.3.9-.3.3 0 .8.4 1 .6.2.1.8.8.4.8"/><path fill="#FFF0B8" stroke="#AFD25A" stroke-width=".25" d="M190.1 117.1c-.4 0-1 .3-1.2.6-.3.5-.5 1.1-.9 1.6.1.1.2.2.2.3.2 0 .5-.2.7-.3.3-.1.6-.1.9-.2.3-.1.4-.7.5-1.1.1-.3.1-1.1-.2-.9"/><path fill="#AFD25A" stroke="#AFD25A" stroke-width=".25" d="M193.3 116.3s-2.3.7-2.4.7c-.5.2-.6.3-.6.3s-.3-.8-.2-.7c.2.2.5.1.5.1l2.6-.7s.1.1.1.3z"/><path fill="none" stroke="#AFD25A" stroke-width=".25" d="M188.5 118.9s.6-.3 1-.7c.4-.4.7-.7.7-.9 0-.2-.4-.5-.8-.6-.4-.1-1.6-.1-1.7-.1"/><path fill="none" stroke="#AFD25A" stroke-width=".25" d="M188.3 119.3s.6-.5.9-.7c.3-.2.6-.4.8-.6.1-.2.3-.4.3-.6 0-.2-.1-.4-.4-.6-.3-.2-1.3-.3-1.6-.3-.3 0-.7.1-.8 0-.1 0-.1-.1-.1-.1"/><path fill="none" stroke="#AFD25A" stroke-width=".25" d="M188.5 119.3s.7-.5 1-.7c.3-.2.7-.6.8-.9v-.6s-.3-.6-.8-.7c-.5-.1-1.2-.1-1.4-.1-.2 0-.5-.1-.5-.1"/><circle cx="188.1" cy="117.6" r=".2" fill="#AFD25A" transform="rotate(-108.167 188.12 117.638)"/><circle cx="188.4" cy="118.1" r=".2" fill="#AFD25A" transform="rotate(-108.21 188.438 118.056)"/><circle cx="188.2" cy="117.2" r=".2" fill="#AFD25A" transform="rotate(-108.223 188.192 117.236)"/><circle cx="188.6" cy="117.6" r=".2" fill="#AFD25A" transform="rotate(-108.264 188.586 117.595)"/><path fill="#FFF0B8" stroke="#AFD25A" stroke-width=".25" d="M191.7 111.4c-.3-.1-.4-.5-.5-.7 0-.2-.1-.3.1-.4.1-.2.3-.1.3.1s-.1.2.1.4c.1.1.2.1.3.2.2.2.4.6.5 1 .1.6-.2 1.3-.6 1.7-.3.2-.6.2-.9.2-.3 0-.7 0-.7.4-.4.1-.3-.6 0-.7.2-.1.3-.1.5-.1s.3-.1.5-.2c.3-.2.5-.4.6-.8 0-.3 0-.9-.3-1"/><path fill="#FFF0B8" stroke="#AFD25A" stroke-width=".25" d="M192.2 112.6c-.2 0-.6-.2-.8-.4-.2-.3-.3-.7-.5-1 .1 0 .1-.1.1-.2.2 0 .3.2.4.2.2.1.4.1.5.2.2.1.2.5.3.7.1.1.2.6 0 .5"/><path fill="#FFF0B8" stroke="#AFD25A" stroke-width=".25" d="M192.2 112.6c-.2-.2-.6-.2-.8-.1-.4.1-.7.3-1 .5v.2c.1.1.3.1.5.1s.3.2.5.2.5-.2.6-.4c.1-.1.4-.5.2-.5"/><path fill="#AFD25A" stroke="#AFD25A" stroke-width=".25" d="M194.1 113.3l-1.4-.5c-.3-.1-.4-.1-.4-.1s.1-.5.1-.4c0 .2.2.2.2.2l1.6.6c-.1.1-.1.1-.1.2z"/><path fill="none" stroke="#AFD25A" stroke-width=".25" d="M190.7 112.9s.4.1.8 0 .6-.1.7-.2c.1-.1 0-.4-.2-.6-.2-.2-.8-.6-.8-.6"/><path fill="none" stroke="#AFD25A" stroke-width=".25" d="M190.5 113h1.3c.1-.1.3-.1.4-.2.1-.1.1-.2 0-.4s-.5-.6-.7-.7c-.2-.1-.4-.2-.4-.3v-.1"/><path fill="none" stroke="#AFD25A" stroke-width=".25" d="M190.6 113.1h.8c.2 0 .6 0 .7-.2.1-.1.2-.3.2-.3s.1-.4-.1-.6c-.2-.2-.6-.5-.7-.6l-.2-.2"/><circle cx="191" cy="112.1" r=".1" fill="#AFD25A" transform="rotate(-70.713 190.986 112.125)"/><circle cx="191" cy="112.4" r=".1" fill="#AFD25A" transform="rotate(-70.61 190.993 112.44)"/><circle cx="191.2" cy="111.9" r=".1" fill="#AFD25A" transform="rotate(-71.313 191.17 111.938)"/><circle cx="191.2" cy="112.3" r=".1" fill="#AFD25A" transform="rotate(-70.683 191.25 112.266)"/><path fill="#FFF0B8" stroke="#AFD25A" stroke-width=".25" d="M193.3 120.3c-.2.2-.6.1-.9.1-.2 0-.3-.1-.3-.3-.1-.2 0-.3.2-.2.2.1.2.2.4.1.1-.1.2-.1.3-.2.3-.1.8 0 1.1.1.6.2 1.1.7 1.2 1.3.1.4-.1.6-.2.9-.1.2-.3.7 0 .8-.1.4-.7 0-.7-.3 0-.2 0-.3.1-.5s.1-.3.1-.5c0-.3-.1-.7-.5-.9-.3-.2-.7-.4-1-.2"/><path fill="#FFF0B8" stroke="#AFD25A" stroke-width=".25" d="M194.6 120.4c-.1.2-.5.4-.7.5-.4 0-.8-.1-1.1 0 0-.1 0-.2-.1-.2.1-.1.3-.2.4-.3.1-.1.2-.3.4-.4.2-.1.5 0 .7.1.1 0 .6.3.4.3"/><path fill="#FFF0B8" stroke="#AFD25A" stroke-width=".25" d="M194.6 120.4c-.2.1-.5.4-.5.6-.1.4 0 .7-.1 1.1.1 0 .2.1.2.1.1-.1.2-.3.3-.4.1-.1.3-.2.4-.4.1-.1 0-.5 0-.7 0 0-.2-.5-.3-.3"/><path fill="#AFD25A" stroke="#AFD25A" stroke-width=".25" d="M196.2 119.2l-1.1 1-.3.3-.3-.3c.2 0 .3-.1.3-.1l1.3-1.1s0 .1.1.2z"/><path fill="none" stroke="#AFD25A" stroke-width=".25" d="M194.2 121.8s.2-.3.4-.7c.1-.4.2-.6.2-.7 0-.1-.3-.2-.6-.1-.2.1-.9.4-1 .4"/><path fill="none" stroke="#AFD25A" stroke-width=".25" d="M194.2 122.1l.3-.6.3-.6c0-.1.1-.3 0-.4-.1-.1-.2-.2-.4-.2s-.8.2-1 .2l-.4.2h-.1"/><path fill="none" stroke="#AFD25A" stroke-width=".25" d="M194.3 122.1s.2-.5.4-.7c.1-.2.3-.5.2-.7-.1-.2-.2-.3-.2-.3s-.3-.2-.6-.2c-.3.1-.7.3-.8.3-.1 0-.3.1-.3.1"/><circle cx="193.6" cy="121.2" r=".1" fill="#AFD25A" transform="rotate(-132.82 193.647 121.224)"/><circle cx="193.9" cy="121.4" r=".1" fill="#AFD25A" transform="rotate(-132.54 193.92 121.388)"/><path fill="#AFD25A" d="M193.5 120.9h.2v.2h-.2c-.1-.1-.1-.2 0-.2z"/><circle cx="193.9" cy="121.1" r=".1" fill="#AFD25A" transform="rotate(-132.885 193.893 121.088)"/><radialGradient id="m" cx="73.294" cy="-42.669" r="2.818" gradientTransform="matrix(1.575 0 0 1.54 -42.004 143.902)" gradientUnits="userSpaceOnUse"><stop offset="0" stop-color="#fff"/><stop offset=".309" stop-color="#fcfdfe"/><stop offset=".525" stop-color="#f3f6fb"/><stop offset=".712" stop-color="#e4ebf6"/><stop offset=".883" stop-color="#cedbef"/><stop offset="1" stop-color="#bacce9"/></radialGradient><path fill="url(#m)" d="M74.9 76.8c0-1.6-2.3-3.5-3.4-1.8-.5.9-.1 1.6-.5 2.4-.6 1-2.1.8-2.3 2.3.7.3 1.6.2 2.4.3-.8 2.4 1.9 3 3 .9-.8.8 1.2 1 2 .6.9-.5.2-1 .7-1.5.5-.5 1.1-.6 1.5-1.1-.2-.1-.4-.4-.8-.5 1.8-1.1-1.5-2.3-2.5-2.2"/><radialGradient id="n" cx="39.536" cy="22.28" r=".899" gradientTransform="matrix(3.0446 0 0 2.5522 -54.238 23.608)" gradientUnits="userSpaceOnUse"><stop offset="0" stop-color="#fff"/><stop offset=".309" stop-color="#fcfdfe"/><stop offset=".525" stop-color="#f3f6fb"/><stop offset=".712" stop-color="#e4ebf6"/><stop offset=".883" stop-color="#cedbef"/><stop offset="1" stop-color="#bacce9"/></radialGradient><path fill="url(#n)" d="M64.9 80.7s.4-.7 1.1-.2c.7.5 1.6.7 1.2 1.2-.4.4-1 1 .1 1.1 1.1.1 1.6-.9 1.5-1.7-.1-.8.1-1.2-1-2.1-1.1-.9-1.7-.7-2.2-.7-.5.1-1.3.3-1.6.9-.3.6-.7 1.3-.7 1.5.1.1 1.6 0 1.6 0z"/><path fill="#060606" d="M60.7 80.8c2-1.5 4.6-.2 5.2-2.5.7-2.5-4.3-3.1-7.6-.9-2.5 1.6 1.8 2.3.3 4.5-.6.9-3.3 2.2-3.1 3.1.3 1.3 3.1.5 3.9.2" opacity=".04"/><path fill="#DDDDDA" stroke="#F2F2EF" stroke-width=".25" d="M98.7 85.5c0 1.6-1.7 3.5-3.8 3.5H52.5c-2.1 0-2.9-1-2.9-2.6l.1-16.6c0-1.6.7-2.5 2.9-2.5h42.3c2.1 0 3.9 1.3 3.9 2.9l-.1 15.3z"/><path fill="#FDFBF5" stroke="#D8D8D7" stroke-width=".25" d="M52.2 89l-.4-22.4L7.6 99.9s2.1 24.7 3.6 24.7 41-35.6 41-35.6z"/><path fill="#BFB88F" stroke="#E7E3BE" stroke-width=".25" d="M52.2 89l22.5-.4-14.3 13.1H37.2z"/><path fill="#FDFBF5" stroke="#D1D1D1" stroke-width=".25" d="M101.5 89.5l-.4-22.7-40.6 34.3s-1.5 24.1 0 24.1 41-35.7 41-35.7z"/><path fill="#F4EED0" stroke="#E7E3BE" stroke-width=".25" d="M7.6 99.9h5l39.5-29.3 3.9-3.4s-2.7-1.7-4.2-.6-45.5 32.8-46 33.3 1.8 0 1.8 0z"/><path fill="#E8E7E7" stroke="#959595" stroke-width=".25" d="M51.8 66.6s49.3-1.1 49.3.9-3.2.7-3.2.7H49.6l2.2-1.6z"/><path fill="#FDFBF5" stroke="#DDDDDC" stroke-width=".25" d="M54.7 80.4L54 32.5l-13 5.8s0 22.7-1.1 27.5c-1.1 4.8-6.7 10.3-8.8 11.7C29 78.9 10.4 94.2 9 94.6c-1.4.3 0 21.2 0 21.2l45.7-35.4z"/><path fill="#E8E7E7" stroke="#D5D5D5" stroke-width=".25" d="M54 32.5h-4.4l-12.3 5.7h-.1v.1l-.4.2h.4c.3 2.2 2.2 20.2-1.7 29.3-4 9.6-31.3 26.8-31.3 26.8H9s24.9-18 30.4-25.3c2.8-3.8 1.5-30.9 1.5-30.9L54 32.5z"/><radialGradient id="o" cx="48.987" cy="47.667" r="14.756" gradientTransform="matrix(1.7208 0 0 1.6825 -30.27 7.852)" gradientUnits="userSpaceOnUse"><stop offset="0" stop-color="#fff"/><stop offset=".309" stop-color="#fcfdfe"/><stop offset=".525" stop-color="#f3f6fb"/><stop offset=".712" stop-color="#e4ebf6"/><stop offset=".883" stop-color="#cedbef"/><stop offset="1" stop-color="#bacce9"/></radialGradient><path fill="url(#o)" d="M52.6 76.8c5.6 4.3 11.9 2.6 18.1 1 2.9-.8 16.8-5.8 16.2-.8-6.5 2-7.7 6.7-12.2 11.6-5.1 5.5-9.4 6.6-14.7 11.5-4.7 4.4-5.3 0-22.8-.8-5.8-.3-10.3.5-16.1-.3 11.1-8.3 19.5-15 30-25-.1 2 .3 2.6 2.4 3.2" opacity=".66"/><path fill="#89C0E8" d="M46.4 85.4c-1.2 4.7.2 3.2 2.7 5.7 0 .7 0 1.4.2 2.1.7.4 2.6.7 3.1 1.1 1.4 1.1 3-.8 3.3 2.1 3.5.5 6.3-.6 9.7-1.2-3.1.5-6.4-1.1-9.4-1.8-1.6-.4-3.4-.2-4.8-.9-1.5-.7-.2-2.8-3.1-2.9-.6-2.7.9-5.2-1.2-7.6-1 1.1-1.3 2.7-.9 4.3" opacity=".21"/><path fill="#89C0E8" d="M44.3 94.3c-.6 3.3 2.4 3 4.8 2.2.7 3 11.9 2.5 15.1 1.4-3.1-.2-6.3-.1-9.4-.1-3.9 0-7.6-2.9-10.9-2.2m-1-7.5c-.3 2.2.5 4.4.4 6.3-2.6-1.2-2.7-7.1-.2-8.5.3 1-.2 1.6-.7 2.6" opacity=".21"/><path fill="#B7DFF6" d="M47.7 79.1c.6.7 1.4 1.9 1.4 2.8 0 1.2-1.7 1.6-1.7 2.2.3 2.9 2.2 2.9 5.2 3.4-.1 1.9 1.4 3.5 3.6 3.4 2.9-.2 1.5-2 3.9-3.2.8 2.2 2.2.8 3.7 1.8 1.2.8.7 3.3 3.3 2.8.6-.1 2.7-2.7 3.2-3.2 1.3-1.2 3.5-.2 2-3.4 4.1-1.4 2.9 2.6 1 4.2-2.1 1.8-4.8 3.1-7 4.9-1.7 1.5-4.2 5.1-6.7 5.3-1.8.1-5.2-1.6-7.5-1.7-9.7-.3-19.2 0-28.8-.4 3.9-3.2 8.9-6.8 13-9.7 4.1-2.9 6-5.1 10.7-8.8"/><radialGradient id="p" cx="56.481" cy="43.525" r="9.287" gradientTransform="matrix(1.7208 0 0 1.6825 -30.27 7.852)" gradientUnits="userSpaceOnUse"><stop offset="0" stop-color="#fff"/><stop offset=".309" stop-color="#fcfdfe"/><stop offset=".525" stop-color="#f3f6fb"/><stop offset=".712" stop-color="#e4ebf6"/><stop offset=".883" stop-color="#cedbef"/><stop offset="1" stop-color="#bacce9"/></radialGradient><path fill="url(#p)" d="M84.7 77.2c2-1.3 1.3-3.6-1.2-3.6-.2.6-.8 1.1-.8 2-1-2.4-5.5-3.7-5.4 0-2.2-.7-5-1.8-5.2 1.5-.3-4.3-5.7-.4-5.1 2.6-2-.8-6.5-1.1-7.6 1.3 1.6-1.1 2.4-2.8 1.3-4.4-1.2.4-2 .7-2.6 2 .8-1.3 2.1-2.3 2.7-3.7.5-1.5-.8-1.9.2-3.3-1.3-.6-2.4.3-3.6 0-1.9-.4-3-2.4-4.9-.7-1.7 1.5-.9 6.6-.1 7.6-2.8-3.9-5.4 6-5.1 7.9.3 2.3 1.6 4.3 4 4.7 3.6.5 2.9-2 5.4-2.8-.1.6.2 1.3-.1 2 .7-.4 2.2-.3 2.9-.6 1.2 3.4 6.1 3.9 7 0 3.4.7 5.9.4 5.4-3.9.5 1.6 2.7 2.5 4.3 2 2.2-.7 2.2-2.4 2.3-4.5 1.8 1.1 3.6.2 3.5-2-.4-.2-.8-.3-1.2-.4.4-.3 1.4-1.8 2-2.2-.3-.3-.6-.7-.9-1.1 1.7 1.2 3.8 1.3 4.5-1.2"/><path fill="#EBBB8C" d="M69 71.6s2.1 1.3 2.1 2.1-.6 2.5-.6 2.5L69 71.6zm4.1-4.7s.6-.5.9-.2c.3.2.5.8.5 1.1 0 .3-.7 1.1-.8 1.1h-.6v-2z"/><path fill="#EBBB8C" d="M63.1 72s-2.3 5.1-2.3 5.5c0 .4 3.5.8 4.6.8 1 0 5.4.1 5.6-.1.2-.2-1.4-4.7-1.6-5.3-.2-.6-.5-1.3-.4-1.3.1-.1-2.3.3-3 .3-.8-.1-2.9.1-2.9.1z"/><path fill="#EBBB8C" d="M57.2 68.3s-.1 2.1.2 2.4c.4.3 1.9 1.4 5 1.4 3.2 0 5-.2 6.2-.2 1.2 0 2-.4 2.7-.8.8-.3 1.4-1.1 1.5-1.7.2-.5.3-1.2.2-1.4-.2-.2.7-2 .7-2.3 0-1.9-6.7-1.4-8.7-1.4-2 0-7.3 1.6-7.6 1.9-.2.2-.2 2.1-.2 2.1z"/><linearGradient id="q" x1="56.46" x2="73.815" y1="63.68" y2="63.68" gradientUnits="userSpaceOnUse"><stop offset="0" stop-color="#040507"/><stop offset=".419" stop-color="#070a1a"/><stop offset="1" stop-color="#0b143a"/></linearGradient><path fill="url(#q)" d="M59.2 67.7c1.9-.7 4.5-3 5.4-2 .9 1 1.2.6 1.2.6s1.4-1.8 2.5-1c4.6 3.1 5.3 2.1 5.5.8.2-1.3-1.4-4.3-2.5-4.5-2.3-.5-2.8-1.6-3.5-1.6l-1.9-.7c-.8 0-4.5.4-5.2 1.1-.7.7-1.7 1.9-2.8 3.1-1.1 1.2-1.3 3.2-1.5 4.5 0 .6.9.3 2.8-.3z"/><path fill="#EBBB8C" d="M57.2 68.3s-.6-.5-.9-.2c-.3.2-.5.8-.5 1.1 0 .3.7 1.1.8 1.1h.6v-2z"/><linearGradient id="r" x1="67.922" x2="71.398" y1="69.457" y2="69.457" gradientUnits="userSpaceOnUse"><stop offset="0" stop-color="#ec0d74"/><stop offset="1" stop-color="#fff5cb"/></linearGradient><circle cx="69.7" cy="69.5" r="1.7" fill="url(#r)" opacity=".1"/><linearGradient id="s" x1="62.87" x2="59.404" y1="69.911" y2="69.911" gradientUnits="userSpaceOnUse"><stop offset="0" stop-color="#ec0d74"/><stop offset="1" stop-color="#fff5cb"/></linearGradient><circle cx="61.1" cy="69.9" r="1.7" fill="url(#s)" opacity=".1"/><path fill="#FBFCFA" d="M66.4 67.3c.1.2.6 1.6 1 1.7.4 0 1.9-.3 2.1-.3.4 0 1.9-.5 2.1-.5.2 0 1.2-.2 1.2-.2s.4-.9.3-1.4c-.1-.5-.3-1.5-1.1-1.9-.8-.5-1.5-.7-2.5-.8-1 0-3.3 1.5-3.8 1.5-.5-.1-1.1-.7-1.9-.7-.8-.1-1-.1-1.7-.1-.7.1-2.1.2-2.6.5s-1.1.6-1.4 1.1c-.3.5-.4.8-.5 1.2-.1.4-.1 1.2 0 1.2s1.7.3 2.8.4c1.1.1 3.4.4 3.7.3.4-.1 1.2-1.6 1.4-1.8.2-.2.3-.4.4-.3.2-.1.5.1.5.1z"/><ellipse cx="68.5" cy="66.5" fill="#010103" rx=".3" ry=".4"/><ellipse cx="62.4" cy="67" fill="#010103" rx=".3" ry=".4"/><linearGradient id="t" x1="60.386" x2="67.225" y1="57.759" y2="57.759" gradientUnits="userSpaceOnUse"><stop offset="0" stop-color="#040507"/><stop offset=".419" stop-color="#070a1a"/><stop offset="1" stop-color="#0b143a"/></linearGradient><path fill="url(#t)" d="M63 55.8l.3-.3 1.3.3s-.4.1-.4.4c0 .2.6.4.6.4s.3.1.3.3c0 .2.3.5 0 .5s-.5.2-.5.2v.4s1.5-.4 1.8-.4c.2 0 .2.3.2.3l-.7.3.4.4.4.3h.6v.1s-.2-.2-.4 0 0 .3 0 .3v.3s-2.2-.2-3-.1c-.8.1-2.7.7-2.8.6l-.4-.4c-.1-.1-.3-.3-.1-.3.2 0 .7.1.8 0 .1-.1-.2-.4-.2-.4s.4.1.6 0c.1-.1.1-.4.1-.4h-.5v-.4s.9.2.9 0v-.5s-.4.2-.4 0 .4-.3.6-.3h.7c.2 0 .5-.3.5-.3l-.4-.3-.3-.5h.4l.3-.3h-.3l-.4-.2z"/><path fill="#010103" d="M63.7 58.8v.7"/><path fill="none" d="M63.4 55.3l.3.1m-.5-.1l.3.2m-.3-.1l.3.2m-.2-.2l.3.1m-.4-.1l.3.1m-.4 0l.4.1m-.5 0l.4.1m-.4-.3l.4.3m-.5-.2l.4.2m-.4-.1l.4.2m-.3-.2l.3.1m-.3-.1l.3.1m-.3 0h.3m-.2.1h.2m-.2.1l.3-.1m-.2.2l.2-.1m-.1.2l.1-.2m0 .1v-.1m.1.1v-.2m.1.2l-.1-.1m0 .1l-.1-.1m0-.5l.2.1m-.4-.2l.3.2m-.3-.1l.3.2m-.2-.2l.3.1m-.4-.1l.3.1m-.4-.1l.4.2m-.5-.1l.3.1m-.3-.2l.4.3m-.5-.2l.4.2m-.3-.2l.4.2m-.4-.1l.2.1m-.2-.1l.3.1m-.3 0h.3m-.2.1h.2m-.2.1l.3-.1m.1.2v-.2m-.3.2l.2-.1m-.1.1l.2-.1m-.2.2l.2-.1m.1-.6v.2m.1-.2v.2m-.1-.3v.2m.1-.2v.3m0-.3v.2m.1-.1v.2m-.3-.2l.1.2m.3-.2l-.1.3m.1-.3v.4m0-.4v.2m.2-.2v.2m.1-.1v.3m-.2-.4v.3m.3-.2v.3m-.1-.3v.2m.2-.1l-.1.2m-.5-.1l-.2.2m.3-.1l-.2.1m.2-.4v.2m.2-.2l-.1.1m.2-.1l-.1.2m.1-.1v.1m.1-.1v.2m.1-.2v.2m-.2-.3v.3m.3-.2v.2m-.2-.1v.1m0-.1v.1m.2 0v.1m-.2 0l.1.1m-.1-.1l.1.1m-.6 0l.1.1m.4-.2l.2.2m-.2-.2l.1.2m0-.3l.1.2m-.2 0l.1.1m-.2-.1l.2.1m-.2-.1l.1.1m-.2-.6v.1m.1-.1v.2m.1-.1l-.1.1m.2-.1v.2m.1-.2v.2m-.2-.3l-.1.3m.1-.1v.2m0-.2v.1m.2 0h-.1m0-.1l-.1.1m.3 0l-.1.1m-.1 0h.1m-.1 0l.1.1m-.2-.1l.1.1m-.6 0l.1.1m.5-.2l.1.2m-.1-.2l.1.2m-.1-.3l.1.2m-.2 0l.1.1m-.2-.1l.2.1m-.9-.6l.3.2m-.5-.3l.3.2m-.4-.1l.4.2m-.2-.2l.4.2m-.5-.2l.3.2m-.4-.1l.4.1m-.4-.4l.4.4m-.1-.2l.3.1m-.5-.2l.3.2m-.2-.1l.4.1m-.5-.2l.3.2m-.5-.1l.4.1m.1-.3l.1.2m0-.2v.2m.1-.2v.2m-.1-.3v.3m.1-.1v.2m.1-.3v.3m-.3-.3l.1.2m.3-.1l-.1.2m.2-.2v.4m-.1-.4v.1m.2-.1v.2m.1-.2v.3m-.2-.4v.3m-.3-.1v.4m.6-.4v.2m-.5-.1l-.1.3m.1-.2l-.1.2m.3-.4l-.1.1m.1-.1v.2m.1-.2v.1m.1-.1l-.1.2m.2-.1l-.1.1m.2-.1l-.1.2m-.1-.2v.2m.1-.3l-.1.2m0 0v.1m.1-.1v.1m.1-.1v.1m0-.1l-.1.1m.2-.1v.2m-.1-.1l.1.1m-.3-.4l-.1.1m.2-.1l-.1.2m.1-.1v.1m.1-.1v.2m-.2-.2v.2m.1-.3v.2m0 0v.1m.1-.1l-.1.1m.2-.1l-.1.1m.1 0h-.1m0-.1l-.1.1m.4-.1l-.1.1m-.2 0l.1.1"/><path fill="#F7F8F9" d="M61.1 77.5s-.3 0-.3-.2c0-.1.9-1.3 1.1-1.7.3-.4.8-1.6 1-1.6.2 0-.7 1.6-.9 2.1-.3.4-.9 1.4-.9 1.4z" opacity=".21"/><path fill="#231F20" d="M69 71.7l.4 1.2s.1 0 .1-.1-.1-.4-.2-.6c-.2-.2-.3-.5-.3-.5z" opacity=".09"/><path fill="none" d="M63.8 55.4v.3m.1-.3l-.1.3m-.3-.4v.3m-.1-.3l.1.3m-.6.1l.3.1m-.4 0h.5m-.3.1l.3-.1m-.2.3l.2-.2m-.1.2l.3-.3m-.5.2l.3-.2m-.4.1l.4-.1m-.5.1l.5-.1m-.3.2l.2-.2m-.2.2l.3-.1m.2.2v-.2m.1 0l-.1.2m-.1-.1l.3.1m-.3 0h.2m-.1-.1l.1.1m0-.1v.1m3.2 4.4l.2-.2m-.7 2.1l-1 1.3"/><path fill="#F7F7F8" d="M70.7 62.9s-3.4-.7-4.1-.3c-.6.5-2.2.6-1.9.2.2-.4 3.3-.8 2.7-.9-7-.6-6.4-2 3.3 1zm-4.6-3c-.5.5-3.8.4-4.6.1" opacity=".09"/><path fill="#F7F7F8" d="M65.6 64.1c.5.1 1.2-.6 1.5-.9.4-.3.9-.7.8-1.3-.2.1-.3.5-.4.7-.2.3-.4.5-.6.7-.2.2-.4.4-.7.4-.2.2-.7.2-.6.4m-2.4-.1c-1 .1-2.5 0-3.3-.7.3.1.6.2.9.4.4.1.7.1 1.1.1h1.5l-.2.2m-6 3.2c-.1-.6.4-1.8.9-2.1 0 .5 0 .8-.2 1.2-.1.1-.3.3-.3.4-.1.2 0 .4-.1.6-.1 0-.2 0-.3-.1M73.3 65c-.6-.2-1.6-.9-1.8-1.5.5.2.8.2 1.1.6.1.1.2.3.3.4.2.1.4.1.5.3.1.1.1.2-.1.2" opacity=".09"/><path fill="none" stroke="#BC2478" stroke-width=".25" d="M57.2 69.4s3.2 1.3 8.7 1.1c4-.1 5.5-1.2 6.1-1.3.6-.2 1.2-.7 1.2-.7"/><path fill="#F7F7F8" d="M65.5 58.2c-.3.2-2.3.1-2.8-.1" opacity=".09"/><path fill="none" d="M64.4 56l.5-.2m-.4.2l.4-.1m-.6.2l.4-.1"/><path fill="none" stroke="#B0852D" stroke-width=".25" d="M65 69s.2-.5.8-.4c.6.1.7.4.7.4"/><path fill="#F7F8F9" d="M58.9 64.4s-.3 0-.3-.2c0-.1.9-1.3 1.1-1.7.3-.4.8-1.6 1-1.6.2 0-.7 1.6-.9 2.1-.2.4-.9 1.4-.9 1.4z" opacity=".21"/><path fill="#FAE100" d="M65.2 79.9s5.7-5.7 4.3-6.5c-1.5-.8-7.7 4.7-8.8 5.4-1.1.7-1.2 1-1.2 1s-.1 0 .3.3.7.6.7.6-.2.5.1.4c.3-.1.2-.2.6-.3.4-.1 1.1-.2 1.3-.1.3.2.6.2.9.2.4-.1.6-.3.6-.3l.9-.4.3-.3z"/><path fill="#CC2027" d="M63.4 80l-.3-1.9 2.5-1.5.9 1.2s-1.5 1.3-1.7 1.4c-.2.1-1.4.8-1.4.8zm2.3-3.8l-1.3-.8-2.7 1.5 1.5.9z"/><path fill="#9C8F33" d="M68.2 75.9c.4-.6.3-1.3.2-1.3-.2 0-.9-.8-.9-.8s-1-.1-1.2.3c-.2.3-.1 1-.1 1s1.6 1.5 2 .8z"/><path fill="#72662A" d="M66.8 75.1s.3 0 .5-.3c.3-.3.3-.9.1-.9-.2 0-.9-.2-1.1-.1-.2.2-.3.9-.3.9l.1.4h.7z"/><path fill="#3953A3" d="M62.7 80.8l-.2.7s.5.5 1.3.2 2.4-1.7 3.2-2.2c.8-.6 2-2.4 2.5-3 .5-.6.8-1.2.9-1.8.1-.5-.4-1.1-.5-1.3-.2-.1-.6 1.8-1.2 2.5s-2.7 2.9-3.1 3.3c-.4.4-1.2 1-1.8 1.2-.6.4-1.1.4-1.1.4z"/><path fill="#EBBB8C" d="M62.5 73.4L61 74.5l1.9 2.6s.7.1 1.1.3c.4.2.4.6-.1.7-.5.1-.8.1-.6.3.1.2-.1.3-.2.5-.2.2-.6 0-.6 0s-.2-.1-.3-.1c-.1.1-.4-.1-.4-.2 0-.2.1-.3-.2-.4-.3-.1-.3 0-.2-.3.1-.3-1.6-2.9-1.7-3.5-.1-.6.7-1.4.7-1.5 0-.1 1-.5 1.2-.6.2 0 1.2-.2 1.3-.2"/><path fill="#F2F2EF" stroke="#CCCBCB" stroke-width=".25" d="M9 99.9v-5.3H4.2v29.7l57.6.7.6-25.8z"/><path fill="#E8E7E7" stroke="#CECECD" stroke-width=".25" d="M96.8 67.4S64.1 95.4 61 97.6c-10.8-.3-49.2.2-49.2.2L9 99.4l53.3.7L101 67.2l-4.2.2z"/><path fill="#161615" stroke="#C3C3C1" d="M86.8 25.3c2.3 4-.8 10.3-.2 14.6.8 5.4.3 10.4.2 15.9-.1 4.2.5 8.4.5 12.6 0 3.4.1 9.4 1.7 12.4 1.1-2.1-.3-4.5-.9-6.6-.7-2.6-.2-5.2 0-7.7.5-5.1.5-10.1.5-15.2 0-5 .1-9.9-.4-14.8-.3-3.3 1.7-11.9-1.3-13.9-.5 1.7-.2 3.1.4 4.8m6.9-8.6c2.3 4-.8 10.3-.2 14.6.8 5.4.3 10.4.2 15.9-.1 4.2.5 8.4.4 12.6 0 3.4.1 9.4 1.7 12.4 1.1-2.1-.3-4.5-.9-6.6-.7-2.6-.2-5.2 0-7.7.5-5.1.5-10.1.5-15.2 0-5 .1-9.9-.4-14.8-.2-3.4 1.8-12-1.2-14-.5 1.7-.2 3.1.4 4.8" opacity=".08"/><path fill="#70BE44" stroke="#70BE44" stroke-width=".25" d="M86.3 13.9l1.2-1.3-.5-3.4s-.8 0-1.4.6c-.6.6-.2 1.1-.2 1.1l.9 3zm4.2-3.3l1.2-1.3-.5-3.3s-.8 0-1.4.6c-.6.6-.2 1.1-.2 1.1l.9 2.9zm3.3-2.9L95 6.4 94.5 3s-.8 0-1.4.6c-.6.7-.1 1.1-.1 1.1l.8 3zm3.6-2.1l1.2-1.3-.5-3.4s-.8 0-1.4.6c-.6.6-.2 1.1-.2 1.1l.9 3z"/><path fill="#FFF" stroke="#D3D3D3" stroke-width=".25" d="M81.8 17v74.6c4.2 4.2 5.3-3.5 6.9-5 1.7-1.6 3.7-.5 5.4-1.8 2-1.5 1.1-3.5 2.1-5.2 1.1-1.8 3-.9 3.1-4.1.1-2-1-3.7-.9-5.6.1-5.5.4-7 .1-11.1V1.3L98 2.7l-1.5.6-.3 2.1s-1.8-.2-2 .4c-.3.6-.3 2-.3 2l-1.7.7s0 2.1-.6 2.5c-.6.4-2.6.9-2.6.9l.2 1.5-1.9 1.3s.5 1.9-.6 2.1c-1 .3-1.7-.1-1.7-.1l-2-.6-1.2.9z"/><path fill="#8C8B87" d="M98.2 0L61.3 29v1.6L98.2 1.3z"/><path fill="#8C8B87" d="M7.3 28.6h54.1l.2 1.6-54.1-.1z"/><path fill="#70BE44" stroke="#70BE44" stroke-width=".25" d="M81.7 16.9l1.2-1.3-.5-3.4s-.8 0-1.4.6c-.6.6-.2 1.1-.2 1.1l.9 3z"/><path fill="#A0CEE4" d="M44 86.4c-1.3 1.1-.4 1.6.2 2.5.3.4.9.7 1.2 1.1.3.4.8 1.8.9 1.9 1.1 1.2 1.3.7 2.9 1.4 1.2.5 2.9 1.6 1.3 2.6-.4-3.3-2.9-1-4.4-2.6-.7-.8 0-2.2-.5-3.2-.6-1.2-2-1.7-2.6-2.8.3-.5.7-.7 1.2-.9m-5.1 3.1c-.9.8-.3 1.2.2 1.8.2.3.6.5.8.8.2.3.5 1.3.6 1.4.8.9.9.5 2.1 1 .9.4 2 1.1.9 1.9-.3-2.3-2-.7-3.1-1.9-.5-.6 0-1.6-.4-2.3-.4-.9-1.4-1.2-1.8-2 .2-.3.5-.5.9-.6"/><path fill="none" stroke="#FFF" stroke-width=".25" d="M211.5 27.9l4.5 14.8m-6.1-8.9l3.5 10.6m-8.2-13.6l3.5 10.6"/><path fill="#020202" d="M174.2 10.6s.7-.9 3.5-.8c2.8.1 3.7.8 3.7.8v.1s-2-.8-4-.7c-2.7.1-3.1.7-3.1.7l-.1-.1z" opacity=".22"/><path fill="none" d="M174.2 10.6s1.5 3.8 1.8 6.2c.3 2.5-.5 5.8-.5 5.8s.8.8 2.4.8c1.5 0 2.4-.8 2.4-.8s-.9-4.2-.7-5.9c.1-1.7 2-6.1 2-6.1s-3 .8-3.6.8c-.8 0-3.8-.8-3.8-.8z"/><ellipse cx="177.8" cy="18.8" fill="#CDE7F8" stroke="#88BEE7" stroke-width=".25" rx="1.8" ry=".4"/><ellipse cx="177.8" cy="22.7" fill="#EBEAE7" rx="2.4" ry=".8"/><ellipse cx="177.8" cy="10.6" fill="none" rx="3.6" ry=".8"/><path fill="#D1D3D3" d="M175.5 22.5s.5-2.7.5-3.6c0-1 .2-2 0-2.5s-1.8-5.7-1.8-5.7.2.3.4.4c.2.1.9 2.9 1.1 3.4.2.5.6 1.5.6 1.8 0 .3-.6 6.4-.6 6.4l-.2-.2zm5.7-11.7s-1.7 5-1.7 5.7c0 .7.4 4.2.4 4.7.1.4.3 1.4.3 1.4h-.2s-.8-5.5-.7-6c.1-.5 1.7-5.6 1.7-5.6l.2-.2z"/><path fill="#D1D3D3" d="M175.4 22.1s.5 1 2.1.8c1.7-.2 2-.3 2.2-.4.2-.1.3-.4.3-.4s.2 1.4-2.5 1.2c-2.6-.1-2.1-1.2-2.1-1.2z"/><path fill="#CDE7F8" stroke="#88BEE7" stroke-width=".25" d="M176 18.7s0 3.3-.3 3.6c-.3.3 1.1.6 2 .6.9 0 1.9-.3 2.1-.4.2-.1-.2-.5-.2-1 0-.4-.1-2.7-.1-2.7s-.1.2-.5.2c-.4.1-.9.1-1.3.1-.4-.1-1.3-.1-1.4-.2-.1 0-.3-.2-.3-.2z"/><path fill="#70BE44" d="M177.8 16.7c-.1-1.3.1-2.9 1.1-3.5.5 1.3-.2 2.8-1.1 3.5"/><path fill="none" stroke="#376934" stroke-width=".37" d="M178.2 21s0-9.1-3.2-12.7"/><path fill="#EE3E3A" stroke="#973821" stroke-width=".277" d="M174 4.8c.5-.7 1-2.2 1.8-2.2 1 0 .3.9.7 1.7.3.7 1.2.8.7 1.9-.5.9-1.3 0-2 .1.3.6 1.7.7 1.7 1.6 0 .6-.3.4-.6.7-.5.4-.4.1-.8.7s-.6 1.2-1.2.4c-.4-.5-.5-1.6-.5-2.3-.2.6 0 2.4-.4 2.8-.5.4-1-.3-1.1-.8-.6-.1-1.4.2-1.5-.8-.1-1 .9-2 1.5-2.2-.5.2-1.7.8-2.1.2-.4-.5.1-.9.1-1.5-.1-.7-.5-.6-.2-1.2.2-.3.6-.4.9-.4.6.1 1.1.8 1.6 1.3-.2-.8-1.1-2.2-.7-2.9.3-.5.6-.3 1-.2.1 0 .2.4.3.4.3 0 .3-.4.5-.5.7-.4 1.4-.2 1.3 1.1-.1.9-.8 1.5-.9 2.4"/><path fill="#FFCE34" d="M172.9 5.7c.1-.6.4-1 .8-.9.4.1.7.6.6 1.1-.1.6-.4 1-.8.9-.4 0-.7-.5-.6-1.1z"/><path fill="#70BE44" d="M177.6 16.9c0-1.3-.3-2.9-1.5-3.4-.4 1.4.4 2.9 1.5 3.4"/><path fill="none" stroke="#376934" stroke-width=".37" d="M177.5 21.3s-.6-9.1 2.7-13.1"/><path fill="#EE3E3A" stroke="#973821" stroke-width=".277" d="M181 4.5c-.6-.6-1.2-2.1-2.1-2-1.1.1-.3.9-.6 1.7-.3.7-1.3 1-.6 2 .6.9 1.4-.2 2.2-.1-.3.6-1.8 1-1.8 1.8 0 .6.3.4.7.6.6.3.4.1.9.6s.7 1.1 1.4.3c.4-.5.5-1.6.4-2.3.2.6.1 2.4.6 2.8.5.3 1.1-.4 1.1-.9.7-.2 1.5.1 1.6-1 .1-1-1.1-1.9-1.8-2 .5.2 1.9.6 2.3 0 .4-.6-.2-.9-.2-1.5 0-.7.5-.7.1-1.3-.2-.3-.7-.4-1-.3-.7.1-1.2.9-1.6 1.5.2-.8 1-2.3.5-3-.4-.5-.7-.2-1.1-.1-.1 0-.2.4-.4.4-.3 0-.3-.4-.6-.5-.8-.3-1.5 0-1.4 1.2.1.9 1 1.4 1.2 2.2"/><path fill="#FFCE34" d="M182.3 5.3c-.1-.5-.5-.9-1-.8-.4.1-.7.6-.6 1.2.1.5.5.9 1 .8.4-.1.7-.7.6-1.2z"/><path fill="#D1D3D3" d="M174.2 10.6s.7 1 3.3.8c2.6-.2 3.1-.3 3.4-.4.3-.1.5-.4.5-.4s.3 1.4-3.9 1.2c-4.1-.2-3.3-1.2-3.3-1.2z"/><path fill="#00ACDA" stroke="#00ACDA" stroke-width=".111" d="M4.2 124.3L0 127.5v-3.6l4.2-3.3z"/></g></switch></svg>
