<svg xmlns="http://www.w3.org/2000/svg" version="1.0" viewBox="0 0 220 129"><switch><g><linearGradient id="a" x1="107.195" x2="28.403" y1="76.452" y2="415.973" gradientUnits="userSpaceOnUse"><stop offset="0" stop-color="#71c8f0"/><stop offset="1" stop-color="#32689a"/></linearGradient><path fill="url(#a)" d="M0 .1h219.9v128.8H0z"/><path fill="#CCCBCB" d="M138.7 19.3c.9-.1 1.1-.7 1.7-1.1.6-.3 1.1-.5 1.7-.9 1.1-.7 2.4-1.4 3.6-1.9 1.2-.4 1.7.8 3 .8 1 0 2.6-.5 3.4-.1 1.2.6 2.7.6 4 1 1.2.4 2.3-.6 3.5-.8 1.5-.3 3.9-.7 5.5-.4 1.5.2 2.8 1.1 4.1 1.7 1.8.9 3.9 1.6 5.7 2.1-9 1.8-19 3.6-28.2 1.9-1.7-.3-3.4-.9-5.1-1.2-1-.2-2.3-.2-3.1-.7"/><path fill="#98CB67" stroke="#51B748" stroke-width=".25" d="M42.2 128.7c4-.5 57.9-6.2 62-7.1 10.7-2.4 28.2-3.2 38.7-7.1 13.4-5 26-2.8 39.4-8.1 19.5-7.8 31.4-28.7 26.6-45.1-7.4-25.3-46.6-28.8-69.3-30.8-13.8-1.2-28.8 2-42 .2-11.8-1.7-23.1-2.5-35.3-2.5l-6.7-2.4c10.6-5 17.3-9.7 29.3-10 11.9-.3 21.4 1.6 33.3 0 11.3-1.5 20.2 3.8 30.7 4.2 10.5.3 24.1-.8 34.5-2.5 12.6-2.1 24.6-2.6 35.5-9.3v120.7l-176.7-.2z"/><path fill="#FCF8CD" d="M42.2 128.7c4-.5 57.9-6.2 62-7.1 10.7-2.4 28.2-3.2 38.7-7.1 13.4-5 26-2.8 39.4-8.1 19.5-7.8 31.4-28.7 26.6-45.1-7.4-25.3-46.6-28.8-69.3-30.8-13.8-1.2-28.8 2-42 .2-11.8-1.7-23.1-2.5-35.3-2.5l-6.7-2.4c10.6-5 17.3-9.7 29.3-10l-.7.6c-3.5-.3-18.7 4.2-18.3 7.9 1.5.5 2.5.2 3.9.1.7 0 1.3-.4 2-.4.9 0 1.6.8 2 .9 2.9.2 5.3-.5 8 .3 5.6 1.6 10.6 1.8 16.6 2.1 6.5.3 12.8 1.4 19.6 1.2 8.2-.3 17-.5 25.3-1.2 5.8-.5 13.8-.6 19.4.9 5.3 1.4 10.1 3.5 15.3 4.8 3.4.9 7.2 1.2 10.7 1.7 3.8.6 4.6 1.4 7.6 2.9 2.5 1.2 5.8.8 8.1 1.8.9.4 1.5 1.5 2.7 2.2 1.2.6 2.9.8 4.2 1.2.1 2.2 2 5 3 7 1.1 2.2 3.8 4 4.4 6.2l.2 40.4c-1.1 2.2-3.7 2.1-4 4.9-.2 1.5 1.6 3.9.7 5.3-.4.6-2 .6-2.4 1.2-.5.9.5 1.8.2 2.6-.6 1.6-3.5 1.8-5.2 2.5-2.9 1.2-5.1 1.2-8.2 1.5-2.4.2-6.4.4-8.4 1.5-1.3.7-1.3 1.6-2.2 2.5-1.3 1.3-3.3 1.6-5.1 2.2-2.6.9-5 1.8-7.5 2.7-3.1 1.1-6.9.3-10 1.2-2.6.8-3.3 3.8-6 4.4l-118.6-.2z" opacity=".27"/><path fill="#D1ECF2" d="M56.1 24.1c-1.4.4-5.7 1.3-4.8 2.9.2.4 4.7 2.2 5.3 2.4 4.5 1.1 9.7-.3 14 1.3-3.2 0-5.9-.2-9-.4-2.6-.1-6.4.5-8.7-.5-.1-.1-.5-.9-1-1.1-.6-.3-1.2-.2-1.8-.4-1.1-.4-3.2-1-2.1-2.5.9-1.3 6.5-1.3 8.1-1.9m26.8 8.9c3.3 0 6.3.8 9.3 1.7 3.9 1.3 8 1.3 12.1.9 3.4-.3 6.6-1 9.8-1.8 2.2-.6 7.5-1 9.2.4-3.5.5-7.4-.1-10.7.9-3.4 1.1-6.9 1-10.5 1.8-3.2.7-6.6.2-9.7-.9-1.7-.6-3-1.5-4.8-2-1.7-.4-3.7-.4-5-1.3m37.3 3.2c2.4 0 4.7.5 7 .2 2.5-.3 4.4-.8 7-.7 2.7.1 11.4-.9 12.5 1.6-4.5.7-8.9-1.6-13.7-.8-5.1.8-8.7 2.7-13.5-.2" opacity=".37"/><path fill="#D1ECF2" d="M127.1 33.7c5.5-1.4 11.6-1 17.3-.2 3.5.5 11.1 4 14.5 1.6-1.7-1.4-6-.1-8.2-.5-2.6-.5-4.7-1.8-7.8-1.9-2.8-.2-5.9-.3-8.7-.4-1.3-.1-3-.2-4.2 0-1.5.3-2 1.4-3.8 1.3m41.6 3.2c2.5 1 7.7 1.4 11 2.4 3.6 1.1 6.6 2.8 10 4.3 2.5 1.1 17.2 9.9 12.5 12.7-1.6-1.5-.9-4.9-4.5-4.3.2-1.4-1-2-2.5-2-.8-1.4-3.5-4.1-5.5-4.6-1.2-.3-3.1.1-4.1-.4-1-.5-1.3-2.3-2.5-2.9-1.2-.6-2.4-.2-3.7-.6-1.2-.4-2.3-1.4-3.5-1.8-2.4-.9-5.1-1.4-7.5-2.2m38.1 28.4c.4 3.9-.7 7.8-.2 11.7.1.8.8 1.9.3 2.6-.3.4-1.2.1-1.5.4-.6.5-.4.8-.8 1.4-.6.8-.7 1-1.1 1.9-.4.7-.3 1.9-.6 2.4-.8 1.7-2.6 1.8-3.7 3.2-1.1 1.4-1.8 3.1-3.3 4.4-1.7 1.4-3.7 3.1-5.8 4.1-1.3.7-3 .8-4.3 1.5-1.3.8-1.7 1.7-3.3 2.3-3 1.1-6 1.8-9 3-2.6 1.1-4.8 1.8-7.7 2-4.7.4-9.1.6-13.7.4-.1-.3-.1-.7 0-1 1.2-.1 3.8.2 4.7-.5 1.2-.9 0-2.2 2.5-2.5-.1-.4.2-1.1.1-1.5 3.1-.1 7.5.1 10.5-.7 1.6-.4 2.5-1.3 3.7-2.2.5-.4 1.2-.1 1.8-.7.5-.5-.6-1.2.2-1.8.5-.4 3.5-.7 4.3-.9 2.1-.6 3.6-1.1 5.5-1.9 2-.9 9.6-.5 8.8-3.8.9-.2 1.8-.3 2.7-.5-.2-2.2 2-2.2 3.2-3.3 1.4-1.2 1.3-2.2 1.3-3.9 3.8-.9 4-4.4 4-7.1 0-1.6-.7-2.6-.5-4.2.2-1.5 1.8-3 1.4-4.5m-59 43.6c-2.8-1.5-6.6 1.4-9.2 2.5-3.7 1.5-8.3 2.4-12.3 3.5-3.6 1-7.3 1.2-11 1-2.8-.1-3.8.5-6.3 1.4-2.5.9-5.3 1.6-7.9 1.6-2.7 0-4.9.6-7.5.8-4.1.4-8.1-.5-12.1-.2-3.5.2-8.1 1.4-11.4.3-.9-.3-1.5-.5-2-1 2.3-.8 4.8-1.4 7.2-1.8-.3-1.9 4.7-2.2 6.3-2.4 1.2-.2 10.1-.5 6.5-2.6.9-.1 13.3 2 10.8-.7 1-.2 4 .8 4.5-.3.5-1-2-1.8-2.5-2.6 3-.2 6.2 1.4 9.2 1.5 3 .1 4.9-1.3 7.7-1.1-.8-.8-2.1-1.7-3.4-2 2.4-.2 15.4 2.9 15.5-.4 3.5-1.2 8.3.2 12 .2 1.7 0 4.2-.5 5.7-.2 3.3.6.5 1.5 0 2.2M3.7 120.1c1.8.7 4.1 1.4 6 1.6 2.5.2 4.2-.5 6.5-.9 2-.3 4.2.2 6.3.2 1.1 0 5.5 0 3 1.5-.5.3-2.2.2-2.9.5-.8.3-1.2.9-2.1 1.3-2 .8-4.4 1.1-6.5 1.5-2.5.5-4.4.7-7 .5-2-.1-3.6.3-5.5.3-.1-2.2-.2-4.6-.2-6.8.8 0 1.7-.1 2.5 0m70.3-89.4c6.6 0 12.7-.4 18.9 1.5-3.3.3-6.3-.8-9.7-.8-3.2 0-6.7-.7-9.7-.4m22.8 1.4c3.9.1 8 .5 12 .7v.6c-2.1.1-4.1 0-6.2 0-2.8 0-3.5-.7-6-1.8M61.1 21.5c-3.7.1-7.4 1.5-11.2 1.7.7-1.8 10-2.6 11.7-1.7m14.8 11.3c-3.4.1-6.8-.1-10.3 0-3 .1-6.2.5-9.2.2-2.7-.3-4.8-1.7-7.2-2.3-1.8-.4-5.8-.2-5.8-2.6-2-.4-3 .5-1.7 1.9 1 1.1 3.5 1.1 4.9 1.2 1.9.1 2.9-.1 4.6.8 1.6.9 2.2 1.8 4.2 2.1 7 1.2 13.8-1.4 20.7-1.4m-34.2 82.8c4.3.9 9 1 13.5.7 2.2-.2 3.9-.7 6-1.3 2.1-.7 3.8-.3 6-.7 4.2-.7 8.1-2.4 12.5-2.8 1.9-.2 10.9-.1 11-2-2.8.1-4.6-1.5-7.2-1.8.5.4.7 1.1.9 1.5-3 1-8.2-.4-10.9-1.4.4.4.7 1.2.9 1.7-1.4.1-2.8 0-4.2.1.2.3.1.7.2 1-1.3-.2-3.2.6-4.5.9-1.5.4-3 .9-4.5 1.3-2.6.7-7 1.5-9.5-.1 1.6 2.8-9.9 1.9-10.5 2.8" opacity=".37"/><path fill="#FCF8CD" d="M143.8 29.5c14.6 0 28.5 2.7 42.3 6.6 3.2.9 6.8 1.3 9.8 2.7 2.2 1 3 2.5 4.5 4.3 2.8 3.2 7.2 4.5 9.2 8.5 1.2 2.4 3.4 3.2 4.8 5.3 1.1 1.7.5 4 1.5 5.7 2.3 3.8 3.5 6.4 3.7 10.9.2 4.9.7 10.1.2 15-.3 3-1.5 4.2-3.8 6.3-2.3 2.1-2.1 5.7-4.4 7.7-1 .8-2.8 1-4 1.6-1.3.7-2.7 1.8-3.8 2.7-2 1.7-3.2 3.4-6 4.2-3.7 1.1-8.3-.2-11.7 1.3-2.5 1.1-4.6 3.4-7.2 4.5-3.1 1.3-7.9.7-10.6 2.5-.9.6-1 1.7-1.8 2.4-1.4 1.2-4.1 1.4-6 1.6-3 .3-5.6 1.1-8.5 1.9-3.6 1.1-6.6.5-10.4.5-3.5 0-8.2-.7-11.5.4-2.1.7-4.3 2.2-6.2 3.2l-81.2-.7c4-.5 57.8-6.2 61.8-7.1 10.7-2.4 28.1-3.2 38.6-7.1 13.4-5 25.9-2.8 39.3-8.1 19.5-7.8 31.4-28.7 26.6-45.1-7.4-25.3-46.5-28.8-69.1-30.8l3.9-.9z" opacity=".4"/><path fill="#D1ECF2" d="M133.8 104.2c5.9 0 11.6-.9 17-2.8 2.3-.8 4.1-2 6.7-2.3 2.3-.2 6 .7 7.2-1.5-1.9-.7-3.8-.4-5.7-1.3.3.3.7 1.2.9 1.5-2.8.4-5.9-.6-8.7-.6.3.4.2.9.4 1.3-.4 0-.8.1-1.2.1-1 2.6-8.2 1.7-10.8 1.8.1.2.1.8.2 1-1.8-.1-3.2.9-5 1.3-1.6.4-3.4.1-5 .5-.1.3-.2.5-.3.8 1.5.1 3.2-.2 4.5.5" opacity=".37"/><path fill="#FFF" d="M66.1 119.7c2.9-1.6 5.5-.2 8.5-.2 2.9 0 6-.9 9-1.1 2.2-.2 13.6-1 14.2 1.3-4.9 1.4-10.8 1-16 .9-4.4 0-12.4 3.2-15.5-1.1m37.6-.3c1.9-.1 2.9-1.3 4.5-1.8 1.7-.6 3.8-.3 5.7-.6l12-1.8c4.4-.6 8.5-2.4 12.5-3.8 1.8-.6 8.4-1.7 8.2-3.2-2.2-.4-5.6 1.4-8.2 1.6-.7 1.2-6.5 2.6-8.3 3.1-3.5 1-7.4 1.5-11 1.7-3.7.2-6.2-.2-9.4 1.2-1.2.5-2.5.9-3.6 1.7-1.3.8-1.6 1.9-3.4 2.1m47.7-12.3c1.7-1.1 5.9-.6 8.3-1.3 2.9-.8 5.8-.8 8.7-1.4 3-.6 5.9-1.7 8.8-2.6 2.2-.7 5.4-2.5 7.7-2.5-1.9 4-10.7 5.7-15 6.8-5.8 1.5-12.8.9-19 .9M2.2 124.8h2c1.3.1 2.4.2 3.7.3 2.5.1 5 0 7.3-.3 4.4-.5 9-3.5 13.3-3.3-2.8 2.7-10 3.7-14 4.4-3.8.7-10.4 2.2-14.3.9" opacity=".6"/><path fill="#989836" d="M199.8 16.8c.3 1 .3 1.9.6 2.8.8-.6.4-2.1.4-2.9m7.8-.7c-.3 1.2-.2 2.6-.1 3.9.9-.3.4-3.3.6-4.3m-6.1.5c.1 1.1-.4 2.2 0 3.2h.4c.1-1.4.3-2.7.3-4m2.1 0c-.1.8-.1 2.9.7 3.2.1-1.2.2-2.4.2-3.6"/><path fill="#6FBD44" d="M211 12.4c.4-.4.5-1.1-.6-.8v-1.4c-.5-.3-1-.2-1.2.2-.5-.4-2.4-.4-2.6.4-1.1-.2-1.1.6-1.1 1.3-1 .2-5.2-1.2-4.7 0-1-.4-1.5.6-1.8 1.2-.7 0-1.3.3-1.4.9-1.8-.3-2 1.7-.5 1.4.1.9 5.3 2.2 5.5.9 1 .2 1.1-.4 1.8-.7.7-.3 1.3 0 1.8-.5.1 1.4 6.1 1.3 5.3-.1.9-.3 1.1-1.5 0-1.5.3-.6.1-1.1-.6-1.2"/><path fill="#989836" d="M186.5 17.2c0 .9 0 2.3.5 3 .6-.8.5-2.3.5-3.4m2.4-.8c.4 1 .5 2.1.9 3.1.8-.9.1-2.6-.2-3.6m-6.3 1.8c0 .5-.7 3.2.5 2.6.4-.2.5-2.5.6-2.9"/><path fill="#6FBD44" d="M192.7 14c.7-.6.8-1.4-.4-1.2.2-.7-.3-1.2-.9-.7.1-.7-.5-1.3-1.2-.8-.4-.6-1.4-.7-1.9-.1-.6-.5-1.3-.2-1.5.5-.8-.5-1.2.1-1.1.8-.8-.1-1.1.4-.7 1.1-.2.3-.3.5-.5.8-.7.2-2.9-.2-2.1.9-.6-.6-1.4-.1-1.2.7-.3-.1-.7.1-1 0-.2 1.3 9.1 2.8 9.4.4 1.2 0 2.2-.1 3.4-.1.8 0 2.5.6 2.1-.9-.2 0-.5-.1-.7 0 .8-1-1.4-1.4-2.2-1.5"/><path fill="#CCCBCB" d="M95.6 28.1c1.2-.9 2.5-2.6 4.2-2.4 1 .1 3.4 1.7 3.5 2.6-2.6 1.3-5.1.4-7.7-.2m-30.7.7c-.6-2.1-4.2-1.6-5 .2 1.6.1 3.3 0 5 0"/><path fill="#6FBD44" d="M182.8 128.6c-1.3-3 4.1-2.7 2.3-5.1-.9-1.1-3.3-.5-4-2-.7-1.5.5-2 2.2-2-.5-1.5-.8-3.5 1.7-3.1-.3-2.2-1-4.5 2.3-4.2-.2-2.6 2.1-4.4 5-3.5 2.1-3.1 4.8.6 6.9.9 5.2.9 1-5.3 4.7-4.7.6-1.7 3.6-5.6 5.1-2 1.6-1 4.9-1.8 4.5.9.9.1 1.8-.1 2.7-.2-.1.3.1.7.1 1 1.1-.1 2.3 0 3.2.5v23.7l-36.7-.2z"/><path fill="#D1ECF2" d="M135.6 116.1c2.2-.1 4.1.3 6.2 0 2.3-.3 3.8-1.4 6-2.1 4-1.1 8.5-.8 12.6-1.9 2.1-.6 3.9-1.1 5.9-1.4 1.5-.2 5.2-1 2.5-2.2-1.7-.8-6.4.1-8.2.2-4.5.4-8.9 1-13.3 2-4 .8-9 2.3-12 4.7m-17.9 4.7c-1.2-2.1-4.2-.8-6-.2-2.8 1-4.6 1.3-7.7 1.3-3.1 0-4.9.5-7.8 1.1-2.1.5-5.2-.1-7 .7 3.5 1.7 10.7-.6 14.8-.9 4.7-.3 9.2-.7 13.7-2m61.7-12.4c2.1-4 7.3-5.6 11.3-7.9 1.8-1.1 4.1-2.1 5.8-3.4 1.6-1.2 3.3-4.6 5.7-4.6.8 4.5-6.1 8.1-9.8 10.3-3.8 2.3-8 5.1-12.7 5.8" opacity=".37"/><path fill="#989836" d="M91.9 16.3c0 .7 0 1.8.4 2.3.5-.6.4-1.8.4-2.6m1.9-.6c.3.8.4 1.7.7 2.4.6-.7 0-2.1-.1-2.8m-5 1.4c0 .4-.6 2.5.4 2 .3-.1.4-1.9.4-2.2"/><path fill="#6FBD44" d="M96.7 13.8c.6-.4.6-1.1-.3-1 .1-.5-.2-.9-.7-.5.1-.6-.4-1-.9-.6-.3-.5-1.1-.6-1.5-.1-.5-.4-1-.1-1.2.4-.6-.4-.9.1-.8.7-.7 0-.9.3-.6.8-.1.2-.2.4-.4.6-.5.2-2.3-.2-1.7.7-.5-.4-1.1-.1-1 .5-.2 0-.6.1-.8 0-.1 1 7.1 2.2 7.3.3 1 0 1.7-.1 2.7 0 .6 0 2 .5 1.7-.7H98c.7-.8-1.1-1.1-1.7-1.1"/><path fill="#989836" d="M106.4 16.9c0 .5 0 1.4.3 1.8.4-.5.3-1.4.3-2m1.5-.6c.2.6.3 1.3.6 1.8.5-.5 0-1.6-.1-2.1m-3.9 1.1c0 .3-.4 1.9.3 1.5.2-.1.3-1.5.3-1.7"/><path fill="#6FBD44" d="M110.1 15c.4-.3.5-.8-.3-.7.1-.4-.2-.7-.6-.4.1-.4-.3-.8-.7-.5-.3-.4-.8-.4-1.1-.1-.4-.3-.7-.1-.9.3-.5-.3-.7.1-.6.5-.5 0-.7.3-.4.6-.1.2-.2.3-.3.5-.4.1-1.8-.1-1.3.6-.3-.3-.8-.1-.7.4-.2 0-.4.1-.6 0-.1.8 5.4 1.7 5.6.2.7 0 1.3-.1 2 0 .5 0 1.5.4 1.3-.5h-.4c.5-.6-.8-.8-1.3-.9m70.5 6.7c-.1-1.4 1.4-1.3 2.2-.5.1-1 3.3-2.9 4.1-1.5.3-.2.7-.3 1-.4.5.7.6.7 1.2 1.1 0 .3.1.7.1 1 1.4-.4 3 0 4 .7-2.2 2-10.1 1-13.2.8-.2-.4 0-.5.2-.9m21.5-1.7c.1-1.7 1.3-2.6 2.8-1.8.4-4 8.8-5.4 10.7-4.1 1.4-1.1 5.3 3.2 3.3 5.6.9.1 1.1.6 1.7.9-2.4 2.7-15.7 1.2-19 .3"/><path fill="#6FBD44" d="M219.3 6c-2.1-1.1-10-.3-8.5 2.8-.2.2-.5 0-.7.1 0 .1.1.5-.1.6-4.3-.4-5.2 5.9-1.2 5.2 0 .3.1.6.1.8 2.8 1.4 7.2 1.4 10.5 1.4V6z"/><path fill="#FFF" stroke="#7C7D7D" stroke-width=".25" d="M153.7 42.3s-.2.1-.4.3c-.2.2-.5.7-.4 1.3.1.6.5 1.3.6 1.3.1 0 .6.9.6 1 0 .1.1.5.1.5l15.3.1 2-1.6h-.2c-.1.1-.1.1-.5.2-.3.1-1.3.1-1.3.1s-2.6.4-3.3.4c-.7 0-6.3.1-6.7.1-.4 0-2.1-.1-2.4-.2-.2 0-2-.3-2.2-.3h-.4c-.1 0-.4-.2-.4-.2s-.6-.6-.8-1c-.2-.4-.3-1-.1-1.2.1-.2.2-.4.3-.5.1-.2.3-.2.2-.3z"/><path fill="#FFF" stroke="#7C7D7D" stroke-width=".25" d="M163.8 45.8v-.1l-.3-.3-.3-.2-2.7-.1s-.3.3-.4.3c-.1 0-.8.1-.8.1-.1 0-.1-.1-.2 0s-.3.1-.3.2c-.1.1-.1.3-.1.3.1-.2 5.1-.2 5.1-.2z"/><path fill="#E9E9EA" stroke="#E9E9EA" stroke-width=".25" d="M155 42.7s-.4.2-.6.5l-.1.3c-.1.2.1.6.2.8l.4.8.1.2-.1.1 3.9.4v-.3s-3-.2-3.2-.3c-.2-.1-.9-.9-.9-1.2 0-.3-.1-.6 0-.8.1-.1.2-.3.2-.3l.1-.2z"/><path fill="none" d="M159.4 45.4h.8s.1.1 0 .1-.8 0-.8-.1z"/><path fill="#A4A5A4" stroke="#E9E9EA" stroke-width=".25" d="M163.3 45.2h-2.5 2.5zm-3.1.2s0 .1 0 0h-.7.7zm.4.1l.2-.1h.5v.1zm1.2-.1h.5v.2h-.5zm1 0h.5v.2h-.5z"/><path fill="#FFF" stroke="#7C7D7D" stroke-width=".25" d="M161.6 45v-.2h1v.2zm-3.3.6s.1-.2 0-.2 0-.3-.2-.3c-.2-.1-.3-.1-.4 0-.1.1-.1.2-.1.3.1.1.1.1.2.1h.2l.1-.1h.1v.1s-.1 0-.1.1v.1l.3.1h.3l.1-.1-.1-.1h-.4z"/><path fill="#FFF" stroke="#7C7D7D" stroke-width=".25" d="M153.3 45.2s1.5-.1 1.9-.1c.3 0 1.7 0 1.8.1h.7v.2s-.5-.2-.5-.1c-.1 0-.1.1-.1.1s-1.8-.2-2.2-.1c-.4 0-1.2.1-1.3.1h-.2v-.2z"/><path fill="#E9E9EA" stroke="#E9E9EA" stroke-width=".25" d="M155.9 42.7h.1l-.1 2.4h-.2l.2-2.4zm2.8 1.6c-.1.1-.1 1.3-.1 1.2h.1v-1.2"/><path fill="#4480C2" stroke="#4480C2" stroke-width=".25" d="M153.6 42.4c-.1-.2-.4.2-.4.3-.1.2-.1.4-.1.6.1-.2 0-.3.2-.5.1-.1.2-.3.3-.4m-.6 1.7c.1-.1 0-.3 0-.4 0-.1-.1-.3-.1-.4 0 .1-.1.3-.1.4 0 .1.1.1.1.2.1.1.1.2.1.2m.1 0s.1-.1.1-.2v-.5s0 .2.1.4.2.6.3.7c.1.1.4.5.4.5v.1l-.6-.6c-.2-.2-.3-.4-.3-.4zm1.5-.5s-.1 0-.1-.2c0-.1 0-.3.1-.4l.3-.3h.1s-.3.4-.3.5c0 .1-.1.4-.1.4zm-.1.6v-.3c0-.2-.2-.2-.1-.4v-.2s-.1.2-.1.3c0 .2 0 .3.1.4.1.1 0 .2.1.2zm1 .9h-.2l-.4-.4c-.1-.1-.3-.5-.3-.5s0 .1.1-.1c.1-.1.1-.2.1-.2s.1.3.2.4c.1.1.2.3.2.3.1.1.2.3.2.3-.1.1.1.2.1.2z"/><path fill="#4480C2" d="M154.2 45.4l.2.1s.1.2.2.2h.4c.1 0 .2-.1.2-.1h.1l-.7-.1-.2-.1h-.2z"/><path fill="#4480C2" stroke="#4480C2" stroke-width=".25" d="M154.6 45.7s.1.1.3.1c.2-.1.4-.1.4-.1l.1-.1h.2s.9.2 1 .1c.1 0 .2-.1.6.1.3.2.6.3.8.3.2 0 .1.1.4 0h.5c.1 0 .2-.1.2-.1h6.5c.4 0 1.7-.1 2.1-.2.3 0 1.8-.2 2-.2h.7c.2 0 .5-.1.5-.1h.3l-.3.4s-.9.2-1.5.3-1.6.2-2.1.2-3.4 0-4 .1h-4.6l-1.1-.1s-.5-.2-.9-.3c-.3-.1-.9-.3-1.1-.2-.2.1-.3.2-.3.2l-.7-.4z"/><path fill="#4480C2" d="M155.8 45.9s.1-.2.5-.2c.3 0 .7.2.8.2.1 0 .3.1.3.1.1 0-1.6-.1-1.6-.1zm-1 .7l-.8-1.3h.1l.8 1.3z"/><path fill="#E9E9EA" stroke="#E9E9EA" stroke-width=".25" d="M158.2 46.2h.4v.2h-.4zm1.8.1h.3v.2h-.3zm3.404-.102l.9.005-.002.3-.9-.005z"/><path fill="#FFF" stroke="#7C7D7D" stroke-width=".25" d="M163.8 46.3h.3v.1h-.3z"/><path fill="#A4A5A4" stroke="#E9E9EA" stroke-width=".25" d="M166.3 46.2h.3v.2h-.3z"/><path fill="#040809" stroke="#7C7D7D" stroke-width=".25" d="M157.4 46l.7.2 3 .1 5.1-.1 1-.2s-.6 0-1.2.1h-6.8l-.8-.1-.5-.1-.5.1z" opacity=".11"/><path fill="#A4A5A4" stroke="#E9E9EA" stroke-width=".25" d="M155.1 46s-.1 0 0 0h-.5.5c-.1-.1 0-.1 0 0z"/><path fill="#E9E9EA" stroke="#E9E9EA" stroke-width=".25" d="M162.9 45l-.5-13.4h.5l.3 13.4z"/><path fill="#E9E9EA" stroke="#E9E9EA" stroke-width=".25" d="M162.9 31.6c-.4-.5 1.2 2 1.4 2.3.2.3 1.1 1.9 1.3 2.3.2.4 1.5 2.6 1.7 2.9.2.3 1.6 2.9 1.8 3.2.2.3.9 1.7.9 1.7l.3.2v-.3s-3.6-6.3-4.2-7.5c-.6-1.2-1.9-3.8-2.3-4-.3 0-.9-.8-.9-.8z"/><path fill="#FFF" stroke="#7C7D7D" stroke-width=".25" d="M163.2 43.3s2.6-.1 3.3 0c.7.2 2.5.7 2.7.8.1.1.8.4.8.4l.4.1v-.4l-2.9-4.8-3.2-5.5s-.1-.2-.6-1c-.6-.9-.9-1.4-.9-1.4l.1 6.7.3 5.1zm-.8-11.1s-.2-.2-.3-.1c-.1.1-5 11.2-4.9 11.3 0 .1 2 .2 2.8.3.8.1 2.7.7 2.8.6 0-.1.1-.3.1-.3l-.5-11.8z"/><path fill="#4480C2" stroke="#4480C2" stroke-width=".25" d="M163.1 39.6s1-.5 1.9-.8c1.1-.4 2.2 0 2.2 0l.4.7s-1.6.1-2.5.3c-1 .3-1.8.9-1.8.9l-.2-1.1zm4.9.5l.5.8s-1.4.3-2.8.7c-1.4.4-2.5.8-2.5.8l-.1-1s1.4-.7 2.3-.9c.9-.2 2.6-.4 2.6-.4z" opacity=".2"/><path fill="#FFF" stroke="#FFF" stroke-width=".25" d="M162.9 44.4v.1l-5.8-.8v-.2z"/><path fill="none" stroke="#8D8D8D" stroke-width=".25" d="M166.8 45.7c.5 0 .9-.1 1.3-.4.4-.2.5-.6.8-.9m1.6.1s.4.9.4 1.1m-2-1.2l.8 1.1m.8-1l.9.8m-8.5-13.7l6 12.8m-6-12.8l6 12.8m-12.4.8l5.9-13.6m-5.3 13.6l5.3-13.6"/><path fill="none" stroke="#8D8D8D" stroke-width=".25" d="M166.8 45.7c.3.1 1-.2 1.2-.4.3-.2.5-.5.8-.8m-5.7-9.5l-.1 9.9m0-13.1v13.1"/><path fill="none" stroke="#E9E9EA" stroke-width=".25" d="M167.2 45.6c.6-.3 1.4-.6 1.6-1.2"/><path fill="#A4A5A4" stroke="#A4A5A4" stroke-width=".25" d="M157.6 43.6s.2 0 .2.1-.2.1-.2-.1c-.1.1 0 .1 0 0m1.1.2s.2 0 .2.1-.2 0-.2-.1c-.1 0-.1 0 0 0m1.3.2s.2 0 .2.1-.2 0-.2-.1c-.1 0 0 0 0 0m1.5.2s.2 0 .2.1-.2.1-.2-.1c0 .1 0 0 0 0m1 .2s.2 0 .2.1c0 0-.2 0-.2-.1"/><path fill="none" stroke="#8D8D8D" stroke-width=".25" d="M158.9 43.8l3.5-12.2M160.2 44l2.2-12.4m0 12.8l1.5-1.2m-.7.1l-1.7.9m1.5-12.4v13.1m-.6-13.3l.2 13.2m.1-13.2l.6 13.6"/><path fill="#FFF" d="M153.2 46.8c2.5.7 5.7.4 8.4.4 2.7-.1 5.7.3 8.4-.1-.8 1.1-2.8.3-3.9.2-1.5-.1-2.8.4-4.2.4-1.4 0-2.8-.3-4.3-.3-1.7.1-2.7.4-4.3-.4" opacity=".67"/><path fill="#FFF" stroke="#7C7D7D" stroke-width=".25" d="M154.5 61.8s.3.1.5.4c.2.2.6.9.5 1.6-.1.7-.6 1.5-.7 1.6-.1.1-.7 1-.8 1.2-.1.1-.1.6-.1.6l-18.7.1-2.4-2s.1 0 .3.1c.1.1.1.1.6.2.4.1 1.6.1 1.6.1l4 .5c.8 0 7.7.1 8.2.1.5 0 2.6-.2 2.9-.2.3 0 2.4-.3 2.6-.3.3 0 .4 0 .5-.1.1 0 .4-.2.4-.2s.7-.7.9-1.3c.2-.5.3-1.2.2-1.5-.1-.3-.3-.5-.4-.6 0-.1-.2-.1-.1-.3z"/><path fill="#FFF" stroke="#7C7D7D" stroke-width=".25" d="M142.1 66v-.1l.3-.4.3-.3 3.3-.2s.4.3.5.4c.1 0 1 .2 1 .1.1 0 .2-.2.2 0 .1.2.4.1.4.2.1.1.2.4.1.4 0 0-6.1 0-6.1-.1z"/><path fill="#E9E9EA" stroke="#E9E9EA" stroke-width=".25" d="M152.9 62.3s.5.2.7.6l.1.4c.1.2-.1.7-.2 1l-.5 1-.1.2.1.1-4.8.5v-.4s3.6-.2 3.9-.4c.3-.2 1-1.1 1.1-1.5.1-.4.1-.8 0-.9l-.2-.4-.1-.2z"/><path fill="none" d="M147.5 65.6h-1s-.1.1 0 .1h1v-.1z"/><path fill="#A4A5A4" stroke="#E9E9EA" stroke-width=".25" d="M142.8 65.3c0 .1 0 .1 0 0h3-3zm3.7.3s.1.1 0 0h.9s.1 0 .1-.1c0 0 0-.1-.1-.1l-.9.2c.1 0 0 0 0 0zm-.5.2l-.2-.2h-.6v.2zm-2-.2h.6v.2h-.6zm-1.2 0h.7v.2h-.7z"/><path fill="#FFF" stroke="#7C7D7D" stroke-width=".25" d="M144.8 65.1v-.2h-1.2v.2zm4.1.8s-.1-.3 0-.3-.1-.3.2-.4c.3-.1.4-.1.5.1.1.1.2.3.1.4-.1.1-.1.2-.2.2h-.3l-.1-.1-.1.1v.1l.1.1v.1s-.3.1-.4.1h-.4l-.1-.1.1-.1h.4l.2-.2z"/><path fill="#FFF" stroke="#7C7D7D" stroke-width=".25" d="M154.9 65.3s-1.9-.1-2.3-.1c-.4.1-2 .1-2.1.1h-.8v.2s.6-.2.7-.2c.1 0 .1.1.1.1s2.2-.2 2.7-.2c.4 0 1.5.1 1.6.1h.3z"/><path fill="#E9E9EA" stroke="#E9E9EA" stroke-width=".25" d="M151.8 62.3h-.1c-.1 0 .1 3 .1 3h.2l-.2-3zm-3.5 1.9l.1.1v1.4h-.2l-.1-1.4.2-.1h-.1.1"/><path fill="#4480C2" stroke="#4480C2" stroke-width=".25" d="M154.5 62c.1-.3.5.3.5.4.1.2.1.5.1.7-.1-.2-.1-.4-.2-.6-.1-.2-.2-.4-.4-.5m.8 1.9c-.1-.1 0-.4 0-.5 0-.1.1-.4.2-.4 0 .2.1.4.1.5 0 .1-.1.1-.1.2-.2.1-.1.3-.2.2m-.1.2s-.1-.1-.1-.2v-.7s0 .2-.1.5c-.1.2-.2.7-.3.8-.1.2-.5.6-.5.6v.2s.5-.4.7-.8c.1-.2.3-.4.3-.4zm-1.9-.7s.1 0 .1-.2 0-.4-.1-.5c-.1-.1-.3-.4-.3-.4h-.1s.3.5.4.6v.5zm.1.7v-.3c0-.2.2-.3.1-.4v-.3s.2.2.2.4.1.3-.1.4c-.1.1 0 .2-.2.2zm-1.1 1.1l.2.1.5-.5c.1-.1.4-.6.4-.6s0 .1-.1-.1-.1-.3-.1-.3-.2.4-.2.5c-.1.1-.2.3-.3.4l-.3.3c.1.1-.1.2-.1.2z"/><path fill="#4480C2" d="M153.8 65.5l-.3.1s-.1.2-.3.2h-.5c-.1 0-.2-.1-.2-.1h-.1l.9-.1.3-.1h.2z"/><path fill="#4480C2" stroke="#4480C2" stroke-width=".25" d="M153.4 65.9s-.1.2-.4.1c-.3-.1-.5-.2-.5-.2l-.1-.1c0-.1-.2 0-.2 0s-1.1.2-1.3.2c-.2 0-.3-.1-.7.1-.4.2-.7.3-1 .3-.2 0-.1.1-.4.1-.3 0-.5 0-.6-.1-.1 0-.3-.2-.3-.2H140c-.4 0-2.1-.2-2.5-.2-.4-.1-2.1-.3-2.5-.3-.4 0-.7 0-.9-.1-.2 0-.6-.1-.6-.1l-.3-.1-.1-.1.3.4s1.1.3 1.8.4c.7.1 2 .3 2.6.3.6 0 4.1.1 4.8.1h5.6l1.4-.1s.7-.2 1.1-.3c.4-.1 1.1-.3 1.3-.2l.4.2 1-.1z"/><path fill="#4480C2" d="M151.9 66.2s-.2-.2-.6-.2c-.4 0-.9.2-1 .2-.2 0-.4.1-.4.1 0 .1 2-.1 2-.1zm1.2.9l1-1.7h-.1l-1 1.6z"/><path fill="#E9E9EA" stroke="#E9E9EA" stroke-width=".25" d="M148.5 66.6h.5v.2h-.5zm-2.1.1h.4v.2h-.4zm-4.9-.1h1.1v.3h-1.1z"/><path fill="#FFF" stroke="#7C7D7D" stroke-width=".25" d="M141.7 66.7h.4v.1h-.4z"/><path fill="#A4A5A4" stroke="#E9E9EA" stroke-width=".25" d="M138.7 66.5h.4v.2h-.4z"/><path fill="#040809" stroke="#7C7D7D" stroke-width=".25" d="M149.9 66.4l-.9.2-3.6.1-6.3-.1-1.2-.2s.7 0 1.5.1h8.4l1-.1.6-.1.5.1z" opacity=".11"/><path fill="#A4A5A4" stroke="#E9E9EA" stroke-width=".25" d="M152.8 66.3h.6-.6c0-.1 0 0 0 0z"/><path fill="#E9E9EA" stroke="#E9E9EA" stroke-width=".25" d="M143.3 65.1l.6-16.3h-.7l-.3 16.3z"/><path fill="#E9E9EA" stroke="#E9E9EA" stroke-width=".25" d="M143.2 48.8c.4-.6-1.5 2.4-1.7 2.8-.2.4-1.4 2.3-1.6 2.8-.2.5-1.9 3.2-2.1 3.6-.2.4-2 3.5-2.2 3.9s-1.1 2.1-1.1 2.1l-.4.3v-.4l5.2-9.1c.8-1.4 2.4-4.7 2.8-4.9.4-.2 1.1-1.1 1.1-1.1z"/><path fill="#FFF" stroke="#7C7D7D" stroke-width=".25" d="M142.8 63s-3.2-.2-4.1 0c-.9.2-3.1.9-3.3.9l-1 .5-.5.1v-.4l3.5-5.8 3.9-6.7s.1-.3.8-1.2c.8-1.1 1-1.7 1-1.7l-.2 8.2-.1 6.1z"/><path fill="#F8EE6B" stroke="#7C7D7D" stroke-width=".25" d="M143.9 49.5s.3-.3.4-.1c.1.1 6 13.6 6 13.8-.1.2-2.5.2-3.5.3-1 .1-3.3.9-3.4.8-.1-.1-.1-.4-.1-.4l.6-14.4z"/><path fill="#4480C2" stroke="#4480C2" stroke-width=".25" d="M143 58.6s-1.2-.6-2.3-1c-1.3-.5-2.7 0-2.7 0l-.5.8s1.9.1 3.1.4c1.2.3 2.2 1.1 2.2 1.1l.2-1.3zm-5.9.5l-.6 1 3.4.8c1.7.5 3 1 3 1l.2-1.2s-1.7-.9-2.8-1.1c-1.2-.2-3.2-.5-3.2-.5z" opacity=".2"/><path fill="#FFF" stroke="#FFF" stroke-width=".25" d="M143.2 64.4l.1.1 7.1-1-.1-.2z"/><path fill="none" stroke="#8D8D8D" stroke-width=".25" d="M138.5 65.9c-.7 0-1-.1-1.6-.5-.5-.3-.7-.8-.9-1.1m-2 .2s-.5 1.1-.5 1.3m2.5-1.4l-1.1 1.3m-.9-1.2l-1.1.9m10.3-16.6L136 64.4m7.2-15.6L136 64.4m15.1.9l-7.2-16.5m6.4 16.5l-6.4-16.5"/><path fill="none" stroke="#8D8D8D" stroke-width=".25" d="M138.5 65.9c-.3.1-1.2-.2-1.5-.5-.4-.3-.6-.7-1-.9m7-11.6l.2 12.1m-.1-16l.1 16"/><path fill="none" stroke="#E9E9EA" stroke-width=".25" d="M138.1 65.9c-.7-.3-1.7-.7-1.9-1.5"/><path fill="#A4A5A4" stroke="#A4A5A4" stroke-width=".25" d="M149.7 63.4c-.1.1-.2 0-.3.1 0 .2.3.1.4 0 0 0-.1 0-.1-.1m-1.3.2c-.1.1-.2 0-.3.1 0 .2.3.1.4 0 0 0-.1 0-.1-.1m-1.6.3c-.1.1-.2 0-.3.1 0 .2.3.1.4 0 0-.1-.1-.1-.1-.1m-1.9.2c-.1.1-.2 0-.3.1 0 .2.3.1.4 0l-.1-.1m-1.2.2c-.1.1-.2 0-.3.1 0 .2.3.1.4 0 0 0 0-.1-.1-.1"/><path fill="none" stroke="#8D8D8D" stroke-width=".25" d="M148.1 63.7l-4.2-14.9m2.6 15.1l-2.6-15.1m-.1 15.6l-1.7-1.5m.7.1l2.1 1.1M143.1 49l.1 16m.7-16.2l-.3 16.1m-.1-16.1l-.7 16.6"/><path fill="#FFF" d="M155.1 67.3c-3.1.9-6.9.5-10.2.5-3.3-.1-7 .4-10.3-.1 1 1.4 3.4.4 4.8.3 1.8-.1 3.4.5 5.1.5 1.7 0 3.5-.4 5.2-.3 2.1.1 3.3.5 5.3-.5" opacity=".67"/><path fill="#6FBD44" d="M198.1 25.5c.2-.3-.2-.7-.4-.2.1-.2-.1-.6-.4-.4-.2-.3-.5-.1-.6.2-.3-.2-.5.1-.5.3-.3 0-.7.2-.5.5-.2 0-.4 0-.4.2-.4 0-.7.2-.7.6.8 0 1.6.2 2.4.2.5 0 1.1.2 1.5 0"/><path fill="#FFF" stroke="#7C7D7D" stroke-width=".25" d="M124.7 48.8s.3.1.5.4c.2.2.6.9.5 1.6-.1.7-.6 1.5-.7 1.6-.1.1-.7 1-.8 1.2-.1.1-.1.6-.1.6l-18.7.1-2.4-2s.1 0 .3.1c.1.1.1.1.6.2.4.1 1.6.1 1.6.1l4 .5c.8 0 7.7.1 8.2.1.5 0 2.6-.2 2.9-.2.3 0 2.4-.3 2.6-.3.3 0 .4 0 .5-.1.1 0 .4-.2.4-.2s.7-.7.9-1.3c.2-.5.3-1.2.2-1.5-.1-.3-.3-.5-.4-.6 0-.1-.2-.1-.1-.3z"/><path fill="#FFF" stroke="#7C7D7D" stroke-width=".25" d="M112.3 53v-.1l.3-.4.3-.3 3.2-.1s.4.3.5.4c.1 0 1 .2 1 .1.1 0 .2-.2.2 0 .1.2.4.1.4.2.1.1.2.4.1.4.1-.1-6-.1-6-.2z"/><path fill="#E9E9EA" stroke="#E9E9EA" stroke-width=".25" d="M123.1 49.3s.5.2.7.6l.1.4c.1.2-.1.7-.2 1l-.5 1-.1.2.1.1-4.8.5v-.4s3.6-.2 3.9-.4c.3-.2 1-1.1 1.1-1.5.1-.4.1-.8 0-.9l-.2-.4-.1-.2z"/><path fill="none" d="M117.7 52.6h-1s-.1.1 0 .1h1v-.1z"/><path fill="#A4A5A4" stroke="#E9E9EA" stroke-width=".25" d="M112.9 52.3c0 .1 0 .1 0 0h3-3zm3.8.3s0 .1 0 0h.9s.1 0 .1-.1c0 0 0-.1-.1-.1l-.9.2zm-.5.2l-.2-.2h-.6v.2zm-2-.2h.6v.2h-.6zm-1.3 0h.7v.2h-.7z"/><path fill="#FFF" stroke="#7C7D7D" stroke-width=".25" d="M115 52.1v-.2h-1.2v.2zm4 .8s-.1-.3 0-.3-.1-.3.2-.4c.3-.1.4-.1.5.1.1.1.2.3.1.4-.1.1-.1.2-.2.2h-.3l-.1-.1-.1.1v.1l.1.1v.1s-.3.1-.4.1h-.4l-.1-.1.1-.1h.4l.2-.2zm6.1-.6s-1.9-.1-2.3-.1c-.4.1-2 .1-2.1.1h-.8v.2s.6-.2.7-.2c.1 0 .1.1.1.1s2.2-.2 2.7-.2c.4 0 1.5.1 1.6.1h.3z"/><path fill="#E9E9EA" stroke="#E9E9EA" stroke-width=".25" d="M122 49.3h-.1c-.1 0 .1 3 .1 3h.2l-.2-3zm-3.5 1.9l.1.1v1.4h-.2l-.1-1.4.2-.1h-.1.1"/><path fill="#4480C2" stroke="#4480C2" stroke-width=".25" d="M124.7 49c.1-.3.5.3.5.4.1.2.1.5.1.7-.1-.2-.1-.4-.2-.6-.1-.2-.2-.4-.4-.5m.7 1.9c-.1-.1 0-.4 0-.5 0-.1.1-.4.2-.4 0 .2.1.4.1.5 0 .1-.1.1-.1.2-.1.1-.1.3-.2.2"/><path fill="#4480C2" stroke="#4480C2" stroke-width=".25" d="M125.4 51.1s-.1-.1-.1-.2v-.7s0 .2-.1.5c-.1.2-.2.7-.3.8-.1.2-.5.6-.5.6v.2s.5-.4.7-.8c.1-.2.3-.4.3-.4zm-1.9-.7s.1 0 .1-.2 0-.4-.1-.5c-.1-.1-.3-.4-.3-.4h-.1s.3.5.4.6v.5zm.1.7v-.3c0-.2.2-.3.1-.4v-.3s.2.2.2.4.1.3-.1.4c-.1.1 0 .2-.2.2zm-1.1 1.1l.2.1.5-.5c.1-.1.4-.6.4-.6s0 .1-.1-.1-.1-.3-.1-.3-.2.4-.2.5c-.1.1-.2.3-.3.4l-.3.3c0 .1-.1.2-.1.2z"/><path fill="#4480C2" d="M124 52.5l-.3.1s-.1.2-.3.2h-.5c-.1 0-.2-.1-.2-.1h-.1l.9-.1.3-.1h.2z"/><path fill="#4480C2" stroke="#4480C2" stroke-width=".25" d="M123.6 52.9s-.1.2-.4.1c-.3-.1-.5-.2-.5-.2l-.1-.1c0-.1-.2 0-.2 0s-1.1.2-1.3.2c-.2 0-.3-.1-.7.1-.4.2-.7.3-1 .3-.2 0-.1.1-.4.1-.3 0-.5 0-.6-.1-.1 0-.3-.2-.3-.2h-7.9c-.4 0-2.1-.2-2.5-.2-.4-.1-2.1-.3-2.5-.3-.4 0-.7 0-.9-.1-.2 0-.6-.1-.6-.1l-.3-.1-.1-.1.3.4s1.1.3 1.8.4c.7.1 2 .3 2.6.3.6 0 4.1.1 4.8.1h5.6l1.4-.1s.7-.2 1.1-.3c.4-.1 1.1-.3 1.3-.2l.4.2 1-.1z"/><path fill="#4480C2" d="M122.1 53.2s-.2-.2-.6-.2c-.4 0-.9.2-1 .2-.2 0-.4.1-.4.1 0 .1 2-.1 2-.1zm1.2.9l1-1.7h-.1l-1 1.6z"/><path fill="#E9E9EA" stroke="#E9E9EA" stroke-width=".25" d="M118.7 53.6h.5v.2h-.5zm-2.1.1h.4v.2h-.4zm-4.9-.1h1.1v.3h-1.1z"/><path fill="#FFF" stroke="#7C7D7D" stroke-width=".25" d="M111.9 53.7h.4v.1h-.4z"/><path fill="#A4A5A4" stroke="#E9E9EA" stroke-width=".25" d="M108.9 53.5h.4v.2h-.4z"/><path fill="#040809" stroke="#7C7D7D" stroke-width=".25" d="M120.1 53.4l-.9.2-3.6.1-6.3-.1-1.2-.2s.7 0 1.5.1h8.4l1-.1.6-.1.5.1z" opacity=".11"/><path fill="#A4A5A4" stroke="#E9E9EA" stroke-width=".25" d="M123 53.3h.6-.6c0-.1 0-.1 0 0z"/><path fill="#E9E9EA" stroke="#E9E9EA" stroke-width=".25" d="M113.5 52.1l.5-16.3h-.6l-.4 16.3z"/><path fill="#E9E9EA" stroke="#E9E9EA" stroke-width=".25" d="M113.4 35.8c.4-.6-1.5 2.4-1.7 2.8-.2.4-1.4 2.3-1.6 2.8-.2.5-1.9 3.2-2.1 3.6-.2.4-2 3.5-2.2 3.9-.2.4-1.1 2.1-1.1 2.1l-.4.3v-.4l5.2-9.1c.8-1.4 2.4-4.7 2.8-4.9.3-.2 1.1-1.1 1.1-1.1z"/><path fill="#FCCB98" stroke="#7C7D7D" stroke-width=".25" d="M113 50s-3.2-.2-4.1 0c-.9.2-3.1.9-3.3.9l-1 .5-.5.1v-.4l3.5-5.8 3.9-6.7s.1-.3.8-1.2c.8-1.1 1-1.7 1-1.7l-.2 8.2-.1 6.1zm1-13.5s.3-.3.4-.1c.1.1 6 13.6 6 13.8-.1.2-2.5.2-3.5.3-1 .1-3.3.9-3.4.8-.1-.1-.1-.4-.1-.4l.6-14.4z"/><path fill="#4480C2" stroke="#4480C2" stroke-width=".25" d="M113.2 45.6s-1.2-.6-2.3-1c-1.3-.5-2.7 0-2.7 0l-.5.8s1.9.1 3.1.4c1.2.3 2.2 1.1 2.2 1.1l.2-1.3zm-6 .5l-.6 1 3.4.8c1.7.5 3 1 3 1l.2-1.2s-1.7-.9-2.8-1.1c-1.1-.2-3.2-.5-3.2-.5z" opacity=".2"/><path fill="#FFF" stroke="#FFF" stroke-width=".25" d="M113.4 51.4v.1l7.2-1-.1-.2z"/><path fill="none" stroke="#8D8D8D" stroke-width=".25" d="M108.7 52.9c-.7 0-1-.1-1.6-.5-.5-.3-.7-.8-.9-1.1m-2 .2s-.5 1.1-.5 1.3m2.5-1.4l-1.1 1.3m-.9-1.2l-1.1.9m10.3-16.6l-7.2 15.6m7.2-15.6l-7.2 15.6m15.1.9L114 35.8m6.5 16.5L114 35.8"/><path fill="none" stroke="#8D8D8D" stroke-width=".25" d="M108.7 52.9c-.3.1-1.2-.2-1.5-.5-.4-.3-.6-.7-1-.9m6.9-11.6l.2 12.1m0-16v16"/><path fill="none" stroke="#E9E9EA" stroke-width=".25" d="M108.2 52.9c-.7-.3-1.7-.7-1.9-1.5"/><path fill="#A4A5A4" stroke="#A4A5A4" stroke-width=".25" d="M119.9 50.4c-.1.1-.2 0-.3.1 0 .2.3.1.4 0 0 0-.1 0-.1-.1m-1.3.2c-.1.1-.2 0-.3.1 0 .2.3.1.4 0 0 0-.1 0-.1-.1m-1.6.3c-.1.1-.2 0-.3.1 0 .2.3.1.4 0l-.1-.1m-1.9.2c-.1.1-.2 0-.3.1 0 .2.3.1.4 0 0 0-.1 0-.1-.1m-1.2.2c-.1.1-.2 0-.3.1 0 .2.3.1.4 0l-.1-.1"/><path fill="none" stroke="#8D8D8D" stroke-width=".25" d="M118.3 50.7L114 35.8m2.7 15.1L114 35.8m0 15.6l-1.7-1.5m.7.1l2.1 1.1M113.3 36v16m.7-16.2l-.2 16.1m-.1-16.1l-.7 16.6"/><path fill="#FFF" d="M125.3 54.3c-3.1.9-6.9.5-10.2.5-3.3-.1-7 .4-10.3-.1 1 1.4 3.4.4 4.8.3 1.8-.1 3.4.5 5.1.5 1.7 0 3.5-.4 5.2-.3 2.1.1 3.3.5 5.3-.5" opacity=".67"/><path fill="#996733" d="M185.8 43.5v.6l7 4.3 5.4-2.5L191 41z"/><path fill="#CB9866" d="M198.3 45.4L191 41l-1.2.4 7.4 4.4zm-1.3.6l-7.3-4.3-1.2.4 7.3 4.3zm-1.3.6l-7.4-4.3-1.2.4 7.4 4.4zm-1.4.7L187 43l-1.2.4 7.3 4.3zM191 41v-2.3l.6-.1v2.7z"/><path fill="#CB9866" d="M197.7 45.3v-2.8h.6v3.1zm-11.9-1.8v-2.3l.6-.2v2.9z"/><path fill="#996733" d="M180.3 46.2v.6l7 4.3 5.4-2.5-7.2-4.9z"/><path fill="#CB9866" d="M192.8 48.1l-7.3-4.4-1.2.4 7.4 4.4zm-1.3.6l-7.3-4.3-1.2.4 7.3 4.3zm-1.3.5l-7.3-4.2-1.2.4 7.3 4.4zm-1.3.8l-7.4-4.3-1.2.4 7.4 4.3z"/><path fill="#CB9866" d="M181.5 46.5v-2.7h-.8v2.3zm16.4-24.8v5.4l8.4 2.5V23l-8.1-2.1zm8.4 1.3l5.5-1.7v5.9l-5.5 2.4z"/><path fill="#FCCB98" d="M206.3 22.9l5.5-1.7v5.9l-5.5 2.4z" opacity=".25"/><path fill="#CB9866" d="M198.2 21.1l8.1 1.9-4.1-5.7z"/><path fill="#CC6632" d="M202.2 17.3l6.2-1.3 3.8 5.1-6.1 2.1z"/><path fill="#FCF8CD" d="M199.6 27.5c-.2.1-.3.3-.6.4-.5.3-1.2.2-1.7.5-.3.1-.5.4-.8.5-.5.2-1.2.2-1.7.2-1.3.1-3.9-.3-3.9 1.4 0 1.1 1.4 1.9 2.5 2.1.9.1 1.7-.1 2.6-.2.9 0 1.4.1 2.1.3 1 .3 3.3.4 3.9-.5.5-.9-.8-1.5-1.5-1.9-.6-.3-2.4-.9-.9-1.5.8-.3 1.9-.2 2.7-.7-.7-.3-2-.4-2.7-.6" opacity=".16"/><path fill="#CC6632" d="M202.4 17.4l-4.2 3.7-.4-.1 4.1-3.8 6.5-1.2zm5.5-2.1l.6-.2h.6l-.2.4z"/><path fill="#CB9866" d="M207.8 17.5l.1-2.2h.8l.4-.2v2.4l-.8.3z"/><path fill="#CCCBCB" d="M199.7 27.6V24l2.5.6v3.7z"/><path fill="#D1ECF2" d="M200.2 24.5l1.5.4V26l-1.6-.4zm-.1 1.4l1.6.5-.1 1.7-1.5-.4z" opacity=".68"/><path fill="#CC6632" d="M202.2 21.3l-.1 2.2-1.6-.3.2-2.2zm6.3 2.3V26l1.5-.5-.1-2.3z"/><path fill="#D1ECF2" d="M202.2 18.2l-2.1 1.8 3.6.6zm6.6 5.6l.8-.2.2 1.7-1.1.3z" opacity=".68"/><path fill="#6FBD44" d="M207.4 29.4c-.5 0-.6-.5 0-.5-.7-.5.4-.3.1-.8.1 0 .2-.1.3 0-.1-.2-.1-.9.3-.6 0-.3.3-.5.5-.2.1-.4.4-.3.6 0 .2-.3.7-.1.5.2.2-.2.5-.1.5.2.3 0 .6-.1.7.2-.1 0-.2.1-.2.1.3.1.2.5 0 .6-.1.1-.5.1-.7.1-.2.1-.4.1-.6.2-.8.2-1.4.3-2 .5"/><path fill="#989898" d="M140 18.4c1.3.5 3.5.4 5 .2.9-.1 1.6-.6 2.5-.7.6-.1 1.2.1 1.9.2 1.3.2 2.5.1 3.6.4 1.1.3 3 1.1 3.9 1.3-2.8.1-5.2.1-8-.1-1.7-.2-7.5.1-8.1-1.8m20.4 1.7c.9-.4 1.9-1.4 3-1.4.8 0 2.2.6 3 1" opacity=".2"/><path fill="#CA9731" stroke="#996733" stroke-miterlimit="10" stroke-width=".25" d="M135.7 45.1s-.1 0-.1-.1l.1.1c-.1-.1-.1-.1-.2-.1 0 0 0-.1-.1-.2v-.1c-.1-.1-.1 0-.1 0 .1.1.1.2.1.4 0 .1 0 .1.1.1s.1.1.2.1v-.2c0 .1.1.1.1.1 0-.1 0-.1-.1-.1zm-2.2-.4c.1 0 .1-.1.2-.1s.1-.1.2-.1h-.2l-.2.2z"/><linearGradient id="b" x1="668.548" x2="669.535" y1="45.133" y2="43.025" gradientTransform="translate(-533.682)" gradientUnits="userSpaceOnUse"><stop offset="0" stop-color="#fff"/><stop offset="1" stop-color="#cccbcb"/></linearGradient><path fill="url(#b)" stroke="#CCCBCB" stroke-miterlimit="10" stroke-width=".25" d="M136.8 44.4h-.3c-.1 0-.7-.3-.9-.4l-.4-.2s0-.1.1-.1c.1-.3 0-.6-.1-.9-.1-.1 0-.3 0-.4 0 0 .2-.4.1-.3 0-.1.1-.3 0-.2 0-.1.1-.2.1-.3-.1 0-.2.1-.3.2 0-.1 0-.1-.1-.1s-.1.2-.2.2c-.1.1-.2.2-.2.3-.1.2-.2.3-.2.5 0 .3.4.6.3 1 0 0 0 .1-.1.1s-.6 0-.7.2c-.1.1-.2.2-.2.3 0 .1 0 .2.3.2.1 0 .2-.1.3-.1.1 0 .3.2.9.3.6.1 1.2 0 1.2 0h.4s-.1 0-.2-.1h.2l.1-.1h-.2s.2 0 .2-.1h-.1z"/><linearGradient id="c" x1="668.274" x2="668.562" y1="42.046" y2="42.046" gradientTransform="translate(-533.682)" gradientUnits="userSpaceOnUse"><stop offset="0" stop-color="#fff"/><stop offset="1" stop-color="#cccbcb"/></linearGradient><path fill="url(#c)" stroke="#CCCBCB" stroke-miterlimit="10" stroke-width=".25" d="M134.6 42.1c.1 0 .4-.2.3-.3-.2.1-.3.2-.3.3z"/><linearGradient id="d" x1="668.336" x2="668.691" y1="42.126" y2="42.126" gradientTransform="translate(-533.682)" gradientUnits="userSpaceOnUse"><stop offset="0" stop-color="#fff"/><stop offset="1" stop-color="#cccbcb"/></linearGradient><path fill="url(#d)" stroke="#CCCBCB" stroke-miterlimit="10" stroke-width=".25" d="M134.7 42.3h.1c0-.1.3-.3.2-.4-.1-.1-.3.4-.3.4z"/><linearGradient id="e" x1="668.434" x2="668.755" y1="42.294" y2="42.294" gradientTransform="translate(-533.682)" gradientUnits="userSpaceOnUse"><stop offset="0" stop-color="#fff"/><stop offset="1" stop-color="#cccbcb"/></linearGradient><path fill="url(#e)" stroke="#CCCBCB" stroke-miterlimit="10" stroke-width=".25" d="M134.8 42.4v.1c.1-.1.3-.3.3-.4-.2 0-.3.2-.3.3z"/><linearGradient id="f" x1="668.395" x2="668.804" y1="42.472" y2="42.472" gradientTransform="translate(-533.682)" gradientUnits="userSpaceOnUse"><stop offset="0" stop-color="#fff"/><stop offset="1" stop-color="#cccbcb"/></linearGradient><path fill="url(#f)" stroke="#CCCBCB" stroke-miterlimit="10" stroke-width=".25" d="M135 42.3l-.2.2v.2c.1-.1.4-.3.4-.4 0-.1-.2-.1-.2 0z"/><linearGradient id="g" x1="668.41" x2="668.772" y1="42.657" y2="42.657" gradientTransform="translate(-533.682)" gradientUnits="userSpaceOnUse"><stop offset="0" stop-color="#fff"/><stop offset="1" stop-color="#cccbcb"/></linearGradient><path fill="url(#g)" stroke="#CCCBCB" stroke-miterlimit="10" stroke-width=".25" d="M134.7 42.7v.2c.1-.1.4-.2.3-.4 0-.1-.2.1-.3.2z"/><linearGradient id="h" x1="668.4" x2="668.805" y1="42.797" y2="42.797" gradientTransform="translate(-533.682)" gradientUnits="userSpaceOnUse"><stop offset="0" stop-color="#fff"/><stop offset="1" stop-color="#cccbcb"/></linearGradient><path fill="url(#h)" stroke="#CCCBCB" stroke-miterlimit="10" stroke-width=".25" d="M134.7 42.9c.2 0 .5-.1.4-.2-.1-.2-.3.1-.4.2z"/><linearGradient id="i" x1="668.504" x2="668.826" y1="42.899" y2="42.899" gradientTransform="translate(-533.682)" gradientUnits="userSpaceOnUse"><stop offset="0" stop-color="#fff"/><stop offset="1" stop-color="#cccbcb"/></linearGradient><path fill="url(#i)" stroke="#CCCBCB" stroke-miterlimit="10" stroke-width=".25" d="M134.8 42.9c.2 0 .4-.1.3-.2-.1 0-.2.2-.3.2z"/><linearGradient id="j" x1="668.573" x2="668.895" y1="42.995" y2="42.995" gradientTransform="translate(-533.682)" gradientUnits="userSpaceOnUse"><stop offset="0" stop-color="#fff"/><stop offset="1" stop-color="#cccbcb"/></linearGradient><path fill="url(#j)" stroke="#CCCBCB" stroke-miterlimit="10" stroke-width=".25" d="M134.9 43l.1.1c.1 0 .3-.2.2-.3-.1 0-.3.2-.3.2z"/><linearGradient id="k" x1="668.644" x2="668.936" y1="43.129" y2="43.129" gradientTransform="translate(-533.682)" gradientUnits="userSpaceOnUse"><stop offset="0" stop-color="#fff"/><stop offset="1" stop-color="#cccbcb"/></linearGradient><path fill="url(#k)" stroke="#CCCBCB" stroke-miterlimit="10" stroke-width=".25" d="M135 43.1l.1.2c0-.1.2-.1.2-.2-.1-.2-.3 0-.3 0z"/><linearGradient id="l" x1="668.691" x2="668.988" y1="43.25" y2="43.25" gradientTransform="translate(-533.682)" gradientUnits="userSpaceOnUse"><stop offset="0" stop-color="#fff"/><stop offset="1" stop-color="#cccbcb"/></linearGradient><path fill="url(#l)" stroke="#CCCBCB" stroke-miterlimit="10" stroke-width=".25" d="M135 43.3l.1.1c.1 0 .3-.1.1-.2 0-.1-.1 0-.2.1z"/><linearGradient id="m" x1="668.755" x2="669.014" y1="43.513" y2="43.513" gradientTransform="translate(-533.682)" gradientUnits="userSpaceOnUse"><stop offset="0" stop-color="#fff"/><stop offset="1" stop-color="#cccbcb"/></linearGradient><path fill="url(#m)" stroke="#CCCBCB" stroke-miterlimit="10" stroke-width=".25" d="M135.3 43.6v-.1s.1-.1 0-.1c.1 0 0-.1 0-.1s-.1 0-.1.1v.1c0 .1.1.3.1.4-.1-.2.1-.2 0-.3z"/><linearGradient id="n" x1="666.411" x2="668.359" y1="46.516" y2="43.27" gradientTransform="translate(-533.682)" gradientUnits="userSpaceOnUse"><stop offset="0" stop-color="#fff"/><stop offset="1" stop-color="#cccbcb"/></linearGradient><path fill="url(#n)" stroke="#CCCBCB" stroke-miterlimit="10" stroke-width=".25" d="M135.2 43.6v-.3s0-.1-.1-.1c0-.1 0-.1-.1-.1 0-.1-.1-.1-.1-.1 0-.1 0-.1-.1-.1h-.1v-.1c0-.1.1-.2.1-.3 0-.1 0-.2-.1-.1 0-.1 0-.2-.2-.2 0 0-.3.5-.3.7 0 .1 0 .1.2.5.2.3.1.6.1.6h.5l.1-.2c.1-.1.1-.1.1-.2z"/><linearGradient id="o" x1="669.903" x2="669.673" y1="41.94" y2="42.773" gradientTransform="translate(-533.682)" gradientUnits="userSpaceOnUse"><stop offset="0" stop-color="#fff"/><stop offset="1" stop-color="#cccbcb"/></linearGradient><path fill="url(#o)" stroke="#CCCBCB" stroke-miterlimit="10" stroke-width=".25" d="M135.7 43c-.1.1-.2.2-.2.3-.2.3-.4.6-.6.7 0 0 .1.2.3 0h.6v-.1c.1 0 .1-.1.1-.1h.1v-.1s.1 0 .1-.1v-.1h.1v-.2h.1s.1 0 .1-.1v-.1c0-.1.2-.2.2-.3h-.1s.1-.1.2-.1c0-.1 0-.1-.1-.1.1-.1.2-.1.2-.2-.2.1-.3.1-.5.2-.1.1-.4.2-.6.4z"/><linearGradient id="p" x1="668.486" x2="668.985" y1="41.836" y2="41.836" gradientTransform="translate(-533.682)" gradientUnits="userSpaceOnUse"><stop offset="0" stop-color="#333"/><stop offset="1" stop-color="#676767"/></linearGradient><path fill="url(#p)" stroke="#CCCBCB" stroke-miterlimit="10" stroke-width=".25" d="M135.2 41.8c0-.1.1-.2 0-.3-.1 0-.2.1-.3.1 0-.1.1-.2-.1-.1 0 0-.1.1-.1.2h.1s.1-.1.1 0c.1 0 0 .1 0 .1.2.1.2.1.3 0 .1.1 0 .2 0 .3 0 0 .2-.3 0-.3z"/><path fill="none" stroke="#CCCBCB" stroke-miterlimit="10" stroke-width=".25" d="M134.4 42.5l.1-.1m0 .2l.2-.2m-.2.4c.1 0 .1-.1.2-.1m-.2.2h.1m0 .1h.2m-.1.1h.2m-.1.1h.1"/><linearGradient id="q" x1="670.472" x2="667.484" y1="43.611" y2="42.984" gradientTransform="translate(-533.682)" gradientUnits="userSpaceOnUse"><stop offset="0" stop-color="#fff"/><stop offset="1" stop-color="#cccbcb"/></linearGradient><path fill="url(#q)" stroke="#CCCBCB" stroke-miterlimit="10" stroke-width=".25" d="M136.4 42.7c-.1-.1-.5.2-.6.2v.2c0 .1-.1.4-.2.6-.1.2-.5.3-.5.3 0 .1.3.1.4 0 .1 0 .2 0 .2-.1.1 0 .2 0 .1-.1.1 0 .1-.1.1-.1.1 0 .1-.1 0-.1.1 0 .2-.2.1-.2 0 0 .3-.2.1-.2.1 0 .3-.1.2-.2.1 0 .2-.1.1-.1 0 0 .1-.1 0-.2 0 .1 0 0 0 0z"/><path fill="none" stroke="#CCCBCB" stroke-miterlimit="10" stroke-width=".25" d="M136.3 42.8c-.1 0-.1.1-.2.1s-.2.1-.2.1m.4-.1c-.2.1-.3.1-.5.2m.3.2h-.2m.4-.2c-.1 0-.3.1-.4.1m.1.2h-.3m.2.3c-.1 0-.2 0-.2-.1m.2.2h-.2m0 .2l-.1-.1"/><linearGradient id="r" x1="670.023" x2="670.565" y1="42.652" y2="42.652" gradientTransform="translate(-533.682)" gradientUnits="userSpaceOnUse"><stop offset="0" stop-color="#333"/><stop offset="1" stop-color="#676767"/></linearGradient><path fill="url(#r)" stroke="#CCCBCB" stroke-miterlimit="10" stroke-width=".25" d="M136.8 42.4c-.1 0-.3.1-.4.2.1 0 .3 0 .2.1h.1s0 .1-.1.1c.1 0 .3-.3.2-.2 0 0 .2-.2 0-.2z"/><linearGradient id="s" x1="670.193" x2="670.373" y1="42.966" y2="42.966" gradientTransform="translate(-533.682)" gradientUnits="userSpaceOnUse"><stop offset="0" stop-color="#333"/><stop offset="1" stop-color="#676767"/></linearGradient><path fill="url(#s)" stroke="#CCCBCB" stroke-miterlimit="10" stroke-width=".25" d="M136.6 42.9v.2l.2-.1c-.1-.1-.2-.1-.2-.1z"/><path fill="none" stroke="#CCCBCB" stroke-miterlimit="10" stroke-width=".25" d="M135.4 43.8h.1m-.1-.1h.1"/><path fill="#CA9731" stroke="#996733" stroke-miterlimit="10" stroke-width=".25" d="M133.8 44.5l-.1-.1v-.1c0 .2-.1.2-.1.3v.2c.1 0 .1-.1.1-.1l.1-.1c-.1-.1 0-.1 0-.1h.2c-.1-.1-.2 0-.2 0z"/><path fill="#CBCB98" stroke="#996733" stroke-miterlimit="10" stroke-width=".25" d="M133.9 44.3c.1.1.1.1 0 0 .1 0 .1 0 0 0 .1 0 .1 0 0 0z"/><path fill="#333" d="M134 44.3c-.1 0-.1 0 0 0z"/><path fill="#F4F5F5" d="M134 44.3s-.1 0 0 0z"/><path fill="#989898" d="M134 44.3s.1 0 0 0c.1 0 0 0 0 0z" opacity=".12"/><g stroke="#996733" stroke-miterlimit="10" stroke-width=".25"><path fill="#CA9731" d="M136.1 45h-.2l-.1-.1s0-.1-.1-.1h-.1l.3.3c.1.1.1.1.2.1s.2.1.2.1c-.1-.2-.1-.2-.2-.3l.1.1c.1 0 0-.1-.1-.1z"/><path fill="none" d="M136.2 45.1c-.1 0-.2-.1-.3-.1"/></g><path fill="#989898" d="M133.9 44.3c0 .1-.1.1-.2.1v.1c.1 0 .2-.1.2-.2 0 .1.1.1 0 0 .1.1 0 .1 0 0z" opacity=".12"/><linearGradient id="t" x1="668.528" x2="670.224" y1="45.85" y2="43.358" gradientTransform="translate(-533.682)" gradientUnits="userSpaceOnUse"><stop offset="0" stop-color="#fff"/><stop offset="1" stop-color="#cccbcb"/></linearGradient><path fill="url(#t)" stroke="#CCCBCB" stroke-miterlimit="10" stroke-width=".25" d="M135.7 44.7l.1.1h.1l-.5-.1h.3z"/><path fill="#989898" d="M134 44.4c.1 0 .1 0 0 0 .1 0 .1 0 0 0zm2.5.2s.1-.1 0 0c0-.1 0-.1 0 0h-.2c-.1 0 0 0 0 0h-.3c-.1 0-.1-.1-.2-.1s-.2 0-.3-.1l-.1-.1-.1-.1c-.2-.1-.5 0-.6.1h-.4c-.1 0-.1.1-.2.1.2 0 .3.1.4.1.2.1.4.1.6.2h.9c.2 0 .4 0 .5-.1 0 .1.1.1.1 0h-.1z" opacity=".12"/><path fill="#CA9731" stroke="#996733" stroke-miterlimit="10" stroke-width=".25" d="M93.1 47.3s.1 0 .1-.1l-.1.1c.1-.1.1-.1.2-.1 0 0 0-.1.1-.2v-.1c.1-.1.1 0 .1 0-.1.1-.1.2-.1.4 0 .1 0 .1-.1.1s-.1.1-.2.1v-.2c0 .1-.1.1-.1.1l.1-.1zm2.2-.3c-.1 0-.1-.1-.2-.1s-.1-.1-.2-.1h.2l.2.2z"/><linearGradient id="u" x1="1023.14" x2="1024.128" y1="47.342" y2="45.234" gradientTransform="matrix(-1 0 0 1 1117.086 0)" gradientUnits="userSpaceOnUse"><stop offset="0" stop-color="#fff"/><stop offset="1" stop-color="#cccbcb"/></linearGradient><path fill="url(#u)" stroke="#CCCBCB" stroke-miterlimit="10" stroke-width=".25" d="M92.1 46.6h.3c.1 0 .7-.3.9-.4l.4-.2s0-.1-.1-.1c-.1-.3 0-.6.1-.9.1-.1 0-.3 0-.4 0 0-.2-.4-.1-.3 0-.1-.1-.3 0-.2 0-.1-.1-.2-.1-.3.1 0 .2.1.3.2 0-.1 0-.1.1-.1s.1.2.2.2c.1.1.2.2.2.3.1.2.2.3.2.5 0 .3-.4.6-.3 1 0 0 0 .1.1.1s.6 0 .7.2c.1.1.2.2.2.3 0 .1 0 .2-.3.2-.1 0-.2-.1-.3-.1-.1 0-.3.2-.9.3-.6.1-1.2 0-1.2 0h-.4s.1 0 .2-.1h-.2l-.1-.1h.2s-.2 0-.2-.1h.1z"/><linearGradient id="v" x1="1022.866" x2="1023.154" y1="44.255" y2="44.255" gradientTransform="matrix(-1 0 0 1 1117.086 0)" gradientUnits="userSpaceOnUse"><stop offset="0" stop-color="#fff"/><stop offset="1" stop-color="#cccbcb"/></linearGradient><path fill="url(#v)" stroke="#CCCBCB" stroke-miterlimit="10" stroke-width=".25" d="M94.2 44.3c-.1 0-.4-.2-.3-.3.2.1.3.2.3.3z"/><linearGradient id="w" x1="1022.928" x2="1023.283" y1="44.335" y2="44.335" gradientTransform="matrix(-1 0 0 1 1117.086 0)" gradientUnits="userSpaceOnUse"><stop offset="0" stop-color="#fff"/><stop offset="1" stop-color="#cccbcb"/></linearGradient><path fill="url(#w)" stroke="#CCCBCB" stroke-miterlimit="10" stroke-width=".25" d="M94.2 44.5h-.1c0-.1-.3-.3-.2-.4 0-.1.2.4.3.4z"/><linearGradient id="x" x1="1023.026" x2="1023.347" y1="44.503" y2="44.503" gradientTransform="matrix(-1 0 0 1 1117.086 0)" gradientUnits="userSpaceOnUse"><stop offset="0" stop-color="#fff"/><stop offset="1" stop-color="#cccbcb"/></linearGradient><path fill="url(#x)" stroke="#CCCBCB" stroke-miterlimit="10" stroke-width=".25" d="M94.1 44.6v.1c-.1-.1-.3-.3-.3-.4.1 0 .2.2.3.3z"/><linearGradient id="y" x1="1022.987" x2="1023.396" y1="44.681" y2="44.681" gradientTransform="matrix(-1 0 0 1 1117.086 0)" gradientUnits="userSpaceOnUse"><stop offset="0" stop-color="#fff"/><stop offset="1" stop-color="#cccbcb"/></linearGradient><path fill="url(#y)" stroke="#CCCBCB" stroke-miterlimit="10" stroke-width=".25" d="M93.9 44.5l.2.2v.2c-.1-.1-.4-.3-.4-.4 0-.1.1-.1.2 0z"/><linearGradient id="z" x1="1023.003" x2="1023.365" y1="44.866" y2="44.866" gradientTransform="matrix(-1 0 0 1 1117.086 0)" gradientUnits="userSpaceOnUse"><stop offset="0" stop-color="#fff"/><stop offset="1" stop-color="#cccbcb"/></linearGradient><path fill="url(#z)" stroke="#CCCBCB" stroke-miterlimit="10" stroke-width=".25" d="M94.1 44.9v.2c-.1-.1-.4-.2-.3-.4 0-.1.2.1.3.2z"/><linearGradient id="A" x1="1022.993" x2="1023.398" y1="45.006" y2="45.006" gradientTransform="matrix(-1 0 0 1 1117.086 0)" gradientUnits="userSpaceOnUse"><stop offset="0" stop-color="#fff"/><stop offset="1" stop-color="#cccbcb"/></linearGradient><path fill="url(#A)" stroke="#CCCBCB" stroke-miterlimit="10" stroke-width=".25" d="M94.1 45.1c-.2 0-.5-.1-.4-.2.1-.1.3.1.4.2z"/><linearGradient id="B" x1="1023.096" x2="1023.418" y1="45.108" y2="45.108" gradientTransform="matrix(-1 0 0 1 1117.086 0)" gradientUnits="userSpaceOnUse"><stop offset="0" stop-color="#fff"/><stop offset="1" stop-color="#cccbcb"/></linearGradient><path fill="url(#B)" stroke="#CCCBCB" stroke-miterlimit="10" stroke-width=".25" d="M94 45.2c-.2 0-.4-.1-.3-.2.1-.1.2.1.3.2z"/><linearGradient id="C" x1="1023.166" x2="1023.487" y1="45.204" y2="45.204" gradientTransform="matrix(-1 0 0 1 1117.086 0)" gradientUnits="userSpaceOnUse"><stop offset="0" stop-color="#fff"/><stop offset="1" stop-color="#cccbcb"/></linearGradient><path fill="url(#C)" stroke="#CCCBCB" stroke-miterlimit="10" stroke-width=".25" d="M93.9 45.2l-.1.1c-.1 0-.3-.2-.2-.3.1 0 .3.2.3.2z"/><linearGradient id="D" x1="1023.237" x2="1023.528" y1="45.338" y2="45.338" gradientTransform="matrix(-1 0 0 1 1117.086 0)" gradientUnits="userSpaceOnUse"><stop offset="0" stop-color="#fff"/><stop offset="1" stop-color="#cccbcb"/></linearGradient><path fill="url(#D)" stroke="#CCCBCB" stroke-miterlimit="10" stroke-width=".25" d="M93.8 45.3l-.1.2c0-.1-.2-.1-.2-.2.1-.2.3 0 .3 0z"/><linearGradient id="E" x1="1023.284" x2="1023.58" y1="45.459" y2="45.459" gradientTransform="matrix(-1 0 0 1 1117.086 0)" gradientUnits="userSpaceOnUse"><stop offset="0" stop-color="#fff"/><stop offset="1" stop-color="#cccbcb"/></linearGradient><path fill="url(#E)" stroke="#CCCBCB" stroke-miterlimit="10" stroke-width=".25" d="M93.8 45.5l-.1.1c-.1 0-.3-.1-.1-.2 0-.1.2 0 .2.1z"/><linearGradient id="F" x1="1023.347" x2="1023.606" y1="45.722" y2="45.722" gradientTransform="matrix(-1 0 0 1 1117.086 0)" gradientUnits="userSpaceOnUse"><stop offset="0" stop-color="#fff"/><stop offset="1" stop-color="#cccbcb"/></linearGradient><path fill="url(#F)" stroke="#CCCBCB" stroke-miterlimit="10" stroke-width=".25" d="M93.5 45.8v-.1s-.1-.1 0-.1c-.1 0 0-.1 0-.1s.1 0 .1.1v.1c0 .1-.1.3-.1.4.1-.2 0-.2 0-.3z"/><linearGradient id="G" x1="1021.003" x2="1022.951" y1="48.725" y2="45.479" gradientTransform="matrix(-1 0 0 1 1117.086 0)" gradientUnits="userSpaceOnUse"><stop offset="0" stop-color="#fff"/><stop offset="1" stop-color="#cccbcb"/></linearGradient><path fill="url(#G)" stroke="#CCCBCB" stroke-miterlimit="10" stroke-width=".25" d="M93.6 45.8v-.3s0-.1.1-.1c0-.1 0-.1.1-.1 0-.1.1-.1.1-.1 0-.1 0-.1.1-.1h.1V45c0-.1-.1-.2-.1-.3 0-.1 0-.2.1-.1 0-.1 0-.2.2-.2 0 0 .3.5.3.7 0 .1 0 .1-.2.5-.2.3-.1.6-.1.6h-.5l-.1-.2c-.1-.1-.1-.1-.1-.2z"/><linearGradient id="H" x1="1023.439" x2="1023.438" y1="46.287" y2="46.289" gradientTransform="matrix(-1 0 0 1 1117.086 0)" gradientUnits="userSpaceOnUse"><stop offset="0" stop-color="#fff"/><stop offset="1" stop-color="#cccbcb"/></linearGradient><path fill="url(#H)" stroke="#CCCBCB" stroke-miterlimit="10" stroke-width=".25" d="M93.7 46.3s-.1 0 0 0c-.1 0-.1 0 0 0z"/><linearGradient id="I" x1="1024.495" x2="1024.265" y1="44.149" y2="44.982" gradientTransform="matrix(-1 0 0 1 1117.086 0)" gradientUnits="userSpaceOnUse"><stop offset="0" stop-color="#fff"/><stop offset="1" stop-color="#cccbcb"/></linearGradient><path fill="url(#I)" stroke="#CCCBCB" stroke-miterlimit="10" stroke-width=".25" d="M93.1 45.2c.1.1.2.2.2.3.2.3.4.6.6.7 0 0-.1.2-.3 0H93v-.1c-.1 0-.1-.1-.1-.1h-.1v-.1s-.1 0-.1-.1v-.1h-.1v-.2h-.1s-.1 0-.1-.1v-.1c0-.1-.2-.2-.2-.3h.1s-.1-.1-.2-.1c0-.1 0-.1.1-.1-.1-.1-.2-.1-.2-.2.2.1.3.1.5.2s.4.2.6.4z"/><linearGradient id="J" x1="1023.078" x2="1023.577" y1="44.045" y2="44.045" gradientTransform="matrix(-1 0 0 1 1117.086 0)" gradientUnits="userSpaceOnUse"><stop offset="0" stop-color="#333"/><stop offset="1" stop-color="#676767"/></linearGradient><path fill="url(#J)" stroke="#CCCBCB" stroke-miterlimit="10" stroke-width=".25" d="M93.6 44.1c0-.1-.1-.2 0-.3.1 0 .2.1.3.1 0-.1-.1-.2.1-.1 0 0 .1.1.1.2H94s-.1-.1-.1 0c-.1 0 0 .1 0 .1h-.3c-.1.1 0 .2 0 .3 0-.1-.2-.4 0-.3z"/><path fill="none" stroke="#CCCBCB" stroke-miterlimit="10" stroke-width=".25" d="M94.4 44.7l-.1-.1m0 .2l-.2-.2m.2.4c-.1 0-.1-.1-.2-.1m.2.2h-.1m0 .1H94m.1.1h-.2m.1.1h-.1"/><linearGradient id="K" x1="1025.064" x2="1022.076" y1="45.819" y2="45.193" gradientTransform="matrix(-1 0 0 1 1117.086 0)" gradientUnits="userSpaceOnUse"><stop offset="0" stop-color="#fff"/><stop offset="1" stop-color="#cccbcb"/></linearGradient><path fill="url(#K)" stroke="#CCCBCB" stroke-miterlimit="10" stroke-width=".25" d="M92.4 44.9c.1-.1.5.2.6.2v.2c0 .1.1.4.2.6.1.2.5.3.5.3 0 .1-.3.1-.4 0-.1 0-.2 0-.2-.1-.1 0-.2 0-.1-.1-.1 0-.1-.1-.1-.1-.1 0-.1-.1 0-.1-.1 0-.2-.2-.1-.2 0 0-.3-.2-.1-.2-.1 0-.3-.1-.2-.2-.1 0-.2-.1-.1-.1 0 0-.1-.1 0-.2 0 .1 0 0 0 0z"/><path fill="none" stroke="#CCCBCB" stroke-miterlimit="10" stroke-width=".25" d="M92.5 45c.1 0 .1.1.2.1s.2.1.2.1m-.4-.1c.2.1.3.1.5.2m-.3.2h.2m-.4-.2c.1 0 .3.1.4.1m-.1.3h.3m-.2.2c.1 0 .2 0 .2-.1m-.2.2h.2m0 .2l.1-.1"/><linearGradient id="L" x1="1024.615" x2="1025.157" y1="44.861" y2="44.861" gradientTransform="matrix(-1 0 0 1 1117.086 0)" gradientUnits="userSpaceOnUse"><stop offset="0" stop-color="#333"/><stop offset="1" stop-color="#676767"/></linearGradient><path fill="url(#L)" stroke="#CCCBCB" stroke-miterlimit="10" stroke-width=".25" d="M92.1 44.7c.1 0 .3.1.4.2-.1 0-.3 0-.2.1h-.1s0 .1.1.1c-.1 0-.3-.3-.2-.2-.1-.1-.3-.3 0-.2z"/><linearGradient id="M" x1="1024.785" x2="1024.965" y1="45.175" y2="45.175" gradientTransform="matrix(-1 0 0 1 1117.086 0)" gradientUnits="userSpaceOnUse"><stop offset="0" stop-color="#333"/><stop offset="1" stop-color="#676767"/></linearGradient><path fill="url(#M)" stroke="#CCCBCB" stroke-miterlimit="10" stroke-width=".25" d="M92.3 45.1v.2l-.2-.1c0-.1.1-.1.2-.1z"/><path fill="none" stroke="#CCCBCB" stroke-miterlimit="10" stroke-width=".25" d="M93.4 46.1h-.1m.1-.2h-.1"/><path fill="#CA9731" stroke="#996733" stroke-miterlimit="10" stroke-width=".25" d="M95 46.7l.1-.1v-.1c0 .2.1.2.1.3v.2c-.1 0-.1-.1-.1-.1l-.1-.1c.1 0 .1-.1 0-.1h-.2.2z"/><path fill="#CBCB98" stroke="#996733" stroke-miterlimit="10" stroke-width=".25" d="M94.9 46.5s0 .1 0 0c0 .1-.1.1 0 0-.1 0-.1 0 0 0-.1 0-.1 0 0 0z"/><path fill="#333" d="M94.9 46.5c-.1.1-.1 0 0 0-.1 0-.1 0 0 0-.1 0-.1 0 0 0z"/><path fill="#F4F5F5" d="M94.8 46.5s.1 0 0 0z"/><path fill="#989898" d="M94.8 46.5s-.1 0 0 0z" opacity=".12"/><g stroke="#996733" stroke-miterlimit="10" stroke-width=".25"><path fill="#CA9731" d="M92.7 47.2h.2l.1-.1s0-.1.1-.1h.1l-.3.3c-.1.1-.1.1-.2.1s-.2.1-.2.1c.1-.1.1-.2.2-.3l-.1.1s0-.1.1-.1z"/><path fill="none" d="M92.6 47.3c.1 0 .2-.1.3-.1"/></g><path fill="#989898" d="M94.9 46.6c0 .1.1.1.2.1v.1l-.2-.2c-.1 0 0 0 0 0z" opacity=".12"/><path fill="#996733" d="M95.1 46.7c0 .1 0 0 0 0z"/><linearGradient id="N" x1="1023.12" x2="1024.816" y1="48.059" y2="45.567" gradientTransform="matrix(-1 0 0 1 1117.086 0)" gradientUnits="userSpaceOnUse"><stop offset="0" stop-color="#fff"/><stop offset="1" stop-color="#cccbcb"/></linearGradient><path fill="url(#N)" stroke="#CCCBCB" stroke-miterlimit="10" stroke-width=".25" d="M93.1 46.9l-.1.1h-.1l.5-.1s-.2.1-.3 0z"/><path fill="#989898" d="M94.8 46.7c-.1-.1-.1-.1 0 0-.1-.1-.1-.1 0 0zm-2.5.1c0-.1 0-.1 0 0h.2c.1 0 0 0 0 0h.3c.1 0 .1-.1.2-.1s.2 0 .3-.1l.1-.1.1-.1c.2-.1.5 0 .6.1h.4c.1 0 .1.1.2.1-.2 0-.3.1-.4.1-.2.1-.4.1-.6.2h-.9c-.2 0-.4 0-.5-.1 0 .1-.1.1-.1 0h.1z" opacity=".12"/><path fill="#CA9731" stroke="#996733" stroke-miterlimit="10" stroke-width=".25" d="M182.6 86.6c.1-.1.2-.1.3-.1-.1 0 0 0-.1-.1h.2c0-.1.1-.2.1-.3v-.2c0-.1 0-.1.1-.2s.2-.1.2-.1c-.1.3-.2.5-.3.8 0 .1-.1.2-.2.3-.1.1-.3.2-.4.3v-.1s-.1 0-.1.1c0-.2.1-.3.2-.4zm5-.7c-.2-.1-.3-.2-.4-.3-.1-.1-.3-.2-.4-.3l.4.1.4.5z"/><linearGradient id="O" x1="932.571" x2="934.793" y1="86.778" y2="82.035" gradientTransform="matrix(-1 0 0 1 1117.086 0)" gradientUnits="userSpaceOnUse"><stop offset="0" stop-color="#fff"/><stop offset="1" stop-color="#cccbcb"/></linearGradient><path fill="url(#O)" stroke="#CCCBCB" stroke-miterlimit="10" stroke-width=".25" d="M180.3 85.1c.2 0 .5.1.6 0 .1 0 1.7-.7 2-.8.4-.2.9-.5.9-.5-.1-.1-.1-.1-.1-.2-.3-.7-.1-1.3.2-1.9.1-.3.1-.7-.1-1 0-.1-.5-.9-.1-.8-.1-.1-.2-.7.1-.4 0-.2-.2-.4-.2-.6.2 0 .4.2.6.3 0-.2-.1-.3.2-.2.2.1.3.4.5.6.2.2.4.4.5.7.2.4.4.8.5 1.2 0 .6-.8 1.3-.7 2.2 0 0-.1.2.1.3.3 0 1.3.1 1.7.3.3.2.4.5.4.7 0 .3-.1.5-.7.4-.3-.1-.5-.2-.6-.1-.2 0-.6.4-2 .6-1.4.2-2.8-.1-2.8-.1l-.8-.1s.1-.1.4-.1h-.5s-.3-.1-.2-.2c.1 0 .3-.1.3-.1s-.5-.1-.6-.2c-.1-.1.1-.1.4 0z"/><linearGradient id="P" x1="931.954" x2="932.602" y1="79.832" y2="79.832" gradientTransform="matrix(-1 0 0 1 1117.086 0)" gradientUnits="userSpaceOnUse"><stop offset="0" stop-color="#fff"/><stop offset="1" stop-color="#cccbcb"/></linearGradient><path fill="url(#P)" stroke="#CCCBCB" stroke-miterlimit="10" stroke-width=".25" d="M185.1 80l-.2.2c-.1-.2-.6-.6-.4-.8.4.1.5.4.6.6z"/><linearGradient id="Q" x1="932.094" x2="932.892" y1="80.011" y2="80.011" gradientTransform="matrix(-1 0 0 1 1117.086 0)" gradientUnits="userSpaceOnUse"><stop offset="0" stop-color="#fff"/><stop offset="1" stop-color="#cccbcb"/></linearGradient><path fill="url(#Q)" stroke="#CCCBCB" stroke-miterlimit="10" stroke-width=".25" d="M185 80.4l-.3.1c-.1-.1-.6-.7-.5-.9.2-.3.8.7.8.8z"/><linearGradient id="R" x1="932.314" x2="933.036" y1="80.389" y2="80.389" gradientTransform="matrix(-1 0 0 1 1117.086 0)" gradientUnits="userSpaceOnUse"><stop offset="0" stop-color="#fff"/><stop offset="1" stop-color="#cccbcb"/></linearGradient><path fill="url(#R)" stroke="#CCCBCB" stroke-miterlimit="10" stroke-width=".25" d="M184.8 80.5l-.1.3c-.3-.2-.7-.6-.6-.9.3-.1.6.5.7.6z"/><linearGradient id="S" x1="932.226" x2="933.147" y1="80.79" y2="80.79" gradientTransform="matrix(-1 0 0 1 1117.086 0)" gradientUnits="userSpaceOnUse"><stop offset="0" stop-color="#fff"/><stop offset="1" stop-color="#cccbcb"/></linearGradient><path fill="url(#S)" stroke="#CCCBCB" stroke-miterlimit="10" stroke-width=".25" d="M184.3 80.4c.2.1.3.3.4.5l.1.5c-.3-.3-.8-.6-.9-1 0-.3.3-.2.4 0z"/><linearGradient id="T" x1="932.261" x2="933.075" y1="81.207" y2="81.207" gradientTransform="matrix(-1 0 0 1 1117.086 0)" gradientUnits="userSpaceOnUse"><stop offset="0" stop-color="#fff"/><stop offset="1" stop-color="#cccbcb"/></linearGradient><path fill="url(#T)" stroke="#CCCBCB" stroke-miterlimit="10" stroke-width=".25" d="M184.8 81.3l-.1.4c-.2-.3-.9-.5-.7-.9.3-.1.7.4.8.5z"/><linearGradient id="U" x1="932.24" x2="933.15" y1="81.52" y2="81.52" gradientTransform="matrix(-1 0 0 1 1117.086 0)" gradientUnits="userSpaceOnUse"><stop offset="0" stop-color="#fff"/><stop offset="1" stop-color="#cccbcb"/></linearGradient><path fill="url(#U)" stroke="#CCCBCB" stroke-miterlimit="10" stroke-width=".25" d="M184.8 81.7l-.2.2c-.1-.1-.8-.5-.7-.7.2-.2.8.4.9.5z"/><linearGradient id="V" x1="932.472" x2="933.196" y1="81.75" y2="81.75" gradientTransform="matrix(-1 0 0 1 1117.086 0)" gradientUnits="userSpaceOnUse"><stop offset="0" stop-color="#fff"/><stop offset="1" stop-color="#cccbcb"/></linearGradient><path fill="url(#V)" stroke="#CCCBCB" stroke-miterlimit="10" stroke-width=".25" d="M184.6 81.9l-.2.2c-.1-.1-.6-.4-.5-.6.2-.3.6.3.7.4z"/><linearGradient id="W" x1="932.628" x2="933.352" y1="81.968" y2="81.968" gradientTransform="matrix(-1 0 0 1 1117.086 0)" gradientUnits="userSpaceOnUse"><stop offset="0" stop-color="#fff"/><stop offset="1" stop-color="#cccbcb"/></linearGradient><path fill="url(#W)" stroke="#CCCBCB" stroke-miterlimit="10" stroke-width=".25" d="M184.5 82.1l-.3.2c-.1-.1-.6-.4-.4-.6.2-.2.6.2.7.4z"/><linearGradient id="X" x1="932.788" x2="933.443" y1="82.269" y2="82.269" gradientTransform="matrix(-1 0 0 1 1117.086 0)" gradientUnits="userSpaceOnUse"><stop offset="0" stop-color="#fff"/><stop offset="1" stop-color="#cccbcb"/></linearGradient><path fill="url(#X)" stroke="#CCCBCB" stroke-miterlimit="10" stroke-width=".25" d="M184.3 82.2l-.2.4c-.1-.1-.5-.3-.4-.5.1-.3.5 0 .6.1z"/><linearGradient id="Y" x1="932.894" x2="933.561" y1="82.54" y2="82.54" gradientTransform="matrix(-1 0 0 1 1117.086 0)" gradientUnits="userSpaceOnUse"><stop offset="0" stop-color="#fff"/><stop offset="1" stop-color="#cccbcb"/></linearGradient><path fill="url(#Y)" stroke="#CCCBCB" stroke-miterlimit="10" stroke-width=".25" d="M184.2 82.5l-.3.2c-.1-.1-.6-.3-.3-.4.2-.1.5.2.6.2z"/><linearGradient id="Z" x1="933.036" x2="933.619" y1="83.133" y2="83.133" gradientTransform="matrix(-1 0 0 1 1117.086 0)" gradientUnits="userSpaceOnUse"><stop offset="0" stop-color="#fff"/><stop offset="1" stop-color="#cccbcb"/></linearGradient><path fill="url(#Z)" stroke="#CCCBCB" stroke-miterlimit="10" stroke-width=".25" d="M183.5 83.3c-.1-.1-.1-.2 0-.3-.1-.1-.2-.2 0-.3-.1-.1-.1-.2 0-.2s.3.1.3.1l.1.1c-.1.3-.1.6-.2.9 0 0-.3 0-.2-.3z"/><linearGradient id="aa" x1="927.762" x2="932.145" y1="89.889" y2="82.585" gradientTransform="matrix(-1 0 0 1 1117.086 0)" gradientUnits="userSpaceOnUse"><stop offset="0" stop-color="#fff"/><stop offset="1" stop-color="#cccbcb"/></linearGradient><path fill="url(#aa)" stroke="#CCCBCB" stroke-miterlimit="10" stroke-width=".25" d="M183.8 83.3c-.1-.1 0-.3 0-.4 0 0 .1 0 .1-.1v-.1c0-.1 0-.1.2-.2 0-.1 0-.3.2-.3 0-.1.2-.3.3-.3 0-.1 0-.2.1-.3l.1-.1c0-.1-.1-.1.1-.1-.1-.2-.2-.4-.2-.6h.1c0-.1-.1-.3.2-.3-.1-.2.1-.4.4-.4 0 0 .7 1.2.6 1.6 0 .1.1.3-.5 1-.5.8-.2 1.3-.2 1.3l-1.2.1-.3-.4v-.4z"/><linearGradient id="ab" x1="933.243" x2="933.241" y1="84.403" y2="84.409" gradientTransform="matrix(-1 0 0 1 1117.086 0)" gradientUnits="userSpaceOnUse"><stop offset="0" stop-color="#fff"/><stop offset="1" stop-color="#cccbcb"/></linearGradient><path fill="url(#ab)" stroke="#CCCBCB" stroke-miterlimit="10" stroke-width=".25" d="M183.9 84.4s-.1 0 0 0c-.1 0-.1 0 0 0z"/><linearGradient id="ac" x1="935.619" x2="935.101" y1="79.594" y2="81.467" gradientTransform="matrix(-1 0 0 1 1117.086 0)" gradientUnits="userSpaceOnUse"><stop offset="0" stop-color="#fff"/><stop offset="1" stop-color="#cccbcb"/></linearGradient><path fill="url(#ac)" stroke="#CCCBCB" stroke-miterlimit="10" stroke-width=".25" d="M182.6 81.9c.3.2.4.5.6.8.3.6.8 1.3 1.4 1.6 0 0-.2.3-.7.1-.1.1-.7.1-.7-.1-.2.1-.4 0-.5 0 0 0-.1 0-.2-.1V84c-.2 0-.2-.1-.3-.2 0-.1-.1 0-.2-.1 0-.1 0-.1-.1-.2 0-.1-.1-.1-.2-.1v-.2c0-.1-.2 0-.2-.1-.1-.1 0-.1-.1-.2v-.2s-.2-.1-.3-.1l-.2-.1v-.1c-.1-.2-.5-.4-.5-.7h.2c-.1-.1-.3-.2-.4-.3-.1-.1-.1-.3.1-.2-.1-.1-.4-.3-.4-.5.4.1.7.2 1.1.4.6.3 1.1.5 1.6.8z"/><linearGradient id="ad" x1="932.43" x2="933.554" y1="79.358" y2="79.358" gradientTransform="matrix(-1 0 0 1 1117.086 0)" gradientUnits="userSpaceOnUse"><stop offset="0" stop-color="#333"/><stop offset="1" stop-color="#676767"/></linearGradient><path fill="url(#ad)" stroke="#CCCBCB" stroke-miterlimit="10" stroke-width=".25" d="M183.7 79.4c0-.1-.3-.6-.1-.6.2 0 .4.3.6.3-.1-.1-.2-.3.1-.2.1 0 .2.3.3.4-.1-.1-.3-.1-.3.1-.1-.1-.2-.2-.3-.1-.1.1 0 .2 0 .3-.1-.1-.2-.1-.3-.1-.2.1 0 .3.1.4-.1 0-.5-.5-.1-.5z"/><path fill="none" stroke="#CCCBCB" stroke-miterlimit="10" stroke-width=".25" d="M185.5 80.9c-.1-.1-.1-.2-.3-.3m.2.5l-.4-.4m.3.7c-.2-.1-.3-.2-.4-.3m.3.6c-.1 0-.2-.1-.2-.1m.1.4c-.1 0-.2-.1-.4 0m.2.2h-.4m.1.3h-.3"/><linearGradient id="ae" x1="936.9" x2="930.176" y1="83.351" y2="81.942" gradientTransform="matrix(-1 0 0 1 1117.086 0)" gradientUnits="userSpaceOnUse"><stop offset="0" stop-color="#fff"/><stop offset="1" stop-color="#cccbcb"/></linearGradient><path fill="url(#ae)" stroke="#CCCBCB" stroke-miterlimit="10" stroke-width=".25" d="M181 81.3c.3-.2 1.1.3 1.3.6 0 0 .1.2.1.4s.2 1 .4 1.4c.2.5 1 .7 1 .7 0 .2-.8.3-.8 0-.2.1-.4.1-.4-.2-.2 0-.4-.1-.2-.2-.2 0-.2-.1-.2-.3-.1 0-.3-.3-.1-.3-.1-.1-.5-.3-.2-.5-.1-.1-.6-.3-.2-.4-.1 0-.7-.3-.4-.4-.1-.1-.5-.3-.1-.3-.1-.1-.4-.4 0-.4-.1 0-.2 0-.2-.1z"/><path fill="none" stroke="#CCCBCB" stroke-miterlimit="10" stroke-width=".25" d="M181.2 81.5c.1.1.3.1.5.2s.3.2.5.2m-1-.1c.4.1.8.2 1.1.4m-.5.4c.2 0 .4.1.5.1m-.9-.5c.3 0 .7.2 1 .3m-.5.5h.6m-.4.4c.2 0 .4-.1.6-.1m-.5.5c.2 0 .3 0 .4-.1m0 .6c.1-.1.2-.1.3-.2"/><linearGradient id="af" x1="935.89" x2="937.109" y1="81.196" y2="81.196" gradientTransform="matrix(-1 0 0 1 1117.086 0)" gradientUnits="userSpaceOnUse"><stop offset="0" stop-color="#333"/><stop offset="1" stop-color="#676767"/></linearGradient><path fill="url(#af)" stroke="#CCCBCB" stroke-miterlimit="10" stroke-width=".25" d="M180.3 80.7c.3.1.8.3.9.4-.3-.1-.7-.1-.4.3h-.3c0 .1.1.1.1.2-.3 0-.7-.7-.4-.5 0-.1-.6-.5.1-.4z"/><linearGradient id="ag" x1="936.272" x2="936.677" y1="81.901" y2="81.901" gradientTransform="matrix(-1 0 0 1 1117.086 0)" gradientUnits="userSpaceOnUse"><stop offset="0" stop-color="#333"/><stop offset="1" stop-color="#676767"/></linearGradient><path fill="url(#ag)" stroke="#CCCBCB" stroke-miterlimit="10" stroke-width=".25" d="M180.7 81.7c-.1.1 0 .3.1.4-.1 0-.3-.2-.4-.3-.1-.1.1-.2.3-.1z"/><path fill="none" stroke="#CCCBCB" stroke-miterlimit="10" stroke-width=".25" d="M183.3 83.9c-.1 0-.2 0-.2.1m.1-.4h-.2"/><path fill="#CA9731" stroke="#996733" stroke-miterlimit="10" stroke-width=".25" d="M187 85.3c.1 0 .1-.3.3-.2V85c0 .5.1.4.3.6.1.1.1.2.1.4-.1-.1-.1-.1-.3-.2-.1-.1-.1-.2-.2-.2-.1-.1-.2-.2-.2-.3-.2.1-.3 0-.4-.1.1 0 .3.1.4.1z"/><path fill="#CBCB98" stroke="#996733" stroke-miterlimit="10" stroke-width=".25" d="M186.6 84.9s.1.1 0 .1h-.2c-.1 0-.1-.1 0-.1h.2z"/><path fill="#333" d="M186.6 84.9c0 .1 0 .1 0 0-.1.1-.1.1 0 0-.1.1-.1 0 0 0-.1 0-.1 0 0 0z"/><path fill="#F4F5F5" d="M186.5 84.9s.1 0 .1.1l-.1-.1c-.1 0-.1 0 0 0z"/><path fill="#989898" d="M186.4 84.9c-.1.1-.1.1-.1 0h.1z" opacity=".12"/><g stroke="#996733" stroke-miterlimit="10" stroke-width=".25"><path fill="#CA9731" d="M181.7 86.5h.3c-.1 0 0 0 0-.1h.2c0-.1.2-.2.3-.3l.1-.1v-.1c0-.1.1-.1.2-.2.2-.1.2 0 .2 0-.3.2-.4.5-.7.7-.1.1-.2.2-.3.2-.2 0-.4.1-.5.2l.1-.1h-.2c0-.1.2-.1.3-.2z"/><path fill="none" d="M181.5 86.7c.2-.1.4-.1.6-.1"/></g><path fill="#989898" d="M186.6 85c0 .1.2.2.4.1 0 0 0 .1-.1.1s-.2 0-.2-.1c-.1 0-.2 0-.2-.1 0 .1.1 0 .1 0z" opacity=".12"/><path fill="#996733" d="M187.1 85.3l.1.1s-.1 0-.1-.1z"/><linearGradient id="ah" x1="932.525" x2="936.343" y1="88.392" y2="82.782" gradientTransform="matrix(-1 0 0 1 1117.086 0)" gradientUnits="userSpaceOnUse"><stop offset="0" stop-color="#fff"/><stop offset="1" stop-color="#cccbcb"/></linearGradient><path fill="url(#ah)" stroke="#CCCBCB" stroke-miterlimit="10" stroke-width=".25" d="M182.7 85.7c-.1.1-.2.1-.3.1v-.1h-.3v-.1l1.2-.2c-.1.3-.4.5-.6.3z"/><path fill="#989898" d="M186.4 85.2h-.2.2zm-5.6.3l-.1-.1h.5c.1 0 .1 0 .1.1 0 0-.1.1.1.1h.6c.1 0 .3-.1.4-.2.2-.1.5 0 .7-.1.1-.1.2-.1.3-.2l.3-.3c.4-.3 1 .1 1.4.2.1 0 .3.1.4 0 .1 0 .2-.1.4 0 .1.1.2.1.4.2-.3 0-.7.2-1 .3-.4.2-.9.3-1.4.4-.7.1-1.4 0-2.1-.1-.3 0-.6-.1-.9-.1-.1 0-.4 0-.4-.1s.2-.1.3-.1z" opacity=".12"/><path fill="#F4F5F5" d="M106.3 84.2c4.2 0 6.2-3.2 10.7-3.1-2.7.8 1.2 2.6 3.4 1.6 1.9-.8 2.6-2.1 5.1-1.8-3 1.7 1 3.4 3.1 2.6 2.6-.9 4.3-3.1 7.5-1.6-2.8 0-.6 2.3 1.2 2.3-1.6 0-4 .4-4-1.5-1.3-.3-11 5.3-10-.4-2.1 0-7.5 5.4-8.2.2-2.7-.2-5.1 3.2-8 2M72 53.1c2.6 0 3.8-2 6.5-1.9-1.6.5.7 1.6 2.1 1 1.2-.5 1.6-1.3 3.1-1.1-1.9 1.1.6 2.1 1.9 1.6 1.6-.6 2.7-1.9 4.6-1-1.7 0-.4 1.4.7 1.4-1 0-2.5.3-2.4-.9-.8-.2-6.7 3.2-6.1-.3-1.3 0-4.6 3.3-5.1.1-1.7-.1-3.1 2-4.9 1.2" opacity=".23"/><path fill="#F4F5F5" d="M46 13.7c1.1 0 1.7-.9 2.9-.8-.7.2.3.7.9.4.5-.2.7-.6 1.4-.5-.8.5.3.9.8.7.7-.2 1.2-.8 2-.4-.8 0-.2.6.3.6-.4 0-1.1.1-1.1-.4-.3-.1-2.9 1.4-2.7-.1-.6 0-2 1.4-2.2.1-.7 0-1.4.9-2.1.5m15.9-4.2c1.1 0 1.7-.9 2.9-.8-.7.2.3.7.9.4.5-.2.7-.6 1.4-.5-.8.5.3.9.8.7.7-.2 1.2-.8 2-.4-.8 0-.2.6.3.6-.4 0-1.1.1-1.1-.4-.3-.1-2.9 1.4-2.7-.1-.6 0-2 1.4-2.2.1-.7 0-1.4.9-2.1.5m56.2.4c1.1 0 1.7-.9 2.9-.8-.7.2.3.7.9.4.5-.2.7-.6 1.4-.5-.8.5.3.9.8.7.7-.2 1.2-.8 2-.4-.8 0-.2.6.3.6-.4 0-1.1.1-1.1-.4-.3-.1-2.9 1.4-2.7-.1-.6 0-2 1.4-2.2.1-.7 0-1.4.9-2.1.5m14.5 1.1c1.1 0 1.7-.9 2.9-.8-.7.2.3.7.9.4.5-.2.7-.6 1.4-.5-.8.5.3.9.8.7.7-.2 1.2-.8 2-.4-.8 0-.2.6.3.6-.4 0-1.1.1-1.1-.4-.3-.1-2.9 1.4-2.7-.1-.6 0-2 1.4-2.2.1-.7 0-1.4.9-2.1.5m21.3-3.5c1.1 0 1.7-.9 2.9-.8-.7.2.3.7.9.4.5-.2.7-.6 1.4-.5-.8.5.3.9.8.7.7-.2 1.2-.8 2-.4-.8 0-.2.6.3.6-.4 0-1.1.1-1.1-.4-.3-.1-2.9 1.4-2.7-.1-.6 0-2 1.4-2.2.1-.7 0-1.4.9-2.1.5" opacity=".54"/><path fill="#F4F5F5" d="M49 92.6c5.3 0 7.8-4 13.4-3.9-3.4 1 1.5 3.2 4.3 2 2.4-1.1 3.3-2.7 6.4-2.3-3.8 2.2 1.2 4.3 3.9 3.3 3.3-1.2 5.5-3.9 9.4-2-3.6 0-.8 2.9 1.5 2.9-2 0-5 .6-5-1.9-1.6-.4-13.8 6.7-12.6-.6-2.6 0-9.5 6.7-10.4.3-3.5-.2-6.4 4-10 2.5" opacity=".23"/><path fill="none" stroke="#696" stroke-miterlimit="10" stroke-width="2" d="M0 0h219.9v128.8H0z"/><path fill="#FCF8CD" d="M48.4 128l-48.4.8.2-.8 64.7-1.8z"/><path fill="#D1ECF2" d="M38.5 122.3c.7.1 1.6.2 2-.4.1-.2.2-.4.3-.5.5-.6 1.4-.5 2.1-.4 2.4.3 4.7.7 7.1 1 4.1.6 8.2 1.2 12.1 2.6-7.9-.5-15.8-.2-23.6.9-2 .3-4.2.6-5.9-.4.7-.5 1.6-.5 2.5-.5.9 0 1.8.1 2.5-.3.8-.3 1.4-1.3.9-2z" opacity=".37"/><path fill="#FFF" d="M45.1 124.3c5.1-.1 10.1-1.2 15.1-.9.5 0 1.1.6.7.8-8.8 1.4-17.9 1.2-26.8 1 3.4-1.3 7.3-.9 11-.9z" opacity=".6"/></g></switch></svg>
