<svg xmlns="http://www.w3.org/2000/svg" version="1.0" viewBox="0 130 105.3 123.7"><switch><g><path fill="#9EC8EA" d="M61 148.4c1.1-3.3 1.2-6.5 3.4-9.6 2.7-3.9 6.9-7 11.6-8.3 3.5-1 7.5-.5 10.7 1 4 1.9 5.7 5.5 6.4 9.8 1.6 9.2-.9 18.2-1.8 27.4-.4 4.1-.9 8-.3 12.1.2 1 1.4 3.2.8 4.1-1.1 1.5-2.5-.9-3.6-1.1 0 .5-.1 2-.6 2.3-1 .6-1.7-.6-2.5-.9-.2 1.6-1.8 2.5-2.6.9-.9 1.2-1.5 2.1-3.1 1.3.1-.7 0-1.4-.4-1.8-1.6 1.5-4.7 3.9-5.2 0-2 1.1-7 3.7-7.2-.9-.1-2.5 3.7-6.8 4.8-9.4 1.3-3.3 2.1-6.6 1-10.1-.6-1.9-1.3-2.5-2.8-3.5-.8-.6-1.5-1.1-2.4-1.7-1.4-.8-4-1.4-4.6-3.1"/><linearGradient id="a" x1="3985.273" x2="3970.416" y1="181.523" y2="156.32" gradientTransform="matrix(-1 0 0 1 4039.773 0)" gradientUnits="userSpaceOnUse"><stop offset="0" stop-color="#c73928"/><stop offset="1" stop-color="#ef6824"/></linearGradient><path fill="url(#a)" stroke="#663817" d="M75.8 162.8c-5.4 2.1-11.5 4-22.6 3.8 5.1-2.1 9.6-6.5 13.9-9l3.9.5 4.8 4.7z"/><linearGradient id="b" x1="3989.774" x2="3974.915" y1="178.874" y2="153.666" gradientTransform="matrix(-1 0 0 1 4039.773 0)" gradientUnits="userSpaceOnUse"><stop offset="0" stop-color="#c73928"/><stop offset="1" stop-color="#ef6824"/></linearGradient><path fill="url(#b)" stroke="#663817" d="M72.6 159.1c-8.9 2.6-17.2 8.2-26.1 9.4.9-8.5 11.4-14.8 15.3-22.1 0 0 2.1.8 3.2.8s2.1.8 1.9 2.7c-.3 1.9.5 4.2 1.3 5 .8.7 4.4 4.2 4.4 4.2z"/><path fill="none" stroke="#663817" d="M58.7 158c.5-.4 1-1.2 1.6-1.5-2-.3-3.2 1.1-3.9 2.6.4-.1.7-.3 1.1-.3"/><path fill="#9EC8EA" d="M32 176.3c0-9.2-7.7-17.8-17.3-15.8-5.4 1.1-10.1 4.4-12.2 9.6-2.8 6.8-1 14.3.2 21.3 1.7 9.9 1.4 20.4-2.7 29.6 1 .2 2.1.1 2.7-.6-.3 1.6 1 2.9 2.1 1.3.5 1.1 1.5 2.8 2.7 1.4.2 1.6 1 3 2.8 2.5 1.6-.4 1.8-2.6 2.7-3.6.9 2.7 3.1-.1 4.2-.5 2.2-.8 5.1.3 5.5-3 .3-2-1.8-3.6-2.6-5.3-1.1-2.3-2-4.8-2.9-7.2-1.6-4.4-1.8-8.3-1.4-12.9.4-4.9.9-6.2 6-6.4 4.3-.2 9.2-1.4 8.8-6.9"/><linearGradient id="c" x1="10.535" x2="5.323" y1="32.857" y2="10.651" gradientTransform="rotate(-11.678 821.05 12.526)" gradientUnits="userSpaceOnUse"><stop offset="0" stop-color="#caca97"/><stop offset="1" stop-color="#969595"/></linearGradient><path fill="url(#c)" stroke="#676833" d="M17.2 186.3c-.7.2-1.2.8-1.9 1.1 1.4 2.6 10.9 2.4 13.8 3.3 4.4 1.4 9.2 2.8 12.8 5.9.8-.2.7-.1 1.1-.8-1.4-2-2.4-4.5-3.9-6.6"/><linearGradient id="d" x1="16.512" x2="4.277" y1="37.83" y2="11.319" gradientTransform="rotate(-11.678 821.05 12.526)" gradientUnits="userSpaceOnUse"><stop offset="0" stop-color="#caca97"/><stop offset="1" stop-color="#969595"/></linearGradient><path fill="url(#d)" stroke="#676833" d="M26.6 180.6c3.1-3.2.6-7 .5-10.6 1.3 1.7 2.5 8.8 4.8 4 1.4 4.3 6.5 7.8 8.4 11.8 1.6 3.3 4.4 9.2 2.3 12.7-1.1-3.6-8.3-8.2-11.6-9.7-5.5-2.5-11.2-1.4-16.5-3.1 1.7 0 8.4-.1 7.4-2.8 2.3-.6 3.7-.9 5.3-2.7"/><path fill="#969595" stroke="#343433" stroke-width=".25" d="M34.9 185.9c-2.3-.4-3.5-5.2-6.2-3.1-.1.5 0 .8.3 1.3 1.4-.1 2.3.6 3.6.9"/><path fill="#9EC8EA" d="M54.8 216.8c-2.1-10.9 8.4-24.9 22.4-22.8 12.9 1.9 11.1 16.6 13.9 25.7 2.5 7.9 7.7 13.5 14.1 18.3-1 1.7-2.9 2-4.7 1.9.2.5.1 1 .2 1.4-1 .1-2.2.1-3.1-.1-.3 2.6-3.1 2.2-4.9 1.8.2 2.3-1.8 2.8-3.2 1-.6 1.6-1.5 1.4-2.8 1.4-2 .1-.8-1.3-3.2-.1-3.9 2-3.5 5.1-5.3 8.4-5.1-3.5-5.5-11-5.2-16.7.2-3.1.6-6.1-.6-9-1.5-3.6-7.3-2.3-10.9-2.8"/><path fill="#C79532" stroke="#663817" stroke-width=".5" d="M46.8 232s4.6.1 7.8-1.2c3.2-1.4 10.1-5.5 10.8-5.8.7-.3-1.2-4.3-.9-4.6 2-2.5-17.7 11.6-17.7 11.6z"/><path fill="#C79532" stroke="#663817" stroke-width=".5" d="M60.3 219.3c-1.5-1.2-1.8-6.8-3.7-6.4 0 0-3.6 7.1-5.8 9.6-2.2 2.5-7.9 7.3-9.7 8.1-1.8.8.4 1.9 4 1.9 0 0 13-4.3 17.7-8.7 4.7-4.4 2.7-6.4.8-4.8-.9.6-2.8.7-3.3.3z"/><path fill="none" stroke="#663817" stroke-width=".5" d="M53.9 221c.3-.3.7-.5 1.2-.6.3 1.5-1.2 1.8-2.4 1.6"/><path fill="#FFCA67" d="M61 223.2c.3-.2.6-.3.8-.6-1.4-.9-5.5 3-6.8 3.8-2.6 1.7-6 2.1-8.5 3.6 2.5.2 5.7-1.3 7.8-2.2 2.5-1.1 4.7-2.4 6.7-4.3" opacity=".5"/></g></switch></svg>
