<svg xmlns="http://www.w3.org/2000/svg" version="1.0" viewBox="0 0 62.5 86.3"><switch><g><ellipse cx="13" cy="78.5" fill="#626363" opacity=".15" rx="13" ry="3.1"/><path fill="#EEEFF2" stroke="#B5B5B4" stroke-width=".2" d="M18.4 2.1s.6 1 .8 1.6c.2.6.3 1.5 0 1.9-.3.4-.3.8-.3.8s.5 4.6.9 5.7c.4 1.1 1.3 6.6 1.3 6.8 0 .2.5 8.4.5 9.2 0 .8.2.9.3 1.4.1.6.1 1.2.8 1.8.7.6 2.6 3.2 2.8 4.4.1 1.2.4 4.4.4 5.3v22.6l-1.3 13.7s-2 1.3-5.1 1.6c-3.1.3-8.6.5-9.7.3-1.1-.3-4.7-.5-5.2-.9-.6-.6-1.2-1.8-1.4-2.3-.2-.4-.4-4.9-.5-5.5-.1-.6.3-1.2.3-1.2L2.7 54V42.2c0-1.2.1-4 .3-4.8.2-.8.1-3 .9-4.2.9-1.2 1.8-2.3 2.1-2.8.2-.4.5-1.4.5-1.4l.4-7.3.3-3.2s.6-3 .7-3.9c.1-.8.3-3.2.4-3.9.2-.6.7-2.7.6-3.2 0-.5-.3-1-.2-1.2.2-.3-.3-.5-.4-1.3-.1-.8.7-1.9.6-2.1 0-.2.5-.8.5-.8h9z"/><path fill="#FEE664" d="M7.2 18.5s3.8.2 7.1.4c3.3.1 6.8-.1 6.8-.1s.4 6.4.4 7.4c.1 1-.1 2.8.5 3.9.7 1.1 3.4 3.1 3.4 4.3 0 1.1.2 31.9.2 31.9l-1 10.8-5.1 1.6-9.7.3-5.2-.9s-2.1-1.3-1.9-2.9c.3-1.6-.1-20 0-20.6 0-.6.1-14.5.1-14.9 0-.4 1.1-6.6 1.1-6.6l2.4-3.7.5-7 .4-3.9z"/><path fill="#010101" d="M20.6 19c-1.1.8-5.3.1-6.8 0-1.1 0-2.2 0-3.2.1-.5 0-1.2 0-1.7.1-1.1.2-.8 0-1 .9-.3 1.8-.3 3.8-.4 5.6-.1 1-.2 1.7 0 2.7.2 1.1.4 1.8-.2 2.9-1.1 2-2 3.5-2.3 5.7-.2.9.3 2-1.3 1.9-1.4-.1-.9-1.3-.7-2.3.1-.9.2-1.8.6-2.7C4.1 32.7 5 32 5.8 31c1.2-1.5.5-3.9.8-5.6.2-1.4.5-2.8.6-4.2 0-.6-.2-1.4-.1-2 .2-1.3.8-.9 2-.8 1.8.1 3.5.3 5.3.5 1.6.2 4 .5 5.6.1m1.8 9.9c-.7.1-1.9.7-2.2 1.2 1.4.1 1.6 0 2.8 1 1 .8 1.3 1.8 2.3 2.6-.4-.8-.7-1.5-1.4-2.2-.7-.7-1.2-1.9-2.1-2.4M4.8 71.2c-.8.5.3 3.3.3 4.2 0 1-.2 1.5-1.5.9-1.1-.5-.7-1.2-.8-2.1-.1-1.6-.5-2.9-.1-4.4.3-1.5 1.2-3.1.8-4.7.8 1.2 1.6 1.4 1.4 2.7-.1.9-.4 1.8-.4 2.8 0 1.5-.1 4 .6 5.4" opacity=".07"/><path fill="#FFF5F0" d="M2.5 38.8s8.4.9 11.8.6c3.4-.3 11.2-.6 11.2-.6l.1 15.8s-7.1.8-11.3.8c-4.2 0-11.6-.8-11.6-.8l-.2-15.8z"/><path fill="#604F59" d="M2.7 70.6s8.3.8 12.1.8c3.9 0 9.7-.8 9.7-.8l1-15.9s-9 1.4-11.3.8c-2.2-.6-11.6-.9-11.6-.9s-.4 7.4-.1 9.2c.3 1.9.2 6.8.2 6.8z"/><path fill="#F8D02A" d="M8.3 2.1s0-1.4.6-1.6c.5-.1 2.4-.5 4.3-.5 2 .1 4.6-.2 5 .3.4.4 1 1.3.9 1.5-.1.2 0 .2-.8.4s-1.9 0-1.9 0-.8 0-1.1.1c-.3.1-.4.1-.8 0-.3-.1-.9.1-.9.1s-.5-.4-.9-.4-.8.3-1.1.3c-.3 0-.8.2-1.1 0-.3-.2-1 .1-1 .1s-.5.2-.6-.1c0-.2-.6-.2-.6-.2z"/><path fill="#010101" d="M18.2 1.7c-.2.4-.3.3-.7.4-.3 0-.7 0-.8-.2-.4.1-1.3.4-1.7.3 0-.1-.1-.3 0-.4-.5.1-.9.3-1.3.3 0-.1-.1-.2-.1-.3-.6.1-1.1.2-1.7.3v-.2c-.2.1-.4.2-.5.3v-.3c-.1.6-1 .3-.6-.1-.1.2-.2.3-.4.4-.1-.1-.3-.1-.4-.2.4.3-.7.4-1 .3 0-.2.5-1.4.8-.5.4-.1.7-.2.9-.4.1.1.1.1.1.3-.2-.6.1-.4.6-.4.4.1.4.3.9-.1.1.1.1.3.1.4.1-.3.3-.5.6-.4 0 .3.6.5.9.3.1-.1.1-.8.6-.6.4.1-.2.7.5.7.6 0 .2-.6.7-.7.3.1.3.4.2.6.3.2.7.2 1 .1-.1-.2-.1-.4 0-.5.7.1.3.8 1.3.5" opacity=".07"/><text fill="#F8E17B" font-family="'MyriadPro-Regular'" font-size="9.372" transform="matrix(1.2443 0 0 1 2.027 66.014)">Beer</text><text fill="#030303" font-family="'Mistral'" font-size="6.77" transform="matrix(1.1395 .0258 .1505 .9886 3.76 48.693)">Premium</text><ellipse cx="41.7" cy="83.2" fill="#626363" opacity=".15" rx="15.8" ry="3.1"/><path fill="#FAEA09" d="M54.8 82c-1.1-5.3-8.4-5-11.5-4.9-1.9.1-11.2-.4-11.9 2.6-1.7 7.9 20.7 2 23.1 2.2"/><path fill="#F6EA20" d="M50.9 82.3c-1.4-2.1-7.2-2.7-9.3-2.7-3.1 0-6.6-.1-9.5 1.7.7 5.2 17.1 4.6 19.3 1.2-.7-1.1-1.5-2-2.6-1.8"/><path fill="#EFEDEC" stroke="#767474" stroke-width=".287" d="M26.4 43s-2.5-1.4-2.8.8c-.3 2.3 1.3 22.9 2 23.5l.7.7.1 4.7s-3.1-1.7-4.2-3.6c-1.1-1.9-2.2-16.2-2.1-18.5.1-2.3-.6-7.2 1.2-9.6 1.8-2.4 4.2-2.9 4.2-2.9l.9 4.9z"/><path fill="#DBDAD9" stroke="#DBDAD9" stroke-width=".287" d="M25.3 60.6c.4-1.2-.1-2.3-.4-3.4-.2-1.1-.1-2.2-.2-3.3-.1-.6-.1-1.1-.1-1.6s.3-.9.3-1.4c0-.5-.3-.9-.3-1.3-.2-1.8-.3-3.5.3-5.2.3-.7.8-1 1.1-1.6-1.2-.4-2.2-.2-2.6 1.1-.1.4-.2.9-.1 1.4 0 .5.3.9.3 1.4 0 .6-.1 1.2-.1 1.8-.1 1.4-.2 2.7 0 4.1.1.9.3 1.8.3 2.7 0 .9.4 1.8.3 2.8 0 1 .1 1.9.1 2.9 0 .5-.1 1 0 1.5 0 .5.3.9.4 1.4.1.9-.3 1.7 0 2.6.2.5.5 1 1 1.4.2.2.7.5 1 .3.3-.3-.5-.5-.6-.7-.5-.5-.5-1.6-.6-2.2-.3-1.5-.6-3.4-.1-4.7z"/><path fill="none" stroke="#010101" stroke-width=".415" d="M55.5 51.1c.5-.2 1.5-1.2 1.5-1.2"/><path fill="#ECEAE9" stroke="#FBD579" stroke-width=".415" d="M57.1 76.9c.4-1.6-.1-3.3 0-4.9.1-.8 0-1.5.1-2.4.2-2-.2-4.1-.2-6.2v-3.6c0-1.9.1-3.8.1-5.7 0-.7.6-2.7.1-3.1-.3.4-.5 1.4-.5 2-.1.7-.1 1.4-.1 2.1 0 .3-.1.7-.1 1 0 .3.2.7.1 1 0 .4-.2.7-.2 1 0 1-.1 2 0 3.1 0 .6-.1 1.3 0 1.9 0 .4.3.9.2 1.3 0 .4-.2.6-.2 1-.1 1.5.3 2.9.3 4.4 0 .8-.1 1.5 0 2.3.1.8 0 1.6.1 2.4 0 .9.2 1.6.3 2.4"/><ellipse cx="41.7" cy="37.1" fill="#EFEDEC" stroke="#C4C3C3" stroke-width=".287" rx="15.3" ry="2"/><path fill="none" stroke="#BFBDBC" stroke-width=".415" d="M28.3 51c-.9.3.1 1.7.6.1-.3-.2-.6-.2-.6.2m3.2 1.2c.3-.6 1.6-1.2 1.2 0-.5 1.2-1.6-.9-.2-.8"/><path fill="#B6762B" d="M32 82.1c1.6-.6 4.3 1.3 5.9 1.6 1.7.3 3.3.9 5.6.9 1.8 0 2.6-.8 4.4-1 1.8-.3 4-.6 5.5-2.2-.5-.9-4 1.3-5.1 1.4-1.8.1-3.6.4-5.3.3-1.8-.1-3.6-.5-5.4-.7-1.7-.2-3.7-.9-5.4-.7" opacity=".73"/><path fill="#92918F" d="M29.2 63.5c-.6-6.3-1.3-9.3 3.9-9.9-1.6-1.7-3.7-1-5.5-2.3-1.1 4.3-.2 10.1-.3 14.8-.2 4.7-1 10.3-.6 15 1.5.2 4.7 1.1 5.5-.6-4.2-1.4-3.8-3.5-3.4-8.6.3-4.7-1.3-8.9 1.7-12.5" opacity=".27"/><path fill="#BC812B" d="M28.5 53.5c2.3 1.9 3.5-1.1 3.8 2.6.2 1.9-.6 7.5-.6 9.7 0 5.1-.8 9.8-1 14.9-1.1.2-2.2.2-3.3.2-1.1-3 .6-9.9.8-13.4.2-4.1-.7-9.4.2-13.2" opacity=".16"/><path fill="none" stroke="#989797" stroke-width=".287" d="M57 81.2c0 .9-.7 1.1-2.4 2.4-.9.7-11.4 1.5-14.3 1.3-2.9-.1-9.2-1.1-10.7-1.9-1.5-.8-2.5-.8-2.7-1.9-.2-1.1.1-19.3 0-28-.1-8.8-.6-14.8-.6-14.8s6.9 1.1 15.3.5c8.4-.5 11.5.8 13.1 0 1.6-.8 2.4-1.2 2.2-1.7-.1-.5.3 41.1.1 44.1z"/><path fill="#FBD10F" d="M52.1 42.3c-2 .9-2.7 1.5-4.8 2-2.2.5-4.5.1-6.6-.2-2.3-.3-4.3 0-6.6-.6-1-.3-2.6-1-3.6-1.5s-2.7-1.9-3.7-2.6c0 0 .3 1.9.4 3 .2 1.2-.1 3.6 0 5.8.1 2.2-.1 9.7 0 12.6.1 2.9-.5 19.6-.4 20.2.2.6 9.4 3.7 10.9 3.9 1.5.2 14.7-.8 15.5-1 .8-.2 2.9-2.1 3.6-3.5.7-1.4 0-3.9 0-3.9s-.3-3-.4-3.6c-.1-.6-.2-6.5-.3-8.2-.1-1.7-.1-11.5 0-15.3.1-3.8.8-9.5.8-9.5"/><path fill="#FFF" d="M28.5 81.2c5.9-3.4 7.8-22.1 7.5-34.7-2.6 1.7-5.4-.5-7.9-2.1-.4 12.9-.8 25.2-.8 37.9" opacity=".21"/><path fill="#F9AD1C" d="M55.9 50.9c-.2-.2-.6-.2-.8-.4 0 .2-.2.4-.3.7-.5-.6-.9-.1-1.2.5-.9-1-2 1.6-2.7 0-.5.1-1.5.7-1.9 1-.1-.2-.2-.3-.3-.5-.5.5-1.2.1-1.6.9-.3-.7-.6-.3-1.1-.4-.6-.1-.8-.6-1.4.3-.8-1-2-.3-2.7-.1-.9.2-1.6.1-2.5 0-.9-.1-2-.6-3.1-.7-1.1-.1-2-.5-3-.5-.6 0-3 .4-3-.9-.4.1-1 .5-1.4.3-.6-.3-.6-1.8-1.3-1 .1-.2.1-.6.2-.8-1.2.4-1 3.4.1 2.2-.1 1.3.7.8 1.2.5.6 1.4 1.4.8 2.3.9.6.1 2.3.4 2.5 1.1.4.1.9.1 1.2-.2.4.6 1 0 1.5 0 .4 0 1.1.2 1.6.2s1.1-.1 1.7 0c.3.1.3.3.7.4.4 0 .7-.2 1-.3.1.2.2.4.3.5l.9-.6c1.1.4 2.5-.5 3.8-.6l.7.2c.3.1.7.2 1.1.2.9.1 1.2-.5 2-.7.3-.1.6.1.9.1.4 0 .7-.2 1.1-.3.7-.1 1.4 0 1.9-.3.7-.3 1.1-.6 1.6-.8 2.2-1 .7-3.2 0-.9z" opacity=".52"/><path fill="#ECECEC" d="M55.9 50.9c-.2-.2-.6-.2-.8-.4 0 .2-.2.4-.3.7-.5-.6-.9-.1-1.2.5-.9-1-2 1.6-2.7 0-.5.1-1.5.7-1.9 1-.1-.2-.2-.3-.3-.5-.5.5-1.2.1-1.6.9-.3-.7-.6-.3-1.1-.4-.6-.1-.8-.6-1.4.3-.8-1-2-.3-2.7-.1-.9.2-1.6.1-2.5 0-.9-.1-2-.6-3.1-.7-1.1-.1-2-.5-3-.5-.6 0-3 .4-3-.9-.4.1-1 .5-1.4.3-.6-.3-.6-1.8-1.3-1 .1-.2.1-.6.2-.8-1.2.4-1 3.4.1 2.2-.1 1.3.7.8 1.2.5.6 1.4 1.4.8 2.3.9.6.1 2.3.4 2.5 1.1.4.1.9.1 1.2-.2.4.6 1 0 1.5 0 .4 0 1.1.2 1.6.2s1.1-.1 1.7 0c.3.1.3.3.7.4.4 0 .7-.2 1-.3.1.2.2.4.3.5l.9-.6c1.1.4 2.5-.5 3.8-.6l.7.2c.3.1.7.2 1.1.2.9.1 1.2-.5 2-.7.3-.1.6.1.9.1.4 0 .7-.2 1.1-.3.7-.1 1.4 0 1.9-.3.7-.3 1.1-.6 1.6-.8 2.2-.9.7-3.2 0-.9z" opacity=".52"/><path fill="#FFF" d="M53.8 46.4c-9.1 5.9-9.6 41.5 2.4 35.3.8-10.7-1.4-23.6-1.4-34.8" opacity=".23"/><path fill="#010101" d="M54.2 54.7c-3.3-.1-6.6.3-10 0-.9-.1-1.7-.2-2.5-.3-.3 0-.8.1-1 0-.5-.2-.4-.6-.7-.7-.8-.3-1-.7-1.4.2-.2.4.3.9.3 1.3-1.7.1-2.8-.2-3-1.1-.1-.5.4-2.2-1.4-1.9-1.5.2-.7 1.7-.6 2.2 0 1.3-.8.9-2.6.6-.5-.1-1.7-.1-2.1-.4-.4-.3 0-.8-.4-1.1-1.4-1.2-2.1.1-2 .8.1.7 0 1.8 1.3 2.2 1.3.4 2.8-.2 4.1-.1-.2.8 1.5.7 2.4.5-.2-.2-.1-.5-.2-.7 2.2-.1 5.8-.2 6.5 1 .6-.1 1.2-.2 1.7-.2-.1-.2 0-.5-.1-.7 1.4-.3 4.1-.1 5.6 0-.3.2-.5.5-.5.8 1.2 0 3.4 0 2.8-1 1.9-.3 4.7 1.6 6.3.7 1.7-.9-1.8-2.3-3.4-2.1" opacity=".07"/><path fill="#FEE664" stroke="#83817D" stroke-width=".619" d="M32.1 82.4l.1-26.1m7.5 26.1V56.3M47 82.2V56.3m6.8 25.4V57"/><path fill="#FFF5F0" stroke="#DCDBD9" stroke-width=".619" d="M62 41c-1.2-1.5-3.5-.3-3.2-2.4.2-1.3 1.2-2.3.2-3.6-.5-.6-1.1-1-2.1-1.1-.8-.1-1.7.3-2.3 0-.8-.3-.8-1-1.9-1.2-.8-.1-1.8 0-2.5.1-.3.1-.1.5-.6.5-.6 0-.8-.4-1.3-.5-.7-.2-1.6-.8-2.3-.8-.9-.1-1.6.6-2.4.6-1-.1-1.2-1-1.9-1.2-.3-.1-.9 0-1.5.1-.4-.6-1.2-.2-1.8.1-.7.3-1.6.6-2.3.8-.5.2-.9.2-1.4.1-.4-.1-1-.5-1.4-.4-.7.2-.6.8-.3 1.4-.1-.1-.2-.1-.4-.2-.5-.1-1.5.2-1.9.4-.7.4-1.8 2.3-2.7 2.3-.9 0-.9 1.6-1.5.9-1.2-1.3-1.9 1.4-.8.9.6-.2.2 2.2.5 2.8 0 .1-.1-.1 0 0-.1.5.6.5.8 1 0 0 0 .1.1.1-.5.8-.5 1.9-.7 2.8l.1-.4c1.2 1.8-.2 5.9 4 3.9 1.9-.9 1.1-1.7 3.2-.5 1.5.9 1.4 1.8 3.6 1.6 2.8-.3 4.7-3.6 7.7-3.3 2.8.3 2.5 3.6 4.4 5-.6.7-.9 1.4-.2 2 .8-.3 1.6-.7 2.4-1.2 0 .1.1.1.2.2-.1.4 0 .7-.1 1.1 1.6.7 3.3-.3 4.4-1.2.7.7.3 2 1.3 2.2v.1c.2 1.2.6 1.7 2.2 1.1 1.4-.6 1.7-1.5 1.5-2.7-.1-.7-1.2-1.9-1.2-2.5 0-.6.8-.7 1-1.3.2-.4-.1-.8-.3-1.2-.2-.8-1.4-1.7-1.4-2.5 0-.5.9-.7.8-1.2-.1-.5-.9-.6-1.2-1 1.3-1.4 1.8 1 2.5 1.4 1.4-.2 1.6-2 .7-3.1z"/><path fill="#010101" d="M49.1 36c-1.1-1.3-1-2.3 1.2-2 0-1.8 2.4-.7 2.4.6m-14.2 6.6c.8.8 1.6.8 2.7 0 .9 1.1 2.1 1.4 3 .4-.2-.5-.5-.9-.8-1.3-.1 0-.3.5-.3.5-1.8-1.1-3.8-.2-4.6-2.7-.4 1.3-.1 2.9.3 3.8m18.3 5.6c.3.7 1.1 1.4 1.7 2 .4-.1 1-.4 1.3-.6-1.6.1-2.7-1.2-3.2-2.4.1.6.4.8.6 1.3m-26.6-4.6c.5-.4 1.5-.8 2-1.4.2.3.5.6.7 1-1.2 1.1-2.4.5-3.7 1.7m23.1 6c-.5.2-.3.9.3 1.1.5.2 1.2-.3 1.6-.4.6-.3.6-.4 1.2-.3.5.1.9.6 1.3 1 .5.5 1.5 2.3 2.1 1 .3-.6-.5-2.5-1-2.9.1.5.7 2.1-.1 2.3-.5.1-1.4-1.3-1.9-1.5-.9-.4-5 1.4-2.8-1-.6.2-.9.9-.8 1.5M30 47c1.3-.4 1.8-1.2 3.2-.1.7.6 2.6 2.3 3.2.5-1.6.7-2.2-1-3.6-1.3-.8-.2-3.7.3-3.1 1.4.1-.1.3-.2.4-.3m2.3-12.6c-1.6-.1-2.2 2-3.4 2.7-.5.3-1.3.4-2 .4s-1-.3-1.7-.4c.6 1.9 3.3.6 4.4-.1.8-.5 1.3-1.2 1.9-1.8.7-.7 1.5-.5 2.5-.7-.6-.3-1.6-.1-2.2 0m26.2 8c.1-.9 1.5-.8 2.2-.5.8.4 1 .9 1.1 1.6 1.7-2.1-4-2.6-3.4-1.2m-16.3-9.8c0 .1-.1 0 0 0 .5 1.2 1.3.8 2.3.4.8-.3 2.3-.7 2.1.7-1.1-1.1-1.9.1-3.2.2-.9.1-3-1.4-2.1-2.3.2.5 1 1.4 1.5 1.2" opacity=".07"/></g></switch></svg>
