<svg xmlns="http://www.w3.org/2000/svg" version="1.0" viewBox="0 0 75 105.2"><switch><g><ellipse cx="13.5" cy="99.8" opacity=".11" rx="13.5" ry="5.4"/><path fill="#E0D6AA" stroke="#E0D6AA" stroke-width=".25" d="M28.1 84.5c-.3 1.9-.9 4-1.6 5.7-.8 2.2-3 3.8-3.5 6.2.6.1 1.3-.2 1.5.5.4 1.4-1.7 2.2-2.7 1.9-1.4-.5-2.2-1.8-1.4-3.2 1-1.7 2.2-3.2 2.5-5.2.2-1.5 0-3.2 0-4.8 0-2 .3-3.7-1-5.3-.7-.8-2.3-1.8-1.9-3 .5-1.6 2.7-.7 3.8-.2 2.8 1.3 4.8 4.2 4.3 7.4z"/><path fill="#EFE6AD" stroke="#F6EDBE" stroke-width=".25" d="M9.1 79.1C7.2 79 5.2 81.7 4.3 83c-1 1.6-.9 3.6-.9 5.4 0 1.8.9 3.4 1.3 5.1.5 1.9 2.5 3.6 2.6 5.5-1.2.4-2.7-.4-2.9 1.6-.2 1.7 1.7 2.1 3 1.7 1.4-.4 2.7-1.8 2.7-3.2 0-1.7-1.5-2.2-1.6-3.7 1.3-.6 3.5 0 5-.1.8-.1 1.6-.3 2.4-.2 1.3.1 1 .4.6 1.6-.5 1.9-1.1 3.7 1 4.9 1.7.9 4 0 4-2.1 0-1.5-.8-.9-1.5-1.8s-.1-1.8.4-2.6c.9-1.7 2.2-3.3 2.5-5.2.3-1.6.4-3.4.2-5.1-.2-1.4-.5-6.5-1.9-7.3"/><path fill="#F6EDBE" stroke="#F6EDBE" stroke-width=".25" d="M9.5 61.8s2.3-3.2 5-2.7 5.3 3.6 5.3 3.6-1.9 3.1-.9 6.2c1.1 3 4.2 7.6 2.4 10.3-1.8 2.7-5 4.9-7.9 4.8s-8.8-3.7-8.7-7.5c.1-3.8.3-5.7 2.1-7.5 1.7-1.7 2.6-3.7 2.7-4.4.1-.8 0-2.8 0-2.8z"/><ellipse cx="13.8" cy="72.8" fill="#1F1114" rx="4.7" ry="3.1"/><ellipse cx="11.4" cy="66.2" fill="#1F1114" rx=".5" ry=".8"/><ellipse cx="16.2" cy="66.7" fill="#1F1114" rx=".5" ry=".8"/><path fill="#B5842C" stroke="#B5842C" d="M26.2 80.2c-.2-1.1 1.4-2.7 1.9-3.7.7-1.3 1.7-3.3 3.2-1.9 1.2 1.1.6 2.9-.5 3.8-.6.5-1.5.6-2.1 1.1-.6.5-1.1 1.3-1.6 1.8-.5-.6-.6-1.4-.9-2.1"/><path fill="#B5842C" stroke="#B5842C" d="M23.8 77.1s2.8 1.4 3.5 3.2c.7 1.8.8 4.2.8 4.2"/><path fill="none" stroke="#DFD5A0" stroke-width=".25" d="M13.8 76c.1 2-1 5.1-1.9 5.7-1.8 1.2-5.4.8-5.7-1.7"/><path fill="none" stroke="#DFD5A0" stroke-width=".25" d="M13.9 76.8c-.5 1.8-.7 3.3.8 4.7 1.3 1.1 4.1 1.8 5.2 0"/><path fill="#DFD5A0" stroke="#DFD5A0" stroke-width=".25" d="M9.1 82.3c.9-.3 1.8.2 2.6-.5.4-.4.6-1 1-1.4.4-.5.4-1 .7-1.5.2.3 0 1 .2 1.3 1 1.3.4.9 1 1.3.5.3 1 .5 1.5.6.4.1 1.3.2 1.4.5-.8.7-3.3.9-4.3.9-1.6 0-2.5-.6-3.9-1.1"/><ellipse cx="13.3" cy="80.8" fill="#1F1114" rx=".5" ry=".4"/><path fill="#B5842C" stroke="#B5842C" d="M18 61c2.5 1.5-.6 6-.1 8.6.4 1.9 2.5 9.1 4.2 9 3.1-.2 0-18.7-4.5-17.7m-5.2-.3c.5 3.7-3.7 5.6-5.4 8.6-1.7 3-1.4 5.5-1.9 8.9-9.7 1.7 3-23.2 7.3-17.5"/><ellipse cx="53.3" cy="99.5" opacity=".11" rx="14.6" ry="5.7"/><path fill="#E8B989" stroke="#CA8E5E" stroke-width=".25" d="M62.3 51.5c-.1 3.8 5.2 11.5 5.4 15.2.3 5-4.3-3.5-4.7-5-.7-2.9-2.3-5.8-3-8.7"/><linearGradient id="a" x1="36.746" x2="65.187" y1="72.957" y2="72.957" gradientUnits="userSpaceOnUse"><stop offset="0" stop-color="#f3e909"/><stop offset="1" stop-color="#70be44"/></linearGradient><path fill="url(#a)" stroke="#5CB647" stroke-width=".25" d="M36.7 67.2s.2 10.9 2.1 11.2c2 .3 9.5.1 10.5-.2 1-.3 1.6-5.5 1.6-5.5s.8 5.4 1.1 5.7c.3.3 5.7.1 7.7-.2 2-.3 5.2-.7 5.4-1.3.2-.6-1.3-8.5-1.6-8.4-.3 0-15.4.1-16.5.1-1.1 0-7.7-.9-8.3-1.1-.6 0-2-.3-2-.3z"/><path fill="#E8B989" stroke="#CA8E5E" stroke-width=".25" d="M42.7 78.7v6.1h4v-6.1h-4z"/><path fill="#F8B118" stroke="#F7991F" stroke-width=".25" d="M43 97c.9-.9-.3-12.3-.3-12.3h4s.8 10.6.8 11.7c0 1.1 4.6 6.5-3 6.5-6.9.1-2.4-5-1.5-5.9z"/><path fill="#65B946" d="M38.3 78.7s.3 0 .2-.5c-.1-.4-.8-1.3-.6-1.3.2 0 1.5 1.4 1.6 1.1.2-.3-.3-1.8-.8-2.8-.5-.9-1.9-3.4-1.6-3.4.2 0 1.3 1.8 1.9 2.8.6 1 1.9 2.7 2.2 2.3.3-.3-.3-1.4-.8-2-.5-.6-1.8-2.6-1.4-2.5.4 0 2 2 2 1.7 0-.3-.7-2.4-.7-2.8 0-.4-.1-.7 0-.6.1.1.5.6.6.5.1-.1-.6-1.7-.9-1.9-.4-.2-1-.7-.8-.7.2 0 1.9.7 1.9.8 0 .1.4 1.3.8 2.1.4 1 1.2 2.7 1.4 3.2.1.5 1 2.6.8 3.3-.2.7-1.6.4-2 .6-.4.2-2.8.1-3.1.1-.3 0-.5-.1-.5-.1" opacity=".63"/><path fill="#0F829F" stroke="#0F829F" stroke-width=".25" d="M58.5 70.4h4.7v5.1s-.3 1.3-2.4.8c-2.4-.5-2 0-2.1-.1-1.2-1.7-.2-5.8-.2-5.8z"/><path fill="#F8B118" stroke="#F8B118" stroke-width=".25" d="M58.5 70.4s.3 2.1 1.7 2.4c1.3.2 1.5.3 2.1.1.6-.2 1-.1 1-.5v-2h-4.8z"/><path fill="#DE1E4F" stroke="#030303" stroke-width=".25" d="M60.7 72.3h1.1v2h-1.1z"/><linearGradient id="b" x1="37.366" x2="41.239" y1="51.57" y2="51.57" gradientUnits="userSpaceOnUse"><stop offset="0" stop-color="#f5eb3b"/><stop offset="1" stop-color="#ffc908"/></linearGradient><path fill="url(#b)" stroke="#E8DE1A" stroke-width=".25" d="M37.4 51l2.4 2.1 1.4-3.1z"/><linearGradient id="c" x1="58.713" x2="63.791" y1="51.413" y2="51.413" gradientUnits="userSpaceOnUse"><stop offset="0" stop-color="#f5eb3b"/><stop offset="1" stop-color="#ffc908"/></linearGradient><path fill="url(#c)" stroke="#DBB727" stroke-width=".25" d="M58.7 49l5.1 3.7-3.8 1.1z"/><path fill="#E8B989" stroke="#CA8E5E" stroke-width=".25" d="M70.9 34.5s1.9-1.5 2.7-.7c.7.7 1.5 2.5 1.5 3.4 0 .9-2 3.4-2.5 3.4h-1.8l.1-6.1z"/><linearGradient id="d" x1="34.493" x2="64.743" y1="58.785" y2="58.785" gradientUnits="userSpaceOnUse"><stop offset="0" stop-color="#f7f29b"/><stop offset=".178" stop-color="#f9e877"/><stop offset=".444" stop-color="#fcdb48"/><stop offset=".68" stop-color="#fdd125"/><stop offset=".873" stop-color="#ffcb10"/><stop offset="1" stop-color="#ffc908"/></linearGradient><path fill="url(#d)" stroke="#C1A930" stroke-width=".25" d="M41.2 49.9s-6.7 15.5-6.7 16.5C34.5 67.5 45 69 48 69s16 .3 16.7-.4c.7-.7-4.3-14.2-4.8-16-.5-1.8-1.3-3.9-1.1-4 .4-.3-6.9.8-9 .8-2.1 0-8.6.5-8.6.5z"/><path fill="#E8B989" stroke="#CA8E5E" stroke-width=".25" d="M23.8 38.7s-.4 6.2.7 7.3c1 1 5.5 4.3 14.9 4.3s14.9-.7 18.3-.7c3.4 0 5.8-1.3 8.1-2.4 2.3-1 4-3.4 4.6-5.1.5-1.7 1-3.7.5-4.1-.5-.5 2.2-6 2.1-7.1 0-5.6-19.8-4.2-25.6-4.2s-21.6 4.7-22.6 5.6c-1 .8-1 6.4-1 6.4z"/><linearGradient id="e" x1="21.71" x2="73.046" y1="24.817" y2="24.817" gradientUnits="userSpaceOnUse"><stop offset="0" stop-color="#060708"/><stop offset=".419" stop-color="#080c1b"/><stop offset="1" stop-color="#0c163b"/></linearGradient><path fill="url(#e)" stroke="#000" stroke-width=".25" d="M29.8 36.9c5.7-2.1 13.4-9.1 16.1-6 2.7 3.1 3.6 1.7 3.6 1.7s4.2-5.3 7.4-3.1c13.7 9.5 15.6 6.4 16.2 2.3.6-3.9-4-13-7.3-13.7-6.8-1.5-8.2-4.9-10.4-4.9L49.9 11c-2.3 0-13.4 1.1-15.3 3.4-2 2.2-4.9 5.6-8.2 9.3-3.3 3.7-4 9.6-4.5 13.5-.5 2.5 2.2 1.7 7.9-.3z"/><path fill="#E8B989" stroke="#CA8E5E" stroke-width=".25" d="M23.8 38.7s-1.9-1.5-2.7-.7c-.7.7-1.5 2.5-1.5 3.4 0 .9 2 3.4 2.5 3.4h1.8l-.1-6.1z"/><linearGradient id="f" x1="55.607" x2="65.895" y1="42.294" y2="42.294" gradientUnits="userSpaceOnUse"><stop offset="0" stop-color="#e90f74"/><stop offset="1" stop-color="#fff5cb"/></linearGradient><circle cx="60.8" cy="42.3" r="5.1" fill="url(#f)" opacity=".1"/><linearGradient id="g" x1="40.67" x2="30.419" y1="43.668" y2="43.668" gradientUnits="userSpaceOnUse"><stop offset="0" stop-color="#e90f74"/><stop offset="1" stop-color="#fff5cb"/></linearGradient><circle cx="35.5" cy="43.7" r="5.1" fill="url(#g)" opacity=".1"/><path fill="#F9FCF9" stroke="#727171" stroke-width=".25" d="M51.1 35.7c.3.5 1.8 4.9 3.1 5 1.3.1 5.6-1 6.3-.9 1.3.1 5.5-1.4 6.2-1.4.7 0 3.5-.5 3.5-.5s1.2-2.8.8-4.2c-.4-1.4-.9-4.4-3.2-5.8-2.3-1.4-4.4-2.2-7.4-2.3-3-.1-9.7 4.6-11.3 4.4-1.6-.2-3.3-2-5.7-2.1-2.4-.2-2.9-.3-5-.2-2.1.2-6.2.7-7.7 1.5s-3.2 1.9-4 3.4c-.8 1.6-1.2 2.4-1.4 3.6-.2 1.1-.3 3.5-.1 3.5.2 0 4.9.8 8.2 1.1 3.2.3 9.9 1.1 10.9.8 1.1-.4 3.4-4.7 4.1-5.4.7-.7.8-1.1 1.3-1 .4.1 1.4.5 1.4.5z"/><ellipse cx="57.3" cy="33.3" fill="#030305" rx=".9" ry="1.1"/><ellipse cx="39.1" cy="35" fill="#030305" rx=".9" ry="1.1"/><linearGradient id="h" x1="33.32" x2="53.554" y1="6.905" y2="6.905" gradientUnits="userSpaceOnUse"><stop offset="0" stop-color="#060708"/><stop offset=".419" stop-color="#080c1b"/><stop offset="1" stop-color="#0c163b"/></linearGradient><path fill="url(#h)" stroke="#000" stroke-width=".25" d="M41.1 1l.9-.9 3.7 1s-1.1.4-1.1 1.1c0 .7 1.7 1.1 1.7 1.1s1 .3 1 1 .8 1.5 0 1.5-1.4.6-1.4.6v1.1s4.5-1.1 5.2-1.1c.7 0 .7.8.7.8l-2.2.8 1.2 1 1.1.8h1.7v.4s-.6-.5-1.1 0c-.5.5 0 1 0 1v1s-6.6-.6-8.9-.3c-2.3.3-8.1 2-8.4 1.7L34 12.4c-.4-.4-.9-.9-.4-.9s2.1.4 2.4.1c.3-.3-.7-1.3-.7-1.3s1.3.4 1.7 0c.2-.3.2-1.3.2-1.3h-1.6l-.1-1.1s2.8.6 2.8 0V6.3s-1.2.5-1.2 0 1.1-1 1.7-1H41c.5 0 1.4-.9 1.4-.9l-1-1-.4-.8h1.2l.9-.9h-.8L41.1 1z"/><path fill="none" stroke="#066880" stroke-width="2" d="M60.8 55.2c0 1.3-21.7-.6-21.7-.6"/><path fill="none" stroke="#000" stroke-width=".25" d="M41.4 0l1.1.4M41.1.2l1 .4M40.9.2l1 .5m-.8-.4l.7.4M41 .5l1 .3m-.9 0h.9m-.9-.7l1 .4M40.8.1l1.1.5m-.8-.5l1 .7m-1-.5l.7.3m-.9-.2l1.1.3m-.9 0h.9m2.6-.6v.6m-.7-.6l-.1.7m.4-.8l-.1.5m.4-.3l-.2.6m.4-.5l-.1.4m-.2-.7l-.1.5m.3-.3l-.1.6m.4-.5l-.2.4M42.5.2l.9.3M41.7.1l1.2.6m-.5-.6l1 .4M41.9 0l1.1.5M41.6.3l1.3.4m-.5-.6l.9.3m-1-.4l1 .4"/><path fill="#F5F6F7" d="M58.9 68.7s-.3-.1-.4-.6c-.1-.5-5.1-6.5-3.7-6.7.8-.1 5.1 6.8 5.3 6.5.2-.3-.9-1.8-1.5-2.9-.5-1.1-3.8-6.8-3.9-7.6-.1-.6 4.2 5.5 4.8 6.6.6 1.1 1.9 3 2.2 2.6.3-.4-.3-1.6-.8-2.3-.5-.7-2.8-3.9-2.7-4.3.2-.6 3.3 3.7 3.3 3.3 0-.4-2.6-3.9-2.6-4.3 0-.5.9.1.9.2.1.1 1.4.9 1.5.8.1-.1-1.7-2.1-2-2.3-.4-.2 0-.7.3-.6.2 0 1.9.8 1.9.9 0 .1.4 1.4.8 2.4.4 1.2 1.2 3.1 1.4 3.7.1.6 1 2.9.8 3.8-.2.8-1.6.4-2 .6-.4.2-2.8.1-3.1.1-.3 0-.5-.1-.5-.1m-23.6-1.8s-1 0-.9-.7c0-.2 2.6-3.8 3.4-5 .8-1.2 2.4-4.9 3.1-4.8.7.1-1.9 4.9-2.7 6.2-.9 1.3-2.9 4.3-2.9 4.3zm4.5 1c-.2 0-1.6-.6-1.4-2.3.2-1.7.9-2.5 1.2-3 .3-.4 1.2-.9.3-1.1-.6-.2-2.2 2.7-2.5 3.5-.3.8-1.1 1.9-.9 2.1.2.2.5.3 1.1.5.5.3 2.2.3 2.2.3z" opacity=".21"/><path fill="none" stroke="#066880" stroke-width="2" d="M35.1 64.2s28.9 1.9 28.9.6"/><path fill="#231F20" stroke="#030303" stroke-width=".25" d="M58.7 49l1.1 3.7c.1 0 .2-.1.2-.4 0-.2-.3-1.1-.6-1.7-.3-.6-.7-1.6-.7-1.6z" opacity=".09"/><path fill="none" stroke="#121321" stroke-width=".25" d="M52.2 15.1l.8-.5"/><path fill="none" stroke="#000" stroke-width=".25" d="M50.9 21l-3.1 4"/><path fill="#F5F5F6" stroke="#030303" stroke-width=".25" d="M63.8 22.4s-10.1-2.2-12-.8c-1.9 1.4-6.4 1.8-5.7.7.7-1.1 9.7-2.4 8.1-2.6-20.7-2.2-19.1-6.3 9.6 2.7zm-13.6-9c-1.6 1.4-11.2 1.3-13.7.3" opacity=".09"/><path fill="#F5F5F6" stroke="#030303" stroke-width=".25" d="M48.6 26.2c1.6.2 3.4-1.8 4.6-2.6 1.2-.8 2.7-2.2 2.4-3.8-.7.4-.9 1.4-1.3 2.1-.5.8-1.2 1.4-1.8 2.1-.7.7-1.2 1.1-2.1 1.3-.6.2-2 .1-1.8 1.2m-6.9-.7c-3.1.4-7.4-.1-9.8-2.2.8.2 1.7.7 2.5 1.1 1.1.4 2 .4 3.2.4 1.4 0 2.9-.1 4.4 0 0 .2-.1.5-.3.7m29.8 2.9c-1.8-.5-4.7-2.8-5.3-4.5 1.4.5 2.3.7 3.3 1.8.3.4.6 1 1 1.3.5.4 1.2.4 1.6.8 0 .3-.2.6-.4.7" opacity=".09"/><path fill="none" stroke="#D2812A" stroke-width=".25" d="M23.9 42.2s9.4 3.8 25.7 3.2c11.8-.4 16.3-3.5 18-4 1.8-.5 3.5-2.2 3.5-2.2"/><path fill="#F5F5F6" stroke="#030303" stroke-width=".25" d="M48.5 8.4c-.9.7-6.7.4-8.2-.2" opacity=".09"/><path fill="none" stroke="#D2812A" stroke-width=".25" d="M47 41s.6-1.4 2.4-1.2c1.8.2 2.1 1.3 2.1 1.3"/><path fill="#00844B" stroke="#95CC82" stroke-width=".25" d="M42.7 86.2h4v-.9h-4zm0 1.2h4v-.8h-4z"/><path fill="#F8B118" stroke="#F7991F" stroke-width=".25" d="M59.4 83.4c.9-.9-.3-3.6-.3-3.6h4s.8 1.8.8 2.9c0 1.1 4.6 6.6-3 6.6-6.9 0-2.4-5-1.5-5.9z"/><path fill="#E8B989" stroke="#CA8E5E" stroke-width=".25" d="M56.8 78.4s-1 5.7 1.1 6.9c.8.5-.7-.4-.7-.4l3.6-.9v-5.8l-4 .2zm3.7 6.1c.8-1.3 5.5-5.1.6-4.5M37.8 50.9s-3.2 10.3-2.3 11.7c.8 1.4 2 .1 3.6.3 1.6.2.6-1 3.3-.5 2.7.5 5.6-3.6 2.3-3.8-3.3-.2-4.8.9-4.8.9l.1-7.3-2.2-1.3zm29.4 13c7-2.6-.2 8.1-1.6 2.4"/><ellipse cx="64.3" cy="90.9" opacity=".11" rx="4.9" ry=".9"/><path fill="none" d="M22.5 55.1h11.3V63H22.5z"/><path fill="#FFCC05" stroke="#DCA927" d="M22.5 56.7h7.3v-1.6l4 3.9-4 4v-1.6h-7.3z"/></g></switch></svg>
