<svg xmlns="http://www.w3.org/2000/svg" version="1.0" viewBox="0 0 135.3 128.8"><switch><g><g opacity=".77"><path fill="#8E8C8C" d="M134.9 3.3c0 1.8-.9 3.3-2 3.3H2c-1.1 0-2-1.5-2-3.3C0 1.5.9 0 2 0h130.8c1.2 0 2.1 1.5 2.1 3.3zm.9 124.2c0 .8-.9 1.5-2 1.5H2.9c-1.1 0-2-.7-2-1.5s.9-1.5 2-1.5h130.8c1.2 0 2.1.7 2.1 1.5z"/><path fill="#B2B0B1" d="M135.3 5.2c0 1.1-.9 2.1-2 2.1H2.5c-1.1 0-2-.9-2-2.1 0-1.1.9-2.1 2-2.1h130.8c1.1 0 2 1 2 2.1zm0 6c0 .8-.9 1.5-2 1.5H2.5c-1.1 0-2-.7-2-1.5s.9-1.5 2-1.5h130.8c1.1 0 2 .7 2 1.5zm0 4.6c0 .8-.9 1.5-2 1.5H2.5c-1.1 0-2-.7-2-1.5s.9-1.5 2-1.5h130.8c1.1 0 2 .7 2 1.5zm0 4.6c0 .8-.9 1.5-2 1.5H2.5c-1.1 0-2-.7-2-1.5s.9-1.5 2-1.5h130.8c1.1 0 2 .7 2 1.5zm0 4.5c0 .8-.9 1.5-2 1.5H2.5c-1.1 0-2-.7-2-1.5s.9-1.5 2-1.5h130.8c1.1.1 2 .7 2 1.5zm0 4.8c0 .8-.9 1.5-2 1.5H2.5c-1.1 0-2-.7-2-1.5s.9-1.5 2-1.5h130.8c1.1 0 2 .7 2 1.5zm0 4.6c0 .8-.9 1.5-2 1.5H2.5c-1.1 0-2-.7-2-1.5s.9-1.5 2-1.5h130.8c1.1 0 2 .6 2 1.5zm0 4.6c0 .8-.9 1.5-2 1.5H2.5c-1.1 0-2-.7-2-1.5s.9-1.5 2-1.5h130.8c1.1 0 2 .6 2 1.5zm0 4.5c0 .8-.9 1.5-2 1.5H2.5c-1.1 0-2-.7-2-1.5s.9-1.5 2-1.5h130.8c1.1 0 2 .7 2 1.5zm0 4.5c0 .8-.9 1.5-2 1.5H2.5c-1.1 0-2-.7-2-1.5s.9-1.5 2-1.5h130.8c1.1.1 2 .7 2 1.5zm0 4.6c0 .8-.9 1.5-2 1.5H2.5c-1.1 0-2-.7-2-1.5s.9-1.5 2-1.5h130.8c1.1 0 2 .7 2 1.5zm0 4.6c0 .8-.9 1.5-2 1.5H2.5c-1.1 0-2-.7-2-1.5s.9-1.5 2-1.5h130.8c1.1 0 2 .7 2 1.5zm0 4.6c0 .8-.9 1.5-2 1.5H2.5c-1.1 0-2-.7-2-1.5s.9-1.5 2-1.5h130.8c1.1 0 2 .6 2 1.5zm0 4.7c0 .8-.9 1.5-2 1.5H2.5c-1.1 0-2-.7-2-1.5s.9-1.5 2-1.5h130.8c1.1 0 2 .7 2 1.5zm0 4.6c0 .8-.9 1.5-2 1.5H2.5c-1.1 0-2-.7-2-1.5s.9-1.5 2-1.5h130.8c1.1 0 2 .7 2 1.5zm0 4.6c0 .8-.9 1.5-2 1.5H2.5c-1.1 0-2-.7-2-1.5s.9-1.5 2-1.5h130.8c1.1 0 2 .7 2 1.5zm0 4.5c0 .8-.9 1.5-2 1.5H2.5c-1.1 0-2-.7-2-1.5s.9-1.5 2-1.5h130.8c1.1.1 2 .7 2 1.5zm0 4.7c0 .8-.9 1.5-2 1.5H2.5c-1.1 0-2-.7-2-1.5s.9-1.5 2-1.5h130.8c1.1 0 2 .7 2 1.5zm0 4.5c0 .8-.9 1.5-2 1.5H2.5c-1.1 0-2-.7-2-1.5s.9-1.5 2-1.5h130.8c1.1.1 2 .7 2 1.5zm0 4.6c0 .8-.9 1.5-2 1.5H2.5c-1.1 0-2-.7-2-1.5s.9-1.5 2-1.5h130.8c1.1.1 2 .7 2 1.5zm0 4.6c0 .8-.9 1.5-2 1.5H2.5c-1.1 0-2-.7-2-1.5s.9-1.5 2-1.5h130.8c1.1 0 2 .7 2 1.5zm0 4.7c0 .8-.9 1.5-2 1.5H2.5c-1.1 0-2-.7-2-1.5s.9-1.5 2-1.5h130.8c1.1.1 2 .7 2 1.5zm0 4.6c0 .8-.9 1.5-2 1.5H2.5c-1.1 0-2-.7-2-1.5s.9-1.5 2-1.5h130.8c1.1 0 2 .7 2 1.5zm0 4.6c0 .8-.9 1.5-2 1.5H2.5c-1.1 0-2-.7-2-1.5s.9-1.5 2-1.5h130.8c1.1 0 2 .7 2 1.5zm0 4.6c0 .8-.9 1.5-2 1.5H2.5c-1.1 0-2-.7-2-1.5s.9-1.5 2-1.5h130.8c1.1 0 2 .7 2 1.5zm0 4.5c0 .8-.9 1.5-2 1.5H2.5c-1.1 0-2-.7-2-1.5s.9-1.5 2-1.5h130.8c1.1 0 2 .7 2 1.5zm0 4.5c0 .8-.9 1.5-2 1.5H2.5c-1.1 0-2-.7-2-1.5s.9-1.5 2-1.5h130.8c1.1.1 2 .7 2 1.5z"/><path fill="#B56F29" d="M135.3 4.6c0 1.1-.9 2.1-2 2.1H2.5c-1.1 0-2-.9-2-2.1 0-1.1.9-2.1 2-2.1h130.8c1.1 0 2 .9 2 2.1zm0 6c0 .8-.9 1.5-2 1.5H2.5c-1.1 0-2-.7-2-1.5s.9-1.5 2-1.5h130.8c1.1 0 2 .7 2 1.5zm0 4.6c0 .8-.9 1.5-2 1.5H2.5c-1.1 0-2-.7-2-1.5s.9-1.5 2-1.5h130.8c1.1 0 2 .6 2 1.5zm0 4.6c0 .8-.9 1.5-2 1.5H2.5c-1.1 0-2-.7-2-1.5s.9-1.5 2-1.5h130.8c1.1 0 2 .6 2 1.5zm0 4.5c0 .8-.9 1.5-2 1.5H2.5c-1.1 0-2-.7-2-1.5s.9-1.5 2-1.5h130.8c1.1 0 2 .7 2 1.5zm0 4.8c0 .8-.9 1.5-2 1.5H2.5c-1.1 0-2-.7-2-1.5s.9-1.5 2-1.5h130.8c1.1 0 2 .7 2 1.5zm0 4.5c0 .8-.9 1.5-2 1.5H2.5c-1.1 0-2-.7-2-1.5s.9-1.5 2-1.5h130.8c1.1.1 2 .7 2 1.5zm0 4.6c0 .8-.9 1.5-2 1.5H2.5c-1.1 0-2-.7-2-1.5s.9-1.5 2-1.5h130.8c1.1.1 2 .7 2 1.5zm0 4.6c0 .8-.9 1.5-2 1.5H2.5c-1.1 0-2-.7-2-1.5s.9-1.5 2-1.5h130.8c1.1 0 2 .7 2 1.5zm0 4.5c0 .8-.9 1.5-2 1.5H2.5c-1.1 0-2-.7-2-1.5s.9-1.5 2-1.5h130.8c1.1 0 2 .7 2 1.5zm0 4.6c0 .8-.9 1.5-2 1.5H2.5c-1.1 0-2-.7-2-1.5s.9-1.5 2-1.5h130.8c1.1 0 2 .7 2 1.5zm0 4.6c0 .8-.9 1.5-2 1.5H2.5c-1.1 0-2-.7-2-1.5s.9-1.5 2-1.5h130.8c1.1 0 2 .7 2 1.5zm0 4.5c0 .8-.9 1.5-2 1.5H2.5c-1.1 0-2-.7-2-1.5s.9-1.5 2-1.5h130.8c1.1.1 2 .7 2 1.5zm0 4.8c0 .8-.9 1.5-2 1.5H2.5c-1.1 0-2-.7-2-1.5s.9-1.5 2-1.5h130.8c1.1 0 2 .7 2 1.5zm0 4.5c0 .8-.9 1.5-2 1.5H2.5c-1.1 0-2-.7-2-1.5s.9-1.5 2-1.5h130.8c1.1.1 2 .7 2 1.5zm0 4.7c0 .8-.9 1.5-2 1.5H2.5c-1.1 0-2-.7-2-1.5s.9-1.5 2-1.5h130.8c1.1 0 2 .6 2 1.5zm0 4.5c0 .8-.9 1.5-2 1.5H2.5c-1.1 0-2-.7-2-1.5s.9-1.5 2-1.5h130.8c1.1 0 2 .7 2 1.5zm0 4.6c0 .8-.9 1.5-2 1.5H2.5c-1.1 0-2-.7-2-1.5s.9-1.5 2-1.5h130.8c1.1.1 2 .7 2 1.5zm0 4.6c0 .8-.9 1.5-2 1.5H2.5c-1.1 0-2-.7-2-1.5s.9-1.5 2-1.5h130.8c1.1 0 2 .7 2 1.5zm0 4.6c0 .8-.9 1.5-2 1.5H2.5c-1.1 0-2-.7-2-1.5s.9-1.5 2-1.5h130.8c1.1 0 2 .7 2 1.5zm0 4.6c0 .8-.9 1.5-2 1.5H2.5c-1.1 0-2-.7-2-1.5s.9-1.5 2-1.5h130.8c1.1 0 2 .7 2 1.5zm0 4.7c0 .8-.9 1.5-2 1.5H2.5c-1.1 0-2-.7-2-1.5s.9-1.5 2-1.5h130.8c1.1 0 2 .7 2 1.5zm0 4.6c0 .8-.9 1.5-2 1.5H2.5c-1.1 0-2-.7-2-1.5s.9-1.5 2-1.5h130.8c1.1 0 2 .7 2 1.5zm0 4.6c0 .8-.9 1.5-2 1.5H2.5c-1.1 0-2-.7-2-1.5s.9-1.5 2-1.5h130.8c1.1 0 2 .7 2 1.5zm0 4.5c0 .8-.9 1.5-2 1.5H2.5c-1.1 0-2-.7-2-1.5s.9-1.5 2-1.5h130.8c1.1.1 2 .7 2 1.5zm0 4.6c0 .8-.9 1.5-2 1.5H2.5c-1.1 0-2-.7-2-1.5s.9-1.5 2-1.5h130.8c1.1 0 2 .6 2 1.5zm0 4.5c0 .8-.9 1.5-2 1.5H2.5c-1.1 0-2-.7-2-1.5s.9-1.5 2-1.5h130.8c1.1 0 2 .7 2 1.5z"/><path fill="none" stroke="#A25D26" d="M20.7.9v126.6M114.8.9v126.6"/></g></g></switch></svg>
