<svg xmlns="http://www.w3.org/2000/svg" version="1.0" viewBox="-.7 0 30.4 26"><switch><g><g stroke-width=".25"><path fill="#C19459" stroke="#630" d="M25.9 8.8c-2.1-4.7-5.2-6.6-9.2-7.3-3.9-.7-5.6 4.3-5.6 4.3S9.3 5.7 8 5.7s-4.2.5-6.2 2.1-2.3 3.8-1 7.7 5.5 7.1 10.3 9.2c4.7 2.1 11.4 1.5 14.9-1.1 3.9-3 2-10.1-.1-14.8zm-8.3 5.3s-2.8 0-4.8-1.6-3.2-3.6-2.4-4.7 2.8-1.1 5.2 1c2.6 2.3 2 5.3 2 5.3z"/><path fill="#DDB577" stroke="#630" d="M26.8 7.6C24.7 2.9 21.6 1 17.6.3 13.7-.4 12 4.7 12 4.7s-1.8-.2-3.1-.2-4.1.5-6.2 2-2.3 3.8-1 7.7 5.1 7 9.9 9c4.8 1.9 11.6 1.6 15.2-1.3 3.7-3 2.1-9.7 0-14.3zm-8.3 5.2s-2.8 0-4.8-1.6-3.2-3.6-2.4-4.7c.8-1 2.8-1.2 5.2 1 2.6 2.4 2 5.3 2 5.3z"/><path fill="#004AD1" stroke="#004AD1" stroke-linecap="square" stroke-linejoin="bevel" d="M3.6 8c-.3.4-.5.8-.7 1.2-.2.2-.6.7-.6 1 .2 0 .4-.1.6-.1 0 .2-.2.7-.3.9-.1.3-.5.6-.5.9.4 0 .9-.8 1.1-.5.4.4-.4 1-.3 1.3.4 0 .9-1.2.9-.1.7-.1 0 .5.1.7.2-.1.2-.4.4-.4.4-.1.1.4.1.5 0-.1-.6.3-.1.3.2 0 .3-.4.5-.4.2.2.5.2.5.4.2-.5.3-.4.4 0 .1.3.2.8.6.9.1 0 .3-.1.4-.1.3.1.1.4.2.5.3.3.4.2.3.7.4.2.8 0 1.1.1-.1-.1-.2-.3-.2-.4.2-.1.3 0 .5 0 .2-.1.3-.4.5-.5.1 0 .5.2.4.3.1.3-.2.2-.4.4.1.1.4 0 .5.1.2.2-.1.5.3.4-.1-.2 0-.2.1-.3 0 .5.4 1 .5 1.6.3-.4-.1-1.3-.4-1.8s-.4-.4-.2-.8c.1-.2.2-.2.2-.4s-.3-.2-.2-.5c.1-.7.4.2.6.2.3 0 .1-.3 0-.4s-.3-.1-.5-.3v-.8c.1-.5.6-.5.6-.8-.3-.2-.6.1-.8-.1-.2-.2-.2-.7.2-.7.1-.3-.1-.8-.2-1.1 0-.4 0-1-.3-1.3.2 0 .5 0 .5-.3-.2 0-.5.1-.7-.1 0 .1.2-.3.1-.5-.1-.3-.4-.4-.6-.6-.2-.2-.3-.4-.5-.6-.1-.1-.2 0-.3 0-.1-.1-.1-.2-.3-.3-.2-.1-.4-.1-.7-.2-.5-.1-1-.1-1.4-.2 0 .3-.3.3-.5.3 0 .4-.1.2-.3.3-.2.2-.3.3-.6.4 0 .1.1.2.2.3-.2.3-.4.2-.6.3-.3.1-.3.4-.6.4.2.1.3.3.3.4M12 15c-.1-.2-.1-.7-.5-.7-.2.5-.2.6.2.9.3.3.5.6.9.7.2-.4-.6-.7-.7-1.1m-.7-3c-.4-.6-.5.5.1.1 0-.1 0-.1-.1-.1M5.5 18c-.1-.1-.1-.3-.1-.5-.3-.1-.2.6-.2.8.1-.1.1-.3.1-.4m.8-.1l.3-.3c0 .2-.4.8-.5.4m2.9 2.2h-.2c-.1.6.7.2.2 0"/></g></g></switch></svg>
