<svg xmlns="http://www.w3.org/2000/svg" version="1.0" viewBox="0 129 220 129"><switch><g><path fill="#6D6D6D" stroke="#6D6D6D" d="M212.8 224s1.2-1.4 1.5-2.9c.3-1.4 4.9-74.5 4.9-74.5s-19.1 1.5-22.1 1.4c-3-.1-14.8-1.3-14.8-1.3s-.6 70 .4 73.5c1 3.4 7.4 6 15.6 5.8 8.2 0 14.5-2 14.5-2z" opacity=".06"/><path fill="#FCCE7C" d="M185.2 157.9l2 57.9s-1.2 4.4 5.5 5.1c6.6.8 14.8.6 16.8-1.5s3.5-5.4 3.5-5.4v-58s-13.7-1.4-17.3-.9c-3.5.6-7.9.3-7.9.3l-2.6 2.5z"/><ellipse cx="200" cy="146.9" fill="#6D6D6D" stroke="#6D6D6D" opacity=".06" rx="18.5" ry="1.4"/><path fill="#BCB792" d="M181.9 148.1l6.1 2.1s-.6 34.3 0 36.2c.6 1.9 2.4 16.6 2.4 18 0 1.4 2.8 4 0 4.5s-3.3-.9-3.7-1.7c-.3-.9-1.8-36.3-2.1-37.2-.3-.9-.6-10.7-.3-11.6.3-.9-3.3-4.9-2.4-6 .8-1.1 0-4.3 0-4.3z"/><path fill="#BCB792" d="M193.4 154.2s.3 24.1 0 28.7c-.3 4.5.1 18.5.1 18.5l1.3 9.4" opacity=".26"/><path fill="none" stroke="#BCB792" stroke-width="3" d="M191.8 222.9c4.2 1.9 22.3.7 20.6-6" opacity=".26"/><path fill="#BCB792" d="M209.1 149s5.1 2.9 4.6 6.2c-.4 3.4-2.2 21.6-2 25.8.3 4.2 1.2 19 0 22.7-1.2 3.7-2.1 6.5-5.2 6.2-3-.3-9.1.9-10.6 0s-4.2 0-4.2 0c3.7 2.5 2.8 3.5 6.6 3.3 3.9-.1 8 .3 10.6-.8 2.7-1.2 3-1.8 3.8-4.4.6-1.9 1.8-3.7 1.8-5.8" opacity=".26"/><path fill="none" d="M214.8 154.2s-12.4 5.2-17.9 4.5c-5.5-.7-15.2-2.9-15.2-2.9s6.5-3.8 13.1-4c6.5-.2 13.6-.7 14.9 0 1.3.7 4.3 1.3 4.3 1.3l.8 1.1z"/><path fill="none" stroke="#A7A7A6" stroke-width=".25" d="M213.6 224.8s1.2-1.4 1.5-2.9c.3-1.4 4.2-75 4.2-75s-17.5 1.8-20.5 1.7c-3-.1-17.1-1.1-17.1-1.1s.9 70.1 1.9 73.7c1 3.4 7.4 6 15.6 5.8 8.1-.3 14.4-2.2 14.4-2.2z"/><path fill="none" stroke="#A7A7A6" stroke-width=".25" d="M219.3 146.9c0 .8-6.9 1.1-18.5 1.4-10.2.3-18.5-.7-18.5-1.4 0-.8 8.3-1.4 18.5-1.4 10.3-.1 18.5.5 18.5 1.4z"/><ellipse cx="198.1" cy="157.1" fill="#D3DB77" opacity=".36" rx="14.8" ry="1.5"/><path fill="#F37A2D" d="M200.4 153.3s.9-.3 2.7-.7c1.8-.3 3.8-.7 4.4-.7.7 0 3.1.1 4.2.4 1.1.3 2.3.6 2.5.8 0 0 .1-.3.2.6.2.9 0 2.2-.2 2.3-.2.2 0 .3-.2.6s-2 1.8-2.3 2.1c-.2.2-1.9 1.3-2.5 1.7-.6.3-1.4.8-1.7.9-.2.1-1.1.3-1.5.6s-1.7 1-2.4 1.2c-.9.2-2.2.4-2.5.7-.3.1-1.4.3-2.1.6-.7.1-1.1.1-2.4.3-1.3.2-2 .1-2.5 0-.6-.1-1.3-.3-1.8-.4-.4-.1-1.4-.7-1.8-1.2-.3-.6-.7-.8-.6-1.2.1-.3-.1-1.2.6-2s.9-1.7 2.3-2.7c1.4-1 3-2 4.1-2.5 1.1-.4 2-.9 2.3-1.1.4.1 1.2-.3 1.2-.3z"/><path fill="#FCF7E3" d="M199.8 153.7s.9-.2 2.5-.6c1.7-.3 3.5-.7 4.2-.7.6 0 3 .1 4 .4 1 .3 2.1.6 2.3.8 0 0 .1-.2.2.6.2.9 0 2.1-.2 2.2-.1.2 0 .3-.2.6s-1.9 1.8-2.2 2c-.2.2-1.8 1.2-2.4 1.5-.6.3-1.3.8-1.7.9-.2.1-1.1.3-1.5.6-.4.2-1.5.9-2.3 1.1-.8.2-2.1.4-2.4.6-.3.1-1.3.3-2 .6-.7.1-1.1.1-2.3.3-1.2.1-1.9.1-2.3 0-.4-.1-1.2-.3-1.7-.4-.4-.1-1.3-.6-1.7-1.1-.3-.6-.7-.8-.4-1.1.1-.3-.1-1.2.6-1.9.6-.7.8-1.5 2.2-2.4 1.4-1 2.9-1.9 3.9-2.3 1-.4 1.9-.9 2.2-1 .3-.5 1.2-.7 1.2-.7z"/><path fill="#F26C21" d="M201.2 159.1l.4-.2 2.2 1.1c.4.1 1.2.4 1.3.6.2.1.2.6.2.6.1.1-1.1.6-1.7.8-.7.2-1.5.8-2.1.8s-.9.2-1 0c-.1-.2.2-1.5.1-1.8-.1-.2.2-1.1.2-1.1l.1-.6.3-.2zm5.8 1.4s.3-.1 1.2-.7c.9-.6.9-.8 1.3-1.1.4-.3.9-.9 1.1-1 .1-.1.4-.3.3-.4-.1-.1-2.1.2-3 .3-.9 0-4.3.6-4.8.7-.3.1-1.5.4-1.5.4s.8.2 1 .4c.2.2 1.4.8 2 .9.4.1 1.2.4 1.3.4.1 0 .7.1.7.1h.4z"/><path fill="#F26C21" d="M202.2 158.2s.2.2.8.1c.4-.1 7-1 7.9-1.2s.9-.2.9-.6c.1-.3-.1-.8-.1-1 0-.2.1-.6.1-.8 0-.1.3-.2-.1-.3-.6-.1-1.1 0-1.4.2-.3.1-4.4 1.9-4.8 2.1-.3.1-1.5.7-1.7.8l-1.1.6-.5.1zm-.8-.1s-.2-.4-.4-.7-.4-.9-.6-1.2-.3-1-.4-1.1c-.1-.2-.4-.3-.1-.7.3-.3.4-.3 1.1-.6.8-.2 1.9-.3 2.1-.4.2-.1 1.1-.2 1.1-.2l.9-.1c0 .1-.6 1.2-1 1.5s-1.3 1.4-1.4 1.7-.7 1-.7 1l-.4.6-.2.2zm.9-.2s1.1-.4 2-1c1-.4 2-.9 2.9-1.2.8-.3 2.2-.9 2.5-1s1.2-.6 1.2-.7c0-.1-.3-.6-.7-.6-.3 0-1.3-.3-1.8-.3-.4-.1-1.2-.1-1.4-.1s-.7 0-1 .2c-.3.1-1.3 1.3-1.3 1.3s-.4.8-.7 1c-.2.2-.6.7-.7.8-.2.1-.7.9-.9 1-.1.1-.3.6-.3.6h.2z"/><path fill="#F26C21" d="M200.8 158.3s-.3-.8-.4-1c0-.2-.4-.7-.3-.9 0-.2.2-1.1 0-1.1s-.4-.9-.7-.9c-.1 0-.7 0-1.1.2-.4.2-1.7.9-1.9.9-.2.1-1.1.7-1.3.8l-1.1.6c-.4.3-.8.6-1 .8-.1.2-.1.3-.1.3s4 .6 4.3.4c.3-.1 2-.1 2-.1l.9.1.4-.1h.3zm-9.6 3.8s-.2-.2-.2-.6c0-.3.1-1 .2-1.2.1-.2.2-.6.3-.8.2-.2.3-.8.6-.9l.9-.3s5.3.8 6.3.4c.4-.1.8.1.8.1s-.6.4-1 .6c-.3.1-4.1 1.3-4.5 1.5-.4.2-2.3.9-2.3.9l-.9.3h-.2zm3.5 1.7s.3-.6.9-.9c.4-.3.6-.6.9-.8s1-.9 1-.9.6-.8.8-.9c.2-.1 1.4-1 1.7-1.1.2-.1.3-.1.6-.2.2-.1.3.6.3.7-.1.1-.3.8-.2.9.1.1-.1 1.2 0 1.3.1 0 .1.7 0 .8-.1.1-.1.3-.3.3-.2.1-1.4.2-1.7.3-.1 0-1.4.2-1.4.2s-.4 0-.8.1h-.9c-.1.1-.9.2-.9.2z"/><path fill="#F26C21" d="M191.7 162.3s-.2.1-.1.3c.1.2.9.7 1.1.8.2.1.7.4.7.4s.1.2.7.1c.4-.1.8-.7 1.1-.8.3-.1 1.5-1.3 1.5-1.3l1.1-.9.7-.8.9-.6-.1-.2s-2.3.8-2.5.9c-.2.1-1.9.7-2.1.8s-1.4.6-1.4.6l-1.2.4c-.2.1-.4.3-.4.3z"/><path fill="#F7EB24" d="M201.9 159.3c.4.3.2.7.3 1.1.1.3.6.8.1 1.2-.4 0-.3-.3-.3-.6s-.3-.4-.3-.7c0 .2-.1.6-.3.8-.4 0 0-.7 0-.9s-.4-.6.1-.9h.2m2.1-.3c.3.1 1.1 0 1.4.1.1.1.1.2.2.2.1.1.4.1.4.2-.8.1-1-.6-1.7-.6-.4 0-.8.1-1.1 0l-.7-.3c.6-.1.7.1 1 .2.4.1.9 0 1.4 0m-1.7-.7c1.1 0 2.5-.4 3.8-.7s2.3-.3 3.5-.6c-.4-.1-1.5.2-2.3.3-.7.1-1.8.4-2.3.3.4-.3 1.8-.4 2.3-.6l1.2-.3c.3-.1.8-.1 1.1-.2-.3-.1-1.3.2-1.5.1.6-.1 1.3-.3 1.9-.6-.2 0-.8.1-1.1.2.3-.1.9-.2 1.2-.4-1.1.1-2.4.8-3.5.9.2-.1.6-.2.8-.3-.4 0-2.3.7-3 .8-.8.2-2.4.4-2.7 1.1.3-.1.8-.1 1.2-.2m-6.1 2.9c-.3.3-1.2.9-1.7 1.2-.4.3-.8.8-1.5.9 0-.1.4-.3.7-.6-.3.1-.8.2-1 .3l-.9.6c-.2-.1.1-.3.4-.4-.2 0-1.2.3-.8-.1.2-.1 1.1-.4 1.4-.6.4-.2.7-.6 1.1-.8.4-.2.9-.4 1.2-.8-.6.1-2.5 1.1-2.8.9.3-.2 1-.3 1.4-.6.3-.1.4-.2.6-.2l.7-.3c1-.4 1.8-.8 2.8-1-.3.1-.7.4-.9.6-.3.5-.3.7-.7.9m2.6-1c-.4.9-.6 1.7-.7 2.4 0 .1-.1.6-.3.7-.6.2-.3-.2-.3-.3.1-.3.7-1.1.6-1.3-.9.3-.8 1.1-1.5 1.4-.1-.2.8-.7 1-1s.4-.7.6-1c-.7.3-1.2 1-1.8 1.3.2-.3 1.1-.8 1.3-1.1-.6.1-.8.7-1.4.9 0-.2 1.8-1.9 2.3-2m-.5-1.6c-.9.2-1.8-.2-2.2-.4-.6-.2-1.1-.4-1.4-.8.3 0 .4.2.8.3.3.1.8.1 1.1.2.3.1.8.1 1.2.2.4.1.7.2 1 .3m1.5-.9c.1-.6-.2-1-.2-1.4 0-.2 0-.4-.1-.8 0-.2 0-.6.4-.2.2.1 0 .6 0 .7 0 .2.2.4.3.7 0 .2-.2.4-.3.7-.1.2-.1.6 0 .7m1.7-.4c1.2-.7 2.4-1.3 3.7-1.9.4-.2 1.1-.3 1.4-.6.3-.1.6-.7.3-.8-.3 0-1.2.4-1.5.7-.2.2-.2.3-.6.6-.1.1-.7.3-.8.4-.2.1-.6.2-.8.3l-.6.4c-.4.3-1.1.6-1.4.9m-4.7 2.2c-1.1.3-1.9.6-3.1.9-.9.3-2.7.8-3.4.8 1.1-.3 2.4-.7 3.5-1-1 .1-1.9.2-2.7.1.7-.2 1.4-.2 2.2-.3-.8.1-2 0-2.3-.3.8-.1 1.4 0 2.2 0-.3-.2-1.1-.2-1.4-.4 1 0 1.7.3 2.7.2 1 0 2.8-.6 3.4-.3-.6.2-1.2.3-1.7.3" opacity=".25"/><path fill="#FCCE7C" d="M182.6 156.4l4.5 59.5s2.5 6.3 6.6 6.5c4.1.1 14.8 2.4 18.3-4.6 3.4-7.1 3.4-61.3 3.4-61.3s-18.1-3.3-20.8-2.7c-2.6.8-12 2.6-12 2.6z" opacity=".36"/><path fill="#F9D93D" d="M187.1 162.6c1.7 2.5 9.8-.4 10.8 1.9.2.4-.2 2.1-.1 2.7.1 1.3.6 2.7.6 4 .1 2 0 4.1.2 6 .2 2.3.7 4.6.9 7 .2 2-.6 3.9-.6 5.6 0 1.7 1 3.2 1.4 4.8.6 1.9.6 3.7.8 5.5.2 2.2.6 4.3.4 6.4-.1 1.8 1 3.1.1 4.6-1.8 3.2-5.9 3.1-9.3 2.9-3.7-.2-5-1.8-4.4-5.1.6-3.1.4-5.4-.2-8.4-.7-3-.8-6-.9-9.1-.1-1.4-.7-2.9-.8-4.3-.1-1.5.6-2.8 1-4.3.8-3.1-1.2-6.1-.4-9.4.9-3.5.8-6.1.3-9.6 0-.4-.3-.9-.6-1.2.1-.2.2-.1.3-.3" opacity=".23"/><path fill="#BCB792" d="M194.1 162.9s.3 24.1 0 28.7c-.3 4.5.1 18.5.1 18.5l1.3 9.4m12.7-63.9s.3 24.1 0 28.7c-.3 4.5.1 18.5.1 18.5l1.3 9.4"/><path fill="none" stroke="#BCB792" stroke-width="3" d="M194.2 219.5c2.4.6 6.7 1 9.7.3" opacity=".26"/><ellipse cx="86.4" cy="234.5" fill="#2392F7" stroke="#2392F7" stroke-width=".25" rx="65.6" ry="23.3"/><ellipse cx="86.7" cy="233.4" fill="#FFF" stroke="#E2E0DF" stroke-width=".25" rx="57.8" ry="18.1"/><path fill="#EAAA47" d="M38.6 221.9v1.8c-.8.1-1.3.3-.8 1.5.4 1.2 5.2 3.7 7.3 4.3s12.8 7.3 15.6 8.3c2.8 1 6.6 2.9 8.4 3.8 1.8.9 5.6 1.5 6.2 1.2.4-.4 5.6-1.8 6.3-2 .7-.1 11.4-3 11.4-3s11.5-3.9 12.1-3.9c.4 0 10.5-3.5 10.5-3.5s12.9-3.7 13.6-4.2c.1-.1.2-.3.3-.7.1-.9-.2-2.2-1.4-1.9-1.7.3-36.1-10.5-39.4-11.1-3.2-.6-5.2-.2-6.5 0-1.3.2-7-.1-9.3-.3-2.3-.2-7.2.4-10 .7s-4.9.7-6.5 1c-1.7.4-2.1 1-2.8 1.3-.7.2-1.7 1-2.4.8-.8-.2-.8-.6-1.8-.6s-3.1.1-3.5.6c-.4.3-.9 1.3-1.8 1.4-.8.1-1.8-.7-2.1-.1-.3.6-1.8 1.4-1.8 1.4s-1.8.7-1.8 1c0 .4-1.7.6-.9.8 1 .3 1.1 1.4 1.1 1.4z"/><path fill="#C07B2A" d="M129.6 233.8s-.6 1-4.1 2.2c-3.5 1.2-6.6 1.4-8.3 2-1.7.6-3.2.7-3.8.8-.4.1-2.1.6-2.7.8-.4.2-2.9.9-2.9.9l-2.1.9-3.1 1.2-2.4.8c-.7.2-1.4.7-2.3.8-.8.1-1.4.7-1.4.7l-2 .7s-1 .8-1.8.9c-.8.1-2.4.7-3.2.9-.8.2-2.9.8-3.4.9-.4.1-1.1.4-1.8.6s-1 .6-2 .9c-1 .4-1.7.6-2.3.6-.7 0-1-.3-2 0-1 .4-2.3.8-2.3.8s-4.4-1.1-5.5-1.4c-1.1-.2-2.8-.3-3.8-.9s-3.5-2.5-3.5-2.5-1-.9-1.8-1.3c-.8-.3-1.7-.6-2.1-.9-.4-.4-1.4-.8-2.1-1.2-.7-.3-4.8-3.2-5.4-3.4-.7-.2-2-.6-2.7-.9-.7-.4-2 .1-2.7-.7-.7-.8-2.7-1.4-3.1-1.7-.4-.2-2-1.7-2.4-2-.4-.2-2-1.5-2-1.5s-2-1.2-1.5-4.3c.4-3.1.6-4.4.6-4.4s1.9 4 7.2 5.6c5.4 1.7 20.9 12.1 25.7 12.6 4.6.6 24.9-5.3 29.1-6.6 4.2-1.3 26.8-7.9 28.2-9 1.4-1.1 1.4-.4 1.4-1.1v.7l1 5.6-.7 1.9z"/><path fill="#CE7F30" d="M87.2 245.2c-.1-.7 1.2-1.1.4-1.8.3-.4.7-.6 1.1-.4.2.8-.4 2.3-1.4 2.4m3.9-.8c-.3-.4.1-1 .7-1.3.1 0 .2 0 .2.1-.1.6-.6 1.3-1.1 1.4m6.9-2.7c0 .1-.3.1-.1.3.9-.3 1.4-1.3.3-1.8-.1.1-.3.2-.6.4.4.3.6.7.3 1.2m14-6c.1-.4 1.9-2.8 2.2-2.5 1.4.6-1.5 2.5-2.2 2.5m-5.3 1.8c.4-.3 1-.6 1.5-.7 0 0 .3.2.2.2-.3.4-1 .6-1.7.2m-2.4-.7c.8-.2 1.4-.3 2-.8-.2.6-.8.9-1.4 1 0-.2-.1-.2-.2-.3m-9.3 4.2c-.9-.8.6-1.3.9-1.9.3.7-.2 1.3-1.1 1.7m3.5-2.2c0-.4-.1-.9.4-.9 0 .3-.1.8-.4 1m-5.2-.2c1.8.4.4-1.8-.4-.4.4.3.7.1.7.1m-11.3 5.9c-.4-.6.6-1.3 1.2-.8.8.7-.7 1.1-1.2 1m-1.3 3.3c.3-.4.3-1.1.4-1.5-1.3-.1-1.2 1.7-.3 1.3m-1.2 2.3c-1.1-1.7-3.4-.3-.7-.3 1.5 0 3-.7 4.5-.7-.4.3-1.2.6-1.8.9m7.7-2.7l-.6-1.2h-.8c.2 0 .7-.1 1.1-.1l-.4-.4c.2-.1.3-.1.6-.1 0 .6 0 1-.2 1.4.2.2.1.4.2.7m3.2-1.5c-.1-.1-.3-.2-.4-.3-.1.1-.2.1-.3.1.1.2.2.3.3.4.2-.1.3-.2.4-.3m4.1-2.3c-.3-.6-.1-1.1.2-1.4.1.6.1 1.3-.4 1.5m10-2.6c.6-.7.8-1.3 1.3-2 .7-.8.7-.8 1.8-1.3-.3.8-1.5 1.1-1.8 1.7-.2.2-.3.2-.4.4.8.2 1.5-.2 2.2-.4-.6.8-1.8.8-2.5 1.3.4.3 0 .1 0 .2m3.2-5.8c-.6-.7.3-1 .7-1.5.4.6-.5 1.6-.7 1.5m-30.8 10.7c-.1-.3.1-1 .2-1.3-.3.9-.7 1.8-1.2 2.5-.3.6-.8 1.2-1.4 1.7-.7.4-1.8.4-2.2 1m-2-3c-.4-.1-.6-.4-.2-.9.8.3.6 1-.1.9m.1-3.5c-.4.1-.8.2-1 .6.6.4 1.1.6 1.5 0-.2-.2-.1-.4-.2-.6.1 0 .3.1.4.1m2.6 3.3c-1.9-1 1-2.1-.3-3.4 1.9 0 1.9 2.5 1.4 3.3-.3.7-2.3 3.7-3.3 2.8.9-1 2.7-1.4 2.3-2.8m-9.4-.7c-.4 0-1.1-.3-1.8-.2 0 .7.8 1 1.5.9v-.4m4.1 2.7c-.1-.4-.1-.8-.1-1.2.3.3.3.7.3 1.1h-.4m-.2-4.5c.1-.3.1-.7.1-1 .7.4 1 1.1.9 1.7-.6 0-.8-.1-1.1-.4.3-.3.4-.8.3-1.1m-13.3-.9c-.1-.3-.2-.6-.1-.9.7.3.1.9.7 1.3.3.3 1.2.3 1.8.6-.1.1-.1.2-.2.3-.9-.3-1.5-.9-2.2-1.4m-4.7-14.1c-.7.2-1.2-.3-1.7-.7.4-.3 1.9-1.3 2.4-.9 1 .8-1 1.3-.9 1.9-.3.1-.2-.1-.1-.1m6.7-1.5c-.2-.7.8-1.1 1.3-.6.3.3-.1.9.2 1.4-1 .3-2.1-1-2.9 0 .6-.7 1.4-.9 2.1-1.3m-10.4-.7c.6 0 .9-.4 1.1-.8.3.3.6.8.7 1.1-.3-.1-.7-.1-.9-.2l.3.7c-.1-.1-.6-.3-.8-.6-.4.3-1 .7-1.7.6 1-1.1.1-1.2-.1-2.4 1.3-.7 1.2.6 1.5 1.3m.4-4.8c.8-.2 1-.8.7-1.3 2.2.6-.1 1.7-.8 2-.7.3-2.8 1.8-3.1 0 .6-.1 1.2-.3 1.4-.8.3.1.7.1 1 .4.2-.1.4-.1.7-.2m10.1 2.3c-1.2-.4-.6-1.3 0-2.2-.2.3-.6.4-1 .4m-3.9 5.3c-.2-.6-.2-1.2.2-1.7-.3-.1-.7-.4-1.1-.4.7-1.4 2 .4 1.1 1.3m1.3-3.8c-.6-.7-.2-1.3-1.1-2l.1-.1c.2 0 .6.1.8.1-.3.7.1 1.7 1.1 1.2 0 .2 0 .6-.1.8.1.1.3.1.4.1-.6 0-1.1-.1-1.4-.3m.5 5.9c-1.4-1 .1-2.7 1.8-1.8 0 .2-.1.4-.3.6-1.1-.7-1.3.2-1.4.9m-1.5 2.8c-.1-.3 0-.7.3-1 .1.2 0 .9 0 .8m-13.1-8c.1-1.5-1-2.1 1-2.5-2.8-1.3-.9 1.5-1.1 2.3m15.6-5.3c-.3-.1-.8-.6-1-.8.9-.6 2.7-.7 3.4-1.5-.9-.4-4.2 1-3.9 1.8-.3.2-.3.2-.8.2.1-.3-.1-.9 0-1.1-1.2.6.8 1.9 1.8.9m1.9 2.7c-.3.3-.7.7-1.3.8-.1-.1-.1-.2.2-.4m3.5-.2c-.1-.8.9-.8 1.4-1.2-.8-.6-1.3.3-1.5.9m3.2-4.8c.8.2 1.8.2 2.5 0-.3-.9-2.7-1.1-2.5-.2m-1.4 8.9c-.2-.4-.1-.9.3-1.2-.4-.2-.7-.7-.9-.9.2-.1.7-.1.9 0-.7.9.8 1.1 1.3 1.2-.3.1-.7.4-1.1.6.1.1.2.4.3.6-.6.1-.6-.1-.7-.2m3.8 3.7c-.8.1-1.9 1.1-2.7.6-.9-.7 1.2-1 0-1.7-1.3.8-1 1.4.3 1.8 1.3.4 1.7-.1 2.9-.7m-4.3 2.4c0 .3.2.6.4.8.4-.7 0-.6-.7-.7m-3.2 2c-.1.2-.1.3 0 .6.1-.3-.2-.2-.4-.6m-16.2-5c.2-.2.3-.6.6-.8-.6-.3-1.3-.8-1.4-1.4 2.1.9 2.8 1.4.7 2.4m63.3-6.4c-.8.1-1.7 0-2-.6-.8 1.2 1.9.7 2 1.4.4-.4 0-.6-.1-.9m3.5.8c-.4-.1-.8 0-1.2.1.6.3.9.1 1.3-.2m-28.6 16.3c.1 0 0 0-.1-.1-.2.3-.3.2-.3.7.4 0 .4-.2.7-.6m1.5-6.3l.3-.7c.3.2.6.4.7.9h-1.3c0-.2.1-.4.3-.7m-7.7-2.1c-.2.1-.4.2-.7.2-.7-.3-1.1-.1-2-.2h1.4m50.3-2.5c0 .4-.2 0-.3-.2m-6-2c-.4.7-1.8.3-1-.2.3.3.8.6 1 .7m-4.7-2.3c0 .1.3.3.4.4m-11.9-2.8c-.1-.1-.2-.2-.3-.4l.3-.3c.4.1.9.4 1.2.8-.4.4-1.2.6-1.5.1m11.1 4.6s-.2-.1-.1-.2c.8 0 .8-.1.9.4-.7-.1-.6-.2-.7-.6m-10-1.1c.3-.1.7 0 1 .1v.3c-.7.1-.7-.1-.8-.6m-35.6-3.9c.2-.6.6-1 1.2-1-1-.2-2 .4-.9 1m-3-1.8c1-.2 2-.6 3-.9-.7-.4-2.5.2-2.3.8m-.4 3.8c-.1.1.1 0 .2-.1-.4-.3-2.9-1.3-2.1 0 .6 0 1.4.2 2.1.3M52.4 232c-.3-.2-.3-.2-.1-.2.8.3.2.3.2.7m5-.9c-1-.1-1-.6-.3-1 .2.1.3.2.4.3-.1.2-.3.3-.4.4M52 221.2c-.3.9.7.7 1.4.6 0-.4-.1-.6-.6-.9-.4.2-.9.6-1.2 1m2-2.5c.7-.2.8-1.1 1.2-1.7.7.3.3 1 .1 1.3-.4.2-1 .4-1.4.6m4.4-2c.4-.3.8-.4 1.3-.2-.3.4-.9.6-1.5.4-.2-.2 0-.2.1-.3m3.6-1.4c-.2-.2-.3-.6-.3-.8.2 0 .3-.1.4-.1.1.4-.4 1-.7 1m3.7 2.3c-.2-.4-.2-.9 0-1.2.4 0 .9.1 1.2.3-.2.2-1.1 1-1 .8m21.6-4.1l.3-.3c-.8.2-1.4.7-2.1 1m-9.7 14.5c0-.7.8-1 1.4-.4-.3.4-.7.3-1.1.1m-4.2.9c.1-.3.3-.7.7-.8.2.7 0 1-.9.7m-2.8 1.7v-.8"/><path fill="#E29C40" d="M51.1 217.4c-2 .4-5.6 1.4-6.4 3.2-1 2.3 1.5 4.4 3.1 6.1 3.4 3.3 8.3 6.7 13.1 8.9 1.9.9 3.9 1.8 5.8 2.7 1.2.6 3.9 1.8 4.1 2.9-.1.1-.1.2-.2.3-2.4-.9-4.9-1.5-7-2.9-2.9-1.7-5.5-3.3-8.7-4.6-2.7-1-4.9-2.3-7.2-3.7-2.4-1.3-5.6-2.3-7.9-3.9-1.1-.8-2.1-2-1.5-3.2.3-.7.9-.7 1-1.3.1-.4-.6-1-.4-1.5.1-1.1 4.3-5.3 4.8-2.8 1.1.2 2.2-1.7 3.8-1.8 1-.1 4 .4 3.2 1.5"/><path fill="#050505" stroke="#050505" d="M109.2 237.2c-.1-.3-.2-.6-.1-.9.7.3.1.9.7 1.3.3.3 1.2.3 1.8.6-.1.1-.1.2-.2.3-.9-.3-1.5-.9-2.2-1.4" opacity=".14"/><path fill="#050505" stroke="#050505" d="M125.2 229.7c-.8.1-1.7 0-2-.6-.8 1.2 1.9.7 2 1.4.4-.4 0-.6-.1-.9" opacity=".15"/><path fill="#050505" stroke="#050505" d="M118.7 235.1c.1 0 0 0-.1-.1-.2.3-.3.2-.3.7.4 0 .4-.2.7-.6" opacity=".1"/><path fill="#050505" stroke="#050505" d="M102 240.3l.3-.7c.3.2.6.4.7.9h-1.3c0-.2.1-.4.3-.7m18.7-11c-.1-.1-.2-.2-.3-.4l.3-.3c.4.1.9.4 1.2.8-.4.4-1.2.6-1.5.1" opacity=".15"/><g fill="#CE7F30"><path d="M71.2 238.4c-.7.2-1.2-.3-1.7-.7.4-.3 1.9-1.3 2.4-.9 1 .8-1 1.3-.9 1.9-.3.1-.2-.1-.1-.1"/><path d="M77.5 237.1c-.2-.7.8-1.1 1.3-.6.3.3-.1.9.2 1.4-1 .3-2.1-1-2.9 0 .6-.7 1.4-.9 2.1-1.3m-10.4-.6c.6 0 .9-.4 1.1-.8.3.3.6.8.7 1.1-.3-.1-.7-.1-.9-.2l.3.7c-.1-.1-.6-.3-.8-.6-.4.3-1 .7-1.7.6 1.1-1.1.1-1.2-.1-2.4 1.3-.7 1.2.6 1.5 1.3" opacity=".15"/><path d="M68.5 230.9c.8-.2 1-.8.7-1.3 2.2.6-.1 1.7-.8 2s-2.8 1.8-3.1 0c.6-.1 1.2-.3 1.4-.8.3.2.7.1 1 .4.2-.1.4-.1.7-.2"/><path d="M78.4 233.2c-1.2-.4-.6-1.3 0-2.2-.2.3-.6.4-1 .4m-3.9 5.4c-.2-.6-.2-1.2.2-1.7-.3-.1-.7-.4-1.1-.4.7-1.4 2 .4 1.1 1.3m1.3-3.8c-.6-.7-.2-1.3-1.1-2l.1-.1c.2 0 .6.1.8.1-.3.7.1 1.7 1.1 1.2 0 .2 0 .6-.1.8.1.1.3.1.4.1-.6 0-1-.1-1.4-.3" opacity=".15"/><path d="M75.3 237.8c-1.4-1 .1-2.7 1.8-1.8 0 .2-.1.4-.3.6-1.1-.7-1.3.2-1.4.9"/><path d="M73.9 240.3c-.1-.3 0-.7.3-1 .1.2 0 .9 0 .8m-13-7.9c.1-1.5-1-2.1 1-2.5-2.8-1.3-.9 1.5-1.1 2.3m15.5-5.4c-.3-.1-.8-.6-1-.8.9-.6 2.7-.7 3.4-1.5-.9-.4-4.2 1-3.9 1.8-.3.2-.3.2-.8.2.1-.3-.1-.9 0-1.1-1.2.6.8 1.9 1.8.9m1.8 2.7c-.3.3-.7.7-1.3.8-.1-.1-.1-.2.2-.4m3.5-.2c-.1-.8.9-.8 1.4-1.2-.8-.6-1.3.3-1.5.9m3.2-4.7c.8.2 1.8.2 2.5 0-.3-.9-2.7-1.1-2.5-.2m-1.4 8.8c-.2-.4-.1-.9.3-1.2-.4-.2-.7-.7-.9-.9.2-.1.7-.1.9 0-.7.9.8 1.1 1.3 1.2-.3.1-.7.4-1.1.6.1.1.2.4.3.6-.6.1-.6-.1-.7-.2m3.9 3.7c-.8.1-1.9 1.1-2.7.6-.9-.7 1.2-1 0-1.7-1.3.8-1 1.4.3 1.8 1.3.4 1.7-.1 2.9-.7m-4.3 2.3c0 .3.2.6.4.8.4-.7 0-.6-.7-.7m-3.2 2.1c-.1.2-.1.3 0 .6.1-.3-.2-.2-.4-.6M62.2 236c.2-.2.3-.6.6-.8-.6-.3-1.3-.8-1.4-1.3 2.1.9 2.8 1.4.7 2.4m32.2 1.3c-.2.1-.4.2-.7.2-.7-.3-1.1-.1-2-.2H93m-6.8-9.6c.3-.6.6-1 1.2-1-1-.2-2 .4-.9 1m-2.9-1.9c1-.2 2-.6 3-.9-.7-.4-2.5.2-2.3.8m-.4 4c-.1.1.1 0 .2-.1-.4-.3-2.9-1.3-2.1 0 .6 0 1.4.2 2.1.3m-12.9 12c-.3-.2-.3-.2-.1-.2.8.3.2.3.2.7m5-1c-1-.1-1-.6-.3-1 .2.1.3.2.4.3-.1.2-.3.3-.4.4m-5.2-10.1c-.3.9.7.7 1.4.6 0-.4-.1-.6-.6-.9-.4.2-.9.6-1.2 1m1.9-2.4c.7-.2.8-1.1 1.2-1.7.7.3.3 1 .1 1.3-.4.2-1 .4-1.4.6m4.6-1.9c.4-.3.8-.4 1.3-.2-.3.4-.9.6-1.5.4-.2-.2 0-.2.1-.3m3.5-1.4c-.2-.2-.3-.6-.3-.8.2 0 .2-.1.4-.1.1.4-.4 1-.7 1m3.7 2.2c-.2-.4-.2-.9 0-1.2.4 0 .9.1 1.2.3-.2.2-1.1 1-1 .8m10.1 11.1c0-.7.8-1 1.4-.4-.3.4-.7.3-1.1.1m-4.3.9c.1-.3.3-.7.7-.8.2.7 0 1-.9.7m-2.7 1.8v-.8" opacity=".15"/></g><path fill="#050505" stroke="#81807F" d="M96.9 234.1c-.7.2-1.2-.3-1.7-.7.4-.3 1.9-1.3 2.4-.9 1 .8-1 1.3-.9 1.9-.3.1-.2-.1-.1-.1m6.6-1.5c-.2-.7.8-1.1 1.3-.6.3.3-.1.9.2 1.4-1 .3-2.1-1-2.9 0 .6-.7 1.4-.9 2.1-1.3m-10.4-.7c.6 0 .9-.4 1.1-.8.3.3.6.8.7 1.1-.3-.1-.7-.1-.9-.2l.3.7c-.1-.1-.6-.3-.8-.6-.4.3-1 .7-1.7.6 1-1.1.1-1.2-.1-2.4 1.3-.7 1.2.6 1.5 1.3m.5-4.7c.8-.2 1-.8.7-1.3 2.2.6-.1 1.7-.8 2-.7.3-2.8 1.8-3.1 0 .6-.1 1.2-.3 1.4-.8.3.2.7.1 1 .4.2-.1.4-.1.7-.2m10.1 2.2c-1.2-.4-.6-1.3 0-2.2-.2.3-.6.4-1 .4m-4 5.3c-.2-.6-.2-1.2.2-1.7-.3-.1-.7-.4-1.1-.4.7-1.4 2 .4 1.1 1.3m1.4-3.8c-.6-.7-.2-1.3-1.1-2l.1-.1c.2 0 .6.1.8.1-.3.7.1 1.7 1.1 1.2 0 .2 0 .6-.1.8.1.1.3.1.4.1-.6 0-1-.1-1.4-.3m.5 5.8c-1.4-1 .1-2.7 1.8-1.8 0 .2-.1.4-.3.6-1.1-.7-1.3.2-1.4.9m-1.7 2.9c-.1-.3 0-.7.3-1 .1.2 0 .9 0 .8m-12.9-8c.1-1.5-1-2.1 1-2.5-2.8-1.3-.9 1.5-1.1 2.3m15.5-5.3c-.3-.1-.8-.6-1-.8.9-.6 2.7-.7 3.4-1.5-.9-.4-4.2 1-3.9 1.8-.3.2-.3.2-.8.2.1-.3-.1-.9 0-1.1-1.2.6.8 1.9 1.8.9m7.4-2.2c.8.2 1.8.2 2.5 0-.3-.9-2.7-1.1-2.5-.2m-1.5 8.8c-.2-.4-.1-.9.3-1.2-.4-.2-.7-.7-.9-.9.2-.1.7-.1.9 0-.7.9.8 1.1 1.3 1.2-.3.1-.7.4-1.1.6.1.1.2.4.3.6-.6.1-.6-.1-.7-.2m4 3.8c-.8.1-1.9 1.1-2.7.6-.9-.7 1.2-1 0-1.7-1.3.8-1 1.4.3 1.8 1.3.4 1.7-.1 2.9-.7m-4.5 2.3c0 .3.2.6.4.8.4-.7 0-.6-.7-.7m-3.1 2c-.1.2-.1.3 0 .6.1-.3-.2-.2-.4-.6m-16.2-4.9c.2-.2.3-.6.6-.8-.6-.3-1.3-.8-1.4-1.4 2.1.9 2.8 1.4.7 2.4m32.4 1.5c-.2.1-.4.2-.7.2-.7-.3-1.1-.1-2-.2h1.4m-6.9-9.6c.3-.6.6-1 1.2-1-1-.2-2 .4-.9 1m-2.8-1.9c1-.2 2-.6 3-.9-.7-.4-2.5.2-2.3.8m-.4 3.9c-.1.1.1 0 .2-.1-.4-.3-2.9-1.3-2.1 0 .6 0 1.4.2 2.1.3m-12.9 12.1c-.3-.2-.3-.2-.1-.2.8.3.2.3.2.7m4.9-1c-1-.1-1-.6-.3-1 .2.1.3.2.4.3-.1.2-.3.3-.4.4M96.3 227c-.3.9.7.8 1.4.6 0-.4-.1-.6-.6-.9-.4.2-.9.6-1.2 1m2.1-2.4c.7-.2.8-1.1 1.2-1.7.7.3.3 1 .1 1.3-.4.2-1 .4-1.4.6m4.5-1.9c.4-.3.8-.4 1.3-.2-.3.4-.9.6-1.5.4-.2-.2 0-.2.1-.3m3.6-1.5c-.2-.2-.3-.6-.3-.8.2 0 .2-.1.4-.1.1.4-.4 1-.7 1m3.6 2.3c-.2-.4-.2-.9 0-1.2.4 0 .9.1 1.2.3-.2.2-1.1 1-1 .8m10 11.1c0-.7.8-1 1.4-.4-.3.4-.7.3-1.1.1m-4.1.9c.1-.3.3-.7.7-.8.2.7 0 1-.9.7m-2.7 1.7v-.8" opacity=".15"/><g opacity=".27"><path fill="#050505" stroke="#81807F" d="M87.5 221.6c.7-.3 1.2.1 1.8.4-.3.4-1.5 1.5-2.2 1.2-1.1-.7.8-1.4.4-2 .3-.2.2.1.1.1" opacity=".15"/><path fill="#050505" stroke="#81807F" d="M87.7 221.9c.4.6-.4 1.2-1.2.7-.4-.3-.1-1-.6-1.3.9-.4 2.2.7 2.9-.4-.4.7-1.2 1.1-1.8 1.7m8-4c-.6 0-.8.6-1 .9-.4-.3-.8-.7-.9-1 .3.1.7 0 1 .1-.1-.2-.3-.4-.4-.6.2.1.7.2.9.4.3-.4.8-.8 1.4-.8-.8 1.2.2 1.2.7 2.3-1.2.8-1.3-.4-1.9-1" opacity=".15"/><path fill="#CE7F30" d="M87.2 216.4c-.7.3-.9.9-.3 1.3-2.3-.2-.2-1.7.3-2.1.7-.4 2.3-2.1 3-.6-.6.2-1.1.6-1.3 1-.3-.1-.7 0-1.1-.3-.1.1-.4.2-.6.3"/><path fill="#050505" stroke="#81807F" d="M76.8 215.5c1.3.2.8 1.3.4 2.1.1-.3.4-.6.9-.7m2.7-5.6c.3.6.4 1.1.1 1.7.3 0 .8.3 1.1.3-.3 1.4-2-.1-1.4-1.1m-.2 3.9c.8.6.6 1.3 1.5 1.8l-.1.1H81c.1-.8-.4-1.7-1.3-1 0-.2-.1-.6-.1-.8h-.4c.6 0 1.1 0 1.5.1m11.1 5.9c1.7.8.4 2.7-1.3 2 0-.2 0-.4.2-.7 1.2.6 1.3-.4 1.2-1.1m25 3c.1.3.1.7-.1 1-.1-.2-.1-.9-.2-.8M94 214.1c.2 1.5 1.4 1.9-.3 2.7 3 .9.6-1.7.6-2.4m-14.2 7.4c.4.1.9.3 1.1.7-.8.7-2.4 1.1-3 2 1 .3 3.9-1.5 3.4-2.3.2-.2.3-.3.7-.3 0 .3.2.9.2 1.1 1.1-.8-1.2-1.8-2-.6m-2.2-2.6c.3-.3.6-.8 1.1-1 .1.1.1.2-.1.4m-3.4.7c.3.8-.7.9-1.1 1.4.9.4 1.2-.4 1.3-1.1m-2.1 5.2c-.8-.1-1.8.1-2.5.3.6.9 2.9.7 2.5-.2m-.6-8.9c.3.3.3.9 0 1.3.4.2.8.6 1.1.8-.2.1-.7.1-.9.2.4-1-1-1-1.7-1 .3-.1.6-.6 1-.7-.1-.1-.3-.4-.4-.6.6-.2.6 0 .7.1m-4.6-3.3c.7-.2 1.7-1.3 2.4-.9 1.1.6-1 1.1.3 1.5 1.1-1 .7-1.5-.8-1.7-1.4-.2-1.5.3-2.7 1m31.5 8.1c-.1-.3-.3-.6-.7-.8-.2.7.1.6.8.6m15.2 2c.2-.4.2-.9-.2-1.2 0 .9.7.6 1.3 1.1m-8.6 4.7c-.2.2-.2.6-.3.9.7.2 1.5.6 1.8 1.1-2.2-.6-3.1-1-1.2-2.3m-47.2-14c.2-.1.3-.2.6-.3.8.2 1.1-.1 2 0-.4.1-.9.1-1.4.2m8.9 8.3c-.1.6-.3 1-1 1.2 1 0 1.9-.8.7-1.1m3.3 1.4c-1 .3-1.9.8-2.7 1.3.8.3 2.4-.6 2.1-1.1m-.6-3.9l-.1.1c.6.3 3.1.9 2.1-.3-.6.1-1.4 0-2.1 0m51.8 4.6c.3.1.3.2.1.2-.9-.2-.3-.3-.3-.6m-28-2.6c1-.1 1.1.4.6.9-.2-.1-.3-.1-.6-.2 0-.2.2-.3.3-.4m-11.2-5c.2-.9-.9-.6-1.5-.3.1.4.2.6.8.8.4-.3.8-.7 1-1.1m-1.4 2.6c-.6.3-.6 1.2-.8 1.8-.8-.2-.6-.9-.4-1.3.4-.3.9-.6 1.3-.8m-4.1 2.6c-.3.3-.7.6-1.2.4.2-.4.8-.7 1.4-.7.3.1 0 .2 0 .3m-3.2 2.1c.2.2.4.4.4.8-.1 0-.2.1-.4.1-.2-.4.1-1 .3-1.1m-3.9-1.7c.2.4.3.8.3 1.2-.4.1-.9 0-1.2-.1.1-.2.9-1.1.8-.9m40.8 6.5c.1.6-.6 1-1.3.7.2-.4.6-.4 1.1-.2m10.4-3.8c0 .3-.2.7-.4.9-.4-.6-.2-1 .7-.8m-7.3 1.2c.1.2.1.6.2.8" opacity=".15"/></g><path fill="#CC7E2F" d="M66.2 245.5c-1.1-4.3-5.9-7.5-10.6-9.5-2.4-1-5.3-1.4-7.7-2.9-1-.6-4.8-4.1-5.8-4.1-6-.1 7.3 8 8.7 8.9 4.2 2.5 9.3 5.9 13.9 7.3"/><path fill="#050505" d="M85.3 212.1c4 1 7.2 1.3 10.8 3 3.2 1.4 6.9 2.1 10.3 2.9 4.1.9 7.9 2.4 12.1 3.7 3.3.9 7.4.8 10.3 2.3.1.8.1 1.1-.3 1.7-.8-2.7-6.1-1.8-8.6-2.5-3.5-1.2-7.2-3.1-11.1-4.1-4.2-1.1-7.5-1.7-11.6-3.4-2.7-1.1-10.6-1.7-11.6-3.4" opacity=".07"/><path fill="#050505" d="M50.2 217.3c2.9.4 5.3-2.2 8.2-2.9 3.1-.8 6.2-1.1 9.5-1.4 6.2-.4 12.9.8 19.3-.3-1.5-1.8-6.3.2-8.9.1-3.3-.1-6.5-.8-10.1-.3-3.4.4-7.3.3-10.4 1.2-2.5.7-5.6 3.2-8.4 2.2.6.6.6 1.1.8 1.4M66 239.5c2.8 2.9 11.2 1.8 15 .9 5-1.1 10.6-2.2 15.4-3.7 4.9-1.4 9.8-3.8 14.7-5 4.4-1.1 11.4-1.3 15.2-3.9 1.5-1.1 2.7-2.2 1-3.7.3 4.3-8.7 4.3-12.1 5.6-4.9 2-9.8 2.9-14.9 4.4-8.7 2.7-20.9 7.4-29.2 6-.9-.1-1.7 0-2.3-1 0 .3-.1.8-.1 1.1-1.1.1-1.3-.2-1.9-.9m21.5 5.8c-.3.1-.6.3-.9.6-.3-1.3 1.5-5.1-2.1-3.7.3-.7 0-1.1.6-1.8-2.5 0-5.6 1.1-8.4 1.4-2.7.3-6.2.6-8.7 1.2 2.2.1 3.5 1.2 3 3.1 1.4 0 1.8.4 2.5 1-.8.3-1.2 1.2-1.9 1.5 2.5 2.8 4.3 1.3 7.4.7 2.9-.6 7 0 8.5-2.4" opacity=".07"/><path fill="#050505" d="M124 235.9c1.1-.6 2-1.3 3-2.1-2.4-1.8-.8-7.2 1.8-8.1 1.2.4 1.3 4.9 1.1 6.1-.4 1.9-2.8 3.5-5 4" opacity=".07"/><path fill="#CC7E2F" d="M91 244.6c2.2.3 5.5-3.3 8.4-4 1-.2 2.8 0 4-.3 1.2-.4 2.1-1.4 3.3-1.9 2.3-1 17-2.4 15.9-4.8.9-.3 1.5-1 2.7-1.1-1-.4-2-.9-3.4-.9-.2-.4-.6-.7-.9-1.1-6.1.9-12.3 4.5-18.6 6.1-3.1.8-5.3 1.3-8.1 2.9-2.4 1.3-6.9 1.1-8.9 2.3.9.3 1.7 1.1 2.5 1.4-.2.2-1 .3-1.3.4.1.1 1 .3 1 .4-.6.4-.9 1-1.4 1.4 1.7-.6 3.1-1.9 4.9-1.8.3.6-.3.3-.3.6"/><g fill="#CE7F30"><path d="M100.9 231.3c.7-.3 1.2.1 1.8.4-.3.4-1.5 1.5-2.2 1.2-1.1-.7.8-1.4.4-2 .3-.2.2.1.1.1" opacity=".15"/><path d="M101.1 231.6c.4.6-.4 1.2-1.2.7-.4-.2-.1-1-.6-1.3.9-.4 2.3.7 2.9-.4-.4.7-1.2 1.1-1.8 1.7m8-4c-.6 0-.8.6-1 .9-.4-.3-.8-.7-.9-1 .3.1.7 0 1 .1-.1-.2-.3-.4-.4-.6.2.1.7.2.9.4.3-.4.8-.8 1.4-.8-.8 1.2.2 1.2.7 2.3-1.2.8-1.3-.4-1.9-1m-7.7-2.6c-.7.3-.9.9-.3 1.3-2.3-.2-.2-1.7.3-2.1.7-.4 2.3-2.1 3-.6-.6.2-1.1.6-1.2 1-.3-.1-.7 0-1.1-.3l-.6.3m-10.3-.5c1.3.2.8 1.3.4 2.1.1-.3.4-.6.9-.7m2.6-5.5c.3.6.4 1.1.1 1.7.3 0 .8.3 1.1.3-.3 1.4-2-.1-1.4-1.1m-.2 3.8c.8.6.6 1.3 1.5 1.8l-.1.1h-.8c.1-.8-.4-1.7-1.4-1 0-.2-.1-.6-.1-.8h-.4c.6 0 1.1 0 1.5.1m11.3 5.9c1.7.8.4 2.7-1.3 2 0-.2 0-.4.2-.7 1.2.6 1.3-.4 1.2-1.1m24.9 3.1c.1.3.1.7-.1 1-.1-.2-.2-.9-.2-.8m-22.6-11.6c.2 1.5 1.4 1.9-.3 2.7 3 .9.6-1.7.6-2.4m-14.2 7.4c.4.1.9.4 1.1.7-.8.7-2.4 1.1-3 2 1 .3 3.9-1.5 3.4-2.3.2-.2.3-.3.7-.3 0 .3.2.9.2 1.1 1.1-.8-1.2-1.8-2-.6m-2.2-2.5c.3-.3.6-.8 1.1-1 .1.1.1.2-.1.4m-3.4.7c.3.8-.7.9-1.1 1.4.9.4 1.2-.4 1.3-1.1" opacity=".15"/><path d="M87.4 235c-.8-.1-1.8.1-2.5.3.6.9 2.9.7 2.5-.2"/><path d="M86.8 226.4c.3.3.3.9 0 1.3.4.2.8.6 1.1.8-.2.1-.7.1-.9.1.4-1-1-1-1.7-1 .3-.1.6-.6 1-.7-.1-.1-.3-.4-.4-.6.6-.2.6 0 .7.1m-4.6-3.2c.7-.2 1.7-1.3 2.4-.9 1.1.6-1 1.1.3 1.5 1.1-1 .7-1.5-.8-1.7-1.4-.2-1.5.3-2.7 1m31.6 8c-.1-.3-.3-.6-.7-.8-.2.7.1.6.8.6m15.1 1.9c.2-.4.2-.9-.2-1.2 0 .9.7.6 1.3 1.1m-15.4 3c-.2.2-.2.6-.3.9.7.2 1.5.6 1.8 1.1-2.2-.6-3.1-1-1.2-2.3m-40.5-12.2c.2-.1.3-.2.6-.3.8.2 1.1-.1 2 0-.4.1-.9.1-1.4.2m9 8.3c-.1.6-.3 1-1 1.2 1 0 1.9-.8.7-1.1m3.3 1.4c-1 .3-1.9.8-2.7 1.3.8.3 2.4-.6 2.1-1.1m-.6-3.9l-.1.1c.6.3 3.1.9 2.1-.3-.6.1-1.4 0-2.1 0m23.5 1.7c1-.1 1.1.4.6.9-.2-.1-.3-.1-.6-.2 0-.2.2-.3.3-.4m-11-5.1c.2-.9-.9-.7-1.5-.3.1.4.2.6.8.8.4-.3.8-.7 1-1.1m-1.5 2.6c-.6.3-.6 1.2-.8 1.8-.8-.2-.6-.9-.4-1.3.4-.3.9-.6 1.3-.8m-4.1 2.6c-.3.3-.7.6-1.2.4.2-.4.8-.7 1.4-.7.3.1 0 .2 0 .3m-3.2 2c.2.2.4.4.4.8-.1 0-.2.1-.4.1-.2-.4.2-1 .3-1.1m-3.8-1.7c.2.4.3.8.3 1.2-.4.1-.9 0-1.2-.1.1-.2.9-1.1.8-.9m33.4 3.8c.1.6-.6 1-1.3.7.2-.4.6-.4 1.1-.2m2.3-1c.1.2.1.6.2.8" opacity=".15"/></g><path fill="#AC1E4E" d="M98.7 234.5c.3.4.3.9.7 1.4.4.8 1.3 2 2.7 1.2 1-.6 1.7-2.2 1.5-3.1-.1-1.1-.8-1.8-1.9-2.5-.6-.4-.8-.6-.3-1.1.3-.4.6-.7.4-1.1-.4-1.1-.7-2.2-.9-3.4-.1-.7-.2-1.2.3-1.8.4-.4 1.1-.7 1.4-1.1.7-1 .2-2.5-.1-3.5-.2-.9-.4-1-1.5-1.1-.8-.1-1.5-.3-2.4-.3-1.1 0-1.4.3-2.2.7-.9.3-2 .1-2.9.1.6-1.1-1.8-1-2.7-.9-1.4.2-2.9-.3-4-1s-2.1-.6-3.3.1c-1.1.7-2 1.5-2.1 2.5 0 .6.7 1 .7 1.7 0 .8-.6.9-1.4.9-.8.1-1.4 0-2.2-.2-.6-.2-1-.2-1.5-.3-1.1-.2-.4-.8.3-1.1 1-.4 1.7-.9 2.3-1.5.3-.3.6-.7.6-1.1 0-.8-.4-1.3-.6-2-.1-.6 0-.6-.6-.9-.7-.6-1.1-1.1-2.1-1.3-.6-.1-1.1 0-1.7-.1l-1.7-.3c-1.1-.1-2.3.6-2.4 1.2-1-.1-2.2-.8-2.9.1-.3.4-.2.6-1 .8-.6.1-1.1.3-1.7.4-.7.1-1.1.3-1.8.6-.6.2-1 .1-1.4.2-1.2.3-1.3 1.3-1.3 2.1 0 .4.1 1.2.4 1.5-.3.4-.6.8-.4 1.2s1.1 1.2.9 1.5c-1.1-.1-2.1-.7-3-1.1-.3-.1-1.1-.4-1.5-.2-.6.2-.1.7-.2 1-1 .2-1.5-.2-2.5-.2-.6 0-.4.2-.8.3-.3.1-.7 0-1 .1.3.6 1.2.8 1.4 1.4.2.4 0 1 .1 1.4 0 .4.1 1 .3 1.3.3.6.9.3 1.4.7-.2.3-1.3.4-1.8.7-.4.3-.8.7-.6 1.1.7 1.2 2.8-.2 3.4-.8-.1 1.2 5.5-.3 6.2-.1-.4.7 3.1 1 3.8 1.1 1.4.1 2.4-.3 3.2.6 1.1 1.2 1 2.5 3.4 2.7 1.5.1 3.4-.2 4.8-.7 1.1-.4 2.7.1 3.9-.1.2 0 .6-.1.8-.2.2-.1.2-.3.4-.4.4-.2 1.2-.1 1.8-.1 1 0 1.9.2 2.9 0 .6-.1 1-.3 1.5-.4.9-.1.7 0 1 .4.4.6 1.3 1 2 1.4.6.3.8.8 1.4.8s1-.2 1.4-.4c.7-.2.6-.1 1.1 0 .6.1.8 0 1.1.3.6.2.7.6.9.9z"/><path fill="#FFF" stroke="#FFF" d="M67.4 219.7c-.6-.3.4-1-.7-1.2 0-.2.3-1.1-.3-.6-.3.2-.3.9-.4 1.1-.1.4-.2.7.4.9.7.2.8-.1 1.1-.3m15.1.2c-.1-.2-.7-1.3-1.1-.9-.3.5.9 1.6 1.1.9m-.4 1.1c-.4-.2.1-.7.4-.4.3.2-.2.6-.4.7m7.9 1.2c0-.7.8-.3 1.3-.3-.1.2-.8.7-1.1.4m9.6 11.2s-.1.1-.1 0c.3-.6-.9-.3-.7.2.1.2 1.1.8 1.3.6-.2-.3-.4-.6-.4-.9m-16.5-3.3c.8 0 1.5-.8 2.3-1-.3.6-1.5 1.3-2.3 1m-13.7-7.5c.3-.4.3-.6-.2-.9-.3.2-.4.7-.6 1 .3 0 .8-.1 1-.2m-3.4-1.5c.6-.1.9.2 1.4.3-.1.1-.1.2-.3.3.1.4-.4.4-.9.3h-.1v.2l-.6-.6c.3-.1.9-.2.7-.6m2.5 6.7c.6.6 1 .9 1.3 1.4.3.6.8.9 1.3 1.3-.8.2-1.2-.3-1.4-.8-.2-.6-.7-.6-1.2-1 .4-.4 0-.3-.1-.7 0-.2-.3-.8.3-.6m-5.7-1.7c.1.1.1.2 0 .3-.3-.1-.3-.3-.3-.6-.2.1-.4.2-.6.1.2-.2.7-.4 1-.2.3.2-.1.6.1.7m14.6-1.6c-.1 0-.1 0-.2-.1.2-.3.6-.1.8.1-.3.1-.3.1-.6 0-.1 0 0-.1 0 0m1.7-.7c.1.1.6.1.9 0-.1.3-.8.4-.9 0m-1 0c-.2.2-.6.2-.9.1.3.2 1 .3 1.3.1 0 0 0-.1-.1-.1m6.8-2.5s-.1 0 0 0c.3.2.8.2 1.1.1 0 .7-1.1.4-.9 0m.6 3.1c-.1-.1-.3-.2-.6-.2 0 .3.6.5.6.2m4.7 6.2c-.2 0-.6-.3-.8-.4.2.4.2.8.3 1.2.2 0 .4 0 .6-.1-.2 0-.3-.2-.6-.2.2-.3.4-.4.5-.5m9.2-10.2c-.7.1-.4.6.2.4 0-.1-.1-.3-.2-.4m-.9-1.2c0-.1 0-.3.1-.4.6-.1.4.5-.1.4m-3.1-1c-.1 0-.2.1-.3.2v.1h.6c-.1-.2-.2-.2-.3-.3m-4.7-.2c0 .1 0 .2.1.3-.2-.1-.6-.2-.8-.1-.2-.4 1-.6 1.1-.1m-4.7.5c-.1.3.3.4.7.2-.1-.1-.2-.3-.4-.3m-25.7 1.8c-.9-.4.3.4.3.4.3.4-.2.6-.6.8.7.3 1 0 1.1-.4.2-.8-.8-.6-.8-1.1m-1.5.5c.4-.4.7 1 .2 1.2.3.4 1 0 1.3.3-.3.4-1.4-.1-1.5-.4-.2-.4-.3-1 .1-1.3m12.9 4h-.3c0-.1-.1-.2-.1-.3-.3.2-.2.4.1.7.3-.2.3-.3.3-.4m4.5 2.1c-.2.1-.3.2 0 .3.3-.1.2-.1 0-.3" opacity=".31"/><path fill="#460C2A" d="M84.1 225c-.2 0-.3-.3-.3-.6-.2-.6-.1-.3.4-.6 1.3-.6-.2-.4-.9-.7-.1-.6 2.3-.7.9-1.4.2-.2.7-.3.9-.6.4.1 1.5.3 1.7.7.4.7-1.2 0-1.5.2l.3.6c.2.2.6.1.8.3-.3.2-.8 0-1.2 0v.1c.1.2.3.3.6.6-.2.1-.8.3-.8.4s.8.1 1 .1c-.3.6-1.4.1-1.7.9" opacity=".33"/><path fill="#FFF" stroke="#FFF" d="M101.9 236c-.4.1-1 .2-1.2.6.3.3 1 .1 1.3-.1-.1-.1-.2-.1-.4-.1" opacity=".31"/><path fill="#750B45" d="M89.8 226.9c-.7.2-.9.8-1.8.8-.8.1-1.5-.1-2.3 0-.2 0-.6.2-.8.2-.4 0-.6-.2-.9-.2-.8-.2-1.2 0-2 .2-.6.1-1.7.3-1.7-.2 0-.7 1-.9 1.5-1 .8-.2 1.3-.7 1.9-1 .8-.6 1.8-1 2.9-1.1 1-.1 2.2.2 2.7.9.4.3-.3 1.4.5 1.4m3.3 1.3c-.4.3-1.8-.3-2.1-.6-.4-.3-.8-.9-.6-1.3.2-.6.7-.4 1.3-.4.6 0 1-.2 1.5-.4.6-.2 1.4-.6 2.1-.6 1.3 0 .3.6.4.9s1.2.2 1.2.9c0 .3-.4.9-.9 1-.6.2-1.3.1-1.9.3-.3.2-.6.7-1 .2m-7.1.9c.4 0 1 .2.6.7-.3.4-1.4.7-2.1.9-.9.2-2 .4-2.9.2-.4-.1-1.9-.8-1.9-1.2 0-1 2.8 0 3.4 0 1.2 0 2.2-.6 3.3-.6m-13.3.4c-1 .4-.8-2.1-1.2-2.3-.4-.2-1.8-.2-2.3-.1-1 .2-1.1.8-.9 1.3s.9 1 1.2 1.5c.3.4.7.9 1.2 1.2 1.1.8 2.1 1.2 3.7 1 .8-.1 1.7-.3 2.3-.7 1-.6.1-1.1-.9-1-.8.1-1.5.4-2.3.2-.6-.2-1.1-1-1.2-1.3m22.4-8.7c-.1-.6-.4-.9-1.4-.8-.6.1-2 .6-1.8-.3.2-.7 1.7-.9 2.3-.6.3.1 1 .6 1 .8.1.2-.2.6.1.7" opacity=".33"/><path fill="#750B45" d="M98.3 220.5c-.6-.6-1-1.4-1.8-1.8-1.1-.6-2.1-.2-3 .3.2 0 .6-.1.8 0 .6.1.2.1.4.3.1.1.2.2.4.3.3.2.3.2.4.6.2.6.3.6 1.2.6.4 0 1.4.1 1.7-.1m-7.5 1.8c.4-1.2 1.3.2 1.8.4.8.4 3.7.4 2.7-.6-.8-.7-2-1.2-3.2-1.2-.6 0-1.4.1-1.9.3-.2.1-1 .8-1 .9-.2.3.2 1 .8.8m-15-8c-.7.2-1.1.4-1.2.9-.1.2.2.3 0 .6-.1.2-.4.2-.6.4-.2.4.4.9-.4 1.1-.3.1-.4-.1-.8 0-.1 0-.4.4-.6.6-.3.3-.8.8-1.4.9-.8.2-.9 0-.9.7 0 .3.2.3-.1.6-.2.1-.7.1-.9 0-.3-.1-.6-.3-.9-.3-.2 0-.6.1-.8 0-1.1-.4.8-.3.9-.4.8-.2.2-.7 1-.9.7-.1 1.1 0 1.8-.4.3-.2.8-.7 1-.9.7-.7-.6-1.8 1-2.2.7-.2.9 0 1.5-.3.4-.2.9-.4 1.4-.3.4 0 .8.2 1.1.2.3.1.8 0 1 .1.9.2.2.9-.3 1.1.2-.8-1.2-.7-1.5-.2-.2-.2 0-.6-.6-.6v-.2m-11 .6c.7.1 1.5.2 1.7.7.1.3-.1 1.1-.4 1.3-.3.3-.8.6-1.1 1-.2.3-.9.9-1.2.3-.7 0-1.3 0-.9-.6.2-.3.8-.4 1.1-.8.3-.4 0-.9 0-1.2-.1-.3-.3-.2.1-.6.2-.1.6-.3.8-.3m-2.1 9.5c-.6.2-.9.3-1.5.2-.4-.1-.7-.3-1.1-.2-.3.1-.7.4-1 .6-.3.1-.7.2-1 .2.4 0 .4.2.8.3.6.2 1.4 0 2-.2.9-.2 1.3-.5 1.8-.9m34.1 4.8c.1-.3-.8-.7-1-1-.3-.3-.2-.7-.8-.9.4-.4 1.8-.8 2.4-.9.9-.1.6-.1.9.3.2.3.4.4.8.8-.3.4-1.3-.1-1.3.4-.1.6 1 .7 1.3.9.9.6-.8.6-1.2.7-.7.2-.1.6 0 1.1.3 0 .4 0 .6.2-.3.3-.8.8-1.2.9-.4.1-.4 0-.9 0-.1 0-.9-.1-.9-.1-.3-.2.1-.2-.1-.4-.1-.2-.4-.2-.7-.3-.4-.2-.9-.4-1.2-.6-.2-.1-1.2-.6-1.2-.9 0-.7 1.1-.4 1.5-.4.4 0 1.1-.3 1.4-.2.2.1.3.3.4.4.3.1.4.1.8.1.1 0 .3 0 .4.1m-12.8-10.9c.8-.4 2.3-.1 3.1-.8.7-.6-1.2-.9-1.8-.8-.4.1-.4.6-.9.2-.4-.3-.1-.7.2-.8.1-.1.4 0 .7-.1.2-.1.3-.2.6-.3.2-.1.4.2.7 0 .2-.1 0-.4 0-.6 1.3-.1.2.9-.3 1.1.1.4 2.8 0 2 1h.3c-.2.6-2 1.2-2.7 1.2-.3 0-1.1 0-1.3-.1-.4-.1-1-.6-.1-.7" opacity=".33"/><path fill="#750B45" d="M94.7 220.6c.4.2 1.2.4 1.4.9.3.6-.3.4-.6.8-.6.9 1.9.8 2.4.4-.2-.1-.3-.3 0-.4.3-.2.4.1.8.1.8 0 1-.3 1-.9 0-.2 0-1.1-.2-1.3-.3-.3-1.3-.3-1.8-.4.2.2.8.6.4.9-.3.3-1.1.1-1.4-.1-.2-.1-.7-.6-.8-.6-.4-.1-.8.3-.9.6m-26 3.9c1.1 0 1.1.1 1.3.7.3 0 2.3 0 1.8.3-.2.1-1 .1-1.3.2-.2 0-.3-.1-.6 0-.1.1.1.3 0 .4-.3.2-.7.1-1 0-.4-.2-.1-.3-.9-.1-.9.3-1.1.3-2.1.3-.1-.2 0-.4.2-.7-.3.1-.8.2-1-.1.1-.2.6-.4.7-.7-2-.2.2-.7.8-1-.2-.7 1.4-.1 1.9-.1s.7-.1 1-.1c.4 0 .9.1 1.3.1-.1.6-1 .2-1.5.2-.4 0-1.1.3-.2.4" opacity=".33"/><path fill="#D3427A" d="M72.1 215.7s.3-.1.4-.2c-.1-.2-.4-.3-.7-.4.1 0 .3-.2.6-.2-.4-.3-1 .1-1.5-.1-.2-.1 0-.4-.3-.4s-.2.3-.2.6v.6c0 .2-.4.1-.1.4.4.4 1.3.2 1.7 0m17.7 7c0-.2-.6-.3-.8 0 .2.2.6 0 .8 0h.2m-7 5.9c-.1-.2.2-.3.4-.6 0-.2-.7-.7-1-.7-.6 0-.2.3-.2.7-.6-.2-1 0-.6.3.3.2 1.1.3 1.5.3m-13.4-12.7c-.2 0-.4.1-.6.2.2.1.6.1.8 0-.2-.1-.3-.1-.4-.1M62 218c.2-.2.3-.6 0-.8-.1.1-.3.1-.6.2-.7-.3.8-.8 1.1-1 .3.2 0 .4 0 .7 0 .2.1.4.1.7 0 .3-.8.9-1.1 1.1-.4-.2-.8-.4-.8-.9.3.1.9.3 1 0m-7.7 6.1c1.4-.3 1 .7.4 1.2-.1-.3.2-.6.1-.8 0-.2-.3-.4-.3-.7m6-1.1c0 .6 1 .6 1.4.3-.3-.2-1-.2-1.4-.3m-3.9 2.1c.1-.2.4-.3.8-.2-.5-.1-1.4.1-.8.2m19.5-6.5c-.1.3-.8.6-.7 1.1-.1-.1-.2-.1-.3-.3-.2.1-.3.2-.6.3-.4-.2.1-.9.4-1.1.3-.1 1.8-.2 1.9-.1m.5 3.5c-.3-.3-.9.1-1.3 0-.7 0-.4-.3-.9-.6-.3.9 2 1.3 2.7.7-.2.1-.3 0-.5-.1m.9 7.8c-.4 0-.8-.1-1-.3-.4.7 1.5.9 2.1.8-.3-.4-.7-.5-1.1-.5m.2-1c-.3.2.2.3.3.6-.3-.1-1.2-.5-.3-.6m-16.1-.6c-.1-.1-.3-.1-.4-.2-.2.2.2.6.6.6.8-.2-.3-.5-.2-.4"/><path fill="#FFF" stroke="#FFF" d="M59.4 228.1c0-.1 0-.3-.1-.4-1 .3.9 1.2.2.2" opacity=".31"/><path fill="#681514" d="M65.1 222c-.8-.3-.1-1.2-.3-1.8-.1-.2-.4-.4-.3-.7.2-.3.6 0 1-.2 0 .6-.6 1.4.3 1.8-.1.2-.7.7-.7.7m13.2-2.6c.3-.7 1.2-1.5.1-2.2-.9-.6-3.3-.1-4.2.3-.4.1-.8.3-.7.8.2.4.6.2 1.1.2.8-.1 1.9-.3 2.8 0 .6.2.6.4.9.8m21.6 10.5c-.3-.4-.1-.9.3-.2h.3c-.2.2-.6.3-.8.6-.3.3-.1.4-.3.8-.6-.3.1-.9.1-1.2m-21-4.6c-.6.1-1 .4-1.5.7-.7.2-1.4-.1-2 .2.7.4 4.5-.2 4-1-.3 0-.5.1-.5.1m-4.8-4.8c-.9 0 .1 1-.8 1.3-.9.2-1.8-.2-1.9-.8 0-.3-.1-1.3.6-1.3.3 0 .8.3 1 .3.3.1.8.2 1.2.1 0 .2-.1.6-.4.6m3.2 3.9c-.1-.1-.1-1.1-1-.4-.3-.2-.7-.3-1 0-.2-.1-.4-.1-.7-.2l-.3-.3H73c-.4-.2-.8-.8-1.3-.9-.2.7 1.2 1.4 2 1.7.2.1.6 0 .8 0 .2 0 .4.2.6.2.3.1 1.2-.1 1.4.2.4.1.6-.1.3-.3m-1.5 5.9c-.8-.3.4-.8-.4-1.1-.7-.2-1.8-.4-2 .1-.3.8 1.8 1.8 2.5 1.1l-.2-.2m13.8-8.9s-.1 0 0 0c-1.1-.3.8-.7.8-1 0-.6-1.4-.3-1.8-.4.2-.2.9-.4 1.3-.3.3.1.3.3.7.4.7.3 1.2-.2 1.8 0 1 .2-.2.4-.7.6-1.1.3-2 .7-2.5 1.4m-21.8-4.6c-.9.3-.7-.6-.3-.9.4-.4.8-.7 1.4-.7.7 0 1.2.3.7.8-.4.3-1.3.2-1.3.8-.3.1-.4.1-.5 0" opacity=".33"/><g fill="#750B45"><path d="M90 229.3c-.7.2-.9.8-1.8.8-.8.1-1.5-.1-2.3 0-.2 0-.6.2-.8.2-.4 0-.6-.2-.9-.2-.8-.2-1.2 0-2 .2-.6.1-1.7.3-1.7-.2 0-.7 1-.9 1.5-1 .8-.2 1.3-.7 1.9-1 .8-.6 1.8-1 2.9-1.1 1-.1 2.2.2 2.7.9.4.3-.2 1.4.5 1.4m3.3 1.3c-.4.3-1.8-.3-2.1-.6-.4-.3-.8-.9-.6-1.3.2-.6.7-.4 1.3-.4.6 0 1-.2 1.5-.4.6-.2 1.4-.6 2.1-.6 1.3 0 .3.6.4.9s1.2.2 1.2.9c0 .3-.4.9-.9 1-.6.2-1.3.1-1.9.3-.3.3-.7.7-1 .2m-11.6-5.8c.4 0 1 .2.6.7-.3.4-1.4.7-2.1.9-.9.2-2 .4-2.9.2-.4-.1-1.9-.8-1.9-1.2 0-1 2.8 0 3.4 0 1.2 0 2.2-.6 3.3-.6m-8.6 4.2c-1 .4-.8-2.1-1.2-2.3-.4-.2-1.8-.2-2.3-.1-.9.2-1.1.8-.9 1.3.2.6.9 1 1.2 1.5.3.4.7.9 1.2 1.2 1.1.8 2.1 1.2 3.7 1 .8-.1 1.7-.3 2.3-.7 1-.6.1-1.1-.9-1-.8.1-1.5.4-2.3.2-.6-.2-1.1-1-1.2-1.3m22.2-5.8c-.1-.6-.4-.9-1.4-.8-.6.1-2 .6-1.8-.3.2-.7 1.7-.9 2.3-.6.3.1 1 .6 1.1.8s-.2.6.1.7" opacity=".33"/><path d="M98.5 222.9c-.6-.6-1-1.4-1.8-1.8-1.1-.6-2.1-.2-3 .3.2 0 .6-.1.8 0 .6.1.2.1.4.3.1.1.2.2.4.3.3.2.3.2.4.6.2.6.3.6 1.2.6.4 0 1.4.1 1.7-.1m-7.6 1.8c.4-1.2 1.3.2 1.8.4.8.4 3.7.4 2.7-.6-.8-.7-2-1.2-3.2-1.2-.6 0-1.4.1-1.9.3-.2.1-1 .8-1 .9-.2.3.2 1 .8.8m-15-8c-.7.2-1.1.4-1.2.9-.1.2.2.3 0 .6-.1.2-.4.2-.6.4-.2.4.4.9-.4 1.1-.3.1-.4-.1-.8 0-.1 0-.4.4-.6.6-.3.3-.8.8-1.4.9-.8.2-.9 0-.9.7 0 .3.2.3-.1.6-.2.1-.7.1-.9 0-.3-.1-.6-.3-.9-.3-.2 0-.6.1-.8 0-1.1-.4.8-.3.9-.4.8-.2.2-.7 1-.9.7-.1 1.1 0 1.8-.4.3-.2.8-.7 1-.9.7-.7-.6-1.8 1-2.2.7-.2.9 0 1.5-.3.4-.2.9-.4 1.4-.3.4 0 .8.2 1.1.2.3.1.8 0 1 .1.9.2.2.9-.3 1.1.2-.8-1.2-.7-1.5-.2-.2-.2 0-.6-.6-.6-.1-.1 0-.1 0-.1m-11 .5c.7.1 1.5.2 1.7.7.1.3-.1 1.1-.4 1.3-.3.3-.8.6-1.1 1-.2.3-.9.9-1.2.3-.7 0-1.3 0-.9-.6.2-.3.8-.4 1.1-.8.3-.4 0-.8 0-1.2-.1-.3-.3-.2.1-.6.2-.1.6-.3.8-.3m-2 9.5c-.6.2-.9.3-1.5.2-.4-.1-.7-.3-1.1-.2-.3.1-.7.4-1 .6-.3.1-.7.2-1 .2.6 0 .4.2.8.3.6.2 1.4 0 2-.2 1-.1 1.3-.5 1.8-.9m36.1 1.9c.1-.3-.8-.7-1-1-.3-.3-.2-.7-.8-.9.4-.4 1.8-.8 2.4-.9.9-.1.6-.1.9.3.2.3.4.4.8.8-.3.4-1.2-.1-1.3.4-.1.6 1 .7 1.3.9.9.6-.8.6-1.2.7-.7.2-.1.6 0 1.1.3 0 .4 0 .6.2-.3.3-.8.8-1.2.9-.4.1-.4 0-.9 0-.1 0-.9-.1-.9-.1-.3-.2.1-.2-.1-.4-.1-.2-.4-.2-.7-.3-.4-.2-.9-.4-1.2-.6-.2-.1-1.2-.6-1.2-.9 0-.7 1.1-.4 1.5-.4.4 0 1.1-.3 1.4-.2.2.1.3.3.4.4.6-.1.8-.1 1.1-.1.1 0 .3 0 .4.1M83.2 222c.8-.4 2.3-.1 3.1-.8.7-.6-1.2-.9-1.8-.8-.4.1-.4.6-.9.2-.4-.3-.1-.7.2-.8.1-.1.4 0 .7-.1.2-.1.3-.2.6-.3.2 0 .4.2.7 0 .2-.1 0-.4 0-.6 1.3-.1.2.9-.3 1.1.1.4 2.8 0 2 1h.3c-.2.6-2 1.2-2.7 1.2-.3 0-1.1 0-1.3-.1-.4-.1-1-.6-.1-.7" opacity=".33"/><path d="M94.9 223c.4.2 1.2.4 1.4.9.3.6-.3.4-.6.8-.6.9 1.9.8 2.4.4-.2-.1-.3-.3 0-.4.3-.2.4.1.8.1.8 0 1-.3 1-.9 0-.2 0-1.1-.2-1.3-.3-.3-1.3-.3-1.8-.4.2.2.8.6.6.9-.3.3-1.1.1-1.4-.1-.2-.1-.7-.6-.8-.6-.4-.1-.8.3-.9.6m-26.3 3.9c1.1 0 1.1.1 1.3.7.3 0 2.3 0 1.8.3-.2.1-1 .1-1.3.2-.2 0-.3-.1-.6 0-.1.1.1.3 0 .4-.3.2-.7.1-1 0-.4-.2-.1-.3-.9-.1-.9.3-1.1.3-2.1.3-.1-.2 0-.4.2-.7-.3.1-.8.2-1-.1.1-.2.6-.4.7-.7-2-.2.2-.7.8-1-.2-.7 1.4-.1 1.9-.1.4 0 .7-.1 1-.1.4 0 .9.1 1.3.1-.1.6-1 .2-1.5.2-.4 0-1.1.3-.2.4" opacity=".33"/></g><path fill="#E9D8AC" d="M144.1 193.9c1.8-.1 4.2.7 6 1 2.2.3 4.3.6 6.6.6 4.8 0 8.4-1.3 12.9-2.2-.4 4.4-9.6 3.3-12.7 3.5-2.4.1-12.8 1.4-13.1-2"/><g fill="#EAEAEA" stroke="#EAEAEA" stroke-width=".25"><ellipse cx="156.6" cy="194.3" rx="16.6" ry="1.1"/><ellipse cx="156.6" cy="194.3" opacity=".2" rx="16.6" ry="1.1"/></g><path fill="#EACC7F" stroke="#CCAA5C" stroke-width=".25" d="M143.1 189c.3-10.3 6.5-18.6 14.1-18.4 7.4.2 13.3 8.7 13.1 19-.2 10.3-6.5 18.6-14.1 18.4-7.5-.2-13.3-8.7-13.1-19z"/><path fill="#2392F7" stroke="#2392F7" stroke-width=".25" d="M140.5 206.2s6.5 2.9 16.8 2.4c10.3-.4 14.7-1.4 15.2-2.4.4-1 .8-9.6.8-9.6s-10.2 2.2-15.5 2c-5.3-.2-16-.9-16.6-1.3s-1.1-.7-1.1-.7l.4 9.6z"/><path fill="#FFFFFA" stroke="#B9B9BA" stroke-width=".25" d="M146 213.9l.6 1.2s2.4 1.8 8.7 1.8 8.7-.6 9.2-.7c.4-.1 2.3-2.1 2.3-2.3.1-.2 1.4-.7 2.4-2.1 1.1-1.4 2.1-4.3 2.1-4.3v-.6s-12.3 1.8-14.9 1.8c-2.7 0-14.7-1.8-14.7-1.8s0 .7.7 2.3c.7 1.7 1.9 3.1 2.5 3.7.8.4 1.1 1 1.1 1zm27.2-17.4s-.9.9-4.2 1.4-9.1 1.4-15 1c-6.1-.3-9.8-.6-11.3-.9-1.5-.3-2.5-1-2.5-1v-3s10.2 1.2 16.6 1.2 16.5-1.4 16.5-1.4"/><path fill="#2392F7" stroke="#2392F7" stroke-width=".25" d="M145.8 213.5l.8 1.5s2.4 1.9 10.1 1.8c7.2-.1 7.5-.6 7.9-.7.6-.3 3.1-2.9 3.1-2.9s-7.1 1.3-11 1.1c-3.9-.1-10.9-.8-10.9-.8z"/><path fill="#5A3A19" d="M.7 150.6L22.5 129h34.9L79 150.6v34.8l-21.6 21.2h-35L.7 185.4v-34.8z"/><path fill="#D0D1CD" stroke="#020202" stroke-width=".25" d="M8.5 154.2l17.8-17.3h28.1l17 17.3V182l-17.5 17.3H25.8L8.5 181.9v-27.7z"/><path fill="#FCFCFC" stroke="#282827" stroke-width=".25" d="M10.9 180.9v-25.8l16-15.3 26.2-.7 15.6 16.2v25.6l-15.6 15.8H27l-16.1-15.8z"/><path fill="#CECECC" stroke="#282827" stroke-width=".25" d="M22.5 160.2l10-9.5h15l9.7 9.5v15.6l-9.7 9.9H32.7l-10.2-9.9v-15.6z"/><path fill="#231F20" d="M37.1 142h1.4v7.2h-.7v-6.5h-1.1l.4-.7zm4.9 2.3h-.7c0-.7.3-1.3.7-1.8.5-.5 1-.7 1.7-.7s1.2.2 1.6.6c.4.4.6.9.6 1.5 0 .4-.1.8-.3 1.2-.2.4-.6.8-1.1 1.5l-1.8 1.9H46v.7h-4.9l2.8-3c.6-.6.9-1 1.1-1.3.2-.3.3-.6.3-.9 0-.4-.2-.8-.5-1.1s-.7-.4-1.1-.4c-.5 0-.8.2-1.2.5-.3.3-.4.7-.5 1.3zm10.3.2h1.4v7.2H53v-6.5h-1.1l.4-.7zm7 11.7h-.7c0-.7.3-1.3.7-1.8.5-.5 1-.7 1.7-.7s1.2.2 1.6.6c.4.4.6.9.6 1.5 0 .4-.1.8-.3 1.2-.2.4-.6.8-1.1 1.5l-1.8 1.9h3.3v.7h-4.9l2.8-3c.6-.6.9-1 1.1-1.3.2-.3.3-.6.3-.9 0-.4-.2-.8-.5-1.1s-.7-.4-1.1-.4c-.5 0-.8.2-1.2.5-.2.3-.4.7-.5 1.3zm2.8 10.9h-.7c.1-.6.4-1.1.8-1.4.4-.3.8-.5 1.4-.5.4 0 .7.1 1.1.3.3.2.6.4.8.7.2.3.3.6.3.9 0 .6-.3 1.1-.9 1.5.3.1.6.3.9.6.3.4.5.8.5 1.3 0 .4-.1.8-.3 1.2-.2.4-.5.7-.9.9s-.8.3-1.3.3c-.6 0-1.1-.2-1.6-.5-.4-.4-.7-.9-.8-1.6h.7c.1.5.3.8.5 1 .3.3.7.4 1.1.4.5 0 .9-.2 1.3-.5s.5-.7.5-1.1c0-.3-.1-.5-.2-.8l-.6-.6c-.3-.1-.7-.2-1.2-.2v-.7c.3 0 .6-.1.9-.2.3-.1.5-.3.6-.4.1-.2.2-.4.2-.6 0-.3-.1-.6-.4-.8-.3-.2-.6-.3-1-.3-.3 0-.6.1-.8.3s-.7.4-.9.8z"/><path fill="#7C5B39" d="M22.5 129l3.7 7.9h28.1l3.2-7.9h-35z"/><path fill="#361C0D" d="M.7 150.6l7.7 3.6v27.6l-7.7 3.6v-34.8zm25.1 48.7l-3.4 7.3L.7 185.4l7.7-3.6 17.4 17.5z"/><path fill="#361C0D" d="M53.9 199.3l3.6 7.3H22.4l3.4-7.3h28.1z"/><path fill="#5A3A19" d="M71.4 182l7.7 3.4-21.6 21.2-3.6-7.3L71.4 182z"/><path fill="#7C5B39" d="M71.4 154.2V182l7.7 3.4v-34.8l-7.7 3.6z"/><path fill="#9B7B5A" d="M54.3 136.9l17 17.3 7.7-3.6L57.5 129l-3.2 7.9z"/><circle cx="40" cy="168.4" r="1.7" fill="#FCFDFF" stroke="#231F20" stroke-width=".25"/><circle cx="40" cy="168.4" r="1.4" fill="#EFEFED" stroke="#161615" stroke-width=".25"/><path fill="none" stroke="#231F20" stroke-width=".25" d="M43.7 150.8l-.1.7-5.5 25.5 5.6-26.2z"/><path fill="#231F20" stroke="#231F20" stroke-width=".25" d="M38.3 174.1h.6l-.7 2.9h-.7l.8-2.9z"/><g fill="#231F20" stroke="#231F20" stroke-width=".25"><path d="M40 168.2l-.4-15.2-.6.4.3 14.6.7.2z"/><path d="M38.3 153.1l2.3.3-.9-4.4-1.4 4.1z"/></g><g stroke="#231F20" stroke-width=".25"><path fill="#231F20" d="M33.8 176.4l2.6 1.6-2.9 2.4.3-4z"/><path fill="none" d="M39.7 170.1l-4.9 7.6"/></g><path fill="#231F20" d="M64.6 175.2h.1v5.1h.9v.7h-.9v1.7H64V181h-3.5l4.1-5.8zm-.6 5.1v-3l-2.1 3H64zm-7.1 5.7v.7h-2.6l-.4 2c.3-.1.6-.1.9-.1.7 0 1.2.2 1.6.7s.6 1 .6 1.7c0 .5-.1.9-.3 1.3-.2.4-.5.7-.9.9-.4.2-.8.3-1.3.3-.6 0-1.1-.2-1.5-.5-.4-.4-.6-.8-.7-1.4h.7c.1.3.1.5.3.7.1.2.3.3.5.4s.5.2.7.2c.5 0 .9-.2 1.2-.5.3-.4.5-.8.5-1.4 0-.5-.2-.9-.5-1.2-.3-.3-.7-.5-1.2-.5-.4 0-.9.1-1.6.4l.7-3.6h3.3zm-14.5 2l.6.4-2 3c.3-.1.5-.1.7-.1.6 0 1.1.2 1.5.6s.6.9.6 1.5c0 .4-.1.8-.3 1.1-.2.3-.5.6-.8.8-.4.2-.7.3-1.2.3-.4 0-.8-.1-1.1-.3-.3-.2-.6-.5-.8-.8-.2-.3-.3-.7-.3-1.1 0-.3.1-.6.2-.9.1-.3.3-.7.6-1.2l2.3-3.3zm-.8 3.9c-.4 0-.8.1-1.1.4-.3.3-.4.7-.4 1.1 0 .4.1.8.4 1.1.3.3.7.4 1.1.4.4 0 .8-.1 1.1-.4.3-.3.4-.7.4-1.1 0-.4-.1-.8-.4-1.1s-.7-.4-1.1-.4zm-15.1-4.7h4.6l-3.9 7.4-.6-.3 3.3-6.4h-3.5v-.7zm-7.7-5.2c.5.2.8.5 1.1.8s.3.7.3 1.1c0 .6-.2 1.1-.5 1.5-.4.5-1.1.8-1.9.8-.8 0-1.4-.2-1.8-.7-.4-.5-.6-1-.6-1.5 0-.4.1-.8.3-1.1s.6-.6 1.1-.9c-.4-.2-.6-.4-.8-.7-.2-.3-.3-.6-.3-.9 0-.3.1-.6.3-.9.2-.3.5-.5.8-.7s.7-.3 1.1-.3c.4 0 .7.1 1 .3.3.2.6.4.8.7.2.3.3.6.3.9s-.1.6-.3.9-.5.5-.9.7zm-1 .4c-.5 0-.9.2-1.3.5-.3.3-.5.7-.5 1.1 0 .3.1.5.2.8.1.2.3.4.6.5s.6.2.9.2c.5 0 .9-.2 1.3-.5s.5-.7.5-1.1c0-.4-.2-.8-.5-1.1-.3-.3-.7-.4-1.2-.4zm0-3.1c-.4 0-.7.1-1 .4s-.4.5-.4.8c0 .3.1.6.4.9s.6.4 1 .4c.2 0 .5-.1.7-.2s.4-.3.5-.5c.1-.2.2-.4.2-.6 0-.3-.1-.6-.4-.8-.2-.3-.6-.4-1-.4zm-3.5-5.5l-.6-.4 2-3c-.3.1-.5.1-.7.1-.6 0-1.1-.2-1.5-.6-.4-.4-.6-.9-.6-1.5 0-.4.1-.8.3-1.1.2-.3.5-.6.8-.8.4-.2.7-.3 1.1-.3.4 0 .8.1 1.1.3.3.2.6.5.8.8s.3.7.3 1.1c0 .3-.1.6-.2.9-.1.3-.3.7-.6 1.2l-2.2 3.3zm.8-3.9c.4 0 .8-.1 1.1-.4s.4-.7.4-1.1-.1-.8-.4-1.1-.7-.4-1.1-.4c-.4 0-.8.1-1.1.4s-.4.7-.4 1.1.1.8.4 1.1.7.4 1.1.4zm-.8-16.1h1.4v7.2H15v-6.5h-1.1l.4-.7zm4 3.6c0-1 .1-1.7.3-2.2.2-.5.5-.9.9-1.2.4-.3.8-.4 1.3-.4s.9.1 1.3.4c.4.3.7.7.9 1.2.2.5.3 1.3.3 2.2 0 .9-.1 1.6-.3 2.2-.2.5-.5.9-.9 1.2-.4.3-.8.4-1.3.4s-.9-.1-1.3-.4-.7-.7-.9-1.2-.3-1.2-.3-2.2zm.7.1c0 .8.1 1.4.2 1.9.1.4.4.7.6 1 .3.2.6.3.9.3.3 0 .6-.1.9-.3.3-.2.5-.5.6-1 .2-.5.3-1.1.3-1.9 0-.7-.1-1.3-.2-1.8-.2-.5-.4-.8-.7-1-.3-.2-.6-.3-.9-.3-.3 0-.6.1-.9.3-.3.2-.5.5-.6 1-.1.3-.2.9-.2 1.8zm4.8-13.1h1.4v7.2h-.7v-6.5h-1.1l.4-.7zm5.6 0h1.4v7.2h-.7v-6.5H29l.4-.7z"/><path fill="#FCDD00" stroke="#E0C005" stroke-width=".25" d="M55.5 179.1c0 .9-.7 1.7-1.7 1.7h-9.6c-1 0-1.7-.7-1.7-1.7v-2.9c0-.9.7-1.7 1.7-1.7h9.6c1 0 1.7.7 1.7 1.7v2.9z"/><path fill="#231F20" d="M47.3 176.2v4.3h-.5v-.7c-.2.3-.5.5-.8.6s-.6.2-.9.2c-.6 0-1.1-.2-1.5-.7s-.6-1-.6-1.6c0-.6.2-1.1.6-1.6s.9-.7 1.6-.7c.3 0 .7.1.9.2s.5.4.7.7v-.8h.5zm-2.2.4c-.3 0-.6.1-.8.2-.3.1-.5.4-.6.6-.2.3-.2.6-.2.9 0 .3.1.6.2.9.2.3.4.5.6.6.3.2.5.2.8.2.3 0 .6-.1.9-.2.3-.2.5-.4.6-.6.1-.3.2-.5.2-.9 0-.5-.2-.9-.5-1.2s-.7-.5-1.2-.5zm3.4-.4h.5v.7c.2-.3.4-.5.6-.6.3-.2.6-.3.9-.3.2 0 .4 0 .6.1s.3.2.5.3.2.3.3.6c.2-.3.4-.6.7-.8s.6-.3.9-.3c.3 0 .6.1.8.2.2.1.4.4.5.6.1.3.2.7.2 1.2v2.3h-.6v-2.3c0-.5 0-.8-.1-.9s-.2-.3-.3-.4c-.2-.1-.3-.2-.6-.2s-.5.1-.7.2c-.2.2-.4.4-.5.6s-.2.7-.2 1.3v1.7h-.5V178c0-.5 0-.9-.1-1s-.2-.3-.3-.4-.3-.2-.6-.2-.5.1-.7.2-.4.4-.5.6-.2.7-.2 1.2v1.8h-.5v-4z"/></g></switch></svg>
