<svg xmlns="http://www.w3.org/2000/svg" version="1.0" viewBox="0 0 208.5 107.8"><switch><g><ellipse cx="135" cy="91.9" stroke="#000" stroke-width="1.721" rx="14.5" ry="15.9" transform="rotate(-180 135.038 91.945)"/><path fill="#F4F4F4" stroke="#C4C4C4" stroke-width=".25" d="M206.8 83s-.4-1.3-1.1-3.1c-.7-1.8-.8-8.7-1.3-9.8-.4-1.1-1.1-5.3-1.1-5.3s-.8-9.3-2.6-15.4c-1.7-6-3.5-10.5-4.6-12.7-1.1-2.2-3.5-6.7-3.5-6.7l-2.6-3.8v-2l-2.4-1.8s.3-8.2.1-9.6c-.2-1.3 0-4.9 0-4.9l-6.4-1.2s-23.3-5-30-5.3c-6.7-.3-12.4-1.4-12.4-1.4h-2.2s-3.6-.2-4.9 0c-1.3.2-6 2.2-7.3 1.7-1.3-.5-8.7 1.9-8.7 1.9l-3.8 2s-3.6 2-4.5 2c-.9 0-19.6 3.2-24.2 3.6-4.7.4-38.7 6.4-40.9 6.6-2.2.2-20.2 2.8-23.4 3.4-3.1.6-8.5 1.1-8.5 1.1l-3.8 1.1-2.2 1.3S.8 51.1 1 53.3c.2 2.2 0 3.8 0 3.8s-.1-.7-.3.3c-.2.9 0 2 0 2l.8.6-.5.6s-.3-.6-.5.3c-.2.9-.5 1.8 0 1.8.4 0 .4 1.1.4 1.1s-.8.2-.7.7c.1.6.4 1.3.4 1.3s.3.6.2.9c-.1.3 0 1.5 0 1.5l-.3 1.4-.4 4.5s-.3 4.1 0 4.4c.3.3.9 1.6 1.5 1.6.6.1 20.1 3.3 20.1 3.3s.5-7.8.8-9.5c.3-1.7 2.2-6.6 5-5.8 2.7.8 4.7 5.3 5 7.3.3 2 .2 10.5.4 10.3L85.6 93s28.6 4.3 29 4.3h4.1c.8 0 1.7-.6 1.7-.6s-1.6-10.3-.6-12.8 2.1-4.6 2.4-5.6c.4-1 3.4-3.3 4.8-3.7 1.4-.4 3.2-.6 6 .7 2.8 1.3 6.9 5.4 7.6 7 .6 1.7 1.5 5.5 2.1 7.4.6 1.9 2.1 4.6 3 5.5.9.9 1.9 2.7 3 2.3 1.1-.4 7.6.3 9.6.1 0 0 6.1 1.3 8.6.1s10.2-2.4 11.4-2.4c1.3 0 8.4.1 8.4.1s6.6 0 8.1-.7c1.5-.8 5.6-.2 7.1-1.5s3.6-3 3.6-3l1.2-3 .1-4.2"/><path fill="#444" stroke="#444" d="M84.9 61.4l-23.3-.9 1.3-27.2 22.2-2.1zM60.6 33.6l-19.3 1.8-1 24.3 20.2.8zm-20.7 1.9l-16.2.9-1.2 23.2 16.6.1zm-32.7 2L6 59l15.2.1 1-22.6-15 .8M187.1 9.9l-.8-.8V7.8l-2.3-.4s-.4 1.4-.5 1.2c-.1-.1-43-5.7-43-5.7V.4l-2.7-.3h-.4v2.1s-1.7-.2-1.8.8c-.1.9-.1 13.3-.1 13.3s.9.3 1.2.9c0 0 1.9.5 3.7.8 1.9.3 47.2 4.5 47.2 4.5l-.5-12.6z"/><path fill="#565656" stroke="#565656" stroke-width="1.482" d="M181.5 9.7l-.1 10.9-38-3.8-.4-12.2z"/><path fill="#444" stroke="#444" d="M199.7 94s-1.3 2.5-3.2 4.5c-1.9 2-4.3 3.6-6.5 3.9-2.1.2-4.9.6-5.4 0-.6-.7-3-2.3-3-2.3l-2-2.4-.7-2.3 12.2-.8 8.6-.6z"/><path stroke="#000" stroke-width="1.482" d="M202.6 92.7l-4.1 1.2s-5.5 7.5-6.7 7.9c-1.2.4-3.4.8-3.4.8s2.7.9 4.1.8c1.4-.1 6.3-1.4 7.2-3 .9-1.6 2.9-4.3 2.9-4.3v-3.4z"/><ellipse cx="157.4" cy="91.7" fill="#FC851F" stroke="#FC851F" stroke-width="1.482" rx="1.4" ry="1.9" transform="matrix(-1 -.00613 .00613 -1 314.217 184.28)"/><ellipse cx="203.1" cy="88.7" fill="#FC851F" stroke="#FC851F" stroke-width="1.482" rx="1" ry="1.9" transform="matrix(-1 -.00627 .00627 -1 405.663 178.724)"/><path fill="#E5E5E5" stroke="#E5E5E5" stroke-width="1.482" d="M189.3 87.9l-10.4-.1 1-.6 8.6-.4z"/><path fill="#E5E5E5" stroke="#E5E5E5" stroke-width="1.482" d="M176.3 88.6h-1.2l.4-.8h4.5v.4zm11.7 4c-.9-.2-8 0-8 0v1.1l8-.5v-.6z"/><path fill="#FFF" stroke="#FFF" stroke-width="1.482" d="M188.5 87.8l.8 4.4-15.4.3 1.2-3.9z"/><path fill="#444" stroke="#444" d="M204.2 75.6s.4 1.8.4 3.9c0 2.1-1.4 3.5-1.4 3.5s-16.6 0-22.2.4c-5.6.4-15.8 1-16.3 1.3-.5.2-3.8.7-6.3.9-2.5.2-4 .4-4.4 0-.4-.5-1.1-7.9-1.1-7.9l27.7-.8 15.1-1.1 8.5-.2z"/><path fill="#A5A5A5" stroke="#A5A5A5" stroke-width="1.482" d="M152.2 69.2v.9h7.9c2.3 0 44.1-.6 44.1-.6l-.4-.9-51.6.6zm.7 2.5h-.7l.3 12.2.4.1z"/><path fill="red" d="M152.6 8.4l-.2 1 1.6.3-2.8 5-.2 1.2h3.2l.1-1-1.5-.2 2.4-5.8zm3.1 4.5l.1-1 1.2-.1-.1.9zm6-.2s-.9-1-.8-.2c.1.9-.4 2.7-.4 2.7l.9.2.6-1.3-.3-1.4zm4.8-1.7l1.7-.2.1-1-2.7-.5-1.1 7.4 3.3.6-.5-.8-1.6-.3.3-2.7 1.5.3v-1.1l-1.4-.4zm-7.3 1.2l.7.2-.2-1.3-1.5.3-.6.2-.7 4.6 1.7.3v-3.7z"/><path fill="red" d="M155.9 11.2s-.2-.9.7-.7c.9.2 1.1.5 1 1-.1.6-.5 1.5-.8 1.8-.3.3-1.2.3-1.2.3l.4 1 .2.4.9.2-.1.9-1.1-.2-1.6-.3s.1-2 .3-2.3c.3-.4.2-1.3.2-1.3l.1-1 1 .2z"/><path fill="#89D0EF" stroke="#89D0EF" stroke-width="1.482" d="M188.9 24.8l-52-4.8 8.5 17 4.1 11.3 1.1 5.8 1.2 4.7 1.1 4.9 9.2 1.3 27.9-1.1 11.5-.2 1.2-.2s-1.1-9.2-1.6-11c-.5-1.8-3.5-10.9-3.8-12-.3-1-2.7-7-3.3-8.1-.6-1.1-2.8-5.1-2.8-5.1l-2.3-2.5z"/><path fill="#E5E5E5" stroke="#E5E5E5" stroke-width="1.482" d="M124.8 4.5l.2.2c.7.8 3.6 3.9 5 6.4 1.7 2.8 3.2 5.2 3.4 5.6.2.3.5 1.3 1.1 1.3h1.1l-1.1-2.1s.9-12 0-12.8c-.9-.8-1.9.1-3.6 0-1.6-.1-3.9.6-4.2.7-.5.1-1.9.7-1.9.7z"/><path fill="#D1D1D1" stroke="#D1D1D1" stroke-width="1.482" d="M121.8 8.7s3.8 2.6 4.9 3.8c1.1 1.2 3.5 4.3 3.8 4.5.3.2 1.9 2.6 1.9 2.6s-5.3-5.6-5.8-6.2c-.5-.6-1.9-2-2.4-2.3-.5-.4-2.4-2.4-2.4-2.4z"/><path fill="#D1D1D1" stroke="#D1D1D1" stroke-width="1.482" d="M123.3 5.2c.3 0 1 .3.8.5-.3.3-.7-.3-1.3 0-.6.3-1 .6-1.4 1.2-.3.6-.1 8.5-.1 8.5h-1.2s-.4-7.8.1-8.2c.4-.4 1.6-1.9 1.8-2 .3-.1 1.3 0 1.3 0z"/><path fill="#E5E5E5" stroke="#E5E5E5" stroke-width="1.482" d="M148.1 65.3s1.5 7.3 2 8.6c.5 1.4 1.1 6.6 1.1 6.6h-1.6s-1.9-6.5-4.2-8.8c-2.4-2.3-5-5.1-5-5.1l-3.1-1.5 10.4.2"/><path fill="#FFF" stroke="#FFF" stroke-width="1.482" d="M149.6 80.5s-1.5-6-3.7-8.3c-2.2-2.2-7.8-6.7-8.6-7.1-.8-.4-3.5-2.1-5.1-2.3-1.6-.2-8.4-.1-8.4-.1l-4.7-.1v1.1s8.3-.8 13.1 1.4c4.8 2.2 6.5 5.9 7.8 7.7 1.3 1.8 2.6 6.4 2.6 6.4v1.3h7z"/><path fill="#A5A5A5" stroke="#A5A5A5" stroke-width="1.482" d="M151.3 80.5l-12.5-.6.9 1.1 12.4.1V80z"/><path fill="#661E12" stroke="#661E12" stroke-width="1.482" d="M128.51 67.59l3.6.023-.015 2.4-3.6-.023z"/><path fill="#A5A5A5" stroke="#A5A5A5" stroke-width="1.482" d="M122.2 78.3l-3.3-.2.1-16.2h-1l-.1 16.5 4 .6z"/><path fill="#E5E5E5" stroke="#E5E5E5" stroke-width="1.482" d="M115.7 81.1l3.2.6v2h-3.3z"/><path fill="#444" stroke="#444" d="M118.8 98l1.1 1.3 2.1-.6s.3-11.9 1.7-14.2c1.4-2.3 2.9-4.6 4.6-5.3 1.7-.7 6.7-.8 7.8 0 1.1.8 4.3 3.2 4.3 3.2s-6.4-8.3-10.3-7.9c-3.9.4-6.5.9-7.6 3.2-1.2 2.3-2.7 5.6-2.9 6.2-.2.7.7 5.1.3 5.7-.5.5.2 6.6.2 6.6l-.3.8-1 1z"/><path fill="#A5A5A5" stroke="#A5A5A5" stroke-width="1.482" d="M114.6 95.4l-27.1-3.8v1.5l27 4.2z"/><path fill="#000205" stroke="#000205" stroke-width="1.482" d="M115.4 28.9l-26.3 1.4s-.7-7.1 0-7.7c.8-.6 24.5-2.7 25.9-2.7 1.6 0 .7 4.6.7 5.5 0 .3-.3 3.5-.3 3.5z"/><path fill="#444" stroke="#444" d="M120.1 60.8l.1-22.6s.8-16.6.7-17.3c-.1-.6.4-2.3-1-3.9-1.4-1.5-32.7 2.2-32.7 2.2l-1.3 42.4-.1 17.9.2 7.9v5l1.5.6v-1.5l.9-8.1.6-21.7 1-31.5.1-8.4 26-2.3-.5 42.4 4.5-1.1z"/><path fill="#000102" stroke="#313234" stroke-width="1.482" d="M113.7 85.5l.4-56.8h1.8l-1.3 58.1-1.5-.2z"/><path fill="#444" stroke="#444" d="M114.6 87.3V95l-14.7-2.1.1-7.4z"/><path fill="#E5E5E5" stroke="#E5E5E5" stroke-width="1.482" d="M118.4 7.7s.3 7.1 0 7.5c-.3.4-54.2 5.9-58.1 6.5 0 0-22.9 1.4-31 3.1-8 1.7-14.2 3.3-14.2 3.3s-4.2-.3-5.5 0c-1.3.2-3 1.9-3.8 1.7-.8-.2-.6.2-1-1.7-.5-1.9 2-2 2.6-3.4.6-1.4 33.3-5.1 39.6-6 6.4-.9 28.6-5.1 30.1-4.8 1.5.3 16-1.7 16-1.7s13.1-1.5 15.3-2c2.1-.5 7.8-1.5 7.8-1.5l2.2-1z"/><path fill="#FFF" stroke="#FFF" stroke-width="1.482" d="M84.8 76.1v2.7l-52.7-5-.7-1.7zM22.6 73l-17-1.5v-1.7l17.5 1.6z"/><path fill="#E5E5E5" stroke="#E5E5E5" stroke-width="1.482" d="M84.8 80.9v-2.1l-52.7-5 .4 1.7zm-.1 10.4l.9 1.7-52.7-7.2v-1.3l22.7 2.8 19.7 2.8z"/><path fill="#A5A5A5" stroke="#A5A5A5" stroke-width="1.482" d="M5.6 68.6v1.2l-5.1-.1.3-1.4z"/><ellipse cx="82.6" cy="67.2" fill="#661E12" stroke="#661E12" stroke-width="1.482" rx=".8" ry="1.4"/><path fill="#444" stroke="#444" d="M85.1 31.2c-.4 0-45.2 4.3-45.2 4.3L7.2 37.3v-7.5s.6-.1 2.2-.4c1.6-.3 10.4-1.5 11.5-1.5 1.1-.1 17.2-2.1 19.7-2.4 2.5-.3 22.9-2.4 24.1-2.9 0 0 5.7-.8 9.9-1.2 4.2-.4 12-1.3 12-1.3s-.6 2.4-.8 4.1c-.1 1.5-.7 7-.7 7z"/><path fill="#000205" stroke="#000205" stroke-width="1.482" d="M61.4 60.5L63 22.8l-1.4.2-1.1 37.5zm-21.1-.8l1.4-34.4-1.1.1-1.5 34.3zM23.8 27.5l-1.3 32.1-1.3-.5 1.4-31.5z"/><path fill="#E5E5E5" stroke="#E5E5E5" stroke-width="1.482" d="M22.6 73l-17-1.5.3 1.4 16.7 1.2z"/><path fill="#BABABA" stroke="#BABABA" stroke-width="1.482" d="M132.2 83.7c-.2 0-.5-.3-2 0s-3.6 2.9-4 3.9c-.4 1.1-1.2 6.3-1 7.7.2 1.4 2.5 5.6 4.4 6.6 2 1 2.8 1.5 4.9 0s4.2-4.5 4.1-5.9c0-1.4-.2-4.3-.7-6.1-.5-1.8-.6-1.8-1.8-3.3-1.3-1.5-1.4-1.4-1.9-1.8-.5-.1-2-1.1-2-1.1z"/><path fill="#050505" stroke="#050505" stroke-width="1.482" d="M137.4 92.8c-1.3-.9-1.8 1.6-1 2.3 1.3 1.1 1.1-1.8.8-2.4m-2.2 7.1c-.4-.2-1.8-.3-1.9.4-.2 1.1 1.6.4 2 .4.1-.6-.5-.9-1.1-.9m1.4-12.3c.3 1-2 .8-2.1-.6-.2-1.8 1.9-.4 2.1.6m-2.3-2.4c0 .1-.2.3-.3.5-1-.4-1.5-.4-2.3.2-.4.3-2 2.1-2.1.8 0-1 1.1-1.5 1.9-1.6.9-.1 1.7.3 2.5.2"/><ellipse cx="130.8" cy="94" stroke="#000" stroke-width="1.721" opacity=".27" rx="3.4" ry="5.4" transform="matrix(-1 -.00623 .00623 -1 261.022 188.713)"/><path stroke="#000" stroke-width="1.721" d="M133.8 101.7c-1.3-.1-2.3-.7-3.4-1.2s-1.2-1.2-2-2.1c-.4.9 1.3 2.4 2 2.9.8.5 2.2.7 3.1.5" opacity=".27"/><path stroke="#000" stroke-width="1.721" d="M130.9 98.3c.9.7 1.5 1.2 2.6 1.4.9.2 1.5-.2 2.4-.1.7 1.8-2.6 2.5-3.7 2.8 1.2-.2-.3-.7-.6-.9-.7-.3-1.2-.6-1.7-1.2-.3-.3-1.1-1.4-.7-1.9.4-.6 1.6.1 2.1.3m-2.8-11.6c0 .7-.6 1.2-1 1.8-.4.6-.7 1.2-.9 1.9-.5 1.5.4 2.3.6 3.6-.5-.2-.7-.9-1.1-1.2.2.5-.1 3.3-.8 2.6-.3-.3 0-2.8 0-3.3.1-1.1.6-2.2.7-3.3.1-1.2.6-2.4 1.4-3.4 1.3-1.4 5.5-3.5 6.6-.8.5 1.1-1.8.4-2.6.5-1.8.1-2.1 1.4-3.5 2.2" opacity=".27"/><path fill="#444" stroke="#444" d="M201.8 63.3l-49.2.2s0-1.4-.4-3.6c-.4-2.1-1.1-4.6-1.7-6.1-.6-1.5-.5-3.3-1.1-4.5-.6-1.2-1.7-4.2-1.7-4.2l-.9-3.6-1.6-3.3-.7-2.5-1-2.9-1.5-3-1.7-3-1.3-2-1.3-2.5-.8-1.3h4.2s6.9.6 8.6.8c1.7.3 12.3 1.1 12.3 1.1l9.5 1 9.6.9 6.6.5 1.3.7s2.3 3.9 3.1 5.4c.8 1.5 2.9 6.6 3.6 8.1.7 1.5 3.3 9 3.7 10.4.4 1.4 1 3.7 1.2 5 .2 1.3.3 3.8.6 4.9.3 1.1.5 2 .5 2l1.3.3s-1.9-11.6-2.3-12.8c-.4-1.2-2.3-7.2-2.7-8.2-.4-1-1.6-4-2.4-5.5-.7-1.4-2.2-4.3-2.7-5.2-.5-.9-2.9-4.3-2.9-4.3s-1-1.5-1.3-1.6c-.3-.2-4.7-.5-9.4-.9-4.7-.5-11.3-1.3-14.6-1.4-3.3-.2-7.9-.8-10.2-1.1-2.4-.3-7.8-.6-9.4-.7-1.6-.2-5.5-.6-6.6-.7-1.1-.1-2.4-.2-2.7 0-.3.2-.6.9.6 2.5 1.2 1.5 6.1 11 7.5 14.6 1.4 3.6 5.1 15.7 6 18.6.9 2.9 1.5 6.5 1.5 7.6 0 1.1.8 2.4.8 2.4l50.9-.3v-2.8l-1.1-.4-.2 1.4z"/><path fill="#444" stroke="#444" d="M200.8 66s.9.6 0 1.4c-.9.8-1.7.8-2 .7-.3-.2-1.1-.9-1.3-1.4-.2-.6-1.1-1.4-1.8-1.8-.7-.3-3.3-2.5-4-2.6-.7-.2-2.1-.6-3.1-.7-1-.1-6.7-.6-7.4-.6-.7 0-3.7-.5-4.3-.6-.6-.1-1.9-.2-2.8-.4-.9-.3-3.9-.9-3.9-.9l.5-.6s10.9 1 13.5 1.3c2.6.3 6.3.5 8 1.3 1.7.9 6.6 3.8 6.6 3.8.5 0 2 1.1 2 1.1z"/><path fill="#444" stroke="#444" d="M186.5 66.5s.1 1.6-.4 1.5c-.5-.1-1.9.5-1.9.5s-4.2-3.7-6-4.7c-1.8-1-2.6-1.7-3.6-1.8-.9-.1-21.6-1.3-21.6-1.3l-.4-1.1s21.3.4 23.1 1.3c1.8.9 8.2 3.8 8.6 4 .4.3 2.3 1.2 2.3 1.2l-.1.4z"/><ellipse cx="202.2" cy="79.5" fill="#FFF" stroke="#8E8E8E" stroke-width="1.482" rx="1.5" ry="2.7" transform="matrix(-1 -.00613 .00613 -1 403.926 160.286)"/><ellipse cx="198" cy="79.5" fill="#FFF" stroke="#8E8E8E" stroke-width="1.482" rx="1.7" ry="2.7" transform="matrix(-1 -.00613 .00613 -1 395.464 160.21)"/><ellipse cx="161.5" cy="81.1" fill="#FFF" stroke="#8E8E8E" stroke-width="1.482" rx="2.1" ry="2.8" transform="matrix(-1 -.00605 .00605 -1 322.537 163.253)"/><ellipse cx="156.7" cy="81.3" fill="#FFF" stroke="#8E8E8E" stroke-width="1.482" rx="1.7" ry="2.7" transform="matrix(-1 -.00614 .00614 -1 312.85 163.611)"/><path fill="#E5E5E5" stroke="#E5E5E5" stroke-width="1.482" d="M203.6 91.9l-.5 2.9s-20.7 2.3-25.6 3.2c-5 .8-12.6 1.3-15.4 1.7-2.7.3-6.9.5-9 .4-2.1-.1-4 1.2-4.5-.7-.6-1.9.5-1.6 1.3-2.2.8-.7 20.2-1 20.2-1s.8-1.4 2-1.3c1.2.1 2.7.6 4 .5 1.3-.2 9.1-.3 9.1-.3s0-.7 3.8-.6c1.4 0 7.1-.8 7.1-.8s5.3-.7 6.2-1a25 25 0 001.3-.8z"/><path fill="#444" stroke="#444" d="M188 93.9h-3.3l-.1 1.4h2.8zm-15.6 1.4l-2.6-.1-.3 1.3h2.6z"/><path fill="#050505" stroke="#050505" stroke-width="1.482" d="M132.1 91.7c.3-.1 1.4-.3 1.6 0 .7.8-.7.9-1 1.1-.8.8-.1 2.4.1 3.3-.4.1-.8.4-1.1.5-.5 0-.8-.2-1.3-.3 0 .4-.1.8-.3 1.1-.6-.3 0-.8-.2-1.3-.3-.5-1.1-.6-1.5-.5-.1-.6.5-1 .5-1.6.1-.6-.2-1.5-.7-1.8-.3-.2-1.9-.2-1.2-1 .5-.6 1.4.6 1.9.4 1-.4-.1-3.5 1.5-2.8 1.4.6 0 3.2 1.8 3m-4.4 3.3c-.7-.2-1.3.7-.7 1.2.8.6 1.4-1.2.3-1.1"/><path fill="#050505" stroke="#050505" stroke-width="1.482" d="M129.8 97.6c.4-.3 1.4-.1 1.1.6-.3.6-1.4.2-1.6-.1.2-.5.7-.7 1.2-.8m2.2-1.3c.4-.6 1.2.1.8.6-.3.4-1.4.2-1.5-.2.2-.3.5-.5.8-.6"/><path fill="#A5A5A5" d="M119.1 81.5v.6l-3.7-.3v-1z"/><ellipse cx="27.6" cy="80.3" stroke="#000" stroke-width="1.721" rx="5.6" ry="10.7" transform="matrix(-1 -.00607 .00607 -1 54.733 160.81)"/><ellipse cx="28.5" cy="80.7" fill="#BABABA" stroke="#BABABA" stroke-width="1.482" rx="3.2" ry="6.7" transform="rotate(-180 28.547 80.67)"/><ellipse cx="29.9" cy="80.3" stroke="#000" stroke-width="1.721" opacity=".27" rx="2" ry="4.9" transform="matrix(-1 -.00607 .00607 -1 59.283 160.844)"/><path d="M35.4 86.5s-1.3 4.1-3.7 5.1c-2.4 1-4.9 0-4.9 0L32 87l.9-1.2 2.5.7z"/><path fill="#B2B7B7" stroke="#B2B7B7" stroke-width="1.482" d="M30.6 70.8c-.3-.3-2.8-2.3-4.2-1.2-1.3 1.1-3.2 3.9-3.2 3.9l-.4 1s.3-3.8 2-5.2c1.7-1.4 2.4-1.3 3.2-.8 1 .5 2.6 2.3 2.6 2.3z"/><path fill="#000102" stroke="#000102" stroke-width="1.482" d="M100 85.9l13.7 1.8.9-.9-13.5-1.4zm14.6 6.7l-13.5-1.3v-1.1l13.5 1.5z"/><path fill="#444" stroke="#444" d="M98.5 85.3l-.1 7.7-11.1-1.6.8-7.7z"/><path fill="#000102" stroke="#000102" stroke-width="1.482" d="M98.4 85.4H87.8l-.2-1.1 10.8.6zm-.1 4.8c-.5-.5-11.5-1.7-11.5-1.7l.3.9 11.3 1.9-.1-1.1z"/><path fill="#444" stroke="#020202" d="M114.1 28.7l-24.2 1.6-1.8 53.4 26.5 3.1z"/><path fill="#89D0EF" stroke="#89D0EF" stroke-width="1.482" d="M120 17.1l1 3.9-1.3 40.5s12.2.5 14.7 1.4c2.5.9 12.7 1.1 12.7 1.1l1-2.2-7.3-22.1s-4.6-12.8-5.4-12.4c-.8.4-4.8-7-4.8-7l-5-3.2-4.6-1-1 1z"/><path fill="#747677" stroke="#747677" stroke-width="1.665" d="M124.7 23.9s.3-1.4-.6-1.7c-.8-.3-7-1.3-7.3 0-.3 1.3-1.4 14.5-.9 15.1.5.6 7.7 1.2 8 .9.3-.3.9-9.1.9-9.1l-.1-5.2z"/><path fill="#444" stroke="#444" d="M124.5 24.8s.2-1.3-.5-1.5c-.7-.3-6.1-1.2-6.3 0-.2 1.1-1.2 13.2-.8 13.7.4.5 6.7 1.1 7 .8.3-.3.8-8.2.8-8.2l-.2-4.8z"/><path fill="#000205" stroke="#000205" stroke-width="1.482" d="M147.1 63.9c-.1-.4-1.1-7.4-2.2-10.6-1.1-3.2-2.2-7.4-4.2-12.7-2-5.3-6-12.5-6.1-13-.1-.5-3.8-5.8-5.2-7.4-1.4-1.6-4-2.1-4.6-2.4-.7-.3-3.1-1.8-10.2-.8s-19.4 2.4-20.8 3c-1.4.6-3.2.2-4.4.8-1.3.6-1.4 2-1.6 4.8-.3 2.9-.4 10.4-.8 13.4s-.1 11.3-.1 11.3l-.2 10.8-1.6.6s-.6-42.1 2.2-42.4c2.8-.4 36.5-5.3 39.9-3.8 3.4 1.5 7 7.4 10.4 14.3 3.4 6.9 7.6 17.7 9.1 23.5 1.5 5.8 2 11.9 2 11.9s-.6-.2-4.2-.7c-3.5-.5-2.1-.3-6.1-.6-4-.4-10.2-1.1-10.5-1.1-.4 0-8.7-.1-8.7-.1l-3.5-.8 4.2-.5s15.9.7 18.3 1.1c2.4.4 7.1.9 7.1.9l1.8.5z"/><path fill="#000205" stroke="#000205" stroke-width="1.482" d="M101.5 21.9h-1.9l-.9 71.3 1.2.1z"/></g></switch></svg>
