<svg xmlns="http://www.w3.org/2000/svg" version="1.0" viewBox="0 0 54.6 115.3"><switch><g><g stroke="#989836"><g fill="#CBCB64"><path d="M32.9 59.2s5.8 11.6 9.6-9.2c1.1-6.3 14.1-10.5 10 9.8S30.8 76.6 30.8 76.6l2.1-17.4z"/><path d="M19.3 105l.3-36.8S-.8 65.9.6 47.7c-1.1-14.2 9-12.9 10-4.4 1 8.6 4.4 11.5 6.8 10.9l2.3-.5L21.2 11s.9-13.6 9-10.6S35 21 35.3 34.7c.3 13.7-1 74.9-1 74.9s-12.9 9.1-15-4.6z"/></g><path fill="none" stroke-width=".25" d="M19.6 55.4c-.4 2.1-4.5 1.1-6.1.3-2-1-3.2-3.3-4-4.8-1.9-3.6-1.1-7.7-2.9-11.4"/><path fill="none" stroke-width=".25" d="M4.9 41c0 2.6-.2 5 .9 7.4.8 1.8.8 5.2 2.7 6 .1.9.3 1.8.8 2.7.5-.1 1.3 0 1.9-.2.8 2.8 6.5 2.6 8.8 2m15.4 7.3c1.1-1.7 4.9-.5 4.4-3.2 4.4-1.5 3.2-4.1 4.4-7.1.8-1.9.3-3 .6-4.8.2-1.2.4-3.7 1-4.8"/><path fill="none" stroke-width=".25" d="M1.5 44.3c.5 3.9 1.3 17.4 9.7 17.2 1.4 2.1 2.2 2.7 5.1 2.7 2.4.1 5.6 0 7-1.8m8-60c4.1 8.1 2.9 16.6 2.4 25.2-.6 8.9-2 18.1-1.3 27.2.4 4.9 1.3 9.5.3 14.2-.9 4.3-.4 8.5-.1 12.8.2 2.2-.3 4.4-.7 6.6-.3 2.4.3 4.1 0 6.5-.5 4 .8 8.4.4 12.4 0 .2-.3.3-.4.5M21.6 68c0 4.1.4 8.2.3 12.3 0 3.6.4 7.6-.3 11.1-.6 2.8-2.4 19.4 2.7 19.2m11.4-42.1c1.5-.5 2.7-1.3 4-1.8 1.7-.5 2.8-.3 4-1.5.6-.6.8-2.2 1.3-3 .7-1.1 1.8-1.9 2.4-3 2.2-4.5-.7-9.2 0-13.9"/><path fill="none" stroke-width=".25" d="M28.3 2.2c-2.2 1.3-1.1 4.1-1.3 6.1-.3 2.3-1.5 4.4-1.8 6.8-.3 2.2.6 4.3.4 6.3-.2 2.1-.5 3.9-.3 6.1.3 4.2-.3 8.2-.4 12.4-.1 4.4-1.3 9.1-.2 13.4 1 4 2.1 8.5 1.9 12.6-.1 2.1-1.1 4.1-1.3 6.1-.1 2 1 4 .6 6-.4 2.3-.9 4-.9 6.3 0 2.1-.2 4.2-.3 6.3-.3 4-1.9 8.1-1.1 12.1.5 2.5 3.3 5.1 2.1 7.8M29.3 3.7c-.3 2.4.4 4.3.6 6.6.2 2.1-.2 3.6.4 5.8 1 3.7-.4 8.8-.7 12.9-.6 8.8-1.3 15.9-1 24.7.3 7.8 1.4 16.1.3 24.2-.3 2-.9 3.8-.7 5.9.3 2.3-.5 3.5-.7 5.7-.2 2 1.3 3.7 1 5.5-.3 2.3-.5 3.7-.3 5.8.2 2.8 2.2 7.8-.7 10.1M36 71c.5-.9 6-.9 8-2.3 1.6-1.1 4.3-3.9 5.2-5.4 2.8-4.6 2.1-9.9.6-14.7M35.7 73.8c4.7.4 9.8-3.1 11.4-6.3"/></g><path fill="#D1E7C4" d="M7.9 49.9l-.8-1.1h1.6-1.5l.8 1z"/><path fill="#D1E7C4" d="M7.1 48.9l-.3-1.1h.1l.3.9.7-.7H8z"/><path fill="#D1E7C4" d="M6.1 49.2v-.1l1-.3-1.1-.5.1-.1 1.1.6zM9 54.3l-.8-1.1h1.6v.1H8.3l.7 1z"/><path fill="#D1E7C4" d="M8.2 53.3l-.3-1.1H8l.3 1 .7-.8z"/><path fill="#D1E7C4" d="M7.2 53.6h-.1l1-.4-1-.5.1-.1 1.1.6zm4.6 5.6l-.8-1.1h1.6v.1h-1.5l.8 1z"/><path fill="#D1E7C4" d="M11 58.2l-.3-1.1h.1l.3 1 .7-.8.1.1z"/><path fill="#D1E7C4" d="M10 58.5l1-.4-1-.5v-.1l1.1.7zm8.1 2.8l-.8-1.1h1.6v.1h-1.5l.8 1z"/><path fill="#D1E7C4" d="M17.3 60.4l-.3-1.2h.1l.3 1 .7-.8.1.1z"/><path fill="#D1E7C4" d="M16.3 60.7v-.1l1-.3-1-.6 1.2.6zM6.9 44.5l-.8-1h1.6-1.5l.8 1z"/><path fill="#D1E7C4" d="M6.1 43.6l-.3-1.1.1-.1.3 1 .7-.7H7z"/><path fill="#D1E7C4" d="M5.1 43.9v-.1l1-.3-1-.6 1.2.6zM7 59.5l-.8-1.1h1.6v.1H6.4l.7 1z"/><path fill="#D1E7C4" d="M6.3 58.6l-.4-1.2H6l.3 1 .7-.8.1.1z"/><path fill="#D1E7C4" d="M5.2 58.9v-.1l1-.3-1-.6 1.2.6zm8.3 4.9l-.8-1.1h1.6v.1h-1.4l.7 1z"/><path fill="#D1E7C4" d="M12.8 62.8l-.3-1.1.3 1 .7-.8h.1z"/><path fill="#D1E7C4" d="M11.7 63.1V63l1-.3-1-.5.1-.1 1.1.6zm8.1 3L19 65h1.6v.1h-1.4l.7.9z"/><path fill="#D1E7C4" d="M19.1 65.1l-.3-1.1.3.9.7-.7h.1z"/><path fill="#D1E7C4" d="M18.1 65.4l-.1-.1 1-.3-1-.5.1-.1 1.1.6zM29.2 9.1L28.4 8H30v.1h-1.5l.8 1z"/><path fill="#D1E7C4" d="M28.4 8.1L28.1 7h.1l.3 1 .7-.8.1.1z"/><path fill="#D1E7C4" d="M27.4 8.4l1-.4-1-.5v-.1l1.2.7zm.1 7.6l-.8-1.1h1.6v.1h-1.5l.7.9z"/><path fill="#D1E7C4" d="M26.7 15l-.3-1.1h.1l.2.9.8-.7z"/><path fill="#D1E7C4" d="M25.7 15.3l-.1-.1 1-.3-1-.5.1-.1 1.1.6zm2.2 7.1l-.8-1.1h1.6-1.5l.8 1z"/><path fill="#D1E7C4" d="M27.1 21.4l-.3-1.1h.1l.3.9.7-.7h.1z"/><path fill="#D1E7C4" d="M26.1 21.7v-.1l1-.3-1-.5v-.1l1.1.6zm1 8l-.8-1.1h1.6-1.4l.7 1z"/><path fill="#D1E7C4" d="M26.4 28.7l-.4-1.1h.1l.3.9.7-.7h.1z"/><path fill="#D1E7C4" d="M25.3 29v-.1l1-.3-1-.5V28l1.2.6zm2.2 9.2l-.8-1h1.6-1.5l.7 1z"/><path fill="#D1E7C4" d="M26.7 37.3l-.3-1.1.1-.1.2 1 .8-.7z"/><path fill="#D1E7C4" d="M25.7 37.6l-.1-.1 1-.3-1-.6h.1l1.1.6zm1.1 8.3l-.8-1h1.6-1.5l.8 1z"/><path fill="#D1E7C4" d="M26.1 45l-.4-1.1.1-.1.3 1 .7-.7h.1z"/><path fill="#D1E7C4" d="M25 45.3v-.1l1-.3-1-.6 1.2.6zm1.8 9.2l-.8-1.1h1.6-1.5l.8 1z"/><path fill="#D1E7C4" d="M26.1 53.5l-.4-1.1h.1l.3.9.7-.7h.1z"/><path fill="#D1E7C4" d="M25 53.8v-.1l1-.3-1-.6 1.2.6zm3.3 8l-.8-1.1h1.6v.1h-1.4l.7 1z"/><path fill="#D1E7C4" d="M27.6 60.8l-.4-1.1h.1l.3 1 .7-.8.1.1z"/><path fill="#D1E7C4" d="M26.5 61.1l1-.3-1-.6 1.2.6zm2.3 7.9l-.8-1.1h1.6v.1h-1.5l.7 1z"/><path fill="#D1E7C4" d="M28 68l-.3-1.1h.1l.3 1 .7-.8v.1z"/><path fill="#D1E7C4" d="M27 68.3h-.1l1-.3-1-.6h.1l1.1.6z"/><g fill="#D1E7C4"><path d="M28 77.7l-.8-1.1h1.6v.1h-1.5l.8 1z"/><path d="M27.2 76.7l-.3-1.1h.1l.3 1 .7-.8h.1z"/><path d="M26.2 77l1-.4-1-.5V76l1.2.6z"/></g><g fill="#D1E7C4"><path d="M27.1 86.5l-.8-1.1h1.6-1.4l.7 1z"/><path d="M26.4 85.5l-.4-1.1h.1l.3.9.7-.7h.1z"/><path d="M25.3 85.8v-.1l1-.3-1-.5v-.1l1.2.6z"/></g><g fill="#D1E7C4"><path d="M26.6 95.2l-.8-1.1h1.6v.1h-1.5l.8 1z"/><path d="M25.8 94.2l-.3-1.1h.1l.3 1 .7-.8.1.1z"/><path d="M24.8 94.5l1-.3-1-.6 1.1.6z"/></g><g fill="#D1E7C4"><path d="M24.8 11.4l-.8-1.1h1.7v.1h-1.5l.7 1z"/><path d="M24.1 10.4l-.3-1.1h.1l.2 1 .7-.8h.1z"/><path d="M23.1 10.7H23l1-.4-1-.5.1-.1 1.1.6z"/></g><g fill="#D1E7C4"><path d="M24.6 20.1l-.8-1.1h1.6H24l.7 1z"/><path d="M23.9 19.1l-.4-1.1h.1l.3.9.7-.7h.1z"/><path d="M22.8 19.4v-.1l1-.3-1-.5v-.1l1.2.6z"/></g><g fill="#D1E7C4"><path d="M24.4 33.3l-.8-1.1h1.6v.1h-1.4l.7 1z"/><path d="M23.7 32.4l-.4-1.2h.1l.3 1 .7-.8.1.1z"/><path d="M22.6 32.7v-.1l1-.3-1-.6 1.2.6z"/></g><g fill="#D1E7C4"><path d="M24.2 42.8l-.8-1.1H25v.1h-1.5l.8 1z"/><path d="M23.4 41.9l-.3-1.2h.1l.3 1 .7-.8.1.1z"/><path d="M22.4 42.1l1-.3-1-.6 1.1.6z"/></g><g fill="#D1E7C4"><path d="M24.6 59.2l-.8-1.1h1.6v.1H24l.7 1z"/><path d="M23.9 58.2l-.4-1.1h.1l.3 1 .7-.8.1.1z"/><path d="M22.8 58.5l1-.4-1-.5v-.1l1.2.7z"/></g><g fill="#D1E7C4"><path d="M23.6 73.1l-.8-1.1h1.6H23l.7 1z"/><path d="M22.9 72.1l-.3-1.1.3.9.7-.7h.1z"/><path d="M21.9 72.4l-.1-.1 1-.3-1-.5.1-.1 1.1.6z"/></g><g fill="#D1E7C4"><path d="M24.2 82.5l-.8-1.1H25h-1.5l.8 1z"/><path d="M23.4 81.5l-.3-1.1h.1l.3.9.7-.7h.1z"/><path d="M22.4 81.8v-.1l1-.3-1-.6 1.1.6z"/></g><g fill="#D1E7C4"><path d="M23.3 99.6l-.8-1h1.6-1.4l.7 1z"/><path d="M22.6 98.7l-.4-1.1.1-.1.3 1 .7-.7h.1z"/><path d="M21.5 99v-.1l1-.3-1-.6 1.2.6z"/></g><g fill="#D1E7C4"><path d="M32.2 13.2l-.8-1.1H33v.1h-1.4l.7 1z"/><path d="M31.5 12.2l-.3-1.1.3 1 .7-.8h.1z"/><path d="M30.5 12.5h-.1l1-.4-1-.5.1-.1 1.1.6z"/></g><g fill="#D1E7C4"><path d="M32.5 26.1l-.8-1.1h1.6v.1h-1.5l.7 1z"/><path d="M31.7 25.1l-.3-1.1h.1l.3 1 .7-.8v.1z"/><path d="M30.7 25.4h-.1l1-.3-1-.6h.1l1.1.6z"/></g><g fill="#D1E7C4"><path d="M31.8 34.6l-.8-1h1.6-1.4l.7 1z"/><path d="M31.1 33.7l-.4-1.1.1-.1.3 1 .7-.7h.1z"/><path d="M30 34v-.1l1-.3-1-.6 1.2.6z"/></g><g fill="#D1E7C4"><path d="M30.9 43.5l-.8-1.1h1.6v.1h-1.4l.7 1z"/><path d="M30.2 42.5l-.3-1.1.3 1 .7-.8h.1z"/><path d="M29.1 42.8v-.1l1-.3-1-.5.1-.1 1.1.6z"/></g><g fill="#D1E7C4"><path d="M30.7 50.9l-.8-1.1h1.6-1.4l.7 1z"/><path d="M30 49.9l-.4-1.1.1-.1.3 1 .7-.7h.1z"/><path d="M28.9 50.2v-.1l1-.3-1-.6 1.2.6z"/></g><g fill="#D1E7C4"><path d="M31.4 74.1l-.8-1.1h1.6v.1h-1.5l.7 1z"/><path d="M30.6 73.1l-.3-1.1h.1l.3 1 .7-.8v.1z"/><path d="M29.6 73.4h-.1l1.1-.4-1.1-.5.1-.1 1.1.7z"/></g><g fill="#D1E7C4"><path d="M29.9 91.5l-.9-1.1h1.7-1.5l.7 1z"/><path d="M29.1 90.5l-.3-1.1h.1l.2.9.8-.7z"/><path d="M28.1 90.8l-.1-.1 1-.3-1-.5.1-.1 1.1.6z"/></g><g fill="#D1E7C4"><path d="M30.7 102.5l-.8-1.1h1.6v.1h-1.4l.7 1z"/><path d="M30 101.5l-.4-1.1h.1l.3 1 .7-.8.1.1z"/><path d="M28.9 101.8l1-.3-1-.6 1.2.6z"/></g><g fill="#D1E7C4"><path d="M27.3 107.6l-.8-1.1h1.6-1.4l.7 1z"/><path d="M26.6 106.6l-.4-1.1h.1l.3.9.7-.7h.1z"/><path d="M25.5 106.9v-.1l1-.3-1-.5v-.1l1.2.6z"/></g><g fill="#D1E7C4"><path d="M34.6 7.5l-.8-1.1h1.6H34l.7 1z"/><path d="M33.9 6.5l-.3-1.1.3.9.7-.7h.1z"/><path d="M32.8 6.8v-.1l1-.3-1-.5.1-.1 1.1.6z"/></g><g fill="#D1E7C4"><path d="M36.4 20.2l-.8-1.1h1.6v.1h-1.5l.8 1z"/><path d="M35.6 19.3l-.3-1.2h.1l.3 1 .7-.7z"/><path d="M34.6 19.6v-.1l1-.3-1.1-.6h.1l1.1.6z"/></g><g fill="#D1E7C4"><path d="M35.4 31.8l-.8-1.1h1.6v.1h-1.5l.8 1z"/><path d="M34.6 30.8l-.3-1.1h.1l.3 1 .7-.8.1.1z"/><path d="M33.6 31.1l1-.4-1-.5v-.1l1.1.7z"/></g><g fill="#D1E7C4"><path d="M34.4 47.9l-.8-1.1h1.6v.1h-1.4l.7 1z"/><path d="M33.7 46.9l-.4-1.1h.1l.3 1 .7-.8.1.1z"/><path d="M32.6 47.2l1-.4-1-.5v-.1l1.2.7z"/></g><g fill="#D1E7C4"><path d="M34.6 58.1l-.8-1.1h1.6H34l.7 1z"/><path d="M33.9 57.1l-.3-1.1.3.9.7-.7h.1z"/><path d="M32.8 57.4v-.1l1-.3-1-.6h.1l1.1.6z"/></g><g fill="#D1E7C4"><path d="M35.3 68.9l-.8-1.1h1.6-1.5l.8 1z"/><path d="M34.5 67.9l-.3-1.1h.1l.3.9.7-.7h.1z"/><path d="M33.5 68.2v-.1l1-.3-1-.5v-.1l1.1.6z"/></g><g fill="#D1E7C4"><path d="M34.9 82.8l-.8-1.1h1.6v.1h-1.5l.7 1z"/><path d="M34.1 81.8l-.3-1.1h.1l.2.9.8-.7z"/><path d="M33.1 82.1L33 82l1-.3-1-.5.1-.1 1.1.6z"/></g><g fill="#D1E7C4"><path d="M34.2 96.4l-.8-1.1H35h-1.5l.8 1z"/><path d="M33.4 95.4l-.3-1.1h.1l.3.9.7-.7h.1z"/><path d="M32.4 95.7v-.1l1-.3-1-.5v-.1l1.2.6z"/></g><g fill="#D1E7C4"><path d="M39.9 67.2l-.8-1.1h1.6v.1h-1.5l.7 1z"/><path d="M39.1 66.2l-.3-1.1h.1l.2 1 .8-.8v.1z"/><path d="M38.1 66.5H38l1-.3-1-.6h.1l1.1.6z"/></g><g fill="#D1E7C4"><path d="M45.9 58.2l-.8-1.1h1.7v.1h-1.5l.7 1z"/><path d="M45.2 57.2l-.3-1.1h.1l.2 1 .8-.8v.1z"/><path d="M44.2 57.5h-.1l1-.3-1-.6h.1l1.1.6z"/></g><g fill="#D1E7C4"><path d="M46.6 65.1l-.8-1.1h1.6v.1h-1.5l.8 1z"/><path d="M45.8 64.1l-.3-1.1h.1l.3 1 .7-.8.1.1z"/><path d="M44.8 64.4l1-.4-1-.5v-.1l1.2.6z"/></g><g fill="#D1E7C4"><path d="M50.2 54.3l-.8-1H51h-1.5l.7 1z"/><path d="M49.4 53.4l-.3-1.1.1-.1.3 1 .7-.7z"/><path d="M48.4 53.7l-.1-.1 1.1-.3-1.1-.6h.1l1.1.6z"/></g><g fill="#D1E7C4"><path d="M42.5 72.3l-.8-1.1h1.6v.1h-1.5l.7 1z"/><path d="M41.7 71.3l-.3-1.1h.1l.3 1 .7-.8v.1z"/><path d="M40.7 71.6h-.1l1-.4-1-.5.1-.1 1.1.7z"/></g><g fill="#D1E7C4"><path d="M51.8 64.8l-.8-1.1h1.6-1.4l.7 1z"/><path d="M51.1 63.8l-.4-1.1h.1l.3.9.7-.7h.1z"/><path d="M50 64.1V64l1-.3-1-.5v-.1l1.2.6z"/></g><path fill="#669866" stroke="#183319" stroke-width=".5" d="M9.6 105s.2-5.3-.5-9.3c-.7-4.1-2.4-12.2-2.9-14.1-.5-1.9 0-10.5 7.5-6.7s5.6 11 6 14.6c.5 3.6 1.9 10.1 1.4 13.4-.5 3.4-4.1 8.9-4.1 8.9S8.1 115 9.6 105z"/><path fill="none" stroke="#183319" stroke-width=".5" d="M17.3 81c1.3 0 3.3 21.1 1.4 23.7m-3.4-26.3c-1.1 1.4.9 4.5-.2 6.4 1 .9.7 1.5.8 2.5 0 .2-.7.7-.7 1.1 0 .5.8.8.9 1.2.2 2 .5 3.9.7 5.7.3 3.7 1.3 9.4.1 13.5"/><path fill="#669866" stroke="#183319" stroke-width=".5" d="M16.1 112.2s-.7-6.7 1.9-9.6c2.7-2.9 4.3-5.5 7.5-3.4 3.1 2.2 4.1 4.6 3.9 7.4-.2 2.9-1.4 6.2-1.4 6.2s-5.4 6.1-11.9-.6z"/><path fill="none" stroke="#183319" stroke-width=".5" d="M23.8 100.9c-1.4.3-4 4.5-4.4 5.9-.7 2.1-.5 5.1.5 7.2"/><path fill="#E16FAA" stroke="#972068" stroke-width=".5" d="M8.5 72.8c.3-1.5-.7-4.4-2-5.2 0 2.8-.3 5.3 1.9 7.4.2-.6.1-1.3.2-2m-1 2.8c-1.5-1.7-3.4-3.8-6-3.6-.1 0-.1 0 0 0C3.3 74 4.1 77.4 7.5 76"/><path fill="#E16FAA" stroke="#972068" stroke-width=".5" d="M8.3 74.8c.1-2.2-2-4.8-4.1-5.9-.3 1.5 3.1 8.4 4.1 6.3"/><g fill="#E16FAA" stroke="#972068" stroke-width=".5"><path d="M5.8 77.9C4.9 79.1 2 80.3.5 79.8c2.1-1.9 3.7-3.7 6.9-3.5-.3.6-.9 1-1.4 1.5"/><path d="M7.2 76.4c-1.6 1.5-5 1.7-7.2.9 1-1.2 8.4-3.3 7.4-1.2"/></g><linearGradient id="a" x1="75.756" x2="67.284" y1="-422.582" y2="-432.428" gradientTransform="rotate(-19.462 1502.588 16.497)" gradientUnits="userSpaceOnUse"><stop offset="0" stop-color="#ed3c95"/><stop offset="1" stop-color="#cb1c68"/></linearGradient><path fill="url(#a)" stroke="#650A34" stroke-width=".5" d="M8.5 75.3c.4-1.3.9-4.6-.4-5.3-.6 1.3-.2 3.5.1 4.9-.1 0-.4.1-.4.2-.6-.6-2.4-3.6-3.1-2 .8.9 1.5 2 2.7 2.5-1.1 1-3.1.3-4.3 1.2.1.2.2.3.4.5 1.1.1 2.8-.1 3.6-.9-.8 1.5-2.8 2-3.7 3.3 2.1.5 3.9-2.1 4.9-3.7l.2-.7z"/><linearGradient id="b" x1="-156.039" x2="-142.129" y1="99.994" y2="69.537" gradientTransform="translate(180.72)" gradientUnits="userSpaceOnUse"><stop offset="0" stop-color="#ed3c95"/><stop offset="1" stop-color="#cb1c68"/></linearGradient><path fill="url(#b)" stroke="#650A34" stroke-width=".5" d="M25 93.7c.9-1.7 1.3-4.1 3.6-4.6.1-.1.1-.1 0 0-.4.6-.4 1-.7 1.7.6-.9 1.3-1.8 1.9-2.5.3 2 1 4.6-.2 6.5-1.3 2.1-4.4 1.7-3.9-1.2"/><path fill="none" stroke="#183319" stroke-width=".5" d="M10.5 76.7c.7 1.3.5 3.1.9 4.6.4 1.4 1 2.6 1.3 4.1.5 3.1.2 5.8 1.1 8.7.6 1.8.2 2.1.1 3.6 0 1.3 0 1.9.4 3.5.7 2.5.1 6.3 0 9.1"/><path fill="#E16FAA" stroke="#972068" stroke-width=".5" d="M28.4 97.3c1.1-2 1.3-4.2 1.2-6.6-.8 2.1-3.3 4.3-1.8 6.7"/><path fill="#E16FAA" stroke="#972068" stroke-width=".5" d="M24.8 94.7c1-2.1 2.6-3.5 4.6-4.9-1.2 1.9-1.5 5.2-4.3 5.4"/><path fill="#989836" stroke="#343416" stroke-width=".5" d="M23.8 98.7c-1.1-1.9.1-4.6 1.9-5.7.1.2.1.7.1.9.2 0 .6-.4.7-.4 0 .5 0 .6.2 1 .2-.2.7-.4.9-.6 0 .3 0 .6.1.9.4-.1 1 0 1.4-.2.6 3.2-3.4 7.8-5.5 4"/><linearGradient id="c" x1="-167.375" x2="-150.049" y1="69.194" y2="51.707" gradientTransform="matrix(1 -.0078 .0078 1 176.152 12.154)" gradientUnits="userSpaceOnUse"><stop offset="0" stop-color="#ed3c95"/><stop offset="1" stop-color="#cb1c68"/></linearGradient><path fill="url(#c)" stroke="#650A34" stroke-width=".5" d="M14.3 75.7c-2.4.6-4 1.2-5.4 3.4 1.7.1 4.4-1.1 5.6-2.5-.8 1.7-1.6 4.6-.9 6.5 1.1-1.3 1.7-3.9 1.4-5.7 1.5 1.3 1.6 4.2 4 4.7-.1-1.1-.3-2-1-2.9-.6-.7-1.8-1.2-2.1-2.1 2.3.3 3.8.9 5.9-.4-1 .1-1.7-.3-2.6-.5-1-.1-2.1.2-3-.2 1.9-1.7 3.3-1.9 3.7-4.6-1.7 1-3.2 2.6-4.1 4.2-.1-2.1.1-4.3-.9-6.3-.8 1.9-.9 4.2.1 6.1-1.1-2.2-3.5-2.4-5.6-2.1 1.8.5 3.3 1.8 4.9 2.4"/><path fill="#E16FAA" stroke="#972068" stroke-width=".5" d="M15.2 76c-1.4-.9-2-3.2-1.5-4.8 1.9-.2 3.1 4.7 1.3 4.8"/><path fill="#E16FAA" stroke="#972068" stroke-width=".5" d="M15.6 76.1c-.1-1.7 1.3-3.5 2.8-4.1 1.3 1.3-1.7 5.3-2.9 4"/><path fill="#E16FAA" stroke="#972068" stroke-width=".5" d="M15.6 76.2c1.4-.9 3.7-.7 5 .4-.5 1.8-5.5 1.2-4.9-.5"/><path fill="#E16FAA" stroke="#972068" stroke-width=".5" d="M15.7 76.7c1.7.3 3.2 2.1 3.4 3.7-1.6 1-4.8-2.9-3.2-3.7"/><path fill="#E16FAA" stroke="#972068" stroke-width=".5" d="M15 77.1c1.3 1.1 1.7 3.4 1 4.9-1.9 0-2.6-5-.8-4.9"/><path fill="#E16FAA" stroke="#972068" stroke-width=".5" d="M15.3 76.9c-.3 1.6-2.2 3.1-3.8 3.2-.9-1.6 3.1-4.7 3.9-3"/><path fill="#E16FAA" stroke="#972068" stroke-width=".5" d="M14.7 77.4c-1.5.8-3.8.2-4.9-1 .7-1.7 5.6-.5 4.8 1.1"/><path fill="#E16FAA" stroke="#972068" stroke-width=".5" d="M14.8 76.4c-1.7 0-3.5-1.5-4-3 1.4-1.2 5.3 2 3.9 3.1"/><path fill="#CBCB31" stroke="#650A34" stroke-width=".5" d="M15.2 75.5c-.2-.1-.5-.2-.8-.3-.2.5-.3.6-.7 1.1 0 .3.2.1.3.1-.1.2-.3.3-.2.6.6.3.9.6 1.4.8.1-.1.2-.3.2-.4.5 0 .5-.2.9-.5 0 0-.3-.1-.3-.2.1-.1.3 0 .3-.2-.2-.5-.5-.9-.8-1.3"/><path fill="#CADA2A" d="M14.8 77c-.2-.5-.3-1.5-.5-2.1-.3.1-.3-.1-.7-.2.1-.4.5-.8 1-.7.7.2.1.6.2 1 .1.8.4 1.6.1 2.4-.1-.1-.1-.2-.2-.3m.8-.7c.1-.3.4-.9.5-1.3-.3-.1-.1-.2-.3-.4.2-.2.6-.3.8 0 .3.4-.2.4-.3.6-.2.4-.4 1-.8 1.3v-.2"/><path fill="#CADA2A" d="M14.7 76.7c-.4 0-1.1-.3-1.6-.3-.1.3-.2.2-.4.4-.3-.2-.5-.6-.2-.9.4-.4.5.1.8.2.6.2 1.3.2 1.7.6-.1 0-.2 0-.3.1m.7-.2c.3.3.7.9 1 1.3.3-.2.3 0 .6-.1.1.3 0 .8-.4.8-.5.1-.3-.4-.5-.7-.3-.5-.9-1-.9-1.6.1 0 .2.1.3.1"/><path fill="#CADA2A" d="M14.9 76.9c.1.3.1.8.2 1.1.2 0 .2.1.4.2-.1.2-.3.4-.5.3-.4-.1 0-.3 0-.6 0-.4-.2-.9 0-1.3.1 0 .1.1.1.2m.6.1c.2-.2.6-.5.9-.8-.1-.2 0-.2-.1-.4.2-.1.5 0 .6.3.1.4-.3.2-.5.3-.3.2-.7.6-1.1.7 0-.1.1-.1.1-.2"/><path fill="#989836" stroke="#343416" stroke-width=".5" d="M20.4 100.9h-.7c.2-.2.4-.5.7-.7-.1-.4-.1-.6-.2-1.1.5-.3 1.1-.7 1.6-1 0 .1.1.3.1.4.9-.4 1.8-.6 2.4.2.3-.1.4-.3.7-.5.3.2.3.6.5.7.4-.2.6-.2 1.1-.2 0 .5.3.9.3 1.4.7-.1 1.2.3 1.9.3.2.8.4 1.5.5 2.3-1 .5-1.7.2-2-.9-.1.2-.3.4-.5.6-1.1-.1-1.9-1.1-3-1.3-1-.2-2.7 0-3.7-.3"/><path fill="none" stroke="#183319" stroke-width=".5" d="M8.1 78.9c1 2.3 1.4 5.5 2 7.7.3 1.1.9 2.2 1 3.3.1.7-.3 1.2-.3 1.9 0 .8.7 1.1.7 1.9.2 2.6-.1 5.3 0 8.1.2 2.8.4 5.4.4 8.4m9.2-8.6c-4 .5-5.5 8.3-3.9 11m8.8-10c2.2 2.7 1.7 9.8-1.4 11.7m-.6-12.2c-.4 1-.5 1.9 0 2.8-2.6 1.2.1 7-2.1 8.9"/><path fill="none" stroke="#98CA98" stroke-width=".5" d="M6.9 82.7c-.4-.2-.8-.4-1.2-.5m1.7 1.9c-.4.1-.9 0-1.2-.2m13 1.2c-.1.1.7-.6 1-.7m-9.4.7c-.3.2-.7.5-1 .7m-1-3.8c-.4-.3-.8-.6-1.2-1"/><path fill="none" stroke="#98CA98" stroke-width=".5" d="M10.2 86.1c-.2-.3-.5-.7-.7-1m.5.8c0-.3.2-.7.3-1m-.1 1c-.4.4.5-.4.7-.5m-.9.7c-.5-.1-.9-.2-1.3-.5m1.3.5c-.2.2-.6.5-.8.7m.8-.7c.2.1.3.4.3.7m1.1 2.4c-.2-.3-.5-.7-.7-1m.5.8c0-.3.1-.7.3-1m-.1 1c-.4.4.5-.4.7-.5m-.9.7c-.5-.1-.9-.2-1.3-.5m1.3.5c-.2.2-.6.5-.8.7m.8-.7c.2.1.3.4.3.7m.2 2.9c-.2-.3-.5-.7-.7-1m.5.8c0-.3.1-.7.3-1m-.1 1c-.4.4.5-.4.7-.5m-.9.7c-.5-.1-.9-.2-1.3-.5m1.3.5c-.2.2-.6.5-.8.7m.8-.7c.2.1.3.4.3.7m.3 2.6c-.2-.3-.5-.7-.7-1m.6.8c0-.3.1-.7.3-1m-.2 1c-.4.4.5-.4.7-.5m-.8.7c-.5-.1-.9-.2-1.3-.5m1.3.5c-.2.2-.6.5-.8.7m.8-.7c.2.1.3.4.3.7m-.4 3.1c-.2-.3-.5-.7-.7-1m.5.9c0-.3.1-.7.3-1m-.1 1c-.4.4.5-.4.7-.5m-.9.6c-.5-.1-.9-.2-1.3-.5m1.3.5c-.2.2-.6.5-.8.7m.8-.7c.2.1.3.4.3.7M9.2 81.7c-.2-.3-.5-.7-.7-1m.6.9c0-.3.1-.7.3-1m-.2 1c-.4.4.5-.4.7-.5m-.8.6c-.5-.1-.9-.2-1.3-.5m1.3.5c-.2.2-.6.5-.8.7m.8-.7c.2.1.3.4.3.7m2.5 20.7c-.2-.3-.5-.7-.7-1m.5.8c0-.3.1-.7.3-1m-.1 1c-.4.4.5-.4.7-.5m-.9.7c-.5-.1-.9-.2-1.3-.5m1.3.5c-.2.2-.6.5-.8.7m.8-.7c.2.1.3.4.3.7m4.7-13.4c-.2-.3-.5-.7-.7-1m.6.8c0-.3.1-.7.3-1m-.2 1c-.4.4.5-.4.7-.5m-.8.7c-.5-.1-.9-.2-1.3-.5m1.3.5c-.2.2-.6.5-.8.7m.8-.7c.2.1.3.4.3.7M15.8 87c-.2-.3-.5-.7-.7-1m.5.8c0-.3.1-.7.3-1m-.1 1c-.4.4.5-.4.7-.5m-.9.7c-.5-.1-.9-.2-1.3-.5m1.3.5c-.2.2-.6.5-.8.7m.8-.7c.2.1.3.4.3.7m1.1 6.5c-.2-.3-.5-.7-.7-1m.5.8c0-.3.1-.7.3-1m-.1 1c-.4.4.5-.4.7-.5m-.9.7c-.5-.1-.9-.2-1.3-.5m1.3.5c-.2.2-.6.5-.8.7m.8-.7c.2.1.3.4.3.7m.1 3.4c-.2-.3-.5-.7-.7-1m.5.8c0-.3.1-.7.3-1m-.1 1c-.4.4.5-.4.7-.5m-.9.7c-.5-.1-.9-.2-1.3-.5m1.3.5c-.2.2-.6.5-.8.7m.8-.7c.2.1.3.4.3.7m-2.8 7.9c-.2-.3-.5-.7-.7-1m.6.8c0-.3.1-.7.3-1m-.2 1c-.4.4.5-.4.7-.5m-.8.7c-.5-.1-.9-.2-1.3-.5m1.3.5c-.2.2-.6.5-.8.7m.8-.7c.2.1.3.4.3.7m5.6-1.2c-.2-.3-.5-.7-.7-1m.6.8c0-.3.1-.7.3-1m-.2 1c-.4.4.5-.4.7-.5m-.8.7c-.5-.1-.9-.2-1.3-.5m1.3.5c-.2.2-.6.5-.8.7m.8-.7c.2.1.3.4.3.7m1.1-3.6c-.2-.3-.5-.7-.7-1m.5.9c0-.3.1-.7.3-1m-.1 1c-.4.4.5-.4.7-.5m-.9.6c-.5-.1-.9-.2-1.3-.5m1.3.5c-.2.2-.6.5-.8.7m.8-.7c.2.1.3.4.3.7m-2.3 5.4c-.2-.3-.5-.7-.7-1m.5.8c0-.3.1-.7.3-1m-.1 1c-.4.4.5-.4.7-.5m-.9.7c-.5-.1-.9-.2-1.3-.5m1.3.5c-.2.2-.6.5-.8.7m.8-.7c.2.1.3.4.3.7m3.8 2.6c-.2-.3-.5-.7-.7-1m.5.8c0-.3.1-.7.3-1m-.1 1c-.4.4.5-.4.7-.5m-.9.7c-.5-.1-.9-.2-1.3-.5m1.3.5c-.2.2-.6.5-.8.7m.8-.7c.2.1.3.4.3.7m-.1-3.8c-.2-.3-.5-.7-.7-1m.5.8c0-.3.1-.7.3-1m-.1 1c-.4.4.5-.4.7-.5m-.9.7c-.5-.1-.9-.2-1.3-.5m1.3.5c-.2.2-.6.5-.8.7m.8-.7c.2.1.3.4.3.7m-.4-4.1c-.2-.3-.5-.7-.7-1m.5.8c0-.3.1-.7.3-1m-.1 1c-.4.4.5-.4.7-.5m-.9.7c-.5-.1-.9-.2-1.3-.5m1.3.5c-.2.2-.6.5-.8.7m.8-.7c.2.1.3.4.3.7m4-2.8c-.2-.3-.5-.7-.7-1m.5.8c0-.3.1-.7.3-1m-.1 1c-.4.4.5-.4.7-.5m-.9.7c-.5-.1-.9-.2-1.3-.5m1.3.5c-.2.2-.6.5-.8.7m.8-.7c.2.1.3.4.3.7m.4 2.6c-.2-.3-.5-.7-.7-1m.5.8c0-.3.1-.7.3-1m-.1 1c-.4.4.5-.4.7-.5m-.9.7c-.5-.1-.9-.2-1.3-.5m1.3.5c-.2.2-.6.5-.8.7m.8-.7c.2.1.3.4.3.7m-.8 2.9c-.2-.3-.5-.7-.7-1m.5.8c0-.3.1-.7.3-1m-.1 1c-.4.4.5-.4.7-.5m-.9.7c-.5-.1-.9-.2-1.3-.5m1.3.5c-.2.2-.6.5-.8.7m.8-.7c.2.1.3.4.3.7M9 76.7c-.2-.3-.5-.7-.7-1m.5.8c0-.3.1-.7.3-1m-.1 1c-.4.4.5-.4.7-.5m-.9.7c-.5-.1-.9-.2-1.3-.5m1.3.5c-.2.2-.6.5-.8.7m.8-.7c.2.1.3.4.3.7m6 6.5c.4-.3.9-.5 1.4-.7m-8.9 5h-1m12.9 2.2c-.1-.1.2-.5.5-.7m.7 5.5c.1-.4.4-.7.7-1M9.3 97.1c-.4 0-.8 0-1.2-.2m1-4.4c-.5-.1-.9-.4-1-1m1.7 9.4c-.5-.1-.8-.4-1-.7m9.2 3.3c-.2-.3-.4-.6-.5-1m-1.2 4.2c-.2-.1-.4-.4-.5-.7m13.1 1.6c-.6-.4.1-.6.7-.7M9.8 105c-.3.1-.4 0-.5-.2m5.1-2.5c.2-.2.3-.5.5-.7m-3.9 6.2c-.2-.3-.4-.6-.5-1"/></g></switch></svg>
