<svg xmlns="http://www.w3.org/2000/svg" version="1.0" viewBox="0 0 48 91.3"><switch><g><path fill="#D0E7C4" stroke="#669866" stroke-width=".25" d="M31.2 9.7l-8.5 22.1L46.2 73l-.1 1.4.8.7-.1 1.3.2.9.2.7.9.9.1.8-.4.9h-.9s-1.8.5-1.8 1.2c-.1.7-.8 1.6-.8 1.6l-.1 1.3-1.1.6-.7.1-.4 1.5-.6 1.2.5.6.9.3-.1 1.4-1.1.9-3.1-.5-14.4-3.1-.5-.8-.4-.5-.1-1.4.5-1 .3-2-2.4-3.2-1.2-1 .1-1-.6-.8-1.1-.3H18v-.6l.5-.5-.3-1.1-.7-.5-1.1-.4-2.4-2.1-.6-1.2-.2-.8-1.1-1-1.5-.5-1.8-1.2-2.2-.5-.3-1.3.7-3.3.3-1-.1-.8-.5-.5.1-1.1-.8-1.8-2.4-6.9-.9-.4.6-.9.2-.9.1-.9h1.2l.4-1 .1-1s-.1-.6-.4-.7c-.4 0-.9-.3-.9-.3l-.7-1.3-.5-.8v-.9l-.7-.4.2-.9v-.4l.7-.6-.1 1-.1.8h.8l-.2-.8-.1-1.6.3-.9.9-.2-.7 1.1.9 1 .3.7.9.9-.1-1.9-.2-.7-.5-.7L5 35l.8-.8h.5l.1-.7-.9-.4-.8.2s0 .3-.3.9l-.4.5-.9-.7-.9-.9-.4-1.1.6-.5-.1-.7-1.1-3.9-.4-1.2-.4-.8-.4-.6.3-.7.4-.4.1-1.1v-1.4l.5-.9 1-.8.1-1.6-.4-1.8-.4-1.6-.4-.8L.9 12l.1-.8 1.3-.6 1.2-1L4.6 8l.1-1.3 1.8-1.1.1-1.6.1-1.3.1-.8.7-.5.1-1.4 23.6 9.7z"/></g></switch></svg>
