<svg xmlns="http://www.w3.org/2000/svg" version="1.0" viewBox="0 0 220 129"><switch><g><linearGradient id="a" x1="109.748" x2="109.748" y1="15.959" y2="-31.031" gradientUnits="userSpaceOnUse"><stop offset="0" stop-color="#fff"/><stop offset="1" stop-color="#8ad3e1"/></linearGradient><path fill="url(#a)" d="M.5 0H219v26.2H.5z"/><path fill="#AADEE9" d="M19 .8V9h7.2V6h9.5v9.7H47V8.3h16v7.4h25v4.2h37.4V15h14.9v4.9H154V8.6h10.1v10.9h10.1v-3.8h5.9v3h17.3l2.7 1.7h19.3v6.2H0V.1z"/><linearGradient id="b" x1="57.96" x2="-39.541" y1="-1.666" y2="-161.629" gradientUnits="userSpaceOnUse"><stop offset="0" stop-color="#4dbc93"/><stop offset="1" stop-color="#696"/></linearGradient><path fill="url(#b)" stroke="#4DBC93" d="M.5 74l145.7-28.9 72.8-7.4v22.9l-92.2 24.7-98.9 43.1H.2z"/><path fill="#DAD7DA" d="M219 37.7l-72.8 7.4L.5 74V62.2l144.6-21.7 73.9-7.3z"/><linearGradient id="c" x1="108.897" x2="93.551" y1="78.382" y2="37.702" gradientUnits="userSpaceOnUse"><stop offset="0" stop-color="#cccbcb"/><stop offset="1" stop-color="#989898"/></linearGradient><path fill="url(#c)" stroke="#989898" stroke-width=".5" d="M219 54.7l-51.5 15.2-37.4 10.6L8.5 127.8h29.4l97.6-41.4L219 60.6z"/><path fill="#98CB66" d="M37.9 127.8l99.6-43.7L219 60.6v67.6zM.3 65.5l144.8-25 73.9-7.3v-10H.5z"/><linearGradient id="d" x1="66.528" x2="-24.413" y1="-23.465" y2="-172.665" gradientUnits="userSpaceOnUse"><stop offset="0" stop-color="#cccbcb"/><stop offset="1" stop-color="#989898"/></linearGradient><path fill="url(#d)" stroke="#989898" stroke-width=".5" d="M.8 65.8l122.3-21.7 29.4-4 66.5-6.9v-3.5l-92.5 9.5L.2 54.9z"/><path fill="#184275" stroke="#184275" d="M130 45.2s.8-1 1.6-1 8.5-.6 9.2-.5c.7.1 2.1-.3 3.5.2.3.1.4 1.1.4 1.1v1.1s-10.3 1.1-10.6 1c-.3-.1-2.8-1.3-3.1-1.4-.4-.1-1-.5-1-.5z"/><path fill="#BF996C" stroke="#BF996C" stroke-width=".5" d="M120.1 57.1s7-1.3 7.1-1.2c.1.1 4.2 1.8 4.2 1.8.1.2.6.6.6.6s-5.1 0-5.6-.1c-.5 0-4.7-.3-5.1-.5-.5-.2-1.2-.2-1.2-.2v-.4z"/><path fill="#D7D4D3" stroke="#D7D4D3" stroke-width=".5" d="M127.3 56v-4.4L132 54l.3 4.2z"/><path fill="#BE822B" stroke="#BE822B" d="M129.7 53.1l-.3 4.1-.5-.3.3-4.1z"/><path fill="#EFECEC" stroke="#EEE7E5" stroke-width=".5" d="M141 53.1l.2 4.1-8.9.8-.3-4z"/><path fill="#F9DFAC" stroke="#F9DFAC" d="M127.3 55.9s-5.5.9-5.9.9c-.4 0-1.5.4-1.5.4l-1.4-.4s-1.1-.8-1.1-.9c0-.1.1-.7 1-.8.8-.2 4.1-.9 4.6-1 .5-.1 3.5-.5 3.5-.5l.7-.2.1 2.5z"/><path fill="none" stroke="#A4A4A4" d="M128.6 52.2V50s-1.8-.5-1.7-.9c.1-.4 3.5-1 3.5-1"/><path fill="none" stroke="#A4A4A4" d="M128.6 50.5s-1.9-.4-1.7-.8c.2-.3 1.2-.6 2-.7.9-.1 1.9-.2 1.9-.2"/><path fill="none" stroke="#A4A4A4" d="M130.9 49.7l-4 .8 1.7.8"/><path fill="#BF996C" stroke="#BF996C" stroke-width=".5" d="M130.9 50.3l-4.4.7 5.5 3 13.6-1.4-.6-.4 2-.3-2.3-1.1-.2.7v.6l-4.1.1-5.7.7-3.4-1.3z"/><path fill="#EFECEC" stroke="#EEE7E5" stroke-width=".5" d="M144.5 52l-10.6 1.2s.1-5.9.1-6c0-.1 10.2-1.4 10.5-1.2.3.1 0 6 0 6z"/><path fill="#BE822B" stroke="#BE822B" d="M136.9 47l1.6-.2-.1 5.6-1.7.1z"/><path fill="#4F6064" stroke="#4F6064" stroke-width="1.482" d="M137 47.3l1.2-.1V49l-1.2.2z" opacity=".28"/><path fill="#D7D4D3" stroke="#D7D4D3" stroke-width=".5" d="M130 45.2l-.1 6.4 4.1 1.5V47s-1.9-.8-2.4-.9c-.5-.1-1.5-.7-1.5-.7l-.1-.2z"/><path fill="#184275" stroke="#184275" d="M169.6 52.8v.7s.4.5.4.8c0 .3-.8 2.4-.8 2.4l-.5.4s-2.5 1.1-3.3 1.2c-.8.1-3.6 1.1-4.9 1.9-1.3.8-13.3 5.4-15.4 5.9-2.1.5-10.8.8-12.2.8-1.4 0-3.6-.3-3.6-.3s-3.8 0-4.6.3c-.8.3-2.3-.1-2.6 0l-1.6-.8c-1-.6-2.5-3.1-2.7-3.6-.2-.5-1.2-3.9-1.2-4.2V57s1.8 1.2 4.4 1.5c2.6.4 6.3.6 8.3.7 1.9.1 6.1-.1 8.3-.3 2.2-.2 5.7-.6 7.2-.8 1.6-.2 3.9-.5 4.4-.6.6-.1 2.8-.7 2.8-.7l.2.3s6.2-1.5 7.3-1.8c1.1-.3 4.1-1 4.7-1.2.6-.2 2.5-.7 2.5-.7l1.5-.4 1.1-.5.3.3z"/><path fill="#E81E25" stroke="#E81E25" d="M118.8 64.2s11.7 1 22.8-1.2c11-2.3 17.5-3.7 17.5-3.7l10-3.3.6-.1-.5 1.3s-7.1 2.5-9.9 3.7c-2.7 1.1-7.3 3-10.5 4.1-3.2 1.1-4.2 1.7-12.4 1.9-3.5.1-4.1.5-7.5-.1-.8-.2-2.4-.1-3.2 0-.9.2-1.6.3-1.6.3s-1.4.1-1.9-.1c-.5-.3-2.2-1.1-2.2-1.1l-1.2-1.7z"/><path fill="#BF996C" stroke="#BF996C" stroke-width=".5" d="M161 50.4l-14.6 3.2.2 1.2-1 1.1.4 1.3 5.5-1.1.6.6 15.9-3.8z"/><path fill="#D7D4D3" stroke="#D7D4D3" stroke-width=".5" d="M146.5 52.1v-.4h.3l11.2-2.6s.5-.2 2.6 0 8.5 2.7 9 3.1c.1.1-.3.5-1.5.9-4.4 1.4-15.9 4.1-15.9 4.1s-.2-.2-.2-.4c.1-.2 18.2-3.7 16.7-4.6-1.6-.9-7.5-2.6-8.5-2.7-.9-.2-13.5 2.7-13.5 2.7l-.2-.1z"/><path fill="#F9DFAC" stroke="#F9DFAC" d="M146.6 53.6v-1.4s6.1-1.4 7.1-1.6c1-.2 6.4-1.2 6.5-1.2.2 0 4.1 1.1 5 1.4.9.3 2.5.9 2.8 1 .3.1.7.1.8.4 0 .3 0 .6-.2.7-.2.1-.7.1-.7.1l-6.9-2.5-14.4 3.1z"/><path fill="#A31E22" stroke="#A31E22" d="M167.3 60.4v-2.7s-1.3.3-1.5.3c-.1 0 .1-.1.3.5.2.6.3 1.3.2 1.6-.1.2-.2.7-.2.7l1.2-.4zm-5.3-1.1c-.1.1-.1 1 .1 1.4.2.5.5.8.8.9.3.1 1.1 0 1.3 0 .2 0 .7-.4.8-.6.1-.2.2-1.5 0-1.8-.1-.3-.3-.8-.3-.7 0 .1-2.7.8-2.7.8z"/><path fill="#E81E25" stroke="#E81E25" d="M166 58.2s.5 1.3.4 1.6c0 .3-.2 1-.2 1-.1.1-.8.6-1.1.6-.3.1-.6.3-.7.2h-1.1s1.4-.3 1.5-.5c.2-.2.3-1 .3-1.3 0-.3-.3-1.2-.3-1.2 0-.1-.1-.3-.1-.3l1.3-.1z"/><path fill="#C42126" stroke="#C42126" d="M163.4 59s0 1 .3 1.5.6.8.7.8c0 0 .3.2.5 0s.2-.7.2-.9c0-.3-.2-1.3-.2-1.5 0-.1-.2-.4-.2-.4l-1.3.5c0-.1-1 .4-2 .9-.3.1-.6.3-.8.4-.8.4-1 .6-.6.5.4-.1.7-.3 1.1-.3h.8V60"/><path fill="#FBD987" stroke="#FBD987" d="M118.3 63.3s5.2.4 8.2.4c2.9 0 12-1.1 15.7-1.8 3.7-.6 14.1-3.1 16.3-3.5 2.2-.4 5.3-1.3 6.8-1.6 1.5-.3 3-.9 3-.9l.2.2s-22.8 5.5-25.1 6c-2.3.5-14.5 1.9-16.8 1.9-2.3 0-6.3.2-6.8 0s-1.3-.4-1.3-.4l-.2-.3z"/><path fill="none" stroke="#F8C562" d="M151.6 51.1v1m3-1.7v1.2m2.1-1.6v1m8.5-.3v1m1.7-.1v.9"/><path fill="#EFECEC" stroke="#EEE7E5" stroke-width=".5" d="M142 53.1v4.1h3.6v-4.3z"/><path fill="#D7D4D3" stroke="#D7D4D3" stroke-width=".5" d="M141 53.1h1v4.1h-1.1z"/><path fill="#4F6064" stroke="#4F6064" stroke-width="1.482" d="M138.8 55.5l1.4-.1V54l-1.3-.2zm-2.4-1.4h1v1.7h-1zm-3 .3h1.3V56h-1.3zm-3 .6l.9.5v-1.4l-.9-.5z" opacity=".28"/><path fill="none" stroke="#A4A4A4" d="M144.7 48.7l1.4.7s.4.5-.2.6c-.6.2-.7 0-.7 0s-10.6 1.2-11.1 1.2c-.5.1-2.1.4-2.7 0l-1.5-1v2.6m1.4-1.6v2.5m2.4-2.4v2.5m3.7-3v2.8m3.6-3.2v2.7m4.9-3.1v2.2m-17.8-3.7V51m-.8-2.2v2.8"/><path fill="none" stroke="#A4A4A4" d="M129.8 51.3l1.5.8s1.8.3 2.1.2c.3-.1 4-.5 4-.5l3.9-.5s5-.4 4.8-.6c-.2-.1-1.5-.7-1.5-.7"/><path fill="none" stroke="#A4A4A4" d="M129.8 52.1s.8.5 1.5.7c.7.2 2.4 0 2.4 0l3.7-.4 3.7-.3 4.8-.7-1.2-.6"/><path fill="#4F6064" stroke="#4F6064" stroke-width="1.482" d="M130.9 44.6l.4.4-.4.4-.8-.4zm.7.4l.7.4-.3.4-.8-.4zm1.3.6l-.6.5 1.1.2.3-.4zm1.8.2v.8l1.8-.2-.1-.8zm2.5-.2h1v.7h-1zm1.7-.2l.2.5 1.9-.1-.3-.6z"/><path fill="none" stroke="#F8C562" d="M122.6 54.2v2.4"/><path fill="#5E5B5D" stroke="#5E5B5D" d="M148.5 53.1c.2 0 .8-.1.9.1.1.3-.6.4-.8.4v-.4m.8.5l.2 1 1.8-.7v-.6z"/><path fill="#767576" stroke="#767576" d="M149.8 53.3l1.4-.2.2.2-2 .3v-.3z"/><path fill="none" d="M151.4 54l.5-.2-.5-.9-.2.2.2.3z"/><path fill="#5E5B5D" stroke="#5E5B5D" d="M148.5 53.6l.1 1.8s.3.3.5.2c.2 0 .4-.9.4-.9l-.2-1.4-.5.2-.3.1z"/><path fill="#5E5B5D" stroke="#5E5B5D" d="M148.1 52.5v4.4l.8-.4v-4h-.6zm1.4 2.5v1.6l.5-.3.1-1.3-.3-.2z"/><path fill="#262728" stroke="#262728" d="M123.4 65.2s2 .4 2.9.5c.9.1 1.7.5 1.7.5l-.2.5h-1l-3.6-1.5h.2z" opacity=".13"/><path fill="#4F6064" stroke="#4F6064" stroke-width="1.482" d="M130.2 45.8l3.8 1.7.2 2.2-3.8-1.6zm4.3 3.8l2-.4-.1-1.7-1.9.2zm4.7-.7l1.7-.2V47l-1.7.1z" opacity=".28"/><path fill="#5E5B5D" stroke="#5E5B5D" d="M128.1 52.2l-3 5.8-.4-.1 3.2-5.9z"/><path fill="#767576" stroke="#767576" d="M128.4 53.1l-.3.6-.6-.3.3-.5zm-1.7 1.8l.5.2v.4l-.7-.4zm-1.1 1.4l.8.4v.5l-.8-.5z"/><path fill="#5E5B5D" stroke="#5E5B5D" d="M126.1 58l3.1-5.2-.5-.2-3.1 5.4z"/><path fill="#4F6064" stroke="#4F6064" stroke-width="1.482" d="M141.7 48.6l1.7-.2.1-1.8-1.8.2z" opacity=".28"/><path fill="#3F3F3F" stroke="#3F3F3F" d="M151.2 53.1l.5.2.4.3-.7.4v-.6zm1.8-.3c-.2 0-.2.3-.2.5.8.1.8-.4.4-.8.6-.3.8.8.5 1.1-.2.2-.6.3-.9.3-.3 0-.5-.4-.7-.3v-.3c0-.1.2 0 .2-.1V53c.2-.2.9-.7.7-.2"/><path fill="#5E5B5D" stroke="#5E5B5D" d="M151.3 53.1s.3-.2.5 0c.3.2.4.1.4.1l-.2.8s-.1.2-.2.2c-.2 0 0-.2 0-.2l-.3-.7-.2-.2z"/><path fill="#184275" stroke="#184275" d="M145 52.2l1.5-.2v.1l-1.4.3zM126.5 51v.3l4.8 2.8 14.3-1.2-.1-.3-13.5 1.2z"/><path fill="#BF996C" d="M144.8 52.2l.8.4-.8.1-1-.6.8-.1zm1.7-.5h.1v.2h-.1z"/><path fill="#D7D4D3" stroke="#D7D4D3" stroke-width=".5" d="M146.5 52.1v3.6l-.9.2v-3.3l-.3-.3z"/><path fill="#BF996C" stroke="#BF996C" stroke-width=".5" d="M145.7 56.7L132.3 58l-.1-.3 13.4-1.8z"/><path fill="#5E5B5D" stroke="#5E5B5D" d="M149.3 56.3c0 .3-.3.5-.7.5h-.2c-.4 0-.7-.2-.7-.5v-4.5c0-.3.3-.5.7-.5h.2c.4 0 .7.2.7.5v4.5z"/><path fill="#EEE7E5" stroke="#EEE7E5" stroke-width=".5" d="M151.7 56.3l.4.6s-.8.3-2.8.7c-1.9.4-5.8.7-7.6 1-1.8.3-8 .7-9.2.7-1.2.1-7.3-.2-8-.2 0 0-2.8-.4-3.4-.5 0 0-2.2-.4-3.2-.8-1-.5-1.2-.7-1.2-.7V56s.2.5 1.1.8c.9.3 3.2.9 4.9 1.1 1.7.2 6.5.6 8.7.5 2.3-.1 7.3-.3 8.2-.5 1-.2 3.5-.4 4.1-.5l-.5.1s1.9-.1 2.9-.3c1-.2 2.7-.3 3.1-.4.3-.1 1.4-.3 1.5-.3 0-.1 1-.2 1-.2z"/><path fill="#D7D4D3" stroke="#D7D4D3" stroke-width=".5" d="M127 53.4l.1-.3s-2.5.4-3.8.6c-1.3.3-6 1-6.3 1.4-.3.4-.4.8-.4.8s.8.7 1.3.9 4.3 1 6.2 1.1c1.9.2 6.2.4 7.9.3 1.8-.1 6.2-.3 7.1-.4.9-.1 7.4-.9 7.4-.9 2 0 5.1-.8 5.1-.8l-.5-.3s-3.1.5-3.5.5c-.5 0-5.2.5-6.4.6-1.2.1-7.9.8-8.9.8s-5.2-.1-6-.1c-.7-.1-7-.6-7.8-1.1-.8-.5-1.3-.7-1.1-1.1.2-.5 1-.5 2-.8 1-.2 4.6-1 5.2-1 .7.1 2.4-.2 2.4-.2z"/><path fill="#AADEE9" d="M106.7 64c-5.7 0-11.3-1.4-17.3-1.1 1.1 3.4 7.1 1.8 10 2.9-6.3 2.3-18.7-3.9-23.4 1.2 3.3 1.9 16.4 2.6 20.7 2.4 3.7-.2 4.9-2.4 8-3 3.4-.6 6.6.9 10 .5-1.4-2.2-5.4-2.9-8.6-2.9m6 13.6c-7.4-.2-24.6-.5-31.5 3.5 5.2 1.9 14.2 1.4 20.2 1.2 5.8-.2 11-3.8 16.6-3.6v-1.6c-1.9-.9-3.9-1-5.9-.1M66 82.9c-4 1.6-13.1.4-18.1.6-7.1.3-14.5-1.6-20.5 3 4.2.3 7.8-1.5 11.8-1.8 4-.3 7 1 10.7 1.2 5.7.2 13.2-.4 18.6-1.9-.5-1.3-1.2-.8-2.5-1.1" opacity=".18"/><path fill="#AADEE9" d="M64 66.3c-7.9 1-16.2 3.6-23.4 6.4-6.5 2.5-16.9.8-21.3 6 11.1.7 20.6-4.7 31.4-4.6 7.9.1 20.2 4.6 26.8-.6-4.6-3.4-14.7 1.3-18.8-2.2 2.8-1.3 10.7-1.9 6.6-4.8m-12 31.2c-1.1.9-5.9 4.3-8.1 5.2-4.1 1.5-8.5-.2-12.6.7-4.2.9-16.7 4-19.3 7 5 .8 10-2.6 14.6-3.4 4.6-.8 9.4-.8 14-1.2 7.9-.6 21.6-4.8 26.7-10.7-5-2.2-12.4 1.5-16.6 3.6" opacity=".27"/><path fill="#DAD7DA" d="M1.5 54.1l64.1-10.6L98.2 39l42.6-4.9 30.6-3.5 47.6-2.7v-4.7S107.7 34.6 69.7 39.9.5 49.6.5 49.6l1 4.5z"/><g stroke="#333" stroke-width=".25"><path fill="#989897" d="M11.4 37.8h2.2v22.7h-2.2z"/><ellipse cx="12.5" cy="35.3" fill="#FFF" rx="3.8" ry="3.3"/></g><g stroke="#333" stroke-width=".25"><path fill="#989897" d="M53.5 33.7h1.8v18.4h-1.8z"/><ellipse cx="54.4" cy="31.6" fill="#FFF" rx="3.1" ry="2.7"/></g><g stroke="#333" stroke-width=".25"><path fill="#989897" d="M96 29.7h1.5v15.6H96z"/><ellipse cx="96.7" cy="27.9" fill="#FFF" rx="2.6" ry="2.3"/></g><g stroke="#333" stroke-width=".25"><path fill="#989897" d="M11.4 37.8h2.2v22.7h-2.2z"/><ellipse cx="12.5" cy="35.3" fill="#FFF" rx="3.8" ry="3.3"/></g><g stroke="#333" stroke-width=".25"><path fill="#989897" d="M133.3 27.1h1.2v12.4h-1.2z"/><ellipse cx="133.9" cy="25.7" fill="#FFF" rx="2.1" ry="1.8"/></g><path fill="#FFF" d="M100.7 6.2c-.3-2.5-3.1-3.4-5-1.7-1.7-1.3-3.3-1.2-4.1.8-2-.2-2.7.3-3.5 1.8-2-.1-4.1-.2-5.5 1 1.7 1.4 3.3 1 5.6 1.2 2.2.2 4.4.3 7 .6 2.8.2 11.9 0 11.9-3.1-2.4-.6-4.9-.5-7.4-.5m103.6.4c1.2-2.5-3.4-2.3-5.4-3-1.3.9-.9 1-3 1.3-.1.4.1.9-.1 1.2-2.4-.1-4.9.8-4.9 3.1 3.7.2 15.7 1.5 17.4-1.3-.9-.6-1.9-.8-3-.9"/><path fill="#996733" d="M24.6 42.1c-.1-7.5 1.1-17 4.1-23.9H30c.4 7.8-2.1 16.6-.9 24.3"/><linearGradient id="e" x1="8.471" x2="47.614" y1="15.681" y2="15.681" gradientUnits="userSpaceOnUse"><stop offset="0" stop-color="#67682c"/><stop offset="1" stop-color="#96c867"/></linearGradient><path fill="url(#e)" d="M26.6 23.9c-1.6 1.7-4.9 2.8-6.6.5.2-.5.6-.6.9-.9-.7.1-1.6-.1-2.3 0 .3-1.5.3-2.7 1.4-3.8-2.4-.1-7.8 1-7.1-1.9-1.9.1-3.5-.5-4.4-1.8.7-1.5 2.1-2.3 4-2.3.2-.5.1-1.2.1-1.6.4-.1 1.1.1 1.4-.1.4-2.5 1.6-5.7 5.5-4.7.7 1.7 1.1 1.3 2.5 1.9.2-1.1.7-1 1.1-1.8 3.5 1.7 13.6-5.3 13.6.4 1-.3 2.9 0 3.9-.3-.1.6.2 1.5.2 2.1 2.8-.4 5 .9 4.5 3.5.8.1 1.5.5 2.4.6.5 2.7-.9 6.8-4.9 6.2 1.5 7.8-11.6 6-15.6 3.5"/><path fill="#996733" d="M71 36c.1-5.9-.9-13.5-3.2-18.9h-1.1c-.3 6.2 1.7 13.2.7 19.3"/><linearGradient id="f" x1="55.2" x2="81.531" y1="16.563" y2="16.563" gradientUnits="userSpaceOnUse"><stop offset="0" stop-color="#67682c"/><stop offset="1" stop-color="#96c867"/></linearGradient><path fill="url(#f)" d="M69 26.9c-2 0-6.7 1.4-5.3-1.8-.8.2-1.8-.2-2.6 0 .3-.7 0-1.3.6-2.1-1.8-.3-3.6-.2-5.4-.7-.7-.9-1.1-1.9-1.2-3.1.7.1 1.6-.2 2.3-.1-1.5-3.5 2.4-5.6 2.5-8.7 2.9.4 3.8-4.4 7.8-4.6 0 4.2 5.1-1.9 5.3 2.7.8-.5 2.2-.3 3.1-.6.7 1.4 2.9 3.5.5 4.6 1.3.7 2.4 2 1.6 3.4 3.2.9 5.1 7.4.8 8.1.4 2.5-2.3 2.2-4.4 2.1-1.1 1.7-4.4 1-6.4.6"/><path fill="#996733" d="M111.7 31.4c.1-4.4-.7-10.1-2.4-14.1h-.8c-.2 4.6 1.3 9.8.5 14.4"/><linearGradient id="g" x1="455.709" x2="478.874" y1="15.767" y2="15.767" gradientTransform="matrix(-1 0 0 1 576.96 0)" gradientUnits="userSpaceOnUse"><stop offset="0" stop-color="#67682c"/><stop offset="1" stop-color="#96c867"/></linearGradient><path fill="url(#g)" d="M110.5 20.7c.9 1 2.9 1.6 3.9.3-.1-.3-.4-.3-.5-.6.4 0 1-.1 1.3 0-.2-.9-.2-1.6-.8-2.3 1.4-.1 4.6.6 4.2-1.1 1.1.1 2-.2 2.6-1-.4-.9-1.2-1.3-2.4-1.4-.1-.3-.1-.7-.1-1-.2-.1-.6.1-.8-.1-.3-1.5-1-3.4-3.3-2.8-.4 1.1-.7.8-1.5 1.2-.1-.6-.4-.6-.6-1-2.1 1-8.1-3.1-8.1.2-.6-.2-1.7 0-2.3-.2 0 .4-.1.9-.1 1.2-1.7-.3-3 .5-2.7 2.1-.5 0-.9.3-1.4.4-.3 1.6.6 4 2.9 3.7-.9 4.6 6.8 3.5 9.2 2.1"/><path fill="#996733" d="M145.7 27.2c0-3.4.5-7.8 1.9-11h.6c.2 3.6-1 7.6-.4 11.2"/><linearGradient id="h" x1="423.384" x2="441.38" y1="15.026" y2="15.026" gradientTransform="translate(-285.1)" gradientUnits="userSpaceOnUse"><stop offset="0" stop-color="#67682c"/><stop offset="1" stop-color="#96c867"/></linearGradient><path fill="url(#h)" d="M146.6 18.8c-.7.8-2.3 1.3-3 .2.1-.2.3-.3.4-.4-.3 0-.7-.1-1 0 .1-.7.1-1.3.6-1.8-1.1-.1-3.6.5-3.3-.9-.9.1-1.6-.2-2-.8.3-.7.9-1 1.8-1 .1-.2 0-.5.1-.8.2-.1.5.1.6-.1.2-1.2.8-2.6 2.5-2.2.3.9.5.6 1.2 1 .1-.5.3-.5.5-.8 1.6.8 6.3-2.4 6.3.2.5-.2 1.3 0 1.8-.1 0 .3.1.7.1 1 1.3-.2 2.3.4 2.1 1.6.4 0 .7.2 1.1.3.2 1.3-.4 3.1-2.2 2.8.7 3.6-5.3 2.8-7.2 1.6"/><linearGradient id="i" x1="136.337" x2="213.283" y1="120.21" y2="-9.866" gradientUnits="userSpaceOnUse"><stop offset="0" stop-color="#cccbcb"/><stop offset="1" stop-color="#989898"/></linearGradient><path fill="url(#i)" d="M74.2 127.7l60.6-32.4S205 68.9 219 64.5c1.5 7.5.9 12.1.9 12.1L131.8 129l-57.6-1.3z"/><path fill="#FDD9B6" d="M73.1 41.7c.2.4.3.5.8.9.3-.1.5-.4.7-.5.2-.2-.1 0 .3-.1-.5.1-.2-.1-1 0-.4-.3-.3-.2-.5-.5-.1.1 0-.2 0 0m-1.9-2.4s-.1.4-.2.5c-.1.1.4.1.6.2.1 0 .6.1.5 0l-.3-.3c-.1-.1 0-.2 0-.2s-.3 0-.4-.1c-.1-.1-.2-.1-.2-.1z"/><path fill="#FDD9B6" d="M70.6 38.8s.4.2.8.3c.4.1.9.4 1.3.2.8-.3 1.3-1.1 1-1.3-.3-.2.1-.4.1-.6 0-.2-.1-1-.9-1.1-.8 0-2 .4-1.9.6 0 .2-.3 1.4-.5 1.4-.2.1.1.5.1.5z"/><linearGradient id="j" x1="69.692" x2="74.547" y1="38.107" y2="38.107" gradientTransform="translate(-.026 -.576)" gradientUnits="userSpaceOnUse"><stop offset="0" stop-color="#f05525"/><stop offset=".059" stop-color="#db4d22"/><stop offset=".257" stop-color="#993618"/><stop offset=".446" stop-color="#63230f"/><stop offset=".619" stop-color="#381409"/><stop offset=".775" stop-color="#190904"/><stop offset=".907" stop-color="#070201"/><stop offset="1"/></linearGradient><path fill="url(#j)" d="M70.9 38.6c0 .2.1.4.2.5-.3.1-.5-.2-.8-.1-.1-.1-.1-.3-.1-.4-.5.2-.6-.2-.4-.5.1-.2.2-.1.2-.4 0-.2-.2-.2 0-.4.1-.1.4 0 .4-.2 0-.1-.2-.3-.2-.4 0-.2 0-.1.2-.2 0 0 .1.1.2 0s.1-.2.2-.2c.1-.1 0-.2.2-.3.2-.1.3.1.5.1.5 0 .3-.4.8-.4.4 0 .5.3.9.3.2 0 .3-.2.5 0 .2.1 0 .3 0 .4.2 0 .4.1.6.2.1.1 0 .3.4.3.2.2-.2.2-.3.4-.2.3.1.2.2.4 0 .3-.3.1-.4.3-.2.2.2.3-.1.4-.2-.1-.4-.6-.2-.7-.1-.1-.3-.2-.4-.3l.1-.2c-.1-.1-.2-.1-.2-.1h-.2c-.1 0 0-.2-.1-.2-.3-.1-.2-.1-.4.1v.2c-.1.1-.2 0-.3 0-.1 0-.1-.1-.2 0-.2.1 0 .2-.1.3 0 .1-.1.1-.2.2s-.4.1-.4.1c-.2.2.1.3 0 .5-.3.1-.4.2-.2.5h-.1"/><path fill="#FDD9B6" d="M70.6 45.2s.3 3.3.3 3.5c0 .1.1.5.1.5s.9.4 1.1.4c.2 0 .8-.2.7-.3-.1-.1-.6-.1-.7-.1-.1 0-.3 0-.4-.1-.1-.1-.2-.6-.2-1.1 0-.5-.1-2.6-.1-2.7v-.2l-.8.1z"/><path fill="#2B1312" d="M70.9 49v.5c0 .1.2 0 .2 0l.1-.3s.1.1.3.2c.1.1.5.2.7.2.2 0 .5 0 .6-.1.1-.1.2-.2 0-.3-.1-.1-.4 0-.4 0s.1 0 0 .1-.4.1-.5.1c-.1 0-.8-.3-.9-.4h-.1z"/><path fill="#FDD9B6" d="M70.2 45.4s.3 3.3.3 3.5c0 .1.1.5.1.5s.9.4 1.1.4c.2 0 .8-.2.7-.3-.1-.1-.6-.1-.7-.1-.1 0-.3 0-.4-.1-.1-.1-.2-.6-.2-1.1 0-.5-.1-2.6-.1-2.7v-.2l-.8.1z"/><path fill="#2B1312" d="M69.6 43.5h3v2.6h-3z"/><path fill="#5F2262" d="M73.1 41.7l.4-.2-.5-.9-.1.5z"/><path fill="#5F2262" d="M71.4 39.4l.5.1h.2s.4.6.7.8c.3.2.5 1.3.1 1.6-.4.3-.7.9-.7 1.1 0 .2.3.4.3.6 0 .2-2.7 0-3-.1-.2-.1.1-.4.1-.4s.1-.1.2-.3c.1-.2.1-.7.1-.7s-.1-.6 0-1.1c.1-.5.2-.5.5-.7.2-.1.4-.2.5-.4l.4-.4.1-.1z"/><path fill="#2B1312" d="M70.5 49.3v.5c0 .1.2 0 .2 0l.1-.3s.1.1.3.2c.1.1.5.2.7.2.2 0 .5 0 .6-.1.1-.1.1-.3 0-.3-.1-.1-.3-.1-.3-.1s.1 0 0 .1-.4.1-.5.1c-.1 0-.8-.3-.9-.4-.1.1-.2.1-.2.1z"/><path fill="#5F2262" d="M70.7 38.9s-.1 0 0 0c-.1-.1 0-.2 0-.2"/><linearGradient id="k" x1="72.906" x2="73.667" y1="39.259" y2="39.259" gradientTransform="translate(-.026 -.576)" gradientUnits="userSpaceOnUse"><stop offset="0" stop-color="#ec1475"/><stop offset="1" stop-color="#fff5cb"/></linearGradient><ellipse cx="73.3" cy="38.6" fill="url(#k)" opacity=".18" rx=".4" ry=".3"/><circle cx="72.8" cy="37.9" r=".1" fill="#050506"/><circle cx="72" cy="38" r=".1" fill="#050506"/><linearGradient id="l" x1="71.88" x2="70.935" y1="39.361" y2="39.361" gradientTransform="translate(-.026 -.576)" gradientUnits="userSpaceOnUse"><stop offset="0" stop-color="#ec1475"/><stop offset="1" stop-color="#fff5cb"/></linearGradient><ellipse cx="71.4" cy="38.7" fill="url(#l)" opacity=".18" rx=".5" ry=".3"/><path fill="#FFF" d="M73.5 38.6l-.9.4c-.1 0-1.1-.3-1.1-.3s.6.1 1 .1c.5 0 1-.2 1-.2z"/><linearGradient id="m" x1="70.629" x2="70.959" y1="37.741" y2="37.741" gradientTransform="translate(-.026 -.576)" gradientUnits="userSpaceOnUse"><stop offset="0" stop-color="#f05525"/><stop offset=".042" stop-color="#de4f22"/><stop offset=".19" stop-color="#a43a19"/><stop offset=".338" stop-color="#722812"/><stop offset=".483" stop-color="#491a0b"/><stop offset=".624" stop-color="#290f06"/><stop offset=".759" stop-color="#120703"/><stop offset=".887" stop-color="#050201"/><stop offset="1"/></linearGradient><path fill="url(#m)" d="M70.6 37.3s0-.2.1-.3c.1 0 .3-.1.3-.1s-.2.1-.2.2l-.2.2c.1 0 0 0 0 0z"/><linearGradient id="n" x1="71.04" x2="71.319" y1="38.066" y2="38.066" gradientTransform="translate(-.026 -.576)" gradientUnits="userSpaceOnUse"><stop offset="0" stop-color="#f05525"/><stop offset=".042" stop-color="#de4f22"/><stop offset=".19" stop-color="#a43a19"/><stop offset=".338" stop-color="#722812"/><stop offset=".483" stop-color="#491a0b"/><stop offset=".624" stop-color="#290f06"/><stop offset=".759" stop-color="#120703"/><stop offset=".887" stop-color="#050201"/><stop offset="1"/></linearGradient><path fill="url(#n)" d="M71.1 37.6s-.1 0 0 0c0-.1.1-.1.1-.1v-.2s.1.1.1.2h-.1s-.1 0-.1.1c0-.1.1 0 0 0 .1 0 0 0 0 0z"/><linearGradient id="o" x1="-215.012" x2="-214.728" y1="57.414" y2="57.414" gradientTransform="rotate(-174.463 -72.59 40.85)" gradientUnits="userSpaceOnUse"><stop offset="0" stop-color="#f05525"/><stop offset=".042" stop-color="#de4f22"/><stop offset=".19" stop-color="#a43a19"/><stop offset=".338" stop-color="#722812"/><stop offset=".483" stop-color="#491a0b"/><stop offset=".624" stop-color="#290f06"/><stop offset=".759" stop-color="#120703"/><stop offset=".887" stop-color="#050201"/><stop offset="1"/></linearGradient><path fill="url(#o)" d="M70.7 37.9s.1.1 0 0l-.1.1v.2s-.1-.2 0-.2h.1c-.1 0 0 0 0-.1 0 .1 0 .1 0 0-.1 0 0 0 0 0z"/><linearGradient id="p" x1="-184.51" x2="-184.297" y1="-59.011" y2="-59.011" gradientTransform="rotate(134.01 -76.885 42.886)" gradientUnits="userSpaceOnUse"><stop offset="0" stop-color="#f05525"/><stop offset=".042" stop-color="#de4f22"/><stop offset=".19" stop-color="#a43a19"/><stop offset=".338" stop-color="#722812"/><stop offset=".483" stop-color="#491a0b"/><stop offset=".624" stop-color="#290f06"/><stop offset=".759" stop-color="#120703"/><stop offset=".887" stop-color="#050201"/><stop offset="1"/></linearGradient><path fill="url(#p)" d="M71 36.2s.2-.1.1 0c0 .1-.1.1-.1.1l.1.1c.1 0 .1.1 0 .1s-.2-.1-.2-.1v-.1c.2 0 .2 0 .1-.1 0 .1 0 0 0 0-.1 0 0 0 0 0z"/><linearGradient id="q" x1="68.004" x2="68.288" y1="7.786" y2="7.786" gradientTransform="rotate(5.02 -280.004 45.88)" gradientUnits="userSpaceOnUse"><stop offset="0" stop-color="#f05525"/><stop offset=".042" stop-color="#de4f22"/><stop offset=".19" stop-color="#a43a19"/><stop offset=".338" stop-color="#722812"/><stop offset=".483" stop-color="#491a0b"/><stop offset=".624" stop-color="#290f06"/><stop offset=".759" stop-color="#120703"/><stop offset=".887" stop-color="#050201"/><stop offset="1"/></linearGradient><path fill="url(#q)" d="M70.1 38.6s-.2-.1 0 0l.1-.1v-.2s.1.2 0 .2h-.1v.1c0-.1 0-.1 0 0z"/><linearGradient id="r" x1="-214.626" x2="-214.343" y1="57.835" y2="57.835" gradientTransform="rotate(-174.463 -72.59 40.85)" gradientUnits="userSpaceOnUse"><stop offset="0" stop-color="#f05525"/><stop offset=".042" stop-color="#de4f22"/><stop offset=".19" stop-color="#a43a19"/><stop offset=".338" stop-color="#722812"/><stop offset=".483" stop-color="#491a0b"/><stop offset=".624" stop-color="#290f06"/><stop offset=".759" stop-color="#120703"/><stop offset=".887" stop-color="#050201"/><stop offset="1"/></linearGradient><path fill="url(#r)" d="M70.3 37.5s.2 0 0 0l-.1.1v.2s-.1-.2 0-.2h.1s.1 0 0-.1z"/><linearGradient id="s" x1="-105.76" x2="-105.57" y1="189.363" y2="189.363" gradientTransform="rotate(-79.66 -108.262 6.45)" gradientUnits="userSpaceOnUse"><stop offset="0" stop-color="#f05525"/><stop offset=".255" stop-color="#b7411c"/><stop offset=".839" stop-color="#280e06"/><stop offset="1"/></linearGradient><path fill="url(#s)" d="M72.4 36.8s-.1.1-.1 0v-.1H72h.2s.1.1 0 .1v.1c.1-.1.2-.1.2-.1z"/><linearGradient id="t" x1="73.204" x2="73.482" y1="37.505" y2="37.505" gradientTransform="translate(-.026 -.576)" gradientUnits="userSpaceOnUse"><stop offset="0" stop-color="#f05525"/><stop offset=".042" stop-color="#de4f22"/><stop offset=".19" stop-color="#a43a19"/><stop offset=".338" stop-color="#722812"/><stop offset=".483" stop-color="#491a0b"/><stop offset=".624" stop-color="#290f06"/><stop offset=".759" stop-color="#120703"/><stop offset=".887" stop-color="#050201"/><stop offset="1"/></linearGradient><path fill="url(#t)" d="M73.3 37s-.2 0 0 0c0-.1.1-.1.1-.1v-.2s.1.1.1.2-.1 0-.1 0c-.1 0-.1.1-.1.1 0 .1 0 0 0 0z"/><linearGradient id="u" x1="1.425" x2="1.624" y1="114.777" y2="114.777" gradientTransform="rotate(-57.33 -34.304 10.11)" gradientUnits="userSpaceOnUse"><stop offset="0" stop-color="#f05525"/><stop offset=".042" stop-color="#de4f22"/><stop offset=".19" stop-color="#a43a19"/><stop offset=".338" stop-color="#722812"/><stop offset=".483" stop-color="#491a0b"/><stop offset=".624" stop-color="#290f06"/><stop offset=".759" stop-color="#120703"/><stop offset=".887" stop-color="#050201"/><stop offset="1"/></linearGradient><path fill="url(#u)" d="M73.3 36.6s-.2.1-.1 0v-.1s-.1-.1-.2 0c-.1 0-.1 0-.1-.1 0 0 .2 0 .2.1.1-.1.1-.1.2.1-.1-.1-.1-.1 0 0-.1-.1 0-.1 0 0 0-.1 0 0 0 0z"/><linearGradient id="v" x1="-97.083" x2="-96.868" y1="104.309" y2="104.309" gradientTransform="rotate(-106 -37.955 6.41)" gradientUnits="userSpaceOnUse"><stop offset="0" stop-color="#f05525"/><stop offset=".042" stop-color="#de4f22"/><stop offset=".19" stop-color="#a43a19"/><stop offset=".338" stop-color="#722812"/><stop offset=".483" stop-color="#491a0b"/><stop offset=".624" stop-color="#290f06"/><stop offset=".759" stop-color="#120703"/><stop offset=".887" stop-color="#050201"/><stop offset="1"/></linearGradient><path fill="url(#v)" d="M72.6 36.1s0 .1-.1.1l-.1-.1c-.1 0-.1 0-.1.1h-.1l.2-.1s.1 0 .1.1c0-.1 0 0 .1-.1 0 .1 0 0 0 0 .1 0 0 0 0 0z"/><linearGradient id="w" x1="-97.491" x2="-97.277" y1="103.32" y2="103.32" gradientTransform="rotate(-106 -37.955 6.41)" gradientUnits="userSpaceOnUse"><stop offset="0" stop-color="#f05525"/><stop offset=".042" stop-color="#de4f22"/><stop offset=".19" stop-color="#a43a19"/><stop offset=".338" stop-color="#722812"/><stop offset=".483" stop-color="#491a0b"/><stop offset=".624" stop-color="#290f06"/><stop offset=".759" stop-color="#120703"/><stop offset=".887" stop-color="#050201"/><stop offset="1"/></linearGradient><path fill="url(#w)" d="M71.8 36.8s0 .1-.1.1l-.1-.1c-.1 0-.1 0-.1.1h-.1l.2-.1s.1 0 .1.1c0-.1 0 0 .1-.1-.1 0 0 0 0 0z"/><path fill="#5F2262" d="M70 42.1h.9s.1-.8.1-1c0-.2 0-.8-.3-.8-.2 0-.4.2-.5.3 0 .1-.3.9-.3 1 0-.1.1.5.1.5z"/><path fill="#060706" d="M73.1 41.7l.1-.3V41c0-.1-.1-.1-.1-.1v.7c0 .1 0 .1-.1.1l-.1.1-.1.1h.1l.2-.2z" opacity=".25"/><path fill="#060706" d="M70.6 40.2s.2 0 .3.3c.1.3.1.8 0 1 0 .2-.1.6-.1.6s-.1.8 0 .9v.6h.1v-.7c0-.1.1-1 .1-1.2 0-.1.1-1.1 0-1.2 0-.1-.1-.3-.2-.3h-.2zm-.5 3.4c.1.1.1-.1.1-.2s-.1-.3-.1-.4c0-.1-.1-.3-.1-.3v-.3 1c0-.1.1.2.1.2z" opacity=".32"/><path fill="none" d="M71.3 39.7s.3.1.5.1h.5m-.8-.4l-.2.3m.3-.3l-.2.3m.3-.2l-.2.3m.3-.3l-.1.3m.2-.3l-.1.3m.2-.3v.3m.1-.3v.3m0-.3l.2.3"/><path fill="#CE6FAB" d="M71.2 43.2h-.1c0-.1 0-.1.1 0 0-.1 0-.1 0 0zm1-2.8h-.1c0-.1 0-.1.1 0 0-.1 0-.1 0 0z"/><path fill="#060706" d="M71.4 39.4c.2.3 1-.1.9.5-.4 0-1.2 0-.9-.5" opacity=".25"/><path fill="#CE6FAB" d="M70.9 41h-.1c0-.1 0-.1.1 0 0-.1 0-.1 0 0z"/><linearGradient id="x" x1="-98.556" x2="-98.341" y1="105.269" y2="105.269" gradientTransform="rotate(-106 -37.955 6.41)" gradientUnits="userSpaceOnUse"><stop offset="0" stop-color="#f05525"/><stop offset=".042" stop-color="#de4f22"/><stop offset=".19" stop-color="#a43a19"/><stop offset=".338" stop-color="#722812"/><stop offset=".483" stop-color="#491a0b"/><stop offset=".624" stop-color="#290f06"/><stop offset=".759" stop-color="#120703"/><stop offset=".887" stop-color="#050201"/><stop offset="1"/></linearGradient><path fill="url(#x)" d="M74 37.3s0 .1-.1.1l-.1-.1h-.2l.2-.1s.1 0 .1.1h.1c-.1 0-.1 0 0 0z"/><linearGradient id="y" x1="-99.127" x2="-98.912" y1="105.316" y2="105.316" gradientTransform="rotate(-106 -37.955 6.41)" gradientUnits="userSpaceOnUse"><stop offset="0" stop-color="#f05525"/><stop offset=".042" stop-color="#de4f22"/><stop offset=".19" stop-color="#a43a19"/><stop offset=".338" stop-color="#722812"/><stop offset=".483" stop-color="#491a0b"/><stop offset=".624" stop-color="#290f06"/><stop offset=".759" stop-color="#120703"/><stop offset=".887" stop-color="#050201"/><stop offset="1"/></linearGradient><path fill="url(#y)" d="M74.2 37.8s0 .1-.1.1l-.1-.1c-.1 0-.1 0-.1.1h-.1l.2-.1s.1 0 .1.1c-.1-.1 0 0 .1-.1-.1 0-.1 0 0 0z"/><path fill="#FDD9B6" d="M72.2 38.4s.1-.2.2-.2.3.1.3.1"/><g stroke-width=".25"><path fill="#282C69" stroke="#282C69" d="M69.6 46.1s-1 .9-1 1.4c0 .5.1.5.2.6.1.1.3.2.7.3H72s.4 0 .6-.3c.2-.2.2-.4.2-.4s-.2-.7-.7-1.1l-.4-.6s-.2.1-.4.1-.5.1-.6.1c-.1 0-.6-.1-.7-.1h-.4z"/><path fill="#282C69" stroke="#282C69" d="M69.7 46s-.1-.9 1-.9c.9 0 .9.9.9.9h.1s0-1-1-1c-1.2 0-1.1 1-1.1 1 0 .1.1 0 .1 0z"/><path fill="#FDCE0C" stroke="#D39929" d="M70.5 46.2v.7l.1.1v.1l-.3-.2v-.7z"/><path fill="#E52D91" stroke="#E52D91" d="M70.9 46.2v.7l-.2.1.1.1.2-.2v-.7zm-2.2 1.1s-.1.3 0 .4c0 .1.1.4.3.4.3.1.4.1.4.1s-.3-.1-.4-.5c-.1-.3-.2-.7-.2-.7l-.1.3zm3.5 1s.4-.1.5-.3c.1-.2.1-.4.1-.5-.1-.1-.2-.4-.2-.4l-.1-.2s.1.4 0 .7c-.1.3-.4.7-.3.7z"/></g><path fill="#FDD9B6" d="M70 42.1h.9l-.1 2.6s.3.2.3.3c0 .2-.1.5-.3.4-.2 0-.3-.1-.5-.2-.2 0-.1-.5-.1-.6 0-.1-.2-1.8-.2-1.8v-.7z"/><path fill="#2C3686" stroke="#2C3686" stroke-width=".25" d="M76.1 43.9s-.1.6-.1.8c0 .1-.1.4-.2.6v.1c0 .2-.1.4-.1.4l-.2.3v.5c0 .2-.2.9-.2.9l.1.5-.3.8h-.9l-.3-.2s.5-2 .5-2.2c0-.2.2-1.3.2-1.5 0-.3.5-1.9.5-1.9l-.1-.3s1.6.2 2 .2c.4 0 .6-.1.6-.1s.1.6.1.9c0 .3-.4 1.6-.6 1.9-.1.3-.2 1.1-.2 1.1l-.1.8-.3.3.2.6c-.4.4-1 .2-1 .2s-.3-.3-.3-.4c.1-.2.2-.7.2-.7v-.7s.2-.6.2-.8c0-.2.3-1.1.3-1.1v-1z"/><path fill="#020202" stroke="#020202" stroke-width=".25" d="M75.6 48.5s0 .4.1.4.4.1.4.1.2.2.4.2c.2.1.7.1.8.1.1-.1.1-.2 0-.3-.1-.1-.4-.3-.6-.3-.1-.1-.1 0-.3 0-.2 0-.6-.1-.6-.2-.1-.1-.2 0-.2 0z"/><path fill="#FBFCFA" stroke="#020202" stroke-width=".25" d="M76.8 49.2s.1-.2.2-.3h.3s.2.1.2.2-.1.2-.2.2c-.2 0-.4 0-.5-.1z"/><path fill="#FFF" stroke="#888" stroke-width=".25" d="M75.4 39.3l-.8.4-.6 1.7.8.3v1.6s1.3.1 1.6.1c.3.1 1.1-.1 1.1-.1s.1-1.6 0-1.8c-.1-.2.1-.9.1-.9l-.2-.6.4 1.1.9-.3-.1-.5s0-.2-.3-.4-.2-.4-.6-.6c-.4-.2-1-.3-1-.3l-1.3.3z"/><path fill="#690B27" stroke="#690B27" stroke-width=".25" d="M77.9 41.2v.1h.4c.2 0 .4-.1.4-.2.1-.1.3-.1.2-.2l-.2-.2s-.4.3-.5.3c-.1.1-.3.2-.3.2zm-3.9.2s.6.2.7.3c.1 0 .1-.1.1-.1s.1-.1 0-.2c-.1 0-.2-.2-.3-.2-.1 0-.4-.1-.4-.1l-.1.1v.2z"/><linearGradient id="z" x1="-1716.873" x2="-1715.896" y1="42.33" y2="42.33" gradientTransform="matrix(1.5848 0 0 1 2798.475 0)" gradientUnits="userSpaceOnUse"><stop offset="0" stop-color="#746046"/><stop offset=".973" stop-color="#9f552b"/><stop offset="1"/></linearGradient><path fill="url(#z)" d="M78.2 41.3s.2.2.2.3c0 .1-.1.4-.2.5-.1.1-.3.4-.3.4s-.2.2-.2.3c-.1.1 0 .6 0 .6s.1.1.2 0 .2-.3.2-.4c0-.1.1-.2.2-.2 0 0 1-1.2 1-1.3 0-.1-.1-.4-.2-.4-.1-.1-.3.1-.4.1-.3 0-.5.1-.5.1z"/><ellipse cx="78.1" cy="42.7" fill="#231F20" stroke="#020202" stroke-width=".25" rx=".2" ry=".1"/><linearGradient id="A" x1="-1719.146" x2="-1718.595" y1="43.162" y2="43.162" gradientTransform="matrix(1.5848 0 0 1 2798.475 0)" gradientUnits="userSpaceOnUse"><stop offset="0" stop-color="#746046"/><stop offset=".973" stop-color="#9f552b"/><stop offset="1"/></linearGradient><path fill="url(#A)" d="M74.2 41.5v1.4c0 .1.1 1 .1 1.1 0 .1-.2.4-.2.5 0 .2.1.3.3.3.2 0 .1-.2.1-.2s.1.2.2.1 0-.2.1-.3c0-.1.1-.9.1-1.2 0-.2.2-.8.2-1v-.6l-.9-.1z"/><path fill="#690B27" stroke="#690B27" stroke-width=".25" d="M74.8 43.3h2.6c.2 0 .3.2.3.2s-.2.2-.4.2h-2.4l-.1-.4z"/><path fill="#2C3686" stroke="#020303" stroke-width=".25" d="M76.1 39.3s-.2.1-.1.1c.1.1.3.1.4.1.2 0 .4-.1.4-.1s0 .2-.2.2-.6-.1-.6-.1"/><path fill="#690B27" stroke="#690B27" stroke-width=".25" d="M76.7 39.3h.2c.1 0 .1.1.1.1s-.1.2-.3.2h-.5c-.1 0-.2-.1-.3-.1-.1-.1 0-.2 0-.2h.1"/><linearGradient id="B" x1="-1717.883" x2="-1717.307" y1="39.335" y2="39.335" gradientTransform="matrix(1.5848 0 0 1 2798.475 0)" gradientUnits="userSpaceOnUse"><stop offset="0" stop-color="#746046"/><stop offset=".973" stop-color="#9f552b"/><stop offset="1"/></linearGradient><path fill="url(#B)" d="M76 39.4s.2-.1.3-.2c.1-.1.4.1.4.1l.1.2h-.6l-.2-.1z"/><path fill="#FFF" stroke="#888" stroke-width=".25" d="M75.3 39.9l-.4 1.5"/><path fill="#020202" stroke="#020202" stroke-width=".25" d="M74.9 48.9s-.4.3-.4.4c0 .1-.3.3-.5.3h-.5c-.1-.1-.1-.3 0-.3l.3-.3c.1-.1.1-.2.1-.1 0 0 .6.1.7.1.1-.2.3-.1.3-.1z"/><path fill="#FBFCFA" stroke="#020202" stroke-width=".25" d="M74 49.5l-.3-.3c-.1 0-.2-.1-.2-.1l-.2.2.2.2h.3c.1.1.2.1.2 0 .1 0 0 0 0 0z"/><linearGradient id="C" x1="62.067" x2="62.499" y1="52.246" y2="52.246" gradientTransform="rotate(-4.365 -114.807 -110.62)" gradientUnits="userSpaceOnUse"><stop offset="0" stop-color="#746046"/><stop offset=".973" stop-color="#9f552b"/><stop offset="1"/></linearGradient><path fill="url(#C)" d="M74.3 38.1s-.2-.1-.3 0c-.1.1-.1.2-.1.3 0 .1.2.3.3.3h.2l-.1-.6z"/><linearGradient id="D" x1="74.24" x2="78.648" y1="37.995" y2="37.995" gradientUnits="userSpaceOnUse"><stop offset="0" stop-color="#746046"/><stop offset=".973" stop-color="#9f552b"/><stop offset="1"/></linearGradient><path fill="url(#D)" d="M78.6 37.9c0-.1.1-.7.1-.8 0-.7-1.7-.5-2.2-.5-.5 0-2.1.5-2.1.7-.1.1.1.8.1.8s-.1.7-.1.8c0 .1.6.5 1.4.5.9 0 1.3-.1 1.7-.1.3 0 .7-.2.8-.3 0-.1.3-1.1.3-1.1"/><linearGradient id="E" x1="77.132" x2="78.048" y1="38.611" y2="38.611" gradientUnits="userSpaceOnUse"><stop offset="0" stop-color="#ec1475"/><stop offset="1" stop-color="#fff5cb"/></linearGradient><ellipse cx="77.6" cy="38.6" fill="url(#E)" opacity=".13" rx=".5" ry=".4"/><circle cx="77.1" cy="38" r=".1" fill="#050506" stroke="#010101" stroke-width=".25"/><circle cx="76.1" cy="38" r=".1" fill="#050506" stroke="#010101" stroke-width=".25"/><linearGradient id="F" x1="74.757" x2="75.863" y1="38.676" y2="38.676" gradientUnits="userSpaceOnUse"><stop offset="0" stop-color="#ec1475"/><stop offset="1" stop-color="#fff5cb"/></linearGradient><ellipse cx="75.3" cy="38.7" fill="url(#F)" opacity=".13" rx=".6" ry=".5"/><linearGradient id="G" x1="90.328" x2="90.762" y1="51.974" y2="51.974" gradientTransform="rotate(4.44 262.842 -109.188)" gradientUnits="userSpaceOnUse"><stop offset="0" stop-color="#746046"/><stop offset=".973" stop-color="#9f552b"/><stop offset="1"/></linearGradient><path fill="url(#G)" d="M78.4 38s.2-.1.3-.1c.1.1.2.2.2.3 0 .1-.2.3-.2.3h-.2l-.1-.5z"/><path fill="#F7F6F5" d="M78.1 35.9l.3.1s.1-.2 0-.2c-.1-.1-.2 0-.3.1z" opacity=".14"/><path fill="none" stroke="#000" stroke-width=".25" d="M76.3 38.4s.1-.1.2-.1c.2 0 .2.1.2.1"/><path fill="#050606" stroke="#050606" stroke-width=".25" d="M74.1 37.3c-.2.2.1.4.3.4.4 0 .2-.3.5-.4.2 0 .2.1.3.1.2 0 .2-.1.3-.2.1 0 .2-.1.3-.1.2 0 .1.2.3.2.2.1.4-.2.6-.3.1 0 .2-.1.3-.1.2 0 .2.1.3.2.3.1.3-.3.6-.3.2 0 .1.2.2.2s.2-.1.2-.2c.4-.1.1.2.1.3 0 .1.1.2.1.2 0 .1-.1.1-.2.2.1.1.2.2.3.2.3 0 .1-.1.1-.3 0-.2.2-.2.2-.4s-.1-.2-.2-.4c-.1-.1-.2-.2-.1-.3 0-.2.3-.1 0-.3-.2-.1-.2-.1-.4-.3-.1-.1-.2-.2-.4-.1.2-.3-.8-.7-1-.4-.2-.4-.6-.2-.8.1v-.1c-.1 0-.1.1-.2.2-.2-.2-.4-.4-.6 0-.1.2-.1.4-.4.3-.1.1-.3.2-.3.3 0 .2.1.2.1.3-.2.1-.2 0-.3.1-.3.2-.2.3 0 .4-.1.2-.5.2-.2.4.1.1.2 0 .3.1.1.1 0 .2-.1.3.1.1.2.1.3.1 0 .1-.1.2-.1.2.1.1.3 0 .4-.1.1-.2-.2-.2-.2-.4"/><path fill="#FFF" stroke="#050606" stroke-width=".25" d="M75.1 36.7s0 .1.3 0l.6-.2s-.3.2-.4.2c-.1 0-.3.2-.4.1-.2.1-.1-.1-.1-.1zm2.9-.2c-.2.2-.8.4-1.1.3 0-.1.4-.2.6-.2.2 0 .4-.1.5-.1m-1-.6c-.1.1-.8.1-.6 0 .1-.1.3 0 .4 0 .1 0 .3-.1.4-.1-.1 0-.2.1-.2.1" opacity=".13"/><path fill="none" d="M74.4 38.1c.1 0 .1.1.2.2l.2.2c.2.1.3.2.5.3.2.1.3.1.5.1h1.6c.1 0 .2 0 .2-.1.2-.1.3-.2.4-.3l.2-.2c.1-.1.2-.1.1 0 0 .1 0 .1-.1.2 0 .1-.1.1-.1.2-.1.1-.1.3-.3.4-.1.1-.3.1-.5.1s-.3 0-.5.1c-.2 0-.3.1-.5.1h-1.6c-.2-.1-.4-.1-.6-.2-.2-.1-.2-.3-.1-.5.4-.3.4-.4.4-.6"/><path fill="#070808" d="M74.6 38c0 .2.1.3.2.5.2.2.4.2.6.3h1.3c.4 0 .5-.1.9-.2.2 0 .4-.1.5-.2.1-.1.3-.2.4-.4v-.2c.1 0 .1.1.1.1 0 .1 0 .1-.1.2 0 .1 0 .2-.1.2 0 .1-.1.1-.1.2s0 .1-.1.1c0 .1 0 .2-.1.2 0 .2-.1.3-.1.3-.2 0-.2.1-.3.1-.1 0-.3 0-.3.1H77c-.2 0-.4 0-.6.1h-.5c-.2 0-.5 0-.7-.1-.2-.1-.3-.1-.5-.2-.1 0-.3-.2-.3-.3 0-.1 0-.2.1-.3 0-.1.1-.2.1-.3-.2-.1-.2-.2 0-.2" opacity=".19"/><path fill="#050606" stroke="#050606" stroke-width=".25" d="M76.2 39v.2c.1.1.2.1.3.1.2 0 .3-.1.4-.2.1-.1.4-.2.3 0 0 .1-.1.3-.2.4-.2.1-.3.1-.5.1-.1 0-.4 0-.5-.1-.1-.1-.1-.3-.1-.4 0-.2.1-.2.3-.1 0-.1-.1-.1 0 0-.1 0-.1 0 0 0m.2-.4c.1 0 .1 0 0 0 .3 0 .4 0 .6.1 0 0 .2.1.1.1 0 .1-.1 0-.2 0s-.2-.1-.3-.1c-.2 0-.4.1-.7.1-.2 0-.1-.1 0-.1.3 0 .4-.1.5-.1"/><path fill="#FFF" d="M134 110.3c0-.1.9-4 1.1-4.2.2-.2 1.1-.8 1.6-.8s.9.6.9.6 2.5 2.8 2.5 3.1c0 .3-.6 2.7-.6 2.7s-.4.1-1.2.1c-.8 0-2.3.2-2.7.2-.3 0-1.7-.9-1.8-1.1 0-.2.2-.6.2-.6z"/><path fill="none" d="M140.2 109h-.9c-.5 0-1.2.2-1.2.2m1.4 2.5l-.8-1-1.1-.2m1.9 1.2c-.2-.1-.6-.2-1-.2m1.5-2.4c0 .4-.2.7-.8.7"/><path fill="#ECECEE" d="M125 105.6s-.5-.5-.5-.7v-.4l-.5-.1s.2 1.7.3 1.7c.2 0 .4.2.5.1.2 0 .2-.6.2-.6z"/><path fill="#FFF" d="M125.6 104.6s-.5 1.6-.9 1.5c-.5-.1-.4-1.1-.4-1.3 0-.1-.2-.5-.4-.3s-1.3 2.5-1.3 3.1c0 .8-.2 2.2 0 2.3.2.1 1.9.5 3.1.4 1.2-.1 2.6-.2 2.9-.4.3-.3.7-.7.6-1.1-.2-.3-1-2.1-1.3-2.7-.4-.5-1.1-1.6-1.2-1.7-.1-.1-.2-.2-.5-.1s-.6.3-.6.3z"/><path fill="#F5F2F0" d="M126.8 105.8s0 .2-.3.1-.5-.3-.6-.4c-.1-.2-.2-.6 0-.7.2-.1.6-.3.7-.2.1.1.2.4.2.5v.7z" opacity=".23"/><path fill="#FFF" d="M128.2 110s-.6-.1-1-.5m.4-1.4c.5.1 1.1-.1 1.1-.1s-.4 0-.7-.2"/><path stroke="#000" stroke-width=".25" d="M128.5 96.9c0 .4-.3 1.3.1 1.6.4.3 1.6-.1 2-.3.4-.1.6-.3 1-.3s.7.3 1 .1c.4-.2.5-1.4.5-1.7-.7-.2-2-.1-2.7 0-.5 0-1 .2-1.5.4-.6.3-.8.3-.4.9"/><path fill="#1E1B55" stroke="#1E1B55" stroke-width=".25" d="M132.4 97.7h-.7l.2-1.5-2.3.5s0 3 .4 3 1.5-1.3 1.7-1.4c.2 0 .7-.6.7-.6z"/><path fill="#E9BA8B" stroke="#CB905E" stroke-width=".25" d="M132.9 106.7l-.4 1.1s.1 2-.1 2.4c-.2.4-.9 4.5-1.2 4.9-.3.4-.7.4-.7.4l-.5-.7s.4-2.8.4-3.1c0-.4.4-3 .4-3.2 0-.3-.1-1.7-.1-1.7s1.2-.1 1.4-.2c.3-.1.8.1.8.1z"/><path fill="#E9BA8B" stroke="#CB905E" stroke-width=".25" d="M132.2 115.3s1.3-.6 1.2-.9c-.1-.3-1.3-2.9-1.3-2.9s-1.8-3.9-1.8-4.3.4-.3.4-.3 2.1 2.9 2.3 3.7c.2.8 1.5 3.7 1.5 3.7s-.3.6-.4.9c-.1.3-.8.6-.9.6-.1-.2-1-.5-1-.5z"/><path stroke="#000" stroke-width=".25" d="M133.5 111.7l-1.1.4-2.3-5.2-.4-.7-.6-2-.1-.7.6-.3 1.9.3 1 5.4zm-2.9 3.8l-2.4-.5s-.6-1.9.1-1.9 2.3 2.4 2.3 2.4z"/><path fill="#1E1B55" stroke="#1E1B55" stroke-width=".25" d="M134.7 114.2s-.2 1.3-.4 1.3c-.3 0-1.7.3-2 0-.3-.2-.5-.5-.3-.7.1-.1.7-.3.9-.2.2.1.6.3.8.3h.4s.4-.8.4-.9l.2.2z"/><path fill="#ECECEE" d="M137.8 106.4s0 .5-.2.6c-.2.1-.5.1-.7.1-.2 0-1-.4-1-.4s.9-.5 1.1-.5c.2 0 .8.2.8.2z"/><path fill="#E9BA8B" stroke="#CB905E" stroke-width=".25" d="M126.4 105.3s-.3.2-.3.8c0 .6.2.3-.1.2-.3-.1 0-.9 0-1.2 0-.3.2-.9.2-.9s.4-1.9.9-3.4 1.1-2.2 1.3-2.3c.3-.1.2.9.2 1.2 0 .3.1.6.1.6s-1.7 2.5-1.5 3.3c.2.8.4 2.1.4 2.4m10.7.5s-1.4-.7-1.5-.9c-.1-.2-.3-2.2-.4-3.3-.1-1-2.3-3.8-2.7-4.1-.5-.4-.6-.6-.6-.6s-.7.7-.5 1.2c.2.4.5 1 1.1 1.6.5.5.9.9 1.3 1.6.4.6.7 3 .7 3.3 0 .3.2 1.9.8 1.9.6 0 0-.7 0-.7s.5.7.8.7c.3 0 0-.7 0-.7s.2.5.7.4c.6-.2.6-.3.3-.4z"/><path fill="#FDD9B6" d="M127 105.8s0 .6-.2.6c-.1 0-.4.1-.4-.1v-.8c0-.1-.2.8-.4.8s-.5.1-.4-.5c.1-.6.3-.8.3-.8s-.4.9-.5.9c-.1 0-.7.2-.5-.1.2-.3.4-.6.7-.9.2-.2.3-.4.5-.5"/><path stroke="#000" stroke-width=".25" d="M134 103.3s.7 2.3 0 2.7c-.5.3-1.9 5.4-2 6.2-.1.8-1.8.3-1.8.3s.6-2.4.6-3.3c.1-.8.2-2 .3-2.5.1-.5.1-1.3.1-1.3s.1-.6 0-1.1c-.1-.5.3-.9.3-.9l2.5-.1z"/><path fill="#1E1B55" stroke="#1E1B55" stroke-width=".25" d="M133.2 97.5l-.9-.5s-1.9 2.1-2.3 2.1c-.4 0-.3-1.6-.3-1.6l-.8.3s-.5 1.3-.3 2c.3.6 1.2 1.1 1.2 1.5 0 .3-.4 1-.4 1s-.2.5-.2.7c0 .2-.2.8-.2.8s1.3.4 2.5.4 2.7-.2 2.7-.2 0-.7-.4-1.2-.1-2.5-.1-2.5-.4-.4-.7-.8c-.2-.3-.3-1.1-.1-1.3.1-.4.3-.7.3-.7z"/><path fill="#FDD9B6" d="M127.5 105.4s.2.7.2.9"/><path fill="#26225A" d="M131.3 114.9s-.5.4-.6.3h-.2s.1.3.2.3.3-.1.4-.2c.1 0 .1-.1.2-.2v-.2z"/><path fill="#1E1B55" stroke="#1E1B55" stroke-width=".25" d="M130.6 115.2c-.4-.4-1.3-2.8-2.4-2.1.9.5 1.6 1.3 2.2 2.1m4.4-.9c0 .4.2.8.2 1.1-.8.3-.3-.9-.2-1.1m-3.5.7c0 .4-.1.7-.3 1.1h-.7c0-.2 0-.4-.1-.7.3.2.6.1.8-.2m-3.8-11.5h-.6l-.3-.4s.4-1.8.7-2.6c.3-.8.6-2 .8-2.1.3-.1.5-.3.5-.3l.3 1.7s-.5.8-.7 1c-.1.2-.7 2.7-.7 2.7z"/><path fill="#E9BA8B" stroke="#CB905E" stroke-width=".25" d="M134.2 93.5s.1 1.8-.1 2.1c-.2.3-.9.9-2.4 1.2-.8.2-1.3.2-1.6.2-.4 0-.6-.1-.9-.1-.6 0-1.4-.7-1.8-1-.4-.3-.7-1-.7-1.5-.1-.5-.2-1.1-.1-1.2.1-.1.2-1.6.2-1.9 0-.7 2.6-1.4 3.6-1.4.9 0 3.5 1.4 3.7 1.7.1.3.1 1.9.1 1.9z"/><linearGradient id="H" x1="-1440.929" x2="-1438.754" y1="95.353" y2="95.353" gradientTransform="matrix(-1 0 0 1 -1312.217 0)" gradientUnits="userSpaceOnUse"><stop offset="0" stop-color="#ec1475"/><stop offset="1" stop-color="#fff5cb"/></linearGradient><ellipse cx="127.6" cy="95.4" fill="url(#H)" opacity=".18" rx="1.1" ry=".7"/><path fill="#030305" stroke="#000" stroke-width=".25" d="M128.4 94c0 .1.1.2.2.2s.2-.1.2-.2-.1-.2-.2-.2-.2.1-.2.2z"/><circle cx="130.9" cy="94" r=".2" fill="#030305" stroke="#000" stroke-width=".25"/><linearGradient id="I" x1="-1443.57" x2="-1446.199" y1="95.361" y2="95.361" gradientTransform="matrix(-1 0 0 1 -1312.217 0)" gradientUnits="userSpaceOnUse"><stop offset="0" stop-color="#ec1475"/><stop offset="1" stop-color="#fff5cb"/></linearGradient><ellipse cx="132.7" cy="95.4" fill="url(#I)" opacity=".18" rx="1.3" ry=".9"/><path stroke="#000" stroke-width=".25" d="M130 91.4c1.7-.2 3.1.6 3.9 1.8.9 1.2-.6 1.5-.7 2.6-.1.5 0 .8-.5 1.1-.5.3-1.2 0-.9.8.1.2.3.3.4.6.1.2 0 .5 0 .8.1.6.4.9.8 1.3.3-.7-.1-1.3-.2-1.9 0-.4.1-.7.6-.9.5-.1.7.4 1.2.3.3-.8.1-1.8.3-2.7.4-1.3.4-2.8-.7-3.8-.9-.8-2.5-1.3-3.8-1.2"/><path fill="#E9BA8B" stroke="#B17C54" stroke-width=".25" d="M130 94.8s-.3-.5-.5-.4c-.2.1-.2.4-.2.4"/><path stroke="#000" stroke-width=".25" d="M131.5 91.3c-.5.3-.8.9-1.5 1.2-.6.3-1.2.4-1.9.5-.2 0-.8.1-1 .2-.4.4 0 .4 0 .8 0 .6-.2 1.1.2 1.6s1 .7 1.2 1.3c.2.6-.2 1-.1 1.6 0 .2 1 1.7 0 1.3-.4-.1-.6-1.4-.7-1.7-.3-1.2-1.1-2.1-1.8-3.2-.6-.8-.3-2.3.1-3.2.6-1.3 1.7-1.7 3.2-1.8.6 0 1.3-.2 1.8 0 .8.3.8 1 .2 1.5"/><path stroke="#000" stroke-width=".25" d="M131.4 91.6c0-.1 0-.1.1-.1.7.1 1.1.7 1.5 1.2-.4-.1-1.5-.8-1.7-1m1.7.4c1.1.9 1.6 2.2.4 3.2-.3-.8 1.3-2.5 0-3.2"/><path fill="#1E1B55" stroke="#1E1B55" stroke-width=".25" d="M136.7 105.4l-1-.3s-.4-2.6-.5-3c-.2-.3-1.6-2-1.6-2s-.5-.6-.7-.9c-.2-.3-.2-1.3-.2-1.3s.2-1 1.3.4 2.3 3.2 2.4 3.5c0 .5.2 3.9.3 3.6z"/><radialGradient id="J" cx="-1239.771" cy="630.797" r=".591" gradientTransform="matrix(-.4694 0 0 .406 -450.472 -158.777)" gradientUnits="userSpaceOnUse"><stop offset="0" stop-color="#58aeca"/><stop offset=".348" stop-color="#66b1ca"/><stop offset="1" stop-color="#8ab9cb"/></radialGradient><ellipse cx="131.4" cy="97.3" fill="url(#J)" rx=".3" ry=".2"/><radialGradient id="K" cx="-1239.434" cy="632.44" r=".593" gradientTransform="matrix(-.4694 0 0 .406 -450.472 -158.777)" gradientUnits="userSpaceOnUse"><stop offset="0" stop-color="#58aeca"/><stop offset=".348" stop-color="#66b1ca"/><stop offset="1" stop-color="#8ab9cb"/></radialGradient><ellipse cx="131.3" cy="97.9" fill="url(#K)" rx=".3" ry=".2"/><radialGradient id="L" cx="-1239.138" cy="634.892" r=".592" gradientTransform="matrix(-.4694 0 0 .406 -450.472 -158.777)" gradientUnits="userSpaceOnUse"><stop offset="0" stop-color="#58aeca"/><stop offset=".348" stop-color="#66b1ca"/><stop offset="1" stop-color="#8ab9cb"/></radialGradient><ellipse cx="131.1" cy="98.9" fill="url(#L)" rx=".3" ry=".2"/><radialGradient id="M" cx="-1238.032" cy="638.514" r=".593" gradientTransform="matrix(-.4694 0 0 .406 -450.472 -158.777)" gradientUnits="userSpaceOnUse"><stop offset="0" stop-color="#58aeca"/><stop offset=".348" stop-color="#66b1ca"/><stop offset="1" stop-color="#8ab9cb"/></radialGradient><ellipse cx="130.6" cy="100.4" fill="url(#M)" rx=".3" ry=".2"/><radialGradient id="N" cx="-1238.312" cy="640.005" r=".594" gradientTransform="matrix(-.4694 0 0 .406 -450.472 -158.777)" gradientUnits="userSpaceOnUse"><stop offset="0" stop-color="#58aeca"/><stop offset=".348" stop-color="#66b1ca"/><stop offset="1" stop-color="#8ab9cb"/></radialGradient><path fill="url(#N)" d="M130.4 101c0 .1.1.2.3.2.2 0 .3-.1.3-.2s-.1-.2-.3-.2c-.1 0-.3.1-.3.2z"/><radialGradient id="O" cx="-1237.399" cy="636.18" r=".594" gradientTransform="matrix(-.4694 0 0 .406 -450.472 -158.777)" gradientUnits="userSpaceOnUse"><stop offset="0" stop-color="#58aeca"/><stop offset=".348" stop-color="#66b1ca"/><stop offset="1" stop-color="#8ab9cb"/></radialGradient><ellipse cx="130.3" cy="99.4" fill="url(#O)" rx=".3" ry=".2"/><radialGradient id="P" cx="-1235.693" cy="634.81" r=".593" gradientTransform="matrix(-.4694 0 0 .406 -450.472 -158.777)" gradientUnits="userSpaceOnUse"><stop offset="0" stop-color="#58aeca"/><stop offset=".348" stop-color="#66b1ca"/><stop offset="1" stop-color="#8ab9cb"/></radialGradient><ellipse cx="129.5" cy="98.9" fill="url(#P)" rx=".3" ry=".2"/><radialGradient id="Q" cx="-1235.296" cy="632.624" r=".593" gradientTransform="matrix(-.4694 0 0 .406 -450.472 -158.777)" gradientUnits="userSpaceOnUse"><stop offset="0" stop-color="#58aeca"/><stop offset=".348" stop-color="#66b1ca"/><stop offset="1" stop-color="#8ab9cb"/></radialGradient><path fill="url(#Q)" d="M129 98c0 .1.1.2.3.2.2 0 .3-.1.3-.2s-.1-.2-.3-.2c-.1 0-.3.1-.3.2z"/><radialGradient id="R" cx="-1234.337" cy="630.865" r=".591" gradientTransform="matrix(-.4694 0 0 .406 -450.472 -158.777)" gradientUnits="userSpaceOnUse"><stop offset="0" stop-color="#58aeca"/><stop offset=".348" stop-color="#66b1ca"/><stop offset="1" stop-color="#8ab9cb"/></radialGradient><ellipse cx="128.9" cy="97.3" fill="url(#R)" rx=".3" ry=".2"/><path fill="none" stroke="#696" stroke-miterlimit="10" stroke-width="2" d="M.2.1h219.6v128.1H.2z"/><path fill="#996733" d="M179.2 25.4c0-3.4.5-7.8 1.9-11h.6c.2 3.6-1 7.6-.4 11.2"/><linearGradient id="S" x1="456.949" x2="474.945" y1="13.204" y2="13.204" gradientTransform="translate(-285.1)" gradientUnits="userSpaceOnUse"><stop offset="0" stop-color="#67682c"/><stop offset="1" stop-color="#96c867"/></linearGradient><path fill="url(#S)" d="M180.2 17c-.7.8-2.3 1.3-3 .2.1-.2.3-.3.4-.4-.3 0-.7-.1-1 0 .1-.7.1-1.3.6-1.8-1.1-.1-3.6.5-3.3-.9-.9.1-1.6-.2-2-.8.3-.7.9-1 1.8-1 .1-.2 0-.5.1-.8.2-.1.5.1.6-.1.2-1.2.8-2.6 2.5-2.2.3.9.5.6 1.2 1 .1-.5.3-.5.5-.8 1.6.8 6.3-2.4 6.3.2.5-.2 1.3 0 1.8-.1 0 .3.1.7.1 1 1.3-.2 2.3.4 2.1 1.6.4 0 .7.2 1.1.3.2 1.3-.4 3.1-2.2 2.8.7 3.6-5.3 2.8-7.2 1.6"/><path fill="#CCC" stroke="#989898" stroke-width=".5" d="M183.4 61.7l35.5-9-.1 2.2-.8.1v-1.1l-8.5 2 .1 1.5-1.2.3-.1-1.3-9 2.3v1.5l-1.2.5v-1.6l-14.9 4.1.2-1.5"/><linearGradient id="T" x1="87.233" x2="72.294" y1="79.129" y2="39.529" gradientUnits="userSpaceOnUse"><stop offset="0" stop-color="#cccbcb"/><stop offset="1" stop-color="#989898"/></linearGradient><path fill="url(#T)" stroke="#989898" stroke-width=".5" d="M.8 121.6s113.3-41.4 126.3-44.9 57.1-15.1 57.1-15.1l.2 4-1.2-.1-.1-2.3-9 2.2V68l-1.3.4.1-2.2-13.5 3.8-.3 2.2-1.5.7.3-2.4-14 3.5-.3 2.7-1.3.7-.3-2.7-14.2 3.3.5 3.5-1.3.5-.8-3.3-16 5.5.8 4.2-1.8.4-.8-4.2-16.3 6 1.5 4.4-1.5.7-1.5-4.7-18.3 6.4.8 5.8-1.5.4-1.5-5.5-19.3 7.1.8 6-2.3 1.1-1.5-5.8-17.5 6.9 1.3 6-2.5 1.1-1.5-5.8-20 7.3 1 5.7-3.3-.1-.8-4.4-3.8 1.3.1-2.9z"/></g></switch></svg>
