<svg xmlns="http://www.w3.org/2000/svg" version="1.0" viewBox="0 0 220 129"><switch><g><path fill="#B6DFFC" d="M0 0h220v42H0V0z"/><path fill="#0965AC" d="M0 38.2h220V129H0V38.2z"/><path fill="#F9FCFF" d="M190.7 48.1c-13.3 0-26.4.5-40.3.6-12.6.1-33 1.1-43.2.9-13.6-.2-16-1.9-31.9-2.3-20.4-.5-28.1.4-16.9 2-14.7 1-40.6-.8-55.9-1.1 11.9-1.8 33.3-.7 52.5-.7 22 0 34.2-.5 53.9-1.2 22.1-.8 30.5-.7 53.3-.6 6.6 0 19.7-.5 25-.1 7.8.5 5.7 1.9 5.1 2.2m7.3 22.7c-11-.5-37.5-1-50.5-.8-8.3.1-12.9.9-23.6.9-8.9 0-15-.5-25-.4 5-.7-41.3-.5-50.4-.6-8.6-.1-24.7-.7-23.4.6 1.1 1 20.3.8 29.4.8-30.2 2.1 11.9.7 27.9.8 11.6.1 18.3.6 31.2.5 12-.1 19.7-.6 32.3-.5 11.9.1 55.4 1.3 58.8-.5 2.8-1.4-40.6-.9-49-1.5m44 35.5c-5.7-.8-11.1-.2-16.3-.9-2.9-.4-3.2-.8-7.9-.6-4 .1-7 .6-11 .9-7.6.4-12.4-.5-19.4-.4-1 0-2.6.2-3.1.2-.9 0-3.2-.4-3.2-.4-3.3.2-4.6.8-3.9 1.6 3.2.2 17.8-1.2 14.1.8 8.2.2 16.7-.9 24.8-.5-1.7.3-7 .2-9.7.4-1.2.1-2 .3-3.9.5-1.5.1-3.3.2-5 .2-1.6 0-3.8-.2-5.1-.1-2.4.1-2.8.5-4.9.8-3.7.4-6.4.4-8.4-.5-5.6-.4-6.5.7-7.3 1.6 3.9 0 6.8-.2 9.8-.3 4.6-.1 7.6.3 11.5.3s6.6-.4 10.2-.6c1.6-.1 4 .1 5.4 0 2.5-.2 1.8-.5 3.2-.7 3.1-.4 5.9-.4 10.2-.4 4.5 0 6.9-.4 11-.5 3.2-.1 8.5.3 11.2-.1 3-.5.8-1.5 6.8-1.5-2.2-.9-7.2 0-10.7 0M53.4 121.7c-3.8-.9-6 0-9.7 0s-7-.9-10.7-1c-6.9-.1-13.4 2-20.3 1.2-.9 2 9 .8 11.9 1-.7 2.8 10.2 1.5 14.2 1.5 1.9 0 16.3.2 11.9-1.8" opacity=".16"/><path fill="#FFF" d="M83 10c1.9-2.7 3.2-3.2 6.5-2 3.5 1.2 4.5 4.2 6.7.6 1.6-2.5 1.5-5.3 5.6-4.1 3 .8 1.9 1.8 2.6 4.1 1.6-.3 6.9-2.6 5.7.7 1.5-.1 2.6.6 2.2 2 2.4.2 5.7-1.8 7.8-1.1 3.2 1 1.4 3.6-.4 5.1-2.7 2.3-4.7.3-7.5 2.4-1.3.9-.8 2.4-2.4 2.8-1.5.4-2.8-.5-2.9-1.9-.6.2-1.7-.1-2.2.1-.3-1.5-.1-3-.7-4.3-.9 1.5-1.9 2.8-3.7 2.2-1 1.4-2.6 4.3-4.8 3.5-1.6-.6-2.1-2.9-1.5-4.2-1.2-1-2.3-.2-3 .8-.9-2.3-2.4-1-3.8-1.9-.8-.5-1.5-2.2-2.4-2.9-2.2 1.6-4-.5-1.8-2.3m96.4 7.2c1.6-2.2 2.7-2.6 5.5-1.7 2.9 1 3.7 3.5 5.6.5 1.3-2.1 1.2-4.4 4.7-3.5 2.6.7 1.6 1.5 2.2 3.5 1.4-.2 5.8-2.2 4.8.6 1.3-.1 2.2.5 1.9 1.7 2 .1 4.8-1.5 6.5-.9 2.7.9 1.2 3-.3 4.3-2.3 1.9-3.9.3-6.3 2-1.1.8-.6 2-2 2.4-1.3.3-2.3-.4-2.5-1.6-.5.2-1.4-.1-1.8.1-.2-1.3 0-2.6-.6-3.6-.7 1.2-1.6 2.4-3.1 1.8-.8 1.2-2.2 3.6-4 2.9-1.3-.5-1.8-2.5-1.3-3.5-1-.8-2-.2-2.6.7-.8-1.9-2-.8-3.2-1.6-.7-.4-1.3-1.9-2-2.4-1.8 1.4-3.3-.4-1.5-1.9m-140.3 8c-1.1 2.4-2.1 3-4.8 2.5-2.9-.5-4.1-2.9-5.3.3-.9 2.2-.5 4.5-3.8 4-2.5-.3-1.8-1.2-2.6-3-1.2.4-5 3-4.6.1-1.2.3-2.1-.2-2-1.4-1.9.2-4.2 2.1-5.9 1.8-2.6-.5-1.6-2.8-.4-4.2 1.8-2.2 3.6-.8 5.5-2.8.9-.9.3-2.1 1.5-2.6s2.2 0 2.6 1.2c.4-.2 1.4-.2 1.7-.3.4 1.2.4 2.5 1.1 3.4.5-1.3 1.1-2.5 2.6-2.2.6-1.3 1.5-3.8 3.3-3.4 1.3.3 2 2.1 1.8 3.2 1.1.6 1.9-.1 2.3-1 1 1.8 2 .5 3.3 1.1.7.3 1.5 1.6 2.3 2 1.5-1.6 3.2 0 1.7 1.7" opacity=".75"/><path fill="#F5E0B1" d="M16.3 78.3l1.6 2.6s24.7-1.2 36.4-2.6c11.8-1.4 45.9-7.2 68.6-16.6s32.5-18.7 35.1-26 5.1-23.2 4.7-24.2c-.4-1-6.7 3.2-12.1 5.7s-24 10.1-33.4 13.7-19.8 7-32.1 14.2-33.7 20.3-36.3 21.5c-2.5 1.2 1-.2-6.3 2.8s-7.3 4-13.9 5.6-12.3 3.3-12.3 3.3z"/><path fill="#C26C1C" d="M151.8 18.9h8.2s.8 2.3-4.1 11.6c-4.9 9.3-7.5 17.3-23.7 24.1s-28 10.8-45.7 14.8-31.4 7.2-31.6 6.6c-.2-.6-5.3-5.8-6.1-5.8-.8 0 47.6-29.1 61.7-34.3s39.3-17 41.3-17z"/><path fill="#960" d="M76.5 70.2s16.3-14.9 30.6-21.4 28.8-9.5 33.5-10.7c4.7-1.2 12.1-1.4 12.1-1.4s-4.3 7-6.2 8.8-10.2 7.4-14.4 9.1c-4.2 1.7-13.9 5.6-18.4 7.1-4.6 1.5-33.1 9-34.7 9.4s-2.5-.9-2.5-.9z"/><path fill="none" stroke="#A75525" stroke-miterlimit="10" d="M150.6 19.2c.6 1.1 2.1 12.3 2.1 12.3h2.7l4.5-12.8-9.3.5z"/><path fill="#D09E34" d="M153.9 22.8s-18.6 6-25.3 9-13.2 5.3-18.6 7.6-17 8.7-21.4 11.4C84.3 53.5 69.6 63 67.5 65c-2.2 2-10.2 7.3-11.4 9.1-1.2 1.8-3.4-.7-3.4-.7S68.6 62 71 60.3c2.4-1.8 21.7-13.9 26.6-16.5 4.9-2.6 17.6-7.9 25.7-11.3s24.9-9.7 26.5-9.7 4.1-1.8 4.1 0z"/><path fill="#D09E34" d="M82.5 55.7c.6.2 23.8 8.2 23.8 8.2L92 67.7l-19.3-6 9.8-6zm50.8-23.9c.6.1 19.4 3.9 19.4 3.9l2.7-3.9-15.6-2.5-6.5 2.5zm-33 8.8l4.1-1.2 38 9.2-3.4 2.2z"/><path fill="#C26C1C" d="M157 37.9s-2.3 14-10.4 20-32.1 22.2-40.2 25.2c-8.2 3-42.8 18.4-46.8 19.6-3.9 1.2-18.4 8.3-21.8 9.7-3.3 1.4-10.4 4.3-12.9 4.2s-7.6-8.4-7.6-8.4c-2-3.6-1-28.9-1-28.9s.4 1.7 7.7 1.3 21.5-1.4 24.8-1.7c3.3-.3 31.5-4.9 34.4-5.6s22.5-5.6 25.9-6.7c3.4-1.1 22.9-8.8 26.7-10.9 3.8-2.1 17.9-12.3 21.2-17.8z"/><path fill="#A75525" stroke="#A75525" stroke-miterlimit="10" d="M16.3 78.3l1.6 2.6s-1.2 19.8-.8 22.4 2.2 9.5 5.3 11.3 1 2.2 0 2c-1-.2-6.5-3.4-7.1-11.9-.6-8.6 1-26.4 1-26.4z"/><path fill="#A75525" stroke="#A75525" stroke-miterlimit="10" d="M17.2 95.3S59.7 84 70.8 80.9s34.7-10.1 37.6-11.3c2.9-1.2 35.9-17.7 38-18.7 2.2-1.1 7.7-8.8 7.4-8.4s-.6 9.3-14.7 16.4-45.6 21.4-57.7 24.6-48.6 13.4-54.1 15-7.8 3-9 2.8c-1.3-.2-1.1-6-1.1-6z"/><path fill="#D09E34" d="M17.2 97.5s47.9-13 49.7-13.4c1.8-.4 35.2-10.9 36.4-11.3 1.2-.4 39.6-17.8 41.1-18.8s4.5-5.2 4.8-5.5c.3-.3-.4 3.7-.9 4.2s-6.2 5-12.2 7.9c-6 2.9-12.5 6.7-14.7 7.3-2.1.6-9.1 3.8-13.3 5.6s-12.6 4-15.5 5c-2.9 1-19.2 6.3-23.3 7.1s-51.9 14-51.9 14l-.2-2.1z"/><path fill="#006" d="M143.9 58.4c6.3-5.1 10.8-11.7 13.2-19.6 2.3 3.7 1.5 8.6.2 12.7-5.5 17.4-16 34.8-32.2 42.9-35.5 17.9-60.8 30.3-81.4 27.3-25.7-3.7-9-8-9-8 7.2-5.3 3.7.4 10.8-4.8 2.8-2 7.6-3.1 10.6-4.8 4.5-2.6 13.2-7.4 18.1-9.2 25.5-9.7 48.6-19.3 69.7-36.5z" opacity=".4"/></g></switch></svg>
