<svg xmlns="http://www.w3.org/2000/svg" version="1.0" viewBox="0 0 48 103.6"><switch><g><linearGradient id="a" x1="7.083" x2="16.749" y1="410.838" y2="410.838" gradientTransform="rotate(16.824 1142.922 300.673)" gradientUnits="userSpaceOnUse"><stop offset="0" stop-color="#ccdd60"/><stop offset="1" stop-color="#659941"/></linearGradient><path fill="url(#a)" stroke="#659941" stroke-miterlimit="10" stroke-width=".25" d="M32.5 79.1c-2.2-1-2.2-4.8-4.5-5.1-1.9-.2-3.9 2.5-4.4 4.1-.7 2.1.5 3.6 2.5 4.6 1.7.9 4.6-.3 5.6 1.3-1-2.1-9.7-1.4-7-6.6 1.4-2.7 2.5-.1 3.2 1.3 1 1.9 2.7 2.5 4.7 3.1"/><linearGradient id="b" x1="16.336" x2="22.774" y1="408.702" y2="408.702" gradientTransform="rotate(16.824 1142.922 300.673)" gradientUnits="userSpaceOnUse"><stop offset="0" stop-color="#ccdd60"/><stop offset="1" stop-color="#659941"/></linearGradient><path fill="url(#b)" stroke="#659941" stroke-miterlimit="10" stroke-width=".25" d="M33.3 78.7c1.4-1 1.6-3.2 3.1-4 1.9-1 3.5.5 3.6 2.4.2 4.9-5.5 2.8-6.6 6.1.4-2.8 3.9-1.8 4.2-4 .4-2.6-3.2.5-4.7-.1"/><linearGradient id="c" x1="10.804" x2="14.225" y1="385.481" y2="385.481" gradientTransform="rotate(16.824 1142.922 300.673)" gradientUnits="userSpaceOnUse"><stop offset="0" stop-color="#ccdd60"/><stop offset="1" stop-color="#659941"/></linearGradient><path fill="url(#c)" stroke="#659941" stroke-miterlimit="10" stroke-width=".25" d="M33.3 63.5c1-3.4 3.4-5.4 4.7-8.6 1.1-2.6 2-7.7-.6-9.6-.4 1.1.4 2 .4 3.2 0 1-.4 2.5-.8 3.5-1.2 2.9-4 4.4-3.1 8"/><linearGradient id="d" x1="3.969" x2="19.602" y1="405.394" y2="405.394" gradientTransform="rotate(16.824 1142.922 300.673)" gradientUnits="userSpaceOnUse"><stop offset="0" stop-color="#ccdd60"/><stop offset="1" stop-color="#659941"/></linearGradient><path fill="url(#d)" stroke="#659941" stroke-miterlimit="10" stroke-width=".25" d="M29.3 102.5c2.7-12.2 3.2-16.3 4.1-24.7.7-6.1 1.7-11.7 1.2-17.9-.2-3 .1-5-.4-7.9-.3-1.8-.6-5.1-1.4-8l-2.2.3s2.5 8.1 1.7 17.8c-.8 9.7-3.3 29.1-4.7 37.6 1.7 6.1-.1 3.4 1.7 2.8z"/><linearGradient id="e" x1="-31.828" x2="-17.33" y1="353.814" y2="353.814" gradientTransform="rotate(16.824 1142.922 300.673)" gradientUnits="userSpaceOnUse"><stop offset="0" stop-color="#f06667"/><stop offset="1" stop-color="#f59698"/></linearGradient><path fill="url(#e)" stroke="#CC3232" stroke-miterlimit="10" stroke-width=".25" d="M13.4 12.5c-2.9-.2-4.1-2.9-6.7-3.4-.4 1.5-1 .4-1.7.9-.2.1-.9-.2-1.3 0-.6.4.1.8-.1 1-.9 1.5-.5 3 1.1 4.3 3.4 2.8 8.5-.9 11.6 2.3"/><linearGradient id="f" x1="-5.954" x2="-6.294" y1="362.026" y2="319.372" gradientTransform="rotate(16.824 1142.922 300.673)" gradientUnits="userSpaceOnUse"><stop offset="0" stop-color="#f06667"/><stop offset="1" stop-color="#f59698"/></linearGradient><path fill="url(#f)" stroke="#CC3232" stroke-miterlimit="10" stroke-width=".25" d="M23.6 10.9c-.9 2.2-.5 5.1.4 7 .9 1.9 1.7 2 3.9 1.9 3.8-.1 8.4-1.2 10.6-5 1.2-2 .6-3.9.7-5.9.1-1.8.9-3.6 0-5.4-1.2-2.3-2-1.5-3.8-.9-.9.3-2.9 1.7-2.3-1.2-1.5-1-2.3.3-3.5.8-.9.4-1.7-1-2.5 1.2-.6 0-.8-.3-1.1-.6 0 0-2.1-2.6-3.9 2.7"/><linearGradient id="g" x1="-24.623" x2="-8.687" y1="346.939" y2="346.939" gradientTransform="rotate(16.824 1142.922 300.673)" gradientUnits="userSpaceOnUse"><stop offset="0" stop-color="#f06667"/><stop offset="1" stop-color="#f59698"/></linearGradient><path fill="url(#g)" stroke="#CC3232" stroke-miterlimit="10" stroke-width=".25" d="M15.4 15.7c-.8-1.8-2.6-2.7-3.2-4.8-.3-1.1-.6-6.6 1.1-4.1 1.1-1 .6-2.6 1.2-3.9.3-.6.4-1 1.1-1.3 1.2-.5 1.1.6 1.7.5 1.5-.1 6.2-2.7 5.2 1 3.2.7 2.6 3.2 1.1 5.6 3.2-.7.6 3.3.2 4.8-.8 2.7.6 3.8 1 6.2-1.8-.2-7-1.7-7.5-3.2"/><linearGradient id="h" x1="1.251" x2="11.906" y1="348.734" y2="348.734" gradientTransform="rotate(16.824 1142.922 300.673)" gradientUnits="userSpaceOnUse"><stop offset="0" stop-color="#f06667"/><stop offset="1" stop-color="#f59698"/></linearGradient><path fill="url(#h)" stroke="#CC3232" stroke-miterlimit="10" stroke-width=".25" d="M36.2 23.4c2.1.9 9.5.3 9.8-2.7-.3-.1-.7-.3-1-.4 1-1.4 1.5-2.7 1.8-4.6-.3-.1-.7-.3-1-.4.3-.7.1-1.3.3-2-1.4-.1-1.1-1.1-1.8-1.5-.8-.5-1.2-.8-2.4-.9-1.8-.3-.7-.6-2 .3L38.1 13c-.5.9.1 1.4-.2 2.4-.2.7-1.1 1.3-1.4 2.2-.7 2-.1 3.4-2.1 4.8"/><linearGradient id="i" x1="-32.109" x2="-12.799" y1="360.989" y2="360.989" gradientTransform="rotate(16.824 1142.922 300.673)" gradientUnits="userSpaceOnUse"><stop offset="0" stop-color="#f06667"/><stop offset="1" stop-color="#f59698"/></linearGradient><path fill="url(#i)" stroke="#CC3232" stroke-miterlimit="10" stroke-width=".25" d="M17.4 25.3c-3.6-1.5-5.4 1.7-8.6 2.4-2.2.5-2.9-.3-4.3-1.1-1.1-.6-3.6-1.1-2-2.9-1-.1-1.4-.8-.8-1.7 3 1 .1-1.1.1-1.2-.4-1.5-.1-1.7 1.5-1.7-.4-1.2-1.9-1.3-1.8-2.7 0-1 .9-.4 1.2-.8.1-.2 0-1.6 0-1.7.5-.3 2.6-.8 3-.8 1-.1 2.4-.7 1.9 1.1.5-.1 1.6-.9 2.1-.8 1.4.2.9 1.3 1.5 1.6 1.3.7 3.9-.6 4.7 1.5.3.9-.7 1.9-.3 2.7.5.9 2 .6 2.8 1.1 2 1.5.5 3 .7 4.7"/><linearGradient id="j" x1="1.857" x2="-21.711" y1="390.171" y2="329.666" gradientTransform="rotate(16.824 1142.922 300.673)" gradientUnits="userSpaceOnUse"><stop offset="0" stop-color="#ccdd60"/><stop offset="1" stop-color="#659941"/></linearGradient><path fill="url(#j)" stroke="#659941" stroke-miterlimit="10" stroke-width=".25" d="M18.4 36.7c1.7.6 3 1.9 5 2.2 1.6.2 3.7.1 5.1 1.4-.1 1.8-6-.4-7.1-.9"/><linearGradient id="k" x1="13.273" x2="-10.293" y1="385.724" y2="325.223" gradientTransform="rotate(16.824 1142.922 300.673)" gradientUnits="userSpaceOnUse"><stop offset="0" stop-color="#ccdd60"/><stop offset="1" stop-color="#659941"/></linearGradient><path fill="url(#k)" stroke="#659941" stroke-miterlimit="10" stroke-width=".25" d="M33.1 39.5c-.3-1.6 3.6-4.4 4.9-5.3-1.4 2-1.8 5.2-4.4 6.1"/><linearGradient id="l" x1="5.915" x2="-17.65" y1="388.589" y2="328.089" gradientTransform="rotate(16.824 1142.922 300.673)" gradientUnits="userSpaceOnUse"><stop offset="0" stop-color="#ccdd60"/><stop offset="1" stop-color="#659941"/></linearGradient><path fill="url(#l)" stroke="#659941" stroke-miterlimit="10" stroke-width=".25" d="M33.6 28.5c.8 2.7.4 2.7.3 5.6-.1 2.5-.8 6.5-3 8.1-2.2-1.7-3.9-3.3-5.5-5.6-1.8-2.6-2.5-4.7-4.2-7.2L20 27.1l13.5-2.6.1 4z"/><linearGradient id="m" x1="7.065" x2="-16.501" y1="388.142" y2="327.64" gradientTransform="rotate(16.824 1142.922 300.673)" gradientUnits="userSpaceOnUse"><stop offset="0" stop-color="#ccdd60"/><stop offset="1" stop-color="#659941"/></linearGradient><path fill="url(#m)" stroke="#659941" stroke-miterlimit="10" stroke-width=".25" d="M30.8 42.2c-3.3-.5-6.2-6.8-8.5-9.1-.1 0-.1 0 0 0 1.3-.1 2.9.1 4.1.5.1-1.4-.4-2.6.8-3.7 1.2.9 2.7 1.9 3.7 3.1.4-1.3 2.6-2.7 3.8-2.9 0 2.5-.6 5.1-1.1 7.6-.2 1.2-.4 2.2-1.1 3.2-.4.5-1.8 2.1-2.2.9"/><linearGradient id="n" x1="7.432" x2="-16.135" y1="387.999" y2="327.495" gradientTransform="rotate(16.824 1142.922 300.673)" gradientUnits="userSpaceOnUse"><stop offset="0" stop-color="#ccdd60"/><stop offset="1" stop-color="#659941"/></linearGradient><path fill="url(#n)" stroke="#659941" stroke-miterlimit="10" stroke-width=".25" d="M34.2 33.8c-1.3 1.1-3.1 1.2-3.5 3.2-.7-1.2-1.3-3.2-2.5-3.9.2 1.4-.4 2.8-.1 4.2-1.2-.3-2.9-1.4-3.9-1.1H23s.8.4 1.5 1.4c.8.9 4.1 6.4 7.2 5 0 0 2.2-1.3 2.5-3.5.3-2.2.7-4.8 1-5.2.3-.6-1-.1-1-.1z"/><linearGradient id="o" x1="5.334" x2="-18.231" y1="388.815" y2="328.316" gradientTransform="rotate(16.824 1142.922 300.673)" gradientUnits="userSpaceOnUse"><stop offset="0" stop-color="#ccdd60"/><stop offset="1" stop-color="#659941"/></linearGradient><path fill="url(#o)" stroke="#659941" stroke-miterlimit="10" stroke-width=".25" d="M27.7 37.7c-.5.5-.8 1.2-1 2"/><linearGradient id="p" x1="10.244" x2="-13.33" y1="386.91" y2="326.388" gradientTransform="rotate(16.824 1142.922 300.673)" gradientUnits="userSpaceOnUse"><stop offset="0" stop-color="#ccdd60"/><stop offset="1" stop-color="#659941"/></linearGradient><path fill="url(#p)" stroke="#659941" stroke-miterlimit="10" stroke-width=".25" d="M31.2 37c1 .2 1.9.9 2.3 1.8"/><linearGradient id="q" x1="4.088" x2="-19.476" y1="389.299" y2="328.803" gradientTransform="rotate(16.824 1142.922 300.673)" gradientUnits="userSpaceOnUse"><stop offset="0" stop-color="#ccdd60"/><stop offset="1" stop-color="#659941"/></linearGradient><path fill="url(#q)" stroke="#659941" stroke-miterlimit="10" stroke-width=".25" d="M26.2 33.9c-.6.5-1.4 1-1.2 1.8"/><linearGradient id="r" x1="10.965" x2="-12.597" y1="386.618" y2="326.128" gradientTransform="rotate(16.824 1142.922 300.673)" gradientUnits="userSpaceOnUse"><stop offset="0" stop-color="#ccdd60"/><stop offset="1" stop-color="#659941"/></linearGradient><path fill="url(#r)" stroke="#659941" stroke-miterlimit="10" stroke-width=".25" d="M31.7 32.5c.8.1 1.5.6 2.2 1"/><linearGradient id="s" x1="7.685" x2="-15.881" y1="387.9" y2="327.399" gradientTransform="rotate(16.824 1142.922 300.673)" gradientUnits="userSpaceOnUse"><stop offset="0" stop-color="#ccdd60"/><stop offset="1" stop-color="#659941"/></linearGradient><path fill="url(#s)" stroke="#659941" stroke-miterlimit="10" stroke-width=".25" d="M30.2 42.2c-1.1-1.8-4.5-2.2-6.5-2.8-2.3-.7-4.6-1.7-6.1-3.6 1 2.2 2.8 4.2 5 5.2 2 .9 4.3 2.4 6.4 2.3 0 0 0 1.8 1 1.9 1 .1 2.1-.6 2.1-.6h1.2s1.5-1 .5-2.2c1.8-1.4 2.1-2.1 3.1-4.2 1.1-2.5 2.4-4 4.1-6-2.8.6-4 3.7-5.2 5.3-1.3 1.8-3.6 2.6-4.6 4.7"/><path fill="none" stroke="#659941" stroke-miterlimit="10" stroke-width=".25" d="M32.2 24.9c-.6 1.9-.6 3.6-.8 5.5"/><linearGradient id="t" x1="9.546" x2="-14.021" y1="387.176" y2="326.673" gradientTransform="rotate(16.824 1142.922 300.673)" gradientUnits="userSpaceOnUse"><stop offset="0" stop-color="#ccdd60"/><stop offset="1" stop-color="#659941"/></linearGradient><path fill="url(#t)" stroke="#659941" stroke-miterlimit="10" stroke-width=".25" d="M31.1 25.1c-.7 2.5 0 4.7-.4 7.2"/><path fill="none" stroke="#659941" stroke-miterlimit="10" stroke-width=".25" d="M22.3 26.5c1.1 2.1 2.3 4.1 3 6.4"/><linearGradient id="u" x1="3.913" x2="-19.654" y1="389.371" y2="328.865" gradientTransform="rotate(16.824 1142.922 300.673)" gradientUnits="userSpaceOnUse"><stop offset="0" stop-color="#ccdd60"/><stop offset="1" stop-color="#659941"/></linearGradient><path fill="url(#u)" stroke="#659941" stroke-miterlimit="10" stroke-width=".25" d="M23.4 26.5c1.6 1.2 2 3.4 2.9 5"/><linearGradient id="v" x1="8.083" x2="-15.484" y1="387.745" y2="327.243" gradientTransform="rotate(16.824 1142.922 300.673)" gradientUnits="userSpaceOnUse"><stop offset="0" stop-color="#ccdd60"/><stop offset="1" stop-color="#659941"/></linearGradient><path fill="url(#v)" stroke="#659941" stroke-miterlimit="10" stroke-width=".25" d="M29 25.5c-.5 1.6.8 4.5.8 6.1"/><linearGradient id="w" x1="6.265" x2="-17.302" y1="388.454" y2="327.95" gradientTransform="rotate(16.824 1142.922 300.673)" gradientUnits="userSpaceOnUse"><stop offset="0" stop-color="#ccdd60"/><stop offset="1" stop-color="#659941"/></linearGradient><path fill="url(#w)" stroke="#659941" stroke-miterlimit="10" stroke-width=".25" d="M27.1 25.5c.1 1.5.5 3.2.3 4.7"/><linearGradient id="x" x1="4.847" x2="-18.717" y1="389.002" y2="328.507" gradientTransform="rotate(16.824 1142.922 300.673)" gradientUnits="userSpaceOnUse"><stop offset="0" stop-color="#ccdd60"/><stop offset="1" stop-color="#659941"/></linearGradient><path fill="url(#x)" stroke="#659941" stroke-miterlimit="10" stroke-width=".25" d="M25 26.1c.9 1 1.5 2.9 1.7 4.3"/><path fill="none" stroke="#659941" stroke-miterlimit="10" stroke-width=".25" d="M20.9 27.1c.9 1.7 1.9 4.2 3.1 5.7m9.2-8c-.5 1.4-.6 4.6-.4 5.9"/><linearGradient id="y" x1="-17.057" x2="-2.646" y1="361.803" y2="361.803" gradientTransform="rotate(16.824 1142.922 300.673)" gradientUnits="userSpaceOnUse"><stop offset="0" stop-color="#f06667"/><stop offset="1" stop-color="#f59698"/></linearGradient><path fill="url(#y)" stroke="#CC3232" stroke-miterlimit="10" stroke-width=".25" d="M20.6 20.1c-.2.1-.8 1.2-1.2 1.6-.6.5-1.4.6-2 1-1 .6-2.6 1.7-3 2.8-.7 2 .6 1.1 1.3 2.2.6.9-.5 2.1 1.5 1.9-.2 1.3 1.3 2 2.4 2.1 1.3.2 1.7-.5 3-.5.6 0 .8.8 1.5.3.5-.4 0-1.4.4-1.9.6-.7 2.4-.7 3.1-1.3.6-.5 2-2.4 1.8-3.2-.2-.6-1.1-.5-1.5-1-.4-.5-.2-1.2-.5-1.7-.7-1-1.9-1.4-3-1.9-1.1-.6-2-1.5-2.9-1.9-.1.6-.4.7-.7 1.2"/><linearGradient id="z" x1="-10.986" x2="7.598" y1="357.448" y2="357.448" gradientTransform="rotate(16.824 1142.922 300.673)" gradientUnits="userSpaceOnUse"><stop offset="0" stop-color="#f06667"/><stop offset="1" stop-color="#f59698"/></linearGradient><path fill="url(#z)" stroke="#CC3232" stroke-miterlimit="10" stroke-width=".25" d="M22.7 18.6c1.3 1.3-.2 2.3.1 3.5.1.5.9.9 1 1.2 0 0 .4 1.9.2 1.6 1 1.5 2.4 3.4 4.2 4.3 1.2-1.8 3.1 1.4 3.7-1 1.8 1.1 2.7 1 3.5-1.1 1.3.1 2.5.2 3.5-.7.2-.2 1.6-2.7 1.6-3 .2-1.8-.9-1.3-1.8-2.1-1-.9-.9-2-2.7-2.1-1-.1-1.8 1-2.9.9-1.2-.1-2.1-1.4-3.4-1.6-2.3-.4-4.4.8-7 .1"/><linearGradient id="A" x1="-24.603" x2="-2.573" y1="357.322" y2="357.322" gradientTransform="rotate(16.824 1142.922 300.673)" gradientUnits="userSpaceOnUse"><stop offset="0" stop-color="#f06667"/><stop offset="1" stop-color="#f59698"/></linearGradient><path fill="url(#A)" stroke="#CC3232" stroke-miterlimit="10" stroke-width=".25" d="M17 14.8c-.8-.2-1.7-.1-2.5-.5-.6-.3-.8-1-1.3-1.3-2.5-1.2-2-.1-2.6 1.7-.1.2-.9.4-.9.7 0-.1-.1 1.3 0 .9.1-.3-.6 2.1-.6 1.7 0 .2-.6.2-.6.6 0 .6.6.9.6 1.1 0 .5 1 1 .3 2.2.7.1 1.5.7 2.1.7.5 0 2-.8 1.9-.8 1.2.3 2.1 3.9 3.5 1.8 1.3.1 1.6 1.7 3 2.3-.3-.1 1.7-.2 1.5-.2.8 0 1 .9 2.1.2.6-.5-.2-1.7.1-1.9.8-.7 1.3.4 2.1.2 1.7-.5 1.2-1.1 1.3-2.7 1.3.3 2.9 1.3 3.6-.4.9-1.9-1.3-2.6-2.7-2.9-2.4-.6-7 .2-8.7-1.9L17 14.8z"/><linearGradient id="B" x1="-9.626" x2="6.362" y1="347.608" y2="347.608" gradientTransform="rotate(16.824 1142.922 300.673)" gradientUnits="userSpaceOnUse"><stop offset="0" stop-color="#f06667"/><stop offset="1" stop-color="#f59698"/></linearGradient><path fill="url(#B)" stroke="#CC3232" stroke-miterlimit="10" stroke-width=".25" d="M24.6 17.8c3.4-.2 5.9-1.4 7.7-4.3 1.3-2.2 3-6.5 6.2-6.4-.1.3-.1.8-.2 1.1.9-.1 1.8-.4 2.8 0-.2.3-.2.7-.5 1 .5.2.9.7 1.6.8 0 .3-.2.3-.3.5 1.9 1.5-1.4 1.5-1.4 3.1 1.6.3 1.2 1.8-.3 1.1 0-.1-.2.6-.2.6.6.6.4.6.5 1.3-.5-.1-1.1.1-1.4.1 1 1 2.9 5.2-.3 3.5 0 .4-.3 1.1-.3 1.5-1.2 0-2.9-.7-4.1-.4-.2 0-.8 1.2-1.4 1.4-.3.1-1.9-.4-2.1-.4-2.6-.7-3.9-3.2-6.5-4.3"/><linearGradient id="C" x1="-18.9" x2="-7.915" y1="350.558" y2="350.558" gradientTransform="rotate(16.824 1142.922 300.673)" gradientUnits="userSpaceOnUse"><stop offset="0" stop-color="#f06667"/><stop offset="1" stop-color="#f59698"/></linearGradient><path fill="url(#C)" stroke="#CC3232" stroke-miterlimit="10" stroke-width=".25" d="M23.8 18.1c-1.5-.5-2.2-.2-3.6-.9-.7-.3-1.5-1.5-2-2-.6-.6-1.5-1-2-1.6.4-.2.8-.1 1.1.2-.2-.3-.5-.7-.7-1h.2c-.2-.3-.2-.6-.3-1 .1 0 .3-.1.4-.1.5.1.9.3 1.4.4.4-.7-.8-1.2-1.1-1.9.6-.3 1.5.2 1.9.7v-.5c.1 0 .3.1.4.1 0-.2.2-.4.2-.6.6.1 1 .2 1.4.5 0-.3.2-.6.2-.9.9.3 1.6 2.1 1.4 3 .3-.1.4-.1.6-.5.3.4.5 1 1.1.9.2 1.5 1 3.1 1.9 4.4-.6.3-.5.4-1.2.4.2.1-1.1.3-.8.3"/><linearGradient id="D" x1="-11.439" x2="-1.339" y1="349.78" y2="349.78" gradientTransform="rotate(16.824 1142.922 300.673)" gradientUnits="userSpaceOnUse"><stop offset="0" stop-color="#f06667"/><stop offset="1" stop-color="#f59698"/></linearGradient><path fill="url(#D)" stroke="#CC3232" stroke-miterlimit="10" stroke-width=".25" d="M22.5 17.7c2.2.3 2.7-2.9 3.6-4v.4c.6-.1.9-1.1.8-1.7.1.1.4.1.5.2.1-.3.3-.5.3-.8.1 0 .2 0 .3.1 0-.2.2-.5.3-.7.4 0 .8.2 1 .5.4-.4.2-1 .6-1.4.2 0 .4.1.5.2-.1 1.1-.2 1.1.6 1.3.2.1.5-.6.9-.2.2.2-.1.9-.2 1.1h.7c-.1.2-.1.5-.2.7.7.2 1.7 0 2.2.7-.4.3-1 .3-1.5.5.2.1.3.3.4.4-.1.1-.3.4-.5.5.3.4.3.5-.1.8.3.3.3.7.3 1-.9-.1-2.2-.4-1.9.9-.4 0-.8-.1-1.2-.1 0 .1-.1.4-.1.5-.2-.1-.5-.1-.6-.2-.1.1-.1.3-.2.4-1.2.1-2.5.3-3.9.4-.2 0-1.8.1-2.6-1.5z"/><linearGradient id="E" x1="-19.126" x2="-7.36" y1="353.857" y2="353.857" gradientTransform="rotate(16.824 1142.922 300.673)" gradientUnits="userSpaceOnUse"><stop offset="0" stop-color="#f06667"/><stop offset="1" stop-color="#f59698"/></linearGradient><path fill="url(#E)" stroke="#CC3232" stroke-miterlimit="10" stroke-width=".25" d="M26.2 19.2c-1.6-1.2-3.5-3.9-5.4-4.2v.6c-.7-.1-1.2-.6-1.9-.7v.4c-.6-.2-1.6-.5-1.9.1-.6 0-1.3-.1-1.5.5-.4.1-.4.2-.6.5.4 0 .7.1 1.1.1-.4.1-.4.3-.6.6.8.3 1.7.3 2.5.6.9.4 1.8.8 2.7 1.1 2 .5 3.7.3 5.7.3"/><path fill="none" stroke="#CC3232" stroke-miterlimit="10" stroke-width=".25" d="M24.4 17.4c0-.2 1.5-1.8 1.7-2.4m-1.3 2.9c1.5-.2 2.9-2.4 3.3-3.7m-3 4c1.4-.2 2.1-1.1 3.2-1.9M24.7 18c-1.4-.8-3.6-1.7-5.3-1.1m5.4 1.1c-.4 0-.7.2-1.1.3-.7.1-1.7-.1-2.4-.3m2.8-1c-.3-2.1-3.6-2.6-3.8-4.6m3.9 4.6c.6-1.3-.6-2.1-1.5-2.8m1.2 5.1c-1.4 1.1-3.2 3.1-2.5 5m1.1-5c-1.8 0-3.5 2.5-3.9 4.1m.4-5c-1.9-.3-4.5 1.6-5.1 3.3m1.7-4.5c-1.8.7-3.8 1.1-4.8 3m5.4-2.6c-1.9.4-3.9 1.8-4.8 3.6m4-5.4c-1.6-.5-2.9-.9-4.6-.6m18.1 3.7c1 .5 2.4 2.7 4 2.1m-2.1-2.9c1.8.4 4.2 3.2 6.3 1.8m-6.2-2.4c1.3 0 2.5.9 3.7 1.3 1.2.4 2.7.4 3.8-.2m-5.6-3.2c1.5 0 2.6-.4 3.8-1.4.6-.5 1.2-.9 1.7-1.5s.8-1.3 1.7-1.5m-5.9 2.8c1-.3 1.6-1.6 2.1-2.4.7-1.2 1.2-2 2.6-2.4M17 13.7c-.3-.4-.9-.6-1.3-.9-.6-.4-1.1-1-1.6-1.6-.9-1.1-1.2-2.1-1.1-3.5m3.6 4.2c-1.2-.8-1.5-3.1-1.4-4.4.1-1.6.5-3.1.3-4.7m2.5 7.4c-.6-1-.3-2.1-.2-3.2.1-1.5-.1-3.1-1-4.4m2 8.1c0-1.2-.3-2.1.1-3.4.4-1.4 1.1-2.8.5-4.3m1.1 7.1c.5-1.6.5-4.1 2.4-4.9" opacity=".44"/><path fill="none" stroke="#CC3232" stroke-miterlimit="10" stroke-width=".25" d="M27.3 12.3c0-1.2-.1-2.3.2-3.5.4-1.4 1.3-3 .7-4.4m-.3 7.2c.2-.5.1-1.2.2-1.8.2-.6.4-1.3.7-1.9.9-1.5 2.1-2.6 1.8-4.6m0 8.2c.2-.6.2-1.3.3-1.9.2-.9.6-1.5 1.1-2.2.4-.6.8-1.2 1.4-1.6.6-.5 1.6-1.3 2.3-1.5" opacity=".31"/><path fill="none" stroke="#CC3232" stroke-miterlimit="10" stroke-width=".25" d="M31.3 11.2c.5-1.1.3-1.8 1.1-2.8 1-1.2 3.3-1.4 4.1-2.7" opacity=".31"/><path fill="none" stroke="#CC3232" stroke-miterlimit="10" stroke-width=".25" d="M26.7 23.6c1.1.7 1.8 2.5 2.1 3.7m-1.7-5.9c.9.9 1.7 1.7 2.7 2.4 1.2.8 2.6 1.6 2.8 3.2m-4.1-5.2c1 .7 1.9 1.4 3.1 2 1.1.5 2 1.4 2.5 2.5m-.4-4.5c.6.6 1.5.7 2.3 1 1 .4 1.6 1.1 2.4 1.8" opacity=".44"/><path fill="none" stroke="#CC3232" stroke-miterlimit="10" stroke-width=".25" d="M18.4 24.3c-.8.4-2.2 2-1.4 3m2.6-1.7c-.8 1.2-1.7 3.4-.6 4.7m1.4-4.7c-1.3.9-.8 3.9.1 4.9m2.4-4.4c-.5 1.1-.7 2.8 0 3.8m-12.4-7.6c-.5.9-1.9 1.2-2.8 1.4-.9.3-3.3.3-3.7 1.3m8.4-2.7c-.3.3-.4.8-.6 1.2-.3.5-.7.9-1.2 1.2-1.1.6-2.2.7-2.9 1.9m1.8-4.8c-1.4 1.6-4.2.1-5.5 1.6m4.6-4.8c-2.1.6-4.3-2.4-6.2-1.6m6.7 3c-1.2 1-4.7 0-5.4 1.1M9 18c-1.2.9-4.2-1.8-5.3-2.2" opacity=".37"/><path fill="none" stroke="#CC3232" stroke-miterlimit="10" stroke-width=".25" d="M40.5 19.6c.4.2 1.1.3 1.6.6.6.3 1.3.9 2 .8m-3.9-2.1c1.3-.7 3.6 1.5 4.3-.8m-4.6 0c1.1-1.2 4.4 0 4.8-2.2m-3.8-3.5c1.4-.1 2.2 1.8 3.7 1.5" opacity=".34"/><path fill="none" stroke="#CC3232" stroke-miterlimit="10" stroke-width=".25" d="M9 13.4c-.7-1-1.9-1.5-3.1-1.9m3.7 1.9C9.1 12.2 8 11.3 7 10.6" opacity=".32"/><linearGradient id="F" x1="-1.135" x2="11.676" y1="388.649" y2="388.649" gradientTransform="rotate(16.824 1142.922 300.673)" gradientUnits="userSpaceOnUse"><stop offset="0" stop-color="#ccdd60"/><stop offset="1" stop-color="#659941"/></linearGradient><path fill="url(#F)" stroke="#659941" stroke-miterlimit="10" stroke-width=".25" d="M33.2 62.3c1.5-4.3-9.3-3.5-9.2-13.2-3.6 6.3 5.4 10.6 9 13.1"/><linearGradient id="G" x1="-1.276" x2="28.815" y1="418.82" y2="418.82" gradientTransform="rotate(16.824 1142.922 300.673)" gradientUnits="userSpaceOnUse"><stop offset="0" stop-color="#ccdd60"/><stop offset="1" stop-color="#659941"/></linearGradient><path fill="url(#G)" stroke="#659941" stroke-miterlimit="10" stroke-width=".25" d="M28.9 103.1c-2.2-1.3-3.2-4.9-3.3-7.3-.2-3.5-.4-5.8-2.6-8.6-3.7-4.9-7.9-9.6-6.1-15.6-2.5 5.9 5.5 10.4 8.8 13.9 4.4 4.6 4.1 10.3 3.7 16.1 1.6-5.7 3.1-11.9 8.3-15.5 3.8-2.6 8.3-4.7 7.3-10 1.3 2.2.7 5-.4 7.4-1.5 3.3-4.3 4.6-6.8 6.9-2.3 2.2-3.1 5-4.5 7.6-1 1.8-4.2 3.8-4.7 5.2"/></g></switch></svg>
