<svg xmlns="http://www.w3.org/2000/svg" version="1.0" viewBox="0 0 131 78"><switch><g><g fill="#D0E7C4" stroke="#669866" stroke-width=".25"><path d="M9.7 32.7l-.5.5 1.7 1.4 1.1-.7 1.5-.4 3.5-1.8 1.4.2 2.4.9.9-.6 1.5.5.9.8-.1.5.2 1.9-1 1.7 2.1.7v.3l-4.4-.2-.3-.4-1.6.7-.2.7-.5.7 1.2.9.9.4-1 .1-1.3-.3-2-.1v.5l.5.5 1.3.3 2.2 2.6.9 1.6h.8l1.2 1.2 1.9.3.6.7-.2 1.2v.9l.8.9.9-1 3.6-1.1 3.2 1.9 1.4 1.6 1.2.7 1.5-.4-1-4.7-2.2-8.9L47 34.1l8.9-1-3.7 3.9v3.4L48 43.9l7.8 1.2 8.2.1 1-.8 3 2.2.6 1.4 1.1-.7.7 3.4.5.8h1l1.7 2.9 2.7-.2 1.8.4.5 1.2.9.5h1.1l-.5-1.4 2.1-2.3 1.9-.7 1.1-1.1 1.5-.8-.4-1.1L88 48l6.5 1-.3-1.5 2.3-.9 3.8 1.4 4.9-.2 7.7.6.8.8 2.4.4 1.4-2.9-2.8-4.1v-1.9l-2.1-.5 5.5-1.5.7.3 1.2-.9-.4-1.3.5-5.1 5.9.8 1.2-1.1-.9-3.4.5-1.2 2-1 .2-2.1-2.1-1.7-.5.8-4.1-.6-1.4-2h-2.1l-2.1-1.5-2.3-1.6-2.3 1.1-6.9-1.9.1 1.1-1 .6-10.1-9-5.9-2.9.1-1.2-3.2.8-3 2.2-.7-.3-2.4.3.3-1.4-3.3-.4-1.5-.9-1.7.6-1.5-.2-.7-2-2.4-2.2-1.2.4-2.6-.5-1.1-.3-3.1 1.5-4.2 1.4-10 2.3h-4l-.7.9 3.4 2.5-2.5.2-.4 1.1.6 1.5-1.6 1.4 5 2.3.3 1.9-2.1.5-2.5-.2-.7.7-3.7-.9-.5-.8-1.5-.5-1.2.8-1.3-.4-2.3-.3-1.1 1.1-1.6.7-3.1-1.6-.6.4-3.6-2-2.7-.1-1.4-1-2.2 1.1-1-.9-1.6.5-.5 1-2.8.9.1.6-1.7 1.3.8 2-2 .4-2.5-1.9-.9.7.1.9-.8.7-.2 1.5 1.2.7L1 25.2v1.7l2.2.6.3 1.1.6.7 2.1-.1 2 1.4z"/><path d="M56.2 71.6l-2.6-2.2-2-1.3-1.7-.2-1.5-.3-2.1-.6-1.3-1.2-1.7-.2-1.1-.3-.9.9h-1.4L37 67.3l-.4 1-2.5.7-1-2.8-.4-3.2-2.3-1.7-.8-.1v-.8l1-.1v-1.2l-2.3-.4s-.7.1-.7-1.8c0-1.9 1.5-1.8 1.5-1.8l.3-1-1.8-.6-1.4-1.6 1.1-1.1 3.6-.9 3.2 2 1.3 1.4 1.3.8 1.4-.6h3.6l-.6-2 3.5-2.6 1-.2 4 1.3 1.7 1.7.5 1.5.8.8 2.3.1 1.6-.3 2.1 1.7 2.2 3.3 4 2.4 1.2.9 1.9.6 2.2 1.4 1.9 1.1 2.4.6 2.1.7.1 2-2-.2-3 1.4-.6 3-4.8 2.3-1.1 2-5-1.4-1.5-3.5-2.4-.5zM88 58.1l-1.4-1.2.5-.4v-1.3l-1.8.2-1 .8-1.4-.6-.2 1 .3.8-.3.5-1.4-.1.2 1-.1 1.2-.7.3-.9.2-1.6-.1-.4 1 2.4 1 .3.9-.1.8.8.4.9 1.6-1.5 1.8.2 1.8 1 .7 2.6-1.4 1.8.9.2-1.7 2.1-.1.1-1.4.7-2.5 3 1.2.1 1.4 1.6 4.5 2.5-1.1 2.9-1.8 1.7.9 1.4-.4h1.9l.2-.6-.5-1.2-.4-.6-.3-.9-.4-.8-2.8-1-.6-1.1-.6-1.3v-.7l-4 .8-2.3-.2-1.8-.8-1.6.6-1.3-.8-3.9.1-.5-1.4 1.6-1.1 2 .4z"/><path d="M89.5 57.7l-1.6.6-1.1-1.4.3-.4v-1.3l-1.9.2-1 .8-1.2-.5-.4.7.3.9-.2.6h-1.3l.1.8-.2 1.2-1.3.6-1.9-.1-.5.9 2.5 1.2.3.4s-.3 1.2.3 1.3c.5.1 1.3 1.8 1.3 1.8l-1.3 2 .1 1.7-1.9-.7-2.7-.6-.1-2-2.8-1-1.7-.5-3.9-2.3-2.1-.6-5.2-3.4-2.3-3.2-2.1-1.7-1.5.3-2.3-.1-.7-.6-.6-1.6-1.6-1.7-2-.7-2-.8-1.1.4-1.9 1.4-1.6 1.1.8 2-2.8.2-.8-.1-3.2-13.8 8.1-3.7 1 7.8 11.9 1.4 2.8-.3 3.6-1.6 4.7.5 1.1 2.5.8 1.5 1-.6.7 3.4.6.8.9-.3 1.7 3.1 2.6-.1 1.9.3.5 1.2.8.6 1.2-.1-.5-1.3 1.8-2.1 2.1-1.1 1-1 2.1-.6-1.7 2.3.1.6 3.2 1.3 1.2-.8 1.9 1 2.9 1-1.2 1.3-1.9.9h-2.1z"/><path d="M116.4 49.6l-2.5-.4-1.1-1-5.7-.4-2.2-.1-4.6.3-4.1-1.6-2.2 1 .5 1.7-3.4-.6-3.4-.5-1.4 1 .4 1-.5 1-1.1 1.4.3.7 1.3.4 1.7.7 1.3-.8 1.6 1 3.2 1.2-1.2 1.1-1.9 1-1.8-.1-2.5.7-1.9-.5-1.6 1.2.5 1.4h3.8l1.2.6 1.8-.6 1.7.9 2.1.2 2.2-.5 2.4-.3v-1.8l3-2.1 1.8.5 2.3-.4 1.4-1.7 2.7-.3 2.7-2.3 3.3-2.2z"/></g></g></switch></svg>
