<svg xmlns="http://www.w3.org/2000/svg" id="Capa_1" x="0" y="0" version="1.0" xml:space="preserve" viewBox="0 0 27.5 28.2"><style>.st0{fill:#ebb2b1}.st1{fill:#9c655e}.st2{fill:#d6e3b4}.st3{fill:#b0c396}.st5{fill:#f9fa9e}.st6{fill:#ffff4e}.st7{fill:#fff}.st8{fill:#cacaca}.st10{fill:#574732}.st11{fill:#a7866a}.st15{fill:#4a5a3b}</style><switch><g><path d="M2.8 16.9l6.6 7.7s-.6-.9.4-1.6c.6-.4 1.3.3 1.3.3L4 15.8s-.4-.3-.9.2c-.6.5-.3.9-.3.9z" class="st0"/><path d="M11.3 23.6c.1.5-.4 1-.9 1.2-.5.1-1-.1-1.1-.7-.1-.6.3-1.4 1.1-1.3.6.1.8.4.9.8z" class="st1"/><path d="M1.1 17.7l6.6 7.7s-.6-.9.4-1.6c.5-.4 1.3.2 1.3.2l-7.1-7.4s-.4-.3-.9.2c-.6.6-.3.9-.3.9z" class="st2"/><path d="M9.6 24.5c.1.5-.4 1-.9 1.2-.5.1-1-.1-1.1-.7-.1-.6.3-1.4 1.1-1.3.6 0 .7.3.9.8z" class="st3"/><path fill="#b0c396" d="M1.1 17.7l6.6 7.7s-.2-.3-.2-.5c0-.3-6.5-7.4-6.5-7.4v.2z" opacity=".49"/><path d="M15.2 13.1L4.3 18.7l.9 1.6L16 14.7s.4-.5 0-1.1c-.4-.7-.8-.5-.8-.5z" class="st5"/><ellipse cx="4.6" cy="19.6" class="st6" rx=".8" ry=".9"/><path d="M16 14.7L5 20.4l.4-.4L16 14.5h.3" class="st6"/><path d="M15.7 14.5L4.8 20.1l.9 1.6 10.8-5.6s.4-.5 0-1.1-.8-.5-.8-.5z" class="st7"/><ellipse cx="5.1" cy="21" class="st8" rx=".8" ry=".9"/><path fill="#cacaca" d="M16.4 16.1l-11 5.7.4-.4 10.6-5.5h.3" opacity=".26"/><path d="M13.3 5.8c0-.1 1.4-4.1 1.4-4.1s.2-.6 1.1-.7c.9-.1 8.4 1.1 8.4 1.1s.7.1.9 1c.2 1-.8 4.2-.8 4.2l-11-1.5z" class="st10"/><path d="M12.9 5.9c0-.1 1.4-4.1 1.4-4.1s.2-.6 1.1-.7c.9-.1 8.4 1.1 8.4 1.1s.7.1.9 1c.2 1-.8 4.2-.8 4.2l-11-1.5zm10.9 1.6h.9l-2.1 15.6-.9.4z" class="st11"/><path d="M12.4 3.1l.3 2.8.9-.1-.6-2.7zm13.2 1.8l-1.8 2.6h.9l1.2-2.6z" class="st11"/><path d="M22.7 2.9l-.6 4.3 1.8.2.5-4.3s-.5 0-1-.1-.7-.1-.7-.1z" class="st7"/><path fill="#daffff" d="M14.5 1.8l-.7 4.3 1.7.2.6-4.3s-.3.1-1-.1-.6-.1-.6-.1z"/><path d="M16.5 2l-.6 4.4 1.7.1.5-4.3s-.7-.1-1-.1c-.3 0-.6-.1-.6-.1z" class="st2"/><path d="M18.6 1.9l-.7 4.8 1.8.2.6-4.7s-.4 0-1-.1-.7-.2-.7-.2z" class="st0"/><path d="M20.8 1.2L20 6.9l1.8.2.8-5.7s-.4 0-.8-.1c-.5-.1-1-.1-1-.1z" class="st5"/><ellipse cx="23.5" cy="2.9" class="st8" rx=".1" ry=".9" transform="rotate(-83.408 23.527 2.928)"/><ellipse cx="21.7" cy="1.3" class="st6" rx=".1" ry=".9" transform="rotate(-83.408 21.74 1.276)"/><ellipse cx="19.5" cy="2.1" class="st1" rx=".1" ry=".9" transform="rotate(-83.408 19.454 2.094)"/><ellipse cx="17.3" cy="2.2" class="st3" rx=".1" ry=".9" transform="rotate(-83.408 17.314 2.157)"/><ellipse cx="15.4" cy="1.9" fill="#bff" rx=".1" ry=".9" transform="rotate(-83.408 15.364 1.874)"/><path fill="#b9a177" d="M12.7 5.9l11.1 1.6-2.1 16-10.9-1.7z"/><path d="M13.1 10.6l9.1 1.4-1.1 7.9-8.9-1.5z" class="st15"/><path fill="#edefed" d="M12.8 13.7l8.9 1.5-.2 1.6-9-1.5z"/><path d="M23.7 7.4l2-2.5.1.2-2 2.4z" class="st10"/><path d="M23.7 7.4l-2 16.1.3-.1 1.9-16zM12.7 6l11 1.4.2-.1-10.6-1.5-.6.2" class="st10"/><path d="M12.6 3.2h-.2l.3 2.8h.3z" class="st10"/><text class="st15" font-family="MyriadPro-Regular" font-size="2.246" transform="rotate(9.46 -86.21 91.223)">CHALK</text></g></switch></svg>
