<svg xmlns="http://www.w3.org/2000/svg" id="Capa_1" x="0" y="0" version="1.0" xml:space="preserve" viewBox="0 0 96 72"><style>.st0{opacity:.19;fill:#b46565}.st6{fill:none;stroke:#b46565;stroke-width:.25}</style><switch><g><radialGradient id="SVGID_1_" cx="-50.294" cy="53.862" r="287.436" gradientUnits="userSpaceOnUse"><stop offset="0" stop-color="#efca99"/><stop offset="1" stop-color="#edcaca"/></radialGradient><path fill="url(#SVGID_1_)" d="M76.7 57.9c0-7.4.7-11.4.7-11.4s3.5 12.3 4.1 22.6l11.8.1c-.7-6.1-2.9-16.3-3.1-20.3-.5-6.9 1.8-12.4-1.9-22.3-3.4-8.9-9.8-10.1-18.7-10.7-5.1-.3-7.6-3.5-9.5-5.8C58.7 8.5 59 2.9 59.3 0h-21c.9 2.8 2.5 9.1 0 11.6-3.2 3.2-6.7 4.1-14.9 5.1-8.3.9-12 5.2-14.7 12.6C5.9 36.6 5.3 46.5 3 53.8c-1.6 5.1-.2 10.9-1 15.3l12.6-.1c.2-.6 6.1-23.9 6.1-23.9s.4 3.4.4 9.4c0 4.9.7 9.9.9 14.7l53.9.5c.1-4.3.8-9.1.8-11.8z"/><path d="M38.6 3.6c1.6 3.2 1.6 7.2-1 9.3 2.1.2 4-1.1 5.4-2.7 6.3 4 11-.7 13.7-6.5-5.3-.7-12 0-17-.1" class="st0"/><radialGradient id="SVGID_2_" cx="-45.142" cy="55.216" r="185.375" gradientUnits="userSpaceOnUse"><stop offset="0" stop-color="#efca99"/><stop offset="1" stop-color="#edcaca"/></radialGradient><path fill="url(#SVGID_2_)" stroke="#843536" stroke-width=".25" d="M36.7 0c.4 1.3.9 2.6 1.2 3.2.3.8 4.9 4.8 7.6 6.4 0 0 3.9 2 7.6-.3 2.6-1.6 7-5.9 7.3-6.7.1-.6.4-1.6.7-2.6H36.7z"/><path fill="#b46565" d="M23.8 18.7s15.4 1.5 17.7 2.2c2.2.7 2.6.7 3.7 2.6 0 0 .1-2.9-3.6-3.7-3.7-.7-17.8-1.1-17.8-1.1zm49.2.4s-15.4 1.5-17.7 2.2c-2.2.7-2.6.7-3.7 2.6 0 0-.1-2.9 3.6-3.7 3.7-.7 17.8-1.1 17.8-1.1z" opacity=".33"/><path d="M47.7 44.5c0 3.8.1 8.3-1.7 11.5-2.6 4.5-6.1 2.9-9.9 4.7 6.8-.3 14-.3 20.7-.4-2.9-.1-5.6-1.7-8.3-2.6-.2-4.7-.9-9.5-.8-13.9" class="st0"/><ellipse cx="30.3" cy="50.5" class="st6" rx="1.2" ry="1.3"/><ellipse cx="66.5" cy="50" class="st6" rx="1.2" ry="1.3"/><path d="M55.8 5.8c1.2 3.6 3.5 9.1 8 9.1v-1c-4-1.5-5.7-5.9-5.5-10-1 .7-2.2 1.4-3.3 1.8M19.8 44.4l.6.6c.1 8.1.8 16.1 1.3 24.3h2c-.4-9.3-.4-16.4-1-26.3-.9.7-2.8 1.4-2.9 1.4zm53.8 24.9H76c-.2-2-.5-3.5-.5-7.2 0-5.6 1-8.6.9-13.9l.7-4C74.7 50 74 60.5 73.6 69.3z" class="st0"/><path fill="#ad242a" d="M43.7 1.4c.6-.3.4 0 1.3-.2 1.5-.3 1.8-.1 3.7-.1 2.7-.4 3.3.1 5.4.2-1 .3-1.3.9-2.1 1.4-.9.7-2.2.7-3.3.8-1 .1-2-.2-2.9-.7-1-.5-1.6-1.1-2.4-1.5" opacity=".17"/><path fill="none" stroke="#843536" stroke-width=".25" d="M43.2 1.2c3.8 1.1 7.7.5 11.5.1M43.3.7c-.1.5-.3 1-.1 1.4m3.2 1.1c.9.5 3.1.5 4.1.2m4-2.6c0 .3.1.9.2 1.1"/><radialGradient id="SVGID_3_" cx="-8.66" cy="70.76" r="167.508" gradientUnits="userSpaceOnUse"><stop offset="0" stop-color="#efca99"/><stop offset="1" stop-color="#edcaca"/></radialGradient><path fill="url(#SVGID_3_)" d="M22 68.3h53.5v3.3H22z"/></g></switch></svg>
