<svg xmlns="http://www.w3.org/2000/svg" xmlns:xlink="http://www.w3.org/1999/xlink" version="1.0" viewBox="0 0 105 43.3"><switch><g><pattern id="a" width="70.4" height="78.4" overflow="visible" patternUnits="userSpaceOnUse" viewBox="0 -85.6 70.4 78.4"><path fill="#D91C5C" d="M8.8 0l8.8-7.2-8.8-32z"/><path fill="#1B75BB" d="M26.4 0l8.8-7.2-8.8-32z"/><path fill="#D91C5C" d="M44 0l8.8-7.2-8.8-32z"/><path fill="#1B75BB" d="M61.6 0l8.8-7.2-8.8-32z"/></pattern><ellipse cx="51.8" cy="28.1" fill="#FBE200" stroke="#FBE200" rx="51.8" ry="13.7"/><pattern id="b" patternTransform="matrix(.605 0 0 .605 -3150.79 -3295.776)" xlink:href="#a"/><pattern id="c" patternTransform="matrix(.605 0 0 .605 -3238.26 -3277.767)" xlink:href="#b"/><ellipse cx="51.8" cy="28.1" fill="url(#b)" stroke="url(#c)" rx="51.8" ry="13.7"/><ellipse cx="52" cy="27.2" fill="#FFF" rx="47.5" ry="10.3"/><ellipse cx="52" cy="26.3" fill="#EDECEB" rx="42.1" ry="9.2"/><path fill="#A05124" stroke="#914520" d="M27.5 9.7s.9-1.2-.7-2.3c-1.6-1.2-4-1.4-3.5-2.5.6-1 1.7-1 2.2-1.7.5-.7 2.3-2.2 2.3-2.2s1.2 2.2 1.9 3.5c.7 1.3 1.4 1.7 2.7 1.7 1.3 0 2.9-.9 2.9-.9S44.8.5 48.8 0 66 1.4 69.4 3.3c3.5 1.9 9.7 7.5 12.7 11.8 3 4.3 5.3 6.6 4.8 7.6-.6 1-.4 3.6-2.7 5.3-2.3 1.7-4.2 3-6.5 3.7-2.3.7-31 1.4-31.4 1.6-.4.1-11.7-3.5-13.4-3.6-1.7-.1-4.8.1-6.1-.3-1.3-.4-4.5-.3-6.1-1-1.6-.7-3.2-1.6-3.5-2.3-.3-.7-1.3-1.9-.9-2.6.4-.7 1.2-2.6 2.2-3.6 1-1-.4-1.6 2.9-2.5 3.3-.9 5-1.4 6.1-2 1-.6 3.6.1 4-.1.4-.3-3.9-1.2-4.8-1.6-.9-.4-5.3-1.4-6.8-2.4-1.4-1-1.9-1.3-1.2-1.9.7-.6 2.6-.4 2.6-.4s-.3-1.7.9-1.7 3 1.4 3 1.4l1.4 1.2.9-.2z"/><path fill="#A05124" stroke="#54210D" d="M56.7 25.1s2.9-4.5 1.7-6.6c-1.2-2.2-6.8-5.9-13-6.9s-13.8 1-15.9 0"/><path fill="#A05124" stroke="#5F2211" d="M84.2 28.1c-.6.1-2.3-9.4-3.2-9.9-.9-.6-1.9-1.7-2.2-2.6-.3-.9-6.3-7.5-8.2-8.6-1.9-1.2-3.2-1.6-3.7-1.7-.6-.1-15.7-1-17.7-1.4-2-.4-2.6 0-3.9 0-1.3 0-4.5 1-4.5 1m-9.4 17.3c1.1-.7 1.5-2.6.9-3.7-.3-.6-2.7-3-3.3-3.1m2.7 3.1c-.7 1.3-2.8 1.2-3.5 1.2"/><path fill="#A05124" stroke="#A05124" d="M33.2 6.1c-1.2.6-5.4 1.1-5.8 2.6-.5 2.1 3.2 3.3 4.6 2.9"/><path fill="#F48020" d="M63.5 18c1.4 1.3 1.7 3.3 2.4 5.1 1-.1 1.5-.8 2.3-1 .7-.1 1.5 0 2.2-.1 1.9-.3 4.1-.6 5.3-2.8 1.8-3.3-3-7.1-5.5-8.7C65 7.2 52.4 1.6 46.6 5.4c.9 1.6 4.3 2 6 2.3 3.1.6 5.2.7 8.1 2.3.6.3 2.6 1.1 2.9 1.7.8 2.1-1 1.2-1.5 2.6-.7 2.1 1.2 3.6 2 5.7" opacity=".29"/><path fill="#8E421F" stroke="#8E421F" d="M83.7 20.3c.2-.2.5-.2.6-.6-2.7-8.6-13.1-16.4-22.5-15.2C64.7 8.9 72.5 7 76.3 11c2.8 3 4.6 8.7 8 10.2m-29.4 3.5c2.8-1.9 2.6-4.6.8-7.2-2.1-3-6.1-2.8-8.3-4.9 2.5-1 9.6 1.3 11.3 3.7 1.9 2.8-.2 9.3-4.1 9.2m-21.3-2.6c.8 3.2 1.4 6.5 5.4 5.4 2.9-.8 5.7-2.7 8.7-3.4-2.8 5.3-6 4.6-11.5 4.9-2 .1-4.4 1-6.3.2-1-.4-1.4-1.6-2.1-1.9-1.4-.6-1.8-.4-3.4-.3-1.8.1-5.2.2-6.6-1.1-2.2-2-.5-3 .9-4.6 1.8-2 5.3-7.2 9-5.3 3.6-1.3 0 4.4.2 5.2.3 1.1 1.9 1.1 2.5 1.8.9.9.5 1.7 1.5 2.7 1.4-.4 1.7-1.7 1.4-3" opacity=".6"/><path fill="#8E421F" stroke="#8E421F" d="M56.8 25.4c7.9-4.5-2.6-12.4-7.2-13.8-3.7-1.2-7.3-.5-11-.3-2.7.2-8 1.1-10.3-.1-.2-.3.2-.3.1-.6-.2-.2-.6-.5-.7-.7 4.7-.3 8.6 1 13.2.8 4.8-.2 8.3 1.4 12.7 2.9 4.5 1.5 7.3 3.5 7.8 8.4.5 5.4-4 5.5-8.3 4.9 1.7-.5 3.4-1 5.1-1.8" opacity=".6"/><path fill="#8E421F" stroke="#8E421F" d="M76.6 13.4c-.6-1.6-3.3-3.5-5.1-3.6.4 4.5 5 5.3 3.5 9.7-.9 2.8-1.7 2.5-3.8 3.2-1.4.5-4.4 2.9-5.3 1.1-.3.2-1 .3-1.3.5-.6-4.9-4.9.7-5.8 2.5-.3-.3-1.1-.5-1.4-.7-4.4 6.3 14.6 6.8 18.1 6.3 3.2-.4 7-1.5 9.2-4.4 2.6-3.4.4-5.4-.9-8.8-.7.8-1.5 1.5-2.5 1.6.3-2.9-1.5-2.3-2.7-3.9-1.1-1.4-.6-2.6-2.6-3.8" opacity=".6"/><path fill="#8E421F" stroke="#8E421F" d="M60.2 20.6c2.8-2.6 2.3.9 3.2 2 1.6 2.2 2.8.9 4.9-.6-1.4-1-1.8-2.4-.6-3.7.8.3 1.7.2 2.5.5.3-1 .8-1.8 1.8-2-.2-.3-.4-.9-.5-1.1 1.2-1.4 3.7.2 3.9 1.8.1.9-1.7 3.5-2.3 4.2.2.2.4.4.5.6-1.4 1.3-3.6 1.8-4.9 2.3-1.5.6-4 2-5.7 2.5.3-3 .4-6.2-3.4-6.6 0-.4.4-.3.5-.5" opacity=".42"/><path fill="#FFF7F2" d="M63.5 17.4c-.2-1.8.4-4-2.8-4.1.5-.7.3-1.4.4-1.9-.9.1-1.7 0-2.5.5.8-1.7-1.7-2.8-2.6-3.1-1.3-.5-2.9-1.8-4.3-.1-.2-.5-.4-.5-.6-1-1.1.1-2.7-.7-3.3-.7-1.3 0-2 .8-3.3 1-1.1.1-2.3-.7-3.7-.5-1.2.2-1.4 1.4-2.9 1.1.6 2 5.1 1.3 6.9 1.4 3 .2 4.4 1.7 6.9 2.9 2.2 1 4.3 1.3 6.4 2.8 1.9 1.4 3.4 3.1 5.7 1.5m-33-1.9c2.5 1.6 8 .9 10.1-1.2-.2-.2-.7-.8-.9-.9 1.6.2 3.9-.6 5.4 0-.9.4-1.6 1.1-2.2 1.7.9-.1 1.9-.3 2.8-.5.1.3 0 .5.1.8.8-.1 1.5.2 2.2-.2-.1.2-.3.6-.5.8.6-.2 1.4 0 2-.2-.5.6-.2 1-.5 1.6.5-.1 1.2.2 1.7.1-.2.3-.4.7-.7 1.1.7-.2 1.5 0 2.1-.2l.2.2c-1 1.2-3.3 1.6-2.7 3.2.1 0-.3.5-.3.4-.7.4-1.3.4-1.3 1.6 0-.5-.4-1-.5-1.4-1.5.3-1.7 1.9-2.5 2.8l-.2-.2c.8-3-3.6-.6-4.7-.6-1.5 0-3.6-2.5-4.5-.2.2-.6.2-1.2.3-1.8L36 22c-.2.2-.7.4-1 .6.1-.1.4-.5.5-.6-.1-.2-.4-.5-.4-.8-.4.5-1.4.9-1.9 1.4-.8-1-.2-2-.6-3.2-.4-1.5-1.5-2.6-1.8-4.1" opacity=".07"/><path fill="#8E421F" stroke="#8E421F" d="M30.8 11.3c.5 2.9 9.9.4 11.8 0 0 2.3 1.9.5 2.9 1.9-.9.2-1.6.6-2.5.7 1 .4 2.3.1 3.4-.3-.3 1.2.2.8.6 1.7.4-.4 1.1-.6 1.5-1.1-.1.3-.1.7-.3 1 .5.1 1.2.8 1.4.9-.8.5-.8 1.1-1.2 1.7 1.3.3 2.2-.7 3.4-.2-.6.6-1.5 1.1-2.4 1.4.6 0 1.3.4 2.1.6-.7.8-1.6 1.2-2.4.9-.7.9-.7 1.9-1.2 2.9-.2-.3-.9-.6-1.2-.9-.9.8-1.5 2.1-2.8 2.3-.1-.4-.3-.7-.4-1.1-1.6.8-2.3 3-4 3.4-.1-.3-.3-.7-.3-1.1-1.8 2.2-2.7-.7-4.3.3-1.6 1 .4 4.8 1.8 4.8 6.5.3 7.9 2.1 10.9 1.2 4.5-1.3 8-3.5 9.9-7.8 2.2-4.8 0-7.6-4.2-10.3-3.4-2.2-6.4-3.1-10.6-3-2.3.1-4.3.4-6.6.3-1.9-.1-4-1-6-.5 0 1 .4 1 .5 1.1" opacity=".6"/><path fill="#FFF7F2" d="M64.8 15.5c0-.5-.3-1.9-.9-2.5-.3.2-.8.4-1.1.7.5-1 0-1.3 0-2.2-1.1.2-2 .2-2.8-.4.6-.9.4-1.5-.1-2.5-.3.4-1 .5-1.4 1C57.3 8 54.7 6.3 53 8.3c-.9-2.4-2.8-.4-3.8-2-.8.1-1.7.4-2.5.6 0 .3-.1.7-.1 1.1-.8-1-2.1-1-3.1-.4-.1-.1 0-.4-.1-.5-.7.5-1.2.5-1.4 1.7-.4-.3-1.3-.6-1.6-1.1.3 2.8 3.8 1 5.5 1 2.1 0 4.7.5 6.9.8 1.4.2 2.5.6 3.7 1 .7.2 2.6.6 3.2.9 1.1.6 1.4 1.8 2.1 2.3.9.7 2.4 1 2.8 1.5" opacity=".07"/><path fill="#A05124" stroke="#914520" d="M36.3 4.6c-1.2.6-11 3.1-9.2 4.6m2-6c-.4-.5-.9-2.1-1.5-3.1-1.5.2-1.3 1.3-2.2 2-.9.8-1.9 1.2-2.5 2.2.6.9 1.5 1.6 2.4 2.2 1.2-.9 2-2.2 3-3.1l-.6-1.2m-4 6.8c-.1-.3-1.2-1.3-1.9-1.7 0 .7-.4 1.4-.1 2.2-1.4-.9-3.9-.8-2.8 1.4.6 1.2 3.5 1.3 4.5 1.5.2-1.2.7-2.1 1.4-3.1-.3-.3-.6-.5-1-.6"/><path fill="#FFF7F2" d="M28 4.6c0-.1-.3-1.9-.6-2.5-.7.8-1.3 1.7-2.1 2.5-.3-.1-.7-.2-1-.3 0 0 .3.3 0 .3.2.2 1.1.7 1.1.7.5-.2 1.3-.7 1.7-1m-4.6 5.2c-.9-.3-1.4-.4-1.5.8-.7-.1-1.3.1-1.9-.2.4 1.8 4.7 1.3 4-.9" opacity=".16"/></g></switch></svg>
