<svg xmlns="http://www.w3.org/2000/svg" version="1.0" viewBox="0 0 63.35 188.96"><path fill="#d0e7c4" stroke="#669866" stroke-width=".25" d="M1.85 3.44l.19-.7.25-.74V.6l.52-.6 2.07 2.28 1.69 4.49L8.7 9.24l-.01 2.95-.55 2.21 1.45 1.57 1.46 2.47 2.8 7.96 2.86-.37.61 1.58-.76 5.05-3.87 2.02-.51 1.6.67 1.35-.42 1.68 1.09 3.79-.34 1.43 1.43 2.36v.59l-1.68.59-1.1 4.21-1.35 3.19-.08 2.61-.56.82 1.26 4.79-1.01 1.51-.25 5.38 1.64 2.19 2.23 3.78.25 1.68 1.01.92.59 2.78.84 1.94-1.1 2.02v3.45L16.9 93l-1.6 1.73-.92 1.85.84 2.28.5 2.1 2.78 4.63v.59l-1.69 1.26.51 1.6-.59 2.02.59 1.09-.17 1.26.59 1.01v2.53l1.46 3.49 1.49 2.73-1.09.51 1.26 4.04 1.26.51.33.92 1.35 1.68 1.35 3.62 2.19.17.5 1.35-3.41.8 2.4.79 1.77 1.35-1.09 1.6.93 1.51-.17 1 1.43 2.28-.34 1.26.5 1.94-.76 1.43v1.85l1.43 1.51-.42 1.43.42 1.52-2.19 2.69 1.34 3.2 2.69 3.12 2.28-.17 1.51.42 1.77 3.95 2.52 2.19h4.38l5.62.92.07.51.2.67 1.35 1.01 2.19-.17 3.79 7.48 1.85 3.54 2.27 1.77 1.18 1.6-1.69-.85-1.76-.92-2.02-.25 2.02 1.26h-1.69l-2.61-1.18-.59-1.01.34-.92-1.1.08-.76 1.68-1.85-.67-.25-.67-.42-1.18h-3.54l-1.01-.59 1.09-1.17-1.35.5-.75-.92-.51-1.01-2.86.42-.42-1.01-1.43.5-1.51-1.51 1.94-.59 2.61 1.68 2.01.17 1.77.42 2.02.67.42-2.27 3.45 3.03 3.88.42-3.96-1.26-1.26-1.52v-.51l1.43-.75.08-.67-1.09.08-1.85.67-1.69-1.94.17-1.6 1.85-1.43-3.7 1.18.42 2.44 1.01 2.28-.5.58-1.93-.33-2.52-.92-.93-.85 1.18-.76v-1.34s-2.02 1.18-1.26 2.69-1.93-.93-1.93-.93l-1.85-1.01 1.26-.08-.84-2.1-.17 1.59h-1.09c-.25 0-.68-.84-.68-.84l-.17-1.1-.76.17-1.34-1.43-.76-1.09 2.95-.17-3.03-.59-1.01.25-.84-1.01-.5-1.26s-.17-1.18-.17-1.43-1.43-.25-1.43-.25l-.34-.76s-1.34.08-1.6.08-.5-.25-.5-.25l.42-.93.84.59 1.52-.68-1.18-.42-.93-1.01.76-.34-2.36-.92-1.68-.67-.5-1.18-.59-1.77-.42 1.6-1.6-1.35-.17-1.51 1.43.59-.25-1.34-.93-1.52-.93-1.85 1.85.93-.25-1.01-1.85-.51v1.18s-1.18-.5-2.36-2.18c-1.18-1.69 1.18-.34 1.18-.34l.67.5 1.6.34-.5-.84.17-.76 1.18-.42-2.44-.5.51-.59 1.01.09-1.18-.93 1.01-1.68-1.77-1.34-.84.42-2.44-1.09-.09-.76-1.26.92.42 1.09-1.43-1.01 1.68-2.35-.08-.67-.59-1.01.84-.42h2.44l1.26.93 1.09.76.25-1.94-.76-.93.34-1.18-.59-1.51.67-.42 1.09-.84-.25-1.6-.84-.34-1.85-1.26.67-1.94-2.02-1.52.67-2.27-1.18-3.03.25-1.26-1.18-.67.51-1.09-1.68-1.18v1.26l-2.61.25 2.27 2.27-.59 1.01.59.67s.42 2.02.42 2.27-.17 1.6-.17 1.6l-2.78-.93-.08-2.61-.59-3.95h.59v-.85l-.59-1.09-1.69-1.94-.08-2.77-.42-2.53.76-1.01-.08-2.1-2.44-4.29-.34-2.19-1.6-2.02v-1.01l-.42-1.18.42-.26.84.17.42-.59-.51-1.93.59-.51v-3.2l.25-.93-.17-1.26.67-2.02-.17-4.63.17-1.85.76-1.18-1.26-2.36.59-1.35-.56-3.23-.42-1.43-2.78-8.24.76-.17.25-2.19-.42-2.36-1.01-1.09-.25-1.42.59-2.11v-3.62l.67-1.26-.67-1.34.42-.76.09-5.47-.77-.84.09-1.52.67-1.1-.67-1.6-.59-3.78.08-3.53-.75-.42v-1.94h.67l.34-8.58-1.09-3.03v-3.11L.67 7.33.33 5.31 0 4.15l1.85-.71z"/></svg>
