<svg xmlns="http://www.w3.org/2000/svg" version="1.0" viewBox="0 0 248 136.3"><switch><g><path fill="#CC785F" stroke="#9A3421" d="M5.2 68.6l79.6-33.5 155.6 72.2H5.2z" opacity=".51"/><g opacity=".75"><path fill="#CC785F" d="M18.5 49.3v7.1h25.4v-7.1H18.8"/><path fill="none" stroke="#9A3421" d="M18.5 49.3v7.1h25.4v-7.1H18.8"/><path fill="#CC785F" d="M46.2 49.3h29.4v7.1H46.2z"/><path fill="none" stroke="#9A3421" d="M46.2 49.3h29.4v7.1H46.2z"/><path fill="#CC785F" d="M77.7 49.8h29.6v6.6H77.7z"/><path fill="none" stroke="#9A3421" d="M77.7 49.8h29.6v6.6H77.7z"/><path fill="#CC785F" d="M110.9 49.3h21.6v7.1h-21.6z"/><path fill="none" stroke="#9A3421" d="M110.9 49.3h21.6v7.1h-21.6z"/><path fill="#CC785F" d="M85.8 58.4h29.8v7.9H85.8z"/><path fill="none" stroke="#9A3421" d="M85.8 58.4h29.8v7.9H85.8z"/><path fill="#CC785F" d="M70.2 58.4h13.5v7.9H70.2z"/><path fill="none" stroke="#9A3421" d="M70.2 58.4h13.5v7.9H70.2z"/><path fill="#CC785F" d="M38.4 58.4h29.5v7.9H38.4z"/><path fill="none" stroke="#9A3421" d="M38.4 58.4h29.5v7.9H38.4z"/><path fill="#CC785F" d="M22.8 58.4h13.5v7.9H22.8z"/><path fill="none" stroke="#9A3421" d="M22.8 58.4h13.5v7.9H22.8z"/><path fill="#CC785F" d="M6.1 58.4h14.7v7.9H6.1z"/><path fill="none" stroke="#9A3421" d="M6.1 58.4h14.7v7.9H6.1z"/><path fill="#CC785F" d="M6.1 68.7h5.1v7.9H6.1z"/><path fill="none" stroke="#9A3421" d="M6.1 68.7h5.1v7.9H6.1z"/><path fill="#CC785F" d="M14 68.7h29.4v7.9H14z"/><path fill="none" stroke="#9A3421" d="M14 68.7h29.4v7.9H14z"/><path fill="#CC785F" d="M46.2 68.7v7.9l29.3.6v-8.5z"/><path fill="none" stroke="#9A3421" d="M46.2 68.7v7.9l29.3.6v-8.5z"/><path fill="#CC785F" d="M77.7 69.3h29.6v7.9H77.7z"/><path fill="none" stroke="#9A3421" d="M77.7 69.3h29.6v7.9H77.7z"/><path fill="#CC785F" d="M6.1 79h19.7v8.5H6.1z"/><path fill="none" stroke="#9A3421" d="M6.1 79h19.7v8.5H6.1z"/><path fill="#CC785F" d="M28.7 79v8.4h29.1v-7.9z"/><path fill="none" stroke="#9A3421" d="M28.7 79v8.4h29.1v-7.9z"/><path fill="#CC785F" d="M6.1 89.6h5.1v8.1H6.1z"/><path fill="none" stroke="#9A3421" d="M6.1 89.6h5.1v8.1H6.1z"/><path fill="#CC785F" d="M14 89.6v8.1h29.4l-.1-8.1z"/><path fill="none" stroke="#9A3421" d="M14 89.6v8.1h29.4l-.1-8.1z"/><path fill="#CC785F" d="M6.1 99.9h19.7v7.3H6.1z"/><path fill="none" stroke="#9A3421" d="M6.1 99.9h19.7v7.3H6.1z"/><path fill="#CC785F" d="M28.7 99.9v7.2h29.7v-6.6z"/><path fill="none" stroke="#9A3421" d="M28.7 99.9v7.2h29.7v-6.6z"/><path fill="#CC785F" d="M60.9 99.9h29.7v7.3H60.9z"/><path fill="none" stroke="#9A3421" d="M60.9 99.9h29.7v7.3H60.9z"/><path fill="#CC785F" d="M92.5 100.4h23v6.7h-23z"/><path fill="none" stroke="#9A3421" d="M92.5 100.4h23v6.7h-23z"/><path fill="#CC785F" d="M77.7 89.6h29.6v8.5H77.7z"/><path fill="none" stroke="#9A3421" d="M77.7 89.6h29.6v8.5H77.7z"/><path fill="#CC785F" d="M75.5 89.6v8.1H46.2v-7.5z"/><path fill="none" stroke="#9A3421" d="M75.5 89.6v8.1H46.2v-7.5z"/><path fill="#CC785F" d="M60.9 79v8.4h29.7l-.1-8.4z"/><path fill="none" stroke="#9A3421" d="M60.9 79v8.4h29.7l-.1-8.4z"/><path fill="#CC785F" d="M92.5 79.6v7.8l23 .6v-8.4z"/><path fill="none" stroke="#9A3421" d="M92.5 79.6v7.8l23 .6v-8.4z"/><path fill="#CC785F" d="M118.8 58.9V66h29.9v-7.1h-29.5"/><path fill="none" stroke="#9A3421" d="M118.8 58.9V66h29.9v-7.1h-29.5"/><path fill="#CC785F" d="M151 58.9h10.4V66H151z"/><path fill="none" stroke="#9A3421" d="M151 58.9h10.4V66H151z"/><path fill="#CC785F" d="M109.3 69.3h29.8v7.9h-29.8z"/><path fill="none" stroke="#9A3421" d="M109.3 69.3h29.8v7.9h-29.8z"/><path fill="#CC785F" d="M142.4 70.1v7.1h29.9v-7.1h-29.5"/><path fill="none" stroke="#9A3421" d="M142.4 70.1v7.1h29.9v-7.1h-29.5"/><path fill="#CC785F" d="M174.6 70.1h11.8v7.1h-11.8z"/><path fill="none" stroke="#9A3421" d="M174.6 70.1h11.8v7.1h-11.8z"/><path fill="#CC785F" d="M118.4 79.6h29.8v7.9h-29.8z"/><path fill="none" stroke="#9A3421" d="M118.4 79.6h29.8v7.9h-29.8z"/><path fill="#CC785F" d="M151.4 79.6v7.2h30v-7.2h-29.5"/><path fill="none" stroke="#9A3421" d="M151.4 79.6v7.2h30v-7.2h-29.5"/><path fill="#CC785F" d="M183.6 79.6h20.3v7.1h-20.3z"/><path fill="none" stroke="#9A3421" d="M183.6 79.6h20.3v7.1h-20.3z"/><path fill="#CC785F" d="M109.3 90.2h29.8v7.9h-29.8z"/><path fill="none" stroke="#9A3421" d="M109.3 90.2h29.8v7.9h-29.8z"/><path fill="#CC785F" d="M142.4 90.2v7.1h29.9v-7.1h-29.5"/><path fill="none" stroke="#9A3421" d="M142.4 90.2v7.1h29.9v-7.1h-29.5"/><path fill="#CC785F" d="M174.6 90.2H204v7.1h-29.4z"/><path fill="none" stroke="#9A3421" d="M174.6 90.2H204v7.1h-29.4z"/><path fill="#CC785F" d="M118.9 99.8h29.8v7.9h-29.8z"/><path fill="none" stroke="#9A3421" d="M118.9 99.8h29.8v7.9h-29.8z"/><path fill="#CC785F" d="M152 100.2v7.1h29.9v-7.1h-29.5"/><path fill="none" stroke="#9A3421" d="M152 100.2v7.1h29.9v-7.1h-29.5"/><path fill="#CC785F" d="M184.2 100.2h29.4v7.1h-29.4z"/><path fill="none" stroke="#9A3421" d="M184.2 100.2h29.4v7.1h-29.4z"/><path fill="#CC785F" d="M215.7 100v7.1h26.1V100h-25.7"/><path fill="none" stroke="#9A3421" d="M215.7 100v7.1h26.1V100h-25.7"/><path fill="#CC785F" d="M207 89.6h19v7.1h-19z"/><path fill="none" stroke="#9A3421" d="M207 89.6h19v7.1h-19z"/><path fill="#CC785F" d="M58.3 38.4h29.8v7.9H58.3z"/><path fill="none" stroke="#9A3421" d="M58.3 38.4h29.8v7.9H58.3z"/><path fill="#CC785F" d="M91.4 38.9V46h27.4v-7.1h-27"/><path fill="none" stroke="#9A3421" d="M91.4 38.9V46h27.4v-7.1h-27"/></g><path fill="none" stroke="#F7BD19" stroke-width="10" d="M163.1 46.7V29.5h54.3v17.2H208v82.1l-35.3.2V46.6z"/><path fill="#CC785F" stroke="#9A3421" d="M163.1 29.5h54.3v17.2h-54.3zm9.6 18.1v18L208 80.8V46.7zm0 80.4V76l8.2 3.9v48.9zm27.9.8h7.4V92.5l-8.1-3.8zm-19.5.2l18.8-.1V88.7l-19-8.8z"/><path fill="#CC785F" stroke="#9A3421" d="M163.1 29.5h8.5v8.6h-8.5zm44.9 0h9.4v8.6H208z"/><path fill="#CC785F" stroke="#9A3421" d="M171.6 38.1h18.6l.2-8.3-18.8-.3z"/><path fill="#CC785F" stroke="#9A3421" d="M208 38.1h-17.8l.2-8.6H208zm-8.9 7.9v-7.9h18.3v8.6h-18.3zm-18.2-7.9h18.2v8.6h-18.2z"/><path fill="#CC785F" stroke="#9A3421" d="M163.1 38.1H181v8.6h-17.9zm27.3 9.1H208v9.5h-17.6zm-17.7 0h17.7v9.5h-17.7zM208 65.5l-7.9-.1-.1-8.7h8z"/><path fill="#CC785F" stroke="#9A3421" d="M181.1 65.6l18.7-.4-.1-8.5h-18.6zm-8.4-8.9h8.4v8.9h-8.4zM208 74.2h-13.5l-4.1-1.9-.2-6.8 17.8.1zm-35.3 8.5h8.4v-2.8l-8.4-3.9zm8.4 9.5h-8.4v-9.5h8.4zm18.7 0l8.4-.1-8.3-3.4zm-27.1.1h8.5v9.1h-8.5zm27.3-.1h8v9.2l-8-.1z"/><path fill="#CC785F" stroke="#9A3421" d="M199.9 110.3h8.2l-.1-8.9-8.1-.1zm-27.2 0h8.4v-8.9h-8.4zm.3 8.7h8.1v-8.7H173zm-.3 0h8.5v10h-8.5zm27.2 0h8.1l.1-8.7h-8.2zm0 9.9h8.1v-9.8h-8.1zm-18.8-18.6h18.8v8.7h-18.8z"/><path fill="#CC785F" stroke="#9A3421" d="M181.1 101.4l18.8-.1v9h-18.8zm0-9.2H200l-.1 9.1-18.8.1zm0-9.5h5.2l13.6 5.9-.1 3.5h-18.6l-.1-9.4zm0-2.8l5.3 2.8h-5.3z"/><path fill="#9A3421" stroke="#9A3421" d="M172.9 46.4h35.4v5l-35.4.8z" opacity=".43"/><path fill="none" stroke="#9A3421" d="M181.1 47.2v20.5m18.8-21.3v33"/><path fill="#433B30" d="M5.2 68.6L0 58.2l82.6-38L247 99.4l-4.5 8.9L84.8 35.1z"/><path fill="#F7BD18" d="M185.6 0h8.9v11.8h3.5l-8.4 8.4-8-8h3.9z"/></g></switch></svg>
