<svg xmlns="http://www.w3.org/2000/svg" version="1.0" viewBox="0 0 96.3 87.3"><switch><g><path fill="#07B159" d="M95.7 72.1v-3.6s-6.4-6.6-7-8.5c-.6-1.9 1.8-8.2 1.8-8.2L89.6 41s-1.8-4.2-2.1-5.5c-.3-1.3-.6-2.7 0-3.7S96.4 5 96.4 5H35.3s3 16.2 3.1 17.8c.2 1.6.6 12.2.6 12.2v13.6l1.1 9.8s-.5 3.8-1.1 4.5c-.6.6-3 4.8-3 4.8l-1.3.3v5.1l61-1z"/><path fill="#F5F6F7" d="M37.3 16.2s1.8 15.2 1.8 18.9c0 3.7.3 13.3.3 13.3s19.2 2.3 26.2 0c6.9-2.3 22.1-11 22.1-11l-1.1-3.7s5.6-15.3 6.3-17.5c.7-2.2-23.1-5.8-32.2-6.3-9.3-.5-23.4 6.3-23.4 6.3z"/><path fill="#029E4B" d="M35.3 5.1L34.7 0h61.1l.5 5.1z"/><path fill="#C82732" d="M81.2 14.7c-2.3-.6-2.4.5-4 1.7-1.4 1.1-3.2 1-4.8 1-3.3 0-6.5-.9-9.6-1.9-2.9-.9-6.3-2.6-9.5-2.1-1.5.2-2.8 1.2-4.3 1.4-1.6.2-3-.1-4.6.4-3.9 1.4-3 5.1-3.4 8.5-.3 3.1-.3 5.9.2 9 .5 3.3 2.2 6.2 5.9 6.1 1.8 0 2.8-.7 3.7-1.9 1.1-1.6 2.3-3 4.3-3.4 2.9-.6 4.3 2.1 6.4 3.5 1.9 1.4 4 2.1 6.3 2.1 2.2 0 4.4.4 6.5-.1 1.2-.3 2.1-.8 3.4-.8 1.1 0 2.1.2 3.1 0 2.7-.7 3.1-3 3.3-5.4.2-1.4.1-2 .8-3.3.6-1.2.9-1.8 1-3.2.2-3.5-.4-11.9-5.5-11.7"/><path fill="#1F5459" d="M39.3 47.3c2-.1 3.7.7 5.6 1 2 .3 4.1.1 6.1.1 4.1 0 8.5-.6 12.5-1.2 4-.7 8.5-1.4 12.1-3.4 2.2-1.2 4.5-3.1 6.3-4.8.7-.7 1.7-1.5 2.3-2.4.7-1 .9-2.5 2.2-2.9.5 1.1.5 2.5 1.1 3.7-7.3 5.7-15.7 9.6-24.6 11.8-3.8.9-8.2.5-12.1.7-4.1.2-8.2.3-12.3 0 .2-.9 0-1.9.4-2.7"/><text fill="#FFF" font-family="'SegoePrint'" font-size="14.439" transform="translate(42.794 29.65)">Chips</text><path fill="#029E4B" d="M34.7 68.1v5.2l61-1.2-.1-3.6z"/><text fill="#FFF" font-family="'Rockwell'" font-size="9.18" transform="translate(68.466 52.284)">Lime</text><path fill="#ECDA98" stroke="#CC2027" d="M44.7 66.7c0-2.1.1-3.9-1.2-5.6-1.4-1.7-3.6-2.6-5.1-.1-.8 1.4.1 1.4.6 2.6.3.8-.6 2.1-.3 2.8.6 1.1 4.5.8 5.6.8"/><path d="M23.8 80.1c1.1-2.7 16.2-3.8 18.8-.1-7.1.4-9 .7-18.4.1" opacity=".02"/><path fill="#ECDA98" stroke="#ECDA98" d="M13.5 63.9s-1.6-1.6-2.1-2.2c-.5-.6-3.4-.9-4.1-1.3-.7-.5-4.6 0-4.6 0L.4 61.7s-.5.7.8 1.4 4.1 1.7 5.7 1.9c1.6.2 6.7 3.3 6.7 3.3l2 1.5-2.1-5.9z"/><path fill="#DFC17F" stroke="#ECDA98" d="M.3 62.1S-.9 63 2 64.4c3 1.4 8 3.9 8.7 4.6.7.7.8.2 2.1 1.3s3.2 2.4 3.2 2.4l.8-1.4-1.4-1.5-4.1-2.8s-2.4-1.4-3.4-1.7c-1-.3-2.7-1.1-4.1-1.4-1.4-.2-3.1-1.1-3.1-1.1l-.4-.7z"/><path fill="#ECDA98" stroke="#CC2027" d="M11.8 69.9c1-.2 1.7 1 2.3 1.6.9.8 2 1.3 2.8 2.1 1.8 1.7 1.8 3.4 2.4 5.6-1.8-.7-6-.8-7.1-2.7-.5-.9 1-1.9.9-3.3.1-.4-.6-3.4-1.3-3.3z"/><path fill="#EDD68B" stroke="#B9902E" d="M14.6 69.3c-.6-1.7.1-3-.5-4.6-.6-1.8-.2-3.2.8-4.9.9-1.4 2.4-3 4.1-3.4.8-.2 4.6-.9 4.4.2-3.3.4-6.1 2.4-6.4 6-.2 2.7-.7 6.3-.1 8.9"/><path fill="#DFC17F" stroke="#DFC17F" d="M37.8 51.8c.8.3 1.1 1.2 1.5 1.8.5.8 1.6 1.5 1.9 2.4.2.6.2 1.6-.3 2.1-.8.9-1.4.1-2.3-.2-1.1-.4-4-.4-3.7-2.1.1-.5 1.1-1.8 1.4-2.3.3-.6 1-2.3 1.7-1.7"/><path fill="#ECDA98" stroke="#CC2027" d="M39.8 77.2c1.2-1.1 0-2.2-1.3-2.2-1.4 0-1.8 1.1-2.9 1.5-2 .9-4.4 1.2-6.6.8-2.1-.4-4.9-.9-6.4-2.5-.9-.9-1.2-2.1-2.6-2.4-.5-.1-1 0-1.5-.1-.7-.1-1.2-.5-1.9-.6.9-.1 2 0 2.7.5.6.3.9.7 1.5 1 .5.2 1 .3 1.5.5 1.2.5 1.8 1.6 3.1 1.9.5.1 1.1 0 1.6.1.6.2 1 .8 1.6.8.8.1 1.9-.6 2.8-.6 1.1 0 2 0 3.1-.1 1.2-.1 2-.5 3.2-.7 1.2-.2 2.4-.1 2.7 1.2"/><path fill="#ECDA98" stroke="#CC2027" d="M19.3 79.2c2.2-1.7-7.5-9.8.2-6.6.5.2.7.5 1.2.8.2.1.6-.1.8.1.2.2.2.5.3.7.9.9 1.4 1.5 2.6 2 1 .5 1.9 1.1 3.1 1.2 2 .2 4 .5 6 .3 1-.1 2.1-.6 2.9-1.2.8-.6 1.7-1.8 2.9-1.4.9.3.9 1.8.2 2.5-.8.8-2 .3-2.9.1-2-.4-4 .1-6 .6-1.2.3-1.7.4-2.9.1-1.1-.3-2.1-1-3.2-1.1-1.3-.1-1.9.4-2.6 1.4-.5.7-.2.8-.9.9-.4.1-1.2-.3-1.6-.4"/><path fill="#ECDA98" stroke="#CC2027" d="M52.1 68.8c-1.2-.2-2.2.9-3.2 1.4-.5.2-1.1.1-1.5.2-.5.2-.8.6-1.3.9-.6.4-1.2.3-1.9.5-1.4.5-2.4 1.1-3.9 1.4-1.2.3-2.5.6-3.8.9-1.4.3-2.8 0-3.3 1.6 1.5.3 3.2-.2 4.6-.4.6-.1 1.8-.6 2.3.2.6.8-.7 2 .9 2 .7 0 1.7-.9 2.5-1 .8-.1 1.6.4 2.3 0 .5-.3 1.2-1.8 1.6-2.3.8-1.1 1.5-2.6 2.5-3.5 0 .1 2.9-1.8 2.2-1.9z"/><path fill="#ECDA98" stroke="#CCB364" d="M40.9 61c-1.5 2.2-2.6 4.3-3.9 6.6-.6 1.1-1.3 2.1-1.9 3.2-.7 1.4-1.5 2.1-2.5 3.2-.8 1-.9 2.2-2.3 2.4-1 .1-2.5-.2-3.4-.5-1.2-.4-2.2-.5-3.2-1.2-1.1-.7-2.1-1.8-3.3-2.3-.8-.3-2.5-.1-3.1-.7-.6-.6-.4-2.3-.6-3.2-.3-2.4-.4-5.5.6-7.7 1-2.1 3.2-3.6 4.7-5.3 1.5-1.7 4-2.1 6.2-2.2 1.7-.1 3.7.5 5.2 1.5 1.4 1 1.7 2.3 3.4 2.8 1.6.4 5.9.7 4.1 3.4z"/><path fill="#ECDA98" stroke="#D3BA6D" d="M18.9 56.4c-1.5-.8-6.1-.9-6.9.6-.7 1.2-.5 2.2-.3 3.6.3 1.7.7 2.3 2.1 3.5 0-1.6-.1-2.3.8-3.9 1-1.5 2.3-2.4 3.7-3.5"/><path fill="#DFC17F" stroke="#DFC17F" d="M19.5 56.3c-.8 0-1.5-.4-2.4-.5-.8 0-1.7.4-2.3-.1-.8-.6-1.5-2.9-1.2-3.8.6-1.8 2.9-.1 3.7.9.4.5.7 1.1 1.1 1.7.3.5 1 1.2 1.1 1.7"/><path fill="#F8AF67" d="M34 74.4c-1.3-1.1 2.5-3.6 3.3-4.1.6-.3 1.3-.3 1.8-.7.5-.4 1-1 1.6-1.4 1.1-.8 2.1-1.9 3.3-2.3.6-.2 2.5-.6 2.7.3.3 1-3.3 3.1-4 3.6-1 .7-2.3 1.1-3.1 1.9-.6.6-.4.8-1.2 1-.5.2-1 .1-1.6.1-1.1 0-2.3-.2-2.7 1.2"/><path fill="#ECDA98" stroke="#D3BA6D" d="M14.1 51c1-.9 3.3-.5 4.6-.5 1.5 0 3.2.2 4.6-.1 1.4-.3 3.2-1.4 4.7-1.1 1.5.3 2.2 2.6 2 4.3-1.7.3-3.6-.4-5.4.1-2.3.5-3 2.5-5.3 2.5-.2-1-1.5-2.3-2-3.3-.8-1.3-1.9-1.4-3.2-2.1"/><path fill="#EDD68B" stroke="#B9902E" d="M41.9 67.2c0-.3 0-.5-.1-.7-.2.1-.5.1-.7.3 0-1.1-.8-2.9-1.5-3.7-.7 1.5-1.5 3.2-2.4 4.5-.9 1.4-1.8 2.9-2.5 4.4.7-.3 1.1-.9 1.7-1.3.7-.4 1.3-.5 2-.8 1.5-.6 2.1-2.4 3.8-2.8"/><path fill="#ECDA98" stroke="#CC2027" d="M41.8 79.3c-1.4 1-3.7-.5-5.2-.7-1.6-.2-3.6-.5-5.3-.3-2.1.3-3.2.1-5.2-.5-.9-.3-1.8-.6-2.7-.2-.7.3-2 1.6-1.4 2.3 0-2.3 2.5-2 4.1-1.5 1.9.5 3.2.6 5.2.5.7 0 1.6-.1 2.3 0 1 .1 1.7.6 2.7.6 1.3 0 4.2.8 5.2 0m8.4-8.2c-.5 1.3.2 2.8-.3 4-.3.9-2.2 3.3-3.4 2.9-1.6-.6.2-2.5.7-3.2.9-1.2 2.4-2.6 2.8-4.1"/><path fill="#ECDA98" stroke="#CCB364" d="M48.2 65.4c0-1.7-1.4-3.2-2.4-4.4-.6-.8-.8-1.4-1.7-.8-.3.2-.2.8-.4 1.1-.3.5-.8.7-1 1.3 1.2.9 1.6 1.4 1.6 3 .2.1.8-.1.9 0 .1-.1.3-.1.5-.1.3.1.4.6.5.7.6.3 0 .5.9.2.4-.1.9-.8 1.3-1"/><path fill="#ECDA98" stroke="#D3BA6D" d="M30.2 53.6c-.1-1 .2-2.1.3-3.1 0-.5 0-1.1.2-1.5.1-.3.4-.4.4-.7 0-.1-.1-.8-.1-.7 1.1-2.4 4.6-1.3 6.5-.8 2.3.6 4.5.8 6.4 2.5 1.9 1.8 4.2 3.3 5.4 5.5-2 .9-3.4 2-4.6 3.9-.4.7-1 2.1-1.6 2.6-1 .8-1.3 0-2.4 0 1.2-.7 1.1-2.2-.2-2.7 1.2-1.9.6-2.3-.6-3.9-.7-1-1.2-3.3-2.9-2.5-1.3.6-1.2 4-2.6 3.9-.4 0-1.2-1.3-1.6-1.6-.8-.5-1.6-.6-2.5-.9"/><path fill="#EDD68B" stroke="#B9902E" d="M49.6 70c-1-1.5 1.1-1.6 1.9-2.3.7-.6 2-2.8 1.7-3.7-1-3-5.7 1.9-6.5 2.7-.5.4-.6.9-1 1.4-.5.6-1.2.8-1.8 1.3-1.2.9-2.3 1.4-3.6 2.1-1.4.8-2.1 1.5-3.8 1.6-1.4 0-2.6-.1-2.8 1.6 1.3 0 2.9-.7 4.2-.9 1.5-.2 3-.5 4.5-.9 1.6-.4 3.1-1.1 4.6-1.8.5-.2 1.8-.4 2.1-.7.9-.6-.1-1.2.6-1.8"/><path fill="#EDD68B" stroke="#B9902E" d="M49.7 76.1c1.2-.4 1.7-.5 2.6-1.4.9-.9 1.8-1.7 2.3-2.8.4-1 .6-1.9 1.2-2.9.7-1 1.6-1.7 2.6-2.5 1.5-1.3 2.8-3.6 2.4-5.7-.5-2.3-2.8-3.5-2.8-6.1 0-2 .5-4.4-2-4.9-3-.6-2.8 2-4.1 3.8-.8 1-1.3.3-2.5.6-.9.3-2.2 1.1-2.8 1.8-1.7 1.6-2.8 3.8-3.4 6 1.1-1.2 1.4-2.8 2.9-.8 1 1.2 1.8 2.4 2.5 3.9 1.5-.5 3.5-3.6 4.1-.6.3 1.3.2 1.7-1 2.6-1 .8-1.9 1.2-2.3 2.5.6-.2 1.1-.7 1.7-.8 1 .9-.1 1.1-.7 1.6-.9.8-.7.9-.8 2.1-.2 1.5-.1 2.9-.1 4.5"/><path fill="#ECDA98" stroke="#CC2027" d="M40.2 80c-3.1.3-6.1.4-9.2.5-1.2 0-9.3.6-9.3-1.4 0-1.7 3.6-.6 4.4-.4 1.6.3 3.1.4 4.7.4s2.9 0 4.5.4c1.6.3 3.3.1 4.8.9"/><path fill="#DFC17F" stroke="#ECDA98" d="M31.9 64.2c-.8.2-1.7 1.1-2.1 1.8-.2.4 0 .7-.3 1-.4.4-.9.5-1.3.7-.9.5-1.4 1.1-2.2 1.7-.7.5-2.2.5-2.6 1.2-.1.2-.3 2-.2 2.2.4.9 1.9.6 2.6 1.2.8.6.7 1.4 1.8 1.5 1.2.2 1.6-.8 2.3-1.6-1 .7-1.9.9-2.9.2-.6-.4-1.5-1.7-1-2.5.4-.7 1.8-1.1 2.4-1.9 1-1.2 1.3-.9 2.7-1.5 1.6-.7 2-3.2 2.6-4.8.4-1.1.8-1.4 1.8-2.1.7-.5 2.6-1.4 2.7-2.3-1.5-.8-5.1 3.6-5.9 4.8m8.3-4.8c1.4-.5 1.8-1.5 1.5-2.8-.4-1.5-1.7-1.7-2.1-3.1.7-.2 2.3 1.1 3 1.6 1.3-1.9-2.5-4.2-3.2-5.6-.7-1.2-.2-1.7 1.1-1.1 1.2.6 1.9 1.9 2.7 2.9 1 1.1 1.2 1.3 1.2 2.8 0 1 .2 1.9.4 2.9.2 1.5-.2 1.7-1 2.8-.4.5-1.7 2.4-1.7 2.7-.2-.9-1-.9-1.7-.9.6-.4.7-1 .9-1.7-.2-.1-.4-.4-.5-.5m-18-5.6v-.5c-.4-.2-.9-.1-1.3.2.1.6.9 1 1.3.5m4.3-4c-.4-.5-.9-.1-.7.5.5.1.4-.1.6-.5m.3 3.5c-.7-1.8-2.1.5-.4 0M14 68.9c-1.5 0-3.3-3.6-3.9-4.6-.6-1-.9-1.5-2-1.9-.8-.2-1.8-.1-2.6-.5 1-.6 2.3 0 3.4-.1 1.4-.2 1.7-.2 3.1.6 1.3.8 1.8 1.5 2.1 3 .2 1.2-.3 2.3 0 3.4"/><path fill="#DFC17F" stroke="#ECDA98" d="M11.8 60.4c.3 0 1.4.7 1.6.9.5.8 0 1.6 0 2.4-.2-.7-.9-.7-1.2-1.2-.3-.6-.1-1.2-.3-1.8m9.1.9c-1.2.5-.3 1 0 1.5.4.7.6 1.1.5 2 0 .4-1.3 4.1.1 3.7.3-.1.1-2.9.4-3.6.2-.7.8-1.4.5-2.1-.3-.8-1.2-.5-1.3-1.3m33.9-11.3c.6 0 1.4.4 2.1.2-.4-1.5-2.9-.6-3.7 0 .5-.3 1.1-.3 1.4.2"/><path fill="#F8AF67" d="M6.8 67.5s6.5 17.8 22.9 19.2C52.8 88.6 60 67.9 60 67.5c-.1-.4-53.2 0-53.2 0z"/><path d="M7.2 69.7c1.3.6 2.3 1.4 3.8 1.8 1.4.4 2.8.6 4.2.9 2.8.6 7 .2 9.8.8-1.2.5-2.7 3.4-2.5 4.3.2 1.7 1.6 3 3.1 4.2 1.7 1.3 3.4 2.9 5.5 3.8 1.7.7 3.7.9 5.6 1.3-1 .8-2.8.4-4 .3-1.5-.1-3 0-4.4-.3-3.4-.5-6.4-2.1-9.1-3.6-3-1.6-4.5-4.2-6.6-6.5-1.8-2-4.3-4.4-4.6-6.9" opacity=".02"/><path fill="#FFF" d="M46.7 76.6c.4-.5 1.9-.7 2.4-1.3.5-.6.5-1.4.5-2.2 2.2 2.1-1.4 4.2-3.9 4.4.2-.6 1.5-.9 1.8-1.6" opacity=".33"/><path fill="#FFF" d="M49.2 77.2c1.2-.4 1.5-1.6 2.2-2.3.8.7-.9 2.2-1.8 2.5" opacity=".16"/></g></switch></svg>
