<svg xmlns="http://www.w3.org/2000/svg" version="1.0" viewBox="0 0 146.3 64.8"><switch><g><path fill="#4F2521" d="M.1 26.6L42.2 4.4l45 11.7-41.7 22.2z"/><path fill="#6D3934" d="M.1 26.2l45.4 12.2c0 4.2.8 8.9-.4 8.9-.8 0-44.7-10.6-45-11.7-.2-1.2 0-9.4 0-9.4z"/><path fill="#5F2F2A" d="M87.2 16.1s.2 8.3-.1 9.1S47 46.7 46.4 46.8c-1.3.3-1.2-7.4-.8-8.5.3-1.1 41.6-22.2 41.6-22.2z"/><path fill="#6D3934" d="M25.8 14.8l17.5 4.5-1.5-8.7-14.4-4z"/><path fill="#87504C" d="M41.8 10.6l11.9-6.7L39.6 0 27.4 6.6z"/><path fill="#542922" d="M41.8 10.6l1.5 8.7 15.2-8.7-4.8-6.7z"/><path fill="#6D3934" d="M49 20.5L66.5 25 65 16.4l-14.4-4z"/><path fill="#87504C" d="M65 16.4l11.9-6.8-14.1-3.8-12.2 6.6z"/><path fill="#542922" d="M65 16.4l1.5 8.6 15.2-8.6-4.8-6.8z"/><path fill="#6D3934" d="M5.1 25.5l17.5 4.6-1.5-8.7-14.4-4z"/><path fill="#87504C" d="M21.1 21.4L33 14.7l-14.1-3.9-12.2 6.6z"/><path fill="#542922" d="M21.1 21.4l1.5 8.7 15.2-8.7-4.8-6.7z"/><path fill="#6D3934" d="M28.3 31.3l17.5 4.5-1.5-8.7-14.4-4z"/><path fill="#87504C" d="M44.3 27.1l11.9-6.7-14.1-3.9-12.2 6.6z"/><path fill="#542922" d="M44.3 27.1l1.5 8.7L61 27.1l-4.8-6.7z"/><path fill="#83544A" d="M146.3 39.4V64l-79.4.8-.6-6.3.5-11.7-.5-5.3v-2.1z"/><path fill="#784C40" d="M66.9 64.8l79.4-.8-1.1-1.1-78.6.3zm78.7-23.3H66.3v-2.1h80z"/><path fill="#FFF" stroke="#FFF" stroke-miterlimit="10" stroke-width=".25" d="M144.9 45.8l-11.9.3s-1.9-3.8-4.5-3.8-4.9 1.9-5.2 2.7c-.3.8-.5 1.8-.5 1.8l-12.2-.6s-.8-3.9-4.4-3.9c-3.5 0-4.8 2.3-5.4 3.5-.6 1.2-12.2.4-12.2.4s-.6-3.8-4.9-3.6c-4.3.3-4.8 3.4-5.1 3.6-.3.3-12 .5-12 .5l-.5-5.3h79.3s-.3 2.6-.3 2.7c.1.2-.2 1.7-.2 1.7zm0 12.2l-34.7 1-21.5-.5s-16.1-.5-17.4 0c-1.4.5-5 0-5 0v4.7l78.2-.3c.1 0 1.4.3 1.4.3l-.3-2.6-.7-2.6z" opacity=".08"/><path fill="#784C40" d="M146.3 39.4l-1.4 6.4V58c.3 4.9 1.4 6.1 1.4 6.1V39.4zm-35.8 6.7l-.3 12.9s-2.1 2.9-4.5 2.8c-2.4-.1-4.9-1.5-5-4-.1-2.5 0-10.4 0-10.4s.1-5 4.4-5.2c4.2 0 5.4 3.9 5.4 3.9zm-21.8 0L88.4 59s-2.1 2.9-4.5 2.8c-2.4-.1-4.9-1.5-5-4-.1-2.5 0-10.4 0-10.4s.1-5 4.4-5.2c4.2 0 5.4 3.9 5.4 3.9z"/><path fill="#6B433C" d="M108.5 43.3V59s-1.5.9-2.4.9c-1-.1-2.5-.1-3.2-1.9-.7-1.8-1-8.3-.6-10 .4-1.7 1.6-3.8 2.1-3.8s.6-1.7-.4-1.4c-1 .2-3.5 2.7-3.3 3.3.2.5-.3 10.4 0 11.9.4 1.4 1.6 3.2 2.9 3.5 1.3.4 3.7.3 4.6-.4.8-.7 2.1-2 2.1-2l.3-12.9s-.2-1.2-.8-2c-.8-.8-1.3-.9-1.3-.9z"/><path fill="#784C40" d="M133 46.1l-.3 12.2s-2.1 3.6-4.5 3.5c-2.4-.1-5.3-1.5-5.3-4-.1-2.5 0-11.1 0-11.1s.5-4.2 4.7-4.4c4.2-.1 5.4 3.8 5.4 3.8z"/><path fill="#6B433C" d="M130.3 45.6s-1.3-1.8-2.9-1.1c-1.6.7-2.7.8-3 2.3-.3 1.5-.5 8 0 9.6.5 1.5 1.3 2.9 2 3.1.8.3 2.3.8 2.9.4.6-.3 1.5-1.9 1.5-1.9s2.2-1 1.7 0c-.5 1-2.1 3.4-3.3 3.6-1.2.2-3.3.4-4.6-.8-1.3-1.1-1.9-.3-1.9-2.9s-.1-10.5 0-11.1c.1-.5 2-4.5 4.7-4.4 2.7.1 4.3 1.7 4.6 2.2.3.5.8 2.2.8 2.5.1.4-2.5-1.5-2.5-1.5z"/><path fill="#FFF" stroke="#FFF" stroke-miterlimit="10" stroke-width=".25" d="M130.2 43v18.1l-.9.5-.2-19.2z" opacity=".09"/><path fill="#6B433C" d="M133 47.1l-.3 10.4s-1.5.7-1.7.4c-.2-.3-.5-11.3-.4-11.7.1-.5.2-.6.6-.4.3.2.9.9 1.2 1.1.2.3.6.2.6.2z"/><path fill="#FFF" stroke="#FFF" stroke-miterlimit="10" stroke-width=".25" d="M108.6 43.2v18.1l-.8.5-.2-19.2z" opacity=".09"/><path fill="#6B433C" d="M86.6 44.6v14.3s-1.2 1.4-2.8 1.1c-1.5-.3-3.5-2.5-3.5-4.5s-.3-8.3 0-8.7c.3-.4.9-2.3 2.1-2.7 1.2-.4 3 0 2.2-.7-.8-.8-1.4-1-2.4-.7-.9.2-2.9 1-3.1 2.9-.2 1.9-.2 7.7 0 10.7.2 3 .6 4.2 1.9 4.7 1.3.5 3.5 1 4.5.4s2.5-1.9 2.8-2.5c.3-.5.2-8.1.3-10 .1-1.9 0-3.6-.2-4.1-.3-.5-.9-.8-1.1-1-.2-.1-.7.8-.7.8z"/><path fill="#FFF" stroke="#FFF" stroke-miterlimit="10" stroke-width=".25" d="M86.4 43.2v18.1l-.8.5-.2-19.2z" opacity=".09"/></g></switch></svg>
