<svg xmlns="http://www.w3.org/2000/svg" version="1.0" viewBox="0 0 105.3 80"><switch><g><path fill="#7C7A54" d="M48.7 5s-4.9-.7-9.7 3.7c-4.8 4.4-8.4 2.1-11 6-2.6 4-7.7 9.1-2 15 11.7 12 24.9 9.9 30.6 6.7 5.7-3.2 11.4-7.6 12.2-10 .8-2.4 3.4-5.6 2.1-9.1-1.4-3.5-7.6-7.4-9.8-8.5-2.2-1.1-7.1-1.9-8.9-2.6-1.8-.8-3.5-1.2-3.5-1.2z"/><path fill="#030303" stroke="#A4712A" stroke-width=".306" d="M53.6 6.2s.2 2.4-1.3 2.5c-1.4.1-2.3.7-4.3.5-2-.2-3.8-.7-4.2-1.4-.4-.7-.2-1.1-.2-1.4 0-.3.6-.8.9-.9.4-.1-.3 1.3.2 1.9.5.6 3.3 1.5 3.9 1.4.6-.1 3.6-.5 3.9-1 .4-.6.6-1.5.6-1.5l.5-.1z" opacity=".2"/><path fill="#030303" stroke="#A4712A" stroke-width=".306" d="M55.4 6.8s2.7 3 .6 4.5-4.5 2.6-6.1 2.6c-1.6.1-4.5 0-5.9-.8-1.5-.7-2.6-1.6-2.9-2.5-.4-1-.3-1.5 0-2 .3-.6.4-.9.4-.9l-1.2.5s.1 2.8 1 3.8 5 2.7 6.8 2.7c1.8 0 5.8-1.2 7-1.9 1.2-.7 2.5-1.9 2.5-2.5 0-.6-.2-1.9-.7-2.6-.5-.7-.7-1-.7-1h-.8z" opacity=".2"/><path fill="#030303" stroke="#A4712A" stroke-width=".306" d="M37 9.7s-3.3 3.3-2.7 5.6c.6 2.3 2.7 5.1 4.8 6.4 2.1 1.2 8.9 2.5 11 2.2 2.1-.2 9.4-2.5 11.1-4.7 1.6-2.3 2.4-3 1.9-4.8-.5-1.8-.8-3.4-1.8-4.4-1-1-2.1-1.7-2.4-1.9-.4-.2-1.3-.9-1.3-.9s2.5 1.2 3.5 2.1c1 .9 2.4 3.2 2.4 4.5 0 1.3.7 3.2-1 5-1.7 1.9-2.8 2.6-4.2 3.1-1.4.5-2.9 1.5-4.1 1.6-1.2.1-2.8.8-4.1.8-1.3 0-2.8-.1-4.6-.3-1.7-.3-2.5-.3-4.4-1.1-1.9-.8-3.6-1.6-4.7-3s-2-2.8-2.3-4c-.3-1.2.2-2.5.3-3.4.1-.9 1-1.5 1.3-2 .3-.4 1.3-.8 1.3-.8z" opacity=".2"/><path fill="#030303" stroke="#A4712A" stroke-width=".306" d="M33.5 11.4s-5.4 8.5-4.1 10.9c1.4 2.4 7.3 7.1 9.7 7.7 2.5.6 10.7 2.6 14.4 1.1 3.7-1.4 4.3-1.7 6.5-3.2 2.2-1.5 4.3-2.9 5.1-4.1.8-1.2 1.8-2.1 1.8-4s1.1-2.3-.3-4.7c-1.4-2.4-1.8-3.4-2.2-3.7-.4-.2-.4-.8-.4-.8s1.1.9 1.9 2.4c.8 1.5 1.7 3.1 1.7 4.7s.1 2.7-.6 4.1c-.7 1.4-1.5 2.8-3 4.1-1.6 1.4-3.5 2.6-4.9 3.5-1.5.9-3.7 1.6-5.3 2.1-1.6.5-4.2.6-6.4.5-2.2-.1-3.3-.4-5.2-.7-1.9-.3-4-.7-5.2-1.7-1.2-.9-1.5-1.1-3.4-2.3-1.8-1.2-2.9-1.7-3.8-3.2-.9-1.5-1.4-2.4-1.4-3.6 0-1.2.6-2.4.8-3.3.2-.9.9-2.4 1.3-2.9s1.2-1.1 1.6-1.9c.4-.8.5-1.3.7-1.3.4 0 .7.3.7.3z" opacity=".2"/><path fill="#030303" stroke="#A4712A" stroke-width=".306" d="M30 12.7c.1.3-5.8 7.2-3.7 11.6 2.1 4.4 2.7 4.5 3.9 5.5 1.2 1 4.2 2.5 5.5 2.9 1.4.4 7.7 2.2 9.8 2.2 2.1 0 6.3.2 8.5-.4 2.2-.6 7.1-2.7 9.2-4.3 2-1.5 2.6-2.7 3.9-4 1.3-1.4 1.6-2.3 1.9-2.8.4-.6.6.5.6.5s-1.1 1-1.7 1.9c-.6.9-2.6 3.2-2.6 3.2s-2.2 1.9-3.2 2.4c-1 .6-3.9 2-4.7 2.2-.8.2-2.4 1.6-4.1 1.6-1.7 0-5.1.3-6.5.3-1.4 0-2.3-.1-4.2-.5-1.9-.4-2.6-.7-4.2-1.1-1.5-.3-1.5-.1-3.1-.8-1.6-.7-3.4-1.6-4.4-2.1-1-.5-1.9-1-3.1-2.5-1.2-1.5-1.5-2.1-1.8-3.4-.3-1.3-.7-1.5-.7-3.5s.8-2.7 1.4-4c.6-1.4 1.1-1.5 1.6-2.6s.9-1.8.9-1.8l.8-.5z" opacity=".2"/><path fill="#030303" stroke="#A4712A" stroke-width=".306" d="M57.6 7.3s2.9 2.9 2.4 4.7c-.5 1.9-1.5 3.6-2.6 4-1.1.4-1.4 1.1-2.8 1.5-1.5.4-.9.8-2.7.9-1.7.1-2.2.6-3.7.3s-3-.3-4.5-.9c-1.5-.7-3.2-1.2-4.2-2.4-1-1.1-.9-1-1.3-2.8-.4-1.8-.1-2 .2-2.6.3-.6-.2-.8-.5-.6-.3.2-.4.1-.5 1.5-.1 1.4.3 1.9.8 3.4s1.1 1.9 2.6 2.8c1.5.9 3.2 1.6 4.4 1.8 1.2.2 2.7.3 4 .3 1.3 0 3.8-.6 5.3-1.1 1.5-.5 4.2-2.6 4.9-3.5.6-1 1.2-2.1 1-3.3-.2-1.2-.4-1.5-.8-2.4-.2-1-2-1.6-2-1.6z" opacity=".2"/><path fill="#030303" stroke="#A4712A" stroke-width=".306" d="M62.6 9.8s2.8 4.2 2.4 6.4c-.4 2.2-.4 2.8-1.5 4.2-1.1 1.4-2.2 2.4-3.8 3.6-1.6 1.2-1.9 1.7-3.3 1.9-1.4.2-2.5.9-4 1-1.5.1-1.3.2-2.4.2-1.1 0-2 .1-3.1.1s-3.2-.2-4.8-.8c-1.6-.7-3.9-1.8-5.2-2.5-1.3-.7-3.2-2.3-3.8-3.7-.6-1.4-.6-2.4-.6-3.8s.6-1.6.7-2.6c.1-1 1-2.3 1.3-2.7.3-.4-.5-.6-.6-.3-.1.2-1.4 2.9-1.4 3.5 0 .6-.6 2.1-.5 3.2.1 1.1 1.2 4.2 2.2 5.1 1 .9 2.7 2 4.7 2.8 2 .8 2.2 1.3 5 2s4.4.3 7.3.2c2.9-.1 6.3-1 7-1.5.7-.5 2.9-2.3 4.3-3.6 1.4-1.4 2.8-2.8 2.8-4.1 0-1.3.2-2.4 0-3.7-.2-1.3-1.1-1.8-1.2-2.5-.1-.7-.5-1.6-.9-1.9-.2-.4-.6-.5-.6-.5z" opacity=".2"/><path fill="#030303" stroke="#A4712A" stroke-width=".306" d="M31.5 12.1s-6.1 6.8-4 10.9c2.1 4.1 5.5 6.5 7.7 7.6 2.2 1.1 8.2 2.6 10.5 2.7 2.3.1 7.8-.2 9-.8 1.3-.6 4.3-1.2 5.3-2s4.2-3.4 5-4.1c.7-.7 2.8-3.3 2.9-4.1.2-.8.5-2 .5-3.7 0-1.6-.3-3.2-.7-3.9-.5-.7-.8-1.8-1-2-.2-.2.2.3 1.2.9 1 .7 1.1 3.8 1.1 4.6 0 .8-.2 2.4-.4 3.5s-.4 1.7-1.6 3.2c-1.2 1.5-.8 2-2.1 2.7-1.3.7-1.9 1.9-3.1 2.4-1.2.5-2.2 1.9-3.8 2.2-1.6.3-3.6 1.3-5.1 1.4-1.6.1-2.2.1-3.5.1-1.3 0-2.9.3-4.9-.1-2-.4-4.3-.9-5.8-1.4-1.5-.5-.9 0-2.4-.7s-.6-.3-1.8-.8c-1.2-.6-2.2-1.6-3.3-2.4-1.1-.8-1.8-1.3-2.6-2.6s-1.3-1.9-1.7-3.4c-.4-1.5-.2-2.4.3-3.8.5-1.5 1.3-3.1 2-4.1.7-1.1 1.3-2 1.3-2l1-.3zM43.3 7s1.4 3.1 2.8 3.2c1.4.1 4.3.3 5.2 0 .9-.2 2.9-1.5 3.1-2 .2-.5.2-1.2.2-1.5 0-.3.5-.1.5-.1s.4 2.2-.6 2.8c-.9.6-3.1 1.7-3.4 1.7h-3.7c-.9 0-2.7-.6-3-1-.4-.5-1.2-1.5-1.4-1.7-.2-.2-.2-.5-.2-.8 0-.3.5-.6.5-.6z" opacity=".2"/><path fill="#030303" stroke="#A4712A" stroke-width=".306" d="M31.3 16.7s-.4 3.4.9 5.1c1.3 1.7 3.3 3.3 5 4.2 1.7.9 6.2 2.8 7.7 2.8s5.3.2 7.9.1c2.7-.1 6.2-2 7.1-2.9.9-.9 3.7-3.5 4.2-4.3l1.5-2.4S64.1 23 63.2 24c-.8 1-3.6 3-4.6 3.4-1 .4-5.7 2.2-8.8 2.2-3.1 0-8-.7-10.5-1.9s-6.7-3.2-7.7-5.5-1.1-3-1-4c.1-1 .3-1.9.3-1.9l.4.4z" opacity=".2"/><path fill="none" stroke="#A4712A" stroke-width=".306" d="M45.8 5.9s2 .5 2.6.5c.5 0 1.9-.3 2.2-.5.3-.2.7-.4.7-.4"/><path fill="#67654A" d="M45.2 6.3s1.6.7 2.6.7c.9 0 2.4.1 3-.2.7-.3 1.7-.9 1.7-.9S50 4.6 48.3 4.8c-1.7.2-3.4.3-3.7.8-.4.5.6.7.6.7z"/><path fill="none" stroke="#A4712A" stroke-width=".306" d="M53.2 6.3s-.8.4-1.6.9c-.7.5-2.7.9-3.5.9-.7 0-3.4-1.2-3.4-1.2"/><path fill="none" stroke="#A4712A" stroke-width=".306" d="M43.3 7s1.7 2.8 5.1 2.8c3.4 0 5.1-1 5.3-1.4.1-.4.3-1.3.3-1.6v-.2"/><path fill="#030303" stroke="#A4712A" stroke-width=".306" d="M41.4 7.7s1.1 3.1 2.5 3.7c1.5.6 4.7 1.3 6 1.1 1.3-.2 3.6-1.1 4.4-1.7.8-.6 1.7-1.5 1.7-2.4 0-.9-.7-1.6-.7-1.6s.3 1 .3 1.8-1.8 2-3.2 2.7c-1.4.6-6.7.5-7.8-.1-1.2-.7-2.3-3.6-2.3-3.6l-.5.2" opacity=".2"/><path fill="none" stroke="#A4712A" stroke-width=".306" d="M41.1 8.6s.8 3.5 3.6 3.9c2.8.4 4.6.8 6 .4 1.5-.4 4.2-1.7 4.6-2.3.4-.6 1.1-1.8 1.1-1.8l.1-.6"/><path fill="#030303" stroke="#A4712A" stroke-width=".306" d="M39.6 8.7s.7 3.9 2.6 4.9c1.9 1 4.3 2 6.9 1.8 2.6-.2 5.6-1.1 6.2-1.8.6-.6 2.2-1.7 2.5-2.5.3-.8.4-2.3.2-2.8s-1.1-1.1-1.1-1.1h.6s1 1.4 1 1.9-.7 2.7-.8 3c-.2.3-2.5 2.5-3.1 2.5-.6 0-2 .6-2.6.7-.5.1-1 .2-1.7.3-.7.1-1 .2-2.1.2s-2.5-.1-3.4-.6c-.9-.5-1.9-.2-2.9-1.1-1-1-1.8-2.2-2.2-3.2-.4-1-.5-1.6-.5-1.8 0-.2.4-.4.4-.4z" opacity=".2"/><path fill="none" stroke="#A4712A" stroke-width=".306" d="M37 9.7c.2.7-.7 2.7.9 5 1.5 2.3 3.7 3.8 5.1 4.3 1.4.5 8.9.6 11 .1 2.1-.6 3.5-1.5 4.5-2.6s1.7-1.3 2.1-2.8c.5-1.5.4-2.3.5-3.2.1-1-.6-1.2-.6-1.2"/><path fill="none" stroke="#A4712A" stroke-width=".306" d="M61.3 10s.2.3.2.6-.2 1.3-.2 2.2c0 .9-1 2.5-1.8 3.6-.7 1-2.4 1.8-3.7 2.5-1.4.7-5.1 1.3-6.7 1.4-1.6.2-6.8-.8-8-1.4-1.2-.6-3.4-2.2-4.3-4.6-.9-2.4-.2-4.1-.2-4.1l1.8-.2s-.2 2 .8 3.5 2.9 2.8 4.8 3.3 5.1.8 6.8.5c1.6-.3 3.3-.3 4.7-1.2 1.4-.9 2.2-1.1 2.8-2.2.6-1.1 1-2.2 1-3.1"/><path fill="none" stroke="#A4712A" stroke-width=".306" d="M36 11.3s-.4 1-.1 2.4c.3 1.4 1.2 2.6 2.1 3.7.9 1.1 3 2.5 4.2 2.9 1.2.3 6.5 1.1 9.4.5 2.9-.6 5.8-1.8 6.8-2.5 1-.6 2.8-2.8 3-3.7.3-.9.5-2.1.5-2.8v-1.1"/><path fill="none" stroke="#A4712A" stroke-width=".306" d="M35.4 12.2s-.4 1.9.4 3.7c.8 1.7 3.2 3.7 4.5 4.2 1.3.5 5.6 1.7 8.4 1.5 2.8-.2 5-.4 6.6-.9 1.6-.6 2.4-1 3.7-1.9 1.3-.9 1.6-1.1 2.1-1.9.5-.8.6-1.3.8-2.1.2-.8.4-1.5.4-2v-1" opacity=".19"/><path fill="none" stroke="#A4712A" stroke-width=".306" d="M34.7 13.6s0 2.5 2.3 4.7 3.7 3 5.5 3.4c1.8.4 4.9.9 6.4.8 1.5-.1 3.5-.7 5.8-1.2s4.6-1.9 5.6-3 2.1-2.3 2.1-2.5c0-.3.4-2.1.4-2.1"/><path fill="none" stroke="#A4712A" stroke-width=".306" d="M35.1 10.3s-2.7 4-1.7 6.9c1 2.9 4.2 5.7 6.2 6.4 2 .7 10.9 2 13 1.5 2.2-.5 5.2-1.5 7.1-2.8 1.9-1.3 3.9-2.4 4.3-4.1.5-1.7.4-3.4.2-4.3-.2-.9-1.4-3.3-1.8-3.7-.4-.5-.7-.9-.7-.9"/><path fill="none" stroke="#A4712A" stroke-width=".306" d="M32.8 15.8s-.1 2.4 1.8 4.7c1.9 2.3 5.4 4.3 7 4.5 1.5.2 6.4 1.1 8.9 1 2.5-.1 5.7-1.4 6.9-1.7 1.2-.2 3.3-2.2 4.5-2.9"/><path fill="none" stroke="#A4712A" stroke-width=".306" d="M31.8 15s-.4 4.1.8 6.1c1.5 2.5 4.3 4 7.2 5.2 4.9 2 9.9 1.8 11.8 1.8 1.8 0 6.2-1.1 6.8-1.6.6-.5 3.1-2.5 4.6-4 1.5-1.5 3-3.3 3-5.2 0-1.9-1.2-4.8-1.3-5.2"/><path fill="none" stroke="#A4712A" stroke-width=".306" d="M30.1 18.2s.3 4.9 1.7 6c1.5 1.1 4 3 6.2 3.8 2.2.7 6 2.2 9.8 2.2 3.7-.1 7.3-.2 9.2-1.3 1.9-1 8.2-4.9 8.9-7.8.7-2.9.9-4.1.5-5.4l-1-2.4"/><path fill="none" stroke="#A4712A" stroke-width=".306" d="M31.5 12.1s-3.2 4.4-3.4 6.6c-.2 2.2.1 5.8 4 8.7 3.9 2.9 7.8 4.5 11.1 4.8 3.3.2 10.6.5 12.9-.6 2.3-1 5.7-2.6 5.9-2.9"/><path fill="none" stroke="#A4712A" stroke-width=".306" d="M27.9 14.5s-4.8 5.6-3.2 9.7c1.6 4.1 2.9 5.5 5.9 7.1 3 1.6 5.9 2.9 8.5 3.5 2.6.6 7.8 1.4 9.7 1.2 1.9-.2 5.8-.3 7.4-.8 1.6-.5 4.4-1.4 6.5-3.2 2.1-1.9 3.8-2.8 4.9-4.1 1-1.3 1.7-3 1.8-3.5.2-.5.4-3.1.4-5.2s-.8-3.4-.8-3.7"/><path fill="none" stroke="#A4712A" stroke-width=".306" d="M23.8 22.3s.2 3.4 1.6 5.7c1.5 2.3 1.3 2.8 4.4 4 3.1 1.2 5 2.8 7.7 3.5 2.7.7 4.7 1.2 7.1 1.4 2.4.3 7.9 0 8.8-.4.8-.3 2.9-.9 2.9-.9"/><path fill="#DCDC21" stroke="#A4712A" stroke-width=".306" d="M33.9 10.6s-4.6 6.9-3.1 10.6c1.5 3.7 8.9 8.2 12.2 8.5 3.4.3 8.7 1.1 11.6.3 2.9-.8 8.5-3.7 10-5.7s2.9-6.1 2.9-7.5c0-1.5-1.6-4.1-1.6-4.7 0-.6 4 2.8 4.5 4 .5 1.2 2.4 3 .2 8.2-.7 1.6-4.9 6.8-8.4 8.9-3.5 2.1-5.8 2.4-9.7 3.8-5.3 1.8-11.6.4-14.5-.5-2.9-.8-7.7-4-9.7-5.7-2-1.8-4.8-3.6-4.7-6 0-2.4 2.2-7.7 3.2-9.6 1.1-1.9 3.7-3 4.5-3.5.8-.5 2.8-1.4 2.8-1.4" opacity=".23"/><path fill="#F7F6F5" stroke="#A4712A" stroke-width=".306" d="M47.7 7s-6.3 6.3-9 8.4C35.3 18 35 20 29.9 22.7c-2.3 1.2-5.1 1.4-5.1 1.4s2 .1 5.8-2.3c3.6-2.3 5.1-4.6 7.2-6.5 2-1.9 9.9-8.3 9.9-8.3z" opacity=".08"/><path fill="#F7F6F5" stroke="#A4712A" stroke-width=".306" d="M46.1 8.6s-6.1 2.5-8.6 3.7c-3.1 1.6-3.9 1.3-8.2 3.9-1.9 1.2-3.9 3-3.9 3s1.4-1.3 4.6-3.2c3.2-1.8 4.8-2.2 6.8-3.1 2-.8 9.3-4.3 9.3-4.3z" opacity=".08"/><path fill="#030303" stroke="#A4712A" stroke-width=".306" d="M46.9 5.9s-1.5.5-3.3.5c-1.8 0-1.9 1.5-3.4 1.8-1.5.3-2 1.9-4.5 2.3-2.5.5-3.6 3.1-4.4 2.9-.9-.1-2.9.5-2.9.5l-2.5 2.8-1 2.4s2.8.4 4-.6c1.3-1 5-2.7 5.5-3.2s2.6-1.7 3.5-2.2c.9-.4 3-1.9 3.8-2.2.8-.3 2.8-1.4 3.3-1.9s2-1.5 2-1.8c0-.3-.1-1.3-.1-1.3z" opacity=".04"/><path fill="#DCDC21" stroke="#A4712A" stroke-width=".306" d="M39.5 10.3s.2 1.7 1.5 3.3c1.3 1.6 3.7 2.7 5.7 2.9 1.9.2 4.8 0 6.2-.5 1.4-.5 3-1.2 4-2s2.1-1.5 2.4-2.4c.3-.9.3-1.9.3-2.5 0-.6-.1-1.2-.1-1.2-1.5-.1-9.1-3.2-12.7-2.7" opacity=".23"/><path fill="#F3F2ED" d="M53.3 13.9s1.4 1.3 1.4 2 1.4 1.9 1.3 2.3c-.1.4.8 1.5.7 2-.1.4-1.5 1-2.1 1.2-.6.2-2.4.8-1.8 1.1.5.3 2.6-.2 2.2.4-.4.6-1.4.9-1.6 1-.3.2.4.4 1.1.3.7-.1 1.5-.1 2.1-.1.6 0 1.9-.7 2.2-.7.3 0 .5 1.6.3 1.8-.3.2-3.7 1.4-3.7 1.4s-1.3 1.4-.6 1.5c.6.1 1.2 1 1.2 1l-2.3.8-1.6 1.1s.7-.3 1 .3c.3.6-.5 1.5-.7 1.5-.3 0 .5 1.4 1.4 1.7.8.3 3-.5 3.7-1 .7-.4 1.6-1 2.5-1.6.9-.6 3.2-2.5 3.2-2.5s-.2-1.1-1.2-.3-3.1 1.3-2.2.5c.9-.8 2.7-2 3.3-2.6.6-.6 2.1-2.4 1.4-2.4-.7 0-2.3 2.3-2.6 2.3-.3.1.8-1.9 1.7-3.7.8-1.9 1.6-3.7 1.5-4.4-.1-.6-.5-1.5-1.1-.6-.6 1-1.9 2.4-1.9 2.4s.2-.1-.9-1.6-2.8-2.2-3.3-2.8c-.5-.6-2.2-1.5-2.6-2.1-.5-.6-1.6-.6-1.8-.6-.2 0-.2.4-.2.4z" opacity=".15"/><path fill="#F1B45C" stroke="#F1B45C" d="M0 39.7s6.6 5 8.1 5.8c1.5.8 7.7 3.7 9.4 4 1.7.3 5.2 1 6.9.7 1.7-.3 4.4-.3 5.8-.8 1.3-.4 3-1.1 4.7-1.7 1.6-.7 3.9-1.2 4.2-1.4.3-.2 3-.4 3.1-1.3.1-.9 2-1.8 2-1.8s-5.2 2.1-7.4 2.3c-2.3.2-9.3.8-11.4.7-2.1-.1-10.6-.9-12.3-1.2-1.7-.3-5.2-1.6-6.9-2.3-1.7-.8-3.4-1.6-4.1-2.2-.7-.6-1.6-1.3-1.2-1.6.5-.4-.5-.7-.5-.7L0 39.7z"/><path fill="#D9D3BF" d="M43.6 18.6c-1.9.2.4-6.3.2-7.1-.7.2-1 1.4-1.3 2-.4.8-1 1.5-1.7 2.1-1.1 1.2-2.6 2.9-2.2 4.7.7.2.9.3 1.4.6.5.3 1 .4 1.5.7.6-.9 1.1-1.8 1.8-2.6"/><path fill="#F1B45C" stroke="#F1B45C" d="M30.7 32.3c.3-.1 4-2.8 4.9-3.4.9-.5 5-4.3 5.2-4.7.2-.3 2.1-1.3 2.9-2.4.9-1.1 2.1-4.1 2.3-5.3.2-1.2-.4-3.9-.9-5.1-.4-1.2-1.3-2.7-2.5-4-1.2-1.3-4-3.5-6-4.3-2-.9-4.4-1.5-6-2.1C29.1.5 27 0 25.9.1c-1.1.1-3.1 0-3.9 0-.8 0-1.6-.5-2 0-.3.5-.9.6-2.3.9-1.4.3-1.7.5-3 1-1.3.4-2.5 1.2-3 1.4-.5.2-1 .8-2.3 1-1.2.3-2.6 1.5-3.1 1.8-.5.3-1.5.9-2.3 1.6-.7.8-1.1 1.3-1.6 2.1s-2 3.6-1.8 4.4c.1.9.4 4.2.9 5.1.4.9 1.4 3.1 1.8 3.7.4.5 2.2 2.8 2.5 3.1.3.3.8 1.1 1.4 1.4.7.3 2.4 1.4 2.8 1.6.4.2 2.2 1.1 2.5 1.2.3.1 2.8.9 3.7 1.1.9.2 2 .8 2 .8s1.4-.2 2.4 0 4.6.3 5.2 0c.7-.3 3 .2 3 .2l1.9-.2z" opacity=".52"/><path fill="#F8EDCC" d="M29.9 31.6c.3-.1 3.8-2.6 4.6-3.1.8-.5 4.7-4 4.9-4.4.2-.3 1.9-1.2 2.7-2.2.8-1 1.9-3.8 2.1-5 .2-1.1-.4-3.6-.8-4.8-.4-1.1-1.2-2.5-2.3-3.7-1.1-1.2-3.8-3.2-5.6-4-1.8-.8-4.2-1.4-5.6-1.9-1.4-.5-3.3-.9-4.4-.8-1 .1-2.9 0-3.7 0-.7 0-1.5-.4-1.8 0-.3.4-.8.5-2.1.8-1.3.3-1.6.5-2.8.9-1.2.4-2.3 1.1-2.8 1.3-.5.2-.9.7-2.1.9-1.2.2-2.5 1.3-3 1.6-.6.3-1.5.8-2.2 1.5-.7.7-1 1.2-1.5 1.9s-1.8 3.3-1.7 4.2c.1.8.4 3.9.8 4.8.4.8 1.3 2.9 1.7 3.4.4.5 2 2.6 2.3 2.9.3.3.7 1 1.3 1.3.6.3 2.2 1.3 2.6 1.5.4.2 2 1 2.3 1.1.3.1 2.6.8 3.5 1 .8.2 1.8.7 1.8.7s1.3-.2 2.2 0c.9.2 4.3.3 4.9 0 .6-.3 2.8.2 2.8.2l1.9-.1z"/><path fill="#F1B45C" stroke="#F1B45C" d="M17.1 34.4v-2.5s2.5.3 2.9.4c.4.1 2.3-1 3.2-.4.9.6 2.6.3 3.1.3.4 0 1.8.4 2.4.3.5-.1 1.5 0 1.5 0v.5s-1.5.8-3 .7c-1.5-.1-2.9 0-3.9.1-1.1.1-1.5.1-2.4-.1-.9-.2-2.3.7-2.3.7h-1.5z"/><path fill="#F1B45C" stroke="#F1B45C" d="M17.1 34.4s-.2.3-1.3 0-1.5.4-1.8 0c-.3-.4-1-.8-1-.8s-1.3.4-3.4.8c-2.1.4-5 1.3-6.1 1.8-1.1.5-2.5 1.6-3 2-.5.3-.9.7 0 1.7.9 1.1 4.8 3.6 6.9 4 2.1.4 8 1.5 9.8 1.6 1.7.1 7.1.6 9 .6 2 0 8.9-.5 10.3-.7 1.4-.2 2.9-.1 4.3-.8 1.4-.7 3.4-1.5 4.2-2.1.9-.5 1.5-.8 1.6-1.3.1-.5.9-2 0-2.1-.9-.1-1.8-1.7-2.8-1.9-1-.2-3.4-1-4.5-1.5s-2.9-1.6-3.5-1.5c-.5.2-2.3-.8-2.3-.8h-1.7l-1.5-.4s-2.5.6-4 .7c-1.5 0-3.9.3-4.6.2-.7-.1-2.4.2-2.4.2l-2.2.3z" opacity=".52"/><path fill="#F8EDCC" d="M17.2 35.5s-.2.2-1.2 0-1.4.3-1.7 0c-.3-.4-.9-.6-.9-.6s-1.2.3-3.2.6-4.7 1-5.8 1.5c-1 .4-2.4 1.3-2.9 1.6-.5.3-.8.5 0 1.4.8.9 4.5 2.9 6.5 3.2 2 .3 7.6 1.2 9.3 1.3 1.6.1 6.7.5 8.5.5 1.9 0 8.4-.3 9.8-.5 1.3-.2 2.8-.1 4.1-.6 1.3-.5 3.2-1.2 4-1.7.8-.4 1.4-.6 1.5-1.1.1-.4.8-1.6 0-1.7-.8-.1-1.7-1.4-2.7-1.6-.9-.2-3.2-.8-4.2-1.2-1-.4-2.8-1.3-3.3-1.2-.5.1-2.2-.6-2.2-.6h-1.6l-1.5-.5s-2.4.5-3.8.5-3.7.3-4.4.1c-.7-.1-2.3.2-2.3.2l-2 .4z"/><path fill="#EEE7CA" d="M19.9 38.9s-.1.2-.8 0c-.7-.1-.9.2-1.1 0-.2-.2-.6-.4-.6-.4s-.8.2-2 .4-3 .7-3.6.9c-.7.3-1.5.8-1.8 1-.3.2-.5.3 0 .9.5.6 2.9 1.8 4.1 2.1 1.2.2 4.8.8 5.9.8 1 .1 4.2.3 5.4.3 1.2 0 5.3-.2 6.2-.3.8-.1 1.8-.1 2.6-.4.8-.3 2-.8 2.5-1.1.5-.3.9-.4 1-.7.1-.3.5-1 0-1.1-.5-.1-1.1-.9-1.7-1-.6-.1-2-.5-2.7-.8-.7-.3-1.8-.8-2.1-.8-.3.1-1.4-.4-1.4-.4h-1l-1-.3s-1.5.3-2.4.3c-.9 0-2.3.2-2.8.1-.4-.1-1.5.1-1.5.1l-1.2.4zm8.9-10.3c.2-.1 3-2.1 3.7-2.5.7-.4 3.7-3.2 3.9-3.5.2-.2 1.5-1 2.2-1.8.7-.8 1.5-3.1 1.7-4 .2-.9-.3-2.9-.6-3.8-.3-.9-1-2-1.9-3-.9-1-3-2.6-4.5-3.2-1.5-.6-3.3-1.1-4.5-1.5-1.1-.4-2.7-.7-3.5-.6-.8.1-2.4 0-2.9 0-.6 0-1.2-.3-1.5 0-.2.3-.6.4-1.7.7-1 .1-1.2.3-2.2.6-1 .3-1.9.9-2.3 1.1-.4.1-.7.6-1.7.7-1 .2-2 1.1-2.4 1.3-.4.2-1.1.6-1.7 1.2-.6.6-.8 1-1.2 1.5-.4.6-1.5 2.7-1.4 3.3.1.6.3 3.2.6 3.8.3.6 1.1 2.4 1.4 2.8.3.4 1.6 2.1 1.9 2.3.2.2.6.8 1.1 1.1.5.2 1.8 1.1 2.1 1.2.3.2 1.6.8 1.9.9.2.1 2.1.6 2.8.8.7.2 1.5.6 1.5.6s1.1-.2 1.8 0 3.4.2 3.9 0 2.3.2 2.3.2l1.2-.2z" opacity=".67"/><path fill="#EDD4AB" d="M9.9 22.7c0-.8 1.3-3 1.6-4.1.4-1.6.6-3.4.6-4.9 0-1.1-.9-.4.3-1.5.6-.5 1.7-.9 2.4-1.4 1-.6 3-2 4.1-1.2-.8 1.3-2.7 1.2-3.9 2-1.6 1-.9 1.8-1.5 3.3-.5 1.4-1.2 2.9-1.8 4.5-.3 1-.9 3.4-1.9 3.8"/><path fill="#EDD4AB" d="M10.8 9.3c-2.4 1.3-5.6 2.6-5.3 6.1.3 2.7 2.9 4.9 4.9 6.4-2.3.9-5.8-2.8-5.5-5.1.5-3.6 3-5.7 6.2-6.7"/><path fill="#F1B45C" d="M.9 16.5c1.1-2.2 2.2-4.7 2.9-6.8C.3 10.1.9 16 1.4 18" opacity=".78"/><path fill="#F1B45C" d="M6.4 6.1c.8-.7 1.9-1.3 2.9-.7-.8.8-3.2 2-4.4 2.4.9-.9 2-1.3 2.4-2.7m9.9-2.7c.8-.9 2.5-1.7 3.4-.8-1.1.1-2 .3-2.9.8m6.6-1c-.1-.2-.4-.1-.4-.4.1-.2.4-.7.5-.8.3 0 .8.1 1.1.3.1.2.1.4.3.6-.5.3-1.1.4-1.7.3m10.1 2.2c-.5-.4-.9-.9-1.1-1.5 1.2.2 2.5.6 3.4 1.5-.7.6-1.6.7-2.3.3M43 11c-.2-.9-.6-1.7-1-2.4 1.1 0 1.6.9 2.1 1.7-.1.6-.6.9-1.2 1.2m-3.6-4.9s-.4-.8-.5-1.2c.2.4 1 1.3 1.7 1.6-.4.1-.8 0-1.2 0-.1-.6.3-.4.5-.7"/><path fill="#EDD4AB" d="M16.5 6.2c-.7-.1-.7.9-1.4 1-1.4.2-1.4-1.1-.8-1.9 1-1.3 4.1-1.7 5.6-1.8 2.6-.2 5.5.2 8 .8 2.4.6 5.6 1.1 7.5 2.9 1.1 1 .7 2.4 1.4 3.4.5.7 2.3 1.2 3 2.1 1 1.2 3.3 5.4 1.9 6.7-.8-1.3 0-3.3-.5-4.8-.4-1.3-2.6-3.2-3.8-2.1-.8.7-.8 4.1-.9 5.2-.1 1.3 1.2 3.4.5 4.6-1.7-.8-.5-3.6-.9-5.1-.8-2.5-.5-4.1-.6-6.5-.1-2.7-2-4.3-4.6-4.9-2.6-.7-5.1-1.4-7.8-1.4-2.5 0-5.2 1.5-7 1.9m15.4 22.1c-3.1 1.3-8.6 1.5-11.9.6-2.3-.7-10.1-2.2-9.3-5.4-2.2 2.4 8.8 6.4 10.6 6.8 4.8 1.2 10.6-.8 15-2.9"/><path fill="none" stroke="#A4712A" stroke-width=".306" d="M.5 40s8 8.6 23.3 7.4C39.2 46.2 42.3 45 42.3 45l2.2-1.5"/><path fill="none" stroke="#A4712A" stroke-width=".306" d="M12.6 47.5s4.2 1.4 10 1.1c5.7-.2 11.2-.5 11.2-.5m-14.9 1.6s3.1.7 5.6.4c2.6-.3 5.8-.8 5.8-.8M4.1 42.4s7.6 3.9 14.9 3.9c7.2 0 24.2-2 24.2-2"/><path fill="#F1B45C" stroke="#F1B45C" d="M80.9 19.6s-4.9-.7-9.7 3.7c-4.8 4.4-8.4 2.1-11 6-2.6 4-7.7 9.1-2 15 11.7 12 24.9 9.9 30.6 6.7 5.7-3.2 11.4-7.6 12.2-10 .8-2.4 3.4-5.6 2.1-9.1-1.4-3.5-7.6-7.4-9.8-8.5-2.2-1.1-7.1-1.9-8.9-2.6-1.8-.8-3.5-1.2-3.5-1.2z"/><path fill="#030303" stroke="#A4712A" stroke-width=".306" d="M85.8 20.8s.2 2.4-1.3 2.5c-1.5.2-2.4.7-4.4.5-2-.2-3.8-.7-4.2-1.4-.4-.7-.2-1.1-.2-1.4 0-.3.6-.8.9-.9.4-.1-.3 1.3.2 1.9.4.6 3.3 1.5 3.9 1.4.6-.1 3.6-.5 3.9-1 .4-.6.7-1.5.7-1.5l.5-.1z" opacity=".2"/><path fill="#030303" stroke="#A4712A" stroke-width=".306" d="M87.6 21.4s2.7 3 .6 4.5-4.5 2.6-6.1 2.6c-1.6.1-4.5 0-5.9-.8-1.5-.7-2.6-1.6-2.9-2.5-.4-1-.3-1.5 0-2 .3-.6.4-.9.4-.9l-1.2.5s.1 2.8 1 3.8 5 2.7 6.8 2.7c1.8 0 5.8-1.2 7-1.9 1.2-.7 2.5-1.9 2.5-2.5 0-.6-.2-1.9-.7-2.6-.5-.7-.7-1-.7-1h-.8z" opacity=".2"/><path fill="#030303" stroke="#A4712A" stroke-width=".306" d="M69.2 24.3s-3.3 3.3-2.7 5.6c.6 2.3 2.7 5.1 4.8 6.4 2.1 1.2 8.9 2.5 11 2.2 2.1-.2 9.4-2.5 11.1-4.7 1.6-2.3 2.4-3 1.9-4.8-.5-1.8-.8-3.4-1.8-4.4-1-1-2.1-1.7-2.4-1.9-.4-.2-1.3-.9-1.3-.9s2.5 1.2 3.5 2.1c1 .9 2.4 3.2 2.4 4.5 0 1.3.7 3.2-1 5-1.7 1.9-2.8 2.6-4.2 3.1-1.4.5-2.9 1.5-4.1 1.6-1.2.1-2.8.8-4.1.8-1.3 0-2.8-.1-4.6-.3-1.7-.3-2.5-.3-4.4-1.1-1.9-.8-3.6-1.6-4.7-3s-2-2.8-2.3-4c-.3-1.2.2-2.5.3-3.4.1-.9 1-1.5 1.3-2 .3-.4 1.3-.8 1.3-.8z" opacity=".2"/><path fill="#030303" stroke="#A4712A" stroke-width=".306" d="M65.7 26s-5.4 8.5-4.1 10.9c1.4 2.4 7.3 7.1 9.7 7.7 2.5.6 10.7 2.6 14.4 1.1 3.7-1.4 4.3-1.7 6.5-3.2 2.2-1.5 4.3-2.9 5.1-4.1.8-1.2 1.8-2.1 1.8-4s1.1-2.3-.2-4.7c-1.4-2.4-1.8-3.4-2.2-3.7-.4-.2-.4-.8-.4-.8s1.1.9 1.9 2.4c.8 1.5 1.7 3.1 1.7 4.7s.1 2.7-.6 4.1c-.7 1.4-1.5 2.8-3 4.1-1.6 1.4-3.5 2.6-4.9 3.5-1.5.9-3.7 1.6-5.3 2.1-1.6.5-4.2.6-6.4.5-2.2-.1-3.3-.4-5.2-.7-1.9-.2-4-.8-5.2-1.7-1.2-.9-1.5-1.1-3.4-2.3-1.8-1.2-2.9-1.7-3.8-3.2-.9-1.5-1.4-2.4-1.4-3.6 0-1.2.6-2.4.8-3.3.2-.9.9-2.4 1.3-2.9s1.2-1.1 1.6-1.9c.4-.8.5-1.3.7-1.3.3 0 .6.3.6.3z" opacity=".2"/><path fill="#030303" stroke="#A4712A" stroke-width=".306" d="M62.2 27.3c.1.3-5.8 7.2-3.7 11.6 2.1 4.4 2.7 4.5 3.9 5.5 1.2 1 4.2 2.5 5.5 2.9 1.4.4 7.7 2.2 9.8 2.2 2.1 0 6.3.2 8.5-.4 2.2-.6 7.1-2.7 9.2-4.3 2-1.5 2.6-2.7 3.9-4 1.3-1.4 1.6-2.3 1.9-2.8.4-.6.6.5.6.5s-1.1 1-1.7 1.9c-.6.9-2.6 3.2-2.6 3.2s-2.2 1.9-3.2 2.4c-1 .6-3.9 2-4.7 2.2-.8.2-2.4 1.6-4.1 1.6-1.7 0-5.1.3-6.5.3-1.4 0-2.3-.1-4.2-.5-1.9-.4-2.6-.7-4.2-1.1-1.5-.3-1.5-.1-3.1-.8-1.6-.7-3.4-1.6-4.4-2.1-1-.5-1.9-1-3.1-2.5-1.2-1.5-1.5-2.1-1.8-3.4-.3-1.3-.7-1.5-.7-3.5s.8-2.7 1.4-4c.6-1.4 1.1-1.5 1.6-2.6s.9-1.8.9-1.8l.8-.5z" opacity=".2"/><path fill="#030303" stroke="#A4712A" stroke-width=".306" d="M89.8 21.8s2.9 2.9 2.4 4.7c-.5 1.9-1.5 3.6-2.6 4-1.1.4-1.4 1.1-2.8 1.5-1.5.4-.9.8-2.7.9-1.7.1-2.2.6-3.7.3s-3-.3-4.5-.9c-1.5-.7-3.2-1.2-4.2-2.4-1-1.1-.9-1-1.3-2.8-.4-1.8-.1-2 .2-2.6.3-.6-.2-.8-.5-.6-.3.2-.4.1-.5 1.5-.1 1.4.3 1.9.8 3.4s1.1 1.9 2.6 2.8c1.5.9 3.2 1.6 4.4 1.8 1.2.3 2.7.3 4 .3 1.3 0 3.8-.6 5.3-1.1 1.5-.5 4.2-2.6 4.9-3.5.6-1 1.2-2.1 1-3.3-.2-1.2-.4-1.5-.8-2.4-.2-.9-2-1.6-2-1.6z" opacity=".2"/><path fill="#030303" stroke="#A4712A" stroke-width=".306" d="M94.8 24.4s2.8 4.2 2.4 6.4c-.4 2.2-.4 2.8-1.5 4.2-1.1 1.4-2.2 2.4-3.8 3.6-1.6 1.2-1.9 1.7-3.3 1.9-1.4.2-2.5.9-4 1-1.5.1-1.3.2-2.4.2-1.1 0-2 .1-3.1.1s-3.2-.2-4.8-.8c-1.6-.7-3.9-1.8-5.2-2.5-1.3-.7-3.2-2.3-3.8-3.7-.6-1.4-.6-2.4-.6-3.8s.6-1.6.7-2.6c.1-1 1-2.3 1.3-2.7.3-.4-.5-.6-.6-.3-.1.2-1.4 2.9-1.4 3.5 0 .6-.6 2.1-.5 3.2.1 1.1 1.2 4.2 2.2 5.1 1 .9 2.7 2 4.7 2.8 2 .8 2.2 1.3 5 2s4.4.3 7.3.2c2.9-.1 6.3-1 7-1.5.7-.5 2.9-2.3 4.3-3.6 1.4-1.4 2.8-2.8 2.8-4.1 0-1.3.2-2.4 0-3.7-.2-1.3-1.1-1.8-1.2-2.5-.1-.7-.5-1.6-.9-1.9-.2-.4-.6-.5-.6-.5z" opacity=".2"/><path fill="#030303" stroke="#A4712A" stroke-width=".306" d="M63.7 26.7s-6.1 6.8-4 10.9c2.1 4.1 5.5 6.5 7.7 7.6 2.2 1.1 8.2 2.6 10.5 2.7 2.3.1 7.8-.2 9-.8 1.3-.6 4.3-1.2 5.3-2s4.2-3.4 5-4.1c.7-.7 2.8-3.3 2.9-4.1.2-.8.5-2 .5-3.7 0-1.6-.3-3.2-.7-3.9-.5-.7-.8-1.8-1-2-.2-.2.2.3 1.2.9 1 .7 1.1 3.8 1.1 4.6 0 .8-.2 2.4-.4 3.5s-.4 1.7-1.6 3.2c-1.2 1.5-.8 2-2.1 2.7-1.3.7-1.9 1.9-3.1 2.4-1.2.5-2.2 1.9-3.8 2.2-1.6.3-3.6 1.3-5.1 1.4-1.6.1-2.2.1-3.5.1-1.3 0-2.9.3-4.9-.1-2-.4-4.3-.9-5.8-1.4-1.5-.5-.9 0-2.4-.7s-.6-.3-1.8-.8c-1.2-.6-2.2-1.6-3.3-2.4-1.1-.8-1.8-1.3-2.6-2.6s-1.3-1.9-1.7-3.4c-.4-1.5-.2-2.4.3-3.8.5-1.5 1.3-3.1 2-4.1.7-1.1 1.3-2 1.3-2l1-.3zm11.8-5.1s1.4 3.1 2.8 3.2c1.4.1 4.3.3 5.2 0 .9-.2 2.9-1.5 3.1-2 .2-.5.2-1.2.2-1.5 0-.3.5-.1.5-.1s.4 2.2-.6 2.8c-.9.6-3.1 1.7-3.4 1.7h-3.7c-.9 0-2.7-.6-3-1-.4-.4-1.2-1.4-1.4-1.6-.2-.3-.2-.6-.2-.9 0-.3.5-.6.5-.6z" opacity=".2"/><path fill="#030303" stroke="#A4712A" stroke-width=".306" d="M63.5 31.3s-.4 3.4.9 5.1c1.3 1.7 3.3 3.3 5 4.2 1.7.9 6.2 2.8 7.7 2.8 1.6 0 5.3.2 7.9.1 2.7-.1 6.2-2 7.1-2.9.9-.9 3.7-3.5 4.2-4.3l1.5-2.4s-1.7 3.6-2.5 4.7c-.8 1-3.6 3-4.6 3.4-1 .4-5.7 2.2-8.8 2.2-3.1 0-8-.7-10.5-1.9s-6.7-3.2-7.7-5.5-1.1-3-1-4c.1-1 .3-1.9.3-1.9l.5.4z" opacity=".2"/><path fill="none" stroke="#A4712A" stroke-width=".306" d="M78 20.5s2 .5 2.6.5c.5 0 1.9-.3 2.2-.5.3-.2.7-.4.7-.4"/><path fill="#DFAB65" stroke="#DFAB65" d="M77.4 20.9s1.6.7 2.6.7c.9 0 2.4.1 3-.2.7-.3 1.7-.9 1.7-.9s-2.5-1.3-4.2-1.1c-1.7.2-3.4.3-3.7.8-.4.5.6.7.6.7z"/><path fill="none" stroke="#A4712A" stroke-width=".306" d="M85.4 20.9s-.8.4-1.6.9c-.7.5-2.7.9-3.5.9-.7 0-3.4-1.2-3.4-1.2"/><path fill="none" stroke="#A4712A" stroke-width=".306" d="M75.5 21.6s1.7 2.8 5.1 2.8c3.4 0 5.1-1 5.3-1.4.2-.4.4-1.3.4-1.5v-.2"/><path fill="#030303" stroke="#A4712A" stroke-width=".306" d="M73.6 22.3s1.1 3.1 2.5 3.7c1.5.6 4.7 1.3 6 1.1 1.3-.2 3.6-1.1 4.4-1.7.8-.6 1.7-1.5 1.7-2.4 0-.9-.7-1.6-.7-1.6s.3 1 .3 1.8-1.8 2-3.2 2.7c-1.4.6-6.7.5-7.8-.1-1.2-.7-2.3-3.6-2.3-3.6l-.5.2" opacity=".2"/><path fill="none" stroke="#A4712A" stroke-width=".306" d="M73.3 23.2s.8 3.5 3.6 3.9c2.8.4 4.6.8 6 .4 1.5-.4 4.2-1.7 4.6-2.3.4-.6 1.1-1.8 1.1-1.8l.1-.6"/><path fill="#030303" stroke="#A4712A" stroke-width=".306" d="M71.8 23.3s.7 3.9 2.6 4.9c1.9 1 4.3 2 6.9 1.8 2.6-.2 5.6-1.1 6.2-1.8.6-.6 2.2-1.7 2.5-2.5.3-.8.4-2.3.2-2.8s-1.1-1.1-1.1-1.1h.6s1 1.4 1 1.9-.7 2.7-.8 3c-.2.3-2.5 2.5-3.1 2.5-.6 0-2 .6-2.6.7-.5.1-1 .2-1.7.3-.7.1-1 .2-2.1.2s-2.5-.1-3.4-.6c-.9-.5-1.9-.2-2.9-1.1-1-1-1.8-2.2-2.2-3.2-.4-1-.5-1.6-.5-1.8 0-.2.4-.4.4-.4z" opacity=".2"/><path fill="none" stroke="#A4712A" stroke-width=".306" d="M69.2 24.3c.2.7-.7 2.7.9 5 1.5 2.3 3.7 3.8 5.1 4.2 1.4.5 8.9.6 11 .1 2.1-.6 3.5-1.5 4.5-2.6s1.7-1.3 2.1-2.8c.5-1.5.4-2.3.5-3.2.1-1-.6-1.2-.6-1.2"/><path fill="none" stroke="#A4712A" stroke-width=".306" d="M93.5 24.6s.2.3.2.6-.2 1.3-.2 2.2c0 .9-1 2.5-1.8 3.6-.7 1-2.4 1.8-3.7 2.5-1.4.7-5.1 1.3-6.7 1.4-1.6.2-6.8-.8-8-1.4-1.2-.5-3.4-2.2-4.3-4.5-.9-2.4-.2-4.1-.2-4.1l1.8-.2s-.2 2 .8 3.5 2.9 2.8 4.8 3.3 5.1.8 6.8.5c1.6-.3 3.3-.3 4.7-1.2 1.4-.9 2.2-1.1 2.8-2.2.6-1.1 1-2.2 1-3.1"/><path fill="none" stroke="#A4712A" stroke-width=".306" d="M68.2 25.9s-.4 1-.1 2.4c.3 1.4 1.2 2.6 2.1 3.7.9 1.1 3 2.5 4.2 2.9 1.2.3 6.5 1.1 9.4.5 2.9-.6 5.8-1.8 6.8-2.5 1-.6 2.8-2.8 3-3.7.3-.9.5-2.1.5-2.8v-1.1"/><path fill="none" stroke="#A4712A" stroke-width=".306" d="M67.6 26.8s-.4 1.9.4 3.7c.8 1.7 3.2 3.7 4.5 4.2 1.3.5 5.6 1.7 8.4 1.5 2.8-.2 5-.4 6.6-.9 1.6-.6 2.4-1 3.7-1.9 1.3-.9 1.6-1.1 2.1-1.9.5-.8.7-1.3.8-2.1.2-.8.4-1.5.4-2v-1" opacity=".19"/><path fill="none" stroke="#A4712A" stroke-width=".306" d="M66.9 28.2s0 2.5 2.3 4.7 3.7 3 5.5 3.4c1.8.4 4.9.9 6.4.8 1.5-.1 3.5-.7 5.8-1.2s4.6-1.9 5.6-3 2.1-2.3 2.1-2.5c0-.2.4-2.1.4-2.1"/><path fill="none" stroke="#A4712A" stroke-width=".306" d="M67.3 24.9s-2.7 4-1.7 6.9c1 2.9 4.2 5.7 6.2 6.4 2 .7 10.9 2 13 1.5 2.2-.5 5.2-1.5 7.1-2.8 1.9-1.3 3.9-2.4 4.3-4.1.5-1.7.4-3.4.2-4.3-.2-.9-1.4-3.3-1.8-3.7-.4-.5-.7-.9-.7-.9"/><path fill="none" stroke="#A4712A" stroke-width=".306" d="M65 30.4s-.1 2.4 1.8 4.7c1.9 2.3 5.4 4.3 7 4.5 1.5.2 6.4 1.1 8.9 1 2.5-.1 5.7-1.4 6.9-1.7 1.2-.2 3.3-2.2 4.5-2.9"/><path fill="none" stroke="#A4712A" stroke-width=".306" d="M64 29.6s-.4 4.1.8 6.1c1.5 2.5 4.3 4 7.2 5.2 4.9 2 9.9 1.8 11.8 1.8 1.8 0 6.2-1.1 6.8-1.6.6-.5 3.1-2.5 4.6-4 1.5-1.5 3-3.3 3-5.2 0-1.9-1.2-4.8-1.3-5.2"/><path fill="none" stroke="#A4712A" stroke-width=".306" d="M62.3 32.8s.3 4.9 1.7 6c1.5 1.1 4 3 6.2 3.8 2.2.7 6 2.2 9.8 2.2 3.7-.1 7.3-.2 9.2-1.3 1.9-1 8.2-4.9 8.9-7.8.7-2.9.9-4.1.5-5.4l-1-2.4"/><path fill="none" stroke="#A4712A" stroke-width=".306" d="M63.7 26.7s-3.2 4.4-3.4 6.6c-.2 2.2.1 5.8 4 8.7 3.9 2.9 7.8 4.5 11.1 4.8 3.3.3 10.6.5 12.9-.6 2.3-1 5.7-2.6 5.9-2.9"/><path fill="none" stroke="#A4712A" stroke-width=".306" d="M60.1 29.1s-4.8 5.6-3.2 9.7c1.6 4.1 2.9 5.5 5.9 7.1 3 1.6 5.9 2.9 8.5 3.5 2.6.6 7.8 1.4 9.7 1.2 1.9-.2 5.8-.3 7.4-.8 1.6-.5 4.4-1.4 6.5-3.2 2.1-1.9 3.8-2.8 4.9-4.1 1-1.3 1.7-3 1.8-3.5.2-.5.4-3.1.4-5.2s-.8-3.4-.8-3.7"/><path fill="none" stroke="#A4712A" stroke-width=".306" d="M56 36.9s.2 3.4 1.6 5.7c1.5 2.3 1.3 2.8 4.4 4 3.1 1.2 5 2.8 7.7 3.5 2.7.7 4.7 1.2 7.1 1.4 2.4.3 7.9 0 8.8-.4.8-.3 2.9-.9 2.9-.9"/><path fill="#FABA2B" d="M65.7 25.6s-4.6 6.9-3.1 10.6c1.5 3.7 8.9 8.2 12.2 8.5 3.4.3 8.7 1.1 11.6.3 2.9-.8 8.5-3.7 10-5.7s2.9-6.1 2.9-7.5c0-1.5-1.6-4.1-1.6-4.7 0-.6 4 2.8 4.5 4 .5 1.2 2.4 3 .2 8.2-.7 1.6-4.9 6.8-8.4 8.9-3.5 2.1-5.8 2.4-9.7 3.8-5.3 1.8-11.6.4-14.5-.5-2.9-.8-7.7-4-9.7-5.7-2-1.8-4.8-3.6-4.7-6 0-2.4 2.2-7.7 3.2-9.6 1.1-1.9 3.7-3 4.5-3.5.8-.5 2.8-1.4 2.8-1.4" opacity=".36"/><path fill="#F7F6F5" stroke="#A4712A" stroke-width=".306" d="M79.9 21.6s-6.3 6.3-9 8.4c-3.5 2.7-3.7 4.7-8.9 7.4-2.3 1.2-5.1 1.4-5.1 1.4s2 .1 5.8-2.3c3.6-2.3 5.1-4.6 7.2-6.5 2.1-2 10-8.4 10-8.4z" opacity=".08"/><path fill="#F7F6F5" stroke="#A4712A" stroke-width=".306" d="M78.3 23.2s-6.1 2.5-8.6 3.7c-3.1 1.6-3.9 1.3-8.2 3.9-1.9 1.2-3.9 3-3.9 3s1.4-1.3 4.6-3.2c3.2-1.8 4.8-2.2 6.8-3.1 2-.8 9.3-4.3 9.3-4.3z" opacity=".08"/><path fill="#030303" stroke="#A4712A" stroke-width=".306" d="M79.1 20.5s-1.5.5-3.3.5c-1.8 0-1.9 1.5-3.4 1.8-1.5.3-2 1.9-4.5 2.3-2.5.5-3.6 3.1-4.4 2.9-.9-.1-2.9.5-2.9.5l-2.5 2.8-1 2.4s2.8.4 4-.6c1.3-1 5-2.7 5.5-3.2s2.6-1.7 3.5-2.2c.9-.4 3-1.9 3.8-2.2.8-.3 2.8-1.4 3.3-1.9s2-1.5 2-1.8c0-.3-.1-1.3-.1-1.3z" opacity=".04"/><path fill="#DCDC21" stroke="#A4712A" stroke-width=".306" d="M72.4 25.1s.2 1.7 1.5 3.3c1.3 1.6 3.7 2.7 5.7 2.9 1.9.2 4.8 0 6.2-.5 1.4-.5 3-1.2 4-2s2.1-1.5 2.4-2.4c.3-.9.3-1.9.3-2.5 0-.6-.1-1.2-.1-1.2-1.5-.1-9.1-3.2-12.7-2.7" opacity=".23"/><path fill="#F3F2ED" d="M85.5 28.5s1.4 1.3 1.4 2c0 .6 1.4 1.9 1.3 2.3-.1.4.8 1.5.7 2-.1.4-1.5 1-2.1 1.2-.6.2-2.4.8-1.8 1.1.5.3 2.6-.2 2.2.4-.4.6-1.4.9-1.6 1-.3.2.4.4 1.1.3.7-.1 1.5-.1 2.1-.1.6 0 1.9-.7 2.2-.7.3 0 .5 1.6.3 1.8-.3.2-3.7 1.4-3.7 1.4s-1.3 1.4-.6 1.5c.6.1 1.2 1 1.2 1l-2.3.8-1.4 1.1s.7-.3 1 .3c.3.6-.5 1.5-.7 1.5-.3 0 .5 1.4 1.4 1.7.8.3 3-.5 3.7-1 .7-.4 1.6-1 2.5-1.6.9-.6 3.2-2.5 3.2-2.5s-.1-1.1-1.1-.2c-1 .8-3.1 1.3-2.2.5.9-.8 2.7-2 3.3-2.6.6-.6 2.1-2.4 1.4-2.4-.7 0-2.3 2.3-2.6 2.3-.3.1.8-1.9 1.7-3.7.8-1.9 1.6-3.7 1.5-4.4-.1-.6-.5-1.5-1.1-.6-.6 1-1.9 2.4-1.9 2.4s.2-.1-.9-1.6-2.8-2.2-3.3-2.8c-.5-.6-2.2-1.5-2.6-2.1-.5-.6-1.6-.6-1.8-.6-.5-.1-.5.3-.5.3z" opacity=".21"/><path fill="#030303" d="M66.3 26.3s-4.6 6.9-3.1 10.6c1.5 3.7 8.9 8.2 12.2 8.5 3.4.3 8.7 1.1 11.6.3 2.9-.8 8.5-3.7 10-5.7s2.9-6.1 2.9-7.5c0-1.5-1.6-4.1-1.6-4.7 0-.6 4 2.8 4.5 4 .5 1.2 2.4 3 .2 8.2-.7 1.6-4.9 6.8-8.4 8.9-3.5 2.1-5.8 2.4-9.7 3.8-5.3 1.8-11.6.4-14.5-.5-2.9-.8-7.7-4-9.7-5.7-2-1.8-4.8-3.6-4.7-6 0-2.4 2.2-7.7 3.2-9.6 1.1-1.9 3.7-3 4.5-3.5.8-.5 2.8-1.4 2.8-1.4" opacity=".05"/><path fill="#7C7A54" d="M60.6 44.1s-4.9-.7-9.7 3.7c-4.8 4.4-8.4 2.1-11 6-2.6 4-7.7 9.1-2 15 11.7 12 24.9 9.9 30.6 6.7 5.7-3.2 11.4-7.6 12.2-10 .8-2.4 3.4-5.6 2.1-9.1-1.4-3.5-7.6-7.4-9.8-8.5-2.2-1.1-7.1-1.9-8.9-2.6-1.7-.8-3.5-1.2-3.5-1.2z"/><path fill="#030303" stroke="#A4712A" stroke-width=".306" d="M65.6 45.3s.2 2.4-1.3 2.5c-1.5.2-2.4.7-4.4.5-2-.2-3.8-.7-4.2-1.4-.4-.7-.2-1.1-.2-1.4 0-.3.6-.8.9-.9.4-.1-.3 1.3.2 1.9.4.6 3.3 1.5 3.9 1.4.6-.1 3.6-.5 3.9-1 .4-.6.7-1.5.7-1.5l.5-.1z" opacity=".2"/><path fill="#030303" stroke="#A4712A" stroke-width=".306" d="M67.3 45.9s2.7 3 .6 4.5-4.5 2.6-6.1 2.6c-1.6.1-4.5 0-5.9-.8-1.5-.7-2.6-1.6-2.9-2.5-.4-1-.3-1.5 0-2 .3-.6.4-.9.4-.9l-1.2.5s.1 2.8 1 3.8 5 2.7 6.8 2.7c1.8 0 5.8-1.2 6.9-1.9 1.2-.7 2.5-1.9 2.5-2.5 0-.6-.2-1.9-.7-2.6-.5-.7-.7-1-.7-1h-.7z" opacity=".2"/><path fill="#030303" stroke="#A4712A" stroke-width=".306" d="M49 48.8s-3.3 3.3-2.7 5.6c.6 2.3 2.7 5.1 4.8 6.4 2.1 1.2 8.9 2.5 11 2.2 2.1-.2 9.4-2.5 11.1-4.7 1.6-2.3 2.4-3 1.9-4.8-.5-1.8-.8-3.4-1.8-4.4-1-1-2.1-1.7-2.4-1.9-.4-.2-1.3-.9-1.3-.9s2.5 1.2 3.5 2.1c1 .9 2.4 3.2 2.4 4.5 0 1.3.7 3.2-1 5-1.7 1.9-2.8 2.6-4.2 3.1-1.4.5-2.9 1.5-4.1 1.6-1.2.1-2.8.8-4.1.8-1.3 0-2.8-.1-4.6-.3-1.7-.3-2.5-.3-4.4-1.1-1.9-.8-3.6-1.6-4.7-3s-2-2.8-2.3-4c-.3-1.2.2-2.5.3-3.4.1-.9 1-1.5 1.3-2 .3-.4 1.3-.8 1.3-.8z" opacity=".2"/><path fill="#030303" stroke="#A4712A" stroke-width=".306" d="M45.4 50.5S40 59 41.3 61.4c1.4 2.4 7.3 7.1 9.7 7.7 2.5.6 10.7 2.6 14.4 1.1 3.7-1.4 4.3-1.7 6.5-3.2 2.2-1.5 4.3-2.9 5.1-4.1.8-1.2 1.8-2.1 1.8-4s1.1-2.3-.2-4.7c-1.4-2.4-1.8-3.4-2.2-3.7-.4-.2-.4-.8-.4-.8s1.1.9 1.9 2.4c.8 1.5 1.7 3.1 1.7 4.7s.1 2.7-.6 4.1c-.7 1.4-1.5 2.8-3 4.1-1.6 1.4-3.5 2.6-4.9 3.5-1.5.9-3.7 1.6-5.3 2.1-1.6.5-4.2.6-6.4.5-2.2-.1-3.3-.4-5.2-.7-1.9-.3-4-.7-5.2-1.7-1.2-.9-1.5-1.1-3.4-2.3-1.8-1.2-2.9-1.7-3.8-3.2-.9-1.5-1.4-2.4-1.4-3.6 0-1.2.6-2.4.8-3.3.2-.9.9-2.4 1.3-2.9s1.2-1.1 1.6-1.9c.4-.8.5-1.3.7-1.3.3 0 .6.3.6.3z" opacity=".2"/><path fill="#030303" stroke="#A4712A" stroke-width=".306" d="M41.9 51.8c.1.2-5.8 7.2-3.7 11.6 2.1 4.4 2.7 4.5 3.9 5.5 1.2 1 4.2 2.5 5.5 2.9 1.4.4 7.7 2.2 9.8 2.2 2.1 0 6.3.2 8.5-.4 2.2-.6 7.1-2.7 9.2-4.3 2-1.5 2.6-2.7 3.9-4 1.3-1.4 1.6-2.3 1.9-2.8.4-.6.6.5.6.5s-1.1 1-1.7 1.9c-.6.9-2.6 3.2-2.6 3.2S75 69.9 74 70.4c-1 .6-3.9 2-4.7 2.2-.8.2-2.4 1.6-4.1 1.6-1.7 0-5.1.3-6.5.3-1.4 0-2.3-.1-4.2-.5-1.9-.4-2.6-.7-4.2-1.1-1.5-.3-1.5-.1-3.1-.8-1.6-.7-3.4-1.6-4.4-2.1-1-.5-1.9-1-3.1-2.5-1.2-1.5-1.5-2.1-1.8-3.4-.3-1.3-.7-1.5-.7-3.5s.8-2.7 1.4-4c.6-1.4 1.1-1.5 1.6-2.6s.9-1.8.9-1.8l.8-.4z" opacity=".2"/><path fill="#030303" stroke="#A4712A" stroke-width=".306" d="M69.5 46.4s2.9 2.9 2.4 4.7c-.5 1.9-1.5 3.6-2.6 4-1.1.4-1.4 1.1-2.8 1.5-1.5.4-.9.8-2.7.9-1.7.1-2.2.6-3.7.3s-3-.3-4.5-.9c-1.5-.7-3.2-1.2-4.2-2.4-1-1.1-.9-1-1.3-2.8-.4-1.8-.1-2 .2-2.6.3-.6-.2-.8-.5-.6-.3.2-.4.1-.5 1.5-.1 1.4.3 1.9.8 3.4s1.1 1.9 2.6 2.8c1.5.9 3.2 1.6 4.4 1.8 1.2.2 2.7.3 4 .3 1.3 0 3.8-.6 5.3-1.1 1.5-.5 4.2-2.6 4.9-3.5.6-1 1.2-2.1 1-3.3-.2-1.2-.4-1.5-.8-2.4-.2-1-2-1.6-2-1.6z" opacity=".2"/><path fill="#030303" stroke="#A4712A" stroke-width=".306" d="M74.5 48.9s2.8 4.2 2.4 6.4c-.4 2.2-.4 2.8-1.5 4.2-1.1 1.4-2.2 2.4-3.8 3.6-1.6 1.2-1.9 1.7-3.3 1.9-1.4.2-2.5.9-4 1-1.5.1-1.3.2-2.4.2-1.1 0-2 .1-3.1.1s-3.2-.2-4.8-.8c-1.6-.7-3.9-1.8-5.2-2.5-1.3-.7-3.2-2.3-3.8-3.7-.6-1.4-.6-2.4-.6-3.8s.6-1.6.7-2.6c.1-1 1-2.3 1.3-2.7.3-.4-.5-.6-.6-.3-.1.2-1.4 2.9-1.4 3.5 0 .6-.6 2.1-.5 3.2.1 1.1 1.2 4.2 2.2 5.1 1 .9 2.7 2 4.7 2.8 2 .8 2.2 1.3 5 2s4.4.3 7.3.2c2.9-.1 6.3-1 7-1.5.7-.5 2.9-2.3 4.3-3.6 1.4-1.4 2.8-2.8 2.8-4.1 0-1.3.2-2.4 0-3.7-.2-1.3-1.1-1.8-1.2-2.5-.1-.7-.5-1.6-.9-1.9-.2-.4-.6-.5-.6-.5z" opacity=".2"/><path fill="#030303" stroke="#A4712A" stroke-width=".306" d="M43.5 51.2s-6.1 6.8-4 10.9c2.1 4.1 5.5 6.5 7.7 7.6 2.2 1.1 8.2 2.6 10.5 2.7 2.3.1 7.8-.2 9-.8 1.3-.6 4.3-1.2 5.3-2s4.2-3.4 5-4.1c.7-.7 2.7-3.3 2.9-4.1.2-.8.5-2 .5-3.7 0-1.6-.3-3.2-.7-3.9-.5-.7-.8-1.8-1-2-.2-.2.2.3 1.2.9 1 .7 1.1 3.8 1.1 4.6 0 .8-.2 2.4-.4 3.5s-.4 1.7-1.6 3.2c-1.2 1.5-.8 2-2.1 2.7-1.3.7-1.9 1.9-3.1 2.4-1.2.5-2.2 1.9-3.8 2.2-1.6.3-3.6 1.3-5.1 1.4-1.6.1-2.2.1-3.5.1-1.3 0-2.9.3-4.9-.1-2-.4-4.3-.9-5.8-1.4-1.5-.5-.9 0-2.4-.7s-.6-.3-1.8-.8c-1.2-.6-2.2-1.6-3.3-2.4-1.1-.8-1.8-1.3-2.6-2.6s-1.3-1.9-1.7-3.4c-.4-1.5-.2-2.4.3-3.8.5-1.5 1.3-3.1 2-4.1.7-1.1 1.3-2 1.3-2l1-.3zm11.7-5.1s1.4 3.1 2.8 3.2c1.4.1 4.3.3 5.2 0 .9-.2 2.9-1.5 3.1-2 .2-.5.2-1.2.2-1.5 0-.3.5-.1.5-.1s.4 2.2-.6 2.8c-.9.6-3.1 1.7-3.4 1.7h-3.7c-.9 0-2.7-.6-3-1-.4-.4-1.2-1.4-1.4-1.6-.2-.2-.2-.5-.2-.8 0-.4.5-.7.5-.7z" opacity=".2"/><path fill="#030303" stroke="#A4712A" stroke-width=".306" d="M43.3 55.8s-.4 3.4.9 5.1c1.3 1.7 3.3 3.3 5 4.2 1.7.9 6.2 2.8 7.7 2.8s5.3.2 7.9.1c2.7-.1 6.2-2 7.1-2.9.9-.9 3.7-3.5 4.2-4.3l1.5-2.4s-1.7 3.6-2.5 4.7c-.8 1-3.6 3-4.6 3.4-1 .4-5.7 2.2-8.8 2.2-3.1 0-8-.7-10.5-1.9s-6.7-3.2-7.7-5.5-1.1-3-1-4c.1-1 .3-1.9.3-1.9l.5.4z" opacity=".2"/><path fill="none" stroke="#A4712A" stroke-width=".306" d="M57.7 45s2 .5 2.6.5c.5 0 1.9-.3 2.2-.5.3-.2.7-.4.7-.4"/><path fill="#67654A" d="M57.1 45.4s1.6.7 2.6.7c.9 0 2.4.1 3-.2.7-.3 1.7-.9 1.7-.9s-2.5-1.3-4.2-1.1c-1.7.2-3.4.3-3.7.8-.4.5.6.7.6.7z"/><path fill="none" stroke="#A4712A" stroke-width=".306" d="M65.1 45.4s-.8.4-1.6.9c-.7.5-2.7.9-3.5.9-.7 0-3.4-1.2-3.4-1.2"/><path fill="none" stroke="#A4712A" stroke-width=".306" d="M55.2 46.1s1.7 2.8 5.1 2.8c3.4 0 5.1-1 5.3-1.4.2-.4.4-1.3.4-1.5v-.2"/><path fill="#030303" stroke="#A4712A" stroke-width=".306" d="M53.4 46.8s1.1 3.1 2.5 3.7c1.5.6 4.7 1.3 6 1.1 1.3-.2 3.6-1.1 4.4-1.7.8-.6 1.7-1.5 1.8-2.4 0-.9-.7-1.6-.7-1.6s.3 1 .3 1.8-1.8 2-3.2 2.7c-1.4.6-6.7.5-7.8-.1-1.2-.7-2.3-3.6-2.3-3.6l-.5.2" opacity=".2"/><path fill="none" stroke="#A4712A" stroke-width=".306" d="M53 47.7s.8 3.5 3.6 3.9c2.8.4 4.6.8 6 .4 1.5-.4 4.2-1.7 4.6-2.3.4-.6 1.1-1.8 1.1-1.8l.1-.6"/><path fill="#030303" stroke="#A4712A" stroke-width=".306" d="M51.5 47.8s.7 3.9 2.6 4.9c1.9 1 4.3 2 6.9 1.8 2.6-.2 5.6-1.1 6.2-1.8.6-.6 2.2-1.7 2.5-2.5.3-.8.4-2.3.2-2.8s-1.1-1.1-1.1-1.1h.6s1 1.4 1 1.9-.7 2.7-.8 3c-.2.3-2.5 2.5-3.1 2.5-.6 0-2 .6-2.6.7-.5.1-1 .2-1.7.3-.7.1-1 .2-2.1.2s-2.5-.1-3.4-.6c-.9-.5-1.9-.2-2.9-1.1-1-1-1.8-2.2-2.2-3.2-.4-1-.5-1.6-.5-1.8.1-.2.4-.4.4-.4z" opacity=".2"/><path fill="none" stroke="#A4712A" stroke-width=".306" d="M49 48.8c.2.7-.7 2.7.9 5 1.5 2.3 3.7 3.8 5.1 4.2 1.4.5 8.9.6 11 .1 2.1-.6 3.5-1.5 4.5-2.6s1.7-1.3 2.1-2.8c.5-1.5.4-2.3.5-3.2.1-1-.6-1.2-.6-1.2"/><path fill="none" stroke="#A4712A" stroke-width=".306" d="M73.2 49.1s.2.3.2.6-.2 1.3-.2 2.2c0 .9-1 2.5-1.8 3.6-.7 1-2.4 1.8-3.8 2.5s-5.1 1.3-6.7 1.4c-1.6.2-6.8-.8-8-1.4-1.2-.6-3.4-2.2-4.3-4.6-.9-2.4-.2-4.1-.2-4.1l1.8-.2s-.2 2 .8 3.5 2.9 2.8 4.8 3.3 5.1.8 6.8.5c1.6-.3 3.3-.3 4.7-1.2 1.4-.9 2.2-1.1 2.8-2.2.6-1.1 1-2.2 1-3.1"/><path fill="none" stroke="#A4712A" stroke-width=".306" d="M47.9 50.4s-.4 1-.1 2.4c.3 1.4 1.2 2.6 2.1 3.7.9 1.1 3 2.5 4.2 2.9 1.2.3 6.5 1.1 9.4.5 2.9-.6 5.8-1.8 6.8-2.5 1-.6 2.8-2.8 3-3.7.3-.9.5-2.1.5-2.8v-1.1"/><path fill="none" stroke="#A4712A" stroke-width=".306" d="M47.3 51.3s-.4 1.9.4 3.7c.8 1.7 3.2 3.7 4.5 4.2 1.3.5 5.6 1.7 8.4 1.5 2.8-.2 5-.4 6.6-.9 1.6-.6 2.4-1 3.7-1.9 1.3-.9 1.6-1.1 2.1-1.9.5-.8.6-1.3.8-2.1.2-.8.4-1.5.4-2v-1" opacity=".19"/><path fill="none" stroke="#A4712A" stroke-width=".306" d="M46.7 52.7s0 2.5 2.3 4.7 3.7 3 5.5 3.4c1.8.4 4.9.9 6.4.8 1.5-.1 3.5-.7 5.8-1.2s4.6-1.9 5.6-3 2.1-2.3 2.1-2.5c0-.3.4-2.1.4-2.1"/><path fill="none" stroke="#A4712A" stroke-width=".306" d="M47 49.4s-2.7 4-1.7 6.9c1 2.9 4.2 5.7 6.2 6.4 2 .7 10.9 2 13 1.5 2.2-.5 5.2-1.5 7.1-2.8 1.9-1.3 3.9-2.4 4.3-4.1.5-1.7.4-3.4.2-4.3-.2-.9-1.4-3.2-1.8-3.7-.4-.5-.7-.9-.7-.9"/><path fill="none" stroke="#A4712A" stroke-width=".306" d="M44.7 54.9s-.1 2.4 1.8 4.7c1.9 2.3 5.4 4.3 7 4.5 1.5.2 6.4 1.1 8.9 1 2.5-.1 5.7-1.4 6.9-1.7 1.2-.2 3.3-2.2 4.5-2.9"/><path fill="none" stroke="#A4712A" stroke-width=".306" d="M43.7 54.1s-.4 4.1.8 6.1c1.5 2.5 4.3 4 7.2 5.2 4.9 2 9.9 1.8 11.8 1.8 1.8 0 6.2-1.1 6.8-1.6.6-.5 3.1-2.5 4.6-4 1.5-1.5 3-3.3 3-5.2 0-1.9-1.2-4.8-1.3-5.2"/><path fill="none" stroke="#A4712A" stroke-width=".306" d="M42.1 57.3s.3 4.9 1.7 6c1.5 1.1 4 3 6.2 3.8 2.2.7 6 2.2 9.8 2.2 3.7-.1 7.3-.2 9.2-1.3 1.9-1 8.2-4.9 8.9-7.8.7-2.9.9-4.1.5-5.4l-1-2.4"/><path fill="none" stroke="#A4712A" stroke-width=".306" d="M43.5 51.2s-3.2 4.4-3.4 6.6c-.2 2.2.1 5.8 4 8.7 3.9 2.9 7.8 4.5 11.1 4.8 3.3.2 10.6.5 12.9-.6 2.3-1 5.7-2.6 5.9-2.9"/><path fill="none" stroke="#A4712A" stroke-width=".306" d="M39.8 53.6s-4.8 5.6-3.2 9.7c1.6 4.1 2.9 5.5 5.9 7.1 3 1.6 5.9 2.9 8.5 3.5 2.6.6 7.8 1.4 9.7 1.2 1.9-.2 5.8-.3 7.4-.8 1.6-.5 4.4-1.4 6.5-3.2 2.1-1.9 3.8-2.8 4.9-4.1 1-1.3 1.7-3 1.8-3.5.2-.5.4-3.1.4-5.2s-.8-3.4-.8-3.7"/><path fill="none" stroke="#A4712A" stroke-width=".306" d="M35.7 61.4s.2 3.4 1.6 5.7c1.5 2.3 1.3 2.8 4.4 4 3.1 1.2 5 2.8 7.7 3.5 2.7.7 4.7 1.2 7.1 1.4 2.4.2 7.9 0 8.8-.4.8-.3 2.9-.9 2.9-.9"/><path fill="#DCDC21" stroke="#A4712A" stroke-width=".306" d="M45.9 49.7s-4.6 6.9-3.1 10.6c1.5 3.7 8.9 8.2 12.2 8.5 3.4.3 8.7 1.1 11.6.3 2.9-.8 8.5-3.7 10-5.7s2.9-6.1 2.9-7.5c0-1.5-1.6-4.1-1.6-4.7 0-.6 4 2.8 4.5 4 .5 1.2 2.4 3 .2 8.2-.7 1.6-4.9 6.8-8.4 8.9-3.5 2.1-5.8 2.4-9.7 3.8-5.3 1.8-11.6.4-14.5-.5-2.9-.8-7.7-3.9-9.7-5.7-2-1.8-4.8-3.6-4.7-6 0-2.4 2.2-7.7 3.2-9.6 1.1-1.9 3.7-3 4.5-3.5.8-.5 2.8-1.4 2.8-1.4" opacity=".23"/><path fill="#F7F6F5" stroke="#A4712A" stroke-width=".306" d="M59.7 46.1s-6.3 6.3-9 8.4c-3.5 2.7-3.7 4.7-8.9 7.4-2.3 1.2-5.1 1.4-5.1 1.4s2 .1 5.8-2.3c3.6-2.3 5.1-4.6 7.2-6.5 2.1-2 10-8.4 10-8.4z" opacity=".08"/><path fill="#F7F6F5" stroke="#A4712A" stroke-width=".306" d="M58 47.7s-6.1 2.5-8.6 3.7c-3.1 1.6-3.9 1.3-8.2 3.9-1.9 1.2-3.9 3-3.9 3s1.4-1.3 4.6-3.2c3.2-1.8 4.8-2.2 6.8-3.1 2.1-.8 9.3-4.3 9.3-4.3z" opacity=".08"/><path fill="#030303" stroke="#A4712A" stroke-width=".306" d="M58.8 45s-1.5.5-3.3.5c-1.8 0-1.9 1.5-3.4 1.8-1.5.3-2 1.9-4.5 2.3-2.5.5-3.6 3.1-4.4 2.9-.9-.1-2.9.5-2.9.5l-2.5 2.8-1 2.4s2.8.4 4-.6c1.3-1 5-2.7 5.5-3.2s2.6-1.7 3.5-2.2c.9-.4 3-1.9 3.8-2.2.8-.3 2.8-1.4 3.3-1.9s2-1.5 2-1.8c.1-.3-.1-1.3-.1-1.3z" opacity=".04"/><path fill="#DCDC21" stroke="#A4712A" stroke-width=".306" d="M51.5 49.5s.2 1.7 1.5 3.3c1.3 1.6 3.7 2.7 5.7 2.9 1.9.2 4.8 0 6.2-.5 1.4-.5 3-1.2 4-2s2.1-1.5 2.4-2.4c.3-.9.3-1.9.3-2.5 0-.6-.1-1.2-.1-1.2-1.5-.1-9.1-3.2-12.7-2.7" opacity=".23"/><path fill="#F3F2ED" d="M65.3 53.1s1.4 1.3 1.4 2 1.4 1.9 1.3 2.3c-.1.4.8 1.5.7 2-.1.4-1.5 1-2.1 1.2-.6.2-2.4.8-1.8 1.1.5.3 2.6-.2 2.2.4-.4.6-1.4.9-1.7 1-.3.2.4.4 1.1.3.7-.1 1.5-.1 2.1-.1.6 0 1.9-.7 2.2-.7s.5 1.6.3 1.8c-.3.2-3.7 1.4-3.7 1.4s-1.3 1.4-.6 1.5c.6.1 1.2 1 1.2 1l-2.5.7-1.4 1.1s.7-.3 1 .3c.3.6-.5 1.5-.7 1.5-.3 0 .5 1.4 1.4 1.7.8.3 3-.5 3.7-1 .7-.4 1.6-1 2.5-1.6.9-.6 3.2-2.5 3.2-2.5s-.1-1.1-1.1-.2c-1 .8-3.1 1.3-2.2.5.9-.8 2.7-2 3.3-2.6.6-.6 2.1-2.4 1.4-2.4-.7 0-2.3 2.3-2.6 2.3-.3.1.8-1.9 1.7-3.7.8-1.9 1.6-3.7 1.5-4.4-.1-.6-.5-1.5-1.1-.6-.6 1-1.9 2.4-1.9 2.4s.2-.1-.9-1.6-2.8-2.2-3.3-2.8c-.5-.6-2.2-1.5-2.6-2.1-.5-.6-1.6-.6-1.8-.6-.3-.1-.2.4-.2.4z" opacity=".15"/></g></switch></svg>
