<svg xmlns="http://www.w3.org/2000/svg" xmlns:xlink="http://www.w3.org/1999/xlink" version="1.0" viewBox="0 0 220 129"><switch><g><pattern id="c" width="55.1" height="55.1" overflow="visible" patternUnits="userSpaceOnUse" viewBox="0 -55.1 55.1 55.1"><path fill="none" d="M0 0v-55.1h55.1V0z"/><path fill="#231F20" d="M0 0v-55.1h55.1V0z"/></pattern><path fill="#CDE4F6" fill-rule="evenodd" d="M219.9 129V0H.3v129h219.6z" clip-rule="evenodd"/><path fill="#7D83BF" d="M175 64.6l.2-3.4L19 62.3v4.4z"/><path fill="#BF9CC8" d="M175.1 64.2l44.9 46V0l-44.8.1z"/><path fill="#6C6C6B" fill-rule="evenodd" d="M187 43.9l21.3 21.8V28L186.8 6z" clip-rule="evenodd"/><path fill="#138844" fill-rule="evenodd" d="M188.3 42.4L206 61.2l-.3-32.8-17.8-18.2z" clip-rule="evenodd"/><path fill="#7D83BF" d="M175 65.2l.2-4.5 44.3 44.6.1 5.8z"/><path fill="#7D7E7E" fill-rule="evenodd" d="M208.3 65.7l-4.4.5-20.4-21.6 3.5-.7z" clip-rule="evenodd"/><path fill="#EBEBEA" fill-rule="evenodd" d="M187 47c1.7.8 3.5 5.5 5.1 4.2.1-2.2-3.5-5-5-6.2-.4.2-.5.5-.2 1.1" clip-rule="evenodd"/><path fill="#090A0B" d="M134.4 60.4c-.1 0-.2 0-.2.1.2.1.3.1.5-.1-.1-.2-.3-.2-.5 0"/><path fill="#9BDAEE" d="M19.1 66.6L0 103.8.4 0l19.8.1z"/><path fill="#7D83BF" d="M.4 96.7v6.2l18.3-33.4.7-7.3z"/><path fill="#FACC4F" stroke="#F5BC17" stroke-width="1.372" d="M171.6 63.5c0 .6-.6 1.1-1.3 1.1H33.4c-.7 0-1.3-.5-1.3-1.1V48.8c0-.6.6-1.1 1.3-1.1h136.9c.7 0 1.3.5 1.3 1.1v14.7z"/><path fill="#F6D278" stroke="#F5BC17" stroke-width="1.088" d="M168.5 57.3c0 3.5.4 6.4-1.1 6.4h-15c-1.5 0-1.1-2.9-1.1-6.4v-1.7c0-3.5-.4-6.4 1.1-6.4h15c1.5 0 1.1 2.9 1.1 6.4v1.7z"/><path fill="#575755" d="M156.1 49c-1.9 1.4-3.4 3.3-3.5 5.4 0 1 .6 1.9 1.1 2.9.5 1 .3 1.9.9 2.9 1.3 2.4 3.9 1.7 6.4 1.8 1.3 0 5.9.5 6.3 1.3-2.4.9-6.2.2-8.8.1-1.6-.1-3 .2-4.6 0-2.3-.3-2.4-.4-2.5-2.4-.1-2.5.2-5.2.2-7.8 0-.9-.8-3.5.3-3.7 1.6-.3 3.8-.6 4.3.2" opacity=".06"/><path fill="#F6D278" d="M149.4 57.4c0 3.5.4 6.4-1.1 6.4h-15.4c-1.5 0-1.1-2.9-1.1-6.4v-1.7c0-3.5-.4-6.4 1.1-6.4h15.4c1.5 0 1.1 2.9 1.1 6.4v1.7z"/><path fill="none" stroke="#F5BC17" stroke-width="1.088" d="M149.4 57.4c0 3.5.4 6.4-1.1 6.4h-15.4c-1.5 0-1.1-2.9-1.1-6.4v-1.7c0-3.5-.4-6.4 1.1-6.4h15.4c1.5 0 1.1 2.9 1.1 6.4v1.7z"/><path fill="#575755" d="M136.6 49c-1.9 1.4-3.5 3.3-3.6 5.4 0 1 .7 1.9 1.1 2.9.5 1 .3 1.9.9 2.9 1.3 2.4 4 1.7 6.6 1.8 1.3 0 6.1.5 6.5 1.3-2.4.9-6.4.2-9 .1-1.6-.1-3.1.2-4.7 0-2.3-.3-2.5-.4-2.6-2.4-.2-2.5.2-5.2.2-7.8 0-.9-.8-3.5.3-3.7 1.7-.3 3.9-.6 4.4.2" opacity=".05"/><ellipse cx="153.6" cy="56.4" fill="#F17A21" rx="1" ry=".5"/><ellipse cx="153.5" cy="56.4" fill="#F17A21" rx=".7" ry=".4"/><ellipse cx="153.5" cy="56.4" fill="#F17A21" rx=".5" ry=".2"/><ellipse cx="146.8" cy="56.5" fill="#F17A21" rx="1" ry=".5"/><ellipse cx="146.7" cy="56.5" fill="#F17A21" rx=".7" ry=".4"/><ellipse cx="146.7" cy="56.5" fill="#F17A21" rx=".5" ry=".2"/><path fill="#F6D278" stroke="#F5BC17" stroke-width="1.088" d="M127.7 57.3c0 3.5.4 6.4-1.1 6.4h-15c-1.5 0-1.1-2.9-1.1-6.4v-1.7c0-3.5-.4-6.4 1.1-6.4h15c1.5 0 1.1 2.9 1.1 6.4v1.7z"/><path fill="#575755" d="M115.3 49c-1.9 1.4-3.4 3.3-3.5 5.4 0 1 .6 1.9 1.1 2.9.5 1 .3 1.9.9 2.9 1.3 2.4 3.9 1.7 6.4 1.8 1.3 0 5.9.5 6.3 1.3-2.4.9-6.2.2-8.8.1-1.6-.1-3 .2-4.6 0-2.3-.3-2.4-.4-2.5-2.4-.1-2.5.2-5.2.2-7.8 0-.9-.8-3.5.3-3.7 1.6-.3 3.8-.6 4.3.2" opacity=".06"/><path fill="#F6D278" d="M108.5 57.4c0 3.5.4 6.4-1.1 6.4H92.1c-1.5 0-1.1-2.9-1.1-6.4v-1.7c0-3.5-.4-6.4 1.1-6.4h15.4c1.5 0 1.1 2.9 1.1 6.4v1.7z"/><path fill="none" stroke="#F5BC17" stroke-width="1.088" d="M108.5 57.4c0 3.5.4 6.4-1.1 6.4H92.1c-1.5 0-1.1-2.9-1.1-6.4v-1.7c0-3.5-.4-6.4 1.1-6.4h15.4c1.5 0 1.1 2.9 1.1 6.4v1.7z"/><path fill="#575755" d="M95.8 49c-1.9 1.4-3.5 3.3-3.6 5.4 0 1 .7 1.9 1.1 2.9.5 1 .4 1.9.9 2.9 1.3 2.4 4 1.7 6.6 1.8 1.3 0 6.1.5 6.5 1.3-2.4.9-6.4.2-9 .1-1.6-.1-3.1.2-4.7 0-2.3-.3-2.5-.4-2.6-2.4-.2-2.5.2-5.2.2-7.8 0-.9-.8-3.5.3-3.7 1.7-.3 3.9-.6 4.4.2" opacity=".05"/><ellipse cx="112.7" cy="56.4" fill="#F17A21" rx="1" ry=".5"/><ellipse cx="112.7" cy="56.4" fill="#F17A21" rx=".7" ry=".4"/><ellipse cx="112.7" cy="56.3" fill="#F17A21" rx=".5" ry=".2"/><ellipse cx="105.9" cy="56.5" fill="#F17A21" rx="1" ry=".5"/><ellipse cx="105.9" cy="56.5" fill="#F17A21" rx=".7" ry=".4"/><ellipse cx="105.9" cy="56.5" fill="#F17A21" rx=".5" ry=".2"/><path fill="#F6D278" stroke="#F5BC17" stroke-width="1.088" d="M74.9 57.3c0 3.5.4 6.4-1.1 6.4h-15c-1.5 0-1.1-2.9-1.1-6.4v-1.7c0-3.5-.4-6.4 1.1-6.4h15c1.5 0 1.1 2.9 1.1 6.4v1.7z"/><path fill="#575755" d="M62.5 48.9c-1.9 1.4-3.4 3.3-3.5 5.4 0 1 .6 1.9 1.1 2.9.5 1 .3 1.9.9 2.9 1.3 2.4 3.9 1.7 6.4 1.8 1.3 0 5.9.5 6.3 1.3-2.4.9-6.2.2-8.8.1-1.6-.1-3 .2-4.6 0-2.3-.3-2.4-.4-2.5-2.4-.1-2.5.2-5.2.2-7.8 0-.9-.8-3.5.3-3.7 1.6-.3 3.8-.6 4.3.2" opacity=".06"/><path fill="#F6D278" d="M55.7 57.3c0 3.5.4 6.4-1.1 6.4H39.2c-1.5 0-1.1-2.9-1.1-6.4v-1.7c0-3.5-.4-6.4 1.1-6.4h15.4c1.5 0 1.1 2.9 1.1 6.4v1.7z"/><path fill="none" stroke="#F5BC17" stroke-width="1.088" d="M55.7 57.3c0 3.5.4 6.4-1.1 6.4H39.2c-1.5 0-1.1-2.9-1.1-6.4v-1.7c0-3.5-.4-6.4 1.1-6.4h15.4c1.5 0 1.1 2.9 1.1 6.4v1.7z"/><path fill="#575755" d="M43 49c-1.9 1.4-3.5 3.3-3.6 5.4 0 1 .7 1.9 1.1 2.9.5 1 .4 1.9.9 2.9 1.3 2.4 4 1.7 6.6 1.8 1.3 0 6.1.5 6.5 1.3-2.4.9-6.4.2-9 .1-1.6-.1-3.1.2-4.7 0-2.3-.3-2.5-.4-2.6-2.4-.2-2.5.2-5.2.2-7.8 0-.9-.8-3.5.3-3.7 1.7-.3 3.9-.6 4.4.2" opacity=".05"/><path fill="#F17A21" d="M60.9 56.3c0 .3-.5.5-1 .5-.6 0-1-.2-1-.5s.5-.5 1-.5c.6 0 1 .3 1 .5z"/><ellipse cx="59.9" cy="56.3" fill="#F17A21" rx=".7" ry=".4"/><ellipse cx="59.9" cy="56.3" fill="#F17A21" rx=".5" ry=".2"/><ellipse cx="53.1" cy="56.5" fill="#F17A21" rx="1" ry=".5"/><ellipse cx="53.1" cy="56.4" fill="#F17A21" rx=".7" ry=".4"/><ellipse cx="53.1" cy="56.4" fill="#F17A21" rx=".5" ry=".2"/><g stroke="#F5BC17" stroke-width="1.372"><path fill="#FCD259" d="M171.4 46c0 .7-1.7 1.2-3.7 1.2H35.6c-2 0-3.7-.5-3.7-1.2v-.6c0-.6 1.7-1.2 3.7-1.2h132.1c2 0 3.7.5 3.7 1.2v.6z"/><path fill="#F5BC17" d="M31.6 45.7v1.7h141.2l-1.2-2z"/></g><g fill="#F5BC17" stroke="#F5BC17" stroke-width="1.372"><path d="M172.9 65.9c0 .7-1.7 1.2-3.8 1.2h-134c-2.1 0-3.8-.5-3.8-1.2v-.6c0-.7 1.7-1.2 3.8-1.2h134c2.1 0 3.8.5 3.8 1.2v.6z"/><path d="M31.1 65.6v1.7h143.2l-1.3-1.9z"/></g><path fill="#D1D2D2" d="M114.5 32.5l6.3 2.9h.3l-6.6-3.1zm-.6-.5l-.2.1-.2-.1.2-.2z"/><path fill="#A4A5A4" d="M113.9 32l.6.3v.2l-.8-.4z"/><path fill="#4160A9" d="M125.1 35.1s2.2 0 2.8.2c.6.2 2.4 2.7 2.5 3.4.1.7 0 1.4 0 1.5 0 .1-.5 1.1-1.3 1.8s-2.6 1.7-3.7 2c-1.1.2-.7.2-1.8.2-1.2.1-9.8-.1-12.1-1.1-2.3-1.1-2.2-1.2-2.8-1.7-.5-.5-1.8-1.7-1.7-2.2.1-.5.4-1.4.8-1.9.4-.6 1.4-1.3 1.4-1.3s2.4-1.4 2.9-1.4 2.4-.2 2.8 0c.4.2.3.6.3.6s.9.2 1.7.2c.8 0 4.4.1 5.1.2.7.1 1.2.3 1.5.4.3.1.1.5.1.5l.3.2.5-.2.7-1.4z"/><path fill="#FCD434" d="M113.2 35.8s.3-.9.7-1.6c.3-.4.9-.5.9-.5l1-1.3h-.3s-1.4.9-1.9 1.5c-.4.6-1.1 1.9-1.1 1.9h.7z"/><radialGradient id="a" cx="378.596" cy="302.348" r=".729" gradientTransform="matrix(1.1612 0 0 .9235 -315.562 -244.828)" gradientUnits="userSpaceOnUse"><stop offset="0" stop-color="#cbd5d1"/><stop offset="1" stop-color="#667375"/></radialGradient><path fill="url(#a)" d="M124 34.8v-.4s.5.3.4.4v.4l-.4-.4z"/><path fill="#FBCD0F" d="M116 32.4l-1 1.2-.1.1v.6s.3-.2 1.3-.3c1-.2 2.2-.3 3.2-.3s3 .3 3.4.5c.5.2 1.2.7 1.2.7l.2-2s-3 0-4-.1-3.8-.3-3.8-.3h-.4z"/><path fill="#FCD434" d="M124.4 34.7s-.1.7-.2 1.2c-.1.4-.2.7-.2.7h.4s.6-1 .6-1.6c.1-.5-.6-2.1-.6-2.1h-.4"/><path fill="#B13A93" d="M113.4 37.4s-.3 0-.3.4c0 .5-.1 4.4.1 4.6.2.2 1.8.3 2.9.5 1.1.2 1.7.1 2.6.2.8 0 1.3.1 1.4 0 .1-.1-.1-1.1 0-1.6s.4-1.2.5-1.6c.2-.5.1-.8.3-1.2.2-.5.4-.7 0-.7-.4.1-2.4.4-3.2.4-.8 0-2-.1-2.7-.3-.7-.2-.9-.3-1.3-.5l-.3-.2z"/><path fill="#070707" d="M122.4 37.7l-1.3 4.2 1.1 1.5s0 .2.8.3c.8.1 2-.1 3.1-.4 1.1-.3 1.5-.5 2.2-1 .7-.6.9-.9 1.1-1.1.2-.2.2-.4.2-.4s0-1.4-.8-2c-.8-.6-1.7-1.1-2.6-1.1-.9-.1-1.6-.1-2.3 0-.7-.1-1.5 0-1.5 0zm-10.2-.5v3.9s-.3 1-.4 1.2c-.1.2 0 .4-.4.3-.4-.1-.8-.1-1.6-.6s-3-2.2-2.8-3.1c.2-.8.3-1.6.8-1.9.4-.2.7-.6 1.6-.7.8-.1 1.4.1 1.9.2.4.4.9.7.9.7z"/><path fill="#FBCD0F" d="M114.5 38.9s1.2.2 2.3.3c1.1.1 2.4 0 2.4 0s-.4 1.2-.4 1.6c0 .4-.1 1.1-.1 1.1s-1.2-.3-2.3-.4c-1.1-.1-1.9 0-1.9 0s-.1-.9 0-1.4c.1-.4 0-1.2 0-1.2z"/><path fill="#070707" d="M115.1 39.5l3.3.3-.2 1-3.1-.2z"/><path fill="#FBCD0F" d="M113.4 35.7s-.4.3.6 1c1 .6 1.8 1 2.9 1 1 0 2.8-.2 2.8-.2s.3-.4.9-.5c.6-.1.9 0 .9 0s2.4-.6 2.2-1c-.2-.3.2-.1-.6-.4-.9-.5-7.2-.7-8.2-.6-1 .2-1.2.2-1.4.4 0 .1-.1.3-.1.3z"/><ellipse cx="119.9" cy="39.8" fill="#FBCD0F" rx=".3" ry=".1"/><path fill="#FBCD0F" d="M124 44.1s0 .3.5.2c.5-.1.5-.4.5-.4l-1 .2zm-12.9-1.3s-.5.2 0 .3c.5.1.6 0 .6 0l-.6-.3z"/><ellipse cx="119.7" cy="40.3" fill="#FBCD0F" rx=".3" ry=".1"/><path fill="#B13A93" d="M115.5 35.8s-.5.4 0 .7c.5.3 1.1.7 2.4.7 1.4 0 3.8-.4 4.1-.8.4-.4.6-.4.2-.6-.4-.1-2.4-.7-3.4-.6-1 .1-2.1.3-2.6.4-.4.1-.7.2-.7.2z"/><ellipse cx="113.7" cy="39.2" fill="#FBCD0F" rx=".3" ry=".1"/><ellipse cx="113.7" cy="39.9" fill="#FBCD0F" rx=".3" ry=".1"/><path fill="#F5BC17" stroke="#F5BC17" stroke-width="1.372" d="M35.1 64.5c0 .7-.6 1.2-1.4 1.2h-.6c-.8 0-1.4-.6-1.4-1.2V48.6c0-.7.6-1.2 1.4-1.2h.6c.8 0 1.4.6 1.4 1.2v15.9z"/><path fill="#F17FAD" d="M159.8 37.1h3.4v8.5h-3.4z"/><pattern id="b" patternTransform="matrix(.7532 0 0 .4283 -1848.54 -4589.992)" xlink:href="#b"/><path fill="url(#b)" d="M163.2 37.1h3.4v8.5h-3.4z"/><pattern id="d" patternTransform="matrix(.7532 0 0 .4283 -1831.594 -4551.043)" xlink:href="#c"/><path fill="url(#d)" d="M166.7 37.1h3.4v8.5h-3.4z"/><path fill="#914B9C" d="M138.7 42.5l2.8 1.3 11-.3s-2.8-1.1-3-1.3c-.2-.2-10.8.3-10.8.3z"/><path fill="#914B9C" d="M140.9 45.2s.1-1.5.3-1.5c.2.1 11.1-.4 11.2-.2.2.2-.2 1.4-.3 1.5-.1.2-8.8.2-9.6.2-.8.1-1.6 0-1.6 0z"/><path fill="#FFF" d="M138.7 42.5l2.5 1.2-.3 1.5-2.4-1.3z"/><path fill="#077A86" d="M151.6 44.6h-.1s-.1 0-.1.1c0 0-.1.1-.3.1-.1 0-.1.1-.4 0 .1 0 .3 0 .3-.1-.1 0-.5.1-.7 0-.2-.1-.3-.1-.4-.2 0 0 .1-.2.2-.2-.1 0-.2 0-.3.1-.1-.1-.1-.3.1-.4 0 .1.1.2.2.2-.1-.1-.1-.1-.1-.3.1 0 .2-.3 1-.2.1 0 .2.1.2.2 0-.1-.1-.1-.1-.2.1 0 .1.1.2.2v-.2c.1 0 .1.1.1.2v-.1s.1.1.1.2v-.1.2s.1.3.2.3v.1c.1 0-.1 0-.1.1z"/><path fill="#DDE6D4" d="M151.6 44.6h-.1s-.1 0-.1.1c0 0-.1.1-.3.1-.1 0-.1.1-.4 0 .1 0 .3 0 .3-.1-.1 0-.5.1-.7 0-.2-.1-.3-.1-.4-.2 0 0 .1-.2.2-.2-.1 0-.2 0-.3.1-.1-.1-.1-.3.1-.4 0 .1.1.2.2.2-.1-.1-.1-.1-.1-.3.1 0 .2-.3 1-.2.1 0 .2.1.2.2 0-.1-.1-.1-.1-.2.1 0 .1.1.2.2v-.2c.1 0 .1.1.1.2v-.1s.1.1.1.2v-.1.2s.1.3.2.3v.1c.1 0-.1 0-.1.1z"/><path fill="#F9ED94" d="M151.1 44.7c.1 0 .2-.1.3-.1-.1 0-.2-.1-.3-.1-.1 0-.1 0-.2.1-.1 0-.3-.2-.7-.1.1.1.1.1.3.2.2.1.5 0 .7 0h-.1z"/><path fill="#F9DB48" d="M149.9 44.5c.1.1.2.2.4.2.2.1.5 0 .7 0 0 0-.2.1-.3.1.3.1.3 0 .4 0 .1 0 .2-.1.3-.1-.1 0-.2-.1-.3-.1-.1 0-.1 0-.2.1-.3 0-.6-.3-1-.2z"/><path fill="#CFCFBA" d="M151.4 44.3s-.3.2-.8.1c.1.1.5.1.8-.1z"/><path fill="#CFCFBA" d="M151.3 44.3s-.4.2-.8 0c.1.1.5.2.8 0z"/><path fill="#CFCFBA" d="M151.2 44.3s-.3.1-.7 0c.1.1.4.1.7 0z"/><path fill="#CFCFBA" d="M151 44.3s-.4 0-.6-.1c.1.1.3.2.6.1z"/><path fill="#CFCFBA" d="M150.9 44.2h-.4c.1 0 .3.1.4 0zm.1 0s-.2-.2-.4-.2c0 0 .3.1.4.2z"/><path fill="#CFCFBA" d="M151.1 44.3s-.1-.3-.5-.3c.2 0 .5.1.5.3z"/><path fill="#CFCFBA" d="M151.2 44.3s-.1-.3-.5-.4c.3 0 .5.3.5.4z"/><path fill="#CFCFBA" d="M151.3 44.3s-.1-.3-.4-.4c.2.1.4.3.4.4zm-.4-.1s-.2-.1-.4-.1c.1 0 .3 0 .4.1zm-.1 0h-.2.2zm.6.1s0-.2-.2-.3c.1 0 .2.1.2.3z"/><path fill="#473F49" d="M151.3 44.3s-.3.2-.8.1c.2.1.6.1.8-.1z"/><path fill="#473F49" d="M151.3 44.3s-.4.2-.8 0c0 .1.5.2.8 0z"/><path fill="#473F49" d="M151.2 44.3s-.3.1-.7 0c.1 0 .4.1.7 0zm-.2-.1s-.4 0-.6-.1c.1.1.3.2.6.1z"/><path fill="#473F49" d="M150.9 44.2h-.4s.2.1.4 0zm.1 0s-.2-.2-.4-.2c0 0 .3 0 .4.2z"/><path fill="#473F49" d="M151.1 44.3s-.1-.3-.5-.3c.2-.1.4.1.5.3z"/><path fill="#473F49" d="M151.2 44.3s-.1-.3-.5-.4c.3 0 .5.3.5.4z"/><path fill="#473F49" d="M151.3 44.3s-.1-.3-.4-.4c.2 0 .4.3.4.4zm-.4-.1s-.2-.1-.4-.1c.1 0 .3 0 .4.1zm-.1 0h-.2.2zm.6 0s0-.2-.2-.3c0 .1.2.2.2.3z"/><path fill="#95C48F" d="M151.5 44.2s-.1.1 0 .1l.2.1h.1v.1s-.2 0-.2.1c-.1 0-.2 0-.2.1-.1 0-.2 0-.2-.1 0 0-.1 0 0-.1 0 0 .3 0 .3-.1-.2-.2-.1-.2 0-.2z"/><path fill="#6EB088" d="M151.5 44.3s-.1.1 0 .1c0 0 .1 0 .2.1h.1s-.2 0-.2.1c-.1 0-.2 0-.2.1h-.2s-.1 0 0 0c0 0 .3 0 .3-.1-.1-.3-.1-.3 0-.3z"/><path fill="#67C3EE" d="M150.1 44.2c-.1-.1-.1-.2-.1-.3.1 0 .2-.3 1-.2.1 0 .2.1.2.2 0-.1-.1-.1-.1-.2.1 0 .1.1.2.2v-.2c.1 0 .1.1.1.2v-.1s.1.1.1.2v-.1.2c-.3-.2-.9-.3-1.4.1z"/><path fill="#18A6DF" d="M151 43.7c-.8-.1-.9.2-1 .2.2 0 .8-.4 1.5.1 0 0-.5-.1-.5-.3z"/><path fill="#67C3EE" d="M150 44.4c-.1 0-.1.1-.2.1-.1-.1-.1-.3.1-.4 0 0 0 .1.1.2v.1z"/><path fill="#0890C3" d="M150 44.1c0 .1-.1.1 0 .2-.1.1-.1-.1 0-.2zm.1 0l.1-.1c-.1 0-.1.1-.1.1zm-.1-.1z"/><path fill="#0890C3" d="M150 44.1c-.1.1-.1.2-.1.4 0-.1-.1-.3.1-.4z"/><path fill="#95C48F" d="M150.1 44.4v.4s-.2-.1-.2-.2.1-.2.2-.2z"/><path fill="#5BAC88" d="M150.1 44.4c0 .1 0 .1 0 0l.1.1v.2s-.1 0-.2-.1 0-.2.1-.2z"/><path fill="#077A86" d="M146.5 42.2c.1.1.1.1.2.1s.3 0 .3.1.2 0 .1.2c0-.1-.1-.1-.2-.1 0 .1.3.3.1.4-.1.1-.2.2-.5.3-.1 0-.3 0-.4-.1 0 .1.1.1.2.1-.1.1-.7.1-1 0 .1 0 .5-.1.5-.2-.1.1-.3.1-.6.1-.1 0-.7 0-.6-.5 0-.1.3-.2.4-.2-.1 0-.3.1-.4.1 0-.1.2-.1.4-.1-.1 0-.3 0-.4.1 0-.1.3-.1.4-.1h-.3s.2-.1.3-.1h-.2.5c.1 0 .6-.1.6-.2h.1c.3 0 .4.1.5.1z"/><path fill="#DDE6D4" d="M146.5 42.2c.1.1.1.1.2.1s.3 0 .3.1.2 0 .1.2c0-.1-.1-.1-.2-.1 0 .1.3.3.1.4-.1.1-.2.2-.5.3-.1 0-.3 0-.4-.1 0 .1.1.1.2.1-.1.1-.7.1-1 0 .1 0 .5-.1.5-.2-.1.1-.3.1-.6.1-.1 0-.7 0-.6-.5 0-.1.3-.2.4-.2-.1 0-.3.1-.4.1 0-.1.2-.1.4-.1-.1 0-.3 0-.4.1 0-.1.3-.1.4-.1h-.3s.2-.1.3-.1h-.2.5c.1 0 .6-.1.6-.2h.1c.3 0 .3.1.5.1z"/><path fill="#F9ED94" d="M146.9 42.5c0-.1-.2-.1-.3-.1-.1.1-.1.2-.1.2l.1.1c.1.1-.5.2-.1.4.3-.1.3-.1.4-.2.2-.1 0-.3 0-.4z"/><path fill="#F9DB48" d="M146.6 43.2c.3-.1.4-.1.5-.3.1-.1-.1-.3-.1-.4.1 0 .2.1.2.1.2-.2 0-.2-.1-.2 0-.1-.2-.1-.3-.1-.1.1-.1.2-.1.2l.1.1c.1.1-.6.4-.2.6z"/><path fill="#CFCFBA" d="M146.1 42.4s.5.1.3.4c0-.1.1-.3-.3-.4z"/><path fill="#CFCFBA" d="M146.1 42.4s.4.2.1.5c.1-.1.3-.3-.1-.5z"/><path fill="#CFCFBA" d="M146 42.5s.2.2 0 .4c.2-.1.3-.3 0-.4zm-.1.1s.1.2-.1.4c.1-.1.3-.3.1-.4z"/><path fill="#CFCFBA" d="M145.9 42.7s.1.2-.1.2c.1 0 .2-.2.1-.2zm-.1-.1s-.4.1-.3.3c-.1 0 0-.2.3-.3z"/><path fill="#CFCFBA" d="M146 42.5s-.6.1-.7.3c0 0 .2-.2.7-.3z"/><path fill="#CFCFBA" d="M146 42.5s-.7.2-.8.3c0-.1.5-.3.8-.3z"/><path fill="#CFCFBA" d="M146 42.4s-.7.1-.8.3c0-.1.5-.3.8-.3zm-.2.3s-.2.1-.1.2c-.1 0 0-.2.1-.2zm0 0z"/><path fill="#CFCFBA" d="M145.9 42.4s-.4 0-.6.2c0-.1.2-.2.6-.2z"/><path fill="#473F49" d="M146 42.4s.5.1.3.4c.1 0 .2-.3-.3-.4z"/><path fill="#473F49" d="M146 42.5s.4.2.1.5c.1-.2.4-.4-.1-.5z"/><path fill="#473F49" d="M146 42.5s.2.2 0 .4c.1-.1.3-.3 0-.4zm-.1.1s.1.2-.1.4c.1-.1.3-.2.1-.4z"/><path fill="#473F49" d="M145.8 42.7s.1.2-.1.2c.1 0 .3-.1.1-.2zm0 0s-.4.1-.3.3c-.1-.1-.1-.3.3-.3zm.1-.2s-.6.1-.7.3c.1 0 .3-.2.7-.3z"/><path fill="#473F49" d="M146 42.5s-.7.2-.8.3c0-.1.5-.3.8-.3z"/><path fill="#473F49" d="M146 42.4s-.7.1-.8.3c0-.1.5-.3.8-.3zm-.3.3s-.2.1-.1.2c-.1 0 0-.2.1-.2zm0 .1z"/><path fill="#473F49" d="M145.8 42.4s-.4 0-.6.2c.1-.1.3-.2.6-.2z"/><path fill="#95C48F" d="M145.7 42.3h.3c.1 0 .1-.1.1-.1h-.1.1s.1.1.2.1.1.1.2.1c-.1 0-.1.1-.1.1s0 .1-.1 0c-.1 0 0-.2-.3-.1-.2 0-.2 0-.3-.1.1 0 0 0 0 0z"/><path fill="#6EB088" d="M145.9 42.3h.2c.1 0 .1-.1.1-.1l-.1-.1h.1s.1.1.2.1.1.1.2.1l-.1.1s0 .1-.1 0c-.1 0 0-.2-.3-.1-.1.1-.1 0-.2 0 .1 0 0 0 0 0z"/><path fill="#67C3EE" d="M145.9 43.1c-.1.1-.5.1-.6.1-.1 0-.7 0-.6-.5 0-.1.3-.2.4-.2-.1 0-.3.1-.4.1 0-.1.2-.1.4-.1-.1 0-.3 0-.4.1 0-.1.3-.1.4-.1h-.3s.2-.1.3-.1h-.2.5c-.3.2-.6.5.5.7z"/><path fill="#18A6DF" d="M144.8 42.7c-.1.5.5.5.6.5-.1-.1-.8-.4.1-.9-.2.1-.4.4-.7.4z"/><path fill="#67C3EE" d="M146.2 43.1c.1.1.1.1 0 0 .1.1.1.1.2.1-.1.1-.7.1-1 0 .1 0 .3-.1.4-.1.2.1.3.1.4 0z"/><path fill="#0890C3" d="M145.8 43.2h.5s-.4.1-.5 0c-.1 0 0 0 0 0zm-.1 0c-.1 0-.2-.1-.2-.1 0 .1.1.1.2.1-.1 0 0 0 0 0zm-.3 0c-.1 0 0 0-.1-.1.1.1 0 .1.1.1z"/><path fill="#0890C3" d="M145.6 43.2h.9c-.1 0-.6.1-.9 0z"/><path fill="#95C48F" d="M146.2 43.1h.8s-.1.1-.4.2c-.1-.1-.3-.2-.4-.2z"/><path fill="#5BAC88" d="M146.3 43.1h.5s-.1.1-.3.1c0 0-.1 0-.2-.1z"/><linearGradient id="e" x1="-40036.738" x2="-40039.699" y1="-27486.779" y2="-27494.518" gradientTransform="matrix(-.0239 0 0 .0323 -814.07 932.779)" gradientUnits="userSpaceOnUse"><stop offset="0" stop-color="#f9ec21"/><stop offset="1" stop-color="#0db04b"/></linearGradient><path fill="url(#e)" d="M142.3 44.7c.1.1.3.2.5.3.1 0 .2 0 .3.1l.1.1s.3-.2.3-.3c-.1 0-1.1-.3-1.2-.2z"/><path fill="#17406C" d="M143.4 44.9l-.2.2.2-.2s-.1 0 0 0c-.1 0-.2.1-.2.1l.1-.2h-.1l-.1.1.1-.1h-.1l-.1.1v-.1l-.1.1v-.1h-.1v.1-.1.1-.1l-.1.1v-.1l-.1.1.1-.1-.1.1.1-.1-.1.1.1-.1-.1.1.1-.1-.1.1.1-.1h-.2l.1-.1h-.2.1" opacity=".25"/><linearGradient id="f" x1="-40058.172" x2="-40058.172" y1="-27526.644" y2="-27503.738" gradientTransform="matrix(-.0239 0 0 .0323 -814.07 932.779)" gradientUnits="userSpaceOnUse"><stop offset="0" stop-color="#0973b9"/><stop offset="1" stop-color="#026184"/></linearGradient><path fill="url(#f)" d="M144.3 44.2s-.1-.1-.1-.2l-.3-.1h-.4l1.8-.1-1 .4z"/><linearGradient id="g" x1="-39994.926" x2="-40027.172" y1="-27496.635" y2="-27496.635" gradientTransform="matrix(-.0239 0 0 .0323 -814.07 932.779)" gradientUnits="userSpaceOnUse"><stop offset="0" stop-color="#f9ec21"/><stop offset="1" stop-color="#0db04b"/></linearGradient><path fill="url(#g)" d="M142 44.6c0-.2-.3-.4-.3-.4.3 0 .4.3.5.3-.1 0-.1.1-.1.1h-.1l-.1.1c-.3.3-.4.2-.4.2s.5-.1.5-.3z"/><linearGradient id="h" x1="-40059.969" x2="-40059.445" y1="-27492.428" y2="-27486.535" gradientTransform="matrix(-.0239 0 0 .0323 -814.07 932.779)" gradientUnits="userSpaceOnUse"><stop offset="0" stop-color="#f0dab9"/><stop offset="1" stop-color="#c1b299"/></linearGradient><path fill="url(#h)" d="M142.3 44.7c.1 0 .3.1.5.1s.6.1.8.1h.9c-.1 0-.1.1-.2.1-.6 0-1.7-.2-1.9-.3h-.1s-.1 0 0 0z"/><path fill="#17406C" d="M142.2 44.5s-.1-.2-.3-.2c-.1 0 .1.1.3.2 0 .1-.1 0-.2-.1 0 0 .1.1.2.1 0 .1 0 .1-.1.1 0 0 .1 0 .1.1l-.1.1s.1 0 .1-.1c0 0 0 .1-.2.2 0 0 .2-.1.2-.2 0 0-.2.2-.4.3 0 0 .4-.2.4-.3l.1-.1-.1-.1" opacity=".25"/><linearGradient id="i" x1="-40061.66" x2="-40061.66" y1="-27485.467" y2="-27507.211" gradientTransform="matrix(-.0239 0 0 .0323 -814.07 932.779)" gradientUnits="userSpaceOnUse"><stop offset="0" stop-color="#fdddbd"/><stop offset=".092" stop-color="#f9dcbb"/><stop offset=".181" stop-color="#eedab6"/><stop offset=".268" stop-color="#dad6ad"/><stop offset=".354" stop-color="#bfd1a0"/><stop offset=".439" stop-color="#9ccb8f"/><stop offset=".524" stop-color="#71c37b"/><stop offset=".607" stop-color="#3fb963"/><stop offset=".68" stop-color="#0db04b"/><stop offset="1" stop-color="#0973b9"/></linearGradient><path fill="url(#i)" d="M143.6 44.9c-.2 0-.6-.1-.8-.1-.2 0-.4-.1-.5-.1h-.1s0-.1.1-.1c.2 0 .9-.2 1.2-.2.3 0 .9-.1 1-.1.1.1.2.4.2.5h-.1l-.1.1h.1l-.1.1h-.1c-.3 0-.6-.1-.8-.1z"/><path fill="#FFF" d="M144.5 44.4s-.1-.1 0 0h-.9.9c-.1 0 0 0 0 0zm-1.5.1s-.1-.1 0 0h-.5.5zm.1-.1h.2c-.1 0-.2.1-.2 0z" opacity=".43"/><path fill="#17406C" d="M144.5 44.8s-.1.1 0 0c-.1.1-.1.1-.1 0-.1.1-.1.1.1 0-.1.1-.1 0 0 0z"/><path fill="#17406C" d="M144.4 44.7s0-.1 0 0c0 0 0-.1 0 0zm0 .1c-.1 0-.1-.1 0-.1 0-.1-.1-.1 0 .1-.1-.1-.1 0 0 0zm.1 0l-.1.1c0-.1 0 0 .1-.1zm.1 0s-.1 0 0 0c-.1 0-.1 0 0 0 0 0 0 .1 0 0z" opacity=".43"/><path fill="#17406C" d="M144.5 44.8c.1-.1.2-.1.2-.1-.1 0-.1 0-.2.1z" opacity=".13"/><path fill="#17406C" d="M144.2 44.7l-.1.1c0 .1.1.1.1.1s-.1 0-.1-.1l.1-.1z" opacity=".25"/><path fill="#17406C" d="M144.2 44.9c-.1-.1-.1-.3-.1-.3h-.1v.2c.1.1.2.1.2.1z" opacity=".25"/><linearGradient id="j" x1="-40075.465" x2="-40077.527" y1="-27490.113" y2="-27496.826" gradientTransform="matrix(-.0239 0 0 .0323 -814.07 932.779)" gradientUnits="userSpaceOnUse"><stop offset="0" stop-color="#f9ec21"/><stop offset=".494" stop-color="#0db04b"/><stop offset="1" stop-color="#026184"/></linearGradient><path fill="url(#j)" d="M144 44.8s-.3-.1-.5 0h.1l.1.1s.1.1.2.1h.1s-.1-.2 0-.2c-.1 0 0 0 0 0z"/><linearGradient id="k" x1="-40081.785" x2="-40086" y1="-27475.365" y2="-27489.063" gradientTransform="matrix(-.0239 0 0 .0323 -814.07 932.779)" gradientUnits="userSpaceOnUse"><stop offset="0" stop-color="#f9ec21"/><stop offset=".494" stop-color="#0db04b"/><stop offset="1" stop-color="#026184"/></linearGradient><path fill="url(#k)" d="M144.1 45l-.1.1-.3.1c.2-.1.2-.2.4-.2z"/><path fill="#17406C" d="M144 44.8s-.3-.1-.4 0c-.1-.1.2-.1.4 0h-.3.3s-.1 0-.2.1c0-.1.1-.1.2-.1-.1 0-.1.1-.1.1-.1 0 0-.1.1-.1m.1.2s-.1.1 0 0c-.1.1-.1.1 0 0-.1.1-.3.2-.3.2l.1-.1.2-.1-.2.1.2-.1-.2.1.2-.1h-.1.1" opacity=".25"/><path fill="#231F20" d="M144.2 44.2s-.2-.3-.3-.3c0 0 .2.3.3.3l-.4-.3.4.3m-.2 0l-.3-.2.2.2-.3-.2m.1.3l-.2-.2.2.2-.3-.1.2.1m-.2 0l-.1-.1.1.1m-.1 0l-.1-.1.1.1m-.1 0h-.1l.1.1m-.2 0l-.1-.1.1.1"/><path fill="#7BA4D6" d="M143.8 44l.2.1-.1-.2m.3.2l-.1-.1h-.1l.1.1z"/><path fill="#7BA4D6" d="M144 44.1l-.2-.1h-.1m.1.2l-.2-.1m-.1 0l.1.1h-.2m0 0h-.1l.2.1m-.2-.1v.1-.1.1h-.1"/><path fill="#4A3691" d="M146.6 44.2s0 .1 0 0v.2l.1.1v.1h-.1v.1s.2.1.5.1c-.1-.2.3-.9.1-.9-.3.2-.5.3-.6.3z"/><path fill="#ED6940" d="M147.7 45h-.1.1c-.1-.1-.1-.1 0 0-.1 0-.6.1-1.2-.1.1 0 .2-.1.2-.1h-.1l.1-.1h-.2.1-.1.1-.3l-.3.2h-.1v-.3c0-.1-.1-.2 0-.2.3 0 .3.2.5.2h.1-.1s.2-.1 0-.2c.1-.1.6-.2.9-.2.3 0 .5.2.5.2h.1c.2 0 .5.3.5.3l-.1.1c-.1 0-.2.1-.2.1.2-.1-.1.2-.4.1-.1 0 0 0 0 0z"/><path fill="#F58E54" d="M146.7 44.4h-.2s-.1.1 0 .2.1 0 .2 0h.2l.1.1s0 .1.1.1h.2s.1.1.2 0c.1 0 .2-.1.3-.1.1 0 .2.1.2 0 0 0 .1 0 .2-.1l.3-.1c0-.1-.2 0-.1-.1 0-.1.2-.1.1-.2h-.1s-.1-.1-.2-.1h-.9s0 .1-.1.1c0 0-.1 0-.1.1-.3 0-.3.1-.4.1z"/><path fill="#F5AC55" d="M146.7 44.5h-.1c-.1 0-.1-.1-.1 0 0 0-.1.1 0 .1h.3s.1 0 .1.1c0 0 0 .1.1.1h.2c.1 0 .1-.1.2-.1h.4s.1 0 .1-.1v-.1c0-.1.1-.1 0-.1h-.1l-.1-.1h-.8s0 .1-.1.1l-.1.1c.1-.1.1-.1 0 0 .1 0 0 0 0 0z"/><path fill="#FBC936" d="M146.8 44.5h-.2s-.1.1 0 .1h.2s.1 0 .1.1v.1h.2c.1 0 .1-.1.2 0h.3s.1 0 .1-.1v-.2h-.1l-.1-.1h-.8s0 .1-.1.1c.4-.2.3-.1.2 0 .1-.1.1-.1 0 0z"/><path fill="#ED6940" d="M147.1 44.1c-.1.1 0 .1 0 0 0 .1-.1.1-.1.1s-.1.1-.1.2v.3h.1v-.3c.1-.1.1-.1.1-.3 0 .1 0 0 0 0z"/><path fill="#AA4B28" d="M147.1 44.2c0 .1-.1.1-.1.1s-.1.1 0 .2v.2h.1v-.5z"/><path fill="#ED6940" d="M147.3 44.2v.3c0 .1.1.1 0 .1-.1.1-.1.2-.1.2h.1l.1-.1.1-.1v-.3c-.2.1-.2 0-.2-.1.1 0 0 0 0 0z"/><path fill="#AA4B28" d="M147.3 44.3v.3s0 .1-.1.1v-.1s.1 0 .1-.1v-.2z"/><path fill="#ED6940" d="M147.5 44.2s0 .1 0 0v.3c0 .1 0 .1-.1.1 0 .1.1.1.1.1v-.1c0-.1.1-.1.1-.2v-.1s0-.1-.1-.1z"/><path fill="#AA4B28" d="M147.5 44.3v.1c.1 0 .1-.1 0-.1.1 0 .1 0 0 0z"/><path fill="#ED6940" d="M147.7 44.3v.4s-.1 0 0 0v-.2s-.1-.2 0-.2z"/><path fill="#8D5725" d="M147.9 44.4s.1 0 0 0l.1.1v.2c-.1 0-.1.1-.1.1v-.2c-.1-.1-.1-.2 0-.2z"/><path fill="#513115" d="M147.9 44.4l.1.1v.1s-.1.1-.1 0v-.2c0 .1 0 0 0 0z"/><path fill="#F58E54" d="M146.2 44.3h-.1.1s.1 0 0 0c.1 0 .2.1.2.1-.1 0-.1 0-.2-.1.1 0 0 0 0 0z"/><path fill="#F58E54" d="M146.2 44.3s-.1 0 0 0c-.1 0-.1 0 0 0 0 0 .1.1 0 0 .1 0 .2.1.2.1-.1 0-.1 0-.2-.1 0 .1 0 .1 0 0zm-.1.1zm.2.1h-.2.2zm0 0s-.1 0 0 0h-.2.2zm0 0s-.1.1 0 0c-.1 0-.2.1-.2.1s.1 0 .1-.1c0 .1.1.1.1 0zm0 .1s-.1 0-.1.1c-.1 0-.1.1-.1.1s0-.1.1-.1c0-.1.1-.1.1-.1z"/><path fill="#F58E54" d="M146.3 44.6s-.1 0-.1.1c0 0 0 .1-.1.1 0 0 .1 0 .1-.1l.1-.1zm.1 0s-.1.1 0 0c-.1.1-.2.1-.2.2 0 0 0-.1.2-.2 0 .1 0 0 0 0z"/><path fill="#F58E54" d="M146.4 44.6s0 .1 0 0c-.1.1-.2.1-.2.2l.2-.2c0 .1 0 0 0 0zm2 .1s-.1 0-.1-.2c0-.1-.1-.1-.1 0v.1h.1c0 .1 0 .1.1.1z"/><path fill="#C15730" d="M147.7 44.9h.2c.1 0 .2 0 .2-.1v.1h-.1c-.2 0-.3.1-.3 0z"/><path fill="#2B8B43" d="M138.8 40.9l2.8 1.3 11-.3s-2.8-1.1-3-1.3c-.2-.2-10.8.3-10.8.3z"/><path fill="#2EAE4A" d="M141 43.6s.1-1.5.3-1.5c.2.1 11.1-.4 11.2-.2.2.2-.2 1.4-.3 1.5-.1.2-8.8.2-9.6.2-.8.1-1.6 0-1.6 0z"/><path fill="#FFF" d="M138.8 40.9l2.5 1.2-.3 1.5-2.4-1.3z"/><path fill="#F29B53" d="M175.6 68.3c.2.8 1.2.1 1.6.7.1-.1.3-.1.4-.2-.3-.4-.9-.8-1.5-.4-.3-.1-.6-.3-.6-.6-.1.3-.1.7.3 1" opacity=".51"/><g fill="#F9F9F9" stroke="#F9F9F9" stroke-width=".25"><text font-family="'MyriadPro-Regular'" font-size="6.778" transform="matrix(.4509 .2032 -.09846 .9951 193.73 31.865)">1</text><text font-family="'MyriadPro-Regular'" font-size="6.778" transform="matrix(.4509 .2032 -.09846 .9951 193.222 38.793)">1</text><text font-family="'MyriadPro-Regular'" font-size="6.778" transform="matrix(.4509 .2032 -.09846 .9951 189.701 38.068)">+</text><path d="M189.5 38.5l8.4 3.8"/></g><path fill="#ABD26D" d="M90.9 49.8l-2.4-.1-1.7 12.8h1.6zm-15.5 0l-1.8-.1s.9 8 1.2 9.7c.3 1.7.4 3.6.4 3.6l1.6.1s.6-2.7.2-3.3c-.4-.4-1.6-10-1.6-10z"/><path fill="#74BF45" d="M73.6 49.8l-.9.3 1.7 13h.8zm14.9-.1h-.9l-1.8 12.7 1 .1zm-13.7 26l-.7-.7.6-8.5.7.4s-.2 2.1-.2 3.2-.1 3.4-.2 3.6c-.2.3-.2 2-.2 2zm19.9 2.1l1 .9v-8h-1.1zm-6.8-6.6l-.2 2.5-.9-.2.3-2.3z"/><path fill="#ABD26D" d="M98.1 78.2l-2.4.5v-8l2-.4zM77.7 67.9l-.5 7.9-2.4-.1.6-8.7h1.3z"/><path fill="#FBF8CD" stroke="#F8F4B5" d="M87.5 50.4c-1.9 0-12 .3-12 .3s-3 .7-3 2.6c0 1.9 1.2 3.9 1.2 4.3.1.5 3.5.8 5.6.8 2.1 0 6.4 0 6.8-.2.4-.2 3.6.1 4.3-1 .7-1.1 1.3-2.7 1-3.6-.3-.9-.6-2-.6-2s-1.3-1.3-3.3-1.2zm.9 12.1s4.2 1.6 6.5 3 3.6 2.1 3.8 2.8c.3.8-.2 1.7-1.1 1.9-.9.2-4.8 1.1-7.3 1-2.5-.1-6.4.2-6.9.1s-1.9-2.7-3.3-3.2c-1.4-.6-1.2-1.1-2.9-1.6s-2.5-1.3-2.5-1.3l.1-1.9 13.6-.8z"/><path fill="#74BF45" d="M83.1 71.9l.3 7.6-1.4-.8.5-6.8z"/><path fill="#ABD26D" d="M89.8 71.3l-.2 2.5-1.8-.1.2-2.5zm-4.1 8.2l-2.2-.1-.3-7.6.8-.3h2.2z"/><path fill="#ECE79F" stroke="#F8F4B5" d="M83.4 71.7c-.5 1.5-2.3-.7-2.6-1.1-.4-.5-.7-1.1-1.2-1.5-.5-.4-1.3-.5-1.9-.7-1-.4-2.9-1-3.4-1.8-.6-.8-.3-2.6.9-3-.2 1.1-1.4 1.5.1 2.4 1 .7 2.2 1 3.4 1.5 1.7.7 3.5 2.6 4.8 4.6"/><path fill="#F9DA00" d="M81.3 51.1c.2 0 1.5 1.6 1.5 1.6s2.4-.7 2.5-.6c.1.1-1.1 1.7-1.1 1.7s1.9 1.1 1.9 1.3c0 .1-2.6.2-2.6.2s-.4 1.8-.6 1.9c-.2 0-1.5-1.6-1.5-1.6s-2.4.7-2.5.6c-.1-.1 1.1-1.7 1.1-1.7s-2-1.1-1.9-1.3c.1-.1 2.6-.2 2.6-.2s.4-1.9.6-1.9z"/><radialGradient id="l" cx="342.459" cy="323.796" r="1.879" gradientTransform="matrix(1.1612 0 0 .9235 -315.562 -244.828)" gradientUnits="userSpaceOnUse"><stop offset=".03" stop-color="#fbdc85"/><stop offset=".358" stop-color="#ffcc05"/><stop offset=".539" stop-color="#facb13"/><stop offset="1" stop-color="#e0b027"/></radialGradient><ellipse cx="82.1" cy="54.2" fill="url(#l)" rx="2.2" ry="1.7"/><circle cx="81.5" cy="53.5" r=".2" fill="#F7FBFF"/><circle cx="82.8" cy="53.5" r=".2" fill="#F7FBFF"/><path fill="#FFF" d="M84 54.5s-1.5 1.2-1.6 1.2c-.2 0-2-1-2-1s1.1.4 1.9.3c.8 0 1.7-.5 1.7-.5z"/><linearGradient id="m" x1="83.306" x2="84.156" y1="54.487" y2="54.487" gradientUnits="userSpaceOnUse"><stop offset="0" stop-color="#ec1475"/><stop offset="1" stop-color="#fff5cb"/></linearGradient><ellipse cx="83.7" cy="54.5" fill="url(#m)" opacity=".53" rx=".4" ry=".3"/><linearGradient id="n" x1="81.292" x2="80.267" y1="54.578" y2="54.578" gradientUnits="userSpaceOnUse"><stop offset="0" stop-color="#ec1475"/><stop offset="1" stop-color="#fff5cb"/></linearGradient><ellipse cx="80.8" cy="54.6" fill="url(#n)" opacity=".53" rx=".5" ry=".4"/><circle cx="81.5" cy="53.6" r=".1" fill="#090A0B"/><circle cx="82.8" cy="53.5" r=".1" fill="#090A0B"/><path fill="#E866A5" d="M94.9 68.5c.1-.1.3-.2.5-.1s.2.2.4.3c0-.2-.2-.3-.2-.4 0-.2.2-.3.3-.3.2 0 .3.1.3.3 0 .1-.2.2-.2.4.3-.1.3-.2.5-.3.2 0 .4 0 .5.2 0 .1-.1.3-.3.3-.2 0-.3-.1-.6 0 .2.2.4.1.5.3.1.1.1.3-.1.4-.2.1-.4 0-.5-.1-.1-.1 0-.2-.1-.4-.1.2-.1.3-.2.4-.1.1-.4.2-.5.1-.1-.1-.1-.3 0-.4.1-.1.3-.1.5-.2-.3 0-.4.1-.6 0-.2-.2-.3-.4-.2-.5z"/><path fill="#FBDCDC" d="M96 68c.1 0 .2.1.2.3 0 .1 0 .1-.1.1-.1.1-.1.1-.2.3v.1h.1c.1-.1.2-.1.3-.2.1 0 .1-.1.2-.1h.3s.1 0 .1.1-.1.2-.2.3H96l.1.1c.1.1.2.1.3.2.1 0 .1.1.2.1.1.1.1.1.1.2 0 0 0 .1-.1.1h-.2c-.1 0-.2-.1-.2-.1v-.2c0-.1 0-.2-.1-.3l-.1-.1-.1.1c-.1.1-.1.2-.1.3 0 .1 0 .1-.1.2s-.1.1-.2.1h-.2c-.1 0-.1-.1-.1-.1 0-.1 0-.1.1-.2 0 0 .1-.1.2-.1s.2-.1.3-.1l.1-.1h-.7c-.1 0-.2-.1-.2-.1v-.1c0-.1.1-.1.1-.1h.3c.1 0 .1.1.2.1.1.1.1.1.3.2l.1.1V69c0-.1-.1-.2-.1-.3 0-.1-.1-.1-.1-.2-.1-.4 0-.5.2-.5z"/><circle cx="95.9" cy="68.8" r=".1" fill="#FFF"/><path fill="#E866A5" d="M90.6 69.1c.1-.1.3-.2.5-.1s.2.2.4.3c0-.2-.2-.3-.2-.4 0-.2.2-.3.3-.3.2 0 .3.1.3.3 0 .1-.2.2-.2.4.3-.1.3-.2.5-.3.2 0 .4 0 .5.2 0 .1-.1.3-.3.3-.2 0-.3-.1-.6 0 .2.2.4.1.5.3.1.1.1.3-.1.4-.2.1-.4 0-.5-.1-.1-.1 0-.2-.1-.4-.1.2-.1.3-.2.4-.1.1-.4.2-.5.1-.1-.1-.1-.3 0-.4.1-.1.3-.1.5-.2-.3 0-.4.1-.6 0-.1-.2-.3-.4-.2-.5z"/><path fill="#FBDCDC" d="M91.7 68.6c.1 0 .2.1.2.3 0 .1 0 .1-.1.1-.1.1-.1.1-.2.3v.1h.1c.1-.1.2-.1.3-.2.1 0 .1-.1.2-.1h.3l.1.1c0 .1-.1.2-.2.3h-.7l.1.1c.1.1.2.1.3.2.1 0 .1 0 .2.1s.1.1.1.2c0 0 0 .1-.1.1h-.2c-.1 0-.2-.1-.2-.1v-.2c0-.1 0-.2-.1-.3l-.1-.1-.1.1c-.1.1-.1.2-.1.3 0 .1 0 .1-.1.2s-.1.1-.2.1H91c-.1 0-.1-.1-.1-.1 0-.1 0-.1.1-.2 0 0 .1-.1.2-.1s.2-.1.3-.1l.1-.1h-.7c-.1 0-.2-.1-.2-.1v-.1c0-.1.1-.1.1-.1h.3c.1 0 .1.1.2.1.1.1.1.1.3.2l.1.1v-.1c0-.1-.1-.2-.1-.3 0-.1-.1-.1-.1-.2-.1-.4 0-.5.2-.5z"/><circle cx="91.6" cy="69.4" r=".1" fill="#FFF"/><path fill="#E866A5" d="M87.1 69.6c.1-.1.3-.2.5-.1s.2.2.4.3c0-.2-.2-.3-.2-.4 0-.2.2-.3.3-.3.2 0 .3.1.3.3 0 .1-.2.2-.2.4.3-.1.3-.2.5-.3.2 0 .4 0 .5.2 0 .1-.1.3-.3.3-.2 0-.3-.1-.6 0 .2.2.4.1.5.3.1.1.1.3-.1.4-.2.1-.4 0-.5-.1-.1-.1 0-.2-.1-.4-.1.2-.1.3-.2.4-.1.1-.4.2-.5.1-.1-.1-.1-.3 0-.4.1-.1.3-.1.5-.2-.3 0-.4.1-.6 0-.1-.2-.2-.4-.2-.5z"/><path fill="#FBDCDC" d="M88.2 69.1c.1 0 .2.1.2.3 0 .1 0 .1-.1.1-.1.1-.1.1-.2.3v.1h.1c.1-.1.2-.1.3-.2.1 0 .1-.1.2-.1h.3s.1 0 .1.1-.1.2-.2.3h-.7l.1.1c.1.1.2.1.3.2.1 0 .1.1.2.1.1.1.1.1.1.2 0 0 0 .1-.1.1h-.2c-.1 0-.2-.1-.2-.1v-.2c0-.1 0-.2-.1-.3l-.1-.1h-.1c-.1.1-.1.2-.1.3 0 .1 0 .1-.1.2s-.1.1-.2.1h-.2c-.1 0-.1-.1-.1-.1 0-.1 0-.1.1-.2 0 0 .1-.1.2-.1s.2-.1.3-.1l.1-.1h-.7c-.1 0-.2-.1-.2-.1v-.1c0-.1.1-.1.1-.1h.3c.1 0 .1.1.2.1.1.1.1.1.3.2l.1.1V70c0-.1-.1-.2-.1-.3 0-.1-.1-.1-.1-.2-.1-.3 0-.4.2-.4z"/><circle cx="88.1" cy="69.9" r=".1" fill="#FFF"/><path fill="#E866A5" d="M83.3 69.9c.1-.1.3-.2.5-.1s.2.2.4.3c0-.2-.2-.3-.2-.4 0-.2.2-.3.3-.3.2 0 .3.1.3.3 0 .1-.2.2-.2.4.3-.1.3-.2.5-.3.2 0 .4 0 .5.2 0 .1-.1.3-.3.3-.2 0-.3-.1-.6 0 .2.2.4.1.5.3.1.1.1.3-.1.4-.2.1-.4 0-.5-.1-.1-.1 0-.2-.1-.4-.1.2-.1.3-.2.4-.1.1-.3.1-.4 0-.1-.1-.1-.3 0-.4.1-.1.3-.1.5-.2-.3 0-.4.1-.6 0-.2-.1-.3-.2-.3-.4z"/><path fill="#FBDCDC" d="M84.4 69.5c.1 0 .2.1.2.3 0 .1 0 .1-.1.1-.1.1-.1.1-.2.3v.1h.1c.1-.1.2-.1.3-.2.1 0 .1-.1.2-.1h.3s.1 0 .1.1-.1.2-.2.3h-.7l.1.1c.1.1.2.1.3.2.1 0 .1.1.2.1.1.1.1.1.1.2 0 0 0 .1-.1.1h-.2c-.1 0-.2-.1-.2-.1v-.2c0-.1 0-.2-.1-.3l-.1-.1-.1.1c-.1.1-.1.2-.1.3 0 .1 0 .1-.1.2s-.1.1-.2.1h-.2c-.1 0-.1-.1-.1-.1 0-.1 0-.1.1-.2 0 0 .1-.1.2-.1s.2-.1.3-.1l.1-.1h-.7c-.1 0-.2-.1-.2-.1v-.1c0-.1.1-.1.1-.1h.3c.1 0 .1.1.2.1.1.1.1.1.3.2l.1.1v-.1c0-.1-.1-.2-.1-.3 0-.1-.1-.1-.1-.2-.1-.4.1-.6.2-.5z"/><circle cx="84.3" cy="70.2" r=".1" fill="#FFF"/><path fill="#F5BC17" d="M104.7 78.7l-3 .9V63.2l3-.8z"/><path fill="#F0AF1D" d="M101.7 79.6l-1.2-.7V62.8l1.2.4z"/><path fill="#74BF45" d="M103.9 61.9l.8.5-3 .8-1.2-.4z"/><path fill="#F5BC17" d="M80.7 84.8l-3 .8V69.3l3-.8z"/><path fill="#F0AF1D" d="M77.7 85.6l-1.2-.6V68.9l1.2.4z"/><path fill="#74BF45" d="M79.9 68l.8.5-3 .8-1.2-.4z"/><path fill="#F5BC17" d="M76.9 73.6l14.7 5.3 26.9-6.8-14.2-5.5z"/><path fill="#F5BC17" d="M118.3 83.7l-3.1.8V68.1l3.1-.8z"/><path fill="#F0AF1D" d="M115.2 84.5l-1.1-.7V67.7l1.1.4z"/><path fill="#74BF45" d="M117.5 66.8l.8.5-3.1.8-1.1-.4z"/><path fill="#F5BC17" d="M94.2 89.8l-3 .8V74.2l3-.8z"/><path fill="#F0AF1D" d="M91.2 90.6l-1.2-.7V73.8l1.2.4z"/><path fill="#74BF45" d="M93.4 72.9l.8.5-3 .8-1.2-.4z"/><path fill="#4AC4DE" d="M76.5 67.9l14.7 6.3 27.1-6.9-14.4-5.4z"/><path fill="#3F64AE" d="M118.3 67.3l.2 1.8-27.3 7v-1.9zm-41.8.6v1.6l14.7 6.6v-1.9z"/><path fill="#2EACBA" d="M114.7 67.3l-21.3 5.6-2.2-.6 20.6-5.7z"/><path fill="#EE3C39" d="M70.9 34.1l.4 10.1 9.4-.6-.4-10.1z"/><path fill="#FBF8CD" d="M79.2 33.2l.9-.1.2 10.4-9 .6-.8-.6z"/><path fill="#FBF8CD" d="M79 33.1l.8-.2.2 10.4-9 .6-.3-.7z"/><path fill="#EE3C39" d="M70.7 44.2h-.8l-.3-.4-.4-10 .4-.1"/><path fill="#FBF8CD" d="M78.8 33.1l.8-.2.2 10.4-9 .6-.7-.6z"/><path fill="#EE3C39" d="M71.6 44.1c-1.4.4-1.6-.3-1.6-.3l1-.4.6.7z"/><path fill="#EE3C39" d="M69.6 33.7l.4 10.1 9.4-.6-.4-10.1z"/><path fill="#FFCB67" d="M78.3 34.6l-7.9.5.1 2.8 8-.4z"/><path fill="#ABD26D" d="M38.2 53.9l-2.3-.1-1.7 12.8 1.6.1zm-15.5.1l-1.8-.1s.9 8 1.2 9.7c.3 1.7.4 3.6.4 3.6l1.6.1s.6-2.7.2-3.3c-.3-.5-1.6-10-1.6-10z"/><path fill="#74BF45" d="M20.9 53.9l-.9.3 1.8 13 .7.1zm15-.1H35l-1.8 12.8h1zm-13.7 26l-.7-.6.6-8.5.7.4s-.2 2.1-.2 3.2-.1 3.4-.2 3.6c-.2.3-.2 1.9-.2 1.9zm19.9 2.1l1 .9v-7.9H42zm-6.9-6.5l-.1 2.5-1-.3.4-2.3z"/><path fill="#ABD26D" d="M45.5 82.3l-2.4.5v-7.9l1.9-.4zM25 72.1l-.5 7.8-2.3-.1.5-8.7 1.4.1z"/><path fill="#FBF8CD" stroke="#F8F4B5" d="M34.9 54.5c-1.9 0-12 .3-12 .3s-3 .7-3 2.6c0 1.9 1.2 3.9 1.2 4.3.1.5 3.5.8 5.6.8 2.1 0 6.4 0 6.8-.2.4-.2 3.6.1 4.3-1 .7-1.1 1.3-2.7 1-3.6-.3-.9-.6-2-.6-2s-1.4-1.2-3.3-1.2zm.9 12.2s4.2 1.6 6.5 3 3.6 2.1 3.8 2.8c.3.8-.2 1.7-1.1 1.9-.9.2-4.8 1.1-7.3 1-2.5-.1-6.4.2-6.9.1s-1.9-2.7-3.3-3.2c-1.4-.6-1.2-1.1-2.9-1.6s-2.5-1.3-2.5-1.3l.1-1.9 13.6-.8z"/><path fill="#74BF45" d="M30.5 76.1l.3 7.6-1.4-.9.4-6.7z"/><path fill="#ABD26D" d="M37.1 75.4l-.1 2.5h-1.8l.1-2.5zm-4 8.3l-2.2-.1-.3-7.6.8-.4 2.2.1z"/><path fill="#ECE79F" stroke="#F8F4B5" d="M30.8 75.8c-.5 1.5-2.3-.7-2.6-1.1-.4-.5-.7-1.1-1.2-1.5-.5-.4-1.3-.5-1.9-.7-1-.4-2.9-1-3.4-1.8-.6-.8-.3-2.6.9-3-.2 1.1-1.4 1.5.1 2.4 1 .7 2.2 1 3.4 1.5 1.7.7 3.5 2.6 4.8 4.6"/><path fill="#F9DA00" d="M28.6 55.3c.2 0 1.5 1.6 1.5 1.6s2.4-.7 2.5-.6c.1.1-1.1 1.7-1.1 1.7s1.9 1.1 1.9 1.3c0 .1-2.6.2-2.6.2s-.4 1.8-.6 1.9c-.2 0-1.5-1.6-1.5-1.6s-2.4.7-2.5.6c-.1-.1 1.1-1.7 1.1-1.7s-2-1.1-1.9-1.3c.1-.1 2.6-.2 2.6-.2s.4-1.9.6-1.9z"/><radialGradient id="o" cx="297.118" cy="328.304" r="1.879" gradientTransform="matrix(1.1612 0 0 .9235 -315.562 -244.828)" gradientUnits="userSpaceOnUse"><stop offset=".03" stop-color="#fbdc85"/><stop offset=".358" stop-color="#ffcc05"/><stop offset=".539" stop-color="#facb13"/><stop offset="1" stop-color="#e0b027"/></radialGradient><ellipse cx="29.5" cy="58.4" fill="url(#o)" rx="2.2" ry="1.7"/><circle cx="28.9" cy="57.7" r=".2" fill="#F7FBFF"/><circle cx="30.1" cy="57.6" r=".2" fill="#F7FBFF"/><path fill="#FFF" d="M31.3 58.7s-1.5 1.2-1.6 1.2c-.2 0-2-1-2-1s1.1.4 1.9.3c.8 0 1.7-.5 1.7-.5z"/><linearGradient id="p" x1="30.656" x2="31.507" y1="58.649" y2="58.649" gradientUnits="userSpaceOnUse"><stop offset="0" stop-color="#ec1475"/><stop offset="1" stop-color="#fff5cb"/></linearGradient><ellipse cx="31.1" cy="58.7" fill="url(#p)" opacity=".53" rx=".4" ry=".3"/><linearGradient id="q" x1="28.643" x2="27.618" y1="58.741" y2="58.741" gradientUnits="userSpaceOnUse"><stop offset="0" stop-color="#ec1475"/><stop offset="1" stop-color="#fff5cb"/></linearGradient><ellipse cx="28.1" cy="58.7" fill="url(#q)" opacity=".53" rx=".5" ry=".4"/><circle cx="28.9" cy="57.7" r=".1" fill="#090A0B"/><circle cx="30.1" cy="57.7" r=".1" fill="#090A0B"/><path fill="#E866A5" d="M42.2 72.6c.1-.1.3-.2.5-.1s.2.2.4.3c0-.2-.2-.3-.2-.4 0-.2.2-.3.3-.3.2 0 .3.1.3.3 0 .1-.2.2-.2.4.3-.1.3-.2.5-.3.2 0 .4 0 .5.2 0 .1-.1.3-.3.3-.2 0-.3-.1-.6 0 .2.2.4.1.5.3.1.1.1.3-.1.4-.2.1-.4 0-.5-.1-.1-.1 0-.2-.1-.4-.1.2-.1.3-.2.4-.1.1-.4.2-.5.1-.1-.1-.1-.3 0-.4.1-.1.3-.1.5-.2-.3 0-.4.1-.6 0-.1-.2-.2-.3-.2-.5z"/><path fill="#FBDCDC" d="M43.3 72.1c.1 0 .2.1.2.3 0 .1 0 .1-.1.1-.1.1-.1.1-.2.3v.1h.1c.1-.1.2-.1.3-.2.1 0 .1-.1.2-.1h.3s.1 0 .1.1-.1.2-.2.3h-.7l.1.1c.1.1.2.1.3.2.1 0 .1.1.2.1.1.1.1.1.1.2 0 0 0 .1-.1.1h-.2c-.1 0-.2-.1-.2-.1v-.2c0-.1 0-.2-.1-.3l-.1-.1-.1.1c-.1.1-.1.2-.1.3 0 .1 0 .1-.1.2s-.1.1-.2.1h-.2c-.1 0-.1-.1-.1-.1 0-.1 0-.1.1-.2 0 0 .1-.1.2-.1s.2-.1.3-.1l.1-.1h-.7c-.1 0-.2-.1-.2-.1v-.1c0-.1.1-.1.1-.1h.3c.1 0 .1.1.2.1.1.1.1.1.3.2l.1.1v-.1c0-.1-.1-.2-.1-.3 0-.1-.1-.1-.1-.2 0-.4.1-.5.2-.5z"/><circle cx="43.2" cy="72.9" r=".1" fill="#FFF"/><path fill="#E866A5" d="M38 73.2c.1-.1.3-.2.5-.1s.2.2.4.3c0-.2-.2-.3-.2-.4 0-.2.2-.3.3-.3.2 0 .3.1.3.3 0 .1-.2.2-.2.4.3-.1.3-.2.5-.3.2 0 .4 0 .5.2 0 .1-.1.3-.3.3-.2 0-.3-.1-.6 0 .2.2.4.1.5.3.1.1.1.3-.1.4-.2.1-.4 0-.5-.1-.1-.1 0-.2-.1-.4-.1.2-.1.3-.2.4-.1.1-.4.2-.5.1-.1-.1-.1-.3 0-.4.1-.1.3-.1.5-.2-.3 0-.4.1-.6 0-.2-.2-.3-.3-.2-.5z"/><path fill="#FBDCDC" d="M39 72.8c.1 0 .2.1.2.3 0 .1 0 .1-.1.1-.1.1-.1.1-.2.3v.1h.1c.1-.1.2-.1.3-.2.1 0 .1-.1.2-.1h.3l.1.1c0 .1-.1.2-.2.3H39l.1.1c.1.1.2.1.3.2.1 0 .1 0 .2.1s.1.1.1.2c0 0 0 .1-.1.1h-.2c-.1 0-.2-.1-.2-.1v-.2c0-.1 0-.2-.1-.3l-.1-.2-.1.1c-.1.1-.1.2-.1.3 0 .1 0 .1-.1.2s-.1.1-.2.1h-.2c-.1 0-.1-.1-.1-.1 0-.1 0-.1.1-.2 0 0 .1-.1.2-.1s.2-.1.3-.1l.1-.1h-.7c-.1 0-.2-.1-.2-.1v-.1c0-.1.1-.1.1-.1h.3c.1 0 .1.1.2.1.1.1.1.1.3.2l.1.1v-.1c0-.1-.1-.2-.1-.3 0-.1-.1-.1-.1-.2 0-.3.1-.4.2-.4z"/><circle cx="39" cy="73.6" r=".1" fill="#FFF"/><path fill="#E866A5" d="M34.5 73.7c.1-.1.3-.2.5-.1s.2.2.4.3c0-.2-.2-.3-.2-.4 0-.2.2-.3.3-.3.2 0 .3.1.3.3 0 .1-.2.2-.2.4.3-.1.3-.2.5-.3.2 0 .4 0 .5.2 0 .1-.1.3-.3.3-.2 0-.3-.1-.6 0 .2.2.4.1.5.3.1.1.1.3-.1.4-.2.1-.4 0-.5-.1-.1-.1 0-.2-.1-.4-.1.2-.1.3-.2.4-.1.1-.4.2-.5.1-.1-.1-.1-.3 0-.4.1-.1.3-.1.5-.2-.3 0-.4.1-.6 0-.2-.2-.3-.3-.2-.5z"/><path fill="#FBDCDC" d="M35.5 73.3c.1 0 .2.1.2.3 0 .1 0 .1-.1.1-.1.1-.1.1-.2.3v.1h.1c.1-.1.2-.1.3-.2.1 0 .1-.1.2-.1h.3s.1 0 .1.1-.1.2-.2.3h-.7l.1.1c.1.1.2.1.3.2.1 0 .1.1.2.1.1.1.1.1.1.2 0 0 0 .1-.1.1h-.2c-.1 0-.2-.1-.2-.1v-.2c0-.1 0-.2-.1-.3l-.1-.1-.1.1c-.1.1-.1.2-.1.3 0 .1 0 .1-.1.2s-.1.1-.2.1h-.2c-.1 0-.1-.1-.1-.1 0-.1 0-.1.1-.2 0 0 .1-.1.2-.1s.2-.1.3-.1l.1-.1h-.7c-.1 0-.2-.1-.2-.1v-.1c0-.1.1-.1.1-.1h.3c.1 0 .1.1.2.1.1.1.1.1.3.2l.1.1v-.1c0-.1-.1-.2-.1-.3 0-.1-.1-.1-.1-.2 0-.4.1-.6.2-.5z"/><circle cx="35.5" cy="74" r=".1" fill="#FFF"/><path fill="#E866A5" d="M30.7 74.1c.1-.1.3-.2.5-.1s.2.2.4.3c0-.2-.2-.3-.2-.4 0-.2.2-.3.3-.3.2 0 .3.1.3.3 0 .1-.2.2-.2.4.3-.1.3-.2.5-.3.2 0 .4 0 .5.2 0 .1-.1.3-.3.3-.2 0-.3-.1-.6 0 .2.2.4.1.5.3.1.1.1.3-.1.4-.2.1-.4 0-.5-.1-.1-.1 0-.2-.1-.4-.1.2-.1.3-.2.4-.1.1-.4.2-.5.1-.1-.1-.1-.3 0-.4.1-.1.3-.1.5-.2-.3 0-.4.1-.6 0-.2-.2-.3-.4-.2-.5z"/><path fill="#FBDCDC" d="M31.8 73.6c.1 0 .2.1.2.3 0 .1 0 .1-.1.1-.1.1-.1.1-.2.3v.1h.1c.1-.1.2-.1.3-.2.1 0 .1-.1.2-.1h.3s.1 0 .1.1-.1.2-.2.3h-.7l.1.1c.1.1.2.1.3.2.1 0 .1.1.2.1.1.1.1.1.1.2 0 0 0 .1-.1.1h-.2c-.1 0-.2-.1-.2-.1v-.2c0-.1 0-.2-.1-.3l-.1-.1-.1.1c-.1.1-.1.2-.1.3 0 .1 0 .1-.1.2s-.1.1-.2.1h-.2c-.1-.2-.1-.3-.1-.3 0-.1 0-.1.1-.2 0 0 .1-.1.2-.1s.2-.1.3-.1l.1-.1H31c-.1 0-.2-.1-.2-.1v-.1c0-.1.1-.1.1-.1h.3c.1 0 .1.1.2.1.1.1.1.1.3.2l.1.1v-.1c0-.1-.1-.2-.1-.3 0-.1-.1-.1-.1-.2-.1-.2 0-.3.2-.3z"/><circle cx="31.7" cy="74.4" r=".1" fill="#FFF"/><path fill="#F5BC17" d="M52.1 82.9l-3 .8V67.3l3-.8z"/><path fill="#F0AF1D" d="M49.1 83.7l-1.2-.7V66.9l1.2.4z"/><path fill="#74BF45" d="M51.3 66.1l.8.4-3 .8-1.2-.4z"/><path fill="#F5BC17" d="M28.1 89l-3.1.8V73.4l3.1-.8z"/><path fill="#F0AF1D" d="M25 89.8l-1.1-.7V73l1.1.4z"/><path fill="#74BF45" d="M27.2 72.2l.9.4-3.1.8-1.1-.4z"/><path fill="#F5BC17" d="M24.3 77.8L39 83.1l26.8-6.9-14.1-5.4z"/><path fill="#F5BC17" d="M65.6 87.8l-3 .8V72.3l3-.9z"/><path fill="#F0AF1D" d="M62.6 88.6l-1.2-.7V71.8l1.2.5z"/><path fill="#74BF45" d="M64.8 71l.8.4-3 .9-1.2-.5z"/><path fill="#F5BC17" d="M41.6 93.9l-3 .8V78.4l3-.9z"/><path fill="#F0AF1D" d="M38.6 94.7l-1.2-.7V77.9l1.2.5z"/><path fill="#74BF45" d="M40.8 77.1l.8.4-3 .9-1.2-.5z"/><path fill="#4AC4DE" d="M23.9 72l14.7 6.4 27-7-14.3-5.3z"/><path fill="#3F64AE" d="M65.6 71.4l.2 1.9-27.2 6.9v-1.8z"/><path fill="#3F64AE" d="M23.8 72v1.7l14.8 6.5v-1.8z"/><path fill="#2EACBA" d="M62.1 71.4l-21.3 5.7-2.2-.6 20.5-5.7z"/><path fill="#ABD26D" d="M120.6 74.3l-2.4-.1-1.7 12.8 1.7.1zm-15.5.1l-1.8-.1s.9 8 1.2 9.7c.3 1.7.4 3.6.4 3.6l1.6.1s.6-2.7.2-3.3c-.4-.5-1.6-10-1.6-10z"/><path fill="#74BF45" d="M103.3 74.3l-.9.3 1.8 13h.7zm14.9-.1h-.8l-1.8 12.7.9.1zm-13.7 26l-.7-.6.6-8.5.7.4s-.2 2.1-.2 3.2-.1 3.4-.2 3.6c-.2.3-.2 1.9-.2 1.9zm19.9 2.1l1.1.9-.1-7.9-1.1-.1zm-6.8-6.6l-.2 2.5-.9-.2.3-2.3z"/><path fill="#ABD26D" d="M127.9 102.7l-2.4.5-.1-7.9 2-.5zm-20.5-10.3l-.5 7.9-2.4-.1.6-8.7 1.4.1z"/><path fill="#FBF8CD" stroke="#F8F4B5" d="M117.3 74.9c-1.9 0-12 .3-12 .3s-3 .7-3 2.6c0 1.9 1.2 3.9 1.2 4.3.1.5 3.5.8 5.6.8 2.1 0 6.4 0 6.8-.2.4-.2 3.6.1 4.3-1 .7-1.1 1.3-2.7 1-3.6-.3-.9-.6-2-.6-2s-1.4-1.3-3.3-1.2zm.9 12.2s4.2 1.6 6.5 3 3.6 2.1 3.8 2.8c.3.8-.2 1.7-1.1 1.9-.9.2-4.8 1.1-7.3 1-2.5-.1-6.4.2-6.9.1s-1.9-2.7-3.3-3.2c-1.4-.6-1.2-1.1-2.9-1.6s-2.5-1.3-2.5-1.3l.1-1.9 13.6-.8z"/><path fill="#74BF45" d="M112.9 96.5l.3 7.5-1.4-.8.4-6.8z"/><path fill="#ABD26D" d="M119.5 95.8l-.1 2.5-1.9-.1.2-2.5zm-4.1 8.2l-2.2-.1-.3-7.5.8-.4 2.3.1z"/><path fill="#ECE79F" stroke="#F8F4B5" d="M113.1 96.2c-.5 1.5-2.3-.7-2.6-1.1-.4-.5-.7-1.1-1.2-1.5-.5-.4-1.3-.5-1.9-.7-1-.4-2.9-1-3.4-1.8-.6-.8-.3-2.6.9-3-.2 1.1-1.4 1.5.1 2.4 1 .7 2.2 1 3.4 1.5 1.7.7 3.5 2.6 4.8 4.6"/><path fill="#F9DA00" d="M111 75.7c.2 0 1.5 1.6 1.5 1.6s2.4-.7 2.5-.6c.1.1-1.1 1.7-1.1 1.7s1.9 1.1 1.9 1.3c0 .1-2.6.2-2.6.2s-.4 1.8-.6 1.9c-.2 0-1.5-1.6-1.5-1.6s-2.4.7-2.5.6c-.1-.1 1.1-1.7 1.1-1.7s-2-1.1-1.9-1.3c.1-.1 2.6-.2 2.6-.2s.4-1.9.6-1.9z"/><radialGradient id="r" cx="368.057" cy="350.361" r="1.879" gradientTransform="matrix(1.1612 0 0 .9235 -315.562 -244.828)" gradientUnits="userSpaceOnUse"><stop offset=".03" stop-color="#fbdc85"/><stop offset=".358" stop-color="#ffcc05"/><stop offset=".539" stop-color="#facb13"/><stop offset="1" stop-color="#e0b027"/></radialGradient><ellipse cx="111.8" cy="78.7" fill="url(#r)" rx="2.2" ry="1.7"/><circle cx="111.2" cy="78" r=".2" fill="#F7FBFF"/><circle cx="112.5" cy="78" r=".2" fill="#F7FBFF"/><path fill="#FFF" d="M113.7 79s-1.5 1.2-1.6 1.2c-.2 0-2-1-2-1s1.1.4 1.9.3c.8 0 1.7-.5 1.7-.5z"/><linearGradient id="s" x1="113.029" x2="113.88" y1="79.02" y2="79.02" gradientUnits="userSpaceOnUse"><stop offset="0" stop-color="#ec1475"/><stop offset="1" stop-color="#fff5cb"/></linearGradient><ellipse cx="113.5" cy="79" fill="url(#s)" opacity=".53" rx=".4" ry=".3"/><linearGradient id="t" x1="111.016" x2="109.991" y1="79.112" y2="79.112" gradientUnits="userSpaceOnUse"><stop offset="0" stop-color="#ec1475"/><stop offset="1" stop-color="#fff5cb"/></linearGradient><ellipse cx="110.5" cy="79.1" fill="url(#t)" opacity=".53" rx=".5" ry=".4"/><circle cx="111.2" cy="78.1" r=".1" fill="#090A0B"/><circle cx="112.5" cy="78" r=".1" fill="#090A0B"/><path fill="#E866A5" d="M124.6 93c.1-.1.3-.2.5-.1s.2.2.4.3c0-.2-.2-.3-.2-.4 0-.2.2-.3.3-.3.2 0 .3.1.3.3 0 .1-.2.2-.2.4.3-.1.3-.2.5-.3.2 0 .4 0 .5.2 0 .1-.1.3-.3.3-.2 0-.3-.1-.6 0 .2.2.4.1.5.3.1.1.1.3-.1.4-.2.1-.4 0-.5-.1-.1-.1 0-.2-.1-.4-.1.2-.1.3-.2.4-.1.1-.4.2-.5.1-.1-.1-.1-.3 0-.4.1-.1.3-.1.5-.2-.3 0-.4.1-.6 0-.1-.2-.2-.4-.2-.5z"/><path fill="#FBDCDC" d="M125.7 92.5c.1 0 .2.1.2.3 0 .1 0 .1-.1.1-.1.1-.1.1-.2.3v.1h.1c.1-.1.2-.1.3-.2.1 0 .1-.1.2-.1h.3s.1 0 .1.1-.1.2-.2.3h-.7l.1.1c.1.1.2.1.3.2.1 0 .1.1.2.1.1.1.1.1.1.2 0 0 0 .1-.1.1h-.2c-.1 0-.2-.1-.2-.1v-.2c0-.1 0-.2-.1-.3l-.1-.1-.1.1c-.1.1-.1.2-.1.3 0 .1 0 .1-.1.2s-.1.1-.2.1h-.2c-.1 0-.1-.1-.1-.1 0-.1 0-.1.1-.2 0 0 .1-.1.2-.1s.2-.1.3-.1l.1-.1h-.7c-.1 0-.2-.1-.2-.1v-.1c0-.1.1-.1.1-.1h.3c.1 0 .1.1.2.1.1.1.1.1.3.2l.1.1v-.1c0-.1-.1-.2-.1-.3 0-.1-.1-.1-.1-.2-.1-.4.1-.5.2-.5z"/><circle cx="125.6" cy="93.3" r=".1" fill="#FFF"/><path fill="#E866A5" d="M120.3 93.6c.1-.1.3-.2.5-.1s.2.2.4.3c0-.2-.2-.3-.2-.4 0-.2.2-.3.3-.3.2 0 .3.1.3.3 0 .1-.2.2-.2.4.3-.1.3-.2.5-.3.2 0 .4 0 .5.2 0 .1-.1.3-.3.3-.2 0-.3-.1-.6 0 .2.2.4.1.5.3.1.1.1.3-.1.4-.2.1-.4 0-.5-.1-.1-.1 0-.2-.1-.4-.1.2-.1.3-.2.4-.1.1-.4.2-.5.1-.1-.1-.1-.3 0-.4.1-.1.3-.1.5-.2-.3 0-.4.1-.6 0-.1-.2-.2-.3-.2-.5z"/><path fill="#FBDCDC" d="M121.4 93.1c.1 0 .2.1.2.3 0 .1 0 .1-.1.1-.1.1-.1.1-.2.3v.1h.1c.1-.1.2-.1.3-.2.1 0 .1-.1.2-.1h.3l.1.1c0 .1-.1.2-.2.3h-.7l.1.1c.1.1.2.1.3.2.1 0 .1 0 .2.1s.1.1.1.2c0 0 0 .1-.1.1h-.2c-.1 0-.2-.1-.2-.1v-.2c0-.1 0-.2-.1-.3l-.1-.1-.1.1c-.1.1-.1.2-.1.3 0 .1 0 .1-.1.2s-.1.1-.2.1h-.2c-.1 0-.1-.1-.1-.1 0-.1 0-.1.1-.2 0 0 .1-.1.2-.1s.2-.1.3-.1l.1-.1h-.7c-.1 0-.2-.1-.2-.1v-.1c0-.1.1-.1.1-.1h.3c.1 0 .1.1.2.1.1.1.1.1.3.2l.1.1v-.1c0-.1-.1-.2-.1-.3 0-.1-.1-.1-.1-.2-.1-.4.1-.5.2-.5z"/><circle cx="121.3" cy="93.9" r=".1" fill="#FFF"/><path fill="#E866A5" d="M116.8 94.1c.1-.1.3-.2.5-.1s.2.2.4.3c0-.2-.2-.3-.2-.4 0-.2.2-.3.3-.3.2 0 .3.1.3.3 0 .1-.2.2-.2.4.3-.1.3-.2.5-.3.2 0 .4 0 .5.2 0 .1-.1.3-.3.3-.2 0-.3-.1-.6 0 .2.2.4.1.5.3.1.1.1.3-.1.4-.2.1-.4 0-.5-.1-.1-.1 0-.2-.1-.4-.1.2-.1.3-.2.4-.1.1-.4.2-.5.1-.1-.1-.1-.3 0-.4.1-.1.3-.1.5-.2-.3 0-.4.1-.6 0-.1-.2-.2-.4-.2-.5z"/><path fill="#FBDCDC" d="M117.9 93.6c.1 0 .2.1.2.3 0 .1 0 .1-.1.1-.1.1-.1.1-.2.3v.1h.1c.1-.1.2-.1.3-.2.1 0 .1-.1.2-.1h.3s.1 0 .1.1-.1.2-.2.3h-.7l.1.1c.1.1.2.1.3.2.1 0 .1.1.2.1.1.1.1.1.1.2 0 0 0 .1-.1.1h-.2c-.1 0-.2-.1-.2-.1v-.2c0-.1 0-.2-.1-.3l-.1-.1-.1.1c-.1.1-.1.2-.1.3 0 .1 0 .1-.1.2s-.1.1-.2.1h-.2c-.1 0-.1-.1-.1-.1 0-.1 0-.1.1-.2 0 0 .1-.1.2-.1s.2-.1.3-.1l.1-.1h-.7c-.1 0-.2-.1-.2-.1v-.1c0-.1.1-.1.1-.1h.3c.1 0 .1.1.2.1.1.1.1.1.3.2l.1.1v-.1c0-.1-.1-.2-.1-.3 0-.1-.1-.1-.1-.2 0-.4.1-.5.2-.5z"/><circle cx="117.8" cy="94.4" r=".1" fill="#FFF"/><path fill="#E866A5" d="M113.1 94.5c.1-.1.3-.2.5-.1s.2.2.4.3c0-.2-.2-.3-.2-.4 0-.2.2-.3.3-.3.2 0 .3.1.3.3 0 .1-.2.2-.2.4.3-.1.3-.2.5-.3.2 0 .4 0 .5.2 0 .1-.1.3-.3.3-.2 0-.3-.1-.6 0 .2.2.4.1.5.3.1.1.1.3-.1.4-.2.1-.4 0-.5-.1-.1-.1 0-.2-.1-.4-.1.2-.1.3-.2.4-.1.1-.4.2-.5.1-.1-.1-.1-.3 0-.4.1-.1.3-.1.5-.2-.3 0-.4.1-.6 0-.2-.2-.3-.4-.2-.5z"/><path fill="#FBDCDC" d="M114.1 94c.1 0 .2.1.2.3 0 .1 0 .1-.1.1-.1.1-.1.1-.2.3v.1h.1c.1-.1.2-.1.3-.2.1 0 .1-.1.2-.1h.3s.1 0 .1.1-.1.2-.2.3h-.7l.1.1c.1.1.2.1.3.2.1 0 .1.1.2.1.1.1.1.1.1.2 0 0 0 .1-.1.1h-.2c-.1 0-.2-.1-.2-.1v-.2c0-.1 0-.2-.1-.3l-.1-.1-.1.1c-.1.1-.1.2-.1.3 0 .1 0 .1-.1.2s-.1.1-.2.1h-.2c-.1 0-.1-.1-.1-.1 0-.1 0-.1.1-.2 0 0 .1-.1.2-.1s.2-.1.3-.1l.1-.1h-.7c-.1 0-.2-.1-.2-.1v-.1c0-.1.1-.1.1-.1h.3c.1 0 .1.1.2.1.1.1.1.1.3.2l.1.1V95c0-.1-.1-.2-.1-.3 0-.1-.1-.1-.1-.2 0-.4.1-.5.2-.5z"/><circle cx="114.1" cy="94.8" r=".1" fill="#FFF"/><path fill="#F5BC17" d="M134.5 103.3l-3.1.8V87.7l3.1-.8z"/><path fill="#F0AF1D" d="M131.4 104.1l-1.1-.7V87.3l1.1.4z"/><path fill="#74BF45" d="M133.6 86.4l.9.5-3.1.8-1.1-.4z"/><path fill="#F5BC17" d="M110.4 109.4l-3 .8V93.8l3-.8z"/><path fill="#F0AF1D" d="M107.4 110.2l-1.2-.7V93.4l1.2.4z"/><path fill="#74BF45" d="M109.6 92.5l.8.5-3 .8-1.2-.4z"/><path fill="#F5BC17" d="M106.6 98.1l14.7 5.4 26.9-6.9-14.2-5.4z"/><path fill="#F5BC17" d="M148 108.2l-3 .8V92.6l3-.8z"/><path fill="#F0AF1D" d="M145 109l-1.2-.7V92.2l1.2.4z"/><path fill="#74BF45" d="M147.2 91.4l.8.4-3 .8-1.2-.4z"/><path fill="#F5BC17" d="M124 114.3l-3.1.8V98.7l3.1-.8z"/><path fill="#F0AF1D" d="M120.9 115.1l-1.1-.7V98.3l1.1.4z"/><path fill="#74BF45" d="M123.2 97.5l.8.4-3.1.8-1.1-.4z"/><path fill="#4AC4DE" d="M106.2 92.4l14.7 6.3 27.1-6.9-14.4-5.4z"/><path fill="#3F64AE" d="M148 91.8l.2 1.9-27.3 6.9v-1.9z"/><path fill="#3F64AE" d="M106.2 92.4v1.7l14.7 6.5v-1.9z"/><path fill="#2EACBA" d="M144.5 91.8l-21.3 5.7-2.3-.6 20.6-5.7z"/><path fill="#ABD26D" d="M68 78.5l-2.4-.1-1.7 12.7 1.6.1zm-15.5 0l-1.8-.1s.9 8 1.2 9.7c.3 1.7.4 3.6.4 3.6l1.6.1s.6-2.7.2-3.3c-.4-.4-1.6-10-1.6-10z"/><path fill="#74BF45" d="M50.6 78.5l-.9.3 1.8 13h.8zm15-.1l-.9-.1-1.8 12.8h1zm-13.7 26l-.7-.6.6-8.5.7.4s-.2 2.1-.2 3.2-.1 3.4-.2 3.6c-.2.2-.2 1.9-.2 1.9zm19.9 2.1l1 .9v-8h-1.1zM65 99.9l-.2 2.5-.9-.2.3-2.3z"/><path fill="#ABD26D" d="M75.2 106.9l-2.4.5v-8l2-.4zM54.7 96.6l-.5 7.9-2.3-.1.5-8.7h1.4z"/><path fill="#FBF8CD" stroke="#F8F4B5" d="M64.6 79.1c-1.9 0-12 .3-12 .3s-3 .7-3 2.6c0 1.9 1.2 3.9 1.2 4.3.1.5 3.5.8 5.6.8 2.1 0 6.4 0 6.8-.2.4-.2 3.6.1 4.3-1 .7-1.1 1.3-2.7 1-3.6-.3-.9-.6-2-.6-2s-1.4-1.3-3.3-1.2zm.9 12.1s4.2 1.6 6.5 3 3.6 2.1 3.8 2.8c.3.8-.2 1.7-1.1 1.9-.9.2-4.8 1.1-7.3 1-2.5-.1-6.4.2-6.9.1s-1.9-2.7-3.3-3.2c-1.4-.6-1.2-1.1-2.9-1.6s-2.5-1.3-2.5-1.3l.1-1.9 13.6-.8z"/><path fill="#74BF45" d="M60.2 100.6l.3 7.6-1.4-.8.5-6.8z"/><path fill="#ABD26D" d="M66.9 100l-.2 2.5-1.8-.1.1-2.5zm-4.1 8.2l-2.2-.1-.3-7.6.8-.3h2.2z"/><path fill="#ECE79F" stroke="#F8F4B5" d="M60.5 100.4c-.5 1.5-2.3-.7-2.6-1.1-.4-.5-.7-1.1-1.2-1.5-.5-.4-1.3-.5-1.9-.7-1-.4-2.9-1-3.4-1.8-.6-.8-.3-2.6.9-3-.2 1.1-1.4 1.5.1 2.4 1 .7 2.2 1 3.4 1.5 1.7.7 3.5 2.6 4.8 4.6"/><path fill="#F9DA00" d="M58.3 79.8c.2 0 1.5 1.6 1.5 1.6s2.4-.7 2.5-.6c.1.1-1.1 1.7-1.1 1.7s1.9 1.1 1.9 1.3c0 .1-2.6.2-2.6.2s-.4 1.8-.6 1.9c-.2 0-1.5-1.6-1.5-1.6s-2.4.7-2.5.6c-.1-.1 1.1-1.7 1.1-1.7s-2-1.1-1.9-1.3c.1-.1 2.6-.2 2.6-.2s.5-1.9.6-1.9z"/><radialGradient id="u" cx="322.716" cy="354.868" r="1.879" gradientTransform="matrix(1.1612 0 0 .9235 -315.562 -244.828)" gradientUnits="userSpaceOnUse"><stop offset=".03" stop-color="#fbdc85"/><stop offset=".358" stop-color="#ffcc05"/><stop offset=".539" stop-color="#facb13"/><stop offset="1" stop-color="#e0b027"/></radialGradient><ellipse cx="59.2" cy="82.9" fill="url(#u)" rx="2.2" ry="1.7"/><circle cx="58.6" cy="82.2" r=".2" fill="#F7FBFF"/><circle cx="59.8" cy="82.1" r=".2" fill="#F7FBFF"/><path fill="#FFF" d="M61 83.2s-1.5 1.2-1.6 1.2c-.2 0-2-1-2-1s1.1.4 1.9.3c.8 0 1.7-.5 1.7-.5z"/><linearGradient id="v" x1="60.38" x2="61.23" y1="83.182" y2="83.182" gradientUnits="userSpaceOnUse"><stop offset="0" stop-color="#ec1475"/><stop offset="1" stop-color="#fff5cb"/></linearGradient><ellipse cx="60.8" cy="83.2" fill="url(#v)" opacity=".53" rx=".4" ry=".3"/><linearGradient id="w" x1="58.366" x2="57.342" y1="83.274" y2="83.274" gradientUnits="userSpaceOnUse"><stop offset="0" stop-color="#ec1475"/><stop offset="1" stop-color="#fff5cb"/></linearGradient><ellipse cx="57.9" cy="83.3" fill="url(#w)" opacity=".53" rx=".5" ry=".4"/><circle cx="58.6" cy="82.3" r=".1" fill="#090A0B"/><circle cx="59.8" cy="82.2" r=".1" fill="#090A0B"/><path fill="#E866A5" d="M72 97.2c0-.2.2-.2.4-.2.2.1.2.2.4.3 0-.2-.2-.3-.2-.4 0-.2.2-.3.3-.3.2 0 .3.1.3.3 0 .1-.2.2-.2.4.3-.1.3-.2.5-.3.2 0 .4 0 .5.2 0 .1-.1.3-.3.3-.2 0-.3-.1-.6 0 .2.2.4.1.5.3.1.1.1.3-.1.4-.2.1-.4 0-.5-.1-.1-.1 0-.2-.1-.4-.1.2-.1.3-.2.4-.1.1-.4.2-.5.1-.1-.1-.1-.3 0-.4.1-.1.3-.1.5-.2-.3 0-.4.1-.6 0-.1-.1-.2-.3-.1-.4z"/><path fill="#FBDCDC" d="M73 96.7c.1 0 .2.1.2.3 0 .1 0 .1-.1.1-.1.1-.1.1-.2.3v.1h.1c.1-.1.2-.1.3-.2.1 0 .1-.1.2-.1h.3s.1 0 .1.1-.1.2-.2.3H73l.1.1c.1.1.2.1.3.2.1 0 .1.1.2.1.1.1.1.1.1.2 0 0 0 .1-.1.1h-.2c-.1 0-.2-.1-.2-.1V98c0-.1 0-.2-.1-.3l-.1-.2-.1.1c-.1.1-.1.2-.1.3 0 .1 0 .1-.1.2s-.1.1-.2.1h-.2c-.1 0-.1-.1-.1-.1 0-.1 0-.1.1-.2 0 0 .1-.1.2-.1s.2-.1.3-.1l.1-.1h-.7c-.1 0-.2-.1-.2-.1v-.1c0-.1.1-.1.1-.1h.3c.1 0 .1.1.2.1.1.1.1.1.3.2l.1.1v-.1c0-.1-.1-.2-.1-.3 0-.1-.1-.1-.1-.2 0-.3.1-.4.2-.4z"/><circle cx="73" cy="97.5" r=".1" fill="#FFF"/><path fill="#E866A5" d="M67.7 97.8c.1-.1.3-.2.5-.1s.2.2.4.3c0-.2-.2-.3-.2-.4 0-.2.2-.3.3-.3.2 0 .3.1.3.3 0 .1-.2.2-.2.4.3-.1.3-.2.5-.3.2 0 .4 0 .5.2 0 .1-.1.3-.3.3-.2 0-.3-.1-.6 0 .2.2.4.1.5.3.1.1.1.3-.1.4-.2.1-.4 0-.5-.1-.1-.1 0-.2-.1-.4-.1.2-.1.3-.2.4-.1.1-.4.2-.5.1-.1-.1-.1-.3 0-.4.1-.1.3-.1.5-.2-.3 0-.4.1-.6 0-.2-.2-.3-.4-.2-.5z"/><path fill="#FBDCDC" d="M68.8 97.3c.1 0 .2.1.2.3 0 .1 0 .1-.1.1-.1.1-.1.1-.2.3v.1h.1c.1-.1.2-.1.3-.2.1 0 .1-.1.2-.1h.3l.1.1c0 .1-.1.2-.2.3h-.7l.1.1c.1.1.2.1.3.2.1 0 .1 0 .2.1s.1.1.1.2c0 0 0 .1-.1.1h-.2c-.1 0-.2-.1-.2-.1v-.2c0-.1 0-.2-.1-.3l-.1-.1-.1.1c-.1.1-.1.2-.1.3 0 .1 0 .1-.1.2s-.1.1-.2.1h-.2c-.1 0-.1-.1-.1-.1 0-.1 0-.1.1-.2 0 0 .1-.1.2-.1s.2-.1.3-.1l.1-.1H68c-.1 0-.2-.1-.2-.1v-.1c0-.1.1-.1.1-.1h.3c.1 0 .1.1.2.1.1.1.1.1.3.2l.1.1v-.1c0-.1-.1-.2-.1-.3 0-.1-.1-.1-.1-.2-.1-.4 0-.5.2-.5z"/><circle cx="68.7" cy="98.1" r=".1" fill="#FFF"/><path fill="#E866A5" d="M64.2 98.3c.1-.1.3-.2.5-.1s.2.2.4.3c0-.2-.2-.3-.2-.4 0-.2.2-.3.3-.3.2 0 .3.1.3.3 0 .1-.2.2-.2.4.3-.1.3-.2.5-.3.2 0 .4 0 .5.2 0 .1-.1.3-.3.3-.2 0-.3-.1-.6 0 .2.2.4.1.5.3.1.1.1.3-.1.4-.2.1-.4 0-.5-.1-.1-.1 0-.2-.1-.4-.1.2-.1.3-.2.4-.1.1-.4.2-.5.1-.1-.1-.1-.3 0-.4.1-.1.3-.1.5-.2-.3 0-.4.1-.6 0-.2-.2-.3-.4-.2-.5z"/><path fill="#FBDCDC" d="M65.3 97.8c.1 0 .2.1.2.3 0 .1 0 .1-.1.1-.1.1-.1.1-.2.3v.1h.1c.1-.1.2-.1.3-.2.1 0 .1-.1.2-.1h.3s.1 0 .1.1-.1.2-.2.3h-.7l.1.1c.1.1.2.1.3.2.1 0 .1.1.2.1.1.1.1.1.1.2 0 0 0 .1-.1.1h-.2c-.1 0-.2-.1-.2-.1v-.2c0-.1 0-.2-.1-.3l-.1-.1-.1.1c-.1 0-.2.1-.2.2s0 .1-.1.2-.1.1-.2.1h-.2c-.1 0-.1-.1-.1-.1 0-.1 0-.1.1-.2 0 0 .1-.1.2-.1s.2-.1.3-.1l.1-.1h-.7c-.1 0-.2-.1-.2-.1v-.1c0-.1.1-.1.1-.1h.3c.1 0 .1.1.2.1.1.1.1.1.3.2l.1.1v-.1c0-.1-.1-.2-.1-.3 0-.1-.1-.1-.1-.2 0-.3.1-.4.3-.4z"/><circle cx="65.2" cy="98.6" r=".1" fill="#FFF"/><path fill="#E866A5" d="M60.4 98.6c.1-.1.3-.2.5-.1s.2.2.4.3c0-.2-.2-.3-.2-.4 0-.2.2-.3.3-.3.2 0 .3.1.3.3 0 .1-.2.2-.2.4.3-.1.3-.2.5-.3.2 0 .4 0 .5.2 0 .1-.1.3-.3.3-.2 0-.3-.1-.6 0 .2.2.4.1.5.3.1.1.1.3-.1.4-.2.1-.4 0-.5-.1-.1-.1 0-.2-.1-.4-.1.2-.1.3-.2.4-.1.1-.4.2-.5.1-.1-.1-.1-.3 0-.4.1-.1.3-.1.5-.2-.3 0-.4.1-.6 0-.1-.2-.3-.3-.2-.5z"/><path fill="#FBDCDC" d="M61.5 98.1c.1 0 .2.1.2.3 0 .1 0 .1-.1.1-.1.1-.1.1-.2.3v.1h.1c.1-.1.2-.1.3-.2.1 0 .1-.1.2-.1h.3s.1 0 .1.1-.1.2-.2.3h-.7l.1.1c.1.1.2.1.3.2.1 0 .1.1.2.1.1.1.1.1.1.2 0 0 0 .1-.1.1h-.2c-.1 0-.2-.1-.2-.1v-.2c0-.1 0-.2-.1-.3l-.2-.1-.1.1c-.1.1-.1.2-.1.3 0 .1 0 .1-.1.2s-.1.1-.2.1h-.2c-.1 0-.1-.1-.1-.1 0-.1 0-.1.1-.2 0 0 .1-.1.2-.1s.2-.1.3-.1l.1-.1h-.7c-.1 0-.2-.1-.2-.1v-.1c0-.1.1-.1.1-.1h.3c.1 0 .1.1.2.1.1.1.1.1.3.2l.1.1v-.1c0-.1-.1-.2-.1-.3 0-.1-.1-.1-.1-.2 0-.4.1-.5.3-.5z"/><circle cx="61.4" cy="98.9" r=".1" fill="#FFF"/><path fill="#F5BC17" d="M81.8 107.4l-3 .8V91.9l3-.8z"/><path fill="#F0AF1D" d="M78.8 108.2l-1.2-.6V91.5l1.2.4z"/><path fill="#74BF45" d="M81 90.6l.8.5-3 .8-1.2-.4z"/><path fill="#F5BC17" d="M57.8 113.5l-3 .8V98l3-.8z"/><path fill="#F0AF1D" d="M54.8 114.3l-1.2-.6V97.6l1.2.4z"/><path fill="#74BF45" d="M57 96.7l.8.5-3 .8-1.2-.4z"/><path fill="#F5BC17" d="M54 102.3l14.7 5.3 26.8-6.8-14.1-5.5z"/><path fill="#F5BC17" d="M95.4 112.4l-3.1.8V96.8l3.1-.8z"/><path fill="#F0AF1D" d="M92.3 113.2l-1.2-.7V96.4l1.2.4z"/><path fill="#74BF45" d="M94.5 95.5l.9.5-3.1.8-1.2-.4z"/><path fill="#F5BC17" d="M71.3 118.4l-3 .9v-16.4l3-.8z"/><path fill="#F0AF1D" d="M68.3 119.3l-1.2-.7v-16.1l1.2.4z"/><path fill="#74BF45" d="M70.5 101.6l.8.5-3 .8-1.2-.4z"/><path fill="#4AC4DE" d="M53.6 96.6l14.7 6.3L95.4 96 81 90.6z"/><path fill="#3F64AE" d="M95.4 96l.1 1.8-27.2 7v-1.9zm-41.8.6v1.6l14.7 6.6v-1.9z"/><path fill="#2EACBA" d="M91.8 96l-21.3 5.6-2.2-.6 20.5-5.7z"/><path fill="#ABD26D" d="M160.3 56.9h-2.4l-1.7 12.7 1.6.1zm-15.5.1l-1.8-.1s.9 8 1.2 9.7c.3 1.7.4 3.6.4 3.6l1.6.1s.6-2.7.2-3.3c-.4-.5-1.6-10-1.6-10z"/><path fill="#74BF45" d="M142.9 56.9l-.8.3 1.7 13 .8.1zm15 0l-.9-.1-1.8 12.8h1zm-13.7 25.9l-.7-.6.6-8.5.7.4s-.2 2.1-.2 3.2-.1 3.4-.2 3.6c-.2.3-.2 1.9-.2 1.9zm19.9 2.1l1 .9v-7.9H164zm-6.8-6.5l-.2 2.5-.9-.2.3-2.4z"/><path fill="#ABD26D" d="M167.5 85.3l-2.4.5v-7.9l2-.4zM147 75.1l-.5 7.8-2.3-.1.6-8.7 1.3.1z"/><path fill="#FBF8CD" stroke="#F8F4B5" d="M156.9 57.5c-1.9 0-12 .3-12 .3s-3 .7-3 2.6c0 1.9 1.2 3.9 1.2 4.3.1.5 3.5.8 5.6.8 2.1 0 6.4 0 6.8-.2.4-.2 3.6.1 4.3-1 .7-1.1 1.3-2.7 1-3.6-.3-.9-.6-2-.6-2s-1.4-1.2-3.3-1.2zm.9 12.2s4.2 1.6 6.5 3 3.6 2.1 3.8 2.8c.3.8-.2 1.7-1.1 1.9-.9.2-4.8 1.1-7.3 1-2.5-.1-6.4.2-6.9.1s-1.9-2.7-3.3-3.2c-1.4-.6-1.2-1.1-2.9-1.6s-2.5-1.3-2.5-1.3l.1-1.9 13.6-.8z"/><path fill="#74BF45" d="M152.5 79.1l.3 7.6-1.4-.9.5-6.7z"/><path fill="#ABD26D" d="M159.2 78.4l-.2 2.5h-1.8l.2-2.5zm-4.1 8.3l-2.2-.1-.3-7.6.8-.4 2.2.1z"/><path fill="#ECE79F" stroke="#F8F4B5" d="M152.8 78.8c-.5 1.5-2.3-.7-2.6-1.1-.4-.5-.7-1.1-1.2-1.5-.5-.4-1.3-.5-1.9-.7-1-.4-2.9-1-3.4-1.8-.6-.8-.3-2.6.9-3-.2 1.1-1.4 1.5.1 2.4 1 .7 2.2 1 3.4 1.5 1.7.7 3.5 2.6 4.8 4.6"/><path fill="#F9DA00" d="M150.6 58.3c.2 0 1.5 1.6 1.5 1.6s2.4-.7 2.5-.6c.1.1-1.1 1.7-1.1 1.7s1.9 1.1 1.9 1.3c0 .1-2.6.2-2.6.2s-.4 1.8-.6 1.9c-.2 0-1.5-1.6-1.5-1.6s-2.4.7-2.5.6c-.1-.1 1.1-1.7 1.1-1.7s-2-1.1-1.9-1.3c.1-.1 2.6-.2 2.6-.2s.5-1.9.6-1.9z"/><radialGradient id="x" cx="402.211" cy="331.557" r="1.879" gradientTransform="matrix(1.1612 0 0 .9235 -315.562 -244.828)" gradientUnits="userSpaceOnUse"><stop offset=".03" stop-color="#fbdc85"/><stop offset=".358" stop-color="#ffcc05"/><stop offset=".539" stop-color="#facb13"/><stop offset="1" stop-color="#e0b027"/></radialGradient><ellipse cx="151.5" cy="61.4" fill="url(#x)" rx="2.2" ry="1.7"/><circle cx="150.9" cy="60.7" r=".2" fill="#F7FBFF"/><circle cx="152.2" cy="60.6" r=".2" fill="#F7FBFF"/><path fill="#FFF" d="M153.3 61.7s-1.5 1.2-1.6 1.2c-.2 0-2-1-2-1s1.1.4 1.9.3c.9 0 1.7-.5 1.7-.5z"/><linearGradient id="y" x1="152.69" x2="153.54" y1="61.654" y2="61.654" gradientUnits="userSpaceOnUse"><stop offset="0" stop-color="#ec1475"/><stop offset="1" stop-color="#fff5cb"/></linearGradient><ellipse cx="153.1" cy="61.7" fill="url(#y)" opacity=".53" rx=".4" ry=".3"/><linearGradient id="z" x1="150.676" x2="149.651" y1="61.746" y2="61.746" gradientUnits="userSpaceOnUse"><stop offset="0" stop-color="#ec1475"/><stop offset="1" stop-color="#fff5cb"/></linearGradient><ellipse cx="150.2" cy="61.7" fill="url(#z)" opacity=".53" rx=".5" ry=".4"/><circle cx="150.9" cy="60.7" r=".1" fill="#090A0B"/><circle cx="152.2" cy="60.7" r=".1" fill="#090A0B"/><path fill="#E866A5" d="M164.3 75.6c.1-.1.3-.2.5-.1s.2.2.4.3c0-.2-.2-.3-.2-.4 0-.2.2-.3.3-.3.2 0 .3.1.3.3 0 .1-.2.2-.2.4.3-.1.3-.2.5-.3.2 0 .4 0 .5.2 0 .1-.1.3-.3.3-.2 0-.3-.1-.6 0 .2.2.4.1.5.3.1.1.1.3-.1.4-.2.1-.4 0-.5-.1-.1-.1 0-.2-.1-.4-.1.2-.1.3-.2.4-.1.1-.4.2-.5.1-.1-.1-.1-.3 0-.4.1-.1.3-.1.5-.2-.3 0-.4.1-.6 0-.2-.2-.3-.3-.2-.5z"/><path fill="#FBDCDC" d="M165.4 75.2c.1 0 .2.1.2.3 0 .1 0 .1-.1.1-.1.1-.1.1-.2.3v.1h.1c.1-.1.2-.1.3-.2.1 0 .1-.1.2-.1h.3s.1 0 .1.1-.1.2-.2.3h-.7l.1.1c.1.1.2.1.3.2.1 0 .1.1.2.1.1.1.1.1.1.2 0 0 0 .1-.1.1h-.2c-.1 0-.2-.1-.2-.1v-.2c0-.1 0-.2-.1-.3l-.1-.1-.1.1c-.1.1-.1.2-.1.3 0 .1 0 .1-.1.2s-.1.1-.2.1h-.2c-.1 0-.1-.1-.1-.1 0-.1 0-.1.1-.2 0 0 .1-.1.2-.1s.2-.1.3-.1l.1-.1h-.7c-.1 0-.2-.1-.2-.1V76c0-.1.1-.1.1-.1h.3c.1 0 .1.1.2.1.1.1.1.1.3.2l.1.1v-.1c0-.1-.1-.2-.1-.3 0-.1-.1-.1-.1-.2-.1-.4 0-.6.2-.5z"/><circle cx="165.3" cy="75.9" r=".1" fill="#FFF"/><path fill="#E866A5" d="M160 76.3c.1-.1.3-.2.5-.1s.2.2.4.3c0-.2-.2-.3-.2-.4 0-.2.2-.3.3-.3.2 0 .3.1.3.3 0 .1-.2.2-.2.4.3-.1.3-.2.5-.3.2 0 .4 0 .5.2 0 .1-.1.3-.3.3-.2 0-.3-.1-.6 0 .2.2.4.1.5.3.1.1.1.3-.1.4-.2.1-.4 0-.5-.1-.1-.1 0-.2-.1-.4-.1.2-.1.3-.2.4-.1.1-.4.2-.5.1-.1-.1-.1-.3 0-.4.1-.1.3-.1.5-.2-.3 0-.4.1-.6 0-.2-.3-.3-.4-.2-.5z"/><path fill="#FBDCDC" d="M161.1 75.8c.1 0 .2.1.2.3 0 .1 0 .1-.1.1-.1.1-.1.1-.2.3v.1h.1c.1-.1.2-.1.3-.2.1 0 .1-.1.2-.1h.3l.1.1c0 .1-.1.2-.2.3h-.7l.1.1c.1.1.2.1.3.2.1 0 .1 0 .2.1s.1.1.1.2c0 0 0 .1-.1.1h-.2c-.1 0-.2-.1-.2-.1v-.2c0-.1 0-.2-.1-.3l-.1-.1-.1.1c-.1.1-.1.2-.1.3 0 .1 0 .1-.1.2s-.1.1-.2.1h-.2c-.1 0-.1-.1-.1-.1 0-.1 0-.1.1-.2 0 0 .1-.1.2-.1s.2-.1.3-.1l.1-.1h-.7c-.1 0-.2-.1-.2-.1v-.1c0-.1.1-.1.1-.1h.3c.1 0 .1.1.2.1.1.1.1.1.3.2l.1.1v-.1c0-.1-.1-.2-.1-.3 0-.1-.1-.1-.1-.2-.1-.4 0-.5.2-.5z"/><circle cx="161" cy="76.6" r=".1" fill="#FFF"/><path fill="#E866A5" d="M156.5 76.7c.1-.1.3-.2.5-.1s.2.2.4.3c0-.2-.2-.3-.2-.4 0-.2.2-.3.3-.3.2 0 .3.1.3.3 0 .1-.2.2-.2.4.3-.1.3-.2.5-.3.2 0 .4 0 .5.2 0 .1-.1.3-.3.3-.2 0-.3-.1-.6 0 .2.2.4.1.5.3.1.1.1.3-.1.4-.2.1-.4 0-.5-.1-.1-.1 0-.2-.1-.4-.1.2-.1.3-.2.4-.1.1-.4.2-.5.1-.1-.1-.1-.3 0-.4.1-.1.3-.1.5-.2-.3 0-.4.1-.6 0-.2-.2-.3-.3-.2-.5z"/><path fill="#FBDCDC" d="M157.6 76.3c.1 0 .2.1.2.3 0 .1 0 .1-.1.1-.1.1-.1.1-.2.3v.1h.1c.1-.1.2-.1.3-.2.1 0 .1-.1.2-.1h.3s.1 0 .1.1-.1.2-.2.3h-.7l.1.1c.1.1.2.1.3.2.1 0 .1.1.2.1.1.1.1.1.1.2 0 0 0 .1-.1.1h-.2c-.1 0-.2-.1-.2-.1v-.2c0-.1 0-.2-.1-.3l-.1-.1-.1.1c-.1.1-.1.2-.1.3 0 .1 0 .1-.1.2s-.1.1-.2.1h-.2c-.1 0-.1-.1-.1-.1 0-.1 0-.1.1-.2 0 0 .1-.1.2-.1s.2-.1.3-.1l.1-.1h-.7c-.1 0-.2-.1-.2-.1v-.1c0-.1.1-.1.1-.1h.3c.1 0 .1.1.2.1.1.1.1.1.3.2l.1.1v-.1c0-.1-.1-.2-.1-.3 0-.1-.1-.1-.1-.2-.1-.4 0-.5.2-.5z"/><circle cx="157.5" cy="77.1" r=".1" fill="#FFF"/><path fill="#E866A5" d="M152.7 77.1c.1-.1.3-.2.5-.1s.2.2.4.3c0-.2-.2-.3-.2-.4 0-.2.2-.3.3-.3.2 0 .3.1.3.3 0 .1-.2.2-.2.4.3-.1.3-.2.5-.3.2 0 .4 0 .5.2 0 .1-.1.3-.3.3-.2 0-.3-.1-.6 0 .2.2.4.1.5.3.1.1.1.3-.1.4-.2.1-.4 0-.5-.1-.1-.1 0-.2-.1-.4-.1.2-.1.3-.2.4-.1.1-.4.2-.5.1-.1-.1-.1-.3 0-.4.1-.1.3-.1.5-.2-.3 0-.4.1-.6 0-.1-.2-.3-.4-.2-.5z"/><path fill="#FBDCDC" d="M153.8 76.6c.1 0 .2.1.2.3 0 .1 0 .1-.1.1-.1.1-.1.1-.2.3v.1h.1c.1-.1.2-.1.3-.2.1 0 .1-.1.2-.1h.3s.1 0 .1.1-.1.2-.2.3h-.7l.1.1c.1.1.2.1.3.2.1 0 .1.1.2.1.1.1.1.1.1.2 0 0 0 .1-.1.1h-.2c-.1 0-.2-.1-.2-.1v-.2c0-.1 0-.2-.1-.3l-.1-.1-.1.1c-.1.1-.1.2-.1.3 0 .1 0 .1-.1.2s-.1.1-.2.1h-.2c-.1 0-.1-.1-.1-.1 0-.1 0-.1.1-.2 0 0 .1-.1.2-.1s.2-.1.3-.1l.1-.1h-.7c-.1 0-.2-.1-.2-.1v-.1c0-.1.1-.1.1-.1h.3c.1 0 .1.1.2.1.1.1.1.1.3.2l.1.1v-.1c0-.1-.1-.2-.1-.3 0-.1-.1-.1-.1-.2-.1-.4 0-.5.2-.5z"/><circle cx="153.7" cy="77.4" r=".1" fill="#FFF"/><path fill="#F5BC17" d="M174.1 85.9l-3 .8V70.3l3-.8z"/><path fill="#F0AF1D" d="M171.1 86.7l-1.2-.7V69.9l1.2.4z"/><path fill="#74BF45" d="M173.3 69.1l.8.4-3 .8-1.2-.4z"/><path fill="#F5BC17" d="M150.1 92l-3 .8V76.4l3-.8z"/><path fill="#F0AF1D" d="M147.1 92.8l-1.2-.7V76l1.2.4z"/><path fill="#74BF45" d="M149.3 75.2l.8.4-3 .8-1.2-.4z"/><path fill="#F5BC17" d="M146.3 80.8l14.7 5.3 26.8-6.9-14.1-5.4z"/><path fill="#F5BC17" d="M187.7 90.8l-3.1.8V75.3l3.1-.9z"/><path fill="#F0AF1D" d="M184.6 91.6l-1.1-.7V74.8l1.1.5z"/><path fill="#74BF45" d="M186.8 74l.9.4-3.1.9-1.1-.5z"/><path fill="#F5BC17" d="M163.6 96.9l-3 .8V81.4l3-.9z"/><path fill="#F0AF1D" d="M160.6 97.7l-1.2-.7V80.9l1.2.5z"/><path fill="#74BF45" d="M162.8 80.1l.8.4-3 .9-1.2-.5z"/><path fill="#4AC4DE" d="M145.9 75l14.7 6.4 27.1-7-14.4-5.3z"/><path fill="#3F64AE" d="M187.7 74.4l.1 1.9-27.2 6.9v-1.8zm-41.8.6v1.7l14.7 6.5v-1.8z"/><path fill="#2EACBA" d="M184.1 74.4l-21.3 5.7-2.2-.6 20.5-5.7z"/><path fill="#D37E29" d="M43.1 42.9c.3-.1 2.8-2.2 2.8-2.7 0-.4-.1-2.5 1.6-3.5v-1l-2.4.3v4.1s-1.4 2.4-3.6 2.4c0 0-1.2.6 1.3.9 0-.2.1-.4.3-.5z"/><path fill="#F7961F" d="M51.3 42.4s-3.9-.8-3.9-2.4v-3.3c-1.7.9-1.6 3.1-1.6 3.5 0 .5-2.5 2.6-2.8 2.7-.2.1-.3.3-.3.5.8.1 2 .2 3.7.2 7-.1 4.9-1.2 4.9-1.2z"/><path fill="#9DBE67" d="M39.4 32.4c-.4-1-.5-1.9-.3-2.6-.3.5-.5 1.1-.5 1.7 0 2.5 3.6 4.6 7.9 4.6.5 0 .9 0 1.4-.1-2.2-.2-7.4-1.1-8.5-3.6z"/><path fill="#ABCE71" d="M54.4 31.5c0-2.5-3.6-4.6-7.9-4.6-3.4 0-6.3 1.2-7.4 2.9-.2.7-.1 1.5.3 2.6 1.1 2.5 6.3 3.4 8.5 3.7 3.7-.4 6.5-2.3 6.5-4.6z"/><path fill="#8A9CCB" d="M48.4 28.8h-.5c2.7.1 4.8 1.4 4.8 3s-2.1 2.9-4.8 3h.5c2.9 0 5.3-1.3 5.3-3s-2.4-3-5.3-3z"/><path fill="#807BB9" d="M52.7 31.8c0-1.6-2.1-2.9-4.8-3-2.7.1-4.8 1.4-4.8 3s2.1 2.9 4.8 3c2.7-.1 4.8-1.4 4.8-3z"/><path fill="#7FD0F4" d="M51.5 33c0 .2-.3.5-.7.5l-5 .4c-.4 0-.7-.2-.7-.5v-2.9c0-.3.3-.6.7-.5l5 .4c.4 0 .7.3.7.5V33z"/><path fill="none" stroke="#BBBCBD" stroke-width=".271" d="M51.5 33c0 .2-.3.5-.7.5l-5 .4c-.4 0-.7-.2-.7-.5v-2.9c0-.3.3-.6.7-.5l5 .4c.4 0 .7.3.7.5V33z"/><path fill="none" stroke="#231F20" stroke-linecap="round" stroke-linejoin="round" stroke-width=".149" d="M45.3 27.2l-4.4-5.8m6.7 5.5l2.6-3.9"/><path fill="#231F20" d="M41.4 21.4c0 .2-.2.3-.4.3s-.4-.2-.4-.3c0-.2.2-.3.4-.3s.4.1.4.3zm9 1.7c0 .2-.2.3-.4.3s-.4-.2-.4-.3c0-.2.2-.3.4-.3s.4.1.4.3z"/><defs><path id="A" d="M51.5 33c0 .2-.3.5-.7.5l-5 .4c-.4 0-.7-.2-.7-.5v-2.9c0-.3.3-.6.7-.5l5 .4c.4 0 .7.3.7.5V33z"/></defs><defs><path id="C" d="M51.5 33c0 .2-.3.5-.7.5l-5 .4c-.4 0-.7-.2-.7-.5v-2.9c0-.3.3-.6.7-.5l5 .4c.4 0 .7.3.7.5V33z"/></defs><clipPath id="B"><use overflow="visible" xlink:href="#A"/></clipPath><clipPath id="D" clip-path="url(#B)"><use overflow="visible" xlink:href="#C"/></clipPath><path fill="#8A9CCB" d="M47.1 32.9s1.1.1 1.2 0c.1-.1.2-1.2-.4-1.5-.5-.3-1.5-.1-1.5-.1l.3 1.4.4.2z" clip-path="url(#D)"/><path fill="#005C80" d="M50.8 33.3s-.3-.4-.1-.7c0 0-.4.3-.9.3 0 0 .1.2 0 .4 0 .1-.7.4-.7.4v.2c.8-.2 1.6-.2 2.4-.3l-.7-.3z" clip-path="url(#D)"/><g clip-path="url(#D)"><path fill="#6E85BC" d="M49.8 32c0-.1.2-.9.3-1.4-.2 0-.3.1-.3.1l-.2.4v.1l.1.2-.1.1v.5l-.1.4s.3.8.6.8c-.2-.3-.3-1-.3-1.2z"/><path fill="#8A9CCB" d="M51.2 32.2s-.2-1.5-.2-1.6c0 0-.5-.1-.9 0-.1.5-.3 1.3-.3 1.4 0 .2.1.9.2 1.1.2 0 1.2-.9 1.2-.9z"/></g><path fill="#231F20" d="M50.2 30.6v-.2.2c-.2-.1-.7-.3-.7-.1 0 .3.5.3.5.3s1 0 1.2-.4c.2-.4-1 .2-1 .2z" clip-path="url(#D)"/><path fill="#695BA7" d="M50.2 32h-.3l.1-.8-.3.8s.1.2.5 0z" clip-path="url(#D)"/><path fill="#231F20" d="M49.2 31.1h.6l.2.1.1-.1h.8v.1h-.1l-.1.2h-.5l-.1-.2H50l-.1.2h-.5l-.1-.2h-.1z" clip-path="url(#D)"/><path fill="#8A9CCB" d="M51.1 31.3s.2-.2.2-.1c.1.1 0 .4-.1.4l-.1-.1" clip-path="url(#D)"/><path fill="#231F20" d="M50.9 31.2l.2.1v-.1l-.2-.1zm-1 .9s-.4 0-.4.2.2.4.2.4-.1.3-.2.3c0 0 .3 0 .5-.3 0 0 1-.5-.1-.6zm.2.4c-.2.1-.2.1-.3 0 0 0 0 .1-.1 0-.1 0-.2-.2-.2-.3.1 0 .3 0 .3-.1 0 0 .1.1.3.1.2.1.3.2 0 .3z" clip-path="url(#D)"/><path fill="#0086B3" d="M49.4 31.2h.5v.2h-.4zm.8 0h.5v.2h-.5z" clip-path="url(#D)"/><ellipse cx="49.9" cy="32.4" fill="#231F20" stroke="#807BB9" stroke-width=".082" clip-path="url(#D)" rx=".2" ry=".1"/><path fill="none" stroke="#ABCE71" stroke-linecap="round" stroke-linejoin="round" stroke-width=".046" d="M49.7 33.3c.3-.3 1.1-.2 1 0" clip-path="url(#D)"/><path fill="#8C4196" d="M47.8 32.5l.1-.2h.1l.1-.1.2.1c0 .1-.1.5-.5.2z" clip-path="url(#D)"/><path fill="#231F20" d="M47.6 32h-.4l-.2.1s.2.1.6-.1zm.3-.1l.1-.1.2.1c0-.1 0 0-.3 0z" clip-path="url(#D)"/><path fill="#8A9CCB" d="M48.4 33.7s-.5-.3-.4-.8h-.4s.5.6.1.8" clip-path="url(#D)"/><path fill="#231F20" d="M47.7 30.7c.7.2.1.6.2.6.3.1.3.1.2.3-.2.1-.5-.2-.8-.1-.3.1.5.3.1.3-.7 0-.8.8-.4.8.4.1.3-.2.3-.2s.5.2 0 .5-1.5.7-2-.1c-.5-.8-.3-1.3.3-1.6.5-.3.5-1 2.1-.5z" clip-path="url(#D)"/><use fill="none" stroke="#BBBCBD" stroke-width=".199" overflow="visible" xlink:href="#A"/><linearGradient id="E" x1="34.296" x2="34.945" y1="23.371" y2="23.371" gradientUnits="userSpaceOnUse"><stop offset="0" stop-color="#ffedc4"/><stop offset=".318" stop-color="#ffe6b6"/><stop offset=".914" stop-color="#ffd592"/><stop offset="1" stop-color="#ffd28c"/></linearGradient><path fill="url(#E)" stroke="#010101" stroke-width=".25" d="M34.3 23s0 .3.1.4c.1.1.4.3.4.3h.1l-.1-.4"/><path fill="#F7961F" d="M42.9 18.9l-.1-2.7s18.5.4 18.3 11.3c-.2 10.8-13.4 11.9-13.4 11.9l-.2-1s4.4-.6 7.6-3c2.5-1.8 4.1-4.8 4.5-7.7 1.2-8.7-14.2-10.2-14.7-10.2-.6 0-.7 1.2-.7 1.2l-1.3.2z"/><radialGradient id="F" cx="-873.316" cy="-765.516" r="36.772" gradientTransform="matrix(.3897 0 0 .3044 384.366 256.987)" gradientUnits="userSpaceOnUse"><stop offset="0" stop-color="#9cc6e9"/><stop offset=".463" stop-color="#538ecb"/><stop offset="1" stop-color="#4269af"/></radialGradient><path fill="url(#F)" d="M58.2 27.8c0 5.5-5.9 10-13.2 10-7.3 0-13.2-4.5-13.2-10 0-.8.4-2.2.6-2.9 1.6-4 6.3-7.1 12.6-7.1 7.3 0 13.2 4.4 13.2 10z"/><path fill="#50B748" d="M55.7 33.9s-3.1 3.5-9.7 3.9c-.1 0-1.5-.4-1.3-.6.2-.2-.2-.7-.4-.7S43 36 43 35.8c0-.2-.6-.2-.9-.3-.3 0-1.4-1.9-.2-2.5 1.2-.6 1.5-.7 1.4-1.1-.1-.4 0-.3.1-.5s.3-.6.2-.6c.8-.1.8-.3.7-.7 0-.4.2-1 .7-1.1.5-.1.8-.2 1.4-.1.6.1 1.1-.4 1.3 0 .2.4-.4.7.3 1 .7.3 1.1.2 1.6.2.4 0 1.4-.1 1.7.3.5-.2.7.1.7.1s.3.3.8.2c.5-.1.2.5 1.1.8.9.4 1.2 1.4 1.2 1.4l.6 1zM42.8 18.1s6.4-1.5 12.2 3.1c.6.5 1.6 1.3 1.3 1.5-.3.2-.7.3-.6.6.1.3-.5.4-.7.5-.2.1-.1.3-.5.4-.4.1-.9.3-1 .6 0 .2-.9.9-1.5.8-.6-.1-.9-.2-1.6-.4-.7-.2-.9.2-1.6.6-.3.1-.3.2-.7.3-.4 0-1.2.6-2.2 0-.3-.8-.3-.4-.8-.4s-1.1-.7-.7-1.3c.4-.6.3-1.3-.1-2-.4-.6-1.1-.9-1.4-.9-.3 0-.3-.9-.1-1.1.2-.2.7-.6.7-.6l-.2-.7-.5-1z"/><path fill="#CEEBF2" d="M52.6 25.8c-.3.3-.8.1-1.2-.1-.4.6 1.6.7 1.2.1" opacity=".48"/><path fill="#CEEBF2" d="M43.5 22c.1-.4-1-.6-1.3-1-.2-.3.3-1.5-.4-1.2.4.2.1 1.8-.1 1.3-.4-.7.2 1.4 1.4.7.2 0 .3.1.4.2m-.7-2.2c-.1-.1-.1-.2-.2-.3.3-.1.6-.2.8-.1-.2.2-.4.4-.6.4" opacity=".25"/><path fill="#CEEBF2" d="M54 25.2c.3-.6 1-.3 1.6-.3.9 0 1.2-.8.5-.7.6-.7 1.7 1.1.1 1-.6-.1-1.9-.7-2.3.1" opacity=".48"/><path fill="#FFF" d="M56.6 24.5c-.1.2-.2.3-.4.3.6.4.5-.1.4-.3m-13.5-3c-.3 0-.9-.4-.9-.8-.3.4.4 1.1.9.8"/><path fill="#CEEBF2" d="M51.1 26.9c0 .3-.8.2-1 0-.2-.2 0-.5-.1-.7-.2-.3-.7-.1-1 0-.3.2-1.1.4-1.3-.1.6.2 1-.2 1.5-.4.4-.1 1.4-.3 1.3.2 0 .2-.6.6-.4.9.1.1.4.1.5.1.2.1.4-.2.5 0" opacity=".48"/><path fill="#FFF" d="M51.9 26c-.1 0-.7-.2-.3.1.2.1.6-.1.3-.1"/><path fill="#79C04A" d="M43 35.2s-.8-.5-.5-1.3c.3-.9 1.2-.5 1.3-1.3.1-.8-.3-.9.1-1.3s1.3-1.6 3.6-1c2.3.6 4.2 1.1 4.8 1.2.7.1 1 1.1 1.1 1.3.1.3 1.5.9 1 1.5s-3.3 3.3-8.1 2.5c-2.8-.6-3.3-1.6-3.3-1.6zm10.9-14.4c-.1.3.8.3.8 1.2-.3.9-.4.7-.6 1-.4.5-.8.9-2 1.6-1 .3-2.2-.7-2.8-.5-1.2.5-1.6 1.1-2.4 1-1.3-.1-1-1.1-1.4-1.1-.4-.1.3-1.1-.4-2.2-.1-.2-1.2-1-1.3-1.2-.5-1 .3-.5.4-.7.3-.7 0-1 .5-1.6.4-.4 2 .4 2.6.1"/><path fill="#CEEBF2" d="M40.5 27.2s0 .5.5.5 1.4-.3 1.4-.3-.7.5-1.1.5c-.4 0-.9.2-.9-.1s.1-.6.1-.6zm.4 5.7c.5-.5 1.7-.3 2-1.1.2-.6-.2-1.3.7-1.6-.5-.4-1.1.8-1.3 1 .4-.1.3.4.1.6-.3.2-.8.3-1.1.4-.5.2-1.4 1.3-.7 1.6 0-.2-.1-.8.3-.9m3.1-8.4c-.3-.4 1-1.7-.2-1.9.2.3.3.6.2.9-.1.3-.5.5-.6.8h.2c.1.1-.1.2-.2.3.2.1.5.1.6-.1m11.6 8.7c-.4-.6-.3-1.4-1.1-1.7-.3-.1-.7-.1-.9-.4-.3-.4.2-.7.3-.3 0 .1-.2.2-.1.3.1.2.3.2.5.2.5 0 1-.2 1.3.3.2.3-.1.6 0 .9 0 .3.4.5.4.8-.2 0-.4 0-.4-.1M44 29.7c-.1-1 1.4-1.1 2.3-1-.2-.2-.4-.1-.7-.2-.4-.1-.5-.1-.8-.3-1-.4-.5.4-.8.7-.2.2-.6.1-.7.5 0 .1.1.4.2.5.5.2 0-.3 0-.3.1-.2.5-.1.5.1" opacity=".48"/><path fill="#FFF" d="M44.9 28.6c-.1-.1-.4-.2-.6-.3-.1.1-.1.2-.1.4.3 0 .5-.2.7-.1m-2.2 3.1c.1-.3-.5-.7 0-.9.1.3.1.7 0 .9m12.1-.3c.5-.2 1 .5.5.8-.1-.3-.1-.6-.5-.8"/><path fill="#50B748" d="M35.3 32.6c-.1.3-.7 1-1.1 1-.5 0-1-.8-1.2-1.1-.1-.2-.1-.4-.3-.6-.1-.2-.4-.4-.5-.6-.2-.3-.3-.8-.4-1.2-.1-.4 0-.7 0-1.1 0-.7-.4-1.5-.3-2.2.1-.8.5-1.5.8-2.3.1-.3.4-1 .9-.9.5.1.7.7.8 1 .3.7.4 1.5.8 2.2.2.5.5.9 1 1.2.5.3.9.4 1 .9.2.8.1 1.6-.6 2.2-.2.2-.6.4-.7.6-.1.5-.1.7-.2.9z"/><path fill="#79C04A" d="M32.8 24.8c.5-.3 1.1 1.6 1.3 1.9.2.3.2.7.4 1.1.2.4.7.8 1.1 1.2.2.1.6.3.7.4.1.2 0 .4 0 .5 0 .4.2.8-.2 1.1-.4.3-.9.5-1.2.9-.2.3-.2 1-.6 1.2-.5.3-.9-.3-1.1-.6-.3-.3-.5-.6-.7-.9-.3-.7-.8-1.5-.9-2.2-.1-.7-.2-1.8 0-2.4.2-.4.3-.6.3-1.1 0-.5.1-.8.7-1 .2-.1.3 0 .5-.2"/></g></switch></svg>
