<svg xmlns="http://www.w3.org/2000/svg" version="1.0" viewBox="0 356 73.8 121.9"><switch><g><circle cx="51" cy="377.9" r="20" fill="#FFF"/><linearGradient id="a" x1="-79.516" x2="-78.956" y1="181.886" y2="213.352" gradientTransform="matrix(2.803 0 0 -2.803 258.363 997.92)" gradientUnits="userSpaceOnUse"><stop offset="0" stop-color="#ffc969"/><stop offset="1" stop-color="#c69432"/></linearGradient><path fill="url(#a)" stroke="#C69432" stroke-width="2" d="M9.8 432.7c1 3.9 3.1 7.5 3.4 11.5-2.7-3.1-5 0-5.3 2.8-.4 3 1.2 5.3 3.1 7.4 4.5 5 5.9 9.4 8.2 15.9 0 0 26 16.1 43.6 1.1 3-28.2 2.8-36.9-5.2-52.3"/><path fill="#FBCB98" stroke="#C69432" stroke-width="2" d="M22.3 438.3c-8.2-.2-2.4 10.9 1 13.3 4.3 3.1 10.2 4.5 15.6 3.6 5.2-.9 10.9-2.4 14.6-6.9 3.8-4.5 4.1-12.2-3-13.5-2.9-.5-6.2 2.3-8.7 1-3.3-1.6-2.9-7.1-7.2-8.6-6.2-2.2-13 3.7-13.2 10.2"/><linearGradient id="b" x1="-89.055" x2="-87.487" y1="207.958" y2="184.33" gradientTransform="matrix(2.803 0 0 -2.803 258.363 997.92)" gradientUnits="userSpaceOnUse"><stop offset="0" stop-color="#ffc969"/><stop offset="1" stop-color="#c69432"/></linearGradient><path fill="url(#b)" stroke="#C69432" stroke-width="2" d="M15.7 406.9s-6.1-6.7-8.3-2.2-8.3 25.6-3.3 28.9c5 3.3 12.2-3.3 12.2-3.3"/><linearGradient id="c" x1="-79.658" x2="-78.091" y1="208.582" y2="184.954" gradientTransform="matrix(2.803 0 0 -2.803 258.363 997.92)" gradientUnits="userSpaceOnUse"><stop offset="0" stop-color="#ffc969"/><stop offset="1" stop-color="#c69432"/></linearGradient><path fill="url(#c)" stroke="#C69432" stroke-width="2" d="M32.4 405.2c-.7-5.8 6.5-6.1 11.6-5.5 6.1.7 7.2 5.6 8.3 11.2 5.3-9.2 11.8 16.9 11.2 21.2-.6 4-5 9.4-9.5 6.1-2.3-1.7-2.6-10.4-2.2-13.5 0 5.8.3 12.7-6.6 14.7-7 2.1-15.2.1-13.7-8.9 1.1 7.2-1.2 9-8.7 9.4-5.6.4-11.7-1-13.4-6.8-2.5-9.7 3.5-29.5 13-33 1.7 1 6.5 1.9 7.8 3.4 3.3 3.9 2.2 1.7 2.2 1.7z"/><g stroke="#C69432" stroke-width="2"><path fill="#FBCB98" d="M23.7 423.5c-.1-3.1-.9-8.4-4.1-7.4-2.3.8-3.2 6.5-2.2 8.8.6-1 1.4-3.9 2.5-4.2 1.6-.4 2.6 2.9 2.8 4.5 0 0 1-.7 1-1.7z"/><path fill="#F9F7CD" d="M20.2 419.5c-5.5-.1-2.9 18.4-.5 22.9-.2-3.5-.2-11.7 1.4-14.4 1-1.7 2 .1 2-2.7 0-2.4-1-3.9-2.5-5.2l-.4-.6z"/></g><g stroke="#C69432" stroke-width="2"><path fill="#FBCB98" d="M43.4 422.5c-.1-3-.9-8.4-4-7.3-2.3.8-3.2 6.5-2.2 8.8.6-1 1.4-3.9 2.5-4.2 1.6-.4 2.6 2.9 2.8 4.5.1-.1 1-.9.9-1.8z"/><path fill="#F9F7CD" d="M39.9 418.5c-5.5-.1-2.9 18.4-.5 22.9-.2-3.5-.2-11.7 1.4-14.4 1-1.7 2 .1 2-2.7 0-2.4-1-3.9-2.5-5.2l-.4-.6z"/></g><g stroke="#C69432" stroke-width="2"><path fill="#FBCB98" d="M59.6 430.2c-.1-2-.6-5.6-3-5-1.7.5-2.4 4.4-1.6 5.9.4-.7 1-2.7 1.8-2.8 1.2-.3 1.9 1.9 2.1 3.1 0-.1.7-.6.7-1.2z"/><path fill="#F9F7CD" d="M56.9 427.4c-4.1 0-2.2 12.4-.4 15.5-.1-2.4-.2-7.9 1.1-9.7.9-1.1 1.5 0 1.5-1.8 0-1.6-.8-2.6-1.8-3.5l-.4-.5z"/></g><g stroke="#C69432" stroke-width="2"><path fill="#FBCB98" d="M6.9 424.9c-.1-2-.6-5.6-3-5-1.7.5-2.4 4.4-1.6 5.9.4-.7 1-2.7 1.8-2.8 1.2-.3 1.9 1.9 2.1 3.1 0 0 .7-.6.7-1.2z"/><path fill="#F9F7CD" d="M4.2 422.2c-4.1 0-2.2 12.4-.4 15.5-.1-2.4-.1-7.9 1.1-9.7.9-1.1 1.5 0 1.5-1.8 0-1.6-.8-2.6-1.8-3.5l-.4-.5z"/></g><path fill="none" stroke="#C69432" stroke-width="2" d="M31.6 430.4c.2-4.1-.9-8-.8-12 .2-4.1 1-9.2 1.5-13m19.6 19.7c0-2 1-11.5.8-14.3"/><path fill="#F9F7CD" stroke="#C69432" d="M59.2 370.8c-.6-2.5-2.1-8.1-4.2-9.4-3.7-2.2-6.5 3.8-7.8 6.6-4.5 9.2-3.4 19.9 3.5 27.4.1.1.1.1 0 0-3.6-6.8.1-18.6 7-21.9 0 .1 2.2.1 1.5-2.7z"/><path fill="#C69432" d="M53.8 363c1 3.1-2.5 7.4-3.3 8.8-2.7 4.2-3 9.4-1.6 14.2 0 0 .7-6.1 3.4-9.4 2.8-3.1 7.3-3.4 6.1-6.4-1.3-2.9-5.6-10.2-4.6-7.2z" opacity=".2"/><linearGradient id="d" x1="-75.99" x2="-73.39" y1="221.854" y2="221.854" gradientTransform="matrix(2.803 0 0 -2.803 258.363 997.92)" gradientUnits="userSpaceOnUse"><stop offset="0" stop-color="#fff"/><stop offset="1" stop-color="#f9f7cd"/></linearGradient><path fill="url(#d)" d="M51.5 362.5c-.5 1.9-2.1 3.8-3 5.7-1 2.2-2 4.6-2.5 6.8-.8 3.7-1.5 11.7 1.5 14.5-.6-4.6-1.8-9.3-.4-14.1 1-3.2 6.8-9.4 5.2-12.7"/><circle cx="20.7" cy="427.3" r="14.6" fill="none" stroke="#71C8F0" stroke-width="3"/><path fill="none" stroke="#71C8F0" stroke-width="3" d="M26.8 414.4l12.5-19.5"/><circle cx="51.3" cy="377.9" r="20" fill="none" stroke="#71C8F0" stroke-width="3"/></g></switch></svg>
