<svg xmlns="http://www.w3.org/2000/svg" xmlns:xlink="http://www.w3.org/1999/xlink" version="1.0" viewBox="0 0 111.3 125.1"><switch><g><symbol id="l" viewBox="-23.8 -13.8 47.6 27.5"><linearGradient id="a" x1="-3.255" x2="1.154" y1="9.842" y2="9.842" gradientUnits="userSpaceOnUse"><stop offset="0" stop-color="#6d6e70"/><stop offset="1" stop-color="#a6a8ab"/></linearGradient><path fill="url(#a)" stroke="#ADAAAA" stroke-width=".75" d="M-2.7 10h-.6s-.1 1.1.6 2.2c.6 1.2 1.3 1.2 2 1.1.7-.1 1.7-.7 1.8-1.6.1-.9 0-5.4 0-5.4H.7l-.1 5.2s.1.7-.6 1c-.7.3-1.8 1.1-2.1-.3-.4-1.4-.6-2.2-.6-2.2z"/><path fill="none" stroke="#A09D9C" stroke-width="3" d="M.9 7.4V2.8"/><path fill="none" stroke="#A09D9C" stroke-width=".75" d="M-.5 2.4l-22.1-15.1h45.8s.5-.1.2-.6"/><path fill="#A09D9C" stroke="#A09D9C" d="M-20.9-10.7s.1-.3.3-.3c.3 0 19.3 13 19.3 13l-.3.6-19.3-13.3zM3.4 2.1l-.3-.6 17-12 .3.4z"/><linearGradient id="b" x1="-.75" x2="2.209" y1="3.35" y2="3.35" gradientUnits="userSpaceOnUse"><stop offset="0" stop-color="#808184"/><stop offset="1" stop-color="#58595b"/></linearGradient><path fill="url(#b)" d="M2.2 3.3c0-1-.7-1.8-1.5-1.8s-1.5.8-1.5 1.8.7 1.8 1.5 1.8 1.5-.8 1.5-1.8z"/><path fill="#A09D9C" stroke="#A09D9C" d="M-11.1-12.1v-1.2h21.8v1.2zM2 2.4l21.4-14.8"/></symbol><symbol id="o" viewBox="-8.6 -65.1 17.2 130.1"><path fill="#9F9C9B" d="M-3.9 44.1v11.1l4.3 1.3V46.3l-4.3-2.2zm1.3 10.2v-8.2l1.8.9v7.8l-1.8-.5z"/><g fill="#605F5C"><path d="M-3.8 44.8s3.1 1.3 5.6 0c2.5-1.3 3.1-21.1 3.1-28 0-6.9-.3-31 0-35.7.3-4.7-2.2-14.2 0-17.2S8-45.6 8-45.6 1.5-48.2.3-48.2c-1.2 0-3.7-4.7-4 0-.3 4.7-3.7 29.3-4 34-.3 4.7 0 27.5 0 32.3 0 4.7.6 13.3 1.5 15.1.9 1.7 2.2 7.7 2.2 7.7l.2 3.9z"/><path d="M-2.9-50.9c-1.3 0-1.5 1.9-1.5 2.7-.2 2.3-1.1 9.8-2 17-.9 7.2-1.9 14.7-2 17.1-.2 3.6-.1 17 0 25.9v6.5c0 4.3.6 13.4 1.6 15.4.7 1.3 1.8 5.9 2.1 7.6l.3 4.2.4.1c.1 0 1.5.6 3.3.6 1.1 0 2-.2 2.8-.6 3.4-1.8 3.4-28.3 3.4-28.5 0-1.9 0-5.1-.1-8.9-.1-10.1-.2-23.6.1-27 .1-1.8-.2-4.2-.5-6.7-.4-4-.9-8.5.3-10.2 2.2-3.1 3.2-9.5 3.2-9.7l.1-.5-.5-.2c-1.1-.4-6.7-2.6-8-2.6-.2 0-.7-.5-1.1-.8-.6-.7-1.2-1.4-1.9-1.4zm-.4 95.3l-.3-3.5c-.1-.3-1.3-6.2-2.2-8-.8-1.4-1.5-9.5-1.5-14.8v-6.5c-.1-8.3-.2-22.3 0-25.8.2-2.3 1.1-9.8 2-17 .9-7.2 1.9-14.6 2-17 .1-1.1.3-1.4.3-1.5.3.1.9.6 1.2.9.7.6 1.3 1.2 1.9 1.2.8 0 4.6 1.4 7.1 2.4-.3 1.5-1.2 6.3-2.9 8.7-1.5 2.1-1 6.7-.5 11.1.3 2.4.5 4.8.4 6.4-.2 3.5-.1 17.1 0 27 0 3.8.1 7 .1 8.9 0 12.3-1.2 26.6-2.8 27.4-.6.3-1.4.5-2.3.5-1 0-2-.2-2.5-.4z"/></g><path fill="#514F4F" d="M3.2 36.1C7.6 42 .5 53.3-4.3 49.3c-1.1-.9-1.4-3-1.2-4.6.4-3.2.7-2.5 2.7-3 2.7-.7 5.6 1.8 6-4.3"/><path fill="#605F5C" d="M3.7 35.7l-1 .7.6.9h-.7c-.3 3.8-1.3 3.7-3.1 3.6-.7 0-1.6-.1-2.4.1-.4.1-.7.1-1 .2-1.6.3-1.9.8-2.2 3.4-.2 1.8.2 4.1 1.4 5.2 1.8 1.5 4.1 1.3 6.2-.7 3.4-3.1 5.1-9.4 2.2-13.4zM.2 42.2c1.7 0 3.1-.5 3.5-3.7.9 3.4-.8 7.6-3 9.7-.9.9-2.8 2.1-4.5.6-.9-.8-1.2-2.6-1-4.1.2-2.1.3-2.1 1.2-2.3.3 0 .6-.1 1.1-.2.6-.2 1.3-.1 2-.1.2.1.4.1.7.1z"/></symbol><symbol id="r" viewBox="-9 -29.5 18 59"><g fill="#D1CFCF"><path d="M.2 23.1c.2 1.2-.9 1.7-1 2.9-.1 1.2.6 2.7 2 2.8.3 0 .4-.8.3-1-.1-.3-.8 0-.9-.2-.3-.5-.3-.4-.4-1.1.1-.8 1.3-2.8 0-3.4z"/><path d="M-.6 22.1l.2 1.2c.1.4-.1.7-.4 1.1-.2.4-.5.9-.6 1.6-.1.9.2 1.9.8 2.6.5.6 1.1.9 1.8.9.2 0 .5 0 .7-.4.3-.4.4-1.1.2-1.5-.2-.4-.6-.6-1.1-.5v-.5c0-.2.1-.6.2-.9.3-.9.7-2.4-.7-3.1l-1.1-.5z"/></g><g fill="#233F8B"><path d="M-3.9-28.6c.9.4 1.5.9 2.3 1 1 .2 1.8-.4 2.7.5 1 1.1 1 3.9 1.1 5.4.4 3.6.7 6.8.4 10.4-.2 3.9-.5 7.7-.4 11.5.1 3 .5 6 0 9-.4 2.2-1.7 6.6-4.7 5.2-5-2.2-4.4-10.3-4.4-14.9C-6.9-5.8-8-11-8.2-16.2c-.2-2.8-1.2-14.5 4.3-12.4z"/><path d="M-5.1-29.5c-.8 0-1.5.3-2.1.9-1.9 2.1-2 7.1-1.7 11.7v.6c.1 2.3.4 4.7.6 6.9.3 2.9.7 5.8.7 8.8V.7c-.1 4.8-.1 12 4.8 14.2.5.2.9.3 1.3.3 2.8 0 3.9-4.2 4.2-6 .6-2.2.4-4.6.3-7C3 1.5 2.9.8 2.9.1c-.2-3 0-6.1.2-9.1l.1-2.1c.2-3.6 0-6.7-.4-10.5 0-.3 0-.6-.1-.9-.1-1.7-.2-3.8-1.2-4.8-.6-.7-1.3-.8-1.7-.8h-.5c-.3 0-.5.1-.8 0-.4-.1-.8-.3-1.2-.5-.3-.2-.7-.4-1.1-.5-.4-.3-.9-.4-1.3-.4zM-1.4 14c-.3 0-.5-.1-.8-.2-4.2-1.9-4.1-8.6-4.1-13V-.5c0-3-.4-6-.7-9-.3-2.2-.5-4.6-.6-6.9v-.6c-.1-2.4-.5-8.9 1.4-10.8.5-.6 1.2-.7 2.1-.3.4.1.6.3.9.4.4.2.9.5 1.5.6.4.1.8.1 1.2 0 .4 0 .7-.2 1.2.3.7.7.8 2.7.9 4.1 0 .4 0 .7.1.9.4 3.7.6 6.9.4 10.3l-.2 2.4c-.2 3-.4 6.2-.3 9.3 0 .7.1 1.4.1 2.1.2 2.3.3 4.6-.1 6.8-.4 2.4-1.4 4.9-3 4.9z"/></g><path fill="#9F9C9B" d="M-4.8 10.2c-2.9 0-3.1 2.6-3.2 3.6-.1 2 2.5 5.1 7.8 9.4l1.3 1L2.3 23c.1-.1.9-.9 1.4-1.5.1-.1.3-.3.6-.7C7.9 16.5 9 14.9 9 13.7c0-2.7-3.4-2.8-9.6-3.2-1.1-.1-2.1-.1-2.6-.2-.6-.1-1.1-.1-1.6-.1zm5.6 8.9c-2.5-2.1-4.6-4.3-5-5.2.2 0 .4 0 .5.1.6.1 1.6.1 2.9.2 1.4.1 3.7.2 5.3.4-.6.8-1.5 2-3.1 3.7-.2.4-.5.6-.6.8z"/><path fill="#233F8B" d="M.4-13.9c1.5.1 4.8-.1 5.5.8 1.1 1.5-.1 6.4-.5 8-.5 2.2-.2 4.2-.2 6.5 0 2.2 0 4.3-.2 6.5 0 1.4.2 2.5-.4 3.8-.5 1 .9 2.5-2.6 2.8-4 .3-5.8-1.5-5.7-3.6.2-2.6 1.1-5 1.1-7.6 0-2.3.6-4.6.6-6.9C-2-5.2-3.9-14.3.4-13.9z"/><path fill="#233C7B" d="M.1-14.5c-.8 0-1.5.3-2 .9-1.6 1.8-1.1 6.1-.9 8.7.1.6.1 1 .1 1.3 0 1.2-.1 2.4-.3 3.5-.1 1.1-.2 2.3-.2 3.4 0 1.3-.3 2.6-.6 4-.2 1.2-.5 2.4-.5 3.6-.1 1.1.3 2 .9 2.7 1.1 1.1 2.9 1.7 5.4 1.5 2.9-.2 3.1-1.3 3.1-2.5 0-.3 0-.5.1-.6.5-1.1.5-2.1.5-3V7.9c.2-2.4.2-4.4.2-6.5 0-.6 0-1.1-.1-1.6-.1-1.7-.1-3.2.2-4.8l.1-.5c.8-3.3 1.3-6.5.2-8-.7-.9-2.3-1-4.6-1H.1zm1 28.4c-1.6 0-2.9-.4-3.6-1.1-.4-.5-.7-1.1-.6-1.8.1-1.2.3-2.3.5-3.4.3-1.4.6-2.8.6-4.3 0-1.1.2-2.1.3-3.3.1-1.2.3-2.4.3-3.7 0-.3-.1-.8-.1-1.4-.2-2.1-.7-6.3.6-7.8.3-.4.7-.5 1.3-.5.4 0 .9 0 1.4.1 1.1 0 3.2.1 3.6.5.9 1.2-.1 5.5-.5 6.9l-.1.6c-.4 1.8-.3 3.4-.2 5.1v1.6c0 2 0 4.1-.2 6.4V9c0 .9 0 1.7-.4 2.5-.2.4-.2.8-.2 1.2 0 .7 0 1.1-1.9 1.2h-.8z"/></symbol><symbol id="p" viewBox="-10 -28.2 20 56.3"><g fill="#BBBC32"><path d="M1.2-23.7c.7 2.1 4.3 1.3 6 1.9 2.6.9 2.3 2.1 2 4.5-.2 1.9 0 4-.7 5.8-.9 2.2-1.6 3.3-1.8 5.8-.3 4.1 1 7.8 1.8 11.8.5 2.2.8 3.6 0 5.7-.9 2.5-2 1.7-4 1.7-1.9 0-3.6 1.7-5.5 1.4-2.5-.5-2.4-2.1-4.2-3.2 1.5-1.1 3.1-.6 4.4-2.6C0 7.8.6 5.9.6 4.4.7 2.5-.4 1.3-.9-.4c-.4-1.5-.4-3.3-.6-4.8-.9-6.8 1.2-12.5 2.5-19"/><path d="M.4-24.3c-.3 1.4-.6 2.9-1 4.3-1.2 4.9-2.3 9.5-1.6 14.8.1.6.2 1.1.2 1.7.1 1.1.2 2.2.4 3.2.2.7.4 1.2.7 1.8.5.9.9 1.7.8 2.8-.1 1.5-.6 3.3-1.3 4.4-.7 1.1-1.4 1.3-2.3 1.5-.6.2-1.3.4-2 .9l-.7.6.8.5c.6.4 1 .9 1.4 1.3.6.8 1.3 1.6 3.1 2 1.2.2 2.3-.2 3.4-.7.8-.3 1.5-.7 2.2-.7.4 0 .8 0 1.1.1 1.3.1 2.5.2 3.4-2.2.9-2.3.5-3.8.1-6l-.6-3C7.8.1 7.1-2.7 7.3-5.7c.1-1.8.6-2.8 1.1-4.2.2-.4.4-.9.6-1.4.5-1.3.5-2.6.6-4 0-.7 0-1.3.1-2l.1-.5c.3-2.1.5-3.7-2.4-4.7-.7-.2-1.5-.3-2.4-.3-1.7-.1-2.9-.2-3.3-1.1l-.2.1v-.2l-1.1-.3zm-4.6 36c.3-.1.6-.2.8-.3 1-.3 2.1-.6 3-2.1C.4 8 1 6 1.1 4.3 1.2 3 .7 2 .3 1 0 .4-.2 0-.3-.6c-.3-.9-.3-2-.4-3 0-.6-.1-1.2-.2-1.8-.7-5.1.4-9.6 1.5-14.4.2-.9.4-1.8.6-2.8.9.8 2.4.9 3.7 1 .8 0 1.5.1 2 .3 2 .7 1.9 1.3 1.6 3.4l-.1.5c-.1.7-.1 1.4-.1 2.1 0 1.3-.1 2.5-.5 3.6-.2.5-.4 1-.6 1.4-.5 1.4-1 2.6-1.1 4.5-.3 3.2.4 6.1 1.2 9.1.2.9.5 1.9.7 2.9.4 2.2.7 3.4 0 5.4-.6 1.5-1 1.5-2.2 1.4-.4 0-.8-.1-1.2-.1-1 0-1.9.4-2.7.8-1.1.3-2 .7-2.9.6-1.3-.2-1.7-.8-2.3-1.5-.3-.4-.5-.7-.9-1.1z"/></g><g fill="#D1CFCF"><path d="M1.3 27.5h1.5v-7H1.3z"/><path d="M3.4 19.9H.7v8.3h2.7v-8.3zm-1.5 1.2h.3v5.8h-.3v-5.8z"/></g><g fill="#AEAC35"><path d="M4.9 13c4.4 2.3-2.7 7.4-5.9 6.2-3.3-1.2.8-1.6 2.1-2.6 1.5-1.1 1.5-4.5 4-2.8"/><path d="M5.2 12.5l-.3.5c-.5-.2-1-.3-1.4-.2-.9.2-1.3 1.1-1.8 1.9-.3.6-.6 1.1-1 1.4-.3.2-1 .5-1.6.7-1.2.4-2.1.8-2.1 1.6 0 .7.8 1.1 1.7 1.4 2.6.9 6.9-1.4 7.9-3.8.7-1.4.2-2.7-1.4-3.5zm-.4 1.9l.3-.5c.8.6.6 1.2.4 1.6-.9 2-4.5 3.8-6.4 3.1-.3-.1-.5-.2-.6-.2.3-.1.7-.3 1-.4.7-.3 1.4-.5 1.9-.9.6-.5 1-1.2 1.4-1.9.3-.6.6-1.2 1-1.3.3.1.7.3 1 .5zm-11.4-2.3c1.5.6 3.7.3 5-.6C.4 10.2.2 8 0 5.9-.2 2-1.9-1.5-2.1-5.4c-.2-3.7.2-7.5.9-11.2.5-2.9 2.8-8.9 0-10.5-6.5-3.7-8.1 14.7-8.1 18.6 0 3.6.3 7.2.6 10.7.2 2.4.3 11.8 5.1 9.6"/><path d="M-2.9-28.2c-.7 0-1.2.2-1.6.4C-9-25.1-10-11.1-10-8.5c0 3.6.3 7.2.6 10.8 0 .2 0 .6.1.9.2 2.6.5 7.3 2.6 9l-.2.4c1.6.7 4 .4 5.6-.7C.8 10.5.7 8.1.6 6v-.3C.5 3.9 0 1.9-.4.1c-.5-1.9-.9-3.6-1-5.5-.2-3.3.1-6.8.8-11 .1-.6.3-1.3.5-2 .8-3.2 1.9-7.6-.8-9.1-.8-.5-1.4-.7-2-.7zm-2 39.8c-.3 0-.6-.1-.8-.2-1.9-1.1-2.2-5.9-2.3-8.2 0-.4 0-.7-.1-1-.3-3.6-.6-7.1-.6-10.7 0-4.4 1.4-16.2 4.9-18.2.7-.4 1.5-.4 2.3.1 1.9 1.1.9 4.9.2 7.7-.2.8-.4 1.5-.5 2.1-.8 4.4-1.1 7.9-.9 11.3.1 2 .6 3.9 1.1 5.8.4 1.9.9 3.7 1 5.7v.3c.1 1.8.3 3.7-1.3 4.7-.5.3-1.1.6-1.8.7l-.2-.4c-.3.2-.7.3-1 .3z"/></g><g fill="#9F9C9B"><path d="M.5 21v-3.6l3 .6v3.4z"/><path d="M-.1 16.6v5l4.3.5v-4.6l-4.3-.9zm1.2 3.9v-2.4l1.8.3v2.2l-1.8-.1z"/></g><g fill="#BBBC32"><path d="M3 13.3c.1 2 .1 3-1.9 3.8-1.8.7-3.2 0-2.8 2.6-.8-1.8-1-3.3-.8-5.2 1.6-.3 4.5-.8 6.1-.5"/><path d="M2.6 13.3c-1.9 0-4.4.5-5.2.6l-.5.1v.5c-.2 2.1 0 3.6.9 5.5l1.2-.3c-.2-1.3-.1-1.3 1-1.5.4-.1.9-.2 1.4-.4 2.2-.9 2.4-2.1 2.3-3.8l.1-.6h-.4c-.3-.1-.6-.1-.8-.1zM-1.9 15c1.4-.3 3.1-.5 4.3-.5 0 1.1-.3 1.6-1.5 2-.4.2-.8.3-1.2.3-.6.1-1.1.3-1.5.5-.1-.6-.2-1.4-.1-2.3z"/></g></symbol><symbol id="s" viewBox="-6.2 -34.9 12.3 69.8"><g fill="#9F9C9B"><path d="M-1.6 26.5v-7.9l3.1 1.3v7.3z"/><path d="M-2.2 17.7V27l4.3 1v-8.5l-4.3-1.8zM-.9 26v-6.4l1.8.7v6.1L-.9 26z"/></g><g fill="#D1CFCF"><path d="M-.8 34.3H.7v-7.1H-.8z"/><path d="M1.4 26.6h-2.7v8.3h2.7v-8.3zm-1.6 1.2h.3v5.8h-.3v-5.8z"/></g><g fill="#605F5C"><path d="M-2.7 20.1s2.1.6 3.8 0c1.8-.7 2.2-10.5 2.2-14 0-3.4-.2-15.4 0-17.8.2-2.4-1.5-7.1 0-8.6S5.4-25 5.4-25 1-26.2.1-26.2s-2.6-2.4-2.8 0c-.2 2.4-2.6 14.6-2.8 16.9-.2 2.4 0 13.7 0 16.1 0 2.4.4 6.6 1.1 7.5.6.9 1.5 3.9 1.5 3.9l.2 1.9z"/><path d="M-2-27.8c-.5 0-1.1.3-1.2 1.6-.1 1.2-.8 4.8-1.4 8.4-.7 3.8-1.3 7.3-1.4 8.5-.2 1.8-.1 8.5 0 12.9v3.2c0 1.8.3 6.7 1.2 7.9.4.6 1.1 2.5 1.4 3.7l.2 2.2.4.1s1 .3 2.3.3c.7 0 1.4-.1 2-.3 2.4-1 2.4-13.2 2.4-14.6V1.7c0-4.9-.1-11.6 0-13.3.1-.9-.1-2.1-.3-3.4-.3-1.8-.6-4 .1-4.8 1.6-1.6 2.3-4.9 2.3-5l.1-.6-.5-.2c-.8-.2-4.6-1.3-5.5-1.3-.1 0-.5-.3-.7-.4-.4-.2-.9-.5-1.4-.5zm-.1 47.4l-.2-1.5c-.1-.4-.9-3.2-1.6-4.2-.4-.6-.9-4.4-.9-7.1V3.6c0-4.1-.1-11.1 0-12.8.1-1.2.8-4.8 1.4-8.4.7-3.8 1.3-7.3 1.4-8.5 0-.2.1-.4.1-.5.2.1.5.3.7.4.5.3.9.6 1.4.6.5 0 2.8.6 4.6 1.1-.2.9-.8 2.8-1.8 3.8-1.2 1.2-.8 3.5-.5 5.8.2 1.2.4 2.3.3 3.1-.2 1.7-.1 8.5 0 13.4V6c0 5.8-.8 12.8-1.7 13.3-.4.2-.9.2-1.5.2-.8.2-1.4.1-1.7.1z"/></g><path fill="#514F4F" d="M2.5 15.7c3 2.9-1.9 8.6-5.1 6.6-.7-.5-1-1.5-.9-2.3.3-1.6.5-1.2 1.9-1.5 1.9-.3 3.8.9 4.1-2.1"/><path fill="#605F5C" d="M2.9 15.3l-.9.9.2.2h-.3c-.1 1.6-.6 1.6-2 1.5-.5 0-1.1 0-1.6.1-.3 0-.5.1-.7.1-1.1.1-1.5.4-1.7 1.9-.2 1 .1 2.3 1.1 2.9 2 1.2 4.4.1 5.8-1.7 1.3-1.8 1.8-4.2.1-5.9zM.4 19.1c.9 0 1.9-.2 2.4-1.3.1.9-.4 1.9-.9 2.6-1 1.3-2.8 2.3-4.2 1.4-.5-.3-.7-1.1-.6-1.7.1-.6.2-.8.2-.8s.3 0 .4-.1c.2 0 .4-.1.7-.1.4-.1.9-.1 1.4 0h.6z"/></symbol><symbol id="m" viewBox="-9.6 -29 19.2 57.9"><g fill="#9F9C9B"><path d="M.1 20.5v-7.8l3 1.3v7.3z"/><path d="M-.5 11.8V21l4.3 1.1v-8.5l-4.3-1.8zM.7 20v-6.4l1.8.7v6.1L.7 20z"/></g><g fill="#03949F"><path d="M.8-22.9c.7 2.1 4.3 1.3 6 1.9 2.6.9 2.3 2.1 2 4.5-.2 1.9 0 4-.7 5.8-.8 2.2-1.6 3.3-1.8 5.8C6-.8 7.3 2.9 8.1 6.9c.5 2.2.8 3.6-.1 5.7-.9 2.5-2 1.7-4 1.7-1.9 0-3.6 1.7-5.5 1.4-2.5-.5-2.4-2.1-4.3-3.2 1.5-1.1 3.1-.6 4.4-2.6C-.6 8.6 0 6.7 0 5.2.1 3.3-1 2.1-1.5.5c-.4-1.5-.4-3.3-.6-4.8C-3-11-.9-16.8.4-23.2"/><path d="M0-23.5c-.3 1.4-.6 2.9-1 4.3-1.2 4.9-2.3 9.5-1.5 14.8.1.5.1 1.1.2 1.7.1 1.1.2 2.2.4 3.2.2.6.4 1.2.7 1.8.4.9.8 1.7.7 2.8-.1 1.5-.6 3.3-1.3 4.4-.7 1.1-1.4 1.3-2.3 1.5-.6.2-1.3.4-2 .9l-.7.6.8.5c.6.4 1 .9 1.4 1.3.6.8 1.3 1.6 3.1 2 1.2.2 2.3-.2 3.4-.7.8-.3 1.5-.7 2.2-.7.4 0 .8 0 1.1.1 1.3.1 2.6.2 3.5-2.1.9-2.3.5-3.8.1-6-.2-1.1-.5-2.1-.7-3C7.4.9 6.7-1.9 7-4.9c.1-1.8.6-2.8 1.1-4.2.2-.4.4-.9.6-1.4.5-1.3.5-2.6.6-4 0-.7 0-1.3.1-2l.1-.5c.2-2 .4-3.6-2.5-4.6-.7-.2-1.5-.3-2.4-.3-1.7-.1-2.9-.2-3.2-1.1l-.2.1v-.2L0-23.5zm-4.6 36c.3-.1.6-.2.8-.3 1-.3 2.1-.6 3-2.1C0 8.8.6 6.8.7 5.1.8 3.7.3 2.7-.2 1.7-.4 1.2-.7.7-.8.1c-.3-.9-.3-2-.4-3 0-.6-.1-1.2-.2-1.8-.7-5.1.4-9.6 1.5-14.4.2-.9.4-1.8.6-2.8.9.8 2.4.9 3.7 1 .8 0 1.5.1 2 .3 2 .7 1.9 1.3 1.6 3.4l-.1.5c-.1.7-.1 1.4-.1 2.1.2 1.4.1 2.6-.3 3.6-.2.6-.4 1-.5 1.5C6.4-8.1 5.9-7 5.7-5c-.2 3.2.5 6.1 1.2 9.1.2 1 .4 1.9.6 2.9.5 2.2.7 3.4 0 5.4-.6 1.5-1 1.5-2.2 1.4-.4 0-.8-.1-1.2-.1-1 0-1.9.4-2.7.8-.9.4-1.8.8-2.7.6-1.3-.2-1.7-.8-2.3-1.5-.3-.4-.6-.8-1-1.1z"/></g><g fill="#D1CFCF"><path d="M.9 28.3h1.5v-7H.9z"/><path d="M3 20.7H.3V29H3v-8.3zm-1.5 1.2h.3v5.8h-.3v-5.8z"/></g><g fill="#078D90"><path d="M5.3 14.1c4.4 2.3-2.7 7.4-5.9 6.2-3.3-1.2.8-1.6 2.1-2.6C3 16.6 3 13.3 5.5 15"/><path d="M5.6 13.6l-.3.6c-.5-.2-1-.3-1.4-.2-.9.2-1.3 1-1.8 1.8-.3.6-.6 1.1-1 1.4-.3.2-1 .5-1.5.7-1.2.4-2.1.8-2.1 1.6 0 .7.8 1.1 1.7 1.4 2.6.9 6.9-1.4 7.9-3.8.6-1.4.1-2.7-1.5-3.5zm-.4 1.9l.3-.5c.8.6.6 1.2.4 1.6-.9 2-4.5 3.8-6.4 3.1-.3-.1-.5-.2-.6-.2.3-.1.7-.3 1-.4.7-.3 1.4-.5 1.9-.9.6-.5 1-1.2 1.4-1.9.3-.6.6-1.2 1-1.3.3.1.7.3 1 .5z"/></g><g fill="#019CB1"><path d="M-6.2 12.2c1.5.6 3.7.3 5-.6C.7 10.3.5 8 .4 6 .2 2-1.5-1.4-1.7-5.4c-.2-3.7.2-7.5.9-11.2.5-2.9 2.8-8.9 0-10.5C-7.3-30.7-9-12.3-9-8.4c0 3.6.3 7.2.6 10.7.2 2.4.3 11.8 5.1 9.6"/><path d="M-2.5-28.1c-.7 0-1.2.2-1.6.4C-8.7-25-9.6-11.1-9.6-8.4c0 3.6.3 7.2.6 10.8 0 .2 0 .6.1.9.2 2.6.5 7.4 2.6 9l-.2.4c1.6.7 4 .4 5.6-.7 2.1-1.4 2-3.8 1.9-5.9v-.3C.9 3.9.4 2-.1.1c-.5-1.9-.9-3.6-1-5.5-.2-3.3.1-6.8.9-11 .1-.6.3-1.3.5-2 .7-3.2 1.8-7.6-.8-9.2-.8-.4-1.4-.5-2-.5zm-2 39.8c-.3 0-.6-.1-.8-.2-1.8-1.1-2.1-5.9-2.3-8.2 0-.4 0-.7-.1-1-.4-3.6-.7-7.2-.7-10.7 0-4.4 1.4-16.2 4.9-18.2.7-.4 1.5-.4 2.3.1 1.9 1.1.9 4.9.2 7.7-.2.8-.4 1.5-.5 2.1-.8 4.3-1.1 7.9-.9 11.3.1 2 .6 3.9 1.1 5.8.5 1.8.9 3.6 1 5.6v.3c.2 1.9.3 3.7-1.2 4.8-.5.3-1.1.6-1.8.7l-.2-.4c-.4.2-.7.3-1 .3z"/></g><g fill="#019CB1"><path d="M3 14.1c.1 2 .1 3-1.9 3.8-1.8.7-3.2 0-2.8 2.6-.8-1.8-1-3.3-.8-5.2 1.6-.3 4.5-.8 6.1-.5"/><path d="M2.6 14.1c-1.9 0-4.4.5-5.2.6l-.5.1v.5c-.2 2.1 0 3.6.9 5.5l1.2-.3c-.2-1.3-.1-1.3 1-1.5.4-.1.9-.2 1.4-.4 2.2-.9 2.4-2.1 2.3-3.8l.1-.6h-.4c-.3-.1-.6-.1-.8-.1zM-2 15.8c1.4-.3 3.1-.5 4.3-.5 0 1.1-.3 1.6-1.5 2-.4.2-.8.3-1.2.3-.6.1-1.1.3-1.5.5-.1-.6-.1-1.4-.1-2.3z"/></g><path fill="#F6FBFC" d="M-8.3 5.1s1.6 0 3.2-.6 5-.9 5-.9L-1.2.3s-4.6 1.1-5.7 1.6c-1.1.5-2.4.5-2.4.5l1 2.7zm6.6 5.3s4.3-1.1 6.3-.6c2 .5 4.4 2.1 4.4 2.1s.6-1.7 0-2.7c-.6-1-3.5-2.1-4.8-2.1H-.6l-.5 2.4-.6.9zM-9-4.8s1.7-.5 3.3-.6c1.6-.1 3.1.3 3.1.3s-.5-1 0-2.4-.5-1.2-2.5-1.2c-1.6 0-4.3 1.2-4.3 1.2l.4 2.7zm.5-9.5s.5-.3 2.8 0 4 .9 4 .9l.6-2.1s-1.8-.6-3.7-.7c-1.8-.1-3.7-.5-3.7-.5l-.5 2.3.5.1zm7 13.7s2.8-.2 4.7 0C5-.4 7.1.3 7.1.3s.1-1.9-.4-2.9c-.4-.9-2.9-2.3-4.3-2.2-1.3.1-4.9.4-4.9.4l.6 4 .4-.2zM-2-9.8s3.8-.5 5.8.4 3.7 1.9 3.7 1.9.9-1.6.9-1.9c0-.3-3.5-2.8-5.2-2.9-1.7-.1-4.9-1.1-4.9-1.1l-.7 2.5.4 1.1zm.8-7.6s4.9.4 6.3 1c1.4.6 3.5 1.8 3.5 1.8l.1-2s-1.7-1.8-4-2.2c-2.3-.4-5-.5-5-.5l-.9.9v1z"/></symbol><symbol id="c" viewBox="-37.7 -12.7 75.3 25.4"><path fill="#ECDAC5" d="M-37.2 12.2v-24.1l74.4-.3v24z"/><path fill="#F9AC5F" d="M37.7-12.7l-75.3.3v25.1l75.3-.4v-25zm-74.4 1.3l73.5-.3v23.1l-73.5.4v-23.2z"/><path fill="#F37A20" d="M-6.9-.3c-.3 1 .7 1.6-1.1 1.8-1 .1-2.1-.2-1.9-1.4.1-.7.5-.6.8-1 .1-.1.5-.1.6-.2.1-.1.2-.6.3-.7.7-1 1.2-1.2 2.4-1.4C-2.1-3.6 2-4 5.5-3c.5.2.9.3 1.2.8.3.5-.2 1.1.1 1.5.4.6 2.7.3 2.2 1.6-.3.8-2.2.8-2.8.4-1-.8-.7-2.2-2-2.9-3-1.6-7.6-1.2-10.7-.2 0 .3-.6.9-.5 1.1"/></symbol><symbol id="d" viewBox="-17.9 -87.3 35.8 174.6"><g fill="#FFF"><path d="M-17.1-78l33.8-8.5.6 143.9S15.6 86.4.6 86.6c-19.4.4-17.8-37.2-17.8-37.2l.1-127.4z"/><path d="M17.3-87.3l-35 8.8-.1 127.9c0 .9-.9 23.9 8.4 33.6 2.7 2.8 6 4.2 9.8 4.2h.2c15.4-.1 17.2-28.5 17.3-29.7l-.6-144.8zm-33.8 9.8L16-85.7l.6 143.1c0 .2-1.9 28.4-16.1 28.6H.3c-3.5 0-6.5-1.3-8.9-3.9-8.9-9.3-8.1-32.5-8-32.7l.1-126.9z"/></g><g fill="#B6BBBB"><path d="M-14.9-77.3l29.1-6.8.5 140.3S13.2 84.8.3 85C-16.4 85.3-15 48.3-15 48.3l.1-125.6z"/><path d="M16-86.4l-32.8 7.7-.1 127.1c0 1-.8 25.3 8.2 34.7 2.4 2.5 5.4 3.8 8.7 3.8h.2c14.5-.2 16.1-29.3 16.2-30.6L16-86.4zm-29.1 10.6l25.4-5.9.5 137.9C12.4 63.6 9.4 83 .3 83.1H.1c-2.3 0-4.3-.9-6.1-2.7-8-8.3-7.2-31.8-7.2-32.1l.1-124.1z"/></g><path fill="#D9EFF6" d="M-14.7-77.3l29.1-6.8.5 140.3S13.4 84.8.5 85c-16.7.3-15.3-36.7-15.3-36.7l.1-125.6z"/><path fill="#FAFDFF" d="M-8.9 42.5c2.4-8 8.6-16 12.2-23.6m-1.1-.5c-1.4 2.9-3.1 5.8-4.9 8.9-2.9 4.9-5.9 9.9-7.4 14.9l2.4.7c1.4-4.7 4.3-9.6 7.1-14.4 1.8-3 3.6-6.1 5-9.1l-2.2-1zm-.4-14l-7.9 16.7 2.2 1L4 5.4l-2.2-1zm-5.7 36l-2.2 4 2.2 1.2 2.2-4-2.2-1.2z"/></symbol><symbol id="e" viewBox="-8 -9.3 16 18.7"><path fill="#88431E" d="M-4.9 8.5s-.1-2 .2-3.3c.2-1 .8-3.3.8-3.8C-3.9.8-4-.8-4-1.3s-.1-1.4-.1-1.4-.2-.9-.3-1.3c-.1-.5-.3-2-.3-3.7.6-.2 2.7-1 4.2-.3.1.5.1 1 .1 1s0 .2.4.2c.2 0 .7-.1.9-.4.2-.2.8-1 1.1-1.2.3-.2.7-.3 1.3-.2.7 0 2.1.3 3 .5.9.3 1.6.7 1.6.8.1.1.1.2.1.4 0 .1-.1.9-.2 1.1-.1.2-.3.6-.6.5-.4-.1-.9-.1-1.2 0-.2 0-1 .2-1.1.3-.2 0-.3 0-.7.5-.4.5-1.5 2.1-1.7 2.4-.1.3-.4.5-.5 1.3-.1.8-.4 4.3-.3 5 0 .7 0 2.8.1 3.2 0 .6.1 1.2 0 1.4-.1.3-.9.4-1.3.5-.5.1-2.8.1-3.6 0-.8-.1-1.7-.4-1.8-.8z"/><path fill="#934120" d="M-8 7.7s-.1-2 .2-3.3c.2-1 .8-3.3.8-3.8 0-.6-.1-2.2-.1-2.7.2-.4.1-1.4.1-1.4s-.4-.9-.5-1.3c-.1-.5-.3-2-.3-3.7.6-.2 2.7-1 4.2-.3.1.5.1 1 .1 1s0 .2.4.2c.2 0 .7-.1.9-.4.2-.2.8-1 1.1-1.2.3-.2.7-.3 1.3-.3.7 0 2.1.3 3 .5.8.5 1.5.9 1.6 1 .1 0 .1.1.1.3 0 .1-.1.9-.2 1.1-.1.2-.2.6-.6.5-.3-.1-.9-.1-1.1 0-.3.1-1 .2-1.2.3-.2 0-.3.1-.7.5-.4.5-1.5 2.2-1.6 2.4-.2.3-.5.5-.6 1.4-.1.8-.4 4.3-.3 5 0 .7 0 2.8.1 3.2.1.5.2 1.1.1 1.3-.1.2-.9.4-1.3.5-.5.1-2.8.1-3.6 0-.9-.1-1.8-.4-1.9-.8z"/></symbol><symbol id="f" viewBox="-10.7 -3.4 21.3 6.7"><path fill="#243671" d="M.1-.8S.8.9 1.5 1.7c.7.7 1.3 1.3 1.6 1.5.2.2.3.4.6 0 .2-.4 1.1-1.8 1.9-2.2C6.3.6 6.9.3 8 .2h1.7c.4 0 .7-.4.9-.6V-1s.1 0 .1-.1-.2-.6-.2-.6-.5-.5-2.3-.7c-1.8-.2-3.4-.4-6 .2-2.6.6-4.5 1.6-4.5 1.6v-.7c0-.2-1.9 0-2.7.2-.9.1-2.5.8-2.6.9-.1.1-.1.9-.1.9s-.1.2-.3.3c-.2.1-.2.4-.1.6.1.2.4.2.9.2.5-.1 2.4-.6 3.7-1.1C-2.3.2-.5-.6.1-.8z"/><path fill="#365093" d="M-2.4-1.6S-1.7.1-1 .9C-.3 1.6.3 2.2.6 2.3c.2.2.3.4.6 0C1.5 2 2.4.5 3.1.2c.7-.4 1.3-.7 2.4-.8h1.7c.4-.1.7-.4.8-.6.1-.2.1-.7.1-.7s.1 0 .1-.1-.2-.6-.2-.6-.4-.4-2.3-.6c-1.8-.2-3.3-.4-5.9.2-2.6.6-4.5 1.6-4.5 1.6v-.7c0-.2-1.9 0-2.7.1-1 .2-2.6.8-2.6.9-.1.1-.1.9-.1.9s-.2.3-.4.4c-.2.1-.2.4-.1.6.1.2.4.2.9.2C-9.2.9-7.3.4-6-.1c1.2-.5 3-1.4 3.6-1.5z"/></symbol><symbol id="g" viewBox="-8.9 -4.7 17.8 9.3"><path fill="#311C0E" d="M8.9-1.3l-.3.3s-.2 0-.4-.1c-.1-.2-.7-.7-.7-.7s.1.8 0 1.4c-.1.6-.2 1-.3 1.1-.2 0-.4.2-.7-.1-.3-.3-.7-1.3-.7-1.3h-.3c.2.7.2 2 .1 2.3-.1.3-.4.7-.8.7-.3 0-1-.9-1.3-1.5-.2-.5-.6-1.5-.8-2.3C2.3-1 1.3 1.1.7 2 .1 3-1 4.3-1.9 4.6c-1.2.3-1.8-.4-1.8-.5 0-.2.2-.5.3-.7.1-.2.6-.8.8-1.1.1-.4.2-1.3.2-1.8.1-.6-.1-3.6-.1-3.6h.7s-.1 1.5 0 2c0 .5.1 2.1.3 2.9.2.8.8.5 1.1.3C-.1 1.8.7.9 1 .4c.3-.5 1.2-2 1.6-2.7.5-.7 1.2-.9 2.5-1.1 1.3-.2 2.9 1 3.2 1.2.2.2.5.6.5.6s.2.2.1.3zm-4-1.2s-.9-.2-1.6.6c.1.5.5 1.6.6 1.8.3-.2.7-.9 1.2-1l-.2-1.4zm.3 1.9c-.4.2-.8.5-1.1.9.1.2.5 1 .8 1.2.1.1.4-.1.4-.5.1-.4-.1-1.6-.1-1.6zm.3-2h-.2l.2 1.2s.1-.1.2-.1c-.1-.2-.2-1.1-.2-1.1zm1.7.6s-.6-.4-1-.5c-.1.1 0 .8.1 1.2.1.4.2.7.4.9.2.2.3.2.4 0 0-.2.2-.7.1-1.6z"/><path fill="#383838" d="M3.7-2.5l-.3.3s-.2 0-.4-.2c-.1-.2-.7-.7-.7-.7s.1.8 0 1.4c0 .6-.2 1-.3 1.1-.1.1-.3.2-.7-.1C1-1 .7-2 .7-2H.4c.2.7.2 2 .1 2.3C.4.6 0 1-.3 1c-.3 0-1-.9-1.3-1.5-.2-.5-.6-1.5-.8-2.2-.4.4-1.4 2.6-2 3.5-.6.9-1.7 2.2-2.7 2.5-1.2.3-1.8-.4-1.8-.5 0-.2.2-.5.3-.8.2-.2.6-.8.8-1.1.2-.3.2-1.2.2-1.6 0-.6-.1-3.6-.1-3.6h.7v2c0 .5.1 2.1.3 2.9.3.7.8.4 1.2.2.3-.2 1.1-1.1 1.4-1.7.3-.5 1.2-2 1.6-2.7.5-.7 1.2-.9 2.5-1 1.3-.2 2.9 1 3.2 1.2.2.2.5.6.5.6s.1.1 0 .3zm-4-1.3s-.9-.2-1.6.6c.1.5.5 1.6.6 1.8.3-.2.7-.9 1.2-1 0-.7-.2-1.4-.2-1.4zm.3 2c-.4.2-.8.5-1.1.9.1.2.5 1 .8 1.2.2.1.5-.1.5-.5S0-1.8 0-1.8zm.3-2H.1l.2 1.2s.1-.1.2-.1C.4-3 .3-3.8.3-3.8zm1.7.5s-.6-.4-1-.5c-.1.2 0 .8.1 1.2.1.4.2.7.4.9.2.2.3.2.4 0 .1-.2.2-.7.1-1.6z"/></symbol><symbol id="q" viewBox="-18.8 -12.7 37.6 25.5"><g fill="#FCF8C6"><path d="M-14.1 3.7h25.9s3.4-.6 3.4-3.3c0-2.7-.7-3.7-2.2-3.9-1.4-.1-26.8-.5-26.8-.5s-2.4-.4-2.6 3.5c-.1 3.8 2.3 4.2 2.3 4.2z"/><path d="M-13.9-4.7c-.5 0-2.9.2-3 4.1-.1 4.4 2.7 4.8 2.8 4.9h26c1.5-.2 4-1.4 4-4 0-2-.3-4.2-2.7-4.5-1.4-.1-25.5-.5-26.9-.5h-.2zm25.6 7.8h-25.8s-1.8-.4-1.7-3.6c.1-2.6 1.3-2.9 1.8-2.9h.1c8.9.1 25.8.4 26.9.5.8.1 1.6.4 1.6 3.2 0 2.2-2.8 2.7-2.9 2.8z"/></g><path fill="#EECDE1" d="M-12.6 9h23.1s3.1-.4 3.1-2.2c0-1.8-.7-2.4-1.9-2.5-1.3-.1-24-.3-24-.3s-2.2-.2-2.3 2.3c-.1 2.5 2 2.7 2 2.7z"/><path fill="#E1B9D7" d="M-12.5 3.4c-1.3 0-2.7.8-2.8 2.9-.1 2.4 1.6 3.3 2.6 3.4h23.2c1.4-.2 3.7-.9 3.7-2.8 0-2-.8-3-2.5-3.1-1.3-.1-22.9-.3-24-.3 0-.1-.1-.1-.2-.1zm23 5h-23.1c-.1 0-1.5-.3-1.4-2.1.1-1.4.9-1.7 1.5-1.7h.1c7.9.1 23 .3 24 .3.8.1 1.4.3 1.4 1.9 0 1.2-2.5 1.6-2.5 1.6z"/><path fill="#D0EBF9" d="M-12.7 12.1H9.5s2.9-.2 2.9-1.3-.6-1.5-1.9-1.6C9.4 9.2-12.4 9-12.4 9s-2.1-.2-2.2 1.4c-.1 1.6 1.9 1.7 1.9 1.7z"/><path fill="#BDE0EE" d="M-12.6 8.4c-1.6 0-2.6.8-2.7 2-.1 1.7 1.6 2.3 2.5 2.4H9.5c.9-.1 3.6-.4 3.6-2 0-2.1-1.8-2.2-2.4-2.2-1.2-.1-22-.2-23.1-.2h-.2zm22.1 3.1h-22.2s-1.4-.1-1.3-1c0-.8 1-.8 1.4-.8h.1c.3 0 21.9.2 23.1.2 1.2.1 1.3.4 1.3.9-.1.2-1.2.6-2.4.7z"/></symbol><symbol id="n" viewBox="-13.1 -71.3 26.3 142.7"><g fill="#9F9C9B"><path d="M-2.6 62.9v-7.8l3 1.2v7.3z"/><path d="M-3.3 54.1v9.2L1 64.4v-8.5l-4.3-1.8zm1.3 8.3V56l1.8.7v6.1l-1.8-.4z"/></g><path fill="#D1CFCF" d="M.3 63h-2.7v8.3H.3V63zm-1.5 1.3h.2v5.8h-.3v-5.8h.1z"/><g fill="#5482C2"><path d="M-8.5-65.6c-.3-2.5 6.6-3.5 8.9-4.2 1.7-.5 3.8-1.5 5.7-.6 2.1 1.1 2 3.2 3.5 4.6 2 1.7 2.5.9 2.8 3.9.2 1.6 0 3.2 0 4.8 0 3.9-1.6 7.8-2 11.7-.4 4.1-3.3 7.8-3.4 11.9-.2 4.6-1.4 8.5-1.6 13-.2 4.7-1 8.7-.3 13.3.3 2.1.7 4 .6 6.2-.2 5.9-2 11.7-2 17.6 0 3 1.4 4.8 2 7.4.5 2.2-.5 5.3-.4 7.6.1 2.5.3 5.1.5 7.6.5 5.5-1.1 10.9-1.9 16.3-2.7.5-6.5-1.2-8.2-3-3.1-3.4 1.1-3.9 1.4-7.4.2-2.5-2.7-5-3.1-7.6-.4-2.8.7-5.1 1.3-7.8 1.2-5.5 0-9.6-1.3-14.9-1.4-4.7-1.3-10.2-1.5-15-.1-5.2.4-10.5.6-15.7C-6.5-21-8-26-8.6-31.1c-.6-5-1.7-9.9-2.2-14.9-.4-3.9.6-7.9-.2-11.8-.3-1.7-1.8-3.4-1.4-5 .1-.8 3.8-3.8 3.9-2.8z"/><path d="M4.4-71.3c-1.1 0-2.2.4-3.2.7l-.9.3c-.4.1-1 .3-1.6.4-3 .7-7 1.6-7.6 3.6-1.3.3-3.8 2.5-4 3.4-.3 1.2.2 2.3.7 3.5.3.6.6 1.2.7 1.8.4 2.1.3 4.2.2 6.4-.1 1.8-.2 3.6 0 5.4.3 2.7.7 5.4 1.2 8.1.4 2.2.7 4.5 1 6.9.2 1.6.5 3.3.8 4.9.6 3.3 1.2 6.8 1 10.2-.1 1.3-.1 2.6-.2 3.9-.3 3.9-.5 8-.4 11.9V2c.1 4.2.2 9 1.2 13.1l.3 1.1c1.2 4.8 2.2 8.5 1 13.5-.2.7-.4 1.4-.5 2.1-.5 1.9-1.1 3.8-.7 6 .2 1.3.9 2.5 1.7 3.7.8 1.3 1.5 2.6 1.5 3.7-.1 1.2-.7 2-1.3 2.8-1 1.2-2.1 2.6.1 5.1 1.9 2.1 6.1 3.7 8.8 3.2l.2-.3.1-.5c.2-1.6.5-3.2.8-4.7.7-3.8 1.5-7.7 1.1-11.7-.2-2.3-.4-4.9-.5-7.5 0-.9.1-1.9.3-3.1.2-1.6.4-3.3.1-4.7-.2-1-.6-1.9-.9-2.7-.5-1.4-1.1-2.7-1-4.5 0-3.2.6-6.3 1.1-9.4.3-2.7.8-5.4.9-8.2.1-2-.1-3.8-.4-5.6l-.1-.7c-.5-3.1-.3-5.9 0-8.9.1-1.3.2-2.7.3-4.2.1-2.2.4-4.2.8-6.3.4-2.1.7-4.3.8-6.7.1-2 .8-3.9 1.7-6 .8-1.9 1.5-3.8 1.7-5.9.2-1.7.6-3.4.9-5.1.5-2.2 1-4.4 1-6.7v-1.4c0-1.2.1-2.3 0-3.5-.2-2.3-.6-2.7-1.8-3.5-.3-.2-.7-.5-1.2-.9-.6-.5-.9-1.1-1.2-1.8-.5-1-1-2.1-2.4-2.8-.7-.2-1.4-.3-2.1-.3zm-13.1 6.1c-.2 0-.4-.2-.4-.3l1.2-.1c-.2-1.5 4.5-2.6 6.8-3.1.7-.2 1.3-.3 1.7-.4.3-.1.6-.2 1-.3 1.5-.5 3.1-.9 4.3-.3 1 .5 1.4 1.3 1.9 2.3.4.8.8 1.6 1.5 2.2.6.5 1 .8 1.4 1 .8.5 1 .6 1.2 2.5.1 1.1.1 2.2 0 3.3v1.4c0 2.1-.5 4.3-1 6.4-.4 1.7-.8 3.5-1 5.2-.2 1.9-.9 3.7-1.7 5.5-.8 2-1.7 4.1-1.8 6.4 0 2.3-.4 4.4-.7 6.5-.4 2.1-.7 4.2-.8 6.5 0 1.4-.2 2.8-.3 4.1-.2 3.1-.5 6 0 9.2l.1.7c.3 1.9.6 3.6.5 5.5-.1 2.7-.6 5.4-1 8-.5 3.1-1.1 6.4-1.1 9.6 0 2 .6 3.5 1.1 5 .3.8.6 1.7.8 2.5.3 1.2 0 2.8-.2 4.3-.1 1.1-.3 2.3-.3 3.3.1 2.6.3 5.3.5 7.6.3 3.8-.4 7.6-1.1 11.4-.3 1.4-.5 2.9-.8 4.3-2.4.2-5.7-1.2-7.2-2.9s-1-2.3-.1-3.5c.7-.8 1.5-1.9 1.6-3.5.1-1.5-.8-3-1.6-4.4-.7-1.1-1.3-2.2-1.5-3.3-.3-1.9.2-3.6.7-5.4.2-.7.4-1.4.6-2.2 1.2-5.2.1-9.3-1.1-14.1l-.3-1.1c-1-4-1.1-8.7-1.2-12.8V-.1c.1-4 .3-8 .6-11.9.1-1.3.2-2.6.2-3.9.2-3.6-.4-7.1-1-10.5-.3-1.6-.6-3.2-.8-4.9-.3-2.3-.7-4.7-1-6.9-.4-2.6-.9-5.3-1.2-8-.2-1.7-.1-3.5 0-5.2.1-2.2.3-4.5-.2-6.7-.1-.7-.5-1.4-.8-2.1-.4-1-.9-1.9-.7-2.7.3-.3 2.6-2.2 3.2-2.3z"/></g><path fill="#010303" d="M-1.6 18.3C.1 11.1-1.1 4-1.7-3.1c-.6-7.7-.7-15.3-1.4-23-.6-7.1-.2-14.1-.5-21.3-.1-4.8-4.2-19.1-.4-22.2 4.6 2.6.9 16.7.6 21.2-.6 8.2-.3 14.9 1.8 22.7C.3-18.4.8-10.2 1.2-2.6c.3 7.7-2.6 15.5-2.3 22.7" opacity=".14"/><g fill="#2A5AA8"><path d="M-4.1 27.7c-.2-2.8-1.6-6.1 2-6.8 2.4-.5 6.3.9 7.1 2.8 1.9 4.5-1 11.6-1.3 16.2-.2 2.5 0 5.8-1.6 7.8-.9 1.1-3.5 1.9-4.7 1.3-2.2-1-.7-1.8-.9-3.5-.2-1.6-1.1-3.1-1.3-4.9-.6-4.2 1.1-8.6.7-12.9z"/><path d="M-1 20.2c-.4 0-.8 0-1.1.1-3.5.7-3.1 3.5-2.7 5.8.1.5.2 1.1.2 1.6.2 2-.1 4.1-.4 6.1-.3 2.3-.6 4.6-.4 7 .1 1 .4 1.8.7 2.7.3.8.5 1.5.6 2.2.1.4-.1.8-.2 1.2-.3 1-.4 2 1.4 2.8 1.5.7 4.4-.2 5.5-1.5 1.5-1.8 1.6-4.4 1.7-6.6 0-.5 0-1 .1-1.5.1-1.4.5-3.1.9-4.9.7-4 1.7-8.5.3-11.8-.8-1.9-4.1-3.2-6.6-3.2zm-.6 28.4c-.3 0-.6 0-.8-.1-1-.4-1-.6-.7-1.3.1-.4.3-1 .2-1.7-.1-.9-.4-1.7-.7-2.5-.3-.8-.5-1.6-.7-2.4-.3-2.2 0-4.4.4-6.6.3-2.1.6-4.2.4-6.4 0-.6-.1-1.1-.2-1.7-.4-2.6-.5-4 1.8-4.4.3-.1.6-.1.9-.1 2.2 0 5 1.2 5.5 2.5 1.2 2.9.3 7.1-.5 10.9-.4 1.8-.8 3.5-.9 5 0 .5-.1 1-.1 1.6-.1 2.1-.2 4.4-1.4 5.9-.5.7-2.1 1.3-3.2 1.3z"/></g><path fill="#FFF" d="M-1.2 21c1.2 3.7.6 8.4-.5 12-1.6 4.9-.7 8.2-1.3 13.3.7-3.6 0-7.3.5-10.8.7-4.4 3.4-7.1 2.2-12.1M2 22c2.4 3.3-1 8.4-1.4 12.1C.3 36.9-1.2 44.8.4 46c1.4-3.4.4-7.4.6-11 .3-4.2 1.6-8.3 1.4-12.5" opacity=".44"/></symbol><path fill="#E8D0BA" d="M25.2 32.8h61.3v84.1H25.2z"/><path fill="#F9AC5F" d="M86.7 117.1H25V32.6h61.7v84.5zm-61.3-.4h60.8V33H25.4v83.7z"/><path fill="#DABBA6" d="M30.8 101.5V35.4h52.3l-1.3 43.3 1.3 22.9z"/><path fill="#F9AC5F" d="M83.3 101.9l-52.7-.2V35.2h52.7L82 78.7l1.3 23.2zm-52.3-.6l51.9.2-1.3-22.7 1.3-43.2H31v65.7z"/><path fill="#E5CAB7" d="M30.8 101.5l-5.6 2.2V32.8l5.6 2.6z"/><path fill="#F9AC5F" d="M25 104.1V32.5l6 2.8v66.4l-6 2.4zm.4-71v70.3l5.2-2.1V35.5l-5.2-2.4z"/><path fill="#E5CAB7" d="M81 35.4l5.5-2.6v70.9l-5.8-2.2z"/><path fill="#F9AC5F" d="M86.7 104l-6.2-2.4.3-66.4 5.9-2.8V104zm-5.8-2.7l5.4 2.1V33.1l-5 2.4-.4 65.8z"/><path fill="#E8D0BA" d="M86.6 32.8h4.3v84.6h-4.3z"/><path fill="#F9AC5F" d="M91.1 117.6h-4.8v-85h4.8v85zm-4.3-.4h3.9V33h-3.9v84.2z"/><path fill="#DDCBBF" d="M19.7.2h71.2v32.6H19.7z"/><path fill="#DDCBBF" d="M91.1 33H19.5V0h71.6v33zm-71.2-.4h70.8V.4H19.9v32.2z"/><path fill="#ECDAC5" d="M22.7 3h64.8v27.7H22.7z"/><path fill="#F9AC5F" d="M87.7 31H22.5V2.8h65.2V31zm-64.8-.4h64.4V3.2H22.9v27.4z"/><path fill="#E8D0BA" d="M19.9 30.9H25v86h-5.1z"/><path fill="#F9AC5F" d="M25.2 117.1h-5.6V30.7h5.6v86.4zm-5.1-.4h4.7V31.1h-4.7v85.6z"/><circle cx="56.7" cy="16" r="1.3" fill="#F37A20"/><circle cx="51.7" cy="16" r="1.3" fill="#F37A20"/><g fill="#CCC9C9"><path d="M22.7 13.2c0 .2-.2.4-.4.4s-.4-.2-.4-.4V8.5c0-.2.2-.4.4-.4s.4.2.4.4v4.7z"/><path d="M22.3 13.9c-.4 0-.7-.3-.7-.7V8.5c0-.4.3-.7.7-.7.4 0 .7.3.7.7v4.7c0 .4-.3.7-.7.7zm0-5.5c-.1 0-.1 0-.1.1v4.7c0 .1.2.1.2 0V8.5s0-.1-.1-.1z"/></g><path fill="#483413" d="M22.7 10.9h-.8v-.6h.8v.6z"/><ellipse cx="26.5" cy="40.2" fill="#F37A20" rx="1.3" ry="1.7"/><ellipse cx="84.7" cy="40.2" fill="#F37A20" rx="1.3" ry="1.7"/><path fill="#C9A18F" d="M84.8 40.2c0-.5-.4-.9-.8-.9H26.9c-.5 0-.8.4-.8.9s.4.9.8.9H84c.4-.1.8-.5.8-.9z"/><path fill="#C9A18F" d="M84 41.2H26.9c-.6 0-1.1-.5-1.1-1.1 0-.6.5-1.1 1.1-1.1H84c.6 0 1.1.5 1.1 1.1-.1.7-.6 1.1-1.1 1.1zm-57.1-1.7c-.4 0-.6.3-.6.7 0 .4.3.7.6.7H84c.4 0 .6-.3.6-.7 0-.4-.3-.7-.6-.7H26.9z"/><path fill="#ECDAC5" d="M48.7 80.9l8-2.3 25.1.1 4.7 2.2z"/><path fill="#F9AC5F" d="M86.5 81.1H48.7l-.1-.4 8-2.3 25.2.1 4.7 2.1v.5zm-36.3-.4h35.3L81.7 79l-25-.1-6.5 1.8z"/><path fill="#ECDAC5" d="M86.5 116.9l22.5 7.7V21.7l-22.5 9.2z"/><path fill="#F9AC5F" d="M109.2 124.9l-23-7.9V30.8l23-9.4v103.5zm-22.5-8.2l22.1 7.6V22l-22.1 9.1v85.6z"/><path fill="#E8D0BA" d="M111.1 21.7v101.1l-2.1 1.8V21.7z"/><path fill="#F9AC5F" d="M108.8 125.1V21.5h2.5v101.4l-2.5 2.2zm.4-103.2v102.2l1.7-1.4V21.9h-1.7z"/><path fill="#ECDAC5" d="M22.7 32.4l.2 84-22.7 8.2V21.7z"/><path fill="#F9AC5F" d="M0 124.9V21.4l22.9 10.9.2 84.3L0 124.9zM.4 22v102.3l22.3-8-.2-83.8L.4 22z"/><path fill="#ECDAC5" d="M54.1 3.3v27.5"/><path fill="#F9AC5F" d="M54.2 30.8H54V3.3h.2v27.5z"/><use width="75.3" height="25.4" x="-37.7" y="-12.7" overflow="visible" transform="matrix(.4484 0 0 -.4484 68.12 87.64)" xlink:href="#c"/><path fill="#ECDAC5" d="M51.6 93.1v10.8l33.4.2V93.3z"/><path fill="#F9AC5F" d="M85.2 104.3l-33.8-.2V92.9l33.8.2v11.2zm-33.4-.6l32.9.2V93.5l-32.9-.2v10.4z"/><path fill="#F37A20" d="M64.4 98.8c-.1-.5.3-.7-.5-.8-.4 0-.9.1-.9.6 0 .3.2.3.4.4 0 0 .2 0 .3.1l.1.3c.3.4.5.5 1.1.6 1.6.2 3.5.4 5.1-.1.2-.1.4-.1.5-.3.1-.2-.1-.5.1-.7.2-.3 1.2-.1 1-.7-.1-.4-1-.4-1.2-.2-.4.3-.3 1-.9 1.3-1.3.7-3.4.5-4.8.1 0-.1-.3-.4-.2-.5"/><path fill="#ECDAC5" d="M51.6 103.8v10.8l33.4.2V104z"/><path fill="#F9AC5F" d="M85.2 115l-33.8-.2v-11.2l33.8.2V115zm-33.4-.6l32.9.1v-10.4l-32.9-.1v10.4z"/><path fill="#F37A20" d="M65.2 109.4c-.1-.5.3-.7-.5-.8-.4 0-.9.1-.9.6 0 .3.2.3.4.5 0 0 .2 0 .3.1l.1.3c.3.4.5.5 1.1.6 1.6.2 3.5.4 5.1-.1.2-.1.4-.1.5-.3.1-.2-.1-.5.1-.7.2-.3 1.2-.1 1-.7-.1-.4-1-.4-1.2-.2-.4.3-.3 1-.9 1.3-1.3.7-3.4.5-4.8.1 0-.1-.3-.4-.2-.5"/><path fill="#ECDAC5" d="M48.7 80.9h37.8v1.5H48.7z"/><path fill="#F9AC5F" d="M86.7 82.6H48.5v-1.9h38.2v1.9zm-37.8-.5h37.4V81H48.9v1.1z"/><use width="35.8" height="174.6" x="-17.9" y="-87.3" overflow="visible" transform="matrix(.4484 0 0 -.4484 96.454 78.824)" xlink:href="#d"/><path fill="#ECD1B6" d="M52.3 90.4c2.9-.1 5.6 1.1 8.4 1.2 2.8.1 5.8.2 8.6 0 2.9-.3 6.2-1 8.8-2.5 1.7-1 2.8-2.3 3.6-4.1.7-1.6.1-2.3 2.2-2.3 1.3-.3.5 3.3.5 5 0 2 0 3.2-.3 5.2H66.5c-3 0-6-.1-9-.2-2.1-.1-5.4.3-5.2-2.3m0 10.8c2.9-.1 5.6 1.1 8.4 1.2 2.8.1 5.8.2 8.6 0 2.9-.3 6.2-1 8.8-2.5 1.7-1 2.8-2.3 3.6-4.1.7-1.6.1-2.3 2.2-2.2 1.3-.3.5 3.3.5 5 0 2 .2 3 0 5.2h-18c-3 0-6-.1-9-.2-2-.2-5.3.2-5.1-2.4m0 10.7c2.9-.1 5.6 1.1 8.4 1.2 2.8.1 5.8.2 8.6 0 2.9-.3 6.2-1 8.8-2.5 1.7-1 2.8-2.3 3.6-4.1.7-1.6.1-2.3 2.2-2.3 1.3-.3.5 3.3.5 5 0 2 0 3.2-.3 5.2H66.5c-3 0-6-.1-9-.2-2.1-.1-5.4.3-5.2-2.3"/><path fill="#DABBA6" d="M22.7 114.8h63.8v2.1H22.7z"/><path fill="#F9AC5F" d="M86.7 117.1H22.5v-2.5h64.2v2.5zm-63.8-.4h63.4V115H22.9v1.7z"/><path fill="#DABBA6" d="M30.9 101.4v8.8l17.5.5v-9.1z"/><path fill="#F9AC5F" d="M48.6 110.9l-18-.5v-9.2l18 .2v9.5zm-17.5-.9l17.2.5v-8.7l-17.1-.2v8.4h-.1z"/><path fill="#ECDAC5" d="M25.2 103.7h26.5v1.5H25.2z"/><path fill="#F9AC5F" d="M51.9 105.4H25v-1.9h26.9v1.9zm-26.5-.4h26.1v-1H25.4v1z"/><path fill="#ECDAC5" d="M25.2 103.7l5.6-2.2 17.6.1 3.3 2.1z"/><path fill="#F9AC5F" d="M52.4 104H25.2l-.1-.4 5.6-2.3 17.7.1 4 2.6zm-26.1-.5H51l-2.7-1.7-17.5-.1-4.5 1.8z"/><use width="16" height="18.7" x="-8" y="-9.3" overflow="visible" transform="matrix(.4484 0 0 -.4484 47.554 110.38)" xlink:href="#e"/><use width="21.3" height="6.7" x="-10.7" y="-3.4" overflow="visible" transform="matrix(.4484 0 0 -.4484 30.967 112.513)" xlink:href="#f"/><use width="17.8" height="9.3" x="-8.9" y="-4.7" overflow="visible" transform="matrix(.4484 0 0 -.4484 39.75 112.237)" xlink:href="#g"/><path fill="#ECD1B6" d="M56.3 23.5c6.8.2 14.6-1 20-5.2 2.8-2.1 6.3-5.1 7.5-8.5.7-2.1-.4-9.4 4.4-6-2.5 7.9-4.4 17.3-3 25.6-10.2 1.7-20.3-2.5-30.8.6-1.1-2.1-.4-4.8.5-6.9m-5.1-.1c-5.4.2-11.6 1.5-15.9-2.3-2.2-2-5-7.1-6-10.3-.6-1.9.3-8.6-3.5-5.5 2 7.2 1.4 15.9.3 23.5 8.1 1.5 18 1.2 26.6 1.2.8-1.9.7-4 0-6M2.5 113.1c-.1 6 .6 7.4 6.6 6.1 4-.8 10.9-2 12.2-6.1 1-3.2-1-8.9-1-12.3 0-4.6-.1-8.9.1-13.5 1.2-21.4-.6-30.2-1.3-52.9-5.9 4-4.5 34.3-3.6 40.7 1.8 12.4 6.9 38.4-12.1 39.4"/><path fill="#262A69" stroke="#262A69" d="M54.5 70.2s-3.3 3.5-3.5 5.6c-.1 2.1.2 1.9.5 2.2.3.4.9.9 2.5 1 1.6.1 8.4 0 8.4 0s1.4 0 2.2-1c.7-1 .5-1.7.5-1.8 0-.1-.8-2.9-2.2-4.5l-1.4-1.6s-.6.3-1.3.4c-.7.1-1.7.3-2.1.3-.4 0-2.2-.4-2.5-.5-.3 0-1.1-.1-1.1-.1z"/><path fill="#262A69" stroke="#262A69" d="M54.8 70.1s-.2-3.4 3.3-3.6c2.9-.2 3.2 3.5 3.2 3.5v.1h.4s.1-4-3.5-4c-4.1 0-3.8 4-3.7 4 0 .1.3 0 .3 0z"/><path fill="#FFCF07" stroke="#D49929" d="M57.4 70.8v2.5l.6.7v.2l-.2.2-.9-1v-2.7zm1.4 0v2.5l-.6.6.2.5.9-.9v-2.8zm-7.6 4.3s-.2 1.1-.2 1.7c.1.6.3 1.4 1.2 1.7.9.3 1.3.4 1.5.4.1 0-.9-.6-1.3-1.9l-.8-2.8-.4.9zm12 3.8s1.3-.3 1.6-1.1c.4-.8.5-1.4.3-1.9s-.5-1.4-.5-1.4l-.4-.9s.3 1.6 0 2.8c-.3 1.2-1.3 2.6-1.3 2.6l.3-.1z"/><linearGradient id="h" x1="10.355" x2="12.332" y1="34.922" y2="34.922" gradientUnits="userSpaceOnUse"><stop offset="0" stop-color="#6d6e70"/><stop offset="1" stop-color="#a6a8ab"/></linearGradient><path fill="url(#h)" stroke="#ADAAAA" stroke-width=".75" d="M10.6 34.8h-.3s0-.5.3-1 .6-.5.9-.5c.3.1.8.3.8.7v2.4h-.2l-.1-2.3s.1-.3-.3-.5c-.3-.1-.8-.5-.9.1-.1.8-.2 1.1-.2 1.1z"/><path fill="none" stroke="#A09D9C" stroke-width="3" d="M12.2 36v2.1"/><path fill="none" stroke="#A09D9C" stroke-width=".75" d="M11.6 38.2L1.7 45h20.5s.2.1.1.3"/><path fill="#A09D9C" stroke="#A09D9C" d="M2.5 44.1s0 .1.1.1 8.6-5.8 8.6-5.8l-.1-.3-8.6 6zm10.8-5.7l-.1.3 7.6 5.3.2-.2z"/><linearGradient id="i" x1="11.479" x2="12.805" y1="37.832" y2="37.832" gradientUnits="userSpaceOnUse"><stop offset="0" stop-color="#808184"/><stop offset="1" stop-color="#58595b"/></linearGradient><ellipse cx="12.1" cy="37.8" fill="url(#i)" rx=".7" ry=".8"/><path fill="#A09D9C" stroke="#A09D9C" d="M6.8 44.8v.5h9.8v-.5zm5.9-6.6l9.6 6.7"/><linearGradient id="j" x1="10.494" x2="12.472" y1="34.864" y2="34.864" gradientUnits="userSpaceOnUse"><stop offset="0" stop-color="#6d6e70"/><stop offset="1" stop-color="#a6a8ab"/></linearGradient><path fill="url(#j)" stroke="#ADAAAA" stroke-width=".75" d="M10.8 34.8h-.3s0-.5.3-1 .6-.5.9-.5c.3.1.8.3.8.7v2.4h-.2l-.1-2.3s.1-.3-.3-.5c-.3-.1-.8-.5-.9.1-.2.7-.2 1.1-.2 1.1z"/><path fill="none" stroke="#A09D9C" stroke-width="3" d="M12.3 35.9V38"/><path fill="none" stroke="#A09D9C" stroke-width=".75" d="M11.7 38.2L1.8 45h20.5s.2.1.1.3"/><path fill="#A09D9C" stroke="#A09D9C" d="M2.6 44.1s0 .1.1.1 8.6-5.8 8.6-5.8l-.1-.3-8.6 6zm10.9-5.7l-.2.2L21 44l.1-.2z"/><linearGradient id="k" x1="11.618" x2="12.945" y1="37.775" y2="37.775" gradientUnits="userSpaceOnUse"><stop offset="0" stop-color="#808184"/><stop offset="1" stop-color="#58595b"/></linearGradient><ellipse cx="12.3" cy="37.8" fill="url(#k)" rx=".7" ry=".8"/><path fill="#A09D9C" stroke="#A09D9C" d="M7 44.7v.5h9.7v-.5zm5.8-6.5l9.6 6.7"/><use width="47.6" height="27.5" x="-23.8" y="-13.8" overflow="visible" transform="matrix(.4484 0 0 -.4484 12.02 39.334)" xlink:href="#l"/><circle cx="11.2" cy="34" r=".6" fill="#F37A20"/><use width="19.2" height="57.9" x="-9.6" y="-29" overflow="visible" transform="matrix(.4484 0 0 -.4484 78.104 51.413)" xlink:href="#m"/><use width="26.3" height="142.7" x="-13.1" y="-71.3" overflow="visible" transform="matrix(.4484 0 0 -.4484 31.274 70.683)" xlink:href="#n"/><g fill="#9F9C9B"><path d="M37.1 42.3v3.5l1.4-.6v-3.3z"/><path d="M36.9 46.2v-4.1l1.9-.5v3.8l-1.9.8zm.5-3.7v2.9l.8-.3v-2.7l-.8.1z"/></g><g fill="#D1CFCF"><path d="M37.5 38.8h.7V42h-.7z"/><path d="M38.4 42.2h-1.2v-3.7h1.2v3.7zm-.6-.5h.1v-2.6h-.1v2.6z"/></g><path fill="#B61F6F" d="M34.5 81.1c-.1.7 2.9 1 4 1.2.8.1 1.7.4 2.6.2.9-.3.9-1 1.6-1.3.9-.5 1.1-.3 1.2-1.2.1-.5 0-1 0-1.4 0-1.1-.7-2.3-.9-3.4-.2-1.2-1.5-2.3-1.5-3.5-.1-1.3-.6-2.5-.7-3.8-.1-1.4-.4-2.5-.1-3.9.1-.6.3-1.2.3-1.8-.1-1.7-.9-3.4-1-5.2 0-.9.6-1.4.9-2.2.2-.6-.2-1.6-.2-2.2 0-.7.1-1.5.2-2.2.2-1.6-.5-3.2-.9-4.8-1.2-.1-2.9.3-3.7.9-1.4 1 .5 1.1.6 2.2.1.7-1.2 1.5-1.4 2.2-.2.8.3 1.5.6 2.3.5 1.6 0 2.8-.6 4.4-.5 1.4-.5 3-.6 4.4-.1 1.5.2 3.1.3 4.6.1 1.5-.5 3-.8 4.5-.3 1.5-.7 2.9-1 4.4-.2 1.1.3 2.3-.1 3.5-.2.5-.8 1-.6 1.5.1 0 1.8.9 1.8.6z"/><path fill="#A3216B" d="M40.3 82.9c-.5 0-1-.1-1.4-.2-.1 0-.3-.1-.4-.1-.2 0-.4-.1-.7-.1-1.6-.2-3-.5-3.4-1-.5-.1-1.7-.7-1.8-1-.2-.4.1-.8.4-1.2.1-.2.2-.3.3-.5.2-.6.1-1.2.1-1.8 0-.5-.1-1.1 0-1.6.1-.8.3-1.6.5-2.4.2-.7.3-1.3.5-2 .1-.5.2-1 .4-1.5.3-1 .5-2 .5-2.9 0-.4-.1-.7-.1-1.1-.1-1.2-.2-2.4-.2-3.5v-.6c0-1.3.1-2.7.6-3.9l.1-.3c.5-1.4.9-2.5.5-3.9-.1-.2-.2-.4-.2-.6-.2-.6-.5-1.2-.3-1.9.1-.4.4-.8.8-1.2.3-.3.6-.7.6-1 0-.3-.3-.5-.6-.7-.3-.2-.6-.5-.6-.8 0-.3.2-.6.6-.9.8-.6 2.6-1.1 3.9-.9h.2v.2c.1.5.2.9.4 1.4.3 1.1.7 2.3.5 3.5-.1.7-.2 1.4-.2 2.2 0 .2.1.5.1.9.1.5.2 1 .1 1.5-.1.3-.3.6-.4.8-.2.4-.5.8-.4 1.2 0 .9.3 1.8.5 2.7.2.8.4 1.6.5 2.4 0 .6-.1 1.2-.2 1.7v.2c-.2.9-.1 1.7 0 2.6 0 .4.1.8.1 1.2 0 .6.2 1.2.3 1.8.2.6.3 1.3.4 2 0 .6.4 1.1.7 1.7.3.6.7 1.1.8 1.8.1.5.2.9.4 1.5.2.7.5 1.3.5 2v1.5c-.1.8-.4.9-.8 1.1-.1.1-.3.1-.6.3-.2.1-.4.3-.5.5-.2.3-.5.6-1.1.8-.8.1-1.1.1-1.4.1zm-.7-37.1c-1 0-2.4.4-3.1.9-.4.3-.4.4-.4.4 0 .1.2.3.4.4.3.3.7.6.8 1.1.1.5-.4 1-.8 1.4-.3.3-.6.6-.6.9-.1.5.1 1 .3 1.5l.3.6c.5 1.6.1 2.8-.5 4.2l-.1.3c-.4 1.1-.5 2.5-.5 3.7v.6c0 1.1.1 2.3.2 3.4 0 .4.1.8.1 1.1.1 1.1-.2 2.1-.5 3.1-.1.5-.3.9-.3 1.4-.1.7-.3 1.4-.5 2-.2.8-.4 1.6-.5 2.3-.1.5 0 1 0 1.5.1.7.1 1.3-.1 2-.1.2-.2.4-.4.6-.2.2-.3.5-.3.6.1.1 1.2.7 1.4.7l-.2.2.5.1c.1.4 2.3.7 3 .8.3 0 .6.1.8.1.1 0 .3.1.4.1.7.1 1.4.3 2 .1.5-.1.6-.4.8-.6.2-.2.4-.5.7-.7.3-.1.5-.2.6-.3.4-.2.4-.2.5-.7v-1.4c0-.6-.2-1.2-.4-1.8-.2-.5-.4-1-.4-1.6-.1-.5-.4-1-.7-1.6-.4-.6-.8-1.2-.8-1.9 0-.6-.2-1.3-.3-1.9-.2-.6-.3-1.3-.4-1.9 0-.4-.1-.8-.1-1.2-.1-.9-.2-1.8 0-2.8v-.2c.1-.5.2-1 .2-1.5-.1-.8-.3-1.6-.5-2.3-.2-.6-.5-1.5-.5-2.5 0-.6.3-1.1.5-1.5.1-.2.3-.5.4-.7.1-.3 0-.7-.1-1.2-.1-.3-.1-.7-.1-1 0-.8.1-1.6.2-2.3.1-1.1-.2-2.1-.5-3.3l-.3-1.2h-.2z"/><g fill="#A8216C"><path d="M37.3 52c-.2 2.6-2.7 6.3-2.1 8.6 3.1.2 2.8-1.5 3.5-4 .5-1.8 2.3-5.6-.9-6 0 .4-.4.9-.5 1.4"/><path d="M35.8 60.9H35v-.2c-.4-1.4.4-3.3 1-5 .5-1.3 1-2.6 1.1-3.6 0-.3.1-.5.3-.7.1-.2.2-.5.3-.7v-.3h.3c.8.1 1.4.4 1.8 1 .7 1.2.1 3.1-.4 4.5-.1.3-.2.6-.3.8-.1.5-.2.9-.3 1.4-.5 1.5-.8 2.8-3 2.8zm-.4-.6c2.1.1 2.3-.7 2.7-2.5.1-.4.2-.9.3-1.4.1-.3.2-.5.3-.9.4-1.3 1-3.1.4-4.1-.2-.3-.6-.6-1.1-.7l-.3.6c-.1.2-.2.4-.2.5-.1 1.1-.6 2.5-1.1 3.8-.5 1.8-1.2 3.5-1 4.7z"/></g><g fill="#811C58"><path d="M34.9 59.1s1.6.5 2 .6c.4.1 1 .2 1.1.2.1 0-.4.8-.4.8s-.1.2-1.7 0c-.6-.1-1.2-.8-1.2-.8l.2-.8z"/><path d="M36.9 61c-.3 0-.7 0-1.2-.1-.6-.1-1.3-.8-1.4-.9l-.1-.1.6-1.1.2.1s1.6.5 2 .6c.2.1.6.1.8.2h.3v.1c0 .1.1.2-.4 1 0 .2-.3.2-.8.2zm-2-1.2c.3.3.7.6.9.6.8.1 1.4.1 1.5.1.1-.1.1-.2.2-.3-.2 0-.5-.1-.7-.2-.3-.1-1.3-.4-1.7-.5l-.2.3z"/></g><circle cx="36.2" cy="60.2" r=".3" fill="#6D1244"/><use width="17.2" height="130.1" x="-8.6" y="-65.1" overflow="visible" transform="matrix(.4484 0 0 -.4484 46.187 67.6)" xlink:href="#o"/><use width="20" height="56.3" x="-10" y="-28.2" overflow="visible" transform="matrix(.4484 0 0 -.4484 61.685 51.337)" xlink:href="#p"/><use width="37.6" height="25.5" x="-18.8" y="-12.7" overflow="visible" transform="matrix(.4484 0 0 -.4484 75.14 74.478)" xlink:href="#q"/><use width="18" height="59" x="-9" y="-29.5" overflow="visible" transform="matrix(.4484 0 0 -.4484 53.512 51.402)" xlink:href="#r"/><use width="12.3" height="69.8" x="-6.2" y="-34.9" overflow="visible" transform="matrix(.4484 0 0 -.4484 69.808 53.545)" xlink:href="#s"/></g></switch></svg>
