<svg xmlns="http://www.w3.org/2000/svg" version="1.0" viewBox="0 0 19.9 20.9"><switch><g><path fill="#366732" d="M9.6 9.6c0 .5 0 .9-.1 1.3-.3 0-.6.1-.9 0-.4.9.4 1.4.5 2.2.1.9-.3 1.8-.5 2.7-.5 1.6-1.2 3.7-2.5 4.8 1 .9 2.4-3 2.7-3.7.6-1.4.6-3.7 2-4.6-1-.2-.7-1.9-.4-2.6h-.5"/><linearGradient id="a" x1="10.077" x2="13.15" y1="4.625" y2="25.424" gradientUnits="userSpaceOnUse"><stop offset="0" stop-color="#98cb67"/><stop offset="1" stop-color="#346734"/></linearGradient><path fill="url(#a)" stroke="#146734" stroke-width=".25" d="M9.1 9.5C7.3 7.9 4.7 6.7 5 3.8c.1-1.2 1-2.6 2-3.1C7.4.5 8.2.2 8.6.3c.7.1.8.5 1.2 1C9-.5 12.4.1 13.1.4c1.6.6 1.9 2.4 1.7 4-.1 1.4-.7 3.1-1.6 4.1-.6.7-3.1 2.5-3.7 1.5l-.4-.5z"/><linearGradient id="b" x1="2.066" x2="22.969" y1="11.442" y2="10.724" gradientUnits="userSpaceOnUse"><stop offset="0" stop-color="#98cb67"/><stop offset="1" stop-color="#346734"/></linearGradient><path fill="url(#b)" stroke="#146734" stroke-width=".25" d="M9.1 10.8C8.6 9 4.5 7 2.9 6.8 1.7 6.7.8 7.3.3 8.6c-.3.9-.6 3.1.6 3.3-1 .1-.4 2.6 0 3.2.8 1.1 2.5 1 3.6.8 2.6-.4 4.8-1.6 5-4.5l-.4-.6z"/><linearGradient id="c" x1="17.862" x2="-3.76" y1="13.494" y2="8.165" gradientUnits="userSpaceOnUse"><stop offset="0" stop-color="#98cb67"/><stop offset="1" stop-color="#346734"/></linearGradient><path fill="url(#c)" stroke="#146734" stroke-width=".25" d="M10.4 11.6c-.2-1.7 5.2-3.3 6.6-3.2 1.4.1 2.2.9 2.7 2.3.5 1.5.1 2.4-1.1 3.2 1.5.6.4 2.2-.3 3-1 1.1-2.1 1.4-3.5.8-1.2-.5-2.6-1.1-3.5-2-1.1-1.2-.8-1.6-1.3-2.9l.4-1.2z"/><path fill="none" stroke="#359846" stroke-width=".25" d="M9.9 10.3c1.1-3 .3-6-.1-9m-.4 10.5c-.5.3-1.4-.2-1.9-.3-.8-.1-1.6-.1-2.4-.1-1.6-.1-2.8 0-4.2.6m8.9.9c.7-1.1 3.5-1 4.6-.8.7.1 1.6.3 2.3.5.7.2 1.2 1 1.8 1"/><path fill="#A6D38B" d="M7.8 8.2c.9-.2.3-1.1.3-1.7.3-.3.8-.5 1.1-.7.4-.3.4-.8 1-.9 0-.3-.1-.5-.3-.7-.5.1-.7.5-1.1.6-.6.2-1-.1-1.5.3-1 .7.5 1.8-.4 2.6m3.5-3c.8.5 1 .9 1.6 1.5.3.3.7.4 1 .7.2.3.4.7.6 1 .3-.6.8-1.2.5-1.9-.7-.1-1.4-1.3-1.9-1.8-.9-.8-.8-.4-1.9-.2M6 8.1c-.6.4-1.4.5-1.9 1-.5.6-.7 1.6-.8 2.3.3.1.6 0 .9-.2.3-1.8 1.6-1.4 2.5-2.5"/><path fill="#A6D38B" d="M6.9 15.1c-1-.1-3-4.2-3.6-3.6-.2.2.6 1.7.7 2.1.2.7.2 1.9.8 2.2m8.7-6.5c.6.1 1.4.7 1.7 1.4.3.7.2 1.6 1.1 1.7-.7-1-.5-2.8-1.5-3.6m-2.9 7.3c.4.1.9.2 1.4-.1.5-.4.4-1.2.8-1.5.6-.5 1.2.2 1.5-.7.1-.4-.3-1.5.3-1.2.8.4.5 2.3-.1 2.8-.4.3-.9.4-1.3.8-.3.3-.4 1-.9.8"/></g></switch></svg>
