<svg xmlns="http://www.w3.org/2000/svg" version="1.0" viewBox="0 0 136 94.3"><switch><g><path fill="#E1222B" stroke="#C8202E" stroke-width=".435" d="M72.7 77.9l-2-3.6-.9-7.7s.1-22.6 0-24.6 0-12.5 0-13.4c0-.9.8-6.4 1.3-7.7.5-1.2.9-2.1.8-2.7-.1-.5-.5-2-.5-2l1.2-3.5s35.3.3 35.9.3c.5 0 1.5 2.6 1.5 2.6s1.5 3.1 1.6 3.9c.1.8.8 5.2.7 5.6-.1.4 0 8.3.1 10.3s.4 4.8.4 6.9c0 2 .1 7 0 8.7-.1 1.7-.3 5.1-.3 6.9 0 1.7.1 7.3-.1 8.6-.3 1.3-.7 5.5-.8 6.9-.1 1.3-.5 3.4-.9 3.6-.4.3-2.3.9-2.3.9s-6.2.3-8.9.3-9.9.3-13.2 0c-3.2-.3-9 .4-9.9.1-1-.3-3.7-.4-3.7-.4z"/><path fill="#347445" d="M71.9 51.3L107 51l.5-38s-22.6-.4-23.1-.4-12.8.1-12.8.1l-1.2 3.5.5 3s.1 3 .1 3.5.5 11.2.4 12.6c-.1 1.5-.4 7.4 0 8.2.4.8.4 5.2.4 5.2v2.6z"/><path fill="#408E53" d="M72.9 17.6s3.7 1 4.9.8c1.1-.2 3.9-1.1 4.4-1.1.5 0 1.6 1.6 1.6 1.6l.8-1.5-1.6-2.2-4.9.6-3.1.3-1.3-.6-.8 2.1zm10.6-2.3l2.6 1.5s7 1.5 7.9 1.3c1-.2 4.7-.6 5.7-.6s4.5-.5 4.5-.5l2.8-1s-7.9-1-9.4-.8c-1.5.1-3.6-.2-4.5-.2-1 0-2.8-.3-4.1 0-1.3.3-3.4.3-3.4.3h-2.1z"/><path fill="#71172E" stroke="#5D0B15" stroke-width=".315" d="M78 22.3V47h24.4V22.4z"/><ellipse cx="40.8" cy="84.6" fill="#C92027" stroke="#C92027" stroke-width=".403" rx="33" ry="9.7"/><ellipse cx="41" cy="83" fill="#E1222B" stroke="#C8202E" stroke-width=".403" rx="32.8" ry="9.7"/><ellipse cx="41.4" cy="83" fill="#EF4265" stroke="#EF4265" stroke-width=".435" rx="21" ry="5"/><path fill="#E1222B" stroke="#C8202E" stroke-width=".435" d="M11.9 60.6c-.2-.4 2.2-4.4 7.9-5.9s12.7-2.8 18.9-2.6c6.2.2 13.8.6 17.7 1.6 1.7.4 4.9 1.3 7.1 2.7 2.2 1.3 4.2 3.2 4.3 4.2.2 1.8.2 5-2.2 9.2-2.4 4.3-5.7 8.2-8.8 10.1-3.1 1.9-8.4 4.8-15.1 4.1-6.7-.7-10.8-1-15-3.1-4.1-2.1-6.9-3.3-8.8-6.4-1.9-3.1-4.4-6-4.7-7.2-.3-1.2-1.4-1.7-1.4-1.7s2.4-.8 0-1.2c-2.4-.4-7.2-1.2-8.5-.7-1.2.5-3.3 2.7-3.3 2.7s.7-2.6 1.5-3.6c.9-1 4.8-2.1 6-2.1h4.4z"/><ellipse cx="39.4" cy="61.8" fill="#EF4265" stroke="#EF4265" stroke-width=".435" rx="26.1" ry="8" transform="matrix(.9998 -.01822 .01822 .9998 -1.12 .728)"/><path fill="#664219" stroke="#5D0B15" stroke-width=".595" d="M66.1 62.4c0 3.7-13 7.9-27.2 7.8-14.2-.1-25.7-3.2-25.7-6.8 0-3.7 11.6-6.6 25.8-6.5 14.3.1 27.2 1.8 27.1 5.5z"/><path fill="#EF4265" stroke="#EF4265" stroke-width=".435" d="M5.2 64.8s-2.6.2-2.8.3c-.1.2-.7 1.9 1.4 3.5 2.1 1.6 3.3 2.2 4.1 2.2h.9l8.5 3.1-2.8-4.1s-1.3-.1-4.7-1.7c-3.4-1.6-4.4-1.5-4.8-1.8-1.2-.9.2-1.5.2-1.5z"/><path fill="#D51F34" stroke="#C8202E" stroke-width=".435" d="M56.3 80.3c0 4.8-9.9 5.1-13.1 5.3-2.4.2-4.5.1-6.9-.3-2-.4-6.3-1.2-7.2-3.2 4.6.3 8.9 2.4 13.7 1.9 2.4-.2 4.7 0 7-.9 1.8-.6 5.7-1.2 6.7-2.9m-38.7-5.8s-9-3.5-9.3-3.5c-.3 0-7.3-3.9-6.2-4.9 1.1-1 2.3-1.4 4.8-.8 2.5.6 5.8 1.5 5.8 1.5l.4-1.7s-6.2-1.6-8.5-1.2c-2.3.5-4.4 1.1-4.7 2.3-.3 1.3 1.1 2.8 2.4 3.8 1.3.9 5.1 2.7 5.7 2.8.6.1 10.2 2.6 10.2 2.6l-.6-.9z"/><path fill="#E1222B" stroke="#E1222B" stroke-width=".435" d="M13.3 63.4s5.3 8.1 28.2 6.8c22.9-1.3 24.7-6.5 24.7-7.8 0-1.1 1.6-2.8 1.6-1.8.1 2.9-1.1 10.8-26 11.4-21.9.6-28.5-5.9-28.5-5.9v-2.7z"/><g fill="#347445"><path d="M95.4 72.6s-.8.3-1.5.3-1.5.8-1.5.8 0-1.6 1.1-1.9c1.1-.3 1.9.8 1.9.8zm1.5-3.2s-.4-2.4-.8-3c-.4-.5-1.5-2-1.5-2l2.8 2.6-.5 2.4zm-2.1 4.1l1.7-.8-.5 1.7h-2.4c-.7 0-1.1-.7-1.1-.7l2.3-.2zm-14.3.6l2.6.3.4 1.1s3.2-.4 3.8-.7c.5-.3 1.9-1.2 1.9-1.2s-3.4.1-4 .1c-.8 0-4.7.4-4.7.4zm17.4-3.3s1.6-.8 2-.5c.4.3 2.2 1.5 2.2 1.5l-3-3.1s3.9 1.9 5 2c1.1.1 3.5 1.5 3.5 1.5l.4 1.6s-3.8-.3-4.7-.5l-3.6-1.2-1.8-1.3zm10.2-.8s-2.3-1.1-3.6-2.3c-1.3-1.2-2.3-5.8-3.8-6.7-1.5-.9-3.1-2.4-3.6-3-.5-.5-2-1.2-2-1.2s2.8 3.4 3.8 4.3c.9.9 2.4 3.2 2.6 3.8.1.5 2 2.6 2 3.1s2.6 2.4 3.1 2.7c.5.3 1.7.7 1.7.7l-.2-1.4z"/><path d="M108.4 66.7s-6.9-7.7-7.3-8.2c-.4-.5-4.6-3.5-5-4-.4-.5-1.2-1.1-1.2-1.1s2.6 3.2 2.6 3.6c0 .4 3.2 2.4 3.6 3 .4.5 2.8 4.8 3 5.4.1.5 3.5 3 3.5 3l.8-1.7zm-14.8-2.9s-.1-2.7-1.2-4.2c-1.1-1.6-2.7-3.5-2.9-3.7-.2-.2 1.4 3.1 1.7 4.1.3 1 1.1 2.1 1.4 2.5.2.4 1 1.3 1 1.3zm1.4 1.9s.2 1.8.4 2.2c.2.4.6 1.1.8 1.3.2.1.6.2.6.2l-.6.4s-1.3-1-1.5-1.6c-.2-.5-.3-1.4-.2-1.6.1-.3.5-.9.5-.9zm-2 2.2s.1-1.6-.4-2.2c-.4-.6-1.3-2.3-1.3-2.3s2.2 1.7 2.4 2.1c.2.4.1 2.2.1 2.2l-.4.6-.4-.4zm-1.6-3.2s-.5.2-.6.5c-.1.2.5 2.1.5 2.1l1.1 1 .6-.1s-.8-1-1-1.3c-.2-.2-.4-1.3-.4-1.6.1-.2-.2-.6-.2-.6zm0 6.6s-1 .2-1.6.3c-.5.1-1.3.1-1.6 0-.3-.1-.9-.1-.9-.1s-.2.4 0 .6c.2.2 1.9.7 1.9.7s.8.1 1.2-.1c.4-.1 1.3-.7 1.3-.7l.5-.8h-.8zM83 68.8s2.1.5 2.8.4c.8-.1 1.7-.2 1.7-.2l.9-.1s-1 1.1-1.6 1.1c-.5 0-1.7 0-2-.1-.3-.1-1.1-.1-1.2-.3 0-.2-.6-.8-.6-.8zm6-1.9s.2-1.4-.2-2.4c-.5-1-1.7-3-1.7-3s1.8 1.2 2.2 1.6c.5.5.5 2.1.5 2.4 0 .3-.4.9-.4 1.1-.1.2-.4.3-.4.3zM87.3 63s-1.2 1.3-.7 2.1 1.6 1.6 1.6 1.6-.4-1.4-.6-1.9c-.2-.4-.3-1.8-.3-1.8zm-3.5 5.4s.8-1.1 1.6-1.2c.8-.1 1.6.1 1.6.1l.7.8s-1.6-.2-2.1-.2c-.5.1-1.3.6-1.3.6l-.5-.1zm.7-2.4s-1.2 1.3-1.9 1.3c-.8.1-2.5-.5-2.9-.7-.4-.2-.8-1-.8-1s.8 0 1 .2c.2.2 1.8.4 2.1.4.2 0 1.2-.3 1.5-.3.1.1 1 .1 1 .1zm-4.4-.7s1.2-.2 1.5-.2c.3 0 1.3.1 1.3.1s.1-.7-.5-.8c-.6-.2-1.4.1-1.6.1-.2 0-1 .4-1 .4v.3l.3.1zm5.2-1.8s.1-2-.4-2.5-1.1-1.6-1.1-1.6 1.8 1.1 1.9 1.4c.1.2.4 1.6.4 1.6s-.1 1-.1 1.2c-.1.2-.2.6-.2.6l-.5-.7z"/><path d="M83.9 60.5l.4.2s.4 1.8.4 1.9c.1.2.7.8.7.8l.4.8s-1-.5-1.3-.7c-.2-.1-.9-1.1-.8-1.4.1-.3.1-1.3.1-1.3l.1-.3zm5 .1s-.1-2.7-.7-3.7c-.7-1-1.8-2.7-1.8-2.7s.5 2.3.7 2.7c.1.4 1.1 2.3 1.1 2.3l.4 1.5h.3zM76.1 71.1s5.9.5 6.5.4c.6-.1 1.9 0 1.9 0s-.5.2-.8.4c-.3.2-2.1 1-2.7.8-.5-.2-1.5-.4-1.9-.5-.4-.1-1.3-.6-1.3-.6l-1.7-.5zm5.9-8.7s.2-1.6 0-2.3c-.2-.7-.6-1.3-.7-1.6-.1-.3-.5-1.2-.5-1.2s1.3.4 1.6 1.2c.3.7.5 2 .4 2.2-.1.2-.2 1.3-.2 1.3l-.6.4zm3.4-4.5s.4-2.1.1-3.1c-.4-1-1.6-2.7-1.7-3-.1-.3-.7-.8-.7-.8s.8 3.1 1 3.9c.2.7.9 2.2.8 2.5-.1.1.5.5.5.5zm-12.1 8.4s1.9.9 2.7 1c.8.1 3.3.5 3.6.5.2-.1.7-.4.8-.1.1.3-.6.7-.6.7s-2.3.1-2.8-.1c-.5-.1-1.4-.2-1.6-.5-.2-.4-1.5-.8-1.5-.8l-.6-.7zm-1.1-2.7l.1-1s3 1.3 3.5 1.6c.5.2 1.3.7 1.3.7l-.2.4s-2.4-.4-2.7-.5c-.3-.1-1-.7-1.2-.7-.3 0-.8-.5-.8-.5zm-.1-2.5v-1s1.1 1.2 1.4 1.2c.2 0 .5.1.5.1h-1c-.1 0-.9-.3-.9-.3zm1.9-1.9s1-.3 1.3 0c.3.3.6.8 1 1.1.4.3 1.4 0 1.4 0s-1 1-1.3 1c-.3 0-1.8-.5-1.8-.5l-1.1-1 .5-.6zm3 3.5s1 .7 1.5.6c.5-.1 1.2-.4 1.2-.4l1 .3-1.1.9s-1.6.1-1.8 0c-.2-.1-1-.7-1.2-.8-.2-.1-.7-.8-.7-.8l1.1.2zm1-1l1.4.7h-2.2l-.3-.1z"/><path d="M80.3 58.6l.8-.2s-.1 1.5.1 1.8c.2.3.7 1.3.7 1.3l-.9-.1s-.7-.9-.7-1.3v-1.5zm2.1-3s-.7-2-1.2-2.9c-.4-.9-1.2-3-1.2-3l.2-.5s1.8 2.8 1.9 3.2c.2.4.4 1.5.4 1.8 0 .2.2 1.1.2 1.1l-.3.3zm-2.9-1.9s.2-1.9 0-2.5c-.2-.5-.5-1.2-.5-1.5-.1-.2-.4-.5-.6-.5-.2 0-.6.8-.5 1.2.1.3.7 1.1.7 1.5 0 .4.5 1.4.5 1.4l.4.4zm-3-.3s0-1.6-.2-2.2l-.6-1.5-.1-.7-.8.1-.4.2s.5 1.4.7 1.8c.2.4.6 1.6.6 1.6l.8.7zm-3.2.1s-.3-.7-.5-1.2-.5-.8-.5-1c0-.2-.3 1-.3 1l.4.9.9.3zM72 56.9V58s.7.4.8.1c.1-.3-.1-.7-.1-.7l-.7-.5zm3.3 1.4s-.8-.8-1-1.4c-.2-.5-.5-1.5-.5-1.6 0-.2-.2-.7-.2-.7s-.5 1.6-.4 2.2c.2.7 1 1.2 1.2 1.3.3.2.9.2.9.2zm.5-.4l.4-.2s-.1-1.5-.2-1.9c-.2-.4-1-1-1-1l-.9-.1s.9.8 1 1.3c.1.5.5 1.2.5 1.2l.2.7zm1.5-2.1s.4 1.4.4 1.6c0 .2.8 1.2.8 1.2l.1.4s-.8-.5-1.2-.8c-.4-.3-.7-1.1-.7-1.1l-.1-1.2.5-.4.2.3z"/><path d="M78.7 59.3s-.2-2-.4-2.4c-.1-.4-.6-1.3-.6-1.3l-.6-1s1.8 1.1 1.9 1.3c.2.2.4 1.7.4 2.2-.1.5-.2 1.1-.4 1.3-.1.2-.3-.1-.3-.1z"/></g><path fill="#347445" d="M78 22.3V47l-4.9-.2L75 22.3l3-1.3"/><g fill="#90192D" stroke="#5D0B15" stroke-width=".444"><ellipse cx="80.6" cy="61.7" rx="1.5" ry="1.2"/><ellipse cx="98.1" cy="73.9" rx="1.5" ry="1.2"/><ellipse cx="97.8" cy="71.5" rx="1.5" ry="1.2"/><ellipse cx="95.7" cy="72.1" rx="1.5" ry="1.2"/><ellipse cx="94.9" cy="69.4" rx="1.5" ry="1.2"/><ellipse cx="92.8" cy="69.9" rx="1.5" ry="1.2"/><ellipse cx="91.5" cy="67.8" rx="1.5" ry="1.2"/><ellipse cx="89.5" cy="68.4" rx="1.5" ry="1.2"/><ellipse cx="87.9" cy="65.4" rx="1.5" ry="1.2"/><ellipse cx="85.8" cy="66" rx="1.5" ry="1.2"/><ellipse cx="88.8" cy="66.6" rx="1.5" ry="1.2"/><ellipse cx="86.7" cy="67.2" rx="1.5" ry="1.2"/><ellipse cx="84.8" cy="64.6" rx="1.5" ry="1.2"/><ellipse cx="85.8" cy="63.6" rx="1.5" ry="1.2"/><ellipse cx="89.7" cy="64.6" rx="1.5" ry="1.2"/><ellipse cx="92.8" cy="66.7" rx="1.5" ry="1.2"/><ellipse cx="89.7" cy="69.9" rx="1.5" ry="1.2"/><ellipse cx="93.1" cy="71.7" rx="1.5" ry="1.2"/><ellipse cx="94.6" cy="74.5" rx="1.5" ry="1.2"/><ellipse cx="84.1" cy="61.7" rx="1.5" ry="1.2"/><ellipse cx="100.1" cy="74.5" rx="1.5" ry="1.2"/><ellipse cx="99.6" cy="72.8" rx="1.5" ry="1.2"/><ellipse cx="77.5" cy="56.9" rx="1.5" ry="1.2"/><ellipse cx="76.5" cy="58.7" rx="1.5" ry="1.2"/><ellipse cx="78.1" cy="59.6" rx="1.5" ry="1.2"/><ellipse cx="79.4" cy="58.3" rx="1.5" ry="1.2"/><ellipse cx="81.3" cy="63.2" rx="1.5" ry="1.2"/><ellipse cx="82.7" cy="59.8" rx="1.5" ry="1.2"/><ellipse cx="80.6" cy="60.4" rx="1.5" ry="1.2"/></g><text fill="#FFF" font-family="'ComicSansMS'" font-size="10.993" transform="translate(74.074 67.725)">Coffee</text><ellipse cx="117.7" cy="19.5" fill="#FFF" stroke="#3C8DCC" rx="18.3" ry="19.5"/><path fill="#63240F" d="M119.7 3.3c-.7 0-1.4.1-2.1.2-.7.1-1.2.3-1.9.3-.6 0-1.4-.1-2 .1-.7.3-1 1-1.6 1.4-.7.5-1.5.8-2.2 1.4-.5.5-.8 1.1-1.2 1.7-.5.6-1.2 1.1-1.5 1.8-.3.6-.3 1.2-.4 1.9-.2.6-.6 1.3-.8 1.9-.2.6-.5 1.2-.8 1.9-.3.7-.4 1.4-.6 2.2-.2.6-.4 1.1-.5 1.8 0 .7.1 1.5.1 2.2 0 1.3-.4 2.5-.4 3.8 0 1.5.9 3.4 1.5 4.8s1.8 2.3 3.1 2.9c1.2.5 2.4.8 3.7 1 1.3.3 2.8.6 4.1.3.8-.2 1.3-.7 2.1-1 .8-.3 1.5-.5 2.3-1 2.5-1.5 4-4.1 5.4-6.7.6-1.1.7-2.5 1-3.7.3-1.3.8-2.5 1-3.8.6-3.6 1.2-8.1-1.5-11.1-.8-.8-1.6-1.6-2.2-2.5-1.1-1.2-3.1-1.8-4.6-1.8z"/><path fill="#100D0C" d="M117.5 7.6c-.7.1-1.4-.2-2.1-.4-.5-.2-3.5-1.6-3.2-.2.2 1.2 3 .9 3.8 1.3 1.3.6.5 2.6.1 3.7-.5 1.3-1 2.5-1.1 3.9 0 .7 0 1.3.1 2 0 .7-.1 1.3-.2 1.9-.2 1.3 0 2.8-.5 4.1-.2.7-.6 1.2-.9 1.7-.4.6-.5 1.2-.7 1.9-.2.9-.2 1.4-.1 2.3 0 .4-.5 1.5-.1 1.8.2-.6.6-1.6 1-2.1 0 .3-.1.8.2 1.1.9-.1 1-.9 1.5-1.5 0 .3.2.5.5.5.1-.3 0-.5.1-.7 0-.1-.2-.2-.1-.4s.4-.2.5-.3c.6-.4.8-.8.9-1.6.1-.6.4-1 .6-1.7.3-.9-.5-1.1-.4-1.9 0-.7 1-.9 1-1.5s-.4-1.2-.4-1.8c0-1.3.8-2.2.9-3.5 0-.6.1-1.1.3-1.7.2-.8-.2-1-.5-1.7-.4-1.1.1-2.3.3-3.5 0-.3-.1-1.4.1-1.6.6-.6 1 .3 1.5-.7.4-1-.2-.6-.5-1.4-.2-.5.6-1.4-.3-1.5-1.3 1.2-.8 3.3-2.3 3.5z" opacity=".43"/><path fill="#FFF" stroke="#FFF" d="M117.5 14.2c-.5 1.1-.9 2-1 3.1 0 .3-.7 2.4.1 1.3.3-.4.3-1.7.6-2.2.2-.4.9-1.8.3-2.2" opacity=".25"/><path fill="#783724" d="M118.3 25.8c.9.5 1.6.9 2.6 1 .7.1 2.3.3 1.8 1.4-.8-.1-1.7 0-2.5-.1-.6-.1-1.8-.2-2.3-.6-.2-.1-.1-.3-.2-.4-.1-.1-.5-.2-.5-.2-.2-.4-.1-.7.1-1 .6-1.3 1.1-.2 2-.1m-6.9-3.5l-.2-.2c.5-.6 1.1 0 1.6 0 1.2-.1-.5-.7-.3-1.3.4-.1.7.1 1 0-.1-.7-1.2-1.6-1.9-1.9-1-.5-1.1.6-1 1.3-.1-.5-.3-.9-.7-1.2-.3-.2-1.1-.2-.7-.8-.9.2-1.1 2.7-2.5 2 0-.5.3-1 .4-1.4 0-.8-.5-1-1-.4-1 1.2.7 2.5.7 3.6 0 .4-.4.9-.3 1.3.1.3.9 1.2 1.2 1.2.5.1 1-.6 1.6-.4.2.1.4.7.7.4.2-.2-.1-.6-.2-.8.9-.7 1.4 1.2 2.3.4.2-.2.5-.8.4-1.1-.2-.3-.9-.4-1.3-.5"/><path fill="#100D0C" d="M113.8 31.8c.5-.4 1.9 2.4 2.4 2.8-.1.6-1.5.3-2 .5-.3-1.1-.6-2.3-.6-3.5" opacity=".43"/><path fill="#100D0C" d="M110.4 32.1c-.7-.3-1.7-.2-2.2-.9l-.1.1c-1.6-1.9-3.2-3.9-4.8-5.7.3.8.4 1.7.7 2.5.2.8.7 1.5 1 2.4.5 1.4 2 2.6 3.5 3.2 1.3.5 2.8.5 4.2.9.3.1.7.4 1 .3.5-.1.6-.5.1-.8-.6-.4-1.6-.2-2.2-.6.2-.3 1-.5.5-1-.2-.2-.6.2-.8 0-.3-.3 0-.3.1-.6.1-.2.4-.2.3-.5-.1-.3-.4-.3-.6-.2-.2.1-.3.5-.6.6-.2.1-.6 0-.8 0m9.4-18.8c-.3-.4.2-1.5.4-1.9.4-.7.5-1 1.3-1.1-.9-.8-1.6 0-2 .8-.4.9-.4 1.6-.2 2.5.3.1.4-.1.5-.3" opacity=".23"/><path fill="none" stroke="#714939" d="M107.1 11.7c-.2.5.2 1.3.3 1.9-.2.1-.4.1-.6.1.1-.8-.2-1 .3-1.6"/><path fill="#100D0C" d="M105.2 19.6c.1-.3.3-.7.4-1.1-.3-.1-.6-.1-1-.1 0-.1-.1-.1-.1-.2-.4.4-1 2.6-.4 3 .5.3 1.2-.5 1.4-.9.2-.4.1-.9.2-1.4.1-1.7 1.1-3.4 1.8-5l2.4-5.7"/><path fill="#100D0C" d="M106.5 27.1c-1.7.1 0-2.3-1.5-2.4-1.2-.1-.7 1.6-.5 2.3.1.6.1.9.3 1.4.2.5.3 1 .4 1.5.3.7.9 2.4 1.7 2.5.1-.3.4-.9.4-1.2-.1-.6-.8-1-.8-1.7 0-.4.3-.9.3-1.4-.1-.5-.9-1-.5-1.5" opacity=".23"/><path fill="#100D0C" d="M110.9 33.1c-.8.4-1.6.6-2.4.6 0-.1 0-.2-.1-.3-.2.1-.2 0-.3.2.6.6 2.2.4 2.9.6.9.2 2.1.8 3 .8-.2-.4-.8-.3-1.2-.5-.5-.1-.9-.3-1.4-.5.1-.1.2-.3.3-.4-.1-.1-.3-.2-.5-.2" opacity=".43"/><path fill="#100D0C" d="M118 19.8c0-.2 0-.2.1-.1.7 1.2 2.1.9 3.2.9 0 .9-1 .7-1.5.5-.7-.2-1.1-.3-1.8-.1-.2-.3-.2-1.1-.1-1.5" opacity=".23"/><path fill="#783724" d="M127.4 17.5c-.4-.2-.7-.4-.7-.8-.3 0-.4.3-.4.6-.6.2-.6-.8-1.2-.7 0 .4.6 2.1-.5 1.2-.3-.2-.3-.7-.7-.9-.2-.2-.6-.4-.9-.6-.2 1.5-1.6-.8-2-.9-.6-.2-.6.2-1.1-.2-.4-.3-.6-.9-1-1.2-.1.3.2 1 .5 1.2.5.4.6.2.8.8-.1.1-.2.2-.2.3.2.3.7.1.9.3.2.3-.1.9.1 1.2.4 1.1 1.4.7.9-.4.3-.1.5.1.8.3.2.1.2 0 .4.3.1.1 0 .4 0 .5 1 .7.3-1 .5-1.3.5.3.2 1.1 1 1.3.7.2 1-.3 1.1-.9.2.2.3.7.6.7s.4-.6.6-.8c.1.2.2.6.3.7.3.1.8 0 .8-.4-.1-.4-1.2-.4-1.4-.8"/><path fill="#100D0C" d="M126.8 11.2c0-.8-.2-1.1-.5-1.7-.1-.1-.3-.3-.3-.5-.1-.2 0-.4-.1-.6-.3-.4-.8-.2-1.2-.5-.4-.3-.4-.9-.6-1.4-.5-1-1.5-.5-2.1-1.5-.2-.5-.2-.7-.7-1-.4-.2-.9-.2-1.3-.4.6-.3 2 .2 2.6.5.4.3.7.7 1 1.1.2.2.3.2.5.4.2.3.1.5.2.8.3.8 1.3 1.7 2 2.3.5.4.8.6 1 1.3.2.5.3.8.5 1.2-.5.4-1.3.1-1.1-.6" opacity=".23"/><path fill="#541C0E" d="M114.6 18.6c-1.4-.5-1-1.4-1-2.6 0-.2-.3-.3-.2-.6.1-.2.5-.3.6-.4.4-.3.8-.5.8-1-.5-.1-.7-1.1-.3-1.5.2-.2.6-.1.8-.3.3-.3.3-.6.2-.9-.1-.5-.5-1.3-.7-1.8-.3-.7-.8-.9-1.1-1.4 1-.2 2.4.5 2.7 1.5.3 1.1-.3 2.2-.8 3.1-.5 1-.3 2-.6 3-.2.9.3 2.7-1 2.9"/><path fill="#783724" d="M107.3 26.7c-.4-1.1-.5-1.1-1.2-1.7-.4-.3-.5-.4-.6-1 .6-.3 1.1 1.4 2 1.2.2.3.3 1.5.2 1.8"/><path fill="#100D0C" d="M114.9 32.8c2.9-1.3 6-1.7 8.5-3.8.9-.8 1.7-2.5 2.1-3.7.4-1.2.8-2.5 1-3.7.5-2.5.7-4.9.7-7.4 0-1.2.4-2.7 0-3.8-.2-.7-.8-1.4-1.2-2-.4-.7-.9-1.2-1.5-1.8-.2-.2-.3-.4-.4-.5 1.6.2 2.2 1.6 2.6 3 .4 1.5 1.3 2.6 1.4 4.2.1 2.6-.6 5.1-1 7.6-.3 2.5-1.1 5.1-2 7.5-.5 1.4-2.1 2.3-3.2 3.5-.6.6-.8 1.1-1.6 1.4-.8.3-1.3 1-2.1 1.2-.4.1-.8-.1-1.2 0-.4.1-.4.3-.8.5" opacity=".06"/><path fill="#100D0C" d="M120 3.6c-.8-.9-2.7.6-3.6.8-1.3.3-2.4.3-3.6.9-1.2.7-2.1 1.8-2.9 3-.9 1.2-1.8 2-2.4 3.5-.4 1.2-1.4 2.1-1.8 3.3-.2.5-.2 1.1-.3 1.6-.1.6-.3 1.2-.3 1.8-.1 1.1 0 2.2 0 3.3 0 2.8 0 5.2 1.1 7.8.3.9.6 1.4 1.5 1.8 1.2.7 2.6 1.3 3.9 1.7-.3.1-.3.3-.4.4.5.3 0 .7-.4.7-.3 0-1-.2-1.4-.3-.9-.2-1.6-.8-2.4-1.2-.7-.4-1.4-1.3-1.8-2-.4-.8-.6-1.9-.9-2.9-.4-1.6-.8-3.7-.6-5.3.2-1.3 0-2.6.3-3.9.3-1.3 1.2-2.4 1.5-3.7.2-.9.6-1.9 1-2.7.2-.4.4-.7.4-1.1.1-.4-.1-1 .1-1.4.3-.5 1-.8 1.3-1.1.4-.4.6-.8.9-1.2.6-.7 1.6-1.7 2.5-2.2.8-.5 1.8-1.4 2.8-1.4.5 0 .9.2 1.4.2.5 0 1-.2 1.5-.2.9-.1 2-.7 2.9-.2"/><path fill="#2F1811" d="M112.1 30.6c.2-2.4 1.1-4.3 1.7-6.5.6-2.2 1-4.3 1.4-6.6.4-2 1.6-4.8 1.6-6.7 0-3.2-3.3-2.1-5.3-3.3.5-1.5 2.5-.5 3.7-.4.5 0 1.7.2 2.2 0 .5-.2.6-.1 1.1-.3.3-.1.1-1 .5-1.2 3.1-1.2.6 1.7.2 2.6-.9 1.7-.1 3.2 0 4.8.2 1.9-.9 2.5-1.4 4.1-.5 1.5-.1 3.1-.5 4.6-.3 1.4-1.2 2.6-1.4 4-.3 1.6 0 3.2-1 4.6 0-.3-.2-1-.2-1.5-1.4.5-1 2.6-2.7 2.6"/><path fill="#783724" d="M113.7 27.7c-.4-2 2.8-5.1 2.9-7.6 0-1.5-.6-2.4-.3-3.9.2-1.3 1.2-2.5 1.6-3.7 0 1.3-.6 2.4-1 3.5-.5 1.6 0 2.4-.1 3.9-.1 2.7-2.6 5-2.9 7.9"/><path fill="#FFF" stroke="#3C8DCC" d="M101.6 27l-6.5 9.3s8-2.7 8.9-4.3"/><path fill="#DCDBDB" d="M30.2 27.4c4.2-.5 12.6 3.3 7.5 8-2.8 2.5-11.9 4.5-3.7 7.1 2.1.6 4.8.5 3.9 3.9-.8 3.1-3.5 1.4-5.4 3.2-4.6 4.2 1.2 8.4 5.6 8.4.5-2.9-4.1-1-5.3-3.3-1.8-3.5 2.4-3.5 4.1-4.5 2.6-1.4 3.7-3.7 2.1-6.5-1.8-3.3-4.3-.9-6.6-2.7 2.8-2.6 9.3-3.7 8.3-8.8-.9-4.3-6.7-4.1-10.3-4.2m18.2 5.4c-2.1-.5-6.3 3.3-3.7 8 1.4 2.5 6 4.5 1.8 7.1-1 .6-2.4.5-2 3.9.4 3.1 1.7 1.4 2.7 3.2 2.3 4.2-.6 8.4-2.8 8.4-.3-2.9 2-1 2.6-3.3.9-3.5-1.2-3.5-2.1-4.5-1.3-1.4-1.8-3.7-1.1-6.5.9-3.3 2.1-.9 3.3-2.7-1.4-2.6-4.7-3.7-4.1-8.8.4-4.3 3.3-4.1 5.1-4.2"/><path fill="#DCDBDB" d="M33.9 63.4c3.4-.4 6.7-4.5 3.8-6.7-2.1-1.6-10-.8-5.4-4.8 3-2.5 7.6-1.1 8.3-6.1.6-4-2.3-7.1-5.6-8.7.3-2.3 2.6-1.7 4.1-3 1.6-1.4 2.4-3.6 2.7-5.7 5.3 4.3-4.6 6.6-4.9 9.7 1.9 1.3 3.5.2 5.3 2.3 1 1.2 1.6 4.2 1.4 5.7-.2 2-1.7 4.6-3.3 5.8-1.7 1.3-4.2.9-5.3 2.8 2.2 2.9 5-.3 5.1 4.2.1 4.1-3 5.7-6.4 6.7" opacity=".52"/></g></switch></svg>
