<svg xmlns="http://www.w3.org/2000/svg" version="1.0" viewBox="0 0 52.42 83.21"><path fill="#d0e7c4" stroke="#669866" stroke-width=".25" d="M14.31 15.57L12.29 18l-1.94 1.35.5 3.28-3.24-3.59.96 3.38-1.09 2.17H6.14l-.64 1.66 2.4 2.94-.25 2.27.51 2.02-.76 1.1.17 7.49.67 2.02-.84.84-2.6 4.54-3.2 1.18-.09 2.52-1.01.17-.5 1.1 1.43 1.68 4.97 2.52.5 2.27 4.12.51 1.17-.51 3.28 1.94 2.02.17 2.44 2.02 1.09 2.69 2.52 1.52 1.1 2.44.93.42L27 74.72l1.94.25 3.11-1.26h.93l1.94.76.84-.76 3.87 1.94-2.11 3.62-.59 1.77s-.84 0 .75.59c1.6.59 2.36 1.6 2.36 1.6l2.78-14.39-1.6-3.7-2.36-1.77.76-3.37 3.7-1.09v-1.26l-3.12-.84.34-2.78 6.65-.25.5-.92 1.26.84 2.19-1.76h1.26l-.67-1.43-1.94-2.35 1.94-2.53-1.68-3.96-.34-3.87 1.77-5.64-.59-.84-6.56.17-1.94-.33-2.44-3.7-2.19-.34-4.96.17-3.2-2.53.84-3.45-2.02-4.63-2.02-.76 1.68-3.45 2.44-5.05 1.51-1.26 1.26-1.94 2.61-1.1 1.01-1.26L35.42 0l-2.61 1.1-1.01 1.85-2.86 1.34-2.36 1.6-2.94-.08-.59.42-.67 1.68-.76.51-.17-1.26-1.43-.59-2.61 2.52-.59 2.02-.59 2.52v1.01l-1.01.42-.91.51z"/></svg>
