<svg xmlns="http://www.w3.org/2000/svg" version="1.0" viewBox="0 0 220 129"><switch><g><path fill="#B98D62" d="M.6 0h218.6v129H.6z"/><path fill="#996F48" d="M1.5 107.9s34.3-8.5 40.6-9L42 .8H1.5v107.1zM175.1.8l2.1 98.9 42.2 13.1.3-112z"/><path fill="#D3B086" d="M219.4 114.2v14.5h-22.6l-20.3-27.4s15.7 3.2 25.5 6.6c10 3.5 17.4 6.3 17.4 6.3z"/><path fill="#EDCA9B" stroke="#F89E59" d="M196.7 129h-1.4l-19.8-27.9 2 .6z"/><path fill="#D3B086" d="M195.3 129h-24.9l-20.7-32.1s8.5 1.1 13.2 1.9c4.7.8 12.7 2.2 12.7 2.2l19.7 28z"/><path fill="#EDCA9B" stroke="#F89E59" d="M170.2 128.9h-1.4l-21.1-32.3 1.5.3z"/><path fill="#D3B086" d="M168.8 128.9l-25.4-.1-21.6-34.1s12.3.7 16.4 1.1c4.2.4 9.5.9 9.5.9l21.1 32.2z"/><path fill="#EDCA9B" stroke="#F89E59" d="M143.6 128.7h-1.4l-22-34.1h1.5z"/><path fill="#D3B086" d="M142.2 128.7h-24.1L94 94.1s10.3-.1 14.6 0c4.2.1 11.6.5 11.6.5l22 34.1z"/><path fill="#EDCA9B" stroke="#F89E59" d="M118.2 128.8h-1.9L92.5 94.4l1.5-.1z"/><path fill="#D3B086" d="M116.1 128.7h-25L67 95.5s10.3-1.5 14.6-1.4c4.2.1 11.1.2 11.1.2l23.4 34.4z"/><path fill="#EDCA9B" stroke="#F89E59" d="M91.1 128.6h-1.9L65.8 95.7l1.6-.1z"/><path fill="#D3B086" d="M89.1 128.8h-25L40 98.8s10-1.3 14.1-2c4.5-.8 11.6-1.4 11.6-1.4l23.4 33.4z"/><path fill="#EDCA9B" stroke="#F89E59" d="M64 128.7h-.9L39.2 98.9h.6z"/><path fill="#D3B086" d="M39.2 98.9l23.9 29.8-35.7.3-15.7-24.3s11.9-3 14.4-3.4c2.5-.3 13.1-2.4 13.1-2.4z"/><path fill="#EDCA9B" stroke="#F89E59" d="M11.6 104.8l-.8.1L26 129h1.4z"/><path fill="#D3B086" d="M.9 107.8l9.9-2.9L26 129l-25.1-.3z"/><g stroke="#A01F22" stroke-width=".25"><path fill="#C12227" d="M212.3 6.6s-19.5 6-28 8.7c-8.6 2.7-23.3 6.3-32.9 8.7-9.5 2.3-22.1 4.8-37.7 4.2-15.6-.6-30.4-2.6-39.9-4.9C64.3 21 41.4 14 33.3 11.9c-8.1-2-12.9-1.7-15.2-2.3C15.6 8.9.6 0 .6 0h218.3l-6.6 6.6z"/><path fill="#A01F22" d="M21.5 10s61.4 17.8 92.2 18.1c30.8.3 92.1-19.5 92.1-19.5l3.9-1.5 2.9-4.2s-57.2 23.9-98 22.1C73.7 23.2 24.8 9.9 24.8 9.9l-3.3.1z"/><path fill="#A01F22" d="M7.9.7S74.7 21.1 114.6 21c39.8-.1 78.8-10.8 84.1-13.9C203.8 4 213 0 213 0s-19.1 7.7-33.5 10.5c-14.4 2.8-55.1 7.5-65 7.2-9.8-.3-57.3-6.6-63.5-8.3C44.8 7.7 11.3.3 11.3.3L7.9.7z"/><path fill="#A01F22" d="M30.8.3s61.6 11.4 81.7 11.4c28.8 0 52.6-3.3 64.5-5.7 11.9-2.4 18.5-6 18.5-6h-7s-55.8 11.8-76 9.9C92.3 8 42 0 42 0L30.8.3z"/><path fill="#A01F22" d="M91.5.7s11.5 3.6 21.6 3.6c10.2 0 27.7-3.5 30.3-3.6 2.6-.1-25.3 2-29.9 1.8C108.8 2.3 93.1 0 93.1 0l-1.6.7z"/></g><g stroke="#A01F22" stroke-width=".25"><path fill="#C12227" d="M22.5 56.1c.6-6.2 1.2-32.2 0-36.4-1.2-4.3-3.6-14.3-4-15.9-.4-1.6 0-3.7 0-3.7H0V117s-.1-1.6 1.8 0c1.9 1.5 4 3.9 6.2 3.5 2.2-.4 3.6 0 3.6 0s-1.5 0 1.9-1.6c3.4-1.5 4.3-3.1 4.3-3.1l1.9-2.3s-1.2-4.3-1.9-9.3c-.6-5-1.5-14.7-2.5-17.1-.8-2.3-2.4-10.1-2.4-10.1v-4.3c0 .1 9-10.4 9.6-16.6z"/><path fill="#A01F22" d="M0 65.4l12.9 7.4s1.3 2.5-1 2.5-8.4-1.8-10.2-3.6C0 69.9 0 65.4 0 65.4zm0 0S2.9 53 3.3 38.6C3.8 24.1 0 0 0 0v65.4z"/><path fill="#A01F22" d="M4.8 65.4s10-17 8.2-36.5C11.1 9.3 3.4.4 3.4.4L6.9 0s8.9 24.1 9 32.5c.1 14.2-9.2 34.8-9.2 34.8l-1.9.9v-2.8z"/><path fill="#A01F22" d="M9.6 69.6s8-5 10.8-20.6c2.8-15.6-.2-27.2-1.4-30.9C17.8 14.4 9.6 0 9.6 0l2 .9s13.3 14.5 11.1 37.7c-2.2 23.1-11.1 31.8-11.1 31.8l-2-.8zM1.8 117c2.2-5.2 1-15.6 1-21.5 0-6.5-.8-14.8.6-21.1 3.5 13.3-2.3 29.3-2.3 43"/><path fill="#A01F22" d="M1.1 117c3.4 3.2 7.2 6.2 8.3-.8.7-4.3.1-9.3.1-13.7 0-4.3.5-8.5.3-12.8-.1-4.3-2.3-9.7-1.6-13.8 1.6 1.4 2.1 9.4 2.5 12 .7 4.3.9 9.3.8 13.7-.1 4.3-.7 8.5-.7 12.8 0 1.9.7 5.6-1.3 6.2-.9.3-5-2-6.1-2.4m9.4-40.1c0 7.1 1.5 13.9 3.4 20.6 1 3.5 1.8 6.9 2.6 10.4 1.1 5.1.3 6.5-4.2 8.1-.3-1.6-.1-3.2.5-4.8.1.4.3.8.4 1.2 4.6 1.2 1.9-6.3 1.7-8.8-.4-3.7-.6-6.8-1.4-10.4-1.4-6-1.7-14.3-3.2-19.4"/></g><g stroke="#A01F22" stroke-width=".25"><path fill="#C12227" d="M200 113.9s0 .8 1.5 1.9c1.5 1.2-1.2 1.9 2.2 3.1 3.4 1.2 4.3-.4 5.3 0 .9.4 1.5 2.4 3.7 2 2.2-.4 4.6-3.5 4.6-3.5l2.9 1.5V.5h-18.1s-3.4 12.3-3.7 18.8c-.3 6.6-3.1 17.4-1.9 26 1.2 8.5.6 11.6 4 17.1s5.6 8.1 5.6 8.1.3.8.3 3.2c0 2.3-1.2 10.5-1.9 14.7-.6 4.3-3.1 16.3-3.1 16.3l-1.4 9.2z"/><g fill="#A01F22"><path d="M202.7 70.9s-1 3.5.6 3.7c1.5.2 8.9-3.3 8.9-3.3l5.2-1.2-.6-3.8s-5.1 3.4-7.5 2.9c-2.3-.6-6.6 1.7-6.6 1.7zm2.2 48.2c3.1-6.4 2.7-13.4 2.9-20.5.2-5.7 1.1-15.1 3.7-19.9 1.8 4.1-2.5 15.6-3.2 20.3-1.1 6.9-3 14.5-3.4 21.5"/><path d="M213.8 1s-3 23.1-1.8 33.8c1.2 10.7 4.8 31.5 4.8 31.5l.6-63.9-3.6-1.4z" opacity=".54"/><path d="M198.3 116.7c1.9-4.2 1.6-10.3 2.9-14.9 1.4-4.9 2.9-15.8 3.7-23.1-3.9 16.7-6.1 28.6-7.8 37.1m16.6 2.4c-3.1-4.5-.9-11.5-.1-16.4.5-2.8.6-5.7 1-8.6.3-2.4-.3-6.2.7-8.3-.5 5.7-1.1 11.1-1.1 16.8 0 5.6-.7 10.9-.2 16.4m-6.9-48.4c-3.9-2.4-8.4-11-9.6-16.2-1.3-5.6-1.4-12.6-.8-18.4.6-5.8 1.9-11.7 2.6-17.5.6-5.2 2.2-15 6.9-16.1-1 2.9-2.5 4.4-3.8 6.9-1.5 2.8-1.8 5.6-2.4 8.8-1.1 5.9-1.1 11.7-.7 17.8.8 12.2 1.4 24.4 6.8 34.8"/><path d="M210.8 68.2c.1-2.7-2-4.6-3-6.9-.9-2.2-1.2-4.7-1.8-7-1.3-4.9-1.9-9.4-2.3-14.4-.4-5.7.1-9.5 1.2-14.8.8-4.1 1.1-11.8 4.8-14.2-5.2 7.3-3.8 19.2-3.7 27.9.1 9.3.3 20.7 4.4 29.1"/></g></g><path fill="#020202" d="M.9 111.7H220V129H.9z"/><path fill="none" d="M148 124.6c-3.8-.8-3 2.1-.3 2.9 4.3 1.2 5.3-1.4 1.3-2.7"/><path fill="#F5BF32" stroke="#F5BF32" d="M176.2 113.9h42.6v6.8h-42.6z"/><path fill="#020202" d="M29.8 112.3c1.3-.5 2.7-3 4.3-2.8 2.1.3.9 2.8.2 3.6-.7.8-1 .8-1.1 1.7-.1.9.6 1.2 0 2.1-.8 1.2-4 2.6-5.8 2.8-4 .5-8.7-3.1-7.6-5.8.6-1.5 2.5-2.6 4.7-3 .8-.1 2.3-.3 3.1 0 1 .5.4 1.5 2.2 1.5m25.2 2.3c.4 1.2-.5 2.7-2.9 1.9 1.2.3 1.7 1 .7 1.7-1.1.7-2.4 0-3.9.2.1 1.2 1.5 1.8 3.2 1.8.7 2.8-12.5.8-12.9-1.7-3.4.8-2.9-2.4-1.7-3.5-3.1.9-2.1-1.4-2.2-2.2.4 0 .8-.2 1.3-.2-.1-.4-.1-1.1-.5-1.5 1.4-.4 2.1 1.6 3.3.2.3-.4-.7-1-.6-1.4.3-.7 1.1-1.3 2-1.6 3-1.3 5-.4 7 1.3.9.8 1.7 1.7 2.9 2.4 1.6.7 3.8 1.1 4.3 2.6zm31.3 11.4c-.4-.8 1-1.1.7-2.1l.5-1c3.2-2.6-6.1-2.2-7.7-2-3.5.5-7 2.4-7.7 4.8-.2.6-.1 1.2.1 1.7h17.1c-.6-.6-2.6-.7-3-1.4z"/><g fill="#020202"><path d="M53.4 125c-1 .3-2.8.5-2.6 1.5 2.1.2 3.9.4 5.6 1h9.1c-.4-.7-1.2-1-2.3-1.4-.4-.1-.9-.2-1.3-.3-1.3-.1-2.5-.4-3.4-.6-.9-.2-6.7-2.2-5.1-.2z"/><path d="M69.2 116.9c.9-.2 1.5-.8 1.4-1.4-1.9 0-3.5 0-5.1-.8-2-.9-1.3-1.6-4.1-1.3-5.8.4-8.3 4.4-7.7 7.8.7 3.6 3.8 3.7 8 4.7 1.6.1 3.3.1 4.2-.6-.8-.5-1.8-1-1.8-1.9 1.1.2 2.1.9 3.3.6.3-.1.3-.8.6-1 .4-.2 1.2-.2 1.5-.5.5-.4.7-1.8-.2-2.1-.7-.3-2.2.3-2.8.5-.2-.3-.2-.5 0-.8 1-.8 1.6.2 3.6-.1 3.1-.5-.2-1-1.5-1.3 1.3-.6 3.7-.2 3.9-1.8-.9 0-2.3.4-3.3 0zm-3.2 3.7c.2-.3.4-.5.6-.6l-.6.6z"/></g><path fill="#020202" stroke="#020202" d="M64 127.5h7.6c-2.5-.4-5.6-.6-7.6 0zm-10.5-4.4c-3.6-.8-7.1-.3-10.4.6-1.8-1.9-4.4-4.3-7.9-4.9-1.3-.2-3.7-.4-5-.1-1.8.4-2.6 1.5-4 2.1-2.2-1.8-3.4-3.7-7.3-4.3-3-.4-5.5.6-8.4.7.6 0-1.6-2.5-2.1-2.7-1.1-.6-2.6-.7-4-.7-1 0-1.5 0-2.7.1v3c.5.1.1.3.6.4 4.8 1.2 9 2.9 14 3.5 4.9.6 9.5 1.8 14.5 2.6 5.1.7 9.9 2.7 14.6 4.1.1 0 .1 0 .2.1h14.7c-1.7-1.9-3.2-3.6-6.8-4.5z"/><path fill="#020202" d="M105.3 127.5l.1-.1-.1.1zm-1.2-5c-2-.9-1.3-1.6-4.1-1.3-5 .4-7.6 3.4-7.8 6.4H105c.9-2 .5-4.4-.9-5.1zm20.4 5h3.5c0-.6-.3-1.1-1.2-1.2-.9-.1-1.6.5-2.3 1.2zM15.7 109.8c0 .4.1.7.5.9.3-.3 1-1.2 1.7-1.1.9 0 1.5 1.1 1.5 1.5-.1.3-.7.5-.8.8-.1.2.4.8.2.9-.6.6-1.8.3-2.7.5.6.6 1.7.7 2.5.9-.5 1.3-3.8 1.9-5.5 2.1-.7.1-6.2.1-3.9 1.2-.5.5-1.7 1.1-1 1.8 2.3-.6 4.2-1 6.8-.8 1.6.1 5.8.9 6.8.1-.4-.6-.9-1.5-1.5-2-1.1-.9-1.9-1-3.3-.9-4.4.4-6.9 1.6-9.9-1.1-2.6-2.3-3.2-5.9.8-7.8 1.9-.9 1.8-.3 3.8-.1 1.6.1 2.8-.4 4.2-.8.4.4.4 1-.2 1.5 1 0 1.7-.6 2.3-1.2.9 1.2-1 1.6-1.7 2.4 1.1-.2 3.8-.7 1.9.6-1.5 1-2.7-.1-2.5 1.7m30.6 9.9c-.4-.5-.9-.5-1.6 0 0 1.7-1.2 2.5-2.1 3.6-1.7-2.7-2.4-7-8.2-6.3h2.5m79 9.4h3.7c-.8-.9-2.3-.8-3.7 0z"/><path fill="#3F4040" stroke="#3F4040" d="M52.3 123.8c-3.6-.8-7.1-.3-10.4.6-1.8-1.9-4.4-4.3-7.9-4.9-1.3-.2-3.7-.4-5-.1-1.8.4-2.6 1.5-4 2.1-2.2-1.8-3.3-3.7-7.3-4.3-3-.4-5.5.6-8.4.7.6 0-1.6-2.5-2.1-2.7-1.1-.6-2.6-.7-4-.7h-.6v3.4c.1 0 .2 0 .3.1 4.1 1.1 6 7.4 10.2 9.5h6.2c3.4-1.3 6.8-4 10.3-3.5 2 .3 3.9 1.7 5.8 3.5h23.1c-1.6-1.5-3-3-6.2-3.7z"/><path fill="#020202" d="M22.5 121.1c-1.6-.2-2.9 2.3-4.3 2.8v.1c-1.8.1-1.2-1-2.2-1.5-.8-.4-2.2-.1-3.1 0-2.2.3-4.1 1.5-4.7 3-.3.6-.2 1.3.1 2h13.4c-.1-.3-.3-.7-.2-1.1.1-.9.3-.9 1.1-1.7.9-.8 2.1-3.3-.1-3.6zm16.7 2.4c-1.2-.7-1.9-1.6-2.9-2.4-1.9-1.7-4-2.6-7-1.3-.8.4-1.7.9-2 1.6-.2.4.9 1 .6 1.4-1.2 1.4-1.8-.5-3.3-.2.4.4.3 1.1.5 1.5-.5 0-.9.2-1.3.2.1.8-.9 3.2 2.2 2.2-.3.2-.5.6-.6.9h18c.2-.4.2-.9.1-1.3-.5-1.4-2.7-1.7-4.3-2.6zm10.8 1.4c-2.8.2-4.8 1.2-6.1 2.6h15.2c0-.2.1-.4.1-.5-1.9-.1-3.5 0-5.1-.8-2-.9-1.4-1.5-4.1-1.3zm136.2-18.8c-1.5-.6-3-3.4-4.7-3.1-2.4.3-1 3.2-.2 4 .8.9 1.1.9 1.2 1.9.1 1-.7 1.3 0 2.3.9 1.3 4.4 2.9 6.4 3.1 4.5.5 9.7-3.5 8.4-6.4-.7-1.7-2.8-2.9-5.3-3.3-.9-.1-2.6-.4-3.4 0-1.1.5-.4 1.7-2.4 1.6m-28.1 2.5c-.5 1.3.6 3 3.2 2.1-1.4.4-1.8 1.1-.8 1.9 1.3.8 2.7 0 4.3.2-.1 1.4-1.6 2-3.6 2-.8 3.1 13.9.9 14.4-1.8 3.8.9 3.3-2.7 1.9-3.9 3.4 1 2.3-1.6 2.4-2.5-.4 0-.9-.2-1.5-.2.1-.5.1-1.2.5-1.7-1.6-.4-2.3 1.8-3.7.2-.4-.4.8-1.1.6-1.5-.3-.7-1.3-1.4-2.2-1.8-3.4-1.5-5.6-.4-7.8 1.4-1.1.9-1.9 1.9-3.2 2.6-1.5.9-3.9 1.3-4.5 3zm-27.5 7c-1.8-.3-12.1-.7-8.6 2.2l.5 1.2c-.4 1.1 1.3 1.4.8 2.3-.5.9-3.3.9-3.3 1.9-.1.7.8.4 1.1.8-.5-.6 2.4 1.1 1.5.9 1 .3 2.1.2 3.4.4 0 .8-.9 1.4-2.2 1.5 0 .3 0 .5.1.7h8.1c.4-.1.7-.2.9-.3 3.4-1.3 7-3.2 6.2-6.1-.7-2.8-4.7-4.9-8.5-5.5z"/><path fill="#020202" d="M145 114.1c.4.4.5.8.2 1.2-.7-.2-2.3-.9-3.1-.6-1 .4-.7 1.9-.2 2.4.4.3 1.3.3 1.7.6.3.2.4 1.1.6 1.2 1.3.4 2.4-.4 3.6-.6 0 1-1.2 1.6-2.1 2.1 1.9 1.3 6.3.6 8.4 0 .9-.2 7.4-2.5 5.7-.3 1.1.4 3.1.6 2.9 1.7-3.3.3-5.9.7-8.7 2-1.7.8-5.8 3.6-7.8 3-.2-.9-.5-2.2-.3-3 .4-1.5 1.3-2 3-2.4 5.5-1.5 9.6-1.2 10.4-5.6.7-3.8-2.1-8.2-8.6-8.7-3.1-.2-2.4.5-4.6 1.5-1.8.8-3.6.8-5.7.8-.1.7.6 1.3 1.6 1.6-1.1.5-2.6 0-3.7-.4.1 1.8 2.8 1.4 4.3 2-1.5.3-5 .9-1.6 1.5 2.7.5 3.1-1.3 4.7.9"/><path fill="#020202" stroke="#020202" d="M218.7 107.8c-1.4-.2-3.1-.2-4.3-.2-1.5 0-3.1.1-4.4.8-.5.2-3 3-2.3 3-3.2-.1-6.1-1.2-9.4-.7-4.4.6-5.7 2.7-8.2 4.8-1.5-.6-2.4-1.9-4.5-2.3-1.5-.3-4.2-.1-5.6.1-3.9.7-6.7 3.3-8.8 5.4-3.7-1-7.5-1.6-11.5-.7-5.1 1.1-6.3 4-9.5 6.5-1.2-3.1-10.6-2-13.7-.8-2.6 1.1-3.1 2.9-6.4 3-2.4.1-4.9-.6-7.3-.6-2.6 0-4.3.5-6.3 1.3H145c1.9-.3 3.9-.6 5.8-.9 6.1-1 12.1-2 17.8-3.7 5.2-1.6 10.6-3.7 16.3-4.5 5.6-.8 10.7-2.1 16.1-2.9 5.6-.7 10.3-2.5 15.6-3.9.6-.2 1.3-.3 2-.5v-3.2z"/><path fill="#020202" d="M108 115.9c-3.1-.2-2.4.5-4.6 1.5-1.8.8-2 4.3-.5 6.5l-.9-1.1c.4.4.6.8.2 1.2-.7-.2-2.3-.9-3.1-.6-1 .4-.7 1.9-.2 2.4.4.3 1.3.3 1.7.6.3.2.3.8.5 1.1h1.9c.6-.2 1.2-.4 1.8-.5 0 .2-.1.4-.2.5h10c.9-.7 1.4-1.6 1.7-3 .9-3.8-1.9-8.1-8.3-8.6zm-14 10.7c-.7-1.7-2.8-2.9-5.3-3.3-.9-.1-2.6-.4-3.4 0-1.1.5-.4 1.7-2.4 1.6v-.1c-1.5-.6-3-3.4-4.7-3.1-2.4.3-1 3.2-.2 4 .8.8 1.1.9 1.2 1.8h15.1c-.1-.3-.1-.6-.3-.9zm108-23.4c0 .4-.1.8-.6 1-.4-.3-1.1-1.3-1.9-1.3-1 0-1.7 1.2-1.6 1.7.1.4.8.6.9.9.1.2-.4.9-.2 1 .7.6 2 .4 3 .6-.6.7-1.9.8-2.8 1 .5 1.5 4.2 2.1 6.1 2.3.8.1 7 .2 4.3 1.4.6.6 1.9 1.3 1.1 2.1-2.6-.7-4.7-1.1-7.6-.9-1.8.1-6.4 1-7.6.1.4-.7 1-1.7 1.7-2.3 1.2-1 2.2-1.1 3.7-1 5 .4 7.7 1.8 11-1.2 2.9-2.6 3.6-6.5-.9-8.7-2.1-1-2-.3-4.2-.2-1.8.1-3.1-.4-4.7-.9-.5.5-.4 1.1.2 1.6-1.1 0-1.9-.7-2.5-1.3-1 1.3 1.2 1.8 1.9 2.7-1.3-.2-4.2-.8-2.1.6 1.7 1.1 3.1-.1 2.8 1.9m-34.1 11.2c.4-.5 1-.5 1.7 0 0 1.9 1.3 2.8 2.4 4 1.9-3 2.7-7.8 9.1-7h-2.8"/><path fill="#020202" d="M95.4 126c-.1-2-2-3-4.9-2.9-2.1-1.3-4.8-1.3-4.8 1.6l.7-1c.8 1.6.6 2.8.1 3.9h12.3c-1.1-.6-2.7-1-4.3-.9.3-.2.7-.4.9-.7z"/><path fill="#3F4040" stroke="#3F4040" d="M218.7 108.4c-1-.1-2.1-.1-2.9-.1-1.5 0-3.1.1-4.4.8-.5.2-3 3-2.3 3-3.2-.1-6.1-1.2-9.4-.7-4.4.7-5.7 2.7-8.2 4.8-1.5-.6-2.4-1.9-4.5-2.3-1.5-.3-4.1-.1-5.6.1-3.9.7-6.7 3.3-8.8 5.4-3.7-1-7.5-1.6-11.5-.7-5.1 1.1-6.3 4-9.5 6.4-1.2-3.1-10.6-2-13.7-.8-2.6 1.1-3.1 2.9-6.4 3-2.4.1-4.9-.6-7.3-.6-1.6 0-2.9.2-4.1.6h55.2c3.6-3.4 7.2-7.9 11.1-8.4 5.6-.8 10.7 5.4 16.1 4.7 5.6-.7 10.3-10 15.6-11.4.2 0 .4-.1.6-.1v-3.7z"/><path fill="#020202" d="M215.7 113.7l1.3-.5c-1.9 3.1-8.4.6-10.2 3.3-1.9 2.8 5.6 4.8 8.4 3.3.1 1.3 1.8 2.3 3.7 2.7v-13.3c-.1 0-.2.1-.3.1-2 1.3-.5 3.4-2.9 4.4z"/><path fill="#020202" d="M199.1 118.9c-1.5-.6-3-3.4-4.7-3.1-2.4.3-1 3.2-.2 4 .8.9 1.1.9 1.2 1.9.1 1-.7 1.3 0 2.3.9 1.3 4.4 2.9 6.4 3.1 4.5.5 9.7-3.5 8.4-6.4-.7-1.7-2.8-2.9-5.3-3.3-.9-.1-2.6-.4-3.4 0-1.1.5-.4 1.7-2.4 1.6m-6.2.5c-.4 0-.9-.2-1.5-.2.1-.5.1-1.2.5-1.7-1.6-.4-2.3 1.8-3.7.2-.4-.4.8-1.1.6-1.5-.3-.7-1.3-1.4-2.2-1.8-3.4-1.5-5.6-.4-7.8 1.4-1.1.9-1.9 1.9-3.2 2.6-1.7 1-4.2 1.4-4.7 3.1-.5 1.3.6 3 3.2 2.1-1.4.4-1.8 1.1-.7 1.9 1.3.8 2.7 0 4.3.2-.1 1-.9 1.6-2 1.8h10.8c1.1-.5 1.9-1.1 2-1.7 3.8.9 3.3-2.7 1.9-3.9 3.5 1 2.4-1.6 2.5-2.5zm-46.9 6.3c-1.7-.3-11-.6-9 1.7h14.2c-1.6-.8-3.4-1.4-5.2-1.7z"/><path fill="#020202" d="M163.8 120c-3.1-.2-2.4.5-4.5 1.5-1.8.8-3.6.8-5.7.8-.1.7.7 2.7 2.2 3.3-1.3.3 1 .2 2.6 1.8h14.1c-.1-3.4-2.9-6.9-8.7-7.4z"/><path fill="#020202" stroke="#020202" d="M206.1 127.5c-1.3-.7-2.3-1.8-4.1-2.2-1.5-.3-4.2-.1-5.6.1-1.8.3-3.4 1.1-4.8 2h14.5zm12.6 0V123c-1.3-.2-2.7-.3-4.2-.1-4.3.6-5.7 2.6-8 4.6h12.2z"/><path fill="#020202" d="M183.5 127.5h4.1c.9-1.1 2-1.9 3.8-2.2h-.2l-7.7 2.2zm7.9-2.1h2.6c-1-.2-1.8-.2-2.6 0z"/><g fill="#020202"><path d="M77.6 120.9c-1 .3-2.8.5-2.6 1.5 2.1.2 3.9.4 5.6 1h9.1c-.4-.7-1.2-1-2.3-1.4-.4-.1-.9-.2-1.3-.3-1.3-.1-2.5-.4-3.4-.6-.8-.1-6.6-2.2-5.1-.2z"/><path d="M93.5 112.8c.9-.2 1.5-.8 1.4-1.4-1.9 0-3.5 0-5.1-.8-2-.9-1.3-1.6-4.1-1.3-5.8.4-8.3 4.4-7.7 7.8.7 3.6 3.8 3.7 8 4.7 1.6.1 3.3.1 4.2-.6-.8-.5-1.8-1-1.8-1.9 1.1.2 2.1.9 3.3.6.3-.1.3-.8.6-1 .4-.2 1.2-.2 1.5-.5.5-.4.7-1.8-.2-2.1-.7-.3-2.2.3-2.8.5-.2-.3-.2-.5 0-.8 1-.8 1.6.2 3.6-.1 3.1-.5-.2-1-1.5-1.3 1.3-.6 3.7-.2 3.9-1.8-1 0-2.3.5-3.3 0zm-3.2 3.7c.2-.3.4-.5.6-.6l-.6.6z"/></g><path fill="#020202" d="M116.2 114.7c-1.5-.6-3-3.4-4.7-3.1-2.4.3-1 3.2-.2 4 .8.9 1.1.9 1.2 1.9.1 1-.7 1.3 0 2.3.9 1.3 4.4 2.9 6.4 3.1 4.5.5 9.7-3.5 8.4-6.4-.7-1.7-2.8-2.9-5.3-3.3-.9-.1-2.6-.4-3.4 0-1.1.5-.4 1.7-2.4 1.6"/><path fill="none" d="M5.1 115.8c.8 0 1.8-.4 2.6-.6-.9-1.1-2.4-2.7-.6-3.6.7 2.5 1.2 4.7 2.7 7.1 1.6 2.7 4.1 5.7-1.3 7.3-1.8-2.7-2.1-6.7-3-9.7"/><path fill="#3E2916" d="M200.2 107.5c-2.1.3-4.6 3.2-5.2 4.4-.3.7.3 1.4 0 2.2-.4.9-1.6 1.6-1.3 2.5.4 0 .8-.1 1-.3.5 1 .2 2.2.3 3.3.2 2.3.5 2.1 3.8 2.6 2.5.4 3.1.7 6 .3 2.1-.3 5.6-.5 7.1-1.4-1.1-1.8-5-2-6.7-3.5-.7-.6-.5-2.4-1.2-2.7-1.6-.6-3 .3-3.3 1.1-1.3-.5-.4-2.8-.3-3.9.1-1.9 1.4-2.8 2.9-4.5-.7-.1-1.5-.1-2.2 0"/><path fill="#343E42" d="M29.2 124.9c.9.7 1 1.5.1 2.1-3.2-.5-5.6-1.9-9.1-2.2-3-.3-5.9 0-8.9-.2-2.2-4.1 15.6-2.3 17.5.1"/><path fill="#343E42" d="M11.6 125.1c-2.3.3-6.2 2.3-6.5 4 8.1-.9 14.5-.1 25.5-.3-.1-2.9-16.5-5.5-20.1-3.7"/><path fill="none" d="M86.1 117.5c-3.6.2-.8-3.8-.8-5.4-6.5-.7-5 2.7-6.4 5.6-.7 1.4-2.4 3.2-2.4 4.7.1 1.7 1.4 2.7 2.8 4.2 1.5 1.6-.2 1.9 3.5 2.1 3.2.2 4.2-.1 5.1-2.4.6-1.5.5-8-1.5-8.7m-49.6 1.5c2.2-1.8.5-3.2 1.2-5.1.6 1 .8 2.4 1.6 3.5 1.1 1.5 3.7 2 4.3 3.3.5 1-1.4 3.3-2.3 4.1-.7.6-1.9.7-2.6 1.2-.9.8-.7 1.5-1.6 2.1-1.1-2.8-.9-7.8.8-10.5m156.5-7.6c-4.7-2.7-3.7 1.1-3.9 2.7-.3 2.4-1.4 3.6-.7 6.2.6 2 .7 5.2 3.2 6.7 4.9 3 3.6-2.1 6.5-3-4.9-1.2-5.5-2.3-5.8-5.5-.1-1.3-.7-1.3-.4-2.8.3-1.8 1.4-2.8 1.1-4.3m-134.2 2.3c-.8-1.2-2.8-1-4 0-1.5 1.3.6 2.8.6 4.1 0 .5-1.1 1.2-1.2 1.8-.2.6.2 1.4 0 2.1-.4 1.3-1.1 2.9-3.1 3.4-.1 1.7 5.4 4 7.3 4.9 1.4-1 .4-2.4 1.1-3.5.4-.6 2.3-.3 2.6-1.2.2-.8-1.7-1.6-2.1-2.4-1.2-2.6 1.4-6.7-.7-8.8"/><path fill="#503523" d="M24.6 123.1c.9-1.2 15.2-4.3 7.8-6.3.3-.9.3-1.9 1.6-2.6-1.6-1.5-3.4-2.6-4.8-4.3-.9-1.2-2.6-4-4.4-4.6-.1.6-.3 1.2-.3 1.8-3.8.2-9.2 1.2-7.3 4.1.6 1 4.1 1.6 2.6 3-1.2 1.1-2.8 0-4.5 1.2-1.2.8-4.9 5.6-4 6.6 1.8 1.9 9.6-.4 12.7.9"/><path fill="#413F32" d="M197.9 123.6c4.5-1.3 13.7-3.7 16.1.2-1.4.9-5.9.5-7.9.5-2.5.1-6 1-8.4.7-.1-.4-.1-.9.2-1.2"/><path fill="#1E170E" d="M26.7 104.8c-4.3-1.1-13.4 1.9-16.5 3.9-5.2 3.4-1.5 7.4.7 11.4 1.3 2.3 4.1 3.9 5 .5.2-.9-.8-1.8-.5-2.6.6-1.8 2.2-1.7 4.1-2.7 4.9-2.8.3-2.1-.5-4.9-.6-2.3 4-4 6.9-3.3.5-.2.7-.5.4-1"/><path fill="#201910" d="M198.2 107.5c6.6-2.5 17.4-.8 19.8 4.6 1 2.2.6 5.2-.6 7.3-2 3.5-4.9 3.5-9.6 2.6.2-2.5-3.3-2.1-5.1-3.8-1.6-1.6-.2-3.2-4-2.9-.6-2.1.8-5.3 2.3-7.2-.6-.2-1.6-.2-2.4-.1"/><path fill="#413F32" d="M198 125.3c-2.6.4-4 2.4-6.2 3.4 4.1.7 8.1-.5 12.3-.5 2.3 0 4.6-.1 6.9-.1 1.6 0 5.9 1.2 7.2.8 2-.6 1.8-2.3.6-3.5-1.7-1.6-4.6-1.3-6.8-1.4-4.7-.1-9.7.1-14 1.5"/><path fill="#515A61" d="M62.3 125.1c3.2-.3 19.6-2.3 16.8 2.6-3.2-.1-6-1.1-9.2-1.4-3.4-.3-5.8.6-9 1.1-1.1-1.4 1-2.9 3.2-3.3"/><path fill="#252520" d="M110.6 127.7c-1.3-2.9-12.3-4.7-15.9-2.4-4 2.6 3.3 1.1 5.1 1 2.9-.2 8.1-.3 9.7 1.6"/><path fill="#181319" d="M141.1 126c-3.9 0-10.4-.8-13.4 1.3 2 1.9 10.9.8 14.1.6.4-.3.5-.7.4-1.1"/><path fill="#29251D" d="M187.5 113.2c-.3 0-.6.1-1 .1.6 1.8 2.8 3.3 3.8 5.1.9 1.7 1.3 3.5 2.2 5.2 1.3 2.3 2.7 3.4-1.7 4.3-2.4.5-6.5.4-9 .2-4.2-.3-4-.8-4.7-3.1-.5-1.6-1.8-3.6-1.4-5.3.2-1 1.7-1.8 2-2.8.3-.8-.4-2.1.1-2.7 1.3-1.6 6.6-2.5 8.6-.9"/><path fill="#362D24" d="M170.3 121c-3.2 0-7.1-.4-9.5 1.5 1.2 1 9.4 0 11.3-.6-.1-.2-.3-.4-.4-.7"/><path fill="#1B1813" d="M141.1 125.6c-.1-3.6 3.9-4.9 1-8.6-2.4-3-8.6-5.7-12.5-2.4-2.5 2.1-4.2 6-1.7 8.6 3.2 3.1 8.3 2.4 13.2 2.4"/><path fill="#362D24" d="M171.3 122.2c3 .5 4.3 1.8 4.4 3.8.1 2.6-1.3 3-4.5 3-5 .1-10 0-16 0-1.9-6.2 10.2-6.4 16.1-7.1"/><path fill="#141412" d="M160.9 112.2c-3.5.7-2 4.9-1.6 6.4.9 3.2 3.7 3.6 8.7 2.5 11-2.5-1-13.7-6.8-8.9"/><path fill="#171617" d="M80.7 113.9c-2.3.4-1.8-.7-2.2.4-.5 1.5 1.2 3.4-.2 5-1.9 2.1-4.1 4.3-7.4 4.7-2.6.3-6.6.3-8.2-.9-1.8-1.4-1.3-4.9-1.7-6.6 2.6-.4 5.5-.2 8.8-.4 3.4-.2 6.1.2 8.7-1.1"/><path fill="#2A231D" d="M53 111c3.2 1.2 3.4 8.1 2.5 10.3-1.9 4.4-15.2 2.3-12-1.3-3.5-.4-6-6.4-3.3-8.1 1.3-.9 4.9-.6 6.7-.8 2.1-.3 5.3-2 6.5-.2"/><path fill="#2D2313" d="M95.8 124.6c-1.3-1.6-2.7-2.7-2.5-4.6.1-.9 1.2-1.7 1.4-2.6.2-.8-.3-1.9 0-2.6 2-3.5 10.1-3.8 13.9-1.4.9.6 2.8 3.8 2.5 4.7-.3 1.2-1.8 1-2.3 2-.5.9.1 1.7-.2 2.6-1.5 4.8-7.5-.4-12.2 1.7"/><path fill="#080909" d="M4.9 110.1c2 1.3 1.6 4.7-2 4.4.2 1.2 2.1.8 3.2 1.7.9.8 1.3 2.5 1.7 3.4 1 2.1 2 4.4 2.1 6.6-3.3.4-6.1 5.2-8.2 2-.8-1.3.2-5.7.3-7.2.2-2.6.3-4.7-.3-7.3-.2-.8-1-2.6-.4-3.4.9-1.1 4.1-2 4.2-.3m27 2c3.4-1.2 3.1.6 3.2 2 .1.9-.5 1.7-.3 2.6.3 1 1.6 1.8 1.9 2.6.9 2.6-.1 7-1.1 9.6-1.2.2-5.7.3-6.6-.4-1.3-1 .2-1.7-.1-2.6-.4-1.1-.9-1.4-1.4-2.1-.4-.8-2.1-.3-1.8-1.7.1-.6 3.1-1.4 3.9-1.7 2.8-1.1 5.4-2.1 2-4.1 1.8-1.2 1.6-2.8.2-4.1"/><path fill="#222E26" d="M52.3 125.3c1.5.3 9.1 2.3 7.2 3-2.2.9-7.2.6-8.7.6-4-.1-7.3-.2-13.9-.8 2.9-3 10.4-3.3 15.3-3.3"/><path fill="none" d="M37.2 118.6c2.9-1 1.9-2.8.6-4.2 1.7 2 5.5 5.2 5.3 7.4-.2 3.1-3.6 4.3-6 6.2-1.1-2.8-.3-6.5.4-9.4"/><path fill="#47362E" d="M61.3 116.3c-1.2-3-1.2-4.8 2.5-6.9 3.3-1.8 8.7-2.3 12.2-.3 1.2.7 2.7 2.3 2.9 3.4.4 2.3-.7 2.1-3.2 3.1-3.1 1.2-8.4 2.4-11.8 1.1"/><path fill="none" d="M52.3 124.6c3.5.1 5.8 2 7 4-2.7 1-7.5.1-10.5.1-4.3 0-7.5-.3-11.7-.7 4-2.6 11-4.6 16.7-2.9"/><path fill="none" d="M43.3 123.4c-.8.8-1.6 1.7-2.3 2.5 1.9 0 3.7-.8 5.6-.9 1.4-.1 5 .4 6-.2 3.2-2.1-3.6-1.2-3.9-1.2-1.9-.1-4.3-.7-5.8-.4"/><path fill="#FFF7F3" stroke="#FFF7F3" d="M189.3 117.7c-1.9 2.9-3.9 1-5.5-.6 1.7.8 3.9.9 5.5-.1m.8 5c-2.3.9-4.9.9-7.4.5 1 1.8 6.3 1.4 7.8-.1m-5.1-8.5c-1.6.3-2.5-.2-2.4-1.4.8-.2 1.5 0 2.1.4m7.1 10.3c.4 3.1-4.1 5.4-8.6 3.8 2.1-1.8 6.1-.5 7.2-3.8" opacity=".39"/><path fill="#FFF7F3" stroke="#FFF7F3" d="M140.4 118.9c-1.5 2-4.7-.7-6.2-1.5-3.9 2.8 8.8 6 6.9 1.2m-.7-3.1c-1.7.2-3.4.2-4.8-.5 1.1-.9 3-.7 4 .2" opacity=".15"/><path fill="#313235" d="M92.2 128c6.4-2.1 13.3-2 19.5.5-1.6 1-7 .1-9.4.3-3.5.2-6.3.6-9.8-.1"/><path fill="#060606" d="M78.3 92.9c3.6-2.8 6.6-4.8 11.2-5.3 2.9-.3 11-.5 11.2-4.4-6-2.2-12.9 1-18.6 2.7-3.3 1-6.6 2.1-9.5 4.2-1.7 1.2-2.8 2.8-4.6 3.8-1.8 1-4.2.4-4.4 3 2 1 6.2 1 8.3.5 3.8-.9 3.3-5 6.3-5.5" opacity=".06"/><path fill="#F4EF82" d="M167.7 77.1l29.9 39.9-38.2-32.3 1.5-6.6z" opacity=".18"/><ellipse cx="166.9" cy="97.8" fill="#92633B" stroke="#92633B" rx="22" ry="5.5"/><path fill="#92633B" stroke="#92633B" d="M145 98.6v-9.3l43.8-1.2v10.5"/><ellipse cx="166.9" cy="88.8" fill="#A8794F" stroke="#A8794F" rx="22" ry="5.5"/><path fill="#E9E8C0" d="M146 68.4l.3-1.1s.8.2 1.3.7c.5.5 4.9 1.5 4.9 1.5l3.7.3s1.5 2.5 1.5 2.9c0 .4 1.2 2 1.2 2h-1.5l-1.2-1.6-1.3-2.4s-3.2-.8-3.7-.9c-.5-.1-3.4-.5-3.4-.5l-1.8-.9z"/><path fill="#020202" d="M146.2 70.3l1.4 3.4 2.9.5s1.8 2.7 1.9 4.1c.2 1.4 1.4 4.7 1.5 5.4.1.7.7 3.4.6 4.1-.1.6.5 1.3 0 1.2-.5-.1-2.1 0-2.1 0H151c-.6 0-1.4.4-.7.6.8.2 1.7.1 2 0 .3-.1 2.3-.3 2.3-.3l-.7.8-.8.6s-2.1.2-.8.5c1.4.3 2.3 0 2.3 0l1.2-1.5 2.8.2s.2.5 1.1.4c.8-.1.9-.8.9-.8l-2-.1-1.4-.7-.8-.4s-.1-3.9-.5-4.6c-.4-.7-1.1-3.7-1.5-4.6-.5-1-1.4-3-1.5-3.5-.1-.4 2.2-.6 2.2-.6l-1.8-3.3-7.1-1.4z"/><path fill="#F7F7D3" d="M148.4 69.8v-.3s.8-.3 1.8 0 4.6 1.3 4.6 1.3l2.5 3.9-2 .5-1.8-3.3-5.1-.9v-1.2zm-3.1-1.6s1.1.8.9 1.1c-.1.3 0 1 0 1l2.2.5v-1.3s-1.5-.8-1.6-.8-1.5-.5-1.5-.5z"/><path fill="#020304" d="M170.9 86h-5.6c-1.2 0-1.8-.1-2.5 0-.8.1-1.6.1-1.4.6.2.5 1 .5 2.2.6 1.2.1 2.7.1 3.2.1s.5-.4 1.3-.5c.8-.1 1.7-.2 2.8-.2 1.2 0 2.4-.1 2.5-.2.2-.1-2.5-.4-2.5-.4z"/><path fill="#020304" d="M177.8 86.7s.6.2.6.5c0 .2.3.5 0 .6-.3.1-1.6.3-2.1.3-.6 0-.7-.2-.9-.2-.2 0-1.6.2-1.9.2-.3 0-.8.2-1.6.1-.8 0-3.8-.1-4.2-.4-.4-.2-.5-.3-.2-.6s.6-.5 1.4-.6c.7-.1 2.6-.1 3.1-.1s1.3-.1 1.6-.2c.3 0 .9-.2 2.1 0 1 .2 2.1.4 2.1.4z"/><path fill="#146E78" d="M160.8 61.5l-2.4-3.8s2.2-2.4 2.6-2.9c.4-.6 1.3-1.4 1.3-1.4l1.4 2.2L169 65l-3 3.9-5.2-7.4z"/><path fill="#146E78" stroke="#146E78" stroke-width=".25" d="M165.4 62s-5.3 3.3-5.7 5.1c-.4 1.8-1.6 3.8-.9 5 .7 1.2 2.3 2.7 2.8 2.8.2 0 .7.2 1.1 0 .8-.2 1.6-.5 1.6-.5s4.9 2.1 6.6 2.5c1.7.4 6.7 1.8 6.7 1.8l3.1 1.3s2.6-1.3 3.3-1.5c.7-.3 3.7-1.6 4.1-1.7.4-.1 1.6-.5 1.7.1.1.6.6 1.5 1.3 1.4.7-.1 2.7-.4 3.3-.4.6-.1 2.1-.2 2.1-.2s-3.7.1-4.1-.1c-.4-.3-1.6-.7-1.8-1.1-.3-.4-2-.6-3.3-.4-1.3.3-3.8.9-4.7 1.1-.9.2-2.4.3-4.3-.5-1.8-.8-3.3-3.1-3.4-4.1-.1-.9.3-1.4.2-2.3-.1-.9 1.1-2.9 1.9-3.3.9-.4-5.4-5.2-6.1-5.2-.7 0-5 .1-5 .1l-.5.1z"/><path fill="#0A6372" d="M171 85.8h.9l-5.3-8.3-.6-3.3-2.2.5-1.6.3z"/><path fill="#146E78" d="M164.5 74.2s3.3 6 4.2 7.5c1 1.5 2.9 4.7 2.9 4.7l5.1.3v-5.6l-1-3-11.2-3.9z"/><path fill="#F6F6D0" d="M158.5 58.1c-.3-.6-1.6-1.4-1.7-2.1-.1-.7.9-1.4 1.3-1.7 1.1-.9 2.4-1.4 3.4-2.3.1.6.7 1.4.6 1.9-.1.5-1 1.1-1.3 1.5-.6.9-1.3 1.9-2.3 2.5m3.6 8.7c-.9 1.2-1.5 2.1-1.6 3.7-.1 1-.3 3.5.8 4s2.5-1.5 3.8-1.4c1.5 0 3.1 2.6 4.3 2.2 1-.3 1.8-3.1 2.2-4 .8-1.5 1.8-2.8 0-3.8-1.1-.7-2.8-.6-4.1-.8-1.3-.2-2.8-1.1-4.1-.9"/><path fill="#020304" d="M166.9 67.5c-.4-4.6-5.5-1.8-5.5 1.7.6 1.8 4-.4 5.6-.3 1.6.1 2 2.5 3.5 1.5 4.8-3.1.5-6.6-3.6-2.9"/><path fill="#E9BA8B" d="M159.4 58.7s-.8 3.2-.4 3.8c.4.6 2 2.1 6.2 3.3 4.8 1.4 7.2 1.6 9.6 1.2 2.1-.4 3.7-.8 4.8-1.5 1.1-.7 1.7-1.2 2.1-2 .4-.8.8-1.6.6-1.9-.2-.3 1.3-3.6 1.4-4.1.5-2.9-6.8-7.2-10.9-8-3.9-.8-11.6 2.4-12.3 5.9-.1.6-1.1 3.3-1.1 3.3z"/><path fill="#030303" d="M159 60.4s8.9 2.8 12.1 2.8c3.1 0 6.9.1 8.8-.4 1.9-.5 2.5-.6 2.5-.6s-.1 2-2.2 3.5c-1.8 1.2-5.3 2-9 1.4-9.5-1.3-12.1-4.4-12.1-4.4l-.1-2.3z" opacity=".04"/><path fill="#E9BA8B" d="M182.3 61s1.1-.6 1.3-.2c.3.4.5 1.3.4 1.7-.1.4-1.3 1.5-1.5 1.5-.2 0-.9-.1-.9-.1l.7-2.9z"/><path fill="#030305" d="M171.2 59.6c-.1.3-.3.5-.5.5s-.4-.3-.3-.6c.1-.3.3-.5.5-.5.2.1.4.3.3.6zm-6.9-.3c-.1.3-.3.5-.5.5s-.4-.3-.3-.6c.1-.3.3-.5.5-.5.2.1.4.3.3.6z"/><path fill="none" stroke="#CB7929" stroke-width=".25" d="M166.1 61.7s.4-.6 1.2-.4c.8.2.9.8.9.8"/><path fill="none" d="M159.2 59.9h-.1m.4-.1h.1m-.1 0h.2m-.4 0l.6-.1"/><linearGradient id="a" x1="187.73" x2="184.109" y1="50.077" y2="50.077" gradientTransform="rotate(8.848 97.427 -96.103)" gradientUnits="userSpaceOnUse"><stop offset="0" stop-color="#ec1475"/><stop offset="1" stop-color="#fff5cb"/></linearGradient><path fill="url(#a)" d="M160.6 61.7c-.2 1 .5 1.9 1.5 2 1 .1 1.9-.6 2.1-1.6.2-1-.5-1.9-1.5-2-.9-.1-1.9.6-2.1 1.6z" opacity=".18"/><linearGradient id="b" x1="200.016" x2="204.236" y1="49.723" y2="49.723" gradientTransform="rotate(8.848 97.427 -96.103)" gradientUnits="userSpaceOnUse"><stop offset="0" stop-color="#ec1475"/><stop offset="1" stop-color="#fff5cb"/></linearGradient><path fill="url(#b)" d="M180.6 64.3c-.2 1-1.3 1.7-2.4 1.6-1.2-.1-1.9-1.1-1.7-2.1.2-1 1.3-1.7 2.4-1.6 1.1.2 1.9 1.1 1.7 2.1z" opacity=".18"/><path fill="#F1F6F8" stroke="#D7D7D7" stroke-width=".25" d="M167 62.4c-1.5-.1-7.1-2.1-6 1.6.7 2.3 1.8 1.1 3.2.7 1.3-.4 2.5-.8 3.9-.7 1.4.2 2.5 1.1 3.9 1.6.5.2 1.4.5 1.8-.1.2-.2.3-2 .2-2.3-.4-1-2.7-.8-3.5-.8-1.2-.1-2.5.5-3.5 0m1.2-8.5c-.4 2.2 3.4.2 4.4 1-.2.2-.2.8-.4 1.1 1.4 1.1 3.5-.1 3 2.8 2.2.2 4.7.9 4.4 3.6 1.9.2 3.7-.8 4.1-2.6.4-1.5 0-3.2-.8-4.6-1.7-3.1-6-5-9.3-5.7-3.4-.7-6.6-.2-9.5 1.7-1.3.8-3.3 2.2-3.8 3.7-.2.7-.2 1.7-.4 2.4-.2.8-.6 1.4-.6 2.4 1.7-1.3 1.8-3.7 3.4-4.9 1.6-1.2 3.8-1 5.6-1"/><path fill="#146E78" d="M174.4 72.3c1.9-7.5 5.8-5.5 12.3-8.5-.2-8.4-10.4 1.8-13.3 4"/><path fill="#E9BA8B" d="M156.3 48.2c-1.7-.1-3.4-.3-5.1.3-.6.2-2.2 1.1-1.5 2 .5.7 2 .3 2.6 0h-.3c-.3 1.2 0 2.1 1.1 2.8.8.5 2.2.4 3.1.1.1.7 1 1.6 1.6 1.4.9-.2 1.6-1.2 1-2-.3-.4-.6-.6-.8-1-.2-.4-.5-.8-.7-1.2-.4-.9-.3-1.8-1-2.4"/><path fill="#F6F6D0" d="M186 61.1c1 1 .4 1.8.7 2.9 1.2-.9 1.6-.7 1.3-2.3-.3-1.8-.6-1.7-2-.6 0 .2 0 .3.2.4"/><path fill="#E9BA8B" d="M188 61.7c.1-.8-.3-1.7.4-2.2.6-.5 1.5-.7 2.1-1.1.7-.3 1.9-.5 1.3.6-.2.3-.3.5-.7.7-.3.2-.8.2-1 .6.3-.2 1.5-1.1 1.3 0-.1.5-.8 1.1-1.2 1.4-.4.3-1.1 1-1.5 1-.2 0-.6-.2-.8-.3-.2-.3 0-.6-.1-1"/><path fill="none" d="M167.6 52.4c-.2-.3-.3-.6-.3-.9.8.2.8-.1 1.3-.3-.3-.1-.7-.5-1.1-.6.7.1.4-.4.8-.6"/><path fill="#1D110B" d="M153.4 51.1c.1.3 0 .7-.4.8-.3.1-.7 0-.8-.4L146 35.2c-.1-.3 0-.7.4-.8.3-.1.7 0 .8.4l6.2 16.3z"/><path fill="#E9BA8B" d="M154.2 50.3s-1.3.2-1.4.1c-.1-.1-.6-.4-1.2-.5-.6-.1-.9.8-.2 1.3s1.2.7 1.2.7.3.7.8 1M93.6 71.6c-.5-.8-2.7-1.8-3.5-2.3-.5-.3-2.6-1.7-2.3-2.3.6-1.1 2.5.8 2.8 1.1.9.8 1.8.7 2.4 1.8"/><path fill="#146E78" d="M88.4 66.4s1.3 1.3 1.5 1.3c.3 0-.2 1.2-.2 1.2L88 67.1l.4-.7z"/><path fill="#146E78" d="M81.8 68.7c.3.8 0 1.3 0 2 0 .4.1.7.1 1.1 0 .4.5.8.6 1.3 0 .7.1 1.4 0 2.1 0 .7-.7 1.7-.1 2 .3.1 1.7 0 2.1.1.8.1 1.5.1 2.3.2.7 0 1.4.2 2.1.3.4.1 1.9.6 2.3.4.8-.5.9-3.6.9-4.4 0-1.6-.5-3.2-1.6-4.4-.6-.7-1.4-1.2-2.1-1.9-.9-.8-.9-1.2-2-.4-1 .7-3.1 2.4-4.5 1.5m-1.5 13.8s.4 1.3 0 1.5c-.4.2-1.2-.6-1 .6.2 1.1.9 1.8.9 2.1 0 .3.1 1.2.2 1.8.2.6.4.3.7.9.3.6 1.4 3.4 1.3 3.8-.2.4-.1.7.5.6.6-.1 1.4-.3 1.4-.3s.3-2.1.3-2.7c-.1-.6 0-1.4 0-2.3 0-.9 3.9-6 3.9-6l4.6 3.8s-.8 3.9-1 4.3c-.2.4-1 1.6-1 1.6s2.8.1 3.1-.1c.3-.1.2-1.2.4-2s.4-2.6.5-2.6c.2-.1.7-2.7.6-3.5-.1-.8-.4-3-1.2-3.6-.8-.6-1.7-1.7-1.7-1.7s-8.2-.7-8.4-.8c-.2-.2-1.5-.1-1.9 0-.3.1-1.4 1-1.4 1l-.8 3.6z"/><path fill="#303030" d="M63.9 74.8h17.6l1.1 7.6H65z"/><path fill="#BA5427" d="M86.1 70.6s-.9.5-1.3 1.2-.6 1.2-.7 2.1c-.1.9.6 1.2.6 1.6.1.4 1 1 .8 1.6-.1.5-.2 2.4-.8 2.9-.5.6-1 1-1 1h-.4s.3.5 0 .9c-.3.3-1.2 1.6-1.2 2.5 0 1-.2 2 .4 2.7.6.7 2.9 1.7 3.6 1.8.7.1 1.1.1 1.8 0s1.7.5 2.7.1c1-.5 1.9-1 2.4-1.4.5-.4.8-1.3 1-1.6.1-.3.1-2.1 0-2.7-.1-.6-.7-1.8-.7-1.8V81l-.8-.3s-.3-.3-.6-.8-.1-1.6-.2-1.9c-.1-.3.4-1.3.4-1.3l.5-.1s.4-1.4.7-1.9c.3-.5.2-1.9-.1-2.5-.3-.6-1.4-1-1.9-1.5s-1.4-.5-1.4-.5l-.5.3s-1.5.4-1.5.1c.1-.3-.4-.4-.8-.5-.2-.1-.4 0-.6.1-.1.2-.4.4-.4.4z"/><path fill="#7C2517" d="M83 88.6s-.3.6 1.1 1.2c1.4.6 2.3.9 3.4.9 1 0 3-.1 4-.4 1-.3 2-1.3 2.3-1.6.3-.3 1.1-1.2 1-1.7-.1-.5.3-2.6 0-3-.3-.3-.7-.6-.7-.6s.2 2.1.1 2.4c-.1.3-.9 1.9-1.3 2.1-.3.2-1.2.9-1.9 1.1-.7.3-1.6.3-2 .2-.4-.1-.9-.1-1.2-.1-.3 0-1.8 0-2.3-.2-.5-.2-1.9-.9-2.2-1.1-.3-.2-.7-.5-.7-.5v.9l.4.4z"/><path fill="#020202" d="M86.9 82.5s.5-.2.8-.2c.3.1.7 0 .8.2 0 .1-.5 3.3-.6 3.6v2.1c0 .1-.1.3-.3.2-.2 0-.3-.1-.3-.1s.1-3.1.1-3.2c0-.2-.1-.8-.3-1.1-.1-.3-.1-.8-.1-.8-.1-.2-.1-.7-.1-.7z"/><path fill="none" d="M87.6 89.9s.2-.4.5-.3c.3.1.4.3.4.3l-.5.4-.4-.4z"/><path fill="#7C2517" d="M86.6 79h.2c.1 0 .1-.3 0-.4-.1-.1-.3-.1-.4-.1-.1 0-.5.5-.5.7 0 .2 0 1.1-.1 1.3 0 .2-.1.8-.2.9-.1.1-.2.3-.3.3-.1 0-.2.1-.2 0s0-.2-.2-.2c-.1 0-.3 0-.2.2.1.2.1.3.4.3.2 0 .5-.2.7-.3.1-.1.3-1.3.3-1.5 0-.2-.1-.8 0-.9.1-.1.2-.4.3-.4.1 0 .2 0 .2.1 0-.2-.1-.1 0 0zm3.4-.4s-.1.3 0 .4c.1.1.2 0 .3 0 .1 0 .1-.2.1-.3.1 0 .3.1.3.3 0 .2.1 1.7.1 1.7s0 .5.1.7c.1.1.1.3.4.5.3.1.6.1.7 0 .1-.1 0-.4-.1-.5-.1-.1-.2 0-.3.1 0 .1 0 .2-.1.2s-.3-.1-.4-.4c0-.2-.1-1.6-.1-1.6.1-.2 0-.6-.1-.8-.1-.3-.2-.4-.4-.4s-.2.2-.2.2c-.1 0-.1-.2-.3-.1 0-.1 0 0 0 0z"/><path fill="#FFF" d="M90.6 84.7c-.3.6.6 1.8 1.1 1.9.2-.4-1-2.2-1.4-2.1-.1.2-.1.4-.1.5m-7.3-.9c.3-.2.8-.1.9.2-.3.3-1.3.3-.8-.2m3.3-1.5c.3-.2 1.2-2.2.9-2.5-.4-.4-1 2.3-1.1 2.5m4.4-1.3c-.5-1.4-.6-2.9-.5-4.3 0-.9.5-1.4.9-2.1.2-.4.2-.7.7-1 .4-.2.8-.3 1.1-.6 0 .4.1.8.1 1.1 0 .4-.7 1-.2 1.3.8-.3.7-2 .5-2.6-.1-.5-.3-.9-.9-.4-.4.4-.5 1.1-1.1 1.3-.3-.6.6-1 .7-1.6.2-1-.6-.3-.8.2-.4 1-.9 2.1-1.1 3.2-.2 1-.4 2.1-.3 3.1 0 .5.2 1.1.3 1.6 0 .1.1.7.2.8.3.2.6-.2.3-.5m-4.1-9.1c-.6 1 .4.9 1 .8-.1-.3-.6-.8-1-.8m1.2 2.9c.6-.5-.8-1.7-1.2-1.4-.6.5 1 1.3 1.2 1.4m6.1 9.7c-.2-.3-.8-1.3-.5-1.7.4-.6.7.9.3 1.3m-1.6-1.2c-.2-.4-.5-1.1.2-1.1.2.2.1.7.3.9.5.4.3-.6.1-.8-.2-.3-.5-.3-.6-.7-.1-.3.2-.8-.5-.8-.1.3.1.7.3.9-.6.2-.7 1.7.2 1.6" opacity=".04"/><path fill="#070707" d="M71.8 77s.7-.2.9 0c.2.2.6 4.2.6 4.5-.1.3-.7.5-.7.5s-.3-2.8-.4-3.1c-.2-.3-.4-1.9-.4-1.9zm2.7 23.9s1.3 1 1.5 1.5c.2.5.8 1.3.8 1.3s-.5-.1-.7 0c-.2.1-.5.2-.7 0-.2-.2-1.1-1.6-1.3-1.8-.2-.2-.9-.5-.7-.7.2-.2.8-.3.8-.3h.3zm-2 0s-2.6.2-3 .3c-.4.1-.9.4-.9.4s.1-.5 0-.7c-.1-.2 1-.2 1.5-.3.5-.1 2.4-.4 2.4-.4s.2-.1.4 0 0 .7 0 .7h-.4zm5.2-.8s-.2-.1-.6 0c-.4.2-.5-.1-.8 0-.3.1-1.3.4-1.3.4h-.4s-.5 0-.5-.2.8-.6 1.1-.6c.2-.1 1.2-.3 1.5-.2l.9.3v.3zM72.5 82l.7 16.8h.5L73.1 82zm.6 18s.3-.1.6 0c.2.1 0-1.1 0-1.1h-.4l-.3.5.1.6z"/><path fill="#070707" d="M73.3 101.2s.3-.4.5-.3c.3 0 .6-.3.6-.3s.2-.5-.2-.5h-1.1s-.3.4-.2.2c.2-.2 0 .7 0 .7l.4.2z"/><path fill="none" d="M88 89.9l-.8 12.5.4-.3.8-12.2z"/><path fill="#BA6D29" d="M89.1 80.2v-.5l.4.3v.6h-.4zm-1.9-.8h.4v.8h-.4z"/><path fill="#7C2517" d="M89.6 63.9l-1.1 13-1-.2 1-12.8z"/><path fill="none" d="M89.8 62.1v1.8l.4-.1V62z"/><path fill="#7C2517" d="M90.2 63.1l.5-.1s-.1.2 0 .2c.1.1.2.1.4.1.2-.1.4-.1.4-.3v-.5c-.1-.1-.2-.2-.3-.2-.1 0-.3-.1-.4.1-.1.1-.1.3-.1.3h-.5v.4z"/><path fill="#7C2517" d="M90.2 61.9c.1 0 .6.1.6.1s0-.5.4-.4c.4.1.5.2.5.3 0 .1-.1.3-.1.4 0 .1-.4.2-.5.2-.1 0-.3-.1-.3-.1h-.7l.1-.5z"/><path fill="#F6E1AD" d="M92.7 69.3s-.1.2-.3.1c-.2 0-.4-.1-.5-.3-.1-.2-.5-.4-.6-.5-.1-.1-.5-.3-.7-.5-.1-.1-.4-.3-.5-.5-.2-.2-.5-.6-.4-.6h.9c.2 0 .4.3.6.4.2.2.7.8.9.9.1.1.5.2.6.3.1.1 0 .5.1.5.1.2-.1.2-.1.2z"/><path fill="#030202" d="M92.3 69.4h-.1c-.2 0-.4-.1-.5-.3-.1-.2-.5-.4-.6-.5-.1-.1-.5-.3-.7-.5-.1-.1-.4-.3-.5-.5-.2-.2-.5-.6-.4-.6h.9c.2 0 .4.2.6.5.2.2.7.8.9.9.1.1.5.2.6.3.1.1 0 .3.1.4 0 .1-.3.3-.3.3z" opacity=".08"/><path fill="none" d="M96.9 78l-.4.5"/><circle cx="93.1" cy="69.8" r=".1" fill="none"/><path fill="#7C2517" d="M87.3 81.3s-.1-.3 0-.5c.1-.1.3-.2.6-.2s.8.2.9.3c.1.1.1.6.1.6h.2s.1-.6 0-.7c-.1-.1-.4-.5-.6-.6-.2-.1-.5-.3-.8-.3-.3 0-.5.2-.7.3-.2.1-.3.3-.2.4v.8h.3"/><path fill="none" d="M88.5 66.4l-1 10.3-.2 4.1v2.6m1.5-17.3l-1 10.7-.2 3.8v2.3l.4-2.3.5-3.7.6-11.2"/><path fill="none" d="M89.5 65.6l-1.4 11.3-.1 3.7-.1 3.6"/><path fill="#7C2517" d="M91.9 77s.7-.3.7-.1c.1.2.2.8.2.8s.7-.9.8-1.3c.1-.4-.3-3.1-.3-3.1s.1 1-.2 1.6c-.3.6-.8 1.3-.9 1.5-.2.2-.4.5-.4.5v.1z"/><path fill="#58180B" d="M92.5 78.1s-.4.3-.6.9c-.2.5-.1.4-.2 0s0-1 0-1.2c0-.2.2-.7.2-.7l.7-.1.2.8-.3.3z"/><path fill="#020202" d="M96.9 78c0 .1-.1.1-.2.1l-14-3.2c-.1 0-.1-.1-.1-.2s.1-.1.2-.1l13.9 3.2c.2 0 .2.1.2.2z"/><path fill="none" d="M83.1 75.4l13.4 3.1"/><path fill="#7C2517" d="M82.1 86.6s0 1.9 1 2.6c1 .7 4.3 1.7 5.6 1.6 1.3-.2 4-1 4.4-1.4.4-.4 1.6-1.7 1.6-2.5s.1-2.3 0-2.8c0-.5-.7-2-.7-2l-.4-.8-.2-.1v.5s.6 1.4.7 1.6c0 .2 0 1.3.1 1.7 0 .4.1.9-.2 1.5-.3.6-1.5 2.3-2.7 2.6-1.3.3-3.5.4-4.7.1-1.2-.3-2.5-.7-3.2-1.2-.8-.8-1.3-1.4-1.3-1.4zm9.7-7.4s0 .7.4 1.2c.7.8 1.2.7 1.2.7l.2.1s-.9-.6-1.3-1c-.4-.5-.5-1-.5-1z"/><path fill="#E9BA8B" d="M79.5 69.5l-1.6 1.1s-.3 0-.3.2-.1.4.3.7c.4.3 2.5 1.8 2.6 1.9.2.1.1.9.2 1.6.1.6.5 1.2 1.2 1.2.8 0 1.1-.1 1.1-.6s-.2-1.5-.5-1.8c-.2-.2-.8-.7-1-.8-.3-.1-1.3-1.5-1.5-1.7-.1-.2.4-.6.6-.7.2-.1.6-.5.9-.8.3-.2.5-.6.3-.5-.1 0-2.3.2-2.3.2z"/><path fill="#F6E1AD" d="M84 68.9s.5.8 1.2.5c.7-.3 1.1-1.7 1.1-1.7"/><path fill="#E9BA8B" d="M90.7 66.6h-.6c-.3 0-.4 0-.6.1-.2.1-.3.1-.2.3.1.1-.1.2.3.2h.8c.2 0 .5.1.5.1s.1.3.1.5c0 .1-.1.2.2.4.3.2.6.4.7.5.1.1.6.4.6.4.1 0 .3.2.3.2s.2-.8.1-.9c0-.1-1.4-1.5-1.4-1.7-.1-.1-.5-.9-.6-1.1-.1-.2-.1-.4-.3-.4-.2-.1-.2 0-.4 0h-.4c-.1.1-.3.1-.3.2s-.2.2 0 .3h.4c.2 0 .4-.1.5-.1.1 0-.4.2-.6.2-.1 0-.2 0-.3.2-.1.2-.2.2-.2.4.1.1 0 .3.2.2.2 0 .2-.1.4-.2.1-.1.2-.1.3-.1.2 0 .2-.1.3 0 .1.1.1.2.1.2.1 0 .1.1.1.1z"/><path fill="#E9BA8B" d="M92.4 69.2s1 2.9 2.1 3.1c1 .2 1.7.7 1.2-.7s-2.8-3.3-2.8-3.3"/><path fill="#146E78" d="M79.2 69.9l1.2.8 1.5-1.3s-1-.1-1.3 0c-.3 0-1.1.1-1.1.1l-.3.4z"/><path fill="#1D110B" d="M82.9 93.7s-1.4 1.1-2.3 1.6c-.9.5-1.1 1.5 0 1.4 1.1-.1 1.8-.1 2.6-.6s1.5 0 1.5 0v.6h.6s.2-1.1.1-1.5c-.1-.4-.5-1.7-.5-1.7l-2 .2zm8.4-1.7v1.8c0 .3.5 1.3.5 1.3l.6-.4.5-1.1.4 1.1s.9.3 1.4.4c.5.1 1.3.2 1.3.2s.5-1.4.5-1.5c0-.1-.5-.7-1-.9-.6-.2-1-.9-1-.9h-3.2z"/><path fill="#E9BA8B" d="M93.9 92.7s.2.6.6.9c.4.3.9 0 .9 0l-.8-1.1-.7-.5m-11.2 1.8c-.4.4-3.1 1.6-1.3 1.7.4 0 1.1-.3 1.4-.6.4-.3 1-1.3.1-1.2M75.3 66s.2 2.2.5 2.5c.4.3 1.6.9 4.4.8 3.2-.1 4.7-.5 6.1-1.3 1.2-.7 2.1-1.3 2.6-2s.8-1.1.8-1.7c.1-.6.1-1.2 0-1.3-.2-.1 0-2.5 0-2.9-.3-1.9-5.6-3-8.2-2.7-2.5.3-6.5 3.9-6.2 6.3.1.4 0 2.3 0 2.3z"/><path fill="#E9BA8B" d="M89.7 62.6s.5-.6.8-.4c.3.2.5.7.6 1 0 .3-.4 1.2-.6 1.2-.2 0-.5.1-.5.1l-.3-1.9zm-14.1 3.6s-.6-.3-.8-.1c-.2.3-.3.9-.3 1.2 0 .3.7 1 .9.9.2 0 .5-.1.5-.1l-.3-1.9z"/><linearGradient id="c" x1="23.72" x2="23.728" y1="317.217" y2="317.217" gradientTransform="rotate(-18.827 -705.713 36.002)" gradientUnits="userSpaceOnUse"><stop offset="0" stop-color="#746046"/><stop offset=".973" stop-color="#a0542b"/><stop offset="1"/></linearGradient><path fill="url(#c)" d="M75.5 66.8h-.1"/><linearGradient id="d" x1="23.955" x2="24.015" y1="317.134" y2="317.134" gradientTransform="rotate(-18.827 -705.713 36.002)" gradientUnits="userSpaceOnUse"><stop offset="0" stop-color="#746046"/><stop offset=".973" stop-color="#a0542b"/><stop offset="1"/></linearGradient><path fill="url(#d)" d="M75.6 66.6h.1"/><linearGradient id="e" x1="23.918" x2="24.084" y1="317.128" y2="317.128" gradientTransform="rotate(-18.827 -705.713 36.002)" gradientUnits="userSpaceOnUse"><stop offset="0" stop-color="#746046"/><stop offset=".973" stop-color="#a0542b"/><stop offset="1"/></linearGradient><path fill="url(#e)" d="M75.6 66.6h.2"/><linearGradient id="f" x1="23.849" x2="24.199" y1="317.14" y2="317.14" gradientTransform="rotate(-18.827 -705.713 36.002)" gradientUnits="userSpaceOnUse"><stop offset="0" stop-color="#746046"/><stop offset=".973" stop-color="#a0542b"/><stop offset="1"/></linearGradient><path fill="url(#f)" d="M75.5 66.7l.4-.2"/><path fill="#030305" d="M85.2 62.7c0 .1-.1.3-.2.3s-.2-.1-.2-.2.1-.3.2-.3.2.1.2.2zm-4 1.2c0 .1-.1.3-.2.3s-.2-.1-.2-.2.1-.3.2-.3.2.1.2.2z"/><path fill="none" d="M83.1 64.5s.1-.4.5-.4.5.2.5.2"/><linearGradient id="g" x1="93.044" x2="91.351" y1="323.94" y2="323.94" gradientTransform="rotate(-9.986 -1390.83 268.4)" gradientUnits="userSpaceOnUse"><stop offset="0" stop-color="#ec1475"/><stop offset="1" stop-color="#fff5cb"/></linearGradient><path fill="url(#g)" d="M78.5 66.1c.1.5.5.8.9.7.5-.1.8-.6.7-1-.1-.5-.5-.8-.9-.7-.4.1-.7.5-.7 1z" opacity=".18"/><linearGradient id="h" x1="98.787" x2="100.76" y1="323.728" y2="323.728" gradientTransform="rotate(-9.986 -1390.83 268.4)" gradientUnits="userSpaceOnUse"><stop offset="0" stop-color="#ec1475"/><stop offset="1" stop-color="#fff5cb"/></linearGradient><path fill="url(#h)" d="M87.7 64.2c.1.5-.3 1-.8 1.1-.5.1-1-.2-1.1-.7-.1-.5.3-1 .8-1.1.6-.1 1.1.2 1.1.7z" opacity=".18"/><path fill="#F5AC36" d="M75 66.6c1.5-.6 2-.7 2.6-2.3.5-1.4.9-2.2-.6-2.9-1.7-.8-1.8-.1-2 1.5-.2 1.3-.5 2.3.4 3.3"/><path fill="#F5AC36" d="M80.9 59.6c1 1.2 3.1 1.6 4.6 1.5 1.5-.1 3.3-.6 4.1 1.1.7-1.3.5-2.8-.6-3.6-1.3-.9-4.1-1.5-5.4-1.7-3-.4-6.9 1.2-8.1 4.1.4.1.9-.1 1.4 0 .6.2.8 1 1.3 1.1.9.2 1.9-2.5 2.4-3.1"/><path fill="#F5AC36" d="M79 58.1c-.1-.5-1-.5-1.4-.5-.5 0-1 0-1.5.1-.6.1-1.1.4-1.6.8-.4.5-.5.9-.5 1.6 0 .5.1 1 .3 1.5.1.3.5 1.5.8 1 .1-.2.2-.5.2-.7.1-.3.2-.5.4-.8.3-.5.7-1.1 1.2-1.4l1.2-.9c.2-.1 1.2-.6.7-.8"/><path fill="#EF4D61" d="M84 66c-.4-.2-1.1.1-.8.6.2.4.9 0 1.2-.1.3-.1 1.1-.2.8-.8-.4-.6-.9 0-1.1.3" opacity=".18"/><path fill="none" d="M83.3 66.6c.3-.1.6-.3.8-.4.2-.1.6-.4.9-.4"/><ellipse cx="75.5" cy="68.3" fill="#146E78" rx=".4" ry=".3"/><ellipse cx="90.1" cy="64.3" fill="#146E78" rx=".4" ry=".3"/><path fill="#F6E1AD" d="M137.2 74.3c-.5-.8-2.8-1.8-3.7-2.3-.5-.3-2.8-1.7-2.4-2.3.7-1.1 2.6.7 3 1.1 1 .8 1.9.7 2.6 1.8"/><path fill="#146E78" d="M131.7 69.1s1.3 1.3 1.6 1.3c.3 0-.2 1.2-.2 1.2l-1.9-1.8.5-.7z"/><path fill="#146E78" d="M124.8 71.4c.3.8 0 1.3.1 2 0 .3.1.7.1 1.1 0 .4.6.8.6 1.3 0 .7.1 1.4 0 2.1 0 .7-.7 1.7-.1 2 .3.1 1.8 0 2.2.1.8.1 1.6.1 2.4.2.8 0 1.5.2 2.2.3.4.1 2 .6 2.4.4.8-.5.9-3.6.9-4.4 0-1.6-.5-3.2-1.7-4.4-.7-.7-1.5-1.2-2.2-1.9-.9-.8-.9-1.2-2.1-.4-1.1.7-3.3 2.4-4.7 1.4m-1.6 14s.4 1.3 0 1.5c-.4.2-1.2-.6-1 .6.2 1.1 1 1.8 1 2.1 0 .2.1 1.2.2 1.8.2.6.5.3.8.9.3.6 1.5 3.4 1.3 3.8-.2.4-.1.7.6.6.7-.1 1.4-.3 1.4-.3s.3-2.1.3-2.7c-.1-.6 0-1.4 0-2.3 0-.9 4.1-6 4.1-6l4.8 3.8s-.9 3.9-1 4.3c-.2.4-1 1.6-1 1.6s2.9.1 3.3-.1c.4-.1.2-1.2.4-2s.4-2.6.6-2.6c.2-.1.8-2.7.7-3.5-.1-.8-.4-3-1.2-3.6-.8-.6-1.8-1.7-1.8-1.7s-8.6-.7-8.8-.8c-.2-.2-1.6-.1-1.9 0-.4.1-1.5 1-1.5 1l-1.3 3.6z"/><path fill="#303030" d="M106.1 77.5h18.3l1.2 7.6h-18.4z"/><path fill="#BA5427" d="M129.3 73.3s-.9.5-1.4 1.2c-.4.7-.6 1.2-.7 2.1-.1.9.6 1.2.6 1.6.1.4 1 1 .9 1.6-.1.5-.2 2.4-.8 2.9-.6.5-1.1 1-1.1 1h-.4s.4.5 0 .9c-.4.3-1.3 1.6-1.3 2.5 0 1-.2 2 .4 2.7.6.7 3 1.7 3.7 1.8.7.1 1.2.1 1.9 0s1.8.5 2.8.1c1.1-.5 1.9-1 2.5-1.4.6-.4.9-1.3 1-1.6.1-.3.1-2.1 0-2.7-.1-.6-.7-1.8-.7-1.8v-.5l-.8-.3s-.4-.3-.6-.8c-.3-.5-.1-1.6-.2-1.9-.1-.3.4-1.3.4-1.3l.6-.1s.4-1.4.7-1.9c.3-.5.2-1.9-.1-2.5-.3-.6-1.4-1-2-1.5-.6-.5-1.4-.5-1.4-.5l-.5.3s-1.6.4-1.5.1c.1-.3-.4-.4-.9-.5-.2-.1-.5 0-.6.1-.2.2-.5.4-.5.4z"/><path fill="#7C2517" d="M126 91.4s-.3.5 1.1 1.2c1.4.6 2.4.9 3.5.9s3.1-.1 4.2-.4c1.1-.3 2.1-1.3 2.4-1.6.4-.3 1.2-1.2 1-1.7-.1-.5.3-2.6 0-3-.3-.3-.7-.6-.7-.6s.2 2.1.1 2.4c-.1.3-1 1.9-1.3 2.1-.3.2-1.3.9-2 1.1-.7.3-1.7.3-2.1.2-.4-.1-.9-.1-1.2-.1-.3 0-1.9 0-2.4-.2s-2-.9-2.3-1.1c-.3-.2-.7-.5-.7-.5v.9l.4.4z"/><path fill="#020202" d="M130.2 85.3s.6-.2.9-.2c.3.1.8 0 .8.2 0 .1-.6 3.3-.6 3.6V91c0 .1-.1.3-.3.3-.2 0-.3-.1-.3-.1s.1-3.1.1-3.2c0-.2-.2-.8-.3-1.1-.2-.3-.1-.8-.1-.8-.3-.4-.2-.8-.2-.8z"/><path fill="none" d="M130.9 92.6s.2-.4.5-.3c.3.1.4.3.4.3l-.5.4-.4-.4z"/><path fill="#7C2517" d="M129.8 81.7h.2c.1 0 .1-.3 0-.4-.1-.1-.3-.1-.5-.1-.1 0-.5.5-.5.7 0 .2-.1 1.1-.1 1.3 0 .2-.1.8-.2.9-.1.1-.2.3-.3.3-.1 0-.2.1-.2 0s-.1-.2-.2-.2-.3 0-.2.2c.1.2.1.3.4.3.2 0 .6-.2.7-.3.1-.1.3-1.3.3-1.5 0-.2-.1-.8 0-.9.1-.1.2-.4.4-.4.1 0 .2 0 .2.1s-.1.2-.1.2l.1-.2zm3.6-.4s-.1.3 0 .4c.1.1.2.1.3 0 .1 0 .1-.2.1-.3.1 0 .3.1.3.3 0 .2.1 1.7.1 1.7s0 .5.1.7c.1.1.1.3.4.5.3.1.6.1.8 0 .2-.1.1-.4-.1-.5-.1 0-.3.1-.3.1 0 .1 0 .2-.1.2s-.3-.1-.4-.4c-.1-.2-.1-1.6-.1-1.6.1-.2 0-.6-.1-.8-.1-.3-.2-.4-.4-.4s-.2.1-.2.2c-.1 0-.1-.2-.1-.2-.3 0-.3.1-.3.1z"/><path fill="#FFF" d="M134 87.4c-.3.6.6 1.8 1.2 1.9.2-.4-1-2.2-1.4-2.1-.1.2-.1.4-.1.5m-7.8-.9c.4-.2.8-.1 1 .2-.3.3-1.4.3-.9-.2m3.5-1.5c.4-.2 1.3-2.2 1-2.5-.5-.4-1 2.3-1.2 2.5M134 84c-.5-1.4-.6-2.8-.6-4.3 0-.9.5-1.4.9-2.1.2-.4.2-.7.7-1 .4-.2.8-.2 1.2-.6-.1.4.1.8.1 1.1 0 .4-.7 1-.3 1.3.8-.3.7-2 .5-2.6-.1-.5-.3-.9-.9-.4-.4.4-.6 1.1-1.1 1.3-.3-.6.6-1 .7-1.6.2-1-.6-.3-.8.2-.4 1-.9 2.1-1.1 3.2-.2 1-.4 2.1-.3 3.1.1.5.2 1.1.3 1.6 0 .1.1.7.2.8.4.2.6-.2.3-.5m-4.3-9c-.7 1 .4.9 1 .8 0-.3-.6-.8-1-.8m1.3 2.8c.6-.5-.9-1.7-1.3-1.4-.6.5 1.1 1.3 1.3 1.4m6.4 9.7c-.2-.3-.8-1.3-.6-1.7.4-.6.7.9.4 1.3m-1.8-1.2c-.2-.4-.5-1.1.3-1.1.2.2.1.7.3.9.6.4.3-.6.1-.8-.2-.3-.5-.3-.6-.7-.2-.3.2-.8-.5-.8-.1.3.1.7.3.9-.7.2-.7 1.7.1 1.6" opacity=".04"/><path fill="#070707" d="M114.3 79.7s.8-.2 1 0c.2.2.7 4.2.6 4.5-.1.3-.8.5-.8.5s-.3-2.8-.5-3.1c-.1-.3-.3-1.9-.3-1.9zm2.8 23.9s1.3 1 1.6 1.5c.3.5.8 1.3.8 1.3s-.5-.1-.8 0c-.3.1-.6.2-.8 0-.2-.2-1.1-1.6-1.4-1.8-.3-.2-1-.5-.7-.7.2-.2.8-.3.8-.3h.5zm-2 0s-2.7.2-3.1.3c-.4.1-1 .4-1 .4s.1-.5 0-.7c-.1-.2 1-.2 1.6-.3.6-.1 2.5-.4 2.5-.4s.2-.1.4 0 0 .7 0 .7h-.4zm5.4-.7s-.2-.1-.6 0c-.4.1-.5-.1-.8 0-.3.1-1.3.4-1.3.4h-.4s-.5 0-.5-.2.9-.6 1.1-.6c.3-.1 1.3-.3 1.6-.2.3.1 1 .3 1 .3v.3zm-5.4-18.2l.7 16.8h.5l-.6-16.8zm.6 18s.3-.1.6 0 0-1.1 0-1.1h-.5l-.2.6.1.5z"/><path fill="#070707" d="M115.8 103.9s.3-.4.5-.3c.3 0 .7-.3.7-.3s.3-.5-.3-.5h-1.1s-.3.4-.2.2c.2-.2 0 .7 0 .7l.4.2z"/><path fill="none" d="M131.3 92.6l-.8 12.5.4-.3.9-12.2z"/><path fill="#BA6D29" d="M132.5 83v-.6l.4.3v.6h-.4zm-2-.8h.4v.7h-.4z"/><path fill="#7C2517" d="M133 66.6l-1.2 13-1-.1 1.1-12.9z"/><path fill="none" d="M133.2 64.8v1.8l.4-.1v-1.7z"/><path fill="#7C2517" d="M133.7 65.8l.6-.1s-.1.2 0 .2c.1.1.2.1.5.1.2-.1.4-.1.4-.3v-.4c-.1-.1-.2-.2-.4-.2-.1 0-.3-.1-.4.1-.1.1-.1.3-.1.3h-.6v.3z"/><path fill="#7C2517" d="M133.7 64.7c.1 0 .7.1.7.1s0-.5.4-.4c.4.1.5.2.5.3 0 .1-.2.3-.1.4 0 .1-.4.2-.6.2-.1 0-.3-.1-.3-.1h-.7l.1-.5z"/><path fill="#F6E1AD" d="M136.2 72s-.1.2-.3.1c-.2 0-.4-.1-.5-.3-.1-.2-.5-.4-.6-.5-.1-.1-.5-.3-.7-.5-.1-.1-.4-.3-.5-.5-.2-.2-.5-.6-.5-.6h1c.2 0 .5.2.7.5l.9.9c.1.1.5.2.6.3.1.1 0 .5.1.5 0 .2-.2.1-.2.1z"/><path fill="#030202" d="M135.8 72.2h-.1c-.2 0-.4-.1-.5-.3-.1-.2-.5-.4-.6-.5-.1-.1-.6-.3-.7-.5-.1-.1-.4-.3-.6-.5-.2-.2-.5-.6-.5-.6h1c.2 0 .5.2.7.4l.9.9c.1.1.5.2.6.3.1.1 0 .3.1.4 0 .1-.3.4-.3.4z" opacity=".08"/><path fill="none" d="M140.6 80.7l-.4.5"/><circle cx="136.6" cy="72.5" r=".1" fill="none"/><path fill="#7C2517" d="M130.6 84s-.1-.3 0-.5c.1-.1.4-.2.7-.2.3 0 .8.2.9.3.1.1.1.6.1.6h.2s.1-.6 0-.7c-.1-.1-.4-.5-.6-.6-.2-.1-.6-.3-.9-.3-.3 0-.5.2-.7.3-.2.1-.3.3-.2.4v.8h.3"/><path fill="none" d="M131.9 69.1l-1.1 10.4-.2 4.1v2.5"/><path fill="none" d="M132.1 68.8l-1 10.7-.2 3.8v2.3l.4-2.2.5-3.8.6-11.1"/><path fill="none" d="M132.9 68.3l-1.5 11.3-.1 3.8-.1 3.6"/><path fill="#7C2517" d="M135.4 79.7s.7-.3.8-.1c.1.2.2.8.2.8s.7-.9.9-1.3c.1-.4-.3-3.1-.3-3.1s.1 1-.2 1.6c-.3.6-.8 1.3-1 1.5-.2.2-.4.5-.4.5v.1z"/><path fill="#58180B" d="M136 80.8s-.4.3-.6.9c-.2.5-.1.4-.2 0s.1-1 0-1.2c-.1-.2.2-.7.2-.7l.8-.1.2.8-.4.3z"/><path fill="#020202" d="M140.6 80.7c0 .1-.1.1-.2.1l-14.6-3.2c-.1 0-.1-.1-.1-.2s.1-.1.2-.1l14.6 3.2c.1.1.2.1.1.2z"/><path fill="none" d="M126.2 78.1l14 3.1"/><path fill="#7C2517" d="M125.1 89.3s0 1.9 1 2.6c1 .7 4.5 1.7 5.9 1.6 1.4-.2 4.2-1 4.6-1.4.4-.4 1.6-1.7 1.7-2.5 0-.8.1-2.3 0-2.8 0-.5-.8-2-.8-2l-.4-.8-.3-.1v.5s.6 1.4.7 1.6c0 .2 0 1.3.1 1.7 0 .4.1.9-.2 1.5-.3.6-1.5 2.3-2.8 2.6-1.3.3-3.7.4-4.9.1-1.3-.3-2.7-.7-3.3-1.2-.8-.7-1.3-1.4-1.3-1.4zm10.2-7.4s0 .7.4 1.2c.7.8 1.2.7 1.2.7l.3.1s-.9-.6-1.3-1c-.5-.5-.6-1-.6-1z"/><path fill="#F6E1AD" d="M122.4 72.2l-1.7 1.1s-.3 0-.3.2-.1.4.3.7c.5.3 2.6 1.8 2.7 1.9.2.1.1.9.2 1.6.1.6.5 1.2 1.3 1.2s1.2-.1 1.2-.6-.2-1.5-.5-1.8c-.2-.2-.8-.7-1.1-.8-.3-.1-1.4-1.5-1.5-1.7-.1-.2.5-.6.7-.7.2-.1.6-.5 1-.8.4-.2.6-.6.3-.5-.3 0-2.6.2-2.6.2zm4.7-.6s.5.8 1.3.5c.8-.3 1.1-1.7 1.1-1.7"/><g fill="#F6E1AD"><path d="M116.9 68.9s.2 2.2.6 2.5c.4.3 1.8.9 5 .8 3.6-.2 5.3-.6 6.8-1.3 1.3-.7 2.3-1.4 2.9-2 .6-.7.9-1.1.9-1.7.1-.6.2-1.2 0-1.4-.2-.1 0-2.6 0-3-.3-2-6.2-3.2-9.2-2.8-2.8.4-7.3 4.1-7 6.5v2.4z"/><path d="M117.1 69.2s-.7-.4-.9-.1-.4.9-.3 1.2c0 .3.8 1 1 1 .2 0 .6-.1.6-.1l-.4-2zm.1.4l.1-.1m-.2.1l.2-.1m-.1.1l.1-.1m-.2.1l.3-.1"/></g><path fill="#030305" d="M128.6 65.4c0 .2-.7.4-.9.4-.1 0-.2-.1-.3-.2 0-.1.1-.3.2-.3.2 0 1 0 1 .1zm-5.1 1.4c0 .2-.1.3-.2.3s-1 .1-1-.1c0-.1.8-.4.9-.5.1 0 .2.1.3.3z"/><path fill="none" d="M125.6 67.3s.1-.4.5-.4.6.2.6.2"/><path fill="#FFF" d="M130.7 66.5s-4 2.8-4.5 3c-.4.2-5.7-.4-5.7-.4s3.2.2 5.6-.3c2.4-.5 4.6-2.3 4.6-2.3z"/><linearGradient id="i" x1="134.004" x2="132.112" y1="334.1" y2="334.1" gradientTransform="rotate(-9.986 -1390.83 268.4)" gradientUnits="userSpaceOnUse"><stop offset="0" stop-color="#ec1475"/><stop offset="1" stop-color="#fff5cb"/></linearGradient><path fill="url(#i)" d="M120.4 69c.1.5.5.8 1.1.7.5-.1.9-.6.8-1.1-.1-.5-.5-.8-1.1-.7-.5.1-.8.6-.8 1.1z" opacity=".18"/><linearGradient id="j" x1="140.423" x2="142.627" y1="333.991" y2="333.991" gradientTransform="rotate(-9.986 -1390.83 268.4)" gradientUnits="userSpaceOnUse"><stop offset="0" stop-color="#ec1475"/><stop offset="1" stop-color="#fff5cb"/></linearGradient><path fill="url(#j)" d="M130.8 67.1c.1.5-.3 1-.9 1.1-.6.1-1.1-.2-1.2-.7-.1-.5.3-1 .9-1.1.5-.2 1.1.1 1.2.7z" opacity=".18"/><path fill="#63220C" d="M121.9 62.9c.6.4.8.8 1.5 1.1.5.2 1 .3 1.6.2 1.1-.3 2.2-.7 3.4-.6 1.5.1 2.2.9 2.8 2.1l.6 1.5c.1.3 0 1.4.3 1.5.4-.3.7-.7 1-1.1.4-.4.8-.7.9-1.2.2-.8-.1-1.7-.2-2.5-.2-2.1-2.2-3.8-3.9-4.9-1.9-1.1-4.6-1.5-6.7-.8-1.1.3-1.9 1.1-2.4 2-.4.8-.4 1.9.5 2.4.2.3.4.3.6.3"/><path fill="#63220C" d="M119.8 71.6c.2.4.2.9.3 1.3.1.4.5.9.3 1.3-.3.6-1.8.4-2.3.4-.4 0-.8-.1-1.2-.1-.3 0-.4-.1-.6-.4-.2-.2-.5-1-.5-1.3-.1-.5-.1-.9-.2-1.4-.1-.9-.1-1.8.1-2.7.1-.8.4-2 .7-2.7.3-.9.5-1.7 1.2-2.4.6-.7 2.3-3.2 3.2-3.2 0 .4.3 1.7.5 2.1.3.4.6.4.9.8.5.7-.7 2.7-1 3.4-.4.8-.8 1.6-1.1 2.5-.3.7-.5 1.8-.3 2.4"/><path fill="#F6E1AD" d="M134.1 69.4h-.6c-.3 0-.5 0-.7.1-.2.1-.3.1-.2.3.1.1-.1.2.3.2h.9c.2 0 .5.1.5.1s.1.3.1.5c0 .1-.1.2.2.4.3.2.6.4.8.5.1.1.6.4.7.4.1 0 .3.2.3.2s.2-.8.1-.9c0-.1-1.5-1.5-1.5-1.7-.1-.1-.5-.9-.6-1.1-.1-.2-.1-.4-.4-.4-.2-.1-.3 0-.5 0h-.4c-.1.1-.3.1-.3.2s-.2.2 0 .3h.4c.2 0 .4-.1.5-.1.1 0-.5.2-.6.2-.1 0-.2 0-.3.2-.1.2-.3.2-.2.4.1.1 0 .3.2.2.2 0 .2-.1.4-.2.1-.1.2-.1.3-.1s.2-.1.3 0c.1.1.1.2.2.2s.1.1.1.1z"/><path fill="#F6E1AD" d="M135.9 71.9s1.1 2.9 2.2 3.1c1.1.2 1.8.7 1.3-.7s-3-3.3-3-3.3"/><path fill="#146E78" d="M122.1 72.6l1.3.8 1.6-1.3s-1.1-.1-1.4 0c-.3 0-1.2.1-1.2.1l-.3.4z"/><path fill="#1D110B" d="M126 96.4s-1.5 1.1-2.4 1.6c-.9.5-1.2 1.5 0 1.4 1.2-.1 1.9-.1 2.7-.6.8-.5 1.6 0 1.6 0v.6h.7s.2-1.1.1-1.5c-.1-.4-.5-1.7-.5-1.7l-2.2.2zm8.8-1.7v1.8c0 .3.5 1.3.5 1.3l.6-.4.5-1.1.4 1.1s1 .3 1.5.4c.6.1 1.3.2 1.3.2s.5-1.4.5-1.5c0-.1-.5-.7-1.1-.9-.6-.2-1-.9-1-.9h-3.2z"/><path fill="#F6E1AD" d="M137.5 95.4s.2.6.7.9c.4.3 1 0 1 0l-.8-1-.8-.6m-11.8 1.8c-.4.4-3.3 1.6-1.4 1.7.4 0 1.2-.3 1.5-.6.5-.3 1.1-1.3.1-1.2"/><path fill="#146E78" d="M52.7 89.6s.4 1.5 0 1.7c-.4.2-1.3-.6-1.1.6.3 1.3 1 2.1 1 2.3 0 .3.1 1.4.3 2.1.2.7.5.3.8 1 .3.7 1.6 3.9 1.4 4.3-.2.4-.1.8.6.7.7-.1 1.6-.4 1.6-.4s.4-2.3.3-3c-.1-.7 0-1.6 0-2.6s4.5-6.8 4.5-6.8l5.2 4.3s-.9 4.4-1.1 4.8c-.2.4-1.1 1.8-1.1 1.8s3.1.1 3.5-.1c.4-.1.2-1.4.4-2.3.2-1 .4-2.9.6-3 .2-.1.8-3 .7-4-.1-1-.4-3.4-1.3-4.1-.9-.7-1.9-1.9-1.9-1.9s-9.2-.8-9.4-.9c-.2-.2-1.7-.1-2.1 0-.4.1-1.6 1.1-1.6 1.1l-1.3 4.4z"/><path fill="#146E78" d="M57.3 70.3s-1.8.6-2.2.7c-.3.1-1.7.1-2.2.5-.5.4-.5 1.2-.8 1.6-.3.4-1.5 1.6-1.9 2.1-.4.5-1.7.5-1.7 1.6s1.5 3.1 2 3.6 1.6 0 1.6 0 .1-1.1.3-1.6c.2-.4 1-.4 1-.4s-.7-.3-.5-.7c.2-.4 1-1.2 1-1.2l.4 9.9s2.9-.5 3-.3c.1.2 8.2 1.3 8.6 1.3.3 0 2.2-7.4 2.3-7.8.1-.4 0-.3.8-.1.8.1 1.2.4 1.7-.6.4-1 .1-2.2-.7-3l-2.4-2.1v1.3l-.3.5-.8-.4s1-2 .8-2.5c-.2-.4-.5-1.3-.8-1.4-.3-.1-1.7-.3-1.7-.3l-2.6-.7h-4.9z"/><path fill="#F6F6D0" d="M58.6 84.3l5.7-2.7-2.8-9.2s-2.5 1.7-3 1.7c-.6 0-2.7.5-2.7.5s.1 1.3.5 2.3c.4 1.1.8 2.5.8 2.5l.6 2.2.9 2.7z"/><path fill="#303030" d="M34.1 80.9h19.8l1.2 8.6H35.3z"/><path fill="#BA5427" d="M59.2 76.2s-1 .6-1.5 1.4c-.5.8-.7 1.4-.8 2.4-.1 1 .6 1.3.7 1.8.1.5 1.1 1.2.9 1.8-.2.6-.2 2.7-.9 3.3l-1.2 1.2h-.5s.4.6 0 1-1.4 1.8-1.4 2.9c0 1.1-.2 2.3.5 3.1.7.8 3.3 2 4 2 .8.1 1.3.1 2.1 0s1.9.6 3.1.1c1.2-.5 2.1-1.1 2.7-1.6.6-.5.9-1.5 1.1-1.9.2-.4.1-2.3 0-3-.1-.7-.8-2-.8-2v-.5l-.9-.3s-.4-.4-.7-.9c-.3-.6-.2-1.8-.2-2.1-.1-.3.5-1.5.5-1.5l.6-.2s.5-1.5.8-2.2c.3-.6.2-2.2-.1-2.9-.3-.7-1.6-1.2-2.2-1.7-.6-.5-1.6-.5-1.6-.5l-.4.3s-1.7.5-1.6.1c.1-.4-.4-.5-.9-.6-.2-.1-.5 0-.7.2-.3.1-.6.3-.6.3z"/><path fill="#7C2517" d="M55.6 96.6s-.3.6 1.2 1.3c1.6.7 2.6 1 3.8 1 1.2 0 3.3-.2 4.5-.5 1.2-.3 2.2-1.5 2.6-1.9.4-.4 1.2-1.4 1.1-1.9-.2-.5.4-2.9 0-3.3-.3-.4-.8-.7-.8-.7s.2 2.4.1 2.7c-.1.3-1.1 2.1-1.4 2.4-.4.3-1.4 1-2.1 1.3-.8.3-1.8.3-2.3.2-.5-.1-1-.1-1.3-.1-.3 0-2.1 0-2.6-.2s-2.1-1-2.5-1.2c-.3-.2-.8-.6-.8-.6v1l.5.5z"/><path fill="#020202" d="M60.1 89.7s.6-.2.9-.2c.3.1.8 0 .8.2 0 .1-.6 3.8-.6 4V96c0 .1-.2.3-.3.3-.2 0-.3-.1-.3-.1s.1-3.5.1-3.7c0-.2-.2-.9-.3-1.3-.2-.3-.1-.8-.1-1-.3 0-.2-.5-.2-.5z"/><path fill="none" d="M60.8 98s.3-.4.6-.4c.3.1.4.4.4.4l-.6.4-.4-.4z"/><path fill="#7C2517" d="M59.7 85.7h.2c.1 0 .1-.4 0-.5-.1-.1-.4-.2-.5-.1-.2.1-.5.6-.5.8 0 .2-.1 1.2-.1 1.4 0 .2-.1.9-.2 1-.1.1-.2.3-.3.4-.1 0-.2.1-.2 0s-.1-.2-.2-.2-.3 0-.2.2c.1.2.2.3.4.3.3 0 .6-.2.7-.4.1-.2.3-1.5.3-1.7 0-.2-.1-.9 0-1 .1-.1.2-.5.4-.5s.3 0 .3.1-.1.2-.1.2zm3.9-.5s-.1.4 0 .4c.1.1.3.1.4 0 .1-.1.1-.3.1-.3.1 0 .3.1.3.4 0 .2.1 1.9.1 1.9 0 .1 0 .6.1.8.1.2.1.4.4.5.3.2.6.1.8 0 .2-.1.1-.5-.1-.5-.1-.1-.3.1-.3.2s0 .3-.1.2c-.1 0-.4-.1-.4-.4-.1-.3-.1-1.8-.1-1.8.1-.2 0-.6-.1-1-.1-.3-.2-.4-.5-.4-.2 0-.2.2-.3.2-.1 0-.1-.2-.2-.3-.1 0-.1.1-.1.1z"/><path fill="#FFF" d="M64.2 92.1c-.3.7.6 2.1 1.3 2.1.3-.4-1.1-2.4-1.5-2.4-.1.2-.1.4-.1.6m-8.4-1c.4-.3.9-.2 1.1.3-.4.3-1.5.3-.9-.3m3.7-1.6c.4-.2 1.4-2.4 1-2.8-.5-.4-1.1 2.6-1.3 2.8m5.1-1.5c-.6-1.6-.7-3.2-.6-4.9 0-1 .6-1.5 1-2.3.3-.5.2-.8.7-1.1.4-.3.9-.3 1.3-.7-.1.4.1.9.1 1.3 0 .5-.8 1.1-.3 1.4.9-.3.8-2.2.6-2.9-.1-.5-.3-1.1-1-.4-.4.4-.6 1.3-1.2 1.5-.3-.6.7-1.2.8-1.8.2-1.1-.6-.4-.9.2-.5 1.2-1 2.4-1.2 3.6-.2 1.1-.5 2.4-.4 3.5.1.6.2 1.2.4 1.8 0 .2.1.8.3.9.4.3.7-.2.4-.6m-4.8-10.3c-.7 1.1.4 1 1.1.9-.1-.4-.7-.9-1.1-.9m1.3 3.2c.6-.5-.9-1.9-1.4-1.6-.6.6 1.3 1.5 1.4 1.6m6.9 10.9c-.2-.3-.9-1.5-.6-1.9.4-.6.8 1 .4 1.4m-1.9-1.2c-.2-.5-.6-1.2.3-1.3.2.3.1.8.3 1 .6.4.3-.7.2-.9-.3-.4-.5-.4-.7-.8-.2-.4.2-.9-.5-.9-.1.4.1.8.3 1-.8.3-.8 2 .1 1.9" opacity=".04"/><path fill="#070707" d="M43 83.4s.8-.3 1 0c.2.3.7 4.7.6 5.1-.1.4-.8.6-.8.6s-.4-3.1-.5-3.5c-.1-.3-.3-2.2-.3-2.2zm3 27s1.4 1.2 1.7 1.7l.9 1.5s-.5-.1-.8 0c-.3.1-.6.3-.8 0-.2-.3-1.2-1.9-1.5-2.1-.3-.2-1-.6-.8-.8.3-.2.9-.3.9-.3h.4zm-2.2 0s-2.9.3-3.4.3c-.5.1-1 .4-1 .4s.1-.5 0-.8c-.1-.2 1.1-.2 1.7-.3.6-.1 2.7-.5 2.7-.5s.3-.1.5 0 0 .8 0 .8l-.5.1zm5.8-.8s-.2-.2-.7 0-.5-.1-.9 0c-.3.1-1.5.4-1.5.4h-.4s-.5 0-.5-.3c0-.2 1-.6 1.2-.7.3-.1 1.4-.3 1.7-.3.3.1 1 .3 1 .3v.6zm-5.8-20.5l.8 19h.5l-.6-19zm.7 20.3s.4-.1.6 0c.3.1 0-1.3 0-1.3h-.5l-.2.6.1.7z"/><path fill="#070707" d="M44.7 110.8s.3-.4.6-.4.7-.4.7-.4.3-.6-.3-.6h-1.2l-.2.2c.2-.2 0 .8 0 .8l.4.4z"/><path fill="none" d="M61.3 98l-.9 14.1.5-.3.9-13.8z"/><path fill="#BA6D29" d="M62.6 87.1v-.6l.4.3v.7h-.4zm-2.2-.9h.5l-.1.9-.4-.1z"/><path fill="#7C2517" d="M63.1 68.6l-1.3 14.7-1.1-.2 1.2-14.5z"/><path fill="none" d="M63.4 66.6v2l.3-.1.1-2z"/><path fill="#7C2517" d="M63.8 67.7l.6-.1s-.1.2 0 .3c.1.1.3.2.5.1s.4-.1.5-.3v-.5c-.1-.1-.2-.3-.4-.3s-.4-.1-.4.1c-.1.1-.1.3-.1.3h-.6v.4z"/><path fill="#7C2517" d="M63.8 66.5c.1 0 .7.1.7.1s0-.6.5-.4c.4.2.6.2.6.3 0 .1-.2.3-.1.4 0 .1-.5.2-.6.2-.1 0-.3-.1-.3-.1h-.8v-.5z"/><linearGradient id="k" x1="63.291" x2="66.765" y1="73.583" y2="73.583" gradientUnits="userSpaceOnUse"><stop offset="0" stop-color="#746046"/><stop offset=".973" stop-color="#a0542b"/><stop offset="1"/></linearGradient><path fill="url(#k)" d="M66.6 74.7s-.1.2-.3.2c-.2 0-.4-.1-.5-.3-.1-.2-.5-.4-.6-.5-.1-.1-.6-.4-.7-.5-.2-.2-.4-.3-.6-.5-.2-.2-.5-.6-.5-.7h1c.2 0 .5.3.7.5.2.2.8.9 1 1 .2.1.5.2.7.3.1.1 0 .5.1.6-.1 0-.3-.1-.3-.1z"/><path fill="#1D110B" d="M54.8 102.3c-1.2.5-6.3 1.6-2.7 3.5 2.2 1.1 4-1.7 5.9-2.1.2-1.6-1.2-2-2.5-1.4m9.9-2.3c1.2.9 8.7-.1 5.3 3.5-2.4 2.5-8.3-1.8-5.3-3"/><path fill="#030202" d="M66.4 74.9h-.1c-.2 0-.4-.1-.5-.3-.1-.2-.5-.4-.6-.5-.1-.1-.6-.4-.7-.5-.2-.2-.4-.3-.6-.5-.2-.2-.5-.6-.5-.7h1c.2 0 .5.3.7.5.2.2.8.9 1 1 .2.1.5.2.7.3.1.1 0 .4.1.4-.1 0-.5.3-.5.3z" opacity=".08"/><linearGradient id="l" x1="62.678" x2="66.914" y1="72.298" y2="72.298" gradientUnits="userSpaceOnUse"><stop offset="0" stop-color="#746046"/><stop offset=".973" stop-color="#a0542b"/><stop offset="1"/></linearGradient><path fill="url(#l)" d="M64.3 71.7h-.7c-.4 0-.5 0-.7.1-.2.1-.4.2-.2.3.1.2-.1.2.3.2h.9c.2 0 .5.1.5.1s.1.4.1.5c0 .2-.1.2.2.4.3.2.7.5.8.6.2.1.7.4.7.4.1 0 .4.2.4.2s.2-.9.2-1c0-.1-1.6-1.7-1.6-1.9-.1-.2-.6-1-.7-1.2-.1-.2-.2-.4-.4-.5-.2-.1-.3 0-.5 0h-.4c-.2.1-.3.1-.4.2 0 .2-.2.2 0 .3.2.1.2.1.4 0 .2 0 .5-.1.6-.1.1 0-.5.2-.6.3-.1 0-.2 0-.3.2-.1.2-.3.3-.2.4.1.2 0 .3.2.3s.3-.1.4-.2c.1-.1.2-.2.4-.2s.2-.1.3 0c.1.1.2.2.2.3.1.2.1.3.1.3z"/><path fill="#F6F6D0" d="M66.3 74.9l.7-1.6 1 .9-.4 1.5h-.8z"/><path fill="#020202" d="M56.7 74.4c-.3 0-.6.1-.8.3.6 1 .9 1 1.9.5.2-.1.2-.4.5-.5.2-.1.4.1.6 0 .4-.3.8-.4.6-.9.5.6 1.1-.3 1.7-.4 0-.3-.1-.7-.4-.9"/><path fill="#064F51" d="M55.5 74.3s.5 3.5 1.7 4.9c1.2 1.3-2.5-1.4-2.5-1.4l.5-2.1-1.3-.7"/><linearGradient id="m" x1="-6.205" x2="12.919" y1="311.485" y2="311.485" gradientTransform="rotate(-18.827 -705.713 36.002)" gradientUnits="userSpaceOnUse"><stop offset="0" stop-color="#746046"/><stop offset=".973" stop-color="#a0542b"/><stop offset="1"/></linearGradient><path fill="url(#m)" d="M45.7 71.2s.2 2.5.7 2.9c.4.3 2 1 5.3.9 3.8-.2 5.7-.6 7.3-1.5 1.4-.8 2.5-1.5 3.1-2.3.6-.8.9-1.3 1-2 .1-.7.2-1.4 0-1.5-.2-.2.1-2.9 0-3.3-.3-2.3-6.7-3.6-9.9-3.1-3 .4-7.9 4.6-7.5 7.3.1.4 0 2.6 0 2.6z"/><linearGradient id="n" x1="11.309" x2="13.154" y1="314.632" y2="314.632" gradientTransform="rotate(-18.827 -705.713 36.002)" gradientUnits="userSpaceOnUse"><stop offset="0" stop-color="#746046"/><stop offset=".973" stop-color="#a0542b"/><stop offset="1"/></linearGradient><path fill="url(#n)" d="M63 67.2s.6-.7.9-.5c.3.2.7.8.7 1.2 0 .3-.5 1.4-.7 1.5-.2 0-.7.1-.7.1l-.2-2.3z"/><linearGradient id="o" x1="-7.386" x2="-5.678" y1="313.103" y2="313.103" gradientTransform="rotate(-18.827 -705.713 36.002)" gradientUnits="userSpaceOnUse"><stop offset="0" stop-color="#746046"/><stop offset=".973" stop-color="#a0542b"/><stop offset="1"/></linearGradient><path fill="url(#o)" d="M46 71.5s-.8-.4-1-.1c-.2.3-.4 1-.4 1.4 0 .3.9 1.1 1.1 1.1.2 0 .7-.1.7-.1l-.4-2.3z"/><linearGradient id="p" x1="-6.016" x2="-6.004" y1="312.748" y2="312.748" gradientTransform="rotate(-18.827 -705.713 36.002)" gradientUnits="userSpaceOnUse"><stop offset="0" stop-color="#746046"/><stop offset=".973" stop-color="#a0542b"/><stop offset="1"/></linearGradient><path fill="url(#p)" d="M45.9 72.2v-.1"/><linearGradient id="q" x1="-5.732" x2="-5.661" y1="312.656" y2="312.656" gradientTransform="rotate(-18.827 -705.713 36.002)" gradientUnits="userSpaceOnUse"><stop offset="0" stop-color="#746046"/><stop offset=".973" stop-color="#a0542b"/><stop offset="1"/></linearGradient><path fill="url(#q)" d="M46.1 72l.1-.1"/><linearGradient id="r" x1="-5.777" x2="-5.576" y1="312.648" y2="312.648" gradientTransform="rotate(-18.827 -705.713 36.002)" gradientUnits="userSpaceOnUse"><stop offset="0" stop-color="#746046"/><stop offset=".973" stop-color="#a0542b"/><stop offset="1"/></linearGradient><path fill="url(#r)" d="M46.1 72l.1-.1"/><linearGradient id="s" x1="-5.685" x2="-5.633" y1="312.655" y2="312.655" gradientTransform="rotate(-18.827 -705.713 36.002)" gradientUnits="userSpaceOnUse"><stop offset="0" stop-color="#746046"/><stop offset=".973" stop-color="#a0542b"/><stop offset="1"/></linearGradient><path fill="url(#s)" d="M46.1 72l.1-.1"/><linearGradient id="t" x1="-5.863" x2="-5.441" y1="312.662" y2="312.662" gradientTransform="rotate(-18.827 -705.713 36.002)" gradientUnits="userSpaceOnUse"><stop offset="0" stop-color="#746046"/><stop offset=".973" stop-color="#a0542b"/><stop offset="1"/></linearGradient><path fill="url(#t)" d="M46 72l.4-.1"/><path fill="#030305" d="M57.6 67.4c0 .2-.1.3-.2.4-.1 0-.3-.1-.3-.3 0-.2.1-.3.2-.4.2 0 .3.1.3.3zm-4.7 1.4c0 .2-.1.3-.2.4-.1 0-.3-.1-.3-.3 0-.2.1-.3.2-.4.1 0 .2.2.3.3z"/><path fill="none" d="M55.2 69.4s.1-.4.6-.5c.5 0 .6.2.6.2"/><path fill="#FFF" d="M60.6 68.5s-4.3 3.2-4.8 3.4c-.5.3-6.1-.5-6.1-.5s3.4.2 6-.4c2.6-.5 4.9-2.5 4.9-2.5z"/><linearGradient id="u" x1="63.971" x2="61.931" y1="324.09" y2="324.09" gradientTransform="rotate(-9.986 -1390.83 268.4)" gradientUnits="userSpaceOnUse"><stop offset="0" stop-color="#ec1475"/><stop offset="1" stop-color="#fff5cb"/></linearGradient><path fill="url(#u)" d="M49.6 71.4c.1.6.6.9 1.1.8.6-.1.9-.7.9-1.2-.1-.6-.6-.9-1.1-.8-.6 0-1 .6-.9 1.2z" opacity=".18"/><linearGradient id="v" x1="70.894" x2="73.273" y1="323.89" y2="323.89" gradientTransform="rotate(-9.986 -1390.83 268.4)" gradientUnits="userSpaceOnUse"><stop offset="0" stop-color="#ec1475"/><stop offset="1" stop-color="#fff5cb"/></linearGradient><path fill="url(#v)" d="M60.7 69.1c.1.6-.4 1.1-1 1.3-.6.1-1.2-.2-1.3-.8-.1-.6.4-1.1 1-1.3.6-.1 1.2.3 1.3.8z" opacity=".18"/><path fill="#1D110B" d="M45.6 71.6c.6-.2.5.5 1 .6.4 0 .9-.5 1.2-.7-.6-1.2-1.3-1.5-.4-2.8.2-.3 1-.9 1-1.4 0-.5-.9-1.1-1.4-1.1-1.2-.2-1.7 1.7-1.9 2.6-.2 1.3.1 1.9.8 2.9m13.3-9.8c.2.2-.1.7.1 1.2.2.6.6.7 1.2 1 1.1.5 1.4 1.1 2.1 2.1 1.2-.1.1-2.2-.3-2.7-.7-.9-1.6-1.8-2.8-1.7"/><path fill="#1D110B" d="M59.2 62c.4.7-.4.8.3 1.5.4.4 1.3.7 1.8 1 .7.6 1.3 3.5 1.9 2.2 0 0 .1-1.4.1-1.6 0-.4-.2-1.5-.4-1.8-.4-.7-2.8-2.1-3.5-1.2"/><path fill="#064F51" d="M60.8 72.3l1-.3-.2 1.9z"/><path fill="none" d="M71.3 84.6l-.4.5"/><circle cx="67" cy="75.3" r=".1" fill="none"/><path fill="#064F51" d="M62.5 75.7l.1.7s1.1-1.4.9-1.7c-.1-.3-.9-.7-.9-.7l-.1 1.7z"/><path fill="#7C2517" d="M60.5 88.3s-.2-.4 0-.5c.2-.1.4-.2.7-.2.3 0 .9.2 1 .3.1.1.1.7.1.7h.3s.1-.7 0-.8c-.1-.1-.5-.6-.7-.7-.2-.1-.6-.4-.9-.3-.3.1-.6.2-.7.3-.2.1-.3.3-.3.5v.9h.3"/><path fill="none" d="M61.9 71.4l-1.2 11.7-.2 4.7v2.8m1.7-19.5l-1.1 12.1-.2 4.3v2.6l.4-2.6.5-4.2.7-12.6"/><path fill="none" d="M63 70.6l-1.6 12.7-.1 4.2-.1 4.1"/><path fill="#7C2517" d="M65.7 83.4s.8-.4.8-.2c.1.2.3.9.3.9s.8-1.1.9-1.5c.1-.4-.3-3.5-.3-3.5s.2 1.1-.2 1.8c-.3.6-.9 1.4-1.1 1.7-.2.2-.5.6-.5.6v.2z"/><path fill="#58180B" d="M66.3 84.7s-.5.4-.7 1c-.2.6-.1.4-.2 0s.1-1.1 0-1.4c-.1-.2.2-.8.2-.8l.8-.2.3.9-.4.5z"/><path fill="#020202" d="M71.3 84.6c0 .1-.1.2-.2.1l-15.7-3.6c-.1 0-.2-.1-.1-.2 0-.1.1-.2.2-.1l15.8 3.6s.1.1 0 .2z"/><path fill="none" d="M55.8 81.6l15.1 3.5"/><linearGradient id="w" x1="52.119" x2="55.75" y1="80.444" y2="80.444" gradientUnits="userSpaceOnUse"><stop offset="0" stop-color="#746046"/><stop offset=".973" stop-color="#a0542b"/><stop offset="1"/></linearGradient><path fill="url(#w)" d="M52.1 79.6s1.2-.1 1.1.4c-.1.5-.3 1.4-.3 1.4s.2.7 1.2 1c1 .2.9.1 1.4-.3.5-.4.1-1.5 0-1.9-.1-.3-.9-1-.9-1l-1.2-.7h-.8l-.5 1.1z"/><path fill="#F6F6D0" d="M53.4 78.5s-.4.2-.5.7c-.2.4-.2 1.2-.2 1.3-.1.1-.5 0-.5 0s.1-1.1.2-1.3c.2-.7.9-.8.9-.8l.1.1z"/><path fill="#7C2517" d="M54.6 94.3s0 2.1 1.1 2.9c1.1.8 4.8 2 6.3 1.8 1.5-.2 4.5-1.2 5-1.6.4-.4 1.8-1.9 1.8-2.8 0-.9.1-2.6 0-3.2 0-.6-.8-2.3-.8-2.3l-.5-.9-.3-.1v.5s.7 1.6.7 1.8c0 .2 0 1.5.1 1.9 0 .4.1 1-.2 1.7-.4.7-1.6 2.6-3.1 2.9-1.4.3-3.9.4-5.3.1-1.4-.3-2.9-.8-3.6-1.4-.7-.6-1.2-1.3-1.2-1.3zm11-8.4s0 .8.5 1.3c.8 1 1.3.8 1.3.8l.3.1s-1-.7-1.4-1.2c-.6-.4-.7-1-.7-1z"/><path fill="#F4EF82" d="M73.2 89.4l-44.9 20.8 39.2-30.3 6.1 2.8z" opacity=".18"/><path fill="#146E78" d="M100.7 89.5s.4 1.4 0 1.6c-.4.2-1.3-.6-1 .6.2 1.2 1 1.9 1 2.2 0 .3.1 1.3.2 1.9.2.6.5.3.8.9.3.6 1.5 3.6 1.3 4.1-.2.4-.1.8.6.7.7-.1 1.5-.4 1.5-.4s.3-2.2.3-2.9c-.1-.7 0-1.5 0-2.4 0-.9 4.2-6.4 4.2-6.4l4.9 4s-.9 4.1-1 4.5c-.2.4-1 1.7-1 1.7s3 .1 3.3-.1c.4-.1.2-1.3.4-2.2.2-.9.4-2.7.6-2.8.2-.1.8-2.8.7-3.7-.1-.9-.4-3.2-1.2-3.8-.8-.6-1.8-1.8-1.8-1.8s-8.6-.7-8.9-.9c-.2-.2-1.6-.1-2 0-.4.1-1.5 1.1-1.5 1.1l-1.4 4.1z"/><path fill="#146E78" d="M105.1 71.4s-1.7.5-2 .7c-.3.1-1.6.1-2.1.5s-.5 1.1-.8 1.5c-.3.4-1.4 1.5-1.8 2-.4.5-1.6.5-1.6 1.5s1.4 2.9 1.9 3.3c.5.5 1.5 0 1.5 0s.1-1 .3-1.5c.2-.4.9-.4.9-.4s-.7-.3-.4-.7c.2-.3 1-1.1 1-1.1l.3 9.3s2.7-.5 2.8-.3c.1.2 7.7 1.2 8 1.2.3 0 2-7 2.2-7.3.1-.4 0-.2.8-.1.7.1 1.2.4 1.6-.6.4-.9.1-2.1-.7-2.8-.7-.7-2.2-2-2.2-2v1.2l-.3.5-.7-.4s.9-1.9.7-2.3c-.2-.4-.4-1.2-.7-1.3-.3-.1-1.6-.2-1.6-.2l-2.5-.7h-4.6z"/><path fill="#F6F6D0" d="M106.3 84.5l5.3-2.5-2.7-8.6S106.6 75 106 75c-.6 0-2.5.5-2.5.5s.1 1.2.5 2.2c.4 1 .7 2.4.7 2.4l.5 2 1.1 2.4z"/><path fill="#303030" d="M83.3 81.4h18.6l1.1 8H84.4z"/><path fill="#BA5427" d="M106.8 76.9s-.9.6-1.4 1.3c-.4.7-.7 1.3-.7 2.3-.1.9.6 1.2.7 1.7.1.4 1 1.1.9 1.7-.1.6-.2 2.5-.8 3.1l-1.1 1.1h-.4s.4.6 0 .9c-.4.4-1.3 1.7-1.3 2.7 0 1-.2 2.1.4 2.9.7.8 3.1 1.8 3.8 1.9.7.1 1.2.1 1.9 0 .8-.1 1.8.5 2.9.1 1.1-.5 2-1.1 2.5-1.5.6-.4.9-1.4 1-1.7.1-.4.1-2.2 0-2.8-.1-.7-.7-1.9-.7-1.9V88l-.8-.3s-.4-.3-.7-.9c-.3-.5-.1-1.7-.2-2-.1-.3.4-1.4.4-1.4l.6-.1s.4-1.5.7-2c.3-.6.2-2-.1-2.7-.3-.7-1.5-1.1-2-1.6-.6-.5-1.5-.5-1.5-.5l-.5.4s-1.6.4-1.5.1c.1-.4-.4-.4-.9-.6-.2-.1-.5 0-.7.1-.2.2-.5.4-.5.4z"/><path fill="#7C2517" d="M103.5 96s-.3.6 1.2 1.2c1.5.7 2.5.9 3.6.9s3.1-.1 4.2-.4c1.1-.3 2.1-1.4 2.5-1.7.4-.4 1.2-1.3 1-1.8-.1-.5.3-2.8 0-3.1-.3-.4-.7-.7-.7-.7s.2 2.3.1 2.5c-.1.3-1 2-1.3 2.2-.3.2-1.3.9-2 1.2-.7.3-1.7.3-2.2.2-.4-.1-.9-.1-1.2-.1-.3 0-2 0-2.4-.2-.5-.2-2-.9-2.3-1.1-.3-.2-.7-.6-.7-.6v1l.2.5z"/><path fill="#020202" d="M107.7 89.6s.6-.2.9-.2c.3.1.8 0 .8.2 0 .1-.6 3.5-.6 3.8v2.2c0 .1-.1.3-.3.3-.2 0-.3-.1-.3-.1s.1-3.3.1-3.4c0-.2-.2-.9-.3-1.2-.2-.3-.1-.8-.1-.9-.3-.3-.2-.7-.2-.7z"/><path fill="none" d="M108.4 97.3s.2-.4.5-.3c.3.1.4.3.4.3l-.5.4-.4-.4z"/><path fill="#7C2517" d="M107.3 85.8h.2c.1 0 .1-.3 0-.4-.1-.1-.3-.1-.5-.1-.1.1-.5.6-.5.8 0 .2-.1 1.2-.1 1.3 0 .2-.1.8-.2 1-.1.1-.2.3-.3.3-.1 0-.2.1-.2 0s-.1-.2-.2-.2-.3 0-.2.2c.1.2.1.3.4.3.2 0 .6-.2.7-.4.1-.2.3-1.4.3-1.6 0-.2-.1-.8 0-1 .1-.1.2-.4.4-.5.1 0 .2 0 .2.1s-.1.2-.1.2h.1zm3.6-.4s-.1.3 0 .4c.1.1.3.1.3 0 .1-.1.1-.2.1-.3.1 0 .3.1.3.3 0 .2.1 1.8.1 1.8 0 .1 0 .6.1.7.1.1.1.4.4.5.3.1.6.1.8 0 .2-.1.1-.5-.1-.5-.1-.1-.3.1-.3.2s0 .3-.1.2c-.1 0-.3-.1-.4-.4-.1-.3-.1-1.7-.1-1.7.1-.2 0-.6-.1-.9-.1-.3-.2-.4-.4-.4s-.2.2-.3.2c-.1 0-.1-.2-.1-.2-.1 0-.2.1-.2.1z"/><path fill="#FFF" d="M111.6 91.8c-.3.6.6 1.9 1.2 2 .2-.4-1-2.3-1.5-2.3-.1.2-.1.4-.1.6m-7.8-.9c.4-.2.8-.1 1 .3-.3.3-1.4.3-.9-.3m3.5-1.5c.4-.2 1.3-2.3 1-2.6-.5-.4-1 2.4-1.2 2.6m4.7-1.5c-.5-1.5-.6-3-.6-4.6 0-1 .5-1.4.9-2.2.2-.5.2-.7.7-1 .4-.3.8-.3 1.2-.7 0 .4.1.8.1 1.2 0 .4-.7 1-.3 1.3.8-.3.7-2.1.5-2.7-.1-.5-.3-1-.9-.4-.4.4-.6 1.2-1.1 1.4-.3-.6.6-1.1.8-1.6.2-1-.6-.4-.8.2-.4 1.1-.9 2.2-1.2 3.4-.2 1.1-.4 2.2-.3 3.3.1.5.2 1.1.3 1.7 0 .1.1.8.2.9.4.3.6-.2.3-.5m-4.3-9.8c-.7 1 .4.9 1 .8-.1-.3-.6-.8-1-.8m1.3 3.1c.6-.5-.9-1.8-1.3-1.5-.6.5 1.1 1.4 1.3 1.5m6.4 10.2c-.2-.3-.8-1.4-.6-1.8.4-.6.8.9.4 1.3m-1.7-1.2c-.2-.5-.5-1.1.3-1.2.2.3.1.8.3 1 .6.4.3-.6.1-.8-.2-.3-.5-.4-.7-.7-.2-.3.2-.9-.5-.8-.1.4.1.7.3 1-.7.1-.7 1.7.2 1.5" opacity=".04"/><path fill="#070707" d="M91.6 83.7s.8-.3 1 0c.2.3.7 4.4.6 4.8-.1.4-.8.5-.8.5s-.3-2.9-.5-3.2c-.1-.4-.3-2.1-.3-2.1zm2.9 25.3s1.3 1.1 1.6 1.6c.3.5.8 1.4.8 1.4s-.5-.1-.8 0c-.3.1-.6.3-.8 0-.2-.3-1.2-1.7-1.4-1.9-.3-.2-1-.6-.7-.8.2-.2.8-.3.8-.3h.5zm-2.1 0s-2.7.3-3.2.3c-.5.1-1 .4-1 .4s.1-.5 0-.7c-.1-.2 1-.2 1.6-.3.6-.1 2.5-.5 2.5-.5s.2-.1.4 0 0 .7 0 .7l-.3.1zm5.5-.8s-.2-.2-.6 0c-.5.2-.5-.1-.8 0-.3.1-1.4.4-1.4.4h-.4s-.5 0-.5-.2.9-.6 1.2-.7c.3-.1 1.3-.3 1.6-.3.3.1 1 .3 1 .3v.5zM92.4 89l.7 17.8h.5L93 89zm.6 19s.3-.1.6 0 0-1.2 0-1.2h-.5l-.2.6.1.6z"/><path fill="#070707" d="M93.2 109.3s.3-.4.5-.4c.3 0 .7-.3.7-.3s.3-.6-.3-.6H93s-.3.4-.2.2c.2-.2 0 .7 0 .7l.4.4z"/><path fill="#1D110B" d="M108.8 97.4l-.8 13.2.4-.3.9-13z"/><path fill="#BA6D29" d="M110 87.1v-.5l.4.2v.7h-.4zm-2-.8h.4v.8h-.4z"/><path fill="#7C2517" d="M110.5 69.8l-1.2 13.8-1-.2 1.1-13.6z"/><path fill="none" d="M110.8 67.9v1.9l.3-.1v-1.9z"/><path fill="#7C2517" d="M111.2 68.9l.6-.1s-.1.2 0 .2c.1.1.2.2.5.1.2-.1.4-.1.4-.3v-.5c-.1-.1-.2-.3-.4-.3-.1 0-.3-.1-.4.1-.1.1-.1.3-.1.3h-.6v.5z"/><path fill="#7C2517" d="M111.2 67.8c.1 0 .7.1.7.1s0-.5.4-.4c.4.2.5.2.5.3 0 .1-.2.3-.1.4 0 .1-.4.2-.6.2-.1 0-.3-.1-.3-.1h-.7l.1-.5z"/><linearGradient id="x" x1="110.68" x2="113.942" y1="74.455" y2="74.455" gradientUnits="userSpaceOnUse"><stop offset="0" stop-color="#746046"/><stop offset=".973" stop-color="#a0542b"/><stop offset="1"/></linearGradient><path fill="url(#x)" d="M113.8 75.5s-.1.2-.3.1c-.2 0-.4-.1-.5-.3-.1-.2-.5-.4-.6-.5-.1-.1-.6-.3-.7-.5-.1-.1-.4-.3-.6-.5-.2-.2-.5-.6-.5-.6h1c.2 0 .5.3.7.5.2.2.8.9.9 1 .1.1.5.2.6.3.1.1 0 .5.1.5.1.1-.1 0-.1 0z"/><path fill="#1D110B" d="M102.7 101.4c-1.2.5-5.9 1.5-2.5 3.3 2 1.1 3.8-1.6 5.5-2 .2-1.5-1.1-1.9-2.3-1.3m9.2-2.1c1.1.9 8.2-.1 4.9 3.3-2.3 2.4-7.8-1.7-4.9-2.8"/><path fill="#030202" d="M113.6 75.7h-.1c-.2 0-.4-.1-.5-.3-.1-.2-.5-.4-.6-.5-.1-.1-.6-.3-.7-.5-.1-.1-.4-.3-.6-.5-.2-.2-.5-.6-.5-.6h1c.2 0 .5.3.7.5.2.2.8.9.9 1 .1.1.5.2.6.3.1.1 0 .4.1.4.1-.1-.3.2-.3.2z" opacity=".08"/><linearGradient id="y" x1="110.108" x2="114.082" y1="73.249" y2="73.249" gradientUnits="userSpaceOnUse"><stop offset="0" stop-color="#746046"/><stop offset=".973" stop-color="#a0542b"/><stop offset="1"/></linearGradient><path fill="url(#y)" d="M111.7 72.7h-.6c-.3 0-.5 0-.7.1-.2.1-.3.1-.2.3.1.1-.1.2.3.2h.9c.2 0 .5.1.5.1s.1.4.1.5c0 .1-.1.2.2.4.3.2.6.4.8.5.1.1.6.4.7.4.1 0 .4.2.4.2s.2-.8.1-.9c0-.1-1.5-1.6-1.5-1.8-.1-.1-.5-1-.6-1.2-.1-.2-.1-.4-.4-.5-.2-.1-.3 0-.5 0h-.4c-.1.1-.3.1-.3.2s-.2.2 0 .3c.2.1.2 0 .4 0s.4-.1.5-.1c.1 0-.5.2-.6.2-.1 0-.2 0-.3.2-.1.2-.3.2-.2.4.1.1 0 .3.2.3s.2-.1.4-.2c.1-.1.2-.1.4-.1s.2-.1.3 0c.1.1.1.2.2.2-.2.2-.1.3-.1.3z"/><path fill="#F6F6D0" d="M113.5 75.7l.7-1.5.9.8-.4 1.4h-.8z"/><path fill="#020202" d="M104.5 75.2c-.3 0-.5.1-.7.3.6 1 .9.9 1.8.5.2-.1.2-.4.4-.5.2-.1.4.1.6 0 .4-.3.8-.3.6-.9.5.5 1-.3 1.6-.4 0-.3-.1-.6-.3-.8"/><path fill="#064F51" d="M103.3 75.1s.4 3.3 1.6 4.6c1.1 1.2-2.4-1.3-2.4-1.3l.5-2-1.1-.7"/><g fill="#F6E1AD"><path d="M94.2 72.2s.2 2.4.6 2.7c.4.3 1.9 1 5 .8 3.6-.2 5.3-.6 6.9-1.4 1.3-.7 2.4-1.4 2.9-2.2.6-.7.9-1.2.9-1.8.1-.7.2-1.3 0-1.4-.2-.1 0-2.7 0-3.1-.3-2.1-6.3-3.3-9.3-2.9-2.8.4-7.4 4.3-7 6.9.1.4 0 2.4 0 2.4z"/><path d="M110.4 68.5s.6-.6.9-.4c.3.2.6.8.7 1.1 0 .3-.5 1.3-.7 1.4-.2 0-.6.1-.6.1l-.3-2.2zm-15.9 4s-.7-.4-.9-.1c-.2.3-.4 1-.3 1.3 0 .3.8 1 1 1 .2 0 .6-.1.6-.1l-.4-2.1zm.1.5v-.1m-.1.1l.2-.1m-.3.1l.4-.2"/></g><path fill="#030305" d="M106.1 68.5c0 .2-.7.4-.9.4-.1 0-.2-.1-.3-.2 0-.2.1-.3.2-.3s.9 0 1 .1zm-5.2 1.5c0 .2-.1.3-.2.3s-1 .1-1-.1.8-.5.9-.5c.1 0 .3.1.3.3z"/><path fill="none" d="M103 70.6s.1-.4.6-.4c.4 0 .6.2.6.2"/><path fill="#FFF" d="M108.2 69.7s-4.1 3-4.5 3.2c-.4.2-5.7-.5-5.7-.5s3.2.2 5.6-.4c2.4-.5 4.6-2.3 4.6-2.3z"/><linearGradient id="z" x1="111.181" x2="109.267" y1="333.453" y2="333.453" gradientTransform="rotate(-9.986 -1390.83 268.4)" gradientUnits="userSpaceOnUse"><stop offset="0" stop-color="#ec1475"/><stop offset="1" stop-color="#fff5cb"/></linearGradient><path fill="url(#z)" d="M97.8 72.4c.1.5.6.9 1.1.8.5-.1.9-.6.8-1.1-.1-.5-.6-.9-1.1-.8-.5 0-.9.5-.8 1.1z" opacity=".18"/><linearGradient id="A" x1="117.677" x2="119.906" y1="333.266" y2="333.266" gradientTransform="rotate(-9.986 -1390.83 268.4)" gradientUnits="userSpaceOnUse"><stop offset="0" stop-color="#ec1475"/><stop offset="1" stop-color="#fff5cb"/></linearGradient><path fill="url(#A)" d="M108.3 70.3c.1.5-.4 1.1-1 1.2-.6.1-1.2-.2-1.2-.8-.1-.5.4-1.1 1-1.2.5-.1 1.1.2 1.2.8z" opacity=".18"/><path fill="#1D110B" d="M94.2 72.2l.9 2s.6-.1.8-.3c.2-.2-.3-1.5-.3-1.5l-.3-.8s1.5-2.5 1.8-2.8c.3-.4.9.2.9.2s6.8-2 7.4-1.8c.6.1 2.2-1.6 2.2-1.6s.7.6.7 1.2.9 1.3.8 1.6c-.1.3.4.9.4.9l.9-.2v-1.3c0-.5 0-2.5-.4-2.8-.4-.3-3.1-1.6-4.3-1.8-1.2-.2-3-.8-4.4-.3-1.4.4-2.1.4-3.5 1.4-1.4 1-2.2 1.8-2.8 3-.6 1.2-.9 1.5-.9 2.1.1.5.1 2.8.1 2.8z"/><path fill="#064F51" d="M108.4 73.2l.8-.2-.1 1.8z"/><path fill="none" d="M118.2 84.8l-.4.5"/><circle cx="114.2" cy="76.1" r=".1" fill="none"/><path fill="#064F51" d="M109.9 76.4l.1.6s1-1.3.9-1.6c-.1-.3-.8-.7-.8-.7l-.2 1.7z"/><path fill="#7C2517" d="M108.1 88.3s-.1-.4 0-.5c.1-.1.4-.2.7-.2.3 0 .8.2.9.3.1.1.1.6.1.6h.2s.1-.7 0-.8c-.1-.1-.4-.6-.6-.6-.2-.1-.6-.3-.9-.3-.3.1-.5.2-.7.3-.2.1-.3.3-.2.5v.8h.3"/><path fill="none" d="M109.4 72.4l-1.1 11-.2 4.4v2.6m1.5-18.3l-1 11.4-.2 4v2.4l.4-2.3.5-4 .6-11.8"/><path fill="none" d="M110.4 71.6l-1.5 12-.1 4-.1 3.8"/><path fill="#7C2517" d="M113 83.7s.7-.3.8-.1c.1.2.2.9.2.9s.7-1 .9-1.4c.1-.4-.3-3.3-.3-3.3s.1 1.1-.2 1.7c-.3.6-.8 1.4-1 1.6-.2.2-.4.5-.4.5v.1z"/><path fill="#58180B" d="M113.5 84.9s-.5.4-.6.9c-.2.6-.1.4-.2 0s.1-1.1 0-1.3c-.1-.2.2-.7.2-.7l.8-.1.2.9-.4.3z"/><path fill="#020202" d="M118.2 84.8c0 .1-.1.1-.2.1l-14.8-3.4c-.1 0-.1-.1-.1-.2s.1-.2.2-.1l14.8 3.4c.1 0 .2.1.1.2z"/><path fill="none" d="M103.6 82l14.2 3.3"/><linearGradient id="B" x1="100.204" x2="103.607" y1="80.893" y2="80.893" gradientUnits="userSpaceOnUse"><stop offset="0" stop-color="#746046"/><stop offset=".973" stop-color="#a0542b"/><stop offset="1"/></linearGradient><path fill="url(#B)" d="M100.2 80.1s1.1-.1 1 .3c-.1.4-.2 1.3-.2 1.3s.2.7 1.1.9c.9.2.8 0 1.3-.3.5-.4.1-1.4 0-1.7-.1-.3-.8-1-.8-1l-1.2-.6h-.8l-.4 1.1z"/><path fill="#F6F6D0" d="M101.4 79s-.4.2-.5.6c-.1.4-.1 1.1-.2 1.2-.1.1-.5 0-.5 0s.1-1 .2-1.2c.2-.6.8-.8.8-.8l.2.2z"/><path fill="#7C2517" d="M102.6 93.9s0 2 1 2.7c1 .7 4.5 1.8 5.9 1.7 1.4-.2 4.3-1.1 4.7-1.5.4-.4 1.6-1.8 1.7-2.6 0-.8.1-2.5 0-3 0-.5-.8-2.1-.8-2.1l-.4-.8-.3-.1v.5s.7 1.5.7 1.7c0 .2 0 1.4.1 1.8 0 .4.1.9-.2 1.6-.3.6-1.5 2.4-2.9 2.7-1.3.3-3.7.4-5 .1-1.3-.3-2.7-.8-3.4-1.3-.7-.7-1.1-1.4-1.1-1.4zm10.2-7.9s0 .7.4 1.2c.7.9 1.2.8 1.2.8l.3.1s-.9-.6-1.3-1.1c-.4-.4-.6-1-.6-1z"/><ellipse cx="168.3" cy="46.8" fill="#F4EF82" opacity=".32" rx="4.5" ry="4.6"/><path fill="#F4EF82" d="M165.7 42.4l30.5-31.3-23.8 37.2s-3.6.3-5.6-1.1c-2.1-1.5-1.1-4.8-1.1-4.8zM43.1 48.9L22.3 10.4l29 33-2.2 5.5zm6.8 47.7l-39.4 18.2 34.3-26.6 5.4 2.5zm131.3-12.1l26.2 35-33.5-28.3 1.3-5.8z" opacity=".32"/></g></switch></svg>
