<svg xmlns="http://www.w3.org/2000/svg" version="1.0" viewBox="0 0 67.2 52"><switch><g><path fill="#D0E7C4" stroke="#669866" stroke-width=".25" d="M2.3 1l-1 2.7L1 5.8c.8 1.4 1.6 2.6 1.6 2.6l-.5 2.7-1.3 1.4-.8 1.8 1.8 5.5 5 5.5 3.2 1.1 3.9 1.6 4.2 2.4 2.1-3.2-.8-3.5-2.1-.8-.3-2.3 3.1.8s2.6 1.3 2.7 1.8c.2.5 3.4 4 3.4 4l3.9 3.9s2.7.5 3.2.5 2.9 2.3 2.9 2.3l4.7 1.8 4.5 1.9 1.8 2.6s.6 3.5.6 4v3.4l3.9 3.1H55c.5-1.3-.5-3.2-.5-3.2l-.3-1.5 1.3-.8 1.6 1.1 1.9 1.3 1.6 1V52l2.4-1.1 2.4-3.2v-8.4l1.4-1.3-3.5-4.2-.3-4 .5-2.4 1.8-1.1 1.9-1.6s-9.3-7.6-10.5-8.4c-1.1-.8-7.1-5.2-7.6-6.1-.5-1-3.4-7.5-3.4-7.5L36 6.1l-7.7-4.3-6.4-.4-2.6 1.7S14 1.3 11.3.5C8.5-.3 5.4.1 5.4.1L2.3 1z"/></g></switch></svg>
