<svg xmlns="http://www.w3.org/2000/svg" xmlns:xlink="http://www.w3.org/1999/xlink" version="1.0" viewBox="0 792 220 129"><switch><g><linearGradient id="a" x1=".579" x2="220" y1="871.207" y2="871.207" gradientUnits="userSpaceOnUse"><stop offset="0" stop-color="#ffcb67"/><stop offset="1" stop-color="#98cb67"/></linearGradient><path fill="url(#a)" d="M.6 821.6H220v99.2H.6z"/><path fill="#B3E3F9" d="M0 792.1h220v22.2H0z"/><linearGradient id="b" x1="2.475" x2="220.853" y1="813.749" y2="813.749" gradientTransform="matrix(1.0082 .00252 -.0025 1 -.44 .118)" gradientUnits="userSpaceOnUse"><stop offset="0" stop-color="#c2c43a"/><stop offset="1" stop-color="#5fae46"/></linearGradient><path fill="url(#b)" d="M219.9 806.6s-6.9-1.4-8-1.3c-1.1.1-6.5 1.9-7.9 2-1.5.2-5.5.7-7 .6-1.5-.1-6.1-1.8-9-1.5-2.9.4-5.6 1.9-7.5 1.9-1.8 0-5.1-.2-6.2-.3-1.1-.1-4-.6-4-.6s-2.6.4-3.7.6c-1.1.2-5.5 1.2-7.3 1.2-1.8 0-4-.4-4.8-.2-.7.2-1.8-.1-2.9-.2-1.1-.1-2.2 0-3.7.3s-2.6.5-3.3.9c-.7.3-3.2.1-4.2.6-1 .4.1.7-2.4.8-2.6.2-2.2-.4-3.7-.3-1.5.1-2.4.3-3.7.5-1.2.1-12.1 1.8-14.3 1.9-2.2.2-2.9.5-4.4.7-1.5.2-1.8.1-4.8.3-2.9.2-5.5.2-6.6.4-1.1.2-2.2.2-2.2.2s.7-1.5-1.8-1.8c-2.6-.3-4.4.5-6.6.5-2.2 0-10-.5-12.1-.9-.9-.2-3.9-1.5-12.6-3.5-11-1.2-21.7-.6-22.9-.8l-4-1.3s-1.8-.8-2.9-.7c-1.1.1-3.7.1-4.8 0-1.1-.1-2.2-.2-3.3-.5-1.1-.2-1.1-.6-2.6-.6-1.5.1-3.3.2-5.1.2-1.8.1-2.6.2-4.4-.3-1.8-.5-3.3-.9-4.8-1.1-1.5-.2-10.5-.5-10.5-.5L0 822l220.2 2.2-.3-17.6z"/><linearGradient id="c" x1="9.923" x2="221.745" y1="817.706" y2="817.706" gradientTransform="translate(-.42 .117)" gradientUnits="userSpaceOnUse"><stop offset="0" stop-color="#006938"/><stop offset="1" stop-color="#7ac043"/></linearGradient><path fill="url(#c)" d="M219 824.6c0-2.9 1-8.4-.6-10-5.1.2-10.7.4-15.6-.1-4.6-.5-8.8-2-13.4-2.2-7.3-.4-18.5 1-25.8 1.5-9.9.6-16.5 2.8-26.7 1.1-9.4-1.6-15.6-2.5-25.6-2.3-9.4.2-17.7.8-26.8 1.6-9 .8-16.5-1.2-25.9-1.6-17.4-.7-43.6 2.7-51 10"/><path fill="#FFFFFB" d="M204.2 797.5c-.1-.4.5-.2 1-.2.5-.4 1.2.1 1.5-.2.6.1 1 1 .9.1.1.5-.1-.2 0 .3.1.7.4.1 1.1-.1.7-.1.9.1 1.4-.1.3.1.8-.3 1.3.1.5.1.8-.9.9.1.1.3.2-.4 1.1-.2.5.5.7-.1 1 .1.3.1.5.5.4.1 0 .3.6-.2.2.2-.5-.4-.2.5-1 .2-.7.2-.5-.7-.7 0-.2-.3-.5-.2-.6.2-.3-.1-.5 0-.5.1-.1.1 0-.4-.5.2-.6-.2-.7-.3-1.2-.2-.5 0-.6.1-1.3 0-.6.8-1.4-.5-1.6.1-.2-.2-.3.2-.6-.1-.3-.1-.5.3-.8.1-.2.5-.4.2-.6.3-.2.2-.4.2-.6 0-.4-.1.3-.1-.4-.1s.4-.2-.2-.6c-.6-.2-.2-.5-.2-.4zm-98.5-2.2c-.1-.6.8-.3 1.8-.3.9-.7 2.1.2 2.5-.3 1 .3 1.8 1.7 1.5.1.1.8-.2-.3-.1.6.2 1.2.7.3 1.8-.2 1.1-.2 1.5.1 2.3-.1.5.2 1.3-.5 2.2.2.8.2 1.3-1.5 1.6.1.1.6.4-.7 1.8-.3.8.9 1.2-.2 1.7.2.4.1.8.9.7.2.1.5.9-.4.4.3-.8-.8-.4.9-1.6.3-1.1.3-.9-1.2-1.2.1-.3-.6-.8-.4-1.1.3-.4-.1-.8 0-.8.2-.1.2.1-.7-.8.3-1.1-.4-1.2-.4-2.1-.4-.8 0-1 .2-2.2 0-1 1.3-2.3-.9-2.7.2-.3-.3-.6.3-1.1-.1-.5-.2-.8.4-1.3.2-.3.8-.7.4-1.1.5-.3.4-.6.4-1 0-.7-.1.5-.1-.7-.2-1.2 0 .7-.4-.3-1-.9-.5-.3-1.1-.2-.9zm57 2.9c-.2-.6-1.2-.2-2.4-.2-1.4-.6-2.6.3-3.4-.2-1.2.3-1.5 1.8-1.9.2.2.8.1-.3.4.6.3 1.2-.8.3-2.4 0-1.6-.2-1.9.2-3.1 0-.5.2-1.9-.4-2.8.3-1 .2-2.4-1.4-2 .2.2.6-.8-.7-2.5-.2-.7.9-1.7-.1-2.1.3-.5.1-.7.9-.8.3.1.5-1.4-.3-.4.4.7-.8.9.8 2.3.2 1.6.2.6-1.3 1.6 0 .2-.6.8-.4 1.6.3.5-.1 1 0 1.2.2.3.2-.4-.6 1.2.3 1.2-.4 1.4-.5 2.5-.5 1.1-.1 1.4.1 2.9-.1 1.9 1.3 2.6-1 3.6 0 .3-.3.9.3 1.3-.2.5-.3 1.3.4 1.8.1.8.8 1.1.3 1.6.4.6.4 1 .3 1.3-.1.8-.2-.7-.1.8-.2 1.6-.1-1.1-.4 0-1 .8-.7-.4-1.3-.3-1.1zm-98.3-1.4c-.1-.6.7-.3 1.5-.3.7-.7 1.8.2 2.1-.3.9.3 1.6 1.7 1.3.1.1.8-.2-.3-.1.6.2 1.2.6.3 1.6-.1 1-.2 1.3.1 2-.1.4.2 1.1-.5 1.9.2.7.2 1.1-1.5 1.3.1.1.6.3-.7 1.5-.3.7.9 1.1-.2 1.5.2.4.1.7.9.6.2.1.5.8-.4.3.3-.7-.8-.3.9-1.4.3-1 .3-.8-1.2-1 .1-.3-.6-.7-.4-.9.3-.4-.1-.7 0-.7.2-.1.2 0-.7-.7.3-.9-.4-1.1-.5-1.8-.4-.7 0-.8.2-1.9 0-.8 1.3-2-.9-2.3.2-.3-.3-.5.3-.9-.1-.4-.2-.7.4-1.1.2-.2.8-.6.4-.9.5-.2.4-.5.4-.9 0-.6-.1.4-.1-.6-.2-1.1-.1.6-.4-.3-1-.7-.6-.2-1.2-.1-1zm16.7 8c-.1-.4.5-.2 1-.2.5-.4 1.2.1 1.5-.2.6.1 1 1 .9.1.1.5-.1-.2-.1.3.1.7.4.1 1.1-.1.7-.1.9.1 1.4-.1.3.1.8-.3 1.3.1.5.1.8-.9.9.1.1.3.2-.4 1.1-.2.5.5.7-.1 1 .1.3.1.5.5.4.1 0 .3.6-.2.2.2-.5-.4-.2.5-1 .2-.7.2-.5-.7-.7.1-.2-.3-.5-.2-.6.2-.3-.1-.5 0-.5.1-.1.1 0-.4-.5.2-.6-.2-.7-.3-1.2-.2-.5 0-.6.1-1.3 0-.6.8-1.4-.5-1.6.1-.2-.2-.3.2-.6-.1-.3-.1-.5.3-.8.1-.2.5-.4.2-.6.3-.2.2-.4.2-.6 0-.4-.1.3-.1-.4-.1s.4-.2-.2-.5c-.5-.4-.1-.7-.1-.6z"/><path fill="#CAC1B7" stroke="#8E8176" stroke-width=".25" d="M125.9 798.5l-14.7 12.7 105.8 1.2-18.4-13.3z"/><path fill="#F6F2A6" stroke="#0D0607" stroke-width=".25" d="M121 819.7l93.5 1.8 1-9.1-94.2-.2z"/><path fill="#8E8176" stroke="#8E8176" stroke-width=".25" d="M158.7 812.6l-.2 8.4-2.9.5.3-9zm16-.3h2.7l-.3 9.4-2-.1-.4-9.3z"/><path fill="#CAC1B7" stroke="#8E8176" stroke-width=".25" d="M171.045 814.894l-6.696-.23.05-1.598 6.69.23z"/><path fill="#B3E3F9" d="M170.324 814.338l-5.496-.188.017-.5 5.496.19z"/><path fill="#FFFDF5" stroke="#4D4B47" stroke-width=".25" d="M166.597 815.04l2.898.1-.198 5.796-2.9-.1z"/><path fill="#CAC1B7" stroke="#8E8176" stroke-width=".25" d="M134.89 812.005l4.996.17-.178 5.198-4.997-.17z"/><path fill="#B3E3F9" d="M136.032 812.542l2.698.092-.065 1.9-2.698-.093zm-.106 2.698l2.698.094-.054 1.6-2.7-.094z"/><path fill="#8E8176" stroke="#8E8176" stroke-width=".25" d="M123.7 812.7l-.3 6.7h1.3l-.4-6.9zm7.3-.2l.2 6.7h.9l-.4-6.9zm9.1-.3l-.2 7.7 1.2.1-.3-8zm50 .9l.2 8.1h1.2l-.5-8.2z"/><path fill="none" stroke="#0D0607" stroke-width=".25" d="M128.3 798.5l-14.6 12.7m16.2-12.6l-14.6 13.1m16.2-13.1l-13 12.7m14.3-12.8l-12 12.9m14-12.8l-12.4 12.8m14.9-12.8l-13 12.8m14.9-12.8L126.6 811m14.6-12.2l-12.3 12.6m14.6-12.8l-11.8 12.9m13.8-12.8l-11.1 12.5m12.8-12.5l-10.4 12.8m11.5-12.8l-9.5 12.5m11.3-12.4l-9.3 12.6m10.9-12.7l-8.6 12.9m10.7-12.9l-7.6 12.5m9.4-12.4l-7.7 12.7m9.9-12.7l-8 12.9m9.4-12.8l-7.7 12.5m9.1-12.3l-7.7 12.4m9.9-12.6l-8.1 12.8m9.9-12.9l-6.8 12.8m5.9-12.8l-7.2 12.8m9.7-12.8l-6.3 12.5m7.3-12.4l-4.8 12.9m6.4-12.8l-4.3 12.5M170 799l-3.3 12.5m4.9-12.6l-3.2 12.7m5.2-12.7l-3.1 11.9m3.7-11.6l-1.6 11.7m2.5-11.7l-.4 12.6m2.6-12.8v13.3m1.5-13.3l.3 12.6m1.2-12.6l.3 12.6m1.1-12.6l1.7 13m-.6-12.9l2.3 13.1m-.9-13.1l3.3 13m-1.5-12.8l3.5 13m-1.6-13.1l3.1 12.9m-1.3-13l3.2 13.1m-1.4-13.1l4 12.6m-1.8-12.3l4.2 12.4m-3-12.6l4.9 12.6m-3.8-12.7l6.4 12.8m-4.8-12.7l6.8 12.8m-5.8-12.9l7.8 13m-5.3-11.1l7 11.1m-3.4-8.5l4.8 8.6m-2.3-7.3l3.8 6.9m.2-4l1.7 4.1m.6-2l1 2.5m.4-1.5l1.1 2"/><path fill="#8E8176" stroke="#8E8176" stroke-width=".25" d="M205.5 812.7l.2 8.1h1.2l-.6-8.3zm-52.6-1.6l.1-.8 14.3-3.3 13.3 3.9-.1 1.1-12.9-4.1z"/><path fill="#443B35" stroke="#443B35" stroke-width=".25" d="M152.9 811.1l14.7-3.2 12.9 4.1-27.6-.3z"/><path fill="#CAC1B7" stroke="#8E8176" stroke-width=".25" d="M145.988 812.405l4.997.17-.178 5.198-4.997-.17z"/><path fill="#B3E3F9" d="M147.13 812.942l2.7.092-.065 1.9-2.7-.094zm-.005 2.702l2.698.093-.054 1.6-2.7-.094z"/><path fill="#CAC1B7" stroke="#8E8176" stroke-width=".25" d="M179.79 813.505l4.996.17-.178 5.198-4.997-.17z"/><path fill="#B3E3F9" d="M180.933 814.042l2.698.092-.06 1.9-2.7-.094zm-.006 2.702l2.698.093-.055 1.6-2.698-.094z"/><path fill="#CAC1B7" stroke="#8E8176" stroke-width=".25" d="M195.587 814.104l4.997.17-.178 5.198-4.997-.17z"/><path fill="#B3E3F9" d="M196.83 814.644l2.7.093-.066 1.9-2.7-.094zm-.106 2.7l2.7.092-.056 1.6-2.698-.093z"/><path fill="#8E8176" stroke="#8E8176" stroke-width=".25" d="M111.2 811.2v.8l8.7.1 97.8 1.2-.7-.9z"/><linearGradient id="d" x1="192.231" x2="213.877" y1="913.617" y2="939.073" gradientUnits="userSpaceOnUse"><stop offset="0" stop-color="#70be44"/><stop offset="1" stop-color="#349746"/></linearGradient><path fill="url(#d)" stroke="#349746" stroke-width=".25" d="M164.4 920.7c-.2-.3-.1-.1-.4-.7.7 0 1.3-.1 2 .2-.8-.9-1.3-2.1-.8-3.2.5.2 1.1.2 1.5.5-1.4-1.9.1-3 1.6-1.2-.2-.8-.6-1.6-.8-2.4 1.2.6 2.7 1.7 2.9 3 0-1.5-.6-2.9-1.3-4.2 1.2.4 2 1.6 2.6 2.5-.5-1.1-.6-2.5-.2-3.5.5.5 1.1.9 1.4 1.6-.2-.7 0-1.5.4-2 .1.3.4.7.5 1 .4-1.4.8-3.3-.1-4.8.8.7 1.3 1.7 1.3 2.7.5-1.5.3-2.6 0-4.1.5.7 1.2 1.6 1.6 2.3.3-1.5.1-2.9 1.4-3.9-.1.9 0 1.9.4 2.6.2-.4.8-1 .9-1.3.1.5.4.7.5 1 .1-.3.6-.7.7-1.1.4.5 1.1 1.1 1.6 1.5.3-.8.2-1.6.2-2.5.6.7 1.3 1.4 2.1 1.8.4-1.4 1-2.7 2.1-3.7 0 1.2.3 2.4.7 3.5.2-.2.8-.4 1.1-.7.2.3.8.9.9 1.1 0-.1.1-.2.3-.2.2.6.7 1 .7 1.6 1.7-.6 3.1-2.9 5-3.7.1 1-.5 2.1-.9 3.1 1.3-1 2.2-2 3.9-2.4-.2 1-.7 1.9-1.3 2.7 1 0 1.9-.5 2.2-1.4.1.6.3 1.3.3 2 2.3 0 1.5-3.6 1.4-5 .7.7 1 1.8 1.4 2.7.5-.9.4-1.9.9-2.8.3.6.7 1.2.9 1.8.1-.2.1-.4.2-.6.1.4.8 1.2.9 1.6.4-1.1 1.1-1.9 2.1-2.6.4 1-.1 2.5 0 3.7.6-1 1.7-2.3 2.9-2.4.2 1.1-.2 2.2-.2 3.3.1-.2.5-.5.7-.8.2.8.5 1.1 1.2 1.6.7-1 .9-2.2.9-3.3.5.7.7 2 1 2.7.5-1 .8-2 1.6-2.9-.1.6-.1 1.4-.1 2 1.2-.8 1.7-2.4 3.4-2.5-.7 2.5.8 5.7.9 8.4.2 2.8-.2 4.9 0 7.7-10.9-.2-22.7-.3-33.7 0-4.3.1-8.7-.2-12.9 0-2.5.1-8.5 0-8.5 0"/><path fill="#659840" d="M213.4 913.8s.4-1.7-.8-4.4"/><path fill="#F3E96A" d="M212 908.7s-.3-.9.2-.8c.6.1.2.7.2.7s.1-.4.6-.6c.5-.2.3.4.3.4l-.6.5s1-.6 1.5-.6c.4 0 .4.2 0 .3-.4.2-1 .4-1 .4s.9-.2 1.2-.1c.3.1.9.1.5.3-.4.2-1.3.2-1.3.2l-.6.1s.7.2 1.2.3c.6.2.9.5.3.4-.6-.1-1.5-.4-1.5-.4s.1.3.3.5c.3.2.1.6-.3.3s-.5-.8-.5-.8.2.8 0 .9c-.2.2-.8.3-.7-.1.1-.4.2-.9.2-.9s-.4.7-.9.8c-.5.2-.7 0-.3-.3l.5-.6s-1 .5-1.2.4c-.2-.1-.3-.4.7-.8s.6 0 .6 0l-1-.5s0-.5.5-.4c.7 0 1.1.4 1.1.4z"/><path fill="#969837" d="M212.2 910.7c-.1 0-.2 0-.2-.1-.1 0-.1-.1-.1-.2 0-.2.1-.5.1-.6-.2.2-.4.5-.7.6-.1 0-.3.1-.3.1-.2 0-.2-.1-.2-.1 0-.1 0-.2.2-.4l.3-.4c-.3.1-.7.3-.9.3h-.1c-.1 0-.2-.1-.2-.2s.1-.4.9-.7c.1 0 .1-.1.2-.1l-.7-.3c0-.1.1-.4.4-.4h.1c.3.1.7.2.8.3-.1-.2-.1-.5 0-.7.1-.1.2-.1.3-.1.1 0 .2.1.3.2.1.1.1.2.1.3.1-.1.2-.2.4-.3.2-.1.3-.1.4 0 .1.1.1.4.1.4l-.3.3c.3-.2.9-.4 1.1-.4.3 0 .4.1.4.1 0 .1-.1.2-.3.3l-.6.2c.3 0 .6-.1.8 0h.1c.3 0 .5.1.6.2 0 .1-.1.1-.2.2-.4.2-1.3.2-1.3.2h-.3c.3.1.6.2 1 .2.3.1.7.3.7.4 0 0 0 .1-.2.1h-.2c-.4-.1-1.1-.3-1.4-.4 0 .1.1.3.3.4.2.1.2.2.1.3 0 .1-.1.2-.3.2-.1 0-.2 0-.3-.1l-.3-.3c0 .2 0 .3-.1.4 0 0-.3.1-.5.1zm0-1.2h.1s-.1.6-.2.9v.1h.1c.1 0 .3-.1.4-.2.1-.1.1-.3 0-.7v-.2h.1v.2c.1.2.2.5.4.6.1 0 .1.1.2.1s.1-.1.1-.1c0-.1 0-.2-.1-.2-.3-.2-.4-.5-.4-.5v-.1h.1s1 .3 1.5.4h.2s-.2-.2-.6-.3c-.5-.2-1.2-.3-1.2-.3v-.1l.6-.1s.9 0 1.3-.2c.1 0 .1-.1.1-.1s-.3-.1-.5-.1h-.3c-.4 0-1 .1-1.1.1v-.1l1-.4c.2-.1.3-.2.3-.2h-.2c-.3 0-1.1.4-1.4.6l-.1-.1.5-.5v-.3h-.2c-.4.2-.5.4-.6.5v.1h-.1v-.1c0-.1.1-.3 0-.5 0-.1-.1-.1-.2-.1h-.2c-.1.1 0 .6 0 .7l.1.2-.2-.1s-.5-.3-.9-.4h-.1c-.2 0-.3.2-.3.3l.7.3c.1 0 .2-.1.3-.1h.1c0 .1-.1.2-.1.2l-.3-.1c-.1 0-.2.1-.3.1-.8.3-.8.5-.8.6 0 .1.1.1.1.1.2 0 .9-.3 1.1-.4l.1.1-.5.6c-.2.1-.2.2-.2.3h.1c.1 0 .2 0 .3-.1.8.2 1.2-.4 1.2-.4zm-.8-.5h.1c.1-.1 0-.1-.1 0z"/><path fill="#663A19" d="M213 909s-.4-.7-1.1-.1c-.6.5 1.2.8 1.1.1z"/><path fill="#659840" d="M184.1 908.7s.4-1.7-.8-4.4"/><path fill="#F3E96A" d="M182.8 903.5s-.3-.9.2-.8c.6.1.2.7.2.7s.1-.4.6-.6c.5-.2.3.4.3.4l-.6.5s1-.6 1.5-.6.4.2 0 .3c-.4.2-1 .4-1 .4s.9-.2 1.2-.1c.3.1.9.1.5.3-.4.2-1.3.2-1.3.2l-.6.1s.7.2 1.2.3c.6.2.9.5.3.4-.6-.1-1.5-.4-1.5-.4s.1.3.3.5c.3.2.1.6-.3.3s-.5-.8-.5-.8.2.8 0 .9c-.2.2-.8.3-.7-.1.1-.4.2-.9.2-.9s-.4.7-.9.8c-.5.2-.7 0-.3-.3l.5-.6s-1 .5-1.2.4c-.2-.1-.3-.4.7-.8s.6 0 .6 0l-1-.5s0-.5.5-.4c.6.1 1.1.4 1.1.4z"/><path fill="#969837" d="M183 905.5c-.1 0-.2 0-.2-.1-.1 0-.1-.1-.1-.2 0-.2.1-.5.1-.6-.2.2-.4.5-.7.6-.1 0-.3.1-.3.1-.2 0-.2-.1-.2-.1 0-.1 0-.2.2-.4l.3-.4c-.3.1-.7.3-.9.3h-.1c-.1 0-.2-.1-.2-.2s.1-.4.9-.7c.1 0 .1-.1.2-.1l-.7-.3c0-.1.1-.4.4-.4h.1c.3.1.7.2.8.3-.1-.2-.1-.5 0-.7.1-.1.2-.1.3-.1.1 0 .2.1.3.2.1.1.1.2.1.3.1-.1.2-.2.4-.3.2-.1.3-.1.4 0 .1.1.1.4.1.4l-.3.3c.3-.2.9-.4 1.1-.4s.4.1.4.1c0 .1-.1.2-.3.3l-.6.2c.3 0 .6-.1.8 0h.1c.3 0 .5.1.6.2 0 .1-.1.1-.2.2-.4.2-1.3.2-1.3.2h-.3c.3.1.6.2 1 .2.3.1.7.3.7.4 0 0 0 .1-.2.1h-.2c-.4-.1-1.1-.3-1.4-.4 0 .1.1.3.3.4.2.1.2.2.1.3 0 .1-.1.2-.3.2-.1 0-.2 0-.3-.1l-.3-.3c0 .2 0 .3-.1.4-.1 0-.4.1-.5.1zm-.1-1.2h.1s-.1.6-.2.9v.1h.1c.1 0 .3-.1.4-.2.1-.1.1-.3 0-.7v-.2h.1v.2c.1.2.2.5.4.6.1 0 .1.1.2.1s.1-.1.1-.1c0-.1 0-.2-.1-.2-.3-.2-.4-.5-.4-.5v-.1h.1s1 .3 1.5.4h.2s-.2-.2-.6-.3c-.5-.2-1.2-.3-1.2-.3v-.1l.6-.1s.9 0 1.3-.2c.1 0 .1-.1.1-.1s-.3-.1-.5-.1h-.3c-.4 0-1 .1-1.1.1v-.1l1-.4c.2-.1.3-.2.3-.2h-.2c-.3 0-1.1.4-1.4.6l-.1-.1.5-.5v-.3h-.2c-.4.2-.5.4-.6.5v.1h-.1v-.1c0-.1.1-.3 0-.5 0-.1-.1-.1-.2-.1h-.2c-.1.1 0 .6 0 .7l.1.2-.2-.1s-.5-.3-.9-.4h-.1c-.2 0-.3.2-.3.3l.7.3c.1 0 .2-.1.3-.1h.1c0 .1-.1.2-.1.2l-.3-.1c-.1 0-.2.1-.3.1-.8.3-.8.5-.8.6 0 .1.1.1.1.1.2 0 .9-.3 1.1-.4l.1.1-.5.6c-.2.1-.2.2-.2.3h.1c.1 0 .2 0 .3-.1.8.3 1.2-.4 1.2-.4zm-.7-.5z"/><path fill="#663A19" d="M183.7 903.8s-.4-.7-1.1-.1c-.5.5 1.2.8 1.1.1z"/><path fill="#659840" d="M205.7 909.6s-.4-1.7.8-4.4"/><path fill="#F3E96A" d="M207 904.4s.3-.9-.2-.8c-.6.1-.2.7-.2.7s-.1-.4-.6-.6c-.5-.2-.3.4-.3.4l.6.5s-1-.6-1.5-.6c-.4 0-.4.2 0 .3.4.2 1 .4 1 .4s-.9-.2-1.2-.1c-.3.1-.9.1-.5.3.4.2 1.3.2 1.3.2l.6.1s-.7.2-1.2.3c-.6.2-.9.5-.3.4.6-.1 1.5-.4 1.5-.4s-.1.3-.3.5c-.3.2-.1.6.3.3s.5-.8.5-.8-.2.8 0 .9c.2.2.8.3.7-.1-.1-.4-.2-.9-.2-.9s.4.7.9.8c.5.2.7 0 .3-.3l-.5-.6s1 .5 1.2.4c.2-.1.3-.4-.7-.8s-.6 0-.6 0l1-.5s0-.5-.5-.4c-.6.1-1.1.4-1.1.4z"/><path fill="#969837" d="M206.3 906.3c-.1-.1-.1-.2-.1-.4l-.3.3c-.1.1-.2.1-.3.1-.1 0-.2-.1-.3-.2 0-.1 0-.2.1-.3.2-.1.3-.3.3-.4-.3.1-1 .3-1.4.4h-.2c-.1 0-.2 0-.2-.1s.3-.3.7-.4c.3-.1.7-.2 1-.2h-.3s-.9 0-1.3-.2c-.1 0-.2-.1-.2-.2s.2-.1.6-.2h.9l-.6-.2c-.2-.1-.4-.2-.3-.3 0-.1.1-.1.4-.1.3 0 .8.2 1.1.4l-.3-.3s-.1-.3.1-.4c.1-.1.2-.1.4 0s.3.2.4.3c0-.1 0-.2.1-.3.1-.1.2-.1.3-.2.1 0 .2 0 .3.1.2.2.1.5 0 .7.2-.1.5-.3.8-.3h.1c.3 0 .4.3.4.4l-.7.3c.1 0 .1.1.2.1.8.3.9.6.9.7 0 .1-.1.2-.2.2h-.1c-.2 0-.7-.2-.9-.3l.3.4c.2.2.2.3.2.4 0 0-.1.1-.2.1s-.2 0-.3-.1c-.3-.1-.6-.4-.7-.6 0 .2.1.5.1.6 0 .1 0 .2-.1.2 0 0-.1.1-.2.1-.2 0-.4-.1-.5-.1zm1.4-.3c.1 0 .2.1.3.1h.1s0-.1-.2-.3l-.5-.6.1-.1c.2.1.9.4 1.1.4 0 0 .1 0 .1-.1s0-.3-.8-.6c-.1 0-.2-.1-.3-.1l-.3.1c-.1-.1-.2-.2-.1-.2h.1c.1 0 .2 0 .3.1l.7-.3c0-.1 0-.3-.3-.3h-.1c-.5.1-.9.4-.9.4l-.2.1.1-.2c.1-.2.2-.6 0-.7h-.2c-.1 0-.2.1-.2.1-.1.2 0 .4 0 .5v.1h-.1v-.1c-.1-.1-.2-.3-.6-.5-.1 0-.2-.1-.2 0-.1.1-.1.2 0 .3l.5.5-.1.1c-.3-.2-1.1-.6-1.4-.6h-.2s0 .1.3.2l1 .4v.1s-.7-.1-1.1-.1h-.3c-.2 0-.4.1-.5.1l.1.1c.4.2 1.3.2 1.3.2l.6.1v.1s-.7.2-1.2.3c-.4.1-.6.2-.6.3h.2c.5-.1 1.5-.4 1.5-.4h.1v.1s-.1.3-.4.5c-.1.1-.1.2-.1.2l.1.1c.1 0 .1 0 .2-.1.2-.2.4-.4.4-.6v-.2h.1v.2c-.1.4-.1.6 0 .7.1.1.3.2.4.2h.1v-.1c-.1-.4-.2-.9-.2-.9h.1c.4-.4.8.3 1.2.4zm-.3-1.3s.1 0 0 0z"/><path fill="#663A19" d="M206 904.7s.4-.7 1.1-.1c.6.5-1.2.8-1.1.1z"/><path fill="#659840" d="M198.1 915.9s.4-1.7-.8-4.4"/><path fill="#F3E96A" d="M196.7 910.7s-.3-.9.2-.8c.6.1.2.7.2.7s.1-.4.6-.6c.5-.2.3.4.3.4l-.6.5s1-.6 1.5-.6c.4 0 .4.2 0 .3-.4.2-1 .4-1 .4s.9-.2 1.2-.1c.3.1.9.1.5.3-.4.2-1.3.2-1.3.2l-.6.1s.7.2 1.2.3c.6.2.9.5.3.4-.6-.1-1.5-.4-1.5-.4s.1.3.3.5c.3.2.1.6-.3.3s-.5-.8-.5-.8.2.8 0 .9c-.2.2-.8.3-.7-.1.1-.4.2-.9.2-.9s-.4.7-.9.8c-.5.2-.7 0-.3-.3l.5-.6s-1 .5-1.2.4c-.2-.1-.3-.4.7-.8s.6 0 .6 0l-1-.5s0-.5.5-.4c.7.1 1.1.4 1.1.4z"/><path fill="#969837" d="M196.9 912.7c-.1 0-.2 0-.2-.1-.1 0-.1-.1-.1-.2 0-.2.1-.5.1-.6-.2.2-.4.5-.7.6-.1 0-.3.1-.3.1-.2 0-.2-.1-.2-.1 0-.1 0-.2.2-.4l.3-.4c-.3.1-.7.3-.9.3h-.1c-.1 0-.2-.1-.2-.2s.1-.4.9-.7c.1 0 .1-.1.2-.1l-.7-.3c0-.1.1-.4.4-.4h.1c.3.1.7.2.8.3-.1-.2-.1-.5 0-.7.1-.1.2-.1.3-.1.1 0 .2.1.3.2.1.1.1.2.1.3.1-.1.2-.2.4-.3.2-.1.3-.1.4 0 .1.1.1.4.1.4l-.3.3c.3-.2.9-.4 1.1-.4.3 0 .4.1.4.1 0 .1-.1.2-.3.3l-.6.2c.3 0 .6-.1.8 0h.1c.3 0 .5.1.6.2 0 .1-.1.1-.2.2-.4.2-1.3.2-1.3.2h-.3c.3.1.6.2 1 .2.3.1.7.3.7.4 0 0 0 .1-.2.1h-.2c-.4-.1-1.1-.3-1.4-.4 0 .1.1.3.3.4.2.1.2.2.1.3 0 .1-.1.2-.3.2-.1 0-.2 0-.3-.1l-.3-.3c0 .2 0 .3-.1.4 0 0-.3.1-.5.1zm0-1.2h.1s-.1.6-.2.9v.1h.1c.1 0 .3-.1.4-.2.1-.1.1-.3 0-.7v-.2h.1v.2c.1.2.2.5.4.6.1 0 .1.1.2.1s.1-.1.1-.1c0-.1 0-.2-.1-.2-.3-.2-.4-.5-.4-.5v-.1h.1s1 .3 1.5.4h.2s-.2-.2-.6-.3c-.5-.2-1.2-.3-1.2-.3v-.1l.6-.1s.9 0 1.3-.2c.1 0 .1-.1.1-.1s-.3-.1-.5-.1h-.3c-.4 0-1 .1-1.1.1v-.1l1-.4c.2-.1.3-.2.3-.2h-.2c-.3 0-1.1.4-1.4.6l-.1-.1.5-.5v-.3h-.2c-.4.2-.5.4-.6.5v.1h-.1v-.1c0-.1.1-.3 0-.5 0-.1-.1-.1-.2-.1h-.2c-.1.1 0 .6 0 .7l.1.2-.2-.1s-.5-.3-.9-.4h-.1c-.2 0-.3.2-.3.3l.7.3c.1 0 .2-.1.3-.1h.1c0 .1-.1.2-.1.2l-.1.3c-.1 0-.2.1-.3.1-.8.3-.8.5-.8.6 0 .1.1.1.1.1.2 0 .9-.3 1.1-.4l.1.1-.5.6c-.2.1-.2.2-.2.3h.1c.1 0 .2 0 .3-.1.6-.1 1-.8 1-.8zm-.7-.5z"/><path fill="#663A19" d="M197.7 911s-.4-.7-1.1-.1c-.6.5 1.2.8 1.1.1z"/><path fill="#70BE44" d="M204 915.8c.1-.4.1-.8-.4-1-.3.3 0 .8.4 1"/><path fill="none" stroke="#376934" stroke-width=".25" d="M203.6 917s.5-2.6 2.2-3.5"/><path fill="#EE3E3A" stroke="#973821" stroke-width=".25" d="M206.4 912.6c-.2-.2-.4-.7-.8-.7-.5 0-.2.2-.4.4s-.6.2-.4.5c.2.3.6.1 1 .1-.2.2-.9.1-.9.4 0 .2.1.1.2.2.2.1.2 0 .4.2s.2.4.6.2c.2-.1.3-.4.4-.6.1.2-.1.7.1.8.2.1.5 0 .6-.2.3 0 .7.1.8-.2.1-.3-.3-.6-.6-.7.2.1.8.3 1 .2.2-.1 0-.3 0-.4.1-.2.3-.2.1-.3-.1-.1-.3-.1-.4-.2-.3 0-.6.2-.8.3.1-.2.6-.6.5-.8-.1-.2-.3-.1-.5-.1 0 0-.1.1-.2.1s-.1-.1-.2-.2c-.3-.1-.7-.1-.7.2-.1.4.2.6.2.8"/><ellipse cx="206.6" cy="912.9" fill="#FFCE34" rx=".4" ry=".3"/><path fill="#70BE44" d="M179 912.4c.1-.4.1-.8-.4-1-.3.3-.1.7.4 1"/><path fill="none" stroke="#376934" stroke-width=".25" d="M178.6 913.6s.5-2.6 2.2-3.5"/><path fill="#EE3E3A" stroke="#973821" stroke-width=".25" d="M181.4 909.1c-.2-.2-.4-.7-.8-.7-.5 0-.2.2-.4.4s-.6.2-.4.5c.2.3.6.1 1 .1-.2.2-.9.1-.9.4 0 .2.1.1.2.2.2.1.2 0 .4.2s.2.4.6.2c.2-.1.3-.4.4-.6.1.2-.1.7.1.8.2.1.5 0 .6-.2.3 0 .7.1.8-.2.1-.3-.3-.6-.6-.7.2.1.8.3 1 .2.2-.1 0-.3 0-.4.1-.2.3-.2.1-.3-.1-.1-.3-.2-.4-.2-.3 0-.6.2-.8.3.1-.2.6-.6.5-.8-.1-.2-.3-.1-.5-.1 0 0-.1.1-.2.1s-.1-.1-.2-.2c-.3-.1-.7-.1-.7.2-.1.4.2.7.2.8"/><ellipse cx="181.6" cy="909.5" fill="#FFCE34" rx=".4" ry=".3"/><path fill="#70BE44" d="M193.4 916.8c-.1-.4-.1-.8.4-1 .2.3 0 .8-.4 1"/><path fill="none" stroke="#376934" stroke-width=".25" d="M193.8 918s-.5-2.6-2.2-3.5"/><path fill="#EE3E3A" stroke="#973821" stroke-width=".25" d="M190.9 913.6c.2-.2.4-.7.8-.7.5 0 .2.2.4.4s.7.2.4.5c-.2.3-.6.1-1 .1.2.2.9.1.9.4 0 .2-.1.1-.2.2-.2.1-.2 0-.4.2s-.2.4-.6.2c-.2-.1-.3-.4-.4-.6-.1.2.1.7-.1.8-.2.1-.5 0-.6-.2-.3 0-.7.1-.8-.2-.1-.3.3-.6.6-.7-.2.1-.8.3-1 .2-.2-.1 0-.3 0-.4-.1-.2-.3-.2-.1-.3.1-.1.3-.1.4-.2.3 0 .6.2.8.3-.1-.2-.6-.6-.5-.8.1-.2.3-.1.5-.1 0 0 .1.1.2.1s.1-.1.2-.2c.3-.1.7-.1.7.3.2.3-.2.5-.2.7"/><ellipse cx="190.8" cy="913.9" fill="#FFCE34" rx=".4" ry=".3"/><path fill="none" stroke="#349746" stroke-width=".25" d="M178 914.5c-.5-.2-.8-.6-.9-.9.2.2.6.3.9.4-.2-.4-.4-.8-.4-1.2.6.3.7.7 1.1 1.1.2-.3.6-.4.9-.6v.9"/><path fill="#F3E390" stroke="#928F72" stroke-width=".25" d="M0 822.6h14.3v47.5H0z"/><path fill="#E5E09B" stroke="#928F72" stroke-width=".25" d="M.8 822.6h13.5v4.4H.8z"/><path fill="#EDE6A7" stroke="#928F72" stroke-width=".25" d="M0 827.1h14.3v2H0z"/><path fill="#E5E09B" stroke="#928F72" stroke-width=".25" d="M7.1 829.1h7.1v2.5H7.1z"/><path fill="#F6F2A6" stroke="#928F72" stroke-width=".25" d="M0 829.1h6.6v2.5H0z"/><path fill="#F3E390" stroke="#928F72" stroke-width=".25" d="M0 831.5h14.3v2.1H0z"/><path fill="#F6F2A6" stroke="#928F72" stroke-width=".25" d="M7.5 833.7h6.8v6.9H7.5z"/><path fill="#F3E390" stroke="#928F72" stroke-width=".25" d="M3.3 835.8h4.2v4.7H3.3z"/><path fill="#F6F2A6" stroke="#928F72" stroke-width=".25" d="M0 835.8h3.3v5.5H0z"/><path fill="#E5E09B" stroke="#928F72" stroke-width=".25" d="M3.3 840.5h11v5.2h-11z"/><path fill="#F3E390" stroke="#928F72" stroke-width=".25" d="M0 841.3h3.3v4.4H0z"/><path fill="#F6F2A6" stroke="#928F72" stroke-width=".25" d="M8.8 862.7h5.5v3.2H8.8z"/><path fill="#E5E09B" stroke="#928F72" stroke-width=".25" d="M.8 845.7h6.4v7.3H.8z"/><path fill="none" stroke="#928F72" stroke-width=".25" d="M7.1 845.7h7.1v4.1H7.1z"/><path fill="#F6F2A6" stroke="#928F72" stroke-width=".25" d="M7.1 849.8h7.1v3.2H7.1z"/><path fill="none" stroke="#928F72" stroke-width=".25" d="M0 853h8.3v6.7H0z"/><path fill="#F6F2A6" stroke="#928F72" stroke-width=".25" d="M8.3 853h6v9.2h-6zM0 859.7h8.3v2.5H0z"/><path fill="none" stroke="#928F72" stroke-width=".25" d="M8.8 865.9h5.5v4.2H8.8zm-6.5-3.8h6.5v3.8H2.3z"/><path fill="#E5E09B" stroke="#928F72" stroke-width=".25" d="M2.3 865.9h6.5v1.6H2.3z"/><path fill="none" stroke="#928F72" stroke-width=".25" d="M2.3 867.4h6.5v2.2H2.3z"/><path fill="#CECECD" stroke="#898885" d="M14.3 833.7l74.7-1.1v-1.8L14.3 832z"/><path fill="#F6F2A6" stroke="#928F72" stroke-width=".25" d="M0 833.7h7.5v2.1H0z"/><path fill="#CECECD" stroke="#898885" d="M15.1 847.1l74.7-1.1v-1.7l-74.7 1.1zm0 17.4l74.7-1.1v-1.8l-74.7 1.2z"/><g stroke="#928F72" stroke-width=".25"><path fill="#F3E390" d="M46.5 820.5h14.3V868H46.5z"/><path fill="#E5E09B" d="M46.5 863.5H60v4.4H46.5z"/><path fill="#EDE6A7" d="M46.5 861.5h14.3v2H46.5z"/><path fill="#E5E09B" d="M46.5 859h7.1v2.5h-7.1z"/><path fill="#F6F2A6" d="M54.1 859h6.6v2.5h-6.6z"/><path fill="#F3E390" d="M46.5 856.9h14.3v2.1H46.5z"/><path fill="#F6F2A6" d="M46.5 850.1h6.8v6.9h-6.8z"/><path fill="#F3E390" d="M53.2 850.1h4.2v4.7h-4.2z"/><path fill="#F6F2A6" d="M57.4 849.3h3.3v5.5h-3.3z"/><path fill="#E5E09B" d="M46.5 844.9h11v5.2h-11z"/><path fill="#F3E390" d="M57.4 844.9h3.3v4.4h-3.3z"/><path fill="#F6F2A6" d="M46.5 824.7H52v3.2h-5.5z"/><path fill="#E5E09B" d="M53.6 837.6H60v7.3h-6.4z"/><path fill="none" d="M46.5 840.8h7.1v4.1h-7.1z"/><path fill="#F6F2A6" d="M46.5 837.6h7.1v3.2h-7.1z"/><path fill="none" d="M52.4 830.9h8.3v6.7h-8.3z"/><path fill="#F6F2A6" d="M46.5 828.5h6v9.2h-6z"/><path fill="#F6F2A6" d="M52.4 828.5h8.3v2.5h-8.3z"/><path fill="none" d="M46.5 820.5H52v4.2h-5.5zm5.4 4.2h6.5v3.8h-6.5z"/><path fill="#E5E09B" d="M51.9 823.1h6.5v1.6h-6.5z"/><path fill="none" d="M51.9 820.9h6.5v2.2h-6.5z"/><path fill="#F6F2A6" d="M53.2 854.8h7.5v2.1h-7.5z"/></g><g stroke="#928F72" stroke-width=".25"><path fill="#F3E390" d="M89.3 805.7h14.3V865H89.3z"/><path fill="#E5E09B" d="M90.1 805.7h13.5v5.5H90.1z"/><path fill="#EDE6A7" d="M89.3 811.2h14.3v2.6H89.3z"/><path fill="#E5E09B" d="M96.5 813.7h7.1v3.1h-7.1z"/><path fill="#F6F2A6" d="M89.3 813.7h6.6v3.1h-6.6z"/><path fill="#F3E390" d="M89.3 816.8h14.3v2.7H89.3z"/><path fill="#F6F2A6" d="M96.9 819.5h6.8v8.6h-6.8z"/><path fill="#F3E390" d="M92.7 822.1h4.2v5.9h-4.2z"/><path fill="#F6F2A6" d="M89.3 822.1h3.3v6.8h-3.3z"/><path fill="#E5E09B" d="M92.7 828.1h11v6.4h-11z"/><path fill="#F3E390" d="M89.3 829h3.3v5.5h-3.3z"/><path fill="#F6F2A6" d="M98.1 855.7h5.5v4h-5.5z"/><path fill="#E5E09B" d="M90.1 834.5h6.4v9.1h-6.4z"/><path fill="none" d="M96.5 834.5h7.1v5.1h-7.1z"/><path fill="#F6F2A6" d="M96.5 839.6h7.1v4h-7.1z"/><path fill="none" d="M89.3 843.6h8.3v8.4h-8.3z"/><path fill="#F6F2A6" d="M97.6 843.6h6V855h-6zm-8.3 8.4h8.3v3.1h-8.3z"/><path fill="none" d="M98.1 859.7h5.5v5.3h-5.5zm-6.5-4.7h6.5v4.7h-6.5z"/><path fill="#E5E09B" d="M91.6 859.7h6.5v1.9h-6.5z"/><path fill="none" d="M91.6 861.7h6.5v2.8h-6.5z"/><path fill="#F6F2A6" d="M89.3 819.5h7.5v2.7h-7.5z"/></g><g stroke="#928F72" stroke-width=".25"><path fill="#F3E390" d="M90.8 793.9h74.8v11.3H90.8z"/><path fill="#E5E09B" d="M158.6 794.5h6.9v10.7h-6.9z"/><path fill="#EDE6A7" d="M155.4 793.9h3.2v11.3h-3.2z"/><path fill="#E5E09B" d="M151.6 799.5h3.9v5.7h-3.9z"/><path fill="#F6F2A6" d="M151.6 793.9h3.9v5.3h-3.9z"/><path fill="#F3E390" d="M148.2 793.9h3.3v11.3h-3.3z"/><path fill="#F6F2A6" d="M137.4 799.8h10.8v5.4h-10.8z"/><path fill="#F3E390" d="M137.4 796.5h7.5v3.3h-7.5z"/><path fill="#F6F2A6" d="M136.2 793.9h8.6v2.6h-8.6z"/><path fill="#E5E09B" d="M129.3 796.5h8.1v8.7h-8.1z"/><path fill="#F3E390" d="M129.3 793.9h7v2.6h-7z"/><path fill="#F6F2A6" d="M97.5 800.8h5v4.3h-5z"/><path fill="#E5E09B" d="M117.8 794.5h11.5v5.1h-11.5z"/><path fill="none" d="M122.8 799.5h6.4v5.7h-6.4z"/><path fill="#F6F2A6" d="M117.8 799.5h5v5.7h-5z"/><path fill="none" d="M107.3 793.9h10.6v6.6h-10.6z"/><path fill="#F6F2A6" d="M103.4 800.4h14.4v4.8h-14.4z"/><path fill="#F6F2A6" d="M103.4 793.9h3.9v6.6h-3.9z"/><path fill="none" d="M90.8 800.8h6.7v4.3h-6.7zm6.7-5.1h5.9v5.1h-5.9z"/><path fill="#E5E09B" d="M95 795.7h2.4v5.1H95z"/><path fill="none" d="M91.5 795.7H95v5.1h-3.5z"/><path fill="#F6F2A6" d="M144.9 793.9h3.3v6h-3.3z"/></g><g stroke="#928F72" stroke-width=".25"><path fill="#F3E390" d="M151.7 805.1H166v59.3h-14.3z"/><path fill="#E5E09B" d="M152.4 805.1h13.5v5.5h-13.5z"/><path fill="#EDE6A7" d="M151.7 810.6H166v2.6h-14.3z"/><path fill="#E5E09B" d="M158.8 813.1h7.1v3.1h-7.1z"/><path fill="#F6F2A6" d="M151.7 813.1h6.6v3.1h-6.6z"/><path fill="#F3E390" d="M151.7 816.2H166v2.7h-14.3z"/><path fill="#F6F2A6" d="M159.2 818.9h6.8v8.6h-6.8z"/><path fill="#F3E390" d="M155 821.5h4.2v5.9H155z"/><path fill="#F6F2A6" d="M151.7 821.5h3.3v6.8h-3.3z"/><path fill="#E5E09B" d="M155 827.4h11v6.4h-11z"/><path fill="#F3E390" d="M151.7 828.4h3.3v5.5h-3.3z"/><path fill="#F6F2A6" d="M160.5 855.1h5.5v4h-5.5z"/><path fill="#E5E09B" d="M152.4 833.9h6.4v9.1h-6.4z"/><path fill="none" d="M158.8 833.9h7.1v5.1h-7.1z"/><path fill="#F6F2A6" d="M158.8 839h7.1v4h-7.1z"/><path fill="none" d="M151.7 843h8.3v8.4h-8.3z"/><path fill="#F6F2A6" d="M159.9 843h6v11.4h-6z"/><path fill="#F6F2A6" d="M151.7 851.3h8.3v3.1h-8.3z"/><path fill="none" d="M160.5 859.1h5.5v5.3h-5.5zm-6.5-4.7h6.5v4.7H154z"/><path fill="#E5E09B" d="M154 859.1h6.5v1.9H154z"/><path fill="none" d="M154 861.1h6.5v2.8H154z"/><path fill="#F6F2A6" d="M151.7 818.9h7.5v2.7h-7.5z"/></g><path fill="#A37A2C" stroke="#816227" d="M100.9 795.7h57.8v7.1h-57.8z"/><g fill="#FBFAE1"><path d="M111.8 796.5c1-.1 1.8-.2 2.3-.2.8 0 1.3.1 1.8.4.4.3.7.6.7 1.1 0 .4-.2.8-.7 1.2-.5.4-1.1.7-1.8.9-.1 0-.1.1-.1.1s.4.3 1.1.7c.7.4 1.4.8 2 1.1.2.1.3.2.3.3 0 .1-.1.2-.2.3-.1.1-.2.1-.3.1-.2 0-.5-.1-1-.4-.5-.3-.9-.6-1.4-.9-1.1-.7-1.7-1.1-1.8-1.1-.2 0-.4 0-.5-.1-.1 0-.1-.1-.1-.3 0-.1.1-.2.2-.3.1-.1.3-.1.5-.1h.6c.3 0 .8-.2 1.5-.5s1-.7 1-1.2c0-.2-.2-.4-.5-.6-.3-.2-.7-.3-1.2-.3-.4 0-.7 0-1.1.1-.4 0-.6.1-.7.1-.1 0-.2.1-.2.2-.1.1-.2.5-.3 1.1-.1.6-.3 1.2-.3 1.8s-.1 1-.1 1.2c0 .2 0 .4.1.5v.4c0 .1-.1.2-.2.3-.1.1-.2.1-.4.1-.4 0-.6-.2-.6-.7 0-1.1.3-2.6.8-4.5v-.3c-.1-.2-.2-.3-.2-.4 0-.1.1-.2.2-.3.1-.1.3-.1.4-.1l.2.3z"/><path d="M122.6 796.4v.5l.1.2c.1.3.2.6.3.8.1.3.3.6.4.9.3.8.6 1.4 1 1.9.3.5.7.9.9 1.1.2.1.3.2.3.3 0 .1.1.1.1.2s-.1.2-.2.3c-.1.1-.2.1-.4.1-.5 0-1-.6-1.7-1.7-.3-.4-.4-.7-.5-.7-.2 0-.5 0-1.1.1-.6.1-1.1.2-1.5.3-.3.1-.4.1-.5.1-.1 0-.2 0-.3-.1h-.1c-.1 0-.2.2-.5.5-.4.6-.7 1-.8 1.1-.1.1-.2.2-.4.2-.1 0-.2 0-.3-.1-.1-.1-.2-.2-.2-.3 0-.1.1-.2.2-.4s.4-.5.8-.9c.7-.8 1.3-1.6 1.8-2.3.8-1.2 1.2-1.8 1.5-2 .2-.2.4-.3.5-.3.3.1.5.1.6.2zm.3 3.4c-.1-.2-.3-.6-.5-1.2-.3-.6-.4-1-.5-1.2-.2.3-.5.8-.9 1.4l-1 1.5c.1 0 .3-.1.6-.1.2 0 .5 0 .6-.1 1-.2 1.6-.3 1.7-.3zm9.3 1.6c.2-.7.4-1.5.6-2.5.2-1 .3-1.7.3-2.1 0-.2 0-.3.1-.4 0-.1.1-.1.3-.2s.3-.1.4-.1c.1 0 .2.1.3.2.1.1.1.2.1.4 0 .1-.1.3-.2.6-.2.7-.4 1.5-.7 2.5-.2 1-.3 1.5-.3 1.7v.6c0 .1 0 .3-.2.3-.1.1-.3.1-.5.1h-.3s-.1-.1-.3-.2-.2-.2-.3-.4c0-.1-.1-.2-.3-.4-1-1-1.9-2.2-2.8-3.4-.2.7-.4 1.6-.6 2.7l-.1.7v.8c0 .1-.1.2-.2.3-.1.1-.2.1-.3.1-.2 0-.4-.1-.4-.2 0-.2-.1-.3-.1-.4 0-.2.1-.5.2-1 .2-.5.3-1.2.6-2.1.2-1 .3-1.6.3-1.8v-.2c0-.1 0-.2.1-.2s.1-.1.2-.2c.1 0 .2-.1.3-.1h.3c.1 0 .1.1.2.1s.1.2.1.4c.1.5.6 1.3 1.3 2.2.7 1 1.4 1.7 1.9 2.2zm8.8-.2c.1 0 .2.1.2.2s-.2.3-.6.6c-.4.3-.9.5-1.4.6-.5.2-1 .2-1.4.2-.6 0-1.2-.2-1.7-.5s-.8-.8-.8-1.4c0-1.1.6-2.3 1.9-3.3 1.2-1.1 2.4-1.6 3.6-1.6.4 0 .8.1 1 .3.3.2.4.5.4.7 0 .3 0 .5-.1.6 0 .1-.2.3-.3.4-.2.1-.3.2-.5.2-.1 0-.2 0-.2-.1s-.1-.1-.1-.2 0-.2.1-.4.1-.4.1-.5c0-.3-.2-.4-.5-.4-.5 0-1.1.2-1.8.7-.7.4-1.3 1-1.8 1.7s-.8 1.3-.8 1.9c0 .4.1.7.4 1 .3.3.7.4 1.2.4.3 0 .7-.1 1.1-.2.4-.1.8-.3 1.2-.5l.8-.4zm9.2-5.2c.1 0 .3 0 .4.1.1.1.2.2.2.3 0 .2-.1.6-.2 1.3-.2.8-.3 1.7-.4 2.7s-.1 1.5-.1 1.8c0 .1-.1.3-.2.4-.1.1-.3.2-.4.2-.1 0-.2 0-.3-.1-.1-.1-.2-.2-.2-.3 0-.1.1-.5.2-1.1.1-.5.1-.9.1-1.1 0-.1 0-.2-.1-.3 0-.1-.1-.1-.3-.1h-1c-.6 0-.9.1-1.1.1-.1 0-.5 0-1.1.1-.6 0-.9.1-1 .1-.1 0-.1.2-.2.6-.1.3-.1.6-.1.9 0 .4-.1.7-.2 1-.1.3-.2.4-.4.4-.1 0-.2-.1-.4-.2s-.2-.3-.2-.4c0-.1 0-.3.1-.6.1-.4.3-1 .4-2 .2-1 .3-2 .4-3 0-.1.1-.1.1-.2.1-.1.2-.1.3-.1.3 0 .5.2.5.6 0 .2-.1.6-.2 1.1-.1.5-.2.8-.2 1 0 .1 0 .2.1.2s.2.1.5.1c.6 0 1.4 0 2.4-.1s1.5-.2 1.6-.3c.1-.1.2-.5.2-1 .1-.5.1-1 .1-1.6 0-.1.1-.1.2-.2s.4-.3.5-.3z"/></g><path fill="#CECECD" stroke="#898885" d="M220 829.7l-53-1.1v-1.8l53 1.2zm-.6 13.4l-53-1.1v-1.7l53 1.1zm0 17.3l-53-1v-1.8l53 1.2z"/><g stroke="#928F72" stroke-width=".25"><path fill="#F3E390" d="M195.5 816.4h14.3v47.5h-14.3z"/><path fill="#E5E09B" d="M196.3 859.5h13.5v4.4h-13.5z"/><path fill="#EDE6A7" d="M195.5 857.5h14.3v2h-14.3z"/><path fill="#E5E09B" d="M202.7 855h7.1v2.5h-7.1z"/><path fill="#F6F2A6" d="M195.5 855h6.6v2.5h-6.6z"/><path fill="#F3E390" d="M195.5 852.9h14.3v2.1h-14.3z"/><path fill="#F6F2A6" d="M203 846h6.8v6.9H203z"/><path fill="#F3E390" d="M198.8 846h4.2v4.7h-4.2z"/><path fill="#F6F2A6" d="M195.5 845.3h3.3v5.5h-3.3z"/><path fill="#E5E09B" d="M198.8 840.9h11v5.2h-11z"/><path fill="#F3E390" d="M195.5 840.9h3.3v4.4h-3.3z"/><path fill="#F6F2A6" d="M204.3 820.7h5.5v3.2h-5.5z"/><path fill="#E5E09B" d="M196.3 833.6h6.4v7.3h-6.4z"/><path fill="none" d="M202.7 836.8h7.1v4.1h-7.1z"/><path fill="#F6F2A6" d="M202.7 833.6h7.1v3.2h-7.1z"/><path fill="none" d="M195.5 826.9h8.3v6.7h-8.3z"/><path fill="#F6F2A6" d="M203.8 824.4h6v9.2h-6zm-8.3 0h8.3v2.5h-8.3z"/><path fill="none" d="M204.3 816.4h5.5v4.2h-5.5zm-6.5 4.3h6.5v3.8h-6.5z"/><path fill="#E5E09B" d="M197.8 819.1h6.5v1.6h-6.5z"/><path fill="none" d="M197.8 816.9h6.5v2.2h-6.5z"/><path fill="#F6F2A6" d="M195.5 850.8h7.5v2.1h-7.5z"/></g><path fill="#CECECD" stroke="#898885" d="M103.6 812.4l48.9-.1.1-1.8-48.9.2zm0 7.2l48.9-.1.1-1.8-48.9.2zm.1 7.4l48.9-.1.1-1.7-48.9.1zm0 7.2l48.9-.1.1-1.7-48.9.1zm0 6.6l48.9-.1v-1.8l-48.9.2zm0 7.2l48.9-.1v-1.8l-48.9.2zm.1 7.4h48.9v-1.8l-48.9.1zm0 7.2l48.9-.1v-1.7l-48.9.1z"/><path fill="#CECECD" stroke="#898885" d="M105.5 860.2l-1.8 2.2v-51l1.8-.7zm46 0l1.8 2.2v-51l-1.8-.7z"/><g fill="#CECECD" stroke="#898885"><path d="M121.3 838.3s-5.4.2-8.1-3.4c-2.7-3.6-2.7-7.2 0-10.4s9.9-5.5 16.4-5.6c8.5-.2 11.3 1.1 13.1 4.6 2.7 5.3 3 8.2-.9 10-3.9 1.8-5.4 2.4-6.4 4.8s8.5 10.6 8.5 12c0 1.4.3 2.8-1.9 1.8-2.2-1-7.1-6-8.3-9.4-1.2-3.4-2-6.4.5-8 2.4-1.6 6.4-2.4 6.6-4 .2-1.6 2.2-7.6-2.7-8.8-4.9-1.2-9-1.6-13-.4-3.9 1.2-7.3 2.2-8.3 5-1 2.8-2 5.8 1.2 8s9.5 4 9.5 4l-6.2-.2z"/><path d="M125.9 825.7h1.7s3.4 21.2 0 24.6c-3.4 3.4-2.8 4.7-7.9 5-7.6.4-10.2-1-10.4-5.4-.2-4.4-.4-6.4 1.9-7.6 2.3-1.2 4.7-2.8 6.4-2.8 1.7 0 5.9-.6 4.2 1.1-1.7 1.7-4.4 1.1-7.1 2.5-2.7 1.4-2.9 5.4-2.2 6.6.7 1.2 1.5 3.1 4.2 2.7 2.7-.3 5.9-.5 7.6-2.5 1.6-2 1.6-24.2 1.6-24.2z"/></g><path fill="#343433" stroke="#000" stroke-width=".25" d="M84 842.3c.9.2 1.3-.8 2-1 .8-.3 1-.3 2 0 1.8.5 4.7 1.4 5.6 2.8 1 1.5.7 3.4 1.2 5s1.5 3.1 1.9 4.7c.5 1.9-.1 3.5 0 5.3.1 2.6 3.3 3.9 2.8 6.3-.5 2.5-1.7 4.5-2.5 6.9-.4 1.1-.4 1.3-1.5 2.2-1.4 1.1-2 1.8-2.3 3.3-.4 1.9-1 4.1-3.9 4.1.9 0 1-.7 1.1-1.3-1.9.6-2.3 2.4-1.9 3.7.6 1.7.6 2.7-1.5 3.6 1.3-.8.9-1.7.3-2.5-1-1.3-2-1.7-1.2-3.4-.5.8-.4 1.6-.5 2.4-2.9-1.4-.7-5 .7-6.7-1 .4-1.8 1-2.5 1.7-.3-2.4 4-3.9 4.9-6 1-2.4.6-5.4 1.1-7.9.5-2.3 1.5-4.5 1.5-6.8 0-1.8.1-3.8-.3-5.6-.3-1.6-1.6-2.5-2.2-4-.9-1.9-1.3-3.2-2.9-4.8-.6-.6-1.1-1.6-2-1.8"/><path fill="#CA9832" stroke="#663534" stroke-width=".25" d="M81.9 875.3s-.6 8.9-.5 10.2c.2 1.2 1.1 1.2.9 2.9-.2 1.6-4.2 10.8-4.5 13.2-.3 2.4.2 3.7-.9 4.5-1.1.7-1.7.9-1.7 1.7 0 .9-.5 2.5-.5 2.5l-2.7.1s-.8-3.1 2.2-8.2 3-8 2.7-9.7c-.3-1.7-1.4-9.9-5.3-12.8-3.9-2.9.5-5.6.5-5.6l9.8 1.2z"/><path fill="#CA9832" stroke="#663534" stroke-width=".25" d="M33.8 842.1s20.4-.7 23.3-.4c2.8.4 9.2 2.2 12 3.4 2.8 1.1 3.3-7.1 23.7-.6 5.2 2.6 9.2 11.9 9.2 14.5 0 2.6-.5 11.2-2.8 14 0 0 0 6.9-1.6 9.9.9 5-.9 8-1.4 9.5-.5 1.5-.9 8.9-.2 9.9.7.9-.7 2.4-.7 2.4l1.2 6-4.7.2s.5-3.9.7-4.8c.2-.9-.9-3-.2-4.1.7-1.1 1.6-9.5.9-11-.7-1.5-.7-4.7-.5-6 .2-1.3-1.9-12.9-3.1-13-1.2-.2-8 5-16.2 5 .2 6-1.4 15.7-1.4 15.7s1.6 3.4.9 5.6c-.7 2.2 0 7.8.5 8.6.5.7.7 1.5.5 3-.2 1.5 2.1 5.6 2.1 6.7s-6.1.6-6.1.6.9-3.5.9-4.8c0-1.3-.7-2.4-.7-3.5s.5-5.2.2-6.5c-.2-1.3-3.5-8.2-3.1-10.8.5-2.6.2-5.4-.5-6.7-.7-1.3-2.8-6.1-4.5-6-1.6.2-3.3-.6-3.5 1.5-.2 2.1-.5 11.4-.5 13 0 1.7-.7 3.7-1.2 4.3-.5.6.2 5.6.7 7.1.5 1.5.2 2.6-.5 3.9-.7 1.3.2 5.8.2 5.8l-6.6.4s2.1-4.1 2.3-5c.2-.9.7-3 .7-4.3 0-1.3 0-8.8-.5-9.7-.5-.9-.2-4.1-.2-6s-1.6-5-2.3-5.6c-.7-.6-3.5-7.3-3.1-10.1-2.6-2.1-5.2-10.1-3.3-13.6-2.3-1.5-3.1-2.8-6.6-4.3l-5.4-9.9 1.4-4.3z"/><path fill="#CA9832" stroke="#663534" stroke-width=".25" d="M35.3 845.3s-2.8-7.3-4.9-7.6c-2.1-.4-1.9 0-1.4.7s.2 1.5.7 2.2c.5.7.9 1.7.9 1.7l-2.3.4s-5.4-2.6-6.3-3.5c-.9-.9-2.1 1.3.2 3.4 2.3 2.1 4 2.4 4 2.4s-2.8 4.3-3.5 5-1.6 2.2-1.2 4.5c.5 2.2-3.3 9.1-4 11-.7 1.9-.9 5.8 3.3 5.6 4.2-.2 3.8-2.6 5.4-3.5 1.6-.9 5.9-4.5 7.5-4.8 1.6-.4 9.9-3.7 6.8-8.9"/><path fill="#FFF" d="M21.5 870.5c-2.9.6-4.5-.9-4.5-3.2 0-1.2 1-3 1.6-3.9.6-.9.6-1.7 1.4-2.6 0 .1.1 1.3.1 1.4.9-.9 1.2-2.2 2.1-3.1.1.7-.2 1.3-.1 2 .2-.1.6 0 .8-.1.2.4.2.7.3 1.1.1.5.1.8.2 1.3.2.9-.5 1.7.9 1.4.8-.2 1.2-.8 2.2-.7.3 0 .7.4 1.2.5.4.1.9 0 1.4 0-1.1 1.3-3.1 1.8-4.2 3.2-.4.6-.5 1.5-1.2 2-.6.4-2.1.6-2.9.7"/><path fill="#2E1313" stroke="#663534" stroke-width=".25" d="M28.8 853.5s.5-1.6 1.2-1.5c.7.1 1.4.5 2 .6l.6.1s0 .4-.5.7c-.5.4-1.5.6-2.1.5-.6-.1-1.4.3-1.4.3l.2-.7zm-8.7 13.2c.3-1.1 2.3 0 2.4.7.1.8-1 1.6-2 1.5 0-.6.8-.9.6-1.6-.5-.1-1-.2-.8-.7"/><path fill="#CA9797" stroke="#663534" stroke-width=".25" d="M30.6 842.2c.4 1 1.1 2.4 2.3 2.9.1-1.6-.8-6.4-3.4-6.7 0 .6.1 1.2.3 1.8m-3.7 4.7c1.9-1.4 0-1.5-1.6-2-1.4-.5-3.2-1.4-3.4-2.6 0 0 .2 2.9 3.5 4"/><path fill="none" stroke="#663534" stroke-width=".25" d="M28.4 851.3c.9-1.1 4.6.1 4.3 1.1m-13.4 14.1c-.4-1.3 2-1.2 2.7-.6"/><ellipse cx="31.7" cy="853" fill="#FFF" rx=".3" ry=".2"/><path fill="#FFF" d="M31.3 853.3l-.1-.1c-.2.3-1 .2-1.3.2.2.3 1 .1 1.4-.1"/><path fill="#343433" stroke="#000" stroke-width=".25" d="M33.7 841.3s4.3-.8 4.8-1.1c.5-.3 1.5-.3 1.9 0 .4.3 1.4-.3 1.8-.7.4-.5 1.5-.9 2.3-.7.8.2 1.5.6 2 .9.5.4 1.1.5 1.8.2s1.2-.2 1.8.2c.6.4 1.2.7 2 .7.8.1 1.5.1 2.6 0s1.8-.1 2.5.4 2.5 1.1 2.5 1.1l2 .6s.1.6-.2 1.2c-.4.7-.2.2-.9-.5s-2.2-1.5-2.1-.1c.1 1.4-.2 2.8-.2 3.1 0 .3-.9.8-1.2 1.1-.2.3.2-.7.5-1.3.2-.6 0-2.2 0-2.2l-.9 2s.2-1.9-.1-2.2c-.4-.4-2.3-.7-2.3-.7s.1.6.1.9c0 .4-.8 1-.8 1s.2-.8.1-1.2c-.1-.4-1.1-.9-1.1-.9s-.5.4-1.5-.1c-1.1-.5-1.3-.7-1.9-.7-.6 0-.6.7-1.2.8-.6.2-1.4-.3-1.4-.3s-.7-.5-1.2-.6c-.5-.1-1.1-.5-1.8-.3s-1.1.1-1.4.1c-.4 0-6.8.3-7.4.6-.8.2-1.1-1.3-1.1-1.3zm-3.5 1.1c-.8-.3-2.9 1.3-3.5 1.8-1.3 1.2-1.6 2.5-2 3.9.4-.4.4-1.1 1.1-1.5-1 1.7 1.1 2.5.8 4 .5-.8.1-1.4.3-2.1.3-.8 1.5-1.3 1.7-2.1.4.3.1.8-.2 1.2 1.2-.4 1.4-1.3 1.9-2.1.8 0 1.4.6 2.3.3-1.3.3-1.4-2.9-2.4-3.5"/><path fill="none" stroke="#663534" stroke-width=".25" d="M44.7 860.5c2.5 1.1 6.6 3.9 6.7 6.3m21.9 10c.1-1.2-.4-1.6.5-2.7 1-1.2 1.8-2.4 2.4-3.8 1.4-3.8-.8-7.5-1.9-11.2m-14.8 19.4c-3.9 0-6.1-.4-9.1-2.2m12.4 2.2c-.9-.2-1.1-3-1.3-3.8m27.6-2.9c3.1-1.6 5.3-4.4 7-7.2 2.1-3.2 1.8-7 1.8-10.6m-62.6-8.9c1.4.8 2.7.8 2.5 2.6m5 5.4c2 2 4.9 3.5 6.9 5.6"/><path fill="#343433" stroke="#000" stroke-width=".25" d="M69.8 917l.5-2.1s2.7.9 4.7 0c.2-.2.9 1.6.9 1.6s-.6.8-6.1.5zm-17.5-4.7s3 .9 4.7.1c.2.1.5 1.8.5 1.8l-6.6.4 1.4-2.3zm39.8-3.3s2.3.1 3.8-.1c0 .1.5 1.9.5 1.9l-4.7.2.4-2z"/><path fill="#FFF" d="M22.9 862c.5-.3.2-.7.3-1.1.2-.6.9-.9 1.3-1.3.7-.7 1.7-2.2 1.5-3.1-.2-1.1-1.4-2.4-1.7-3.4-.3-.7-.7-1.3-.6-2 .1-.5.5-.8.3-1.4-1.7.1-2.1 3-2.1 4 .1 1.6.1 3.2-.6 4.7-.4 1-1.2 2-1.6 3-.8 2 1.9 1.4 3.2.6"/><path fill="#B45026" stroke="#B45026" stroke-width=".25" d="M75.4 852.3c-1.2.3-2.1 2-1.1 3.1 1.3 1.6 3.9-.5 5-1.1 3.2-1.4 5.2-3.6 8-5.6-1.5-.6-3.6 1.6-5.1 2.2-.2-.4-.5-.6-.9-.7-.6.2-1.1.6-1.5 1.2-1.1.4-1.7 1.3-3.1 1.4"/><path fill="#5E5E5E" stroke="#5E5E5E" stroke-width=".25" d="M73.5 870.9c.1 1.3 1.4 7.2-.3 7.8-.7.3-2.3-.2-3-.3-1.2-.1-2 .5-3.1.4-.4-1.2.5-1 1-1.5.6-.6.9-.8 1-1.8.2-1.5-.3-2.6-.5-4-.1-.9-.2-3.4.4-4.1.6-.8 3.4-1.2 4.1-.4.6.8-.3 1.1-.3 1.7-.1.6.6 1.4.7 2.2z"/><path fill="#B45026" stroke="#B45026" stroke-width=".25" d="M59.1 832.7c-1.1 1.4-3 7.4-4.8 8.2-.5.2-1 .2-1.4-.3 1.9-2.1 4.1-7.1 5.5-8.6"/><path fill="#FDD8BD" d="M52.9 826.3c-.6.5-1.4 1.2-1.1 2.1.6 1.9 3.1 1 4.2 2.2 0-.8-.6-1.6.1-2.1.7-.6 2.1-1.7.4-3.3-1.6-1.4-2.3.1-3.6 1.1z"/><path fill="#FDD8BD" stroke="#DBAF92" stroke-width=".25" d="M56.5 827.7c.3-1-2-.9-2.6-.6"/><path fill="#6798CA" stroke="#6798CA" stroke-width=".25" d="M75.4 813.5c-1.7-1.5-7.6-.9-9.5 0-1.5.7-3.3 2-4.7 3-1 .7-1.1 1.4-1.7 2.2-.6.7-1.6.9-1.6 2-1.1 0-.5 1-1.1 1.5-.5.4-1.4-.2-1.8.7-.7 1.3 1.5 2.5 2.2 3.1.5.5 2.7 2.9 3.6 2 .3-.3.1-1.4.4-1.8.2-.3 1.1-.8 1.4-1 .5 1.2.1 4.3-.3 5.5-.4 1.1-1 1.6-1 2.8 0 .8.3 1.9.4 2.7.5 2.1 2.7 1.8 4.6 2 1.8.1 3.6.3 5.4.4 1.9 0 3.8 0 5.7-.1.9-.1 2.3-.4 2.4-1.6.1-.9-1.3-1.6-1.3-2.4-.1-.8.9-2.1 1-3.1.1-.8.5-1.8.4-2.7-.1-.9-.5-2.6-1-3.3-.5-.6-1 .3-.8-.5 1.2.8-.2.3 1.2.4 1.1.1 1.6 1 2.6 1.1 1.7.2 3.8-2.7 5.2-3.5-1.1-.9-1.3-2-2.6-2.8-.6-.3-1.1-.6-1.5-1 .2.1-.6-.8-.5-.6-.3 0-.5-.1-.6-.3-.5-.5-.6-1.3-1.1-1.8-.4-.4-1.1-.5-1.6-.8-.9-.5-1.9-2.1-2.9-1.6"/><path fill="#FFF" stroke="#FFF" stroke-width=".25" d="M68.4 817.1c.7-.3 1 .4 1.7.4.6 0 .9-.6 1.5-.2-.2 1.2-1.3 2.7-2.6 2.6.1-1.3-1.1-1.7-.5-3"/><path fill="#CA9765" stroke="#986632" stroke-width=".25" d="M78.1 838.7s1.2 2.5 1.2 4.1c0 1.6-2.8 6-3.3 6.2-.5.2-2.6 2.3-3.3 3.2-.7.9-1.4 1.8-1.6 2.3-.2.5 0 3.5 0 3.5h.9l-1 2.6 1.1 2.6s1.1 1.9 1.1 2.5c0 .5.4 1.9.4 1.9l.4 1.4s-2.8 1.4-2.9 1.4h-3.4S64 858.6 64 858c0-.5.4-2.3 0-3.5-.4-1.2 2.1-7.1 2.1-7.1s1.1-1.5 1.1-2.1c0-.5-2.3-2.3-2.3-2.3s-1.9-.2-2.8-.2c-.9 0-2.8-1.1-2.8-1.1l3.1-3.4 15.7.4z"/><path fill="#986632" stroke="#986632" stroke-width=".25" d="M62.5 837.3c-.9.4 11.5-.4 16.1.7.3 1.8-2.1.9-3.1.9h-3.7c-.6 0-11.1 1-9.3-1.1"/><path fill="#233E98" stroke="#233E98" stroke-width=".25" d="M83.4 825.6c.8-1.3 4.4-5.2 5.9-2.5.8 1.5-.9 1.6-1.9 1.7-1.3.2-2.5.8-3.7 1" opacity=".66"/><path fill="#FDD8BD" d="M81.5 829.6c1.8-.1 3.3 1 5.3 1.1 1.7.1 4.8-.2 4.6-2.4-.1-.9-.7-2.1-1.3-2.8-.9-1.1-1.5-.7-2.7-.6-1.6.2-3 .9-5.7 1.3.3 1.1-.5 2.4-.2 3.3"/><path fill="#233E98" stroke="#233E98" stroke-width=".25" d="M66.4 813.2l-2 2.1-.7 1.8s1.8-.7 2.2-.9c.4-.1.5.2.5.2v1.6l2.9 1.9-.8-2.1-.2-2.7-1.2-2.1h-.7z" opacity=".66"/><path fill="none" stroke="#231F20" stroke-width=".25" d="M65.9 837.7c-.1-1.4.6-2.7.7-4 .2-1.3.1-2.7.2-4 .2-1.4.1-2.8.3-4.1.1-1 .6-2.8.8-3.7"/><path fill="#233E98" stroke="#233E98" stroke-width=".25" d="M71.5 818.4c-.2-3.3 2.3-.6 4-1 .2-1.1.7-4-.5-4.5-1.7-.6-2 2.9-3.2 3.8m-.6 2.1c-1.5.2-3.2 2.1-3.5 3.5.6-.2 2.6-1.6 2.9-2.2m-13 .7c1.5-1.2 3.2 2.2 2.1 3.1-.8-1.3.3-2.8-2-3" opacity=".66"/><path fill="none" stroke="#231F20" stroke-width=".25" d="M78.3 834.4c-.2.9-1.1 1.3-1.5 2 .7-.3 1.2-.9 1.5-1.5"/><path fill="#233E98" stroke="#233E98" stroke-width=".25" d="M81.8 823.2c.2-1.3 1.7-1.4 2.7-1.8-1.1-.8-2.8.3-2.9 1.5m.4-4.6c-1.6-.9-2.6.3-4 .8.6-1.1 2.3-1.5 3.4-1m-3.7 3c-.3.9.2 2 0 2.8-.9-.2-.5-2.7-.2-3.4m-1.4-5.8c1.1 0 1 1.1 1.8 1.6m2.1.6c-1.1.2-2.7.8-2.9 1.9" opacity=".66"/><path fill="none" stroke="#231F20" stroke-width=".25" d="M77.8 832.9c-2.1.9-3.2 3-5.5 3.4 2-.7 3.7-2.1 5.4-3.4"/><path fill="#233E98" stroke="#233E98" stroke-width=".25" d="M74.2 818.6c-.4 1.1 0 2.9.5 3.9-.1-1.4-.1-2.3-.8-3.6m-11.3-1.8c-.2.7-.1 1.5-.1 2.2-.2-1-.2-1.9-.2-2.8m2.6 2.1c-.8.4-1.3 1.2-1.8 1.9.3-.7.8-1.3 1.3-1.9" opacity=".66"/><path fill="none" stroke="#233E98" stroke-width=".25" d="M71 823.4c-.1.3 0 .7.1.9 1.8.2 3.6-.1 5.3-.6 0-1.5-.8-1.3-1.9-1.1-1 .1-2.2 0-3 .7m-6 .3c1 2-3.8 1.8-3 0h2.6" opacity=".66"/><path fill="none" stroke="#233E98" stroke-width=".25" d="M71.5 824.6c-.6 1-.2 2.8 1 3.2.6.2 3.8-.6 4.2-1 .4-.6.2-1.4 0-2-.3-1 0-.9-1.2-.9-1.3 0-2.8.4-4 .6m-6.2.1c.7.4.4 1.6-.2 2-.5.4-1.6.2-2.3.3 0-.9-.5-1.8-.5-2.8.6.6 2.4.9 2.9.1" opacity=".66"/><path fill="#986632" stroke="#986632" stroke-width=".25" d="M67.2 845.1c.3-.9 1.7-1.4 2.6-1.5m3.4-.9c-.7-.7-1.6-.5-2.6-.5m3.6-1.9c.9.3 1.9.2 2.6 1m-7.7-.5c1-.5 2.2-.4 3.3-.9m6.1 3.1c-1 0-2.9 4.6-3.7 5.5-1.7 1.7-3.3 3.8-4.4 6M71 867c-.1-1 .5-1.8 1.1-2.6m-4.3-9c.9.2 1.9.9 2.8 1.2m0-2c-.1-.4-.4-.7-.9-.9m5-7.1c-.4-.3-.9-.6-1.3-.9"/><path fill="#233E98" stroke="#233E98" stroke-width=".25" d="M72.9 820.1c0 .7.1 1.5.2 2.2" opacity=".66"/><path fill="#86421E" stroke="#86421E" stroke-width=".25" d="M73.8 851.1c.7.3.8.9 1.8.8.9-.1 2.1-.9 2.8-1.3 1.2-.7 4.2-2.1 2.9-3.7-.3-.3-.8-.4-1.1-.7-.3-.3-.2-1.1-.6-1.2-.8-.3-1.8 1.5-2.2 2-1 1.2-3.5 2.9-3.5 4.5"/><path fill="#9A5124" stroke="#B45026" stroke-width=".25" d="M75 853.5c-.8 1 .4 3 .7 4 .4 1.4 1 2.5 1 4-.1 2.3-1.2 6.9-4 7.4-.1-1.5-.6-2.9-.6-4.3 0-.8 0-1.5-.3-2.3-.4-1-.9-1.3-.8-2.4 0-.3.5-.6.5-1 0-.6-.2-.6-.3-1-.1-.7-.5-1.4-.3-2.3.2-1.4 2.5-2.9 4-2.3"/><path fill="#86421E" stroke="#86421E" stroke-width=".25" d="M58.2 843.9c.4.3.6.9 1.1 1.2.4.3.9.2 1.3.4.9.6 1.1 1.9 2 2.6.6.5 1.8 1 2.6.3s.2-2 .1-2.9c-.2-2.2-1.5-4-3.9-4.3-.8-.1-2.2-.1-2.7.6-.5.8 0 2.5.7 2.9"/><path fill="#9A5124" stroke="#B45026" stroke-width=".25" d="M79.6 841.8c1.1 0 2.2.1 3.3.5 1.3.4 1.7 1.4 2.6 2.3.8.7 2.5 1.4 2.2 2.6-.6 1.9-2.1.3-2.7-.4.4.6 1 .8 1.1 1.5.3 0 .7.2 1 .1-.2.8-3 3.1-3.7 2.4-.9 1.5-1.9-.5-2-1.4 0-.6.5-1.2.4-1.7-.1-.6-1.1-1.4-1.5-1.8-1.3-1.3-1.3-1-.6-2.6.3-.7 0-1.1.8-1.4.5-.2 1.5.3 2.1.4"/><path fill="#9A5124" stroke="#B45026" stroke-width=".25" d="M71.1 854.6c1.6-.9 3.1-1.2 4.9-1.2 1.5 0 3.8-.5 5-1.4 1.3-1 .5-2 .4-3.4-1.4 1.8-3.5 2.8-5.7 3-1.1.1-1.9-.5-2.9-.1-1.3.5-1.5 1.6-2 2.7"/><path fill="none" d="M86.3 848.1c-1.5-.7-.9-1.4-1.8-2.5-.3-.3-.8-.3-1.2-.7-.3-.4-.4-1.1-.8-1.6m-2.4 0c.5.3 1.4.2 1.3 1m2.3 6.5c-.2-.6-.1-1.4-1-1.3"/><path fill="#9A5124" stroke="#B45026" stroke-width=".25" d="M63.8 853.3c-1.6.6-1.9-1.4-3.6-4.1-.4-.7-1.2-5.2.6-3.3.6.7.6 1.7 1.5 2.3.7.5 1.8.8 2.7.4 1.8-.9-.3-3.6.1-5.2.5-.1 1.9 1.4 2 2 .3 1.1-.6 1.9-1.1 2.8-.9 1.7-1.2 3.9-2.3 5.4-.1 0 .3 0 .2-.1"/><path fill="#CA9832" stroke="#CA9832" stroke-width=".25" d="M86 847.7c-.9-.6-.6-1.3-1.2-2-.4-.4-.9-.4-1.3-1-.3-.5-.4-1.2-.7-1.7m-2.4 0c.4.7 1.2.9 1.3 1.9m2.4 2.6l-1.1-1.1m-.6 3.1c.9-.2 1.7.4 1.2 1.3"/><path fill="#9A5124" stroke="#B45026" stroke-width=".25" d="M76.4 859.8c.3 1.6-.6 3.4-.2 4.9 1.6.5 4.2-1 5.8-1.4 2.1-.5 4.3-.7 6.2-1.3 2.7-.8 1.2-3.2.8-5.1-.5-2.2-2-8.7-5.3-5.2-.9.9-1.1 1.3-2.3 1.8-1.3.6-5.3 1-6.1 2.1-.7 1.2.8 3.2 1.1 4.2z"/><path fill="#86421E" stroke="#86421E" stroke-width=".25" d="M82.1 853.5c1.8 1.8 3.2 7.4 2.2 9.8.6-.1 1.2-.5 1.9-.6.7-.1 1.4.1 2-.3-.9-2-1.2-4.5-1.7-6.7-.2-1.1-.4-2.6-1.2-3.5-1.5-1.5-1.7.2-2.9.9m-3.1 1.4c-.7 1.3.2 2.2.6 3.3.4 1 .6 2.3.7 3.4.2 1.3.6 2.2-.6 2.7-.7.3-2.6.7-3.4.6-.2-.9.1-1.9.1-2.9 0-1.1-.3-2-.6-3-.2-.7-.8-2.3-.2-3 .4-.5 2.2-.7 2.9-.9"/><path fill="#CA9832" stroke="#CA9832" stroke-width=".25" d="M77.1 855.1c-.1 1.3.6 3 1 4.3.4 1.4.2 3 .7 4.4"/><path fill="none" stroke="#CA9832" stroke-width=".25" d="M83.2 852.3c2 2.7 2.4 6.6 3 9.9m-8.5-4.6c.3-.9 1-1.5.9-2.4m-.3 5.7c.6-.8.8-1.8 1.3-2.7"/><path fill="none" d="M85.8 860.2c.2-.7.6-1.3.9-1.9m-7.9 5.3c.4-.8 1.1-1.4 1.5-2.2m4.7-4.5c-.2-.8-.8-.8-1.5-1.2"/><path fill="none" stroke="#CA9832" stroke-width=".25" d="M84.4 852.3c-.1.5-.1 1 0 1.6"/><path fill="#CA9832" stroke="#CA9832" stroke-width=".25" d="M85 857c-.1-1.1.4-2 .7-3"/><path fill="none" stroke="#CA9832" stroke-width=".25" d="M86 860.2c.1-.8.4-1.6.9-2.3"/><path fill="none" d="M86.7 862.4c.3-.3.6-.6.9-1"/><path fill="#B45026" stroke="#B45026" stroke-width=".25" d="M62.4 853c-1 1.4-.2 5.5-.2 7.3-.1 1.2-.2 2.4-.1 3.6 0 1.8.4 1.8 2.2 1.7 1.9-.1 1.4-1 1-2.6-.3-1.2-.7-2.5-.8-3.7-.2-1.2-.2-2.4-.3-3.7 0-.5.1-1.7-.1-2.1-.5-.5-1-.3-1.7-.5"/><path fill="#B45026" stroke="#B45026" stroke-width=".25" d="M38.3 861.5c.7.5 1.1 1.4 2.2 1.8.8.3 2.1.4 3 .3 1.9-.3 4.2-1.4 6.1-2 4.1-1.3 8.1-3.8 12.4-4.5 1.7 3-2.9 3.2-4.7 3.8-2.5.8-5 1.9-7.5 2.8-2.6.9-4.8 2.7-7.5 2.7-1.3 0-5.2-3.2-6.3-4.1-1.1-.9 1.4-.2 2.4-1.2m25 .3c.2 1.7 3.2 8.2 4.7 8.5 2.6.5.7-3.3.5-4.3-.3-1.2-3.2-5.1-4-5.4"/><path fill="#B45026" stroke="#B45026" stroke-width=".25" d="M74.1 875.5c-.4-1.5-1-2.5-1.9-3.7-.6-.8-1.6-3.1-2.7-2.3l-.1-.1c-1.2 0-1.7 1.8-2.1 2.8-.4 1.1-.4 2.5-.6 3.7-.2 1-.6 2.9.2 3.8.7.8 2.5.8 3.5.7 1.2-.1 2.9-.3 3.8-1.3 1-1.2.3-2.2-.1-3.6zm-.6 2.9c-.4.7-2.3 1.2-3 1.3-.9.1-2.7.1-3.1-.7-.4-.7.1-2.3.1-3.1.1-1.2-.1-3.4.8-4.4h-.1s.1 0 .1-.1c.4-.4.9-.6 1.7-.4l-.6.2c1.9-.1 2.7 1.9 3.4 3.8.4.8 1.2 2.5.7 3.4z"/><path fill="#231F20" stroke="#231F20" stroke-width=".25" d="M67.5 878.9c1.1.9 1.3 1.1 2.8.8 1-.2 2.5-.4 3.1-1.1-1.1-1-4.5-.8-5.6.2"/><path fill="#FFF" stroke="#FFF" stroke-width=".25" d="M71 877.8c-.5-.2-3.1-.4-3.5.1-1 1.3.8.3 1 .3.7-.2 1.3-.3 2-.4" opacity=".24"/><path fill="#233E98" stroke="#233E98" stroke-width=".25" d="M54.8 824.8c-.5-1 .6-3 1.9-2.5.7.3 1 1.3 1.5 1.8.6.7 1.5 1.1 2.1 1.8.5.6 1.1 1.1.4 1.8-.8 1-1.3-.1-1.9-.4-.8-.5-.9-.5-1.6-1.3-.7-.7-1.3-1.2-2.3-1.2" opacity=".66"/><path fill="#CA9765" stroke="#986632" stroke-width=".25" d="M78.4 825.9c.4.1.6.3.6.7m.9 2.9c.2 0 .4 0 .6.1m-4.9-3.4c.4.1.5.5.4.9m-17.8 1.3c.6-.1 1-.7.9-1.3-1.7-.6-4.6 2.7-2.8 3.9.3.2.9 0 1.3.2 0 .2 0 .4.1.6.2.1.4.2.7.1.5.5 1.3 1.4 2 .7-.2-.3-.4-.7-.7-.9.6 1.7 2.3.1 1.1-.8-.1 1.7 3.4.2.9-1.1 1 1.6 2.7.2 1.5-1.2-1.1-1.2-2.6-.8-4-1.3m-.6 3.7c-.1-1.4 1.6-1.6 1.9-2.8"/><pattern id="e" patternTransform="translate(4208.004 4562.923) scale(1.5314)" xlink:href="#e"/><path fill="url(#e)" d="M78.2 812.7c-1.7.2-3.4 1.4-5.1 2-1.7.6-3.5.9-5.3 1.1-.2-1 .7-1.8.9-2.7-2.8.3-3 1.5-4 3.7-.9 2.2-1.2 4.4-1.1 6.6 4.4-3.9 13-3.8 15.1-9.4.6 1.2 1.1 2.5 2.7 3 .3-1 .2-1.8-.5-2.7.6.5 1.6.7 2.5.6-.3-1.8-3.6-2.6-5.5-2.1"/><path fill="#FDD8BD" d="M83.7 807.3s.2 3.8-.3 4.4c-.5.6-2.2 2.1-6.3 2.9-4.7.9-7 .8-9.2 0-1.9-.7-3.3-1.5-4.2-2.4-.9-.9-1.3-1.6-1.6-2.6-.2-1-.4-2-.2-2.2.2-.3-.6-4.3-.6-4.9 0-3.4 7.6-7.3 11.5-7.6 3.7-.3 10.4 4.3 10.4 8.5.1.7.5 3.9.5 3.9z"/><ellipse cx="65.2" cy="805.9" fill="#050506" rx=".4" ry=".7"/><ellipse cx="72.1" cy="806.2" fill="#050506" rx=".4" ry=".7"/><path fill="#FDD8BD" stroke="#E0AC86" stroke-width=".25" d="M69.3 809.2s-.3-.9-1.1-.7c-.8.1-1 .8-1 .8"/><linearGradient id="f" x1="-266.456" x2="-269.872" y1="810.63" y2="810.63" gradientTransform="matrix(-1.5513 0 0 1 -342.044 .065)" gradientUnits="userSpaceOnUse"><stop offset="0" stop-color="#ec1475"/><stop offset="1" stop-color="#fff5cb"/></linearGradient><ellipse cx="74" cy="810.7" fill="url(#f)" opacity=".18" rx="2.6" ry="2.3"/><linearGradient id="g" x1="121.969" x2="125.949" y1="810.418" y2="810.418" gradientTransform="matrix(-1 0 0 1 187.378 0)" gradientUnits="userSpaceOnUse"><stop offset="0" stop-color="#ec1475"/><stop offset="1" stop-color="#fff5cb"/></linearGradient><ellipse cx="63.4" cy="810.4" fill="url(#g)" opacity=".21" rx="2" ry="2.3"/><path fill="#E2C720" d="M69.2 796s-.5 2.4-.1 2.6c.4.2 5.9 1 8 1 2.1 0 3.4 1 3.9 1.4.5.5 1.4-1.4 1.4-1.4s-5.1-5.1-9.9-4.8c-4.9.2-3.3 1.2-3.3 1.2z"/><path fill="#020303" d="M72 812.1s5.2.1 7-.1c1.7-.2 2 .1 2.6-1.3.6-1.4 1.8-1.9 1.8-1.9s.7 1.8.1 2.9c-.6 1.1-7.5 4.4-12.2 3.6-4.7-.8-5.8-1.7-7.2-2.8-1.4-1.1-1.9-2.3-1.7-2.8.1-.5 1.2 1.5 2.8 2 1.5.5 6.7.6 6.8.4zm-9.6-4.8l-.1 2.3s-.2.1-.6-.8c-.4-.8.7-1.5.7-1.5z" opacity=".04"/><path fill="#B45026" stroke="#B45026" stroke-width=".25" d="M62.6 828.3c1.4-2.3 5.6-3.7 8.3-3.3 2 .3 7.2 4.1 6.9 6.5-.5 4-14.4 11.2-17.7 13.6-9.8 7.3-23.1 9.8-31.1 19.1.4-6.8 17.7-15.4 23.5-17.2 5.4-1.7 9.7-4 14.1-7.4 2.7-2.1 15.7-8.5 7.5-11.4 0 0-1.6-1.9-4.6-1.5-3 .4-6.2 2.1-6.2 2.1l-.7-.5z"/><path fill="#CA9765" stroke="#986632" stroke-width=".25" d="M74.5 828.1c-.5.3-2.3 1.7-.7 2 .7.1 1.4-1.7 2.2-1.9-.6.7-1.5 1.2-1.9 1.9.7 0 1.2-.6 1.9-.8-.4.3-2 .9-1.1 1.5.2.1 1.8-.4 2.1-.5.8-.2 1.5-.7 2.4-.5.7.2 1.1 1.1 2 .6-.4-1.5 1-1.6.7-3.1-.1-.7-.6-1.5-1.1-1.9-.9-.7-.7-.3-1.6 0-1.6.5-3 .3-4.6.4-1.1.1-1.8.4-2.3 1.5-.4.8-.6 2.4.9 2.3.4-.9.8-1.3 1.4-2"/><path fill="#E2C720" d="M67 803.4c-.8-.4-1.1-.5-1.9-.3-.1 0-.8.4-.9.4-.3.2-.7.1-.8.6 1.1.3 2.2-1.3 3.3-.8m4.4.8c.6-1.4 2 .6 2.8.4-.4-.8-2.1-1.9-2.8-.7"/><path fill="#E2C720" stroke="#CEAF2C" stroke-width=".25" d="M67.8 810.6c-1.7.2-2.7 2.8-4.5 2.4 1.1 1.5 3.8-.9 5.2-.9 1.5 0 4 2 5.4.7-.4-.7-1-.2-1.6-.3-.8-.2-1.1-.8-1.7-1.2-1.4-1-2.2-.4-3.6-.4"/><path fill="#E2C720" d="M62.9 799.6c3.9 0 8.8 1.7 12.7 1.8 2.4 0 3.6 0 5.3 1.8 1.1 1.2-1 7.1 2.1 5.8 3.7-4.1-3-9.6-6.3-10.4-3.7-.9-9.7-1.9-13 .5"/><path fill="#E2C720" d="M64.4 799.8c-3.3.2-.6 5.9-2.8 6.5-1.4-2.5 0-5.5 2.2-7"/><g fill="#CA9765" stroke="#986632" stroke-width=".25"><path d="M66.5 799c.1-1.3.6-3.5 1.1-4.7.5-1.2 4-3.8 4.3-1.4-.4.4-.9.5-1.5.3 4.2-1.6 11.4-2.3 11.2 3.8-1.3.5-2.9.4-4.3.8-1.7.5-3.3 1.5-5 1.9"/><path d="M66.3 798.1c-1.3-.4-5.8-2-6.6-1-1.6 2.1 5.2 3.7 7.3 4.1 2.6.4 5-.3 7.6-.1 2.8.3 5.7.8 8.1 2.3-.4.2-.8.6-1.1 1 1 .5 5.6-.2 6.3-1.2 1.7-2.2-.4-5.3-2.6-5.9-2.1-.6-4.5-.3-6.7 0-1.6.2-5.7 1.7-6.3 2.6"/></g><path fill="#B45026" stroke="#B45026" stroke-width=".25" d="M30.6 862.4c4.8-3.8 7.1-15.3 3.7-18-1 2.5.9 5.4 0 8-.9 2.7-3.1 6.9-3.7 9.7m-1.6 2.2c-1.1-2.8-13.3-4.8-12.1.8 3.6-3.8 8.5-2.1 12.1.3"/></g></switch></svg>
