<svg xmlns="http://www.w3.org/2000/svg" xmlns:xlink="http://www.w3.org/1999/xlink" version="1.0" viewBox="0 0 220 129"><switch><g><symbol id="a" viewBox="-67.1 -72.6 134.2 145.2"><path fill="#007647" d="M14-2.3c-.5.6-1.4.6-2 .1-.2-.2-4.3-4-8-10.7C4.6 6.7 6.8 24 6.8 24.3c.1.8-.5 1.5-1.2 1.6-.8.1-1.5-.5-1.6-1.2 0-.3-2.6-21.2-3-43.1-2.6 7-5.6 10.6-5.8 10.8-.4.6-1.3.6-1.9.1-.6-.5-.7-1.4-.2-2 .1-.1 5.5-6.8 7.9-19.9.2-7.5.7-14.8 1.8-21 .1-.8.9-1.3 1.6-1.1.8.1 1.3.9 1.1 1.6-.3 1.6-.5 3.3-.7 5.1.1.2.2.4.2.6.2 5.8-.3 10.9-1.1 15.4-.1 3-.1 6 0 9C7.7-10.1 13.9-4.3 14-4.2c.5.5.5 1.4 0 1.9z"/><path fill="none" d="M23.6 15.5c-.8 1.6-2.1 2.6-2.9 2.1-.8-.5-.7-2.2.1-3.8.9-1.6 2.2-2.5 2.9-2 .8.4.7 2.1-.1 3.7zm16.2-2c1.3-1.2 2.8-1.9 3.4-1.4.6.5 0 1.9-1.3 3.2-1.3 1.3-2.9 1.9-3.5 1.4-.6-.5 0-2 1.4-3.2zm19 10.8c-.5-.1-.7-.1-1.2-.2.4 0 .8 0 1.2.2zm-14.6-.2c.4 1.8.1 3.2-.7 3.2-.8 0-1.8-1.5-2.1-3.3-.3-1.8.1-3.2.9-3.2s1.6 1.5 1.9 3.3zM22.8 4.6c-.6-.6.1-2 1.5-3.2C25.7.2 27.2-.3 27.7.3c.5.5-.1 2-1.4 3.2-1.4 1.2-3 1.7-3.5 1.1zm9.1 13.5c.8.1 1.5 1.7 1.6 3.5.2 1.8-.3 3.2-1.2 3.1-.8-.1-1.6-1.8-1.8-3.6 0-1.7.6-3.1 1.4-3zm4.8-12.4c.5.5-.2 1.9-1.7 3-1.4 1.1-3.1 1.5-3.6 1-.5-.6.3-1.9 1.8-3s3-1.5 3.5-1z"/><path fill="#83B03E" d="M57.3 24.2c-.2.1-.3.2-.5.3-.6.3-.4 1.2.3 2 1.3 1.3 1.9 1.9 3.3 3.1-2 .9-4.3 1.8-7.1 2.4-1.7-2.6-2.4-3.9-3.8-6.6-.5-.9-1.4-1.6-2.1-1.4-.3 0-.4.1-.7.1-.7.1-.9 1-.5 1.9 1.3 2.7 2 4 3.5 6.6-2.3.3-4.7.4-7.2.2-1.8-3.9-2.5-5.8-3.7-9.7-.3-1-1.1-1.8-1.8-1.8h-.7c-.7 0-1.1.8-.8 1.8 1 3.7 1.7 5.5 3.2 9.2-3.1-.6-6.3-1.6-9.3-3.2-.4-3.6-.5-5.4-.5-9 0-1-.6-1.9-1.3-2.1-.3-.1-.4-.1-.7-.2-.7-.2-1.4.4-1.4 1.4-.1 3-.1 4.5.1 7.6-3.8-2.7-7-6.3-9.4-10.3 1.1-2 1.6-3 2.7-5 .5-.8.3-1.8-.3-2.3-.3-.1-.4-.2-.6-.3-.6-.5-1.5-.2-2 .6-.7 1.2-1.1 1.8-1.8 3.1C12 6.6 10.4 1 11.1-5.3h.2C23.6 10 38.6 19.4 57.6 24.1c-.1 0-.2.1-.3.1zm-26.7-3c.1 1.8.9 3.5 1.8 3.6.8.1 1.3-1.3 1.2-3.1-.2-1.8-.8-3.4-1.6-3.5-.9-.2-1.5 1.2-1.4 3zm-9.7-7.4c-.9 1.6-.9 3.3-.1 3.8s2.1-.4 2.9-2.1c.8-1.6.9-3.3.2-3.7-.9-.5-2.2.4-3 2zm21.3 7.1c-.8 0-1.2 1.4-.9 3.2.3 1.8 1.3 3.3 2.1 3.3s1.1-1.4.7-3.2c-.2-1.9-1.1-3.3-1.9-3.3z"/><path fill="#007647" d="M31.7 6.2c2.8-1.8 4.2-2.7 6.8-4.6 1.4.6 2.9 1.2 4.3 2 .8.4 1.5.9 2.2 1.3-3.1 2.1-4.7 3-8.2 4.8-.9.4-1.3 1.2-.9 1.8.1.2.2.3.4.5.4.5 1.4.6 2.3.2 3.5-1.9 5.1-2.9 8.2-5.2.2-.1.4-.3.5-.5 1.5 1.2 3 2.4 4.4 3.7-2.5 2-3.9 2.9-6.7 4.7-.8.5-1.2 1.3-.7 1.8.2.2.3.3.4.5.4.5 1.5.5 2.3 0 2.9-1.9 4.2-2.9 6.8-5 1.7 1.6 3.3 3.3 4.9 4.8-1.9 1.1-3 1.6-5.1 2.6-.9.4-1.4 1.2-1 1.7.1.2.2.3.4.5.4.5 1.5.6 2.4.1 2.2-1.1 3.3-1.7 5.3-2.9 3.2 3.3 5.7 5.9 6.2 6.5-3.3-.3-5-.5-8.2-1.1-.4-.2-.8-.3-1.2-.2C38.6 19.4 23.6 10 11.3-5.3c.9.2 4.9 1 10 2.1-.6.5-.9.7-1.4 1.1-.7.6-.9 1.5-.5 2l.5.5c.4.6 1.3.6 2-.1 1.2-1.1 1.8-1.6 3.1-2.7 3.3.8 6.9 1.6 10.3 2.7-2.1 1.4-3.2 2.1-5.4 3.3-.8.5-1.2 1.3-.8 1.8.2.2.2.3.4.5.4.7 1.4.8 2.2.3zm6.7 10.5c.6.5 2.2-.1 3.5-1.4 1.3-1.3 1.8-2.7 1.3-3.2-.6-.5-2.1.2-3.4 1.4-1.4 1.2-2 2.7-1.4 3.2zM27.6.3c-.5-.5-2 0-3.4 1.1-1.4 1.2-2 2.6-1.5 3.2.6.6 2.1.1 3.4-1.1C27.5 2.3 28.2.8 27.6.3zm3.9 9.4c.5.6 2.1.2 3.6-1 1.4-1.1 2.1-2.5 1.7-3-.5-.5-2-.1-3.5 1s-2.3 2.4-1.8 3z"/><path fill="#83B03E" d="M67.1 25.6s-1.3 1.1-3.9 2.6C61.7 27 61 26.3 59.7 25c-.3-.3-.6-.5-.9-.6 3.2.6 4.9.8 8.2 1.1.1 0 .1.1.1.1z"/><path fill="none" d="M1.6 39.9c-1.7.5-3.3.4-3.5-.2C-2 39-.8 38.1.9 37.6c1.7-.5 3.3-.4 3.5.2.2.6-1.1 1.6-2.8 2.1zm11.8 8.2c1.8.2 3.1 1 3.1 1.6-.1.7-1.6 1-3.4.7-1.8-.2-3.1-1-3.1-1.6.1-.6 1.6-.9 3.4-.7zm-1.3 18l-.1-.9c.1.2.2.5.1.9zM6.6 56c-1.4 1-2.8 1.4-3.2.9-.4-.5.5-1.7 1.9-2.7 1.4-1 2.8-1.4 3.2-.9.4.5-.5 1.7-1.9 2.7zm1.9-23.1c0-.7 1.4-1.3 3.2-1.4 1.8-.1 3.3.3 3.3 1s-1.4 1.3-3.2 1.4c-1.8.1-3.3-.4-3.3-1zM5 45.7c.4.5-.5 1.7-1.9 2.7-1.4 1-2.8 1.4-3.2.9-.4-.5.5-1.7 1.9-2.7 1.4-1 2.8-1.4 3.2-.9zm12.6-4.1c-.1.7-1.6 1-3.4.7-1.8-.2-3.1-1-3.1-1.6.1-.7 1.6-1 3.4-.7 1.9.2 3.2 1 3.1 1.6z"/><path fill="#83B03E" d="M11.8 65l-.5-.3c-.5-.3-1.3.1-1.8.9l-2 3.2c-1.4-1.1-2.9-2.5-4.4-4L7.8 60c.7-.7.8-1.5.4-1.9l-.4-.4c-.4-.4-1.3-.2-1.9.5l-4.6 4.7c-1.1-1.3-2.2-2.7-3.2-4.3l6.7-6.2c.7-.6.9-1.5.5-1.9l-.3-.6c-.4-.4-1.3-.3-2 .4l-6.2 5.8c-1-2-1.7-4.1-2.2-6.3l6.9-4.6c.8-.5 1.1-1.3.8-1.8l-.3-.5c-.3-.5-1.2-.5-2 .1l-5.8 3.9c-.2-3.3.4-6.6 1.4-9.7L1 35.4c.9-.3 1.5-1 1.3-1.5l-.2-.5c-.2-.6-1-.8-1.9-.5L-3.2 34c3.1-7.4 7.8-12.7 7.8-12.7s.1 0 .1.1L12 65.2c-.1-.1-.1-.2-.2-.2zm-10-18.5c-1.4 1-2.2 2.2-1.9 2.7.4.5 1.8.1 3.2-.9 1.4-1 2.2-2.2 1.9-2.7-.4-.4-1.8 0-3.2.9zm-.9-8.9c-1.7.5-3 1.4-2.8 2.1.2.6 1.7.7 3.5.2 1.7-.5 3-1.4 2.8-2.1-.2-.6-1.7-.7-3.5-.2zm7.6 15.7c-.4-.5-1.8-.1-3.2.9-1.4 1-2.2 2.2-1.9 2.7.4.4 1.8.1 3.2-.9 1.4-1 2.3-2.2 1.9-2.7z"/><path fill="#007647" d="M13.9 38.7l8 1.4c.5 1.4 1 2.9 1.2 4.4.1.8.2 1.7.3 2.5l-8.7-3c-.9-.3-1.7-.1-1.9.4l-.3.6c-.2.6.4 1.2 1.2 1.6l8.9 3.2c.2.1.5.1.7.1-.1 1.9-.4 3.7-.9 5.4l-7.3-2.9c-.9-.3-1.7-.2-2 .4l-.1.4c-.2.5.3 1.3 1.2 1.6l7.5 3c-.7 2.1-1.6 4-2.5 5.8l-4.3-3c-.8-.5-1.7-.6-2-.1l-.4.5c-.3.5 0 1.3.8 1.8l4.5 3.1c-2.1 3.6-4.2 6-4.6 6.5l-1-6.4c.1-.4 0-.7-.2-.9L4.8 21.3c.7.4 3.8 2.3 7.3 5.4l-1.8.2c-.9.1-1.6.6-1.6 1.2l.1.6c.1.6.9 1 1.8.9l4.1-.4c2.2 2.3 4.3 5 6 8l-6.2-1.1c-.9-.2-1.7.2-1.8.7l-.1.6c-.2.6.4 1.2 1.3 1.3zM10 48.8c-.1.7 1.3 1.4 3.1 1.6 1.8.2 3.3-.1 3.4-.7.1-.7-1.3-1.4-3.1-1.6-1.8-.2-3.3.1-3.4.7zm5-16.3c0-.7-1.5-1.1-3.3-1-1.8.1-3.2.7-3.2 1.4s1.5 1.1 3.3 1c1.8-.1 3.2-.8 3.2-1.4zm-3.8 8.2c-.1.7 1.3 1.4 3.1 1.6 1.8.2 3.3-.1 3.4-.7.1-.7-1.3-1.4-3.1-1.6-1.8-.2-3.3.1-3.4.7z"/><path fill="#83B03E" d="M13.1 72.6s-1.4-.8-3.4-2.2l2.1-3.4c.2-.3.3-.6.3-.9l1 6.4v.1z"/></symbol><path fill="#55C7E8" d="M0 0h220v129H0z"/><path fill="#71BD44" d="M0 93.5h220v35H0z"/><path fill="#999" d="M219.9 105.1L0 106.9v21.9l220.4.4z"/><use width="134.2" height="145.2" x="-67.1" y="-72.6" overflow="visible" transform="matrix(.182 0 0 -.1898 12.54 104.293)" xlink:href="#a"/><linearGradient id="b" x1="23.919" x2="210.096" y1="114.736" y2="114.736" gradientUnits="userSpaceOnUse"><stop offset=".011" stop-color="#f8e1b9"/><stop offset=".174" stop-color="#deb07a"/><stop offset=".332" stop-color="#edc78d"/><stop offset=".421" stop-color="#e9d4a6"/><stop offset=".539" stop-color="#e7c08c"/><stop offset=".714" stop-color="#deb07a"/><stop offset=".882" stop-color="#f8e1b9"/><stop offset=".994" stop-color="#e9b880"/></linearGradient><path fill="url(#b)" d="M29.7 101l-5.8 27.5 186.2-.2-11.9-26.6z"/><path fill="#F7E37C" stroke="#EACE2A" d="M24.7 128.2L23.9 32H37v72.6z"/><path fill="#EACE2A" stroke="#EACE2A" d="M16.4 30.4h8.7v98h-8.7z"/><path fill="#5A3B14" stroke="#5A3B14" d="M199.1 104.1c0 .4-.3.7-.7.7H37.7c-.4 0-.7-.3-.7-.7v-3.2c0-.4.3-.7.7-.7h160.7c.4 0 .7.3.7.7v3.2z" opacity=".88"/><path fill="#F7E37C" stroke="#EACE2A" d="M201.2 128.2V21.5h-13.1v80.1z"/><path fill="#EACE2A" stroke="#EACE2A" d="M201.2 27h8.9v101.3h-8.9z"/><path fill="#CC785F" stroke="#9A3421" d="M0 27.2L11.7 0h201.4l8 28z"/><path fill="#999" stroke="#999" d="M3 28h212.5v5.2H3z"/><path fill="#B3E2F6" d="M36.5 33.1h153.3v73.3H36.5z"/><path fill="#080404" d="M127.7 104.1c1.6-.4 27.1 17.2 27.1 17.2l27.5-16.6-24-10.2-30.6 9.6z" opacity=".04"/><path fill="#CEA676" stroke="#CEA676" stroke-width=".17" d="M153.8 83.1c1.5 1.4 3.1 2.4 5.2 2.4 1.1 0 1.7-.4 2.7.2.9.5 1.5 1 2.7.9 1.8-.1 3.6-.6 5.4-.8.9-.1 1.2.2 2.1.3.6 0 1.4-.2 2-.6.3-.2.5-1 .8-1.3 1.6-1.5 3.7-1.4 5.7-2 1-.3 5.8-.7 3.7-2.3-1.4-1.1-3.9-1-5.6-1.2-2.3-.3-4.5-.5-6.8-.5-1.5 0-2.9 0-4.4.1-1.4.1-2.8.3-4.2.2-1.4-.2-2.8-.3-4.2-.4-1.6-.1-2.5.8-4 1-.1 1.1-2 2.7-2 3.8 0 .8 1.5.5 2.2.9.5.3 1.5.3 1.8.8-.1 0-.3-.1-.4-.1"/><path stroke="#222721" stroke-width=".17" d="M144.9 112s.5-.3.9-.4c.4-.1 1.9 0 1.9 0l4.1 2.2-2.6.3-4.3-2.1z"/><path stroke="#222721" stroke-width=".17" d="M149.1 116.3l2.7-.5v-2.1l-2.6.3z"/><path stroke="#222721" stroke-width=".17" d="M144.9 114v-2l4.5 2-.3 2.3z"/><path fill="#DFB576" stroke="#DFB576" stroke-width=".17" d="M154.5 84.5s1.5.8 1.8.8h.8l.2.3 3.4-.3s.5.2.8.2c.3.1 1.6.5 1.6.5l1.1.2h.4s2.3-.2 2.6-.2c.3.1 1 .2 1 .2l.8-.2s0-1.1-.1-1.2c0-.1-1.3-1-1.7-1.1-.4-.1-1.6.1-2.6 0s-1.8-.2-2.5 0-1.8 0-2.2.2c-.4.1-2.3.3-2.3.3h-2.9l-.2.3z"/><path fill="#EEE2BC" stroke="#EEE2BC" stroke-width=".17" d="M146.3 74.5s.3 0 .7.2c.3.2.9-.1.9-.1l17.4-15.2s0-1-.3-1.1c-.3-.1-18.3 16-18.3 16l-.4.2z"/><path fill="#323233" stroke="#323233" stroke-width=".17" d="M184.6 68.2s.3-1.1-.2-1.3c-.5-.2-3.7-1.4-4.3-1.5-.6-.1-3.4-.9-4.2-1.2-.8-.2-2-.9-2.2-1.1-.2-.1-.5-.9-.8-1.4-.3-.5-1.5-2.4-2.2-2.4-.7-.1-5.1 0-5.1 0l-.3.2-17.4 15s2.2.6 2.6.9c.4.3 2 1.2 2 1.2l1.6.3h.5l.5.5.2.5-.1.3s.9.1 2 0c1-.1 4.9-.4 6-.4 1 0 3.5-.3 4.3-.5.8-.2 5.9-1.4 6.8-1.8.9-.4 3.9-1.4 5.1-2.3 1.2-.8 2.6-1.7 3.4-2.4.8-.7 1.3-1.2 1.6-1.5-.1-.3.2-1.1.2-1.1z"/><path fill="#353433" stroke="#353433" stroke-width=".17" d="M165.2 58.8l.4-.4-.2-.8-.6.6z"/><path fill="#1E1E1D" stroke="#353433" stroke-width=".17" d="M165.6 59.1v-.7l-.4.4v.5z"/><path fill="#323233" stroke="#323233" stroke-width=".17" d="M164.8 59l.1.3-17.7 15.3v-.2z"/><path fill="#353433" stroke="#353433" stroke-width=".17" d="M179.9 57.4v.6l-14.2.4-.3-.8z"/><path fill="#212020" stroke="#353433" stroke-width=".17" d="M174.2 62.8l5.7-4.6-14.2.2v.9s4.5-.2 4.9 0c.4.2 1.9 1.3 2.1 1.9.1.5 1.5 1.6 1.5 1.6z"/><path fill="#020202" stroke="#353433" stroke-width=".17" d="M148.4 74.5s15.7-4.7 16.4-4.9c.6-.2 3.9-1.3 4.4-1.5.6-.2 2.1-1 2.7-1.1.6-.2 1.8-1.2 2.2-1.4.5-.2 1.3-.5 1.3-.5l.4-.6h.4l-2.5 1.8-1.7 1.1-22.7 7.3-.9-.2zm29.7-9.4s-3.1 6.1-3.7 6.8c-.6.6-4.8 3.8-5.4 4-.6.2-3.8 1.2-4.2 1.3-.5.1-2.3.4-2.5.3h-.6s-3.9.6-4.4.6c-.4 0-1 .3-1.6 0l-.7-.3s9.1-1.1 9.7-1.2c.6-.1 6.2-2.5 6.8-3 .6-.5 2.6-2 2.8-2.4.3-.3 1.9-2.9 1.8-3.2-.1-.4.9-2 .9-2.2.1-.2.5-1.2.5-1.2l.6.5z" opacity=".43"/><path fill="#404040" stroke="#404040" stroke-width=".17" d="M178.1 65.1s-1 3-1.5 3.9c-.5.9-3.4 3.9-3.9 4.3-.6.4-6.9 3.6-6.9 3.6l-.3.6s7.6-1.7 8.6-2.1c1-.4 4.2-1.6 5.9-2.8 1.8-1.2 3.4-2.4 3.9-3.1.5-.7 1-2.2.8-2.4-.2-.3-2.2-1-2.6-1.1-.3-.1-2.7-.8-2.9-.8-.3-.1-1.1-.1-1.1-.1z"/><path fill="#1E1E1D" stroke="#353433" stroke-width=".17" d="M173.1 61.8s1.2 1.2 1.4 1.3c.2.1 3.2.9 4.1 1.2.9.3 3.2.8 3.8 1 .6.2 1.7.7 1.9.9.2.2.3.4.3.5 0 .1-.3.1-.3.1s-6.7-2.1-6.8-2.1c-.1 0-2.3-.7-2.5-.8-.2-.1-.9-.5-1.1-.6-.1-.1-.5-.4-.6-.5-.1-.1-.2-.5-.3-.6 0-.1.1-.4.1-.4zm3.7-3.6v2.3l2.9-2.1-2.9-.2z"/><path fill="#333332" stroke="#353433" stroke-width=".17" d="M176.1 58.4s-.2 1.6 0 1.8c.2.2 0 .7 0 .7l.7-.4v-2.3l-.7.2z"/><path fill="#1E1E1D" stroke="#353433" stroke-width=".17" d="M173.7 58.6s-.4 1.1 0 1.4c.4.3.6 1.5.6 1.5v1l1.2-.9.6-.6s-.1-1.2-.1-1.3l.1-1.3-2.4.2zm-3.8-.3s.7 0 .7.5-.7.4-.7.4h-4.2v-.9h4.2z"/><path fill="#333332" stroke="#353433" stroke-width=".17" d="M174.1 62.4l-1.9-1.9c-.2-.2-1.3-1.1-1.3-1.1s-.2-.3-.3-.5c-.1-.2-.4-.4-.4-.4s1.9.1 2.2 0c.3-.1 1 .8 1.2 1.2.1.2.5 2.7.5 2.7z"/><path fill="#1B1B1C" stroke="#1B1B1C" stroke-width=".17" d="M153.9 87.4s10-.5 11-.6c1-.1 3-.5 4.8-.6 1.8-.1 2.8-.2 3.2-.2.5 0 .8.3 1.1 0l.9-.9s.1-.6.4-.9c.4-.3 1.4-.9 1.9-1 .5-.1 1.9-.5 2.7-.6.8-.1 3-.7 3.4-.8.5 0 1.6-.4 1.8-.5.3-.1.8-.6.8-.6v8.8s-.5.4-1 .6c-.5.2-2.3.7-2.5.8-.3.1-2.6.9-3.6 1.2-1 .3-2.5.9-2.9 1.1-.4.3-1 1.1-.9 1.5.1.3-.5.7-.5.7l-.7.2s-1.1.4-1.2.5c-.1.1-.5.9-.5.9l-.3.2-.2 1.5-24.4 2.5.1-4.8s.4-.9 1.4-1c1-.1 2.4-.1 2.4-.1s1.3-.5 1.9-1.1c.6-.6.9-2.2.9-2.2s.1-1.8.2-1.9c0-.1-.3-.7-.3-.7l-.3-.5.4-1.5z"/><path fill="#2B2B2B" stroke="#2B2B2B" stroke-width=".17" d="M179.5 93.3s0 .6.4 0c.1-.3.5-.9.5-.9l.5-.4 1.6-.2s.3-.2.5-.3l.6-.2 1.2-.2.4-.3.1-.2V90l-.9.3-1.6.5s-1.4.5-1.6.5c-.2.1-1.5.5-1.5.5v1.5z"/><path fill="#1B1B1C" stroke="#1B1B1C" stroke-width=".17" d="M160.3 102.9s.8-1.3 1.6-1.7c.8-.5 3.5-1.2 3.5-1.2v-.6l-12.9 1.3v.5s2.3.1 2.7.4c.4.3 1.6.9 1.6.9l.3.7 3.2-.3z"/><path fill="#1B1B1C" stroke="#1B1B1C" stroke-width=".339" d="M155 102.2l2.1 1s-.3-.7-.5-.8c-.2-.1-1.3-.8-1.5-.9-.2-.1-.7-.1-.7-.1l.6.8z"/><path fill="#070908" stroke="#222721" stroke-width=".17" d="M157.4 119.9l2.1-.4.8-16.6-3.2.2z"/><path stroke="#222721" stroke-width=".17" d="M156 119.3l1.4.7-.3-16.9-1.9-.8z"/><path fill="#DFBE7E" stroke="#DFBE7E" stroke-width=".17" d="M159.3 120.5l.2-1-2.1.2v1z"/><path fill="#E2B56E" stroke="#DFBE7E" stroke-width=".17" d="M156 119.3l1.4.5v.9l-1.4-.6z"/><path fill="#B9AB84" stroke="#B9AB84" stroke-width=".17" d="M156.7 121.4v1.4c0 .3.9.4 1.2.2.3-.1.2-1.6.2-1.6h-1.4z"/><path fill="#DFBE7E" stroke="#DFBE7E" stroke-width=".17" d="M158.9 120.7s-.2.3-.3.7v1s.1.5-.3.4c-.3-.2-.3-.5-.3-.8v-.6h-1.5v.8s-.4.3-.4 0-.2-.9 0-1.1c.2-.2.4-.8.4-.8s.2.2.7.3c.5 0 .8 0 1.1-.1.4-.1.6.2.6.2z"/><path fill="#020202" stroke="#020202" stroke-width=".17" d="M175.2 94.9l.4 12.3 1.5.3-.1-14.7s-1 .4-1.2.6c-.2.3-.6.4-.6.8v.7z"/><path fill="#1B1B1C" stroke="#1B1B1C" stroke-width=".17" d="M179.5 93.5l-.9 14H177V92.7s.5-.2 1.2-.4c.8-.3 1.2-.4 1.2-.4v1.5"/><path fill="#F9F9FC" d="M173 86l-.1 10s.5-.3.8-.4c.4-.1.4-9.7.4-9.7H173zm4-2.7v9.5s-.3 0-.9.5c-.6.5-.9 1.7-.9 1.7l-.2.2-.5-9.6.5-.1.2-.7s.5-.8.6-.8c0-.1 1.2-.7 1.2-.7zm7.4-1.7l.2 8.7.8-.3.5-.3V81s-.3.1-.7.2c-.3.2-.8.4-.8.4z" opacity=".21"/><path fill="#070908" stroke="#222721" stroke-width=".17" d="M152.9 87.3l1 .1-.1 1.5-.9-.3z"/><path fill="#222721" stroke="#222721" stroke-width=".17" d="M146.6 96.3s0 .1 0 0c0-.2.5-.9 1.4-1.1.8-.2 2.7-.3 3.1-.4.3-.1.6-.1 1.1-.8.5-.8.8-1.2 1-2.1.2-1 .1-1.7.2-1.9 0-.2.1-.5 0-.7-.1-.1-.4-.6-.4-.6l.9.2s.3.3.5.7c.1.4.1 2.1-.1 2.6-.1.5-.4 1.4-.7 1.8-.3.3-1.1.9-1.4 1-.3.1-.7.3-.7.3h-1.6c-.5 0-.9 0-1.1.1-.3.1-.8.5-1 .7l-.2.2h-1z"/><path fill="#1B1B1C" stroke="#1B1B1C" stroke-width=".17" d="M123.9 87.5v4.3l23.6 9.4.1-4.7-1-.2v1.8l-22-8.4-.1-2.2z"/><path fill="#2B2B2B" stroke="#2B2B2B" stroke-width=".17" d="M125.7 89.1s-.4-.2-.6 0c-.2.2-.4.5-.4.5l21.9 8.4v-1l-20.9-7.9z"/><path fill="#222721" stroke="#222721" stroke-width=".17" d="M123.9 87.3l.6.2s.1 0 .9-.2c.9-.2 1.8-.4 2-.4.2 0 .6 0 1-.2s1.1-.6 1.2-.9c.2-.2.6-1.2.6-1.5 0-.3.2-1.8.2-2v-.7l-1.2-.2s.2.5.3.7c.1.2 0 1.8-.3 2.5s-.7 1.2-1.1 1.5c-.4.3-.6.4-1 .4-.4.1-1.5.1-1.9.2-.5.1-.7.1-.9.2l-.4.4z"/><path fill="#E9BF75" stroke="#DFBE7E" stroke-width=".17" d="M135 108.8v.8l.9.5v-.9z"/><path fill="#E2BF85" stroke="#DFBE7E" stroke-width=".17" d="M137.8 109v.9l-1.9.2v-.9z"/><path fill="#2B2B2B" stroke="#2B2B2B" stroke-width=".17" d="M138.3 97.5l-.5 11.5-1.9.2-.2-12.7z"/><path stroke="#222721" stroke-width=".17" d="M134.3 95.9l1.4.6.2 12.7-.9-.5z"/><path fill="#B9AB84" stroke="#B9AB84" stroke-width=".17" d="M136.4 110.7s.4.4 0 .6c-.4.2-.5.5-.7.4-.2 0-.6 0-.7-.1-.1-.1-.3-.9-.3-.9 0-.1.4-.5.4-.5s.6 0 .8.1c.3.2.5.4.5.4z"/><path fill="#DFBE7E" stroke="#DFBE7E" stroke-width=".17" d="M135.5 111l.2-.5s-.1-.6.1-.5c.2.1.9 0 .9 0s.4.2.3.3c-.2.1-.3.3-.3.3l-.7.4s0 .5-.2.5c-.2-.2-.3-.5-.3-.5z"/><path fill="#080C0A" stroke="#080C0A" stroke-width=".17" d="M155 102.3l-4.6 10.7.3.1 4.5-10.4zm-1.7-1.1l-2.9 5.5v-.6l2.4-4.9z"/><path fill="#2B2B2B" stroke="#2B2B2B" stroke-width=".17" d="M150.6 100.9l-.2 12.3-1.2-.3-.1-12z"/><path fill="#070908" stroke="#222721" stroke-width=".17" d="M148.5 101.2l.6-.3.1 11.9-.6-.7z"/><path fill="#2B2B2B" stroke="#2B2B2B" stroke-width=".17" d="M148.1 112.1l-.9.1-.4-11.3.7.3.6-.1v10.8z"/><path fill="#070908" stroke="#222721" stroke-width=".17" d="M146.2 111.8l-.1-11.2.7.3.4 11.3z"/><path fill="#C0C5C0" stroke="#C0C5C0" stroke-width=".17" d="M151 100.9l.1 12.3v.2h.3l-.2-12.6z"/><path fill="#CA4A27" stroke="#CA4A27" stroke-width=".17" d="M148.2 115.6c0-.4-.2-.8-.6-.9-.1.2-.1.3-.1.5.4 0 .6.2.5.5m-2.9-1.7c-.1-.2 0-.4.1-.5.4.1.5.3.4.6-.1 0-.2 0-.3-.1m1.1.6c-.2-.3 0-.5.4-.5.2.3 0 .5-.3.6l-.1-.1"/><path fill="#A4A5A4" stroke="#A4A5A4" stroke-width=".17" d="M145.1 113.9c.8.8-2 .8-2.3.5-.6-.6 1.8-.3 2.3-.3m2.3 1.5c-.2.2-.8.2-1 .5-.2.4.3.7.7.6 1.2-.1 1.2-1.5.2-1.3"/><path fill="#555554" stroke="#555554" stroke-width=".17" d="M125.9 88.5l20.7 7.7v.8l-20.7-7.8z"/><path fill="#F4F7FC" stroke="#F4F7FC" stroke-width=".17" d="M125.9 88.4l20.7 7.8s.4-.7 1.1-.9c.7-.2 2.2-.4 2.6-.4.4 0 1.3-.3 1.3-.3l.6-.8s-.2.1-.5-.2c-.3-.3-1.3-.6-1.5-.7-.2-.1-.7-.4-.7-.4-.7-.2-1.3-.3-2-.5-.1 0-.3-.1-.4-.2-.1 0 0-.1-.1-.2h-.3c-.3-.1-.7-.2-1-.3-.3-.1-.6-.3-1-.4h-.5c-.2-.1-.3-.2-.5-.3-.3-.1-.7-.2-1-.3-.6-.2-1.3-.4-1.9-.6-.4-.2-.9-.2-1.3-.4-.4-.1-.8-.4-1.2-.5-.2-.1-.4 0-.6-.2-.2-.1-.3-.2-.5-.3-1.2-.6-3.2-.3-4.5-.2-1.7.1-3.4.1-5.1.2-.3.1-1.2.3-1.7.1z"/><path fill="#070908" stroke="#222721" stroke-width=".17" d="M130.9 81.9s0 2.4.2 2.8c.2.4 1.1 1.7 1.6 1.9.5.2 2-.1 2.4 0 .4.1 1.2.2 1.1.5-.1.3 0 .9 0 .9l-10.3.3v.8l-.2-.1c-.2-.1-.6 0-.6 0l-.4.5h-.1v-2.2s.6-.1 1.2-.3c.6-.1 1.5-.3 1.8-.3.3 0 1.2-.3 1.3-.4.1-.1.9-.6 1.1-1.1.2-.5.6-2 .5-2.3v-1.3l.4.3z"/><path fill="#272626" stroke="#272626" stroke-width=".17" d="M152.8 88.6s.5.4.5.6c0 .2-.2 2.7-.3 3-.1.3-.8 1.5-.8 1.5l-.1.2-15.9-5.7v-1.1s-2.5-.4-2.8-.4c-.2 0-1.2-.3-1.3-.4-.1-.1-1.1-1.3-1.1-1.6-.1-.3-.2-1.6-.2-1.7v-.9l21 6.6.5.2h.5z"/><path fill="#555554" stroke="#555554" stroke-width=".17" d="M129.3 81.4s0-.4.3-.4c.3.1 22.3 7 22.3 7s.8.3.4.5c-.3.3-21.9-6.8-21.9-6.8v-.2l-1.1-.1z"/><path fill="#353535" stroke="#222721" stroke-width=".17" d="M129.3 80.2h1v.8h-.7l-.3.1z"/><path fill="#3D3D3D" stroke="#3D3D3D" stroke-width=".17" d="M151.9 87.7h1v.9h-.5s0-.4-.1-.4c.1 0-.4-.5-.4-.5z"/><path fill="none" stroke="#F48220" stroke-width=".17" d="M132.4 81l21.2 6.3"/><path fill="#29292B" stroke="#434445" stroke-width=".17" d="M153.3 87.2l-.4.5h-1l.4.3-22.7-7h3z"/><path fill="#222721" stroke="#222721" stroke-width=".17" d="M130.3 80.2l8.8-.5-.8.9-8 .5z"/><path fill="#434445" stroke="#434445" stroke-width=".17" d="M138.3 81.1s13.8 4.4 14.1 4.4c.3 0 .3-.1.5-.4s.4-1.8.4-2.3c0-.5.4-1.2.4-1.7s.3-1.6.6-2c.4-.4.6-.8.6-.8s-.1-.8-.2-1l-.4-.4s-.8.1-1 0c-.2-.1-.9-.2-1.1-.3-.2-.1-2.8-1.6-3.5-1.8-.7-.2-1.6.1-1.8 0-.2-.1-1.1-.3-1.7-.2-.6.1-1.1 0-1.5 0-.4 0-1.1-.3-1.3-.4-.2-.1-.6-.3-.9 0-.2.3-.9.9-.9.9s.1.8 0 1.3-.5 1.6-.8 2.1c-.2.6-.9 1.4-1.1 1.6-.2.2-.4.7-.4.7v.3z"/><path fill="#372B1D" stroke="#372B1D" stroke-width=".17" d="M152.7 85.7s.4 0 .4-.1c.1-.1.4-1.2.5-2.1 0-.8.2-1.8.3-2.1.1-.4.5-1 .4-1.2-.1-.2.2-.7.3-.9.1-.1.3-.5.4-.7.1-.1-.1-.5-.1-.5s-.4.7-.5.9c-.1.1-.5.9-.6 1.2-.1.2-.3 1.4-.3 1.6 0 .1-.3 1.2-.3 1.3 0 .2-.1 1.6-.3 1.8-.1.2-.6.7-.6.7l.4.1z"/><path stroke="#151515" stroke-width=".17" d="M138 81.4s0-.3.3-.2c.3.1 10.9 3.4 10.9 3.4s-1.1 0-1.3-.1c-.2-.2-9.9-3.1-9.9-3.1z"/><path fill="#29292B" stroke="#434445" stroke-width=".17" d="M161.1 85.2l3.8 1.1s-8.7.7-8.9.7c-.2 0-2.8-1.1-2.8-1.1l7.9-.7z"/><path fill="#29292B" stroke="#29292B" stroke-width=".17" d="M164.9 86.2s1.4.1 2 0c.5-.1 2-.2 2-.2s2.8.1 3.1 0c.3-.1.8-.2 1.2-.2.4 0 .7 0 .8-.1.1-.1.3-.9.4-1 .1-.1.4-.8.8-.9.4-.1 2.3-.9 3.2-1.1.8-.2 3.6-.8 3.9-.8.4-.1 1.9-.3 2.1-.5.3-.2 1-.4.8-.6-.2-.2-1-.8-1-.8s-1.4-.3-1.8-.4c-.3-.1-2.6-.7-3.2-.8-.6-.1-4.3-.5-4.5-.5-.2 0-5-.2-5.2-.2h-7l-1.2.2s-1.8.1-1.9.1h-.8s6.8-.6 7.2-.6h4.7c.4 0 2.5.2 3.1.2.6 0 2.2.2 3 .3.8.1 3.1.4 3.2.4.2 0 2.6.6 3 .7.4.1 2.3.8 2.3.8s.6.2.5.4c-.1.1-.7.8-.7.8s-2.7.7-2.8.8c-.2 0-2.4.5-2.6.6-.2 0-1.6.3-1.6.3l-1.2.4-1.3.7-.6.5-.4.8-.7.7h-.7l-2.5.2-2.7.2-3 .4-3.6.2-3.8.2-1.6.1-1.5-.5-1.7-.6s-.4-.2-.2-.2 1-.1 1-.1l2.8 1.2 8.7-.7v-.4z"/><path fill="#E2B56E" stroke="#DFBE7E" stroke-width=".17" d="M175.6 107.2v.7l1.4.4v-.8z"/><path fill="#DFBE7E" stroke="#DFBE7E" stroke-width=".17" d="M177 107.5h1.6v.8H177z"/><path fill="#E2B56E" stroke="#E2B56E" stroke-width=".17" d="M177.8 108.9l.4.6h.4s.2-.6 0-.7c-.2-.2-.8.1-.8.1zm-.8.2s-.3.3 0 .5.9.4.8.3c-.1-.1 0-.2 0-.6 0-.4-.4-.3-.4-.3-.1-.1-.4.1-.4.1z"/><path fill="#E2B56E" stroke="#E2B56E" stroke-width=".17" d="M177.2 108.5l-.2.3.8.2s.3-.2.4-.2c.1 0 0-.4 0-.4h-1v.1zm-.9-.2v.3l.7.1v-.4l-.7-.2z"/><path fill="#B9AB84" stroke="#B9AB84" stroke-width=".17" d="M178 110h.3c.2 0 .2-.5.2-.5l-.5-.2-.1.3.1.4z"/><path fill="#CEA676" d="M154.5 80.3v-.7l.5-.9.2-.4h3.7c.3 0 10.1-.3 10.8-.3.8 0 5 .2 5.7.3.7.1 2.7.3 3.3.4.6.1 2.1.4 2.6.5.5.1 2.7.7 2.7.7l1 .6.1.5-1.2.4h-1.6c-.3 0-2.6-.1-2.6-.1l-1.1-.1-1.7-.6-.9-.2-21.5-.1z"/><path fill="#CEA676" stroke="#CEA676" stroke-width=".17" d="M153.9 81.9l10 .2h4.2c.5 0 3.1-.2 3.5 0 .4.2 1.7 0 1.9.3.2.3 1 .8 1.2.7h1.1l1.2-.1s.9-.5 1.5-.5 1.3-.3 1.3-.3-.2-.6-.3-.7c-.1-.1-.8-.5-.8-.5l-2.4-.8h-22s-.1.5-.2.7c-.1.2-.2 1-.2 1z"/><path fill="#CEA676" d="M174.1 84.6v.3s-2 .1-2.2 0c-.2-.1.5-.3.5-.3h1.7zm-20.3-1.8s.6.3 1.5.4c.9.1 1.8.4 1.8.4l3.3-.1-.3.3-2 .2h-2.8l-.3.3.2.4s-1.1-1.3-1.2-1.4c-.1 0-.2-.3-.2-.3v-.2z"/><path fill="#1B1D13" stroke="#1B1D13" stroke-width=".17" d="M153.1 85.6s.3-.7.3-.8c0-.2.2-1.2.2-1.2s.3-.1.5.1.9.8.9.8.3.2.6.3c.2.1 1.3.5 1.3.5h.8l.2.3-4 .4-.8-.4z"/><path fill="#060606" stroke="#CEA676" stroke-width=".17" d="M183.7 81.3s-1.9-.1-2.1-.1c-.2 0-2.1-.2-2.1-.2l-.3.1-.1.2s-.9.3-.4.5 1.2.6 1.2.6.6-.1 1-.2 1.2-.3 1.6-.3c.5-.1 1.2-.2 1.2-.2v-.4z" opacity=".15"/><path fill="#DFBE7E" stroke="#DFBE7E" stroke-width=".17" d="M160.8 78.3h1.4v.8h-1.4z"/><path fill="#383939" stroke="#323233" stroke-width=".17" d="M150.9 71.9l-2.9 2.5s11.4-3.3 13.8-3.9c2.4-.6 6.6-2.4 7.5-2.7.9-.4 2.2-.8 2.7-1 .5-.1 1.2-1 1.2-1l.3-.1 1.2-.5.9-.6-24.3 6.7-.4.6z"/><path fill="#020202" stroke="#353433" stroke-width=".17" d="M148.8 74.3s.3-.1.8-.2c1-.2 2.6-.6 3.1-.8.7-.4 9.6-3.2 9.6-3.2s7-2.6 7.6-2.6c.6 0 1.9-1 2.6-1 .7.1 1.8-1 1.8-1l1.5-.8.7.6s-15.7 5.9-16.4 6.4c-.7.5-5 1.7-5 1.7l-4.3.9h-2zm2.8-3.1s12.5-3.7 13.3-3.8c.8-.2 5.3-1.2 5.7-1.5.5-.3 2.6-.8 2.6-.9.1-.1 1.2-.5 1.2-.5v-1s.1-1.1.3-.7c.2.4.4 1.1.3 1.3-.1.1.3 0 .6 0 .4 0 .5.2.5.2l-7.7 2.7-16.9 4.8v-.6z" opacity=".43"/><path fill="#020202" stroke="#353433" stroke-width=".17" d="M164.2 63.1c.3 0 .5.2.5.2l4.5 15.5 1.9 7s-.6-.1-.8 0c-.2.1-.8 0-.8 0l-2.2-7.6-3.1-13.5-.4-1.4.4-.2z"/><path fill="#1E1E1D" stroke="#353433" stroke-width=".17" d="M170.5 59.3s3.1 2.3 2.6 2.9c-.5.6 1.5 1.3 1.5 1.3l.5.4v-.8l-4.4-4.7-.1.6m-24.3 15.5l18.5-16.3.5-.7-20.1 17.1h.8z"/><path fill="#FFF" d="M154.5 78.8c-1.5.6-3 1.9-3 3.5 0 .6.7 3.2 1.6 2.8 0-2 1.6-4.2 1.4-6.1-.5.1-.9.4-1.4.5" opacity=".03"/><path fill="#686869" stroke="#686869" stroke-width=".17" d="M154.4 77c.3.2.6 1 .5 1.4-.1.3-.3.5-.5.7-.2.3-.3.7-.4 1-.2.4-.4.9-.5 1.3-.1.4-.1.8-.3 1.2-.1.2-.2.3-.2.5v.5c0 .3-.1.5-.1.8v.8c0 .2-.6.8-.6.3.6 0 .6-.9.6-1.3 0-.5 0-1 .1-1.4.1-.5 0-1 .3-1.4.1-.2.3-.5.3-.7.1-.4.1-.6.4-.9.2-.3.4-.5.5-.9 0-.4-.3-1.8-.1-1.9z"/><path fill="#070908" stroke="#222721" stroke-width=".17" d="M128.4 88.4c-.4.2.8.5 1 .5 0 .2.1.2.2.2s.3.2.4.2c.3.1.6.1.8.2.4 0 .5.1.8.3.3.2.6.1.9.2 0 .2.2.3.4.2.2.3.8.4 1.1.4v.2c.1 0 .3 0 .4-.1-.3.1.6.2.5.1.3.1.2.4.7.3v.1c.1.1.2.1.4 0 0 .3.4.3.7.2l-.1.1c.1.1.4.1.5 0v.1c.2.1.9-.2.7.3.2.1.4 0 .5.1 0 .2.1.3.3.2 0 .3.3.1.5.1.1 0 .2.1.2.1v.1h.2c.2.1.5.1.7.2l.6.3c.1.1.2.2.4.2.3.1.7 0 1 0-.1 0 .2.3.2.3l.3.1c.3.1.6 0 .8 0-.3.3.8.6 1 .7.2.1.4.1.7.2.2.1.2.3.5.1 0 .4.4.2.6.2.2 0 .2.1.3.2.1.1.1.2.2.2.2.1.4-.1.6-.2.4-.1.9-.3 1.3-.3.7-.1 1.3-.1 2-.2.3 0 .6-.1.9-.2.4-.3.3-.2-.1-.4-.3-.1-.6-.3-.9-.5-.3-.2-.6-.1-.9-.2.2-.3-.4-.2-.5-.2v-.1c-.2-.1-.4 0-.6-.1-.1 0-.4-.2-.6-.3-.1 0-.1-.2-.2-.2h-.3c-.2-.1-.4-.2-.6-.1 0-.2-.6-.3-.8-.4h-.2c-.1 0 0-.2-.1-.2-.3-.1-.7-.2-1.1-.3-.2-.1-.4-.4-.7-.3v-.2c-.4 0-.7-.1-1.1-.2-.4-.2-.7-.2-1.1-.4-.4-.2-.7-.2-1.1-.3-.3-.1-.5-.3-.8-.3-.3-.1-.5-.1-.8-.2-.1 0-.1-.1-.2-.2h-.3c-.1-.4-.5-.2-.8-.3-.3-.1-.4-.3-.8-.3v-.2c-.2.1-.3.1-.3-.1-.4.1-.7-.2-1-.3-.4-.1-.6 0-1 0h-3c-1.1 0-2.2-.2-3.3.1-.1.3-.1.3 0 .3"/><path fill="#FFF" stroke="#FFF" stroke-width=".17" d="M142.7 114c.2.5.9.3 1.3.3-.1.5-1.3.4-1.3-.2m3.6 2.1c.3.2.7.2 1.1.1-.2.5-.8.3-1.2 0" opacity=".44"/><path fill="#A4A5A4" stroke="#A4A5A4" stroke-width=".17" d="M146.1 114.7c-.6.2-1.8-.2-1.8.9.7.5 2.7-.5 2-.9"/><path fill="#FFF" stroke="#FFF" stroke-width=".17" d="M144.5 115.2c.2.2.5.2.9.2.2.7-1.2.4-1-.2" opacity=".44"/><path fill="#070908" stroke="#222721" stroke-width=".17" d="M133.1 81l5.5-.6 14.9 5.2-.9.4 3.8 1.1-2.5.2z"/><path fill="#FFFBF7" d="M154.4 87s-.1-.2-.4-.2c-.3 0-19.6-5.9-19.6-5.9s-.2 0-.3.1l-.1.1 19.4 6.1s.7.2.9 0l.1-.2zm-18.2-5.6S152 86 152.3 86c.3 0 1-.1 1-.1s-16.1-4.4-16.2-4.4c-.1-.1-1-.1-1-.1z" opacity=".06"/><path fill="#070908" stroke="#222721" stroke-width=".17" d="M153.6 87.3s.4.1.6-.1c.2-.2.2-.4.2-.4l1.1.5-1.8.1v-.1z"/><path fill="#E2B56E" stroke="#DFBE7E" stroke-width=".17" d="M156.6 120.4c.1 0 .2 0 .1.1s-.1.2-.2.3c.5 0 .9-.2 1.4-.2.3 0 1.3.4 1.1-.3-.4.1-.8.1-1.2 0-.5 0-.8.1-1.2.2"/><path d="M156.6 120.4c.1 0 .2 0 .1.1s-.1.2-.2.3c.5 0 .9-.2 1.4-.2.3 0 1.3.4 1.1-.3-.4.1-.8.1-1.2 0-.5 0-.8.1-1.2.2" opacity=".1"/><path fill="#060606" d="M182.7 81.7s-2.5-.3-2.9-.4c-.4-.1-1.7-.1-1.8-.3-.1-.2-1.9-.9-1.9-.9s-20 .2-20.2.2c-.2 0-1.7.1-1.7.1s-.5 0-.2-.4c.3-.3 1.1-2.1 1.1-2.1s2.4.6 3.1.4c.7-.1 2.5-.2 2.5-.2s3.4-.1 3.9-.2c.5 0 5.8-.1 7.2 0 1.4.1 5 .3 6.1.5 1.1.1 3.4.5 4.3.8.9.2 2.7.5 3 1 .2.4.9.6 0 .9-.9.2-1.5.7-1.9.6-.4-.1-.6 0-.6 0z" opacity=".25"/><path fill="#FFF" stroke="#FFF" stroke-width=".17" d="M164.5 63.6l5.5 22.2.7-.3z" opacity=".47"/><path fill="#070708" stroke="#1B1B1C" stroke-width=".17" d="M153.9 83.6s.4.9 1.2 1.2c.7.3 1.1.1 2 .5.9.3 2.9-.3 4 0 1 .3 3.1 1 3.7 1.2.7.2.8.1-.2.3-1 .2-8.2.6-8.2.6l-3.2-1.1s0-.4.2-.7c.2-.3.5-.8.5-1.1v-.8"/><path fill="#F9F9FC" d="M154.3 76.9s-.8-.4-2.7.8c-2 1.2-2 2-2.3 2.8-.3.8-.6 1.9-.6 2.5 0 .7.6.9 1.2 1.3s2.9.7 2.9.7.2-1.4.2-2c0-.7 1.2-3.1 1.4-3.6.1-.4-.1-2.5-.1-2.5z" opacity=".06"/><path fill="#F9F9FC" d="M149.1 84.1c-1.2 1.6.1 3.3.2 4.9 0 1.8-1.9 3.6-3.3 4.8-.6.6-2.1 1-2.5 1.8-.3.6-.1 2 0 2.6.3 2.3 2 2.5 4.1 2 0-1.2-.5-2.5-.5-3.7 4.3-.2 7.4-2.1 7.1-6.3-.2-2.2-.5-2.7 2.3-2.6 1.9.1 3.6.3 5.5.1-.2-1-2.8-.3-3.9-.5-.9-.1-1.4-.3-2.3-.2-.8.1-1.4.5-2.2.3-.1-1.9-1.1-3.1-.2-5 .8-1.8 2.6-3.6.8-5.4-1.7-1.7-4 .8-5 2.2-1.2 1.8-1 3.7.1 5.5" opacity=".06"/><path fill="#F9F9FC" d="M155.8 118.8l1.3.7-.3-16.9-1.8-.8z" opacity=".31"/><path fill="#F9F9FC" d="M154 87.9c-.2.1-.3.1-.5 0 0-.7.5-.6 1-.4-.1.4 0 1.1-.3 1.4-.2 0-.8-.2-.9-.4.1 0 .5-.1.6-.2.2-.2 0-.5-.3-.4m0 2.3l.9.3c.1.4-.1.8-.2 1.2-.1.4-.1 1-.4 1.3-.3 0-.6-.1-.9-.2 0-.4.4-.9.5-1.3.1-.4-.1-.9 0-1.3.2 0 .4.1.6.2m-3.7 4.5c.3.1.4.4.7.6-.4.1-.9 0-1.3 0-.5 0-.9.1-1.4.2.1 0 .2-.2.2-.3-.2 0-.3-.1-.4-.3.7 0 1.4-.2 2.2-.2m-3.5 1c.2 0 .7.4.8.5-.2.1-.8-.3-.9-.4.1-.1.2-.1.3-.1" opacity=".06"/><path fill="#F9F9FC" d="M153.1 92.6c.2.2.5.1.7.3.2.2 0 .3 0 .6-.3 0-.5-.3-.7-.3 0-.1.1-.2.2-.3" opacity=".23"/><path fill="#F9F9FC" d="M146.6 96.7l1 .5-.1 3.7-1.1-.3z" opacity=".06"/><path fill="#F9F9FC" d="M146.3 99.4c-3.8-.5-6.6-2.7-10.1-4 2.5-.8 3.5 1.1 5.5 1.9 1.5.7 6.1.1 5.1 2.5" opacity=".06"/><path fill="#F9F9FC" d="M138.3 95.6c.1-.2 1.3.6 1.9.9.6.3 1.1.5 1.9.8.5.2 2.3.8 4.1 1.5-1.2-.4-3-.9-3.8-1.2-1.8-.7-2.7-1.1-4-2" opacity=".32"/><path fill="#F9F9FC" d="M172.1 86.3l-.1 10.1s.5-.3.8-.4c.4-.1.4-9.7.4-9.7h-1.1zm4.5-2.7l-.1 10.1s.5-.3.8-.4c.4-.1.4-9.7.4-9.7h-1.1zm8.8-2.6l-.1 10s.1-.1.5-.3c.4-.1.3-10.1.3-10.1l-.7.4z" opacity=".34"/><path fill="#2B2B2B" stroke="#2B2B2B" stroke-width=".17" d="M172.2 97.3l-.2 1.5-24.1 2.5-.2-1.6z"/><path fill="#C5BBFC" d="M76.4 61.6c-.1-.6-1.2-.8-1.7-.9-.8-.1-1.5.3-2.2.6-2 .9-2.6 2.4-1.1 3.6.4.3 1.4.7 2 .6l2.1-.6c.4-.2.7-.3 1-.6.2-.3.2-.6.3-1 .1-.5.1-1.4-.4-1.7"/><linearGradient id="c" x1="71.97" x2="76.251" y1="61.034" y2="61.034" gradientUnits="userSpaceOnUse"><stop offset="0" stop-color="#fff2cb"/><stop offset=".436" stop-color="#ffebbd"/><stop offset="1" stop-color="#ffdea5"/></linearGradient><path fill="url(#c)" stroke="#F2B84E" stroke-width=".25" d="M72 63c.6-.9.3-2.1.7-3.1.3-.9.3-.5 1.2-.6.6-.1 1.4-.8 2-1 .4.4.1 2 .1 2.5 0 .6.4 1.5.3 2-.3 1.1-3.7 1.1-4 0"/><linearGradient id="d" x1="-671.718" x2="-666.145" y1="-372.443" y2="-372.443" gradientTransform="matrix(.569 .52 -.7034 .77 196.726 680.694)" gradientUnits="userSpaceOnUse"><stop offset="0" stop-color="#ef5123"/><stop offset=".713" stop-color="#45180a"/><stop offset="1"/></linearGradient><path fill="url(#d)" stroke="#624018" stroke-width=".25" d="M79.7 47.4c-.7.7-2.1.7-3 0-.9-.8-1.1-2-.3-2.7.7-.7 2.1-.7 3 0 .9.8 1.1 2 .3 2.7z"/><linearGradient id="e" x1="64.716" x2="78.08" y1="53.403" y2="53.403" gradientUnits="userSpaceOnUse"><stop offset="0" stop-color="#fff2cb"/><stop offset=".436" stop-color="#ffebbd"/><stop offset="1" stop-color="#ffdea5"/></linearGradient><path fill="url(#e)" stroke="#F2B84E" stroke-width=".25" d="M65.3 49.7c1.2 2.7-1.7 6.2-.1 8.9 1.8 3 9 2.8 11 .1 1-1.3 2.2-2.6 1.8-4.1-.4-1.3.4-4.6-.4-5.8-1-1.3-3.1-2.7-5.3-2.6-2 0-6.5 2.2-6.5 3.7"/><linearGradient id="f" x1="-2685.327" x2="-2684.067" y1="95.247" y2="100.209" gradientTransform="matrix(-.6618 .0304 .0266 .9994 -1705.386 40.852)" gradientUnits="userSpaceOnUse"><stop offset="0" stop-color="#ec0d74"/><stop offset="1" stop-color="#fff5cb"/></linearGradient><path fill="url(#f)" d="M76.6 56.8c0 1.3-1.1 2.5-2.6 2.6-1.5.1-2.7-1-2.7-2.3 0-1.3 1.1-2.5 2.6-2.6 1.4-.1 2.6.9 2.7 2.3z" opacity=".06"/><path fill="#010103" d="M67 52.5c0 .3.1.6.4.6.2 0 .5-.2.5-.5s-.1-.6-.4-.6c-.3 0-.5.2-.5.5zm4 .2c0 .3.1.6.4.6.2 0 .5-.2.5-.5s-.1-.6-.4-.6c-.2 0-.4.2-.5.5z"/><linearGradient id="g" x1="222.288" x2="224.457" y1="301.641" y2="302.023" gradientTransform="rotate(-12.285 -993.133 909.947)" gradientUnits="userSpaceOnUse"><stop offset="0" stop-color="#ec0d74"/><stop offset="1" stop-color="#fff5cb"/></linearGradient><path fill="url(#g)" d="M65.9 55.3c-.2-.1-.5-.1-.7-.1-.2 1.4-.3 2.7.6 3.8.6-.1 1.2-.5 1.4-1.2.3-1-.3-2.1-1.3-2.5z" opacity=".06"/><path fill="none" stroke="#E5A43C" stroke-width=".5" d="M69.9 55.4s-.3-.9-1.1-.7c-.8.1-.9.6-.9.6"/><path fill="#DD7E94" stroke="#DD7E94" stroke-width=".25" d="M68.6 58.4c0 .2.2.3.3.3.2 0 .3-.2.3-.3 0-.2-.2-.3-.3-.3-.1 0-.3.1-.3.3z"/><linearGradient id="h" x1="65.317" x2="79.684" y1="49.625" y2="49.625" gradientUnits="userSpaceOnUse"><stop offset="0" stop-color="#ef5123"/><stop offset=".713" stop-color="#45180a"/><stop offset="1"/></linearGradient><path fill="url(#h)" stroke="#624018" stroke-width=".25" d="M65.3 49.7c1.8-.5 3-2.7 4.7-1.5 1.5.9 1.6 2.9 3.4 3.8.8.4 1.9.2 2.5.6.7.4 1.1 1.2 1.7 1.6 4.6-3.1.5-7.4-2.1-8.6-3.5-1.6-7.9.7-10.2 3.7"/><linearGradient id="i" x1="77.489" x2="78.218" y1="51.411" y2="51.411" gradientUnits="userSpaceOnUse"><stop offset="0" stop-color="#f9f29d"/><stop offset=".189" stop-color="#fbe876"/><stop offset=".452" stop-color="#fcdb47"/><stop offset=".685" stop-color="#fed224"/><stop offset=".875" stop-color="#ffcc0f"/><stop offset="1" stop-color="#ffca07"/></linearGradient><ellipse cx="77.9" cy="51.4" fill="url(#i)" rx=".4" ry=".3"/><linearGradient id="j" x1="77.86" x2="78.587" y1="50.813" y2="50.813" gradientUnits="userSpaceOnUse"><stop offset="0" stop-color="#f9f29d"/><stop offset=".189" stop-color="#fbe876"/><stop offset=".452" stop-color="#fcdb47"/><stop offset=".685" stop-color="#fed224"/><stop offset=".875" stop-color="#ffcc0f"/><stop offset="1" stop-color="#ffca07"/></linearGradient><path fill="url(#j)" d="M78.6 50.8c0 .2-.2.3-.4.3s-.4-.2-.4-.3c0-.2.2-.3.4-.3s.4.1.4.3z"/><linearGradient id="k" x1="77.184" x2="77.913" y1="50.544" y2="50.544" gradientUnits="userSpaceOnUse"><stop offset="0" stop-color="#f9f29d"/><stop offset=".189" stop-color="#fbe876"/><stop offset=".452" stop-color="#fcdb47"/><stop offset=".685" stop-color="#fed224"/><stop offset=".875" stop-color="#ffcc0f"/><stop offset="1" stop-color="#ffca07"/></linearGradient><ellipse cx="77.5" cy="50.5" fill="url(#k)" rx=".4" ry=".3"/><linearGradient id="l" x1="76.848" x2="77.577" y1="51.151" y2="51.151" gradientUnits="userSpaceOnUse"><stop offset="0" stop-color="#f9f29d"/><stop offset=".189" stop-color="#fbe876"/><stop offset=".452" stop-color="#fcdb47"/><stop offset=".685" stop-color="#fed224"/><stop offset=".875" stop-color="#ffcc0f"/><stop offset="1" stop-color="#ffca07"/></linearGradient><ellipse cx="77.2" cy="51.2" fill="url(#l)" rx=".4" ry=".3"/><linearGradient id="m" x1="76.621" x2="77.349" y1="49.907" y2="49.907" gradientUnits="userSpaceOnUse"><stop offset="0" stop-color="#f9f29d"/><stop offset=".189" stop-color="#fbe876"/><stop offset=".452" stop-color="#fcdb47"/><stop offset=".685" stop-color="#fed224"/><stop offset=".875" stop-color="#ffcc0f"/><stop offset="1" stop-color="#ffca07"/></linearGradient><ellipse cx="77" cy="49.9" fill="url(#m)" rx=".4" ry=".3"/><linearGradient id="n" x1="76.99" x2="77.718" y1="49.31" y2="49.31" gradientUnits="userSpaceOnUse"><stop offset="0" stop-color="#f9f29d"/><stop offset=".189" stop-color="#fbe876"/><stop offset=".452" stop-color="#fcdb47"/><stop offset=".685" stop-color="#fed224"/><stop offset=".875" stop-color="#ffcc0f"/><stop offset="1" stop-color="#ffca07"/></linearGradient><ellipse cx="77.4" cy="49.3" fill="url(#n)" rx=".4" ry=".3"/><linearGradient id="o" x1="76.314" x2="77.043" y1="49.041" y2="49.041" gradientUnits="userSpaceOnUse"><stop offset="0" stop-color="#f9f29d"/><stop offset=".189" stop-color="#fbe876"/><stop offset=".452" stop-color="#fcdb47"/><stop offset=".685" stop-color="#fed224"/><stop offset=".875" stop-color="#ffcc0f"/><stop offset="1" stop-color="#ffca07"/></linearGradient><ellipse cx="76.7" cy="49" fill="url(#o)" rx=".4" ry=".3"/><linearGradient id="p" x1="75.979" x2="76.707" y1="49.649" y2="49.649" gradientUnits="userSpaceOnUse"><stop offset="0" stop-color="#f9f29d"/><stop offset=".189" stop-color="#fbe876"/><stop offset=".452" stop-color="#fcdb47"/><stop offset=".685" stop-color="#fed224"/><stop offset=".875" stop-color="#ffcc0f"/><stop offset="1" stop-color="#ffca07"/></linearGradient><ellipse cx="76.3" cy="49.6" fill="url(#p)" rx=".4" ry=".3"/><linearGradient id="q" x1="76.372" x2="79.329" y1="54.226" y2="54.226" gradientUnits="userSpaceOnUse"><stop offset="0" stop-color="#ef5123"/><stop offset=".713" stop-color="#45180a"/><stop offset="1"/></linearGradient><path fill="url(#q)" stroke="#624018" stroke-width=".25" d="M76.6 53.3c.2.2.4.5.5.8v-.5c-.3.8-.6 1.5-.6 2.4 1.3-.6 1.3-2.5 3-3.4"/><linearGradient id="r" x1="77.639" x2="79.139" y1="53.915" y2="53.915" gradientUnits="userSpaceOnUse"><stop offset="0" stop-color="#fff2cb"/><stop offset=".436" stop-color="#ffebbd"/><stop offset="1" stop-color="#ffdea5"/></linearGradient><path fill="url(#r)" stroke="#F2B84E" stroke-width=".25" d="M77.6 53.5c.3-.6.6-1 1.4-.8.3 1 0 1.9-1 2.5"/><linearGradient id="s" x1="75.4" x2="76.128" y1="48.409" y2="48.409" gradientUnits="userSpaceOnUse"><stop offset="0" stop-color="#f9f29d"/><stop offset=".189" stop-color="#fbe876"/><stop offset=".452" stop-color="#fcdb47"/><stop offset=".685" stop-color="#fed224"/><stop offset=".875" stop-color="#ffcc0f"/><stop offset="1" stop-color="#ffca07"/></linearGradient><path fill="url(#s)" d="M76.1 48.4c0 .2-.2.3-.4.3s-.4-.2-.4-.3c0-.2.2-.3.4-.3.3 0 .4.1.4.3z"/><linearGradient id="t" x1="75.77" x2="76.497" y1="47.811" y2="47.811" gradientUnits="userSpaceOnUse"><stop offset="0" stop-color="#f9f29d"/><stop offset=".189" stop-color="#fbe876"/><stop offset=".452" stop-color="#fcdb47"/><stop offset=".685" stop-color="#fed224"/><stop offset=".875" stop-color="#ffcc0f"/><stop offset="1" stop-color="#ffca07"/></linearGradient><ellipse cx="76.1" cy="47.8" fill="url(#t)" rx=".4" ry=".3"/><linearGradient id="u" x1="75.095" x2="75.823" y1="47.542" y2="47.542" gradientUnits="userSpaceOnUse"><stop offset="0" stop-color="#f9f29d"/><stop offset=".189" stop-color="#fbe876"/><stop offset=".452" stop-color="#fcdb47"/><stop offset=".685" stop-color="#fed224"/><stop offset=".875" stop-color="#ffcc0f"/><stop offset="1" stop-color="#ffca07"/></linearGradient><ellipse cx="75.5" cy="47.5" fill="url(#u)" rx=".4" ry=".3"/><linearGradient id="v" x1="74.759" x2="75.487" y1="48.15" y2="48.15" gradientUnits="userSpaceOnUse"><stop offset="0" stop-color="#f9f29d"/><stop offset=".189" stop-color="#fbe876"/><stop offset=".452" stop-color="#fcdb47"/><stop offset=".685" stop-color="#fed224"/><stop offset=".875" stop-color="#ffcc0f"/><stop offset="1" stop-color="#ffca07"/></linearGradient><ellipse cx="75.1" cy="48.2" fill="url(#v)" rx=".4" ry=".3"/><linearGradient id="w" x1="73.322" x2="74.051" y1="46.502" y2="46.502" gradientUnits="userSpaceOnUse"><stop offset="0" stop-color="#f9f29d"/><stop offset=".189" stop-color="#fbe876"/><stop offset=".452" stop-color="#fcdb47"/><stop offset=".685" stop-color="#fed224"/><stop offset=".875" stop-color="#ffcc0f"/><stop offset="1" stop-color="#ffca07"/></linearGradient><path fill="url(#w)" d="M74.1 46.5c0 .2-.2.3-.4.3s-.4-.2-.4-.3c0-.2.2-.3.4-.3s.4.1.4.3z"/><linearGradient id="x" x1="73.692" x2="74.419" y1="45.904" y2="45.904" gradientUnits="userSpaceOnUse"><stop offset="0" stop-color="#f9f29d"/><stop offset=".189" stop-color="#fbe876"/><stop offset=".452" stop-color="#fcdb47"/><stop offset=".685" stop-color="#fed224"/><stop offset=".875" stop-color="#ffcc0f"/><stop offset="1" stop-color="#ffca07"/></linearGradient><ellipse cx="74.1" cy="45.9" fill="url(#x)" rx=".4" ry=".3"/><linearGradient id="y" x1="73.016" x2="73.745" y1="45.635" y2="45.635" gradientUnits="userSpaceOnUse"><stop offset="0" stop-color="#f9f29d"/><stop offset=".189" stop-color="#fbe876"/><stop offset=".452" stop-color="#fcdb47"/><stop offset=".685" stop-color="#fed224"/><stop offset=".875" stop-color="#ffcc0f"/><stop offset="1" stop-color="#ffca07"/></linearGradient><ellipse cx="73.4" cy="45.6" fill="url(#y)" rx=".4" ry=".3"/><linearGradient id="z" x1="72.68" x2="73.409" y1="46.243" y2="46.243" gradientUnits="userSpaceOnUse"><stop offset="0" stop-color="#f9f29d"/><stop offset=".189" stop-color="#fbe876"/><stop offset=".452" stop-color="#fcdb47"/><stop offset=".685" stop-color="#fed224"/><stop offset=".875" stop-color="#ffcc0f"/><stop offset="1" stop-color="#ffca07"/></linearGradient><ellipse cx="73" cy="46.2" fill="url(#z)" rx=".4" ry=".3"/><linearGradient id="A" x1="70.126" x2="70.855" y1="46.338" y2="46.338" gradientUnits="userSpaceOnUse"><stop offset="0" stop-color="#f9f29d"/><stop offset=".189" stop-color="#fbe876"/><stop offset=".452" stop-color="#fcdb47"/><stop offset=".685" stop-color="#fed224"/><stop offset=".875" stop-color="#ffcc0f"/><stop offset="1" stop-color="#ffca07"/></linearGradient><ellipse cx="70.5" cy="46.3" fill="url(#A)" rx=".4" ry=".3"/><linearGradient id="B" x1="70.498" x2="71.224" y1="45.74" y2="45.74" gradientUnits="userSpaceOnUse"><stop offset="0" stop-color="#f9f29d"/><stop offset=".189" stop-color="#fbe876"/><stop offset=".452" stop-color="#fcdb47"/><stop offset=".685" stop-color="#fed224"/><stop offset=".875" stop-color="#ffcc0f"/><stop offset="1" stop-color="#ffca07"/></linearGradient><ellipse cx="70.9" cy="45.7" fill="url(#B)" rx=".4" ry=".3"/><linearGradient id="C" x1="69.821" x2="70.549" y1="45.47" y2="45.47" gradientUnits="userSpaceOnUse"><stop offset="0" stop-color="#f9f29d"/><stop offset=".189" stop-color="#fbe876"/><stop offset=".452" stop-color="#fcdb47"/><stop offset=".685" stop-color="#fed224"/><stop offset=".875" stop-color="#ffcc0f"/><stop offset="1" stop-color="#ffca07"/></linearGradient><ellipse cx="70.2" cy="45.5" fill="url(#C)" rx=".4" ry=".3"/><linearGradient id="D" x1="69.486" x2="70.214" y1="46.078" y2="46.078" gradientUnits="userSpaceOnUse"><stop offset="0" stop-color="#f9f29d"/><stop offset=".189" stop-color="#fbe876"/><stop offset=".452" stop-color="#fcdb47"/><stop offset=".685" stop-color="#fed224"/><stop offset=".875" stop-color="#ffcc0f"/><stop offset="1" stop-color="#ffca07"/></linearGradient><ellipse cx="69.9" cy="46.1" fill="url(#D)" rx=".4" ry=".3"/><linearGradient id="E" x1="77.276" x2="79.33" y1="55.329" y2="55.329" gradientUnits="userSpaceOnUse"><stop offset="0" stop-color="#ef5123"/><stop offset=".713" stop-color="#45180a"/><stop offset="1"/></linearGradient><path fill="url(#E)" stroke="#624018" stroke-width=".25" d="M79.3 53.9c0 1.5-1.6 2.3-2 3.7-.2-1.8 2.2-2.4 1.8-4.4"/><linearGradient id="F" x1="73.491" x2="81.68" y1="101.159" y2="101.159" gradientUnits="userSpaceOnUse"><stop offset="0" stop-color="#fff2ca"/><stop offset=".436" stop-color="#ffeabc"/><stop offset="1" stop-color="#ffdda4"/></linearGradient><path fill="url(#F)" stroke="#F1B74F" stroke-width=".25" d="M80.4 82.2c-.3-.2-.3-.3 0-.3 2.5.8.7 6.7.4 8.4-.5 2.9-1.3 5.8-1.7 8.8-.7 5.8-2 11.6-2.5 17.5-.1 1 .2 3.4-1.1 3.8-2.1.6-2-2.3-2-3.3.1-3.1 1.3-5.8 1.7-8.8.3-3 .2-5.7 0-8.7-.2-3 .7-5.8 1-8.7.2-1.7 0-2.7 1.1-4.2 1.1-1.4 1.8-3 2.9-4.3"/><path fill="#C5BBFC" d="M74.7 111.4c-.2 1.1-.1 2.3-.2 3.4 0 .8-.4 2.9.4 3.4 1.2.7 1.4-2.1 1.4-2.8.1-1.2.2-2.5.7-3.7.3 1.6-.2 2.9-.5 4.5-.2 1.2.6 4.2-1.8 4.2-2.7 0-1.3-7.6-.2-8.9"/><linearGradient id="G" x1="70.273" x2="78.694" y1="102.756" y2="102.756" gradientUnits="userSpaceOnUse"><stop offset="0" stop-color="#fff2ca"/><stop offset=".436" stop-color="#ffeabc"/><stop offset="1" stop-color="#ffdda4"/></linearGradient><path fill="url(#G)" stroke="#F1B74F" stroke-width=".25" d="M78 117.1c-.3 1.5.6 3.5.1 4.9-.8 2.7-2.6.4-3.1-1.1-.5-1.6-.3-3.3-.3-4.9-.2-3.2-.5-6.3-1.5-9.5-.9-3-.9-3-.8-4.9.1-1.8-1.3-8.2-1.8-10-.2-.9-.3-4.9-.4-6-.1-2.3.2-5 2.5-1.9 1.4 1.9 3.7 3.9 3.6 6.2-.1 3.7-.8 6.7-.4 11.5.2 2 .9 3.9.8 5.9 0 1.4-.2 3.7.9 4.9.7.8.6.1.9 1.4.4.9-.4 2.6-.5 3.5z"/><path fill="#C5BBFC" d="M77.5 111.7c.8.8 1.4 1.4 1.3 2.6-.1.9-.3 1.8-.5 2.7-.2 1-.4 1.8-.1 2.8.2 1 .4 1.8-.1 2.8-.2.4-.4.9-1 .8-.4-.1-1.3-1-1.5-1.3-.5-.7-.8-2-.8-2.8-.1-.9-.1-1.8-.1-2.7 0-.9 0-1.8.1-2.7.4 1.3.8 2.7.9 4.1 0 .5 0 1.7.4 2 .9.9 1-.8 1-1.3 0-1.4 0-2.8-.1-4.1-.1-.7-.3-1.4-.4-2 0-.4-.1-.8.3-1.1 0-.3.6-.2.6.2M71.7 62c.5.1 0 .7.5 1 .7.4 2.6.5 3.3.2.6-.2.8-.5.9-1 0-.4-.4-1.2-.2-1.5.2-.5 1.2-.5 1.7-.4.8 0 1 .2 1.6.8 1 1 1.7 1.4 1 2.8-.2.5-.5.8-.6 1.3-.1.5.1 1 .1 1.5.2 1.9-.3 3.8-.4 5.7-.1 1.5.2 3.3.4 4.8-1.1 0-2-.1-3.1 0l-3.3.6c-1.2.2-2.4.4-2.4-1 0-1 .2-2.1 0-3.1-.4-2-1-3.9-1.6-5.9-.1-.4 0-.9-.1-1.3-.2-.6-.7-.9-.7-1.5 0-.3.2-.5.2-.8 0-.2-.3-.6-.3-.8 0-.4 2.5-1.5 3-1.4z"/><linearGradient id="H" x1="8.994" x2="24.363" y1="275.254" y2="275.254" gradientTransform="rotate(-4.21 -2989.686 -776.016)" gradientUnits="userSpaceOnUse"><stop offset="0" stop-color="#fff2ca"/><stop offset=".436" stop-color="#ffeabc"/><stop offset="1" stop-color="#ffdda4"/></linearGradient><path fill="url(#H)" stroke="#F1B74F" stroke-width=".25" d="M78.8 60.6s3.4-3.6 4.1-4.5c.8-1 3.2-4.3 3.6-4.9.4-.6 1.4-2.5 1.9-3.2.5-.7 1-1.2 1.2-1.6 0 0-.4-2.5-.2-3 .1-.5 1.2-2.2 1.8-2.6.6-.4.9-.3.9-.1 0 .2-.5.6-.6 1-.1.4 0 1.6 0 1.6l.5.2.6-.7s.1-.4.2 0-.5 1.2-.7 1.5c-.1.3-1.2 2-1.4 2.3-.2.3-1.3 3.4-1.5 3.7-.2.4-2.9 5.1-3.4 5.7-.4.7-2 3.2-2.3 3.6-.3.4-1.8 2.3-1.9 2.5-.1.1-1.1.3-1.1.3"/><path fill="#C5BBFC" d="M78.1 60.5c-.1-.6.6-.8.6-.2.4-.1.7.1.5.5.5.3.8-.1.8.6.3 0 .6-.1.9 0 0 .3-.2.5-.2.7.4 0 .8-.1 1.1.1-.1.5-.6.7-.7 1.2-.3.1-.6-.1-.6-.4"/><linearGradient id="I" x1="142.406" x2="159.348" y1="-433.852" y2="-433.852" gradientTransform="rotate(8.996 -3052.947 -755.63)" gradientUnits="userSpaceOnUse"><stop offset="0" stop-color="#fff2ca"/><stop offset=".436" stop-color="#ffeabc"/><stop offset="1" stop-color="#ffdda4"/></linearGradient><path fill="url(#I)" stroke="#F1B74F" stroke-width=".25" d="M69.2 63.3s-6.7-1.5-8.1-2c-1.4-.5-4.3-.8-4.6-.7-.3.1-1.4-.2-1.7-.2-.3-.1-.5 0-.6.1-.1.1-.3.3-.1.4.2.1-.1.3-.2.4-.1.1-1.4.3-.9.6.4.3 2.4.4 3.5.5 1.1.1 4.9 1.2 6.2 1.8 1.3.6 3.7 1.4 4.6 2 1 .6 1.8 1.1 1.8 1.1"/><path fill="#C5BBFC" d="M69.4 63.2c-.5-.2-.9-.4-1.4-.3.4.5.7 1.1-.1 1.5.1.1.4.3.5.4-.4.2-.2.5-.4.7.2.1.4.1.6.2-.1.1-.2.4-.4.5 0 .2.2.3.3.3-.2.2-.3.5-.4.6.2.1 1.6.3 1.8.2m-9.7 19.6c.3-.6 1.7-1 1.3-1.8-.1-.3-.9-.5-1.2-.8-.2-.3-.5-.8-.3-1.2.2-.4.7-.7 1.1-1 .4-.3.7-.7 1.1-1 .8-.7 1.5-1.3 2.3-2 1.3-1.1 2.9-2.5 4.8-2.5 1.1 0 1.6.6 2.5.7.8.1 1.7 0 2.5-.2 1.4-.4 3.3-.5 4.8-.4 1.8.1 3.2.9 5.1.5 1.1-.2 1.4-.2 2.4.4 1 .6 1.7.9 2.5 1.8.7.8 1.4 1.4 1.9 2.4.5.9.9 1.9 1.6 2.7.7.8 1.3 1.4 1.6 2.4-.6.1-1.2 0-1.8.3-.7.3-1.1.7-1.9.9-1.3.3-2.5.7-3.8.9-.7.1-1.3.3-1.8-.1-.2-.2-.2-.5-.5-.8-.3-.2-.7-.2-1.1-.2-.7.1-1.3.6-2 .8-.6.2-1.3.4-1.9.4-1.5.2-2.4 0-3.8-.4-.8-.2-1.2-.2-1.9.2l-.8.4h-.4c-.2.2-.1.5-.3.6-.9.8-2.4-.1-3.7 0-.6 0-1.3.2-1.9.1-.8-.1-1.3-.6-2-.7-.4-.1-.7 0-1.1-.2-.4-.1-.7-.9-1-1.2-.4-.4-1.5-1-1.3-1.5-.5.1-.9.3-1 .5"/><path fill="#A59DED" d="M64.7 85.5c-.5-.5-1.8-.4-2.5-1-.2-.2-2.4-2.6-2.3-1.5 0 .2.7.6.9.7.5.3.8.7 1.2 1.1.8.7 1.8 1 2.7.7m8.8-7c-.6 1.7-.4 3.3-.3 5.1.1 1.2.4 4.5-.8 5.2-.4-.4.3-1.8.4-2.4.1-.8 0-1.6 0-2.4 0-1.6-.1-3.6.6-5.1m-6.9 7.8c0-.6.5-1.6.8-2.2.3-.7.6-1.5 1-2.2-.5.6-.8 1.6-1.1 2.4-.3.8-.1 1.7-.5 2.4m14.1-1.6c-.4-.3-.3-2.5-.3-3.1-.1-1.3-.1-2.2-.7-3.4 1.1 1 1.5 2.9 1.4 4.4 0-1-.3-2.2-.8-3.1-.1 1.8.8 4 .3 5.8m2.1-6c.3-.7.1-1.7.1-2.5 0 .6-.2 2.4.5 2.7-.2-.1-.4-.3-.7-.4m2.5 8.4c-.1-1.4-.1-2.6-.4-4 .1.5.1 1.6.5 1.7.2-.3.2-.6.2-.9.3 1 .6 1.9.6 3 0 .6-.2 1.4-.8.6-.3-.4-.1-1.8 0-2.2m-15.8 2.7c-.5-.1.2-2.5.2-3 .1-1.3 1.2-2.2 1.5-3.5.3 1.1-.3 2.5-.6 3.6-.2.8-.7 3.1-1.5 3.5m22.5-4.1c.1.8-1.1 1.9-1.8 2.2.4-.6 2.4-1.7 1.4-2.7.3.2.4.5.5.8m-14.2 2.3c0-.6.4-1.2.6-1.8.2-.6.3-1.2.4-1.8.2-1.2.2-2.5.3-3.8.3 1.2.1 2.7.2 3.9.1.7.1 1.4.2 2 .1.6.6 1.4.5 2-.7.3-1.5-.2-2.2-.5"/><path fill="#FFC303" stroke="#FFC303" d="M60.4 86.8c1.2.5 1.6 2 2.8 2.6 1 .5 2.1.3 3.2.5.5.1.9.4 1.5.4.7 0 1.1-.4 1.7-.5.8 0 2.9 1.3 3-.5.4-.1.8 0 1.2 0 .2 0 .5.1.6 0 .3-.2.2-.5.4-.6.7-.4 2.2.3 2.9.3.9 0 2.1.2 2.9.1.5-.1.9-.3 1.5-.5.4-.1 1.1-.6 1.4-.6.8-.1.6.5 1 .9.4.3 1 .2 1.4.2 1-.1 2-.5 3-.5 1.1-.1 1.9-.3 3-.7.6-.2 2.7-.5 2.2-1.5-.9 0-1.6.7-2.4.9-.8.2-1.5.3-2.3.5-.8.3-1.5.4-2.4.6-.8.2-1.4.5-2.2.4.1-.6-.1-1-.7-1.2-.8-.3-.8.1-1.3.3-.9.4-2.2.8-3.2.9-1.2.2-2.1-.4-3.3-.5-.5 0-1 .1-1.5 0-.4 0-1.4-.5-1.2.3-.4.3-.9 0-1.4.2.4 1.5-1 1.2-2.2 1-1-.2-2.1-.1-3.1-.2-.5-.1-1-.2-1.5-.4-.6-.2-1.2-.1-1.7-.3-1.1-.3-1.8-1.8-2.8-2.5 0-.1 0-.2.1-.3-.5-.3-1.6 0-.8.6"/><linearGradient id="J" x1="79.193" x2="79.921" y1="77.214" y2="77.214" gradientUnits="userSpaceOnUse"><stop offset="0" stop-color="#f9f29d"/><stop offset=".189" stop-color="#fbe876"/><stop offset=".452" stop-color="#fcdb47"/><stop offset=".685" stop-color="#fed224"/><stop offset=".875" stop-color="#ffcc0f"/><stop offset="1" stop-color="#ffca07"/></linearGradient><ellipse cx="79.6" cy="77.2" fill="url(#J)" rx=".4" ry=".3"/><linearGradient id="K" x1="79.563" x2="80.289" y1="76.616" y2="76.616" gradientUnits="userSpaceOnUse"><stop offset="0" stop-color="#f9f29d"/><stop offset=".189" stop-color="#fbe876"/><stop offset=".452" stop-color="#fcdb47"/><stop offset=".685" stop-color="#fed224"/><stop offset=".875" stop-color="#ffcc0f"/><stop offset="1" stop-color="#ffca07"/></linearGradient><path fill="url(#K)" d="M80.3 76.6c0 .2-.2.3-.4.3s-.4-.2-.4-.3c0-.2.2-.3.4-.3s.4.1.4.3z"/><linearGradient id="L" x1="78.887" x2="79.615" y1="76.347" y2="76.347" gradientUnits="userSpaceOnUse"><stop offset="0" stop-color="#f9f29d"/><stop offset=".189" stop-color="#fbe876"/><stop offset=".452" stop-color="#fcdb47"/><stop offset=".685" stop-color="#fed224"/><stop offset=".875" stop-color="#ffcc0f"/><stop offset="1" stop-color="#ffca07"/></linearGradient><ellipse cx="79.3" cy="76.3" fill="url(#L)" rx=".4" ry=".3"/><linearGradient id="M" x1="78.551" x2="79.28" y1="76.955" y2="76.955" gradientUnits="userSpaceOnUse"><stop offset="0" stop-color="#f9f29d"/><stop offset=".189" stop-color="#fbe876"/><stop offset=".452" stop-color="#fcdb47"/><stop offset=".685" stop-color="#fed224"/><stop offset=".875" stop-color="#ffcc0f"/><stop offset="1" stop-color="#ffca07"/></linearGradient><ellipse cx="78.9" cy="77" fill="url(#M)" rx=".4" ry=".3"/><linearGradient id="N" x1="70.931" x2="71.659" y1="78.03" y2="78.03" gradientUnits="userSpaceOnUse"><stop offset="0" stop-color="#f9f29d"/><stop offset=".189" stop-color="#fbe876"/><stop offset=".452" stop-color="#fcdb47"/><stop offset=".685" stop-color="#fed224"/><stop offset=".875" stop-color="#ffcc0f"/><stop offset="1" stop-color="#ffca07"/></linearGradient><ellipse cx="71.3" cy="78" fill="url(#N)" rx=".4" ry=".3"/><linearGradient id="O" x1="71.301" x2="72.028" y1="77.432" y2="77.432" gradientUnits="userSpaceOnUse"><stop offset="0" stop-color="#f9f29d"/><stop offset=".189" stop-color="#fbe876"/><stop offset=".452" stop-color="#fcdb47"/><stop offset=".685" stop-color="#fed224"/><stop offset=".875" stop-color="#ffcc0f"/><stop offset="1" stop-color="#ffca07"/></linearGradient><path fill="url(#O)" d="M72 77.4c0 .2-.2.3-.4.3s-.4-.2-.4-.3c0-.2.2-.3.4-.3.3 0 .4.1.4.3z"/><linearGradient id="P" x1="70.625" x2="71.354" y1="77.163" y2="77.163" gradientUnits="userSpaceOnUse"><stop offset="0" stop-color="#f9f29d"/><stop offset=".189" stop-color="#fbe876"/><stop offset=".452" stop-color="#fcdb47"/><stop offset=".685" stop-color="#fed224"/><stop offset=".875" stop-color="#ffcc0f"/><stop offset="1" stop-color="#ffca07"/></linearGradient><ellipse cx="71" cy="77.2" fill="url(#P)" rx=".4" ry=".3"/><linearGradient id="Q" x1="70.289" x2="71.018" y1="77.771" y2="77.771" gradientUnits="userSpaceOnUse"><stop offset="0" stop-color="#f9f29d"/><stop offset=".189" stop-color="#fbe876"/><stop offset=".452" stop-color="#fcdb47"/><stop offset=".685" stop-color="#fed224"/><stop offset=".875" stop-color="#ffcc0f"/><stop offset="1" stop-color="#ffca07"/></linearGradient><ellipse cx="70.7" cy="77.8" fill="url(#Q)" rx=".4" ry=".3"/><linearGradient id="R" x1="75.616" x2="76.345" y1="78.808" y2="78.808" gradientUnits="userSpaceOnUse"><stop offset="0" stop-color="#f9f29d"/><stop offset=".189" stop-color="#fbe876"/><stop offset=".452" stop-color="#fcdb47"/><stop offset=".685" stop-color="#fed224"/><stop offset=".875" stop-color="#ffcc0f"/><stop offset="1" stop-color="#ffca07"/></linearGradient><ellipse cx="76" cy="78.8" fill="url(#R)" rx=".4" ry=".3"/><linearGradient id="S" x1="75.987" x2="76.714" y1="78.21" y2="78.21" gradientUnits="userSpaceOnUse"><stop offset="0" stop-color="#f9f29d"/><stop offset=".189" stop-color="#fbe876"/><stop offset=".452" stop-color="#fcdb47"/><stop offset=".685" stop-color="#fed224"/><stop offset=".875" stop-color="#ffcc0f"/><stop offset="1" stop-color="#ffca07"/></linearGradient><path fill="url(#S)" d="M76.7 78.2c0 .2-.2.3-.4.3s-.4-.2-.4-.3c0-.2.2-.3.4-.3.3 0 .4.1.4.3z"/><linearGradient id="T" x1="75.311" x2="76.039" y1="77.941" y2="77.941" gradientUnits="userSpaceOnUse"><stop offset="0" stop-color="#f9f29d"/><stop offset=".189" stop-color="#fbe876"/><stop offset=".452" stop-color="#fcdb47"/><stop offset=".685" stop-color="#fed224"/><stop offset=".875" stop-color="#ffcc0f"/><stop offset="1" stop-color="#ffca07"/></linearGradient><ellipse cx="75.7" cy="77.9" fill="url(#T)" rx=".4" ry=".3"/><linearGradient id="U" x1="74.975" x2="75.703" y1="78.549" y2="78.549" gradientUnits="userSpaceOnUse"><stop offset="0" stop-color="#f9f29d"/><stop offset=".189" stop-color="#fbe876"/><stop offset=".452" stop-color="#fcdb47"/><stop offset=".685" stop-color="#fed224"/><stop offset=".875" stop-color="#ffcc0f"/><stop offset="1" stop-color="#ffca07"/></linearGradient><ellipse cx="75.3" cy="78.6" fill="url(#U)" rx=".4" ry=".3"/></g></switch></svg>
