<svg xmlns="http://www.w3.org/2000/svg" version="1.0" viewBox="0 0 120.3 67.3"><switch><g><g stroke-width=".183"><ellipse cx="60.1" cy="43.4" fill="#F8F7D4" stroke="#6D441B" rx="60.1" ry="22.3"/><ellipse cx="60.2" cy="42.7" fill="#F9DB00" stroke="#F9DB00" rx="60.1" ry="22.3"/><ellipse cx="60.1" cy="43.4" fill="#F6F3B5" stroke="#6D441B" rx="43.1" ry="16"/></g><path fill="#BB8771" d="M86.5 52.9c1.7-.2 3.7-.8 4.7-2.3.7-1.1.3-3.5.1-4.8-.1-.8-.5-1.6-.6-2.4-.1-.9.4-1.6.1-2.6-.3-1-1.1-1.2-1.2-2.3-.1-1.3.9-1.4 1.4-2.3 1-1.8-.7-3.2-.6-4.9.1-1.7 1.6-3.1 1.6-4.9 0-1-.3-4.5-1.8-4.2 1.7-.4-1.6-2.7-2.3-3-1.1-.5-2.2-.9-3.3-1.2-2-.5-4.1-1.6-6.1-1.8-1-.1-1.9.3-2.9.2-1 0-2.1-.3-3.1-.4-2.1-.2-4.2-.3-6.3-.7-2.1-.4-4.2-.4-6.3-.4-2 0-4.2-.4-6.3-.6-4-.3-7.9-.6-11.9-.9-3.1-.2-6-.7-9.2-.4-1.6.1-2.9-.4-4.4-.4-2.3-.1-5 .8-7.2 1.5-1.3.4-2.6 1-2.5 2.5.1 1.4 1.3 1.9 1.3 3.3 0 1.2.2 2.2.2 3.4 0 .6-.3 1.4-.2 2 .1.8.5.9 1.2 1.2-.6 1.4.4 2.1.5 3.5.1.6-.1 1.1 0 1.7.1.6.6 1.2.7 1.8 0 .4-.1 1.2-.2 1.6-.3.7-.8.9-.9 1.7-.1 1 .4 2.6.5 3.7.2 1.7-1.7 3.9 2 3.5.7-.1 1.6-.2 2.3.1.6.2 1.3.1 1.9.2 1.3.3 2.2 1 3.5 1.1 2.2.3 4.3 1.1 6.4 1.8.9.3 1.8 0 2.8 0 1.9-.1 3.5.7 5.3 1 2 .3 4 .7 6.1 1 2.2.3 4.8.1 7 .7.9.3 1.7 1 2.7 1.2 1.1.2 2.3.2 3.4.3 1.9.2 3.7 1 5.6 1.3 1.8.2 3.7.3 5.5.8.9.2 1.9.5 2.8.6.7.1 1.1.1 1.7-.1.2-.1.4-.4.7-.5.2-.1.5.2.8.1 1.6-.1 3-.5 4.5-.7z"/><path fill="#5B2019" stroke="#5B2019" stroke-width=".848" d="M19.9 20.5c-.2-1.8-2.4-4.2-.7-5.7 1.8-1.5 3.7-1.4 5.9-1.3 2 .1 3.9-.3 5.9-.2 2.1.2 4.2.2 6.3.3 2.1.1 3.9-.2 6-.3 2.2-.1 4.2.9 6.3.7 2.1-.2 3.9.8 6 .7 2.1-.1 3.9-.1 6 .2 1 .1 2.1-.1 3.2.1s2.2.5 3.3.7c1.1.2 2.2.5 3.3.8 1.1.3 2 .2 3.1.2 2.1 0 4.1 1 6.2 1 2.1-.1 3.9.4 5.9 1.3.9.4 2.1.6 3 1 .6.3 2 2.7 2.7 2.2.9-.7-3.9-4.7-4.6-5.3-.9-.7-1.8-1.6-2.9-1.9-1-.2-2.2-.2-3.2-.4-2.1-.3-4.3-.4-6.5-.5-2-.1-4-.7-6.1-.8-2-.2-3.7.4-5.8 0-3.8-.7-7.8-.9-11.6-1.4-.9-.1-1.8-.4-2.7-.4-1.1-.1-2.2.3-3.3.3-2 .1-3.8-.8-5.8-.6-.9.1-1.8.4-2.8.4-1 0-2-.3-3-.3-.9 0-1.8.3-2.8.3-1.1 0-1.9-.1-3 0-.7.1-1.2-.2-1.8-.3-.8-.1-1.1.1-1.9.2-1.2.2-2.3-.3-3.5 0-1.7.4-2.5 1.8-3.5 3.1-.6.9-.7 1.1-.7 2.1 0 .9.3 1.4.7 2 .7 1.1 1.1 2.7.7 4.2-.2.7-.8 1.2-1 2-.1.7-.1 1.7.2 2.3.4.7 1.5.8 1.7 1.7.1.7-.4 1.5-.3 2.3.1.7.2 1.4.2 2.1 0 1 .4 1.5.7 2.4.5 1.6-1.1 2.8-1.2 4.4 0 .4.3.6.3.9 0 .5-.2.6 0 1.2.2.9 1.2 1.1 1.4 1.9 2 .1 1.5-2.9 1.4-4-.1-.9-.3-1.4-.5-2.2-.2-.9.2-1.4.4-2.3.4-1.4.2-3.3 0-4.6-.2-1.6-.8-2.9-1.6-4.2-.9-2 .2-4.2 0-6.3z"/><path fill="#5B2019" d="M90.9 29.7c.1-.7.4-1.4.3-2-.1-1.1-1.7-2.9-.1-3.8.5.5 1.3 1.8 1.5 2.5.2.9-.4 1.7-.6 2.6-.5 1.6-.1 3.5-.7 5.1-.8 2.2-3.1.9-4.8.8-2.2-.2-4.2-.6-6.3-1.1-1.8-.4-3.7-.1-5.5-.3-1.8-.3-3.4-1.4-5.2-1.2-1.1.1-1.4.2-2.5-.3s-1.4-.3-2.5-.2c-.8 0-1.8-.2-2.6-.3-1-.2-2-.5-3-.7-1.2-.2-2.3-1.1-3.6-1-.8.1-1.5.7-2.4.7-.9 0-1.7-.4-2.6-.5-1.6-.3-3.4-.4-5-.8-1.5-.3-2.9-.8-4.5-1-1.5-.2-3.2 0-4.7-.4-1.7-.5-3.2 0-5 .2-1.6.2-3.2-.2-4.8-.4-1.6-.2-2.9.5-4.4.5-.6 0-3.1-.1-1.6-.9.5-.3.9.2 1.4.1.6-.1 1-.6 1.5-.9 1.6-1 3.9-1.1 5.9-.9 1.1.1 1.7.5 2.8.4 1-.1 2-.3 3-.2 2.2.1 4.3.8 6.5.5 2.1-.2 4.3.8 6.2.5 1.2-.2 1.6-.4 2.8 0 1.2.4 1.8.7 3 .7 1 0 2 0 3 .2 1.2.2 1.8 0 3-.1.8-.1 2-.3 2.8 0 .5.2.8.8 1.4 1 1 .3 2.3-.2 3.3-.1 1.1.1 2.2.7 3.3.6 1.2-.1 1.6-.9 2.9-.4 2.2.9 3.5 2 6 1.9.5 0 .8-.4 1.4-.2.5.2 1 .9 1.4 1.3 1.3 1 1.6.2 2.9-.1 1-.2 1.9.2 2.8.5.7.2 2.4.5 3.1 0 .3-.8.1-1.6.2-2.3zm-66.7 5c.9 0 1.6.1 2.4.2-.2 1.2 1.6.9 2.4.9 1.2.1 2.3.1 3.5.5 1.4.4 1.8.7 3.2.2 1.5-.6 2.1-.1 3.5.2 1.2.3 2.5.6 3.7.6 1-.1 1.9-.1 2.9 0 2.2.2 4.1 1.1 6.2 1.5 1 .2 2 0 3 .2 1.1.2 2 .7 2.9 1.3 2 1.2 3.6.3 5.8.5 2.2.1 4.1.5 6.3.2s3.6 1.6 5.6 1.9c.8.1 1.6-.1 2.4-.2 1-.1 2.1.2 3.1 0 .8-.2.5-.3 1.2-.8 0 0 1.4-.3 1.5-.3.5.1.6.6.9 1 .5.9 1.7 1.2.8 2.3-.7.8-1.4.2-2.4.2s-2.1.3-3.1.4c-1.1.1-1.8-.2-2.8-.5-1.1-.2-2.4-.2-3.6-.2-1 0-2.1.1-3.2.2-1.2.1-2.4.8-3.6.8-1.1 0-2-.9-2.9-1.4-.9-.5-2.1-.7-3.1-.9-.9-.2-1.9-.2-2.8-.5-1.1-.4-1.8-.9-3-.8-1.1.1-1.8.8-3 .7-1.1-.1-2.1-.9-3.2-.9-1.4-.1-2.1.9-3.5.1-1.3-.7-2.1-1.5-3.7-1.8-2.5-.4-5-.8-7.3-1.4-1.1-.3-2.3-.6-3.5-1-1.5-.4-1.9-1.2-3.5-.6-1.4.5-2 .3-3.3 0-.9-.2-2.1-.5-2.4-1.3-.6-1.8 1.7-1.3 2.6-1.3z"/><path fill="none" stroke="#060606" stroke-width=".212" d="M92.2 22.1c1.4-.9 1.1-3.1.1-4.3-.3-.3-.8-.4-1-.7-.2-.4-.1-.7-.3-1.1-.4-.9-1.2-1.5-2-1.9-1.4-.8-3.2-1.1-4.8-1.5-.9-.2-1.5-.6-2.4-1-.8-.4-1.6-.3-2.3-.6"/><path fill="#803C2F" stroke="#803C2F" stroke-width=".212" d="M68.9 8.7c-1.2-.3-2.3-.3-3.5-.4-2.5-.3-4.8-1.4-7.3-1.8C54.8 6 51.4 5.9 48 6c-1.7 0-3.5.5-5.2.3-1.1-.1-2.1-.4-3.2-.3-1.2.1-2.3.8-3.5 1.1-1.1.3-2.4.6-3.5.7-.6 0-1.1-.1-1.6-.1-1.6.2-3.3 1.1-4.8 1.6-.9.3-2.1.2-3 .6-1 .4-1.7 1.4-.4 1.8.9.3 2.1.1 3 0 2.1-.2 3.9-.3 6-.1 2.1.2 4.1.1 6.1-.3 2.2-.5 3.7.1 5.8.3.9.1 1.9.4 2.9.4 1.1 0 1.8-.5 3-.2 1 .2 1.7.5 2.8.5 1-.1 2-.4 3-.2 1.9.3 3.8 1 5.8 1.2 1.6.2 3.4.8 5 .7 3.8-.2 7.4.2 11.2.4 2 .1 4.1.6 6.1.9 2.6.3 3.8 1.7 5.7 3.4.9.8 1.9 1.4 2.4 2.5.4.8 1.3 2.4 1.9.7.3-1-.4-2.1-.9-2.9-.6-1-1.1-2.2-1.8-3.2-1.2-1.8-3.9-2.1-5.8-2.9-2-.8-4-1.7-6.1-2.3-1.6-.5-4.3-1.1-6-.9-1.5.1-2.6-.6-4-1z"/><path fill="none" stroke="#060606" stroke-width=".212" d="M48.3 42.7c.4-.3.9-.4 1.3-.5-.5-.4-1.5-.1-1.1.6"/><path fill="#060606" d="M43.7 44c-.4-.5-.4-.1-.8-.1-.1.1-.3.2-.4.3-.3 0-.5-.3-.7-.3-.8.1-1.5.6-2.3.8-1.5.3-2.9-.7-4.4-.8-.2.9 5.6 1.8 6.2 1.2-.3 0-.6-.1-.8-.2.2-.7.9-.6 1.5-.7.2 0 .5.1.9.1.3-.1.4-.5.8-.5m2.5 1.1c.3-1.6-2.4-1.5-.7.1-.5.4-.5 1 0 1.4 0 .1-.1.2-.2.3.3-.3.8-1 1.2-1 .3 0 .7.7 1.1.8.4-.8-1.1-1.1-1.5-1.7.2-.1.3-.4.5-.6-.1-.2-.2-.3-.4-.4m2 .3c-.2.3-.4.5-.7.4 0-.4-.2-.5.1-.9-.1 0-.2-.1-.4-.1.7-.4 1.1.1.9.8m2.1-.4c-.4.1-.6.1-.5-.4.4-.1.8-.2 1.2-.2.3.4.1.7-.4.8m9.1 4.3c-1.4.6-1.9-1.6-.2-1.6s1.3 2.3.1 1.8m-28.3-6.7c-.6.3-1.8 1-2.4 1.1-.6 0-2.2-.5-2.3-1.2.3-.2.7-.4 1.1-.6-1.3 0-2.3 1.1-3.2-.3-1.2-1.9 1.2-1.3 2.2-1.3 2.2.2 5.6-1.7 4.3 2.1m49.1-1c0 .2-.1.3-.2.3-.5-.1-.7-.8-.8-1.3 1.6-1.9 2.5 1.3 1.3 1m-3.5-.3c-1 .8-1.2.4-2.1-.3.4-.7.4-1.9 1.6-1.6.2.7-.9.9-.6 1.8.5.1 1-.1 1.5-.1.1.4-.1.3-.3.5m-8.4-3.4c0-.2 0-.3.2-.1.4 1 1.7.4 2.1-.3-.2-.7-1.9-.9-2.6-1.1-.4.7.1 1.2.8 1.4m-2.3-.9c.3-.3.6-.6.6-1-.6-.4-1.3-.1-1.9 0-.2.7.6.6 1.2.7m-37.3-6.2c-.6-.8 1.3-1.7 1.8-2.1.3.8-1.6 2.8-2.2 2m5.1-1c.6-.4 2.6-1 1.6.5-.5-.1-.9-.3-1.4-.5-.1-.1-.1-.2.1-.3m24.3 3.1c.3-.5.8-.3 1 .2-.3.3-.7.2-1.1-.1m-.7 5.8c.6-.3 1 .4.8.9-.3.1-.7 0-1-.3 0-.3.2-.4.4-.5m-2.3-.6c-.3-.3-.4-.7-.4-1.1-1.3.4-.2 2.4.8 1.4 0-.2-.1-.3-.3-.3m-13.7-2.3c-.1-.2-.6-.5-.8-.6-.3.5.1.8 0 1.4-.2-.1-.5.1-.7-.1-.1 1.4 1.7-.7 1.9-.7m-6.7-.4c-.7-.6-1 .2-1.2.6 0-.2.2.7.2.7 0 .2-.3.7-.4.9 1 .8.7-.3.8-.7l.1-.9c.1-.2.4-.5.5-.6-.2-.2-.3-.2-.5-.2m-8.7.4c-.3-.3-.4-.8-.2-1.3-.5-.2-.8.6-1.5.5.4.5 1.1.5 1.6 1M43.2 21c-2.7-1.3-.2 2 .5.5 0-.2-.1-.3-.3-.3m-9 2.4c-.7-.1-1.2-.6-.9-1.3-.4-.1-.9-.2-1.3-.4.4.4.7.8.8 1.3.4 0 .7.2 1 .4m-6.7-.4c.2-.5-.2-.8-.7-1-.2.7.3 1.4 1 .9m14.3.3c.1.2.1.3.1.5-.5 0-.9-.1-1.3-.4.3-.2.6-.1.9.1" opacity=".24"/><path fill="#060606" d="M40.2 37.9c-.4-.5-.4-.1-.8-.1-.1.1-.3.2-.4.3-.3 0-.5-.3-.7-.3-.8.1-1.5.6-2.3.8-1.5.3-2.9-.8-4.4-.8-.2.9 5.6 1.8 6.2 1.2-.3 0-.6-.1-.8-.2.2-.7.9-.6 1.5-.7.2 0 .5.1.9.1.3-.1.4-.5.8-.5m2.5 1.1c.3-1.6-2.4-1.5-.7.1-.5.4-.5 1 0 1.4 0 .1-.1.2-.2.3.3-.3.8-1 1.2-1 .3 0 .7.7 1.1.8.4-.8-1.1-1.1-1.5-1.7.2-.1.3-.5.5-.6-.1-.2-.2-.3-.4-.4m2 .3c-.2.3-.4.5-.7.4 0-.4-.2-.5.1-.9-.1 0-.2-.1-.4-.1.7-.4 1.1.1.9.8m2.2-.4c-.4.1-.6.1-.5-.4.4-.1.8-.2 1.2-.2.3.4.1.7-.4.8m9.1 4.3c-1.4.6-1.9-1.6-.2-1.6s1.3 2.3.1 1.8m30.3 7.4c-.4.2-1.2.7-1.7.8-.4 0-1.5-.4-1.6-.8.2-.1.5-.3.7-.4-.9 0-1.6.8-2.2-.2-.8-1.4.8-.9 1.5-.9 1.5.1 3.9-1.2 2.9 1.5m-9.4-15.3c0 .2 0 .3-.2.3-.5-.1-.7-.8-.8-1.3 1.6-1.9 2.5 1.3 1.3 1m-3.5-.3c-1 .8-1.2.4-2.1-.3.4-.7.4-1.9 1.6-1.6.2.7-.9.9-.6 1.8.5.1 1-.1 1.5-.1.1.4-.1.3-.3.5M65 31.2c0-.2 0-.3.2-.1.4 1 1.7.4 2.1-.3-.2-.7-1.9-.9-2.6-1.1-.4.7.1 1.2.8 1.4m-2.3-.9c.3-.3.6-.7.6-1-.6-.4-1.3-.1-1.9 0-.2.7.6.6 1.2.7m-37.3-6.2c-.6-.8 1.3-1.7 1.8-2.1.3.8-1.6 2.9-2.2 2m5.1-1c.6-.4 2.6-1 1.6.5-.5-.1-1-.3-1.4-.5-.1-.1-.1-.2.1-.3m24.3 3.1c.3-.5.8-.3 1 .2-.3.3-.7.2-1.1-.1m-.7 5.8c.6-.3 1 .4.8.9-.3.1-.7 0-.9-.3 0-.3.2-.4.4-.5m-2.4-.6c-.2-.3-.4-.7-.4-1.1-1.3.4-.2 2.4.8 1.4 0-.2-.1-.3-.3-.3m-13.7-2.3c-.1-.2-.6-.5-.8-.6-.3.5.1.8 0 1.4-.2-.1-.5 0-.7-.1-.1 1.4 1.7-.7 1.9-.7m-6.7-.4c-.7-.6-1 .2-1.2.6 0-.2.2.7.2.7 0 .2-.3.7-.4.9 1 .8.7-.3.8-.7l.1-.9c.1-.2.5-.5.5-.6-.2-.2-.3-.2-.5-.2m-8.7.4c-.3-.3-.4-.8-.2-1.3-.5-.2-.8.6-1.5.5.4.4 1.1.5 1.6 1m16.7-13.6c-2.7-1.3-.2 2 .5.5 0-.2-.1-.3-.3-.3m-9 2.4c-.7-.1-1.2-.6-.9-1.3-.4-.1-.9-.2-1.3-.4.4.4.7.8.8 1.3.4 0 .7.2 1 .4m-6.6-.4c.2-.5-.2-.8-.7-1-.2.7.3 1.4 1 .9m14.2.3c.1.2.1.3.1.5-.5 0-.9-.1-1.3-.4.3-.2.6-.1.9.1" opacity=".24"/><path fill="#060606" d="M38.7 21.8c-.4-.5-.4-.1-.8-.1-.1.1-.3.2-.4.3-.3 0-.5-.3-.7-.3-.8.1-1.5.6-2.3.8-1.5.3-2.9-.7-4.4-.8-.2.9 5.6 1.8 6.2 1.2-.3 0-.6-.1-.8-.2.2-.7.9-.6 1.5-.7.2 0 .5.1.9.1.3-.1.4-.5.8-.5m2.4 1.1c.3-1.6-2.4-1.5-.7.1-.5.4-.5 1 0 1.4 0 .1-.1.2-.2.3.3-.3.8-1 1.2-1 .3 0 .7.7 1.1.8.4-.8-1.1-1.1-1.5-1.7.2-.1.3-.4.5-.6-.1-.2-.2-.3-.4-.4m2.1.3c-.2.3-.4.5-.7.4 0-.4-.2-.5.1-.9-.1 0-.2-.1-.4-.1.7-.4 1.1.1.9.8m2.1-.4c-.4.1-.6.1-.5-.4.4-.1.8-.2 1.2-.2.3.4.1.7-.4.8m9.1 4.3c-1.4.6-1.9-1.6-.2-1.6s1.3 2.3.1 1.8m32.5-.5c-.3.3-.9 1-1.2 1.1-.3 0-1.1-.5-1.1-1.2.2-.2.4-.4.5-.6-.6 0-1.2 1.1-1.6-.3-.6-1.9.6-1.3 1.1-1.3 1.1.2 2.9-1.7 2.2 2.1M75 18.5c0 .2 0 .3-.2.3-.5-.1-.7-.8-.8-1.3 1.6-1.9 2.5 1.3 1.3 1m-3.5-.3c-1 .8-1.2.4-2.1-.3.4-.7.4-1.9 1.6-1.6.2.7-.9.9-.6 1.8.5.1 1-.1 1.5-.1.1.4-.1.3-.3.5m-14.1-1.4c0-.2 0-.3.2-.1.4 1 1.7.4 2.1-.3-.2-.7-1.9-.9-2.6-1.1-.4.7.1 1.2.8 1.4m3.4-2.9c.3-.3.6-.7.6-1-.6-.4-1.3-.1-1.9 0-.2.7.6.6 1.2.7m-8.3 8c-.6-.8 1.3-1.8 1.8-2.1.3.8-1.6 2.8-2.2 2m13.4-2c.6-.4 2.6-1 1.6.5-.5-.1-.9-.3-1.4-.5-.1-.1-.1-.2.1-.3M53.5 9.3c.3-.5.8-.3 1 .2-.3.3-.7.2-1.1-.1m-.6 5.8c.6-.3.9.4.8.9-.3.1-.7 0-.9-.3 0-.3.2-.4.4-.5m-2.5-.5c-.2-.3-.4-.7-.4-1.1-1.3.4-.2 2.4.8 1.4 0-.2-.1-.3-.3-.3m-13.6-2.4c-.2-.2-.6-.5-.8-.6-.3.5.1.8 0 1.4-.2-.1-.5.1-.7-.1-.1 1.4 1.7-.7 1.9-.7m-6.7-.4c-.7-.6-1 .2-1.2.6 0-.2.2.7.2.7 0 .2-.3.7-.4.9 1 .8.7-.3.8-.7l.1-.9c0-.2.4-.5.5-.6-.1-.2-.3-.2-.5-.2m-8.7.4c-.4-.3-.4-.8-.2-1.3-.5-.2-.8.6-1.5.5.4.4 1.1.5 1.6 1m42.7 9.8c-2.7-1.3-.2 2 .5.5 0-.2-.1-.3-.3-.3m8.1 3c-.7-.1-1.2-.6-.9-1.3-.4-.1-.9-.2-1.3-.4.4.4.7.8.8 1.3.4 0 .7.2 1 .4m-5.9-.8c.2-.5-.2-.8-.7-1-.2.7.3 1.4 1 .9M60 19.7c.1.2.1.3.1.5-.5 0-.9-.1-1.3-.4.3-.2.6-.1.9.1m17.2 1.7c-.4-.5-.4-.1-.8-.1-.1.1-.3.2-.4.3-.3 0-.5-.3-.7-.3-.8.1-1.5.6-2.3.8-1.5.3-2.9-.7-4.4-.8-.2.9 5.6 1.8 6.2 1.2-.3 0-.6-.1-.8-.2.2-.7.9-.6 1.5-.7.2 0 .5.1.9.1.3-.1.4-.5.8-.5m8.2 15.5c.3-1.6-2.4-1.5-.7.1-.5.4-.5 1 0 1.4 0 .1-.1.2-.3.3.3-.3.8-1 1.2-1 .3 0 .7.7 1.1.8.4-.8-1.1-1.1-1.5-1.7.2-.1.3-.4.5-.6-.1-.2-.2-.3-.4-.4M75 49.4c-.2.3-.4.5-.7.4 0-.4-.2-.5.1-.9-.1 0-.2-.1-.4-.1.7-.4 1.1.1.9.8m-4-1.7c-.4.1-.6.1-.5-.4.4-.1.8-.2 1.2-.2.3.4.1.7-.4.8m-6.3.7c-1.4.6-1.9-1.6-.2-1.6 1.7-.1 1.3 2.3.1 1.8m17.8 2c.3-.3.6-.6.6-1-.6-.4-1.3-.1-1.9 0-.2.7.6.6 1.2.7m-37.4-6.3c-.6-.8 1.3-1.7 1.8-2.1.3.8-1.6 2.8-2.2 2m5.2-.9c.6-.4 2.6-1 1.6.5-.5-.1-.9-.3-1.4-.5-.1-.1-.1-.2.1-.3m24.2 3.1c.3-.5.8-.3 1 .2-.3.3-.7.2-1.1-.1m-.6 5.7c.6-.3 1 .4.8.9-.3.1-.7 0-1-.3 0-.3.2-.4.4-.5m-2.3-.5c-.2-.3-.4-.7-.4-1.1-1.3.5-.2 2.5.7 1.4 0-.2-.1-.3-.3-.3m-16-6c-.1-.2-.6-.5-.8-.6-.3.5.1.8 0 1.4-.2-.1-.5.1-.7-.1-.1 1.4 1.7-.7 1.9-.7m-7.4-14.5c-.7-.6-1 .2-1.2.6 0-.2.2.7.2.7 0 .2-.3.7-.4.9 1 .8.7-.3.8-.7l.1-.9c.1-.2.4-.5.5-.6-.2-.2-.3-.2-.5-.2m-6.6.3c-.4-.3-.4-.8-.2-1.3-.5-.2-.8.6-1.5.5.4.4 1.1.5 1.6 1M59 35.7c-2.7-1.3-.2 2 .5.5 0-.2-.1-.3-.3-.3m-8.9 2.3c-.7-.1-1.2-.6-.8-1.3-.4-.1-.9-.2-1.3-.4.4.4.7.8.8 1.3.4 0 .7.2 1 .4m-6.8-.4c.2-.5-.2-.8-.7-1-.2.7.3 1.4 1 .9m14.3.3c.1.2.1.3.1.5-.5 0-.9-.1-1.3-.4.3-.2.6-.1.9.1" opacity=".24"/><path fill="#9F5F4E" d="M47.9 10.8c.7-.2 1.3-.6 1.8-1.1.5-.5.9-1.1 1.3-1.6 1.1-1.6.7-3.5-.6-4.8-.5-.5-2.3-2-2.7-.8-.2.5 0 1-.3 1.5-.3.6-.9.9-1.5 1l-3 .3c-2.2.2-4-.8-6.1-.9-.8 0-1.2.1-1.6.8-.4.6-.4 1.3-.2 2.1.1.4.1.6.2 1 .2.5 1.3 1.1 1.7 1.4 1.4 1.1 3 1 4.7 1.2 1 .1 2.1.2 3.1.2.5 0 1.1-.1 1.6-.2.6-.1 1.1 0 1.6-.1z"/><path fill="#AF715A" d="M37 4.6c0-.4-.1-.9 0-1.2.2-.4.9-.9 1.2-1.2.7-.5 1.6-.4 2.5-.3.7.1 1.8.4 2.5 0s.1-.6-.3-.9c-.5-.3-1-.6-1.2-1.1.4-.1 1 .2 1.4.3.5.1 1 .1 1.6.2 1 .3 2.3.6 3 1.5.7 1 .2 2.1-.7 2.8-.8.6-2.1.3-3 .4-2.1.2-4.1 0-6.1-.4-.6-.1-1.1-.2-1.1-.8 0-.5.4-1.2.7-1.6.7-.9 2-.9 3-.8.6 0 1.1.3 1.7.4"/><path fill="#83493A" d="M46 9.8c1.7-.2 3.4-2.1 4.5-3.2-.3 1.1-1.3 1.9-2.2 2.5-.8.5-2.1 1.3-3 .8.3-.2.8-.3 1.2-.4"/><path fill="#83493A" d="M43.4 10.1c.6-.3 1.3-.5 1.9-.6.7-.2 1.3-.5 2-.8 1.2-.6 3.1-1.6 2.8-3.2-.6.3-.9 1.3-1.4 1.8-.5.5-1.3.9-1.9 1.2-.6.3-1.2.7-1.8.9-.6.2-1.3.3-1.8.6 0 0 .1.1.2.1m-6.6-1.6c1.1-.2 2.3-.5 3.4-.7 1.2-.2 2.3-1 3.4-1.4 1.1-.4 2.2-1 3.3-1.3.6-.2 1.3-.5 1.5-1.2.1-.4-.5-1.6-.9-1.7 0 .3.4.4.6.7.1.3 0 .6-.2.8-.3.6-.9 1.3-1.5 1.5-.6.2-1.1.3-1.7.5-.6.3-1.2.5-1.8.7-1.2.3-2.3.2-3.5.5-.8.2-3.2.8-3.2 1.8.3.1.6 0 .9-.1"/><path fill="#83493A" d="M40.7 9.5c1.2.1 3-.4 4.1-.9.7-.3 1.5-.7 2.1-1.2.5-.4 1.4-1.4 2.1-1.6-.1.7-1.2 1.3-1.8 1.8-.6.5-1.4.9-2.1 1.4-.6.4-1.4.6-2.2.7-.4 0-1.9.1-1.9-.1m-5.1-1.9c-.2-1 3-1.3 3.7-1.4 1.3-.2 2.7-.5 3.9-1-.7-.2-1.6.2-2.3.4-.7.2-1.5.3-2.3.3-1.4 0-4-.1-3.8 2.1.4.2.6-.5.7-.8"/><path fill="#9F5F4E" d="M45.6 2.3c.1.3 0 .5 0 .8.5-.1.5-1.6.1-1.9-.3.1-.1 1-.1 1.3m-5.5-.6c-.1.1-2.7.1-2 .7.3.2 2.5-.2 2.6-.5M38 3.9c.9-.4 2-.7 3-.8.5 0 1 0 1.4-.2.7-.2 1-.9 1.6-1.1-.1 1.2-2.2 1.2-3.2 1.5-.6.2-1.1.3-1.7.4-.3 0-1.9.7-1.4.1"/><path fill="#9F5F4E" d="M39.1 4.8c.6-.9 2.5-.7 3.5-.9.7-.1 1.1-.4 1.7-.9.7-.6.6-.8.5-1.6 1.2 1.2-1.4 2.4-2.2 2.7-1.2.4-2.6.3-3.7.9"/><path fill="#83493A" d="M37.1 6.7l1.8-.3c.5-.1 1.4-.4 1.9-.3-.2.5-1.3.4-1.8.5-.6.1-1.4.5-2 .3 0-.1.1-.1.2-.1m-2-.4c.3-.1.5-.4.8-.6.3-.2.6-.2.9-.2l1.8-.3c1.1-.1 2.4-.5 3.5-.3-.2.4-1.2.3-1.6.3-.6.1-1.2.2-1.7.3-.6.1-1.1.2-1.7.3-.3.1-.6.1-.8.2-.3.2-.5.6-.9.6m-.4-1.1c.2-1.2 2.3-.6 3-.8-.2-.3-1.2-.3-1.6-.2-.6 0-1.3.2-1.4.9"/><path fill="#9F5F4E" d="M42.9 2.3c-.9-.2-2 0-2.9.2-.9.2-2.4.4-2.9 1.3.8.2 2.3-.4 3.1-.5.5-.1 1.1-.1 1.6-.2.3-.1 1.4-.6.9-.9m-1.5 3c1.6.2 3.5-.6 4.5-1.8-.9 1.5-3.4 2-5 1.6"/><path fill="#83493A" d="M50 5.2c.6-.7-.2-2.2-.7-2.8.2.6 1.8 1.7 1.4 2.4-.1 0-.2 0-.3-.1-.1.3-.1.9-.5.9 0-.1 0-.2.1-.2"/><path fill="#9F5F4E" d="M44.8 5.1c.9-.6 1.3-1.5 1.5-2.5.6.8-.8 2-1.2 2.6m1-.2c.6-.4 1.3-1.6 1.1-2.4.4 1-.2 2.1-1.2 2.6"/></g></switch></svg>
