<svg xmlns="http://www.w3.org/2000/svg" xmlns:xlink="http://www.w3.org/1999/xlink" version="1.0" viewBox="0 0 70.3 69.3"><switch><g><symbol id="a" viewBox="-39.5 -35 79 77.9"><path fill="#8A8A8A" stroke="#1D1C0F" d="M39 3.9c0-21.2-17.5-38.4-39-38.4S-39-17.3-39 3.9s17.5 38.4 39 38.4c21.5.1 39-17.1 39-38.4z"/><path stroke="#000" d="M36.1 4.5C36.1-15.6 19.7-32-.6-32c-20.3 0-36.7 16.4-36.7 36.5C-37.3 24.7-20.9 41-.6 41c20.3.1 36.7-16.3 36.7-36.5z"/><path fill="#D3D3D3" stroke="#959592" d="M36.1 3.7C36.1-16 20.1-32 .3-32c-19.8 0-35.8 16-35.8 35.7 0 19.7 16 35.7 35.8 35.7 19.8-.1 35.8-16.1 35.8-35.7z"/><path fill="#E3E3E3" stroke="#E3E3E3" d="M-15.3 20.4c-.3-.7-.5-1.4-.7-2-.3-.6-.9-1.4-1.1-1.9-.5-1.3.1-2.6.2-4 .1-3.5-2.9-5.2-4.6-8-1.1-1.9 0-1.8 1.5-3.3 1.2-1.2 2.7.8 2.4-3.7-1.4-1-.4-2.5.4-3.6-1.5-1-1.7-3.3-.5-4.5 1.1-1.1 3.8-1.5 5.2-2.2 3.3-1.8 6.8-2.6 10.2-4.4-.1 0 .3-4.1.4-4.5.2-1 .3-3.2 1.4-3.4 1.7-.3 4 3.1 5.1 4.1 2 1.8 4.2 3.5 6.3 5.2 2.1 1.6 4.1 3.5 6.1 5.2.9.8 2.7 1.7 3.3 2.7.8 1.4-.1 2.3 0 3.7.1 2.3 1.9 4.4 2.8 6.5.4 1.1.6 2.2 1.2 3.2.4 1.4 1.4 2.5 1.7 3.8.4 2.1-.5 4.4-.7 6.5-.1 1 .1 2.1-.2 3.1-.4 1.6-2.1 3.8-3 5.2-1.2 1.8-2.6 3.6-4.1 5.1-3.3 3.1-7.5 5.1-12.1 4.7-1.7-.1-3.3-.4-5-.4-1.7.1-3.5.7-5.2.2-1.5-.4-3.6-1.5-4.9-2.3-1.9-1.1-.7-3-1.6-4.6-1.3-2.3-3.4-4-4.5-6.4z"/><path fill="#FFF" stroke="#FFF" d="M.9 8.8S1.2 6.8 2 7c.9.2 2 1.8 2 1.8l2.2 1.8v.9L3.5 9.2.9 8.8zm16-5.3c.1.5.4 1 .9 1.3-.3.1-.9 0-1.2-.1-.1-.3 0-.6.1-.9m1.8 4.3c.4.8.9 1.9 1.6 2.3.9-1.1-1.1-1.5-1.7-2.3" opacity=".61"/><path fill="#131313" stroke="#131313" d="M22.4 12.8c1 2.3.1 4.7-.2 7.1-.2 1.3.2 2.4-.5 3.6-.8 1.3-2.4 2.5-3.7 3.2-2.3 1.4-4.5 4.1-7.1 4.9-2 .6-5.3-.5-7.5-.7 1.9 1.3 5 1.2 7.2.7 1.4-.3 2.8-1 4-1.7 1.5-.8 2.2-2.1 3.5-3 1.3-.9 2.9-1.3 3.9-2.7.8-1.1 1.4-2.4 1.6-3.7.3-2.1-.1-5.8-.8-7.8-.1 1.4 0 3.1.3 4.4M6.3 12.5c.8 0 1.6-.4 2.2-.9-.6-.2-1.1.1-1.6.6" opacity=".57"/><path fill="#FFF" stroke="#FFF" d="M11 10.7c-.5.9-1.9 2-2.9 2.4" opacity=".61"/><path fill="#A4A4A4" stroke="#A4A4A4" d="M12.1 12.8c-1.1-.1-1.6.7-2.6 1"/><path fill="#FFF" stroke="#FFF" d="M15.8 10.9c-.4.9-1.3 1.3-1.1 2.4 1-.2 1.2-1.3 1.1-2.2m2.9-.7c0 1.3.4 2.7.3 4 .2-1.3.2-2.5-.2-3.8" opacity=".61"/><path fill="#A4A4A4" stroke="#A4A4A4" d="M16.4 10.2c.3 1.3.3 2.9.3 4.2.9-1.3.8-3.2-.5-4.2m-1.7-2.7c1.1 1.1-.1 4.2-1.4 4.8 1.6-.3 1.2-2.8 1.2-4"/><path fill="#131313" stroke="#131313" d="M21.3 13.6c-.1-.3-.3-.4-.3-.1 0 .9.4 2 .2 2.9-.1.5-.7.6-.8 1.1-.1.6.1 1.2 0 1.8-.2 1.6-.8 1.8-1.9 2.9-.9.9-1.4 2.2-2.4 3 .9-.5 1.2-1.8 1.9-2.6.8-.9 1.7-1.6 2.4-2.6 1.2-1.7 1.7-4.2.6-6.1" opacity=".57"/><path fill="#FFF" stroke="#FFF" d="M2.6 27.5c0-.8.5-1.8 1.3-1.3-.7.4-1.4 1-2.1 1.4" opacity=".61"/><path fill="#A4A4A4" stroke="#A4A4A4" d="M19 24.9c-1.2 2-3.4 2-5 3.2-1.4 1.1-3.1 3.3-5.1 3.3.4-.6 1.7-1.1 2.4-1.6.9-.6 1.9-1.5 2.9-2 1.1-.5 1.7-.5 2.8-1.3.7-.5 1.6-1.6 2.5-1.4"/><path fill="#131313" stroke="#131313" d="M18.9 6c.3 1.3 1.8 1.3 1.9 2.6-.9-.2-2.4-1.3-2.1-2.4"/><path fill="#FFF" stroke="#FFF" d="M17.3 1.7c0 .9.5 1.3 1.1 1.8.2.2.8 0 1.1.2.3.3.3.7.5 1.1.9 1.2 2.4 2.6 3 3.9-1.3 0-2.7-2.1-3.4-3.2-.7-1.1-2.7-2.6-2.7-3.9" opacity=".61"/><path fill="#131313" stroke="#131313" d="M5.1 2c.8.6 2.1 1.5 2.5 2.5.6 1.4-.8 2.1-.1 3.3 1.2-.6 1.8-2.3 1.3-3.5-.7-2-2.7-1.3-3.5-2.5 1.9-.4 3.7.6 4.1 2.5.3 1.3-1.8 4.6-3.1 4.1-.3-1.2.9-2 .6-3.2-.1-.5-1.1-.8-1.4-1.3-.3-.4-.4-1.2-.5-1.7.3-.1.6-.1.9 0" opacity=".57"/><path fill="#131313" stroke="#131313" d="M11.4 7.5C11 9 10.8 9.4 9.3 9.7c-1.1.2-2.2.3-2.5-1 .7 0 1.8.9 2.4.8 1.2-.3 1.2-1.9 2.1-2.6" opacity=".57"/><path fill="#131313" stroke="#131313" d="M6.6-.7C7.5.6 7.7 1 9 2c1.5 1.2 1.4 2.3 2.1 3.8.5-3.6-3.2-3.6-3.8-6.4"/><path fill="#A4A4A4" stroke="#A4A4A4" d="M2.6 15.6c-.3 0-.4-.1-.3-.3 1.1-.8 4.3-1.1 4.3.7.4 0 .8.3 1 .4-.7 1.3-3.5.1-4.8.2-2.3.2-3.1 2.1-4.9 3.1 1.2-1.2 2.5-2.4 3.8-3 1.9-1 3.1.1 5-.2-.8-1.2-3.1-2.4-4.5-.8m1.3 13.4c.6-1.7 3.3-2.9 4.6-3.9-1-.9-4.7 2-4.6 3.1"/><path fill="#FFF" stroke="#FFF" d="M11.4 20.7c.6-.9 1.7-.9 2.5-1.6-.9-.5-1.6.4-2.3.9" opacity=".61"/><path fill="#A4A4A4" stroke="#A4A4A4" d="M14.7 24.6c0 .3-.1.3-.3.1-.4-1-.2-2.2.1-3.2-.5.7-.4 2-.1 2.9m-2.8 3.8c-.4.2-1 .2-1.4.5-.3-.5 0-.4.2-.8M9 30.3c-.5.1-1 .1-1.4.2.5-.7.7-.4 1.1-.2M-5.5 33c.6-1.1 1.1-2.6 2.6-2.3-1.5-.7-2.4 1-2.8 2.1m-3.5-1.7c0-.8.2-1.8 1-2 .2.9-.9 1.1-1 2 .1.3.3.3.5 0m26.1-1.5c-1.6.5-3.3 1.4-4.9 1.6.2-1.8 4.4-.3 4.9-2.1"/><path fill="#FFF" stroke="#FFF" d="M.9 11.5c1.5 0 3.1-.8 4.5-.4-.4-.1-.8-.3-1.4-.3-.1-.2-.1-.3 0-.5-1 0-2.5-.3-3.2.7" opacity=".61"/><path fill="#A4A4A4" stroke="#A4A4A4" d="M.5.9C-1 2.2 1.6 2.7 2.2 3.2c.6.4.8.9 1.2 1.2.5.4.2 1 1.2.7C5 3.3 2.8 1 .9 1.1"/><path fill="#FFF" stroke="#FFF" d="M7.6 22c-.1 1.5-2.5 2.2-3.8 2.3 1-.9 2.6-1.2 3.1-2.5.3.7.6.6 1.1.2" opacity=".61"/><path fill="#A4A4A4" stroke="#A4A4A4" d="M15.2 14.1c-.5.8-2.8 2-3.8 2-.3.3-.4.5-.7.8l.3.3c-.7.3-.6 1-1.2 1.3-.8.5-1.4.6-2.3 1.4.8-.3 1.9-.9 2.6-1 .8-.1 2.2.5 2.7-.2-.5-.4-1.2-.4-1.9-.4.8-.1 2.5-.5 2.8-1.3-.6-.5-1.3-.3-2 0 .8-.2 1.6-.4 2.2-1.1-.2-.1-.5-.2-.7-.3 2.4-.2 1.7-2.1.7-1.2"/><path fill="#FFF" stroke="#FFF" d="M15.5 24.3c-.5.6.9-.9 1-1.1.4-.7.8-1.8.8-2.5.3 1.7-2.1 2.4-1.8 3.6m4-8.6c-.2 2 .7 3.8-1.3 5.1.9-1.2 1.1-3.1 1.4-4.5" opacity=".61"/><path fill="#131313" stroke="#131313" d="M20 22c-.5 1.1-1.1 2.3-1.7 3.3.8-1.4 1.7-2.8 1.5-4.5"/><path fill="#A4A4A4" stroke="#A4A4A4" d="M6.6 27.8c-.6.4-1.2 1-1.3 1.8-.1-.8 0-2 1-2.1M-5 32.2c.4.9 1.6 1 2.3.9 1.4-.3 1.2-1 2.4-1.9.3.6-.1 1.2-.2 1.9 1.3.2.6-1.4 1.7-1.2-.1.3-.1 1.2-.1 1.4 1-.7 2-1.2 2.6.1.2-.2.3-.3.3-.5.8 1.1 3 .7 4.2.6 0-.3.3-.9.3-1.1 0 .3.3.5.4.8 2.2-.5 3.6-1.7 5.9-1.6-2.5 2.5-8.5 2.5-11.9 2.2-3.4-.3-9.8.7-12.1-2.6M-2 11.4c-.6 0-1.1 0-1.3.6.7-.2 1.3-.5 1.9-.9"/><path fill="#FFF" stroke="#FFF" d="M1.6 23.8c-.4.2-.9.3-1.2.7.2-.4.7-.7 1.2-.9" opacity=".61"/><path fill="#A4A4A4" stroke="#A4A4A4" d="M5.3 17.5c-1.3 1-2.5 2.1-4 3-.3-1.9 2.3-1.8 3.2-3M-11.8 3.4c1 .4 1.9.4 2.8.6 1.5.4 1.5.8 2.5 2.1 1.5 2 3.9 2.9 5.4 4.5.5-1.2 1.8-1.9 2.3-3.2.7-1.8-.3-1.9-1.6-3-1.9-1.6-4.3-5.5-6.7-6-.4.7-.1 1.4-.3 2-.7 1.5-.6.8-1.8.9-1.3.2-3.5.5-3.5 2.4.9-.7 2-1.1 3.1-1.1"/><path fill="#131313" stroke="#131313" d="M12.2 1.8c1.4.2 1.5-.5 2.5-1 .8-.4 1.8-.4 2.7-.7-.4.9-1.4.8-1.8 1.8.2.1.4.3.8.3-.3.5-.9.6-1.5.4.7.2 1.1.7.8 1.4-.2-.1-.7 0-.9-.1.1.4.1 1 .3 1.4-1.2 1.2-2.5.6-2.2-.9.1-.7 1.4-3 2.1-3.4" opacity=".57"/><path fill="#FFF" stroke="#FFF" d="M2.5 13.5c.9-1.2 4.9-.6 5.8.5.8-.4 1-1.6 1-2.4-.9-.4-3.5-1.8-3.6.2-1.1-.1-2.1.1-3.2.1.8.6 1.7.4 2.6.5-.8 1-2.1-.4-2.7.8" opacity=".61"/><path fill="#A4A4A4" stroke="#A4A4A4" d="M3.4 25.4c1.5.1 1.8-.4 3-1.2.6-.4 1.4-.7 1.9-1.1.5-.5.5-1.1 1.1-1.5.1 1.8-3.9 4.1-5.6 4.4-.2-.3-.3-.6-.2-1m-10.1-3.5c.8-.4 1-1.3 1.4-2.1.7.8-.3 1.4-1.1 1.8m4.3-4.8C-3.6 15-5.8 18.8-6.5 20c-.5-1.6 2.2-3.9 3.6-4m-1.8 8c.3.9 1 3.2.3 4.1-.9 1.2-3.4.3-4.4-.2.9.1 3 .9 3.7.2.5-.5.2-3.2.2-3.9.2-.1.3 0 .5.1"/><path fill="#131313" stroke="#131313" d="M-1.3 29.6c2.9 1.6 6.5 2.5 9.7 2.3-3.1 1-7.2 0-9.9-1.6"/><path fill="#131313" stroke="#131313" d="M14.9 25c-.6 1.7-2.3 2.2-3.6 3.1-1.4 1-2.4 2.6-4.1 3 .6-.5 1.3-1 2-1.5.6-.5 1.9-1 2.4-1.5.3-.3.3-1 .5-1.1.2-.2.7-.5.9-.7.4-.4 1.3-1 1.9-1.5m2-8.6c.1 1.6-1.6 2.1-2.9 2 1-.5 1.9-1.6 2.1-2.7-.8 0-2.1-.2-2.1.8.3 0 .9.3 1.2.3.5 2-3.5.5-1.8 3.2-.6.4-1.3.7-1.9 1.1.6-.3 1.2-.6 1.9-.5.3.8.1 1.7.3 2.6" opacity=".57"/><path fill="#131313" stroke="#131313" d="M19.2 15.2c-.2 1.2-1.2 2.2-1 3.4-.7-1.8.8-1.8 1.2-3.1"/><g fill="#131313" stroke="#131313" opacity=".51"><path d="M-16.2 14.8c0 1.3 2 .7 2.5 2.2.4 1.3-.4 2.6.7 3.8.5.6 1.4.8 1.8 1.5.3.7-.4 1.3-.1 2 .7 1.7 2.1 1.6 1.4 3.8-3.2-1.8-3.8-5.5-5.1-8.5-.5-1.2-2.3-2.5-1.9-4.1.2-.7 1.2-1.3 1.7-1.8.6-.5.6-1.8 1.7-.7-.7 1.1-1.9 1.5-1.7 3 0 .2 1 .8 1.1 1.2.2.5.2 1.4.2 2M-.6-25.1c.9.2 5.2 2.4 8.5 5.2 3.2 2.7 15 10.8 15.3 12.3.4 1.4.5 6.1 0 6.7-.5.5 3.8 9.7 3.8 11.6 0 1.8-2.2 12.8-3.2 13.7-1.1.9-6.9 5.8-6.9 5.8 1.1-1 8.2-7.3 7.7-9.9-.5-2.6-.1-6-.6-8.5s-1.4-5.1-2.3-7.2C20.8 2.5 20 .1 20 .1s0-3.6.2-5.1c.3-1.5-6.9-8.7-9.4-10.7s-6.3-5.2-6.3-5.2l-5.1-4.2z"/><path d="M-12.8 12.7c0-1.4-.7-6.8 1.6-6.3-1.4-.3-1.6-1.8-2.3-2.8-.4.6-.7 1.2-.8 2 3.5.8-.4 7.4.3 9.2.7-.4 1.3-1.1 1.8-1.8m7.5-22.1c2.3.7 4.6 2.1 6 4.2.9 1.3 2.9 4.8 2.9 6.4 0-.8-.3-1.9.3-2.5.8-.8 1.9 0 2.7-.5-.7-1.4-1.5-2.8-2.3-4.1-.7-1.1-1.4-3-2.4-3.8-.2.1-.3.2-.3.4-1-.6-2.6 0-3.8-.2 0 .2-.3.8-.3.9-.5-.6-1.1-.7-1.6-.2.5.2 1.4.1 2 .5m-4-7.4h.7c-2.7 0-6.1.7-8.9 1.8-3.7 1.4-5.7 3-4.3 7.3.2-.8.1-1.7.2-2.6.3-1.7 0-1.3 1.5-1.4 1.7-.1 4 .5 5.3-.9-.3-.7-.2-1.5.1-2.2.2-.2.2-.2.2.2m-7.4 14.7c.3 2-3.5.2-4.2 1.4 1.1.2 2.7.2 3.8-.1 1.4-.5 2.2-1.8 2.8.4.7-2.4-2.1-1.4-1.9-3.8-.4 1.2-.7 1.8-2.1 2.1M6.4 19.9c-1.7 0-1.7 2.2-2.2 3.3 0-.9-.2-2.1.2-3 .4-1.2 1.9-1.2 2.2-2.4.4.9-.4.6-.4 1.2-.1.7.4 1.2.1 1.9"/><path d="M-12.8 8.3c.3-.1.6-.3 1-.3-.4.3-.9.5-1.4.6M-1.1 25c-.2.7-.5 1.4-1.2 1.6-.1-.7.6-1.2.8-1.9m-15.1-9.2c-.4-1.4.2-3.1-.3-4.5s-2.4-2.7-3.3-3.9c-.6-.8-2.5-3.4-2.1-4.5.5-1.4 3-1.2 4.2-2.1-1.1.1-3.5 1-4.1 2.3-.8 1.9 1.3 3.2 2.4 4.6.9 1.2 2.4 2.6 2.9 4.1.5 1.6-.5 3.3.1 4.9m8.4-12.8c.8-.6.2-3.8.1-4.9C-5.8.6-3.6 2.8-1 4.7c1.1.8 2.8 1.7 1 2.8-.1.1-1.4 0-1.8.1-.7.2-1.5.7-2 1.2-.7-.7-1.1-1.8-1.7-2.7-.7-1.1-2-1.6-2.4-2.7"/></g><path fill="#FFF" stroke="#FFF" d="M12.2-15.1c1.6.6 1.9 2.5 2.6 3.8 1.1 2.1 2.7 2.2 4.3 3.9 1.7 1.9 1.1 3 .3 5-1.1 2.9-1 2.3-3.6 2.1C14-.4 12.3.9 11 .8c-3.1-.2-1.1-3.1-.7-4.5.5-1.8.1-3.6-.5-5.1-.9-2.1-1-3-1.3-5.4-1.3-.5-2.8-.2-4.2-.3 1-2.2 3.5-1.2 5.2-1 1.7.2 1.4-.1 3.1.8 1 .5 1.9 1.1 3.1 1.5" opacity=".24"/></symbol><use width="79" height="77.9" x="-39.5" y="-35" overflow="visible" transform="matrix(.8575 0 0 -.8575 35.043 38.144)" xlink:href="#a"/></g></switch></svg>
