<svg xmlns="http://www.w3.org/2000/svg" viewBox="0 0 74.7 38.2"><ellipse cx="36.6" cy="14.5" fill="#22235D" stroke="#22235D" rx="12.4" ry="13.7" transform="rotate(-89.783 36.638 14.51)"/><ellipse cx="36.6" cy="14.5" fill="#FFF" stroke="#FFF" stroke-width=".25" rx="8.9" ry="9.8" transform="rotate(-89.748 36.638 14.51)"/><path fill="#F1EFF1" stroke="#AFAEAE" stroke-width=".25" d="M26.3 13.8h4.5s.9 2.9.9 3.6.1 2.5-.5 3.4c-.6.9-1.1 1.7-1.5 1.8-.4.1-.4.1-.5.2-.1.1-.7.2-1.3 0-.6-.2-1.9-1-2.2-2.5-.3-1.4-.3-2.6-.2-3.6.3-.9.8-2.9.8-2.9z"/><path fill="#F1EFF1" d="M28.3 29l.1-5.6s0-.1.2-.1.3.2.3.2v5.6s0 .1-.2.1c-.4 0-.4-.2-.4-.2z"/><path stroke="#000" d="M28.4 23.5c-.1 0 0 0-.1-.1s-.1-.2-.2-.3c0-.1-.1-.1-.1-.1s.5-.1.7 0c.3 0 .6-.1.6 0s-.2.2-.2.3v.3s-.4-.3-.5-.3l-.2.2z" opacity=".08"/><path fill="#F1EFF1" stroke="#BEB9BE" stroke-width=".25" d="M25.8 30.6s.3-.1.7-.2c.3-.1 1.1-.4 1.2-.5l.4-.4c.1-.1.1-.2.1-.2h.8s0 .1.2.2c.1.1.5.5.7.5.2.1.9.3 1.2.4.2 0 .4 0 .3.1 0 .2-5.6.1-5.6.1z"/><path fill="#CCC" d="M25.8 30.7s0 .1.1.1 2 .1 2.6.1 2.5 0 2.7-.1c.2-.1.2-.2.2-.2H26c-.1 0-.1 0-.2.1 0-.1 0 0 0 0zm2.2-1h1.2c.1 0 0-.1 0-.1-.1 0-.1-.2-.1-.2s-.6.1-.7.1c-.1 0-.2.1-.2.2-.2-.1-.2 0-.2 0zm-.3.4s.4-.4.9-.4.7.1.7.2.1.2.1.2-.5.1-.9.1h-.7l-.1-.1zm1.1-6.6v5.6l.1-.1.1-5.6-.2.1zm-.5 5.5l.2.1v-5.8l-.1.1-.1 5.6zm-.1-15c-.1 0-1.7.5-1.9 1.1-.2.6-.7 2.9-.5 3.6.2.7.8 3.3 2 3.4 1.2.1 1.9.1 2.3-.3.4-.5 1.2-2.6 1.3-3.1.1-.5-.2-2.6-.4-3.3-.2-.7-.6-1.2-.6-1.4 0-.1-.1-.1 0-.1h.5s.5 1.7.6 2.3c.1.6.3 1.8.3 2.5s-.3 2-.6 2.4c-.3.5-.9 1.3-1.1 1.4-.2.2-.3.2-.5.2s-.6.3-.7.3h-.8l-.7-.4s-1.3-.8-1.5-1.8c-.2-1-.5-2.8-.3-3.7.2-.9.8-3.3.8-3.3h2l-.2.2z"/><path fill="#CCC" d="M28.3 29.1l-.1.3h.6l.2-.1s-.1-.1-.1-.2V29s-.2.1-.3.1h-.3z"/><path fill="#FFF" d="M29.3 14.7s.8.5.8 2.5-.8 3.8-.8 3.8 1.7-.5 1.4-3.7c-.3-3.3-1.4-2.6-1.4-2.6zm-3.1 3.8c-.4.8.2 1.7 1 2-.6-.8-1.2-1.5-.7-2.5-.3.4-.6.8-.5 1.3"/><g stroke-width=".25"><ellipse cx="56.9" cy="30.2" fill="#F8F7D4" stroke="#E8E5B3" rx="15.6" ry="5.9"/><ellipse cx="56.9" cy="30.2" fill="#F6F3B5" stroke="#E5E098" rx="11.1" ry="4.2"/><ellipse cx="56.9" cy="29.4" fill="#F8F7D4" stroke="#E8E5B3" rx="15.6" ry="5.9"/><ellipse cx="56.9" cy="29.4" fill="#F6F3B5" stroke="#E5E098" rx="11.1" ry="4.2"/><ellipse cx="56.9" cy="28" fill="#F8F7D4" stroke="#E8E5B3" rx="15.6" ry="5.9"/><ellipse cx="56.9" cy="28" fill="#F6F3B5" stroke="#E5E098" rx="11.1" ry="4.2"/></g><path fill="#6D6D6D" stroke="#6D6D6D" d="M22.4 29.8s.2-.3.3-.6c.1-.3.9-16.6.9-16.6s-3.6.4-4.2.3c-.6 0-2.8-.3-2.8-.3s-.2 15.6 0 16.4 1.4 1.3 3 1.3c1.6-.1 2.8-.5 2.8-.5z" opacity=".06"/><ellipse cx="19.9" cy="12.6" fill="#6D6D6D" stroke="#6D6D6D" opacity=".06" rx="3.5" ry=".3"/><path fill="#BCB792" d="M18.6 14.2s.1 5.3 0 6.4 0 4.1 0 4.1l.3 2.1" opacity=".26"/><path fill="none" stroke="#000" d="M18.4 29.5c.8.4 4.3.1 3.9-1.3" opacity=".08"/><path stroke="#000" d="M21.7 13.1s1 .6.9 1.4c-.1.7-.5 4.7-.4 5.8.1.9.2 4.2 0 5-.2.8-.4 1.4-1 1.4-.6-.1-1.7.2-2 0-.3-.2-.8 0-.8 0 .7.6.5.8 1.3.7.7 0 1.5.1 2-.2.5-.3.6-.4.7-1 .1-.4.3-.8.3-1.3" opacity=".08"/><path fill="none" d="M22.8 14.2s-2.4 1.2-3.4 1c-1-.2-2.9-.6-2.9-.6s1.2-.8 2.5-.9c1.2 0 2.6-.2 2.8 0 .2.2.8.3.8.3l.2.2z"/><path fill="#F1EFF1" stroke="#AFAEAE" stroke-width=".25" d="M22.5 29.9s.2-.3.3-.6c.1-.3.8-16.7.8-16.7s-3.3.4-3.9.4c-.6 0-3.3-.2-3.3-.2s.2 15.6.4 16.4 1.4 1.3 3 1.3c1.5 0 2.7-.6 2.7-.6z"/><path fill="#F1EFF1" stroke="#AFAEAE" stroke-width=".25" d="M23.6 12.6c0 .2-1.3.3-3.5.3-1.9.1-3.5-.1-3.5-.3 0-.2 1.6-.3 3.5-.3s3.5.1 3.5.3z"/><path fill="#CCC" d="M18.8 16.1s.1 5.3 0 6.4c-.1 1 0 4.1 0 4.1l.3 2.1m2.4-14.2s.1 5.3 0 6.4c-.1 1 0 4.1 0 4.1l.3 2.1m-3 1.7c.5.1 1.3.2 1.8.1"/><ellipse cx="32.8" cy="32.9" fill="#FFF" stroke="#DDD" stroke-width=".25" rx="6.1" ry="2.7"/><ellipse cx="32.6" cy="32.8" fill="#F9F9F7" stroke="#DDD" stroke-width=".25" rx="5.3" ry="2"/><ellipse cx="32.6" cy="32.9" fill="#E5E5E4" stroke="#DDD" stroke-width=".25" rx="4" ry="1.3"/><circle cx="31" cy="29.7" r=".2" fill="#75766E" stroke="#DDD" stroke-width=".25"/><circle cx="35.4" cy="30.1" r=".2" fill="#75766E" stroke="#DDD" stroke-width=".25"/><g stroke="#DDD" stroke-width=".25"><path fill="#FFF" d="M37.2 28.2s-.6 1.3-1.2 2c-.6.6-1.2 1.1-1.4 1.2-.2 0-.2.1-.2.3v.3c0 .1.3 0 .3.3.1.3.2.6-.3.9s-.9.5-1.7.5c-.9 0-1.8-.4-2-.7-.2-.2-.3-.4-.3-.6 0-.1 0-.3.2-.4h.4v-.4s.2.1-.5-.4-1.5-1.5-1.7-1.9c-.2-.4-.4-1-.4-1s1.8 1.3 4.5 1 3.6-.6 3.8-.7l.5-.4z"/><ellipse cx="32.8" cy="26.9" fill="#FFF" rx="5.5" ry="2.4"/><ellipse cx="32.8" cy="26.8" fill="#F4F4F2" rx="4.7" ry="1.8"/><ellipse cx="32.8" cy="27.6" fill="#DDD" rx="3.7" ry=".7"/><path fill="#FFF" d="M31 31.6v.4s-.4 0-.4.2c-.1.3-.1.5.2.7.3.2.9.7 2.5.7 1 0 1.7-.7 1.7-.8.1-.1.1-.5 0-.6-.1-.2-.3-.3-.3-.3v-.2l.1-.3s-1.2.4-1.7.3c-.7.1-2.1-.1-2.1-.1z"/><path fill="none" d="M31 31.6s1.3.3 1.9.3c.5 0 1.7-.3 1.7-.3" opacity=".16"/><path fill="none" d="M31 31.8s1.3.3 1.9.3c.5 0 1.7-.3 1.7-.3" opacity=".16"/><path fill="none" d="M31 32s1.3.3 1.9.3c.5 0 1.7-.3 1.7-.3" opacity=".16"/><path fill="#A8A8A8" d="M30.9 31.6v.4s-.4 0-.4.2c-.1.3-.1.5.2.7.3.2.9.7 2.5.7 1 0 1.7-.7 1.7-.8.1-.1.1-.5 0-.6-.1-.2-.3-.3-.3-.3v-.2l.1-.3s-1.2.4-1.7.3c-.7.1-2.1-.1-2.1-.1z" opacity=".03"/><path fill="#FFF" d="M38.2 26.9s1-.6.7.6c-.3 1.1-2 1.2-2 1.2l-.3.6s3.6-.4 3.5-2-.4-1.4-.8-1.4-1.3.5-1.3.5l.2.5z"/><path fill="#A8A8A8" d="M38.2 26.8s.7-.2.8-.1c0 .2.1.6 0 .8 0 .1-.2.3-.3.4l-.5.5c-.3.2-1.3.4-1.3.4l.1-.1s.3-.1.5-.1c.1 0 .4-.1.8-.4.4-.3.7-.5.7-.8s0-.6-.1-.7c-.1-.1-.7.1-.7.1z" opacity=".05"/></g><circle cx="31.4" cy="31" r=".1" fill="#0F20EF"/><circle cx="35.8" cy="29.3" r=".1" fill="#0F20EF"/><circle cx="34.1" cy="31.4" r=".1" fill="#0F20EF"/><circle cx="31.6" cy="29.7" r=".1" fill="#0F20EF"/><g fill="#0F20EF"><circle cx="27.1" cy="32.6" r=".1"/><circle cx="27.7" cy="33.7" r=".1"/><circle cx="28.8" cy="34.4" r=".1"/><circle cx="30.5" cy="34.8" r=".1"/><circle cx="32.7" cy="35.2" r=".1"/><circle cx="36.5" cy="34.2" r=".1"/><circle cx="35.2" cy="35" r=".1"/><circle cx="37.7" cy="33.7" r=".1"/><circle cx="38.3" cy="32.1" r=".1"/><circle cx="27.8" cy="31.6" r=".1"/><circle cx="36.3" cy="30.9" r=".1"/><circle cx="37.5" cy="31.3" r=".1"/><circle cx="29" cy="30.9" r=".1"/></g><circle cx="30" cy="30" r=".1" fill="#0F20EF"/><circle cx="33.1" cy="30.2" r=".1" fill="#0F20EF"/><circle cx="34.8" cy="30.1" r=".1" fill="#0F20EF"/><circle cx="28.9" cy="28.9" r=".1" fill="#0F20EF"/><circle cx="36.7" cy="28.8" r=".1" fill="#868281" stroke="#DDD" stroke-width=".25"/><path fill="#9FF25F" stroke="#9FF25F" stroke-width=".25" d="M1.5 25.1s2.3 5.3 8.2 5.8c8.2.6 10.7-5.6 10.7-5.8 0-.1-18.9 0-18.9 0z"/><ellipse cx="11" cy="25.2" fill="#B9FC7E" stroke="#B9FC7E" stroke-width=".25" rx="9.4" ry="1.6"/><ellipse cx="11" cy="25" fill="#95E053" stroke="#95E053" stroke-width=".25" rx="9.4" ry="1.4"/><path fill="#B9FC7E" stroke="#B9FC7E" stroke-width=".25" d="M15.9 28.5c.2-.2.7-.2.9-.4.2-.2.2-.4.2-.7.8.6-.5 1.3-1.4 1.3.1-.2.5-.3.6-.5"/><path fill="#FFF" d="M16.7 28c.4-.1.5-.5.8-.7.2.2-.4.7-.8.7" opacity=".16"/></svg>
