<svg xmlns="http://www.w3.org/2000/svg" viewBox="0 0 220 129"><path fill="#F9F5D6" d="M.3 0H220v128.4H.3V0z"/><path fill="#00A19B" d="M.3 94.4H220v5.6H.3v-5.6zm0 11.1H220v22.9H.3v-22.9z"/><linearGradient id="a" x1="5890.388" x2="5896.74" y1="-2506.405" y2="-2506.405" gradientTransform="matrix(-.9676 .2528 .2528 .9675 6439.063 976.687)" gradientUnits="userSpaceOnUse"><stop offset="0" stop-color="#746046"/><stop offset="1" stop-color="#a0542b"/></linearGradient><path fill="url(#a)" d="M105.6 44.8c.5-1.3 1.4-9.1-4.9-6.4-3.5 1.5.6 8.9 5.3 5.9"/><path fill="#FFF" stroke="#D7D4D4" stroke-width=".331" d="M171.5 54.7c-2-1.1-4.2-2.6-6.4-3.4-2.2-.8-4.2-1-6.4-1.9-3.3-1.4-9.3-1.5-12.8-.4-7.2 2.1-14.1 5.4-21.7 6.5-6.3.9-13.1 0-15.9 6-.9 1.9-.4 4-1.2 5.7-.3.7-1.2 1.3-1.7 2-.7 1 0 2.3-2.2 2.2 0 1.6 1.4 3.5 1.5 5.2.2 2-.3 3.6-1.9 5-1.8 1.6-3.9 2.1-6.3 2.6-2.1.4-6.1.4-4.2 3 2.4 3.2 9 2.8 12.7 2.6 5.9-.3 8.6-2.5 12.8-5.6.2-.1.8 4.9.7 5.4-.3 2.1-.9 4.1-1.3 6.2-.8 4.2-1.6 8.4-2.5 12.6-.2 1-.5 2.1-.8 3.2h24.4c.3-1.4.6-2.8 1.1-4 .8 1.3.8 2.7.6 4h29c-.2-1.4-.4-2.7-.6-3.6-.5-3-2.2-5.6-2.9-8.5-.3-1.4-.2-2.8-.6-4.1-.4-1.9-1.7-3.1-2.9-4.8-2.1-2.8-1.8-5.3-2.3-8.4-.2-1.5-1.2-2.8-1.4-4.3-.2-1.3.5-2.6.2-3.9-.2-.8-1.1-1.8-1.5-2.6-.8-1.8-2-4.7-.8-6.5 2.4.4 5.6 3.2 7.4 4.5-.7.4-1.4.9-2.1 1.4 5.2.5 7.2 5.1 8 8.6 1.2 5.3 8.3-2.6 10.6-4.5 1.8-1.6 3.4-2.7 3.3-4.9-.1-1.7-1.2-3.8-2-5.4-1.7-3.6-5.9-7.6-9.9-9.9z"/><path fill="#9DD0F0" stroke="#446C80" stroke-width=".25" d="M119.3 55.7c.7-1.6 7.3-3 9.3-3.6 3.1-.9 7.3-1.8 10.5-1 8.3 2.1 7.4 11.8 5 16.8-1.3 2.7-.4 6.2-3.7 8-3.8 2-7.5-.6-10.1-2.6-3-2.2-4.5-5.5-7-8.2-2.2-2.3-6.8-6-4.3-9.2"/><linearGradient id="b" x1="121.535" x2="135.897" y1="77.14" y2="77.14" gradientTransform="matrix(1 0 0 -1 0 129)" gradientUnits="userSpaceOnUse"><stop offset="0" stop-color="#746046"/><stop offset="1" stop-color="#a0542b"/></linearGradient><path fill="url(#b)" d="M133.6 46.9c1.2.6 2.5 3.7 2.3 4.9-.3 1.7-2.7 4.1-4.6 4.7-1.8.5-4.7.4-6.4-.2-3-1-2.7-2.8-3.3-5 1.9-.1 3.6-.3 5.4-.8 2.4-.7 4.2-2.3 6.7-3"/><path fill="#FFF" stroke="#D7D4D4" stroke-width=".331" d="M106.7 67.2c-1.8.3-2.9 2.3-2.1 3.6-.5 0-1.1.3-1.5.3.2 2.1.7 3.6.2 5.8-.3 1.5.1 4.1-.6 5.4-1.8 3.3-11.1 0-11.6 3.3-.5 3.2 9.7 4.4 12.2 4.5s4.4.4 6.6-.6c2.4-1.1 4.1-3.5 6.4-4.3"/><path fill="#C9C9C8" stroke="#AAA" d="M133.4 82.7h1v11.6h-1V82.7z"/><path fill="#FFF" stroke="#D7D4D4" stroke-width=".331" d="M122.8 54.5c-3.2 5.5 2.7 7.2 5.5 11.3 1.3 1.9 2.3 4.3 4.4 5.7 2.4 1.6 5.3 2.3 5.9 5.2-1.8.5-4.6-.7-6.3-1.2-2.6-.7-4.7-2-6.9-3.2-1.6-.9-5.9-1.8-6.9-3.3-.9-1.5 1.7-3.9 2.2-5.7-1.3-.6-3.2-.6-4.7-.8-2.8-.4-2.6-.3-1.5-2.3 1.6-2.7 4.6-5.8 8-6.9.2.6.2 1.3-.1 1.9"/><path fill="#FFF" stroke="#D7D4D4" stroke-width=".331" d="M135.2 48.6c4.1 0 8.3.5 11.9 2.3 3.1 1.5 1.6 2.6-.5 4.5-2.5 2.3-1.3 2.3 1.5 3.9 1.9 1.1 5.2 1.6 5.3 4 .1 1.7-2.4 3.8-3.6 5.1-2.7 3.1-6.9 7.2-11.5 8.2 0-2 2.1-4.3 2.2-6.5.2-2.4.1-4.9.4-7.3.7-5.8-.1-9.5-5.3-13.8"/><path fill="#9DD0F0" stroke="#9DD0F0" stroke-width=".25" d="M127.6 57.1c.1 2.3-.4 3.9-3.1 5-2.3-2.2-3.6-4.2-3-7.2 1.9-.1 3.8 1.6 5.9 2m7.1-2.4c2.6 1.1 4.1 3.3 7.1 4.1.6-2.4-2.1-7.7-5-8.6-1 1-1.3 2.8-1.9 4.1M93.4 84.6c-.3-.7-.6-1.4-1-2.1 1.7-1.6 5.3-1.7 7.4-3.1 2.8-1.8 3.6-3.6 4-6.4 2.1 2 1.9 6.8-.2 8.7-2.2 2.1-7.3 2.7-10.5 2.7"/><linearGradient id="c" x1="87.405" x2="100.936" y1="57.331" y2="57.331" gradientTransform="matrix(1 0 0 -1 0 129)" gradientUnits="userSpaceOnUse"><stop offset="0" stop-color="#746046"/><stop offset="1" stop-color="#a0542b"/></linearGradient><path fill="url(#c)" d="M88.3 77.9c-2.7-5.4.8-13.9 7.7-11.4.6-.8.3-1.8 1.7-1.9 1.6-.1 1.3 1.4 1.4 2.6.1 2.6 2.4 3.9 1.5 6.4-.8 2.2-3.3 3.7-5.5 4.6-2.5 1.1-4.3.2-6.7 0"/><path fill="#FFF" stroke="#D7D4D4" stroke-width=".331" d="M105.8 67.8c1.6-.7 3-1 4.8-.9m-7.1 4.2c2.3-.2 5.5 1.6 6.2 3.4m55.3-7c2.1 0 5.4-.7 6.7 1.3m-.2-4.2c-2.2-.2-4.1.4-4.6 2.3"/><path fill="none" stroke="#D7D4D4" stroke-width=".331" d="M139.5 108.1c3-3.3 1.5-10.8.9-14.8-.8-5.6-2-10.7-2-16.5"/><linearGradient id="d" x1="119.052" x2="167.822" y1="133.21" y2="133.21" gradientTransform="matrix(-.947 .273 -.2587 -.9625 294.67 124.466)" gradientUnits="userSpaceOnUse"><stop offset="0" stop-color="#746046"/><stop offset="1" stop-color="#a0542b"/></linearGradient><path fill="url(#d)" d="M98.3 22.7s.3 9.8 1.2 12.6c.5 1.6 3.8 3.8 4.7 6.1.7 1.8-1 3.6-.7 5.2.2 1.1 4.2 6.5 4.2 6.5s10.1 4.2 14.4 3.5c4.4-.6 6.5-2.3 8.7-2.8 3.2-.8 1.9-2.9 8.9-6.5 2.4-1.2 5.4-3.8 5.9-3.8s5.9-1.5 5.1-3.1c-.8-1.6-2.2-3.7-3.6-3.4-1.4.3-16-9-22-10.3-6-1.3-13.5-7.8-17.6-7-4.2.8-9.2 3-9.2 3z"/><path fill="#050506" d="M108.3 38.3c.1.7.8 1.3 1.4 1.2s1-.7.9-1.4-.8-1.3-1.4-1.2c-.6 0-1 .7-.9 1.4zm13.9-.8c.1.7.8 1.3 1.4 1.2s1-.7.9-1.4-.8-1.3-1.4-1.2c-.6 0-1 .7-.9 1.4z"/><path fill="none" stroke="#050506" stroke-width=".25" d="M113.1 44.3c0-.4.4-1.6.5-2.3.3-.7 1.3-.6 2.4-.5 1.1.1 2.2 2.5 2.2 2.5"/><path fill="#FFF" d="M112.7 50.3s-.9.4 4.2-.3c5.1-.6 3.4-.5 3.4-.5l-3.1 1.8-4.5-1z"/><linearGradient id="e" x1="760.589" x2="766.146" y1="326.671" y2="326.671" gradientTransform="scale(1 -1) rotate(20.12 1486.436 -1595.559)" gradientUnits="userSpaceOnUse"><stop offset="0" stop-color="#746046"/><stop offset=".973" stop-color="#a0542b"/><stop offset="1"/></linearGradient><path fill="url(#e)" d="M143.8 37.3c.7-3.2 11.9 4.4.9 5.7"/><path fill="none" stroke="#000" stroke-width=".25" d="M110.8 34.6c-1.5-1.6-3.5-1.3-5.7-.1m20.9-.3c-1.5-1.6-3.5-1.3-5.7-.1"/><ellipse cx="144.6" cy="41" stroke="#040405" stroke-width=".25" rx="2.4" ry="2"/><path fill="#C8CAC8" stroke="#979897" stroke-width=".25" d="M144.6 41c.8 9.4-3.7 21-17 21.9-12.5.9-25-10.9-25.6-20.7 5.2 8.4 12.1 20.5 25.6 19.3 7-.7 11-3.6 13.3-9 1.1-2.5 2.7-9.1 3.7-11.1"/><path fill="#303538" d="M93.4 69.2c-4.5 0-8.2 2.3-8.2 5.1s3.7 5.1 8.2 5.1 8.2-2.3 8.2-5.1-3.7-5.1-8.2-5.1zm-.1 9.2c-4.1 0-7.4-2-7.4-4.4s3.3-4.4 7.4-4.4 7.4 2 7.4 4.4-3.3 4.4-7.4 4.4z"/><path fill="#D3D3D3" d="M100.7 74c0 2.4-3.3 4.4-7.3 4.4s-7.3-1.9-7.3-4.4c0-2.4 3.3-4.4 7.3-4.4 4 .1 7.3 2 7.3 4.4z"/><path fill="#F4F5F5" d="M92.9 74.3v.7l-2.6 2.7s-.9-1.1-1.4-1.1c-.4 0-1.2-.1-1.2-.1l2-2.7s1.2.6 1.6.6c.4-.1 1.6-.1 1.6-.1z"/><path fill="#303538" d="M96.9 73.7v.8s-1.4 1-2.2 1.1c-.8.1-2.6 0-2.5 0l.7-1.4s1.3.3 2.1 0l1.6-.6.3.1zm-7.4 3.2l1.5-1.4s.4-.4.4-.6.5-.5.5-.5l-.7-.2-.2.2s-.4.2-.6.5c-.1.4-.4 1.1-.4 1.1l-.5.9c-.1-.1 0 0 0 0z" opacity=".11"/><path fill="#303538" d="M88.4 76.6c.7-.7 1.8-1.2 2.2-2.1-.1 0-.2-.1-.2-.1.5-.3.5.1.3.4-.1.3-.4.5-.6.8-.2.2-.4.6-.6.8-.4.4-.3.1-.9.1" opacity=".06"/><path fill="#303538" d="M90 77.3c0-.2.4-.5.5-.7l.7-.7c.2-.2.3-.6.6-.8.2-.2.6-.3.5-.6-.4 0-.2.5-.7.4 0 1-1.6 1.3-2 2.1l.2.2.2.1zm4.4-2.7c0 .5-.3 2.8.6 2.6.6-.1.7-1 .6-1.4 0-.4-.3-.5-.4-.8-.1-.2 0-.5.1-.8-.3.1-.6.2-.9.4" opacity=".11"/><path fill="#303538" d="M91.7 77.9c-.3.6.1.6.7.5.5-.1 1.2 0 1.7-.1.7-.2.5-.7.4-1.1s0-.8 0-1.2c0-.3.1-1-.1-1.2-.2-.3-1-.3-1.3-.2-.3.1-.6.7-.5 1s.5.3.4.7c-.2.5-1 1-1.3 1.6z" opacity=".06"/><path fill="#303538" d="M93.3 66.7c-3.4 0-6.2 1.7-6.2 3.9 0 2.1 2.8 3.9 6.2 3.9 3.4 0 6.2-1.7 6.2-3.9-.1-2.1-2.8-3.9-6.2-3.9zm.1 7.3c-3 0-5.5-1.6-5.5-3.5s2.4-3.5 5.5-3.5c3 0 5.5 1.6 5.5 3.5 0 2-2.4 3.5-5.5 3.5z"/><path fill="#040405" stroke="#040405" stroke-width=".25" d="M93.4 67.1c-3 0-5.5 1.6-5.5 3.5s2.5 3.5 5.5 3.5 5.5-1.6 5.5-3.5c-.1-1.9-2.5-3.5-5.5-3.5zm-.2 6c-2.5 0-4.6-1.2-4.6-2.7s2.1-2.7 4.6-2.7 4.6 1.2 4.6 2.7-2 2.7-4.6 2.7z"/><ellipse cx="93.3" cy="70.4" fill="#D3D3D3" rx="4.6" ry="2.7"/><path fill="#040405" stroke="#040405" stroke-width=".25" d="M93.9 71.3c0 .1-.3.2-.7.2-.4 0-.6-.1-.6-.2s.3-.2.6-.2c.4 0 .7.1.7.2z"/><path fill="#303538" d="M94.9 68.1c-.4.2-.2.5-.4.8-.1.2-.4.2-.5.4-.1.2 0 .3-.1.4-.1.4-.1.4-.7.4-.3 0-.7-.2-1-.1-.2-.1-.1-.3-.2-.5-.1-.3-.3-.5-.4-.7-.1-.1-.1-.4-.1-.6 0-.4-.1-.3.4-.4.7-.1 2.6-.3 2.8.4" opacity=".11"/><path fill="#303538" d="M97.5 69.4c-.6 0-.9.1-1.4.4s-.9.3-1.1.9c-.3.8-.8 1.6-2 1.6-.4 0-.9-.3-1.3-.4-.2-.1-.5-.3-.7-.4-.1-.1-.2-.1-.3-.2-.1-.1.1-.2.1-.4-.2-.3-1-.2-1.3-.3-.3 0-.4-.2-.6-.1s-.1.5-.1.7c.2.9 1.7 1.3 2.6 1.7 1.1.4 1.8.1 2.9 0s2.1-.5 2.8-1.2c.3-.4 1.5-2.3.4-2.3m-.5 5c.7.4.9.8 1 1.5.1.6.2 1.3-.5 1.7-.5.3-1.5.5-2.1.5-.2 0-.9 0-1-.1-.2-.2.4-.6.4-.9.3.3.8.1 1-.2.2-.3.1-.6 0-.9-.1-.4-.1-.6.3-.9.1-.1.3-.2.5-.3.2-.2.2-.3.6-.4" opacity=".06"/><path fill="#FFF" stroke="#FFF" stroke-width=".25" d="M95.4 68c-.2.5-.1 1.1-.5 1.5-.4.5-1.2.9-1.9.9-.6 0-1.5-.4-1.3.5.2.6.6 1 1.4 1.1s1.4-.2 1.7-.9c.1-.3.1-.5.4-.8.3-.2.7-.2 1-.4.3-.1.8-.4 1-.6.3-.3.2-.4-.2-.7-.3-.3-1.3-.8-1.8-.6" opacity=".51"/><path fill="#303538" d="M87.5 76.6c.1-.1 1.2-.1 1.7.2s1 1 1 1l-.1.2s-1.3-.5-1.6-.6c-.2-.2-.8-.5-.9-.5.1-.1-.1-.3-.1-.3z"/><linearGradient id="f" x1="87.401" x2="92.484" y1="63.71" y2="63.71" gradientTransform="matrix(1 0 0 -1 0 129)" gradientUnits="userSpaceOnUse"><stop offset="0" stop-color="#746046"/><stop offset="1" stop-color="#a0542b"/></linearGradient><path fill="url(#f)" stroke="#4D3412" stroke-width=".25" d="M89.1 62.5c-3.3-.1-1.1 5 1.1 5.5 4 1 2.1-4.3-.3-5.2"/><linearGradient id="g" x1="83.93" x2="90.117" y1="61.895" y2="61.895" gradientTransform="matrix(1 0 0 -1 0 129)" gradientUnits="userSpaceOnUse"><stop offset="0" stop-color="#746046"/><stop offset="1" stop-color="#a0542b"/></linearGradient><path fill="url(#g)" stroke="#4D3412" stroke-width=".25" d="M87.7 65.1c-1.1-1.1-3.2-.9-3.7.5-.4 1.2.4 2.7 1.5 3.5s3.1 1.3 4.1.1c1.4-1.6-1.2-2.7-2.1-3.8"/><linearGradient id="h" x1="83.245" x2="88.394" y1="57.853" y2="57.853" gradientTransform="matrix(1 0 0 -1 0 129)" gradientUnits="userSpaceOnUse"><stop offset="0" stop-color="#746046"/><stop offset="1" stop-color="#a0542b"/></linearGradient><path fill="url(#h)" stroke="#4D3412" stroke-width=".25" d="M86 69.1c-3.5-2.6-3.4 2.7-1.3 4.1 3.3 2.4 5.4-2.9 1.9-4"/><linearGradient id="i" x1="83.67" x2="90.124" y1="53.981" y2="53.981" gradientTransform="matrix(1 0 0 -1 0 129)" gradientUnits="userSpaceOnUse"><stop offset="0" stop-color="#746046"/><stop offset="1" stop-color="#a0542b"/></linearGradient><path fill="url(#i)" stroke="#4D3412" stroke-width=".25" d="M88.2 73.5c1.2.5 2.7 2.3 1.5 3.2-.6.5-3.6.1-4.3-.1-1-.3-2.1-2.2-1.5-3.1.7-1.1 2.7.2 4 .1"/><path stroke="#000" d="M113.9 58.9l1-1s10.8 3.8 15.4 3c4.5-.8 9.4-6.5 10-7.4s2.5 0 2.5 0-5.4 8.1-12 9.2c-7.3 1.1-16.9-3.8-16.9-3.8z"/><path stroke="#000" d="M131.4 62.6s2.1 6.6.2 10c-2 3.4-6.8 4.8-12.5 5.8-7.1 1.3-19.1-1.6-19.1-1.6l-2.4 1.7s4 2.1 9.2 2.4 9.4.8 14.5-.4c6.6-1.5 8.9-1.5 11.4-4.4 2.9-3.3 2.7-3.6 2.4-7.5-.2-3.9-1.1-7.1-1.1-7.1l-2.6 1.1z"/><ellipse cx="144.7" cy="41.2" fill="#D3D3D3" rx=".9" ry=".8"/><linearGradient id="j" x1="4915.481" x2="4935.276" y1="49.515" y2="49.515" gradientTransform="matrix(-1.27 0 0 -1 6416.736 129)" gradientUnits="userSpaceOnUse"><stop offset="0" stop-color="#746046"/><stop offset="1" stop-color="#a0542b"/></linearGradient><path fill="url(#j)" stroke="#4D3412" stroke-width=".25" d="M161.6 73.2c-2.9 3.1-8.8 2.2-11.5 5.6-.4.6-.8 2.3-1.2 2.6-.7.5-2.3.2-3.2.7-3.2 2 .9 2.2 2.8 2.4.2 1.3 1.9 1.3 3.3 1 .8 1.5 3.5-1.1 5.3-1.2 3-.6 1.5 1.9 4.1 0 1.8-1.3 8.8-4.8 8.5-7.1-.3-2.2-4.6-3.1-6.8-4.2"/><path fill="#9DD0F0" stroke="#9DD0F0" stroke-width=".25" d="M163.9 70.1c-1.6-1.1-2.9.3-3.5 1.5-.7 1.7.2 2.2 1.3 3.4 2.3 2.5 2.2 4.8 3.3 7.7 1.6.3 3.1-.6 4.1-1.6 1.5-1.4 1.3-1.7.4-3.4-1.1-2.3-3-6.2-6-7.3"/><path fill="#9DD0F0" stroke="#9DD0F0" stroke-width=".25" d="M163.2 70.1c-1.2.2-3.3 2-3.5 3.1-.2 1.6 2.3 1.2 3.2 2.4 1.9 2.3 1.3 4.8 1.9 7.3 1.3.3 3.3-.8 4.1-1.7 1.1-1.3 1.7-2.6 1-4.2-1.3-2.7-3.6-4.5-5.6-6.9"/><path fill="#020202" stroke="#020202" stroke-width=".25" d="M136.9 63.3c-.5.5-.7 1-1.4 1.4.9 0 1.1-.4 1.7-.9m-7.4 1.5c1-.1 2-.1 3 0-1.1.9-2.3 1-3-.2" opacity=".33"/><path fill="#B0B7A9" stroke="#767772" stroke-width=".25" d="M27.3 9.5c0 .7.7 1.2 1.6 1.2h28.6c.9 0 1.6-.5 1.6-1.2s-.7-1.2-1.6-1.2H29c-.9 0-1.7.5-1.7 1.2z"/><path fill="#B0B7A9" stroke="#767772" stroke-width=".25" d="M27.3 96c0 1.1 1.2 2 2.7 2s2.7-.9 2.7-2V10.3c0-1.1-1.2-2-2.7-2s-2.7.9-2.7 2V96z"/><path fill="#FFF" stroke="#949494" stroke-width=".25" d="M56.2 9.5c6.6-1 12.8 6.3 12.8 6.3H45.4s8.1-5.9 10.8-6.3zm4.2 30.8l8.6-5.4V15.8H45.4v16.8l9.7 7.7h5.3z"/><path fill="#FFF" stroke="#A4A5A4" stroke-width=".25" d="M64.3 106.8s-.6-25.3 0-26.9 2.2-8.5 1.1-9.5-6.4-18-6.4-18v-8.5h-2.8s5.3 20.9 6.1 24.2 1.7 6.8 1.1 8.5c-.6 1.7-.8 30.3-.8 30.3h1.7v-.1z"/><path fill="#C9DBAE" stroke="#A4B786" stroke-width=".25" d="M59.2 2.5V6h-4.1V2.5S54 .7 57.2.8c2.7 0 2 1.7 2 1.7z"/><path fill="#E3E4E2" d="M65.5 18.2H47l4 13.6 5.2 6.1h3.6l5.7-3.5V18.2z"/><path fill="#A4A5A4" d="M65.5 18.2s.6 9.8-3.4 12.7-10.3 2.6-10.3 2.6l4 5.9H59l7.2-5.9-.7-15.3z"/><path fill="#C9DBAE" stroke="#A4B786" stroke-width=".25" d="M55.1 40.3h5.4v3.5h-5.4v-3.5zM54.5 6h5.4v3.5h-5.4V6z"/><path fill="#C9C9C8" stroke="#AAA" d="M60.8 103.1v5.5c0 2.4 3.1 4.4 6.8 4.4h103.1c3.8 0 6.8-2 6.8-4.4v-5.5c0-2.4-3.1-4.4-6.8-4.4H67.6c-3.8 0-6.8 2-6.8 4.4zm1.2.4c0-2 3-3.6 6.6-3.6h99.9c3.7 0 6.6 1.6 6.6 3.6v4.5c0 2-3 3.6-6.6 3.6H68.6c-3.7 0-6.6-1.6-6.6-3.6v-4.5z"/><path fill="#C9AE90" d="M25.7 100.5s-.2-1.4-4-1.5-8.1 7.3-15.7 8.4c-1.8.3-3.9.2-6 0V129h30.2l-4.5-28.5z"/><path fill="#AC9077" d="M21 99.1c0-.1-.1-.2-.1-.3-4.3-.7-6.3 2.9-9.1 4.8-3 2-6.2 3.1-10 3.8 2.2 1.5 7.7-1.1 9.4-2.2 1.8-1.1 3.4-2.1 5-3.3 1.3-1.1 2.6-2.4 4.5-2.9"/><path fill="#FFF" stroke="#EFEFEF" d="M219.6 120.1l-103.5.4S63.5 110 57.6 108.7c-11.3-2.5-22.9-6.2-25.3-5.4l-26.8 9.1 44.8 13.8 13 2.8h156.4l-.1-8.9z"/><path fill="#FFF" stroke="#EFEFEF" d="M219.6 120.7c-42.3 0-92.1 0-96.2-.2-7.1-.4-91.2-17.2-91.2-17.2l-26.8 9.1c-5.3 1.8 0 10.5 0 10.5s9.8 2.5 23.1 6h191.1v-8.2z"/><path fill="#C9C9C8" stroke="#AAA" d="M199.1 102s-.8-6.8-10.8-6.1c-9.9.6-9.3 5.4-9.5 6.9-.2 1.6-1.3 16.7-1.3 16.7s-.8 3.3-4.9 3.5c-4 .2-100.5-.9-100.5-.9l1.7 1.7 9.7 1.1 87.5.1s3.2 0 6.5-2c3.4-2 3.6-19 4.2-21.6.6-2.5 3.4-3.5 6.1-3.3 2.7.2 7.6 2.2 8 4.3.4 1.8 1.9 21.7 2.2 26.7h2.5l-1.4-27.1z"/><path fill="#C9C9C8" stroke="#AAA" d="M175.2 118.7c-6.2-.2-12.2 2.1-13.5 6-.3.8-.5 2.3-.7 4.3h3.1c0-1.6-.1-2.5-.1-2.5s5-6.2 9.9-5.8c5 .4 9.1 5.3 9.1 5.3v3.1h3.9v-2.5c.2-.1-5.5-7.7-11.7-7.9zM6.7 127.8s-2.1-4.9-6.7-7.5v2.6c2.5.8 3.7 2.3 3.8 4 0 .4.1 1.2.1 2.1h2.8c.1-.7 0-1.2 0-1.2z"/><linearGradient id="k" x1="1408.509" x2="1466.576" y1="323.738" y2="323.738" gradientTransform="matrix(.6777 -.467 -.5675 -.8234 -737.5 1039.565)" gradientUnits="userSpaceOnUse"><stop offset="0" stop-color="#ffedc4"/><stop offset=".318" stop-color="#ffe6b6"/><stop offset=".914" stop-color="#ffd592"/><stop offset="1" stop-color="#ffd28c"/></linearGradient><path fill="url(#k)" d="M56.9 78.4s10.2 5.6 12.2 7.8 4.8 6.7 8.2 9.2c1 .7 5.8 7.4 5.4 8.5-1 2.5-.5.2-4 3.6-3.3 3.4-7.9 3.7-10.5 5-3.8 2-25.9 3.9-26.9 3.5-3.8-1.6-3.8-1.6-4.4-2-3.8-2.2-3.3-2.5-4.2-4-.9-1.5-2.7.4-2.7.4 1.7-.9-1.5-5.3 2.9-10.6 4.4-5.2 7.2-13.7 12-16.3 4.9-2.6 12-5.1 12-5.1z"/><path fill="#030305" d="M70.9 91.9c.6.5.7 1.3.1 1.6-.6.4-1.6.3-2.2-.2s-.7-1.3-.1-1.7c.6-.3 1.6-.2 2.2.3z"/><path fill="#F7F6F5" d="M49.7 77s-10.5.7-13.7 2.3c-3.2 1.6-7.1 6.8-7.1 6.9-.1.2.5-.2.7-.3.2-.2 4.5-4.9 5.1-5.5.7-.6 1.2-.9 1.4-1s1.1-.1 1.8-.1 2 .1 2.5.1c.6.1 1.6.2 2 .2s.9 0 2.1-.5c1.2-.4 5.2-2.1 5.2-2.1z" opacity=".14"/><linearGradient id="l" x1="-197.576" x2="-195.265" y1="237.386" y2="237.386" gradientTransform="matrix(.81 -.5585 -.5676 -.8233 370.547 180.043)" gradientUnits="userSpaceOnUse"><stop offset="0" stop-color="#746046"/><stop offset=".973" stop-color="#9f552b"/></linearGradient><path fill="url(#l)" d="M74.4 93c3-.7 4.2 1.5 3.9 3.1"/><linearGradient id="m" x1="681.289" x2="685.838" y1="237.708" y2="237.708" gradientTransform="rotate(145.417 401.914 71.773)" gradientUnits="userSpaceOnUse"><stop offset="0" stop-color="#ffedc4"/><stop offset=".318" stop-color="#ffe6b6"/><stop offset=".914" stop-color="#ffd592"/><stop offset="1" stop-color="#ffd28c"/></linearGradient><path fill="url(#m)" d="M74.7 93.2c1.5-1.7 4.2 1.4 3.7 2.5-.3.6-1.5 1.3-2.4 1.4-.5.1-1.2.2-1.6-.1-.4-.3-.4-1.1.1-1.3"/><path fill="#E6EDF7" d="M80.1 110.6c5 1.5 7.7 3.8 7.4 8.1-13.2 1.7-24 8.4-39.1 3.5 1.5-8.3 7.6-5.3 13.8-8.3 5.9-2.8 10.3-2 16.3-6.6"/><path fill="#6EC9D0" d="M219.6 129v-9.1c-3.3.1-6.6.2-9.8.3-24 .8-48.3-.5-72.1.3-5.3.2-11.6.9-16.9.3-8.1-1-9.9-6.2-17-1.2-3.5 2.5-5.2 6-7.1 9.4h122.9z"/><path fill="#6EC9D0" d="M219.6 113.9c-8.7-1.6-17.7-3.5-25.2-4.5-13.9-1.9-36.7-.1-50.9.5-12.9.5-26.4 4.2-39.2 3.6l-.8-1.2c-.3 5.5-10.3 11-14.8 16.8h38.8c14.6-1.2 35.4-3.6 45.9-2.4 4.5.5 8.7 1.4 12.8 2.4h33.3v-15.2h.1z"/><g fill="#FFF" stroke="#EFEFEF"><path d="M88 113.3c-1.3 9.4-8.8 5.1-12.3 11.9-.6 1.2-1.1 2.5-1.5 3.8h26.3c2.5-4.1 7.7-14.7 13-15.6-2.6-4.9-17.2-7.7-25.5-.1z"/><path d="M86.5 114.8c.4-.5.9-1 1.4-1.5.1-.6.1-1.1.2-1.8l-1.6 3.3z"/></g><linearGradient id="n" x1="117.311" x2="137.635" y1="4.932" y2="4.932" gradientTransform="matrix(1 0 0 -1 0 129)" gradientUnits="userSpaceOnUse"><stop offset="0" stop-color="#ffedc4"/><stop offset=".318" stop-color="#ffe6b6"/><stop offset=".914" stop-color="#ffd592"/><stop offset="1" stop-color="#ffd28c"/></linearGradient><path fill="url(#n)" d="M135.1 125.1c-.9.1-.5 1.9-1.9 2.6-1.3.7-3-1.2-3-1.2l.8-.5s2.6-1.1 4.8-3.4-2.6-1.7-3.6-2.8c-1-1.1-1.4 1.5-2.2 2.9s-3.2 1-6.4.2-4.3 3-4.3 3l-1.8 1.5s-.2.6-.3 1.2h20.3c0-.5-.1-1-.2-1.5.1-1.1-1.3-2.2-2.2-2z"/><linearGradient id="o" x1="53.32" x2="121.52" y1="6.7" y2="6.7" gradientTransform="matrix(1 0 0 -1 0 129)" gradientUnits="userSpaceOnUse"><stop offset="0" stop-color="#ffedc4"/><stop offset=".318" stop-color="#ffe6b6"/><stop offset=".914" stop-color="#ffd592"/><stop offset="1" stop-color="#ffd28c"/></linearGradient><path fill="url(#o)" d="M119.6 127.6c-3.1-1.2-4.3-.6-8.7-.7-4.4-.1-18.9-2.6-19.7-3.2s-10.2-3.1-15.5-4.5c-5.4-1.4-19.5-3.1-19.5-3.1s-2.2 2.2-2.8 3.4c0 0 1.1 2.9 3.8 3 2.8.1 7.2 2.2 10.5 2.6s18 1.6 21.1 2.2c.9.2 2.9.6 5.5 1.2h27.3c-.5-.3-1.1-.6-2-.9z"/><path fill="#070707" d="M114 115.8c6-1.3 13.5-1.9 19.7-1.1 5.4.7 16 1.4 20.3 3.2-6.3.7-12.6-1.3-18.7-2.1-7.1-.9-12.9.9-19.7.6" opacity=".05"/><path fill="#C9C9C8" stroke="#AAA" d="M150.1 123.1H16.9c-4.9 0-8.8 2.4-8.8 5.3v.6h1.6v-.1c0-2.4 3.8-4.3 8.5-4.3h129.1c4.7 0 8.5 1.9 8.5 4.3v.1h3v-.6c.1-3-3.8-5.3-8.7-5.3z"/><path fill="#C9C9C8" stroke="#AAA" d="M131.6 124.6h1.4v4.4h-1.4v-4.4zm43.6-5.8c-6.2-.2-12.2 2.1-13.5 6-.3.8-.5 2.3-.7 4.2h3.1c0-1.5-.1-2.5-.1-2.5s5-6.2 9.9-5.8c5 .4 9.1 5.3 9.1 5.3v3h3.9v-2.5c.2 0-5.5-7.5-11.7-7.7zM6.7 127.9S4.6 123 0 120.4v2.6c2.5.8 3.7 2.3 3.8 4 0 .4.1 1.1.1 2.1h2.8v-1.2z"/><g stroke-width=".25"><path fill="#99999A" stroke="#777778" d="M119.3 88s15.5 17.2 18.5 17.7 15.2-1 15.2-1 21.9-2.3 23.3-2.8c1.5-.5 1.9-2.8 1.9-2.8s-24-19.5-27-19.8c-3-.2-32.2 2.9-32.9 4.6-.7 1.7 0 3.3 0 3.3l1 .8z"/><path fill="#B5B5B6" stroke="#777778" d="M119.7 86.2s16.3 16.7 19.7 17.6 34.7-4 35.7-4c1.1 0 3.2-.6 3.1-1.3-.1-.7-25.9-18.3-25.9-18.3s-31.7 2.1-32.6 4c-.9 1.8 0 2 0 2z"/><path fill="#F8EEDC" stroke="#F8EEDC" d="M124 86.3c-.8.9 4.6 3.6 7.3 5.7 2.7 2 5.9 2.9 6.1 3.9.1 1 0 2.7 0 2.7h2.3c.9 0 28.2-3.2 28.5-4s-15.1-10.7-17.3-11.4c-2.2-.7-26.1 2.2-26.9 3.1z"/><path fill="#777778" stroke="#777778" d="M158.4 97.9c-3.4 0-6.1 1.8-6.1 4s2.7 4 6.1 4c3.4 0 6.1-1.8 6.1-4 0-2.3-2.8-4-6.1-4zm0 5.9c-1.8 0-3.3-1-3.3-2.1 0-1.2 1.5-2.1 3.3-2.1s3.3 1 3.3 2.1c-.1 1.2-1.5 2.1-3.3 2.1z"/><path fill="#777778" stroke="#777778" d="M141.3 101.8l-1.6-3.3 35.7-5s1.5-.5 1.6.9c.1 1.3 0 3 0 3s-11.9 1.8-12.5 2.3-11.2 0-11.4.2c-.2.1-11.8 1.9-11.8 1.9z"/><path fill="none" stroke="#3B2812" d="M128.3 87c-.7.7 3.8 3 6 4.7s5 5.4 5 5.4h1.9c.8 0 23.3-2.6 23.5-3.3.2-.7-12.5-8.9-14.3-9.4-1.7-.5-21.5 1.9-22.1 2.6zm18.2-2.4l13.9 10.1m-19.7-9.6l12.9 10.5m-19.5-9.7l13.1 10.5m-17.9-8l22.9-3.2m-20.9 4.4l22.9-3.1m-21.3 4.3l22.9-3.2m-21 4.5l23.1-3.3m-21.6 4.5l23.6-3.3m-22.2 5l24.3-3.5"/><path fill="none" stroke="#3B2812" d="M162.1 92.3c.1.1.1.3 0 .5-.2-.1-.3-.2-.4-.3v.4c-.3-.3-.7-.3-.7.2-.3-.2-.6 0-.9.1m-2.1 1c-.2-.1-.4-.1-.6-.1h-.5c-.2.1-.1.3-.3.4-.4.2-1.2 0-1.7.1m-1.6-.5c.3 0 .4-.2.7-.2.3-.1.6 0 .9 0 .5 0 1.2-.2 1.6-.5m-5.4 1.6c-1.2.2-2.4.4-3.5.7m3.1-1.8c-.5-.1-1.3.3-1.8.4-.6.2-1.2.4-1.8.4m-6.7 2c0-.1.1-.2.2-.4.3.5.7 0 1.1-.2 0 .1.2.2.2.2.1-.1.3-.1.4-.2l.1.1c.3 0 .5-.2.8-.2.2 0 .6 0 .8.1m-.6-1.3c.6-.6.8.1.7.6-.4-.1-.9-.3-1.4-.3-.4 0-.3.1-.6.3-.2.1-.4 0-.6.2-.2-.4-.6-.7-.9-.2m16.4-4.1c.3-.3.8-.3 1.3-.4.4 0 1-.4 1.3-.3m-7.9 1.8c.9-.7 2.2-.5 3.3-.8m-9.9 1.6c.5-.1.9-.5 1.5-.5.5 0 .9.1 1.5-.1m-5.7-2.1c.2-.4.9-.3 1.3-.3.5 0 1.1-.2 1.6-.3m1.6-1.6c.6-.1 1.6-.1 2.1-.4m-15.6-1.4c0-.1.1-.1 0 0 .1 1.6-1.2.3-.6-.2.1.3.1.6.2.9.1 0 .1-.1.1-.1 0 .2-.1.3-.2.5-.5-.1-.9-.3-1.4-.2 0-.1-.1-.2 0-.3v.6c.2-.1.2-.3.2-.4v.4c.2-.2.2-1-.3-.9s-.9 1-.9 1.3c-.1-.3-.4-.5-.6-.7"/></g><path fill="#65441A" d="M68.9 88.9c-2-2.2-4.5 2.1-5.8 2.8.4.1.9.2 1.4.1"/><path fill="#65441A" d="M53.3 100c2.1-1.2 5.4 3.8 6.8 5-1.2.7-4.8 3.2-5.9 3-2.6-.4-2.7-4.4-6.2-4.8 1.5.9.8 4 1.2 5.5.6 2.2 10.2 5 6.3 6.8-6.6 3 7.4-.8-2.6 1.4-3.6.8-14.9-1.2-17.8-2.9-2.9-1.7-10.5-7.6-10.2-10.7.5-4.2 1.2-3.8 3.3-7.7C30.8 90.4 34.7 86 40 82c4.1-3.2 11.5-2.9 17.2-3.3 3.6-.3 5.4 1.4 6.7 3.7 1.5 2.7-.6 4.4-3.5 6.1-3 1.8-5.2 2.1-6.6 5.1-1.2 2.5-2.1 4.2 0 6.4"/><path fill="#020202" d="M59.4 104.1c4.8.7 6.7 2.7 11.4-.3 3.5-2.3 2.8-7.4 8.3-7.4 1.7 2.3 3.7 5.2 4.1 6.3.7 2.2-4.5 3.7-8.1 6.3-4.1 3-14.7 5.2-20.4 4.2-.5-.7-.7-1.7-.5-2.5 1.6.1 2.8-.3 3.1-1.4-1.7-.3-1.8-1-2.8-1.7" opacity=".07"/><linearGradient id="p" x1="47.987" x2="56.778" y1="20.527" y2="20.527" gradientTransform="matrix(1 0 0 -1 0 129)" gradientUnits="userSpaceOnUse"><stop offset="0" stop-color="#ffedc4"/><stop offset=".318" stop-color="#ffe6b6"/><stop offset=".914" stop-color="#ffd592"/><stop offset="1" stop-color="#ffd28c"/></linearGradient><path fill="url(#p)" stroke="#C0872C" stroke-width=".25" d="M51.7 106.7c-1-3.3-5.9.5-2.5 3.3.8.7 4.3 1.7 5.5 1.5 1.6-.3 3.5-2.1.6-2.4-.4.2-.6.5-.6.9"/><path fill="none" stroke="#050506" stroke-miterlimit="10" stroke-width=".25" d="M123.6 36.8c.6.2 1.4-.1 1.7-.6"/><linearGradient id="q" x1="152.222" x2="157.059" y1="81.158" y2="81.158" gradientTransform="rotate(14.994 157.254 82.26)" gradientUnits="userSpaceOnUse"><stop offset="0" stop-color="#746046"/><stop offset="1" stop-color="#a0542b"/></linearGradient><path fill="url(#q)" stroke="#4D3412" stroke-width=".25" d="M154.3 77.3c-.9 1-1.5 2.2-1.9 3.5-.2.8-.3 1.8.5 2.2.6.3 1.3 0 1.9-.3 1.4-1 2.6-2.3 3.3-4"/><path stroke="#000" d="M151.2 42.3c1.2-4.2-1.6-8.3-4.3-11.7-2.6-3.4-5.2-6.8-8.7-9.2-3.6-2.6-7.9-4-12.1-5.1-5.4-1.4-11-2.5-16.4-1.6-5.5.9-10.8 4-13.2 9s-.7 11.9 4.2 14.4c-.3-2.1-.7-4.3-.3-6.4s1.6-4.2 3.6-5c2.4-1 5.1 0 7.2 1.4 2.2 1.4 4.2 3.1 6.6 3.8 2.7.8 5.6.1 8.3.6 4.3.8 7.8 4.5 8.9 8.7s0 8.9-2.4 12.6c4.1.1 7.9-2 11.4-4.1 3.1-1.9 6.3-4 7.2-7.4z"/><path stroke="#000" d="M103.4 44.9c1.3 2.4 2.5 4.8 3.8 7.2.6 1.2 1.3 2.6.7 3.8-.6 1.4-2.4 2.1-4 2.6-2.9.8-6 1.3-9.1 1.4.6-5.9-1-11.9-1.6-17.8s.3-12.4 4.9-16.9"/><path fill="#CCC" d="M95.4 27.8c2-.4 4-.5 6-.3-1.7 1.6-4.3 2-6.4.9" opacity=".23"/><path fill="#F09" d="M117.2 48.7c-.3.1-.5.5-.6.7-.1-.1-.5-.4-.7-.4-.4.1-3.1 1.1-3.1 1.4 0 .3 3 0 3.3-.1.3 0 .5 0 .6-.2.1.1.3 0 .6-.1.4-.1 3.5-.5 3.5-.8-.1-.3-3.2-.6-3.6-.5z"/><path fill="#F09" d="M120.6 49.2c-1.2.5-2.4 1-3.6 1.6-.1.1-.3.1-.3.3-.1.3.4.4.7.3.9-.1 1.7-.5 2.4-.9.4-.3.8-.7.7-1.1"/><path fill="#F09" d="M117.4 51.2c-1.3-.4-2.7-.7-4-.9h-.4c-.3.2.1.5.4.7.8.4 1.7.6 2.7.7.5 0 1.1-.1 1.2-.4"/><path fill="none" stroke="#050506" stroke-miterlimit="10" stroke-width=".25" d="M123 36.7c.6.2 1.4-.1 1.7-.6m-18.1 2.1c.6.2 1.4-.1 1.7-.6m-1.7.2c.6.2 1.4-.1 1.7-.6"/><path fill="#CCC" d="M125.4 29.2c1.5.1 2.9.9 4.2 1.6-1.4-1.9-4-2.4-6.4-2.4-2.4 0-4.9.1-6.9-1.1-2.4-1.4-3.8-4.6-6.5-4.9-.4-.1-1.1.3-.8.6.7-.5 1.7-.4 2.4 0 .8.4 1.3 1.1 1.9 1.7.6.6 1.1 1.3 1.7 1.9.6.7 1.2 1.4 2 1.9 1.7 1.1 4 1.1 6 .8.8 0 1.6-.2 2.4-.1zM155 80.5c-.4.7-1 1.2-1.7 1.3-.4-.8-.6-1.9.2-2.2.6-.3 1.3.3 1.7.9M91.4 65.9c.1.2.3.4.4.7 0 .1.1.1.1.2s-.1.1-.2.2c-.2.1-.5.3-.7.4-.1 0-.2.1-.3.1-.1 0-.1-.1-.1-.1-.1-.2-.3-.3-.4-.5-.1-.1-.2-.2-.2-.3 0-.3.3-.5.5-.6.4-.2.9-.3 1.1.1m-3.4 1.1c-.3.2-.5.5-.7.8-.1.1-.1.3-.1.4 0 .4.5.8.9.7.4-.1.7-.5.9-.9V68c0-.1-.1-.2-.1-.2-.2-.2-.5-.3-.8-.4m-1.6 3.4c-.1-.3-.5-.2-.7 0-.2.2-.2.5-.2.8 0 .3.1.7.5.9.2.1.5 0 .7-.2.2-.2.3-.4.5-.6.1-.1.1-.2.1-.3 0-.2-.2-.4-.4-.5-.1-.1-.4-.1-.5-.1m1.4 3.9c.5-.1 1 .2 1.2.6.2.5-.2 1.1-.7 1-.5-.3-.7-1-.5-1.6" opacity=".23"/></svg>
