<svg xmlns="http://www.w3.org/2000/svg" id="Capa_1" x="0" y="0" version="1.0" xml:space="preserve" viewBox="0 0 220 129"><style>.st0{fill:#924693}.st1{fill:#802123}.st4{fill:#ecc6b2}.st7{fill:#a6c96c}.st9{opacity:.2;fill:#769648}.st10{fill:#969668}.st18{fill:#89bb4f}.st20{fill:#f3ea4d}.st24{opacity:.4;fill:#fff}.st35{fill:#070909}.st42{fill:#d3663d}.st43{fill:#f0ca44}.st47{opacity:.1;fill:#c9c9c9}.st58{opacity:.18;fill:#c99cc2}.st59{opacity:.37;fill:#e3cbde}.st63{fill:#b77cb2}.st64{fill:#c99cc2}.st67{fill:#f2e963}.st71,.st72{fill:#b48540}.st72{opacity:8.000000e-02}.st73{fill:#c9c9c9;stroke:#969696;stroke-width:.5}.st77{fill:#fff}.st78{fill:#d58966;stroke:#ae6d51;stroke-width:.25}</style><switch><g><symbol id="Deleted_Symbol_1" viewBox="-35.7 -21.9 71.4 43.7"><path d="M-27.5 1.6c-.5 1.6-2 2.8-2.9 3.5 1.2-3.1 1.9-6.4 1.5-9C-28-2.1-27 0-27.5 1.6zm45.8 0C19.7-1.5 30.4-10.1 33-16.8c-.2 1.3-.5 2.8-.9 4.3-.7 2.5-1.6 4.9-2.5 6.5-.3.6-.6 1.3-.7 2.1C28-2.1 27 0 27.5 1.6s2 2.8 2.9 3.5c1 2.6 2.3 5.2 3.4 7.2.3.6.7 1.1 1 1.6.6 1 .9 2 .9 2.9-1-.9-2.7-1.8-5.7-2.8-5.6-2-13.7-8.2-11.7-12.4z" class="st0"/><path d="M29.1 21.8C22 20.9 8.9 10.5 7.3 8.8 6 7.4 5.9 7.4 5.9 7.5c0-.5-.5-7 1.6-11.2.2-.3.4-.7.7-1C12.8-8.5 30.6-18 30.9-20.1c.1-.9-.4-1.2-1.1-1.3l.1-.1c2.8-1.4 3.4 1.1 3 4.7-2.5 6.7-13.2 15.3-14.6 18.4C16.3 5.8 24.4 12 30 14c3 1.1 4.8 1.9 5.8 2.8-.1 3.1-3.4 5.4-6.7 5z" class="st1"/><path d="M27.5 1.6C27 0 28-2.1 28.9-3.9c-.4 2.6.3 5.8 1.5 9-1-.7-2.4-1.9-2.9-3.5z" class="st0"/><path d="M-31.2 16.4s-.5 2.2 1.7 2.5c2.2.2 17.4-8.4 17.4-8.4S-23.5 16-26 15.7c-2.5-.3-4.5-1.1-5.2.7zm43.9-6.1s12.1 9.4 18.4 9.4c.7 0 2.3-3.8-.4-2.8-3.5 1.3-18-6.6-18-6.6z" class="st4"/><path d="M5.9 5s8.2 5.9 8.7 4.9-6.2-4.5-6.2-4.5 5 .9 5.2.2c.2-.7-6.4-1.7-6.4-1.7s6.6-2.6 6.6-3.3C13.7-.2 7.5 2 7.5 2s6.8-7.8 5.9-8.2C12.5-6.5 7.3-.6 6.6.2c-.7 1-.7 4.8-.7 4.8zM-6.2 5s-8.2 5.9-8.7 4.9 6.3-4.5 6.3-4.5-5 .9-5.2.2c-.2-.7 6.4-1.7 6.4-1.7S-14 1.3-14 .6c0-.7 6.3 1.6 6.3 1.6s-6.8-7.8-5.9-8.2c.9-.3 6.1 5.6 6.8 6.4.6.8.6 4.6.6 4.6z" class="st1"/><path fill="#83368d" d="M-8.6-2.7c.1-1.5.7-2.5 1.8-2.6 4.1-.3 14.5 0 14.3 2.3v.3c-6-1-12.1-.5-16.1 0zM7.3-.3c-.3 3-.8 6.9-1.6 8-1.1 1.4-10.3 1.6-11.6.5-.7-.6-2.3-5.1-2.7-8.7 2.3-.7 7.7-1.9 15.9.2z"/><path d="M-5.7 6.4s.9 1.2 4.7 1.2c3.8 0 6.4-1.4 6.4-1.4S5 4.6 3.3 5.1c-1.7.5-3.6 1.9-5.6 1-1.9-.8-3.9-1.5-3.4.3zm-26.1-26.2s1.9 3.9 11.4 8.7c0 0-11.3-4-11.4-8.7zM17-8.4s15.5-8.2 15.2-10.9c0 0-13.1 9.5-15.2 10.9z" class="st4"/></symbol><linearGradient id="SVGID_1_" x1="110.562" x2="112.098" y1="38.231" y2="-34.362" gradientUnits="userSpaceOnUse"><stop offset="0" stop-color="#d7eaf0"/><stop offset="1" stop-color="#8fc6ed"/></linearGradient><path fill="url(#SVGID_1_)" d="M.2.6h219.5V129H.2z"/><path d="M6.2 5.7c-.6.7-2.3.8-2.8 1.4-.6.6-.5 1.6-.4 2.5.3 2.3.9 5.2 2.2 7.3 1.5 2.4-.1 5.3 2.4 7.2 1 .8 2.4 1.2 3.4 1.9.9.6 1.3 1.5 2.3 2 .6.3 1.5.6 2.2.8 1 .3 1.8.9 2.7 1.2 1.7.6 3.9.5 5-.6 1-1 .9-2.1 2.8-2.5.9-.2 2.1 0 3.1 0 .7 0 2.2-.4 2.8-.4 1.9.3 1.1 1.8 2.2 2.4.5.3 4.3.4 5.1.5 2 .1 6.7-.8 7.5-2.1.3-.5-.1-1.2.2-1.7.3-.6 1.2-1 1.8-1.6 1-.9 1.6-1.8 1.8-3-1.5.2-2.3 0-2.7-1-.2-.4.3-1.1.2-1.6-.1-.6-.7-.9-.8-1.4-.4-1.5-.1-3.2-.4-4.7-.5-2.6-1.8-4.9-4.2-6.9-3-2.5-6.2-2.3-7.8-5.4H6.4c.5 2 1.1 4.4-.2 5.7zM6.4 0h28.4" class="st7"/><path fill="#b2d18d" d="M23.5 50.2c-.8-.5-2.7.3-3.7.8-1.5.7-1.7 1-3.1-.1 0 .2-.1.5-.1.8-.6 0-1.1-.1-1.7-.4.2.3.3.6.7.9-1.5 1.3-7.4 3.5-2.5 5.4 5 1.9 5.9 1.4 10.1 1.7 3.1.2 9.9-.1 12.8-1.7 1.5-.9 1.9-1.9.4-3.1-1.2-1-3.7.1-3.2-2.5-.4.2-1 .3-1.4.6.3-.4.3-1 .5-1.4-1.8.3-2.2.4-4-.2-1.3-.5-3.1 0-4.4-.6"/><path d="M19.2 20.5c1.6-4.4-2.2-6.1-5.2-9.2-1.1-1.1-.9-3.7-2-4.4-1.9-1.3-5.4-.1-7.4.4l-.8.6c-1.3.3-2.3.5-3.2.8v15.8c1.7 1 3.8 1.6 5.9 1.7.4 2.4 1.4 2.6 4.1 3.1-.1 0 3.7-.1 3.2-.1 1.6-.3 1.9.3 2.8-.9 1.2-1.7-1.1-2.4-.5-4.1.6-1.4 2.5-2.2 3.1-3.7zm-18.6 4V8.7" class="st7"/><path d="M12.7 5.4c-1.1.8-5.1 2.8-5.6 3.8-.9 1.7 1.6 3.4 1.6 5 0 1.2-2.7 3.8-2 4.7 1.2 1.5 5.9.2 6.8-.9 1.4-1.7-.7-3.8 1.6-5.4 2.1-1.4 4.3-.1 6.2-2.1 4.4-4.6-4.5-5.1-8.2-5.1" class="st9"/><path d="M36.1 0c-.2.8-.3 1.7-.7 2.3-.7 1.3-1.6 3.1-2.5 4.2-2.2 2.7-6.3 4.5-7.2 7.7l-2.3 4.6-2.7-2.3c-.9-2.5-3.3-3.9-5.2-6.1C13.6 8 12.7 6 12 3.2c-2.2 1.2 1 6.1 2.3 7.5-3.8.4-6.7-2-10.3-2.1 0 .9 2.9 1.4 4 1.9 1.4.8 2.6 1.4 4.4 1.8 3.7.8 6.4 1.5 6.4 5.1l2.2 3.2c.7 2.5.7 5.9-.3 8.2-1.3 0-7-5-7.9-5.7-.9-.7-1.8-1.7-2.3-2.6-2.1-.4.7 2.7 1.1 3.2 1.2 1.3 7 5.6 8 6.9 1.3 1.6 1.6 3.7 1.5 5.6-.1 2 .1 2.9-.1 5.9-.2 1.8-.4 7.4-.5 10.1 0 0-.5 1.1-1.4 1.7s2.5 1.2 5.2.9c2.7-.4 5.4-.4 5.4-.4s-2.9-.9-3.2-3c-.6-5.3 0-9.6.2-14.9.1-3.4 3.2-6.7 6-8.8.9-.6 1.7-1.3 2.4-2 .5-.5 1.6-2.7.3-1.7-1.7 1.2-3.1 2.7-4.8 3.8.5-.9.5-2.2.8-3.1.2-.9 1.2-2.4 1-3.3-1.1.1-2.4 4.3-2.9 5.3-.9 1.8-2.4 3.8-3.7 5.9-.2-4.2.6-8.3.4-12.5-.2-.7 2.2-6 2.2-6 1.1-2.5 3.7-4.5 6.5-5.6 2.5-1 7.2-2.6 7.9-4.9-2.2.6-5.6 4.2-8.2 3.3 1.7-1.7 2.9-4.5 3.2-6.8h-1.7zm0 0h1.5" class="st10"/><path fill="#666638" d="M21.8 35.2c.4.4.1 1.2.1 1.7 0 .6 0 1.3.1 1.9.2-.7.5-1.2.5-2s-.3-1.6-.5-2.4c-.2.2-.2.5-.2.8m.8-2.7c.4.9-.2 2.1.4 3 .6-.8.4-3.8-.2-4.5-.1.2-.2.5-.2.7m2.4 4.6c0 1.1-.3 2.2-.1 3.3.1.8-.3 2.5.1 3.1.3-.2.4-.5.3-.9V38l-.3-1.7zm-1.2 3.1c.6 1.1-.2 3.2-.3 4.3-.1.6.1 1.5.2 2.1.2.6.2 1.4.4 2-1-.2-1.3-2.4-1.2-3.1.1-1-.1-2.6.3-3.6" opacity=".38"/><path d="M23.9 5.9c.4 1.5 1.6 2.7 2.2 4.2.8 1.8.2 3.2-.1 5l2.7-4.2c-.8-2.1-2.7-3.4-3-5.7-.2-1.3-.4-3-.3-4.4v-.9h-1.7c-.2 2.1-.1 5.1.2 6zm0-5.9h1.6m0 24.1c2.4-3.1 5-3 8.5-5 1.8-1.1 5.7-5.2 5.6-7 0 0-.7.1-.7.2.2 1.2-1.2 2-2.4 2.6-.3-.7-.6-1.4-.9-2.2-1.5.4-.2 2.2-.5 3.3-.4 1.3-1.2 1.9-2.6 2.6-2.9 1.4-6.3 1.9-8.6 4.1M16.4 0c.2 1.2-.2 2.3 0 3.6.2 1.3 1 2.6 1 4 0 1.5-.7 2.7-.5 4.2l.8.8c1.9-.6.5-6.6.3-8.4-.2-1.6.4-2.9 1.1-4.2h-2.7zm0 0h2.7m-4.4 19.8c-1.8-1.5-7.6-7.4-10.6-7.5-.3 1.5 4.2 2.3 4.4 4.2-2-.4-5.7-.7-7.9-.6 1.8.8 3.8.8 5.6 1.3 2.2.7 3.4.8 5 2 2.9 2.2 8.4 5 11.6 8l.3-2.3c-4.1-2.2-5.7-2.8-8.4-5.1zm-14.2-4c.1 0 .1 0 0 0 .1 0 .1 0 0 0z" class="st10"/><path d="M25.6 7.1l-.2-.2c1.3-.9 2.3-2.2 2.6-3.7l.4.1c-.3 1.5-1.4 2.9-2.8 3.8zm-13 1.3C9.9 8.4 7.4 5.1 6 3.3c-.1-.1-.2-.3-.3-.4l.3-.2c.1.1.2.3.4.5 1.4 1.8 3.9 5.1 6.4 4.9v.3h-.2z" class="st10"/><path d="M8.6 6.3H9C9 4.1 8.6 2.2 7.6 0h-.4c1 2.2 1.4 4.1 1.4 6.3zm22.7-4.9c0 2 .1 4.1 1.6 5.9l.3-.2c-1.4-1.7-1.4-3.7-1.5-5.7V0h-.4v1.4zm0-1.4h.4" class="st10"/><path d="M32 .5c-.2.4-.4.8-.5 1.2l.4.1c.2-.4.3-.8.5-1.2l.3-.6h-.4c-.1.2-.2.3-.3.5zm.3-.5h.4m7.6 1.5c-.1.5-.2 1.1-.5 1.6-.2.4-.6.9-1.1 1.5-.6.8-1.3 1.7-1.5 2.3l.4.1c.2-.5.8-1.4 1.4-2.2.5-.6.9-1.2 1.1-1.6.3-.6.4-1.1.5-1.7.1-.5.2-.9.4-1.4l-.2-.1h-.2l-.3 1.5zm.4-1.5h.2-.2zm-6.6 18.7h-.5v-.3c3.8.3 6.9-3.4 8.8-5.7.2-.2.3-.4.5-.5l.3.2c-.1.2-.3.3-.4.5-1.9 2.2-5 5.8-8.7 5.8z" class="st10"/><path d="M40.4 15.7l-.1-.3c1.5-.4 2.6-1.1 3.1-2l.4.1c-.7 1.1-1.8 1.8-3.4 2.2zM8.1 6c-2.2-.4-3.7-.9-5.9-2l.2-.3c2.2 1.1 3.7 1.6 5.8 2l-.1.3zm8.4-3l.3-.2c-1.2-.9-1.9-1.7-2.6-2.7h-.5c.8 1.1 1.5 2 2.8 2.9zm-2.8-3h.4m26.1 2.8l-.4-.1c.3-.6 2-2.1 3.1-2.4l.1.3c-.8.2-2.4 1.6-2.8 2.2z" class="st10"/><path d="M11.9 2.8c.6-2 .2-2.2-.9-2.8H1.4C1 .2.8.3.7.4v2.1c.5.4 1.1.8 1.2 1.6C1.8 5 1.2 5.5.6 6v2.4c1 1 3 .6 4.1.6 3.4 0 7-.1 7.2-3.5v.3c2-.8 3.1-3.1 0-3zM1.4 0h9.7M7.8 16.1c4.1-5.2-4-4.5-7.2-2.8v2.2c.1 0 .2.1.3.1-.1.1-.2.3-.3.6v1.3c2.5.5 9.3.7 8-1.6l-.8.2zm-7.2-.7v-2.2M30.5.3l-.4.7c-1.4 1.5-2.4 3.3-.8 5 1.1 1.1 4.2 1 4.8 2.3.8 2.1-2.4 2.4-2.3 4.4 0 2.1 2.6 1.8 4.1 2.8 2.9 2 .8.6.4 3.2-.4 2.2-.4 2.5 2.4 2.8 4.2.4 6.5-3.1 9.2-5.2-2.7-1.7 2.8-1.7 3-3.6.2-2 .9-3.5-.1-5.4-.7-1.5.4-.7-1.6-1.9-.8-.5 1.6-2.8.8-3.3-1.8-.9-2.6-1.1-2.9-2.1H30.3c.1.1.1.2.2.3zm-.2-.3h16.8" class="st7"/><path d="M16.3 3.4c1.7.5 3.3 1.1 5 1.5 2 .6 2.4.8 4.7.3 3.5-.7 4.7-3 1.8-5-.1-.1-.2-.2-.4-.2H12c.4 1.7 1.8 2.7 4.3 3.4zM12 0h15.4" class="st9"/><path d="M27.6 7.3c-2.1-4.6-9.1 1.7-10.5 3.8 5.9 2 14.5 5.1 17.2-1 1.1-2.6 1.2-4.3-3.1-5.6-3-.9-4.9.1-7.2 1.5m4.1 19.2c1.5-.8 2.8-.9 4.5-1.2.2 0 1.5.5 1.9.5.5 0 1.5-.9 2.5-.9 1.8 0 5.9 1.5 6.8 2.9-2.2 1.5-19.9 3.3-15.3-.9M22.7.3c1.2.1 2 0 2.7-.2h-4.1c.4 0 .8.1 1.4.2zM21.3 0h4.1" class="st7"/><path d="M32.6 24.6c-1.9.2-4.3-1.3-2.1-2.3-3.3-2.9.7-3.2 3.8-3.4 1.2-.1 2.7-.5 4.1-.4 1.6.1 1.4.6 2.2.8-.1-.1 2 .8 1.8.6.4.4 1.2.4 1.4 1 .2.8-1.3.5-1.4 1.3C42 24 44.3 24 41 25c-2.3.7-7.4 1-9.7 0" class="st7"/><path fill="#faf7cd" d="M32.9 10.7c-.6 0-.9-.9-.4-1.1.7-.3 1 .4 1 .8 0-.5 1.1-.8 1.5-.4.6.5-.6.7-1 .7.4.2.7.7.2.9-.5.2-.8-.2-.9-.5-.1.2-.2.4-.6.5-.3 0-.5-.1-.7-.3-.2-.5.6-.5.9-.6M6 4.1c-.6 0-.9-.9-.4-1.1.7-.3 1 .4 1 .8 0-.5 1.1-.8 1.5-.4.6.5-.6.7-1 .7.5.2.8.7.3.9-.6.2-.8-.2-1-.5-.1.2-.2.4-.6.5-.2 0-.5-.1-.6-.3-.3-.5.5-.4.8-.6M4.2 14.4c-.6 0-.9-.9-.4-1.1.7-.3 1 .4 1 .8 0-.5 1.1-.8 1.5-.4.6.5-.6.7-1 .7.4.2.7.7.2.9-.5.2-.8-.2-.9-.5-.1.2-.2.4-.6.5-.3 0-.5-.1-.7-.3-.2-.5.6-.4.9-.6m36.6-.7c-.6 0-.9-.9-.4-1.1.7-.3 1 .4 1 .8 0-.5 1.1-.8 1.5-.4.6.5-.6.7-1 .7.4.2.7.7.2.9-.5.2-.8-.2-.9-.5-.1.2-.2.4-.6.5-.3 0-.5-.1-.7-.3-.2-.5.7-.4.9-.6m-5.5 9.7c-.6 0-.9-.9-.4-1.1.7-.3 1 .4 1 .8 0-.5 1.1-.8 1.5-.4.6.5-.6.7-1 .7.4.2.7.7.2.9-.5.2-.8-.2-.9-.5-.1.2-.2.4-.6.5-.3 0-.5-.1-.7-.3-.2-.5.6-.4.9-.6"/><path fill="none" stroke="#769648" stroke-miterlimit="10" stroke-width=".25" d="M.4 24.5c1.8.7 6.1 1.7 6.1 1.7s.7 2 1.4 2.4c.7.3 2.6.9 3.5.8.9-.1 4.6-.3 4.6-.3l3.5 1.6M26 27l1.8.1.5.5c.5.5 5.1.5 5.1.5l.8.8 2.6.3c2.6.3 5.8-.2 7.3-.5s1.9-1.1 1.9-1.1.4-.8.5-1.2c.1-.3.3-1.3.3-1.3s1.3-.9 2.2-1.7c.8-.7 1.5-2.5 1.5-2.5h-1s-.7-.1-1.3-.4c-.7-.3-.4-1-.4-1s.3-1.4.1-1.8c-.1-.4-.8-1.2-.8-1.2l.7-.5s-.5-.6-.5-1 1.1-.9 2.3-1.4c1.2-.4 1.9-3 1.9-4.5s-.7-1.9-1.1-2.6c-.4-.7-.7-.8-1.2-1.3-.5-.4.8-3.3.8-3.3s-1.2-.7-2.2-1.1"/><path fill="none" stroke="#769648" stroke-miterlimit="10" d="M18.8 11.6c1 .1 1.5 1.1 2.6 1.4.4.1.9.1 1.2.2.6.1.9.3 1.6.3.5 0 1-.3 1.5-.2.5 0 .7.3 1.2.4 1.3.2 2.1-.2 3.1-.8m5.5 6c-1 .1-7-.3-5.8 1.3-1 .5-.4 1.8.8 1.7m4.2-8c-.1.9 1.4 2.3 2.4 2.6.4.1.8 0 1.2.1.4.1.5.5.8.6.8.3 1.6.3 2.4-.1M3 8.8c2 0 3.6.2 5-1.2"/><path d="M31.5 4c1-.4 2.4-.2 2.7.8 1.8-.2 2.6 1.2 2.6 2.4 1.5-.1 2.3.3 3.6.8.4-1 1.7-1.8 3-1.6-.2-.7.2-1.4 1.2-1.6-1.7-.3-2.9-1.4-2.8-2.8-2.3.5-3.8-.5-5-1.9-.8 1.3-3.9 1.1-5.5 1.3 0 1-1.1 1.6-1.8 2.1.8 0 1.5 0 2.2.3" class="st9"/><linearGradient id="SVGID_2_" x1="130.635" x2="89.431" y1="21.473" y2="158.549" gradientUnits="userSpaceOnUse"><stop offset="0" stop-color="#89bb4f"/><stop offset="1" stop-color="#b0cc49"/></linearGradient><path fill="url(#SVGID_2_)" d="M.5 50.5L0 129h219.8V50.5z"/><path fill="#bc9668" d="M210.3 113.2c-3.3-.9-5.9-2.9-8.9-4.2-2-.9-3.4-.8-5.5-1.5-1.7-.6-1.5-1.2-2.6-1.9-1.6-.9-2.1-1.1-4.3-1.5-1.9-.3-2.9-1.2-3.6-1.4-3.1-1-7.5-1.2-11.1-.6-4.5.8-9 1.8-13.3 2.8-2.1.5-3.8.1-6.1.6-2.2.4-2.2 1.4-3.6 2.1-7.7 3.6-19.6 1.2-28.3 2.5-4 .6-7 1.2-10.6 2.6-4.4 1.7-8.1 1.5-12.8 1.7-2.1.1-4-.1-5.6 1.1-.6.5.1 1.4-.3 1.7-.7.5-1.6.5-2.1.9-2.6 1.8-5.4 1.7-8.2 2.8l-.7 8h137.1v-14.8c-3.3 0-6.5-.1-9.5-.9z" opacity=".3"/><path d="M212.8 38.9c2.6-1.5-2.6-2.4-6.2-1.4-2.8-.9-6.9-.6-9.3.5-5.7-1.4-10.5.1-16.3-.2-4.2-.2-9.7-2.9-13.8-.9-2.5-1.1-2.1-.6-4.8 0-3.8-.7-7.9-.7-9.3.6-4.5-.5-12.9-.4-15.6.2-3.4-.2-4.8 0-7.5.3-1.3-.1-2.1-.2-3.6-.1.5.2 1 .8 1.9 1.1-2.9.7-3.8 1.5-1.2 2.4-.2 1.1-.3.8.9 1.7.1 1.4-4.9 6.5-.6 7.9 4 1.2 26.3.1 32.2.1H200c6.6 0 13.1 0 19.6.1V39c-1.4-1-4.6-1.2-6.8-.1z" class="st18"/><path fill="#f0ca44" d="M137.6 5.1c.5 0 .9.7 1.7.4.6-.2 1.1-1 1.2-1.4.4.4.1 1.3 1.4 1.1.7-.1 1.1-1.1 1.6-1.4 0 1.2 0 1.4 1.2 2.2 1.3.7 2.4.2 3.5-.5-.1.4-.4.9-.4 1.3 0 .7.2.5.7.8.7.5.2.4 1.2.4.5 0 .9-.1 1.5-.1 0 .7-1.1 1.1-.6 1.8.7 1.1 3.2.3 4.3 1.2-.7.5-2.3 1.1-2.3 2 0 .4.5.5.5.8.1.3-.2.6-.1.9.1.3.7.4.4.7-.1.1-1 .1-1.2.3-.9.7.2 1.5 1 1.7-1.3.1-1.9.5-1.6 1.4.3.8.5 1.5.3 2.4-.7-.2-1.2-.5-2.1-.6.2.9.2 1.4-.3 2.3-.6-.3-.6-.8-1.5-.8-.4 0-.3.2-.6.3-.3 0-.6-.1-.8 0-1.2.3-1.3 1.4-1.4 2.2-.3-.7-1.1-1.9-2.3-1-.7-.7-1.2-.1-1.8.1-.7.2-1.4.2-2.2.1-.1-1.4-2.8-.3-3.6-.1.1-.3.4-.9.2-1.3-.3-.6-1-.5-1.8-.7.2-1.8-3.2-2.3-5.2-2.2.6-.3 1.4-.8 1.8-1.3.5-.7.1-.9-.4-1.5 1.1-1.1-.4-2-1.1-3 1.9-.1 2.3.1 1.5-1.2-.5-.9-1.4-1.6-1.9-2.4 1.7-.2 2.9.5 1.9-1.3.7.2 1.8.4 1.7-.4 1.4-.3 1.4-.9 1.6-1.8 2 1.2 2.8-.1 2.5-1.5.1.1 1.8 1.6 1.5.1" opacity=".25"/><ellipse cx="141.3" cy="14.3" class="st20" rx="9.9" ry="7.5"/><linearGradient id="SVGID_3_" x1="217.198" x2="219.756" y1="77.032" y2="77.032" gradientUnits="userSpaceOnUse"><stop offset="0" stop-color="#d1df95"/><stop offset="1" stop-color="#b0cc49"/></linearGradient><path fill="url(#SVGID_3_)" d="M217.2 75.8c.8.7 1.7 1.6 2.6 2.4v-.7c-.9-.5-1.7-1.1-2.6-1.7z"/><linearGradient id="SVGID_4_" x1="216.425" x2="219.756" y1="81.206" y2="81.206" gradientUnits="userSpaceOnUse"><stop offset="0" stop-color="#d1df95"/><stop offset="1" stop-color="#b0cc49"/></linearGradient><path fill="url(#SVGID_4_)" d="M216.4 79c1.7 1.1 3.3 2.4 2.8 4.2l.5.1v-3.1c-1-.5-2.1-1-3.3-1.2z"/><linearGradient id="SVGID_5_" x1="212.686" x2="219.756" y1="92.685" y2="92.685" gradientUnits="userSpaceOnUse"><stop offset="0" stop-color="#d1df95"/><stop offset="1" stop-color="#b0cc49"/></linearGradient><path fill="url(#SVGID_5_)" d="M219.7 93.8c-.7-1.2-.8-2.8-1.1-4-1.4.9-1.9 2.5-1.5 3.9-1.4-.8-2.8-1.7-4.4-2.1.6 1.3 2.1 2.3 2.2 3.7l4.9.2-.1-1.7z"/><path d="M181.4 15.4c-.3-2.4 2.1-4.8 4.8-2.5-.1-3.9 5.7-3.1 7.7-1.1 1.5-3.3 6.5-.4 7.7 1.4 2.7-1.6 3.1-.4 5.3-.2 1.4.2 5.2-.2 6.9.8 6.8 4.1-8.2 3.2-10.4 3.1-7.3-.1-16.4 1.3-22.8-.9m-62.5-5.9c1-1.8-.6-2.6-2.1-1.2.3-2.6-4.3-4.2-4.2-.9-1.8-.4-4.1-.4-4.4 1.4-1.7-.4-4.1-.8-4.4 1.1-2.5.1-5.4-.3-6.9 1.4 3.5.4 7.8-.4 11.3-.5 3.4-.2 8.2.3 11.4-.6m98.6 10.8c-1.6-1.2-3.5 0-3.3 1.7l-.7 1.1c2.1.4 4.2.5 6.4.6v-4.9c-1 .2-1.8.7-2.4 1.5z" class="st24"/><linearGradient id="SVGID_6_" x1="157.787" x2="164.266" y1="15.034" y2="15.034" gradientUnits="userSpaceOnUse"><stop offset="0" stop-color="#353535"/><stop offset=".986" stop-color="#353535"/><stop offset="1" stop-color="#353535"/></linearGradient><path fill="url(#SVGID_6_)" d="M158.5 13.6c1.8.3 2.4 1.8 2.3 3.1.5-1.3 1.6-2.7 3.5-3.2-1.3-.5-2.4-.2-3.2.8-.8-.8-2-1-3.3-.8" opacity=".2"/><linearGradient id="SVGID_7_" x1="1826.305" x2="1832.449" y1="190.214" y2="190.214" gradientTransform="rotate(-28.595 647.411 3343.1)" gradientUnits="userSpaceOnUse"><stop offset="0" stop-color="#353535"/><stop offset=".986" stop-color="#353535"/><stop offset="1" stop-color="#353535"/></linearGradient><path fill="url(#SVGID_7_)" d="M173.3 8.7c1.8-.5 3.2.7 3.9 1.9-.3-1.3-.3-3 1.1-4.1-1.4.1-2.2.8-2.3 1.9-1.2-.4-2.4-.1-3.4.6" opacity=".2"/><linearGradient id="SVGID_8_" x1="143.763" x2="158.288" y1="96.124" y2="96.124" gradientUnits="userSpaceOnUse"><stop offset="0" stop-color="#d1df95"/><stop offset="1" stop-color="#b0cc49"/></linearGradient><path fill="url(#SVGID_8_)" d="M155.5 98.7c-.2-1.6.9-3.2 2.8-4-1.8.1-3.4.8-4.3 1.9.2-1.6 1.8-2.8 3.3-3.9-3-.6-5.3 1.3-6.3 3.3-1.5-1.2-3.5-1.7-5.7-1.3 1.2.7 2.6 1.6 3.5 2.5-1.6-.1-3.4-.4-5.1-.2 2 .9 5.4 1.8 7.7 2.5"/><path d="M7.9 40.4c-2.6-1.5 2.6-2.4 6.2-1.4 2.8-.9 6.9-.6 9.3.5 5.7-1.4 10.5.1 16.3-.2 4.2-.2 9.7-2.9 13.8-.9 2.5-1.1 2.1-.6 4.8 0 3.8-.7 7.9-.7 9.3.6 4.5-.5 12.9-.4 15.6.2 3.4-.2 4.8 0 7.5.3 1.3-.1 2.1-.2 3.6-.1-.5.2-1 .8-1.9 1.1 2.9.7 3.8 1.5 1.2 2.4.2 1.1.3.8-.9 1.7-.1 1.4 4.9 6.5.6 7.9-4 1.2-26.3.1-32.2.1H20.7c-6.6 0-13.1 0-19.6.1V40.4c1.4-.9 4.6-1.2 6.8 0z" class="st18"/><linearGradient id="SVGID_9_" x1="826.959" x2="839.098" y1="83.762" y2="83.762" gradientTransform="matrix(-1 0 0 1 952.452 0)" gradientUnits="userSpaceOnUse"><stop offset="0" stop-color="#bc9668"/><stop offset=".348" stop-color="#ae8967"/><stop offset="1" stop-color="#8a6666"/></linearGradient><path fill="url(#SVGID_9_)" d="M114.9 79l-1.5-11.2 10.1 1.6-2.8 9-2.1 17.8c.9.5 8.7 1.6 6.6 3.5 0 0-8.9-.5-9.6-1.5-.8-1.1-.4-3-.4-4.2-.1-1.8-.8-3.6-.9-5.4-.1-2.6 1.6-5.2.6-8V79z"/><linearGradient id="SVGID_10_" x1="824.332" x2="831.942" y1="49.288" y2="49.288" gradientTransform="matrix(-1 0 0 1 952.452 0)" gradientUnits="userSpaceOnUse"><stop offset="0" stop-color="#bc9668"/><stop offset=".348" stop-color="#ae8967"/><stop offset="1" stop-color="#8a6666"/></linearGradient><path fill="url(#SVGID_10_)" d="M121 40.9c.8.6 1.4 1.7 1.8 2.6.8 1.6 1.6 3.3 2.4 4.9.9 1.8 1.8 3.6 2.5 5.5.5 1.2.7 1.2-.4 1.9-.9.5-2 1-2.8 1.9-.2-1.1-.5-2.2-1-3.2-.4-.9-1.1-1.6-1.6-2.5-.4-.8-1-1.8-1.2-2.6-.4-2 .1-4.2-.2-6.2"/><path d="M108.8 41l-2.2 2.2-.6 23-.4 3.9 7.2 6.3 1.9-.2 8.9-6.5s0-21.9-1.3-26.2c-1.3-4.3-1.7-2.8-1.7-2.8l-11.8.3z" class="st20"/><linearGradient id="SVGID_11_" x1="833.087" x2="843.668" y1="43.501" y2="43.501" gradientTransform="matrix(-1 0 0 1 952.452 0)" gradientUnits="userSpaceOnUse"><stop offset="0" stop-color="#bc9668"/><stop offset=".348" stop-color="#ae8967"/><stop offset="1" stop-color="#8a6666"/></linearGradient><path fill="url(#SVGID_11_)" d="M108.8 41c2.1 1.9 4.1 4 6.8 4.9 3 1 3.7-2.5 3.8-5"/><linearGradient id="SVGID_12_" x1="831.101" x2="834.155" y1="47.625" y2="47.625" gradientTransform="matrix(-1 0 0 1 952.452 0)" gradientUnits="userSpaceOnUse"><stop offset="0" stop-color="#bc9668"/><stop offset=".348" stop-color="#ae8967"/><stop offset="1" stop-color="#8a6666"/></linearGradient><path fill="url(#SVGID_12_)" d="M118.3 47.9c.6-.4 2.1-2.8 2.9-1.3.7 1.3-2 2.5-2.9 2.6"/><linearGradient id="SVGID_13_" x1="100.221" x2="118.423" y1="65.732" y2="65.732" gradientTransform="scale(-1 1) rotate(12.58 111.507 -958.325)" gradientUnits="userSpaceOnUse"><stop offset="0" stop-color="#7a2a89"/><stop offset=".173" stop-color="#823890"/><stop offset=".501" stop-color="#965ca3"/><stop offset=".944" stop-color="#b897c2"/><stop offset="1" stop-color="#bc9fc6"/></linearGradient><path fill="url(#SVGID_13_)" d="M104.7 42.3c.3-.5 5.8-.5 8.7-1.1 2.9-.7 8.6-2.3 9.1-2.5"/><linearGradient id="SVGID_14_" x1="96.658" x2="141.764" y1="61.401" y2="27.705" gradientTransform="scale(-1 1) rotate(12.58 111.507 -958.325)" gradientUnits="userSpaceOnUse"><stop offset="0" stop-color="#bc9668"/><stop offset=".348" stop-color="#ae8967"/><stop offset="1" stop-color="#8a6666"/></linearGradient><path fill="url(#SVGID_14_)" d="M132.6 25.2s1.9 6.9 1.3 8.3c-.6 1.3-3.6 4.9-11 6.5-7.4 1.7-8.2 1.5-10.9 2.1-2.7.6-8.4.7-10.4-.1-2.1-.8-4-3.1-4.9-4.9-.8-1.8-1.7-4-1.4-4.6.3-.6.7-4.2.4-5.4-1.4-6.3 12.8-11.5 17.3-12.5 4.6-1 15.5-.4 17.2 3.4.5 1.3 2.4 7.2 2.4 7.2z"/><linearGradient id="SVGID_15_" x1="113.496" x2="123.823" y1="59.296" y2="59.296" gradientTransform="scale(-1 1) rotate(12.58 111.507 -958.325)" gradientUnits="userSpaceOnUse"><stop offset="0" stop-color="#c91371"/><stop offset="1" stop-color="#b46666"/></linearGradient><circle cx="103.1" cy="36.4" r="5.2" fill="url(#SVGID_15_)" opacity=".18"/><ellipse cx="113.5" cy="26.9" class="st35" rx=".7" ry=".9" transform="rotate(-12.569 113.526 26.89)"/><ellipse cx="123.3" cy="24.7" class="st35" rx=".7" ry=".9" transform="rotate(-12.592 123.28 24.716)"/><linearGradient id="SVGID_16_" x1="87.921" x2="97.721" y1="59.615" y2="59.615" gradientTransform="scale(-1 1) rotate(12.58 111.507 -958.325)" gradientUnits="userSpaceOnUse"><stop offset="0" stop-color="#c91371"/><stop offset="1" stop-color="#b46666"/></linearGradient><path fill="url(#SVGID_16_)" d="M133.2 30c.6 2.6-1.1 5.3-3.7 5.9-2.6.6-5.3-1.1-5.9-3.7-.6-2.6 1.1-5.3 3.7-5.9 2.7-.6 5.3 1.1 5.9 3.7z" opacity=".18"/><path fill="none" stroke="#8a6666" stroke-miterlimit="10" stroke-width=".5" d="M121.2 30.5s-.8-1-2.2-.5c-1.4.5-1.5 1.5-1.5 1.5"/><linearGradient id="SVGID_17_" x1="83.558" x2="127.443" y1="49.703" y2="49.703" gradientTransform="scale(-1 1) rotate(12.58 111.507 -958.325)" gradientUnits="userSpaceOnUse"><stop offset="0" stop-color="#353535"/><stop offset=".986" stop-color="#353535"/><stop offset="1" stop-color="#353535"/></linearGradient><path fill="url(#SVGID_17_)" d="M131.7 23.1c-.7-3.4-7.6-4.7-10.3-5.5-2.9-.8-5.8-.8-8.8-.8-1.2 0-3.2-.4-4.4-.1-1 .3-2.3 2.2-3.2 3.1-2.6 2.5-4 7.1-5 10.7-.8 2.9-2.3 4.2-2.1 7.1-.4-.2-.7-.8-1-1.3-.9 2.8 3.5 7.9 5.6 9.3-2.3.5-5.3-3-6.4-4.6-1.5-2.2-1.8-4.8-2.5-7.3-1.1-4-2.4-8.5-.4-12.4 1.6-3.2 3.4-6.3 6-8.7 1.1-1.1 2.2-2 3.7-2.5 1.1-.4 1.3-.1 2.2-.4.4-.1.9-.7 1.2-1 .6-.5 1.7-1.9 2.4-2.2 1.5-.6 5.4-1.2 7-1.2 3.1-.1 5.3 1.9 8.3 2.9 1.7.5 3 1.5 4.4 2.5 2 1.5 2.8 3.2 4.1 5.3 1.8 2.9 4.9 7.1 3 10.7-.4-.5-.8-1-.9-1.6.3 1.3 1.1 3.3.3 4.4l-1.2 1.9-2-8.3z"/><path fill="#353535" d="M101.9 10.5c-.6-3.9-6.1-7.9-10-6.4.9.4 1.9.7 2.7 1.3-2.2.1-4.4-.6-6.1 1.2-2.2 2.5.4 2.2 2.4 1.8-1.3.8-4.2 2.6-3.2 4.6 2.3-.4 4.4-1 6.8-.8 1.5.1 3.2.9 4.5 1"/><linearGradient id="SVGID_18_" x1="125.722" x2="128.644" y1="54.873" y2="54.873" gradientTransform="scale(-1 1) rotate(12.58 111.507 -958.325)" gradientUnits="userSpaceOnUse"><stop offset="0" stop-color="#bc9668"/><stop offset=".348" stop-color="#ae8967"/><stop offset="1" stop-color="#8a6666"/></linearGradient><path fill="url(#SVGID_18_)" d="M94.8 31.5c-1.2-2.6-2.6.7-2.5 2 .1 1.8 1.2 3.3 3 3.5"/><path fill="#b46637" d="M101.8 10.6c.1-.4.1-.9-.2-1.4-1.6.4-4.4 2.6-5.6 3.4.8.2 1.6.6 2.5.6"/><circle cx="101.4" cy="9.6" r=".3" class="st42" transform="rotate(-12.578 101.386 9.643)"/><circle cx="100.6" cy="10" r=".3" class="st42" transform="rotate(-12.472 100.642 10.013)"/><circle cx="99.9" cy="10.4" r=".3" class="st42" transform="rotate(-12.552 99.886 10.408)"/><circle cx="99.2" cy="10.9" r=".3" class="st42" transform="rotate(-12.545 99.252 10.89)"/><circle cx="98.6" cy="11.3" r=".3" class="st42" transform="rotate(-12.485 98.54 11.308)"/><circle cx="97.9" cy="11.8" r=".3" class="st42" transform="rotate(-12.644 97.859 11.78)"/><circle cx="97.3" cy="12.2" r=".3" class="st42" transform="rotate(-12.615 97.266 12.24)"/><circle cx="101.5" cy="10.3" r=".3" class="st43" transform="rotate(-12.393 101.547 10.314)"/><circle cx="100.9" cy="10.8" r=".3" class="st43" transform="rotate(-12.578 100.864 10.806)"/><circle cx="100.2" cy="11.2" r=".3" class="st43" transform="rotate(-12.631 100.227 11.208)"/><circle cx="99.5" cy="11.7" r=".3" class="st43" transform="rotate(-12.552 99.539 11.67)"/><circle cx="98.7" cy="12.1" r=".3" class="st43" transform="rotate(-12.492 98.737 12.133)"/><circle cx="98.1" cy="12.6" r=".3" class="st43" transform="rotate(-12.72 98.079 12.647)"/><path fill="#f0ca44" stroke="#b36730" stroke-miterlimit="10" stroke-width=".1" d="M98.9 10.7c-.3-.1-1.8.1-1.6.7.2.6.8.8 1.4.5.1.3-.1.5 0 .8.1.3.4.3.6.3.4-.1.8-.6.5-1m-.8-1.4c0-.4.5-1.7 1-1.4.5.3.6 1 .2 1.4.2.1.6 0 .8.2.2.2.3.4.1.7-.2.4-.8.6-1.1.2"/><ellipse cx="99.6" cy="11.3" fill="#eec998" rx=".3" ry="1" transform="rotate(-38.026 99.562 11.316)"/><path d="M99.3 10.7c-.1-.3.4-1.4.8-1 .3.3-.4 1-.7 1.1m.4.4c.1-.2 1-.3 1 0s-.7.3-.8.3m-1-.5c-.3-.2-1.5.1-1.1.5.3.3 1.1-.1 1.2-.4m.3.6c-.2 0-.6.9-.3 1 .3.1.5-.6.5-.7" class="st20"/><path fill="none" stroke="#b36730" stroke-miterlimit="10" stroke-width=".1" d="M99 10.5c-.1 0-.2-.2-.2-.3 0-.1.2-.2.2-.1-.1.1-.2-.1-.3-.2 0-.2.2-.3.2-.2-.1 0-.1 0-.1-.1m.1 1c-.1-.1-.1-.2-.3-.3-.1-.1-.3-.1-.3.1s.2 0-.1-.1c-.1 0-.3 0-.3.2.2 0 0-.2-.1-.2"/><path d="M112.9 15.2c3.4.5 7 .6 10.4 1.2 1.7.3 5.2.4 6.3 2-.3-2.2-5.9-2.6-7.5-2.8-1.7-.2-3.5-.3-5.2-.3-1.1 0-2.5.4-3.5 0m-1.8-1.2c2-.1 4 .5 6 .4 1.8-.1 3.6 0 5.5.1-3.8-.9-7.7-1.1-11.4-.6" class="st47"/><linearGradient id="SVGID_19_" x1="109.051" x2="118.846" y1="46.488" y2="46.488" gradientTransform="scale(-1 1) rotate(12.58 111.507 -958.325)" gradientUnits="userSpaceOnUse"><stop offset="0" stop-color="#353535"/><stop offset=".986" stop-color="#353535"/><stop offset="1" stop-color="#353535"/></linearGradient><path fill="url(#SVGID_19_)" d="M108.4 16c-1.1.8-1.5 2.9-2 4.2-.6 1.6-1 3.4-1.7 5s-1.5 4-3.2 4.7c.8-1.7 2-2.9 2.6-4.8.9-2.9.9-6 2.9-8.4"/><path d="M99.2 13.6c-1.5.5-3 3.4-2.7 4.9.8-1.8 1.3-3.5 2.5-5m6.7-3.9c1.1-.8 3.1-2.5 4.5-1.9-1 .5-3.5 2.6-4.5 1.9m1.2 1c1 .1 3-.9 3.6.3-1.2.4-3.1.8-4.1-.2" class="st47"/><circle cx="95" cy="36.9" r=".5" class="st43" transform="rotate(-12.562 94.976 36.886)"/><path fill="none" stroke="#833535" stroke-miterlimit="10" stroke-width=".5" d="M124.3 33.3c-2.5 1.2-4.6 2.7-7.5 2.8-1.9.1-4-.1-5.9-.8"/><linearGradient id="SVGID_20_" x1="825.426" x2="854.87" y1="57.798" y2="34.779" gradientTransform="matrix(-1 0 0 1 952.452 0)" gradientUnits="userSpaceOnUse"><stop offset="0" stop-color="#bc9668"/><stop offset=".348" stop-color="#ae8967"/><stop offset="1" stop-color="#8a6666"/></linearGradient><path fill="url(#SVGID_20_)" d="M117.2 54.2c1.5 1.2 3.5 0 2.8-1.8 1-.2 2 .2 2.9.3.3-1.2-.6-1.8-1.6-1.9.4-.1 1.2-.2 1.8-.4.1-1-.9-1.4-1.8-1.3.2-.5 1-.1 1.1-.5-3.7-2.6-7.7 1.8-7.8 5"/><linearGradient id="SVGID_21_" x1="827.939" x2="862.544" y1="63.147" y2="36.091" gradientTransform="matrix(-1 0 0 1 952.452 0)" gradientUnits="userSpaceOnUse"><stop offset="0" stop-color="#bc9668"/><stop offset=".348" stop-color="#ae8967"/><stop offset="1" stop-color="#8a6666"/></linearGradient><path fill="url(#SVGID_21_)" d="M114.4 53.6c-.7.3-2.3 1.1-3 1.2-1.2-2.3-.9-9.6-3.1-11.4-4.2-3.5-2.4 5.9-1.8 8.4.5 1.9.4 2 1 3.4.7 1.5.3 3.1 2.2 3 2-.1 7.9-2.1 8.4-4.2"/><path fill="#eec998" stroke="#bc9668" stroke-width=".25" d="M135.1 58.5c-1.1 1.2-1.5 2.8-1.7 4.4-.1 1.6.1 3.2.4 4.7-2.5.3-5 .2-7.5-.2-.2 0-.5-.1-.7-.2-.2-.2-.3-.4-.4-.7-.3-1-.7-2-1-3-.3-.9-.6-1.7-.6-2.6 0-1.4.7-2.8 1.4-4 1-1.6 2.3-3.1 3.7-4.3.5-.4.9-.8 1.5-1 1-.4 2-.3 3-.1 1.4.2 2.7.4 3.9 1 1.1.6 2.4 2 1.5 3.3-.6 1.1-2.5 1.5-3.5 2.7z"/><linearGradient id="SVGID_22_" x1="815.507" x2="821.01" y1="58.177" y2="58.177" gradientTransform="matrix(-1 0 0 1 952.452 0)" gradientUnits="userSpaceOnUse"><stop offset="0" stop-color="#bc9668"/><stop offset=".348" stop-color="#ae8967"/><stop offset="1" stop-color="#8a6666"/></linearGradient><path fill="url(#SVGID_22_)" d="M136.8 57.5c-.1-.6-.7-2.4-1.5-2.2-.7.2-.6 1.9-.4 2.3-.3-.5-.7-2.3-1.6-1.9-.6.3-.3 2 0 2.4-1.8-2.4-2.5 2.6-.4 3 1.3.2 4.5-2.1 4.2-3.5"/><linearGradient id="SVGID_23_" x1="834.424" x2="846.564" y1="85.894" y2="85.894" gradientTransform="matrix(-1 0 0 1 952.452 0)" gradientUnits="userSpaceOnUse"><stop offset="0" stop-color="#bc9668"/><stop offset=".348" stop-color="#ae8967"/><stop offset="1" stop-color="#8a6666"/></linearGradient><path fill="url(#SVGID_23_)" d="M107.4 81.1l-1.5-11.2 8.4 5.3-1.1 5.4-2.2 17.7c.9.5 8.7 1.6 6.6 3.5 0 0-8.9-.5-9.6-1.5-.8-1.1-.4-3-.4-4.2-.1-1.8-.8-3.6-.9-5.4-.1-2.6 1.6-5.2.6-7.9v-1.7z"/><path fill="#d3663d" d="M111.6 44.6c1.7-.8-1.1-3.6-1-.4-.1-1-1-1.7-2-1.5-.2 1 .6 1.6 1.4 2-.5 0-2.4.1-2 1.2.3 1 1.9-.1 2.4-.4-.8.3-1.7 2-.8 2.5 1.3.7 1.6-1.3 1.7-2 .1 2.2 3.4.4 1.1-.4.4.1.7-.1 1-.1.9-1.3-.8-1-1.6-1" opacity=".8"/><path fill="#b782b4" d="M103.3 70.4c-.4 2-1.2 3.7-2.4 5.4 2.1-.4 3 2.3 5.2 1 .9-.5 1.4-.9 2.4-.1 1 .7 1 1.2 2.3 1.4 1 .1 1.7-.3 2.7-.3 1.2 0 1.2 1 2.3 1.3 2.3.7 3.2-2.8 5.3-2.3.8.2 1.4 1.1 2.3.9.8-.2 1.1-1.4 1.6-1.9 1.2-1.3 3.9-1.1 4.7-2.5-.8-.4-1.3-1.6-1.8-2.2-1-1.3-2.1-2.5-3-3.9"/><path fill="#c99ac1" d="M105.5 60.2c2.5.6 5.7.6 8.5.6 1.7 0 3.4.1 5.1-.1.8-.1 1.5-.2 2.3-.3.7-.1 1.4-.5 2-.4.3 3.7 4.4 6.2 5.4 9.5-1.1.5-1.9 1.6-3 2-1.3.4-2.2-.8-3.4-.3-1 .4-.6 1.9-1.5 2.2-1.1.4-2.2-1.6-2.9-2-2.1-1.2-3.1 2.4-5.1 1.7-1-.3-1.4-1.7-2.3-2.1-1.1-.5-1.8.5-2.6 1-2.1 1.3-3.8-.4-6-.5 0-1.3 1-2.9 1.3-4.2.5-1.9 1.3-3 1.4-4.9l.8-2.2z"/><path d="M128.5 69.2c-.9 0-1.3 1-1.9 1.5-.7.6-1.5.7-2.5.5-.9-.1-1.5-.9-2.3 0-.5.6-.3 1.7-1.4 1.8-1 .1-1-.9-1.4-1.5-.6-.8-1.4-.9-2.4-.8-1.9.3-1.6 2.8-3.6 2.3-.7-1.3-2.5-2.6-4-2.6.4-.6 2.3-.8 2.9-.2.8-.7.2-2 1.1-2.7-.1.5-.7 1.7-.1 2.2.6.5 1.1-.5 1.6-.9.7 1.3 1.7-.3 1.8-1 .1-.9-.2-1.7-.6-2.5 1.2-.2 2 .8 2.6 1.7.8 1.3.8 1.3 2.2 1.6 1.3.3 1.9.7 2.2-.9.2-.8 0-2-.4-2.7.4-.4.8-.7.9-1.2.2-.6-.2-1 .3-1.5 1.2 1.5 2.4 3.1 3.7 4.7" class="st58"/><path d="M124.6 64.2c.2.6.7 1.2.8 1.9.1.6 0 1.2.2 1.8-.3-.2-.6-.7-1.1-.7.1.5.6 1.3.5 1.8-.2.8-.5.4-1.3.7-1 .3-1.2 1.1-2.1 1.8-2 1.4-2.8-3.3-4.6-4 .3 1.1.5 2.1-.5 2.7-1.2.7-2 .4-2.6 2v-.3l-.1.1c1.5-.5 2.4-1.9 4.2-1.3 1.2.5 2 3 3.4 1.5.5-.5.5-1.3 1.3-1.6.9-.3 1.5.4 2.2.4 1.6 0 2.1-2 3.4-2.2" class="st59"/><path d="M126.9 71.2c.5.7.9 1.3.1 1.8-.3.2-.8 0-1.1.2-.1 0-.4.7-.5.8-.4-.4-.9-.8-1.4-1 .4.7 0 1.9-.8 2.2-.4.1-1-.2-1.5-.1-.6.1-.9.5-1.4.8-3.3 2.2-1.7-2.7-3.6-2.5.2.8.2 1.9-.5 2.5-.1-.5-.4-.8-.8-1-.2.6-.7 2.5-.3 3 .7 1.1 2 .1 2.7-.4 1.1-.7 3.9-2.4 4.9-.5 1 .3 1.6-1.9 2.6-2.4 1.2-.7 2.6-.7 3.8-1.6-.5-.8-1.1-1.6-1.8-2.2" class="st58"/><path d="M127.4 70.9c.7.8 1.4 1.5 1.6 2.4-1.2.8-2.7.8-3.8 1.6-.8.6-1.3 2.7-2.7 2 1.2-.2 1.8-2.4 1.7-3.5 1 .6 1.2.3 2.2-.1.7-.3.7.3 1-.6.2-.3 0-1.1 0-1.4" class="st59"/><path d="M107.6 63.8c-.5 0-1.7-.9-.9-1.3.6-.3 1.3.7 1.5 1.1.3-1.9 2.3-1.1.8.5.5-.2 1.3.1 1.1.8-.1.8-.9.3-1.5.2.3 2-1.5 1.4-.8 0-1.7 1.2-2.1-1.2-.2-.9m4.8 1.1c-.2 0-.8-.4-.4-.6.3-.2.6.4.7.5.1-.9 1.1-.5.4.2.2-.1.6.1.5.4-.1.4-.4.2-.7.1.2.9-.7.7-.4 0-.8.6-1-.6-.1-.4m-6.2 2.5c-.2 0-.8-.4-.4-.6.3-.1.6.4.7.5.1-.9 1.1-.5.4.2.2-.1.6.1.6.4-.1.4-.4.2-.7.1.2.9-.7.7-.4 0-.8.6-1-.6-.1-.4" class="st20"/><linearGradient id="SVGID_24_" x1="114.372" x2="115.547" y1="57.425" y2="68.84" gradientUnits="userSpaceOnUse"><stop offset="0" stop-color="#7a2b89"/><stop offset=".175" stop-color="#823990"/><stop offset=".504" stop-color="#975da4"/><stop offset=".951" stop-color="#b898c3"/><stop offset="1" stop-color="#bc9fc7"/></linearGradient><path fill="url(#SVGID_24_)" d="M114.5 60.9c-.5.2-2 1.6-1.1 2.1.9.4 1.2-1.3 1.4-1.6.2.6.5 1.4 1.2 1.4.9.1.9-.9.4-1.4-1.1-1.1-2-.2-2.5.8.4-.2.5-1.1 1-1 .3.1.7 1 1 1.3.5-.5-.6-1.3-1.2-1.3"/><linearGradient id="SVGID_25_" x1="100.906" x2="129.765" y1="73.06" y2="73.06" gradientUnits="userSpaceOnUse"><stop offset="0" stop-color="#7a2b89"/><stop offset=".175" stop-color="#823990"/><stop offset=".504" stop-color="#975da4"/><stop offset=".951" stop-color="#b898c3"/><stop offset="1" stop-color="#bc9fc7"/></linearGradient><path fill="url(#SVGID_25_)" stroke="#850ca7" stroke-width=".25" d="M103.3 70.4c-.4 2-1.2 3.7-2.4 5.4 2.1-.4 3 2.3 5.2 1 .9-.5 1.4-.9 2.4-.1 1 .7 1 1.2 2.3 1.4 1 .1 1.7-.3 2.7-.3 1.2 0 1.2 1 2.3 1.3 2.3.7 3.2-2.8 5.3-2.3.8.2 1.4 1.1 2.3.9.8-.2 1.1-1.4 1.6-1.9 1.2-1.3 3.9-1.1 4.7-2.5-.8-.4-1.3-1.6-1.8-2.2-1-1.3-2.1-2.5-3-3.9"/><linearGradient id="SVGID_26_" x1="102.919" x2="126.719" y1="76.681" y2="56.885" gradientUnits="userSpaceOnUse"><stop offset="0" stop-color="#7a2b89"/><stop offset=".175" stop-color="#823990"/><stop offset=".504" stop-color="#975da4"/><stop offset=".951" stop-color="#b898c3"/><stop offset="1" stop-color="#bc9fc7"/></linearGradient><path fill="url(#SVGID_26_)" stroke="#850ca7" stroke-width=".25" d="M105.5 60.2c2.5.6 5.7.6 8.5.6 1.7 0 3.4.1 5.1-.1.8-.1 1.5-.2 2.3-.3.7-.1 1.4-.5 2-.4.3 3.7 4.4 6.2 5.4 9.6-1.1.5-1.9 1.6-3 2-1.3.4-2.2-.8-3.4-.3-1 .4-.6 1.9-1.5 2.2-1.2.4-2.2-1.6-2.9-2-2.1-1.2-3.1 2.4-5.1 1.7-1-.3-1.4-1.7-2.3-2.1-1.1-.5-1.8.5-2.6 1-2.1 1.3-3.8-.4-6-.5 0-1.3 1-2.9 1.3-4.2.5-1.9 1.3-3 1.4-4.9l.8-2.3z"/><path d="M128.5 69.2c-.9 0-1.3 1-1.9 1.5-.7.6-1.5.7-2.5.5-.9-.1-1.5-.9-2.3 0-.5.6-.3 1.7-1.4 1.8-1 .1-1-.9-1.4-1.5-.6-.8-1.4-.9-2.4-.8-1.9.3-1.6 2.8-3.6 2.3-.7-1.3-2.5-2.6-4-2.6.4-.6 2.3-.8 2.9-.2.8-.7.2-2 1.1-2.7-.1.5-.7 1.7-.1 2.2.6.5 1.1-.5 1.6-.9.7 1.3 1.7-.3 1.8-1 .1-.9-.2-1.7-.6-2.5 1.2-.2 2 .8 2.6 1.7.8 1.3.8 1.3 2.2 1.6 1.3.3 1.9.7 2.2-.9.2-.8 0-2-.4-2.7.4-.4.8-.7.9-1.2.2-.6-.2-1 .3-1.5 1.2 1.5 2.4 3.1 3.7 4.7" class="st63"/><path d="M124.6 64.2c.2.6.7 1.2.8 1.9.1.6 0 1.2.2 1.8-.3-.2-.6-.7-1.1-.7.1.5.6 1.3.5 1.8-.2.8-.5.4-1.3.7-1 .3-1.2 1.1-2.1 1.8-2 1.4-2.8-3.3-4.6-4 .3 1.1.5 2.1-.5 2.7-1.2.7-2 .4-2.6 2v-.3l-.1.1c1.5-.5 2.4-1.9 4.2-1.3 1.2.5 2 3 3.4 1.5.5-.5.5-1.3 1.3-1.6.9-.3 1.5.4 2.2.4 1.6 0 2.1-2 3.4-2.2" class="st64"/><path d="M126.9 71.2c.5.7.9 1.3.1 1.8-.3.2-.8 0-1.1.2-.1 0-.4.7-.5.8-.4-.4-.9-.8-1.4-1 .4.7 0 1.9-.8 2.2-.4.1-1-.2-1.5-.1-.6.1-.9.5-1.4.8-3.3 2.2-1.7-2.7-3.6-2.5.2.8.2 1.9-.5 2.5-.1-.5-.4-.8-.8-1-.2.6-.7 2.5-.3 3 .7 1.1 2 .1 2.7-.4 1.1-.7 3.9-2.4 4.9-.5 1 .3 1.6-1.9 2.6-2.4 1.2-.7 2.6-.7 3.8-1.6-.5-.8-1.1-1.6-1.8-2.2" class="st63"/><path d="M127.4 70.9c.7.8 1.4 1.5 1.6 2.4-1.2.8-2.7.8-3.8 1.6-.8.6-1.3 2.7-2.7 2 1.2-.2 1.8-2.4 1.7-3.5 1 .6 1.2.3 2.2-.1.7-.3.7.3 1-.6.2-.3 0-1.1 0-1.4" class="st64"/><path d="M107.6 63.8c-.5 0-1.7-.9-.9-1.3.6-.3 1.3.7 1.5 1.1.3-1.9 2.3-1.1.8.5.5-.2 1.3.1 1.1.8-.1.8-.9.3-1.5.2.3 2-1.5 1.4-.8 0-1.7 1.2-2.1-1.2-.2-.9m4.8 1.1c-.2 0-.8-.4-.4-.6.3-.2.6.4.7.5.1-.9 1.1-.5.4.2.2-.1.6.1.5.4-.1.4-.4.2-.7.1.2.9-.7.7-.4 0-.8.6-1-.6-.1-.4m-6.2 2.5c-.2 0-.8-.4-.4-.6.3-.1.6.4.7.5.1-.9 1.1-.5.4.2.2-.1.6.1.6.4-.1.4-.4.2-.7.1.2.9-.7.7-.4 0-.8.6-1-.6-.1-.4" class="st20"/><linearGradient id="SVGID_27_" x1="114.372" x2="115.546" y1="57.425" y2="68.838" gradientUnits="userSpaceOnUse"><stop offset="0" stop-color="#7a2b89"/><stop offset=".175" stop-color="#823990"/><stop offset=".504" stop-color="#975da4"/><stop offset=".951" stop-color="#b898c3"/><stop offset="1" stop-color="#bc9fc7"/></linearGradient><path fill="url(#SVGID_27_)" d="M114.5 60.9c-.5.2-2 1.6-1.1 2.1.9.4 1.2-1.3 1.4-1.6.2.6.5 1.4 1.2 1.4.9.1.9-.9.4-1.4-1.1-1.1-2-.2-2.5.8.4-.2.5-1.1 1-1 .3.1.7 1 1 1.3.5-.5-.6-1.3-1.2-1.3"/><path fill="#850ca7" d="M116.9 100.2c.4.2.8.4 1 .7.2.3.3.9-.1 1.2-.2.1-.4.2-.6.2-2 .4-4.1.3-6.1-.2-.7-.2-3.1-.9-3.7-1.4-.6-.5-.2-1.2-.2-2 1.3.6 3.3 1.8 4.7 2.2.5.1 2.9.1 3-.4.1-.5-2.1-1.5-2.6-1.6-1-.2-2.2-1-1-.9 1.5.2 4.4 1.7 5.6 2.2zm7.6-2.1c.4.2.8.4 1 .7.2.3.3.9-.1 1.2-.2.1-.4.2-.6.2-2 .4-4.1.3-6.1-.2-.7-.2-3.1-.9-3.7-1.4-.6-.5-.2-1.2-.2-2 1.3.6 3.3 1.8 4.7 2.2.5.1 2.9.1 3-.4.1-.5-2.1-1.5-2.6-1.6-1-.2-2.2-1-1-.9 1.5.2 4.4 1.7 5.6 2.2z"/><path d="M96.5 79.3c0 .1.1.2.1.3 0 0 0 .1.1.1s.2 0 .2-.1c.1-.1.2-.2.2-.4s-.1-.3-.3-.3c0 .1-.2.2-.3.4"/><path d="M90 94c-.2-.2-.4-.5-.5-.7-.3-.5-.5-1.1-.6-1.7 0-.2 0-.5-.2-.7-.1.1-.2.1-.3.2 0-.2-.3-.3-.4-.5-.2-.4.5-.8.5-1.2 0-.3-.2-.6 0-.8.1-.2.5-.2.6-.4.1-.1 0-.2 0-.4 0-.4.2-.7.3-1 .3-.6.7-1.3 1.3-1.8.4-.4.9-.7 1.3-1.1.2-.2.3-.4.3-.6v-.6c0-.4-.1-.9-.1-1.3-.1-.8-.2-1.6.2-2.3.3-.6 1-1.1 1.7-1.4.8-.2 1.6-.1 2.3.2.2.1.4.2.5.3.3.3.2.8 0 1.2-.1.2-.2.5-.1.7.1.1.2.2.2.3.3.5-.2 1-.6 1.3-.5.3-1.1.6-1.2 1.1-.2.6.4 1.2.7 1.8.1.3.2.7.3 1 .1.3.4.6.6.9.5.7 1 1.3 1.7 1.8.2.1.3.2.5.4.1.1.3.3.3.4.4.7.7 1.6.6 2.4-.5-.3-1-.5-1.6-.7.1 1.2-.3 2.4-1 3.4-.1.1-.1.2-.2.2-.3.2-.7.1-1 .3-.3.2-.3.8-.7.8h-.6c-.8.1-1.6.1-2.4-.2 0-.5-.2-.9-.6-1.3.1.1-.8.5-1 .5-.2.2-.6-.3-.8-.5z" class="st67"/><path fill="#d58966" d="M95.2 80.3v.5c0 .2-.1.3-.2.4-.1 0-.3.1-.3.2.1.1.2.2.3.2.5.4 1.2.7 1.9.9h.4c.2-.1.1-.4 0-.5-.2-.2-.4-.3-.5-.5-.1-.3.1-.7-.3-.9-.1-.2-1.4-.2-1.3-.3z"/><path fill="#be8442" d="M91.3 96.1l.3.9c.1.8-.5 1.6-1.4 1.9-.1 0-.3.1-.4.2-.1.1-.1.3.1.3.1 0 .2 0 .3-.1.4-.2 1-.1 1.5 0s1.1.3 1.5 0c0-.1-.1-.2-.1-.3.4.1.8.1 1.1 0 .2 0 .5-.2.4-.4-.1-.1-.3-.1-.4-.1-.6 0-1.2-.1-1.7-.4-.5-.4-.7-1-.6-1.6.1-.3.2-.6.2-1 0-.3-.1-.7-.3-.9-.3-.2-.9.1-1 .4.1.2.4.8.5 1.1zm4.9 1.8c-.1.1-.1.2-.2.3-.2.2-.5.1-.8.2-.3.1-.5.3-.4.5l.9-.3c-.1.1-.2.2-.2.3 0 .1.1.3.3.3.3 0 .5-.4.9-.4.3 0 .4.5.7.4v-.6c.4.2.7.4 1.1.7.1-.2 0-.5-.2-.7-.2-.2-.5-.3-.7-.5-.5-.4-.5-1.1-.5-1.6 0-.6.1-1.3 0-1.9-.8.3-1.1.5-.8 1.2.4.7.3 1.3-.1 2.1z"/><g opacity=".1"><path d="M93.8 81.8c.1 0 .1.1.2.1h.3c.5 0 .9.3 1.4.2.1.1 0 .3-.2.4-.1.1-.3.2-.4.4v.3c0 .1 0 .2-.1.3-.1.1-.2.1-.3 0-.1-.1 0-.2-.1-.3 0 0-.1-.1-.2-.1h-.5c.1-.1.2-.2.4-.2-.2-.1-.5.2-.7.1-.1-.1-.1-.2-.2-.2h-.3c-.3.1-.7.2-1 .3.3-.4-.3-1.1-.1-1.3.2-.1 1.6 0 1.8 0zm4.1 7.9l-.3-.6c-.1.4-.2.8-.2 1.2 0 .1 0 .2-.1.2-.1.1-.2.1-.3.1-.1 0-.1.1-.2.2s-.2.1-.3 0c-.2 0-.5 0-.7-.1.3.5.4 1.2.4 1.8.3-.2.2-.5.4-.8.2-.4.9-.5 1.2-.9.3-.2.3-.8.1-1.1zM91.7 93c-.1-.1-.1-.2-.2-.3-.1-.3.1-.6 0-.8-.1-.1-.2-.2-.4-.3-.1-.1-.2-.3-.4-.3s-.3.3-.6.3-.2-.5-.5-.5c-.2 0-.3.2-.4.1-.1 0-.1-.2-.2-.2v.1c-.1-.1-.2-.3-.2-.4.1-.1.3-.1.4 0 .1.1.3.1.4.1h.2c.1 0 .2 0 .3.1.2.1.4.2.7.3 0 0 .1 0 .1.1.1.1 0 .3.1.4 0 0 .1.1.2.1.2.1.4.2.5.4.1.2.1.4 0 .6 0 .1-.1.2 0 .3 0 .1.1.2.2.4.2.3.1.7 0 1.1-.1 0-.1.1-.2.1-.3.3.1-1.5 0-1.7z" class="st71"/><path d="M96.3 85.2H96c0-.1 0-.2.1-.2h-.2v-.3c-.2 0-.2-.2-.1-.3h-.2v-.3c-.1 0-.2-.2-.2-.3 0-.1-.1-.2-.2-.2s-.1 0-.2.1c-.1 0-.3-.1-.4-.1-.2-.1-.3-.2-.5-.2h-.2s-.1 0-.1.1c-.2.1-.3 0-.5 0s-.4.1-.4.2c0 .2.4.2.5.3.1.1.1.2.1.3 0 .3.1.5.3.8.1.1.3.2.4.3.1.2-.1.2 0 .3.1.2 0 .3.4.3.2 0 .6-.2.8-.3.5-.2.5-.2.9-.5zm-4.2-.4c-.1-.1 0-.2 0-.3.1-.1.2-.1.2-.2s0-.2-.1-.2-.2 0-.2.1-.1.2-.1.2c-.1.2-.4.3-.5.5-.1.2-.1.6 0 .8.2-.1.8-.7.7-.9zm2.6-5.4c0-.1.2-.2.2-.2.1-.1.2-.2.3-.4.1-.2.3-.4.2-.6.1-.1.2 0 .3 0 .1.1.1.2.1.3 0 .2.1.4.2.5 0 .2 0 .4-.1.5-.2 0-.4.1-.4.2s0 .3.2.3c-.6.4-1.2-.1-1-.6zm-.2.8c-.1.2 0 .3.1.5.1.1.1.1.1.2s-.2.1-.3.1c-.1 0-.2.1-.3.2 0 .1 0 .2.2.3-.2.1-.4.2-.6.1-.1 0-.2-.1-.3-.1-.1-.2-.2-.4-.3-.5h-.3c-.7-1.4 1.6-.6 1.7-.8z" class="st71"/></g><path d="M94.3 79.2c-.1-.1-.2-.2-.2-.3l-.1-.1c-.1 0-.2.1-.2.1-.1.1-.1.3-.1.4 0 .1.2.3.4.3.1 0 .3-.2.2-.4m1.6 1.7c-.1 0-.2-.1-.3 0 0 .1 0 .2.1.2s.2 0 .2-.1-.2-.1-.2-.1"/><path d="M91.6 91v-.4c-.1-.1-.3.1-.4 0v-.1c0-.2-.1-.4-.1-.6h-.6c.1-.3.2-.7.1-1v-.1h-.1c-.2 0-.3.1-.5.1-.1-.2.1-.6-.1-.7 0 0-.1 0-.1-.1V88c0-.2-.1-.3-.2-.4l-.3.9c.1 0 .2.1.2.2s-.1.2-.1.3c0 0 .1 0 .2.1.2 0 .3.2.3.3v.1h.1c.1 0 .2.1.2.2s0 .2-.1.3c.1-.1.2 0 .3.1.1.2.2.1.3.2l.2.2c.2.2.2.4.4.6.2.2.5.4.5.7 0 .1-.1.9-.1.9-.6-.1-.2-.6-.3-.9-.1-.6-.6-.1-1.1-.4-.1-.1-.3-.2-.4-.2-.1 0-.3-.1-.4-.1-.1-.1-.2-.2-.1-.3 0 .1-.1.2-.2.2-.1-.1 0-.2 0-.3.1-.1.2-.2.2-.3 0-.1-.1-.1-.1-.2s.1-.1.2 0c.1 0 .1.1.1.2.1.1.2.3.4.3h.2c.1 0 .2.1.3.2.2.1.4.2.6.2h.2" class="st72"/><path d="M196.6 81.9l-75.4.7v28.5s20.6 13.7 51.4 12.7c9.3-.3 17.3-1.5 24-3 0 0 8.6-2.4 13.5-6.9 1.6-1.4 4.7-4.7 4.7-4.7l.2-28.4" class="st73"/><path fill="#c9c9c9" d="M196.6 98.7c-7.2 1.4-15.4 2.2-24.1 2.2-28.6 0-51.9-8.8-51.9-19.7 0-10.9 23.2-19.7 51.9-19.7 8.7 0 16.8 1.1 24 2.5 0 0 14.8 4.2 17.5 12.1 2.4 7.1 3.6 15.2-17.4 22.6z"/><radialGradient id="SVGID_28_" cx="179.972" cy="89.504" r="127.764" gradientUnits="userSpaceOnUse"><stop offset="0" stop-color="#8fc6ed"/><stop offset="1" stop-color="#486796"/></radialGradient><path fill="url(#SVGID_28_)" d="M196.6 65.5c-7-1.5-15.2-2.4-23.9-2.4-26.5 0-48 8-48 17.9s21.5 17.9 48 17.9c8.7 0 16.9-.9 23.9-2.4 0 0 30.8-10.5 7.9-25.3"/><path d="M195.5 65.6c-18.4-4-36.5-2.1-43.4-.8-7.9 1.5-24.2 5.8-27.2 13.5-2.3 5.1 2.5 8.6 2.5 8.6s3.1-10.2 20.9-14.2c17.8-4.1 34.1-1.8 35.1-1.7 3.2.2 8.6.8 14.3 3 0 0 9.9 3.2 11.1 8.9 1.2 5.7-2 7.9-2 7.9s11.8-7.4 2.5-17.5c-7.3-6.5-13.8-7.7-13.8-7.7z" class="st73"/><path d="M147.1 77.6c-1.1 0-2.5.4-3.5 1-1.7.8-1.4 1.7-2.3 2.6-1 1-4.5 1.8-3.3 4.4 1.1 2.3 4.1.6 6.1 1.5 2.2.9 3.3 3 6 1.5 2.1 3.3-4.1 1.6-5.3 1.2-2.4-.7-4.8-1.5-7.4-2-1.9-.4-5.8-1.5-4.6-4.1.7-1.6 4.2-2.3 5.6-2.5.8-4.2 6-2.1 8.9-3.5" class="st24"/><g opacity=".4"><ellipse cx="173.3" cy="85.6" class="st77" rx="13.8" ry="3.1"/><path d="M159.2 85.7s-.6 4 12.8 3.8c13.4-.2 15.8-1.3 16.9-3.8 0 0 2.7 5.6-16.1 4.7-18.9-.8-13.6-4.7-13.6-4.7z" class="st77"/><path d="M189.7 85.3c1.7.4 1.2 2.7.2 3.5-1 .9-3 1.1-4.1 1.5 1.5 0 3.7.1 5-.9 1.4-1.1 1.2-3.5-.6-3.9" class="st77"/></g><path d="M165.3 76.2c-.3.2-.3.6-.1.9.1.3.4.6.5.9.2.7-.4 1.4-1.1 1.4 0 .2.2.3.4.4.2 0 .4 0 .6.1.2.1.3.4.1.5-.8.5-1.5 1.1-2.1 1.7-.1.1-.3.3-.3.5 0 .3 0 .5.1.8.1.3.4.5.6.3-.2.2 0 .6.2.8.2.2.4.5.6.7.9.8 2.3 1 3.5 1.1 2.1.2 4.2.4 6.2.7 2.6.3 5.1-.3 7.6-.9.7-.2 1.5-.4 2.2-.6-.3-.1-.5-.2-.8-.3.3 0 .6-.1.8-.3-.3-.1-.6-.2-.9-.1.3-.1.6-.1.9-.2-.3 0-.6 0-.9.1.4-.1.7-.2 1-.4-.5-.1-1.1-.1-1.6-.2-.2 0-.4-.2-.3-.3-.8-.2-1.6-.4-2.5-.5-.5-.1-.9-.2-1.3-.4-1-.5-2-.9-3.1-1.1.2-.1.3-.1.5-.2h-1.6c.2 0 .4-.1.7-.1-.1 0-.3 0-.4-.1h.1l-.1-.1c-.4-.1-.9-.1-1.3-.2 0 0 .1 0 .1-.1h-.2c-.2 0-.4-.1-.6-.2-.3-.2-.8-.1-1.2.1-.4.2-.7.4-1.1.4-.4 0-.9-.4-.7-.8.4-.9.7-1.8 1.1-2.7.1-.4.3-.8.2-1.1-.1-.3-.2-.5-.2-.8.1-.3-.3-.4-.5-.6-.2-.3-.1-.7-.1-1-.1-.6-.8-1-1.4-1.2-1.1-.4-2.4-.6-3.4.1-.7.5-1.1 1.3-1.3 2.1-.1.2-.3 1-.2 1.2.2.1 1-.1 1.3-.3z" class="st67"/><ellipse cx="167.3" cy="75.9" rx=".7" ry=".4"/><path d="M162.9 77.6l-.6.3c-.2.1-.3.4-.2.6.1.2.4.2.6.1.2 0 .5-.1.7-.1.3 0 .6-.1.8-.1.5-.1 1-.4 1.5-.7h.1c0-.1 0-.2-.1-.2h-.3c-.1 0-.2-.2-.2-.4v-1c0 .4-1.2.2-1.4.3-.4.3-.5.9-.9 1.2z" class="st78"/><path d="M166.4 78.9c.4.1.8 0 1.1-.3.1-.1.2-.2.3-.2.1 0 .3 0 .4.1.2.1.3.3.3.5 0 .1 0 .3.1.4.1.1.2.2.3.2 0 .3-.2.5-.4.6-.2.1-.5 0-.8 0-.3 0-.5-.1-.8 0-.1 0-.2.1-.3.1-.1 0-.1-.1-.2-.1-.2-.2-.6-.3-.5-.6 0 0 .6-.6.5-.7z" class="st72"/><path d="M164.9 79.4c-.7.3-1.4.7-2.1.7-.2 0-.3 0-.4-.1-.1-.2 0-.3.2-.5.9-.8 2.2-1.1 3.2-1.9 0 .4 0 .7-.1 1.1 0 .5-.5.5-.8.7z" class="st78"/><path fill="#ae6d51" stroke="#ae6d51" stroke-width=".25" d="M164.3 77c-.1 0-.3.1-.3.2h.4c.1 0 0-.1-.1-.2 0 .1 0 0 0 0-.1 0-.1.1-.1.2m-.8 1.3c0-.2-.1-.5-.3-.6s-.5-.2-.7-.1c-.2.1-.3.2-.3.4 0 .1.2.2.3.3h.4c.1 0 .3-.1.4-.1m.5 1.1c-.1.1-.3.2-.4.3s-.4-.1-.4-.3c0-.1 0-.2.1-.2.2-.3.5-.4.8-.6.2-.1 2.1-1.4 1.9-.5-.1.2-.7.4-.8.5-.5.2-.8.5-1.2.8z"/></g></switch></svg>
