<svg xmlns="http://www.w3.org/2000/svg" id="Capa_1" x="0" y="0" version="1.1" xml:space="preserve" viewBox="0 0 222 304"><style>.st1{fill:#d5e5c3;stroke:#769668;stroke-width:.25}</style><path fill="#d0e7c4" stroke="#669866" stroke-width=".25" d="M61.4 237l-.6-3.5-4.1-3.7-3.6-.2-.7 2.7-.7 1.5 2.5 2.6-.7 4.4-.5 5.7v2.9l5.7 5.1s2.5-3.2 2.9-3.5c.2-.2 1.6-1.6 2.2-2.9.7-1.3.7-2.6.7-2.6l-3.1-3.7V237h0zm-12.6-24.8V211l1.4-.6-.3-1-2.8-1.2-1.3-.7-3-.5-7.3-1.2-5.8 1.2-2.9-1.3-.1 1.5.1 2.4 1 3.2 4.8 4.3 4 4.3 3.3 4.3 1.2 1.6 2.4.2 2.3 1.8-.5-1.7 3.4-5.5H52v-2.5l-1.4-5.3-1.8-2.1z"/><path d="M136 130.9l-3.3-.8-2.3-2.2-5.5-6.9-1.1-5.8-5.2-2.2-4.7.3-6-1.7-1.7.6-2.6 1-1.8 2.8-3.4-.6-3.1 1.8v3.2l-3.4 2.8-.7 1.4v4.6l-3.4-.2-4.7 1.8-3.4.4-3.5.1 2.3 4.7 1.4 2.5-.3 2.3-2.2 2.8-1.9 1.2v1.3l2.3 1.5.7 2.3.6 2.8 6.2-3.5 7.1-.4 9 1.3 1.8 1.5 8.1 1.1 4.6-.7 1.9 1.2h5.9l2.2.6 1.2-3.6.7-2.1 5-.8 2.9-1.5-2.9-1.4-.6-3.7-1.9-2.9.1-1.2.9-.6 1.4.4 2.4.6 2.6-1.8.5-1.5-.7-1.6zm-21.2 88l-5-2.1-8.4 1-3.2 2.7-9 .2-10.1-1.9-2.2-2.7-1.7 2.1v2.5l3.2 3.9s2.5-.5 0 1.9c-2.6 2.4-2.6 6.3-2.6 6.3l4.5 3.6-.3 5.4 3.4-1.4 8-.5 5.8 2.4 3.8-.7 2.1-.3v-3.2l3.2 1.5.3-1.7.9-4.4 3.2-.5 2.7.3-1.8-2 3-2.3v-3.5l2.1-2 1.8-.1 1-.9-.7-2-4-1.6zm-66.3-16.6l-.6.3-6.8-.7-5.3-3.2-3-2.5-1.3-1.1-1.7 1.6-3.9 2s2.6 1.2 0 3-2.7 4.6-2.7 4.6l-6.2-1.8-5.7.8 2.1 5.4 2.9-4.2 2 1.7-1.2 3.4 2.8-3 .4 2.1 1.7 3.4.8 3.2 6.3 3.8v1.3h3l1 1.8 2.3.2 5.4 2.1-3.2-3.7-3.3-3.9-5.4-4.7-.8-3.6v-3.3l3.2 1.3 5.4-1.2 10.5 1.8 3.8 1.6v-3.1l-.8-4.8-1.7-.6zm-6.1-36l-3.1-.3v-2.5l-6-1.9.5 2.4-2 1.2-2.7-3.7v-1.7l-4.7-.5-4.3-1.9-.9 1.3-3.3-1.2L0 163.7l3.3 2.6.4 3.3 3.8 2.5 1.9 1.5 3.7 3.4 4.4 1.7 1.2-2.1 6-1.1 4.5 1.1 5.1.3.4-1.5 5.5-.7 1.7-1.8 1.4-1.8 3-2.3-1.8-2.4zm58.7-70.1l-2.1-4-.1-2.3 1-4.2-6.2-.3-4.9-1.2-8.6.6-6.1 2.1-1.7.9v2.1l1.4 1.2-.9 1.4 4.8 2.7 2.1-.5v3l1.1-.4 1.2-.1 3.2.4 3.1.9 4.4 2.4 3.9-.6 5.2 1.5-1.2-3.3zm-34.3-4.3l-1 .7h.3l1.2-.3zm.5-3.2l-3 .9 2.5 2.3 1.9-1.5z" class="st1"/><path d="M66.1 92.6l-3.7.9 1.9 3.2 6-2.1-.3-1.8zm19.3 158.1c-.8-.1-2.9-.9-1.9.9.3.6 1.9 1.6 2.5 1.8-1 .1-1.8-.6-2.6-.2.1-.5-.3-2.2-.6-2.5-.6-.6-1.7-.8-2.4-1.4-.1-.1-.7-.8-.7-.9.1-.5 1-.4.9-.9-.1-.6-.8.2-1.1.3-.4.2-.8.3-1.2.4 0 .4-.3.5-.3.8s.3.5.3.8c.1.7-.3 1.1-.5 1.7-.2.7.2 1.1.6 1.6.5.5.6.9.9 1.5.6 1.1 1 1.9 2 2.9.8.8 1.9 1.8 1.4 2.9-1 .2-.6-1-1-1.4s-1.5-.6-1.7.2c-.2 0-.3.1-.5.1-.1 1.2 1.9 1.8 1.2 2.8-.6 1.1-2.1.4-3 .5 0 .3.1.5.4.6.4.3 1.6.4 2 .5.6.1.6.1 1.1.4.4.2.3.3.7.5.2.1.9.1 1 .3.3.3-.2.4 0 .7.4.6 1.3.2 1.8.6s.4.9 1 1.3c.6.3 1.3.2 1.8.7.9.7 0 .8-.1 1.4-.1.4.4 1.3.5 1.8v2.2l-.5-.2v-.4c-.5-.1-.2-.4-.6-.7-.3-.2-.7-.1-.9-.3-.7-.5-.3-1.2-1.5-1.1.1-.3.2-.6.2-.9-.8-.2-1.9.8-2.6 1-.5.1-1.4-.1-1.4.5 0 .7.8.4 1.2.6-.2.5.1 2.2 1 2 .1-.5.4-.3.6-.1 0 0-.3.3-.2.5.1.1.3.1.4.2.1.2.8.1.6.6-.1.2-.9.1-1.1.2-.5.1-.7.1-1 .4s-.1.7-.6.7c-1.1-.1-.1-1.3-.1-1.6-.6.1-.9-.5-1.4-.7.2.1-1.1-.1-.8-.2-.5.1-.3 0-.5.5-.2.9.7 1.2 1 1.8.2.3.1.7.2 1s.3.5.4.7c.2.6.3 1.2.6 1.8.3.7.6.9.2 1.5-.2.3-.7.2-.6.6 0 .3.4.4.6.6s.4.2.6.5c.2.2.1.4.4.6-.5.6-.6-.2-.9-.3-.1 0-.3-.2-.5-.2-.1 0-.2.4-.4.4-.6-.2-.4-1.7-.9-2.3-.7-.8-1.7-.5-2.2.4-.4.8.1 1.5 0 2.3-.5.1-.8-.4-1.3-.5 0-1 .5-1.9.1-2.9-.2-.5-.7-.5-1-.8s-.2-.9-.7-1c-.6-.2-1.1.5-1.2.8-.1.5.5 1 .3 1.4-.3.7-.7.2-1.2 0-.7-.4-.5-.3-.7-.9-.3-1.3-1.6-2-.5-3.4.3-.4.5-.2.6-.8 0-.2-.1-.6-.3-.8-.3-.5-.9-1-1.4-1.4-.2-.1-1-.3-1.1-.4-.2-.2.1-.6 0-.9-.2-1-1.2-.2-1.5-1-.3-.6 2.1-1.8 2.2-2.8.4.2.7.4 1.2.3.8 0 .6-.2.9-.7.6-1 1-1 2.1-.4.8.5 1.5 1 2.5 1.1.9.1 1.9.3 2.5 1.1l.9.6c.3.2.7 0 .9-.3-.3-.2-.5-.4-.5-.7.8.2 2.6.1 2.1-.7-.6-.9-2.1-.1-2.5-.9-.5-.1-1.1-.4-1.2-.9-.3.1-.5.5-.7.7-.1-.9-2-2.3-1.6-.7-1.5.1-2.6-.4-4-.1-.4.1-1.2.4-1.6.4-.8.1-1-.4-1.6-.9.1.5-.4 1.1-1 .9s-.5-1-.6-1.4c-.1-.5-.3-1.1-.7-1.5-.1-.2-.5-.2-.7-.5-.1-.2-.1-.6-.2-.7l-.1.2c-.2-.1-.5-.1-.8-.1-.1.7.6 2.2-1.1 1.6-.1-.4.2-1.2.4-1.6.1-.2.4-.3.6-.5.2-.3-.1-.4.3-.6.5-.3 3.1.7 2.5-.4l-.2-.6-2.7-.4-2.7-2.8-2-3 5.1-5.9.6-3 3-1.4 8.3-2.3 6-2 8.1-.7 5.7 2.3 6.2-1.1-.2-3 2.1.7 1.7.9-2.1 1.1-.6 2.4-.2 2.8-3.5-.4-2.7-.6c-.6-.2-1.2-.2-1.9-.3.2-.4.2-.8.2-1.2-.7 0-.8.9-1.1 1.2-.4.4-1.1.6-1.7.5-.7 0-1-.5-1.6-.7-.3-.1-.9 0-1.2.2s-.2.5-.4.7c-.4.4-1.1.7-1.7.9-.8.2-1.2-.3-1.9-.2-2 .3.7 1.9.7 2.3-.8.3.3.9.8.8 0-.1.1-.2.1-.3.3.8 1.1.9 1.7 1.4.5.5 1 1.9 0 1.1-.3-.2-.3-.7-.6-.9-.5-.4-.6-.1-1.2-.2-.4-.1-.5-.5-1-.6-.4-.1-.9.1-1.2.2-.2.7.7 1.2 1.2 1.6.8.6.9.9.6 1.8-.6-.1-1.5-.9-1.5-1.6l-.3-.9z" class="st1"/><path d="M93.3 246.6c.2 1.2-1 1.3-1.7.7-.4-.4-.6-.4-.2-1 .2-.4.4-.5.9-.7l1 1zm-10 14.7c-.3-.5-1 .3-1.5 0-.3.4-.5.7-1 .8v.5c1.1-.1 2.3 1.4 3.1 1.9.5.4.8.5 1.1 1 .4.8 0 .8 1.2.9 1.3.1 2.4.3 2.9 1.7.2.6 0 1.1.4 1.6s1 1 1.3.2c.5 1.5 1.2-.5 1.2-1.2-2.4.4-2.9-1.4-2.7-3.3-.7-.1-.4-.8-.8-1.1-.3-.2-1.4-.2-1.8-.3-.3-.1-.5-.3-.8-.4s-.7-.1-.9-.2c-.4-.2-1.1-.7-1.1-1.2l-.6-.9zm1.5 29.7c-.3.6-.7 2.5-.4 2.9.4.4 1 .2 1.5.1.7-.1 1.2 0 1.9.1 1.2.3 2.5.4 3.7.9.2.1.4.3.6.4s.7-.1.9 0c.6.4.1 1.1.1 1.6.8.3 2.2-.4 2.9-.5 1.3-.2 2.7-.3 3.9-.4.9-.1 1.9.1 2.8-.1 1.4-.3.8-1.1.9-2.1-.6.5-.6.3-1.3.4-.5.1-.9.4-1.3.6-1.1.4-1.2-.4-.9-1.3-.9 0-1.6.3-2.3.1-.4-.1-.7-.3-1.2-.4-.5 0-.9 0-1.3-.1.1-.7-.8-.5-1.3-.6-.8-.2-.9-.2-1.7.1-.5.2-1 .4-1.6.4-.9 0-.9-.1-1.2-.8-.3 0-.5-.1-.8-.2 1.1-.1.9-1.2-.2-1.1-.2 1-1.1.7-1.9.6 0-.5-.2-1.1-.7-1.3-.2.5.1.8.1 1.3-.2.1-.5.1-.4.1l-.8-.7zm-21-25c-.1.2-.1.5-.2.8-.2.2-.4.3-.6.4-.4.4-.5.9-.5 1.6.3-.1.4-.1.5-.5.5.5.3.9 1.1 1.2-.2-.1.8.1.7.1.5-.1.6 0 .6-.5 0-.4-.9-1.1-1.1-1.5-.2-.5.2-1.4-.5-1.6m.8 4.7c-.8.7 0 2.6 1.2 2.4 0-.2.1-.4 0-.6.4 0 .6.2 1.1.1-.1-.2-.4-.6-.6-.7-.3-.2-.7-.4-.9-.6l-.8-.6zm15.8 13.6c-.3.2-.3 1.3-.2 1.6.3.4 1.3.7.9-.1.1-.1.1-.2.2-.3l-.9-1.2zm36.9-.7c-.1.4-1.6.7-2 .9-.6.3-1 1.5-1.5 1.5-.3.5.2.6.3 1 .1.3-.4 1-.3 1.3.6.8 1.8-.7 1.8-1.3.2 0 .5-.1.8 0 .1-.4.1-.6.3-.9.2-.4.5-.5.6-.9v-1.6zM101 267.8c1.8-.9-.6-1.7-.3-2.7.6-.3 1-.2 1.6-.1.3.1 1.1.3 1.4.7-.3.1-.6 0-.9-.2.1.7-.3 1.3.2 2-.2 0-.3.2-.5.2.1.2 0 .4.2.6-.7-.1-.4.6-1 .6-.5-.1-.8-.7-.7-1.1m1.9-9.8h1.2v.3h.4c0 .8.1 1 .7 1.6.2.2 1.5 1.4.4 1.2 0-.4-.2-.7-.6-.8-.6.5.5.7.6 1.1-.4.3-1.9.5-2.1-.2-.5.1-1.1 0-1-.6.7 0 1.3-.4 1.2-1.2-1.1-.3-1 1.4-2.2.8-1-.5-1.1-1.6.3-1.4l1.1-.5v-.3zm-35-78.2l-2.1-1.6s-1.5-2.7-5.4-.2c-3.9 2.6-7.4 3.3-7.4 3.3l-2.6 1.1s-.7-2.1-2.3.3c-1.5 2.4-6.9 2.4-6.9 2.4l-4.9-2.1-6.5 8.7 1.5 3.5 4.5 3.9 5.1 2.8 6.8.6 4.7-2.3 7.6-.2 1.9-1.4 1.7-1.8 1.5-1 1-1 4.7-8.1 3.3-2.3 1.8-1.7-5.9-3.2-2.1.3zm35.8-72.4l-.7-1.4-.5-1.8-.4-2.4-5.3-1.4-4 .4-6.1-3-5-.8-2.6 1-.4 1.8 1.2 4.6-4.8 2.4-3-2.6-.8-1.8-4.6-2.4-5 1.4-1.4 2-.2 1.6-2 2.6.6 6.4 9.6-3.2 10.1 1.1 5.8-1.7.1 2 1.7.4 3.1 1 2.1 1.2 2.2 1.2 1.9 1.1 3.1-1.6 3.7.7 2-3.1 2.8-1.6-2.2-2.8zm-25.6 40.4l-1.4-1.2s-3.4-.8 0-2.6 3.4-5.4 3.4-5.4l-3-4.6-1.6-4.2-3.8-1.2h-8.6l-11.8-1.4-2.4 1h-4.4l-2.6-2.6v-1h-4.6l-3.6.8-4.6 1.8-1.4 1.2-12.2 3.6v2l-1 1.2 1.4 3.4-1.8 2.2 2.2 2.8 1.4 2.8-.2 3.8 2.4 4v3l4.8 2.2 4.4.4v1.8l2.8 3.6 2-1.6-.4-1.8 5.6 1.8v2.6l5.4.2 2 2.4 1.4 2 3.2-1.4 3.4 3.2 6.4-1.6 3.8-.8 3.6 1.6 3.2 1.6 1.9.5.7-1 .1-.4-.6-1.2-.3-1 2.9-5 5.2-3.4 1-3.7-3.8-5.4-.5-5z" class="st1"/><path d="M118 207.2l-3.4-2.8-1-4.8 1-4.8-1.6-3-4.2-4.6-3.4-4-3.1-3.3-9 3.7-2.9 1.9-3.2-1.7-9-2-2 1.2-.9-.3-1.2 1.7-3.2 2.4-4.6 7.8-2.8 2.4-3.4 3 4.4 5 2.4 3.6 2.8 3.6 3.8 1.4 1.6-.7.6 1.3 1.8 2.6 1.4 2.1 6.4 1.2 3.8.8H98l3.4-2.8 8-1.3 4.6 1.9 5.2 2.2v-4.1l1.4-5.2.2-2 2 1h2.6v-3.2l-3.2-2zM221.9 105c0-31.9 1.1-60.9 0-92.7l-13.7 5.9V21l.2 2-6.6 1s-7.8-1.6-10.6-3.8 2.8-3 2.8-3l6-1-4.6-4.8-11.8-.2-3.2-1.2 5.8 6-.4 5 3 2 .4 6.8-3.6-.6-1.6-1.4-4.8-1.2-1-.2-7.6 5-5.6 3v1.4l6 5.8s-1-.8-3.6-.4-8.2-1.4-8.2-1.4l-5.2-1-4.4-1.8-3.4 2.2s3.2 4 6.4 4 5.2 3.2 5.2 3.2l-5.2 1.4-5.4-1.6-5.2-3-4.2-.8-3.2-5.8-2.2-1.4 2.8-3.2-6-3.4-6.8-3.4-6.4-4 5.2.6 5.8 2.4 8.8 2 11.2 2.2 10.4 1.8 9.4-2.6 4.6-4.4-.4-1.6-3.8-4.2-8.4-2.4-9-4.4-16.6-5-9.8-.2-2.6 1-7.2-4h4.2l-6-2.4-5.6 2.8-9.8 3.6-1.4 6.4 4.8 2.2 3.6 2.4.1 1.5-4.2 3.7v1.3l7.2 8.4-.3 1.1-1 2.7.3 3.6 2.7.7.1 3 3.3 1.4-2 4.2 5.4 2.9 3.6 2.7v2.1l-3.3 3.8-10.1 8.9-5.1 3.7-1.8 1.7 5.5-1.5-.3 1.8 3.1 2.4h4.9l2 1.9-5.4-.7-2.4 1.8-1.5-.6-1.2 1.8-2.2-1c-.1 2.5-.5 4.3-1.4 6.6-1.6 3.9-.6 6.2 1.8 9.3l-.7 2.3c1.2 1.6 1.3 4.4 1.9 6.1.4 1.3 2.3 4.6 3.4 5.5 3.4 2.7 8.9 3.5 13 2.9l5 2.1.5 2.4c.4 2.1 0 3.7 1.6 5.5 1.1 1.3 2.2 2.6 3.4 3.9.9.9 1.8 1.7 2.8 2.5 1.3 1.1 1.9.7 3.5 1.3 1.5.6 3 2.7 2.1 4-.6.9-2.2 1.6-3 2.3-.2.2-2-1-2.4-1-4.4-.4-.4 4 0 5.5.3 1.1.5 2.2.7 3.3.8.2 1.7.7 2.6.7 1.3 0 2.3-1.3 3.3-2.1l8.7-.7 1.6 1.4 1.4 3.8 1.8 4.6 5.2.8 4.4 6.4h4.4l3.2 1.2 4.8-1.6 4.4 4.2 5.6.8 10.2 3.2-.4 2.4-1.4 3.6 1 6.8-1 .8-7.8 3-1.2 4 7.6-1 .6 1.8-9.4 3.6v1.4l4.7 3.2-2.5 1.4-3 3.4 2.6 2.4-7.3-.8-.8 1.9 6.1 4.3 3.4.4 7.6 4.6 8.1 6 2.5-.6 6.4 1.6 7.3 1.3 3.2.2h1c-1.5-38.6-.8-80.3 0-118.6z" class="st1"/><path fill="#c9c9c9" stroke="#959595" stroke-width=".25" d="M206.3 5.1l1.2 3.3 2.1.6 5.1-.6-.5-.6c-.1-.4-1.6-1.8-1.7-2.2-4.5-2.4-6.2-.5-6.2-.5z"/><path d="M78.9 226.5c-1.7 1.6-3.4 3.6-3.5 6-4.1.4-8.1 1.2-12 2.3-.5.1-1 .3-1.5.2-.6-.1-1-.4-1.5-.8-1.1-.8-2-1.8-2.9-2.9-.1-.9 1.2-1.5 1.8-.9.3.3.4.7.7.9.6.4 1.5 0 1.7-.7s0-1.5-.2-2.2c1.1-.2 2.1-.4 3.2-.7.4-.1.9-.2.9-.6 0-.3-.3-.6-.6-.7-1.2-.7-2.6-.8-4-1.2-2.3-.6-4.5-1.6-6.5-3-.5-.3-.9-.7-1.3-1.2-.5-.7-.6-1.6-.8-2.4-.4-1.8-1.2-3.5-2.3-5-.2-.2-.3-.4-.3-.7-.1-.8.9-1.2 1.7-1.4-.8-1.4-1.2-3-1.3-4.6-.1-.9 0-1.8-.2-2.6-.2-.9-.7-1.7-1.6-2 1.2-1.6 3.5-2 5.5-2.2 2.5-.3 5-.5 7.4.1.6.2 1.2.4 1.7.8s.8 1 1 1.5c.7 1.4 1.5 2.9 2.2 4.3.9 1.8 1.9 3.6 3.5 4.9 1.6 1.3 3.9 1.8 5.6.8.6.8 1.1 1.7 1.5 2.6.1.2.2.4.1.6 0 .4-.5.7-.8.9-1 .8-1.5 2.2-1.2 3.4s1.3 2.2 2.2 3c.5.4.9.9 1.5 1.1.3.1.6.2.8.5.4.9-.1 1.5-.5 1.9zm-14.2-56.3l-10.4 2.3-2.9-3.3-3.7 1.7-1.5-2.1-3.3 2.6-2.3 3.3-5.8.8-.5 4 2.1 3.5 5.2 2.2 5.9-1.4 1.4-1.8 1-.3.8.9 8.7-3.9 3.6-1.8 1.6.3 1.4 1.1 2.1 1.6 1.7-.4 1.1-1.9 1.8-2.3.2-1.3-1.4-.8zm-53 26l-1.1 1.9v2.1l1.8 2.4-1 2.8 2.7-.3 2.8-.3 6.1 1.4 1.7-3.1 2.2-2.2.2-1.3-.9-.8 1.8-1.1 1.5-.7 1.3-.8.7-1.2-1.1-2.1-2.6 1.5-1.6.2-3.6.4-.9.5-2.9 1.3z" class="st1"/><path fill="#c4c6c4" d="M222 257.2c.3-5.9 0-10.2 0-16.1l1-4.3-1.1 1.8-7.5-.2-8.4 5-5.4-2.1-7.4 1.7-5-1.9-1.4.9-4.3-1.3-1.4-1-2.4.4-3.5-3.4-3.2-.1-2.8-.9-1.6-2.8-2.3 1.2-10.1-.9-10.7 5-2.7 1.3-.2 1.8-7.8-.6-3.1.4-4.4-.8-1.3.9-1.2-1.3-3.6-1.9-3.4-2.6-.2-1.4-5.7-1-3.4.4-.9 4.7v1.4l-1.9 1.5-.3 2.4-.5 1.5.3.9 6.2.3 1.5-.8 2-2.8 2.8.1 1.9-1.2 3.1.5 4.1-.4v1.5l1.7 1.1 2.9.6-5.6 1-.8.9 1.7.9-5 .3-2.7-.2-1.7-.6-.4 1.3-4.4-.8-2 .1-1.7-.4-1.9 1.2-.1 1.5-.9 2.4v3.3l4.4-.5 1 .6-1.4 2 1.2 1.4.3 1.7.7.6-.4 1.8.4 2.2-3.7-2.1v3.8l2.3.2 2.1 1.2 1.5 1.2.5 1.5-.9.4-1.4-.9-2.7.6 2 1 1.7-.4 1.8 3.1 2 1.4-.7.7 1.3.8h4.3l-1.5 1.6 1.1 1.6 2.5-1.5 2.4 1h2.2l1.4 3.6 3.8 1.5 3.4-1.2 2.2.5.4-3 .2-2.5 2.8-.2 4.9 1.5 3.1 1.8 5.2 4.1 4.6-.9 5.5-1.4.5-1.4 3.3-3.3 4.4 1.4 1.6.6 1.2-.4.1-.6 3.1-1.7 1.3 1.9-1.2 1.4-1.8 2 2.3 3.4 1.8-.6 2.1-3.1-.6-3.4 1.5-.7 4.3 1.1 6.3-2.3 3.9 1.9 5.6.1 6.7-2.5 4.4-.9h4.2l1.5-1.3.6 1.1-.6-1.1c.8-7.2.1-13.1.1-18.8z"/><path d="M125 241.3l-1.2-1.3-3.7-1.9-3.4-2.6-.2-1.4-5.7-1-3.4.4-.9 4.7v1.4l-1.9 1.5-.3 2.4-.5 1.5.4.9 6.2.3 1.4-.8 2-2.8 2.9.1 1.9-1.2 3.1.5 3.3-.4m59.7-77.9h-5.5l-4.4-4.1-8 .3h-5l-4.1-6.3-5.5-.8-2.7-8.6-2-1.4-9.1.6-1.1 1.7-4.9 2.3-4.9 1-1.8 5.4-2.4-.6-6 .2-1.6-1.2-4.4.6-8.2-1-2-1.6-8.8-1-7.2.2-6.4 3.6 3.8 5.4-.8 3.8-5.4 3.2-3.2 5 1 2.6-4.4 6.6 6.4 3.6 2.2-1.2 8.8 2 3.2 1.6 2.8-1.8 10-4 7-.6 3.8 3.2h3.2l3.8 3.6v2.8l2.2.8v3s1.2-.6 3 1.8c.3.4.5 1.6-1 2.2-1.6.6-4.9.5-4.5 1 .2.2.2 3.5-2.3 6.2-1.7 1.9-.5 3.5-.4 3.7.2.2 3-1.5 4.2-1.8.9-.2.8 1 1.3.4 1.2-1.6 5.1-4.9 6.3-5.7.3-.2-2.3-2.9-2.1-3.1.6-.4 3 1.7 3 1.7l1.5-3 4-1.2h1.6l2.4.2 1.6 1.2-1 2.2 3.2 1.8 4-.6 6.2-.6 1.2 1-1.6 1-2.4 1.8-4.8 2.8 2.6 1.4 4 1.2 1.2 1.8-1 3.4 3.2 2.2 4-3.2 5-2.4 2.2-1.8s2.4 1.2 3 1.2 2.8-.4 2.8-.4l.8-2.4-3-1.2-3.4 1.2-3.6-.6-5.2-4.4-3.2-1.6 1.8-1.6 4.6.2 6.4-3.8 6.4-1.6 6.4-1.8 2.3-3.3 1.1-3.6 4.7-1.7 4.7-2.2-1.7-6.6 2.2-6.6-10.1-3.7z" class="st1"/></svg>
