<svg xmlns="http://www.w3.org/2000/svg" viewBox="0 0 138 79"><linearGradient id="a" x1="-6251.784" x2="-6396.282" y1="1143.613" y2="831.264" gradientTransform="matrix(.4178 0 0 -.4178 2722.023 518.065)" gradientUnits="userSpaceOnUse"><stop offset="0" stop-color="#c89632"/><stop offset="1" stop-color="#663817"/></linearGradient><path fill="url(#a)" stroke="#663817" d="M137.9 36.4c-1.5 8.4-1.1 19.7-10 23.5-2.9 1.2-5.9 1.6-8.7 2.3-2.5.6-5.8.2-8 1.3h-2.4c-2.3-.9-5.5-.6-8-1.3-2.9-.7-5.9-1.3-8.7-2.3-9-3.6-8.6-15.1-10-23.5 0 0 12.5 8.3 28 6.6 15.3-1.8 27.8-6.6 27.8-6.6z"/><path fill="none" stroke="#976928" stroke-width=".5" d="M87.6 43c1.8 7.5 8.9 14.5 14.1 19.3m-6.2-17c1.7.9 2.8 4.1 4.2 5.6 1.3 1.5 2.6 3.1 4 4.6 2.1 2.2 6.3 5.3 7.3 8.3m-5.4-17.3c2.3 3 5.4 6.1 8.1 8.7 2.1 2 4.5 5 6.5 6.5m-3.8-15c2.4 1.6 4.2 5 6.4 7 2 2 4.7 4 7 5m-5.2-13.1c1.4.7 2.9 3.6 4.7 4.9 1.4 1 3.9 1.6 4.8 2.5m-1.9-10c.8 1.6 2.7 2.1 3.9 3.1m-3.3-2c-1.3 1.9-2.2 4.4-4 6.1m-4.4 5.4c-1.1 2.2-3 3.6-4.6 5.6m-.7-11.2c-1.5 1.4-2.9 4-4.6 5.7m-5.5 5.4c-.3.7-1.1 1.4-1.5 2.1m-10.6-5.5c1.5-.5 3.7-2.3 4.8-3.7m-9.9-2.2c2-1.3 3.5-3.2 5.4-4.8m9.8 1.2c.1-.2.7-1.1 1.2-1.5"/><path fill="#c89632" stroke="#663817" d="M137.9 35.2c0 6-12.6 10.8-28.3 10.8-15.6 0-28.3-4.9-28.3-10.8 0-6 12.6-10.8 28.3-10.8 15.6 0 28.3 4.8 28.3 10.8z"/><path fill="#663817" stroke="#663817" d="M134.2 35.5c0 4.1-11 7.5-24.5 7.5s-24.5-3.4-24.5-7.5 11-7.5 24.5-7.5c13.4-.1 24.5 3.3 24.5 7.5z"/><path fill="#e9d8ac" stroke="#e9d8ac" stroke-width=".843" d="M120.2 30.4c1.3-5.7 5.5-9.5 9.5-8.4 4 1.1 6 6.5 4.6 12.1-1.3 5.7-5.6 9.5-9.5 8.4-3.9-1.1-5.9-6.5-4.6-12.1z"/><path fill="#fceec8" d="M120.2 31.3c1.3-5.5 5.4-9.1 9.2-8.2 3.8 1 5.9 6.2 4.6 11.8-1.3 5.5-5.4 9.1-9.2 8.2-4-1.1-5.9-6.3-4.6-11.8z"/><path fill="#e9d8ac" stroke="#e9d8ac" stroke-width=".843" d="M86.9 38.5c-3.1-4.9-2.9-10.7.4-13.1 3.4-2.3 8.6-.4 11.7 4.6 3.1 4.9 2.9 10.7-.4 13.1-3.3 2.3-8.5.3-11.7-4.6z"/><path fill="#fceec8" d="M87.8 39.3c-3-4.7-2.9-10.4.4-12.6 3.3-2.3 8.3-.4 11.3 4.4 3 4.7 2.8 10.4-.4 12.6-3.4 2.2-8.4.3-11.3-4.4z"/><path fill="#f2f0ed" stroke="#f2f0ed" d="M92.7 30.4c-2.4-5.3-1.5-11.1 2.2-12.9 3.7-1.9 8.6.9 11 6.2 2.4 5.3 1.5 11.1-2.2 12.9-3.7 1.8-8.6-1.1-11-6.2z"/><path fill="#fff9f0" stroke="#fff9f0" d="M93.2 31.1c-2.4-5.1-1.4-10.7 2.1-12.5 3.5-1.7 8.3.9 10.6 6.1 2.4 5.1 1.4 10.7-2.1 12.5-3.5 1.7-8.2-1-10.6-6.1z"/><path fill="#e9d8ac" stroke="#e9d8ac" stroke-width=".843" d="M87.2 70.9c-5.3 1.9-10.6.1-11.8-4-1.2-4 2-8.8 7.3-10.6 5.3-1.9 10.6-.1 11.8 4 1.2 4-2.1 8.7-7.3 10.6z"/><path fill="#fceec8" d="M88 70.3c-5.1 1.9-10.3.1-11.5-3.7-1.2-3.9 2-8.5 7.1-10.3 5.1-1.9 10.3-.1 11.5 3.7 1.1 3.9-2 8.5-7.1 10.3z"/><path fill="#e9d8ac" stroke="#e9d8ac" stroke-width=".843" d="M99.1 67.2c-5.2-2-8.4-6.9-7-10.9 1.4-4 6.8-5.5 12-3.5s8.4 6.9 7 10.9c-1.4 4-6.8 5.5-12 3.5z"/><path fill="#fceec8" d="M100 67.4c-5.1-2-8.1-6.7-6.7-10.5 1.4-3.9 6.5-5.4 11.6-3.4 5.1 2 8.1 6.7 6.7 10.5-1.3 3.8-6.6 5.3-11.6 3.4z"/><path fill="#f2f0ed" stroke="#f2f0ed" d="M91.4 76.8c-5.5-.2-9.9-4-9.8-8.2.2-4.2 4.9-7.4 10.4-7.1 5.5.2 9.9 4 9.8 8.2-.1 4.2-4.8 7.4-10.4 7.1z"/><path fill="#fff9f0" stroke="#fff9f0" d="M92.3 76.7c-5.4-.2-9.6-3.9-9.4-7.8.2-4.1 4.7-7.2 10.1-7 5.4.2 9.6 3.9 9.4 7.8-.1 4.1-4.6 7.2-10.1 7z"/><path fill="#e9d8ac" stroke="#e9d8ac" stroke-width=".843" d="M101.9 24.6c1.2-5.7 5.4-9.6 9.3-8.7 3.9.9 6.2 6.3 5 12-1.2 5.7-5.3 9.6-9.3 8.7-3.9-.9-6.2-6.2-5-12z"/><path fill="#fceec8" d="M101.9 25.7c1.1-5.6 5.2-9.3 9-8.4 3.8.9 6 6.2 4.8 11.7-1.1 5.6-5.2 9.3-9 8.4-3.7-1-5.9-6.2-4.8-11.7z"/><path fill="#f2f0ed" stroke="#f2f0ed" d="M124.4 35.1c-.4 5.8-4 10.4-8.1 10-4-.4-6.8-5.3-6.4-11.2.4-5.8 4-10.4 8.1-10 4 .4 6.8 5.3 6.4 11.2z"/><path fill="#fff9f0" stroke="#fff9f0" d="M124.3 34.1c-.4 5.7-3.9 10-7.8 9.7-3.9-.4-6.7-5.2-6.3-10.8.4-5.7 3.9-10 7.8-9.7 3.9.3 6.7 5.1 6.3 10.8z"/><path fill="#e9d8ac" stroke="#e9d8ac" stroke-width=".843" d="M102.6 35.7c-.8-5.7 1.8-11 5.9-11.6 4-.6 7.8 3.6 8.6 9.5.8 5.7-1.8 11-5.9 11.6-4 .6-7.9-3.6-8.6-9.5z"/><path fill="#fceec8" d="M102.9 36.7c-.8-5.6 1.7-10.6 5.6-11.2 3.9-.6 7.7 3.5 8.4 9.1.8 5.6-1.7 10.6-5.6 11.2-3.8.7-7.6-3.5-8.4-9.1z"/><path fill="#c89632" stroke="#663817" d="M85.2 28.7s-3.6 3.3-3.9 6.5c-.3 3.2.7 2.6 4 5.6 5.9 5.1 22.1 5.7 25.8 6 6.3.5 13-1.9 16.4-3 3.3-1.2 7.7-3.6 8.4-4.3.7-.7 2.4-2.6 2.1-4.1-.2-1.5-1.5-3.6-2.1-4.1-.5-.5-1.1.7-1.1.7s.4 1.3-.1 4.1c-.8 4-12.5 6.9-20.2 7.4-7.7.5-23.2-.9-26.1-3.6-2.8-2.8-3.4-4.9-3.3-6 1-4.4.1-5.2.1-5.2z"/><path fill="#c89632" stroke="#663817" d="M107 44.4c-2-3.1-4.6-11.7-4.3-15.8.2-4.5.2-8.2 2-13.4 1.2-3.6 6.3-13.4 9-1.1 1 4.2 2.5 5.4 2.9 9.3 1.6.2 6.6.6 7.2-.2 0 0-7.3-37-23.1-17.3-2 4.6-2 4.6-2.4 8.3-3.7 16-4 28.6-4 28.6l12.7 1.6z"/><path fill="#ffce00" d="M73.1 62.3c0 9.1-16.3 16.7-36.4 16.7C16.5 79 .2 71.6.2 62.3c0-9.1 16.3-16.7 36.4-16.7 20.2.1 36.5 7.6 36.5 16.7z"/><path fill="#ffcf48" d="M72.9 62.8c0 8.9-16.3 16-36.4 16-20.2 0-36.5-7.2-36.5-16 0-8.9 16.3-16 36.4-16 20.2 0 36.5 7.1 36.5 16z"/><path fill="#e2b23b" stroke="#e2b23b" d="M66.3 62.6c0 6.8-13.1 12.1-29.3 12.1-16.2 0-29.3-5.5-29.3-12.1S20.8 50.5 37 50.5c16.2-.1 29.3 5.3 29.3 12.1z"/><path fill="#fff" stroke="#c9c9c6" stroke-width=".339" d="M19.3 55.1c.9-2.3 10.2-3.2 9.5-.1-.1.5-.7.5-.4 1 .1.4.7.5 1 .6.9.2 1.7.6 2.6.7.8.2 1.5.4 2.3.7.9.5 1.5.7 1.6 1.9.2.9-.2 1.5.7 1.9s1.5.5 2.3 1.4c1.1 1.6.4 4-.8 5.2-1.5 1.5-3 2.8-5.1 3.3-1.7.4-2.9-2.1-4.1.5-.3.8-.2 1.5-1.1 2.1-.5.5-1.5.6-2.1.6-1.8.2-2.9-.9-4.6-1.9-.7-.4-1.4-.7-2.1-1.4-.4-.4-.6-.6-.7-1.2-.1-.2.2-1.2.1-1.3-.2-.5-1.3 0-1.8-.1-.8-.1-1.4-.5-2.2-.7-.8-.2-1.5-.6-2.4-.7-.8-.1-1.7.1-2.1-1-.2-.6.1-1.5.1-2.2 0-.4-.2-.7 0-1.1.2-.6.8-.6 1.1-1 .2-.6-.2-1.5-.2-2.2.2-1.1 1-1.5 1.7-1.9.7-.5 1.2-1 2-1.5.6-.6 1.3-.2 2-.5.8-.2 2.9-.2 2.9-1.6"/><path fill="#f0c318" d="M32.7 62.7c0 2.7-3.1 4.9-7 4.9-3.8 0-7-2.2-7-4.9s3.1-4.9 7-4.9c3.8.1 7 2.3 7 4.9z"/><path fill="#070808" d="M21.8 58.9c-1.3.6-2.4 2.6-1.2 4.2 1.1 1.5 2.8 1.5 4.2 1.9 1.5.4 2.9.6 4.3 0 1.1-.5 4.1-2.3 3-4 .1 1.1.2 1.9-.2 2.9s-1.5 1.9-2.3 2.5c-1.7 1.2-3.6 1.3-5.5.9-2.1-.4-3.8-1-5.1-3.2-1.3-2.3.8-4.9 2.5-5.7" opacity=".08"/><path fill="#fbfcfa" d="M23.1 60.1c1-.8 3.6-.6 4.2.8-1.5.5-2.6-1.3-4.2-.4-.2.2-.2.2 0-.1" opacity=".38"/><path fill="#fffff9" d="M39 64c-.5-.2-1.2 0-1.5.6-.2.6.3 1.3.2 1.9-.2.7-.9.6-1.3 1.2s-.1 1.3-1 1.3c.9-.2 2.7-.7 3.3-1.7.2-.5 1.3-4.1.2-3.3"/><path fill="#070808" d="M13.4 62.1c.2-.1.2-.1 0 0-.7 0-1.8.7-2 1.5-.2 1.2.9 1.9 1.5 2.5 1.2 1.1 3.3 1.4 4.8 1.6.8.1 1.2-.2 2 .2.9.6 1.1 1.7 1.5 2.7 1.1 1.6 2.5 2.3 4.1 2 .7-.1 1.4-.2 2-.6.9-.6 1-1.5 1.6-2.2 1.3-1.1 2.7.1 4.1 0 1.6-.1 3.1-1.2 4.1-2.8.4-.8.8-1.4.4-2.3-.3-.9-1.1-1.6-1.6-2.3-1.2-1.1-1.3-3.3-2.8-4-.6-.2-1.4-.2-2-.6-.5-.2-1.5-.2-1.8-.6.7.2 1.1.2 1.8.4.8 0 1.3.5 2.1.6.6.2 1.2-.1 1.8.2 1 .4 1.1 1 1.4 2 .2.9.5 1.7 1.2 2.2.8.6 1.1.6 1.4 1.7.5 1.9.5 3.3-.9 4.6-1.1.9-2.7 2.2-4 2.5-.7.2-1.2-.2-2-.2-.8.1-1.3-.1-2.1-.1-1.8 0-2.2 2-3.4 3.1-1.1 1-2.8.2-4 0-1-.2-2-.7-2.8-1.4-.4-.2-.9-.7-1.2-1.1-.7-.7-.4-.6-.4-1.5 0-1.5-1.1-1.3-2.1-1.1-.6.2-.6.2-1.3-.1-.5-.2-1-.6-1.5-.9-.9-.4-2-.2-2.8-.6-1.2-.7-.1-2-.4-3-.2-.8-.8-.6-.2-1.4.2-.4 1-.9 1.2-1.1.2-.1.4 0 .6 0 .2-.1.3-.4.5-.4.4-.2 1.1.1 1.3-.2-.1.2-.2.4-.4.6" opacity=".08"/><path fill="#fff" stroke="#c9c9c6" stroke-width=".289" d="M47.9 54.7c-1.1-.8-3-1.1-4.3-1-.6.1-2.3.8-2 1.6.2.5 1.1.5 1.1.9 0 .5-1 .6-1.2.6-1.7.6-3.3 1.3-4.6 2.8-.6.7-.6 1.2-.5 2 .2.9-.1 1.3-.3 2.2-.2.7-.5 1.9.4 2.2.2.1.8 0 1.1 0 .5.1 1 .2 1.5.4.7.1 1.4-.1 2.1.2 1.1.5.3.9.3 1.9-.1 1.5 2.5 2.3 3.6 2.8.8.2 1.3.9 2.1 1.1.9.2 1.7-.4 2.5-.6.8-.2 1.5-.2 2.1-.8.8-.8.8-2 2.1-2.2.6-.1 1.2 0 2-.1.9-.2 1.3-.1 2.1 0 .9.1 1.3-.6 2-1 .9-.6 2-1 2.8-1.6.5-.4.7-1.2.7-1.9 0-.6-.3-.8-.3-1.3-.1-.5.2-.7.1-1.2-.1-.6-.4-1.5-.8-2.1-.2-.5-.7-.6-1.1-1-.2-.4-.4-.8-.8-1.1-.9-.8-1.1-.4-2-.2-.8.1-1.4-.4-2-.8-1.1-.8-2.4-1.9-3.9-1.5-.6.1-1.2.5-1.8.5-.6 0-1.5-.2-2-.5-.4-.1-.6-.1-1-.4"/><path fill="#f0c318" d="M56.2 62.2c0 2.1-2.8 3.9-6.3 3.9s-6.3-1.7-6.3-3.9c0-2.1 2.9-4 6.3-4 3.5 0 6.3 1.8 6.3 4z"/><path fill="#070808" d="M46.4 59.2c-1.1.6-2.9 2.6-1.8 4 1 1.1 2.9 1.6 4.3 1.9 1.4.2 2.9.1 4.2-.4 1-.4 3.7-2.3 2.8-3.6.1.9.2 1.5-.2 2.3-.3.8-1.3 1.5-2.1 2-1.5 1-3.3 1-4.9.7-1.8-.2-3.5-.8-4.6-2.6-1.1-1.9.7-4 2.3-4.6" opacity=".08"/><path fill="#fbfcfa" d="M47.6 60c.6-.5 2.4-.2 2.7.5-1 .2-1.7-.7-2.8-.2-.1.1-.1.1 0 0" opacity=".38"/><path fill="#070808" d="M36.7 63.5c.3-.8.6-.9.5-1.9 0-.8.2-1.4.8-1.9 1.1-.9 2.6-1 3.7-1.9.2-.2 1.6-.8 1.6-1.3-.1-.8-1.4.4-1.7.5-1.3.4-2.4.6-3.7 1.5-1.3 1.1-1.5 2-1.5 3.6.1 1-1.1 3-.3 3.7.3.2 1.3.4 1.7.4.7 0 1.2.2 2 .2.4 0 1.3-.2 1.7.1.3.5.1 1.5.1 2 0 .7 0 .8.7 1.1.5.2 1.1.4 1.6.7.5.2.9.7 1.4 1 .6.2 1.1.2 1.5.2.5.1.8.6 1.4.6.6-.2 1-.6 1.5-.7 1.4-.2 2.1-.8 3-1.9.4-.5.8-1 1.4-1.2.5-.1 1.1-.1 1.5-.2.7-.1 1 .1 1.5.2.6.2 1.1 0 1.6-.4 1.1-.6 2.1-1.4 3.1-2 .5-.2 1.1-.9 1.2-1.5 0-.5-.2-1.4-.6-1.5 0 .1-.2.4-.2.5.1-.2 0-.5-.1-.7-.3.4 0 1.3-.1 1.7-.2.8-.7 1.4-1.3 1.7-.9.6-2.6 1.4-3.7 1.3-1.4-.1-2.4.2-3.7.6-1.4.5-2.4 1.5-3.6 2.3-1.1.7-2.4.7-3.6.2-.6-.2-1.2-.7-1.8-1.1-.6-.4-1.5-.2-2-.8-.4-.5-.4-1.5-.6-2-.2-.8-.8-1.2-1.5-1.3-1.3-.2-2.8-.1-3.7-1.4-.2-.5-.3-1.4.2-1.6" opacity=".06"/><path fill="#fffff9" d="M61.8 63.1c-.4-.2-1.1 0-1.3.5-.2.6.2 1 .2 1.5-.2.6-.9.5-1.2.9-.3.4-.1 1-.9 1 .9-.2 2.4-.6 2.9-1.4.2-.4 1.2-3.3.1-2.7"/></svg>
