<svg xmlns="http://www.w3.org/2000/svg" xmlns:xlink="http://www.w3.org/1999/xlink" version="1.0" viewBox="0 0 142.5 115.1"><switch><g><pattern id="a" width="50.8" height="58.9" overflow="visible" patternUnits="userSpaceOnUse" viewBox="3.3 -61.3 50.8 58.9"><path fill="#D6E7B0" d="M2.3-10.2c6-.8 12.9-.3 16.7-.3 8.9 0 8.3-7.3 2-6.1-.7.1-.5.3.2.7.7.3.6 3.1-4.1 2.4-4.2-.6-9.9-.6-14.8 0v3.3zM44.4 0c.9-2.8 3.3-4.9 6.4-6.3 1-.5 2.7-.8 4.8-1V-4c-1.6.3-2.9.7-3.8 1.2-1.5.9-2.6 1.8-3.4 2.8h-4zm-7-.1c.2-4.7 2.9-9.2 8.2-11.5 2.5-1.1 6.1-1.8 9.9-2.1l.1 3.2c-5 .4-9.8 1.5-12.2 4.3-1.8 2.2-2.8 4.1-3.2 5.9l-2.8.2zM2.7-18.9c4.1-2.8 6.5-7.5 2.6-18.4C-.6-53 3.1-59.1 18.4-57.1c4.6-.2 4.5-5.1-.5-4.7-.7.1-.2.1.3.5 1.3 1.2.6 2.1-2.7 1.6-3.4-.5-7.5-1.4-12.8 2.3-7.7 5.3 3.7 21.6 2.2 24.8-.7-3.1-2.1-6.1-3.5-8.9v2.4c.9 2 1.7 4 2.1 6.1-.6-1.4-1.2-2.7-1.9-4v2.2c2.9 5.3 3.4 9.9.8 13l.3 2.9z"/></pattern><pattern id="b" patternTransform="translate(-1069.744 -1159.468) scale(.8626)" xlink:href="#a"/><pattern id="c" patternTransform="translate(-1069.744 -1159.468) scale(.8626)" xlink:href="#a"/><ellipse cx="71.2" cy="89.7" fill="url(#b)" stroke="url(#c)" stroke-width=".25" rx="71.2" ry="25.3"/><ellipse cx="70.7" cy="90.4" fill="#FFF" stroke="#FFF" stroke-width=".25" rx="64.8" ry="18.5"/><path fill="#F3D13E" stroke="#F3D13E" stroke-width=".25" d="M22.5 80.8c2-2.5 4.8-3.3 6.9-5.5 2.2-2.4 4-5.1 6.3-7.4 1.1-1.1 1.7-2.3 3.1-2.9 1.4-.6 2.9-.9 4.3-1.5 2.5-1.2 4.6-2.6 7.4-3 2.8-.4 5.8-.3 8.6-.3 3.8 0 8.1-1.2 11.8.4 2 .8 2.7 2.6 4.4 3.8 1.9 1.3 4.4 1.7 6.4 2.8 1.4.8 3-.7 4.6-.6 1.5.2 6.7-4.4 8.3-4.1 3.2.6 2.4 8.6 5.2 10.2 1.2.7 2.5 1.4 3.8 1.9 2.4.9 5.1 1.1 7.5 1.8 2.2.7 4.4 1.5 6.4 2.7 4 2.4 6.1 6.1 2.3 9.8-5.5 5.2-13.4 3.8-20.5 3.8-3.5 0-7.1-.4-10.6 0-3.6.5-7.2 1.7-10.8 2.6-1.6.4-3.3.9-4.9 1-2.3.2-3.9-.6-6.1-1-2.7-.4-5.7-.1-8.4-.2-1.4 0-2.6 0-3.9-.5-1.4-.5-2.5-1.3-3.9-1.7-1.5-.5-2.8-.6-4.2-1.2-1.4-.6-2.3-.8-4-.8-2.7 0-5.5.1-8.2 0-2.5-.1-5.1-1.1-7.5-1.7-1.2-.3-2-.5-3.3-.5-1.8 0-2.6-.5-2.8-2-.2-1.7.7-4.5 1.8-5.9z"/><path fill="#F3D13E" stroke="#FDDE44" d="M127.1 89.7c.9 0 1.4-.5 1.3-1.5-10.5-14.8-40-12.4-56-13-13.9-.5-49.2-6-50.6 14.5-1 14.6 14.4 6.5 21.7 9.5 8.4 3.4 17.9 4.7 27.2 3.9 4.5-.4 9.1-1.4 13.5-1.6 4.6-.2 8.9 1.8 13.5.3 2.2-.7 3.5-2.5 5.4-3.3 2.7-1 5-.5 7.7-1.2 5.5-1.3 10-4.1 14.6-7.1"/><path fill="#FDDE44" stroke="#B0732A" stroke-width=".25" d="M110.9 87.3c1.6.6 5.4-1.6 6.5-2.8 1.7-1.9 2.5-5.2 4.3-6.8 3.6 1.5-2.1 8.5-3.5 9.7-1.9 1.7-7.1 4.1-9.5 2 .9-.7 2.5-1.1 3-2.2m-4.3 9.3c-2.4 6.3 10.7.6 12.7-.5 2.8-1.5 5.6-3.1 7.4-5.9.9-1.3 1.1-2.2 1.2-3.7.1-2.1-.7-2.1-1.9-3.6-.9 1.7-1 3.6-2.3 5.2-1.5 1.9-3.8 2.9-5.7 4.4-2.7 2.1-7.9 5.2-11.5 4"/><path fill="#FDDE44" stroke="#B0732A" stroke-width=".25" d="M111.6 87.3c.7-.4 1.8-.5 2.8-1.1l3.3-2.1c1.1-.7 2.1-1.4 2.6-2.7.4-1 .2-2.7 1.5-3 1.2 3.3-1.9 7.4-4.5 8.9-1.6.9-2.9 1.9-4.7 2.3-.7.2-1.8.6-2.4 0-1.1-1.1.3-1.4 1.1-2.1m-5.3-9.7c.1 2.8-4.3 6.1-6.7 6.9-1.2.4-3.3.5-4.5-.2-.8-.5-3.1-2.9-2.5-4.1 1.1-2.3 2.9.7 3.9 1.2 1.4.8 3 .5 4.4 0 2.1-.9 2-2 3.2-3.7 1.6-2.3 2.1-.8 2.4 1"/><path fill="#FDDE44" stroke="#B0732A" stroke-width=".25" d="M110.6 87.6c-3.5.7-4.3 4.7-4.1 7.7.1.6.2 1.5.3 2.1.2.5 1.1 1.9 1 2.3-.1.7-1.5 1.2-2.1 1.2-1.3.2-1.2.2-1.8-.8-1.3-2.2-.4-6.8.5-9.1.5-1.4 1.7-3.5 2.8-4.5 1.1-.9 3.8-1.4 3.5.8M97 97.8c-1.6.6-2.9 2.5-4.6 3.2-1.4.6-2.8.7-4.3.7-1.4 0-3 .4-4.4.2-1.6-.2-3.2-1.3-4.6-2.1-1.9 2.9.1 2.9 2.4 4 2.2 1 3.7 1.3 6.1 1.2 5-.2 8.3-3.8 12.3-6.1-1 0-3.2 0-2.8-1.6m9.1-17.9c0-.1 0-.3.1-.4 2.4 0 2 2.7 1.2 4.2-1 1.8-2.8 2.9-4.7 3.8-3.5 1.7-8 2.6-10.7-.9-.7-.9-2.8-4.4-.6-5 1.3-.3 3.6 3.1 4.9 3.6 3.5 1.4 8.4-2.6 9.7-5.5"/><path fill="#FDDE44" stroke="#B0732A" stroke-width=".25" d="M98.6 76c-.2-.2-.2-.3 0-.3 2.4-.1 2.8 4.3 2.3 5.8 1.4-1.4 1.8-2.4.9-4.4-.4-.9-3.6-4.5-3.2-1.7m-12.9 8.7c-.1-.3-.3-.4-.4-.2 3.5 1.8 4 7.3 4.4 10.7.7-.9 2.6-1.8 3-2.8.3-.8-.8-3.1-1.2-3.8-.6-1.2-1.3-2.7-2.3-3.8-1.4-1.6-2-1-3.8-1M81.6 96c0-2.7-.7-6.9-3.4-8.3-2.4-1.2-.8 2.3-3.1 1.3-1.5-.6-1.2-3 .1-3.7.7-.4 3.5-.5 4.3-.2 1.3.6 2.5 3.2 3.2 4.4 1.2 2.1 3.2 7.3-1.1 6.8"/><path fill="#FDDE44" stroke="#B0732A" stroke-width=".25" d="M87.2 95c0-4-3.4-8.5-6.4-10.9 3.1-2.1 6.2.4 7.4 3.2.9 2.2 2.4 7.2-.5 8.2m18.6-2.5c3.7 2.2 9.9-1.1 12.8-3.6 2.2-1.8 3.3-3.2 4.2-5.9.3-.9.5-2.5 1.4-2.7 1.3-.2 1.8 1.5 1.7 2.5-.4 5-6 9-10.1 11.1-1.9.9-4.4 1.9-6.5 2.1-1.2.1-2.4.2-3.2-.8-.6-.9-.6-2.6.3-3.2"/><path fill="#FDDE44" stroke="#B0732A" stroke-width=".25" d="M121.9 81.1c-.3-1.6 1.7-2.8 2.6-1.6.8 1-.4 3.5-1 4.4-1.9 3-4.4 5.9-7.4 7.8-1.8 1.1-6.4 3.6-8.5 2.1-2.9-2 2.3-8.6 2.9-4.6 2.4-.5 5.4-1.1 7.5-2.6 2.5-1.8 3.6-4.6 4.7-7.3"/><path fill="#FDDE44" stroke="#B0732A" stroke-width=".25" d="M107.2 85.8c-1.8-2.3-6.2 4.2-6.5 6-.3 2-.6 7.8 1.4 9 2.1 1.3 1.4-1.8 1.2-2.8-.2-1.6-.2-2.8.3-4.4.5-1.5 1-3 1.7-4.4.8-1.7 2.2-2.7 3.4-3.9-.9-.4-3-.5-3.3.6m7.9-12.5c1.5-.1 3.4-.9 4.9-.3 1.3.5 2.8 3.7 2.4 5.1-.7 2.2-3-1.3-4.2-1.9-.8-.5-1.7-.9-2.6-.9-.9 0-1.9.9-2.2-.6.4-.4.9-.8 1.5-1.1"/><path fill="#FDDE44" stroke="#B0732A" stroke-width=".25" d="M107.7 83.5c1.7-.8 8-1.9 7.3 1.8-.3 1.6-2.1 1.3-3.3.9-1.6-.5-2.6-1.4-4.4-1.4-.2-.6 0-1.3.6-1.7m11.3-1.5c-.5-2-9.4-5.7-10.3-2.3-.4 1.7 3.5.6 4.6.8.9.1 2 .4 2.7.9 1 .7 1.3 2 2.3 2.6.8-.7.8-2.2-.1-2.8m-16.9 7.5c-.7 4-1.7 7.8-.8 11.9-2 .2-2.8 0-3.1-2-.2-1.5-.3-3-.3-4.6 0-1.6-.2-3.4 1-4.7.8-.9 3.6-2.4 4.8-1.7-.8.7-1.7 1.3-2 2.4m-19.8 6.9c.9-.3 2.2.2 3.2.2 1.2-.1 2.6-.5 3.6-.9 1.7-.8 5.5-6.6 6.4-2.2.8 4.1-11.4 7.4-13.2 3.9m-4.5-9.2c-1.8 1.9-9.9 9.6-12.5 5.1-.1 1.7 0 2.6 1.9 2.9 1.6.2 3.3-.7 4.8-1.3 2.4-1.1 7.3-3.5 6.7-6.9-.3 0-.5 0-.8.1"/><path fill="#FDDE44" stroke="#B0732A" stroke-width=".25" d="M80 93.9c2.2 2.3-3.4 5.8-5 6.6-2.4 1.2-5.1 1.5-7.8 1.7-2.8.1-5.3.3-7.7-1.3-1.2-.8-2.5-2.5-3.1-3.9-.4-.8.2-1.2-.7-1.8-.4-.3-1.6 0-2 0 .4 3.5 1.9 6.5 4.8 8.7 2.3 1.8 6.2 1.2 9 1.2 3.3 0 6.5-1.2 9.2-3.3 1.4-1 7.5-7.2 3.6-7.9m12.8-5.7c0 1.1-.3 2.7.3 3.6.2.3 1.1 1.4 1.3 1.7.5.6.6 1.5 1.3.3.2-.4-.2-3.4-.3-4-.4-1.7-1.6-2.5-3.3-2.3"/><path fill="#FDDE44" stroke="#B0732A" stroke-width=".25" d="M98.3 88.9c-1.8 1.6-.7 5.7-1 7.8-2.5-1.2-2.2-2.1-1.9-4.5.2-1.8-.5-4.3 2.3-3.5m-8.6-5.3c-.2-.1-.4 0-.5.2 0 1.1 1.5 2.8 2.1 3.8.7 1.2 1.9 2.2 2.3 3.6.9-1.6.1-3.1-.8-4.5-.6-1-1.8-4.9-3.3-2.9M63.1 95.1c3.2 1.6 5.1.6 8.3-.5 1.4-.5 3-1.3 4.1-2.4 1.2-1.1 1.9-3.2 3.1-3.9 1.5 1.5-.8 4.7-1.7 5.9-1.6 2-3.5 3.5-6.1 4.2-2.7.7-11.7 2.2-11-2.8 1.6.3 2.4-.2 3.9-.6m2.7-20.2c-1.4 2.2-.2 5-2.8 6.5-.8.5-3.3.6-3.6 1.5-.7 1.7 2 1.7 2.8 1.5 2.9-.6 4.7-2.5 5.6-5.2.8-2.5.7-6.1-2.9-4.1m4.9 5.9c3-.2 3.6 3.9 6 3.9 0-.8.7-2.3.5-3.1-.2-.7-2.1-2.3-2.8-2.7-.7-.5-2.5-1-3.4-.6-1.2.5-1.2 1.6-1.1 2.9"/><path fill="#FDDE44" stroke="#B0732A" stroke-width=".25" d="M67.9 90.3c2.4-.9 2 1.4 2.3 2.9 1 .4 2.4-1.4 2.7-2.3-.7-.7-1.7-2.1-2.7-2.5-1.3-.6-2.6.3-2.3 1.9m-8.8-10.7c2.1 1.3 5.6-3 3.9-4.2-1.2-.9-2.2 1.4-2.9 2-.9.7-2.9 1.5-.7 2.4m9.5 3.9c1.2-.7 2.8-.3 3.8.6.5.5.1 1.3 1.1 1.6.9.2 1.6-.4 1.3-1.4-.1-.2-1.4-1.4-1.6-1.6-.6-.6-.8-.9-1.6-1.3-1.8-.9-2.6-.6-2.7 1.5"/><path fill="#FDDE44" stroke="#B0732A" stroke-width=".25" d="M60.6 79.9c0-.4-.1-.4-.3-.2-.2 2 .9 2.4 2.8 1.7 2.1-.8 2.2-2.6 2.5-4.5.1-.8.6-1.5 0-2.2-1.1-1.2-1.3 0-1.7.7-.4.7-.5 1.7-1.1 2.4-.7.8-2 1.1-2.5 2.1m3.1 4.7c-1.9.4.5 1.5 1.7 1.1 1.5-.5 2.5-1.7 3.3-3 1.2-1.8 2.1-5.4 1.2-7.5-1 0-1.6 3.7-2 4.8-.9 2.4-1.9 3.1-3.9 4.5m4.2 6.7c-.7.3-1.4 1.4-.9 2.1.6.8 2.2.1 3 0 .1-.9.2-2-.3-2.7-1.1-1.4-1.9-.4-2.2.9m6.3-3.2c-1-1.2-1.8-2.1-3.5-2.3-1.3-.1-3.3 1-1.6 2.3.3.2 1.3 0 1.8.1.6.2 1.4.6 1.8 1.1.4.4.3 1.6 1.1 1.8.8.1 1.5-.9 1.4-1.6"/><path fill="#FDDE44" stroke="#B0732A" stroke-width=".25" d="M51.2 88.9c.9 2.2 3.4 3.8 5.7 4.2 3.1.5 6.2-1 8-3.5.5-.6 1.2-3.6 1.7-3.8 1.3-.6 2.1 2 2 2.8-.1 1.7-2.1 3.4-3.4 4.5-2.2 1.9-5.6 2.6-8.5 2.3-3.2-.3-6.3-2.9-7.6-5.7-.5-1.1-1.3-3.1-1-4.4.3-1.4 2.4-2.9 3.8-2.7 0 0-1.2 2.1-1.3 2.6-.1 1.2.1 2.7.6 3.7zm4.2 13.6c-3.4 1.7-7 .2-9.8-1.5-.9-.6-1.2-.7-2-1.7-.6-.8-1.4-1.3-2-2.1-1-1.2-.3-1-1.9-.8-.9.1-1.7.3-2.5.2.9.4 1.9 1.6 2.6 2.3 1 1 1.8 2.2 2.8 3.1 1.8 1.8 3.8 2.7 6.2 3.1 2.2.4 4.5.3 6.6-.1.8-.2 2.7-.3 2.7-1.4.1-1.6-2.2-.4-2.3-1.8"/><path fill="#FDDE44" stroke="#B0732A" stroke-width=".25" d="M54.9 92.7c1.3-2 1.3-7 .3-9-.8-1.5-2.3-2.8-4-2.7-1.7 0-3 1.9-4.7 1.7-.3-2.1 2.6-3.4 4.3-3.8 2.9-.6 3.7.5 5.1 2.7 2.4 3.7 2.3 7.5 1.2 11.7-.5-.4-1.3-.6-1.9-.4"/><path fill="#FDDE44" stroke="#B0732A" stroke-width=".25" d="M57.9 93.2c-.6-.6.1-2.9 0-3.9-.1-1.5-.4-2.9-.4-4.4-.2-3.7-2.1-5.9-5.6-7.1 1.2-1.6 3.8-1.1 5.2-.2 1.9 1.2 2.4 3.5 2.9 5.6.5 2.4.8 9.8-2.4 10.4m-10.1.9c1.8.5 2.5 2.5 4.5 2.8 2.1.2 1.7-1.5 1.5-3.2-1.5-.1-3.5-.4-4.4-1.8-.6.2-1.4 1.2-1.8 1.8m-2.5 1.8c.9 2 5.6 3.7 7.7 3.8 1.8 0 2.4-.4 2.9 1.7.5 2-.8 1.9-2.6 2.1-1.5.2-2.6.6-4.1 0-1.7-.6-2.4-1.9-3.7-3.1-.7-.6-3.6-2.6-3.5-3.6.1-.8 3.3-1.3 4.1-1.4"/><path fill="#FDDE44" stroke="#B0732A" stroke-width=".25" d="M53.9 96.8c-.1.9.2 1.7.1 2.5-2 0-8.1.1-8.2-2.8-.1-2.4 2.1-1.8 3.3-1.1 1.4.7 3 1.6 4.8 1.4M28.4 86.2c-.4.7-.6 1.8-.4 2.6.4 1.5 1.5 1 2.2 1.7 1.2 1.3 1.6 4.3-1 3.9-4.6-.6-4.3-9.8-.8-7.8"/><path fill="#FDDE44" stroke="#B0732A" stroke-width=".25" d="M25.2 84.1c-2.4 1.3-3.7 3.6-3 6.4.8 3.3 3.9 4.1 6.2 6 2.3 2 4.4 1.7 7.4 1.4 1.4-.1 2.5-.8 2.7.9.2 1.9-1.2 1.6-2.6 1.5-2.3-.1-4.6.2-6.9.1-3-.1-5.3-1.6-7.4-3.8-2.2-2.4-2.4-4.5-2.3-7.5.2-3.2 2.6-4.9 5.4-6.1.3.2.5.7.5 1.1m11.5-12.2c-1.8-1-4-.2-5.9.2-.7-1.2 1.7-2.8 2.7-3 1.6-.3 2.8 1.4 3.7 2.5-.5.3-1 .5-1.5.7"/><path fill="#FDDE44" stroke="#B0732A" stroke-width=".25" d="M26.9 77.3c-2.9-.1-5.4 4.1-4.4 6.7 3.1-.3.5-6.9 4.9-6 .2-.5.2-1.1-.1-1.7"/><path fill="#FDDE44" stroke="#B0732A" stroke-width=".25" d="M20.7 84.6c2.5-.4 1.6-2.8 2.3-4.7.9-2.4 2.8-2.3 4.8-3.3-.7-3.8-5.8-.4-6.9 1.6-1.2 2.1-.5 4.3 0 6.4m7.9-4.1c-.5 1.2-.3 3.3.9 3.9 1.5.8 3.5-.8 4.6-1.6.6 2.8-3.4 4.2-5.7 3.7-3-.6-3.2-5.2-.3-6.3m1-8c1.9.1 6.9-1.4 7.7 1.1-.9.7-3 .2-4.2.3-1.3.2-3.3 1.1-4.4 0 0-.3.2-.4.5-.5"/><path fill="#FDDE44" stroke="#B0732A" stroke-width=".25" d="M28.2 76.4c.5 1.1 3.7-.3 4.8-.3 1.1 0 4.7 1.9 4-.4-.6-2-10.2-3.3-8.8.3m4.1 3.3c.3-.2-.4.5.3.9.6.4 1.6-.2 2 .1 1.5 1.3-1.4 2-2.3 2-1.4-.1-3.2-.6-3-2.3.1-1 2.3-2.2 2.8-1M79 89.3c.9 2.3-2.9 5.3-4.4 6.4-2.2 1.7-4.3 3.2-7 3.8-2.5.6-5 .2-7-1.4-1-.8-.9-2.2-1.9-2.7-1.4-.7-2.8.1-2.5 1.4.5 2.2 3.4 4.9 5.4 5.4 2.2.6 4.9.4 7.1.1 3.6-.4 13.2-3.3 11.3-8.5.4.1.9.2 1.4.4.4-1-1.3-4.7-2-5.6-.2.3-.3.8-.2 1.2M25.8 84c-2.9 1.4-4.5 4.1-3.2 7.3 1.3 3.2 4.5 4.5 7.3 5.9 1.1.6 7.5 2.4 8.3.6.7-1.3-2.7-1.8-3.5-2.1-1.7-.6-2.2-2.3-3.7-2.7.1 1-1.2 1.5-2.1 1.5-1.4 0-2.3-.9-2.7-2.2-.8-2.4-.9-5.2 1.8-6.2-.6-.7-1.4-2.6-2.3-2.2"/><path fill="#FDDE44" stroke="#B0732A" stroke-width=".25" d="M29.5 79.9c-1.2 2.7 3.8 2.7 5.3 2.1-.3 1.5-2.8 2.7-4.4 2.4-1.6-.3-2.3-2.5-1.7-4.1m52.8 17.4c-.7-1.1-1.9.4-2.2 1.2-.4 1.5.2 1.3 1.4 1.8 1.8.9 3.8 1.5 5.9 1.5 4 0 9.2-1.3 10.4-5.4-1.6-.5-1.3-1.9-2.4-2.8-1.5 2.6-3.7 3.7-6.7 4.5-3 .8-5.2.4-7.7-1.2"/><path fill="#FDDE44" stroke="#B0732A" stroke-width=".25" d="M77.1 84.9c2.1-.7 3-1.3 5-.1s3.1 3 4 5.1c.6 1.3 1.5 3.8 1.1 5.2-.3 1.1-.5 1.1-1.7 1.3-.9.1-1.8.2-2.7 0 2.5-.6 1.1-4.6.4-6.1-1.1-2.4-2-4.6-4.8-5.1m36.3.3c1.1.1 4-1.2 3.8-2.6-.2-1.1-3.4-2.4-4.4-2.6-1.5-.3-3.4-.4-4.8-.2-1.3.2-1.1-.3-1.3 1.1-.1.7.1 1.6 0 2.4 1.1-.4 2.4-1.1 3.7-1 1.3.1 3.3 1.1 3.1 2.7M26.4 84c-.4-1 .1-2 .7-2.8.7-.9 1.7-.5 2.4-1.1 1.3-1.3-.6-5.1-2.1-3-.3.3.3 1.1-.1 1.4-.5.4-.8-.1-1.3.1-1.1.5-1.4.7-1.8 2-.4 1.2.1 5 2.1 3.4"/><g fill="#FDDE44" stroke="#B0732A" stroke-width=".25"><path d="M40.3 77.8c-4.3-.2-3.6 9.8-3 12.3-1.6-1.2-2-.8-2.3-3-.2-1.5-.3-2.8 0-4.3s.9-3.1 1.7-4.4c.7-1.1 3.3-2.9 3.3-.3m5.3 1.2c-3 2.6-2.4 6.7-2.8 10.2-4.9.8-1.2-16.9 3-10.8-.4.6-.9 1-1 1.7"/><path d="M32.1 87c-.4 5.2 4.7 6.2 8.8 6 1.9-.1 4-.7 5.7-1.5.8-.4 2.5-1.5 2.3.6-.1 1-1.9 2.4-2.7 2.9-3 1.7-8.6 1.9-11.8.5-2-.9-3.9-2.9-4.5-5.1-.2-.7-.1-2.4.3-3 1.2-1.5 1.6.3 2.5 1.1"/><path d="M40.3 77.9c-4.1-.1-5.1 12.9-2.5 13.1 1.1.1 2.5-1.6 2.7-2.5.3-1.2-.1-2.6 0-3.8.3-2.4 1-5.4 2.8-7.2-.7-.6-2.9 0-3.6.5"/><path d="M31.7 86.6c1.3-.4 1.7-1.6 2.8-2.1 1.1 1.5 0 3.4 1.4 4.9 1.7 1.8 3 2 4.6-.2 1.4.5 3 .6 4.5.7 1.1.1 3.6-.1 4.2.7-2.2 2-7 2.1-9.8 2.2-3 .1-7.9-2-7.6-5.7"/></g><path fill="#FDDE44" stroke="#B0732A" stroke-width=".25" d="M51.7 83.5c-1.5-.2-.9 4.5-.5 5.5.8 2.3 3.6 3.8 5.8 4.1 2.5.4 4.4-.5 6.4-2 1.6-1.3 4-4 3.4-6.3-2.8 2.5-6 5.2-9.9 5.5-2.1.2-3.6-1-4.1-3.2-.4-1.8.7-3.4.3-5.1-1-.1-1.7 1.7-2.3 2.5"/><path fill="#FDDE44" stroke="#B0732A" stroke-width=".25" d="M53.1 82.3c0 1.7-.9 3.5-.6 5.2.3 1.8 2.5 3.3 4.3 3.1 2.7-.3 9.5-2.6 9.1-6.2-1.2-.4-3.5 1.7-4.7 2.2-1.4.7-3.2 1.8-4.9 1.8-2.3 0-2.1-1.4-2.1-3.3 0-.6.3-1.8 0-2.4-.3-.7-1.3-1.6-1.5-.5m56.6-3.9c2.7 0 9.5-.9 9.3 3.3 4.4-5.8-11.6-10.2-10.5-1.1.1-1.2.8-1.9 2-2.2"/><path fill="#FDDE44" stroke="#B0732A" stroke-width=".25" d="M90.5 83.9c-2.4 6.3 10.7.6 12.7-.5 2.8-1.5 5.6-3.1 7.4-5.9.9-1.3 1.1-2.2 1.2-3.7.1-2.1-.7-2.1-1.9-3.6-.9 1.7-1 3.6-2.3 5.2-1.5 1.9-3.8 2.9-5.7 4.4-2.7 2.1-7.9 5.2-11.5 4"/><path fill="#FDDE44" stroke="#B0732A" stroke-width=".25" d="M89.5 80.4c3.7 2.2 9.9-1.1 12.8-3.6 2.2-1.8 3.3-3.2 4.2-5.9.3-.9.5-2.5 1.3-2.7 1.3-.2 1.8 1.5 1.7 2.5-.4 5-6 9-10.1 11.1-1.9.9-4.4 1.9-6.5 2.1-1.2.1-2.4.2-3.2-.8-.6-.9-.6-2.6.3-3.2"/><path fill="#FDDE44" stroke="#B0732A" stroke-width=".25" d="M105 68.5c-.3-1.6 1.7-2.8 2.6-1.6.8 1-.4 3.5-1 4.4-1.9 3-4.4 5.9-7.4 7.8-1.8 1.1-6.4 3.6-8.5 2.1-2.9-2 2.3-8.6 2.9-4.6 2.4-.5 5.4-1.1 7.5-2.6 2.5-1.8 3.6-4.6 4.7-7.3"/><path fill="#FDDE44" stroke="#B0732A" stroke-width=".25" d="M97.8 73c1.1.1 4-1.2 3.8-2.6-.2-1.1-3.4-2.4-4.4-2.6-1.5-.3-3.4-.4-4.8-.2-1.3.2-1.1-.3-1.3 1.1-.1.7.1 1.6 0 2.4 1.1-.4 2.4-1.1 3.7-1 1.3.1 3.3 1.1 3.1 2.7"/><g fill="#FDDE44" stroke="#B0732A" stroke-width=".25"><path d="M87.1 82.3c-2.4 6.3 10.7.6 12.7-.5 2.8-1.5 5.6-3.1 7.4-5.9.9-1.3 1.1-2.2 1.2-3.7.1-2.1-.7-2.1-1.9-3.6-.9 1.7-1 3.6-2.3 5.2-1.5 1.9-3.8 2.9-5.7 4.4-2.7 2.1-7.9 5.2-11.5 4m4.3-9.1c.7-.4 1.8-.5 2.8-1.1l3.3-2.1c1.1-.7 2.1-1.4 2.6-2.7.4-1 .2-2.7 1.5-3 1.2 3.3-1.9 7.4-4.5 8.9-1.6.9-2.9 1.9-4.7 2.3-.7.2-1.8.6-2.4 0-1.1-1.1.3-1.4 1.1-2.1"/><path d="M86.1 78.8c3.7 2.2 9.9-1.1 12.8-3.6 2.2-1.8 3.3-3.2 4.2-5.9.3-.9.5-2.5 1.3-2.7 1.3-.2 1.8 1.5 1.7 2.5-.4 5-6 9-10.1 11.1-1.9.9-4.4 1.9-6.5 2.1-1.2.1-2.4.2-3.2-.8-.6-.9-.6-2.6.3-3.2"/><path d="M101.6 66.9c-.3-1.6 1.7-2.8 2.6-1.6.8 1-.4 3.5-1 4.4-1.9 3-4.4 5.9-7.4 7.8-1.8 1.1-6.4 3.6-8.5 2.1-2.9-2 2.3-8.6 2.9-4.6 2.4-.5 5.4-1.1 7.5-2.6 2.5-1.8 3.6-4.6 4.7-7.3M93 59.2c1.5-.1 3.4-.9 4.9-.3 1.3.5 2.8 3.7 2.4 5.1-.7 2.2-3-1.3-4.2-1.9-.8-.5-1.7-.9-2.6-.9-.9 0-1.9.9-2.2-.6.4-.4.9-.8 1.5-1.1"/><path d="M87.4 69.3c1.7-.8 8-1.9 7.3 1.8-.3 1.6-2.1 1.3-3.3.9-1.6-.5-2.6-1.4-4.4-1.4-.2-.6 0-1.3.6-1.7"/><path d="M94.4 71.4c1.1.1 4-1.2 3.8-2.6-.2-1.1-3.4-2.4-4.4-2.6-1.5-.3-3.4-.4-4.8-.2-1.3.2-1.1-.3-1.3 1.1-.1.7.1 1.6 0 2.4 1.1-.4 2.4-1.1 3.7-1 1.3.1 3.3 1.1 3.1 2.7"/><path d="M89 64.1c2.7 0 9.5-.9 9.3 3.3 4.4-5.8-11.6-10.2-10.5-1.1.1-1.2.8-1.9 2-2.2"/></g><g fill="#FDDE44" stroke="#B0732A" stroke-width=".25"><path d="M49.2 72.8c-4.3-.2-3.6 9.8-3 12.4-1.6-1.2-2-.8-2.3-3-.2-1.5-.3-2.8 0-4.3s.9-3.1 1.7-4.4c.7-1.1 3.3-2.9 3.3-.3"/><path d="M54.1 74.3c-3 2.6-2.4 6.7-2.8 10.2-4.9.8-1.2-16.9 3-10.8-.4.6-.9 1-1 1.7"/><path d="M41 82c-.4 5.2 4.7 6.2 8.8 6 1.9-.1 4-.7 5.7-1.5.8-.4 2.5-1.5 2.3.6-.1 1-1.9 2.4-2.7 2.9-3 1.7-8.6 1.9-11.8.5-2-.9-3.9-2.9-4.5-5.1-.2-.7-.1-2.4.3-3 1.2-1.5 1.6.3 2.5 1.1"/><path d="M49.1 72.9c-4-.1-5.1 12.9-2.4 13.1 1.1.1 2.5-1.6 2.7-2.5.3-1.2-.1-2.6 0-3.8.3-2.4 1-5.4 2.8-7.2-.7-.6-2.9 0-3.6.5"/><path d="M40.6 81.6c1.3-.4 1.7-1.6 2.8-2.1 1.1 1.5 0 3.4 1.4 4.9 1.7 1.8 3 2 4.6-.2 1.4.5 3 .6 4.5.7 1.1.1 3.6-.1 4.2.7-2.2 2-7 2.1-9.8 2.2-3 .1-7.9-2-7.6-5.7"/></g><g fill="#FDDE44" stroke="#B0732A" stroke-width=".25"><path d="M39.2 65.1c-4.3-.2-3.6 9.8-3 12.3-1.6-1.2-2-.8-2.3-3-.2-1.5-.3-2.8 0-4.3s.9-3.1 1.7-4.4c.7-1.1 3.3-2.9 3.3-.3m5.3 1.3c-3 2.6-2.4 6.7-2.8 10.2-4.9.8-1.2-16.9 3-10.8-.4.6-.9 1-1 1.7"/><path d="M31 74.3c-.4 5.2 4.7 6.2 8.8 6 1.9-.1 4-.7 5.7-1.5.8-.4 2.5-1.5 2.3.6-.1 1-1.9 2.4-2.7 2.9-3 1.7-8.6 1.9-11.8.5-2-.9-3.9-2.9-4.5-5.1-.2-.7-.1-2.4.3-3 1.2-1.5 1.6.3 2.5 1.1"/><path d="M39.2 65.3c-4.1-.1-5.1 12.9-2.5 13.1 1.1.1 2.5-1.6 2.7-2.5.3-1.2-.1-2.6 0-3.8.3-2.4 1-5.4 2.8-7.2-.7-.6-2.9 0-3.6.5"/><path d="M30.6 74c1.3-.4 1.7-1.6 2.8-2.1 1.1 1.5 0 3.4 1.4 4.9 1.7 1.8 3 2 4.6-.2 1.4.5 3 .6 4.5.7 1.1.1 3.6-.1 4.2.7-2.2 2-7 2.1-9.8 2.2-3 .1-7.9-2-7.6-5.7"/></g><g fill="#FDDE44" stroke="#B0732A" stroke-width=".25"><path d="M71.5 87c-2.4 6.3 10.7.6 12.7-.5 2.8-1.5 5.6-3.1 7.4-5.9.9-1.3 1.1-2.2 1.2-3.7.1-2.1-.7-2.1-1.9-3.6-.9 1.7-1 3.6-2.3 5.2-1.5 1.9-3.8 2.9-5.7 4.4-2.7 2.1-7.9 5.2-11.5 4m4.3-9.1c.7-.4 1.8-.5 2.8-1.1l3.3-2.1c1.1-.7 2.1-1.4 2.6-2.7.4-1 .2-2.7 1.5-3 1.2 3.3-1.9 7.4-4.5 8.9-1.6.9-2.9 1.9-4.7 2.3-.7.2-1.8.6-2.4 0-1.1-1.1.3-1.4 1.1-2.1"/><path d="M70.4 83.6c3.7 2.2 9.9-1.1 12.8-3.6 2.2-1.8 3.3-3.2 4.2-5.9.3-.9.5-2.5 1.3-2.7 1.3-.2 1.8 1.5 1.7 2.5-.4 5-6 9-10.1 11.1-1.9.9-4.4 1.9-6.5 2.1-1.2.1-2.4.2-3.2-.8-.6-.9-.6-2.6.3-3.2"/><path d="M86 71.6c-.3-1.6 1.7-2.8 2.6-1.6.8 1-.4 3.5-1 4.4-1.9 3-4.4 5.9-7.4 7.8-1.8 1.1-6.4 3.6-8.5 2.1-2.9-2 2.3-8.6 2.9-4.6 2.4-.5 5.4-1.1 7.5-2.6 2.5-1.8 3.6-4.6 4.7-7.3M77.4 64c1.5-.1 3.4-.9 4.9-.3 1.3.5 2.8 3.7 2.4 5.1-.7 2.2-3-1.3-4.2-1.9-.8-.4-1.7-.9-2.6-.9-.9 0-1.9.9-2.2-.6.4-.4.9-.8 1.5-1.1"/><path d="M71.8 74.1c1.7-.8 8-1.9 7.3 1.8-.3 1.6-2.1 1.3-3.3.9-1.6-.5-2.6-1.4-4.4-1.4-.2-.6 0-1.3.6-1.7"/><path d="M78.8 76.1c1.1.1 4-1.2 3.8-2.6-.2-1.1-3.4-2.4-4.4-2.6-1.5-.3-3.4-.4-4.8-.2-1.3.2-1.1-.3-1.3 1.1-.1.7.1 1.6 0 2.4 1.1-.4 2.4-1.1 3.7-1 1.3.1 3.3 1.1 3.1 2.7"/><path d="M73.4 68.8c2.7 0 9.5-.9 9.3 3.3C87.2 66.4 71.1 62 72.3 71c.1-1.2.8-1.9 2-2.2"/></g><g fill="#FDDE44" stroke="#B0732A" stroke-width=".25"><path d="M50.4 77.6c-5.3 4.2 8.9 6 11.2 6 3.2.1 6.4.1 9.3-1.3 1.4-.7 2.1-1.4 2.9-2.6 1.2-1.8.4-2.2.2-4.1-1.7 1-2.7 2.6-4.6 3.3-2.3.9-4.7.6-7.1.9-3.4.4-9.4.5-11.9-2.4m8.3-5.6c.8 0 1.8.5 2.9.4 1.3-.1 2.6-.1 3.9-.2 1.3 0 2.5-.2 3.7-1 .9-.7 1.5-2.2 2.9-1.8-.7 3.4-5.4 5.4-8.4 5.4-1.8 0-3.5.1-5.3-.4-.7-.2-1.8-.3-2.1-1.2-.4-1.5 1-1.1 2-1.3"/><path d="M51.2 74.1c2 3.8 9.1 4.1 12.9 3.4 2.8-.5 4.5-1.1 6.6-3 .7-.6 1.7-2 2.5-1.6 1.3.5.8 2.2.2 3-2.9 4.1-9.7 4.7-14.4 4.4-2.1-.1-4.8-.6-6.7-1.5-1.1-.5-2.2-1-2.4-2.3.1-1 1-2.5 2.1-2.5"/><path d="M70.7 71.7c.5-1.5 2.9-1.6 3.1 0 .2 1.3-2.2 2.8-3.1 3.3-3.1 1.6-6.8 2.8-10.4 2.9-2.1 0-7.3-.1-8.4-2.5-1.5-3.2 6.3-6.3 4.8-2.5 2.3.8 5.2 1.8 7.8 1.6 3.1-.3 5.4-2.1 7.7-3.9m-5-9.9c1.3.6 3.4.9 4.3 2.2.8 1.1.6 4.6-.6 5.6-1.7 1.5-2-2.6-2.6-3.8-.4-.8-1-1.6-1.8-2.1s-2.1-.2-1.6-1.7c.6-.2 1.2-.2 1.8-.1"/><path d="M57.2 66.6c1.9.2 7.9 2.4 5.3 5.2-1.1 1.2-2.4.1-3.3-.9-1.1-1.2-1.5-2.5-3.1-3.4.2-.6.7-1.1 1.4-1.1"/><path d="M62.2 71.9c.9.6 4.1 1 4.6-.3.4-1-1.7-3.8-2.5-4.5-1.1-1-2.7-2-4.1-2.6-1.2-.5-.8-.8-1.7.3-.5.6-.7 1.5-1.2 2.1 1.2.2 2.6.3 3.7 1 1 .7 2.3 2.7 1.3 3.9"/><path d="M61.3 62.9c2.3 1.4 8.6 4.1 6.4 7.6 6.7-2.7-4.8-14.6-8.5-6.3.7-.9 1.7-1.2 2.8-.9"/></g><g fill="#FDDE44" stroke="#B0732A" stroke-width=".25"><path d="M88 62.5c-4.3-.2-3.6 9.8-3 12.4-1.6-1.2-2-.8-2.3-3-.2-1.5-.3-2.8 0-4.3s.9-3.1 1.7-4.4c.7-1.1 3.3-2.9 3.3-.3M93 64c-3 2.6-2.4 6.7-2.8 10.2-4.9.8-1.2-16.9 3-10.8-.4.6-.9 1-1 1.7"/><path d="M79.9 71.7c-.4 5.2 4.7 6.2 8.8 6 1.9-.1 4-.7 5.7-1.5.8-.4 2.5-1.5 2.3.6-.1 1-1.9 2.4-2.7 2.9-3 1.7-8.6 1.9-11.8.5-2-.9-3.9-2.9-4.5-5.1-.2-.7-.1-2.4.3-3 1.2-1.5 1.6.3 2.5 1.1"/><path d="M88 62.6c-4.1-.1-5.1 12.9-2.5 13.1 1.1.1 2.5-1.6 2.7-2.5.3-1.2-.1-2.6 0-3.8.3-2.4 1-5.4 2.8-7.2-.7-.6-2.9 0-3.6.5"/><path d="M79.4 71.4c1.3-.4 1.7-1.6 2.8-2.1 1.1 1.5 0 3.4 1.4 4.9 1.7 1.8 3 2 4.6-.2 1.4.5 3 .6 4.5.7 1.1.1 3.6-.1 4.2.7-2.2 2-7 2.1-9.8 2.2-3 .1-7.9-2-7.6-5.7"/></g><g fill="#FDDE44" stroke="#B0732A" stroke-width=".25"><path d="M73 62.2c-4.3-.2-3.6 9.8-3 12.4-1.6-1.2-2-.8-2.3-3-.2-1.5-.3-2.8 0-4.3s.9-3.1 1.7-4.4c.7-1.1 3.3-2.9 3.3-.3m5.3 1.1c-3 2.6-2.4 6.7-2.8 10.2-4.9.8-1.2-16.9 3-10.8-.4.6-.9 1-1 1.7"/><path d="M64.9 71.4c-.4 5.2 4.7 6.2 8.8 6 1.9-.1 4-.7 5.7-1.5.8-.4 2.5-1.5 2.3.6-.1 1-1.9 2.4-2.7 2.9-3 1.7-8.6 1.9-11.8.5-2-.9-3.9-2.9-4.5-5.1-.2-.7-.1-2.4.3-3 1.2-1.5 1.6.3 2.5 1.1"/><path d="M73 62.3c-4.1-.1-5.1 12.9-2.5 13.1 1.1.1 2.5-1.6 2.7-2.5.3-1.2-.1-2.6 0-3.8.3-2.4 1-5.4 2.8-7.2-.7-.6-2.9 0-3.6.5"/><path d="M64.4 71c1.3-.4 1.7-1.6 2.8-2.1 1.1 1.5 0 3.4 1.4 4.9 1.7 1.8 3 2 4.6-.2 1.4.5 3 .6 4.5.7 1.1.1 3.6-.1 4.2.7-2.2 2-7 2.1-9.8 2.2-3 .1-7.9-2-7.6-5.7"/></g><g fill="#FDDE44" stroke="#B0732A" stroke-width=".25"><path d="M35.8 72c-5.3 4.2 8.9 6 11.2 6 3.2.1 6.4.1 9.3-1.3 1.4-.7 2.1-1.4 2.9-2.6 1.2-1.8.4-2.2.2-4.1-1.7 1-2.7 2.6-4.6 3.3-2.3.9-4.7.6-7.1.9-3.4.4-9.4.5-12-2.4m8.4-5.6c.8 0 1.8.5 2.9.4 1.3-.1 2.6-.1 3.9-.2 1.3 0 2.5-.2 3.7-1 .9-.7 1.5-2.2 2.9-1.8-.7 3.4-5.4 5.4-8.4 5.4-1.8 0-3.5.1-5.3-.4-.7-.2-1.8-.3-2.1-1.2-.4-1.5 1-1.1 2-1.3"/><path d="M36.6 68.5c2 3.8 9.1 4.1 12.9 3.4 2.8-.5 4.5-1.1 6.6-3 .7-.6 1.7-2 2.5-1.6 1.3.5.8 2.2.2 3-2.9 4.1-9.7 4.7-14.4 4.4-2.1-.1-4.8-.6-6.7-1.5-1.1-.5-2.2-1-2.4-2.3-.1-1.1.8-2.6 1.9-2.6"/><path d="M56.1 66.1c.5-1.5 2.9-1.6 3.1 0 .2 1.3-2.2 2.8-3.1 3.3-3.1 1.6-6.8 2.8-10.4 2.9-2.1 0-7.3-.1-8.4-2.5-1.5-3.2 6.3-6.3 4.8-2.5 2.3.8 5.2 1.8 7.8 1.6 3.1-.3 5.4-2.1 7.7-3.9m-5-9.9c1.3.6 3.4.9 4.3 2.2.8 1.1.6 4.6-.5 5.6-1.7 1.5-2-2.6-2.6-3.8-.4-.8-1-1.6-1.8-2.1s-2.1-.2-1.6-1.6c.6-.2 1.2-.2 1.8-.1"/><path d="M42.6 61c1.9.2 7.9 2.4 5.3 5.2-1.1 1.2-2.4.1-3.3-.9-1.1-1.2-1.5-2.5-3.1-3.4.2-.6.7-1.1 1.4-1.1"/><path d="M47.6 66.3c.9.6 4.1 1 4.6-.3.4-1-1.7-3.8-2.5-4.5-1.1-1-2.7-2-4.1-2.6-1.2-.5-.8-.8-1.7.3-.5.6-.7 1.5-1.2 2.1 1.2.2 2.6.3 3.7 1 1 .7 2.3 2.7 1.3 3.9"/><path d="M46.7 57.3c2.3 1.4 8.6 4.1 6.4 7.6 6.7-2.7-4.8-14.6-8.5-6.3.7-.9 1.7-1.2 2.8-.9"/></g><g fill="#FDDE44" stroke="#B0732A" stroke-width=".25"><path d="M54.4 70c-5.3 4.2 8.9 6 11.2 6 3.2.1 6.4.1 9.3-1.3 1.4-.7 2.1-1.4 2.9-2.6 1.2-1.8.4-2.2.2-4.1-1.7 1-2.7 2.6-4.6 3.3-2.3.9-4.7.6-7.1.9-3.4.4-9.4.5-12-2.4m8.5-5.6c.8 0 1.8.5 2.9.4 1.3-.1 2.6-.1 3.9-.2 1.3 0 2.5-.2 3.7-1 .9-.7 1.5-2.2 2.9-1.8-.7 3.4-5.4 5.4-8.4 5.4-1.8 0-3.5.1-5.3-.4-.7-.2-1.8-.3-2.1-1.2-.4-1.5 1-1.1 2-1.3"/><path d="M55.3 66.5c2 3.8 9.1 4.1 12.9 3.4 2.8-.5 4.5-1.1 6.6-3 .7-.6 1.7-2 2.5-1.6 1.3.5.8 2.2.2 3-2.9 4.1-9.7 4.7-14.4 4.4-2.1-.1-4.8-.6-6.7-1.5-1.1-.5-2.2-1-2.4-2.3-.1-1.1.8-2.6 1.9-2.6"/><path d="M74.7 64.1c.5-1.5 2.9-1.6 3.1 0 .2 1.3-2.2 2.8-3.1 3.3-3.1 1.6-6.8 2.8-10.4 2.9-2.1 0-7.3-.1-8.4-2.5-1.5-3.2 6.3-6.3 4.8-2.5 2.3.8 5.2 1.8 7.8 1.6 3.1-.3 5.4-2.1 7.7-3.9m-5-9.9c1.3.6 3.4.9 4.3 2.2.8 1.1.6 4.6-.5 5.6-1.7 1.5-2-2.6-2.6-3.8-.4-.8-1-1.6-1.8-2.1s-2.1-.2-1.6-1.6c.6-.2 1.2-.2 1.8-.1"/><path d="M61.3 59c1.9.2 7.9 2.4 5.3 5.2-1.1 1.2-2.4.1-3.3-.9-1.1-1.2-1.5-2.5-3.1-3.4.2-.6.7-1.1 1.4-1.1"/><path d="M66.3 64.3c.9.6 4.1 1 4.6-.3.4-1-1.7-3.8-2.5-4.5-1.1-1-2.7-2-4.1-2.6-1.2-.5-.8-.8-1.7.3-.5.6-.7 1.5-1.2 2.1 1.2.2 2.6.3 3.7 1 1 .7 2.3 2.7 1.3 3.9"/><path d="M65.4 55.3c2.3 1.4 8.6 4.1 6.4 7.6 6.7-2.7-4.8-14.6-8.5-6.3.7-.9 1.7-1.2 2.8-.9"/></g><path fill="#FDDE44" stroke="#B0732A" stroke-width=".25" d="M44.6 58.3c-.3 0-.4 0-.3.3.7.7 1.8.8 2.6 1.2 1 .5 1.5 1.4 2.3 2.1 1.8 1.6 2.6 2.2 2.9 4.6 3.4 1.1.3-5.8-.7-6.9-.9-.9-2.8-2.2-4.1-2.5-1-.2-4.1.3-2.5 1.8"/><path fill="#FDDE44" stroke="#B0732A" stroke-width=".25" d="M60.2 63.5c-1-.2-1.5.4-2.4.6-1.1.2-1.8.1-2.9.7-2 1.1-3.2 1.8-5.6 1.9-1.8.1-3.8.2-5.5-.5-1-.5-1.8-1.3-3-1.6-1.4-.4-1.7-.1-3 0 .2-.8 2.1-2 3-2.1 1.8-.2 1.3.7 2.6 1.9 1.8 1.6 4.8 1.2 7 .8 2.4-.4 4.8-2.2 6.8-3.4.7-.4 2.4-2 3.3-1.4 1.7 1-.7 2.3-1 3.3m3.7-6.6c1.4-.1 3.6 2.1 4.6 3.1 1.3 1.4 1.8 3 1.9 4.8 1.5.6 2.7-1.7 2.8-3 0-1.6-1.2-2.7-2.3-3.8-1.1-1-2.6-2.2-4-2.7-1.1-.3-4.6.4-2.8 1.8M78.2 69c-.3-.1-.3-.2-.2-.4 1 0 2.7.2 3 1.4.3 1.4-1.7 1.9-2.8 1.6-.1-1 0-2-.2-2.9m14-2.8c1.8.6 5.3 2 5.6 4.1 2.5-1.3.9-3.4-.7-4.8-2.1-1.8-3.9-1.1-4.8.5"/><path fill="#FDDE44" stroke="#B0732A" stroke-width=".25" d="M59.2 60.6c1.5.5 1.8.1 3 1.4.9 1 1.8 2 2.1 3.3-2.1 1.7-2.2-.6-3.3-1.7-.6-.6-3.9-1.9-1.3-2.9"/><path fill="#F06032" d="M40.7 62.9c-5.4.2-10 9.3-5 13 4.5 3.3 11.7-5.1 16.2-5 7.2.2 7.7 8.8 14.7 8.7 5.8-.1 8-6.9 14.5-6.9 5.7 0 10 5.5 16.1 4.2 2.7-.6 13.3-7.4 12.6-11.4-.1-.7-14-10.6-14.5-10.7-3.1-.4-6.3 4-9.3 4.7-2.6.7-6.3-.1-8.9-.3.7-2-1.8-2.3-2.2-5.5-4.2-1.2-5.2-1.2-9 0-6 1.8-2.4 3-8.3 1.9-3.7-.8-4.9-4.5-9.8-2.9-1.7.6-5.2 8.1-6.4 9.4"/><path d="M42.4 63.7c1.6-2.4 4.5-8.9 7.7-9.4 1.2-.2 3.7 1.2 4.8 1.8 1.8 1 2.8 1.6 5.1 1.7 3.8.1 6.4-.6 9.7-2.2 1.2-.6 3.2-1.5 4.6-1.1 3.1 1 0 2.6.3 4.4.4 2.8 2.4.2 2.7-1.1.4-1.5-2.3-1.8-3-3.3-.8-1.8-1.2-1.8-3.1-1.3-1.7.4-1.3-.5-2.9.2-2.9 1.2-6.5 2.9-9.8 2.7-3.4-.2-6.6-4-9.9-3.9-3.6.2-6 8.3-8.1 10.7-1.5 1.8-3.4 1.7-4.9 3.6-1 1.2-2.3 4.3-1.9 5.9 2.3.7 3.2-3.3 4.1-4.7 1.1-1.8 3.8-3.6 5.6-4.7m-2.6 13.3c5.5-4.9 13.3-8 18.3-1 2.2 3 5 4.6 8.7 4.1 4.3-.5 5.8-5 9.7-6.1-1.4-2.1-3.3 1.7-4.3 2.6-1.4 1.3-3.7 2.5-5.5 2.8-4.6.9-7.1-3.3-10.1-6-3.1-2.9-6.9-3.7-10.6-1.8-3.4 1.7-6.7 6.3-10.7 5.3 1.6-.2 3.2.4 4.7.3m46-15.4c2.3 0 4.3-2.6 6.4-3.4 2.9-1.2 4.1.1 6 2.3 1.7 2 3.7 3.4 6 4.5 1 .5 2.6.8 2.7 2.1.1 1.3-2 2.7-2.8 3.4-3.1 2.9-8.5 4.8-12.8 4.8-4.3 0-8.5-4.2-12.8-2.4 1.2 1 5 1.2 6.7 1.8 2.4.8 4.4 2.6 6.9 2.9 4.9.6 10.8-3.5 13.9-7 2.3-2.5 2.1-4.4-.4-6.6-2.1-1.8-4.5-3.8-6.7-5.3-1.5-1.1-5-3.5-7-3.1-2.8.7-4.4 3.7-6.2 5.5" opacity=".12"/><path fill="#FFF" d="M42.7 69.1c5.1-.9 10.1-4.7 15.6-1.4 6.2 3.7 5.2 11.7 13.5 5.3 6.2-4.8 8-4.9 15.5-2.5 4.7 1.5 14.3 3.9 13.5-3.9-.2-2.1-2.8-7.1-5.3-7.3-2.1-.2-6 3.4-8.9 3.8-5.8.8-11.1-.7-16.4-2.4-5.2-1.7-11.3-3.2-16.9-2-3.9.8-13.5 7.7-14 11.4 1.3.8 2.6.8 3.9 0" opacity=".16"/><circle cx="89" cy="60.2" r="2" fill="#B07245" stroke="#925225" stroke-width=".25"/><path fill="#532F12" d="M89.2 61.8l.6-.3c-.2-.2 0-.6.1-.8.1.1.3.1.4.2.2-.2.1-.4-.2-.5.1 0 .3-.2.4-.2-.3-.3-.6-.7-.8-1.1 1.6.3 1 2.6-.5 2.7" opacity=".35"/><path fill="none" d="M88 58.7c.3 0 .9-.1 1 .3-.1.1-.2.3-.3.5.7 0 1.4.7.4.8.2.2.4.4.3.6h-.5c0 .1.1.1.1.2-.3.3-1.5-.1-1.6-.5-.1-.4.2-1.7.6-1.9"/><path fill="#FFF" d="M89 59.2c.3-.2.7-.2 1 .1-.1.1-.3.2-.4.3.3 0 .5.2.7.5 0 .1 0 .1-.1.2-.3 0-.5 0-.8-.2 0 .2.6.3.8.6-.2 0-.4.1-.6.1-.1.3-.2.6.1.8-.2.1-.4.1-.6.1-.2-.1-.4 0-.6.1-.3-.3-1-1.1-1.1-1.5 0-.4.5-1.1.9-1.3.3-.2.6-.2.7.2" opacity=".13"/><path fill="#532F12" d="M89.4 58.7c-.9-.4-2.3.3-2.4 1.3-.1 1.1.7 1.8 1.7 2-.1.1-.2.1-.2.1-1 .3-1.7-1.5-1.5-2.2.2-.7 2-2.5 2.4-1.1" opacity=".35"/><path fill="#532F12" d="M88.9 59c-.1-.5-1.2.3-1.4.6-.4.5.1 1.3.4 1.8-1 0-.9-1.2-.6-1.8.6-1.2 1.5-.5 2.5-.5-.2.2-.7.1-1 .1" opacity=".35"/><path fill="#532F12" d="M88.1 60.3c-.1-.4.3-.5.5-.3-.1 0-.2.1-.4.1.1.2.1.3-.1.2m.8 1.6c.8.4 1.3-.7 1.4-1.3.3-1.2-.3-1.3-1-2.1.4 0 .7.4 1 .7.5.4.5.4.4 1-.1 1.2-.7 1.6-1.8 1.9" opacity=".35"/><circle cx="39.9" cy="70.1" r="2" fill="#673B1C"/><path fill="#532F12" d="M40.2 71.8l.6-.3c-.2-.2 0-.6.1-.8.1.1.3.1.4.2.2-.2.1-.4-.2-.5.1 0 .3-.2.4-.2-.3-.3-.6-.7-.8-1.1 1.5.2.9 2.5-.5 2.7" opacity=".35"/><path fill="none" d="M38.9 68.7c.4 0 .9-.1 1 .3-.1.1-.2.3-.3.5.7 0 1.4.7.4.8.2.2.4.4.3.6h-.5c0 .1.1.1.1.2-.3.3-1.5-.1-1.6-.5 0-.5.2-1.8.6-1.9"/><path fill="#FFF" d="M39.9 69.1c.3-.2.7-.2 1 .1-.1.1-.3.2-.4.3.3 0 .5.2.7.5 0 .1-.1.1-.1.2-.3 0-.5 0-.8-.2 0 .2.6.3.8.6-.2 0-.4.1-.6.1-.1.3-.2.6.1.8-.2.1-.4.1-.6.1-.2-.1-.4 0-.6.1-.3-.3-1-1.1-1-1.5 0-.4.5-1.1.9-1.3.2-.2.6-.2.6.2" opacity=".13"/><path fill="#532F12" d="M40.3 68.6c-.9-.4-2.3.2-2.5 1.3-.1 1.1.7 1.8 1.7 2 0 .1-.1.1-.1.1-1 .3-1.7-1.5-1.5-2.2.2-.7 2-2.5 2.4-1.1" opacity=".35"/><path fill="#532F12" d="M39.8 69c-.1-.5-1.2.3-1.4.6-.4.5.1 1.3.4 1.8-1 0-.9-1.2-.6-1.8.6-1.2 1.5-.5 2.5-.5-.2.2-.7.1-1 .1" opacity=".35"/><path fill="#532F12" d="M39 70.2c-.1-.4.3-.5.5-.3-.1 0-.2.1-.4.1.1.2.1.4-.1.2m.8 1.7c.8.4 1.3-.7 1.4-1.3.3-1.2-.3-1.3-1-2.1.4 0 .7.4 1 .7.5.4.5.4.4 1-.1 1.2-.7 1.6-1.8 1.9" opacity=".35"/><circle cx="76.2" cy="67.7" r="2" fill="#B07245" stroke="#925225" stroke-width=".25"/><path fill="#532F12" d="M76.4 69.3l.6-.3c-.2-.2 0-.6.1-.8.1.1.3.1.4.2.2-.2.1-.4-.2-.5.1 0 .3-.2.4-.2-.3-.3-.6-.7-.8-1.1 1.6.2 1 2.6-.5 2.7" opacity=".35"/><path fill="none" d="M75.2 66.2c.4 0 .9-.1 1 .3-.1.1-.2.3-.3.5.7 0 1.4.7.4.8.2.2.4.4.3.6h-.5c0 .1.1.1.1.2-.3.3-1.5-.1-1.6-.5 0-.5.2-1.7.6-1.9"/><path fill="#FFF" d="M76.2 66.6c.3-.2.7-.2 1 .1-.2.1-.4.3-.5.3.3 0 .5.2.7.5 0 .1 0 .1-.1.2-.3 0-.5 0-.8-.2 0 .2.6.3.8.6-.2 0-.4.1-.5.1-.1.3-.2.6.1.8-.2.1-.4.1-.6.1-.2-.1-.4 0-.6.1-.3-.3-1-1.1-1-1.5 0-.4.5-1.1.9-1.3.2-.2.6-.1.6.2" opacity=".13"/><path fill="#532F12" d="M76.6 66.2c-.9-.4-2.3.2-2.5 1.3-.1 1.1.7 1.8 1.7 2-.1.1-.2.1-.2.1-1 .3-1.7-1.5-1.5-2.2.2-.7 2-2.5 2.4-1.1" opacity=".35"/><path fill="#532F12" d="M76.1 66.5c-.1-.5-1.2.3-1.4.5-.4.5.1 1.3.4 1.8-1 0-.9-1.2-.6-1.8.6-1.2 1.5-.5 2.5-.5-.2.2-.7.1-1 .1" opacity=".35"/><path fill="#532F12" d="M75.3 67.8c-.1-.4.3-.5.5-.3-.1 0-.2.1-.4.1.1.2.1.3-.1.2m.8 1.6c.8.4 1.3-.7 1.4-1.3.3-1.2-.3-1.3-1-2.1.4 0 .7.4 1 .7.5.4.5.4.4 1-.1 1.2-.7 1.6-1.8 1.9" opacity=".35"/><circle cx="102.4" cy="68" r="2" fill="#B07245" stroke="#925225" stroke-width=".25"/><path fill="#532F12" d="M102.6 69.6l.6-.3c-.2-.2 0-.6.1-.8.1.1.3.1.4.2.2-.2.1-.4-.2-.5.1 0 .3-.2.4-.2-.3-.3-.6-.7-.8-1.1 1.6.2 1 2.5-.5 2.7" opacity=".35"/><path fill="none" d="M101.4 66.5c.4 0 .9-.1 1 .3-.1.1-.2.3-.3.5.7 0 1.4.7.4.8.2.2.4.4.3.6h-.5c0 .1.1.1.1.2-.3.3-1.5-.1-1.6-.5-.1-.5.2-1.8.6-1.9"/><path fill="#FFF" d="M102.4 66.9c.3-.2.7-.2 1 .1-.1.1-.3.2-.4.3.3 0 .5.2.7.5 0 .1 0 .1-.1.2-.3 0-.5 0-.8-.2 0 .2.6.3.8.6-.2 0-.4.1-.5.1-.1.3-.2.6.1.8-.2.1-.4.1-.6.1-.2-.1-.4 0-.6.1-.3-.3-1-1-1.1-1.5 0-.4.5-1.1.9-1.3.2-.2.5-.2.6.2" opacity=".13"/><path fill="#532F12" d="M102.8 66.4c-.9-.4-2.3.2-2.5 1.3-.1 1.1.7 1.8 1.7 2-.1.1-.2.1-.2.1-1 .3-1.7-1.5-1.5-2.2.2-.7 2-2.5 2.4-1.1" opacity=".35"/><path fill="#532F12" d="M102.3 66.8c-.1-.5-1.2.3-1.4.6-.4.5.1 1.3.4 1.8-1 0-.9-1.2-.6-1.8.6-1.2 1.5-.5 2.5-.5-.2.2-.7.1-1 .1" opacity=".35"/><path fill="#532F12" d="M101.5 68c-.1-.4.3-.5.5-.3-.1 0-.2.1-.4.1.1.2.1.4-.1.2m.8 1.7c.8.4 1.3-.7 1.4-1.3.3-1.2-.3-1.3-1-2.1.4 0 .7.4 1 .7.5.4.5.4.4 1-.1 1.2-.7 1.6-1.8 1.9" opacity=".35"/><circle cx="74.7" cy="58.6" r="2" fill="#B07245" stroke="#925225" stroke-width=".25"/><path fill="#532F12" d="M75 60.2l.6-.3c-.2-.2 0-.6.1-.8.1.1.3.1.4.2.2-.2.1-.4-.2-.5.1 0 .3-.2.4-.2-.3-.3-.6-.7-.8-1.1 1.6.2.9 2.6-.5 2.7" opacity=".35"/><path fill="none" d="M73.8 57.1c.4 0 .9-.1 1 .3-.1.1-.2.3-.3.5.7 0 1.4.7.4.8.2.2.4.4.3.6h-.5c0 .1.1.1.1.2-.3.3-1.4-.1-1.6-.5-.1-.4.1-1.7.6-1.9"/><path fill="#FFF" d="M74.7 57.5c.3-.2.7-.2 1 .1-.1.1-.3.2-.4.3.3 0 .5.2.7.5 0 .1 0 .1-.1.2-.3 0-.5 0-.8-.2 0 .2.6.3.8.6-.2 0-.4.1-.5.1-.1.3-.2.6.1.8-.3.1-.5.1-.7.1-.2-.1-.4 0-.6.1-.3-.3-1-1.1-1.1-1.5 0-.4.5-1.1.9-1.3.3-.1.7-.1.7.2" opacity=".13"/><path fill="#532F12" d="M75.2 57.1c-.9-.4-2.3.2-2.5 1.3-.1 1.1.7 1.8 1.7 2-.1.1-.2.1-.2.1-1 .3-1.7-1.5-1.5-2.2.2-.7 2-2.5 2.4-1.1" opacity=".35"/><path fill="#532F12" d="M74.7 57.4c-.1-.5-1.2.3-1.4.6-.4.5.1 1.3.4 1.8-1 0-.9-1.2-.6-1.8.6-1.2 1.5-.5 2.5-.5-.2.2-.7.1-1 .1" opacity=".35"/><path fill="#532F12" d="M73.8 58.7c-.1-.4.3-.5.5-.3-.1 0-.2.1-.4.1.1.2.2.3-.1.2m.9 1.6c.8.4 1.3-.7 1.4-1.3.3-1.2-.3-1.3-1-2.1.4 0 .7.4 1 .7.5.4.5.4.4 1-.1 1.2-.7 1.6-1.8 1.9" opacity=".35"/><circle cx="56" cy="62.7" r="2" fill="#B07245" stroke="#925225" stroke-width=".25"/><path fill="#532F12" d="M56.3 64.3l.6-.3c-.2-.2 0-.6.1-.8.1.1.3.1.4.2.2-.2.1-.4-.2-.5.1 0 .3-.2.4-.2-.3-.3-.6-.7-.8-1.1 1.5.2.9 2.6-.5 2.7" opacity=".35"/><path fill="none" d="M55 61.2c.4 0 .9-.1 1 .3-.1.1-.2.3-.3.5.7 0 1.4.7.4.8.2.2.4.4.3.6h-.5c0 .1.1.1.1.2-.3.3-1.5-.1-1.6-.5 0-.5.2-1.8.6-1.9"/><path fill="#FFF" d="M56 61.6c.3-.2.7-.2 1 .1-.1.1-.3.2-.4.3.3 0 .5.2.7.5 0 .1-.1.1-.1.2-.3 0-.5 0-.8-.2 0 .2.6.3.8.6-.2 0-.4.1-.6.1-.1.3-.2.6.1.8-.2.1-.4.1-.6.1-.2-.1-.4 0-.6.1-.3-.3-1-1-1.1-1.5 0-.4.5-1.1.9-1.3.3-.2.7-.2.7.2" opacity=".13"/><path fill="#532F12" d="M56.4 61.2c-.9-.4-2.3.2-2.5 1.3-.1 1.1.7 1.8 1.7 2-.1.1-.2.1-.2.1-1 .3-1.7-1.5-1.5-2.2.2-.7 2-2.5 2.4-1.1" opacity=".35"/><path fill="#532F12" d="M55.9 61.5c-.1-.5-1.2.3-1.4.6-.4.5.1 1.3.4 1.8-1 0-.9-1.2-.6-1.8.6-1.2 1.5-.5 2.5-.5-.2.2-.7.1-1 .1" opacity=".35"/><path fill="#532F12" d="M55.1 62.7c-.1-.4.3-.5.5-.3-.1 0-.2.1-.4.1.1.3.1.4-.1.2m.8 1.7c.8.4 1.3-.7 1.4-1.3.3-1.2-.3-1.3-1-2.1.4 0 .7.4 1 .7.5.4.5.4.4 1-.1 1.2-.7 1.6-1.8 1.9" opacity=".35"/><path fill="#F06032" d="M37.1 73c.6-1.6 2.4-.8 3.4-1.4.8-.5.6-1.1 1.6-1.4.6-.2 1.3 0 1.9-.3.2 1.7-2.1 2.1-3.2 2.7-.6.4-1.2.9-2 .9-.7 0-1.3-.4-2-.4m20.3-8.3c.5-1.6 1.5-3.9-.9-3.8-.7 0-1.9.3-2.2 1-.3.8-.1 2.3.9 2.3-.1.2 1.2.1 1.1.3 1 .3-.2-.7.6-.1-.3.6-.3 1.4-1.1 1.3-.9 0-1.1-1.2-1.4-1.6-.5-.6-.9-.5-.9-1.5 0-.8.4-1.6 1.1-1.9 1.1-.6 3.2-.6 3.8.5.9 1.6.1 3-.9 4.1-.2-.1-.3-.2-.2-.4"/><path fill="#FFF" d="M74.6 66.8c-1.8 0 .4 3.3 2 2.9 2.1-.5 1.5-3.8-.4-4 1.4-1.3 1.9 0 2.3 1.2.4 1.4.3 2.6-1.1 3.5-1.2.7-2.5-.3-3.4-.9-1.4-1-1.2-1.7.2-2.6" opacity=".16"/><path fill="#F06032" d="M87.2 60.5c-.9.1-.7.7-.2 1.1.2.2 1.5.4 1.8.4.6 0 1.3-.3 1.6-.9.4-.6 0-1.3.5-1.9 2.1.7-.4 2.8-1.1 3.3-.7.5-.8 1.1-1.8.6-.9-.4-.7-1.1-1.9-.8-.7-1 .2-1.7 1.1-1.8m-14.9-1.8c-.4 1.8 3.5 1.6 4.4.6 2.2 1.3.3 1.5-1.3 1.7-.6.1-1.4.3-2 .2-.7-.2-1.6-.9-2.3-1.2.1-.8.7-2.4 1.8-1.8-.1.3-.2.6-.4.8m27.7 9.8c.4.8.8.7 1.5.9 1 .3.8.3 1.6-.3.6-.5 1-.5.9-1.4 0-.7-.6-.8-.5-1.5-.6-.1-1.2.2-1.9 0 .7-2.1 5.2 1.2 2.8 3.2-.5.4-2.3 1.8-2.8 1.8-.9 0-2-1.6-1.8-2.4"/><circle cx="90.6" cy="68.8" r="2" fill="#673B1C"/><path fill="#532F12" d="M90.9 70.4l.6-.3c-.2-.2 0-.6.1-.8.1.1.3.1.4.2.2-.2.1-.4-.2-.5.1 0 .3-.2.4-.2-.3-.3-.6-.7-.8-1.1 1.5.2.9 2.6-.5 2.7" opacity=".35"/><path fill="none" d="M89.6 67.3c.3 0 .9-.1 1 .3-.1.1-.2.3-.3.5.7 0 1.4.7.4.8.2.2.4.4.3.6h-.5c0 .1.1.1.1.2-.3.3-1.5-.1-1.6-.5 0-.4.2-1.7.6-1.9"/><path fill="#FFF" d="M90.6 67.7c.3-.2.7-.2 1 .1-.1.1-.3.2-.4.3.3 0 .5.2.7.5 0 .1-.1.1-.1.2-.3 0-.5 0-.8-.2 0 .2.6.3.8.6-.2 0-.4.1-.6.1-.1.3-.2.6.1.8-.2.1-.4.1-.6.1-.2-.1-.4 0-.6.1-.3-.3-1-1.1-1-1.5 0-.4.5-1.1.9-1.3.2-.1.6-.1.6.2" opacity=".13"/><path fill="#532F12" d="M91 67.3c-.9-.4-2.3.2-2.5 1.3-.1 1.1.7 1.8 1.7 2-.1.1-.2.1-.2.1-1 .3-1.7-1.5-1.5-2.2.2-.7 2-2.5 2.4-1.1" opacity=".35"/><path fill="#532F12" d="M90.5 67.6c-.1-.5-1.2.3-1.4.6-.4.5.1 1.3.4 1.8-1 0-.9-1.2-.6-1.8.6-1.2 1.5-.5 2.5-.5-.2.2-.7.1-1 .1" opacity=".35"/><path fill="#532F12" d="M89.7 68.9c-.1-.4.3-.5.5-.3-.1 0-.2.1-.4.1.1.2.1.3-.1.2m.8 1.6c.8.4 1.3-.7 1.4-1.3.3-1.2-.3-1.3-1-2.1.4 0 .7.4 1 .7.5.4.5.4.4 1-.1 1.2-.7 1.6-1.8 1.9" opacity=".35"/><path fill="#F06032" d="M87.8 71.6c.6-1.6 2.4-.7 3.4-1.4.8-.5.6-1.1 1.6-1.4.6-.2 1.3 0 1.9-.3.2 1.7-2.1 2.1-3.2 2.7-.6.4-1.2.9-2 .9-.7 0-1.3-.4-2-.4"/><circle cx="63.8" cy="69.6" r="2" fill="#673B1C"/><path fill="#532F12" d="M64 71.2l.6-.3c-.2-.2 0-.6.1-.8.1.1.3.1.4.2.2-.2.1-.4-.2-.5.1 0 .3-.2.4-.2-.3-.3-.6-.7-.8-1.1 1.6.3 1 2.6-.5 2.7" opacity=".35"/><path fill="none" d="M62.8 68.2c.3 0 .9-.1 1 .3-.1.1-.2.3-.3.5.7 0 1.4.7.4.8.2.2.4.4.3.6h-.5c0 .1.1.1.1.2-.3.3-1.5-.1-1.6-.5-.1-.5.2-1.8.6-1.9"/><path fill="#FFF" d="M63.8 68.6c.3-.2.7-.2 1 .1-.1.1-.3.2-.4.3.3 0 .5.2.7.5 0 .1-.1.1-.1.2-.3 0-.5 0-.8-.2 0 .2.6.3.8.6-.2 0-.4.1-.6.1-.1.3-.2.6.1.8-.2.1-.4.1-.6.1-.2-.1-.4 0-.6.1-.3-.3-1-1.1-1-1.5 0-.4.5-1.1.9-1.3.2-.2.6-.2.6.2" opacity=".13"/><path fill="#532F12" d="M64.2 68.1c-.9-.4-2.3.2-2.5 1.3-.1 1.1.7 1.8 1.7 2-.1.1-.2.1-.2.1-1 .3-1.7-1.5-1.5-2.2.2-.7 2-2.5 2.4-1.1" opacity=".35"/><path fill="#532F12" d="M63.7 68.5c-.1-.5-1.2.3-1.4.6-.4.5.1 1.3.4 1.8-1 0-.9-1.2-.6-1.8.6-1.2 1.5-.5 2.5-.5-.2.2-.7.1-1 .1" opacity=".35"/><path fill="#532F12" d="M62.9 69.7c-.1-.4.3-.5.5-.3-.1 0-.2.1-.4.1.1.2.1.4-.1.2m.8 1.7c.8.4 1.3-.7 1.4-1.3.3-1.2-.3-1.3-1-2.1.4 0 .7.4 1 .7.5.4.5.4.4 1-.1 1.2-.7 1.6-1.8 1.9" opacity=".35"/><path fill="#F06032" d="M61 72.5c.6-1.6 2.4-.7 3.4-1.4.8-.5.6-1.1 1.6-1.4.6-.2 1.3 0 1.9-.3.2 1.7-2.1 2.1-3.2 2.7-.6.4-1.2.9-2 .9-.7 0-1.3-.4-2-.4"/><path fill="#F06032" stroke="#F06032" d="M108.2 69.2c1.1 1.9-5.1 6.7-6.7 7.5-1.4.7-3 1.7-4.5 2-1.5.4-3.1 0-4.7.2-3.4.4-6.1-1.5-9.4-1.9-3.4-.4-6.6 2.1-9.4 3.7-2.7 1.6-5.8 2.7-8.9 1.5-1.4-.5-3.3-1.1-4.6-2-1.7-1.1-2.6-2.9-4-4.2-1.2-1.1-2.9-1.6-4.5-1.7-1.4-.1-3.3-.9-4.5-.5-2.4.6-5 3-6.6 4.8-.8.9-1.1 2.6-1.9 3.2-1 .8-2.9.3-3.9-.1-1.9-.7-3.1-2.2-3.7-4.1-1-3.4.4-7.3 3.5-9.2-1.2 1.2-.9 2.7-.5 4.2.6 2.3 1.5 2.5 3.7 2.5 3.3.1 6.6-1.3 9.6-2.7 3.6-1.6 5.8-2.3 9.4-.4 1.9 1 2.4 1.7 3.6 3.4 1 1.5 3.1 2.8 4.7 3.4 3.9 1.3 6.4-2.1 9.7-3.7 3.2-1.6 6.1-3.5 9.9-2.8 3.5.6 5.8 3 9.4 3.3 3.1.3 6.7-.1 9.3-1.9 1.7-1.2 3.7-2.8 4.5-4.8"/><path fill="#99999A" d="M90.1 60.2c-2-1.2-8.8-5.9-8.3-8.3.9-3.8 10.3-2.7 7.7-8.2-1.5-3.2-6.5-5-3.8-7.9.5-.5 2.6-.7 3.1-1.4 1-1.1-.3-1.8.1-2.7.7-1.6.7-2.7 3.8-3.4 0-1.5-3-2-4.9-2.9 2.9.6 6.9.2 8.9 1.4-1.5 1.4-4 2.4-5.5 3.7-2.1 1.9-.3 3.1-1.2 4.8-.8 1.5-4.4 2-4.4 3.6 0 .9 3.2 3 3.9 4 3.2 4.3-2.2 4.6-4.8 8-2.5 3.3 6.5 6.4 2.4 9.5" opacity=".17"/><path fill="#99999A" stroke="#E2E0DF" stroke-width=".25" d="M66.6 57.9c-2.2-.5-9.5-2.3-9.3-4.2.3-2.9 9.7-4.1 6.3-7.4-2-1.9-7.1-2.2-4.9-4.7.4-.5 2.4-1 2.8-1.6.8-1-.5-1.2-.3-1.9.4-1.3.3-2 3.2-3.2-.3-1-3.2-.8-5.2-1 3-.2 6.7-1.3 9-.9-1.3 1.3-3.5 2.5-4.8 3.8-1.8 1.8.1 2.2-.5 3.6-.5 1.2-4 2.4-3.7 3.4.2.7 3.6 1.5 4.4 2 3.8 2.3-1.4 3.7-3.5 6.6-2 2.9 7.3 3.2 3.7 6.2" opacity=".17"/><path fill="#99999A" d="M77 65.4c-2-2.3-8.8-10.8-8.3-15.2.9-6.9 10.3-5 7.7-15-1.5-5.8-6.5-9.1-3.8-14.4.5-.9 2.6-1.3 3.1-2.5 1-2-.3-3.2.1-4.9.7-2.9.7-4.9 3.8-6.2 0-2.7-3-3.7-4.9-5.3 2.9 1 6.9.3 8.9 2.6-1.5 2.6-4 4.4-5.5 6.8-2.1 3.5-.3 5.6-1.2 8.8-.8 2.8-4.4 3.7-4.4 6.6 0 1.7 3.2 5.5 3.9 7.3 3.2 7.8-2.2 8.4-4.8 14.6-2.5 6.1 6.5 11.8 2.4 17.3" opacity=".17"/><path fill="#99999A" stroke="#E2E0DF" stroke-width=".25" d="M61.3 25c-2.2-.4-9.5-2.3-9.3-4.2.3-2.9 9.7-4.1 6.3-7.4-2-1.9-7.1-2.2-4.9-4.7.4-.5 2.4-1 2.8-1.6.8-1-.5-1.2-.3-1.9.4-1.3.3-2 3.2-3.2-.2-1-3.1-.8-5.1-1 3-.2 6.7-1.3 9-.9-1.3 1.3-3.5 2.5-4.8 3.8-1.8 1.8.1 2.2-.5 3.6-.5 1.2-4 2.4-3.7 3.4.2.7 3.6 1.5 4.4 2 3.8 2.3-1.4 3.7-3.5 6.6-2 2.9 7.3 3.2 3.7 6.2" opacity=".17"/></g></switch></svg>
