<?xml version="1.0" encoding="utf-8"?>
<!-- Generator: Adobe Illustrator 21.0.0, SVG Export Plug-In . SVG Version: 6.00 Build 0)  -->
<svg version="1.1" id="Capa_1" xmlns="http://www.w3.org/2000/svg" xmlns:xlink="http://www.w3.org/1999/xlink" x="0px" y="0px"
	 viewBox="0 0 220 130" style="enable-background:new 0 0 220 130;" xml:space="preserve">
<style type="text/css">
	.st0{fill:#81C5E5;}
	.st1{fill:#9F9D98;}
	.st2{fill:#8ABB4F;}
	.st3{fill:#FFFFFF;}
	.st4{fill:#D70114;}
	.st5{fill:url(#SVGID_1_);stroke:#496739;stroke-width:0.5;}
	.st6{fill:none;stroke:#496739;stroke-width:0.5;}
	.st7{fill:#F0CA45;}
	.st8{fill:#BB953C;}
	.st9{fill:url(#SVGID_2_);stroke:#496739;stroke-width:0.5;}
	.st10{fill:#6A3D27;}
	.st11{fill:#FF8B42;}
	.st12{fill:#FF5816;}
	.st13{fill:#F9F7F8;}
	.st14{fill:#FFFFFF;stroke:#969695;stroke-width:0.25;}
	.st15{fill:#E8C6C6;}
	.st16{fill:#C6A97D;}
	.st17{fill:url(#SVGID_3_);stroke:#91691C;stroke-width:0.25;}
	.st18{fill:url(#SVGID_4_);stroke:#91691C;stroke-width:0.25;}
	.st19{fill:url(#SVGID_5_);stroke:#91691C;stroke-width:0.25;}
	.st20{fill:#C6A97D;stroke:#B7976E;stroke-width:0.25;stroke-miterlimit:10;}
	.st21{fill:#A1262D;}
	.st22{fill:#382512;stroke:#573719;stroke-width:0.25;}
	.st23{fill:#100F10;}
	.st24{opacity:0.13;fill:url(#SVGID_6_);}
	.st25{fill:none;stroke:#95724C;stroke-width:0.75;}
	.st26{opacity:0.13;fill:url(#SVGID_7_);}
	.st27{fill:#FFFFFF;stroke:#B79267;stroke-width:0.5;}
	.st28{fill:#B36831;}
	.st29{fill:#4D64A6;stroke:#314687;stroke-width:0.4503;}
	.st30{fill:#2B4066;stroke:#2B4066;stroke-width:0.4503;}
	.st31{fill:#2B4066;}
	.st32{opacity:0.17;fill:#181918;}
	.st33{fill:#CF512A;}
	.st34{fill:#A6C9C9;stroke:#779796;stroke-width:0.25;}
	.st35{fill:#FFFFFF;stroke:#888A8B;stroke-width:0.2232;}
	.st36{fill:url(#SVGID_8_);stroke:#E0B457;stroke-width:0.174;}
	.st37{fill:url(#SVGID_9_);stroke:#E0B457;stroke-width:0.174;}
	.st38{fill:url(#SVGID_10_);stroke:#E0B457;stroke-width:0.174;}
	.st39{fill:url(#SVGID_11_);stroke:#E0B457;stroke-width:0.174;}
	.st40{fill:none;stroke:#010101;stroke-width:0.1965;}
	.st41{opacity:0.14;fill:#F4F4F4;}
	.st42{fill:url(#SVGID_12_);stroke:#E0B457;stroke-width:0.174;}
	.st43{fill:url(#SVGID_13_);stroke:#E0B457;stroke-width:0.174;}
	.st44{opacity:0.13;fill:url(#SVGID_14_);}
	.st45{fill:#0B0B0D;}
	.st46{opacity:0.13;fill:url(#SVGID_15_);}
	.st47{fill:url(#SVGID_16_);}
	.st48{opacity:0.14;fill:#F5F5F4;}
	.st49{opacity:0.13;fill:#FFFFFF;}
	.st50{fill:url(#SVGID_17_);stroke:#E0B457;stroke-width:0.174;}
	.st51{fill:none;stroke:#8B6666;stroke-width:0.5;}
</style>
<path class="st0" d="M221,127.2c0,1-0.3,1.8-0.7,1.8H0.7c-0.4,0-0.7-0.8-0.7-1.8V1.8C0,0.8,0.3,0,0.7,0h219.5c0.4,0,0.7,0.8,0.7,1.8
	V127.2z"/>
<rect y="67" class="st1" width="221" height="63"/>
<rect x="0" y="37.1" class="st2" width="221" height="78.9"/>
<g>
	<g>
		<rect x="0" y="110.8" class="st3" width="79.3" height="7.3"/>
		<g>
			<g>
				<rect x="0" y="110.8" class="st4" width="1.7" height="7.3"/>
				<rect x="4.8" y="110.8" class="st4" width="1.7" height="7.3"/>
				<rect x="9.5" y="110.8" class="st4" width="1.7" height="7.3"/>
				<rect x="14.2" y="110.8" class="st4" width="1.7" height="7.3"/>
				<rect x="19" y="110.8" class="st4" width="1.7" height="7.3"/>
				<rect x="23.8" y="110.8" class="st4" width="1.7" height="7.3"/>
			</g>
			<g>
				<rect x="28.4" y="110.8" class="st4" width="1.7" height="7.3"/>
				<rect x="33.1" y="110.8" class="st4" width="1.7" height="7.3"/>
				<rect x="37.9" y="110.8" class="st4" width="1.7" height="7.3"/>
				<rect x="42.6" y="110.8" class="st4" width="1.7" height="7.3"/>
				<rect x="47.4" y="110.8" class="st4" width="1.7" height="7.3"/>
				<rect x="52.1" y="110.8" class="st4" width="1.7" height="7.3"/>
			</g>
		</g>
		<g>
			<g>
				<rect x="56" y="110.8" class="st4" width="1.7" height="7.3"/>
				<rect x="60.8" y="110.8" class="st4" width="1.7" height="7.3"/>
				<rect x="65.5" y="110.8" class="st4" width="1.7" height="7.3"/>
				<rect x="70.3" y="110.8" class="st4" width="1.7" height="7.3"/>
				<rect x="75" y="110.8" class="st4" width="1.7" height="7.3"/>
			</g>
		</g>
	</g>
	<g>
		<g>
			<rect x="79.7" y="110.8" class="st3" width="79.3" height="7.3"/>
			<g>
				<g>
					<rect x="79.7" y="110.8" class="st4" width="1.7" height="7.3"/>
					<rect x="84.5" y="110.8" class="st4" width="1.7" height="7.3"/>
					<rect x="89.2" y="110.8" class="st4" width="1.7" height="7.3"/>
					<rect x="93.9" y="110.8" class="st4" width="1.7" height="7.3"/>
					<rect x="98.7" y="110.8" class="st4" width="1.7" height="7.3"/>
					<rect x="103.4" y="110.8" class="st4" width="1.7" height="7.3"/>
				</g>
				<g>
					<rect x="108" y="110.8" class="st4" width="1.7" height="7.3"/>
					<rect x="112.8" y="110.8" class="st4" width="1.7" height="7.3"/>
					<rect x="117.6" y="110.8" class="st4" width="1.7" height="7.3"/>
					<rect x="122.3" y="110.8" class="st4" width="1.7" height="7.3"/>
					<rect x="127" y="110.8" class="st4" width="1.7" height="7.3"/>
					<rect x="131.8" y="110.8" class="st4" width="1.7" height="7.3"/>
				</g>
			</g>
			<g>
				<g>
					<rect x="135.7" y="110.8" class="st4" width="1.7" height="7.3"/>
					<rect x="140.5" y="110.8" class="st4" width="1.7" height="7.3"/>
					<rect x="145.2" y="110.8" class="st4" width="1.7" height="7.3"/>
					<rect x="149.9" y="110.8" class="st4" width="1.7" height="7.3"/>
					<rect x="154.7" y="110.8" class="st4" width="1.7" height="7.3"/>
				</g>
			</g>
		</g>
	</g>
	<g>
		<g>
			<rect x="158.9" y="110.8" class="st3" width="61" height="7.3"/>
			<g>
				<g>
					<rect x="158.9" y="110.8" class="st4" width="1.7" height="7.3"/>
					<rect x="163.6" y="110.8" class="st4" width="1.7" height="7.3"/>
					<rect x="168.4" y="110.8" class="st4" width="1.7" height="7.3"/>
					<rect x="173.1" y="110.8" class="st4" width="1.7" height="7.3"/>
					<rect x="177.9" y="110.8" class="st4" width="1.7" height="7.3"/>
					<rect x="182.6" y="110.8" class="st4" width="1.7" height="7.3"/>
				</g>
				<g>
					<rect x="187.2" y="110.8" class="st4" width="1.7" height="7.3"/>
					<rect x="192" y="110.8" class="st4" width="1.7" height="7.3"/>
					<rect x="196.7" y="110.8" class="st4" width="1.7" height="7.3"/>
					<rect x="201.5" y="110.8" class="st4" width="1.7" height="7.3"/>
					<rect x="206.2" y="110.8" class="st4" width="1.7" height="7.3"/>
					<rect x="211" y="110.8" class="st4" width="1.7" height="7.3"/>
				</g>
			</g>
			<g>
				<g>
					<rect x="214.9" y="110.8" class="st4" width="1.7" height="7.3"/>
				</g>
			</g>
		</g>
	</g>
</g>
<g>
	<radialGradient id="SVGID_1_" cx="33.4467" cy="95.847" r="70.4722" gradientUnits="userSpaceOnUse">
		<stop  offset="0" style="stop-color:#496739"/>
		<stop  offset="1" style="stop-color:#8ABD6B"/>
	</radialGradient>
	<path class="st5" d="M24.6,50.7c-0.3-0.1-4.3,1.5-3.1-0.4c-1.1,0.3-2.6-0.3-1.3-1.3c-0.4,0.1-0.9-0.1-1.2,0c0.2-0.3,0.3-1,0.5-1.3
		c-0.2,0-0.5-0.1-0.7-0.1c0.3-1.7-0.6-1.4-1.7-1.6c-0.6-0.1-2.9,0-1.5-1c-1.5,0.4-2.3-0.6-1.2-1.6c-1.5-0.4-1.3-1.8,0.2-2
		c-0.3-0.2-0.9-0.8-1.3-1.1c0.2-0.2,0.5-0.7,0.8-0.9c-1-1.1,0.4-0.6,0.8-1.2c0.6-1.2,0.9-0.3,0-1.4c-0.8-1-3.6-2.3-0.2-2.9
		c-0.4-0.5-0.9-1.2-0.9-1.9c0.3-0.1,0.7-0.4,1.1-0.4c-0.7-1.1-1.1-2,0.8-2.1c-1.9-1.2,4.4-1.5,1.5-3.9c0.4-0.4,1-0.7,1.7-0.8
		c-0.7-0.7,0-0.7,0.2-1.2c0.1-0.3,0.7-1.5,0.9-1.7c1.1-1,3.1-0.5,4.3-1.4c1.2-0.8,1.5-1.4,3-1.7c1-0.2,4-0.4,4.4,0.4
		c0.6-0.1,1.2,0.1,1.8,0c0,0.3,0.1,0.6,0.1,0.9c1.3,0.1,2.8-0.1,4.1-0.2c0.8,0,5.1-0.4,2.6,1.1c1,0.1,2.7-0.4,2.8,0.8
		c1.7-0.2,3.1,0.7,4.9,0.4c0.5-0.1,1.8-0.7,2.2-0.5c0.9,0.5,0.6,1.5-0.3,1.8c0.4-0.1,0.9-0.1,1.4-0.3c0,0.2,0.1,0.5,0.1,0.7
		c0.3-0.1,0.8,0.1,1.1,0.1c0,0.3,0.1,0.6,0.1,0.9c0.5,0.6,3,1.4,3.2,2.5c0.1,0.8-2.5,3,0.5,2.5c0.2,0.9-1,1.5-0.7,2.2
		c0.3,0.8,1.7,0.8,2.4,0.8c0.1,1-0.8,1.4-1.5,1.8c0.5-0.1,1,0.2,1.5,0.3c-0.2,0.3-0.1,0.8-0.5,1.1c0.2,0.1,0.4,0.4,0.7,0.6
		c-0.2,0.1-0.6,0.5-0.8,0.5c0.9,0.5,1.3,1.4,1.1,2.4c-0.4,0-0.9,0.1-1.3,0.1c0.6,0.7,2.4,2,0,2.1c1.7,0.9-0.1,1.3-0.9,1.8
		c0.7,0.2,0.6,0.5,0.9,0.8c-1.2,0.2-0.4,1.1-0.9,1.5c-0.7,0.5-1.6,0.2-2.3,0.7c0.5,0.4,0.6,0.9,0.8,1.5c-0.6,0.2-1.2,0.4-1.8,0.4
		c0.1,1.2-1.2,1-2.1,1.3c0.1,1.3-1.5,1.1-2.3,0.7c0-0.1,0-0.2,0,0c-0.5,0.6-1.4,0.4-2.3,0.4c1,2-2.3,0.2-3,0.2
		c0.7,3.1-1.9-0.1-2.7,0.9c-1.1-0.1-1.8-0.5-3-0.4c-0.3,0-1,0.6-1.4,0.5c-1-0.3-0.4-0.9-1-1.3c-2.8-1.7-2.4,2.2-5.2,1.7
		c0-0.3-0.1-0.8-0.1-1.1c-1.3,1.3-2.8,1.4-4.5,1.3c-0.1-0.2-0.1-0.5-0.1-0.7c-0.7-0.2-0.8-0.7-0.7-1.3"/>
	<path class="st6" d="M21.3,29.3c-0.2-0.5-0.9-0.6-1.5-0.5c0,0.3,0,0.5,0.1,0.7c-0.1,0.1-0.3,0-0.4,0c0.1,0.1,0.3,0.3,0.5,0.4
		c-1.4,0.2-2.4,1.6-0.5,1.5c-0.5,0.3-1.3,0.6-1.3,1.3c0.2,0,0.3,0,0.5,0c-1.3,1.3,0.2,2.9,1.5,1.5c-0.5,0.8-0.9,1.6-0.7,2.6
		c0.1,0,0.2,0,0.3,0c-0.1,0.3,0,0.8-0.1,1.1c0.2-0.1,0.6,0.1,0.8,0c0.1,0.9,0.9,0.9,1.4,0.2c-0.1,0.7,0.4,1.1,0.9,0.6
		c-0.2,0.9,0.6,1.2,1.2,0.5c0.4,0.5,1,0.4,1.3,0c1.4,0.4,3.1-0.7,2.9-2.3"/>
	<path class="st6" d="M32.7,41.7c-0.6,0.2-1.1,0.6-1,1.2c0.5,0.1,1,0,1.3-0.4c-0.8,1-0.6,3.1,0.6,1.6c-0.2,1,0.4,2.4,1.3,1
		c0.2,0.6,1.1,1.3,1.8,1c0.2-0.1,0.8-1.7,0.9-2"/>
	<path class="st6" d="M44.7,28.2c-0.3-0.6,0.5-1.1,1.1-1.2c0,0.3,0.2,0.5,0.2,0.9c0.8-0.2,1.5-0.9,2.3-0.7c-0.1,0.4,0,0.7-0.2,1.1
		c0.4,0,1.1-0.4,1.5-0.1c0.6,0.4,0.1,1-0.4,1.2c0.4,0.5,2.4,1.9,0.4,2.2c0.2,0.6,0.7,2.1-0.4,2.1c0.3,0.5,1.1,1.4,0.4,2
		c-0.5,0.5-1.4-0.2-2,0"/>
	<path class="st6" d="M43.7,44.1c0.3,1.2,2,0.9,2.5,0c1.4,0.6,2.1-0.9,1.5-2.1"/>
	<path class="st6" d="M22.5,45.6c-1.3,0.8,0,1.8,1.1,1.1"/>
	<path class="st6" d="M27.5,25.1c-0.3-0.1-1.2-0.5-1-1.2c0.4,0,0.7-0.1,1.1,0.1c-0.7-0.9-0.3-1.8,0.9-1.4c0-1.6,1.8-1.5,2.3-0.3
		c0.1-0.2,0.4-0.3,0.5-0.5c0.3,0.4,0.6,0.9,0.8,1.3c0.4-0.8,1.1-0.9,1.3,0c0.5-0.3,1.1-1.5,2-0.9c0.7,0.5,0.2,1.4-0.4,1.7
		c0.3,0,1.5-0.3,1.7-0.1c0.5,0.4-0.1,1.4-0.5,1.7c1.1,0.6-0.3,1.3-1,1.6"/>
	<g>
		<path class="st7" d="M23.7,34.1c0-0.3,0.5,0,0.6,0c0.2,0.1,0.4,0.4,0.5,0.1c0.1-0.2,0-0.5-0.2-0.6c-0.2-0.1-0.5,0-0.7,0
			c0.1-0.3,0.5-0.2,0.7-0.3c0.1-0.1,0.2,0,0.1-0.2c0-0.1-0.2-0.2-0.2-0.3c-0.4-0.2-0.9,0.1-0.9,0.5c-0.3-0.2-0.1-0.5-0.2-0.8
			c-0.6,0-1,0.8-0.4,1.1c-0.4-0.1-1,0.6-0.5,0.8C22.9,34.4,23.3,33.6,23.7,34.1"/>
		<path class="st8" d="M23.6,33.9c0.3-0.2,0.1-0.7-0.2-0.5C23,33.5,23.4,33.8,23.6,33.9"/>
	</g>
	<g>
		<path class="st7" d="M28,28.4c0.1-0.3,0.4,0.3,0.5,0.4c0.1,0.2,0.1,0.5,0.4,0.4c0.2-0.1,0.3-0.4,0.2-0.6c-0.1-0.2-0.4-0.3-0.6-0.4
			c0.3-0.1,0.5,0.1,0.7,0.1c0.2,0,0.1,0.1,0.2-0.1c0-0.1,0-0.3,0-0.3c-0.2-0.3-0.8-0.4-1-0.1c-0.2-0.4,0.2-0.5,0.3-0.7
			c-0.4-0.4-1.2,0-0.9,0.6c-0.3-0.4-1.2-0.1-0.9,0.3C27.1,28.3,28,27.8,28,28.4"/>
		<path class="st8" d="M28,28.2c0.4,0.1,0.5-0.5,0.1-0.5C27.8,27.6,27.9,28,28,28.2"/>
	</g>
	<g>
		<path class="st7" d="M49.5,38.9c0.1-0.3,0.5,0.3,0.5,0.4c0.1,0.2,0.1,0.5,0.4,0.4c0.2-0.1,0.3-0.4,0.2-0.6
			c-0.1-0.2-0.4-0.3-0.6-0.4c0.3-0.1,0.5,0.1,0.7,0.1c0.2,0,0.1,0.1,0.2-0.1c0-0.1,0-0.3,0-0.3c-0.2-0.3-0.8-0.4-1-0.1
			c-0.2-0.4,0.2-0.5,0.3-0.7c-0.4-0.4-1.2,0-0.9,0.6c-0.3-0.4-1.2-0.1-0.9,0.3C48.7,38.8,49.5,38.3,49.5,38.9"/>
		<path class="st8" d="M49.6,38.8c0.4,0.1,0.5-0.5,0.1-0.5C49.3,38.1,49.4,38.6,49.6,38.8"/>
	</g>
	<g>
		<path class="st7" d="M43.1,26.2c-0.2-0.2,0.3-0.4,0.4-0.5c0.2-0.1,0.5,0,0.4-0.4c-0.1-0.2-0.4-0.3-0.6-0.3
			c-0.3,0.1-0.3,0.4-0.5,0.6C42.7,25.4,43,25.2,43,25c0-0.1,0.1-0.1-0.1-0.2c-0.1,0-0.3,0-0.3,0c-0.4,0.2-0.5,0.7-0.2,1
			c-0.4,0.1-0.5-0.3-0.7-0.4c-0.4,0.4-0.1,1.2,0.6,1c-0.4,0.2-0.2,1.2,0.3,0.9C42.9,27.1,42.5,26.2,43.1,26.2"/>
		<path class="st8" d="M42.9,26.2c0.1-0.3-0.4-0.5-0.5-0.2C42.3,26.4,42.7,26.3,42.9,26.2"/>
	</g>
	<g>
		<g>
			<path class="st7" d="M29,40.8c0-0.2,0.4,0,0.5,0c0.2,0.1,0.3,0.3,0.4,0.1c0.1-0.2,0-0.4-0.2-0.5c-0.2-0.1-0.4,0-0.6,0
				c0.1-0.2,0.3-0.1,0.5-0.3c0.1-0.1,0.1,0,0.1-0.1c0-0.1-0.1-0.2-0.2-0.2c-0.3-0.1-0.7,0.1-0.7,0.4c-0.3-0.2-0.1-0.4-0.1-0.6
				c-0.4,0-0.7,0.6-0.3,0.8c-0.3-0.1-0.8,0.5-0.4,0.6C28.4,41.1,28.8,40.4,29,40.8"/>
			<path class="st8" d="M29,40.7c0.2-0.1,0.1-0.5-0.2-0.4C28.5,40.4,28.8,40.6,29,40.7"/>
		</g>
		<path class="st7" d="M28.8,40.6c0,0,0,0.2,0,0.2c0,0.1-0.1,0.2-0.1,0.3c0,0.2,0.3,0.3,0.5,0.2c0.5-0.1-0.3-0.5,0-0.7"/>
	</g>
	<g>
		<g>
			<path class="st7" d="M42.4,33.2c0-0.2,0.4,0,0.5,0c0.2,0.1,0.3,0.3,0.4,0.1c0.1-0.2,0-0.4-0.2-0.5c-0.2-0.1-0.4,0-0.6,0
				c0.1-0.2,0.3-0.1,0.5-0.3c0.1-0.1,0.1,0,0.1-0.1c0-0.1-0.1-0.2-0.2-0.2c-0.3-0.1-0.7,0.1-0.7,0.4c-0.3-0.2-0.1-0.4-0.1-0.6
				c-0.4,0-0.7,0.6-0.3,0.8c-0.3-0.1-0.8,0.5-0.4,0.6C41.8,33.4,42.2,32.8,42.4,33.2"/>
			<path class="st8" d="M42.4,33c0.2-0.1,0.1-0.5-0.2-0.4C41.9,32.7,42.2,33,42.4,33"/>
		</g>
		<path class="st7" d="M42.2,33c0,0,0,0.2,0,0.2c0,0.1-0.1,0.2-0.1,0.3c0,0.2,0.3,0.3,0.5,0.2c0.5-0.1-0.3-0.5,0-0.7"/>
	</g>
	<g>
		<g>
			<path class="st7" d="M24.3,28.6c0.2,0-0.1,0.4-0.2,0.5c-0.1,0.1-0.4,0.2-0.2,0.4c0.1,0.1,0.4,0.1,0.5,0c0.1-0.1,0.1-0.3,0.1-0.5
				c0.2,0.2,0,0.4,0.1,0.6c0,0.1,0,0.1,0.1,0.1c0.1,0,0.2-0.1,0.2-0.1c0.2-0.2,0.1-0.7-0.2-0.8c0.2-0.2,0.4,0,0.6,0
				c0.2-0.4-0.3-0.9-0.7-0.5c0.2-0.3-0.2-0.9-0.5-0.5C24.2,28,24.8,28.5,24.3,28.6"/>
			<path class="st8" d="M24.5,28.6c0.1,0.3,0.5,0.2,0.4-0.1C24.9,28.3,24.6,28.5,24.5,28.6"/>
		</g>
		<path class="st7" d="M24.6,28.4c0,0-0.2,0-0.2-0.1c-0.1-0.1-0.1-0.2-0.2-0.2c-0.2,0-0.3,0.2-0.3,0.4c0,0.5,0.6-0.1,0.7,0.3"/>
	</g>
	<g>
		<g>
			<path class="st7" d="M39.8,40c0.2,0-0.1,0.4-0.2,0.5c-0.1,0.1-0.4,0.2-0.2,0.4c0.1,0.1,0.4,0.1,0.5,0c0.1-0.1,0.1-0.3,0.1-0.5
				c0.2,0.2,0,0.4,0.1,0.6c0,0.1,0,0.1,0.1,0.1c0.1,0,0.2-0.1,0.2-0.1c0.2-0.2,0.1-0.7-0.2-0.8c0.2-0.2,0.4,0,0.6,0
				c0.2-0.4-0.3-0.9-0.7-0.5c0.2-0.3-0.2-0.9-0.5-0.5C39.7,39.4,40.2,39.9,39.8,40"/>
			<path class="st8" d="M39.9,40c0.1,0.3,0.5,0.2,0.4-0.1C40.3,39.7,40,39.9,39.9,40"/>
		</g>
		<path class="st7" d="M40,39.8c0,0-0.2,0-0.2-0.1c-0.1-0.1-0.1-0.2-0.2-0.2c-0.2,0-0.3,0.2-0.3,0.4c0,0.5,0.6-0.1,0.7,0.3"/>
	</g>
	<g>
		<g>
			<path class="st7" d="M18.5,42.4c0.2,0-0.1,0.4-0.2,0.5c-0.1,0.1-0.4,0.2-0.2,0.4c0.1,0.1,0.4,0.1,0.5,0c0.1-0.1,0.1-0.3,0.1-0.5
				c0.2,0.2,0,0.4,0.1,0.6c0,0.1,0,0.1,0.1,0.1c0.1,0,0.2-0.1,0.2-0.1c0.2-0.2,0.1-0.7-0.2-0.8c0.2-0.2,0.4,0,0.6,0
				c0.2-0.4-0.3-0.9-0.7-0.5c0.2-0.3-0.2-0.9-0.5-0.5C18.4,41.7,18.9,42.2,18.5,42.4"/>
			<path class="st8" d="M18.6,42.4c0.1,0.3,0.5,0.2,0.4-0.1C19,42,18.7,42.2,18.6,42.4"/>
		</g>
		<path class="st7" d="M18.7,42.2c0,0-0.2,0-0.2-0.1c-0.1-0.1-0.1-0.2-0.2-0.2c-0.2,0-0.3,0.2-0.3,0.4c0,0.5,0.6-0.1,0.7,0.3"/>
	</g>
	<g>
		<g>
			<path class="st7" d="M37.5,37c0.2,0-0.1,0.4-0.2,0.5c-0.1,0.1-0.4,0.2-0.2,0.4c0.1,0.1,0.4,0.1,0.5,0c0.1-0.1,0.1-0.3,0.1-0.5
				c0.2,0.2,0,0.4,0.1,0.6c0,0.1,0,0.1,0.1,0.1c0.1,0,0.2-0.1,0.2-0.1c0.2-0.2,0.1-0.7-0.2-0.8c0.2-0.2,0.4,0,0.6,0
				c0.1-0.4-0.3-0.9-0.7-0.5c0.2-0.3-0.2-0.9-0.5-0.5C37.4,36.4,38,36.9,37.5,37"/>
			<path class="st8" d="M37.7,37c0.1,0.3,0.5,0.2,0.4-0.1C38.1,36.7,37.8,36.9,37.7,37"/>
		</g>
		<path class="st7" d="M37.8,36.8c0,0-0.2,0-0.2-0.1c-0.1-0.1-0.1-0.2-0.2-0.2c-0.2,0-0.3,0.2-0.3,0.4c0,0.5,0.6-0.1,0.7,0.3"/>
	</g>
	<g>
		<g>
			<path class="st7" d="M50.1,44.3c-0.1,0.2-0.3-0.2-0.4-0.3c-0.1-0.2,0-0.4-0.3-0.3c-0.2,0.1-0.2,0.3-0.2,0.5
				c0.1,0.2,0.3,0.2,0.5,0.3c-0.2,0.1-0.4-0.1-0.6-0.1c-0.1,0-0.1-0.1-0.2,0.1c0,0.1,0,0.2,0,0.3c0.1,0.3,0.6,0.3,0.8,0.1
				c0.1,0.3-0.2,0.4-0.3,0.6c0.3,0.3,0.9,0,0.7-0.5c0.2,0.3,0.9,0.1,0.7-0.3C50.8,44.5,50.1,44.8,50.1,44.3"/>
			<path class="st8" d="M50.1,44.5c-0.3,0-0.4,0.3-0.1,0.4C50.3,44.9,50.2,44.6,50.1,44.5"/>
		</g>
		<path class="st7" d="M50.2,44.6c0,0,0.1-0.1,0.2-0.2c0.1-0.1,0.2-0.1,0.2-0.2c0.1-0.2-0.1-0.4-0.2-0.4c-0.5-0.2-0.1,0.6-0.5,0.6"
			/>
	</g>
	<g>
		<g>
			<path class="st7" d="M37.8,28.7c-0.1,0.3-0.4-0.3-0.5-0.4c-0.1-0.2-0.1-0.5-0.4-0.4c-0.2,0.1-0.3,0.4-0.2,0.6
				c0.1,0.2,0.4,0.3,0.6,0.4c-0.3,0.1-0.5-0.1-0.7-0.1c-0.1,0-0.1-0.1-0.2,0.1c0,0.1,0,0.3,0,0.3c0.2,0.3,0.8,0.4,1,0.1
				c0.2,0.4-0.2,0.5-0.3,0.7c0.4,0.4,1.2,0,0.9-0.6c0.3,0.4,1.2,0.1,0.9-0.3C38.6,28.9,37.8,29.3,37.8,28.7"/>
			<path class="st8" d="M37.7,28.9c-0.3-0.1-0.5,0.5-0.1,0.5C38,29.5,37.8,29.1,37.7,28.9"/>
		</g>
		<path class="st7" d="M37.9,29.1c0,0,0.1-0.2,0.2-0.2c0.1-0.1,0.2-0.1,0.3-0.2c0.1-0.2-0.1-0.5-0.3-0.6c-0.6-0.3-0.1,0.7-0.6,0.8"
			/>
	</g>
</g>
<g>
	<radialGradient id="SVGID_2_" cx="189.4467" cy="93.847" r="70.4722" gradientUnits="userSpaceOnUse">
		<stop  offset="0" style="stop-color:#496739"/>
		<stop  offset="1" style="stop-color:#8ABD6B"/>
	</radialGradient>
	<path class="st9" d="M180.6,48.7c-0.3-0.1-4.3,1.5-3.1-0.4c-1.1,0.3-2.6-0.3-1.3-1.3c-0.4,0.1-0.9-0.1-1.2,0c0.2-0.3,0.3-1,0.5-1.3
		c-0.2,0-0.5-0.1-0.7-0.1c0.3-1.7-0.6-1.4-1.7-1.6c-0.6-0.1-2.9,0-1.5-1c-1.5,0.4-2.3-0.6-1.2-1.6c-1.5-0.4-1.3-1.8,0.2-2
		c-0.3-0.2-0.9-0.8-1.3-1.1c0.2-0.2,0.5-0.7,0.8-0.9c-1-1.1,0.4-0.6,0.8-1.2c0.6-1.2,0.9-0.3,0-1.4c-0.8-1-3.6-2.3-0.2-2.9
		c-0.4-0.5-0.9-1.2-0.9-1.9c0.3-0.1,0.7-0.4,1.1-0.4c-0.7-1.1-1.1-2,0.8-2.1c-1.9-1.2,4.4-1.5,1.5-3.9c0.4-0.4,1-0.7,1.7-0.8
		c-0.7-0.7,0-0.7,0.2-1.2c0.1-0.3,0.7-1.5,0.9-1.7c1.1-1,3.1-0.5,4.3-1.4c1.2-0.8,1.5-1.4,3-1.7c1-0.2,4-0.4,4.4,0.4
		c0.6-0.1,1.2,0.1,1.8,0c0,0.3,0.1,0.6,0.1,0.9c1.3,0.1,2.8-0.1,4.1-0.2c0.8,0,5.1-0.4,2.6,1.1c1,0.1,2.7-0.4,2.8,0.8
		c1.7-0.2,3.1,0.7,4.9,0.4c0.5-0.1,1.8-0.7,2.2-0.5c0.9,0.5,0.6,1.5-0.3,1.8c0.4-0.1,0.9-0.1,1.4-0.3c0,0.2,0.1,0.5,0.1,0.7
		c0.3-0.1,0.8,0.1,1.1,0.1c0,0.3,0.1,0.6,0.1,0.9c0.5,0.6,3,1.4,3.2,2.5c0.1,0.8-2.5,3,0.5,2.5c0.2,0.9-1,1.5-0.7,2.2
		c0.3,0.8,1.7,0.8,2.4,0.8c0.1,1-0.8,1.4-1.5,1.8c0.5-0.1,1,0.2,1.5,0.3c-0.2,0.3-0.1,0.8-0.5,1.1c0.2,0.1,0.4,0.4,0.7,0.6
		c-0.2,0.1-0.6,0.5-0.8,0.5c0.9,0.5,1.3,1.4,1.1,2.4c-0.4,0-0.9,0.1-1.3,0.1c0.6,0.7,2.4,2,0,2.1c1.7,0.9-0.1,1.3-0.9,1.8
		c0.7,0.2,0.6,0.5,0.9,0.8c-1.2,0.2-0.4,1.1-0.9,1.5c-0.7,0.5-1.6,0.2-2.3,0.7c0.5,0.4,0.6,0.9,0.8,1.5c-0.6,0.2-1.2,0.4-1.8,0.4
		c0.1,1.2-1.2,1-2.1,1.3c0.1,1.3-1.5,1.1-2.3,0.7c0-0.1,0-0.2,0,0c-0.5,0.6-1.4,0.4-2.3,0.4c1,2-2.3,0.2-3,0.2
		c0.7,3.1-1.9-0.1-2.7,0.9c-1.1-0.1-1.8-0.5-3-0.4c-0.3,0-1,0.6-1.4,0.5c-1-0.3-0.4-0.9-1-1.3c-2.8-1.7-2.4,2.2-5.2,1.7
		c0-0.3-0.1-0.8-0.1-1.1c-1.3,1.3-2.8,1.4-4.5,1.3c-0.1-0.2-0.1-0.5-0.1-0.7c-0.7-0.2-0.8-0.7-0.7-1.3"/>
	<path class="st6" d="M177.3,27.3c-0.2-0.5-0.9-0.6-1.5-0.5c0,0.3,0,0.5,0.1,0.7c-0.1,0.1-0.3,0-0.4,0c0.1,0.1,0.3,0.3,0.5,0.4
		c-1.4,0.2-2.4,1.6-0.5,1.5c-0.5,0.3-1.3,0.6-1.3,1.3c0.2,0,0.3,0,0.5,0c-1.3,1.3,0.2,2.9,1.5,1.5c-0.5,0.8-0.9,1.6-0.7,2.6
		c0.1,0,0.2,0,0.3,0c-0.1,0.3,0,0.8-0.1,1.1c0.2-0.1,0.6,0.1,0.8,0c0.1,0.9,0.9,0.9,1.4,0.2c-0.1,0.7,0.4,1.1,0.9,0.6
		c-0.2,0.9,0.6,1.2,1.2,0.5c0.4,0.5,1,0.4,1.3,0c1.4,0.4,3.1-0.7,2.9-2.3"/>
	<path class="st6" d="M188.7,39.7c-0.6,0.2-1.1,0.6-1,1.2c0.5,0.1,1,0,1.3-0.4c-0.8,1-0.6,3.1,0.6,1.6c-0.2,1,0.4,2.4,1.3,1
		c0.2,0.6,1.1,1.3,1.8,1c0.2-0.1,0.8-1.7,0.9-2"/>
	<path class="st6" d="M200.7,26.2c-0.3-0.6,0.5-1.1,1.1-1.2c0,0.3,0.2,0.5,0.2,0.9c0.8-0.2,1.5-0.9,2.3-0.7c-0.1,0.4,0,0.7-0.2,1.1
		c0.4,0,1.1-0.4,1.5-0.1c0.6,0.4,0.1,1-0.4,1.2c0.4,0.5,2.4,1.9,0.4,2.2c0.2,0.6,0.7,2.1-0.4,2.1c0.3,0.5,1.1,1.4,0.4,2
		c-0.5,0.5-1.4-0.2-2,0"/>
	<path class="st6" d="M199.7,42.1c0.3,1.2,2,0.9,2.5,0c1.4,0.6,2.1-0.9,1.5-2.1"/>
	<path class="st6" d="M178.5,43.6c-1.3,0.8,0,1.8,1.1,1.1"/>
	<path class="st6" d="M183.5,23.1c-0.3-0.1-1.2-0.5-1-1.2c0.4,0,0.7-0.1,1.1,0.1c-0.7-0.9-0.3-1.8,0.9-1.4c0-1.6,1.8-1.5,2.3-0.3
		c0.1-0.2,0.4-0.3,0.5-0.5c0.3,0.4,0.6,0.9,0.8,1.3c0.4-0.8,1.1-0.9,1.3,0c0.5-0.3,1.1-1.5,2-0.9c0.7,0.5,0.2,1.4-0.4,1.7
		c0.3,0,1.5-0.3,1.7-0.1c0.5,0.4-0.1,1.4-0.5,1.7c1.1,0.6-0.3,1.3-1,1.6"/>
	<g>
		<path class="st7" d="M179.7,32.1c0-0.3,0.5,0,0.6,0c0.2,0.1,0.4,0.4,0.5,0.1c0.1-0.2,0-0.5-0.2-0.6c-0.2-0.1-0.5,0-0.7,0
			c0.1-0.3,0.5-0.2,0.7-0.3c0.1-0.1,0.2,0,0.1-0.2c0-0.1-0.2-0.2-0.2-0.3c-0.4-0.2-0.9,0.1-0.9,0.5c-0.3-0.2-0.1-0.5-0.2-0.8
			c-0.6,0-1,0.8-0.4,1.1c-0.4-0.1-1,0.6-0.5,0.8C178.9,32.4,179.3,31.6,179.7,32.1"/>
		<path class="st8" d="M179.6,31.9c0.3-0.2,0.1-0.7-0.2-0.5C179,31.5,179.4,31.8,179.6,31.9"/>
	</g>
	<g>
		<path class="st7" d="M184,26.4c0.1-0.3,0.4,0.3,0.5,0.4c0.1,0.2,0.1,0.5,0.4,0.4c0.2-0.1,0.3-0.4,0.2-0.6
			c-0.1-0.2-0.4-0.3-0.6-0.4c0.3-0.1,0.5,0.1,0.7,0.1c0.2,0,0.1,0.1,0.2-0.1c0-0.1,0-0.3,0-0.3c-0.2-0.3-0.8-0.4-1-0.1
			c-0.2-0.4,0.2-0.5,0.3-0.7c-0.4-0.4-1.2,0-0.9,0.6c-0.3-0.4-1.2-0.1-0.9,0.3C183.1,26.3,184,25.8,184,26.4"/>
		<path class="st8" d="M184,26.2c0.4,0.1,0.5-0.5,0.1-0.5C183.8,25.6,183.9,26,184,26.2"/>
	</g>
	<g>
		<path class="st7" d="M205.5,36.9c0.1-0.3,0.5,0.3,0.5,0.4c0.1,0.2,0.1,0.5,0.4,0.4c0.2-0.1,0.3-0.4,0.2-0.6
			c-0.1-0.2-0.4-0.3-0.6-0.4c0.3-0.1,0.5,0.1,0.7,0.1c0.2,0,0.1,0.1,0.2-0.1c0-0.1,0-0.3,0-0.3c-0.2-0.3-0.8-0.4-1-0.1
			c-0.2-0.4,0.2-0.5,0.3-0.7c-0.4-0.4-1.2,0-0.9,0.6c-0.3-0.4-1.2-0.1-0.9,0.3C204.7,36.8,205.5,36.3,205.5,36.9"/>
		<path class="st8" d="M205.6,36.8c0.4,0.1,0.5-0.5,0.1-0.5C205.3,36.1,205.4,36.6,205.6,36.8"/>
	</g>
	<g>
		<path class="st7" d="M199.1,24.2c-0.2-0.2,0.3-0.4,0.4-0.5c0.2-0.1,0.5,0,0.4-0.4c-0.1-0.2-0.4-0.3-0.6-0.3
			c-0.3,0.1-0.3,0.4-0.5,0.6c-0.1-0.3,0.2-0.5,0.2-0.7c0-0.1,0.1-0.1-0.1-0.2c-0.1,0-0.3,0-0.3,0c-0.4,0.2-0.5,0.7-0.2,1
			c-0.4,0.1-0.5-0.3-0.7-0.4c-0.4,0.4-0.1,1.2,0.6,1c-0.4,0.2-0.2,1.2,0.3,0.9C198.9,25.1,198.5,24.2,199.1,24.2"/>
		<path class="st8" d="M198.9,24.2c0.1-0.3-0.4-0.5-0.5-0.2C198.3,24.4,198.7,24.3,198.9,24.2"/>
	</g>
	<g>
		<g>
			<path class="st7" d="M185,38.8c0-0.2,0.4,0,0.5,0c0.2,0.1,0.3,0.3,0.4,0.1c0.1-0.2,0-0.4-0.2-0.5c-0.2-0.1-0.4,0-0.6,0
				c0.1-0.2,0.3-0.1,0.5-0.3c0.1-0.1,0.1,0,0.1-0.1c0-0.1-0.1-0.2-0.2-0.2c-0.3-0.1-0.7,0.1-0.7,0.4c-0.3-0.2-0.1-0.4-0.1-0.6
				c-0.4,0-0.7,0.6-0.3,0.8c-0.3-0.1-0.8,0.5-0.4,0.6C184.4,39.1,184.8,38.4,185,38.8"/>
			<path class="st8" d="M185,38.7c0.2-0.1,0.1-0.5-0.2-0.4C184.5,38.4,184.8,38.6,185,38.7"/>
		</g>
		<path class="st7" d="M184.8,38.6c0,0,0,0.2,0,0.2c0,0.1-0.1,0.2-0.1,0.3c0,0.2,0.3,0.3,0.5,0.2c0.5-0.1-0.3-0.5,0-0.7"/>
	</g>
	<g>
		<g>
			<path class="st7" d="M198.4,31.2c0-0.2,0.4,0,0.5,0c0.2,0.1,0.3,0.3,0.4,0.1c0.1-0.2,0-0.4-0.2-0.5c-0.2-0.1-0.4,0-0.6,0
				c0.1-0.2,0.3-0.1,0.5-0.3c0.1-0.1,0.1,0,0.1-0.1c0-0.1-0.1-0.2-0.2-0.2c-0.3-0.1-0.7,0.1-0.7,0.4c-0.3-0.2-0.1-0.4-0.1-0.6
				c-0.4,0-0.7,0.6-0.3,0.8c-0.3-0.1-0.8,0.5-0.4,0.6C197.8,31.4,198.2,30.8,198.4,31.2"/>
			<path class="st8" d="M198.4,31c0.2-0.1,0.1-0.5-0.2-0.4C197.9,30.7,198.2,31,198.4,31"/>
		</g>
		<path class="st7" d="M198.2,31c0,0,0,0.2,0,0.2c0,0.1-0.1,0.2-0.1,0.3c0,0.2,0.3,0.3,0.5,0.2c0.5-0.1-0.3-0.5,0-0.7"/>
	</g>
	<g>
		<g>
			<path class="st7" d="M180.3,26.6c0.2,0-0.1,0.4-0.2,0.5c-0.1,0.1-0.4,0.2-0.2,0.4c0.1,0.1,0.4,0.1,0.5,0c0.1-0.1,0.1-0.3,0.1-0.5
				c0.2,0.2,0,0.4,0.1,0.6c0,0.1,0,0.1,0.1,0.1c0.1,0,0.2-0.1,0.2-0.1c0.2-0.2,0.1-0.7-0.2-0.8c0.2-0.2,0.4,0,0.6,0
				c0.2-0.4-0.3-0.9-0.7-0.5c0.2-0.3-0.2-0.9-0.5-0.5C180.2,26,180.8,26.5,180.3,26.6"/>
			<path class="st8" d="M180.5,26.6c0.1,0.3,0.5,0.2,0.4-0.1C180.9,26.3,180.6,26.5,180.5,26.6"/>
		</g>
		<path class="st7" d="M180.6,26.4c0,0-0.2,0-0.2-0.1c-0.1-0.1-0.1-0.2-0.2-0.2c-0.2,0-0.3,0.2-0.3,0.4c0,0.5,0.6-0.1,0.7,0.3"/>
	</g>
	<g>
		<g>
			<path class="st7" d="M195.8,38c0.2,0-0.1,0.4-0.2,0.5c-0.1,0.1-0.4,0.2-0.2,0.4c0.1,0.1,0.4,0.1,0.5,0c0.1-0.1,0.1-0.3,0.1-0.5
				c0.2,0.2,0,0.4,0.1,0.6c0,0.1,0,0.1,0.1,0.1c0.1,0,0.2-0.1,0.2-0.1c0.2-0.2,0.1-0.7-0.2-0.8c0.2-0.2,0.4,0,0.6,0
				c0.2-0.4-0.3-0.9-0.7-0.5c0.2-0.3-0.2-0.9-0.5-0.5C195.7,37.4,196.2,37.9,195.8,38"/>
			<path class="st8" d="M195.9,38c0.1,0.3,0.5,0.2,0.4-0.1C196.3,37.7,196,37.9,195.9,38"/>
		</g>
		<path class="st7" d="M196,37.8c0,0-0.2,0-0.2-0.1c-0.1-0.1-0.1-0.2-0.2-0.2c-0.2,0-0.3,0.2-0.3,0.4c0,0.5,0.6-0.1,0.7,0.3"/>
	</g>
	<g>
		<g>
			<path class="st7" d="M174.5,40.4c0.2,0-0.1,0.4-0.2,0.5c-0.1,0.1-0.4,0.2-0.2,0.4c0.1,0.1,0.4,0.1,0.5,0c0.1-0.1,0.1-0.3,0.1-0.5
				c0.2,0.2,0,0.4,0.1,0.6c0,0.1,0,0.1,0.1,0.1c0.1,0,0.2-0.1,0.2-0.1c0.2-0.2,0.1-0.7-0.2-0.8c0.2-0.2,0.4,0,0.6,0
				c0.2-0.4-0.3-0.9-0.7-0.5c0.2-0.3-0.2-0.9-0.5-0.5C174.4,39.7,174.9,40.2,174.5,40.4"/>
			<path class="st8" d="M174.6,40.4c0.1,0.3,0.5,0.2,0.4-0.1C175,40,174.7,40.2,174.6,40.4"/>
		</g>
		<path class="st7" d="M174.7,40.2c0,0-0.2,0-0.2-0.1c-0.1-0.1-0.1-0.2-0.2-0.2c-0.2,0-0.3,0.2-0.3,0.4c0,0.5,0.6-0.1,0.7,0.3"/>
	</g>
	<g>
		<g>
			<path class="st7" d="M193.5,35c0.2,0-0.1,0.4-0.2,0.5c-0.1,0.1-0.4,0.2-0.2,0.4c0.1,0.1,0.4,0.1,0.5,0c0.1-0.1,0.1-0.3,0.1-0.5
				c0.2,0.2,0,0.4,0.1,0.6c0,0.1,0,0.1,0.1,0.1c0.1,0,0.2-0.1,0.2-0.1c0.2-0.2,0.1-0.7-0.2-0.8c0.2-0.2,0.4,0,0.6,0
				c0.1-0.4-0.3-0.9-0.7-0.5c0.2-0.3-0.2-0.9-0.5-0.5C193.4,34.4,194,34.9,193.5,35"/>
			<path class="st8" d="M193.7,35c0.1,0.3,0.5,0.2,0.4-0.1C194.1,34.7,193.8,34.9,193.7,35"/>
		</g>
		<path class="st7" d="M193.8,34.8c0,0-0.2,0-0.2-0.1c-0.1-0.1-0.1-0.2-0.2-0.2c-0.2,0-0.3,0.2-0.3,0.4c0,0.5,0.6-0.1,0.7,0.3"/>
	</g>
	<g>
		<g>
			<path class="st7" d="M206.1,42.3c-0.1,0.2-0.3-0.2-0.4-0.3c-0.1-0.2,0-0.4-0.3-0.3c-0.2,0.1-0.2,0.3-0.2,0.5
				c0.1,0.2,0.3,0.2,0.5,0.3c-0.2,0.1-0.4-0.1-0.6-0.1c-0.1,0-0.1-0.1-0.2,0.1c0,0.1,0,0.2,0,0.3c0.1,0.3,0.6,0.3,0.8,0.1
				c0.1,0.3-0.2,0.4-0.3,0.6c0.3,0.3,0.9,0,0.7-0.5c0.2,0.3,0.9,0.1,0.7-0.3C206.8,42.5,206.1,42.8,206.1,42.3"/>
			<path class="st8" d="M206.1,42.5c-0.3,0-0.4,0.3-0.1,0.4C206.3,42.9,206.2,42.6,206.1,42.5"/>
		</g>
		<path class="st7" d="M206.2,42.6c0,0,0.1-0.1,0.2-0.2c0.1-0.1,0.2-0.1,0.2-0.2c0.1-0.2-0.1-0.4-0.2-0.4c-0.5-0.2-0.1,0.6-0.5,0.6"
			/>
	</g>
	<g>
		<g>
			<path class="st7" d="M193.8,26.7c-0.1,0.3-0.4-0.3-0.5-0.4c-0.1-0.2-0.1-0.5-0.4-0.4c-0.2,0.1-0.3,0.4-0.2,0.6
				c0.1,0.2,0.4,0.3,0.6,0.4c-0.3,0.1-0.5-0.1-0.7-0.1c-0.1,0-0.1-0.1-0.2,0.1c0,0.1,0,0.3,0,0.3c0.2,0.3,0.8,0.4,1,0.1
				c0.2,0.4-0.2,0.5-0.3,0.7c0.4,0.4,1.2,0,0.9-0.6c0.3,0.4,1.2,0.1,0.9-0.3C194.6,26.9,193.8,27.3,193.8,26.7"/>
			<path class="st8" d="M193.7,26.9c-0.3-0.1-0.5,0.5-0.1,0.5C194,27.5,193.8,27.1,193.7,26.9"/>
		</g>
		<path class="st7" d="M193.9,27.1c0,0,0.1-0.2,0.2-0.2c0.1-0.1,0.2-0.1,0.3-0.2c0.1-0.2-0.1-0.5-0.3-0.6c-0.6-0.3-0.1,0.7-0.6,0.8"
			/>
	</g>
</g>
<g>
	<g>
		<polygon class="st10" points="75.9,90 130.9,90.5 122.7,83.9 83.7,83.9 		"/>
		<polygon class="st11" points="77.9,92.9 77.9,108 129.3,107.9 129.3,92.8 		"/>
		<rect x="75.5" y="90" class="st12" width="55.9" height="3.3"/>
	</g>
	<g>
		<path class="st13" d="M97.3,105.8v-1l1.6-1.2c3.8-2.8,5.5-4.3,5.5-6c0-1.2-0.7-2.3-3-2.3c-1.4,0-2.5,0.5-3.2,1l-0.6-1.1
			c1-0.7,2.5-1.2,4.2-1.2c3.2,0,4.6,1.7,4.6,3.3c0,2.1-2,3.8-5.1,6.2l-1.2,0.8v0h6.7v1.3H97.3z"/>
	</g>
</g>
<g>
	<polygon class="st10" points="125.9,81 180.9,81.5 172.7,74.9 133.7,74.9 	"/>
	<polygon class="st11" points="127.9,84 127.9,108 179.3,107.8 179.3,83.8 	"/>
	<rect x="125.5" y="81" class="st12" width="55.9" height="3.3"/>
</g>
<g>
	<polygon class="st14" points="145.9,76.4 146.6,76.2 155.3,74.6 162.4,63.1 163.4,63.1 162.9,76.9 171.1,74.4 171.8,56.9 151,57.8 
			"/>
	<path class="st15" d="M154.8,35.8l3.8-0.4c0,0,7.9-0.7,9.9,5.5s3.3,16.4,3.3,16.4L151,57.8l1-12l-1,0.9c0,0-1.5-2.9-3.1-3.5
		c-1.5-0.7-4.1-0.2-4.1-0.2S152.5,36.3,154.8,35.8z"/>
	<path class="st15" d="M164.5,32.3c0,0,4.3,0.7,5.6,3.8c1.3,3.1-1.9,3.5-1.9,3.5l-8-4.1L164.5,32.3z"/>
	<path class="st16" d="M141.3,46.9l2.5-4c0,0,1.8-1.3,4.1,0.2c2.3,1.6,1,3.5,1,3.5l3,5l-0.6,4.4L141.3,46.9z"/>
	<path class="st16" d="M165.2,31.8l10.2-8.9c0,0,0.8,0,1.8,1.1c1,1.1,0.8,2.9,0.8,2.9l-7.9,9.1c0,0-1.3-1.6-3.3-2.4
		C164.7,32.7,165.2,31.8,165.2,31.8z"/>
	<linearGradient id="SVGID_3_" gradientUnits="userSpaceOnUse" x1="167.9301" y1="23.2184" x2="182.9344" y2="23.2184">
		<stop  offset="0" style="stop-color:#D3AD37"/>
		<stop  offset="3.697192e-02" style="stop-color:#D3AE39"/>
		<stop  offset="5.028852e-02" style="stop-color:#D5B140"/>
		<stop  offset="5.978265e-02" style="stop-color:#D8B54B"/>
		<stop  offset="6.745954e-02" style="stop-color:#DBBC5C"/>
		<stop  offset="7.403754e-02" style="stop-color:#E0C572"/>
		<stop  offset="7.986011e-02" style="stop-color:#E6D18E"/>
		<stop  offset="8.512603e-02" style="stop-color:#EEDEAE"/>
		<stop  offset="8.981137e-02" style="stop-color:#F6EDD2"/>
		<stop  offset="9.090910e-02" style="stop-color:#F8F1DC"/>
		<stop  offset="0.1697" style="stop-color:#B59753"/>
		<stop  offset="0.7273" style="stop-color:#F0CA30"/>
		<stop  offset="0.8336" style="stop-color:#EEC930"/>
		<stop  offset="0.8719" style="stop-color:#E7C432"/>
		<stop  offset="0.8909" style="stop-color:#E0BE34"/>
		<stop  offset="1" style="stop-color:#F5DE8C"/>
	</linearGradient>
	<path class="st17" d="M167.9,16.7v-1.6l8.1-1.8c0,0,0.8,0.4,1.3,1.8s1.3,3.1,0.5,5.1s-1.3,3.1-1.3,3.1l1.8,5.8c0,0,6.4,1.1,4.1,1.8
		c-2.3,0.7-8.4,2.2-8.4,2.2s1.3-3.3,2.3-3.5c1-0.2-1.8-5.8-1.8-5.8s-2,0-3.6-1.6C169.5,20.7,167.9,16.7,167.9,16.7z"/>
	<linearGradient id="SVGID_4_" gradientUnits="userSpaceOnUse" x1="176.9226" y1="17.5828" x2="180.8218" y2="17.5828">
		<stop  offset="0" style="stop-color:#D3AD37"/>
		<stop  offset="3.697192e-02" style="stop-color:#D3AE39"/>
		<stop  offset="5.028852e-02" style="stop-color:#D5B140"/>
		<stop  offset="5.978265e-02" style="stop-color:#D8B54B"/>
		<stop  offset="6.745954e-02" style="stop-color:#DBBC5C"/>
		<stop  offset="7.403754e-02" style="stop-color:#E0C572"/>
		<stop  offset="7.986011e-02" style="stop-color:#E6D18E"/>
		<stop  offset="8.512603e-02" style="stop-color:#EEDEAE"/>
		<stop  offset="8.981137e-02" style="stop-color:#F6EDD2"/>
		<stop  offset="9.090910e-02" style="stop-color:#F8F1DC"/>
		<stop  offset="0.1697" style="stop-color:#B59753"/>
		<stop  offset="0.7273" style="stop-color:#F0CA30"/>
		<stop  offset="0.8336" style="stop-color:#EEC930"/>
		<stop  offset="0.8719" style="stop-color:#E7C432"/>
		<stop  offset="0.8909" style="stop-color:#E0BE34"/>
		<stop  offset="1" style="stop-color:#F5DE8C"/>
	</linearGradient>
	<path class="st18" d="M177.4,15.3c0,0,2,0.4,2.2,1.8c0.3,1.3-1.8,2.7-1.8,2.7l-0.2,1.1c0,0,4-0.8,3-4c-1-3.1-3.7-2.5-3.7-2.5
		L177.4,15.3z"/>
	<linearGradient id="SVGID_5_" gradientUnits="userSpaceOnUse" x1="166.1801" y1="19.7081" x2="171.3659" y2="19.7081">
		<stop  offset="0" style="stop-color:#D3AD37"/>
		<stop  offset="3.697192e-02" style="stop-color:#D3AE39"/>
		<stop  offset="5.028852e-02" style="stop-color:#D5B140"/>
		<stop  offset="5.978265e-02" style="stop-color:#D8B54B"/>
		<stop  offset="6.745954e-02" style="stop-color:#DBBC5C"/>
		<stop  offset="7.403754e-02" style="stop-color:#E0C572"/>
		<stop  offset="7.986011e-02" style="stop-color:#E6D18E"/>
		<stop  offset="8.512603e-02" style="stop-color:#EEDEAE"/>
		<stop  offset="8.981137e-02" style="stop-color:#F6EDD2"/>
		<stop  offset="9.090910e-02" style="stop-color:#F8F1DC"/>
		<stop  offset="0.1697" style="stop-color:#B59753"/>
		<stop  offset="0.7273" style="stop-color:#F0CA30"/>
		<stop  offset="0.8336" style="stop-color:#EEC930"/>
		<stop  offset="0.8719" style="stop-color:#E7C432"/>
		<stop  offset="0.8909" style="stop-color:#E0BE34"/>
		<stop  offset="1" style="stop-color:#F5DE8C"/>
	</linearGradient>
	<path class="st19" d="M168.4,17.6c0,0-1.8,1.3-0.8,2.9c1,1.6,2.8,1.1,2.8,1.1l0.9,1.1c0,0-3.9,0.7-5-2c-1-2.7,1.8-4,1.8-4
		L168.4,17.6z"/>
	<path class="st20" d="M175.1,24.2c-0.2-0.3-0.6-0.4-0.9-0.5c-0.4,0-0.7,0-1.1,0.2c-0.3,0.1-0.5,0.2-0.7,0.5
		c-0.5,0.7,0.1,1.7,1.1,1.4c0.4-0.1,0.7-0.4,1.1-0.6C175,25,175.4,24.7,175.1,24.2z"/>
	<path class="st20" d="M175.5,25.6C175.5,25.6,175.5,25.7,175.5,25.6c0,0.1,0.1,0.1,0.1,0.1c0.4,0,0.9-0.2,1.2-0.4
		c0.3-0.3,0.8-1.5,0-1.2C176.1,24.3,175.5,25,175.5,25.6z"/>
	<path class="st20" d="M177,26.1c-0.2,0.1-0.4,0.3-0.5,0.5c-0.1,0.2-0.1,0.5,0.1,0.6c0.1,0.1,0.2,0.1,0.3,0.1
		c0.7,0.1,1.4-0.2,1.8-0.6C179.8,25.7,177.6,25.7,177,26.1z"/>
	<path class="st20" d="M176.8,25.2c-0.2,0.1-0.4,0.3-0.5,0.5c-0.1,0.2-0.1,0.5,0.1,0.6c0.1,0.1,0.2,0.1,0.3,0.1
		c0.7,0.1,1.4-0.2,1.8-0.6C179.5,24.8,177.4,24.8,176.8,25.2z"/>
	<g>
		<g>
			<polygon class="st21" points="157.4,15.6 153.2,16 152.2,13 157.1,12.4 			"/>
			<path class="st22" d="M142.5,6.2c-3.1-0.9-5.1-2.1-8.4-1.1c-4.9,1.6-5.5,5.6-5.3,10.1c0.5,7.8,4.7,14.8,7.2,22.2
				c0.3,0.9,0.7,2,1.2,2.7c-0.2-0.7-0.4-1.5-0.3-2.3c0.4,0.9,1,2.1,1.6,2.8c-0.2-1.2-0.4-2.5,0-3.7c0.6-1.6,1.6-2.5,1.7-4.2
				c0.1-3.9-0.5-7.9-1.4-11.7c-1.1-4.6,0.8-7.9,2.7-11.9"/>
			<g>
				<path class="st21" d="M145.2,8.6c-1.6-1.5-0.8-3.3-3.8-2c-1.4,0.6-4.1,1.8-4.9,3c0.7,0.4,1.7,1.5,2.4,1.7
					c0.6,0.1,1.4-0.4,2.1-0.7c1.2-0.5,3.4-0.9,4.2-1.8"/>
				<path class="st16" d="M168.3,30.1c0.4,1.4,0.1,2.2-0.1,2.7c-0.7,2.1-3.3,2.9-8.1,3.7c-6.1,1-12.2,1.9-16.5-1.8
					c-3.2-2.7-1.5-4.4-3.3-7.5c-2.4-4.1-2.5-8.1-0.5-12.3c1.4-3,3.4-4,6.2-5.8c4.3-2.7,7.8-0.9,12.9,0l2,2.7
					c2.8,1.5,3.7,4.1,5.3,6.9c1.8,3.1-0.3,6.9,0.9,8.9C167,27.7,167.9,28.7,168.3,30.1z"/>
				<path class="st22" d="M148.1,21.8c-1.1,0.5-2.7,4.3-2.2,5.5c1.4,3.4-1.9,5.4-2.5,7.6c-12.7-4.6-10.8-16-6.3-22.5
					c4.2-6.1,12.7-5.6,19.4-4.7c5.4,0.7,10.1,6,11.4,11.2c-1,2.2-1.5,0.8-2.4,0.2c-0.6-0.5-0.9-2.4-1.4-3c-1.2-1.5-2.3-3.3-4.3-3.7
					c0.4,1.8-6.4,8.7-10.5,9L148.1,21.8z"/>
				<path class="st23" d="M157.3,25.9c0,0.6,0.4,1.2,0.9,1.2c0.5,0,1-0.5,1-1.1c0-0.6-0.4-1.1-0.9-1.2
					C157.8,24.7,157.4,25.2,157.3,25.9z"/>
				<path class="st16" d="M146.7,26.3c-5.6-3.7-5.1,6.2-0.1,5.2"/>
				
					<linearGradient id="SVGID_6_" gradientUnits="userSpaceOnUse" x1="-4599.6045" y1="-1442.3956" x2="-4592.5981" y2="-1442.3956" gradientTransform="matrix(-0.9879 -0.2283 -0.2283 0.9879 -4716.2261 407.8371)">
					<stop  offset="0" style="stop-color:#BB286C"/>
					<stop  offset="1" style="stop-color:#F8F0C8"/>
				</linearGradient>
				<path class="st24" d="M157.2,33.1c-0.4,1.8-2.3,2.9-4.2,2.5c-1.9-0.4-3.1-2.2-2.7-4c0.4-1.8,2.3-2.9,4.2-2.5
					C156.4,29.5,157.6,31.4,157.2,33.1z"/>
				<path class="st23" d="M163.1,24.7c0,0.6,0.4,1.2,0.9,1.2c0.5,0,1-0.5,1-1.1c0-0.6-0.4-1.1-0.9-1.2
					C163.6,23.6,163.2,24.1,163.1,24.7z"/>
				<path class="st25" d="M161.5,28c0.5-0.9,1.9-0.6,2.1,0.3"/>
				
					<linearGradient id="SVGID_7_" gradientUnits="userSpaceOnUse" x1="-4609.7246" y1="-1445.5917" x2="-4605.3945" y2="-1445.5917" gradientTransform="matrix(-0.9879 -0.2283 -0.2283 0.9879 -4716.2261 407.8371)">
					<stop  offset="0" style="stop-color:#BB286C"/>
					<stop  offset="1" style="stop-color:#F8F0C8"/>
				</linearGradient>
				<path class="st26" d="M167.9,32.3c-0.4,1.8-1.7,3-2.9,2.8c-1.2-0.3-1.8-1.9-1.4-3.7c0.4-1.8,1.7-3,2.9-2.8
					C167.7,28.8,168.4,30.5,167.9,32.3z"/>
				<path class="st27" d="M155.7,32.1c0,0,5.1,2.1,6.5,1.6c1.4-0.6,3.6-1.9,3.6-1.9l-4.5,3.5L155.7,32.1z"/>
			</g>
		</g>
	</g>
</g>
<g>
	<path class="st28" d="M153.3,75c1.5,0.1,3,0.1,4.4,0.8c2.6,1.2,0.1,1.8-1.5,2c-1.8,0.2-3.5,0-5.2-0.1c-1.9-0.1-2.3,0.2-2.3-2.2"/>
	<path class="st28" d="M167.5,74.6c1.6,0.1,3.2,0.1,4.7,0.8c2.7,1.2,0.1,1.8-1.6,2c-1.9,0.2-3.7,0-5.5-0.1c-2-0.1-2.4,0.2-2.4-2.2"
		/>
</g>
<g>
	<g>
		<path class="st13" d="M153.6,88.3L153.6,88.3l-2.4,1.1l-0.4-1.2l3-1.4h1.6v11.6h-1.8V88.3z"/>
	</g>
</g>
<g>
	<g>
		<path class="st28" d="M108.9,88c0.5,0.3,1,0.4,1.5,0.5c1.2,0.2,2.4,0.3,3.5,0c1.9-0.6,2.9-2.6,3.8-4.3c0.1-0.2,0.2-0.4,0.1-0.6
			c-0.1-0.2-0.3-0.3-0.6-0.4c-1.9-0.5-5-1.7-6.8-0.4C109.3,83.6,107.3,87,108.9,88z"/>
		<path class="st28" d="M100.2,81.9c-1.8,0.1-3.6,0.1-5.2,0.9c-3.1,1.3-0.1,2,1.8,2.3c2.1,0.3,4.1,0,6.2-0.1
			c2.2-0.1,2.8,0.2,2.8-2.4"/>
		<path class="st29" d="M98.4,81.5c2.5,1.1,5.6,2.6,8.5,1.5c0.1-2.1,0-14.8,1.7-15.6c0.3,3.1,1,11.8,1.2,15c2.7,0.7,6.1,0.9,8.9,0.7
			c-0.8-1.3-0.1-5-0.1-5c0-2.6,0.3-9.2,0.3-9.2c0.5-4.4,0.8-9.1,0.8-9.1l-19.8,0l-0.5,3.7L99,70.4"/>
		<path class="st30" d="M118.7,65.8c0,0-1.4-0.5-2.5-1.5c-1.1-1-1.6-1.9-1.6-1.9"/>
		<path class="st30" d="M103.2,62.7c0,0-1.9,2.2-3,2.4c-1.1,0.2-1.1,0.2-1.1,0.2"/>
		<polygon class="st31" points="108.9,62.7 108.7,68.8 108.3,68.3 108.5,62.7 		"/>
		<path class="st32" d="M121.2,61.1c0,0,0.3,0.7-0.3,1c-0.7,0.3-20.8,0.1-21.5,0.1c-0.7,0-0.2-1.5-0.2-1.5L121.2,61.1z"/>
	</g>
	<g>
		<path class="st33" d="M119.1,46.1c0.4,1.3,0,2.8-0.7,3.8c-0.4,0.6-0.2,0.6-0.9,0.7c-0.5,0.1-1.8,0-2.2-0.3
			c-0.7-0.6-1.2-2.8-0.5-3.4c1.1-1,3.2-1,4.5-0.8"/>
		<path class="st34" d="M118.9,47.7c1.6,0.9,1.3,4-0.1,5c-2.2,1.6-3.2-2.1-3.2-3.6"/>
		<polygon class="st35" points="118.4,49.8 116.4,51.4 115.3,49 		"/>
		<path class="st34" d="M117.1,47c0,0,4.6,15.3,3.8,15.4c-1.8,0.2-9,0.2-11.4,0.2c-2.4,0-9.8,0.3-11.9,0c-0.8-0.1,2.6-10.3,3-11.7
			c0.4-1.4-0.1-3.7-0.3-3.9c-0.3-0.3,6.6,1.3,8.3,1.3C110.2,48.4,117.1,47,117.1,47z"/>
		
			<linearGradient id="SVGID_8_" gradientUnits="userSpaceOnUse" x1="55.146" y1="52.2931" x2="73.2771" y2="52.2931" gradientTransform="matrix(-1 0 0 1 174.4829 0)">
			<stop  offset="0" style="stop-color:#FAF1CA"/>
			<stop  offset="0.4364" style="stop-color:#F8E9BC"/>
			<stop  offset="1" style="stop-color:#F4DAA4"/>
		</linearGradient>
		<path class="st36" d="M115.9,49.3c-0.1,0.5-0.3,2-0.7,2.3c-0.5,0.5-0.9,0.3-1.7,0.2c-1.5-0.1-2.9-0.1-4.4-0.1
			c-1.7,0-7.1-1.5-7.9,0.6c4.6,2.5,9.2,2.4,14.3,2.7c0.7,0,1.7,0.4,2.4,0.1c0.8-0.3,0.9-1.1,1.1-2c0.5-2,0.4-3.7-2.2-3.6"/>
		
			<linearGradient id="SVGID_9_" gradientUnits="userSpaceOnUse" x1="61.0822" y1="50.6241" x2="75.9906" y2="50.6241" gradientTransform="matrix(-1 0 0 1 174.4829 0)">
			<stop  offset="0" style="stop-color:#FAF1CA"/>
			<stop  offset="0.4364" style="stop-color:#F8E9BC"/>
			<stop  offset="1" style="stop-color:#F4DAA4"/>
		</linearGradient>
		<path class="st37" d="M98.9,47.4c-0.3,1.9-0.5,4.2-0.3,6.7c2.4,0.2,4.9-0.5,7.3-0.8c1.3-0.2,2.5-0.6,3.7-0.9
			c1.3-0.3,2.6-0.3,3.8-0.6c-1.2-1.8-3.3-1.7-5.2-1.3c-2.1,0.4-4.4,0.7-6.5,0.8c0.2-0.8-0.9-2.5-1.4-3.3
			C99.8,47.2,99.4,46.8,98.9,47.4"/>
		<path class="st34" d="M102.1,50.5l-4.3,1.3c0,0-0.4-3.4,0.5-4.5C100.3,44.8,101.3,49.7,102.1,50.5z"/>
		
			<linearGradient id="SVGID_10_" gradientUnits="userSpaceOnUse" x1="69.0979" y1="50.0286" x2="74.641" y2="50.0286" gradientTransform="matrix(-1 0 0 1 174.4829 0)">
			<stop  offset="0" style="stop-color:#FAF1CA"/>
			<stop  offset="0.4364" style="stop-color:#F8E9BC"/>
			<stop  offset="1" style="stop-color:#F4DAA4"/>
		</linearGradient>
		<path class="st38" d="M105.3,50.9c-1.1-1.2-2.6-2.3-4.3-2.2c0,0.4-0.2,0.5,0.3,0.8c-1.2-0.5-2.1,0.8-0.8,1.1c-0.1,0-0.2,0-0.3,0
			c-0.6,1.2,4.4,0.8,5.2,0.3"/>
		<path class="st34" d="M118.2,48c3.4-1.3,1.9,5,1.4,6.3c-0.8-0.2-1.8-1-2.6-1.4c-0.7-0.4-1.8-0.8-2.4-1.4c0.4-0.6,0.6-1.2,1.1-1.8
			c0.7-0.8,1.3-1.3,2.2-1.7"/>
		<g>
			<g>
				
					<linearGradient id="SVGID_11_" gradientUnits="userSpaceOnUse" x1="60.358" y1="48.3175" x2="68.3756" y2="48.3175" gradientTransform="matrix(1 0 0 1 46.4394 0)">
					<stop  offset="0" style="stop-color:#FAF1CA"/>
					<stop  offset="0.4364" style="stop-color:#F8E9BC"/>
					<stop  offset="1" style="stop-color:#F4DAA4"/>
				</linearGradient>
				<path class="st39" d="M106.8,47.9c0,0,1.2,1.7,4.2,1.4c3-0.3,3.8-1.9,3.8-1.9L106.8,47.9z"/>
				<path class="st40" d="M109.1,19.6"/>
				<path class="st41" d="M124.1,32.5c0,0-0.1,0.2-0.2,0.4c-0.4,1.1-1.4,4-1.5,5.1c-0.1,1.4,0,3.8,0.6,4c0.6,0.1,0.3-1.7,0.3-2.4
					c0-0.7,0.6-3.5,0.6-4.2"/>
				<g>
					<g>
						
							<linearGradient id="SVGID_12_" gradientUnits="userSpaceOnUse" x1="-1325.1116" y1="-53.1068" x2="-1321.6187" y2="-53.1068" gradientTransform="matrix(-0.876 -7.610000e-02 -6.690000e-02 0.9971 -1040.2178 -9.1337)">
							<stop  offset="0" style="stop-color:#FAF1CA"/>
							<stop  offset="0.4364" style="stop-color:#F8E9BC"/>
							<stop  offset="1" style="stop-color:#F4DAA4"/>
						</linearGradient>
						<path class="st42" d="M121.4,36.9c0,0,1.4-0.8,1.9-0.3c0.5,0.5,0.9,1.6,0.8,2.2c0,0.6-1.6,2-1.9,2c-0.4,0-1.3-0.1-1.3-0.1
							L121.4,36.9z"/>
						
							<linearGradient id="SVGID_13_" gradientUnits="userSpaceOnUse" x1="1758.5012" y1="-41.8005" x2="1792.7388" y2="-41.8005" gradientTransform="matrix(0.8365 1.000000e-04 -1.000000e-04 1 -1376.261 78.5135)">
							<stop  offset="0" style="stop-color:#FAF1CA"/>
							<stop  offset="0.4364" style="stop-color:#F8E9BC"/>
							<stop  offset="1" style="stop-color:#F4DAA4"/>
						</linearGradient>
						<path class="st43" d="M120.2,26c0,0,1.9,6.1,1.9,7.9c0,1.8,0.8,4.5,1.2,6.9c0.1,0.7-0.6,2.8-0.8,3.5c-0.1,0.9-1.1,2.3-3.7,3.3
							c-2.5,0.9-6.1,0.8-7.6,0.8c-2.2,0-12.8-0.6-14.1-1.6c-1.4-0.9-2.6-2.9-2.5-4c0.2-1.1,5.6-8.8,9.2-10.4c3.6-1.7,7-6.8,9.8-6.9
							C116.6,25.4,120.2,26,120.2,26z"/>
						
							<linearGradient id="SVGID_14_" gradientUnits="userSpaceOnUse" x1="1992.052" y1="-34.7981" x2="2003.0533" y2="-34.7981" gradientTransform="matrix(0.7355 1.000000e-04 -1.000000e-04 1 -1364.3348 78.4278)">
							<stop  offset="0" style="stop-color:#C71671"/>
							<stop  offset="1" style="stop-color:#FBF4CB"/>
						</linearGradient>
						<path class="st44" d="M100.8,44.7c0,2.1,1.7,2,3.9,2c2.2,0,4.1,0.1,4.1-2c0-2.1-1.8-3.9-4-3.9
							C102.6,40.9,100.8,42.6,100.8,44.7z"/>
						<path class="st45" d="M118,37.3c0.1,0.5-0.2,0.9-0.6,0.9c-0.4,0.1-0.7-0.3-0.8-0.8c-0.1-0.5,0.2-0.9,0.6-0.9
							C117.6,36.5,117.9,36.8,118,37.3z"/>
						<path class="st45" d="M109.9,38.3c0.1,0.5-0.2,0.9-0.6,0.9c-0.4,0.1-0.7-0.3-0.8-0.8c-0.1-0.5,0.2-0.9,0.6-0.9
							C109.5,37.5,109.9,37.9,109.9,38.3z"/>
						
							<linearGradient id="SVGID_15_" gradientUnits="userSpaceOnUse" x1="1818.3779" y1="1070.7125" x2="1826.2306" y2="1070.7125" gradientTransform="matrix(0.6086 -0.5615 0.413 0.8275 -1432.0391 180.7468)">
							<stop  offset="0" style="stop-color:#C71671"/>
							<stop  offset="1" style="stop-color:#FBF4CB"/>
						</linearGradient>
						<path class="st46" d="M121.8,41.7c0.9,1.4,0.5,3.3-0.9,4.3c-1.4,1-3.3,0.7-4.2-0.7c-0.9-1.4-0.5-3.3,0.9-4.3
							C119,40,120.9,40.3,121.8,41.7z"/>
						
							<linearGradient id="SVGID_16_" gradientUnits="userSpaceOnUse" x1="-1307.0221" y1="32.434" x2="-1307.0221" y2="32.434" gradientTransform="matrix(-0.8785 0 0 1 -1032.3719 0)">
							<stop  offset="0" style="stop-color:#CC4952"/>
							<stop  offset="1" style="stop-color:#E19931"/>
						</linearGradient>
						<path class="st47" d="M115.8,32.4"/>
						<path class="st48" d="M121.6,32.8c0,0-4.3-2.6-6.1-2.6c-1.8,0-5.2,1.8-5.2,1.8c-0.1,0.1,0.3,0.1,0.4,0c0.1,0,3.5-1.4,3.9-1.6
							c0.5-0.1,0.8-0.2,0.9-0.2c0.1,0,0.5,0.2,0.7,0.4c0.3,0.2,0.7,0.6,0.9,0.8c0.2,0.2,0.5,0.5,0.7,0.7c0.2,0.1,0.4,0.2,1,0.3
							C119.5,32.5,121.6,32.8,121.6,32.8z"/>
						<path class="st33" d="M123.2,32.2c1.4,1.5-0.5,3-2.1,3c-0.3,0-0.6,0-0.9-0.2c-0.1,0-0.2-0.1-0.3-0.2c-0.1,0-0.1,0-0.1-0.1
							c0,0,0-0.2,0-0.2c0.1-0.1,0.2-0.1,0.4-0.1c0.1,0,0.3-0.1,0.4-0.1c0.3,0,0.5,0.3,0.6,0.6c0.1,0.2,0.1,0.5,0,0.7
							c-0.1,0.1-0.2,0.1-0.3,0.2c-0.1,0-0.2,0.2-0.3,0.3c-0.2,0.2-0.3,0.4-0.6,0.4c-0.1,0-0.2,0.1-0.3,0c-0.1,0-0.1-0.2-0.1-0.3
							c0-0.4,0.1-0.8,0.2-1.2c0-0.1,0-0.2,0-0.3c-0.1-0.1-0.2-0.2-0.3-0.3c-0.2-0.2-0.3-0.5-0.4-0.8c-0.3-0.6-0.6-1.1-1.3-1.3
							c-1-0.3-1.1,0.7-2,0.7c-1.1,0-1.3-0.8-2.1-1.3c-0.4-0.2-1.6-0.6-2-0.5c-1,0.2-1,1.2-1.9,1.6c-1.6,0.5-2.6-1.5-3.8-2
							c-0.5-0.2-1.4-0.5-2-0.4c-1.1,0.1-1.2,1-2,1.2c-2,0.4-2.4-2.5-3.9-2.5c-1.2,0-0.7,1.2-1.5,1.3c-1,0.2-1.4-0.8-1.3-1.5
							c-2.5-1-0.7,1.6-0.6,2.3c0.1,0.8-0.8,1.2-0.7,1.7c0.1,0.8,1,0.9,1.3,1.6c-0.5,0.6-1.1,1.6-2,1.7c-2,0.3-0.6-1-0.8-2
							c-0.2-1.2-1.1-1.6-1-2.9c0.1-1.2,0.7-1.8,1.4-2.7c0.5-0.6,1.1-1.6,1-2.3c-0.2-1.3-1.9-1.1,0-2.4c1.2-0.8,1.6-1.1,2.6-2.2
							c0.8-0.9,1.2-1.3,2.6-1.1c-1.3-2.6,5.5-5.5,6.6-3c1.3-2.9,4.2-1.8,5.7,0.4c0.1-0.2,0.1-0.4,0.2-0.5c0.9,0.2,0.9,1,1.7,1.4
							c1.6-1.2,2.7-2.7,4.2-0.1c0.9,1.7,1.5,3.5,3.9,2.2c0.4,0.5,1,1.5,1.1,2.1c0.2,1.4-0.7,1.2-1,2.3c1.3,0.7,3.2-0.4,4.3,0.3
							c2.3,1.4-0.6,2.8-1.7,3.1c0.4,1.4,3.5,1.4,1.6,3.1c-0.6,0.5-1.6,0.2-2,1.1c-0.5,0.9,0.2,1.4,0.6,2.2c-0.5,0.5-1.3,0.6-1.9,0.7
							c0.2,0.6,0.6,1.2,0.7,1.8c-0.9,0.6-2.3,0.3-2.6-0.8c-0.4-1.4,1.3-1.4,1.3-2.7"/>
						<path class="st49" d="M118.3,27.9c0,0,0,0.9-2.5-0.1c-2.5-1-4.5-1.2-4.5-1.2s2.5,1.6,3.3,1.9c0.8,0.3,2.2,1.4,3.3,1
							C119.1,29,118.3,27.9,118.3,27.9z"/>
						<path class="st49" d="M96.6,26.1c1.6,1.4,6.1,2.9,8.4,2.2c-0.4-1-3.1-1.4-4.3-1.5c-1.6-0.2-3.1-0.6-4.6-0.9"/>
						<path class="st49" d="M104.4,22c1,1,6.3,1.1,4.8-0.3c-0.6-0.5-2.6-0.1-3.3-0.2c-1-0.1-2.2-0.5-3.1-0.9
							c0.9,0.5,1.5,1.3,2.3,1.7"/>
						<path class="st33" d="M105,28.7c1.2,3.3,0.4,3.2-1.9,5.7c-2.3,2.5-3.9,4.3-0.8,6.6c-1.8,0.3-2.4,1.6-1.9,3.1
							c-2,0.9-4.7-1.2-5.8-2.5c-0.7-0.8-0.3-1.7-0.9-2.4c-0.7-0.8-1.9-0.4-2.3-1.5c-0.6-1.6,0.5-4.3,0.5-5.9c0-2-1.1-4.7,1.1-6.1"/>
						
							<linearGradient id="SVGID_17_" gradientUnits="userSpaceOnUse" x1="-1387.1672" y1="-46.2512" x2="-1383.6743" y2="-46.2512" gradientTransform="matrix(0.8734 0.1014 -0.1347 0.9902 1299.5472 228.2643)">
							<stop  offset="0" style="stop-color:#FAF1CA"/>
							<stop  offset="0.4364" style="stop-color:#F8E9BC"/>
							<stop  offset="1" style="stop-color:#F4DAA4"/>
						</linearGradient>
						<path class="st50" d="M97.2,40.6c0,0-1.2-1.1-1.8-0.7c-0.6,0.4-1.2,1.4-1.3,2c-0.1,0.6,1.1,2.3,1.5,2.3c0.4,0,1.3,0.2,1.3,0.2
							L97.2,40.6z"/>
					</g>
					<path class="st51" d="M113.3,39.5c0,0,1,0.2,1.1,1.5c0.1,1.2-0.6,1.6-0.6,1.6"/>
				</g>
			</g>
			<path class="st51" d="M106.4,37.6c0.8,0.1,3.5,0.3,3.9-0.3"/>
			<path class="st51" d="M114.9,36.6c0.9,0.1,3.1,0.1,3.7-0.1"/>
		</g>
		<path class="st51" d="M110.9,45.9c-0.4-0.4-1.1-0.4-1.5,0"/>
	</g>
</g>
<path class="st28" d="M98.1,81.7C97,82.1,96,82.6,94.9,83c-0.4,0.2-0.8,0.3-1.1,0.7c-0.7,0.8-0.2,2.3,0.8,2.8c1,0.5,2.2,0.4,3.3,0.2
	c1.8-0.3,3.5-0.8,5.2-1.3c1.2-0.4,2.4-0.9,3.2-1.9"/>
</svg>
