<svg xmlns="http://www.w3.org/2000/svg" id="Capa_1" x="0" y="0" version="1.0" xml:space="preserve" viewBox="0 0 17 11"><style>.st1{fill:#eaeae9;stroke:#eaeae9;stroke-width:.25}</style><switch><g><path fill="#c3c8c8" stroke="#c3c8c8" stroke-width=".25" d="M3.3 7.9l12.5-4.5-.2 2.2-12.4 4.8z"/><path d="M1.1 5.2l.2.3 2 2.4-.1 2.4L1 7.5z" class="st1"/><path d="M12.7 1c.4-.1.8 0 .8 0l2.3 2.3S3.4 8 3.3 7.9c-.1-.1-.9-1.1-1.1-1.4-.2-.3-1-1.2-1-1.4C1.1 5 10.3 1.8 12.7 1z" class="st1"/><path fill="#374193" stroke="#374193" stroke-width=".25" d="M3 4.3l2.5 2.8 8.6-3s-2.3-2.7-2.6-2.8c-.4 0-8.5 3-8.5 3z"/><path fill="#2f336c" stroke="#2f336c" stroke-width=".25" d="M5.3 9.7l.1-2.5L14 4.1l-.2 2.4z"/><path fill="#16192b" stroke="#16192b" stroke-width=".25" d="M5.2 9.6l.1.1.1-2.5z" opacity=".55"/><text fill="#fff" font-family="MyriadPro-Regular" font-size="2.199" transform="rotate(-21.341 18.357 -12.747)">eraser</text></g></switch></svg>
