<svg xmlns="http://www.w3.org/2000/svg" version="1.0" viewBox="0 0 85.1 71.3"><switch><g fill="#D0E7C4" stroke="#669866" stroke-width=".25"><path d="M2.7 58.5v2l-.6 2.3-.5 1.2-.4.3-.2 1.2.3.2.3-.2-.2.7H2v.9c0 1.2-.3 2.1-.3 2.1l.7-.2 1 .2 1.2-.4-.1-1 .7-1-.4-.8.6-1.1-.2-.4-.5-.7 1-.3.4-2.8.7-.9-.4-.9-.6-.2-.7.3-.9-.1-.8-.4h-.7"/><path d="M15.3 55.8h-1.1l-1.4-.1s.6-.3-1.1-.2c-1.7.1-3.5-.3-3.5-.3H6L4.7 55l-.9.6-1.3.6-.4.3.6.7.1.6v.6h.6l.9.4h.9l.8-.1.6.2.3.9-.8.8-.4 2.1v.7l-1 .4.7 1.2-.6 1 .3.8-.7 1.1.1.7.7.2 1 .8v.4l.5.9 1 .4.6-.7.9-.2.5-.5h2.9l.8-.2.4.1.6-1 .8-.8h1v-.4l.6-1.3 1.1-.9-.6-.2L17 64l1.7-2.3.4-.3v-.3l.6-.5 3.2-1.2.8-.7-.2-.8-4-.9-1.2.1-1.8-.5-1.2-.8zm7.8 7.2l-.9.6-.2.3.3.1.8.5.7-1zM7.9 31.4l-.9-.3-1.6 1.1.8.1s.3.1.5.1c.4-.1.7-.4.7-.4l.5-.6zm-1.1 1l-1.2.5v.3h-1l-1-.1-.2.5.4.4-.6.6.5.3 1.1.2-.6.5-.9.8-.1.9-.9.6.9.1v.5l.6.2 1.6-.5.1-.4.4.2 1.1-.5 1.7-.2.5-1 .2-1.1-.2-.4-.2-1.2-.6-.2.1-.6h-.8v.5l-.6.1-.4-.5.1-.5M63.1 3.1l-1.8-.5 1.7-.2.8-.2-1.9-.7-1.3-.1-1 .5.4-.8-1.3-.1-.9.9-.4-.4v-.4l-1 .9-.6.5-.1-.6.9-.9H56l-.6.1-.9.1-.4.5-1 .1.1.7-.6-.2-1.9-.2.6.4v.3l-.9-.1-.4.2-.6.6v-.6l-.8.3-.9.1-.2.3H47v.3l-.5-.3s.4.1-.3.5c-.6.3-.6.7-.6.7l-.9.2-.6.4 1.3.2-1.4.2-.6.2-.8.2v.1l.4.1-.9.3-.1.3.8.1-1.1.4.1.4-.6.3-1.1.6-.3.6-.5.6-.8.8-.6 1.1-1 .6.1.5h-.5l-1.1.5-.6.6-.1.2v.3l-.8.2v.1l-.9.2-.5.6h-1l-.7.2.2.4.2.2h-1.3l-.4.5-.6.4H28l.1.3v.3l-.4.2.4.3-.2.6.4.3h-.5v1l.7.1.1.1-.8.3.3.3.4.1-.4.3.1.4h.4l-.6.5.2.5h.8l.1.2-.1.4h-.6v.6l.9.6.8.3.1.3 1 .1h.8l1.1-.5.8-.6.9-.8h.4l.6-.5.1-.6h.3l.1.5.6.3.1.3h.3l.2-.1.2-1.1 1.5-1.8-.7-1.1.6-.2.5-.6-1.1-.5.1-.8-.8-1 .8-1v-1.3l1.4-.7h1.2v-.5l-.6-.5 1-1.1.1-1.5 1.1-.4.9-.9.6-.4v-.4l-.3-.3.5-.6.8-.5.9.1.4-.3v-.4l.6-.4 1.6.4.5-.1v-.9l.4-.4L51 4l1.8 1.1 1.8-.2 1.3.2 1-.7v-1l1-.6 1.7-.2 1.8.6.1.4 1.6-.5z"/><path d="M53.1 1.4l-1.7.3 1 .3zm-7.2 2.4l-.9.1-.1.4h.6zm-2.4 1.1l-1.2-.2-.8.9-.7.3 1.5-.2 1.4-.8m18.4 18.8l.3-1-1.5-.1-1.2-.2-2 .1-1.5.5-.4.2v.5l.3.3-.2.3 1.2.7.5-.1v.7l.2-.1.3-.1.8.1.7.3 1.1.5.9-.1 1.3.4-.3-.8.1-.6-.5-.9zm-6.9.7h-1l.7-.6-.3-.4-.7.2.7.7-1.2.3.5.7 1.4-.5zm6-19.2l.3-1.4-.2-.5-1.8-.6-1.7.2-.9.5v1l-1 .7-1.3-.2-1.8.2L51 3.9l-1.3.5.7.5 1.6.5 1.8.8 1 2.4-.1.9.7.9 1.5.6.2 1.2-3.9 2.5-1.6 1.7.8 1.8v2l1.8 1.2 1.8.3 3.5-.9 2.4-.2 1.4-.4.1-.5-1.3.3.4-.3 1.2-.9 1.1-1 1.4-1.2.7-.9v-.5l-.8-.6-1.4-.7.5-1-.7-.3-.1-.8-.7-.1v-.9l.3-.9-1.7-2v-.3l1-.9-.1-.4-.9-.6zM52.9 31l-.3.3.1.4-.9.1H51v.4l-.1.4 1 .2 1 .1 1 .1h.8l.7-.1v-1l-.3-.3-1.5-.2z"/><path d="M54.5 26.1l-1.2.4-.4.4v.4l-.5.6.1 1.6 2.3-.8 2.4.3 1.4-.4.1.4.3.1.8.3.5.3.5.3.5.2.7-.4.9.2.5-.7.7-.4-.6-.7-.2-.3-.2-.3-.1-.5-.1-.5-1.3-.4-.9.1-1.5-.7-1.2-.2-.6.2-.1.5.3 1.1-1.1.5-.8-.6-.1-.4z"/><path d="M61.3 30.2l-1.7-.9-.9-.3-.1-.4-1.4.3h-.8l-1.6-.2-2 .4-.3.4.4.9v.6l.7.3 1.7.3.1.4v.9l1 .3.4.5 1.5-.1 1.2-.5h.8V32l.3-.4.7-.7zM30.5 35l-.5-.3-1.7.3-.5.5.1.3.4.4v.5H27l1-.7-1-.3-.6.6-.7 1.2-.8 1-.3.5.8.1.1-.3.4.2 1.1-.1.9.3.7.5.3-.7-.1-.9.9-.3.6-.6-.1-.8.2-.4.2-.4.1-.3z"/><path d="M28.9 41.5l.2-.6-.2-.6-.4-.6-.5-.5-1-.3h-1.1l-.5-.2v.4l-.8-.1-1.4.4-.3.2.6.7.4-.1.7.7.6.3.5.5 1.2.1.2.8.3.1h.2l.3.1.3-.1.1-.9z"/><path d="M28.8 41.5l-.5.3v1.1l.9.1.1-.7zm2.3 13.3h.6l.4-.5.9-.8.9.4 1.2.6.4.3.4 1.2.3.4 1.3 1.2 1 1.1 1.4 1 .6.7h1.2l1.4 1 .6.6.6.8h.7l.6 1.6.4 1-.4.4-.1.4-.5.6-.2-.3-1.1.3-1.4.5-1.3-.5-.6.2-.6-.2-.4.6.3.4.9.4 1.7.8.5.3.2.5 1.1.2.4-.8-.5-.8 1-1.5.3.1.5.3.8-.9v-.8l1-.5.1-.9-1.3-.8.5-.8.5-.6.6.1 1 .3.4.8.4-.6-1.2-1.3-1.8-.9-1.4-.7v-.4l.7-.5-2.4-.1-.9-.7-1.6-2.6-1.8-1.1-.2-1 .3-.8-.3-1 .5-.5 1.6-.5-.2-.4v-.5l.2-.5-1.1-.1-.9-.4v-.4h-.8V48l-1.1.2-1.5.5-.9.9-1.1-.3v.9l-.9-.1-.4-.5-1 .9-.7-.3-.7.1-.1.3-.6 1.5.9.6-.6.6.3.4 1 .5z"/><path d="M29.9 47.7l-1.1 1.2v.6l.6-.3.5.5.2.3.1.1v.2h.3l.4-.1.7.3 1-1 .4.6.9.1v-.9l1.1.3.9-.9-.2-.5h-.4l-.5-.5-.1-.8-.8-.2h-1.1l-1.5.2h-.4l-.1.2zm11.5 1.1l-.4.8v.5l.5.6-.3.6.5.2h1.1l1.7.2 2.2-2.8-1-1.7zm5.1-7.9l.1.5-.5.3-.7-.9v-.4l-1.1-.1-1-.5-.2.4-.8-.3-3.8 1.5.8.6.1.8.9.6.4.3.9.9 1.1.3.3-.4 1.4-.3 1.1.3h1.2l.1-.3 1.3-.2.4-.4.3-.5.8-.5-.5-.6h-.5l-.7-.1v-.6z"/><path d="M34.7 47h.3l.8.5.3-.5.4.2h.9l1.1-.3.9-.2.7.3.2-.4-.3-.7.6-.7.9-.4.2-.2 1 .3.3-.4 1.4-.4 1.1.4h1.3l-.1.6.5.9-1.5 2.1.1.2-.7.4-.9.1-.6.1-.6.4-1-.1-1.8-.2-.9-.3v-.5h-.8V48l-1.1.1-1.5.6-.2-.5h-.4l-.5-.5-.1-.4z"/><path d="M29.5 43l-.2-.1v-.6l-.4-.8.2-.6-.5-1.1s.3-.8.3-.9c0-.1-.1-.8-.1-.8l1-.4s.5-.5.5-.6c0-.1-.1-.8-.1-.8l.5-.8-.1-.7.3-.7h1l.7.4.2-.4.2-.3s.3.2.3-.3.1-.5.1-.5v-.6l-.2-.3v.1l.8.2.7.2.5-.3v.5l.7.1.5.2.6-.2-.2.4-.3.4h.5l.4.2.3-.4.7-.3.6-.3.5-.1.6.2.2-.4h.3l-.1.2-.5.2.4.3h.6l.3.4h.8v.5l-.1.3.3.8-.4.5.5.7.3.7v.9l.6 1v.7l-.3.3-.7-.2-1.2.5-1 .4-.7.2-.9.4.8.6.1.7 1 .7.8.7.3.4v.3l-.9.3-.6.7.4.7-.3.5-.7-.3-.9.1-1 .3-.2.1h-.9l-.3-.2-.3.5-.8-.5-1.1-.3h-1.1l-1.5.3h-.5l.5-1.6.4-.8.5-.3v-.4l-2.3-.3-.4-.6zm23.9 15.4v.9c0 .1.1 1.1.1 1.1l.5.8.9-.4 2.7-.7v-1.3l-1.1-1-3.1.6z"/><path d="M51.4 58.2l-.2.4.6.6-.2 1-.1 1.4v.7l1.4 1.2s.6-.8.7-.8c.1 0 .4-.4.5-.7.2-.3.2-.6.2-.6l-.7-.9v-1.2l-.1-.8-1-.9h-.9l-.2.6zm-5.9-4.7l1.1 1 1 1 .8 1.1.3.4h.5l.6.4-.1-.4.8-1.3h.8v-.6l-.4-1.3-.4-.5V53l.3-.1v-.2l-.7-.3-.3-.2-.7-.1-1.8-.3-1.3.3-.8-.3v.9z"/><path d="M50.7 51.7v.8l.1.4s-.8.1-.1.7c.6.6.6 2.1.6 2.1h-.9l-.7 1.3v.5l.5.4 1.1.6.2-.5.1-.6h.8l.7.6.4.3L55 58l1.7-.3.2-.8.4-.6.4-.5h-.2l-.2-.1-.4-.4-.4-.3v-.6l.4-.5-.4-.7-.4.2-.4-.1-.6-.2-.1-.4-.7-1.1-.5-.6-.9-.9H51l-.4.1-.4.3.4.2.1 1z"/><path d="M46.3 49.2l.7.6 1.3.8 1.6.2.1-.1.4.2.2 1.1v.8l-.9-.4-2.5-.4-1.2.1-.8-.3v.8l.2.9 1.3 1.1.8.9.8.9-1.3-.5h-.5l-.3-.4h-.7v-.3l-1.5-.9-.2-.8-.4-.8-.1-.5-.7.7.3-.8-.5-.4-.7 1-.5-1.3 1.4-.2 1.5.4s0-.7.6-1.1c.6-.4 0-.7 0-.7l.9-.5.4-.4.3.3zm7.7-6.3l-2.5.6-.7-.8-.9.4-.4-.5-.8.6-.5.8-1.4.2-.1.9.5.9 1.2.5 1.5-.3.3-.5h.2l.2.2 2.1-1 .8-.4.4.1.4.2.5.4.4-.1.3-.4.4-.6v-.3l-.3-.2z"/><path d="M56.6 45.9l-.4.4-.8.6-1.1 1.9-.2.2-.4.2-.4.4-.4.4h-1.8l-1.1.5-1.6-.1-1.2-.7-1.2-.8-.4-.8 1.5-2.1 1.2.5s1.3 0 1.6-.6c.4-.6.5-.1.5-.1l.6-.3s.8-.2 1.8-.8c.9-.6 1.3 0 1.3 0l.5.4h.5l1.5.8zm.8 8.7l2.4.4H62l.8-.7 2-.2 1.2.5 1 .4.2.5-.3.2h-.4l-.5.5v.8l-.7.5.4.5H65l-.8.1-.2 1-.1.4-.8-.4v.9h-.5l-.9.2-1.4-.6-1.9.1-.8.3.1-1.3-1.1-.9s0-.9.6-1.5 0-.5 0-.5l-.7-.8v-.6l.4-.5.5.7zm7.4-9.6l-1.6.2H63l.5.7.3.2.4.5.3.4 1 1.1.4.7-.2 1.1.2 1.2.7.6v-.5l.3-.5.3-.5.2-.5v-.3l.3-.1h.3l.6-.2.2-.3-.2-.3-.3-.2h-.4v-.8l-.5-.2v-.7l-.9-.8h-.8zm-.5-16.1l-.4.1-.6.3-.5.6-.8-.1-.7.4v.8l-.8.7-.2.3v1.1h-.8l-1.1.4-.8.1h-.9l.6 1.1.3.6-.1.6-.5.6-.5.3v.3l.6.4.2.6.1.6 1.5-.8 1.7-.1 2.1.3.5.4 1.9.2 1.1-.1.5.3h1.4l.5.1.3-.9.2-.5 1.1-.2.7-.3-.7-.4-.1-.8-.4-.7v-.3l.2-.2.3.1.6.2.6-.5.1-.3-.1-.4-.4-.3-.8-.2-.5-.5-1.3-1.7-.3-1.3-1.2-.6-1.2.1z"/><path d="M55.7 33h-2.1l-2.8-.3-.6.2h-1.1l-.6-.6V32h-1.1l-.9.2-1.1.4-.3.3-2.9.9v.5l-.2.2.3.8-.4.5.5.7.3.7v.9l.6 1v.7l1.1.5 1.1.1v.4l.7.9.5-.4-.1-.4 1.3.4v.7h1.3l.5.6.3.5.8-.3.8.8 1.5-.4.9-.2.9.4.8.4.5.1.2-.2v-.1l-.1-.3-.1-.2.7-1.2 1.3-.8.2-.9-.9-1.3-.1-1.2-.3-.3s-.8-.2 0-.6c.8-.4.8-1.3.8-1.3l-.7-1.1-.4-1-1.1-.4zm5.1 13.1l-.7.5-.8-.4-2.1-.5-.5.3-.2-.1-.3.4-.7.6-1.1 1.9-.7.5-.8.7 1 1.2.6.9.7.9.9.3.4-.2.1.3.4.7.4.4 1.5.3.9.2h2.1l.8-.6 1.9-.3 1.1.4 1.3.5v-.9l.3-1.3.1-.5.5.3h.6v-.8l-.8-.5-1 .5-.8-.7-.2-1.1.2-1.2-.4-.7-1-1.1-.8-1-.7-.8z"/><path d="M57.3 38.8l.9 1.3-.2.9-1.3.8-.7 1.1.2.6-1.1 1.6 1.5.9.5-.3 2.1.5.8.4.7-.4 2.4-1 1.7-.1.9.8h.8l.9.9v.7l.5.2v.7s.3-.1.7.4c.1.1.1.4-.3.5-.4.1-1.2.1-1.1.2.1.1.1.8-.5 1.5-.4.4-.1.8-.1.9 0 0 .7-.4 1-.4.2 0 .2.2.3.1.3-.4 1.2-1.2 1.5-1.4.1-.1-.6-.7-.5-.7.1-.1.7.4.7.4l.3-.7 1-.3h1l.4.3-.2.5.8.4 1-.1 1.5-.1.3.2-.4.2-.6.4-1.1.7.6.3 1 .3.3.4-.2.8.8.5 1-.8 1.2-.6.5-.4s.6.3.7.3c.1 0 .7-.1.7-.1l.2-.6-.7-.3-.8.3-.9-.1-1.2-1.1-1-.3.4-.4h1.1l1.5-.9 1.5-.4 1.5-.4.5-.8.3-.9 1.1-.4 1.1-.5-.4-1.6.5-1.6-2.4-.9h-1.3l-1.1-1-1.9.1H77l-1-1.5-1.3-.2-.6-2-.5-.3-2.2.1-.3.4-1.2.6-.9.3-.4 1.3-.6-.2h-1.4l-.4-.3-1.1.1-2-.2-.5-.4-2.1-.2h-1.7l-1.5 1zm6.3 20.5l-.5-.2v.8l-1.4.3-1.4-.6-1.9.2-1.5.5-1.9.6-.8.3-.1.8-1.2 1.5.4.7.7.8.6.1-.4.2.5 1 1.7.1-.8.4-.7.5.7 1.1v.8l.6.6.3-.6.6.5.2.5.2-.6.9.6-.8-2.2 1.3.4-.6-1.1-.9-.4-1.4-.8 1 .1 1.4.5-.4.6.9-.2 1 .5v-.8l-.9-.7-1.3-.9h.5l1.1.9 1 .6-.4-.9-1.6-.8-.8-.3.3-.4.6.2-.4-.6-.9-1.2.3-1 .3-.1.1.6.9.6v-.5l.7.3v-.4l.8.4-.3-.4-1-.5.3-.4h.9l.1-.5.5.3-.3.5.3.1.6-.8 1.2.1.8.2.1-.8.1-.6.5-.3zm-33.3-6.6l-.4.6.1.4 1.2.5-.1.5-1.2.6-.5.5-.4.5-2-.5-1.3-.4h-1l-1.3.8v1.5H22l-2.5-.7-1.3.1-1.8-.5-1.2-.8.3-.6.6-2.4.3-1.6.5.2-.6-.9.1-.8-1.7-1.4.1-.6-.4-.3V47l-.5-.1-1.3-.5-.9-.1-.2.1-.5-.7.2-.2-.4-.3v-.3l1.4-.4.5-.1.7-.2.7.7.7-.3h1.3v-1.2l-.3-.4v-.5h.8l.2.7h1.5l.8-.3-.1-.3 1.2-.6 1-.5.3-.7v-.6l.5-.4.9-.1.6.7.4-.1.6.6.7.3.5.5 1.3.1v.8l.9.2h.6l.9.2.4.5 2.3.3.1.4-.5.3-.6 1.6-.3.9-.9.6-1.1 1.3v.6l.6-.3.8.9v.5l-.7 1.5zm3.6 7.6l-.7.6-1 .3-.2.2.3.6.1.8.1.5-.2 1v.5l.9.4.7-.7v.2h.7l.2-1.9-.1-.9v-.5zm0-3.6l.7 1.5-.7 1.6h-.7l-.4-.9-.1-1 .3-.7zm-.8-24.5l-.1-.4-.1-1.1-.7-.3v-2l.5-.1.3.4-.2-.6-.4-.2.6-.6.3.4-.2.9.8-.8v-.4h.7v-.5l.5-.5.9-.2-.1.2v.7l-.4.4-.6-.2.6.5v.3l-.5.2.6.1.9.1.2.2-.3.4-.2.1-.7-.1v.6l-.4.2-.1.3-.2.3 1-.1.8.6-.2.4-1 .1-.5-.7-.3-.1v.5l-.1.2.8.2-.2.6-.4.3zm4.5-2.5l-.5.3h-.4s.3.5.3.6v.4l.8.2.7.4-.8.2-.8-.1v.4l1.7.3.6-.8-.6-.4.6-.3-.6-.5.8-.3v-.8h-.8v.8h-.7l-.3-.4"/><path d="M55.4 10.4l-.7-.9.1-.9-.3-.5-.4-1.2-.3-.7-1.8-.8-1.5-.5-.8-.5-.3.3-.1.9-.5.1-1.6-.3-.7.3v.5l-.3.2-1-.1-.7.5-.5.6.3.3v.4l-.6.4-.9.9-1.1.5-.1 1.5-1 1.1.5.5v.5l-1.2.1-1.4.7v1.2l-.8 1.1.8.9v.9l1 .5-.4.5-.6.3.7 1-.7.9-.7.9-.3 1.2h-.4l.2 1 .4.3.1.6.7 1.3 1.3 1.5-.3.4v.3l.1.6.4.4-.3.6.8.2.8-.2.5.1.2-.3-.2-.6 1-.6h1.6l.3-.2.3-.7.3-.9.2-.9v-.9l.2-.6-.2-.4.6-.6.9-.5.8-.4.1-.3.9-.8-.3-.8-1-.7-1.4-.4-.2-1.4.6-1.4-.5-.5.8-.2.2-.5-.3-.3.8.1.3-.5 1.2-.6 1.8-.8.6-.8.7-.3-.9-.3.2-.7.7-.7.9-.5v-.4h2.4zM46 27.3l-.7 1v.4zm2.5-1.5l-.8.7.3.8.8-.6v-.5l.1-.4h-.3m-33.7-1.3l-1.5.1h-1.1l-.4 1.2-.9.1V27l-.1.3-.7-1.2-.7.4 1.2.3v.8l-.1.4-.6.3v.5l.6-.1 1.4-.8-1.2.9-.1.9-.2.9 1.1-1.1-.3.7.5-.1.4.4-.8 1.2.9.3 1.1-.2.9-.1-.7.8.4.5.5.2.1.1-.1.5v.7l-.8.5-1 .1s-.4-.5-.7-.2c-.3.3.3 1.1.3 1.1v.7l-.2.4-1 .4-.4.3.2.5 1.1-.1s-.1.4.2.4 1.1.4 1.1.4l1.5-.7-1.2 1-1.3.1-.9.4-1.4 1.7h-.4l.8.2 1-.8h.7l.8.2.5-.8 1.2-.1 1.1.2 1.5-.3 1.9-.1.3.2 1.5-.6.7-.6-1.4-.5.5-.1-.2-.3.9-.1.7-.7.1-1-1-.7h-.9l-.3.3-.5-.1.5-.7-.3-.9-.5-.8.1-.3-.8-.7-.8-.3-.6-1.9-.7-.6-1.1-.3-.3.1-1.1-.2 1.1-.3.8.1-.6-.4-.8.1L16 28l.9-1.5-.3-.4h-2.2l-1.3.3.6-.5-.4-.3 1.2-.4.5-.5-.1-.2zm-4.6.1l-.9.4-.3.4.1.5.7-.7z"/><path d="M12.1 32.9l-.4.4.3.1.4-.5zm6.4-12.5l-.6.6.2.4zM9.9 31.1l.3.9-.3.3.6.2v.5l-.7.4h-.5l-.3.3-.6-.3.1-.6h-.8v.5l-.6.1-.4-.5.1-.5.6-.4.6-.9h1.6z"/></g></switch></svg>
