<svg xmlns="http://www.w3.org/2000/svg" version="1.0" viewBox="0 792 220 129"><switch><g><linearGradient id="a" x1="110" x2="110" y1="921" y2="792" gradientUnits="userSpaceOnUse"><stop offset="0" stop-color="#fff"/><stop offset=".5" stop-color="#8cd4e6"/><stop offset="1" stop-color="#3297cb"/></linearGradient><path fill="url(#a)" d="M0 792h220v129H0z"/><path fill="#F9AC6E" d="M157.3 881.8c-.4-1-2-.4-2.5.2.6.4 2.3.6 2.5-.1"/><path fill="#986732" d="M156.3 882.4c-.6 0-1.2-.2-1.5-.4.3-.4 1.2-.8 1.9-.8.3 0 .6.2.8.6h-.1c-.1-.3-.3-.5-.6-.5-.6-.1-1.4.3-1.7.7.5.2 1.3.4 1.9.3.3-.1.4-.2.5-.4h.1c-.1.2-.3.4-.6.4-.4.1-.6.1-.7.1z"/><path fill="#CDE194" d="M0 849.1l219.4 4v-42.7c-1.8.4-8.6 4.1-10.5 4.5-2 .3-7.4 1.6-9.4 1.4-2-.2-8.2-4.1-12.1-3.2-3.9.9-7.6 4.3-10 4.3-2.5 0-6.9-.5-8.4-.7-1.5-.2-5.4-1.2-5.4-1.2s-3.4.9-4.9 1.4c-1.5.5-7.4 2.6-9.9 2.6s-5.4-.9-6.4-.3c-1 .5-2.5-.2-3.9-.3-1.5-.2-3 0-4.9.7-2 .7-3.5 1.2-4.4 1.9-1 .7-4.3.3-5.6 1.3-1.3 1 .2 1.5-3.3 1.9-3.4.3-3-.9-4.9-.7-2 .2-3.3.8-4.9 1-1.6.3-16.3 4-19.2 4.3-3 .3-3.9 1-5.9 1.6-2 .5-2.5.2-6.4.7-3.9.5-7.4.3-8.9.9-1.5.5-3 .5-3 .5s1-3.3-2.5-4c-3.4-.7-5.9 1.2-8.9 1.2s-13.5-1-16.3-2.1c-1.2-.5-5.3-3.4-16.9-7.7-8.4-1.5-16.6-1.8-22.5-1.7v30.4z"/><path fill="#466F3B" stroke="#1F381E" stroke-width=".25" d="M50.6 828.5l-.3.7-.7.1.1.6-.7.1-.2-.4-.8.3-.5-.3-.2-.3-2.5.7-.9.1h-.6l-.4-.5-.1-.4-.5.4h-.5l.1-.6-.6-.5-.5-.3-.6-.4.1-.4-.7-.5 1 .1-.2-.6.4-.3.6.2.4-.4h.6l.2-.5.7-.5.5-.1.3-.2 1 .3 2-.1.3-.2-.4-.4-.6-.1h-.6l.1-.4.5-.1.4-.4-.6-.4-.2-.2.4-.4-.3-.5.2-.3.8.1.6.1.6-.3.7-.2.4.3.2-.5.5-.5.4-.3.6.3.8.1.5.3 1.2.1.8-.4.9.2 1.2-.1-.4-.6.1-.6v-.7l1 .1.1.3.8-.3.7-.1.5-.7h.8l.4.3.4-.1.7-.2.3.4.5.2.8.3.7 1.3-1.9 2.7-5.7 2.6-3.7 1.3-1.6.9z"/><path fill="#356835" stroke="#1F381E" stroke-width=".25" d="M133 820.4l-.9-.7.2-.8.8-2.4 3.7-.7 1.6-1.3 2.7-.7.6-.7-.1-.6h.7l-.5-.7.7-.3-.1-.4.3-.5-.1-.3 1 .4.9-.3.8-.1.1-.7.2-.7.6.4.6-.4.4-.7.7.3.9-.4.9.1.7.4.8.2.7-.3.3.4.7.4v.3h.8l1.1-1v-.5l1 .1 1-.7 1.3-.5 1.1.2.7.4.2.4.6-.2.6.3 1.1-.1 1.1-.2.8-.4.6.3.1.5v.5l.5.3-.5.5v.5l1.5-.1.3-.1.8.1 1-.3.6.4 1.2.2v.7l.1.4.7.4.1.3.7.2-.6 1.1-3.2 2.7-10.3 1.2-24.9 3.2"/><path fill="#986732" stroke="#393218" stroke-width=".25" d="M53.2 838.7s1.4-1.1 1.5-1.7c.1-.5.5-2.9.5-2.9l.4-3.7-1-.2-1.5-.5-1.4-.4-1.1-.7.4-.6 1.4 1 1 .2-1.1-1.7-.1-.6 1-.2.8 2.3 1.9.6.4-3 1.2-.5 1.5.3-.1 12.1-5.7.2z"/><path fill="#659841" stroke="#1F381E" stroke-width=".25" d="M51.4 828.7l-.7.4-.5-.3h-.6l-.7-.1-.3-.5-.5.4-.7-.1-.6-.2-.1-.2h-.4l-.4-.2-.4-.5.4-.3.4.2.3-.2.3-.4-.1-.3-.2-.5h.6l.1-.4.7-.4.4.2.4-.2.5.2h.7l.3.3.9.1v-.6l-.7-.4-.2-.5.4-.4.2.2.3-.6.6.2 1.1-.3.5-.3v-.7l-.5-.2.3-.4.2-.5h.9l.3-.4.6.2.7.1-.4-.7.3-.4.6.2 1.1-.3v.5l.9.1.6-.4.2.4.4.3h.7l1 1.6.9 1-.2 2.2-1.9 1.4-1.1-.2-.9-.3-.5.2-.2.4-.6.1-.4.3-.6-.2-.6-.2.1.3-1 .3-.5-.5-.3.4-.2.4-.7-.1-.8.1.3.3zm81.8-10.7l.5-.3.6-.1.2.4.7-.4.6.3.9-.3-.2-.3.5-.4.7.3h1l.2-.3h.7l.6-.1.9-.5-.4-.4v-.4l-.3-.3h.8l.8-.3.2-.4-.3-.3-.1-.5-.2-.2-.3-.4-.3.2-.6.1-.4-.2-.6-.1.2-.5v-.4l.4-.3h-.8l.4-.4-.7.1-.1-.5-.7-.2h-.7l-.7-.3-.9-.1h-.5l-.1.4-.6.3h-.6l-.1.3h-.7l-.9-.2-.4-.2h-.7l-.4-.3-.1.5.4.4-.6.7-.5.2.1.3-.8.3zm12-1.4h-1.3l-.1-.5.8-.5.1-.6.6.4.3-.3.4-.5-.2-.6.7-.3.5.2.5-.6.8.1.8.1.4.1.2-.5.4-.6.7-.3.7-.1v.3l.6-.3.7-.1.5.4.8.1-.1.5.1.5.6-.4.5-.2.8.1.1.3.3.3.7-.1.1.3.7.4-.1.3h.8l-.1.4.1.5.6-.2.6.2.5-.3 1 .2 2.3.3.5-.5.5-.2.8.2.2-.5-.1-.3.9-.3h.9l.3-.4.3-.3.3-.8h1.2l.5-.3.3-.5h.7l.5-.3.5-.3h.8l2.7.6-.1.8h1.9l.9-.5.9.9.6.6.3-.7h2.1l.1-.7h1.1l.9.2v-.8h.7l.9.7h.9l.9 1v.5l1-.2 1.3.5.1-.7 1.1.7.7-.5.6 1 .1.6h1v-.6l.6.7h1.6l.4.7 1.1.1v-.9h2.3l.1-.8.4.8h1.4l1 .1.3.5 1.4.1h1.6s.4.3.9.6c.4.2 2 .2 1.9-.2-.1-.5 3.2-.3 3 .9-.1 1.3 1.6 1 1.6 1l1.1 1.3-.9.6.3 1.5 1.3-.1 1.3.2-.6.2 1 .5.3 1 1 .1.8 1 .3 1.5-3.7.8-15.1 5.7-4.3-3.3-29.6-11.3-21-1.2z"/><g fill="#F7EE6C" stroke="#986732" stroke-width=".25"><path d="M52.6 848s-.8-.9-.8-1.3c-.1-.5 0-1.2.1-1.4.1-.2.5-1.1.8-1.2.2-.1 2-.8 2.3-.8h1.9c.3 0 1.8.5 1.8.5l-1 4-5.1.2zm-22.4-3.6s1.2-2 3.8-1.7c2.5.4 3.9 1.6 3.8 2-.1.4-.5 1.2-.8 1.4-.3.2-2.9.3-2.9.3l-2.4-.5-1-.7-.5-.8z"/><path d="M51.3 848.4s-.9-.7-1-.9c-.1-.2-.1-.6-.1-.6l.7.3-.3-1.1.1-.5.3.5.4-.9.1.2 1-.8 1.5-.3.1.5 1.8-.3 1.1-.1 1.2.2-.1 4.2-6.8-.4zm-10-4.3c-.1.1.2-2.7 1.4-3.1 1.2-.4 3.4-.6 4.9.1 1.5.7 2.2 2.3 2.1 2.8-.1.5-.5.9-.8 1-.3.1-2.4.3-2.4.3l-3.7-.2-.8-.3-.7-.6z"/><path d="M42.5 845.6s-2.1-.3-2.3-.5c-.2-.2-.6-.8-.6-.8l-.1-.5.7.4-.4-1.1.2-.5.5.6s.2-.9.3-1c.1-.2 1-.8 1-.8l.1.7s1.4-.7 2-.8h2.4s-.6.2-.6.3c-.1.1-.1.3-.1.3s1.9.2 2.3.6c.3.3.7 1.3.5 1.6-.1.3-.6 1.1-.6 1.1l-1.4.4-3 .1h-.9zm-12.4 1s-1.4-.8-1.4-1.1c-.1-.3 0-1.1 0-1.1l.6-1.1.6-.2s-.3.3-.3.5c.1.2.3.3.3.3s.8-.9 1.1-1c.3 0 1.3-.1 1.3-.1l-.3.3s1.6 0 1.9.1c.3.1.8.3.8.3l-.7.3s.8.2 1 .3c.2.1 1.1.6 1.1.8v.4l-.5-.3s.1.4.2.7c.1.2-.2.7-.2.7l-1.4.3-1.9.1-1.8-.1-.4-.1z"/></g><path fill="#356835" stroke="#1F381E" stroke-width=".25" d="M168.6 827.8l.9-.7-.1-.9-.9-2.3-3.6-.7-1.7-1.3-2.6-.8-.7-.7.1-.5h-.6l.4-.7-.6-.3.1-.4-.3-.5.1-.3-1 .4-.9-.3-.8-.1-.1-.7-.2-.7-.7.4-.5-.4-.5-.7-.6.3-.9-.4-.9.1-.8.4-.7.2-.7-.3-.3.4-.8.4v.3h-.8l-1.1-1v-.5l-.9.1-1-.7-1.3-.5-1.2.2-.6.4-.2.3-.6-.1-.6.3-1.1-.1-1.1-.2-.8-.4-.7.3v.9l-.5.4.5.5v.5l-1.5-.1-.4-.2-.7.6-.9.1-.7.1-.9-.2-.4.5v.5l-.7.4-.2.3-.6.2-1-.4-.8.6-.8-.2h-1.8l-.2.8-1.4-.1-1.4-.6-.2.7-1.4 1-4.6 2.2 8.4 5.9 11.8 6.5 32.3-8.2"/><path fill="#663817" stroke="#393218" stroke-width=".25" d="M2.1 819.7l.8 5.7H1.5s-.8-.1-1.5-.2v1c.2.1.4.2.6.4.4.4 1.1 1.3 1.1 1.3s-.5 7.1-.5 8.6c0 .6-.5.9-1.1 1.2v1.3l6.3 1-.4-2.4 1-17.5-4.9-.4z"/><path fill="#356835" stroke="#1F381E" stroke-width=".25" d="M20.7 820l-.6-.3-.6.1-.3.5-.3-.5.4-.3v-.5l-1 .3-.3-.4-.8-.7-2.8-1.3-7-1.6H5.2l-1.1-.4-.4-.9-.3-.5-.8.8-.6-.3.2-.7.5-.2v-.6l.2-.4v-.6l-.6-.2-.5.1-.8.1-.3-.5-.7-.2v12.8l.3-.1 1.2.4.7.2.3-.5.7.5 1.6.4 1.7.6 1.3-.1.8.2.8-.4.8.1.7-.3.7.4 1.1-.5.5.3 1 .1 1 .5.7.3.2-.4.6.3.7-.4-.2-.3h.6l.3-.4.2-.8-.4-.3.7-.4-.5-.6.8.2.5-.8.6.1.6-.4.4-.4-.1-.6z"/><path fill="#986732" stroke="#393218" stroke-width=".25" d="M4.4 821.9s-1.5.4-1.9.5c-.4.1-.1-.3-.1-.8 0-.4.3-1.2.3-1.2H1.1v1.9l-.5.7-.6.3v1.1c.6-.3 1.6-.7 2.1-.8.5-.1 1.9-.7 2.6-1 .7-.3 3.2-1.5 3.2-1.5l-1.4-.4-2.1 1.2z"/><path fill="#986732" stroke="#393218" stroke-width=".25" d="M8.5 824.7l-.4-2.7-4.1-1.8.1 5.1s-3.3-.8-4.1-1.1v.9c.3.1.6.3.8.3 1.1.3 2.1.6 2.3 1 .3.4 1.2.8 1.2 1.7 0 .9-.1 5.1-.1 5.1s-.2 2.5-.2 2.7c0 .3-.1 1.7-.1 1.7l-2.1 1.5 8.9 1.7s-1.1-2.8-1.1-6.3v-8.3l.7-1.6.8-1.1.5-1.1.3-.5h-1.2l-2.2 2.8z"/><path fill="#659841" stroke="#1F381E" stroke-width=".25" d="M17.4 816.5l-.9-.1.7-.6.8-.9-1.1.1-1.4.1.6-.5-.4-.4-1.1-.2h-.8l-.2-.3h-.7l-.2-.5H12l-1 .3-.4.7-.1-.7-1.5-.3-.5-.6-1.3.3-.3.3-.6.9-1-.1-.4.6.1.6-.2.6-1.2.1-.4.5-1.1.2-.8.2-.8-.4-.5.7v4.2l1.2-.2.5-.3.8.2.8.3 1.4.2 1.1.1.3.5v.6l.6.1.1.5h.8l.9-.6.5.3 1.6.1.3-.2.8.2 1.1-.1 1.2-.3.3-.4h.9l.5-.4.4-.4 1-.2.5-.5-.7-.4-.4-.6.1-.6.9-.2-.1-.7.5-.3 1-.7-.9-.4zm172.8 15.6l-1.2-.9-.2-1h2l-1.5-1.2 1.4-.8-.9-1.5h-1.6l-1.4-.8 1.3-1 .3-1.4-1.3-.6.6-1-.3-.8-1.8-1.7-1.9.3-1.9-.1-1.3.2-.1-1.2-.8-1.4-1.9-.5-1.4.3-2.2-.1-1 .2-1.6.2.8.5v1l-.9.5-.5.7-2.3-.5-1.9-.3-.8-.7-.6 1.1-1.3-.7.2 1-2.3-.1-1.4.8v1.1l-1.6.9-.7 1.3-.1.7-2.1 3.2 5.1-1.7-.2.9 1.3.3-.6.9-1.1 1.2-1.1.6-.2 1-1.3.4 2.3.5 1.8-.4 2.9 1.4.6.8 1.5.1 1.1 1.3z"/><path fill="#70BF5B" stroke="#466D33" stroke-width=".25" d="M154.3 834.1s-.9.2-1.2.6c-.3.4-.3 1.2-.3 1.2s1.1 0 1.3-.4c.2-.4.2-1.4.2-1.4z"/><g stroke-width=".25"><path fill="#676768" stroke="#000" d="M26.8 832.5l.7.2.3-.1h.6v.4l-.4.1h-.6l-.8-.1z"/><path fill="#343433" stroke="#000" d="M31.5 834.9c-1.1.1-1.9-.5-1.9-.5s-1.5-1.7 1.4-3"/><path fill="#3F3837" stroke="#000" d="M39.8 835c-.1.6-.8 1-1.6 1-.7-.1-1.2-.6-1.1-1.2.1-.6.8-1 1.6-1 .7.1 1.2.6 1.1 1.2z"/><path fill="#70BE44" stroke="#35351A" d="M31 829.8l.8-.3 5.4.4s.2.2.2.4-.3 1.7-.3 1.7l.7.1.6-1.6.3-.1s.3-.6.5-.6c.1.1.1.6.1.6l.3.2-.6 1.7 1.3.3.1-.2s-.5-.5.1-.5c.7 0 .8.2.7.3-.1.1-.3.2-.3.2l-.1.2 1 .3s-.6 1.7-.8 1.9c-.2.2-.2.1-.2.1h-.1s-4.8-.4-6.7-.8c-1.9-.5-3.6-.9-3.6-.9l.6-3.4z"/><path fill="#F5EB38" stroke="#343433" d="M31.8 829.4l-.4 2.8-.1.3 10.2 1.2.1-.1-7.9-1.1-2.1-.3"/><path fill="#3F3837" stroke="#000" d="M40.7 835.2c-.1.6-.8 1-1.6 1-.7-.1-1.2-.6-1.1-1.2.1-.6.8-1 1.6-1 .7.1 1.2.6 1.1 1.2z"/><path fill="#676768" stroke="#343433" d="M32.8 829.8l-.3 1.8 3.9.5.4-1.9z"/><path fill="#343433" stroke="#000" d="M31.3 835s-2.4-.8-.5-2.9c0 0 .5-.5 1.7-.6 1.1 0 2.4.6 2.4 1.4.1.8-.4 1.8-1.6 2.1-1.2.4-2 0-2 0z"/><path fill="#FFCA68" stroke="#986732" d="M33.4 833.4c-.1.5-.6.9-1.1.8-.5 0-.9-.5-.8-.9.1-.5.6-.9 1.1-.8.5 0 .9.5.8.9zm6.6 1.8c-.1.2-.4.4-.7.4-.3 0-.5-.3-.4-.5.1-.2.4-.4.7-.4.3 0 .5.3.4.5z"/><path fill="#676768" stroke="#000" d="M30.4 832.5s-1.9-.1-2-.2c-.1-.1-.7-.1-.7 0-.1.1-.1.2-.1.3 0 .1.1.2.1.2s.1.2.2.2c.2 0 .4-.2.4-.2l-.2-.1.4.2 1.8.2.1-.6z"/><path fill="#CACA62" stroke="#676833" d="M26.1 831.6v-.3l.2-.2h.6l-.6-.2.7-.2-.6-.1-.2-.1.2-.2.1-.2h-.4c-.1-.1.3-.2.3-.2l.4-.1.4-.3-.4.2h-.4v-.3l.2-.2h.2l-.2-.2h-.3v-.1h-.2v-.2h-.8v-.7l.5-.2h-.5l-.3-.3-.1.3-.4.1v-.3l-.3.2-.2-.5-.2-.2-.1.3-.2.2-.4-.1h-.3l-.2-.2v-.3l-.3.2-.3.1-.3-.2-.5-.4-.1.5-.7.1-.2-.5-.3.3-.4.2h-.4l-.3-.2v.5l-.3.2-.2-.2-.1.2-.3-.2-.4-.1.3.4-.1.4-.3.7h-.8l.5 1-.2.9 9.2.7z"/><path fill="#969595" stroke="#000" d="M17.1 833.2l8 .7s1 0 1.2-.1c.2-.1.8-1.4.8-1.5 0-.2.1-.6.1-.6l-10.6-1.1.5 2.6z"/><path fill="#474948" stroke="#151615" d="M25.9 833.8c0 .3-.4.6-.9.6s-.9-.2-.9-.6c0-.3.4-.6.9-.6s.9.3.9.6zm-6.9-.4c0 .3-.4.6-.9.6s-.9-.2-.9-.6c0-.3.4-.6.9-.6s.9.2.9.6z"/><path fill="#FFCA68" stroke="#986732" d="M18.5 833.4c0 .1-.2.2-.4.2s-.4-.1-.4-.2.2-.2.4-.2c.2-.1.4 0 .4.2zm6.8.4c0 .1-.2.2-.4.2s-.4-.1-.4-.2.2-.2.4-.2c.3 0 .4.1.4.2z"/></g><g fill="#F7EE6C" stroke="#986732" stroke-width=".25"><path d="M47 837.5c0 .1.1-1.8.9-2.1.8-.3 2.3-.4 3.3.1s1.5 1.6 1.5 1.9c0 .3-.3.6-.6.7-.2.1-1.6.2-1.6.2l-2.5-.1-.6-.2-.4-.5z"/><path d="M47.9 838.5s-1.4-.2-1.5-.4c-.1-.1-.4-.6-.4-.6l-.1-.4.5.3-.3-.7.1-.3.3.4s.1-.6.2-.7c.1-.1.7-.6.7-.6l.1.5s.9-.5 1.4-.5h1.6s-.4.1-.4.2v.2s1.3.1 1.5.4c.2.2.5.9.4 1.1-.1.2-.4.7-.4.7l-.9.3-2 .1h-.8z"/></g><g fill="#F7EE6C" stroke="#986732" stroke-width=".25"><path d="M33 840.2c0 .1-.1-1.8-.9-2.1-.8-.3-2.3-.4-3.3.1s-1.5 1.6-1.5 1.9c0 .3.3.6.6.7.2.1 1.6.2 1.6.2l2.5-.1.6-.2.4-.5z"/><path d="M32.1 841.2s1.4-.2 1.6-.4c.1-.1.4-.6.4-.6l.1-.4-.5.3.3-.7-.1-.3-.3.4s-.1-.6-.2-.7c-.1-.1-.7-.6-.7-.6l-.1.5s-.9-.5-1.4-.5h-1.6s.4.1.4.2v.2s-1.3.1-1.5.4c-.2.2-.5.9-.4 1.1.1.2.4.7.4.7l.9.3 2 .1h.7z"/></g><g fill="#F7EE6C" stroke="#986732" stroke-width=".25"><path d="M14.4 837.8c0 .1.1-1.8.9-2.1.8-.3 2.3-.4 3.3.1s1.5 1.6 1.5 1.9c0 .3-.3.6-.6.7-.2.1-1.6.2-1.6.2l-2.5-.1-.6-.2-.4-.5z"/><path d="M15.3 838.8s-1.4-.2-1.6-.4c-.1-.1-.4-.6-.4-.6l-.1-.4.5.3-.3-.7.1-.3.3.4s.1-.6.2-.7c.1-.1.7-.6.7-.6l.1.5s.9-.5 1.4-.5h1.6s-.4.1-.4.2v.2s1.3.1 1.5.4c.2.2.5.9.4 1.1-.1.2-.4.7-.4.7l-.9.3-2 .1h-.7z"/></g><path fill="#FFF" d="M84.6 815.6c-.3-1.1-1.4-1.7-2.5-.7-1.3-1.8-3.7 0-4.4 1.2-1.6-.6-3.3-1.6-4.5-.1-1.7-1.2-4.9-.3-4.8 1.4 1.5.3 3.1.2 4.5.4 1.5.2 2.1 1.1 3.9.2.9.8 2 1 2.7 0 1.4.7 3.4.1 3.7-1.1 2.3 1.8 6.7-.4 1.2-.9m-69.7-10.2c.4-1.8 2.5-2.8 4.3-1.2 2.3-3 6.4 0 7.6 1.9 2.7-.9 5.7-2.6 7.8-.1 2.9-1.9 8.4-.5 8.2 2.2-2.7.4-5.3.3-7.7.6-2.6.3-3.6 1.7-6.7.3-1.5 1.3-3.5 1.5-4.7 0-2.4 1.1-5.9.2-6.3-1.8-3.9 2.9-11.6-.6-2-1.5m131.9-1.1c-.4-1.3-2-2-3.5-.9-1.8-2.1-5.2 0-6.1 1.3-2.2-.7-4.6-1.8-6.3-.1-2.4-1.3-6.8-.4-6.7 1.6 2.1.3 4.3.2 6.3.4 2.1.2 2.9 1.2 5.4.2 1.2 1 2.8 1.1 3.8 0 2 .8 4.8.1 5.1-1.3 3.1 2 9.4-.5 1.6-1.1"/><path fill="#98CB67" d="M-.3 921.4h220v-71.2l-220-1.8z"/><path fill="#676768" stroke="#3A3737" stroke-width=".25" d="M103.7 832.7l-9 .2-.6-1 15.7-12.9 20.1-8.9 2.1.2v3.9z"/><path fill="#CA3333" stroke="#663817" stroke-width=".25" d="M162.9 859.6l-61.3-.9-.8-28.5 10.1-9 20.9-9.4 2.4-.8 21.3 9 16.1 16.2 13.2-.6 30.6-1.4-.5 19.1-52.9 6.4"/><path fill="none" stroke="#663817" stroke-width=".25" d="M167.3 831.1l.8 27.7"/><path fill="#676768" stroke="#3A3737" stroke-width=".25" d="M169.9 836.4L151 819.7l-21.7-10v-.8l28.2.6 21.7 1.4s10.3 1.3 21.7 8.9c11.3 7.6 17.7 14.1 17.7 14.1l-48.7 2.5z"/><g stroke="#353231" stroke-width=".25"><path fill="#998481" d="M142.2 859.2l-24.8-.4.6-15.3 24.7.4z"/><path fill="#F0E8E6" d="M141 859.6l-22.6-15.1-.9 2.1 19.3 12.9z"/><path fill="#F0E8E6" d="M116.9 859.1l23.5-14.2.7 2.1-20 12z"/><path fill="#F0E8E6" d="M127.8 844.4l-1.2 15.2h3.3l.7-15.3z"/><path fill="#F0E8E6" d="M117.6 859.5l1-14.4h21.7l-1 14.5 4.1-.2.1-15.9-26.1-.4H116l-1.6 16.1z"/></g><path fill="#CA3333" stroke="#973721" stroke-width=".25" d="M197.5 853.3l-.2-17.5m-7.7 19.5l-.2-19.2m-84.9 20.8l-.3-29.5m49.1 31l-.3-36.8"/><path fill="#F0E8E6" stroke="#353231" stroke-width=".25" d="M146.3 849.1v-4.9l5.5.2.1 4.6z"/><path fill="#663817" d="M147.7 848l.2-2.8 2.5.1.2 2.9z"/><path fill="#CA3333" stroke="#973721" stroke-width=".25" d="M111.5 857.4l-.4-36.2"/><path fill="#F0E8E6" stroke="#353231" stroke-width=".25" d="M113.4 848.4v-4.9l-5.5.2-.1 4.6z"/><path fill="#663817" d="M112 847.2l-.1-2.7-2.6.1-.1 2.9z"/><path fill="#CA3333" stroke="#973721" stroke-width=".25" d="M118.2 842.9l-.4-24.7m6.9 24.8l-.3-27.9m6.8 27.8l-.3-30.8m7.6 30.9l-.3-29.2m7.2 44.4l-.4-41"/><path fill="#F0E8E6" stroke="#353231" stroke-width=".25" d="M127.1 818.6l8.1.2.3-3.4-4.2-2.3-3.9 2.1z"/><path fill="#663817" d="M128.7 817.6v-1.8l2.3-1.3 2.8 1.2.2 1.8z"/><path fill="#F0E8E6" stroke="#353231" stroke-width=".25" d="M123.1 841.4l.1-9.2 14.6.5-.4 9.1z"/><path fill="#973721" stroke="#353231" stroke-width=".25" d="M124.6 840.3l.4-6.8 10.5.2v6.8z"/><path fill="#663817" d="M124.8 839.3l10.6-2.3.1-3.3-10.5-.2z"/><path fill="#CA3333" stroke="#973721" stroke-width=".25" d="M161 858.4l-.3-29.9"/><g fill="#F0E8E6" stroke="#353231" stroke-width=".25"><path d="M156.7 858.6l5.2.3.1-.8-5.1-.3zm.6-5.4l5.2.3.1-.8-5.1-.3zm.2 1.9l5.1.4.2-.9-5.2-.3zm-.3 1.9l5.1.3.2-.8-5.2-.3zm.6-10.9l5.1.3.2-.8-5.2-.3zm-.2 2l5.2.3.1-.8-5.1-.4zm0 1.7l5.2.3.1-.8-5.1-.3zm-.1 1.7l5.1.3.2-.9-5.2-.3zm.4-8.9l5.2.3.1-.8-5.1-.3zm-.3 1.6l5.1.4.2-.8-5.1-.4z"/><path d="M163.5 859.6l1.5-18.3-.9-.8-1.2.2-1.3 19zm-5.6-.3l.8-18.5-.6-.5-1.1.3-1.2 18.6z"/></g><path fill="#CA3333" stroke="#973721" stroke-width=".25" d="M174.8 858.1l-.3-21.5m31.1-1.5c0 1.3-.2 16.6-.2 16.6"/><path fill="#F9AC6E" stroke="#986732" stroke-width=".079" d="M111.6 873.5c1.2.6 1.9-.7 1.7-1.4-.7 0-2.2.6-1.7 1.4"/><linearGradient id="b" x1="148.788" x2="153.344" y1="871.327" y2="871.327" gradientUnits="userSpaceOnUse"><stop offset="0" stop-color="#f9f29d"/><stop offset=".189" stop-color="#fbe876"/><stop offset=".452" stop-color="#fcdb47"/><stop offset=".685" stop-color="#fed224"/><stop offset=".875" stop-color="#ffcc0f"/><stop offset="1" stop-color="#ffca07"/></linearGradient><path fill="url(#b)" stroke="#C1AA30" stroke-width=".25" d="M150.7 869.3s-2.7 3.3-1.6 3.9c1.1.6 4.3 0 4.3 0s-.4-2.1-.6-2.8c-.2-.7-1.2-1.1-1.2-1.1h-.9z"/><path fill="#F9AC6E" stroke="#986732" stroke-width=".079" d="M112.2 870.6c-.8.8.9 1.4 1.8 1.3 0-.6-.8-1.7-1.7-1.4"/><path fill="#FFF" d="M109.4 796.9c-.3-1.1-1.4-1.7-2.5-.7-1.3-1.8-3.7 0-4.4 1.2-1.6-.6-3.3-1.6-4.5-.1-1.7-1.2-4.9-.3-4.8 1.4 1.5.3 3.1.2 4.5.4 1.5.2 2.1 1.1 3.9.2.9.8 2 1 2.7 0 1.4.7 3.4.1 3.7-1.1 2.3 1.8 6.7-.4 1.2-.9m73 1.8c-.3-1.1-1.4-1.7-2.5-.7-1.3-1.8-3.7 0-4.4 1.2-1.6-.6-3.3-1.6-4.5-.1-1.7-1.2-4.9-.3-4.8 1.4 1.5.3 3.1.2 4.5.4 1.5.2 2.1 1.1 3.9.2.9.8 2 1 2.7 0 1.4.7 3.4.1 3.7-1.1 2.3 1.8 6.7-.4 1.2-.9"/><g stroke="#976732" stroke-width=".25"><g fill="#C79533"><path d="M171.4 897.3c0-.4.4-.7.5-1.1-.3.2-.6.3-.8.6 0 .2.1.4.3.5m-2.2.6c-.9-.3-1.8-.4-2.4.2.5-.2 1.1-.2 1.6 0 .4.1.9.5 1.3.3.7-.4-.6-1.9-.6-2.4l-.3-.1h-.3c.1.6.6 1.1.8 1.6-.6-.1-1.5-.6-1.9-.1.4 0 .9.2 1.3.3"/><path d="M169.8 897.9c.4 0 .5.4.6.6-.2-.1-.5-.3-.8-.4m1.6-2.1c0 .5.2 1.1.3 1.6-.2 0-.5.1-.7.1-.2-.3-1.3-.9-1.3-1.2.4 0 .9.3 1.2.5 0-.4-.4-.7-.2-1 .2-.1.5-.1.7 0"/><path d="M171.3 897.3c.1.2.2.5.2.8-.2-.2-.4-.3-.5-.6"/></g><path fill="none" d="M169.3 897.5v.3"/></g><path fill="#CACA97" d="M170.3 898.2c.1.1.2.2.3.4-.2 0-.3-.1-.4-.2-.1-.1 0-.2.1-.2m-3-.4c-.2 0-.4.1-.5.3.3-.1.6-.1.5-.3m.6-.6c-.1 0-.3.1-.4.2h.4v-.2m3.5.4c.1.2.1.3.1.5l-.3-.3c.1-.1.2-.1.2-.2"/><path fill="#C79533" stroke="#976732" stroke-width=".25" d="M166.6 887.5c-.4-.2-.8-.3-1.2-.3 0 .2.1.5.3.7.3-.1.7-.2.9-.4"/><linearGradient id="c" x1="61.201" x2="65.73" y1="890.499" y2="899.173" gradientTransform="matrix(-1 0 0 1 232.21 0)" gradientUnits="userSpaceOnUse"><stop offset="0" stop-color="#f9f29b"/><stop offset="1" stop-color="#ffcd33"/></linearGradient><path fill="url(#c)" stroke="#CAC961" stroke-width=".25" d="M169.6 890.2c.4-.5 1.2-.9.2-1.9l-.3-.2c.1 0 .2 0 .3.1 0-.1-.1-.3-.3-.4h.3c-.2-.1-.3-.3-.6-.2h.2c-.1-.1-.3-.1-.5-.1.1 0 .1-.1.2-.1-.4-.1-.8-.1-1.2-.1-.5-.1-1 0-1.4.1-.9.4-1.3 1.2-1.3 1.9.1 1.4-.7 2.5-.3 4 1 3.3 5.3 3.6 9 3.6 0 0-.2-.2-.2-.3h.5c-.1-.1-.1-.3-.2-.4.2.1.5 0 .7.1-1-.9.7-2.8-.9-3.7h.4c-.7-1-1.4-1.6-2.9-1.8 0-.1.2-.1.2-.2-.6-.3-1.3-.4-1.9-.4"/><linearGradient id="d" x1="62.45" x2="67.008" y1="889.865" y2="898.596" gradientTransform="matrix(-1 0 0 1 232.21 0)" gradientUnits="userSpaceOnUse"><stop offset="0" stop-color="#f9f29b"/><stop offset="1" stop-color="#ffcd33"/></linearGradient><path fill="url(#d)" stroke="#CAC961" stroke-width=".25" d="M168.2 891.7c.4 0 .9 0 1.2.2 0 .1-.1.1-.2.1.3.1.6.2.7.4h-.4c1.1.6.9 1.6 1.1 2.5-.1 0-.3 0-.4-.1-.1.3-.1.6 0 .9-2 .3-3.4 0-4.4-1.2-.9-1-1.3-2.7.3-3.2"/><path fill="none" stroke="#976732" stroke-width=".25" d="M169.5 896.9c-.1.1-.2.1-.3.1m.2-.3h-.4m2.3.2c-.1.2-.2.2-.4.1"/><path fill="#686869" stroke="#C8C830" stroke-width=".25" d="M166.4 887.6c.4.1.4.4.2.7-.2-.1-.4-.2-.4-.3.1-.1.3-.2.4-.2"/><path fill="#FFF" d="M166.6 887.8c.1 0 .2.1.1.1-.1.1-.2 0-.1-.1"/><path fill="none" stroke="#FFF" stroke-width=".25" d="M168.6 887.6c-.1 0 .1-.1.1-.1m.1.2h.3m-.7-.2l.1-.1m-.3 0s0-.1 0 0m1.5 1.2s-.1.1-.2.1m.2 0h-.2m.3.5s-.1-.1-.2-.1m.2.5c-.1 0-.1 0-.1-.1m-4.2-.2s-.1.1-.2.1m.3.1l-.1.1m0-.5h-.2m.2-.1c-.1 0-.1 0-.1-.1m4.9 1.4c-.1 0-.3 0-.4.1m.8-.1h-.4m-4.9.6h-.2m.1.1c-.1 0-.2 0-.2.1m.2.2c-.1 0-.2.1-.2.1m.4-.8c-.1 0-.2-.1-.3-.1m4.7 5.2c-.1 0-.2-.1-.2-.1m0 .2s-.1 0 0 0m-.4 0c-.1-.1-.1-.1-.1-.2m-.2.2v-.2m-.3.3c0-.1-.1-.1-.1-.2m1.4-.3c-.1 0-.2-.1-.3-.1m.3-.1c-.1-.1-.1-.1-.2-.1m.6-.8c-.1-.1-.2-.1-.3-.1m.4-.2c-.1 0-.2-.1-.4-.1m.4-.1h-.3m.2-.3h-.3m-5-1h-.2m.2.2h-.3m.5.3h-.4m.5-.6c0-.1-.2-.2-.3-.1m.4-.2s-.2-.1-.3-.2m4.7 2.9c-.1 0-.2 0-.3-.1m-.3.6l-.2-.2m-.6.7c-.1 0-.1-.1-.1-.2m1.6-2.3h-.2m-.3-1c-.1 0-.2 0-.3.1m0-.3c-.1 0-.2 0-.2.1m.1-.3c-.1 0-.2 0-.2.1m-1.7 3.4c-.1 0-.1.1-.1.2m-.2-.4c0 .1-.1.2-.1.2m-.1-.3c-.1.1-.1.1-.1.2m-.5-.8c-.1.1-.2.1-.3.1m.1-.3c-.1.1-.1.1-.3.1m-.1-.8h-.3m6.9-2.7h-.4m0-.1c-.1 0-.2 0-.3.1m1.6.4h-.4m.7.3c-.1-.1-.2-.1-.4-.1m1 .7c0-.1-.2-.1-.3-.1m.3.3c-.1-.1-.2-.2-.4-.1m.8.9c-.1-.1-.3-.2-.4-.2m.5.8c-.1-.1-.2-.2-.3-.2m.3.5c-.1-.1-.1-.2-.2-.2m-.1 2.6c-.1 0-.2 0-.2-.1m-.1.1c-.1 0-.2-.1-.3-.2m.3.4c-.1 0-.2-.1-.2-.2m1-.5c-.1 0-.2 0-.3-.1m.1-.1c-.1 0-.2 0-.3-.1m.4-.3c-.1-.1-.2-.1-.3-.1m.3 0c-.1-.1-.2-.1-.3-.1m.5-.4c-.1 0-.2-.1-.3-.1m.2-.2c-.1-.1-.2-.1-.3 0m-1 2c0 .1 0 .2.1.2m.3-3.1c.1 0 .2.1.2.2"/><path fill="#F7983A" stroke="#C96929" stroke-width=".25" d="M27.3 903.4c.6.1.4.1 1 .1.4 0 .4 0 .8.1.3 0 1 0 1.2.2-.1-.4-1-.6-1.4-.6-.4 0-1.1 0-1.4-.1-1.3-.4-.9-.9-1-1.3-.2-.6-.1-.9-.3-1.6 0 0-.2-1.6-.1-1.9 0-.3.1-1.1-.2-1.2-.3-.1-.7.1-.7.4 0 .4-.1 1.6-.1 1.6.1.7.3 1.3.4 2 .1.6.3 1.2 0 1.7-.1 0-.2.1-.2.1l-.3.1-.9.6c-.3.2-.4.4-.7.6 1.1 0 1.5-1.2 2.6-.8l.2.1c.7.2 1.2.4 1.9.6.3.1.6.2.9.1.4 0 .6-.2 1.1 0-.2-.4-.9-.3-1.4-.4-.6-.1-1.3-.3-1.7-.7l-.3-.3"/><path fill="#CA3333" stroke="#973821" stroke-width=".25" d="M40.5 879.2c-.1.1.1.2-.1.2-.1-.6.8-.8.8-1.4-.1 0-.2-.1-.3-.1-.2.2-.6.4-.7.5-.3-.4.1-1-.5-1.4-.2.2-.5.5-.8.6-.1-.4-.1-1.2-.8-1.3-1-.1-.3.8-.9 1.1-.3-.4-1.2-.8-1.7-.3-.3.3.2 1.3.1 1.7.9.3 1.6-.3 2.4-.3.8 0 1.6.5 2.3.9"/><g fill="#F7983A" stroke="#C96929" stroke-width=".25"><path d="M22.5 904c.4.5 4 .5 3.7 1.4-.2-.3-1.1-.4-1.5-.5-.4-.1-.9 0-1.3-.2"/><path d="M23 904.4c.3.2.6.4.9.5.3.1.5.2.9.4.4 0 1.5.6 1.5.8-.3-.2-1.4-.3-1.6-.3-.2 0-.6-.2-.8-.2-.5-.1-.9-.5-1.3-.7.3.6 1.9 1.5 1.7 2.3-.2-.2-.6-.3-.8-.5-.1-.2-.6-.4-.8-.6-.4-.4-1.4-1.2-1.4-1.2-.5 0-1 .1-1.4.3-.2.1-.4.3-.7.4-.3.1-.5-.1-.7.1.1-.4 1.8-1.2 2.4-1.3 0 0 .9 0 .9-.9 0-1-.2-5.3-.2-5.3s.3-.3.6-.2c.3.2.3 5.4.5 5.9.1.4.3.5.3.5z"/></g><linearGradient id="e" x1="25.692" x2="28.701" y1="912.263" y2="885.325" gradientUnits="userSpaceOnUse"><stop offset="0" stop-color="#cac9ca"/><stop offset="1" stop-color="#fff"/></linearGradient><path fill="url(#e)" stroke="#949494" stroke-width=".25" d="M31.3 895.2c-2.9.5-2.6 4.9-6.5 3.6-1.8-.6-1.3-1.7.1-2.3 1.6-.8 3.1-.5 4.9-.9"/><linearGradient id="f" x1="20.304" x2="23.269" y1="911.569" y2="885.022" gradientUnits="userSpaceOnUse"><stop offset="0" stop-color="#cac9ca"/><stop offset="1" stop-color="#fff"/></linearGradient><path fill="url(#f)" stroke="#949494" stroke-width=".25" d="M40.8 881.3c-.6.1-2.4 1.5-2.8 3.1-.3 1.5.5 3.3-.6 4.8v-.4c0 .3-.2.6-.4.8v-.4c-.3.4-.5.9-.8 1.3l-.8.9c-1.5 2.9-3.9 4-7.6 5.2-1.8.6-2.1 1.9-3.7 2.6-.7.3-2 .5-2.8.3-1.1-.2-1.3-.6-1.7-1.3-.2-.4-.2-.9-1-.9.2-.3.1-.4-.3-.5.5-.7-1.8-1.3-2.5-1.7-.9-.6-1.3-1.7-2.2-2.2-1-.6-3.1-.4-4.3-.7-1.3-.2-2.6-.9-2.9-2 .4-.1.8 0 1.2.2-1.3-1-2.2-3.1-2-4.5.6.1.9.6 1.5.7-.1-.2-.1-.4-.3-.6 1.7.2 3.6.5 5.4.3 1.7-.2 3.6-.7 5.2-1.1 1.9-.4 4-.7 5.9-.6 1.1 0 4.4 0 5 .5l1.3.2c2-1.3 2.6-3.1 3.8-4.8 1.3-1.8 3.7-3.2 6.7-1.7l.8.7.5.7"/><linearGradient id="g" x1="18.993" x2="22" y1="911.851" y2="884.925" gradientUnits="userSpaceOnUse"><stop offset="0" stop-color="#cac9ca"/><stop offset="1" stop-color="#fff"/></linearGradient><path fill="url(#g)" stroke="#949494" stroke-width=".25" d="M29.5 886c1-.1 1.6.2 2.7.8.2 2.3.4 3.5-2.2 5-1.8 1-3.6 1.4-5.7 1-.8-.1-1.6-.9-2.3-1-.8-.1-1.9.6-2.8.5-1.9-.1-3.7-1.2-5.3-1.9-.9-.4-2.7-.8-3.1-1.7.7 0 1.3.3 1.9.4-.5-.4-1.5-.8-1.6-1.4.6-.1 1.5-.2 2.2 0-.2-.9 1.9-.9 2.6-1.2"/><path fill="#CA3333" stroke="#973821" stroke-width=".25" d="M40.9 881.4c-.7 0-2 .7-1.9 1.3.2 1.1 1.8.1 1.7-.6-.1-.2-.3-.4.2-.7z"/><path fill="#F7983A" stroke="#976732" stroke-width=".25" d="M40.7 881.4c.8-.1 1.8-.3 2.5 0-.3-.4-.4-.6-.9-.8-.2-.1-1.6-.7-1.4-.1-.4.1-1.2.5-1.1.9.3 0 .4 0 .6-.1l.3.1z"/><path fill="none" stroke="#976732" stroke-width=".25" d="M43.2 881.4c-.2 0-.4-.1-.7-.2-.3 0-.6-.1-.9-.1-.6 0-1 .1-1.6.1"/><path fill="#C79533" stroke="#949494" stroke-width=".25" d="M39.2 880c0-.5-.9-.7-1.2-.2-.2.3.1.4.5.4.3 0 .3 0 .7-.2"/><ellipse cx="38.6" cy="879.9" fill="#343433" rx=".4" ry=".3"/><path fill="#FFF" d="M38 879.8c-.1-.1.2-.3.3-.2.2.3-.1.3-.3.2m-8.9 6.4c.5-.2 2.2.3 2.5.6.6.6.4 2.2.2 2.8-.8 1.8-2.7 2.8-5 3.1-.8.1-1.7 0-2.4-.1-.7-.2-1.3-.6-2-.8-1.3-.4-3.7 1-4.5-.2.4-.1.8-.2 1.2-.1-1.2-.2.8-1.1 1-1.1-.8-.3-1-.8-.3-1.3.6-.4 1.4-.5 2.1-.5-.6 0-2.6-.9-1.2-1.2h-.5c0-1.2 2.7-1.9 3.7-1.9 1.6-.1 3.7-.1 5.1.8m-11.3 5.5c-.5-.2-.6-.3-1.1-.5-.6-.2-1.6-.6-2.2-.8-.8-.2-3-.8-3.3-1.4.5-.2 1.2.3 1.7.4.7.2 1.3.3 2 .5.7.3 2.9.7 2.9 1.4-.2 0-.2.1-.3.1"/><path fill="#FFF" d="M16.2 890.6c-1.7-.4-3.3-1.6-4.6-2.5.8-.7 3.2.3 4.1.5 1 .3 3.1.7 3.3 1.6-.3.2-.7.8-1 .9-.4.2-1.4-.1-1.7-.5m2.7-1.3c-.9-.4-1.9-.5-2.9-.9-.7-.3-2-.4-2.6-.8.9-.8 2.5-.6 3.6-.4.6.1 1.3 0 1.9.2.7.2.7.5 1.3.9-.5.3-1.2.4-1.3 1"/><path fill="#FFF" d="M20.6 886.2c-.9 0-3.9-.1-4.5.5.9.5 2.7.6 3.8.5-.1-.3-.1-.6.2-.9m15.6-4.2c-.2.2-.7.6-.6.9.2 0 .4-.1.6-.2-.2.3-.1.6-.2.8l.1.1c.3-.1.6-.3.8-.5-.3.5-.9.9-.8 1.4.2-.1.4-.2.5-.3 0 .4-.3 1.1.3 1.4.2-.2.3-.5.3-.7 0 .2.1.4.2.6.7-.6.7-1.7 1.1-2.5.2-.4.5-.8.8-1.2.5-.5.6-.6 0-.9-.4-.2-.9-.3-1.2-.6-.3-.4-.2-.7-.9-1-1-.4-2 .3-2.6 1-.2.2-.4.3-.4.5.2 0 .3 0 .4-.1-.7.3-1.3.9-1.5 1.6.3 0 .6-.2.8-.3-.1.5.8.4 1.1.1-.2.1-.4.3-.3.5.5.1.9-.2 1.2-.4"/><path fill="#FFF" d="M32.5 882.6c-.6.4-1 1.1-1.3 1.6.3.1.4.1.6-.1-.4.4-1.3.9-1.2 1.4.2 0 .4 0 .6-.2-.9.5.2.6.8.2-.5.6.3.8.8.4-.4.5.2.7.6.4-.4.4-.4 1.7.4.8-.3.5-.7 1-.7 1.6.3 0 .5-.1.7-.3-.2.4-.8.9-.8 1.3.1.6.5.2.8-.1-.4.5-1.2 1.4-1 2 .5 0 .7-.5 1-.7-.1.3-.3.5-.4.8.6.1 1.1-.7 1.3-1.1-.1.2-.1.4-.1.6.5-.1 1.1-1.2 1.3-1.6-.1.1-.1.3-.1.4.4-.2.6-.8.7-1.2.4.3.7-.3.8-.6 0 0 0 .1.1.1.6-.6.1-1.7.1-2.4 0-.9.4-1.6-.3-2.4-.5-.6-1.3-1.7-2.3-1.9-.8-.2-2.6.6-2.4 1m-20.9 4.2c-1.4 0-2.5-.4-3.8-.5 0 .4.3.6.8.8-1 .1-1.8-.3-2.6-.6 0 .4.1 1 .4 1.3.3.5 1.1.6 1.5 1 .2.2-.4.3-.2.6.1.2.5.2.7.4.4.3 1 .5 1.6.4 0-.4-.4-.6-.7-.9.4.7 1.8.2 1.1-.5h1.1c-.2-.7-.8-.7.1-1.2.2-.1.9.1 1-.2.2-.3-.4-.5-.8-.5"/><path fill="none" stroke="#FFF" stroke-width=".25" d="M61 904.9c-.1 0-.2 0-.3-.1m-.2.4c-.1 0-.2-.1-.2-.2m-.2.4s-.1-.1-.1-.2"/><path fill="#C79533" stroke="#976732" stroke-width=".25" d="M53.2 911.6c-.5.4-1.3 1.2-.7 1.7.6.5 1.9.5 2.3 1.3-.8-.3-1.5-.3-2.2-.8-.5-.3-1.5-.6-2.1-.3.3-.3.7-.4 1.2-.6 0-.5.5-1.3.8-1.7.3 0 .5.1.7.4"/><path fill="#C79533" stroke="#976732" stroke-width=".25" d="M51.3 911.3c0 .5-.3 1.2-.2 1.8.1.8 1.5.7 1.9 1.3-.4-.1-.7-.1-1.1-.2-.4-.1-.6-.3-1-.4.2.5.5 1.1.4 1.6-.1-.2-.4-.2-.5-.4-.1-.1-.2-.3-.3-.4-.1-.3-.3-.6-.4-.9-.4.2-1.6.1-2.1.2.3-.3.4-.4 1-.4.5 0 .8 0 1.1-.3.2-.2.2-.6.2-.9.1-.3 0-.7.2-1 .2 0 .3 0 .4-.1"/><linearGradient id="h" x1="1321.592" x2="1333.066" y1="996.628" y2="985.309" gradientTransform="scale(-1 1) rotate(-19.457 383.402 4963.97)" gradientUnits="userSpaceOnUse"><stop offset="0" stop-color="#f9f29b"/><stop offset="1" stop-color="#ffcd33"/></linearGradient><path fill="url(#h)" stroke="#CAC961" stroke-width=".25" d="M55.8 905.8c-2-1.1-5.6-.2-7.7.8h.4c-.2.1-.4.2-.7.2-.3.6-2.1.2-2.8.5.1.2.3.5.4.7h-.3c.2.1.4.3.5.6 0 0-.1 0-.1.1.6.9 1.7 1.1 2.8 1.5.8.3 1.7 1.5 2.7 1.5.6 0 .2-.1.9-.1s.3.3.9.5c.7.2 1.4-.5 2.6-.7.8-.1 1.4-.1 1.6-.8.1.1.5-.2.6-.1-.1-.3.1-.3.5-.2 0-.3.1-.5.5-.4-.1-.1.4-.2-.3-.3h.9c0-.2-.2-.4.2-.4-.1-.1.1-.2-.1-.3 0-.1.2-.2.3-.3-.2-.4-.3-.6-.8-1"/><linearGradient id="i" x1="1317.083" x2="1327.42" y1="992.866" y2="982.669" gradientTransform="scale(-1 1) rotate(-19.457 383.402 4963.97)" gradientUnits="userSpaceOnUse"><stop offset="0" stop-color="#f9f29b"/><stop offset="1" stop-color="#ffcd33"/></linearGradient><path fill="url(#i)" stroke="#CAC961" stroke-width=".25" d="M53.8 905.5c1.9-1.1 1.3-.6 2.4-1.2.7-.4 1.5-.6 2.2-.4.5.2 1.2.2 1.6.6v-.2c.3.2.4.6.7.8l.1.2c0-.1.1-.1.1-.2.2.5.1 1.3-.3 1.7-.3.3.1.6-1 .8-.4.1-.5.5-.6.5h-.2"/><path fill="#C79533" stroke="#976732" stroke-width=".25" d="M61 907.4c-.3.1-.9-.1-1.2-.2.1 0 .1-.1 0-.1"/><path fill="#C79533" stroke="#976732" stroke-width=".25" d="M60.8 906.7c.2.2.7.6.5.8-.4-.1-1.2-.3-1.5-.5.1 0 .3 0 .4-.1 0 0-.1-.1-.1-.2.4 0 .7 0 .2-.3.3 0 .5.3.5.3z"/><path fill="#686869" stroke="#C8C830" stroke-width=".25" d="M59.2 906c.2-.5-.6-.7-1-.4.1.4.7.6 1.2.4"/><linearGradient id="j" x1="1322.02" x2="1333.139" y1="997.228" y2="986.26" gradientTransform="scale(-1 1) rotate(-19.457 383.402 4963.97)" gradientUnits="userSpaceOnUse"><stop offset="0" stop-color="#f9f29b"/><stop offset="1" stop-color="#ffcd33"/></linearGradient><path fill="url(#j)" stroke="#CAC961" stroke-width=".25" d="M55.3 907.6c-.5.4-.8.9-1.2 1.4v-.2c-.1.2-.2.3-.3.5 0-.1-.1-.2-.1-.2-.3.4-1.4.6-2 .6-.9 0-1.9-.3-2.7-.6-.5-.2-1.7-.7-1.7-1.2-.1-.5 1.2-.9 1.6-1.2"/><path fill="#C79533" stroke="#976732" stroke-width=".25" d="M60.8 906.8c.1 0 .1.1.1.2h-.1c-.2-.1-.2-.2 0-.2"/><path fill="#FBF8CD" d="M59.2 905.8c-.1-.1-.3-.3-.3-.2-.1.2.1.2.3.2"/><path fill="none" stroke="#FFF" stroke-width=".25" d="M57.3 903.8s-.1-.1-.2-.1m-.5.5c-.1 0-.2-.1-.3-.1m1.3-.1c0-.1-.1-.2-.2-.3m-1.2.8c-.1 0-.2-.1-.3-.1m-.4.9h-.4m1.3-.9c-.1-.1-.1-.1-.3-.1m2.6-.1c0-.1-.1-.2-.1-.2m-2.9.9h-.3m.2 1.1c-.1 0-.2 0-.2.1m3.3 2.8c-.1 0-.2-.1-.2-.1m-.2.5c-.1 0-.2-.1-.2-.1m-.1.4c-.1 0-.2-.1-.3-.1m-.2.4c-.1 0-.2-.1-.2-.2m-.2.4s-.1-.1-.1-.2"/><path fill="#CACA97" d="M51.3 914.9c0 .1.1.2 0 .3 0-.1-.1-.2-.2-.3h.2m-3-1.4c-.1.1-.3.1-.3.3.1-.1.3-.1.4-.1 0-.1 0-.2-.1-.2m4.5.6l.3.3c-.1-.1-.3-.1-.4-.2l.1-.1m1.7.2c.1.1.3.1.3.3-.1-.1-.3-.1-.4-.1 0-.2 0-.2.1-.2"/><path fill="#C79533" stroke="#976732" stroke-width=".25" d="M51.1 912.3c-.2.1-.4.1-.5 0"/><path fill="none" stroke="#976732" stroke-width=".25" d="M52.6 912.2c-.2 0-.3-.1-.4-.2m.1.9c-.1 0-.2 0-.3-.1m-1.5-.9c.1.2.4.2.6.1m0 1.2c-.2.1-.4 0-.5-.1"/><path fill="none" stroke="#FFF" stroke-width=".25" d="M53.4 908.9c0 .1-.1.1-.1.2m-2.2.1c0 .1-.1.1-.2.2m-2-.9c-.1.1-.2.1-.3.2m0-.3c-.1.1-.2.1-.4.2m0-.4H48m1.6.6c-.1.1-.1.1-.2.1m1.1.2c-.1.1-.2.1-.3.1m2-.1c0 .1 0 .3-.1.3m-.5-.1s0 .1-.1.1m7.5-.6c-.1-.1-.2-.1-.3 0m.4-.3h-.2m-2.1 1.8c0-.1-.1-.1-.1-.2m-.1.5c0-.1 0-.1-.1-.2m-.1.5v-.2m-.4.3v-.2m-.4.3v-.3m-.3.3c.1-.1.1-.1.1-.2m.9-.5c-.1 0-.1-.1-.1-.2m-.2.4c-.1-.1-.1-.2-.1-.3m1.2-.6c-.1 0-.1-.1-.2-.1m1.1.4s-.1 0-.1-.1m-.7.5s0-.1-.1-.1m.4-.6s-.1 0-.2-.1m-1.8-4.5h-.1m.5-.5h-.2m2.5-.5c0-.1-.1-.1-.1-.2m-1 .1c0-.1 0-.1-.1-.1m-7.9 4.8l-.2.2m1 .2c-.1 0-.2.1-.2.2m-1.8-1.3c-.1 0-.2 0-.2-.1m4.8.8v.3m-.5-.2l-.1.1m-.6-.1c0 .1-.1.1-.2.1m.5.1l-.1.1m2.2-.5v-.2m.3 0v-.2m1.1-3.2h-.2m.1.2h-.2m.1.4h-.2m4.6-1.2l.1-.1m.3.3l.1-.1m.2.2s.1 0 0 0m-6.4.8l-.2-.2m-.2.2c0-.1-.1-.1-.2-.2m-.6.3c0-.1-.1-.1-.2-.1m-.2.2c-.1-.1-.2-.1-.3-.2m-.3.3s-.1-.1-.2-.1m.5.1l-.1-.1m-.7.1l-.1-.1m-.1.3c-.1 0-.1-.1-.2-.1m-.3.2c-.1 0-.1-.1-.2-.1m0 .3c-.1-.1-.2-.1-.3-.1m.3.3c-.1 0-.2-.1-.2-.2m-.4.1c-.1 0-.2-.1-.3-.1m2.1-.3s-.1 0-.1-.1m-1.9 1c-.1-.1-.1-.1-.2 0m0 .1c-.1 0-.2-.1-.3-.1m-.2.3c-.1 0-.2-.1-.4-.1m.1.4c-.1 0-.2-.1-.4-.1m.2.3c-.1 0-.2 0-.3-.1m.9.2c-.1 0-.2 0-.3-.1m.5-.2c-.1 0-.2 0-.2-.1m.4.7h-.3m-2.1-.7c-.1 0-.3 0-.4-.1m-.1.4c-.1 0-.2-.1-.3-.2m.4 0c-.1 0-.2-.1-.3-.2m-.2.5c-.1 0-.1-.1-.2-.1m1 .3c-.1 0-.2-.1-.3-.1m-.2.3c-.1 0-.2 0-.2-.1m1.1-.4h-.3m.7-.4h-.2m-1.6.2c-.1 0-.1-.1-.2-.1m1.5 1c-.1 0-.2 0-.3-.1m-.3.3c-.1 0-.2-.1-.2-.2"/><g stroke="#976732" stroke-width=".25"><g fill="#C79533"><path d="M75.8 899.7c0-.4-.5-.9-.6-1.4.4.2.8.4 1 .7-.1.2-.2.5-.4.7m2.8.6c1.1-.3 2.3-.5 3 .2-.6-.2-1.4-.2-2.1 0-.5.1-1.1.7-1.6.4-.9-.5.8-2.4.8-3.1l.4-.1c.1 0 .3 0 .4.1-.1.7-.7 1.4-1 2.1.7-.1 1.9-.8 2.5-.2-.5 0-1.1.3-1.6.4"/><path d="M77.8 900.4c-.5 0-.6.5-.8.8.3-.2.6-.3 1-.5m-1.9-2.7c-.1.6-.2 1.4-.4 2 .3 0 .6.1.9.1.3-.4 1.7-1.1 1.6-1.5-.5-.1-1.2.3-1.5.6 0-.4.5-.9.3-1.3-.4-.1-.7-.1-.9.1"/><path d="M76 899.6c-.2.3-.2.6-.3 1 .3-.2.5-.4.6-.7"/></g><path fill="none" d="M78.4 899.9c-.1.1-.1.2 0 .3"/></g><path fill="#CACA97" d="M77.2 900.8c-.2.1-.2.3-.4.5.2 0 .4-.2.5-.3.1-.1 0-.2-.1-.2m3.8-.6c.2 0 .5.1.6.3-.3 0-.7-.1-.6-.3m-.7-.7c.1 0 .4.1.5.3h-.5c-.1-.2-.1-.3 0-.3m-4.5.5c-.1.2-.1.4-.2.6l.4-.4c-.1-.1-.2-.1-.2-.2"/><path fill="#C79533" stroke="#976732" stroke-width=".25" d="M81.8 887.2c.5-.3 1-.4 1.6-.3 0 .3-.1.7-.3.9-.4-.1-.8-.3-1.1-.5"/><linearGradient id="k" x1="76.286" x2="82.024" y1="891.005" y2="901.995" gradientUnits="userSpaceOnUse"><stop offset="0" stop-color="#f9f29b"/><stop offset="1" stop-color="#ffcd33"/></linearGradient><path fill="url(#k)" stroke="#CAC961" stroke-width=".25" d="M78.1 890.6c-.5-.7-1.5-1.2-.3-2.4l.4-.2c-.1 0-.2.1-.3.1 0-.2.2-.4.4-.5h-.4c.2-.2.4-.4.8-.3-.1 0-.2-.1-.3-.1.2-.1.4-.1.6-.1-.1 0-.1-.1-.2-.1.5-.1 1-.1 1.5-.2.6-.1 1.2-.1 1.8.2 1.1.5 1.7 1.5 1.6 2.4-.1 1.8.9 3.2.3 5.1-1.3 4.1-6.7 4.5-11.4 4.6l.2-.3h-.6c.2-.2.2-.4.3-.6-.3.1-.6 0-.9.1 1.2-1.2-.9-3.5 1.2-4.7h-.5c.9-1.3 1.8-2 3.7-2.3 0-.1-.2-.1-.2-.2.8-.2 1.7-.4 2.5-.5"/><linearGradient id="l" x1="77.865" x2="83.644" y1="890.2" y2="901.267" gradientUnits="userSpaceOnUse"><stop offset="0" stop-color="#f9f29b"/><stop offset="1" stop-color="#ffcd33"/></linearGradient><path fill="url(#l)" stroke="#CAC961" stroke-width=".25" d="M79.9 892.6c-.6-.1-1.2-.1-1.5.3.1.1.2.1.2.2-.4.1-.8.3-.9.5h.6c-1.3.8-1.1 2-1.4 3.1.1 0 .3-.1.5-.1.2.4.2.8 0 1.2 2.5.3 4.2 0 5.6-1.6 1.1-1.3 1.7-3.4-.3-4.1"/><path fill="none" stroke="#976732" stroke-width=".25" d="M78.2 899.1c.1.1.3.2.4.2m-.2-.5h.5m-3 .4c.1.2.3.2.5.1"/><path fill="#686869" stroke="#C8C830" stroke-width=".25" d="M82.1 887.3c-.5.1-.5.6-.3.9.2-.1.5-.3.6-.4-.1-.1-.3-.2-.5-.3"/><path fill="#FFF" d="M81.9 887.6c-.1-.1-.2.1-.1.2.1 0 .2-.1.1-.2"/><path fill="none" stroke="#FFF" stroke-width=".25" d="M79.3 887.3c.1 0-.1-.1-.2-.1m0 .3c-.1 0-.2 0-.3-.1m.9-.2l-.2-.2m.4.1v-.1m-1.9 1.5s.1.1.2.1m-.3.2h.2m-.3.6c.1 0 .2-.1.2-.1m-.2.5c.1 0 .2 0 .2-.1m5.2-.2l.2.2m-.3 0l.2.2m0-.6h.3m-.3-.2c.1 0 .1 0 .2-.1m-6.3 1.7c.2-.1.3 0 .5.1m-1.1 0c.2-.1.4-.1.5.1m6.3.6h.2m-.1.2c.1 0 .2 0 .3.1m-.3.2c.1 0 .2.1.3.1m-.5-.9c.1-.1.2-.1.3-.1m-6 6.5c.1 0 .2-.1.2-.2m.7.4c.1-.1.1-.2.1-.3m.2.3v-.2m.4.2c0-.1.1-.2.1-.3m-1.7-.3c.1 0 .2-.1.4-.1m-.5-.1c.1-.1.2-.1.3-.1m-.7-1.1c.1-.1.2-.1.4-.1m-.6-.2c.1 0 .3-.1.5-.1m-.5-.3h.4m-.2-.3h.3m6.3-1.2h.2m-.2.2c.1 0 .3 0 .4.1m-.6.3c.2 0 .3 0 .5.1m-.6-.9c.1-.1.2-.2.4-.2m-.5-.2c0-.1.2-.2.3-.2m-5.9 3.6c.2 0 .3 0 .3-.1m.4.8c.1-.1.2-.2.2-.3m.9.9c.1 0 .1-.1.1-.2m-2-2.9h.2m.4-1.3c.2 0 .3 0 .4.1m0-.3c.1 0 .2.1.3.2m-.2-.5c.1 0 .2 0 .2.1m2.2 4.3c.1.1.1.1.1.2m.3-.5c.1.1.1.2.1.3m.1-.4c.1.1.1.2.2.2m.6-.9c.1.1.2.1.3.2m-.1-.4c.1.1.2.1.3.1m.3-1.1c.1 0 .2 0 .4.1m-8.8-3.5c.2 0 .4 0 .5.1m0-.2c.1 0 .2 0 .3.1m-1.9.6c.1-.1.3 0 .5 0m-1 .3c.2-.1.3-.1.5-.1m-1.2.8c.1-.1.2-.1.4-.2m-.4.5c.1-.1.3-.2.5-.2m-1 1.3c.2-.1.3-.2.5-.2m-.7.9c.1-.1.2-.3.4-.3m-.4.7c.1-.2.1-.3.3-.3m.2 3.3c.1 0 .2-.1.3-.2m.1.2c.1 0 .3-.1.3-.2m-.3.5c.1 0 .3-.1.3-.2m-1.3-.7c.1 0 .2 0 .3-.1m-.1-.2c.1 0 .2-.1.3-.1m-.4-.4c.1-.1.3-.1.4-.1m-.5-.1c.1-.1.2-.1.4-.1m-.5-.4c.1 0 .2-.1.3-.1m-.3-.4c.1-.1.2-.1.3 0m1.4 2.6c0 .1 0 .2-.2.3m-.3-4l-.3.3"/><path fill="#863E1D" stroke="#863E1D" stroke-width=".25" d="M91 899.2s-1.7-.7-2.7-.4c-1 .3-2.4 1.1-2.9 1.5-.5.4-.9 1.6-.8 2.4.1.8.3 1.4.3 1.4s.9-1.3 1.7-1.2c.8.1.9.1.7 1.1-.2 1-.4 3 0 3.5.3.5 5.7 3.8 10.1 3.7 4.4-.1 5.1-.9 5.8-1.2.7-.4 1.2-1 1.4-1.3.2-.3.1-.7.1-.7s-2.6-2.5-2.7-2.6c0-.2-7.7-1.4-8.3-2.1-.6-.7-1.9-2.4-2.2-2.8-.2-.3-.3-1-.3-1l-.2-.3z"/><path fill="#673015" stroke="#863E1D" stroke-width=".25" d="M105 908.2s.4.8.3 1.2c-.1.5-1.9 2-2.8 2.3-.9.3-5.1.5-6.2.4-1.1-.1-5.9-1.1-7-1.9-1.1-.8-2.4-1.6-2.5-2-.1-.3-.1-.7-.1-.7s.5-.2.6-.1c.1.1 3.5 2 4.4 2.3.8.3 4.8 1.4 7 1.2 2.2-.3 3.6-.7 4-.9.4-.2 1.2-.7 1.5-1 .3-.4.5-.7.5-.9-.1-.1.3.1.3.1z"/><path fill="#371A10" stroke="#371A10" stroke-width=".25" d="M84.8 904.2h2.3s.4-1 0-1.3c-.4-.3-1.3.1-1.5.2-.2.2-.8 1.1-.8 1.1z"/><path fill="#371A10" stroke="#492412" stroke-width=".25" d="M86.5 899.4s-1.9.1-2.3.8c-.4.7-.6 2.1-.5 3 0 .9-.2 1.4.4 1.7.6.3 1.5.3 1.8.4.2 0 .9-.1.9-.1l.4-.9h-2.3s-.4-2.8.1-3.4c.3-.7 1.5-1.5 1.5-1.5z"/><path fill="none" stroke="#F7B717" stroke-width=".25" d="M90.8 903.2s-.5.2-.1.5.6-.2.9-.1c.3 0 1.4-.1 1.6-.1.2 0 .4-.2.4-.2s-.3-.4-.4-.5c-.1-.1-.6-.3-1.2-.1-.6.1-1.2.5-1.2.5z"/><path fill="none" stroke="#F7B717" stroke-width=".25" d="M90.6 903.1c.4-.2-.2-.3-.4-.1-.3.2-.3.4-.2.7.1.3.2.5.7.5.4 0 .6-.2.6-.5-.7-.2-.5-.3-.4-.8m0 1.9c-.2.3-.2.8.4.6-.4.2-1.2.9-1.6.3-.3-.5.7-1 1.1-1.1 0 .1.1.1.1.2m.1-5c-.5-.1-.8-.2-1.1.2-.2.5 0 .8.3 1.2.2.4.5.5 1 .7.3.1 1 .3 1.1-.1"/><path fill="none" stroke="#F7B717" stroke-width=".25" d="M90.7 904.9c.5-.5 1.1-.6 1.7-.8.4-.1 1.7-.6 2-.2.5.6-1.1.7-1.5.8-.7.2-1.5.2-2.1.6-.1-.2-.1-.4 0-.7"/><path fill="#FFF" stroke="#A7A6A6" stroke-width=".25" d="M110.8 864.8c.3-1.4-1.9-1.2-3-.9-.9.2-.9.9-1.9.3-.7-.4-.3-1.1-.3-1.7-.1-2.2-.2-5.2-1.5-7.1 2-.2 2.7 2.2 3.6 3.2 1.2 1.5 2.3 2.8 3.5 4.2.6.7 1.1 1.2 1 2.1-.1.7-.8 1.3-.5 2 .5 1.1 3.7 2.4 4.9 2.5 5.6.5 4.2-3.7 4.2-6.5 0-1-1.2-3.7.6-4.1 2-.5 2.4 3.2 3.3 4-1.1.3-2.5-.7-3.4 0 1.1.6 2.4 1 3.6 1.8 1.2.8 3.4 1.1 4.4 2.1.8.8.8 2.6.3 3.6-.6 1.4-2.2 1.9-3.9 2.3-2.7.6-6.1 1.2-9 .6-2.9-.6-5.3-3.4-8.4-3.9"/><path fill="#E8B989" stroke="#E4A065" stroke-width=".25" d="M106.5 858.5c-.7 5.6 7.9 18.2 14.7 9.4 2.3-3 1-7.2-2.3-8.3-3.7-1.3-8.6-.2-12.3-1.7"/><path fill="#F05962" d="M88.3 874.7c-2.4-1.8 1.1-10.9 3.5-12.4 1.3-.8 3.2-.9 4-2.1.7-1.1-.1-2.2.7-3.4 1.4-2.1 3.7-4.5 6.8-2.3 2.6 1.8 3 5 4.9 7.1 1 1.1 2.3 1.7 3.1 2.9.9 1.3.8 2.5 2.7 3.4 7.6 3.7 5.1-6.8 6.9-9.5 1.7 0 3.9 3.7 4.9 4.9.8.9 1.8 1.7 2.6 2.6 1.4 1.5 1 .9.6 2.6-1 3.8-8.8 4.4-13.1 3.7-2.6-.4-4.4-1.8-6.9-2.5-.8-.2-2.9-.6-3.7-.4-1.8.5-1.2 1.3-2.2 2.3-1.6 1.5-3.3 4.6-5.8 5-3.1.5-6.3-3.1-9.2-3.1-.3.2-.4.5-.3.8"/><path fill="#0496CA" stroke="#0191B7" stroke-width=".25" d="M131.5 898.2c-.5-1.5-4-4.6-4.1-6.2-.2-2.9 2.9-4.8 4.7-6.9 3.9-4.6 2.6-10.3.9-15.1-.3-.7-1.9-3-3.3-2.2-.6.3 0 1.2-.4 1.7-.4.6-1.9 1.1-2.6 1.5-3 1.6-6.1 1.7-9.7 1.4-3.5-.3-5.5-2.7-8.8-3-1.4-.1-3.6-.3-4.5.4-.4.4-.5 1.2-.8 1.6-.5.8-1.4 1.3-2.1 2-1.7 1.6-3.1 2.5-5.9 2.4-2.4-.1-3.6-1.9-5.5-3.1-1 .3-1.2 1.2-1.1 2-1.7.3-.3 3.8-.2 4.8.1.9 0 1.8.3 2.7.4 1.1 1.3 2.1 1.7 3.2.9 2.2 2.3 3.9 4.2 5.8 1.9 1.9 2.1 3.8-1.2 4.9-2.2.8-6.4.8-4.5 3.2 1.5 1.9 3.5 3.6 6.3 4.1 3.1.5 4.8-.4 7.3-1.8 1.2-.7 2.5-1.4 3.7-2.2 1-.7 2-2.1 3.4-2.1.6 0 1.8-.9 2.5-.8 1 .1 1.9 1.4 2.9 1.4 1.5 0 1.1-.1 2.1.6.8.5 1.6 1.4 2.3 2.1 1.5 1.4 3.1 2.9 4 4.6.9 1.7.9 3.5 2.4 5-1.8-.3-.2-3.5.3-4.4 1.2-2.4 2.8-3.4 5.6-3.9 2.5-.4.3-3.1.1-3.7zm-29.8-44.6c.1 1.9 1.6 4 1.8 6 .2 2.1 1.7 7.1 1.7 9.2.7 0 1.4-.8 2-.6 2.1.9.8-2.2.8-3.4 0-1.4-.2-3-.7-4.3-.6-1.6-1.1-3-2.3-4.4-.6-.7-2.6-4.1-3.6-2.6"/><path fill="none" stroke="#F7B717" stroke-width=".25" d="M126.4 872.3c-1.1-.2-1.7 1.1-.4 1.3 1.6.2 1.3-1.8-.4-1.3m.4-2.6c1.3-.2 1.6 1.5-.2 1.2 0-.2-.1-.5 0-.8 0-.2-.2-.2-.4 0"/><path fill="#0496CA" stroke="#0191B7" stroke-width=".25" d="M123.6 862.7c.1 1.3.6 2.7.7 4.1 0 .4.1 3 .5 3.4.6.5 2-.2 2.8-.1.8-1.8-1.5-6.4-2.5-8"/><path fill="#F05962" d="M126.2 861.9c.3 1.2 2 2.1 2.9 3.1 1 1.3 1.8 1.9 3.2 2.9.9.7 2.7 1.9 3.2 2.9.6 1.4-.8 1.7-2 2.7.8-1.9-10.1-10.3-7.6-11.4"/><path fill="#863E1D" stroke="#863E1D" stroke-width=".25" d="M141.7 890.8s-.2-1.3-1.8-1.4c-1.5-.1-6.5.6-7.5 1.9-1 1.2-2.1 4.7-2.2 5.5-.1.8-.3 1.6-.3 1.6l-1.1-.2s-3.3 1.8-3.7 2.4c-.3.5-.8 2.7-.8 2.7l1 1.1s.1 2.5-.1 3.4c-.2.9.2 1.7.9 2.3.7.6 1.4.5 1.4.5s.6-2.7.9-2.8c.3-.2.9-.8.9-.8l-1.2-.8.3-1.1s1.9-1.1 2.1-1.1c.2 0 1.4-.5 1.4-.5s.6-5 1.1-6.1c.4-1.1 2-4.8 3.1-5.2 1.1-.4 3-1.7 3.2-1.4.1.4 2.4 0 2.4 0z"/><path fill="#492412" stroke="#492412" stroke-width=".25" d="M137.2 903.6s-2-.5-2.8-.6h-2.1s.6-5.6 1.8-7.1c1.2-1.5 3.8-3.9 5.6-3.9 1.8.1 3.4-.3 3.8.4.4.7.2 3.5-.2 4.9-.4 1.4-1.6 2.9-2.1 3.5-.5.6-1.8 1.6-2.1 1.9-.3.3-1.4.9-1.4.9h-.5z"/><path fill="#371A10" stroke="#492412" stroke-width=".25" d="M129.1 906.9l.9.5 4.3.1-.2-.6zm8.3-3.4s-1.9 1.4-2.7 1.7c-.9.4-1.8.7-1.7 1.1.1.4-4.9-.5-4.9-.5l.2-.7 3.5-1.6.7-.5s1.8-.1 2.6 0 2.3.5 2.3.5z"/><path fill="#492412" stroke="#492412" stroke-width=".25" d="M130 907.4s-1 1.7-1.3 2.4c-.3.7-.6 1.9.5 2.1 1.2.2 1.5.1 2.4-.5.9-.6 2.6-2.7 2.5-2.9-.1-.2.2-1 .2-1l-4.3-.1z"/><path fill="#371A10" stroke="#371A10" stroke-width=".25" d="M127.3 911l.5.8.7-.3s-.1-2.5.3-2.7c.4-.2 1.2-1.4 1.2-1.4l-.7-.3s-.9.7-1.2 1.4c-.2.7-.8 1.9-.8 1.9v.6z"/><path fill="#492412" stroke="#492412" stroke-width=".25" d="M135.2 905.2c.2-.8.4-1.3-.9-1.4-.6 0-2.2.2-2.2-.5.5-.2 1 0 1.5 0s.8-.2 1.4-.1c.9.1 1.7.6 2.5.8-.1.5-1.6.6-2.1.9"/><path fill="none" stroke="#F7B717" stroke-width=".25" d="M130.7 901.5c-1 .2-.2-2.2-.6-2.2.8 0 .7 1.7.6 2.2zm-3.2-1c0-.4 2.4-2.3.7-2.1-.9.1-1.8 2-1.1 2.4m1.9-2.2c-.2.4-1.4 3-.2 2.9.6 0 1-2.4 1-3-.2.1-.5.1-.8.1"/><path fill="none" stroke="#F7B717" stroke-width=".25" d="M126.8 900.4c-.8.2-.6 1.2.3 1.1.2-.3.4-.5.3-.8m3.3.5c.9.8-1.3 1.3-.8.2m1.4-2.3c-.7-.4-1.3-1.3-1.1-2m-39.4 2.1c-.7 0-1.6 0-1.8.6-.1.3-.2 1.4.5 1.3"/><path fill="#673015" stroke="#863E1D" stroke-width=".25" d="M132 902.7c.8-2.3.9-5.2 2.6-7.1 1-1.1 2.4-2.4 3.9-3 1.7-.8 3.1-.3 4.7-.1-2-3.3-7.4-1.5-9.4 1-.8 1-1 2.7-1.3 3.9-.3 1.3.3 3-.1 4"/><path fill="#371A10" stroke="#371A10" stroke-width=".25" d="M128.2 905.8l-.1.5 1.2.8 4.8-.2-1.1-.6z"/><path fill="#006379" d="M111.7 897c-1-.4-4.6 1.2-5.5 1.8-2.3 1.4-4.4 3.1-6.9 4.4-2.4 1.3-4 1.2-6.5.1-1.1-.5-2.9-1.2-3.6-2-.8-.9-.6-1.9-1.4-2.8.5-.5.9-.6 1.7-.4.2 4.2 6.1 5.7 10.1 4.1 4.3-1.7 6.6-6 11.3-7.2 9.1-2.3 12.3 10.8 15.1 15.1-.3.3-.7.4-1.2.5-.8-.8-.8-2.5-1.4-3.6-.8-1.4-2-2.7-3-4-1-1.4-2.5-3-4.1-4-1.8-1.1-3-1-4.6-2" opacity=".46"/><path fill="#006379" d="M88.8 898.9c1.3-2.3 6.9-1.1 7.6-4.7.4-2.4-3.4-5.2-4.8-7.2-1.7-2.4-3.1-4.9-3.3-7.7-.2-2.4-.1-6.5 4.1-3.9-.9-.8-1.8-2.9-3.6-2.7-2.8 4.2-1 9.7 1.9 13.6 1.6 2.2 4 4.4 4.2 7 .3 3.7-3.3 2.1-6 4.2" opacity=".46"/><path fill="#006379" d="M91.9 874.2c.9 2 5.6 2.1 8.8-.9 3-2.7 1.4-5.5 8.3-3.7 3.8 1 6.2 2.6 10.4 2.8 5.1.3 6.4-2.1 10.3-3.9 1.2 2.7-5.7 4.5-8.1 4.9-4 .7-7.8.4-11.2-1.3-1.6-.8-3.3-2.3-5.4-1.8-2.3.5-2.3 2.2-3.6 3.7-2.4 2.6-7.6 3.6-10.4.6" opacity=".46"/><path fill="#878383" stroke="#878383" stroke-width=".25" d="M105.6 868.3c-1.2 1-.9 3.7 1.2 3.9 3.1.3 1.6-2.8 1.6-4-.8-.2-1.7 0-2.6-.2"/><path fill="#F7B717" stroke="#F7B717" stroke-width=".25" d="M105.6 869.3c.7.1 1.4.1 2.1.3 0 .5.1 2.2-.6 2.4-1.9.5-1.2-1.8-1-2.4"/><path fill="#878383" stroke="#878383" stroke-width=".25" d="M124.8 870.2c-1.2 1-.9 3.7 1.2 3.9 3.1.3 1.6-2.8 1.6-4-.8-.2-1.7 0-2.6-.2"/><path fill="#F7B717" stroke="#F7B717" stroke-width=".25" d="M124.8 871.1c.7.1 1.4.1 2.1.3 0 .5.1 2.2-.6 2.4-1.9.5-1.2-1.8-1-2.4"/><path fill="#E9BA8B" stroke="#CB905E" stroke-width=".25" d="M87.5 863.8c-.8 1.1-6.6 2.2-8 1.8-2.1-.5-4.1-2-5.7-3.1-.1.6-.4 2.6-.1 3.2.6 1 3 1.2 4.4 1.5 1.5.3 2.9.3 4.4.3 1 0 8.6-1 6-2"/><path fill="#ADADAD" stroke="#787878" stroke-width=".25" d="M69.8 848.2l6.6 61.4s1.9.3 2.4-.2c.5-.6-7-61.2-7-61.2h-2z"/><path fill="#E9BA8B" stroke="#CB905E" stroke-width=".25" d="M68.8 858.4c0-1.7 1.1-4.5 3.6-4.9 4.5-.6-.8 3.3-1 3.8 1 .5 4.8-.4 3.4 2 1.8.1 4.7 0 4.3 2.2-.6 3-3.2-.2-4.8-.3.7.2 2.9 1.8 2.5 2.5-.7 1.3-2.9-.7-4-.6-1.1 2.7-3.5 2-4.2-.4-.4-1.4-1.3-4.3.4-5.3"/><path fill="#ADADAD" stroke="#787878" stroke-width=".25" d="M68.9 845.9c.5.8.3 1.8.5 2.7 1.1-.3 2-.2 3.1-.4 1.2-.2 1.1-1.3.8-2.2-.1-.3.1-.4-.2-.6-.2-.2-.7 0-.9-.2-.5-.6 0-.7.6-1 1.1-.4 2.3-.6 3.5-1 1.1-.4 2.2-.7 3.3-1.2 1.8-.9.9-1.5-.7-2-2.2-.7-4.3-1.6-6.7-2-1.7-.2-1.5.6-.2 1.1.8.3 3.4 1 2.3 1.8-.4.3-2.7.5-3.2.4-.6-.2-.8-.8-1.2-1.2-.5-.4-1.3-.7-1.9-1.1-.6-.4-2.6-1.4-3.1-.2-.3 1 2 1.4 2.7 1.8.4.2 1.5.6 1.7 1 .3.7-.3.6-.9.8-1.1.3-2.5.5-3.4-.3-.9-.8-1.3-1.4-2.6-1.8-1.1-.3-2.6.2-1.3 1.1.9.6 2.3.8 3 1.6.8 1.1-.6.9-1.6 1-.4 0-.9.1-1.3 0-.9-.1-.7-.3-1.3-.8-.7-.7-1.9-1.3-2.9-1.6-.8-.3-2.5-.6-2.2.6.2.9 1.9 1.4 2.8 1.8.6.2 3.1 1 1.9 1.6-.9.5-2.4-.5-3-.9-.9-.6-5.2-2-5.8-.4-.5 1.4 4 2.4 5.2 2.9 1.7.7 3.7.9 5.6 1 1.4.1 2.5-.5 3.8-1 .6-.2 1.2-.6 1.9-.7.6-.1 1.3.1 1.6-.4"/><linearGradient id="m" x1="83.05" x2="63.827" y1="874.108" y2="915.663" gradientUnits="userSpaceOnUse"><stop offset="0" stop-color="#c89632"/><stop offset="1" stop-color="#663817"/></linearGradient><path fill="url(#m)" stroke="#663817" stroke-width=".25" d="M72.8 873.4c.5 2.3.4 5.5 3.6 6.5 1 .3 2.1.5 3.2.7.9.2 2.1.1 2.9.3h.9c.8-.3 2-.2 2.9-.3 1-.2 2.1-.3 3.2-.7 3.3-1 3.1-4.2 3.6-6.5"/><path fill="#C89632" stroke="#663817" stroke-width=".25" d="M92 871c1.3.2 1.5 1.9 1.1 2.7-.5.9-2 1.4-3.1 1.7-2 .6-4.2.8-6.4.8l-2-.1c-2.2 0-4.4-.2-6.4-.8-1.1-.3-2.6-.8-3.1-1.7-.4-.7.1-2.7 1.4-2.7.2 0 7.4-1.9 18.5.1z"/><path fill="#FFCA68" d="M91.5 871.8c1 .3.2 1.2-.2 1.6-.7.6-1.4.6-2.3.8-1.8.3-3.2.5-5.2.5l-2-.1c-2 0-3.4-.1-5.2-.5-.9-.2-1.6-.3-2.3-.8-.5-.4-1.2-1.4-.2-1.6l.4-.2c2.7-.3 5.4-.3 8-.2h.4c2.6-.2 5.3-.1 8 .2l.6.3z"/><path fill="none" stroke="#976928" stroke-width=".25" d="M74.8 875.2c.6 2.1 3.2 4 5.1 5.4m-2.2-4.7c.6.3 1 1.1 1.5 1.6.5.4 1 .9 1.5 1.3.8.6 2.3 1.5 2.6 2.3m-2-4.9c.8.8 1.9 1.7 3 2.4.8.6 1.6 1.4 2.4 1.8m-1.5-4.1c.9.5 1.5 1.4 2.3 2 .7.6 1.7 1.1 2.5 1.4m-1.8-3.7c.5.2 1.1 1 1.7 1.3.5.3 1.4.5 1.7.7m-.6-2.8c.3.5 1 .6 1.4.9m-1.2-.5c-.5.5-.8 1.2-1.4 1.7m-1.6 1.4c-.4.6-1.1 1-1.7 1.6m-.3-3.1c-.6.4-1.1 1.1-1.7 1.6m-1.9 1.4c-.1.2-.4.4-.6.6m-3.8-1.5c.6-.1 1.4-.7 1.7-1m-3.6-.6c.7-.4 1.3-.9 1.9-1.3m3.6.3c0-.1.3-.3.4-.4m-.3-11.6c.7-.5 2.4-.6 2.9.2"/><path fill="none" stroke="#986732" stroke-width=".25" d="M86.6 873.6c.1.3.8.5 1.2.5m-.2-1.6c.4.5 1.1 1 1.9.8m-5.4.7c.3.2.9.4 1.2.2m1.5-.8c0 .3.8.4 1.1.3m-5.3-.4c.1.4.8.6 1.2.5m1.5-2.1c-.2 0-.4-.1-.5-.2"/><path fill="#FFCA68" d="M74.5 871.8c.4-.3.7-.4 1.2-.3 0-.3 1.2-.4 1.6-.4-.2-.4 0-.8.6-.7.1-.4.8-.5 1-.2.2-.3.4-.5.8-.5.1.2.3.4.4.5.6-.5 1-.1 1.5 0 .3 0 .4-.1.7 0 .2.1.3.3.5.3.3.1.4 0 .7 0 .3 0 .5.2.7.3.4.1.9.1 1.3.4.2-.3.6-.7 1-.4.5-.6.7.3 1 .5.3.3 1 .2 1.1.7.3-.2.8-.4.9.1.6-.3 1.1 0 1.1.6.4-.1 1 .3.9.7-.1.5-.3.5-.7.3-1-.2-2.1-.9-3.2-1-1.2-.1-2.3.1-3.5.2-1.1.2-2.5.2-3.6.5-1.5.3-2.6.7-4.2.5-.6-.1-1.5 0-2-.4-.7-.5.1-1.1-.1-1.6"/><path fill="#F9AC6E" stroke="#986732" stroke-width=".063" d="M79.8 873.5c-.3-.8-1.5-.3-1.9.2.5.3 1.7.5 1.9-.2m.1-.9c.3-.8-1.1-.9-1.7-.6.2.4 1.2 1.1 1.7.6m11.6-1.1c-.3-.8-1.5-.3-1.9.2.5.2 1.7.4 1.9-.2m-10.9-.5c.5-.7-.8-1.1-1.4-1 0 .5.7 1.3 1.4 1"/><path fill="#F9AC6E" stroke="#986732" stroke-width=".063" d="M81.3 870.6c-.8-.5-1.4.4-1.4 1 .6 0 1.8-.4 1.4-1m2.5.9c.4-.8-.9-1-1.6-.8.2.5 1 1.2 1.6.8"/><path fill="#F9AC6E" stroke="#986732" stroke-width=".063" d="M82.2 871.1c-.7-.6-1.5.4-1.5.9.6.1 1.7-.3 1.5-.9"/><path fill="#F9AC6E" d="M78.9 871.6c-.7-.6-1.5.4-1.6.9.7.1 1.9-.3 1.6-.9"/><path fill="#986732" d="M78.6 872.3c-.4.2-.9.3-1.2.3 0-.4.4-1 .9-1.1.2-.1.5-.1.8.1l-.1.1c-.2-.2-.4-.2-.7-.1-.4.1-.8.6-.8 1 .4 0 1.1-.2 1.4-.4.1-.1.2-.3.1-.4h.1c.1.2 0 .3-.2.5-.1-.1-.2 0-.3 0z"/><path fill="#F9AC6E" stroke="#986732" stroke-width=".063" d="M92.3 872.2c0-.8-1.3-.6-1.9-.2.4.4 1.5.8 1.9.2m-3.1-.6c-.3-.8-1.5-.3-1.9.2.5.2 1.8.4 1.9-.2m-1.3 1.2c-.3-.8-1.5-.3-1.9.2.5.2 1.7.4 1.9-.2m-1.7-1.5c-.9-.3-1.2.7-1 1.3.6-.1 1.5-.8 1-1.3m-3.6 1.7c-.3-.8-1.5-.3-1.9.2.5.2 1.7.4 1.9-.2m3.8 1.1c-.3-.8-1.5-.3-1.9.2.5.2 1.8.4 1.9-.2m-1.4-.9c-.6-.7-1.5.2-1.6.7.5.1 1.8-.1 1.6-.7m4.2.5c-.3-.8-1.5-.3-1.9.2.5.3 1.8.5 1.9-.2m-11.5-1.9c-.3-.8-1.5-.3-1.9.2.4.3 1.7.5 1.9-.2"/><path fill="#F9AC6E" stroke="#986732" stroke-width=".063" d="M76.9 872.3c-.3-.8-1.5-.3-1.9.2.5.3 1.7.5 1.9-.2m8.6.4c-.6.7.7 1.1 1.4 1-.1-.5-.7-1.3-1.4-1m-6.8 1.1c-.3-.8-1.5-.3-1.9.2.5.3 1.7.5 1.9-.2m1.7.3c-.3-.8-1.5-.3-1.9.2.5.2 1.8.4 1.9-.2m7-1.9c0 .8 1.3.7 1.8.3-.3-.3-1.4-.8-1.8-.3"/><path fill="#F9AC6E" stroke="#986732" stroke-width=".063" d="M90.4 872.9c-.3-.8-1.5-.3-1.9.2.5.2 1.7.4 1.9-.2m-12.6.3c-.3-.8-1.5-.3-1.9.2.5.2 1.7.4 1.9-.2m4.2 1c-.1.8 1.3.7 1.8.3-.3-.4-1.4-.9-1.8-.3m3.1-3.5c-.3-.8-1.5-.3-1.9.2.5.3 1.7.5 1.9-.2m-9.4 2.1c-.3-.8-1.5-.3-1.9.2.5.2 1.7.4 1.9-.2"/><path fill="#F9AC6E" stroke="#986732" stroke-width=".063" d="M75.7 872.7c-.3.8 1.1.9 1.7.6-.2-.4-1.1-1.1-1.7-.6"/><path fill="#F9AC6E" stroke="#986732" stroke-width=".063" d="M77.6 872.2c-.3-.8-1.5-.3-1.9.2.5.3 1.7.5 1.9-.2"/><path fill="#F9AC6E" stroke="#986732" stroke-width=".063" d="M78.8 872.7c-.3-.8-1.5-.3-1.9.2.5.2 1.7.4 1.9-.2"/><path fill="#F9AC6E" d="M75.7 872.7c1-.2.5-1.2-.1-1.5-.4.3-.7 1.3.1 1.5"/><path fill="#986732" d="M75.1 872.1c0-.3.2-.7.4-.9.4.2.8.8.7 1.1 0 .2-.2.4-.6.4v-.1c.3 0 .5-.2.5-.4.1-.3-.2-.8-.6-1-.3.3-.4.8-.3 1.1.1.2.2.3.3.3v.1c-.2 0-.3-.2-.4-.3v-.3z"/><path fill="#FCCB98" stroke="#986732" stroke-width=".25" d="M84.1 871.9c-.3-.8-1.5-.3-1.9.2.5.3 1.7.5 1.9-.2"/><path fill="#F9AC6E" stroke="#986732" stroke-width=".063" d="M85.2 872.3c-.3-.8-1.5-.3-1.9.2.5.3 1.7.5 1.9-.2"/><path fill="#F9AC6E" stroke="#986732" stroke-width=".063" d="M83.7 871.7c.1.8 1.4.5 1.9 0-.4-.3-1.6-.6-1.9 0m-4.9-1.5c-.9.4-.1 1.2.6 1.4.3-.4.3-1.4-.6-1.4m5.1 3.2c-.3-.8-1.5-.3-1.9.2.5.2 1.7.4 1.9-.2"/><path fill="#C89632" stroke="#663817" stroke-width=".25" d="M81.3 874.6c-.7-.9-1.6-2.7-1.6-3.9 0-1.2.1-2.3.7-3.7.5-1 2-4.8 3.3-.3.3 1.2-.4 2.4-.2 3.5.6.1 2.6.2 2.8-.1 0 0-.7-11.9-8.2-3.4-2.9 3.4-1.5 7.6-1.5 7.6l4.7.3z"/><path fill="#F05962" d="M86.1 863.7c2.4 0 2.8 2.9 3.3 4.3 2.1-.2 4.4-2.6 5.8-3.7 1.3-1.1 5.1-3.1 2.1-4.2-2.2-.9-12.1 1.7-11 3.8"/><path fill="#0381A3" stroke="#0191B7" stroke-width=".25" d="M109.6 875.3c7.3 2 11.4 3.4 18.7.7 1.1 3.3-5.4 8.3-9.1 8.8-5.7.8-10.3-4.6-9.9-8.6"/><path fill="#E9BA8B" stroke="#CB905E" stroke-width=".25" d="M83 865.4c1.5-.3 2.3-.4 3.3-.9.2-.1.5-.2.7-.3.3-.1.5-.4.8-.3.5.2.8.9 1 1.3.1.5.2.9-.5 1.2-.5.2-.9.2-1.5.3-.5.1-1.2.2-1.7.3-.3.1-1.3.2-1.8.3"/><g fill="#E9BA8B" stroke="#CB905E" stroke-width=".25"><path d="M133.4 872.9c.8-.4 2.4-.4 3.4-.6 1.2-.2 2.3-.3 3.5-.5 1.2-.1 2.3-.4 3.5-.4 1.3-.1 3.2.3 2.5-1.1-.8-1.8-5.1-.6-6.7-.2-1.3.3-7.3.9-6 2.4"/><path d="M144.3 869.1c.4-.9.9-1.5 2.2-1.4.8 1.7 2.4 2.4 4.3 2.5-1 2.4-4.8 1.6-6.1-.2"/><path d="M141.8 872.5c.7-.6.5-1.3 2-1.1-.3.8 0 1.3-1.1 2 .5-1.3 1.6-2.1 3.3-2-.4.7.1 1.4-1 2.1.6-.6 1.7-.8 2.4-1.2.2.6.9 1.1.8 1.9.2-1 1-1.2 1.6-1.9 1.9.9.7 3-.3 4.3-1.5-.1-2.1-1-2-2.3.3 2-2.2 2.4-2.6.3-1.7 0-2.7-1.2-3.1-2.5"/></g><path fill="#020303" stroke="#000" stroke-width=".25" d="M95 853.1l.3 3.1s-.3.1-1.3-.9c-.9-.9 1-2.2 1-2.2z" opacity=".04"/><path fill="#E9BA8B" stroke="#CB905E" stroke-width=".25" d="M90.4 850.2c.3-.4 1.2-.2 1.8.1-.6-1.6-1.5-3.6-1.6-4.1-.8-4.5 12.3-11.2 19.6-12.5 6.8-1.2 20.2 3.6 21.3 9.1.1.6.7 2.3 1.2 3.6.3-.1.9-.2 1.2-.2.4-.1 2.6 1.6 2.8 2.3.2.7 0 2.2-.5 3-.5.7-2.4-.2-2.4-.2v-.1c.1 1.2.2 2.3-.1 2.7-.7.9-1.1 4-8.8 6.6-8.7 3-12.3 1.1-19.2.5-4.5-.5-6.5-1.3-8.4-2.3-1.9-1.1-2.9-1.8-3.5-3.1 0 0-1.1.1-1.5.2-.4.1-2.5-1.8-2.6-2.5-.1-1 .2-2.5.7-3.1z"/><path fill="#050506" d="M109.3 848.3c.1.5.5.9.9.8.4 0 .7-.5.6-1-.1-.5-.5-.9-.9-.8-.4.1-.7.5-.6 1zm15.6-.3c.1.5.5.9.9.8.4 0 .7-.5.6-1-.1-.5-.5-.9-.9-.8-.4 0-.7.5-.6 1z"/><path fill="#E8B989" stroke="#E28C44" stroke-width=".25" d="M120.3 852.6s-.7-1.1-2.2-.7c-1.4.3-1.6 1.3-1.6 1.3"/><linearGradient id="n" x1="103.384" x2="115.204" y1="855.517" y2="855.517" gradientUnits="userSpaceOnUse"><stop offset="0" stop-color="#ec1475"/><stop offset="1" stop-color="#dd3f95"/></linearGradient><path fill="url(#n)" d="M115.2 854.9c.4 2.5-1.8 4.7-5.1 5.1-3.2.4-6.2-1.3-6.6-3.8-.4-2.5 1.8-4.7 5.1-5.1 3.1-.4 6.1 1.3 6.6 3.8z" opacity=".13"/><linearGradient id="o" x1="125.133" x2="134.949" y1="854.29" y2="854.29" gradientUnits="userSpaceOnUse"><stop offset="0" stop-color="#ec1475"/><stop offset="1" stop-color="#dd3f95"/></linearGradient><path fill="url(#o)" d="M134.9 851.6c-1.2-1-3-1.6-5-1.4-3.1.3-5.2 2.5-4.8 4.8.3 1.7 2 3.1 4 3.5 3.6-2.1 4-4 4.5-4.7.3-.4.3-1.5.1-2.7v.1c.2 0 .7.2 1.2.4z" opacity=".13"/><path fill="#FFF" stroke="#D1D0CF" stroke-width=".25" d="M120.9 855.1c2-.1 3.5-1.7 5.4-1.8 1.6-.1 4.7.9 4.1 2.6-.5 1.6-3.6 1.6-5 2-1.7.5-3.5.1-5.2.6-1 .3-1.6.7-2.8.2-1.2-.5-.8-.9-2.3-.9-.7 0-1.9.4-2.6.1-1.1-.5-.4-1-1.7-1.3-.9-.2-2 .4-2.7-.2-.6-.5-.1-1.2-1-1.7-.8-.5 3.7-1.4 4-1.4 1.8 0 3.7 0 5.3.7 1.5.5 2.7 1.2 4.5 1.1zm-29.3-3.9c1.5.6 2.5 5.3 4.3 2.7.8-1.1-.6-1.9-.8-2.7-.5-1.5-1.2-.1-.8-1.9.6-2.7 3.5-4.5 6.3-5.8 3-1.4 4.7-2.6 7.5-4 5.6-2.7 11.2-2 16.3.2 2.5 1.1 4.2 2.3 6 4.3 1.9 2.1 1.4 3.2 1.7 5.7 5.2.6-2.1-10-3.1-11.2-3-3.7-9.7-4-15-4.6-6.2-.7-10.7 1.4-15.6 4.4-2.2 1.3-5.8 3.7-7.1 5.8-1.5 2.4.3 4.4.7 6.7"/><g stroke="#DFC233" stroke-width=".25"><path fill="#FDE551" d="M98.2 836.2c-.4-1.6-1.2-4.1.8-5.1 2.4-1.2 5.3-2.3 8-3.2 2.4-.8 4.8-1.7 7.5-1.4 1.8.2 2.4.8 3.3 1.9.6.7 2.1 1.7 2.3 2.5-3.5 1.2-7.4 1.7-11.1 2.5-1.8.4-3.5.8-5.2 1.3-2.1.5-3.8 1.5-5.8 2.1"/><path fill="#FDE551" d="M93.8 848.1c-.5 1.4-.3 2.7-2.8 3-2.2.4-4.4-.6-5-2.1-1.2-2.9 2.3-6 4.5-8 5.2-5 13.6-7.5 21.6-9.1 7-1.4 15.2-2.3 22.4-1 3.6.6 8.4 1.9 8.8 4.9.3 2.4-1.6 6.1-4 7.8-2 1.5-3.7 2.6-6.7 2.6-1.8 0-1.6-.2-1.5-1.4.1-.8.2-1.7.1-2.5-.2-4.2-7.5-4.2-11.9-4.2-4.7 0-9.6 1.1-13.9 2.4-2.7.8-5 1.9-7.1 3.3-2.2 1.5-3.9 2.4-4.3 4.6"/><path fill="#DFC233" d="M99.4 831.1c.3-.3 1.1-.8 1.7-.6 1.2.3.4.8.2 1.4-.6 1.6 0 1.3 2 1.3 1 1.4-4 3-5.4 3-.5-.8-.2-2.2-.2-3.1.1-1.7 1.6-1.9 3.3-3.1m-10 21.7c-.3-1.3-1-2.2-.9-3.7.1-1.9 1.2-2.8 2.8-4.2 2.9-2.6 7.2-5.3 11.4-6.6 3.7-1.1 7.8-1.7 11.8-2.1 3.8-.4 7.8-.8 11.4 0 4 .9 7.2 2.9 7.6 6.2.1 1.2-.3 2.9-1.4 3.9-.5.4-1.6 1.1-2.5.8-1.1-.5-.4-1.4-.2-2 1.2-6.6-12.5-5.9-18.1-5-4.4.6-9.2 2.7-13 4.4-2.2 1-4.8 2.7-6 4.4-.4.6-1.9 5.1-3.4 3.5" opacity=".33"/></g><path fill="#FFF" stroke="#D1D0CF" stroke-width=".25" d="M113.9 845.8c-.4.1-.7-.2-.9-.5-.2.5-1 .6-1.3.1l-.7.7c.1-.3-.3-.4-.6-.4s-.6.2-.8.1c-.1 0-.2-.1-.3-.1-.2 0-.4.1-.6.1-.2 0-.4-.1-.4-.3-.2.2-.3.4-.3.7-.4-.3-1.1 0-1.1.5-.1 0-.3-.1-.4-.1-.3.3-.6.5-.8.8-.1.1-.3.3-.5.2v.6c-.2 0-.3 0-.5-.1-.1.5-.3 1-.6 1.4-.3-.3-.8-.4-1.2-.3-.3.1-.8.2-.9-.1-.1-.3.3-.5.6-.8.1-.1.2-.3.3-.4l.6-.9c.3-.4.6-.9.8-1.4.7-.4 1.5-.6 2.3-.7.7-.1 1.4-.1 1.8-.6.1.1.3.2.4.3 0-.2.3-.2.4-.2.2 0 .3.1.5.1s.3-.1.5-.2c.4-.2.9-.5 1.3-.7.4.1.8.1 1.1.2.3 0 .6.1.8-.1.1-.1.2-.2.3-.2h.4c.7.2 1.5.2 2.2.1.4.6.6 1.4.6 2.1-.3-.1-.6 0-.9.2-.1-.2-.3-.3-.4-.5 0 .2-.3.3-.5.2-.2-.1-.4-.3-.6-.3-.3.3-.5.4-.6.5zm11.3-.8c-.2.1-.5.1-.7 0-.1.2-.2.3-.4.5-.2-.2-.5-.4-.7-.6 0 .2-.3.4-.5.4s-.6.1-.6.3c-.3-.2-.6-.4-.9-.5 0 .3-.1.5-.2.7l-.5-.5c-.1.1-.3.2-.4.3-.1-.2-.4-.2-.4 0-.1-.6-.2-1.2-.2-1.8.3.1.7.1 1 .2 0-.2 0-.4.1-.6.2.2.4.4.6.4s.5-.2.4-.5l.6.3c.1-.2.2-.4.1-.6.2 0 .5.2.6.4.1-.2.5-.2.6 0 0-.3.4-.5.7-.3.1-.1.1-.3.1-.4.1.2.2.4.4.5.2-.4.8-.4 1-.1.1-.1.2-.1.2-.2.2.4.7.5 1.2.6.3.1.5.1.8 0 .3-.1.5-.3.5-.5.1.3.3.6.7.7.1.1.1.2.1.3.1 0 .2 0 .3-.1.1.5.2 1 .1 1.4.2-.1.4.1.5.3.1.2 0 .4 0 .6-.3 0-.7-.2-.8-.5-.2.1-.4 0-.6-.2-.1-.2-.3-.4-.5-.4-.1 0-.2.1-.2.1.2-.1-.1-.4-.3-.3-.2.1-.5.2-.6.1-.1-.1-.1-.2-.3-.3-.3-.1-.4.4-.7.3-.1 0-.2-.2-.3-.2-.2-.2-.6 0-.6.3 0 .1-.1 0-.2-.1z"/><path fill="#9D5026" d="M111.4 894.9c.9-.9 1.2-2.4 2.5-3 2.1-.9 5.4-.2 7.6-.2 1.3 0 2.7 0 4-.1 1.3-.1 3-.7 2.7.7-.6 2.6-4.8 2.4-6.9 2 1.5 0 5 1 1.9 1.7-1.6.4-3.6.4-5 .4 1.6-.1 3.4.6 1.5 1.9-1.3.9-3.1.7-4.4 0 .7 1.2.6 2.6-1.3 2.6-.2 1.9-3.1 1.1-3.9 0 1.1 1.7 2.7 2.5 3.2 4.5.4 1.7.4 4-.3 5.6-1.3 2.9-6.4 6.6-10.4 5.6-1.8-.4-4.4-2.1-5.4-3.5-.4-.6-.2-1.9-.6-2.4-.7-.8-1.8 0-2.9-.1-1.3 0-6-1.9-3.5-3.1.8-.4 2 .2 2.8.3 1 .2 2 0 3 .2-1 0-2.6-.6-3.2-1.2-.4-.4-1.7-2.6-1.6-3 .8-2.7 5.5 1.7 6.5 2.2-1.2-.8-1.9-3.1-1.6-4.4.5-2 4.6-2.1 3.7.1.3-.6-.1-1.9-.1-2.6 0-.9 0-1.9-.1-2.8-.1-1.3-.8-2.8-.3-4.1.6-1.7 3.6-4.1 4.5-1.2.4 1.2.2 2.2 1 3.3.7.9 2.5 2.7 3.9 2.7 1 .1 2.1-1.4 2.7-2.1z"/><path fill="#B8812C" stroke="#A86728" stroke-width=".25" d="M103.5 908.8c2-.6 4.4-5.3 3.4-7-1.5-2.7-5.3 4.3-5.9 5.4.4-1.4 1.8-2.8 2.7-4 .6-.8 1.4-3.2.4-4.1-1.6-1.4-3.6 1-4.1 2.1-.5 1.3-.4 2.8-.8 4.2"/><path fill="#9D5026" d="M99.8 896.4c-1.9 0-3 .2-4.3-1.2-.9-1-1.7-3.3-3.1-3.9-1.4-.7-3.2.4-4.5 1-1.5.7-3.2 1.2-4.6 1.9 0 1.9 4.7.7 5.7.3-1 .6-3.2 1.9-.7 2 1.5 0 2.6-1.1 4-1.3-.6.8-3 1.3-1.3 2.1.6.3 1.1-.1 1.6.3s.5 1.1.8 1.6c.7 1.2 1.2 1 2.8.8 1.2-.1 2.3-.1 3.5-.1"/><path fill="#D81F26" d="M102.4 889.1c-.6-1.2-5.2-3.2-3.7-.6.9 1.6.9.9-.8 1.4-1.6.5-.5 1.3.7.8-.2.5-1.1.9-1.1 1.5.1.9 1.2 1.1 1.9.4.5-.6 0-1.5.7-2.1.6-.5 1.6-.7 2.4-.7.1-.2.1-.3-.1-.5"/><path fill="#EF9D3A" d="M102.4 888.4c1-.9 2.2-1.6 3.5-2.3.8 1-1.8 2.6-.7 3.6.5-.4.7-.9 1.4-1.1 1.4 1.1-1.7 2.7-2.6 3.1-.5-.5-.1-1-.6-1.5s-1.6-.5-1-1.4m-8.5 25.5c0-.9.3-2.7-.8-3.2-1.2.6-.5 2.2-1 3.1-.6-.2-1.5-2.4-2.5-1.9-1.3.6 1.6 2.1 1.1 2.9-.7-.1-2.2-1.3-2.5-.3-.3.8 2.1 1.7 2.7 2 1.1.6 2 1.6 3.2 2 1.7.6 1.1-.3.9-1.4-.2-.8-.1-1.6.2-2.4.3-.7 2.1-1.9 1.2-2.6-1.3-1-3 3.4-2.9 4.4m20.1-9.4c.5-1.2 1.8-.8 2.5-.3 1.2.7.9 1.3 1 2.4.6-1 .3-3.5 1.7-4 1.1.7.7 2.3.1 3.1.5-.5 1.9-2.5 3-2.2 1.7.5-1.2 2-1.8 2.3.8-.3 2.7-1 2.8.2.1 1.2-2.3 1.1-3.1 1.3-1.3.3-2.5.9-3.5 1.7-1 .8-1.3 2.5-2.3 3-1.4-1.3.8-2.7 1.3-3.8.5-.9.5-3.4-1.4-2.6-.3-.4-.3-.8-.3-1.3"/><path fill="#B8812C" d="M99.5 899.2c-.1.5.1.9.6 1.1 1.4-.4 1.3-1.5 2.6-2.1.5 1 1.4 1.6 2.6 1.4.1-.4.2-.9.3-1.3.3.2 1 .3 1.3.6 1.8-1.7-1-2.3-2-3.5-1.2-1.2-1.3-4.8-3.2-5.2-4-.8-2.2 7.7-2.2 9.7"/><path fill="#B8812C" stroke="#A86728" stroke-width=".25" d="M99.2 905.6c.7-1.7 2.3-6.1-1.6-5.6-3.8.4-2 5-.6 6.5-.7-1.3-4.7-4.5-6.6-2.8-2.4 2.2 3.1 4.2 4.7 4.3-1.3.5-5.5-.1-6.2.8-1.6 2.1 3.7 2.2 4.9 2.2 5 0 10.3.6 11.6-4.6"/><path fill="#FDE551" d="M156.3 883.3c.5-.6.9-.9 1.8-.8.4 1 0 1.5-1.4 1.3-.1-.2-.1-.4-.2-.5m2.5 5.2c.5-.6.9-.9 1.8-.8.4 1 0 1.5-1.4 1.3-.1-.2-.1-.4-.2-.5m-1.2-10.4c.5-.6.9-.9 1.8-.8.4 1 0 1.5-1.4 1.3-.1-.2-.1-.4-.2-.5m-86.3 28.6c.5-.6.9-.9 1.8-.8.4 1 0 1.5-1.4 1.3-.1-.2-.1-.4-.2-.5m-10.5 5.9c.5-.6.9-.9 1.8-.8.4 1 0 1.5-1.4 1.3-.1-.2-.1-.4-.2-.5m21.9-.6c.5-.6.9-.9 1.8-.8.4 1 0 1.5-1.4 1.3-.1-.2-.1-.4-.2-.5"/><g stroke="#976732" stroke-width=".25"><g fill="#C79533"><path d="M35.4 911.4c0-.4.4-.8.5-1.2l-.9.6c.1.2.3.4.4.6m-2.3.6c-.9-.3-1.9-.4-2.5.2.5-.2 1.2-.2 1.7 0 .4.1.9.6 1.4.3.7-.4-.7-2.1-.7-2.6l-.3-.1h-.3c.1.6.6 1.2.9 1.7-.6-.1-1.6-.7-2.1-.2.4 0 .9.3 1.3.4"/><path d="M33.7 912c.4 0 .5.4.7.7-.3-.1-.5-.3-.8-.4m1.6-2.3c0 .5.2 1.2.4 1.7-.3 0-.5.1-.8.1-.3-.4-1.4-.9-1.3-1.2.4 0 1 .3 1.3.5 0-.4-.4-.8-.2-1.1.1-.2.4-.1.6 0"/><path d="M35.3 911.4c.1.2.2.5.2.8-.2-.2-.5-.4-.5-.6"/></g><path fill="none" d="M33.2 911.6v.3"/></g><path fill="#CACA97" d="M34.2 912.3c.2.1.2.2.3.4-.2 0-.3-.1-.5-.2l.2-.2m-3.1-.4c-.2 0-.4.1-.5.3.2-.1.6-.1.5-.3m.6-.6c-.1 0-.4.1-.5.2h.5v-.2m3.8.4c.1.2.1.4.1.5-.1-.1-.3-.2-.3-.4 0 0 .1-.1.2-.1"/><path fill="#C79533" stroke="#976732" stroke-width=".25" d="M30.4 900.9c-.4-.2-.8-.3-1.3-.3 0 .2.1.6.3.8.3-.1.7-.2.9-.4"/><linearGradient id="p" x1="312.453" x2="317.275" y1="904.133" y2="913.367" gradientTransform="matrix(-1 0 0 1 347.465 0)" gradientUnits="userSpaceOnUse"><stop offset="0" stop-color="#f9f29b"/><stop offset="1" stop-color="#ffcd33"/></linearGradient><path fill="url(#p)" stroke="#CAC961" stroke-width=".25" d="M33.5 903.8c.4-.6 1.2-1 .3-2l-.3-.2c.1 0 .2.1.3.1 0-.1-.2-.3-.3-.4h.3c-.2-.1-.4-.3-.7-.2h.3c-.1-.1-.3-.1-.5-.1.1 0 .1-.1.2-.1-.4-.1-.8-.1-1.2-.1-.5-.1-1 0-1.5.1-.9.4-1.4 1.3-1.4 2 .1 1.5-.8 2.7-.3 4.2 1.1 3.5 5.6 3.8 9.6 3.9 0 0-.2-.2-.2-.3h.5c-.1-.1-.2-.3-.2-.5.3.1.5 0 .8.1-1-1 .7-2.9-1-3.9h.4c-.7-1.1-1.5-1.7-3.1-2 0-.1.2-.1.2-.2-.8-.3-1.5-.4-2.2-.4"/><linearGradient id="q" x1="313.783" x2="318.636" y1="903.459" y2="912.754" gradientTransform="matrix(-1 0 0 1 347.465 0)" gradientUnits="userSpaceOnUse"><stop offset="0" stop-color="#f9f29b"/><stop offset="1" stop-color="#ffcd33"/></linearGradient><path fill="url(#q)" stroke="#CAC961" stroke-width=".25" d="M32 905.5c.5 0 1 0 1.3.2 0 .1-.1.1-.2.2.4.1.6.2.8.5h-.5c1.1.6.9 1.7 1.2 2.6-.1 0-.3-.1-.4-.1-.1.3-.1.7 0 1-2.1.3-3.6 0-4.7-1.3-.9-1.1-1.4-2.9.3-3.4"/><path fill="none" stroke="#976732" stroke-width=".25" d="M33.4 911c-.1.1-.3.1-.4.2m.3-.5h-.4m2.4.3c-.1.2-.3.2-.4.1"/><path fill="#686869" stroke="#C8C830" stroke-width=".25" d="M30.1 901.1c.4.1.4.5.2.7-.2-.1-.4-.2-.5-.4.1-.1.3-.2.4-.3"/><path fill="#FFF" d="M30.3 901.3c.1 0 .2.1.1.1s-.2-.1-.1-.1"/><path fill="none" stroke="#FFF" stroke-width=".25" d="M32.5 901.1c-.1 0 .1-.1.1-.1m0 .2c.1 0 .2 0 .3-.1m-.7-.1l.1-.1m-.3-.1v-.1m1.6 1.4s-.1.1-.2.1m.2 0h-.2m.4.6c-.1 0-.2-.1-.2-.1m.1.4c-.1 0-.1 0-.1-.1m-4.4-.2c0 .1-.1.1-.2.2m.3.1s-.1.1-.1.2m-.1-.6h-.2m.2-.2c-.1 0-.1 0-.1-.1m5.2 1.5c-.1 0-.3 0-.4.1m.9 0c-.1 0-.3-.1-.4.1m-5.3.4h-.2m.1.2c-.1 0-.2 0-.2.1m.2.2c-.1 0-.2.1-.2.1m.4-.8c-.1 0-.2-.1-.3-.1m5.1 5.5c-.1 0-.2-.1-.2-.1m-.1.2c0-.1 0-.1 0 0m-.4 0c-.1-.1-.1-.1-.1-.2m-.2.2v-.2m-.3.3c0-.1-.1-.1-.1-.2m1.4-.3c-.1 0-.2-.1-.3-.1m.4-.1c-.1-.1-.1-.1-.2-.1m.5-1c-.1-.1-.2-.1-.3-.1m.5-.1c-.1 0-.2-.1-.4-.1m.4-.2h-.3m.2-.3h-.3m-5.3-1h-.2m.2.2c-.1 0-.2 0-.3.1m.4.2c-.1 0-.3 0-.4.1m.5-.8c0-.1-.2-.2-.3-.2m.4-.1s-.2-.1-.3-.2m5 3.1c-.1 0-.2 0-.3-.1m-.3.6l-.2-.2m-.7.7c-.1 0-.1-.1-.1-.2m1.7-2.4h-.2m-.3-1c-.1 0-.2 0-.3.1m-.1-.3c-.1 0-.2.1-.2.1m.1-.4c-.1 0-.2 0-.2.1m-1.7 3.6c-.1.1-.1.1-.1.2m-.2-.4c0 .1-.1.2-.1.3m-.1-.4c-.1.1-.1.1-.1.2m-.6-.8c-.1.1-.2.1-.3.1m.1-.3c-.1.1-.2.1-.3.1m-.2-.9c-.1 0-.2 0-.3.1m7.4-3h-.4m0-.1c-.1 0-.2 0-.3.1m1.6.5h-.4m.8.3c-.1-.1-.3-.1-.4-.1m1 .7c0-.1-.2-.1-.3-.1m.3.3c-.1-.1-.2-.2-.4-.2m.9 1.1c-.1-.1-.3-.2-.4-.2m.5.8l-.3-.3m.3.7c-.1-.1-.1-.2-.2-.3m-.2 2.8c-.1 0-.2-.1-.2-.1m-.1.1c-.1 0-.2-.1-.3-.2m.3.5c-.1 0-.2-.1-.2-.2m1-.6c-.1 0-.2 0-.3-.1m.1-.2c-.1 0-.2 0-.3-.1m.4-.2c-.1-.1-.2-.1-.3-.1m.4-.1c-.1-.1-.2-.1-.3-.1m.4-.4c-.1 0-.2-.1-.3-.1m.3-.2c-.1-.1-.2-.1-.3 0m-1.2 2.1c0 .1 0 .2.1.2m.4-3.3c.1 0 .2.1.2.2"/></g></switch></svg>
