<svg xmlns="http://www.w3.org/2000/svg" id="Capa_1" x="0" y="0" version="1.1" xml:space="preserve" viewBox="0 0 220 129"><style>.st4,.st5{fill:#b6a281;stroke:#9f8b6c;stroke-width:.25}.st5{fill:#9f8b6c}.st9{fill:#962529}.st11{fill:#f4ef80}.st12{fill:none}.st13,.st14{fill:#f7f5de}.st14{stroke:#3f2a1b;stroke-width:.3695}.st15{fill:#f6f0ca}.st22{fill:#dac3a7}.st23{fill:#877565}.st24{fill:#67584d}.st26{fill:#bca163;stroke:#bca163}.st32{opacity:7.000000e-02;fill:#090909;stroke:#090909}.st33{fill:#927f4f;stroke:#927f4f;stroke-width:2}.st34{opacity:.32;fill:#fff;stroke:#fff}.st40{fill:#d6792d}.st45{fill:#a6a47b}.st48{fill:#a2a07a;stroke:#a2a07a;stroke-width:.25}.st49{fill:#754b27}.st50{fill:#663e20}.st51,.st52{fill:#543f21}.st52{opacity:8.000000e-02}.st55,.st56{stroke-width:.3081;fill:#f1e8c0;stroke:#d5c572}.st56{fill:#dab787;stroke:#cca274}.st67,.st68{opacity:.19;fill:#131612}.st68{opacity:.25;stroke:#89aa69}.st78,.st79{opacity:.18;fill:#b6b6b6;stroke:#b6b6b6;stroke-width:.25}.st79{opacity:.25;fill:#131612;stroke:#89aa69}.st84{fill:#121213}.st91,.st92{fill:#bcb890;stroke:#bcb890;stroke-width:.25}.st92{fill:#dbb88b;stroke:#ba8e61}.st93{fill:#5a9fb8;stroke:#457781}.st94,.st95{fill:#a6cb84;stroke:#a6cb84;stroke-width:.25}.st95{fill:#4b8350}.st107{fill:#0d0d0e}.st113{fill:#fff}.st116{fill:#86ba50}.st117{fill:#74b352}</style><path fill="#d98046" d="M214.5 122.6l-11.6-7.3H74.5L57 122.6h157.5z"/><path fill="#bbff9d" d="M0 .1h219.2v128.1H0z"/><path fill="#f2db8a" d="M.3 73.1h218.9v55.1H.3z"/><path fill="#eed490" d="M.3 77.2h218.9v51.5H.3z"/><path d="M.5 73.5l218.4-.4.6 7.7L.3 79z" class="st4"/><path d="M0 80.2l219.2 1.3v-3.1L0 77.2z" class="st5"/><path fill="#7797fb" d="M0 128.2h6.3V0H0z"/><path fill="#a7cafc" stroke="#a7cafc" d="M6.6.5v125.9l79.5-46.7V.2L6.6.5z"/><path fill="#542" d="M202.6 39.7c0 .9-1 1.7-2.1 1.7h-59.2c-1.2 0-2.1-.7-2.1-1.7V7.8c0-.9 1-1.7 2.1-1.7h59.2c1.2 0 2.1.7 2.1 1.7v31.9z"/><g id="XMLID_58_"><path d="M179.5 10h15.8l.3 14.1h-16.1z" class="st9"/><path fill="#331c1c" d="M163.1 10h15.8v13.3h-15.8z"/><path d="M163.2 19.5h4.6l.3-9.5h-5z" class="st11"/><path d="M163.2 23.6v-4h4.6l.3-9.5h8.7v10s-1.2.1-3.3.1c-1.4 0-2.8 3.5-2.8 3.5l-7.5-.1z" class="st9"/><path d="M162.4 23.3v13.4h-15.8V23.3" class="st11"/><path d="M146.4 10h16v13.3h-16zm33.1 0h15.8v14.1h-15.8z" class="st12"/><path d="M146.6 23.3h15.8v13.3h-15.8z" class="st9"/><path d="M163.2 23.6H179v13.3h-15.8z" class="st11"/><path d="M179.8 24.1h15.8v13.3h-15.8z" class="st13"/><path d="M146.2 23.6c.4.1 4-1.5 5.2-3.3 1.2-1.7 1.2-3.8.9-5.7-.3-1.9-1.5-4.6-1.5-4.6h11.7l-.1 13.6h-16.2zm7.3 13.1s-.6-4.8 1.4-7.3c1.9-2.5 4.2-3.8 5.5-4.1 1.3-.2 2-.2 2-.2l-.1 11.7h-8.8z" class="st9"/><path d="M146.4 10h4.3s2 4.6 1.7 6.7c-.3 2.1-.8 4-2.4 5-1.7 1-3.6 1.1-3.6 1.1V10z" class="st12"/><ellipse cx="169.4" cy="12.8" class="st14" rx="4.3" ry="2.8"/><path d="M172.1 13c-.1.8-1.4 1.4-2.9 1.3-1.5-.1-2.7-.9-2.6-1.7.1-.8 1.4-1.4 2.9-1.3 1.6.1 2.7.9 2.6 1.7z" class="st9"/><path d="M195.6 24.1v-5s-5.7.8-6.1-3.2c-.4-4 5.1-2.7 5.7-2.7.6 0 .2-3.3.2-3.3h-11.8s-3.3 2.4-3 5.6c.3 3.2 3.1 5.3 5.7 6.4 2.4 1.1 9.3 2.2 9.3 2.2z" class="st15"/><path d="M146.4 10h4.3s2.2 5.3 1.7 7.1c-.5 1.8-.9 3.9-2.5 4.6-1.5.7-3.5 1.7-3.5 1.7V10z" class="st11"/><ellipse cx="190.5" cy="33.1" fill="#c7592d" stroke="#51321b" stroke-width=".739" rx="4.2" ry="3.5"/><path d="M162.4 24.1h-13.5v12.5h4.6s-1.1-4.2 1.2-7.1c2.3-2.9 3.8-3.7 4.8-4 1-.3 3-.6 3-.6l-.1-.8z" class="st11"/><path fill="#c7592d" d="M170.7 24.7l-1.2 12.1-3.9.1V24.7s.6-.6 2.6-.7c1.9-.1 2.5.7 2.5.7z"/><path d="M167.9 25l-1.3 11.9H163V25s0-.7 1.8-.9c1.8-.1 3.1 0 3.1 0v.9z" class="st9"/><path d="M179.9 32.7l.1 4.7h5.4s.6-3.9 0-5.3-3.6-4-3.6-4L180 27l-.1 5.7z" class="st15"/><path fill="#962529" d="M168.7 19.5l-2 17.4h2l6.2-10.2.6-6.7z" opacity=".27"/><path d="M168.8 36.9s-1.1-3.5 0-5.7c1.8-3.7 5.7-4.4 8-4.5.6 0 2.1-.2 2.1.5.1 3.6.1 9.7.1 9.7h-10.2z" class="st15"/><path d="M172.4 37.1s-1.5-6.3 3.7-6.3c4.1 0 3.2 6.3 3.2 6.3h-6.9z" class="st13"/><path d="M178.8 32.5s-1.3-2.4-3.3-1.7c-1.9.7-2.9 1.7-3.1 2.6-.2.9 0 3.7 0 3.7" class="st14"/><path fill="#603022" d="M174.3 37.1s-.8-3.3 1.9-3.3c2.1 0 1.7 3.3 1.7 3.3h-3.6z"/><ellipse cx="174.2" cy="22.8" rx="3.7" ry="2.8"/><radialGradient id="SVGID_1_" cx="771.365" cy="-398.43" r="4.734" gradientTransform="matrix(.7531 0 0 .623 -388.506 264.226)" gradientUnits="userSpaceOnUse"><stop offset=".012" stop-color="#c8272b"/><stop offset=".24" stop-color="#c8292b"/><stop offset=".323" stop-color="#ca302b"/><stop offset=".382" stop-color="#cc3c2c"/><stop offset=".43" stop-color="#cf4c2d"/><stop offset=".471" stop-color="#d4632e"/><stop offset=".507" stop-color="#d97d2f"/><stop offset=".527" stop-color="#dd9030"/><stop offset=".582" stop-color="#b3762b"/><stop offset=".641" stop-color="#8e5f27"/><stop offset=".703" stop-color="#6f4b23"/><stop offset=".768" stop-color="#563c21"/><stop offset=".836" stop-color="#45311f"/><stop offset=".91" stop-color="#3b2b1d"/><stop offset="1" stop-color="#38291d"/></radialGradient><path fill="url(#SVGID_1_)" stroke="#51321b" stroke-width=".739" d="M195.6 13.2c-.6-.3-1.3-.4-2.1-.4-2.4 0-4.3 1.4-4.3 3.2 0 1.8 1.9 3.2 4.3 3.2.7 0 1.5-.1 2.1-.4v-5.6z"/><path fill="#fffff8" d="M162.4 10h1v26.9h-1zm16.4 0h1v26.9h-1z"/><ellipse cx="190.6" cy="33.2" class="st14" rx="2.5" ry="2.1"/><ellipse cx="190.7" cy="33" class="st9" rx="1.6" ry="1.2"/></g><path d="M6.2 128.5l80-47.8v-6.6l-80 48.2z" class="st4"/><path d="M6.2 128.5v-2.8l80-47.1v2.1z" class="st5"/><path d="M75.6 69.9v8.9l1 1.9.7-10.8z" class="st22"/><path d="M76.3 80.8l-1-2.1v-9h2.3l-.7 11-.6.1zm-.4-2.1l.4.9.6-9.4h-1.1v8.5h.1z" class="st22"/><path d="M120.6 69.4s-.7 7.1-.7 8.4c0 1.2-.4 1.3 0 3s2.2 4.2 2.6 7c.4 2.8.2 5.3-.7 7.5-1 2.2-5.1 9-5.4 10.2-.2 1.2-1 3.2 0 3.9 1 .7 2.3.5 2.3.5l-.4-.6s-1.7-.7-1.6-1.9c.1-1.2 1.2-4 1.8-4.8.6-.9 1.7-3.4 2.6-4.4.9-.9 2.4-4.9 2.4-6 0-1 0-4.5-.2-5.6-.2-.8-2.2-4.6-2.4-5.9-.2-1.3.9-11.4.9-11.4h-1.2z" class="st23"/><path d="M118.2 110.1c-.6 0-1.4-.1-2.1-.6-.9-.6-.6-2.1-.3-3.4.1-.3.1-.5.2-.7.1-.7 1.5-3.2 3-5.8 1-1.8 2-3.6 2.4-4.5.9-2 1.1-4.3.7-7.4-.2-1.7-.9-3.2-1.6-4.5-.4-.9-.8-1.7-1-2.5-.2-1.1-.2-1.6-.1-2.1 0-.3.1-.5.1-1 0-1.2.7-8.1.7-8.4V69h1.7v.3c0 .1-1.1 10-.9 11.3.1.7.9 2.4 1.5 3.7.5 1 .9 1.9.9 2.2.2 1.2.2 5.2.2 5.6 0 1.1-1.6 5.1-2.5 6.1-.5.5-1.1 1.7-1.6 2.7-.4.7-.7 1.3-.9 1.7-.6.8-1.7 3.6-1.8 4.7-.1 1.1 1.4 1.7 1.4 1.7h.1l.6.9-.4.1c.2.1 0 .1-.3.1zm2.7-40.5c-.1 1.2-.7 7-.7 8.1 0 .5 0 .8-.1 1-.1.5-.1.9.1 2 .1.7.5 1.5.9 2.4.7 1.4 1.4 2.9 1.6 4.7.4 3.1.2 5.5-.7 7.6-.4.9-1.4 2.7-2.4 4.5-1.3 2.3-2.8 5-2.9 5.7 0 .2-.1.5-.2.7-.3 1-.6 2.5.1 2.9.5.4 1.2.4 1.6.4l-.1-.2c-.4-.2-1.8-.9-1.7-2.1.1-1.2 1.2-4 1.9-4.9.2-.3.6-1 .9-1.6.5-1 1.1-2.2 1.7-2.8.8-.9 2.4-4.9 2.4-5.8 0-1.6-.1-4.6-.2-5.6-.1-.3-.5-1.2-.9-2.1-.6-1.4-1.4-3-1.5-3.8-.2-1.2.6-9.6.8-11.2h-.6v.1z" class="st23"/><path d="M118.9 106.8s1.6.3 2.1 1.3 0 2.6 0 2.6l1.5-.8s.5-2-.9-3.1c-1.3-1-1.8-.5-1.8-.5l-.9.5z" class="st23"/><path d="M113.2 83.3s2.4 5.8 2.7 7.8c.2 2-.5 7.8-1.6 9.5-1.1 1.7-2.3 4.1-2.3 5.6 0 0 1 3.1 1.3 4.5.4 1.4 1 2.2 1 2.2l3.1.8s1.6-.3 1.5-.9c-.1-.6 1.8-1.5 1.8-1.5l.3-.6s.6-2.3-.3-3c-.9-.6-1.8-.9-1.8-.9s-1.3-.2-1.5.8c-.2 1 .9 1.7.9 1.7s-.4.8-.9.6c-.5-.2-1.8-1-1.5-2.7.4-1.7 1.4-4 1.9-4.8.5-.8 2-3.5 2.5-4.6.6-1.1 2-4.1 2.1-5.6.1-1.4.1-3.9-.2-5-.3-1.1-2.1-5.3-2.3-5.9-.2-.6.1-7 .1-7l.5-4.9h-6.3l-1 13.9zm-5.3.7s.5 3.1 0 4.7c-.5 1.5-1.9 7.4-2.2 8.4-.7 2.5 1.2 5.9 1.2 5.9h1.2s-1.6-2.9-1.2-4.8c.4-1.9 1.2-6.1 1.7-7.6s.7-5.4.7-5.4v-1.5l-1.4.3z" class="st24"/><path d="M108.2 103.2h-1.4l-.1-.1c-.1-.1-1.9-3.5-1.2-6 .1-.3.2-.9.4-1.8.6-2.2 1.4-5.6 1.7-6.7.5-1.5 0-4.5 0-4.6v-.2l2.1-.5v1.8c0 .2-.3 3.9-.7 5.5-.5 1.4-1.2 5.2-1.6 7.2l-.1.4c-.4 1.8 1.2 4.7 1.2 4.7l.2.3h-.5zm-1-.5h.6c-.4-.8-1.4-3.1-1.1-4.6l.1-.4c.4-2 1.2-5.8 1.7-7.2.5-1.5.7-5.3.7-5.4V84l-.8.2c.1.7.4 3.2 0 4.5-.3 1.1-1.2 4.4-1.7 6.6-.2.8-.4 1.5-.4 1.8-.8 2.1.5 4.9.9 5.6z" class="st24"/><path d="M110.5 98.1v-.6s-1.1-.7 0-1.1c1.1-.5 1.7.5 1.5.9-.2.4-1.9 4.4-1.9 4.4L109 103h-.8s-.8-1.5-1-2.4c-.2-.9-.1-2.9-.1-2.9s1.1-5.1 1.4-6.1c.3-1 .8-3.8.8-4.3s.2-2.9.2-2.9v-.6l3.2-.6s0 1.5-.7 4c-.7 2.6-2.2 5.9-2.1 5.9.1 0-.4 3-.4 3v2.3s-.4.5 0 .7c.3 0 1-1 1-1z" class="st23"/><path d="M109.1 103.2H108l-.1-.1c0-.1-.8-1.5-1-2.4-.2-.9-.2-2.9-.2-3 0-.2 1.1-5.2 1.4-6.2.3-1 .8-3.8.8-4.3s.2-2.9.2-2.9v-.8l3.8-.7v.3c0 .1 0 1.5-.7 4.1-.5 1.9-1.4 4.1-1.9 5.2l-.2.6c0 .3-.1.9-.4 3v2.4c-.1.1-.1.2-.1.3l.7-.7v-.4c-.2-.1-.5-.4-.5-.8 0-.3.2-.5.6-.7.7-.3 1.4-.2 1.7.3.2.3.3.6.1.9-.2.3-1.2 2.7-1.9 4.3v.1l-1.2 1.5zm-.7-.5h.4l1-1.2c.2-.5 1.7-4 1.9-4.4 0-.1 0-.2-.1-.4-.1-.1-.2-.2-.5-.2-.1 0-.3 0-.4.1-.2.1-.3.2-.3.3 0 .2.3.4.4.5l.1.1v.8c-.3.4-.8 1-1.3 1-.1 0-.2 0-.3-.1-.4-.2-.3-.7-.1-.9V96c.2-1 .4-2.7.4-3 0-.1 0-.2.3-.8.4-1.1 1.3-3.4 1.9-5.2.5-1.9.6-3.1.7-3.7l-2.6.5v.4c0 .1-.1 2.5-.2 3 0 .5-.6 3.4-.8 4.3-.3 1-1.3 6.1-1.4 6.1 0 0-.1 2 .1 2.9 0 .7.6 1.8.8 2.2zM82.2 84.6s-.6 2.9-1.2 5c-.6 2-1 6-1 7.3 0 1.3 2.2 8.4 2.3 10.3.1 1.9-2.3 6.4-2.3 6.4l-2.8 1.2s-1.1-.9-1.7-1.9c-.6-.9-.1-2.7.5-4.1.6-1.3 1.9-.5 1.9-.5l.1 1.4-.1.8s.6-.1 1.1-.8c.5-.7-.1-3.2-.5-4.5-.4-1.2-1.1-3.9-2-6.6-1-2.7-1-6.3-1-6.3-.1-2.7 1.9-8.2 2.7-10.1.7-1.9 0-2.9 0-2.9v-9.4h4.1l-.1 14.7z" class="st23"/><path d="M77.2 115.2l-.2-.1s-1.1-1-1.8-1.9c-.8-1.2.2-3.6.5-4.3.3-.7.9-.9 1.3-.9.6 0 1.1.3 1.1.3l.1.1.1 1.5-.1.4.5-.5c.4-.6-.1-2.9-.6-4.3-.1-.4-.3-1-.5-1.8-.4-1.4-.9-3.1-1.5-4.9-1-2.7-1-6.4-1-6.4-.1-2.6 1.8-8 2.7-10.2.7-1.8 0-2.7 0-2.8v-9.8h4.7l-.2 14.9c0 .1-.6 3-1.2 5s-1 5.8-1 7.3c0 .6.6 2.8 1.1 4.9.6 2.2 1.2 4.4 1.2 5.4.1 1.9-2.3 6.3-2.4 6.5v.1l-2.8 1.5zm-.1-6.8c-.1 0-.5 0-.7.6-.6 1.3-1.1 3-.5 3.9.4.7 1.2 1.4 1.5 1.7l2.5-1.1c.3-.6 2.4-4.5 2.3-6.2-.1-.9-.6-3.2-1.2-5.3-.6-2.2-1.1-4.3-1.1-5 0-1.5.4-5.4 1-7.4s1.2-4.9 1.2-5l.2-14.4h-3.5v9.1c.1.3.7 1.3 0 3.1-.8 2.2-2.8 7.5-2.7 10.1 0 0 0 3.6 1 6.3.6 1.8 1.1 3.5 1.5 4.9.2.7.4 1.3.5 1.8 0 0 1.2 3.6.5 4.6-.5.8-1.2.9-1.3.9l-.4.1.2-1.1-.1-1.3c-.4-.2-.6-.3-.9-.3z" class="st23"/><path fill="#a99582" d="M67.8 62.9s-.5.9 0 .9c1.9.1.9 1.9.9 2.2 0 .5.5.4 1.4 1.1.9.7 1 .2.1.9-.3.2.3.2-.2.4-.3.1.1 1 .1 1s2.3.2 4.6.6c1.3.2 2.3.6 2.3.6s5-.3 7.1-.6c2-.2 13.1 0 14.7 0 1.6 0 13.3-.4 14.8-.4h11.1s3.8-1 3.8-1.1c0-.1.2-.7-.3-.8-.9-.2-2.5.4-3.3-.3-.4-.3-1.6-1.3-2.3-1.5-.7-.2-4.8-1.7-4.8-1.7l-.6-.8-46.6-1-2.8.5z"/><path d="M68.1 63s1.4.4 1.4.9c0 .4-.9 1.1 0 1.8s1.9 1 1.9 1.6c0 .3-.6.6-1.1.7-.3.1-.6.1-.6.1s2.2.8 4.7.8c1.3 0 2.2.5 2.2.5s5-.3 7.1-.6c2-.2 13.1 0 14.7 0 1.6 0 13.3-.4 14.8-.4h11.1l4-.8s-2.6-.4-3.7-1.4c-.4-.3-1.6-1.3-2.3-1.5-.7-.2-4.8-1.7-4.8-1.7l-.6-.8-46.1.2-2.7.6z" class="st22"/><path d="M77.1 70.5l-.5 10.2s-2.7 6.9-2.9 8.9c-.1 2 1.2 7.8 1.6 9.9.4 2.1 1.4 3.7 1.8 4.7.4 1 .6 2.8.7 3.1.1.3.2 1.1.2 1.1v2.3s.6-.2.8-.5c.3-.3.5-1.3.4-1.8-.1-.4-1.2-4.7-1.5-6-.4-1.3-1.7-5-1.9-6.6-.2-1.6-.3-3.7.2-6.2s1.7-6 1.7-6 1.4-1.9 1.1-2.3c-.3-.4-.6-2-.6-2v-9.4l-1.1.6z" class="st24"/><path d="M77.7 111v-2.6c0-.2-.1-.8-.2-1-.1-.1-.1-.4-.2-.9-.1-.7-.3-1.6-.5-2.2-.1-.3-.3-.6-.4-1-.4-.9-1.1-2.2-1.3-3.7-.1-.5-.2-1.2-.4-2-.6-2.7-1.3-6.4-1.2-8 .1-2 2.6-8.4 2.9-8.9l.5-10.3 1.8-.9v9.8c.1.6.4 1.6.6 1.9.3.4-.5 1.8-1.1 2.5-.1.3-1.2 3.6-1.7 5.9-.4 1.9-.5 4-.2 6.2.1 1.2.9 3.7 1.5 5.3.2.5.3.9.4 1.2.4 1.2 1.5 5.6 1.6 6 .1.4-.1 1.5-.5 1.9-.3.4-.9.6-1 .6l-.6.2zm-.3-40.4l-.5 10.2c0 .1-2.7 6.9-2.9 8.8-.1 1.5.7 5.4 1.2 7.9.2.8.3 1.5.4 2 .3 1.5.9 2.7 1.3 3.6.2.4.3.7.5 1 .2.6.4 1.6.6 2.3.1.4.1.8.2.8.1.3.2 1.1.2 1.2v1.9c.1-.1.2-.1.3-.2.2-.3.4-1.2.4-1.6 0-.4-1.1-4.7-1.5-6-.1-.3-.2-.7-.4-1.2-.5-1.7-1.3-4.2-1.5-5.4-.3-2.2-.2-4.3.2-6.3.5-2.4 1.7-6 1.7-6v-.1c.7-.9 1.2-1.9 1.1-2.1-.4-.4-.7-1.9-.7-2v-9l-.6.2z" class="st24"/><path d="M75.6 107.8h1l.6.3s-1.4.6-1.6 1.7c-.2 1.1 0 3.1 0 3.1l-1.9-1.4s-.9-1.5 0-2.3c.9-.8 1.9-1.4 1.9-1.4z" class="st24"/><path d="M73.7 69.8v5.6s-2.4 3.4-2.5 6.3c-.2 2.9.9 4.4 1.3 6.8.4 2.4 1.3 4 1.3 4s-.1-2.7.1-3.6c.2-.9 1.8-5.7 1.8-5.7l.9-2.3-1-2v-8.8l-1.9-.3z" class="st23"/><path d="M73.3 99.3s.2.6.8.9l.6.3.6-.9-1-.5-1 .2z" class="st24"/><path d="M77.1 104.2h-1.5l-1.3-.6s-2.2-3.3-2.5-3.9c-.3-.6-1.1-2.2 0-2.5 1.1-.3 2.5.9 2.5.9v.9l-1 .3.8.9 1.2.3 1.8 3.7z" class="st24"/><path d="M74.9 97.2l-1.6-.6-1.5.7 1.5.2 1 .7h1z" class="st23"/><path d="M80.1 85.8V69.9h19.7c7.4 0 17.6-.6 17.6-.6l-.9 15.5s-1.7-1.9-3.9-1.8c-2.2.1-9.7 2.2-12.5 2.4-2.9.2-10.1-1.4-13.3-1.6-3.5-.3-6.7 2-6.7 2z" class="st22"/><path d="M79.8 86.4V69.7h20c7.3 0 17.5-.6 17.6-.6h.3l-.9 16.4-.5-.6s-1.7-1.8-3.6-1.7c-1 0-3 .5-5.3 1-2.8.6-5.7 1.3-7.3 1.3-1.7.1-5-.4-8.1-.9-2.1-.3-4-.6-5.3-.7-3.4-.3-6.5 2-6.5 2l-.4.5zm.6-16.2v15.1c1.1-.7 3.7-2 6.5-1.8 1.3.1 3.2.4 5.3.7 3.1.5 6.2 1 7.9.9 1.5-.1 4.5-.7 7.1-1.3 2.2-.5 4.4-1 5.4-1 1.6-.1 2.9.8 3.6 1.4l.8-14.6c-1.8.1-10.7.5-17.3.5H80.4v.1z" class="st22"/><path d="M83.7 83.3v-11h16.2c6 0 14.4-.4 14.4-.4l-.7 10.8s-1.4-1.3-3.2-1.3c-1.8.1-7.9 1.6-10.3 1.6-2.4.1-8.3-1-10.8-1.2-2.9-.1-5.6 1.5-5.6 1.5z" class="st23"/><ellipse cx="99" cy="77.2" class="st26" rx="1.4" ry="1.1"/><ellipse cx="113" cy="33.1" fill="#d7c091" stroke="#d7c091" rx="6.4" ry=".5"/><ellipse cx="113" cy="45.4" fill="#d7c091" stroke="#ecd9b0" rx="14.8" ry="1"/><path fill="#a48e59" d="M106.8 64.4c.3-.5 2.9-1.7 3.2-1.9.4-.1 5.8 0 6.4.3.6.3 2.4 1.2 2.4 1.5 0 .3-3.9 1-5.6 1-2-.1-4.6-.3-5.2-.5-.5-.2-1.2-.4-1.2-.4z"/><path fill="#947e4a" d="M119.2 64.5s.3.2.3.5.3.4-.5.6c-.8.2-4.1.6-5.9.6-1.8 0-4.6-.3-5.3-.5-.7-.2-1.3-.5-1.3-.5l.1-1s5.4 1.1 6.8 1c1.4-.1 3.6-.5 4.2-.6.6-.2 1.2-.3 1.2-.3l.4.2z"/><path fill="none" stroke="#927f4f" stroke-width="2" d="M108.3 63.7s1.9.9 4.3.8c2.4-.1 4.6-.4 4.9-.6"/><path d="M118.9 65.7c.1-.4-.8-.9-1.2-1.1.8-1.2 2.6.8 1.3 1.2" class="st32"/><path d="M111.2 44.3s1 1.4.7 2.3c-.3.8-.7 2.2-.7 3.3 0 1.2.8 2.4.8 2.4s-.1-.3-.4.5c-.3.8.7 2.5.4 2.9-.3.4-.8 1.1-.8 1.1s-.7.4-.7 1.3.8 1.4.8 1.4 1.1.7.8 1c-.4.3-.7 1.4-.7 1.4l-.8.5v1.1s-.2.4 2.1.5c2.3.1 3.1-.5 3.1-.5v-.6l-.8-.3-.1-.7s-.5-.2-.6-.5c-.1-.4.2-1.7.2-1.7l.5-.8s.3-1.3.1-1.5c-.2-.3-.9-1.6-.9-1.6l.2-2.7-.5-.6s1-.5 1-1.7-.2-2.2-.6-2.8c-.3-.6-.5-2.2-.5-2.6v-.9l-2.6-.2z" class="st26"/><path d="M111.4 62.1s.6.2 1.4.1c.9-.1 1.6-.3 1.6-.3" class="st33"/><path d="M110.1 66.1v-1.2c.1-.5.6-.9 1.2-1.2.3-.1.6-.2.8-.4.2-.2.2-.4.3-.7 0-.2-.1-.4-.1-.6 0-.2.1-.4.1-.6 0-.4.3-.8.2-1.3-.1-.4-.2-.9-.2-1.3 0-.2.1-.4.1-.6 0-.2-.1-.4 0-.7 0-.4.4-.8.3-1.2 0-.2-.2-.5-.5-.3-.2.1-.4.5-.5.7-.4.4-.8.8-1 1.3-.1.5 0 .8.4 1.2.4.4.9.8.9 1.3 0 .2-.2.4-.3.6-.2.2-.4.5-.6.7-.2.2-.4.3-.5.5 0 .2.1.5-.1.6-.2.1-.7.2-.9.3-.4.1-.6.3-.8.5-.5.3-1.3.5-1.7.9-.2.2-.4.5-.3.8.2.3.7.4 1.1.5.5.1 1.4.2 2.1.2 0-.2-.1-.5 0-.7m2.1-12.8c.7-.4.1-1.3-.1-1.8-.1-.6.1-1.2.1-1.8 0-.7-.3-1.3.5-1.9.9-.8.9.7 1.8 1-.2-.5-.5-.8-.6-1.3v-1.5c0-.6 0-1-.8-1.2-.5-.1-1.5 0-1.9.2.5.6.6 1.5.5 2.3-.2.8-.7 1.5-.6 2.4.1.8.1 1.6.1 2.3 0 .2.1.4.2.6.1.3.4.4.5.6.2.3 0 .8.2 1.1.5-.3-.1-.9.5-1.1" class="st32"/><path d="M111.2 59.3c1.1 0 2.1.1 3.2 0-.1.6-2.8.6-3 .2m.4-7c.7 0 1.2-.1 1.9-.2" class="st33"/><path d="M113.6 58c0-.9.4-1.6.2-2.4-.1-.4-.3-.8-.2-1.2.1-.5.6-.9.3-1.3-.1-.1-.5 0-.5-.2s.3-.4.5-.3c.3.6.5.8.3 1.4-.2.6-.4 1-.2 1.6.2.5.7 1 .8 1.5.1.3-.7 1-1.2.9" class="st32"/><path d="M114.9 62.7c-1.3 0-2.5.3-3.9 0" class="st33"/><path d="M113.1 48c.2.1.3.2.5.3-.1.4.3.7.3 1.1.1.4-.2.8-.1 1.2.7-.2.2-1.2 0-1.6-.2-.6-.2-1.1-.4-1.7-.1.3-.2.5-.3.7m.3 8.7c-.6-.3 0-1.3 0-1.7 0-.1-.2-.4-.2-.5 0-.1.2-.3.2-.5s-.3-.8-.4-1c0 .3-.1.5-.1.8 0 .4.2.7.2 1 .1.6-.2 1.3.2 1.9" class="st34"/><path d="M114.6 59c-.1-.1-.2-.2-.3-.2-.1.2-.2.4-.5.3-.7 1.1-.8-1.1-.7-1.5.4.2.6.5.5.9.6.1.3-.6.8-.5.6 0 .2.7.2 1" class="st32"/><path d="M111.4 57c.7.5 2.6.3 3.5 0 .5.9-.6.7-1.5.7-.6 0-2.5 0-2.4-.8" class="st33"/><path d="M113 60.2v.8c.2-.2.3-.3.3-.5-.1.4.4.4.5.1 0 .1.2.3.3.4.2-.3-.1-.6-.1-.9-.2.1-.5.1-.8.1" class="st34"/><path fill="#ecd9b0" stroke="#ecd9b0" d="M106.7 33s3.7.6 6.1.6c2.4 0 6.7-.6 6.7-.6l8.3 12.6s-5-.9-14.8-1.1c-11.5-.3-14.6 1.3-14.9 1.1-.3-.3 8.6-12.6 8.6-12.6z"/><path fill="#c2c2cd" d="M48.7 97.2l-7.9 6.2 47.4.1 7.2-6.1z" opacity=".54"/><path fill="#c6c1d7" d="M49.1 97.5v5.7l-7.9-.1 8-6.3"/><path fill="#bd8e60" stroke="#bd8e60" stroke-width=".25" d="M96.8 96.7l-7.8 6.7-6.3.4 7.6-6.5z"/><path fill="#a9753f" stroke="#d6a66f" stroke-width=".25" d="M90.3 97.3l-7.2 6.4-6.6-.3 8-6.3z"/><ellipse cx="46.7" cy="88.3" class="st40" rx=".8" ry=".6"/><ellipse cx="46.7" cy="88.3" class="st40" rx=".6" ry=".5"/><ellipse cx="46.7" cy="88.3" class="st40" rx=".4" ry=".3"/><path fill="none" stroke="#e5a964" stroke-width=".25" d="M58.6 82l-5.1 3.5"/><ellipse cx="56.7" cy="86.4" class="st40" rx=".8" ry=".6"/><path d="M57.3 86.3c0 .3-.3.5-.6.5s-.6-.2-.6-.5.3-.5.6-.5c.4.1.6.3.6.5z" class="st40"/><ellipse cx="56.7" cy="86.3" class="st40" rx=".4" ry=".3"/><ellipse cx="56.4" cy="80.3" class="st40" rx=".8" ry=".6"/><ellipse cx="56.3" cy="80.2" class="st40" rx=".6" ry=".5"/><ellipse cx="56.3" cy="80.2" class="st40" rx=".4" ry=".3"/><path fill="#baa28a" stroke="#baa28a" stroke-width=".25" d="M49.2 82.5V95l-5.3 4.1V86.3z"/><ellipse cx="47.1" cy="94.4" class="st40" rx=".8" ry=".6"/><path d="M47.7 94.4c0 .3-.3.5-.6.5s-.6-.2-.6-.5.3-.5.6-.5.6.2.6.5z" class="st40"/><ellipse cx="47" cy="94.3" class="st40" rx=".4" ry=".3"/><ellipse cx="46.7" cy="88.3" class="st40" rx=".8" ry=".6"/><ellipse cx="46.7" cy="88.3" class="st40" rx=".6" ry=".5"/><ellipse cx="46.7" cy="88.3" class="st40" rx=".4" ry=".3"/><circle cx="45.7" cy="74.2" r=".2" fill="#92bf4e"/><path fill="#cdcaad" stroke="#cdcaad" stroke-width=".25" d="M76.8 46s4 1.6 4.6 10.9c.7 9.3.7 13 0 14.2-.7 1.3-2.1 12.4-2.1 12.4l-8.2 1.6s-3.3-6.5-7.6-8.8c-4.3-2.3-12.3-2.1-12.3-2.1H32.9s-1.3-13.7-2.1-18.9c-.8-5.1-.6-9.3-.6-9.3h46.6z"/><path d="M81.9 69.6h40.4s-5 4.9-6.6 8.3c-1.7 3.4-3 11.7-3 11.7h-2s-4.7-3.4-16.3-4.4c-11.6-1-15-1.6-15-1.6v-7.3c-.1-1.6 2.5-6.7 2.5-6.7z" class="st45"/><path fill="#cdc7a4" stroke="#cdc7a4" stroke-width=".25" d="M70.8 92.4s37.9-2.9 39.9-2.9-10.7-3.9-16.3-4.4c-5.6-.5-15-1.6-15-1.6l-6.1 1.2-2.7.4.2 7.3z"/><path fill="#a6a47b" stroke="#a6a47b" stroke-width=".25" d="M70.5 113.4l40.4-7-.2-16.9-39.9 2.9z"/><path d="M122.5 69.8l1.5 2.4s-4.3 2.1-6.6 11.4-2.7 21.5-2.7 21.5l-3.8 1.3-.2-16.8 4-15.3 7.8-4.5z" class="st48"/><path d="M36 105.2v11.3h-5.8v-13z" class="st49"/><path d="M40.1 106.4l-1.9 7-2.2 3.1v-11.3z" class="st50"/><path d="M60.3 112.2l1.5 13.3h4.3v-12.1z" class="st49"/><path d="M107.1 107l3.6 9.5h3.6l.4-11.4zm-41 18.5l3-3.8 1.4-8.3h-4.4z" class="st50"/><path d="M102.3 107.9l3.7 5.5 2.3 3.1h2.4l-3.6-9.5z" class="st49"/><ellipse cx="48.6" cy="58.3" class="st51" rx="1.4" ry="1.1"/><path d="M47.9 58.1c.4-1.5 1.4-3.6 3.4-4.2.1 1.3-1.3 2.7-1.4 4.2-.1 1.4 1.5 4 1.4 5.5-1.3-.4-1.8-3.2-3.2-4.1-1.8-1.3-3.6.7-5.2 1 .7-1.6 3.8-2.4 5.5-3.3" class="st52"/><ellipse cx="73.1" cy="58" class="st51" rx="1.4" ry="1.1"/><path d="M72.4 57.8c.4-1.5 1.4-3.6 3.4-4.2.1 1.3-1.3 2.7-1.4 4.2-.1 1.4 1.5 4 1.4 5.5-1.3-.4-1.8-3.2-3.2-4.1-1.8-1.3-3.6.7-5.2 1 .7-1.6 3.8-2.4 5.5-3.3" class="st52"/><ellipse cx="73.6" cy="75.1" class="st51" rx="1.4" ry="1.1"/><path d="M72.9 75c.4-1.5 1.4-3.6 3.4-4.2.1 1.3-1.3 2.7-1.4 4.2-.1 1.4 1.5 4 1.4 5.5-1.3-.4-1.8-3.2-3.2-4.1-1.8-1.3-3.6.7-5.2 1 .7-1.6 3.8-2.4 5.5-3.3" class="st52"/><path d="M52.3 77.2c0 .6-.6 1.1-1.4 1.1-.8 0-1.5-.5-1.5-1.1 0-.6.6-1.1 1.5-1.1.8 0 1.4.5 1.4 1.1z" class="st51"/><path d="M50.2 77.1c.4-1.5 1.4-3.6 3.4-4.2.1 1.3-1.3 2.7-1.4 4.2-.1 1.4 1.5 4 1.4 5.5-1.3-.4-1.8-3.2-3.2-4.1-1.8-1.3-3.6.7-5.2 1 .7-1.6 3.8-2.4 5.5-3.3" class="st52"/><path d="M30.2 74.3h19.7l4-.5-21 .5z" class="st48"/><ellipse cx="48.6" cy="100.4" class="st45" rx=".7" ry=".6"/><path d="M49.4 98.8c0 .4-.5.8-1 .8-.6 0-1-.4-1-.8s.5-1.6 1-1.6 1 1.2 1 1.6zm1.6 1.5c-.5.2-1.1 0-1.4-.4-.2-.4 0-.9.5-1.1.5-.2 2-.4 2.3 0 .2.5-.9 1.3-1.4 1.5zm-1.6 1.9c-.4-.3-.4-.8 0-1.1.4-.3 1.1-.3 1.4 0 .4.3 1.1 1.4.7 1.7-.4.3-1.7-.3-2.1-.6zm-2.6-1c.3-.4 1-.4 1.4-.2.5.3.6.7.2 1.1-.3.4-1.5 1.1-2 .8-.4-.2.1-1.3.4-1.7zm.2-1.9c.5.1.8.6.7 1-.2.4-.7.7-1.3.5-.5-.1-1.8-.8-1.6-1.2.2-.4 1.7-.4 2.2-.3z" class="st45"/><path fill="#020202" stroke="#020202" stroke-width=".308" d="M94 110.6c.5.3 1.6.5 2.2.7.9.3 1.7.6 2.5.9 1.4.5 3.2.1 4.7.3 1.7.3 3.6.3 4.6 1.5.4.5.8 1.2.5 1.8-.1.3-.4.6-.5.9-.2.5-.1.5-.8.6-1.4.2-3.3 0-4.7-.2-1.6-.3-3.2-.3-4.8-.5-1.6-.2-3.2-.2-4.8-.2-1.5 0-3.3.3-4.8.1-3-.4-.5-2.7.5-3.7.3-.4.8-.8 1.2-1.1.3-.2.9-1 1.2-1.1.3-.1 1.1.2 1.5.2.5 0 1 0 1.5-.2m-13.7 4.3c.4.6 1.4 1.1 2 1.7.7.7 1.5 1.2 2.1 2 .4.6.9 1.3 1.6 1.7.7.4 1.9.6 2.1 1.3.3 1.1-3.5.9-4.4 1-1.5.2-3.3.8-4.8.5-.8-.1-1.6-.3-2.4-.5-.9-.2-1.4-.7-1.9-1.3-1-1.1-2.3-2.3-1.5-3.6.3-.6.8-1.2 1.2-1.8.3-.4 1.3-1.4 1.8-1.3.3.1.7.4 1.1.4.4.1.8.1 1.2 0 .7-.1 1.8-1 2.1-.2"/><path fill="#40599b" stroke="#304077" stroke-width=".308" d="M87.5 77.2c3.3 11.6 16.8 12.3 16.6 18.7 0 2.1-6.4 7.3-7.3 14.3-.3 2.7-3.4 2.6-9.8 1.9 0 0 5.2-10.5 4.4-17-.4-3.3-3.8-4.7-5.6-3.1-1.1 1.1 4.2 2 4.4 4 .3 4.1-5.5 18.6-11.2 20.4-12.5 3.9 0-10.7.3-14 .7-7.3-14.3-5.7-15.9-13-1.2-5.7 11.2-15.1 17.9-15.3 4.7-.1 4.5.4 9.3 0 .1 2.5-1.9 1.4-.9 3.8"/><path d="M81 69.5l6.7 5.9-6 3.5-5.5-8.3.3-10.2 5.6-5-1 13.8" class="st55"/><path d="M84.5 80.5c.3 2 .4 3.4 3.3 3.5 0-1.8.7-7.3 4.4-4.3 2.8 2.2-1.6 3.1-2.6 4.7 4.4 6.1 9.2.3 8.5-3.7-.7-4.1-10.3-6.5-12.9-1.9" class="st56"/><path d="M82.4 80.3l5.4-3.6-.2-1.8-5 3.6z" class="st55"/><path d="M81.4 79.1s2.6-2.2 3.2-2.4c.6-.2 3-1.7 3-1.7s.3-.1.7 1c.4 1-2 2.4-2 2.4l-3.1 2.2-1.8-1.5zm.5-.5l1.7 1.5m-.9-2.1l1.5 1.6m-.6-2.3l1.5 1.8m-.5-2.4l1.3 1.8m-.2-2.5l1.2 1.9m-.1-2.4l1 1.6m-.4-2.1l.7 1.3" class="st55"/><path d="M80.1 84.4c1.6-.4 3.2-.9 4.3-2.1 1.1-1.2 1.4-2.8 1.7-4.3.1-.7.3-1.5.1-2.2-.4-1.6-2-2.5-3.4-3.3-1.3-.8-.6-1.8-1.5-3.1s-.3-3 .1-4.5c.2-.7 1.3-7.3 1.4-10-.6-.1-3.1.1-3.7.2-1 .1-2.1 0-3.2-.1-3-.4-6-.8-8.9-1.2-1.2-.2-2.5-.2-3.3.6-.4.5-.5 1.2-.6 1.8-1.1 6.9-2.2 14-.8 20.9.8 4.1 4.4 3.5 7.2 5.7 3.2 2.6 6.8 2.5 10.6 1.6z" class="st55"/><path d="M67.7 82.2s-1.2 3.5.7 3.7c1.9.2 7.2.3 9.2.4 1.7.1 4.2.5 6.2.2 1.8-.3 3.5-.2 4.9-.4 1.4-.2 2.7-.1 3.3-.1.6 0 .7-1.7.7-2.1 0-.5-.5-1.6-.5-1.6s-7.8 1.8-10.4 1.9c-2.7.1-6.2-.3-7.7 0s-4.6-.8-4.6-.8l-1.8-1.2zm.6.5l-.2 3.1m3-2.1l-.2 2.3m-.7-2.5l-.1 2.5m2.2-2.1l-.4 2.1m1.1-2l-.2 2.1m1.4-2l-.2 2m1.2-2.2l-.2 2.2m1.2-2.1l-.2 2.1m1-2.1l-.2 2.2m1.3-2.2l-.3 2.2m1.4-2.2l-.3 2.3m1.1-2.2l-.2 2.3m1.3-2.3l-.3 2.3m1.2-2.3l-.2 2.3m1-2.4l-.2 2.5m1-2.6l-.3 2.5m1.2-2.6l-.3 2.6m1.2-2.8l-.3 2.6m1-2.8l-.3 2.8m1.4-3.1l-.2 3.1m1.3-3.2l-.2 3.1m1.2-3.4l-.2 3.3m1.1-3.3v3.1m.7-3.3l.1 3.3m.6-3.5l.3 3.4" class="st55"/><path d="M61.5 58.4l-6.4 15.5 12.7 17.2 1.5-5.1-6.7-10.1 3-15.2-1.6-2.2z" class="st55"/><path d="M69 88.6c7.7-6.7 17.1-1.8 16.4 5.1-.1 1.2-4.4-3.1-8.1-2.8-3 .2-7.4-.9-8.6-1.3-1.4-.5-1.3.8-.6-.3" class="st56"/><path d="M69.4 92.3l1.7-5.3-1.5-1.4-1.4 5.2z" class="st55"/><path d="M67.7 91.8s.5-3 .7-3.4c.3-.5 1.1-2.8 1.1-2.8s.2-.2 1.3.5.1 2.8.1 2.8l-.9 3.2-2.3-.3zm.1-.6l2.4.4m-2.3-1.3l2.5.6m-2.3-1.6l2.6.8m-2.3-1.7l2.5.9m-2-1.9l2.4 1m-1.9-2l1.9.9m-1.8-1.5l1.5.7" class="st55"/><linearGradient id="SVGID_2_" x1="2169.678" x2="2171.484" y1="-646.236" y2="-646.236" gradientTransform="matrix(-.9028 1.203 1.111 .8471 2770.194 -2017.053)" gradientUnits="userSpaceOnUse"><stop offset="0"/><stop offset="1" stop-color="#d1582d"/></linearGradient><path fill="url(#SVGID_2_)" stroke="#743f24" stroke-width=".308" d="M93.1 47.4c-.7-.6-.6-1.4-.2-2.2-1 .7-1 1.8-.6 2.7-1.3-.7-1.2-.4.1-.1"/><g stroke-width=".25"><path fill="#5c934d" stroke="#5c934d" d="M119.3 52.8l-2.8.5 5.2.3 2.2-.5z"/><path fill="#66a752" stroke="#66a752" d="M120.9 57.8v-4.2l-4.4-.3V57z"/><path fill="#71b052" stroke="#66a752" d="M123.9 53.1v4.1l-3 .6v-4.2z"/></g><path fill="#40413f" d="M101.3 62.3c-.6-.2-.4.1-.7.2-.4.2-.9.5-1.3.7-.8.3-1.7.5-2.6.8-1.7.5-3.5 1-5.2.2.7.4 1.4.6 2.1 1 .8.4.9.9 1.5 1.4 1.5-.9 5.9-2.8 6-4.4" opacity=".03"/><linearGradient id="SVGID_3_" x1="3346.693" x2="3356.587" y1="64.398" y2="64.398" gradientTransform="matrix(-1 0 0 1 3447.957 0)" gradientUnits="userSpaceOnUse"><stop offset="0" stop-color="#f9ebc4"/><stop offset=".23" stop-color="#f4e4b6"/><stop offset=".661" stop-color="#e9d092"/><stop offset="1" stop-color="#debf71"/></linearGradient><path fill="url(#SVGID_3_)" d="M101.3 62.3c-.6-.2-.4.1-.7.2-.4.2-.9.5-1.3.7-.8.3-1.7.5-2.6.8-1.7.5-3.5 1-5.2.2.7.4 1.4.6 2.1 1 .8.4.9.9 1.5 1.4 1.5-.9 5.9-2.8 6-4.4"/><linearGradient id="SVGID_4_" x1="3344.94" x2="3362.589" y1="55.986" y2="55.986" gradientTransform="matrix(-1 0 0 1 3447.957 0)" gradientUnits="userSpaceOnUse"><stop offset="0" stop-color="#f9ebc4"/><stop offset=".23" stop-color="#f4e4b6"/><stop offset=".661" stop-color="#e9d092"/><stop offset="1" stop-color="#debf71"/></linearGradient><path fill="url(#SVGID_4_)" d="M103 55.6s-1-9.9-10.9-8c-9.8 1.9-6.2 6.5-5.9 8 .3 1.5 1.8 5.6 2.9 6.7 1.1 1.1 3.9 2.5 5.7 2.3 1.8-.2 4.3-1.1 5.6-1.5 1.3-.4 2.5-2.6 2.5-2.6v-4.9z"/><path fill="#ffff71" stroke="#ffff71" stroke-width=".25" d="M106.6 64.1c1.2.4 2.7 1.8 3.9 1.8 0 1.2 2.3 4.6 4.3 3.2-.9 2.4-4.7 1.6-6.4 3.1-1.6 1.4-2.3 4.1-2.7 5.9-.7 2.6 1.4 3.8 3.1 5.8.8.9.9 1.7 1.3 2.7.7 1.7 1.1 1.2 2.2.1 2.3-2.4 5.1.5 3.9 2.6-.5 1-1.5 1.7-2.1 2.6-.6.9-.9 2.3-2.6 2.5-1.7.3-1.9-1-3-1.5-.3-.2-1.4-.1-1.8-.2-.7-.1-1.3-.4-2-.6-1.3-.4-2.2-.4-3.5-.6-1.4-.2-2.5-1-3.9-1.2-.9-.1-2-.3-2.9-.3-1 0-1.9.8-2.9.4-.9-.3-1.2-1.1-2.3-1.4-.9-.3-2.2-.6-3.1-.6-1.9.1-4 2-5.9 2.5-1.1.3-2.1.7-3.2 1.1.4-.2-2.1 1.5-1.5.9-.6.5-.5.2-1.2.8-.8.7-1.8 1.3-3.1.9-1.4-.5-1.7-2.2-2-3.2-.3-1-1.3-2.7.6-3.1 2.4-.6 1.7 1.9 3.4 1.5.6-3.5 6.1-5.1 9.4-6.9.9-.5 2.2-1 2.8-1.7.6-.7.5-1.5.7-2.3.1-.4.5-.7.4-1.1-.2-.7-.3-.4-.9-.8-.8-.6-1.6-1-.3-1.8-.4.5-.7 1-.6 1.6-.7-.3-.1-.7-.4-1.1-.6-.6-2.1-.4-2.6-1.2-.4-.6 0-1.8.2-2.4.4-1.6 1-3.4 2-4.9.5-.7 1.1-1.3 2-1.6.6-.2 2.1-.9 2.6-1 1-.2 1.7.5 2.6.9 1.2.5 1.5.5 1.9 1.4 1.3-.6 2.6-1.3 3.9-2 1.3-.7 1.8-1.3 2.7-2.2-.7.8 6.9 1.3 7 1.4z"/><linearGradient id="SVGID_5_" x1="3359.448" x2="3362.414" y1="59.504" y2="59.504" gradientTransform="matrix(-1 0 0 1 3447.957 0)" gradientUnits="userSpaceOnUse"><stop offset="0" stop-color="#f9ebc4"/><stop offset=".23" stop-color="#f4e4b6"/><stop offset=".661" stop-color="#e9d092"/><stop offset="1" stop-color="#debf71"/></linearGradient><path fill="url(#SVGID_5_)" d="M87.2 58c-.4-.3-1-.4-1.5-.4-.7 1.5 1.1 2.8 2.6 3.7.2-.1.2-.2.2-.3"/><linearGradient id="SVGID_6_" x1="3342.645" x2="3345.079" y1="57.607" y2="57.607" gradientTransform="matrix(-1 0 0 1 3447.957 0)" gradientUnits="userSpaceOnUse"><stop offset="0" stop-color="#f9ebc4"/><stop offset=".23" stop-color="#f4e4b6"/><stop offset=".661" stop-color="#e9d092"/><stop offset="1" stop-color="#debf71"/></linearGradient><path fill="url(#SVGID_6_)" d="M102.9 55.9c.8.6 1.1-.7 2.1-.4.5.2.3 1.2.3 1.5-.1.7-1.4 3.3-2.2 2.6"/><path d="M94.6 89.7c-.3-.4.5-2.2-.3-3-1-1-3-.7-3.1-2.3 0-.9.7-1.1 1.1-1.7.3-.5.2-1 .2-1.6 0-.5-.1-1.1 0-1.6.2-.7.8-.9 1-1.4.5-1-.3-2.3-.4-3.3 0-.5 0-1.1.1-1.6s.8-1.1.8-1.5c.1-.8-.7-.9-.9-1.5-.2-.5.1-1.1.1-1.5 0-.4-.2-1.3.1-1.6.5-.5 1.2-.2 1.8-.5 0 0-.9-.3-1 .8-.1 1.1 0 1.3 0 1.9 0 .6 1.7 1.8 1 2.6-.6.8-.9 1.5-1 2.1-.1.6-.4 2.3 0 2.7.4.4.1 1.8 0 2.1-.1.3-.6.9-.7 1.6-.1.7.8 1.9-.2 2.1-1 .2-1.3.8-.8 1.5s1.6.1 1.7 1.4c.1 1.3 1.2 2.2 1.2 2.2l.6 1.8-1.3.3zm12.9-12.9c-.3-1-.6-2.1-1-3.1-.5-1.2-.4-1.9-.4-3.2 0-1.4-.7-2-1.4-3.2-.6-.9-.5-2.1-.5-3.1-1 1.6-.3 4.6.4 6.1.8 1.9.6 4.9 2.7 6.2.2-.1.2-.3.1-.6" class="st67"/><path d="M109.8 70.6c-.1.1-1.9-1.7-2.3-2.3-1.2.8 1.1 1.7 1.6 2.3" class="st68"/><path d="M85.7 72.9c-.5-1.2.7-2.7-.8-3.6-.8.5-1 3.7.4 3.8m13.4 15.1c-.2-1.6 1.6-3.8 3.6-4.2 1.9-.5 4.2-.4 6.1-1-1.4-1.2-5 .5-6.4.9-2 .6-5.3 1.9-4 4" class="st67"/><path fill="#131612" stroke="#bcd7a6" stroke-width=".25" d="M91.5 87.4c.7-1.6-.9-5.9-3.9-5.5 2.2.9 3.8 3.5 3.5 5.4l.4.1z" opacity=".25"/><path d="M111.4 85.7c-1.5-.3-3.2-.7-4.8-.5.6.5 1.7.2 2.5.3.9.1 1.8.4 2.6.6" class="st68"/><linearGradient id="SVGID_7_" x1="3323.325" x2="3335.834" y1="62.107" y2="62.107" gradientTransform="matrix(-1 0 0 1 3447.957 0)" gradientUnits="userSpaceOnUse"><stop offset="0" stop-color="#f9ebc4"/><stop offset=".23" stop-color="#f4e4b6"/><stop offset=".661" stop-color="#e9d092"/><stop offset="1" stop-color="#debf71"/></linearGradient><path fill="url(#SVGID_7_)" d="M116.5 68.4c.7-1 1.5-1.9 1.7-3.1.2-1.2 0-2.4 0-3.6 0-1.5.5-2 2.3-2.5 1.2-.3 4-.2 4.1-1.7-.1-.1-.3-.2-.5-.2-.1.1-.2.2-.2.3-.1-.3.1-1.5-.6-1.6-.8-.1-.4 1.4-1.3 1.7-.5-.6 1.2-2.3-.5-2.4-.1.1-.2.2-.2.3-.2-.1-.5 0-.8 0 0 .6-.5 1.4-1.3 1.6-1.4.3-1.1-.4-1.1-1.2-.9 0-.5.9-.7 1.4-.4.8-1.4 1-2 1.7-1 1-2 2.7-2.6 3.9-.5 1.1-1.2 2.7-.5 3.9.4.6 4.3 3.2 4.2 1.4"/><path fill="#a3c484" stroke="#a3c484" stroke-width=".25" d="M84.8 74.5c.3 1.1 1.9 1.5 1.8 2.7-.9-.3-3.6-4.2-4.8-2.2-.5-1 2.7-.9 3.1-.2"/><linearGradient id="SVGID_8_" x1="3367.709" x2="3369.113" y1="75.951" y2="75.951" gradientTransform="matrix(-1 0 0 1 3447.957 0)" gradientUnits="userSpaceOnUse"><stop offset="0" stop-color="#f9ebc4"/><stop offset=".23" stop-color="#f4e4b6"/><stop offset=".661" stop-color="#e9d092"/><stop offset="1" stop-color="#debf71"/></linearGradient><path fill="url(#SVGID_8_)" d="M79.9 75.5c-.1.3-.1.7 0 1.1-1.3.3-1.5-1.5.4-1.3.1.1 0 .2-.2.3"/><path fill="#f0dd78" stroke="#f0dd78" stroke-width=".25" d="M86.5 77.3l-3.9.7-2.4-2.7 3.2-.6z"/><path fill="#eecb34" stroke="#eecb34" stroke-width=".25" d="M81.1 80.5l1.5-2.5 3.9-.7-1.5 2.6z"/><path fill="#f1d54e" stroke="#f1d54e" stroke-width=".25" d="M79 78.9l2.1 1.6 1.5-2.5-2.4-2.7z"/><linearGradient id="SVGID_9_" x1="3368.393" x2="3370.191" y1="78.675" y2="78.675" gradientTransform="matrix(-1 0 0 1 3447.957 0)" gradientUnits="userSpaceOnUse"><stop offset="0" stop-color="#f9ebc4"/><stop offset=".23" stop-color="#f4e4b6"/><stop offset=".661" stop-color="#e9d092"/><stop offset="1" stop-color="#debf71"/></linearGradient><path fill="url(#SVGID_9_)" d="M78.1 78.2c.7 0 1.2.5 1.5 1-.7.1-2.5-.5-1.5-1"/><linearGradient id="SVGID_10_" x1="3367.528" x2="3369.343" y1="77.653" y2="77.653" gradientTransform="matrix(-1 0 0 1 3447.957 0)" gradientUnits="userSpaceOnUse"><stop offset="0" stop-color="#f9ebc4"/><stop offset=".23" stop-color="#f4e4b6"/><stop offset=".661" stop-color="#e9d092"/><stop offset="1" stop-color="#debf71"/></linearGradient><path fill="url(#SVGID_10_)" d="M79.4 77.1c-.3.7.8.5 1.1 1.1-1 .4-2.5-.5-1.4-1.1.2.1.3.2.4.3"/><path d="M121.7 55.8c-.5.6-1 1.4-1.5 2 .7 0 1.6-1.3 1.8-1.8" class="st78"/><path d="M101.3 64.7c-.8 1.1-2.7 1.4-3.3 2.4 1.5.5 2.5-1.3 3-2.1m-8.4 4.9c-1.1 1.1-2.4 2.6-4.4 2.9 1.3.2 2.5.1 3.6-.7 1.3-1 1.6-1.1 1.1-2.5-.2.1-.3.2-.4.3" class="st67"/><path d="M87.5 74.2c1.2 0 2.2.1 3.1-.7.1.2.1.5 0 .7-1.3 0-1.9.5-3.3 0" class="st68"/><path d="M89.2 78c.9-.1 2-.2 2.8-.4.1-.3.1-.7 0-1-1.4.1-1.8 1.4-3.2 1.2m.5 3.7c.7-.1 2.5-.2 3.1.3-.7.3-1.1.8-1 1.6-.3-.1-.7-.4-.9-.6.5-.2.4-.4.6-.5-1-.1-2.1-.7-2.7-1.3.5.2.9.4 1.3.7" class="st79"/><path d="M97.4 86.6c0-.5 0-1-.1-1.4-1.1-.2-1.2 1.9-.5 2.3-.8-.5-2-2.1-.4-2.6 1.4-.5 2 1.4 1.7 2.1-.2 0-.4 0-.5-.2" class="st67"/><path d="M121 58.4c.4-.3 1-.5 1.4-.5-.2.5-.9.6-1.5.6" class="st78"/><path d="M110.2 68.1c0-.9 1.1-1.6 1.7-2.3-.9.1-1.7 1.4-1.7 2.1" class="st79"/><path d="M108.3 67.5c.2-.7.8-1.4 1.5-1.9-1.2.2-1.6.8-1.5 1.8" class="st68"/><path d="M109.2 72.9c-.1-1-1.5-1.7-1.3-2.8-.2.7-.5 2.6.9 2.6" class="st67"/><path d="M109.5 86.5c-1.4 0-2.4-.4-3.5.5 1 .5 2.2-.5 3.3-.4" class="st68"/><path d="M87.6 73.6c0-.6-.3-1.2 0-1.9.4-.7 1.6-1 1.8-1.7-1.1-.1-2.6.4-3.1 1.2-.5.9.2 1.7.6 2.5" class="st67"/><linearGradient id="SVGID_11_" x1="3359.432" x2="3360.427" y1="59.813" y2="59.813" gradientTransform="matrix(-1 0 0 1 3447.957 0)" gradientUnits="userSpaceOnUse"><stop offset="0" stop-color="#f9ebc4"/><stop offset=".23" stop-color="#f4e4b6"/><stop offset=".661" stop-color="#e9d092"/><stop offset="1" stop-color="#debf71"/></linearGradient><path fill="url(#SVGID_11_)" d="M88.3 59.2c-.2-.1-.4-.1-.6-.1-.5.6 0 1.1.8 1.3.1-.3 0-.5-.3-.7"/><linearGradient id="SVGID_12_" x1="3342.814" x2="3344.38" y1="56.69" y2="56.69" gradientTransform="matrix(-1 0 0 1 3447.957 0)" gradientUnits="userSpaceOnUse"><stop offset="0" stop-color="#f9ebc4"/><stop offset=".23" stop-color="#f4e4b6"/><stop offset=".661" stop-color="#e9d092"/><stop offset="1" stop-color="#debf71"/></linearGradient><path fill="url(#SVGID_12_)" d="M103.7 56.3c1.1-.5 1.6.4 1.4 1.1.1-.9-.4-2.1-1.5-.9"/><linearGradient id="SVGID_13_" x1="3361.005" x2="3361.88" y1="58.811" y2="58.811" gradientTransform="matrix(-1 0 0 1 3447.957 0)" gradientUnits="userSpaceOnUse"><stop offset="0" stop-color="#f9ebc4"/><stop offset=".23" stop-color="#f4e4b6"/><stop offset=".661" stop-color="#e9d092"/><stop offset="1" stop-color="#debf71"/></linearGradient><path fill="url(#SVGID_13_)" d="M87 58.6c-.5 0-.1.6-.5.9-.4-.4-.5-1.1 0-1.5.2 0 .4.2.4.3"/><path d="M93.6 87.9l-4.1.3-2.3-.7 3.2-.1z" class="st12"/><ellipse cx="92.1" cy="57.4" class="st84" rx=".4" ry=".5"/><path d="M96.4 56.8c.1.3.4.4.6.4.2 0 .3-.3.2-.6-.1-.3-.4-.4-.6-.4-.2.1-.3.3-.2.6z" class="st84"/><linearGradient id="SVGID_14_" x1="-23503.373" x2="-23532.66" y1="-4434.645" y2="-4434.645" gradientTransform="matrix(.1529 -.0104 .0092 .1783 3728.147 607.463)" gradientUnits="userSpaceOnUse"><stop offset="0" stop-color="#c31871"/><stop offset="1" stop-color="#fbf4cb"/></linearGradient><path fill="url(#SVGID_14_)" d="M89.2 61.5c.1.9 1.1 1.6 2.3 1.5 1.2-.1 2.2-.8 2.1-1.8 0-.9-1.1-1.6-2.3-1.5-1.2.1-2.1.9-2.1 1.8z" opacity=".08"/><linearGradient id="SVGID_15_" x1="23090.408" x2="23061.385" y1="10554.212" y2="10554.212" gradientTransform="matrix(-.1502 .0353 -.0305 -.175 3888.059 1092.68)" gradientUnits="userSpaceOnUse"><stop offset="0" stop-color="#c31871"/><stop offset="1" stop-color="#fbf4cb"/></linearGradient><path fill="url(#SVGID_15_)" d="M102.4 59.9c-.2-.9-1.3-1.4-2.6-1.2-1.2.2-2 1.1-1.8 2 .2.9 1.4 1.4 2.6 1.2 1.1-.2 2-1.1 1.8-2z" opacity=".08"/><path fill="none" stroke="#e8c081" stroke-width=".25" d="M94 58.8c.1-.6 1.3-1 1.9-.3"/><path d="M107.2 78.5c-1 1.3-3.3 2-5.2 1.8 2.6.3 3-1.6 5-2.1" class="st68"/><path fill="#a3c484" d="M93.9 78.3c0-1.1-.8-3.1-.3-3.8.1 1.2.7 2.6.3 3.8"/><path fill="#e8c081" stroke="#dea866" stroke-width=".25" d="M91.8 60.8s1.5 1.2 4.4.8c2.7-.4 3.7-1.7 3.7-1.7s-2.3 2.5-3.6 2.7c-1.4.3-4.5-1.8-4.5-1.8z"/><path fill="#c36b8a" d="M96.9 62c-.4-.2-3-.4-3 .3 0 .2 1.2.5 1.5.5.6 0 1.2-.3 1.4-.7" opacity=".24"/><path d="M68.7 88.9c7.7-6.7 17.1-1.8 16.4 5.1-.1 1.2-4.4-3.1-8.1-2.8-3 .2-7.4-.9-8.6-1.3-1.4-.5-1.3.8-.6-.3" class="st56"/><path d="M26 48.7s4.3-4.4 4.7-1.6c1 7.7 2.3 27.5 2.3 27.5h-5.3L26 48.7z" class="st91"/><ellipse cx="28.4" cy="57.3" class="st45" rx=".4" ry=".3"/><path d="M28.8 56.4c0 .2-.2.4-.6.4-.3 0-.6-.2-.6-.4s.3-.9.6-.9c.4.1.6.7.6.9zm.9.8c-.3.1-.6 0-.7-.2-.1-.2 0-.5.3-.6.3-.1 1.1-.2 1.2 0 .1.3-.5.7-.8.8zm-.8 1.1c-.2-.2-.2-.4 0-.6.2-.2.6-.2.8 0 .2.2.6.8.4.9-.3.2-1-.1-1.2-.3zm-1.5-.6c.2-.2.5-.2.8-.1.3.1.3.4.1.6-.2.2-.8.6-1.1.5-.2-.1.1-.8.2-1zm.2-1c.3.1.5.3.4.5-.1.2-.4.4-.7.3-.3-.1-1-.4-.9-.7 0-.2.9-.2 1.2-.1z" class="st45"/><ellipse cx="29.7" cy="69.7" class="st45" rx=".4" ry=".3"/><path d="M30.1 68.9c0 .2-.2.4-.6.4-.3 0-.6-.2-.6-.4s.2-.9.6-.9c.4 0 .6.6.6.9zm.9.8c-.3.1-.6 0-.7-.2-.1-.2 0-.5.3-.6.3-.1 1.1-.2 1.2 0 .1.2-.5.7-.8.8zm-.8 1c-.2-.2-.2-.4 0-.6.2-.2.6-.2.8 0 .2.2.6.8.4.9-.3.2-1-.1-1.2-.3zm-1.5-.5c.2-.2.5-.2.8-.1.3.1.3.4.1.6-.2.2-.8.6-1.1.5-.2-.2 0-.8.2-1zm.1-1.1c.3.1.5.3.4.5-.1.2-.4.4-.7.3-.3-.1-1-.4-.9-.7.1-.1 1-.1 1.2-.1z" class="st45"/><path d="M30.2 103.8l34.3 9.8s.3-25.1 0-26.7c-.3-1.6-1-6-5.7-8-4.7-2.1-9-4.4-9-4.4H27.6l2.6 29.3z" class="st91"/><ellipse cx="35.8" cy="80.2" class="st45" rx=".8" ry=".6"/><path d="M36.5 78.6c0 .4-.5.8-1 .8-.6 0-1-.4-1-.8s.5-1.6 1-1.6c.6 0 1 1.1 1 1.6zm1.6 1.5c-.5.2-1.1 0-1.4-.4-.2-.4 0-.9.5-1.1.5-.2 2-.4 2.3 0 .2.4-.9 1.3-1.4 1.5zM36.6 82c-.4-.3-.4-.8 0-1.1.4-.3 1.1-.3 1.4 0 .4.3 1.1 1.4.7 1.7-.4.3-1.8-.3-2.1-.6zm-2.7-1c.3-.4 1-.4 1.4-.2.5.2.6.7.3 1.1-.3.4-1.5 1.1-2 .8-.5-.2 0-1.4.3-1.7z" class="st45"/><path d="M34.2 79.1c.5.1.8.6.7 1-.2.4-.7.7-1.3.5-.5-.1-1.8-.8-1.6-1.2.1-.5 1.6-.5 2.2-.3z" class="st45"/><ellipse cx="42.1" cy="90.2" class="st45" rx=".8" ry=".6"/><path d="M42.9 88.6c0 .4-.5.8-1 .8-.6 0-1-.4-1-.8s.5-1.6 1-1.6 1 1.1 1 1.6zm1.6 1.4c-.5.2-1.1 0-1.4-.4-.3-.4 0-.9.5-1.1.5-.2 2-.4 2.3 0 .2.5-.9 1.3-1.4 1.5zm-1.6 1.9c-.4-.3-.4-.8 0-1.1.4-.3 1-.3 1.4 0 .4.3 1.1 1.4.7 1.7-.4.3-1.7-.2-2.1-.6zm-2.6-1c.3-.4 1-.4 1.4-.2.5.3.6.7.3 1.1-.3.4-1.5 1.1-2 .8-.5-.2-.1-1.3.3-1.7zm.2-1.9c.5.1.8.6.7 1-.2.4-.7.7-1.3.5-.5-.1-1.8-.8-1.6-1.2.1-.4 1.7-.4 2.2-.3z" class="st45"/><ellipse cx="51" cy="81.9" class="st45" rx=".8" ry=".6"/><path d="M51.7 80.3c0 .4-.5.8-1 .8-.6 0-1-.4-1-.8s.5-1.6 1-1.6c.6.1 1 1.2 1 1.6zm1.6 1.5c-.5.2-1.1 0-1.4-.4-.2-.4 0-.9.5-1.1.5-.2 2-.4 2.3 0 .2.5-.9 1.3-1.4 1.5zm-1.6 1.9c-.4-.3-.4-.8 0-1.1.4-.3 1.1-.3 1.4 0 .4.3 1.1 1.4.7 1.7-.3.3-1.7-.3-2.1-.6zm-2.6-1c.3-.4 1-.4 1.4-.2.5.3.6.8.3 1.1-.3.4-1.5 1.1-2 .8-.5-.2 0-1.3.3-1.7z" class="st45"/><path d="M49.4 80.8c.5.1.8.6.7 1-.2.4-.7.7-1.3.5-.5-.1-1.8-.8-1.6-1.2.1-.4 1.6-.4 2.2-.3z" class="st45"/><ellipse cx="56.1" cy="92.9" class="st45" rx=".8" ry=".6"/><path d="M56.9 91.3c0 .4-.5.8-1 .8-.6 0-1-.4-1-.8s.5-1.6 1-1.6 1 1.2 1 1.6zm1.6 1.5c-.5.2-1.1 0-1.4-.4-.2-.4 0-.9.5-1.1.5-.2 2-.4 2.3 0 .2.5-.9 1.3-1.4 1.5zm-1.6 1.9c-.4-.3-.4-.8 0-1.1.4-.3 1.1-.3 1.4 0 .4.3 1.1 1.4.7 1.7-.4.3-1.7-.3-2.1-.6zm-2.6-1c.3-.4 1-.4 1.4-.2.5.3.6.7.2 1.1-.3.4-1.5 1.1-2 .8-.4-.2.1-1.3.4-1.7zm.2-1.9c.5.1.8.6.7 1-.2.4-.7.7-1.3.5-.5-.1-1.8-.8-1.6-1.2.2-.4 1.7-.4 2.2-.3z" class="st45"/><ellipse cx="35.1" cy="96.4" class="st45" rx=".7" ry=".6"/><path d="M35.8 94.8c0 .4-.5.8-1 .8-.6 0-1-.4-1-.8s.5-1.6 1-1.6c.6 0 1 1.1 1 1.6zm1.6 1.4c-.5.2-1.1 0-1.4-.4-.2-.4 0-.9.5-1.1.5-.2 2-.4 2.3 0 .2.5-.9 1.3-1.4 1.5zm-1.5 1.9c-.4-.3-.4-.8 0-1.1.4-.3 1.1-.3 1.4 0 .4.3 1.1 1.4.7 1.7-.4.3-1.8-.2-2.1-.6zm-2.7-1c.3-.4 1-.4 1.4-.2.5.3.6.8.3 1.1-.3.4-1.5 1.1-2 .8-.5-.2 0-1.3.3-1.7z" class="st45"/><path d="M33.5 95.2c.5.1.8.6.7 1-.2.4-.7.7-1.3.5-.5-.1-1.8-.8-1.6-1.2.1-.4 1.6-.4 2.2-.3zm25.7 10.5c0 .3-.3.6-.7.6-.4 0-.8-.3-.8-.6s.3-.6.8-.6c.4 0 .7.3.7.6zm0-1.6c0 .4-.5.8-1 .8-.6 0-1-.4-1-.8s.5-1.6 1-1.6c.6 0 1 1.1 1 1.6zm1.6 1.5c-.5.2-1.1 0-1.4-.4-.2-.4 0-.9.5-1.1.5-.2 2-.4 2.3 0 .2.5-.9 1.3-1.4 1.5zm-1.5 1.9c-.4-.3-.4-.8 0-1.1.4-.3 1.1-.3 1.4 0 .4.3 1.1 1.4.7 1.7-.4.3-1.7-.3-2.1-.6zm-2.7-1c.3-.4 1-.4 1.4-.2.5.3.6.7.3 1.1-.3.4-1.5 1.1-2 .8-.4-.2 0-1.4.3-1.7z" class="st45"/><path d="M56.9 104.6c.5.1.8.6.7 1-.2.4-.7.7-1.3.5-.5-.1-1.8-.8-1.6-1.2.1-.4 1.7-.5 2.2-.3z" class="st45"/><path d="M70.5 113.7h-6V87s.8-3.7-2.9-6.2c-5.5-3.7-11.7-6.2-11.7-6.2s4.6-1 7.6 0 12.3 4.6 13 9.7c.7 5 0 29.4 0 29.4z" class="st48"/><ellipse cx="46.6" cy="100.1" class="st45" rx=".7" ry=".6"/><path d="M47.3 98.5c0 .4-.5.8-1 .8-.6 0-1-.4-1-.8s.5-1.6 1-1.6c.6.1 1 1.2 1 1.6zm1.6 1.5c-.5.2-1.1 0-1.4-.4-.2-.4 0-.9.5-1.1.5-.2 2-.4 2.3 0 .3.5-.9 1.3-1.4 1.5zm-1.5 1.9c-.4-.3-.4-.8 0-1.1.4-.3 1.1-.3 1.4 0 .4.3 1.1 1.4.7 1.7-.4.3-1.7-.3-2.1-.6zm-2.7-1c.3-.4 1-.4 1.4-.2.5.3.6.7.2 1.1-.3.4-1.5 1.1-2 .8-.3-.2.1-1.3.4-1.7z" class="st45"/><path d="M45 99c.5.1.8.6.7 1-.2.4-.7.7-1.3.5-.5-.1-1.8-.8-1.6-1.2.1-.4 1.7-.4 2.2-.3z" class="st45"/><path d="M140.8 89.4c-3.6.8-6.3 2-10.2 2.1 2 1.9 7.5.5 9.7-1m2.5-4.6c.8.5 1 1.4 2 1.9.7.4 2.4.5 3.2.7 2.2.5 3.8.3 6.1.5m-2.6 16.9l.3 2.6 3 2.8.3-3.8-.6-.2 1.2-1.7zm-6.6-.9v3.7h3.2V105h-3.2z" class="st92"/><path d="M138.6 99.1s4.3 6 4.6 6.6c.3.6 5.8 0 5.8 0l.9-1.7" class="st93"/><path d="M139.2 99.2s6.8 4.9 8.9 5.8c2.1.9 7.3 1.4 7.6.6l.6-1.6 1.2-4-18.3-.8z" class="st93"/><path d="M136.8 116.6s6.6-.8 7.3-1.3c.7-.5.9-7.4.9-7.4h3.2v8.6c0 .7-3.8.7-5.1.7h-4.5c-1.2 0-1.8-.6-1.8-.6z" class="st94"/><ellipse cx="147.6" cy="115.5" class="st95" rx=".6" ry=".4"/><ellipse cx="147.3" cy="114.5" class="st95" rx=".4" ry=".3"/><ellipse cx="148" cy="114" class="st95" rx=".3" ry=".2"/><ellipse cx="147.3" cy="113.6" class="st95" rx=".3" ry=".2"/><circle cx="148.1" cy="113.2" r=".2" class="st95"/><path d="M145 108.8h3.2l.1-.5H145zm0 .8h3.2l.1-.5H145z" class="st95"/><path fill="#f1e956" d="M142.3 88.4s-5.4 9.5-5.4 10.1c0 .6 8.4 1.6 10.9 1.6 2.4 0 12.9.2 13.5-.3.6-.5-3.4-8.7-3.8-9.8-.4-1.1-1.4-1.2-1.3-1.3.3-.2-5-.6-6.5 0-2.8 1-7.4-.3-7.4-.3z"/><path fill="#5a9fb8" stroke="#5a9fb8" d="M157.8 91.3c0 .8-17.5-.4-17.5-.4m-2.4 5.4s23.3 1.2 23.3.4"/><path d="M150.2 119.6s5.2-2.6 5.6-3.4c.3-.7-3.3-7.5-3.3-7.5l2.8-.9s4.4 7.8 4.8 8.5c.4.7-2.9 1.8-3.9 2.1-1.1.4-2.7.9-3.9 1.3-1.3.3-2.1-.1-2.1-.1z" class="st94"/><path d="M159.3 115.3c.1.2 0 .5-.2.6-.3.1-.6 0-.7-.3-.1-.2 0-.5.2-.6.2-.1.5 0 .7.3zm-1-.9c.1.2 0 .3-.2.4-.2.1-.4 0-.5-.2-.1-.2 0-.3.2-.4.2 0 .4 0 .5.2zm.2-.6c.1.1 0 .2-.1.3-.1 0-.3 0-.3-.1-.1-.1 0-.2.1-.3.1-.1.3 0 .3.1zm-.7-.2c.1.1 0 .2-.1.3-.1 0-.3 0-.3-.1-.1-.1 0-.2.1-.3 0-.1.2 0 .3.1zm.3-.6c.1.1 0 .2 0 .2-.1 0-.2 0-.2-.1-.1-.1 0-.2 0-.2.1-.1.2 0 .2.1zm-5.2-3.4l2.8-.9-.3-.6-2.8 1zm.4.7l2.8-.9-.3-.5-2.8.9z" class="st95"/><path fill="#d5ac80" stroke="#ba8e61" stroke-width=".25" d="M144.5 87.1c-.8-.1-2 .3-1.9 1.2.1.7 1.8.7 2.5.7 1.6.1 3.8 0 5.2-.6-1.9-.2-3.7-.2-5.4-1.1"/><path fill="none" stroke="#000" stroke-width=".25" d="M139 84.4c1.2.5 2.3.6 3.3 0"/><path fill="#dbb889" stroke="#c19164" stroke-width=".085" d="M138.1 67s-3.4 5.1-3.7 6.7c-.3 1.6-1 3.5-1.9 5.5-.3.6-1.6 2.2-1.7 2.8-.6 3.2 2.3 3.7 5.4 4.9 3 1.2 7.5 1.7 9.4 2 2.8.4 16.3.7 18.2.1 1.9-.6 3.3-2.8 4-3.6.8-1 .6-1.4.6-1.4-1-2.2-7.1-5.9-10.7-8.8-4.2-3.3-7.7-7.1-11.2-7.6-3.7-.6-8.4-.6-8.4-.6z"/><linearGradient id="SVGID_16_" x1="276.214" x2="283.425" y1="194.12" y2="194.12" gradientTransform="matrix(-1.4101 -.2175 -.1524 .9883 576.308 -45.71)" gradientUnits="userSpaceOnUse"><stop offset="0" stop-color="#c91b72"/><stop offset="1" stop-color="#fbf4cb"/></linearGradient><path fill="url(#SVGID_16_)" d="M157.3 85.9c-.4 1.9-2.9 3.1-5.7 2.8-2.8-.4-4.8-2.2-4.5-4.1.4-1.9 2.9-3.1 5.7-2.8 2.8.4 4.8 2.2 4.5 4.1z" opacity=".13"/><linearGradient id="SVGID_17_" x1="266.216" x2="271.675" y1="290.928" y2="290.928" gradientTransform="matrix(-1.0812 -.7349 -.9179 .6957 691.708 77.353)" gradientUnits="userSpaceOnUse"><stop offset="0" stop-color="#c91b72"/><stop offset="1" stop-color="#fbf4cb"/></linearGradient><path fill="url(#SVGID_17_)" d="M130.9 80.1c-1.4 1.1-1.2 2.9.5 4 1.6 1.1 4.1 1.1 5.4.1 1.4-1.1 1.2-2.9-.4-4-1.7-1.2-4.1-1.2-5.5-.1z" opacity=".13"/><linearGradient id="SVGID_18_" x1="139.957" x2="139.957" y1="256.844" y2="256.844" gradientTransform="matrix(1.6844 .2599 -.1525 .9883 -50.3 -220.93)" gradientUnits="userSpaceOnUse"><stop offset="0" stop-color="#cc4952"/><stop offset="1" stop-color="#de9832"/></linearGradient><path fill="#f4f4f4" d="M134.7 68.3s9.3-2.5 12.9-2.1c3.6.4 9.8 3.8 9.9 3.9.2.1-.5 0-.8 0-.3-.1-6.5-2.9-7.4-3.2-.9-.3-1.5-.5-1.7-.5-.2 0-1 .2-1.6.4-.6.2-1.6.7-2.1.9l-1.6.8c-.4.2-.8.2-2.1.2-1.2-.2-5.5-.4-5.5-.4z" opacity=".14"/><path d="M128.2 70.5c1.7 1 5.7.6 7.9 1.1 3 .6 6.1 1.1 9.1 1.8 6.4 1.5 11.8 3.3 16.2 7.1m-21.7.4c-1-1.7 1.9-1.7 2.2-.1" class="st12"/><path fill="none" stroke="#a66330" stroke-width=".255" d="M139.7 81.4c.4-1.6 2.1-.6 2.3.6"/><path d="M147.5 79.2c-.1.4-.5.7-1 .6-.5-.1-.8-.4-.7-.9.1-.4.5-.7 1-.6.4.1.8.5.7.9zm-10.6-2c-.1.4-.5.7-1 .6-.5-.1-.8-.4-.7-.9.1-.4.5-.7 1-.6.4.1.7.5.7.9z" class="st107"/><path d="M147.1 79.1c-.1.4-.5.7-1 .6-.5-.1-.8-.4-.7-.9.1-.4.5-.7 1-.6.4.1.7.5.7.9zm-10.7-2c-.1.4-.5.7-1 .6-.5-.1-.8-.4-.7-.9.1-.4.5-.7 1-.6.5.1.8.5.7.9z" class="st107"/><linearGradient id="SVGID_19_" x1="-325.165" x2="-317.391" y1="1080.281" y2="1080.281" gradientTransform="rotate(32.379 1668.222 1417.745)" gradientUnits="userSpaceOnUse"><stop offset="0" stop-color="#d0562c"/><stop offset=".186" stop-color="#983f20"/><stop offset=".391" stop-color="#622915"/><stop offset=".581" stop-color="#38170c"/><stop offset=".752" stop-color="#190a05"/><stop offset=".898" stop-color="#070301"/><stop offset="1"/></linearGradient><path fill="url(#SVGID_19_)" d="M167.3 69.9c1.6-3.3 2.3-5.4 1-9.1 3 2.1 3.2 9.1-.8 10.7 1.5-.9 2.3-2.2 3.3-3.4 2.6 1.6-1 4-2.7 5"/><linearGradient id="SVGID_20_" x1="133.808" x2="171.628" y1="72.934" y2="72.934" gradientUnits="userSpaceOnUse"><stop offset="0" stop-color="#d0562c"/><stop offset=".186" stop-color="#983f20"/><stop offset=".391" stop-color="#622915"/><stop offset=".581" stop-color="#38170c"/><stop offset=".752" stop-color="#190a05"/><stop offset=".898" stop-color="#070301"/><stop offset="1"/></linearGradient><path fill="url(#SVGID_20_)" d="M145.9 68c-.1 5.1-7.8 4.1-12 3.3-1.3-6.9 12.7-12 19.4-11.5 3.9.3 8.7 3.3 11.7 5.2 3.4 2.2 5.8 5.5 6.4 9 .5 3.3.2 6.8-2.1 9.6-1 1.2-3 3.8-4.6 1.5-.8-1.2 1.6-3.6 1.5-5-.4-3.1-5.6-6.8-8.2-8.9-3.2-2.6-7.8-5.6-12.4-3.3"/><linearGradient id="SVGID_21_" x1="133.422" x2="171.086" y1="72.797" y2="72.797" gradientUnits="userSpaceOnUse"><stop offset="0" stop-color="#d0562c"/><stop offset=".186" stop-color="#983f20"/><stop offset=".391" stop-color="#622915"/><stop offset=".581" stop-color="#38170c"/><stop offset=".752" stop-color="#190a05"/><stop offset=".898" stop-color="#070301"/><stop offset="1"/></linearGradient><path fill="url(#SVGID_21_)" d="M158.1 82.2c1.3-.6 3.5-3.2 5.2-2.6 2.1.8.3 4.3 1.6 5.2 4.5 3 6.3-6.6 6.1-8.6-.9-8.4-9.2-14.5-18.5-15.8-4.2-.6-8.9.9-12.6 2.5-4.2 1.8-10.5 6.6-3 8.4 1.3.3 5.3.8 6.6.3 3.2-1.2 1.2-3.9 5.2-2.6 4.1 1.3 8 6.9 11.6 9.2-1.3 1.3-5.3 3-1.8 4.4"/><path fill="#f7faff" d="M135.2 81.9s1.5 3.2 5.6 3.3c4.1.2 12.1-.4 12.1-.4l-13.2 2.5-4.5-5.4z"/><path fill="#96caef" d="M112.5 87v13.5s3.9 2.9 13.1 2.5c9.2-.4 11.3-2.2 11.7-2.5.4-.3.5-13.3.5-13.3s-11.5 1-13.6.8c-2.3-.1-11.7-1-11.7-1z"/><ellipse cx="123.2" cy="93.4" class="st113" rx="2" ry="1.6"/><ellipse cx="130.1" cy="100.1" class="st113" rx="2" ry="1.7"/><ellipse cx="116.4" cy="98.8" class="st113" rx="1.8" ry="1.4"/><ellipse cx="132.8" cy="93.9" class="st113" rx="1.5" ry="1.2"/><ellipse cx="114" cy="91.3" class="st113" rx="1.5" ry="1.4"/><ellipse cx="136.7" cy="90.8" class="st113" rx="1.2" ry="1"/><ellipse cx="125.1" cy="83.4" fill="#72b5d9" rx="13" ry="3.4"/><path fill="#7cbce6" d="M112.1 83.1v3.6s2.5 3.2 13 3.1c10.4-.1 12.1-1.8 12.4-2.2.3-.4.6-1.1.6-1.1l.1-3.1s-5.1 3.5-13.1 3.2c-8-.3-12.2-2.8-12.2-2.8l-.8-.7z"/><path d="M126.6 83.8l-10.5 2-.5 16.2-2-.8V85l4.9-1.6h8.1z" class="st116"/><path d="M126.1 82.4c-.9 0-2.1 1.8-1.7 2.4.7 1.2 2.4-1.2 2.8-1.6.8-.8 2.2-1.6 2.8-2.6.4-.6.2-1.2-.6-.7-.6.4-.7 1.3-1.5 1.5-.6-.8 1.7-2.2.9-3-.5.2-.5.7-1.2.5 0 .3.4.7.2 1-.3.5-1 .3-1.4.3.1.7 1.2 2.2-.3 2.2" class="st117"/><path d="M121.6 81.4c-.2-.8-1.2-1.6-2.1-1.9-.4.5-1.1 2-.4 2.4.4.2 1.1-.1 1.5-.1h1.5c-.2-.1-.4-.4-.5-.6" class="st12"/><path d="M127.9 83.6c.6-.6 4.8-2.2 4.6-.4-.2 1.6-3.8.6-4.9.5m-1.7-3.2c.1-.8-11.4-.4-11.3 1.2.1 1.2 11.6 2.1 12.2 1" class="st117"/><path d="M122.8 77.4c-.1-1.6 2.1-1.2 3.4-1.1.7 0 1.5 0 2.1.4.6.5.5 1.4.7 2 .5-.1 1-.2 1.5-.1.2.7.2 1.3-.2 1.9.1-.2 0-.4 0-.6-1-.2-.9 1-1.7.8.1-.5 1.1-1.8.7-2.2-.5-.6-.8.3-1.2.4-.5.1-.7-.2-1-.6-.8-.7-1.4-.6-2.5-.6-.4 0-2.9 0-1.6-.7" class="st116"/><path fill="#79b552" d="M130.6 82.4c.8 0 2.1 0 2.8.5 1.1.9-.5 1.6-1.5 1.2.3-.5 1.1-1 .2-1.7"/><path d="M125.6 82.2c-1 .3-2.2 3.1-.8 3-.9.6-3.1.4-4.2.3-.5-.1-1.8-.1-2.2-.4-.5-.4-.2-1.3 0-1.8.5-1.5 2.3-1.4 3.9-1.6.9-.1 4.5-.3 2.9 1m-5.4-3.3c.1.1-1.3-.2-2-.2-1 0-1.8.8-2.1 1.6.5.1 1.1 0 1.6.1.7.1 1.3.5 2 .6.3 0 1.7 0 1.9-.2.1-.4-.8-1.8-1.4-1.9" class="st116"/><path d="M122.5 77.4c-1.7-.1-1.7 1.2-1.7 2.3 0 1.5.7 1.9 2.4 2 .6.1 1.3 0 1.9 0 .8 0 1.4.2 1.5-.5.1-.5-.5-1.1-.5-1.6-.1-.7.2-1.3 1-1.6-.4-.9-3.9-.6-4.9-.6m8.8 2.7c1.1.3 2.6-.1 3.6.5 1.2.7.1 2.5-.7 3.1-.3-.5-.1-.9-.8-1.3-.5-.2-1.4-.3-2-.2-.9.1-3.1 1.6-3.8 1 .2-.5 1-1 1.6-1.4.4-.2.8-.4 1.1-.7.3-.3.4-.8.8-1.1" class="st116"/><path d="M126.7 80.6c-.3-.4-.6-.7-.5-1.2 0-.3.3-1.1.9-1 .3.1.2.3.3.5.1.2.3.4.4.7.1.1.2.5.4.6.3.1.4-.3.7-.4 0 .4-.6.6-.5 1.2h.3c.1.3-.7.6-1 .8-.3.2-.8.9-1.2.8-.6-.2.2-.7.3-.9.2-.4-.2-.7-.2-1.1" class="st117"/><path d="M134.4 101.9l-.4-16-3.7-1.6h4.1l2 .8v16z" class="st116"/><path d="M153.4 91.5c1.8-.8 2 1.2 1.1 2.1-.9 1-2.5 1.4-3.8 1.7-2.7.6-5.5 1.3-8.3 1.7-2.8.4-5.6-.2-8.4.4-1.1.2-3 .8-4.2.5-1.8-.4-1.3-2.9.2-2.6 0 .2.3.5.3.7 1.5-.2.9-1.2 1.5-1.9.8.6.7 1 1.9 1.3 1 .3 1.8.1 2.8.1 1.9-.1 3.9-.1 5.8-.4 1.9-.3 3.8-.6 5.7-1 2.1-.5 4-1.6 6-2.3" class="st92"/><linearGradient id="SVGID_22_" x1="149.581" x2="154.767" y1="94.067" y2="94.067" gradientUnits="userSpaceOnUse"><stop offset="0" stop-color="#f6f19f"/><stop offset=".32" stop-color="#f3e070"/><stop offset=".608" stop-color="#f2d34e"/><stop offset=".845" stop-color="#f0cb39"/><stop offset="1" stop-color="#f0c831"/></linearGradient><path fill="url(#SVGID_22_)" stroke="#b8a73e" stroke-width=".25" d="M149.6 92.2s4 5.4 4 4.5c0-1 2-3.5.7-4.9-1.2-1.3-4.7.4-4.7.4z"/><path d="M89.7 41.6c1-2.1 2.2-.1 2.3 1.1.1 1.3-1.3 3.5-2.5 4-1.1-.9-.8-4 0-5.1" class="st56"/><path d="M87.8 28.5s2 6.9 1.9 8.9c-.2 2-1.1 5.7-.8 8.4.1.8 1.3 1.8 1.3 3.2 0 1.4-3.4 4.3-6.8 5.2-3.3.9-8.5.7-10.4.7-2.9-.1-15.3-3.4-17-4.5-1.8-1.1-3.3-2-3.5-2.4-1.4-2.2-3.3-3.1-2.9-4.3.3-1.2.9-2.3 2-2.8 2.3-1 7-5.8 11.8-7.4 4.8-1.6 12.5-6.1 16.1-6 3.5.1 8.3 1 8.3 1z" class="st56"/><linearGradient id="SVGID_23_" x1="-2574.618" x2="-2565.474" y1="199.148" y2="199.148" gradientTransform="matrix(1.3188 .0612 -.0589 .9957 3470.336 6.924)" gradientUnits="userSpaceOnUse"><stop offset="0" stop-color="#c91b72"/><stop offset="1" stop-color="#fbf4cb"/></linearGradient><path fill="url(#SVGID_23_)" d="M63.2 47.7c-.2 2.4 2.4 4.4 5.7 4.5 3.3.1 6.2-1.7 6.3-4 .2-2.4-2.4-4.4-5.7-4.5-3.3-.2-6.1 1.6-6.3 4z" opacity=".13"/><path fill="#0f1010" d="M85 41.3c0 .5-.3 1-.9 1-.6 0-1.1-.4-1.1-.9s.4-1 .9-1 1 .4 1.1.9zm-12.1.6c.1.5-.3 1-.9 1-.5 0-1-.4-1.1-.9-.1-.5.4-1 .9-1 .6-.1 1.1.3 1.1.9z"/><path fill="none" stroke="#c98f61" stroke-width=".289" d="M81.7 44.8c.1-.3-.4-1.1-.6-1.5-.2-.4-1.2-.4-2.2-.3-1 .1-2 1.7-2 1.7"/><path fill="#0b0c0c" stroke="#000" stroke-width=".308" d="M57.1 45c-.9 3.5 1.2 3.4 4.5 4.2 5.7 1.4 9 1.9 14.5.1 3.4-1.1 8-2.7 11.5-1.1 3.6 1.6 1.1 4-1.6 5.2-5 2.2-12.2 2-17.5.9-3.7-.7-8.4-2.3-11.9-3.7-1.9-.7-3.7-2.1-3.2-4.1.7-3 2.2-.4 4-1.5" opacity=".04"/><path d="M72.3 48.5s6.8 4.2 8.5 3.6C82.5 51.4 86 49 86 49s-1.6 1.7-5.7 1.1c-4.1-.7-8-1.6-8-1.6z" class="st113"/><linearGradient id="SVGID_24_" x1="67.035" x2="74.665" y1="38.457" y2="38.457" gradientUnits="userSpaceOnUse"><stop offset="0"/><stop offset="1" stop-color="#d1582d"/></linearGradient><path fill="url(#SVGID_24_)" stroke="#743f24" stroke-width=".308" d="M74.6 38.2c-1.4-.4-2.2-.9-3.7-.6-.7.1-1.6.4-2.1.8s-1 1.3-1.7 1.6c-.6-.4 1-1.4 1.4-1.6.8-.6 1.5-1.1 2.6-1.4.6-.2 1.9-.2 2.5.1 0 0 .2.3.3.3.1.1.3.3.5.4.3.3.4.8.3.3"/><linearGradient id="SVGID_25_" x1="3214.142" x2="3222.089" y1="37.956" y2="37.956" gradientTransform="matrix(-1 0 0 1 3302.309 0)" gradientUnits="userSpaceOnUse"><stop offset="0"/><stop offset="1" stop-color="#d1582d"/></linearGradient><path fill="url(#SVGID_25_)" stroke="#743f24" stroke-width=".308" d="M80.2 37.7c1.4-.4 2.5-.9 4.1-.6.7.1 1.6.4 2.1.8s1 1.3 1.7 1.6c.6-.4-1-1.4-1.4-1.6-.8-.6-1.5-1.1-2.6-1.4-.6-.2-1.9-.2-2.5.1 0 0-.2.3-.3.3-.1.1-.3.3-.5.4-.3.3-.7.5-.3.3"/><linearGradient id="SVGID_26_" x1="52.197" x2="90.246" y1="34.776" y2="34.776" gradientUnits="userSpaceOnUse"><stop offset="0"/><stop offset="1" stop-color="#d1582d"/></linearGradient><path fill="url(#SVGID_26_)" stroke="#743f24" stroke-width=".308" d="M89.7 44.3c3.1-10.9-7.8-10.9-16.3-12.1-5-.7-10.2 0-13.5 4.1-2.6 3.2 1.7 12.8-5.9 11-1.8-3.6-1.3-7.8-1.7-11.6-.5-4.5 1.7-7.5 5.2-9.8 4.7-3 5.7-3.6 11.9-4.1 12-.9 25.3 5.6 18.9 21.5"/><linearGradient id="SVGID_27_" x1="2988.433" x2="2996.384" y1="-1358.62" y2="-1358.62" gradientTransform="matrix(-.5364 .3419 .3414 .5389 2124.392 -266.04)" gradientUnits="userSpaceOnUse"><stop offset="0" stop-color="#d0562c"/><stop offset=".186" stop-color="#983f20"/><stop offset=".391" stop-color="#622915"/><stop offset=".581" stop-color="#38170c"/><stop offset=".752" stop-color="#190a05"/><stop offset=".898" stop-color="#070301"/><stop offset="1"/></linearGradient><path fill="url(#SVGID_27_)" d="M56.5 26.5c-1.1-2.1-1.6-3.5-.7-5.8-2.1 1.4-2.2 5.8.5 6.8-1-.6-1.5-1.4-2.2-2.2-1.7 1 .7 2.6 1.8 3.2"/><path d="M106.6 74.5c-1.1.5-3.5 2-3.2 3.1.4 1.5 3.3.1 4.3 0-.4.3-1.5.3-2 .5-.6.3-1.7.9-1.6 1.5.1.5 1.2 1 1.8 1 .7 0 1.5-.5 2.2-.5-.5.5-1.9.5-2.6 1-1 .6-1.2 1.6-.1 2.2 2 1 4.3-.6 5.1-1.9.8-1.4.7-3.1.3-4.5-.3-.9-.8-1.5-1.9-1.9-.8-.3-2.1-.6-2.9-.3" class="st56"/><path d="M.2 122.3h6v6.2h-6z" class="st4"/><path d="M.2 125.7h5.9v2.9H.2z" class="st5"/></svg>
