<svg xmlns="http://www.w3.org/2000/svg" version="1.0" viewBox="0 0 220 129"><switch><g><linearGradient id="a" x1="111.962" x2="109.555" y1="-103.664" y2="89.642" gradientUnits="userSpaceOnUse"><stop offset="0" stop-color="#71c8f0"/><stop offset="1" stop-color="#d1ecf2"/></linearGradient><path fill="url(#a)" d="M.1.1h219.6v129H.1z"/><path fill="#659941" stroke="#1C381C" stroke-width=".25" d="M.1 24.2c.2.1 5.6.8 6 .9 0 .6.5 1.4.3 2 1.1-.1 2.1-.2 3.3-.3.3.3.8 1.3 1.2 1.6 4.2 1.3 8.2 1.9 11.3 3.8 4-1.8 4.1.6 7.4.4 3.1-.2 4.2-.6 7-.8 5.8-2.3 9.6 1.6 16.3.5.1.2.2.5.3.7 3.1-.2 2.4-.1 4.5.4 5.4-.2 9.1.7 10.3 2.7-.3.2-.4.4-.4.7 3.8-.3 6.9.4 7 2.1-12.1.6-26.1-1.2-38.8-1.2-11.2 0-25.3.3-36-.1M220 27.1c-2.8-.2-5.1-.4-7.2-1.2-3.9 1.1-7.8.9-10.1 2.8-1.2-.1-3.1-.2-4.2-.3-.3.5-.1 1-.3 1.6-1.3-.1-2.8-.2-4.2-.3 1.3.9 1.5 2.2 2.4 3.2-4.7.3-8.5-.5-13.2-.3-1.6 2.5-8.2 1.2-8.4 4.5-4.6 1.6-14 2.4-17 4.3l3.6 2.1 57.7-1.3"/><path fill="#98CB66" d="M219.9 20.4c-8.2 2.4-18.3 1.1-28 2.8-10.7 2-24.2 4.6-35.2 5.9-7.1.8-12.5-1.2-18.9-1.2-5.9 0-12.6 1.9-18.1 2.8-7.5 1.2-10.6 2.1-27-2.8-9.2-.3-15-4.1-25.2-2.9-7.1.8-14.9 2.1-22.5 2.1-17.9 0-28.8-5.3-45.1-7.5V51H219" opacity=".65"/><linearGradient id="b" x1="-.051" x2="220.049" y1="42.761" y2="42.761" gradientUnits="userSpaceOnUse"><stop offset="0" stop-color="#cbcb64"/><stop offset="1" stop-color="#ffcb67"/></linearGradient><path fill="url(#b)" d="M-.1 35.9c16.4 2.1 32.7-1.1 49.4-.3 7.4.4 13.7 2.4 21 3.1 7.5.8 15.7.6 23.6.9 16.5.8 34.5 3.3 51.2 2.5 18.1-.8 33.8-2.8 51.4-4.6 7.4-.7 15.9-2.2 23.5-3v16.3H.9"/><linearGradient id="c" x1="-.149" x2="220.049" y1="86.045" y2="86.045" gradientUnits="userSpaceOnUse"><stop offset="0" stop-color="#cbcb64"/><stop offset="1" stop-color="#ffcb67"/></linearGradient><path fill="url(#c)" d="M220 48.4c-5.8 2-31.4.4-40.7.4-19.6 0-39.1-1.3-58.8-.8-20.5.4-40.7-.6-61.1-.4-16.8.1-45.2 2.3-59.6-1.7v80.3h220"/><linearGradient id="d" x1="-7.297" x2="335.452" y1="209.387" y2="-99.816" gradientUnits="userSpaceOnUse"><stop offset="0" stop-color="#cbcb64"/><stop offset="1" stop-color="#ffcb67"/></linearGradient><path fill="url(#d)" stroke="#996733" stroke-width=".25" d="M-.1 78.1c13.2-2.8 30.6-1.4 44.5-2.9 15-1.6 30.3-2.7 45.5-3.7 16.5-1.1 32.5.5 49.1-1.2 14.4-1.5 29.2-1.4 43.6-2.7 12.4-1.1 25.2-1.9 37.3-3.3v64.8H.1"/><path fill="none" stroke="#996733" stroke-width=".25" d="M.9 117c4.9.8 9.6 1.9 14.4 3 5.3 1.2 9.3 1.5 15.3 2.4 8.7 1.2 13.7 3.8 20.7 6.3M.9 109c26.7 5.5 58.3 7.9 74.8 20.1M.9 99.4c29.1 6.1 62.8 8.9 90.3 16.7 8.4 2.4 14.4 4.9 22.1 7.5 5.4 1.9 13.2 2.9 17.4 5.4M1.8 90.2C23.3 96 47.2 98 70.3 101.9c17.1 2.9 34.4 5.6 51.4 8.7 25.2 4.5 43.3 10.7 63.1 18.5M.9 83.1c3.4 1.4 9.1 1.2 13.7 1.7 9.8.9 19.1 2.5 28.9 3.5 14 1.3 27.2 3.5 41 5 21.8 2.4 44 2.5 65.1 6.5 14 2.6 27.7 4.9 41.5 7.7 8.6 1.7 23.3 4.2 28 7.4M21.6 76.4c21 2.6 41.1 6 63.1 7.2 21.6 1.2 42.7 2.9 64 4.9 21.1 2 53.8 2.8 70.3 9.6m-155-25c51.4 1.4 104.5 5.2 154.2 9.6m-71.3-13c21.4.5 51.8.9 72.1 2.9m-2.7-23.4c-9.1.6-16.1 3.3-24.3 4.9-8.4 1.6-16 1.5-24.3 4-11.9 3.5-31.4 6.4-37.9 12.5m67.6-21.8c-33.7 2.9-68 12.9-94.7 22.2m59.5-22.2c-17.3-.6-37.8 7-51.4 11.3-5.5 1.7-9.4 4.4-14.4 6.4-4.4 1.7-9.7 3.1-13.5 4.9M129.8 48c-23.2.4-45 9.6-62.3 15.8-10 3.6-25.5 6.8-33.3 11.4M103.6 48c-23.3 1.4-40.4 9.1-57.7 15.1C32 67.8 16.3 71.6 3.6 76.8M73 48C50.2 49.8 16.2 58.7 1.8 67.2m35.1-18.4c-10-.3-25.1 4.6-33.4 7.1m211.9-3.3c-12.7 2.5-24.4 5.6-36.1 8.7-7.4 2-16.3 5.6-24.3 6.8m61.3-10.9c-9.8-.3-23.6 5.4-30.7 7.9"/><g fill="#146734"><path d="M37.5 46s.6.2.7.3c0 .1-.3-.9-1.1-.7-.7.2-.7.8-.7.8l1.1-.4zm-2.6 1.3s-.7.3-.6.5c0 .1 0-.9 1-.9s1.2.6 1.2.6l-1.6-.2z"/><path d="M36.5 46.9s.5-.6.8-.6c.1 0 .2.1.1.1 0 0-.2.5-.5.6-.3.3-.6.4-.4-.1z"/><path d="M36.8 49.3s-.5-.4-.3-.7c.2-.3-.7-3.4-.8-3.9-.1-.5-.5-2.9-.5-2.9s0-.2-.5-.1-.6 0-.5.3c-.2 0 0-.8.5-.7l.5.1s-.6-.6-1-.4c-.4.2.4-.6.7-.2l.3.4s0-.7.5-.7c.8-.3.3 0-.3.7 0 0 .2-.2.6-.1l.4.1.2.2s-.3.2-.7.1l-.4-.1 1.5 7c-.1.1.4 1-.2.9z"/><path d="M36.2 47.3s-.6-.1-1-.1-.5.1-.7.3c-.2.2.6-.4 1.5 0 .9.3.2-.2.2-.2zm-.1-1.1s-.4-.5-1-.2-1.2.6-1.1.8c.1.2 0-.3.8-.4.7-.1 1.4.3 1.5.2m.2-.3s.4-.3.7-.3c.3-.1.4 0 .6.1.2.1-.6-.2-1.1.3-.5.5-.2-.1-.2-.1zm-1.1-1.2s-1-.5-1-.8c0-.1.1-.2.2-.1 0 0 .8.1 1.1.4.4.4.4.7-.3.5zm.8.6s-.3-.3.2-.5c.4-.2 1-.2 1.2-.2.2.1.4.3.4.3s-.2-.1-.6-.1c-.4 0-.5.1-.6.2 0 .1-.3.3-.4.3"/><path d="M35.9 45.3s-.8-.1-1-.2c-.3-.1-.4 0-.5.2 0 .2-.2.4-.2.4s-.1-.7.2-.8c.3-.1.6-.3 1.1-.1l.5.2v.3m.1-.7s.6-.4.8-.5c.2-.2.3-.2.5 0 .1.2.3.3.3.3s-.3-.7-.6-.7-.8-.1-1 .3l-.2.4v.2m.9 3s.6-.4.8-.5c.2-.2.3-.2.5 0l.3.3s-.3-.7-.6-.7-.8-.1-1 .3l-.2.4v.2m-.7-3.7s-.4-.6-.9-.4c-.5.2-1.2.7-1 1 .1.3 0-.5 1-.6.6.2.8.5.8.5m-.3-1.7s.7-.8 1-.8c.1 0 .2.1.2.2 0 0-.2.6-.6.8-.4.3-.8.4-.6-.2z"/><path d="M35.6 43.2s.3-.5.7-.4c.4.1.4.3.4.3s-.4-.1-.6 0c-.2.1-.4.4-.5.3"/><path d="M35.7 43.1s-.4-.7-1.1-.5c-.7.2-.6.3-.6.4 0 .1.3-.3.5-.2.2.1.8.3.8.3l.2.3m-.3-1.9s-.4-.4-1.1-.3c-.6.1-.7.4-.7.5 0 .1.3 0 .4-.2.1-.2.4-.2.7-.1.4 0 .7.1.7.1z"/><path d="M35.2 41.5s.5-.8 1.4-.9c.9-.1.1.3-.2.3-.2.1-1.1.5-1.2.6zm-15.8 3.7s.6.2.6.3c0 .1-.3-.9-1-.7-.7.2-.7.8-.7.8l1.1-.4zm-2.5 1.3s-.6.3-.6.5c0 .1 0-.9.9-.9s1.2.6 1.2.6l-1.5-.2zm1.6-.3s.5-.6.8-.5c.1 0 .2.1.1.1 0 0-.2.4-.5.6-.3.2-.6.2-.4-.2z"/><path d="M18.7 48.5s-.4-.4-.3-.7c.2-.3-.7-3.3-.8-3.8-.1-.5-.5-2.9-.5-2.9s0-.2-.5-.1c-.4.1-.5 0-.5.3-.2 0 0-.8.5-.6l.5.1s-.6-.6-.9-.4c-.4.2.4-.5.7-.2l.3.4s0-.7.4-.6c.8-.3.3 0-.3.7 0 0 .2-.2.6-.1l.3.1.2.2s-.3.2-.7.1l-.4-.1 1.5 6.8c.1 0 .6.9-.1.8z"/><path d="M18.2 46.6s-.6-.1-1-.1-.5.1-.7.3c-.2.2.6-.4 1.4 0 1 .2.3-.2.3-.2zm-.2-1.2s-.4-.5-1-.2-1.2.6-1 .8c.1.2 0-.3.7-.4.7-.1 1.3.3 1.4.2m.4-.2s.4-.3.7-.3c.3-.1.4 0 .6.1.2.1-.6-.2-1.1.3-.6.5-.2-.1-.2-.1zm-1.1-1.2s-.9-.5-.9-.7c0-.1.1-.2.2-.1 0 0 .7.1 1.1.4.3.2.3.5-.4.4zm.7.6s-.2-.2.2-.5c.4-.2.9-.2 1.1-.2.2.1.4.3.4.3s-.2-.1-.6-.1c-.4 0-.5.1-.6.2 0 .1-.3.3-.4.3"/><path d="M17.8 44.6s-.7-.1-1-.2c-.2-.1-.4 0-.4.2s-.2.3-.2.3-.1-.7.2-.8c.3-.1.6-.3 1.1-.1l.5.2v.3m.1-.6s.6-.3.8-.5c.2-.2.3-.2.5 0 .1.2.3.3.3.3s-.3-.7-.6-.7-.7-.1-1 .3l-.2.4v.2m.8 2.9s.6-.3.8-.5c.2-.2.3-.2.5 0 .1.2.3.3.3.3s-.3-.7-.6-.7-.7-.1-1 .3l-.2.4v.2m-.6-3.6s-.4-.6-.9-.4c-.5.2-1.1.6-1 .9.1.3 0-.5.9-.6.6.2.8.5.8.5m-.2-1.6s.6-.7 1-.7c.1 0 .2.1.2.2 0 0-.2.6-.6.8-.4.2-.8.3-.6-.3z"/><path d="M17.6 42.5s.3-.5.7-.4c.4.1.4.3.4.3s-.4-.1-.5 0c-.2.1-.4.4-.5.3"/><path d="M17.7 42.4s-.4-.7-1-.5c-.7.2-.6.3-.6.4 0 .1.3-.3.5-.2.2.1.8.3.8.3l.1.3m-.3-1.8s-.4-.4-1-.3c-.6.1-.7.4-.7.5 0 .1.3 0 .4-.2.1-.2.4-.2.7-.1.3 0 .6.1.6.1zm0 0s.5-.8 1.3-.9c.8 0 .1.3-.1.3-.3 0-1.1.5-1.2.6zm6.2 3.4s-.5.3-.5.5c0 .1 0-.9.7-.9.8 0 1 .6 1 .6l-1.2-.2zm3 .6s.8.1.8.3c0 .1-.4-.9-1.3-.6-.9.2-.9.8-.9.8l1.4-.5z"/><path d="M24.7 45s-.7-.4-1-.3c-.1 0-.1.1-.1.2 0 0 .4.4.7.5.5 0 .8-.1.4-.4z"/><path d="M25.4 47.3s.3-.5 0-.7c-.3-.2-.7-3.4-.8-3.9-.1-.5-.7-2.9-.7-2.9s0-.2.4-.3c.5-.1.5-.1.6.1.2 0-.3-.7-.8-.5l-.4.3s.3-.7.8-.6c.4.1-.6-.4-.7 0l-.1.4s-.3-.7-.7-.5c-.9-.1-.3.1.5.6 0 0-.3-.1-.6.1l-.3.2-.1.2s.4.1.7-.1l.3-.2 1.3 7c.1.1 0 1 .6.8z"/><path d="M25.1 45.3s.5-.3.9-.4c.4-.1.5 0 .8.1.2.1-.7-.2-1.5.4-.6.5-.2-.1-.2-.1zm-.3-1.2s.2-.6.9-.5c.7.1 1.4.3 1.3.5-.1.2-.1-.3-.9-.2-.7.1-1.2.6-1.3.6m-.3-.1s-.5-.1-.8-.1c-.3 0-.4.1-.5.3-.1.2.5-.4 1.2 0 .7.3.1-.2.1-.2zM25 43s.7-.7.6-1c0-.1-.2-.1-.3-.1 0 0-.7.3-.9.7-.1.4 0 .7.6.4zm-.4.7s.1-.3-.4-.4c-.5-.1-1 0-1.2.1-.2.1-.3.4-.3.4s.2-.1.6-.2c.4-.1.5-.1.6 0 .1.1.5.2.7.1"/><path d="M24.7 43.3s.7-.3.9-.4c.2-.2.4-.1.5.1.1.2.3.3.3.3s-.2-.7-.5-.7-.7-.1-1.1.2l-.5.2.2.3m-.3-.6s-.7-.2-1-.3c-.2-.1-.4-.1-.5.2l-.2.4s0-.7.3-.8c.3-.1.7-.3 1.1 0 .4.3.4.4.4.4l.1.2m.3 2.9s-.7-.2-1-.3c-.2-.1-.4-.1-.5.2l-.2.4s0-.7.3-.8c.3-.1.7-.3 1.1 0 .4.3.4.4.4.4l.1.2m-.8-3.8s.2-.7.7-.7c.5 0 1.4.3 1.4.6s-.2-.5-1.2-.3c-.5.3-.6.7-.6.7m-.4-1.6s-.9-.5-1.3-.5c-.1 0-.2.1-.1.2 0 0 .4.5.9.6.5.3.9.2.5-.3z"/><path d="M24.1 41.2s-.5-.4-.8-.2c-.3.3-.3.4-.3.4s.3-.2.5-.2.5.2.6.2m-.1-.3s.1-.8.8-.8c.7 0 .7.2.8.3 0 .1-.4-.2-.6 0-.2.2-.6.5-.6.5v.3m-.6-1.9s.2-.5.9-.6c.6-.1.8.2.9.3.1.1-.3.1-.5-.1s-.4-.1-.7.1c-.3.1-.6.3-.6.3zm0 0s-.8-.7-1.7-.5c-.9.2 0 .3.3.3.3-.1 1.3.1 1.4.2zm6.4 6.8s.6.2.7.3c0 .1-.3-.9-1.1-.7-.7.2-.7.8-.7.8l1.1-.4zm-2.5 1.4s-.7.3-.6.5c0 .1 0-.9 1-.9s1.2.6 1.2.6l-1.6-.2zm1.6-.4s.5-.6.8-.6c.1 0 .2.1.1.1 0 0-.2.4-.5.6-.3.3-.6.3-.4-.1z"/><path d="M29.5 49.7s-.5-.4-.3-.7c.2-.3-.7-3.4-.8-3.9-.1-.5-.5-2.9-.5-2.9s0-.2-.5-.1-.6 0-.5.3c-.2 0 0-.8.5-.7l.5.1s-.6-.6-1-.4c-.4.2.4-.6.7-.2l.3.4s0-.7.5-.7c.8-.3.3 0-.3.7 0 0 .2-.2.6-.1l.3.1.2.2s-.3.2-.7.1l-.4-.1 1.5 7c.1.1.6.9-.1.9z"/><path d="M29 47.7s-.6-.1-1-.1-.5.1-.7.3c-.2.2.6-.4 1.5 0 .9.3.2-.2.2-.2zm-.2-1.2s-.4-.5-1-.2-1.2.6-1.1.8c.1.2 0-.3.7-.4.7-.1 1.4.3 1.5.2m.4-.2s.4-.3.7-.3c.3-.1.4 0 .6.1.2.1-.6-.2-1.1.3-.6.5-.2-.1-.2-.1zm-1.1-1.2s-1-.5-1-.8c0-.1.1-.2.2-.1 0 0 .8.1 1.1.4.4.3.4.6-.3.5zm.7.6s-.3-.3.2-.5c.4-.2 1-.2 1.2-.2.2.1.4.3.4.3s-.2-.1-.6-.1c-.4 0-.5.1-.6.2-.1.1-.3.3-.4.3"/><path d="M28.6 45.7s-.8-.1-1-.2c-.3-.1-.4 0-.5.2 0 .2-.2.4-.2.4s-.1-.7.2-.8c.3-.1.6-.3 1.1-.1l.5.2v.3m.2-.7s.6-.4.8-.5c.2-.2.3-.2.5 0l.3.3s-.3-.7-.6-.7-.8-.1-1 .3l-.2.4v.2m.8 3s.6-.4.8-.5c.2-.2.3-.2.5 0l.3.3s-.3-.7-.6-.7-.8-.1-1 .3l-.2.4v.2m-.6-3.7s-.4-.6-.9-.4c-.5.2-1.2.7-1.1 1 .1.3 0-.5 1-.6.6.2.8.5.8.5m-.2-1.7s.7-.8 1-.8c.1 0 .2.1.2.2 0 0-.2.6-.6.8-.4.3-.8.3-.6-.2z"/><path d="M28.4 43.6s.3-.5.7-.4c.4.1.4.3.4.3s-.4-.1-.6 0c-.2.1-.4.4-.5.3m0-.3s-.4-.7-1.1-.5c-.7.2-.6.3-.6.5 0 .1.3-.3.5-.2.2.1.8.3.8.3l.2.3m-.2-2s-.4-.4-1.1-.3c-.6.1-.7.4-.7.5 0 .1.3 0 .4-.2.1-.2.4-.2.7-.1.3 0 .7.1.7.1zm0 0s.5-.8 1.4-.9c.9-.1.1.3-.2.3-.2 0-1.1.5-1.2.6zm5.1 1.8s.6.2.6.3c0 .1-.3-.9-1-.7-.7.2-.7.8-.7.8l1.1-.4zM30.7 45s-.6.3-.6.5c0 .1 0-.9.9-.9s1.2.6 1.2.6l-1.5-.2z"/><path d="M32.2 44.6s.5-.6.8-.5c.1 0 .2.1.1.1 0 0-.2.4-.5.6-.3.2-.6.2-.4-.2z"/><path d="M32.5 46.9s-.4-.4-.3-.7c.2-.3-.7-3.3-.8-3.8 0-.4-.4-2.8-.4-2.8s0-.2-.5-.1c-.4.1-.5 0-.5.3-.2 0 0-.8.5-.6l.5.1s-.6-.6-.9-.4c-.4.2.4-.5.7-.2l.3.4s0-.7.4-.6c.8-.3.3 0-.3.7 0 0 .2-.2.6-.1l.3.1.2.2s-.3.2-.7.1l-.4-.1 1.5 6.8s.4.8-.2.7z"/><path d="M32 45s-.6-.1-1-.1-.5.1-.7.3c-.2.2.6-.4 1.4 0 .9.3.3-.2.3-.2zm-.2-1.1s-.4-.5-1-.2-1.2.6-1 .8c.1.2 0-.3.7-.4.7-.1 1.3.3 1.4.2m.3-.3s.4-.3.7-.3c.3-.1.4 0 .6.1.2.1-.6-.2-1.1.3-.5.5-.2-.1-.2-.1zm-1-1.2s-.9-.5-.9-.7c0-.1.1-.2.2-.1 0 0 .7.1 1.1.4.2.3.3.6-.4.4zm.7.6s-.2-.2.2-.5c.4-.2.9-.2 1.1-.2.2.1.4.3.4.3s-.2-.1-.6-.1c-.4 0-.5.1-.6.2 0 .1-.3.3-.4.3"/><path d="M31.6 43s-.7-.1-1-.2c-.2-.1-.4 0-.4.2s-.2.3-.2.3-.1-.7.2-.8c.3-.1.6-.3 1.1-.1l.5.2v.3m0-.5s.6-.3.8-.5c.2-.2.3-.2.5 0 .1.2.3.3.3.3s-.3-.7-.6-.7-.7-.1-1 .3l-.2.4v.2m.9 2.9s.6-.3.8-.5c.2-.2.3-.2.5 0 .1.2.3.3.3.3s-.3-.7-.6-.7-.7-.1-1 .3l-.2.4v.2m-.6-3.6s-.4-.6-.9-.4c-.5.2-1.1.6-1 .9.1.3 0-.5.9-.6.6.2.8.5.8.5m-.2-1.6s.6-.7 1-.7c.1 0 .2.1.2.2 0 0-.2.6-.6.8-.4.2-.8.2-.6-.3z"/><path d="M31.3 41s.3-.5.7-.4c.4.1.4.3.4.3s-.4-.1-.5 0c-.2.1-.4.4-.5.3"/><path d="M31.4 40.9s-.3-.7-1-.5c-.7.2-.6.3-.6.4 0 .1.3-.3.5-.2.2.1.8.3.8.3l.1.3m-.2-1.9s-.4-.4-1-.3c-.6.1-.7.4-.7.5 0 .1.3 0 .4-.2.1-.2.4-.2.7-.1.3 0 .6.1.6.1z"/><path d="M31 39.3s.5-.8 1.3-.9c.8 0 .1.3-.1.3-.3.1-1.2.5-1.2.6zm-17.8 8.3s-.5.3-.5.4c0 .1 0-.9.7-.9s.9.6.9.6l-1.1-.1zm2.8.6s.7.2.8.3c0 .1-.3-.9-1.2-.6-.9.2-.9.8-.9.8l1.3-.5z"/><path d="M14.4 48.2s-.7-.4-.9-.3c-.1 0-.1.1-.1.2 0 0 .3.4.7.5.4.1.7 0 .3-.4z"/><path d="M15 50.5s.3-.5 0-.7c-.3-.2-.5-3.3-.6-3.8-.1-.5-.6-2.9-.6-2.9s0-.2.4-.3c.4-.1.5-.1.6.1.2 0-.3-.7-.7-.5l-.4.3s.3-.7.7-.6c.4.1-.6-.4-.7 0l-.1.4s-.1-.5-.6-.3c-.9-.1-.3.1.5.6 0 0-.3-.1-.6.1l-.2.1-.1.2s.4.1.7-.1l.3-.2 1 6.9s-.2 1 .4.7z"/><path d="M14.8 48.6s.5-.3.9-.3c.4-.1.5 0 .7.1.2.1-.7-.2-1.4.3-.6.5-.2-.1-.2-.1zm-.2-1.2s.2-.6.9-.5c.7.1 1.3.3 1.3.5-.1.2-.1-.3-.8-.2-.7 0-1.2.6-1.3.5m-.5 0s-.5-.1-.8-.1c-.3 0-.4.1-.5.2-.1.2.5-.3 1.2 0 .7.4.1-.1.1-.1zm.6-1.4s.7-.7.6-.9c0-.1-.2-.1-.3-.1 0 0-.7.3-.8.7-.2.3-.1.6.5.3zm-.5.7s.2-.3-.3-.4c-.5-.1-1 0-1.1.1-.2.1-.3.3-.3.4 0 0 .2-.1.6-.2.4-.1.5 0 .6 0 0 .1.3.2.5.1"/><path d="M14.5 46.6s.7-.2.9-.4c.2-.1.4-.1.5.1.1.2.3.3.3.3s-.2-.6-.5-.7c-.3 0-.6-.1-1.1.2l-.4.3.1.3M14 46s-.7-.2-.9-.3c-.2-.1-.4-.1-.4.1-.1.2-.2.3-.2.3s0-.7.3-.8c.3-.1.7-.3 1 .1.3.3.3.4.3.4l.1.2m.2 3s-.7-.2-.9-.3c-.2-.1-.4-.1-.4.1l-.2.4s0-.7.3-.8c.3-.1.7-.3 1 .1.3.3.3.4.3.4l.1.2m-.7-3.8s.2-.7.7-.6c.5 0 1.3.3 1.3.6s-.2-.5-1.1-.3c-.5.3-.6.7-.6.7m-.3-1.6s-.9-.6-1.2-.5c-.1 0-.2.1-.1.2 0 0 .4.5.8.6.5.2.8.2.5-.3z"/><path d="M14 44.6s-.5-.4-.8-.2c-.3.2-.3.4-.3.4s.3-.2.5-.2.5.3.6.2m-.1-.3s.1-.8.8-.7c.7 0 .7.2.7.3 0 .1-.4-.2-.5 0-.2.2-.6.5-.6.5v.3m-.5-2s.2-.5.9-.6c.6-.1.8.2.8.3 0 .1-.3.1-.5-.1s-.4-.1-.7 0c-.3.2-.5.4-.5.4zm0 0s-.8-.7-1.6-.5c-.8.2 0 .3.2.3.3-.1 1.3.1 1.4.2zm10.1 4.9s.6.2.6.3c0 .1-.3-.9-1-.7-.7.2-.7.8-.7.8l1.1-.4zm-2.4 1.4s-.6.3-.6.5c0 .1 0-.9.9-.9s1.2.6 1.2.6l-1.5-.2zm1.5-.4s.5-.6.8-.5c.1 0 .2.1.1.1 0 0-.2.4-.5.6-.3.2-.6.2-.4-.2z"/><path d="M23.3 51.1s-.4-.4-.3-.7c.2-.3-.7-3.3-.8-3.8-.1-.5-.5-2.9-.5-2.9s0-.2-.5-.1c-.4.1-.5 0-.5.3-.2 0 0-.8.5-.6l.5.1s-.6-.6-.9-.4c-.4.2.4-.5.7-.2l.3.4s0-.7.5-.6c.8-.3.3 0-.3.7 0 0 .2-.2.6-.1l.3.1.2.2s-.3.2-.7.1l-.4-.1 1.5 6.8c-.1 0 .4.9-.2.8z"/><path d="M22.8 49.2s-.6-.1-1-.1-.5.1-.7.3c-.2.2.6-.4 1.4 0 .9.3.3-.2.3-.2zm-.2-1.2s-.4-.5-1-.2-1.2.6-1 .8c.1.2 0-.3.7-.4.7-.1 1.3.3 1.4.2m.3-.2s.4-.3.7-.3c.3-.1.4 0 .6.1.2.1-.6-.2-1.1.3-.5.5-.2-.1-.2-.1zM22 47s-.9-.5-.9-.7c0-.1.1-.2.2-.1 0 0 .7.1 1.1.4.2.3.3.5-.4.4zm.7.6s-.3-.2.2-.5c.4-.2.9-.2 1.1-.2.2.1.4.3.4.3s-.2-.1-.6-.1c-.4 0-.5.1-.6.2 0 .1-.3.3-.4.3"/><path d="M22.4 47.2s-.7-.1-1-.2c-.2-.1-.4 0-.4.2s-.2.3-.2.3-.1-.7.2-.8c.3-.1.6-.3 1.1-.1l.5.2v.3m0-.6s.6-.3.8-.5c.2-.2.3-.2.5 0 .1.2.3.3.3.3s-.3-.7-.6-.7-.7-.1-1 .3l-.2.4v.2m.9 3s.6-.3.8-.5c.2-.2.3-.2.5 0 .1.2.3.3.3.3s-.3-.7-.6-.7-.7-.1-1 .3l-.2.4v.2m-.6-3.6s-.4-.6-.9-.4c-.5.2-1.1.7-1 .9.1.3 0-.5.9-.6.6.2.8.5.8.5m-.2-1.6s.6-.7 1-.7c.1 0 .2.1.2.2 0 0-.2.6-.6.8-.4.2-.8.2-.6-.3z"/><path d="M22.1 45.1s.3-.5.7-.4c.4.1.4.3.4.3s-.4-.1-.5 0c-.2.1-.4.4-.5.3"/><path d="M22.2 45s-.3-.7-1-.5c-.7.2-.6.3-.6.4 0 .1.3-.3.5-.2.2.1.8.3.8.3l.1.3m-.2-1.8s-.4-.4-1-.3c-.6.1-.7.4-.7.5 0 .1.3 0 .4-.2.1-.2.4-.2.7-.1.2 0 .6.1.6.1zm0 0s.5-.8 1.3-.9c.8 0 .1.3-.1.3-.3 0-1.2.5-1.2.6zm31.4 8.4s.6.2.7.3c0 .1-.3-.9-1.1-.7-.7.2-.7.8-.7.8l1.1-.4zm-2.5 1.3s-.7.3-.6.5c0 .1 0-.9 1-.9s1.2.6 1.2.6l-1.6-.2z"/><path d="M52.3 52.8s.5-.6.8-.6c.1 0 .2.1.1.1 0 0-.2.5-.5.6-.3.3-.6.4-.4-.1z"/><path d="M52.5 55.2s-.5-.4-.3-.7c.2-.3-.7-3.4-.8-3.9-.1-.5-.5-2.9-.5-2.9s0-.2-.5-.1-.6 0-.6.3c-.2 0 0-.8.5-.7l.5.1s-.6-.6-1-.4c-.4.2.4-.6.7-.2l.3.4s0-.7.5-.7c.8-.3.3 0-.3.7 0 0 .2-.2.6-.1l.3.1.2.2s-.3.2-.7.1l-.4-.1 1.5 7c.2.1.7 1 0 .9z"/><path d="M52 53.2s-.6-.1-1-.1-.5.1-.7.3c-.2.2.6-.4 1.5 0 .9.3.2-.2.2-.2zm-.2-1.1s-.4-.5-1-.2-1.2.6-1.1.8c.1.2 0-.3.7-.4.7-.1 1.4.3 1.5.2m.4-.3s.4-.3.7-.3c.3-.1.4 0 .6.1.2.1-.6-.2-1.1.3-.6.5-.2-.1-.2-.1zM51.2 51s-1-.5-1-.8c0-.1.1-.2.2-.1 0 0 .8.1 1.1.4.4.4.4.6-.3.5zm.7.6s-.3-.3.2-.5c.4-.2 1-.2 1.2-.2.2.1.4.3.4.3s-.2-.1-.6-.1c-.4 0-.5.1-.6.2-.1.1-.3.3-.4.3"/><path d="M51.6 51.2s-.8-.1-1-.2c-.3-.1-.4 0-.5.2 0 .2-.2.4-.2.4s-.1-.7.2-.8c.3-.1.6-.3 1.1-.1l.5.2v.3m.2-.7s.6-.4.8-.5c.2-.2.4-.2.5 0l.3.3s-.3-.7-.6-.7-.8-.1-1 .3l-.2.4v.2m.9 3s.6-.4.8-.5c.2-.2.3-.2.5 0 .1.2.3.3.3.3s-.3-.7-.6-.7-.8-.1-1 .3l-.2.4v.2m-.7-3.7s-.4-.6-.9-.4c-.5.2-1.2.7-1.1 1 .1.3 0-.5 1-.6.6.2.8.5.8.5m-.2-1.7s.7-.8 1-.8c.1 0 .2.1.2.2 0 0-.2.6-.6.8-.4.3-.8.4-.6-.2z"/><path d="M51.4 49.1s.3-.5.7-.4c.4.1.4.3.4.3s-.4-.1-.6 0c-.2.1-.4.4-.5.3"/><path d="M51.5 49s-.4-.7-1.1-.5c-.7.2-.6.3-.6.5 0 .1.3-.3.5-.2.2.1.8.3.8.3l.2.3m-.3-2s-.4-.4-1.1-.3c-.6.1-.7.4-.7.5 0 .1.3 0 .4-.2.1-.2.4-.2.7-.1.4 0 .7.1.7.1z"/><path d="M51 47.4s.5-.8 1.4-.9c.9-.1.1.3-.2.3-.2.1-1.1.5-1.2.6zm-15.9 3.7s.6.2.6.3c0 .1-.3-.9-1-.7-.7.2-.7.8-.7.8l1.1-.4zm-2.4 1.3s-.6.3-.6.5c0 .1 0-.9.9-.9s1.2.6 1.2.6l-1.5-.2zm1.5-.3s.5-.6.8-.5c.1 0 .2.1.1.1 0 0-.2.4-.5.6-.3.2-.5.2-.4-.2z"/><path d="M34.5 54.4s-.4-.4-.3-.7c.2-.3-.7-3.3-.8-3.8-.1-.5-.5-2.9-.5-2.9s0-.2-.5-.1c-.3.1-.4.1-.4.3-.2 0 0-.8.5-.6l.5.1s-.6-.6-.9-.4c-.4.2.4-.5.7-.2l.3.4s0-.7.5-.6c.8-.3.3 0-.3.7 0 0 .2-.2.6-.1l.3.1.2.2s-.3.2-.7.1l-.4-.1 1.5 6.8c-.1 0 .3.9-.3.8z"/><path d="M34 52.5s-.6-.1-1-.1-.5.1-.7.3c-.2.2.6-.4 1.4 0 .9.2.3-.2.3-.2zm-.2-1.2s-.4-.5-1-.2-1.2.6-1 .8c.1.2 0-.3.7-.4.7-.1 1.3.3 1.4.2m.3-.3s.4-.3.7-.3c.3-.1.4 0 .6.1.2.1-.6-.2-1.1.3-.5.6-.2-.1-.2-.1zm-1-1.1s-.9-.5-.9-.7c0-.1.1-.2.2-.1 0 0 .7.1 1.1.4.2.2.3.5-.4.4zm.7.6s-.2-.2.2-.5c.4-.2.9-.2 1.1-.2.2.1.4.3.4.3s-.2-.1-.6-.1c-.4 0-.5.1-.6.2 0 .1-.3.3-.4.3"/><path d="M33.6 50.5s-.7-.1-1-.2c-.2-.1-.4 0-.4.2s-.2.3-.2.3-.1-.7.2-.8c.3-.1.6-.3 1.1-.1l.5.2v.3m.1-.6s.6-.3.8-.5.3-.2.5 0c.1.2.3.3.3.3s-.3-.7-.6-.7-.7-.1-1 .3l-.2.4v.2m.8 2.9s.6-.3.8-.5c.2-.2.3-.2.5 0 .1.2.3.3.3.3s-.3-.7-.6-.7-.7-.1-1 .3l-.2.4v.2m-.6-3.6s-.4-.6-.9-.4c-.5.2-1.1.6-1 .9.1.3 0-.5.9-.6.6.2.8.5.8.5m-.2-1.6s.6-.7 1-.7c.1 0 .2.1.2.2 0 0-.2.6-.6.8-.4.2-.8.3-.6-.3z"/><path d="M33.3 48.4s.3-.5.7-.4c.4.1.4.3.4.3s-.4-.1-.5 0c-.2.1-.4.4-.5.3"/><path d="M33.4 48.3s-.4-.7-1-.5c-.7.2-.6.3-.6.4 0 .1.3-.3.5-.2.2.1.8.3.8.3l.1.3m-.2-1.8s-.4-.4-1-.3c-.6.1-.7.4-.7.5 0 .1.3 0 .4-.2.1-.2.4-.2.7-.1.3 0 .6.1.6.1zm0 0s.5-.8 1.3-.9c.8 0 .1.3-.1.3-.3 0-1.1.5-1.2.6zm6.2 3.4s-.5.3-.5.5c0 .1 0-.9.7-.9.8 0 1 .6 1 .6l-1.2-.2zm3 .6s.8.2.8.3c0 .1-.4-.9-1.3-.6-.9.3-.9.9-.9.9l1.4-.6z"/><path d="M40.5 50.9s-.7-.4-1-.3c-.1 0-.1.1-.1.2 0 0 .4.4.7.5.5 0 .8-.1.4-.4z"/><path d="M41.2 53.2s.3-.5 0-.7c-.3-.2-.7-3.4-.8-3.9-.1-.5-.7-2.9-.7-2.9s0-.2.4-.3c.5-.1.5-.1.6.1.2 0-.3-.7-.8-.5l-.4.3s.3-.7.8-.6c.4.1-.6-.4-.7 0l-.1.4s-.3-.7-.7-.5c-.9-.1-.3.1.5.6 0 0-.3-.1-.6.1l-.3.2-.1.2s.4.1.7-.1l.3-.2 1.3 7c.1.1 0 1 .6.8z"/><path d="M40.9 51.2s.5-.3.9-.4c.4-.1.5 0 .8.1.2.1-.7-.2-1.5.4-.6.5-.2-.1-.2-.1zm-.3-1.2s.2-.6.9-.5c.7.1 1.4.3 1.3.5-.1.2-.1-.3-.9-.2-.7.1-1.2.6-1.3.6m-.3-.1s-.5-.1-.8-.1c-.3 0-.4.1-.5.3-.1.2.5-.4 1.2 0 .6.3.1-.2.1-.2zm.5-1.4s.7-.7.6-1c0-.1-.2-.1-.3-.1 0 0-.7.3-.9.7-.1.4 0 .7.6.4zm-.5.7s.1-.3-.4-.4c-.5-.1-1 0-1.2.1-.2.1-.3.4-.3.4s.2-.1.6-.2c.4-.1.5-.1.6 0 .2.1.5.2.7.1"/><path d="M40.5 49.2s.7-.3.9-.4c.2-.2.4-.1.5.1.1.2.3.3.3.3s-.2-.7-.5-.7-.7-.1-1.1.2l-.5.3.2.3m-.3-.7s-.7-.2-1-.3c-.2-.1-.4-.1-.5.2l-.2.4s0-.7.3-.8c.3-.1.7-.3 1.1 0 .4.3.4.4.4.4l.1.2m.3 2.9s-.7-.2-1-.3c-.2-.1-.4-.1-.5.2l-.2.4s0-.7.3-.8c.3-.1.7-.3 1.1 0 .4.3.4.4.4.4l.1.2m-.8-3.8s.2-.7.7-.7c.5 0 1.4.3 1.4.6s-.2-.5-1.2-.3c-.5.3-.6.7-.6.7m-.5-1.6s-.9-.5-1.3-.5c-.1 0-.2.1-.1.2 0 0 .4.5.9.6.6.3 1 .2.5-.3z"/><path d="M39.9 47.1s-.5-.4-.8-.2c-.3.2-.3.4-.3.4s.3-.2.5-.2.5.2.6.2m-.1-.3s.1-.8.8-.8c.8 0 .7.2.8.3s-.4-.2-.6 0c-.2.2-.6.5-.6.5v.3m-.6-1.9s.2-.5.9-.6c.6-.1.8.2.9.3.1.1-.3.1-.5-.1s-.4-.1-.7.1c-.3.1-.6.3-.6.3z"/><path d="M39.6 45.4s-.8-.7-1.7-.5c-.9.2 0 .3.3.3.2-.1 1.3.1 1.4.2zm6.4 6.8s.6.2.7.3c0 .1-.3-.9-1.1-.7-.7.2-.7.8-.7.8l1.1-.4zm-2.6 1.4s-.7.3-.6.5c0 .1 0-.9 1-.9s1.2.6 1.2.6l-1.6-.2zm1.6-.4s.5-.6.8-.6c.1 0 .2.1.1.1 0 0-.2.5-.5.6-.3.3-.6.3-.4-.1z"/><path d="M45.3 55.6s-.5-.4-.3-.7c.2-.3-.7-3.4-.8-3.9-.1-.5-.5-2.9-.5-2.9s0-.2-.5-.1-.6 0-.6.3c-.2 0 0-.8.5-.7l.5.1s-.6-.6-1-.4c-.4.2.4-.6.7-.2l.3.4s0-.7.5-.6c.8-.3.3 0-.3.7 0 0 .2-.2.6-.1l.3.1.2.2s-.3.2-.7.1l-.2-.1 1.5 7s.5.8-.2.8z"/><path d="M44.8 53.6s-.6-.1-1-.1-.5.1-.7.3c-.2.2.6-.4 1.5 0 .8.3.2-.2.2-.2zm-.2-1.2s-.4-.5-1-.2-1.2.6-1.1.8c.1.2 0-.3.7-.4.7-.1 1.4.3 1.5.2m.3-.2s.4-.3.7-.3c.3-.1.4 0 .6.1.2.1-.6-.2-1.1.3-.5.5-.2-.1-.2-.1zm-1.1-1.2s-1-.5-1-.8c0-.1.1-.2.2-.1 0 0 .8.1 1.1.4.4.3.5.6-.3.5zm.8.6s-.3-.3.2-.5c.4-.2 1-.2 1.2-.2.2.1.4.3.4.3s-.2-.1-.6-.1c-.4 0-.5.1-.6.2-.1.1-.3.3-.4.3"/><path d="M44.4 51.6s-.8-.1-1-.2c-.3-.1-.4 0-.5.2 0 .2-.2.4-.2.4s-.1-.7.2-.8c.3-.1.6-.3 1.1-.1l.5.2v.3m.1-.7s.6-.4.8-.5c.2-.2.4-.2.5 0 .1.2.3.3.3.3s-.2-.7-.5-.8c-.3 0-.8-.1-1 .3l-.2.4v.2m.8 3.1s.6-.4.8-.5c.2-.2.3-.2.5 0l.3.3s-.2-.7-.5-.7-.8-.1-1 .3l-.2.4v.2m-.7-3.7s-.4-.6-.9-.4-1.2.7-1.1 1c.1.3 0-.5 1-.6.6.2.8.5.8.5m-.2-1.7s.7-.8 1-.8c.1 0 .2.1.2.2 0 0-.2.6-.6.8-.4.3-.8.3-.6-.2z"/><path d="M44.1 49.5s.3-.5.7-.4c.4.1.4.3.4.3s-.4-.1-.6 0c-.2.1-.4.4-.5.3m.1-.4s-.4-.7-1.1-.5c-.7.2-.6.3-.6.5 0 .1.3-.3.5-.2.2.1.8.3.8.3l.2.3m-.2-1.9s-.4-.4-1.1-.3c-.6 0-.7.3-.7.5 0 .1.3 0 .4-.2.1-.2.4-.2.7-.1.3 0 .7.1.7.1z"/><path d="M43.8 47.8s.5-.8 1.4-.9c.9-.1.1.3-.2.3-.3 0-1.2.5-1.2.6zm5.1 1.8s.6.2.6.3c0 .1-.3-.9-1-.7-.7.2-.7.8-.7.8l1.1-.4zm-2.4 1.3s-.6.3-.6.5c0 .1 0-.9.9-.9s1.2.6 1.2.6l-1.5-.2z"/><path d="M48 50.5s.5-.6.8-.5c.1 0 .2.1.1.1 0 0-.2.4-.5.6-.3.2-.6.2-.4-.2z"/><path d="M48.3 52.8s-.4-.4-.3-.7c.2-.3-.7-3.3-.8-3.8-.1-.5-.5-2.9-.5-2.9s0-.2-.5-.1c-.4.1-.5 0-.5.3-.2 0 0-.8.5-.6l.5.1s-.6-.6-.9-.4c-.4.2.4-.5.7-.2l.3.4s0-.7.4-.6c.8-.3.3 0-.3.7 0 0 .2-.2.6-.1l.3.1.2.2s-.3.2-.7.1H47l1.5 6.8c-.1 0 .4.8-.2.7z"/><path d="M47.7 50.9s-.6-.1-1-.1-.5.1-.7.3c-.2.2.6-.4 1.4 0 1 .3.3-.2.3-.2zm-.1-1.1s-.4-.5-1-.2-1.2.6-1 .8c.1.2 0-.3.7-.4.7-.1 1.3.3 1.4.2m.3-.3s.4-.3.7-.3c.3-.1.4 0 .6.1.2.1-.6-.2-1.1.3-.5.5-.2-.1-.2-.1zm-1-1.2s-.9-.5-.9-.7c0-.1.1-.2.2-.1 0 0 .7.1 1.1.4.2.3.3.6-.4.4zm.7.6s-.3-.3.2-.5c.4-.2.9-.2 1.1-.2.2.1.4.3.4.3s-.2-.1-.6-.1c-.4 0-.5.1-.6.2-.1.1-.3.3-.4.3"/><path d="M47.4 48.9s-.7-.1-1-.2c-.2-.1-.4 0-.4.2s-.2.3-.2.3-.1-.7.2-.8c.3-.1.6-.3 1.1-.1l.5.2v.3m0-.5s.6-.3.8-.5c.2-.2.3-.2.5 0 .1.2.3.2.3.2s-.3-.7-.6-.7-.7-.1-1 .3l-.2.4v.2m.9 3s.6-.3.8-.5c.2-.2.3-.2.5 0 .1.2.3.3.3.3s-.3-.7-.6-.7-.7-.1-1 .3l-.2.4v.2m-.7-3.6s-.4-.6-.9-.4c-.5.2-1.1.6-1 .9.1.3 0-.5.9-.6.6.2.8.5.8.5m-.1-1.6s.6-.7 1-.7c.1 0 .2.1.2.2 0 0-.2.6-.6.8-.4.2-.8.2-.6-.3z"/><path d="M47.1 46.9s.3-.5.7-.4c.4.1.4.3.4.3s-.4-.1-.5 0c-.2.1-.4.4-.5.3"/><path d="M47.2 46.8s-.3-.7-1-.5c-.7.2-.6.3-.6.4 0 .1.3-.3.5-.2.2.1.8.3.8.3l.1.3m-.2-1.9s-.4-.4-1-.3c-.7.1-.8.4-.8.5 0 .1.3 0 .4-.2.1-.2.4-.2.7-.1.3 0 .7.1.7.1z"/><path d="M46.8 45.2s.5-.8 1.3-.9c.8 0 .1.3-.1.3-.3.1-1.2.5-1.2.6zM29 53.5s-.5.3-.5.4c0 .1 0-.9.7-.9s.9.6.9.6l-1.1-.1zm2.8.6s.7.2.8.3c0 .1-.3-.9-1.2-.6-.9.2-.9.8-.9.8l1.3-.5z"/><path d="M30.2 54.1s-.7-.4-.9-.3c-.1 0-.1.1-.1.2 0 0 .3.4.7.5.4 0 .6 0 .3-.4z"/><path d="M30.8 56.4s.3-.5 0-.7c-.3-.2-.5-3.3-.6-3.8-.1-.5-.6-2.9-.6-2.9s0-.2.4-.3c.4-.1.5-.1.6.1.2 0-.3-.7-.7-.5l-.4.3s.3-.7.7-.6c.4.1-.6-.4-.7 0l-.1.4s-.2-.7-.7-.5c-.9-.1-.3.1.5.6 0 0-.3-.1-.6.1l-.3.2-.1.2s.4.1.7-.1l.3-.2 1 6.9c.2.1 0 1.1.6.8z"/><path d="M30.6 54.5s.5-.3.9-.3c.4-.1.5 0 .7.1.2.1-.7-.2-1.4.3-.6.5-.2-.1-.2-.1zm-.2-1.2s.2-.6.9-.5c.7.1 1.3.3 1.3.5-.1.2-.1-.3-.8-.2-.7 0-1.2.6-1.3.6m-.5-.1s-.5-.1-.8-.1c-.3 0-.4.1-.5.2-.1.1.5-.4 1.2 0 .6.4.1-.1.1-.1zm.6-1.4s.7-.7.6-.9c0-.1-.2-.1-.3-.1 0 0-.6.3-.8.7-.2.3-.1.6.5.3zm-.5.7s.2-.3-.3-.4c-.5-.1-1 0-1.1.1-.2.1-.3.3-.3.4 0 0 .2-.1.6-.2.4-.1.5 0 .6 0 0 .1.3.2.5.1"/><path d="M30.2 52.5s.7-.2.9-.4c.2-.1.4-.1.5.1.1.2.3.3.3.3s-.2-.6-.5-.7c-.3 0-.6-.1-1.1.2l-.4.3.1.3m-.2-.7s-.7-.2-.9-.3c-.2-.1-.4-.1-.4.1-.1.2-.2.3-.2.3s0-.7.3-.8c.3-.1.7-.3 1 .1.3.3.3.4.3.4l.1.2m.2 3s-.7-.2-.9-.3c-.2-.1-.4-.1-.4.1l-.2.4s0-.7.3-.8c.3-.1.7-.3 1 .1.3.3.3.4.3.4l.1.2m-.7-3.8s.2-.7.7-.6c.5 0 1.3.3 1.3.6s-.2-.5-1.1-.3c-.5.3-.6.7-.6.7m-.4-1.6s-.9-.6-1.2-.5c-.1 0-.2.1-.1.2 0 0 .4.5.8.6.5.2.9.1.5-.3z"/><path d="M29.8 50.5s-.5-.4-.8-.2c-.3.2-.3.4-.3.4s.3-.2.5-.2.5.3.6.2"/><path d="M29.6 50.4s.1-.8.8-.7c.7 0 .7.2.7.3 0 .1-.4-.2-.5 0-.2 0-.6.3-.6.3v.3m-.5-1.8s.2-.5.9-.6c.6-.1.8.2.8.3 0 .1-.3.1-.5-.1s-.4-.1-.7 0c-.2.2-.5.4-.5.4zm0 0s-.8-.7-1.6-.5c-.8.2 0 .3.2.3.4-.1 1.3.1 1.4.2zm10.2 4.9s.6.2.6.3c0 .1-.3-.9-1-.7-.7.2-.7.8-.7.8l1.1-.4zM37.3 55s-.6.3-.6.5c0 .1 0-.9.9-.9s1.2.6 1.2.6l-1.5-.2zm1.5-.3s.5-.6.8-.5c.1 0 .2.1.1.1 0 0-.2.4-.5.6-.3.2-.6.2-.4-.2z"/><path d="M39.1 57s-.4-.4-.3-.7c.2-.3-.7-3.3-.8-3.8-.1-.5-.5-2.9-.5-2.9s0-.2-.5-.1c-.4.1-.5 0-.5.3-.2 0 0-.8.5-.6l.5.1s-.6-.6-.9-.4c-.4.2.4-.5.7-.2l.3.4s0-.7.4-.6c.8-.3.3 0-.3.7 0 0 .2-.2.6-.1l.3.1.2.2s-.3.2-.7.1l-.4-.1 1.5 6.8s.5.9-.1.8z"/><path d="M38.5 55.1s-.6-.1-1-.1-.5.1-.7.3c-.2.2.6-.4 1.4 0 1 .3.3-.2.3-.2zm-.1-1.2s-.4-.5-1-.2-1.2.6-1 .8c.1.2 0-.3.7-.4.7-.1 1.3.3 1.4.2m.3-.2s.4-.3.7-.3c.3-.1.4 0 .6.1.2.1-.6-.2-1.1.3-.5.5-.2-.1-.2-.1zm-1.1-1.2s-.9-.5-.9-.7c0-.1.1-.2.2-.1 0 0 .7.1 1.1.4.3.3.3.5-.4.4zm.8.6s-.3-.3.2-.5c.4-.2.9-.2 1.1-.2.2.1.4.3.4.3s-.2-.1-.6-.1c-.4 0-.5.1-.6.2 0 .1-.3.3-.4.3"/><path d="M38.2 53.1s-.7-.1-1-.2c-.2-.1-.4 0-.4.2s-.2.3-.2.3-.1-.6.2-.8c.3-.1.6-.3 1.1-.1l.5.2v.3m0-.6s.6-.3.8-.5c.2-.2.3-.2.5 0 .1.2.3.3.3.3s-.3-.7-.6-.7-.7-.1-1 .3l-.2.4v.2m.9 3s.6-.3.8-.5c.2-.2.3-.2.5 0 .1.2.3.3.3.3s-.3-.7-.6-.7-.7-.1-1 .3l-.2.4v.2m-.7-3.7s-.4-.6-.9-.4c-.5.2-1.1.7-1 .9.1.3 0-.5.9-.6.6.2.8.5.8.5m-.1-1.5s.6-.7 1-.7c.1 0 .2.1.2.2 0 0-.2.6-.6.8-.4.1-.8.2-.6-.3z"/><path d="M37.9 51s.3-.5.7-.4c.4.2.4.4.4.4s-.4-.1-.5 0c-.2.1-.4.4-.5.3"/><path d="M38 50.9s-.3-.7-1-.5c-.7.2-.6.3-.6.4 0 .1.3-.3.5-.2.2.1.8.3.8.3l.1.3m-.3-1.8s-.4-.4-1-.3c-.6.1-.7.4-.7.5 0 .1.3 0 .4-.2.1-.2.4-.2.7-.1.3 0 .6.1.6.1z"/><path d="M37.5 49.4s.5-.8 1.3-.9c.9 0 .1.3-.1.3s-1.1.5-1.2.6zm32.4-4.3s.6.2.7.3c0 .1-.3-.9-1.1-.7-.7.2-.7.8-.7.8l1.1-.4zm-2.6 1.3s-.7.3-.6.5c0 .1 0-.9 1-.9s1.2.6 1.2.6l-1.6-.2zm1.7-.3s.5-.6.8-.6c.1 0 .2.1.1.1 0 0-.2.5-.5.6-.3.3-.6.3-.4-.1z"/><path d="M69.2 48.4s-.5-.4-.3-.7c.2-.3-.7-3.4-.8-3.9-.1-.5-.5-2.9-.5-2.9s0-.2-.5-.1-.6 0-.5.3c-.2 0 0-.8.5-.7l.5.1s-.6-.6-1-.4c-.4.2.4-.6.7-.2l.3.4s0-.7.5-.7c.8-.3.3 0-.3.7 0 0 .2-.2.6-.1l.4.1.2.2s-.3.2-.7.1l-.4-.1 1.5 7c0 .1.5 1-.2.9z"/><path d="M68.7 46.5s-.6-.1-1-.1-.5.1-.7.3c-.2.2.6-.4 1.5 0 .9.2.2-.2.2-.2zm-.2-1.2s-.4-.5-1-.2-1.2.6-1.1.8c.1.2 0-.3.7-.4.7-.1 1.4.3 1.5.2m.4-.3s.4-.3.7-.3c.3-.1.4 0 .6.1.2.1-.6-.2-1.2.3-.5.6-.1-.1-.1-.1zm-1.1-1.2s-1-.5-1-.8c0-.1.1-.2.2-.1 0 0 .8.1 1.1.4.4.4.4.7-.3.5zm.7.6s-.3-.3.2-.5c.4-.2 1-.2 1.2-.2.2.1.4.3.4.3s-.2-.1-.6-.1c-.4 0-.5.1-.6.2-.1.1-.3.3-.4.3"/><path d="M68.3 44.4s-.8-.1-1-.2c-.3-.1-.4 0-.5.2 0 .2-.2.4-.2.4s-.1-.7.2-.8c.3-.1.6-.3 1.1-.1l.5.2v.3m.2-.7s.6-.4.8-.5c.2-.2.3-.2.5 0 .1.2.3.3.3.3s-.3-.7-.6-.7-.8-.1-1 .3l-.2.4v.2m.8 3s.6-.4.8-.5c.2-.2.4-.2.5 0 .1.2.3.3.3.3s-.3-.7-.6-.7-.8-.1-1 .3l-.2.4v.2m-.6-3.6s-.4-.6-.9-.4c-.5.2-1.2.7-1.1 1 .1.3 0-.5 1-.6.6.2.8.5.8.5m-.2-1.8s.7-.8 1-.8c.1 0 .2.1.2.2 0 0-.2.6-.6.8-.4.3-.8.4-.6-.2z"/><path d="M68 42.3s.3-.5.7-.4c.4.1.4.3.4.3s-.4-.1-.6 0c-.2.1-.4.4-.5.3"/><path d="M68.1 42.2s-.4-.7-1.1-.5c-.7.2-.6.3-.6.5 0 .1.3-.3.5-.2.2.1.8.3.8.3l.2.3m-.2-1.9s-.4-.4-1.1-.3c-.6.1-.7.4-.7.5 0 .1.3 0 .4-.2.1-.2.4-.2.7-.1.3-.1.7.1.7.1z"/><path d="M67.7 40.7s.5-.8 1.4-.9c.9-.1.1.3-.2.3-.2 0-1.1.4-1.2.6zm-15.9 3.6s.6.2.6.3c0 .1-.3-.9-1-.7-.7.2-.7.8-.7.8l1.1-.4zm-2.4 1.3s-.6.3-.6.5c0 .1 0-.9.9-.9s1.2.6 1.2.6l-1.5-.2zm1.5-.3s.5-.6.8-.5c.1 0 .2.1.1.1 0 0-.2.4-.5.6-.3.2-.6.2-.4-.2z"/><path d="M51.2 47.6s-.4-.4-.3-.7c.2-.3-.7-3.3-.8-3.8-.1-.5-.5-2.9-.5-2.9s0-.2-.5-.1c-.4.1-.5 0-.5.3-.2 0 0-.8.5-.6l.5.1s-.6-.6-.9-.4c-.4.2.4-.5.7-.2l.3.4s0-.7.4-.6c.8-.3.3 0-.3.7 0 0 .2-.2.6-.1l.3.1.3.2s-.3.2-.7.1l-.4-.1 1.5 6.8s.4.9-.2.8z"/><path d="M50.7 45.7s-.6-.1-1-.1-.5.1-.7.3c-.2.2.6-.4 1.4 0 .9.3.3-.2.3-.2zm-.2-1.2s-.4-.5-1-.2-1.2.6-1 .8c.1.2 0-.3.7-.4.7-.1 1.3.3 1.4.2m.3-.2s.4-.3.7-.3c.3-.1.4 0 .6.1.2.1-.6-.2-1.1.3-.5.5-.2-.1-.2-.1zm-1-1.2s-.9-.5-.9-.7c0-.1.1-.2.2-.1 0 0 .7.1 1.1.4.2.3.3.5-.4.4zm.7.6s-.3-.3.2-.5c.4-.2.9-.2 1.1-.2.2.1.4.3.4.3s-.2-.1-.6-.1c-.4 0-.5.1-.6.2 0 .1-.3.3-.4.3"/><path d="M50.3 43.7s-.7-.1-1-.2c-.2-.1-.4 0-.4.2s-.2.3-.2.3-.1-.7.2-.8c.3-.1.6-.3 1.1-.1l.5.2v.3m0-.6s.6-.3.8-.5c.2-.2.3-.2.5 0 .1.2.3.3.3.3s-.3-.7-.6-.7-.7-.1-1 .3l-.2.4v.2m.9 3s.6-.3.8-.5c.2-.2.3-.2.5 0 .1.2.3.3.3.3s-.3-.7-.6-.7-.7-.1-1 .3c-.2.3-.2.4-.2.4v.2m-.6-3.7s-.4-.6-.9-.4c-.5.2-1.1.6-1 .9.1.3 0-.5.9-.6.6.2.8.5.8.5m-.2-1.5s.6-.7 1-.7c.1 0 .2.1.2.2 0 0-.2.6-.6.8-.4.1-.8.2-.6-.3z"/><path d="M50 41.6s.3-.5.7-.4c.4.1.4.3.4.3s-.4-.1-.5 0c-.2.1-.4.4-.5.3"/><path d="M50.1 41.5s-.3-.7-1-.5c-.7.2-.6.3-.6.4 0 .1.3-.3.5-.2.2.1.8.3.8.3l.1.3m-.2-1.8s-.4-.4-1-.3c-.6 0-.7.3-.7.5 0 .1.3 0 .4-.2.1-.2.4-.2.7-.1.3 0 .6.1.6.1zm0 0s.5-.8 1.3-.9c.8 0 .1.3-.1.3-.3 0-1.2.5-1.2.6zm6.2 3.4s-.5.3-.5.5c0 .1 0-.9.8-.9s1 .6 1 .6l-1.3-.2zm3 .6s.8.1.8.3c0 .1-.4-.9-1.3-.6-.9.3-.9.9-.9.9l1.4-.6z"/><path d="M57.2 44.1s-.7-.4-1-.3c-.1 0-.1.1-.1.2 0 0 .4.4.7.5.5 0 .7 0 .4-.4z"/><path d="M57.9 46.4s.3-.5 0-.7c-.3-.2-.7-3.4-.8-3.9-.1-.5-.7-2.9-.7-2.9s0-.2.4-.3c.5-.1.5-.1.6.1.2 0-.3-.7-.8-.5l-.4.3s.3-.7.8-.6c.4.1-.6-.4-.7 0l-.1.4s-.3-.7-.7-.5c-.9-.1-.3.1.5.6 0 0-.3-.1-.6.1l-.3.2-.1.3s.4.1.7-.1l.3-.2 1.3 7c.1 0 0 1 .6.7z"/><path d="M57.6 44.4s.5-.3.9-.4c.4-.1.5 0 .8.1.2.1-.7-.2-1.5.4-.6.5-.2-.1-.2-.1zm-.3-1.1s.2-.6.9-.5c.7.1 1.4.3 1.3.5-.1.2-.1-.3-.9-.2-.7.1-1.2.6-1.3.6m-.4-.2s-.5-.1-.8-.1c-.3 0-.4.1-.5.3-.1.2.5-.4 1.2 0 .7.3.1-.2.1-.2zm.6-1.4s.7-.7.6-1c0-.1-.2-.1-.3-.1 0 0-.7.3-.9.7-.1.4 0 .7.6.4zm-.5.8s.1-.3-.4-.4c-.5-.1-1 0-1.2.1-.2.1-.3.4-.3.4s.2-.1.6-.2c.4-.1.5-.1.6 0 .2 0 .5.1.7.1"/><path d="M57.2 42.4s.7-.3.9-.4c.2-.2.4-.1.5.1.1.2.3.3.3.3s-.2-.7-.5-.7-.7-.1-1.1.2l-.5.3.2.3m-.3-.7s-.7-.2-1-.3c-.2-.1-.4-.1-.5.2 0 .2-.2.3-.2.3s0-.7.3-.8c.3-.1.7-.3 1.1 0 .4.3.4.4.4.4l.1.2m.3 3s-.7-.2-1-.3c-.2-.1-.4-.1-.5.2l-.2.4s0-.7.3-.8c.3-.1.7-.3 1.1 0 .4.3.4.4.4.4l.1.2m-.8-3.8s.2-.7.7-.7c.5 0 1.4.3 1.4.6s-.2-.5-1.2-.3c-.5.3-.6.7-.6.7m-.5-1.6s-.9-.5-1.3-.5c-.1 0-.2.1-.1.2 0 0 .4.5.9.6.5.3.9.2.5-.3z"/><path d="M56.6 40.3s-.5-.4-.8-.2c-.3.2-.3.4-.3.4s.3-.2.5-.2.5.2.6.2"/><path d="M56.4 40.2s.1-.8.8-.8c.7 0 .7.2.8.3 0 .1-.4-.2-.6 0-.2.2-.7.5-.7.5v.3m-.4-1.9s.2-.5.9-.6c.6-.1.8.2.9.3.1.1-.3.1-.5-.1s-.4-.1-.7.1c-.3.1-.6.3-.6.3zm0 0s-.8-.7-1.7-.5c-.9.2 0 .3.3.3.2 0 1.3.2 1.4.2zm6.4 6.9s.6.2.7.3c0 .1-.3-.9-1.1-.7-.7.2-.7.8-.7.8l1.1-.4zm-2.6 1.3s-.7.3-.6.5c0 .1 0-.9 1-.9s1.2.6 1.2.6l-1.6-.2z"/><path d="M61.7 46.4s.5-.6.8-.6c.1 0 .2.1.1.1 0 0-.2.5-.5.6-.3.3-.6.3-.4-.1z"/><path d="M62 48.8s-.5-.4-.3-.7c.2-.3-.7-3.4-.8-3.9-.1-.5-.5-2.9-.5-2.9s0-.2-.5-.1-.6 0-.5.3c-.2 0 0-.8.5-.7l.5.1s-.6-.6-1-.4c-.4.2.4-.6.7-.2l.3.4s0-.7.5-.6c.8-.3.3 0-.3.7 0 0 .2-.2.6-.1l.3.1.2.2s-.3.2-.7.1l-.3-.1 1.5 7s.5.9-.2.8z"/><path d="M61.4 46.8s-.6-.1-1-.1-.5.1-.7.3c-.2.2.6-.4 1.5 0 .9.3.2-.2.2-.2zm-.1-1.2s-.4-.5-1-.2-1.2.6-1.1.8c.1.2 0-.3.7-.4.7-.1 1.4.3 1.5.2m.3-.2s.4-.3.7-.3c.3-.1.4 0 .6.1.2.1-.6-.2-1.1.3-.5.5-.2-.1-.2-.1zm-1.1-1.2s-1-.5-1-.8c0-.1.1-.2.2-.1 0 0 .8.1 1.1.4.4.3.5.6-.3.5zm.8.6s-.3-.3.2-.5c.4-.2 1-.2 1.2-.2.2.1.4.3.4.3s-.2-.1-.6-.1c-.4 0-.5.1-.6.2-.1.1-.3.3-.4.3"/><path d="M61.1 44.8s-.8-.1-1-.2c-.3-.1-.4 0-.5.2 0 .2-.2.4-.2.4s-.1-.7.2-.8c.3-.1.6-.3 1.1-.1l.5.2v.3m.1-.7s.6-.4.8-.5c.2-.2.4-.2.5 0l.3.3s-.3-.7-.6-.7-.8-.1-1 .3l-.2.4v.2m.9 3s.6-.4.8-.5c.2-.2.3-.2.5 0l.3.3s-.3-.7-.6-.7-.8-.1-1 .3l-.2.4v.2m-.7-3.7s-.4-.6-.9-.4c-.5.2-1.2.7-1.1 1 .1.3 0-.5 1-.6.6.2.8.5.8.5m-.1-1.7s.7-.8 1-.8c.1 0 .2.1.2.2 0 0-.2.6-.6.8-.4.3-.8.4-.6-.2z"/><path d="M60.8 42.7s.3-.5.7-.4c.4.1.4.3.4.3s-.4-.1-.6 0c-.2.1-.4.4-.5.3"/><path d="M60.9 42.6s-.4-.7-1.1-.5c-.7.2-.6.3-.6.5 0 .1.3-.3.5-.2.2.1.8.3.8.3l.2.3m-.3-2s-.4-.4-1.1-.3c-.6.1-.7.4-.7.5 0 .1.3 0 .4-.2.1-.2.4-.2.7-.1.4 0 .7.1.7.1z"/><path d="M60.4 41s.5-.8 1.4-.9c.9-.1.1.3-.2.3-.2 0-1.1.5-1.2.6zm5.2 1.8s.6.2.6.3c0 .1-.3-.9-1-.7-.7.2-.7.8-.7.8l1.1-.4zm-2.4 1.3s-.6.3-.6.5c0 .1 0-.9.9-.9s1.2.6 1.2.6l-1.5-.2z"/><path d="M64.7 43.7s.5-.6.8-.5c.1 0 .2.1.1.1 0 0-.2.4-.5.6-.3.2-.6.3-.4-.2z"/><path d="M65 46.1s-.4-.4-.3-.7c.2-.3-.7-3.3-.8-3.8-.1-.5-.5-2.9-.5-2.9s0-.2-.5-.1c-.4.1-.5 0-.5.3-.2 0 0-.8.5-.6l.5.1s-.6-.6-.9-.4c-.4.2.4-.5.7-.2l.3.4s0-.7.4-.6c.8-.3.3 0-.3.7 0 0 .2-.2.6-.1l.3.1.2.2s-.3.2-.7.1l-.4-.1 1.5 6.8s.5.8-.1.8z"/><path d="M64.4 44.1s-.6-.1-1-.1-.5.1-.7.3c-.2.2.6-.4 1.4 0 1 .3.3-.2.3-.2zm-.1-1.1s-.4-.5-1-.2-1.2.6-1 .8c.1.2 0-.3.7-.4.7-.1 1.3.3 1.4.2m.3-.3s.4-.3.7-.3c.3-.1.4 0 .6.1.2.1-.6-.2-1.1.3-.5.5-.2-.1-.2-.1zM63.6 42s-.9-.5-.9-.7c0-.1.1-.2.2-.1 0 0 .7.1 1.1.4.3.2.3.5-.4.4zm.8.6s-.3-.2.2-.5c.4-.2.9-.2 1.1-.2.2.1.4.3.4.3s-.2-.1-.6-.1c-.4 0-.5.1-.6.2 0 .1-.3.3-.4.3"/><path d="M64.1 42.2s-.7-.1-1-.2c-.2-.1-.4 0-.4.2s-.2.3-.2.3-.1-.7.2-.8c.3-.1.6-.3 1.1-.1l.5.2v.3m0-.6s.6-.3.8-.5c.2-.2.3-.2.5 0 .1.2.3.3.3.3s-.3-.7-.6-.7-.7-.1-1 .3l-.2.4v.2m.9 2.9s.6-.3.8-.5c.2-.2.3-.2.5 0 .1.2.3.3.3.3s-.3-.7-.6-.7-.7-.1-1 .3l-.2.4v.2m-.7-3.6s-.4-.6-.9-.4c-.5.2-1.1.6-1 .9.1.3 0-.5.9-.6.6.2.8.5.8.5m-.1-1.6s.6-.7 1-.7c.1 0 .2.1.2.2 0 0-.2.6-.6.8-.4.2-.8.3-.6-.3z"/><path d="M63.8 40.1s.3-.5.7-.4c.4.1.4.3.4.3s-.4-.1-.5 0c-.2.1-.4.4-.5.3"/><path d="M63.9 40s-.4-.7-1-.5c-.7.2-.6.3-.6.4 0 .1.3-.3.5-.2.2.1.8.3.8.3l.1.3m-.3-1.8s-.4-.4-1-.3c-.6.1-.7.4-.7.5 0 .1.3 0 .4-.2.1-.2.4-.2.7-.1.3-.1.6.1.6.1zm0 0s.5-.8 1.3-.9c.9 0 .1.3-.1.3s-1.1.5-1.2.6zm-17.7 8.2s-.5.3-.5.4c0 .1 0-.9.7-.9s.9.6.9.6l-1.1-.1zm2.8.6s.7.2.8.3c0 .1-.3-.9-1.2-.6-.9.2-.9.8-.9.8l1.3-.5zm-1.6.1s-.7-.4-.9-.3c-.1 0-.1.1-.1.2 0 0 .3.4.7.5.4 0 .6-.1.3-.4z"/><path d="M47.5 49.6s.3-.5 0-.7c-.3-.2-.5-3.3-.6-3.8-.1-.5-.6-2.9-.6-2.9s0-.2.4-.3c.4-.1.5-.1.6.1.2 0-.3-.7-.7-.5l-.4.3s.3-.7.7-.6c.4.1-.6-.4-.7 0l-.1.4s-.2-.7-.7-.5c-.9-.1-.3.1.5.6 0 0-.3-.1-.6.1l-.3.2v.4s.4.1.7-.1l.3-.2 1 6.9c.1 0-.1.9.5.6z"/><path d="M47.3 47.7s.5-.3.9-.3c.4-.1.5 0 .7.1.2.1-.7-.2-1.4.3s-.2-.1-.2-.1zm-.3-1.2s.2-.6.9-.5c.7.1 1.3.3 1.3.5-.1.2-.1-.3-.8-.2-.7 0-1.2.6-1.3.6m-.4-.1s-.5-.1-.8-.1c-.3 0-.4.1-.5.2-.1.1.5-.4 1.2 0 .6.4.1-.1.1-.1zm.6-1.4s.7-.7.6-.9c0-.1-.2-.1-.2-.1s-.7.3-.9.7c-.2.3-.1.6.5.3zm-.5.8s.1-.3-.3-.4c-.5-.1-1 0-1.1.1-.2.1-.3.3-.3.4 0 0 .2-.1.6-.2.4-.1.5-.1.6 0 0 0 .3.1.5.1"/><path d="M46.9 45.7s.7-.2.9-.4c.2-.1.4-.1.5.1.1.2.3.3.3.3s-.2-.7-.5-.7-.6-.1-1.1.2l-.4.3.1.3m-.2-.7s-.7-.2-.9-.3c-.2-.1-.4-.1-.4.1-.1.2-.2.3-.2.3s0-.7.3-.8c.3-.1.7-.3 1 .1.3.3.3.4.3.4l.1.2m.2 3s-.7-.2-.9-.3c-.2-.1-.4-.1-.4.1-.1.2-.2.3-.2.3s0-.7.3-.8c.3-.1.7-.3 1 .1.3.3.3.4.3.4l.1.2m-.7-3.7s.2-.7.7-.6c.5 0 1.3.3 1.3.6s-.2-.5-1.1-.3c-.5.3-.6.7-.6.7m-.4-1.6s-.9-.6-1.2-.5c-.1 0-.2.1-.1.2 0 0 .4.5.8.6.5.2.9.2.5-.3z"/><path d="M46.5 43.7s-.5-.4-.8-.2c-.3.2-.3.4-.3.4s.3-.2.5-.2.5.3.6.2"/><path d="M46.3 43.6s.1-.8.8-.7c.7 0 .7.2.7.3 0 .1-.4-.2-.5 0-.2.2-.6.5-.6.5v.3m-.5-2s.3-.5.9-.6c.6-.1.8.2.8.3.1.1-.3.1-.5-.1s-.4-.1-.7 0c-.2.2-.5.4-.5.4z"/><path d="M46.2 42s-.8-.7-1.6-.5c-.8.2 0 .3.2.3.3-.1 1.3.1 1.4.2zm10.2 5s.6.2.6.3c0 .1-.3-.9-1-.7-.7.2-.7.8-.7.8l1.1-.4zm-2.5 1.3s-.6.3-.6.5c0 .1 0-.9.9-.9s1.2.6 1.2.6l-1.5-.2z"/><path d="M55.5 47.9s.5-.6.8-.5c.1 0 .2.1.1.1 0 0-.2.4-.5.6-.3.2-.6.2-.4-.2z"/><path d="M55.7 50.2s-.4-.4-.3-.7c.2-.3-.7-3.3-.8-3.8-.1-.5-.5-2.9-.5-2.9s0-.2-.5-.1c-.4.1-.5 0-.5.3-.2 0 0-.8.5-.6l.5.1s-.6-.6-.9-.4c-.4.2.4-.5.7-.2l.3.4s0-.7.4-.6c.8-.3.3 0-.3.7 0 0 .2-.2.6-.1l.3.1.2.2s-.3.2-.7.1l-.4-.1 1.5 6.8c.1.1.6.9-.1.8z"/><path d="M55.2 48.3s-.6-.1-1-.1-.5.1-.7.3c-.2.2.6-.4 1.4 0 1 .3.3-.2.3-.2zm-.1-1.1s-.4-.5-1-.2-1.2.6-1 .8c.1.2 0-.3.7-.4.7-.1 1.3.3 1.4.2m.3-.3s.4-.3.7-.3c.3-.1.4 0 .6.1.2.1-.6-.2-1.1.3-.5.5-.2-.1-.2-.1zm-1.1-1.2s-.9-.5-.9-.7c0-.1.1-.2.2-.1 0 0 .7.1 1.1.4.3.3.3.6-.4.4zm.8.6s-.3-.2.2-.5c.4-.2.9-.2 1.1-.2.2.1.4.3.4.3s-.2-.1-.6-.1c-.4 0-.5.1-.6.2 0 .1-.3.3-.4.3"/><path d="M54.9 46.3s-.7-.1-1-.2c-.2-.1-.4 0-.4.2s-.2.3-.2.3-.1-.7.2-.8c.3-.1.6-.3 1.1-.1l.5.2v.3m0-.6s.6-.3.8-.5c.2-.2.3-.2.5 0 .1.2.3.3.3.3s-.3-.7-.6-.7-.7-.1-1 .3l-.2.4v.2m.9 3s.6-.3.8-.5c.2-.2.3-.2.5 0 .1.2.3.3.3.3s-.3-.7-.6-.7-.7-.1-1 .3l-.2.4v.2m-.7-3.6s-.4-.6-.9-.4c-.5.2-1.1.6-1 .9.1.3 0-.5.9-.6.6.2.8.5.8.5m-.1-1.6s.6-.7 1-.7c.1 0 .2.1.2.2 0 0-.2.6-.6.8-.5.2-.8.2-.6-.3z"/><path d="M54.6 44.3s.3-.5.7-.4c.4.1.4.3.4.3s-.4-.1-.5 0c-.2.1-.4.4-.5.3m0-.4s-.3-.7-1-.5c-.7.2-.6.3-.6.4 0 .1.3-.3.5-.2.2.1.8.3.8.3l.1.3m-.3-1.8s-.4-.4-1-.3c-.6.1-.7.4-.7.5 0 .1.3 0 .4-.2.1-.2.4-.2.7-.1.3 0 .6.1.6.1zm0 0s.5-.8 1.3-.9c.8 0 .1.3-.1.3-.2.1-1.1.5-1.2.6z"/></g><path fill="#676767" stroke="#3A3737" stroke-width=".25" d="M131.6 46.2l-2.2.3-3.2-.3.5-14.9.6-.1-.6-.4h11.4l-2.2 15.3z"/><path fill="#CCCBCB" stroke="#676767" stroke-width=".25" d="M131.8 27.1s-3.8.9-4.5 2.1c-.7 1.2-.7 1.6-.7 1.6l.9.4 10.1-.1.7-.3s-.1-2-2.3-3.3c-.6-.3-2-.5-2-.5l-.7-.4h-1.2l-.3.5z"/><path fill="none" stroke="#676767" stroke-width=".25" d="M137.9 31s-.8-2.4-2.5-3.1c-1.7-.7-1.8-.7-1.8-.7l-.5-.5h-.3l.2.5s1.3.7 2.4 2c1 1.3.7 1.9.7 1.9l-2.4.1s.4-.8-.7-2.7c-1-1.9-.6-1.8-.6-1.8l-.4.2-.2.2s-.1.3-.1.4c0 .1-.2 1.3-.2 1.4 0 .1-.2.5-.2.6 0 .1-.3 1-.3 1l-.7.7h-2s.9-.7 1.3-1.4c.3-.6.5-1.2.6-1.3 0-.1.5-.8.5-.8l.6-.3-1.6.5s-.8.4-1.4 1.3c-.5.9-.7 1.4-.7 1.4l-.6.4"/><path fill="#676767" stroke="#3A3737" stroke-width=".25" d="M132.4 37.6l-3.4.1-.3-.4 6.1-4.4 7.8-3.1.8.1v1.4z"/><path fill="#CB3433" stroke="#653614" stroke-width=".25" d="M155.3 46.9l-23.7-.3-.3-9.8 3.9-3.1 8.1-3.3.9-.3 8.2 3.1 6.2 5.6 5.1-.2 11.8-.5-.2 6.6-20.4 2.2"/><path fill="none" stroke="#653614" stroke-width=".25" d="M157 37.1l.4 9.4"/><path fill="#676767" stroke="#3A3737" stroke-width=".25" d="M158 38.9l-7.3-5.8-8.4-3.5v-.3l10.9.2 8.4.5s4 .4 8.4 3.1c4.4 2.6 6.8 4.9 6.8 4.9l-18.8.9z"/><g stroke="#353130" stroke-width=".25"><path fill="#973620" d="M147.3 46.8l-9.6-.1.2-5.3 9.6.1z"/><path fill="#F2E9E8" d="M138 46.7l.2-4.8 8.2.1-.2 4.8h1.4v-5.5l-9.9-.1h-.5l-.5 5.3z"/></g><path fill="#CB3433" stroke="#973620" stroke-width=".25" d="M168.6 44.7v-6m-5.9 7.5l-.1-7.4m3 6.6l-.1-6.6M132.7 46l-.1-10.2m19 10.7l-.2-12.7"/><path fill="#F2E9E8" stroke="#353130" stroke-width=".25" d="M148.9 43.3v-1.7l2.1.1v1.6z"/><path fill="#653614" d="M149.4 42.9l.1-1 1 .1v1z"/><path fill="#CB3433" stroke="#973620" stroke-width=".25" d="M135.4 46.2l-.1-12.5"/><path fill="#F2E9E8" stroke="#353130" stroke-width=".25" d="M136.2 43v-1.7l-2.1.1-.1 1.6z"/><path fill="#653614" d="M135.6 42.7v-1h-1l-.1 1z"/><path fill="#CB3433" stroke="#973620" stroke-width=".25" d="M138 41.2l-.1-8.6m2.7 8.6l-.2-9.6m2.6 9.6l-.1-10.7m3 10.7l-.2-10.1m2.8 15.3l-.1-14.1"/><path fill="#F2E9E8" stroke="#353130" stroke-width=".25" d="M141.5 32.8h3.1l.1-1.2-1.6-.7-1.5.7z"/><path fill="#653614" d="M142.1 32.4v-.6l.9-.4 1.1.3v.7z"/><g stroke="#353130" stroke-width=".25"><path fill="#F2E9E8" d="M139.9 40.7l.1-3.2 5.6.1-.2 3.2z"/><path fill="#973620" d="M140.5 40.2l.1-2.3 4.1.1v2.3z"/></g><path fill="#CB3433" stroke="#973620" stroke-width=".25" d="M154.5 46.5l-.1-10.3m5.5 10.2l-.1-7.4m12-.5c0 .5-.1 5.7-.1 5.7"/><path fill="#FFF" d="M50.3 9c-.5-1-2.7-1.6-4.7-.7-2.5-1.7-6.9 0-8.2 1.1-2.9-.5-6.2-1.5-8.5-.1-3.2-1.1-9.1-.3-9 1.3 2.9.2 5.8.1 8.4.3 2.8.2 3.9 1 7.3.2 1.6.8 3.8.9 5.1 0 2.6.6 6.4.1 6.9-1 4.2 1.6 12.6-.4 2.2-.8m39.1 5.2c-.5-.6-3-1-5.1-.4-2.7-1-7.7 0-9.1.7-3.2-.3-6.8-.9-9.3-.1-3.5-.7-10-.2-9.9.8 3.2.1 6.4.1 9.3.2 3.1.1 4.3.6 8 .1 1.8.5 4.1.5 5.6 0 2.9.4 7.1.1 7.6-.6 4.6 1 13.9-.2 2.4-.5m100.8-6c-.5-1.6-2.6-2.5-4.4-1.1-2.3-2.6-6.6 0-7.8 1.7-2.8-.8-5.8-2.3-8-.1-3-1.7-8.6-.5-8.5 2 2.7.4 5.5.2 8 .5 2.7.3 3.7 1.5 6.9.3 1.6 1.2 3.6 1.4 4.8 0 2.5 1 6.1.2 6.5-1.6 4 2.5 11.9-.6 2-1.3" opacity=".63"/><g fill="#146734"><path d="M195.5 45.7s-.4.1-.4.2.2-.5.7-.4c.5.1.5.5.5.5l-.8-.3zm1.7.8s.4.2.4.3c0 .1 0-.5-.7-.5s-.8.3-.8.3l1.1-.1zm-1-.2s-.4-.3-.5-.3c-.1 0-.1 0-.1.1 0 0 .1.3.3.4.2 0 .4 0 .3-.2z"/><path d="M196 47.6s.3-.2.2-.4c-.1-.2.5-1.9.5-2.2.1-.3.3-1.7.3-1.7s0-.1.3-.1.4 0 .4.2c.1 0 0-.4-.3-.4l-.3.1s.4-.3.6-.2c.3.1-.3-.3-.5-.1l-.2.2s0-.4-.3-.4c-.5-.2-.2 0 .2.4 0 0-.2-.1-.4 0l-.2.1-.1.1s.2.1.5.1l.3-.1-1 3.9c-.1.1-.5.5 0 .5z"/><path d="M196.4 46.5s.4-.1.7-.1c.3 0 .3.1.5.2.1.1-.4-.2-1 0-.7.2-.2-.1-.2-.1zm.1-.7s.3-.3.7-.1c.4.2.8.4.7.5-.1.1 0-.2-.5-.2-.5-.1-.9.2-1 .1m-.2-.2s-.3-.1-.5-.2c-.2 0-.3 0-.4.1-.1.1.4-.1.8.2.3.3.1-.1.1-.1zm.7-.7s.7-.3.6-.4c0-.1-.1-.1-.1-.1s-.5.1-.7.2c-.3.2-.3.4.2.3zm-.5.4s.2-.1-.1-.3c-.3-.1-.6-.1-.8-.1-.1 0-.3.1-.3.2h.4c.3 0 .4 0 .4.1.1 0 .2.1.4.1"/><path d="M196.6 45.3s.5 0 .7-.1c.2 0 .3 0 .3.1s.1.2.1.2.1-.4-.1-.4c-.2-.1-.4-.2-.8-.1l-.4.1v.2m0-.3s-.4-.2-.5-.3c-.1-.1-.2-.1-.3 0l-.2.2s.2-.4.4-.4.5-.1.7.2c.2.2.1.2.1.2v.1m-.6 1.6s-.4-.2-.5-.3c-.1-.1-.2-.1-.3 0l-.2.2s.2-.4.4-.4.5-.1.7.2c.2.2.1.2.1.2v.1m.4-2s.3-.3.6-.2c.3.1.8.4.7.5-.1.2 0-.3-.6-.3-.4.1-.5.3-.5.3m0-1s-.4-.4-.7-.4c-.1 0-.2 0-.1.1 0 0 .1.3.4.5.3.1.5.1.4-.2z"/><path d="M196.8 44.2s-.2-.3-.5-.2c-.3.1-.3.2-.3.2s.2-.1.4 0c.1.1.3.2.3.2"/><path d="M196.7 44.1s.2-.4.7-.3c.5.1.4.2.4.3 0 .1-.2-.2-.3-.1-.2.1-.5.2-.5.2l-.1.2m.1-1.2s.3-.2.7-.2c.4 0 .5.2.5.3 0 .1-.2 0-.3-.1-.1-.1-.3-.1-.5-.1-.2.1-.4.1-.4.1z"/><path d="M197 43.2s-.3-.5-.9-.5c-.6 0-.1.2.1.2s.8.3.8.3zm10.5 2.1s-.4.1-.4.2.2-.5.7-.4c.5.1.4.5.4.5l-.7-.3zm1.6.7s.4.2.4.3c0 .1 0-.5-.6-.5s-.8.3-.8.3l1-.1z"/><path d="M208.1 45.8s-.3-.3-.5-.3c-.1 0-.1 0-.1.1 0 0 .1.2.3.3.3.1.4.2.3-.1z"/><path d="M207.9 47.1s.3-.2.2-.4c-.1-.2.4-1.9.5-2.1.1-.3.3-1.6.3-1.6s0-.1.3-.1.3 0 .3.2c.1 0 0-.4-.3-.4l-.3.1s.4-.3.6-.2c.2.1-.3-.3-.4-.1l-.2.2s0-.4-.3-.4c-.5-.2-.2 0 .2.4 0 0-.2-.1-.4 0l-.2.1-.1.1s.2.1.5.1l.3-.1-1 3.8c-.1 0-.4.5 0 .4z"/><path d="M208.3 46s.4-.1.7-.1c.3 0 .3.1.4.2.1.1-.4-.2-1 0-.5.2-.1-.1-.1-.1zm.1-.6s.3-.3.7-.1c.4.2.8.3.7.5-.1.1 0-.2-.5-.2-.5-.1-.9.2-.9.1m-.3-.2s-.3-.1-.5-.2c-.2 0-.3 0-.4.1-.1.1.4-.1.7.2.4.2.2-.1.2-.1zm.7-.7s.6-.3.6-.4l-.1-.1s-.5.1-.7.2c-.2.2-.2.4.2.3zm-.5.4s.2-.1-.1-.3c-.3-.1-.6-.1-.8-.1-.1 0-.3.1-.3.2h.4c.3 0 .3 0 .4.1.1 0 .3.1.4.1"/><path d="M208.5 44.9s.5 0 .7-.1c.2 0 .3 0 .3.1s.1.2.1.2.1-.4-.1-.4c-.2-.1-.4-.1-.7-.1l-.3.1v.2m-.1-.3s-.4-.2-.5-.3c-.1-.1-.2-.1-.3 0l-.2.2s.2-.4.4-.4.5-.1.6.2l.1.2v.1m-.6 1.6s-.4-.2-.5-.3c-.1-.1-.2-.1-.3 0l-.2.2s.2-.4.4-.4.5-.1.6.2l.1.2v.1m.5-2s.3-.3.6-.2c.3.1.7.4.7.5-.1.2 0-.3-.6-.3-.4.1-.5.3-.5.3m0-1s-.4-.4-.6-.4c-.1 0-.1 0-.1.1 0 0 .1.3.4.5.2.1.5.1.3-.2z"/><path d="M208.7 43.8s-.2-.3-.5-.2c-.3.1-.3.2-.3.2s.2-.1.4 0c.1.1.3.2.3.2"/><path d="M208.6 43.7s.2-.4.7-.3c.4.1.4.2.4.2 0 .1-.2-.2-.3-.1-.2.1-.5.2-.5.2l-.1.2m.2-1s.3-.2.7-.2c.4 0 .5.2.5.3 0 .1-.2 0-.3-.1-.1-.1-.3-.1-.5-.1s-.4.1-.4.1z"/><path d="M209 42.9s-.3-.5-.9-.5c-.6 0-.1.2.1.2.1-.1.7.2.8.3zm-4.2 1.9s.3.2.3.3c0 .1 0-.5-.5-.5s-.7.3-.7.3l.9-.1zm-1.9.3s-.5.1-.5.2.2-.5.9-.4c.6.1.6.5.6.5l-1-.3z"/><path d="M204 45.2s.5-.2.7-.2c.1 0 .1.1 0 .1 0 0-.2.2-.5.3-.3 0-.5 0-.2-.2z"/><path d="M203.5 46.5s-.2-.3 0-.4c.2-.1.5-1.9.5-2.2.1-.3.5-1.6.5-1.6s0-.1-.3-.2c-.3 0-.4-.1-.4.1-.1 0 .2-.4.5-.3l.3.1s-.2-.4-.5-.3c-.3.1.4-.2.5 0l.1.2s.2-.4.5-.3c.6 0 .2 0-.4.3 0 0 .2-.1.4 0l.2.1.1.1s-.3.1-.5-.1l-.2-.1-.9 3.9c-.1.3 0 .8-.4.7z"/><path d="M203.7 45.3s-.4-.2-.6-.2h-.5c-.1.1.5-.1 1 .2.4.4.1 0 .1 0zm.2-.6s-.1-.3-.6-.3c-.5.1-.9.2-.9.3 0 .1.1-.2.6-.1.5 0 .8.4.9.3m.2-.1s.3-.1.6-.1c.2 0 .3.1.4.1.1.1-.3-.2-.8 0-.5.3-.2 0-.2 0zm-.3-.8s-.5-.4-.4-.5c0-.1.1-.1.2 0 0 0 .4.2.6.4 0 .1 0 .3-.4.1zm.3.5s-.1-.2.2-.2c.3-.1.7 0 .8.1l.2.2s-.1-.1-.4-.1c-.3-.1-.4 0-.4 0-.1-.1-.3 0-.4 0"/><path d="M204 44.2s-.5-.1-.6-.2c-.1-.1-.3-.1-.3 0l-.2.2s.1-.4.3-.4c.2 0 .4-.1.7.1l.3.2-.1.2m.2-.4s.5-.1.6-.2c.2-.1.3 0 .3.1s.1.2.1.2 0-.4-.2-.5c-.2-.1-.5-.2-.7 0-.3.2-.2.2-.2.2l-.1.1m-.1 1.8s.5-.1.6-.2c.2-.1.3 0 .3.1s.1.2.1.2 0-.4-.2-.5c-.2-.1-.5-.2-.7 0l-.2.2-.1.1"/><path d="M204.4 43.5s-.1-.4-.5-.4-.9.2-.9.4.1-.3.8-.2c.3.2.4.4.4.4m.3-.9s.6-.3.8-.3c.1 0 .1.1.1.1s-.3.3-.6.4c-.3.1-.6 0-.3-.2z"/><path d="M204.4 43s.3-.2.6-.1c.2.1.2.2.2.2s-.2-.1-.3-.1c-.2 0-.4.1-.4.1"/><path d="M204.5 43s0-.4-.5-.4-.5.1-.5.1c0 .1.3-.1.4 0 .1.1.4.3.4.3v.2m.3-1.1s-.2-.3-.6-.3c-.4-.1-.6.1-.6.2s.2.1.3 0c.1-.1.3 0 .5 0s.4.1.4.1z"/><path d="M204.6 42.1s.5-.4 1.1-.3c.6.1 0 .2-.2.1-.2 0-.9.1-.9.2zm-4.3 3.8s-.4.1-.4.2.2-.5.7-.4c.5.1.5.5.5.5l-.8-.3zm1.7.8s.4.2.4.3c0 .1 0-.5-.7-.5-.6 0-.8.3-.8.3l1.1-.1z"/><path d="M201 46.5s-.4-.3-.5-.3c-.1 0-.1 0-.1.1 0 0 .1.3.3.4.2 0 .4 0 .3-.2z"/><path d="M200.8 47.8s.3-.2.2-.4c-.1-.2.5-1.9.5-2.2.1-.3.3-1.7.3-1.7s0-.1.3-.1.4 0 .4.2c.1 0 0-.4-.3-.4l-.3.1s.4-.3.6-.2c.2.1-.3-.3-.5-.1l-.2.2s0-.4-.3-.4c-.5-.2-.2 0 .2.4 0 0-.2-.1-.4 0l-.2.1-.1.1s.2.1.5.1l.3-.1-1 3.9c-.1.1-.5.5 0 .5z"/><path d="M201.1 46.7s.4-.1.7-.1c.3 0 .3.1.5.2.1.1-.4-.2-1 0s-.2-.1-.2-.1zm.2-.7s.3-.3.7-.1c.4.2.8.4.7.5-.1.1 0-.2-.5-.2-.5-.1-.9.2-1 .1m-.2-.2s-.3-.1-.5-.2c-.2 0-.3 0-.4.1-.1.1.4-.1.8.2.3.3.1-.1.1-.1zm.7-.7s.7-.3.6-.4c0-.1-.1-.1-.1-.1s-.5.1-.7.2c-.3.3-.3.4.2.3zm-.5.4s.2-.1-.1-.3c-.3-.1-.6-.1-.8-.1-.1 0-.3.1-.3.2h.4c.3 0 .4 0 .4.1.1 0 .2.1.4.1"/><path d="M201.4 45.5s.5 0 .7-.1c.2 0 .3 0 .3.1s.1.2.1.2.1-.4-.1-.4c-.2-.1-.4-.2-.8-.1l-.4.1v.2m0-.3s-.4-.2-.5-.3c-.1-.1-.2-.1-.3 0l-.2.2s.2-.4.4-.4.5-.1.7.2c.2.2.1.2.1.2v.1m-.6 1.7s-.4-.2-.5-.3c-.1-.1-.2-.1-.3 0l-.2.2s.2-.4.4-.4.5-.1.7.2c.2.2.1.2.1.2v.1"/><path d="M201.3 44.8s.3-.3.6-.2c.3.1.8.4.7.5-.1.2 0-.3-.6-.3-.4.1-.5.3-.5.3m.1-1s-.4-.4-.7-.4c-.1 0-.2 0-.1.1 0 0 .1.3.4.5.3.1.5.1.4-.2z"/><path d="M201.6 44.4s-.2-.3-.5-.2c-.3.1-.3.2-.3.2s.2-.1.4 0c.1.1.3.2.3.2"/><path d="M201.5 44.3s.2-.4.7-.3c.5.1.4.2.4.3 0 .1-.2-.2-.3-.1-.2.1-.5.2-.5.2l-.1.2m.1-1.2s.3-.2.7-.2c.4 0 .5.2.5.3 0 .1-.2 0-.3-.1-.1-.1-.3-.1-.5-.1-.2.1-.4.1-.4.1z"/><path d="M201.8 43.4s-.3-.5-.9-.5c-.6 0-.1.2.1.2s.8.3.8.3zm-3.4 1s-.4.1-.4.2.2-.5.7-.4c.5.1.4.5.4.5l-.7-.3zm1.6.8s.4.2.4.3c0 .1 0-.5-.6-.5s-.8.3-.8.3l1-.1zm-1-.2s-.3-.3-.5-.3c-.1 0-.1 0-.1.1 0 0 .1.2.3.4.2 0 .4 0 .3-.2z"/><path d="M198.8 46.3s.3-.2.2-.4c-.1-.2.4-1.9.5-2.1.1-.3.3-1.6.3-1.6s0-.1.3-.1.3 0 .3.2c.1 0 0-.4-.3-.4l-.3.1s.4-.3.6-.2c.2.1-.3-.3-.4-.1l-.2.2s0-.4-.3-.4c-.5-.2-.2 0 .2.4 0 0-.2-.1-.4 0l-.2.1h-.1s.2.1.5.1l.2-.1-1 3.8s-.3.5.1.5z"/><path d="M199.2 45.2s.4-.1.7-.1c.3 0 .3.1.4.2.1.1-.4-.2-1 0s-.1-.1-.1-.1zm.1-.7s.3-.3.7-.1c.4.2.8.3.7.5-.1.1 0-.2-.5-.2-.5-.1-.9.1-1 .1m-.2-.2s-.3-.1-.5-.2c-.2 0-.3 0-.4.1-.1.1.4-.1.7.2.4.3.2-.1.2-.1zm.7-.6s.6-.3.6-.4l-.1-.1s-.5.1-.7.2c-.2.2-.3.3.2.3zm-.5.3s.2-.1-.1-.3c-.3-.1-.6-.1-.7-.1-.1 0-.3.1-.3.2h.4c.3 0 .3 0 .4.1 0 0 .2.1.3.1"/><path d="M199.4 44.1s.5 0 .7-.1c.2 0 .3 0 .3.1s.1.2.1.2.1-.4-.1-.4c-.2-.1-.4-.1-.7-.1l-.3.1v.2m-.2-.4s-.4-.2-.5-.3c-.1-.1-.2-.1-.3 0l-.2.2s.2-.4.4-.4.5-.1.6.2l.1.2v.1m-.5 1.6s-.4-.2-.5-.3c-.1-.1-.2-.1-.3 0l-.2.2s.2-.4.4-.4.5-.1.6.2l.1.2v.1m.5-2s.3-.3.6-.2c.3.1.7.4.7.5-.1.2 0-.3-.6-.3-.4.1-.5.3-.5.3m0-1s-.4-.4-.6-.4c-.1 0-.1 0-.1.1 0 0 .1.3.4.5.2.1.4.1.3-.2z"/><path d="M199.6 42.9s-.2-.3-.5-.2c-.3.1-.3.2-.3.2s.2-.1.4 0c.1.1.3.2.3.2"/><path d="M199.5 42.8s.2-.4.7-.3c.4.1.4.2.4.2 0 .1-.2-.2-.3-.1-.2.1-.5.2-.5.2l-.1.2m.1-1s.3-.2.7-.2c.4 0 .5.2.5.3 0 .1-.2 0-.3-.1-.1-.1-.3-.1-.5-.1s-.4.1-.4.1z"/><path d="M199.8 42s-.3-.5-.9-.5c-.6 0-.1.2.1.2s.8.2.8.3zm11.8 4.6l.3.2c0 .1 0-.5-.5-.5s-.6.3-.6.3h.8zm-1.9.4s-.5.1-.5.2.2-.5.8-.4c.6.1.6.5.6.5l-.9-.3zm1.1 0s.5-.2.6-.2c.1 0 .1.1 0 .1 0 0-.2.2-.5.3-.1 0-.3 0-.1-.2z"/><path d="M210.4 48.3s-.2-.3 0-.4c.2-.1.4-1.9.4-2.1.1-.3.4-1.6.4-1.6s0-.1-.3-.1-.3-.1-.4.1c-.1 0 .2-.4.5-.3l.3.1s-.2-.4-.5-.3c-.3.1.4-.2.5 0l.1.2s.2-.4.4-.3c.6-.1.2 0-.3.3 0 0 .2-.1.4 0l.2.1.1.1s-.2.1-.5 0l-.2-.1-.7 3.9c-.1 0 0 .5-.4.4z"/><path d="M210.5 47.2l-.6-.2c-.3 0-.3 0-.5.1-.1.1.5-.1.9.2.5.2.2-.1.2-.1zm.2-.7s-.1-.3-.6-.3c-.4.1-.9.2-.8.3 0 .1.1-.2.6-.1.5 0 .8.3.9.3m.1 0s.3-.1.5-.1.3.1.3.1c.1.1-.3-.2-.8 0-.3.2 0 0 0 0zm-.4-.8s-.5-.4-.4-.5c0 0 .1-.1.2 0 0 0 .4.2.6.4.1.1.1.3-.4.1zm.4.4s-.1-.2.2-.2c.3-.1.6 0 .8.1l.2.2s-.1-.1-.4-.1c-.3-.1-.3 0-.4 0-.1 0-.3.1-.4 0"/><path d="M210.8 46.1s-.5-.1-.6-.2c-.1-.1-.3-.1-.3 0l-.2.2s.1-.4.3-.4c.2 0 .4-.1.7.1l.3.2-.1.2m.2-.5s.5-.1.6-.2c.1-.1.3 0 .3.1s.1.2.1.2 0-.4-.2-.5c-.2 0-.4-.2-.7 0l-.2.2v.1m-.2 1.8s.5-.1.6-.2c.1-.1.3 0 .3.1s.1.2.1.2 0-.4-.2-.5c-.2 0-.4-.2-.7 0l-.2.2v.1m.4-2s-.1-.4-.5-.4c-.3 0-.9.2-.8.4 0 .2.1-.3.7-.2.3.2.4.4.4.4m.3-.8s.6-.3.8-.3c.1 0 .1.1.1.1s-.2.3-.6.4c-.3 0-.6 0-.3-.2z"/><path d="M211.1 44.9s.3-.2.5-.1.2.2.2.2-.2-.1-.3-.1c-.1 0-.3.1-.4.1"/><path d="M211.2 44.9s-.1-.4-.5-.4c-.5 0-.5.1-.5.2s.2-.1.4 0c.1.1.4.3.4.3v.2m.2-1.2s-.2-.3-.6-.3c-.4-.1-.5.1-.6.2 0 .1.2.1.3 0 .1-.1.3 0 .5 0 .3 0 .4.1.4.1z"/><path d="M211.2 44s.5-.4 1.1-.3c.5.1 0 .2-.2.1-.1 0-.8.1-.9.2zm-6.7 2.8s-.4.1-.4.2.2-.5.7-.4c.5.1.4.5.4.5l-.7-.3zm1.6.7s.4.2.4.3c0 .1 0-.5-.6-.5s-.8.3-.8.3l1-.1z"/><path d="M205.1 47.3s-.3-.3-.5-.3c-.1 0-.1 0-.1.1 0 0 .1.2.3.3.2.1.4.1.3-.1z"/><path d="M204.9 48.6s.3-.2.2-.4c-.1-.2.4-1.9.5-2.1.1-.3.3-1.6.3-1.6s0-.1.3-.1.3 0 .3.2c.1 0 0-.4-.3-.4l-.3.1s.4-.3.6-.2c.2.1-.3-.3-.4-.1l-.2.2s0-.4-.3-.4c-.5-.2-.2 0 .2.4 0 0-.2-.1-.4 0l-.2.1-.1.1s.2.1.5.1l.2-.1-1 3.8s-.3.4.1.4z"/><path d="M205.3 47.5s.4-.1.7-.1c.3 0 .3.1.4.2.1.1-.4-.2-1 0s-.1-.1-.1-.1zm.1-.6s.3-.3.7-.1c.4.2.8.3.7.5-.1.1 0-.2-.5-.2-.5-.1-.9.1-1 .1m-.2-.2s-.3-.1-.5-.2c-.2 0-.3 0-.4.1-.1.1.4-.1.7.2.4.2.2-.1.2-.1zm.7-.7s.6-.3.6-.4c0-.1-.1-.1-.1-.1s-.5.1-.7.2c-.2.2-.3.4.2.3zm-.5.3s.2-.1-.1-.3c-.3-.1-.6-.1-.8-.1-.1 0-.3.1-.3.2h.4c.3 0 .3 0 .4.1.1 0 .3.1.4.1"/><path d="M205.5 46.4s.5 0 .7-.1c.2 0 .3 0 .3.1s.1.2.1.2.1-.4-.1-.4c-.2-.1-.4-.1-.7-.1l-.3.1v.2m-.1-.4s-.4-.2-.5-.3c-.1-.1-.2-.1-.3 0l-.2.2s.2-.4.4-.4.5-.1.6.2l.1.2v.1m-.6 1.7s-.4-.2-.5-.3c-.1-.1-.2-.1-.3 0l-.2.2s.2-.4.4-.4.5-.1.6.2l.1.2v.1m.5-2.1s.3-.3.6-.2c.3.1.7.4.7.5-.1.2 0-.3-.6-.3-.4.1-.5.3-.5.3m0-.9s-.4-.4-.6-.4c-.1 0-.2 0-.1.1 0 0 .1.3.4.5.2.1.4.1.3-.2z"/><path d="M205.7 45.3s-.2-.3-.5-.2c-.3.1-.3.2-.3.2s.2-.1.4 0c.1.1.3.2.3.2"/><path d="M205.6 45.2s.2-.4.7-.3c.4.1.4.2.4.2 0 .1-.2-.2-.3-.1-.2.1-.5.2-.5.2l-.1.2m.1-1.1s.3-.2.7-.2c.4 0 .5.2.5.3 0 .1-.2 0-.3-.1-.1-.1-.3-.1-.5-.1-.2.1-.4.1-.4.1z"/><path d="M205.9 44.3s-.3-.5-.9-.5c-.6 0-.1.2.1.2s.8.3.8.3zM185.1 49s-.4.1-.4.2.2-.5.7-.4c.5.1.5.5.5.5l-.8-.3zm1.7.8s.4.2.4.3c0 .1 0-.5-.7-.5s-.8.3-.8.3l1.1-.1zm-1.1-.2s-.4-.3-.5-.3c-.1 0-.1 0-.1.1 0 0 .1.3.3.4.2 0 .4 0 .3-.2z"/><path d="M185.5 50.9s.3-.2.2-.4c-.1-.2.5-1.9.5-2.2.1-.3.3-1.7.3-1.7s0-.1.3-.1.4 0 .4.2c.1 0 0-.4-.3-.4l-.3.1s.4-.3.6-.2c.3.1-.3-.3-.5-.1l-.2.2s0-.4-.3-.4c-.5-.2-.2 0 .2.4 0 0-.2-.1-.4 0l-.2.1-.1.1s.2.1.5.1l.3-.1-1 3.9c-.1.1-.4.5 0 .5z"/><path d="M185.9 49.8s.4-.1.7-.1c.3 0 .3.1.5.2.1.1-.4-.2-1 0-.7.2-.2-.1-.2-.1zm.1-.7s.3-.3.7-.1c.4.2.8.4.7.5-.1.1 0-.2-.5-.2-.5-.1-.9.2-1 .1m-.2-.2s-.3-.1-.5-.2c-.2 0-.3 0-.4.1-.1.1.4-.1.8.2.3.3.1-.1.1-.1zm.7-.7s.7-.3.6-.4c0-.1-.1-.1-.1-.1s-.5.1-.7.3c-.2.2-.3.3.2.2zm-.5.4s.2-.1-.1-.3c-.3-.1-.6-.1-.8-.1-.1 0-.3.1-.3.2h.4c.3 0 .4 0 .4.1.1 0 .3.1.4.1"/><path d="M186.1 48.7s.5 0 .7-.1c.2 0 .3 0 .3.1s.1.2.1.2.1-.4-.1-.4c-.2-.1-.4-.2-.8-.1l-.4.1v.2m.1-.4s-.4-.2-.5-.3c-.1-.1-.2-.1-.3 0l-.2.2s.2-.4.4-.4.5-.1.7.2c.2.2.1.2.1.2v.1m-.7 1.7s-.4-.2-.5-.3c-.1-.1-.2-.1-.3 0l-.2.2s.2-.4.4-.4.5-.1.7.2c.2.2.1.2.1.2v.1m.4-2.1s.3-.3.6-.2c.3.1.8.4.7.5-.1.2 0-.3-.6-.3-.4.1-.5.3-.5.3m0-1s-.4-.4-.7-.4c-.1 0-.2 0-.1.1 0 0 .1.3.4.5.3.1.6.1.4-.2z"/><path d="M186.3 47.5s-.2-.3-.5-.2c-.3.1-.3.2-.3.2s.2-.1.4 0c.1.1.3.2.3.2"/><path d="M186.2 47.4s.2-.4.7-.3c.5.1.4.2.4.3 0 .1-.2-.2-.3-.1-.2.1-.5.2-.5.2l-.1.2m.2-1.2s.3-.2.7-.2c.4 0 .5.2.5.3 0 .1-.2 0-.3-.1-.1-.1-.3-.1-.5-.1-.2.1-.4.1-.4.1z"/><path d="M186.6 46.5s-.3-.5-.9-.5c-.6 0-.1.2.1.2.1 0 .7.3.8.3zm10.5 2.1s-.4.1-.4.2.2-.5.7-.4c.5.1.4.5.4.5l-.7-.3zm1.6.7s.4.2.4.3c0 .1 0-.5-.6-.5s-.8.3-.8.3l1-.1z"/><path d="M197.7 49.1s-.3-.3-.5-.3c-.1 0-.1 0-.1.1 0 0 .1.2.3.3.2.2.4.2.3-.1z"/><path d="M197.5 50.4s.3-.2.2-.4c-.1-.2.4-1.9.5-2.1.1-.3.3-1.6.3-1.6s0-.1.3-.1.4 0 .3.2c.1 0 0-.4-.3-.4l-.3.1s.4-.3.6-.2c.2.1-.3-.3-.4-.1l-.2.2s0-.4-.3-.4c-.5-.2-.2 0 .2.4 0 0-.2-.1-.4 0l-.2.1-.1.1s.2.1.5.1l.3-.1-1 3.8c-.1 0-.4.5 0 .4z"/><path d="M197.8 49.4s.4-.1.7-.1c.3 0 .3.1.4.2.1.1-.4-.2-1 0-.5.1-.1-.1-.1-.1zm.1-.7s.3-.3.6-.1c.4.2.8.3.7.5-.1.1 0-.2-.5-.2-.5-.1-.9.1-.9.1m-.1-.2s-.3-.1-.5-.2c-.2 0-.3 0-.4.1-.1.1.4-.1.7.2.4.2.2-.1.2-.1zm.7-.7s.6-.3.6-.4l-.1-.1s-.5.1-.7.2c-.3.3-.3.4.2.3zm-.5.4s.2-.1-.1-.3c-.3-.1-.6-.1-.8-.1-.1 0-.3.1-.3.2h.4c.3 0 .3 0 .4.1.1 0 .2.1.4.1"/><path d="M198.1 48.2s.5 0 .7-.1c.2 0 .3 0 .3.1s.1.2.1.2.1-.4-.1-.4c-.2-.1-.4-.1-.7-.1l-.3.1v.2m-.2-.3s-.4-.2-.5-.3c-.1-.1-.2-.1-.3 0l-.2.2s.2-.4.4-.4.5-.1.6.2l.1.2v.1m-.5 1.6s-.4-.2-.5-.3c-.1-.1-.2-.1-.3 0l-.2.2s.2-.4.4-.4.5-.1.6.2l.1.2v.1m.4-2s.3-.3.6-.2c.3.1.7.4.7.5-.1.2 0-.3-.6-.3-.4.1-.5.3-.5.3m.1-1s-.4-.4-.6-.4c-.1 0-.1 0-.1.1 0 0 .1.3.4.5.2.1.4.1.3-.2z"/><path d="M198.3 47.1s-.2-.3-.5-.2c-.3.1-.3.2-.3.2s.2-.1.4 0c.1.1.3.2.3.2"/><path d="M198.2 47s.2-.4.7-.3.4.2.4.2c0 .1-.2-.2-.3-.1-.2.1-.5.2-.5.2l-.1.2m.1-1s.3-.2.7-.2c.4 0 .5.2.5.3 0 .1-.2 0-.3-.1-.1-.1-.3-.1-.5-.1s-.4.1-.4.1z"/><path d="M198.5 46.2s-.3-.5-.9-.5c-.6 0-.1.2.1.2s.8.2.8.3zm-4.1 1.9s.3.2.3.3c0 .1 0-.5-.5-.5s-.7.3-.7.3l.9-.1zm-2 .3s-.5.1-.5.2.2-.5.9-.4c.6.1.6.5.6.5l-1-.3z"/><path d="M193.5 48.5s.5-.2.7-.2c.1 0 .1.1 0 .1 0 0-.2.2-.5.3-.2 0-.4 0-.2-.2z"/><path d="M193.1 49.8s-.2-.3 0-.4c.2-.1.4-1.9.5-2.2.1-.3.5-1.6.5-1.6s0-.1-.3-.1-.4-.1-.4.1c-.1 0 .2-.4.5-.3l.3.1s-.2-.4-.5-.3c-.3.1.4-.2.5 0l.1.2s.2-.4.5-.3c.6 0 .2 0-.4.3 0 0 .2-.1.4 0l.2.1.1.1s-.3.1-.5-.1l-.2-.1-.9 3.9c-.1.2 0 .7-.4.6z"/><path d="M193.2 48.6s-.4-.2-.6-.2h-.5c-.1.1.5-.1 1 .2.4.4.1 0 .1 0zm.2-.6s-.1-.3-.6-.3c-.5.1-.9.2-.9.3 0 .1.1-.2.6-.1.5 0 .8.4.9.3m.3-.1s.3-.1.6-.1c.2 0 .3.1.4.1.1.1-.3-.2-.8 0-.6.3-.2 0-.2 0zm-.4-.8s-.5-.4-.4-.5c0-.1.1-.1.2 0 0 0 .4.2.6.4.1.2 0 .3-.4.1zm.3.5s-.1-.2.2-.2c.3-.1.7 0 .8.1l.2.2s-.1-.1-.4-.1c-.3-.1-.4 0-.4 0h-.4"/><path d="M193.5 47.5s-.5-.2-.6-.2c-.1-.1-.3-.1-.3 0l-.2.2s.1-.4.3-.4c.2 0 .4-.1.7.1l.3.2-.1.2m.3-.4s.5-.1.6-.2c.2-.1.3 0 .3.1s.1.2.1.2 0-.4-.2-.5c-.2-.1-.5-.2-.7 0l-.2.2-.1.1m-.2 1.8s.5-.1.6-.2c.2-.1.3 0 .3.1s.1.2.1.2 0-.4-.2-.5c-.2-.1-.5-.2-.7 0-.3.2-.2.2-.2.2l-.1.1m.6-2s-.1-.4-.5-.4-.9.2-.9.4.2-.3.8-.2c.3.2.4.4.4.4m.3-.9s.6-.3.8-.3c.1 0 .1.1.1.1s-.3.3-.6.4c-.3.1-.6 0-.3-.2z"/><path d="M193.9 46.4s.3-.2.6-.1c.2.1.2.2.2.2s-.2-.1-.3-.1c-.1 0-.4.1-.4.1"/><path d="M194 46.3s0-.4-.5-.4-.5.1-.5.1c0 .1.3-.1.4 0 .1.1.4.3.4.3v.2m.3-1.1s-.2-.3-.6-.3c-.4-.1-.6.1-.6.2s.2.1.3 0c.1-.1.3 0 .5 0s.4.1.4.1z"/><path d="M194.1 45.4s.5-.4 1.1-.3c.6.1 0 .2-.2.1-.1 0-.8.2-.9.2zm-4.2 3.8s-.4.1-.4.2.2-.5.7-.4c.5.1.5.5.5.5l-.8-.3zm1.7.8s.4.2.4.3c0 .1 0-.5-.7-.5-.6 0-.8.3-.8.3l1.1-.1zm-1.1-.2s-.4-.3-.5-.3c-.1 0-.1 0-.1.1 0 0 .1.3.3.4.2 0 .4 0 .3-.2z"/><path d="M190.3 51.1s.3-.2.2-.4c-.1-.2.5-1.9.5-2.2.1-.3.3-1.7.3-1.7s0-.1.3-.1.4 0 .4.2c.1 0 0-.4-.3-.4l-.3.1s.4-.3.6-.2c.2.1-.3-.3-.5-.1l-.2.2s0-.4-.3-.4c-.5-.2-.2 0 .2.4 0 0-.2-.1-.4 0l-.2.1-.1.1s.2.1.5.1l.3-.1-1 3.9c-.1.1-.4.6 0 .5z"/><path d="M190.7 50s.4-.1.7-.1c.3 0 .3.1.5.2.1.1-.4-.2-1 0-.7.2-.2-.1-.2-.1zm.1-.7s.3-.3.7-.1c.4.2.8.4.7.5-.1.1 0-.2-.5-.2-.5-.1-.9.2-1 .1m-.2-.2s-.3-.1-.5-.2c-.2 0-.3 0-.4.1-.1.1.4-.1.8.2.3.3.1-.1.1-.1zm.7-.6s.7-.3.6-.4c0-.1-.1-.1-.1-.1s-.5.1-.7.2c-.2.2-.3.3.2.3zm-.5.3s.2-.1-.1-.3c-.3-.1-.6-.1-.8-.1-.1 0-.3.1-.3.2h.4c.3 0 .4.1.4.1.1 0 .3.1.4.1"/><path d="M190.9 48.9s.5 0 .7-.1c.2 0 .3 0 .3.1s.1.2.1.2.1-.4-.1-.4c-.2-.1-.4-.2-.8-.1l-.4.1v.2m.1-.4s-.4-.2-.5-.3c-.1-.1-.2-.1-.3 0l-.2.2s.2-.4.4-.4.5-.1.7.2c.2.2.1.2.1.2v.1m-.7 1.7s-.4-.2-.5-.3c-.1-.1-.2-.1-.3 0l-.2.2s.2-.4.4-.4.5-.1.7.2c.2.2.1.2.1.2v.1m.4-2.1s.3-.3.6-.2c.3.1.8.4.7.5-.1.2 0-.3-.6-.3-.4.1-.5.3-.5.3m0-1s-.4-.4-.7-.4c-.1 0-.2 0-.1.1 0 0 .1.3.4.5.3.1.6.1.4-.2z"/><path d="M191.1 47.7s-.2-.3-.5-.2c-.3.1-.3.2-.3.2s.2-.1.4 0c.1.1.3.2.3.2"/><path d="M191 47.6s.2-.4.7-.3c.5.1.4.2.4.3 0 .1-.2-.2-.3-.1-.2.1-.5.2-.5.2l-.1.2m.2-1.2s.3-.2.7-.2c.4 0 .5.2.5.3 0 .1-.2 0-.3-.1-.1-.1-.3-.1-.5-.1-.2.1-.4.1-.4.1z"/><path d="M191.4 46.7s-.3-.5-.9-.5c-.6 0-.1.2.1.2.1 0 .7.3.8.3zm-3.5 1s-.4.1-.4.2.2-.5.7-.4c.5.1.4.5.4.5l-.7-.3zm1.7.8s.4.2.4.3c0 .1 0-.5-.6-.5s-.8.3-.8.3l1-.1zm-1.1-.2s-.3-.3-.5-.3c-.1 0-.1 0-.1.1 0 0 .1.2.3.3.3.1.5.1.3-.1z"/><path d="M188.4 49.6s.3-.2.2-.4c-.1-.2.4-1.9.5-2.1.1-.3.3-1.6.3-1.6s0-.1.3-.1.4 0 .3.2c.1 0 0-.4-.3-.4l-.3.1s.4-.3.6-.2c.2.1-.3-.3-.4-.1l-.2.2s0-.4-.3-.4c-.5-.2-.2 0 .2.4 0 0-.2-.1-.4 0l-.2.1-.1.1s.2.1.5.1l.2-.1-1 3.8s-.4.4.1.4z"/><path d="M188.7 48.5s.4-.1.7-.1c.3 0 .3.1.4.2.1.1-.4-.2-1 0-.5.2-.1-.1-.1-.1zm.1-.6s.3-.3.7-.1c.4.2.8.3.7.5-.1.1 0-.2-.5-.2-.5-.1-.9.1-1 .1m-.2-.3s-.3-.1-.5-.2c-.2 0-.3 0-.4.1-.1.1.4-.1.7.2.5.3.2-.1.2-.1zm.7-.6s.6-.3.6-.4c0-.1-.1-.1-.1-.1s-.5.1-.7.2c-.2.2-.2.4.2.3zm-.4.3s.2-.1-.1-.3c-.3-.1-.6-.1-.8-.1-.1 0-.3.1-.3.2h.4c.3 0 .3 0 .4.1 0 0 .2.1.4.1"/><path d="M188.9 47.4s.5 0 .7-.1c.2-.1.3 0 .3.1s.1.2.1.2.1-.4-.1-.4c-.2-.1-.4-.1-.7-.1l-.3.1v.2m-.1-.4s-.4-.2-.5-.3c-.1-.1-.2-.1-.3 0l-.2.2s.2-.4.4-.4.5-.1.6.2l.1.2v.1m-.5 1.7s-.4-.2-.5-.3c-.1-.1-.2-.1-.3 0l-.2.2s.2-.4.4-.4.5-.1.6.2l.1.2v.1m.4-2.1s.3-.3.6-.2c.3.1.7.4.7.5-.1.2 0-.3-.6-.3-.4.1-.5.3-.5.3m.1-.9s-.4-.4-.6-.4c-.1 0-.1 0-.1.1 0 0 .1.3.4.5.1 0 .4.1.3-.2z"/><path d="M189.1 46.2s-.2-.3-.5-.2c-.3.1-.3.2-.3.2s.2-.1.4 0c.1.1.3.2.3.2m.1-.2s.2-.4.7-.3c.4.1.4.2.4.2 0 .1-.2-.2-.3-.1-.2.1-.5.2-.5.2l-.1.2m.1-1.1s.3-.2.7-.2c.4 0 .5.2.5.3 0 .1-.2 0-.3-.1-.1-.1-.3-.1-.5-.1s-.4.1-.4.1z"/><path d="M189.4 45.3s-.3-.5-.9-.5c-.6 0-.1.2.1.2s.7.2.8.3zm11.7 4.6l.3.2c0 .1 0-.5-.5-.5s-.6.3-.6.3h.8zm-1.8.4s-.5.1-.5.2.2-.5.8-.4c.6.1.6.5.6.5l-.9-.3z"/><path d="M200.3 50.3s.5-.2.6-.2c.1 0 .1.1 0 .1 0 0-.2.2-.5.3-.1 0-.3 0-.1-.2z"/><path d="M200 51.6s-.2-.3 0-.4c.2-.1.4-1.9.4-2.1.1-.3.4-1.6.4-1.6s0-.1-.3-.1-.3-.1-.4.1c-.1 0 .2-.4.5-.3l.3.1s-.2-.4-.5-.3c-.3.1.4-.2.5 0l.1.2s.2-.4.4-.3c.6-.1.2 0-.3.3 0 0 .2-.1.4 0l.2.1.1.1s-.2.1-.5 0l-.2-.1-.7 3.9c-.2 0-.1.5-.4.4z"/><path d="M200.1 50.5l-.6-.2c-.3 0-.3 0-.5.1-.1.1.5-.1.9.2.5.2.2-.1.2-.1zm.1-.6s-.1-.3-.6-.3c-.4.1-.9.2-.8.3 0 .1.1-.2.5-.1.5 0 .8.3.9.3m.3-.1s.3-.1.5-.1.3.1.3.1c.1.1-.3-.2-.8 0-.4.3 0 0 0 0zm-.4-.8s-.5-.4-.4-.5c0-.1.1-.1.2 0 0 0 .4.2.6.4 0 .1 0 .3-.4.1zm.3.4s-.1-.2.2-.2c.3-.1.6 0 .8.1l.2.2s-.1-.1-.4-.1c-.3-.1-.3 0-.4 0-.1 0-.3.1-.4 0"/><path d="M200.3 49.4s-.5-.1-.6-.2c-.1-.1-.3-.1-.3 0l-.2.2s.1-.4.3-.4c.2 0 .4-.1.7.1l.3.2-.1.2m.2-.5s.5-.1.6-.2c.1-.1.3 0 .3.1s.1.2.1.2 0-.4-.2-.5c-.2 0-.4-.2-.7 0l-.2.2v.1m-.2 1.8s.5-.1.6-.2c.1-.1.3 0 .3.1s.1.2.1.2 0-.4-.2-.5c-.2 0-.4-.2-.7 0l-.2.2v.1"/><path d="M200.7 48.7s-.1-.4-.5-.3c-.3 0-.9.2-.9.4s.1-.3.7-.2c.3.2.4.4.4.4m.3-1s.6-.3.8-.3c.1 0 .1.1.1.1s-.2.3-.6.4c-.3.1-.5 0-.3-.2z"/><path d="M200.6 48.2s.3-.2.5-.1.2.2.2.2-.2-.1-.3-.1c-.1 0-.3.1-.4.1"/><path d="M200.7 48.2s-.1-.4-.5-.4c-.5 0-.5.1-.5.2s.2-.1.4 0c.1.1.4.3.4.3v.2m.3-1.2s-.2-.3-.6-.3c-.4-.1-.5.1-.6.2 0 .1.2.1.3 0 .1-.1.3 0 .5 0s.4.1.4.1z"/><path d="M200.8 47.3s.5-.4 1-.3c.6.1 0 .2-.2.1-.1 0-.8.2-.8.2zm-6.8 2.8s-.4.1-.4.2.2-.5.7-.4c.5.1.4.5.4.5l-.7-.3zm1.7.7s.4.2.4.3c0 .1 0-.5-.6-.5s-.8.3-.8.3l1-.1z"/><path d="M194.6 50.6s-.3-.3-.5-.3c-.1 0-.1 0-.1.1 0 0 .1.2.3.3.3.1.5.2.3-.1z"/><path d="M194.5 51.9s.3-.2.2-.4c-.1-.2.4-1.9.5-2.1.1-.3.3-1.6.3-1.6s0-.1.3-.1.4 0 .3.2c.1 0 0-.4-.3-.4l-.3.1s.4-.3.6-.2c.2.1-.3-.3-.4-.1l-.2.2s0-.4-.3-.4c-.5-.2-.2 0 .2.4 0 0-.2-.1-.4 0l-.2.1-.1.1s.2.1.5.1l.3-.1-1 3.8c-.1 0-.5.5 0 .4z"/><path d="M194.8 50.8s.4-.1.7-.1c.3 0 .3.1.4.2.1.1-.4-.2-1 0-.5.2-.1-.1-.1-.1zm.1-.6s.3-.3.7-.1c.4.2.8.3.7.5-.1.1 0-.2-.5-.2-.5-.1-.9.1-1 .1m-.2-.2s-.3-.1-.5-.2c-.2 0-.3 0-.4.1-.1.1.4-.1.7.2.5.2.2-.1.2-.1zm.7-.7s.6-.3.6-.4l-.1-.1s-.5.1-.7.2c-.2.2-.2.4.2.3zm-.4.3s.2-.1-.1-.3c-.3-.1-.6-.1-.8-.1-.1 0-.3.1-.3.2h.4c.3 0 .3 0 .4.1 0 0 .2.2.4.1"/><path d="M195.1 49.7s.5 0 .7-.1c.2 0 .3 0 .3.1s.1.2.1.2.1-.4-.1-.4c-.2-.1-.4-.1-.7-.1l-.3.1v.2m-.2-.4s-.4-.2-.5-.3c-.1-.1-.2-.1-.3 0l-.2.2s.2-.4.4-.4.5-.1.6.2l.1.2v.1m-.5 1.7s-.4-.2-.5-.3c-.1-.1-.2-.1-.3 0l-.2.2s.2-.4.4-.4.5-.1.6.2l.1.2v.1m.4-2s.3-.3.6-.2c.3.1.7.4.7.5-.1.2 0-.3-.6-.3-.4.1-.5.3-.5.3m.1-1s-.4-.4-.6-.4c-.1 0-.1 0-.1.1 0 0 .1.3.4.5.1.1.4.1.3-.2z"/><path d="M195.2 48.6s-.2-.3-.5-.2c-.3.1-.3.2-.3.2s.2-.1.4 0c.1.1.3.2.3.2m.1-.3s.2-.4.7-.3c.4.1.4.2.4.2 0 .1-.2-.2-.3-.1-.1.1-.5.2-.5.2l-.1.2m.1-1.1s.3-.2.7-.2c.4 0 .5.2.5.3 0 .1-.2 0-.3-.1-.1-.1-.3-.1-.5-.1-.2.1-.4.1-.4.1z"/><path d="M195.5 47.6s-.3-.5-.9-.5c-.6 0-.1.2.1.2s.7.3.8.3zM174 45.2s-.4.1-.4.2.2-.5.7-.4c.5.1.5.5.5.5l-.8-.3zm1.7.8s.4.2.4.3c0 .1 0-.5-.6-.5-.7 0-.8.3-.8.3l1-.1zm-1-.2s-.4-.3-.5-.3c-.1 0-.1 0-.1.1 0 0 .1.3.3.4.2 0 .4 0 .3-.2z"/><path d="M174.5 47.1s.3-.2.2-.4c-.1-.2.5-1.9.5-2.2.1-.3.3-1.7.3-1.7s0-.1.3-.1.4 0 .4.2c.1 0 0-.4-.3-.4l-.3.1s.4-.3.6-.2c.2.1-.3-.3-.5-.1l-.2.2s0-.4-.3-.4c-.5-.2-.2 0 .2.4 0 0-.2-.1-.4 0l-.2.1-.1.1s.2.1.5.1l.3-.1-1 3.9c-.1.1-.5.5 0 .5z"/><path d="M174.8 46s.4-.1.7-.1c.3 0 .3.1.5.2.1.1-.4-.2-1 0s-.2-.1-.2-.1zm.1-.7s.3-.3.7-.1c.4.2.8.4.7.5-.1.1 0-.2-.5-.2-.5-.1-.9.1-1 .1"/><path d="M174.7 45.4s-.3-.1-.5-.2c-.2 0-.3 0-.4.1-.1.1.4-.1.8.2.3.3.1-.1.1-.1zm.7-.7s.7-.3.6-.4c0-.1-.1-.1-.1-.1s-.5.1-.7.2c-.3.3-.3.4.2.3zm-.5.4s.2-.1-.1-.3c-.3-.1-.6-.1-.8-.1-.1 0-.3.1-.3.2h.4c.3 0 .4 0 .4.1 0 0 .2.1.4.1"/><path d="M175.1 44.8s.5 0 .7-.1c.2-.1.3 0 .3.1s.1.2.1.2.1-.4-.1-.4c-.2-.1-.4-.2-.8-.1l-.4.1v.2m0-.3s-.4-.2-.5-.3c-.1-.1-.2-.1-.3 0l-.2.2s.2-.4.4-.4.5-.1.7.2c.2.2.1.2.1.2v.1m-.6 1.7s-.4-.2-.5-.3c-.1-.1-.2-.1-.3 0l-.2.2s.2-.4.4-.4.5-.1.7.2c.2.2.1.2.1.2v.1"/><path d="M175 44.1s.3-.3.6-.2c.3.1.8.4.7.5-.1.2 0-.3-.6-.3-.4.1-.5.3-.5.3m.1-1s-.4-.4-.7-.4c-.1 0-.2 0-.1.1 0 0 .1.3.4.5.3.1.5.1.4-.2z"/><path d="M175.3 43.7s-.2-.3-.5-.2c-.3.1-.3.2-.3.2s.2-.1.4 0c.1.1.3.2.3.2"/><path d="M175.2 43.6s.2-.4.7-.3c.5.1.4.2.4.3 0 .1-.2-.2-.3-.1-.2.1-.5.2-.5.2l-.1.2m.1-1.2s.3-.2.7-.2c.4 0 .5.2.5.3 0 .1-.2 0-.3-.1-.1-.1-.3-.1-.5-.1-.2.1-.4.1-.4.1z"/><path d="M175.5 42.7s-.3-.5-.9-.5c-.6 0-.1.2.1.2s.8.3.8.3zm10.5 2.1s-.4.1-.4.2.2-.5.7-.4c.5.1.4.5.4.5l-.7-.3zm1.6.7s.4.2.4.3c0 .1 0-.5-.6-.5s-.8.3-.8.3l1-.1z"/><path d="M186.6 45.3s-.3-.3-.5-.3c-.1 0-.1 0-.1.1 0 0 .1.2.3.4.2.1.4.1.3-.2z"/><path d="M186.4 46.6s.3-.2.2-.4c-.1-.2.4-1.9.5-2.1.1-.3.3-1.6.3-1.6s0-.1.3-.1.3 0 .3.2c.1 0 0-.4-.3-.4l-.3.1s.4-.3.6-.2c.2.1-.3-.3-.4-.1l-.2.2s0-.4-.3-.4c-.5-.2-.2 0 .2.4 0 0-.2-.1-.4 0l-.2.1-.1.1s.2.1.5.1l.3-.1-1 3.8c-.1 0-.4.5 0 .4z"/><path d="M186.8 45.6s.4-.1.7-.1c.3 0 .3.1.4.2.1.1-.4-.2-1 0-.6.1-.1-.1-.1-.1zm.1-.7s.3-.3.7-.1c.4.2.8.3.7.5-.1.1 0-.2-.5-.2-.5-.1-.9.1-.9.1m-.3-.2s-.3-.1-.5-.2c-.2 0-.3 0-.4.1-.1.1.4-.1.7.2.4.2.2-.1.2-.1zm.7-.7s.6-.3.6-.4l-.1-.1s-.5.1-.7.2c-.2.2-.3.4.2.3zm-.5.4s.2-.1-.1-.3c-.3-.1-.6-.1-.8-.1-.1 0-.3.1-.3.2h.4c.3 0 .3 0 .4.1.1 0 .3.1.4.1"/><path d="M187 44.4s.5 0 .7-.1c.2 0 .3 0 .3.1s.1.2.1.2.1-.4-.1-.4c-.2-.1-.4-.1-.7-.1l-.3.1v.2m-.1-.3s-.4-.2-.5-.3c-.1-.1-.2-.1-.3 0l-.2.2s.2-.4.4-.4.5-.1.6.2c.1.1.1.2.1.2v.1m-.6 1.6s-.4-.2-.5-.3c-.1-.1-.2-.1-.3 0l-.2.2s.2-.4.4-.4.5-.1.6.2l.1.2v.1m.5-2s.3-.3.6-.2c.3.1.7.4.7.5-.1.2 0-.3-.6-.3-.4.1-.5.3-.5.3m0-1s-.4-.4-.6-.4c-.1 0-.1 0-.1.1 0 0 .1.3.4.5.2.1.4.1.3-.2z"/><path d="M187.2 43.3s-.2-.3-.5-.2c-.3.1-.3.2-.3.2s.2-.1.4 0c.1.1.3.2.3.2"/><path d="M187.1 43.2s.2-.4.7-.3c.4.1.4.2.4.2 0 .1-.2-.2-.3-.1-.2.1-.5.2-.5.2l-.1.2m.1-1s.3-.2.7-.2c.4 0 .5.2.5.3 0 .1-.2 0-.3-.1-.1-.1-.3-.1-.5-.1s-.4.1-.4.1z"/><path d="M187.4 42.4s-.3-.5-.9-.5c-.6 0-.1.2.1.2.2-.1.8.2.8.3zm-4.1 1.9s.3.2.3.3c0 .1 0-.5-.5-.5s-.7.3-.7.3l.9-.1zm-2 .3s-.5.1-.5.2.2-.5.9-.4c.6.1.6.5.6.5l-1-.3z"/><path d="M182.5 44.7s.5-.2.7-.2c.1 0 .1.1 0 .1 0 0-.2.2-.5.3-.3 0-.5 0-.2-.2z"/><path d="M182 46s-.2-.3 0-.4c.2-.1.5-1.9.5-2.2.1-.3.4-1.6.4-1.6s0-.1-.3-.1-.4-.1-.4.1c-.1 0 .2-.4.5-.3l.3.1s-.2-.4-.5-.3c-.3.1.4-.2.5 0l.1.2s.2-.4.5-.3c.6 0 .2 0-.4.3 0 0 .2-.1.4 0l.2.1.1.1s-.3.1-.5-.1l-.2-.1-.9 3.9c0 .2.1.7-.3.6z"/><path d="M182.2 44.8s-.4-.2-.6-.2h-.5c-.1.1.5-.1 1 .2.4.4.1 0 .1 0zm.2-.6s-.1-.3-.6-.3c-.5.1-.9.2-.9.3 0 .1.1-.2.6-.1.5 0 .8.4.9.3m.2-.1s.3-.1.6-.1c.2 0 .3.1.4.1.1.1-.3-.2-.8 0-.6.3-.2 0-.2 0zm-.4-.8s-.5-.4-.4-.5c0-.1.1-.1.2 0 0 0 .4.2.6.4.1.1.1.3-.4.1zm.4.5s-.1-.2.2-.2c.3-.1.7 0 .8.1l.2.2s-.1-.1-.4-.1c-.3-.1-.4 0-.4 0-.1-.1-.3 0-.4 0"/><path d="M182.5 43.7s-.5-.1-.6-.2c-.1-.1-.3-.1-.3 0l-.2.2s.1-.4.3-.4c.2 0 .4-.1.7.1l.3.2-.1.2m.2-.4s.5-.1.6-.2c.2-.1.3 0 .3.1s.1.2.1.2 0-.4-.2-.5c-.2-.1-.5-.2-.7 0l-.2.2-.1.1m-.2 1.8s.5-.1.6-.2c.2-.1.3 0 .3.1s.1.2.1.2 0-.4-.2-.5c-.2-.1-.5-.2-.7 0-.3.2-.2.2-.2.2l-.1.1m.7-2s-.1-.4-.5-.4-.9.2-.9.4.2-.3.8-.2c.3.2.4.4.4.4m.3-.9s.6-.3.8-.3c.1 0 .1.1.1.1s-.3.3-.6.4c-.4.1-.6 0-.3-.2z"/><path d="M182.8 42.5s.3-.2.6-.1c.2.1.2.2.2.2s-.2-.1-.3-.1c-.2 0-.4.1-.4.1"/><path d="M182.9 42.5s0-.4-.5-.4-.5.1-.5.1c0 .1.3-.1.4 0 .1.1.4.3.4.3v.2m.4-1.1s-.2-.3-.6-.3c-.4-.1-.6.1-.6.2s.2.1.3 0c.1-.1.3 0 .5 0s.4.1.4.1z"/><path d="M183.1 41.6s.5-.4 1.1-.3c.6.1 0 .2-.2.1-.2 0-.9.1-.9.2zm-4.3 3.8s-.4.1-.4.2.2-.5.7-.4c.5.1.5.5.5.5l-.8-.3zm1.7.8s.5.2.4.3c0 .1 0-.5-.7-.5-.6 0-.8.3-.8.3l1.1-.1z"/><path d="M179.5 46s-.4-.3-.5-.3c-.1 0-.1 0-.1.1 0 0 .1.3.3.4.2 0 .4 0 .3-.2z"/><path d="M179.3 47.3s.3-.2.2-.4c-.1-.2.5-1.9.5-2.2.1-.3.3-1.7.3-1.7s0-.1.3-.1.4 0 .4.2c.1 0 0-.4-.3-.4l-.3.1s.4-.3.6-.2c.2.1-.3-.3-.5-.1l-.2.2s0-.4-.3-.4c-.5-.2-.2 0 .2.4 0 0-.2-.1-.4 0l-.2.1-.1.1s.2.1.5.1l.3-.1-1 3.9c-.1.1-.5.5 0 .5z"/><path d="M179.6 46.2s.4-.1.7 0c.3 0 .3.1.5.2.1.1-.4-.2-1 0-.6.1-.2-.2-.2-.2zm.1-.7s.3-.3.7-.1c.4.2.8.4.7.5-.1.1 0-.2-.5-.2-.5-.1-.9.2-1 .1m-.2-.2s-.3-.1-.5-.2c-.2 0-.3 0-.4.1-.1.1.4-.1.8.2.4.3.1-.1.1-.1zm.8-.7s.7-.3.6-.4c0-.1-.1-.1-.1-.1s-.5.1-.7.3c-.3.2-.3.3.2.2zm-.5.4s.2-.1-.1-.3c-.3-.1-.6-.1-.8-.1-.1 0-.3.1-.3.2h.4c.3 0 .4.1.4.1s.2.1.4.1"/><path d="M179.9 45s.5 0 .7-.1c.2 0 .3 0 .3.1s.1.2.1.2.1-.4-.1-.4c-.2-.1-.4-.2-.8-.1l-.4.1v.2m0-.3s-.4-.2-.5-.3c-.1-.1-.2-.1-.3 0l-.2.2s.2-.4.4-.4.5-.1.7.2c.2.2.1.2.1.2v.1m-.6 1.7s-.4-.2-.5-.3c-.1-.1-.2-.1-.3 0l-.2.2s.2-.4.4-.4.5-.1.7.2c.2.2.1.2.1.2v.1"/><path d="M179.8 44.3s.3-.3.6-.2c.3.1.8.4.7.5-.1.2 0-.3-.6-.3-.4.1-.5.3-.5.3m.1-1s-.4-.4-.7-.4c-.1 0-.2 0-.1.1 0 0 .1.3.4.5.2.1.5.1.4-.2z"/><path d="M180.1 43.9s-.2-.3-.5-.2c-.3.1-.3.2-.3.2s.2-.1.4 0c.1.1.3.2.3.2"/><path d="M180 43.8s.2-.4.7-.3c.5.1.4.2.4.3 0 .1-.2-.2-.3-.1-.2.1-.5.2-.5.2l-.1.2m.1-1.2s.3-.2.7-.2c.4 0 .5.2.5.3 0 .1-.2 0-.3-.1-.1-.1-.3-.1-.5-.1-.2.1-.4.1-.4.1z"/><path d="M180.3 42.9s-.3-.5-.9-.5c-.6 0-.1.2.1.2s.8.3.8.3zm-3.4 1s-.4.1-.4.2.2-.5.7-.4c.5.1.4.5.4.5l-.7-.3zm1.6.8s.4.2.4.3c0 .1 0-.5-.6-.5s-.8.3-.8.3l1-.1zm-1-.2s-.3-.3-.5-.3c-.1 0-.1 0-.1.1 0 0 .1.2.3.3.2.1.4.1.3-.1z"/><path d="M177.3 45.8s.3-.2.2-.4c-.1-.2.4-1.9.5-2.1.1-.3.3-1.6.3-1.6s0-.1.3-.1.4 0 .3.2c.1 0 0-.4-.3-.4l-.3.1s.4-.3.6-.2c.2.1-.3-.3-.4-.1l-.2.2s0-.4-.3-.4c-.5-.2-.2 0 .2.4 0 0-.2-.1-.4 0l-.2.1-.1.1s.2.1.5.1l.3-.1-1 3.8c-.1-.1-.4.4 0 .4z"/><path d="M177.7 44.7s.4-.1.7-.1c.3 0 .3.1.4.2.1.1-.4-.2-1 0s-.1-.1-.1-.1zm.1-.7s.3-.3.7-.1c.4.2.8.3.7.5-.1.1 0-.2-.5-.2-.5-.1-.9.2-1 .1m-.2-.2s-.3-.1-.5-.2c-.2 0-.3 0-.4.1-.1.1.4-.1.7.2.4.3.2-.1.2-.1zm.7-.6s.6-.3.6-.4c0-.1-.1-.1-.1-.1s-.5.1-.7.2c-.3.2-.3.3.2.3zm-.5.3s.2-.1-.1-.3c-.3-.1-.6-.1-.7-.1-.1 0-.3.1-.3.2h.4c.3 0 .3 0 .4.1 0 0 .2.1.3.1"/><path d="M177.9 43.6s.5 0 .7-.1c.2 0 .3 0 .3.1s.1.2.1.2.1-.4-.1-.4c-.2-.1-.4-.1-.7-.1l-.3.1v.2m-.2-.4s-.4-.2-.5-.3c-.1-.1-.2-.1-.3 0l-.2.2s.2-.4.4-.4.5-.1.6.2l.1.2v.1m-.5 1.6s-.4-.2-.5-.3c-.1-.1-.2-.1-.3 0l-.2.2s.2-.4.4-.4.5-.1.6.2l.1.2v.1m.5-2s.3-.3.6-.2c.3.1.7.4.7.5-.1.2 0-.3-.6-.3-.4.1-.5.3-.5.3m0-1s-.4-.4-.6-.4c-.1 0-.1 0-.1.1 0 0 .1.3.4.5.2.1.4.1.3-.2z"/><path d="M178.1 42.4s-.2-.3-.5-.2c-.3.1-.3.2-.3.2s.2-.1.4 0c.1.1.3.2.3.2"/><path d="M178 42.3s.2-.4.7-.3c.4.1.4.2.4.2 0 .1-.2-.2-.3-.1-.2.1-.5.2-.5.2l-.1.2m.1-1s.3-.2.7-.2c.4 0 .5.2.5.3 0 .1-.2 0-.3-.1-.1-.1-.3-.1-.5-.1s-.4.1-.4.1z"/><path d="M178.3 41.5s-.3-.5-.9-.5c-.6 0-.1.2.1.2s.8.2.8.3zm11.8 4.6l.3.2c0 .1 0-.5-.5-.5s-.6.3-.6.3h.8zm-1.9.4s-.5.1-.5.2.2-.5.8-.4c.6.1.6.5.6.5l-.9-.3zm1.1 0s.5-.2.6-.2c.1 0 .1.1 0 .1 0 0-.2.2-.5.3-.2 0-.3 0-.1-.2z"/><path d="M188.9 47.8s-.2-.3 0-.4c.2-.1.4-1.9.4-2.1 0-.3.4-1.6.4-1.6s0-.1-.3-.1-.3-.1-.4.1c-.1 0 .2-.4.5-.3l.3.1s-.2-.4-.5-.3c-.3.1.4-.2.5 0l.1.2s.2-.4.4-.3c.6-.1.2 0-.3.3 0 0 .2-.1.4 0l.2.1.1.1s-.2.1-.5 0l-.2-.1-.7 3.9c-.1 0 0 .5-.4.4z"/><path d="M189 46.7l-.6-.2c-.3 0-.3 0-.5.1-.1.1.5-.1.9.2.5.2.2-.1.2-.1zm.2-.7s-.1-.3-.6-.3c-.4.1-.9.2-.8.3 0 .1.1-.2.6-.1.5 0 .8.3.9.3m.1 0s.3-.1.5-.1.3.1.3.1c.1.1-.3-.2-.8 0-.3.3 0 0 0 0zm-.4-.8s-.5-.4-.4-.5c0 0 .1-.1.2 0 0 0 .4.2.6.4.1.1 0 .3-.4.1zm.3.4s-.1-.2.2-.2c.3-.1.6 0 .8.1l.2.2s-.1-.1-.4-.1c-.3-.1-.3 0-.4 0 0 0-.2.1-.4 0"/><path d="M189.3 45.6s-.5-.1-.6-.2c-.1-.1-.3-.1-.3 0l-.2.2s.1-.4.3-.4c.2 0 .4-.1.7.1l.3.2-.1.2m.2-.5s.5-.1.6-.2c.1-.1.2 0 .3.1 0 .1.1.2.1.2s0-.4-.2-.5c-.2 0-.4-.2-.7 0l-.2.2v.1m-.2 1.8s.5-.1.6-.2c.1-.1.2 0 .3.1 0 .1.1.2.1.2s0-.4-.2-.5c-.2 0-.4-.2-.7 0l-.2.2v.1m.4-2s-.1-.4-.5-.4c-.3 0-.9.2-.9.4s.1-.3.7-.2c.3.2.4.4.4.4m.4-.8s.6-.3.8-.3c.1 0 .1.1.1.1s-.2.3-.6.4c-.3 0-.6 0-.3-.2z"/><path d="M189.6 44.4s.3-.2.5-.1.2.2.2.2-.2-.1-.3-.1c-.1 0-.3.1-.4.1"/><path d="M189.7 44.4s-.1-.4-.5-.4c-.5 0-.5.1-.5.2s.2-.1.4 0c.1.1.4.3.4.3v.2m.2-1.2s-.2-.3-.6-.3c-.4-.1-.5.1-.6.2 0 .1.2.1.3 0 .1-.1.3 0 .5 0s.4.1.4.1z"/><path d="M189.7 43.5s.5-.4 1.1-.3c.6.1 0 .2-.2.1-.2 0-.8.1-.9.2zm-6.7 2.8s-.4.1-.4.2.2-.5.7-.4c.5.1.4.5.4.5l-.7-.3zm1.6.7s.4.2.4.3c0 .1 0-.5-.6-.5s-.8.3-.8.3l1-.1z"/><path d="M183.6 46.8s-.3-.3-.5-.3c-.1 0-.1 0-.1.1 0 0 .1.2.3.4.2 0 .4 0 .3-.2z"/><path d="M183.4 48.1s.3-.2.2-.4c-.1-.2.4-1.9.5-2.1.1-.3.3-1.6.3-1.6s0-.1.3-.1.4 0 .3.2c.1 0 0-.4-.3-.4l-.3.1s.4-.3.6-.2c.2.1-.3-.3-.4-.1l-.2.2s0-.4-.3-.4c-.5-.2-.2 0 .2.4 0 0-.2-.1-.4 0l-.2.1-.1.1s.2.1.5.1l.3-.1-1 3.8c-.1 0-.4.5 0 .4z"/><path d="M183.8 47s.4-.1.7-.1c.3 0 .3.1.4.2.1.1-.4-.2-1 0s-.1-.1-.1-.1zm.1-.6s.3-.3.7-.1c.4.2.8.3.7.5-.1.1 0-.2-.5-.2-.5-.1-.9.1-1 .1m-.2-.2s-.3-.1-.5-.2c-.2 0-.3 0-.4.1-.1.1.4-.1.7.2.4.2.2-.1.2-.1zm.7-.7s.6-.3.6-.4l-.1-.1s-.5.1-.7.2c-.3.2-.3.4.2.3zm-.5.3s.2-.1-.1-.3c-.3-.1-.6-.1-.7-.1-.1 0-.3.1-.3.2h.4c.3 0 .3 0 .4.1 0 0 .2.1.3.1"/><path d="M184 45.9s.5 0 .7-.1c.2-.1.3 0 .3.1s.1.2.1.2.1-.4-.1-.4c-.2-.1-.4-.1-.7-.1l-.3.1v.2m-.2-.4s-.4-.2-.5-.3c-.1-.1-.2-.1-.3 0l-.2.2s.2-.4.4-.4.5-.1.6.2l.1.2v.1m-.5 1.7s-.4-.2-.5-.3c-.1-.1-.2-.1-.3 0l-.2.2s.2-.4.4-.4.5-.1.6.2c.2.2.1.2.1.2v.1m.5-2s.3-.3.6-.2c.3.1.7.4.7.5-.1.2 0-.3-.6-.3-.4.1-.5.3-.5.3m0-1s-.4-.4-.6-.4c-.1 0-.2 0-.1.1 0 0 .1.3.4.5.2.1.4.1.3-.2z"/><path d="M184.2 44.8s-.2-.3-.5-.2c-.3.1-.3.2-.3.2s.2-.1.4 0c.1.1.3.2.3.2"/><path d="M184.1 44.7s.2-.4.7-.3c.4.1.4.2.4.2 0 .1-.2-.2-.3-.1-.2.1-.5.2-.5.2l-.1.2m.1-1.1s.3-.2.7-.2c.4 0 .5.2.5.3 0 .1-.2 0-.3-.1-.1-.1-.3-.1-.5-.1-.2.1-.4.1-.4.1z"/><path d="M184.4 43.8s-.3-.5-.9-.5c-.6 0-.1.2.1.2s.8.3.8.3z"/></g></g></switch></svg>
