<svg xmlns="http://www.w3.org/2000/svg" version="1.0" viewBox="0 0 220 129"><switch><g><path fill="#55C7E8" d="M0 0h220v129H0z"/><path fill="#FFF" d="M177.7 8.4c1.6-2.3 2.7-2.7 5.5-1.8 2.9 1 3.7 3.6 5.6.6 1.3-2.1 1.2-4.6 4.7-3.6 2.6.7 1.6 1.6 2.2 3.6 1.4-.2 5.8-2.3 4.8.6 1.3-.1 2.2.5 1.9 1.7 2 .1 4.8-1.5 6.5-.9 2.7.9 1.2 3.1-.3 4.4-2.3 2-3.9.3-6.3 2-1.1.8-.6 2.1-2 2.5-1.3.3-2.3-.4-2.5-1.6-.5.2-1.4-.1-1.8.1-.2-1.3 0-2.6-.6-3.7-.7 1.3-1.6 2.4-3.1 1.9-.8 1.2-2.2 3.7-4 3-1.3-.5-1.8-2.5-1.3-3.6-1-.8-2-.2-2.6.7-.8-2-2-.8-3.2-1.6-.7-.4-1.3-1.9-2-2.5-1.8 1.4-3.3-.5-1.5-2m-140 20.6c-1.1 2.5-2.1 3-4.8 2.5-2.9-.6-4.1-3-5.3.3-.9 2.3-.5 4.6-3.8 4.2-2.5-.3-1.8-1.3-2.6-3.1-1.2.4-5 3.1-4.6.1-1.2.3-2.1-.2-2-1.4-1.9.2-4.2 2.2-5.9 1.9-2.7-.6-1.7-2.9-.5-4.4 1.8-2.3 3.6-.8 5.5-2.9.9-.9.3-2.1 1.5-2.7 1.2-.5 2.2 0 2.6 1.2.4-.2 1.4-.2 1.7-.3.4 1.2.4 2.5 1.1 3.5.5-1.3 1.1-2.6 2.6-2.3.6-1.3 1.5-3.9 3.3-3.5 1.3.3 2 2.2 1.8 3.3 1.1.7 1.9-.1 2.3-1.1 1 1.8 2 .5 3.3 1.1.7.3 1.5 1.7 2.3 2.1 1.5-1.6 3.2 0 1.7 1.7" opacity=".75"/><radialGradient id="a" cx="2656.724" cy="400.974" r="53.122" gradientTransform="matrix(-.8275 -.07918 -.0773 .8478 2314.22 -73.685)" gradientUnits="userSpaceOnUse"><stop offset="0" stop-color="#98cb66"/><stop offset="1" stop-color="#659941"/></radialGradient><path fill="url(#a)" stroke="#659941" d="M95.3 93.9c.9-1.8 3.3-.4 5-.5.1-.9.6-1.3 1.4-1.5-.3-.2-.4-.8-.8-1.1 1.4-2.3 3.4-.3 5.4-.2 0-.3.2-.8.2-1.1 1.2.3 5.2-.8 4-2.4.4-1.2.4-2.5.3-3.8 1.1-.1 1.8-.5 2.7-1 .8-.4 2.5-1 3.2-1.4 1.3-.9 1.1-2.7 2.9-3.4.1-.4.2-1 .1-1.4-1.8-.3-5.3.1-3.8-2.8-1.5-1.2-7.4-2.2-7.2.9-1.8.2-2.3-1.6-1.6-2.9 0-.1 1.5-.4 1.7-.5.7-.4.3-1.6 2-1.1.2-.9 1.8-1.4 1.7-2.2-.2-1.1-1.7-.9-2.3-1.4-2.1-1.9 1.5-1 1.1-3.8-2.2-1.7-4.6.4-7-.7-.8 1.3-2.1.3-3.1-.3.1 1.4-.6 2-1.5 1.1-.6.4-1.1.5-1.9.1 0 .3-.1.6-.1.9-.4-.2-1.1 0-1.6-.3-.1.3-.3.6-.4.9-2.9-.3-2.6-.9-1.8-3 .1-.2.8-.3 1-.7.2-.5-.5-.7-.4-1 .2-.7.1-1.6.2-2.4-3-.2-5.7-2-2.4-4.4-.4 0-1-.2-1.4-.2 0-.5-.3-.9-.2-1.4-1.1-.5-2.4-.2-3.2-1.1-.2.2-.9.4-1.2.6-.8-1.5-1.9-.5-2.8-1.7-.5 0-1 0-1.6.1-.8 1.4-2.2.1-3.5.4-1.4.3-2 2.1-3.6 1.1.1.5-.3 1.1-.2 1.6-1.5.2-2.2-1.2-3.4-1.3-1.7-.1-1.9 1.5-3.3 2.1.8.3 1.6.7 2.2 1.3-.6.4-1.2 1-1.6 1.7.4.2.8.8 1.3.9-.8 1.9-4.7 3.5-4.6 6.3.1 1.5 1.8 1.8 1.4 3.1-.5 1.5-3.2.7-4.2 0-.1-.1-.8-1.4-.9-1.5.2.2-1.9-1.6-1.3-1.3-.3-.1-1.6-.2-1.5-.1.4.2-2.3-.3-1.7-.4-1 .2-2.2.5-3.6.6.3 0-2.4.6-2.2.5-.7.4-1.4.4-1.8 1.3.5.3.7 1.2 1.1 1.6-.8.3-1.4.8-1.8 1.5 1.7.8.4 2.6 1 4 .7 1.5 3.8 1.7 2.9 3.9-1.5-.1-3.2-.2-4.6-.6-.1.3-.1.6-.2.9-.3-.1-.8 0-1.1 0-.6 1.9 1.4 1.3 1.9 2.6.3.8-.7 2.2-.6 3.3 1.2.5.8 1.5 1.4 2.4.5.7 1.6 1.2 2.2 1.9.2-.3.6-.4.8-.7.7.8 1.5 2.9 2.3 3.4.7.5 2.2.2 3.3.6 1.3.4 2.3 2 3.3 2.3 1.4.4 2.2-1.6 3.1.1 1.7-1.5 3 .6 4.6.8 1.4.2 2.4-1 3.6.4 1.5 1.6-.1 2.3 2.6 2.5.9.1 2.8-.8 3.5-.7 1.7.3 2.8 1.9 4.6 1.4 1.6-.4 2.5-2 3.8-2.6 1.7-.6 2.8.3 4.6.5.7.1.9.4 1.6.3.5-.1.6-.9 1.5-.8"/><path fill="none" stroke="#356732" d="M105.9 77c.5-.8 2-1.2 3-1.5.2 1.2-.9 1.6-1.8 1.9 1.3 0 3 .5 3.4 1.9-1.2.1-2.6.5-3.6-.4.1.9 1.3 1.7 1.8 2.4-1.3 0-3.4.2-3.3-1.7m-40.1 1.6c.4 0 .7.1 1 0 .8-2.5-.4-4.7-2.6-5.9-.2 1.6-.5 3.3-.2 4.8-1.2-.8-2.4-1.7-3.7-2.3.1 1.8 1.5 3.2 2.8 4.1-1.3-.4-2.6-1-3.7-1.3.4 1.3 1.7 2.4 3.2 2.8m7.5-10.2c-.5-1.5-.7-2.9-.6-4.4.5 0 .9.1 1.3.1.2 1.2.5 2.5.9 3.6.6-.6 1.9-1.2 2.5-1.9.6 1.5.1 2.9-1.3 3.5m23.8 8.2c2-.1 3.8 1.1 5 2.7-1.5-.1-3-.2-4.3-.8.7 1.1 1.5 2.3 2 3.4-1.9-.1-3.2-1.5-3.9-3.2m-1.2.6c0 1.5-.9 2.7-2.3 2.6 0-.8 0-1.7.2-2.5M97 69.6c-.8-1.3-.8-2.7.3-3.7.2.8 1 2.3 1.1 3.1.9-.7 2-1.3 3-1.8.9 2.1-.7 3.8-2.8 3.6m-2.5.9c-.3-1.2-1-1.9-2.3-2-.6 1.6-.1 2.8 1.5 3m-15.5-9.5c1.7 0 2.6-1.5 2.7-3-1.3.1-2.5.9-3.4 2 .5-1.6.1-3.1-1.4-3.6-.7 1.5-1.1 3.3-.3 4.7-1.4-.3-1.9 0-3 .4.7.3 1.5.8 2.3.9m8.2-6.7c-.5-1.2-.1-2.4 1-3.2.2.8.7 1.3.5 2.6 1-.1 2.1.5 3.1.4-.6 1.3-2.1 1.8-3.6 1.4m-6.2 24.2c1.3.6 2.3 1.7 2.5 3.1-1.4.1-2.5-.6-3.3-1.7.1.7-.4 1.7-.3 2.4-1.5 0-1.9-1-1.6-2.5-1.6 4.4-5.3-.9-1.1-2.4m7.3 6.1c1.3.3 2.1 1 2.2 2.3-1.3.1-2.5-.6-3-1.7m5.6-10c-.6-1.5 1.3-2.5 3-2.2.1 1.6-.8 2.7-2.3 2.6m-31.3-9.5c-.2-.8-1-1.5-2.3-1.6-.1 1 .2 2.3.8 3.2.4.1.8.3.9.4-1.4-.3-2.4.1-2.6 1.6 1.4.5 2.7.5 3.2-.7" opacity=".32"/><path fill="none" stroke="#356732" d="M106.9 71.6c-.5-.1-1.1-.1-1.6-.1.2.8.8 1.4.5 2.3-.4-.1-.8 0-1.2-.1.3.3.3.8.5 1-.2-.1-.6-.1-.8-.2.9 2.2-1.4.4-1.9.1.1 1 .5 1.8.8 2.6-.5-.1-.9-.1-1.3-.4.2 1.1-.6 1.9-1.4.9.1 1.1-.9 1.4-1.3.5-.1 1.2-1.3 1.1-1.5 0-.5.5-1 .6-1.3-.1-.7.8-1.7.2-2.5-.4" opacity=".25"/><path fill="none" stroke="#356732" d="M66.9 65.5c1 1.8 1.7 1.5 2.4-.2.5.5 2 2.8 2.6.9-.5 2.1 1.8 1.8 3.1 2.1-1.2 1.4.2 1.8 1.6 1.9-2 1.5.2 2.9 2 2.1" opacity=".23"/><path fill="none" stroke="#356732" d="M52.7 76c-.6 1.5.4 2.6 1.7 3.5.7-.7 1.5-1.3 1.7-2.3.3 1.1.9 2.3 2.1 2.2 0-.6.2-1.2.3-1.7" opacity=".25"/><radialGradient id="b" cx="2711.865" cy="408.678" r="53.122" gradientTransform="matrix(-.8275 -.07918 -.0773 .8478 2314.22 -73.685)" gradientUnits="userSpaceOnUse"><stop offset="0" stop-color="#98cb66"/><stop offset="1" stop-color="#659941"/></radialGradient><path fill="url(#b)" stroke="#659941" d="M49.1 96c.9-1.8 3.3-.4 5-.5.1-.9.6-1.3 1.4-1.5-.3-.2-.4-.8-.8-1.1 1.4-2.3 3.4-.3 5.4-.2 0-.3.2-.8.2-1.1 1.2.3 5.2-.8 4-2.4.4-1.2.4-2.5.3-3.8 1.1-.1 1.8-.5 2.7-1 .8-.4 2.5-1 3.2-1.4 1.3-.9 1.1-2.7 2.9-3.4.1-.4.2-1 .1-1.4-1.8-.3-5.3.1-3.8-2.8-1.5-1.2-7.4-2.2-7.2.9-1.8.2-2.3-1.6-1.6-2.9 0-.1 1.5-.4 1.7-.5.7-.4.3-1.6 2-1.1.2-.9 1.8-1.4 1.7-2.2-.2-1.1-1.7-.9-2.3-1.4-2.1-1.9 1.5-1 1.1-3.8-2.2-1.7-4.6.4-7-.7-.8 1.3-2.1.3-3.1-.3.1 1.4-.6 2-1.5 1.1-.6.4-1.1.5-1.9.1 0 .3-.1.6-.1.9-.4-.2-1.1 0-1.6-.3-.1.3-.3.6-.4.9-2.9-.3-2.6-.9-1.8-3 .1-.2.8-.3 1-.7.2-.5-.5-.7-.4-1 .2-.7.1-1.6.2-2.4-3-.2-5.7-2-2.4-4.4-.4 0-1-.2-1.4-.2 0-.5-.3-.9-.2-1.4-1.1-.5-2.4-.2-3.2-1.1-.2.2-.9.4-1.2.6-.8-1.5-1.9-.5-2.8-1.7-.5 0-1 0-1.6.1-.8 1.4-2.2.1-3.5.4-1.4.3-2 2.1-3.6 1.1.1.5-.3 1.1-.2 1.6-1.5.2-2.2-1.2-3.4-1.3-1.7-.1-1.9 1.5-3.3 2.1.8.3 1.6.7 2.2 1.3-.6.4-1.2 1-1.6 1.7.4.2.8.8 1.3.9-.8 1.9-4.7 3.5-4.6 6.3.1 1.5 1.8 1.8 1.4 3.1-.5 1.5-3.2.7-4.2 0-.1-.1-.8-1.4-.9-1.5.2.2-1.9-1.6-1.3-1.3-.3-.1-1.6-.2-1.5-.1.4.2-2.3-.3-1.7-.4-1 .2-2.2.5-3.6.6.3 0-2.4.6-2.2.5-.7.4-1.4.4-1.8 1.3.5.3.7 1.2 1.1 1.6-.8.3-1.4.8-1.8 1.5 1.7.8.4 2.6 1 4 .7 1.5 3.8 1.7 2.9 3.9-1.5-.1-3.2-.2-4.6-.6-.1.3-.1.6-.2.9-.3-.1-.8 0-1.1 0-.5 1.9 1.5 1.3 2 2.6.3.8-.7 2.2-.6 3.3 1.2.5.8 1.5 1.4 2.4.5.7 1.6 1.2 2.2 1.9.2-.3.6-.4.8-.7.7.8 1.5 2.9 2.3 3.4.7.5 2.2.2 3.3.6 1.3.4 2.3 2 3.3 2.3 1.4.4 2.2-1.6 3.1.1 1.7-1.5 3 .6 4.6.8 1.4.2 2.4-1 3.6.4 1.5 1.6-.1 2.3 2.6 2.5.9.1 2.8-.8 3.5-.7 1.7.3 2.8 1.9 4.6 1.4 1.6-.4 2.5-2 3.8-2.6 1.7-.6 2.8.3 4.6.5.7.1.9.4 1.6.3.5-.1.6-.9 1.5-.8"/><path fill="none" stroke="#356732" d="M59.7 79.2c.5-.8 2-1.2 3-1.5.2 1.2-.9 1.6-1.8 1.9 1.3 0 3 .5 3.4 1.9-1.2.1-2.6.5-3.6-.4.1.9 1.3 1.7 1.8 2.4-1.3 0-3.4.2-3.3-1.7m-40.1 1.5c.4 0 .7.1 1 0 .8-2.5-.4-4.7-2.6-5.9-.2 1.6-.5 3.3-.2 4.8-1.2-.8-2.4-1.7-3.7-2.3.1 1.8 1.5 3.2 2.8 4.1-1.3-.4-2.6-1-3.7-1.3.4 1.3 1.7 2.4 3.2 2.8m7.5-10.2c-.5-1.5-.7-2.9-.6-4.4.5 0 .9.1 1.3.1.2 1.2.5 2.5.9 3.6.6-.6 1.9-1.2 2.5-1.9.6 1.5.1 2.9-1.3 3.5M50 84.4c2-.1 3.8 1.1 5 2.7-1.5-.1-3-.2-4.3-.8.7 1.1 1.5 2.3 2 3.4-1.9-.1-3.2-1.5-3.9-3.2m-1.2.6c0 1.5-.9 2.7-2.3 2.6 0-.8 0-1.7.2-2.5m5.3-15.4c-.8-1.3-.8-2.8.3-3.7.2.8 1 2.3 1.1 3.1.9-.7 2-1.3 3-1.8.9 2.1-.7 3.8-2.8 3.6m-2.5.9c-.3-1.2-1-1.9-2.3-2-.6 1.6-.1 2.8 1.5 3m-15.6-9.5c1.7 0 2.6-1.5 2.7-3-1.3.1-2.5.9-3.4 2 .5-1.6.1-3.1-1.4-3.6-.7 1.5-1.1 3.3-.3 4.7-1.4-.3-1.9 0-3 .4.7.3 1.5.8 2.3.9m8.3-6.8c-.5-1.2-.1-2.4 1-3.2.2.8.7 1.3.5 2.6 1-.1 2.1.5 3.1.4-.6 1.3-2.1 1.8-3.6 1.4m-6.2 24.2c1.3.6 2.3 1.7 2.5 3.1-1.4.1-2.5-.6-3.3-1.7.1.7-.4 1.7-.3 2.4-1.5 0-1.9-1-1.6-2.5-1.6 4.4-5.3-.9-1.1-2.4m7.3 6.2c1.3.3 2.1 1 2.2 2.3-1.3.1-2.5-.6-3-1.7m5.5-10c-.6-1.5 1.3-2.5 3-2.2.1 1.6-.8 2.7-2.3 2.6M11.2 72c-.2-.8-1-1.5-2.3-1.6-.1 1 .2 2.3.8 3.2.4.1.8.3.9.4-1.4-.3-2.4.1-2.6 1.6 1.4.5 2.7.5 3.2-.7" opacity=".32"/><path fill="none" stroke="#356732" d="M60.7 73.8c-.5-.1-1.1-.1-1.6-.1.2.8.8 1.4.5 2.3-.4-.1-.8 0-1.2-.1.3.3.3.8.5 1-.2-.1-.6-.1-.8-.2.9 2.2-1.4.4-1.9.1.1 1 .5 1.8.8 2.6-.5-.1-.9-.1-1.3-.4.2 1.1-.6 1.9-1.4.9.1 1.1-.9 1.4-1.3.5-.1 1.2-1.3 1.1-1.5 0-.5.5-1 .6-1.3-.1-.7.8-1.7.2-2.5-.4" opacity=".25"/><path fill="none" stroke="#356732" d="M20.7 67.7c1 1.8 1.7 1.5 2.4-.2.5.5 2 2.8 2.6.9-.5 2.1 1.8 1.8 3.1 2.1-1.2 1.4.2 1.8 1.6 1.9-2 1.5.2 2.9 2 2.1" opacity=".23"/><path fill="none" stroke="#356732" d="M6.4 78.2c-.6 1.5.4 2.6 1.7 3.5.7-.7 1.5-1.3 1.7-2.3.3 1.1.9 2.3 2.1 2.2 0-.6.2-1.2.3-1.7" opacity=".25"/><radialGradient id="c" cx="2543.358" cy="392.26" r="53.122" gradientTransform="matrix(-.8275 -.07918 -.0773 .8478 2314.22 -73.685)" gradientUnits="userSpaceOnUse"><stop offset="0" stop-color="#98cb66"/><stop offset="1" stop-color="#659941"/></radialGradient><path fill="url(#c)" stroke="#659941" d="M189.8 95.4c.9-1.8 3.3-.4 5-.5.1-.9.6-1.3 1.4-1.5-.3-.2-.4-.8-.8-1.1 1.4-2.3 3.4-.3 5.4-.2 0-.3.2-.8.2-1.1 1.2.3 5.2-.8 4-2.4.4-1.2.4-2.5.3-3.8 1.1-.1 1.8-.5 2.7-1 .8-.4 2.5-1 3.2-1.4 1.3-.9 1.1-2.7 2.9-3.4.1-.4.2-1 .1-1.4-1.8-.3-5.3.1-3.8-2.8-1.5-1.2-7.4-2.2-7.2.9-1.8.2-2.3-1.6-1.6-2.9 0-.1 1.5-.4 1.7-.5.7-.4.3-1.6 2-1.1.2-.9 1.8-1.4 1.7-2.2-.2-1.1-1.7-.9-2.3-1.4-2.1-1.9 1.5-1 1.1-3.8-2.2-1.7-4.6.4-7-.7-.8 1.3-2.1.3-3.1-.3.1 1.4-.6 2-1.5 1.1-.6.4-1.1.5-1.9.1 0 .3-.1.6-.1.9-.4-.2-1.1 0-1.6-.3-.1.3-.3.6-.4.9-2.9-.3-2.6-.9-1.8-3 .1-.2.8-.3 1-.7.2-.5-.5-.7-.4-1 .2-.7.1-1.6.2-2.4-3-.2-5.7-2-2.4-4.4-.4 0-1-.2-1.4-.2 0-.5-.3-.9-.2-1.4-1.1-.5-2.4-.2-3.2-1.1-.2.2-.9.4-1.2.6-.8-1.5-1.9-.5-2.8-1.7-.5 0-1 0-1.6.1-.8 1.4-2.2.1-3.5.4-1.4.3-2 2.1-3.6 1.1.1.5-.3 1.1-.2 1.6-1.5.2-2.2-1.2-3.4-1.3-1.7-.1-1.9 1.5-3.3 2.1.8.3 1.6.7 2.2 1.3-.6.4-1.2 1-1.6 1.7.4.2.8.8 1.3.9-.8 1.9-4.7 3.5-4.6 6.3.1 1.5 1.8 1.8 1.4 3.1-.5 1.5-3.2.7-4.2 0-.1-.1-.8-1.4-.9-1.5.2.2-1.9-1.6-1.3-1.3-.3-.1-1.6-.2-1.5-.1.4.2-2.3-.3-1.7-.4-1 .2-2.2.5-3.6.6.3 0-2.4.6-2.2.5-.7.4-1.4.4-1.8 1.3.5.3.7 1.2 1.1 1.6-.8.3-1.4.8-1.8 1.5 1.7.8.4 2.6 1 4 .7 1.5 3.8 1.7 2.9 3.9-1.5-.1-3.2-.2-4.6-.6-.1.3-.1.6-.2.9-.3-.1-.8 0-1.1 0-.6 1.9 1.4 1.3 1.9 2.6.3.8-.7 2.2-.6 3.3 1.2.5.8 1.5 1.4 2.4.5.7 1.6 1.2 2.2 1.9.2-.3.6-.4.8-.7.7.8 1.5 2.9 2.3 3.4.7.5 2.2.2 3.3.6 1.3.4 2.3 2 3.3 2.3 1.4.4 2.2-1.6 3.1.1 1.7-1.5 3 .6 4.6.8 1.4.2 2.4-1 3.6.4 1.5 1.6-.1 2.3 2.6 2.5.9.1 2.8-.8 3.5-.7 1.7.3 2.8 1.9 4.6 1.4 1.6-.4 2.5-2 3.8-2.6 1.7-.6 2.8.3 4.6.5.7.1.9.4 1.6.3.5-.1.6-.9 1.5-.8"/><path fill="none" stroke="#356732" d="M200.4 78.6c.5-.8 2-1.2 3-1.5.2 1.2-.9 1.6-1.8 1.9 1.3 0 3 .5 3.4 1.9-1.2.1-2.6.5-3.6-.4.1.9 1.3 1.7 1.8 2.4-1.3 0-3.4.2-3.3-1.7m-40.1 1.5c.4 0 .7.1 1 0 .8-2.5-.4-4.7-2.6-5.9-.2 1.6-.5 3.3-.2 4.8-1.2-.8-2.4-1.7-3.7-2.3.1 1.8 1.5 3.2 2.8 4.1-1.3-.4-2.6-1-3.7-1.3.4 1.3 1.7 2.4 3.2 2.8m7.5-10.1c-.5-1.5-.7-2.9-.6-4.4.5 0 .9.1 1.3.1.2 1.2.5 2.5.9 3.6.6-.6 1.9-1.2 2.5-1.9.6 1.5.1 2.9-1.3 3.5m23.8 8.2c2-.1 3.8 1.1 5 2.7-1.5-.1-3-.2-4.3-.8.7 1.1 1.5 2.3 2 3.4-1.9-.1-3.2-1.5-3.9-3.2m-1.2.6c0 1.5-.9 2.7-2.3 2.6 0-.8 0-1.7.2-2.5m5.3-15.5c-.8-1.3-.8-2.7.3-3.7.2.8 1 2.3 1.1 3.1.9-.7 2-1.3 3-1.8.9 2.1-.7 3.8-2.8 3.6m-2.5.9c-.3-1.2-1-1.9-2.3-2-.6 1.6-.1 2.8 1.5 3m-15.5-9.5c1.7 0 2.6-1.5 2.7-3-1.3.1-2.5.9-3.4 2 .5-1.6.1-3.1-1.4-3.6-.7 1.5-1.1 3.3-.3 4.7-1.4-.3-1.9 0-3 .4.7.3 1.5.8 2.3.9m8.2-6.8c-.5-1.2-.1-2.4 1-3.2.2.8.7 1.3.5 2.6 1-.1 2.1.5 3.1.4-.6 1.3-2.1 1.8-3.6 1.4m-6.2 24.3c1.3.6 2.3 1.7 2.5 3.1-1.4.1-2.5-.6-3.3-1.7.1.7-.4 1.7-.3 2.4-1.5 0-1.9-1-1.6-2.5-1.6 4.4-5.3-.9-1.1-2.4m7.3 6.1c1.3.3 2.1 1 2.2 2.3-1.3.1-2.5-.6-3-1.7m5.5-10c-.6-1.5 1.3-2.5 3-2.2.1 1.6-.8 2.7-2.3 2.6m-31.2-9.5c-.2-.8-1-1.5-2.3-1.6-.1 1 .2 2.3.8 3.2.4.1.8.3.9.4-1.4-.3-2.4.1-2.6 1.6 1.4.5 2.7.5 3.2-.7" opacity=".32"/><path fill="none" stroke="#356732" d="M201.4 73.2c-.5-.1-1.1-.1-1.6-.1.2.8.8 1.4.5 2.3-.4-.1-.8 0-1.2-.1.3.3.3.8.5 1-.2-.1-.6-.1-.8-.2.9 2.2-1.4.4-1.9.1.1 1 .5 1.8.8 2.6-.5-.1-.9-.1-1.3-.4.2 1.1-.6 1.9-1.4.9.1 1.1-.9 1.4-1.3.5-.1 1.2-1.3 1.1-1.5 0-.5.5-1 .6-1.3-.1-.7.8-1.7.2-2.5-.4" opacity=".25"/><path fill="none" stroke="#356732" d="M161.4 67.1c1 1.8 1.7 1.5 2.4-.2.5.5 2 2.8 2.6.9-.5 2.1 1.8 1.8 3.1 2.1-1.2 1.4.2 1.8 1.6 1.9-2 1.5.2 2.9 2 2.1" opacity=".23"/><path fill="none" stroke="#356732" d="M147.2 77.6c-.6 1.5.4 2.6 1.7 3.5.7-.7 1.5-1.3 1.7-2.3.3 1.1.9 2.3 2.1 2.2 0-.6.2-1.2.3-1.7" opacity=".25"/><radialGradient id="d" cx="2598.396" cy="504.212" r="53.122" gradientTransform="matrix(-.8275 -.079 -.06993 .7689 2318.582 -120.4)" gradientUnits="userSpaceOnUse"><stop offset="0" stop-color="#98cb66"/><stop offset="1" stop-color="#659941"/></radialGradient><path fill="url(#d)" stroke="#659941" d="M143.9 96.6c.9-1.6 3.3-.3 5-.4.1-.8.6-1.2 1.4-1.4-.3-.2-.4-.8-.8-1 1.4-2 3.4-.3 5.4-.1 0-.3.2-.7.2-1 1.2.3 5.2-.7 3.9-2.1.4-1.1.4-2.3.3-3.4 1.1-.1 1.8-.5 2.7-.9.8-.4 2.5-.9 3.2-1.3 1.3-.8 1.1-2.5 2.9-3 .1-.3.2-.9.1-1.2-1.8-.3-5.3 0-3.8-2.6-1.5-1.1-7.5-2-7.2.8-1.8.2-2.4-1.4-1.6-2.6 0-.1 1.5-.3 1.7-.4.7-.3.3-1.4 2-1 .2-.8 1.8-1.3 1.7-2-.2-1-1.7-.8-2.3-1.3-2.2-1.7 1.5-.9 1-3.4-2.2-1.6-4.5.3-7-.7-.8 1.1-2.1.3-3.1-.3.1 1.3-.5 1.8-1.5 1-.6.4-1 .5-1.9 0 0 .3-.1.6-.1.8-.4-.2-1.1 0-1.6-.3-.1.3-.3.5-.4.8-2.9-.3-2.6-.9-1.9-2.7.1-.2.8-.2 1-.6.2-.4-.5-.6-.4-.9.2-.7 0-1.4.2-2.2-3-.2-5.7-1.8-2.5-4-.4 0-1-.2-1.4-.2 0-.4-.3-.8-.2-1.3-1.1-.5-2.4-.2-3.3-1-.2.2-.9.3-1.2.5-.8-1.4-1.9-.5-2.8-1.5-.5 0-1 0-1.6.1-.7 1.3-2.1 0-3.5.3-1.3.3-1.9 1.9-3.6 1 .1.4-.3 1-.2 1.5-1.5.2-2.2-1.1-3.4-1.2-1.7-.1-1.9 1.4-3.2 1.8.8.3 1.6.7 2.2 1.2-.6.3-1.2.9-1.5 1.6.4.2.8.7 1.3.8-.8 1.7-4.7 3.2-4.5 5.7.1 1.3 1.8 1.6 1.4 2.8-.5 1.3-3.2.6-4.2 0-.1-.1-.8-1.3-.9-1.4.2.2-1.9-1.5-1.3-1.2-.3-.1-1.6-.2-1.5-.1.4.1-2.3-.3-1.8-.4-1 .1-2.2.4-3.6.5.3 0-2.3.5-2.2.5-.7.3-1.4.3-1.8 1.2.5.3.8 1.1 1.1 1.4-.8.2-1.4.7-1.7 1.4 1.7.8.4 2.4 1.1 3.6.7 1.4 3.8 1.6 3 3.6-1.5-.1-3.2-.2-4.6-.6-.1.2-.1.6-.1.8-.3-.1-.8 0-1.1 0-.6 1.7 1.4 1.2 2 2.3.4.8-.7 2-.5 3 1.2.5.8 1.3 1.4 2.2.5.7 1.6 1.1 2.2 1.7.2-.3.6-.4.8-.6.7.7 1.5 2.7 2.3 3.1.8.4 2.2.2 3.3.5 1.3.4 2.3 1.8 3.3 2.1 1.4.4 2.2-1.4 3.1.1 1.6-1.4 3 .5 4.6.8 1.4.2 2.3-.9 3.6.4 1.5 1.5-.1 2.1 2.6 2.3.9.1 2.8-.7 3.5-.6 1.7.3 2.9 1.7 4.7 1.4 1.6-.3 2.5-1.8 3.8-2.3 1.7-.6 2.8.3 4.6.5.7.1.9.3 1.6.3.5-.1.6-.8 1.5-.7"/><path fill="none" stroke="#356732" d="M154.4 81.4c.5-.7 2-1.1 2.9-1.3.2 1.1-.9 1.4-1.8 1.7 1.3 0 3 .5 3.4 1.8-1.2.1-2.6.4-3.6-.4.2.8 1.3 1.5 1.8 2.2-1.3 0-3.4.1-3.3-1.6m-39.9 1c.4 0 .7.1 1 0 .8-2.2-.4-4.3-2.6-5.4-.2 1.4-.5 3-.1 4.4-1.2-.8-2.4-1.6-3.7-2.1.2 1.7 1.6 2.9 2.9 3.7-1.3-.3-2.6-.9-3.7-1.2.4 1.2 1.8 2.2 3.3 2.6m7.1-9.2c-.5-1.3-.8-2.6-.7-4 .5 0 .9.1 1.3.1.3 1.1.5 2.3.9 3.3.6-.6 1.9-1.1 2.5-1.7.7 1.4.1 2.6-1.3 3.2m23.9 7.6c2-.1 3.9 1 5 2.5-1.5-.1-3-.2-4.3-.7.7 1 1.5 2.1 2.1 3.1-1.9-.1-3.3-1.4-4-3m-1.1.5c0 1.4-.9 2.4-2.3 2.4 0-.7-.1-1.6.2-2.2m5.1-14.2c-.8-1.1-.8-2.5.3-3.3.2.8 1 2.1 1.2 2.8.9-.6 1.9-1.2 3-1.6.9 1.9-.7 3.4-2.8 3.2m-2.6.8c-.3-1.1-1.1-1.8-2.3-1.8-.6 1.4-.1 2.5 1.5 2.7m-15.5-8.7c1.7 0 2.6-1.3 2.7-2.7-1.3.1-2.5.8-3.3 1.8.5-1.4.1-2.9-1.4-3.3-.7 1.4-1 3-.2 4.3-1.4-.3-1.8 0-3 .4.7.3 1.5.7 2.3.9m7.9-6.2c-.5-1.1-.1-2.2 1-2.9.2.8.7 1.2.6 2.4 1 0 2.1.5 3.1.4-.5 1.2-2.1 1.6-3.6 1.2m-6 21.9c1.3.5 2.3 1.6 2.5 2.8-1.4.1-2.5-.6-3.3-1.6.1.7-.4 1.5-.3 2.2-1.5 0-1.9-.9-1.6-2.3-1.6 4-5.3-.9-1.1-2.2m7.3 5.7c1.3.3 2.1.9 2.3 2.2-1.3 0-2.5-.6-3-1.6m5.4-9.1c-.6-1.4 1.3-2.3 3-2 .1 1.5-.7 2.5-2.3 2.4m-31.3-8.9c-.2-.7-1.1-1.4-2.3-1.5-.1.9.2 2.1.8 2.9.4.1.8.3.9.4-1.4-.3-2.4.1-2.5 1.4 1.4.5 2.7.5 3.2-.6" opacity=".32"/><path fill="none" stroke="#356732" d="M155.3 76.5c-.5-.1-1.1-.1-1.6-.1.2.7.8 1.3.6 2.1-.4-.1-.8 0-1.2-.1.3.3.3.7.5.9-.2-.1-.6-.1-.8-.1.9 2-1.4.4-1.9.1.1.9.5 1.6.9 2.4-.5-.1-.9-.1-1.3-.4.2 1-.5 1.7-1.4.8.1 1-.9 1.2-1.3.4-.1 1.1-1.3 1-1.5 0-.5.4-1 .5-1.3-.1-.7.7-1.7.1-2.5-.4" opacity=".25"/><path fill="none" stroke="#356732" d="M115.3 70.6c1 1.7 1.7 1.4 2.4-.2.5.5 2.1 2.6 2.6.9-.5 1.9 1.8 1.7 3.1 1.9-1.1 1.3.2 1.7 1.6 1.8-2 1.3.2 2.6 2.1 1.9" opacity=".23"/><path fill="none" stroke="#356732" d="M101.2 80c-.5 1.4.4 2.4 1.7 3.2.6-.6 1.5-1.2 1.7-2.1.3 1 .9 2.1 2.1 2.1 0-.5.1-1.1.3-1.6" opacity=".25"/><path fill="#98CB67" d="M152.8 93.8c.2-1.5-1.4-2.9-2.2-4 1.8 0 6.4 1.2 7.5 1.7-.3-2.1-1-3.9-2.6-5.6 2.9.4 5.1 1.7 6.7 3 .8-1.5.9-3.2 2.3-4.4.3.8 1.3 1.4 1.4 2.3 2.1-1.3 2-3.1 5.2-4.3.5 1.1.7 2.2.5 3.4-.3-2.6 6.1-6.4 9.5-8.6.6 1.9-1.4 4.6-2.3 6.8 2.2-1.8 3.8-4.3 6.8-5.6.5 1.2.1 2.5.5 3.8.8-.8 2.9-1.8 3.9-2.5 1.1 1 2.2 2 4.3 2.3 1.7-1.8.1-3.8-.1-5.5 2.8-.3 4.4 1.3 5.3 2.5.6-1.7.6-3.5 0-5.1 4.2.4 4.5 3.9 6.8 5.5.6-1.7 1-3.7 2.1-5.5.1 1.1.6 2.2 1.3 3.1 1-1.5 8.7-3.1 10.2-4.6l-.3 22.3c.1-.1-76.9 2.6-66.8-1zm-85.1-.4c-.2-1.5 1.4-2.9 2.2-4-1.8 0-6.4 1.2-7.5 1.7.3-2.1 1-3.9 2.6-5.6-2.9.4-5.1 1.7-6.7 3-.8-1.5-.9-3.3-2.3-4.5-.3.8-1.3 1.4-1.4 2.3-2.1-1.3-2-3.1-5.2-4.3-.5 1.1-.7 2.2-.5 3.4.3-2.6-6.1-6.4-9.5-8.6-.6 1.9 1.4 4.6 2.3 6.8-2.2-1.8-3.8-4.3-6.8-5.6-.5 1.2-.1 2.5-.5 3.8-.8-.8-2.9-1.8-3.9-2.5-1.1 1-2.2 2-4.3 2.3-1.7-1.8-.1-3.8.1-5.5-2.8-.3-4.4 1.3-5.3 2.5-.6-1.7-.6-3.5 0-5.1-4.2.4-4.5 3.9-6.8 5.5-.6-1.7-1-3.7-2.1-5.5-.1 1.1-.6 2.2-1.3 3.1C9.7 75.1 1.5 73.5 0 72v22.7s77.9 2.3 67.7-1.3z"/><path fill="#98CB67" d="M65.1 96c.3-1.5-1-3-1.8-4.2 1.7.2 6.2 1.8 7.2 2.5-.1-2.1-.6-4-1.9-5.9 2.9.7 4.9 2.2 6.4 3.7.9-1.4 1.3-3.1 2.8-4.2.2.8 1.2 1.5 1.1 2.5 2.2-1 2.3-2.8 5.7-3.7.3 1.1.5 2.3.1 3.4-.1-2.6 6.7-5.7 10.4-7.5.4 1.9-1.8 4.5-3 6.5 2.4-1.6 4.2-3.8 7.3-4.8.3 1.3-.2 2.5.1 3.8.9-.7 3.1-1.5 4.1-2 1 1.1 2 2.2 4 2.7 1.9-1.6 2.7-3.4 2.6-5.1 2.9 0-.9 14-1.3 12.4 4.3.7-54.3 2.3-43.8-.1z"/><path fill="#98CB67" d="M155.3 94.8c-.3-1.5 1-3 1.8-4.2-1.7.2-6.2 1.8-7.2 2.5.1-2.1.6-4 1.9-5.9-2.9.7-4.9 2.2-6.4 3.7-.9-1.4-1.3-3.1-2.8-4.2-.2.8-1.2 1.5-1.1 2.5-2.2-1-2.3-2.8-5.7-3.7-.3 1.1-.5 2.3-.1 3.4.1-2.6-6.7-5.7-10.4-7.5-.4 1.9 1.8 4.5 3 6.5-2.4-1.6-4.2-3.8-7.3-4.8-.3 1.3.2 2.5-.1 3.8-.9-.7-3.1-1.5-4.1-2-1 1.1-2 2.2-4 2.7-1.9-1.6-.5-3.7-.5-5.4-2.9 0-7.7 15.9-7.4 14.3-4.3.8 60.8.8 50.4-1.7z"/><path fill="#2DB24A" d="M0 94h220v35H0z"/><g fill="#FFF"><path d="M62.6 129.2c-.7 0 .4.1-.5 0h.5zm1.7-1c2-1.4 4.9-2.4 7.3-3.4.3-.1 0 .1.6-.1 2.3-1 6.1-2 9.2-2.6l-.2.1c.6-.1 1.2-.4 1.8-.5 0 0-.2.1 0 .1.1-.1 1.1-.3 1.3-.4h.5l.3-.1c.9-.4 2.3-.4 3.6-.7-.1 0-.2.1-.1.1 1.1-.2 2.2-.4 3.5-.6 1.2-.2 2.5-.3 3.7-.5-.1 0-.2.1 0 .1.1-.1.8-.2 1.5-.3.3.1 1.1-.2 1.9-.2h-.1c.5-.1.8 0 1.3-.2h.4c.2-.1.8 0 1.3-.1.4-.1.7 0 1.1-.1.9-.1 1.5 0 1.5-.1.3.1-.9.1-.4.2 3.1-.2 6.3-.3 9.4-.2.4 0 .6.1.7.1h1.5c-.1 0 .2.1.4.1.6.1.6-.1 1.2 0-.2 0-.3 0-.3.1.5-.1 1.2 0 1.9 0h-.2c.7-.1 1.3.1 1.9.1h-.2c1 .1.3-.1 1.1 0-.2 0-.1 0-.2.1.8-.1 2.1.1 2.8.1.9.1 1.7.1 2.7.2.3.1-.1.1.8.2 0-.1 1.5.1 1-.1.8.1 2 .3 2.5.3-.3 0 .4.2-.3.1l.5.1c-.1 0-.5-.1-.3 0 .3 0 1.3.1 1.5.2.6 0 1.2 0 2.1.1-.5 0 .2.2-.1.1h1.4c.3 0 .1.1.5.1h.3c.1 0 1.3.2 1.4.4.1.1-.5-.1-.2 0l1.2.2c.4.1 1.1.2.7 0-.3-.1.1.1-.3 0 .3 0 1 .1 1.5.3h-.3c.8.1 1.6.3 2.5.4h-.5c1.1.3 2.3.5 3.2.9-.2 0-.1-.1-.1-.1.5.2.5.2.8.3 0 .1.4.1.8.2h-.2c.3.1.9.2 1.6.4.7.2 1.5.5 2 .7 0 0 .7.1 1 .2h-.1c.2.1.9.3.9.4.6.1-2.1-.8-1.4-.5.2.1 1.1.3.9.3.5.2 1 .3 1.5.6-.1-.1-.5-.1 0 .1.7.3.2 0 .8.3l.4.1c.1-.1.6.3.4.1.1.1 1.1.4.9.5h-.1c.3.1.5.2.8.2l.1.1c.1-.1.7.4 1.1.5.6.3 1.6.9 1.8 1.1.2.1.4.2.7.3l1.1.6-1.3.1h-.9.3-.8c.1 0-.8-.1-1.2-.1-.5 0-.4.1-.4.2-.5-.1-1.5.1-2.1 0 .2 0 .8-.1.3-.1-.5-.1-1 .1-1.8 0l.2.1c-.4-.1-1.2.1-1.1 0-.3 0-.9 0-.8.1-1.3-.1-3.2.1-4-.1-.2 0-.7 0-.6.1.3.1.4 0 .5 0h-.2c-.4 0-.7 0-.3-.1-.9-.1-.9.2-2.1.1.1 0 0-.1-.4-.1l-.6.1c-.7 0-.4-.1-.4-.2-.4 0-.9 0-1.1.1l-.5-.1c.4.1-.3 0-.5.1h.2-.8c.1 0 .5.1.8.1-.2 0-.5 0-.8.1.1-.1-.6-.1-1-.1s-.4.1-.5.1c0 0-.6 0-.3-.1h.5c-.2 0-.2-.1-.7 0-.4 0 .1.1-.6.1.2 0 .2 0 .4-.1h-.7v.1h-.1c-.2.1-1 0-1.2.1-.3 0-.7 0-1-.1h.1-2.2c-.5-.1-.2-.3-.8-.2-.5 0-.9.1-.6.2-1 0-2.1.1-3 0-.1 0-.1 0-.3.1-1.4 0-3 .1-4.2-.1.4 0 0-.1 0-.1-.3.1-.4-.1-.5 0 0 .1 0 .1.4.1h-2.6c.2 0 .1 0-.1.1.1-.1-.6-.1-1.1-.1l-.1.1-.3-.1c-.2 0-.2.1-.7.1 0 0-.1 0-.1-.1-.5 0-1.2.1-1.7.1l-.4-.1c-.2 0-.6.1-.2.1-.9-.1-1.5-.1-1.8-.1-1.6.2-3.9.2-5.7.2h.1c-.5 0-.3.1-.6 0 .2 0-.4-.1 0-.1-.7 0-.9.1-1.4.1-.1.1.4 0 .3 0h-1.1c-.2 0 0-.1.1-.1h-.4c-.5-.1 1.2-.2.6-.3h-.4c-.4-.1 1.1-.1.1-.1-.4 0-.8.2-.4.2-.9 0-.4.2-1.4.2-.3-.1.8 0 .6-.1-.5-.1-.9 0-1.3 0 .5 0 .1.1-.2.1-.5 0 .3-.1-.4-.1-.1.1-.8.1-.2.1-.3.1-.7 0-1.1.1-.2-.1.7-.2 0-.2.1.1-.9.1-.5.2-.3 0-.3-.1-.1-.1-.4 0-1 .1-1.2 0l-.1.1c-.1 0-.3-.1-.5-.1-.4 0-1.2.1-1.2 0-.1 0-1 0-.7.1.5.1.6-.1.9.1-.4-.1-.8 0-1.1 0h-.1c-.2 0-.6 0-.7.1.1 0 .1-.1-.1-.1l-.2.1c-.8 0-.2-.1-.9-.1l.6-.1c-.1 0-.4-.1-.7 0-.1.1-.4.1-.5.2-.4 0-.2-.1-.6 0l.5-.1c.1 0-.4-.1-.9-.1-.4 0-.9.1-.3.1-.3 0-.7 0-.4-.1-.6 0 .1.1-.5.1-.2 0-.9-.1-1.3-.2l.6-.1h-.4c.5-.1-.2-.1 0-.2H92c.7.1-.8.2-.6.3-1 0-.6-.3-1.7-.1.2 0-.3.1.3.1-.6 0-.4.1-1.2.1.6-.1-.6-.1.2-.2h.6c-.3-.1.1-.1-.6-.1-.4 0-.9 0-.9.1s.6 0 .4.1c-.8 0-.9-.1-1.3 0 .5 0 .6.1.6.1h-.6l.1-.1c-.9 0-.3.1-1.2.1l-.4-.1c.2-.1 1.3 0 1.2-.1-.6 0-.8.1-1.3 0h.4c-.2 0-.4-.2-1.3-.1-.4 0-.1 0-.1.1-.9 0-1.2.1-1.8.1.1-.1-1.1 0-.4-.1.3.1 1.7.1 2 0-.3-.1.7 0 .9-.1-.8 0-.7-.1-.8-.2H84c-.1.1.2.1.2.1-.8 0-1.7 0-2.1.1-.3 0-.2-.1.1-.1h-3c.6.1-1.1 0-.6.1.5 0 1 .1.7.2-.3 0 0-.1-.1-.1-.4.1-.6-.1-1 0 .9 0 .2-.1.3-.2-.7.1 0-.1-.6-.1-.7.1-1.5.1-2.2.1-.9-.1-2.3 0-3.2 0-.4 0-.1-.2-.6-.2s.4.1-.4.1h.1c-.2 0-1.5-.1-1.7.1l.3-.1h-.4s-.2-.1.1-.1c-.5-.1-1.1 0-1.6 0l.4.1c-.9.1-1.6 0-2.5 0v-.1h-.5c.1-.1-.4-.1-.6-.1l1.4-.2c.4 0-.4.1-.2.1.2.1 1 0 1.2 0h-.6c-.1-.1.4-.1.6-.2h-.4c.3 0 .7-.1 1.2-.1-.4 0 .2.1.1.1 0-.1.6-.1 1.2-.1.5.1 1.3-.1 2.1 0-.3.1-.7.1-1.2.2h1c.2-.1.4-.2 1.1-.2v.1c.6 0 .6-.1 1.3-.1h3.6v.1c.5-.1 1.8 0 2.5-.1 1.2.1 2.7-.1 3.3 0 2.2 0 4.1-.1 6.4-.1l-.4.1c.4-.1.3.1.7 0-.5-.1.6-.1.8-.1 1 .1 2.3 0 3.2-.1v.1c.9-.1 2 0 3.1 0 .1 0 .3.1.7.1.6-.1.9-.1 1.8-.2.7 0 1.7 0 2.4.1 2.5-.1 5 0 7.5-.1l.2.1c2.5-.2 5.5 0 7.6-.1l-.2.1c.7 0 1.5 0 1.3-.1.7 0 1.7-.1 2.1 0 .7 0 .8-.1 1.4-.1h3.1-.3c-.1 0-.2.1.2.1.5 0 1.8 0 1.3-.1 1.4.1 3.2-.1 4.5 0-.1 0 .2 0 .4-.1 1.2 0 2.5.1 3.4 0 .2 0-.3.1.2.1.3 0 0-.1.4-.1 1.9-.1 3.9.1 5.7.1 3.1-.1 6.4 0 9.4-.1 1-.1 2.4.1 3.2-.1.2 0 .9 0 .7.1.8-.1 2.2.1 3.4 0h-.3c1.2.1 2.2 0 3.4 0-.1 0-.4 0-.4.1.4 0 .9-.1 1.2 0l-.2.8-.2-.2c-.2-.1-.2 0-.1 0-2.2-1.5-4.9-2.6-7.5-3.6-1.8-.8 0-.3-1.5-.7-.1-.1-.1 0-.1 0-.6-.2-.8-.5-1.3-.5.1.1-.3 0-.3 0-1.1-.4-1.4-.6-2.3-.8h.1c-1.1-.2-2.4-.6-3.3-.7-6.1-1.5-12.1-2.4-18.1-3-6-.6-11.9-.7-18.1-.7-1.4-.1-1.5-.1-3.1 0h.1c-.1.1-1.1.1-1.3.2-1.1.1-2.2.1-3.3.2-1.1.1-2.2.2-3.4.3.4 0 .5-.1.1-.1l-.5.1H97c-.3 0-.6.1-.3.1-5.8.7-11.6 1.5-17.1 3-.7.2-1.5.4-2.3.6-.8.3-1.6.5-2.3.7-4.2 1.2-7.9 2.7-11.7 5.1-.9.5-.6 0 1-1z"/><path d="M63.5 129.2c.2 0 .7.1.3.1-.1 0-.4 0-.3-.1zm13.7.5h.2-.5c.3.1.2 0 .3 0zm3.5.1c-.1 0-.8.1-1.2.1l1.2-.1zm3.3.1c.3 0 .2.1-.2.1 0 0 .1 0 .2-.1zm.2-.1h.5s-.6.1-.5 0zm7.1.2h.7c-.2-.1-.8 0-.7 0zm3.3-.1zm60-.2h-.4.1zm-13.1-7.9c-.4-.1-.2-.1-.3-.1.4 0-.1 0 .3.1zm-14-2.2h.1v.1z"/></g><g fill="#FFF"><path d="M102.7 128.4c0 .1.2 0 0 0zm25.7-30.9c-.1.5-.7.9-.9 1.4 0 .1-.1-.1-.2 0-.2.5-.8 1.1-1.3 1.5v-.1c-.1.1-.1.3-.2.3v-.1c0 .1-.1.2-.1.3h-.2v.1c0 .3-.3.4-.4.6 0 0 0-.1 0 0-.2.4-.6.8-.8 1.2 0 0 0-.1-.1-.1 0 .1 0 .2-.1.3-.1 0-.1.2-.2.3 0 .1-.1.1-.1.2h-.1c.1.1-.2.1-.2.2s-.1.1-.1.2c-.1.2-.2.2-.1.3-.1 0 .1-.2-.1-.2-.3.6-.8 1-1.2 1.5-.1 0-.1.1-.2 0 0 .1-.1.2-.1.3h-.1c-.1.1 0 .2-.1.2v-.1c0 .1-.1.2-.2.4v-.1c0 .2-.2.2-.2.3v-.1c-.2.1.1.1-.1.2v-.1c0 .2-.2.4-.3.5-.1.1-.2.3-.3.4-.1 0-.1-.1-.2.1.1.1-.2.3 0 .3-.1.1-.3.3-.3.4 0-.1-.2 0-.1-.1h-.1s.1-.1 0-.1c0 .1-.1.2-.2.3 0 .1 0 .3-.1.5 0-.1-.1 0-.1-.1v.3c0 .1-.1 0-.1 0v.1s-.2.2-.3.2c-.1 0 .1-.1 0-.1-.1.1-.1.1-.1.2-.1.1-.1.2 0 .2 0 0-.1 0 0-.1 0 .1-.1.2-.1.3v-.1c0 .2-.1.3-.2.5v-.1c-.2.1-.2.4-.4.5h.1c-.1.1-.1 0-.2.1 0 0 0 .1-.1.1v-.1c0 .1-.3.5-.5.6v.2-.1c-.1 0-.1.1-.2.1 0 .1.2-.4.2-.2-.1 0-.1.2-.1.2-.1.1-.1.2-.2.3 0 0 0-.1-.1-.1-.1.1 0 .1-.1.2v.1s-.1.1 0 .1c-.1 0-.1.2-.2.1l-.1-.1v.2c.1.1-.1.1-.1.2-.1.1-.2.3-.3.3 0 .1-.1.2-.2.3v-.1c-.1 0-.1.1-.1.1s-.2.1-.3.1c0 .1 0 .1.1.2-.2 0-.1.3-.3.3 0 0 .1-.2 0-.1-.2 0-.1.2-.2.3h.1c-.1 0-.1.2-.2.1 0 .1-.1.1-.1.2-.2.1-.4.5-.6.5 0 0-.1.1 0 .1s0-.1.1-.1v.1c-.1 0-.1.1-.1 0-.2.1 0 .3-.2.4h-.1v.1c-.1.1-.1 0-.2 0 0 .1-.1.1-.1.2h-.1c.1 0 0 .1 0 .1l-.1.1s.1 0 .2-.1c0 .1 0 .1-.1.2 0-.1-.1.1-.2.1s0 .1 0 .1-.1.1-.1 0c0 0 .1 0 .1-.1-.1 0-.1 0-.1.1s.1.1 0 .2v-.1l-.1.1c0 .1-.1.2-.1.2 0 .1-.1.1-.2.1s-.1.1-.1.2c0 0-.1.1-.1.2-.1.1-.2-.1-.2 0-.1.1 0 .2 0 .2-.2.1-.2.4-.4.4v.1c-.2.2-.3.5-.6.6 0-.1 0 0-.1-.1 0 .1-.1 0 0 .1.1 0 .1.1.1 0-.1.2-.3.4-.4.4.1 0 0 0 0 .1-.1-.1-.2 0-.2.1h-.1s.1.1 0 .1h-.1c0 .1-.1.3-.2.3h-.1v.1c-.2.1-.2.2-.3.2-.1.4-.4.7-.6 1-.1.1 0 .1 0 .1 0-.1-.1 0-.1-.1-.1.1-.1.2-.1.3 0 0 0-.1.1 0 0 0-.2.1-.1.2l-.1-.1v.1c-.1 0 0-.3-.2-.3v.1c-.1 0 .1-.2-.1-.1 0 .1 0 .2.1.2-.1.2.1.2 0 .3-.1 0 .1-.1 0-.1s-.1.2-.2.2c.1-.1.1.1.1.1-.1.1 0-.1-.1 0 0 .1 0 .2.1.1.1.1-.1.1-.1.2-.1 0 0-.2-.2-.1.1 0 0 .2.1.2-.1 0-.1 0-.1-.1-.1 0 0 .3-.2.2v.1h-.1c-.1.1-.1.3-.2.2 0 0-.1.2 0 .2.1-.1 0-.1.2-.1-.1 0-.1.1-.1.2 0 0-.1.1 0 .2h-.1v.1c-.1.1-.1-.1-.2.1v-.1s-.1 0-.1.1.1.2.1.2c0 .1-.1 0-.1.1v-.1s-.1 0-.2.1c0 .1 0 .2.1.1 0 0-.1.1-.1 0-.1.1.1 0 0 .1-.1 0-.2.1-.3.1v-.2.1c0-.1-.1 0-.1-.1 0 0-.1.1-.1.2.2 0 0 .3.2.3-.1.2-.3-.1-.3.2 0 0 .1.1.1 0-.1.1 0 .2-.1.2 0-.1-.2 0-.1-.2 0 0 .1 0 .1-.1-.1 0-.1-.1-.2 0 0 .1-.1.2 0 .2s.1-.1.1 0c-.1.1-.2.1-.1.2.1-.1.1-.1.2 0l-.1.1c-.1.1 0 .1-.1.2h-.1c0-.1.2-.2.1-.2-.1.1-.1.2-.2.2v-.1s-.2-.1-.2.1c0 .1 0 0 .1.1-.1.2-.1.2-.2.3-.1-.1-.1.2-.1 0 .1 0 .3-.2.2-.3-.1 0 .1-.1 0-.2-.1.1-.2 0-.3 0v.1c0 .1.1 0 .1.1-.1.1-.2.3-.2.4-.1 0-.1 0-.1-.1-.1.2-.3.3-.4.5.2 0-.1.2 0 .2.1-.1.2-.1.2 0h-.1c0 .1-.2 0-.1.2.1-.2-.1-.1-.1-.2 0 .1 0 0-.1.1 0 .1-.1.3-.2.4-.2.1-.3.4-.4.5-.1 0-.1-.1-.2 0s.1 0 0 .1c0 .1-.2.2-.2.3l-.1-.1v.1s-.1 0-.1-.1c-.1 0-.1.2-.2.3h.1c-.1.2-.2.2-.3.4v.1c0-.1-.1 0-.1.1l.1-.3c.1 0 0 .1.1.1s.2-.1.1-.2c0 0 0 .1-.1.1s0-.1 0-.2c0 0-.1 0-.1.1 0-.1 0-.1.1-.2 0 .1.1 0 .1 0-.1-.1 0-.2.1-.2s.1-.2.2-.3v.3c.1-.1.1-.1.2-.1 0-.1-.1-.2 0-.3h.1c.1-.1 0-.2.1-.3l.5-.5h.1c0-.2.2-.3.2-.5.2-.2.3-.5.5-.5.2-.4.5-.7.8-1v.1c0-.1.1 0 .1-.1-.1 0 0-.1 0-.2.2-.1.3-.4.4-.5h.1c0-.2.2-.3.4-.5 0 0 .1 0 .1-.1 0-.2.1-.2.1-.4.1-.1.2-.3.4-.3.2-.5.6-.8.9-1.3h.1c.2-.5.7-.9.9-1.3l.1.1c.1-.1.2-.3.1-.3.1-.1.2-.3.3-.3.1-.1.1-.2.1-.3.2-.2.3-.3.4-.5 0 0 0 .1.1 0 0-.1.3-.3.1-.3.2-.2.4-.5.6-.7v-.1c.2-.2.4-.3.5-.5 0 0 0 .1.1 0v-.1c.2-.4.6-.6.8-.9.3-.5.8-1 1.2-1.5 0-.2.4-.3.4-.5.1 0 .1-.1.1-.1 0-.2.3-.3.4-.6v.1c.2-.1.3-.4.5-.5v.1c.1 0 .1-.3.2-.2 0 0 0-.1 0 0 .4-.4.7-.9 1-1.4.3-.3.2.1.3-.2 0-.1.2-.1.2-.2-.1 0 0-.1 0-.1.2-.2.3-.1.4-.3 0-.3.3-.4.3-.7.8-1 1.5-2 2.3-3 .8-.9 1.5-1.9 2.4-2.8.3-.2.3-.2.5-.4-.1-.1.1-.2.1-.3.3-.3.6-.7.9-1.1 0 .1 0 .1.1.1v-.2c.7-1 1.6-1.8 2.3-2.7.2-.2.4-.5.6-.8.7-.6 1.3-1.2 1.8-1.9-1.1.8-1 1-1.1 1.4zm-25.6 30.7c.1 0 .1-.1.1 0 .1.1 0 .1-.1 0z"/><path d="M105 126.4s.1 0 0 0c.1 0 .1.1 0 0zm.5-.5s0 .2-.1.2l.1-.2zm.6-.4c0-.1 0 0 0 0zm-.1-.1s.1 0 .1-.1c0 0 0 .1-.1.1zm1-1.1s0-.1.1-.1c0 0 0 .2-.1.1zm.4-.5c.1-.1.1 0 0 0zm7.7-9.6l-.1.1zm3.4-4.1c0-.1 0 0 0 0s0-.1 0 0zm1.6-2.4v.1-.1z"/></g><g fill="#FFF"><path d="M1 97.5c-.8 0 .4.1-.5 0H1zm216.3 0c-2.6.2-6 0-8.9.1-.3 0 .1-.1-.7-.1-2.8.2-7.1.1-10.4-.1h.2c-.6 0-1.4.1-2.1.1 0 0 .2 0 .1-.1-.2.1-1.2 0-1.5.1-.3 0-.2-.1-.6-.1l-.4.1c-1.1.2-2.6 0-4.1.1.1 0 .2 0 .1-.1-2.4.1-5.3.1-8 .1.1 0 .2-.1 0-.1-.1.1-.9.1-1.7.1-.3-.1-1.2.1-2 0h.1c-.6.1-.9-.1-1.4.1l-.4-.1c-.3.1-.9-.1-1.4 0H173c-1 0-1.6 0-1.6.1-.4-.1 1 0 .4-.1-3.4.1-6.9.1-10.4.1-.4 0-.6-.1-.7-.1-.3 0-1.3 0-1.6.1.1 0-.2 0-.4-.1-.6 0-.7.1-1.4.1.3 0 .4-.1.3-.1-.6.1-1.4.1-2.1.1.1 0 .3 0 .2-.1-.8.1-1.4 0-2 0l.2-.1c-1.1-.1-.3.1-1.2.1.2 0 .1 0 .2-.1-.9.1-2.3.1-3.1.1.1 0 0 0 0 0h-2.9c-.4 0 .1-.1-.9-.1 0 .1-1.7 0-1.1.2-.8 0-2.2-.1-2.7 0 .4 0-.4-.1.3-.1l-.5-.1h.4-1.7c-.7.1-1.3.2-2.3.2.5 0-.3-.1.1-.1l-1.5.2c-.4 0-.1-.1-.6-.1 0 0-.2 0-.3.1-.1 0-1.5 0-1.6-.1-.2 0 .6 0 .2-.1h-1.3c-.4 0-1.3 0-.8.1.3 0-.1-.1.3 0-.3.1-1.1.1-1.7.1.2 0 .2 0 .3-.1-.9.1-1.8.1-2.8.1 0 .1.4-.1.5-.1-1.3-.1-2.6.1-3.6 0 .2 0 .1.1.1.1-.6 0-.6-.1-1-.1h-.7c-.6 0-2.8.1-4.1 0 0 0-.8.1-1.1.1l.1-.1c-.3 0-1 0-1.1-.1-.6.1 2.5-.1 1.6 0-.2-.1-1.2.1-1 0-.6 0-1.2.1-1.8 0 .2 0 .5-.1 0-.1-.9 0-.2 0-.9.1h-.4c0 .1-.8 0-.4.1-.1-.1-1.2 0-1.2-.1l.1-.1c-.4 0-.6.1-.9.1h-.1c-.1.1-.9 0-1.3.1-.8 0-2 0-2.3-.1-.6 0-1.1.1-1.8.1h.4-.9c.1 0-.9-.1-1.3-.1-.6 0-.4.1-.4.2-.5-.1-1.7.1-2.3 0 .2 0 .9-.1.4-.1-.5-.1-1.1.1-2 0l.2.1c-.4-.1-1.3.1-1.2 0-.3 0-1 0-.9.1-1.4-.1-3.5.1-4.4-.1-.2 0-.7 0-.6.1.3.1.5 0 .6 0h-.2c-.4 0-.8 0-.4-.1-1-.1-1 .2-2.3.1.1 0 0-.1-.4-.1l-.9.2c-.8 0-.5-.1-.5-.2-.4 0-1 0-1.2.1l-.5-.1c.4.1-.4 0-.6.1h.2-.8c.1 0 .6.1.9.1-.2 0-.6 0-.9.1.1-.1-.7-.1-1.1-.1-.4 0-.4.1-.6.1 0 0-.6 0-.3-.1h.5c-.3 0-.2-.1-.8 0-.4 0 .1.1-.7.1.2 0 .2 0 .4-.1h-.7v.1H84c-.1-.1-1-.1-1.1-.1-.4 0-.8 0-1.1-.1h.1-2.5c-.6-.1-.2-.3-.9-.2-.6 0-.9.1-.7.2-1.1 0-2.3.1-3.3 0-.2 0-.1 0-.4.1-1.6 0-3.3.1-4.6-.1.5 0 0-.1 0-.1-.4.1-.5-.1-.6 0 0 .1 0 .1.4.1h-2.9c.3 0 .1 0-.1.1.1-.1-.6-.1-1.2-.1l-.1.1h-.2c-.2 0-.2.1-.7.1 0 0-.1 0-.2-.1-.5 0-1.3.1-1.9.1l-.5-.1c-.3 0-.7.1-.2.1-1-.1-1.7-.1-2-.1-1.7.2-4.3.2-6.3.2h.1c-.5 0-.3.1-.7 0 .2 0-.4-.1 0-.1-.8 0-1 .1-1.5.1-.1.1.4 0 .3 0H50c-.2 0 0-.1.1-.1h-.5c-.6-.1 1.3-.2.7-.3h-.4c-.4-.1 1.2-.1.1-.1-.5 0-.9.2-.5.2-1 0-.5.2-1.5.2-.3-.1.9 0 .6-.1-.5-.1-1 0-1.5 0 .5 0 .1.1-.2.1-.5 0 .4-.1-.4-.1-.1.1-.8.1-.2.1-.3.1-.8 0-1.2.1-.2-.1.8-.2-.1-.2.1.1-1 .1-.6.2-.3 0-.4-.1-.1-.1-.5 0-1.1.1-1.3 0l-.2.1c-.1 0-.4 0-.6-.1-.4 0-1.3.1-1.3 0-.1 0-1.1 0-.7.1.6.1.7-.1 1 .1-.4-.1-.9 0-1.2 0h-.1c-.2 0-.7 0-.8.1.2 0 .1-.1-.1-.1l-.2.1c-.8 0-.2-.1-1-.1l.6-.1c-.1 0-.4-.1-.8 0-.1.1-.4.1-.6.2-.5 0-.2-.1-.6 0l.6-.1c.1 0-.4-.1-1-.1-.4 0-1 .1-.4.2-.3 0-.7 0-.5-.1-.7 0 .1.1-.5.1-.2 0-1-.1-1.5-.2l.6-.1h-.4c.5-.1-.3-.1 0-.2h-.9c.8.1-.9.2-.7.3-1.1 0-.7-.3-1.9-.1.2 0-.4.1.3.1-.7 0-.5.1-1.3.1.6-.1-.7-.1.2-.2h.6c-.3-.1.1-.1-.7-.1-.4 0-1 0-.9.1 0 .1.7 0 .4.1-.9 0-1-.1-1.4 0 .6 0 .7.1.7.1h-.6l.1-.1c-1 0-.3.1-1.3.1l-.5-.1c.2-.1 1.4 0 1.3-.1-.6 0-.9.1-1.5 0h.5c-.2 0-.5-.2-1.4-.1-.5 0-.1 0-.1.1-1 0-1.3.1-2 .1.1-.1-1.2 0-.4-.1.3.1 1.8.1 2.2 0-.4-.1.8 0 1-.1-.8 0-.8-.1-.9-.2h-.6c-.1.1.2.1.2.1-.9 0-1.8 0-2.3.1-.3 0-.2-.1.2-.1h-3.3c.7.1-1.2 0-.7.1.6 0 1 .1.7.2-.4 0 0-.1-.1-.1-.4.1-.7-.1-1.1 0 1 0 .2-.1.4-.2-.7.1 0-.1-.7-.1-.7.1-1.6.1-2.4.1-1-.1-2.6 0-3.5 0-.5 0-.2-.2-.7-.2-.6 0 .4.1-.4.1h.1c-.3 0-1.6-.1-1.9.1l.3-.1h-.5s-.2-.1.1-.1c-.6-.1-1.2 0-1.8 0l.4.1c-1 .1-1.7 0-2.7 0v-.1h-.6c.1-.1-.4-.1-.7-.1l1.5-.2c.4 0-.5.1-.2.1.2.1 1.1 0 1.3 0h-.6c-.1-.1.4-.1.7-.2h-.5c.4 0 .7-.1 1.3-.1-.4 0 .2.1.1.1 0-.1.6-.1 1.4-.1.5.1 1.4-.1 2.3 0-.3.1-.8.1-1.3.2h1.1c.3-.1.4-.2 1.2-.2v.1c.6 0 .6-.1 1.5-.1h3.9v.1c.6-.1 2 0 2.8-.1 1.4.1 2.9-.1 3.6 0 2.4 0 4.5-.1 7-.1l-.4.1c.4-.1.3.1.7 0-.5-.1.6-.1.9-.1 1.1.1 2.5 0 3.5-.1v.1c1-.1 2.2 0 3.4 0 .1 0 .4.1.7.1.7-.1 1-.1 2-.2.7 0 1.9 0 2.6.1 2.7-.1 5.4 0 8.3-.1l.2.1c2.7-.2 6.1 0 8.4-.1l-.2.1c.7 0 1.7 0 1.5-.1.7 0 1.8-.1 2.3 0 .7 0 .9-.1 1.5-.1h3.5-.3c-.2 0-.2.1.2.1.5 0 1.9 0 1.4-.1 1.5.1 3.5-.1 5 0-.1 0 .2 0 .4-.1 1.3 0 2.7.1 3.8 0 .2 0-.3.1.2.1.3 0 0-.1.4-.1 2.1-.1 4.3.1 6.3.1 3.5-.1 7.1 0 10.4-.1 1.1-.1 2.6.1 3.5-.1.3 0 1 0 .8.1.9-.1 2.5.1 3.7 0h-.3c1.3.1 2.4 0 3.8 0-.1 0-.4 0-.4.1.5.1 1.2-.1 1.5 0 .3 0 .2-.1 0-.1 3 .1 6.1 0 9.2-.1 2.2.1.1.2 1.9.1.1 0 .1-.1.1 0 .7 0 1.1.2 1.5.1-.2-.1.3 0 .3-.1 1.4.1 1.6.1 2.7.1h-.1c1.3-.1 2.7-.1 3.8-.2 6.9 0 13.6-.1 20.3-.1h20c1.6.1 1.7.1 3.4.1h-.1c.1-.1 1.2 0 1.4-.1h7.4c-.4 0-.6.1-.1.1l.5-.1h.1c.3 0 .7-.1.4-.1 6.5-.1 12.8.1 19.2.1h5.3c4.8.1 9.2.2 14.1.1-.2.5-.8.8-2.9.8zM2 97.5c.2 0 .7.1.3.1-.1 0-.4-.1-.3-.1zm15 .5h.3-.5.2z"/><path d="M20.9 98c-.1 0-.9.1-1.4.1l1.4-.1zm3.6.2c.3 0 .2.1-.2.1-.1-.1.1-.1.2-.1zm.2-.1h.6s-.7.1-.6 0zm7.8.1h.8c-.2 0-1 .1-.8 0zm3.6 0h.3c.2 0 0 .1-.2.1l-.1-.1zM102 98h-.4zm28.8 0h.3-.3zm15.6-.2h-.1v-.1z"/></g><linearGradient id="e" x1="1250.466" x2="1273.495" y1="85.156" y2="85.156" gradientTransform="matrix(-1 0 0 1 1366.355 0)" gradientUnits="userSpaceOnUse"><stop offset="0" stop-color="#ffedc4"/><stop offset=".322" stop-color="#ffe6b6"/><stop offset=".928" stop-color="#ffd592"/><stop offset="1" stop-color="#ffd38d"/></linearGradient><path fill="url(#e)" d="M93.3 78.4c2.7 1.2 5.4 2.4 8.2 3.6 1.8.8 3.6 1.7 5.5 2.4 3.1 1.2 2.5-.7 5.3-1.5 2.6-.7-.2 2.2.3 3.9 1.5.1 3.6 1.3 3.3 2.7-2.1 1.4-1.5 2.4-3.7 2.5.1.1 0 0-1.2-2.2-1.8 0-3.6-1.6-5.3-2.2-2.1-.7-3.9-1.3-6.2-1.5-2.6-.3-3.3-1.6-5.2-3.3-2.4-2.1-1.3-1.5-1.1-3.9"/><path fill="#FFF" d="M93 84.6s-.6-.9-.1-1.2c.5-.3.6.2.8-.1.1-.3.3-.6.3-.6s-.7-.9-.4-1.2c.3-.3.9-.2 1-.1.1 0 .2-.7.3-.8.1-.1-.4-.4-.1-1 .4-.8.5-.1.7-.2.5-.2.7-1.5.7-1.5s-6.4-3.9-8.5-.1c-2.2 3.6 5.3 6.8 5.3 6.8z"/><linearGradient id="f" x1="72.706" x2="95.736" y1="132.15" y2="132.15" gradientTransform="rotate(4.513 733.584 528.683)" gradientUnits="userSpaceOnUse"><stop offset="0" stop-color="#ffedc4"/><stop offset=".322" stop-color="#ffe6b6"/><stop offset=".928" stop-color="#ffd592"/><stop offset="1" stop-color="#ffd38d"/></linearGradient><path fill="url(#f)" d="M129 76.4c-2.8 1-5.6 1.9-8.4 2.9-1.9.6-3.7 1.4-5.6 1.9-3.2.9-2.5-.9-5.2-1.9-2.6-.9 0 2.2-.6 3.8-1.5 0-3.7 1-3.5 2.4 2 1.6 1.3 2.5 3.5 2.8-.1.1 0 0 1.4-2.1 1.8.2 3.7-1.3 5.5-1.8 2.2-.5 4-.9 6.3-1.1 2.6-.1 3.4-1.4 5.4-2.9 2.5-1.9 1.4-1.4 1.4-3.8"/><path fill="#FFF" d="M129.7 83.3s.6-.9.1-1.2c-.5-.3-.6.2-.8-.1-.1-.3-.3-.6-.3-.6s.7-.9.4-1.2c-.3-.3-.9-.2-1-.1-.1 0-.2-.7-.3-.8-.1-.1.4-.4.1-1-.4-.8-.5-.1-.7-.2-.5-.2-.7-1.5-.7-1.5s6.4-3.9 8.5-.1c2.2 3.6-5.3 6.8-5.3 6.8z"/><linearGradient id="g" x1="1034.86" x2="1036.889" y1="1344.444" y2="1344.444" gradientTransform="matrix(2.5408 -1.0787 1.0783 2.5467 -3997.861 -2198.558)" gradientUnits="userSpaceOnUse"><stop offset="0" stop-color="#ffedc4"/><stop offset=".322" stop-color="#ffe6b6"/><stop offset=".928" stop-color="#ffd592"/><stop offset="1" stop-color="#ffd38d"/></linearGradient><path fill="url(#g)" d="M85.6 104.9s.2 2.6.3 3.4c.1.9.2 2.4.2 2.4l-3.9.4-.5-5.9 3.9-.3z"/><path fill="#C12227" d="M97.1 123.5s-8.1-.5-9.1-1.2c-.9-.8-2-11.5-2-11.5l-3.9.4s1 12.5 1.1 13.6c.1 1.1 4.7.7 6.2.5 1.5-.1 3.8-.3 5.5-.5 1.6-.3 2.2-1.3 2.2-1.3z"/><path fill="none" d="M86.7 117.4s-1 .2-1.9.3c-.9.1-2 0-2 0m3.6-1.6s-1 .2-1.9.3c-.9.1-2 0-2 0"/><linearGradient id="h" x1="901.115" x2="903.143" y1="1474.319" y2="1474.319" gradientTransform="matrix(2.6457 .7869 -.791 2.6501 -1145.037 -4511.735)" gradientUnits="userSpaceOnUse"><stop offset="0" stop-color="#ffedc4"/><stop offset=".322" stop-color="#ffe6b6"/><stop offset=".928" stop-color="#ffd592"/><stop offset="1" stop-color="#ffd38d"/></linearGradient><path fill="url(#h)" d="M78.8 104l-2 2.8c-.5.7-1.4 2-1.4 2l-3.3-2.2 3.4-4.9 3.3 2.3z"/><path fill="#C12227" d="M75.9 125.7s-6-5.5-6.2-6.7c-.2-1.2 5.8-10.2 5.8-10.2l-3.3-2.2s-7.2 10.3-7.8 11.2c-.6.9 3.2 3.5 4.5 4.4 1.3.9 3.1 2.1 4.5 3.1 1.4.8 2.5.4 2.5.4z"/><path fill="none" d="M71.7 114.4s-.9-.5-1.7-1c-.7-.5-1.5-1.2-1.6-1.3m3.9 1.1s-.9-.5-1.6-1c-.8-.5-1.5-1.2-1.6-1.3"/><linearGradient id="i" x1="55.386" x2="58.729" y1="218.411" y2="218.411" gradientTransform="matrix(-1.1159 .0114 .0114 1.1159 206.576 -139.303)" gradientUnits="userSpaceOnUse"><stop offset="0" stop-color="#fff2ca"/><stop offset=".436" stop-color="#ffeabc"/><stop offset="1" stop-color="#ffdda4"/></linearGradient><path fill="url(#i)" d="M147.2 102.3v5.6h-3.7l-.1-5.7 3.8.1z"/><linearGradient id="j" x1="55.421" x2="67.035" y1="227.259" y2="227.259" gradientTransform="matrix(-1.1159 .0114 .0114 1.1159 206.576 -139.303)" gradientUnits="userSpaceOnUse"><stop offset="0" stop-color="#f3ea38"/><stop offset="1" stop-color="#ffca07"/></linearGradient><path fill="url(#j)" d="M134.4 121.2s7.5-1.2 8.3-2.1c.8-.8.9-11.3.9-11.3h3.7s.1 12.1.1 13.1-4.3 1.1-5.7 1.1c-1.4 0-3.5 0-5.1.1-1.5 0-2.2-.9-2.2-.9z"/><g fill="#369946"><path d="M144.9 117.3c0 .3.2.5.4.5s.4-.2.4-.5-.2-.5-.4-.5-.4.3-.4.5zm-.4-.8c0 .3.2.5.4.5s.4-.2.4-.5-.2-.5-.4-.5c-.3 0-.4.2-.4.5z"/><path d="M145.2 116.1c0 .3.2.5.4.5s.4-.2.4-.5-.2-.5-.4-.5-.4.2-.4.5zm.4.8c0 .3.2.5.4.5s.4-.2.4-.5-.2-.5-.4-.5c-.2.1-.4.3-.4.5z"/></g><g fill="#369946"><path d="M143.7 113.6c0 .3.2.5.4.5s.4-.2.4-.5-.2-.5-.4-.5-.4.3-.4.5zm-.4-.8c0 .3.2.5.4.5s.4-.2.4-.5-.2-.5-.4-.5c-.3 0-.4.2-.4.5z"/><path d="M144 112.4c0 .3.2.5.4.5s.4-.2.4-.5-.2-.5-.4-.5-.4.2-.4.5z"/><ellipse cx="144.8" cy="113.3" rx=".4" ry=".5"/></g><g fill="#369946"><path d="M145.1 110.3c0 .3.2.5.4.5s.4-.2.4-.5-.2-.5-.4-.5-.4.2-.4.5zm-.4-.9c0 .3.2.5.4.5s.4-.2.4-.5-.2-.5-.4-.5-.4.3-.4.5z"/><path d="M145.4 109c0 .3.2.5.4.5s.4-.2.4-.5-.2-.5-.4-.5c-.2.1-.4.3-.4.5zm.4.9c0 .3.2.5.4.5s.4-.2.4-.5-.2-.5-.4-.5-.4.2-.4.5z"/></g><linearGradient id="k" x1="200.642" x2="203.986" y1="464.802" y2="464.802" gradientTransform="scale(-1.116 1.116) rotate(-23.264 -857.508 1069.083)" gradientUnits="userSpaceOnUse"><stop offset="0" stop-color="#fff2ca"/><stop offset=".436" stop-color="#ffeabc"/><stop offset="1" stop-color="#ffdda4"/></linearGradient><path fill="url(#k)" d="M139.5 104.6s-1 2.3-1.3 3c-.3.8-.9 2.1-.9 2.1l-3.4-1.5 2.3-5.2 3.3 1.6z"/><linearGradient id="l" x1="200.678" x2="212.291" y1="473.65" y2="473.65" gradientTransform="scale(-1.116 1.116) rotate(-23.264 -857.508 1069.083)" gradientUnits="userSpaceOnUse"><stop offset="0" stop-color="#f3ea38"/><stop offset="1" stop-color="#ffca07"/></linearGradient><path fill="url(#l)" d="M120.2 116.7s7.3 1.9 8.4 1.5c1.1-.4 5.4-9.9 5.4-9.9l3.4 1.4s-4.8 11.1-5.2 12.1c-.4 1-4.3-.7-5.7-1.3-1.3-.6-3.2-1.4-4.7-2-1.4-.7-1.6-1.8-1.6-1.8z"/><g fill="#369946"><path d="M131.3 117.4c-.1.2 0 .5.2.6.2.1.5 0 .6-.3.1-.3 0-.5-.2-.6-.2-.1-.5.1-.6.3z"/><path d="M131.3 116.5c-.1.3 0 .5.2.6.2.1.5 0 .6-.3.1-.2 0-.5-.2-.6-.3-.1-.5 0-.6.3z"/><path d="M132.1 116.4c-.1.2 0 .5.2.6.2.1.5 0 .6-.3.1-.2 0-.5-.2-.6-.2-.1-.5.1-.6.3z"/><path d="M132.1 117.3c-.1.2 0 .5.2.6.2.1.5 0 .6-.3.1-.2 0-.5-.2-.6-.2 0-.5.1-.6.3z"/></g><g fill="#369946"><path d="M131.7 113.5c-.1.3 0 .5.2.6.2.1.5 0 .6-.3.1-.2 0-.5-.2-.6-.2 0-.5.1-.6.3z"/><path d="M131.7 112.6c-.1.3 0 .5.2.6.2.1.5 0 .6-.3.1-.2 0-.5-.2-.6-.3-.1-.5.1-.6.3z"/><path d="M132.5 112.6c-.1.2 0 .5.2.6.2.1.5 0 .6-.3.1-.3 0-.5-.2-.6-.2-.1-.5 0-.6.3z"/><ellipse cx="132.9" cy="113.6" rx=".4" ry=".5" transform="rotate(-156.716 132.878 113.645)"/></g><g fill="#369946"><ellipse cx="134.7" cy="111.2" rx=".4" ry=".5" transform="rotate(-156.747 134.728 111.196)"/><path d="M134.3 110.1c-.1.3 0 .5.2.6.2.1.5 0 .6-.3.1-.2 0-.5-.2-.6-.2-.1-.5.1-.6.3zm.9-.1c-.1.2 0 .5.2.6.2.1.5 0 .6-.3.1-.2 0-.5-.2-.6-.3 0-.5.1-.6.3zm0 1c-.1.3 0 .5.2.6.2.1.5 0 .6-.3.1-.2 0-.5-.2-.6-.3-.1-.5 0-.6.3z"/></g><linearGradient id="m" x1="88.048" x2="123.786" y1="137.678" y2="137.678" gradientTransform="rotate(4.513 733.584 528.683)" gradientUnits="userSpaceOnUse"><stop offset="0" stop-color="#8c2b8a"/><stop offset=".173" stop-color="#933992"/><stop offset=".501" stop-color="#a55da6"/><stop offset=".944" stop-color="#c298c6"/><stop offset="1" stop-color="#c6a0ca"/></linearGradient><path fill="url(#m)" d="M150.9 76.5s5.3 26.9 4.4 27.7c-.9.8-18 .2-22.2-.7-11.2-2.2-12.7-4.1-13.2-4.2-.5 0 9.8-24.4 10.4-24.9.5-.5 6.5 1.4 9.9 1.7 3.3.3 10 .4 10.7.4z"/><linearGradient id="n" x1="1329.835" x2="1330.966" y1="1147.541" y2="1147.541" gradientTransform="matrix(2.7452 -.2844 .285 2.7513 -3885.475 -2693.243)" gradientUnits="userSpaceOnUse"><stop offset="0" stop-color="#a2cd4e"/><stop offset=".303" stop-color="#d8db1b"/><stop offset=".489" stop-color="#f4e300"/><stop offset="1" stop-color="#a2cd4e"/></linearGradient><path fill="url(#n)" d="M92.2 85.8c.1.9.9 1.5 1.7 1.4.9-.1 1.5-.9 1.4-1.8-.1-.9-.9-1.5-1.7-1.5-.8.2-1.5 1-1.4 1.9z"/><linearGradient id="o" x1="-744.865" x2="-744.044" y1="1142.326" y2="1142.326" gradientTransform="matrix(3.2504 -.3367 .285 2.7513 2184.746 -3321.803)" gradientUnits="userSpaceOnUse"><stop offset="0" stop-color="#ec1475"/><stop offset="1" stop-color="#fff5cb"/></linearGradient><path fill="url(#o)" d="M91.9 71.6c.1.5-.5 1-1.2 1.1-.7.1-1.4-.3-1.4-.8-.1-.5.5-1 1.2-1.1.7-.1 1.3.3 1.4.8z" opacity=".23"/><path fill="none" d="M91.2 71l-1.6-.8"/><path fill="#CAA385" d="M91.2 71.7c0 .3-.2.5-.5.6-.3 0-.6-.2-.6-.5s.2-.6.5-.6.6.3.6.5z"/><path fill="none" d="M77.8 66.5s.9-.6 1.6-.6c.7 0 1.6.4 1.6.4"/><linearGradient id="p" x1="6346.614" x2="6349.169" y1="1140.87" y2="1140.87" gradientTransform="matrix(4.1646 -.4315 .285 2.7513 -26667.473 -333.463)" gradientUnits="userSpaceOnUse"><stop offset="0" stop-color="#ee4851"/><stop offset="1" stop-color="#f89c1e"/></linearGradient><path fill="url(#p)" d="M90 78.1s3.1-.2 4.1-1.3c.9-1.1 1-2.4.2-3-.7-.6-4.2-4.4-4.3-5.5-.1-1.1 3.8-10.1 3.5-10.8-.3-.7-1-1.2-2.6-1.1-1.6.1.5-3 1.6-3.1 1.2-.1 3.8.4 4.3.9.5.4 1.5 4.1 1.6 4.7.1.6.5 3-.3 3.8-.8.8-2.4 4-2.1 4.9.3.9 3.6 3.8 4 5 .4 1.2.4 5-1.1 5.8-1.5.8-2.2 1.2-4.4 1-2.1-.2-2.9-.4-3.8-.6-.7-.4-.7-.7-.7-.7z"/><path fill="#F7F6F5" d="M95.3 77.6s3.2-2.4 2-5.1c-1.1-2.7-3.8-4-3.9-4.8 0-.7-1.5-.7-1.5-.7s3.9 4.6 4.2 5.7c.3 1.1.3 2.6-.3 3-.6.4-1.5 1.9-1.5 1.9h1z" opacity=".14"/><linearGradient id="q" x1="7176.878" x2="7188.563" y1="1059.789" y2="1059.789" gradientTransform="matrix(3.6323 -.376 .2847 2.7513 -26313.49 -151.44)" gradientUnits="userSpaceOnUse"><stop offset="0" stop-color="#ffedc4"/><stop offset=".322" stop-color="#ffe6b6"/><stop offset=".928" stop-color="#ffd592"/><stop offset="1" stop-color="#ffd38d"/></linearGradient><path fill="url(#q)" d="M94.3 47.1s3.6 7.2 3.8 9.5c.2 2.2-.1 6.4.8 9.3.3.8 1.3 2.6 1.2 3.5-.1 1.1-1.2 3.8-4.8 5.3-3.5 1.5-11 3.9-13.1 4.1-3.2.3-16.5-1.6-18.6-2.6-2.2-1-3.4-.8-2.9-.9 2.8-.6-1.4-2.3-1.2-3.7.1-1.4-2.2-2.6-2.2-2.6 1.4-.1 9.2-9.1 14.3-11.7 5-2.6 9.3-9.4 13.4-10 3.8-.4 9.3-.2 9.3-.2z"/><linearGradient id="r" x1="7285.794" x2="7286.946" y1="1689.783" y2="1689.783" gradientTransform="matrix(3.5905 -.5753 .5783 2.7125 -27081.248 -319.439)" gradientUnits="userSpaceOnUse"><stop offset="0" stop-color="#ffedc4"/><stop offset=".322" stop-color="#ffe6b6"/><stop offset=".928" stop-color="#ffd592"/><stop offset="1" stop-color="#ffd38d"/></linearGradient><path fill="url(#r)" d="M58.6 70.1s-1.5-.9-2.1-.2c-.6.7-1 2.1-.9 2.8.1.7 2.4 2.2 2.9 2.2.5-.1 1.7-.3 1.7-.3l-1.6-4.5z"/><linearGradient id="s" x1="-4988.651" x2="-4986.547" y1="1107.791" y2="1107.791" gradientTransform="matrix(-5.0619 -1.2456 -1.8791 3.9204 -23081.543 -10516.126)" gradientUnits="userSpaceOnUse"><stop offset="0" stop-color="#ee4851"/><stop offset="1" stop-color="#f89c1e"/></linearGradient><path fill="url(#s)" d="M88.2 42.1c-.6.3-7.9 1.5-9.2 0-1.2-1.4-1.1-5.4.7-6.1 6.4-2.5 7.1 2.7 7.6 3.9.4.8.9 2.2.9 2.2z"/><path fill="#F7F6F5" d="M84.3 40.7c-.2.1-3.5.4-4-.1-.4-.5-.1-2 .5-2.3 2.3-.9 2.7.8 2.9 1.2l.6 1.2z" opacity=".14"/><linearGradient id="t" x1="-4989.244" x2="-4987.036" y1="1109.173" y2="1109.173" gradientTransform="matrix(-5.0619 -1.2456 -1.8791 3.9204 -23081.543 -10516.126)" gradientUnits="userSpaceOnUse"><stop offset="0" stop-color="#87c440"/><stop offset="1" stop-color="#f89c1e"/></linearGradient><path fill="url(#t)" d="M79 42.1l.9 7s2.8-1.2 6-1.7 3.4-.5 3.4-.5l-1.1-4.8H79z"/><linearGradient id="u" x1="8152.102" x2="8155.788" y1="1062.446" y2="1062.446" gradientTransform="matrix(3.1934 -.3305 .2847 2.7513 -26264.37 -156.524)" gradientUnits="userSpaceOnUse"><stop offset="0" stop-color="#ec1475"/><stop offset="1" stop-color="#fff5cb"/></linearGradient><path fill="url(#u)" d="M71 72.3c.3 2.6 3.1 4.5 6.4 4.2 3.2-.3 5.7-2.8 5.4-5.4-.3-2.6-3.1-4.5-6.4-4.2-3.2.3-5.6 2.8-5.4 5.4z" opacity=".13"/><linearGradient id="v" x1="6289.065" x2="6291.912" y1="5428.459" y2="5428.459" gradientTransform="matrix(2.4823 -1.8186 2.0289 2.091 -26530.633 157.35)" gradientUnits="userSpaceOnUse"><stop offset="0" stop-color="#ec1475"/><stop offset="1" stop-color="#fff5cb"/></linearGradient><path fill="url(#v)" d="M101.5 65.8c1.5 1.6 1.1 4-.8 5.5-1.9 1.4-4.7 1.3-6.2-.2-1.5-1.6-1.2-4 .8-5.5s4.7-1.4 6.2.2z" opacity=".13"/><path fill="#F7F6F5" d="M98 49.1s-10.5-4-14.6-3.7c-4.2.4-11.4 4.6-11.6 4.8-.2.1.6.1.9 0 .3-.1 7.7-3.6 8.7-4 1-.4 1.8-.5 2-.6.3 0 1.1.3 1.8.7.7.4 1.8 1 2.3 1.4.5.3 1.4.9 1.8 1.2.4.2.9.4 2.4.4 1.4-.2 6.3-.2 6.3-.2zM61 69.4s.1.2.3.4c.7 1.1 2.6 4.1 2.9 5.4.4 1.5.4 4.2-.4 4.4-.8.2-.6-1.8-.7-2.6-.1-.8-1.2-3.8-1.3-4.6" opacity=".14"/><path fill="none" stroke="#BD8E2D" stroke-width=".2" d="M88.6 67.4s0-2.1-1.8-2.1-2.7 1.3-2.7 1.3"/><linearGradient id="w" x1="-877.99" x2="-864.263" y1="1139.248" y2="1139.248" gradientTransform="matrix(-3.2229 .3339 .285 2.7513 -3055.316 -2779.168)" gradientUnits="userSpaceOnUse"><stop offset="0" stop-color="#ee4851"/><stop offset="1" stop-color="#f89c1e"/></linearGradient><path fill="url(#w)" d="M89.9 42.8c-4.1-1.8-10.7-1.4-17.4.1-6.7 1.5-15.7 7-17.6 9.5-2 2.5-.8 10.8.6 14.1 1.4 3.3 4.7 8.1 4.3 9.5-.4 1.3-.3 9.8 1.2 11.6 1.5 1.8 3.9-.2 6.8-.6 2.8-.5-1.7-1.6-2.1-2.2-.4-.6-2.9-3.3-2.8-4.4.2-1.1 4.3-3.5 4.1-6.4-.2-2.9-3-6-3-6s1.1-.8 3.9-3c2.9-2.2 8.4-9.2 8.4-9.2l6.3-1.3 1.5-3.7 2.8 3.1s2.3-.9 5-.5 6.5 6.2 6.5 6.2-.4-4.5-1.7-8.8c-.9-2.8-3.3-5.4-5.1-6.9-4.6-3.7-7.7-1.7-14-1.7-6.1-.2-20.4 5.7-22.6 10.1-2.2 4.4 1.6 18.2 2.7 19.8 1.1 1.6 2.7 2.5 2.6 3.3-.1.9-1.3 9.7-.3 11.6 1 1.9 2.1.8 3.9.7 1.8-.1 2.2-1.6 3.1-2.6.9-1-2.3-.8-2.3-.8s-1.5-1.5-1.9-3c-.4-1.5 4.2-6 4.2-7.5.1-1.6-4-5.1-3-6 1-.9 5.9-3.9 10.1-8.9 4.1-5 9.7-4.7 9.7-4.7s-.7-3.5.4-3.6c.9-.1 2.8 3.1 2.8 3.1s4.1.3 6.2 1.8c2.7 2 5.6 4.5 5.6 4.5"/><linearGradient id="x" x1="-4893.546" x2="-4891.445" y1="1063.041" y2="1063.041" gradientTransform="matrix(-5.1881 -.8529 -1.4651 4.0352 -23765.768 -8416.11)" gradientUnits="userSpaceOnUse"><stop offset="0" stop-color="#ee4851"/><stop offset="1" stop-color="#f89c1e"/></linearGradient><path fill="url(#x)" d="M64.5 48.6c-.6.3-7.7 2.1-9.1.8-1.4-1.3-1.7-5.3.1-6.1 6.1-3 7.4 2.1 8 3.2.3.7 1 2.1 1 2.1z"/><path fill="#F7F6F5" d="M60.5 47.5c-.2.1-3.5.6-4 .2-.5-.5-.3-2 .3-2.3 2.2-1.1 2.8.6 3 1 .2.3.7 1.1.7 1.1z" opacity=".14"/><path fill="#268241" d="M55.3 49.3l1.6 6.9s2.6-1.5 5.8-2.2c3.1-.7 3.3-.8 3.3-.8l-1.5-4.7-9.2.8z"/><path fill="none" stroke="#6C491C" stroke-width=".2" d="M81.9 74.2c1.8-2.8 4-3.3 5.8-.7 1.1-.6 3.7-1.6 4.6-2.5"/><path fill="#C12227" d="M91.6 76.1s10.1 25.5 9.4 26.4c-.8.9-17.7 3.4-21.9 3.4-11.4-.2-13.2-1.8-13.7-1.7-.5.1 5.3-25.8 5.7-26.3.4-.5 6.6.2 10-.1 3.2-.4 9.8-1.6 10.5-1.7z"/><linearGradient id="y" x1="1329.883" x2="1331.016" y1="1150.075" y2="1150.075" gradientTransform="matrix(2.7452 -.2844 .285 2.7513 -3885.475 -2693.243)" gradientUnits="userSpaceOnUse"><stop offset="0" stop-color="#a2cd4e"/><stop offset=".303" stop-color="#d8db1b"/><stop offset=".489" stop-color="#f4e300"/><stop offset="1" stop-color="#a2cd4e"/></linearGradient><path fill="url(#y)" d="M93.1 92.7c.1.9.9 1.5 1.7 1.4.9-.1 1.5-.9 1.4-1.8-.1-.9-.9-1.5-1.7-1.4-.9.2-1.5 1-1.4 1.8z"/><linearGradient id="z" x1="1324.353" x2="1327.453" y1="1151.447" y2="1151.447" gradientTransform="matrix(2.7452 -.2844 .285 2.7513 -3885.475 -2693.243)" gradientUnits="userSpaceOnUse"><stop offset="0" stop-color="#a2cd4e"/><stop offset=".303" stop-color="#d8db1b"/><stop offset=".489" stop-color="#f4e300"/><stop offset="1" stop-color="#a2cd4e"/></linearGradient><path fill="url(#z)" d="M86.5 94s-3.8 1-6 .4-2.6-.2-2.2 3.2c.3 3.3 3.2 3.9 4.7 3.7 1.5-.2 3.3-1 3.3-1l.2-6.3z"/><linearGradient id="A" x1="-4588.744" x2="-4586.862" y1="1153.049" y2="1153.049" gradientTransform="matrix(3.2495 -.3367 .285 2.7513 14676.474 -4616.69)" gradientUnits="userSpaceOnUse"><stop offset="0" stop-color="#a2cd4e"/><stop offset=".303" stop-color="#d8db1b"/><stop offset=".489" stop-color="#f4e300"/><stop offset="1" stop-color="#a2cd4e"/></linearGradient><path fill="url(#A)" d="M100.1 100.1c.1 1.4-1.1 2.7-2.8 2.9-1.7.2-3.2-.8-3.3-2.3-.1-1.4 1.1-2.7 2.8-2.9 1.7-.1 3.1.9 3.3 2.3z"/><path fill="#FFF" d="M84.4 77.9l1.9 1.4 2-2.7zm3.9-1.3l3.2 1.3.2-2.1z"/><path fill="none" stroke="#926928" stroke-width=".2" d="M82.1 65.2l-4-1.2m4 1.2l-5.5.7m13.9-1.6l3.7-2m-3.7 2l5.6-.5"/><linearGradient id="B" x1="-106.034" x2="-94.659" y1="481.838" y2="481.838" gradientTransform="scale(-1.116 1.116) rotate(-17.013 -1514.83 426.198)" gradientUnits="userSpaceOnUse"><stop offset="0" stop-color="#ef5324"/><stop offset=".713" stop-color="#45180a"/><stop offset="1"/></linearGradient><path fill="url(#B)" d="M161.3 67.1l-4.3 3.3s9.3 9.3 10.2 9.6c1 .3-5.1-10.2-4.9-11.4.3-1.1-1-1.5-1-1.5z"/><linearGradient id="C" x1="-104.579" x2="-93.198" y1="487.866" y2="487.866" gradientTransform="scale(-1.116 1.116) rotate(-17.013 -1514.83 426.198)" gradientUnits="userSpaceOnUse"><stop offset="0" stop-color="#ef5324"/><stop offset=".713" stop-color="#45180a"/><stop offset="1"/></linearGradient><path fill="url(#C)" d="M157.8 73.1l-4.3 3.3s9.3 9.3 10.3 9.6c1 .3-5.1-10.2-4.9-11.4.2-1.1-1.1-1.5-1.1-1.5z"/><path fill="#F7F6F5" d="M122.2 54.8s.1.2.2.6c.4 1.4 1.5 5.2 1.5 6.7 0 1.8-.4 4.9-1.1 5-.8.1-.2-2.2-.1-3.1.1-.9-.4-4.6-.3-5.5" opacity=".14"/><linearGradient id="D" x1="1793.078" x2="1835.524" y1="149.033" y2="149.033" gradientTransform="matrix(-.9306 -.0733 -.0876 1.1126 1844.85 29.35)" gradientUnits="userSpaceOnUse"><stop offset="0" stop-color="#fff2ca"/><stop offset=".436" stop-color="#ffeabc"/><stop offset="1" stop-color="#ffdda4"/></linearGradient><path fill="url(#D)" d="M127.9 46.9s-3.1 7.6-3.3 9.9c-.2 2.3.2 6.6-.6 9.6-.2.8-1.1 2.7-1 3.6.1 1.1 1.2 3.1 4.5 4.6 3.2 1.4 7.9 1.7 9.8 1.8 2.9.2 16.8.5 18.7-.6 1.9-1.1 3-.9 2.6-1-2.5-.5 1.2-2.4 1.1-3.9-.1-1.4 3.1-1.2 3.1-1.2-1.3-.1-9.6-10.6-14.1-13.1s-8.5-9.4-12.1-9.8c-3.9-.3-8.7.1-8.7.1z"/><linearGradient id="E" x1="2036.672" x2="2049.623" y1="157.398" y2="157.398" gradientTransform="matrix(-.8183 -.0644 -.0876 1.1126 1830.965 28.543)" gradientUnits="userSpaceOnUse"><stop offset="0" stop-color="#ec1475"/><stop offset="1" stop-color="#fff5cb"/></linearGradient><path fill="url(#E)" d="M150.6 72.5c-.2 2.7-2.8 4.8-5.7 4.6-2.9-.2-5.1-2.6-4.9-5.4.2-2.7 2.8-4.8 5.7-4.5 2.9.1 5.1 2.6 4.9 5.3z" opacity=".13"/><linearGradient id="F" x1="1750.57" x2="1759.767" y1="1255.042" y2="1255.042" gradientTransform="matrix(-.6279 -.678 -.5321 .8844 1896.444 148.82)" gradientUnits="userSpaceOnUse"><stop offset="0" stop-color="#ec1475"/><stop offset="1" stop-color="#fff5cb"/></linearGradient><path fill="url(#F)" d="M123.4 66.2c-1.3 1.7-1 4.2.8 5.6 1.7 1.4 4.3 1.2 5.6-.5 1.3-1.7 1-4.2-.8-5.7-1.8-1.3-4.3-1.1-5.6.6z" opacity=".13"/><path fill="none" stroke="#826528" stroke-width=".25" d="M137.3 66.5s-.5-1.3-2.1-1.2c-1.6.1-2 1-2 1"/><linearGradient id="G" x1="144.948" x2="149.417" y1="899.462" y2="899.462" gradientTransform="scale(-1.116 1.116) rotate(48.527 923.285 167.986)" gradientUnits="userSpaceOnUse"><stop offset="0" stop-color="#ef5324"/><stop offset=".713" stop-color="#45180a"/><stop offset="1"/></linearGradient><path fill="url(#G)" d="M155.5 76.3s1.2 1.1 1.6 3c.4 2-.1 5-.1 5s-1.3-2.6-3.1-4.4c-1.8-1.9-3.8-3.1-3.8-3.1l5.4-.5z"/><linearGradient id="H" x1="-95.682" x2="-92.85" y1="555.405" y2="555.405" gradientTransform="matrix(-1.104 -.1632 -.1632 1.104 142.482 -549.9)" gradientUnits="userSpaceOnUse"><stop offset="0" stop-color="#ef5324"/><stop offset=".713" stop-color="#45180a"/><stop offset="1"/></linearGradient><path fill="url(#H)" d="M157.5 75.5s.6 3.9-.9 5.4c-1.5 1.4-2.8 1.4-2.8 1.4s.6-1.6 1.3-4.1c.6-2.5 1.4-3.4 1.4-3.4l1 .7z"/><linearGradient id="I" x1="-104.453" x2="-56.266" y1="421.022" y2="421.022" gradientTransform="scale(-1.116 1.116) rotate(-20.998 -1096.311 377.049)" gradientUnits="userSpaceOnUse"><stop offset="0" stop-color="#ef5324"/><stop offset=".713" stop-color="#45180a"/><stop offset="1"/></linearGradient><path fill="url(#I)" d="M166.6 85.4s-4.8-11.6-5.1-14.2c-.3-2.6-.1-2 2.3 1.2s4.3 4.9 4.8 4.5c.5-.4-4.3-13-4.4-14.1-.1-1.1 0-18.7-7.3-21.6-7.3-2.9-11.1-.3-12.6.3-1.6.7-5.5-3.9-12.1.9s-10.6 9.2-12 13.8c-1.4 4.5-1.7 9.9-1.4 12.4.3 2.5 4.6 5.3 4.6 5.3s-.3-8.4 2.1-14.7c1.8-4.6 10-11.1 10.9-11 .9.1 2 .4 1.2 2.1-.8 1.7-1.2 4.1-1.2 4.1s3-4.9 3.4-2.7c.4 2.2.8 5.5 2.9 5.8 2.1.2 1.9-1.5 2.7-3.5.8-2.1 1.1 5.7 3.2 8.6 2.1 3 4.1 5.5 4.4 5.1.3-.4.2-2.3 0-2.9-.1-.6 2.6 11.1 7.4 15.8 4.8 4.7 6.2 4.8 6.2 4.8z"/><path fill="none" stroke="#826528" stroke-width=".25" d="M132.2 71.7c.7-.4 1.5-.8 2.1-1.2 1.1 6.2 1.9-1.3 5.2 2.6m.5-9.1l4.9-1.4M140 64l5.6.3m-11.9-.7l-4.1-3m4.1 3l-5.4-1.8"/><path fill="none" stroke="#AEAEAF" stroke-width=".25" d="M100.7 90.3l3.4 1.9 3.4-3.5v-4.4l-3.4-.6-2.9 3z"/><ellipse cx="112.9" cy="91.2" fill="#FFF" stroke="#AEAEAF" stroke-width=".25" rx="14.2" ry="13.7" transform="matrix(1 .00252 -.00252 1 .23 -.284)"/><path fill="#213B4A" d="M107.5 88.7v-4.1l3.7-2.4 4.1 1.2 1 4-4 2.8z"/><path fill="#0E1C24" d="M124.2 82.9l-1.7.8.8 3.2 2.6 1.7.8-.8s-.8-2.4-1.2-3c-.4-.5-1.3-1.9-1.3-1.9z"/><path fill="#1D2F42" d="M121.6 94.5l3 1.1-.7 2.8-2.8 2.7h-2.9v-3.7z"/><path fill="#234A58" d="M98.7 91.5l.7.7 1.4-2 .4-3.5-1-.5-.9 1.3s-.6 1.1-.6 1.7c.1.6 0 2.3 0 2.3z"/><path fill="#183138" d="M103.6 81h1.3l2.7-1.8v-.6s-1.9.9-2.3 1.2c-.5.2-1.7 1.2-1.7 1.2zm10-3.4l.4.6 3.1 1h2.4s-2.3-1-3-1.1c-.6-.2-2.9-.5-2.9-.5z"/><path fill="none" stroke="#AEAEAF" stroke-width=".25" d="M107.9 79.1h3.2l2.9-1-.4-.6s-2.7.1-3.3.2c-.6.1-2.4.5-2.4.5v.9zm-3.8 2.2v2.4l-2.9 2.9-1.2-.5s1.1-2.4 1.2-2.6c.1-.2 2.4-2.6 2.4-2.6l.5.4z"/><path fill="none" stroke="#AEAEAF" stroke-width=".25" d="M111.1 79.2l.1 3-3.7 2.1-3.4-.6v-2.4l3.8-2.2zm6.5 0l1.2 2.6-3.5 1.6-4.1-1.2-.1-3 2.9-1z"/><path fill="none" stroke="#AEAEAF" stroke-width=".25" d="M122.5 83.8l-3.8-2-1-2.3h2.3s2.2 1.5 2.5 1.8l1.7 1.7-1.7.8z"/><path fill="none" stroke="#AEAEAF" stroke-width=".25" d="M116.3 87.4l4.6 2.3 2.7-2.2-1.1-3.7-3.7-2-3.5 1.6zm-11.6 9.1l-.6-4.3-2.9-2-1.8 2m26.5-3.5l.4 4.7-1.4 2.1-3.5-1.3-.5-4.5 2.7-2.2z"/><path fill="none" stroke="#AEAEAF" stroke-width=".25" d="M112.3 90.2l1 6 4.4 1.6 4-3.8-.8-4.3-4.6-2.3z"/><path fill="none" stroke="#AEAEAF" stroke-width=".25" d="M109.1 98.9l4.2-2.7-1-6-4.7-1.5-3.4 3.5.6 4.1c-.1.1 4.4 3 4.3 2.6z"/><path fill="none" stroke="#AEAEAF" stroke-width=".25" d="M118.2 101.4l-3.3 1.6-5-1.5-.6-2.8 4-2.5 4.9 1.6zm-3.3 3.2l-.3-1.7m6.3-.4l.2-1.4m2.8-2.7l1.2.5m-17.6 3.7l1.2 1.7m-5.8-5.9l-.8.8"/><path fill="#213B4A" d="M104.7 96.5l4.3 2 .9 3-2.4 1.1-3.1-1.9-1.5-2.6z"/><path d="M107.8 80.9c-12.2 2.7-4.1 23.6 9 20.8 6.8-1.5 8.2-6.9 6.3-12.3-2.2-6.2-3.9-9.6-11.6-9.4 5.5-7.2 15.3 3.1 15.9 8.9.9 8-5.4 13.6-14 14.5-8.6.9-14.7-4.5-14.1-12.7.7-8.7 6.9-12.7 15.7-13.8" opacity=".1"/><linearGradient id="J" x1="80.371" x2="103.401" y1="138.906" y2="138.906" gradientTransform="rotate(4.513 733.584 528.683)" gradientUnits="userSpaceOnUse"><stop offset="0" stop-color="#ffedc4"/><stop offset=".322" stop-color="#ffe6b6"/><stop offset=".928" stop-color="#ffd592"/><stop offset="1" stop-color="#ffd38d"/></linearGradient><path fill="url(#J)" d="M136.1 83.8c-2.8 1-5.6 1.9-8.4 2.9-1.9.6-3.7 1.4-5.6 1.9-3.2.9-2.5-.9-5.2-1.9-2.6-.9 0 2.2-.6 3.8-1.5 0-3.7 1-3.5 2.4 2 1.6 1.3 2.5 3.5 2.8-.1.1 0 0 1.4-2.1 1.8.2 3.7-1.3 5.5-1.8 2.2-.5 4-.9 6.3-1.1 2.6-.1 3.4-1.4 5.4-2.9 2.5-1.9 1.4-1.4 1.4-3.8"/><path fill="#FFF" d="M135.9 90s.7-.8.2-1.2c-.5-.4-.6.1-.8-.2-.1-.3-.3-.6-.3-.6s.7-.8.5-1.2c-.3-.4-.9-.2-1-.2-.1 0-.2-.7-.3-.8-.1-.1.4-.4.2-1-.3-.8-.5-.2-.7-.3-.5-.2-.6-1.6-.6-1.6s6.7-3.4 8.5.5c2 4-5.7 6.6-5.7 6.6z"/><linearGradient id="K" x1="1260.862" x2="1283.891" y1="88.423" y2="88.423" gradientTransform="matrix(-1 0 0 1 1366.355 0)" gradientUnits="userSpaceOnUse"><stop offset="0" stop-color="#ffedc4"/><stop offset=".322" stop-color="#ffe6b6"/><stop offset=".928" stop-color="#ffd592"/><stop offset="1" stop-color="#ffd38d"/></linearGradient><path fill="url(#K)" d="M82.9 81.6c2.7 1.2 5.4 2.4 8.2 3.6 1.8.8 3.6 1.7 5.5 2.4 3.1 1.2 2.5-.7 5.3-1.5 2.6-.7-.2 2.2.3 3.9 1.5.1 3.6 1.3 3.3 2.7-2.1 1.4-1.5 2.4-3.7 2.5.1.1 0 0-1.2-2.2-1.8 0-3.6-1.6-5.3-2.2-2.1-.7-3.9-1.3-6.2-1.5-2.6-.3-3.3-1.6-5.2-3.3-2.4-2.1-1.3-1.5-1.1-3.9"/><path fill="#FFF" d="M82.6 87.9s-.6-.9-.1-1.2c.5-.3.6.2.8-.1.1-.3.3-.6.3-.6s-.7-.9-.4-1.2c.3-.3.9-.2 1-.1.1 0 .2-.7.3-.8.1-.1-.4-.4-.1-1 .4-.8.5-.1.7-.2.5-.2.7-1.5.7-1.5s-6.4-3.9-8.5-.1c-2.2 3.5 5.3 6.8 5.3 6.8z"/></g></switch></svg>
