<svg xmlns="http://www.w3.org/2000/svg" version="1.0" viewBox="0 0 36.3 37.2"><switch><g><path fill="#C9C930" d="M12.3 33.5c2.4-2.7 2-6.8-1-9.3-3-2.5-7.3-2.3-9.8.4-2.4 2.7-2 6.8 1 9.3 3 2.5 7.4 2.3 9.8-.4z" opacity=".25"/><path fill="#C9C930" d="M11.8 32.5c2.1-2.4 1.9-5.9-.6-8-2.5-2.1-6.2-1.8-8.4.5-2.1 2.4-1.9 5.9.6 8 2.5 2.1 6.3 1.9 8.4-.5z" opacity=".25"/><linearGradient id="a" x1="-5487.888" x2="-5486.286" y1="11536.011" y2="11536.011" gradientTransform="scale(-1 1) rotate(-56.213 -13540.593 662.89)" gradientUnits="userSpaceOnUse"><stop offset="0" stop-color="#676768"/><stop offset="1"/></linearGradient><path fill="url(#a)" d="M23.8 17c.3 0 1.4.2 1.7 0 .5-.4-.4-.8-.6-1 .4-.3 1.2-.2 1.7-.2.1-.2.1-.4.2-.7-.5 0-1.1 0-1.6.2-.8.3-.4.6-.2 1.2-.3.2-.8.1-1.1 0l-.3.6"/><linearGradient id="b" x1="-2266.788" x2="-2262.945" y1="12469.364" y2="12469.364" gradientTransform="scale(-1 1) rotate(-40.892 -17840.864 3238.841)" gradientUnits="userSpaceOnUse"><stop offset="0" stop-color="#676768"/><stop offset="1"/></linearGradient><path fill="url(#b)" d="M23 18.3c.7-.3 1.5.3 2.1.4-.7.9-1.3 2.1-2.6 2.3.5.6 1.4.4 2 .9-.6.3-.5.5-1.2.1-.5-.3-.9-.6-1.2-1 .2 0 .3-.1.5-.2-.3-.5.4-.8.8-1.1.5-.3.9-.7 1.4-1-.6.1-2.6.3-2-.8"/><linearGradient id="c" x1="1360.419" x2="1360.481" y1="12459.414" y2="12454.515" gradientTransform="rotate(40.892 17389.368 4449.527)" gradientUnits="userSpaceOnUse"><stop offset="0" stop-color="#676768"/><stop offset="1"/></linearGradient><path fill="url(#c)" d="M25.2 9.9c.8-.4 2-1.1 2.9-1.2.9-.1 2.2.3 3.1.4 1.5.2 3 .2 4.4.4-.8-.1-1.8.1-2.6 0s-1.6-.1-2.5-.2c-.8-.1-1.7-.4-2.5-.3-.7.1-1.5.5-2.2.8-.2.1-.3.2-.5.3-.1 0-.3-.1-.3-.2"/><linearGradient id="d" x1="1354.033" x2="1354.093" y1="12459.405" y2="12454.642" gradientTransform="rotate(40.892 17389.368 4449.527)" gradientUnits="userSpaceOnUse"><stop offset="0" stop-color="#676768"/><stop offset="1"/></linearGradient><path fill="url(#d)" d="M23.8 9.1c-.2-.3.9-1.8 1.2-2.2.5-.7 1.1-1.5 1.6-2.2 1-1.4 1-3.3 2.2-4.6-.4.8-.7 1.6-.9 2.5-.1.4-.3.7-.3 1.1-.1.6-.2.7-.6 1.2-.6.7-1.1 1.5-1.6 2.3-.4.3-1.1 1.9-1.6 1.9"/><path fill="#C9C930" stroke="#996766" stroke-width=".25" d="M6.5 22.4c-1.7 2.2-3.7 5.9-2.3 8.5.7 1.4 1.9 1.5 3.4 1.2 1.1-.2 3.1-1 3.7-2 .4-.6.3-.5-.3-.9s-1.4-.7-1.9-1.2c-.9-.8-1.8-1.8-2.8-2.6"/><linearGradient id="e" x1="1347.14" x2="1351.072" y1="12470.61" y2="12470.61" gradientTransform="rotate(40.892 17389.368 4449.527)" gradientUnits="userSpaceOnUse"><stop offset="0" stop-color="#676768"/><stop offset="1"/></linearGradient><path fill="url(#e)" d="M14.8 12.8c.2-.7-.5-1.4-.8-1.9-.8.8-2 1.5-2 2.8-.7-.4-.6-1.3-1.2-1.8-.2.6-.4.6.1 1.2.3.4.7.8 1.2 1 0-.2.1-.3.1-.5.6.2.8-.5 1-.9.2-.5.6-.9.8-1.4 0 .6.1 2.5 1.1 1.7"/><linearGradient id="f" x1="1347.736" x2="1350.571" y1="12481.965" y2="12481.965" gradientTransform="rotate(40.892 17389.368 4449.527)" gradientUnits="userSpaceOnUse"><stop offset="0" stop-color="#676768"/><stop offset="1"/></linearGradient><path fill="url(#f)" d="M8.6 19.7c-.7-.5-2.3-2.4-2.9-.8-.5 1.2-.9 2.4-.9 3.6-.6 0-1 0-1.6-.1-.6.6.6.8 1 .7.5-.1 1.2-.8 1.3-1.1.2-.5.1-1.2.3-1.7.2-.5.4-1.1.4-1.7.9-.3 1.5.9 2.3 1.1"/><linearGradient id="g" x1="1356.2" x2="1356.066" y1="12462.786" y2="12460.006" gradientTransform="rotate(40.892 17389.368 4449.527)" gradientUnits="userSpaceOnUse"><stop offset="0" stop-color="#676768"/><stop offset="1"/></linearGradient><path fill="url(#g)" d="M22.1 8.9c.1-.6.9-1.3 1.5-.8.3.3.2.4.6.6.3.2.5.3.8.5.3.2.5.4.7.7.1.2.2.2.3.3.1.1.3 0 .5.1.5.4.1 1.3-.5 1.6-.1 0-.1.1-.2.1-.3-.3-.4-.6-.7-.8-.3-.3-.6-.6-1-.8-.7-.5-1.5-.9-2-1.5"/><linearGradient id="h" x1="1360.97" x2="1362.932" y1="12481.472" y2="12481.472" gradientTransform="rotate(40.892 17389.368 4449.527)" gradientUnits="userSpaceOnUse"><stop offset="0" stop-color="#676768"/><stop offset="1"/></linearGradient><path fill="url(#h)" d="M16.7 27c.6.1 1.2 0 .5.8-.5.6-1.2.9-1.8 1.3-.4.2-1.5.5-1.4 1 0 .5.8.9.8 1.5-.5.4-.9-.4-1-.7-.2-.6-.1-.9.3-1.3l.2-.4c0-.1.3-.1.4-.2.3-.1.5-.4.8-.5.5-.3 1.1-.4 1.5-.8 0-.2-.2-.4-.4-.4"/><linearGradient id="i" x1="1350.345" x2="1351.968" y1="12466.5" y2="12466.5" gradientTransform="rotate(40.892 17389.368 4449.527)" gradientUnits="userSpaceOnUse"><stop offset="0" stop-color="#676768"/><stop offset="1"/></linearGradient><path fill="url(#i)" d="M16.2 11.9c0-.3 0-1.4.2-1.6.5-.4.7.5 1 .7.3-.4.4-1.1.4-1.6.2 0 .5-.1.7-.1 0 .5-.2 1.1-.4 1.5-.4.7-.7.3-1.3 0-.2.2-.2.8-.1 1.1-.2 0-.4.1-.6.2"/><path fill="#FCCB98" stroke="#996766" stroke-width=".25" d="M20.2 14.8c.7-.6.6-1.3 0-2-.5-.5-2-.8-2.2-1.3-.6-1.3 3-2.5 4-2.5 1.4 0 3.7 1.6 4 2.9.3 1.2-.6 3.9-1.6 4.7-.8-.5-1.2-.8-1.9-1.4-.5-.5-1.3-1-2.3-.4"/><path fill="#F06666" d="M22.6 9.7c-.4 0-1.7.5-1.9.8-.4.6.9.9 1.2 1.1.6.3 1 .8 1.5 1.3.3.3.6 1.6 1.3 1 .5-.4.1-1.3 0-1.8-.1-.3-.1-.7-.3-.9-.3-.5-1-.8-1.3-1.3"/><path fill="#C99564" stroke="#996766" stroke-width=".25" d="M20.3 14c-1 1.1-2.1 2.1-3.2 3.1-2.7 2.7-5.3 5.6-7.5 8.6-.6.7-3.2 3.8-3.1 4.6.4 2.1 3.6.8 4.7.4 4.4-1.8 8.1-5.5 10.6-9.3 1-1.6 2.4-3.3 2.4-5.5 0-1.9-1.8-4.3-3.4-1.9h-.5z"/><linearGradient id="j" x1="1377.443" x2="1350.829" y1="12475.77" y2="12476.579" gradientTransform="rotate(40.892 17389.368 4449.527)" gradientUnits="userSpaceOnUse"><stop offset="0" stop-color="#676768"/><stop offset="1"/></linearGradient><path fill="url(#j)" d="M23.9 14.9c-1.2-3.4-4.8 1-5.9 2.2-2 2.2-4 4.1-5.9 6.3-.9 1-1.4 2.2-2.3 3.2-.8.9-2 1.8-2.3 3-.9 2.9 4.8.2 5.7-.3 2.3-1.5 4.4-3.2 6.2-5.2 1.7-1.8 3.7-4 4.4-6.3.2-1.1.2-1.9.1-2.9"/><path fill="#C99564" stroke="#996766" stroke-width=".25" d="M20.8 14c-1 1.1-2 2.8-2.9 3.9-2.4 2.9-5.1 5.8-7.8 8.3-.7.6-3.4 3.6-4.3 3.6-2.2-.1-1.4-3.3-1.1-4.4C5.9 21 9.3 17 12.9 14.1c1.5-1.2 3.1-2.8 5.3-3.1 1.9-.3 5.1 1.1 2.8 2.9l-.2.1z"/><linearGradient id="k" x1="-2399.522" x2="-2424.786" y1="12475.991" y2="12476.76" gradientTransform="scale(-1 1) rotate(-40.892 -17921.644 3022.159)" gradientUnits="userSpaceOnUse"><stop offset="0" stop-color="#676768"/><stop offset="1"/></linearGradient><path fill="url(#k)" d="M19.5 11.3c3.7.6-.4 4.6-1.5 5.8-2 2.2-3.7 4.4-5.7 6.5-.9 1-2.1 1.7-3 2.6-.9.9-1.6 2.1-2.7 2.6-2.9 1.2-.9-4.5-.5-5.4 1.2-2.4 2.7-4.6 4.5-6.6 1.7-1.8 3.6-4 5.9-5 1-.4 1.9-.6 3-.5"/><path fill="#676768" d="M23.5 9.6c-.3-.1-.8 0-1.2.1-.4.2-.4.4-.5.8 0 .3-.2.9-.1 1.2.1.3.8.5.4 1h.8c.3.1.5.3.7.5.3-.2 1-.6 1.2-.8.2-.2.3-.9.3-1.1.1-.7-1.1-1.4-1.6-1.7"/></g></switch></svg>
