<svg xmlns="http://www.w3.org/2000/svg" version="1.0" viewBox="0 0 123 101"><switch><g><path fill="#C41212" d="M51.4 69c-2.7.3-4.4.9-7.1.5-2-.2-5.7-.5-7.5-.6 1.4 2.2 7.9 3.2 10.2 4.3 4.2 2 3.3-2.4 6-4.2-.6-.9-1.3-.7-2.1-.3-1 .5-1 1-2.5.4"/><path fill="#FDFEFF" d="M51.7 63.9l-2.9 2.6 2.3.5z"/><path fill="#FDFEFF" d="M62.2 62.7s5.1 10.2 5.2 10.8c.1.7-10.7 3.9-12.6 4.1-1.8.2-5.3-.7-5.8-1.1-.5-.4 1.9-9.1 2.1-10.2.2-1.2.6-2.5.5-2.6-.3-.2 4.3.1 5.6 0 1.3-.1 5-1 5-1z"/><path fill="#F7F8F9" d="M64.3 74.6c.1 0 .9-.4.8-1.5-.2-1-.7-1.5-.9-1.8-.2-.3-.8-.5-.2-.7.4-.1 1.5 1.6 1.7 2 .2.5.8 1.1.7 1.3-.1.1-.3.2-.7.4-.4.2-1.4.3-1.4.3z" opacity=".21"/><text fill="#E72420" font-family="'MyriadPro-Regular'" font-size="14.82" transform="matrix(.9797 .09223 -.09074 .9959 49.62 74.616)">1</text><path fill="#EBBB8C" d="M65.4 55.9s1.1-1 1.6-.6 1 1.5 1.1 2.1c0 .6-1.1 2.3-1.4 2.3-.3 0-1.2.1-1.2.1l-.1-3.9z"/><path fill="none" d="M62 64.9c0 1 .5 2.1.3 3.1-.4 1.4-1.6 0-2.5-.7-.3-.2-1.4-.9-1.5-1.2-.2-.6.5-1 1.1-1.4 1-.7 2.2-1.6 2.6.2"/><path fill="#070707" d="M78.1.5h1.1L67.9 68.9h-2.3z"/><path fill="#D10909" d="M104.4 13.1s2.2 3.5 4 5.3c1.8 1.8 9.7 12 9.9 13.6.2 1.6 4.3 7.7 4.3 7.7l.4 1.3s-6.5-.5-9.3 0c-2.8.5-8.1 1.1-9.3 1.3-1.2.2-4.1-2.2-4.9-2.2-.7 0-12.3.5-13.9.8-1.6.3-8 1.6-9 1.4-1-.2-4.7 0-4.7 0L78.7.1s5.4 1.6 8.3 2.7C90 4 91.7 7 93.6 8.3c1.9 1.3 3.2 2.6 5.4 3 2.2.5 4.2.8 4.2.8l1.2 1z"/><path fill="#010101" d="M98.6 82.1c4.3 3.4 4.1 10.7.4 14.4-1.7 1.7-5.4 2.6-7.7 2.5-2.5-.1-5.1-1.5-7.1-3.1-1.6-1.4-3.4-3.3-3.3-5.5.1-2 3.7-3.6 5.5-4.7.9-.5 1.9-.9 2.8-1.5.3-.2 1.3-.8 1.5-.9.9-.3 1.2.1 2 0 2.3-.1 4.6-.8 6.7-1.8.1.3.1 1.1.1 1"/><path fill="#444" d="M95.3 83.8c2.7 1.7 3.8 3.2 3.6 6.4-.2 2.8-2 4.3-4.6 5-4.3 1.2-12.1-3.3-7.9-8.2.9-1.1 3.1-3.2 4.3-3.6.9-.4 5.2-.3 5.3.2"/><path fill="#010101" d="M58.3 75.3c1.6-2.3 2.9-5.5 5.3-7.1-.1 3.2 3.7 1.6 5.3 2.1-.3.6-.6 1.2-.8 1.8.4.6 1 .8 1.7.9-1.7 1-1.1 2.2-5 3.6-4 1.4-4.3-.3-6.5-.4.2-.7.6-1.4.9-2.1"/><path fill="#444" d="M14.7 85.4c-.7 5.6 3 10.6 8.2 11.3 5.2.6 9.9-3.4 10.5-9 .7-5.6-3-10.6-8.2-11.3-5.1-.6-9.8 3.4-10.5 9z"/><path fill="#181818" d="M83.2 77.3s-2.6-1.4-4.4.4C77 79.4 73 84.1 73 84.1l.3 6.7 4.9.6 3.6-2.9 5.4-3.5s3.7-.8 2.2-2.4c-1.5-1.6-3.7-3.4-3.7-3.4l-2.5-1.9z"/><path fill="#FDFFFF" d="M75 83.3c4.9-.2 9.5-2 14.3-1.6.4 2.9-13.1 3-15.2 2.1 1-1 2.8-.2 3.8-.6" opacity=".28"/><path fill="none" d="M43.5 78.6c1.6.3 2.8 1.8 4.2 2.5 1.5.8 3 1.7 4.5 2.4 1.4.6 3.4.4 4.7.6.3 1.1.2 2.1.5 3.2-5.1.7-10.9-1.1-15.9.2-1.6-2-2.3-2.7-4.3-4.1-1.8-1.2-1.2-1.9.7-3.1 1.6-.9 3.7-2 5.6-1.7z"/><path fill="#E72420" d="M2.4 76.7c.2.3.4.6.4.9-1.4.5-.9 1.2-1.5 2.1-.4.7-1.2 1.2-1.3 2.1-.1 1 .9 3.7 1.8 4.4 2.9 2.2 7.9-1.5 10.9-2.2 0-1.5-1-2.1-.4-3.7.4-1.1 1.3-2 2.3-2.8 2.1-1.6 4.5-2.3 7.1-2.7 2.6-.4 5.7-.3 7.9 1.3 1.7 1.2 4 3.8 4 5.9 0 2.9-1.7 5.8-1.5 8.9 2.7.2 5.6-.6 8.3-.7 2.9-.1 5.8.3 8.6.7 2.9.4 5.9.3 8.7.5 3 .2 5.6 1.2 8.3 2 .8.2 1.2.3 2 .2.2 0 1.9-.5 1.9-.6 1.1-.7 1.1-2.4 2.6-2.8 0 0-.3.1-.4.1.3.1.6 0 .9.1.4-1.3.2-2.5.5-4s1.2-2.5 2.1-3.6c1.8-2.4 2.9-4.8 6-5 2.7-.2 5.6-.5 8.3-1.1 2.1-.4 5.9 0 7.1-2.2-1-1.1-3.9-.9-5.4-1.3-2-.4-3.8-1.2-5.7-2-3.5-1.5-7.4-3-10.5-5.1-.1 2.6-.2 4.2-2.8 4.6-1.8.3-4 .6-5.4 1.7.6.6 1.5.5 2.3.7-.9 1.4-5.6 2-7.2 2.6-2.7.9-4.9.8-7.6 0-5.2-1.4-9.8-2.8-14.6-5-2.6-1.1-4.8-2.5-7.8-1.2-2.2.9-4.9 4-7.4 3 .6 1.3 2.7 1.4 3.9 2-2.1-.7-4.7-.6-6.7-.6-2.6.1-4 .4-4.7-2.5-1.3-.2-2.8.8-4 1.4-1.3.6-2.5.9-3.9 1.4-1.6.6-2.9.7-4.4 1-.6.1-1.7.3-2.2.7-.6.5 0 1.5-1.2 1.5"/><path fill="#181818" d="M65.3 85.5c-1.3-.2-2.9.1-4.3 0 1.3 1.1 2.1 2.4.5 3.5 1.1.1 1.9.4 3 .4 1 0 1.8-.3 2.8-.2-.3-.8-1.5-.8-2.2-1.3.5-.8-.2-1.7-.2-2.6" opacity=".47"/><path fill="#919090" d="M93.5 76.2c1.2.8 2.8 1.7 4.1 2 .9.2 1.4 0 2.3.2-.6 1.3-2.7.8-3.9.9-1.7.1-2.3 1.3-4 1.6-2.6.5-6.9-.7-8.6-3.3 1.1-1.5 5-.6 6.6-.9 1-.2 1.8-.7 2.8-.6 1.3.1 1.9 1 3 1.2"/><path fill="#919090" d="M98.1 78.4c1.3-1.8 3.7-.4 2.7 1.6-.7 1.4-1.7 2.1-3.2 2.6-1.9.5-7 1.6-8.7.5.6-2.1-1.3-1.8-2.3-2.8 2.5-.3 4.9.3 7.3-.2 1.5-.3 5.2-.7 6.2-1.7-.7-.2-1.5-.2-2.2-.1"/><path fill="#FDFFFF" d="M54.3 79.1c-1.5-.6-4.6-1.5-6-2.7-1-.9-1.4-1.6-2.7-2.2-1.5-.7-4.9-3-6.4-1.8.4.7 1 1.3 1.6 1.9-1 .7-3.7-1-5-1.3-1.9-.4-3.4-.9-5.3-.6-.1 1.4 5.1 1.5 6.3 1.8 2.2.5 4 1.1 6 1.9 1.9.7 3.9 1.8 5.7 2.3 1.3.4 4.9 1.5 6.2.8-.9-1.5-3.9-.8-5.1-1.7" opacity=".28"/><path fill="#181818" d="M90.8 87.5c1.2-1.6 2.3-1.4 4.1-1.1.1-1.3-1.8-1.2-2.8-1.2-1.5 0-2.2.2-2.8 1.7.1 0 .6.1.5.1m.2 3c.7.7 1.1 1.5.6 2.3-2 0-1.7-2.6-.3-1.8m3 .8c.3.8 1.1 1.5 1.8.9-.5-.6-1-.7-1.6-1.2-.3.1-.3.2-.5.4m3.2-1.5c.1-.7-.3-1.6-.6-2.1 1.2-1.5 1.7 2.5-.2 1.7" opacity=".47"/><path fill="#919090" d="M17.4 71.5c1.5.1 2.2-.8 3.4-1 .9-.1 1.7.4 2.5.8 1.6.7 3 2.3 4.8 2.7-2.6-.3-11.1 1.1-10-3"/><path fill="#181818" d="M34.4 68.6c-2.5-.2-4.9-1.2-7.3-1.1-1.8.1-5.3.6-6.6 2 .3 1.1 2.3 1.1 3.3 1.6s2.1 1.3 2.9 2c1.5-2.3 7.2-1.9 7.7-5.2"/><path fill="none" d="M61.5 81c-1.4 0-2.6 0-3.9-.3 1.1-.6 2.6.3 3.7.7"/><path fill="#FDFFFF" d="M67.5 81.4c.9-.3 2.3-1.9 3.1-2.6.1.1.2.2.4.2.1.7-.2 1.2-.7 1.6.9-.4 2.4-2.4 3.5-1.3 0 1.3-2.2 1.3-3.1 1.9-1.3.9-1.8 2.4-2.1 3.9-.5 2.5 1.3 5 1.6 7.5-2.8 2.3-2.1-4.5-2.3-5.6-.2-1.2-.5-2.4-.9-3.5-.7-1.9-1-.8-2.8-1.3 1-.7 2.1.3 3-.5-.1-.9-.1-1.9.1-2.8.9.2.8 1.2 1 1.8m-42.9-4.1c.7 1.9.1 4.3.5 6.2-.7.2-1.4.2-2-.2.1-1.6-.1-5.9 1.3-6.8.6.4.8 1.2.6 1.9-.3.1-.2-.2-.3-.2m-8-4.6c.2 1.4-6.6 3.2-8 3.8-2.4 1.1-6.3 2.8-7.9 4.8 1.1 2.3 6.8-2.7 8.2-3.6 1.5-.9 2.8-1.8 4.3-2.6 1.2-.6 2.9-1 3.5-2.4-.1 0-.3-.2-.3-.3-.3.1-.4.4-.6.6m5 13.1l-5.8 1.8.6 1 6.6-1.9.1-1.1zm4.9.4l4.4 4.1-.2 1.6-5.5-5zm-3.1-3.4l-4-5.6-.5.8 2.7 6.1c-2.2-.3-3.2-1-5.3-.8.3 2.1 4.2 1.6 5.7 2.2m65.6-12c-2.2-.8-4.6-.7-6.8-1.2-1.5-.3-3.7-.2-4.9-1.3-.4.3-1.1 3.7-1 4.4 2 .8 5 1 7.1.9 2-.1 4.5 0 6.5-.2-1.9-2.1-6.4-1.3-8.9-2.6.1-.5.1-.5.6-.7 1.8.8 4 1 6.1 1.1-.1-.5-.4-1-.9-1.3" opacity=".28"/><path fill="#010101" d="M65 70.5c2.8.1 3.5-2.2 4-4.8.3-1.9.3-5.5-2.3-5.5-3.7 0-5.1 10.7-.5 11"/><path fill="#FDFFFF" d="M24.2 88l-3.3 6.5-1.3-.5 3.5-7.2 1.2.3zm1.6-5.2L29 80l1.1 1-3.2 3.3-1.2-.1zm1.1 12.4l-2.3.1-.3-8 1 .1zm-.3-8.5l5.7-.1.3-2.2-5.7-.1z" opacity=".28"/><path fill="#BF0A0A" d="M13.4 83.4c-.3-.4-.7-.7-1.1-1.1-.6-5.4 5.9-7.2 10.1-7.4 5.1-.2 10.8.8 12.9 6.3 1 2.5-.6 7.2-3 8.4.2-2.5 2-5 1.3-7.3-.5-2-2.3-4.2-4-5.2-2.2-1.3-4.7-1.9-7.2-1.6-2.9.3-4.2 2.1-6.1 4.2-1.2 1.3-2.4 2.3-3.5 3.7-.9-.3-.4-1.4-.6-2.1"/><path fill="#FDFFFF" d="M.9 84c2.7.3 5.7.5 8.1.8-1.4 1.4-9.5 1.1-8.1-.9.3 0 .6 0 .8.1" opacity=".28"/><path fill="#444" d="M67.8 61.2c1.6 0 2.6 1 3.9 1.9.9.6 3.8 1.4 4.2 2.2.5.9-.7 3.1-.8 4.2 0 .7.8.8.4 1.5-.3.5-1.3.4-1.8.5-1.7.3-6 .4-7.5-.6 1.2-1.6 2.5-3.3 3-5.3.2-1 .5-4.7-1.2-4.6"/><path fill="#FDFFFF" d="M41.3 87.9c-.5.2-.9.6-1.1 1.1 1.3 1.4 4.5 1 6.3 1.3 2.3.4 4.5.5 6.8.6 2.3.2 4.5.1 6.8.6 1.8.4 4 .8 5.5-.4-.7-1.4-4-1.1-5.4-1.1-2 0-3.9-.5-6-.7-2.5-.3-9.3 1.1-10.6-1.6-1.2-.1-2.8-.4-3.6.6 0 .3.2.2.3.4" opacity=".28"/><path fill="#181818" d="M86.9 88c.2.5-.4 1 .3 1.4.3.2 1.3.1 1.8.2 1.1.1 2.1.4 3.2.3 1.1-.1 1.4-1.5.6-2.2-.3-.2-1.2-.4-1.5-.1-.5.3 0 .8-.6.9-1.2.2-3.1-.9-3.8-.5" opacity=".47"/><path fill="#181818" d="M57.6 86.4l.3-2.9s-2.9-.2-5.6-1.6c-2.8-1.4-5.8-3.9-8.3-3.7-2.5.2-5.1 1.7-6.4 2.5-1.3.8-2.2.8-.3 2.4 1.9 1.6 2.3 3.3 4.6 3.4 2.3.1 8.5.1 9.8.2 1.3 0 4.2-.2 4.2-.2l1.7-.1z"/><path fill="#FDFFFF" d="M47.6 81.6c-1.1 1.1-9.8 1.1-8.8-1.6.4-1.3 3.6-1 4.4-.9 1.8.4 3.3 1.3 4.7 2.3m-24.2-3.5c-.1.6.4 1.2 1 1.3.6.1 1.2-.4 1.3-1 .1-.6-.4-1.2-1-1.3-.6-.1-1.2.3-1.3 1zm-4.8 1.5c-.1.6.4 1.2 1 1.3.6.1 1.2-.4 1.3-1 .1-.6-.4-1.2-1-1.3-.6-.1-1.2.3-1.3 1zm-3.3 4.3c-.1.6.4 1.2 1 1.3.6.1 1.2-.4 1.3-1 .1-.6-.4-1.2-1-1.3-.6-.1-1.2.3-1.3 1zm-.5 4.5c-.1.6.4 1.2 1 1.3.6.1 1.2-.4 1.3-1 .1-.6-.4-1.2-1-1.3-.6-.1-1.2.4-1.3 1zm3.9 6c-.1.6.4 1.2 1 1.3.6.1 1.2-.4 1.3-1 .1-.6-.4-1.2-1-1.3-.6 0-1.2.4-1.3 1zm5.6 1.1c-.1.6.4 1.2 1 1.3.6.1 1.2-.4 1.3-1 .1-.6-.4-1.2-1-1.3-.6-.1-1.2.4-1.3 1zm5.1-3.5c-.1.6.4 1.2 1 1.3.6.1 1.2-.4 1.3-1 .1-.6-.4-1.2-1-1.3-.7-.1-1.2.3-1.3 1zm.7-6.5c-.1.6.4 1.2 1 1.3.6.1 1.2-.4 1.3-1 .1-.6-.4-1.2-1-1.3-.6-.1-1.2.4-1.3 1zm-1.3-5.6c-.1.6.4 1.2 1 1.3.6.1 1.2-.4 1.3-1 .1-.6-.4-1.2-1-1.3-.7-.1-1.2.4-1.3 1z" opacity=".28"/><path fill="#919090" d="M22 85c-.2 1.3.8 2.6 2.2 2.7 1.4.2 2.6-.8 2.8-2.1.2-1.3-.8-2.6-2.2-2.7-1.4-.2-2.6.8-2.8 2.1z"/><path fill="#010101" d="M17.6 94.5c-3.9-3.9-7-9.8-2.3-14.1 1.8-1.6 3.1-3.8 5.5-4.5 2.3-.6 5.2-.9 7.6-.1 3.3 1.1 5.6 3 6.2 6.5.8 4.4-1.3 6.3-2.9 9.9 1.9-3.7 1.1-11.6-2.7-14.1-4.6-3-10.4-.2-12.6 4.4-.7 1.6-1.4 3.6-1.3 5.5.1 1.2 1.7 4.7.9 5.2"/><path fill="#FDFFFF" d="M88.6 81.5c1.7.2 4.5-.4 6.1-1.1 1-.4 2.1-.8 2.9-1.5.6-.5.9-1.4 1.6-1.7.5.4 1.3.4 1.7.8-3.3 3.5-8.1 4.2-12.5 5l-.1-.1c.3-.4.4-.9.3-1.4.2 0 .5-.2.8-.3" opacity=".28"/><g font-family="'MyriadPro-Regular'"><text fill="#FFFEFD" font-size="40.452" transform="matrix(.961 .217 -.2136 .977 70.994 33.078)">1</text><text fill="#FFF" font-size="16.183" transform="matrix(.9648 .1987 -.1955 .9807 89.083 19.745)">st</text></g><linearGradient id="a" x1="44.546" x2="50.895" y1="68.077" y2="68.077" gradientUnits="userSpaceOnUse"><stop offset="0" stop-color="#ffedc4"/><stop offset=".322" stop-color="#ffe6b6"/><stop offset=".928" stop-color="#ffd592"/><stop offset="1" stop-color="#ffd38d"/></linearGradient><path fill="url(#a)" d="M49.1 66.6c0 .9-3.8 1.6-4.6 1.6.4.7.7 1.2 1.5 1.3.7.1 1.5 0 2.2 0 .8 0 1.5.1 2-.5.5-.5.7-1.4.6-2-.6 0-1.4-.5-2-.3"/><path fill="#2D0F01" d="M46.2 72.6c.1-2.4-.8-4-3-4.7-1.3-.4-4.6-.7-4.9 1.1l.4.8c1.3.3 2.3-1.1 3.7-.5 1.2.5 1.7 1.7 1.9 3 .6.5 1.3.6 2.1.5-.2-.5 0 0 0-.5"/><linearGradient id="b" x1="43.128" x2="60.959" y1="70.495" y2="70.495" gradientUnits="userSpaceOnUse"><stop offset="0" stop-color="#ffedc4"/><stop offset=".322" stop-color="#ffe6b6"/><stop offset=".928" stop-color="#ffd592"/><stop offset="1" stop-color="#ffd38d"/></linearGradient><path fill="url(#b)" d="M58.9 66.9c-1 .7-1.4 2-2.3 2.9-.8.8-1.5 1.6-2.3 2.3-1.6 1.5-4.5.4-6.1-.5-.4-.2-.7-.6-1.1-.8-.4-.2-1.1-.1-1.6-.1-.6 0-2.3.2-2.4-.7-.4.9.5 2.1 1.3 2.5.8.4 1.9.1 2.8.1.9 0 1.6.8 2.5 1.2 1.1.5 2.5.5 3.7.5 3.9-.1 5.1-3.6 7.4-6.1-.8-.4-1.5-.9-2.2-1.5-.1.2-.2.4-.2.5"/><path fill="#EDBC8D" d="M47.3 70.7c-.5-.2-.9-.8-1.3-.9.1.3.2.7.5 1 .2 0 .5-.1.7 0-.1-.1-.1-.3-.2-.4"/><path fill="#F7F6F5" d="M74.2 42.7s-.1.2-.2.6c-.5 1.6-1.7 5.7-1.9 7.4-.2 2 0 5.5.7 5.7.7.2.3-2.5.3-3.5s.7-5.1.7-6.1" opacity=".14"/><ellipse cx="62.2" cy="61.8" fill="none" rx=".4" ry=".5"/><path fill="#80491E" d="M66.6 66.4c.2.4 1.3-.2 1.3-.2s.5 1.3.5 1.6c0 .4.6 1 .6 1l.1-2.8s0-1.2.2-1c.2.2 1.5 1.1 1.6 1.3.1.1 1 .3.8 0-.1-.3-.5-1.8-.7-2.1-.2-.3-.6-1.8-.6-1.8l1.1-.5s4.8-14.6.1-19.2-11.3-5.4-16-5.2c-4.7.2-7.8.4-8.9.7-1.1.2-2.2 5.3-2.2 6.6-.1 1.4.6 5.1.5 5.8-.2.6.5 2.9.5 3.1-.1.2.4 1.3.4 1.3l.5-.9s.1-5.2.6-7c.5-1.8 3.3-2.4 4-2.4.7 0 1.5-.3 2.7.6 1.2.9 3.9 4 4.3 4.4.5.4 1.4.6 2.6 1.7 1.1 1.1 2.9 3.1 3.8 3.8.9.7 1.8 2.7 2.8 3.7.8.8 1.5.7 2.1 1.4.5.4.5 2.3-.3 2.4-.8.1-2.5.4-2.5.4s-.1 2.9.1 3.3z"/><linearGradient id="c" x1="1124.498" x2="1155.365" y1="-21.516" y2="-21.516" gradientTransform="matrix(-.7686 .0612 .0343 .9957 934.627 6.924)" gradientUnits="userSpaceOnUse"><stop offset="0" stop-color="#ffedc4"/><stop offset=".322" stop-color="#ffe6b6"/><stop offset=".928" stop-color="#ffd592"/><stop offset="1" stop-color="#ffd38d"/></linearGradient><path fill="url(#c)" d="M47.5 45.5s-1.1 6-1 7.7c.1 1.8.6 4.9.4 7.2-.1.7-.7 1.6-.7 2.8 0 1.2 1.4 2.2 3.3 3 1.8.8 4.4.5 5.5.4 1.6-.1 9.2-1.2 10.2-2.2 1-1 1.7-1.3 2-1.2.3.1 3-.3 2.8-1.3-.2-1.1-.6-2.5-1.3-2.4-.7 0-6.4-7.2-9.1-8.6-2.7-1.4-5.4-6.2-7.4-6.1-2.1-.1-4.7.7-4.7.7z"/><linearGradient id="d" x1="1135.955" x2="1144.622" y1="-14.578" y2="-14.578" gradientTransform="matrix(-.7686 .0612 .0343 .9957 934.627 6.924)" gradientUnits="userSpaceOnUse"><stop offset="0" stop-color="#ec1475"/><stop offset="1" stop-color="#fff5cb"/></linearGradient><path fill="url(#d)" d="M61 62c.1 2-1.3 3.8-3.2 3.9-1.8.1-3.4-1.4-3.5-3.5-.1-2 1.3-3.8 3.2-3.9 1.9-.1 3.4 1.4 3.5 3.5z" opacity=".13"/><path fill="#030305" d="M49 55.9c0 .5.2.8.5.9.3 0 .6-.3.6-.8s-.2-.8-.5-.9c-.3 0-.6.4-.6.8zm6.7 1.1c0 .5.2.8.5.9.3 0 .6-.3.6-.8s-.2-.8-.5-.9c-.3 0-.6.3-.6.8z"/><path fill="#80491E" d="M53 45s-2-1.8-3.2-1.7c-1.2.1-2.9 3.4-3 3.6-.1.2-1 3.9-1 4.2 0 .3.2 2.2.1 2.6 0 .5-.1 1.5-.1 1.5s1.5-6.8 1.9-7.4c.4-.6 2.5-2 2.9-2.1.4-.1 1.8-.4 1.8-.4l.6-.3zm.2 0s1.4-.3 2.3-.2c.8.1 3 2.3 3.9 3.6.9 1.3 1.4 3 2.6 3.5 1.2.5 3.1 1.4 3.5 1.5.5 0 .9.2.4.7-.6.4-1.5.6-2 .5-.4 0-5.1-2.7-5.9-3.3-.7-.6-3.8-4.1-3.8-4.6-.1-.5-1.2-1.6-1.2-1.6l.2-.1z"/><path fill="none" d="M49.9 60.2c-.1-.2.1-1 .1-1.4.1-.4.6-.6 1.1-.7.6-.1 1.3 1.1 1.3 1.1m-2.6 5c1.6.3 3.1-.1 4.2-1.3"/></g></switch></svg>
