<svg xmlns="http://www.w3.org/2000/svg" version="1.0" viewBox="0 0 220 129"><switch><g><linearGradient id="a" x2="220.72" y1="64.75" y2="64.75" gradientUnits="userSpaceOnUse"><stop offset="0" stop-color="#aadee8"/><stop offset="1" stop-color="#4dbc93"/></linearGradient><path fill="url(#a)" d="M0 0h220.7v129.5H0z"/><path fill="#FF701F" d="M25.5 38.5V29H7.3v-3.1L24.8 3.8h5.7v21.5H36V29h-5.5v9.4h-5zm0-13.2V13.8c0-1.8.1-3.6.2-5.4h-.2c-1.2 2-2.2 3.5-3.3 5.1l-9.6 11.8v.1h12.9z"/><path fill="#8AA007" d="M183.8 89.3s-25 1.8-25.1 2.2c-.1.4 0 1.8 0 1.8l.8.6s-15.6-1.5-19.9-.4c-4.3 1-9.2 2.9-8.3 5.8.6 1.8 3.6 4 5.5 4.3 1.7.3-.1.4 1.1 1.1.9.5.7-.3 1.4.7.6.7 2.1 1.1 3 1.4 1.3.4 2.5.8 3.9 1.1 5.8 1 8.3 1.7 20.7 2.1 12.4.4 23-.9 27.2-1.7 0 0 4.4-.8 8.1-1.7 3.7-.9 5.6-1.6 7.9-2.2 2.3-.6 4-1.3 4.6-1.5.5-.3.6-.1.5-1.2-.1-1.1-4.1-5.1-5.6-6.2-1.5-1.1-10-3-10.5-3.4-.5-.4-2.7-.9-5-1.3-2.2-.4-4.5-.8-5.2-.9-.6-.1-2.2-.2-3.4-.3h-.6"/><path fill="#B1E00A" d="M153.6 94.3s-1.5-.1-2.5 0c-.7.1-1.1.4-1.3.9l-.3.6c-.4 1 .3.9 1.6 1.4 1.4.5 1.6-.8 2.6-1.2 1-.4 4.1-1.8 4.1-1.8l.4-2.6-.8-13.8s1.8 3.3 2 4.1c.3.8 1.8 3.3 1.8 3.3l.2-3.2s1.1-1.6.7-2.3c-.5-.7.3-1.1.5-1.7.2-.6 1.2-1.4 1.2-1.4s-7.4-5-8.4-4.3c-1 .7-1.2 6.4-1 9.4.3 3 1.4 7.4 1.4 7.4l-.1 3.1s-1.4 1-1.8 1c-.4 0-3.8.3-4.5 0-.7-.3-1.8-.3-2.2-.3-.4 0-1-.3-1.5-.1-.6.1-1.5 1.2-1.5 1.2l1.9.3s-.4.4.4.7c.8.3 2 0 2 0l5.1-.7z"/><path fill="#0A0A0A" stroke="#0A0A0A" stroke-width="1.782" d="M161.2 100.9c-.8.3-1.4 1-2.2 1.5-.8.5-1.7.8-2.5 1.3-1.8 1.1-3.8 2-5.4 3.2-1.9 1.4-.9 2.8.9 3.6 1 .5 1.4.6 2.4.5.7-.1 1.5-.1 2.1.1.1 1.6-1.2 3.4-.9 5 .2.9 1.3.9 2.1.5.5-.2.6-.8 1-1.2.4-.5.9-.7 1.4-1.2.8-.8 1-1.6 2.2-1.9.9-.2 1.7.6 2 1.5.2.7-.1 1.6-.3 2.3-.2.8-.3 1.7-.6 2.5-.7 2-.8 3.5 1.5 4.3 1.6.5 3.5.4 4.9-.8.7-.6.9-1.6 1.9-1.6.3 0 .9.2 1.2.4.5.4.4 1 .7 1.4 1 1.1 3.8.8 5 .2 1.4-.7 1.9-2.1 2.1-3.6.1-.5.3-1.2.2-1.7-.2-.8-.8-1.2-.8-2-.1-.8.1-1.1.4-1.8.2-.6 0-1.4.2-2 .4-.8 2.8-1.1 3.5-.8-.4.8 0 1.4.9 1.2 0 .4-.5 1.5-.7 1.8-.2.3-.8.3-.9.7-.1.5.5.6.6 1 .3.9-.2 1.2.9 1.7.4.2 1.4.6 1.9.5 1.1-.1 1.1-2.4 1.2-3.3.2-1 1-2.8.6-3.9-.1-.3-.5-.4-.6-.7-.1-.3 0-.7 0-1-.1-.5-.9-1.6-.8-2 0-.1.8-.5 1-.6.2-.2.3-.7.4-1 .2-.6.4-1.3.3-2-.1-1.3-.2-2.6-.4-3.8-.2-1.7-1.7-1.6-3.1-1.7.3 1.3-.2 3-.1 4.3.1.6.6 4.9-.7 4-.3-.2-.5-1.8-.5-2.2 0-.9.4-1.5.3-2.3-.1-.8-.4-1.4-.8-2.1-.3-.5-.5-.6-.9-1-.2-.1-.7-.8-.9-.9-1.2-.4-3 3.7-3.6.9-.1-.4.3-.5.1-.9-.1-.1-1-.3-1.2-.3-.8-.1-1.7.1-2.5.2-1.6.1-2.5-.2-4.1-.1-.8 0-4.7-.6-5.1-1.1-.1.8 1.3 3-1.5 3.4-.5.1-.7-.6-1.3-.4-.4.2-.8 1-1 1.4" opacity=".11"/><path fill="#98BE29" d="M175.2 99.9c-.9 1.2-.7 4-.8 5.4-.1 1.3-.8 3.8.1 4.9 2-.7 1.9-5 2.4-6.7.3-1.1.8-2.2.8-3.3 0-.9-.1-1-.8-1.1-.7 0-1.4.1-1.7.8m14.2 1.5c.8.5 1.8 1.2 2.2 2 .5.8.7 1.7 1.3 2.4.3.4.8.7 1.1 1 .2.2.6.9.8.9.3.1 1.9-.4 2.3-.6-.3-.8-1.1-1-1.6-1.6-.5-.7-.8-1.5-1.3-2.2-.5-.7-1.1-1.5-1.8-2.1-.7-.5-1.5-.8-2.2-1.3-.6-.4-1.3-1.7-1.9-1.9-.8-.3-1.5.7-1.5 1.3.1 1.4 2.2 3.2 3.5 3.1m1.4-4.3c1.3.2 3 .5 4.2.9 1.4.5 2.8.6 4.2 1 1.8.5 3.3 1.4 5.1 2.1 1.1.4 3.2 1.2 3.6 2.3-.6.7-1.4 1-2.1.5-.8-.6-1.3-1.4-2.2-1.9-1.7-.9-3.6-1.7-5.4-2.4-1.6-.6-3.1-1.4-4.7-1.9-1.4-.4-3.7.3-4.5-1.1.5-.3 1.5.6 2.2.5m19.7.2c-1.2.1-2.6-.6-3.9-.5-1.4 0-2.8-.1-4.1-.2-2.1-.1-4.2.5-6.3.4-1.4-.1-3.5.1-4.8-.7.7-.6 1.1-.5 1.9-.4.4.1.6.2 1 .2s1-.1 1.4-.2c1.6-.1 3.1.1 4.7-.1s3.2-.2 4.8-.1c1.1.1 2.2.4 3.3.4.4 0 1-.2 1.3-.1.3.2.8 1.3.7 1.3zm-58.9-.7c-.6 0-1.4 1-1.9 1.3-.7.4-1.3.8-2 1.2-1.4.9-3 1.6-4.5 2.4-1.2.6-2.9.5-3.9 1.4-.9.8-.4 1.1-1.6.7-.5-.2-2-.3-1.3-1.2.4-.5 1.4-.2 1.9-.3.8-.1 1.3-.4 2-.9 1.3-.9 2.7-1.5 4.1-2 1.5-.5 2.8-1.3 4.2-1.9.3-.1.7-.2 1-.4.3-.2.5-.6.8-.8 1.1-.5 1 .6.4 1.2"/><path fill="#BEEF0C" d="M182.3 87.7s-.2-3.8-.5-5.2c-.3-1.4-8.4-4.3-10.5-4.5-2.1-.1-9 1.3-9.6 1.9-.6.6-1 4.8-.9 5.5.1.6.2 2.8.2 2.8h10.3c1.3 0 6.1.9 6.6 1.1.4.3 4.4-1.6 4.4-1.6z"/><path fill="#BBE50A" d="M160.9 89c.1-.4-.9-2.8 7.4-2.7 8.3.1 11.1-.3 12 .6.9.9 1.8 1.9 1.4 3.6-.4 1.7-1.6 4.9-2.8 5.2-1.1.4-3.1 1.2-6.4 1.4-2 .1-6.6 0-8.3-1.4-.8-.7-2.3-1.8-2.6-2.5-.2-.8-.4-2.3-.6-2.8-.4-.6-.1-1.4-.1-1.4z"/><path fill="#AFDD07" d="M146.2 93.6c0 .5-.6 1-1.4 1-.8 0-1.4-.4-1.4-1 0-.5.6-1 1.4-1 .8.1 1.4.5 1.4 1zm2.8 1c0 .5-.6 1-1.4 1-.8 0-1.4-.4-1.4-1 0-.5.6-1 1.4-1 .8 0 1.4.5 1.4 1z"/><path fill="#AFDD07" d="M152.2 95.7c0 .8-.8 1.5-1.9 1.5-1 0-1.8-.7-1.8-1.5s.8-1.5 1.8-1.5 1.9.7 1.9 1.5z"/><path fill="#B1E00A" d="M160.8 88s-1.9.1-1.7 2.3c.2 2.1.8 3.5 1.2 3.9.4.5 1.1 1.4 1.1 1.4s-.5.6-.6.5c-.1-.1-3.3.5-3.8.5s-1.9.5-2.3.6c-.5.2-.9.4-.8.8.1.3.9.4 1.7.4.7 0 1.7-.5 1.7-.5l1.1-.3s.1.2-.1.5-.9.7-.3.9c.7.3 2.4 0 2.4 0l.4-.9s.9-.8 1.2-.5c.3.3 1 1.3.9 1.5-.1.2.6.8 1.3.4.7-.4 1.6-.7 1-1.3-.6-.6-2.2-1.7-2.3-1.9-.1-.2-.2-1.7-.2-1.7s-1.4-2.7-1.5-3.2c-.1-.5-.3-2.4-.3-2.4l-.1-1zm19.3 6.6v1.7l-.8.9s-1.3.6-1.4 1.1c-.1.5.8 1.5 1.1 1.3.3-.2.8-.6 1.1-.7.3-.1.6-.9.6-.9s.8-.5 1-.3c.2.2-.1.9.5 1.1.7.3 1.1.3 1.8.1.7-.2 1.3-.3 1.3-.7 0-.5-.6-.9-.6-.9s.8.6 1.3.7c.5.1 1.2.3 1.6.1.4-.2 1.3-.3 1.1-.8-.2-.5-.8-1.1-1.4-1.3-.6-.2-2.5-.3-2.7-.4-.3-.1-1.5-.1-1.8-.1-.3-.1-.9.5-1.1 0-.2-.5.4-.5.5-1 .1-.5.8-1.4 1.1-1.9.3-.6.8-2.7.4-3-.4-.3-1.5-1.8-1.5-2-.1-.2-1.1.3-1.1.3s.6 2 .4 2.5c-.1.4-1.2 2.9-1.2 2.9l-.2 1.3z"/><path fill="#B1E00A" d="M180.5 77.2s5.4-4.8 6.8-4.1c1.4.7 2 6 1.4 9-.6 3-1.6 9.9-1.2 10.5.4.7 1.6 2.1 3 1.9 1.3-.1 3.6-.4 3.6-.4s2.1-.2 2.6-.6c.5-.4 1.4-.5 1.6 0 .2.5.9.2.6 1-.3.8-.2 1.4-.8 1.1-.6-.2-1.3-.7-1.3-.7s.3.4.3.8-.3.9-.9 1c-.6.2-1.4.2-1.8 0-.4-.2-.4-1.1-.4-1.1h-1s0 .2.1.6c.1.5.2 1-.4 1-.5 0-1.3 0-1.9-.2-.6-.2-.7-.7-.7-.7l-1.9.2-2.9-.9.2-16.5s-3.1 5.9-3.7 6c-.6.1-.4-2.4-.5-3-.1-.6.4-1.1.4-1.1s-.3-1.1-.4-1.7c-.1-.6-.8-2.1-.8-2.1z"/><path fill="#FCFCFC" d="M170.2 80.1s-.7 1.5-1.2 1.6c-.4.1-3.3-.2-3.7 0-.4.2-2.2.7-2.5 0-.3-.6-1.1-1.3-1.1-1.3V80s3.4-.2 4.1-.3c.7 0 2.8.3 3.4 0 .5-.1 1 .4 1 .4z"/><path fill="#ACD80B" d="M169 81.8s-2.3 1.3-3.2 1.9c-.8.6-1.8.5-2.2.4-.4-.1-1.9-2-1.9-2V81s1.1-.8 1.1 0 1.1 1.2 1.8 1c.7-.2 2.7-.3 2.7-.3l1.7.1zm5-.1l6.6-.7 1.1.2s-.5.7-.5 1c-.1.2-1.3 1.6-1.3 1.6s-1.2.6-2.3.5c-1.2-.1-4.7-2.5-4.7-2.5"/><path fill="#FCFCFC" d="M161.6 79.9s.1 1.6.1 1.8c0 .1 2.4.8 3.9.7 1.5-.1 2.7 0 2.7 0s1.6-.6 1.8-1.8c.1-.4-.5-1.3-.5-1.3s-4.9-.2-5.4-.2c-.4 0-2 .3-2.3.2-.3-.1-.3.5-.3.5"/><path fill="#ACD80B" d="M161.5 79.6s1.4-4.3 4.7-4.2c3.2.2 4 2.4 4 3v1.1l-8.4.6-.3-.5z"/><path fill="#FCFCFC" d="M181.2 80.1s.6 1.1-.2 1.5c-.8.3-2.4.2-3.1.3-.7.1-3.1.2-3.3.2-.2 0-1.4-.1-1.7-.4-.3-.4-.4-.7-.4-1.1 0-.4 2-1.7 2.8-1.5.8.2 3-.1 3.6 0 .4 0 2.3 1 2.3 1z"/><path fill="#ACD80B" d="M172.5 80.4s0-2.2.8-3.1c.8-.9 2.3-1.9 3.8-1.6 1.5.3 3.4 1.4 3.6 1.9l1 2-9.2.8z"/><path fill="#677F03" d="M177.8 81c0 .3-.3.6-.6.6s-.6-.3-.6-.6.3-.6.6-.6.6.2.6.6z"/><path fill="#9DC105" d="M160.7 78.1c0 .5-.4.9-.9.9s-.9-.4-.9-.9.4-.9.9-.9c.5.1.9.5.9.9zm-.7-2c0 .3-.2.5-.4.5s-.4-.2-.4-.5c0-.2.2-.4.4-.4.2-.1.4.1.4.4zm1.3.4c0 .2-.2.4-.4.4s-.4-.2-.4-.4.2-.5.4-.5c.3.1.4.3.4.5z"/><path fill="none" stroke="#9DC609" stroke-width="1.825" d="M157.3 78c.1-.7 0-1.6-.3-2.2m-7.5 18.7c.9-1 3 .2 4.2-.2m-6.1-.5c.6-.8 1.7 0 2.5 0m42.6 1.7c-.4-1.3-3-.8-3.1.6m4.9-1.7c.7 0 1.8-.3 2.3.3"/><path fill="#0A0A0A" stroke="#0A0A0A" stroke-width="1.782" d="M160.5 83.4c.2-1.1-1.8-6.1-3.1-5.9-1.7.2-.5 4.8-.5 5.8 0 2 .5 4 .4 6.1-.2 2.1.4 4.5-1.6 5.9-.8.6-2 .9-3 1.2-.3.1-1.4.3-1.5.5-.6.9.4.6.9.4 1-.3 2.1-1.1 3-1.7.9-.6 1.9-.9 2.4-1.7.4-.7.5-2.1.4-2.9-.1-1.1-.2-2-.2-3.1 0-1-.1-2-.2-2.9-.1-1.1-.1-2-.1-3.2 0-.9.5-2.2.2-3.1 1.4 1.3 2.3 3.7 3.2 5.2.1-.1-.4-.2-.4-.4m21.1-1.6c.1.9.4 1.9.6 2.9 1.4-1.5 2.1-5.2 3.5-6.7 1.2.3-.3 7.9-.2 9.2.1.7 0 1.4.1 2.1 0 .6-.1 1.1-.1 1.8 0 1.1-.6 4.1.1 4.8 1 1.1 3.1-.2 4.3.3-.2-1.7-3.4.9-3.9-1.5-.3-1.5.2-2.3.3-4.7 0-1.7-.3-3.9-.1-5.7.2-2 0-3.4-.7-5.2-1.3.1-1.5.9-1.9 1.7-.4 1-1.2 1.8-1.6 2.7 0-.6-.4-1.1-.7-1.5" opacity=".11"/><path fill="none" stroke="#9DC609" stroke-width="1.825" d="M186.3 76.1c-.1.2-.4.7-.5 1-.2.4-.1.9-.3 1.3"/><path fill="#ACD80B" d="M161.7 81.8c.2 1.7 1.8 2.5 3.3 2.2 1.5-.3 3.9-.3 4.4-2.2-1.2 0-2.8.6-4 .6-1.2 0-2.6-.2-3.7-.6m11.6.2c1.2 1.2 2.8 2 4.5 2 .8 0 1.6-.2 2.2-.6.6-.4 1.6-1.4 1.5-2.1-.3 0-.6.4-1 .6-.3.1-.7.1-1 .2-.7.1-1.4.1-2.1.1-.7 0-1.3-.1-2 0-.6 0-1.3.1-2.1-.2"/><path fill="#677F03" d="M166.5 80.7c0 .3-.3.6-.6.6s-.6-.3-.6-.6.3-.6.6-.6.6.3.6.6z"/><path fill="#8AA007" d="M90.1 89.3s-25 1.8-25.1 2.2c-.1.4 0 1.8 0 1.8l.8.6s-15.6-1.5-19.9-.4c-4.3 1-9.2 2.9-8.3 5.8.6 1.8 3.6 4 5.5 4.3 1.8.3-.1.4 1.1 1.1.9.5.7-.3 1.4.7.6.7 2.1 1.1 3 1.4 1.3.4 2.5.8 3.9 1.1 5.8 1 8.3 1.7 20.7 2.1 12.4.4 23-.9 27.2-1.7 0 0 4.4-.8 8.1-1.7 3.7-.9 5.6-1.6 7.9-2.2 2.3-.6 4-1.3 4.6-1.5.5-.3.6-.1.5-1.2-.1-1.1-4.1-5.1-5.6-6.2-1.5-1.1-10-3-10.5-3.4-.5-.4-2.7-.9-5-1.3-2.2-.4-4.5-.8-5.2-.9-.6-.1-2.2-.2-3.4-.3h-.6"/><path fill="#B1E00A" d="M59.8 94.3s-1.5-.1-2.5 0c-.7.1-1.1.4-1.3.9-.1.2-.2.4-.3.7-.4 1 .3.9 1.6 1.4 1.4.5 1.6-.8 2.6-1.2 1-.4 4.1-1.8 4.1-1.8l.4-2.6-.8-13.8s1.8 3.3 2 4.1c.3.8 1.8 3.3 1.8 3.3l.2-3.2s1.1-1.6.7-2.3c-.5-.7.3-1.1.5-1.7.2-.6 1.2-1.4 1.2-1.4s-7.4-5-8.4-4.3c-1 .7-1.2 6.4-1 9.4.3 3 1.4 7.4 1.4 7.4l-.1 3.1s-1.4 1-1.8 1c-.4 0-3.8.3-4.5 0-.7-.3-1.8-.3-2.2-.3-.4 0-1-.3-1.5-.1-.6.1-1.5 1.2-1.5 1.2l1.9.3s-.4.4.4.7c.8.3 2 0 2 0l5.1-.8z"/><path fill="#0A0A0A" stroke="#0A0A0A" stroke-width="1.782" d="M67.5 100.9c-.8.3-1.4 1-2.2 1.5-.8.5-1.7.8-2.5 1.3-1.8 1.1-3.8 2-5.4 3.2-1.9 1.4-.9 2.8.9 3.6 1 .5 1.4.6 2.4.5.7-.1 1.5-.1 2.1.1.1 1.6-1.2 3.4-.9 5 .2.9 1.3.9 2.1.5.5-.2.6-.8 1-1.2.4-.5.9-.7 1.4-1.2.8-.8 1-1.6 2.2-1.9.9-.2 1.7.6 2 1.5.2.7-.1 1.6-.3 2.3-.2.8-.3 1.7-.6 2.5-.7 2-.8 3.5 1.5 4.3 1.6.5 3.5.4 4.9-.8.7-.6.9-1.6 1.9-1.6.3 0 .9.2 1.2.4.5.4.4 1 .7 1.4 1 1.1 3.8.8 5 .2 1.4-.7 1.9-2.1 2.1-3.6.1-.5.3-1.2.2-1.7-.2-.8-.8-1.2-.8-2-.1-.8.1-1.1.4-1.8.2-.6 0-1.4.2-2 .4-.8 2.8-1.1 3.5-.8-.4.8 0 1.4.9 1.2 0 .4-.5 1.5-.7 1.8-.2.3-.8.3-.9.7-.1.5.5.6.6 1 .3.9-.2 1.2.9 1.7.4.2 1.4.6 1.9.5 1.1-.1 1.1-2.4 1.2-3.3.2-1 1-2.8.6-3.9-.1-.3-.5-.4-.6-.7-.1-.3 0-.7 0-1-.1-.5-.9-1.6-.8-2 0-.1.8-.5 1-.6.2-.2.3-.7.4-1 .2-.6.4-1.3.3-2-.1-1.3-.2-2.6-.4-3.8-.2-1.7-1.7-1.6-3.1-1.7.3 1.3-.2 3-.1 4.3.1.6.6 4.9-.7 4-.3-.2-.5-1.8-.5-2.2 0-.9.4-1.5.3-2.3-.1-.8-.4-1.4-.8-2.1-.3-.5-.5-.6-.9-1-.2-.1-.7-.8-.9-.9-1.2-.4-3 3.7-3.6.9-.1-.4.3-.5.1-.9-.1-.1-1-.3-1.2-.3-.8-.1-1.7.1-2.5.2-1.6.1-2.5-.2-4.1-.1-.8 0-4.7-.6-5.1-1.1-.1.8 1.3 3-1.5 3.5-.5.1-.7-.6-1.3-.4-.4.2-.8 1-1 1.4" opacity=".11"/><path fill="#98BE29" d="M81.5 99.9c-.9 1.2-.7 4-.8 5.4-.1 1.3-.8 3.8.1 4.9 2-.7 1.9-5 2.4-6.7.3-1.1.8-2.2.8-3.3 0-.9-.1-1-.8-1.1-.8 0-1.4.1-1.7.8m14.2 1.5c.8.5 1.8 1.2 2.2 2 .5.8.7 1.7 1.3 2.4.3.4.8.7 1.1 1 .2.2.6.9.8.9.3.1 1.9-.4 2.3-.6-.3-.8-1.1-1-1.6-1.6-.5-.7-.8-1.5-1.3-2.2-.5-.7-1.1-1.5-1.8-2.1-.7-.5-1.5-.8-2.2-1.3-.6-.4-1.3-1.7-1.9-1.9-.8-.3-1.5.7-1.5 1.3.1 1.4 2.2 3.2 3.5 3.1m1.4-4.3c1.3.2 3 .5 4.2.9 1.4.5 2.8.6 4.2 1 1.8.5 3.3 1.4 5.1 2.1 1.1.4 3.2 1.2 3.6 2.3-.6.7-1.4 1-2.1.5-.8-.6-1.3-1.4-2.2-1.9-1.7-.9-3.6-1.7-5.4-2.4-1.6-.6-3.1-1.4-4.7-1.9-1.4-.4-3.7.3-4.5-1.1.5-.3 1.5.6 2.2.5m19.7.2c-1.2.1-2.6-.6-3.9-.5-1.4 0-2.8-.1-4.1-.2-2.1-.1-4.2.5-6.3.4-1.4-.1-3.5.1-4.8-.7.7-.6 1.1-.5 1.9-.4.4.1.6.2 1 .2s1-.1 1.4-.2c1.6-.1 3.1.1 4.7-.1s3.2-.2 4.8-.1c1.1.1 2.2.4 3.3.4.4 0 1-.2 1.3-.1.3.2.8 1.3.7 1.3zm-58.9-.7c-.6 0-1.4 1-1.9 1.3-.7.4-1.3.8-2 1.2-1.4.9-3 1.6-4.5 2.4-1.2.6-2.9.5-3.9 1.4-.9.8-.4 1.1-1.6.7-.5-.2-2-.3-1.3-1.2.4-.5 1.4-.2 1.9-.3.8-.1 1.3-.4 2-.9 1.3-.9 2.7-1.5 4.1-2 1.5-.5 2.8-1.3 4.2-1.9.3-.1.7-.2 1-.4.3-.2.5-.6.8-.8 1.1-.5 1 .6.4 1.2"/><path fill="#BEEF0C" d="M88.5 87.7s-.2-3.8-.5-5.2c-.3-1.4-8.4-4.3-10.5-4.5-2.1-.1-9 1.3-9.6 1.9-.6.6-1 4.8-.9 5.5.1.6.2 2.8.2 2.8h10.3c1.3 0 6.1.9 6.6 1.1.5.3 4.4-1.6 4.4-1.6z"/><path fill="#BBE50A" d="M67.2 89c.1-.4-.9-2.8 7.4-2.7 8.3.1 11.1-.3 12 .6.9.9 1.8 1.9 1.4 3.6-.4 1.7-1.6 4.9-2.8 5.2-1.1.4-3.1 1.2-6.4 1.4-2 .1-6.6 0-8.3-1.4-.8-.7-2.3-1.8-2.6-2.5-.2-.8-.4-2.3-.6-2.8-.4-.6-.1-1.4-.1-1.4z"/><path fill="#AFDD07" d="M52.5 93.6c0 .5-.6 1-1.4 1-.8 0-1.4-.4-1.4-1 0-.5.6-1 1.4-1 .8.1 1.4.5 1.4 1zm2.8 1c0 .5-.6 1-1.4 1-.8 0-1.4-.4-1.4-1 0-.5.6-1 1.4-1 .8 0 1.4.5 1.4 1z"/><path fill="#AFDD07" d="M58.5 95.7c0 .8-.8 1.5-1.9 1.5-1 0-1.8-.7-1.8-1.5s.8-1.5 1.8-1.5 1.9.7 1.9 1.5z"/><path fill="#B1E00A" d="M67.1 88s-1.9.1-1.7 2.3c.2 2.1.8 3.5 1.2 3.9.4.5 1.1 1.4 1.1 1.4s-.5.6-.6.5c-.1-.1-3.3.5-3.8.5s-1.9.5-2.3.6c-.5.2-.9.4-.8.8.1.3.9.4 1.7.4.7 0 1.7-.5 1.7-.5l1.1-.3s.1.2-.1.5-.9.7-.3.9c.7.3 2.4 0 2.4 0l.4-.9s.9-.8 1.2-.5c.3.3 1 1.3.9 1.5-.1.2.6.8 1.3.4.7-.4 1.6-.7 1-1.3-.6-.6-2.2-1.7-2.3-1.9-.1-.2-.2-1.7-.2-1.7s-1.4-2.7-1.5-3.2c-.1-.5-.3-2.4-.3-2.4l-.1-1zm19.3 6.6v1.7l-.8.9s-1.3.6-1.4 1.1c-.1.5.8 1.5 1.1 1.3.3-.2.8-.6 1.1-.7.3-.2.6-.9.6-.9s.8-.5 1-.3c.2.2-.1.9.5 1.1.7.3 1.1.3 1.8.1.7-.2 1.3-.3 1.3-.7 0-.5-.6-.9-.6-.9s.8.6 1.3.7c.5.1 1.2.3 1.6.1.4-.2 1.3-.3 1.1-.8-.2-.5-.8-1.1-1.4-1.3-.6-.2-2.5-.3-2.7-.4-.3-.1-1.5-.1-1.8-.1-.3-.1-.9.5-1.1 0-.2-.5.4-.5.5-1 .1-.5.8-1.4 1.1-1.9.3-.6.8-2.7.4-3s-1.5-1.8-1.5-2c-.1-.2-1.1.3-1.1.3s.6 2 .4 2.5c-.1.4-1.2 2.9-1.2 2.9l-.2 1.3z"/><path fill="#B1E00A" d="M86.8 77.2s5.4-4.8 6.8-4.1c1.4.7 2 6 1.4 9-.6 3-1.6 9.9-1.2 10.5.4.7 1.6 2.1 3 1.9 1.3-.1 3.6-.4 3.6-.4s2.1-.2 2.6-.6c.5-.4 1.4-.5 1.6 0 .2.5.9.2.6 1-.3.8-.2 1.4-.8 1.1-.6-.2-1.3-.7-1.3-.7s.3.4.3.8-.3.9-.9 1c-.6.2-1.4.2-1.8 0-.4-.2-.4-1.1-.4-1.1h-1s0 .2.1.6c.1.5.2 1-.4 1-.5 0-1.3 0-1.9-.2-.6-.2-.7-.7-.7-.7l-1.9.2-2.9-.9.2-16.5s-3.1 5.9-3.7 6c-.6.1-.4-2.4-.5-3-.1-.6.4-1.1.4-1.1s-.3-1.1-.4-1.7c-.2-.6-.8-2.1-.8-2.1z"/><path fill="#FCFCFC" d="M76.4 80.1s-.7 1.5-1.2 1.6c-.4.1-3.3-.2-3.7 0-.4.2-2.2.7-2.5 0-.3-.7-1.1-1.3-1.1-1.3V80s3.4-.2 4.1-.3c.7 0 2.8.3 3.4 0 .6-.1 1 .4 1 .4z"/><path fill="#ACD80B" d="M75.3 81.8s-2.3 1.3-3.2 1.9c-.8.6-1.8.5-2.2.4-.4-.1-1.9-2-1.9-2V81s1.1-.8 1.1 0 1.1 1.2 1.8 1c.7-.2 2.7-.3 2.7-.3l1.7.1zm5-.1l6.6-.7 1.1.2s-.5.7-.5 1c-.1.2-1.3 1.6-1.3 1.6s-1.2.6-2.3.5c-1.2-.1-4.7-2.5-4.7-2.5"/><path fill="#FCFCFC" d="M67.9 79.9s.1 1.6.1 1.8c0 .1 2.4.8 3.9.7 1.5-.1 2.7 0 2.7 0s1.6-.6 1.8-1.8c.1-.4-.5-1.3-.5-1.3S71 79 70.5 79c-.4 0-2 .3-2.3.2-.3-.1-.3.5-.3.5"/><path fill="#ACD80B" d="M67.8 79.6s1.4-4.3 4.7-4.2c3.2.2 4 2.4 4 3v1.1l-8.5.6-.2-.5z"/><path fill="#FCFCFC" d="M87.5 80.1s.6 1.1-.2 1.5c-.8.3-2.4.2-3.1.3-.7.1-3.1.2-3.3.2-.2 0-1.4-.1-1.7-.4-.3-.4-.4-.7-.4-1.1 0-.4 2-1.7 2.8-1.5.8.2 3-.1 3.6 0 .4 0 2.3 1 2.3 1z"/><path fill="#ACD80B" d="M78.8 80.4s0-2.2.8-3.1c.8-.9 2.3-1.9 3.8-1.6 1.5.3 3.4 1.4 3.6 1.9l1 2-9.2.8z"/><path fill="#677F03" d="M84.1 81c0 .3-.3.6-.6.6s-.6-.3-.6-.6.3-.6.6-.6c.4 0 .6.2.6.6z"/><path fill="#9DC105" d="M66.9 78.1c0 .5-.4.9-.9.9s-.9-.4-.9-.9.4-.9.9-.9c.6.1.9.5.9.9zm-.6-2c0 .3-.2.5-.4.5s-.4-.2-.4-.5c0-.2.2-.4.4-.4.2-.1.4.1.4.4zm1.3.4c0 .2-.2.4-.4.4s-.4-.2-.4-.4.2-.5.4-.5c.2.1.4.3.4.5z"/><path fill="none" stroke="#9DC609" stroke-width="1.825" d="M63.5 78c.1-.7 0-1.6-.3-2.2m-7.5 18.7c.9-1 3 .2 4.2-.2m-6.1-.5c.6-.8 1.7 0 2.5 0M99 95.5c-.4-1.3-3-.8-3.1.6m4.9-1.7c.7 0 1.8-.3 2.3.3"/><path fill="#0A0A0A" stroke="#0A0A0A" stroke-width="1.782" d="M66.8 83.4c.2-1.1-1.8-6.1-3.1-5.9-1.7.2-.5 4.8-.5 5.8 0 2 .5 4 .4 6.1-.2 2.1.4 4.5-1.6 5.9-.8.6-2 .9-3 1.2-.3.1-1.4.3-1.5.5-.6.9.4.6.9.4 1-.3 2.1-1.1 3-1.7.9-.6 1.9-.9 2.4-1.7.4-.7.5-2.1.4-2.9-.1-1.1-.2-2.1-.2-3.2 0-1-.1-2-.2-2.9-.1-1.1-.1-2-.1-3.2 0-.9.5-2.2.2-3.1 1.4 1.3 2.3 3.7 3.2 5.2.1-.1-.4-.2-.4-.4M87.8 82c.1.9.4 1.9.6 2.9 1.4-1.5 2.1-5.2 3.5-6.7 1.2.3-.3 7.9-.2 9.2.1.7 0 1.4.1 2.1 0 .6-.1 1.1-.1 1.8 0 1.1-.6 4.1.1 4.8 1 1.1 3.1-.2 4.3.3-.2-1.7-3.4.9-3.9-1.5-.3-1.5.2-2.3.3-4.7 0-1.7-.3-3.9-.1-5.7.2-2 0-3.4-.7-5.2-1.3.1-1.5.9-1.9 1.7-.4 1-1.2 1.8-1.6 2.7 0-.6-.4-1.1-.7-1.5" opacity=".11"/><path fill="none" stroke="#9DC609" stroke-width="1.825" d="M92.6 76.1c-.1.2-.4.7-.5 1-.2.4-.1.9-.3 1.3"/><path fill="#ACD80B" d="M68 81.8c.2 1.7 1.8 2.5 3.3 2.2 1.5-.3 3.9-.3 4.4-2.2-1.2 0-2.8.6-4 .6-1.3 0-2.6-.2-3.7-.6m11.6.2c1.2 1.2 2.8 2 4.5 2 .8 0 1.6-.2 2.2-.6.6-.4 1.6-1.4 1.5-2.1-.3 0-.6.4-1 .6-.3.1-.7.1-1 .2-.7.1-1.4.1-2.1.1-.7 0-1.3-.1-2 0-.6 0-1.4.1-2.1-.2"/><path fill="#677F03" d="M72.8 80.7c0 .3-.3.6-.6.6s-.6-.3-.6-.6.3-.6.6-.6.6.3.6.6z"/><path fill="#8AA007" d="M185 23.2s-25 1.8-25.1 2.2c-.1.4 0 1.8 0 1.8l.8.6s-15.6-1.5-19.9-.4c-4.3 1-9.2 2.9-8.3 5.8.6 1.8 3.6 4 5.5 4.3 1.7.3-.1.4 1.1 1.1.9.5.7-.3 1.4.7.6.7 2.1 1.1 3 1.4 1.3.4 2.5.8 3.9 1.1 5.8 1 8.3 1.7 20.7 2.1 12.4.4 23-.9 27.2-1.7 0 0 4.4-.8 8.1-1.7 3.7-.9 5.6-1.6 7.9-2.2 2.3-.6 4-1.3 4.6-1.5.5-.3.6-.1.5-1.2-.1-1.1-4.1-5.1-5.6-6.2-1.5-1.1-10-3-10.5-3.4-.5-.4-2.7-.9-5-1.3-2.2-.4-4.5-.8-5.2-.9-.6-.1-2.2-.2-3.4-.3h-.6"/><path fill="#B1E00A" d="M154.7 28.2s-1.5-.1-2.5 0c-.7.1-1.1.4-1.3.9l-.3.6c-.4 1 .3.9 1.6 1.4 1.4.5 1.6-.8 2.6-1.2 1-.4 4.1-1.8 4.1-1.8l.4-2.6-.8-13.8s1.8 3.3 2 4.1c.3.8 1.8 3.3 1.8 3.3l.2-3.2s1.1-1.6.7-2.3c-.5-.7.3-1.1.5-1.7.2-.6 1.2-1.4 1.2-1.4s-7.4-5-8.4-4.3c-1 .7-1.2 6.4-1 9.4.3 3 1.4 7.4 1.4 7.4l-.1 3.1s-1.4 1-1.8 1c-.4 0-3.8.3-4.5 0-.7-.3-1.8-.3-2.2-.3-.4 0-1-.3-1.5-.1-.6.1-1.5 1.2-1.5 1.2l1.9.3s-.4.4.4.7c.8.3 2 0 2 0l5.1-.7z"/><path fill="#0A0A0A" stroke="#0A0A0A" stroke-width="1.782" d="M162.4 34.8c-.8.3-1.4 1-2.2 1.5-.8.5-1.7.8-2.5 1.3-1.8 1.1-3.8 2-5.4 3.2-1.9 1.4-.9 2.8.9 3.6 1 .5 1.4.6 2.4.5.7-.1 1.5-.1 2.1.1.1 1.6-1.2 3.4-.9 5 .2.9 1.3.9 2.1.5.5-.2.6-.8 1-1.2.4-.5.9-.7 1.4-1.2.8-.8 1-1.6 2.2-1.9.9-.2 1.7.6 2 1.5.2.7-.1 1.6-.3 2.3-.2.8-.3 1.7-.6 2.5-.7 2-.8 3.5 1.5 4.3 1.6.5 3.5.4 4.9-.8.7-.6.9-1.6 1.9-1.6.3 0 .9.2 1.2.4.5.4.4 1 .7 1.4 1 1.1 3.8.8 5 .2 1.4-.7 1.9-2.1 2.1-3.6.1-.5.3-1.2.2-1.7-.2-.8-.8-1.2-.8-2-.1-.8.1-1.1.4-1.8.2-.6 0-1.4.2-2 .4-.8 2.8-1.1 3.5-.8-.4.8 0 1.4.9 1.2 0 .4-.5 1.5-.7 1.8-.2.3-.8.3-.9.7-.1.5.5.6.6 1 .3.9-.2 1.2.9 1.7.4.2 1.4.6 1.9.5 1.1-.1 1.1-2.4 1.2-3.3.2-1 1-2.8.6-3.9-.1-.3-.5-.4-.6-.7-.1-.3 0-.7 0-1-.1-.5-.9-1.6-.8-2 0-.1.8-.5 1-.6.2-.2.3-.7.4-1 .2-.6.4-1.3.3-2-.1-1.3-.2-2.6-.4-3.8-.2-1.7-1.7-1.6-3.1-1.7.3 1.3-.2 3-.1 4.3.1.6.6 4.9-.7 4-.3-.2-.5-1.8-.5-2.2 0-.9.4-1.5.3-2.3-.1-.8-.4-1.4-.8-2.1-.3-.5-.5-.6-.9-1-.2-.1-.7-.8-.9-.9-1.2-.4-3 3.7-3.6.9-.1-.4.3-.5.1-.9-.1-.1-1-.3-1.2-.3-.8-.1-1.7.1-2.5.2-1.6.1-2.5-.2-4.1-.1-.8 0-4.7-.6-5.1-1.1-.1.8 1.3 3-1.5 3.4-.5.1-.7-.6-1.3-.4-.4.2-.8 1-1 1.4" opacity=".11"/><path fill="#98BE29" d="M176.3 33.8c-.9 1.2-.7 4-.8 5.4-.1 1.3-.8 3.8.1 4.9 2-.7 1.9-5 2.4-6.7.3-1.1.8-2.2.8-3.3 0-.9-.1-1-.8-1.1-.7 0-1.3.1-1.7.8m14.3 1.5c.8.5 1.8 1.2 2.2 2 .5.8.7 1.7 1.3 2.4.3.4.8.7 1.1 1 .2.2.6.9.8.9.3.1 1.9-.4 2.3-.6-.3-.8-1.1-1-1.6-1.6-.5-.7-.8-1.5-1.3-2.2-.5-.7-1.1-1.5-1.8-2.1-.7-.5-1.5-.8-2.2-1.3-.6-.4-1.3-1.7-1.9-1.9-.8-.3-1.5.7-1.5 1.3.1 1.4 2.2 3.2 3.5 3.1m1.4-4.3c1.3.2 3 .5 4.2.9 1.4.5 2.8.6 4.2 1 1.8.5 3.3 1.4 5.1 2.1 1.1.4 3.2 1.2 3.6 2.3-.6.7-1.4 1-2.1.5-.8-.6-1.3-1.4-2.2-1.9-1.7-.9-3.6-1.7-5.4-2.4-1.6-.6-3.1-1.4-4.7-1.9-1.4-.4-3.7.3-4.5-1.1.5-.3 1.5.6 2.2.5m19.7.2c-1.2.1-2.6-.6-3.9-.5-1.4 0-2.8-.1-4.1-.2-2.1-.1-4.2.5-6.3.4-1.4-.1-3.5.1-4.8-.7.7-.6 1.1-.5 1.9-.4.4.1.6.2 1 .2s1-.1 1.4-.2c1.6-.1 3.1.1 4.7-.1s3.2-.2 4.8-.1c1.1.1 2.2.4 3.3.4.4 0 1-.2 1.3-.1.3.2.8 1.3.7 1.3zm-58.9-.7c-.6 0-1.4 1-1.9 1.3-.7.4-1.3.8-2 1.2-1.4.9-3 1.6-4.5 2.4-1.2.6-2.9.5-3.9 1.4-.9.8-.4 1.1-1.6.7-.5-.2-2-.3-1.3-1.2.4-.5 1.4-.2 1.9-.3.8-.1 1.3-.4 2-.9 1.3-.9 2.7-1.5 4.1-2 1.5-.5 2.8-1.3 4.2-1.9.3-.1.7-.2 1-.4.3-.2.5-.6.8-.8 1.1-.5 1 .6.4 1.2"/><path fill="#BEEF0C" d="M183.4 21.6s-.2-3.8-.5-5.2c-.3-1.4-8.4-4.3-10.5-4.5-2.1-.1-9 1.3-9.6 1.9-.6.6-1 4.8-.9 5.5.1.6.2 2.8.2 2.8h10.3c1.3 0 6.1.9 6.6 1.1.5.3 4.4-1.6 4.4-1.6z"/><path fill="#BBE50A" d="M162.1 22.9c.1-.4-.9-2.8 7.4-2.7 8.3.1 11.1-.3 12 .6.9.9 1.8 1.9 1.4 3.6-.4 1.7-1.6 4.9-2.8 5.2-1.1.4-3.1 1.2-6.4 1.4-2 .1-6.6 0-8.3-1.4-.8-.7-2.3-1.8-2.6-2.5-.2-.8-.4-2.3-.6-2.8-.4-.6-.1-1.4-.1-1.4z"/><path fill="#AFDD07" d="M147.4 27.5c0 .5-.6 1-1.4 1-.8 0-1.4-.4-1.4-1 0-.5.6-1 1.4-1 .8.1 1.4.5 1.4 1zm2.8 1c0 .5-.6 1-1.4 1-.8 0-1.4-.4-1.4-1 0-.5.6-1 1.4-1 .8 0 1.4.5 1.4 1z"/><path fill="#AFDD07" d="M153.3 29.6c0 .8-.8 1.5-1.9 1.5-1 0-1.8-.7-1.8-1.5s.8-1.5 1.8-1.5c1.1 0 1.9.7 1.9 1.5z"/><path fill="#B1E00A" d="M161.9 21.9s-1.9.1-1.7 2.3c.2 2.1.8 3.5 1.2 3.9.4.5 1.1 1.4 1.1 1.4s-.5.6-.6.5c-.1-.1-3.3.5-3.8.5s-1.9.5-2.3.6c-.5.2-.9.4-.8.8.1.3.9.4 1.7.4.7 0 1.7-.5 1.7-.5l1.1-.3s.1.2-.1.5-.9.7-.3.9c.7.3 2.4 0 2.4 0l.4-.9s.9-.8 1.2-.5c.3.3 1 1.3.9 1.5-.1.2.6.8 1.3.4.7-.4 1.6-.7 1-1.3-.6-.6-2.2-1.7-2.3-1.9-.1-.2-.2-1.7-.2-1.7s-1.4-2.7-1.5-3.2c-.1-.5-.3-2.4-.3-2.4l-.1-1zm19.4 6.6v1.7l-.8.9s-1.3.6-1.4 1.1c-.1.5.8 1.5 1.1 1.3.3-.2.8-.6 1.1-.7.3-.1.6-.9.6-.9s.8-.5 1-.3c.2.2-.1.9.5 1.1.7.3 1.1.3 1.8.1.7-.2 1.3-.3 1.3-.7 0-.5-.6-.9-.6-.9s.8.6 1.3.7c.5.1 1.2.3 1.6.1.4-.2 1.3-.3 1.1-.8-.2-.5-.8-1.1-1.4-1.3-.6-.2-2.5-.3-2.7-.4-.3-.1-1.5-.1-1.8-.1-.3-.1-.9.5-1.1 0-.2-.5.4-.5.5-1 .1-.5.8-1.4 1.1-1.9.3-.6.8-2.7.4-3-.4-.3-1.5-1.8-1.5-2-.1-.2-1.1.3-1.1.3s.6 2 .4 2.5c-.1.4-1.2 2.9-1.2 2.9l-.2 1.3z"/><path fill="#B1E00A" d="M181.7 11.1s5.4-4.8 6.8-4.1c1.4.7 2 6 1.4 9-.6 3-1.6 9.9-1.2 10.5.4.7 1.6 2.1 3 1.9 1.3-.1 3.6-.4 3.6-.4s2.1-.2 2.6-.6c.5-.4 1.4-.5 1.6 0 .2.5.9.2.6 1-.3.8-.2 1.4-.8 1.1-.6-.2-1.3-.7-1.3-.7s.3.4.3.8-.3.9-.9 1c-.6.2-1.4.2-1.8 0-.4-.2-.4-1.1-.4-1.1h-1s0 .2.1.6c.1.5.2 1-.4 1-.5 0-1.3 0-1.9-.2-.6-.2-.7-.7-.7-.7l-1.9.2-2.9-.9.2-16.5s-3.1 5.9-3.7 6c-.6.1-.4-2.4-.5-3-.1-.6.4-1.1.4-1.1s-.3-1.1-.4-1.7c-.2-.6-.8-2.1-.8-2.1z"/><path fill="#FCFCFC" d="M171.3 14s-.7 1.5-1.2 1.6c-.4.1-3.3-.2-3.7 0-.4.2-2.2.7-2.5 0-.3-.6-1.1-1.3-1.1-1.3v-.4s3.4-.2 4.1-.3c.7 0 2.8.3 3.4 0 .6-.1 1 .4 1 .4z"/><path fill="#ACD80B" d="M170.2 15.7s-2.3 1.3-3.2 1.9c-.8.6-1.8.5-2.2.4-.4-.1-1.9-2-1.9-2v-1.2s1.1-.8 1.1 0 1.1 1.2 1.8 1c.7-.2 2.7-.3 2.7-.3l1.7.2zm5-.1l6.6-.7 1.1.2s-.5.7-.5 1c-.1.2-1.3 1.6-1.3 1.6s-1.2.6-2.3.5c-1.2-.1-4.7-2.5-4.7-2.5"/><path fill="#FCFCFC" d="M162.8 13.8s.1 1.6.1 1.8c0 .1 2.4.8 3.9.7 1.5-.1 2.7 0 2.7 0s1.6-.6 1.8-1.8c.1-.4-.5-1.3-.5-1.3s-4.9-.2-5.4-.2c-.4 0-2 .3-2.3.2-.3-.1-.3.5-.3.5"/><path fill="#ACD80B" d="M162.6 13.5s1.4-4.3 4.7-4.2 4 2.4 4 3v1.1l-8.4.6-.3-.5z"/><path fill="#FCFCFC" d="M182.3 14s.6 1.1-.2 1.5c-.8.3-2.4.2-3.1.3-.7.1-3.1.2-3.3.2-.2 0-1.4-.1-1.7-.4-.3-.4-.4-.7-.4-1.1 0-.4 2-1.7 2.8-1.5.8.2 3-.1 3.6 0 .5 0 2.3 1 2.3 1z"/><path fill="#ACD80B" d="M173.7 14.3s0-2.2.8-3.1c.8-.9 2.3-1.9 3.8-1.6 1.5.3 3.4 1.4 3.6 1.9l1 2-9.2.8z"/><path fill="#677F03" d="M179 14.9c0 .3-.3.6-.6.6s-.6-.3-.6-.6.3-.6.6-.6.6.2.6.6z"/><path fill="#9DC105" d="M161.8 12c0 .5-.4.9-.9.9s-.9-.4-.9-.9.4-.9.9-.9c.5.1.9.5.9.9zm-.7-2c0 .3-.2.5-.4.5s-.4-.2-.4-.5c0-.2.2-.4.4-.4.2-.1.4.1.4.4zm1.4.4c0 .2-.2.4-.4.4s-.4-.2-.4-.4.2-.5.4-.5c.2.1.4.3.4.5z"/><path fill="none" stroke="#9DC609" stroke-width="1.825" d="M158.4 11.9c.1-.7 0-1.6-.3-2.2m-7.5 18.7c.9-1 3 .2 4.2-.2m-6.1-.5c.6-.8 1.7 0 2.5 0m42.7 1.7c-.4-1.3-3-.8-3.1.6m4.9-1.7c.7 0 1.8-.3 2.3.3"/><path fill="#0A0A0A" stroke="#0A0A0A" stroke-width="1.782" d="M161.7 17.3c.2-1.1-1.8-6.1-3.1-5.9-1.7.2-.5 4.8-.5 5.8 0 2 .5 4 .4 6.1-.2 2.1.4 4.5-1.6 5.9-.8.6-2 .9-3 1.2-.3.1-1.4.3-1.5.5-.6.9.4.6.9.4 1-.3 2.1-1.1 3-1.7.9-.6 1.9-.9 2.4-1.7.4-.7.5-2.1.4-2.9-.1-1.1-.2-2-.2-3.1 0-1-.1-2-.2-2.9-.1-1.1-.1-2-.1-3.2 0-.9.5-2.2.2-3.1 1.4 1.3 2.3 3.7 3.2 5.2.1-.1-.4-.2-.4-.4m21.1-1.6c.1.9.4 1.9.6 2.9 1.4-1.5 2.1-5.2 3.5-6.7 1.2.3-.3 7.9-.2 9.2.1.7 0 1.4.1 2.1 0 .6-.1 1.1-.1 1.8 0 1.1-.6 4.1.1 4.8 1 1.1 3.1-.2 4.3.3-.2-1.7-3.4.9-3.9-1.5-.3-1.5.2-2.3.3-4.7 0-1.7-.3-3.9-.1-5.7.2-2 0-3.4-.7-5.2-1.3.1-1.5.9-1.9 1.7-.4 1-1.2 1.8-1.6 2.7 0-.6-.4-1.1-.7-1.5" opacity=".11"/><path fill="none" stroke="#9DC609" stroke-width="1.825" d="M187.5 10c-.1.2-.4.7-.5 1-.2.4-.1.9-.3 1.3"/><path fill="#ACD80B" d="M162.9 15.7c.2 1.7 1.8 2.5 3.3 2.2 1.5-.3 3.9-.3 4.4-2.2-1.2 0-2.8.6-4 .6-1.3 0-2.6-.2-3.7-.6m11.6.2c1.2 1.2 2.8 2 4.5 2 .8 0 1.6-.2 2.2-.6.6-.4 1.6-1.4 1.5-2.1-.3 0-.6.4-1 .6-.3.1-.7.1-1 .2-.7.1-1.4.1-2.1.1-.7 0-1.3-.1-2 0-.6 0-1.4.1-2.1-.2"/><path fill="#677F03" d="M167.7 14.6c0 .3-.3.6-.6.6s-.6-.3-.6-.6.3-.6.6-.6.6.3.6.6z"/><path fill="#8AA007" d="M91.2 23.2s-25 1.8-25.1 2.2c-.1.4 0 1.8 0 1.8l.8.6s-15.6-1.5-19.9-.4c-4.3 1-9.2 2.9-8.3 5.8.6 1.8 3.6 4 5.5 4.3 1.8.3-.1.4 1.1 1.1.9.5.7-.3 1.4.7.6.7 2.1 1.1 3 1.4 1.3.4 2.5.8 3.9 1.1 5.8 1 8.3 1.7 20.7 2.1 12.4.4 23-.9 27.2-1.7 0 0 4.4-.8 8.1-1.7 3.7-.9 5.6-1.6 7.9-2.2 2.3-.6 4-1.3 4.6-1.5.5-.3.6-.1.5-1.2-.1-1.1-4.1-5.1-5.6-6.2-1.5-1.1-10-3-10.5-3.4-.5-.4-2.7-.9-5-1.3-2.2-.4-4.5-.8-5.2-.9-.6-.1-2.2-.2-3.4-.3h-.6"/><path fill="#B1E00A" d="M61 28.2s-1.5-.1-2.5 0c-.7.1-1.1.4-1.3.9-.1.2-.2.4-.3.7-.4 1 .3.9 1.6 1.4 1.4.5 1.6-.8 2.6-1.2 1-.4 4.1-1.8 4.1-1.8l.4-2.6-.8-13.8s1.8 3.3 2 4.1c.3.8 1.8 3.3 1.8 3.3l.2-3.2s1.1-1.6.7-2.3c-.4-.7.3-1 .5-1.7.2-.6 1.2-1.4 1.2-1.4s-7.4-5-8.4-4.3c-1 .7-1.2 6.4-1 9.4.3 3 1.4 7.4 1.4 7.4l-.1 3.1s-1.4 1-1.8 1c-.4 0-3.8.3-4.5 0-.7-.2-1.8-.2-2.2-.2-.4 0-1-.3-1.5-.1-.6.1-1.5 1.2-1.5 1.2l1.9.3s-.4.4.4.7c.8.3 2 0 2 0l5.1-.9z"/><path fill="#0A0A0A" stroke="#0A0A0A" stroke-width="1.782" d="M68.7 34.8c-.8.3-1.4 1-2.2 1.5-.8.5-1.7.8-2.5 1.3-1.8 1.1-3.8 2-5.4 3.2-1.9 1.4-.9 2.8.9 3.6 1 .5 1.4.6 2.4.5.7-.1 1.5-.1 2.1.1.1 1.6-1.2 3.4-.9 5 .2.9 1.3.9 2.1.5.5-.2.6-.8 1-1.2.4-.5.9-.7 1.4-1.2.8-.8 1-1.6 2.2-1.9.9-.2 1.7.6 2 1.5.2.7-.1 1.6-.3 2.3-.2.8-.3 1.7-.6 2.5-.7 2-.8 3.5 1.5 4.3 1.6.5 3.5.4 4.9-.8.7-.6.9-1.6 1.9-1.6.3 0 .9.2 1.2.4.5.4.4 1 .7 1.4 1 1.1 3.8.8 5 .2 1.4-.7 1.9-2.1 2.1-3.6.1-.5.3-1.2.2-1.7-.2-.8-.8-1.2-.8-2-.1-.8.1-1.1.4-1.8.2-.6 0-1.4.2-2 .4-.8 2.8-1.1 3.5-.8-.4.8 0 1.4.9 1.2 0 .4-.5 1.5-.7 1.8-.4.5-.9.5-1 .9-.1.5.5.6.6 1 .3.9-.2 1.2.9 1.7.4.2 1.4.6 1.9.5 1.1-.1 1.1-2.4 1.2-3.3.2-1 1-2.8.6-3.9-.1-.3-.5-.4-.6-.7-.1-.3 0-.7 0-1-.1-.5-.9-1.6-.8-2 0-.1.8-.5 1-.6.2-.2.3-.7.4-1 .2-.6.4-1.3.3-2-.1-1.3-.2-2.6-.4-3.8-.2-1.7-1.7-1.6-3.1-1.7.3 1.3-.2 3-.1 4.3.1.6.6 4.9-.7 4-.3-.2-.5-1.8-.5-2.2 0-.9.4-1.5.3-2.3-.1-.8-.4-1.4-.8-2.1-.3-.5-.5-.6-.9-1-.2-.1-.7-.8-.9-.9-1.2-.4-3 3.7-3.6.9-.1-.4.3-.5.1-.9-.1-.1-1-.3-1.2-.3-.8-.1-1.7.1-2.5.2-1.6.1-2.5-.2-4.1-.1-.8 0-4.7-.6-5.1-1.1-.1.8 1.3 3-1.5 3.5-.5.1-.7-.6-1.3-.4-.4.2-.8 1-1 1.4" opacity=".11"/><path fill="#98BE29" d="M82.6 33.8c-.9 1.2-.7 4-.8 5.4-.1 1.3-.8 3.8.1 4.9 2-.7 1.9-5 2.4-6.7.3-1.1.8-2.2.8-3.3 0-.9-.1-1-.8-1.1-.7 0-1.3.1-1.7.8m14.3 1.5c.8.5 1.8 1.2 2.2 2 .5.8.7 1.7 1.3 2.4.3.4.8.7 1.1 1 .2.2.6.9.8.9.3.1 1.9-.4 2.3-.6-.3-.8-1.1-1-1.6-1.6-.5-.7-.8-1.5-1.3-2.2-.5-.7-1.1-1.5-1.8-2.1-.7-.5-1.5-.8-2.2-1.3-.6-.4-1.3-1.7-1.9-1.9-.8-.3-1.5.7-1.5 1.3.1 1.4 2.2 3.2 3.5 3.1m1.4-4.3c1.3.2 3 .5 4.2.9 1.4.5 2.8.6 4.2 1 1.8.5 3.3 1.4 5.1 2.1 1.1.4 3.2 1.2 3.6 2.3-.6.7-1.4 1-2.1.5-.8-.6-1.3-1.4-2.2-1.9-1.7-.9-3.6-1.7-5.4-2.4-1.6-.6-3.1-1.4-4.7-1.9-1.4-.4-3.7.3-4.5-1.1.5-.3 1.5.6 2.2.5m19.7.2c-1.2.1-2.6-.6-3.9-.5-1.4 0-2.8-.1-4.1-.2-2.1-.1-4.2.5-6.3.4-1.4-.1-3.5.1-4.8-.7.7-.6 1.1-.5 1.9-.4.4.1.6.2 1 .2s1-.1 1.4-.2c1.6-.1 3.1.1 4.7-.1s3.2-.2 4.8-.1c1.1.1 2.2.4 3.3.4.4 0 1-.2 1.3-.1.2.2.7 1.3.7 1.3zm-59-.7c-.6 0-1.4 1-1.9 1.3-.7.4-1.3.8-2 1.2-1.4.9-3 1.6-4.5 2.4-1.1.7-2.9.6-3.9 1.5-.9.8-.4 1.1-1.6.7-.5-.2-2-.3-1.3-1.2.4-.5 1.4-.2 1.9-.3.8-.1 1.3-.4 2-.9 1.3-.9 2.7-1.5 4.1-2 1.5-.5 2.8-1.3 4.2-1.9.3-.1.7-.2 1-.4.3-.2.5-.6.8-.8 1.1-.5 1 .6.4 1.2"/><path fill="#BEEF0C" d="M89.7 21.6s-.2-3.8-.5-5.2c-.3-1.4-8.4-4.3-10.5-4.5-2.1-.1-9 1.3-9.6 1.9-.6.6-1 4.8-.9 5.5.1.6.2 2.8.2 2.8h10.3c1.3 0 6.1.9 6.6 1.1.5.3 4.4-1.6 4.4-1.6z"/><path fill="#BBE50A" d="M68.3 22.9c.1-.4-.9-2.8 7.4-2.7 8.3.1 11.1-.3 12 .6.9.9 1.8 1.9 1.4 3.6-.4 1.7-1.6 4.9-2.8 5.2-1.1.4-3.1 1.2-6.4 1.4-2 .1-6.6 0-8.3-1.4-.8-.7-2.3-1.8-2.6-2.5-.2-.8-.4-2.3-.6-2.8-.3-.6-.1-1.4-.1-1.4z"/><path fill="#AFDD07" d="M53.7 27.5c0 .5-.6 1-1.4 1-.8 0-1.4-.4-1.4-1 0-.5.6-1 1.4-1 .7.1 1.4.5 1.4 1zm2.8 1c0 .5-.6 1-1.4 1-.8 0-1.4-.4-1.4-1s.6-1 1.4-1c.7 0 1.4.5 1.4 1z"/><path fill="#AFDD07" d="M59.6 29.6c0 .8-.8 1.5-1.9 1.5-1 0-1.8-.7-1.8-1.5s.8-1.5 1.8-1.5c1.1 0 1.9.7 1.9 1.5z"/><path fill="#B1E00A" d="M68.2 21.9s-1.9.1-1.7 2.3c.2 2.1.8 3.5 1.2 3.9.4.5 1.1 1.4 1.1 1.4s-.5.6-.6.5c-.1-.1-3.3.5-3.8.5s-1.9.5-2.3.6c-.5.2-.9.4-.8.8.1.3.9.4 1.7.4.7 0 1.7-.5 1.7-.5l1.1-.3s.1.2-.1.5-.9.7-.3.9c.7.3 2.4 0 2.4 0l.4-.9s.9-.8 1.2-.5c.3.3 1 1.3.9 1.5-.1.2.6.8 1.3.4.7-.4 1.6-.7 1-1.3-.6-.6-2.2-1.7-2.3-1.9-.1-.2-.2-1.7-.2-1.7s-1.4-2.7-1.5-3.2c-.1-.5-.3-2.4-.3-2.4l-.1-1zm19.4 6.6v1.7l-.8.9s-1.3.6-1.4 1.1c-.1.5.8 1.5 1.1 1.3.3-.2.8-.6 1.1-.7.3-.1.6-.9.6-.9s.8-.5 1-.3c.2.2-.1.9.5 1.1.7.3 1.1.3 1.8.1.7-.2 1.3-.3 1.3-.7 0-.5-.6-.9-.6-.9s.8.6 1.3.7c.5.1 1.2.3 1.6.1.4-.2 1.3-.3 1.1-.8-.2-.5-.8-1.1-1.4-1.3-.6-.2-2.5-.3-2.7-.4-.3-.1-1.5-.1-1.8-.1-.3-.1-.9.5-1.1 0-.2-.5.4-.5.5-1 .1-.5.8-1.4 1.1-1.9.3-.6.8-2.7.4-3-.4-.3-1.5-1.8-1.5-2-.1-.2-1.1.3-1.1.3s.6 2 .4 2.5c-.1.4-1.2 2.9-1.2 2.9l-.2 1.3z"/><path fill="#B1E00A" d="M88 11.1s5.4-4.8 6.8-4.1c1.4.7 2 6 1.4 9-.6 3-1.6 9.9-1.2 10.5.4.7 1.6 2.1 3 1.9 1.3-.1 3.6-.4 3.6-.4s2.1-.2 2.6-.6c.5-.4 1.4-.5 1.6 0 .2.5.9.2.6 1-.3.8-.2 1.4-.8 1.1-.6-.2-1.3-.7-1.3-.7s.3.4.3.8-.3.9-.9 1c-.6.2-1.4.2-1.8 0-.4-.2-.4-1.1-.4-1.1h-1s0 .2.1.6c.1.5.2 1-.4 1-.5 0-1.3 0-1.9-.2-.6-.2-.7-.7-.7-.7l-1.9.2-2.9-.9L93 13s-3.1 5.9-3.7 6c-.6.1-.4-2.4-.5-3-.1-.6.4-1.1.4-1.1s-.3-1.1-.4-1.7c-.2-.6-.8-2.1-.8-2.1z"/><path fill="#FCFCFC" d="M77.6 14s-.7 1.5-1.2 1.6c-.4.1-3.3-.2-3.7 0-.4.2-2.2.7-2.5 0-.3-.7-1.1-1.3-1.1-1.3v-.4s3.4-.2 4.1-.3c.7 0 2.8.3 3.4 0 .6-.1 1 .4 1 .4z"/><path fill="#ACD80B" d="M76.5 15.7s-2.3 1.3-3.2 1.9c-.8.6-1.8.5-2.2.4-.4-.1-1.9-2-1.9-2v-1.2s1.1-.8 1.1 0 1.1 1.2 1.8 1c.7-.2 2.7-.3 2.7-.3l1.7.2zm5-.1l6.6-.7 1.1.2s-.5.7-.5 1c-.1.2-1.3 1.6-1.3 1.6s-1.2.6-2.3.5c-1.2-.1-4.7-2.5-4.7-2.5"/><path fill="#FCFCFC" d="M69.1 13.8s.1 1.6.1 1.8c0 .1 2.4.8 3.9.7 1.5-.1 2.7 0 2.7 0s1.6-.6 1.8-1.8c.1-.4-.5-1.3-.5-1.3s-4.9-.2-5.4-.2c-.4 0-2 .3-2.3.2-.3-.1-.3.5-.3.5"/><path fill="#ACD80B" d="M68.9 13.5s1.4-4.3 4.7-4.2c3.2.2 4 2.4 4 3v1.1l-8.4.6-.3-.5z"/><path fill="#FCFCFC" d="M88.6 14s.6 1.1-.2 1.5c-.8.3-2.4.2-3.1.3-.7.1-3.1.2-3.3.2-.2 0-1.4-.1-1.7-.4-.3-.4-.4-.7-.4-1.1 0-.4 2-1.7 2.8-1.5.8.2 3-.1 3.6 0 .5 0 2.3 1 2.3 1z"/><path fill="#ACD80B" d="M80 14.3s0-2.2.8-3.1c.8-.9 2.3-1.9 3.8-1.6 1.5.3 3.4 1.4 3.6 1.9l1 2-9.2.8z"/><path fill="#677F03" d="M85.3 14.9c0 .3-.3.6-.6.6s-.6-.3-.6-.6.3-.6.6-.6.6.2.6.6z"/><path fill="#9DC105" d="M68.1 12c0 .5-.4.9-.9.9s-.9-.4-.9-.9.4-.9.9-.9c.5.1.9.5.9.9zm-.7-2c0 .3-.2.5-.4.5s-.4-.2-.4-.5c0-.2.2-.4.4-.4.2-.1.4.1.4.4zm1.4.4c0 .2-.2.4-.4.4s-.4-.2-.4-.4.2-.5.4-.5c.2.1.4.3.4.5z"/><path fill="none" stroke="#9DC609" stroke-width="1.825" d="M64.7 11.9c.1-.7 0-1.6-.3-2.2m-7.5 18.7c.9-1 3 .2 4.2-.2m-6.1-.5c.6-.8 1.7 0 2.5 0m42.7 1.7c-.4-1.3-3-.8-3.1.6m4.8-1.7c.7 0 1.8-.3 2.3.3"/><path fill="#0A0A0A" stroke="#0A0A0A" stroke-width="1.782" d="M67.9 17.3c.2-1.1-1.8-6.1-3.1-5.9-1.7.2-.5 4.8-.5 5.8 0 2 .5 4 .4 6.1-.2 2.1.4 4.5-1.6 5.9-.8.6-2 .9-3 1.2-.3.1-1.4.3-1.5.5-.6.9.4.6.9.4 1-.3 2.1-1.1 3-1.7.9-.6 1.9-.9 2.4-1.7.4-.7.5-2.1.4-2.9-.1-1.1-.2-2-.2-3.1 0-1-.1-2-.2-2.9-.1-1.1-.1-2-.1-3.2 0-.9.5-2.2.2-3.1 1.4 1.3 2.3 3.7 3.2 5.2.1-.1-.4-.2-.4-.4M89 15.9c.1.9.4 1.9.6 2.9 1.4-1.5 2.1-5.2 3.5-6.7 1.2.3-.3 7.9-.2 9.2.1.7 0 1.4.1 2.1 0 .6-.1 1.1-.1 1.8 0 1.1-.6 4.1.1 4.8 1 1.1 3.1-.2 4.3.3-.2-1.7-3.4.9-3.9-1.5-.3-1.5.2-2.3.3-4.7 0-1.7-.3-3.9-.1-5.7.2-2 0-3.4-.7-5.2-1.3.1-1.5.9-1.9 1.7-.4 1-1.2 1.8-1.6 2.7 0-.6-.4-1.1-.7-1.5" opacity=".11"/><path fill="none" stroke="#9DC609" stroke-width="1.825" d="M93.7 10c-.1.2-.4.7-.5 1-.2.4-.1.9-.3 1.3"/><path fill="#ACD80B" d="M69.1 15.7c.2 1.7 1.8 2.5 3.3 2.2 1.5-.3 3.9-.3 4.4-2.2-1.2 0-2.8.6-4 .6-1.2 0-2.5-.2-3.7-.6m11.7.2c1.2 1.2 2.8 2 4.5 2 .8 0 1.6-.2 2.2-.6.6-.4 1.6-1.4 1.5-2.1-.3 0-.6.4-1 .6-.3.1-.7.1-1 .2-.7.1-1.4.1-2.1.1-.7 0-1.3-.1-2 0-.6 0-1.4.1-2.1-.2"/><path fill="#677F03" d="M73.9 14.6c0 .3-.3.6-.6.6s-.6-.3-.6-.6.3-.6.6-.6c.4 0 .6.3.6.6z"/></g></switch></svg>
