<svg xmlns="http://www.w3.org/2000/svg" version="1.0" viewBox="0 0 37.5 46.7"><switch><g><path fill="#FBF8CD" stroke="#2E1313" stroke-width=".25" d="M4.1 38.8s-.2.5-.5.6c-.3.1-.7.4-.8.5-.1.2-.4.7-.4.7s.3-.4.5-.4c.2.1.5.2.5.2s-.6.3-.7.4c-.2 0-.4.3-.6.5-.2.2-.8 1.2-.8 1.2s.2-.1.4-.1H2S.4 43.7.2 44.2c-.3.2.7 0 .9.1l1.8.6c.1.1 1.2.1 1.8-.2 0 0 0 .4-.2.5-.3.1 1.4 0 2-.6 0 0-.1.3-.3.5l-.2.1s2.3-.1 3.2-.6c.8-.4 3.8-3.1 3.8-3.1s-4.3-3.9-4.2-3.8c0 .1-2.4 0-2.4 0l-1.5.6-.8.5z"/><path fill="#C86929" stroke="#2E1313" stroke-width=".25" d="M17 34.7s-2.1-.8-2.5-.7c-.4.1-1.1.2-1.1.2s1 .4 1.2.6c.2.2-1.2-1.2-2.7-.4-.3.2-.5.4-.5.4s1-.1 1.3.2c.4.3-.3-.7-3.4.2-.4 0-.9-.1-1.1-.1-.2 0 .4.6.7.7.2.2.3.2.3.2s-.9.1-1.5.4c-.6.4-.8.4-.8.4H8c.2 0 .3.1.3.1s-1.3-.4-2.4.3c-1.1.7-1.5 1.1-1.9 1.3-.4.2-.6.1-.8.1l-.2-.1s0 .3.2.5l.6.3s1.1-.7 1.4-.7c.2 0 .4-.1.4-.1s-.2.2-.3.4c-.1.2-.3.7-.3.7s.7-.5 1.1-.6c.3-.1.4-.1.4-.1s0 .1-.1.2-.3.6-.4.7v.3s.2-.3.3-.3c.1-.1.3 0 .4-.1.1-.1.5-.3.6-.4.1-.1.3-.4.3-.5 0-.1.2.5 0 .7l-.4.4s.5-.1.8 0c.2.1.5 0 .5 0s-.3.1-.4.2c-.1.1-.1.2-.1.2s.1-.1.3-.1c.2 0 .6-.1.6-.1h.2l-.3.3h1.5s-.9.6-1 1c-.1.3.1-.2.7-.1.5.1.3.3.3.3H10l.4.2c.1.1.5 0 .7 0 .2-.1-.5.5-.7.5h-.8l.3.3c.1.1.7.5.8.6.1.1.3.1.3.1s-.5 0-.7.1c-.2.1-.3.1-.5.3-.2.1-.6.3-.8.2-.2 0 .1.2.3.2.2 0-.3.1-.5.2s-.4.3-.5.5l-.2.2h.8c.4-.1 2-.3 2.4-.3.4 0 12.4-1.4 12.4-1.4L17 34.7z"/><linearGradient id="a" x1="-2409.387" x2="-2406.281" y1="79.626" y2="83.126" gradientTransform="scale(-1 1) rotate(2.098 -186.376 65237.666)" gradientUnits="userSpaceOnUse"><stop offset="0" stop-color="#343433"/><stop offset="1"/></linearGradient><path fill="url(#a)" d="M24 44s-1.5-1.9-2.7-1.8c-1.2.1-3 .8-1.7 2 1.1.3 2.5 0 3.4-.2.8-.1 1 0 1 0z"/><path fill="#C86929" stroke="#2E1313" stroke-width=".25" d="M29 18.8s5.8 5.4 5.9 9.6l.7 2.2.1.4s3.3 1.8 1.1 10.3c-.8 2-2 2.9-3.4 3-1.5.1-3.2-.3-3.5-.5-.3-.2-3.1.2-3.7.2 0 0-3.6-.1-4.2-1.8-.2 1.3-.1.6-.1.6s-.8-.8-1-1.4c0 1-.1.6-.1.6s-.7-.5-.7-1.4c.1 1.5-.2.6-.2.6s-.9-1.5-.9-1.8c-.1-.4-1.5-5.4-1.5-5.8-.1-.4-2.1-11.5 1.1-13.7 3.1-2 10.4-1.1 10.4-1.1z"/><path fill="none" stroke="#2E1313" stroke-width=".25" d="M29.1 43.3s2.9-2.9 3.2-4.6c0 1.4.4.4.4.4s.9-1.7.7-2l.2.4.1-1.6.6.4v-1.9"/><path fill="#343433" stroke="#000" stroke-width=".25" d="M22.9 31.7s1.1 10.6.5 12.7c-.5 0-1.7 1-1.3 2.1.2.2 3.4.5 4.3 0 .9-.4 1.2-16.5 1.1-17.5-.1-.9-4.6 2.7-4.6 2.7zm-8-2.2s1.6 12.7 1.1 14.8c-.5 0-1.7 1.1-1.3 2.1.2.2 3.4.4 4.3 0 1-.4 1.2-16.5 1-17.5-.1-.9-5.1.6-5.1.6z"/><path fill="#C86929" stroke="#2E1313" stroke-width=".25" d="M28.7 27.2s.2 1.1-.1 1.3l-.3.2.7.8s-.5.2-.8.1c-.3-.1 0 .9.2 1 .2.2-.6.1-.9-.2-.2-.3-.1 1.1 0 1.2.1.1-.8-.2-1.1-1.1.3 1.2.2 1.5 0 1.9-.2.3-.1.1-.1.1s-.2-.5-.4-.9l-.2-.4s.2.9-.3 1.5c-.3-.4-.4-.4-.7-.9-.3-.5-2.9 1.1-3.5.9l-.6-.2s0 1.1-.2 1.3c-.2.2-.3-.9-.6-1.1l-.3-.3.2 1.2s-.7-.8-.9-.9l-.2-.2v1s0-.1-.5-.4c-.4-.3-3.1-2.4-3.7-3.6-.5.1-1.1-.4-1.3-.6-.2-.2.3-.2.2-.6-.1-.4-.1-.6-.1-.6l-.3.5s-.3-.3-.3-.8c0-.4-.1-1.2-.1-1.2l-.3.6s-.2-1.4-.2-1.6c0-.2-.3.1-.3.1s-.3-.8-.3-1.2c.1-.5.4-1.3.4-1.3s-.6.2-.7.5c-.1.3-.1-1.7.2-2.1.3-.4-.6-.1-.8.2-.2.3.4-1.7.8-2 .3-.2-.6 0-.6 0s.6-.5.7-.9c.2-.4.1-1 .1-1s-.1-.6-.1-.8c0-.1 11-2.8 11-2.8l.4-4.7.5-2.5.2-.5s.7 1.5.8 1.9c.1.4 1 1.7 1.3 1.9l.9.6-.6.2s.6.5.9.7c.3.2.8.6 1 1 .2.4-.7-.2-.7-.2l1.5 1.7-.6-.1s.4.6.5.8c.2.3 1.4 3.9 1.4 4.4.1.5.2 2 .2 2s-.4-.7-.5-.8c-.1-.1-.3-.4-.3-.4s.4 1.3.3 2.1c-.5-.4-.5-.7-.5-.7s.2 1.6 0 2c-.2.4-.3 1.4-.3 1.4v.5"/><linearGradient id="b" x1="-2411.307" x2="-2410.76" y1="75.045" y2="85.569" gradientTransform="scale(-1 1) rotate(2.098 -186.376 65237.666)" gradientUnits="userSpaceOnUse"><stop offset="0" stop-color="#343433"/><stop offset="1"/></linearGradient><path fill="url(#b)" d="M26.4 46.4s-2.2.5-4.2 0c-.1-.5-.3-1.8 1.2-2 .1-.1.3-5-.1-9 0 0 .5-.1.7-.4.3-.3.3.1.4.3 0 .2.2.7.4.5.1-.2.6-.3.6-.3s.2-.3.2-.6c0-.2.3-.5.4-.2.2.3.4.6.5.7 0 .1.3-.1.3-.1l.4-.3c.1 0-.1 10.4-.8 11.4z"/><linearGradient id="c" x1="-2404.45" x2="-2403.904" y1="171.795" y2="182.294" gradientTransform="scale(-1 1) rotate(4.307 579.03 31847.122)" gradientUnits="userSpaceOnUse"><stop offset="0" stop-color="#343433"/><stop offset="1"/></linearGradient><path fill="url(#c)" d="M19.1 46.4s-2.2.4-4.3 0c-.1-.5-.1-1.8 1.3-2 .1-.1.1-5-.3-8.9 0 0 .4-.1.7-.4.3-.3.3 0 .4.2 0 .2.3.7.4.5.1-.2.6-.4.6-.4s.1-.4.1-.6c0-.2.2-.5.4-.2s.4.6.5.7c.1.1.3-.2.3-.2l.7-.3c.1 0-.2 10.6-.8 11.6z"/><linearGradient id="d" x1="-2420.595" x2="-2413.893" y1="78.806" y2="84.874" gradientTransform="scale(-1 1) rotate(2.098 -186.376 65237.666)" gradientUnits="userSpaceOnUse"><stop offset="0" stop-color="#343433"/><stop offset="1"/></linearGradient><path fill="url(#d)" d="M33.4 44.3s-1.6-1.8-2.8-1.7c-1.4-.2-3.2 1.2-1.7 2 .9.3 2.5 0 3.4-.2.8-.2 1.1-.1 1.1-.1z"/><linearGradient id="e" x1="-2407.492" x2="-2408.804" y1="43.468" y2="40.029" gradientTransform="scale(-1 1) rotate(2.098 -186.376 65237.666)" gradientUnits="userSpaceOnUse"><stop offset="0" stop-color="#cb6732"/><stop offset="1" stop-color="#facac8"/></linearGradient><path fill="url(#e)" stroke="#000" stroke-width=".25" d="M21.7 7.8s.9-4.9.2-5.8c-.8-.9-1.6-1.5-1.6-1.5s-1.6.5-2 2.4c-.4 1.8-.1 3.9-.1 3.9l3.5 1"/><linearGradient id="f" x1="-2400.532" x2="-2398.382" y1="43.49" y2="40.669" gradientTransform="scale(-1 1) rotate(2.098 -186.376 65237.666)" gradientUnits="userSpaceOnUse"><stop offset="0" stop-color="#cb6732"/><stop offset="1" stop-color="#facac8"/></linearGradient><path fill="url(#f)" stroke="#000" stroke-width=".25" d="M14.2 6.1s-.1-2.5-.9-3S10 1.2 10 1.2s-.6 1.5-.5 2.6c.2 1.1 1.3 2.9 1.4 3.1l.3.9 1.9-.5 1.1-1.2"/><path fill="#FBF8CD" stroke="#000" stroke-width=".25" d="M20.8 5.3s-.8.1-.7-.2c.1-.3.1-.5.1-.5l-.6.3.5-.9-.7.3.9-1h-.6l.7-.7-.4-.2V2h-.4l.6-1.4s-1.5-.2-1.8 1.6c-.4 1.7-.3 3.3-.3 3.3s.2.8.3.9c.1.1 1.2 0 1.2 0l1.2-1.1zM14 6.6s-.9.4-1.1.2c-.2-.2-.9-.5-.9-.5l1.1-.3-1.1-.2.4-.5-.7-.3.5-.3-1-.2.4-.3-.5-.3.7-.3-1-1.8s.8-.1 2 1.2c1.1 1.3 1.8 2.7 1.8 2.7s.1.8.1.9c0 .3-.7 0-.7 0"/><path fill="#C86929" stroke="#2E1313" stroke-width=".25" d="M23.6 9.5s.1-1.2.2-1.7.2-3.2-1.2-4.5c-.2-.2-.5-.8-.5-.8s.2 4.5 0 5.1c-.2.5-.3.9-.3.9l1.8 1zm-8-4.7s-.4-.8-.9-1.1c-.5-.3-2.4-1.7-3.3-1.9-.9-.2 1.7 1.1 1.9 1.6.2.5 1 2.7 1 2.7l1.3-1.3z"/><path fill="#343433" stroke="#000" stroke-width=".25" d="M22.9 8.7s-.3-1.6-.2-3.1c.1-1.5 0-3.1-.4-3.7-.5-.6-1.7-1.9-1.7-1.9s-.4-.1-.7.2c-.3.3-1.2 1-1.3 1.3-.2.3-.7 2.3-.8 2.7 0 .4-.3 1.4-.2 1.9 0 .4 1.4.1 1.4.1s-.4-1.7-.4-2c0-.3-.1-1.5.1-1.6.1-.2.9-1.7 1.3-1.7.4-.1 1-.3 1.6 1.3.6 1.7.2 3.6-.2 4.5-.4.8.3 1 .3 1.2 0 .1 1.2.8 1.2.8zm-8-2.7s-.4-1.8-.8-2.3c-.4-.4-1.4-1.5-2-1.8-.6-.2-1.2-.6-1.6-.8-.4-.2-.1-.3-.4-.2-.2.1-.4.3-.6.8-.2.5-.5 2.4 0 3.3.5 1 1 1.5 1 1.9.1.5 0 1.2.1 1.6l.1.5.6-1.2.4-.6s-.1-.4-.5-.9c-.4-.4-.6-.8-.9-1.3-.3-.4-.5-.7-.5-1.3 0-.6 0-2.2.3-2.2s2.6 1.3 3.1 2.1.7 1.8.7 2v.5l1-.1z"/><path fill="#C86929" stroke="#2E1313" stroke-width=".25" d="M20.4 16s2.5-1.3 3.6.5c-.2-1.6 0-1.2 0-1.2l.8 1.2v-1.2s.4.3.5.6c.1.3.2-2-1.1-3 0 0 .4-.7 1 .4.1-1.6-1-2.7-1.5-3 1.1.9.9.7.9.7s0-.6-.4-1.2-1.7-2.2-2.5-2.4c-.8-.1.1-.6.3-.6.2 0-.7-.4-1.3-.4-.6.1-.2-.4-.2-.4h-.6l.1-.7s-.7.4-1.1.4c-.4 0-1.3 0-1.3-.4 0-.3.2-1.6.2-1.6s-2.1.4-2.4.4h-.3s.1 1-.8 1.3c-.9.3-1.2-.3-1.7-.2.6.8.4.4.4.4l-.6.2.2.5s-.9.3-1.3.7c-.4.4-.8.8-.8 1.1 0 .2-.2 2.5-.5 2.8l-.3.3.6-.1s0 .7-.1 1c-.2.3-.2.9-.4 1.2l-.2.3h.5s-.3 1-.3 1.4v.4s.3-.2.4-.2c.2 0 .1.9.1.9l.2-.2.1.6.3-.5s0 1 .2 1.2c.1.3.2-.7.8-.8.6-.2 1.1 0 1.1 0s.4 1.3 1.3 1.4c.7.6 1 .6 1.8.4.8-.2 1.5-.3 1.7-.4.2-.1.9-.6.9-.6"/><path fill="#FBF8CD" d="M21.7 14.6s-2.9 1.3-3.5 1.2c-.6-.2-.3.7-.3.7l.3.9 1.7-1.1 1-.8.8-.9"/><path fill="#FBF8CD" d="M19.4 16.7l.7 1.3.6.6-.7.6 1.5.9-.8.3 1.3 1-.9.4s.7.2 1.2 2c.4 1.4-.5 3.1-.5 3.1l-1.6 2.2-.3 1.9s-1.1-1.8-1.6-2.1c-.5-.2-2-.7-2.5-1.9-.6-1.2-.8-2.2-.6-3.1.2-1-.5-.8-.5-.8l.9-1.3-.9.4.9-1.5-.7-.4 1.3-1.2-.5-.6v-.2s.3 0 .6-.1c1-.2 1.6-.3 2-.6l.5-.4-.2-.1.8-.4z"/><path fill="#FBF8CD" d="M19.3 18.3s-.1-.2.3-.3c.4-.1.7.2 1 0 .3-.2.9-1.1.9-1.1s-.4.5-.8.3.1-.6.1-.6l-.2-.8.6-.4-1.6.6-1 2.2.7.1z"/><path fill="#FBF8CD" d="M20.8 17.3s-.1-.4.2-.6c.3-.2.5-.4.5-.4s.4-.3.6-.3c.2 0 .9.1.9.1l-.4-.4-.1-.1s-1 0-1.8.4-.6.8-.6.8l.7.5zm3.6-5.9s.1 0-.3-.1-1.8-1-1.8-1 .3-.1.7-.1c.4 0 .8-.1.8-.1s.1.2-.2.1c-.3-.1-.7-1-.7-1l.5-.2s1 .9 1.1 1.9c0 0-.3-.2-.4-.2-.1 0 .2.6.2.6v.2"/><path fill="#686869" d="M16.7 14.9s-.7-1.3-.2-2c.5-.7.3-1.1.5-1.4.2-.2.9-2 2.6-.3 1.7 1.6-1.7 1.1-2 1.1-.3 0-1.1 1-1.1 1.2 0 .1.1 1.2.2 1.4zM14.1 12c-.1-.2-.4-2.5-1.6-.5-1.1 1.7 1.5 1 1.7 1"/><path fill="#FBF8CD" d="M23.5 13.6s-.3-.4-.4-.4c-.1 0 .5-.3.8-.3.3 0 .5.3.7.6.2.3.6 1.3.6 1.5 0 .2.1.7.1.7s-.4-.5-.5-.5c-.1 0 0 1.2 0 1.2l-.5-.8-.3-.4v1.1s-1-1-2.3-.7c-1.3.4-1.2.6-1.2.6s.3-1.1 1.1-1.4c.8-.3 1.6.1 1.8.2.1.1-.4-.7-.4-.7s.5-.1.8 0l-.3-.7z"/><path fill="#FBF8CD" d="M23.8 13.1s-.1-.2-.3-.3c-.2 0-.5-.1-.5-.1s0-.1.3-.3c.3-.2-.7-.5-.6-.5.1 0 .9-.2.9-.2l-.1-.3.4-.1s-.2-.3-.5-.3c-.3-.1.8 0 1.1.2.3.2.7.7.6 1.9 0-.1-.3-.5-.6-.5-.2 0-.4.2-.4.2 0 .3-.3.3-.3.3zm-12.7 1.3c.1-.1.2-.3.1-.3s-.6.2-.6.2 0-.4.1-.5l.4-.4s-.3-.1-.4-.1c-.1 0 0-.2 0-.2s.1-.7 0-1.1c-.1-.4-.2-.5-.2-.5s-.2.9-.3 1c0 .1-.2 1-.4 1.1h.5s-.4.9-.4 1.6c.1-.1.5-.1.5-.1l.1.7.2-.2v.7l.3-.3s0 .9.1 1.4c0 .2-.1-.8 1.2-.9.3-.1.7 0 .7 0l.3-1.3s-2.2-1.9-2.8-.6"/><path fill="#FBF8CD" d="M14.5 16.9s-.1 1 1 .9c.9-.1.7.2 2.6-.9l.1-.1s3.5-5.7.3-2.2c-2.2.5-2.5 1.7-3.7 1.8-1.3.1-1.3-.1-1.3-.1l-.3-.3s-.5 1 .9 1.8c.2.1.5 0 .4-.5-.2-.6 0-.4 0-.4z"/><path fill="#FBF8CD" d="M18.7 14.9s.1-1.1 1.7-1.9c1.6-.8 2.8-.8 3.3-.5.5.4-.3 2.9-.3 2.9s-3.1-.5-3.5.4c-.5.9-1.4.6-1.4.6l-.8-.4 1-1.1z"/><path fill="none" stroke="#000" stroke-width=".25" d="M14.2 17.8c.4 0 .3-.6.3-.6s.1 1.3 2.5.2c0 0 .7-.3 1.1-.6"/><path fill="#343433" stroke="#000" stroke-width=".25" d="M17.4 12s.4-2 2.1-.8c.1.2-.4 1.2-1.6.9-.2-.1-.5-.1-.5-.1z"/><path fill="none" stroke="#000" stroke-width=".25" d="M13 16.5s.3-1.6 1-2.7c.1-.7.2-1.4 0-1.9-.1-.5-.6-1-.9-.8 0 0-.3.1-.4.5"/><linearGradient id="g" x1="-2401.68" x2="-2401.839" y1="53.507" y2="55.233" gradientTransform="scale(-1 1) rotate(2.098 -186.376 65237.666)" gradientUnits="userSpaceOnUse"><stop offset="0" stop-color="#343433"/><stop offset="1"/></linearGradient><path fill="url(#g)" stroke="#000" stroke-width=".25" d="M14.5 17.2s.4-.4.7-.5c.2-.1.4-.9.2-.9-.2-.1-1.4.1-1.6.1-.3 0-.5.2-.4.4 0 .3.4.5.2.4-.4-.3.9.7.9.5z"/><path fill="#343433" stroke="#000" stroke-width=".25" d="M14.1 12.4s-1.1.3-1.4-.4c0-.2.1-.6.3-.7.1-.1.4-.4.8.2.1.1.3.3.3.9z"/><path fill="#FFF" d="M15.3 16.2v-.3c-.2 0-.5-.1-.6.1h.3c.1.1.1.2.1.3.2 0 .2 0 .2-.1"/><path fill="#FFCD33" d="M13.8 11.6c0-.1-.1-.1-.2-.1s0 .1 0 .2-.1.3-.3.3c-.2 0-.2-.1-.2-.2s0-.4-.2-.3c-.3.2 0 .6.2.7.2.1.6.1.7-.1.1-.1.1-.3 0-.5"/><path fill="#FFF" d="M13 11.6c0-.1.1-.2.2-.2s.2.1.2.2-.1.2-.2.2c-.2 0-.2-.1-.2-.2z"/><path fill="#FFCD33" d="M18.5 11.1c.3-.3.5.1.5.4 0 .3-.3.5-.6.5s-.7 0-.8-.3c0-.1.1-.3.2-.4.2-.1.1.1.2.2.1.2.3.3.5.2.2-.1.2-.4 0-.6 0 .1 0 0 0 0"/><path fill="#FFF" d="M17.9 11.3c0-.1.1-.2.2-.2s.2.1.2.2-.1.2-.2.2-.2 0-.2-.2z"/><path fill="none" stroke="#C9C8C8" stroke-width=".25" d="M13.3 16.7s-.7-.9-1.6-.5m-.1.8c.9-.7 1.7 0 1.7 0"/><path fill="#FBF8CD" d="M14.5 17.5s.2.8 2 .1c.2 0 1.4-.6 1.6-.8.2-.3.4.4.4.4l-.8.6c-.1 0-2 .5-2.2.5-.2 0-.6.1-1.1-.4 0 0 .1-.2.1-.4z"/><path fill="#686869" d="M17.2 17.2s.7-.8.1-1.4c-.5-.6-.7-.7-.4-.7.3 0 .7.1.9.4.2.3.3.6.1 1-.2.3-.7.7-.7.7z"/><path fill="none" stroke="#C9C8C8" stroke-width=".25" d="M16.1 16.5s.9-1.7 2.6-1.6"/><linearGradient id="h" x1="-2405.805" x2="-2405.845" y1="48.748" y2="49.184" gradientTransform="scale(-1 1) rotate(2.098 -186.376 65237.666)" gradientUnits="userSpaceOnUse"><stop offset="0" stop-color="#343433"/><stop offset="1"/></linearGradient><path fill="url(#h)" d="M18.3 11.2s.3 0 .3.2-.2.3-.3.2c-.2-.2 0 .1 0-.4z"/><linearGradient id="i" x1="-2400.828" x2="-2400.868" y1="48.831" y2="49.265" gradientTransform="scale(-1 1) rotate(2.098 -186.376 65237.666)" gradientUnits="userSpaceOnUse"><stop offset="0" stop-color="#343433"/><stop offset="1"/></linearGradient><path fill="url(#i)" d="M13.3 11.5s.3 0 .3.2-.2.3-.3.2c-.1-.2 0 .1 0-.4z"/></g></switch></svg>
