<svg xmlns="http://www.w3.org/2000/svg" version="1.0" viewBox="0 353.4 112.6 131.9"><switch><g><linearGradient id="a" x1="-47.464" x2="-41.168" y1="188.782" y2="188.782" gradientTransform="matrix(2.8617 0 0 -2.8617 198.236 1018.778)" gradientUnits="userSpaceOnUse"><stop offset="0" stop-color="#fff"/><stop offset="1" stop-color="#f7973a"/></linearGradient><path fill="url(#a)" stroke="#966732" d="M71.3 475.1c.2 1.5 1.6 1.7 2.7 1.1-.5.4-.7 1-1 1.4.3.1.7 0 1 0-.1 0-.2.1-.1.2 1.9-.2 5.2 1.8 6.6 2.8-4.2 1.2-13.9 2.7-18-.2"/><path fill="#F69668" stroke="#966732" d="M39.9 470.9c-1 1.8 2.7 3.9.8 6.9-3.2.8-6.4 1.1-9.9 1.2-3.2 0-7.2-1.1-9.9.5.1-.9.6-1.7 1.3-2.2-1.3 0-2.1.9-2.9 1.8-.5-.9-.4-1.8.2-2.6-1-.1-1.9.4-2.6 1 2.7-6.7 14.2-1 19.4-3.1-1.5-1.4-4-2.1-4.7-4.4"/><path fill="#F69668" stroke="#966732" d="M46.4 476.7c-1 1.8 2.7 3.9.8 6.9-3.2.8-6.4 1.1-9.9 1.2-3.2 0-7.2-1.1-9.9.5.1-.9.6-1.7 1.3-2.2-1.3 0-2.1.9-2.9 1.8-.5-.9-.4-1.8.2-2.6-1-.1-1.9.4-2.6 1 2.7-6.7 14.2-1 19.4-3.1-1.5-1.4-4-2.1-4.7-4.4"/><linearGradient id="b" x1="-81.714" x2="-41.854" y1="211.625" y2="193.78" gradientTransform="matrix(2.8617 0 0 -2.8617 198.236 1018.778)" gradientUnits="userSpaceOnUse"><stop offset="0" stop-color="#fff"/><stop offset="1" stop-color="#f7973a"/></linearGradient><path fill="url(#b)" stroke="#966732" d="M17.6 438.1c3.6 3.2 3.3 12.9-3.3 10.5-4.4-1.6-7-12.6-2.6-15.3-.5 0-1-.3-1.3-.3.3-1.4 1.2-2.5 1.9-3.6l6.4-3.3 6.4 1.1-2.8 12v3.6"/><linearGradient id="c" x1="-80.136" x2="-40.276" y1="215.474" y2="197.629" gradientTransform="matrix(2.8617 0 0 -2.8617 198.236 1018.778)" gradientUnits="userSpaceOnUse"><stop offset="0" stop-color="#fff"/><stop offset="1" stop-color="#f7973a"/></linearGradient><path fill="url(#c)" stroke="#966732" d="M18.2 429.5c-6.2 2-12.2-.6-12.7-7.7 0 0 3.1-7.2 10-5.8s9.4 2.2 10.8 3.9c1.4 1.7.6 5.8-.3 6.6"/><linearGradient id="d" x1="-76.088" x2="-36.227" y1="224.518" y2="206.673" gradientTransform="matrix(2.8617 0 0 -2.8617 198.236 1018.778)" gradientUnits="userSpaceOnUse"><stop offset="0" stop-color="#fff"/><stop offset="1" stop-color="#f7973a"/></linearGradient><path fill="url(#d)" stroke="#966732" d="M18.3 394.4c-2.8-2.5-3-8-6-10.2-5.6 1.7-2 13.9 2.2 13.1"/><path fill="#F69668" d="M6.5 421.8c-1.6-.2.2 1.7.6 1.9.9.6 1.8.8 2.8 1 .9.1 1.8.5 2.8.3 1.4-.3 1.8-1.6 1-2.7"/><linearGradient id="e" x1="-80.821" x2="-41.271" y1="213.112" y2="195.406" gradientTransform="matrix(2.8617 0 0 -2.8617 198.236 1018.778)" gradientUnits="userSpaceOnUse"><stop offset="0" stop-color="#fff"/><stop offset="1" stop-color="#f7973a"/></linearGradient><path fill="url(#e)" stroke="#966732" d="M22.3 424c-2.4 1.5-14 1.5-14-2.7-.2.6-.8 1.2-1.1 1.8-5-1.3-8.6-5.5-6.8-11 1.5-4.5 9.1-6.4 7.6-13.5.4-.1.5.1.9.1.1-.4.3-1 .5-1.5.2.3.7.4.9 1.2.3-.2.7-.7 1-.9 0 0 .9.7.8.7 1.3-1.2 2.8-2.3 4.4-3.1 0 0 10.9-9.2 24 3.6 2.5 2.4 7.1 7.5 10.4 9.9-.5 0-1.1.2-1.6.2 1.2 1.6 3.2 2.9 4.5 4.4-1.4 1.2 9.2 11.7 11 14.2 3.5 5.2 6.6 11.5 8.9 17.2 4.9 11.8 6.7 26.8-5.4 34.4-4.9 3-11.9 5.7-17.8 5.2-5.6-.6-14.1-3.9-19.1-1.3 0-.9-.6-1.6-.6-2.4-.5 0-1.1-.1-1.6-.1.1-.7-.2-1.7-.1-2.3-.4.2-1.4.2-1.8.4.2-4.8-2.9-8.9-4.7-13.3-1.3-3.4-.7-14-3.8-15.5 1.7-5.7-.6-11.7-.1-17.4"/><path fill="#FFF" d="M37.4 456.9c.5-.1.9-.4 1.3-.7.2.9-.3 1.5-.5 2.2.6.1 1.3-.3 1.8-.8.3 1.7-1.2 2.1-1.7 3.3 1.4-.1 2.4.6 3.1 1.7-1.2-.1-1.9.4-2.7 1.3.7 1 1.8 1.4 2 2.7-.9-.6-2.2.1-2.1 1.1.1 1.2 2.4 1.9 2.8.9.5 1.8-1.8 1.8-2.8 2.5 0 .8 1.1 1.1 1.4 1.9.3.9 0 1.9.2 2.7-3.2.2-.9.8-1.4 2.9-.4 1.7-.7 0-1.7.4-.8.4.2 1.1 0 1.9-1.9.3-3.6.4-5.3 1.6-.8-1.8.2-2.2-2.1-2.9-.1-2.2-.1-2-1.9-1.8 0 0 0-4.5-1.6-6.5s-3.6-7.6-3.9-11c-.3-3.3 0-9.4-3.1-10.9 1.8-3.7.2-12.2.2-13.2 0 0-.4-3.5-.1-4.6.3-1.1 1.6-2.5-2.5-2-4 .4-8.6 1-10.7-6.4-.4-.6.8.5 1.7 0l.8-.7s1.5 1.4 2.4 1.7 5.7 2.1 10.4.9c4.8-1.3 1.4-.9 1.4-.9-.8.6-3.5.7-4.6.7-1.5.1-3-.1-4.6-.5-1.3-.3-2.7-.8-3.7-1.7-.8-.7-1.8-3.1-.3-3.7 0 0 3-4.3 6.2-4.3s6.5 2.5 7.6 2.9c1.1.4 3.2-.1 2.9-.7-.3-.6 1.8-3.3 2.9-2.2s3 2.6 4 2c1-.6 1.8-2 1.6-2.8-.3-.7 2.3-.3 3.3.4s2.5 2 2.3 3.9c-.1 1.8.4 3.3 1 3.6.6.3.3 2.2-.7 2.8l-3.8.8c.8-.3 1.7-.2 1.8.7-.7-.1-1.4 0-1.8.6.1 1.4 1.8 1 2.7 1-.4 1.1-1.3 1.4-2.3 1.6 1 .7 1.9 1.8 1.7 3.1-.7-1-1.8-1-2.8-1.5.2.6.2 1.3-.2 1.8-.6-.8-1.6-1.2-2.4-1.4 0 .6 0 1.4-.3 1.8-.6-1.6-2.9.3-4.5 1.2l8.4 22.2" opacity=".61"/><path fill="none" stroke="#966732" d="M40.5 399.8c1 2.2 2.8 4.5 3.5 6.6-.5-.1-1.1.1-1.5.1.2 2.4 2.1 5 2.4 7.6-.5-.1-1.3.2-1.8.1-.2 1.2-.1 2.4.2 3.5-.3.1-.6.2-.9.4 0 1.7.9 3.7-.7 4.7 1 1.7 0 3.2-1.8 3.2"/><linearGradient id="f" x1="-83.164" x2="-27.259" y1="219.738" y2="194.71" gradientTransform="matrix(2.7982 .6 .6 -2.7982 74.895 1014.677)" gradientUnits="userSpaceOnUse"><stop offset="0" stop-color="#fff"/><stop offset="1" stop-color="#f7973a"/></linearGradient><path fill="url(#f)" stroke="#966732" d="M33.5 397.9c-1.2-2.8 2.2-4.7 5-5.3"/><path fill="#F69668" stroke="#966732" d="M33.8 399.3c1.9-3 7.8-16.4 15.5-10.1 6.9 5.7-5.3 14-11.3 12M14.1 446c-.1-1.2.9-2.4 1.7-1 .3-1.2 1.9-1.5 2.6-.4.7 1 .3 3.4-.1 4.5-.3-.4-.5-1.1-.8-1.5 0 .6.3 2.3-.6 2.2-.4 0-1-1.8-1.3-2.1 0 .3.5 1.6.3 1.8-.4.6-.9-.1-1.1-.6.1-.1-2.3-2.8-.7-2.9z"/><path fill="#343433" d="M21.4 408.1c1.3-4.9 5.4-4.6 7.4-.3-1.8 2.4-4.7 2.8-6.7.7"/><path fill="#F69668" stroke="#966732" d="M22.1 444.6c-1.3-.1-3.4-1.5-3.1 1.1-1 .2-1.3 1.6-.5 2.2-.5.7-.4 2.1.7 2.2 0-.5.1-.9.2-1.4-.4 1.1.1 2.5 1.3 2.9 1.1-.7-.5-1.5.1-2.2.7-.9 2.1.4 2.6-1"/><path fill="#FFF" d="M4.4 416.2c-2.8-3-3.5-2.4-3.9.4-.2 1.6 1.8 3.5 2.9 4.4 1.1.9 3.1 2.4 4.3 1.1 1.5-1.7-.5-4.3-2-5" opacity=".65"/><linearGradient id="g" x1="-81.909" x2="-42.049" y1="211.514" y2="193.67" gradientTransform="matrix(2.8617 0 0 -2.8617 198.236 1018.778)" gradientUnits="userSpaceOnUse"><stop offset="0" stop-color="#fff"/><stop offset="1" stop-color="#f7973a"/></linearGradient><path fill="url(#g)" stroke="#966732" d="M39.6 438.4c1.2 3.8-.5 8.1-2.5 11.3-.1-.2-.1-.5-.3-.7-.5.6-1.2 1.3-1.5 2.1-4.3-1.2-7-3.9-11.9-1.9-.2-1.3-1.7-3.5-1.4-4.7.3-1.6 2.7-3 4.1-3.4-1-1.8-1.4-5.5 2.7-6.7"/><linearGradient id="h" x1="-81.212" x2="-30.531" y1="218.181" y2="195.491" gradientTransform="matrix(2.7982 .6 .6 -2.7982 74.895 1014.677)" gradientUnits="userSpaceOnUse"><stop offset="0" stop-color="#fff"/><stop offset="1" stop-color="#f7973a"/></linearGradient><path fill="url(#h)" stroke="#966732" d="M33.4 400c1-1.9 2.5-3.6 4.5-4.9-.4.7-1.1 1.4-1.4 1.9.9-.7 2.1-1.1 3.3-1.2-.8.7-1.4 1.6-2.2 2.1 1.5-.2 2.8-.8 4.4-.1-1.2.5-2.4 1.4-3.6 2 1.1.2 2.2.5 3.1 1.2-.8.2-1.8.2-2.5.7.7.2 1.3.7 1.9 1-.6.4-1.6.6-2.3.8"/><path fill="none" stroke="#966732" d="M8.1 421.6c.5-1-.4-1.8-.6-2.8"/><path fill="#F69668" stroke="#966732" d="M4.8 415.6c-1 1.9.6 4 2.2 4 0 .2.7.7.7.7.6.1 1.1 0 1.4-.4-.7-1 .4-1.3.8-.4 1-.6 2-1.1 1.7-2.8"/><path fill="#F69668" d="M4.9 415.3c.4-1 1.3-2 2.2-2.5.1.1.1.2.2.3 1.4-.9 1.9-2 2.8-.1.5 1.1.7 2.4 1 3.6" opacity=".24"/><path fill="#F69668" d="M5.2 415.6c.3-.9 1.1-1.8 1.9-2.1l.2.2c1.1-.8 1.7-1.8 2.4-.1.5.9.6 2 .9 3.1" opacity=".24"/><path fill="#F69668" d="M5.1 417.1c.3-.9 1.1-1.8 1.9-2.1l.2.2c1.2-.8 1.7-1.8 2.4-.1.5.9.6 2 .9 3.1" opacity=".24"/><path fill="#F69668" d="M4.8 415.9c.6-.8 2.6-1.8 3.5-1.6.7.2 2.8 1.9 3.2 2.5"/><path fill="#FFF" d="M23.9 405.6c1.4-.8 3.8-.2 3.3 1.8h-.5c-.4-1.4-1.8-1.8-3-2" opacity=".61"/><path fill="#FFF" d="M25.9 406c.3.3.6.6.6 1h.4c.1-.7-.4-1.6-1.2-1.3-.1.2-.1.3 0 .5" opacity=".61"/><path fill="none" stroke="#FFF" d="M15.1 418.3s10.5-12 23.3-6.2m-23.3 7s13.1-8.9 24.1-.3m-24.4 2.1c4.3-2 13.5 1.2 15.2 5.8m-7.2-23.3c-.3-3.7 1.5-7.1 5.3-7.8M24 403c.6-2 3-3.2 4.8-4.2m-3.3 4.4c1.4-1.2 2.9-1.4 4.8-1.4"/><path fill="#F69668" d="M8 421.9c-.3.4-.6.8-1 1.2.7.7 2.7 1.6 3.6 1-.5-.6-2.6-1.3-2.6-2.2"/><ellipse cx="41.5" cy="412.8" fill="none" stroke="#71C8F0" stroke-width="3" rx="15.2" ry="14.9"/><path fill="none" stroke="#71C8F0" stroke-width="3" d="M53.6 404.8l10.9-8"/><linearGradient id="i" x1="-55.25" x2="-24.797" y1="244.487" y2="201.912" gradientTransform="matrix(2.8617 0 0 -2.8617 198.236 1018.778)" gradientUnits="userSpaceOnUse"><stop offset="0" stop-color="#fff"/><stop offset="1" stop-color="#f7973a"/></linearGradient><circle cx="84.9" cy="381.7" r="25.7" fill="url(#i)" stroke="#71C8F0" stroke-width="3"/><linearGradient id="j" x1="-54.189" x2="-23.736" y1="244.886" y2="202.31" gradientTransform="matrix(2.8617 0 0 -2.8617 198.236 1018.778)" gradientUnits="userSpaceOnUse"><stop offset="0" stop-color="#fff"/><stop offset="1" stop-color="#f7973a"/></linearGradient><path fill="url(#j)" stroke="#966732" d="M84.2 356.6c1.5.2 3.8 2 5.3 2.8 1.8 1 3.8 2.9 4.5 4.5-.9-2-3-3.5-5.2-2.5 2.6.8 5.3 4 5.6 6.5-1.1-1-2.3-.8-3.8-.7 1.9 1.5 3.8 4.5 3.7 6.9-.9-1.2-2.7-2-4.1-2.3 3.9 3.5 5.2 6.4 5.3 11.8-.8-1.8-1.7-3.7-3.1-5.3 1.6 3.2 1.4 6.4 1.5 10.1-.3-1.7-.9-3.9-2.1-5.1-1 1.8-.7 6.3.7 7.9-1.4-.4-2.4-1.5-3-2.6.4 2.8-.4 6.7-2 8.8.4-2.9-.7-4.7-1.8-7.1-.3 3.2-.3 5.4-2.8 7.7.1-3.3-2.3-5.3-5.1-6.3"/><path fill="#FFF" d="M73 359.3c1.2-.4 2.4-.5 3.5.3-.9.4-1.7 1-2.3 1.7 2-.1 3.6.4 5.3 1.5-1.1-.1-1.9.4-2.6 1.2 1.4.9 3.2 1.4 5 .8.1 1.6-1.3 2.7-2.5 3.3.9.6 1.8.2 2.5-.5-.5 1.4-1.2 2.8-2.3 3.6 2.3.3 4.1 1.8 5.1 3.9-1.4-.2-3 0-4.1.8 2.9-.1 4.8 2.6 5.3 5.3-.8-1.3-2.7-1.4-4.1-.8 1.7 1.8 1.8 3.9 1.6 6.3-1.1-.9-2.3-1.8-3.8-1.8.6 1.8 1.8 3.1 2 5.2-1.2-1.6-3.3-.6-4.2.8 1.4.6 1.6 2.3 1.6 3.6-1.1.3-2.3.5-3.5.4-.6 2.6 3 3.4 5 2.8-.9 1.4-1.9 2.4-3.6 2.7 1.4 1.5 4.8 1 6.3-.3-.1 1.4-1.2 2.4-1.8 3.5 3.4.6 6-1.8 9.6-.8-2.3.7-3.4 2.8-4.4 4.2 0 0-21.9 1.9-26.9-23.1.9-19.5 13.3-24.6 13.3-24.6z" opacity=".61"/><path fill="none" stroke="#FFF" d="M71.1 363.6c1.1-.4 1.8-.6 3-.6m-1.8 1.8c1.2.3 2.7-.4 3.9 1m-1.9.6c1.2 1 2.5 1.8 4 1.3m-10.2-.4c1.8-.6 3.3-1.2 4.9 0m-6-1c.8-1 1.8-1.2 2.9-1.4m5.2 4.1c1.3.5 2.5 1.1 3.9.7m-16.5 1.5c.9-1 2-2.2 3.5-2.3m.8 1.5c.1-1.1 3.9-1.4 4.8-.7m-9.6 4.2c.8-1.1 1.8-1.9 3.2-2m2.5-.1c1-.5 2-.5 2.9-.1.9.3 1.8 1.1 2.8 1m.5-1.9c1.6.5 2.7 1.2 4.5 1m-2.9 1.3c.9.3 1.8.2 2.7.2 1.1 0 1.8.3 2.8.7m-20.8 4.5c1.2-1.5 2.1-1.7 3.8-2.1m-1.1-1.3c.8-.4 1.3-.7 2.1-.9.8-.1 1.7.1 2.5 0m14.5 4c-1-.9-2.3-1.2-3.6-.8m-3.5 1.9c1.3-.9 3.5-1 4.8-.1m-2.6.9c2 .1 3.2 1.2 4.2 2.8m-2.1.1c-.8-.6-1.3-1.1-2.2-1.3s-2.2-.3-3.2 0m4.7-5.8c-1.8 0-3.3.6-4.8 1.6m.8-2.4c-1.9 0-4.2 1.7-5.4 3m1.6-3.7c-1.9.1-3.1 1.9-5 2m-1.4 4.5c2.2 0 5.1 0 6.7-1.8m-2.7 3.2c1.3.1 2.2-.7 3.2-1.4m-6.6-2.5c-1.4-.2-2.8.6-3.8 1.5m9.4 4.8c1.3-.8 4.2-1.4 5.5-.4m-1.6 1.5c2 0 3.1.7 4.7 1.9m-2 .6c-1.2-.8-2.8-.8-4 .1m-1.6-2.2c-1.3.5-2.9 1.8-4.4 1.6m1.2-3.7c-1.3.5-2.7 1.8-4.3 1.3m.8-2.4c-1.3.6-3.4.6-4.4-.6m8.1-18.9c.9-.9 1.8-1.8 3.1-1.9m-4.1 27.8c1.2.3 2.2 0 3.3-.5m-9.1-1.7c1 .6 2.6.7 3.8.4m-3.6 1.8c.7 1.1 2.3 1.1 3.5 1.1m2 1.1c1.1.5 2 .3 3 .1.9-.2 2.2-.7 2.9 0M73 390c1.5-.2 2.9.7 3.8 1.8m-1.5 1.5c-.9.1-1.5-.2-2.4.1-.9.3-1.8.4-2.8.4m-3.4-.5c-.8.2-2 .3-2.5-.7m1.6 3.3c.9 1.4 3.6.6 4.8.3m-1 2c1.8.1 3.9-.9 5.6.3m-2.9-2.4c.8-.1 1.3.3 1.9.5m6 5.4c-1.9 1.2-4.1-.8-6.2-.6m-4-1.3c1.9.1 3.7-.4 5.4.5m-1.5 3.6c1.5-.6 2.8.1 4.3-.1m1.4 2.1c.9 0 2.4-.5 3-1m1.2.8c1-.6 1.7-1.7 2.8-2m-16.3-1.8c.8-.1 1.8-.5 2.6.1m-6.5-3.7c.5-.2 1.1-.4 1.6-.3m-8.1-12.9c.8 0 1.5.3 2.2.3"/><path fill="none" stroke="#CC6732" stroke-width=".5" d="M88 393.7c0-.9.1-1.9-.6-2.6m.1-1.4c1.1.7.9 1.8 1.1 2.9m-2.2-5c.8.7 1.6 1 2.1 2m-3.5-1.3c.9.1 1.3 1.2 1.8 1.8m-2-3.1c.4.5 1 .8 1.4 1.1m-.6-1.9c.3.6 1.5.8 2 1m-3.8 1.9c.6.6 1.1 1.5 1 2.3m-1.1-.6c.8.8.7 2.2.6 3.2m-1.1 2c.4-.8.4-1.8.3-2.7m-.8.6c.1-.6-.3-1.4-.7-1.8m1.1.1c-.1-.7-.5-1.4-1.1-1.8m8.8-8.7c.9-.1 2 .6 2.4 1.4m-3.6-2.2c.6-.2 1.6-.2 2 .2m-1.1-4.6c1.1.1 2.6.6 3.1 1.7m-.7-1.7c-1.1-.5-2.4-.9-3.1-1.9m-.4-1.5c1 .7 1.3 1.7 2.5 2.1m-2.7.9c-.6-.3-1.2-.4-1.9-.4m1.4 1.3c1.3-.1 2.3.5 2.9 1.5m-1.5 0c1.4.1 1.6 1.3 2.3 2m-5.1 5.4c1 0 1.8.8 2.4 1.5m-.3-1.5c1 .4 1.3 1.8 1.3 2.8m-.4-3.3c-.6-.8-1.4-1.3-1.6-2.2m.8.2c.2.4.6.8 1 .9m-3.8.2c.6.1 1.4.3 1.8.8m-.3-3.5c.8.3 1.3.5 1.8 1m.2-2.9c-.8 0-1.3 0-1.9-.5m-.5-8.2c.6-.3 1.9-.7 2.5-.3m-1.5-.9c1.1-.2 1.8-.1 2.9.5m-1.4-1.3c.6 0 1.7.4 2 1m-6.2.3c.6-.5 1.1-1 1.9-1.1m-.9-.7c.9-.8 2.1-.4 3.1-.4m-2.5-1.8c1.1-.6 1.9-.7 3.1-.6m-1.2-.5c1.2-.2 2 .1 3 .8m-8.5 17.7c.4.7.9 1.2 1.6 1.4m-.6-2.6c.8 0 1.7.4 2.4.5m-5.5 4.3c.5.4.6 1.1.8 1.7m3.9-11.7c.4.3.9.5 1.4.6m-1.8-13c.5-.9 1.8-1.2 2.8-.8m-2.4-.4c1.4-1 2.4-.6 3.8.3m-5.9 4.2c.5-.7 1.5-1.1 2.3-1m-1.8-4.8c.4-.8 1.6-.8 2.3-.6m-2-.7c.7-.9 2.2-1.2 3.1-.6m-5.2.7c.5-1 1.3-1.2 2.2-1.3m-1 4.3c.4-.7 1-1.6 1.8-1.5m-4.3-5.6c.5 0 .6.4 1 .6.5.1.9 0 1.3.1m-1.1.8c1.1.5 2.6-.3 3.6.3m-5 1.6c.4-.4 1-.6 1.5-.7m-4.8-2.3c1 .4 1.9.9 3 .7m-2.1.8c.5.1 1.1.4 1.5.2m2.5 7.7c.7-.6 1.5-.9 2.3-.7m.5 6.5c.6.3 1 .9 1.8.8" opacity=".26"/><path fill="none" stroke="#CC6732" stroke-width=".5" d="M93.5 404.7c.5-.9 1.5-1.8 1-3.1m.4 2.1c.8-1.2.6-2.2 0-3.4m2.1-.3c-.4-1-1.4-1.8-2.3-2.2m-1.2-1.5c1.2.1 1.9.8 2.8 1.5m-1.9-3.9c.5.8 1.3 1 1.8 1.6m-.1-1.3c.9.5 2.3 1.8 2.5 2.8m-2.6-3.9c.7.6 1.7 1.3 2.2 2m1.6 1c.6.9 1.2 1.9 1 3m-1.1-.9c.5 1 .5 1.8.4 2.8m-2.2-19.3c.9.7 1.7 1.8 2.8 1.7m-.5-1.1c.9.2 2.1.6 2.7 1.3m-3.9-4c.5.7 1.3 1.4 2.1 1.6m-3.3-3.7c1.2-.2 1.8 1.8 2.8 2.2m-.3-1.3c.4.2.8.5 1.3.7.5.2 1 .1 1.4.4m-5.1-5.8c.4.1 1-.2 1.6-.1.6.1 1.3.3 1.8.7m-1.1-1.5c1.1 0 1.6.7 2.3 1.4m-4.1-3.2c.8-.4 2.1-.1 2.8.5m-.6-1.5c.9.3 1.8.9 2.2 1.8m.5 4.4c1 .4 2 1.2 3.1.4m-2 1c1.1.1 2.1.3 3-.5m-2.2 3.1c1.2.1 1.8.6 2.7 1.2m-1-1.6c1.1.1 1.8 1.2 2.5 1.9M95.6 385c.1.9 1.3 1.5 2 1.5m-1.1-1c.6.7 1.8.2 2.3 1.3m-2.6-2.8c.6.5 1.1 1 1.8.9m7 10.8c.1-.9-.5-1.5-1.1-1.9m1.4.4c-.7-.7-.9-1.3-1.8-1.6m-.7-1.4c.7.4 1.8.6 1.8 1.6m-.4-1.7c.5.4 1.2.6 1.3 1.4m-.9-4.7c.9.4 1.5 1.3 2.5 1.1m-1.2-1c.2.5 1.8.3 2.1 0m-1-2.7c.7 0 1.7-.1 2 .6m-1.3-1.2c.9-.3 1.4.2 1.9.7m-6.2 2.2c.4.1 1.8 1.4 2 1.8m-1.9-3.4c.6.7 1.8 1.4 2.6 1.1m-3-2.4c.6.8 1.7 1.4 2.5 1.3m-9.5 3.9c.9-.4 2.1.5 2.5 1.3m-1-1.7c1-.1 2 1 2.2 1.8m-9.3.6c.8.5.9 1.4.9 2.2m.5-1.3c0 .3.2.8.3 1.1.1.5 0 1-.1 1.5m-.8 3.2c-.1.9.4 1.6.9 2.3m0-1.5c.1.6.5.7.8 1.1.3.5.3 1.4.1 1.8m.4-2.1c.5.5.4 1.2.3 1.8m-5.6-3.8c-.2.7-.3 1.9.4 2.3m-1.8-1.8c.3 1-.2 1.8-.9 2.3m2.7 4.4c.2-.6.9-1.1 1.5-1.4m-4.6-4c.6-.3.7-1.4.8-1.9m8.8-33.3c.3.6 1.1 1.3 1.8 1.4m-.8-1.2c.6.5 1.5.8 2.2.7m-3.2-3.2c1-.5 2.1.5 2.8 1.1m-1.5-1.6c1.3-.1 1.9 1.4 3.2 1.4m.8 1.4c.6.1 1.8.7 2.3.2m-1.2.7c.6.3 1.8.3 2.2-.3m-10.1 3.5c.6 0 1 .8 1.4 1.1.6.4 1.3.6 1.9.4m-1.8-1.1c1.1.6 2.1-.3 3.1.1m1.8-.3c1.1 0 1.8.4 2.6 1.1m-.1-1.1c1.1.4 1.9 1.4 3.2.7m-1.5.9c1 0 1.7.3 2.3-.7m-15.9-11c1.4-.3 2.2 1.1 3.6 1m-1.5-1.1c.5.6 1.8.5 2.5.3m-1.4 1.8c1-.4 2.5.2 3.5.4" opacity=".33"/></g></switch></svg>
