<svg xmlns="http://www.w3.org/2000/svg" version="1.0" viewBox="0 0 26.5 17"><switch><g><linearGradient id="a" x1="101.535" x2="93.784" y1="1614.132" y2="1594.201" gradientTransform="rotate(57.323 1515.757 729.91)" gradientUnits="userSpaceOnUse"><stop offset="0" stop-color="#333"/><stop offset="1" stop-color="#676767"/></linearGradient><path fill="url(#a)" stroke="#000" stroke-miterlimit="10" stroke-width=".25" d="M10 14.2s-2.1.4-3.8 1.4c-1.7 1-2.4 1.5-2.7 1.2-.3-.2-.4-.8-.3-.8.1-.1-1.3.4-1.9-1.1S-.2 9.8 0 9.5c.3-.3 1.8-.9 2.6-1.2.8-.2 1.6-.7 2.4-.9s1.4-.6 2.1-1.1c.7-.5 1.6-1.1 2-1.3.5-.2 2.9-1.1 3.1-1.2.3-.2 2.9-1 3.5-1.4.6-.4 2.3-1 2.9-1.3.7-.3 2.7-1.3 3.1-1 .4.3.8 1 .4 1.4-.4.4-1.4 1-1.9 1.2-.5.2-2.3 1-2.5 1.2-.3.2.9.4 1.7 0 .8-.4 4.4-2.1 4.8-2.2.4 0 1 .4 1.2.7.2.3.2 1.1-.7 1.6-1 .6-3.6 1.8-3.6 1.8l-2.1.9s.7.3 2-.3c1.3-.4 2.3-.7 4-1.8.4-.1 1-.3 1.3.3.3.6.2 1.1-.2 1.5-.4.4-2.2 1.4-2.9 1.7-.8.3-2.8 1-3.3 1.2-.4.2.7.8 1.4.4 3.3-.7 3.5-1.2 4.2-1 .7.2 1.2.5.8 1.3-.4.8-1.5 1.6-3.1 2-1.6.4-3.7.3-4.4.5-.7.2-5.5.6-6.1.8l-2.7.9z"/><linearGradient id="b" x1="105.721" x2="97.97" y1="1612.503" y2="1592.574" gradientTransform="rotate(57.323 1515.757 729.91)" gradientUnits="userSpaceOnUse"><stop offset="0" stop-color="#333"/><stop offset="1" stop-color="#676767"/></linearGradient><path fill="url(#b)" stroke="#000" stroke-miterlimit="10" stroke-width=".25" d="M13.6 10.1s1.4 1 2.7 1c1.4.1 4 .5 4.8 2.1s-.4 1-1.3 1c-.9-.1-1.8-.2-3.1-.1-1.4.1-3.6.2-4.5 0 0 0-1.7-.5-2.3-.3"/><path fill="none" stroke="#000" stroke-miterlimit="10" stroke-width=".25" d="M3.2 16c.8-.4 1.5-.8 2.3-1.2.8-.4 1.8-.6 2.6-1"/><path fill="#333" stroke="#000" stroke-miterlimit="10" stroke-width=".25" d="M6.1 7c-.3 1.3.2 3.3.6 4.4.4 1.2 1.2 2.3 2.1 3.1-.4.2-.4.3-1.1.4 0 0-3.1-2.9-2.6-7.5.7-.6.9-.6 1-.4z"/><path fill="none" d="M17.4 3.6c.2.3.4.6.5.8"/><path fill="#98CB66" stroke="#659941" stroke-miterlimit="10" stroke-width=".25" d="M6.5 14.1c-.2-.5.1-1 .5-1.1.5-.2 1 .1 1.1.6.2.5-.1 1-.5 1.1-.4.2-.9-.1-1.1-.6zm1.1-.5c.1-.1.1-.2.1-.3-.1-.1-.2-.1-.3-.1-.1.1-.1.2-.1.3.1.1.2.1.3.1zm.3.5c.1-.1.2-.2.1-.3-.1-.1-.2-.1-.3-.1-.1.1-.1.2-.1.3.1.1.2.2.3.1zm-.8-.2c.1-.1.1-.2.1-.3-.1-.1-.2-.1-.3-.1-.1.1-.1.2-.1.3.1.1.2.1.3.1zm.4.5c.1-.1.1-.2.1-.3-.1-.1-.3-.1-.4-.1-.1.1-.1.2-.1.3.1.1.3.2.4.1z"/><path fill="none" stroke="#000" stroke-miterlimit="10" stroke-width=".25" d="M26.3 9.7c-.2.4-1.1 1-1.6 1.2-.6.3-1.3.4-2 .4-.6.1-1.1.2-1.7.3-.4.1-1.1 0-1.4.2m6.8-6.3c-.1.6-1 1.1-1.5 1.4-.7.5-1.6.6-2.4.9-.7.3-1.5.5-2.2.9-.2.1-.8.2-.8.6 0 .2.6.5.8.5m5.1-7.1c-.2 0-.5.5-.6.6-.3.3-.7.6-1.1.8-.7.4-1.5.7-2.3 1-.6.3-1.2.4-1.8.6-.2.2-.6.3-.8.5-.1.2-.2.5.1.5m3.3-6c0 .9-1.9 1.5-2.6 1.8-.5.2-1 .4-1.4.7-.2.1-.6.3-.7.4-.1.2-.2.5.2.4m3.7 10.2c-.6-.4-1.6-.6-2.3-.9-1-.4-2-.4-3.1-.2-1 .1-2 .3-2.9.1-.9-.2-1.8-.2-2.8-.2-.3 0-2.2.3-2 .5m-1.8.4l-2.4 1.2c-.6.3-1.7.8-2.3.4m1.8.4c-.2.3 0 .9.4 1m1.5-9.7c-.5.4-.1 2.6.1 3.2.2.6.7 2.4 1.3 2.6"/></g></switch></svg>
