<svg xmlns="http://www.w3.org/2000/svg" version="1.0" viewBox="-.8 129 15.4 33"><switch><g><path fill="#E7E7E7" stroke="#A7A8A8" stroke-width=".25" d="M9.5 138.1s-.4-.1.6 0 2.4.4 3.1 1.1c.8.7.8 19.8.8 20.5s-.2 1.6-1.1 2c-1 .4-9.9.5-10.8.1-.9-.4-2-1.2-2.1-1.7-.1-.6 0-20.1 0-20.1s.6-.6 1.1-1c.5-.3 2.8-1 3-.9.1.1 5.4 0 5.4 0z"/><path fill="#FFF" stroke="#FFF" d="M1.5 139.2s3.5.9 5.8.7c2.3-.3 5-.3 5-.3l.8-.4s-3.4 1.4-5.8 1.4c-2.4.1-5.3-.7-5.8-.7s-1-.6-1-.6l1-.1z" opacity=".14"/><path fill="#128CC8" d="M11.8 158c0 .2-.2.4-.3.4h-9c-.2 0-.3-.2-.3-.4v-15.9c0-.2.2-.4.3-.4h8.9c.2 0 .3.2.3.4l.1 15.9z"/><ellipse cx="6.7" cy="135.3" fill="#DFDFDF" rx="2.9" ry=".5"/><path fill="#EFEFEF" d="M3.5 138.3s.2.6 3.5.5c3.3-.1 3.1-.5 3.1-.5l-.1-2.4s-2.3-.7-3.3-.6c-1.3-.3-2.6.1-2.7 0l-.3.5-.2 2.5z"/><path fill="#128CC8" d="M6.5 129s-.7.7-.9 1.3c-.1.6-.2 1.1-.2 1.1l-.3 3.2s.5.6 1.4.5c.9-.1 1.9-.5 1.9-.5s-.4-3.1-.5-3.4c0-.3-.7-1.6-.8-1.8-.1-.2-.4-.4-.4-.4h-.2z"/><path fill="#E7E7E7" d="M9.6 135.3l.2.6s-2.1.5-3.1.4c-1.1-.1-2.9-.4-2.9-.4h-.1l.2-.6s1.2.6 2.9.5c1.7-.1 2.6-.3 2.6-.3l.2-.2z"/><path fill="#FFF" stroke="#FFF" d="M5.9 129.5c.6-.8.8.1.7.6 0 .6-.2 1.1-.2 1.7-.1 1.1-.3 2.2-.3 3.3-1.5.5-.8-2.3-.8-2.9 0-1.2 0-2.8 1.4-3.2" opacity=".14"/><path fill="#0380A9" d="M5 134.6s1 .5 1.9.4c.8-.1 1.5-.4 1.5-.4v.6s-1.1.4-1.7.4c-.5 0-1.7-.4-1.7-.4v-.6z"/><path fill="none" stroke="#D8DAD9" stroke-width=".25" d="M4.4 135.9v2.8m.7-2.5l-.1 2.6m1-2.6v2.6m.7-2.6v2.6m.8-2.6l.1 2.6m.8-2.7v2.6m.7-2.7l.2 2.7m-5.5-2.9v2.9m6-2.9l.3 2.5"/><path fill="#FFF" d="M5.3 148.9v1.9c0 .5-.1.8-.3 1-.2.2-.5.3-.7.3-.2 0-.5-.1-.6-.2l.1-.3c.1.1.3.2.6.2.4 0 .6-.2.6-.8v-.2c-.1.2-.3.4-.6.4-.5 0-.8-.5-.8-1.1-.1-.8.3-1.3.8-1.3.3 0 .5.2.6.4v-.3h.3zm-.4.9v-.2c-.1-.2-.2-.4-.5-.4s-.6.3-.6.8c.1.4.2.8.6.8.2 0 .4-.2.5-.4v-.6zm1-1.8h.4v3.2h-.4V148zm2.5 2.5v.6h-.2v-.4c-.1.2-.3.4-.6.4s-.7-.2-.7-1v-1.3h.4v1.2c0 .4.1.7.4.7.2 0 .4-.2.5-.4v-1.5h.4v1.7h-.2zm.8-.4c0 .5.3.8.7.8.3 0 .4 0 .5-.1l.1.3c-.1.1-.3.1-.6.1-.6 0-1-.4-1-1.1s.3-1.3.9-1.3c.6 0 .8.6.8 1v.2l-1.4.1zm1.1-.3c0-.3-.1-.6-.5-.6s-.5.4-.5.6h1z"/></g></switch></svg>
