<svg xmlns="http://www.w3.org/2000/svg" viewBox="0 0 122 80"><switch><g><path fill="#401315" d="M70.61 24.382c-.157 2.28-2.05 3.854-4.178 3.697-2.128-.16-3.704-2.05-3.625-4.25.157-2.2 2.05-3.78 4.177-3.7 2.286.16 3.862 2.12 3.625 4.25z"/><path fill="#070808" d="M63.2 22.966c0 .707.315-.707.71 1.494.395 1.337.945 2.517 1.575 1.888 1.263.394 1.734-.08 2.207.473.552-.47 1.184-1.18 1.34-1.33.315.16.396 1.26.788-1.02.157-.23.315-.47.553-.55.078.95.235.24.235.08 0 .16 0 1.26-.08 1.18-.076 0-.234-.15-.786 1.73-1.183 2.68-1.654 2.68-2.285 1.34-.71-.71-1.576.48-2.207-.31-.553-1.57-1.262.08-1.576-1.26-.473-.23-.71-1.81-.788-1.65-.078.47.08-1.34 0-1.1-.078.87.08-1.02.08-.55.078-1.26.235-.47.235-.39z" opacity=".08"/><path fill="#fff" d="M65.408 22.81l.867-.55.71-1.417-1.183-.08-1.813 2.125 1.81 1.258z" opacity=".08"/><path fill="#401315" d="M87.71 24.304c-.157 2.517-2.285 4.483-4.808 4.248-2.52-.158-4.414-2.36-4.256-4.878.236-2.516 2.365-4.483 4.887-4.325 2.444.23 4.413 2.43 4.177 4.95z"/><path fill="#070808" d="M78.963 22.73c-.078.708.473-.865.79 1.653.472 1.493 1.18 2.91 1.89 2.123 1.418.394 1.97-.08 2.52.472.63-.55 1.42-1.337 1.655-1.495.314.158.474 1.416.866-1.18.315-.393.475-.47.63-.63.158 1.024.316.16.316.08 0 .08 0 1.418-.08 1.18-.078 0-.314-.156-1.023 2.046-1.34 3.22-1.892 3.22-2.6 1.49-.867-.71-1.893.55-2.52-.4-.71-1.81-1.42.15-1.894-1.42-.553-.24-.79-2.05-.867-1.89-.078.55.078-1.58.078-1.34-.078 1.02.236-1.18.158-.63.003-1.34.08-.16.08-.08z" opacity=".08"/><path fill="#fff" d="M81.564 22.415l.946-.63.945-1.572-1.418-.078-2.05 2.517 2.05 1.26z" opacity=".08"/><path fill="#682f2c" d="M77.387 28.866c-.236 2.595-2.443 4.562-4.965 4.405-2.52-.23-4.492-2.43-4.334-5.19.236-2.59 2.44-4.56 4.965-4.32 2.6.16 4.492 2.44 4.334 5.11z"/><path fill="#fff" d="M71.082 26.9l.946-.71 1.025-1.57-1.498-.16-2.127 2.518 2.127 1.416z" opacity=".08"/><path fill="#070808" d="M68.088 27.922s2.44 3.382 4.177 3.304c1.733-.158 2.6-.394 3.704-1.024 1.1-.708 1.26-1.18 1.26-1.18s-.16 1.73-.79 2.36c-.63.63-1.66 1.653-2.68 1.73-.95.16-2.21.16-2.84-.234-.63-.393-1.66-1.023-2.13-1.966-.48-.865-.71-1.495-.71-2.045v-.945z" opacity=".11"/><linearGradient id="a" x1="356.66" x2="360.443" y1="30.596" y2="30.596" gradientTransform="translate(-543.386 -739.404) scale(.0058)" gradientUnits="userSpaceOnUse"><stop offset="0" stop-color="#fff"/><stop offset=".033" stop-color="#8e8d45"/><stop offset="1"/></linearGradient><path fill="url(#a)" d="M56.74 30.518l2.678-1.18h1.026L59.34 30.75l-1.576.71-1.103.392z"/><path fill="#682f2c" d="M64.146 36.103c-.235 2.672-2.44 4.563-4.964 4.404-2.52-.156-4.492-2.438-4.334-5.033.236-2.596 2.442-4.562 4.965-4.406 2.52.236 4.492 2.44 4.333 5.035z"/><path fill="#fff" d="M57.764 34.293l1.025-.786.94-1.573-1.5-.08-2.05 2.518 2.05 1.416z" opacity=".08"/><path fill="#070808" d="M54.848 35.158s2.442 3.382 4.098 3.304c1.813-.08 2.68-.393 3.783-1.023 1.1-.63 1.26-1.11 1.26-1.11s-.16 1.65-.79 2.28c-.71.7-1.74 1.73-2.76 1.81-.87.07-2.13.07-2.76-.32-.79-.32-1.73-1.02-2.13-1.97-.48-.79-.71-1.5-.71-2.05-.08-.47 0-.95 0-.95z" opacity=".11"/><path fill="#3e1319" d="M61.468 33.978l3.31.314 2.206-1.338 4.65-2.753 1.022-.23 8.827-4.09 2.76-.47 2.204-3.07 3.153-2.99.55-2.44s3.94-.23 4.1-.78c.314-.71.944-.86 1.813-.78.788.08 3.152-.31 3.152-.31l2.994 3.54 4.88 3.93 1.34 3.31 2.68 6.14-.24 4.33-1.9-.16 4.1 4.88.39 3.93 2.83 2.13-1.11 2.99-2.29 2.67 2.21 3.31.86 4.64-4.73 3.697-3.23-.16-4.34 1.18-3.94-1.1s-1.97-.63-3.62-1.572c-1.74-.94-4.42-1.33-4.73-2.36-.24-1.02-1.81-2.274-3.23-3.533-1.42-1.18-4.1-2.28-4.1-2.28s-2.21-1.57-2.68-1.81c-.47-.08-3.31-.08-3.31-.08s-1.5-.08-2.44-.31c-.87-.16-3.31-.47-3.31-.47l-4.02-2.91-6.47-2.676-2.284-5.9 1.9-6.38z"/><path fill="#401315" d="M111.746 52.07a4.13 4.13 0 01-4.256 3.696c-2.127-.157-3.703-2.046-3.625-4.248a4.017 4.017 0 014.178-3.775c2.285.236 3.86 2.046 3.703 4.327z"/><path fill="#070808" d="M104.182 50.652c0 .63.314-.706.71 1.496.394 1.337.944 2.517 1.575 1.887 1.26.314 1.654-.078 2.127.474.63-.48 1.262-1.26 1.42-1.34.314.08.395 1.18.787-1.02.16-.32.32-.48.56-.56.08.94.24.15.24.08 0 0 0 1.25-.08 1.1-.07 0-.23-.08-.86 1.81-1.1 2.67-1.57 2.67-2.2 1.26-.71-.63-1.57.47-2.2-.24-.63-1.57-1.26.08-1.57-1.34-.47-.16-.71-1.73-.78-1.57-.08.47.08-1.42 0-1.1-.08.86.08-1.03.08-.56.24-1.42.32-.48.24-.4z" opacity=".08"/><path fill="#fff" d="M106.467 50.498l.866-.71.71-1.258-1.182-.08-1.81 2.124 1.81 1.104z" opacity=".08"/><path fill="#401315" d="M98.113 32.877c-.236 2.202-2.05 3.776-4.256 3.697-2.128-.157-3.704-2.044-3.625-4.248.236-2.28 2.05-3.854 4.178-3.775 2.206.24 3.86 2.05 3.703 4.33z"/><path fill="#070808" d="M90.548 31.383c0 .63.313-.787.71 1.494.394 1.337.944 2.518 1.575 1.888 1.26.314 1.733-.157 2.207.394.552-.4 1.182-1.18 1.34-1.26.313.08.394 1.18.788-1.03a1.2 1.2 0 01.55-.55c.08.94.237.15.237.08 0 0 0 1.18-.078 1.1-.08 0-.236-.08-.788 1.81-1.19 2.67-1.66 2.67-2.29 1.25-.71-.63-1.58.47-2.21-.24-.55-1.58-1.26.08-1.58-1.34-.48-.16-.71-1.73-.79-1.57-.08.55.08-1.42 0-1.11-.08.78.08-1.03.08-.55.23-1.34.23-.4.23-.4z" opacity=".08"/><path fill="#fff" d="M92.833 31.226l.788-.63.79-1.26-1.18-.077-1.81 2.12 1.82 1.1z" opacity=".08"/><path fill="#401315" d="M71.792 39.092c-.237 2.28-2.05 3.854-4.256 3.775-2.128-.235-3.704-2.046-3.626-4.327.235-2.124 2.05-3.776 4.178-3.696 2.285.156 3.86 2.045 3.704 4.248z"/><path fill="#070808" d="M64.305 37.675c0 .708.394-.708.71 1.493.394 1.34.945 2.52 1.654 1.89 1.18.394 1.65-.08 2.12.473.55-.47 1.18-1.18 1.34-1.33.31.16.39 1.26.79-1.02.15-.23.39-.39.55-.55.08.95.31.24.31.16 0 .08 0 1.19-.16 1.1-.08 0-.24-.08-.79 1.73-1.11 2.76-1.58 2.76-2.29 1.34-.71-.71-1.58.47-2.21-.31-.56-1.57-1.19.08-1.58-1.26-.48-.23-.63-1.81-.79-1.57-.08.39.16-1.42 0-1.18-.08.86.16-1.02.16-.55.08-1.41.15-.47.15-.39z" opacity=".08"/><path fill="#fff" d="M66.512 37.518l.866-.63.71-1.336-1.183-.078-1.733 2.123 1.733 1.178z" opacity=".08"/><path fill="#682f2c" d="M101.424 18.562c-.158 2.596-2.443 4.56-4.966 4.326-2.52-.157-4.413-2.44-4.256-5.035.157-2.595 2.442-4.56 4.966-4.325 2.52.158 4.492 2.36 4.256 5.034z"/><path fill="#fff" d="M95.198 16.674l.946-.786.945-1.574-1.42-.077-2.13 2.515 2.13 1.416z" opacity=".08"/><path fill="#070808" d="M92.202 17.697s2.442 3.303 4.1 3.224c1.812-.07 2.6-.31 3.702-1.02 1.023-.63 1.34-1.1 1.34-1.1s-.158 1.65-.867 2.36c-.63.63-1.654 1.65-2.68 1.73-.944.08-2.127.08-2.757-.23-.71-.39-1.734-1.02-2.207-1.96-.474-.86-.63-1.49-.63-2.04v-.95z" opacity=".11"/><path fill="#401315" d="M76.914 35c-.236 2.283-2.05 3.856-4.256 3.775-2.13-.233-3.704-2.122-3.625-4.326.235-2.21 2.05-3.86 4.1-3.7 2.363.16 3.94 2.04 3.78 4.25z"/><path fill="#070808" d="M69.428 33.507c0 .708.394-.708.71 1.493.393 1.338.944 2.518 1.654 1.89 1.182.393 1.653-.08 2.128.47.55-.47 1.182-1.256 1.418-1.336.236.08.314 1.26.71-1.023.235-.23.394-.47.55-.55.08.95.316.16.316.08 0 .08 0 1.26-.078 1.11-.158 0-.316-.08-.867 1.81-1.11 2.68-1.58 2.68-2.21 1.34-.79-.7-1.66.4-2.29-.31-.55-1.57-1.19.08-1.58-1.33-.48-.15-.63-1.73-.71-1.57-.16.47.08-1.33 0-1.1-.16.87.08-1.02.08-.55.08-1.34.15-.39.15-.39z" opacity=".08"/><path fill="#fff" d="M71.634 33.35l.867-.552.79-1.337-1.26-.07-1.73 2.12 1.74 1.1z" opacity=".08"/><path fill="#682f2c" d="M106.545 23.36c-.156 2.596-2.363 4.562-4.885 4.406-2.523-.237-4.492-2.44-4.336-5.114.236-2.596 2.443-4.562 4.965-4.404 2.52.314 4.49 2.516 4.25 5.112z"/><path fill="#fff" d="M100.24 21.472l1.026-.708.945-1.574-1.49-.08-2.05 2.52 2.05 1.336z" opacity=".08"/><path fill="#070808" d="M97.324 22.496s2.443 3.38 4.1 3.303c1.813-.08 2.6-.4 3.78-1.03 1.105-.63 1.263-1.1 1.263-1.1s-.158 1.65-.867 2.28c-.63.71-1.654 1.73-2.68 1.81-.945.07-2.127.07-2.758-.32-.71-.32-1.734-1.03-2.207-1.97-.395-.79-.63-1.5-.63-2.05-.08-.48 0-.95 0-.95z" opacity=".11"/><path fill="#682f2c" d="M81.643 26.978c-.158 2.596-2.44 4.56-4.965 4.405-2.52-.157-4.413-2.44-4.256-5.113.158-2.596 2.44-4.56 4.965-4.405 2.6.315 4.492 2.517 4.256 5.113z"/><path fill="#fff" d="M75.416 25.17l.945-.788 1.03-1.573-1.5-.08-2.12 2.51 2.13 1.41z" opacity=".08"/><path fill="#070808" d="M72.422 26.034s2.44 3.382 4.098 3.304c1.814-.08 2.602-.394 3.705-1.022 1.182-.63 1.34-1.102 1.34-1.102s-.158 1.652-.867 2.28c-.63.71-1.654 1.733-2.68 1.81-.945.08-2.13.08-2.838-.313-.63-.39-1.654-1.02-2.127-1.96-.473-.78-.63-1.49-.63-2.04v-.94z" opacity=".11"/><path fill="#682f2c" d="M61.153 40.507c-.235 2.596-2.442 4.563-4.965 4.405-2.52-.235-4.492-2.438-4.335-5.035.236-2.595 2.443-4.562 4.965-4.404 2.522.08 4.492 2.437 4.335 5.034z"/><path fill="#fff" d="M54.77 38.62l1.023-.71.947-1.572-1.497-.235-2.05 2.672 2.05 1.34z" opacity=".08"/><path fill="#070808" d="M51.853 39.563s2.443 3.382 4.1 3.304c1.813-.157 2.68-.393 3.78-1.023 1.025-.708 1.263-1.18 1.263-1.18s-.157 1.73-.788 2.36c-.63.63-1.733 1.652-2.76 1.73-.865.157-2.127.157-2.758-.235-.63-.4-1.653-1.03-2.128-1.97-.473-.87-.71-1.5-.71-2.05-.078-.47 0-.95 0-.95z" opacity=".11"/><path fill="#700f11" d="M62.256 49.946c-.158 2.752-2.602 4.876-5.438 4.72-2.758-.157-4.808-2.675-4.648-5.507.157-2.76 2.6-4.96 5.438-4.72 2.757.15 4.884 2.59 4.648 5.5z"/><path fill="#fff" d="M55.557 47.9l1.025-.863 1.024-1.653-1.654-.236-2.286 2.83 2.286 1.495z" opacity=".08"/><path fill="#070808" d="M52.247 48.923s2.602 3.618 4.492 3.54c1.89-.157 2.91-.393 4.02-1.18 1.1-.71 1.41-1.18 1.41-1.18s-.32 1.73-.95 2.517c-.79.708-1.89 1.73-2.92 1.967-1.03.078-2.37.078-3.08-.316-.71-.31-1.82-1.1-2.37-2.04-.4-.94-.71-1.57-.71-2.2.07-.71.07-1.1.07-1.1z" opacity=".11"/><path fill="#700f11" d="M67.3 48.923a5.162 5.162 0 01-5.438 4.72c-2.757-.157-4.807-2.674-4.648-5.507.157-2.754 2.6-4.957 5.437-4.72 2.68.16 4.81 2.675 4.65 5.507z"/><path fill="#fff" d="M60.444 46.878l1.024-.787 1.024-1.73-1.575-.15-2.208 2.75 2.2 1.5z" opacity=".08"/><path fill="#070808" d="M57.29 47.9s2.603 3.62 4.492 3.54c1.893-.157 2.916-.396 4.02-1.18 1.105-.71 1.42-1.18 1.42-1.18s-.315 1.728-.945 2.516c-.79.71-1.892 1.73-2.916 1.968-1.02.078-2.36.078-3.07-.316-.71-.314-1.81-1.102-2.36-2.046-.47-.942-.71-1.57-.71-2.2a8.55 8.55 0 01.08-1.102z" opacity=".11"/><path fill="#3e1319" d="M75.496 46.09c-.158 2.52-2.364 4.484-4.888 4.327-2.52-.233-4.334-2.438-4.177-4.955.24-2.517 2.37-4.483 4.89-4.326 2.45.16 4.34 2.36 4.18 4.955z"/><path fill="#070808" d="M66.748 44.44c-.08.708.473-.865.788 1.652.473 1.495 1.182 2.91 1.892 2.124 1.418.393 1.97-.08 2.52.47.632-.55 1.42-1.414 1.655-1.493.315.08.474 1.416.865-1.18.316-.393.475-.473.63-.63.08 1.024.317.157.317.08 0 .077 0 1.416-.08 1.178-.156 0-.314-.15-1.023 2.05-1.34 3.15-1.892 3.15-2.68 1.5-.788-.71-1.813.55-2.443-.39-.71-1.81-1.42.16-1.9-1.41-.55-.23-.79-2.12-.87-1.88-.08.55.08-1.57 0-1.34-.08 1.03.23-1.18.08-.62.16-1.18.23-.16.23-.08z" opacity=".08"/><path fill="#fff" d="M69.35 44.204l.944-.71.946-1.57-1.42-.08-2.048 2.517 2.05 1.26z" opacity=".08"/><path fill="#401315" d="M81.406 52.463c-.236 2.517-2.363 4.405-4.887 4.248-2.53-.15-4.42-2.44-4.18-4.95.15-2.51 2.28-4.48 4.8-4.24 2.52.08 4.41 2.28 4.25 4.96z"/><path fill="#070808" d="M72.658 50.733c-.077.785.475-.787.867 1.73.474 1.493 1.104 2.83 1.893 2.123 1.418.393 1.97-.078 2.52.47.63-.548 1.42-1.414 1.656-1.492.314.078.473 1.415.867-1.26.24-.313.48-.47.63-.627.08 1.022.32.157.32.076 0 .08 0 1.416-.16 1.26-.08 0-.23-.234-1.02 2.044-1.26 3.147-1.81 3.147-2.6 1.496-.78-.787-1.81.55-2.52-.395-.63-1.89-1.34.08-1.81-1.494-.47-.156-.79-2.045-.86-1.89-.08.553.08-1.57.08-1.257-.08 1.022.16-1.26.08-.71 0-1.175.08-.155.08-.074z" opacity=".08"/><path fill="#fff" d="M75.338 50.574l.945-.785.867-1.58-1.34-.08-2.048 2.51 2.05 1.34z" opacity=".08"/><path fill="#401315" d="M70.768 52.776c-.237 2.28-2.05 3.854-4.256 3.777-2.128-.237-3.704-2.045-3.626-4.326.158-2.203 2.05-3.777 4.177-3.7 2.207.16 3.862 2.125 3.705 4.25z"/><path fill="#070808" d="M63.2 51.44c0 .63.315-.788.71 1.493.395 1.26.945 2.52 1.575 1.81 1.263.394 1.734-.078 2.207.472.552-.47 1.184-1.18 1.34-1.258.315.078.396 1.18.788-1.023a1.44 1.44 0 01.553-.628c.078.942.235.235.235.155 0 .08 0 1.19-.08 1.11-.076 0-.234-.08-.786 1.73-1.183 2.76-1.654 2.76-2.285 1.34-.71-.63-1.576.48-2.207-.31-.553-1.57-1.262.08-1.576-1.26-.473-.23-.71-1.81-.788-1.57-.078.55.08-1.41 0-1.18-.078.87.08-1.02.08-.55.235-1.33.235-.47.235-.31z" opacity=".08"/><path fill="#fff" d="M65.486 51.204l.79-.552.787-1.415-1.182-.078-1.73 2.12 1.74 1.18z" opacity=".08"/><path fill="#401315" d="M107.49 23.124a4.513 4.513 0 01-4.807 4.25c-2.52-.158-4.414-2.44-4.256-4.958.236-2.516 2.363-4.483 4.885-4.248 2.524.157 4.416 2.28 4.178 4.956z"/><path fill="#070808" d="M98.744 21.394c-.08.787.473-.787.865 1.73.39 1.496 1.1 2.833 1.81 2.124 1.42.394 1.97-.077 2.52.473.71-.55 1.42-1.49 1.65-1.49.31.08.47 1.42.86-1.26l.63-.63c.15 1.03.31.16.31.08 0 .08 0 1.42-.08 1.26-.08 0-.32-.23-1.03 2.05-1.34 3.15-1.89 3.15-2.6 1.5-.87-.78-1.9.55-2.53-.39-.71-1.89-1.42.08-1.89-1.49-.55-.15-.79-2.04-.87-1.89-.08.55.08-1.57 0-1.26-.08 1.03.23-1.25.08-.7.16-1.18.24-.15.24-.08z" opacity=".08"/><path fill="#fff" d="M101.344 21.236l1.025-.787.86-1.58-1.42-.08-2.05 2.51 2.05 1.33z" opacity=".08"/><path fill="#682f2c" d="M90.47 56.002c-.237 2.596-2.444 4.563-4.966 4.325-2.52-.155-4.492-2.437-4.334-5.112.234-2.595 2.44-4.563 4.964-4.405 2.6.316 4.492 2.518 4.335 5.192z"/><path fill="#fff" d="M84.164 54.115l.945-.787 1.02-1.574-1.5-.076-2.13 2.516 2.12 1.415z" opacity=".08"/><path fill="#070808" d="M81.17 55.058s2.44 3.305 4.098 3.226c1.813-.078 2.68-.393 3.782-1.022s1.262-1.102 1.262-1.102-.158 1.653-.788 2.36c-.71.63-1.733 1.652-2.76 1.73-.944.077-2.127.077-2.758-.235-.787-.395-1.732-1.1-2.127-1.967-.48-.866-.71-1.494-.71-2.044v-.946z" opacity=".11"/><path fill="#682f2c" d="M112.14 42.003c-.156 2.75-2.6 4.955-5.358 4.718-2.836-.15-4.885-2.67-4.648-5.42a5.095 5.095 0 015.36-4.8c2.755.16 4.883 2.6 4.647 5.51z"/><path fill="#fff" d="M105.363 39.958l1.026-.866 1.02-1.652-1.58-.158-2.29 2.754 2.28 1.494z" opacity=".08"/><path fill="#070808" d="M102.133 40.98s2.6 3.617 4.412 3.538c1.892-.078 2.916-.393 4.02-1.1 1.183-.788 1.42-1.26 1.42-1.26s-.237 1.81-.946 2.517c-.71.787-1.82 1.81-2.92 1.965-1.03.08-2.29.08-3.08-.233-.71-.395-1.74-1.18-2.29-2.045-.48-.944-.79-1.653-.79-2.283.15-.63.15-1.1.15-1.1z" opacity=".11"/><path fill="#441215" d="M115.608 51.283c-1.813 1.493-4.57 1.18-5.988-.71-1.34-1.886-1.104-4.56.788-6.054a4.257 4.257 0 015.988.7c1.498 1.88 1.104 4.56-.788 6.05z"/><path fill="#441215" d="M111.353 44.047c-.552.473.788-.157-.71 1.653-.71 1.337-1.26 2.674-.234 2.75.55 1.182 1.33 1.26 1.18 2.124.86.078 1.89.078 2.05.235.15.31-.71 1.26 1.42-.16.39 0 .63 0 .86.08-.71.78.08.39.08.31 0 0-1.03.79-.95.7-.08 0-.08-.24-2.05.55-3 1.18-3.39.7-2.68-.87 0-1.19-1.5-1.03-1.42-2.13.94-1.57-.95-.87-.08-2.2-.24-.48.94-1.89.71-1.73-.48.23 1.1-.95.94-.79-.71.55.94-.63.55-.4 1.02-.87.31-.16.31-.16z" opacity=".08"/><path fill="#441215" d="M113.086 45.856l1.103.158 1.65-.316-.79-1.1-3.08.08.39 2.36z" opacity=".08"/><path fill="#802b2c" d="M110.013 60.25c-.157 2.83-2.6 4.955-5.358 4.72-2.838-.16-4.887-2.676-4.73-5.428.237-2.83 2.6-4.955 5.44-4.798 2.756.235 4.963 2.595 4.648 5.507z"/><path fill="#fff" d="M103.314 58.205l1.024-.866 1.025-1.73-1.576-.08-2.363 2.75 2.363 1.49z" opacity=".14"/><path fill="#070808" d="M100.004 59.228s2.68 3.618 4.492 3.538c1.893-.08 2.916-.393 4.02-1.102 1.104-.785 1.418-1.26 1.418-1.26s-.313 1.812-.945 2.518c-.71.788-1.9 1.81-2.92 1.968-1.03.078-2.29.078-3.07-.236-.71-.395-1.74-1.18-2.29-2.043-.48-.94-.79-1.57-.79-2.28.08-.63.08-1.1.08-1.1z" opacity=".11"/><path fill="#401315" d="M95.907 55.137c-.157 2.91-2.68 5.114-5.438 4.955-2.84-.234-4.97-2.75-4.81-5.583.15-2.92 2.68-5.2 5.51-4.96 2.76.16 4.96 2.67 4.73 5.58z"/><path fill="#070808" d="M85.82 53.25c-.08.863.63-.944.944 1.965.552 1.653 1.34 3.304 2.207 2.438 1.58.473 2.21-.078 2.84.552.79-.63 1.58-1.65 1.89-1.65.24.156.48 1.65.95-1.418.24-.393.55-.55.71-.785.08 1.258.4.235.4.157 0 .07 0 1.57-.08 1.33-.07 0-.31-.16-1.1 2.36-1.49 3.62-2.2 3.62-2.99 1.81-.94-.95-2.2.55-2.91-.4-.71-2.13-1.65.08-2.13-1.81-.55-.24-.86-2.36-.94-2.13-.15.63.08-1.89.08-1.5-.08 1.1.16-1.26.08-.71.08-1.5.24-.32.08-.24z" opacity=".08"/><path fill="#fff" d="M88.972 53.093l1.024-.865 1.104-1.73-1.734-.08-2.286 2.752 2.286 1.574z" opacity=".08"/><path fill="#401315" d="M98.113 57.496c2.68 1.024 4.1 3.935 3.072 6.687a5.28 5.28 0 01-6.775 3.066c-2.68-1.03-4.1-4.02-3.073-6.69.945-2.84 4.017-4.17 6.776-3.07z"/><path fill="#070808" d="M93.385 66.62c.788.236-.71-.784 2.207-.392 1.732 0 3.39-.316 2.836-1.418.867-1.415.553-2.124 1.34-2.595-.395-.942-1.104-1.965-1.023-2.36.156-.235 1.654 0-1.023-1.258-.316-.395-.396-.707-.475-.944 1.184.16.314-.314.158-.314.156 0 1.496.47 1.34.55 0 .15-.314.31 1.97 1.81 2.995 2.51 2.76 3.06.788 3.46-1.104.63 0 2.2-1.182 2.67-2.2.08-.39 1.57-2.2 1.57-.39.47-2.52.23-2.36.39.63.39-1.65-.55-1.42-.48 1.03.39-1.18-.55-.63-.4-1.5-.63-.39-.32-.31-.32z" opacity=".08"/><path fill="#fff" d="M94.094 63.633l-.473-1.34-1.41-1.493-.55 1.494 2.05 3.068 2.05-1.73z" opacity=".08"/><path fill="#441215" d="M113.56 52.776c2.285 1.89 2.52 5.27.63 7.394-1.813 2.203-5.122 2.44-7.25.552-2.207-1.89-2.52-5.19-.63-7.394 1.733-2.202 5.043-2.36 7.25-.552z"/><path fill="#070808" d="M106.072 59.855c.71.552-.473-1.022 2.207.396 1.65.55 3.31.95 3.15-.23 1.26-1.1 1.18-1.89 2.13-2.12-.08-1.02-.4-2.2-.16-2.59.23-.15 1.57.55-.55-1.57-.24-.47-.16-.7-.24-1.02 1.02.63.39-.15.31-.15.08 0 1.18 1.03 1.02.95 0 .08-.32.16 1.18 2.28 2.05 3.38 1.57 3.94-.32 3.54-1.34.31-.79 2.13-2.13 2.13-2.13-.63-.87 1.42-2.6.79-.56.32-2.37-.78-2.29-.47.47.55-1.42-1.1-1.11-.94.79.79-.95-.94-.63-.55-1.02-1.1-.08-.47 0-.39z" opacity=".08"/><path fill="#fff" d="M107.728 57.26v-1.414l-.79-1.89-1.022 1.26.865 3.54 2.61-.943z" opacity=".08"/><g fill="#441215"><path d="M118.367 68.353c-2.286 1.808-5.52 1.415-7.33-.866-1.733-2.2-1.262-5.585.945-7.314 2.206-1.808 5.518-1.415 7.25.866 1.813 2.27 1.42 5.58-.865 7.31z"/><path d="M113.086 59.62c-.63.552 1.024-.313-.71 2.046-.944 1.494-1.575 3.145-.394 3.226.71 1.494 1.576 1.572 1.497 2.517 1.02.07 2.2.07 2.52.31.08.39-.87 1.49 1.65-.24.47-.08.78 0 1.02.16-.79.86.16.31.23.31 0 0-1.26 1.02-1.19.86-.08-.08-.08-.4-2.52.78-3.63 1.26-4.1.78-3.23-1.18 0-1.26-1.9-1.18-1.66-2.52 1.1-1.97-1.27-1.18-.24-2.75-.16-.63 1.26-2.28.94-2.13-.55.31 1.42-1.26 1.1-.95-.79.63 1.18-.79.71-.39 1.1-1.03.31-.16.24-.08z" opacity=".08"/><path d="M115.214 61.744l1.34.315 2.05-.48-1.026-1.26-3.625.08.473 2.83z" opacity=".08"/></g><path fill="#401315" d="M121.992 68.43c-.236 2.912-2.76 5.113-5.518 4.956-2.838-.157-4.966-2.674-4.73-5.585.158-2.9 2.68-5.11 5.44-4.95 2.837.08 4.964 2.75 4.808 5.59z"/><path fill="#070808" d="M111.983 66.62c-.08.788.553-.94.945 1.888.552 1.733 1.26 3.306 2.128 2.44 1.576.47 2.285-.08 2.916.55.71-.63 1.576-1.65 1.813-1.65.313.077.472 1.65.944-1.417.31-.31.55-.55.78-.7.08 1.18.39.16.39.08 0 .08-.16 1.58-.16 1.42-.08 0-.24-.23-1.11 2.29-1.5 3.7-2.13 3.7-3 1.81-.95-.94-2.13.55-2.84-.39-.79-2.12-1.74.08-2.21-1.73-.56-.31-.79-2.44-1.03-2.2-.16.71.15-1.81.15-1.49-.16 1.18.16-1.25.08-.7.08-1.49.15-.39.15-.16z" opacity=".08"/><path fill="#fff" d="M115.057 66.307l1.024-.71 1.03-1.885-1.57-.08-2.36 2.832 2.37 1.494z" opacity=".08"/><path fill="#401315" d="M110.328 60.25c-.236 2.912-2.76 5.112-5.518 4.955-2.836-.235-4.965-2.674-4.807-5.585.234-2.91 2.758-5.11 5.516-4.955 2.83.157 4.96 2.674 4.8 5.586z"/><path fill="#070808" d="M100.32 58.362c-.078.865.553-.866.945 1.965.55 1.73 1.26 3.306 2.127 2.44 1.576.47 2.207-.08 2.916.55.71-.63 1.576-1.65 1.813-1.65.32.156.48 1.65.95-1.416.32-.39.56-.55.79-.7.08 1.18.4.16.4.08 0 .08-.15 1.58-.15 1.42-.08 0-.23-.23-1.1 2.28-1.49 3.62-2.12 3.62-2.99 1.81-.94-.86-2.12.56-2.83-.39-.79-2.12-1.73.08-2.21-1.81-.55-.23-.78-2.36-1.02-2.12-.15.63.08-1.88.08-1.49-.08 1.1.24-1.26.16-.7.08-1.49.16-.31.16-.24z" opacity=".08"/><path fill="#fff" d="M103.314 58.205l1.104-.866 1.023-1.73-1.57-.08-2.44 2.75 2.36 1.49z" opacity=".08"/><path fill="#401315" d="M105.52 52.463c-.157 2.36-2.206 4.248-4.647 4.09-2.443-.236-4.18-2.358-4.02-4.8.235-2.437 2.283-4.245 4.648-4.088 2.37.078 4.26 2.28 4.02 4.798z"/><path fill="#070808" d="M97.09 50.81c-.158.787.47-.785.787 1.73.473 1.417 1.104 2.754 1.813 2.047 1.262.393 1.813-.078 2.443.47.63-.548 1.26-1.414 1.576-1.414.23.078.31 1.415.78-1.18.31-.393.47-.472.71-.71.08 1.026.23.238.23.082 0 .156 0 1.415-.08 1.258-.08 0-.32-.157-.95 1.965-1.26 3.068-1.74 3.068-2.52 1.496-.87-.787-1.74.472-2.52-.395-.56-1.81-1.42.07-1.74-1.5-.48-.16-.79-2.05-.87-1.89-.08.55.08-1.57 0-1.18-.08.94.15-1.1.08-.63.23-1.26.23-.24.23-.16z" opacity=".08"/><path fill="#fff" d="M99.69 50.574l.787-.628.947-1.496-1.262-.076-2.05 2.36 1.892 1.336z" opacity=".08"/><path fill="#070808" d="M90.862 39.8c0 .63.396-.786.79 1.493.473 1.26 1.023 2.597 1.653 1.888 1.262.4 1.813-.07 2.286.48.56-.55 1.19-1.26 1.5-1.26.24.08.32 1.26.71-1.1.16-.31.48-.47.56-.63.08.95.32.24.32.16 0 .08 0 1.26-.15 1.11-.08 0-.08 1.18-.79 1.81-1.57 1.26-1.1 1.03-2.36 1.42-.71-.63-1.65.47-2.28-.23-.55-1.73-1.34.08-1.73-1.41-.47-.15-.63-1.88-.71-1.65-.08.55.08-1.49 0-1.18-.08.94.08-1.02.08-.55.08-1.34.16-.47.16-.31z" opacity=".09"/><path fill="#401315" d="M90.47 38.54c1.732.628 2.68 2.596 2.048 4.405-.71 1.73-2.68 2.674-4.413 1.967-1.813-.708-2.68-2.676-2.05-4.405.63-1.732 2.602-2.597 4.414-1.967z"/><path fill="#070808" d="M87.474 44.52c.473.157-.473-.473 1.34-.315 1.184 0 2.286-.157 1.893-.864.552-.94.395-1.41.867-1.81-.315-.55-.788-1.33-.788-1.49.235-.15 1.104 0-.632-.86-.156-.23-.314-.39-.394-.62.788.24.236-.15.078-.15 0 0 1.024.4.867.4 0 .08-.157.16 1.183 1.11 1.97 1.58 1.89 2.05.63 2.2-.788.48 0 1.5-.866 1.81-1.498.08-.314 1.03-1.498 1.03-.314.24-1.654.08-1.496.16.394.16-1.104-.39-.946-.31.63.31-.866-.31-.474-.16-.63-.24.078-.08.236-.08z" opacity=".08"/><path fill="#fff" d="M87.79 42.553l-.237-.865-.867-1.022-.394 1.022 1.34 2.042 1.34-1.177z" opacity=".08"/><path fill="#700f11" d="M98.744 41.295c-.236 2.28-2.05 3.934-4.335 3.774-2.21-.16-3.87-2.13-3.71-4.49.15-2.28 2.13-4.01 4.33-3.78 2.2.15 3.86 2.12 3.7 4.48z"/><path fill="#fff" d="M93.228 39.563l.866-.63.788-1.415-1.182-.078-1.89 2.202L93.7 40.9z" opacity=".08"/><path fill="#700f11" d="M108.91 67.958c-.158 2.833-2.602 4.957-5.44 4.798-2.757-.235-4.806-2.753-4.65-5.507a5.008 5.008 0 015.44-4.72c2.758.23 4.807 2.67 4.65 5.42z"/><path fill="#fff" d="M102.133 65.912l1.023-.707 1.026-1.81-1.657-.078-2.205 2.83 2.205 1.497z" opacity=".08"/><path fill="#070808" d="M98.9 67.094s2.602 3.618 4.492 3.46c1.893-.08 2.916-.312 4.02-1.1 1.105-.71 1.42-1.183 1.42-1.183s-.315 1.74-.946 2.52c-.788.71-1.892 1.73-2.915 1.97-1.02.08-2.28.08-3.07-.31-.71-.39-1.73-1.1-2.28-2.04-.47-.94-.79-1.57-.79-2.2 0-.71.08-1.1.08-1.1z" opacity=".11"/><path fill="#700f11" d="M99.768 46.956c-.158 2.754-2.6 4.88-5.437 4.72-2.75-.157-4.8-2.674-4.64-5.507.16-2.76 2.6-4.88 5.44-4.72 2.76.15 4.89 2.67 4.65 5.5z"/><path fill="#fff" d="M93.07 44.912l1.024-.787 1.024-1.73-1.576-.16-2.364 2.834 2.364 1.49z" opacity=".08"/><path fill="#070808" d="M89.76 46.014s2.6 3.618 4.492 3.54c1.892-.08 2.916-.395 4.018-1.104 1.105-.785 1.42-1.26 1.42-1.26s-.314 1.812-.945 2.52c-.787.788-1.892 1.81-2.915 1.968-1.024.076-2.286.076-3.074-.235-.71-.396-1.733-1.183-2.285-2.125-.47-.865-.78-1.572-.78-2.202.08-.63.08-1.102.08-1.102z" opacity=".11"/><path fill="#700f11" d="M109.225 45.62c-.236 2.83-2.68 4.954-5.438 4.797-2.838-.235-4.887-2.752-4.65-5.507.158-2.832 2.602-4.954 5.36-4.798 2.757.24 4.885 2.755 4.728 5.507z"/><path fill="#fff" d="M102.37 43.575l1.023-.708 1.025-1.81-1.576-.078-2.207 2.75 2.207 1.5z" opacity=".08"/><path fill="#070808" d="M99.217 44.677s2.6 3.697 4.492 3.54c1.81-.08 2.83-.316 4.01-1.102 1.1-.71 1.34-1.182 1.34-1.182s-.24 1.73-.95 2.517c-.71.71-1.82 1.733-2.84 1.967-1.03.08-2.37.08-3.07-.313-.79-.394-1.82-1.102-2.37-2.044-.48-.944-.71-1.572-.71-2.203a7.39 7.39 0 01.07-1.18z" opacity=".11"/><path fill="#401315" d="M112.456 32.877c-.158 2.91-2.68 5.113-5.517 4.956-2.76-.235-4.97-2.752-4.73-5.584.15-2.92 2.67-5.12 5.51-4.96 2.76.16 4.88 2.67 4.73 5.58z"/><path fill="#070808" d="M102.447 30.99c-.078.864.553-.944.945 1.966.553 1.652 1.34 3.304 2.13 2.44 1.574.47 2.283-.08 2.914.55.788-.63 1.576-1.653 1.893-1.653.23.08.47 1.652.94-1.416.23-.393.55-.55.71-.786.08 1.26.39.24.39.16 0 .08-.08 1.58-.08 1.34-.16 0-.32-.16-1.18 2.36-1.5 3.62-2.13 3.62-3 1.73-.87-.78-2.13.63-2.84-.31-.79-2.2-1.73.08-2.13-1.8-.64-.23-.87-2.44-1.03-2.12-.24.63.08-1.89.08-1.49-.08 1.1.15-1.34.08-.71.08-1.49.15-.31.15-.23z" opacity=".08"/><path fill="#fff" d="M105.44 30.752l1.105-.785 1.024-1.73-1.58-.237-2.29 2.912 2.28 1.493z" opacity=".08"/><path fill="#401315" d="M111.904 29.494c-.157 2.518-2.363 4.484-4.887 4.327-2.52-.23-4.334-2.43-4.176-4.95.16-2.52 2.37-4.48 4.89-4.25 2.52.16 4.34 2.36 4.18 4.88z"/><path fill="#070808" d="M103.156 27.843c-.156.708.396-.864.79 1.652.472 1.494 1.103 2.91 1.892 2.202 1.417.315 1.97-.158 2.52.394.63-.55 1.42-1.33 1.655-1.49.315.16.474 1.42.867-1.18.236-.39.473-.47.63-.63.08 1.03.315.16.315.08 0 .08 0 1.42-.08 1.18-.156 0-.313-.15-1.103 2.05-1.262 3.23-1.813 3.23-2.6 1.5-.79-.71-1.814.63-2.523-.31-.64-1.88-1.34.08-1.82-1.49-.48-.23-.79-2.04-.87-1.89-.08.56.08-1.57.08-1.33-.08 1.03.23-1.18.07-.62.16-1.18.16-.15.16-.08z" opacity=".08"/><path fill="#fff" d="M105.836 27.686l.945-.708.95-1.573-1.42-.08-2.05 2.44 1.97 1.416z" opacity=".08"/><path fill="#700f11" d="M104.732 27.45c-.234 2.83-2.6 4.955-5.438 4.797-2.837-.235-4.886-2.753-4.65-5.506a5.094 5.094 0 015.36-4.79c2.758.24 4.887 2.68 4.728 5.51z"/><path fill="#fff" d="M97.877 25.405l1.023-.786 1.026-1.74-1.576-.08-2.206 2.67 2.206 1.49z" opacity=".08"/><path fill="#070808" d="M94.725 26.428s2.602 3.62 4.492 3.54c1.813-.08 2.916-.394 4.02-1.102 1.104-.787 1.418-1.18 1.418-1.18s-.314 1.73-.945 2.516c-.787.71-1.893 1.732-2.916 1.89-1.023.156-2.363.156-3.072-.237-.788-.394-1.813-1.102-2.365-2.045-.473-.943-.71-1.573-.71-2.282 0-.55.078-1.1.078-1.1z" opacity=".11"/><path fill="#700f11" d="M103.787 36.338c-.236 2.754-2.602 4.957-5.438 4.72-2.76-.158-4.81-2.675-4.65-5.507.15-2.75 2.6-4.95 5.44-4.71 2.75.16 4.8 2.6 4.64 5.51z"/><path fill="#fff" d="M96.932 34.293l1.18-.866 1.025-1.65-1.576-.237-2.36 2.832 2.21 1.494z" opacity=".08"/><path fill="#070808" d="M93.778 35.315s2.603 3.618 4.49 3.54c1.894-.08 2.917-.395 4.022-1.18 1.104-.71 1.418-1.18 1.418-1.18s-.314 1.81-.945 2.517c-.787.787-1.89 1.808-2.916 1.967-1.023.07-2.285.07-3.073-.32-.71-.32-1.732-1.11-2.363-2.05-.47-.95-.7-1.58-.7-2.21.08-.63.08-1.1.08-1.1z" opacity=".11"/><path fill="#682f2c" d="M84.322 46.406c-.156 2.596-2.363 4.563-4.887 4.327-2.52-.157-4.492-2.36-4.334-5.033.24-2.596 2.45-4.563 4.97-4.33 2.52.16 4.42 2.36 4.26 5.036z"/><path fill="#fff" d="M78.018 44.52l1.023-.79.95-1.572-1.5-.078-2.05 2.517 2.05 1.417z" opacity=".08"/><path fill="#070808" d="M75.102 45.462s2.443 3.305 4.1 3.226c1.813-.078 2.678-.313 3.78-1.022 1.105-.628 1.263-1.104 1.263-1.104s-.158 1.653-.79 2.36c-.708.63-1.73 1.652-2.757 1.73-.945.08-2.13.08-2.76-.235-.787-.393-1.652-1.102-2.127-1.967-.47-.862-.7-1.492-.7-2.044-.08-.472 0-.944 0-.944z" opacity=".11"/><path fill="#700f11" d="M66.196 39.484c-.235 2.752-2.68 4.957-5.437 4.72-2.84-.157-4.89-2.674-4.65-5.43.15-2.83 2.6-4.953 5.36-4.795 2.75.23 4.88 2.67 4.72 5.5z"/><path fill="#fff" d="M59.34 37.44l1.025-.787 1.024-1.73-1.58-.078-2.21 2.752 2.2 1.495z" opacity=".08"/><path fill="#070808" d="M56.11 38.54s2.6 3.618 4.49 3.54c1.814-.077 2.837-.393 3.94-1.102 1.184-.785 1.42-1.18 1.42-1.18s-.236 1.73-.946 2.438c-.71.788-1.813 1.81-2.837 1.968-1.024.157-2.364.157-3.073-.235-.788-.4-1.813-1.11-2.363-2.05-.47-.94-.78-1.57-.78-2.28.16-.63.16-1.11.16-1.11z" opacity=".11"/><path fill="#682f2c" d="M57.29 31.46c-.156 2.833-2.6 4.957-5.28 4.8a5.023 5.023 0 01-4.57-5.428c.158-2.832 2.603-4.957 5.28-4.798 2.68.236 4.73 2.674 4.57 5.427z"/><path fill="#fff" d="M50.593 29.494l1.025-.786 1.023-1.73-1.57-.08-2.28 2.676 2.29 1.494z" opacity=".08"/><path fill="#070808" d="M47.44 30.518s2.52 3.697 4.333 3.54c1.893-.08 2.838-.316 4.02-1.103 1.105-.707 1.42-1.18 1.42-1.18s-.315 1.73-.946 2.518c-.63.707-1.89 1.73-2.916 1.81-1.02.157-2.2.157-2.99-.236-.71-.393-1.73-1.102-2.28-2.044-.47-.944-.78-1.573-.78-2.124 0-.71.16-1.19.16-1.19z" opacity=".11"/><path fill="#682f2c" d="M65.88 25.326c-.156 2.753-2.6 4.957-5.28 4.72-2.758-.157-4.807-2.595-4.648-5.35.236-2.83 2.68-4.954 5.358-4.795 2.68.24 4.728 2.6 4.57 5.43z"/><path fill="#fff" d="M59.182 23.36l1.025-.864 1.025-1.653-1.577-.08-2.285 2.675 2.285 1.494z" opacity=".08"/><path fill="#070808" d="M55.952 24.382s2.52 3.618 4.412 3.54c1.892-.08 2.837-.395 4.02-1.102 1.103-.787 1.418-1.18 1.418-1.18s-.315 1.73-.945 2.438c-.63.787-1.892 1.81-2.916 1.888-1.02.08-2.2.08-2.99-.236-.71-.394-1.73-1.18-2.2-2.045-.47-.943-.78-1.652-.78-2.202v-1.1z" opacity=".11"/><path fill="#700f11" d="M71.634 29.888c-.157 2.832-2.6 4.957-5.358 4.72-2.838-.158-4.886-2.674-4.648-5.427.156-2.83 2.6-4.95 5.357-4.79 2.836.24 4.885 2.6 4.65 5.51z"/><path fill="#fff" d="M64.936 27.843l1.024-.865 1.024-1.652-1.576-.078-2.364 2.674 2.364 1.494z" opacity=".08"/><path fill="#070808" d="M61.704 28.866s2.6 3.62 4.49 3.54c1.814-.08 2.838-.394 3.94-1.102 1.183-.786 1.42-1.258 1.42-1.258s-.237 1.81-.946 2.518c-.71.786-1.813 1.81-2.837 1.966-1.02.078-2.36.078-3.07-.235-.78-.395-1.81-1.18-2.36-2.045-.47-.944-.71-1.653-.71-2.282.08-.63.08-1.102.08-1.102z" opacity=".11"/><path fill="#700f11" d="M76.047 20.92c-.158 2.597-2.442 4.563-4.965 4.405-2.52-.155-4.413-2.438-4.256-5.033s2.442-4.563 4.966-4.404c2.52.157 4.49 2.437 4.255 5.033z"/><path fill="#fff" d="M69.82 18.955l1.026-.63.946-1.573-1.498-.158-2.05 2.596 2.05 1.26z" opacity=".08"/><path fill="#070808" d="M66.905 20.056s2.364 3.304 4.1 3.226c1.813-.08 2.6-.394 3.624-1.022 1.02-.63 1.34-1.102 1.34-1.102s-.16 1.572-.87 2.28c-.63.71-1.66 1.574-2.6 1.81-.95.078-2.13.078-2.76-.315-.71-.313-1.73-1.02-2.21-1.81-.48-.862-.63-1.492-.63-2.122v-.94z" opacity=".11"/><path fill="#700f11" d="M85.11 31.068a4.672 4.672 0 01-4.966 4.406c-2.52-.158-4.492-2.438-4.256-5.035.158-2.6 2.443-4.57 4.965-4.41 2.524.23 4.335 2.51 4.256 5.03z"/><path fill="#fff" d="M78.885 29.26l.867-.71.945-1.65-1.34-.08-2.207 2.596 2.207 1.336z" opacity=".08"/><path fill="#070808" d="M75.89 30.282s2.286 3.304 4.1 3.225c1.73-.08 2.6-.394 3.624-1.022 1.023-.63 1.34-1.102 1.34-1.102s-.236 1.572-.867 2.36c-.63.63-1.654 1.572-2.602 1.73-.943.08-2.127.08-2.836-.313-.64-.314-1.66-.944-2.13-1.81-.48-.864-.63-1.494-.63-2.045v-1.023z" opacity=".11"/><path fill="#682f2c" d="M78.885 39.014c-.236 2.595-2.443 4.562-4.965 4.403-2.522-.236-4.492-2.438-4.335-5.112.235-2.674 2.442-4.562 4.964-4.406 2.52.31 4.49 2.51 4.33 5.11z"/><path fill="#fff" d="M72.58 37.125l.945-.708.946-1.572-1.41-.08-2.13 2.517 2.05 1.337z" opacity=".08"/><path fill="#070808" d="M69.585 38.07s2.442 3.38 4.177 3.3c1.734-.075 2.6-.392 3.703-1.02 1.023-.71 1.262-1.183 1.262-1.183s-.158 1.73-.79 2.362c-.708.62-1.65 1.65-2.757 1.8-.866.08-2.127.08-2.758-.32-.788-.4-1.654-1.03-2.128-1.97-.474-.87-.71-1.5-.71-2.05v-.95z" opacity=".11"/><linearGradient id="b" x1="365.786" x2="384.935" y1="12.112" y2="12.112" gradientTransform="translate(-543.386 -739.404) scale(.0058)" gradientUnits="userSpaceOnUse"><stop offset="0" stop-color="#fff"/><stop offset=".033" stop-color="#8e8d45"/><stop offset="1"/></linearGradient><path fill="url(#b)" d="M65.802 3.46l1.576-1.89 1.34.08s-.473 2.99 1.42 5.664c1.97 2.753 6.145 7.552 6.145 7.552l1.732 1.73 4.65-.315 2.284-1.25-.16.79-2.05 1.58-1.89 1.18-.95.55.23 1.73.55 1.81-1.82-1.02-2.76-3.69S72.56 14.1 71.85 13c-.787-1.18-4.334-6.214-4.334-6.214L65.8 3.466z"/><path fill="none" stroke="#3e1319" stroke-width=".362" d="M85.425 30.202l1.655-1.65.236-1.417-1.497.315-1.58-1.416-1.34-1.337-1.74-1.024-1.11-1.57-.55-1.81 1.97 5.505 1.73 1.652zm-23.957 3.776l.945-1.73s-.08.156.473.787c.552.708-.236.864-.236.864l-1.182.07z"/><linearGradient id="c" x1="363.989" x2="366.905" y1="21.118" y2="21.118" gradientTransform="translate(-543.386 -739.404) scale(.0058)" gradientUnits="userSpaceOnUse"><stop offset="0" stop-color="#fff"/><stop offset=".033" stop-color="#8e8d45"/><stop offset="1"/></linearGradient><path fill="url(#c)" d="M63.99 21.472l2.048-1.18.867-.236-.945.865-1.42 1.26z"/><linearGradient id="d" x1="365.724" x2="367.772" y1="23.714" y2="23.714" gradientTransform="translate(-543.386 -739.404) scale(.0058)" gradientUnits="userSpaceOnUse"><stop offset="0" stop-color="#fff"/><stop offset=".033" stop-color="#8e8d45"/><stop offset="1"/></linearGradient><path fill="url(#d)" d="M65.724 23.203h1.102l.71-.08.236.16-1.576 1.02z"/><path fill="#3e1319" d="M95.276 27.372c-.157 2.517-2.363 4.483-4.808 4.326-2.522-.235-4.413-2.438-4.256-4.955.236-2.518 2.364-4.483 4.887-4.327 2.52.08 4.33 2.36 4.17 4.956z"/><path fill="#070808" d="M86.528 25.72c-.078.708.474-.865.788 1.652.474 1.494 1.183 2.91 1.893 2.123 1.41.394 1.97-.078 2.52.473.63-.55 1.42-1.416 1.65-1.494.31.08.47 1.416.86-1.18.31-.394.47-.472.63-.63.16 1.023.31.158.31.08 0 .08 0 1.337-.08 1.18-.08 0-.32-.157-1.03 2.044-1.34 3.146-1.9 3.146-2.68 1.494-.79-.708-1.82.55-2.45-.394-.71-1.81-1.42.158-1.89-1.493-.55-.158-.79-2.046-.87-1.81-.08.552.08-1.572 0-1.337-.08 1.023.24-1.18.08-.63.24-1.18.31-.157.24-.078z" opacity=".08"/><path fill="#fff" d="M89.208 25.483l.945-.708.947-1.572-1.42-.08-2.048 2.518 1.97 1.26z" opacity=".08"/><path fill="#3e1319" d="M92.597 35.315c-.236 2.518-2.364 4.484-4.887 4.25-2.52-.156-4.333-2.44-4.177-4.958a4.51 4.51 0 014.808-4.247c2.53.158 4.42 2.36 4.26 4.955z"/><path fill="#070808" d="M83.928 33.586c-.158.786.395-.788.788 1.73.473 1.493 1.104 2.83 1.892 2.123 1.418.39 1.97-.08 2.52.47.632-.55 1.42-1.42 1.656-1.5.314.08.473 1.41.866-1.26.236-.32.474-.4.63-.63.08 1.02.315.23.315.08 0 .15 0 1.41-.08 1.26-.155 0-.313-.24-1.103 2.04-1.262 3.15-1.812 3.15-2.602 1.5-.788-.79-1.813.55-2.52-.4-.632-1.89-1.34.08-1.814-1.5-.552-.16-.788-2.05-.866-1.89-.078.62.078-1.58 0-1.26-.078 1.02.156-1.26.078-.63.082-1.26.24-.24.24-.16z" opacity=".08"/><path fill="#fff" d="M86.528 33.427l.946-.707.867-1.652-1.34-.08-2.04 2.52 2.05 1.337z" opacity=".08"/><path fill="#700f11" d="M86.607 39.092c-.157 2.596-2.44 4.563-4.965 4.403-2.52-.157-4.492-2.438-4.256-5.033.158-2.596 2.365-4.563 4.887-4.405 2.52.236 4.492 2.44 4.334 5.035z"/><path fill="#fff" d="M80.38 37.282l.868-.786 1.025-1.573-1.42-.078-2.126 2.515 2.127 1.26z" opacity=".08"/><path fill="#070808" d="M77.465 38.147s2.287 3.383 4.1 3.304c1.813-.08 2.602-.39 3.624-1.02 1.02-.63 1.34-1.1 1.34-1.1s-.24 1.57-.87 2.28c-.63.63-1.66 1.73-2.6 1.81-.95.08-2.13.08-2.84-.31-.63-.39-1.66-1.02-2.13-1.81-.47-.86-.63-1.49-.63-2.12a3.75 3.75 0 010-1.02z" opacity=".11"/><path fill="#700f11" d="M89.996 48.53c-.236 2.596-2.443 4.563-4.966 4.405-2.52-.235-4.49-2.438-4.335-5.035.236-2.672 2.443-4.563 4.966-4.405 2.53.16 4.5 2.44 4.34 5.035z"/><path fill="#fff" d="M83.69 46.642l.947-.708 1.024-1.573-1.49-.15-2.04 2.52 2.05 1.42z" opacity=".08"/><path fill="#070808" d="M80.854 47.586s2.287 3.383 4.1 3.224c1.732-.076 2.6-.313 3.703-1.022 1.024-.628 1.34-1.102 1.34-1.102s-.235 1.572-.866 2.36c-.63.63-1.65 1.574-2.6 1.73-.94.157-2.2.157-2.83-.235s-1.65-1.02-2.12-1.88c-.47-.86-.63-1.49-.63-2.04-.24-.55-.08-1.02-.08-1.02z" opacity=".11"/><path fill="#401315" d="M89.13 21.158c-.158 2.516-2.365 4.483-4.886 4.248-2.523-.158-4.336-2.44-4.18-4.957.158-2.52 2.365-4.41 4.888-4.25 2.522.08 4.334 2.36 4.177 4.95z"/><path fill="#070808" d="M80.38 19.427c-.155.786.474-.786.79 1.732.473 1.49 1.104 2.83 1.89 2.12 1.42.39 1.973-.08 2.522.47.63-.55 1.42-1.42 1.655-1.5.314.07.473 1.41.866-1.26.236-.32.474-.4.63-.63.08 1.02.315.23.315.08 0 .15 0 1.41-.078 1.26-.158 0-.314-.24-.946 2.04-1.34 3.14-1.892 3.14-2.6 1.49-.868-.79-1.892.55-2.52-.4-.712-1.89-1.42.07-1.894-1.5-.473-.16-.79-2.05-.867-1.89-.08.63.078-1.57 0-1.26-.08 1.02.236-1.26.078-.63.16-1.26.16-.24.16-.16z" opacity=".08"/><path fill="#fff" d="M83.06 19.27l.946-.708.946-1.652-1.42-.078-2.126 2.518 2.05 1.337z" opacity=".08"/><path fill="#700f11" d="M92.202 14.157c-.157 2.124-2.05 3.776-4.1 3.696-2.127-.155-3.782-2.044-3.546-4.167.158-2.124 2.05-3.854 4.1-3.698 2.128.08 3.704 2.044 3.546 4.17z"/><path fill="#fff" d="M87 12.583l.79-.55.787-1.415-1.26-.08-1.735 2.124 1.734 1.102z" opacity=".08"/><path fill="#070808" d="M84.558 13.37s1.97 2.83 3.468 2.753c1.498-.08 2.207-.314 3.074-.866.945-.55 1.104-.943 1.104-.943s-.157 1.416-.788 1.966c-.553.55-1.34 1.417-2.206 1.495-.867.077-1.734.077-2.364-.158-.552-.314-1.34-.865-1.734-1.573-.394-.787-.552-1.258-.552-1.73-.08-.55-.002-.944-.002-.944z" opacity=".11"/><path fill="#700f11" d="M99.373 10.618c-.156 2.123-2.05 3.774-4.098 3.62-2.128-.158-3.704-2.047-3.547-4.17.158-2.123 2.05-3.855 4.1-3.775 2.05.234 3.625 2.043 3.545 4.325z"/><path fill="#fff" d="M94.173 9.045l.71-.71.866-1.257L94.56 7l-1.81 2.122 1.814 1.102z" opacity=".08"/><path fill="#070808" d="M91.65 9.83s1.972 2.832 3.47 2.832c1.496-.08 2.204-.314 3.07-.865.946-.55 1.106-.943 1.106-.943s-.158 1.416-.79 1.966c-.55.55-1.34 1.417-2.205 1.494-.86.078-1.73.078-2.36-.157-.55-.314-1.34-.864-1.73-1.573-.39-.786-.55-1.257-.55-1.73V9.83z" opacity=".11"/><path fill="#700f11" d="M96.932 18.876a5.094 5.094 0 01-5.36 4.797c-2.836-.235-4.886-2.752-4.728-5.506.236-2.83 2.68-4.955 5.438-4.797 2.836.236 4.886 2.754 4.65 5.506z"/><path fill="#fff" d="M90.153 16.832l1.025-.708 1.024-1.81-1.576-.077-2.285 2.83 2.29 1.495z" opacity=".08"/><path fill="#070808" d="M87 17.853s2.602 3.62 4.414 3.54c1.892-.08 2.916-.394 4.02-1.1 1.184-.71 1.42-1.182 1.42-1.182s-.236 1.74-.946 2.52c-.71.71-1.813 1.73-2.838 1.89-1.023.16-2.363.16-3.072-.23-.788-.39-1.813-1.1-2.364-2.04-.473-.94-.788-1.57-.788-2.28a4.54 4.54 0 01.155-1.1z" opacity=".11"/><linearGradient id="e" x1="365.195" x2="379.2" y1="11.481" y2="11.481" gradientTransform="translate(-543.386 -739.404) scale(.0058)" gradientUnits="userSpaceOnUse"><stop offset="0" stop-color="#fff"/><stop offset="0" stop-color="#d8dd82"/><stop offset=".12" stop-color="#aeb269"/><stop offset=".287" stop-color="#7a7c49"/><stop offset=".451" stop-color="#4e502f"/><stop offset=".608" stop-color="#2c2d1a"/><stop offset=".755" stop-color="#14140c"/><stop offset=".89" stop-color="#050503"/><stop offset="1"/></linearGradient><path fill="url(#e)" d="M79.2 21.786s-1.105-.156-1.655-.55c-.553-.393-.867-.63-1.105-1.1-.395-.552-1.813-3.384-2.44-3.777l-1.42-.71s-2.442-4.17-3.39-5.59c-1.103-1.41-2.837-4.88-3.467-5.66-.71-.87-.552-1.81-.395-1.97.156-.32.945-1.26.945-1.26h1.104l.474.31s-1.18.94-1.18 1.1c0 .16-.15 1.02 0 1.33.08.23 1.26 2.67 1.73 3.38.48.78 1.5 1.96 2.13 2.99.71 1.02.95 1.96 1.58 2.67.71.7 2.84 3.22 3 3.69.24.55 1.42 1.26 1.74 1.73.24.47 1.5 2.28 1.5 2.28l.87 1.1z"/><path fill="#700f11" d="M108.83 55.53c2.442 1.495 3.152 4.642 1.654 7.08-1.497 2.36-4.568 3.068-7.014 1.572-2.443-1.496-3.074-4.64-1.654-7.08 1.498-2.358 4.573-3.067 7.015-1.57z"/><path fill="#fff" d="M103.865 60.644l-.314-1.337-1.02-1.732-.78 1.34 1.42 3.38 2.29-1.26z" opacity=".08"/><path fill="#070808" d="M103.236 63.947s4.333-.63 5.2-2.28c.867-1.812 1.024-2.753.945-4.092-.07-1.414-.39-1.887-.39-1.887s1.42 1.022 1.82 2.043c.24 1.03.63 2.52.24 3.47-.39 1.03-.94 2.13-1.65 2.6-.63.48-1.89 1.11-2.91 1.11-1.02 0-1.73-.08-2.2-.31-.55-.32-1.02-.63-1.02-.63z" opacity=".11"/><path fill="#99ca3c" d="M9.77 29.73l2.837 1.023 2.207-.786 4.807-1.573.87.08 8.75-1.81 2.6.235 2.52-2.44 3.47-2.13 1.03-2.2s3.39.63 3.79.15c.4-.55.95-.55 1.66-.24.79.23 2.92.31 2.92.31l1.89 4.01 3.55 5.04.48 3.46 1.11 6.53-1.1 4.09-1.73-.55 2.68 5.58-.47 3.77 2.05 2.75-1.577 2.51-2.68 1.96 1.34 3.62-.24 4.64-4.965 2.44-2.75-.94-4.1.08-3.23-2.04s-1.576-1.1-2.915-2.44c-1.26-1.26-3.548-2.28-3.627-3.31 0-1.03-1.1-2.76-2.124-4.25-1.03-1.5-3.08-3.15-3.08-3.15S24 52.112 23.68 51.8c-.395-.233-2.916-.863-2.916-.863s-1.184-.47-2.05-.862c-.87-.39-2.916-1.18-2.916-1.18l-2.916-3.85-5.12-4.02L6.93 35l2.836-5.27z"/><path fill="#85a53e" d="M57.37 49.632c-.71 2.674-3.31 4.09-5.753 3.304-2.442-.865-3.703-3.776-2.916-6.372.79-2.674 3.39-4.09 5.84-3.226 2.29.787 3.63 3.618 2.84 6.294z"/><path fill="#f8f8f7" d="M51.774 46.09l1.103-.55 1.34-1.415-1.42-.47-2.6 2.043 1.656 1.967z" opacity=".2"/><path fill="#070808" d="M48.7 46.25s1.497 4.167 3.152 4.483c1.733.393 2.68.313 3.86-.08 1.184-.472 1.5-.864 1.5-.864s-.554 1.73-1.42 2.2c-.71.55-2.05 1.26-2.995 1.1-.945-.08-2.048-.48-2.6-.95-.553-.55-1.42-1.5-1.576-2.52-.31-1.03-.31-1.66-.15-2.36a9.81 9.81 0 00.24-1.03z" opacity=".08"/><path fill="#9dbc3b" d="M54.612 49.552c-.788 2.676-3.39 4.09-5.832 3.225-2.442-.785-3.703-3.696-2.838-6.29.71-2.756 3.312-4.093 5.754-3.306 2.442.87 3.704 3.78 2.916 6.38z"/><path fill="#fbfcf7" d="M49.095 46.014l1.025-.473 1.26-1.41-1.26-.55-2.6 2.13 1.654 1.97z" opacity=".08"/><path fill="#070808" d="M46.02 46.25s1.498 4.167 3.153 4.483c1.655.393 2.6.313 3.862-.08 1.182-.472 1.496-.864 1.496-.864s-.63 1.65-1.41 2.2c-.79.55-2.05 1.26-2.99 1.1-.94-.08-2.05-.48-2.6-.95-.55-.55-1.42-1.5-1.57-2.52-.31-1.03-.31-1.66-.23-2.36a4.99 4.99 0 00.32-1.03z" opacity=".04"/><path fill="#85a53e" d="M44.445 60.327c-.71 2.204-2.837 3.385-4.886 2.754-2.05-.78-3.16-3.06-2.53-5.35.63-2.12 2.83-3.38 4.88-2.67 1.97.71 3.15 3.07 2.52 5.27z"/><path fill="#f8f8f7" d="M39.638 57.34l.946-.472 1.024-1.1-1.103-.316-2.207 1.652 1.42 1.574z" opacity=".2"/><path fill="#070808" d="M37.038 57.575s1.34 3.304 2.68 3.698c1.418.393 2.284.313 3.31-.08 1.024-.394 1.262-.63 1.262-.63s-.396 1.262-1.104 1.732c-.63.472-1.655 1.023-2.52.942-.79-.076-1.734-.393-2.207-.863-.48-.474-1.11-1.18-1.42-2.124-.16-.864-.24-1.416-.16-1.887a9.62 9.62 0 01.15-.788z" opacity=".08"/><path fill="#85a53e" d="M54.217 62.216c-.71 2.676-3.388 4.09-5.752 3.226-2.443-.788-3.783-3.697-2.916-6.292.7-2.755 3.31-4.092 5.75-3.304 2.36.865 3.78 3.774 2.91 6.37z"/><path fill="#f8f8f7" d="M48.7 58.678l1.026-.473 1.34-1.494-1.42-.47-2.6 2.13 1.654 1.96z" opacity=".2"/><path fill="#070808" d="M45.628 58.914s1.497 4.167 3.15 4.48c1.734.396 2.603.317 3.862-.077 1.183-.472 1.497-.786 1.497-.786s-.552 1.66-1.418 2.13c-.71.55-2.05 1.26-3 1.11-.95-.08-2.05-.47-2.6-.94-.56-.55-1.42-1.49-1.58-2.51-.32-1.02-.32-1.65-.16-2.28.08-.63.24-1.1.24-1.1z" opacity=".08"/><path fill="#85a53e" d="M43.5 51.754c-.63 2.36-3.312 3.54-5.674 2.755-2.52-.87-3.94-3.47-3.31-5.83.63-2.28 3.31-3.54 5.672-2.68 2.524.86 4.02 3.46 3.312 5.74z"/><path fill="#f8f8f7" d="M37.668 48.374l1.182-.474 1.182-1.258-1.418-.47-2.522 1.807 1.813 1.81z" opacity=".2"/><path fill="#070808" d="M34.594 48.45s1.734 3.698 3.468 4.09c1.813.473 2.758.396 3.862.08 1.182-.393 1.497-.63 1.497-.63s-.55 1.338-1.34 1.81c-.7.47-1.97 1.022-2.99.865-.94-.156-2.12-.47-2.68-1.022-.63-.552-1.42-1.415-1.81-2.36-.23-.865-.31-1.495-.23-2.045.16-.47.24-.788.24-.788z" opacity=".08"/><path fill="#9dbc3b" d="M40.032 42.632c-.787 2.752-3.388 4.09-5.753 3.302-2.45-.864-3.79-3.775-2.92-6.37.71-2.675 3.31-4.09 5.75-3.226 2.36.787 3.78 3.62 2.91 6.294z"/><path fill="#fbfcf7" d="M34.516 39.014l1.025-.474 1.34-1.415-1.42-.472-2.6 2.122 1.66 1.89z" opacity=".08"/><path fill="#070808" d="M31.442 39.327s1.498 4.09 3.152 4.405c1.733.395 2.6.314 3.862-.078 1.18-.474 1.496-.787 1.496-.787s-.552 1.652-1.418 2.124c-.71.55-2.05 1.26-2.993 1.11-.94-.08-2.05-.47-2.6-.94-.55-.55-1.42-1.49-1.57-2.52-.31-1.02-.31-1.65-.15-2.28.08-.55.24-1.02.24-1.02z" opacity=".04"/><path fill="#85a53e" d="M47.125 57.813c-.63 2.202-2.837 3.38-4.888 2.752-2.05-.787-3.15-3.068-2.52-5.35.708-2.122 2.836-3.38 4.885-2.674 2.05.79 3.153 3.15 2.523 5.28z"/><path fill="#f8f8f7" d="M42.396 54.822l.867-.313 1.025-1.26-1.103-.32-2.207 1.65 1.498 1.65z" opacity=".2"/><path fill="#070808" d="M39.717 55.058s1.34 3.305 2.76 3.7c1.417.392 2.205.312 3.23-.08 1.022-.395 1.34-.63 1.34-.63s-.475 1.26-1.105 1.73c-.71.473-1.732 1.023-2.52.945-.868-.08-1.814-.396-2.286-.866-.474-.473-1.104-1.18-1.42-2.124-.156-.865-.235-1.415-.156-1.888l.157-.787z" opacity=".08"/><path fill="#9dbc3b" d="M33.413 41.844c-.788 2.676-3.39 4.09-5.832 3.226-2.36-.865-3.7-3.698-2.91-6.294.71-2.752 3.31-4.167 5.75-3.302 2.53.864 3.86 3.694 3 6.37z"/><path fill="#fbfcf7" d="M27.896 38.305L29 37.833l1.26-1.416-1.34-.55-2.6 2.123 1.655 1.968z" opacity=".08"/><path fill="#070808" d="M24.822 38.54s1.498 4.09 3.152 4.484c1.734.393 2.6.313 3.862-.08 1.182-.47 1.497-.786 1.497-.786s-.553 1.73-1.42 2.203c-.708.56-2.05 1.26-2.993 1.11-.946-.08-2.05-.47-2.602-.94-.552-.55-1.42-1.49-1.576-2.51-.314-1.02-.314-1.65-.236-2.36a6.42 6.42 0 00.316-1.1z" opacity=".04"/><linearGradient id="f" x1="308.509" x2="312.449" y1="26.073" y2="26.073" gradientTransform="matrix(.0043 .0018 -.0014 .0055 -542.583 -740.47)" gradientUnits="userSpaceOnUse"><stop offset="0" stop-color="#fff"/><stop offset=".033" stop-color="#8e8d45"/><stop offset="1"/></linearGradient><path fill="url(#f)" d="M8.825 25.798l2.52-.55 1.105.157-1.42 1.1-1.496.394H8.51z"/><path fill="#fff" d="M39.638 42.553l.867-.395 1.024-1.18-1.11-.392-2.05 1.65 1.26 1.654z" opacity=".08"/><linearGradient id="g" x1="322.606" x2="336.95" y1="12.271" y2="12.271" gradientTransform="matrix(.0043 .0018 -.0014 .0055 -542.583 -740.47)" gradientUnits="userSpaceOnUse"><stop offset="0" stop-color="#fff"/><stop offset=".033" stop-color="#8e8d45"/><stop offset="1"/></linearGradient><path fill="url(#g)" d="M22.616 2.044L24.35.63l1.103.392s-1.023 2.674.08 5.742c1.182 3.067 3.78 8.65 3.78 8.65l1.185 1.968 4.177.866 2.285-.71-.314.787-2.128 1.024-2.05.7-.945.31-.08 1.81.08 1.73-1.42-1.42-1.575-4.09s-2.285-4.57-2.68-5.82a3670.62 3670.62 0 00-2.442-6.85l-.79-3.7z"/><path fill="none" stroke="#3e1319" stroke-width=".362" d="M12.213 30.202l1.182-1.493s-.078.15.315.86c.395.86-.474.78-.474.78l-1.023-.16z"/><linearGradient id="h" x1="317.178" x2="320.094" y1="18.837" y2="18.837" gradientTransform="matrix(.0043 .0018 -.0014 .0055 -542.583 -740.47)" gradientUnits="userSpaceOnUse"><stop offset="0" stop-color="#fff"/><stop offset=".033" stop-color="#8e8d45"/><stop offset="1"/></linearGradient><path fill="url(#h)" d="M17.178 18.798l2.05-.63.866-.078-1.025.708-1.5.786z"/><linearGradient id="i" x1="318.281" x2="320.094" y1="21.394" y2="21.394" gradientTransform="matrix(.0043 .0018 -.0014 .0055 -542.583 -740.47)" gradientUnits="userSpaceOnUse"><stop offset="0" stop-color="#fff"/><stop offset=".033" stop-color="#8e8d45"/><stop offset="1"/></linearGradient><path fill="url(#i)" d="M18.28 20.843l1.026.315h.63l.158.236-1.656.55z"/><linearGradient id="j" x1="322.014" x2="330.481" y1="11.365" y2="11.365" gradientTransform="matrix(.0043 .0018 -.0014 .0055 -542.583 -740.47)" gradientUnits="userSpaceOnUse"><stop offset="0" stop-color="#fff"/><stop offset="0" stop-color="#d8dd82"/><stop offset=".12" stop-color="#aeb269"/><stop offset=".287" stop-color="#7a7c49"/><stop offset=".451" stop-color="#4e502f"/><stop offset=".608" stop-color="#2c2d1a"/><stop offset=".755" stop-color="#14140c"/><stop offset=".89" stop-color="#050503"/><stop offset="1"/></linearGradient><path fill="url(#j)" d="M30.497 22.73s-1.024-.47-1.42-.944c-.314-.472-.55-.786-.707-1.415-.158-.55-.867-3.62-1.34-4.09-.396-.47-1.105-1.02-1.105-1.02s-1.183-4.56-1.813-6.13c-.632-1.57-1.498-5.35-1.892-6.21-.395-1.02-.08-1.81.08-1.96.154-.24 1.1-.95 1.1-.95l1.024.16.394.4s-1.34.55-1.34.71c-.078.24-.314.95-.236 1.26 0 .24.553 2.76.867 3.7.23.87.86 2.28 1.18 3.39.39 1.1.39 2.05.86 2.91.47.79 1.73 3.7 1.81 4.25.08.55.94 1.58 1.1 2.05.23.47.86 2.52.86 2.52l.55 1.42z"/><path fill="#9dbc3b" d="M46.652 73.543c-.71 2.752-3.39 4.09-5.754 3.304-2.44-.865-3.782-3.777-2.994-6.372.71-2.674 3.31-4.09 5.752-3.226 2.445.86 3.784 3.69 2.996 6.29z"/><path fill="#fbfcf7" d="M41.057 70.003l1.102-.55 1.34-1.338-1.42-.47-2.6 2.123 1.65 1.964z" opacity=".08"/><path fill="#070808" d="M37.983 70.24s1.498 4.088 3.153 4.482c1.732.314 2.6.235 3.86-.157 1.183-.395 1.498-.787 1.498-.787s-.553 1.653-1.42 2.124c-.786.55-2.05 1.337-2.993 1.102-.94-.078-2.05-.474-2.6-.942-.55-.552-1.42-1.496-1.57-2.52-.31-1.02-.31-1.65-.23-2.28A4.935 4.935 0 0038 70.24z" opacity=".04"/><path fill="#85a53e" d="M41.057 66.307c-.71 2.674-3.388 4.09-5.752 3.302-2.443-.87-3.783-3.78-2.995-6.37.71-2.68 3.31-4.09 5.753-3.23 2.442.78 3.703 3.69 2.994 6.29z"/><path fill="#f8f8f7" d="M35.46 62.768l1.105-.474 1.34-1.494-1.42-.473-2.6 2.204 1.656 1.89z" opacity=".2"/><path fill="#070808" d="M32.466 63.08s1.498 4.09 3.152 4.406c1.733.393 2.68.314 3.86-.078 1.184-.474 1.498-.787 1.498-.787s-.552 1.66-1.418 2.13c-.71.55-2.05 1.26-2.995 1.1-.945-.08-2.05-.47-2.6-.94-.553-.55-1.42-1.49-1.577-2.52-.315-1.02-.315-1.65-.236-2.28.16-.63.316-1.02.316-1.02z" opacity=".08"/><path fill="#99ca3c" d="M50.83 66.778c-.16 3.068-2.682 5.428-5.44 5.19-2.836-.236-4.964-2.988-4.728-6.057.235-3.06 2.76-5.34 5.517-5.18 2.83.16 4.96 2.91 4.65 6.06z"/><path fill="#f8f8f3" d="M44.052 64.418l1.023-.785 1.026-1.967-1.57-.08-2.36 2.99 2.37 1.653z" opacity=".2"/><path fill="#070808" d="M40.82 65.598s2.602 4.01 4.413 3.856c1.972-.08 2.916-.316 4.1-1.183 1.26-.86 1.497-1.33 1.497-1.33s-.236 1.97-1.024 2.76c-.71.79-1.813 1.97-2.995 2.05-1.02.08-2.28.08-3.07-.31-.71-.47-1.81-1.18-2.28-2.28-.47-1.02-.79-1.81-.79-2.44 0-.55.16-1.1.16-1.1z" opacity=".04"/><path fill="#9dbc3b" d="M58.316 76.295c-.867 2.676-3.468 4.248-5.99 3.305-2.52-.788-3.78-3.775-2.993-6.53.865-2.672 3.466-4.246 5.988-3.302 2.45.787 3.87 3.775 3 6.527z"/><path fill="#fbfcf7" d="M52.64 72.677l1.105-.628 1.34-1.34-1.42-.55-2.68 2.2 1.735 1.96z" opacity=".08"/><path fill="#070808" d="M49.49 72.915s1.575 4.167 3.23 4.562c1.813.393 2.68.314 3.94-.078 1.182-.48 1.575-.87 1.575-.87s-.63 1.73-1.42 2.28c-.864.55-2.048 1.26-3.07 1.18-.947-.08-2.13-.47-2.68-1.02-.553-.55-1.42-1.57-1.733-2.6-.237-1.03-.315-1.81-.158-2.36.158-.63.315-1.1.315-1.1z" opacity=".04"/><path fill="#85a53e" d="M57.29 72.05c-.708 2.75-3.39 4.167-5.75 3.3-2.444-.862-3.784-3.695-2.917-6.37.71-2.673 3.388-4.088 5.753-3.225 2.442.866 3.783 3.618 2.915 6.294z"/><path fill="#f8f8f7" d="M51.774 68.43l1.024-.472 1.34-1.337-1.34-.47-2.6 2.05 1.655 1.97z" opacity=".2"/><path fill="#070808" d="M48.7 68.745s1.497 4.09 3.152 4.48c1.733.317 2.68.238 3.86-.156 1.184-.4 1.5-.71 1.5-.71s-.554 1.57-1.42 2.12c-.71.55-2.05 1.33-2.995 1.1-.945-.08-2.048-.4-2.6-.87-.553-.55-1.42-1.5-1.576-2.52-.31-1.02-.31-1.73-.15-2.36.16-.63.24-1.1.24-1.1z" opacity=".08"/><path fill="#85a53e" d="M59.104 56.395c-.71 2.203-2.838 3.383-4.887 2.755-2.05-.787-3.152-3.068-2.52-5.192.63-2.203 2.835-3.383 4.885-2.753 1.89.63 3.152 3.066 2.522 5.19z"/><path fill="#f8f8f7" d="M54.296 53.485l.947-.392 1.023-1.258-1.103-.316-2.286 1.65 1.498 1.65z" opacity=".2"/><path fill="#070808" d="M51.696 53.643s1.34 3.383 2.68 3.698c1.418.4 2.284.32 3.23-.07 1.023-.39 1.26-.63 1.26-.63s-.473 1.26-1.103 1.73-1.655 1.03-2.52.95c-.867-.08-1.734-.39-2.207-.78-.475-.47-1.184-1.25-1.418-2.2-.236-.78-.315-1.34-.236-1.81a3.83 3.83 0 00.314-.86z" opacity=".08"/><path fill="#99ca3c" d="M52.72 51.126c-.158 3.068-2.68 5.27-5.516 5.035-2.76-.31-4.967-2.91-4.73-5.97.158-3.07 2.68-5.27 5.518-5.03 2.837.32 5.044 2.91 4.728 5.98z"/><path fill="#f8f8f3" d="M45.784 48.767l1.026-.788 1.183-1.81-1.656-.16L43.973 49l2.285 1.573z" opacity=".2"/><path fill="#070808" d="M42.554 49.946s2.6 3.854 4.57 3.774c1.97-.078 2.917-.393 4.1-1.1 1.26-.786 1.497-1.18 1.497-1.18s-.23 1.81-1.02 2.672c-.71.71-1.89 1.89-2.99 2.046-1.02.08-2.28.08-3.15-.313-.78-.394-1.89-1.18-2.36-2.203-.55-1.022-.71-1.65-.71-2.438a9.802 9.802 0 01.08-1.258z" opacity=".04"/><path fill="#9dbc3b" d="M40.898 38.305c-.866 2.674-3.466 4.248-5.99 3.304-2.44-.79-3.86-3.78-2.993-6.53.866-2.68 3.468-4.25 5.99-3.31 2.442.78 3.782 3.69 2.993 6.53z"/><path fill="#fbfcf7" d="M35.146 34.53l1.183-.473 1.26-1.494-1.42-.473-2.68 2.203 1.81 2.045z" opacity=".08"/><path fill="#070808" d="M31.994 34.845s1.575 4.17 3.31 4.563c1.733.393 2.68.393 3.862-.08 1.26-.472 1.654-.866 1.654-.866s-.71 1.652-1.42 2.204c-.865.63-2.047 1.337-3.07 1.257-.947-.08-2.208-.472-2.76-1.023-.553-.55-1.42-1.572-1.655-2.595-.314-1.023-.395-1.81-.157-2.36.157-.63.236-1.1.236-1.1z" opacity=".04"/><path fill="#9dbc3b" d="M32.94 57.26c-.788 2.755-3.39 4.09-5.753 3.305-2.442-.865-3.782-3.775-2.994-6.37.71-2.676 3.31-4.09 5.752-3.226 2.443.78 3.783 3.61 2.995 6.29z"/><path fill="#fbfcf7" d="M27.345 53.643l1.102-.473 1.34-1.416-1.418-.47-2.6 2.044 1.65 1.966z" opacity=".08"/><path fill="#070808" d="M24.27 53.957s1.5 4.09 3.153 4.405c1.655.395 2.6.315 3.86-.08 1.184-.47 1.498-.786 1.498-.786s-.63 1.653-1.41 2.124c-.78.552-2.05 1.26-2.99 1.104-.94-.08-2.05-.473-2.6-.946-.55-.55-1.42-1.494-1.57-2.515-.31-1.024-.31-1.653-.23-2.283.24-.628.32-1.023.32-1.023z" opacity=".04"/><path fill="#9dbc3b" d="M38.93 58.126c-.79 2.674-3.39 4.09-5.833 3.226-2.364-.787-3.704-3.698-2.995-6.294.788-2.752 3.39-4.09 5.832-3.304 2.443.866 3.704 3.698 2.995 6.372z"/><path fill="#fbfcf7" d="M33.413 54.587l1.024-.552 1.34-1.415-1.42-.472-2.6 2.046 1.656 1.967z" opacity=".08"/><path fill="#070808" d="M30.338 54.744s1.498 4.09 3.15 4.483c1.656.393 2.604.314 3.863-.078 1.19-.48 1.5-.87 1.5-.87s-.55 1.57-1.42 2.12c-.78.63-2.05 1.33-2.99 1.18-.94-.16-2.05-.48-2.6-.95-.55-.55-1.42-1.5-1.57-2.52-.31-1.03-.31-1.73-.23-2.36.08-.55.32-1.03.32-1.03z" opacity=".04"/><path fill="#99ca3c" d="M35.146 49.315c-.157 3.147-2.68 5.43-5.438 5.27-2.837-.315-4.964-2.99-4.73-6.056.237-3.07 2.76-5.43 5.518-5.2 2.837.24 4.886 2.91 4.65 5.98z"/><path fill="#f8f8f3" d="M28.29 47.115l1.103-.944 1.024-1.81-1.575-.23-2.364 3.07 2.285 1.74z" opacity=".2"/><path fill="#070808" d="M24.98 48.215s2.602 4.013 4.492 3.934c1.97-.08 2.916-.4 4.098-1.18 1.262-.87 1.498-1.34 1.498-1.34s-.236 1.96-1.024 2.67c-.71.86-1.892 1.96-2.994 2.04-1.024.15-2.286.15-3.074-.24-.71-.47-1.813-1.18-2.285-2.36-.63-1.02-.78-1.73-.78-2.44.08-.55.08-1.1.08-1.1z" opacity=".04"/><path fill="#99ca3c" d="M44.682 50.81c-.157 3.147-2.68 5.43-5.517 5.27-2.76-.315-4.887-2.99-4.65-6.056.158-3.068 2.68-5.428 5.517-5.27 2.836.315 4.965 2.99 4.65 6.056z"/><path fill="#f8f8f3" d="M37.826 48.53l1.103-.865 1.02-1.81-1.58-.236L36 48.68l2.364 1.73z" opacity=".2"/><path fill="#070808" d="M34.594 49.71s2.6 4.01 4.492 3.933c1.97-.078 2.916-.393 4.1-1.18 1.26-.864 1.496-1.337 1.496-1.337s-.236 1.967-1.024 2.674c-.71.865-1.892 1.967-2.994 2.046-1.024.156-2.285.156-3.073-.236-.7-.473-1.81-1.258-2.28-2.36-.47-1.02-.79-1.73-.79-2.44 0-.628.08-1.1.08-1.1z" opacity=".04"/><path fill="#85a53e" d="M57.37 37.282c-.71 2.676-3.31 4.09-5.753 3.225-2.442-.865-3.703-3.7-2.994-6.293.71-2.752 3.388-4.168 5.753-3.303 2.442.87 3.783 3.62 2.994 6.38z"/><path fill="#f8f8f7" d="M51.774 33.743l1.103-.63 1.34-1.336-1.42-.473-2.6 2.045 1.656 1.96z" opacity=".2"/><path fill="#070808" d="M48.78 33.9s1.497 4.09 3.23 4.483c1.655.393 2.602.236 3.783-.078 1.26-.472 1.497-.787 1.497-.787s-.552 1.652-1.418 2.124c-.71.552-2.05 1.337-2.995 1.18-.867-.155-2.048-.47-2.6-.942-.553-.552-1.42-1.496-1.577-2.52-.235-1.02-.235-1.73-.156-2.36.078-.628.236-1.1.236-1.1z" opacity=".08"/><path fill="#85a53e" d="M55.714 39.642c-.71 2.752-3.39 4.09-5.752 3.304-2.443-.865-3.783-3.777-2.916-6.372.71-2.674 3.31-4.09 5.752-3.225 2.365.86 3.626 3.69 2.916 6.29z"/><path fill="#f8f8f7" d="M50.12 36.103l1.103-.473 1.34-1.337-1.418-.55-2.6 2.123 1.653 1.967z" opacity=".2"/><path fill="#070808" d="M47.125 36.417s1.497 4.09 3.15 4.483c1.734.396 2.602.236 3.862-.078 1.183-.47 1.498-.863 1.498-.863s-.552 1.65-1.42 2.12c-.787.55-2.048 1.33-2.994 1.1-.94-.08-2.04-.47-2.6-.94-.55-.55-1.42-1.42-1.57-2.44-.31-1.03-.31-1.73-.23-2.36.16-.56.32-1.03.32-1.03z" opacity=".08"/><path fill="#99ca3c" d="M50.12 41.688c-.158 3.066-2.68 5.35-5.52 5.033-2.836-.23-4.964-2.83-4.728-5.89.157-3.14 2.68-5.35 5.517-5.03 2.76.24 4.88 2.99 4.73 5.9z"/><path fill="#f8f8f3" d="M43.105 39.484l1.104-.865 1.02-1.81-1.58-.16-2.29 2.91 2.28 1.73z" opacity=".2"/><path fill="#070808" d="M39.874 40.586s2.602 3.934 4.57 3.855c1.893-.07 2.837-.39 4.1-1.1 1.182-.78 1.497-1.26 1.497-1.26s-.31 1.89-1.02 2.68c-.79.79-1.89 1.89-2.99 2.13-1.02.08-2.36.08-3.15-.31-.79-.47-1.89-1.18-2.36-2.2-.47-1.02-.79-1.73-.79-2.44.16-.86.16-1.33.16-1.33z" opacity=".04"/><path fill="#9dbc3b" d="M52.01 33.427c-.788 2.675-3.388 4.09-5.832 3.226-2.442-.787-3.703-3.698-2.916-6.293.79-2.675 3.39-4.09 5.832-3.226 2.287.788 3.626 3.698 2.916 6.293z"/><path fill="#fbfcf7" d="M46.337 29.888l1.182-.472 1.26-1.494-1.34-.472-2.68 2.124 1.73 1.966z" opacity=".08"/><path fill="#070808" d="M43.263 30.202s1.498 4.09 3.23 4.405c1.655.393 2.602.315 3.783-.078 1.262-.48 1.497-.79 1.497-.79s-.55 1.65-1.417 2.12c-.71.55-2.05 1.26-2.916 1.1-.945-.08-2.05-.47-2.68-.95-.552-.55-1.34-1.5-1.576-2.52s-.236-1.65-.158-2.28a20.6 20.6 0 00.237-1.03z" opacity=".04"/><path fill="#99ca3c" d="M44.288 30.752c-.158 3.07-2.68 5.27-5.438 5.035-2.837-.315-4.965-2.91-4.808-5.978.235-3.07 2.76-5.35 5.517-5.04 2.83.23 4.96 2.99 4.72 5.97z"/><path fill="#f8f8f3" d="M37.353 28.473l1.104-.787 1.023-1.888-1.575-.078-2.364 2.83 2.29 1.652z" opacity=".2"/><path fill="#070808" d="M34.042 29.574s2.602 3.932 4.57 3.854c1.97-.08 2.916-.393 4.1-1.102 1.26-.787 1.496-1.258 1.496-1.258s-.236 1.888-1.024 2.753c-.71.71-1.813 1.81-2.995 2.05-1.03.08-2.29.08-3.16-.31-.71-.47-1.9-1.18-2.37-2.2-.55-1.02-.71-1.65-.71-2.44.08-.86.08-1.33.08-1.33z" opacity=".04"/><path fill="#99ca3c" d="M10.322 44.677c-.156 3.066-2.68 5.348-5.437 5.033-2.838-.235-4.966-2.83-4.808-5.978.235-3.066 2.758-5.27 5.517-4.957 2.836.24 4.964 2.833 4.728 5.902z"/><path fill="#f8f8f3" d="M3.387 42.394l1.103-.864 1.025-1.73-1.577-.237-2.364 2.99 2.207 1.572z" opacity=".2"/><path fill="#070808" d="M.077 43.495s2.602 3.935 4.57 3.777c1.97-.08 2.916-.314 4.1-1.102 1.26-.71 1.495-1.182 1.495-1.182s-.235 1.89-1.023 2.676c-.71.786-1.82 1.888-3 2.046-1.03.077-2.29.077-3.16-.237-.71-.47-1.89-1.258-2.37-2.28-.55-1.023-.7-1.653-.7-2.44.07-.706.07-1.258.07-1.258z" opacity=".04"/><path fill="#99ca3c" d="M15.05 44.125c-.236 3.066-2.758 5.348-5.518 5.034-2.837-.24-4.964-2.91-4.807-5.98.236-3.07 2.758-5.27 5.517-5.04 2.917.31 4.966 2.99 4.808 5.98z"/><path fill="#f8f8f3" d="M8.115 41.923l1.025-.866 1.103-1.89-1.655-.153-2.363 2.99 2.363 1.57z" opacity=".2"/><path fill="#070808" d="M4.885 42.945s2.6 3.933 4.57 3.775c1.892-.08 2.838-.314 4.1-1.102 1.18-.707 1.496-1.18 1.496-1.18s-.31 1.81-1.02 2.674c-.79.785-1.89 1.89-2.99 2.046-1.02.078-2.36.078-3.23-.236C7.1 48.45 6 47.664 5.53 46.64c-.552-1.03-.79-1.65-.79-2.44a4.964 4.964 0 01.157-1.26z" opacity=".04"/><path fill="#99ca3c" d="M27.817 19.19c-.235 2.595-2.364 4.563-4.808 4.248-2.37-.157-4.18-2.517-3.94-5.113.15-2.595 2.28-4.56 4.72-4.247 2.44.236 4.17 2.516 4.02 5.112z"/><path fill="#f8f8f3" d="M21.906 17.225l.947-.786.866-1.58-1.34-.08-2.05 2.51 1.97 1.41z" opacity=".2"/><path fill="#070808" d="M19.148 18.168s2.206 3.304 3.86 3.304c1.735-.08 2.522-.236 3.626-1.023.946-.63 1.262-1.1 1.262-1.1s-.158 1.57-.867 2.36c-.64.62-1.58 1.57-2.53 1.73-.87.07-2.05.07-2.68-.24-.63-.4-1.58-1.03-2.05-1.97-.48-.87-.63-1.5-.63-2.05-.08-.55 0-1.03 0-1.03z" opacity=".04"/><path fill="#9dbc3b" d="M20.725 48.61c-.788 2.673-3.39 4.088-5.832 3.225-2.364-.788-3.704-3.697-2.916-6.294.71-2.67 3.31-4.09 5.752-3.3 2.44.87 3.7 3.78 2.99 6.38z"/><path fill="#fbfcf7" d="M15.13 45.07l1.103-.473 1.34-1.416-1.42-.54-2.6 2.12 1.655 1.97z" opacity=".08"/><path fill="#070808" d="M12.134 45.384s1.498 4.09 3.15 4.405c1.735.39 2.602.31 3.863-.08 1.183-.48 1.497-.79 1.497-.79s-.552 1.65-1.42 2.12c-.787.55-2.048 1.26-2.993 1.1-.94-.08-2.05-.47-2.6-.95-.55-.55-1.42-1.49-1.57-2.52-.31-1.02-.31-1.65-.23-2.28.16-.55.32-1.03.32-1.03z" opacity=".04"/><path fill="#9dbc3b" d="M21.354 43.18c-.71 2.754-3.39 4.093-5.752 3.308-2.443-.866-3.783-3.777-2.916-6.373.71-2.674 3.39-4.09 5.752-3.226 2.365.78 3.705 3.69 2.916 6.29z"/><path fill="#fbfcf7" d="M15.76 39.642l1.102-.55 1.34-1.417-1.417-.393-2.602 2.126 1.655 1.963z" opacity=".08"/><path fill="#070808" d="M12.765 39.877s1.497 4.09 3.152 4.484c1.732.32 2.68.24 3.86-.15 1.184-.47 1.498-.78 1.498-.78s-.552 1.65-1.42 2.13c-.708.55-2.048 1.34-2.994 1.1-.94-.08-2.04-.47-2.6-.94-.55-.55-1.41-1.49-1.57-2.52-.23-1.02-.23-1.65-.15-2.28.08-.55.24-1.02.24-1.02z" opacity=".04"/><path fill="#9dbc3b" d="M27.187 39.408c-.788 2.672-3.39 4.087-5.832 3.224-2.44-.788-3.704-3.7-2.994-6.294.79-2.75 3.39-4.09 5.84-3.303 2.44.864 3.71 3.618 3 6.373z"/><path fill="#fbfcf7" d="M21.59 35.866l1.104-.55 1.26-1.417-1.338-.48-2.68 2.04 1.734 1.96z" opacity=".08"/><path fill="#070808" d="M18.597 36.022s1.497 4.09 3.152 4.484c1.65.393 2.6.314 3.78-.078 1.26-.47 1.49-.865 1.49-.865s-.55 1.572-1.34 2.124c-.79.55-2.05 1.337-3 1.18-.95-.157-2.05-.474-2.6-.944-.56-.552-1.42-1.494-1.66-2.515-.24-1.025-.24-1.733-.16-2.36.08-.552.31-1.026.31-1.026z" opacity=".04"/><path fill="#9dbc3b" d="M26.95 53.17c-.708 2.676-3.31 4.09-5.753 3.225-2.442-.785-3.782-3.696-2.994-6.29.71-2.675 3.39-4.09 5.753-3.227 2.442.787 3.782 3.62 2.995 6.292z"/><path fill="#fbfcf7" d="M21.354 49.552l1.104-.47 1.34-1.417-1.42-.474-2.6 2.05 1.656 1.97z" opacity=".08"/><path fill="#070808" d="M18.36 49.79s1.497 4.167 3.23 4.48c1.655.395 2.602.316 3.783-.076 1.26-.474 1.497-.71 1.497-.71s-.552 1.654-1.418 2.125c-.71.55-2.05 1.25-2.995 1.1-.867-.08-2.05-.48-2.602-.95-.552-.55-1.42-1.5-1.576-2.52-.32-1.03-.32-1.65-.16-2.28.08-.71.23-1.18.23-1.18z" opacity=".04"/><path fill="#99ca3c" d="M28.447 37.91c-.156 3.068-2.68 5.27-5.517 5.035-2.758-.313-4.965-2.91-4.73-5.978.16-3.068 2.682-5.27 5.52-5.034 2.758.316 4.965 2.912 4.727 5.977z"/><path fill="#f8f8f3" d="M21.434 35.552l1.182-.707 1.025-1.89-1.65-.157-2.28 2.99L22 37.36z" opacity=".2"/><path fill="#070808" d="M18.2 36.653s2.603 3.933 4.572 3.854c1.97-.078 2.916-.395 4.1-1.1 1.182-.788 1.497-1.262 1.497-1.262s-.32 1.89-1.03 2.754c-.71.7-1.89 1.8-3 2.04-1.03.08-2.37.08-3.16-.32-.79-.48-1.89-1.18-2.37-2.2-.56-1.03-.71-1.66-.71-2.44.07-.71.07-1.34.07-1.34z" opacity=".04"/><path fill="#85a53e" d="M26.793 54.115c-.788 2.674-3.39 4.09-5.832 3.226-2.36-.78-3.7-3.69-2.99-6.29.79-2.67 3.39-4.09 5.83-3.3 2.52.87 3.79 3.7 3 6.37z"/><path fill="#f8f8f7" d="M21.276 50.574l1.025-.55 1.34-1.415-1.34-.48-2.6 2.04 1.66 1.96z" opacity=".2"/><path fill="#070808" d="M18.2 50.733s1.5 4.09 3.153 4.48c1.655.396 2.602.317 3.862-.077 1.182-.472 1.497-.866 1.497-.866s-.553 1.575-1.42 2.124c-.787.63-2.05 1.337-2.993 1.18-.95-.078-2.05-.47-2.61-.94-.55-.553-1.42-1.495-1.58-2.52-.32-1.02-.32-1.65-.24-2.36.24-.55.31-1.02.31-1.02z" opacity=".08"/><path fill="#9dbc3b" d="M27.58 47.743c-.71 2.755-3.31 4.092-5.752 3.304-2.443-.863-3.704-3.774-2.995-6.37.788-2.674 3.39-4.09 5.832-3.226 2.522.79 3.782 3.7 2.916 6.3z"/><path fill="#fbfcf7" d="M22.143 44.204l1.103-.474 1.183-1.494-1.27-.392-2.68 2.125 1.73 1.96z" opacity=".08"/><path fill="#070808" d="M19.07 44.52s1.418 4.09 3.15 4.482c1.656.313 2.602.235 3.784-.077 1.26-.475 1.497-.865 1.497-.865s-.55 1.652-1.34 2.124c-.78.55-2.05 1.337-2.99 1.102-.94-.08-2.05-.474-2.68-.866-.55-.63-1.34-1.494-1.57-2.52-.23-1.02-.23-1.728-.15-2.358.16-.553.32-1.022.32-1.022z" opacity=".04"/><path fill="#99ca3c" d="M19.148 21.708c-.235 3.067-2.76 5.27-5.516 5.034-2.838-.314-4.966-2.91-4.81-5.98.237-3.065 2.76-5.347 5.52-5.033 2.836.31 4.964 2.91 4.806 5.97z"/><path fill="#f8f8f3" d="M12.134 19.35l1.104-.788 1.024-1.81-1.576-.158-2.364 2.99 2.364 1.574z" opacity=".2"/><path fill="#070808" d="M8.825 20.45s2.68 3.933 4.57 3.854c1.97-.08 2.916-.394 4.177-1.102 1.183-.787 1.497-1.258 1.497-1.258s-.32 1.888-1.11 2.752c-.71.708-1.82 1.81-2.92 2.045-1.03.08-2.37.08-3.23-.31-.71-.47-1.82-1.18-2.29-2.2-.55-1.02-.79-1.73-.79-2.44.08-.78.08-1.33.08-1.33z" opacity=".04"/><path fill="#99ca3c" d="M9.534 24.775C9.3 27.45 7.17 29.415 4.648 29.18 2.128 28.944.314 26.663.55 23.91c.156-2.675 2.363-4.64 4.887-4.327 2.363.237 4.254 2.597 4.097 5.192z"/><path fill="#f8f8f3" d="M3.466 22.81l.945-.708.95-1.73-1.42-.08-2.2 2.596 2.05 1.416z" opacity=".2"/><path fill="#070808" d="M.55 23.753s2.364 3.46 4.02 3.38c1.655-.156 2.52-.313 3.625-1.1 1.024-.63 1.34-1.103 1.34-1.103s-.235 1.732-.866 2.36c-.63.63-1.66 1.652-2.61 1.732-.95.157-2.05.157-2.68-.236-.71-.394-1.66-1.102-2.05-1.966-.48-.944-.71-1.495-.71-2.045-.16-.55-.08-1.022-.08-1.022z" opacity=".04"/><path fill="#99ca3c" d="M49.49 36.103c-.236 2.753-2.364 4.718-4.888 4.404-2.52-.156-4.256-2.517-4.177-5.19.158-2.753 2.286-4.72 4.808-4.405 2.523.314 4.413 2.595 4.256 5.19z"/><path fill="#f8f8f3" d="M43.263 34.214l1.025-.787.945-1.65-1.34-.08-2.206 2.596 2.05 1.337z" opacity=".2"/><path fill="#070808" d="M40.505 35.08s2.364 3.46 4.02 3.382c1.654-.08 2.52-.393 3.625-1.023 1.024-.63 1.34-1.11 1.34-1.11s-.235 1.65-.866 2.28c-.63.7-1.654 1.73-2.602 1.81-.944.07-2.05.07-2.76-.32-.63-.32-1.575-1.1-2.048-1.97-.395-.87-.63-1.5-.63-2.05-.158-.55-.08-1.02-.08-1.02z" opacity=".04"/><path fill="#9dbc3b" d="M51.302 16.594c-.63 2.124-2.758 3.305-4.73 2.675-1.97-.63-3.07-3.07-2.44-5.19.63-2.21 2.837-3.39 4.728-2.76 2.126.7 3.15 3.06 2.442 5.27z"/><path fill="#fbfcf7" d="M46.73 13.686l.947-.473L48.7 12.11l-1.102-.47-2.128 1.73 1.34 1.652z" opacity=".08"/><path fill="#070808" d="M44.288 13.842s1.26 3.383 2.68 3.697c1.34.23 2.127.23 3.073-.16.95-.32 1.19-.63 1.19-.63s-.47 1.34-1.1 1.81c-.63.39-1.65 1.02-2.44.86-.71-.08-1.65-.32-2.12-.79-.47-.48-1.1-1.26-1.34-2.05-.16-.87-.23-1.42-.16-1.89.08-.47.24-.87.24-.87z" opacity=".04"/><path fill="#9dbc3b" d="M44.13 16.91c-.63 2.2-2.758 3.382-4.73 2.752-1.968-.708-3.07-3.068-2.44-5.27.63-2.123 2.757-3.303 4.727-2.673 2.05.78 3.074 3.06 2.443 5.19z"/><path fill="#fbfcf7" d="M39.56 14.08l.945-.474 1.024-1.1-1.11-.395-2.13 1.66 1.34 1.58z" opacity=".08"/><path fill="#070808" d="M37.038 14.237s1.26 3.38 2.6 3.617c1.42.315 2.128.315 3.074-.077.944-.395 1.26-.63 1.26-.63s-.472 1.258-1.103 1.73c-.71.474-1.74 1.024-2.45.944-.79-.07-1.74-.39-2.13-.86-.48-.39-1.19-1.18-1.34-2.04-.16-.78-.32-1.33-.16-1.81a8.62 8.62 0 00.23-.86z" opacity=".04"/><path fill="#99ca3c" d="M47.993 22.966c-.237 3.067-2.76 5.35-5.518 5.034-2.838-.235-4.965-2.83-4.807-5.9.235-3.146 2.757-5.348 5.516-5.034 2.917.236 5.045 2.99 4.81 5.9z"/><path fill="#f8f8f3" d="M41.057 20.764l1.024-.865 1.11-1.81-1.57-.24-2.44 2.99 2.37 1.57z" opacity=".2"/><path fill="#070808" d="M37.826 21.786s2.6 3.933 4.57 3.855c1.894-.15 2.838-.39 4.1-1.18 1.183-.7 1.498-1.18 1.498-1.18s-.315 1.89-1.024 2.68c-.79.79-1.892 1.89-2.995 2.05-1.023.08-2.364.08-3.152-.23-.787-.47-1.89-1.26-2.363-2.28-.553-1.02-.788-1.65-.788-2.36a5.215 5.215 0 01.154-1.33z" opacity=".04"/><path fill="#99ca3c" d="M33.885 31.854c-.157 3.068-2.68 5.27-5.516 5.034-2.84-.314-4.97-2.91-4.73-5.977.15-3.06 2.68-5.27 5.43-5.03 2.83.32 4.96 2.99 4.8 5.98z"/><path fill="#f8f8f3" d="M26.87 29.574l1.105-.787L29 26.9l-1.577-.08-2.364 2.91 2.36 1.653z" opacity=".2"/><path fill="#070808" d="M23.64 30.752s2.603 3.854 4.57 3.776c1.892-.08 2.838-.314 4.1-1.102 1.182-.708 1.496-1.18 1.496-1.18s-.314 1.81-1.023 2.674c-.788.708-1.893 1.887-2.995 2.044-1.024.08-2.364.08-3.152-.314s-1.89-1.18-2.364-2.203c-.552-1.022-.788-1.652-.788-2.438.157-.79.157-1.26.157-1.26z" opacity=".04"/><path fill="#9dbc3b" d="M22.458 38.07c-.71 2.75-3.31 4.088-5.753 3.3C14.262 40.508 13 37.598 13.71 35c.788-2.674 3.388-4.088 5.832-3.223 2.364.786 3.704 3.697 2.916 6.292z"/><path fill="#fbfcf7" d="M17.02 34.53l.946-.473 1.34-1.494-1.42-.473-2.6 2.203 1.735 1.967z" opacity=".08"/><path fill="#070808" d="M13.87 34.845s1.496 4.088 3.23 4.482c1.654.314 2.6.236 3.782-.157 1.26-.395 1.497-.787 1.497-.787s-.56 1.653-1.42 2.124c-.71.552-2.05 1.337-3 1.102-.87-.08-2.05-.48-2.6-.95-.56-.55-1.34-1.5-1.58-2.52s-.24-1.65-.16-2.28a6.01 6.01 0 01.23-1.02z" opacity=".04"/><path fill="#9dbc3b" d="M15.523 35.08c-.788 2.753-3.39 4.088-5.832 3.303-2.44-.865-3.7-3.776-2.99-6.37.79-2.676 3.39-4.09 5.83-3.227 2.37.788 3.78 3.62 3 6.294z"/><path fill="#fbfcf7" d="M10.006 31.54l1.025-.55 1.27-1.416-1.42-.393-2.6 2.05 1.73 1.89z" opacity=".08"/><path fill="#070808" d="M6.933 31.777s1.497 4.09 3.152 4.483c1.654.314 2.6.236 3.782-.157 1.262-.473 1.497-.708 1.497-.708s-.552 1.652-1.34 2.122c-.788.552-2.05 1.34-2.995 1.104-.95-.07-2.05-.47-2.61-.94-.63-.55-1.42-1.41-1.66-2.51-.24-.94-.24-1.65-.16-2.28.08-.62.31-1.1.31-1.1z" opacity=".04"/><path fill="#9dbc3b" d="M22.143 28.473c-.788 2.753-3.39 4.09-5.832 3.304-2.44-.865-3.7-3.776-2.91-6.372.79-2.675 3.39-4.09 5.83-3.225 2.37.786 3.63 3.618 2.92 6.293z"/><path fill="#fbfcf7" d="M16.547 24.932l1.103-.55 1.262-1.416-1.34-.47-2.68 2.2 1.734 1.968z" opacity=".08"/><path fill="#070808" d="M13.395 25.17s1.498 4.088 3.23 4.404c1.655.393 2.602.314 3.783-.08 1.262-.47 1.497-.786 1.497-.786s-.552 1.573-1.418 2.124c-.71.55-2.05 1.258-2.916 1.102-.94-.08-2.04-.473-2.67-.944-.55-.55-1.34-1.494-1.57-2.517-.23-1.022-.23-1.652-.16-2.28.16-.552.24-1.023.24-1.023z" opacity=".04"/><path fill="#9dbc3b" d="M54.77 29.73c-.71 2.674-3.39 4.09-5.753 3.226-2.443-.865-3.783-3.697-2.916-6.292.71-2.752 3.39-4.168 5.76-3.304 2.37.865 3.71 3.618 2.92 6.37z"/><path fill="#fbfcf7" d="M49.174 26.034l1.103-.393 1.34-1.41-1.42-.47-2.6 2.05 1.656 1.97z" opacity=".08"/><path fill="#070808" d="M46.18 26.348s1.497 4.09 3.152 4.484c1.732.394 2.678.235 3.86-.08 1.184-.47 1.497-.864 1.497-.864s-.56 1.65-1.42 2.124c-.71.55-2.05 1.336-3 1.1-.95-.077-2.05-.392-2.6-.863-.56-.56-1.42-1.5-1.58-2.52-.32-1.03-.32-1.73-.16-2.36.08-.55.24-1.03.24-1.03z" opacity=".04"/><path fill="#85a53e" d="M10.558 35.395c-.788 2.675-3.39 4.088-5.832 3.225-2.364-.786-3.704-3.697-2.994-6.294.788-2.75 3.39-4.09 5.83-3.302 2.444.864 3.706 3.774 2.996 6.37z"/><path fill="#f8f8f7" d="M4.963 31.854l1.103-.47 1.34-1.417-1.42-.55-2.6 2.123 1.656 1.967z" opacity=".2"/><path fill="#070808" d="M1.89 32.09s1.497 4.168 3.152 4.483c1.654.394 2.6.314 3.782-.077 1.262-.474 1.497-.708 1.497-.708s-.55 1.652-1.34 2.123c-.78.56-2.04 1.26-2.99 1.11-.94-.08-2.05-.47-2.6-.94-.55-.55-1.42-1.49-1.65-2.51-.23-1.02-.23-1.65-.15-2.28.16-.71.32-1.18.32-1.18z" opacity=".08"/><path fill="#85a53e" d="M16.39 27.922c-.708 2.674-3.31 4.09-5.752 3.304-2.443-.865-3.704-3.776-2.916-6.372.788-2.674 3.39-4.09 5.832-3.225 2.284.78 3.624 3.69 2.836 6.29z"/><path fill="#f8f8f7" d="M10.794 24.382l1.183-.55 1.26-1.417-1.418-.47-2.61 2.2 1.65 1.89z" opacity=".2"/><path fill="#070808" d="M7.8 24.62s1.497 4.088 3.23 4.404c1.654.393 2.602.314 3.782-.08 1.26-.472 1.497-.708 1.497-.708s-.55 1.573-1.42 2.124c-.71.55-2.05 1.336-2.92 1.1-.95-.077-2.05-.472-2.68-.942-.55-.55-1.34-1.494-1.58-2.517-.24-1.02-.24-1.65-.16-2.28.08-.71.24-1.1.24-1.1z" opacity=".08"/><path fill="#99ca3c" d="M29.236 29.73C29 32.8 26.478 35 23.72 34.766c-2.838-.314-4.966-2.91-4.808-5.977.235-3.07 2.758-5.35 5.517-5.04 2.91.15 4.96 2.91 4.8 5.97z"/><path fill="#f8f8f3" d="M22.3 27.372l1.026-.866 1.103-1.81-1.58-.077-2.45 2.83 2.36 1.73z" opacity=".2"/><path fill="#070808" d="M19.07 28.473s2.6 3.932 4.57 3.854c1.892-.078 2.837-.393 4.098-1.1 1.184-.787 1.498-1.26 1.498-1.26s-.314 1.89-1.024 2.754c-.788.71-1.892 1.81-2.994 2.05-1.024.08-2.364.08-3.23-.31-.71-.47-1.814-1.18-2.286-2.2-.552-1.02-.787-1.73-.787-2.44a5.298 5.298 0 01.154-1.33z" opacity=".04"/><path fill="#99ca3c" d="M41.372 23.124c-.236 3.07-2.76 5.27-5.518 4.957-2.837-.23-4.965-2.83-4.807-5.89.235-3.07 2.758-5.35 5.517-5.03 2.916.24 5.044 2.99 4.808 5.98z"/><path fill="#f8f8f3" d="M34.437 20.843l1.104-.787 1.03-1.888L35 18.09l-2.364 2.83 2.285 1.732z" opacity=".2"/><path fill="#070808" d="M31.206 21.945s2.6 3.932 4.57 3.854c1.893-.08 2.837-.4 4.098-1.11 1.183-.79 1.498-1.26 1.498-1.26s-.315 1.88-1.025 2.75c-.787.7-1.89 1.81-2.994 2.04-1.023.08-2.364.08-3.23-.32-.71-.47-1.813-1.18-2.285-2.2-.553-1.03-.788-1.74-.788-2.44.156-.87.156-1.34.156-1.34z" opacity=".04"/><path fill="#99ca3c" d="M32.545 27.292c-.157 3.07-2.68 5.27-5.517 5.034-2.76-.314-4.887-2.91-4.73-5.977.158-3.07 2.68-5.35 5.518-5.04 2.917.31 5.045 2.91 4.73 5.97z"/><path fill="#f8f8f3" d="M25.69 24.932l1.024-.786 1.103-1.887-1.576-.08-2.44 2.83 2.37 1.73z" opacity=".2"/><path fill="#070808" d="M22.38 26.034s2.6 3.933 4.57 3.854c1.97-.08 2.915-.394 4.098-1.102 1.26-.786 1.497-1.26 1.497-1.26s-.236 1.89-1.024 2.754c-.7.707-1.81 1.81-2.99 2.044-1.02.08-2.28.08-3.15-.314-.71-.473-1.89-1.18-2.36-2.202-.55-1.023-.71-1.73-.71-2.438 0-.707.08-1.336.08-1.336z" opacity=".04"/></g></switch></svg>
