<svg xmlns="http://www.w3.org/2000/svg" version="1.0" viewBox="0 0 220 129"><switch><g><ellipse cx="49.2" cy="97.2" fill="#7AC043" stroke="#40823E" stroke-width=".25" rx="49.2" ry="27.6"/><ellipse cx="71.7" cy="101.2" fill="#7AC043" stroke="#40823E" stroke-width=".25" rx="49.2" ry="27.6"/><ellipse cx="60.9" cy="101.4" fill="#9E9EA3" stroke="#616263" stroke-width=".25" rx="49.2" ry="27.6"/><ellipse cx="60.9" cy="98.6" fill="#E2E2E7" stroke="#E2E2E7" stroke-width=".25" rx="49.2" ry="27.6"/><g fill="#BCCF41"><path d="M59.8 116.9s.6.1.7.7c-.5.2-.7-.7-.7-.7z"/><path d="M60.3 117.6c-.4 0-.5-.7-.5-.7s.6.1.7.7h-.2zm-.5-.7c0 .1.2.7.5.7h.2c-.1-.6-.6-.7-.7-.7z"/></g><path fill="#F9FCFF" stroke="#020202" stroke-width=".25" d="M37.2 64.3l.3 1.9 4.1-1 .7-1.7z"/><path fill="#E0EDCA" stroke="#DCE68F" stroke-width=".25" d="M91.9 69l-63-13.9-.8 46.8 63.2 13.5z"/><path fill="#EDEFAF" stroke="#C4DA69" stroke-width=".25" d="M98.6 92.3l-7.4 25.1.5-45.5s1.6-12.4 3.8-14.8c2.2-2.4 3.7-3.5 3.7-3.5l-.6 38.7z"/><linearGradient id="a" x1="27.261" x2="98.771" y1="59.068" y2="59.068" gradientTransform="translate(1.696 -2.795)" gradientUnits="userSpaceOnUse"><stop offset="0" stop-color="#fff"/><stop offset="1" stop-color="#4cc1d6"/></linearGradient><path fill="url(#a)" stroke="#4269B1" stroke-width=".25" d="M28.5 59.7l63.2 12.8s3-16.3 8.2-18.5c3.7-1.6-55.9-12.4-57.4-12.9-1.5-.6-5.3 1.5-8.6 4.8-5 5.1-5.4 13.8-5.4 13.8z"/><path fill="#FFF" d="M54.9 107.2c0-.1-.3-2.7-.4-2.9-.1-.1-.4-.6-.6-.6-.2 0-.3.4-.3.4s-.9 1.9-.9 2.1c0 .2.2 1.8.2 1.8s.1.1.4.1c.3 0 .8.1 1 .1.1 0 .6-.6.6-.8.1 0 0-.2 0-.2z"/><path fill="none" d="M52.7 106.3h.3c.2 0 .4.2.4.2m-.5 1.6l.3-.7.4-.1m-.6.8c.1-.1.2-.1.3-.2m-.5-1.6c0 .3.1.5.3.5"/><path fill="#BC2926" stroke="#BC2926" stroke-width=".25" d="M31.7 61.2s-1.4 2.5-1.7 5.6c-.3 3.1 1 5.4 1.4 5.9.4.6 52.6 11.7 52.6 11.7s.2-7.1.9-9.2c.7-2.2 1.3-2.5 1.3-2.5L31.7 61.2z"/><path fill="#AD1F1F" stroke="#AD1F1F" stroke-width=".25" d="M86.1 81l-2 3.2s-.1-7.6 1.3-10.3c1.4-2.7.7-.9.7-.9v8z"/><path fill="#BC2926" d="M28.1 101.2l-.2 4.6 63.4 12 .1-4.4z"/><linearGradient id="b" x1="40.615" x2="65.657" y1="99.834" y2="99.834" gradientTransform="translate(1.696 -2.795)" gradientUnits="userSpaceOnUse"><stop offset="0" stop-color="#fff"/><stop offset="1" stop-color="#4cc1d6"/></linearGradient><path fill="url(#b)" stroke="#939393" stroke-width=".25" d="M66.3 113l-24.7-4.7.4-26.6 24.8 5.1z"/><path fill="#7AC043" stroke="#7AC043" stroke-width=".25" d="M67.1 112.8h-1l.1-26.5h1z"/><path fill="#7AC043" stroke="#40823E" stroke-width=".25" d="M34.1 61.8s-1.3 3.1-1.6 4.8c-.3 1.8.8 6.5.8 6.5l3.8 1s-.6-3.5-.3-6.5 1.7-5.1 1.7-5.1l-4.4-.7zm7.8 1.6s-1.8 3.3-1.5 5.6c.3 2.3.8 6 .8 6l3.8 1s-.4-4.4-.1-7.4c.3-3 1.7-4.5 1.7-4.5l-4.7-.7zm7 1.5s-1.6 3.3-1.5 5.6c.1 2.7.5 6.2.5 6.2l4.1.9s-.4-4.4-.1-7.4c.3-3 1.5-4.4 1.5-4.4l-4.5-.9zm8.3 1.8s-1.5 3.3-1.5 5.6c-.1 2.4.6 6.2.6 6.2l4 .9s-.4-4.4-.1-7.4c.3-3 1.7-4.5 1.7-4.5l-4.7-.8zm7.2 1.5s-.8 2.5-1.5 5.6c-.7 3.1.3 6 .3 6l4.3 1s-.4-4.4-.1-7.4c.3-3 1.7-4.4 1.7-4.4l-4.7-.8zm8.2 1.6s-1.6 3.5-1.7 5.9c-.1 2.6.5 6.1.5 6.1l4.1 1s-.4-4.4-.1-7.4c.3-3 1.7-4.5 1.7-4.5l-4.5-1.1zm6.5 1.5s-1.4 3.3-1.5 5.6c-.2 2.9.9 6.4.9 6.4l3.7.6s-.4-4.4-.1-7.4c.3-3 1.7-4.5 1.7-4.5l-4.7-.7z"/><path fill="#F5F3F4" stroke="#FAF8F8" d="M37.6 68.7v-.8c.7.1 1.5.2 2.2.3 0 .8-.1 1.6-.1 2.5-.3.3-.7.5-1.1.6-.4.1-.7.2-1.1.1-.5-.1-1-.3-1.4-.6-.4-.3-.7-.8-.9-1.3-.2-.5-.3-1.1-.2-1.8 0-.6.2-1.2.4-1.8.2-.5.6-.9 1-1.2.4-.2.9-.3 1.4-.3.4 0 .7.2 1 .4.3.2.5.4.7.8.2.3.3.7.3 1.1-.2 0-.4.1-.6.1-.1-.3-.1-.6-.3-.8-.1-.2-.3-.4-.5-.5-.2-.1-.4-.2-.7-.3-.3 0-.6 0-.8.1-.2.1-.4.2-.6.4-.1.2-.3.4-.4.6-.1.4-.2.8-.3 1.3 0 .6 0 1.1.2 1.5.1.4.4.7.7 1 .3.2.6.4 1 .4.3 0 .6 0 .9-.1.3-.1.5-.2.7-.4 0-.4 0-.8.1-1.2-.6.1-1.1 0-1.6-.1zm3 3.1c.1-1.6.1-3.2.2-4.8.2 0 .4.1.6.1v.7c.2-.3.3-.5.4-.6.1-.1.3-.1.4-.1.2 0 .4.2.6.4-.1.2-.2.5-.3.7-.1-.1-.3-.2-.5-.3-.1 0-.3 0-.4.1-.1.1-.2.2-.3.4-.1.3-.1.6-.1.9 0 .8-.1 1.7-.1 2.5-.1.1-.3 0-.5 0zm2.2-2c0-.9.3-1.5.7-1.9.3-.3.7-.4 1.2-.3.5.1.9.4 1.2.9.3.5.4 1.1.4 1.9 0 .6-.1 1.1-.3 1.4-.2.3-.4.6-.7.7-.3.1-.6.2-.9.1-.5-.1-.9-.4-1.2-.9-.3-.5-.4-1.1-.4-1.9zm.7.1c0 .6.1 1.1.3 1.4.2.3.5.6.8.6.3.1.6 0 .8-.3.2-.3.3-.7.4-1.3 0-.6-.1-1.1-.3-1.4-.2-.4-.5-.6-.8-.6-.3-.1-.6 0-.8.3-.3.2-.4.7-.4 1.3zm6 2l.6.3c-.1.5-.3.9-.6 1.2-.3.2-.6.3-1.1.2-.5-.1-.9-.4-1.2-.9-.3-.5-.4-1.2-.4-2 0-.5.1-1 .3-1.3.2-.4.4-.6.6-.7.3-.1.6-.2.9-.1.4.1.7.3 1 .6.2.3.4.7.4 1.2h-.6c0-.3-.1-.6-.3-.8-.1-.2-.3-.3-.5-.4-.3-.1-.6 0-.8.3-.2.2-.3.7-.4 1.3 0 .6 0 1.1.2 1.5.2.3.4.5.7.6.2.1.5 0 .6-.1.4-.2.5-.5.6-.9zm3.7 1.1c.2.1.4.2.7.3-.1.5-.3.8-.6 1-.3.2-.7.2-1.1.1-.5-.1-1-.5-1.3-1-.3-.5-.4-1.2-.4-1.9 0-.8.2-1.4.6-1.8.3-.4.8-.5 1.3-.3.5.1.9.5 1.2 1 .3.5.4 1.2.4 2v.2c-.9-.2-1.9-.5-2.8-.7 0 .5.1 1 .3 1.3.2.3.5.5.8.6.2.1.4 0 .6-.1.1-.1.2-.3.3-.7zm-2-1.8c.7.2 1.4.4 2.1.5 0-.4-.1-.7-.2-1-.2-.4-.4-.6-.8-.7-.3-.1-.5 0-.8.2-.2.3-.3.6-.3 1zm3.4 3.8c.1-1.6.1-3.2.2-4.8.2.1.4.1.6.2v.7c.2-.3.3-.5.4-.6.1-.1.3-.1.4-.1.2.1.4.2.6.4-.1.2-.2.5-.3.7-.1-.2-.3-.3-.5-.3-.1 0-.3 0-.4.1-.1.1-.2.2-.3.4-.1.3-.1.6-.1.9 0 .8-.1 1.7-.1 2.5-.1 0-.3-.1-.5-.1zm2.3 2.4v-.8c.1.1.3.1.4.2h.3c.1 0 .2-.1.2-.2s.1-.3.2-.6c0 0 0-.1.1-.2-.4-1.7-.8-3.4-1.2-5.2.2.1.5.1.7.2.2 1 .4 2 .7 3 .1.4.2.8.2 1.2.1-.4.2-.7.3-1 .3-.9.6-1.7.9-2.6.2.1.4.1.6.2-.5 1.5-1.1 3-1.6 4.5-.2.5-.3.8-.4 1-.1.2-.3.4-.4.5-.2.1-.3.1-.5 0-.2 0-.4-.1-.5-.2zm5.6-2.5c.2 0 .4.1.6.1 0 .3.1.6.2.9.1.2.3.5.5.6.2.2.5.3.8.4.3.1.5.1.7 0 .2-.1.4-.2.5-.3.1-.1.2-.3.2-.5s0-.4-.1-.6c-.1-.2-.2-.3-.4-.5-.1-.1-.4-.3-.9-.5-.5-.3-.8-.5-1-.7-.2-.2-.4-.5-.5-.8-.1-.3-.2-.6-.1-.9 0-.3.1-.6.3-.9.2-.3.4-.4.7-.5.3-.1.6-.1 1 0s.7.3 1 .5c.3.2.5.5.6.9.1.3.2.7.2 1.1-.2 0-.4-.1-.7-.1 0-.4-.1-.8-.3-1-.2-.3-.5-.4-.9-.5-.4-.1-.7-.1-.9.1-.2.1-.3.4-.3.6 0 .2 0 .4.2.6.1.2.5.4 1 .7.5.3.9.5 1.1.7.3.2.5.5.6.8.1.3.2.6.2 1s-.1.7-.3.9c-.2.3-.4.5-.7.6-.3.1-.6.1-1 0-.5-.1-.9-.3-1.2-.6-.3-.3-.5-.6-.7-1-.3-.2-.4-.7-.4-1.1zm6.3 2.9c0 .2 0 .5.1.7h-.5c-.2 0-.4-.1-.5-.3-.1-.1-.2-.3-.3-.4 0-.2-.1-.5 0-1 0-.9.1-1.8.1-2.8-.2 0-.3-.1-.5-.1v-.6c.2 0 .3.1.5.1 0-.4 0-.8.1-1.2.2-.1.4-.2.7-.3 0 .6 0 1.1-.1 1.7.2 0 .4.1.6.1v.6c-.2 0-.4-.1-.6-.1 0 .9-.1 1.9-.1 2.8v.5c0 .1.1.1.1.2 0 0 .1.1.2.1h.2zm.5-1.6c0-.9.3-1.5.7-1.9.3-.3.7-.4 1.2-.3.5.1.9.4 1.2.9.3.5.4 1.1.4 1.9 0 .6-.1 1.1-.3 1.4-.2.3-.4.6-.7.7-.3.1-.6.2-.9.1-.5-.1-.9-.4-1.2-.9-.3-.4-.5-1.1-.4-1.9zm.6.1c0 .6.1 1.1.3 1.4.2.3.5.6.8.6.3.1.6 0 .8-.3.2-.3.3-.7.4-1.4 0-.6-.1-1.1-.3-1.4-.2-.3-.5-.5-.8-.6-.3-.1-.6 0-.8.3-.2.4-.4.8-.4 1.4zm3.5 3.1c.1-1.6.1-3.2.2-4.8.2 0 .4.1.6.1v.7c.2-.3.3-.5.4-.6.1-.1.3-.1.4-.1.2 0 .4.1.6.4-.1.2-.2.5-.3.7-.1-.1-.3-.2-.5-.2-.1 0-.3 0-.4.1-.1.1-.2.2-.3.4-.1.3-.1.6-.1.9 0 .8-.1 1.7-.1 2.5-.1 0-.3-.1-.5-.1zm5-.9c.2.1.4.1.7.2-.1.5-.3.9-.6 1.1-.3.2-.7.3-1.1.3-.5-.1-1-.3-1.3-.8-.3-.5-.4-1.1-.4-1.9 0-.8.2-1.4.6-1.8.3-.4.8-.6 1.3-.5.5.1.9.3 1.2.8.3.5.4 1.1.4 1.9v.2c-.9-.1-1.9-.2-2.8-.3 0 .5.1 1 .3 1.3.2.3.5.5.8.5.2 0 .4 0 .6-.2.1-.2.2-.5.3-.8zm-2-1.5c.7.1 1.4.2 2.1.2 0-.4-.1-.7-.2-.9-.2-.3-.4-.5-.8-.6-.3 0-.5.1-.8.3-.1.2-.3.5-.3 1z"/><path fill="#BC2926" stroke="#BC2926" stroke-width=".25" d="M91.5 112.6l-.2 4.8 7.3-25.1.2-4.8z"/><linearGradient id="c" x1="93.404" x2="96.336" y1="93.284" y2="93.284" gradientTransform="translate(1.696 -2.795)" gradientUnits="userSpaceOnUse"><stop offset="0" stop-color="#fff"/><stop offset="1" stop-color="#4cc1d6"/></linearGradient><path fill="url(#c)" stroke="#939393" stroke-width=".25" d="M94.4 106.9l.1-22.6 3-9-.1 21.7z"/><path fill="#7AC043" stroke="#7AC043" stroke-width=".25" d="M41.8 108.3l-.8-.8.1-26.5.9.8zM98 97.4h-.6l.1-21.8h.7zm-2.9 8.1l-1.1 3.3V84.3h1z"/><path fill="#7AC043" stroke="#7AC043" stroke-width=".25" d="M97.5 75.6l1.1.1-3.4 8.7-1.2-.1z"/><path fill="none" stroke="#4269B1" stroke-width=".25" d="M37.5 61s4.5-11 8.6-14.3c4.1-3.4 6.9-3.8 6.9-3.8M51.6 64s4.5-11 8.6-14.3c4.1-3.4 6.9-3.8 6.9-3.8m-1.3 20.6s4.5-11 8.6-14.3c4.1-3.4 6.9-3.8 6.9-3.8m-4.8 20.8s4.5-11 8.6-14.3c4.1-3.4 6.9-3.8 6.9-3.8m-56.9-6.5l60.6 12.5"/><path fill="#7AC043" stroke="#7AC043" stroke-width=".25" d="M41.3 81.4l25.6 5.8.3-.8-26-5.6z"/><path fill="#0634F4" stroke="#7AC043" stroke-width=".25" d="M66.8 86.8l-9.8-2 .1 26.2 8.5 2.1zm-17.5-3.7l-7.8-1.4.7 26.5 7.1 1.8z" opacity=".11"/><path fill="#FAD6B4" d="M39.6 95.5s-.1.6-.1.7c-.1.1.4.2.5.3.1.1.5.2.5.1-.1-.2-.2-.3-.2-.5-.1-.2 0-.3 0-.3s-.3-.1-.4-.1c-.2-.2-.3-.2-.3-.2z"/><path fill="#FAD6B4" d="M38.8 95s.3.3.7.5c.4.2.8.6 1.2.4.7-.4 1.2-1.6.9-1.8-.3-.3.1-.6.1-.9 0-.3-.1-1.5-.8-1.5-.7 0-1.8.5-1.8.9 0 .3-.3 2-.4 2-.1-.2.1.4.1.4z"/><linearGradient id="d" x1="36.934" x2="41.354" y1="96.289" y2="96.289" gradientTransform="translate(1.643 -3.404)" gradientUnits="userSpaceOnUse"><stop offset="0" stop-color="#ec5525"/><stop offset=".049" stop-color="#db4f22"/><stop offset=".249" stop-color="#993718"/><stop offset=".439" stop-color="#63230f"/><stop offset=".615" stop-color="#381409"/><stop offset=".772" stop-color="#190904"/><stop offset=".906" stop-color="#070201"/><stop offset="1"/></linearGradient><path fill="url(#d)" d="M39.1 94.7c0 .2 0 .5.1.8-.3.2-.4-.3-.7-.1-.1-.2-.1-.4-.1-.6-.4.2-.5-.4-.3-.8.1-.3.2-.2.1-.5 0-.3-.2-.3 0-.5.1-.1.3 0 .4-.3 0-.2-.2-.4-.2-.5 0-.3 0-.2.2-.3 0 0 .1.1.2.1.1-.1.1-.2.2-.3.1-.2 0-.3.2-.4.2-.1.3.1.5.1.5.1.3-.5.7-.5.4 0 .4.4.8.4.2 0 .2-.3.4 0 .1.2 0 .5 0 .6.2 0 .4.1.5.3.1.2 0 .5.3.4.1.4-.2.3-.3.5-.2.4.1.2.1.6 0 .4-.3.2-.4.4-.2.3.2.4-.1.6-.2-.2-.4-.9-.2-1.1-.1-.2-.3-.2-.4-.4v-.3l-.2-.2s-.1.1-.2 0 0-.3-.1-.3c-.3-.2-.2-.1-.3.1v.3c-.1.1-.2-.1-.2 0-.1 0-.1-.1-.2 0s0 .2-.1.4c0 .1-.1.2-.2.3-.1.1-.3.1-.4.2-.2.3 0 .4 0 .7-.3.1-.4.3-.2.7h-.1"/><path fill="#FAD6B4" d="M38.8 104.1s.2 4.8.2 4.9c0 .2.1.7.1.7s.8.6 1 .6c.2 0 .7-.3.6-.4-.1-.1-.5-.1-.6-.1-.1 0-.2 0-.3-.1-.1-.1-.2-.9-.2-1.5v-4.1h-.8z"/><path fill="#2B1312" d="M39 109.5v.7c0 .1.2 0 .2 0l.1-.4s.1.2.2.3c.1.1.5.3.6.3.2 0 .5 0 .5-.1.1-.1.2-.3 0-.5-.1-.1-.4-.1-.4-.1s.1 0 0 .1-.4.2-.5.2c.1.1-.6-.4-.7-.5.1 0 0 0 0 0z"/><path fill="#FAD6B4" d="M38.4 104.4s.2 4.8.2 4.9c0 .2.1.7.1.7s.8.6 1 .6c.2 0 .7-.3.6-.4-.1-.1-.5-.1-.6-.1-.1 0-.2 0-.3-.1-.1-.1-.2-.9-.2-1.5v-4.1h-.8z"/><path fill="#2B1312" d="M40.6 105.3h-2.7v-3.6h2.7z"/><path fill="#FAD6B4" d="M40.9 99s.9 1 1.5 1.5c.7.5 1.4.8 1.4.8h.3c.1 0 .4-.2.3-.3-.2-.1-.1 0-.4-.1-.3-.1-.6-.3-1.3-.8-.4-.3-1.2-1-1-.9 0 0-.4-1-.3-.6l-.5.4z"/><path fill="#5F2262" d="M41.1 99.2l.3-.4-.4-1.2-.1.7z"/><path fill="#5F2262" d="M39.6 95.8l.4.2h.2s.3.9.7 1.2c.3.3.4 1.8.1 2.2-.3.4-.7 1.3-.6 1.6 0 .3.3.5.3.8 0 .3-2.5 0-2.7-.1-.2-.1.1-.5.1-.5s.1-.2.2-.5.1-1 .1-1-.1-.9 0-1.5.2-.7.4-.9l.5-.5c.1-.2.4-.5.4-.5l-.1-.5z"/><path fill="#2B1312" d="M38.7 109.9v.7c0 .1.2 0 .2 0l.1-.4s.1.2.2.2c.1.1.5.3.6.3.2 0 .5 0 .5-.1.1-.1.1-.4 0-.5-.1-.1-.3-.1-.3-.1s.1 0 0 .2c-.1.1-.4.2-.5.2-.1.1-.7-.4-.8-.5.1 0 0 0 0 0z"/><path fill="#5F2262" d="M40 108.9l.3-.2-.6-3.1s-.3-.2-.1.3c.2.4.4 3 .4 3z"/><path fill="#FAD6B4" d="M43.9 100.9s.6-.1.7.2c.1.3.2.7.2.7s-.1.1-.3.1c-.1 0-.4-.6-.4-.6l-.2.1-.1.3-.1-.1-.1-.1.3-.6z"/><circle cx="40.8" cy="93.8" r=".1" fill="#050506"/><circle cx="40.1" cy="93.8" r=".1" fill="#050506"/><path fill="#FFF" d="M41.5 94.7s-.8.5-.9.5c-.1 0-1-.4-1-.4s.5.1 1 .1c.4.1.9-.2.9-.2z"/><linearGradient id="e" x1="35.772" x2="39.036" y1="109.586" y2="109.586" gradientTransform="translate(1.643 -3.404)" gradientUnits="userSpaceOnUse"><stop offset="0" stop-color="#8d7cb5"/><stop offset=".132" stop-color="#876da0"/><stop offset=".351" stop-color="#7f5884"/><stop offset=".57" stop-color="#79496f"/><stop offset=".787" stop-color="#754063"/><stop offset="1" stop-color="#743d5f"/></linearGradient><path fill="url(#e)" d="M37.6 105.2l.8-1.1v-.2s-.7.6-.9.8c-.2.2-.9 3.4-.8 3.6.2.2 1 .5 1.6.5.6 0 1.5.2 1.6 0 .1-.2-.3-3.2-.4-3.3-.1-.1-1.7-.2-1.9-.2v-.1z"/><path fill="#5F2262" d="M39.2 104.7s.5.9.4.9c-.1 0 .3 0 .2-.2-.1-.2-.3-.9-.5-.9l-.2-.2.1.4zm-1-5.1h.8s.1-1.1.1-1.4c0-.3 0-1.2-.2-1.2s-.4.2-.4.4-.3 1.3-.3 1.4v.8z"/><path fill="#FAD6B4" d="M38.2 99.6h.8l-.1 3.7s.3.3.3.5-.1.7-.3.6c-.2-.1-.2-.2-.4-.3-.2-.1-.1-.7-.1-.8 0-.2-.2-2.5-.2-2.5v-1.2z"/><path fill="#060706" d="M41.1 99.1s.1-.4.1-.5V98v.9c-.2.1-.2.1-.1.2-.1 0-.1.1-.1.1l-.1.2h.1l.1-.3z" opacity=".25"/><path fill="#060706" d="M38.8 97s.2 0 .3.4c.1.4 0 1.1 0 1.4 0 .3-.1.8-.1.8s-.1 1.1-.1 1.3v.9h.1v-1c0-.1.1-1.5.1-1.7 0-.2.1-1.5 0-1.8 0-.2-.1-.4-.1-.5 0 .2-.1.2-.2.2zm-.5 4.7c.1.1.1-.1 0-.3v-1.5.1c0 .1 0 .6-.1.7v.5c.1.2.1.5.1.5z" opacity=".32"/><path fill="none" d="M39.4 96.3s.2.1.5.2h.5m-.8-.6l-.2.4"/><path fill="#FAD6B4" stroke="#F7B57F" stroke-width=".25" d="M40.3 94.4s.1-.3.2-.3.3.2.3.2"/><path fill="#FFF" d="M53.9 106.9c0-.1-.4-3.5-.5-3.7-.1-.2-.5-.7-.8-.7-.3 0-.4.5-.4.5s-1.2 2.5-1.2 2.7c0 .3.3 2.4.3 2.4s.2.1.6.1c.4 0 1.1.2 1.3.2.2 0 .8-.8.9-1-.1-.2-.2-.5-.2-.5z"/><path fill="none" d="M51 105.7h.5c.2 0 .6.2.6.2m-.8 2.2l.4-.9.5-.2m-.9 1c.1-.1.3-.2.5-.2m-.7-2c0 .4.1.6.4.6"/><linearGradient id="f" x1="42.72" x2="44.76" y1="105.841" y2="105.841" gradientTransform="translate(1.643 -3.404)" gradientUnits="userSpaceOnUse"><stop offset="0"/><stop offset=".703" stop-color="#fff"/><stop offset=".706" stop-color="#fdfdfd"/><stop offset=".951" stop-color="#585757"/></linearGradient><path fill="url(#f)" d="M45.8 103.9l-1.7-2.6-.4.3 1.8 2.5z"/><linearGradient id="g" x1="43.61" x2="45.081" y1="105.405" y2="105.405" gradientTransform="translate(1.643 -3.404)" gradientUnits="userSpaceOnUse"><stop offset="0"/><stop offset=".703" stop-color="#fff"/><stop offset=".706" stop-color="#fdfdfd"/><stop offset=".951" stop-color="#585757"/></linearGradient><path fill="url(#g)" d="M46.1 102.9l-1-1.2-.3-.3-.2.2 1.4 1.5z"/><path fill="#199C49" d="M44.3 101.6l-.2-.3.7.1.3.3z"/><path fill="#88C54F" d="M44.4 101.8s.2.1.4-.1c.2-.1.1-.2 0-.3-.1-.1-.7-.1-.7-.1l.3.5z"/><radialGradient id="h" cx="-6194.036" cy="-545.601" r="1.317" gradientTransform="matrix(.3387 .0025 -.0018 .373 2141.112 320.786)" gradientUnits="userSpaceOnUse"><stop offset="0" stop-color="#fff"/><stop offset="1"/></radialGradient><ellipse cx="44.1" cy="101.7" fill="url(#h)" rx=".4" ry=".5"/><radialGradient id="i" cx="-6194.04" cy="-545.602" r=".657" gradientTransform="matrix(.3387 .0025 -.0018 .373 2141.112 320.786)" gradientUnits="userSpaceOnUse"><stop offset="0" stop-color="#fff"/><stop offset="1"/></radialGradient><ellipse cx="44.1" cy="101.7" fill="url(#i)" rx=".2" ry=".3"/><linearGradient id="j" x1="59.544" x2="59.941" y1="307.393" y2="307.393" gradientTransform="matrix(.9598 .281 -.3052 1.042 90.052 -231.285)" gradientUnits="userSpaceOnUse"><stop offset=".236" stop-color="#616161"/><stop offset=".295" stop-color="gray"/><stop offset=".423" stop-color="#cdcdcd"/><stop offset=".5" stop-color="#fff"/><stop offset=".656" stop-color="#a6a6a6"/><stop offset=".951"/></linearGradient><path fill="url(#j)" d="M53 107.7l-.1.4.2.1 1.1-4.7-.1-.1"/><linearGradient id="k" x1="59.129" x2="59.53" y1="306.68" y2="306.68" gradientTransform="matrix(.9598 .281 -.309 1.0547 90.557 -234.414)" gradientUnits="userSpaceOnUse"><stop offset=".236" stop-color="#616161"/><stop offset=".295" stop-color="gray"/><stop offset=".423" stop-color="#cdcdcd"/><stop offset=".5" stop-color="#fff"/><stop offset=".656" stop-color="#a6a6a6"/><stop offset=".951"/></linearGradient><path fill="url(#k)" d="M52.2 107.7l-.1.4.1.1 1.2-4.8-.2-.1"/><linearGradient id="l" x1="197.735" x2="198.088" y1="304.474" y2="304.474" gradientTransform="matrix(1.1912 .349 -.3095 1.0565 -89.622 -284.925)" gradientUnits="userSpaceOnUse"><stop offset=".236" stop-color="#616161"/><stop offset=".295" stop-color="gray"/><stop offset=".423" stop-color="#cdcdcd"/><stop offset=".5" stop-color="#fff"/><stop offset=".656" stop-color="#a6a6a6"/><stop offset=".951"/></linearGradient><path fill="url(#l)" d="M51.3 107.8l-.1.4.2.1 1.1-4.7-.1-.2"/><linearGradient id="m" x1="57.16" x2="57.566" y1="305.264" y2="305.264" gradientTransform="matrix(.9598 .281 -.3164 1.08 92.54 -240.08)" gradientUnits="userSpaceOnUse"><stop offset=".236" stop-color="#616161"/><stop offset=".295" stop-color="gray"/><stop offset=".423" stop-color="#cdcdcd"/><stop offset=".5" stop-color="#fff"/><stop offset=".656" stop-color="#a6a6a6"/><stop offset=".951"/></linearGradient><path fill="url(#m)" d="M50.4 107.8l-.1.4.2.1 1.1-4.9-.1-.2"/><linearGradient id="n" x1="56.309" x2="56.715" y1="305.525" y2="305.525" gradientTransform="matrix(.9598 .281 -.3164 1.08 92.54 -240.08)" gradientUnits="userSpaceOnUse"><stop offset=".236" stop-color="#616161"/><stop offset=".295" stop-color="gray"/><stop offset=".423" stop-color="#cdcdcd"/><stop offset=".5" stop-color="#fff"/><stop offset=".656" stop-color="#a6a6a6"/><stop offset=".951"/></linearGradient><path fill="url(#n)" d="M49.5 107.8l-.1.5h.2l1.1-4.8-.1-.2"/><linearGradient id="o" x1="55.442" x2="55.847" y1="305.709" y2="305.709" gradientTransform="matrix(.9598 .281 -.3164 1.08 92.54 -240.08)" gradientUnits="userSpaceOnUse"><stop offset=".236" stop-color="#616161"/><stop offset=".295" stop-color="gray"/><stop offset=".423" stop-color="#cdcdcd"/><stop offset=".5" stop-color="#fff"/><stop offset=".656" stop-color="#a6a6a6"/><stop offset=".951"/></linearGradient><path fill="url(#o)" d="M48.6 107.8v.4l.1.1 1.1-4.9-.1-.2"/><linearGradient id="p" x1="54.583" x2="54.989" y1="305.954" y2="305.954" gradientTransform="matrix(.9598 .281 -.3164 1.08 92.54 -240.08)" gradientUnits="userSpaceOnUse"><stop offset=".236" stop-color="#616161"/><stop offset=".295" stop-color="gray"/><stop offset=".423" stop-color="#cdcdcd"/><stop offset=".5" stop-color="#fff"/><stop offset=".656" stop-color="#a6a6a6"/><stop offset=".951"/></linearGradient><path fill="url(#p)" d="M47.7 107.8v.4l.1.1 1.1-4.9-.1-.1"/><linearGradient id="q" x1="53.638" x2="54.047" y1="306.165" y2="306.165" gradientTransform="matrix(.9598 .281 -.3164 1.08 92.54 -240.08)" gradientUnits="userSpaceOnUse"><stop offset=".236" stop-color="#616161"/><stop offset=".295" stop-color="gray"/><stop offset=".423" stop-color="#cdcdcd"/><stop offset=".5" stop-color="#fff"/><stop offset=".656" stop-color="#a6a6a6"/><stop offset=".951"/></linearGradient><path fill="url(#q)" d="M46.8 107.8l-.1.4h.1l1.2-4.8-.1-.2"/><linearGradient id="r" x1="52.835" x2="53.242" y1="306.341" y2="306.341" gradientTransform="matrix(.9598 .281 -.3164 1.08 92.54 -240.08)" gradientUnits="userSpaceOnUse"><stop offset=".236" stop-color="#616161"/><stop offset=".295" stop-color="gray"/><stop offset=".423" stop-color="#cdcdcd"/><stop offset=".5" stop-color="#fff"/><stop offset=".656" stop-color="#a6a6a6"/><stop offset=".951"/></linearGradient><path fill="url(#r)" d="M45.9 107.7v.5h.1l1.1-4.8-.1-.2"/><linearGradient id="s" x1="744.492" x2="744.694" y1="462.551" y2="462.551" gradientTransform="matrix(-.0285 1.3747 -2.2568 -.0467 1115.506 -897.033)" gradientUnits="userSpaceOnUse"><stop offset=".236" stop-color="#616161"/><stop offset=".295" stop-color="gray"/><stop offset=".423" stop-color="#cdcdcd"/><stop offset=".5" stop-color="#fff"/><stop offset=".656" stop-color="#a6a6a6"/><stop offset=".951"/></linearGradient><path fill="url(#s)" d="M46.9 104.7h-.8v.3l8.3.2.3-.3"/><linearGradient id="t" x1="743.706" x2="743.909" y1="454.2" y2="454.2" gradientTransform="matrix(-.0285 1.3747 -2.33 -.0482 1130.2 -896.59)" gradientUnits="userSpaceOnUse"><stop offset=".236" stop-color="#616161"/><stop offset=".295" stop-color="gray"/><stop offset=".423" stop-color="#cdcdcd"/><stop offset=".5" stop-color="#fff"/><stop offset=".656" stop-color="#a6a6a6"/><stop offset=".951"/></linearGradient><path fill="url(#t)" d="M47 103.8h-.7v.3l8.5.2.3-.3"/><linearGradient id="u" x1="745.121" x2="745.323" y1="465.145" y2="465.145" gradientTransform="matrix(-.0285 1.3747 -2.2372 -.0463 1112.125 -897.11)" gradientUnits="userSpaceOnUse"><stop offset=".236" stop-color="#616161"/><stop offset=".295" stop-color="gray"/><stop offset=".423" stop-color="#cdcdcd"/><stop offset=".5" stop-color="#fff"/><stop offset=".656" stop-color="#a6a6a6"/><stop offset=".951"/></linearGradient><path fill="url(#u)" d="M46.8 105.6H46v.2l8.3.2.2-.2"/><linearGradient id="v" x1="745.784" x2="745.985" y1="465.183" y2="465.183" gradientTransform="matrix(-.0285 1.3747 -2.2373 -.0463 1112.11 -897.093)" gradientUnits="userSpaceOnUse"><stop offset=".236" stop-color="#616161"/><stop offset=".295" stop-color="gray"/><stop offset=".423" stop-color="#cdcdcd"/><stop offset=".5" stop-color="#fff"/><stop offset=".656" stop-color="#a6a6a6"/><stop offset=".951"/></linearGradient><path fill="url(#v)" d="M46.6 106.5h-.7v.3l8.2.2.2-.3"/><linearGradient id="w" x1="746.169" x2="746.383" y1="464.399" y2="464.399" gradientTransform="matrix(-.0285 1.3747 -2.2437 -.0464 1113.216 -896.798)" gradientUnits="userSpaceOnUse"><stop offset=".236" stop-color="#616161"/><stop offset=".295" stop-color="gray"/><stop offset=".423" stop-color="#cdcdcd"/><stop offset=".5" stop-color="#fff"/><stop offset=".656" stop-color="#a6a6a6"/><stop offset=".951"/></linearGradient><path fill="url(#w)" d="M46.5 107.4l-.7-.1v.3l8.3.2v-.3"/><linearGradient id="x" x1="388.887" x2="389.079" y1="190.604" y2="190.604" gradientTransform="matrix(1.7934 .1332 -.0805 1.0826 -636.216 -152.605)" gradientUnits="userSpaceOnUse"><stop offset=".236" stop-color="#616161"/><stop offset=".295" stop-color="gray"/><stop offset=".423" stop-color="#cdcdcd"/><stop offset=".5" stop-color="#fff"/><stop offset=".656" stop-color="#a6a6a6"/><stop offset=".951"/></linearGradient><path fill="url(#x)" d="M45.8 107.6v.4l.2.1.3-4.9-.2-.1"/><path fill="#88C54F" d="M55.2 103l-.3.4-8.9-.2v-.4h.7z"/><radialGradient id="y" cx="-5869.033" cy="-453.438" r="1.059" gradientTransform="matrix(.3552 .00263 -.00203 .4235 2129.28 311.49)" gradientUnits="userSpaceOnUse"><stop offset="0" stop-color="#fff"/><stop offset="1"/></radialGradient><ellipse cx="45.7" cy="104" fill="url(#y)" rx=".4" ry=".5"/><radialGradient id="z" cx="-5869.036" cy="-453.44" r=".529" gradientTransform="matrix(.3552 .00263 -.00203 .4235 2129.28 311.49)" gradientUnits="userSpaceOnUse"><stop offset="0" stop-color="#fff"/><stop offset="1"/></radialGradient><circle cx="45.7" cy="104" r=".2" fill="url(#z)"/><linearGradient id="A" x1="396.502" x2="396.806" y1="290.279" y2="290.279" gradientTransform="matrix(1.7258 .5055 -.338 1.1537 -531.985 -429.615)" gradientUnits="userSpaceOnUse"><stop offset=".236" stop-color="#616161"/><stop offset=".295" stop-color="gray"/><stop offset=".423" stop-color="#cdcdcd"/><stop offset=".5" stop-color="#fff"/><stop offset=".656" stop-color="#a6a6a6"/><stop offset=".951"/></linearGradient><path fill="url(#A)" d="M53.8 107.9l-.1.5.3.1 1.2-5.2-.2-.2"/><linearGradient id="B" x1="746.625" x2="746.832" y1="464.433" y2="464.433" gradientTransform="matrix(-.0285 1.3747 -2.2437 -.0464 1113.216 -896.798)" gradientUnits="userSpaceOnUse"><stop offset=".236" stop-color="#616161"/><stop offset=".295" stop-color="gray"/><stop offset=".423" stop-color="#cdcdcd"/><stop offset=".5" stop-color="#fff"/><stop offset=".656" stop-color="#a6a6a6"/><stop offset=".951"/></linearGradient><path fill="url(#B)" d="M46.5 108h-.7v.2l8.2.2v-.3"/><radialGradient id="C" cx="-5862.696" cy="-440.578" r="3.235" gradientTransform="matrix(.3552 .00263 -.00203 .4235 2129.28 311.49)" gradientUnits="userSpaceOnUse"><stop offset="0" stop-color="#fff"/><stop offset="1"/></radialGradient><path fill="url(#C)" d="M49 109.5c0 .8-.5 1.4-1.1 1.4-.6 0-1.1-.6-1.1-1.4 0-.8.5-1.4 1.1-1.4.6-.1 1.1.6 1.1 1.4z"/><radialGradient id="D" cx="-5862.695" cy="-440.58" r="1.614" gradientTransform="matrix(.3552 .00263 -.00203 .4235 2129.28 311.49)" gradientUnits="userSpaceOnUse"><stop offset="0" stop-color="#fff"/><stop offset="1"/></radialGradient><ellipse cx="47.9" cy="109.5" fill="url(#D)" rx=".5" ry=".7"/><radialGradient id="E" cx="-5850.254" cy="-440.742" r="3.234" gradientTransform="matrix(.3552 .00263 -.00203 .4235 2129.28 311.49)" gradientUnits="userSpaceOnUse"><stop offset="0" stop-color="#fff"/><stop offset="1"/></radialGradient><path fill="url(#E)" d="M53.4 109.4c0 .8-.5 1.4-1.1 1.4-.6 0-1.1-.6-1.1-1.4 0-.8.5-1.4 1.1-1.4.6 0 1.1.7 1.1 1.4z"/><radialGradient id="F" cx="-5850.252" cy="-440.741" r="1.615" gradientTransform="matrix(.3552 .00263 -.00203 .4235 2129.28 311.49)" gradientUnits="userSpaceOnUse"><stop offset="0" stop-color="#fff"/><stop offset="1"/></radialGradient><ellipse cx="52.3" cy="109.4" fill="url(#F)" rx=".5" ry=".7"/><path fill="none" stroke="#838383" stroke-width=".25" d="M26.5 109.1l4.3 1.9m-3.1-2.3l3.8 2.1m-2.4-2.1l3.1 2m-2.3-2.3l3.2 2.1m-1-1.5l1.6 1.3m-3.6.4l4.1-1m-4.8.7l3.9-1.1m-4.6 1l3.4-1.5m-4 1.2l3.1-1.4m-4.2 1.1l3.6-1.3m-4.4 1l3.7-1.1"/><path fill="#494A44" d="M30.4 113.7c0 .5-.2 1-.5 1s-.5-.4-.5-1c0-.5.2-1 .5-1s.5.4.5 1z"/><ellipse cx="29.8" cy="113.8" fill="#67675F" rx=".4" ry=".9"/><path fill="#CECDC3" d="M29.4 112.3v1.5h.2s0-.4.1-.4.1.4.1.4l.2-.1v-1.4c0-.1-.2-.3-.3-.3-.2.1-.3.3-.3.3z"/><path fill="#ACABA8" d="M30.3 113v-.7h.1v1.1l-.1-.1v-.3z"/><path fill="#BFBDB5" d="M29.4 112.2h1v.3l-.5.1s0-.2-.1-.3c0-.1-.4-.1-.4-.1z"/><path fill="#40403A" d="M30.3 112.5v.7s-.1-.3-.2-.3-.2-.1-.2-.1v-.2l.4-.1"/><ellipse cx="29.7" cy="113.6" fill="#494A44" rx=".1" ry=".2"/><ellipse cx="25.6" cy="115" fill="#494A44" rx=".6" ry="1.1" transform="rotate(-.628 25.618 114.996) scale(.99996)"/><ellipse cx="25.5" cy="115.1" fill="#67675F" rx=".4" ry=".9"/><path fill="#CECDC3" d="M25.1 113.5v1.6h.2s0-.4.1-.4.2.4.2.4l.2-.1v-1.5c0-.1-.2-.3-.3-.3-.3.1-.4.3-.4.3z"/><path fill="#ACABA8" d="M26.1 114.3v-.9h.1v1.2l-.1-.1v-.2z"/><path fill="#BFBDB5" d="M25.1 113.4h1.1l.1.3-.5.1s0-.3-.1-.3c-.2-.1-.6-.1-.6-.1z"/><path fill="#40403A" d="M26 113.7l.1.7s-.1-.4-.2-.4-.2-.1-.2-.1v-.2h.3"/><ellipse cx="25.4" cy="114.9" fill="#494A44" rx=".1" ry=".2"/><ellipse cx="34.7" cy="116.1" fill="#494A44" rx=".5" ry="1" transform="matrix(1 -.0107 .0107 1 -1.24 .378)"/><ellipse cx="34.6" cy="116.2" fill="#67675F" rx=".4" ry=".9"/><path fill="#CECDC3" d="M34.2 114.7v1.5h.2s0-.4.1-.4.1.4.1.4l.2-.1v-1.4c0-.1-.2-.3-.3-.3l-.3.3z"/><path fill="#ACABA8" d="M35.1 115.4v-.7h.1v1.1l-.1-.1v-.3z"/><path fill="#BFBDB5" d="M34.2 114.6h1v.3l-.5.1s0-.2-.1-.3c0-.1-.4-.1-.4-.1z"/><path fill="#40403A" d="M35.1 114.9v.7s-.1-.3-.2-.3-.2-.1-.2-.1v-.2l.4-.1"/><ellipse cx="34.5" cy="116" fill="#494A44" rx=".1" ry=".2"/><ellipse cx="30" cy="117.2" fill="#494A44" rx=".6" ry="1.1" transform="rotate(-.628 30.016 117.182) scale(.99996)"/><ellipse cx="29.9" cy="117.3" fill="#67675F" rx=".4" ry=".9"/><path fill="#CECDC3" d="M29.5 115.6v1.6h.2c.1 0 0-.4.1-.4s.2.4.2.4l.2-.1v-1.5c0-.1-.2-.3-.3-.3-.3.2-.4.3-.4.3z"/><path fill="#ACABA8" d="M30.5 116.4v-.9h.1v1.2l-.1-.1v-.2z"/><path fill="#BFBDB5" d="M29.5 115.6h1.1l.1.3-.7.1s0-.3-.1-.3c0-.1-.4-.1-.4-.1z"/><path fill="#40403A" d="M30.4 115.9l.1.7s-.1-.4-.2-.4-.2-.1-.2-.1v-.2h.3"/><ellipse cx="29.8" cy="117.1" fill="#494A44" rx=".1" ry=".2"/><path fill="none" stroke="#838383" stroke-width=".25" d="M24.1 99.5s-.3 1.5.4 1.9c.6.5 4.3 2.2 4.8 2.3.5.2 6.2-.7 6.2-.7s-.2-.2-.7-.4c-.5-.2-1.9-.7-2.5-.8-.5-.1-2.1-.7-2.3-.7-.2 0 0-1-.2-1.3-.2-.4-.6-.7-.6-.7l-3.2.1-1.9.3z"/><path fill="none" stroke="#838383" stroke-width=".25" d="M25 101.7l4.7-.6s0 .1.4 0h.1m-4.8 8.2l3.7 1.3s.7.5 1.2.5 4.5-1 4.5-1l-4.8-1.7-4.6.9z"/><path fill="none" stroke="#838383" stroke-width=".25" d="M25.4 107.8s4.1 1.7 4.5 1.7c.5 0 5.1-.9 5.1-.9s-4.4-1.4-4.7-1.4c-.3 0-4.9.6-4.9.6z"/><path fill="none" stroke="#838383" stroke-width=".25" d="M25.3 106.5s4.3 1.6 4.8 1.6 5-.9 5-.9-4.5-1.3-4.8-1.3c-.3 0-3.5.3-3.8.4-.2.1-1.2.2-1.2.2z"/><path fill="none" stroke="#838383" stroke-width=".25" d="M25.2 105s4.1 1.9 4.6 1.8c.5-.1 5.3-.7 5.4-1 .1-.3-4.6-1.4-4.8-1.5-.2 0-5.2.7-5.2.7z"/><path fill="none" stroke="#838383" stroke-width=".25" d="M25 103.4s4.4 1.7 4.8 1.8 5.9-.6 5.8-.9c-.1-.3-4.9-1.6-5-1.6-.2 0-5.6.7-5.6.7z"/><path fill="#8AC650" stroke="#8AC650" stroke-width=".25" d="M24.3 99.1l4.6-.3s.3-.1.3.4c0 .4-.3.3-.3.3l-4.6.3-.1-.5.1-.2z"/><path fill="none" stroke="#838383" stroke-width=".25" d="M24.8 101.7l.6 7.6m9.9-6.4l-.6 7.1m.7-7.1s.1.2.1.3c-.1.1 0 .1 0 .1l.4-.2s.1-.3 0-.3l-.2-.1-.3.2zm-.7 7.1l-.3 4.1m-4.2-13l-.4 10.2m-4.3-2s-.3 2.6-.3 2.9c0 .2 0 .7.2.8.2.1 4.6 2.3 4.8 2.2.2-.1 4.6-1.1 4.6-1.1s.4 0 .3-.2c0-.2-5.2-2.7-5.2-2.7l-4.6.9"/><path fill="none" stroke="#838383" stroke-width=".25" d="M25.3 112.3l4.8 2.4 3.9-.7s-4-1.6-4.2-1.7c-.1-.1-3.5.6-3.5.6m4.1-1.9l-.3 4.2m-4.8-13.1l.1 7.3m1.2-6.7v7.1m1.5-6.4l.1 7m2.7-6.7l.1 7.3m1.4-7.5v7.2m1.5-7.4l.1 7.1"/><ellipse cx="24.3" cy="99.5" fill="#80B641" stroke="#838383" stroke-width=".25" rx=".2" ry=".3"/><path fill="none" stroke="#838383" stroke-width=".25" d="M24.4 99.4l-.2.1c-.1 0-.2.3-.2.3"/><path fill="none" stroke="#FCCD03" stroke-width="3" d="M100.1 96.7L94 108.8 91.3 84l8.5-11.4zM99.3 74l13.3-14.3"/><path fill="#BDDC9A" d="M113.3 0H220v75.2H113.3z"/><path fill="#C7E4F7" d="M113.3 23.4H220v51.9H113.3z"/><path fill="#6FCAD4" d="M113.4 45.3H220v1.2H113.4zm0 6.5H220v1.8H113.4zm0 7.1H220v1.9H113.4zm0 8h106.5V69H113.4zm0-24.6H220v1H113.4zm0 6.2H220v1.2H113.4zm0 7H220v1.8H113.4zm0 7.6h106.5V65H113.4zm-.4 7.8h106.8V73H113zm.3-31.6h106.6v1H113.3zm.1-3.2H220v1H113.4zm-.1-3h106.6v1H113.3zm0-3h106.6v1H113.3zm0-3h106.6v1H113.3zm-.2-2.7h106.6v1H113.1z"/><path fill="#1EB7CD" d="M113.2 20.7h106.5v3H113.2z"/><path fill="#E0CB77" d="M113.8 75.2l61.6-.2.6-35.4-62.6 26.3z"/><path fill="#B5A04C" d="M153.7 34.5l-40.3 17.6V67l63.1-27.9-22.8-4.6z"/><path fill="#ADA9A3" d="M139.4 41.2l-2 4.9 18.7.3 1.7-5z"/><path fill="#A8A49B" d="M157.8 41.4l11.2-4.5 3.5 2.6-16.4 6.9z"/><path fill="#7F7F7D" d="M139.4 41.2l18.2.2L169 37l-17.9.1z"/><path fill="#060807" d="M158.9 41.8v2.6l4.3-1.8v-2.5z"/><text fill="#7AC043" font-family="'FranklinGothic-Book'" font-size="1.778" transform="matrix(.745 -.2497 .252 .9678 159.572 43.258)">.07 lb.</text><path fill="#D3CFBA" d="M165.5 40l.4-.2v.5l-.4.2zm.6-.3l.5-.1v.4l-.5.2zm.6-.2l.5-.2v.5l-.5.2zm.6-.2l.5-.2v.5l-.5.2zm.7-.3l.4-.2v.5l-.4.2zm.6-.2l.5-.2v.5l-.5.1z"/><path fill="#FCF8E6" d="M165.5 40l.4-.2v.5l-.4.2zm.6-.3l.5-.1v.4l-.5.2zm.6-.2l.5-.2v.5l-.5.2zm.6-.2l.5-.2v.5l-.5.2zm.7-.3l.4-.2v.5l-.4.2zm.6-.2l.5-.2v.5l-.5.1z"/><path fill="#D3CFBA" d="M165.5 40.8l.5-.2v.5l-.5.2zm.7-.2l.4-.2v.5l-.4.1zm.6-.3l.5-.2v.5l-.5.2zm.6-.2l.5-.2v.5l-.5.2zm.7-.3l.4-.1v.4l-.4.2zm.6-.2l.5-.2v.5l-.5.1z"/><path fill="#FCF8E6" d="M165.5 40.8l.5-.2v.5l-.5.2zm.7-.2l.4-.2v.5l-.4.1zm.6-.3l.5-.2v.5l-.5.2zm.6-.2l.5-.2v.5l-.5.2zm.7-.3l.4-.1v.4l-.4.2zm.6-.2l.5-.2v.5l-.5.1z"/><text fill="#7F7F7D" font-family="'MyriadPro-Regular'" font-size=".725" transform="matrix(.8636 -.2256 .1988 .98 165.51 40.334)">=</text><text fill="#7F7F7D" font-family="'MyriadPro-Regular'" font-size=".566" transform="matrix(.8804 -.048 .0422 .999 166.127 40.177)">1</text><text fill="#7F7F7D" font-family="'MyriadPro-Regular'" font-size=".562" transform="matrix(.8635 -.226 .1992 .98 166.917 39.89)">2</text><text fill="#7F7F7D" font-family="'MyriadPro-Regular'" font-size=".565" transform="matrix(.8797 -.06653 .05863 .9983 167.43 39.693)">3</text><text fill="#7F7F7D" font-family="'MyriadPro-Regular'" font-size=".565" transform="matrix(.8797 -.06653 .05863 .9983 168.06 39.454)">4</text><text fill="#7F7F7D" font-family="'MyriadPro-Regular'" font-size=".565" transform="matrix(.8797 -.06653 .05863 .9983 168.686 39.163)">5</text><text fill="#7F7F7D" font-family="'MyriadPro-Regular'" font-size=".565" transform="matrix(.8797 -.06653 .05863 .9983 165.605 41.198)">6</text><text fill="#7F7F7D" font-family="'MyriadPro-Regular'" font-size=".565" transform="matrix(.8797 -.06653 .05863 .9983 166.234 41.012)">7</text><text fill="#7F7F7D" font-family="'MyriadPro-Regular'" font-size=".565" transform="matrix(.8797 -.06653 .05863 .9983 166.872 40.775)">8</text><text fill="#7F7F7D" font-family="'MyriadPro-Regular'" font-size=".565" transform="matrix(.8797 -.06653 .05863 .9983 167.51 40.45)">9</text><text fill="#7F7F7D" font-family="'MyriadPro-Regular'" font-size=".565" transform="matrix(.8797 -.06653 .05863 .9983 168.148 40.215)">0</text><text fill="#7F7F7D" font-family="'MyriadPro-Regular'" font-size=".565" transform="matrix(.8797 -.06653 .05863 .9983 168.75 39.958)">/</text><path fill="#0C0D0D" d="M164.4 37.6v.2l-5.2 2.2v-.3zm-14.9 1.8l9.4.4v.2l-9.4-.3z"/><path fill="#ADA9A3" d="M147.6 38.8l11.1.2 7.1-2.9-10.9.4z"/><path fill="#5B5B5B" d="M165.5 36.4v.5l-6.8 2.7V39zM148 38.9l10.7.1v.6l-10.8-.1z"/><path fill="#F6E187" d="M134.8 51.3l16.6-5.9v3.9l-16.5 6.5z"/><path fill="#F6E189" d="M126.8 42.3l7.7 8.6 17.4-6.3-2.4-1.5-6.3-5.3-15.7 4.2z"/><path fill="#E4D07B" d="M144 31.2l.3 5.2-7.6 1.7s-.3-1.2-.6-1.8c-.3-.6-.5-1.8-.5-1.8l-.2-2 8.6-1.3z"/><path fill="#E8D680" d="M143.7 31.2l-1.4-.5-8.3 1.2s1.1.1 1.4.6c.3.5 8.3-1.3 8.3-1.3z"/><path fill="#060807" d="M136.5 32.9s6.8-1.5 7-1c.2.4.4 3.9.2 4.1-.2.2-6.7 1.8-6.9 1.3-.2-.5-.3-2-.3-2.7v-1.7z"/><path fill="#D4BF6A" d="M134 31.9s.5-.1 1.1.3c.5.4.4.4.4.4l.2 2s-.3-.5-.3-.8c-.1-.3-.1-.4-.4-1.2-.1-.3-1-.4-1-.4v-.3z"/><path fill="#E8D37E" d="M150 41.7l-.2 1.3-15.8 5.1v-1.4z"/><path fill="#F6E187" d="M144.4 36.4l5.6 5.2-16 5.1-2.5-4.2-3-8.7 6.5-1.3 2.8 7.8-.7-2.4z"/><path fill="#907F43" d="M134.7 33.6l1.6 4.4-5.1 1.1-1.5-4.5z"/><path fill="#C6B26F" d="M151.4 45.4v3.9l.5-.2v-4.5l-17.4 6.3.1 4.7.2.3h.3l-.3-4.6z"/><path fill="#D9C370" d="M127 55.9h7.7l-.2-5-7.7-8.6z"/><path fill="#EDDE8D" d="M127.7 33l.8.9 6.5-1.3-1.1-.7z"/><path fill="#E8D680" d="M127.7 42.3V33l.8.9 2.9 8.4 2.6 4.4v2z"/><path fill="#D4BF6A" d="M149.5 43.2l-.6.9-14.8 4.5h-.1V48z"/><path fill="#060807" d="M135.1 26.8s.9-.2 2.1-.3c1.2-.1 2.2-.4 2.3 0 .1.4.4 2.5.4 2.7 0 .2-4.7.7-4.7.7v-1.4c-.1-1.2-.1-1.7-.1-1.7z"/><path fill="#E8D680" d="M134.6 26.6l.5.2v3.1l-.8-.3z"/><path fill="none" d="M138.7 26l.7.3s-4.2.5-4.3.5c-.1 0-.4-.1-.4-.1s1.6-.2 2.2-.3c.5-.2 1.8-.4 1.8-.4z"/><path fill="#E4D07B" d="M136.8 29.8v.9h.7v-1z"/><path fill="#E4D07B" d="M136.6 30.6v.6h1.3v-.7z"/><path fill="#E4D07B" d="M136.4 31.2v.8h1.7v-.8z"/><path fill="#FFF" d="M134.3 37.7s.4-1.3.4-1.6c0-.3-.1-1.8-.4-2.4-.3-.6-.9-2.4-1.3-2.6-.4-.2-3.5.6-3.5.6s1.1.6 1.2 1.2c.1.6.6 2.1.6 2.8 0 .6-.2 2.6-.2 2.6l1.9-.3 1.3-.3z"/><path fill="#D4BF6A" d="M136.8 38.1l1.2 2.7.3-.4-.4-1.8 6.5-1.4v-.6z"/><path fill="#E8D37E" d="M138.5 40.8l-.7-2.3 6.8-1.4 1.8 1.8z"/><path fill="none" d="M135.1 41.7l2.8 3.8"/><path fill="#AA9F8D" d="M134 41.7l.2 2-.7.1-.1-2z"/><path fill="#605A4F" d="M133.4 41.8l.1 2-.1-.1-.2-2z"/><path fill="#7A7265" d="M133.9 41.6l.1.1-.6.1-.2-.1z"/><path fill="#AA9F8C" d="M134.5 42.2l.2 2-.7.1-.2-2z"/><path fill="#605A4F" d="M133.8 42.3l.2 2-.1-.1-.2-2z"/><path fill="#7A7265" d="M134.4 42.1l.1.1-.7.1-.1-.1z"/><path fill="#AA9F8C" d="M134.9 42.8l.2 1.9-.7.1-.1-1.9z"/><path fill="#605A4F" d="M134.3 42.9l.1 1.9-.1-.1-.2-1.9z"/><path fill="#7A7265" d="M134.8 42.7l.1.1-.6.1-.2-.1z"/><path fill="#AA9F8C" d="M135.1 41.4l.1 2-.6.1-.2-2z"/><path fill="#605A4F" d="M134.4 41.5l.2 2-.2-.1-.1-2z"/><path fill="#7A7265" d="M134.9 41.3l.2.1-.7.1-.1-.1z"/><path fill="#AA9F8C" d="M135.6 41.9l.1 2-.6.1-.2-2z"/><path fill="#605A4F" d="M134.9 42l.2 2-.2-.1-.1-2z"/><path fill="#7A7265" d="M135.4 41.8l.2.1-.7.1-.1-.1z"/><path fill="#AA9F8D" d="M136 42.5l.1 2-.6.1-.2-2z"/><path fill="#605A4F" d="M135.3 42.6l.2 2-.2-.2-.1-1.9z"/><path fill="#7A7265" d="M135.9 42.4l.1.1-.7.1-.1-.1z"/><path fill="#AA9F8D" d="M142.2 40.1l.1 2-.7.1-.1-2z"/><path fill="#605A4F" d="M141.5 40.2l.1 2-.1-.1-.1-2z"/><path fill="#7A7265" d="M142 40l.2.1-.7.1-.1-.1z"/><path fill="#AA9F8C" d="M142.6 40.6l.2 2-.7.1-.1-2z"/><path fill="#605A4F" d="M142 40.7l.1 2-.1-.1-.2-2z"/><path fill="#7A7265" d="M142.5 40.5l.1.1-.6.1-.2-.1z"/><path fill="#AA9F8C" d="M143.1 41.2l.1 2-.7.1-.1-2z"/><path fill="#605A4F" d="M142.4 41.3l.1 2-.1-.1-.1-2z"/><path fill="#7A7265" d="M142.9 41.1l.2.1-.7.1-.1-.1z"/><path fill="#AA9F8C" d="M141 40.3l.2 1.9-.7.1-.2-1.9z"/><path fill="#605A4F" d="M140.3 40.4l.2 1.9-.1-.1-.2-1.9z"/><path fill="#7A7265" d="M140.9 40.2l.1.1-.7.1-.1-.1z"/><path fill="#AA9F8C" d="M141.5 40.8l.2 1.9-.7.1-.2-1.9z"/><path fill="#605A4F" d="M140.8 40.9l.2 1.9-.1-.1-.2-1.9z"/><path fill="#7A7265" d="M141.4 40.7l.1.1-.7.1-.1-.1z"/><path fill="#AA9F8D" d="M141.9 41.3l.2 2-.7.1-.2-2z"/><path fill="#605A4F" d="M141.2 41.4l.2 2-.1-.1-.2-2z"/><path fill="#7A7265" d="M141.8 41.2l.1.1-.7.1-.1-.1z"/><path fill="#AA9F8D" d="M144.5 39.4l.1 2-.6.1-.2-2z"/><path fill="#605A4F" d="M143.8 39.5l.2 2-.2-.1-.1-2z"/><path fill="#7A7265" d="M144.4 39.3l.1.1-.7.1-.1-.1z"/><path fill="#AA9F8C" d="M145 39.9l.1 2-.7.1-.1-2z"/><path fill="#605A4F" d="M144.3 40l.1 2-.1-.1-.1-2z"/><path fill="#7A7265" d="M144.8 39.8l.2.1-.7.1-.1-.1z"/><path fill="#AA9F8C" d="M145.4 40.5l.2 1.9-.7.1-.2-1.9z"/><path fill="#605A4F" d="M144.7 40.6l.2 1.9-.2-.1-.1-1.9z"/><path fill="#7A7265" d="M145.3 40.4l.1.1-.7.1-.1-.1z"/><path fill="#AA9F8D" d="M143.2 39.7l.2 2-.7.1-.1-2z"/><path fill="#605A4F" d="M142.6 39.8l.1 2-.1-.1-.1-2z"/><path fill="#7A7265" d="M143.1 39.6l.1.1-.6.1-.1-.1z"/><path fill="#AA9F8C" d="M143.7 40.2l.2 2-.7.1-.1-2z"/><path fill="#605A4F" d="M143.1 40.3l.1 2-.1-.1-.2-2z"/><path fill="#7A7265" d="M143.6 40.1l.1.1-.6.1-.2-.1z"/><path fill="#AA9F8C" d="M144.2 40.8l.1 2-.7.1-.1-2z"/><path fill="#605A4F" d="M143.5 40.9l.1 2-.1-.1-.2-2z"/><path fill="#7A7265" d="M144 40.7l.2.1-.7.1-.2-.1z"/><path fill="#A51E22" d="M146.4 38.9l.1 1.9-1.1.2-.1-2z"/><path fill="#5D1113" d="M145.3 39l.1 2-.2-.2-.1-1.9z"/><path fill="#761618" d="M146.1 38.7l.3.2-1.1.1-.2-.1z"/><path fill="#2C9F42" d="M146.8 39.3l.2 1.9-1.1.2-.2-2z"/><path fill="#195A25" d="M145.7 39.4l.2 2-.2-.2-.2-1.9z"/><path fill="#20722F" d="M146.6 39.1l.2.2-1.1.1-.2-.1z"/><path fill="none" d="M131.4 32.6l2.1-.3m-1.9 1l2-.3m-1.8 1l2-.3m-1.8 1.1l2-.3m-2 1.1l2-.3m-2 1.1l2-.3"/><path fill="#A51E22" d="M147.2 39.7l.2 1.9-1.1.2-.2-2z"/><path fill="#5D1113" d="M146.1 39.8l.2 2-.2-.2-.2-2z"/><path fill="#761618" d="M147 39.5l.2.2-1.1.1-.2-.2z"/><text fill="#7AC043" font-family="'FranklinGothic-Book'" font-size="1.899" transform="matrix(.7706 0 0 1 136.574 28.406)">280</text><text fill="#7AC043" font-family="'FranklinGothic-Book'" font-size="1.89" transform="matrix(.757 -.1852 .187 .9824 140.277 34.952)">280</text><path fill="#FFDBA9" d="M127 37.3l-1.1 4.7s-3.2 1-3.8 1c-.5 0 1.1-8.1 1.5-7.9.5.2 3.4 2.2 3.4 2.2z"/><path fill="#921C1F" d="M130.4 60.6l-2.3-8s1.8-1.4 2.3-1.8c.5-.4 2.6 8.9 2.6 8.9l-2.6.9z"/><path fill="#921C1F" d="M114.6 60.1s2-2.5 3.6-3.1c1.6-.6 2.5-1.2 2.3-1.8-.1-.6-.7-7.9-1.2-9.2-.4-1.3.3-4.5.3-4.5s7.4-1.3 8.6-.9c1.2.4 3.6 5.6 3.9 7.1.4 1.5-4.9 7-5.2 7.9-.3.9 1.9 11.5.4 11.8-1.7.3-5.5-2.8-7.6-4.1-1.4-.9-5.5-3.6-5.1-3.3.3.4-.3.9-.3.9l.4 11.7 12.4-4.7"/><linearGradient id="G" x1="152.976" x2="169.467" y1="-118.26" y2="-118.26" gradientTransform="rotate(-16.596 650.71 77.49)" gradientUnits="userSpaceOnUse"><stop offset="0" stop-color="#fff"/><stop offset=".073" stop-color="#fff5e8"/><stop offset=".17" stop-color="#ffecd1"/><stop offset=".281" stop-color="#ffe4bf"/><stop offset=".414" stop-color="#ffdfb2"/><stop offset=".593" stop-color="#ffdcab"/><stop offset="1" stop-color="#ffdba9"/></linearGradient><path fill="url(#G)" d="M129.4 18.1s1.3 7.9 1.9 8.3c.6.4 3.5 2.3 3.1 4.7-.4 2.4-3.1 7.8-5.1 8.1-2 .3-6.2-2.6-7.3-3.6-1.1-1-1.9-2.7-1.9-2.7s-2.4.9-2.5-1.7c0-2.6 1.8-2.9 1.8-2.9l-.1-1.9s3.8-5.8 5.1-6.3c1.4-.6 5-2 5-2z"/><linearGradient id="H" x1="147.496" x2="171.556" y1="-121.66" y2="-121.66" gradientTransform="rotate(-16.596 650.71 77.49)" gradientUnits="userSpaceOnUse"><stop offset=".005"/><stop offset=".516" stop-color="#1c1c1c"/><stop offset="1"/></linearGradient><path fill="url(#H)" d="M118 44.8h-1.3l.4-.8-2.2-2.4 2.3-1-1.7-2.4 3.1.3s-2.4-8.2-2.8-11.7c-.3-3.5 1.8-13.3 6.6-15.8s5.1 2.2 5.5 3c.3.8 4.1.5 4.4 1.8.3 1.3-.6 5.4-.8 5.9-.2.6-.9-3.5-1.8-3.2-.9.3-1 1.3-3.1 3.7-2.1 2.3-7 5.2-7.7 5.6-.6.4 3.3 8.1 3.3 8.1l-.9 6.7-3.3 2.2z"/><linearGradient id="I" x1="159.598" x2="160.309" y1="-100.615" y2="-103.267" gradientTransform="rotate(-16.596 650.71 77.49)" gradientUnits="userSpaceOnUse"><stop offset="0" stop-color="#fff"/><stop offset="1" stop-color="#aedfe5"/></linearGradient><path fill="url(#I)" d="M130.5 46.3l-2.2.8-.5-2 2.2-.8z"/><path fill="none" d="M123.2 46.5l.9-.3"/><path fill="#050506" d="M127.5 27.7c.1.2 0 .5-.2.6-.2.1-.4 0-.5-.3-.1-.2 0-.5.2-.6.2-.1.4 0 .5.3zm2.3-1.2c.1.2 0 .5-.2.6-.2.1-.4 0-.5-.3-.1-.2 0-.5.2-.6.2-.1.4.1.5.3z"/><linearGradient id="J" x1="169.188" x2="163.776" y1="-103.362" y2="-103.362" gradientTransform="rotate(-21.163 515.26 72.644)" gradientUnits="userSpaceOnUse"><stop offset="0" stop-color="#ec1475"/><stop offset="1" stop-color="#fff5cb"/></linearGradient><path fill="url(#J)" d="M124 35.5c.4 1.3 1.9 1.8 3.3 1.2 1.4-.6 2.1-2.1 1.7-3.4-.4-1.3-1.9-1.8-3.3-1.2-1.4.6-2.2 2.1-1.7 3.4z" opacity=".18"/><path fill="#FFF" d="M132.9 30.9s-1.4 3.3-1.8 3.6c-.4.3-4.1-.7-4.1-.7s1.7-.1 3.8-1.1c2.1-1 2.1-1.8 2.1-1.8z"/><linearGradient id="K" x1="-115.692" x2="-121.195" y1="172.757" y2="172.757" gradientTransform="rotate(151.785 25.417 132.844)" gradientUnits="userSpaceOnUse"><stop offset="0" stop-color="#ec1475"/><stop offset="1" stop-color="#fff5cb"/></linearGradient><path fill="url(#K)" d="M135.7 28.2c-.6-1.2-2.1-1.5-3.4-.7-1.3.8-1.9 2.4-1.3 3.6.6 1.2 2.1 1.5 3.4.7 1.2-.8 1.8-2.4 1.3-3.6z" opacity=".18"/><linearGradient id="L" x1="151.666" x2="159.068" y1="-115.315" y2="-115.315" gradientTransform="rotate(-16.596 650.71 77.49)" gradientUnits="userSpaceOnUse"><stop offset=".005"/><stop offset=".516" stop-color="#1c1c1c"/><stop offset="1"/></linearGradient><path fill="url(#L)" d="M121.1 26.8c-1.5.4-.8 3.8-.2 4.9.9 1.7 3.3 1.5 4.1 3.5.8 2-1.1 3.5-2 5.1-.6 1.1-.2 1.3-1.2 2-.5.4-1.5.5-2.1.9 2.5-3.6 1.4-6 .2-9.6-.4-1.3-2.6-9.6.6-7.3-.1.4-.2.8-.5 1.1"/><linearGradient id="M" x1="160.469" x2="165.054" y1="-125.02" y2="-125.02" gradientTransform="rotate(-16.596 650.71 77.49)" gradientUnits="userSpaceOnUse"><stop offset=".005"/><stop offset=".516" stop-color="#1c1c1c"/><stop offset="1"/></linearGradient><path fill="url(#M)" d="M125.9 20.9s1.1-.4-.4 1.4c-1.5 1.9-1.5 2.4-1.8 2.6-.3.2-.3 0 .3-.2s1.3-.5 1.7-.9c.4-.5.9-1.1 1.1-1.6.2-.5.1-1.8.1-1.8l-1 .5z"/><linearGradient id="N" x1="158.05" x2="162.635" y1="-124.078" y2="-124.078" gradientTransform="rotate(-16.596 650.71 77.49)" gradientUnits="userSpaceOnUse"><stop offset=".005"/><stop offset=".516" stop-color="#1c1c1c"/><stop offset="1"/></linearGradient><path fill="url(#N)" d="M123.9 22.5s1.1-.4-.4 1.4c-1.5 1.9-1.5 2.4-1.8 2.6-.3.2-.3 0 .3-.2s1.3-.5 1.7-.9c.4-.5.9-1.1 1.1-1.6.2-.5.1-1.8.1-1.8l-1 .5z"/><linearGradient id="O" x1="159.09" x2="163.675" y1="-123.661" y2="-123.661" gradientTransform="rotate(-16.596 650.71 77.49)" gradientUnits="userSpaceOnUse"><stop offset=".005"/><stop offset=".516" stop-color="#1c1c1c"/><stop offset="1"/></linearGradient><path fill="url(#O)" d="M125 22.6s1.1-.4-.4 1.4c-1.5 1.9-1.5 2.4-1.8 2.6-.3.2-.3 0 .3-.2s1.3-.5 1.7-.9c.4-.5.9-1.1 1.1-1.6.2-.5.1-1.8.1-1.8l-1 .5z"/><linearGradient id="P" x1="156.142" x2="160.727" y1="-123.591" y2="-123.591" gradientTransform="rotate(-16.596 650.71 77.49)" gradientUnits="userSpaceOnUse"><stop offset=".005"/><stop offset=".516" stop-color="#1c1c1c"/><stop offset="1"/></linearGradient><path fill="url(#P)" d="M122.2 23.5s1.1-.4-.4 1.4c-1.5 1.9-1.5 2.4-1.8 2.6-.3.2-.3 0 .3-.2s1.3-.5 1.7-.9c.4-.5.9-1.1 1.1-1.6.2-.5.1-1.8.1-1.8l-1 .5z"/><linearGradient id="Q" x1="159.338" x2="163.922" y1="-125.588" y2="-125.588" gradientTransform="rotate(-16.596 650.71 77.49)" gradientUnits="userSpaceOnUse"><stop offset=".005"/><stop offset=".516" stop-color="#1c1c1c"/><stop offset="1"/></linearGradient><path fill="url(#Q)" d="M124.7 20.7s1.1-.4-.4 1.4c-1.5 1.9-1.5 2.4-1.8 2.6-.3.2-.3 0 .3-.2s1.3-.5 1.7-.9c.4-.5.9-1.1 1.1-1.6.2-.5.1-1.8.1-1.8l-1 .5z"/><linearGradient id="R" x1="159.434" x2="164.019" y1="-125.976" y2="-125.976" gradientTransform="rotate(-16.596 650.71 77.49)" gradientUnits="userSpaceOnUse"><stop offset=".005"/><stop offset=".516" stop-color="#1c1c1c"/><stop offset="1"/></linearGradient><path fill="url(#R)" d="M124.7 20.3s1.1-.4-.4 1.4c-1.5 1.9-1.5 2.4-1.8 2.6-.3.2-.3 0 .3-.2s1.3-.5 1.7-.9c.4-.5.9-1.1 1.1-1.6.2-.5.1-1.8.1-1.8l-1 .5z"/><linearGradient id="S" x1="123.055" x2="126.925" y1="42.543" y2="42.543" gradientUnits="userSpaceOnUse"><stop offset="0" stop-color="#fff"/><stop offset=".073" stop-color="#fff5e8"/><stop offset=".17" stop-color="#ffecd1"/><stop offset=".281" stop-color="#ffe4bf"/><stop offset=".414" stop-color="#ffdfb2"/><stop offset=".593" stop-color="#ffdcab"/><stop offset="1" stop-color="#ffdba9"/></linearGradient><path fill="url(#S)" d="M123.1 41.3s1.3 3.1 2.9 3c1.6-.1.8-3.4.8-3.4l-3.7.4z"/><path fill="#921C1F" d="M128.6 45.9c-.2.1-.3.5-.2.7.1.4.2.1.5 0 .1-.1.5-.2.5-.3.1-.3-.2-.5-.4-.5"/><linearGradient id="T" x1="159.422" x2="159.569" y1="-101.86" y2="-101.86" gradientTransform="rotate(-16.596 650.71 77.49)" gradientUnits="userSpaceOnUse"><stop offset="0" stop-color="#ffecc4"/><stop offset=".456" stop-color="#ffe8b6"/><stop offset="1" stop-color="#ffe1a0"/></linearGradient><path fill="url(#T)" d="M128.8 45.9s-.1 0 0 0c-.1-.1-.1 0-.1 0h.1z"/><path fill="none" d="M128.6 45.9c0 .1-.1.1 0 0-.1.1 0 .1 0 0l-.1.1v-.1c.1.2.1.1.1 0 0 .1 0 0 0 0z"/><path fill="#F7F7F8" d="M128.7 45.9l.1.1c-.1 0-.1 0-.1-.1zm.1 0v.1-.2.1z"/><path fill="none" d="M128.6 45.9l.1.1"/><linearGradient id="U" x1="159.15" x2="159.852" y1="-102.177" y2="-102.177" gradientTransform="rotate(-16.596 650.71 77.49)" gradientUnits="userSpaceOnUse"><stop offset="0" stop-color="#ffecc4"/><stop offset=".456" stop-color="#ffe8b6"/><stop offset="1" stop-color="#ffe1a0"/></linearGradient><path fill="url(#U)" d="M129 45.5v-.2c0-.1-.3 0-.4 0-.1 0-.3.2-.3.3l.1.2v.2s.1.1.2 0c.1 0 .2-.1.2-.1l.1-.1.1-.3"/><linearGradient id="V" x1="159.615" x2="159.758" y1="-102.066" y2="-102.066" gradientTransform="rotate(-16.596 650.71 77.49)" gradientUnits="userSpaceOnUse"><stop offset="0" stop-color="#ec1475"/><stop offset="1" stop-color="#fff5cb"/></linearGradient><path fill="url(#V)" d="M128.9 45.6v.1s-.1 0-.1-.1h.1z" opacity=".13"/><linearGradient id="W" x1="159.224" x2="159.395" y1="-102.028" y2="-102.028" gradientTransform="rotate(-16.596 650.71 77.49)" gradientUnits="userSpaceOnUse"><stop offset="0" stop-color="#ec1475"/><stop offset="1" stop-color="#fff5cb"/></linearGradient><path fill="url(#W)" d="M128.4 45.8c0 .1.1.1.1.1l.1-.1c0-.1-.1-.1-.1-.1-.1 0-.1.1-.1.1z" opacity=".13"/><path fill="#FFF" d="M128.9 45.6l-.2.2h-.3s.1 0 .2-.1c.2 0 .3-.1.3-.1z"/><path fill="none" d="M128.6 45.7c.1 0 .1 0 0 0"/><path fill="#F7F6F5" d="M128.4 46.2s-.1 0-.1-.1V46v.2c.1-.1.1-.1.1 0 0-.1.1-.1 0 0zm.5-.7s0-.1 0 0c0-.1 0-.1 0 0" opacity=".14"/><linearGradient id="X" x1="159.338" x2="159.394" y1="-101.796" y2="-101.796" gradientTransform="rotate(-16.596 650.71 77.49)" gradientUnits="userSpaceOnUse"><stop offset="0" stop-color="#9a6026"/><stop offset=".183" stop-color="#b3831c"/><stop offset=".437" stop-color="#d2ad10"/><stop offset=".667" stop-color="#e8cc07"/><stop offset=".862" stop-color="#f5de02"/><stop offset="1" stop-color="#fae500"/></linearGradient><path fill="url(#X)" d="M128.7 46c-.1 0-.2 0 0 0"/><path fill="#090708" d="M128.7 46.2l-.1.1s-.4-.4-.4-.7c0-.3.1-.5.2-.5l.1-.1.2.1-.2.2-.1.2v.1c0 .1.2.1.2.1"/><path fill="#090708" d="M128.7 45.3c-.1-.1-.2-.1-.2-.1h.2c.1 0 .2.1.3.2v.8h-.1l-.1-.2v-.1l.1-.3c0-.2-.1-.2-.2-.3.1 0 .1 0 0 0z"/><linearGradient id="Y" x1="-150.987" x2="-150.9" y1="-102.238" y2="-102.238" gradientTransform="matrix(-.616 .1836 .2856 .9583 64.947 170.992)" gradientUnits="userSpaceOnUse"><stop offset="0" stop-color="#d0cccf"/><stop offset=".162" stop-color="#a19ea1"/><stop offset=".372" stop-color="#6b696b"/><stop offset=".569" stop-color="#413f41"/><stop offset=".745" stop-color="#222122"/><stop offset=".895" stop-color="#100f10"/><stop offset="1" stop-color="#090809"/></linearGradient><path fill="url(#Y)" d="M128.8 45.3h-.1v-.1.2-.1.1z"/><linearGradient id="Z" x1="-150.902" x2="-150.791" y1="-102.242" y2="-102.242" gradientTransform="matrix(-.616 .1836 .2856 .9583 64.947 170.992)" gradientUnits="userSpaceOnUse"><stop offset="0" stop-color="#d0cccf"/><stop offset=".162" stop-color="#a19ea1"/><stop offset=".372" stop-color="#6b696b"/><stop offset=".569" stop-color="#413f41"/><stop offset=".745" stop-color="#222122"/><stop offset=".895" stop-color="#100f10"/><stop offset="1" stop-color="#090809"/></linearGradient><path fill="url(#Z)" d="M128.7 45.2s0 .1 0 0l.1.1-.1-.1z"/><linearGradient id="aa" x1="-213.473" x2="-213.368" y1="-92.555" y2="-92.555" gradientTransform="matrix(-.6414 .042 .0655 .998 -2.202 146.696)" gradientUnits="userSpaceOnUse"><stop offset="0" stop-color="#d0cccf"/><stop offset=".162" stop-color="#a19ea1"/><stop offset=".372" stop-color="#6b696b"/><stop offset=".569" stop-color="#413f41"/><stop offset=".745" stop-color="#222122"/><stop offset=".895" stop-color="#100f10"/><stop offset="1" stop-color="#090809"/></linearGradient><path fill="url(#aa)" d="M128.6 45.3v.1-.1z"/><linearGradient id="ab" x1="-213.386" x2="-213.28" y1="-92.516" y2="-92.516" gradientTransform="matrix(-.6414 .042 .0655 .998 -2.202 146.696)" gradientUnits="userSpaceOnUse"><stop offset="0" stop-color="#d0cccf"/><stop offset=".162" stop-color="#a19ea1"/><stop offset=".372" stop-color="#6b696b"/><stop offset=".569" stop-color="#413f41"/><stop offset=".745" stop-color="#222122"/><stop offset=".895" stop-color="#100f10"/><stop offset="1" stop-color="#090809"/></linearGradient><path fill="url(#ab)" d="M128.6 45.3v.1-.1z"/><linearGradient id="ac" x1="-276.188" x2="-276.1" y1="-98.326" y2="-98.326" gradientTransform="matrix(-.633 -.112 -.1742 .9847 -63.407 111.344)" gradientUnits="userSpaceOnUse"><stop offset="0" stop-color="#d0cccf"/><stop offset=".162" stop-color="#a19ea1"/><stop offset=".372" stop-color="#6b696b"/><stop offset=".569" stop-color="#413f41"/><stop offset=".745" stop-color="#222122"/><stop offset=".895" stop-color="#100f10"/><stop offset="1" stop-color="#090809"/></linearGradient><path fill="url(#ac)" d="M128.5 45.5v-.1.1c0-.1 0-.1 0 0 0-.1 0 0 0 0z"/><linearGradient id="ad" x1="-276.155" x2="-276.066" y1="-98.244" y2="-98.244" gradientTransform="matrix(-.633 -.112 -.1742 .9847 -63.407 111.344)" gradientUnits="userSpaceOnUse"><stop offset="0" stop-color="#d0cccf"/><stop offset=".162" stop-color="#a19ea1"/><stop offset=".372" stop-color="#6b696b"/><stop offset=".569" stop-color="#413f41"/><stop offset=".745" stop-color="#222122"/><stop offset=".895" stop-color="#100f10"/><stop offset="1" stop-color="#090809"/></linearGradient><path fill="url(#ad)" d="M128.5 45.6v-.1.1c0-.1 0-.1 0 0 0-.1 0 0 0 0z"/><path fill="#1A8543" d="M128.4 45.8s-.1-.4.1-.5h.3c.1.1.1.1.1.2s0-.2-.2-.2c-.2-.1-.2-.1-.3 0-.1 0-.1 0-.1.2.1 0 .1.1.1.3z"/><path fill="none" d="M129.3 45.3l.7-.3m-.4.7l.5-.2"/><path fill="#FFDBA9" d="M122.7 41s1.2 1.2 1.8 1.1c.6-.1 1.7-1.7 1.7-1.7l-3.5.6z"/><path d="M126.3 53.9c.6-.4 1.6-1.6 1.7-2.1.2-.5.9-1.5.9-1.5l1.1-1 1.1-.7.7.3s-1.8 2.7-2.2 3.4c-.4.7-2.6 3.4-2.6 3.4v1.4c.1.7.1 2.1.1 2.1s-1.6-2.4-1.6-2.8c0-.4.2-2.1.8-2.5z" opacity=".16"/><path fill="#F9F9FC" d="M122.6 41.3c-.1.7-.1 1.5 0 2.1 1.4-.3 1.2.9 1.4 2.1.8-.2 1.3-1 2.1-1.4-1.5.5-2.2-1.1-3-2.2m2.9-1.2c1 .9 1.6 2.7.2 3.6.6-.2 1.2-.8 1.8-1.3-.1-.2-.2-.3-.4-.3.3-.2.6-.8.8-1-.8-.2-1.5-1.2-2.3-1"/><linearGradient id="ae" x1="163.636" x2="170.58" y1="-89.719" y2="-89.719" gradientTransform="rotate(-16.596 650.71 77.49)" gradientUnits="userSpaceOnUse"><stop offset="0" stop-color="#fff"/><stop offset=".073" stop-color="#fff5e8"/><stop offset=".17" stop-color="#ffecd1"/><stop offset=".281" stop-color="#ffe4bf"/><stop offset=".414" stop-color="#ffdfb2"/><stop offset=".593" stop-color="#ffdcab"/><stop offset="1" stop-color="#ffdba9"/></linearGradient><path fill="url(#ae)" d="M136.4 54.1c2.3 1.2 4.3-2.9 6.5.4-1.3 3.1-3.9 3.6-6.3 3.3"/><path fill="#921C1F" d="M119.2 45.3h.7l1.8.1s3.5 10.8 4.9 11.8c1.4 1 7.4-1.7 7.4-1.7l3.5-1.2-.9 3.5-11.9 3.2-3.4-9.4m-6.6 9.6l7 5.1 3.1 1.4 1.7-.3-4.1-4s-4.4-2.5-4.5-2.8c0-.3-2.8-1.6-2.8-1.6l-.4 2.2z"/><path fill="#FFF" stroke="#AEAEAF" stroke-width=".25" d="M185 25.8s4.4-4.1 4.8-3.8c.4.3 4.1 1 4.1 1l2.3-1.2s1.5 3.7 1.8 3.6c.3-.1.8 3.4.8 3.4s-2.2 7.9-2.4 8.6c-.2.7-.5 6.4-.5 7.1 0 .7-3.1 3.4-3.1 3.4s-2.1-1-2.7-1.2c-.5-.2-3-1.9-3.2-2.3-.2-.4-.7-3.4-.7-3.7.1-.4-1.2-14.9-1.2-14.9z"/><path fill="#8D8C8C" stroke="#6C6C6B" d="M196.6 41.8l1 1.3c.8 1.2.2.4.8 2 .3.7-.3 1.6-.5 2.5-.2.9-.5 2.7-.3 3.7.2.9.2 1.7.5 2.3.3.6 1.9 17.9 1.8 19.1-.1 1.2-.6 1.7-.6 1.7s-.5-.7-1.3-.2c-.8.5-1.2.2-1.2.2s-1.1-.3-1-.8c.1-.5 1.2 1.1 0 0s-3.5-22.1-3.5-22.1 1.2 8.2 1.2 10.3c0 2.1.2 2.4.2 3.8 0 1.3.5 6 .9 6.9.4.9.3 1.5.3 1.5s-1 .6-1.7.6-1 0-1.6.1c-.6.1-1.9.8-2.1.1-.2-.7-1.6-21.2-1.7-21.7 0 0 .1-3.5-.1-4.4-.2-.9-1.3-5.3-1.3-5.3"/><linearGradient id="af" x1="191.088" x2="194.611" y1="33.069" y2="33.069" gradientUnits="userSpaceOnUse"><stop offset="0" stop-color="#066880"/><stop offset=".41" stop-color="#086981"/><stop offset=".557" stop-color="#0f6b84"/><stop offset=".662" stop-color="#1a708a"/><stop offset=".748" stop-color="#2b7693"/><stop offset=".821" stop-color="#417e9e"/><stop offset=".885" stop-color="#5d88ac"/><stop offset=".943" stop-color="#7c94bc"/><stop offset=".994" stop-color="#a1a1ce"/><stop offset="1" stop-color="#a5a3d0"/></linearGradient><path fill="url(#af)" stroke="#040C5B" stroke-width=".25" d="M192.2 25.3s-1.1 9.6-1.1 11.1c0 1.4 1.1 3.6 1.6 4.3.5.7 1.7-3.3 1.9-3.9.1-.6-1-11.5-1-11.5h-1.4z"/><linearGradient id="ag" x1="191.894" x2="193.954" y1="25.294" y2="25.294" gradientUnits="userSpaceOnUse"><stop offset="0" stop-color="#066880"/><stop offset=".41" stop-color="#086981"/><stop offset=".557" stop-color="#0f6b84"/><stop offset=".662" stop-color="#1a708a"/><stop offset=".748" stop-color="#2b7693"/><stop offset=".821" stop-color="#417e9e"/><stop offset=".885" stop-color="#5d88ac"/><stop offset=".943" stop-color="#7c94bc"/><stop offset=".994" stop-color="#a1a1ce"/><stop offset="1" stop-color="#a5a3d0"/></linearGradient><path fill="url(#ag)" stroke="#040C5B" stroke-width=".25" d="M191.9 24.7c.2.8 0 .6.1 1.5.9.7 1.1.6 2 0v-1.8c-.6-.6-1.4-.2-1.9-.5"/><path fill="#8D8C8C" stroke="#6C6C6B" d="M196.5 22.3c2.2.7 4 2 4.2 4.3.5 6.2-.2 8.4-.2 8.4l-1.3 15.5-.2 2s-.9 1.7-2.1 1.8c-1.2.2-3.3-.6-3.3-.6s.8-19.6 1.1-20.5c.3-.9.9-6.7.9-6.7l.4-2.4.5-1.8zM185 25.8s1.9-2.7 2.3-3c.4-.3 1-.8 1-.8s2.7 6.7 2.7 8.4c.1 1.7.9 11.7.8 13.1-.1 1.4.2 10.8.2 10.8s-.9.9-1.7.6c-.8-.3-1.7-1.1-2.2-1.2-.5-.2-1.9-2.4-1.9-2.4l-1.3-21.6.1-3.9z"/><path fill="#6C6C6B" stroke="#6C6C6B" d="M188.3 23.1l-.6 5.6 1.7 2.9-1.1 5.9 3.6 5.9-.8-11.8zm8.2-1.2l1.2 5.4-1.4 3.2 1.8 5.6-2.9 6.5-.5-11.9z"/><path fill="#343433" stroke="#343433" stroke-width=".1" d="M191.9 42.5h1.9v2h-1.9z"/><linearGradient id="ah" x1="192.071" x2="193.712" y1="43.435" y2="43.435" gradientUnits="userSpaceOnUse"><stop offset="0" stop-color="#969595"/><stop offset="1" stop-color="#cbcaca"/></linearGradient><path fill="url(#ah)" stroke="#343433" stroke-width=".1" d="M192.1 42.6v1.7h1.6v-1.7h-1.6zm1.4 1.4h-1.1v-1.2h1.1V44z"/><linearGradient id="ai" x1="192.071" x2="193.712" y1="43.463" y2="43.463" gradientUnits="userSpaceOnUse"><stop offset="0" stop-color="#969595"/><stop offset="1" stop-color="#cbcaca"/></linearGradient><path fill="url(#ai)" stroke="#343433" stroke-width=".1" d="M192.1 43.3h1.6v.4h-1.6z"/><path fill="#FFF" stroke="#AEAEAF" stroke-width=".25" d="M192.8 23.7l-2.4 5s-2.2-6.2-2.7-7c-.5-.8 1 0 1.3.5.5.4 3.8 1.5 3.8 1.5zm0-.1l2.7 5.1s.9-6.3 1.3-7.1c.4-.8-.1-.5-.4 0-.4.6-3.6 2-3.6 2z"/><path fill="#D7AE92" d="M185.7 19.4s.4 1.4 2.6 2.4c1.9.9 4.1 2.6 6 1.7 3.7-1.9 5.7-7.8 4.2-9-1.5-1.2.1-2.4.1-3.9s-1.4-6.1-5-6.2c-3.6-.1-7.6 1.5-7.4 3.1.1 1.6-1 5.3-1 7.6 0 1.2.5 4.3.5 4.3z"/><path fill="#060708" d="M195.2 13.4c0 .3-.2.6-.5.6s-.5-.3-.5-.6.2-.6.5-.6c.3-.1.5.2.5.6zm-3.8.2c0 .4-.2.6-.5.6s-.5-.3-.5-.6.2-.6.5-.6c.3-.1.5.2.5.6z"/><path fill="none" stroke="#A36F4A" stroke-width=".25" d="M192 16.7s.4-1.4 1.1-1.2c.7.2 1.3.9 1.3.9"/><path fill="none" stroke="#8E5D3A" stroke-width=".25" d="M195.4 19.1s-1.5.8-2.1.6c-.7-.2-1.8-.6-1.8-.6"/><path fill="#020202" d="M185.3 13.6c.7.1 1 .7.9 1.5-.2.1-.3.1-.5 0v.5c-1.4.4-1.5-6.3-.6-6.8-.1 0-.2-.2-.2-.4.4-.8.6-1.4 1.3-1.6 0-1.3 1.2-2.2 2.1-1.8.6-1.2 3.9-2.5 5.8-1.5 1.1-1 2.6 0 3.2.6 1.6 1.9.7 3.9 1.8 5.6l-.5.5c.4.9.4 2-.5 2.3.3 1.1-.3 1.5-1 1.1.9-1.9.6-4.5.8-6.7-.6-.4-1 .2-1.6.3-.1-.3-.1-.5-.1-.8-.2-.1-.9-.5-1.1-.5-.6.5-2.4 0-3-.6-.9 1.2-2.3 1.3-3.4 1.6-.7.2-1.1-.1-1.7.7-.4.6.5 2.6-1.1 1.8.6 1.3-1.5 3.4-.1 4.4"/><path fill="#020202" d="M197.2 5.5c-1.4.7-.3 2.2.8 2.1.2-.5.1-1.2-.1-1.7m-12 3.6c1.1.1 1.3 2.3 0 1.9 1.1 1.1-.5 2.6-1.2.7.2.5.3-2.1.1-1.7.3-.9.3-1.5 1.3-1.3"/><path fill="#D2A98C" d="M185.3 15.3c-1.4-1.4-1.6 2.2.1 1.8"/><path fill="#020202" d="M190.9 5.7c1.3 1.8 2.6-1.5.9-1.6m-2.2-.1c.2-1.1 1.1-1.2 1.7-.5m-2 .5c-1.1-.5-2.2.8-.7 1.2m4.2-1.8c.5-.5 1-.5 1.3 0"/><path fill="#8D8C8C" stroke="#6C6C6B" d="M185 25.5c0 3.6 0 6.5 1 9.9.8 2.8 4.4 7.7.7 9.1-5.3 2-6-15.3-2.7-18.6"/><path fill="#020202" d="M212.6 25.2c-.4.1-10.2.7-10.2.7l.5 6.6 9.3.9.4-8.2zm1.8-1.5c-.7 0-1.4.1-2 .4"/><path fill="none" stroke="#C8926F" stroke-width=".25" d="M208.5 23.9s-.2 1.2-.8 1.2c-.6 0-1.3-.5-1.3-.5"/><path fill="#FDD9B6" d="M211.3 60.4c0 .5-.1 10.9-.2 14.5h2.6c.3-5.7 1-15.3 1-15.3l-3.4-.1c-.2 0 0 .4 0 .9z"/><path fill="#2B1312" d="M216.98 63.116l-12.2-.007.01-14.4h12.2z"/><path fill="#5F2262" d="M202.8 38.7l-1.4-1.4 1.8-4.9.6 3z"/><path fill="#5F2262" d="M209.6 25.6l-1.9-.1-.9-.2s-1.5 4.2-2.9 5.4c-1.4 1.1-2 7.1-.5 8.7 1.5 1.6 2.9 5.2 2.7 6.3-.2 1.1-1.2 2-1.2 3.3 0 1.3 11.1 0 11.9-.3.9-.4-.3-2.1-.3-2.1s-.5-.7-.7-1.8c-.2-1.2-.2-4.1-.2-4.1s.5-3.6 0-6.1c-.5-2.6-1-2.9-1.9-3.7-.8-.7-1.5-1.3-2-2s-1.6-2.1-1.6-2.1l-.5-1.2z"/><path fill="#070908" d="M212.9 30.4s-.9 0-1.2 1.5c-.3 1.5-.2 4.4-.1 5.7.1 1.2.2 3.1.2 3.1s.2 4.4.2 5c-.1.6.1 3.6.1 3.6l-.4.1s-.2-3.2-.2-3.8c0-.6-.2-5.8-.2-6.6 0-.7-.3-6.1-.1-6.9.2-.8.3-1.6.6-1.8.4-.2.8-.1.8-.1l.3.2zm2.2 18.6l-.3.3s0-.7.1-1.4.2-1.5.2-2.1c0-.6.2-1.8.2-1.8l.1-1.2.2-.8s.1-.4-.1.3c-.1.4.2 2.5.2 2.7 0 .3-.1 1.6-.2 2.1-.2.4-.4 1.9-.4 1.9z" opacity=".32"/><path fill="none" d="M210.3 27.3s-1.1.5-2.2.6c-1.1.1-1.3.1-1.6.1-.3 0-.6-.2-.6-.2m3.4-2l.9 1.5m-2.5-1l.3 1.6m-.6-1.6v1.6"/><path fill="#CE6FAB" d="M201.9 36.8c0 .1.1.2.2.2s.2-.1.2-.2-.1-.2-.2-.2-.2.1-.2.2z"/><path fill="#FDD9B6" d="M200.6 22.4s1.4 1.1 3.3 1.9c1.7.7 3.6 2.2 5.2 1.4 3.3-1.6 5.9-5.4 4.7-6.4-1.3-1-.2-3.2-.2-4.4 0-1.2-.5-5.9-3.7-6-3.2-.1-8 2.1-7.9 3.4.1 1.3-1.3 7.7-1.9 7.7-.5.1.5 2.4.5 2.4z"/><path fill="#060708" d="M210 17.3c0 .3-.2.5-.4.5s-.4-.2-.4-.5.2-.5.4-.5.4.3.4.5z"/><ellipse cx="206.3" cy="17.5" fill="#060708" rx=".4" ry=".5"/><path fill="#FDD9B6" stroke="#B76A33" stroke-width=".25" d="M207.2 20.1s.3-1.1.9-1c.6.1 1.2.8 1.2.8"/><path fill="#020202" d="M208.3 11.7c-.1 2-.7 2.1-2 3-1.5 1.1-2.1 1.5-2.9 3.5-1.5 3.5 3.8 10.5 6 13.3-5.9 3.6-10.9-11.9-9.5-16.9 1.7-5.9 7.2-9.1 12.4-5.2 2.9 2.1 4.2 4.1 4.5 7.7.2 2.8-.6 9.3-2.6 11.6-.8.8-.2 5-.5 3.4-.1-1-2.8-2.6-2.5-6 .1-1.5.8-3.2 2.4-5.4.5-.6-.7-3.1-1-4-.6-1.7-2.1-4.3-3.4-5.1-.2.7-.7.8-1 1.2"/><path fill="none" stroke="#CD8854" stroke-width=".25" d="M210.3 22.3s-1.5 1.2-2.1 1c-.6-.1-1.9-.5-1.9-.5"/><g stroke-width=".25"><path fill="#272E69" stroke="#272E69" d="M215.5 62.2s3.9 5 4.1 7.9c.2 2.9-.3 2.6-.6 3.2-.4.5-1.1 1.3-3 1.4-1.9.1-9.9 0-9.9 0s-1.7-.1-2.5-1.4c-.9-1.4-.6-2.4-.6-2.5 0-.2 1-4.2 2.7-6.4l1.7-2.2s.8.4 1.6.5c.8.1 2 .5 2.5.5s2.6-.5 2.9-.6c.1-.2 1.1-.4 1.1-.4zm-.4 0s.2-4.9-3.9-5.2c-3.4-.2-3.7 5-3.7 5v.2h-.5s-.1-5.7 4.2-5.7c4.8 0 4.4 5.7 4.4 5.7h-.5z"/><path fill="#FBCD0F" stroke="#D19829" d="M212 63v3.7l-.6.9v.4l.2.2 1-1.3v-4zm-1.5 0v3.7l.6.8-.2.7-1-1.3v-4z"/><path fill="#E22F91" stroke="#E22F91" d="M219.4 69.2s.3 1.5.2 2.4c-.1.8-.3 2-1.4 2.5-1.1.5-1.5.6-1.7.6-.2 0 1.1-.8 1.6-2.7.5-1.9.9-4 .9-4l.4 1.2zm-14.1 5.4s-1.5-.4-1.9-1.6c-.4-1.2-.6-2-.3-2.7.2-.8.6-2 .6-2l.5-1.2s-.4 2.3 0 4c.4 1.7 1.6 3.7 1.6 3.7l-.5-.2z"/></g><path fill="#FDD9B6" d="M215.5 39.6h-3.7l.4 14.7s-1.3 1.1-1.3 2c0 .9.4 2.7 1.1 2.5.8-.2 1-.7 1.9-1 .9-.2.3-2.6.3-3.3 0-.7.9-10.1.9-10.1l.4-4.8zm-12.3-11.7c-.1 2.1-1 3.6-1.9 5.2-1.2 2.3-.6 3.4-.4 5.9 1.7-1.5 1.6-5.9 2.1-8.2"/><path fill="#5F2262" d="M215.5 40.7h-3.7s-.4-4.4-.4-5.6c0-1.3.1-4.7 1-4.7s1.8.9 1.9 1.6c.2.7 1.4 5.2 1.4 5.4 0 .2-.2 3.3-.2 3.3z"/><path fill="#D2A98C" stroke="#B18A70" stroke-width=".25" d="M186.9 45.1c-.2.5-.4 2.7-.1 3.2.3.5 2.2 1.2 2.6 1-.3-.8-1-1.7-1.7-2.1.7.3 1.9 1.9 2.8 1 1.4-1.3-.8-1.2-1.5-1.2.8-.1 2.5.2 2.8-.9-.5-.6-1.2-.3-1.9-.2-.1-.5 0-1.2-.2-1.8-.9 0-2.4-.3-3.1.4"/><path fill="#8D8C8C" stroke="#6C6C6B" d="M200.1 25.7c0 3.6 0 6.5-1 9.9-.8 2.8-4.4 7.7-.7 9.1 5.3 2 6-15.3 2.7-18.6"/><path fill="#D2A98C" stroke="#B18A70" stroke-width=".25" d="M197.1 42.6c.4.3 1.4 2.2 1.3 2.8-.1.6-1.6 2.2-2 2.3 0-.9.3-2 .8-2.7-.5.7-1 2.6-2.2 2.3-1.7-.4.3-1.6.9-1.8-.7.3-2.2 1.5-2.9.7.3-.8 1-1 1.6-1.1-.1-.6-.4-1.1-.5-1.7.8-.5 2-1.5 3-1.3"/><path fill="#FFF" stroke="#AEAEAF" stroke-width=".25" d="M195.4 42.7l3 3.3 1.5-1-3.5-3.7z"/><path fill="#FDD9B6" d="M199.4 36.1c.9-1 2.4-.5 1.9 1.2-.6.1-.8.4-1.4 0 .7.1 1.5.6 1.3 1.4-.2.4-.6.5-1.1.5 1.7 1.5-.4 2.9-1.4.4-.5-1.4-1.3-3.5.3-3.6"/><path fill="none" d="M164.3 48.4l.1-.2"/><path fill="#FFF" d="M138.3 54.9l-.8-.1-1.3 3.1 1.2-.1z"/><path fill="#A8A49B" d="M155.6 75l50.5-22.2v-4.5l-62 26.7z"/><path fill="#AAA" d="M113.8 75.2l64.6-27.5-2.6-.4L113 73.9c.2.5.5.9.8 1.3z"/><path fill="#8D8C8A" d="M118.1 75h1.7l58.4-24.6.2-2.7-64.6 27.5z"/><path fill="#AAA" d="M119.1 75h25.4L201 50.3l-22.8.1z"/><path fill="#F8E893" d="M205.9 75l.2-22.2-51 22.2z"/><path fill="#8D8C8A" d="M178.1 47.5v3.1s22.1.4 22.6.1c.5-.4.3-3.1.3-3.1l-22.9-.1z"/><path fill="#8D8C8A" d="M139.4 75h4.2l62.8-26.7-5.2-.4z"/><path fill="#E5D0B9" d="M138.5 56.4l2.1-.8 2.3-.7v18.2l-4.4 2.5z"/><path fill="#7B4B1E" stroke="#7B4B1E" d="M140.6 55.6h.1v15.8h-.1z" opacity=".08"/><path fill="#7B4B1E" stroke="#7B4B1E" d="M138.5 75.6l2.1-4.2 2.3 1.7-2.2-1.4-1.9 3.7z" opacity=".08"/><path fill="#CEB597" d="M128.2 71.9V54.6l10.3 1.8v19.2z"/><path fill="#B28D64" d="M142.9 54.9l-9.6-1.1-5.1.8 10.3 1.8z"/><path fill="#C8AA8C" d="M133.3 54.3l8.2.9 1.4-.3-9.6-1.1-5.1.8 1 .2z"/><path fill="#B28D64" d="M135.3 55.7l-.9-2.8s-1.1-2.3.6-3.4c.9-.6 1.5 0 1.8.1.1.1.5.6.8 1.4.5 1.2.9 4.2.9 4.2h.2s-1-7.4-3.7-6c-1.4.7-1.1 2-.7 3.5.4 1.5.9 2.9.9 2.9l.1.1z"/><path fill="#B28D64" d="M132.1 55.4l.1-1.5s-.3-3.8 1.6-4.4c1.1-.3 1.2 1.8 1.4 2.1.1.1.2 1.2.3 2 .1 1.3 0 2.2 0 2.2h.2s1.1-6.1-1.8-5.8c-1.5.1-1.9 2.3-1.8 3.8 0 1.6-.1 1.3-.1 1.3l.1.3z"/><path fill="#7B4B1E" stroke="#7B4B1E" d="M140.7 55.7l.8.7.1 15.7-1-.7z" opacity=".07"/><path fill="#96C952" d="M139.6 50.3v-.2l.1-.3v-.2l-.1-.1-.2.2-.1.2-.1-.2-.1-.3h-.1l-.2.1v.1h-.2l-.2-.1-.3-.3-.3.1s-.2.1 0 .2.7.3.7.3.3.1.3.2c.1.1.1.5.1.5h.2l.3.4s.1.3.2.2c.1-.1.1-.3.1-.3v-.1l.1-.1v-.2l-.2-.1z"/><path fill="#255429" d="M138.4 56.2l.2-.2.2-.2.2.1.1.1.2.3v.2l-.3-.1-.3-.1z"/><path fill="#28753A" d="M139.9 57.1s.3-.6.4-.7c.1-.1.2-.6.2-.6s.1-.3.2-.4c.1-.1.4-.1.4-.1l.4-.1-.1-.1s.3 0 .2-.1c-.1-.1-.5.2-.5.1v-.3c.1 0 0-.2 0-.2l-.6.7c-.1-.2-.1-.4-.1-.4v-.2h-.1s-.1.3-.1.4v.4c0 .1.1.3.1.3l-.1.3-.1-.4-.3-.1-.1.1-.3-.1c-.2 0-.2.3-.2.3s.3 0 .4.1c.2.1.4.4.4.4l-.1.7z"/><path fill="#2F803F" d="M138.5 56.3s-.3-.3-.5-.3-.2 0-.4-.1c-.2 0-.3 0-.4-.2-.1-.1-.3-.4-.3-.4v.2l-.3.2s-.2.1-.2.2c.1.1.2.1.3.2.1.1.4.1.5.1.1.1.3.2.4.1.1-.1.4-.1.4-.1l.3.3h.2v-.3.1z"/><path fill="#2F803F" d="M135.4 55.2s.3-.2.5-.1c.1 0 .1.2.1.2l-.2.2h.2l.2.5h.1s.1-.5.2-.6c.1-.1.2-.2.3-.2s.3-.1.3-.1V55h-.7l-.4-.1s-.3 0-.4.1c-.2.1-.2.2-.2.2z"/><path fill="#77A440" d="M138.3 55.7s0-.3-.1-.3.1-.3.1-.3v-.2l.1-.5-.2-.1-.1.2-.2.4-.1.4v.1l-.2-.1.1-.4v-.2l.1-.2.1-.3h-.2s.2-.3.2-.4c0-.1-.1-.2-.1-.3 0-.1.1-.2.1-.2v-.2l-.3.4s-.3.4-.3.5c0 .1-.1.2-.1.2l-.2-.1.1-.3.1-.3v-.4l.1-.2s.1-.2 0-.2-.3.3-.3.3l-.1.3V53s.1-.1.1-.2-.1-.2-.1-.2l.1.4-.1-.4-.1-.1-.1.2.1.1.1.1-.1.1-.2-.3-.1.1.1.2.1.1v.3l.2.4.1.4-.4-.3-.2-.3v-.1l-.2-.1v.3s-.2 0-.1.1.4.5.4.5.2.1.2.2.2.1.2.2c.1.1.2.4.2.4l.1.3c.1.2.3.4.3.4l.2.2c.1 0 .3.1.3.1l.2-.1s0-.1.1-.1h.5l-.1-.2h-.4z"/><path fill="#6AB345" d="M134 54.4s.2-.2.3-.2c.1 0 .5-.1.5-.1l-.2-.2s.5-.1.6-.1h.4l.3.1h.2l.1.2-.4.1h-.2l-.1.2-.4.2-.4.2.4-.3-.4.1-.4.2.1-.2h-.2l-.2-.2z"/><path fill="#5DA044" d="M134.4 53.6h-.1s-.1-.1-.2-.1c-.1.1-.3 0-.3 0l.2-.1-.2-.2s0-.2.1-.2.4.1.4.1l.2-.1-.4-.2.1-.2s.2 0 .3.1l.3.3h.3l.2.1-.1-.3-.1-.2-.1-.3v-.1h.1v.2c0 .1.2.2.2.2v-.2l.1.3v.1l.2-.1.1-.1v-.2s-.1 0-.1-.1-.1-.3-.1-.3l-.1-.3.1-.2.1.1.1-.1c.1.1.1.3.1.3l.2-.1.1-.3s.1 0 .2.1.2 0 .2 0v-.3l.2.3v.1l.3.1.1.1h.2v.2l-.1.1h-.2s0-.1-.2.1l-.2.2-.2-.1s.1-.1 0-.1-.2-.1-.2-.1l-.1-.1h-.3v.2l.2.1h.1v.1l-.1.1h-.3l-.1.1-.1.2-.1.2v.2l.2-.1.1.1h.2v.3h-.2l-.3-.2h-.9l-.3.1.2.2z"/><path fill="#F2F7EB" d="M136.2 53.1h-.2l-.3.1.2-.4c.1.1.3.1.3.1v.2z"/><path fill="#78BC43" d="M136.6 53.3l-.4.2v-.3h.3V53l-.2-.1.2-.1.3-.2.5.2h.8l-.1-.2h-.4l-.1-.1-.3-.1.1-.3.1-.1.1-.1v-.1s.1 0 .1.2c0 .1.2.3.2.3l.2.3h.2l-.2.4-.1.1h-.2l-.2-.1-.1.1-.2.2h-.3l-.3-.1"/><path fill="#7FB342" d="M138.1 51.2l-.3-.2h-.3l-.3-.1-.1-.3h.3l.2.1h.2l.2.1v-.1s0-.2-.1-.2c-.1-.1-.1-.3-.1-.3l.2-.2v-.1l-.2-.1-.3-.1h-.2l-.2.1-.1-.1-.1-.2s-.1 0-.2-.1c0-.1-.1-.3-.1-.3V49l-.1-.1h.2l.1.2.2.2c.1.1.3.2.3.2l.3.1h.3l-.2-.4s0-.1-.1-.2-.3-.1-.3-.1h-.2l-.2-.1v-.1l.5-.1h.2v-.2l-.2-.2-.4-.2-.2-.2v-.4l.1.1.3.2v-.4l-.1-.2v-.2l.2.2.2-.2-.1-.1-.1-.1-.1-.3h.1l.2.2v1.3l.1.3-.1.5v.3l.1.2s.1.1.1.2v.4l.1.2c.1.2.1.3.1.5 0 .1.1.4.1.4s.1.1.1.3c.2-.2 0 0 0 0z"/><path fill="#3E8540" d="M138.4 52.7l-.1-.3-.2-.2-.1-.2-.3-.2-.1.1-.3-.1-.2-.1.2-.1-.3-.2h-.3l-.2-.2s.4-.1.4 0 .4.1.4.1c.1 0 .4.2.4.2s.2-.1.3 0c.1.1.5.4.5.4l.3.1.1.3.2.2.3-.1h.7l.3.1-.1.2-.2.1-.1.5-.1.1v.4s-.1.2-.1.3v.1l-.3.6-.1.2v.3l-.1.1-.2.1-.2-.1-.1-.1.1-.2-.1-.3-.1-.5.1-.2v-.2l-.1.1-.1-.1.1-.2.1-.3h-.2l-.4.3-.2-.1-.1.1-.1-.3v-.3l.1-.2.1-.1v.1l.2.1h.3l.1-.1v-.2l-.1.1.2-.3h.1l-.4.2z"/><path fill="#4E9042" d="M139.9 55l-.1-.3v-.3l.2-.5.1-.3.1-.2v-.1h-.2s-.1.2-.1.3v.1l-.2.2-.1.3s0 .1-.1.3c0 .2-.2.4-.2.4s-.2 0-.1.2.1.4.1.4l.1.2.4-.1s0 .1.1.1h.1l.2-.2v-.2l-.3-.3z"/><path fill="#75B043" d="M140.1 54l.2-.3v-.2l-.2-.3-.1-.2v-.1h.2l.1-.1-.1-.2-.2-.1.1-.2V52l-.2-.1V51h.2v.6l.1.2.2.2.1.2.1.3h.1l.2-.2-.1-.2s-.1-.1-.1-.2c-.1-.1-.1-.3-.1-.3l-.1-.2-.1-.2.1-.1.2.2.2.2-.1-.4V51l.1-.1.1.2.1-.2.1-.2.2.1-.2.3-.1.1v.1l.3-.1.1-.1-.2.3.3-.1-.2.2-.2.2-.1.2-.1.3.2-.3.1.2.1-.2.1-.2.1-.1v.2l.2-.1v.1l-.1.1-.1.1h.6v-.3h.2l.1.2v.2s.2 0 .1.1c0 .1-.1.2-.1.2v.1h.3l-.2.2h.4l-.1.1-.1.2-.1.1-.3-.1-.1.3s-.2-.1-.1.1v.3h-.2l.1-.1-.3.3-.2.2.2-.3.3-.2h-.6l-.3-.1v.3h.2l-.1.3-.1.3-.4-.1v.2s-.2.2 0 .2.3-.1.3-.1l.1.1-.1.2s-.1 0-.1.1v.1l-.2.1v-.3l-.2.1-.2-.1v-.2c0-.1-.1-.1-.1-.1l.2-.4V54h-.4z"/><path fill="#FFFCEC" d="M141.5 52.5l.1-.2h.2l.2-.1.1-.1v.2l-.1.2-.1.1h-.2zm.1.8l.1-.2.1-.1.1.1-.1.2zm-.4 0v-.1l.1-.1.3.2zm.2-.4c0-.1 0-.1 0 0l.2-.2.3-.1v.2l-.3.1h-.2z"/><path fill="#6EB344" d="M140 52.4l-.2-.2-.2-.2-.3-.4s-.2 0-.2-.1c-.1-.1-.1-.2-.1-.2v-.2l.1-.2-.1-.2-.3.1v.2c0 .1.1.4.1.4l.1.3.2.1.2.2.1.2.2.1.1.2.3.1v-.2z"/><path fill="#4B863E" d="M139.9 51.7l-.1-.2h-.1l-.1-.1v-.2l.1-.1c-.1-.1 0-.3 0-.3h-.1l-.1.2-.2.2v.3l.1.2.2.1.4.2v-.4l-.1.1z"/><path fill="#6CB545" d="M140.1 50.9l.2-.4.4-.3.4-.2.3-.4s.1-.1.1-.2c.1-.1.2-.3.2-.3l.1-.4-.2.2-.3.4-.3.2h-.3l-.2.3-.1.1.2-.5s0-.1.2-.2.3-.1.4-.2l.2-.2h-.4l-.2.2-.1-.2.1-.3.2-.2.2-.3.1-.2v-.2l-.2.2-.2.2-.2.3v-.8s-.1-.3-.1-.1c0 .2.1.1 0 .2-.1 0-.1-.3-.1-.3l.1-.3s-.3.1-.3.2-.2.4-.2.4l-.2.1v-.2l.2-.4v-.4h-.1v-.1s-.2-.1-.1.1c0 .1-.1.5-.1.5l-.1-.4-.1-.2-.1.2v.4l.1.2-.1.1-.2.1h-.2l-.1-.1-.1.1-.1.2v.2l-.1.1-.2.1-.2.1v-.2l.1-.1-.1-.1v-.1l.2-.2.5-.6.3-.4s-.2.1-.4.1.1-.3.1-.3h-.2s-.1.1-.2.3c0 .2-.2.3-.2.3l-.2.1v-.2l.1-.2.1-.2.1-.3V46l-.1-.3-.1-.1-.1.2v.2l-.1-.4-.1.2-.1.1s-.1-.1-.1 0-.1.2 0 .3c.1.1.2.1.2.2s.1.1 0 .1-.2-.1-.2-.1h-.2l-.3.1s.3.2.4.3c.1.1.1.5.1.6 0 .1.1.3 0 .5 0 .1-.1.3-.1.3v.5l-.1.1h.2l.2-.4v-.2l.2.1h.3l.3-.2.1-.1.2.1s.1-.1.2 0 .2.1.2.2c.1.1 0-.1.1.1v.2s-.1.3-.1.4v.2l-.1.2s.1.2.1.3v.4l.1.1v.2l-.1.3v.2h.6z"/><path fill="#FFFCEC" d="M140.2 48.9l.2-.4s-.1-.3 0-.4v-.4l.1-.2s-.3.1-.3.3c0 .2.1.5.1.5v.4l-.1.2zm-.5-.9l-.1-.1.2-.1.1.1zm1 1.9s.1-.1.2-.1c.2 0 .3-.3.3-.3l-.3.2-.2.2zm-2.3-.5s.1-.2-.1-.2c-.1 0-.3.1-.3.1l.4.1zm.2-.6l.1-.1c.1-.1.2-.3.2-.3h-.3v.4zm1.1-.4l-.3.1s-.3 0-.2.2c0 .1.1.2.2.3l.2.2h.3v-.4l.1-.2-.3-.2z"/><path fill="#87C440" d="M139.2 50.6l-.1-.1.1-.1.1-.3h-.2l-.1.2-.1.1v-.1l.1-.2-.1-.2s-.1 0-.1.1v.4h-.2l-.2.1.1.1h.2l.1.1s-.4-.1-.3.1c.2.1.4.1.4.1l.3-.1.1.2.2-.2h.2l.2.2h.1l-.1-.2v-.2l-.3-.1-.4.1z"/><path fill="#67A143" d="M138.3 49.8l-.1.3v.3l.3-.4.1-.1.3-.1-.4-.2-.1.1h-.3l.1.2z"/><path fill="#7FB342" d="M138.2 51.9s-.1-.4-.2-.5c-.1-.1 0-.4 0-.4l.2-.1.2.5.1.4.1.6-.4-.5z"/><path fill="#AFB1B0" d="M144.9 64.1l4.1 4.6-1.7 2.1-4.1-4.7z"/><path fill="none" stroke="#D160A0" d="M145 64.2l-.3.4-.9 1.1-.5.5 3.9 4.6.1-.2 1.7-1.9z"/><path fill="#CC4994" d="M144.7 64.6l4 4.4.3-.3-4-4.5zm-.7.8l-.7.8 3.9 4.6.8-.9z"/><path fill="#4087C7" d="M147.8 70.1l-4-4.4.2-.3 4 4.5z"/><path fill="#F3F4F5" stroke="#F3F4F5" d="M144.7 64.6l4 4.4-.7.9-4-4.5z"/><path fill="#999" stroke="#999" d="M144 65.3c-.1.1-.6.8-.7.7l.7-.7m.8-.9c0-.1.1-.2 0-.2-.1.1 0 .1 0 .1"/><path fill="#F3F4F5" stroke="#F3F4F5" d="M144.2 65.1c0-.4.4-.6.5-.9 0 0 .1 0 .1.1 0 .4-.4.5-.6.8" opacity=".4"/><path fill="gray" stroke="gray" d="M149 68.7v.1l-1.7 2h-.1"/><text fill="#211F1F" font-family="'SegoePrint'" font-size="1.785" transform="matrix(.718 .6055 -.503 .8643 143.767 65.89)">Gum</text><path fill="#B19669" stroke="#9C8052" stroke-width=".25" d="M146.3 69.3c0-.1 0-.1 0 0 0-.2-.2.2-.1.1 0 .1 0 .1.1 0v-.1"/><path fill="#B19669" stroke="#9C8052" stroke-width=".25" d="M146.3 69.7l-.1-.1c0-.1 0-.4.1-.5l.2-.2s.3.1.3.2c0 0 .4.2.3.3 0 .1-.1.3-.1.4-.1.1-.2.2-.3.2-.1 0-.3 0-.3-.1l-.1-.1c.1 0 0-.1 0-.1z"/><path d="M146.7 69.3v.1l-.1.1c0 .1.1.2 0 .3-.1 0-.1 0-.1-.1v-.2c.1 0 .1-.1.2-.2" opacity=".12"/><path fill="#B19669" stroke="#9C8052" stroke-width=".25" d="M146.7 69.7v.1c-.1 0-.1 0-.1-.1v-.3s0-.1.1-.1 0 .1 0 .1c0 .1-.1.2 0 .3m0 .1s-.1 0 0 0m-.1 0"/><linearGradient id="aj" x1="14.139" x2="14.484" y1="395.997" y2="395.997" gradientTransform="rotate(35.015 597.92 443.14)" gradientUnits="userSpaceOnUse"><stop offset="0" stop-color="#f08041"/><stop offset=".132" stop-color="#f08346"/><stop offset=".277" stop-color="#f18c53"/><stop offset=".429" stop-color="#f39b69"/><stop offset=".586" stop-color="#f6af88"/><stop offset=".746" stop-color="#f9cab0"/><stop offset=".907" stop-color="#fdeae0"/><stop offset="1" stop-color="#fff"/></linearGradient><path fill="url(#aj)" d="M146.8 69.9v-.3c.1-.1.1-.2.2-.2h.2v.3c0 .1 0 .1-.3.2-.1.1-.1 0-.1 0z" opacity=".42"/><path fill="#8E6527" stroke="#7C5120" stroke-width=".25" d="M147.6 68.4v.4c0 .1.1.2.1.2 0 .1-.1.1-.1.2h-.1v-.6l.1-.2z"/><path fill="#F08041" stroke="#D46328" stroke-width=".25" d="M146.9 69.2c.1.1.1 0 .2 0s.1-.2.2-.1l.1.1v.1l-.1.1h-.1s-.2-.1-.3-.2z"/><path fill="#B19669" stroke="#9C8052" stroke-width=".25" d="M147.2 69.1h-.1c-.1 0-.1.1-.2 0-.1 0-.3-.1-.3-.3 0-.1 0-.2.1-.2-.1-.2 0-.1 0-.1.1-.2.3-.4.3-.4.1 0 .2-.1.2 0 .1 0 .3.3.3.3s0 .3-.1.3l-.1.2s.1.2 0 .3v.1c0 .1-.1.1-.1.1l-.1-.1s.2 0 .1-.2c.1.1 0 0 0 0z"/><linearGradient id="ak" x1="-6.261" x2="-6.133" y1="450.502" y2="450.502" gradientTransform="rotate(31.123 757.33 535.507)" gradientUnits="userSpaceOnUse"><stop offset="0" stop-color="#e91675"/><stop offset=".063" stop-color="#eb2a6e"/><stop offset=".199" stop-color="#ef5160"/><stop offset=".34" stop-color="#f37054"/><stop offset=".486" stop-color="#f6894b"/><stop offset=".639" stop-color="#f79a45"/><stop offset=".804" stop-color="#f9a541"/><stop offset="1" stop-color="#f9a840"/></linearGradient><path fill="url(#ak)" stroke="#E77626" stroke-width=".25" d="M147.6 68s.1 0 0 0c.1.1.1.1.1.2 0 0 0 .1 0 0-.1-.1-.1-.1-.1-.2z"/><path fill="#F08041" stroke="#D46328" stroke-width=".25" d="M147.2 69s0-.1 0 0c.1 0 .1 0 0 0 .1.1.1.1 0 0z"/><path fill="none" stroke="#6C471D" stroke-width=".25" d="M147.3 69c0-.1-.1-.1-.1 0"/><path fill="#9C8052" stroke="#9C8052" stroke-width=".25" d="M147.3 68.3v-.1l.1-.1s0 .1-.1.1-.1 0 0 .1c-.1-.1 0-.1 0 0 0 0-.1 0 0 0z"/><linearGradient id="al" x1="-1.685" x2="-1.609" y1="290.695" y2="290.695" gradientTransform="rotate(25.315 568.644 511.142)" gradientUnits="userSpaceOnUse"><stop offset="0" stop-color="#e91675"/><stop offset=".063" stop-color="#eb2a6e"/><stop offset=".199" stop-color="#ef5160"/><stop offset=".34" stop-color="#f37054"/><stop offset=".486" stop-color="#f6894b"/><stop offset=".639" stop-color="#f79a45"/><stop offset=".804" stop-color="#f9a541"/><stop offset="1" stop-color="#f9a840"/></linearGradient><path fill="url(#al)" stroke="#E77626" stroke-width=".25" d="M147.4 68h-.1v.1l.1-.1z"/><path fill="#B19669" stroke="#9C8052" stroke-width=".25" d="M147.5 68.4s0-.1 0 0c0 0 .1 0 .1-.1v-.1.2c.1-.1 0 0-.1 0 .1 0 .1 0 0 0 .1 0 0 0 0 0z"/><linearGradient id="am" x1="13.78" x2="14.103" y1="394.639" y2="394.639" gradientTransform="rotate(35.015 597.92 443.14)" gradientUnits="userSpaceOnUse"><stop offset="0" stop-color="#e91675"/><stop offset=".063" stop-color="#eb2a6e"/><stop offset=".199" stop-color="#ef5160"/><stop offset=".34" stop-color="#f37054"/><stop offset=".486" stop-color="#f6894b"/><stop offset=".639" stop-color="#f79a45"/><stop offset=".804" stop-color="#f9a541"/><stop offset="1" stop-color="#f9a840"/></linearGradient><path fill="url(#am)" stroke="#E77626" stroke-width=".25" d="M147.4 68.2s.1 0 0 0c.1.1.1 0 .1.1v.1s.1.1 0 .1c0 0 0 .1 0 0v-.1s0 .1 0 0v-.1s-.1 0 0 0h.1c-.2 0-.2-.1-.2-.1z"/><path fill="#8E6527" d="M147.2 68.8c0 .1-.1.1-.2 0-.1 0-.1-.1 0-.2 0-.1.1-.1.2 0 .1 0 .1.1 0 .2z"/><path fill="#060708" d="M147.2 68.8c-.1 0-.1 0 0 0-.1 0-.1-.1 0 0-.1-.1-.1-.1 0 0 0-.1 0-.1 0 0z"/><linearGradient id="an" x1="13.774" x2="14.006" y1="395.15" y2="395.15" gradientTransform="rotate(35.015 597.92 443.14)" gradientUnits="userSpaceOnUse"><stop offset="0" stop-color="#e91675"/><stop offset=".063" stop-color="#eb2a6e"/><stop offset=".199" stop-color="#ef5160"/><stop offset=".34" stop-color="#f37054"/><stop offset=".486" stop-color="#f6894b"/><stop offset=".639" stop-color="#f79a45"/><stop offset=".804" stop-color="#f9a541"/><stop offset="1" stop-color="#f9a840"/></linearGradient><path fill="url(#an)" d="M147.2 68.8c0 .1-.1.1-.1 0 0 0-.1-.1 0-.2 0-.1.1-.1.1 0s.1.1 0 .2z"/><path fill="#3A2A18" d="M147.2 68.8s-.1 0 0 0c-.1 0-.1-.1 0 0-.1-.1-.1-.1 0 0 0-.1 0 0 0 0z"/><path fill="#F0EB90" d="M147.2 68.8c-.1 0-.1 0 0 0-.1 0-.1 0 0 0-.1-.1-.1-.1 0 0z"/><path fill="#060708" d="M147.4 68.9s-.1 0 0 0c-.1 0-.1 0 0 0-.1 0-.1 0 0 0z"/><path d="M146.7 68.7s0-.1 0 0c.1-.1.1-.1.2-.1.1-.1.1-.1.2-.1h.1v-.1h-.2l-.1.1c-.1 0-.1.1-.2.2 0-.1 0-.1 0 0" opacity=".12"/><path fill="#8E6527" stroke="#7C5120" stroke-width=".25" d="M147.2 68.2h-.1s-.1 0-.2.1h-.2v.3l.1-.1s.1-.1.1-.2l.1-.1h.2z"/><g stroke-width=".25"><path fill="#BC4D99" stroke="#3C56A2" d="M147.3 69.8c-.2-.1-.2-.4-.1-.6.1-.2.3-.3.5-.2.2.1.2.4.1.6-.1.2-.3.3-.5.2z" opacity=".71"/><path fill="#FFF" stroke="#FFF" d="M147.7 69.3V69v.2s0 .1 0 0v.3s.1 0 .1-.1v-.2c0 .2 0 .2-.1.1.1.1.1 0 0 0 .1 0 .1 0 0 0" opacity=".17"/><path fill="#FFF" stroke="#FFF" d="M147.6 69.6c0-.1 0-.1 0 0 .1 0 .1 0 0 0 0 .1 0 .1 0 0z" opacity=".09"/><path fill="#090A0B" stroke="#FFC52D" d="M147.2 69.2c.1-.1.2-.1.3-.2.2-.1.3 0 .3.2v.3s0-.1.1-.2v-.2c0-.1-.1-.2-.1-.2-.1-.1-.2-.1-.3 0-.1 0-.1.1-.2.1-.1.1-.1.2-.1.2" opacity=".02"/><path fill="#FFF" stroke="#FFF" d="M147.6 69.6c.1 0 .1 0 0 0zm0 0z" opacity=".17"/><path fill="#090A0B" stroke="#FFC52D" d="M147.1 69.2c-.1.3.1.5.2.6.1.1.3 0 .4-.2-.1.1-.1.1-.2.1s-.2 0-.2-.1c-.1 0-.2-.1-.2-.4" opacity=".02"/></g><path fill="none" d="M148.4 69.1c0-.9-1.2-1.6-1.6-.8"/><path fill="#E399C2" d="M145.2 64.7s-.1.1-.1 0c0 0-.1-.1 0-.1 0 0 .1-.1.1 0v.1zm-1.3 1.8c0 .1-.1.1-.1.1v-.2c0-.1.1-.1.1-.1.1.1.1.2 0 .2zm.9.8c-.1.1-.2.1-.3.1-.1-.1-.1-.2 0-.3.1-.1.2-.1.3-.1.1.1.1.2 0 .3zm.5.2c0 .1-.1.1 0 0-.1 0-.1-.1-.1-.1h.1v.1zm.5-2.2c-.1.1-.2.1-.2 0-.1-.1-.1-.2 0-.3.1-.1.2-.1.2 0v.3z"/><path fill="#F9EFE2" d="M148.3 62.3s.2-.2.3-.2c.1 0 .7-2.3.7-2.4 0-.1 3.3-2.2 3.4-2.2.1 0 7.8 1 8 1.2.2.2.9 2.2.9 2.3 0 .1-3 2.5-3.3 2.5-.3 0-7.3-1-8-1.1-.8 0-2-.1-2-.1z"/><path fill="#DCD2CA" d="M149.4 59.7s7.6 1.3 8 1.1c.5-.2.4 2.4.4 2.6 0 .1-9-1.2-9.1-1.2-.1 0 .5-2.3.6-2.3l.1-.2z"/><path fill="#C6ADAC" d="M157.1 60s1.7-.9 1.7-1c0-.1-5.8-1.1-6-1-.2 0-2 1-1.7 1.1.3.1 3.4.6 4.1.7.7.1 1.6.2 1.7.2.2.1.2 0 .2 0z"/><path fill="#DCD2CA" d="M148.3 63.1v.9s.3.1.3.3c0 .1-.1 2.1 1.4 2.3 1.5.2 1.8-1 1.9-1.1.1 0 0 1.5 1.4 1.5s2-.9 2.1-.9c.1 0 .4 1.5 1.6 1.5 1.2 0 1.4-.3 1.6-.6.2-.3.6-1.8.8-1.6.1.1.2.6.2.6 0 .1.7 0 .9 0 .2 0 .8-.5.8-.6l.6-3.2-3.1 2.2s-2.3-.3-2.8-.3c-.5-.1-3.9-.6-4.7-.7-.8 0-3-.3-3-.3z"/><path fill="#C6ADAC" d="M150.3 60.5s-.3.4-.3.6c0 .2 1.2.2 1.2.2h.4v-.6s-.6-.2-.8-.2h-.5zm4.7.7s-.4.5-.4.6c0 .1.9.1 1.1.2.1 0 .4.1.5 0 0-.1.1-.4.1-.5 0-.1-.9-.3-1-.3-.2-.1-.3 0-.3 0z"/><path fill="#DCD2CA" d="M157.8 60.8s.2 2.6.4 2.5c.1 0 3.2-2.1 3.2-2.2 0-.1-.6-2.1-.8-2.1-.1 0-1.2.8-1.4.9-.2.1-1 .6-1.2.7-.2.1-.2.2-.2.2z"/><path fill="#9D8187" d="M151.9 59.2s.6-.8 1-.6c.4.2.3.9.3.9l-1.3-.3zm1.8.3s.6-.8 1.2-.6c.7.2.6.8.6.9v.1l-1.8-.4zm2.3.4s.6-.9 1.4-.7c.8.2.5.3.5.3l-.9.6-1-.2z"/><path fill="#EEE3C8" d="M148.4 63.3s-.1.5 0 .5c.1.1.7.2.7.4s0 1.6.4 1.8c.4.2.8.3 1 .1.1-.1.1-1.9.7-1.9s1.2.3 1.2.3.3 1.8.3 1.9c0 .1 1 .5 1.2.3.2-.2.7-1.8.9-1.8.2 0 1.2.1 1.2.2s.3 1.9.4 2c.1.1.8.3 1 .1.1-.1.9-1.6.9-1.7 0-.1.1-.9.1-.9l-10-1.3z"/><path fill="#9D8187" d="M151.5 65.9l.3-1.1.2.5-.2.2zm3.5.5l.3-.9s.2.4.2.5m-7.2-3.7l.1.8s10.3 1.5 10.4 1.4c.2-.1 2.9-2 3.1-2.2.2-.2-.1-.8-.2-1-.1-.1-3.1 2.3-3.4 2.3-.3 0-8.4-1.1-8.6-1.1-.2 0-1-.1-1.1-.1 0-.1-.3-.1-.3-.1zm3.3-1.6s-.4.2-.4.3c0 .1.1.3.1.3l.2.1.1-.7z"/><path fill="#9D8187" d="M156.2 61.4s-.4.2-.4.3c0 .1.1.3.1.3l.2.1.1-.7zm3.5 4.5s-.2-.5-.3-.5c-.1 0 0-.2 0-.2l.5.5v.3l-.1.2-.2-.1"/><path fill="#FBD108" d="M187.8 43.2v-.9h-2.7v.9s.7.2 1.4.1c.6.1 1.2 0 1.3-.1z"/><ellipse cx="186.4" cy="42.4" fill="#F2C417" rx="1.3" ry=".1"/><path fill="#F2C417" d="M186 42.4l.1-.5h.7v.5z"/><path fill="#E0B624" d="M185.4 42.5h.1v.8h-.1zm2.1 0h.1v.8h-.1zm-2.4-.1h.1v.8h-.1zm.2.1h.1v.8h-.1zm.2 0h.1v.8h-.1zm.2.1h.1v.8h-.1zm.1 0h.1v.8h-.1zm.3 0h.1v.8h-.1zm.1 0h.1v.8h-.1zm.2 0h.1v.8h-.1zm.2 0h.1v.8h-.1zm.2 0h.1v.8h-.1zm.3-.1h.1v.8h-.1zm.2 0h.1v.8h-.1zm.3-.1h.1v.8h-.1z"/><path fill="#E3A524" d="M185.2 43.3s-.7.1-.8.7c-.1.5.2 1.2.2 1.3 0 .1.1.5.3.8l.3.3v.2h-.1l-.1.3s-.3.1-.4.4c-.1.3-.3 1.7-.3 1.9 0 .2.1.8.2 1l.2.2-.1.2c0 .1-.1.2-.2.4 0 .2-.1 1 0 1.3.1.3.2.7.6 1 .4.2.8.2.9.2.1-.1.2-.1.3-.1h.8s0 .2.4.1.7-.2.8-.4c.1-.2.3-.9.4-1v-.9s0-.2-.1-.3c-.1-.1-.1-.2-.1-.2v-.2s.1-.1.1-.3c.1-.1.1-1.2.1-1.6 0-.4-.3-1.3-.4-1.5l-.4-.4v-.2l.4-.4c.1-.2.2-.6.2-.6v-.2s.4-.8.2-1.3-.6-.6-.7-.6c-.3-.2-2.5.1-2.7-.1z"/><path fill="#C6862B" d="M184.6 45.2c.1-.1 0-.3.1-.4 0-.1.1-.3.1-.4 0-.1.1-.3.1-.4 0-.1.1-.1.1-.2s0-.2.1-.2c0 .1 0 .2-.1.3 0 .1-.1.2-.1.3 0 .1 0 .2-.1.3 0 .1-.1.2-.1.3.1 0 .1-.2.2-.3.1-.1.1-.2.1-.4 0-.1.1-.2.1-.3 0-.1.1-.3.2-.3 0 .2-.1.3-.1.5 0 .1 0 .2.1.1 0 0 0-.1.1-.1l.1-.1c.1-.1.3 0 .4 0 .2.1.3.1.2.4 0 .1 0 .2-.1.2 0 .1 0 .1-.1.2-.1 0-.3.1-.4.1h-.2c-.1-.1 0-.2-.1-.2l-.2-.1c-.1 0-.1.2-.1.2 0 .1 0 .6-.1.5 0-.2.1-.4 0-.6v.2c0 .1 0 .1-.1.2.1.1 0 .2-.1.2"/><circle cx="185.8" cy="44.4" r=".2" fill="#050505"/><path fill="#C6862B" d="M184.7 44.7c-.3-.2-.2-.8 0-.9.1-.1.3-.1.4-.2.1-.1.1-.1.1-.2-.1-.1-.1-.1-.2 0-.3.1-.6.3-.6.7 0 .3 0 .7.1 1 0 .1.1.2.1.2.1 0 .1 0 .1-.1.1-.2.2-.5 0-.5m3-1.4c0 .1.1.1.2.2l.2.2c.1.1.2.3.2.5s0 .3-.1.5c0 .1-.1.4 0 .5 0 0 .4-.7.2-1.2s-.4-.6-.5-.7c-.1-.1-.2-.1-.2 0z"/><circle cx="187" cy="44.4" r=".2" fill="#050505"/><path fill="#050505" d="M186.2 45.2s.1-.1.1 0 0 .1.1.1 0-.1 0-.1h.1s0-.2-.2-.2c-.1 0-.1.1-.1.2z"/><path fill="#C6862B" d="M187.7 43.3c-.1 0-.2.2-.2.3v.2c0 .1 0 .1.1.2s.1.2.1.3c0 .1.1.2.1.4 0 .1-.1.7.1.6.1-.1 0-.3 0-.4v-.4c0 .1.2.6.3.6.1 0 0-.2 0-.3 0-.1 0-.1-.1-.2v-.2c0-.1 0-.2-.1-.3 0-.1-.1-.2-.1-.3 0-.1-.1-.2-.1-.3v-.1c-.1 0-.1-.1-.1-.1m-1 .7c.1-.1.3-.2.4-.1 0-.1-.3 0-.4.1m0 .9c-.1-.1-.2-.1-.3-.2-.2 0-.2 0-.4.1 0-.1 0-.1.1-.2h.4c.1.1.3.3.2.3m-.5 1c.1 0 .1-.1.1-.1.1 0 .1 0 .2.1h-.3m.4-1.6v.4h.1l.1.1.2.2c0-.1-.1-.3-.2-.3 0-.1-.1-.2-.2-.4"/><path fill="#C6862B" d="M186.2 44.6c-.1.1 0 .3-.2.4-.1 0-.1 0-.2.1 0 .1-.1.2-.1.2.1 0 .3-.4.3-.1v.3l-.2.1v-.3c0-.1.1-.2.1-.3.1-.2.3-.4.3-.7v.3m.2.8c0 .1 0 .3-.1.4-.2.1-.3-.1-.4-.2 0 .1.2.2.3.2.1 0 .1-.1.2-.4.1.2.1.4.2.4.1.1.2-.1.3-.2-.1.1-.2.2-.4.1-.1 0-.1-.1-.1-.2v-.1"/><path fill="#A97029" d="M187.9 46.8s.1 0 0 0c-.1.1 0 .5 0 .6 0 .2.1.4.1.6.1.2.1.4.1.7 0 .1 0 .2-.1.3-.1.1-.2.6 0 .7-.1.1-.1.3.1.3-.1.1 0 .2.1.2-.1.1 0 .1.1.1s.1-.1.2-.2c0 .1-.1.2-.2.2 0-.1.1-.1.1-.2-.1 0-.2.1-.2 0 0-.2.2-.1.1-.2-.1 0-.1.1-.2.1-.1-.3.1-.2.2-.4-.1-.1-.2.2-.2-.1 0-.2.1-.1.2-.3h-.1c0-.2.1-.3.1-.4.1-.2 0-.3 0-.5-.1-.1-.1-.3-.1-.5 0-.1-.1-.3-.1-.5m-3.1-.4c.1.2 0 .5-.1.7-.1.2-.1.5-.2.7 0 .2-.1.5 0 .7 0 .1.1.2.1.3 0 .1 0 .4-.1.2.1 0 .2.2.1.3 0 .1-.2 0-.2 0 .1 0 .2.1.2.2s-.2 0-.2.1c0 0 .2.1.1.2 0 .1-.2 0-.2 0h.2c0-.1-.1-.1-.1-.2.1-.1.2 0 .2-.1-.1 0-.2-.1-.2-.2.1 0 .2.1.3 0 .1-.1-.1-.3-.1-.3s.1 0 .1.1c0-.1 0-.2-.1-.2 0-.1 0-.2-.1-.3-.1-.1-.1-.1-.1-.3 0-.2.1-.4.1-.6 0-.1.1-.2.1-.3 0-.1 0-.2.1-.3 0-.1.1-.2.1-.3 0-.1-.1-.2-.1-.3.1-.2.1-.1.1-.1"/><path fill="#C6862B" d="M186.7 53c-.1 0-.4.1-.6 0 0 0 0-.1-.1-.2l-.1-.1c-.1 0-.2.1-.2.2s-.1.3-.2.1c-.1-.1-.1-.2-.1-.3V52c-.1.2-.1.5-.1.7 0 .2.2.6.4.6.1 0 .2-.1.3-.1h.6c.1 0 .2-.1.3 0 0 0 0 .1.1.1h.1c.1 0 .2-.1.3-.1.2-.1.4-.2.6-.4.4-.3.4-.9.4-1.4v-.1.4c-.1.2-.1.2-.3.3-.1 0-.1.1-.2.1h-.2c-.1 0-.2.2-.2.4s0 .8-.3.6c-.1-.1-.1-.3-.3-.3h-.2v.2"/><path fill="#C6862B" d="M187.6 51.4c-.1 0-.5-.1-.5.1h.4c-.1 0-.3 0-.3.1.1 0 .3-.2.3 0-.1 0-.2 0-.2.1.1 0 .1-.1.2 0-.1 0-.2.1-.2.2.1 0 .1-.1.2-.1v.1l.1-.1c.1-.1 0-.2.1-.3.1-.2.2-.2.3-.4.1-.1.1-.3.2-.4l.1-.1s.1-.1 0-.1c0 0-.1.1-.1.2s-.1.1-.2.2c0 .1-.4.8-.4.5m.1-4.8c-.1 0-.2.1-.3.2-.2.1-.2.1-.1.3.1.3.2.5.3.8l.3.9c0 .1 0 .9.2.8.1 0 .1-.3.1-.4 0-.2.1-.2.1-.4.1-.3 0-.6-.1-.8-.1-.3-.1-.5-.1-.8V47c0-.1.1 0 .1-.1-.3-.2-.5-.4-.5-.3m-2.5-.4c.3.4.8-.1 1.1-.2.2 0 .3.2.5.2s.4-.1.6-.1c.3.1.1.3-.1.4-.2.1-.4.1-.7.1-.3 0-.8-.2-1.2-.1 0 .1.1.2.1.3 0 .2-.1.2-.2.4-.1.3-.2.5-.3.8-.1.3-.1.5-.1.8 0 .3-.1.5-.2.1-.1-.3-.1-.4-.1-.7 0-.2.1-.5.1-.7 0-.1 0-.3.1-.4 0-.1.1-.2.1-.4-.1-.2-.1-.1 0-.3.2.2.3.1.3-.2"/><path fill="#C6862B" d="M186 52.8c0-.2-.1-.4-.1-.6 0-.2-.1-.6-.3-.3-.1.2 0 .4 0 .6.1.3.2.4.4.3m1.2.3c0-.2.1-.5.1-.7.1-.4-.1-.4-.3-.6-.1.4-.2.7-.2 1.1.1 0 .2 0 .4.2" opacity=".44"/><path fill="#F2C417" d="M186 41.9l.2-2h.4l.2 2s-.3.1-.5.1c-.1 0-.3-.1-.3-.1z"/><path fill="#C6862B" d="M185.3 51.4c.1 0 .3-.2.4-.1-.1.1-.2 0-.2.1 0 0 .3-.1.2 0 0 0-.1 0-.1.1-.1 0-.1 0-.1.1h.2c.1 0 .1.1 0 .1h-.2c-.1 0-.1.1-.2.2-.1 0-.1.1-.2.1s-.1 0-.2-.1-.2-.2-.3-.4c0-.1 0-.1-.1-.2 0-.1-.1-.1-.1-.2v-.2c.1-.1.1 0 .2.1s.2.3.3.4c.1-.1.4.2.4 0"/><g fill="#F9F9F7" opacity=".04"><path d="M186.2 44.1c0 .2 0 .4-.1.5.2 0 .5.1.7-.1-.1-.4-.3-.5-.6-.4m-.5 2.6c0 .6-.4 1-.5 1.5-.1.5-.1 1-.1 1.5-.1.5 0 .9.1 1.4.1.4.1.4.4.4.3 0 .3 0 .4.4.1.5.1 1.1.7 1 .7-.2.1-.9.4-1.3.1-.2.5-.2.6-.4.2-.2.2-.4.2-.7 0-.5-.1-1-.2-1.5 0 0-.1.1-.2.1 0-.1 0-.3.1-.4-.1 0-.2 0-.2.1 0-.3.2-.6 0-.8 0 .1-.1.1-.2.2 0-.1.1-.3.1-.4 0-.2 0-.2-.1-.4V47c0-.2-.1-.2 0-.4-.2.1-.5.2-.7.3-.3-.2-.6-.3-.8-.2m.1-1.9c-.4.1-.5-.2-.7-.4-.1.1-.1.3-.1.5.3 0 .3.1.6.3.1-.1.1-.1.1-.2m1.2-.4c.2.1.6-.1.8-.1 0 .3-.5.3-.7.5 0-.2 0-.3-.1-.4m-1-.8c-.2-.1-.5.1-.7.2-.1-.6.6-.4.7-.2m1.7.4c-.2-.7-.5-.1-.8-.3.1-.1.3-.1.4-.1.1 0 .3-.2.4-.2 0 .1-.1.3 0 .6m-1.8 1.3c.1 0 .2.2.3.2.2.1.3 0 .4-.1.1 0 .1.1.2 0l.1-.2c.1 0 .4.1.2.4-.1.2-.7.1-.8.2-.2.1-.8 0-.4-.5"/><path d="M185.7 51.8c-.2.2-.2.4-.1.7.1.2.3.6-.1.5-.1-.3-.1-.6-.1-.9 0-.1 0-.3.1-.4.1-.1.3-.1.2.1m1.5 1.1c.3-.2.1-.7.2-1 .2 0 .1.5.1.7 0 .3-.2.8-.3.3m-.4-1c-.2-.2-.5-.2-.8-.2.3-.1.7-.2.8.2m-2-8.2c-.3 0-.4.9-.1.9.1-.1.3-.8.1-.9m3.1 0c.2.2.3.5.3.8.2-.2 0-.6-.3-.8m-3.3 1.6c.1-.2.2-.4.2-.6.1.2 0 1.1-.1 1 .2.2.3.5.4.6-.1 0-.5-.7-.5-1m3.3-.5c-.1 0 0 .1 0 .3 0 .2 0 .3-.1.5-.1.4-.2.5-.2.9.2-.3.4-.5.5-.9.1-.4 0-.6-.2-.9"/></g><path fill="#B92226" d="M145.4 39.8v.5l1-.2v-.5z"/><path fill="#8C191D" d="M145.1 40.1l.3.2v-.5l-.3-.2z"/><path fill="#9B1C20" d="M146.4 39.6l-.3-.1-1 .1.3.2z"/><path fill="#298742" d="M145.8 40.2v.5l1.1-.2V40z"/><path fill="#1C6C37" d="M145.6 40.5l.2.2v-.5l-.2-.3z"/><path fill="#1A5A2D" d="M146.9 40l-.3-.2-1 .1.2.3z"/><path fill="#B92226" d="M146.2 40.6v.5l1.1-.2v-.5z"/><path fill="#8C191D" d="M146 40.9l.2.2v-.5l-.2-.3z"/><path fill="#9B1C20" d="M147.3 40.4l-.3-.2-1 .1.2.3z"/><path fill="#8E8C8C" d="M143.9 40.3v.5l.7-.1v-.6z"/><path fill="#6D6E6E" d="M143.8 40.6l.1.2v-.5l-.1-.2z"/><path fill="#444445" d="M144.6 40.1l-.2-.1-.6.1.1.2z"/><path fill="#8E8C8C" d="M144.4 40.8v.6l.7-.2v-.5z"/><path fill="#6D6E6E" d="M144.3 41.1l.1.3v-.6l-.1-.2z"/><path fill="#444445" d="M145.1 40.7l-.2-.2-.6.1.1.2z"/><path fill="#8E8C8C" d="M144.9 41.4v.5l.6-.2v-.5z"/><path fill="#6D6E6E" d="M144.7 41.7l.2.2v-.5l-.2-.2z"/><path fill="#444445" d="M145.5 41.2l-.2-.1-.6.1.2.2z"/><path fill="#8E8C8C" d="M142.7 40.7v.5l.6-.2v-.5z"/><path fill="#6D6E6E" d="M142.5 41l.2.2v-.5l-.2-.3z"/><path fill="#444445" d="M143.3 40.5l-.2-.2-.6.1.2.3z"/><path fill="#8E8C8C" d="M143.2 41.1v.6l.6-.2V41z"/><path fill="#6D6E6E" d="M143 41.4l.2.3v-.6l-.2-.2z"/><path fill="#444445" d="M143.8 41l-.2-.2-.6.1.2.2z"/><path fill="#8E8C8C" d="M143.6 41.7v.5l.6-.1v-.5z"/><path fill="#6D6E6E" d="M143.4 42l.2.2v-.5l-.2-.2z"/><path fill="#444445" d="M144.2 41.6l-.2-.2-.6.1.2.2z"/><path fill="#8E8C8C" d="M141.6 41v.6l.6-.2v-.5z"/><path fill="#6D6E6E" d="M141.4 41.3l.2.3V41l-.2-.2z"/><path fill="#444445" d="M142.2 40.9l-.2-.2-.6.1.2.2z"/><path fill="#8E8C8C" d="M142.1 41.6v.5l.6-.2v-.5z"/><path fill="#6D6E6E" d="M141.9 41.9l.2.2v-.5l-.2-.3z"/><path fill="#444445" d="M142.7 41.4l-.2-.2-.6.1.2.3z"/><path fill="#8E8C8C" d="M142.5 42.1v.6l.6-.2V42z"/><path fill="#6D6E6E" d="M142.3 42.4l.2.3v-.6l-.2-.2z"/><path fill="#444445" d="M143.1 42l-.2-.2-.6.1.2.2z"/><path fill="#8E8C8C" d="M140.4 41.2v.6l.7-.2v-.5z"/><path fill="#6D6E6E" d="M140.3 41.5l.1.3v-.6l-.1-.2z"/><path fill="#444445" d="M141.1 41.1l-.2-.2-.6.1.1.2z"/><path fill="#8E8C8C" d="M141 41.7v.6l.6-.2v-.5z"/><path fill="#6D6E6E" d="M140.8 42l.2.3v-.6l-.2-.2z"/><path fill="#444445" d="M141.6 41.6l-.2-.2-.6.1.2.2z"/><path fill="#8E8C8C" d="M141.4 42.3v.5l.6-.1v-.5z"/><path fill="#6D6E6E" d="M141.2 42.6l.2.2v-.5l-.2-.2z"/><path fill="#444445" d="M142 42.2l-.2-.2-.6.1.2.2z"/><path fill="#8E8C8C" d="M135.7 41.9v.6l.6-.2v-.5z"/><path fill="#6D6E6E" d="M135.5 42.2l.2.3v-.6l-.2-.2z"/><path fill="#444445" d="M136.3 41.8l-.2-.2-.6.1.2.2z"/><path fill="#8E8C8C" d="M136.2 42.4v.6l.6-.2v-.5z"/><path fill="#6D6E6E" d="M136 42.7l.2.3v-.6l-.2-.2z"/><path fill="#444445" d="M136.8 42.3l-.2-.2-.6.1.2.2z"/><path fill="#8E8C8C" d="M136.6 43v.5l.6-.2v-.5z"/><path fill="#6D6E6E" d="M136.4 43.3l.2.2V43l-.2-.2z"/><path fill="#444445" d="M137.2 42.8l-.2-.1-.6.1.2.2z"/><path fill="#8E8C8C" d="M134.6 42.3v.5l.6-.1v-.5z"/><path fill="#6D6E6E" d="M134.4 42.6l.2.2v-.5l-.2-.2z"/><path fill="#444445" d="M135.2 42.2l-.2-.2-.6.1.2.2z"/><path fill="#8E8C8C" d="M135.1 42.8v.6l.6-.2v-.5z"/><path fill="#6D6E6E" d="M134.9 43.1l.2.3v-.6l-.2-.2z"/><path fill="#444445" d="M135.7 42.7l-.2-.2-.6.1.2.2z"/><path fill="#8E8C8C" d="M135.5 43.4v.5l.6-.1v-.5z"/><path fill="#6D6E6E" d="M135.3 43.7l.2.2v-.5l-.2-.2z"/><path fill="#444445" d="M136.1 43.3l-.2-.2-.6.1.2.2z"/><path fill="#8E8C8C" d="M133.4 42.5v.5l.7-.1v-.6z"/><path fill="#6D6E6E" d="M133.3 42.8l.1.2v-.5l-.1-.2z"/><path fill="#444445" d="M134.1 42.3l-.2-.1-.6.1.1.2z"/><path fill="#8E8C8C" d="M134 43v.6l.6-.2v-.5z"/><path fill="#6D6E6E" d="M133.8 43.3l.2.3V43l-.2-.2z"/><path fill="#444445" d="M134.6 42.9l-.2-.2-.6.1.2.2z"/><path fill="#8E8C8C" d="M134.4 43.6v.5l.6-.2v-.5z"/><path fill="#6D6E6E" d="M134.2 43.9l.2.2v-.5l-.2-.2z"/><path fill="#444445" d="M135 43.4l-.2-.1-.6.1.2.2z"/><path fill="#FCE995" d="M178.7 57.4s.3-1 .4-1.4c.1-.4.1-2.5.2-3s.4-1.6.9-1.7c.5-.1.6-.3.8-.2l.4.2s.1-.3 0-.6c-.1-.2 0-.1-.3-.6-.3-.4-.1-.3-.8-.6-1-.5-2.7.1-3.2 1.1s-1.1 3.6-.5 5c.8 1.8 1 1.9 1 1.9s.2-.5.3-.5c.1 0 .5.1.5.1l.3.3z"/><path fill="#FCE995" d="M178.9 56.4l-.3-.2s0-3-.1-3.3c-.1-.2-.1-.8-.1-1.1 0-.3.2-.7.2-.9 0-.2.3-.6.5-.7.2-.2.4-.3.6-.4.1-.1.4-.2.4-.2l.2-.1-1-.2-.6.1-1.1.7s-.5.7-.5.9c0 .2.3.1.3.1s.2.7.2.8c0 .1.1 1.2.1 1.4 0 .2.1 2 .1 2l-.4.2c-.1.2-.2.3-.1.5s.3.7.3.7l.1.5.5-.4.6.1.2-.1-.1-.4z"/><path fill="#6F3927" d="M183.8 53.2l-.9-.7-.3-.2.1.3s-.3.8-.3.9c0 .1-.1.6-.1.6l.3.3.6-.1.4-.2.2-.4v-.5z"/><path fill="#B5A441" d="M182.5 54.2l.6.1s.4-.7.4-.8c0-.1-.2-.4-.2-.4l-.3-.2s-.3.2-.3.3c-.1.1-.1.3-.2.5v.5z"/><path fill="#997E2E" d="M181.1 51.8s.1-.2.3-.3l.1-.1.5.6.4.3h.3l.1.3s-.3.7-.3.9c0 .2-.1.6-.1.6s-.4-.3-.7-.3c-.3-.1-1-.2-1.2-.2h-.4v-.3l.1-.4v-.2l.4.2h.3l.3.2.7.2.1-.1-.7-.5-.4-.1-.3-.1-.2-.1.1-.2v-.1l.1-.2h.1l.3.2.4.2.2.1.2.1h.3l-.6-.4-.4-.3z"/><path fill="#F0E4AF" d="M182.5 52s-.3-.5-.5-.6c-.1-.1-.3-.2-.4-.3-.1-.1-.2-.3-.2-.3v.6l.5.6.4.3h.3l-.1-.3z"/><path fill="#EAC868" d="M179.7 52.2s.5-.2.6-.2h.4l.4-.2.3-.3.1-.1s-.4-.3-.5-.2c-.1 0-.8.3-.8.3l-.4.4-.1.3z"/><path fill="#925D43" d="M177.7 57.5l.4.3.3-.1.3-.3-.4-.4h-.2l-.3.3z"/><path fill="#4A2D2B" d="M178.1 57.2l.3.1.1.1-.1.3-.3.1-.1-.3-.1-.2z"/><path fill="#FCF9D3" d="M176.7 52.8s.3 1.9.3 2.1.3.2.3.2l.3-.1-.1-1v-1.4l.1-.2-.3.4v-.4c0-.1.1-.3.1-.3s.1-.3.1-.4l-.2-.2s-.1 0-.2.1-.2.4-.2.4l-.1.3-.1.5z"/><path fill="#56414F" d="M173.5 56.9l.1-.2v-.4l-.3-.1-.2-.1-.2.1h-.1v.2l.1.2.1.2c.1 0 .2.1.2.1h.3z"/><path fill="#FCE16E" d="M175.5 51.3c-.7.5-2.1 1.9-2.4 2.5-.3.6-.6 1.5-.6 1.7.1.3.3.8.3.8s.3-.1.5-.1c.3 0 .3.5.3.5l-.1.2s.4-.1.7-.3c.3-.2 1.2-1.7 1.5-1.9.2-.2.6-.5.6-.5l.2-.1s0-1.3.3-1.8c.2-.5.4-1.2.5-1.4 0-.1-1.1-.1-1.8.4z"/><path fill="#F5C551" d="M176.5 52.9l-.3.3s-.4.6-.6.8c-.2.2-.6.9-.9 1.2-.3.3-1 1.1-1 1.1"/><path fill="#FCF8C8" d="M173 55.7s.1-.4.2-.7c.1-.4-.1-.3 0-.4.1 0 .3.3.3.3s.3 0 .3-.1.1-.4 0-.5c0-.1 0-.2.1-.4.1-.1.4-.3.4-.3l.1-.3.1-.4v-.2l.4-.5.1-.1.7-.7.3-.1.3-.1v-.4l-1.2.7-.9.8-.7.7-.5.6s-.4.9-.4 1c0 .1-.2.7-.1.7l.3.3.2.1z"/><path fill="#FFD047" d="M175.1 54.5s0-1.7.5-2.2c.5-.5.7-.5.8-.4.1 0 .3.2.3.2s-.2.7-.3.7c-.1.1-.6.8-.6.8l-.7.9z"/><path fill="#685622" d="M181.3 52.8s-.5-.1-.7-.1c-.2-.1-.5.1-.5.1l.7.3.7.2.4.1v-.2l-.6-.4z"/><path fill="#BA3" d="M180.7 52l.3-.1s.1.1.3.1c.1.1.4.3.4.3l.2.2-.8-.3-.4-.2z"/><path fill="none" d="M181.1 51.8l.9.6s-.5-.2-.6-.2c-.1 0-.3-.2-.3-.2l-.1-.1.1-.1z"/><path fill="#73362C" d="M171.5 55.3l.1-.5v-.3h-.3c-.1 0-.4 0-.4.1s.1.4.1.4l.2.2.3.1z"/><path fill="#FDE37D" d="M172.3 52.6s-.6.4-.8.8c-.2.4-.4.7-.5.9l-.2.4.7-.1.4-.3.5-.3.4-.2h.1s1.1-1.1 1.2-1.3l.2-.4.3-.3s-.6.1-.8.3c-.2.1-.7.3-.7.3l-.3.3h-.4l-.1-.1z"/><path fill="#EDB61D" d="M172.5 55.5s-.4-.1-.5-.1h-.4l-.1-.5v-.3l1.4-.8s.1.1-.1.5-.4.9-.4.9l.1.3z"/><path fill="#BF7329" d="M177.6 50.2s-.8-.3-1.4.1c-.6.4-1.7 1.1-1.9 1.3-.2.2-.4.3-.4.3l.1.1.6-.3.3-.1s.7-.5 1-.7c.3-.1.7-.3.9-.4l.4-.2.2-.1h.2z"/><path fill="#FFD94E" d="M178.7 49.5s-1.1-.8-2.7.1-2.9 2.4-2.9 2.4l-.2.3.1.3.5-.4.5-.2.1-.2s1.3-1 1.6-1.2c.3-.2 1-.5 1.2-.5.2-.1.6 0 .6 0l.1.1.9-.6.2-.1z"/><path fill="#8E4531" d="M172.3 52.6s.1-.4.3-.4c.2 0 .4.1.4.1l.1.3-.5.1-.3-.1z"/><path fill="none" d="M172 52.2l.1-.1s0 .1.1.2 0 .3 0 .3l-.2-.2v-.2z"/><path fill="#FDE37D" d="M181.5 50.5s-.5-1.1-1.7-1.7c-1.2-.6-2.9-.9-3.9-.7-1 .2-2.2.4-2.8 1.4-.6 1-1.1 2-1.1 2.2v.5l.3.2.3-.3.3.2 1.9-1.9c.3-.3 1.4-1.2 2.4-1.2.9-.1 1.5.3 1.5.3s.6-.2.9-.2c.3 0 1 .1 1.1.3.1.1.8.9.8.9z"/><path fill="#F9F5BB" d="M172.6 51.9v-.5l.4-.1.3-.3v-.3c0-.1.1-.4.1-.4l.6-.3h.2l.4-.4.3-.3s.4-.1.5-.1c.1 0 .1.2.1.2s.1.1.5-.2c.4-.3.6-.3.6-.3l.8-.1s.2-.1.4-.1.4 0 .6.1c.2.1.3.1.4.2.1.1.4.1.4.1s.6-.1.7 0c.1.1.3 0 .3 0l-.7-.5s-.9-.3-1-.3c-.1 0-.8-.1-.8-.1l-.4-.1s-.7.1-.8.1c-.1 0-1.4.4-1.4.4s-.4 0-.5.1c-.1.2-.9.6-.9.7 0 .1-.4.3-.4.3l-.3.6s-.2 0-.3.3c-.1.2-.2.2-.2.3s-.3.5-.3.5l.4.5z"/><path fill="#CAA82C" d="M179.3 53.8s.4 0 .6-.1c.2-.1.2-.7.2-.7l-.3-.1-.5.2v.7z"/><path fill="#D1BC38" d="M180.5 52l-.1.6-.3.3-.6.1v-.4l.2-.4z"/><path fill="#FFF2C4" d="M178.9 56.4l-.2-.2s-.1-.5-.1-.9V54c0-.4.1-2.5.1-2.8 0-.3.2-.8.5-1 .3-.2 1-.5 1.1-.6.1-.1.6.5.6.5l-.3.5s-.2.4-.4.6c-.2.2-.4.4-.5.6-.1.1-.1.6-.3.9-.1.3-.3 1.4-.3 1.4l-.2 2.1v.2z"/><path fill="#FFF6B1" d="M170.7 54.5s0-.2.1-.3c.1-.1.3-.6.4-.7.2-.1.3-.3.4-.3.1 0-.3 1.1-.3 1.1s-.2.1-.3.1c-.1 0-.2.1-.3.1"/><radialGradient id="ao" cx="-1817.412" cy="111.42" r="20.567" gradientTransform="matrix(.4382 0 0 .5276 961.28 -5.068)" gradientUnits="userSpaceOnUse"><stop offset="0" stop-color="#ca2027"/><stop offset="1" stop-color="#981b1e"/></radialGradient><path fill="url(#ao)" stroke="#981B1E" stroke-width=".25" d="M166.8 53.4c.3.2.4.5.5.8 1 2.1-.3 6.6-2.7 5.7-.3-.1-.4 0-.7 0-.3 0-.5-.2-.7-.4-.6-.5-1.1-1.3-1.3-2.2-.5-2 .1-4.6 2.1-4.6 0 .1 1.6-.1 2.8.7z"/><path fill="none" stroke="#981B1E" stroke-miterlimit="10" stroke-width=".25" d="M163.3 53.2c.4 0 .9.5 1.3.6.5.1.9-.3 1.5-.3"/><path fill="#981B1E" d="M164.6 53.7c0-.5-.1-.8-.2-1.2.1-.1.2-.1.3-.1 0 .2.4 1.5-.1 1.3 0 0 .1 0 0 0"/><path fill="#FFF" d="M164.5 53.8c-.5-.1-.9-.5-1.5-.3-.5.2-.8.7-1 1.2 0 .1-.2.8 0 .9.2.1.4-.4.4-.6.3-.6.7-.7 1.2-.7.3 0 .6.2.9.1.5-.1.3-.4 0-.6" opacity=".1"/><path fill="#FFF" d="M163.8 53.7c-.4-.2-.8-.1-1.1.2-.2.3-.5 1.1 0 .7.3-.3.5-.5 1-.5.2 0 .5.1.5-.2 0-.2-.3-.2-.5-.2m-1.6 4.3c.2.3 1.6 2.6 2.1 1.7-.2-.1-.5-.1-.7-.2-.2-.1-.3-.3-.5-.5-.2-.3-.6-1-.9-1" opacity=".1"/><g stroke-miterlimit="10" stroke-width=".25"><path fill="#659941" stroke="#66682C" d="M164.7 53.7l-.4-.4c-.2-1.4-1.3-2.4-2.6-1.9.4.6.6 1.2 1.3 1.6l.9.3c.3.1.4.5.8.4"/><path fill="none" stroke="#6EBD44" d="M161.7 51.4c.5 0 1.2.5 1.6.9.2.2.5.4.7.7.2.2.3.6.5.7"/></g><radialGradient id="ap" cx="-1802.527" cy="110.426" r="20.566" gradientTransform="matrix(.4382 0 0 .5276 961.28 -5.068)" gradientUnits="userSpaceOnUse"><stop offset="0" stop-color="#ca2027"/><stop offset="1" stop-color="#981b1e"/></radialGradient><path fill="url(#ap)" stroke="#981B1E" stroke-width=".25" d="M173.3 52.9c.3.2.4.5.5.8 1 2.1-.3 6.6-2.7 5.7-.3-.1-.4 0-.7 0-.3 0-.5-.2-.7-.4-.6-.5-1.1-1.3-1.3-2.2-.5-2 .1-4.6 2.1-4.6 0 .1 1.6-.2 2.8.7z"/><path fill="none" stroke="#981B1E" stroke-miterlimit="10" stroke-width=".25" d="M169.9 52.7c.4 0 .9.5 1.3.6.5.1.9-.3 1.5-.3"/><path fill="#981B1E" d="M171.2 53.2c0-.5-.1-.8-.2-1.2.1-.1.2-.1.3-.1 0 .2.3 1.4-.1 1.3"/><path fill="#FFF" d="M171 53.3c-.5-.1-.9-.5-1.5-.3-.5.2-.8.7-1 1.2 0 .1-.2.8 0 .9.2.1.4-.4.4-.6.3-.6.7-.7 1.2-.7.3 0 .6.2.9.1.5-.1.3-.4 0-.6" opacity=".1"/><path fill="#FFF" d="M170.3 53.1c-.4-.2-.8-.1-1.1.2-.2.3-.5 1.1 0 .7.3-.3.5-.5 1-.5.2 0 .5.1.5-.2 0-.2-.3-.2-.5-.2m-1.6 4.4c.2.3 1.6 2.6 2.1 1.7-.2-.1-.5-.1-.7-.2-.2-.1-.3-.3-.5-.5-.2-.3-.5-1-.9-1" opacity=".1"/><g stroke-miterlimit="10" stroke-width=".25"><path fill="#659941" stroke="#66682C" d="M171.2 53.2l-.4-.4c-.2-1.4-1.3-2.4-2.6-1.9.4.6.6 1.2 1.3 1.6l.9.3c.3 0 .5.5.8.4"/><path fill="none" stroke="#6EBD44" d="M168.3 50.8c.5 0 1.2.5 1.6.9.2.2.5.4.7.7.2.2.3.6.5.7"/></g><path fill="none" stroke="#FCCD03" stroke-width="3" d="M113.3 0H220v75.2H113.3z"/></g></switch></svg>
