<svg xmlns="http://www.w3.org/2000/svg" version="1.0" viewBox="0 0 220 129"><switch><g><linearGradient id="a" x1="129.354" x2="17.544" y1="23.684" y2="271.05" gradientUnits="userSpaceOnUse"><stop offset="0" stop-color="#71c8f0"/><stop offset="1" stop-color="#32689a"/></linearGradient><path fill="url(#a)" d="M1.3 1.2H220V129H1.3z"/><linearGradient id="b" x1="-35.348" x2="67.183" y1="23.77" y2="56.796" gradientUnits="userSpaceOnUse"><stop offset="0" stop-color="#51b748"/><stop offset="1" stop-color="#a7cf57"/></linearGradient><path fill="url(#b)" stroke="#659941" stroke-width=".25" d="M107 127.5c0-4.4.4-11.5-5.3-15.6-3.4-2.4-6.9-2.4-8.5-5.9-1.4-3 .8-6.1 2.6-8.5 2.4-3.3 4.9-6.9 7.6-10.1 3-3.5 12.1-6.7 12.7-10.9.8-6.1-6.5-3.4-11.3-2.1-5.6 1.5-11.2 1.8-17.1 2.7-7.4 1-10.3 1.6-15.1 6-3.7 3.5-5.6 6.1-11.8 7.6-11 2.7-22.6-1-29.9-7.1-8.3-7.1-13.6-12.6-11-22 2.3-8.5 4-15.4 9.8-22.9 2.8-3.6 3.1-7.6 8.1-10 4.1-1.9 11.7-2.5 16.6-2.1 10.7.9 8.4-5.1 19.5-7.6 8-1.1 13.2 0 17 .4 5.2.7 7.1-.7 9.2-.2 9 2 9.2 2.6 15 5.1 3.6 1.6 4.7 3.3 9.2 2.5 4.6-.8 3.3-3.6 9-2.6 7.7 1.3 7.2 7.2 9.1 11.4 2.5 5.3 5.9 15.1 13.5 18.2 12 5 8.3-13.5 6.2-17.5-4.1-7.7-11.7-13.5-5.9-21.5 3-4.1 5.6-5.2 10.7-7.8 3.5-1.8 6.9-6.3 11.2-6.9H.5V128l106.5-.5z"/><path fill="#CA9731" d="M106.5 127.5c0-4.4.4-11.5-5.3-15.6-3.4-2.4-6.9-2.4-8.5-5.9-1.4-3 .8-6.1 2.6-8.5 2.4-3.3 4.9-6.9 7.6-10.1 3-3.5 12.1-6.7 12.7-10.9 0 0-.8 1.3-2.5 2.6s-10.7 6.6-12.2 8.8-10.5 13.6-10 15.8c.5 2.2 2.7 5.9 7.2 7.5 4.5 1.5 6 5.1 6.2 6.6.2 1.5.5 9.7.5 9.7h1.7zm55.4-91.2c2.1 4 5.8 22.5-6.2 17.5-7.6-3.1-11.1-13-13.5-18.2 0 0 7.5 13.4 9.5 14.7 2 1.3 6.2 4.4 9.2 3.1 3-1.3 2.7-7.5 2.2-8.8-.4-1.3-1.2-8.3-1.2-8.3z" opacity=".4"/><path fill="#F4F5F5" d="M43.2 40.8c1.1 0 1.7-.9 2.9-.8-.7.2.3.7.9.4.5-.2.7-.6 1.4-.5-.8.5.3.9.8.7.7-.2 1.2-.8 2-.4-.8 0-.2.6.3.6-.4 0-1.1.1-1.1-.4-.3-.1-2.9 1.4-2.7-.1-.6 0-2 1.4-2.2.1-.7 0-1.4.9-2.1.5m14.1 5.3c.8 0 1.2-.6 2.1-.6-.5.2.2.5.7.3.4-.2.5-.4 1-.4-.6.3.2.7.6.5.5-.2.8-.6 1.5-.3-.6 0-.1.5.2.4-.3 0-.8.1-.8-.3-.2-.1-2.1 1-2-.1-.4 0-1.5 1-1.6 0-.5 0-1 .6-1.6.4m29.1-8.8c.7 0 1.1-.5 1.8-.5-.5.1.2.4.6.3.3-.1.4-.4.9-.3-.5.3.2.6.5.4.4-.2.7-.5 1.3-.3-.5 0-.1.4.2.4-.3 0-.7.1-.7-.3-.2 0-1.8 1-1.7 0-.4 0-1.3.9-1.4 0-.5 0-.9.5-1.4.3M48.5 67.9c.7 0 1.1-.5 1.8-.5-.5.1.2.4.6.3.3-.1.4-.4.9-.3-.5.3.2.6.5.4.4-.2.7-.5 1.3-.3-.5 0-.1.4.2.4-.3 0-.7.1-.7-.3-.2-.1-1.9.9-1.7-.1-.4 0-1.3.9-1.4 0-.5 0-.9.5-1.4.3m32.1-10.7c.8 0 1.2-.6 2.1-.6-.5.2.2.5.7.3.4-.2.5-.4 1-.4-.6.3.2.7.6.5.5-.2.8-.6 1.5-.3-.6 0-.1.5.2.4-.3 0-.8.1-.8-.3-.2-.1-2.1 1-2-.1-.4 0-1.5 1-1.6 0-.5 0-1 .6-1.6.4m47.2 46.2c.7 0 1.1-.5 1.8-.5-.5.1.2.4.6.3.3-.1.4-.4.9-.3-.5.3.2.6.5.4.4-.2.7-.5 1.3-.3-.5 0-.1.4.2.4-.3 0-.7.1-.7-.3-.2-.1-1.9.9-1.7-.1-.4 0-1.3.9-1.4 0-.5 0-.9.5-1.4.3m19.4-7.9c.8 0 1.2-.6 2.1-.6-.5.2.2.5.7.3.4-.2.5-.4 1-.4-.6.3.2.7.6.5.5-.2.8-.6 1.5-.3-.6 0-.1.4.2.4-.3 0-.8.1-.8-.3-.2-.1-2.1 1-2-.1-.4 0-1.5 1-1.6 0-.5 0-1 .6-1.6.4m-16.7-37.5c.6 0 .9-.5 1.6-.5-.4.1.2.4.5.2.3-.1.4-.3.7-.3-.4.3.1.5.5.4.4-.1.6-.5 1.1-.2-.4 0-.1.3.2.3-.2 0-.6.1-.6-.2-.2-.1-1.6.8-1.5-.1-.3 0-1.1.8-1.2 0-.4 0-.7.5-1.2.3M49.2 27.6c-2.4.1-5.7.4-8 1.2-2.6.9-4.2 2.4-6.4 3.4.2-4.3 11.2-4.6 14.7-4.6m57.6-4.4c3-.1 6.4 2 9 3.3 1.1.5 7.6 3.3 8.3 1.2-1.7-.2-3.1.3-4.8-.2-1.4-.5-3.1-.9-4.4-1.5-1.3-.6-2.3-.8-3.6-1.4-1.4-.6-2.6-1.6-4.5-1.5m20.6 3.4c1.2-1.3 3.5-1.9 5.3-1.6 2.1.3 3 1.4 4.6 2.2-.5-3.1-8.4-3.2-10.1-.9M38.9 87.9c2.5.6 4.8 1.8 7.6 2 2.5.2 4.9.3 7.4.3 5.1 0 9.8-1.3 14.1-3.6-3.8 3.5-10.6 4.2-15.8 4.2-2.4 0-4.9.2-7-.5-2.5-.8-4.5-.6-6.1-2.7m-9.2-5.7c-2-1.6-3.3-3.8-5-5.7-1.7-2-3-4.5-4-6.9-.8-2-.2-4.6 0-6.6s1.9-4.4 1.4-6.3c-1.4 2.4-2.3 5.5-2.6 8.2-.3 2.8.9 5 1.7 7.5.6 1.9 2 3.7 3.4 5.4 1.3 1.6 3.4 2.7 4.8 4.3m63.5-6.1c2.1-.3 4.1-.4 6.1-1.1 1.9-.6 3.7-1.3 5.7-1.5 2.1-.2 10.9-2.8 11.1.6-3.1-2.5-7.3-.1-10.9 0-1.9.1-3.3.9-5.2 1.3-1.8.4-3.7.6-5.7.6m22.9-1.3c-.4.6.1 1.6 0 2.3 0 .8-.5 1.8-.8 2.5-.9 1.7-2.7 2.6-4.1 3.8-.1-1 1.3-1.2 2-1.7.9-.7.9-1.3 1.3-2.2.4-.7 1-1.3 1.2-2.2.2-1 .1-1.8.5-2.8M101 92c-.1 1.1-1.9 2.9-2.7 3.8-.5.7-1.2 1.1-1.7 1.7-.4.6-.5 1.3-.8 1.9-.6 1.1-1.3 2.1-1.8 3.2-.6 1.2-.5 2-.5 3.4-.7-1.8-1.3-2.2-.2-4 .8-1.2 1.7-2.4 2.2-3.8.9-2.1 3.3-4.9 5.7-6" opacity=".52"/><path fill="#98CB67" stroke="#51B748" stroke-width=".25" d="M211.1 78.9h-6.8c-.8.3-1.2 1-2.2 1.3-1.4 6.2 5.9 4.8 9.5 5.7 2.6.6 4.5 3 7.3 2.4.4-.1.7-.3 1-.4v-8.5c-3.5.4-6.8.7-8.8-.5z"/><path fill="#CA9731" d="M213.5 85.4c-1.5-.9-5.5-.9-8.3-1.1s-2.9-4.1-2.9-4.1c-1.4 6.2 5.9 4.8 9.5 5.7 2.6.6 4.5 3 7.3 2.4.3-.1.5-.2.8-.3v-.8c-1.4 1.2-4.9-1-6.4-1.8z" opacity=".4"/><path fill="#F4F5F5" d="M207.6 78c-1.7.7-3.8.4-5.4 1.4-1.3.8-1.7 3.6-.6 4.6 2.7 2.5 7.5.2 9.8 2.7-2-.3-3.9-.5-6-.6-1.6-.1-4.2-1.1-5-2.8-.6-1.4.5-4.9 1.7-5.4 2-.8 4.6.6 6.5 0M147 47.4c.9 4.4 13.8 12.4 16.8 5.9-.5 4.6-7 3.1-9.7 1.6-3.3-1.9-6.3-3.9-7.1-7.5" opacity=".52"/><path fill="#FCF8CD" d="M.3 10.5c.2 1.8 1.4 2.2 2.3 3.6.9 1.4 1.5 2.6 2.1 4.3 1.2 3.3 1.5 4.7 4.8 6.2 5 2.2 11.6 1 12.1 7.6.2 2.4-1 4.7-.3 7 .8 2.8 1.6 4.3.6 7.3-1.7 4.9-4.6 9.4-5.2 14.7-.5 4.3-1.4 10.7 1.6 14.5 1.4 1.8 2.9 3.1 4.1 5.2.7 1.2 1.4 1.4 1.3 2.9-.1 2.1-.8 1.2-2 2.4-2 1.8-3.3 3.6-4.7 5.8-1.1 1.8-1.3 5.2-3 6.5-1.9 1.5-4.9.3-7.2.5-2 .2-4.5.7-6.9.7M1.7.3v9.3c5.2-.2 4.3 4.2 6.6 6.6 3.3 3.3 7.4 3.5 12 3.4 3.8-.1 7.5-.9 10.8-.7 3.7.2 7.7 1.6 11.1 1.9C56.4 22 68.8 10 74.2.2" opacity=".13"/><path fill="#FCF8CD" d="M2 31.6c.6 2.8 5.9 5.1 7.6 8.3 2.1 3.9 2.7 6.8 2.9 11.1.2 4.5.1 6.7-4.1 10-2.2 1.7-6.5 3.1-6.9 6.2-.6-.1-.7.2-.9.5" opacity=".13"/><path fill="#98CB66" d="M87.8 1.7c2.6 4.9 3.1 4.7 8.5 3.8 3.3-.5 9.6-1 12.5.6 3.1 1.7 4.1 5.5 9 6.1 4.8.6 9.6-2.9 14.5-.9 3.7 1.5 4.6 6.3 7.4 8.8 3.5 3.1 5.5 2.9 7.1 7.5.9 2.7.9 8.4 3 10.5 3.5 3.5 5.8.2 6-2.9.4-5.6-7.2-11.2-6.2-17.3.2-1 2.1-3.4 2.5-4.4.8-1.7.9-3.2 1.9-4.9 1.4-2.5 2.9-6.6 5.1-8.3"/><path fill="#659941" d="M66.4 127.5c-.9-1.9-1.6-9.5.9-11.1 2.1-1.4 6.2.5 8.6-.3 2-.7 3.8-2.6 5.1-4-9-9 1.9-18.4 6.9-25.2.9-1.2 4.6-1.9 2.4-3.8-1.4-1.2-4.7.8-5.9 1.1-5 1.6-8.2 3.8-9.5 8-.8 2.8.8 2.3-2 4.7-1.7 1.5-5 2.6-7.1 3.5-4.7 2.1-8 3.8-13.9 3.6-4.7-.2-8.8-2.8-13.5-2.2-3.8.5-7.2 3.7-10 5.8-4.2 3.2-5.6 3.3-11.5 3.3-3.6 0-14.6-1.4-16-3.9l.5 20.8" opacity=".13"/><path fill="#659941" d="M.7 125.7c2.5 1.7 6.1 1.2 9 .6 4.3-.9 8.2-1.6 12.5-2.1 6.6-.7 10.5-3.2 15.1-7.1 1.6-1.3 3.1-2 4.3-3.5.8-1.1 1-1.8 2.5-2.5 2.5-1.1 6-1.2 8.7-1-1.9 1.8-6.7-.2-9.2 1.8-2.3 1.9-3 5.2-5.8 6.9-3.2 1.9-6.9 4.2-10.5 5.2-7.9 2-15.3 2.4-23.6 2.4M132 1.5c1.5.6 2.3 3 3.9 4 1.8 1.1 3.5 2.1 5.3 3.2 1.2.8 2.6 1.5 3.6 2.7.8 1 .7 2.8 2.4 2.6 2-6.2-11.3-7.1-12.9-12.7" opacity=".13"/><path fill="#6FBD44" d="M.5 109.9c.3-1.3 2.2-1.8 3.3-.5 0-1 1.1-1.4 2.2-1.2.1.3.4.6.5.9 1.1-.9 2.9-1.5 3.1.4 3.3-.2-.3 5 2.2 6 .1 1.7-1.5 1.6-2.9 2.2 1.5.2.8 1.9.9 3-.6 0-1.3.4-1.9.3 0 .3-.1.6-.1.8-1.3-.2-2.1.3-3.2.3-1.5-.1-2.6-.8-4-1.1m14.1-5.6c-.1-.7 0-1.5 0-2.2 1.8.3 5.6-5.6 7.7-1.8.4-.3 1.3-.2 1.7-.4.4 1.6 5.2 4.6 2.7 5.9.7.5.9 1 1 1.7-.2.1-.4 0-.7.1 1.5 3-5.9 2.2-7.8 1.9 0 0-1.4-.8-1.5-.8-.3-.2-.9.1-1.3 0-.5-.2 0-.8-.5-1-1.8-.9-3.1-1.2-1.8-3.3m-1.7-10.9c-.8.2-1.1.7-1 1.5.9.1.7.3 1.3.7.8.6.6.4 1.4.7.9.4 1.9.9 2.9 0 .6 1.1 1.7 1.1 2.4.1 1.9 1.8 2.8-.4 3.9-1.2.2-.2 4.1-1.3.8-1.5.9-.6 1-1.3 0-1.8.5-1.1.5-2.4-1.2-2.2 1.3-1.4-.4-2.5-2-2.4-.5-1.2-3.1-2.5-3.3-.4-.6-1.3-2.9-.3-3.3 1.2-1.8-.6-2 1.8-2.2 2.9-1.9-.2-2.5 2-.5 1.8M1.5 22.4c0 1.9 5.3 1.7 6.8 1.3 1.8-.5 6.6-1.9 2.5-3 .9-1 2.6-1.7 3-3.1.3-1.2-.2-3-2-2.7.1-1.2-1.1-1.6-2.3-1.1 0-.3-.1-.7 0-1-.9 0-1.3-.1-2 .5.4-3.4-5-.9-6.2-.5"/><path fill="#98C93C" d="M97.8 4.1c-.4-1-2.2-1-2.3.2-2.3-.4-2.7.9-3.1 2.4l1.2.3c0 .3.1.7.1 1 .4 0 .9.1 1.2.1-.1.3.2.9.1 1.2.3 0 .8.1 1.2.1-.6 3.1 6.5 2 7.6.4 2.6.4 4.9-4 .7-3.6.5-1.7-.1-2.6-1.8-3.3-2.3-1-2.5-.1-4.5.9M79.6 1c-1 0-1.9.5-2.3 1.3.2.2.3.1.5.3-1 .3-1.6 1-1.4 1.9.2.1.4 0 .7.1-.5 1-.2 1.7 1 1.8.4 1.3 3.8 2.6 5.1 1.8 1.3.8 5.7.1 5.5-1.6 1.1-.2 1.2-.7.4-1.3.4-.7.5-1 .6-1.6 1-.5.5-1.5-.1-2.2"/><path fill="none" stroke="#696" stroke-miterlimit="10" stroke-width="2" d="M.3.3H220v127.8H.3z"/></g></switch></svg>
