<svg xmlns="http://www.w3.org/2000/svg" version="1.0" viewBox="0 129 112 90"><switch><g><path fill="#EDEDEF" stroke="#878788" stroke-width=".25" d="M29.2 206.7l-7.1-9.2 71.4-17.9 14.1 20.4-67.8 15.4-10.6-8.7z"/><path fill="#B1B2B1" d="M6.2 129l83.2 11.4-6.4 35.9-83-12.6L6.2 129z"/><path fill="#AEB19E" d="M85.7 178.3l-2.7-2 6.4-35.9 2.8 3-4.6 26.7-1.9 2.7v5.5z"/><path fill="none" stroke="#D45FA3" d="M9.2 129.4l-1.3 5.8-3.7 19.3-1.5 9.6 79.4 12.1V174l6.6-33.6-79.5-11z"/><path fill="#CE4798" d="M7.9 135.2L87.6 146l1.1-5.6-79.5-11-1.3 5.8zM5 150.3l-2.3 13.8 79.4 12.1 2.6-15.4L5 150.3z"/><path fill="#418AC9" d="M83.7 165.1L4.2 154.5l.8-4.2 79.7 10.5-1 4.3z"/><path fill="#F5F6F7" stroke="#F5F6F7" d="M7.9 135.2L87.6 146l-2.9 14.8L5 150.3l2.9-15.1z"/><path fill="#9D9D9D" stroke="#9D9D9D" d="M4.6 149.3c-.3 2.3-1.9 13.3-3.2 13.5-.5-2.5 1.4-10.6 2.9-12.7M8 132.8c-.2-1.4-.6-2.2-2.2-2-.3 1.2.6.8 1.1 1.3"/><path fill="#F5F6F7" stroke="#F5F6F7" d="M5.8 145.6c-2.9-4.3.2-8.9.2-13 .5-.3 1-.3 1.5 0 1.8 3.6-1.8 7.7-1.4 11.5" opacity=".4"/><path fill="#7E8080" stroke="#7E8080" d="M88.7 140.4l1.4.8-7.1 35.1-.9-.1m3.6-3.4v5.5l1.2-2-1.2-3.5z"/><path fill="#7E8080" stroke="#7E8080" d="M89.7 143l2.5.4-.4 2.6-2.1-3z"/><path fill="#231F20" stroke="#231F20" stroke-miterlimit="10" d="M18.8 153.8c-2.8 2.2-5.3 3.3-7.5 3.3-1.3 0-2.3-.4-3-1.1s-1.1-1.8-1.1-3.1c0-3.2 1.4-6.1 4.1-8.9 2.7-2.8 5.5-4.1 8.4-4.1.9 0 1.5.2 2.1.5s.8.7.8 1.2c0 .4-.2.9-.5 1.4s-.6.8-.9.8c-.2 0-.4-.2-.5-.5-.2-.5-.4-.8-.7-1-.2-.2-.6-.3-1.1-.3-1.3 0-2.8.6-4.4 1.9s-2.9 2.7-3.9 4.3c-.9 1.6-1.4 3.2-1.4 4.7 0 1.8.8 2.6 2.4 2.6.7 0 1.6-.2 2.6-.6 1-.4 2-.9 3.1-1.7 1.1-.8 1.8-1.4 2-2 .2-.6.4-1.3.6-2.3.1-.5.5-.8 1.2-.8.8 0 1.1.2 1.1.7 0 .2-.1.6-.3 1.1-.4.9-.6 1.7-.8 2.4-.2.7-.3 1.5-.5 2.5-.1.9-.2 1.6-.2 2 0 .4.1.9.2 1.6v.4c0 .3-.1.5-.3.8-.2.2-.4.4-.7.4-.3 0-.6-.1-1-.4s-.5-.5-.5-.8c0-.2.2-1.3.5-3.2 0-1 .1-1.5.2-1.8zm14.4-1.6c-1 1.6-1.9 2.9-3 3.8s-1.9 1.3-2.8 1.3c-.5 0-1-.3-1.5-.9-.5-.6-.8-1.5-.8-2.7 0-1 .2-2.4.7-4.4.4-1.6.6-2.7.6-3.4.2-.5.6-.7 1-.7.3 0 .6.1.8.3.2.2.3.5.3.7 0 .5-.2 1.3-.6 2.2-.7 1.9-1 3.5-1 4.9 0 1.2.3 1.8.9 1.8.7 0 1.7-.6 2.8-1.9 1.1-1.2 2.1-3 2.9-5.2.3-.9.6-1.5.8-1.7.2-.3.5-.4.8-.4.5 0 .8.3.8 1 0 .1-.1.4-.2.8-.5 1.6-.7 3.2-.7 4.7 0 1.8.3 2.9.9 3.4.3.3.5.5.5.7 0 .2-.2.4-.5.6-.3.2-.6.3-.8.3-.5 0-1-.4-1.3-1.2s-.5-1.9-.5-3.5v-.4c-.1.1-.1 0-.1-.1zm14.6-4c-.7 0-2.2 2.1-4.5 6.2-.8 1.4-1.2 2.1-1.4 2.3s-.4.2-.7.3c-.3.1-.6.1-.9.1-.5 0-.8-1-.8-2.9 0-1.1.2-3.1.7-6 .2-1.2.3-2 .3-2.5s.2-.7.7-.7c.8 0 1.3.6 1.3 1.8 0 .6-.1 1.7-.4 3.3-.3 1.9-.5 3-.5 3.4.5-.5 1.2-1.4 2.1-3 1.3-2.1 2.2-3.4 2.8-4 .6-.6 1.2-.8 1.9-.8.5 0 .9.3 1.2 1s.5 2.2.5 4.7c0 .6.1 1.1.2 1.4.1.3.2.5.2.5.4 0 1.1-1.2 2.3-3.6.6-1.3 1.2-2.2 1.8-2.9.6-.7 1.3-1 2-1 .6 0 1.1.3 1.3.9.3.6.5 1.6.6 2.8.1 1.2.3 2.4.5 3.4s.7 1.7 1.3 2c.4.2.6.4.6.7 0 .3-.2.5-.5.8-.4.3-.7.4-1 .4-.6 0-1.1-.4-1.6-1.1-.5-.7-.8-2.3-1.1-4.8-.1-1-.2-1.7-.3-2.1-.1-.4-.3-.6-.5-.6-.3 0-.7.3-1.1.9s-1.1 1.8-2.1 3.7c-.8 1.4-1.3 2.4-1.7 2.9s-.8.7-1.1.7c-.3 0-.6-.1-.9-.4-.3-.3-.4-.6-.5-.9-.1-.4-.1-1.3-.2-2.7 0-2.5-.2-3.8-.5-4.2z"/><path fill="#B49A6A" stroke="#9D8052" stroke-width=".25" d="M60 169.5c-.1-1-.7-.9-.7 0-.9-2-.7 3.5.4 1.9.4.6.8.4.9-.3 0-.2-.5-1.5-.6-1.8"/><path fill="#B49A6A" stroke="#9D8052" stroke-width=".25" d="M63.1 173.4s-.4 0-1.6-.6c-1-.5-2.2-3.9-1.7-5.7.5-1.8.7-3.1 1.2-3.6s4.5-1.2 5-1.1c.6.1 5.6-1.1 6.4.3.8 1.4 1.5 3.4 1.1 4.5-.3 1.1-1.5 3.4-1.9 4-1 1.3-4 2.3-4.6 2.3h-2c-.2-.1-1.9-.1-1.9-.1z"/><path d="M65.3 165.7c.4.5.9.7 1 1.5.1.5-.1 1.3.1 1.8.5 1 2.6 1 1.8 2.7-.4.9-.8.3-1.3-.4-.4-.6-.9-1.2-1.1-1.7-.5-1-1-2.5-.5-3.6" opacity=".12"/><g fill="#B49A6A" stroke="#9D8052" stroke-width=".25"><path d="M67.5 170.1c.4.1.4.1.7.5.2.3.3.7 0 1-.6.8-1.4.4-1.7-.3-.6-1.2-1.1-2.4-1.7-3.6-.2-.5-.7-1.5-.1-1.9.9-.6 1 .7 1.1 1.2.1 1 .4 3.2 1.7 3.1m.8 1c-.2.1-.4.1-.6.1m.5.5h-.4"/><path d="M67.4 172.1h-.1c0-.1-.1-.2-.1-.3"/></g><linearGradient id="a" x1="27.265" x2="30.71" y1="12.639" y2="12.639" gradientTransform="matrix(1.4365 0 0 -1.4365 29.626 185.312)" gradientUnits="userSpaceOnUse"><stop offset="0" stop-color="#f48242"/><stop offset=".132" stop-color="#f48547"/><stop offset=".278" stop-color="#f58e54"/><stop offset=".43" stop-color="#f69c6a"/><stop offset=".588" stop-color="#f8b189"/><stop offset=".748" stop-color="#facbb1"/><stop offset=".909" stop-color="#fdebe1"/><stop offset="1" stop-color="#fff"/></linearGradient><path fill="url(#a)" d="M70.5 171.5s-1.9-1.9-1.6-3.4c.3-1.5.1-2.8 1.3-3.8s1.7-1.9 2.3-1.6c.7.3 1 2 1.3 3.1.2.8.2 1.3-1.6 4.5-.8 1.5-1.2 1.3-1.2 1.3l-.5-.1z" opacity=".42"/><path fill="#916427" stroke="#7C4F20" stroke-width=".25" d="M69.6 150s1 .9 1.3 1.4.8 1.1 1.5 1.6c.7.4 2.2 1.1 2.3 1.9.1.8 0 1.8-.5 2.7-.4.9-.8 1.2-1 1.1-.2-.1-.3-.5-.5-1.2s-.6-2.1-.8-2.4-.7-1.6-.9-1.9c-.2-.3-.7-1-.8-1.1 0-.1-.3-.1-.3-.1l-.3-2z"/><path fill="#F48242" stroke="#D76227" stroke-width=".25" d="M66.7 163.4s.8-.1 1.3-.2c.3-.1.5-.4.8-.8.8-1.2.5-3.1 1.2-3.1s1.6 0 2 .2c.4.2.6.1.6.7s-.5 1.7-1.2 2.1l-.7.4s-1.7 1-3.6.6c-.7 0-.4.1-.4.1z"/><path fill="#B49A6A" stroke="#9D8052" stroke-width=".25" d="M70.6 159.8c-.2 0-.9.7-1.2 1.5-.3.9-.6 1.7-1.9 2-1.3.4-4.4 1.2-5.8-.1-.7-.7-1.2-2-.5-3.1-2.1-1.6-.8-.5-.9-1.2-.2-2.2.4-6.5.9-7.2.7-.9 1.7-2.1 2.8-2.2 1.1-.1 5.1.2 5.6.4.5.1 1.6 3.5 1.7 4s-.3 3.3-.2 3.5c.1.2 2.2 1.4 2.4 2.3 0 .1.1-.1 0 .7-.1.9-.6 2-1 2.2-.5.3-1.2-.1-1.5.1s.9-1.9.7-2.5c-.2-.5-1.1-.4-1.1-.4z"/><linearGradient id="b" x1="26.163" x2="27.318" y1="-30.543" y2="-30.543" gradientTransform="scale(1.4365 -1.4365) rotate(3.887 1084.744 239.51)" gradientUnits="userSpaceOnUse"><stop offset="0" stop-color="#ec1475"/><stop offset=".074" stop-color="#ee2c6d"/><stop offset=".208" stop-color="#f2535f"/><stop offset=".348" stop-color="#f57254"/><stop offset=".492" stop-color="#f78b4c"/><stop offset=".644" stop-color="#f99c46"/><stop offset=".806" stop-color="#faa742"/><stop offset="1" stop-color="#faaa41"/></linearGradient><path fill="url(#b)" stroke="#E97624" stroke-width=".25" d="M67.4 145.1s.7.2 1.1.4c.5.2.5.4.6.7 0 .2.1 1-.4.6s-.8-.7-1.1-1.2c-.3-.4-.2-.5-.2-.5z"/><path fill="#F48242" stroke="#D76227" stroke-width=".25" d="M69.5 158.8s-.3-.7.4-.8c.4 0 .8.2.8.4s-.3.5-.7.5c-.3.1-.5-.1-.5-.1z"/><path fill="none" stroke="#6C451B" stroke-width=".25" d="M70.7 158c-.7-.4-1.4-.3-1.6.6"/><path fill="#9D8052" stroke="#9D8052" stroke-width=".25" d="M64.9 151.4s.1-.6-.1-.7c-.2-.1-.8-.1-.8-.7-.1-.6-.1-1.6 0-1.7s0-.5 0-.5l-.2.7s-.1 1.1 0 1.3c0 .2 0 .7.3.8.2.1.4.1.5.3.1.2.3.7.3.7v-.2z"/><linearGradient id="c" x1="57.807" x2="58.618" y1="124.308" y2="124.308" gradientTransform="scale(1.437 -1.437) rotate(9.7 1388.95 -67.947)" gradientUnits="userSpaceOnUse"><stop offset="0" stop-color="#ec1475"/><stop offset=".074" stop-color="#ee2c6d"/><stop offset=".208" stop-color="#f2535f"/><stop offset=".348" stop-color="#f57254"/><stop offset=".492" stop-color="#f78b4c"/><stop offset=".644" stop-color="#f99c46"/><stop offset=".806" stop-color="#faa742"/><stop offset="1" stop-color="#faaa41"/></linearGradient><path fill="url(#c)" stroke="#E97624" stroke-width=".25" d="M64.9 146.4s-.4.3-.7.6-.3.5-.2.7c0 .2.1 1 .4.5.3-.5.4-.9.5-1.4.1-.3 0-.4 0-.4z"/><path fill="#B49A6A" stroke="#9D8052" stroke-width=".25" d="M68.9 150.1s-.4-.6-.1-.7c.2-.1 1-.4 1-.9-.1-.6-.4-1.6-.5-1.6-.1 0-.1-.5-.1-.5l.6.7s.4 1 .5 1.2c0 .2.1.6-.1.8-.3.2-.6.2-.7.4-.1.2-.2.7-.2.7l-.4-.1z"/><linearGradient id="d" x1="25.04" x2="28.009" y1="24.603" y2="24.603" gradientTransform="matrix(1.4365 0 0 -1.4365 29.626 185.312)" gradientUnits="userSpaceOnUse"><stop offset="0" stop-color="#ec1475"/><stop offset=".074" stop-color="#ee2c6d"/><stop offset=".208" stop-color="#f2535f"/><stop offset=".348" stop-color="#f57254"/><stop offset=".492" stop-color="#f78b4c"/><stop offset=".644" stop-color="#f99c46"/><stop offset=".806" stop-color="#faa742"/><stop offset="1" stop-color="#faaa41"/></linearGradient><path fill="url(#d)" stroke="#E97624" stroke-width=".25" d="M65.6 148.8s1.2-.2 1.5 0c.4.1.4-.6.7-.5.3.2.7.5.7.8s-.2.6 0 .7c.1.1 1.2.2 1.3.8.1.6.2.8-.4.7-.6-.2-.9-.4-1.1-.2-.2.2.3.6-.2.5-.5-.2-.8-.5-.8-.5s-.5.5-.6.3c-.2-.2-.2-.4-.2-.4s-.8.2-.8 0-.1-.6.3-.6.9-.2.8-.5c-.1-.3-1-.6-1-.6l-.2-.5z"/><ellipse cx="66.2" cy="156.6" fill="#916427" rx="1.9" ry="1.8"/><circle cx="66.6" cy="156.9" r=".4" fill="#030305"/><linearGradient id="e" x1="24.488" x2="26.717" y1="19.972" y2="19.972" gradientTransform="matrix(1.4365 0 0 -1.4365 29.626 185.312)" gradientUnits="userSpaceOnUse"><stop offset="0" stop-color="#ec1475"/><stop offset=".074" stop-color="#ee2c6d"/><stop offset=".208" stop-color="#f2535f"/><stop offset=".348" stop-color="#f57254"/><stop offset=".492" stop-color="#f78b4c"/><stop offset=".644" stop-color="#f99c46"/><stop offset=".806" stop-color="#faa742"/><stop offset="1" stop-color="#faaa41"/></linearGradient><ellipse cx="66.5" cy="156.6" fill="url(#e)" rx="1.6" ry="1.4"/><ellipse cx="66.8" cy="156.9" fill="#3A2916" rx=".8" ry=".9"/><circle cx="66.8" cy="157.1" r=".4" fill="#F4EF93"/><circle cx="67" cy="157.2" r=".2" fill="#050506"/><circle cx="70.3" cy="156.8" r=".4" fill="#030305"/><linearGradient id="f" x1="25.474" x2="25.651" y1="17.603" y2="17.603" gradientTransform="matrix(1.4365 0 0 -1.4365 29.626 185.312)" gradientUnits="userSpaceOnUse"><stop offset="0" stop-color="#ec1475"/><stop offset=".074" stop-color="#ee2c6d"/><stop offset=".208" stop-color="#f2535f"/><stop offset=".348" stop-color="#f57254"/><stop offset=".492" stop-color="#f78b4c"/><stop offset=".644" stop-color="#f99c46"/><stop offset=".806" stop-color="#faa742"/><stop offset="1" stop-color="#faaa41"/></linearGradient><ellipse cx="66.4" cy="160" fill="url(#f)" rx=".1" ry=".2"/><linearGradient id="g" x1="24.952" x2="25.129" y1="17.394" y2="17.394" gradientTransform="matrix(1.4365 0 0 -1.4365 29.626 185.312)" gradientUnits="userSpaceOnUse"><stop offset="0" stop-color="#ec1475"/><stop offset=".074" stop-color="#ee2c6d"/><stop offset=".208" stop-color="#f2535f"/><stop offset=".348" stop-color="#f57254"/><stop offset=".492" stop-color="#f78b4c"/><stop offset=".644" stop-color="#f99c46"/><stop offset=".806" stop-color="#faa742"/><stop offset="1" stop-color="#faaa41"/></linearGradient><ellipse cx="65.6" cy="160.3" fill="url(#g)" rx=".1" ry=".2"/><linearGradient id="h" x1="25.474" x2="25.651" y1="17.116" y2="17.116" gradientTransform="matrix(1.4365 0 0 -1.4365 29.626 185.312)" gradientUnits="userSpaceOnUse"><stop offset="0" stop-color="#ec1475"/><stop offset=".074" stop-color="#ee2c6d"/><stop offset=".208" stop-color="#f2535f"/><stop offset=".348" stop-color="#f57254"/><stop offset=".492" stop-color="#f78b4c"/><stop offset=".644" stop-color="#f99c46"/><stop offset=".806" stop-color="#faa742"/><stop offset="1" stop-color="#faaa41"/></linearGradient><ellipse cx="66.4" cy="160.7" fill="url(#h)" rx=".1" ry=".2"/><linearGradient id="i" x1="25.946" x2="26.123" y1="17.534" y2="17.534" gradientTransform="matrix(1.4365 0 0 -1.4365 29.626 185.312)" gradientUnits="userSpaceOnUse"><stop offset="0" stop-color="#ec1475"/><stop offset=".074" stop-color="#ee2c6d"/><stop offset=".208" stop-color="#f2535f"/><stop offset=".348" stop-color="#f57254"/><stop offset=".492" stop-color="#f78b4c"/><stop offset=".644" stop-color="#f99c46"/><stop offset=".806" stop-color="#faa742"/><stop offset="1" stop-color="#faaa41"/></linearGradient><ellipse cx="67.1" cy="160.1" fill="url(#i)" rx=".1" ry=".2"/><path d="M60.4 160.2c.5 0 .6-1 .7-1.4.1-.5.3-1 .3-1.5.1-1.1.7-2.2 1.3-3.1.1-.2.5-.5.5-.7.1-.2 0-.7-.2-.7-.3-.1-.5.3-.7.4-.2.3-.2.5-.4.8-.1.3-.4.4-.5.7-.1.3-.1.5-.2.8-.2.5-.3 1.1-.6 1.6-.2.5-.3 1.1-.3 1.6 0 .2 0 .6-.1.8-.1.3-.2.5-.2.8.3 0 .4-.1.4-.1" opacity=".12"/><path fill="#916427" stroke="#7C4F20" stroke-width=".25" d="M63.2 150.7s-1.1 1.1-1.4 1.7c-.3.6-.8 1.3-1.6 1.9-.8.6-2.6 1.6-2.6 2.4s.4 1.8 1.2 2.7c.8.9 1.4 1.1 1.6 1 .2-.1.2-.6.4-1.3.1-.8.3-2.2.5-2.6s.5-1.8.7-2.2.7-1.1.7-1.2c.1-.1.5-.1.5-.1v-2.3z"/><path fill="#BF4D9B" stroke="#3B55A4" d="M76 165.7c-2.9.4-5.5-1.5-5.7-4.3-.2-2.8 1.9-5.4 4.9-5.9 2.9-.4 5.5 1.5 5.7 4.3.2 2.8-2 5.4-4.9 5.9z" opacity=".71"/><path fill="#FFF" stroke="#FFF" d="M78.6 157.4c-.4.1-.9-.4-1.1-.8-.2-.3-.2-.4-.5-.6-.2-.1-.4-.4-.6-.5-.2.3.1.6-.3.8-.1.1-.3-.1-.3.1-.1.3.2.2.3.4.2.5-.4.3-.2.8.1.4.4.2.4.7.2 0 .7-.1.9 0 .4.2.2.6.2 1 0 .2.1.3 0 .6-.1.1-.4.1-.5.2-.2.3 0 .9-.5.6-.1.2.1.6 0 .7-.2.2-.4-.2-.5.3 0 .4.2.3.3.7 0 .3-.1.5-.1.9.1 0 .2 0 .3-.1 0 .2-.2.5-.1.8.1.4.3 0 .5.1.3 0 .2.4.4.5.2.1.5-.1.7-.2v.2c.1-.1.2-.3.3-.4.2-.3.1-.2.4-.1.2 0 .2.1.5-.1.2-.2.2-.3.4-.5.2-.1.4-.1.5-.4.1-.3 0-.4 0-.6 0-.2.3-.3.3-.6 0-.2-.1-.4-.1-.6.4-.1.5-.7.5-1.1 0-.3-.1-.5-.1-.7 0-.3.1-.5 0-.7-.4.1-.4 0-.5-.5-.1-.4-.2-.6-.5-.8-.2-.2-.4-.7-.7-.7-.5-.1-.3.5-.4.8" opacity=".17"/><path fill="#FFF" stroke="#FFF" d="M78.8 161.8c-.3-.1-.5-.4-.5-.8s.3-.7.7-.6c.3.1.5.4.5.8-.1.4-.4.7-.7.6z" opacity=".09"/><path fill="#070808" stroke="#FFC72A" d="M70.4 161.6c.1-1.4 1.6-2.8 2.2-3.8 1.6-2.6 3.8-2.1 5.8-.7 1 .8 2 1.6 2.4 3.2.3-.6-.3-1.7-.5-2.2-.4-.8-.9-1.2-1.6-1.7-1-.7-2.2-1.3-3.3-1.1-1.4.2-2.7.6-3.7 1.9-.6.8-1.1 1.5-1.3 2.4-.1.5-.3 1.2-.2 1.7" opacity=".02"/><path fill="#FFF" stroke="#FFF" d="M78.8 161.6c-.2-.1-.4-.3-.4-.6s.3-.5.5-.5c.2.1.4.3.4.6s-.2.5-.5.5z" opacity=".17"/><path fill="#FFF" stroke="#FFF" d="M78.9 161.3c-.1 0-.2-.2-.1-.3 0-.1.1-.2.2-.2s.2.2.1.3c0 .1-.1.2-.2.2z" opacity=".17"/><path fill="#070808" stroke="#FFC72A" d="M70.2 161.7c1.5 3.5 4.2 4.6 6.5 3.9 2.2-.7 3.9-2.1 4.2-5.5-.2 1.6-.7 2.2-1.8 3-.9.6-2.1 1.1-3.2 1.3-2 .5-4.6-.1-5.9-2.4" opacity=".02"/><path fill="none" d="M83.9 149.4c-5.6-8.8-25.8-6-25.5 6"/><ellipse cx="13.6" cy="133" fill="#E69AC3" rx="1.3" ry="1.2"/><ellipse cx="11.2" cy="162" fill="#E69AC3" rx="1.1" ry="1.8"/><ellipse cx="25.7" cy="162.2" fill="#E69AC3" rx="2.6" ry="2.9"/><circle cx="34.6" cy="160.4" r="1" fill="#E69AC3"/><ellipse cx="23.4" cy="134.3" fill="#E69AC3" rx="2.5" ry="2.4"/><path fill="#E5A0AD" d="M28.2 189s67.6-17.6 69-17c1.4.6 10.6 14.2 10.6 14.2s-71.8 18-72 18.2-7.6-15.4-7.6-15.4z"/><path fill="#CC8596" d="M107.7 186.2s1.2.4 1.2 1.2-.6 1.6-.6 1.6l-73.5 18.7s-.2-2.8 1-3.4c1.2-.4 71.9-18.1 71.9-18.1zM28.2 189l-.8 3.6 7.4 15.1.8-3.1-7.4-15.6z"/><path fill="#D764A5" d="M108.3 189l-.6 3.4L34.8 210l-7.7-15.2.3-2.2 8.2 14.8 72.7-18.4z"/><path fill="#E5A0AD" d="M27.4 195.6v2.9s5.5 14 7.3 14.2c1.8.2 69.6-17.6 71.4-18 1.8-.4 1.6-2.2 1.6-2.2l-72.9 17.6-7.4-14.5z"/><g fill="#E7E8EC" stroke="#878788" stroke-width=".25"><path d="M104.8 191.9c.1.5.1 1.2.1 1.8s0 1.2.2 1.7c.2.6.2 1.4.1 2.2 0 .3-.1.7-.1 1 0 .4.1.4.3.3.4-.2.8-.6 1.3-.8.4-.2.8-.4 1.3-.5.5-.1.9-.3 1.3-.3s.7-.1 1.1-.1c.3 0 .6.1.9.1h.5c.2.1.1.3 0 .6.8-.6-.9-1.7-1.2-2-.7-.8-1.3-1.3-2.1-1.8-.3-.2-.6-.6-1-.8-.4-.2-.7-.6-1-.7s-.6-.3-.9-.5c-.1 0-.6-.7-.8-.2"/><path d="M111.9 198h-.4c.1-.9-2.3-.7-2.9-.5-.5.2-1.3.5-1.7.8-.3.3-1.1 1.5-1.6 1.1-.8-.5 2.5-1.8 3-2 1.3-.4 2.2-.4 3.6-.2"/></g><path fill="#878788" stroke="#878788" stroke-width=".25" d="M95.7 202.6c1.9-.6 3.8-1.2 5.7-1.9 1.4-.5 5-3.3 3.4-5 .4-.2.6-.5.6-.9.9 2.2 2.1-.9 2.3-2.1.1-.9-.3-1.5 0-2.2s1.3-1 1.4-1.8c-.7-.4-.8.7-1.1 1.1-.3.5-.6.9-.7 1.5-.2 1.1 0 3.2-1.1 3.7-.3-.4-.3-1-.7-1.4-.5.5.1 1.7-.9 1.8.2 1.9-2.2 3.8-3.8 4.6-.9.5-1.9.9-2.9 1.3-.8.3-2.6.3-2.9 1.2.1.1.3.1.5.1" opacity=".17"/><path fill="#E7E8EC" stroke="#878788" stroke-width=".25" d="M22.9 206.2c0 .6 0 1.7.3 2.2.7.8 2.5.4 3.3.3 1.5-.3 3.1-.6 4.6-1-.6-.2-1.1-.8-1.6-1.2-.6-.4-1.1-1-1.7-1.5-.5-.5-1.2-.8-1.8-1.2-.8-.4-1.9-1.4-2.7-.3-.4.7-.4 1.8-.4 2.7z"/><path fill="#878788" stroke="#878788" stroke-width=".25" d="M46.6 214.8c-.6-.2-.9-.6-1.5-.6s-1.3.3-1.3 1c0 1.2 2.5.6 2.9-.2-.1-.1-.2-.2-.4-.2" opacity=".17"/><path fill="#E7E8EC" stroke="#878788" stroke-width=".25" d="M46.3 214.3c-.8.1-2.3-.5-2.6.8-.2 1 1.7.9 2.3.8 1-.1 1.9-.4 2.8-.9.8-.4 2.2-1.4.8-2.2-.8-.4-1.9 0-2.7.2l-3 .6c-2 .5-4.2 1.3-6 2.4-1.7 1-3.4 2.1-5.2 2.8-.4-.6 4.6-2.9 5.3-3.3 1.7-.9 3.7-1.8 5.6-2.2 1.9-.4 3.6-1.1 5.6-.9 1 .1 2.1.9 1.3 1.9-.7.8-1.7 1.1-2.7 1.4-.8.2-4 1.1-4.4 0-.4-.7.6-1.6 1.3-1.8.5-.1 2.1 0 2.1.7-.2.1-.3.1-.4-.1"/><path fill="#878788" stroke="#878788" stroke-width=".25" d="M46.5 214.7c.1.1.2.1.3.1.4-1-2.6-.8-3.2-.6-1.3.3-2.6 1-3.8 1.3.2-.7 3-1.4 3.8-1.6 1.3-.3 2.8-.6 4-.8.4-.1 1.6-.2 2 .1.9.7.1 1.4-.6 1.8-1.2.7-2.8 1.1-4.2 1 .9-.2 1.8-.1 2.1-1.2m-16.2-7c-1.1.1-2.4-.7-3.5-.9-.4-.1-1.4-.3-1.6.3-.1.4.8 1.1.9 1.6-.9.3-1.2-.5-1.2-1.2 0-1 .3-1.1 1.2-1.2 1.5-.1 3 .5 4.3 1.2 0 .1-.1.2-.2.2" opacity=".17"/><path fill="#E7E8EC" stroke="#878788" stroke-width=".25" d="M25.6 207c.6.9 1.1 2 1.7 3 .6 1 1 2 1.8 2.9.9 1 1.7 2.3 2.1 3.6.2.6.3 1.2.5 1.8.3.7.4.6 1.1.3 1.1-.5 1.9-1.4 3-1.9s2.1-1 3.2-1.4c1.2-.4 2.2-.9 3.5-1.2 1-.2 2-.5 3-.7l2.7-.3c.4-.1.9-.2 1.3-.1.7.1.4.5.6 1 1.8-1.4-4-2.5-4.8-2.8-2.6-1.1-4.6-1.6-7.3-2.1-1.2-.2-2.2-.8-3.4-.9-1.1-.1-2.4-.7-3.5-.7-.9-.1-2-.3-2.9-.4-.5-.1-2.5-1-2.5-.1"/><path fill="#878788" stroke="#878788" stroke-width=".25" d="M44 216.9c-.9-1.2-3.4-.4-4.2-1.6 1.2-.4 2.6-1.1 4.1-1.1-.3.5-1 1.1-.9 1.8.8.3 1.8.1 2.6.1-.3.4-.9.6-1.4.9m61.7-17.4c.6-.2.8-.6 1.2-1 .4-.4 1-.5 1.5-.7.5-.1 1-.4 1.5-.4.8 0 .7.5 1.4.7.8-1.1-2.3-.8-2.7-.7-1.3.2-2.5.8-3 2.1 0 .1.1.1.1 0" opacity=".17"/></g></switch></svg>
