<svg xmlns="http://www.w3.org/2000/svg" version="1.0" viewBox="0 0 19.76 35.73"><path fill="#d0e7c4" stroke="#669866" stroke-width=".25" d="M5.68 1.28L2.93 3.96l.96 1.92.13 1.15L.89 8.49.7 10.85 0 12.12l.7.96 1.92 2.49.65.52h2.35l-.56 2.8 1.12 1.01 1.06 1.96-1.51 4.6-.06 2.86.62 1.69-.11 1.57 3.14 2.53 1.18.62 2.3-1.52 1.74-.62 3.25-1.79h1.96l-2.25-6.33-2.52-1.74-1.07-2.69 1.23-2.81.06-.95 2.63-.9.73-3.87-1.29-2.12-.84-.23-1.01-1.4s.84-.39-.84-.89-2.69 1.63-2.69 1.63l.67-2.58V5.05L10.61 2.3 7.14 0 5.68 1.28z"/></svg>
