<svg xmlns="http://www.w3.org/2000/svg" id="Capa_1" x="0" y="0" version="1.0" xml:space="preserve" viewBox="0 0 92 88"><style>.st0{fill:#721d1f;stroke:#0a0909;stroke-width:.2552}.st8{opacity:.12;fill:#eee742}.st16{opacity:.38;fill:#d88072}.st18{fill:none;stroke:#000;stroke-width:.7656}.st19,.st24{fill:none;stroke:#4d131f;stroke-width:.1276}.st24{stroke:#ede2e0;stroke-width:6.380100e-02}</style><switch><g><path d="M3.7 75.2L3 79.1l2.2.7s1.1 1.6 1.9 1.9c.8.3 2 1.1 2 1.1l1.8 1.3s1.3 1.7 2.4 1.1c1.1-.6 2.2.9 2.2.9l3.6.6c.6.1 4.4.6 4.4.6s3.2 1.4 4.7.4c1.5-1 2.7-.8 3.3-.8.6.1 3.9-.7 3.9-.7s1.2.8 2.4.2c1.3-.5 2.5-.4 3.1-.8.6-.4 4.3-.9 5.4-1.5 1.1-.6 1.5-.7 2.3-1.8.9-1 1.3-1.2 1.9-1.8.6-.6 2.4-2 2.4-2l.7-1.5s.2.5 1.2-.3c1.1-.8 2.8-2.4 2.8-2.4l-.6-3.8-1.8-1-2.8-1.4s1.6 4.1 1.5 5c-.1.9-2.7 1.1-3.4 2.1-.7 1-3.4 1.7-3.4 1.7s-1.9 1.4-2.9 1.3c-1-.1-6.4.9-8 1.4-1.7.5-6.8 1.6-7.8 1.5-1-.1-6.7-.4-8.3-.6-1.6-.2-4.3-.2-5.9-.6-1.6-.4-3.5-2.1-3.5-2.1S9 77.5 8 77.2c-1-.3-3.6-1.4-3.6-1.4l-.7-.6zm22.9-8.6c7.1.9 13.7 2.2 19.8 1.9 6.1-.3 7.7-1.9 13.6-3.3 6-1.4 21.8-9.6 24.8-13.3 3.1-3.7 5.8-8 5.5-9.8-.3-1.8.7-4.1.3-5-.4-.9-1.1-1.9-1.1-1.9s1.5-1.8 1.4-2.9c-.1-1.1-2.1-1.7-2.1-1.7s.3-2-.2-3.3c-.5-1.4-1.2-4.3-2-4.8s-2.1-2.2-2.1-2.2-1-6.9-2.5-8.6c-1.5-1.7-3.3-2.3-4.9-2.9-1.6-.6-3.8-1.2-3.8-1.2s-1-4.3-3-4.5c-2-.2-9.3-2-10.7-2.1-1.4-.1-6.1.1-6.1.1l-9 .2s-3.9-.1-5.1.4c-1.1.3-4.5-.9-5.4.6-.9 1.5-3.5 1-4.1.9-.6-.1-1.5 1.8-2.6 1.7-1-.1-4.5.5-4.8 1.1-.2.6-2.2 2-3 2.1-.8.1-3.2 2.3-4.3 3.3-1.1 1-2.5 1.7-2.4 2.4.2.7-1.3 1.2-1.3 1.2s-1.9 1.8-2.2 2.7c-.3.9-2.2 3.1-2.2 3.1s-1.5 4.3-1.7 5.3c-.3 1.1-.1 5.1-.4 6.1-.3 1.1-1 6.1-1.2 6.9-.3.9.5 4.5.5 4.5l1.1 4.7s2.7 6.2 2.8 7.1c.1.9 1.6 3.9 3 4.3 1.4.4 4 1.7 4 1.7s2.5 2 3.5 2.5 3.8 1 4.8 1.6c1.1.7 3.1 1.1 3.1 1.1z" class="st0"/><path fill="#0a0909" d="M58.2 23.3s5.1-.4 7.7 1.4c2.5 1.8 3.8 8.1 4.9 9.3 1.1 1.2 3.4 5.2 4.5 5.9 1.2.8 2.4 3.8 1.6 4.1-.8.4-5.4 5.2-6.8 5.3-1.4.1-5 1.3-6.6 1.1-1.6-.2-.6-.3-3.1-1.8-2.6-1.6-2.5-2.7-2.6-3.8-.1-1.1-.4-10.4.3-11 .6-.6.6-9.2.6-9.2l-.5-1.3z" opacity=".19"/><linearGradient id="SVGID_1_" x1="-995.022" x2="-953.725" y1="-347.79" y2="-347.79" gradientTransform="matrix(-1.2896 -.098 -.0757 .9972 -1251.39 287.924)" gradientUnits="userSpaceOnUse"><stop offset="0" stop-color="#e5ac74"/><stop offset="1" stop-color="#e7b6a7"/></linearGradient><path fill="url(#SVGID_1_)" stroke="#551415" stroke-width=".51" d="M38.1 64.6s2 .6 2.6.5c.6-.2-.1-1.8.5-1.9.6-.2 2.3-.2 2.3-.2l1.3-1.6s1 .5 1.8 0c.9-.6 2.1-1.8 2.1-1.8s-.7-1.2.1-1.8c.9-.6 2 0 2.5-.9.5-.8.5-2.2.5-2.2l1.8-2-.2-3.1.9-1.9s2.9-.6 3-1.7c.1-1.1.1-4.8.1-5.7.1-.9.3-5.7.3-5.7s1.3-3.8.8-6.1.3-5-.5-5.1c-.8-.1-2.2-4-2.6-4.9-.4-.9-1.2-3.4-2-3.5-.8-.1-2.4-1.5-3.2-1.6-.8-.1-2.1-2-2.7-2.2-.6-.3-2-.2-2-.2l-3-.7-2.8-.5s-2-.9-2.8-.5c-.8.4-3.2-1-3.8-1-.6-.1-2.3.9-2.3.9s-2.2-.4-2.6-.7c-.4-.3-1.1.6-1.1.6s-2.6-.5-3.1.2c-.4.6-4.9.9-4.9.9s-2.1.7-2.8 1.7c-.7 1-2.8 2.4-3.4 3-.6.6-2.1.7-2.6 2s-1.9 4.2-1.9 4.2-2.1 3.6-2.5 4.6c-.5 1.1-1 3.6-.7 4.6.4.9.2 3.5.1 4.4-.1.9-.6 3.9-.7 4.6 0 .7.7 2.5.8 3.4.1.9-.1 4.4.1 5.1.4.3.5 3.2 1.5 3.3 1 .1 1.3 2.5 1.6 3.2.4.7.3 2.2.9 2.3l.6.1s.4.6 1 1.3c.5.7 1.2 1.4 1.7 1.6 1 .5 2.6.9 2.6.9s.7 2.1 1.5 2.1c.8.1 2.6.3 2.6.3s.7 1.2 1.9 1.5c1.2.3 3.5-.6 3.5-.6s1 .5 2 .6c1 .1 2.3-.4 2.3-.4l2.4.4 2.2.2 2.8.5 1.5-.5z"/><path d="M11.1 61.2l-6.4 1.2s-2.2-.7-2.7.2c-.5.8-1.3 2.1-1.3 2.1l-.7.7 1.3 2.3s1.8 1.1 2.4 1.3c.6.3 4.2.8 4.2.8s2.2.2 3 .7c.8.5 2 .9 3.2 1.2 1.2.3 3 .5 3.6.6.6.1 2.5-.2 3.6.8 1.2 1 4.7.2 5.3.3.6.1 2.1 1.5 3.4 1.2 1.2-.3 2.5-.4 2.5-.4s1.8.2 2.4.2c.6.1 1 .3 2.1-.2 1.1-.6 2.8.1 4.1-.5 1.3-.5 1.6.2 2.9-.4 1.3-.5 3.9-4.5 3.9-4.5s-4 .3-5.4.2c-1.4-.1-7.5-.3-11.3-1.1-3.8-.8-10.4-3.6-12.2-3.8-1.8-.2-4-.8-4.8-1.3-1-.6-3.1-1.6-3.1-1.6z" class="st0"/><linearGradient id="SVGID_2_" x1="-986.388" x2="-955.83" y1="-317.401" y2="-317.401" gradientTransform="matrix(-1.2896 -.098 -.0757 .9972 -1251.39 287.924)" gradientUnits="userSpaceOnUse"><stop offset="0" stop-color="#e5ac74"/><stop offset="1" stop-color="#e7b6a7"/></linearGradient><path fill="url(#SVGID_2_)" stroke="#551415" stroke-width=".51" d="M5.5 62.6s-.1.9-.1 1.8c-.1.9 1.1 1.9 1.1 1.9s1.6 1 2.6 1.1c1 .1 1.2.6 2 .6.8.1 2.6 1.1 3.2 1.2.6.1 1.4.4 2.8.3 1.4-.1 3 1.6 4.2 1.1 1.3-.5 2.4 0 3.9.1 1.4.1 2.8.3 3.4.3.6.1 1.6-.3 2.9-.2 1.2.1 2.8.3 2.8.3s1.8.4 2.8.3c1-.1 1.3-1.4 1.3-1.4l2.2.2.9-.8 3 .3s-7.1-.9-9.1-1.1c-2-.2-9.8-2.7-10.8-2.8-1-.1-9-2.6-9.8-3.1l-1-.5c-1.2-.5-2.7-1-2.7-1l-3.9.7-1.7.7z"/><path fill="#151010" stroke="#000" stroke-width=".255" d="M17.9 65.3c1.4 1 2.5 1 3.4 1.5 1.2-3.3 1.8.2 2.7.8.9-.2 2.1-1.5 3.1.3 1.1-.8 2.3-1.4 3.2.3 2.2-2.8 4.2-1.7 5.1-.2 1-.5 1.9-.8 1.8.6-.2 2.6-2.8-2.3-6-1.4-2.9-4.5-6.6-1.3-7.6-2.1-1.3 3-2.3 1.1-3.2-1.1-1-.5-2.1 2.2-2.8-.8-1.6-1.1-3.7-.1-3.6-1-.2 3.1.3 1.3.9 1.4.6 2.2 3 2.7 3 1.7z" opacity=".56"/><path d="M3.7 75.2s-.1-1.6-1.3-1.7c-1.2-.1-2.6-1.1-2.3-2.6.3-1.5 1.5-1.6 1.8-2.3.2-.6 1.9 1.5 1.9 1.5s3 1.2 2.9 1.8c0 .7.7 1.6.7 1.6s2.5-.2 3.2.5c.8.7 2.3 2 2.3 2s2 1.3 2.8.9c.8-.4 2.1-.2 3.5.1 1.4.4 2.2.9 2.8.5.6-.4 2 .2 3.5-.3s2.6.7 3.6.3c1-.3 2.5-.6 3.3-.8.8-.1 1-.1 2.9-.6s3.7-1.2 3.7-1.2.8.1 2.2.2c1.4.1 3.2.3 3.7-.5s1.9-1.4 2.5-1.3c.6.1 2.2.7 3.1-.1.9-.8 2.4-2.4 2.4-2.4l1.4.4s.3 2.2-.4 2.8c-.6.6-2.3.9-3.3 1.2-1 .3-2.6 1.7-3.4 1.7-.8-.1-2.1.9-2.9 1.3-.8.4-3.3.8-3.9.9-.6.2-3.7.3-4.1.5-.4.2-4.3.7-5.4 1-1 .3-4.3.5-5.1.4-.8-.1-4.8-.7-5.7-.5-.8.1-5.1-.5-5.9-.6-.8-.1-2.1-2-3.5-2.1-1.4-.1-2.8-.9-3.8-1-.9 0-3.2-1.6-3.2-1.6z" class="st0"/><linearGradient id="SVGID_3_" x1="-993.127" x2="-953.168" y1="-312.02" y2="-312.02" gradientTransform="matrix(-1.2896 -.098 -.0757 .9972 -1251.39 287.924)" gradientUnits="userSpaceOnUse"><stop offset="0" stop-color="#e5ac74"/><stop offset="1" stop-color="#e7b6a7"/></linearGradient><path fill="url(#SVGID_3_)" stroke="#551415" stroke-width=".51" d="M52.6 68.2L45.8 70s-.1 1.3-.5 2.2c-.5.8-3.3 1.2-3.3 1.2l-5 .8h-4.5s-1 .3-2.5.4c-1.4.1-3.4-1.2-3.4-1.2s-1.9.7-4.1.3c-2.2-.4-2.5-2.2-2.5-2.2s1.3 1.4-2.3.9c-3.6-.6-5.3-.7-6-1.2-.8-.5-3.2-1.4-3.8-1.2-.6.1-4.2-1-4.2-1s-3-.3-1.8-.4c1.2-.1 2.3 1.5 3.8 1.9 1.4.4 1.9 3 1.9 3l3.2.5s2.7 2.5 3.5 2.8c.8.3 3.1-.8 4.1-.3 1 .5 1.8.8 2.8.9 1 .1 1-.3 2.3-.2 1.2.1 2.1-.5 3.3-.1 1.2.3 1.6.6 2.6.5 1-.1 5-1.1 6.2-1.4 1.2-.3 3.1-1.2 3.7-1.2.6.1 4.6.9 5.3.3.6-.6 2.6-1.7 2.6-1.7l3.7-.3s1.8-2 2.4-2.4c.4-.4-.7-2.7-.7-2.7z"/><linearGradient id="SVGID_4_" x1="-994.104" x2="-960.883" y1="-307.688" y2="-307.688" gradientTransform="matrix(-1.2896 -.098 -.0757 .9972 -1251.39 287.924)" gradientUnits="userSpaceOnUse"><stop offset="0" stop-color="#e5ac74"/><stop offset="1" stop-color="#e7b6a7"/></linearGradient><path fill="url(#SVGID_4_)" stroke="#551415" stroke-width=".51" d="M10.9 77.9s2.5 2.7 3.3 2.7c.8.1 2.8 1.1 2.8 1.1s1.6.8 2.8.9c1.2.1 3.2.7 4.2.8 1 .1 2.2 0 3.7.1 1.4.1 1.9-.5 3.1-.4 1.2.1 3.7.1 4.3-.3.6-.4 2.8.5 4.5-.2 1.7-.7 2.7-1.5 3.6-1.6.8-.1 1.9-1.8 1.9-1.8s1 .1 2.5-.6 2.1-1.6 2.7-1.5c.6.1 1.8 0 2.1-.9.3-.9 1.8-2.3 1.8-2.3l.4-2.8-3.7 4.1s-4.4 2-5 1.9c-.6-.1-4.2 2-5.2 1.9-1-.1-7 2-8.1 1.9-1-.1-6.3-.2-7.7-.1-1.4.1-4.3-.2-5.3-.3-1-.1-3.6-.3-3.6-.3l-5.1-2.3z"/><linearGradient id="SVGID_5_" x1="-1003.284" x2="-998.289" y1="-334.98" y2="-334.98" gradientTransform="matrix(-1.2896 -.098 -.0757 .9972 -1251.39 287.924)" gradientUnits="userSpaceOnUse"><stop offset="0" stop-color="#a67f36"/><stop offset="1" stop-color="#712c23"/></linearGradient><path fill="url(#SVGID_5_)" d="M61.2 54s2.1-1.8 3.7-3.2c1.5-1.4 3-2.1 3-2.1s.1 1.1.1 2c-.1.9-2.1 4.4-2.7 4.6-.6.2-1.8 0-3.1-.1s-1-1.2-1-1.2z" opacity=".53"/><path d="M65.3 22.7c-.2 3 1.3 1.8 3.3 2.3 2 .2 1.7 2.4 3.2 1.4 1.4.3 3.1 2.2 3.7.1.5-1.7-.6-3.3-.5-5.3 0-.6-1.9-8.3-1-3.6 1.2.8 1.6 4.3 2.4 4.2.8.1.3 8 1.1 5.4.7-.7.9 4.8.5 6-.6 3.3-2.3 4.1-3 3-1 2.3-2.6 2.4-2.4 0 0 .2-2.9-2.7-3-4.5-.1-1.5-1.7-6.4-1.8-4.4 0-2.3-2.5-4.9-2.5-4.6z" class="st8"/><path fill="#eee742" d="M67.9 50.7c.1-.9 2.5 2.3 4.3 0 .9-1.5 2.4-3 3.7-2.2 1.4-1.3 2.5-.1 2.9-2 .6-.1 3.8-1.6 3.8-1.6 0 .4 1.9-.8 1.8-2-.1-2 .2-2.5.3-4.6.2-4 .1-5 .1-4.4 0 .4-1.5-2.7-2.2-1.3-.7 2.1-.1-5.4-.2-4 .2-3.7.1-7.6-.2-3.3-.2 3.6-1.6 0-1.7 1.8.1-1-.2.7-.6 4-.2 1.5-.5 5.3-.1 2.9.7-1.3-.1 1.7-.2 2.9.2-3.9 2 1.4 1.3 2.1-.8 3-2.2-4.2-2.7-2.9-.1-4.9-1.2-.6-1.9 1.8-.5-1.1-.9 1-.9 2.1-.2 3.6 1.6 3.2 1.6 3.2 0-.2-1.4 3.8-2.4 2.5-1.2 1.5-2.5 3.6-2.4 2.5.1-1.6-3.2-.5-3.3 1.4-.2 1.8-1 1-1 1.1z" opacity=".14"/><path fill="#eee742" d="M71.7 59c0 .8-2.3.5-3-1.6-.8.3-2.6 3-3.6 2.1-1.1 1.3-2-3.8-2.1-2.4 0-.6.7-1.4.7-1.9-.1 1.2-1.6-.8-2-3.5-.2-2.1-1.3-2.6-2.7-.6-1.1-2.2-2.5.2-3 .1-1-.8-2.5 3.6-2.3 1.5.1-.9-1.8 2.4-1.8 2.9.1-1.1-.5 1-.5 1.3 0-.4-2.5 1.6-2.5.9 0-.8-.1 1.8-.1 1.8 0-.3-2.2 3-2.1 1.8 0 .1-1.7-2.2-1.8 0 0 .1 4.6 1.3 5.2.9.6-.4 2.2 1.5 2.9 2.5.8-.4 3.7-3.9 4.8-1.3 1.2.4 2.2 4.5 2.3 1.8 0-.6 1.1-1.6 2.3-.7 1.2.3 2.7-.4 3.5-1.2.9-2.1 2.2 0 3.5-1.7 1.2.1 2.4-4 2.2-1.1.1-1.8.2-4 .1-1.6z" opacity=".05"/><path fill="#eee742" d="M56.8 9.5c-.2 2.6.4-.4-.9-1.9-1.5 1.1-2.5-2.3-3.9-.1-1.1-1.5-5.7-.3-5.2-1.2.6-2.7 1.9-3.9 1.8-2.9 0 .4.1-5.6 0-2.6 0 .2-1.7 1.4-3.4.3-1.7-1.8-3.7 0-4.3.3-1.2.2-4.6 2.3-5.3-.1-.9 1.5-1.5 1.8-1.5 1-.1.9-3.1-2.1-4.1.9-1 .5-2.7 2.2-2.7 1.8 0-.8-4.7-.2-4.8 1.1-.2 2.5-3 2-3 2.1 0-.2-.3 1.8-.3 1.7.1-1.7 2.4.7 3.7-.5 1.3-.2 2.1-3.8 3.1-.8 1.1 1.9 1.6 0 2.3-.2.6-.1 2.4 4 2.6.7-.1.9 1.7-4.2 2.3-.9.8.3 2.9 1.8 3 1 0-.5 1.5-.5 2.2.2.7 1.8 2.3 2.5 4.2.8 1.9-.3 2.8 1.5 4.2.6 1.3 1.3 3.7-.2 4.3-.7.4-1.3 1.8-.7 3.2 0 1.3 1.7 2.5 3.5 2.7.3.1-.7-.2-2.4-.2-.9z" opacity=".13"/><linearGradient id="SVGID_6_" x1="-999.977" x2="-989.196" y1="-384.489" y2="-384.489" gradientTransform="matrix(-1.2896 -.098 -.0757 .9972 -1251.39 287.924)" gradientUnits="userSpaceOnUse"><stop offset="0" stop-color="#a67f36"/><stop offset="1" stop-color="#712c23"/></linearGradient><path fill="url(#SVGID_6_)" d="M53.6.9s1.8 2.5 2.7 1.7c.9-.8 4.5 0 4.5 0s2.4 0 3.5.1c1 .1 1.8.8 1.8.8l1.3-1.2L58.9.8c-.1 0-6.7.7-5.3.1z" opacity=".53"/><path fill="#36252b" d="M68.5 10.1c-.1 1.1.6.3 1.8.4 1.1 1.7 3.3-3.7 2-2.9-.6-.7-1.9-2.1-3.2-2.2-1.1-2.3-2.3-.8-2.3-2.1.1-1-.1 1.8-1.3 1-1.2.2-1.6-.2-3.7-.1-2.1.3-4.6-2-3.4-.5C59.6 5.4 61.3 7 62 6.2c.4 3.4 2.9 0 4.2 1.1 1.6-2.7 2.7-.1 2.6 1.1 0-.6-.4 2.2-.3 1.7zm20.8 30.2c0 .1 3-3.2.8-3.9-2.1-2-1.4-4-2.2-1.3-.6-.5.1 5 .1 4.4 0 1 1.3-.4 1.3.8z" opacity=".81"/><path fill="none" stroke="#110d0e" stroke-width=".064" d="M51.2 10.1l1.3-2.8 2.7-.4m-32.8-.1l4.3-2.6"/><path fill="#fdfcee" d="M16.7 15.4c-.1 2.3 1.3 3.7 3.8-.1 2.6.8 6.3-.9 9.5-.1 3.1 2.3 6 4.8 7.6.1 2.2-4.7 2.4 2.4 2.7 5.7.4 1.1.8 1.5 1.9 7.8 1.7-2.3 2.6 6 3.7 5.4.6 6.6 1.2 6.9 1.5 3.1-.2 4-1.5-.8-3.5-1.3-2.2 3-4.4-3.5-6.7-.3-2-1.6-4.5 4.6-5.7-3.8-1.6-.3-2.5-5.8-2.5-4.7-.1 2.4-2.8-.5-5.4-6-3 2-5.3-7.5-5.3-6" opacity=".17"/><path d="M45.9 46.8c-.7-6.8-2.6-5.5-4.5-4.6-1.6-4.9-3.5-6.4-4.9-5.5-1.4-.3-5 2.5-7.7-3.7-2.9-3.2-5.7-3.7-5.7-3.1-.1 2.1.6-5.4.4 4.5.2 1.9.5 2.1.4 4.5-.3 4.7 2 4.7 3.7 2.6.3 8.1 2.7 3.2 4.9 1.6 2.2-1.1 4.2 3.1 5.3 2.1 1.1-.6 2.9-3.9 3.7 2 .8 7.2 1.9 4.7 2.1 1.4.1-1.6 3.8 0 3.8.9.2-1.4-1.3-6.1-1.5-2.7z" class="st16"/><path d="M27.8 65c1.2-1.4 2-4.3 2.5-5 .4.7.9-5.3.8-4.7 0-.6-.4-2.9-1.4-2.4-.7-3.6-2.1-1.7-3.5.1-1.4 2.8-2.7 2.4-3.4-1.7-1.1 1.6-1.4-4.9-1.6-4.6-.2 1.3.1-4.6.1-3.8-.3 4.4-.2 3.4.2-3.3.2-3.7.3-5 .4-7.4-.2 2.4-.3 2.2-.2-.2-.4 2.6-.8.2-1.4-3.7-.3-6-1.4-7.9-2.8-7.8-1.4.1-3.2 2.3-4.9 4.7-2.9-2.7-5.2-9.5-5.6-2.9-.4 6.3-.4 2.8-.8 5-.4 2-.5-.6-1 6.7.1-2.5-.5.7-.8 3.8 0-2.4-.1-1.7 0-2 .1-.3.2.8.3 5.8.6-3.2 1-3 1.4-1.3.1 5.8.6 3.6.7 9.2.3 1.8.3 6.3.6 5.5.2 0 .3 1.6.3.5-.1 2 1.8.7 2.2-.9.5-1.5 1.3 3.5-.5 3.4 1.2-3.3 1.3 10.1 1.8 2.5.1-1.4.7 1.3 1.7-.9.5 6.2 2.2-5 2.6 3 .5-2.2 1.1-.2 2-1.9.8-.8 1.4 4.5 2.3 3.2 1.3 5.3 3.4-6 3 .7-.1-.3 4.8 4 5 .4z" class="st16"/><g opacity=".19"><path d="M55.2 15.2s1.9.2 2.3-.7c.4-.8.1-2.3.1-2.3l1.7-.9.8.3s1 .3 2.6.4l1.6.2s.7-1.7.8-2.2c0-.5.4-1.7-.2-1.8-.6-.1-1.9-1.4-2.5-1.8-.6-.4-.9-1-2.2-1.1-1.3-.1-3-1-4.2-.8-1.1.2-1.7.9-1.3 2.3.4 1.4.1 1.2-.4 1.7s-1.2 1.3-1.3 2c0 .7-1 .6-1.7.7-.7.1-.8.6.2 1.3 1.1.6 3.3-1.3 4.1-1.2m2.5 9.7c.5-.1 2.7-1.5 2.7-2.5.1-1 1-2.9 2.3-3.5 1.3-.6 1.4-1.6 1.9-2.1s1.5-1.1 2.2-1m-3.1 12.5s2.2-2.2 2.3-2.9c0-.7 1.9-1.7 2.6-2.4.7-.6 1.8-2.3 1.7-3.5-.1-1.2-.7-2.2-1.3-2.6M60 24.4s5.6.9 5.7 1.6c.1.7-3.5 4-4.3 4-.8-.1-.1 1.7 1 1.8 1.1.1 2.7.3 2.7 1.3-.1 1-.9 3.4-2.2 4.2-1.3.7-2.9-.1-2.9-.1s-1.2 6.2.1 6.8c1.3.6 2 2.1 2.4 2.5.5.4 2.3 2.7 0 2.5-2.3-.2-5.4-1.2-5.4-1.2s-2.5 3.1-1.7 3.7c.8.6 2.2.9 3 1 .8.1 2.3 1.8 2.1 2.3-.2.5-3.3.9-3.3.9l-2.2-.4s-.7 1.3-.1 1.9c.6.6 3.2 1.2 3.2 1.2s.7-1.5 1.2-1.6c.5-.1 3.2-1.3 3.2-1.3s2.3-2.8 3.2-2.8c1-.1 2-.3 2.6-.3" class="st18"/><path d="M62 18.6s.6.6 1.7 1.2 2.7 1.7 2.7 1.7l2.7-5.2s-1 .8-2.6-.2-1.7-1.7-1.7-1.7l-2.8.4s-.3-.6-1.6-.7c-1.3-.1-1.2-3.6-1.2-3.6s.5-.7.1-.9c-.5-.2-.6-.4-1.4-.5-.8-.1-.8-.8-1.7-.9-1-.1-1.8.4-1.8.4m6.4.4s.8-.3 2.1-.1c1.3.1 2-.7 2-.7m2.6 24.4c.8.1 2.5.9 3.1.1.5-.8-.8-6-2.2-6.5-1.4-.5-2.6-.2-2.6-.2s-1 3.6-1.2 4.3c-.3.6 2.9 2.3 2.9 2.3zm2.7-6c.8-.4 2-1.2 1.7-1.9-.3-.7 1.1-2.7 1.9-2.6.8.1 1.5 1.4 1.8 2.3.3.9.6 3-.2 3.5-.8.4-3.2-.8-3.2-.8l-2-.5zm7.2-6.5s2.1.7 2.9.8c.8.1 1.5 1.9 1.5 1.9l-1.9 2.1s-1.2-1.9-2.1-2.7c-.9-.8-.4-2.1-.4-2.1z" class="st18"/><path d="M49.4 6.4s.1-2.3 1.4-2.1c1.3.1 3.1.3 3.1.3l.9 3.4s-1.1 2.2-2.1 1.9c-1-.3-3-1.3-3.1-1.9-.1-.6-.2-1.6-.2-1.6zm4.1-3.3s1.1-1.8 1.6-1.8 2-.2 2.2.6c.3.7.4 1.8.4 1.8l-2.5 1-1.3-.1-.4-1.5zm6.9-1.8c-1-.1-2.9-.3-2.9-.3l.2 2.6s.4 1.1 1.2 1.2c.8.1 2.5-3.4 1.5-3.5zm4.4 5.8s1.8-.5 1.9-2.1c.1-1.6-.3-3.2-1.3-2.9-1 .3-3.4.2-3.4.2s-1 .4-.9 1.5c.1 1.1.9 2 .9 2l2 1.9.8-.6zM74.9 20s1.2-1.6-.3-2.8c-1.5-1.2-2.4-2.7-3.2-2.8-.8-.1-1.7 1.2-1.4 1.8.3.6 2.4 1.1 2.7 1.7.1.5 2.2 2.1 2.2 2.1zm-8.3 29s0-3-1.8-3.1c-1.8-.2-2.4-3-3.5-3.1m6.5-2.6c-.4-1.4.9.4 2.3-1.4 1.4-1.8 2.1-2.4 2.1-2.4" class="st18"/><path d="M68.9 49.4s3 .6 4.9-.8c1.9-1.4 3.7-2.3 3.9-3 .2-.7.6-1.5.6-1.5s-.6-3-1.8-3c-1.1.1-.8-2.2-2-2.5-1.1-.3-2.4-1.3-2.3-2.3.1-1-.2-2.8-.9-3.2m-6.2 25.2s.4-.8 2.1-2.1c1.7-1.2 1.6-3.2 1.6-3.2m-2.9 7.3s1.8-.2 3.5-1.2c1.7-1.1 2.7-1.3 1.8-3.2-.9-1.8-1.8-2.1-1.8-2.1m7.8.2s-.3-3.2-.9-3.2c-.6-.1-4.3.8-4.3.8l-.4 3.1M88.3 33s-.3-3-1.2-3.8c-.9-.8-2.7-1-3.2-1s-2.9-.1-3.3.4c-.4.5-1.7 1.2-1.8.2-.1-1.1-1.6-.7-2.2-.9m9.7 5.6c-.5.5-3.3 1.1-3.9.5-.6-.6-1.9-3.2-1.9-3.2m5.1 9.2s.8.4.9-1.3c.1-1.7-.6-2.9-1.3-2.9m1.1 11.9s1.9-1.7 2-4.4c.2-2.6-.2-2.5-1.4-2.9m4.1 1c0-.7 1.1-2.7.1-4-1.1-1.3-2.5-2-3.3-2.1m-46-29.7s0-.8.8-1.7c.8-1 1.3-1.7 2-1.6.7.1 1.7-.6 3.1.5 1.3 1.1 1.3 1.1 0 2.1-1.2.9-2 2.1-2 2.1m-6.3-1.7s-3.3-1.1-4.2-1.2c-.9-.1-1 .7-1.3 1.4-.3.7-2.5 1.8-4.4 1.6m-7 3.1s1.4-3.2 3.3-3c1.9.2.4-.5 1.9.2" class="st18"/><path d="M29.2 5.1s2.5-2.1 3.4-1.5c.9.6 1.3 1.9 1.3 1.9M39 3.3s1.3-1.4 2.5-1.3m26 6.5s.7.1 2.3 1c1.6.9 2.2 2.3 2.4 3.3.2 1 2.3 1.2 2.3 1.2m-1.2-3.9s.2-3.6-.2-4.6c-.4-1.1-2.7-2.6-3.9-2.7m9.2 13.5s1.2-.1 3.3.3c2.1.5 2.5 2.5 2.5 2.5m-7.1 18.6s1.3-1.4 1.6-3.2c.3-1.8.7-3 .5-4.1m-2.7-16.8s1.9-1.5 3.5-1.3c1.5.1 2.7.6 3.6 1.7m-1.7 36.3s.5-3.6-1-3.7c-1.5-.1-2.4 3.8-2.4 3.8" class="st18"/><path d="M81.7 43.3l.2-3.3-1.3-3.4-3-.7" class="st18"/></g><path d="M55.2 15.2s1.9.2 2.3-.7c.4-.8.1-2.3.1-2.3l1.7-.9.8.3s1 .3 2.6.4l1.6.2s.7-1.7.8-2.2c0-.5.4-1.7-.2-1.8-.6-.1-1.9-1.4-2.5-1.8-.6-.4-.9-1-2.2-1.1-1.3-.1-3-1-4.2-.8-1.1.2-1.7.9-1.3 2.3.4 1.4.1 1.2-.4 1.7s-1.2 1.3-1.3 2c0 .7-1 .6-1.7.7-.7.1-.8.6.2 1.3 1.1.6 3.3-1.3 4.1-1.2m2.5 9.7c.5-.1 2.7-1.5 2.7-2.5.1-1 1-2.9 2.3-3.5 1.3-.6 1.4-1.6 1.9-2.1s1.5-1.1 2.2-1m-3.1 12.5s2.2-2.2 2.3-2.9c0-.7 1.9-1.7 2.6-2.4.7-.6 1.8-2.3 1.7-3.5-.1-1.2-.7-2.2-1.3-2.6M60 24.4s5.6.9 5.7 1.6c.1.7-3.5 4-4.3 4-.8-.1-.1 1.7 1 1.8 1.1.1 2.7.3 2.7 1.3-.1 1-.9 3.4-2.2 4.2-1.3.7-2.9-.1-2.9-.1s-1.2 6.2.1 6.8c1.3.6 2 2.1 2.4 2.5.5.4 2.3 2.7 0 2.5-2.3-.2-5.4-1.2-5.4-1.2s-2.5 3.1-1.7 3.7c.8.6 2.2.9 3 1 .8.1 2.3 1.8 2.1 2.3-.2.5-3.3.9-3.3.9l-2.2-.4s-.7 1.3-.1 1.9c.6.6 3.2 1.2 3.2 1.2s.7-1.5 1.2-1.6c.5-.1 3.2-1.3 3.2-1.3s2.3-2.8 3.2-2.8c1-.1 2-.3 2.6-.3" class="st19"/><path d="M62 18.6s.6.6 1.7 1.2 2.7 1.7 2.7 1.7l2.7-5.2s-1 .8-2.6-.2-1.7-1.7-1.7-1.7l-2.8.4s-.3-.6-1.6-.7c-1.3-.1-1.2-3.6-1.2-3.6s.5-.7.1-.9c-.5-.2-.6-.4-1.4-.5-.8-.1-.8-.8-1.7-.9-1-.1-1.8.4-1.8.4m6.4.4s.8-.3 2.1-.1c1.3.1 2-.7 2-.7m2.6 24.4c.8.1 2.5.9 3.1.1.5-.8-.8-6-2.2-6.5-1.4-.5-2.6-.2-2.6-.2s-1 3.6-1.2 4.3c-.3.6 2.9 2.3 2.9 2.3zm2.7-6c.8-.4 2-1.2 1.7-1.9-.3-.7 1.1-2.7 1.9-2.6.8.1 1.5 1.4 1.8 2.3.3.9.6 3-.2 3.5-.8.4-3.2-.8-3.2-.8l-2-.5zm7.2-6.5s2.1.7 2.9.8c.8.1 1.5 1.9 1.5 1.9l-1.9 2.1s-1.2-1.9-2.1-2.7c-.9-.8-.4-2.1-.4-2.1z" class="st19"/><path d="M49.4 6.4s.1-2.3 1.4-2.1c1.3.1 3.1.3 3.1.3l.9 3.4s-1.1 2.2-2.1 1.9c-1-.3-3-1.3-3.1-1.9-.1-.6-.2-1.6-.2-1.6zm4.1-3.3s1.1-1.8 1.6-1.8 2-.2 2.2.6c.3.7.4 1.8.4 1.8l-2.5 1-1.3-.1-.4-1.5zm6.9-1.8c-1-.1-2.9-.3-2.9-.3l.2 2.6s.4 1.1 1.2 1.2c.8.1 2.5-3.4 1.5-3.5zm4.4 5.8s1.8-.5 1.9-2.1c.1-1.6-.3-3.2-1.3-2.9-1 .3-3.4.2-3.4.2s-1 .4-.9 1.5c.1 1.1.9 2 .9 2l2 1.9.8-.6zM74.9 20s1.2-1.6-.3-2.8c-1.5-1.2-2.4-2.7-3.2-2.8-.8-.1-1.7 1.2-1.4 1.8.3.6 2.4 1.1 2.7 1.7.1.5 2.2 2.1 2.2 2.1zm-8.3 29s0-3-1.8-3.1c-1.8-.2-2.4-3-3.5-3.1m6.5-2.6c-.4-1.4.9.4 2.3-1.4 1.4-1.8 2.1-2.4 2.1-2.4" class="st19"/><path d="M68.9 49.4s3 .6 4.9-.8c1.9-1.4 3.7-2.3 3.9-3 .2-.7.6-1.5.6-1.5s-.6-3-1.8-3c-1.1.1-.8-2.2-2-2.5-1.1-.3-2.4-1.3-2.3-2.3.1-1-.2-2.8-.9-3.2m-6.2 25.2s.4-.8 2.1-2.1c1.7-1.2 1.6-3.2 1.6-3.2m-2.9 7.3s1.8-.2 3.5-1.2c1.7-1.1 2.7-1.3 1.8-3.2-.9-1.8-1.8-2.1-1.8-2.1m7.8.2s-.3-3.2-.9-3.2c-.6-.1-4.3.8-4.3.8l-.4 3.1M88.3 33s-.3-3-1.2-3.8c-.9-.8-2.7-1-3.2-1s-2.9-.1-3.3.4c-.4.5-1.7 1.2-1.8.2-.1-1.1-1.6-.7-2.2-.9m9.7 5.6c-.5.5-3.3 1.1-3.9.5-.6-.6-1.9-3.2-1.9-3.2m5.1 9.2s.8.4.9-1.3c.1-1.7-.6-2.9-1.3-2.9m1.1 11.9s1.9-1.7 2-4.4c.2-2.6-.2-2.5-1.4-2.9m4.1 1c0-.7 1.1-2.7.1-4-1.1-1.3-2.5-2-3.3-2.1m-46-29.7s0-.8.8-1.7c.8-1 1.3-1.7 2-1.6.7.1 1.7-.6 3.1.5 1.3 1.1 1.3 1.1 0 2.1-1.2.9-2 2.1-2 2.1m-6.3-1.7s-3.3-1.1-4.2-1.2c-.9-.1-1 .7-1.3 1.4-.3.7-2.5 1.8-4.4 1.6m-7 3.1s1.4-3.2 3.3-3c1.9.2.4-.5 1.9.2" class="st19"/><path d="M29.2 5.1s2.5-2.1 3.4-1.5c.9.6 1.3 1.9 1.3 1.9M39 3.3s1.3-1.4 2.5-1.3m26 6.5s.7.1 2.3 1c1.6.9 2.2 2.3 2.4 3.3.2 1 2.3 1.2 2.3 1.2m-1.2-3.9s.2-3.6-.2-4.6c-.4-1.1-2.7-2.6-3.9-2.7m9.2 13.5s1.2-.1 3.3.3c2.1.5 2.5 2.5 2.5 2.5m-7.1 18.6s1.3-1.4 1.6-3.2c.3-1.8.7-3 .5-4.1m-2.7-16.8s1.9-1.5 3.5-1.3c1.5.1 2.7.6 3.6 1.7m-1.7 36.3s.5-3.6-1-3.7c-1.5-.1-2.4 3.8-2.4 3.8" class="st19"/><path d="M81.7 43.3l.2-3.3-1.3-3.4-3-.7" class="st19"/><path fill="none" stroke="#cca237" stroke-width=".766" d="M38.2 64.6s2 .6 2.6.5c.6-.2-.1-1.8.5-1.9.6-.2 2.3-.2 2.3-.2l1.3-1.6s1 .5 1.8 0c.9-.6 2.1-1.8 2.1-1.8s-.7-1.2.1-1.8c.9-.6 2 0 2.5-.9.6-.9.6-2.2.6-2.2l1.8-2-.2-3.1.9-1.9s2.9-.6 3-1.7c.1-1.1.1-4.8.1-5.7.1-.9.3-5.7.3-5.7s1.3-3.8.8-6.1c-.5-2.2.3-5-.5-5.1-.8-.1-2.2-4-2.6-4.9-.4-.9-1.2-3.4-2-3.5-.8-.1-2.4-1.5-3.2-1.6-.8-.1-2.1-2-2.7-2.2-.6-.3-2-.2-2-.2l-3-.7-2.8-.5s-2-.9-2.8-.5c-.8.4-3.2-1-3.8-1-.7-.2-2.3.8-2.3.8s-2.2-.4-2.6-.7c-.4-.3-1.1.6-1.1.6s-2.6-.5-3.1.1c-.4.6-4.9.9-4.9.9s-2.1.7-2.8 1.7c-.7 1-2.8 2.4-3.4 3-.6.6-2.1.7-2.6 2s-1.9 4.2-1.9 4.2-2 3.5-2.5 4.6c-.5 1.1-1 3.6-.7 4.6.4.9.2 3.5.1 4.4-.1.9-.6 3.9-.7 4.6 0 .7.7 2.5.8 3.4.1.9-.1 4.4.1 5.1.3.5.3 3.4 1.3 3.5 1 .1 1.3 2.5 1.6 3.2.4.7.3 2.2.9 2.3l.6.1s.4.6 1 1.3c.5.7 1.2 1.4 1.7 1.7 1 .5 2.6.9 2.6.9s.7 2.1 1.5 2.1c.8.1 2.6.3 2.6.3s.7 1.2 1.9 1.5c1.2.3 3.5-.5 3.5-.5s1 .5 2 .6c1 .1 2.3-.4 2.3-.4l2.4.5 2.2.2 2.8.5 1.6-.8z" opacity=".33"/><path fill="#36252b" d="M88.6 34.5s-3.3-.5-3.7-3.5c-.4-3-.8-5.7-1.5-7.1-.7-1.3.3-4.2-1.1-4.7-1.3-.5-3.8-3.7-4.5-5.2-.7-1.5 1-6.2 2.2-4.4 1.2 1.8 4 6.9 4 6.9s.3 4.2 1.3 4.5c1 .3 1.8 2.5 2.7 3.8.9 1.3 1.2 3.7 1.1 4.7-.2 1 1.8 1.4 2.2 2.1.3.7-.2 3.1-1 3-.8-.1-1.7-.1-1.7-.1z" opacity=".46"/><path d="M42.8 82.4s-1.7 1.6-3.5 1.5c-1.8-.2-2.9-.4-3.5 0-.6.3-2.1.5-2.7.3-.6 0-1.7-3.3-2.6-.1-.8 2-.9-.1-2.1.5-.6.9-2.2-1.6-3.9-.1-1.4-2.8-3.1.4-3.3.1-.4 2.2-3.4-3.4-3.8-1.6 0-4.9-1.1.1-2.5-.7-1.5 0-4.3-.1-4-1.4.3-2.4-1.2-.8-1.5-.5-.4.2.6 4.2 1.6 3 .9.1 1.7 1.8 2.9.7 1.3-2.4.3-1.3 3.1 1.2 1.3 2.4 2.2 1.7 3.1.3.9-1.5 1.6.1 2.9.7 1.3.7 2.7 2.3 4.2.1 1.4-.6 2.7 2.1 4.1-.5 1.2 2.3 2.6-.3 3.7.3 1 1.5 2.2.1 3-.4 1.7-.9 3.6-1.3 4.6-1.9.9-.7.2-1.5.2-1.5zm-1.9-6.1c-.1 1.2-2.7-2.3-2.8-.3l-3.6 1.7s-7 .3-8.7.4c-.5 0-1.4.2-2.3.4-1.9.4-4.2.9-5 .4-.4-.2-1.5-.7-2.7-1.4-2.6-1.3-6.1-3-6.1-3s-4.4-.7-4.6-.7c-.2 0 2.2 1.5 3.9 1.9 1.6.4 16.1 3.6 20.8 3.5 4.7-.1 9-1.7 9-1.7 0-.9 2.2-2.3 2.1-1.2zm-14.4-4.4c0 .3-4-1.4-5.2-1.4-1 .8-2.6.2-4-.1-.4-.1-.7-.2-1-.2-.7-.1-1.8-.2-2.8-.3-1-.1-1.9-.3-2.3-.4-.6-.2-2.8-.9-4.1-1.2-.6-.2-1-.3-1-.3s14.9 4.5 16.8 4.6c1.9.2 2.9 1.3 3.7.8.8-.4 2.6-.2 3.3-.2.7.1.3-1.5.3-1.5.3-3.5-3.8 2.4-3.7.2z" class="st8"/><path d="M22.4 67.7s-1.5.5-2.6.4c-.4 0-1.2-.5-2.1-.9-1.3-.7-2.7-1.7-3.2-1.7-.9-.1-2.7-2.7-3.6-2.8-.9-.1-1.8 1.1-1.8 1.1s3.6 2.2 4.4 2.6c.8.4 7.6 2.3 7.6 2.3l1.3-1zm4.6 8.1l1.4.1c1.4.1 4.9-.2 4.9-.2l-6.8-1.3.5 1.4zM50 70l-2.6.7 1.9 1.1 1.8-1.4z" class="st16"/><path fill="none" stroke="#edcac5" stroke-width=".064" d="M52.8 29.5s-4.7-4.3-7-3.6c-2.3.8-3.5-1.8-6.2-1.6-2.7.2-7.2.3-7.6-1.2"/><path d="M52.1 34.7s-7.5-7.2-9.9-5.9c-2.4 1.3-7.5-3-9.2-3.7-1.8-.7-8.1 1.2-10.8.9" class="st24"/><path d="M49.5 32.5s-.2-3.4-2-4.1c-1.8-.7-5.4.4-5.4.4s-1 .5-2.3.4m4.7 26.2s.2-3.9-3.3-5.2c-3.5-1.3-3.5-5.1-3.5-5.1m4.8 14s-1.3-.6-3.3-4.7c-2-4.1-3.8-3.8-5.5-5.4L32 47.4m6.3 15.1s-1.6-4-3.3-5.2c-1.7-1.1-2.9-4.2-2.9-4.2l-3-2.2" class="st24"/><path d="M30.3 60s2.4-1.4 2.9-2.8 3.3-2.6 3.3-2.6m8.3 3.7s3.2-1.6-1.6-4c-4.8-2.4-5.6-4.4-5.6-4.4m3.9 11s-.8-1-2.9-3.7c0 0-2.8 2.2-4.3 4-1.5 1.8-1.9 1.3-1.9 1.3M51 53.1s-5.1-3.2-7.3-4.6c-2.1-1.4-2.3-6.2-2.3-6.2M52.7 46s-1.5-4.5-5.1-4.9c-3.6-.3-6.4-5.9-6.4-5.9M28.5 23.7c-2.2-1.2-3.6-6.7-6.8-6.5-3.1.2-2.4-5.1-2.4-5.1M56 28.8s-6.3-6.9-8.2-6.1c-1.8.8-7.1 1.4-7.7-1.6-.6-3-4.4-6.3-4.4-6.3l-5.7.4-4.4-2.4L23 9.4" class="st24"/><path d="M55.6 20.5s-6.3.9-9.4-.9c-3-1.7-1.4-6-4.6-5.8 0 0-3.6 7.9-3.8 11.3-.2 3.4-.9 6.7-.9 6.7 1.7 1.1 7.6.2 11.5 2.6 3.9 2.3 9.1 5.9 9.1 5.9" class="st24"/><path d="M50.7 42.4S40.6 32.2 37 31.9c-3.6-.3-7-3.1-9.6-3.8-2.6-.7-6-4-7.8-4.6-1.8-.7-6.6-1.6-6.5-3.1.1-1.4.2-3.9.2-3.9" class="st24"/></g></switch></svg>
