<svg xmlns="http://www.w3.org/2000/svg" xmlns:xlink="http://www.w3.org/1999/xlink" version="1.0" viewBox="0 0 93 63.6"><switch><g><pattern id="a" width="85.6" height="85.6" overflow="visible" patternUnits="userSpaceOnUse" viewBox="7.3 -92.9 85.6 85.6"><path fill="#AB0175" d="M21.4-37.3L36-41.5l3.4 2.1 2.1-3.4-4.2-14.6 2.1-3.4L36-63l-14.6 4.3-3.4-2.1-2.1 3.4 4.2 14.6-2.1 3.4zM41.5 0l-4.2-14.6 2.1-3.4-3.4-2.1-14.6 4.2L18-18l-2.1 3.4L20.1 0zm42.9 0l-4.3-14.6 2.1-3.4-3.4-2.1-14.6 4.2-3.4-2.1-2.1 3.4L63 0zM64.2-37.3l14.6-4.2 3.4 2.1 2.2-3.4-4.3-14.6 2.1-3.4-3.4-2.2-14.6 4.3-3.4-2.1-2.1 3.4L63-42.8l-2.2 3.4zm-48.3-63l4.2 14.7-2.1 3.4 3.4 2.1L36-84.4l3.4 2.2 2.1-3.4-4.2-14.7zm42.8 0L63-85.6l-2.2 3.4 3.4 2.1 14.6-4.3 3.4 2.2 2.2-3.4-4.3-14.7z"/></pattern><ellipse cx="45.8" cy="46.6" fill="#4363AD" stroke="#4363AD" stroke-width=".25" rx="45.8" ry="17.1"/><pattern id="b" patternTransform="matrix(.605 0 0 .605 -3185.967 -3228.343)" xlink:href="#a"/><ellipse cx="45.8" cy="46.2" fill="url(#b)" stroke="#4363AD" stroke-width=".25" rx="45.8" ry="17.1"/><ellipse cx="45.4" cy="47" fill="#FFF" stroke="#FFF" stroke-width=".25" rx="41.6" ry="12.4"/><path fill="#C44E2C" d="M41.4 27.2c-3.9.7-8.9 1.3-12.4 1.3-1.8 0-4-.3-5.8-.9-2.4-.8-3.7-3-5.8-3.9-3.7 5.1 8.4 8.2 12.1 8.3 2.5 0 17.2-1.5 14.2-5.6-.8.2-1.9.4-2.7.8"/><path fill="#C44E2C" d="M72 24c.6-.3.7-.7.5-1.2-4.1-2-10.7-1.5-15.2-1.6-6.3-.3-11.3.8-14.9 6.1 4.8.8 9.5.3 14.3-.1 2.5-.3 11.8-.8 14.2-1.4 2.3-.6-1.5-2.2.9-1.8"/><path fill="#F3B444" d="M18.6 19.1c.3-1.6.1-2.3-.4-3.9-.7-2.4-.4-6.2 1.8-7.8 1.1-.9 3.1-1.3 4.3-2.1 1.4-.9 2.7-1.9 4.1-2.6C31.6 1 34.1 1 37.5.5c1.7-.3 2.9-.1 4.7 0 1.6.1 3-.5 4.6-.3 1.5.2 2.8.7 4.3.7 1.8-.1 3.1.1 4.9.5 5.7 1.4 15.3 3.4 17.2 9.8.4 1.5.7 2.7.8 4.2.1 1.6-.3 2.9-.3 4.6 0 1.8 0 2.8-2.2 3.1-1.4.2-3 0-4.4.2-2.1.2-4 .7-6.1.9-1 .1-1.9.5-2.8.6-1.1.1-2.1-.2-3.2-.1-2.1.3-3.7.5-5.8.4-2.1-.1-4 .5-6.2.3-3.9-.4-8-.4-12-.8-2.1-.2-4-.5-6.1-1-3.4-.7-7.3.6-6.3-4.5z"/><path fill="#FCBD58" d="M71.3 43.8c.7 3.4-3.3 6.3-5.9 7.6-2.9 1.4-6 2.1-9.1 3-5.8 1.5-12.2 1.5-18.1.4-3.1-.6-6-.2-8.8-1.7-1.4-.8-2.9-.8-4-1.9-1-.9-3-3.3-3.3-4.6-.4-1.4.8-3.2 1.7-4.2 1.8-1.8 2.7-.9 4.5-.1 2.7 1.1 6.1 1.6 9 1.7 5.5.2 10.7-1.2 16-1.7 2.6-.2 5.2-.2 7.8-.5 3.3-.5 5.5-2.7 8.1-4.5.6 1.1 1.1 2.2 1.5 3.4.4 1 1.6 3 1 3.9"/><path fill="#DB6842" d="M42.3 28.3c-2.1.7-4.3 1.6-6.6 1.8-2.3.1-4.7-.2-7.1-.2-2.2 0-4.7 0-6.9-.5-1.4-.3-6.5-3.4-4.5-5-1.6-.8-1.9 2.1-1.8 3.1.3 2.1 1.4 2.2 3 2.9 2.8 1.3 5.6 2.6 8.7 2.9 2.5.3 17.4-.9 15.7-4.8"/><path fill="#DB6842" d="M68.1 29.1c-2.2.4-4.9.7-7.1.6-2.6-.1-4.9-.6-7.4-.2-3.2.4-7.4.4-10.5-.6-1.4-.4-2.4-1.1-2.4-2.8 5.3 1.7 10.9.7 16.3.3 2.7-.2 5.4-.5 8-.8 1.3-.1 2.9-.2 4.2-.5 1.6-.4 4.4-2.7 3.1.5-.7 1.8-2 3.1-4.2 3.5z"/><path fill="#CB8F55" d="M71.8 28c-1.1.3-.3 2.5-.5 3.7-.2 1.6-1.1 3.3-2.2 4.5-2.1 2.3-6 2.8-8.7 4.3-2.7 1.5-6 1.3-9 1.8-1.4.2-2.7.7-4.1.7-1.5 0-2.9-.2-4.5.1-1.7.3-2.5.5-4.2.1-1.7-.4-2.8-1.3-4.4-1.7-2.9-.7-5.8-1.2-8.7-1.5-2.7-.2-6.8-1.4-8.6-3.5-1.4-1.8.1-2.7 1.6-3.5 1.8-1 2.6.2 4.5.3.9.1 1.9-.1 2.8 0 .4.1.9.4 1.4.4.7 0 1.1-.2 1.7-.2 2.2 0 4.3.2 6.4.9 1.9.6 3.9.1 6.1 0 1-.1 2.2 1.1 3.2 1 1.1-.1 2.2.4 3.2.3 4-.2 8.2-2.1 12.2-2.6 2.1-.3 4.5-.1 6.2-1.4 1-.7 3.3-5.4 5.1-3.7"/><path fill="#9CCC67" d="M78.7 27.3c.6-.2-1.2-1.2-1.2-1.2-.6-.3-1.6-.4-2.3-.3-1.6.1-3.2 1-3.3 2.8 0 .4.2.9.3 1.4.1 1 .1.9 0 1.8-.2 1.2-1 2.2-1.4 3.2-.3.8-.2 1.8-.5 2.7-.5 1.9-.6 1.2-2 1.9-1.5.9-1.3 1.9-2.5.6-.2-.2-.4-1-.7-1.4-.4-.5-1.1-.7-1.5-1.1-1.6.6-1.1 3.9-1.7 5.3h-.6c-.2-1.5-1.4-2.7-2.6-1.4-1 1-1.1 3.2-2.2 1.2-.6-1.2-.3-2.6-2.4-2.6-1.2 0-3.1 1.8-3 3.1.4 0 1 .3 1.4.3.6 2-2 .7-2.7.3-.8-.4-1-.2-1.7-.9-.5-.5-.7-1.6-1.6-1.8-2.3-.3-.4 2.6-.8 3.3-.9 1.7-2.4-.4-3.1-.6-.2.2-.3.5-.3.7-.4-.4-.9-1.3-1.7-1.4-.2.8-1.2 2.6-1.7.8-.9.9-2.7-.9-1.9-1.9-1.2-.6-1.4.6-1.7 1.5-.7-.3-.9-1.4-1.4-1.9-1.1.9-1-.4-1.9-.6-.9-.2-1.2.1-2.1.6-2.3 1.4-2.3-.3-1.4-2.2-2.2-1.1-2.4 2.8-4.4 2.1-.2-.9-.2-1.9-.3-2.8-1.4-.1-1.9 1.7-3.4 1.7-1.4 0-3.5-1.3-1.6-2.6-.4-.8-1.3-.9-1.9-1.6-.5-.5-.5-1.5-1.2-1.8-.8-.4-2.3.3-3.3-.2-.3.9 0 1.9 1.1 1.7-.2.7-1.1.8-1.3 1.6-.2.9.9 1.1.5 2.2.2 0 1 0 1.2-.1-.2.6-.9 2 0 2.4 1.1.5 1.3-1.8 2.3-1.6 1.3.3 0 1.7.2 2.3.3.9 1.1 1 2 1.2-.3.2-.7.7-.9.8 1.3.1 2-1.4 3.7-1 .1 1.7.9 3 2.5 1.7.2-.2-.4-.7 0-1 .5-.3.7.1 1-.1.8-.3 1.5-.1 2.3-.7.5 2 2.8.2 4.4.7-.1.2 0 .7-.1 1 .9.2 1.6-.4 2.5-.6 1.3-.2 1.2.2 2.3.7.8.3 1.6.5 2.4.8 1.5.6.6.7 1.4 1.8.6.9 1.5 1.5 2 .3.2-.5-1.2-1.8.1-2.4 1.3-.6 1.1 1.2 1.7 1.7 1.1.7 1.4.1 2.2-.4.6-.4 1.2-1.9 1.6-2.1.9-.5 1.3.1 2.4.2 1.6.2 3.2-.5 4.7-.3 1.1.1 1.3.5 2.5-.2.8-.4 1.1-.9 2.1-1.2 1-.3 4.2-.3 4.4.7 2.4-.4 1.1-4.1 4.2-2.7 1.3.6 1.2 1.2 2.4 0 .8-.8.7-2.1 2.1-2.2-.1.9-1.1 1.6-1.1 2.6 2.3.6.8-2.5 1.2-3 1.4-2.2 1.5 1.2 1.9 1.6 1.5 1.8 2-.6 2.2-1.6.2-1.3 1.1-3.3-1.1-3.6.2-1 1.1-1.2.9-2.4 2.1.2.7-1.3.3-2-.1-.2-.8-.5-1.1-.9-.3-.4.2-1.1-.6-1.6.6.4 1.2-.4 1.5-.5.6-.2 1.6-.6 2.3-.8z"/><path fill="#F2C09F" d="M18.6 22.5c3.8.8 7.6 1.2 11.4 1.6 1.7.2 3.5.3 5.3.7 1.8.4 3.4.1 5.1.3-.8 1-4.2 1.2-5.6 1.4-2 .3-3.9.4-5.9.3l-5.4-.3c-2.3-.1-4.3-.1-5.2-2.4"/><path fill="#F3C49B" d="M44.5 25.3c.6.1-.9.5-.4.7-.7 1.4-5.1 1.6-6.7 1.9-2.4.5-4.6.8-7 1.2-2.5.3-4.4-.5-6.9-.7-2.9-.2-5.1-1.1-5.3-4.3 1.1.3 2 1.4 3.1 1.9.9.4 2.1.7 3.1.7 2.2 0 4.4-.4 6.6-.6 2.2-.2 4.4-.4 6.6-.8 1-.2 2-.4 3-.5 1.5-.2 2 .6 3.5.7"/><path fill="#F7F2F3" d="M72.5 21.3c3.7-4.5-2.6-9-3-4.8-1.2 0-1.7-1.3-2.4-1.3-2.4 0-1.4.3-3.2 1.3-.2.5-.5.9-.9 1.3-1.1.5-1.2-.5-2-.3-1.1.2-2.3 0-3.5.3-2.7.6-4.1 1.5-6.9 1.3-2.6-.2-4.8-1.1-6.7 1.8-4.5-3.2-8 1.7-12.2-.7-1.7-1-1.9-3-2-5.2-.1-1.8-.4-1.6.1-3.1.3-1 2.1-.5 1.7-2.6-4.5-3.6-6.2 11.3-12.2 5.4-1.6 1.1-.5 1.7-.6 3.2 0-.3.7 2.2.6 2.1.2.7-1.1 1.3-.6 2.1 1.2 1.8 5.5 1.3 7.3 1.3 5.3 0 10.3 1.1 15.6 1 9.5-.3 22 .4 30.7-4.1" opacity=".09"/><path fill="#92C05D" d="M79.1 25.4c.6-.2-1.2-1.2-1.2-1.2-.6-.3-1.6-.4-2.3-.3-1.6.1-3.1 1-3.3 2.8 0 .5.2.9.3 1.4.1 1 .1.9 0 1.8-.2 1.2-1 2.2-1.4 3.2-.3.8-.2 1.8-.5 2.7-.5 1.9-.6 1.2-2 1.9-1.5.9-1.3 1.9-2.5.6-.2-.2-.4-1-.7-1.4-.4-.5-1.1-.7-1.5-1.1-1.6.6-1.1 3.9-1.7 5.3h-.6c-.2-1.5-1.4-2.7-2.6-1.4-1 1-1.1 3.2-2.2 1.2-.6-1.2-.3-2.6-2.4-2.6-1.2 0-3.1 1.8-3 3.1.4 0 1 .3 1.4.3.6 2-2 .7-2.7.3-.8-.4-1-.2-1.7-.9-.5-.5-.7-1.6-1.6-1.8-2.3-.3-.4 2.6-.8 3.3-.9 1.7-2.4-.4-3.1-.6-.2.2-.3.5-.3.7-.4-.4-.9-1.3-1.7-1.4-.2.8-1.2 2.6-1.7.8-.9.9-2.7-.9-1.9-1.9-1.2-.6-1.4.6-1.7 1.5-.7-.3-.9-1.4-1.4-1.9-1.1.9-1-.4-1.9-.6-.9-.2-1.2.1-2.1.6-2.3 1.4-2.3-.3-1.4-2.2-2.2-1.1-2.4 2.8-4.4 2.1-.2-.9-.2-1.9-.3-2.8-1.4-.1-1.9 1.7-3.4 1.7-1.4 0-3.5-1.3-1.6-2.6-.3-1-1.2-1-1.8-1.7-.5-.5-.5-1.5-1.2-1.8-.8-.4-2.3.3-3.3-.2-.3.9 0 1.9 1.1 1.7-.2.7-1.1.8-1.3 1.6-.2.9.9 1.1.5 2.2.2 0 1 0 1.2-.1-.2.6-.9 2 0 2.4 1.1.5 1.3-1.8 2.3-1.6 1.3.3 0 1.7.2 2.3.3.9 1.1 1 2 1.2-.3.2-.7.7-.9.8 1.3.1 2-1.4 3.7-1 .1 1.7.9 3 2.5 1.7.2-.2-.4-.7 0-1 .5-.3.7.1 1-.1.8-.3 1.5-.1 2.3-.7.5 2 2.8.2 4.4.7-.1.2 0 .8-.1 1 .9.2 1.6-.4 2.5-.6 1.3-.2 1.2.2 2.3.7.8.3 1.6.5 2.4.8 1.5.6.6.7 1.4 1.8.6.9 1.5 1.5 2 .3.2-.5-1.2-1.8.1-2.4 1.3-.6 1.1 1.2 1.7 1.7 1.1.7 1.4.1 2.2-.4.6-.4 1.2-1.9 1.6-2.1.9-.5 1.3.1 2.4.2 1.6.2 3.2-.5 4.7-.3 1.1.1 1.3.5 2.5-.2.8-.4 1.1-.9 2.1-1.2 1-.3 4.2-.3 4.4.7 2.4-.4 1.1-4.1 4.2-2.7 1.3.6 1.2 1.2 2.4 0 .8-.8.7-2.1 2.1-2.2-.1.9-1.1 1.6-1.1 2.6 2.3.6.8-2.5 1.2-3 1.4-2.2 1.5 1.2 1.9 1.6 1.5 1.8 2-.6 2.2-1.6.2-1.3 1.1-3.3-1.1-3.6.2-1 1.1-1.2.9-2.4 2.1.2.7-1.3.3-2-.1-.2-.9-.5-1.1-.9-.3-.4.2-1.1-.6-1.6.6.4 1.2-.4 1.5-.5.5 0 1.5-.4 2.2-.7z"/><path fill="#F6AF1D" d="M67.6 30.2c-1.8-.3-2 2.5-2.4 3.7-.9 2.4-1.5 2.1-3.7 1.8-1.9-.3-2.6.6-3.7 2.2-.7 1.1-1.5 4-2.5 4.6-1 .6-1.3-.1-1.9-.7-.6-.6-1-1-1.8-1.6-1.5-1.1-2.9-2.3-4.6-2.9-1.4-.5-2.8-.5-4.3-.8-1.8-.3-3.1-.8-4.6-1.5-3-1.5-5.7.9-8.6-.2-1.8-.7-2.2-1-4.1-.7-2 .3-2.6-.6-4.5-1.1-2.3-.5-2.2.9-3.8 1.8-2.3 1.2-2.5-.4-2.1-2.2.2-1.1.3-3.5 1.3-4.2 1.1-.7 3.4 1 4.6 1.5 3.9 1.5 8.2 2.3 12.4 2 4.1-.3 7.4-2.5 11.4-3.2.8-.1 2.1.9 2.9.8 1.4-.1 1.9-.4 3.2-.8 1.7-.6 3.9-.2 5.6 0 2 .3 4 .5 5.9.5 1.5 0 4.5-.8 5.6.5-1 1.9-3.9 3.5-3.8 6.1-.6.3-1.2.3-1.7-.1"/><path d="M61.1 33.4c-2.4.7-6.4-2-7.4-4-1.8 1.3.3 3.5 1.6 4.3 1.7 1.2 3.5 0 5.3-.1M20.7 32c-1.8.5-4.9-.4-5.5 2.2 1.2.7 4.4-1.5 5.7-1.7-.2-.2-.4-.3-.7-.3" opacity=".15"/><path d="M43.7 30.1c.7-.1 9.7 7.2 10.1 2.1.2-2.2-3.1-2.7-4.5-2.7-1.3-.1-4.4-1.2-5.3-.2" opacity=".15"/><path fill="#9CCC67" d="M71.8 27.7c.3-.1.6-.1.9 0 0 .8-.6 1.2-.6 1.9-.1.9 1.1 1 1.1 1.8 0 .5-1.1 1.4-1.4 1.9-.2.5-.6 1.4-.7 1.9-.1.8.2 1.2-.4 1.9-.2.3-1.2 1.5-1.5 1.6-.3.1-1.5-.6-1.8-.5-.6.1-1 1.1-1.6.9-.5-.1-1-1.2-.7-1.6.3-.4 1.4-.2 1.8-.4.2-.2.4-.6.7-.8.3-.2.7-.2 1-.4.3-.2.4-.5.7-.8.3-.3.6-.5.8-.7 1.1-1.2 1.4-2 .8-3.5-.5-1.5.1-2.8 1.7-3.2M60.9 40.9c.6-.5 1.3.4 1.8.8.5-.5.5-2.4-.2-2.4.1 0-1.4.6-1.4.6-.5.6.3 1.2.8 1.5m-27.1 1.1c-.1.4-.3.9-.2 1.4.9.2 1.3-.7 1.9-1.1.1 0 .1.1.2.1"/><path fill="#FFDA96" stroke="#E9C182" stroke-width=".465" d="M39.2 11.5c-.8.8-2.1 1.4-2.3 2.8 1.5 1.3 2.7-.5 3.4-1.9-.1-.4-.3-.6-.7-.7"/><path fill="#FFDA96" stroke="#E9C182" stroke-width=".45" d="M46.5 9.4c.3 0 .6.1.7.4-.6 1-2 1.1-2.8.2.3-.9 1-1 1.9-.6"/><path fill="none" stroke="#E9C182" stroke-width=".45" d="M40.7 3.3c-.3.2-.5.5-.4.8 1.5.6 3.1-1.1 1-1.4"/><path fill="#FFDA96" stroke="#E9C182" stroke-width=".319" d="M62.2 9.6c.7.1 1.3.5 1.3 1.2-.8.7-2.1.2-2-.9.3-.2.7-.3 1-.2"/><path fill="#FFDA96" stroke="#E9C182" stroke-width=".45" d="M48.5 10c.6-.2 1.2 0 1.7.4-.6 1.4-2.7.9-2.7-.6.3-.2.7-.3 1-.2m-2.4-1.7c1.1-.3 1.9.4 1.6 1.5-1.2.4-2-.5-1.6-1.7"/><path fill="#FFDA96" stroke="#E9C182" stroke-width=".31" d="M33.7 4.3c-.8.4-2.2.6-2.3 1.2 1.5.6 2.8-.2 3.5-.8-.1-.2-.3-.3-.7-.3"/><path fill="#FFDA96" stroke="#E9C182" stroke-width=".232" d="M57 4.2c-.4.4-1.1.7-1.2 1.3.8.6 1.4-.3 1.8-.9 0-.2-.2-.3-.4-.3"/><path fill="#FFDA96" stroke="#E9C182" stroke-width=".319" d="M45.9 3.7c.8-.9 2.3-.1 1.5 1-.8 1.1-2.5-.4-1.5-1.5"/><path fill="#FFDA96" stroke="#E9C182" stroke-width=".45" d="M56.2 14.7c.3 0 .6.1.7.4-.6 1-2 1.1-2.8.2.3-.9 1-1 1.9-.6"/><path fill="#FFDA96" stroke="#E9C182" stroke-width=".319" d="M67.8 11c.7.1 1.3.5 1.3 1.2-.8.7-2.1.2-2-.9.3-.2.7-.3 1-.2"/><path fill="#FFDA96" stroke="#E9C182" stroke-width=".45" d="M58.2 15.3c.6-.2 1.2 0 1.7.4-.6 1.4-2.7.9-2.7-.6.3-.2.7-.3 1-.2m-2.4-1.7c1.1-.3 1.9.4 1.6 1.5-1.2.4-2-.5-1.6-1.7"/><path fill="#FFDA96" stroke="#E9C182" stroke-width=".31" d="M39.3 5.6c-.8.4-2.2.7-2.3 1.3 1.5.6 2.8-.2 3.5-.8-.1-.2-.3-.3-.7-.3"/><path fill="#FFDA96" stroke="#E9C182" stroke-width=".232" d="M62.5 5.6c-.4.4-1.1.7-1.2 1.3.8.6 1.4-.3 1.8-.9 0-.2-.2-.3-.4-.3"/><path fill="#FFDA96" stroke="#E9C182" stroke-width=".319" d="M51.4 5c.8-.9 2.3-.1 1.5 1-.8 1.1-2.5-.4-1.5-1.5m-3.9 10.4c.7.1 1.3.5 1.2 1.2-.8.7-2.1.2-2-.9.3-.2.7-.3 1-.2m-13.4 3.6c.7.1 1.3.5 1.2 1.2-.8.7-2.1.2-2-.9.3-.2.7-.3 1-.2m11 1.7c.7.1 1.3.5 1.3 1.2-.8.7-2.1.2-2-.9.3-.2.7-.3 1-.2m15.3.6c.7.1 1.3.5 1.2 1.2-.8.7-2.1.2-2-.9.3-.2.7-.3 1-.2m10.2-5.5c.7.1 1.3.5 1.3 1.2-.8.7-2.1.2-2-.9.3-.2.7-.3 1-.2M41.1 1.9c.7.1 1.3.5 1.2 1.2-.8.7-2.1.2-2-.9.3-.2.7-.3 1-.2M27.6 6.3c.7.1 1.3.5 1.3 1.2-.8.7-2.1.2-2-.9.3-.2.7-.3 1-.2m-7.3 4.3c.7.1 1.3.5 1.3 1.2-.8.7-2.1.2-2-.9.3-.2.7-.3 1-.2m.7 8.5c.7.1 1.3.5 1.3 1.2-.8.7-2.1.2-2-1 .3-.2.7-.3 1-.2m7.1 1.8c.7.1 1.3.5 1.2 1.2-.8.7-2.1.2-2-.9.3-.2.7-.3 1-.2m7.5 1.8c.7.1 1.3.5 1.3 1.2-.8.7-2.1.2-2-.9.3-.2.7-.3 1-.2m16.9-2.7c.7.1 1.3.5 1.3 1.2-.8.7-2.1.2-2-.9.3-.2.7-.3 1-.2m9.3-6c.7.1 1.3.5 1.2 1.2-.8.7-2.1.2-2-.9.3-.2.7-.3 1-.2m4.1 4c.7.1 1.3.5 1.3 1.2-.8.7-2.1.2-2-.9.3-.2.7-.3 1-.2m-42.5-6.8c.7.1 1.3.5 1.2 1.2-.8.7-2.1.2-2-.9.3-.2.7-.3 1-.2m.8 5.8c.7.1 1.3.5 1.3 1.2-.8.7-2.1.2-2-.9.3-.2.7-.3 1-.2M53.6 2.5c.7.1 1.3.5 1.3 1.2-.8.7-2.1.2-2-.9.3-.2.7-.3 1-.2m11.9 5.9c.7.1 1.3.5 1.3 1.2-.8.7-2.1.2-2-.9.3-.2.7-.3 1-.2m-3.6 10c.7.1 1.3.5 1.2 1.2-.8.7-2.1.2-2-.9.3-.2.7-.3 1-.2m-37.1 2.8c.7.1 1.3.5 1.2 1.2-.8.7-2.1.2-2-.9.3-.2.7-.3 1-.2m6.4.6c.7.1 1.3.5 1.2 1.2-.8.7-2.1.2-2-1 .3-.2.7-.3 1-.2m19.4-5c.7.1 1.3.5 1.2 1.2-.8.7-2.1.2-2-.9.3-.2.7-.3 1-.2m16.6-2.4c.7.1 1.3.5 1.3 1.2-.8.7-2.1.2-2-.9.3-.2.7-.3 1-.2m-16-4c.7.1 1.3.5 1.2 1.2-.8.7-2.1.2-2-.9.3-.2.7-.3 1-.2M36.4 9.2c.7.1 1.3.5 1.3 1.2-.8.7-2.1.2-2-.9.3-.2.7-.3 1-.2m6.1 3.3c.7.1 1.3.5 1.2 1.2-.8.7-2.1.2-2-.9.3-.2.7-.3 1-.2m6.5 9.2c.7.1 1.3.5 1.2 1.2-.8.7-2.1.2-2-.9.3-.2.7-.3 1-.2M69.5 7.1c.7.1 1.3.5 1.2 1.2-.8.7-2.1.2-2-.9.3-.2.7-.3 1-.2m-8.5-4.5c.7.1 1.3.5 1.2 1.2-.8.7-2.1.2-2-.9.3-.2.7-.3 1-.2M19.6 16.4c.7.1 1.3.5 1.2 1.2-.8.7-2.1.2-2-.9.3-.2.7-.3 1-.2m37.4-7.6c.7.1 1.3.5 1.3 1.2-.8.7-2.1.2-2-.9.3-.2.7-.3 1-.2M34.7 1.9c.7 0 1.3.4 1.3 1.2-.8.7-2.1.2-2-.9.3-.2.7-.3 1-.2m-2.8 11.7c.7.1 1.3.5 1.2 1.2-.8.7-2.1.2-2-.9.3-.2.7-.3 1-.2m33.4 6.6c.7.1 1.3.5 1.3 1.2-.8.7-2.1.2-2-.9.3-.2.7-.3 1-.2M56.5 23c.7.1 1.3.5 1.2 1.2-.8.7-2.1.2-2-.9.3-.2.7-.3 1-.2M29 2.6c.7.1 1.3.5 1.2 1.2-.8.7-2.1.2-2-.9.3-.2.7-.3 1-.2m10.9 15.1c.7.1 1.3.5 1.3 1.2-.8.7-2.1.2-2-1 .3-.2.7-.3 1-.2M49.5 0c.7.1 1.3.5 1.2 1.2-.8.7-2.1.2-2-.9.3-.2.7-.3 1.1-.3m22.7 20.4c.7.1 1.3.5 1.2 1.2-.8.7-2.1.2-2-.9.3-.2.7-.3 1-.2m-2.2-9.4c.7.1 1.3.5 1.2 1.2-.8.7-2.1.2-2-.9.3-.2.7-.3 1-.2M66.8 5c.7.1 1.3.5 1.3 1.2-.8.7-2.1.2-2-.9.3-.2.7-.3 1-.2"/></g></switch></svg>
