<svg xmlns="http://www.w3.org/2000/svg" version="1.0" viewBox="0 0 28 43"><switch><g><radialGradient id="a" cx="54.577" cy="46.045" r="206.23" gradientTransform="matrix(1.1585 0 0 1.142 -118.557 28.133)" gradientUnits="userSpaceOnUse"><stop offset="0" stop-color="#fccb98"/><stop offset="1" stop-color="#facccb"/></radialGradient><path fill="url(#a)" stroke="#993334" stroke-width=".25" d="M10.2 5.7L12 8.3l1.2 2.8 4.1 2.8c.3.2.7.5.9.7.2.2.4.4.7.6 2.6 2.3 3.4 4.5 5.8 6.7 4.5 4.2 1.1 5.9-5.4-.2l-.7-.7-.8-.8c0 .4.1.8.2 1.4.4 1.5 1.3 3.5 2.2 5.7.1.1.1.3.2.4.1.1.1.3.2.4 2.5 5.6 5.2 11.6 2.3 10.7-2.5-2.3-3.7-6.2-5.3-9-.1-.1-.1-.2-.2-.3 0-.1-.1-.2-.1-.2-.1-.2-.2-.3-.3-.5 0 .2.1.3.2.5s.1.4.2.5c1.8 5.1 5.5 13.3 3.3 13.6-2.1 1-5.5-10.1-7.2-12.8.4 3.5 5.4 13 2.2 12.3-1.3.3-4.1-6.6-5.5-11.4-.2 0-.6.4-.7.4 1.7 4 3.4 9.7 1.8 9.8C9.5 42.9 5.8 31 4.2 27.3 3 24.6 2.4 20.7 2.4 16.7l-.6-4.2-.6-4.2S.6 7.2.2 5.7"/><path fill="none" stroke="#f59698" stroke-width=".25" d="M17.3 20c-.3-.1-1 0-1.3 0-.7 0-1.4 0-2.1-.1-.7-.1-1.3-.3-1.9-.6-1.4-.7-2.2-1.7-3.2-3m16.5 6.4c-.1.1-.1.2-.2.2.3.3.5.9.8 1.1"/><radialGradient id="b" cx="-245.259" cy="79.161" r="849.83" gradientUnits="userSpaceOnUse"><stop offset="0" stop-color="#fccb98"/><stop offset="1" stop-color="#facccb"/></radialGradient><path fill="url(#b)" d="M8.9 0s1.2 7 2.6 8.5c0 0-6.9 1-9.4 3.3-.5-2.3-1.6-4.6-2-6-.4-1.6 0-2 0-2L8.9 0z"/></g></switch></svg>
