<svg xmlns="http://www.w3.org/2000/svg" version="1.0" viewBox="0 0 47 50.2"><switch><g><path fill="#653614" d="M22.2 42.2c.4 0 .7-.3 1.2 0 .4.2.6.7.4 1.1 0-.5-.4-1.1-1-.9 0 .2-.2.4-.3.4 0-.2-.1-.3-.2-.4"/><g fill="#FAF39A" stroke="#CA9732" stroke-width=".25"><path d="M20.3 42.3c.5-.2 2.4-.7 2.3.3-.1.9-1.7.6-2.2.4"/><path d="M18.2 37.8c.3 1.1.5 2.4.6 3.5 0 .5 0 1.3-.1 1.9-.1.5-.5 1-.8 1.4-.3.5-.6 1.7-.6 2.3 0 .4.3 1.5.9.9.3-.3.3-.4.3-.6 0-.2-.2-.7-.1-.9.2-.5.4-1.5.7-1.9.1-.2.3-.4.4-.5.5.9-.2 5.2 1.3 5 .9-1.1-.5-3.9-.3-5.1 1.2.5.9 2.9 1.8 3.6.7.5.9-.2.8-.8-.1-.6-.5-1.2-.9-1.8-.7-.9-1.5-2.2-2-3.2-.6-1-.5-2.2-.6-3.4 0-.4-.1-.7 0-1.1"/></g><path fill="#653614" d="M17.6 47.4c-.2.8 0 1.5.9 1.7-.4 0-.4-.6-.4-.9 0-.5.1-.6-.5-.8m2.7.7c-.1.7.3 1.5.8 2 0-.4-.3-.7-.3-1.1-.2-.4 0-.8-.5-.9m2.6-1.2c.1.5.5 1.3.1 2 .1-.5-.2-1-.4-1.4 0-.2.1-.4.3-.5m-7.5-4.8c.4 0 .6-.3 1 0 .3.2.5.6.4 1 0-.4-.4-1-.8-.8 0 .2-.1.3-.3.4 0-.1-.1-.3-.1-.4"/><g fill="#FAF39A" stroke="#CA9732" stroke-width=".25"><path d="M13.4 42c-.9-.4-2.8.3-3.6.7-.5.2-2.6 1.1-1.6 1.6.7.4 1.6-.8 2.2-1.1.8-.5 1.8-.5 2.7-.4"/><path d="M12.7 37.9c0 1-.2 1.9-.2 2.9-.1 1.5-.7 1.7-1.8 2.1-.5.2-1.9 1.2-2.1 1.7-.2.3-.5 1.1.1.9.4-.1 1.5-1.4 1.9-1.6.7-.5 1-.9 1.5-1-.7.8-1.2 1.6-1.8 2.2-.3.3-.6.4-.6.9-.1.7.4.7.8.3 1.4-1.2 1.7-2.6 3-3.5.4 0 3.1.7 2.5-.3-.4-.6-1.6-.3-2.2-.5-.8-.3-.3-1.2-.2-2 .1-.8 0-1.6.3-2.4"/></g><path fill="#653614" d="M9.7 46c-.7.1-.9 1.3-.3 1.6-.2-.3-.3-.7-.1-.9.2-.2.9-.4.4-.7m-1.2-1.1c-.7.3-.6 1.5.1 1.6-.3-.2-.4-.6-.3-.9.1-.1.8-.5.2-.7m-.5-.8c-.6 0-1 .9-.5 1.3-.1-.3-.1-.6.1-.8.1-.1.8-.2.4-.5"/><radialGradient id="a" cx="-95.071" cy="179.044" r="8.642" gradientTransform="rotate(-11.227 -743.858 -455.72)" gradientUnits="userSpaceOnUse"><stop offset="0" stop-color="#cc6632"/><stop offset="1" stop-color="#653614"/></radialGradient><path fill="url(#a)" stroke="#2F1110" stroke-width=".25" d="M9.1 29c.7 1.7 1.5 3.4 1.9 5.2.4 1.9.3 3.6.3 5.4.4.1.8-.1 1-.4v.5c.4.3.7-.2.9-.5 0 .1.1.2.2.4.9-.2 1.8-2.1 2.2-3 .6-1.2.8-2.4 1-3.7.1-.9-.1-1.2-.9-1.5-.8-.3-1.5-.5-2.3-.8-1.3-.6-2.9-.8-4.1-1.5-.1 0-.4-.8-.5-.9"/><linearGradient id="b" x1="-88.085" x2="-64.455" y1="178.867" y2="178.867" gradientTransform="rotate(-11.227 -743.858 -455.72)" gradientUnits="userSpaceOnUse"><stop offset="0" stop-color="#2f1110"/><stop offset="1" stop-color="#653614"/></linearGradient><path fill="url(#b)" stroke="#000" stroke-width=".25" d="M26.8 27.9c.4-.1 13.6 7.4 18.5 10.2 1.1.6 1.8 1 1.8 1s.2 2-1.2 2.1c1 1.1 1.3 2.6-.2 2.9-1.5.3-2.2-.2-2.2-.2s0 2.3-2.3 1.5c-.4-.1-.9-.4-1.5-.7-3.2-1.8-9.7-6.7-18.3-14"/><linearGradient id="c" x1="-99.336" x2="-93.621" y1="170.326" y2="170.326" gradientTransform="rotate(-11.227 -743.858 -455.72)" gradientUnits="userSpaceOnUse"><stop offset="0" stop-color="#2f1110"/><stop offset="1" stop-color="#653614"/></linearGradient><path fill="url(#c)" d="M9.7 30c0 .6 1.7 4.3 2.2 3.2 0 .5.5 1.5.9.7.1.4-.1 1.1.4 1.3.6.3.7-.3.9-.8 0 .2.2.3.2.5.3-.1.4-.5.4-.8.3.8 1.1.2 1.4-.3.6-1.1-.5-1.4-1.4-2-1.2-.8-3.2-2.3-4.7-1.8" opacity=".3"/><linearGradient id="d" x1="-65.126" x2="-68.834" y1="190.422" y2="185.573" gradientTransform="rotate(-11.227 -743.858 -455.72)" gradientUnits="userSpaceOnUse"><stop offset="0" stop-color="#989865"/><stop offset="1" stop-color="#cbcb98"/></linearGradient><path fill="url(#d)" d="M44.8 37.9c0 .1-.2.4-.2.5 0 .3.1.2.2.5s.3.2.1.6c-.1.2-.4.3-.5.4 0-.1-.1-.3-.1-.5-.1.3-.3.5-.5.8-.2-.1-.4-.2-.6 0 0-.1-.1-.2-.1-.3-.2.4-.7 1.2-.7 1.6-.1.5.3.5 0 .9-.2.2-.6.3-.7.6-.1-.1-.3-.1-.4-.2-.2.2-.4.5-.6.8-.3-.1-.6-.1-.8 0 0-.1-.1-.1-.1-.2 0 .1-.2.2-.2.3 0-.1-.1-.2-.1-.2-.2.1-.3.4-.2.6-.3.1-.5 0-.8-.1l1.1.7c.6.3 1.1.6 1.5.7 2.3.7 2.3-1.5 2.3-1.5s.7.5 2.2.2c1.5-.3 1.2-1.7.2-2.9 1.4-.1 1.2-2.1 1.2-2.1s-.7-.4-1.8-1l-.4-.2z"/><path fill="none" stroke="#000" stroke-width=".25" d="M43.5 43.9c-1-.7-2.3-1.5-3.3-2.2-1.2-.9-2.4-1.8-3.6-2.6-2.2-1.5-4.2-3.2-6.2-4.9M46 41.3c-1.2-.4-2.4-1.4-3.5-1.9-1.4-.6-2.6-1.7-4-2.5-2.2-1.3-4.2-3.1-6.6-4.2" opacity=".42"/><linearGradient id="e" x1="-82.445" x2="-80.563" y1="171.2" y2="175.735" gradientTransform="rotate(-11.227 -743.858 -455.72)" gradientUnits="userSpaceOnUse"><stop offset="0" stop-color="#989865"/><stop offset="1" stop-color="#cbcb98"/></linearGradient><path fill="url(#e)" d="M22 31c2 1.8 4.8 3.3 7.1 4.7-.1-.4-.4-.8-.6-1.2 1.3.7 2.9.6 4.3 1.4-.1-.2-.2-.4-.4-.7.2.1.4.1.5.2-.1-.7-.5-1.3-.7-1.9.3.1.6.4.9.4 1-2-1.7-4.8-3.6-5.3-1-.3-2.4 1.4-3.6 1.7-1.3.3-2.6.2-3.9.4"/><linearGradient id="f" x1="-89.95" x2="-91.92" y1="191.927" y2="159.555" gradientTransform="rotate(-11.227 -743.858 -455.72)" gradientUnits="userSpaceOnUse"><stop offset="0" stop-color="#2f1110"/><stop offset="1" stop-color="#653614"/></linearGradient><path fill="url(#f)" stroke="#000" stroke-width=".25" d="M30.6 27.9c.3 0 1.2 1 1.5 1.3-1.1-1.6.6.7-.5-.9-1-1.5-2.5-2.7-3.6-4.2-1.4-1.7-3.1-3.1-4.7-4.7-1.5-1.5-2.7-3.1-4.5-4.3-1-.7-1.3-1.6-2.2-2.4l-1.2-1.1c-.2-.6-.8-1-1.4-1.5 0 0-2.8-.7-2.8-3.2.6-.3.8-1.4 1.1-1.9.2-.3-.2-.5-.1-.8.2-.6.8-2.2.5-2.7C12.3.6 9.9 0 9 0 7 0 6 .4 4.2 1c-1 .4-2.4 1.5-2.9 2.5C.9 4.3.8 5.2.5 6c.1 0 .2.1.3.1-.5.6.3 1.4 0 2.1 0 0 .9 2.3.2 4-1.5 3.2-.8 5.3-.8 5.3 1 9.6 9.7 13.5 23.7 15.8 0 0 3.2.2 4.3-3.7 2.9-.7 2.4-1.7 2.4-1.7z"/><path fill="#FAF39A" stroke="#CA9732" stroke-width=".25" d="M14.5 5.5c-1.2.2-2.5-.1-3.6.5-.6.3-.8.8-1.5.4-.5-.2-1.1-.5-1.5-.8.7-.8 2.4-1.2 3.4-1.2 1.2-.1 1.9 0 2.9.8"/><path fill="#FAF39A" stroke="#CA9732" stroke-width=".25" d="M8.9 2.9c.4 0 .5.1 1-.1.4-.2.6-.4.8-.8.5-.8 1.3-.1 2 .2.8.4 1.5.9 1.9 1.6.5.7.7 1.6.4 2.6-.1-.9-.9-1.3-1.7-1.5-.8-.1-1.6-.1-2.1 0-.8.1-1.5.4-2.3.6-1 .3-1.3.1-1.5-1 .5-.1 1.7-.9 1.4-1.5"/><path fill="#676767" d="M10.6 2.2c.3-.8-2.7-.3-3.6-.1-1 .2-2.1.9-3 1.5.3-.2.6-.3 1-.3.6-.1.3.3.7.6.5.4 1.3.4 1.9.2.7-.3.6-.6 1.1-1 .5-.4-.2-.3.4-.1 0-.1 1.2 0 1.5-.8z"/><path fill="#979797" d="M8.6 2.4c-.2.7-.2 1-.7 1.4-.5.3-1.4.4-1.9 0-.2-.1-.4-.3-.5-.5-.1-.3 0-.4.3-.6.4-.3 1.2-.5 1.8-.5.3 0 1.2 0 1.5.3"/><radialGradient id="g" cx="-97.193" cy="141.119" r="1.542" gradientTransform="rotate(-11.227 -743.858 -455.72)" gradientUnits="userSpaceOnUse"><stop offset="0" stop-color="#cc6632"/><stop offset="1" stop-color="#653614"/></radialGradient><path fill="url(#g)" d="M5.8 2.8c-.5.3.6 1.1 1.1 1.1.9 0 1.5-.9 1.3-1.7-1.2 0-1.9.2-2.4.6"/><path fill="#231F20" d="M6.2 2.6c-.3.5.8 1.5 1.4.7.2-.2.3-.8.1-1-.3-.2-1 0-1.3.1"/><path fill="#FFF" d="M6.6 2.6c-.3-.1-.8.1-.8.5.3.2 1.4-.1.8-.5"/><path fill="#676767" d="M12.5 2.3c-.1-.1-.2-.3-.4-.4.1-.2.3-.4.4-.6.2.3.2.8.2 1m-2.1-.6c-.1-.2-.1-.3-.3-.5.2 0 .4.1.5.3 0-.3-.2-.6-.4-.9.2.3.7.4.8.9.1-.2.1-.4.1-.7.2.2.3.4.3.7 0-.1.2-.2.2-.2v.6c-.4-.8-1.1.5-1.3 0"/><path fill="#676767" d="M10.7 2.3c-.3.4.3.6.4.9.1.4-.3.5-.6.7-.5.5-1.1 1.1-1.6 1.3-.5.3-1.8 0-1.3-.6.4-.6 1.3-.8 1-1.7.8-.2 1.4-.2 2-.8" opacity=".37"/><path fill="#CCCBCB" d="M14.6 3.9c.5.7.7 1.6.4 2.6-.1-.9-.9-1.3-1.7-1.5 0 0-.8-.5-.2-.7.6-.2-.1-1.7.4-1.5.4.3 1.1.9 1.1 1.1z"/><path fill="#FAF39A" stroke="#CA9732" stroke-width=".25" d="M12.8 3.4c-.1-.1-.3-.2-.4-.1.1.1.3.2.4.3"/><radialGradient id="h" cx="-92.591" cy="155.354" r="1.805" gradientTransform="rotate(-11.227 -743.858 -455.72)" gradientUnits="userSpaceOnUse"><stop offset="0" stop-color="#cc6632"/><stop offset="1" stop-color="#653614"/></radialGradient><path fill="url(#h)" stroke="#2F1110" stroke-width=".25" d="M14.9 14.8c.4 1 1.4 2.7.3 3.6-1.5 1.1-2.6-1.6-3.3-2.4"/><linearGradient id="i" x1="-82.126" x2="-84.096" y1="191.456" y2="159.079" gradientTransform="rotate(-11.227 -743.858 -455.72)" gradientUnits="userSpaceOnUse"><stop offset="0" stop-color="#2f1110"/><stop offset="1" stop-color="#653614"/></linearGradient><path fill="url(#i)" stroke="#000" stroke-width=".25" d="M13.8 10c1.3.4 3.3 2.1 4.5 2.9 1.2.7 2.3 1.6 3.4 2.6 2 1.7 4 3.5 5.9 5.4.7.7 1.2 1.4 1.9 2.1.7.8 1.5 1.3 2 2.3-.7.1-1.4-.7-1.9-1.1-1-.7-2.1-1.1-3.1-1.7-1.7-.9-3.3-2-4.8-3.1-2.5-1.9-5-3.9-6.8-6.4"/><linearGradient id="j" x1="-85.816" x2="-77.939" y1="193.301" y2="153.462" gradientTransform="rotate(-11.227 -743.858 -455.72)" gradientUnits="userSpaceOnUse"><stop offset="0" stop-color="#2f1110"/><stop offset="1" stop-color="#653614"/></linearGradient><path fill="url(#j)" stroke="#000" stroke-width=".25" d="M22.7 18.5S30 23 33.1 27.3c3.1 4.4-5.4-.8-5.4-.8l-5.5-6.4.5-1.6z"/><linearGradient id="k" x1="-95.201" x2="-85.153" y1="180.688" y2="148.721" gradientTransform="rotate(-11.227 -743.858 -455.72)" gradientUnits="userSpaceOnUse"><stop offset="0" stop-color="#2f1110"/><stop offset="1" stop-color="#653614"/></linearGradient><path fill="url(#k)" stroke="#000" stroke-width=".25" d="M23.5 20.4c.7-.4-.6-2.8-1.2-3.4-1-1-2.3-1.8-3.5-2.5-.8-.4-2.9-2.2-3.8-1.7-1.4.8.9 2.9 1.5 3.5.7.6 1.6 1.2 2.4 1.6.6.4 1.5.6 1.9 1.3"/><linearGradient id="l" x1="-84.084" x2="-76.204" y1="193.656" y2="153.796" gradientTransform="rotate(-11.227 -743.858 -455.72)" gradientUnits="userSpaceOnUse"><stop offset="0" stop-color="#2f1110"/><stop offset="1" stop-color="#653614"/></linearGradient><path fill="url(#l)" stroke="#000" stroke-width=".25" d="M24.8 25.5s7.2 4.9 9.5 5.5c2.3.5 2.7.6 2.7.6s-2.6-3.3-3.9-4.2c-1.3-.9-10.6-5.9-10.6-5.9l2.3 4z"/><path fill="#CBCB98" d="M8.5 18.3c.5 2.6 2.7 3.9 4.9 5.3 1 .7 2 1.4 3.2 1.8.3.1 1.4.5 1.5 0 .1-.2-1.6-1.2-1.9-1.4-2.5-1.9-5.4-3.4-7.7-5.7"/><linearGradient id="m" x1="-93.9" x2="-83.839" y1="181.131" y2="149.118" gradientTransform="rotate(-11.227 -743.858 -455.72)" gradientUnits="userSpaceOnUse"><stop offset="0" stop-color="#2f1110"/><stop offset="1" stop-color="#653614"/></linearGradient><path fill="url(#m)" stroke="#000" stroke-width=".25" d="M15.4 15c2.3.9 4.5 2.2 6.4 3.9 1 .9 2.5 2.2 2.5 2.3.6 1 1.1 2.7.3 3.2l-9.7-7"/><linearGradient id="n" x1="-81.992" x2="-74.108" y1="194.076" y2="154.199" gradientTransform="rotate(-11.227 -743.858 -455.72)" gradientUnits="userSpaceOnUse"><stop offset="0" stop-color="#2f1110"/><stop offset="1" stop-color="#653614"/></linearGradient><path fill="url(#n)" stroke="#000" stroke-width=".25" d="M26.3 26.2c.9.9 2.5 1.2 3.6 1.8 1.2.7 2.2 1.4 3.5 1.9 1.1.4 2.3.8 3.2 1.5.9.6 1.6 1.6 2.4 2.4 0 0-12.6-2.3-14-4.6-1.4-2.3 1.3-3 1.3-3z"/><linearGradient id="o" x1="-92.358" x2="-82.311" y1="181.583" y2="149.614" gradientTransform="rotate(-11.227 -743.858 -455.72)" gradientUnits="userSpaceOnUse"><stop offset="0" stop-color="#2f1110"/><stop offset="1" stop-color="#653614"/></linearGradient><path fill="url(#o)" stroke="#000" stroke-width=".25" d="M15.8 17.6c2.5.5 5.5 3 7.4 4.7 1.1 1 2.4 2 3.2 3.3.4.6.9 1.3.7 2-.1.6-.6 1.2-1.2.9l-9.8-6.6"/><linearGradient id="p" x1="-92.148" x2="-82.099" y1="181.655" y2="149.681" gradientTransform="rotate(-11.227 -743.858 -455.72)" gradientUnits="userSpaceOnUse"><stop offset="0" stop-color="#2f1110"/><stop offset="1" stop-color="#653614"/></linearGradient><path fill="url(#p)" stroke="#000" stroke-width=".25" d="M17.5 21.3c.6.2 1.2.7 1.7 1.1.8.6 1.9 1.5 2.8 2.1 1.2.7 2.2 1.7 3.4 2.4.9.5 3.5 2.9 1.5 3.7 0 0-10.1-4-12.5-7"/><radialGradient id="q" cx="-89.649" cy="160.629" r="8.493" gradientTransform="rotate(-11.227 -743.858 -455.72)" gradientUnits="userSpaceOnUse"><stop offset="0" stop-color="#cc6632"/><stop offset="1" stop-color="#653614"/></radialGradient><path fill="url(#q)" stroke="#2F1110" stroke-width=".25" d="M16 15.9c1.4 1.6 3.2 4.2 2 6.3l-3.7-3.3"/><path fill="#653614" d="M17.6 21h.2c.3-.7.3-1.3 0-2-.1-.4-.5-1.7-1.1-1.7-.2 0-.7.5-.8.7-.3.5-.1.7.2 1.1.3.5.8 1.4 1.3 1.7"/><radialGradient id="r" cx="-89.649" cy="160.627" r="8.49" gradientTransform="rotate(-11.227 -743.858 -455.72)" gradientUnits="userSpaceOnUse"><stop offset="0" stop-color="#cc6632"/><stop offset="1" stop-color="#653614"/></radialGradient><path fill="url(#r)" stroke="#2F1110" stroke-width=".25" d="M11.8 21.7c1.1 1.1 5.1 5.2 6.4 2.8 1.2-2.2-1.6-5.8-3.3-7.2-.2-.2-.3-.3-.5-.3"/><radialGradient id="s" cx="-89.257" cy="153.081" r="4.135" gradientTransform="rotate(-11.227 -743.858 -455.72)" gradientUnits="userSpaceOnUse"><stop offset="0" stop-color="#cc6632"/><stop offset="1" stop-color="#653614"/></radialGradient><path fill="url(#s)" stroke="#2F1110" stroke-width=".25" d="M16.2 14.7c.6.7 1.3.5 1.1-.4-.1-.7-.5-1.3-.9-1.8-.3-.4-.8-1.1-1.5-1.1-1.1.1-.4 1.7 0 2.2"/><path fill="#653614" d="M14.8 11.5c.9-.2 3 2.5 2 3.2-1.1.7-2.1-2.3-2.1-3m-1.5 11.4c.8.4 1.6.8 2.5 1.3.7.3 1.6.9 2.1 0 .8-1.4-.7-3.9-1.5-5-.1-.2-.2-.4-.4-.6-.8.5-1.1 1.3-1.5 2.1-.3.7-1 1.3-1 2.1"/><radialGradient id="t" cx="-89.878" cy="156.488" r="5.378" gradientTransform="rotate(-11.227 -743.858 -455.72)" gradientUnits="userSpaceOnUse"><stop offset="0" stop-color="#cc6632"/><stop offset="1" stop-color="#653614"/></radialGradient><path fill="url(#t)" stroke="#2F1110" stroke-width=".25" d="M16.2 17.8c.9 1.4 1.1-1.2 1-1.9-.3-.9-.9-2.2-1.8-2.6"/><path fill="#653614" d="M16.2 17.7c.7.6.8-1 .8-1.3-.1-.7-.5-1.8-1-2.4-.5.3-.4 1.5-.4 2 0 .8.2 1.2.6 1.7"/><radialGradient id="u" cx="-90.763" cy="154.203" r="6.966" gradientTransform="rotate(-11.227 -743.858 -455.72)" gradientUnits="userSpaceOnUse"><stop offset="0" stop-color="#cc6632"/><stop offset="1" stop-color="#653614"/></radialGradient><path fill="url(#u)" stroke="#2F1110" stroke-width=".25" d="M15.4 16.4c1 .4.8-1.6.7-2.1-.2-.8-.6-2-1.3-2.4"/><path fill="#653614" d="M15.6 16c1.2-.1.1-3-.5-3.4-.4.9.2 2.2.4 3.1"/><radialGradient id="v" cx="-528.602" cy="156.781" r="3.555" gradientTransform="matrix(1.3682 -.2715 .1947 .981 708.54 -278.85)" gradientUnits="userSpaceOnUse"><stop offset="0" stop-color="#cc6632"/><stop offset="1" stop-color="#653614"/></radialGradient><path fill="url(#v)" stroke="#2F1110" stroke-width=".25" d="M14.8 15c.7.7 1.4 1.5 1.7 2.4.1.5.2 1-.1 1.5-.2.3-.8 1-1 .3L13 17.1"/><path fill="#653614" d="M14.7 18.6c.2.5 1.1.6 1.4.2.3-.5.2-1.4 0-1.9-.3-.7-.8-1-1.5-.5-.9.5-.4 1.4 0 2.1"/><radialGradient id="w" cx="-90.761" cy="154.201" r="6.96" gradientTransform="rotate(-11.227 -743.858 -455.72)" gradientUnits="userSpaceOnUse"><stop offset="0" stop-color="#cc6632"/><stop offset="1" stop-color="#653614"/></radialGradient><path fill="url(#w)" stroke="#2F1110" stroke-width=".25" d="M14.2 12.8c.3 1 3.2 4.5.5 4.8 0 0-1.2 0-2.1-1.7"/><radialGradient id="x" cx="-93.676" cy="159.941" r="12.193" gradientTransform="rotate(-11.227 -743.858 -455.72)" gradientUnits="userSpaceOnUse"><stop offset="0" stop-color="#cc6632"/><stop offset="1" stop-color="#653614"/></radialGradient><path fill="url(#x)" stroke="#2F1110" stroke-width=".25" d="M14.3 17.6c1 .9 2.2 3.5.9 4.9-1.5 1.6-3.7-.5-4.6-1.6"/><path fill="#653614" d="M11.8 21.9c.3.5 1.7.8 2.2.7.9 0 1.4-.9 1.4-1.8s-.5-1.7-.9-2.5c-.2-.4-.5-.9-.8-.8-.3.1-.9 1.1-1 1.4-.4.9-.4 1.9-.8 2.7"/><radialGradient id="y" cx="-93.675" cy="159.94" r="12.182" gradientTransform="rotate(-11.227 -743.858 -455.72)" gradientUnits="userSpaceOnUse"><stop offset="0" stop-color="#cc6632"/><stop offset="1" stop-color="#653614"/></radialGradient><path fill="url(#y)" stroke="#2F1110" stroke-width=".25" d="M13.7 19.3c.3.9.7 1.5-.1 2.3-.4.5-1.4.8-2 .3 0 0-3.5-2.3-4-4.1-.5-1.8 2.8.1 2.8.1"/><path fill="#653614" d="M13.8 17.2c.8.6 2.5-.1 1.6-1.6-.5-.8-.8-.5-1.3.2-.3.4-.4 1-.2 1.5"/><radialGradient id="z" cx="-90.761" cy="154.205" r="6.978" gradientTransform="rotate(-11.227 -743.858 -455.72)" gradientUnits="userSpaceOnUse"><stop offset="0" stop-color="#cc6632"/><stop offset="1" stop-color="#653614"/></radialGradient><path fill="url(#z)" stroke="#2F1110" stroke-width=".25" d="M15 12.6c.3.8.9 2.1.2 2.8-1.1 1.1-2-.1-2.5-1"/><path fill="#653614" d="M14.7 15.3h.2c.3.2.8-1.9.2-2.1-.2-.1-.8.4-.9.6-.2.3.1.9.3 1.2"/><radialGradient id="A" cx="-90.513" cy="155.884" r="12.271" gradientTransform="rotate(-11.227 -743.858 -455.72)" gradientUnits="userSpaceOnUse"><stop offset="0" stop-color="#cc6632"/><stop offset="1" stop-color="#653614"/></radialGradient><path fill="url(#A)" stroke="#2F1110" stroke-width=".25" d="M14.3 13.8c.3.7 1 1.4.7 2.2-1.2 1.6-1.7.6-2.9-.4"/><path fill="#653614" d="M8.1 18.4c.4.6 1.4 1.6 2 2 .6.5 1 .9 1.8 1.1.9.3 1.8-.6 1.8-1.5 0-1-1.9-1.7-2.7-2-.4-.1-.9-.3-1.4-.3-.5 0-.8.3-1.3.3"/><radialGradient id="B" cx="-90.762" cy="154.203" r="6.961" gradientTransform="rotate(-11.227 -743.858 -455.72)" gradientUnits="userSpaceOnUse"><stop offset="0" stop-color="#cc6632"/><stop offset="1" stop-color="#653614"/></radialGradient><path fill="url(#B)" stroke="#2F1110" stroke-width=".25" d="M14.5 13.5c.5 1 1.1-1 .7-1.7-.6-.9-1.7-1.2-2.3-.2"/><path fill="#653614" d="M14.6 13.2c.9.1.4-1.6.1-2-.2-.2-.8-.6-1-.2-.3.4.3 1.1.5 1.4"/><radialGradient id="C" cx="-94.446" cy="157.454" r="12.167" gradientTransform="rotate(-11.227 -743.858 -455.72)" gradientUnits="userSpaceOnUse"><stop offset="0" stop-color="#cc6632"/><stop offset="1" stop-color="#653614"/></radialGradient><path fill="url(#C)" stroke="#2F1110" stroke-width=".25" d="M8.3 17.5c1 .7 1.8 1.7 3 2.3 1 .6 2.7.6 2.9-.9.5-2.8-2.8-4-4.5-5.5"/><radialGradient id="D" cx="-90.433" cy="156.107" r="12.213" gradientTransform="rotate(-11.227 -743.858 -455.72)" gradientUnits="userSpaceOnUse"><stop offset="0" stop-color="#cc6632"/><stop offset="1" stop-color="#653614"/></radialGradient><path fill="url(#D)" stroke="#2F1110" stroke-width=".25" d="M13.8 14.2c2.7.3-.4-5-2-3.2"/><radialGradient id="E" cx="-95.046" cy="178.956" r="8.404" gradientTransform="rotate(-11.227 -743.858 -455.72)" gradientUnits="userSpaceOnUse"><stop offset="0" stop-color="#cc6632"/><stop offset="1" stop-color="#653614"/></radialGradient><path fill="url(#E)" stroke="#2F1110" stroke-width=".25" d="M13 27.2c0 2.8.9 4.4 2.1 6.8 1 2.1 2 2.5 2.1 5.9.2-.3 1.4-.6 1.5-.9.2.3.4.7.5 1 0-.2.6-.8.6-1.1l.6.9s.9-.5 1.1-.8c.1-.3 2.3-4.5 2.3-5.4"/><path fill="#653614" d="M13.8 13.7c.5.5.6-.4.6-.7 0-.5-.3-1-.6-1.3-.4-.5-1.9-1.6-2.1-.4m1.9 5.1c1.3.6 1.7-1.3.8-2-1.1-.9-1.6.9-1 1.6m-4.1 2c.1.6 1.3 1.3 1.9 1.5.8.3 2 .2 2.4-.6 1.3-2.3-2.4-2.6-3.8-2.7-.5 0-1-.2-1 .4 0 .5.2 1.2.4 1.5"/><radialGradient id="F" cx="-90.757" cy="155.57" r="11.771" gradientTransform="rotate(-11.227 -743.858 -455.72)" gradientUnits="userSpaceOnUse"><stop offset="0" stop-color="#cc6632"/><stop offset="1" stop-color="#653614"/></radialGradient><path fill="url(#F)" stroke="#2F1110" stroke-width=".25" d="M12.7 14.8c1.7.6 1.3-1.9.8-2.6-.7-1.1-2-1.9-3.1-.9"/><radialGradient id="G" cx="-93.246" cy="155.143" r="11.7" gradientTransform="rotate(-11.227 -743.858 -455.72)" gradientUnits="userSpaceOnUse"><stop offset="0" stop-color="#cc6632"/><stop offset="1" stop-color="#653614"/></radialGradient><path fill="url(#G)" stroke="#2F1110" stroke-width=".25" d="M12.7 13.7c.6 1.1 2.4 4.1-.1 4.1-1.4 0-3.6-1.5-3.8-2.9"/><path fill="#653614" d="M12.9 14.4c.7.4.9-1 .8-1.4-.2-.7-.7-1.3-1.3-1.7-.2-.1-.7-.5-.9-.3-.2.2.1.9.1 1.2.2.8.9 1.4 1.1 2.2"/><path fill="#653614" d="M10 16.3c.8 1.1 3.6 1.8 3.4-.2 0-.4-.1-1-.3-1.3-.3-.5-.6-.4-1.1-.2-1 .2-1.3.9-1.9 1.7"/><radialGradient id="H" cx="-93.243" cy="155.142" r="11.705" gradientTransform="rotate(-11.227 -743.858 -455.72)" gradientUnits="userSpaceOnUse"><stop offset="0" stop-color="#cc6632"/><stop offset="1" stop-color="#653614"/></radialGradient><path fill="url(#H)" stroke="#2F1110" stroke-width=".25" d="M11.9 12.5c.8.7 2.6 3.6.4 3.7-1.6 0-2.5-1.3-3.5-2"/><path fill="#653614" d="M10.8 15.3c.4.4 1.5.8 1.9.3.4-.4 0-1.5-.3-1.9-.3-.5-1.1-1-1.7-.8-.8.2-.6 1.5-.2 2"/><radialGradient id="I" cx="-97.356" cy="156" r="4.748" gradientTransform="rotate(-11.227 -743.858 -455.72)" gradientUnits="userSpaceOnUse"><stop offset="0" stop-color="#cc6632"/><stop offset="1" stop-color="#653614"/></radialGradient><path fill="url(#I)" stroke="#2F1110" stroke-width=".25" d="M9 16.3c1.5.6.6 2.7-1 2.2 0 0-2.2-3.4-1.9-4.5 1 1.5 2.6 2.2 2.9 2.3z"/><path fill="#653614" d="M7.5 17.9c.3.4 1 .5 1.4.3.6-.4.3-1.1-.1-1.6-.7-1-1.9-1.7-2.8-2.4-.1.7.4 1.4.7 2l.9 1.8"/><radialGradient id="J" cx="-95.215" cy="154.37" r="7.414" gradientTransform="rotate(-11.227 -743.858 -455.72)" gradientUnits="userSpaceOnUse"><stop offset="0" stop-color="#cc6632"/><stop offset="1" stop-color="#653614"/></radialGradient><path fill="url(#J)" stroke="#2F1110" stroke-width=".25" d="M8.2 11.4c1.3.3 4.1 3.1 2.9 4.6-1.2 1.4-4.6-.6-5-2 0 0-.1-1.6 2.1-2.6z"/><path fill="#653614" d="M8 11.5c.6-.1 1.6.8 2 1.3.5.6 1.1 1.4.6 2.2-.5.8-1.4.9-2.2.5-.6-.3-1.9-1.1-2.1-1.8-.1 0-.4-1 1.7-2.2z"/><linearGradient id="K" x1="-95.49" x2="-86.272" y1="171.096" y2="171.096" gradientTransform="rotate(-11.227 -743.858 -455.72)" gradientUnits="userSpaceOnUse"><stop offset="0" stop-color="#2f1110"/><stop offset="1" stop-color="#653614"/></linearGradient><path fill="url(#K)" d="M13.7 30.1c.2.7.6 1.3.8 1.9.1.3 1 2.1 1.4 1.3.1.4.3.9.6 1.2.3.3.9.7.9 0 .2.2.3.9.6 1 .4.1.5-.4.5-.8.4.6.9.1.7-.5.2.3.5.3.6-.1.1.4.2 1.1.5 1.3.6.4.8-.3.7-.8.5.6 1 .3.8-.5.4 1 1.3.3 1.6-.4.1-.4.2-.7 0-1.1-.2-.4-1.2-.7-1.8-.9-1-.3-2-.7-2.9-1.2-.8-.4-1.6-1-2.4-1.2-.5-.2-3.1-.7-2.8.4" opacity=".3"/><radialGradient id="L" cx="-94.1" cy="152.49" r="4.884" gradientTransform="rotate(-11.227 -743.858 -455.72)" gradientUnits="userSpaceOnUse"><stop offset="0" stop-color="#cc6632"/><stop offset="1" stop-color="#653614"/></radialGradient><path fill="url(#L)" stroke="#2F1110" stroke-width=".25" d="M7.9 11.5c.6.8 2.1 2 3.1 2.2 1.8.3 1.1-1.9.6-2.8 0 0-1.4-.4-3.7.6z"/><linearGradient id="M" x1="-89.642" x2="-91.612" y1="191.912" y2="159.535" gradientTransform="rotate(-11.227 -743.858 -455.72)" gradientUnits="userSpaceOnUse"><stop offset="0" stop-color="#2f1110"/><stop offset="1" stop-color="#653614"/></linearGradient><path fill="url(#M)" d="M12.6 25.5c-.2.4-.4 3.1-.3 3.5.2.4.8.9 1 .2 0 .4 0 1.3.2 1.6.4.5.9.4.8-.3 0 1.4 1.5 2.2 1.8.7 0 .9.4 1.6 1.1 2 .9.6 1 .1 1.5-.6.1.2.3.4.6.5l.3-.6c0 .4.3.6.6.5 0-.2.1-.3.1-.5.2.6 1.3 1.8 1.8.8.5.3.9.7 1.5.3.4-.3.6-1.1.4-1.5"/><path fill="#653614" d="M11.5 11c.6.2.5 2.5-.8 2.3-.7-.1-2.3-1.2-2.3-1.9-.1.1 1.8-.8 3.1-.4z"/><path fill="#CC6632" d="M22.1 24.6c-1.1-.8 1.8 1.4 3 2.1.9.5 4 3.2 2 4l-5.5-2.4s5.2 2.4 5.6 1.9c.5-.5.5-1.7-5.1-5.6zm4.6 3.2c.9-.3-1-2.7-1.1-3.1.4.2.9 1 1.1 1.5.2.3.8 1.4.2 1.8l-.2-.2m-2-4.2c.5-.2 0-1.6-.1-1.9-.3-.6-1-1-1.4-1.6.3 0 .6.5.8.7.3.3.4.5.6.9.2.3.3.7.4 1.1 0 .2.1.9-.1 1 0-.1-.2-.1-.2-.2" opacity=".5"/><path fill="#CC6632" d="M22.7 19.5c.9.6.5-.5.3-.9-.3-.6-.5-1.2-1-1.7.5.1.9 1.1 1.1 1.5.3.6.6 1.2.4 1.8-.3-.1-.5-.4-.7-.6m12.2 11s2 .8 3 2.1 1.1 1.2 1.1 1.2l-4.5-1s3.5.6 3.8.6c.3 0-1.8-2.3-3.4-2.9z" opacity=".5"/><path fill="#CC6632" d="M33.6 30s3.2 1.4 3.3 1.5c.1.1-3.3-4.4-5.4-5 0 0 2.7 1.7 4 3.6.5.5.7.8.7.8l-2.6-.9z" opacity=".5"/><path fill="none" stroke="#000" stroke-width=".25" d="M.9 8.1c0 .4.3.6.6.4 0 .8.7 1.6 1.4.9.2.7.9.1 1.1-.3M.9 6.7c-.1.4.4 1.7 1 1 0 .4.5.6.7.2m-.8 14.5c.2.4 2 2.7 2 1.1.3.4.9 1.2 1.5 1.2 1 .1.6-1 .6-1.6.8.9 1.1-.3 1-1 1.5.9 1.1-1.4.5-2.1" opacity=".51"/><path fill="none" stroke="#000" stroke-width=".25" d="M1.2 21.2c.2.4.7 1.4 1.3 1.5.9.2.8-.8 1-1.4.3.4 1 .8 1.4.2.4-.5-.1-1.4-.3-2l.2.2c.6-.1.4-.9.2-1.3m4.4 10.7c1.1 1 3.1.8 2.1-.9 1.6.4 2-.5.9-1.6.7-.5 0-1.2-.4-1.6" opacity=".51"/></g></switch></svg>
