<svg xmlns="http://www.w3.org/2000/svg" version="1.0" viewBox="0 0 221.6 130.8"><switch><g><ellipse cx="155.2" cy="109.8" fill="#FFF" rx="13.2" ry="13.3"/><path fill="#653817" d="M198.9 8c1.1.3 1.7-1.1 2.6-1.5 1.1-.4 1.3-.4 2.6.1 2.3.8 6 2.2 7.1 4.3 1.2 2.2.8 5.1 1.4 7.5.6 2.4 1.9 4.6 2.4 7 .6 2.8-.2 5.2-.1 8 .1 3.8 4.1 5.8 3.4 9.4-.7 3.7-2.2 6.7-3.3 10.2-.5 1.6-.5 2-2 3.3-1.8 1.6-2.6 2.7-3 4.9-.5 2.8-1.4 6.1-5.1 6 1.1 0 1.3-1.1 1.4-2-2.5.9-3 3.5-2.5 5.5.7 2.6.7 4-2 5.3 1.6-1.1 1.2-2.5.4-3.7-1.3-1.9-2.6-2.6-1.5-5.1-.7 1.1-.6 2.3-.6 3.5-3.7-2.2-.9-7.5 1.1-9.9-1.2.6-2.3 1.4-3.2 2.5-.3-3.6 5.2-5.8 6.3-8.9 1.3-3.5.9-8.1 1.6-11.8.6-3.4 2-6.6 2.1-10.1.1-2.7.1-5.7-.3-8.3-.4-2.4-2-3.8-2.8-5.9-1.1-2.9-1.6-4.8-3.6-7.2-.7-.8-1.4-2.4-2.6-2.7"/><path fill="#C99564" stroke="#663533" stroke-width=".5" d="M195.6 57.2s-1 13.3-.8 15.2c.2 1.9 1.4 1.9 1.1 4.3-.2 2.4-5.6 16-6 19.5-.4 3.5.1 5.5-1.3 6.6-1.4 1.1-2.2 1.3-2.2 2.6s-.6 3.7-.6 3.7l-3.4.1s-.9-4.6 2.9-12.2c3.9-7.5 3.9-11.8 3.6-14.4-.4-2.6-1.6-14.8-6.6-19.1-4.9-4.3.7-8.3.7-8.3l12.6 2z"/><path fill="#653817" d="M185.1 59.3c-.1 2.8 2.8 4 4.5 5.7 1.4 1.5 2.4 4.2 4.4 5 .7-3.1 1.1-8.8.4-12.1-.6-2.8-.6-2.6-3.4-1.8-2.4.7-4.5 2.1-7.1 2.5" opacity=".1"/><path fill="#FFF" d="M182.6 102.5c.8-1.1 1.4-2.4 2.4-3.2.1 0 .5 0 .7-.2.3-.2.4-.9.7-1.2.4-.5 1.2-1.2 1.8-1.4.9 1.4 1.2 3.1 1 4.8-.3 1.7-1.6 1.7-2.5 3.1-.4.6-.5 1.4-.7 2.1-.1.5-.1 1.9-.4 2.2-1.4 1.5-3.5-1.5-3.7-2.6" opacity=".43"/><path fill="#2E1313" d="M184.2 107.4c.6.3 1.3 1 1.5 1.5-.9.4-4.3.6-6.5.5-.1-1.1 1.8-2.4 2.7-2.6"/><path fill="#C99564" stroke="#663533" stroke-width=".5" d="M135 7.1s22.8-1 26.4-.4c3.6.6 14.9 3.7 18.5 5.4 3.6 1.7 4.3-10.5 30.3-.5 6.5 4 11.5 17.9 11.4 21.8 0 3.9-.8 16.6-3.9 20.8 0 0-.1 10.3-2.3 14.7 1.1 7.5-1.3 11.9-2 14.1-.6 2.2-1.4 13.3-.5 14.7.9 1.4-.9 3.6-.9 3.6l1.4 8.9-6 .2s.7-5.8 1-7.2c.3-1.4-1.1-4.5-.2-6.1.9-1.7 2.3-14.1 1.4-16.4-.9-2.2-.8-6.9-.5-8.9.3-1.9-2.2-19.2-3.7-19.5-1.5-.3-10.3 7.4-20.8 7.2.2 8.9-2.1 23.3-2.1 23.3s2 5 1.1 8.3c-.9 3.3-.1 11.6.4 12.8.6 1.1.9 2.2.5 4.4-.3 2.2 2.6 8.4 2.6 10 0 1.7-7.8.7-7.8.7s1.3-5.3 1.3-7.2-.9-3.6-.8-5.3c0-1.7.7-7.8.4-9.7-.3-1.9-4.3-12.3-3.7-16.1.6-3.9.4-8-.5-10s-3.5-9.2-5.6-8.9c-2.1.2-4.2-.9-4.5 2.2-.3 3-.8 16.9-.8 19.4s-1 5.5-1.6 6.4c-.6.8.2 8.3.8 10.6.6 2.2.2 3.9-.7 5.8-.9 1.9.2 8.6.2 8.6l-8.4.5s2.8-6.1 3.1-7.5 1-4.4 1-6.4c0-1.9.2-13-.4-14.4-.6-1.4-.2-6.1-.2-8.9s-2-7.5-2.9-8.4c-.9-.8-4.4-10.9-3.7-15-3.3-3.1-6.4-15.1-3.9-20.3-3-2.3-3.8-4.2-8.3-6.5l-6.6-14.8 1.5-6z"/><path fill="#653817" d="M156.4 59c-.6 2.8 2.2 5.7 3.9 7.6s2.9 3.8 4.3 5.8c.4-4 .4-6.8 1.3-10.5-3.1-.2-5.3-1.4-8.3-1.9" opacity=".1"/><path fill="#C99564" stroke="#663533" stroke-width=".5" d="M136.8 11.8S133.3.9 130.7.3c-2.7-.6-2.4 0-1.8 1.1.6 1.1.3 2.2.9 3.3s1.2 2.5 1.2 2.5l-3 .5s-6.8-4-8-5.4c-1.2-1.4-2.7 1.9.2 5 3 3.1 5 3.7 5 3.7s-3.7 6.4-4.6 7.4c-.9 1.1-2.1 3.3-1.6 6.6.6 3.3-4.4 13.5-5.3 16.3s-1.3 8.6 4.1 8.4c5.4-.2 4.8-3.8 7-5.2 2.1-1.4 7.6-6.6 9.7-7.1 2.1-.5 12.7-5.4 8.9-13.2"/><path fill="#FFF" d="M118.7 49c-3.7.9-5.7-1.4-5.6-4.8.1-1.7 1.3-4.4 2.2-5.8.8-1.4.8-2.5 1.8-3.9 0 .2.1 2 .1 2.1 1.2-1.3 1.5-3.3 2.7-4.6.1 1-.2 2-.1 3 .3-.1.7 0 1-.1.3.5.2 1 .3 1.6.1.7.2 1.2.3 1.9.2 1.3-.6 2.5 1.2 2.2 1.1-.2 1.6-1.2 2.8-.9.4.1.9.6 1.5.7.5.1 1.2 0 1.7 0-1.5 1.9-4.1 2.6-5.4 4.7-.6.9-.6 2.2-1.6 2.9-.8.6-2.7.9-3.7.9"/><path fill="#2E1313" stroke="#663533" stroke-width=".5" d="M128.3 23.9s.6-2.4 1.5-2.2c.9.1 1.8.7 2.5.9l.7.1s0 .6-.6 1.1c-.6.5-2 .8-2.7.7-.7-.1-1.8.4-1.8.4l.4-1z"/><path fill="#333" d="M117 43.4c.5-1.6 2.9 0 3 1 .2 1.2-1.3 2.3-2.6 2.1-.1-.9 1-1.3.7-2.3-.7-.1-1.3-.4-1-1"/><linearGradient id="a" x1="-6.013" x2="-3.342" y1="2.73" y2="2.73" gradientTransform="translate(135.348 .01) scale(2.7704)" gradientUnits="userSpaceOnUse"><stop offset="0" stop-color="#996766"/><stop offset="1" stop-color="#653817"/></linearGradient><path fill="url(#a)" d="M125.1 11.1c2.5-2 .1-2.2-2.1-3-1.7-.7-4.1-2.1-4.3-4 0 0 .2 4.3 4.4 6"/><path fill="none" stroke="#663533" stroke-width=".5" d="M127.9 20.7c1.2-1.6 5.9.2 5.5 1.7"/><path fill="#653817" d="M119.4 42.4c-.9-.9-3.9-1.2-3.5.8 0 0-.4-4.4 3.5-.8z" opacity=".1"/><ellipse cx="132" cy="23.2" fill="#FFF" rx=".4" ry=".3"/><path fill="#FFF" d="M131.4 23.7l-.2-.2c-.3.4-1.2.3-1.7.3.5.4 1.6.1 1.9-.1"/><path fill="none" stroke="#663533" stroke-width=".5" d="M148.5 34.6c3.1 1.6 8.3 5.9 8.5 9.5m27.7 15.2c.2-1.8-.5-2.4.6-4 1.3-1.8 2.4-3.5 3.1-5.7 1.9-5.6-.8-11.2-2.2-16.7m-19.1 28.7c-4.9-.1-7.7-.7-11.5-3.5m15.7 3.6c-1.1-.3-1.4-4.4-1.5-5.8m35.2-3.8c4-2.4 6.8-6.5 9.1-10.6 2.7-4.8 2.4-10.4 2.4-15.7m-79.7-14.3c1.8 1.3 3.5 1.2 3.1 3.9"/><path fill="#FFF" d="M181.1 116.7c-.7-.9-.7-4.4.2-5 0 .2.1.4.1.6.4-1.1 0-4.5 1.1-5.1 1.7-.9 1.7 3.2 1.9 4.1.4 1.5 1.9 3.3 1.9 4.8 0 1.1-1 1-2.1 1.1-.9.1-2.8.4-3.3-.5" opacity=".43"/><path fill="#653817" d="M154.8 31.9c3.7 1.6-6.1-5.4-8.7-8.4 0 0 1.6 5.3 8.7 8.4z" opacity=".1"/><path fill="#FFF" d="M157 111.9c.5-.8 1.2-1.9 1.7-2.8 0 .3.2.7.1 1 .6-.7.6-2 1.2-2.9.3-.5.8-.7 1-1.2.3-.5.3-.9.6-1.4.1.8 0 1.7-.1 2.5.1-.2.4-.4.6-.7 0 1.1-.1 2.4.1 3.5.3 1.1.5 1.9.4 3.1-1.9.1-3.5.3-5.1-.7" opacity=".43"/><path fill="#2E1313" d="M179.5 119.1l.7-3.1s3.8 1 6.4-.3c.2-.4.7 2.5.7 2.5s.7 2.2-7.8.9z"/><path fill="#FFF" d="M208.1 107.7c-.5-1.4.1-4.5 1.1-5.6.1.1.3.2.4.3 0-.5.4-.7.5-1.1 1.7.9 2.8 4.9 2.6 6.6-1.3.4-2.9.2-4.3.2" opacity=".43"/><path fill="#2E1313" d="M156.9 111.8s4.2 1.3 6.4.2c.2.2.5 2.8.5 2.8l-8.4.5 1.5-3.5zm51-4.4c2.2.2 2.5.4 5.1-.1 0 .2.6 3.1.6 3.1l-6.2.2.5-3.2z"/><path fill="#FFF" d="M120.7 36.4c.6-.5.2-1 .5-1.7.3-.9 1.1-1.3 1.7-2 .9-1 2.2-3.3 2-4.7-.3-1.6-1.7-3.6-2.2-5-.3-1-.9-2-.7-3 .1-.8.6-1.3.4-2.1-2.2.1-2.8 4.4-2.7 6 .1 2.3.1 4.8-.8 7-.6 1.5-1.6 2.9-2.2 4.4-1.2 3.1 2.3 2.2 4 .9" opacity=".6"/><path fill="none" stroke="#663533" stroke-width=".5" d="M143 24.3c1.3-.1 2.3 1.2 3.5 1.6"/><linearGradient id="b" x1="-2.229" x2="-.62" y1="2.202" y2="2.202" gradientTransform="translate(135.348 .01) scale(2.7704)" gradientUnits="userSpaceOnUse"><stop offset="0" stop-color="#996766"/><stop offset="1" stop-color="#653817"/></linearGradient><path fill="url(#b)" d="M133.7 11.6c0-2.1.2-4.2-.4-6.2-.5-1.6-2-4.6-4-4.8.1 1.9 1.5 4.1 1.9 6 .4 2 1.2 3.4 2.4 5.1"/><path fill="#653817" d="M130.5 7.3c-2.6 0-6.3 2.3-6.3 5.2.5-.3 1-.5 1.6-.7-1.7 1.1-1.8 3.4-1.7 5.3.5-.6 1-1 1.7-1.4-.2 1.1-.9 2.1-.9 3.4s.6 2.3 1.1 3.4c-.4-1.8 1.2-2.8 2.4-3.9s1.9-2.1 2.6-3.5c.6.4 1 1.1 1.1 1.9 3.2-1.5-.9-7.9-1.5-9.8M136 10c2.2 1 8.4-.8 8.4 3.5.6-.5 1-.9 1.2-1.8 1.1 1.3 1.5 3.6 0 4.7 2-.7 4.2-3.1 2.6-5.2.4.5 1.2.9 1.7 1.3.3-.9.2-2 .3-3 2.3-.1 4.6-1.1 6.6-1 1.1 0 2.2.9 3.3 1 1.2.1 2.2-.4 3.3-.4 2.1-.1 3.8.6 5.5 1.6 1.2.7 4.9 4.1 2.2 5.4 2.2-.3 1.4-3 1.4-4.5 1.4 0 2.1-1.3 3.7-1-5.5-4.3-14.3-4.9-20.9-5.2-1.8-.1-3.7-.7-5.5-.7-1.9 0-3.6.7-5.5.9-2.9.3-7.4-.9-9.8 1"/><path fill="#FFF" d="M208.7 20.3c.8 1.1 1 1.7.7 3-1.4-.3-2.3-2.5-1.3-3.7l.3.3m-4.7-4.9c1.6.1 3.1 1.3 3.5 2.6 0-.3.1-.6.1-.9.3.4 1.2.8 1.6 1.1.5-2.7-3.5-5.3-5.9-5.2.3.2.7.7.9.9-1-.1-1.8.3-1.9 1.2.5.1.7.4 1.2.5m-.2 1.7c1.1.7 3 1.5 3.1 3.1-.3-.1-1 0-1.4-.2.1.9.3 1.7 0 2.6-1-.8-6-5.5-1.9-5.7M192 17.9c1.5 0 3-.1 4.5.1-.4.2-1.1.7-1.6 1 .9.5 1.9 1.3 2.3 2.3-.4-.1-1 .1-1.4.1.3.5.1.9.6 1.4-2.4.2-3.8-1.9-5.4-3.3 0 .2.5-.3.5-.3-.4-.4-.5-.8-.7-1.2.3-.1.6 0 .9 0" opacity=".26"/><path fill="#653817" d="M181 12.4c3.4.7 7.3 1.1 10.7.3 1.9-.4 7.1-1.6 7.4-3.8-2.7-.5-5.5 2.1-7.8 3.1-3 1.3-6.2 1.3-9.3.7m4 41.8c1.3 2 7.2.9 9.5.4 2.9-.7 6.4-3.5 9.2-3.5-4.1 3.8-14.8 8.7-20 6.9" opacity=".1"/><path fill="#FBCB98" d="M169.5 43.1c.8 1.5-.1 3.7-.3 5.4-.3 2.6.4 3.5 1.2 5.7 1 2.9.6 8.2 4.2 9.5 0-5.1.7-18.8-4.7-21" opacity=".26"/><path fill="#FBCB98" d="M153.1 40.5c-.3 1.7-.7 3.3-.6 5 .1 2.1 1.6 3.6 1.8 5.5.7 5.2-3.9-.4-4.7-2.5-.6-1.7-1.9-7-1.5-8.7.9-4 3.8-1.9 5.7.4" opacity=".15"/><path fill="#653817" d="M130.3 25.6c-1.1 1.2-1.7 3-1.6 4.7-1.6-1-2.1-3.1-1.8-5 1.2-.1 2.5 0 3.8 0" opacity=".1"/><ellipse cx="155.2" cy="110.2" fill="none" stroke="#DAA827" stroke-width="3" rx="13.9" ry="14"/><path fill="none" stroke="#DAA827" stroke-width="3" d="M141.3 110.2l-61.1.4"/><ellipse cx="45.5" cy="84.3" fill="#FFF" rx="43.5" ry="43.7"/><linearGradient id="c" x1="-38.436" x2="-26.688" y1="44.116" y2="27.995" gradientTransform="translate(135.348 .01) scale(2.7704)" gradientUnits="userSpaceOnUse"><stop offset="0" stop-color="#676767"/><stop offset="1" stop-color="#2e1313"/></linearGradient><path fill="url(#c)" stroke="#333" stroke-width=".5" d="M33.9 88.8c-3.6 7.1-7.6 14.5-9.4 21.9 6.5 2.1 14.2 1.8 21.1 2 1.8 0 8.2.7 9.6-.3 1.2-.8 1.2-4.7 4.5-8.5L33.9 88.8z"/><path fill="#C99564" stroke="#663533" stroke-width=".5" d="M51.8 42.4c-1.1 12-2.7 23.3-7.4 33.6-1.6 3.5-2.1 4.2-5 6-2.3 1.5-5.5 3.4-6.6 6-1.6 3.7 1.2 3.4 4.2 4.9 2.6 1.3 5 2.8 7.5 4.2 2.9 1.7 13.4 10.4 16.3 6.9 1.4-1.7 0-7.4.3-9.6.3-3.1 1.7-5.7 2.2-8.8 1.2.7 1.8 2 1.7 3.4.5-1.5 1-2.8 1.1-4.4.7 1.2.9 2.9.8 4.4 3.3-3.3 1.8-7.9 2.1-12 .4 1 1.3 1.9 2.3 2.4-.7-3 .4-5.7.5-8.8.6.8 1.5 1.8 2.4 2.4.3-6.5-2.2-15.2-.3-21.2-.2.2-15.1-11.5-22.1-9.4z"/><path fill="#FFF" d="M63.1 85.2c-.4-2.4-.2-5.3.7-7.5-.8.4-1.6.8-2.5 1.1 1.7-3.5 1.4-7.2-.8-10.5-.6 3.3-2.8 6.8-5.9 8.4.5-1.5.7-3.2 1.4-4.6-2.8.5-3.2 2-4.5 4.2s-3.4 2.3-5.2 3.9c-.1-.9 0-1.8-.1-2.7-.7.9-2.4 2.9-3.2 2.1 0 0-3.3 2.8-5.6 4.2-2.3 1.4-4.3 3.9-4.3 3.9-1.6 3.7.9 3.5 3.8 5 2.6 1.3 5 2.8 7.5 4.2 2.9 1.7 13.4 10.4 16.3 6.9 1.4-1.7-.2-7.3 0-9.5.3-3.2 2-5.9 2.4-9.1z" opacity=".39"/><ellipse cx="45.5" cy="84.3" fill="none" stroke="#DAA827" stroke-width="3" rx="43.5" ry="43.7"/></g></switch></svg>
