<svg xmlns="http://www.w3.org/2000/svg" xmlns:xlink="http://www.w3.org/1999/xlink" id="Capa_1" x="0" y="0" version="1.0" xml:space="preserve" viewBox="0 0 220 129"><style>.st0{fill:#924693}.st1{fill:#802123}.st4{fill:#ecc6b2}.st12{fill:#c0e1f7}.st16,.st18{fill:#c5bfb5;stroke:#888076;stroke-width:.25}.st18{fill:#888076}.st23{fill:#769648}.st24{fill:#efe772}.st25{fill:#949641}.st26{fill:#5c3d21}.st27{fill:#8abc4f}.st28{fill:none;stroke:#4b693a}.st29{fill:#cd403d;stroke:#823b27;stroke-width:.75}.st30{fill:#f1cc46}.st32,.st33{fill:#bc9668;stroke:#969696;stroke-miterlimit:10}.st33{fill:#8abd6b}.st38,.st39{stroke-width:.25;fill:#373736;stroke:#000}.st39{fill:#bb963d;stroke:#5c3837}.st40{fill:#fff}.st43{stroke:#5c3837;stroke-width:.25;fill:none}.st46,.st50{stroke:#486694}.st46{fill:#fff;stroke-width:.25}.st50{fill:#5e96c7}.st52{fill:#a58e3b}.st54{fill:#f2d6bc;stroke:#d1a986;stroke-width:.25}.st56{fill:#0b0b0d}.st60{fill:#5b391d}.st61,.st64{fill:#8a6638;stroke:#5b391d;stroke-width:.25}.st64{fill:#bb9567;stroke:#8a6638}</style><switch><g><symbol id="Deleted_Symbol_1" viewBox="-35.7 -21.9 71.4 43.7"><path d="M-27.5 1.6c-.5 1.6-2 2.8-2.9 3.5 1.2-3.1 1.9-6.4 1.5-9C-28-2.1-27 0-27.5 1.6zm45.8 0C19.7-1.5 30.4-10.1 33-16.8c-.2 1.3-.5 2.8-.9 4.3-.7 2.5-1.6 4.9-2.5 6.5-.3.6-.6 1.3-.7 2.1C28-2.1 27 0 27.5 1.6s2 2.8 2.9 3.5c1 2.6 2.3 5.2 3.4 7.2.3.6.7 1.1 1 1.6.6 1 .9 2 .9 2.9-1-.9-2.7-1.8-5.7-2.8-5.6-2-13.7-8.2-11.7-12.4z" class="st0"/><path d="M29.1 21.8C22 20.9 8.9 10.5 7.3 8.8 6 7.4 5.9 7.4 5.9 7.5c0-.5-.5-7 1.6-11.2.2-.3.4-.7.7-1C12.8-8.5 30.6-18 30.9-20.1c.1-.9-.4-1.2-1.1-1.3l.1-.1c2.8-1.4 3.4 1.1 3 4.7-2.5 6.7-13.2 15.3-14.6 18.4C16.3 5.8 24.4 12 30 14c3 1.1 4.8 1.9 5.8 2.8-.1 3.1-3.4 5.4-6.7 5z" class="st1"/><path d="M27.5 1.6C27 0 28-2.1 28.9-3.9c-.4 2.6.3 5.8 1.5 9-1-.7-2.4-1.9-2.9-3.5z" class="st0"/><path d="M-31.2 16.4s-.5 2.2 1.7 2.5c2.2.2 17.4-8.4 17.4-8.4S-23.5 16-26 15.7c-2.5-.3-4.5-1.1-5.2.7zm43.9-6.1s12.1 9.4 18.4 9.4c.7 0 2.3-3.8-.4-2.8-3.5 1.3-18-6.6-18-6.6z" class="st4"/><path d="M5.9 5s8.2 5.9 8.7 4.9-6.2-4.5-6.2-4.5 5 .9 5.2.2c.2-.7-6.4-1.7-6.4-1.7s6.6-2.6 6.6-3.3C13.7-.2 7.5 2 7.5 2s6.8-7.8 5.9-8.2C12.5-6.5 7.3-.6 6.6.2c-.7 1-.7 4.8-.7 4.8zM-6.2 5s-8.2 5.9-8.7 4.9 6.3-4.5 6.3-4.5-5 .9-5.2.2c-.2-.7 6.4-1.7 6.4-1.7S-14 1.3-14 .6c0-.7 6.3 1.6 6.3 1.6s-6.8-7.8-5.9-8.2c.9-.3 6.1 5.6 6.8 6.4.6.8.6 4.6.6 4.6z" class="st1"/><path fill="#83368d" d="M-8.6-2.7c.1-1.5.7-2.5 1.8-2.6 4.1-.3 14.5 0 14.3 2.3v.3c-6-1-12.1-.5-16.1 0zM7.3-.3c-.3 3-.8 6.9-1.6 8-1.1 1.4-10.3 1.6-11.6.5-.7-.6-2.3-5.1-2.7-8.7 2.3-.7 7.7-1.9 15.9.2z"/><path d="M-5.7 6.4s.9 1.2 4.7 1.2c3.8 0 6.4-1.4 6.4-1.4S5 4.6 3.3 5.1c-1.7.5-3.6 1.9-5.6 1-1.9-.8-3.9-1.5-3.4.3zm-26.1-26.2s1.9 3.9 11.4 8.7c0 0-11.3-4-11.4-8.7zM17-8.4s15.5-8.2 15.2-10.9c0 0-13.1 9.5-15.2 10.9z" class="st4"/></symbol><linearGradient id="SVGID_1_" x1="0" x2="220" y1="79.086" y2="79.086" gradientUnits="userSpaceOnUse"><stop offset="0" stop-color="#f0c96d"/><stop offset="1" stop-color="#a6c96d"/></linearGradient><path fill="url(#SVGID_1_)" d="M0 29.5h220v99.2H0z"/><path d="M.9 0h218.7v22.2H.9z" class="st12"/><linearGradient id="SVGID_2_" x1="1.759" x2="221.325" y1="21.141" y2="21.141" gradientTransform="translate(-1.248 .605)" gradientUnits="userSpaceOnUse"><stop offset="0" stop-color="#c0c249"/><stop offset="1" stop-color="#7bab4f"/></linearGradient><path fill="url(#SVGID_2_)" d="M219.7 14.5s-6.9-1.4-8-1.3c-1.1.1-6.5 1.9-7.9 2-1.5.2-5.5.7-6.9.6-1.5-.1-6.1-1.8-9-1.5-2.9.4-5.6 1.9-7.5 1.9-1.8 0-5.1-.2-6.2-.3-1.1-.1-4-.5-4-.5s-2.6.4-3.7.6c-1.1.2-5.5 1.2-7.3 1.2-1.8 0-4-.4-4.8-.2-.7.2-1.8-.1-2.9-.2-1.1-.1-2.2 0-3.7.3s-2.6.5-3.3.9c-.7.3-3.2.1-4.1.6-1 .4.1.7-2.4.8-2.6.2-2.2-.4-3.7-.3-1.5.1-2.4.3-3.7.5-1.2.1-12.1 1.8-14.3 1.9-2.2.2-2.9.5-4.4.7-1.5.2-1.8.1-4.8.3-2.9.2-5.5.2-6.6.4-1.1.2-2.2.2-2.2.2s.7-1.5-1.8-1.8c-2.6-.3-4.4.5-6.6.5-2.2 0-10-.5-12.1-.9-.9-.2-3.9-1.5-12.5-3.5-11-1.2-21.6-.6-22.9-.8l-4-1.3s-1.8-.8-2.9-.7c-1.1.1-3.7.1-4.7 0-1.1-.1-2.2-.2-3.3-.5-1.1-.2-1.1-.6-2.6-.5-1.5.1-3.3.2-5.1.2-1.8.1-2.6.2-4.4-.3-1.8-.5-3.3-.9-4.7-1.1C9.5 12.2.5 12 .5 12L.4 29.9 220 32.1l-.3-17.6z"/><linearGradient id="SVGID_3_" x1="8.225" x2="221.2" y1="25.099" y2="25.099" gradientTransform="translate(-1.248 .605)" gradientUnits="userSpaceOnUse"><stop offset="0" stop-color="#3b693d"/><stop offset="1" stop-color="#90be4f"/></linearGradient><path fill="url(#SVGID_3_)" d="M219.6 32.4c0-2.9 1-8.4-.6-10-5.2.2-10.8.4-15.7-.1-4.7-.5-8.8-2-13.5-2.2-7.3-.4-18.6 1-26 1.5-10 .6-16.6 2.8-26.8 1.1-9.4-1.6-15.7-2.5-25.8-2.3-9.5.2-17.8.8-26.9 1.6-9.1.8-16.6-1.2-26-1.6-17.5-.7-43.8 2.7-51.3 10"/><path fill="#fffffa" d="M204.7 5.4c-.1-.4.5-.2 1-.2.5-.4 1.2.1 1.5-.2.6.1 1.1 1 .9.1.1.5-.1-.2 0 .3.1.7.4.1 1.1-.1.7-.1.9.1 1.4-.1.3.1.8-.3 1.3.1.5.1.8-.9.9.1.1.3.2-.4 1.1-.2.5.5.7-.1 1 .1.3.1.5.5.4.1 0 .3.6-.2.2.2-.5-.4-.2.5-1 .2-.7.2-.5-.7-.7 0-.2-.3-.5-.2-.6.2-.3-.1-.5 0-.5.1-.1.1 0-.4-.5.2-.6-.2-.7-.3-1.2-.2-.5 0-.6.1-1.3 0-.6.8-1.4-.5-1.6.1-.2-.2-.3.2-.6-.1-.3-.1-.5.3-.8.1-.2.5-.4.2-.6.3-.2.2-.4.2-.6 0-.4-.1.3-.1-.4-.1s.4-.2-.2-.6c-.6-.2-.2-.5-.2-.4zm-99-2.2c-.1-.6.8-.3 1.8-.3.9-.7 2.1.2 2.5-.3 1.1.3 1.8 1.7 1.5.1.1.8-.2-.3-.1.6.2 1.2.7.3 1.8-.2 1.1-.2 1.5.1 2.3-.1.5.2 1.3-.5 2.2.2.8.2 1.3-1.5 1.6.1.1.6.4-.7 1.8-.3.8.9 1.2-.2 1.7.2.4.1.8.9.7.2.1.5 1-.4.4.3-.8-.8-.4.9-1.6.3-1.1.3-.9-1.2-1.2.1-.3-.6-.8-.4-1.1.3-.4-.1-.8 0-.8.2-.1.2.1-.7-.8.3-1.1-.4-1.3-.4-2.1-.4-.9 0-1 .2-2.2 0-1 1.3-2.3-.9-2.7.2-.3-.3-.6.3-1.1-.1-.5-.2-.8.4-1.3.2-.3.8-.7.4-1.1.5-.3.4-.6.4-1 0-.7-.1.5-.1-.7-.2-1.2 0 .7-.4-.3-1-.9-.5-.3-1.1-.2-.9zM163 6.1c-.2-.6-1.2-.2-2.4-.2-1.4-.6-2.7.3-3.5-.2-1.3.3-1.5 1.8-1.9.2.2.8.1-.3.4.6.3 1.2-.8.3-2.5 0-1.6-.2-2 .2-3.1 0-.5.2-1.9-.4-2.8.3-1 .2-2.4-1.4-2 .2.2.6-.9-.7-2.5-.2-.7.9-1.7-.1-2.2.3-.5.1-.7.9-.8.3.1.5-1.4-.3-.4.4.7-.8.9.8 2.3.2 1.6.2.6-1.3 1.6 0 .2-.6.8-.4 1.6.3.5-.1 1 0 1.2.2.3.2-.4-.6 1.2.3 1.2-.4 1.4-.5 2.5-.5 1.1-.1 1.4.1 2.9-.1 1.9 1.3 2.6-1 3.6 0 .3-.3.9.3 1.3-.2.5-.3 1.3.4 1.8.1.8.8 1.1.3 1.6.4.6.4 1 .3 1.4-.1.9-.2-.8-.1.8-.2s-1.1-.4 0-1c1-.8-.2-1.3-.1-1.1zM64.1 4.7c-.1-.6.7-.3 1.5-.3.7-.7 1.8.2 2.2-.3.9.3 1.6 1.7 1.3.1.1.8-.2-.3-.1.6.3 1.2.7.2 1.6-.2 1-.2 1.3.1 2-.1.4.2 1.1-.5 1.9.1.7.2 1.1-1.5 1.3.1.2.7.4-.7 1.6-.2.7.9 1.1-.2 1.5.2.4.1.7.9.6.2.1.5.8-.4.3.3-.7-.8-.3.9-1.4.3-1 .3-.8-1.2-1 .1-.3-.6-.7-.4-.9.3-.4-.1-.7 0-.7.2-.1.2 0-.7-.7.3-.9-.4-1.1-.5-1.8-.4-.7 0-.8.2-1.9 0-.8 1.3-2-.9-2.3.2-.3-.3-.5.3-.9-.1-.4-.2-.7.4-1.1.2-.2.8-.6.4-.9.5-.2.4-.5.4-.9 0-.6-.1.4-.1-.6-.2-1.1-.1.6-.4-.3-1-.9-.5-.3-1.1-.3-.9zm16.9 8c-.1-.4.5-.2 1.1-.2.5-.4 1.2.1 1.5-.2.6.1 1 1 .9.1.1.5-.1-.2-.1.3.1.7.4.1 1.1-.1.7-.1.9.1 1.4-.1.3.1.8-.3 1.3.1.5.1.8-.9.9.1.1.3.2-.4 1.1-.2.5.5.7-.1 1 .1.3.1.5.5.4.1 0 .3.6-.2.2.2-.5-.4-.2.5-1 .2-.7.2-.5-.7-.7.1-.2-.3-.5-.2-.6.2-.3-.1-.5 0-.5.1-.1.1 0-.4-.5.2-.6-.2-.7-.3-1.2-.2-.5 0-.6.1-1.3 0-.6.8-1.4-.5-1.6.1-.2-.2-.3.2-.6-.1-.3-.1-.5.3-.8.1-.2.5-.4.2-.6.3-.2.2-.4.2-.6 0-.4-.1.3-.1-.4-.1s.4-.2-.2-.5c-.6-.4-.2-.7-.2-.6z"/><path d="M44.7 10.4L21 37.9l168.9.7-29.2-28.1z" class="st16"/><path fill="#f4f1a8" stroke="#130e0f" stroke-width=".25" d="M36.4 56l149.3 1.9 1.8-19.4L37 39.8z"/><path d="M96.8 40l-.6 18-4.6 1.1.6-19.3zm25.5-1h4.2l-.7 20.1-3.2-.1-.3-20z" class="st18"/><path d="M109.5 37.3h3.4V48h-3.4z" class="st16" transform="rotate(-88.04 111.164 42.688)"/><path d="M110.4 38.4h1.1v8.7h-1.1z" class="st12" transform="rotate(-88.04 110.971 42.76)"/><path fill="#fdfcf4" stroke="#4e4c49" stroke-width=".25" d="M108.894 57.494L109.322 45l4.597.157-.428 12.493z"/><path d="M56.9 40.9H68v7.9H56.9z" class="st16" transform="rotate(-88.04 62.488 44.912)"/><path d="M60.6 40.4h4.1v4.3h-4.1z" class="st12" transform="rotate(-88.04 62.667 42.48)"/><path d="M60.8 45.8h3.5v4.3h-3.5z" class="st12" transform="rotate(-88.04 62.482 47.877)"/><path d="M40.8 40.9l-.5 14.2 2 .1-.5-14.8zm11.7-.7l.2 14.4h1.4l-.5-14.8zm14.6-.7L66.5 56l2 .1-.4-17.1zm79.8 1l.2 17.3 1.9.1-.7-17.7z" class="st18"/><path fill="none" stroke="#130e0f" stroke-width=".25" d="M48.4 10.4L24.9 37.9M51 10.5L27.5 38.9m26-28.3L32.6 38m23-27.6L36.2 38.1m22.7-27.7L38.8 38m24-27.6L41.9 38.1m24-27.6L45.5 37.1m23.6-26.2L49.1 38m23.7-27.6L53.6 38M76 10.4L57.9 37.5m20.7-27.1L61.8 38.1m18.7-27.7L65 37.3m18.3-26.7L68.2 37.9m17.7-27.5L71.8 38.1m17.4-27.7L76.8 37.3M92 10.4L79.5 37.8m16-27.4l-13 27.8m15.3-27.5L85.3 37.6M100 11.1L87.5 37.7m16.1-27L90.3 38.2m16.1-27.8l-11 27.5m9.7-27.5L93.3 37.9M109 10.4L98.7 37.2m11.8-26.6l-7.9 27.6m10.6-27.5L106 37.5m9.1-26.8l-5.5 26.9m8-27.2l-5.3 27.3m8.4-27.3L115.6 36m6.2-25l-2.9 25.1m4.3-25.2l-.9 27.1m4.4-27.4l-.2 28.4m2.6-28.6l.3 27m2.1-27l.2 27.1m2.1-27.1l2.4 28m-.8-27.7l3.6 27.9m-1.3-27.9l5 27.7m-2.1-27.3l5.3 27.7m-2.3-28l4.7 27.6m-1.8-27.9l4.9 27.9m-2-27.9l6.2 26.9m-2.7-26.3l6.4 26.4m-4.5-26.9l7.7 27m-5.9-27.1l10 27.3m-7.5-27.2l10.6 27.3m-9-27.4L172.9 38m-8.1-23.6l10.9 23.7m-5.3-18.3l7.5 18.4m-3.5-15.5l6 14.6m.3-8.6l2.6 8.7m1-4.3l1.6 5.3m.7-3.1l1.7 4.4"/><path d="M171.5 39.3l.1 17.3h2l-.7-17.6zm-83.9-2.5v-1.6l23.1-7.3 21 8.1v2.3l-20.6-8.5z" class="st18"/><path fill="#443d38" stroke="#443d38" stroke-width=".25" d="M87.6 36.8l23.5-7 20.6 8.5-44.2-.2z"/><path d="M74.6 41.5h11.1v7.9H74.6z" class="st16" transform="rotate(-88.04 80.22 45.52)"/><path d="M78.3 41h4.1v4.2h-4.1z" class="st12" transform="rotate(-88.04 80.4 43.086) scale(.99999)"/><path d="M78.5 46.4H82v4.2h-3.5z" class="st12" transform="rotate(-88.04 80.213 48.484)"/><path d="M128.6 43.4h11.1v7.9h-11.1z" class="st16" transform="rotate(-88.04 134.184 47.367)"/><path d="M132.3 42.8h4.1v4.3h-4.1z" class="st12" transform="rotate(-88.04 134.363 44.934)"/><path d="M132.4 48.2h3.5v4.3h-3.5z" class="st12" transform="rotate(-88.04 134.178 50.332)"/><path d="M153.9 44.3H165v7.9h-11.1z" class="st16" transform="rotate(-88.04 159.433 48.232)"/><path d="M157.5 43.7h4.1v4.2h-4.1z" class="st12" transform="rotate(-88.04 159.613 45.798)"/><path d="M157.7 49.1h3.5v4.2h-3.5z" class="st12" transform="rotate(-88.04 159.428 51.196)"/><path d="M21 37.9l-.1 1.8h14l156 .7-1-1.8z" class="st18"/><linearGradient id="SVGID_4_" x1="191.636" x2="213.375" y1="120.605" y2="146.17" gradientUnits="userSpaceOnUse"><stop offset="0" stop-color="#8abc4f"/><stop offset="1" stop-color="#5f954d"/></linearGradient><path fill="url(#SVGID_4_)" stroke="#5f954d" stroke-width=".25" d="M164.7 129l-1.4-2.1c.7 0 1.3-.1 2 .2-.8-.9-1.3-2.1-.8-3.2.5.2 1.1.2 1.5.5-1.4-1.9.1-3 1.6-1.2-.2-.8-.6-1.6-.8-2.4 1.2.6 2.7 1.7 2.9 3 0-1.5-.6-2.9-1.3-4.2 1.2.4 2 1.6 2.6 2.5-.5-1.1-.6-2.5-.2-3.5.5.5 1.1.9 1.4 1.6-.2-.7 0-1.5.4-2 .1.3.4.7.5 1 .4-1.4.8-3.3-.1-4.8.8.7 1.3 1.7 1.3 2.7.5-1.5.3-2.6 0-4.1.5.7 1.2 1.6 1.6 2.3.3-1.5.1-2.9 1.4-3.9-.1.9 0 1.9.4 2.6.2-.4.8-1 .9-1.3.1.5.4.7.5 1 .1-.3.6-.7.7-1.1.4.5 1.1 1.1 1.6 1.5.3-.8.2-1.6.2-2.5.6.7 1.3 1.4 2.1 1.8.4-1.4 1-2.7 2.1-3.7 0 1.2.3 2.4.7 3.5.2-.2.8-.4 1.1-.7.2.3.8.9.9 1.1 0-.1.1-.2.3-.2.2.6.7 1 .7 1.6 1.7-.6 3.1-2.9 5-3.7.1 1-.5 2.1-.9 3.1 1.3-1 2.2-2 3.9-2.4-.2 1-.7 1.9-1.3 2.7 1 0 1.9-.5 2.2-1.4.1.6.3 1.3.3 2 2.3 0 1.5-3.6 1.4-5 .7.7 1 1.8 1.4 2.7.5-.9.4-1.9.9-2.8.3.6.7 1.2.9 1.8.1-.2.1-.4.2-.6.1.4.8 1.2.9 1.6.4-1.1 1.1-1.9 2.1-2.6.4 1-.1 2.5 0 3.7.6-1 1.7-2.3 2.9-2.4.2 1.1-.2 2.2-.2 3.3.1-.2.5-.5.7-.8.2.8.5 1.2 1.2 1.6.7-1 .9-2.2.9-3.3.5.7.7 2 1 2.7.5-1 .8-2 1.6-2.9-.1.6-.1 1.4-.1 2 1.2-.8 1.7-2.4 3.4-2.5-.7 2.5.8 5.7.9 8.4.2 2.8-.7 5.6-.5 8.3-10.9-.2-22.1-.5-33.2-.2-4.3.1-8.5-.2-12.7 0-2.5.1-6 1.1-8.2.2"/><path d="M212.8 120.7s.4-1.7-.8-4.4" class="st23"/><path d="M211.5 115.5s-.3-.9.2-.8c.6.1.2.7.2.7s.1-.4.6-.6c.5-.2.3.4.3.4l-.6.5s1-.6 1.5-.6c.4 0 .4.2 0 .3-.4.2-1 .4-1 .4s.9-.2 1.2-.1c.3.1.9.1.5.3-.4.2-1.3.2-1.3.2l-.6.1s.7.2 1.2.3c.6.2.9.5.3.4-.6-.1-1.5-.4-1.5-.4s.1.3.3.5c.3.2.1.6-.3.3s-.5-.8-.5-.8.2.8 0 .9c-.2.2-.8.3-.7-.1.1-.4.2-.9.2-.9s-.4.7-.9.8c-.5.2-.7 0-.3-.3l.5-.6s-1 .5-1.2.4c-.2-.1-.3-.4.7-.8s.6 0 .6 0l-1-.5s0-.5.5-.4c.6.1 1.1.4 1.1.4z" class="st24"/><path d="M211.7 117.6c-.1 0-.2 0-.2-.1-.1 0-.1-.1-.1-.2 0-.2.1-.5.1-.6-.2.2-.4.5-.7.6-.1 0-.3.1-.3.1-.2 0-.2-.1-.2-.1 0-.1 0-.2.2-.4l.3-.4c-.3.1-.7.3-.9.3h-.1c-.1 0-.2-.1-.2-.2s.1-.4.9-.7c.1 0 .1-.1.2-.1l-.7-.3c0-.1.1-.4.4-.4h.1c.3.1.7.2.8.3-.1-.2-.1-.5 0-.7.1-.1.2-.1.3-.1.1 0 .2.1.3.2.1.1.1.2.1.3.1-.1.2-.2.4-.3.2-.1.3-.1.4 0 .1.1.1.4.1.4l-.3.3c.3-.2.9-.4 1.1-.4.3 0 .4.1.4.1 0 .1-.1.2-.3.3l-.6.2c.3 0 .6-.1.8 0h.1c.3 0 .5.1.6.2 0 .1-.1.1-.2.2-.4.2-1.3.2-1.3.2h-.3c.3.1.6.2 1 .2.3.1.7.3.7.4 0 0 0 .1-.2.1h-.2c-.4-.1-1.1-.3-1.4-.4 0 .1.1.3.3.4.2.1.2.2.1.3 0 .1-.1.2-.3.2-.1 0-.2 0-.3-.1l-.3-.3c0 .2 0 .3-.1.4-.1 0-.4.1-.5.1zm-.1-1.3h.1s-.1.6-.2.9v.1h.1c.1 0 .3-.1.4-.2.1-.1.1-.3 0-.7v-.2h.1v.2c.1.2.2.5.4.6.1 0 .1.1.2.1s.1-.1.1-.1c0-.1 0-.2-.1-.2-.3-.2-.4-.5-.4-.5v-.1h.1s1 .3 1.5.4h.2s-.2-.2-.6-.3c-.5-.2-1.2-.3-1.2-.3v-.1l.6-.1s.9 0 1.3-.2c.1 0 .1-.1.1-.1s-.3-.1-.5-.1h-.3c-.4 0-1 .1-1.1.1v-.1l1-.4c.2-.1.3-.2.3-.2h-.2c-.3 0-1.1.4-1.4.6l-.1-.1.5-.5v-.3h-.2c-.4.2-.5.4-.6.5v.1h-.1v-.1c0-.1.1-.3 0-.5 0-.1-.1-.1-.2-.1h-.2c-.1.1 0 .6 0 .7l.1.2-.2-.1s-.5-.3-.9-.4h-.1c-.2 0-.3.2-.3.3l.7.3c.1 0 .2-.1.3-.1h.1c0 .1-.1.2-.1.2l-.3-.1c-.1 0-.2.1-.3.1-.8.3-.8.5-.8.6 0 .1.1.1.1.1.2 0 .9-.3 1.1-.4l.1.1-.5.6c-.2.1-.2.2-.2.3h.1c.1 0 .2 0 .3-.1.8.3 1.2-.3 1.2-.4zm-.7-.5z" class="st25"/><path d="M212.4 115.9s-.4-.7-1.1-.1c-.5.5 1.2.8 1.1.1z" class="st26"/><path d="M183.5 115.5s.4-1.7-.8-4.4" class="st23"/><path d="M182.2 110.4s-.3-.9.2-.8c.6.1.2.7.2.7s.1-.4.6-.6c.5-.2.3.4.3.4l-.6.5s1-.6 1.5-.6c.4 0 .4.2 0 .3-.4.2-1 .4-1 .4s.9-.2 1.2-.1c.3.1.9.1.5.3-.4.2-1.3.2-1.3.2l-.6.1s.7.2 1.2.3c.6.2.9.5.3.4-.6-.1-1.5-.4-1.5-.4s.1.3.3.5c.3.2.1.6-.3.3s-.5-.8-.5-.8.2.8 0 .9c-.2.2-.8.3-.7-.1.1-.4.2-.9.2-.9s-.4.7-.9.8c-.5.2-.7 0-.3-.3l.5-.6s-1 .5-1.2.4c-.2-.1-.3-.4.7-.8s.6 0 .6 0l-1-.5s0-.5.5-.4c.6 0 1.1.4 1.1.4z" class="st24"/><path d="M182.4 112.4c-.1 0-.2 0-.2-.1-.1 0-.1-.1-.1-.2 0-.2.1-.5.1-.6-.2.2-.4.5-.7.6-.1 0-.3.1-.3.1-.2 0-.2-.1-.2-.1 0-.1 0-.2.2-.4l.3-.4c-.3.1-.7.3-.9.3h-.1c-.1 0-.2-.1-.2-.2s.1-.4.9-.7c.1 0 .1-.1.2-.1l-.7-.3c0-.1.1-.4.4-.4h.1c.3.1.7.2.8.3-.1-.2-.1-.5 0-.7.1-.1.2-.1.3-.1.1 0 .2.1.3.2.1.1.1.2.1.3.1-.1.2-.2.4-.3.2-.1.3-.1.4 0 .1.1.1.4.1.4l-.3.3c.3-.2.9-.4 1.1-.4s.4.1.4.1c0 .1-.1.2-.3.3l-.6.2c.3 0 .6-.1.8 0h.1c.3 0 .5.1.6.2 0 .1-.1.1-.2.2-.4.2-1.3.2-1.3.2h-.3c.3.1.6.2 1 .2.3.1.7.3.7.4 0 0 0 .1-.2.1h-.2c-.4-.1-1.1-.3-1.4-.4 0 .1.1.3.3.4.2.1.2.2.1.3 0 .1-.1.2-.3.2-.1 0-.2 0-.3-.1l-.3-.3c0 .2 0 .3-.1.4-.1 0-.3.1-.5.1zm-.1-1.2h.1s-.1.6-.2.9v.1h.1c.1 0 .3-.1.4-.2.1-.1.1-.3 0-.7v-.2h.1v.2c.1.2.2.5.4.6.1 0 .1.1.2.1s.1-.1.1-.1c0-.1 0-.2-.1-.2-.3-.2-.4-.5-.4-.5v-.1h.1s1 .3 1.5.4h.2s-.2-.2-.6-.3c-.5-.2-1.2-.3-1.2-.3v-.1l.6-.1s.9 0 1.3-.2c.1 0 .1-.1.1-.1s-.3-.1-.5-.1h-.3c-.4 0-1 .1-1.1.1v-.1l1-.4c.2-.1.3-.2.3-.2h-.2c-.3 0-1.1.4-1.4.6l-.1-.1.5-.5v-.3h-.2c-.4.2-.5.4-.6.5v.1h-.1v-.1c0-.1.1-.3 0-.5 0-.1-.1-.1-.2-.1h-.2c-.1.1 0 .6 0 .7l.1.2-.2-.1s-.5-.3-.9-.4h-.1c-.2 0-.3.2-.3.3l.7.3c.1 0 .2-.1.3-.1h.1c0 .1-.1.2-.1.2l-.3-.1c-.1 0-.2.1-.3.1-.8.3-.8.5-.8.6 0 .1.1.1.1.1.2 0 .9-.3 1.1-.4l.1.1-.5.6c-.2.1-.2.2-.2.3h.1c.1 0 .2 0 .3-.1.8.2 1.2-.4 1.2-.4zm-.7-.5h.1c0-.1 0-.1-.1 0z" class="st25"/><path d="M183.2 110.7s-.4-.7-1.1-.1c-.6.5 1.1.8 1.1.1z" class="st26"/><path d="M205.1 116.5s-.4-1.7.8-4.4" class="st23"/><path d="M206.4 111.3s.3-.9-.2-.8c-.6.1-.2.7-.2.7s-.1-.4-.6-.6c-.5-.2-.3.4-.3.4l.6.5s-1-.6-1.5-.6c-.4 0-.4.2 0 .3.4.2 1 .4 1 .4s-.9-.2-1.2-.1c-.3.1-.9.1-.5.3.4.2 1.3.2 1.3.2l.6.1s-.7.2-1.2.3c-.6.2-.9.5-.3.4.6-.1 1.5-.4 1.5-.4s-.1.3-.3.5c-.3.2-.1.6.3.3s.5-.8.5-.8-.2.8 0 .9c.2.2.8.3.7-.1-.1-.4-.2-.9-.2-.9s.4.7.9.8c.5.2.7 0 .3-.3l-.5-.6s1 .5 1.2.4c.2-.1.3-.4-.7-.8s-.6 0-.6 0l1-.5s0-.5-.5-.4c-.6.1-1.1.4-1.1.4z" class="st24"/><path d="M205.7 113.1c-.1-.1-.1-.2-.1-.4l-.3.3c-.1.1-.2.1-.3.1-.1 0-.2-.1-.3-.2 0-.1 0-.2.1-.3.2-.1.3-.3.3-.4-.3.1-1 .3-1.4.4h-.2c-.1 0-.2 0-.2-.1s.3-.3.7-.4c.3-.1.7-.2 1-.2h-.3s-.9 0-1.3-.2c-.1 0-.2-.1-.2-.2s.2-.1.6-.2h.9l-.6-.2c-.2-.1-.4-.2-.3-.3 0-.1.1-.1.4-.1.3 0 .8.2 1.1.4l-.3-.1s-.1-.3.1-.4c.1-.1.2-.1.4 0s.3.2.4.3c0-.1 0-.2.1-.3.1-.1.2-.1.3-.2.1 0 .2 0 .3.1.2.2.1.5 0 .7.2-.1.5-.3.8-.3h.1c.3 0 .4.3.4.4l-.7.3c.1 0 .1.1.2.1.8.3.9.6.9.7 0 .1-.1.2-.2.2h-.1c-.2 0-.7-.2-.9-.3l.3.4c.2.2.2.3.2.4 0 0-.1.1-.2.1s-.2 0-.3-.1c-.3-.1-.6-.4-.7-.6 0 .2.1.5.1.6 0 .1 0 .2-.1.2 0 0-.1.1-.2.1-.2-.1-.4-.2-.5-.3zm1.4-.2c.1 0 .2.1.3.1h.1s0-.1-.2-.3l-.5-.6.1-.1c.2.1.9.4 1.1.4 0 0 .1 0 .1-.1s0-.3-.8-.6c-.1 0-.2-.1-.3-.1l-.3.1c-.1-.1-.2-.2-.1-.2h.1c.1 0 .2 0 .3.1l.7-.3c0-.1 0-.3-.3-.3h-.1c-.5.1-.9.4-.9.4l-.2.1.1-.2c.1-.2.2-.6 0-.7h-.2c-.1 0-.2.1-.2.1-.1.2 0 .4 0 .5v.1h-.1v-.1c-.1-.1-.2-.3-.6-.5-.1 0-.2-.1-.2 0-.1.1-.1.2 0 .3l.5.5-.1.1c-.3-.2-1.1-.6-1.4-.6h-.2s0 .1.3.2l1 .4v.1s-.7-.1-1.1-.1h-.3c-.2 0-.4.1-.5.1l.1.1c.4.2 1.3.2 1.3.2l.6.1v.1s-.7.2-1.2.3c-.4.1-.6.2-.6.3h.2c.5-.1 1.5-.4 1.5-.4h.1v.1s-.1.3-.4.5c-.1.1-.1.2-.1.2l.1.1c.1 0 .1 0 .2-.1.2-.2.4-.4.4-.6v-.2h.1v.2c-.1.4-.1.6 0 .7.1.1.3.2.4.2h.1v-.1c-.1-.4-.2-.9-.2-.9h.1c.4-.4.8.3 1.2.4zm-.2-1.3h.1-.1z" class="st25"/><path d="M205.4 111.6s.4-.7 1.1-.1c.6.5-1.1.8-1.1.1z" class="st26"/><path d="M197.5 122.7s.4-1.7-.8-4.4" class="st23"/><path d="M196.2 117.6s-.3-.9.2-.8c.6.1.2.7.2.7s.1-.4.6-.6c.5-.2.3.4.3.4l-.6.5s1-.6 1.5-.6c.4 0 .4.2 0 .3-.4.2-1 .4-1 .4s.9-.2 1.2-.1c.3.1.9.1.5.3-.4.2-1.3.2-1.3.2l-.6.1s.7.2 1.2.3c.6.2.9.5.3.4-.6-.1-1.5-.4-1.5-.4s.1.3.3.5c.3.2.1.6-.3.3s-.5-.8-.5-.8.2.8 0 .9c-.2.2-.8.3-.7-.1.1-.4.2-.9.2-.9s-.4.7-.9.8c-.5.2-.7 0-.3-.3l.5-.6s-1 .5-1.2.4c-.2-.1-.3-.4.7-.8s.6 0 .6 0l-1-.5s0-.5.5-.4c.6 0 1.1.4 1.1.4z" class="st24"/><path d="M196.4 119.6c-.1 0-.2 0-.2-.1-.1 0-.1-.1-.1-.2 0-.2.1-.5.1-.6-.2.2-.4.5-.7.6-.1 0-.3.1-.3.1-.2 0-.2-.1-.2-.1 0-.1 0-.2.2-.4l.3-.4c-.3.1-.7.3-.9.3h-.1c-.1 0-.2-.1-.2-.2s.1-.4.9-.7c.1 0 .1-.1.2-.1l-.7-.3c0-.1.1-.4.4-.4h.1c.3.1.7.2.8.3-.1-.2-.1-.5 0-.7.1-.1.2-.1.3-.1.1 0 .2.1.3.2.1.1.1.2.1.3.1-.1.2-.2.4-.3.2-.1.3-.1.4 0 .1.1.1.4.1.4l-.3.3c.3-.2.9-.4 1.1-.4.3 0 .4.1.4.1 0 .1-.1.2-.3.3l-.6.2c.3 0 .6-.1.8 0h.1c.3 0 .5.1.6.2 0 .1-.1.1-.2.2-.4.2-1.3.2-1.3.2h-.3c.3.1.6.2 1 .2.3.1.7.3.7.4 0 0 0 .1-.2.1h-.2c-.4-.1-1.1-.3-1.4-.4 0 .1.1.3.3.4.2.1.2.2.1.3 0 .1-.1.2-.3.2-.1 0-.2 0-.3-.1l-.3-.3c0 .2 0 .3-.1.4-.1 0-.4.1-.5.1zm-.1-1.2h.1s-.1.6-.2.9v.1h.1c.1 0 .3-.1.4-.2.1-.1.1-.3 0-.7v-.2h.1v.2c.1.2.2.5.4.6.1 0 .1.1.2.1s.1-.1.1-.1c0-.1 0-.2-.1-.2-.3-.2-.4-.5-.4-.5v-.1h.1s1 .3 1.5.4h.2s-.2-.2-.6-.3c-.5-.2-1.2-.3-1.2-.3v-.1l.6-.1s.9 0 1.3-.2c.1 0 .1-.1.1-.1s-.3-.1-.5-.1h-.3c-.4 0-1 .1-1.1.1v-.1l1-.4c.2-.1.3-.2.3-.2h-.2c-.3 0-1.1.4-1.4.6l-.1-.1.5-.5v-.3h-.2c-.4.2-.5.4-.6.5v.1h-.1v-.1c0-.1.1-.3 0-.5 0-.1-.1-.1-.2-.1h-.2c-.1.1 0 .6 0 .7l.1.2-.2-.1s-.5-.3-.9-.4h-.1c-.2 0-.3.2-.3.3l.7.3c.1 0 .2-.1.3-.1h.1c0 .1-.1.2-.1.2l-.3-.1c-.1 0-.2.1-.3.1-.8.3-.8.5-.8.6 0 .1.1.1.1.1.2 0 .9-.3 1.1-.4l.1.1-.5.6c-.2.1-.2.2-.2.3h.1c.1 0 .2 0 .3-.1.8.2 1.2-.4 1.2-.4zm-.7-.5h.1c0-.1-.1-.1-.1 0z" class="st25"/><path d="M197.2 117.9s-.4-.7-1.1-.1c-.6.5 1.1.8 1.1.1z" class="st26"/><path d="M203.4 122.7c.1-.4.1-.8-.4-1-.3.3 0 .8.4 1" class="st27"/><path d="M203 123.9s.5-2.6 2.2-3.5" class="st28"/><path d="M205.9 119.5c-.2-.2-.4-.7-.8-.7-.5 0-.2.2-.4.4s-.6.2-.4.5c.2.3.6.1 1 .1-.2.2-.9.1-.9.4 0 .2.1.1.2.2.2.1.2 0 .4.2s.2.4.6.2c.2-.1.3-.4.4-.6.1.2-.1.7.1.8.2.1.5 0 .6-.2.3 0 .7.1.8-.2.1-.3-.3-.6-.6-.7.2.1.8.3 1 .2.2-.1 0-.3 0-.4.1-.2.3-.2.1-.3-.1-.1-.3-.1-.4-.2-.3 0-.6.2-.8.3.1-.2.6-.6.5-.8-.1-.2-.3-.1-.5-.1 0 0-.1.1-.2.1s-.1-.1-.2-.2c-.3-.1-.7-.1-.7.2-.2.4.1.6.2.8" class="st29"/><ellipse cx="206" cy="119.8" class="st30" rx=".4" ry=".3"/><path d="M178.4 119.2c.1-.4.1-.8-.4-1-.3.3 0 .8.4 1" class="st27"/><path d="M178 120.4s.5-2.6 2.2-3.5" class="st28"/><path d="M180.8 116c-.2-.2-.4-.7-.8-.7-.5 0-.2.2-.4.4s-.6.2-.4.5c.2.3.6.1 1 .1-.2.2-.9.1-.9.4 0 .2.1.1.2.2.2.1.2 0 .4.2s.2.4.6.2c.2-.1.3-.4.4-.6.1.2-.1.7.1.8.2.1.5 0 .6-.2.3 0 .7.1.8-.2.1-.3-.3-.6-.6-.7.2.1.8.3 1 .2.2-.1 0-.3 0-.4.1-.2.3-.2.1-.3-.1-.1-.3-.2-.4-.2-.3 0-.6.2-.8.3.1-.2.6-.6.5-.8-.1-.2-.3-.1-.5-.1 0 0-.1.1-.2.1s-.1-.1-.2-.2c-.3-.1-.7-.1-.7.2-.1.4.2.6.2.8" class="st29"/><ellipse cx="181" cy="116.3" class="st30" rx=".4" ry=".3"/><path d="M192.8 123.7c-.1-.4-.1-.8.4-1 .2.3 0 .7-.4 1" class="st27"/><path d="M193.2 124.9s-.5-2.6-2.2-3.5" class="st28"/><path d="M190.3 120.4c.2-.2.4-.7.8-.7.5 0 .2.2.4.4s.7.2.4.5c-.2.3-.6.1-1 .1.2.2.9.1.9.4 0 .2-.1.1-.2.2-.2.1-.2 0-.4.2s-.2.4-.6.2c-.2-.1-.3-.4-.4-.6-.1.2.1.7-.1.8-.2.1-.5 0-.6-.2-.3 0-.7.1-.8-.2-.1-.3.3-.6.6-.7-.2.1-.8.3-1 .2-.2-.1 0-.3 0-.4-.1-.2-.3-.2-.1-.3.1-.1.3-.1.4-.2.3 0 .6.2.8.3-.1-.2-.6-.6-.5-.8.1-.2.3-.1.5-.1 0 0 .1.1.2.1s.1-.1.2-.2c.3-.1.7-.1.7.3.2.3-.1.6-.2.7" class="st29"/><ellipse cx="190.2" cy="120.8" class="st30" rx=".4" ry=".3"/><path fill="none" stroke="#5f954d" stroke-width="2" d="M177.4 121.4c-.5-.2-.8-.6-.9-.9.2.2.6.3.9.4-.2-.4-.4-.8-.4-1.2.6.3.7.7 1.1 1.1.2-.3.6-.4.9-.6v.9"/><path d="M8.2 36.5c4.9-1.7.5-8.4 7-8.4-.2 2.9-.2 6 1.3 8.4-2.7.6-5.4 1.3-8.2 1.4" class="st32"/><path d="M10.4 21.7c-2.2-1.2-4.2-1.2-5.8.7.3 1.1.9.3 1.2.7-.8 1.3-1.1 1-1 2.7l1.2.3c.4.4 0 1.4.2 1.9 1.3 0 2.3 0 3.5-.3.2.4-.5 1.3 0 1.7 3.7.3 6.9 1.3 10.4 0 .2-2.8-.6-3.8-3.3-4.2 1.3-6-5.9-9.2-9.3-4.8" class="st33"/><path d="M197.6 40.2c4.9-1.7.5-8.4 7-8.4-.2 2.9-.2 6 1.3 8.4-2.7.6-5.4 1.3-8.2 1.4" class="st32"/><path d="M199.7 25.4c-2.2-1.2-4.2-1.2-5.8.7.3 1.1.9.3 1.2.7-.8 1.3-1.1 1-1 2.7.4.1.8.2 1.2.2.4.4 0 1.4.2 1.9 1.3 0 2.3 0 3.5-.3.2.4-.5 1.3 0 1.7 3.7.3 6.9 1.3 10.4 0 .2-2.8-.6-3.8-3.3-4.2 1.3-6-5.9-9.2-9.3-4.8" class="st33"/><pattern id="SVGID_5_" patternTransform="translate(6055.24 5330.017) scale(1.6861)" xlink:href="#Plaid_2_Color_2"/><path fill="url(#SVGID_5_)" d="M30 63.2c1.5.2 2.9 1.2 4.3 1.7s3 .8 4.6.9c.1-.9-.6-1.6-.8-2.3 2.4.3 2.6 1.3 3.4 3.2.8 1.9 1.1 3.7.9 5.7-3.7-3.4-11.1-3.2-13-8-.5 1-1 2.2-2.3 2.6-.3-.9-.2-1.6.4-2.3-.5.5-1.4.6-2.1.5.3-1.6 3.1-2.3 4.7-1.8"/><path fill="#f0c96d" stroke="#8a6638" stroke-width=".25" d="M34.9 118.5l-.5.9.5.9-1-.1-.8.7-.1-1-.9-.5.9-.5.2-1 .7.8zm-9.2-3.2l-.5.9.4.9-1-.2-.7.7-.1-1-1-.5 1-.4.1-1 .7.7z"/><path fill="none" stroke="#486694" d="M35.5 69.1c1 2.5.9 5.7.7 7.9-.1 1.3-.5 3.2-.7 4.4"/><linearGradient id="SVGID_6_" x1="24.282" x2="29.699" y1="52.918" y2="52.918" gradientUnits="userSpaceOnUse"><stop offset="0" stop-color="#f9ebc4"/><stop offset=".467" stop-color="#f8e6b6"/><stop offset="1" stop-color="#f6dfa1"/></linearGradient><path fill="url(#SVGID_6_)" d="M29.7 43c-2.3 3.4-.5 7.6-2.7 10.7 1.2-1.3-.5-3.5.2-5.2-3.8 3.4.7 10.2-2.9 14.2 2.7-2.5-.8-7.5.2-10.6.2.4.3.6.5.9.1-2.3.3-4.6 1.7-6.5.1.3.5.7.6 1.1-.2-1.6.9-3 1.7-4.4" opacity=".34"/><path d="M126.7 33.8c.9.2 1.4-.8 2.3-1.1.9-.3 1.1-.3 2.2 0 2 .6 5.2 1.6 6.2 3.1 1.1 1.6.7 3.8 1.3 5.5.6 1.8 1.7 3.4 2.1 5.2.5 2.1-.1 3.9 0 5.9.1 2.8 3.6 4.2 3.1 6.9s-1.8 4.9-2.8 7.6c-.4 1.2-.4 1.5-1.7 2.4-1.5 1.2-2.2 2-2.5 3.7-.4 2.1-1.1 4.5-4.3 4.5.9 0 1.1-.8 1.2-1.5-2.1.7-2.6 2.6-2.1 4.1.6 1.9.6 2.9-1.7 3.9 1.4-.8 1-1.8.3-2.7-1.1-1.4-2.3-1.9-1.4-3.8-.6.8-.5 1.7-.5 2.6-3.2-1.6-.8-5.5.8-7.3-1.1.4-2 1.1-2.7 1.9-.3-2.7 4.4-4.3 5.4-6.7 1.1-2.6.7-6 1.2-8.7.5-2.5 1.6-4.9 1.7-7.5.1-2 .1-4.2-.3-6.1-.4-1.7-1.7-2.8-2.5-4.4-1-2.1-1.4-3.6-3.2-5.3-.6-.6-1.3-1.7-2.2-2" class="st38"/><path d="M124.4 70.2s-.7 9.8-.5 11.2c.2 1.4 1.2 1.4 1 3.1-.2 1.8-4.7 11.9-5 14.5-.3 2.6.2 4.1-1 4.9-1.2.8-1.9 1-1.9 1.9 0 1-.5 2.7-.5 2.7l-2.9.1s-.9-3.4 2.4-9 3.3-8.8 2.9-10.7c-.3-1.9-1.6-10.9-5.9-14.1-4.3-3.1.5-6.2.5-6.2l10.9 1.6z" class="st39"/><path d="M71.5 33.6s22.5-.8 25.6-.4c3.1.4 10.1 2.5 13.2 3.7 3.1 1.2 3.6-7.8 26.1-.6 5.7 2.9 10.1 13.1 10.1 16s-.5 12.3-3.1 15.4c0 0 0 7.6-1.8 10.9 1 5.5-1 8.8-1.6 10.5-.5 1.6-1 9.8-.3 10.9.8 1-.8 2.7-.8 2.7l1.3 6.6-5.2.2s.5-4.3.8-5.3c.3-1-1-3.3-.3-4.5.8-1.2 1.8-10.5 1-12.1-.8-1.6-.8-5.1-.5-6.6.3-1.4-2.1-14.2-3.4-14.4-1.3-.2-8.8 5.5-17.8 5.5.3 6.6-1.6 17.2-1.6 17.2s1.8 3.7 1 6.2 0 8.6.5 9.4c.5.8.8 1.6.5 3.3-.3 1.6 2.3 6.2 2.3 7.4 0 1.2-6.7.6-6.7.6s1-3.9 1-5.3-.8-2.7-.8-3.9c0-1.2.5-5.7.3-7.2-.3-1.4-3.9-9-3.4-11.9.5-2.9.3-5.9-.5-7.4-.8-1.4-3.1-6.8-4.9-6.6-1.8.2-3.6-.6-3.9 1.6-.3 2.3-.5 12.5-.5 14.4 0 1.8-.8 4.1-1.3 4.7-.5.6.3 6.2.8 7.8.5 1.6.3 2.9-.5 4.3s.3 6.4.3 6.4l-7.2.4s2.3-4.5 2.6-5.5c.3-1 .8-3.3.8-4.7 0-1.4 0-9.6-.5-10.7-.5-1-.3-4.5-.3-6.6 0-2.1-1.8-5.5-2.6-6.2-.8-.6-3.9-8-3.4-11.1-2.8-2.3-5.7-11.1-3.6-15-2.6-1.6-3.4-3.1-7.2-4.7l-5.9-10.9 1.4-4.5z" class="st39"/><path d="M73 37.1s-3.1-8-5.4-8.4c-2.3-.4-2.1 0-1.6.8s.3 1.6.8 2.5c.5.8 1 1.8 1 1.8l-2.6.4s-6-2.9-7-3.9-2.3 1.4.3 3.7c2.6 2.3 4.4 2.7 4.4 2.7s-3.1 4.7-3.9 5.5c-.8.8-1.8 2.5-1.3 4.9.5 2.5-3.6 10.1-4.4 12.1-.8 2.1-1 6.4 3.6 6.2 4.7-.2 4.1-2.9 5.9-3.9 1.8-1 6.5-4.9 8.3-5.3 1.8-.4 10.9-4.1 7.5-9.9" class="st39"/><path d="M57.9 64.8c-3.2.7-5-1-4.9-3.5 0-1.3 1.1-3.3 1.8-4.3s.7-1.9 1.6-2.9c0 .1.1 1.4.1 1.6 1-1 1.3-2.4 2.3-3.4.1.8-.2 1.5-.1 2.2.2-.1.6 0 .9-.1.3.4.2.7.3 1.2.1.5.2.9.3 1.4.2 1-.5 1.9 1 1.6.9-.2 1.4-.9 2.4-.7.3 0 .8.4 1.3.5.5.1 1 0 1.5 0-1.3 1.4-3.5 2-4.6 3.5-.5.6-.5 1.6-1.3 2.2-.7.5-2.3.7-3.2.7" class="st40"/><path fill="#2c1a1a" stroke="#5c3837" stroke-width=".25" d="M65.9 46.1s.5-1.7 1.3-1.6c.8.1 1.6.5 2.2.6l.6.1s0 .4-.5.8-1.7.6-2.3.5c-.6-.1-1.6.3-1.6.3l.3-.7zm-9.5 14.6c.4-1.2 2.5-.1 2.6.7.2.9-1.1 1.7-2.2 1.6-.1-.7.9-1 .6-1.7-.6-.1-1.1-.3-.9-.7"/><path fill="#bb9595" stroke="#5c3837" stroke-width=".25" d="M67.9 33.7c.4 1.1 1.2 2.6 2.6 3.2.1-1.8-.8-7-3.7-7.4 0 .6.1 1.3.4 1.9M63 36.7c2.1-1.5 0-1.6-1.8-2.2-1.5-.5-3.5-1.5-3.7-2.9 0 0 .3 3.2 3.9 4.4"/><path d="M65.5 43.8c1-1.2 5.1.1 4.8 1.2M55.5 60.5c-.4-1.4 2.2-1.3 3-.6" class="st43"/><ellipse cx="69.1" cy="45.6" class="st40" rx=".3" ry=".2"/><path d="M68.6 46l-.1-.1c-.2.3-1.1.2-1.4.2.3.2 1.2.1 1.5-.1" class="st40"/><path d="M71.4 32.7s4.8-.9 5.3-1.2c.5-.3 1.7-.3 2.1 0 .4.3 1.6-.3 1.9-.8.4-.5 1.7-1 2.6-.8.9.2 1.7.6 2.2 1 .5.4 1.2.5 1.9.2.8-.3 1.3-.2 1.9.2.6.4 1.3.7 2.2.8.9.1 1.7.1 2.8 0 1.2-.1 1.9-.1 2.7.4.8.5 2.7 1.2 2.7 1.2l2.2.6s.1.6-.3 1.3c-.4.7-.3.2-1-.5-.8-.7-2.5-1.6-2.3-.1.1 1.5-.3 3.1-.3 3.4s-1 .9-1.3 1.2c-.3.3.3-.8.5-1.4.3-.6 0-2.5 0-2.5l-1 2.3s.3-2.1-.1-2.5c-.4-.4-2.6-.7-2.6-.7s.1.6.1 1-.9 1.1-.9 1.1.3-.9.1-1.3c-.1-.4-1.2-1-1.2-1s-.5.4-1.7-.1-1.4-.8-2.1-.8c-.6 0-.6.7-1.3.9-.6.2-1.6-.3-1.6-.3s-.8-.5-1.3-.6c-.5-.1-1.2-.5-1.9-.3-.8.2-1.2.1-1.5.1-.4 0-7.5.3-8.1.6-.5.3-.7-1.4-.7-1.4zm-3.9 1.2c-.9-.3-3.2 1.4-3.9 2-1.4 1.3-1.8 2.7-2.2 4.3.5-.5.5-1.2 1.2-1.6-1.1 1.8 1.2 2.7.9 4.4.6-.8.1-1.5.4-2.3.3-.9 1.6-1.4 1.9-2.3.5.4.1.9-.2 1.3 1.3-.4 1.5-1.5 2-2.3.9 0 1.6.7 2.5.3-1.5.3-1.6-3.2-2.7-3.9" class="st38"/><path d="M83.4 53.9c2.7 1.2 7.2 4.3 7.4 7m24.1 10.9c.1-1.4-.5-1.8.5-3 1.1-1.4 2-2.6 2.6-4.2 1.6-4.2-.8-8.3-2.1-12.3M99.8 73.7c-4.3 0-6.7-.4-10-2.5m13.6 2.5c-.9-.2-1.2-3.3-1.4-4.2m30.3-3.2c3.4-1.8 5.8-4.9 7.7-7.9 2.3-3.6 1.9-7.7 1.9-11.7M73 36.9c1.5.9 3 .9 2.8 2.9m5.5 5.9c2.2 2.2 5.4 3.9 7.6 6.2" class="st43"/><path d="M111.1 116.1l.6-2.3s2.9 1 5.2 0c.2-.3.9 1.7.9 1.7s-.6.9-6.7.6zm-19.3-5.2s3.3 1 5.2.1c.2.1.6 2 .6 2l-7.2.4 1.4-2.5zm43.8-3.7s2.6.1 4.1-.1c0 .1.5 2.1.5 2.1l-5.2.2.6-2.2z" class="st38"/><path d="M59.5 55.5c.5-.3.2-.8.4-1.2.3-.7 1-1 1.4-1.5.7-.8 1.9-2.4 1.7-3.5-.3-1.2-1.5-2.7-1.9-3.7-.3-.7-.8-1.4-.6-2.2.1-.6.5-.9.3-1.5-1.9.1-2.3 3.3-2.3 4.4.1 1.7.1 3.6-.6 5.2-.5 1.1-1.3 2.2-1.8 3.3-1 2.3 2 1.6 3.5.6" class="st40"/><path fill="#9d512d" stroke="#9d512d" stroke-width=".25" d="M67.3 56.5c-1.2-3.1-14.6-5.3-13.3.9 4-4.2 9.3-2.3 13.3.3"/><linearGradient id="SVGID_7_" x1="49.21" x2="54.962" y1="64.935" y2="64.935" gradientUnits="userSpaceOnUse"><stop offset="0" stop-color="#f9ebc4"/><stop offset=".467" stop-color="#f8e6b6"/><stop offset="1" stop-color="#f6dfa1"/></linearGradient><path fill="url(#SVGID_7_)" d="M49.2 66c1.3-.2 3.2-4.6 4.8-5.5 1.1.8.2 2.3 0 3.3 1.7-1.8.6 2.1.3 2.8-.8 1.5-1.5 2-2.9 2.6"/><path d="M39.3 71.6c1 1.7 1.9 2 3.1 3.6 1.3 1.8 2.8.7 4.3-1 2.5-2.8 3.6-2.8 5.6-5.1-1.1-1.6-3-3.6-3.1-3.5-1.6 1.2-3.2 4.4-4.9 5.4-1.8-1.9-1.9-5.2-5.1-5.6" class="st46"/><linearGradient id="SVGID_8_" x1="30.662" x2="38.352" y1="66.122" y2="66.122" gradientUnits="userSpaceOnUse"><stop offset="0" stop-color="#f9ebc4"/><stop offset=".467" stop-color="#f8e6b6"/><stop offset="1" stop-color="#f6dfa1"/></linearGradient><path fill="url(#SVGID_8_)" d="M30.7 65.2h1.9l-.5-4.6 6.2 1.6s.1 9.5-1.1 9.5c-1.2 0-4-4.1-4.7-4.3-.6-.2-1.8-2.2-1.8-2.2z"/><linearGradient id="SVGID_9_" x1="29.221" x2="37.15" y1="106.92" y2="106.92" gradientUnits="userSpaceOnUse"><stop offset="0" stop-color="#f9ebc4"/><stop offset=".467" stop-color="#f8e6b6"/><stop offset="1" stop-color="#f6dfa1"/></linearGradient><path fill="url(#SVGID_9_)" d="M29.2 93.4l1.2 3.4s-.2 6.2.2 7.4c.5 1.2 2.4 14 3.1 15.4.7 1.4 1.9 1.2 1.9 1.2l1.4-2.2s-1.2-8.6-1.2-9.8c0-1.2-1.2-9.2-1.2-10 0-.8.2-5.2.2-5.2s-3.1-.4-3.8-.6c-.6-.2-1.8.4-1.8.4z"/><linearGradient id="SVGID_10_" x1="24.573" x2="36.188" y1="107.324" y2="107.324" gradientUnits="userSpaceOnUse"><stop offset="0" stop-color="#f9ebc4"/><stop offset=".467" stop-color="#f8e6b6"/><stop offset="1" stop-color="#f6dfa1"/></linearGradient><path fill="url(#SVGID_10_)" d="M31.1 120.1s-3.4-1.9-3.2-2.9c.2-1 3.4-9.1 3.4-9.1s4.8-12.2 4.8-13.4c0-1.2-1.2-1-1.2-1s-5.8 9-6.2 11.4c-.5 2.4-4.2 11.5-4.2 11.5s.8 1.9 1 2.7c.2.8 2.1 1.8 2.3 1.8.8.1 3.3-1 3.3-1z"/><path d="M27.5 108.9l3.2 1.2L36.8 94l1.1-2.2 1.6-6.1.3-2.4-1.6-1.1-5.1 1.2-3 16.7z" class="st50"/><linearGradient id="SVGID_11_" x1="39.806" x2="49.021" y1="55.235" y2="55.235" gradientUnits="userSpaceOnUse"><stop offset="0" stop-color="#8c602e"/><stop offset=".179" stop-color="#a78230"/><stop offset=".435" stop-color="#c9ac33"/><stop offset=".665" stop-color="#e1cb34"/><stop offset=".862" stop-color="#f0dd36"/><stop offset="1" stop-color="#f5e436"/></linearGradient><path fill="url(#SVGID_11_)" d="M39.8 67l1.6-3.6s.3-1.8.3-3.3 2.1-2 2.9-2.7c.8-.7 1.9-3.6 1.3-5.6-.5-2 0-2.9 0-4.9 0-2 3.4-3.5 2.7-4.7-.9-1.5-.8-1.5 0 0 .8 1.4.3 3.4-.3 4.5-.5 1.1-.3 7.1-.3 7.1s-1.6 4.7-2.4 4.9c-.8.2-1.6 3.1-2.4 4.2-.8 1.1-1.3 4.5-1.3 4.5l-1.6 2-.5-2.4z"/><path d="M40.4 67.6l.5-2.9s.5-.7 1.7-1.3c1.3-.5 2.9-8.1 3.2-9.6.4-1.6.6-4.1.7-6.1 0-2 1.8-2.4 2-3.3.2-.9 1.4.6 1.4.6s-.2 5.8-1.2 6.6c-1 .7-2.1 4.9-2.1 4.9s.2 4.2-.7 5.4c-.9 1.2-2.3 1.3-2.4 2.9-.1 1.6.2 2.2.1 3.3-.1 1.1-.6 1.8-1.6 2.4-1 .5-.8 2.1-1 .5-.2-1.7-.6-3.4-.6-3.4z" class="st52"/><path d="M38.1 65.1l.8-2.9s.5-.7 1.9-1.1c1.3-.4 3.7-7.8 4.3-9.4.5-1.6 1.1-4 1.3-6 .3-2 2.1-2.3 2.4-3.1.3-.9 1.4.7 1.4.7s-.8 5.8-1.9 6.5c-1.1.7-2.7 4.7-2.7 4.7s-.3 4.2-1.3 5.3c-1.1 1.1-2.4 1.1-2.7 2.7-.3 1.6 0 2.2-.3 3.3-.3 1.1-.8 1.8-1.9 2.2-1.1.4-1.1 2-1.1.4s-.2-3.3-.2-3.3z" class="st52"/><path d="M40.7 68.8l1.6-3.6s.3-1.8.3-3.3c0-1.6 2.1-2 2.9-2.7.8-.7 1.9-3.6 1.3-5.6-.5-2 0-2.9 0-4.9 0-2 3-3.4 2.7-4.7-.3-1.4 0-1.6 0 0s.3 3.4-.3 4.5c-.5 1.1-.3 7.1-.3 7.1s-1.6 4.7-2.4 4.9c-.8.2-1.6 3.1-2.4 4.2-.8 1.1-1.3 4.5-1.3 4.5l-1.6 2-.5-2.4z" class="st52"/><linearGradient id="SVGID_12_" x1="20.086" x2="50.045" y1="48.707" y2="48.707" gradientUnits="userSpaceOnUse"><stop offset="0" stop-color="#f9ebc4"/><stop offset=".467" stop-color="#f8e6b6"/><stop offset="1" stop-color="#f6dfa1"/></linearGradient><path fill="url(#SVGID_12_)" d="M29.9 59s2.5 3.8 8.8 3.5c6.4-.2 7.4-1.3 8.2-2.4.6-.9 1.1-3.9-.8-5-1.5-.8-.4-3.3.6-4.6 1-1.3 4.1-5.2 3.1-6.6-1-1.3-7.7-8.6-11-9-3.3-.4-15.9 2.3-17.5 7-1.6 4.7-1.9 10.5.5 13.4 2.4 3 8.1 3.7 8.1 3.7z"/><path d="M28.4 66s-1.1 1.2-1.4 1.9c-.3.7-.7.6-1.6 1.3-.8.7-.6 2.1-1.9.8-1.4-1.2-1.8-2.8-2.5-5.1-.6-2.3-2-9.1-1.3-11 .7-1.8.2.4.3-3.3.1-3.7-.5-3.5.2-6.4.6-3 .9-1.6 1.7-3.7.7-2.1 3.1-3.2 3.8-3.4.7-.2 1.8 8.1 1.2 9.2-.6 1.1.4 2.6-.9 4.5s-2.9 2.6-1.4 4.7c1.6 2.1 2.2 2.1 1.2 4.1-1 2.1-1.3 3.3.5 3.9 1.7.6 2.6 0 2.2.8-.4.9-.1 1.7-.1 1.7z" class="st52"/><path d="M41 54.4s.4-.8 1.5-.6c1.1.1 1.4.7 1.4.7" class="st54"/><linearGradient id="SVGID_13_" x1="34.772" x2="40.908" y1="58.341" y2="58.341" gradientUnits="userSpaceOnUse"><stop offset="0" stop-color="#fbf4cb"/><stop offset="1" stop-color="#c91b72"/></linearGradient><ellipse cx="37.8" cy="58.3" fill="url(#SVGID_13_)" opacity=".13" rx="3.1" ry="2.6"/><ellipse cx="44.6" cy="52.2" class="st56" rx=".6" ry=".8"/><linearGradient id="SVGID_14_" x1="46.732" x2="46.732" y1="41.92" y2="41.92" gradientUnits="userSpaceOnUse"><stop offset="0" stop-color="#8c602e"/><stop offset=".179" stop-color="#a78230"/><stop offset=".435" stop-color="#c9ac33"/><stop offset=".665" stop-color="#e1cb34"/><stop offset=".862" stop-color="#f0dd36"/><stop offset="1" stop-color="#f5e436"/></linearGradient><path d="M24.2 64.6c-.3.3-1.1.5-1.6 1.3s-1.4.7-1.6 1.5c-.9 3.9-2.5 3.4-2.2 2.5.2-1 .8-4.3 2.2-5.1 1.4-.8 1.6-.5 2-1.5.4-1 .6-1.1.5-2.9-.1-1.8-1.1-4.2-.9-5.3.2-1.1.2-1 .1-2.2-.2-1.2-.6-3.8-.6-5.5 0-1.7.6-1.3.6-3s1.2-5.1 1.3-5.3c.1-.2.5-1.4 1.2-1.7.7-.3 3.2-1.1 3.6-1.1.5 0-1.4 8.5-2.2 9-.8.5-.4 3.1-.9 3.8-.5.7 1.5 4.2 1.5 5.7 0 1.4-3.1.6-2.7 1.3.4.7 1.1 4.6.9 5.5-.2.8-.3 2.5-.5 2.5-.4-.1-.7.5-.7.5z" class="st52"/><path d="M26.3 82.3s-1.9 7.3.1 8.4c1.4.8 5.1 16.9 5.3 19.4.3 2.5 4.9 1.1 4.9 1.1s-1.5-7.6-1.7-10.2c-.2-2.6-.5-6.2-.8-7.8-.3-1.6-.3-4-.3-4s-.3-1.8 0-3.3c.3-1.6-.8-2.9-.8-2.9l-6.7-.7z" class="st50"/><path fill="#7796c6" stroke="#6789b3" stroke-width=".25" d="M28.5 64.6l2.5-1.7s5 6.7 6.2 6.7c1.2 0 .9-5 .9-5l2.2.9s1.4 4.1.7 6.1-3.1 3.5-3.1 4.6c0 1.1 1 3.1 1 3.1s.5 1.5.5 2.2c0 .7.5 2.4.5 2.4s-3.6 1.3-6.7 1.3-7.2-.7-7.2-.7 0-2.2 1.2-3.7.3-7.9.3-7.9 1-1.4 1.8-2.5c.6-.9.8-3.5.3-4.2-.6-.7-1.1-1.6-1.1-1.6z"/><path d="M33.1 66.7c0-2.2.6-2.9-.5-4s-1.1-2-.5-4c.5-2-.1-1.5-.4-4.1-.4-2.6-.9-2.7.2-4 1.1-1.3 2.4-4.6 2.4-4.6s3.2.7 4.8-.7c1.6-1.3 3.4-.5 4.5-1.3 1.1-.9 3.9-3 4.1-1.6.2 1.4 3.5 2.9 3.2 1.8-.3-1.1-5.6-6-6.4-6.8-.8-.8-5.6-2.6-5.6-2.6s-3.7-.2-4.8 0c-1.1.2-5.3 1.3-6.4 1.8-1.1.4-2.4 0-3.2 2.9-.8 2.9-.8 4.9 0 6.2.8 1.3-.5 3.1-.3 4.9.3 1.8 1.1 2.7.3 4.7s-2.4 3.3-1.9 5.3 1.9 2.2 1.3 3.6c-.5 1.3-.8 2.7-1.6 3.8-.8 1.1-1.1 9-.1 9 1.1 0 3-3.9 3.8-4.4.8-.4.8-4.7.8-5.3 0-.7 1.9-3.6 1.3-1.8-.5 1.8 1.6-1.1 1.6-1.1s2-.3 2 .7" class="st52"/><linearGradient id="SVGID_15_" x1="43.664" x2="49.8" y1="57.924" y2="57.924" gradientUnits="userSpaceOnUse"><stop offset="0" stop-color="#c91b72"/><stop offset="1" stop-color="#fbf4cb"/></linearGradient><ellipse cx="46.7" cy="57.9" fill="url(#SVGID_15_)" opacity=".05" rx="3.1" ry="2.6"/><path d="M48.1 41.8c-2.6 2.4-11.7 7.2-14.8 4.5 4.5-2.7 8.4-2.5 13.1-4.5m1.5.3c0 1.1.7 1.5.9 2.5-.3.2-.7.3-1 .2 0-.9-.1-1.7-.1-2.6" class="st52"/><path d="M47.5 42.4c-.1.5-.1 1.4-.3 1.9-.4.9-1.2.7-2 1 .4-.5.4-1.2.7-1.8.4-.6 1.1-.7 1.7-1.3" class="st52"/><path d="M44.6 45.1c-.6.3-1.3.3-1.9.6.2-.8 2.4-2.2 3.3-2.4 0 .9-.9 1.4-1.5 1.8m1.2-5.7C40.6 42.8 34.4 40 30 45c-4 4.5-.5 12-3.7 16-2.9-3.3.3-13.4 2.4-16.6 3.3-4.9 11.5-5.4 17-5" class="st52"/><path d="M47.1 41.6c-1.9-1.3-5.4 1.3-7.2 0 1.6-.2 5.3-1.7 6.8-.4m-7 2c-1.2-.4-2.2-.8-3.4-.4-1.3.3-2.3 1.5-3.7 1 .9-.6 2.6-1.2 3.7-1.3 1.2-.1 2.3.6 3.5.5m-16.3 7.4c-.2 1 .6 1.1 1 1.9.4.7.2 1.3 0 1.9-.2.4-1.5 3.8 0 3.6 1.1-.2.7-3.4.5-4.1-.4-1.7.8-2.9.9-4.7m-1.4 3.2c-.6.9.8 1.9 1.6 1.5" class="st52"/><ellipse cx="39.4" cy="52.3" class="st56" rx=".6" ry=".8"/><path d="M30.2 111.5c-.1 1.7-1.1 3.1-1 4.9.1 1.9 1.2 3.3 2.1 4.8-1.3.3-2.6.4-3.9 0-1.8-.6-1.4-1.6-1.3-3.6-.3.6-.4 1.8-1 2.2-.9.7-1.3.2-2.3-.2 1.6-2.8 1.3-6.7 2.8-9.7" class="st60"/><path d="M39.4 57.8c1.2 1.1 4.4 1.5 6.1.8" class="st54"/><path d="M33.2 84.8l6.6-1-1.2 8.1-8.1 21.2-6-2.6z" class="st61"/><path d="M37.1 110c0 2.2.4 4.3.7 6.4.4 2.4 1 3 2.8 4.7 1.7 1.5 3.3 3.6-.3 3.1-.8-.1-2.2-.3-2.8-.7-1-.6-1-1.2-1.6-2-.3 1.1.6 2-2 1.5-.8-.2-.7-1.3-.7-2 0-.8-.3-1.3-.5-2-.6-2.7-.9-5.4-1.7-8" class="st60"/><path d="M28.9 84.8s-1.7 5.6-2.5 5.9c.4 2 4.6 21.1 4.6 21.1l7.4-1s-4-17-4-18.8c0-1.8-.3-7.6-.3-7.6l-5.2.4z" class="st61"/><path fill="#969640" d="M28.6 84.5c-1.9.7-1.5 6.1-1.6 7.9-.1 2-.7 6.4.8 7.9 1.8-1.3 1.4-6 1.7-8.1.1-1.5-.8-8 .5-8.4 1.6 1.5 1.6 5.6 1.5 7.7-.1 2.6-.2 5.5-.8 7.9-.2.9-.7 2.8-2 2.8-1 0-2-1.9-2.3-2.6-.8-2.3-.5-5.8-.5-8.2 0-2.7.3-6.1 2-8.2"/><path d="M29.2 81.7c2.4-2.2 2.8 6.5 2.8 7.5 0 3.4-.3 7.1-.8 10.5-.3 1.8-1.2 6.5-4 5.3-2.5-1-2-7.2-2.1-9.3-.2-3.2-.3-6.3.5-9.4.2-.7.5-3.6 1.5-3.6 1.6-.1.3 2.5.1 3.1-1.3 4.4-1.8 11.3-.1 15.9 1 2.8 2.1.8 2.6-1.2.6-2.1 1.2-4.3 1.3-6.5.1-2.1.1-4.4 0-6.6-.1-2.3-1.7-3.7-2-5.8" class="st52"/><linearGradient id="SVGID_16_" x1="26.1" x2="31.511" y1="83.243" y2="83.243" gradientUnits="userSpaceOnUse"><stop offset="0" stop-color="#f9ebc4"/><stop offset=".467" stop-color="#f8e6b6"/><stop offset="1" stop-color="#f6dfa1"/></linearGradient><path fill="url(#SVGID_16_)" d="M28.7 80.2c1.2.2 2 .2 2.6 1.5.5 1.1-.1 2.9-1 1.2.3.6.5 1.3.3 2.1-.3.1-.7.1-.9 0-.2-.4-.5-.6-.7-.8.3 1.1 0 2.5-1.5 2.1-.1-1.1.3-2.6-1.3-2.5-.3-.4-.2-.9 0-1.3"/><path d="M29.2 64.5c-4 .6-7.1 7.4-8.9 10.6-1.1 2.1.5 3.4 2.3 4.9 1.3 1.1 2.6 2.2 3.8 3.3 1.1-.6 2.2-1.8 2.9-2.8-1.3-1.1-2.9-2.1-4.1-3.3-.7-.8-1-.8-.5-1.9.3-.6 1.3-1.3 1.8-1.8 2.5-2.4 5.8-5.6 2.9-8.9" class="st46"/><path d="M40.2 40.3c1.9-.1 5.8 1.9 7.3.7 1.9-1.5.6-4.5-.7-5.4-4.3-2.8-10.9-2.1-15.6-.7-4.8 1.4-12.9 7.1-10.8 12.9 0 0 4.7-9 19.2-7.5" class="st64"/><path d="M22 44s-3-6.2-1.8-9.8c1.2-3.6 4.7-4.5 6.6-4.2 2 .3 3.2-2 4.5-2.3 8.1-1.4 9.9 11 9.9 11S29.5 36.6 22 44z" class="st64"/><path d="M28.3 41.9C24.6 44 21.9 48 19 50.4c-3.6-3.9 3.5-12.1 7.2-13.5 4.1-1.5 16.4-.2 18.2 4.4 0 0-9.9-2.9-16.1.6z" class="st64"/><path fill="none" stroke="#8a6638" stroke-width=".25" d="M28 30c1.1.7 2.6 1.2 3.8.6"/></g></switch></svg>
