<svg xmlns="http://www.w3.org/2000/svg" version="1.0" viewBox="0 0 144.6 126"><switch><g><circle cx="71.8" cy="23.5" r="21.5" fill="#FFF"/><linearGradient id="a" x1="149.003" x2="156.073" y1="427.017" y2="434.982" gradientTransform="scale(2.86634 -2.86634) rotate(1.616 16570.967 -3941.28)" gradientUnits="userSpaceOnUse"><stop offset="0" stop-color="#fbcb98"/><stop offset="1" stop-color="#c89464"/></linearGradient><path fill="url(#a)" stroke="#663919" stroke-width=".25" d="M102.7 55.3c0 2.5.4 4.6 1.5 6.7.9 1.8 2.8 2.6 3.7 4.1 2.1 3.5.3 9.5 6.5 9.2-.1 2.2.9 3.3 1.4 5.2.5 2.1-.4 4.5.4 6.5.7 1.7 2.3 2.9 2.9 4.6.8 1.9.9 4.1 1.4 6.2.9 3.6 1.6 8-1.2 11-1.3 1.4-3.2 1.4-4.7 2.4-1.7 1.2-2.3 2.6-3 4.4 4.4.2 10.9.9 12.3-3.5 1.4-4.3 1.2-9.7 1.8-14.2.6-4.1 1.1-9.6-.3-13.6-1.5-4.3-3.4-7.5-3.5-12.2-.1-4-.2-7.8-.9-11.7-.6-3.4.6-12.7-2.6-14.4"/><linearGradient id="b" x1="124.603" x2="125.845" y1="473.422" y2="444.694" gradientTransform="scale(2.86634 -2.86634) rotate(1.616 16570.967 -3941.28)" gradientUnits="userSpaceOnUse"><stop offset="0" stop-color="#fbcb98"/><stop offset="1" stop-color="#c89464"/></linearGradient><path fill="url(#b)" stroke="#663919" stroke-width=".25" d="M19.1 9.5c.9-1 1.3-2.7 1.3-4.1 2.1-.3 3.3 2.5 3.3 4.2"/><linearGradient id="c" x1="131.657" x2="139.46" y1="427.918" y2="436.887" gradientTransform="scale(2.86634 -2.86634) rotate(1.616 16570.967 -3941.28)" gradientUnits="userSpaceOnUse"><stop offset="0" stop-color="#fbcb98"/><stop offset="1" stop-color="#c89464"/></linearGradient><path fill="url(#c)" stroke="#663919" stroke-width=".25" d="M54.6 54.1c-.4 2.7 2.1 8.1 3.1 11.3.9 2.8 2 5.9 3 8.5 1.7 4.4 2.6 8.9 2 13.5-.3 2.7.5 3.3 1.2 5.6.7 2 .3 4.4.2 6.7-.1 4.9.3 8.2-2.7 12.2-1.4 1.9-4.4 4.6-4.5 6.9 4.1 1.3 10.3-.9 12-4.2 2-3.9 1.5-9.1.6-13.3-.4-2.2-1.3-4-1.1-6.4.1-2.1 1.4-4.2 1.1-6.5-.3-2.6-1.1-4-.6-6.8.4-2.3.9-4.7 1.1-7.1.5-5.3-.2-11.3-2.9-15.8"/><path fill="#976732" stroke="#663919" stroke-width=".25" d="M13.4 22c.4.4.7.8.7 1.5.2-.1.4-.1.6-.2.9.7.1 2.1 1.1 3.1.2-.4.4-.5.4-1.2.4.7 1.1 2.1 1.1 3.2.8-.1 1.1-.7 1.2-1.5.3.4.8.6 1.1 1 .5-.5 1-.5 1.7-.6.2 1.1-.8 3.1.9 3 .1 1 1.1 1.5 1.5 2.5.4 1 .8 2.6.8 3.7.3-.2.8-.2 1.1-.6 0 1.3 1 4.6 2.5 4.3 1.1 1.1 2.2 2 4.1 1.8-2.1-.6-3.3-4.6-4.2-6.4-1.1-2.4-2.2-4.7-3.1-7.2-.8-2.2-1.2-5.8-4-5.9-2 0-5.6.8-7.5-.5"/><linearGradient id="d" x1="166.676" x2="165.609" y1="436.144" y2="446.545" gradientTransform="scale(2.86634 -2.86634) rotate(1.616 16570.967 -3941.28)" gradientUnits="userSpaceOnUse"><stop offset="0" stop-color="#976732"/><stop offset="1" stop-color="#c89464"/></linearGradient><path fill="url(#d)" stroke="#663919" stroke-width=".25" d="M136 36.9c4 3 5.4 7 5.7 12.1.3 4.5-2.6 8.4-2.3 13.3 4.1-.2 2.4 6 5.2 7.5-1 0-1.9-.1-2.8-.4.9 1.7 1.3 4.2-.2 5.6.2-3.4-3.8-5-4.3-8.5-.4-3-.5-6.9.3-9.7 1-3.4 2.2-5.9 1.6-9.8-.5-3.2-4-5.3-2.9-8.9"/><path fill="#976732" stroke="#663919" stroke-width=".25" d="M25.3 11.3c1-.8 2.3-1.8 3.7-1.6-.4.3-.4.6-.7.9.5-.1 1 .1 1.5 0-.1.2-.2.5-.3.6.3 0 .8.2 1.2.2-.3.3-.5 1-.7 1.3.7 0 1.2.3 1.8.6-.2.2-.3.8-.6 1.1 1 1.9 2.5 6.1 1.9 8.7-1.8-3.4-4.6-9.6-8.2-11.6"/><linearGradient id="e" x1="148.768" x2="150.012" y1="474.474" y2="445.676" gradientTransform="scale(2.86634 -2.86634) rotate(1.616 16570.967 -3941.28)" gradientUnits="userSpaceOnUse"><stop offset="0" stop-color="#fbcb98"/><stop offset="1" stop-color="#c89464"/></linearGradient><path fill="url(#e)" stroke="#663919" stroke-width=".25" d="M113.9 53.8c-1.8 4.9 2.4 8 3.8 11.9 1.2 3.3.5 6.9 1.7 10.3 1.3 3.5 3.3 7.7 4.1 11.6.8 3.6-.8 7.9-.7 11.9.1 4.4 1 7.8-2.4 10.7-1.4 1.2-3.5 2.2-4.3 4-.9 2.1-.3 3.4 2.5 2.3-.1.8.5 1.4.4 2.2 1.8 0 4.7.5 5.8-1l1.6-.6c2.4-3.1 1-7.5.9-11.3-.1-3.4.6-7.7 1.5-10.9 1.5-5.2 1.9-8.6.4-13.6-1.4-4.6-2.1-9-.1-13.5 3.3-7.8 7.4-14.6 8.1-23.1.5-6.2-.4-8.7-4.5-13.8-5.5-6.9-17.5-14.2-24.3-15.2-6.9-1-12.1 1.8-15.1 3.4-3.1 1.6-2.5 1-5.9.8-3.4-.2-2.2 1-3.7 1.9-1.5.9 1.6.8-5.9.5C70.3 22 62 26 53.2 33.6c-8.8 7.6-.4 21.2-.4 21.2 2.2 4.6 8.7 8.2 10.8 8.8 0 0 23.7 2.5 39.3-3.8 8.2-3.5 11-6 11-6z"/><linearGradient id="f" x1="136.656" x2="143.803" y1="420.515" y2="440.704" gradientTransform="scale(2.86634 -2.86634) rotate(1.616 16570.967 -3941.28)" gradientUnits="userSpaceOnUse"><stop offset="0" stop-color="#fbcb98"/><stop offset="1" stop-color="#c89464"/></linearGradient><path fill="url(#f)" stroke="#663919" stroke-width=".25" d="M61.4 55.1c.8 3.7 2.7 7.1 4.5 10.5.9 1.6 2.9 3.3 3.4 4.9.4 1.5 0 3.9.5 5.6 1 3.9 2.2 7.2 2.2 11.4-.1 4.3-.4 7.8.3 12.1.8 4.7 2.1 10.5.2 15.1-.9 2.2-3.1 4.2-3.9 6.3-1 2.8 2 5.1 4 2.2.3 3 4.3 4.1 6.3 1.5 1.7-2.2-.4-5.9-.8-8.2-.5-2.7-.4-5.8-.2-8.5.2-3.1 1-6.2.7-9.2l-1-2c1.9-3.4 1.1-6.5.4-10.1-.7-3.8-.4-7.1.9-10.6.6-1.7.5-3.8 1.1-5.3.5-1.3 2-2.6 2.8-3.9 2.1-3.4 2-6.4 3.4-9.8"/><path fill="#C89464" d="M25.8 11.8c.4-.3.9-.5 1.3-.8-.3.3-.4.7-.4 1.1.7-.8 1.6-.8 2.6-.8-.8 0-1.6.6-1.8 1.3.2 0 .3-.1.5-.1 0 .2 0 .5-.1.7.1.1.3 0 .4 0 0 .1-.1.4-.1.6.5 0 .9-.1 1.4-.3-.2.4-.4.8-.6 1.3.3-.1.6-.2.9-.4-.1.4-.4.8-.5 1.2.6 0 1.1-.3 1.4-.6.2.9-.2 1.7-.5 2.4-.8-.7-1.5-2-2.2-3-.7-.9-1.8-1.6-2.3-2.6M16.2 23c.2.8 1.1 1.3.7 2.2.2-.6.5-1.1.2-1.7.1.4.3.6.3 1.1.2-.3.4-.6.4-1 .1-.1.1.1.2.1.1-.1.1-.3.2-.3h.4c.1.7 0 1.3-.3 1.9.6-.3.7-1.5 1.4-1.8.1 1.2-.2 2-.4 3.2 1-.7 1-2.1 1.9-2.7-.1.2 0 .5-.1.7 1.9-1.4 2.2 2.6 1.3 3.7.4-.2.5-.2.9-.6 0 .9-.8 1.4-.6 2.4.1-.3.5-1.1 1.2-1.2v.5c1.7.6.8 2.8.6 3.9 2-2.8.7-6.7-1.3-9.1-2.1-2.6-4.4-1.4-7.2-1.2"/><linearGradient id="g" x1="126.75" x2="127.994" y1="473.54" y2="444.735" gradientTransform="scale(2.86634 -2.86634) rotate(1.616 16570.967 -3941.28)" gradientUnits="userSpaceOnUse"><stop offset="0" stop-color="#fbcb98"/><stop offset="1" stop-color="#c89464"/></linearGradient><path fill="url(#g)" stroke="#663919" stroke-width=".25" d="M59 53.6c-8.4 3.4-18.5-3-24.8-8.6-3.6-3.2-5.9-6.7-7.9-10.9-1.7-3.5-1.9-7.9-4.2-10.7L8.1 21c-2.6 0-5.8 2.3-8.1-.9 0-5.5 2.1-6.5 4.5-7.6 3.8-1.8 4.2-.8 7-2.3 3.3-1.9 3.6-1.6 9.6-1.2l6.1 3.4c6.2 6.7 7.4 16 13.8 22.9 2.2 2.4 6.3 4.3 9.7 2.9"/><linearGradient id="h" x1="121.461" x2="122.704" y1="473.296" y2="444.524" gradientTransform="scale(2.86634 -2.86634) rotate(1.616 16570.967 -3941.28)" gradientUnits="userSpaceOnUse"><stop offset="0" stop-color="#fbcb98"/><stop offset="1" stop-color="#c89464"/></linearGradient><path fill="url(#h)" stroke="#663919" stroke-width=".25" d="M24.3 17.4c.2 1.9-1.3 3.9-3 4.8-2.4 1.4-2.7 1.3-5.2.9-2.3-.3-6-1.8-8.2-1.7-2.1.1-4 1.7-5.8 1 0 0-.7-.1-.4-1.3"/><path fill="none" stroke="#663919" stroke-width=".25" d="M1.7 21.2c1.7-.3 4-1.2 5.6-.4"/><path fill="#343433" stroke="#2D1414" stroke-width=".25" d="M10.8 14.5c1-.5 1.6-1.7 2.7-1.9 1.6-.3 1.8.8 2.8 1.7-1.4.2-3.8 1.2-4.7-.4"/><linearGradient id="i" x1="148.305" x2="145.512" y1="452.2" y2="461.94" gradientTransform="scale(2.86634 -2.86634) rotate(1.616 16570.967 -3941.28)" gradientUnits="userSpaceOnUse"><stop offset="0" stop-color="#976732"/><stop offset="1" stop-color="#c89464"/></linearGradient><path fill="url(#i)" stroke="#663919" stroke-width=".25" d="M79.2 33.6c-1.2.6-2.2-.7-3.3.4.2 1-1.1 3.2-1.6 4-1-.2-2.8.5-3.8-.1-1.6-.9-.5-3.3-2.1-3.7-.2-1.7-1.5-.8-2.4-.6-.2-.9-1.5-1.5-2.3-1.7-1.5-.2-1.7 0-2.4 1.7-.4 1.1.2 2-1.1 2.8-.7.4-1.9 0-2.5-.6-.8.4-1.9 2.8-2.4.8-.7-.2-1.3-.3-2-.5-.1-.5-.1-1.1.1-1.5l-.4-.1v-.6c1.8-1.7 6.7-7.8 6.2-10.2 1.4 0 1.8-2.2 2.6-3 1.2-1.2 2.4-2.4 3.7-3.4 1.3-1 2.8-1.4 4.2-1.7 1.2-.2 4.4.5 4.7-.1.9-.5 1.6-.2 1.7 1 .6-.1 1.2 0 1.7-.4.6 1 2.2.9 3.1 1.4 1.1.5 1.9 1.3 3 1.8 2.9 1.4 5.5.2 8.3-.6 1.6-.4 2.4-1.3 3.8-2.1 1.3-.8 2.8-1.1 4.1-1.7 3-1.5 5-.7 8.1.2 3 .8 5.5 1.7 7.8 3.5.8.7 2.4 1.6 3 2.3 1 1 .4 2.5-1.1 1.3-.1.4-.4.6-.5 1.1-.4-.2-.6 0-1-.4-.4.1-1.1.5-1.4.7.4 1.2-1 3.7-1.8 5-1 0-1.3-1-2.2-.8-.4.1-1.9 1.5-2.2 1.8-1.5 1-3.2 1.6-4.8.8-1.2-.6-.5-.9-1.3-1.6-.5-.4-1.6-.7-2.2-.7-2.1-.1-2.1 1.4-.2 2.2 0 .2-.3.5-.5.7 0 .1.2.2.1.3-1.9 1.1-5.8.7-7.2-.7-1-1-.8-2.2-2.3-3-.4-.2-.6.2-.9.2-1-.2-.6-.8-1.1-1.3-.6-.5 0-.6-.9-1.1-.5-.3-1.5-.3-2.1-.2-2.9.5-3.8 3.6-3.7 6-1.5-.5-1.2 1.8-2.5 2.4z"/><path fill="#CC6732" stroke="#663919" stroke-width=".25" d="M.9 16.6c1.1 0 4.3-.9 4-2.2-.2-.1-.6-.2-.7-.2-.8.5-1.1 1.3-1.4 2.1"/><path fill="#C89464" stroke="#2D1414" stroke-width=".25" d="M16.5 14.5c-.7-.6-1.7-1.4-2.6-1.5-1.1-.1-1.8.5-2.6-.3.2 0 .5 0 .6.1-.2-.1-.4-.3-.5-.3 1.1.3 2.1-.6 3.2-.2.7.3 1.8 1.6 1.9 2"/><linearGradient id="j" x1="125.628" x2="126.874" y1="473.508" y2="444.661" gradientTransform="scale(2.86634 -2.86634) rotate(1.616 16570.967 -3941.28)" gradientUnits="userSpaceOnUse"><stop offset="0" stop-color="#fbcb98"/><stop offset="1" stop-color="#c89464"/></linearGradient><path fill="url(#j)" stroke="#663919" stroke-width=".25" d="M21.5 9.9c.6.5 3.5-3.6 4.8-4.5 1.6 2 1 7.6-2.3 6.5"/><path fill="none" stroke="#663919" stroke-width=".25" d="M22.2 11.9c1.6 1.4 3.6-2.9 4.2-3.9m34.5 21.7v.5c.2-.1.3 0 .5-.2 0 .1.1.3 0 .4.1.1.2 0 .3 0 0 .1 0 .3.1.5.4 0 .6-.1.8-.5.4.3.7.1.9-.4.1 0 .3.1.4.2.1-.1.1-.2.2-.2.2.4.1.3.5.4 0 1.2 3.1.1 2-1.3m8.1 1c-.2.6.8.7.9.1 0 .1.2.2.2.3 0-.1.2-.3.3-.4.6.3.8-.3.7-.8.5.3 1 .1 1.2-.4.6.6 1.5-.4.9-1 .2-.4.1-.5-.3-.6V27c.7.2.6-.7.7-1.2m-21.9 5.8c-.1.4.1 1.2.8.6.3.4.1.2.5.4.1 1.1 1.7.1 1.2-.6m7.7-14.5c0-.4.1-.7.5-.8.1 0 .1.1.1.2.2-.4.5-.5.8-.1.2-.2.5-.1.7-.2 0 .2.1.3.1.4.9-.5 1.5.4 1.1 1.1m24 10.3c-.4.7 1.3 1.6 1.4.7.2.1.5 0 .7.1.1-.1.1-.3.1-.4.5-.1.5 0 .5-.5h.5c.1-.2.1-.3.1-.5m-2-9.1c-.3-.1-.4-.2-.4-.5h.4s-.1-.3-.1-.4c.1-.1.2 0 .2 0-.3-.8 1.6-1.3 1.9-.9m-17 2.7c.3-.5 1-.3.9.3.1-.1.3-.2.4-.3.1.2.3.4.4.6.5-.1.9.2.6.7m.6-1.5c.5.4 1.3.9 1.9 1.3.9.4 1.9.3 2.9.6"/><path fill="#676768" d="M12.9 13.3c-.2.5.3.7.5 1.1-.3.1-.6 0-.8-.2-.1-.2-.2-.6-.1-.8.1 0 .2-.1.4-.1"/><path fill="#966929" d="M72.5 122.3c-.2.1-.4.3-.6.4-1.2-.6-2.2-1.5-2.4-2.9-1.3 0-1.2 3-.5 3.7 1.1 1.2 2.4-.3 3.5-.6-.1 4.5 8.5 3.9 6.5-.6h-.5c-1 3.6-4.5-.1-6 .8m44.1-9.6c-.9 1.9 1.3 1.5 2.4 1.6-1.4 3.1 5.5 1.2 6.3 1.4-.5 1.8-5 2.6-6.1 1.5-.4-.4-.1-1.2-.7-1.6-.5-.3-1 .3-1.5.1-1.2-.6-1.5-2.1-.4-3.2M59 115.1c-2.4 3.9 2.8 2.7 4.6 3-2.4 1-4.3 1.6-6.8.5.1-1.4 1.5-2.5 2.2-3.5m54.4-2.4c-.2.2-.4 0-.4.4.7.7 1.8.4 2.6.1.1.6 0 1.1-.2 1.9-1.1.1-2.2 0-3.2 0 .2-.6.6-1.5 1-2"/><circle cx="72.5" cy="23.5" r="21.5" fill="none" stroke="#FC3" stroke-width="3"/></g></switch></svg>
