<svg xmlns="http://www.w3.org/2000/svg" version="1.0" viewBox="0 0 39.7 61.3"><switch><g><path fill="#D0E7C4" stroke="#669866" stroke-width=".25" d="M17.8 0l4.4 1.5-1.3 4.1-.3 1.4-.5.3v1.5l.2.7.6.5-.4 3.4.7.9.6.5 1.6 3.7.1.8.3.7.4.3.6.5.2.4 1 .1v.6l-.6 1.1-.6.7-.4.9-.3.1-.1 1.2.2.6-.3.3h-.4l-.6.2-.1.6v.7l-.4.4-.1.4.5.1.3.4.6.4.7.1.3-.5.5-.3.5-.4.5.2.1.9v2.3l.3.8.3.8.3.8-.1.8-.1.7.8.3.7.5.2 1-.1 1.3.3.6.3.5.6.1.5-.3.8.2.5.4 1.1.1.1-.6.9.1 1.6.2.5.3 1 .2.5-.5.4-.5.5-.2.6.4.1.8.8 1-4.8 19.2L17.5 57 0 51.5l4.6-13.6.1-.2.4-.2.6-.8.5-1.1-.6-1.3-.7-.6.8-1.3L7 31.3l1.4-.3.4-1.2.4-.8.8.1.3-1.5.9-.8 1.1-1.4-.3-1-.4-1h-.8l.1-1.3.1-3.1.5-2.1z"/></g></switch></svg>
