<svg xmlns="http://www.w3.org/2000/svg" version="1.0" viewBox="0 0 81.9 48"><switch><g><linearGradient id="a" x1="340.773" x2="344.918" y1="88.775" y2="88.775" gradientTransform="rotate(-8.39 -275.114 2326.154)" gradientUnits="userSpaceOnUse"><stop offset="0" stop-color="#fbf8cd"/><stop offset="1" stop-color="#ffc969"/></linearGradient><path fill="url(#a)" stroke="#C99564" stroke-width=".5" d="M7.9 22.1c.1.4.4.8.7 1v-.3l.7.7v-.3c.4.1.5.1.7-.1.7.4 1.6-.5 2-1"/><linearGradient id="b" x1="337.907" x2="337.701" y1="7.701" y2="-39.455" gradientTransform="rotate(3.242 -544.89 -5069.165)" gradientUnits="userSpaceOnUse"><stop offset="0" stop-color="#fbf8cd"/><stop offset="1" stop-color="#ffc969"/></linearGradient><path fill="url(#b)" stroke="#C99564" stroke-width=".5" d="M47.4 22.9c.7 3.1.7 5.6 2.2 8.5 1.1 2.2 2.7 5.4.4 7.4-.6.5-3.3 1.3-2.3 2.9.5.9 3.7.9 4.7.8 3.7-.6 2.2-4.4 2.2-7.1 0-1.2 0-2.2.3-3.4-.3 0-.8-.2-1.1-.1.6-1.2.9-3.3 1-4.7.2-2.4 1.7-4.5 2.1-6.9"/><linearGradient id="c" x1="358.183" x2="357.977" y1="7.489" y2="-39.55" gradientTransform="rotate(3.242 -544.89 -5069.165)" gradientUnits="userSpaceOnUse"><stop offset="0" stop-color="#fbf8cd"/><stop offset="1" stop-color="#ffc969"/></linearGradient><path fill="url(#c)" stroke="#C99564" stroke-width=".5" d="M62.9 6.8c3.7-.8 6.7 1.4 8.8 4.1 2.9 3.7 3.1 7.1 2.8 11.7-.2 3.6-1.2 8.6.6 11.9 1.5 2.7 3.4 2.9 6 .6 2.9 2.5-2.5 5.5-4.9 4.8-3.1-.9-3.7-3-4.5-5.6-1.8-5.7.9-11.8-.5-17.6-.6-2.4-1.9-4.7-4.6-5.4"/><linearGradient id="d" x1="312.052" x2="311.846" y1="7.909" y2="-39.18" gradientTransform="rotate(3.242 -544.89 -5069.165)" gradientUnits="userSpaceOnUse"><stop offset="0" stop-color="#fbf8cd"/><stop offset="1" stop-color="#ffc969"/></linearGradient><path fill="url(#d)" stroke="#C99564" stroke-width=".5" d="M21.3 21.2c2.2 5.1 5.4 12.9 4.1 18.8-1.6-.1-2.5-.8-3.5.7-.8 1.3-.6 2.7.6 3.3 1 .5 3.1 0 4.1-.3 2.1-.6 1.6-.8 2.1-3.1 1.3-6.2 3.2-12.1 1.5-18.8"/><linearGradient id="e" x1="284.025" x2="304.153" y1="-26.48" y2="-45.413" gradientTransform="rotate(3.242 -544.89 -5069.165)" gradientUnits="userSpaceOnUse"><stop offset="0" stop-color="#fbf8cd"/><stop offset="1" stop-color="#ffc969"/></linearGradient><path fill="url(#e)" stroke="#C99564" stroke-width=".5" d="M7.6 5.1c1.3-1 2.3-3.6 1.6-5.1 2.5.1 4.2 3.2 2.3 4.9"/><linearGradient id="f" x1="326.917" x2="326.692" y1="11.91" y2="-39.645" gradientTransform="rotate(3.242 -544.89 -5069.165)" gradientUnits="userSpaceOnUse"><stop offset="0" stop-color="#fbf8cd"/><stop offset="1" stop-color="#ffc969"/></linearGradient><path fill="url(#f)" stroke="#C99564" stroke-width=".5" d="M61.1 21.7c-.8.5-2.2.2-3.2.5-.9.3-1 1.4-1.4 2.2-.9 1.8-7.7 3.5-9.8 4-1.7.4-10.2-.1-11.9-.2-2.1 0-6 1.4-6.3-1-4-.8-3.7-3.4-5.2-2 .1-1.3 0-2.8-.8-1.7-.2-.4-.4-.8-.4-1.2-.3.1-.5.4-.6.7-.2-.4-.2-.9-.2-1.4-.3.1-.6.2-.8.5-.9-1-.8-5.3-6.3-3.7 0 0-1-16.2 4-14.1 8 3.4 8.4.3 12 1.2 1.5.4 5.1 1.7 6.6 2 1.5.4 5 .8 6.6.6 3.7-.3 7.2-1.3 10.7-2.4 4-1.3 10.1-.9 12.3 2.6.9 1.4 1.7 2.4 2.2 3.9.6 1.8.2 3.9-.1 5.7-.6 2.9-2 3.9-2.7 6.8"/><linearGradient id="g" x1="292.492" x2="314.918" y1="-17.862" y2="-38.955" gradientTransform="rotate(3.242 -544.89 -5069.165)" gradientUnits="userSpaceOnUse"><stop offset="0" stop-color="#fbf8cd"/><stop offset="1" stop-color="#ffc969"/></linearGradient><path fill="url(#g)" stroke="#C99564" stroke-width=".5" d="M4.9 20c.1 1.4 2.9 3.3 5 1.3"/><linearGradient id="h" x1="298.171" x2="297.965" y1="8.036" y2="-39.096" gradientTransform="rotate(3.242 -544.89 -5069.165)" gradientUnits="userSpaceOnUse"><stop offset="0" stop-color="#fbf8cd"/><stop offset="1" stop-color="#ffc969"/></linearGradient><path fill="url(#h)" stroke="#C99564" stroke-width=".5" d="M19.8 9.5c2 2.5 1.5 5.8-1.3 7.7-1.1.8-2.5 1.2-3.6 2.1-1.1.9-1.4 1.9-2.7 2.6-1.4.7-3 .8-4.3-.1-.4-.3-.6-.4-1-.5-1.2-.1-1.1-.8-1.6-1.1-2.4-1.2.4-3.9.4-6.5 0-1.4-.5-2.3-.7-3.4-.1-.5 1.2-2.6 1.5-3.3.9-2.3 2.6-3.1 5.8-3.8 0 0 5 0 8 2.4"/><path fill="#343433" d="M6.8 21.3c0-1.1 1.6-1.2 1.5-2.3-.7-.1-1.2.3-1.8.5-.7.2-1.2 0-1.9.1-1.1.1.9 1.1 2 1.7"/><linearGradient id="i" x1="288.948" x2="309.217" y1="-20.898" y2="-39.963" gradientTransform="rotate(3.242 -544.89 -5069.165)" gradientUnits="userSpaceOnUse"><stop offset="0" stop-color="#fbf8cd"/><stop offset="1" stop-color="#ffc969"/></linearGradient><path fill="url(#i)" stroke="#C99564" stroke-width=".5" d="M15.4 6.2c0 .1-.2.2 0 .1.8-.8 1.6-1.7 2.2-2.7.6-.9 1-2.4 2.4-1.5 2.5 1.7 1.1 5.3-1.7 5.7"/><path fill="none" stroke="#C99564" stroke-width=".5" d="M17.5 7.4c.1.1.6.2.9.1l-.3-.3c.5 0 1.1.1 1.5-.2-.4 0-.7-.2-.9-.4.4.2.8 0 1.2-.2l-.6-.3c.4 0 .7-.2.9-.5-.4-.1-.7-.2-.9-.5.6-.1.4-.9 1-.9.8 0 .6 1.1.2 1.4"/><linearGradient id="j" x1="318.252" x2="318.046" y1="7.856" y2="-39.29" gradientTransform="rotate(3.242 -544.89 -5069.165)" gradientUnits="userSpaceOnUse"><stop offset="0" stop-color="#fbf8cd"/><stop offset="1" stop-color="#ffc969"/></linearGradient><path fill="url(#j)" stroke="#C99564" stroke-width=".5" d="M27 23.8c.2 3 2.5 6.6 3.1 9.7.7 3.5.9 6.8.6 10.3-2.2-.4-3.7 1-3.4 3.6 1.7.7 8.8 1.4 8.1-1.8.3.1.9-.1 1.2 0-.5-.6-.3-1-.6-1.7.2-.1.3 0 .5 0-.6-3.1-1.1-6.7-.8-9.9.2.1.5.1.8.2-.6-4.1.2-8.9.4-13.3"/><linearGradient id="k" x1="346.785" x2="346.579" y1="7.624" y2="-39.461" gradientTransform="rotate(3.242 -544.89 -5069.165)" gradientUnits="userSpaceOnUse"><stop offset="0" stop-color="#fbf8cd"/><stop offset="1" stop-color="#ffc969"/></linearGradient><path fill="url(#k)" stroke="#C99564" stroke-width=".5" d="M55.2 20.4c-1.1 2.7-.5 7.2 1.1 9.6.7 1.1 2.2 1.6 2.9 2.6.9 1.2 1 2.9 1.1 4.3.1 1.3.3 3.4-.3 4.5-.7 1.2-2.6 1.3-3.6 2.3-.8.9-1.1 2.2 0 2.9.7.4 3.8.5 4.5.1 3.3-1.9 1.9-6.5 5.3-8-.4-.3-.6-.9-1-1.2 1.1-1.1.6-5.1.2-6.7-1.2-4.7.6-7.3 1.6-9.9"/><path fill="#FFF" d="M80 36.4c-.7-.1-2.3-.2-3.3-.3.1.2.3.7.5.9-.7-.1-1.2-.1-1.8-.6 0 .6 0 1.2.3 1.7-.2.1-.4 0-.6 0 0 2.3 3.5 1.7 4.8.9 1.8-1 2.1-4.2.4-2.6M36.9 23.7c.4.5 2.6.8 2.9 1.3-.1-.3-.1-.7 0-1.1.5.7 1.3.8 2.1.9-.1-.5-.3-1-.4-1.5.8 1.2 3.2 1.1 4.4 1.8.3-.5-.1-1.1-.6-1.4.6.3 1.1.6 1.8.7 0 0 .4-.3.6-.3.2 0 .6.3.9.3l-.3-.3c.4-.4 1.6.2 1.9-.4.2-.5-.6-1.2-.9-1.5 1.1-.1 2 .9 2.8 1.4 0-.3.1-.5.2-.7.7.1 1.1.3 1.8.3.6 0-.3.1.3.2.1.6.1 1.6.2 2.2-1.5.5-1.6.6-3.1 1.1-1.3.4-2.6 1.1-3.9 1.4-1.5.3-3.4 0-5 0-1.6.1-4.3-.1-5.9-.2m-9.4-1.3c.2.8.2-3.2-.1-5.6-.2.2-.5.4-.6.6.1-.4.1-.9.2-1.4-.7.4-2.5.9-2-.5-.7.2-1.1.8-1.9.9-.5-1.1-.9-1.2-2-1.5.3.3.3.7.2 1.1-.4 0-.8-.1-1.2-.1-.1.5.3 1.3.4 1.8.4-.1.8-.3 1.2-.3 0 .3 0 .7.1 1 .2-.2.5-.3.7-.4 0 .4.1.8.3 1.1.7-.7 1.1.7 1.1 1.6.6-1 2.7 2.2 3.6 1.7m41.2-11.2c-.4.8-1 1.9-2.1 1.9.2 0 .5.2.8.2-.6 1-1.7 1.5-2.2 2.7.4-.2.8-.3 1.2-.4-.8 1.2-.9 2.5-1.7 3.7-.6 1.1-1.6 2-1.5 3.4.2-.2.6-.4.9-.7 0 1.5-.5 3-.3 4.5.1-.2.4-.4.6-.6-.2 2.4 1.9 5.2.3 7.3 1.9 1.2 1.2-4 1.1-4.6-.3-1.9-.5-4-.3-6 .1-2 1-3.6 1.8-5.4.8-1.7.9-3.8 1.7-5.5" opacity=".39"/><path fill="#C99564" d="M41 9.2c-.9-.1-1.1 1-.3 1.3 1 .3 1.1-.8.4-1.2"/><path fill="#343433" d="M40.3 9.3c.4 0 .6.1 1-.1.2.3.2.6.1 1h-.5c-.2-.2-.3-.3-.7-.3-.1.5.3 1.6.8.7.2.1.6 0 .8 0 .3-.4.6-.8.4-1.3-.3-.5-1.3-.8-1.9-.6-.2.2-.2.4-.2.5"/><path fill="#C99564" d="M43.6 11.2c-.9-.1-1.2 1-.3 1.3.9.3 1.1-.8.4-1.2"/><g fill="#343433"><path d="M44.2 11.3c-.5.1-1.1.3-1.5-.1 0-.8 1.9-.7 1.4.1"/><path d="M44.4 11.1c.3.3.3.8.2 1.2-.3 0-.4.1-.7 0-.4.9-1.2.6-1.5-.1.4-.4.9-.3 1.2 0 .1-.1.5-.3.5-.4 0-.2.2-.6.2-.7"/></g><path fill="#C99564" d="M46 9.9c.9.3 1.3-.8.5-1.2-.9-.4-1.3.6-.7 1.1"/><path fill="#343433" d="M46.8 9.8c-.4-.1-.6-.2-1-.1-.1-.3-.1-.7.1-1 .2 0 .3 0 .5.1.1.3.3.3.6.4.2-.5.1-1.6-.6-.8-.2-.1-.6-.1-.8-.1-.4.3-.8.7-.7 1.2.2.5 1.1 1 1.7.9.2-.2.3-.4.2-.6"/><path fill="#C99564" d="M35.8 9.2c-.7-.1-.9.8-.2 1 .8.2.9-.6.3-1"/><path fill="#343433" d="M34.9 10.1c.3-.5-.4-1.3.3-1.5.4.3 1.8.1 1.4 1.1-.4 1-.7-1.1-1.4-.2.1.1.5.9.5 1-.3.4-.8-.1-.9-.4"/><path fill="#C99564" d="M38 13.6c-.1-.6-1-.5-1 .1s.8.5 1-.1"/><path fill="#343433" d="M37 13c.5.1 1.1-.6 1.5-.2-.2.4.4 1.4-.6 1.4-1-.1.8-.8-.2-1.1-.1.1-.7.6-.8.6-.4-.1-.1-.6.1-.8"/><path fill="#C99564" d="M44.5 18.2c-.5-.1-.6.6-.2.7.6.1.7-.4.2-.7"/><g fill="#343433"><path d="M44.8 18.3c-.3 0-.6.2-.8-.1 0-.4 1.1-.4.8.1"/><path d="M44.9 18.2c.2.2.2.4.1.7-.2 0-.2.1-.4 0-.2.5-.7.3-.9-.1.2-.2.5-.2.7 0 .1 0 .3-.2.3-.2.1-.1.2-.3.2-.4"/></g><path fill="#C99564" d="M42 17c.5-.2.1-.8-.4-.6-.5.2-.1.7.4.6"/><g fill="#343433"><path d="M41.7 17.2c.2-.2.4-.5.7-.5.3.4-.6.9-.7.5"/><path d="M41.7 17.3c-.2 0-.4-.2-.5-.5.1-.1.1-.2.3-.2-.2-.5.3-.6.7-.5 0 .3-.3.4-.6.4 0 .1-.1.3-.1.3.1.1.2.4.2.5"/></g><path fill="#C99564" d="M40.6 12.9c.5-.2.1-.8-.4-.6-.4.1-.1.6.4.6"/><g fill="#343433"><path d="M40.3 13c.2-.2.4-.5.7-.5.3.4-.5 1-.7.5"/><path d="M40.3 13.2c-.2 0-.4-.2-.5-.5.1-.1.1-.2.3-.2-.2-.5.3-.6.7-.5 0 .3-.3.4-.6.4 0 .1-.1.3-.1.3.2.1.2.3.2.5"/></g><path fill="#C99564" d="M53.3 18.5c.1.5.8.3.8-.2-.1-.4-.7-.3-.8.2"/><g fill="#343433"><path d="M53.2 18.2c.2.2.4.4.3.7-.4.2-.8-.7-.3-.7"/><path d="M53.1 18.2c.1-.2.4-.3.6-.4 0 .2.2.2.2.3.6 0 .6.4.3.7-.3-.1-.3-.3-.3-.6-.1 0-.3-.1-.3-.2-.1.2-.4.2-.5.2"/></g><path fill="#C99564" d="M49.4 9.1c-.9-.1-1.1 1-.3 1.3.9.3 1.1-.8.4-1.2"/><path fill="#343433" d="M48.7 9.3c.4 0 .6.1 1-.1.2.3.2.6.1 1h-.5c-.1-.2-.3-.3-.6-.3-.1.5.2 1.6.8.7.2.1.6 0 .8 0 .3-.4.6-.8.4-1.3-.3-.5-1.3-.8-1.9-.6-.2.2-.2.4-.2.6"/><path fill="#C99564" d="M53.5 11.9c-.9-.1-1.2 1-.3 1.3 1 .3 1.1-.8.4-1.2"/><path fill="#343433" d="M52.8 12.1c.4 0 .6.1 1-.1.2.3.2.6.1 1h-.5c-.2-.2-.3-.3-.7-.3-.1.5.3 1.6.8.7.2.1.6 0 .8 0 .3-.4.6-.8.4-1.3-.3-.5-1.3-.8-1.9-.6-.2.2-.2.4-.2.5"/><path fill="#C99564" d="M52.8 7.7c-.9-.1-1.2 1-.3 1.3 1 .3 1.1-.8.4-1.2"/><path fill="#343433" d="M52 7.9c.4 0 .6.1 1-.1.2.3.2.6.1 1h-.5c-.2-.2-.3-.3-.7-.3-.1.5.3 1.6.8.7.2.1.6 0 .8 0 .3-.4.6-.8.4-1.3-.3-.5-1.3-.8-1.9-.6-.2.2-.2.4-.2.6"/><path fill="#C99564" d="M47.9 12.5c-.9-.1-1.2 1-.3 1.3 1 .3 1.1-.8.4-1.2"/><path fill="#343433" d="M47.2 12.7c.4 0 .6.1 1-.1.2.3.2.6.1 1h-.5c-.2-.2-.3-.3-.7-.3-.1.5.3 1.6.8.7.2.1.6 0 .8 0 .3-.4.6-.8.4-1.3-.3-.5-1.3-.8-1.9-.6-.2.2-.2.4-.2.6"/><path fill="#C99564" d="M54 14.9c-.8.5-.1 1.5.7 1.1.9-.4.2-1.3-.6-1.1"/><path fill="#343433" d="M53.6 15.5c.3-.3.6-.3.7-.7.4.1.6.3.8.6-.1.1-.2.2-.4.3-.3-.1-.5 0-.7.2.3.4 1.4 1 1.1 0 .2-.1.4-.4.6-.5-.1-.5-.2-1-.7-1.2-.6-.1-1.5.2-1.8.8.1.3.2.4.4.5"/><path fill="#C99564" d="M56.6 11c.9.3 1.3-.8.5-1.2-.9-.4-1.3.6-.7 1.1"/><path fill="#343433" d="M57.4 10.9c-.4-.1-.6-.2-1-.1-.1-.3-.1-.7.1-1 .2 0 .3 0 .5.1.1.3.3.3.6.4.2-.5.1-1.6-.6-.8-.2-.1-.6-.1-.8-.1-.4.3-.8.7-.7 1.2.2.5 1.1 1 1.7.9.2-.2.3-.3.3-.5"/><path fill="#C99564" d="M50.5 16.1c-.6.3-.2 1 .4.9.7-.2.3-.9-.3-.9"/><path fill="#343433" d="M50.2 17.2c-.1-.5-1-.7-.6-1.2.5.1 1.4-.8 1.6.1.2.9-1.1-.5-1.1.5.1.1.9.4.9.5 0 .4-.6.2-.9.1"/><path fill="#C99564" d="M45.4 16c.5-.2.1-.8-.4-.6-.4.1-.1.6.4.6"/><g fill="#343433"><path d="M45.1 16.1c.2-.2.3-.5.7-.5.3.4-.6 1-.7.5"/><path d="M45.1 16.3c-.2 0-.4-.2-.5-.5.1-.1.1-.2.3-.2-.2-.5.3-.6.7-.5 0 .3-.3.4-.6.4 0 .1-.1.3-.1.3.1.1.2.3.2.5"/></g><path fill="#C99564" d="M57.1 7.1c-.4.6.5 1.1.9.6.5-.6-.3-1-.9-.6"/><path fill="#343433" d="M57.6 8.2c-.4-.4-1.4-.1-1.4-.8.4-.2.7-1.5 1.5-.8s-1.3.2-.7 1.1c.2 0 1.1-.1 1.2 0 .3.4-.4.6-.7.6"/><path fill="#C99564" d="M35 13.7c-.1-.6-1-.5-1 .1s.8.5 1-.1"/><path fill="#343433" d="M34 13.1c.5.1 1.1-.6 1.5-.2-.2.4.4 1.4-.6 1.4-1-.1.8-.8-.2-1.1-.1.1-.7.6-.8.6-.4-.1-.1-.6.1-.8"/><path fill="#C99564" d="M31.8 10.5c-.9-.1-1.2 1-.3 1.3.9.3 1.1-.8.4-1.2"/><g fill="#343433"><path d="M32.5 10.6c-.5.1-1.1.3-1.5-.1 0-.8 1.9-.7 1.4.1"/><path d="M32.6 10.4c.3.3.3.8.2 1.2-.3 0-.4.1-.7 0-.4.9-1.2.6-1.5-.1.4-.4.9-.3 1.2 0 .1-.1.5-.3.5-.4 0-.2.2-.6.2-.7"/></g><path fill="#C99564" d="M31 15c-.7.1-.5.9.1.9.7 0 .6-.8 0-.9"/><path fill="#343433" d="M30.5 16c.1-.5-.8-.9-.3-1.4.4.2 1.5-.4 1.5.5s-.9-.7-1.2.2c.1.1.7.6.7.7-.1.4-.7.1-.9-.1"/><path fill="#C99564" d="M28.3 11.2c.5-.2.1-.8-.4-.6-.5.2-.2.7.4.6"/><g fill="#343433"><path d="M27.9 11.4c.2-.2.4-.5.7-.5.3.3-.5.9-.7.5"/><path d="M27.9 11.5c-.2 0-.4-.2-.5-.5.1-.1.1-.2.3-.2-.2-.5.3-.6.7-.5 0 .3-.3.4-.6.4 0 .1-.1.3-.1.3.2.1.2.4.2.5"/></g><path fill="#C99564" d="M33.4 8.8c-.1-.6-1-.5-1 .1s.8.5 1-.1"/><path fill="#343433" d="M32.3 8.3c.5.1 1.1-.6 1.5-.2-.2.4.4 1.4-.6 1.4-1-.1.8-.8-.2-1.1-.1.1-.7.6-.8.6-.4-.1-.1-.6.1-.8"/><path fill="#C99564" d="M26.4 8.5c-.1-.6-1-.5-1 .1 0 .7.8.6 1-.1"/><path fill="#343433" d="M25.4 8c.5.1 1.1-.6 1.5-.2-.2.4.4 1.5-.6 1.4-1-.1.8-.8-.2-1.1-.1.1-.7.6-.8.6-.5-.1-.1-.6.1-.8"/><path fill="#C99564" d="M26.4 13.2c-.5.3 0 1 .5.7.5-.3.1-.8-.5-.7"/><path fill="#343433" d="M26.1 13.6c.2-.2.4-.2.4-.5.2.1.4.2.6.4l-.2.2c-.2 0-.3 0-.5.2.2.2.9.7.7 0 .1-.1.2-.3.4-.3 0-.3-.1-.6-.4-.8-.4-.1-1 .2-1.2.5 0 .2.1.3.2.3"/><path fill="#C99564" d="M29.4 13.8c.5-.2.1-.8-.4-.6-.4.1-.1.6.4.6"/><g fill="#343433"><path d="M29.1 13.9c.2-.2.4-.5.7-.5.3.4-.6 1-.7.5"/><path d="M29.1 14.1c-.2 0-.4-.2-.5-.5.1-.1.1-.2.3-.2-.2-.5.3-.6.7-.5 0 .3-.3.4-.6.4 0 .1-.1.3-.1.3.1.1.2.3.2.5"/></g><path fill="#C99564" d="M27.1 6.8c.5-.2.1-.8-.4-.6-.5.1-.1.6.4.6"/><g fill="#343433"><path d="M26.8 6.9c.2-.2.4-.5.7-.5.3.4-.6 1-.7.5"/><path d="M26.8 7.1c-.2 0-.4-.2-.5-.5.1-.1.1-.2.3-.2-.2-.5.3-.6.7-.5 0 .3-.3.4-.6.4 0 .1-.1.3-.1.3.1.1.2.3.2.5"/></g><path fill="#C99564" d="M22.9 7.6c-.5.1-.4.7.1.6.5 0 .4-.5-.1-.6"/><path fill="#343433" d="M22.5 8.3c0-.4-.5-.7-.2-1 .3.1 1.1-.3 1.1.4s-.7-.5-.9.1c.1.1.5.5.5.6-.1.3-.5.1-.6 0"/><path fill="#C99564" d="M61.1 10.8c.2.2.5-.1.3-.3-.2-.2-.4.1-.3.3"/><g fill="#343433"><path d="M61 10.7c.1.1.3.1.4.3-.2.2-.7-.2-.4-.3"/><path d="M60.9 10.7c0-.1.1-.2.2-.3.1.1.1 0 .2.1.3-.1.4.1.4.3-.2 0-.3-.1-.3-.2h-.2c-.1 0-.3.1-.3.1"/></g><path fill="#C99564" d="M62.2 7.8c.3.4.9.1.7-.3-.2-.5-.7-.2-.7.3"/><g fill="#343433"><path d="M62.1 7.5c.2.2.5.3.5.6-.4.3-1-.4-.5-.6"/><path d="M61.9 7.5c0-.2.3-.4.5-.5.1.1.2.1.2.3.5-.2.7.3.5.6-.3 0-.4-.2-.4-.5-.1 0-.3-.1-.3-.1-.1.1-.3.1-.4.2"/></g><path fill="#C99564" d="M60.7 20c.3.4.9.1.7-.3-.2-.5-.8-.2-.7.3"/><g fill="#343433"><path d="M60.5 19.7c.2.2.5.3.5.6-.3.3-1-.5-.5-.6"/><path d="M60.4 19.7c0-.2.3-.4.5-.5.1.1.2.1.2.3.5-.2.7.3.5.6-.3 0-.4-.2-.4-.5-.1 0-.3-.1-.3-.1-.1.1-.3.1-.4.2"/></g><path fill="#C99564" d="M58.6 17.2c.7-.1.6-.9-.1-.9s-.6.7 0 .9"/><path fill="#343433" d="M59.2 16.2c-.1.5.7 1 .2 1.4-.4-.2-1.6.3-1.5-.6.1-.9.9.8 1.2-.1-.1-.1-.7-.7-.7-.8.1-.4.7-.1.9.1"/><path fill="#C99564" d="M60 8.6c-.7.1-.5.9.1.9.7 0 .6-.8 0-.9"/><path fill="#343433" d="M59.4 9.6c.1-.5-.8-.9-.3-1.4.4.2 1.5-.4 1.5.5s-.9-.7-1.2.2c.1.1.7.6.7.7-.1.4-.7.1-.9-.1"/><path fill="#C99564" d="M64.5 10c-.1-.6-1-.5-1 .1s.8.5 1-.1"/><path fill="#343433" d="M63.5 9.4c.5.1 1.1-.6 1.5-.2-.2.4.4 1.4-.6 1.4-1-.1.8-.8-.2-1.1-.1.1-.7.6-.8.6-.4-.1-.1-.6.1-.8"/><path fill="#C99564" d="M59.7 12.6c.5-.2.1-.8-.4-.6-.4.1-.1.6.4.6"/><g fill="#343433"><path d="M59.4 12.7c.2-.2.4-.5.7-.5.3.4-.5 1-.7.5"/><path d="M59.4 12.9c-.2 0-.4-.2-.5-.5.1-.1.1-.2.3-.2-.2-.5.3-.6.7-.5 0 .3-.3.4-.6.4 0 .1-.1.3-.1.3.1.1.2.3.2.5"/></g><path fill="#C99564" d="M50.6 12.2c.1.5.8.3.8-.2-.1-.4-.7-.3-.8.2"/><g fill="#343433"><path d="M50.5 11.9c.2.2.4.4.3.7-.4.2-.8-.7-.3-.7"/><path d="M50.4 11.9c.1-.2.4-.3.6-.4.1.2.2.2.2.3.6 0 .6.4.3.7-.3-.1-.3-.3-.3-.6-.1 0-.3-.1-.3-.2-.1.2-.4.2-.5.2"/></g><path fill="#C99564" d="M63.3 15.8c.5-.2.1-.8-.4-.6-.5.2-.2.7.4.6"/><g fill="#343433"><path d="M63 16c.2-.2.4-.5.7-.5.2.4-.6.9-.7.5"/><path d="M63 16.1c-.2 0-.4-.2-.5-.5.1-.1.1-.2.3-.2-.2-.5.3-.6.7-.5 0 .3-.3.4-.6.4 0 .1-.1.3-.1.3.1.2.1.4.2.5"/></g><path fill="#C99564" d="M71.5 12.7c-.7.1-.5.9.1.9.7 0 .6-.8 0-.9"/><path fill="#343433" d="M71 13.6c.1-.5-.8-.9-.3-1.4.4.2 1.5-.4 1.5.5s-.9-.7-1.2.2c.1.1.7.6.7.7-.1.4-.7.1-.9-.1"/><path fill="#C99564" d="M67.3 8.6c-.5.3 0 1 .5.7.6-.3.2-.9-.5-.7"/><path fill="#343433" d="M67.1 9c.2-.2.4-.2.4-.5.2.1.4.2.6.4-.1.1-.1.2-.2.2-.2 0-.3 0-.5.2.2.2.9.7.7 0 .1-.1.2-.3.4-.3 0-.3-.1-.6-.5-.8-.4-.1-1 .2-1.2.5.1.2.1.2.3.3"/><path fill="#C99564" d="M70 10.5c.5-.2.1-.8-.4-.6-.5.2-.2.7.4.6"/><g fill="#343433"><path d="M69.7 10.7c.2-.2.4-.5.7-.5.2.4-.6.9-.7.5"/><path d="M69.7 10.8c-.2 0-.4-.2-.5-.5.1-.1.1-.2.3-.2-.2-.5.3-.6.7-.5 0 .3-.3.4-.6.4 0 .1-.1.3-.1.3.1.2.2.4.2.5"/></g><path fill="#C99564" d="M65 12.9c.5.1.6-.5.2-.7-.5-.1-.6.4-.2.7"/><path fill="#343433" d="M65.6 12.4c-.2.3.3.8-.2 1-.2-.2-1.2-.1-.9-.7.3-.6.5.7.9.2 0-.1-.3-.6-.3-.7.2-.3.5.1.6.3"/><path fill="#C99564" d="M33.2 17c.5-.2.1-.8-.4-.6-.4.1-.1.6.4.6"/><g fill="#343433"><path d="M32.9 17.1c.2-.2.4-.5.7-.5.3.4-.5 1-.7.5"/><path d="M32.9 17.3c-.2 0-.4-.2-.5-.5.1-.1.1-.2.3-.2-.2-.5.3-.6.7-.5 0 .3-.3.4-.6.4 0 .1-.1.3-.1.3.1.1.2.3.2.5"/></g><path fill="#C99564" d="M34.5 19.1c.5-.2.1-.8-.4-.6-.4.2-.1.7.4.6"/><g fill="#343433"><path d="M34.2 19.3c.2-.2.4-.5.7-.5.3.4-.5.9-.7.5"/><path d="M34.2 19.4c-.2 0-.4-.2-.5-.5.1-.1.1-.2.3-.2-.2-.5.3-.6.7-.5 0 .3-.3.4-.6.4 0 .1-.1.3-.1.3.2.2.2.4.2.5"/></g><path fill="#C99564" d="M31.3 21.9c.2.5.8.3.7-.2 0-.5-.6-.3-.7.2"/><g fill="#343433"><path d="M31.3 21.6c.2.2.4.4.3.7-.4.2-.9-.6-.3-.7"/><path d="M31.1 21.6c.1-.2.3-.3.6-.4.1.1.2.1.2.3.5-.1.6.4.4.7-.3-.1-.4-.3-.3-.6-.1 0-.3-.1-.3-.1-.2.1-.4.1-.6.1"/></g><path fill="#C99564" d="M29.6 19.8c-.2-.5-1-.2-.9.3.3.6.9.3.9-.3"/><path fill="#343433" d="M29.2 19.6c.1.2.2.4.4.5-.1.2-.3.3-.6.4-.1-.1-.1-.2-.2-.3.1-.2 0-.3-.1-.5-.3.1-.9.7-.1.7.1.1.2.3.3.4.3 0 .7 0 .9-.3.2-.3 0-.9-.3-1.2-.1.1-.2.1-.3.3"/><path fill="#C99564" d="M28.8 22.7c.2.5.8.3.7-.2-.1-.5-.7-.3-.7.2"/><g fill="#343433"><path d="M28.7 22.4c.2.2.4.4.3.7-.4.2-.8-.7-.3-.7"/><path d="M28.5 22.4c.1-.2.3-.3.6-.4.1.1.2.1.2.3.5-.1.6.4.4.7-.3-.1-.4-.3-.3-.6-.1 0-.3-.1-.3-.1-.2.1-.4.1-.6.1"/></g><path fill="#C99564" d="M58.9 19.8c.5-.2.1-.8-.4-.6-.5.2-.1.7.4.6"/><g fill="#343433"><path d="M58.6 20c.2-.2.4-.5.7-.5.3.3-.6.9-.7.5"/><path d="M58.6 20.1c-.2 0-.4-.2-.5-.5.1-.1.1-.2.3-.2-.2-.5.3-.6.7-.5 0 .3-.3.4-.6.4 0 .1-.1.3-.1.3.1.1.2.4.2.5"/></g><path fill="#C99564" d="M57 21.8c-.5.3 0 1 .5.7.6-.3.2-.8-.5-.7"/><path fill="#343433" d="M56.8 22.2c.2-.2.4-.2.4-.5.2.1.4.2.6.4l-.2.2c-.2 0-.3 0-.5.2.2.2.9.7.7 0 .1-.1.2-.3.4-.3 0-.3-.1-.6-.5-.8-.4-.1-1 .2-1.2.5.1.2.1.3.3.3"/><path fill="#C99564" d="M60.2 22c.5-.2.1-.8-.4-.6-.4.2-.1.6.4.6"/><g fill="#343433"><path d="M59.9 22.1c.2-.2.4-.5.7-.5.3.4-.6 1-.7.5"/><path d="M59.9 22.3c-.2 0-.4-.2-.5-.5.1-.1.1-.2.3-.2-.2-.5.3-.6.7-.5 0 .3-.3.4-.6.4 0 .1-.1.3-.1.3.1.1.2.3.2.5"/></g><path fill="#C99564" d="M64 17.4c-.1-.6-.9-.4-.9.1 0 .6.8.5.9-.1"/><path fill="#343433" d="M63.7 17.1c.1.3.1.4.3.6-.2.2-.4.3-.7.3 0-.1-.1-.2-.1-.3.1-.2.1-.3 0-.5-.3.1-1 .5-.3.6 0 .1.1.3.2.5.3.1.7.2.9 0 .2-.3.3-.9 0-1.2-.1-.2-.2-.1-.3 0"/><path fill="#C99564" d="M60.6 15.4c0 .5.8.4.8 0 0-.5-.6-.5-.8 0"/><g fill="#343433"><path d="M60.6 15.1c.1.3.3.5.1.8-.4 0-.6-.9-.1-.8"/><path d="M60.4 15c.1-.2.4-.2.7-.2 0 .2.1.2.1.4.5.1.5.5.1.8-.3-.1-.3-.4-.1-.6 0 0-.2-.2-.3-.2-.1-.1-.3-.1-.5-.2"/></g><path fill="#C99564" d="M13.9 4.5c.3-.1.1-.5-.2-.4-.3.1-.1.4.2.4"/><g fill="#343433"><path d="M13.8 4.6c.1-.1.2-.3.4-.3.1.2-.4.5-.4.3"/><path d="M13.8 4.7c-.1 0-.2-.1-.3-.3.1 0 .1-.1.2-.1-.2-.3.1-.4.3-.3 0 .2-.2.2-.3.2l-.1.2c.1 0 .1.2.2.3"/></g><path fill="#C99564" d="M12.2 5.4c.3.3.7-.1.4-.4-.2-.3-.5 0-.4.4"/><g fill="#343433"><path d="M12 5.2c.2.1.4.2.5.4-.2.2-.8-.2-.5-.4"/><path d="M11.9 5.2c0-.2.1-.3.3-.5.1.1.2 0 .2.2.4-.2.6.1.5.4-.2 0-.4-.1-.4-.3h-.3c0 .1-.2.2-.3.2"/></g><path fill="#C99564" d="M11.3 6.3c.2.2.5-.1.3-.3-.2-.2-.5 0-.3.3"/><g fill="#343433"><path d="M11.1 6.1c.2.1.3.1.4.3-.2.2-.7-.1-.4-.3"/><path d="M11 6.2c0-.1.1-.3.2-.4.1.1.1 0 .2.1.3-.2.4.1.4.3-.2 0-.3-.1-.3-.2h-.2c-.1.1-.2.1-.3.2"/></g><path fill="#C99564" d="M13.8 6.4c.2.2.5-.1.3-.3-.2-.2-.5 0-.3.3"/><path fill="#343433" d="M13.6 6.3c.2.1.4.1.4.3-.2.2-.7-.2-.4-.3m-.1 0c0-.1.1-.3.2-.4.1.1.1 0 .2.1.3-.2.4.1.4.3-.2 0-.3-.1-.3-.2h-.2c-.1.1-.2.2-.3.2"/><path fill="#C99564" d="M8.9 6.2c.2 0 .3-.3.1-.3-.3 0-.3.2-.1.3"/><path fill="#343433" d="M8.7 6.2c.1 0 .3-.1.4 0 0 .2-.4.2-.4 0m0 0c-.1 0-.1-.1 0-.2h.2c.1-.2.3-.1.4 0h-.5c0 .1-.1.2-.1.2"/><path fill="#C99564" d="M10.5 5.7c.3-.1.1-.5-.2-.4-.3.1-.1.4.2.4"/><g fill="#343433"><path d="M10.4 5.8c.1-.1.2-.3.4-.3.1.2-.4.5-.4.3"/><path d="M10.4 5.9c-.1 0-.2-.1-.3-.3.1 0 .1-.1.2-.1-.1-.3.2-.4.4-.3 0 .2-.2.2-.3.2 0 0 0 .2-.1.2 0 0 .1.2.1.3"/></g><path fill="#C99564" d="M7.6 7.2c.2.2.5-.1.3-.3-.2-.2-.4 0-.3.3"/><g fill="#343433"><path d="M7.4 7.1c.2.1.3.1.4.3-.1.2-.6-.2-.4-.3"/><path d="M7.3 7.1c0-.1.1-.3.2-.4.1.1.1 0 .2.1.3-.1.5.1.4.4-.1 0-.2-.1-.3-.3h-.2c0 .1-.2.2-.3.2"/></g><path fill="#C99564" d="M10.9 7.8c.2.2.5-.1.3-.3-.2-.2-.4 0-.3.3"/><path fill="#343433" d="M10.8 7.7c.2.1.3.1.4.3-.2.2-.7-.2-.4-.3m-.1 0c0-.1.1-.3.2-.4.1.1.1 0 .2.1.3-.2.4.1.4.3-.2 0-.3-.1-.3-.2H11c-.1.1-.2.2-.3.2"/><path fill="#C99564" d="M8.6 8.7c.4-.2.1-.6-.3-.5-.4.2-.1.6.3.5"/><g fill="#343433"><path d="M8.3 8.8c.2-.2.3-.4.5-.4.3.4-.4.8-.5.4"/><path d="M8.3 9c-.1-.1-.3-.2-.4-.4.1-.1.1-.2.3-.2-.2-.4.2-.5.5-.3 0 .2-.2.3-.4.3 0 0-.1.2-.1.3.1 0 .1.1.1.3"/></g><path fill="#C99564" d="M32.6 28.6c-.2.3.3.6.5.3.3-.4-.1-.6-.5-.3"/><g fill="#343433"><path d="M32.8 28.3c0 .2 0 .4-.2.6-.4-.1-.1-.8.2-.6"/><path d="M32.7 28.2c.2-.1.4 0 .6.1-.1.1 0 .2-.1.3.3.3.1.5-.3.6-.1-.2 0-.4.2-.5l-.1-.2c-.1 0-.2-.2-.3-.3"/></g><path fill="#C99564" d="M31.7 27.5c-.4-.1-.5.4-.2.5.5.2.6-.3.2-.5"/><g fill="#343433"><path d="M32 27.6c-.2 0-.5.1-.7-.1.1-.3.9-.3.7.1"/><path d="M32.1 27.5c.1.1.1.3 0 .5h-.3c-.2.4-.5.2-.7-.1.2-.1.4-.1.5.1l.2-.1c.1-.2.2-.3.3-.4"/></g><path fill="#C99564" d="M34.2 26.7c-.4-.1-.5.4-.2.5.5.2.6-.3.2-.5"/><g fill="#343433"><path d="M34.5 26.8c-.2 0-.5.1-.7-.1.1-.3.9-.3.7.1"/><path d="M34.6 26.7c.1.1.1.3 0 .5h-.3c-.2.4-.5.2-.7-.1.2-.1.4-.1.5.1l.2-.1c.1-.2.2-.3.3-.4"/></g><path fill="#C99564" d="M29.8 27.4c-.3-.1-.4.3-.1.4.3.1.4-.2.1-.4"/><path fill="#343433" d="M30 27.4c-.2 0-.4.1-.5-.1.1-.2.7-.1.5.1m.1 0c.1.1.1.3 0 .4h-.2c-.1.3-.4.2-.5-.1.1-.1.3-.1.4 0l.2-.1s0-.1.1-.2"/><path fill="#C99564" d="M33.4 25.2c.2-.3-.3-.6-.5-.3-.2.4.2.6.5.3"/><g fill="#343433"><path d="M33.3 25.5c0-.2 0-.4.2-.6.4.1.1.8-.2.6"/><path d="M33.4 25.6c-.2.1-.4 0-.6-.1.1-.1 0-.2.1-.3-.3-.2-.1-.5.2-.6.1.2 0 .4-.2.5l.1.2c.1.1.3.2.4.3"/></g><path fill="#C99564" d="M31.4 24.8c-.3-.1-.4.3-.1.4.3.1.4-.2.1-.4"/><path fill="#343433" d="M31.6 24.8c-.2 0-.4.1-.5-.1.1-.2.7-.1.5.1m.1 0c.1.1.1.3 0 .4h-.2c-.1.3-.4.2-.5-.1.1-.1.3-.1.4 0l.2-.1s0-.1.1-.2"/><path fill="#C99564" d="M32.8 22.9c-.2.3.3.6.5.3.3-.4-.1-.6-.5-.3"/><g fill="#343433"><path d="M33 22.6c0 .2 0 .4-.2.6-.4-.1-.1-.8.2-.6"/><path d="M32.9 22.5c.2-.1.4 0 .6.1-.1.1 0 .2-.1.3.3.3.1.5-.3.6-.1-.2 0-.4.2-.5l-.1-.2c-.1 0-.2-.2-.3-.3"/></g><path fill="#C99564" d="M62.9 28.5c.2.2.5-.2.3-.3-.2-.3-.4 0-.3.3"/><path fill="#343433" d="M62.8 28.4c.2 0 .4.1.4.2-.1.2-.7 0-.4-.2m-.1 0c0-.1 0-.3.1-.4.1 0 .1 0 .2.1.2-.2.4 0 .4.2-.2.1-.3 0-.4-.2h-.2c.1.2 0 .3-.1.3"/><path fill="#C99564" d="M62.6 26.7c.3.2.7-.2.4-.4-.4-.3-.6.1-.4.4"/><path fill="#343433" d="M62.4 26.6c.2.1.5.1.6.3-.2.3-.9-.1-.6-.3m-.1 0c0-.2 0-.4.2-.5.1.1.2 0 .3.1.3-.3.6 0 .6.3-.2.1-.4 0-.5-.2h-.3c-.1.1-.2.3-.3.3"/><path fill="#C99564" d="M61.3 27.4c-.1.3.4.5.6.2.2-.3-.3-.5-.6-.2"/><g fill="#343433"><path d="M61.4 27.2c0 .2 0 .4-.2.6-.3-.1-.1-.8.2-.6"/><path d="M61.3 27.1c.2-.1.4 0 .6 0 0 .1 0 .2-.1.3.4.2.2.5-.2.6-.1-.2-.1-.4.1-.5l-.1-.2s-.2-.1-.3-.2"/></g><path fill="#C99564" d="M60.8 25.1c-.1.3.4.5.6.2.1-.4-.3-.5-.6-.2"/><g fill="#343433"><path d="M60.9 24.8c0 .2 0 .4-.2.6-.3-.1-.1-.8.2-.6"/><path d="M60.8 24.7c.2-.1.4 0 .6 0 0 .1 0 .2-.1.3.4.2.2.5-.2.6-.1-.2-.1-.4.1-.5l-.1-.2s-.2-.1-.3-.2"/></g><path fill="#C99564" d="M61 29.2c-.1.3.3.4.4.2.2-.3-.2-.5-.4-.2"/><g fill="#343433"><path d="M61.1 29c0 .2 0 .3-.1.4-.3 0-.2-.6.1-.4"/><path d="M61 28.9c.1-.1.3 0 .4 0v.2c.3.2.1.4-.1.5-.1-.1 0-.3.1-.4l-.1-.2c-.1.1-.2 0-.3-.1"/></g><path fill="#C99564" d="M59.1 25c.1.2.4.1.3-.1-.1-.2-.3-.1-.3.1"/><path fill="#343433" d="M59 24.9c.1.1.2.2.1.3-.1.1-.3-.3-.1-.3m0 0c0-.1.1-.1.3-.2 0 .1.1.1.1.1.2 0 .3.2.1.3-.1 0-.2-.1-.1-.3l-.1-.1c-.2.2-.3.2-.3.2"/><path fill="#C99564" d="M57.5 24.4c-.1.3.3.4.4.2.2-.4-.1-.5-.4-.2"/><path fill="#343433" d="M57.6 24.2c0 .2 0 .3-.1.4-.3 0-.1-.6.1-.4m0-.1c.1-.1.3 0 .4 0v.2c.3.2.1.4-.1.5-.1-.1 0-.3.1-.4l-.1-.2c-.2 0-.3 0-.3-.1"/><path fill="#C99564" d="M58.4 27.4c-.1.3.3.4.4.2.2-.3-.2-.4-.4-.2"/><g fill="#343433"><path d="M58.5 27.2c0 .2 0 .3-.1.4-.3 0-.2-.6.1-.4"/><path d="M58.4 27.1c.1-.1.3 0 .4 0v.2c.3.2.1.4-.1.5-.1-.1 0-.3.1-.4l-.1-.2c-.1.1-.2 0-.3-.1"/></g><path fill="#C99564" d="M56.5 25.8c.3.2.7-.2.4-.4-.4-.3-.6.1-.4.4"/><path fill="#343433" d="M56.3 25.7c.2.1.5.1.6.3-.2.3-.9-.1-.6-.3m-.1 0c0-.2 0-.4.2-.5.1.1.2 0 .3.1.3-.3.6 0 .6.3-.2.1-.4 0-.5-.2h-.3c-.1.2-.2.3-.3.3"/><path fill="#C99564" d="M13.9 8.4c.2-.1.1-.4-.2-.3-.3.1-.1.3.2.3"/><g fill="#343433"><path d="M13.7 8.5c.1-.1.2-.2.4-.2.1.1-.3.4-.4.2"/><path d="M13.7 8.6c-.1 0-.2-.1-.3-.3.1 0 .1-.1.2-.1-.1-.3.2-.3.4-.2 0 .1-.1.2-.3.2v.4"/></g><linearGradient id="l" x1="303.712" x2="303.506" y1="8.044" y2="-39.168" gradientTransform="rotate(3.242 -544.89 -5069.165)" gradientUnits="userSpaceOnUse"><stop offset="0" stop-color="#fbf8cd"/><stop offset="1" stop-color="#ffc969"/></linearGradient><path fill="url(#l)" stroke="#C99564" stroke-width=".5" d="M20.1 10.1c.1.3.5.5.9.4-.1.1 0 .4-.1.5.4.1.8.4.9.8-.2 0-.4.1-.6.1.2.6.3 1.1.4 1.7-.2 0-.4.1-.6.1.4.6.1 1.1.1 1.8-.1-.1-.3-.1-.4-.2.1.3 0 .7-.3.9 0-.1-.1-.2-.1-.4-.1.3-.1.8-.5 1-.7-.5-1.2 1.2-1.7 1.5-.1-.5-.5-.6-1-.5.1 1.7-1.4.1-2.4 1.1"/><path fill="#FFF" d="M8.5 18.7c.6-.8 1.2-.7 2-.5.5.1.4.1 1-.1.5-.1.8-.1 1.2.1.7.4 1 .7 1.9.3.9-.4-.2.6-.4-.2.4.1 1.2.1 1.5-.5.2-.4-.2-1-.5-1.2.6-.3 1.6.1 2.1.4.2-.4 0-.8.1-1.3.3.1.5.3.8.4v-.3h.7c.1-.4 0-.9.3-1.2.7.6.6 1.9-.1 2.4-.1-.1-.3-.1-.4-.2-.2.5-.2 1.2-.9 1.1-.7-.1-.6-.6-1.1.1-.4.7-.2.5-1 .6-.6.1-1.2 1.1-1.5 1.4-.4.3 0 0-.4.4-.5.5-.9.6-1.4 1-.9.8-1.5 1.1-2.6.7-.5-.2-1 0-1.4-.3-.3-.3-.9-.2-1.1-.5-.3-.5 0-.8.4-1.1.5-.5.6-.6.6-1.4" opacity=".39"/><path fill="#C99564" d="M25.5 17.6c-.5.3 0 1 .5.7.6-.3.2-.8-.5-.7"/><path fill="#343433" d="M25.3 18c.2-.2.4-.2.4-.5.2.1.4.2.6.4l-.2.2c-.2 0-.3 0-.5.2.2.2.9.7.7 0 .1-.1.2-.3.4-.3 0-.3-.1-.6-.5-.8-.4-.1-1 .2-1.2.5.1.2.1.3.3.3"/><path fill="#C99564" d="M28.6 18.2c.5-.2.1-.8-.4-.6-.5.1-.2.6.4.6"/><g fill="#343433"><path d="M28.3 18.3c.2-.2.3-.5.7-.5.2.4-.6 1-.7.5"/><path d="M28.3 18.5c-.2 0-.4-.2-.5-.5.1-.1.1-.2.3-.2-.2-.5.3-.6.7-.5 0 .3-.3.4-.6.4 0 .1-.1.3-.1.3.1.1.1.3.2.5"/></g><path fill="#C99564" d="M25.4 11.3c.3.4.9 0 .6-.4-.2-.4-.7 0-.6.4"/><g fill="#343433"><path d="M25.2 11.1c.2.2.6.2.6.6-.3.2-1-.4-.6-.6"/><path d="M25.1 11.1c0-.2.2-.4.4-.6.1.1.2.1.3.2.5-.2.7.2.6.6-.3 0-.5-.2-.5-.4h-.4c-.1.1-.3.2-.4.2"/></g><path fill="#C99564" d="M23.2 14.3c.3.4.9 0 .6-.4-.3-.5-.8-.1-.6.4"/><g fill="#343433"><path d="M23 14c.2.2.6.2.6.6-.4.3-1.1-.4-.6-.6"/><path d="M22.8 14c0-.2.2-.4.4-.6.1.1.2.1.3.2.5-.2.7.2.6.6-.3 0-.5-.2-.5-.4h-.4c0 .1-.2.2-.3.2"/></g><path fill="#C99564" d="M37.4 17.8c-.5-.1-.6.6-.2.7.5.2.6-.4.2-.7"/><g fill="#343433"><path d="M37.7 17.9c-.3 0-.6.2-.8-.1 0-.4 1-.3.8.1"/><path d="M37.8 17.8c.2.2.2.4.1.7-.2 0-.2.1-.4 0-.2.5-.7.3-.9-.1.2-.2.5-.2.7 0 .1 0 .3-.2.3-.2 0-.1.1-.3.2-.4"/></g><path fill="#C99564" d="M35.9 16.9c.5-.2.1-.8-.4-.6-.5.1-.2.6.4.6"/><g fill="#343433"><path d="M35.6 17c.2-.2.4-.5.7-.5.2.4-.6 1-.7.5"/><path d="M35.6 17.1c-.2 0-.4-.2-.5-.5.1-.1.1-.2.3-.2-.2-.5.3-.6.7-.5 0 .3-.3.4-.6.4 0 .1-.1.3-.1.3.1.2.2.4.2.5"/></g><path fill="#C99564" d="M72.7 16c.5-.2.1-.8-.4-.6-.4.2-.1.7.4.6"/><g fill="#343433"><path d="M72.4 16.2c.2-.2.4-.5.7-.5.3.3-.5.9-.7.5"/><path d="M72.4 16.3c-.2 0-.4-.2-.5-.5.1-.1.1-.2.3-.2-.2-.5.3-.6.7-.5 0 .3-.3.4-.6.4 0 .1-.1.3-.1.3.2.1.2.4.2.5"/></g><path fill="#C99564" d="M71.9 18.5c.3.4.9.1.7-.3-.2-.5-.7-.2-.7.3"/><g fill="#343433"><path d="M71.8 18.3c.2.2.5.3.5.6-.4.2-1-.5-.5-.6"/><path d="M71.6 18.3c0-.2.3-.4.5-.5.1.1.2.1.2.3.5-.2.7.3.5.6-.3 0-.4-.2-.4-.5-.1 0-.3-.1-.3-.1-.1.1-.3.1-.4.2"/></g><path fill="#C99564" d="M73.2 20.9c.3.4.9.1.7-.3-.3-.5-.8-.2-.7.3"/><g fill="#343433"><path d="M73 20.6c.2.2.5.3.5.6-.4.3-1-.5-.5-.6"/><path d="M72.9 20.6c0-.2.3-.4.5-.5.1.1.2.1.2.3.5-.2.7.3.5.6-.3 0-.4-.2-.4-.5-.1 0-.3-.1-.3-.1-.1.1-.3.1-.4.2"/></g><path fill="#C99564" d="M72.5 23c-.3.4.3.8.6.5.4-.4-.1-.7-.6-.5"/><path fill="#343433" d="M72.7 22.8c-.1.3-.1.6-.4.7-.4-.3.1-1.1.4-.7m0-.2c.2-.1.5.1.7.2-.1.1 0 .2-.2.3.4.4 0 .7-.4.7-.1-.3.1-.5.3-.6 0-.1 0-.3-.1-.3s-.3-.2-.3-.3"/><path fill="#C99564" d="M72.9 27.1c-.5.1-.4.7.1.6.5 0 .4-.5-.1-.6"/><path fill="#343433" d="M72.5 27.8c0-.4-.5-.7-.2-1 .3.1 1.1-.3 1.1.4s-.7-.5-.9.1c.1.1.5.4.5.5 0 .4-.4.2-.5 0"/><path fill="#343433" d="M10.2 14c-.4.8 0 1.4.6 1.9-.1-.2-.1-.3-.1-.5.2.1.6.3.7.5-.7-.4-1-1.2-.7-1.9" opacity=".16"/><path fill="#343433" d="M10.4 13.5c.6-1.3 2-1.3 2.9-.6-.5 1.1-1.8 2-2.6 1-.1.1-.3.1-.4.2.1-.1.1-.4.1-.5"/><linearGradient id="m" x1="186.636" x2="188.311" y1="-184.315" y2="-184.315" gradientTransform="rotate(23.766 -370.292 -503.027)" gradientUnits="userSpaceOnUse"><stop offset="0" stop-color="#f9f29b"/><stop offset="1" stop-color="#ffca68"/></linearGradient><path fill="url(#m)" stroke="#663817" stroke-width=".25" d="M12.5 13.8c.2-.4 0-.9-.4-1-.4-.2-.9 0-1.1.4-.2.4 0 .9.4 1 .4.1.9 0 1.1-.4z"/><path fill="#343433" d="M12.1 13.7c.1-.3 0-.6-.3-.7-.3-.1-.7 0-.8.3-.1.3 0 .6.3.7.3.1.7-.1.8-.3z"/><path fill="#FFF" d="M12.5 13.4c.1-.2 0-.3-.2-.4-.2-.1-.4 0-.5.1-.1.2 0 .3.2.4.2.1.4.1.5-.1z"/><path fill="#FFF" d="M10.7 14.2c-.4 1 2.6 1 2.9-.5.3-1.4-.6-.2-1.1.2-.5.4-1.2.6-1.8.3m-.7-.4c-1.2.4 0-1.5.6-1.8.8-.4 2-.5 2.1.6-1.1-.4-2.2.2-2.5 1.1" opacity=".64"/><path fill="#343433" d="M12.3 15.3c.2.1.2.3.5.3-.4.5-.9.1-.9-.3h.4m.7-.3c.2 0 .4.1.6.1 0 .1 0 .2.1.3-.3 0-.5-.1-.7-.3m1.1-1.1c.3-.2.6-.2.7.2-.4.2-.8.2-.7-.2m-4.3-2c-.5-.1-.5-.9 0-1 .7-.1.4.8 0 1m-.7 1.3c.3-.5.1-1-.5-1.1-.6.3-.2 1.1.5 1.1m-.3-1.8c.1-.2.1-.4-.1-.6-.2.2-.1.4-.1.5m2.8-.5c.3-.2.6-.3.8-.5.3.6-.3 1.1-.8.5m-1.1-.7c0-.2.2-1.4.6-.9.5.6-.6.8-.6.9z"/><path fill="#343433" d="M8 18.7c.2 0 .5-.4.5-.8-.1 0-.3-.1-.5-.1.1-.4.1-.8.2-1.2-.1.1-.3.2-.4.3.4-.9-.1-2.5-1-3.1-.9 1.3-3.4 4-2.5 5.6 1-.1 2.7.1 3.6-.6" opacity=".07"/><path fill="#343433" d="M5.7 13.8c.3-.5-.1-1.3-.6-1.3.1.5.1 1.1.6 1.4"/><path fill="none" stroke="#949494" stroke-width=".5" d="M9 20c1.7-.7 4.4.9 5.4 2.3m-5.5-2.4c2.4-1.1 4.6-1 6.9.4m-7-.7c.8-1.6 4.4-2.1 6-1.7M4.4 19.5c-.8-1.4-2.9-1.2-4.4-1.1M4.7 20c-1.6-.3-2.4-.7-3.9.4m4.2 0c-1.1.2-2.1.9-2.8 1.8"/><linearGradient id="n" x1="316.81" x2="316.605" y1="7.865" y2="-39.303" gradientTransform="rotate(3.242 -544.89 -5069.165)" gradientUnits="userSpaceOnUse"><stop offset="0" stop-color="#fbf8cd"/><stop offset="1" stop-color="#ffc969"/></linearGradient><path fill="url(#n)" stroke="#C99564" stroke-width=".5" d="M31 45c-2-.1-3.1.6-2.4 2.7.8.2 1.6.6 2.3 0"/><linearGradient id="o" x1="310.318" x2="310.112" y1="7.918" y2="-39.222" gradientTransform="rotate(3.242 -544.89 -5069.165)" gradientUnits="userSpaceOnUse"><stop offset="0" stop-color="#fbf8cd"/><stop offset="1" stop-color="#ffc969"/></linearGradient><path fill="url(#o)" stroke="#C99564" stroke-width=".5" d="M25 41.2c-1.2-.1-3.3 0-3.2 1.6 0 1 2.2 1.8 3.2 1.4"/><linearGradient id="p" x1="345.798" x2="345.591" y1="7.639" y2="-39.602" gradientTransform="rotate(3.242 -544.89 -5069.165)" gradientUnits="userSpaceOnUse"><stop offset="0" stop-color="#fbf8cd"/><stop offset="1" stop-color="#ffc969"/></linearGradient><path fill="url(#p)" stroke="#C99564" stroke-width=".5" d="M59.9 44c-.4.5-1.3.4-1.9.1-.4.8-.5 2-.3 2.8.3.1.3 0 .4-.1"/><linearGradient id="q" x1="336.412" x2="336.206" y1="7.719" y2="-39.457" gradientTransform="rotate(3.242 -544.89 -5069.165)" gradientUnits="userSpaceOnUse"><stop offset="0" stop-color="#fbf8cd"/><stop offset="1" stop-color="#ffc969"/></linearGradient><path fill="url(#q)" stroke="#C99564" stroke-width=".5" d="M51.1 40.1c-.8.4-1.7-.6-2.5-.1-.6.4-.7 1.7-.3 2.1"/></g></switch></svg>
