<svg xmlns="http://www.w3.org/2000/svg" version="1.0" viewBox="0 0 38.7 17.2"><switch><g><path fill="#D0E7C4" stroke="#669866" stroke-width=".25" d="M8.5 10.7S6 9.6 5.8 8.5 4.7 6.9 4.7 6.9l-3.4-.3s-2.2-2-.9-3.4 2.9-1.3 2.9-1.3l3.1.2S8 1.7 8.4 1s.7-1.6 2-.7 3.8.9 3.8.9l5.4.7s4 .9 5.6 1.6c1.6.7 4.8 2.7 4.8 2.7s3.6.9 4.7 1.3 3.4 1.8 3.8 3.4c.4 1.6.2 3.4-.4 3.1-.7-.2-3.1 0-4 0-.9 0-2 1.1-2.9.7s-2.9-2-2.9-2-.9-.4-2 .2c-1.1.7-.9 2.5-.9 2.5s-1.1-1.3-2.2-2-1.6 0-1.8.9-.4 2.9-.4 2.9-1.1-.7-1.8-1.3c-.7-.7-1.6-1.3-2.5-1.6-.9-.2-3.4.2-3.4.2s-2.7.4-3.1-.2c-.4-.7-1.7-3.6-1.7-3.6z"/></g></switch></svg>
