<svg xmlns="http://www.w3.org/2000/svg" version="1.0" viewBox="0 0 127.3 55.5"><switch><g><path fill="#D0E7C4" stroke="#669866" stroke-width=".25" d="M8.6 31.8l-.5.6 1.7 1.3 1.2-.6 1.5-.5 3.4-1.8 1.4.3 2.4.8.9-.6 1.5.5.9.8-.1.5.2 2-1 1.6 2.1.8v.2l-4.4-.2-.3-.4-1.6.7-.2.8-.5.6 1.2 1 .9.3-1 .2-1.3-.3-2-.2v.5l.5.6 1.3.2 2.2 2.7.9 1.5h.8l1.1 1.3 2 .2.6.8-.2 1.2v.9l.7.9 1-1.1 3.5-1 3.2 1.9 1.4 1.6 1.2.7 1.5-.4-1-4.8-2.2-8.9 12.3-5.8 8.8-1-3.7 4v3.4L46.8 43l7.7 1.2 8.2.2 1-.9 2.9 2.2.6 1.5 1.1-.8.7 3.5.5.7h1l1.7 3 2.7-.2 1.8.4.5 1.2.8.5h1.2l-.5-1.4 2.1-2.3 1.8-.8 1.1-1 1.5-.8-.4-1.1 1.7-.9 6.5 1-.3-1.5 2.2-1 3.8 1.5 5-.3 7.6.6.7.9 2.5.4 1.3-2.9-2.8-4.1v-2l-2-.5 5.5-1.5.7.3 1.1-.8-.3-1.4.4-5 6 .7 1.1-1.1-.9-3.4.5-1.2 2-1.1.2-2-2.1-1.7-.5.7-4-.5-1.5-2-2-.1-2.1-1.4-2.3-1.7-2.3 1.1-6.8-1.9v1.2l-1 .5-10-8.9-5.9-3 .1-1.1-3.2.7L80.8 7l-.8-.4-2.3.3.2-1.4-3.2-.4-1.5-.9-1.7.6-1.4-.2-.8-2L67 .4l-1.2.4-2.6-.5L62 0l-3 1.5-4.2 1.4-10 2.3h-3.9l-.7 1 3.4 2.4-2.5.2-.5 1.1.7 1.6-1.6 1.4 5 2.2.2 1.9-2 .6-2.5-.2-.7.6-3.7-.8-.5-.8-1.5-.5-1.2.7-1.3-.4-2.3-.2-1 1.1-1.6.7-3.1-1.7-.6.4-3.6-1.9-2.7-.1-1.4-1.1-2.2 1.2-.9-.9-1.6.5-.5.9-2.8 1 .1.5L5.5 18l.9 2-2 .4-2.5-2-.9.7.1 1-.8.7-.2 1.4 1.2.8L0 24.3v1.6l2.2.7.3 1.1.6.7 2.1-.1 2 1.4z"/></g></switch></svg>
