<svg xmlns="http://www.w3.org/2000/svg" version="1.0" viewBox="0 0 97 96"><switch><g><path fill="#E1222B" d="M10.3 3.8L10 5s0 2.2-.1 4.6c-.1 2.5-.1 5.5-.2 6.8-.2 2.6-.5 3.4-.5 6S9 32.4 8 35.6s-2.7 7.5-4 9.2c-1.4 1.6-2.2 3.2-2.1 5.3.2 2.1-.2 10.7.3 14.1s.2 7.4.2 9.3c0 1.9-.9 5.5 1.4 7 2.2 1.6 3.4 1.9 8.5 2.4s12.9-.5 14.8-1.2c1.9-.5 3.1-1.2 3.4-2.5.3-1.3.9-30.2.5-31.6-.5-1.4-1.4-1.4-2.8-4.5-1.5-3.2-3.3-4.8-3.5-11.9-.3-7-1.5-18.9-1.5-18.9V3.6S18.9 2 17 2s-4.7.7-5.1.7c-.6.1-1.6 1.1-1.6 1.1z"/><path fill="#F7F8F9" d="M3.8 47.8s8.5-2.8 12.3-2.6c3.7.2 8.7.8 9.4 1.4.5.5 1.1 1.1 1.5 1.1s2.5-.2 2.5-.2-8.1-3.1-10.5-3.1c-2.5 0-11.5 1.1-12.6 1.8s-2.9.5-2.9.5l.3 1.1zM16 2.5l-.6 19.3-.5-.4V2.3l1.1.2z" opacity=".18"/><path fill="#F7F8F9" d="M18.5 2.6S19 32.2 21 36.5c1.9 4.3 4.5 7.4 4.5 7.4s-3.6-.2-7-.5-7.6.5-7.6.5 6.9.2 11.3.7c4.3.5 5.2.5 5.2.5s-6.5-6.8-6.8-16.8C20.1 18.1 19 6 19.2 4.4c.2-1.5-.2-2.1-.2-2.1l-.5.3zM4.9 79.2c.5.3 9.5 1.3 11.3 1.1s10.5-1 11.1-1.1c.5-.2 1.5 0 2.4-.8s0-1.1-.5-1c-.5.2-8.1 1.6-11.4 1.5-3.3-.2-8.5-.2-10.4-.6-1.8-.4-3.1.6-2.5.9z" opacity=".18"/><path fill="#F7F8F9" d="M4.9 49.5l24.1.2s.2 24.7-.2 25.3c-.3.5-10.2 1.5-13.2 1.8-3.1.3-10.8-1.3-10.8-1.3s-.3-23.3-.3-24.1c0-.6.4-1.9.4-1.9z"/><path fill="#D9D8D7" stroke="#C4C3C3" d="M9.9 4.4v5.4s5.1-1.2 7.4-1.2c2.2 0 5.9 1.1 5.9 1.1l-.1-6s-1-1-2.9-1.4c-1.9-.4-3.3-.3-5.2-.1s-3.1.6-3.9.8c-.7.2-1.2 1.4-1.2 1.4z"/><path fill="#F7F8F9" d="M9.3 22.3s5.5-.9 8.1-.8c2.5.1 6.6 1.1 6.6 1.1l-.9-11.2s-5-1.1-6.6-1c-1.6.1-5.9.7-6.5.9-.5.2.1 3.4-.2 5-.3 1.7-.5 5.4-.5 5.4"/><path fill="#681019" d="M8.9 60.6c.1-.1.4-.3.7-.6.1-.1.4-.4.8-.7.2-.2.5-.4.7-.5.2-.1.3-.2.4-.2h.1s.1.1.1.2 0 .2-.1.3c0 0-.1.1-.3.2-.8.5-1.5 1.2-2.2 1.9-.1.4-.2.8-.2 1.2-.1.8-.1 1.5-.1 2.1 0 .2 0 .4.1.5 0 .1.1.1.2.1.2 0 .5-.5.8-1.4.1-.2.2-.3.2-.3.1 0 .1 0 .1.1 0 .2-.1.5-.4 1-.4.7-.6 1.2-.9 1.2-.3.1-.4-.1-.5-.5-.1-.2-.1-.5-.1-.8 0-.6.1-1.4.2-2.1.1-.7.2-1.2.2-1.4-.2.5-.5 1.1-.8 2.1-.5 1.3-.8 2.3-.9 3 0 .3-.1.4-.2.4s-.1 0-.2-.2V66c0-.3.1-.8.4-1.5.1-.4.3-.9.5-1.5.1-.2.3-.6.5-1.3.6-1.4 1-2.4 1.2-3-.1-.2-.1-.4 0-.4.1-.1.1-.1.2-.1h.1c0 .1.1.1.1.2 0 .2-.2 1-.7 2.2zm1.8 3.4v.3c.1.1.2.2.4.1.4-.1.7-.5 1.2-1.4.1-.1.2-.2.2-.3h.1v.1c0 .1-.1.4-.4.8-.2.3-.5.5-.6.8-.2.3-.5.4-.6.5s-.4 0-.5-.2c-.1-.1-.1-.3-.1-.5 0-.6.2-1.3.6-1.9.4-.5.6-.8.9-.9h.1c.1.1.1.2.1.3 0 .2-.1.5-.2.7-.3.8-.7 1.2-1.2 1.6zm.1-.5c.2-.1.4-.3.5-.4.2-.3.4-.5.5-.7 0-.1.1-.2.1-.3 0-.1 0-.1-.1-.1s-.2.1-.3.3c-.4.3-.6.8-.7 1.2zm3.2-2.8c-.2.4-.3.8-.5 1.3-.2.6-.3 1.1-.3 1.4v.2h.1c.1-.1.3-.3.5-.6.1-.3.3-.5.4-.6.1-.1.1-.2.2-.2h.1v.1c0 .1-.1.5-.4.9-.3.6-.6 1-.8 1.1s-.3 0-.4-.1c-.1-.2-.1-.3-.1-.5 0-.4.1-.9.3-1.5.1-.2.2-.5.4-1.1-.1 0-.1.1-.2.1h-.2c-.1 0-.1-.1-.1-.2s0-.2.1-.3c0 0 .1-.1.3-.2.1 0 .2-.1.3-.2.1-.3.3-.5.5-.9.1-.2.2-.4.3-.5.1-.1.1-.2.2-.2h.1l.1.1c0 .1-.1.3-.2.5s-.2.4-.2.5c.3-.2.5-.3.6-.4.2 0 .2 0 .2.2 0 .1 0 .1-.1.2 0 0-.1.1-.2.1 0 0-.3.1-.6.4-.2.3-.3.3-.4.4zm2-.5c.2-.1.3 0 .3.3 0 .2-.1.5-.3.7-.1.2-.2.4-.3.4-.1 0-.1 0-.1-.1v-.1s0-.1.1-.2.1-.2.2-.3c0-.1.1-.2.1-.2 0-.1 0-.1-.1-.1s-.2.1-.3.3c-.2.2-.4.5-.5.9-.2.5-.3.7-.3 1 0 .1 0 .1.1.2s.1.1.2 0c.2-.1.4-.3.6-.6.2-.3.4-.5.5-.8.1-.1.1-.2.2-.3h.1v.1c0 .1-.1.4-.4.8-.4.6-.7 1.1-1.1 1.2-.2.1-.4.1-.5-.1-.1-.1-.1-.2-.1-.4 0-.4.1-.7.4-1.3.2-.5.5-.9.7-1.3.3 0 .4-.1.5-.1zm1.9.3c.2-.3.4-.5.6-.7.3-.3.5-.4.5-.5h.1c.1 0 .1.1.1.1 0 .1-.1.2-.2.4-.2.4-.4.7-.5 1-.1.3-.2.5-.2.5 0 .1 0 .1.1.1.2-.1.4-.5.7-1 .1-.1.1-.2.2-.2s.1 0 .1.1-.1.4-.3.7c-.2.4-.4.5-.5.8-.1.2-.3.3-.4.3-.1.1-.2 0-.3-.1 0-.1-.1-.1-.1-.2 0-.3.1-.5.3-.9 0-.1.2-.4.4-.7-.5.5-1 1.3-1.4 2.4 0 .1-.1.2-.2.3h-.1l-.1-.1c0-.1.1-.4.3-.9.3-.9.6-1.7.9-2.4s.5-1.3.9-2c.1-.2.2-.3.2-.4s.1-.1.2-.1.1 0 .1.1v.1c0 .1 0 .2-.1.4-.3.5-.5 1.1-.8 1.7-.4.5-.5.9-.5 1.2zm2.6.1c-.1.2-.2.4-.3.5-.2.2-.3.4-.5.5-.1.1-.3 0-.3-.1-.1-.1-.1-.2-.1-.3 0-.4.2-.8.5-1.4.2-.3.3-.5.4-.5.1-.1.2-.2.3-.2h.1v.1c0 .1-.1.2-.2.3-.2.3-.4.6-.5.8-.1.3-.2.5-.2.6v.1h.1c.2-.1.4-.3.5-.7.1-.3.3-.5.4-.7.1-.2.1-.3.2-.4l.1-.2h.1l.1.1c0 .1-.1.3-.3.6-.1.3-.2.5-.2.6 0 .2 0 .3.1.4 0 0 .1.1.2.1s.1.1.1.1 0 .1-.1.1c0 0-.1.1-.2.1h-.4c-.1-.1-.2-.2-.2-.4.4.1.4.1.3-.1zm2.2-1.9c.1-.1.2-.1.3-.2.1-.1.2-.1.4-.1.1 0 .2 0 .3.1.1.1.1.1.1.3s-.1.4-.2.6c-.2.4-.5.7-.7 1-.3.3-.5.4-.7.5h-.4c-.4.8-.7 1.6-1 2.5-.1.2-.1.4-.2.4h-.1v-.1c0-.2.2-.6.5-1.5.5-1.4 1.1-2.5 1.5-3.2.1-.2.2-.3.2-.4.1-.2.2-.3.3-.3.1 0 .1 0 .1.1s0 .1-.1.3c-.2-.2-.2-.1-.3 0zm-.9 1.7c.1 0 .1.1.2 0 .3-.1.5-.4.8-.8.1-.2.2-.4.3-.5.1-.1.1-.2.1-.3v-.1H23c-.1 0-.3.1-.5.3-.2.2-.4.5-.5.7 0 .5-.1.6-.2.7z"/><path fill="#D9D8D7" stroke="#C4C3C3" d="M9.9 6s3-2.3 7.5-1.6 5.8 1.5 5.8 1.5"/><path fill="#B7B7B8" stroke="#B7B7B8" d="M14.6 3c-.2.3-.2.7-.3 1.3 1.4 0 4.4.6 4.4-.6 0-1-3.5-1.1-4.5-.4"/><radialGradient id="a" cx="-77.636" cy="176.928" r="3.049" gradientTransform="scale(1.3 -1.3) rotate(23.358 535.18 297.37)" gradientUnits="userSpaceOnUse"><stop offset="0" stop-color="#f04e24"/><stop offset=".511" stop-color="#ec4a25"/><stop offset=".928" stop-color="#e54027"/><stop offset="1" stop-color="#e33d27"/></radialGradient><path fill="url(#a)" d="M28 76.3s1.6-1.1 2.2-3.1c.5-2 .1-1.9-.3-2.7-.4-.7-1.2-1.1-2-1.3-.7-.2-1.5-.1-1.6-.1-.2 0-.5.2-.7.3-.2.1-.5.2-.6.3-.2.1-.5.2-.6.3-.1.1-.4.2-.4.3 0 .1-.3.1-.5.3-.4.3-1 .9-1.1 1.4-.1.5-.2 1.5 0 2s.6 1.3 1.2 1.7c.5.5 1.7.9 2.2 1 .5.1 1.1-.1 1.5-.1.1 0 .7-.3.7-.3z"/><path fill="#FCFDFB" d="M26.4 73.3l-.3-.2-.1-.2v-.2l.1-.1.2-.1h.2s.2.1.2.2.1.3.1.3v.2c-.1 0-.4.1-.4.1zm1.3-.8l.3-.2s0-.1-.1-.1c-.1-.1-.1-.1-.1-.2v-.2h-.3l-.2.2v.4c0 .1.1.2.1.2l.3-.1zm.6-1.6c-.1 0-.3-.1-.3-.1v-.3h.2l.1.2c-.1 0 0 .2 0 .2zm-3.4 1.3l-.2.3v.4l-.1.2-.2-.1v-.2s0-.1-.1-.2l-.1-.1.1-.2.1-.2.5.1z" opacity=".19"/><path fill="#080808" d="M26.4 71l.4-.1c.1 0 .4.1.4 0s-.1-.2-.1-.2h-.5l-.1.1-.1.2zm.5-.8l.5-.5c.1-.1.3-.2.6-.2h.6s-.9-.2-1.1-.1c-.2.1-.3.1-.4.2-.1.3-.1.5-.1.5l-.1.1zm-1.6 1s-.8 0-1 .2c-.2.2-.5.5-.5.7s.1.4.1.4-.2-.2-.2-.3c0-.1.1-.6.2-.7s.5-.3.5-.4c.1-.1.2-.2.4-.2s.4.1.4.1l.1.2zm-.3-.6l-.4-.4s-.1-.1-.2-.3c-.1-.1 0-.2 0-.2s.2 0 .3.1c.2.2.3.2.3.3v.5z" opacity=".13"/><path fill="#50431A" d="M25.3 70.9s.3.2.3.3c.1.1.3 0 .4 0s.4-.3.4-.3l.6-.9.3-.4.2-.1s-.4.2-.5.2-.3.1-.4.2-.3.5-.4.6c-.1.2-.3.5-.4.5-.1 0-.2.1-.2.1l-.3-.2z"/><path fill="#5BB947" d="M24.4 68.6l.1-.2.1.2.1.4s0 .3.1.4c0 .2 0 .1.2.4.1.3.5.5.5.5l.1.1.1-.3.1-.2V69c0-.3-.1-.7-.1-.7v-.2l-.1-.2-.1-.1s.1-.2.2-.1.4.3.3.4c0 .1.1.4.1.5 0 .1.1.5.1.6v.5l.1.1s.1-.4.2-.5c.1-.1.3-.5.3-.5l.2-.1h.4v.3l-.4.2-.2.3-.1.2-.1.2.5-.2.1-.2.2-.2.2-.1h.5c.1-.1.3-.1.5-.2.1 0 .4-.1.4-.1 0 .1-.5.3-.5.3l-.5.1s-.3.1-.4.2-.2.1-.2.1l-.9.3-.7 1.2h-.3c-.1 0-.6-.5-.7-.5-.1 0-.4.2-.5.2-.1.1-.4.3-.5.5-.1.2 0 .4-.1.5 0 .1-.2.2-.2.2l-.1-.5s.2-.4.3-.5c.1-.1.2-.3.3-.3.1-.1.2-.1.4-.1s.3-.1.4-.1c.1 0 .4.2.4.2s-.5-.5-.5-.7c-.1-.2-.2-.5-.2-.6v-.8z"/><path fill="#080808" d="M23 72.7s-.2.3-.2.4c0 .1-.2.3-.1.4v.4h-.2l-.1-.2.1-.4v-.2l.2-.3.1-.2.2-.2.2-.1.2.1-.1.2-.3.1z" opacity=".05"/><path fill="#080808" d="M22.6 72s-.2.5-.2.6c0 .1-.1.3-.1.5s.5 1.3.8 1.5c.4.2.4.5 1 .7.6.3 1.1.7 1.3.7.2 0 1.1.2 1.3.2.2 0 .8-.1 1-.3.2-.1.5-.3.6-.4.1-.1.5-.3.5-.4l.3-.3.3-.2.1.1s-.3.5-.4.6c-.1.1-.1.3-.5.5-.3.2-.4.5-.7.5-.4.1-.6.2-.9.3-.4.1-1.2.3-2.2-.1-.4-.1-.7-.4-1.1-.5-.4-.3-1.1-1.1-1.3-1.3-.1-.2-.5-.9-.5-1.1v-1.5c.1-.1.2-.1.3-.1.1.2.4 0 .4 0z" opacity=".05"/><path fill="#080808" d="M25 72s-.4.2-.5.5-.1.7-.2.8c0 .1.1.6.1.6l.3.2v-.6c0-.2 0-.4.1-.5.1-.2 0-.4.2-.5.1-.2 0-.5 0-.5z" opacity=".04"/><path fill="#50431A" d="M25.5 70.5v.5h.2l.2-.3.2-.3-.3.2-.3-.1z"/><radialGradient id="b" cx="-77.331" cy="178.96" r=".257" gradientTransform="scale(1.3 -1.3) rotate(23.358 535.18 297.37)" gradientUnits="userSpaceOnUse"><stop offset="0" stop-color="#527334"/><stop offset=".223" stop-color="#507033"/><stop offset=".405" stop-color="#48662e"/><stop offset=".572" stop-color="#3c5526"/><stop offset=".73" stop-color="#2b3d1b"/><stop offset=".881" stop-color="#151e0d"/><stop offset="1"/></radialGradient><path fill="url(#b)" d="M25.7 70.8s.2 0 .3-.1c.1-.1.2-.3.2-.4 0-.1-.1-.3-.2-.3h-.2s-.2.1-.2.3v.3c-.1.1.1.2.1.2z"/><radialGradient id="c" cx="-77.335" cy="178.976" r=".138" gradientTransform="scale(1.3 -1.3) rotate(23.358 535.18 297.37)" gradientUnits="userSpaceOnUse"><stop offset="0" stop-color="#527334"/><stop offset=".131" stop-color="#597737"/><stop offset=".337" stop-color="#6b8443"/><stop offset=".59" stop-color="#899c5e"/><stop offset=".88" stop-color="#b9c388"/><stop offset="1" stop-color="#d4dba0"/></radialGradient><path fill="url(#c)" d="M25.5 70.3l.2-.1h.2v.2s0 .1-.1.1h-.2"/><radialGradient id="d" cx="-83.133" cy="178.165" r="3.047" gradientTransform="scale(1.3 -1.3) rotate(23.358 535.18 297.37)" gradientUnits="userSpaceOnUse"><stop offset="0" stop-color="#f04e24"/><stop offset=".511" stop-color="#ec4a25"/><stop offset=".928" stop-color="#e54027"/><stop offset="1" stop-color="#e33d27"/></radialGradient><path fill="url(#d)" d="M20.8 77.7s1.6-1.1 2.2-3.1.1-1.9-.3-2.7c-.4-.7-1.2-1.1-2-1.3-.7-.2-1.5-.1-1.6-.1-.2 0-.5.2-.7.3-.2.1-.5.2-.6.3-.2.1-.5.2-.6.3-.1.1-.4.2-.4.3 0 .1-.3.1-.5.3-.4.3-1 .9-1.1 1.4-.1.5-.2 1.5 0 2s.6 1.3 1.2 1.7c.5.5 1.7.9 2.2 1 .5.1 1.1-.1 1.5-.1.1 0 .7-.3.7-.3z"/><path fill="#FCFDFB" d="M19.2 74.7l-.3-.2-.2-.3V74l.1-.1.2-.1h.2s.2.1.2.2.1.3.1.3v.2l-.3.2zm1.3-.8l.3-.2s0-.1-.1-.1c-.1-.1-.1-.1-.1-.2v-.2h-.3l-.2.1v.4c0 .1.1.2.1.2h.3zm.6-1.7c-.1 0-.3-.1-.3-.1V72h-.1.3l.1.2c-.1 0 0 0 0 0zm-3.4 1.4l-.1.4-.1.4h-.1l-.2-.1v-.2s0-.1-.1-.2l-.1-.1.1-.2.1-.2h.4l.1.2z" opacity=".19"/><path fill="#080808" d="M19.2 72.3l.4-.1c.1 0 .4.1.4 0s-.1-.2-.1-.2h-.5l-.2.1v.2zm.5-.7l.5-.5c.2-.1.3-.2.6-.2h.6s-.9-.2-1.1-.1c-.1.2-.2.2-.3.3-.2.2-.3.4-.3.4v.1zm-1.6.9s-.8 0-1 .2c-.2.2-.5.5-.5.7 0 .2.1.4.1.4s-.2-.2-.2-.3c0-.1.1-.6.2-.7.1-.1.5-.3.5-.4s.2-.2.4-.2.4.1.4.1l.1.2zm-.3-.5l-.3-.3s-.1-.1-.2-.3c-.1-.1 0-.2 0-.2s.2 0 .3.1c.1.1.3.1.3.2l-.1.5z" opacity=".13"/><path fill="#50431A" d="M18.1 72.2s.3.2.3.3c.1.1.3 0 .4 0s.4-.3.4-.3l.6-.9.2-.3.2-.1s-.4.2-.5.2c-.1 0-.3.1-.4.2s-.3.5-.4.6c-.1.2-.3.5-.4.5-.1 0-.2.1-.2.1l-.2-.3z"/><path fill="#5BB947" d="M17.2 70l.1-.2.1.2.1.4s0 .3.1.4c0 .2 0 .1.2.4.1.3.5.5.5.5l.1.1.1-.3.1-.2v-.9c0-.3-.1-.7-.1-.7l-.1-.3-.1-.1-.1-.1s.1-.2.2-.1.4.3.3.4c0 .1.1.4.1.5 0 .1.1.5.1.6v.5l.1.1s.1-.4.2-.5c.1-.1.3-.5.3-.5l.2-.1h.4v.2l-.2.2-.2.3-.3.2.1.1.5-.2.1-.2.2-.2.2-.1h.5c.1-.1.3-.1.5-.2.1 0 .4-.1.4-.1 0 .1-.5.3-.5.3s-.4.2-.5.2-.3.1-.4.2c-.1.1-.2.1-.2.1l-.8.4-.7 1.2h-.3c-.1 0-.6-.5-.7-.5-.1 0-.4.2-.5.2-.1.1-.4.3-.5.5-.1.2 0 .4-.1.5 0 .1-.2.2-.2.2l-.1-.5s.2-.4.3-.5c.1-.1.2-.3.3-.3.1-.1.2-.1.4-.1s.3-.1.4-.1.4.2.4.2l-.6-.6c-.1-.2-.2-.5-.2-.6v-.5l-.2-.4z"/><path fill="#080808" d="M15.9 74.1s-.2.3-.2.4-.2.3-.1.4v.4l-.1.1-.1-.2.1-.4v-.2l.2-.3.2-.2.1-.2.2-.1.2.1-.1.2h-.4z" opacity=".05"/><path fill="#080808" d="M15.4 73.3s-.2.5-.2.6-.1.3-.1.5.5 1.3.8 1.5c.4.2.4.5 1 .7.6.3 1.1.7 1.3.7.2 0 1.1.2 1.3.2s.8-.1 1-.3c.2-.1.5-.3.6-.4.1-.1.5-.3.5-.4l.3-.3.3-.2.1.1s-.3.5-.4.6c-.1.1-.1.3-.5.5-.3.2-.4.5-.7.5-.4.1-.6.2-.9.3-.4.1-1.2.3-2.2-.1-.4-.1-.8-.4-1.1-.5-.4-.3-1.1-1.1-1.3-1.3-.1-.2-.5-.9-.5-1.1v-1.5c.1-.1.2-.1.3-.1.1.2.4 0 .4 0z" opacity=".05"/><path fill="#080808" d="M17.9 73.3s-.4.2-.5.5-.1.7-.2.8c0 .1.1.6.1.6l.3.2v-.6c0-.2 0-.4.1-.5s0-.4.2-.5v-.5z" opacity=".04"/><path fill="#50431A" d="M18.3 71.9v.5h.2l.2-.3.2-.3-.3.2-.3-.1z"/><radialGradient id="e" cx="-82.833" cy="180.197" r=".257" gradientTransform="scale(1.3 -1.3) rotate(23.358 535.18 297.37)" gradientUnits="userSpaceOnUse"><stop offset="0" stop-color="#527334"/><stop offset=".223" stop-color="#507033"/><stop offset=".405" stop-color="#48662e"/><stop offset=".572" stop-color="#3c5526"/><stop offset=".73" stop-color="#2b3d1b"/><stop offset=".881" stop-color="#151e0d"/><stop offset="1"/></radialGradient><path fill="url(#e)" d="M18.5 72.2s.2 0 .3-.1c.1-.1.2-.3.2-.4s-.1-.3-.2-.3h-.2s-.2.1-.2.3v.3c-.1.1.1.2.1.2z"/><radialGradient id="f" cx="-82.835" cy="180.214" r=".138" gradientTransform="scale(1.3 -1.3) rotate(23.358 535.18 297.37)" gradientUnits="userSpaceOnUse"><stop offset="0" stop-color="#527334"/><stop offset=".131" stop-color="#597737"/><stop offset=".337" stop-color="#6b8443"/><stop offset=".59" stop-color="#899c5e"/><stop offset=".88" stop-color="#b9c388"/><stop offset="1" stop-color="#d4dba0"/></radialGradient><path fill="url(#f)" d="M18.3 71.7l.2-.1h.2v.2s0 .1-.1.1h-.2"/><radialGradient id="g" cx="-87.15" cy="179.737" r="3.047" gradientTransform="scale(1.3 -1.3) rotate(23.358 535.18 297.37)" gradientUnits="userSpaceOnUse"><stop offset="0" stop-color="#f04e24"/><stop offset=".511" stop-color="#ec4a25"/><stop offset=".928" stop-color="#e54027"/><stop offset="1" stop-color="#e33d27"/></radialGradient><path fill="url(#g)" d="M15.2 77.9s1.6-1.1 2.2-3.1c.5-2 .1-1.9-.3-2.7-.4-.7-1.2-1.1-2-1.3-.7-.2-1.5-.1-1.6-.1s-.5.2-.7.3c-.2.1-.5.2-.6.3-.2.1-.5.2-.6.3-.1.1-.4.2-.4.3 0 .1-.3.1-.5.3-.4.3-1 .9-1.1 1.4-.1.5-.2 1.5 0 2s.6 1.3 1.2 1.7c.5.5 1.7.9 2.2 1 .5.1 1.1-.1 1.5-.1.2 0 .7-.3.7-.3z"/><path fill="#FCFDFB" d="M13.6 74.9l-.3-.2-.2-.3v-.2l.1-.1.2-.1h.2s.2.1.2.2.1.3.1.3v.3l-.3.1zm1.3-.8l.3-.2s0-.1-.1-.1c-.1-.1-.1-.1-.1-.2v-.2h-.3l-.1.2v.4c0 .1.1.2.1.2l.2-.1zm.7-1.7c-.1 0-.3-.1-.3-.1v-.2l-.1-.1h.2l.1.2.1.2zM12 73.8l-.1.3-.1.4-.1.2-.2-.1v-.2s0-.1-.1-.2l-.1-.1.1-.2.1-.2.5.1z" opacity=".19"/><path fill="#080808" d="M13.6 72.5l.4-.1c.1 0 .4.1.4 0s-.1-.2-.1-.2h-.5l-.1.1-.1.2zm.4-.7l.5-.5c.1-.1.3-.2.6-.2h.6s-.9-.2-1.1-.1c-.2.1-.3.1-.4.2-.2.2-.3.4-.3.4l.1.2zm-1.5 1s-.8 0-1 .2c-.2.2-.5.5-.5.7s.1.4.1.4-.3-.2-.3-.3.1-.6.2-.7c.1-.1.5-.3.5-.4.1-.1.2-.2.4-.2s.4.1.4.1l.2.2zm-.3-.6l-.3-.3s-.1-.1-.2-.3c-.1-.1 0-.2 0-.2s.2 0 .3.1c.1.1.3.1.3.2l-.1.5z" opacity=".13"/><path fill="#50431A" d="M12.5 72.4s.3.2.3.3c.1.1.3 0 .4 0 .1 0 .4-.3.4-.3l.6-.9.3-.4.2-.1s-.4.2-.5.2-.3.1-.4.2c-.1.1-.3.5-.4.6-.1.2-.3.5-.4.5-.1 0-.2.1-.2.1l-.3-.2z"/><path fill="#5BB947" d="M11.7 70.2l.1-.2.1.2.1.4s0 .3.1.4c0 .2 0 .1.2.4.1.3.5.5.5.5l.1.1.1-.3.1-.2v-.9c0-.3-.1-.7-.1-.7l-.1-.3-.1-.2-.1-.1s.1-.2.2-.1.4.3.3.4c0 .1.1.4.1.5 0 .1.1.5.1.6v.5l.1.1s.1-.4.2-.5c.1-.1.3-.5.3-.5l.2-.1h.4v.2l-.2.2-.2.3-.1.2-.1.2.5-.2.1-.2.2-.2.2-.1h.5c.1-.1.3-.1.5-.2.1 0 .4-.1.4-.1 0 .1-.5.3-.5.3s-.4.2-.5.2-.3.1-.4.2c-.1.1-.2.1-.2.1l-.8.4-1 1.1h-.3c-.1 0-.6-.5-.7-.5s-.4.2-.5.2c-.1.1-.4.3-.5.5-.1.2 0 .4-.1.5 0 .1-.2.2-.2.2l.1-.5s.2-.4.3-.5.2-.3.3-.3c.1-.1.2-.1.4-.1s.3-.1.4-.1c.1 0 .4.2.4.2l-.6-.6c-.1-.2-.2-.5-.2-.6v-.5c-.2-.1-.1-.3-.1-.3z"/><path fill="#080808" d="M10.2 74.2s-.2.3-.2.4c0 .1-.2.3-.1.4v.4l-.1.1-.1-.2.1-.4v-.2l.2-.3.2-.2.1-.3.1-.2.2.1-.1.2-.3.2z" opacity=".05"/><path fill="#080808" d="M9.8 73.5s-.2.5-.2.6c0 .1-.1.3-.1.5s.5 1.3.8 1.5c.4.2.4.5 1 .7.6.3 1.1.7 1.3.7s1.1.2 1.3.2.8-.1 1-.3c.2-.1.5-.3.6-.4.1-.1.5-.3.5-.4l.3-.3.3-.2.1.1s-.3.5-.4.6c-.1.1-.1.3-.5.5-.3.2-.4.5-.7.5-.4.1-.6.2-.9.3-.4.1-1.2.3-2.2-.1-.4-.1-.7-.4-1.1-.5-.4-.3-1.1-1.1-1.3-1.3-.1-.2-.5-.9-.5-1.1v-1.5c.1-.1.2-.1.3-.1h.4z" opacity=".05"/><path fill="#080808" d="M12.2 73.5s-.4.2-.5.5c-.1.4-.1.7-.2.8 0 .1.1.6.1.6l.3.2V75c0-.2 0-.4.1-.5.1-.2 0-.4.2-.5.2-.1 0-.5 0-.5z" opacity=".04"/><path fill="#50431A" d="M12.8 72.1v.5h.2l.2-.3.2-.3-.4.2-.2-.1z"/><radialGradient id="h" cx="-86.851" cy="181.768" r=".257" gradientTransform="scale(1.3 -1.3) rotate(23.358 535.18 297.37)" gradientUnits="userSpaceOnUse"><stop offset="0" stop-color="#527334"/><stop offset=".223" stop-color="#507033"/><stop offset=".405" stop-color="#48662e"/><stop offset=".572" stop-color="#3c5526"/><stop offset=".73" stop-color="#2b3d1b"/><stop offset=".881" stop-color="#151e0d"/><stop offset="1"/></radialGradient><path fill="url(#h)" d="M12.9 72.3s.2 0 .3-.1c.1-.1.2-.3.2-.4 0-.1-.1-.3-.2-.3H13s-.2.1-.2.3v.3c-.1.1.1.2.1.2z"/><radialGradient id="i" cx="-86.853" cy="181.785" r=".138" gradientTransform="scale(1.3 -1.3) rotate(23.358 535.18 297.37)" gradientUnits="userSpaceOnUse"><stop offset="0" stop-color="#527334"/><stop offset=".131" stop-color="#597737"/><stop offset=".337" stop-color="#6b8443"/><stop offset=".59" stop-color="#899c5e"/><stop offset=".88" stop-color="#b9c388"/><stop offset="1" stop-color="#d4dba0"/></radialGradient><path fill="url(#i)" d="M12.7 71.9l.2-.1h.1v.2s0 .1-.1.1h-.2"/><radialGradient id="j" cx="-90.787" cy="181.544" r="3.045" gradientTransform="scale(1.3 -1.3) rotate(23.358 535.18 297.37)" gradientUnits="userSpaceOnUse"><stop offset="0" stop-color="#f04e24"/><stop offset=".511" stop-color="#ec4a25"/><stop offset=".928" stop-color="#e54027"/><stop offset="1" stop-color="#e33d27"/></radialGradient><path fill="url(#j)" d="M9.9 77.6s1.6-1.1 2.2-3.1c.5-2 .1-1.9-.3-2.7-.4-.7-1.2-1.1-2-1.3-.7-.2-1.5-.1-1.6-.1s-.5.2-.7.3c-.2.1-.5.2-.6.3-.2.1-.5.2-.6.3-.1.1-.4.2-.4.3s-.3.1-.5.3c-.4.3-1 .9-1.1 1.4-.1.5-.2 1.5 0 2s.6 1.3 1.2 1.7c.5.5 1.7.9 2.2 1 .3 0 1-.2 1.3-.2.4.1.9-.2.9-.2z"/><path fill="#FCFDFB" d="M8.4 74.6l-.3-.2-.2-.3V74l.1-.1.2-.1h.2s.2.1.2.2.1.3.1.3v.2c0-.1-.3.1-.3.1zm1.2-.8l.3-.2s0-.1-.1-.1c-.1-.1-.1-.1-.1-.2v-.2h-.3l-.2.1v.4c0 .1.1.2.1.2h.3zm.7-1.6c-.1 0-.3-.1-.3-.1v-.2l-.1-.1h.2l.1.2.1.2zm-3.5 1.3l-.1.3-.1.4-.1.2-.2-.1v-.2s0-.1-.1-.2v-.1l.1-.2.1-.2.4.1z" opacity=".19"/><path fill="#080808" d="M8.3 72.2l.4-.1c.1 0 .4.1.4 0s-.2-.1-.2-.1h-.4l-.1.1-.1.1zm.5-.7l.5-.5c.2-.1.3-.2.6-.2h.6s-.9-.2-1.1-.1c-.1.2-.2.3-.4.4-.1.1-.2.3-.2.4zm-1.6 1s-.8 0-1 .2c-.2.2-.5.5-.5.7 0 .2.1.4.1.4s-.2-.2-.2-.3c0-.1.1-.6.2-.7.1-.1.5-.3.5-.4s.2-.2.4-.2.3.1.3.1l.2.2zm-.3-.6l-.3-.3s-.1-.1-.2-.3c-.1-.1 0-.2 0-.2s.2 0 .3.1c.2.1.3.1.3.2l-.1.5z" opacity=".13"/><path fill="#50431A" d="M7.2 72.2s.3.2.3.3c.1.1.3 0 .4 0 .1 0 .4-.3.4-.3l.6-.9.3-.4.2-.1s-.4.2-.5.2c-.1 0-.3.1-.4.2-.1.1-.3.5-.4.6-.1.2-.2.4-.3.5-.1 0-.2.1-.2.1l-.4-.2z"/><path fill="#5BB947" d="M6.4 69.9l.1-.2.1.2.1.4s0 .3.1.4c0 .2 0 .1.2.4.1.3.5.5.5.5l.1.1-.1-.2.1-.2v-.9c0-.3-.1-.7-.1-.7l-.1-.3.1-.2-.1-.1s.1-.2.2-.1.4.3.3.4c0 .1.1.4.1.5 0 .1.1.5.1.6v.5l.2.1s.1-.3.2-.5c0-.1.2-.5.2-.5l.2-.1H9v.2l-.2.2-.2.3-.1.2v.2l.5-.2.1-.2.2-.2.2-.1h.5c.1-.1.3-.1.5-.2.1-.1.4-.1.4-.1 0 .1-.5.3-.5.3s-.4.2-.5.2-.3.1-.4.2c-.1.1-.2.1-.2.1l-.8.4-.7 1.2h-.2c-.1 0-.6-.5-.7-.5-.1 0-.4.2-.5.2-.1.1-.4.3-.5.5-.1.2 0 .4-.1.5 0 .1-.2.2-.2.2l-.1-.5s.2-.4.3-.5c.1-.1.2-.3.3-.3.1-.1.2-.1.4-.1s.3-.1.4-.1.4.2.4.2-.5-.6-.7-.8c-.1-.2-.2-.5-.2-.6v-.8z"/><path fill="#080808" d="M4.9 74s-.2.3-.2.4c0 0-.1.2-.1.4v.4l-.1.1V75l.1-.4v-.2l.1-.4.2-.3.1-.1.2-.1.2.1-.3.2-.2.2z" opacity=".05"/><path fill="#080808" d="M4.5 73.2s-.2.5-.2.6-.1.3-.1.5.5 1.3.8 1.5c.4.2.4.5 1 .7.6.3 1.1.7 1.3.7s1.1.2 1.3.2.8-.1 1-.3c.2-.1.5-.3.6-.4.1-.1.5-.3.5-.4l.3-.3.3-.2.1.1s-.3.5-.4.6c-.1.1-.1.3-.5.5-.3.2-.4.5-.7.5s-.6.4-.9.5c-.4.1-1.2.3-2.2-.1-.3-.3-.7-.5-1.1-.7-.4-.3-1.1-1.1-1.3-1.3-.1-.2-.5-.9-.5-1.1v-1.5c.1-.1.2-.1.3-.1h.4z" opacity=".05"/><path fill="#080808" d="M6.9 73.2s-.4.2-.5.5c-.1.4-.1.7-.2.8 0 .1.1.6.1.6l.3.2v-.6c0-.2 0-.4.1-.5.1-.2 0-.4.2-.5.2-.1 0-.5 0-.5z" opacity=".04"/><path fill="#50431A" d="M7.5 71.8v.5h.2l.2-.3.1-.2-.2.2-.3-.2z"/><radialGradient id="k" cx="-90.488" cy="183.57" r=".257" gradientTransform="scale(1.3 -1.3) rotate(23.358 535.18 297.37)" gradientUnits="userSpaceOnUse"><stop offset="0" stop-color="#527334"/><stop offset=".223" stop-color="#507033"/><stop offset=".405" stop-color="#48662e"/><stop offset=".572" stop-color="#3c5526"/><stop offset=".73" stop-color="#2b3d1b"/><stop offset=".881" stop-color="#151e0d"/><stop offset="1"/></radialGradient><path fill="url(#k)" d="M7.6 72.1s.2 0 .3-.1c0-.1.1-.3.1-.4 0-.1-.1-.3-.2-.3h-.1s-.3.2-.3.3v.3c0 .1.2.2.2.2z"/><radialGradient id="l" cx="-90.49" cy="183.587" r=".138" gradientTransform="scale(1.3 -1.3) rotate(23.358 535.18 297.37)" gradientUnits="userSpaceOnUse"><stop offset="0" stop-color="#527334"/><stop offset=".131" stop-color="#597737"/><stop offset=".337" stop-color="#6b8443"/><stop offset=".59" stop-color="#899c5e"/><stop offset=".88" stop-color="#b9c388"/><stop offset="1" stop-color="#d4dba0"/></radialGradient><path fill="url(#l)" d="M7.5 71.6l.2-.1h.2v.2s0 .1-.1.1h-.2"/><radialGradient id="m" cx="-77.614" cy="179.218" r="3.047" gradientTransform="scale(1.3 -1.3) rotate(23.358 535.18 297.37)" gradientUnits="userSpaceOnUse"><stop offset="0" stop-color="#f04e24"/><stop offset=".511" stop-color="#ec4a25"/><stop offset=".928" stop-color="#e54027"/><stop offset="1" stop-color="#e33d27"/></radialGradient><path fill="url(#m)" d="M26.9 73.6s1.6-1.1 2.2-3.1.1-1.9-.3-2.7c-.4-.7-1.2-1.1-2-1.3-.7-.2-1.5-.1-1.6-.1s-.5.2-.7.3c-.2.1-.5.2-.6.3s-.5.2-.6.3c-.1.1-.4.2-.4.3 0 .1-.3.1-.5.3-.4.3-1 .9-1.1 1.4s-.2 1.5 0 2 .6 1.3 1.2 1.7 1.7.9 2.2 1c.5.1 1.1-.1 1.5-.1s.7-.3.7-.3z"/><path fill="#FCFDFB" d="M25.3 70.6l-.3-.2-.2-.3V70l.1-.1.2-.1h.2s.2.1.2.2.1.3.1.3v.3h-.3zm1.2-.8l.3-.2s0-.1-.1-.1c-.1-.1-.1-.1-.1-.2v-.2h-.3l-.2.1v.4c0 .1.1.2.1.2h.3zm.7-1.6c-.1 0-.3-.1-.3-.1v-.2l-.1-.1h.2l.1.2.1.2zm-3.5 1.3l-.1.4-.1.3-.1.2-.2-.2V70s0-.1-.1-.2l-.1-.1.1-.2.1-.2h.4l.1.2z" opacity=".19"/><path fill="#080808" d="M25.2 68.2l.4-.1c.1 0 .4.1.4 0s-.1-.2-.1-.2h-.5l-.1.1c0 .1-.1.2-.1.2zm.5-.7l.5-.5c.2-.1.3-.2.6-.2h.6s-.9-.2-1.1-.1-.2.2-.3.3c-.2.2-.3.4-.3.4v.1zm-1.6.9s-.8 0-1 .2c-.2.2-.5.5-.5.7 0 .2.1.4.1.4s-.2-.2-.2-.3c0-.1.1-.6.2-.7.1-.1.5-.3.5-.4s.2-.2.4-.2.4.1.4.1l.1.2zm-.2-.5l-.3-.3s-.1-.1-.2-.3c-.1-.1 0-.2 0-.2s.2 0 .3.1c.1.1.3.1.3.2l-.1.5z" opacity=".13"/><path fill="#50431A" d="M24.1 68.2s.3.2.3.3c.1.1.3 0 .4 0s.4-.3.4-.3l.6-.9.3-.4.2-.1s-.4.2-.5.2-.3.1-.4.2-.3.5-.4.6c-.1.2-.3.5-.4.5-.1 0-.2.1-.2.1l-.3-.2z"/><path fill="#5BB947" d="M23.3 65.8l.1-.2.1.2.1.4s0 .3.1.4c0 .2 0 .1.2.4.1.3.5.5.5.5l.1.1.1-.3.1-.2v-.9c0-.3-.1-.7-.1-.7l-.1-.3-.2-.2-.1-.1s.1-.2.2-.1.4.3.3.4c0 .1.1.4.1.5 0 .1.1.5.1.6v.5l.1.1s.1-.4.2-.5.3-.5.3-.5l.2-.1h.3v.2l-.2.2-.2.3v.4l-.1.2.5-.2.1-.2.2-.2.2-.1h.5c.1-.1.3-.1.5-.2.1 0 .4-.1.4-.1 0 .1-.5.3-.5.3l-.5.1s-.3.1-.4.2c-.1.1-.2.1-.2.1l-.8.4-.8 1.2h-.3c-.1 0-.6-.5-.7-.5-.1 0-.4.2-.5.2-.1.1-.4.3-.5.5-.1.2 0 .4-.1.5 0 .1-.2.2-.2.2l-.1-.5s.2-.4.3-.5c.1-.1.2-.3.3-.3.1-.1.2-.1.4-.1s.3-.1.4-.1.3.2.3.2l-.6-.6c-.1-.2-.2-.5-.2-.6v-.5l.1-.5z"/><path fill="#080808" d="M21.9 70s-.2.3-.2.4c0 .1-.2.3-.1.4 0 .1-.1.4-.1.4l-.1.1-.1-.3.1-.4v-.2l.2-.3.1-.2.2-.2.2-.1.2.1-.2.3h-.2z" opacity=".05"/><path fill="#080808" d="M21.4 69.2s-.2.5-.2.6-.1.3-.1.5.5 1.3.8 1.5c.4.2.4.5 1 .7.6.3 1.1.7 1.3.7.2 0 1.1.2 1.3.2.2 0 .8-.1 1-.3.2-.1.5-.3.6-.4.1-.1.5-.3.5-.4l.3-.3.3-.2h.1s-.3.5-.4.6c-.1.1-.1.3-.5.5-.3.2-.4.5-.7.5s-.6.2-.9.3c-.4.1-1.2.3-2.2-.1-.4-.1-.7-.4-1.1-.5-.4-.3-1.1-1.1-1.3-1.3-.1-.2-.5-.9-.5-1.1v-1.5c.1-.1.2-.1.3-.1.1.2.4.1.4.1z" opacity=".05"/><path fill="#080808" d="M23.9 69.2s-.4.2-.5.5-.1.7-.2.8c0 .1.1.6.1.6l.3.2v-.6c0-.2 0-.4.1-.5.1-.2 0-.4.2-.5.1-.1 0-.5 0-.5z" opacity=".04"/><path fill="#50431A" d="M24.4 67.8v.5h.2l.2-.3.2-.3-.3.3-.3-.2z"/><radialGradient id="n" cx="-77.315" cy="181.249" r=".257" gradientTransform="scale(1.3 -1.3) rotate(23.358 535.18 297.37)" gradientUnits="userSpaceOnUse"><stop offset="0" stop-color="#527334"/><stop offset=".223" stop-color="#507033"/><stop offset=".405" stop-color="#48662e"/><stop offset=".572" stop-color="#3c5526"/><stop offset=".73" stop-color="#2b3d1b"/><stop offset=".881" stop-color="#151e0d"/><stop offset="1"/></radialGradient><path fill="url(#n)" d="M24.5 68.1s.2 0 .3-.1c.1-.1.2-.3.2-.4s-.1-.3-.2-.3h-.2s-.2.1-.2.3v.3c-.1.1.1.2.1.2z"/><radialGradient id="o" cx="-77.317" cy="181.266" r=".138" gradientTransform="scale(1.3 -1.3) rotate(23.358 535.18 297.37)" gradientUnits="userSpaceOnUse"><stop offset="0" stop-color="#527334"/><stop offset=".131" stop-color="#597737"/><stop offset=".337" stop-color="#6b8443"/><stop offset=".59" stop-color="#899c5e"/><stop offset=".88" stop-color="#b9c388"/><stop offset="1" stop-color="#d4dba0"/></radialGradient><path fill="url(#o)" d="M24.4 67.6l.2-.1h.2v.2s0 .1-.1.1h-.2"/><radialGradient id="p" cx="-82.776" cy="181.626" r="3.047" gradientTransform="scale(1.3 -1.3) rotate(23.358 535.18 297.37)" gradientUnits="userSpaceOnUse"><stop offset="0" stop-color="#f04e24"/><stop offset=".511" stop-color="#ec4a25"/><stop offset=".928" stop-color="#e54027"/><stop offset="1" stop-color="#e33d27"/></radialGradient><path fill="url(#p)" d="M19.4 73.4s1.6-1.1 2.2-3.1c.5-2 .1-1.9-.3-2.7-.3-.7-1.2-1.1-1.9-1.3-.7-.2-1.5-.1-1.6-.1-.2 0-.5.2-.7.3-.2.1-.5.2-.6.3-.2.1-.5.2-.6.3-.1.1-.4.2-.4.3 0 .1-.3.1-.5.3-.4.3-1 .9-1.1 1.4-.1.5-.2 1.5 0 2s.6 1.3 1.2 1.7c.5.5 1.7.9 2.2 1s1.1-.1 1.5-.1c.1-.1.6-.3.6-.3z"/><path fill="#FCFDFB" d="M17.9 70.4l-.3-.3-.2-.1v-.2l.1-.1.2-.1h.2s.2.1.2.2.1.3.1.3v.3h-.3zm1.2-.8l.3-.2s0-.1-.1-.1c-.1-.1-.1-.1-.1-.2V69h-.3l-.1.2v.4c0 .1.1.2.1.2l.2-.2zm.7-1.6c-.1 0-.3-.1-.3-.1v-.2l-.1-.1h.2l.1.2.1.2zm-3.5 1.2l-.1.4-.1.4-.1.2-.2-.1v-.2s0-.1-.1-.2l-.1-.1.1-.2.1-.2h.5z" opacity=".19"/><path fill="#080808" d="M17.9 68l.4-.1c.1 0 .4.1.4 0s-.1-.2-.1-.2H18l-.1.1v.2zm.4-.7l.5-.5c.1-.1.3-.2.6-.2h.6s-.9-.2-1.1-.1c-.2.1-.3.1-.4.2-.2.2-.3.4-.3.4l.1.2zm-1.5.9s-.8 0-1 .2c-.2.2-.5.5-.5.7s.1.4.1.4-.2-.2-.2-.3c0-.1.1-.6.2-.7.1-.1.5-.3.5-.4.1-.1.2-.2.4-.2s.4.1.4.1l.1.2zm-.4-.6l-.3-.3s-.1-.1-.2-.3c-.1-.1 0-.2 0-.2s.2 0 .3.1c.1.1.3.1.3.2l-.1.5z" opacity=".13"/><path fill="#50431A" d="M16.8 68s.3.2.3.3c.1.1.3 0 .4 0s.4-.3.4-.3l.6-.9.3-.4.2-.1s-.4.2-.5.2-.4.1-.5.2c-.1.1-.3.5-.4.6-.1.2-.3.5-.4.5-.1 0-.2.1-.2.1l-.2-.2z"/><path fill="#5BB947" d="M15.9 65.6l.1-.2.1.2.1.4s0 .3.1.4c0 .2 0 .1.2.4.1.3.5.5.5.5l.1.1.1-.3.1-.2V66c0-.3-.1-.7-.1-.7l-.3-.3-.1-.2-.1-.1s.1-.2.2-.1.4.3.3.4c0 .1.1.4.1.5 0 .1.1.5.1.6v.5l.1.1s.1-.3.2-.5c.1-.1.3-.5.3-.5l.2-.1h.4v.2l-.2.2v.4l-.1.2-.1.2.5-.2.1-.2.2-.2.2-.1h.5c.1-.1.3-.1.5-.2.1 0 .4-.1.4-.1 0 .1-.5.3-.5.3s-.4.2-.5.2-.3.1-.4.2-.2.1-.2.1l-.9.4-.7 1.2h-.3c-.1 0-.6-.5-.7-.5-.1 0-.4.2-.5.2-.1.1-.4.3-.5.5s0 .4-.1.5c0 .1-.2.2-.2.2l-.1-.5s.2-.4.3-.5c.1-.1.2-.3.3-.3.1-.1.2-.1.4-.1s.3-.1.4-.1c.1 0 .4.2.4.2l-.6-.6c-.1-.2-.2-.5-.2-.6V66c-.1 0-.1-.4-.1-.4z"/><path fill="#080808" d="M14.5 69.7s-.2.3-.2.4c0 .1-.2.3-.1.4v.4l-.1.1-.1-.3.1-.4v-.2l.2-.3.2-.1.1-.2.2-.1.2.1h-.3l-.2.2z" opacity=".05"/><path fill="#080808" d="M14 69s-.2.5-.2.6c0 .1-.1.3-.1.5s.5 1.3.8 1.5c.4.2.4.5 1 .7.6.3 1.1.7 1.3.7.2 0 1.1.2 1.3.2.2 0 .8-.1 1-.3.2-.1.5-.3.6-.4.1-.1.5-.3.5-.4l.3-.3.3-.2.1.1s-.3.5-.4.6c-.1.1-.1.3-.5.5-.3.2-.4.5-.7.5-.4.1-.6.2-.9.3-.4.1-1.2.3-2.2-.1-.4-.1-.7-.4-1.1-.5-.4-.3-1.1-1.1-1.3-1.3-.1-.2-.5-.9-.5-1.1v-1.5c.1-.1.2-.1.3-.1h.4z" opacity=".05"/><path fill="#080808" d="M16.5 69.1s-.4.2-.5.5-.1.7-.2.8c0 .1.1.6.1.6l.3.2v-.6c0-.2 0-.4.1-.5.1-.2 0-.4.2-.5.1-.3 0-.5 0-.5z" opacity=".04"/><path fill="#50431A" d="M16.9 67.6v.5h.2l.2-.3.2-.3-.3.2-.3-.1z"/><radialGradient id="q" cx="-82.477" cy="183.657" r=".257" gradientTransform="scale(1.3 -1.3) rotate(23.358 535.18 297.37)" gradientUnits="userSpaceOnUse"><stop offset="0" stop-color="#527334"/><stop offset=".223" stop-color="#507033"/><stop offset=".405" stop-color="#48662e"/><stop offset=".572" stop-color="#3c5526"/><stop offset=".73" stop-color="#2b3d1b"/><stop offset=".881" stop-color="#151e0d"/><stop offset="1"/></radialGradient><path fill="url(#q)" d="M17.1 67.8s.2 0 .3-.1c.1-.1.2-.3.2-.4 0-.1-.1-.3-.2-.3h-.2s-.2.1-.2.3v.3c-.1.2.1.2.1.2z"/><radialGradient id="r" cx="-82.479" cy="183.674" r=".138" gradientTransform="scale(1.3 -1.3) rotate(23.358 535.18 297.37)" gradientUnits="userSpaceOnUse"><stop offset="0" stop-color="#527334"/><stop offset=".131" stop-color="#597737"/><stop offset=".337" stop-color="#6b8443"/><stop offset=".59" stop-color="#899c5e"/><stop offset=".88" stop-color="#b9c388"/><stop offset="1" stop-color="#d4dba0"/></radialGradient><path fill="url(#r)" d="M16.9 67.4l.2-.1h.2v.2s0 .1-.1.1H17"/><radialGradient id="s" cx="-487.723" cy="-1137.923" r="3.049" gradientTransform="scale(1.2998 -1.2998) rotate(8.713 -7368.91 2716.036)" gradientUnits="userSpaceOnUse"><stop offset="0" stop-color="#f04e24"/><stop offset=".511" stop-color="#ec4a25"/><stop offset=".928" stop-color="#e54027"/><stop offset="1" stop-color="#e33d27"/></radialGradient><path fill="url(#s)" d="M22.4 70s1.8-.6 2.9-2.4c1-1.7.6-1.8.5-2.6s-.9-1.4-1.5-1.7c-.7-.4-1.5-.5-1.5-.5-.2 0-.6.1-.8.1-.2.1-.5.1-.7.1-.2 0-.6.1-.7.1-.2.1-.4.1-.5.2 0 .1-.3 0-.6.2s-1.2.6-1.4 1c-.2.4-.5 1.4-.5 1.9s.4 1.5.7 2c.5.5 1.5 1.4 1.8 1.5.4.2 1.1.3 1.5.3.3-.1.8-.2.8-.2z"/><path fill="#FCFDFB" d="M21.7 66.7l-.2-.3-.1-.3V66l.2-.1h.2l.2.1.2.2v.3H22l-.1.1-.2.1zm1.3-.5l.3-.2v-.2c-.1-.1-.1-.1-.1-.2v-.2H23l-.1.2-.1.2v.5l.2-.1zm1.1-1.4c-.1 0-.3-.1-.3-.1v-.3h.2l.1.4c0-.1 0 0 0 0zm-3.7.4l-.2.3-.1.3H20l-.2-.1v-.5l.1-.2.2-.1h.4l-.1.3z" opacity=".19"/><path fill="#080808" d="M22.2 64.3h.4c.1 0 .3.2.4.1v-.2l-.2-.1h-.3l-.3.2c.1-.1 0 0 0 0zm.7-.5s.5-.3.6-.4c.2 0 .4-.1.6 0l.5.2s-.8-.4-1-.4-.3 0-.5.1-.4.3-.4.3l.2.2zm-1.8.5s-.8-.3-1-.1-.7.5-.7.5v.4s-.2-.2-.2-.3c0-.1.3-.6.4-.6.1-.1.5-.2.6-.3.1-.1.3-.2.4-.1.2 0 .4.2.4.2l.1.3zm-.1-.6l-.2-.4s-.1-.2-.1-.3c0-.1.1-.2.1-.2s.2.2.2.3c.1.1.2.1.2.3v.5l-.2-.2z" opacity=".13"/><path fill="#50431A" d="M21.2 64.1s.2.3.3.4c0 .1.3.1.4.1s.4-.2.4-.2l.8-.7.4-.3.2-.1h-.5c-.1 0-.3 0-.5.1l-.5.5c-.2.2-.4.5-.5.5s-.2.1-.2.1l-.3-.4z"/><path fill="#5BB947" d="M21 61.6l.2-.1v.5s0 .3-.1.4v.5c.1.3.3.6.3.6l.1.1.2-.2.2-.1.3-.8c.1-.3.2-.7.2-.7v-.3l-.1-.2-.3-.2s.1-.2.2 0c0 .2.3.4.2.5v.5c0 .1 0 .5-.1.6-.1.1-.1.4-.1.4l.1.1s.2-.3.3-.4l.4-.4.2-.1h.2l.2.1v.2l-.2.1-.2.2-.2.2-.1.1.5-.1.2-.1.2-.2.3-.1.5.1s.3-.1.5 0c.1 0 .4.1.4.1-.2.1-.7.1-.7.1s-.4.1-.5 0c-.1-.1-.3 0-.5 0-.1.1-.3.1-.3.1l-.9.1-1 .9s-.2-.1-.3-.1c-.1 0-.5-.6-.5-.5-.1 0-.4 0-.5.1-.1 0-.5.2-.5.3-.1.1-.1.3-.2.4-.1.1-.2.1-.2.1v-.5l.4-.4c.1-.1.2-.2.4-.2h.4c.2 0 .3 0 .5.1l.3.3s-.4-.5-.5-.8c-.1-.3 0-.5 0-.7 0-.3.1-.6.1-.6z"/><path fill="#080808" d="M18.6 65.2s-.3.2-.3.3c0 .1-.2.2-.2.3 0 .1-.1.3-.1.3h-.1l-.1-.2.2-.4.1-.2.3-.2.2-.2.2-.2.2-.1.1.1-.2.2-.3.3z" opacity=".05"/><path fill="#080808" d="M18.2 64.3l-.4.5s-.2.3-.2.5.2 1.4.5 1.5c.3.3.3.5.8.9s.9 1 1 1.1c.2.1 1 .5 1.2.5.2 0 .8.1 1 0 .2-.1.5-.1.7-.2.2-.1.5-.2.6-.3s.4-.2.4-.2l.3-.1.1.1s-.4.5-.5.5c-.1.1-.2.3-.5.4s-.5.4-.8.4c-.4 0-.7.1-.9 0-.4 0-1.2 0-2.1-.6-.3-.2-.6-.5-.9-.8-.3-.3-.8-1.4-.9-1.5-.1-.2-.2-1-.1-1.2s.2-.5.2-.6c0-.1.1-.4.2-.5s.1-.3.1-.3h.2z" opacity=".05"/><path fill="#080808" d="M20.7 65s-.4.1-.5.5c-.1.3-.3.6-.4.7-.1.1-.1.6-.1.6l.2.3s.1-.4.1-.5c.1-.2.1-.4.3-.5.1-.2.1-.4.3-.5.1-.3.1-.6.1-.6z" opacity=".04"/><path fill="#50431A" d="M21.5 63.7l-.1.3-.1.3h.2l.3-.3.2-.3h-.5z"/><radialGradient id="t" cx="-487.42" cy="-1135.892" r=".257" gradientTransform="scale(1.2998 -1.2998) rotate(8.713 -7368.91 2716.036)" gradientUnits="userSpaceOnUse"><stop offset="0" stop-color="#527334"/><stop offset=".223" stop-color="#507033"/><stop offset=".405" stop-color="#48662e"/><stop offset=".572" stop-color="#3c5526"/><stop offset=".73" stop-color="#2b3d1b"/><stop offset=".881" stop-color="#151e0d"/><stop offset="1"/></radialGradient><path fill="url(#t)" d="M21.6 64s.2.1.3 0c.1-.1.3-.2.2-.3 0-.1-.1-.3-.2-.3h-.2s-.2 0-.3.2c0 .2-.1.2-.1.3.1 0 .3.1.3.1z"/><radialGradient id="u" cx="-487.423" cy="-1135.875" r=".138" gradientTransform="scale(1.2998 -1.2998) rotate(8.713 -7368.91 2716.036)" gradientUnits="userSpaceOnUse"><stop offset="0" stop-color="#527334"/><stop offset=".131" stop-color="#597737"/><stop offset=".337" stop-color="#6b8443"/><stop offset=".59" stop-color="#899c5e"/><stop offset=".88" stop-color="#b9c388"/><stop offset="1" stop-color="#d4dba0"/></radialGradient><path fill="url(#u)" d="M21.5 63.6l.2-.1s.2 0 .2.1v.2l-.1.1c-.1 0-.2-.1-.2-.1"/><path fill="#681019" d="M10.6 15.7c.1-.1.3-.2.6-.5.1-.1.3-.3.7-.6.1-.1.4-.3.6-.4.1-.1.2-.1.3-.1h.1l.1.1c0 .1 0 .1-.1.2 0 0-.1.1-.2.1-.7.4-1.3 1-1.8 1.6-.1.3-.1.7-.1 1-.1.7-.1 1.3-.1 1.7 0 .1 0 .3.1.4 0 .1.1.1.1.1.1 0 .4-.4.7-1.1.1-.1.1-.2.1-.2.1 0 .1 0 .1.1s-.1.4-.3.8c-.3.6-.5 1-.7 1-.2.1-.3-.1-.4-.4-.1-.1-.1-.4-.1-.7 0-.5.1-1.1.1-1.7.1-.6.1-1 .1-1.1-.1.4-.4.9-.7 1.7-.4 1-.7 1.9-.7 2.5 0 .2-.1.3-.1.3s-.1 0-.1-.1V20c0-.2.1-.7.3-1.3.1-.3.2-.7.4-1.2.1-.1.2-.5.4-1 .5-1.1.8-1.9 1-2.5-.1-.1-.1-.3 0-.3l.1-.1h.1c0 .1.1.1.1.1-.1.3-.2 1-.7 2zm1.5 2.8v.2c.1.1.1.1.3.1.3-.1.6-.4 1-1.1.1-.1.1-.1.1-.2h.1v.1c0 .1-.1.3-.3.7-.1.2-.4.4-.5.7-.1.2-.4.3-.5.4-.1.1-.3 0-.4-.1-.1-.1-.1-.2-.1-.4 0-.5.1-1 .5-1.6.3-.4.5-.7.7-.7h.1c.1.1.1.1.1.2s-.1.4-.1.6c-.2.4-.5.8-1 1.1zm.1-.4c.1-.1.3-.2.4-.3.1-.2.3-.4.4-.6V17c0-.1 0-.1-.1-.1s-.1.1-.2.2c-.2.2-.4.6-.5 1zm2.7-2.3c-.1.3-.2.7-.4 1-.1.5-.2.9-.2 1.1v.1h.1c.1-.1.2-.2.4-.5.1-.2.2-.4.3-.5l.1-.1h.1v.1c0 .1-.1.4-.3.7-.2.5-.5.8-.7.9-.1.1-.2 0-.3-.1-.1-.1-.1-.2-.1-.4 0-.3.1-.7.2-1.2.1-.1.1-.4.3-.9-.1 0-.1.1-.1.1h-.1c-.1 0-.1-.1-.1-.1s0-.1.1-.2c0 0 .1-.1.2-.1s.1-.1.2-.1c.1-.2.2-.4.4-.7.1-.1.1-.3.2-.4l.1-.1h.1l.1.1c0 .1-.1.2-.1.4-.1.1-.1.3-.1.4.2-.1.4-.2.5-.3.1 0 .1 0 .1.1s0 .1-.1.1l-.1.1s-.2.1-.5.3c-.1.1-.2.1-.3.2zm1.7-.5c.1-.1.2 0 .2.2 0 .1-.1.4-.2.6-.1.1-.1.3-.2.3s-.1 0-.1-.1v-.1s0-.1.1-.1.1-.1.1-.2.1-.1.1-.1c0-.1 0-.1-.1-.1s-.1.1-.2.2-.3.4-.4.7c-.1.4-.2.6-.2.8 0 .1 0 .1.1.1.1.1.1.1.1 0 .1-.1.3-.2.5-.5.1-.2.3-.4.4-.7.1-.1.1-.1.1-.2h.1v.1c0 .1-.1.3-.3.7-.3.5-.6.9-.9 1-.1.1-.3.1-.4-.1-.1-.1-.1-.1-.1-.3 0-.3.1-.6.3-1 .1-.4.4-.7.6-1 .1 0 .3-.1.4-.2zm1.5.3c.1-.2.3-.4.5-.6.2-.2.4-.3.4-.4h.1c.1 0 .1.1.1.1 0 .1-.1.1-.1.3-.1.3-.3.6-.4.8-.1.2-.1.4-.1.4 0 .1 0 .1.1.1.1-.1.3-.4.6-.8l.1-.1c.1 0 .1 0 .1.1s-.1.3-.2.6-.3.4-.4.7c-.1.1-.2.2-.3.2-.1.1-.1 0-.2-.1 0-.1-.1-.1-.1-.1 0-.2.1-.4.2-.7 0-.1.1-.3.3-.6-.4.4-.8 1-1.1 1.9 0 .1-.1.1-.1.2h-.1l-.1-.1c0-.1.1-.3.2-.7.2-.7.5-1.4.7-1.9.2-.5.4-1 .7-1.6.1-.1.1-.2.1-.3 0-.1.1-.1.1-.1.1 0 .1 0 .1.1v.1c0 .1 0 .1-.1.3-.2.4-.4.9-.7 1.4-.3.2-.4.6-.4.8zm2.1.1c-.1.1-.1.3-.2.4-.1.1-.2.3-.4.4-.1.1-.2 0-.2-.1-.1-.1-.1-.1-.1-.2 0-.3.1-.7.4-1.1.1-.2.2-.4.3-.4.1-.1.1-.1.2-.1h.1v.1c0 .1-.1.1-.1.2-.1.2-.3.5-.4.7-.1.2-.1.4-.1.5V16h.1c.1-.1.3-.2.4-.6l.3-.6c.1-.1.1-.2.1-.3l.1-.1h.1l.1.1c0 .1-.1.2-.2.5-.1.2-.1.4-.1.5 0 .1 0 .2.1.3l.1.1.1.1s0 .1-.1.1l-.1.1h-.3c-.1-.1-.1-.1-.1-.3 0-.1 0-.1-.1-.2zm1.8-1.6c.1-.1.1-.1.2-.1.1-.1.1-.1.3-.1.1 0 .1 0 .2.1s.1.1.1.2-.1.3-.1.5c-.1.3-.4.6-.6.8-.2.2-.4.3-.6.4h-.3c-.3.7-.6 1.3-.8 2-.1.1-.1.3-.1.3h-.1v-.1c0-.1.1-.5.4-1.3.4-1.1.9-2 1.3-2.6.1-.1.1-.2.1-.2.1-.1.1-.2.2-.2s.1 0 .1.1 0 .1-.1.2c-.1-.1-.1-.1-.2 0zm-.7 1.4c.1 0 .1.1.1 0 .2-.1.4-.3.7-.7.1-.1.1-.3.2-.4s.1-.1.1-.2v-.1h-.1c-.1 0-.2.1-.4.2-.1.1-.3.4-.4.6-.1.4-.1.6-.2.6z"/><ellipse cx="58.2" cy="77.4" fill="#FC0" rx="37.3" ry="16.6"/><ellipse cx="58.3" cy="76.5" fill="#FF9" rx="32.9" ry="12.9"/><path fill="#070406" d="M85.4 76.8s-1.6 2.5-2.8 2.8c-1.1.4-7.8 2.5-8.5 2.8-.8.4-6.5 2.5-6.5 2.5l-4.5 2.4-5.9 2.2s-5.3 2.6-12.3-3.3c-6.7-5.7-16.4-9.3-15.5-12.2.6-1.7 1.4-4.2 1.4-4.2l1.4-.8" opacity=".07"/><path fill="#FCEBB7" d="M32.4 68.7v1.2c-.5.1-.8.3-.5 1 .3.9 2.9 2.6 4.2 3 1.2.5 7.3 5.2 8.9 5.9 1.6.8 3.8 2 4.8 2.7 1 .7 3.2 1.1 3.5.9.3-.3 3.2-1.3 3.6-1.4.4-.1 6.5-2.1 6.5-2.1s6.6-2.8 6.8-2.8 6-2.5 6-2.5 7.4-2.6 7.8-2.9c.1-.1.2-.3.2-.5.1-.7-.2-1.5-.9-1.3-.8.3-20.4-7.5-22.3-7.9-1.9-.4-2.9-.2-3.7 0-.8.2-4-.1-5.3-.2-1.3-.2-4.1.3-5.7.5s-2.8.5-3.7.8-1.3.7-1.6.9c-.4.2-.9.8-1.4.6-.5-.2-.5-.4-1-.4-.6 0-1.8.1-2 .4-.3.3-.6.9-1 1-.5.1-1-.5-1.2-.1s-1 1-1 1-1 .5-1 .8-.9.4-.5.6c.4 0 .5.8.5.8z"/><path fill="#F8A144" d="M84.2 77.1s-.3.8-2.3 1.6-3.8 1-4.7 1.4-1.8.5-2.1.6c-.3.1-1.2.4-1.5.6s-1.8.7-1.8.7l-1.2.7-1.8.9s-1 .4-1.4.6-.9.5-1.3.6-.9.5-.9.5l-1.2.3s-.6.6-1 .7-1.4.5-1.8.7c-.5.2-1.7.6-1.9.7-.3.1-.7.3-1 .4-.4.1-.6.4-1.1.7-.6.3-.9.4-1.3.4s-.6-.3-1.1 0c-.3.1-.9.4-.9.4s-2.5-.9-3.1-1c-.7-.2-1.6-.3-2.1-.7-.6-.4-2.1-1.8-2.1-1.8s-.6-.7-1-.9-.9-.4-1.2-.7c-.3-.3-.9-.6-1.2-.9-.4-.3-2.7-2.3-3-2.5-.4-.2-1.1-.4-1.5-.7-.4-.3-1.1.1-1.5-.5-.4-.6-1.5-1-1.8-1.2-.3-.2-1.1-1.2-1.4-1.4S32.4 76 32.4 76s-1.1-.9-.9-3c.3-2.2.3-3.2.3-3.2s1 2.8 4.1 4c3 1.2 12 8.5 14.6 9 2.7.4 14.2-3.8 16.6-4.7 2.4-.9 15.2-5.6 16.1-6.4.9-.8.9-.3.9-.8v.5l.6 4.1-.5 1.6z"/><path fill="#050505" stroke="#81807F" d="M60 85.3c-.1-.5.7-.8.3-1.3.2-.3.4-.4.7-.4 0 .5-.3 1.7-1 1.7m2.3-.5c-.2-.3.1-.7.4-.9.1 0 .1 0 .2.1-.1.3-.4.9-.6.8m3.8-1.7c0 .1-.2.1-.1.3.5-.3.8-.9.2-1.3l-.3.3c.3.1.3.4.2.7m8-4.2c0-.3 1-2 1.2-1.8.8.4-.9 1.7-1.2 1.8m-3 1.2c.3-.2.6-.4.9-.5 0 0 .2.2.2.1-.2.3-.6.4-.9.2m-1.7-.4c.4-.2.9-.3 1.1-.5-.1.4-.5.7-.9.7 0-.1-.1-.2-.1-.3m-5.1 2.9c-.5-.6.3-.9.6-1.3.2.5-.1.9-.7 1.1m2-1.5c0-.4-.1-.6.3-.7 0 .3-.1.6-.3.7m-2.9-.1c1 .3.3-1.2-.3-.3.2.2.4.1.4.1m-6.5 4.2c-.3-.5.3-.9.8-.5.5.5-.4.8-.8.8m-.8 2.2c.2-.4.2-.8.3-1.1-.8-.1-.7 1.1-.2.9m-.6 1.7c-.7-1.2-1.9-.2-.4-.2.9 0 1.7-.5 2.6-.5-.3.3-.7.4-1 .7m4.3-1.9l-.3-.9h-.5c.1 0 .4-.1.6-.1-.1-.1-.2-.3-.2-.3.2-.1.2-.1.4-.1 0 .4 0 .7-.1 1 .1.1 0 .3.1.4m1.8-.8l-.3-.3c0 .1-.1 0-.2.1 0 .1.1.2.2.3.2 0 .2-.1.3-.1m2.3-1.8c-.2-.4-.1-.9.1-1 0 .4 0 .9-.1 1m5.7-1.9c.3-.5.4-.9.8-1.4.4-.6.4-.6.9-.9-.2.6-.9.8-1 1.1-.1.1-.2.1-.2.3.4.2.9-.1 1.2-.4-.3.6-.9.6-1.4.9.2.2 0 .1 0 .2m1.7-3.9c-.3-.5.2-.8.4-1 .3.4-.2 1.1-.4 1m-17.4 7.7c-.1-.2.1-.7.1-.9-.2.6-.4 1.2-.7 1.8-.2.4-.5.9-.8 1.1-.4.3-1 .4-1.2.8M52 86.3c-.3-.1-.3-.3-.1-.7.5.2.3.7-.1.7m.1-2.6c-.2.1-.4.2-.6.4.3.3.7.4.9 0-.1-.2-.1-.3-.1-.5.1 0 .2.1.3.1m1.3 2.5c-1-.8.6-1.5-.2-2.5 1 0 1 1.8.9 2.4-.2.5-1.3 2.7-1.9 1.9.5-.6 1.6-.9 1.2-1.8m-5.2-.5c-.3 0-.6-.2-1-.2 0 .5.5.8.9.7 0-.3 0-.3.1-.5m2 2.1c-.1-.3-.1-.6 0-.9.2.3.2.5.2.8-.1 0-.2 0-.2.1m-.1-3.4c0-.2.1-.5 0-.7.4.4.6.8.5 1.2-.3 0-.4-.1-.7-.3.2-.3.3-.6.2-.9m-7.5-.4c-.1-.2-.1-.4-.1-.7.4.3.1.7.4.9.2.2.7.2 1 .4 0 .1-.1.2-.1.3-.6-.2-1-.7-1.2-.9m-2.6-10.2c-.4.2-.7-.2-.9-.5.3-.3 1-.9 1.4-.6.6.6-.6.9-.5 1.3-.2.1-.1-.1-.1-.1m3.7-1c-.2-.5.5-.8.8-.4.2.2-.1.7.2.9-.6.2-1.2-.8-1.6 0 .3-.5.9-.7 1.2-.9m-6.2-.4c.3 0 .5-.3.7-.6.2.3.3.6.4.9-.2-.1-.4-.1-.6-.2.1.1.1.3.2.5-.1-.1-.4-.3-.5-.4-.2.3-.6.5-.9.4.6-.8.1-.9-.1-1.7.8-.5.8.4.9.9m.3-3.4c.5-.1.6-.6.4-.9 1.2.4-.1 1.2-.5 1.4-.4.3-1.6 1.2-1.8 0 .3-.1.7-.3.9-.6.2.1.4.1.6.4 0-.1.2-.1.4-.3m5.7 1.6c-.7-.3-.3-.9 0-1.5-.1.2-.3.3-.6.4m-2.3 3.6c-.1-.4-.1-.9.2-1.1-.2-.1-.4-.3-.6-.3.4-.9 1.1.3.7.9m.6-2.7c-.4-.5-.2-.9-.6-1.4 0 0 .1 0 .1-.1.1 0 .3 0 .5.1-.2.5 0 1.1.7.9 0 .2 0 .4-.1.6.1 0 .2.1.3.1-.3 0-.6-.1-.9-.3m.2 4.1c-.9-.8.1-1.9 1-1.2 0 .2-.1.3-.2.5-.6-.6-.7.1-.8.7m-.9 1.8c0-.3 0-.5.2-.7v.6m-7.4-5.7c.1-1.1-.6-1.5.6-1.8-1.5-.9-.5 1-.7 1.6m8.9-3.8c-.2-.1-.5-.4-.6-.6.6-.4 1.5-.5 1.9-1-.5-.3-2.4.7-2.2 1.2-.2.2-.2.2-.5.2.1-.2 0-.7 0-.8-.7.4.5 1.3 1 .6m1.2 2c-.2.2-.4.5-.8.6-.1-.1 0-.2.1-.3m2-.1c-.1-.6.5-.6.8-.9-.5-.4-.8.2-.9.7m1.9-3.4c.4.2 1 .1 1.4 0-.1-.7-1.5-.8-1.4 0m-.8 6c-.1-.3 0-.7.2-.9-.3-.2-.4-.5-.6-.7h.5c-.4.7.5.8.8.9-.2.1-.4.3-.7.4.1.1.1.4.2.4-.3.1-.2-.1-.4-.1m2.3 2.9c-.4.1-1.1.8-1.5.4-.6-.5.8-.7 0-1.1-.8.6-.6.9.2 1.2.8.3.9-.1 1.6-.5m-2.5 1.6c0 .2.1.4.3.6.1-.5-.1-.4-.3-.6m-1.9 1.5c-.1.1-.1.3 0 .4.1-.3-.1-.2-.3-.4m-9.2-3.5c.1-.1.2-.4.3-.6-.4-.2-.8-.5-.9-.9 1.1.6 1.6 1 .4 1.7M71.1 67c-.5.1-.9 0-1.1-.4-.5.9 1 .5 1.1 1 .1-.4 0-.5 0-.6m1.9.4c-.3 0-.5 0-.7.1.3.1.5 0 .7-.1M56.7 79c.1 0 0 0 0 0-.3.1-.3.1-.3.4.3-.1.3-.2.3-.4m1.1-4.5c.1-.2.1-.3.2-.5.2.2.3.3.4.7h-.8c0-.2.1-.3.2-.5m-4.4-1.6c-.1.1-.3.1-.4.2-.4-.2-.7 0-1.1-.2h.9m28.5-1.7c0 .3-.1 0-.2-.2m-3.4-1.4c-.3.5-1 .3-.6-.2.2.3.5.5.6.5M75 68.1c0 .1.2.2.3.3m-6.9-2.1c-.1-.1-.1-.2-.2-.3.1-.1.1-.2.2-.3.2.1.5.4.7.5-.3.3-.8.4-.9.1m6.5 3.4s-.2 0-.1-.2c.4 0 .5-.1.6.4-.4-.1-.3-.2-.4-.4m-5.8-.8c.2 0 .4 0 .6.1v.2c-.4.1-.4-.1-.6-.3m-20.2-3c.2-.4.4-.7.8-.8-.6-.1-1.1.4-.6.8m-1.7-1.3c.6-.2 1.1-.4 1.7-.7-.4-.3-1.4.1-1.3.6m-.2 2.8c-.1.1.1 0 0 0-.2-.4-1.5-1-1.1-.1.3 0 .8.1 1.1.1m-7.2 8.7c-.2-.1-.2-.2 0-.2.5.2.1.3.1.5m2.7-.5c-.6-.1-.6-.4-.2-.7.1.1.2.2.3.2-.1.2-.2.2-.3.3M40 68.2c-.2.6.4.5.9.4 0-.3-.1-.4-.3-.6-.3.2-.5.4-.7.7m1.1-1.8c.4-.2.5-.8.7-1.2.4.2.2.7.1.9-.4.2-.7.3-.8.3m2.4-1.3c.3-.2.4-.4.8-.2-.2.3-.6.4-.9.4-.2-.2-.1-.1.1-.2m1.9-1.1c-.1-.2-.2-.4-.2-.6.1 0 .2-.1.3-.1 0 .4-.2.7-.4.8m2.1 1.6c-.1-.3-.1-.6 0-.9.3 0 .5.1.7.3-.1.1-.7.6-.7.6m12.5-3c.1-.1.1-.2.2-.2-.4.2-.9.5-1.2.7m-5.7 10.4c0-.5.5-.7.9-.4-.2.3-.4.2-.7.1m-2.4.7c.1-.3.2-.5.4-.6.2.5 0 .7-.4.6M49 75.7v-.6" opacity=".06"/><path fill="#050505" d="M39.4 65.4c-1.1.3-3.2 1-3.6 2.3-.6 1.6.9 3.2 1.8 4.4 1.9 2.4 4.7 4.7 7.4 6.4 1 .7 2.2 1.2 3.2 1.9.7.4 2.2 1.3 2.4 2.1-.1.1-.1.2-.1.3-1.3-.7-2.8-1.1-4-2-1.6-1.1-3.1-2.4-5-3.3-1.5-.8-2.8-1.7-4.1-2.7-1.4-1-3.2-1.7-4.4-2.8-.7-.6-1.2-1.4-.9-2.3.2-.5.5-.5.6-.9 0-.3-.3-.7-.3-1 .1-.8 2.5-3.8 2.7-2 .7.1 1.2-1.2 2.1-1.2.6-.1 2.3.3 1.9 1.1" opacity=".02"/><path fill="#050505" stroke="#050505" d="M72.6 79.6c-.1-.2-.1-.4-.1-.7.4.3.1.7.4.9.2.2.7.2 1 .4 0 .1-.1.2-.1.3-.6-.3-.9-.7-1.2-.9" opacity=".14"/><path fill="#050505" stroke="#050505" d="M81.7 74.2c-.5.1-.9 0-1.1-.4-.5.9 1 .5 1.1 1 .2-.3 0-.3 0-.6" opacity=".15"/><path fill="#050505" stroke="#050505" d="M78 78.1c-.3.1-.3.1-.3.4.3-.1.3-.2.3-.4" opacity=".1"/><path fill="#050505" stroke="#050505" d="M68.5 81.8c.1-.2.1-.3.2-.5.2.2.3.3.4.7h-.8c0-.2.1-.3.2-.5m10.6-7.9c-.1-.1-.1-.2-.2-.3.1-.1.1-.2.2-.3.2.1.5.4.7.5-.3.3-.8.4-.9.1m-28 6.8c-.4.2-.7-.2-.9-.5.3-.3 1-.9 1.4-.6.6.6-.6.9-.5 1.3-.2.1-.1-.1-.1-.1m3.7-1c-.2-.5.5-.8.8-.4.2.2-.1.7.2.9-.6.2-1.2-.8-1.7 0 .3-.5.9-.7 1.2-.9m-6-.5c.3 0 .5-.3.7-.6.2.3.3.6.4.9-.2-.1-.4-.1-.6-.2.1.1.1.3.2.5-.1-.1-.4-.3-.5-.4-.2.3-.6.5-.9.4.6-.8.1-.9-.1-1.7.8-.5.8.4.9.9m.3-3.4c.5-.1.6-.6.4-.9 1.2.4-.1 1.2-.5 1.4-.4.3-1.6 1.2-1.8 0 .3-.1.7-.3.9-.6.2.1.4.1.6.4 0-.1.2-.1.4-.3m5.6 1.7c-.7-.3-.3-.9 0-1.5-.1.2-.3.3-.6.4m-2.1 3.6c-.1-.4-.1-.9.2-1.1-.2-.1-.4-.3-.6-.3.4-1 1.1.3.7.9m.5-2.7c-.4-.5-.2-.9-.6-1.4 0 0 .1 0 .1-.1.1 0 .3 0 .5.1-.2.5 0 1.1.7.9 0 .2 0 .4-.1.6.1 0 .2.1.3.1-.3 0-.6-.1-.9-.3m.2 4.1c-.9-.8.1-1.9 1-1.2 0 .2-.1.3-.2.5-.6-.6-.7.1-.8.7m-.9 1.8c0-.3 0-.5.2-.7v.6M45.2 76c.1-1.1-.6-1.5.6-1.8-1.5-.9-.5 1-.7 1.6M54 72c-.2-.1-.5-.4-.6-.6.6-.4 1.5-.5 1.9-1-.5-.3-2.4.7-2.2 1.2-.2.2-.2.2-.5.2.1-.2 0-.7 0-.8-.7.4.5 1.3 1 .6m1.1 2c-.2.2-.4.5-.8.6-.1-.1 0-.2.1-.3m2.1-.1c-.1-.6.5-.6.8-.9-.5-.4-.8.2-.9.7m1.9-3.4c.4.2 1 .1 1.4 0-.1-.7-1.4-.8-1.4 0m-.8 6.1c-.1-.3 0-.7.2-.9-.3-.2-.4-.5-.6-.7h.5c-.4.7.5.8.8.9-.2.1-.4.3-.7.4.1.1.1.4.2.4-.3 0-.3-.1-.4-.1m2.3 2.7c-.4.1-1.1.8-1.5.4-.6-.5.8-.7 0-1.1-.8.6-.6.9.2 1.2.8.3.9-.1 1.6-.5m-2.5 1.7c0 .2.1.4.3.6.2-.5-.1-.4-.3-.6m-2 1.4c-.1.1-.1.3 0 .4.1-.3-.1-.2-.3-.4m-9.1-3.5c.1-.1.2-.4.3-.6-.4-.2-.8-.5-.9-.9 1.1.6 1.6 1 .4 1.7m18.5 1.1c-.1.1-.3.1-.4.2-.4-.2-.7 0-1.1-.2h.9m-4-6.9c.2-.4.4-.7.8-.8-.6-.1-1.1.4-.6.8M58 71.7c.6-.2 1.1-.4 1.7-.7-.4-.3-1.4.1-1.3.6m-.3 2.8c-.1.1.1 0 0 0-.2-.4-1.5-1-1.1-.1.4 0 .9.1 1.1.1m-7.2 8.7c-.2-.1-.2-.2 0-.2.5.2.1.3.1.5m2.9-.6c-.6-.1-.6-.4-.2-.7.1.1.2.2.3.2-.1.2-.2.2-.3.3m-3.1-7.2c-.2.6.4.5.9.4 0-.3-.1-.4-.3-.6-.3.2-.5.4-.7.7m1.1-1.8c.4-.2.5-.8.7-1.2.4.2.2.7.1.9-.3.2-.6.3-.8.3m2.5-1.2c.3-.2.4-.4.8-.2-.2.3-.6.4-.9.4-.2-.2 0-.2.1-.2m2-1.1c-.1-.2-.2-.4-.2-.6.1 0 .2-.1.3-.1 0 .4-.2.7-.4.8m2 1.6c-.1-.3-.1-.6 0-.9.3 0 .5.1.7.3-.2 0-.6.6-.7.6m5.8 7.9c0-.5.5-.7.9-.4-.2.3-.4.2-.7.1m-2.3.7c.1-.3.2-.5.4-.6 0 .5-.2.8-.4.6m-1.7 1.1v-.6" opacity=".15"/><path fill="#050505" stroke="#81807F" d="M65.5 77.3c-.4.2-.7-.2-.9-.5.3-.3 1-.9 1.4-.6.6.6-.6.9-.5 1.3-.2.1-.1-.1-.1-.1m3.8-1c-.2-.5.5-.8.8-.4.2.2-.1.7.2.9-.6.2-1.2-.8-1.7 0 .3-.5.9-.7 1.2-.9m-6.1-.4c.3 0 .5-.3.7-.6.2.3.3.6.4.9-.2-.1-.4-.1-.6-.2.1.1.1.3.2.5-.1-.1-.4-.3-.5-.4-.2.3-.6.5-.9.4.6-.8.1-.9-.1-1.7.8-.5.8.4.9.9m.2-3.4c.5-.1.6-.6.4-.9 1.2.4-.1 1.2-.5 1.4-.4.3-1.6 1.2-1.8 0 .3-.1.7-.3.9-.6.2.1.4.1.6.4.1-.1.2-.1.4-.3m5.7 1.6c-.7-.3-.3-.9 0-1.5-.1.2-.3.3-.6.4m-2.1 3.7c-.1-.4-.1-.9.2-1.1-.2-.1-.4-.3-.6-.3.4-1 1.1.3.7.9m.4-2.8c-.4-.5-.2-.9-.6-1.4l.1-.1c.1 0 .3 0 .5.1-.2.5 0 1.1.7.9 0 .2 0 .4-.1.6.1 0 .2.1.3.1-.3 0-.6-.1-.9-.3m.2 4c-.9-.8.1-1.9 1-1.2 0 .2-.1.3-.2.5-.6-.5-.7.2-.8.7m-.7 1.9c0-.3 0-.5.2-.7v.6m-7.5-5.7c.1-1.1-.6-1.5.6-1.8-1.5-.9-.5 1.1-.7 1.6m8.9-3.8c-.2-.1-.5-.4-.6-.6.6-.4 1.5-.5 1.9-1-.5-.3-2.4.7-2.2 1.2-.2.2-.2.2-.5.2.1-.2 0-.7 0-.8-.7.4.5 1.3 1 .6m4.3-1.5c.4.2 1 .1 1.4 0-.1-.6-1.5-.7-1.4 0m-.9 6.1c-.1-.3 0-.7.2-.9-.3-.2-.4-.5-.6-.7h.5c-.4.7.5.8.8.9-.2.1-.4.3-.7.4.1.1.1.4.2.4-.2.1-.2-.1-.4-.1M74 76c-.4.1-1.1.8-1.5.4-.6-.5.8-.7 0-1.1-.8.6-.6.9.2 1.2.8.3.9-.1 1.6-.5m-2.6 1.6c0 .2.1.4.3.6.3-.4 0-.4-.3-.6m-1.9 1.5c-.1.1-.1.3 0 .4.1-.3-.1-.2-.3-.4m-9.2-3.5c.1-.1.2-.4.3-.6-.4-.2-.8-.5-.9-.9 1.1.6 1.6 1 .4 1.7m18.6.9c-.1.1-.3.1-.4.2-.4-.2-.7 0-1.1-.2h.8m-3.9-6.8c.2-.4.3-.7.8-.8-.6-.1-1.1.4-.6.8m-1.7-1.2c.6-.2 1.1-.4 1.7-.7-.4-.3-1.4.1-1.3.6m-.2 2.7c-.1.1.1 0 0 0-.2-.4-1.5-1-1.1-.1.3-.1.8.1 1.1.1m-7.3 8.8c-.2-.1-.2-.2 0-.2.5.2.1.3.1.5m2.8-.6c-.6-.1-.6-.4-.2-.7.1.1.2.2.3.2-.1.2-.2.2-.3.3m-2.9-7.2c-.2.6.4.5.9.4 0-.3-.1-.4-.3-.6-.3.2-.5.4-.7.7m1-1.9c.4-.2.5-.8.7-1.2.4.2.2.7.1.9-.3.2-.6.3-.8.3m2.5-1.2c.3-.2.4-.3.8-.2-.2.3-.6.4-.9.4-.2-.1 0-.1.1-.2m2-1c-.2-.2-.2-.4-.2-.6.1 0 .2-.1.3-.1 0 .4-.2.7-.4.8m2 1.5c-.1-.3-.1-.6 0-.9.3 0 .5.1.7.3-.1.1-.7.6-.7.6m5.9 7.9c0-.5.5-.7.9-.4-.2.3-.4.2-.7.1m-2.5.7c.1-.3.2-.5.4-.6.2.4 0 .7-.4.6m-1.6 1.2v-.6" opacity=".15"/><g fill="#050505" stroke="#81807F" opacity=".15"><path d="M60.2 68.5c.4-.3.7.1.9.3-.2.3-.9 1.1-1.2.9-.7-.5.4-1 .2-1.4.2-.1.1.1.1.1" opacity=".15"/><path d="M60.3 68.7c.2.4-.3.9-.7.5-.2-.2 0-.7-.3-.9.5-.3 1.3.5 1.6-.3-.3.5-.8.8-1 1.1m4.6-2.7c-.3 0-.5.4-.6.7-.2-.2-.4-.5-.5-.8.2.1.4 0 .6.1-.1-.1-.2-.3-.2-.4.1.1.4.2.5.3.2-.3.5-.6.9-.5-.5.9.1.9.4 1.7-.7.6-.8-.3-1-.8m-4.7-2c-.4.2-.5.7-.2.9-1.3-.2-.2-1.2.2-1.5.4-.3 1.3-1.5 1.7-.4-.3.2-.6.4-.8.7-.2-.1-.4 0-.6-.3-.1.1-.2.2-.3.2m-5.7-.2c.8.2.5.9.3 1.5.1-.2.3-.4.5-.5m1.4-3.9c.2.4.3.8.1 1.2.2 0 .4.2.7.2-.2 1-1.1-.1-.8-.9m-.3 2.8c.4.4.3.9.9 1.2 0 0 0 .1-.1.1h-.5c.1-.5-.3-1.1-.8-.7 0-.2-.1-.4 0-.6h-.3c.3 0 .6 0 .9.1m6.5 4.3c.9.6.3 1.9-.8 1.4 0-.2 0-.3.1-.5.7.4.8-.3.7-.8m14.2 2.1c.1.3.1.5-.1.7-.1-.2-.1-.6-.1-.6m-12.8-8.1c.1 1.1.9 1.3-.2 1.9 1.7.7.3-1.1.3-1.7m-8 5.3c.2.1.5.3.7.5-.5.5-1.4.8-1.7 1.4.6.2 2.3-1.1 2-1.6.2-.2.2-.2.4-.3 0 .3.2.6.2.8.7-.5-.7-1.2-1.1-.4M55 67.1c.2-.2.3-.6.7-.7.1.1.1.2-.1.3m-2 .5c.2.6-.4.6-.7 1 .6.3.7-.4.8-.8m-1.2 3.7c-.5-.1-1 .1-1.4.3.3.6 1.6.4 1.4-.3m-.3-6.1c.2.3.2.7 0 .9.3.2.5.4.7.6-.1.1-.4.1-.5.1.2-.8-.6-.7-.9-.7.2-.1.3-.4.6-.5-.1-.1-.2-.3-.3-.4.3-.1.3 0 .4.1m-2.8-2.5c.4-.2.9-.9 1.4-.7.6.4-.6.8.2 1.1.7-.7.4-1-.5-1.2-.8-.1-.9.3-1.5.8m18 5.7c-.1-.2-.2-.4-.4-.5-.2.5.1.4.4.5m8.6 1.2c.1-.4.1-.7-.1-.9 0 .7.4.4.8.8m-5 3.4c-.1.2-.1.4-.2.6.4.2.9.4.9.9-1.2-.4-1.7-.8-.7-1.6m-26.6-10c.1-.1.2-.2.3-.2.4.2.7-.1 1.1 0-.3 0-.6.1-.8.2m5.1 5.9c-.1.4-.2.8-.6.9.6 0 1-.6.4-.9m2 .9c-.6.3-1 .6-1.5.9.5.3 1.4-.4 1.1-.8m-.3-2.6c0-.1-.1 0 0 0 .2.3 1.6.8 1.1-.1-.3.1-.8 0-1.1.1m29.3 3.1c.2.1.2.2.1.2-.5-.1-.2-.2-.2-.4M64.8 68c.6 0 .6.3.3.7-.1 0-.2-.1-.3-.2 0-.2.1-.2.2-.4m-6.4-3.5c.1-.7-.5-.5-.9-.2 0 .3.1.4.4.6.2-.2.4-.5.6-.9M58 66c-.4.2-.3.9-.5 1.3-.4-.1-.3-.7-.3-.9.2-.2.5-.4.8-.6m-2.2 1.8c-.2.3-.4.4-.7.3.2-.3.5-.5.9-.5.2.1 0 .1 0 .3m-1.9 1.4c.1.2.2.3.3.5-.1 0-.1.1-.3.1-.1-.4.1-.8.2-.8M52 67.8c.2.3.2.6.2.9-.2 0-.6 0-.7-.1.1-.2.5-.8.5-.8m23.1 4.8c.1.5-.3.8-.8.5.1-.4.3-.3.6-.2m6-2.6c0 .3-.1.5-.3.7-.1-.4 0-.7.3-.7m-4 .8c0 .2.1.4.1.6" opacity=".15"/></g><path fill="#FBE400" d="M48.2 85.5c-.6-3-3.3-5.3-6.1-6.8-1.4-.8-3-1-4.4-2.1-.6-.4-2.8-2.9-3.2-2.9-3.4-.1 4.2 5.7 4.9 6.3 2.4 1.8 5.3 4.2 7.9 5.2" opacity=".15"/><path fill="#050505" d="M59 61.6c2.3.7 4.1.9 6.2 2.2 1.8 1 3.9 1.5 5.9 2 2.4.6 4.5 1.7 6.8 2.6 1.9.7 4.3.6 5.9 1.6 0 .5.1.8-.2 1.2-.4-1.9-3.4-1.2-4.9-1.8-2-.9-4.1-2.2-6.3-2.9-2.4-.9-4.3-1.2-6.6-2.4-1.5-.8-6.1-1.2-6.6-2.4" opacity=".07"/><path fill="#050505" d="M39 65.4c1.6.3 3-1.6 4.7-2.1 1.8-.6 3.5-.9 5.4-1 3.5-.4 7.3.6 10.9-.3-.9-1.3-3.6.1-5 .1-1.9-.1-3.7-.6-5.7-.2-1.9.3-4.2.3-6 .9-1.4.5-3.2 2.3-4.8 1.6.4.4.4.7.5 1m9 15.8c1.5 2 6.4 1.2 8.5.7 2.8-.8 6.1-1.6 8.7-2.7 2.8-1 5.6-2.7 8.4-3.5 2.5-.8 6.6-.9 8.6-2.8.9-.8 1.5-1.6.6-2.7.2 3-4.9 3.1-6.8 4.1-2.8 1.4-5.6 2-8.5 3.1-4.9 1.9-12 5.2-16.6 4.3-.5-.1-.9 0-1.3-.7 0 .3-.1.6-.1.9-.6.1-.8-.2-1-.7m12.1 4c-.2.1-.4.3-.5.4-.2-1 .9-3.6-1.2-2.6.2-.5 0-.8.3-1.2-1.4 0-3.2.8-4.7 1-1.5.3-3.5.4-4.9.9 1.2.1 2 .9 1.7 2.2.9 0 .9.3 1.5.7-.5.3-.7.9-1.1 1.1 1.5 2 2.5.9 4.2.5 1.6-.5 4 0 4.8-1.8" opacity=".07"/><path fill="#050505" d="M81 78.6c.6-.5 1.1-.9 1.7-1.5-1.3-1.2-.5-5.1 1-5.7.7.3.8 3.4.6 4.4-.3 1.3-1.5 2.6-2.8 2.8" opacity=".07"/><path fill="#E3C81F" d="M62.2 84.9c1.2.2 3.1-2.4 4.7-2.8.6-.2 1.6 0 2.3-.3.8-.3 1.2-.9 1.9-1.4 1.3-.7 9.7-1.7 9.1-3.4.5-.3.9-.7 1.5-.8-.6-.3-1.1-.7-1.9-.7-.1-.4-.3-.5-.5-.9-3.5.7-7 3.2-10.5 4.3-1.7.6-3 .9-4.6 2.1-1.4.9-3.9.8-5 1.7.5.2.9.8 1.4 1-.1.3-.5.3-.7.3.1.1.6.3.6.4-.3.3-.6.8-.9 1 .9-.4 1.8-1.3 2.8-1.2.2.4-.2.3-.2.4" opacity=".15"/><g fill="#050505" stroke="#81807F" opacity=".41"><path d="M67.8 75.4c.4-.3.7.1.9.3-.2.3-.9 1.1-1.2.9-.7-.5.4-1 .2-1.4.2-.1.1.1.1.1" opacity=".15"/><path d="M67.9 75.6c.2.4-.3.9-.7.5-.2-.2 0-.7-.3-.9.5-.3 1.3.5 1.6-.3-.3.5-.8.8-1 1.1m4.6-2.8c-.3 0-.5.4-.6.7-.2-.2-.4-.5-.5-.8.2.1.4 0 .6.1-.1-.1-.2-.3-.2-.4.1.1.4.2.5.3.2-.3.5-.6.9-.5-.5.9.1.9.4 1.7-.7.6-.8-.3-1-.8m-4.6-1.9c-.4.2-.5.7-.2.9-1.3-.2-.2-1.2.2-1.5.4-.3 1.3-1.5 1.7-.4-.3.2-.6.4-.8.7-.2-.1-.4 0-.6-.3-.1.1-.2.2-.3.2m-5.9-.2c.8.2.5.9.3 1.5.1-.2.3-.4.5-.5m1.5-4c.2.4.3.8.1 1.2.2 0 .4.2.7.2-.2 1-1.1-.1-.8-.9m-.2 2.9c.4.4.3.9.9 1.2 0 0 0 .1-.1.1h-.5c.1-.5-.3-1.1-.8-.7 0-.2-.1-.4 0-.6H63c.3 0 .6 0 .9.1m6.4 4.2c.9.6.3 1.9-.8 1.4 0-.2 0-.3.1-.5.7.4.8-.3.7-.8m14.2 2.3c.1.3.1.5-.1.7-.1-.2-.1-.6-.1-.6m-12.8-8.3c.1 1.1.9 1.3-.2 1.9 1.7.7.3-1.1.3-1.7m-8 5.4c.2.1.5.3.7.5-.5.5-1.4.8-1.7 1.4.6.2 2.3-1.1 2-1.6.2-.2.2-.2.4-.3 0 .3.2.6.2.8.7-.5-.7-1.2-1.1-.4m-1.5-1.8c.2-.2.3-.6.7-.7.1.1.1.2-.1.3m-2 .4c.2.6-.4.6-.7 1 .6.3.7-.4.8-.8M60.1 78c-.5-.1-1 .1-1.4.3.3.5 1.6.4 1.4-.3m-.2-6.2c.2.3.2.7 0 .9.3.2.5.4.7.6-.1.1-.4.1-.5.1.2-.8-.6-.7-.9-.7.2-.1.3-.4.6-.5-.1-.1-.2-.3-.3-.4.3-.1.3 0 .4.1m-2.8-2.4c.4-.2.9-.9 1.4-.7.6.4-.6.8.2 1.1.7-.7.4-1-.5-1.2-.8-.1-.9.3-1.5.8m17.9 5.7c-.1-.2-.2-.4-.4-.5-.1.5.1.4.4.5m8.7 1.2c.1-.4.1-.7-.1-.9 0 .7.4.4.8.8m-8.9 2.1c-.1.2-.1.4-.1.6.4.2.9.4.9.9-1.2-.4-1.7-.8-.7-1.6m-22.9-8.8c.1-.1.2-.2.3-.2.4.2.7-.1 1.1 0-.3 0-.6.1-.8.2m5.1 6c-.1.4-.2.8-.6.9.6 0 1-.6.4-.9m2 .9c-.6.3-1 .6-1.5.9.5.3 1.4-.4 1.1-.8m-.3-2.6c0-.1-.1.1 0 0 .2.3 1.6.8 1.1-.1-.3.1-.8 0-1.1.1m13.3 1c.6 0 .6.3.3.7-.1 0-.2-.1-.3-.2 0-.2.1-.2.2-.4m-6.3-3.5c.1-.7-.5-.5-.9-.2 0 .3.1.4.4.6.2-.2.4-.5.6-.9m-.8 1.9c-.4.2-.3.9-.5 1.3-.4-.1-.3-.7-.3-.9.2-.2.5-.4.8-.6m-2.2 1.8c-.2.3-.4.4-.7.3.2-.3.5-.5.9-.5.2.1 0 .1 0 .3M61.7 76c.1.2.2.3.3.5-.1 0-.2.1-.3.1-.1-.4.1-.8.2-.8m-2.2-1.1c.2.3.2.6.2.9-.3 0-.6 0-.7-.1.1-.2.5-.8.5-.8m18.9 2.8c.1.5-.3.8-.8.5.1-.4.3-.3.6-.2m1.4-.7c0 .2.1.4.1.6" opacity=".15"/></g><path fill="#E21F2A" d="M62.2 66.8c-5 .3-6.9 5.5-8 8.3-.8 2-.6 2.9-2.2 5.4-1.1 1.7-.6.1-1.9 1.7-2.8-1.9-3.4-6.5-6-9.1-2.8-3.1-9.8-1.8-5.1-5.8 4.7-4 17.1-3.7 22.4-2.3"/><path fill="#E0DDDB" d="M51.2 76.4c1.1-6.8 5.1-6.6 9.1-11.5-6 3.7-8.5 4.3-10.4 11.8" opacity=".25"/><path fill="#E0DDDB" d="M46.3 73.6c-.7-2.7 1.6-3.9 4-5-3.4-.3-6.3 1.7-4.6 5.4" opacity=".34"/></g></switch></svg>
