<svg xmlns="http://www.w3.org/2000/svg" version="1.0" viewBox="0 0 28.3 14.9"><switch><g><linearGradient id="a" x1="3210.364" x2="3210.31" y1="207.35" y2="211.655" gradientTransform="rotate(-27.826 1202.364 6546.557)" gradientUnits="userSpaceOnUse"><stop offset="0" stop-color="#333"/><stop offset="1" stop-color="#231f20"/></linearGradient><path fill="url(#a)" stroke="#231F20" stroke-width=".25" d="M13.3 6.1l12-6.1s1.6 1.9 1.7 2.7c0 0-.6 1.2-1.5.8-.7-.3-.2-.2-1 .3-1.7 1-1.7 1.9-9.4 4.2-.6-.1-1.5.2-1.5.2l-.9-1.7.6-.4z"/><linearGradient id="b" x1="3203.76" x2="3203.717" y1="207.237" y2="210.643" gradientTransform="rotate(-27.826 1202.364 6546.557)" gradientUnits="userSpaceOnUse"><stop offset="0" stop-color="#676767"/><stop offset=".527" stop-color="#fff"/><stop offset="1" stop-color="#676767"/></linearGradient><path fill="url(#b)" stroke="#676767" stroke-width=".25" d="M14 5.7l-1.5.8L13.9 9s.5-.5.8-.6c.3 0 .5-.3.5-.3L14 5.7z"/><linearGradient id="c" x1="3191.979" x2="3191.954" y1="204.949" y2="210.607" gradientTransform="rotate(-27.36 1197.728 6651.36)" gradientUnits="userSpaceOnUse"><stop offset="0" stop-color="#fff"/><stop offset="1" stop-color="#cccbcb"/></linearGradient><path fill="url(#c)" stroke="#676767" stroke-width=".25" d="M12.5 6.5L0 13s.3.7 1.3.8c1.1.1 5.6.7 10.7-1.8 1.6-.7 2.4-1.4 2.4-1.4s-.7-1.1-.5-1.7c.2-.6-1.4-2.4-1.4-2.4z"/></g></switch></svg>
