<svg xmlns="http://www.w3.org/2000/svg" version="1.0" viewBox="0 0 24.8 43.3"><switch><g><linearGradient id="a" x1="10.785" x2="-19.589" y1="10.029" y2="36.285" gradientUnits="userSpaceOnUse"><stop offset="0" stop-color="#989898"/><stop offset="1" stop-color="#676767"/></linearGradient><path fill="url(#a)" stroke="#333" stroke-miterlimit="10" stroke-width=".25" d="M13.6 3.5c.5-.5 1-.9 1.4-1.5.5-.8.9-1.2 1.6-1.8-.1.1-.2.3-.3.5.4-.4 1.1-.6 1.7-.7-.1.1-.2.3-.4.4.3-.1.7-.2 1.1-.1l-.3.3c.3 0 .5 0 .7.2L19 1c.2.1.5.2.6.4-.2.1-.4.1-.6.3.6.2 1.2.5 1.6.9-.1 0-.2.1-.4.1l.2.3c-.1 0-.1.1-.2.1.4.4.1.9.3 1.3h-.1c.1.3.3.6.4.9h-.5c0 .1 0 .3.1.4h-.1c0 .2-.1.4-.1.7-.3 0-.2.3-.4.6s-.5.4-.8.5"/><path fill="#676767" d="M16.5 4.5c0-.5.3-1.3 1-1.1-.1-.1-.1-.1-.3-.2.3-.1.6 0 .9.1 0-.2-.1-.4-.4-.5.7 0 1.3.1 1.4.8 0-.1.2-.2.2-.3.1.3.1.7-.2.9.2 0 .4 0 .5-.1.2.5-.2 1-.5 1.4-.3.4-.4.8-.6 1.2"/><path fill="#CCCBCB" d="M18.6 6.7c.3-.4.4-.8.6-1.2.2-.4.7-.9.5-1.4-.1.1-.3.2-.5.1.3-.2.3-.6.2-.9 0 .1-.2.2-.2.3-.1-.7-.7-.8-1.4-.8.2.1.3.3.4.5-.3-.1-.6-.1-.9-.1.2.1.2.1.3.2-.7-.2-1 .6-1 1.1l-.3-.3c0-.2 0-.3.1-.5-.1 0-.2 0-.2.2 0-.2.1-.4.3-.5-.2 0-.4 0-.5.1 0-.3.5-.4.7-.5-.2-.2-.4-.2-.4-.6.1.1.2.2.3.2-.1-.3 0-.5.2-.7 0 .1.1.3.1.4 0-.3.4-.4.5-.6v.4c.1-.2.2-.3.2-.5.3.1.5.5.5.8.2-.1.2-.4.2-.5.2.1.4.3.4.6.3-.1.3-.2.3-.4.2.2.2.5.2.7.3.1.8.4.8.7-.1 0-.2 0-.2.1.9.9-.7 2.2-1 3l-.2.1z" opacity=".64"/><linearGradient id="b" x1="17.964" x2="-12.41" y1="18.334" y2="44.59" gradientUnits="userSpaceOnUse"><stop offset="0" stop-color="#989898"/><stop offset="1" stop-color="#676767"/></linearGradient><path fill="url(#b)" stroke="#333" stroke-miterlimit="10" stroke-width=".25" d="M6.7 10.4c0-.6.3-1.4.6-2 .1-.4.4-1.1.7-1.4l1.9-2.7c.8-.3.8-.3 1.7-.6 1-.3 1.8-.4 2.7-.3 1.2.2 2.8.8 3.7 2 .4.5.8 1.1 1 1.6.2.4.8 1.3.6 1.8l.4 2.8c0 .5-.5 1.1-.7 1.5-.1.2-.5.5-1 .8-.6.5-.9.9-1.5 3.1-.7 2.2.1 6.5.1 6.5s.3 4.7.5 9.2c.2 4.6-1.4 8.2-1.4 8.2-2 3.1-6.8 2-9.7.8-5.5-2.3-7.2-7.9-6-13.4.6-2.7 1.4-7.2 2.6-9.7 1-2.1 2.2-4 3.2-6.2l.6-2z"/><path fill="#CCCBCB" d="M13.3 26.5c-.6-.1-1.9-.8-2.4-.4-.2.2-.3.6-.6.9-.2.3-.8.8-.8 1.2h.1c.1.7-.4 1.4-.4 2.2 0 .7.5 1.4.8 2 0 0 .9-1.9 2-2.4 1-.5 1.1-.6 2.8-.8 1.7-.2 2.6.4 2.6.4v-.3l-.5-.5-.1.3-.4-.4-.8-.2s-.5-.5-.6-.5c-.1 0-.5.1-.5.1s-1-1.5-1.2-1.6zM11.9 7.4c.1 0 .2-.2.3-.2H12c.1-.2.3-.3.5-.4h-.2c.3-.4 1.2-.3 1.5-.2.6.2.8.7 1.1 1.1-.2.1-.4.4-.6.5-.3.2-.5.3-.9.3-.6 0-1.2-.2-1.6-.7l-.3-.4h.4z" opacity=".64"/><linearGradient id="c" x1="-4.167" x2="-2.162" y1="45.497" y2="45.497" gradientTransform="rotate(5.377 409.586 202.573)" gradientUnits="userSpaceOnUse"><stop offset="0" stop-color="#333"/><stop offset="1" stop-color="#676767"/></linearGradient><path fill="url(#c)" stroke="#333" stroke-miterlimit="10" stroke-width=".25" d="M14.3 7.7c-.1-.2-.5-.7-.8-.7-.5-.1-.8.5-1.2.6.3.1.5.5.9.6.4.1.7.1 1-.2l.1-.3z"/><circle cx="13.4" cy="7.6" r=".6" fill="#2F1010"/><path fill="#FFF" d="M13 7.3c.1-.2.5-.1.4.2-.1.2-.5.1-.6 0l.2-.2z"/><path fill="#CCCBCB" d="M14.9 17s-2.6-1.2-3.2-1.6c-.4-.3.6-.3.8-.6.2-.5.9-.8 1.2-1.2l-.1-.1c.1-.5.9-.8 1.2-1.1h-.1c.3-.2.7-.3 1-.3 0 0 .8.5 1.4.5s1.3-.2 1.4-.2.5-.1.6 0 .3.2.4.1c.2 0 .4-.3.4-.3s-.5 1-1 1.3c-.4.3-1.1.8-1.3 1.2s-1.1 2.3-1.1 3.9c-.3-.5-.9-1.2-1.6-1.6z" opacity=".64"/><linearGradient id="d" x1="-22.683" x2="-25.494" y1="122.975" y2="116.341" gradientTransform="matrix(.9817 .1903 -.1672 .8626 62.235 -89.44)" gradientUnits="userSpaceOnUse"><stop offset="0" stop-color="#333"/><stop offset="1" stop-color="#676767"/></linearGradient><path fill="url(#d)" stroke="#333" stroke-miterlimit="10" stroke-width=".25" d="M18.2 8c1.8-1.1 2.7 2.7 2.1 3.7-.3.5-.8.2-1.3.2-.3 0-.8.2-1.1.1-.9-.4-.6-1.7-.5-2.4.1-.1.4-1.4.8-1.6z"/><path fill="#333" d="M18.8 11.7s-.4-.1-.6-.3c-.2-.1-.6-.1-.3.2.2.2.9.1.9.1z"/><path fill="none" stroke="#333" stroke-miterlimit="10" stroke-width=".25" d="M20 12c0 .1-.3.4-.4.4-.3.1-.3-.1-.5-.2-.4-.1-.7.1-1.1.2-.7.1-1.9 0-2.4-.5"/><linearGradient id="e" x1="6.003" x2="-24.371" y1="4.497" y2="30.752" gradientUnits="userSpaceOnUse"><stop offset="0" stop-color="#989898"/><stop offset="1" stop-color="#676767"/></linearGradient><path fill="url(#e)" stroke="#333" stroke-miterlimit="10" stroke-width=".25" d="M10.8 4c-.4.1-.6-.7-.8-1-.2-.6-.5-1-1-1.5C8.3 1 7.5.6 6.7.4 6.1.3 4.9.1 4.5.5c.2 0 .4 0 .6.1-.6 0-1.2.2-1.6.7h.4c-.4.2-1.2.5-1.5 1.1.3-.1.6-.2.9-.2-.7.2-1.1.8-1.5 1.5.2 0 .4-.1.5-.1-.1.4-.3.7-.2 1.2l.6-.3c-.1.4-.1.8 0 1.2.1-.1.3-.2.5-.3-.1.4-.1.7-.1 1.1.2 0 .3-.2.5-.3 0 .4-.3.7-.5 1 .4 0 .8-.3 1.2-.4-.2.2-.3.4-.5.5h.5c0 .1-.1.2-.1.3.2 0 .5-.1.7-.1-.1.2-.3.3-.5.4.3.1.7-.1 1-.2-.1.2-.3.3-.5.4h.8c-.1 0-.1.2-.2.2h.4v.2h.8v.2c.2 0 .3.1.4.1"/><path fill="#676767" d="M7.6 7.4c.3-.2.4-1.7.4-2.2-.1 0-.2-.1-.4-.1.1 0 .1-.1.2-.1v-.1h-.5c.1-.1.2-.2.4-.3-.2 0-.3 0-.5.1 0-.2 0-.3.2-.4-.3 0-.6.2-.6.5-.3-.3.1-.6.3-.8-.5 0-1 0-1.2.6 0-.5.2-.8.5-1-.4-.2-.8.1-.9.6-.2-.4-.1-.8.2-1.1-.6-.1-1 .5-1 1.1-.2-.1-.3-.3-.2-.6-.5.1-.5.8-.5 1.1.1.7.6 1.3 1.2 1.6l2.4 1.1z"/><linearGradient id="f" x1="26.133" x2="-4.242" y1="27.784" y2="54.039" gradientUnits="userSpaceOnUse"><stop offset="0" stop-color="#989898"/><stop offset="1" stop-color="#676767"/></linearGradient><path fill="url(#f)" stroke="#333" stroke-miterlimit="10" stroke-width=".25" d="M9 34c1-1.4 1.5-3.1 3-4.1 1.1-.7 3.9-1 5.1-.5 3.1 1.4 2.9 5.8 2 8.3.7-.4 1.2-.9 2-.9.7 0 1.9.7.8 1.1.9.1 1.6.8.6 1.2.5.2 1 .8.6 1.3s-1.2.1-1.7.3c-1.2.3-2.2 1.3-3.3 1.7-1 .4-2.7.9-3.8.7-1-.1-.6-.3-1-1-.3-.5-.7-.9-1.1-1.3"/><linearGradient id="g" x1="21.875" x2="-8.5" y1="22.858" y2="49.114" gradientUnits="userSpaceOnUse"><stop offset="0" stop-color="#989898"/><stop offset="1" stop-color="#676767"/></linearGradient><path fill="url(#g)" stroke="#333" stroke-miterlimit="10" stroke-width=".25" d="M14.8 17c1.1.2 2.4 2.5 3 3.5.7 1.4 1.4 2.9 2.2 4.3 1 1.8 1.9 2.8 3.3 4.1.7.6 2.4 3.1 1.1 3.7-.3-.4-.4-.9-.8-1.2 0 .4.7 1.8-.1 1.9-.4 0-.7-1.3-.9-1.7-.8-1.2-2.3-1.5-3.4-2.2v.3c-.1-.2-.5-.3-.6-.5 0 .1-.1.3-.1.4-.1-.1-.5-.3-.6-.5-.1.1-.2.2-.2.3-.2-.2-.5-.4-.7-.7-.1.1-.1.2-.1.3-.1 0-.4-.4-.5-.4 0 0-.8-.2-.7-.1-.4-.2-.5-.8-1.1-.5-.2-.3-.7-1-1.1-1.3"/><path fill="#CCCBCB" d="M4 4.7c-.2-.1-.2-.5-.2-.7-.2 0-.3.2-.4.3 0-.2 0-.3.1-.4-.2 0-.4.1-.5.2.1-.4.4-.7.8-.8-.2 0-.5-.1-.7 0 .3-.3.7-.5.9-.5 0-.2-.3-.1-.4-.1.2-.2.5-.1.8-.1 0-.2-.4-.3-.5-.4.3-.2.6.2 1 .2-.1-.3-.5-.5-.7-.7.4-.1.6.3 1 .3 0-.2-.3-.5-.4-.7.3 0 .7.2.9.4 0 0 .2.3.3.3.3 0 0-.7 0-.8.3.1.5.4.5.6.1-.1.1-.3.2-.3 0 .1 0 .2.1.3.1-.1.1-.2.2-.4.2.2 0 .6.2.7.1.1.3-.3.4-.4.1.3 0 .7.1 1 .1-.1.3-.1.4-.1 0 .2-.2.2-.3.4.1 0 .3-.1.4 0 0 .2-.2.3-.2.5.3 0 .6.1.8-.2v.4c-.2.2-.5.2-.5.4.2 0 .3-.1.4-.2 0 .4-.1.5-.4.7.2.1.5-.2.6 0-.2.3-.4.6-.4 1.1-.1.3-.3.7-.5 1l-.4.7c.3-.2.4-1.7.4-2.2-.1 0-.2-.1-.4-.1.1 0 .1-.1.2-.1v-.1h-.5c.1-.1.2-.2.4-.3-.2 0-.3 0-.5.1 0-.2 0-.3.2-.4-.3 0-.6.2-.6.5-.3-.3.1-.6.3-.8-.5 0-1 0-1.2.6 0-.5.2-.8.5-1-.4-.2-.8.1-.9.6-.2-.4-.1-.8.2-1.1-.7-.1-1.1.5-1 1.1-.2-.1-.3-.3-.2-.6-.5.1-.5.8-.5 1.1zm4 4.4c0 .2 0 .4-.2.6.1 0 .2-.1.3-.1 0 .4-.2.7-.2 1.1.1-.1.2-.1.3-.2v.9c.1-.1.3-.1.4-.2 0 .1 0 .3-.1.5h.4v.3h.5c0 .1-.1.3-.2.3h.9c-.1.1-.1.2-.2.2.8 0 1.7.2 2.4 0-.9.7-2.2.4-3.2.4v-.2c-.5 0-.8-.2-1.1-.5-.4-.5-.6-.7-.6-1.4L8 9.1z" opacity=".64"/><path fill="none" stroke="#CCCBCB" stroke-miterlimit="10" stroke-width=".25" d="M13.4 4.7c.2 0 .3 0 .5.1m0-.2c.2 0 .4.2.4.3m-.3-.5c.2 0 .2.1.3.2m.5-.2c.1 0 .3.2.3.3m0-.3c.2.1.3.3.3.5m.6.1c0 .2.1.3.3.4m-.2-.7c0 .2.1.3.2.5m-.6.7c.2.1.3.2.5.3m0-.3l.3.3m.2-.7c.1.1.2.2.2.3m0-.5c.1.1.2.2.3.4m-2.9 3c.1 0 .3-.1.4-.1m-.6.5c.2-.1.4-.1.5-.1m-.3.4c.1 0 .2 0 .3-.1m.3-1c.2 0 .3.1.5.2m-.2-.3c.2 0 .3.1.4.2m-.3-.9c.1 0 .3.2.3.3m-7.2 2.7c.1-.1.2-.2.3-.4m-.2.7l.3-.3m.1.4c.1 0 .3-.1.4-.2m-.4.4c.1 0 .3 0 .4-.1m-.9-1.2c.1-.2.3-.2.5-.2m-.5-.2c.1-.1.3-.1.4-.1m.9 2.2c.1 0 .2-.1.2-.2m0 .3c.1 0 .3-.1.4-.2M8.1 3.3c.2-.1.3-.3.3-.5m.1.4v-.3m-.8-.4c.1 0 .3-.1.4-.2m-.5 0c.1 0 .2-.1.4-.1m.8 1.9c.1-.1.2-.3.2-.5m0 .7c0-.1.1-.2.1-.4M5.7 1.6c0-.2-.1-.3-.2-.4m0-.4c.1 0 .2 0 .2.1m.1-.1c.1 0 .2.1.2.2m.2-.1c0 .1.1.2.1.4m10.7.4c.1-.1.2-.3.3-.3m-.9.7c0-.2.2-.3.3-.5m-.6.7c0-.2 0-.4.1-.5m-.2 1c-.1-.1-.1-.3-.1-.4M7.7 7.9c.2-.1.3-.2.5-.1m-.5-.2c.2 0 .3-.1.5 0M8 7.2c.1-.1.3 0 .4.1m.8-1.6v-.6m-.3.3c0 .2.1.4.2.5M5.2 16.2c-.2.3-.5.5-.8.7m.6-.2c-.2.2-.4.4-.5.6m.5-.1c-.2.2-.3.5-.4.7m.5-2.3c.2-.2.4-.3.5-.6m-.1.6c.3-.1.5-.3.4-.6m.5.6c-.1.3-.3.5-.4.8m.5-.4c-.2.2-.2.5-.3.8M5.9 14c.3 0 .4-.3.5-.6m-.3 1c.1-.1.3-.2.4-.4m.5 1c0-.2.2-.4.4-.5m0 .3c-.2.2-.2.5-.2.8m.9-1c.2-.1.3-.2.3-.4m-.7 2.2v.8m.4-.4c-.1.3 0 .6.2.9m.2-1.2c0 .2.1.4.2.6m-1.4 1c-.1.4.2.7.4 1m-.7-.3c0 .3.2.5.4.8m-1.2-1.2c0 .3 0 .6-.2.8m-.2-.5c0 .3-.2.5-.3.7m-.3.9c0 .3-.1.5-.1.8m.4-.4c0 .3-.1.7.2.8m.2-1.2c-.1.2-.1.5.1.7m-1.7-1.6c0 .3-.1.5-.3.6m-.2-.5c0 .3-.4.6-.6.7m.5-1.7c-.2.2-.4.5-.4.8m1.8-.8c0 .2-.1.4-.3.6m3.8 1.2c.1.3.2.5.4.8m.1-.5c.2.2.3.4.4.6M9 19.1c0 .2.1.3.3.5m.5-.4c.1.2.2.3.4.4m.4.8c.2.2.4.5.5.7m.1-.5c.2.2.3.4.3.6m-.6-2.7c.1.2.2.3.4.4m-.4-1c.1.1.2.3.3.4M9 22.1c.1.2.2.5.2.7m.2-.5c0 .2 0 .4.1.6m-1.4-.2c.1.2.1.4-.1.6m-.3-.3c0 .3 0 .5-.2.7m-.8-1.4c0 .3-.1.6-.3.8m.5 0c-.1.3-.1.6-.2.9m.8.6c0 .3 0 .5.2.7m.2-.5c0 .3.2.5.4.7m3-2.5c.1.2.2.4.2.7m.3-.6c.1.3.3.6.3 1m-8.2 1.3c-.1.2-.2.5-.3.7m.5-.2c-.1.4-.2.8-.2 1.1m-.4-2.3c-.2.2-.4.4-.4.7m.1-1.1c-.2.2-.4.4-.4.7m1.5-2.4c0 .3-.1.7-.4.9m.6-.4c0 .3-.1.6-.4.8m1.2.5c-.2.2-.2.6-.2.9m.5-.5c-.1.2-.1.7.1.9m-3.5 2.1c-.1.3-.2.5-.2.8m.4-.4c-.1.2 0 .5-.1.8m.5-.4c0 .3 0 .7.2 1m-1.7-2.2c0-.2.1-.4.2-.6m2.9 1.8c0 .2.1.4.3.6m.1-.5c.1.2.3.4.5.7m-.7 1.2c.2.3.3.6.4 1m.2-.7c.1.4.3.7.3 1.2m-2.5.1c0 .4.1.7.4 1m-.9-1.5c-.1.3-.2.7 0 .9m-.6-1c0 .3-.1.7.1 1M1.3 30c-.3.3-.5.7-.6 1.1m.6-.4c-.2.3-.2.6-.2 1m1.1 2.5c0 .4.1.9.3 1.2m.1-.6c.1.4.4.8.7 1m10.8-15.5c.3.1.4.5.4.8m-.3-1.3c.2.2.4.4.4.6m-.4-1.3c.3 0 .5.3.6.6m.8 1.5c.1.3.2.5.3.8m-.7.1c.1.2.1.5.1.8m-4.8 10.3c.1-.2.3-.4.5-.6m-.5-.2c.2-.1.4-.2.6-.4m.2-.6c.3-.1.5-.1.8-.1m-.8 2c.1-.1.3-.3.5-.4m-.5 1.1c.2-.2.3-.4.6-.5m1.4-1.9h.8m-1-.4h.6m1.4.5c.2 0 .4.1.5.4M14 30.2c.2 0 .5.1.7.2m.2-.4c.2 0 .4.2.5.4M13.2 34c.1-.2.3-.3.6-.3m-.7 1.3c.2-.2.3-.4.6-.5m2.1-1c.2 0 .5.2.5.4m-.2-.9c.1 0 .3.1.4.3m.2 1.7c.1.2.1.3.1.5m-11 1.7c.2.3.5.6.8.6m-.8-1.2c.2.2.4.4.7.5m-.7-2c.2.1.4.3.7.5m.9 4c.2.1.4.1.7.1m-1-.7c.2.2.4.2.7.2m-4-1.3c0 .4.4.7.7.8m-.2-.7c.2.2.4.3.6.4M8.4 41c.2.1.5.1.8.1m-.5.2c.3.2.7.1 1 0M8.9 38c.3.1.6.1.8-.2m-.9-.3c.2.2.5.2.7-.1m-1.3-.7c.2.2.5.3.7.3"/><path fill="#CCCBCB" d="M23.8 33s-.3.2-.5-.2-.4-1.5-.8-1.8c-.3-.3-1.1-1.1-1.8-1.3-.7-.2-1.3-.3-1.3-.3s1.5.7 1.7.8c.2.1 1 .7 1.2 1 .3.4.6 1.6.8 1.8.3.3.6.2.7 0zm-.2-1.6c.5-.3.8.9 1 1.1l-.2.1c0 .1-.6-1.2-.8-1.2zM13.6 43c.4.3 1.4 0 1.9-.1.7-.2 1.4-.5 2.1-.7.7-.2 1.3-.6 1.9-.9.4-.3.8-.5 1.2-.8.4-.2.9-.4 1.4-.3.3.1 1 .4 1.2-.1 0 0 0 .6-.7.6-.6 0-1.1-.1-1.6.1s-2.9 1.7-3.8 1.9-2.4.9-3.6.3zm9.3-4.4c.1.3-.6.4-.7.5.4.4 1-.4.7-.5m-.7-1.3c.2.4-.5.4-.5.7.2.1.4 0 .5-.2.2-.2.1-.3 0-.5" opacity=".64"/></g></switch></svg>
