<svg xmlns="http://www.w3.org/2000/svg" viewBox="0 0 218 129"><path fill="#BCDA8C" d="M0 0h218v128.7H0z"/><path fill="#EECB83" d="M0 64.2h218V129H0z"/><path fill="#713917" d="M0 59.1h218v5.1H0z"/><path fill="#3C53A3" d="M41.7 13.5c-3.9-.3-6.7 1.2-8.7 3.7-1.8 2.2-3.7 6.2-.3 8.1 1.4.8 4 1.1 4.6-.3.6-1.2-.6-2.9-.8-4.1-.5-3.3 2.3-5.9 5.4-7.6-.3-.3-.5-.1-.9 0"/><linearGradient id="a" x1="107.505" x2="117.178" y1="-215.537" y2="-215.537" gradientTransform="rotate(-5.993 2795.185 196.722)" gradientUnits="userSpaceOnUse"><stop offset="0" stop-color="#c49d8d"/><stop offset="1" stop-color="#f4d8af"/></linearGradient><path fill="url(#a)" d="M79.7 70.6s1.8.6 2.2-.4c.3-1 1.3-1.1 1.3-1.1s-.7 1.8.2 2.1c.9.3 5.1-2.4 5.2-2.9.2-.6.8-1.3-.7-3.1-1.5-1.7-2.3-2.7-2.3-2.7s-1.6-.2-3.1.3-2.1 3-2.1 3-.3 2.9-.7 3.4c-.2.3-.4.2-.4.2l.4 1.2z"/><path fill="#3C53A3" d="M49.3 36.6c-7.4-3.3-14.7 26.6-15.7 30.9l.7 5.4 8.3-.4.9-9.2c1.4-2.9 2.2-3 3.2-6-1.1 5.5-2 17.4-3.1 23-.5 2.9-1.3 5.7-1.3 8.6 6-.1 12.6 2.3 18.5 3 4.5.5 10 .2 14.3-.8 4.4-1.1 1.4-7.6 1.2-10.5-.3-4.9-.9-9.9-1-14.7v-8.3c1.4 3.4 1.9 7.2 3.1 10.7.8 2.5 1.1 6.8 2.6 8.9 2.6-1.6 5.6-2.2 8.4-3.5-4-8.4-7-21.1-10.9-29.6-1.5-3.4-5.8-6.6-7.7-9.9-.7-1.2-.3 1.8-1.8 1.3-1.7-.6-4.7-.4-6.5-.5-2.5-.1-5-.3-7.5-.2-1.8.1-3.5.8-5.3 1"/><path fill="#CDCBCA" d="M53.4 37.4c1.6 1.7 4 2.9 5.8 4.4 1.4-1.1 4.2-3.8 4.9-5.2-2.6-.1-9.2-1.5-10.7.6"/><path fill="#FDD407" d="M46 37l13.9 7.8 12.9-8.4s-.3-1.6-4.1-1.6c-3.9 0-9 7-9 7s-4.2-3.6-6.3-4.2c-2.1-.6-4.4-2.7-6.2-2.6-1.8.2-1.2 2-1.2 2zm-3.7 4.9s15.6 8 17.4 11.2c1.8 3.2 1.1 38.6 1.1 38.6s-2.2-.3-3.9-.7c-1.8-.3 4.1-30 .5-35.1-3.7-5.2-17.1-10.8-17.1-10.8l2-3.2zM63.9 92h3.5s-2.8-34.6-1.7-38.2c1.1-3.6 8-10.9 10.4-11.2 2.4-.4-.8-3.3-.8-3.3S63.4 49.7 63.1 53.1c-.4 3.5.8 38.9.8 38.9z"/><path fill="#FDD407" d="M52.9 90.2s3.2-24.3 1.5-30.3C52.8 54 39.7 48.9 39 50c-.7 1.1-1.5 3.4-1.5 3.4s3.3.3 6.2 2.1c2.9 1.8 6.7 2.6 6.8 5.6.2 3-.2 28.7-.2 28.7l2.6.4zm17.4 1.6s-3.5-31.5-2.2-36.4c2.1-7.9 9.1-12.8 9.6-12.5.5.3 2 4.8 1.5 3.6-.5-1.2-5.9 2-6.9 7.3s.7 37.6.7 37.6l-2.7.4z"/><linearGradient id="b" x1="245.859" x2="248.992" y1="-664.522" y2="-664.522" gradientTransform="rotate(-13.433 3101.656 580.552)" gradientUnits="userSpaceOnUse"><stop offset="0" stop-color="#746046"/><stop offset=".973" stop-color="#9e5429"/></linearGradient><path fill="url(#b)" d="M37.1 30c-2.1-.8-2.8 1.1-2.5 2.3.4 1.9 1.8 2 3.8 2.6"/><path fill="#F3D2B2" d="M54.3 31.3s.2-2.4 1.8-2.4c1.5 0 3.3.9 3.3.9"/><linearGradient id="c" x1="248.811" x2="288.708" y1="-665.781" y2="-665.781" gradientTransform="rotate(-13.433 3101.656 580.552)" gradientUnits="userSpaceOnUse"><stop offset="0" stop-color="#746046"/><stop offset=".973" stop-color="#9e5429"/></linearGradient><path fill="url(#c)" d="M37.1 30.1s1.5 6.4 2.7 7.3c1.2.9 5.6 2.1 13.7 2 4.2 0 6.8-.5 8.6-.9 1.8-.5 2.9-1 4.4-1.2 2.8-.5 6.4-3.7 8-5.1 1.6-1.4 2.3-4.1 2.3-5.9-.1-1.8-.3-3.9-.8-4.3-.5-.4-3.4-5.9-3.7-7-1.7-5.7-14.3-1.7-19.1-.8-4.8.9-16.6 8.2-17.1 9.3-.6.9 1 6.6 1 6.6z"/><linearGradient id="d" x1="247.08" x2="255.234" y1="-906.963" y2="-906.963" gradientTransform="rotate(-13.186 4210.769 348.112)" gradientUnits="userSpaceOnUse"><stop offset="0" stop-color="#e21374"/><stop offset="1" stop-color="#fff1c8"/></linearGradient><path fill="url(#d)" d="M73.3 28.6c.5 1.6-.9 3.3-3.2 3.7-2.2.4-4.4-.6-4.9-2.2s1-3.3 3.2-3.7c2.2-.4 4.4.6 4.9 2.2z" opacity=".18"/><path fill="#090A0B" d="M62.4 25.8c.1.4-.1.7-.5.8-.4.1-.8-.2-.9-.5-.1-.4.1-.7.5-.8.4-.1.8.1.9.5zm-8.5 1.9c.1.4-.1.7-.5.8-.4.1-.8-.1-.9-.5-.1-.4.1-.7.5-.8.4 0 .8.2.9.5z"/><linearGradient id="e" x1="232.966" x2="223.146" y1="-906.728" y2="-906.728" gradientTransform="rotate(-13.186 4210.769 348.112)" gradientUnits="userSpaceOnUse"><stop offset="0" stop-color="#e21374"/><stop offset="1" stop-color="#fff1c8"/></linearGradient><path fill="url(#e)" d="M42 35.8c.6 1.9 3.2 3.1 5.9 2.6s4.3-2.5 3.8-4.5c-.6-2-3.2-3.1-5.9-2.6s-4.4 2.5-3.8 4.5z" opacity=".18"/><path fill="#FFF" d="M67.3 30.3c-4.2 4.4-4.3 5-5.7 5.8-.8.4-12.5-1.1-12.5-1.1s7.8-.5 12.1-2c4.4-1.4 6.1-2.7 6.1-2.7z"/><linearGradient id="f" x1="5451.946" x2="5455.208" y1="-663.564" y2="-663.564" gradientTransform="scale(-1 1) rotate(13.433 -232.723 -23799.94)" gradientUnits="userSpaceOnUse"><stop offset="0" stop-color="#746046"/><stop offset=".973" stop-color="#9e5429"/></linearGradient><path fill="url(#f)" d="M74.7 22.5c1.4-1.5 3.1 0 3.6 1.2.8 1.8-.4 2.4-1.9 3.7"/><path stroke="#000" stroke-width=".25" d="M56.4 21.7c-3.3-1.4-9.6 3.7-12.3 4.8-2.8 1.1-3.8 1.5-4.5 4-.3 1.1-.6 1.8-.4 2.9.2 1.2 1.3 1.7 1.7 2.7-.6-.6-1.2-1.2-1.7-1.8-.7-.8-.9-1.3-1.3-2.3-.7-1.7-2.8-4.5-1.1-5.8 1.9-1.5 6.9-2 9.4-2.6 3.5-.9 6.5-1.9 10.2-2.2m7.4-1.5c2.9.5 4.3 1.6 6.5 3s5.9 1.4 5.4-1.3c-.4-2.4-1.2-3.3-4.2-2.6-2.3.5-4.7.6-7 1.1"/><path fill="#FDD407" d="M35.8 16.4c.7-.1 1.2-.7 1-1.3-.1-.2-.3-.4-.5-.6-.7.4-1.4.8-2 1.4.3.4.9.6 1.5.5zm-4.1 5.3c.7-.1 1.2-.7 1-1.3-.1-.5-.6-.8-1.2-.8-.3.7-.6 1.4-.6 2 .2.1.5.2.8.1zm2.3 3.4c-.3.1-.6.2-.8.4.8.3 1.7.5 2.5.4v-.1c-.2-.5-1-.9-1.7-.7z"/><path fill="#3C53A3" d="M36.1 27.7c4.1-1.1 7.7-3.3 11.8-4.4 4.4-1.2 8.6-1.5 13-2.6 2.3-.5 4.4-1.1 6.8-1.4 1.5-.1 5.9.3 6.9-.6 1.6-1.5-3-6.1-4-7.1-4.3-4.5-17-4.1-25.4-.6-9.3 4-11.5 11.8-9.2 16.7"/><path fill="#FDD407" d="M44.7 20.3c.2.6-.3 1.2-1 1.3-.7.1-1.5-.2-1.6-.8-.2-.6.3-1.2 1-1.3.7-.1 1.4.3 1.6.8zm4.8-5.8c.2.6-.3 1.2-1 1.3-.7.1-1.5-.2-1.6-.8-.2-.6.3-1.2 1-1.3.7-.2 1.5.2 1.6.8zm3.7 3.7c.2.6-.3 1.2-1 1.3-.7.1-1.5-.2-1.6-.8-.2-.6.3-1.2 1-1.3.6-.2 1.4.2 1.6.8zm10.8.1c.2.6-.3 1.2-1 1.3-.7.1-1.5-.2-1.6-.8-.2-.6.3-1.2 1-1.3.7-.1 1.4.3 1.6.8zm-21.6-1.9c.2.6-.3 1.2-1 1.3-.7.1-1.5-.2-1.6-.8-.2-.6.3-1.2 1-1.3.7-.2 1.4.2 1.6.8zM55 10.6c.2.6-.3 1.2-1 1.3-.7.1-1.5-.2-1.6-.8-.2-.6.3-1.2 1-1.3.7-.2 1.4.2 1.6.8zm16.4 5.8c.2.6-.3 1.2-1 1.3-.7.1-1.5-.2-1.6-.8s.3-1.2 1-1.3c.7-.1 1.4.2 1.6.8zm-11.1-2.9c.2.6-.3 1.2-1 1.3-.7.1-1.5-.2-1.6-.8-.2-.6.3-1.2 1-1.3.7-.1 1.4.3 1.6.8zM37.6 23.9c.7-.1 1.2-.7 1-1.3-.2-.6-.9-.9-1.6-.8-.7.1-1.2.7-1 1.3.1.6.9.9 1.6.8zm28.2-13.6c-.2-.6-.9-.9-1.6-.8-.7.1-1.2.7-1 1.3.2.6.9.9 1.6.8.7-.1 1.2-.7 1-1.3zm-6.9-1.8c.2.5.9.8 1.6.7.4-.1.8-.3.9-.6-.8-.1-1.6-.1-2.5-.1zM48.2 21.7c-.7.1-1.2.7-1 1.3.1.2.2.3.3.5.1 0 .3-.1.4-.1.7-.2 1.3-.3 2-.5v-.4c-.2-.5-1-.9-1.7-.8zm-3.8-10.2c.2.5.9.8 1.6.7.7-.1 1.2-.7 1-1.3 0-.2-.1-.3-.2-.4-.6.2-1.1.4-1.7.6-.2.2-.4.3-.7.4zm-3.8 13.4c-.7.1-1.2.7-1 1.3 0 .1.1.2.1.2.8-.3 1.6-.7 2.4-1-.2-.3-.8-.6-1.5-.5zm15.9-4.7c-.7.1-1.2.7-1 1.3 0 .1.1.2.2.4.8-.1 1.6-.3 2.5-.4v-.4c-.2-.7-.9-1.1-1.7-.9zm18.2-2.8c-.6.2-.9.7-.7 1.2 0 .1.1.3.2.4.1-.1.2-.1.3-.2.4-.3.4-.8.2-1.4zm-4.2-5.6l-.3-.3c-.2.2-.3.5-.2.8.2.6.9.9 1.6.8h.1c-.5-.6-.9-1.1-1.2-1.3z"/><linearGradient id="g" x1="56.519" x2="60.688" y1="30.068" y2="30.068" gradientUnits="userSpaceOnUse"><stop offset="0" stop-color="#746046"/><stop offset=".973" stop-color="#9e5429"/></linearGradient><path fill="url(#g)" stroke="#683213" stroke-width=".25" d="M56.5 31.1c-.1-.8.6-1.6 1.5-1.9 1-.3 1.9.1 2.7.5"/><path stroke="#000" stroke-width=".25" d="M39.5 37.5c-1 .6.2 1.5 1.1 1.5.1.7-1.7 3.4.9 3.1 1-.1 1.2-1.1 1.6-1.6.4-.6 1.1-1.1 1.2-1.8-1.2 0-3.7-2.4-4.3-3.3-.3-.5-.6-1.5-.7-2.1-.2-.9-.8-1.9-1.7-2.5M78 29.4c.7.5 1.5.5 1.8 1.3.4.8 0 1.3-.3 2-.3 1 0 1 .4 1.9.1.3 0 .6.2.9.1.3.6.1.5.7-.1.9-1 .7-.5 1.7.4.8.8 1.2.8 2.1 0 .5-.3.5-.1 1 .1.4.5.6.5 1 .1.5-.1 1.6-.7 1.9-.6-.4-.6-1.1-1.1-1.5-.2.5-.1 1.2-.1 1.7-1.3.4-3.1-3.4-3.7-4.2-.7-.8-1.1-1.7-1.8-2.5-.8-.9-2-1.5-2.8-2.3-1-1 .4-1.3 1.4-2.1.9-.8 1.7-1.5 2.3-2.4.6-.9.5-1.6.9-2.5.2-.5 1.3-2 1.8-2.3l.3.3"/><path fill="#FDD407" d="M37.4 34c-1.6.5-1.1 2.8.6 3.2 2.1.4 2.3-2 .8-2.6-.3.5.1 1-.2 1.6-1.1-.1-1.2-1.1-1.1-1.9M77 26c-1.6.5-1.1 2.8.6 3.2 2.1.4 2.3-2 .8-2.6-.3.5.1 1-.2 1.6-1-.2-1.2-1.2-1.1-2"/><linearGradient id="h" x1="47.055" x2="59.671" y1="80.845" y2="80.845" gradientUnits="userSpaceOnUse"><stop offset="0" stop-color="#746046"/><stop offset=".973" stop-color="#9e5429"/></linearGradient><path fill="url(#h)" d="M59.7 82.7c-2.2 1.1-12.3 1.3-12.6-3.6 3.6-2.1 6.5.9 10.4.1"/><path fill="none" d="M62.3 59.8s-1.3-1.5-2.4-1.6c-1.1-.1-2.1 0-2.1 0s1.3-.7 2.1-.7 2.1-.3 3.1-.4c1-.1 2.1-.4 3.2 0"/><linearGradient id="i" x1="-53.565" x2="-37.537" y1="214.829" y2="214.829" gradientTransform="rotate(17.918 443.691 493.603)" gradientUnits="userSpaceOnUse"><stop offset="0" stop-color="#746046"/><stop offset=".973" stop-color="#9e5429"/></linearGradient><path fill="url(#i)" d="M68.6 71.9s-1.9.2-2.1.4c-.2.2-.7.7-.6 1 .2.3.8 1.1.9 1.5.1.4-.3.7-.6.8-.3.2-3 1.4-3.3 1.5-.3.1-2.4.8-2.9.9-.5.1-.5.1-1.7.5-.7.2-1.3.6-1.3.6s-2.1.8-2.3 1.3c-.2.5-.6 1.2-.1 1.7s.9.7 1.5.8c.7.1 3-.1 3.5-.2.6-.1 3-1.4 3.4-1.6.4-.2 4.5-2.6 4.9-2.9.4-.2 1.6-.9 1.9-1 .3-.1 3-1.6 3.3-1.6.3 0-2.2-3.2-2.4-3.1-.2.1-.7.4-1.1.3-.4-.1-.4-.4-.6-.7-.2-.3-.4 0-.5-.1-.1-.1.1-.1.1-.1z"/><path fill="#D71F29" stroke="#AE1F28" stroke-width=".25" d="M48.4 76.7s4.3 16.2 4.3 17.2-8.5.2-11.8.2c-3.4 0-13.2 1.4-14 .7-.8-.7.1-14.1.6-15.7.6-1.7 1.5-3.5 1.3-3.7-.4-.3 7.7.7 10.1.7 2.3.1 9.5.6 9.5.6z"/><linearGradient id="j" x1="74.919" x2="82.231" y1="94.357" y2="94.357" gradientTransform="matrix(.9879 -.1549 .1291 .8233 -55.818 24.853)" gradientUnits="userSpaceOnUse"><stop offset="0" stop-color="#746046"/><stop offset=".973" stop-color="#9e5429"/></linearGradient><path fill="url(#j)" d="M30.1 82.7c.2 2 2.3 6.5 2.8 8.6.7 2.8-1.1 4.4-1.4 7 5.7 1.9 9.7-5.1 4.5-4.2-.6-2.8-1.9-8.4-1.5-11.4"/><path fill="#F79A40" d="M38.1 77.4l8.3 3.9 1.3-3.9 1.2.5-2.5 5.6-10.3-5.6z"/><linearGradient id="k" x1="39.245" x2="47.941" y1="79.278" y2="79.278" gradientUnits="userSpaceOnUse"><stop offset="0" stop-color="#746046"/><stop offset=".973" stop-color="#9e5429"/></linearGradient><path fill="url(#k)" d="M39.4 77.7c2.8.1 5.8-.6 8.5-.4.3 1-1 4.1-2.2 4-1-.1-2.5-1.4-3.2-1.9-1-.7-2.1-1-3.2-1.6"/><path fill="#D71F29" stroke="#AE1F28" stroke-width=".25" d="M29.1 80.4s.2-1.4 2.6-1.2c2.3.2 3.6 8.8 4.4 10.6.8 1.8 2.1 4.1-.1 4.3-2.2.2-4.4.2-4.8 0-.5-.2-2.6-12.9-2.1-13.7zm19.8-2.5s2.4.1 4.7.4c2.3.3 4.1-.6 4.5-.7.4-.1 5.2-.8 6.3-1.3 1.1-.5 1.8-.9 1.8-.9l3.6 2.2s-9.1 6.8-11.2 6.5c-2.2-.3-8.7-.9-8.7-.9l-1-5.3z"/><path fill="#240D11" stroke="#060606" stroke-width=".25" d="M72.4 66.3c.8.5 1.5 1.1 2.4 1.5 1.4.6 4.8.5 4.8 2s-2.3 2.8-.7 4.3c2.2 2.1 6.3 1.9 5.9 5.4 1.9-1.1.7-3.6.5-5.2-.3-1.7-.4-3.8-.2-5.5.1-.8.9-1.9.5-2.7-.5-.9-2.3-1.5-3.1-2.1-.7-.5-1.6-1.6-1.8-2.4-.3-1.2 1.2-1.9.9-2.9-.5-1.9-3.2-3-5.1-3.9-1.3-.6-2.6-1-4-1.4-1.3-.4-2.8-1.6-2.7.3 0 .8.6 1.6.7 2.4.1 1 0 2 0 3 0 1.4-.3 2.8-.5 4.1-.1.5-.5 1.6-.2 2 .6.6 2 .7 2.6 1.1z" opacity=".52"/><path fill="#240D11" stroke="#060606" stroke-width=".25" d="M80.6 62.6c-.2.5 0 1.3 0 1.9-.1.9-.5 1.7-.6 2.6-.2 1.6.5 3.3-.8 4.8-.7.8-1.3 1-.4 2 .7.7 1.9 1.1 2.8 1.6 1.7 1 2.2 1.8 3 3.2.5 1 1 .7 1.1-.3.3-1.6-.5-3.3-.8-4.8-.3-1.1-.1-2.4 0-3.5.1-1 .2-1.8.6-2.7.4-.8.7-1.3 0-2.1-1-1.4-3.4-1.6-4.9-2.7z"/><path fill="#72A040" stroke="#63873B" stroke-width=".25" d="M77.2 54.9c.5.8-.6 2.4-.7 3.3-.2 1.1-.2 2.2-.4 3.3-.1 1.1-.1 2.2-.3 3.3-.2 1.1-.1 2.4-.5 3.5-1.1-.2-2-1.2-2.8-1.7-1.2-.7-2.5-.5-2.6-1.9-.1-1 .5-2 .5-3 .1-1.1.2-2 .4-3s0-1.9-.2-2.9c-.1-.7-.8-2.1-.3-2.8.9-1.1 2.2.3 3.1.8 1.2.7 2.6.7 3.8 1.3"/><path fill="#816B2A" stroke="#56481C" d="M69.7 77.9l1.2-26.5-1 .4-.7 26.2z"/><path fill="#56481C" stroke="#56481C" d="M69.7 51.2c.1.3.6.4 1 .3.4-.1.7-.5.6-.8-.1-.3-.6-.4-1-.3-.5.2-.7.5-.6.8z"/><path fill="#D71F29" stroke="#AE1F28" stroke-width=".25" d="M81.5 63.1c0-.7-.9-1.3-.7-2.1.1-.9 1.3-1.5 1-2.6-.4-1.4-3-3.6-4.9-3.3-.2 2.2-.3 4.4-1 6.5-.3 1-.4 2.3-.5 3.3-.1.8 0 2.6.5 3.3 1.3-.1 3 .2 3.6 1.3.5 1.1-.7 2.1-.8 3.2 2.4-1.2 1.8-5 1.8-6.8 0-1.2.2-2.3.5-3.4.3-1.2.3-2.4.9-3.5"/><linearGradient id="l" x1="8335.928" x2="8365.265" y1="-9.688" y2="-9.688" gradientTransform="matrix(1.3615 -.0032 .0054 .9999 -11331.253 100.844)" gradientUnits="userSpaceOnUse"><stop offset="0" stop-color="#746046"/><stop offset=".973" stop-color="#9e5429"/></linearGradient><path fill="url(#l)" d="M54.9 52.2s2.6 6.8 2.6 8.8c0 2-.7 5.8-.1 8.4.2.7.9 2.4.7 3.2-.2 1-1.5 2.6-4.9 3.7-3.3 1-8 .9-10 1-2.9 0-16.9-.6-18.7-1.7-1.9-1-3-1-2.5-1.1 2.6-.3-1-2.2-.8-3.4.2-1.2-3.1-1.3-3.1-1.3 1.3 0 10.5-8.6 15.2-10.5 4.7-1.9 9.3-7.6 13-7.8 3.7 0 8.6.7 8.6.7z"/><linearGradient id="m" x1="9443.277" x2="9452.229" y1="-1.028" y2="-1.028" gradientTransform="matrix(1.197 -.0028 .0054 .9999 -11271.259 100.666)" gradientUnits="userSpaceOnUse"><stop offset="0" stop-color="#ec1475"/><stop offset="1" stop-color="#fff5cb"/></linearGradient><path fill="url(#m)" d="M32.3 73.2c0 2.4 2.4 4.3 5.4 4.3 3 0 5.4-2 5.4-4.4 0-2.4-2.4-4.3-5.4-4.3-3 .1-5.4 2-5.4 4.4z" opacity=".13"/><linearGradient id="n" x1="8067.599" x2="8074.595" y1="5155.019" y2="5155.019" gradientTransform="matrix(.9874 -.5638 .6767 .8258 -11404.161 365.16)" gradientUnits="userSpaceOnUse"><stop offset="0" stop-color="#ec1475"/><stop offset="1" stop-color="#fff5cb"/></linearGradient><path fill="url(#n)" d="M57 69.6c1.2 1.6.7 3.7-1.2 4.9-1.9 1.1-4.4.8-5.6-.8-1.2-1.6-.7-3.7 1.2-4.9 1.9-1 4.4-.7 5.6.8z" opacity=".13"/><linearGradient id="o" x1="47.162" x2="48.999" y1="69.491" y2="69.491" gradientUnits="userSpaceOnUse"><stop offset="0" stop-color="#746046"/><stop offset=".973" stop-color="#9e5429"/></linearGradient><path fill="url(#o)" stroke="#683213" stroke-width=".25" d="M47.7 71.7s1.7-.5 1.2-2.2c-.5-1.7-1.8-2.2-1.8-2.2"/><path fill="#050506" d="M40.3 67.1c.1.5-.2.9-.7 1-.4.1-.9-.3-.9-.8-.1-.5.2-.9.7-1 .4 0 .8.3.9.8zm11.6-1.4c.1.5-.2.9-.7 1-.4.1-.9-.3-.9-.8-.1-.5.2-.9.7-1 .4-.1.9.3.9.8z"/><path fill="#050606" stroke="#050606" stroke-width=".25" d="M57.6 63.1s-.5-4.2-2.5-4.7-6.1 0-7.6-.4c-1.6-.4-5.5-3.6-5.5-3.6l-.2 4.4s-2.5.7-4.9 1.6c-2.4.8-5.1.7-5.9 2.2-.7 1.5-2 7.9-2.2 8.8-.2.8-2.2 1.1-2.6.5-.4-.5-1.9-.6-1.8-1.8.1-1.2 1.4-3-.7-3.5-2.1-.5-3.1.6-2.8 2.6.3 2 1.8 2.5 2.4 3.4.6.9 2.1 1.2 1.6 2.1-.5.9.7.8-.5.9-1.1.2-1.2.3-2.5-.5s-.3 1.9-2.7-2.3c-2.4-4.2-1.9-5.2-1.2-8.2.7-3 1.7-5.6 3.2-7.8 1.5-2.2 9.7-9.4 11.6-9.7 1.9-.2-1.1-.1 5.7-1 6.6-.9 6.9-.2 12.9 2 3.2 1.2 4.9 3 5.4 6.6.7 3.7.8 8.4.8 8.4z"/><path fill="#FFF" d="M54.6 72.8c-4.3 2.5-4.5 3-5.8 3.3-.7.2-9.6-3.6-9.6-3.6s6.2 1.3 10 1.1c3.7-.2 5.4-.8 5.4-.8z"/><path fill="#050606" stroke="#050606" stroke-width=".25" d="M35.1 45.7c4.8-.7 9.5-3.7 14.3-2.7.3-.4.5-.8.8-1.2 2.3.2 4.2 2.4 4 4.7 1.4.5 2.7 1.4 3.8 2.5-1.9 1.3-.9 4.1.2 6.1s1.9 4.9-.1 6c0-1-.3-2.1-.7-3l-1.6 1.6c-.1-1.6-2.1-2.7-3.5-1.9-.8.4-1.8 1.4-2.5.8-.5-.5-.3-1.5-1-1.8-.6-.3-1.3.5-2 .7-1 .2-1.7-.8-2.4-1.6s-2.1-1.2-2.5-.3c.4.8-.2 1.8-1 2.1-.8.3-1.7.1-2.6-.1.2 1 .4 2 .2 2.9-.2 1-1.1 1.8-2.1 1.8-.9-.1-1.6-.8-2.5-.9-1.7-.1-2.3 2.3-2.2 4.1-.6-1-2.1.4-2 1.6s.4 2.7-.7 3.2-2.1-.8-2.8-1.7c-1-1.2-2.4-2.2-4-2.2s-3.2 1-3.5 2.6c-.3 1.5 1.2 3.2 2.7 2.9 0 .7 0 1.4.1 2.1-2.1.8-3.8-1.8-4.5-3.9-1.1-3.2-2.2-6.9-.7-9.9.5-1.1 1.4-2.1 2.2-3l4.5-5.1c2.1-2.3 4.3-4.7 7.3-5.6 1.7-.6 3.3-.6 4.8-.8z"/><path fill="#F3F1F0" stroke="#E1E1E1" d="M203 95.9c0 3.5-38 5.5-89.5 4.9C42.7 100 21 99.4 21 95.9c0-3.5 37.2-5.1 88.7-5.1s93.3 1.7 93.3 5.1z"/><g fill="#F3F1F0" stroke="#E1E1E1"><path d="M21.5 96.6c-.2-.4-.5-.7-.5-.7s0 .3.5.7z"/><path d="M216.2 119.4c-3.1-10.2-13.2-23.5-13.2-23.5s-4.6 1.9-6.8 2.3c-2.2.4-11.8 1.2-18.5 1.6-6.7.4-25 .9-32.1 1-7.1.1-19.3-.9-37.7-.1-18.3.9-41.7-.6-48.8-.8-7.1-.2-22.5-.8-30.1-1.5-4.8-.4-6.7-1.3-7.5-1.9.4.6.6 1.7-.5 3.1-1.8 2.3-3.1 5.6-3.4 8.8-.3 2.7-3.3 10.5-6.1 17.1v2.4h207.3c-.9-3-1.8-5.9-2.6-8.5z"/></g><path fill="#FFF" stroke="#FFF" d="M113.5 99.7c-68.2-.7-90.9-1.2-92.5-4-.1.1-.1.2-.1.3 0 3.5 21.8 4.1 92.5 4.9 51.5.6 89.5-1.4 89.5-4.9 0-.1 0-.2-.1-.3-2.3 2.8-39.4 4.5-89.3 4zm-31.6 6.5c-12.3-6-9.1-3-11.1-3s-2 1.2-2 1.2 10.2 0 12.7 5.8c.9 2.1.2 9.3-1.2 17.9H86c2-8.5 2.6-18.6-4.1-21.9zm-45.2 4.6s-1.5 2.8-2 4.7c-.4 1.5-.5 6.9-.2 12.6h2.3v-.9c0-7.2 4.6-14.2 4.6-14.2l-4.7-2.2zm-15.8-5.1c-3.4 2.8-3.6 14.4-3.6 17.7 0 .8 0 2.5-.1 4.7h3.4c-.7-5.1-2-9.9.2-12.1 2.5-2.6 2-4.2 3.6-5.1l1.5-.9 4.6-4.2c.1-.1-6.1-2.9-9.6-.1z"/><path fill="#D2D2D2" stroke="#D2D2D2" d="M4.5 126.3l-.3 2.2h.7z" opacity=".37"/><path fill="#DCDCDA" stroke="#DCDCDA" d="M32.1 110.8c-3.5-2.2-11.2 2.1-11.2 2.1l-.3 15.1h14.5c-.4-8.3-1.3-16.2-3-17.2zm163.3-6.3h-3s.3 11 .6 23.6h3.1c-.4-12.7-.7-23.6-.7-23.6zm-37.4 4.2c-4.5 5.6-3 12.2-2.8 19.3h2.8c0-3.2.5-6.1 2.3-9.8 2.5-5.1 5.6-8.1 6.6-9.5 1-1.4-4.1-6-8.9 0z"/><path fill="#DCDCDA" stroke="#DCDCDA" d="M32.6 111.5c-1.8-1-1.2-2.9-.9-4.2.4-2.3 1.1-3.2-1.8-5.3 8.8-2.8 4.1 11 4.2 12.1-1.2-1.1-1.9-2.4-2.5-3.6"/><path fill="#72A040" stroke="#63873B" stroke-width=".25" d="M95.4 89.7c-10.1 1.3-21.1 1.1-21.9 1.5l7.8 8.9V128h75.3l.5-28.5-17.5-8.5s-34.1-2.5-44.2-1.3z"/><linearGradient id="p" x1="6315.787" x2="6320.376" y1="2908.597" y2="2908.597" gradientTransform="matrix(-.9676 .2528 -.2528 -.9675 6996.076 1260.116)" gradientUnits="userSpaceOnUse"><stop offset="0" stop-color="#746046"/><stop offset="1" stop-color="#9f552b"/></linearGradient><path fill="url(#p)" d="M149.4 45.4c.4-.9 1-6.3-3.5-4.4-2.5 1.1.4 6.2 3.9 4.1"/><path fill="#72A040" stroke="#63873B" stroke-width=".25" d="M197.1 52.3c-1.5-.8-3-1.8-4.7-2.4-1.6-.6-3-.7-4.6-1.3-2.4-1-6.7-1-9.3-.3-5.2 1.5-10.2 3.7-15.7 4.5-4.6.6-9.5 0-11.5 4.2-.6 1.3-.3 2.8-.8 4-.2.5-.9.9-1.2 1.4-.5.7 0 1.6-1.6 1.5 0 1.1 1 2.4 1.1 3.6.1 1.4-.2 2.5-1.4 3.5-1.3 1.1-2.8 1.5-4.6 1.8-1.5.3-4.4.3-3 2.1 1.7 2.3 6.5 1.9 9.2 1.8 4.2-.2 6.2-1.7 9.2-3.9.1-.1.6 3.4.5 3.8-.2 1.4-.7 2.9-.9 4.3-.6 2.9-1.2 5.8-1.8 8.8-.1.7-.4 1.5-.6 2.2H173c.2-1 .5.8.8 0 .6.9.6-.9.4 0l21 1.4c-.1-1-.3-3.3-.4-3.9-.3-2.1-1.6-3.9-2.1-5.9-.2-.9-.2-1.9-.4-2.9-.3-1.3-1.3-2.2-2.1-3.3-1.5-1.9-1.3-3.7-1.7-5.8-.2-1-.9-1.9-1-3-.1-.9.4-1.8.1-2.7-.2-.6-.8-1.2-1.1-1.8-.6-1.3-1.4-3.2-.5-4.5 1.7.2 4 2.2 5.4 3.1-.5.3-1 .6-1.5 1 3.7.4 5.2 3.5 5.8 6 .8 3.7 6-1.8 7.6-3.1 1.3-1.1 2.5-1.9 2.4-3.4 0-1.2-.8-2.6-1.4-3.7-1.3-2.8-4.3-5.5-7.2-7.1z"/><path fill="#7CB759" stroke="#63873B" stroke-width=".25" d="M159.3 53c.5-1.1 5.3-2.1 6.7-2.5 2.2-.6 5.3-1.2 7.6-.7 6 1.4 5.3 8.2 3.6 11.7-.9 1.9-.3 4.3-2.7 5.5-2.8 1.4-5.4-.4-7.3-1.8-2.2-1.6-3.2-3.8-5.1-5.7-1.6-1.6-4.9-4.2-3.1-6.4"/><path fill="#536A30" stroke="#536A30" stroke-width=".25" d="M165.7 54.2c-.2.8-.2 1.7-.2 2.4.1 1.3.6 1.3 1 2.3.5 1.4.3.8.2 2.5-.1 1-.2 1.7 0 2.7.3 1.4 3.4 3 4.6 3.5 1.2.5 2.9-.3 3.5-1.5.4-.8-.1-3.7-.3-4.6-.3-1.1-1-1.2-1.4-2.2-.7-1.4-.3-1.1-.2-2.4.1-1.3.5-1.3-.1-2.4-.2-.5-1.7-1.7-2.2-1.9-1.4-.5-3 .5-4.7.8"/><linearGradient id="q" x1="160.935" x2="171.327" y1="50.34" y2="50.34" gradientUnits="userSpaceOnUse"><stop offset="0" stop-color="#746046"/><stop offset="1" stop-color="#9f552b"/></linearGradient><path fill="url(#q)" d="M169.7 46.9c.8.4 1.8 2.6 1.7 3.4-.2 1.2-2 2.9-3.3 3.2-1.3.4-3.4.3-4.7-.1-2.2-.7-1.9-1.9-2.4-3.5 1.3-.1 2.6-.2 3.9-.6 1.8-.5 3.1-1.6 4.8-2.1"/><path fill="#72A040" stroke="#63873B" stroke-width=".25" d="M150.2 60.9c-1.3.2-2.1 1.6-1.5 2.5-.4 0-.8.2-1.1.2.1 1.5.5 2.5.1 4-.2 1 .1 2.8-.4 3.8-1.3 2.3-8 0-8.4 2.3-.4 2.2 7.1 3 8.8 3.1 1.8.1 3.2.3 4.8-.4 1.7-.7 3-2.4 4.6-3"/><path fill="#7CB759" stroke="#63873B" stroke-width=".25" d="M140.6 73c-.2-.5-.4-1-.7-1.4 1.2-1.1 3.8-1.2 5.4-2.1 2-1.2 2.6-2.5 2.9-4.5 1.5 1.4 1.3 4.7-.1 6-1.6 1.4-5.3 1.9-7.6 1.8"/><linearGradient id="r" x1="133.485" x2="147.432" y1="65.621" y2="65.621" gradientUnits="userSpaceOnUse"><stop offset="0" stop-color="#746046"/><stop offset="1" stop-color="#9f552b"/></linearGradient><path fill="url(#r)" d="M134.4 70.7c-2.8-4.4.8-11.5 8-9.3.6-.7.3-1.5 1.8-1.6 1.6-.1 1.4 1.1 1.4 2.1.1 2.1 2.5 3.2 1.6 5.3-.8 1.8-3.5 3.1-5.7 3.8-2.6.9-4.5.1-6.9 0"/><path fill="#63873B" stroke="#63873B" stroke-width=".25" d="M192.4 61.1c1.5 0 3.9-.5 4.8.9m-.1-2.8c-1.6-.1-2.9.2-3.3 1.6"/><linearGradient id="s" x1="557.883" x2="593.213" y1="-55.978" y2="-55.978" gradientTransform="matrix(-.9469 .273 .2587 .9625 722.683 -64.255)" gradientUnits="userSpaceOnUse"><stop offset="0" stop-color="#746046"/><stop offset="1" stop-color="#9f552b"/></linearGradient><path fill="url(#s)" d="M144.3 30.3s.2 6.8.9 8.7c.4 1.1 2.7 2.6 3.4 4.2.5 1.2-.7 2.5-.5 3.6.1.7 3 4.5 3 4.5s7.3 2.9 10.4 2.5c3.2-.4 4.7-1.6 6.3-2 2.3-.5 1.4-2 6.4-4.5 1.7-.8 3.9-2.6 4.3-2.6.4 0 4.3-1.1 3.7-2.2-.6-1.1-1.6-2.6-2.6-2.4-1 .2-11.6-6.3-15.9-7.2-4.4-.9-9.8-5.4-12.8-4.9-3 .7-6.6 2.3-6.6 2.3z"/><path fill="#060708" d="M151.4 40.9c.1.5.5.9 1 .8.5 0 .8-.5.6-1-.1-.5-.5-.9-1-.8-.4.1-.7.5-.6 1zm10-.6c.1.5.5.9 1 .8.4 0 .7-.5.6-1-.1-.5-.5-.9-1-.8-.4.1-.7.5-.6 1z"/><path fill="none" stroke="#060708" stroke-width=".25" d="M156.1 45.9c-.2-.2-.5-1-.7-1.5-.2-.5.4-.9 1.1-1.3.7-.4 2.4.4 2.4.4"/><path fill="#FFF" d="M152.6 49.2s1.3.2 5-.2 4.8-.5 4.8-.5l-4.5 1.8-5.3-1.1z"/><linearGradient id="t" x1="845.449" x2="849.441" y1="-264.058" y2="-264.058" gradientTransform="rotate(-20.12 1374.922 1773.115)" gradientUnits="userSpaceOnUse"><stop offset="0" stop-color="#746046"/><stop offset=".973" stop-color="#9f552b"/><stop offset="1"/></linearGradient><path fill="url(#t)" d="M177 40.2c.5-2.2 8.6 3 .6 4"/><path fill="none" stroke="#000" d="M153.2 38.3c-1.1-1.1-2.5-.9-4.1-.1m15.1-.1c-1.1-1.1-2.5-.9-4.1-.1"/><path stroke="#000" d="M148.1 46.8l3 4.5s6.1 1.9 8.9 2.4c1.7.3 7.8-1.9 7.8-1.9l2.6-2.7 5.1-2.4 1.4-3-.3-4.3-3.2-1.8-.8 4.4s.8.5-5.7 2.8-6.6 2-10.3 2.2c-3.7 0-8.5-.2-8.5-.2z" opacity=".11"/><path stroke="#000" d="M144.8 30.3c-.8.5-1.2 1.2-.9 2 1.4.4 1.7-.3 2.7-.5.1-.4.3-.8.7-1.2 1.6 0 .5.8 1.3 1.2.9.5.3 1.4 2.4 1 1.4-.2 1.6-1.9 3.3-1.8 2.4.1.5 1 1.7 1.7 1.3.7 1.9.1 3.3 0 4-.5 3.3-.2 3.2 2.7 1.3.4 2.8-.2 4 .2.7.2.3 1 1.1 1.2.9.2 1.9.3 2.8.3 0 .4.4.9.2 1.4.9.6 2 .4 3.2.5-.2.4.1 1.2-.1 1.7.5 0 1.3.4 1.9.4.1.8.3 1.2 1.4 1.1.4-.2.7-.6.9-1 .1 0 1.9-.4 1.9-.4 1.4-.8 5.2-3.2 1.2-3.8 2.1-1.5 3.1-5.8-1.4-5.1 4.3-.7-1.4-6-7.4-5.1-2-3.2-1.3-4.7-3.3-1.6 1.4-.7 1.5-4.6.6-5.4-1.6-1.4-2.4-1.3-4.8-1.2-1.1.1-1.5.3-2.6.3-1-.1-1.7-.7-2.9-.7-1.6 0-4.8 1.1-3.3 2.3.4-2.4-10.5-1.6-8.4 1.2 2.3-.8-.5-2.3-2.4-1.3-1.4.7-1.5 3.3-1 4.5-.9.8.4 1.1 1.3 2-1.5 1.3-2.7.2-2.1 2.6.4 1.7-.7 2 .9 2.5"/><path stroke="#000" d="M144.3 32.4c-.8-2.5-6.6-.4-5.7 1.9.4 1.1 2 1.2 2.5 2.3.5 1.1-1.5 2.3 1.2 2.9-1.5 2.2 1.2 2.8 3.5 2.8.6-.9.9-2.1.9-3.1-.4-.1-.7-.1-1-.2.5-1.7 1.6-6.3-1.2-6.9"/><linearGradient id="u" x1="134.764" x2="140.013" y1="60.117" y2="60.117" gradientUnits="userSpaceOnUse"><stop offset="0" stop-color="#746046"/><stop offset="1" stop-color="#9f552b"/></linearGradient><path fill="url(#u)" stroke="#4D3516" stroke-width=".25" d="M136.5 57.3c-3.4-.1-1.1 5 1.1 5.5 4.1 1 2.2-4.3-.3-5.1"/><linearGradient id="v" x1="131.179" x2="137.568" y1="61.94" y2="61.94" gradientUnits="userSpaceOnUse"><stop offset="0" stop-color="#746046"/><stop offset="1" stop-color="#9f552b"/></linearGradient><path fill="url(#v)" stroke="#4D3516" stroke-width=".25" d="M135.1 59.9c-1.2-1.1-3.3-.9-3.8.5-.4 1.2.4 2.7 1.6 3.4 1.2.8 3.2 1.2 4.3.1 1.5-1.6-1.2-2.7-2.2-3.7"/><linearGradient id="w" x1="130.473" x2="135.791" y1="65.887" y2="65.887" gradientUnits="userSpaceOnUse"><stop offset="0" stop-color="#746046"/><stop offset="1" stop-color="#9f552b"/></linearGradient><path fill="url(#w)" stroke="#4D3516" stroke-width=".25" d="M133.3 63.9c-3.6-2.6-3.5 2.6-1.4 4.1 3.5 2.4 5.6-2.8 2-3.9"/><linearGradient id="x" x1="130.911" x2="137.576" y1="69.765" y2="69.765" gradientUnits="userSpaceOnUse"><stop offset="0" stop-color="#746046"/><stop offset="1" stop-color="#9f552b"/></linearGradient><path fill="url(#x)" stroke="#4D3516" stroke-width=".25" d="M135.5 68.3c1.2.4 2.8 2.3 1.6 3.2-.6.5-3.7.1-4.5-.2-1.1-.4-2.2-2.1-1.6-3 .7-1.1 2.7.2 4.1.1"/><path fill="#020202" stroke="#020202" stroke-width=".25" d="M172.1 58.2c-.4.3-.5.7-1 1 .7 0 .8-.3 1.2-.6m-5.4 1.1c.7-.1 1.4-.1 2.2 0-.8.7-1.6.7-2.2-.1" opacity=".33"/><path fill="#7CB759" stroke="#63873B" stroke-width=".25" d="M152.1 55.6c5.2 0 8.3 14 6.6 17.3-.9 1.8-5.6 4.5-9.1 4.6-4.1 0-12.1.1-10.2-4.4 3.5-1 8.7-.4 9.6-4.1.5-1.9-2.5-3.4-2.2-4.6.4-1.7 1.9-.3 2.8-.7-2.6-1-.5-2.3.6-3-.6-1.3.1-2.9 1.1-4.1"/><path fill="#63873B" stroke="#63873B" stroke-width=".25" d="M149.6 61.4c1.1-.5 2.2-.7 3.5-.7m-5.2 2.9c1.7-.2 4 1.1 4.5 2.4"/><path fill="#7CB759" stroke="#63873B" stroke-width=".25" d="M184 48.3c-.5 4 0 8.7 3.7 11.8 2.8 2.3 4.6 3.3 6.6 6.2 1.7 2.4.5 6.4 3.9 4.5 1-.6 6.7-5.1 7.2-6.2 1.3-2.8-.1-6.3-2.5-8.6-2.5-2.4-5.6-4.7-8.9-6.1-2.7-1.1-4.9-.9-9.2-2.3M169.1 53l3.8 3.3 2.3-5.8s-2.6-.8-3.3-.8c-.7 0-1.5 1.3-1.5 1.3l-1.3 2zm-11.2.8l7.9-.1v4z"/><path fill="#D71F29" stroke="#AE1F28" stroke-width=".25" d="M88.8 60.5h3.8v15.6h-3.8z"/><path fill="#D71F29" stroke="#AE1F28" stroke-width=".25" d="M88.3 63.3h5v2.2h-5z"/><path fill="#47484A" stroke="#47484A" stroke-width=".25" d="M90.4 60.5v-1.3s.2-.7-.3-1.1c-.6-.4-.5-.6-.8-.8-.3-.2 0-.3 0-.5s.5-.4.5-.4.2.5.6.9c.4.4.6.6.8 1 .2.4-.3 1.5-.3 1.7 0 .3-.2.4-.2.4h-.3z"/><linearGradient id="y" x1="-110.875" x2="-106.274" y1="16.717" y2="16.717" gradientTransform="matrix(.9371 0 .0002 .9371 191.494 40.867)" gradientUnits="userSpaceOnUse"><stop offset="0" stop-color="#f69220"/><stop offset="1" stop-color="#fbed1f"/></linearGradient><path fill="url(#y)" d="M90 59.3c-2.3-.7-2.8-1.9-2-3 .2-.2.4-.5.6-.7.2-.2.2-.5.3-.7.1-.2.3-.5.6-.7.1-.1.4-.7.7-.7.6.5.5 1.1.9 1.7.2.3.6.5.8.8.1.3.1.7.1 1 .1.6 0 1.3-.1 1.9 0 .2.1.6-.5.7-.6.1-1.5-.2-1.9-.4"/><path fill="#485DA9" d="M89.9 58.8c-.2 0-1-.1-.7.1.2.2 1 0 .4-.1"/><path fill="#D71F29" stroke="#AE1F28" stroke-width=".25" d="M98 58.1h3.8v15.6H98z"/><path fill="#D71F29" stroke="#AE1F28" stroke-width=".25" d="M97.6 60.8h5V63h-5z"/><path fill="#47484A" stroke="#47484A" stroke-width=".25" d="M99.7 58.1v-1.3s.2-.7-.3-1.1c-.6-.4-.5-.6-.8-.8-.3-.2 0-.3 0-.5s.5-.4.5-.4.2.5.6.9c.4.4.6.6.8 1 .2.4-.3 1.5-.3 1.7 0 .3-.2.4-.2.4h-.3z"/><linearGradient id="z" x1="-100.988" x2="-96.386" y1="14.079" y2="14.079" gradientTransform="matrix(.9371 0 .0002 .9371 191.494 40.867)" gradientUnits="userSpaceOnUse"><stop offset="0" stop-color="#f69220"/><stop offset="1" stop-color="#fbed1f"/></linearGradient><path fill="url(#z)" d="M99.2 56.9c-2.3-.7-2.8-1.9-2-3 .2-.2.4-.5.6-.7.2-.2.2-.5.3-.7.1-.2.3-.5.6-.7.1-.1.4-.7.7-.7.6.5.5 1.1.9 1.7.2.3.6.5.8.8.1.3.1.7.1 1 .1.6 0 1.3-.1 1.9 0 .2.1.6-.5.7-.6.1-1.5-.2-1.9-.4"/><path fill="#485DA9" d="M99.2 56.4c-.2 0-1-.1-.7.1.2.2 1 0 .4-.1"/><path fill="#D71F29" stroke="#AE1F28" stroke-width=".25" d="M106.3 56.8h3.8v15.6h-3.8z"/><path fill="#D71F29" stroke="#AE1F28" stroke-width=".25" d="M105.8 59.5h5v2.2h-5z"/><path fill="#47484A" stroke="#47484A" stroke-width=".25" d="M107.9 56.8v-1.3s.2-.7-.3-1.1c-.6-.4-.5-.6-.8-.8-.3-.2 0-.3 0-.5s.5-.4.5-.4.2.5.6.9c.4.4.6.6.8 1 .2.4-.3 1.5-.3 1.7 0 .3-.2.4-.2.4h-.3z"/><linearGradient id="A" x1="-92.157" x2="-87.556" y1="12.678" y2="12.678" gradientTransform="matrix(.9371 0 .0002 .9371 191.494 40.867)" gradientUnits="userSpaceOnUse"><stop offset="0" stop-color="#f69220"/><stop offset="1" stop-color="#fbed1f"/></linearGradient><path fill="url(#A)" d="M107.5 55.6c-2.3-.7-2.8-1.9-2-3 .2-.2.4-.5.6-.7.2-.2.2-.5.3-.7.1-.3.3-.5.6-.7.1-.1.4-.7.7-.7.6.5.5 1.1.9 1.7.2.3.6.5.8.8.1.3.1.7.1 1 .1.6 0 1.3-.1 1.9 0 .2.1.6-.5.7-.6.1-1.5-.2-1.9-.4"/><path fill="#485DA9" d="M107.5 55c-.2 0-1-.1-.7.1.2.2 1 0 .4-.1"/><path fill="#72A040" stroke="#63873B" stroke-width=".25" d="M125.2 56.8h3.8v15.6h-3.8z"/><path fill="#72A040" stroke="#63873B" stroke-width=".25" d="M124.7 59.5h5v2.2h-5z"/><path fill="#47484A" stroke="#47484A" stroke-width=".25" d="M126.8 56.8v-1.3s.2-.7-.3-1.1c-.6-.4-.5-.6-.8-.8-.3-.2 0-.3 0-.5s.5-.4.5-.4.2.5.6.9c.4.4.6.6.8 1 .2.4-.3 1.5-.3 1.7 0 .3-.2.4-.2.4h-.3z"/><linearGradient id="B" x1="-72.017" x2="-67.415" y1="12.678" y2="12.678" gradientTransform="matrix(.9371 0 .0002 .9371 191.494 40.867)" gradientUnits="userSpaceOnUse"><stop offset="0" stop-color="#f69220"/><stop offset="1" stop-color="#fbed1f"/></linearGradient><path fill="url(#B)" d="M126.4 55.6c-2.3-.7-2.8-1.9-2-3 .2-.2.4-.5.6-.7.2-.2.2-.5.3-.7.1-.3.3-.5.6-.7.1-.1.4-.7.7-.7.6.5.5 1.1.9 1.7.2.3.6.5.8.8.1.3.1.7.1 1 .1.6 0 1.3-.1 1.9 0 .2.1.6-.5.7-.6.1-1.5-.2-1.9-.4"/><path fill="#485DA9" d="M126.3 55c-.2 0-1-.1-.7.1.2.2 1 0 .4-.1"/><path fill="#72A040" stroke="#63873B" stroke-width=".25" d="M133.6 58.1h3.8v15.6h-3.8z"/><path fill="#72A040" stroke="#63873B" stroke-width=".25" d="M133.1 60.8h5V63h-5z"/><path fill="#47484A" stroke="#47484A" stroke-width=".25" d="M135.3 58.1v-1.3s.2-.7-.3-1.1c-.6-.4-.5-.6-.8-.8-.3-.2 0-.3 0-.5s.5-.4.5-.4.2.5.6.9c.4.4.6.6.8 1 .2.4-.3 1.5-.3 1.7 0 .3-.2.4-.2.4h-.3z"/><linearGradient id="C" x1="-63.02" x2="-58.418" y1="14.079" y2="14.079" gradientTransform="matrix(.9371 0 .0002 .9371 191.494 40.867)" gradientUnits="userSpaceOnUse"><stop offset="0" stop-color="#f69220"/><stop offset="1" stop-color="#fbed1f"/></linearGradient><path fill="url(#C)" d="M134.8 56.9c-2.3-.7-2.8-1.9-2-3 .2-.2.4-.5.6-.7.2-.2.2-.5.3-.7.1-.2.3-.5.6-.7.1-.1.4-.7.7-.7.6.5.5 1.1.9 1.7.2.3.6.5.8.8.1.3.1.7.1 1 .1.6 0 1.3-.1 1.9 0 .2.1.6-.5.7-.6.1-1.5-.2-1.9-.4"/><path fill="#485DA9" d="M134.8 56.4c-.2 0-1-.1-.7.1.2.2 1 0 .4-.1"/><path fill="#72A040" stroke="#63873B" stroke-width=".25" d="M142.7 60.5h3.8v15.6h-3.8z"/><path fill="#72A040" stroke="#63873B" stroke-width=".25" d="M142.2 63.3h5v2.2h-5z"/><path fill="#47484A" stroke="#47484A" stroke-width=".25" d="M144.4 60.5v-1.3s.2-.7-.3-1.1c-.6-.4-.5-.6-.8-.8-.3-.2 0-.3 0-.5s.5-.4.5-.4.2.5.6.9c.4.4.6.6.8 1 .2.4-.3 1.5-.3 1.7 0 .3-.2.4-.2.4h-.3z"/><linearGradient id="D" x1="-53.299" x2="-48.698" y1="16.717" y2="16.717" gradientTransform="matrix(.9371 0 .0002 .9371 191.494 40.867)" gradientUnits="userSpaceOnUse"><stop offset="0" stop-color="#f69220"/><stop offset="1" stop-color="#fbed1f"/></linearGradient><path fill="url(#D)" d="M143.9 59.3c-2.3-.7-2.8-1.9-2-3 .2-.2.4-.5.6-.7.2-.2.2-.5.3-.7.1-.2.3-.5.6-.7.1-.1.4-.7.7-.7.6.5.5 1.1.9 1.7.2.3.6.5.8.8.1.3.1.7.1 1 .1.6 0 1.3-.1 1.9 0 .2.1.6-.5.7-.6.1-1.5-.2-1.9-.4"/><path fill="#485DA9" d="M143.9 58.8c-.2 0-1-.1-.7.1.2.2 1 0 .4-.1"/><path fill="#240D11" stroke="#060606" stroke-width=".25" d="M115.8 55.3h3.8v15.6h-3.8z"/><path fill="#240D11" stroke="#060606" stroke-width=".25" d="M115.3 58h5v2.2h-5z"/><path fill="#47484A" stroke="#47484A" stroke-width=".25" d="M117.4 55.3V54s.2-.7-.3-1.1c-.6-.4-.5-.6-.8-.8-.3-.2 0-.3 0-.5s.5-.4.5-.4.2.5.6.9c.4.4.6.6.8 1 .2.4-.3 1.5-.3 1.7 0 .3-.2.4-.2.4h-.3z"/><linearGradient id="E" x1="-82.055" x2="-77.453" y1="11.112" y2="11.112" gradientTransform="matrix(.9371 0 .0002 .9371 191.494 40.867)" gradientUnits="userSpaceOnUse"><stop offset="0" stop-color="#f69220"/><stop offset="1" stop-color="#fbed1f"/></linearGradient><path fill="url(#E)" d="M117 54.1c-2.3-.7-2.8-1.9-2-3 .2-.3.4-.5.6-.7.2-.2.2-.5.3-.7.1-.3.3-.5.6-.7.1-.1.4-.7.7-.7.6.5.5 1.1.9 1.7.2.3.6.5.8.8.1.3.1.7.1 1 .1.6 0 1.3-.1 1.9 0 .2.1.6-.5.7-.6.1-1.5-.2-1.9-.4"/><path fill="#485DA9" d="M116.9 53.6c-.2 0-1-.1-.7.1.2.2 1 0 .4-.1"/><path fill="#240D11" stroke="#060606" stroke-width=".25" d="M73.5 91.2s17.3-1.4 21.9-1.5c4.6-.1 12 9.8 12 9.8V128h-27v-28l-6.9-8.8z"/><path fill="#D71F29" stroke="#AE1F28" stroke-width=".25" d="M134.3 128.1h-26.8V99.6c2.3 3.4-8.9-9.8-8.7-9.8-2 .1 23.5.4 23.5.4l13 9.6-1 28.3z"/><g fill="#816B2A" stroke="#56481C"><path d="M87.2 76.5v-1.7h7.5v1.7h1.7v-2.6h7.3v2.6h1.4v-4h7.2v4h1.8v-5.1h7.2v4.8h2.5v-3.7h7V77l1-.1v-3h7.4v3.2h1.7v-2.3h6.9v2"/><path d="M85.4 76.8h65.5s-18 6.1-20.7 6.4c-2.7.3 3.7 1.1 6.8 3.6 3.5 2.8 4.3 4.8 4.3 4.8l-8.7.9s-9.8-5.2-14.6-5c-9.1.4-17.6-3.3-17.6-3.3l-15-7.4z"/><path d="M101.6 83.3s-3.1.7-6.8 2.8c-3.7 2.1-5 5.4-5 5.4l8.7.9s9.8-5.6 14.6-5"/></g><ellipse cx="61.6" cy="88.8" fill="#4F2610" stroke="#4F2610" stroke-width=".25" rx="25.1" ry="3.1"/><path fill="none" stroke="#060708" stroke-width=".25" d="M52.6 85.6l.7.6"/><path fill="#816B2A" stroke="#816B2A" d="M61.3 85.6c-13.9 0-25.1 1.4-25.1 3.1s11.2 3.1 25.1 3.1c13.9 0 25.1-1.4 25.1-3.1s-11.3-3.1-25.1-3.1zm.1 5.5c-12.7 0-22.9-1.1-22.9-2.5s10.3-2.5 22.9-2.5c12.7 0 22.9 1.1 22.9 2.5 0 1.3-10.3 2.5-22.9 2.5z"/><path fill="#725E26" stroke="#725E26" d="M36.5 88.9s4 6.2 6.2 7.6c2.2 1.3 35.4 1.9 38.5-.2 1.9-1.3 5.5-7.4 5.5-7.4S76.1 92.4 60.9 92s-20.6-1.2-21.5-1.8c-.9-.5-2.9-1.3-2.9-1.3z"/><path fill="#816B2A" stroke="#816B2A" d="M61.7 91.4c-12.5 0-22.7-1.1-22.9-2.5h-2.3v.1c0 1.7 11.2 3.1 25.1 3.1 13.9 0 25.1-1.4 25.1-3.1v-.1h-2c-.3 1.4-10.5 2.5-23 2.5z"/><path fill="#F89C1C" stroke="#F89C1C" stroke-width=".25" d="M39.8 93.7l1-.7.4 1.1 1.1-.9.6 1 .8-.7.6 1.1.8-1 .5 1.1.7-.9.6 1.2.6-1.1.6 1.2.8-1.1.5 1.2.7-1.1.5 1.1.7-1.1.4 1.1.9-1 .5 1 .8-1 .7 1 .8-.8.8 1.2.6-1.2 1 1.2.9-1 .6 1 .8-1 .7 1.1 1-1.1.8 1.1.7-1.1.8 1.1.8-1 .7 1 .7-1 .9 1 .7-1.1.9 1.1.4-1.1.8 1.1.5-1.1.9 1.1.7-1.2.8 1.1.8-1.1.9 1 .6-1 .9.8.8-.9.6.9 1-1.2.7 1.1.4-1.2.8 1 .7-1.1.8.9.5-1.1.8.7.6-.9.3.7s1.4-.1-1.6.4-1.6.3-4.1.7c-2.5.4-3.5.3-6.1.4-2.7.1-2.1.1-4.2.2-2.2 0-3.7.1-4.4.1-.7 0-3.3.1-6.5-.1-3.3-.1-3.2-.1-4.5-.2-1.3-.1-1.8-.1-3.8-.2-2-.2-4.2-.6-5.1-.6-1.5-.6-4-1.2-4-1.2z"/><path fill="#72A040" stroke="#63873B" stroke-width=".25" d="M143.3 16.6c.2 1.1 5.6 2.2 12.1 1.3 7.6-1.1 12-2.6 11.8-3.7-.2-1.1-6.1-1.8-12.6-1-6.4.8-11.5 2.3-11.3 3.4z"/><path fill="#8EBE3F" stroke="#63873B" stroke-width=".25" d="M171.9 25.8l-2.8-8.1-2.2-3s-5.2 2.3-10.9 2.6c-5.7.3-12.8-.7-12.8-.7l-.9 12.2s11.3 3.1 16.5 2.2c5.1-.9 13.1-5.2 13.1-5.2z"/><path fill="#F79A40" d="M142.9 21.2l-.4 5.8s8 2.3 15.5 1.9c7.4-.4 13.7-3.8 13.7-3.8s-2.1-6-2.3-6.6c-.2-.7-1.7.8-5.3 1.5-3.5.8-16.1 1.6-17.7 1.5-1.7-.2-3.5-.3-3.5-.3z"/><path fill="#EC2224" stroke="#EC2224" stroke-width=".25" d="M171.9 25.8v1.6s-6.3 3.8-13.8 4.4c-9.8.7-15.7-1.7-15.7-1.7v-1.2s11.4 2.1 15.8 1.6 13.7-4.7 13.7-4.7z"/><path fill="#687D3C" d="M157 20.8c2.7-.1 4.7-.8 4.7-.8l-1.6 8.8-3-6.9-1.1 6.9-5.1-7.5c.1.1 1.6-.2 6.1-.5zm11.1-2.2l2 7.2 1.5-.7-2.3-6.6zm-21.8 2.8l-.3 6.4-1.6-.3v-6.1zm19.1-1.8l1.8-.6.9 7.6h-1.4zm-17.3 1.8v6.8l2.3.5-.1-7.3zm13.6-.7l1.5 7.1 1.7-.1-1.6-7.6z"/><path fill="#F79A40" d="M143.3 16.6l1.1 4.1h1l1.4-3s-1.4-.1-1.7-.2c-.4-.1-1.8-.9-1.8-.9zm22.4-1.3l-2.4.6 2.1 3.7zm-18.2 3l1.1 2.4.7.6 1-3.6-2.8-.2zm13.6-1.7l.6 4.1 1.6-.6v-3.5z"/><path fill="#8EBE3F" stroke="#63873B" stroke-width=".25" d="M156.9 60.2l4.8-1.1s2.5 3.4 4 4.8 5.1 3.9 7.3 3.3c2.1-.6 3.4-1.8 3.5-2.4.1-.6.3-2.2.6-2.7.2-.6 1.3-2.9 1.3-3.3 0-.5.3-2.5.3-2.5l5.8-1.1s1.7 3.4 2.1 3.8l1.1 1.1-1.5-.6s-.5 1.4-.3 2.1c.2.8.7 2.1.8 2.4.2.3 1.2 1 1.1 1.4-.1.4.6.6.6.6s-7.3 4.9-15.8 5.2c-8.5.4-13.7 1.8-13.6.8.1-1-.1-5.8-.5-7.1-.5-1.3-1.6-4.7-1.6-4.7z"/><path fill="#D71F29" stroke="#AE1F28" stroke-width=".25" d="M156.9 60.2l4.9-1.1 1.8 2-6 1.5zm21.8-4l5.8-1.1s.6 1.8.8 2.2c.2.4-6.8 1.4-6.8 1.4l.2-2.5z"/><path fill="none" stroke="#8E1829" stroke-width=".25" d="M157.7 60l.7 2.4m-.3-2.4l.6 2.3m-.3-2.4l.6 2.4m-.2-2.5l.6 2.4m-.3-2.5l.7 2.4m-.4-2.4l.6 2.3m-.4-2.4l.8 2.3m-.4-2.4l.8 2.3m-.5-2.3l.9 2.2m-.6-2.4l1 2.3m-.7-2.4l1.2 2.3m-.7-2.3l1.1 2.2m-.9-2.3l1.5 2.2m-5.7-1.2l.7 2.5m21-6.4v2.3m.6-2.5v2.5m.6-2.6l.1 2.5m.3-2.5l.2 2.4m.3-2.6l.2 2.5m.4-2.5l.1 2.5m.5-.1l-.2-2.5m.5-.1l.1 2.6m.4-2.7l.1 2.5m.3-2.6l.1 2.6m.3-2.7l.2 2.5m.2-2.5l.4 2.4"/><path fill="#687D3C" d="M157.6 62.6l6-1.5s1.3 2 2.1 2.8c.8.8-2.1 1.8-3.7 2.1l-3.2.6s-.2-1.5-.5-2.1c-.2-.7-.7-1.9-.7-1.9zm19.2.1s3.5.2 5.2-.1c1.7-.4 3.8-.7 3.8-.7l.3-2.5 1.5.6s-1.9-2.4-2-2.5c-.1-.1-.2-.4-.2-.4s-7 1-7.1 1.6c-.1.4-.9 2.4-.9 2.4l-.6 1.6z"/><path fill="#F79A40" d="M157.6 62.6l3.1 3.8-.3-4.4 2.7 3.6-.1-4.4 2.6 3.4-1.6-3.4-6 1.2m20.4-4.3l.5 4.7 2.4-5.1 1.3 4.6.7-5 2 4.6.8-2.4-.7-2.1z"/><path fill="#816B2A" stroke="#56481C" d="M31.8 95.3L32 88s0-.2.8-.2 1 .2 1 .2v7.2s.1.1-.8.2c-1.2.1-1.2-.1-1.2-.1zM24 97.2s1.1-.1 2.2-.3c1.1-.1 3.3-.5 3.7-.6.3-.1 1.1-.4 1.3-.5l.4-.2H34s.1.1.6.3c.4.1 1.6.6 2.3.7.7.1 2.9.4 3.7.5.7.1 1.1.1 1 .2-.3.1-17.6-.1-17.6-.1z"/><path fill="#56481C" stroke="#56481C" d="M24 97.4s.1.1.4.1c.3.1 6.2.1 8 .1 1.8 0 7.7 0 8.3-.1.7-.1.7-.2.7-.2s-7.2.1-8.6 0h-8.6c-.2-.1-.2.1-.2.1z" opacity=".32"/><path stroke="#000" d="M30.7 96.1h3.8c.3 0 0-.1-.1-.2-.2 0-.5-.3-.5-.3s-2 .1-2.2.1c-.2 0-.6.2-.7.2-.1.1-.3.2-.3.2zm-.9.6c.1 0 1.4-.5 2.9-.5 1.6 0 2.2.2 2.3.2.1.1.3.2.3.2s-1.5.2-2.8.2c-1.3 0-2.2 0-2.3-.1 0 .1-.4 0-.4 0z" opacity=".08"/><path fill="#56481C" stroke="#56481C" d="M33.4 88.2v7.2l.3-.1.2-7.2zm-1.6 7.1l.5.1v-7.3l-.3.1z" opacity=".32"/><path fill="#56481C" stroke="#56481C" d="M31.7 95.4l-.2.3h2c.1 0 .6-.1.6-.1l-.3-.2v-.1s-.8.2-1 .2c-.2 0-.8-.1-.8-.1h-.3z"/><path fill="#816B2A" stroke="#56481C" d="M27.5 73s4.1-.1 5.4 0c1.4.1 4.2 0 4.2 0s1.8 4.8 1.9 6c.1 1.2.2 4.3-1 5.8s-2.4 2.9-3.3 3.1c-.9.2-.9.1-1.1.3-.2.2-1.6.3-2.7 0-1.2-.3-4.1-1.7-4.7-4.1-.6-2.4-.7-4.3-.3-6 .4-1.8 1.6-5.1 1.6-5.1z"/><path fill="#56481C" stroke="#56481C" d="M31.8 89.1c-.1 0 0 0-.1-.2s-.3-.4-.4-.5c-.1-.1-.3-.2-.3-.2s1-.1 1.5-.1 1.3-.1 1.2 0c-.1.1-.5.3-.5.5-.1.2-.1.5-.1.5s-.6-.3-.8-.3c-.1-.1-.5.3-.5.3z" opacity=".32"/><path fill="#56481C" stroke="#56481C" d="M31.4 73.3c-.1.1-3.6.8-4.1 1.8-.5 1.1-1.4 4.9-1.1 6.1.3 1.2 1.7 5.5 4.3 5.8 2.6.2 4.1.2 5-.5.9-.8 2.6-4.4 2.8-5.2.2-.8-.3-4.4-.8-5.5-.4-1.2-1.3-2.1-1.4-2.4 0-.2-.3-.2 0-.2h1s1.1 2.9 1.4 3.8c.3 1 .7 2.9.6 4.2-.1 1.2-.6 3.3-1.3 4.1-.7.8-1.9 2.2-2.3 2.4-.4.3-.7.4-1.1.4-.3.1-1.3.3-1.4.3-.1 0-1.6-.1-1.6-.1l-1.7-.6s-2.8-1.3-3.2-3c-.4-1.6-1-4.7-.7-6.1.3-1.4 1.7-5.5 1.7-5.5h4.2l-.3.2z" opacity=".32"/><path stroke="#000" d="M25.8 82.1h.8s.7 5.3 6.1 5c5.4-.3 5.2-4.9 5.2-4.9H39s-1.3 4.1-2.7 4.9c-1.4.9-2.8 1.4-4.1 1.2-1.4-.2-3.7-1.3-4.4-1.9-.7-.7-1.4-1.7-1.6-2.5-.3-1-.4-1.8-.4-1.8z" opacity=".08"/><path fill="#56481C" stroke="#56481C" d="M26.2 76.4s2 .5 5.7.4c5.9-.1 6.3-.8 6.3-.8s.3.1.6 1.5c.2 1-2.4 1.7-5.8 1.7-5.9 0-7.1-1.1-7.1-1.1l.3-1.7z"/><path fill="#F89C1C" d="M25.9 78l.9-1.5.9 2.2 2-1.9 1.2 2.3.5-2.3 1.5 2.3 1.7-2.4 1.2 2.2.6-2.4 1.6 1.8.1-2.4.9 1.6s1 .8-.3.9c-1.3.1-2.7.8-4.6.9-1.9.1-2.3.3-4.7-.2-2.4-.6-3.5-1.1-3.5-1.1z"/><linearGradient id="F" x1="83.881" x2="87.993" y1="421.912" y2="421.912" gradientTransform="matrix(.9683 .2497 -.2496 .9683 92.683 -355.951)" gradientUnits="userSpaceOnUse"><stop offset="0" stop-color="#746046"/><stop offset=".973" stop-color="#9e5429"/></linearGradient><path fill="url(#F)" d="M71.2 72.1c-1.5-.3-2.6.5-2.6 1.7 1 .3 2 0 2.7-.7-.8.4-1.5 1.1-1.8 1.8 1 .3 1.8 0 2.3-.7-.3.6-.8 1.2-1.3 1.8.7.5 1.2.2 1.8-.2"/><path fill="#D71F29" stroke="#AE1F28" stroke-width=".25" d="M159 70.2c.5.1 10.7-1.1 14.9-1.6 4.2-.5 14-3.6 14-3.6l-1.3-1.1-.8-2.1s-8.9.6-9 .8c-.2.2-.5 2.5-.5 2.5s-.9 1.5-3.3 2c-3.1.6-7-3.1-7-3.1s-1.1 1.4-3.9 1.9c-1.1.2-3.2.6-3.2.6l.1 3.7z"/><path fill="#F79A40" d="M159 72l1.6-1.8 1.8 1.8 1.3-2.2 1.4 1.8 1.8-2.2 1.5 2 1.5-2.3 1.3 2.1 1.5-2.3 1.6 2.1 1.3-2.8 1.1 2.4 1.7-3 .8 2.2 1.8-2.9 1.3 2.5.7-3.1 2.4 2.7-.2-3.2 2.5 2.6-.5-3.2 2.1 2.2s-8.6 3-14.1 3.5c-5.7.5-15.5 2.1-16.2 1.1z"/><linearGradient id="G" x1="5345.875" x2="5360.202" y1="68.948" y2="68.948" gradientTransform="matrix(-1.2709 0 0 1 6989.003 0)" gradientUnits="userSpaceOnUse"><stop offset="0" stop-color="#746046"/><stop offset="1" stop-color="#9f552b"/></linearGradient><path fill="url(#G)" stroke="#4D3516" stroke-width=".25" d="M189.1 64.4c-2.1 2.1-6.4 1.5-8.3 3.9-.3.4-.6 1.6-.9 1.8-.5.3-1.7.1-2.3.5-2.3 1.4.6 1.5 2.1 1.6.1.9 1.4.9 2.4.7.5 1 3.3.6 4.6.5 2.7-.2 2.6-1.3 4.5-2.7 1.3-.9 4.1-2 3.8-3.6-.2-1.5-3.3-2.1-4.9-2.9"/><path fill="#7CB759" stroke="#63873B" stroke-width=".25" d="M191.5 62.7c-1.2-.7-2.1.2-2.5 1-.5 1.2.1 1.5.9 2.3 1.7 1.8 1.6 3.3 2.4 5.4 1.2.2 2.3-.4 3-1.1 1-1 .9-1.2.3-2.4-.8-1.6-2.2-4.3-4.3-5.1"/></svg>
