<svg xmlns="http://www.w3.org/2000/svg" viewBox="0 129 101.4 90.4"><path fill="#996733" d="M86.5 154.4l-1.2-.1-1.8 34 1-1 2-32.9z"/><path fill="#CB9866" d="M85.5 154.5l-1.2-.1-1.8 33.8 1.2.1 1.8-33.8z"/><path fill="#FFF" stroke="#676767" stroke-miterlimit="10" stroke-width=".25" d="M99.8 130.6L73.9 129l-1.6 29.3 25.9 1.6 1.6-29.3z"/><path fill="#813836" d="M22.4 204.1c1.8-.6 7.1-5.6 11.3-6.6s6.4.1 11.9-1.3c5.5-1.4 18.5-16.2 22.5-17.6 4-1.5 5.3-1.9 6.8-1.2s8.6-3.5 10.4-3.5c1.8 0 6.4-.3 7.6 1.7 1.3 2 2.9 9.9-3 16.2-5.8 6.2-14.7 13-16.7 15.1s-8.8 3.5-10.2 4.2c-1.3.6-3.4 5-7.1 4.9s-6.8-1.7-9-1.7-16-1.7-19.6-5c-3.6-3.4-4.9-5.2-4.9-5.2z"/><path fill="#F0CFA6" d="M1.3 141.2c-.4-.7-.3-9.7 4.6-10.2 4.8-.6 1.5 2 10.6 5s19.4 5.7 29.6 10.1S63.6 157 69 160.4c5.4 3.4 15.8 9.5 18.4 10.7 1.3.6 2.7 1 3.8 2.4 1.1 2.1 1.9.4 1.9 1.4 0-.8-1-.1-2.5 0-.8 1.4-1.6-2-2.5.1-.9.7-1.8-.4-2.7.2-.9-.3-1.8.4-2.5-.3-.7-1.1-1.4.6-1.8 1.3-.7.2-1.2-.7-1.9.8-.6 1.3-1.2 1.5-1.9.4-.7 1.1-1.4.4-2.3.6-.9.8-1.9.2-3.1-.4-.5-.9-1.1.6-1.7.6-.7.9-1.3.1-2.1 1-.7-1.7-1.6 3.4-2.3 1.6-.8.4-1.6.2-2.4 2-.8 0-1.6.8-2.3 1.7-.8.9-1.5 2-2.2 2.4-1.4 2.8-2.5 3.1-3.3 3.3-.5 1.6-1 .1-1.5 1.4-.5.3-1 .8-1.4 1.1-.9-.8-1.8-.8-2.7 1.6-.9 2.7-1.7.3-2.6 1.4-.5-.5-1.4.2-2.5.7-1.1-.3-2.4.5-3.7.3-1.4 1.8-2.7.8-3.9.3-1 .6-1.9 1.5-2.6 1-.8-.1-1.4-1-1.8-.1-.4-1.6-1 .6-1.6 0-.6 0-1.3.3-2 2-1.4.3-2.9 1-4 2.4-1.1.9-1.9 1.2-1.9 1.9 0 0-.6.4-1.4-.6-.9 1-1.9-2.1-3-3.5-1.1-.6-2-3.6-2.6-5.9-.6-2.3-.8-4.9-.3-7.7 2-11.4 4.4-22 3.6-26.2-.8-4.2-6.5-13.1-10-15.8-3.4-2.6-3.6-3.7-6-3.5l-2.4.2z"/><path fill="#F0CFA6" d="M1.3 141.3c-.4-.7-.2-9.6 4.6-10.2 4.8-.5 1.5 2 10.6 5.1 9.1 3 19.4 5.7 29.6 10.1 10.3 4.3 17.6 10.8 23 14.2s15.8 9.5 18.4 10.7 5.6 3.8 5.6 3.8-9.4-.2-12.1 1.3c-2.7 1.5-4.2 1.2-9.1 1.4-4.1.2-13.1 9.5-16.2 12.7-3.1 3.2-5.6 3.9-8.2 5.4-2.4 1.4-11.9.7-14.5 2.2-2.7 1.5-9.5 5.1-9.6 6.4 0 1.3-9.3-6.3-7.3-17.7s4.4-22 3.6-26.2c-.8-4.2-6.5-13.1-10-15.8-3.5-2.7-3.6-3.8-6.1-3.6l-2.3.2z"/><path d="M79.2 175.4s-6.3-9.9-14-11c-7.7-1.1-16.8-6.6-22-11.4-5.2-4.9-16.1-8.4-19.3-10.8s-7.3-6-7.3-6 32.7 12.2 36.5 13.4c3.8 1.3 12.7 8.7 15.8 10.6 3.2 2 16.4 8.7 18.4 10.8 2.1 2 5.6 3.8 5.6 3.8s-5.8-1-9 .1c-3 1.2-4.7.5-4.7.5z" opacity=".07"/><path fill="#F0E3E1" d="M68.2 195.9s.5-3.9 2.8-6.3c2.2-2.4 4-1.7 5.3-1.4 1.3.2 3.4 3.6 1.6 5.3-1.8 1.7-4.2 3.9-5.3 3.8-1.2 0-4.4-1.4-4.4-1.4z"/><path fill="#F0CFA6" d="M80.4 189s-3.1-5-8.8-3.5c-5.8 1.5-5.1 3.7-5.7 7.6-.6 3.9-1.2 5.8-4.5 6.8s-4.7.2-4.7.2.8-.5 2.5-.5c1.6 0 3.2-.8 4.3-1.6 1.1-.8 1.8-4.7 1.9-5.5 0-.8 1-4.5 1.8-5.8.8-1.4 3.8-1.8 6-2s4.8 1.2 5.6 1.7c.7.6 1.6 2.6 1.6 2.6z"/><path fill="#F0E3E1" d="M32.1 198.9s.6 1.2 2.9 1.5c2.4.3 4.9 2.2 2 1.5-2.8-.7-.9.7-3.3-.9-2.3-1.5-2.9-2.2-2.9-2.2l1.3.1z"/><path fill="#682A14" d="M23.5 204.4s1.1 0 2.4-.9 3.4-3.4 3.4-3.4 1.1-.5 2.6-.7c1.4-.2 2.4-1.8 3.8-1.7 1.4 0 7.5 0 9.3-.5 1.7-.5 11.3-6.7 13.3-8.8s8.4-8.5 11.1-9.2c2.7-.8 5.6-1.6 6.2-1.4s3.2-.4 4.7-.9 4-2.1 4.4-2.1 2.3-.6 3.7-.3c1.4.2 3 .3 4 .7.9.4 1.7 1 1.7 1.9s.5.7.5.7-.7-2.5-1.5-2.8c-.7-.2-1.2-1-3.4-.9-2.1.1-2.9-.6-4.1-.2-1.1.4-4.3 1.6-5.9 2.4-1.5.8-4.4.7-5.3.7s-1.2.1-3.6.7c-2.4.7-2.4.9-3.7 1.7-1.3.8-3.3 2.9-5.1 4.5-1.8 1.6-2.3 2.4-3.4 3.5s-1.3.8-3 2.3c-1.7 1.5-.1.3-2.9 2.1s-3.5 2.9-5 3.3c-1.4.4-2.9 1.9-4.9 1.8-2 0-4.9.2-6.2.3s-2.3.3-3.7 1c-1.4.7-3.4 1.8-4.8 2.8-1.4 1-4.9 3.3-4.9 3.3l.3.1z"/><path fill="#682A14" d="M23.5 204.4s3.5 4.1 5.4 5.2c1.9 1.1 9 3.3 10.5 3.3s6.4 1 7.4 1 .8-.5 3.8.5 5 1.3 6.1 1.2c1-.2 2.7-.1 3.1-1 .4-.8 2.2-3.3 3.3-3.5 1-.3 2.8-1.6 4.7-1.8 1.9-.2 3.8-.9 4.5-1.3.6-.5 4.6-4 5.2-4.4.6-.4 2.2-2.8 3.6-3.3 1.3-.5 2.8-2.6 3.7-3.1.8-.5 2.3-1.7 2.7-2.4.4-.7 1.3-1.5 1.8-1.9.5-.4 1.8-2.1 2.2-2.6.4-.5 1.9-2 2.1-3.4.2-1.3.9-2.6 1-3.6s.5-2.8.1-3.5c-.4-.7-.5-1.9-.5-1.9l.4-.1s.5 3.1.5 3.6.4 2.2-.6 3.8c-1 1.6-1.1 3.6-2.6 5.4s-2.8 2.9-3.7 3.8c-.8.9-2.7 2.8-3.8 3.5-1 .7-2.5 2.6-3.4 3.2-.8.6-3.5 2.6-4.3 3.4s-2 2.3-3 2.8-3.8 2-5 2.4c-1.2.4-4 .8-4.9 1.4-.8.6-1.7 1.2-2.2 2.1s-2.2 2.6-3.6 2.7c-1.3.1-4.7-.5-7.1-1-2.4-.5-5.8-1.1-7.7-1.1s-7.8-1.5-9.3-1.9c-1.5-.4-5-1-6.5-2.8-1.5-1.8-4.1-4.9-4.1-4.9"/><path fill="#0A0808" d="M70.8 193.5s1-.3 1.9 0 2.9-.2 2.7-1.4c-.2-1.2-1.8-5.4-2.5-4.8-.7.6-1.2 1.8-2 2.6-.8.9-.1 3.6-.1 3.6z" opacity=".15"/><path fill="none" d="M86.9 176.5s4.5-.2 5 1c.6 1.2.8 4.8.2 6.5-.6 1.8-1.3 5.3-3.7 7.3-2.4 2-16.1 15.7-16.9 15.4-.9-.3-3.9 3.2-8.4 4.4-4.5 1.2-8.6.9-13.7.5-5-.4-9.8 1.3-14.8-1.5s-8.8-2.6-6.7-5.5 4.9-5.5 8.7-5.7c3.9-.2 2.1 0 8.4-1.6 6.3-1.6 12.2-3.9 14.4-7.7s8-9.9 10-10.3c2.1-.4 7.7-.9 7.7-.9l6.8-1 3-.9z"/><path d="M68.2 195.9s1.6-6.8 4-6.8c2.4.1 5.3.1 5.3.1s1-.3-1.2-1.1c-2.3-.8-4.9-1.7-6.4-.3-1.5 1.5-1.6 3.8-2.8 5.6-1.3 1.8 1.1 2.5 1.1 2.5z" opacity=".07"/><path d="M67 195.6s1.3-6.8 4-6.8c2.7.1 3.9-1.1 5.3.1 1.5 1.2 1.2-1.8 1.2-1.8s-6.5-2.5-8.6-.8c-2.1 1.7-2.5 5.3-3.1 6.8-.6 1.5.2 3.3.2 3.3l1-.8z" opacity=".37"/><path d="M76.5 194.8s2.4-2.3 1-4.1c-1.4-1.8 0-1.5 0-1.5s1.7 1.5 1.4 3.3c-.4 1.8-2.4 2.3-2.4 2.3z" opacity=".07"/><path fill="#813836" d="M13.5 148c.2-.1.6-.5 1-.6.4-.1.6 0 1-.1.5-.1 1.6-1.4 2-1.5.3-.1.5-.2.6-.1s.7-.3.9-.3c.1 0 .6 0 .7.1.1.2.2.9-.3 1.4-.5.5-1.3 1.1-1.5 1.3s-.8.3-.9.4-.3.4-.6.4-.6-.1-.8-.1-1.4-.1-1.7-.4c-.3-.4-.4-.5-.4-.5z"/><path fill="#F0CFA6" d="M29.3 200l1.6 1.5s0 1.5.9 1.5-1.5 1.7-2.7.8c-1.2-.9-1.7-4.2-1.7-4.2l1.9.4z"/><path d="M19.4 171.1s5.2-6.4 4.7-10.6c-.5-4.2-6.8-15-10.3-16.5-3.5-1.6-6.1-4.3-8.5-5.5-2.4-1.3-4.2.8-4.2.8s2.6 2.1 3.8 2.2c1.2 0 3.4 2.4 4.9 3.4 1.5.9 4.7 5.4 5.8 7.5s4.6 8.1 4.5 9.6c0 1.5-1.1 7.7-1.1 7.7l.4 1.4z" opacity=".07"/><path fill="#F8F7F6" d="M38.2 196.3s-1.3-7.4-.7-10.1c.7-2.7 2.2-5.9-1.6-9.5-3.8-3.6-5.1-9-5.4-11.7-.2-2.7-.8-4.2-1.9-6" opacity=".26"/><path fill="#FFCC67" d="M89.3 144.6c0 1.4.5 2.5.7 3.8.1.6.1 1.3-.1 1.9-.2.5-.6 1.1-.3 1.7 1.8.2 1.9-1.9 2.1-3.2.1-.8 0-1.4-.2-2.2-.2-.9.1-1.6 0-2.4m3.5-2c0 1.5-.4 2.9.2 4.2.5 1.2.1 2.3-.1 3.4-.2 1.3-.2 2.3-1.8 2.5-1.6.1 0-1.8.2-2.6.4-1 .3-2.2-.4-3-.7-.8-1.2-1.6-1.2-2.7m-9-.2c-.4.6-.3 1.8-.4 2.5-.1.8-.3 1.4-.4 2.2-.1 1.6-1 2.7-1.1 4.2 2.1.1 2.1-1.3 2.4-3.1.2-1.1.4-3.4 1.4-4.1m.2 0c0 .5-.2 1.1-.3 1.6-.1.5-.5.9-.6 1.4-.1.5.3 1 .4 1.5.2.5.3 1 .4 1.6.2.8 1 2.5 1.7.9.6-1.3-.8-1.8-.9-2.9-.1-1.3 1.4-2.5 1.6-3.7"/><path fill="#FFCC67" d="M86.8 151.5c-.5.2-1.1.6-1.6.7.1.4.6 1.1 1 .8.4-.3.5-1 .6-1.5m-4 .6c-.8-.2-2.2-1-1.9.6.6.2 1.5-.1 1.9-.6m8.2-.8c-.4-.3-1.1-.3-1.5-.2-.1.3-.4.7-.3 1 .8.3 1.6-.2 1.9-.9m3.3.7c-.5-.1-1-.5-1.5-.5-.6 0-.7.6-.8 1.1.9 0 1.7-.1 2.3-.6M94 139c.5.1 1.4.6 1.6 1.1.5.1.6.3.8.7.1.3.4.8.4 1.1 0 .1.1 1 0 1.2-.1.3-.5.4-.8.3-.7-.2-.9-1.3-1.4-1.8-.4-.4-.6-.5-.5-1.1 0-.4.2-.9.3-1.3"/><path fill="#FFCC67" d="M80.5 142.4c.6.1 1.3.5 1.7 1 .4.4.4 1.5.9 1.6 0 .9 2.3 1.7 3 1.3.5.5 1.1.2 1.6.2s1.1.3 1.2-.5c.4 0 .9.1 1.1-.4.8.1 1.3-.3 1.9-.3.8-.1 1.3.3 1.8-.6l.8-.6c.7-.1.4-.4.6-.7 0 0 .3-.6.3-.5v-.8c-.1-.3 0-.4-.3-.6.8-.5-.1-1-.6-1.2.4-.6 0-.6-.4-1-.2-.3.1-.3-.4-.6-.3-.2-.6 0-.9-.2-.1-.1 0-.4-.3-.5-.2-.1-.4 0-.7-.1-.5-.1-.8-.3-1.3-.4-1-.3-1.9 0-2.6.1-.5.1-2 .3-2 1-.4-.2-.6.1-1 .1-.4.1-.8 0-1.1-.1-.3-.1-.6-.3-.9-.4-.3-.1-.7-.2-1-.3-.8-.2-3.2-1.2-3.9-.2"/><path fill="#FFCC67" d="M81.7 141.9c.2.3.6.4.9.4 0 .4.1.6.4.8-.4.5.2 1.1.7 1.2-.2.2 0 .8.2.9.1.6.8 1.1 1.4.6 0 .5.4 1 .9.8-.4.3-1.1.5-1.6.3l-.6-.3c-.3-.1-.4 0-.6-.3-.1-.1.1-.3 0-.4-.1-.1-.3-.1-.4-.2-.2-.2-.3-.4-.3-.7v-.4c-.1-.2-.2-.1-.3-.3-.2-.2-.3-.3-.3-.6-.5 0-1.1.1-1.2-.4-.1-.4-.1-1.2.5-1.1"/><path fill="#FFCC67" d="M90.4 138.3c.3 0 2-.1 1.4.7.6-.1.9.4.9 1 .4-.3 1.3-.2.9.5.2 0 .5.2.6.5.1.4-.3.5-.6.6.7.5.3 1.1-.4 1.1.1.4-.3 1-.8.7.2.6 1.7.8 1.7 0 1 0 1.8-1.6.6-1.8.5-.5.2-1.4-.5-1.3 0-.4.1-.6-.2-.9-.2-.2-.5-.2-.8-.2 0-.4-.4-.3-.8-.3.1-1-1.3-.9-1.8-.5" opacity=".25"/><path fill="#FFCC67" d="M78.5 137.8c-.1-.4-1.1-.4-1.5-.5-.3-.1-1.1-.8-1.3-.5-.3.3.1 1 .2 1.3.3.4.7.6 1.1.8"/><path fill="#FFCC67" d="M80.3 137.8c.4.1.6.2.9.6.4.8.5 1.3.5 2.2 0 .5 0 1.1-.3 1.5-.4.4-1 .7-1.4 1.2-.2.2-.6 1.3-1.6 1.5-.2 0-1.2.1-1.5-.4-.2-.3-.2-.8-.2-1.1 0-.9.6-1.6 0-2.4-.4-.6-.1-1.2.2-1.7.3-.6.8-1.2 1.4-1.5"/><path fill="#FFCC67" d="M77.6 144.3c.2 0 .9.2.8-.3-.1-.5-.7.1-.8.3"/><path fill="#FFCC67" d="M77.7 144.1c.1 0 .7.1.6-.2-.1-.2-.5.1-.6.2-.2.2-.4.2-.6.1-.2-.1-.3-.2-.4-.4m3.7-6c.3-.4 1.4.1 1.8.1.3 0 1.5-.3 1.6 0 .2.4-.5 1.1-.8 1.3-.5.3-1 .4-1.5.3"/><path fill="#FFCC67" d="M80.6 137.7c.6.3-.6 1.5-1.2 1.2 0 .3-.3.3-.6.2-.4.7-1.9-.3-1.2-.6-.2-.2 0-.6.3-.6 0-.2.1-.4.3-.4 0 0 .6-.3.7 0m12.4.1c-.1-.3-.4-.5-.7-.5-.3 0-.6.1-.8.4-.3-.3-.7-.4-1.1-.3-.4.1-.8.4-.9.8-.3-.1-.7-.2-1-.1-.3.1-.6.3-.6.7-.3-.2-.7-.2-.9 0-.3.2-.5.5-.4.8-.2-.2-.4-.2-.6-.1-.2.1-.3.3-.3.6 0 0 0 .1.1.1 0 0 .1 0 .1-.1"/></svg>
