<svg xmlns="http://www.w3.org/2000/svg" version="1.0" viewBox="0 0 22 41.4"><switch><g><g stroke="#19321B" stroke-width=".25"><path fill="#96C867" d="M3.1 1s20.8 3.1 17.6 23.9c.3 13.5-2.5 10-2.5 10S-6.1 34.5 3.1 1z"/><path fill="#96C867" d="M3.1 1s8 10.7 8.7 15.9c.7 5.2 6.5 18 6.5 18"/><path fill="none" d="M16.5 30c-1.6-1.5-4.4-1.5-6.3-2-2.4-.6-4.5-1.5-6.6-2.3m9.7-2.6c-3.4-3-8.5-2.7-12-6.2m10.6 1c-.4-1.7-3-3.1-4.6-4-2.1-1.3-4.1-2.8-6-4.4M17 32.1c-1.3-.8-3 0-4.5 0-2 0-2.9-.5-4.8-1.1m9.1.6c2.2-2.5 3.1-5.4 4.2-8.4m-9.1-6.9c.5-1.7 1.2-3.3 1.7-5 .5-1.9.2-3.4 1-5.1m-1.2 16.7c.4-2.3 2-4.3 3.1-6.3 1-1.8 1.2-3.2 2.2-5m-3.4 16.8c2-2.8 4.5-7.7 5.3-11.1m-12-8.1c-1.3-.7-7.2-3-6-5.1m5.8 4.8c.9-1.3 1.5-4 1.6-5.6"/><path fill="#676833" d="M17.8 33.8s1.3 2 2 3.9c.7 1.8 1.1 3.4-.1 3.1-1.2-.3-1.1-.2-1-2.3.1-2.2-.1-3.8-.9-4.7z"/></g></g></switch></svg>
