<svg xmlns="http://www.w3.org/2000/svg" version="1.0" viewBox="-14 14 68 50"><switch><g><path fill="#73BE44" d="M-13.3 42.3s2.9-20 14.6-24.9c11.7-4.8 17.4-4.1 22.8-1.1 5.4 3 9.5 10.8 9.5 10.8l2.2.2 1 4-2.2 2s.3 6.6-1 9.3c-1.3 2.7-4.1 8.5-11.4 11.7-7.2 3.3-14.5 3.9-19.3 2.5-4.6-1.5-8.9-4.1-10.3-5.1-1.4-1-3-1.8-4.3-3-1.3-1.4-1.6-3.7-1.6-4.2-.3-.6 0-2.2 0-2.2z"/><path fill="#80CE4D" d="M-11.4 42.4s5.6-1.6 6-.7c.6.9 4.1.9 4.8 1.5.7.4 2.6.3 3.2-.2.3-.5 1.6-1.7 1.9-2.2.3-.5 1-1.7 2.5-2 1.6-.4 3.5-1 4.1-.9.6 0 2.5-1.9 3.5-1.4.6.6 3.8.5 4.8.1.8-.3 4.1-4.1 4.1-4.1s.8-.9.6-2c-.3-1.1-.6-3-1-3.7-.6-.8-1.1-2.4-1-3 0-.5-1.6-4.4-2.4-4.5-.8-.2-4-.5-4.6-.4-.6 0-3.6.4-3.6.4s-2.5.9-3.6 1.4c-1.1.6-4.9 1.6-4.9 1.6L.7 22s-2.9 2.9-3.5 3.4c-.3.5-1.6.3-2.4 1.1-.8.9-1.1.2-1.1 2.1-.3 1.8-.6 3.6-.8 4.5-.2 1 .8.5-.2 1-.6.3-1.6-.2-1.9.3-.3.5-.8 1.9-.8 2.4s-.2 1.6-.2 1.6l.3 1.4-.6 1-.6.5-.3 1.1z"/><path fill="#65A53C" d="M-13.3 42.3l3.6 3.2 2.4 3.4s1.6.7 4.1 1.5c2.4.1 6 2.5 8.7 2.6 3.3 2 5.9 2.4 6.5.9 1.4.6 3.2-.1 4.9-2.7 1.9-1.3 4.6-.7 5.5-3.9 1.3-2.1 2.5-2.7 2.8-2-.2-.2 1.6-.9 2.5-3.8 2.1.4 2.7-3.4 2.5-3.7.3.7 1.1-1.3 2.2-2.6 1-1.3 1.9-2.7 1.9-2.7s1 1.9-.5 7.1c-1.3 5.2-2.7 12.2-11.9 14.8-9 2.6-12.4 4.9-19.2 2.4-7.1-2.6-7-2.7-13.3-6.3l-3-6.1.3-2.1z"/><path fill="#5E4D1F" d="M35.3 27.4c-1.4 0-2.2-.2-2.2 1.6 0 1.3 1.4 2.8 1.3 3.9-1.1.2-1-1.7-1.1-2.5-.2-.7-.8-2.3-.2-3 1.9-1.6 5.1 2 3.2 3.5-.5-.6-.6-2.2-1-3.1 0 .8.2 2.6.6 3" opacity=".18"/><path fill="#65A53C" d="M34.6 33.4c-.4-1.4-2.6-4.1-1.1-5.4 2.1-1.6 1.4 4 3.5 3 .2-1.6-2.1-5.1-4-3.6-1.5 1.1-.3 6.1 1.6 6"/><path fill="#5E4D1F" d="M-12.9 42c-2.5 1 0 7.3 2.2 7.3.6-2.6-1.9-4.5-2.5-6.9" opacity=".18"/><path fill="#73BE44" d="M27.3 38.5s-3.5 3.5-3.5 6.2c-.3 2.6-.6 6.9.2 9.1 1 2.2 3.5 8.1 7.5 9 3.8.8 7.6 1.5 9.5 1.2 1.9-.2 7.6-3.9 8.4-5 .8-1.2 3-4.4 3.3-5.4.3-1 .6-2 .6-2.7.3-.8.6-5 .6-5.5s-1.6-4.8-1.6-4.7"/><path fill="#FCF7E3" d="M39.1 62.1s1.1-.1 3.2-1c1.9-.8 4.4-1.8 5.1-2.5.6-.5 3.2-3.3 4.1-5.2s2.2-3.7 2.2-4.5c0 0 .3.6 0-1.9-.2-2.5-.9-5.6-1.3-5.9-.3-.3-.2-.8-.6-1.2-.3-.4-2.9-2.8-3.3-3.1-.3-.4-2.7-1.5-3.3-1.9-.7-.3-1.5-.5-2.2-.7-.3-.2-1.3.2-1.9 0-.6-.3-2.2-1-3.2-.8-1 .3-2.5.9-2.9.9-.6 0-1.9.4-2.5.7-1 .4-1.3.8-2.5 1.5-1.6.8-2.2 1.7-2.9 2.6-.3.9-1.1 2.1-1.6 2.8-.3.8-1.1 3-1.3 4.7 0 1.8-.3 2.7 0 3.5.5.8.6 3.3 1.6 4.5 1 1.2 1.6 3.3 3.5 4.5 2.1 1.2 4.1 2.3 5.4 2.5 1.4.2 2.5.4 3 .5.4.1 1.3-.1 1.4 0z"/><path fill="#90CC4A" d="M38.1 45.8h.6s1.4-4.4 1.9-5.3c.5-.9 1-2.5 1.3-3 .3-.5 0-1.6 0-1.8.2-.3-1.4-.5-2.2-.5-.8 0-2.2-.5-2.7 0s-1.1.3-1.1 1c0 .5 1 4 1 4.7 0 .6.8 2.9.8 2.9l.5 1.2v.8h-.1zm5.7-9.9s.5-.1 1.7.5c1.1.5 1.4 1.2 1.9 1.6.6.4 1.4 1.5 1.7 1.6.2.1.6.5.6.7-.2.3-2.5 1.5-3.5 2.3-1 .7-5.1 3-5.5 3.1-.5.1-1.8.5-1.8.5s.6-1.5.6-2.3c.2-.7 1.4-3.6 1.9-4.5.3-.8 1-2.3 1.1-2.6.2-.2.6-1 .6-1l.7.1zm-4.1 11.3s0-.9.8-1c.5-.2 8.2-4.4 9.4-4.8 1.1-.4 1-.2 1.3.5.2.8.3 2.3.3 2.9 0 .6.5 1.5.6 2 0 .5.5.2 0 1-.6.7-1.3 1.1-1.7 1-.5-.1-5.9-.8-6.2-.8-.6 0-2.1-.2-2.4-.3-.2-.2-1.4-.4-1.4-.4l-.7-.1zm-.8 1.1s-.2 1.4-.2 2.3c-.2.9 0 2.8 0 3.9V58c0 .5-.3 1.3.3 1.8.5.5.5.5 1.4.3.8-.2 2.1-1 2.4-1 .3-.1 1.4-.4 1.4-.4s1.1-.6 1.1-.8c0-.3-1.3-2.6-1.9-3.1-.6-.5-2.2-2.5-2.4-2.9-.2-.4-1.3-2-1.3-2l-.6-.9-.2-.7zm1-.5s1.4.2 2.7.5c1.3.4 2.7.4 3.8.5 1 .2 2.9 0 3.5 0 .3 0 1.6.2 1.6.6 0 .5 0 1.9-.5 2.3-.3.5-1.3 2.2-1.7 2.9-.5.6-1.3 1.6-1.6 1.7-.4.4-.7.7-1.3.7-.3 0-1.9-2.1-1.9-2.1s-1-1.6-1.3-1.9c-.3-.2-1-1.2-1.1-1.3-.3-.2-1.3-1.9-1.4-1.9-.2-.1-.6-1-.6-1v-1h-.2z"/><path fill="#90CC4A" d="M38.1 48.3s-.2 2.4 0 3.2c0 .8-.2 2.2 0 2.7 0 .5.8 2.6.5 3-.3.3-.2 2.8-.3 2.9-.2.2-.8.6-1.3.6s-2.4-.6-2.5-.6c-.3 0-1.4-.7-1.9-.7s-.8-.1-1.4-.5c-.6-.4-1.3-.5-1.6-1-.2-.5-.2-.9-.2-.9s4.1-5.5 4.6-5.6c.5-.1 2.2-1.9 2.2-1.9l1-1.1.9-.1z"/><path fill="#90CC4A" d="M25.4 47.8v1.9c.2.8.8 2.7 1 3.1.2.5.5 1.2 1 1.7.3.5.6 1.8 1 2 .3.2 1.3 0 1.3 0s5.4-7.5 6.8-7.6c.5-.1.8-1 .8-1s-.8-.6-1.3-.5c-.5.1-5.2.6-5.9.5-.5-.2-3 0-3 0l-1.7-.1zm3.2-8.1s.6 1 1.3 1.3c.6.4.8.9 1.4 1.2.5.2 1.4 1.2 1.4 1.2s1 1.4 1.3 1.6c.3.1 2.2 1.1 2.5 1.2.2.1.3-.2.6 0 .3.1 0-1.9 0-2.2 0-.2-.8-1.7-.6-2.2 0-.5-.8-3.4-.6-3.5 0-.2-.3-1.9-.3-2.2-.2-.3-.5-.7-.6-.5-.3.1-1.9.8-1.9.9-.3.1-1.7.8-1.7.8s-.5.4-.8.5c-.5.2-1.1 1-1.1 1l-.9.9z"/><path fill="#90CC4A" d="M26.1 46.9s-.5-.1-.3-.7c0-.7.6-2.7.8-3.3.2-.6.5-1.8.5-1.8s.3-.7.8-.9c.5-.2 1.1 1 1.6.9.5-.2 2.4 1.8 2.4 1.8l1.6 1.3 1.3 1.4 1.3.4v.8s-2.9.5-3.2.3c-.3-.1-2.5 0-2.9 0h-3.3l-.6-.2z"/><path fill="#C7E254" d="M38.8 44.4c.3-1.2-.2-2-.2-3.2 0-.9.3-2.7-.5-3.4-.6.5-.3 1.2-.3 2 .2.7 0 1.4 0 2.1-.2-.6-.6-1.4-.6-2-.6.5.3 1.8.3 2.3 0 .7-.3 2 .6 2.4v-.2m2.9-1c.3-.7 1.3-1.1 1.4-1.9.2-.2 0-.6.2-.9 0-.3.5-.5.3-.9-1 .5-.8 2.3-1.6 3.1-.3.5-.8.5-1.1 1.2-.3.5-.5 1.1-.6 1.6.6-.2.8-1.1 1.1-1.6.3-.6 1-.9 1.4-1.5m-1.4 4.3c1.1-1 3-1.6 4.4-2.3 1.6-.6 2.7-1.6 4.1-2.2-.3.7-1.9 1.1-2.5 1.6-1 .5-2.2.8-2.9 1.5.8.4 2.2-.6 2.8-.9.6-.2 1-.2 1.6-.4.5-.2 1-.5 1.3-.5-.3.6-1.6.7-1.6 1.3.6-.3 1.6-.5 2.2-.3-.3.3-1 .4-1.3.5.5 0 1.1-.2 1.6 0-1.3.8-3.2.3-4.5 1H47c-.5.7-2.9.7-3.7.9-1 .3-2.8 1.3-3.5-.2.5-.3 1-.6 1.6-.8M33 45c-.5-.6-1.7-1-2.5-1.5-.5-.5-1.3-1.2-2.1-.9.2.3.5.6 1 .8-.5 0-1 .1-1.4 0-.3-.1-.6-.5-1.1-.5-.2.5.2.6.6.6-.2.2-1.4.4-.8.9.3.2 1.4-.1 1.9.1.6.2 1 .7 1.6.9.5.2 1.1.4 1.7.6-.6.3-3.3-.4-3.6.6.6.3 1.3 0 1.9-.2.3 0 .5.2.6.2.3.1.6.1 1 .1 1.3.1 2.4.2 3.7-.1-.5-.2-1-.4-1.3-.7-.4-.2-.5-.8-1.2-.9m3.5.1c-.8-1.9-1.3-3.9-1.9-6 0-.2-.3-1.3-.6-1.3-.6 0-.3.9-.2 1.2.2.9 1.3 2.3 1.1 3.1-1.1-.1-1.3-2.1-2.4-2.3 0 .7 1.3 1.1 1.6 1.6.5.6.8 1.4 1.1 2.1-.8-.2-1.7-1.3-2.5-1.8.3.7 1.6.9 1.9 1.6-.6.2-1.1-.9-1.9-1 .3.7 2.9 3.4 3.7 3.1m.1 4.7c-1 .4-1.6 2.5-2.2 3.4-.7 1.1-1.1 2.3-1.3 3.5.3-.5.3-1.2.6-1.6.3-.6.6-1.1 1-1.8.3-.6 1-1.2 1.3-1.7.5-.5.6-1.4 1.1-1.9m2.4.8c.3 1.3.2 2.9.3 4.2 0 .7.2 1.4.3 2 0 .5.3 1.4.6.3 0-.5-.3-1.4-.5-2-.2-.6.2-1.4 0-2-.2-.7-.5-.9-.8-1.6-.2-.5-.3-1.3-.3-1.9m2.3-.8c1.7.5 3.3 1 5.1 1.3.6.1 1.4-.2 1.9 0 .3.2 1 1.2.6 1.6-.3.5-1.6 0-1.9-.2-.3-.2-.3-.7-.8-.9-.2-.1-.8-.2-1.1-.3-.3-.1-.8 0-1-.1-.6-.2-.6-.2-1-.5-.6-.5-1.6-.5-2.1-.9m-6.4-.7c-1.4.4-2.5.5-3.8.6-1.3.2-3.3.5-4.1 1.3 1.3-.4 2.9-.5 4.4-1-1.3.6-2.2 1.2-3.2 2.3 1-.2 1.9-.9 2.5-1.3-.6.5-2.2 2.2-2.4 3.2 1-.4 1.7-1.6 2.4-2.3-.2.9-1 1.7-1.3 2.7 1.1-.9 1.6-2.5 2.8-3.4 1-.8 3.5-1.5 4-2.7-.8-.2-1.4.4-2.1.9"/></g></switch></svg>
