<svg xmlns="http://www.w3.org/2000/svg" version="1.0" viewBox="0 0 62.8 39.5"><switch><g><radialGradient id="a" cx="28.497" cy="20.062" r="40.245" gradientUnits="userSpaceOnUse"><stop offset="0" stop-color="#c16463"/><stop offset="1" stop-color="#d68d93"/></radialGradient><path fill="url(#a)" d="M62.3 2.2c.3 6.3-1.3 11.9-2.7 15.6C56.3 27 48 40.3 29 39 10 37.7 6.7 22.9 2.9 12.9.2 6.4 0 2.6 0 2.6l.7-2s1.9-2.9 4 4c1.9 6.3 5.6 12.2 7.1 14.3 1.5 2.1 4.7 8.5 10.8 9.2 6.1.7 21 .5 24.2-3.5 3.2-4 10.1-15.8 10.7-18.9.6-3.2 2.3-8.7 4.8-3.5z"/><path fill="#fff" d="M6.5 16.2c2.7.3 4.3 6.1 6 8 1.1 1.2 2.3 2.3 3.7 3.1 1.1.7 3.7 1.1 3.7 2.7-2.9 1.3-6.8-1.2-8.6-3.6-2-2.7-2.2-7.2-4.5-9.3m30.9 12.8c3-.3 5.6-.6 8.3-2.4 1.5-1 4.1-5.3 5.5-5.1.4 2.3-3.2 5.1-4.8 6.3-2.6 1.9-5.8 2.6-9.2 2.4-.3-.5-.3-.8 0-1.3" opacity=".2"/></g></switch></svg>
