<svg xmlns="http://www.w3.org/2000/svg" id="Capa_1" x="0" y="0" version="1.0" xml:space="preserve" viewBox="0 0 220 129"><style>.st0{fill:#924693}.st1{fill:#802123}.st4{fill:#ecc6b2}.st7{fill:#aa252d}.st14{stroke-width:.25;fill:#8b6739;stroke:#5b391d}.st15{fill:#0f1010}.st26{fill:#373736}.st28{fill:#c8c897;stroke:#896931}.st33{opacity:.35;fill:none;stroke:#5c3b1f;stroke-width:.5}.st36,.st38{fill:#886931;stroke:#383821;stroke-width:.15}.st38{fill:none}.st39{fill:#759468}</style><switch><g><symbol id="Deleted_Symbol_1" viewBox="-35.7 -21.9 71.4 43.7"><path d="M-27.5 1.6c-.5 1.6-2 2.8-2.9 3.5 1.2-3.1 1.9-6.4 1.5-9C-28-2.1-27 0-27.5 1.6zm45.8 0C19.7-1.5 30.4-10.1 33-16.8c-.2 1.3-.5 2.8-.9 4.3-.7 2.5-1.6 4.9-2.5 6.5-.3.6-.6 1.3-.7 2.1C28-2.1 27 0 27.5 1.6s2 2.8 2.9 3.5c1 2.6 2.3 5.2 3.4 7.2.3.6.7 1.1 1 1.6.6 1 .9 2 .9 2.9-1-.9-2.7-1.8-5.7-2.8-5.6-2-13.7-8.2-11.7-12.4z" class="st0"/><path d="M29.1 21.8C22 20.9 8.9 10.5 7.3 8.8 6 7.4 5.9 7.4 5.9 7.5c0-.5-.5-7 1.6-11.2.2-.3.4-.7.7-1C12.8-8.5 30.6-18 30.9-20.1c.1-.9-.4-1.2-1.1-1.3l.1-.1c2.8-1.4 3.4 1.1 3 4.7-2.5 6.7-13.2 15.3-14.6 18.4C16.3 5.8 24.4 12 30 14c3 1.1 4.8 1.9 5.8 2.8-.1 3.1-3.4 5.4-6.7 5z" class="st1"/><path d="M27.5 1.6C27 0 28-2.1 28.9-3.9c-.4 2.6.3 5.8 1.5 9-1-.7-2.4-1.9-2.9-3.5z" class="st0"/><path d="M-31.2 16.4s-.5 2.2 1.7 2.5c2.2.2 17.4-8.4 17.4-8.4S-23.5 16-26 15.7c-2.5-.3-4.5-1.1-5.2.7zm43.9-6.1s12.1 9.4 18.4 9.4c.7 0 2.3-3.8-.4-2.8-3.5 1.3-18-6.6-18-6.6z" class="st4"/><path d="M5.9 5s8.2 5.9 8.7 4.9-6.2-4.5-6.2-4.5 5 .9 5.2.2c.2-.7-6.4-1.7-6.4-1.7s6.6-2.6 6.6-3.3C13.7-.2 7.5 2 7.5 2s6.8-7.8 5.9-8.2C12.5-6.5 7.3-.6 6.6.2c-.7 1-.7 4.8-.7 4.8zM-6.2 5s-8.2 5.9-8.7 4.9 6.3-4.5 6.3-4.5-5 .9-5.2.2c-.2-.7 6.4-1.7 6.4-1.7S-14 1.3-14 .6c0-.7 6.3 1.6 6.3 1.6s-6.8-7.8-5.9-8.2c.9-.3 6.1 5.6 6.8 6.4.6.8.6 4.6.6 4.6z" class="st1"/><path fill="#83368d" d="M-8.6-2.7c.1-1.5.7-2.5 1.8-2.6 4.1-.3 14.5 0 14.3 2.3v.3c-6-1-12.1-.5-16.1 0zM7.3-.3c-.3 3-.8 6.9-1.6 8-1.1 1.4-10.3 1.6-11.6.5-.7-.6-2.3-5.1-2.7-8.7 2.3-.7 7.7-1.9 15.9.2z"/><path d="M-5.7 6.4s.9 1.2 4.7 1.2c3.8 0 6.4-1.4 6.4-1.4S5 4.6 3.3 5.1c-1.7.5-3.6 1.9-5.6 1-1.9-.8-3.9-1.5-3.4.3zm-26.1-26.2s1.9 3.9 11.4 8.7c0 0-11.3-4-11.4-8.7zM17-8.4s15.5-8.2 15.2-10.9c0 0-13.1 9.5-15.2 10.9z" class="st4"/></symbol><path fill="#f4e35e" stroke="#d5c041" stroke-width=".25" d="M0 0h220v129H0z"/><path d="M64 28.8l-7.9-.2-.7-6.2 9.3.1z" class="st7"/><path fill="none" stroke="#bc9596" stroke-width=".25" d="M28.4 93.4l-2 15.4M63 71.3l1.2 9.7"/><path fill="#ecc9c9" d="M62.7 67.6l-26.2-2.4c-.7.4-3.4 11-4 13.3-1.4 5.6-3 12-4.2 17.8-1.5 6.9-.8 5.9-1.9 12.6l40.5.5-4.2-41.8z"/><linearGradient id="SVGID_1_" x1="233.859" x2="264.892" y1="160.931" y2="160.931" gradientTransform="rotate(-5.789 -1087.587 2293.33)" gradientUnits="userSpaceOnUse"><stop offset="0" stop-color="#5b391d"/><stop offset="1" stop-color="#8b6739"/></linearGradient><path fill="url(#SVGID_1_)" stroke="#5b391d" stroke-width=".25" d="M39.7 6.2C34.3 3.6 31 .6 24.4 1.8c-9.6 1.7-12.2 9.5-13.2 18.3-1.8 15.4 3.7 30.4 5.9 45.6.3 1.8.6 4.1 1.4 5.7-.2-1.5-.3-3.1.2-4.6.5 2 1.2 4.5 2.1 6 0-2.5 0-5 1.2-7.3 1.6-2.9 3.9-4.4 4.6-7.8C28.1 50 28.4 42 28 34.3c-.5-9.3 4.2-15.3 9-22.7"/><path fill="#ecc9c9" stroke="#bc9596" stroke-width=".25" d="M32.3 70.1C26.7 75.1 26 85.3 27 92c4.4-.2 11.7.8 13.5-3.5 2-4.7.1-13.6-.7-15.5 0 0-3.2-6.9-7.5-2.9z"/><linearGradient id="SVGID_2_" x1="58.755" x2="40.947" y1="-7.261" y2="106.709" gradientUnits="userSpaceOnUse"><stop offset="0" stop-color="#faf1ca"/><stop offset=".436" stop-color="#f8e9bc"/><stop offset="1" stop-color="#f5dba4"/></linearGradient><path fill="url(#SVGID_2_)" stroke="#e1b557" stroke-width=".25" d="M30.1 91.7c1.7 4.2 4.5 9.1 6.7 13.2 3.9 1 9.7-3.5 12.7-5.6 1.8-1.3 10.4-6.1 5.1-8.2-4.3 3.2-9.3 5.7-14 7.7-1.7-1.8-2.8-5.4-3.4-7.8"/><path d="M43.8 11.8c-2.4-3.4-.5-6.6-6.4-5-2.8.8-8.2 2.3-10.1 4.5 1.1.9 2.6 3.5 3.9 4 1.2.4 2.8-.5 4.1-.9 2.3-.7 6.7-.9 8.3-2.4" class="st7"/><linearGradient id="SVGID_3_" x1="15.861" x2="101.581" y1="75.493" y2="6.042" gradientUnits="userSpaceOnUse"><stop offset="0" stop-color="#faf1ca"/><stop offset=".436" stop-color="#f8e9bc"/><stop offset="1" stop-color="#f5dba4"/></linearGradient><path fill="url(#SVGID_3_)" stroke="#e1b557" stroke-width=".25" d="M79.3 60.5c.2 2.9-.6 4.3-1.1 5.3-2 3.9-7.1 4.8-16.2 5-11.6.3-23.3.4-30.1-8.2-5-6.3-1.4-9.2-3.6-15.7-3.1-8.8-2-16.6 3.2-24.4 3.7-5.6 7.7-7 13.4-9.7 9-4.2 14.8.4 23.9 3.7l2.7 6c4.8 3.7 5.5 9.1 7.5 15 2.3 6.6-2.8 13.6-1.3 17.8.1 0 1.4 2.3 1.6 5.2z"/><path d="M44.7 38.6c-2.2.7-6.4 7.7-5.9 10.3 1.4 7-5.3 10-7.2 14.3-22-12.6-14.6-34.4-4-46.1 9.8-10.8 25.5-7.5 37.6-3.8 9.7 3 19.2 14.4 19.8 25-2.1-.5-5.6 1.4-6.9 0-.9-1.1-.9-5-1.6-6.4-1.8-3.4-3.1-7-6.7-8.4.2 3.7 4.1 10.3 1.8 14.2-6.9-.4-16.6 1.1-24.4.6l-2.5.3z" class="st14"/><ellipse cx="62.8" cy="50.5" class="st15" rx="1.5" ry="1.2" transform="rotate(-78.481 62.774 50.529)"/><linearGradient id="SVGID_4_" x1="12.126" x2="97.846" y1="70.883" y2="1.433" gradientUnits="userSpaceOnUse"><stop offset="0" stop-color="#faf1ca"/><stop offset=".436" stop-color="#f8e9bc"/><stop offset="1" stop-color="#f5dba4"/></linearGradient><path fill="url(#SVGID_4_)" stroke="#e1b557" stroke-width=".25" d="M40.5 46.9c-9.2-8.8-11.5 10.8-1.9 10.2"/><linearGradient id="SVGID_5_" x1="-1293.937" x2="-1280.617" y1="-198.002" y2="-198.002" gradientTransform="scale(-1 1) rotate(-22.154 -8.292 -3224.47)" gradientUnits="userSpaceOnUse"><stop offset="0" stop-color="#c91b72"/><stop offset="1" stop-color="#fbf4cb"/></linearGradient><path fill="url(#SVGID_5_)" d="M57.8 63.4c-1.4 3.4-5.3 5-8.7 3.6-3.4-1.4-5-5.3-3.7-8.7 1.4-3.4 5.3-5 8.7-3.6 3.4 1.4 5.1 5.3 3.7 8.7z" opacity=".13"/><ellipse cx="74.8" cy="51.2" class="st15" rx="1.5" ry="1.2" transform="rotate(-78.486 74.821 51.198)"/><path fill="none" stroke="#bc9668" stroke-width=".75" d="M71.1 55.2c1.7-.2 2.5 1.7 1.5 2.7"/><linearGradient id="SVGID_6_" x1="-1313.16" x2="-1304.927" y1="-204.381" y2="-204.381" gradientTransform="scale(-1 1) rotate(-22.154 -8.292 -3224.47)" gradientUnits="userSpaceOnUse"><stop offset="0" stop-color="#c91b72"/><stop offset="1" stop-color="#fbf4cb"/></linearGradient><path fill="url(#SVGID_6_)" d="M78 64.7c-1.4 3.4-4.2 5.5-6.3 4.6-2.1-.9-2.7-4.3-1.3-7.7 1.4-3.4 4.2-5.5 6.3-4.6 2.1.9 2.7 4.3 1.3 7.7z" opacity=".13"/><path fill="#f5f5f4" d="M60.5 14.7c4.1 1.7 7 3.6 10.4 6.2-3.3-1.1-6.8-5.6-10.3-4.3 1.5 2.8 2 7.5 2.7 10.7.8 4-.2 6.9-5.3 5.2-3.6-1.2-2.4-4.9-1.7-8.5.6-3 1.1-7.4 3.2-9.7" opacity=".14"/><path fill="none" stroke="#bc9668" d="M76.3 47.7c.3.2.8.6 1.2.8m-11.4-2.7c-1.1.9-2.4 1.2-3.3 1"/><path fill="#fff" stroke="#bc9668" stroke-width=".5" d="M55.4 60.9s8.8 5.7 11.5 4.9c2.7-.7 7.3-2.7 7.3-2.7l-9.5 5.7-9.3-7.9z"/><linearGradient id="SVGID_7_" x1="73.176" x2="55.369" y1="-5.007" y2="108.963" gradientUnits="userSpaceOnUse"><stop offset="0" stop-color="#faf1ca"/><stop offset=".436" stop-color="#f8e9bc"/><stop offset="1" stop-color="#f5dba4"/></linearGradient><path fill="url(#SVGID_7_)" stroke="#e1b557" stroke-width=".25" d="M52.7 92.3c1.2-2.1.1-4.5 2-7 1.4-1.9 6.2-3.2 3.7-1.1.8-1.2 2.2-1.7 3.3-.8-.6.9-1.3 1.7-2 2.7 1.2-1.7 3.6-1.8 4.5.1-2.8 1.4-6 9.9-9.9 8.9"/><path d="M48.6 32.7c1.3 2.6 1.6 6.7 1.6 9.6 0 3.9-1.5 7.6-3 11.2-1.5 3.5-3.4 7.8-2.9 11.8.3 2.2 1.1 5.2 3.6 5.6-1.9 1.6-5.9 1.4-8 .1-3.2-2.1-4.1-5.9-4-9.6.2-6.2 4.7-11.3 5.9-17.1.6-2.8.3-6.2-.9-8.8" class="st14"/><path fill="#8d90ea" d="M-.4 104.5H220v24H-.4z"/><path fill="#585ece" d="M0 121.2h220v7.8H0z"/><path d="M84.8 113.1h14.5v2.6H84.8zm95.8-.1h14.5v2.6h-14.5z" class="st26"/><path fill="none" stroke="#486694" d="M80.9 33.8h119.5v72.6H80.9z"/><path d="M83.4 94.4c-2.7 1.2-1.5-5.6-2-9.7-.3-2.2-.3-7.1.3-9.2.6-2-.5-2.8-.7-4.9 1.3-.4 4.6-1.8 5.3-2.8.7-1 0-2.3-.1-3.5-.1-1.5-.7-4.2.8-5.3.8-.6 2.9-1 4-1.7 1.2-.7 2.3-2.9 3.7-3.3 1.3-.3 2.8.6 4.1 1 2.9.8 6.8.6 9.3 1.9 2.3 1.2 1.2 2.9 2.7 4.3 1.3 1.2 3.7.7 5.4 1.9 2 1.5 1.1 3.2 1.3 5.1.3 1.8 1 2.4 2.9 3.6 2.1 1.2 3.9 2.5 6.4 2.9 2 .3 4 .1 5.4 1.5.6.6.6 1.6.9 2.2.4.8.8 1.2 1.4 1.9 1.1 1.4 1 2.5 1.1 4.4 2.2.2 3 .8 4.8 1.6l3.2 2.5v1.9" class="st28"/><path d="M133.2 92c.8-.5 1.2-1.3 1.9-1.9 1-.9 1.1-.8 2.3-1.4 2-1.1 2.5-1.7 3.4-3.7.8-1.6 1.3-2.8 3-4.1 2.4-1.8 3.2-1.1 6.2-1.1 6.2 0 5.8-5 9.8-6.5 2-.8 5.3-.8 7.5-1.1 2.8-.5 3.6-.7 6.2.1 2.1.6 3.5.9 5.7.7 3-.3 3-.2 4.8 1.6 2.1 2.2 4.9 4.1 7.8 5.8 3.7 2.2 4 3.8 4.9 7.1.7 2.6.8 5.2.8 8" class="st28"/><path fill="#eec998" stroke="#8a6738" stroke-width=".5" d="M81.4 97.9l.3-4.1s51.2-5.7 80.8-3.5c29.6 2.2 37.4 2.4 37.4 2.4v12.6l-118.6.2"/><path fill="#df9643" d="M81.4 97.6l-.3 8.4 118.8.3.2-10.1s-6.2-.8-9.8-1.2c-3.6-.4-6.7-2.2-10.8-1.5-4.1.7-6.9 1.1-7.2.9-3.6-2.2-4.6-1.1-9.3-2.2-4.6-1.1-7.5 0-9 .2s-3.1 2.2-7.2 1.3c-4.1-.9-29.6 2.2-37.1 1.9-7.4-.4-28.3 2-28.3 2z" opacity=".39"/><path d="M117.2 92.2c-.6-1.6-1.2-3.9-2.8-5-.7-.4-2.8-1.1-3.7-1.3-1.7-.4-1.1-.2-2.8-.1-1.9.2-1.7.6-3.2-.3-1-.6-.9-2-1.7-2.6-1-.6-6.4-1.9-7.9-2.1-1.7 2-4.2 4.1-5.2 6.3s-1.9 4.8-2.5 7c6.1 1.8 12.2-1.9 17.9-1 1.6.2 2.1.6 3.9.6 1.5-.1 3-.4 4.4-.6 2.7-.5 3.9-.8 7.3-.6" class="st28"/><path d="M80.2 25.2h120.1v8.6H80.2z" class="st26"/><path fill="#fff" d="M114.4 34.3l-34 39.4v14.4l50.1-54.2zm20.9-.4l-54 62v10.5h7.8l62.7-72.5z" opacity=".25"/><path fill="#8a6738" stroke="#5c3b1f" stroke-width=".5" d="M80.7 105.7h119.4v8.7H80.7z"/><path d="M80.7 107.5c3.1-1.1 6.7-.2 10.1-.2 2 0 4.1-.6 6-.4.9.1 7 .9 7.3 1.5 1.3 2.3-6.8.6-7.9.6-1.7-.1-5.9-.3-7.1 1 3.8 3 7.6 1.6 11.6.3 1.5-.5 3-.3 4.5-.7 1.2-.3 1.5-1.2 2.6-1.7 2-1 5.2-.6 7.4-.6 3.3 0 6.5-.5 9.8-.4 2.5 0 4.8.1 7.3.4 1.8.2 3.7 1 5.4 1.1-1.3 1.9-5.9.8-7.9.6-2.2-.3-5.5-1.2-7.5.2" class="st33"/><path fill="none" stroke="#5c3b1f" stroke-width=".5" d="M199.7 106.6c-4.5-.4-9.1 2.2-13.7 2.1 2.3 1.2 4.4.4 6.6 0 .7-.1 5.2-.8 4 .8-.8 1.1-8 1.3-9.4 1.4-2.7.2-5.6-.4-8.4-.5.5-1.1 1.6-2.3 2.9-2.8-3.5.6-7.1.9-10.6 1.3-2.4.3-4.7-.2-7.1-.4-2.2-.2-3.5.3-5.6.7-2.9.5-5.9-.2-8.9.3-1.4.2-2.5.7-3.8.7-.5 0-1-.7-1.7-.6-.6 0-1.2.9-1.9 1 3.9-1.6 10.7-.7 14.7 0 3 .5 5.7.5 8.7.2 2.1-.2 7.6-1.8 8.7.4-2 1.2-4 .6-6.2.6" opacity=".37"/><path d="M105.3 113.7c.8.3 3.5-3.8 5.4-4 2.6-.4 6.2.6 8.8 1 3.3.5 6.5.4 9.9.3 2.3-.1 6.6-.5 8.4.8-1.6 1.9-4.5 1.1-6.7 1.4-2.4.4-4.8.6-7.3.5-4.6-.2-8.9-.4-13.5-.7.6-1.8 3.4-.8 4.9-.8" class="st33"/><path fill="#eec998" d="M156.6 96.1c-.6-.4-2.3-1.3-2.4.8-.4-1.1-1.8-.7-2.8-1-1-.3-1.8-.9-2.6-1.6-.2.3-.7.6-.9 1-.5-1.3-1.5-.5-1.5.6-2.4-1.4-6.3-.7-9-.5 0 .4-.3.7-.3 1.2-3.2-1-6.3.8-8.7 2.3-.3-.9-1-1.7-1.9-1.3-1.1-1.5-4.1-.9-4 1.3-1.3 1.3-4.2-.2-5.8-.4-1.9-.2-4.3-.7-6.3-1-1.5-.2-4.3-1.1-6-.5-.9.3-1.4 1.4-2.4 1.7-.8.3-1.8-.1-2.8.5v.6c1 0 3-.4 3.8 0 1.1.5.9 2.4 2.7 1.1.7 1.9 1.6.4 2.8.3 1.2 0 1.5.3 2.6.8 2.4 1 3.2.6 5.6.4 2.5-.3 4.2.8 6.8.3 1-.2 1.8 0 2.8 0 .9 0 2.2-.8 3-.7 1 .2 1.3 1.2 2.6 1.3.7 0 1.8-.5 2.6-.6 2.8-.4 5.2.4 7.9-.5 7-2.3 15.1.9 22.5-1 4.4-1.2 7.5 0 12 .4 1.1.1 2.4.5 3.5.4 1.2 0 2.4-1 3.6-1 4.2-.2 11.9 3.2 14.9-1.4 1.7-2.6-2.6-1.5-4.6-2-1.5-.5-2.7-1.3-4.4-1.3-2.7.1-4.6 1.7-6.9.6-3.6-1.7-7.3-2.4-11.4-1.4-2.4.6-4.5.1-7.1.6-1.5.3-2.9.7-4.5.6-1.4-.1-2.5-.6-3.9-.2" opacity=".88"/><path d="M125.3 89.6c-1.3-.5-1.7-1.9-3-.9-1 .8-1 2.1-1.6 3.1-.9-.6-1.5-2.1-2.8-1.8.6.2 1.5.7 1.6 1.4-.5-.3-2.1-1.2-2.3-.2.6-.2 1.4.1 1.7.7-.7-.4-1.5-.2-2 .4 1.3-.4 1.8.6 2.9.8.9.2 2.5-.8 3.4-1.2m10.2-1.1c.1-.5.3-1.6.6-1.9.5-.5 1.2.3 1.6.6.3.3 1 1.2 1.4 1.2.6.1 1-.8 1.5-1.1l.1.1c-.2.3-.5.7-.6 1 .5-.1 1.1-.5 1.5-.2-.3.2-.9.1-1.1.5.5 0 1.2 0 1.5.4-1.1 0-.8.2-1.3.1s-.8 0-1.2.1v.2c-.9-.1-1.4-1-2.3-1.3-.1.3-.1.6-.3.9" class="st36"/><linearGradient id="SVGID_8_" x1="122.629" x2="121.69" y1="89.146" y2="103.137" gradientUnits="userSpaceOnUse"><stop offset="0" stop-color="#886931"/><stop offset="1" stop-color="#5c3b1f"/></linearGradient><path fill="url(#SVGID_8_)" stroke="#383821" stroke-width=".15" d="M122.9 95.2c1.1.2 1.4.2 2.2.5 1.4.6 2.8.8 4.3.8 2.3.1 5.4 0 7.3-1.5l.8.5c1.4.8 3.4 1.2 5 1.2.9 0 2.6-.3 2.3-1.4-.2-.8-.9-1.7-1.7-2.3-1.9-1.4-3.6-1.5-5.6-2.2l-1-.4c-1.6-.9-4-1.1-5.9-1-1.3.1-2.5.2-3.8.1-.8-.1-4-.4-4.6.4 0 0-6.5 1.1-8.9 2.5 0 0-6.4 2.5-7.7 2.7-1.3.2-4.4.3-4.7-2.4-.3-2.7 1.2-2.3 1.6-2.5.4-.2-2.3-1.1-2.6 1.7-.3 3.2 1.6 4.9 5.1 5 3.6.1 11.7-2.6 13.6-2.6 1.8.1 4.3.9 4.3.9z"/><path d="M142.2 92.8c-.2.3.1.7.4.9m-1.9 1.2c.3-.4.8-.3 1.2-.1m-4.7.3c-.3-.2-.3-.7-.1-1m-1.3 1.1V95c-.2 0-.1-.1-.3 0-.1-.3-.6-.4-.9-.4" class="st38"/><path d="M135.2 95.8c.7-1.1-1.3-.8-1.8-.5-.5.4-2.1 1.4-2.1 2.1 0 .8 1.4 1.8 2 2.2.3.2.7.4.9.7.2.4-.1 1.1.1 1.5.3-.2.2-.9.3-1.3.5-.1.9.9 1.4 1 0-.4-.4-.7-.6-1 .6-.1 1.1.6 1.7.3-.5-.3-.8-.5-1.3-.7.3 0 .5-.1.8-.1.3 0 .5.2.8.2 0-.4-.9-.6-1.2-.6-.6 0-.9.2-1.4-.2-.7-.6-1.2-1.3-1.7-2.1.8-.3 2-.2 2.1-1.5m-12.8-2.3c.3-.6 1.9 0 2.4.4.8.6 1.2 1.7 1.5 2.6.1.4.6 1 .4 1.4-.1.4-.8.6-1.2.8-.8.3-1.5 0-2.3-.1.6.4 1.2.7 1.8 1.1.4.2 1.8.4 2 .8-.5.2-1-.2-1.4 0 .4.7 1.4.9 1.6 1.7-.5 0-1.2-1.1-1.8-1.3.2.5 1.2 1.2 1 1.7-.5-.2-.9-1-1.5-1.2 0 .4.4 1.1-.1 1.3-.3-.4-.2-.9-.5-1.4-.3-.5-.6-.7-1-1-.7-.5-1.6-.9-2.1-1.5.5-1.3 2.2-2.3 3.6-1.6-1.6-.4-2.7-1.2-3.3-2.8.2-.2.4-.4.7-.5" class="st36"/><path d="M121.8 93.3c1.3-1.3 2.4-.4 3.4.7m.9.1c2.1 1.3 4.3.6 6.7.6m7.4.2c-.5.2-1-.4-1.5-.6" class="st38"/><path d="M132.7 92.7c-.1 0-.2 0-.4.1.1.3.4.4.6.1m1.1-1.2c-.1 0-.2 0-.4.1.1.3.4.4.6.1m-1.4-1.4c-.1 0-.2 0-.4.1.1.3.4.4.6.1m-1.6.8c-.1 0-.2 0-.4.1.1.3.4.4.6.1m-1.6-1.4c-.1 0-.2 0-.4.1.1.3.4.4.6.1m-.1 2.1c-.1 0-.2 0-.4.1.1.3.4.4.6.1m-1.7-1.5c-.1 0-.2 0-.4.1.1.3.4.4.6.1m-2.1-1c-.1 0-.2 0-.4.1.1.3.4.4.6.1m-.3 1.6c-.1 0-.2 0-.4.1.1.3.4.4.6.1m-2.6-1.2c-.1 0-.2 0-.4.1.1.3.4.4.6.1m-.1.6c-.1 0-.1 0-.2.1.1.2.3.2.4 0m.5-.8c-.1 0-.2 0-.2.1.1.2.3.2.4 0m-1.1-.8c-.1 0-.1 0-.2.1.1.2.3.2.4 0m-.9.6c-.1 0-.2 0-.2.1.1.2.3.2.4 0m-1.2-.7c-.1 0-.2 0-.2.1.1.2.3.2.4 0m0 1.4c-.1 0-.2 0-.2.1.1.2.3.2.4 0m-1.2-.8c-.1 0-.2 0-.2.1.1.2.3.2.4 0m-1.5-.5c-.1 0-.2 0-.2.1.1.2.3.2.4 0m-.1 1c-.1 0-.2 0-.2.1.1.2.3.2.4 0m-1.8-.5c-.1 0-.1 0-.2.1.1.2.3.2.4 0m10.9.1h-.2c0 .2.2.2.3 0m.6-.5h-.2c0 .2.2.2.3 0m-.7-.6h-.2c0 .2.2.2.3 0m-.8.5h-.2c0 .2.2.2.3 0m-.8-.6h-.2c0 .2.2.2.3 0m-.1 1.2h-.2c0 .2.2.2.3 0m-.8-.7h-.2c0 .2.2.2.3 0m-1-.4h-.2c0 .2.2.2.3 0m-.2.9h-.2c0 .2.2.2.3 0m-1.3-.5h-.2c0 .2.2.2.3 0" class="st39"/><path d="M134.7 92.4h-.2c0 .2.2.2.3 0m.6-.5h-.2c0 .2.2.2.3 0m-.7-.6h-.2c0 .2.2.2.3 0m-.8.4h-.2c0 .2.2.2.3 0m-.8-.5h-.2c0 .2.2.2.3 0m-.1 1.1h-.2c0 .2.2.2.3 0m-.8-.6h-.2c0 .2.2.2.3 0m-1-.5h-.2c0 .2.2.2.3 0m-.2.9h-.2c0 .2.2.2.3 0m-1.3-.5h-.2c0 .2.2.2.3 0" class="st39"/><path d="M121.1 93.4c-.8.1-2.1-.2-3.1 0-2.3.4-4.9 1.3-7.2 2.1" class="st38"/><path fill="#2c1a1a" stroke="#383821" stroke-width=".15" d="M142 95.5c-.1-.4-.8-.8-1-.3-.3.6.7.6 1 .3"/><path d="M143.8 95.8c-.1-.1-.2-.2-.4-.3 0 .1-.1.1-.1.2.2.4.3.1.5.1" class="st38"/><circle cx="141.2" cy="95.2" r=".1" fill="#fff"/></g></switch></svg>
