<svg xmlns="http://www.w3.org/2000/svg" version="1.0" viewBox="0 0 219.6 130"><switch><g><path fill="#D1ECF2" d="M0 .1h220v130H0z"/><linearGradient id="a" x1="-41.13" x2="7.315" y1="323.669" y2="323.669" gradientTransform="matrix(2.7597 0 0 -2.7597 114.128 982.45)" gradientUnits="userSpaceOnUse"><stop offset="0" stop-color="#cee194"/><stop offset="1" stop-color="#98cb66"/></linearGradient><path fill="url(#a)" d="M10.1 70.9s52-2.9 86.5-.4 37.7 2.3 37.7 2.3V109H.6l9.5-38.1z"/><path fill="#A7D38B" d="M48.5 61.4c6-1.1 12.3.8 18.4.6 8-.3 16.1-1.9 23.9-3.7 12.2-2.7 26-6.6 38.4-5.6.4 6.9-.2 13.5-.3 20.4 0 2.1.5 5.5-.7 7.4-1.8 2.7-5.7 2-9 2-15.3 0-31.1 1.5-46.3-.8-7.9-1.2-15.6-2-23.4-3.9-7.6-1.8-15.4-3.1-22.1-6.9-4.3-2.3-2.4-3.6 1.6-5.6 3.2-1.6 7.3-2.5 10.9-3.3 1.8-.4 3.9-.8 5.7-1.3" opacity=".72"/><path fill="#70BF66" d="M82.4 75.5c-.3-2.1 1.6-3.3 3.7-3-1.5-3.8 2.7-4.3 5.4-4.4-.1-3.2 3.7-5.4 6.3-3.7 1.4-3 5.4-2.2 7.4-.3 1.2-1.9 5.8-3.4 6.2-.3 2.3-.9 4.2.1 4.4 2.6 3-1.1 2.7 1.3 4.7 2.3 1 .5 1.9-.7 2.9-.2 1 .4 1.1 1.8 2.3 2.3 2 .8 4.6-.9 5.8 2.2 1.3 3.3-3.1 3.2-5.9 3.7-9.5 1.6-19.1 1.6-28.6 1.1-3.3-.2-11.9.6-14.1-2.1"/><ellipse cx="34.8" cy="50.9" fill="#F37721" rx="2.3" ry="2.2"/><path fill="#996A33" d="M52.3 74.7s-.7-19.1.8-22c1.4-2.9 1.7-4.9 2.2-5.1.5-.2.8-.9 0-.8-.8.1-2.9 2-3.1 2.7s-.7-1.5-.4-2.1c.3-.6.2-1.3-.1-1.4-.3-.1-1.2.4-1.3 1.2-.1.8.3 2.4 0 2.8-.3.5-.6.6-.8.6-.3 0-1-1.8-1-2.1s-.8-.2-.8-.2 1.4 4.7 1.4 6.8c.1 2.2.5 5.4.1 7.2-.4 1.8 0 10.9-.1 11.8-.2.9 3.1.6 3.1.6z"/><path fill="#63B04C" d="M37.2 49.4c0 .4 0 .9-.1 1.3.6.2 2.1.6 1.4-.6.7-.1.5-2 1.2-1.1.3.4-.3.9.1 1.2.4.4 1 .1 1.1-.4.9 1.6.8-.1 1.6-.6.4-.2 1.1.1 1.5-.1.3-.2.1-1 .2-1.3.6 0 .5.7 1.2.7.3-.4.2-.9 0-1.3 2-1.1 2 2.8 3.8 2.8.1-.6-.2-1 .2-1.5s1.1-.2 1.1-1c.4.2.8.5.9.9.1-.1.5-.2.6-.3.5.4.8 0 1.4-.1.1.4.2.8.6.9.2-.2 3.1-2.2 3.2-1.3.1.7-.3 1.3.3 1.8.2.2.6.1.9.3.2.2.6.7.9.8.5.1.5-.2.8-.2.2 0 .7.1.9.1.5-.1.7-.3 1.1-.4.2-.1.8 0 1-.1.8-.4.8-.8 1.8-.8.9 0 1.3.6 1.9 1.1.2.1.6.2.8.4.4.3.5.5 1 .7.7.2 1.5.1 2.1-.2.5-.2 1.2-1.3 1.7-.1.2.6-.5 1.1-.5 1.8 0 .5.3 1.4.5 1.8.5 1 .9 1.3 1.8.6.5-.4 1.2-1.1 1.7-1.5.4-.4.4-.1.6-.8.1-.3 0-.7 0-1-.1-.6-.7-1.9-.2-2.4.3-.4.9-.2 1.3-.3.1 0 0-.4.2-.4.3-.1.6.3 1 .1.3-.2 0-.6.5-.9.5-.3.5.5 1.1-.1.3-.3.2-.9.3-1.3.1-.2-.1-.4 0-.6.1-.2.5-.1.6-.3.3-.5.2-.5.1-1.1-.1-.4-.3-.7-.3-1.2-.1-.6.2-.9.2-1.5 0-.8-.4-1.6-.2-2.4.2-.6.7-.6.9-1 .2-.4-.1-1-.1-1.5 0-.8.3-1.6.3-2.4 0-1-.9-1.7-.8-2.6.3.3 1 .4 1.5.3.1-.5-.4-1.2-.5-1.7-.2-.7-.4-1.4-.5-2.1-.2-1.2.3-2.7 0-3.9-.2-.6-.7-1.2-.9-1.8-.3-.8-.3-1.4-1.3-1.9-1.1-.5-3.6.5-4.3-.3 1-1.1-.8-.7-1.1-1.1-.5-.7 1.1-1 1.5-1.2-.2-.6-.8-.3-1.2-.4-.2-.1-.4 0-.6-.1-.3-.1-.4-.7-.6-.8-1.5-.6-.1 1.9-1.2 2.2.2.3.9 1.2.1 1.3l-.1-.6c.1.1-.7-.6-.6-.4-.1-.2-.3 0-.4-.3-.1-.2.3-.7.4-.8-.9-1.5-2.4 1.9-3.4 1.3-.6-.4.4-1.2.2-1.8-.3-.6-1.3-1-1.9-1.1-.8-.1-1.3 0-1.6.8-.2.4.2 1.7-.2 1.9-.7.5-.4-1.4-.5-1.5-.3-.9-.8-.6-1.5-.2-.2-.8-1.9 0-1.6-1.2.2-.6 2.1-.8 2.7-1 .6-.1.7.2 1.2-.4.2-.3.1-1 .3-1.4.1-.3 0-.4.1-.7.1-.1.4 0 .5-.1.3-.3.4-.8.7-1.1.7-.8 1.9-1.4 2.8-1.8-.5-.6-1.7.1-2.3.4-.8.5-1.3.6-2.2.7-.1-.6 1.4-1.1.2-1.4-1.1-.2-.9.9-1.8.1.2.1-.7-1.1-.6-.9-.1-.5.4-.6.5-1 .2-.7-.8-1.8.3-1.9.2-.9-.8-.8-1.1-.2-.2.5.1 1.4 0 2-.5-.4-.4-1-.9-1.5-.6-.5-1.5-.4-.9.5-.2 0-.4.1-.5.2-.1 0-.1.2-.2.4 1.1.1.9.7.1 1.2-.5-.4-.5-.7-.7-1.2-.2-.4-.5-.7-.7-1.1.2 0 .7-.2.8-.3-.7-.1-.7-.2-1.1-.7-.3-.3.1-1.1-.8-.8-.1.3 0 .7.2.9-.4.1-.8 0-1 .2.1.5.7.6 1.2.6 0 .5 1 1.4.1 1.5 0-.4-.2-.8-.6-1-.8.4-.8 2.5-1.9 1 .1-.1.2-.3.4-.4-1.1-.6-.8.3-.6.8.1.4.5 1.6-.6 1-.3.5-.2 2-1.1 1.7.1-.2.6-.7.6-1 0-.7-.4-.3-.7-.8-.4-.6.5-1.3-.2-1.9.2-.2.6-.2 1.1-.3 0-.5-.3-.5-.7-.3 0-.1-.2-.3-.2-.5-.7.1-.8.9-.8 1.5-.5-.2-1.1-.3-1.1.4-.4 0-.8-.1-1.2-.2.1-.1.4-.5.5-.6-.2 0-.4-.2-.6-.3 0-.5.6-.6.7-1.1.1-.5-.4-.7-.4-1.2-.5 0-.9 0-1.2.4.5.8.7.7.4 1.6 0 .6-.4 1.3-1.1 1.2-.2-.7-2.6-.6-3.1-.1-.2.2 0 .5-.2.7-.2.3-.5.3-.7.6-.2.2-.1.5-.4.7-.3.2-.6.2-.8.4.2-.2.9 1.7.7 2.2-.3 0-.8 0-1.1.1.1.2 0 .4.2.6-.5-.3-1.3-1.2-1.5-1.6 1.1-.5.2-1.4-.7-1.3-.3.7.5 2.5-.3 2.8 0-.1-.2-.3-.2-.5-.2 0-.5-.1-.6 0-.4-.8.9-1-.1-1.7-.6-.4-1.6-.1-1.5.7-.3 0-.7-.1-1-.1h-.8c-.2-.1-.7-.6-.7-.6-.9-.1-.9.2-1.5.3 0-.5-.5-.9-1-.4.2.3.3.6.3.9-.7.2-1.6-.3-1.5-.9-.4-.1-1.5.2-1.7-.1-.3-.6.8-.8.3-1.5.2 0 .5-.3.7-.3-.6-1.7-1.7.5-2.6-1-.9.3-.1 1.3-.1 1.9-.2 0-.4.1-.6.1.1.2-.1.3.2.5-1.1-.1-1.5.7-.7 1.5-2.1.9 1.2 1.6 1.2 2.3-.8.2-.7.7-.3 1.2-.6.4-1-.3-1.6-.2 0 .1-.1.3-.1.5-.4-.1-.7-.1-1.1-.2-.2 0-.4.1-.6.1-.3 0-.3-.4-.7-.4-1.3.2 0 1.5-.9 1.7-.5-.3-.4-.9-.2-1.3-.8.4-.2 1.1 0 1.7.2.4 0 .5.3.9.2.3.7.1.6.8-.5.2-.7-.4-1.2-.4-.6 0-.5.7-1.3.3-.1.4.2.8.5 1.1-.4.2-2 .4-2.4.1-.2.4-.5 1-.1 1.4-1.6 0-.2 1.3-.1 1.7.3.9-1.1 1.3.1 2.2-.3.1-.4.3-.7.5.2.3.5.5.7.7-.6.2-.7 1.2-.8 1.7-.1 1.4.7 1.6 1.6 2.4.2.2 1 .9 1.2 1.2.6 1.1-1.4.8-1.3 2.1-.2 0-.5.1-.6.1-.3.7.6.9 1.1.9-.4.4-1.1.2-1.1.8.7.3.8-.4 1.4-.6.4.4 0 1 .6 1.4-.3.1-.7.1-1.1.1-.9.1-.6 0-1.2.6-.4.4-.9.4-.6 1 .2.6.8.5 1.3.5 0 .5.1 1 .2 1.4-.8.1-1.6.3-2.3.7 0 .3.6 1.2.8 1.4.6.4.9.1 1.6.2.2.5-.1.4-.2.8 0-.1-.6 1-.5.9 0 .1 0 .3-.1.4-.2.2-.6 0-.6.1-.3.2-.7 0-.6.7.7.3 1.1-.1 1.8.6.5.6.5 1.5 1.4.5.4.3.1.7.4 1.1.3.4 1 .5.8 1.1-.7-.1-.4.4-.8.7-.4.3-.8.3-1.2.6-.6.5-1 2-.3 2.6.1.1 1.1.3 1.3.3.7.2.8.2 1.5 0 1-.4 1.7-1.6 2.7-1.9.2.4.1.8.1 1.1.6.3 1-.2 1.4-.6.6-.5.6-.6 1.4-.8.6-.1.9 0 1.5-.4.3-.2.5-.6.8-.7.3-.1.6.3.9.2.5-.1.7-.9 1.3-.7.4.1.7 1.1 1 1.4 1.5 2.1 1.5-.3 2.6-.9"/><path fill="#F3EB4D" d="M29.1 24.8c.1 0 .6-1.5.5-1.7 0-.2-.3-.3-.4-.4l-.1-.5c-.2-.3-.3-.6-.5-.9.6 0 1.2 1.4 1.4 1.9.3.7 0 1.7-.6 2.3-.2-.4.1-.9.1-1.4m-3-6.4c1.5 1.3 1.1-1 1.5-1.9.5.4.1 1 .1 1.5-.1 1 .4.4.8 1.1.2.3-.1 1.3-.1 1.6-.1.7-.3 1.3-1.1 1.5 0-.4.4-.7.4-1 .1-.7-.2-.5-.6-.9-.3-.3-.4-.6-.7-.9-.3-.4-.9-.5-1-1 .7-.4 1.1.7 1.8.6m30.6 7.8c.6.1 1.5 0 2-.2.3-.1.6-.7 1-.4.6.3-.1.7-.3.9.2.2.5.2.8.1.7 1.1-1.3.6-1.7.6-.3-.1-.9-.2-1.2-.2-.6.1-.7.4-1.4.4-.3 0-.8-.5-.9-.5-.4-.1-.7.1-1.1.1-.8 0-2-1.1-.9-1.7.3.6.8.7 1.4.9 1.3.4 1.1-.3 1.8-.9.7-.6.8.3.5.9zM77 44.5c1.4.1-.6 1.3.4 1.9.3.2.7-.1 1 .1.3.2.2 1 0 1.3-.6-.2-.6-.8-1-1.2-.4-.4-.8-.2-1.1-.6-.4-.6.1-2.3.9-2.2-.1.3 0 .5.2.7m-31.5-8.7c.1-.5-1.2-1.9-1.7-1.5-.9.5.9 1.6.8 2.2-.6.2-1.2-.1-1.8 0-.2 1.1.9 1 1.6 1.2.4.1.6.4.9.5.4.2.8 0 1 .5.4-.2.4-.6.9-.6.4 0 .7.6.8.8 0-.1.2-.3.2-.5.5 1-.2 2.5 1.1 3 .7-.7-.4-1.2-.6-1.8-.3-.6.4-1.8 1.1-1 .6-.6 0-2.2-1-2-.5.1-.7.4-1.3.5-.5 0-.9 0-1.3-.3-.7-.6 0-.6-.1-1.1-.1-.4-1-.8-1.3-1.1-.2-.2-.7-1.2-1.1-.6-.3.4.7.9.1 1.1m-7.2-6c.5-.5 1 0 1.3.4.4.6.1.6.2 1.2.7.2 1.9-.2 1.4-1 .3.2.5.4.9.4.7-.8-.9-1-1.3-1.1.1-.4 1-.6.8-1.1-.3-1-.9.2-1.1.3-.5.4-.6.3-1.3.1-.5-.1-1.1-.2-1.1-.8m-3-7.9c.1 0 .6-1.5.5-1.7 0-.2-.3-.3-.4-.4l-.1-.5c-.2-.3-.3-.6-.5-.9.6 0 1.2 1.4 1.4 1.9.3.7 0 1.7-.6 2.3-.2-.4.1-.9.1-1.4m-3-6.4c1.5 1.3 1.1-1 1.5-1.9.5.4.1 1 .1 1.5-.1 1 .4.4.8 1.1.2.3-.1 1.3-.2 1.6-.1.7-.3 1.3-1.1 1.5 0-.4.4-.7.4-1 .1-.7-.2-.5-.6-.9-.3-.3-.4-.6-.7-.9-.3-.4-.9-.5-1-1 .7-.4 1.1.7 1.8.6M63 20.9c.6.1 1.5 0 2-.2.3-.1.6-.7 1-.4.6.3-.1.7-.3.9.2.2.5.2.8.1.7 1.1-1.3.6-1.7.6-.3-.1-.9-.2-1.2-.2-.6.1-.7.4-1.4.4-.3 0-.8-.5-.9-.5-.4-.1-.7.1-1.1.1-.8 0-2-1.1-.9-1.7.3.6.8.7 1.4.9 1.3.4 1.1-.3 1.8-.9.7-.6.8.3.5.9zm18.7 18.5c1.4.1-.6 1.3.4 1.9.3.2.7-.1 1 .1.3.2.2 1 0 1.3-.6-.2-.6-.8-1-1.2-.4-.4-.8-.2-1.1-.6-.4-.6.1-2.3.9-2.2-.1.3 0 .5.3.7m-31.7-8.7c.1-.5-1.2-1.9-1.7-1.5-.9.5.9 1.6.8 2.2-.6.2-1.2-.1-1.8 0-.2 1.1.9 1 1.6 1.2.4.1.6.4.9.5.4.2.8 0 1 .5.4-.2.4-.6.9-.6.4 0 .7.6.8.8 0-.1.2-.3.2-.5.5 1-.2 2.5 1.1 3 .7-.7-.4-1.2-.6-1.8-.3-.6.4-1.8 1.1-1 .6-.6 0-2.2-1-2-.5.1-.7.4-1.3.5-.5 0-.9 0-1.3-.3-.7-.6 0-.6-.1-1.1-.1-.4-1-.8-1.3-1.1-.2-.2-.7-1.2-1.1-.6-.3.4.7.9.1 1.1m-7-6c.5-.5 1 0 1.3.4.4.6.1.6.2 1.2.7.2 1.9-.3 1.4-1 .3.2.5.4.9.4.7-.8-.9-1-1.3-1.1.1-.4 1-.6.8-1.1-.3-1-.9.2-1.1.3-.5.4-.6.3-1.3.1-.5-.1-1.1-.2-1.1-.8" opacity=".41"/><path fill="#F37721" d="M36.6 21.8c0 1.2 1 2.2 2.3 2.2 1.3 0 2.3-1 2.3-2.2 0-1.2-1-2.2-2.3-2.2-1.3.1-2.3 1.1-2.3 2.2z"/><ellipse cx="71.8" cy="45.8" fill="#E96724" rx="2.3" ry="2.2"/><ellipse cx="59.5" cy="20.7" fill="#F37721" rx="2.3" ry="2.2"/><ellipse cx="49.3" cy="34.5" fill="#F37721" rx="2.3" ry="2.2"/><path fill="#F37721" d="M49.1 11.4c0 1.2 1 2.2 2.3 2.2 1.3 0 2.3-1 2.3-2.2s-1-2.2-2.3-2.2c-1.3-.1-2.3 1-2.3 2.2z"/><ellipse cx="49.9" cy="44.1" fill="#F37721" rx="2.3" ry="2.2"/><ellipse cx="49.3" cy="24.1" fill="#F37721" rx="2.3" ry="2.2"/><path fill="#F37721" d="M59.6 39.7c0 1.2 1 2.2 2.3 2.2 1.3 0 2.3-1 2.3-2.2 0-1.2-1-2.2-2.3-2.2-1.3-.1-2.3 1-2.3 2.2z"/><ellipse cx="35" cy="39.8" fill="#F37721" rx="2.3" ry="2.2"/><path fill="#F37721" d="M69.5 31.3c0 1.2 1 2.2 2.3 2.2 1.3 0 2.3-1 2.3-2.2 0-1.2-1-2.2-2.3-2.2-1.2-.1-2.3.9-2.3 2.2z"/><ellipse cx="27.3" cy="32" fill="#F37721" rx="2.3" ry="2.2"/><g fill="#54A245"><path d="M57.5 16.8c.3-.1.7-.4.8-.7.2-.7-.1-.5-.4-.9-.4-.7-.7-1.5-.9-2.2-.1-.3 0-.6-.3-1.1-.2-.4-.5-.6-.6-1-.1-.3.2-.8 0-1-.3-.4-1-.2-1.2-.7s.7-1.8 1.3-1.8c1.3.1 0 1.4 0 1.9 0 .7.5 1.8 1 2.3.6.8 1.3.4 2 1 .6-.5 1-1.5 1.6-1.8.4 1.3-1.8 1.3-1.6 2.5.3 1.8 2-.2 2.5-.2.2.9-.5.8-1 1.2-.8.7-.3.5.2 1.2-.5.3-.5.6-.5 1 0 .1.4.3.5.5 0 .3-.4.5-.3.7.2.6.8.6.6 1.2-.1.3-1.2 1-1.4 1.1-.5-.8.7-1 .8-1.5-.9-.7-1.4.6-2.2.5-.1 0-.9-.4-.9-.4-.3-.1-.7-.1-.9-.4-.4.5-.9.5-1.5.4-1-.2-1.3-.5-.9-1.3.1-.4 1.1-1.4 1.5-1.4.3 0 .2.5.5.6.3.2.7.1 1.1.3m16.5 2.5c.1 0 .2.1.3.1.6-.6.3-2.5 1.6-2.4.2.4-.1 1.5.4 1.7.4.2 1.7-.9 2.1-1.1.4-.2 1.5-1.3 2-1.2 1.3.3-.3 1.3-.6 1.6-.3.2-.6.5-.6.8-.1.3.3.9.3 1-.3.6-1.4.4-1.8.5-.4 0-.5-.2-1 0s-.3.5-1 .5c-.8 0-2.2-.7-1.7-1.5M63.6 31.1c0-.1.1-.2.2-.1.1.4 0 .8-.1 1.2.3.1.6.1.9 0 .2.5 0 1.3.9 1.3 1 0 .6-1.3 1.4-1.6.2.3 0 .5.1.7 0-.1.3 1.1.4.9-.1 1.2-.7.2-1.4.2-.2.5 1.5 1.6.1 1.7-1 .1-.9-1.9-2.3-.9-.4-.3-.3-.7 0-1-.2-.5-.7-.3-1 .1-.2-.6.4-1.5-.8-1.3.2-.4.6-.9 1-1.1 0 .6.6 1.8 1.2.8m-14.4 7.2c.2-.2.4-.3.7-.3v1.4c0 .2.3.4.3.6 0 .2-.4.6-.3.8.3.4.7.4 1 .8.3.5-.2.7.4 1.2-.4.1-.9 0-1.2.3-.2.1-.2 1-.4 1.3-.4.1-.6-.3-.6-.7-1.6 1.8-.3-2.5-1.8-.7-.3.4-.4 1.3-.8 1.6-.9.5-.8-.2-1.1-.7-.1-.2.1-.5-.1-.8-.1-.2-.6 0-.7-.4-.2-.5.6-1.6 1.2-1.5.7.1.4 1 1.3 1.1.7.1 1-.2 1.2-.8.2.1.6.1.7.3.8-.5-.7-1.7-.6-2.5.2-1 1.4-1.2 1.6-2.4.6.2.2.7-.2 1m-5.6-3.9c1.4 0 1.5-.7.2-1.1-.2-.1-.4.1-.6.1-.2-.1-.5-.4-.7-.4-.6-.1-1 0-1.2.7-.6-.1-2.6-.5-1.5.8.2.2.6.2.7.4l.2.4c.2.2.3.5.7.7-.3.5-.4 1.1-.5 1.6 1 .7 2.4-.4 1.9 1.4.8.4.7-.6.5-1 .8-.4.8.3 1.2.4.4.1.4 0 .7 0 .3 0 .4-.2.8 0 .1 0 .4-.8.5-.9.1-.4 1.7.4 1.1-1-.3-.6-.9-.8-1.5-.9-.8-.2-2.8.1-2.5-1.2zM33.4 45.7c.4-.5.5-1 .1-1.5-.6-.6-1.3-.1-1.8-.4.1-.3 1.3-.7 1.6-.7.3 0 .6.3.9.3.4-.1.5-.6.8-.8.4.6 0 1.5 1 1.5 0 .5.1 1.1 0 1.4-.1-.2-.3-.4-.3-.6-.2.2-.2.5-.1.8-.3-.2-.3-1.2-.9-1.2-.7-.1-.6 1.1-1.3 1.2-.1-.1-.1-.2 0-.3M69.8 43c-.3-.3-1.9-.7-1.1-1.4.4-.4 1.9.3 2.4.3-.1.6-.9.4-.9 1.1m1.8-3.3c.3-.5.5-.7.9-1.1.4-.4.7-1 1.1-1.3.3.6-.4 1.2 0 1.8 1-.5.2-2.2 1.2-2.7-.7-.4-1.3-1.9-2.3-1.4.1.1.1.4.2.5-.3-.2-.6-.1-.8-.1.2.4.8.5.7.9-.7.3-1.5-.2-1.9.5.3 0 .6.2.8.2.2.6-.4.9-.8 1.1.3.4.5.7.1 1.1.2.4.3.3.7.2m.7 2.9c.8 1.1 1.1.3 1.9-.1.2.6-.1 1.3.3 1.8-.4.1-.7.8-.9.8-.4.1-1.2-.6-1.5-.8-.9-.8-.3-1.5-.5-2.6.2.3.3.6.4.9m5.9-2.2c.1.2.2.2.2.1-.3-.5-.8-1.5.3-1.4-.2-.2-1.3-.5-1.6-.5-1.1 0-.3.4-1.2.9.2.5 1.4.4 2 .8m.8-7.6c-.3-.4-3.6-.8-4-.5.6.9 2.4.6 2.7 1.3-.4.6-1.2.2-1.6-.2-.2.4.1.8.4 1-.4.2-.9 0-1.3 0 .1.4.4.6.8.6 0 .1 0 .2-.1.3.7.5 2.1-.6 2.9-.7 0-.5.2-1.1-.1-1.5m-20.6-7.2c.1-.5-.1-.9-.2-1.3 0-.1 0-.8-.1-.8-.3-.4-.5-.2-.8-.4-.4-.3-1.3-1-1.5-1.4-.2-.6.2-.9.7-1.4.7.5-.1 1 .1 1.5.3.5 1.1.3 1.6.5.4.1 1.4.3 1.7.7.3.5-.2 1.2.1 1.8.3-.3.5-.7.9-.8.4.4.4.9.1 1.4 1.5 1.4 2.7-.5 4.2-1 .4 1 .5.7 1.5 1.1 0 .7-.7 1-1.2 1.3-.3.2 0 .5-.5.5-.3 0-.7-.6-1-.6-.3.2-.3.6-.3 1-.1 0-.7-.1-.8 0h-.4c-.2.1-.2.5-.4.6-.9.4-1 .1-2 0-.7-.1-1.3.4-1.8-.2-.8-.9.3-1.1 1-.7-.1-.6-1-.5-.9-1.3m-8.5-11.7c-.3-.3-.8-.5-.8-1 .9-.3.1-2-.8-1.7.4 1-.9.9-1.6 1.4.3.3.8.5.7 1.1-.2 0-.6.2-.8.1-.1.4.4.7.4 1s-.4.6-.4.7c-.1.9.9 1.2 1.7 1 .1.4-.4 1-.1 1.4.3.4 1.2.3 1.6.3 0 .5.5.6.5 1 .2.6-.2.5-.2 1-.1.5.1 1.5.3 2.1.8-.1 1.2-1.8.6-2.3.3-.1.9-.2 1-.4.3-.7-.7-.8-.9-1.3-.2-.6 1.1-1.9 1.7-1.2.4-.8.8-.8 1.6-.7 0-.5 0-.9-.1-1.3 0-.2-.2-.4-.2-.6 0-.1.2-.6.2-.6-.1-.3 0-.8-.7-.4 0 0-.5 1.2-.6 1.3-.2.5.2.6-.4 1-.5.3-1.1 0-1.5.5-.1-.2-.3-.3-.2-.6-.5 0-1.1.1-1.4-.3-.6-.8.4-.9.7-1.3"/><path d="M59.8 39.8c0-.8.1-1 .6-1.7.7-.9.7-.8 1.8-.5.6-.9-.4-.8-.9-1.2.4-.3 1.1-.1 1.6-.3-.1-1-1.7-.7-2.4-.7-.1-.6.6-.5 1-.6 0-.5-.5-.6-.9-.7.4-1.4 1.2 0 1.8 0 .3-.6-.6-.9-.1-1.4-1-.4-.9-.5-.3-1.3-.4-.2-.8-.3-1.3-.4.1-.1.1-.4.2-.5-1.1-.5-1.5-.2-1.2.9.2.8 1.2 1.9-.4 1.8-.2 1 1 1.5.4 2-.4.3-.9-.4-1 .4-.1.6.7 1 1.2.9 0 .5-.4 1.1-.7 1.6-.1.3-.4.4-.5.7-.1.3.1.6-.1 1 .3.1.6.1.9 0M32.8 22.6c0 .3-.3.5-.4.7-.4-.3-.4-.8-.7-1.2-.3-.4-.8-.3-.9-.8-.6 0-.3.8-.4 1.2-.5 0-1.5-.4-1.6.4-.1 1 1.3.2 1.6.3.4 0 .4.2.7.3 0 0 1 .4 1 .3.5.7-.6 1.2-.8 1.9.8.4 1.8.4 1.4 1.6.7.4.8-.4 1.3-.5 0 .3.1.6.4.6.7.1.3-.3.6-.5.5-.3 1-.6 1.7-.6.6.1 1.3.8 1.6 0 .2-.5-.3-.7-.6-1-.1-.2-.7-.7-.8-.8-.9-.5-2.1-.1-2.9-.5-.1.1-1.2-1.3-1.2-1.4zm2.9 12.5c.2-.6.1-1.4.1-2 .1-1.2.3-.9 1.4-1 .1-.4 0-.7-.1-1.1.4 0 .6.2.9.5.1-.6.1-1.2-.2-1.7.3.1.5.2.8.4.6.6.2.5.3.9.1.8-.3 1.1.9 1.4 0-.1.1-.3.1-.5.2.3.4.8.7 1.1.5-.7-.3-2.8 1.1-2.1.1.1 1.3 1.4 1.4.4.1-.6-1-.8-1.4-1.1.3-.5.7-1 .7-1.5-1.1 0-1.4 1.3-2.8 1-.6-.2-.6-.5-1.1-.8-.5-.3-1-.2-1.4-.6 0 .2-.1.4-.1.5h-.5c0 .4-.1.9-.2 1.3-.4 0-.5.3-.8.4-.6.2-.5 0-1.1-.2-1-.2-1.6 0-.9 1 .1.2.6.4.7.6.1.3-.1.7 0 .9.2.4 1.3 1.3 1.8 1.4m4 4.8c-.8 1-1.3-.2-2.2-.3-.2 0-.2-.2-.5-.2-.2 0-.1.6-.3.6-.4.1-.9-.1-1.3-.2-.1.2-.1.3-.1.5.4 0 .7.1.7.5-.5.2-1.1 0-1.5.1-.4.2-.7.6-1.2.8-1.1.5-1.5-.1-2.7 0-.3.9 1.2 1.3 1.6 1.8.2-1.5 1.5-1.4 2.7-.9.7.3 2.6 2.9 2.8.7-.5-.3-1.1-.2-1.6-.5-.2-.1-.3-.5-.5-.6-.3-.3-.6.3-.8-.3.6-.2 1.4-.6 2.1-.5.3.1.1.7.7.6.4-.1.5-.6.7-.9.1.1.4.1.6.2 0-.2.1-.5 0-.7.5.1 1.1 0 1.5.3.4-.3.3-.8.6-1.2.3.2.6.4 1 .4.1-.4-.2-.8-.6-.7m37.7-13.8c.4-.3.7-.6 1.2-.5.1.8-.5 2 1.1 1.5.5-.2.7-1 1.1-1.1.7-.3.8.4.4.8-.3.3-1 .1-1.3.5-.5.7.3.8.7 1.2.3.2 1 .2.3.9-.5.4-1-.2-1.5-.3-.2.5.4.7.3 1.3-1.3.5-1-2.2-2.1-.7-.6-.3-.2-.8-.5-1.1-.3-.3-.4-.3-.9-.4-.1-.4.1-.8.1-1.2 0-.8.2-.3-.3-.9-.4-.5-2-1.6-2-2.2 1.5-.2 2.1 2.9 3.8 2.3M74 41.2c.6-.3 1-1 1.7-1.3.2.4-.1.8.1 1.2.7 0 1.1-.5 1.3-1.1.3.3.3.6.1.9.1 0 .5.1.7.1.1.9-.3.9.4 1.5.4.4 1.4.7.8 1.5-.6-.2-1.2-1.4-1.9-1.1-.7.3-.2 1.4-1 1.7-.6-.7-.1-1.3-.3-2-.2-.7-1.2-.4-1.2-1.2-.4.2-.7.1-.7-.2"/><path d="M60.9 38.2h.2c.2.7-.4 1.4-.1 2.1.3.8 1.7.6 1.8 1.4 1.3.4.2-1.5.6-1.9.3.4.1 1 .6 1.3.4-.5.7-1 1.2-1.4 0 .1.1.3.2.5 1.1 0 .5-2 1.8-2 0-.1.1-.4.1-.5.3.1.6.3.6.7 0 .6-.2.4-.6.7-.3.2-.6.2-.8.4-.3.3-.1.7-.8 1 .3.1.8.2 1 .5-.5.2-.9-.1-1.4-.1.2.8 1.2.4 1.5 1-.4.3-1.9.3-2.5.5 0-.2-.3-.4-.2-.7-.9-.4-2.4.8-3.1 1.2-.4-.4 0-.6.5-.7 0-.5-.3-.2-.5-.5-.1-.1-.6-.8-.8-.9-.5-.4-1.6-.3-1-1.2 1.2.6.7-1.6 1.8-1.9m-8.9-11.3c.6-1.2-.6-1.5-.1-2.8-.8.2-.5 1.5-1.4 1.6.5 1 0 1.1-.9.9-.1.7 1 .5.5 1.5.5.2.6-.3.9-.7.1.1.4.2.5.3-.1-.3 0-.7.4-.8"/></g><g fill="#54A245"><path d="M49.1 21.6c.3-.1.7-.4.8-.8.2-.7-.1-.4-.4-.9-.4-.7-.7-1.5-.9-2.2-.1-.3 0-.6-.3-1.1-.2-.4-.5-.6-.6-1-.1-.3.2-.8 0-1-.3-.4-1-.2-1.2-.7-.2-.5.7-1.8 1.3-1.8 1.2.1 0 1.4 0 1.9 0 .7.5 1.8 1 2.3.6.8 1.3.4 2 1 .6-.5 1-1.5 1.6-1.8.4 1.3-1.8 1.3-1.6 2.5.3 1.8 2-.2 2.5-.2.2.9-.5.8-1 1.2-.8.7-.3.5.2 1.2-.5.3-.5.6-.5 1 0 .1.4.3.5.5 0 .3-.4.5-.3.7.2.6.8.6.6 1.2-.1.3-1.2 1-1.4 1.1-.5-.8.7-1 .8-1.5-.9-.7-1.4.6-2.2.5-.1 0-.9-.4-.9-.4-.3-.1-.7-.1-.9-.4-.4.5-.9.5-1.5.4-1-.2-1.3-.5-.9-1.3.1-.4 1.1-1.4 1.5-1.4.3 0 .2.5.5.6.3.2.7.1 1.1.3m16.4 2.7c.1 0 .2.1.3.1.6-.6.3-2.5 1.6-2.4.2.4-.1 1.5.4 1.7.4.2 1.7-.9 2.1-1.1.4-.2 1.6-1.3 2-1.2 1.3.3-.3 1.3-.6 1.6-.3.2-.6.5-.6.8-.1.3.3.9.3 1-.3.6-1.4.4-1.8.5-.4 0-.5-.2-1 0s-.3.5-1 .5-2.2-.7-1.7-1.5M55.2 35.9c0-.1.1-.2.2-.1.1.4 0 .8-.1 1.2.3.1.6.1.9 0 .2.5 0 1.3.9 1.3 1 0 .6-1.3 1.4-1.6.2.3 0 .5.1.7 0-.1.3 1.1.4.9-.1 1.2-.7.2-1.4.2-.2.5 1.5 1.6.1 1.7-1 .1-.9-1.9-2.3-.9-.4-.3-.3-.7 0-1-.2-.5-.7-.3-1 .1-.2-.6.4-1.5-.8-1.3.2-.4.6-.9 1-1.1 0 .6.6 1.8 1.2.8M41.4 44c.2-.2.4-.3.6-.3v1.4c0 .2.3.4.3.6 0 .2-.4.6-.3.8.3.4.7.3.9.8.3.5-.2.7.4 1.2-.4.1-.9 0-1.2.3-.2.1-.2 1-.4 1.3-.4.1-.6-.3-.6-.7-1.6 1.8-.3-2.5-1.8-.7-.3.4-.4 1.3-.8 1.6-.9.5-.8-.2-1.1-.7-.1-.2.1-.5-.1-.8-.1-.2-.6 0-.7-.4-.2-.5.6-1.6 1.2-1.5.7.1.4 1 1.3 1.1.7.1 1-.1 1.2-.8.2.1.6.2.7.3.8-.5-.8-1.7-.6-2.5.2-1 1.4-1.2 1.6-2.4.6.2.2.7-.2 1m-5.4-3.8c1.4 0 1.5-.7.2-1.1-.2-.1-.4.1-.6.1-.2-.1-.5-.4-.7-.4-.6-.1-1 0-1.2.7-.6-.1-2.6-.4-1.5.8.2.2.6.2.7.4l.2.4c.2.2.2.5.7.7-.3.5-.4 1.1-.5 1.6 1 .7 2.4-.4 1.9 1.4.8.4.7-.6.5-1 .8-.4.8.3 1.2.4.4.1.4 0 .7 0s.4-.2.7 0c.1 0 .4-.8.5-.9.1-.4 1.7.4 1-1-.3-.6-.9-.8-1.4-.9-.7-.2-2.7.1-2.4-1.2zM25 50.5c.4-.5.5-1 .1-1.5-.6-.6-1.3-.1-1.8-.4.1-.3 1.3-.7 1.6-.7.3 0 .6.3.9.3.4-.1.5-.6.8-.8.4.6 0 1.5 1.1 1.5 0 .5.1 1.1 0 1.4-.1-.2-.3-.4-.4-.6-.2.2-.2.5-.1.8-.3-.2-.3-1.2-.9-1.2-.8 0-.7 1.1-1.3 1.2-.1-.1-.1-.2 0-.3m36.3-2.3c-.3-.3-1.9-.7-1.2-1.4.4-.4 1.9.3 2.4.3-.1.6-.9.4-.9 1.1m1.9-3.4c.3-.5.5-.7.9-1.1.4-.4.7-1 1.1-1.3.3.6-.4 1.2 0 1.8 1-.5.2-2.2 1.2-2.7-.7-.4-1.3-1.9-2.3-1.4.1.1.1.4.2.5-.3-.2-.6-.1-.8-.1.2.4.8.5.7.9-.7.3-1.5-.2-1.9.5.3 0 .6.2.8.2.2.6-.4.9-.8 1.1.3.4.5.8.1 1.1.2.4.3.3.7.2m.7 3c.8 1.1 1.1.3 1.9-.1.2.6-.1 1.3.3 1.8-.4.1-.7.8-.9.8-.4.1-1.2-.6-1.5-.8-.9-.8-.3-1.5-.5-2.6.2.3.3.6.4.9m5.9-2.2c.1.2.1.2.2.1-.2-.5-.7-1.5.3-1.3-.2-.2-1.3-.5-1.6-.5-1.1 0-.3.4-1.2.9.2.5 1.4.4 2 .8m.9-7.8c-.3-.4-3.6-.8-4-.5.6.9 2.4.6 2.7 1.3-.4.6-1.2.2-1.6-.2-.2.4.1.8.4 1-.4.2-.9 0-1.3 0 .1.4.4.6.8.6 0 .1 0 .2-.1.3.7.5 2.1-.6 2.9-.7 0-.5.2-1.1-.1-1.5m-20.6-7.2c.1-.5-.1-.9-.2-1.3 0-.1 0-.8-.1-.8-.3-.3-.5-.1-.8-.3-.4-.3-1.3-1-1.5-1.4-.2-.6.2-.9.7-1.4.7.5-.1 1 .1 1.5.3.5 1.1.3 1.6.4.4.1 1.4.3 1.7.7.3.5-.2 1.2.1 1.8.3-.3.5-.7.9-.8.4.4.4.9.1 1.4 1.5 1.4 2.7-.5 4.2-1 .4 1 .5.7 1.5 1.1 0 .7-.7 1-1.2 1.3-.3.2 0 .5-.5.5-.3 0-.7-.6-1.1-.6-.3.2-.3.6-.3 1-.1 0-.7-.1-.8 0h-.4c-.2.1-.2.5-.4.6-.9.4-1 .1-2 0-.7-.1-1.3.4-1.8-.2-.8-.9.3-1.1 1-.7-.1-.6-1-.5-.9-1.3m-8.4-11.6c-.3-.3-.8-.5-.8-1 .9-.3.1-2-.8-1.7.4 1-.9.9-1.6 1.4.3.3.8.5.7 1.1-.2 0-.6.1-.8.1-.1.4.4.7.4 1 0 .3-.4.6-.4.7-.1.9.9 1.2 1.7 1 .1.4-.4 1-.1 1.4.3.4 1.2.3 1.6.3 0 .5.5.6.6 1 .1.6-.2.5-.2 1-.1.5.1 1.5.3 2.1.8-.1 1.2-1.8.6-2.3.3-.1.9-.2 1-.5.3-.7-.7-.8-.9-1.3-.2-.6 1.1-1.9 1.7-1.2.4-.8.8-.8 1.6-.7 0-.5 0-.9-.1-1.3 0-.2-.2-.4-.2-.6 0-.1.2-.6.2-.6-.1-.3 0-.8-.7-.4 0 0-.5 1.2-.6 1.3-.2.5.2.6-.4 1-.5.3-1.1 0-1.5.5-.1-.2-.3-.3-.2-.6-.5 0-1.1.1-1.4-.3-.6-.8.4-.9.7-1.3"/><path d="M51.2 44.6c0-.8 0-1 .6-1.7.7-.9.7-.8 1.8-.5.6-.9-.4-.8-.9-1.2.4-.3 1.1-.1 1.6-.3-.1-1-1.7-.7-2.4-.7-.1-.6.6-.5 1-.6 0-.5-.5-.6-.9-.7.4-1.4 1.2 0 1.8 0 .3-.6-.6-.9-.1-1.4-1-.4-.9-.5-.3-1.3-.4-.2-.8-.3-1.3-.4.1-.1.1-.4.2-.5-1.1-.5-1.5-.2-1.2.9.2.8 1.2 1.9-.4 1.8-.2 1 1 1.5.4 2-.4.3-.9-.4-1 .4-.1.6.7 1 1.2.9 0 .5-.4 1.1-.7 1.6-.1.3-.4.4-.5.7-.1.3.1.6-.1 1 .3.1.6.1.9 0M24.4 27.5c0 .3-.3.5-.4.7-.4-.3-.4-.8-.7-1.2-.3-.4-.8-.3-.9-.8-.6 0-.3.8-.4 1.2-.5 0-1.5-.4-1.6.4-.1 1 1.3.2 1.6.3.4 0 .4.2.7.3 0 0 1 .4 1 .3.5.7-.6 1.2-.8 1.9.8.4 1.8.4 1.4 1.6.7.4.8-.4 1.3-.5 0 .3.1.6.4.6.7.1.3-.3.6-.5.5-.3 1-.6 1.7-.6.6.1 1.3.8 1.6 0 .2-.5-.3-.7-.6-1-.1-.2-.7-.7-.8-.8-.9-.6-2.1-.2-2.9-.6-.1.1-1.3-1.2-1.2-1.3zM27.2 40c.2-.6.1-1.4.1-2 .1-1.2.3-.9 1.4-1 .1-.4 0-.7-.1-1.1.4 0 .6.2.9.5.1-.6.1-1.2-.2-1.7.3.1.5.2.8.4.6.6.2.5.3.9.1.8-.3 1.1.9 1.4 0-.1.1-.3.1-.5.2.3.4.8.7 1.1.5-.7-.3-2.8 1.1-2.1.1.1 1.3 1.4 1.4.4.1-.6-1-.8-1.4-1.1.3-.5.7-1 .7-1.5-1.1 0-1.4 1.3-2.8 1-.7-.1-.7-.4-1.2-.7-.5-.3-1-.2-1.4-.6 0 .2-.1.4-.1.5h-.5c-.1.4-.1.9-.2 1.3-.4 0-.5.3-.8.4-.6.2-.5 0-1.1-.2-1-.2-1.6 0-.9.9.1.2.6.4.7.6.1.3-.1.7 0 .9.2.4 1.3 1.3 1.8 1.4m4.1 4.7c-.8 1-1.3-.2-2.2-.3-.2 0-.2-.2-.5-.2-.2 0-.1.6-.3.6-.4.1-.9-.1-1.3-.2-.2.2-.2.3-.2.5.4 0 .7.1.7.5-.5.2-1.1 0-1.5.1-.4.2-.7.6-1.2.8-1.1.5-1.5-.1-2.7 0-.3.9 1.2 1.3 1.6 1.8.2-1.5 1.5-1.4 2.7-.9.7.3 2.6 2.9 2.8.7-.5-.3-1.1-.2-1.6-.4-.2-.1-.3-.5-.5-.6-.3-.3-.6.3-.8-.3.6-.2 1.4-.6 2.1-.5.3.1.1.7.7.6.4-.1.5-.6.7-.9.1.1.4.1.6.2 0-.2.1-.5 0-.7.5.1 1.1 0 1.5.3.4-.3.3-.8.6-1.2.3.2.6.4 1 .4.1-.4-.2-.8-.6-.7M71 29.6c.4-.3.7-.6 1.2-.5.1.8-.5 2 1.1 1.5.5-.2.7-1 1.1-1.1.7-.3.8.4.4.8-.3.3-1 .1-1.3.5-.5.7.3.8.7 1.2.3.2 1 .2.3.9-.5.4-1-.2-1.5-.3-.2.5.4.7.3 1.3-1.3.5-.9-2.2-2.1-.7-.6-.3-.2-.8-.5-1.1-.3-.3-.4-.3-.9-.4-.1-.4.1-.8.1-1.2 0-.8.2-.3-.3-.9-.4-.5-2-1.6-2-2.2 1.5-.2 2.1 2.9 3.8 2.3m-5.9 16.4c.6-.3 1-1 1.7-1.3.2.4-.1.8.1 1.2.7 0 1.1-.5 1.3-1.1.3.3.3.6.1.9.1 0 .5.1.7.1.1.9-.3.9.4 1.5.4.4 1.4.7.8 1.5-.6-.2-1.2-1.4-1.9-1.1-.7.3-.2 1.5-1 1.7-.6-.7-.1-1.3-.3-2-.2-.7-1.2-.4-1.2-1.2-.5.2-.7.1-.7-.2"/><path d="M52.5 42.9h.2c.2.7-.4 1.4-.1 2.1.3.8 1.7.6 1.8 1.4 1.3.4.2-1.5.6-1.9.3.4.1 1 .6 1.3.4-.5.7-1 1.2-1.4 0 .1.1.3.2.5 1.1 0 .5-2 1.8-2 0-.1.1-.3.1-.5.3.1.6.3.6.7 0 .6-.2.4-.6.7-.3.2-.6.2-.8.4-.3.3-.1.7-.8 1 .3.1.8.2 1 .5-.5.2-.9-.1-1.4-.1.2.8 1.2.4 1.5 1-.4.4-1.9.4-2.5.6 0-.2-.3-.4-.2-.7-.9-.4-2.4.8-3.1 1.2-.4-.4 0-.6.5-.7 0-.5-.3-.2-.5-.5-.1-.1-.6-.8-.8-.9-.5-.4-1.6-.4-1-1.2 1.2.6.7-1.6 1.8-1.9m-9-11.2c.5-1.2-.6-1.5-.1-2.8-.8.2-.5 1.5-1.4 1.6.5 1 0 1.1-.9.9-.1.7 1 .5.5 1.5.5.2.6-.3.9-.7.1.1.4.2.5.3 0-.3 0-.7.4-.8"/></g><path fill="#54A245" d="M49.3 9.6c.5-.1.8.3 1.1.7 1.5-.9 1.7.5 2.7.8.2-.6.8-.9 1-1.4-.7-.1-1.1-.6-.9-1.3-.8.6-1.1.2-1.8.4-.5.2-1.3.8-1.8 1.1"/><ellipse cx="69.5" cy="46.4" fill="#F37721" rx="2.3" ry="2.2"/><path fill="#70BF66" d="M23.7 60.8c2.1-1.8 5.6-1.6 6.9.6 3.7-2.4 6.7-.6 7.6 2 5-2.2 8.7-1.2 11.1 2.2 3.7-2.5 7.7-.6 7 2.4 4.4-.4 7.2.8 6.4 3.7 6.3-.4 5.7 2.6.4 3.7-4.8.9-10.9.4-15.9.4-9.2 0-18.4.1-27.3 0 1.7-4.5.5-10.2.5-15"/><path fill="#989898" d="M20.7 84.2l112.9-.7 2.6 10.3-116.8 4.7z"/><linearGradient id="b" x1="-24.05" x2="-21.894" y1="329.84" y2="329.84" gradientTransform="matrix(2.7597 0 0 -2.7597 114.128 982.45)" gradientUnits="userSpaceOnUse"><stop offset="0" stop-color="#fff2ca"/><stop offset=".436" stop-color="#ffeabc"/><stop offset="1" stop-color="#ffdda4"/></linearGradient><path fill="url(#b)" stroke="#F1B74F" stroke-width=".25" d="M49.5 71.5c.1.5.5.8.8 1.2s.3.6.6.9c.5-1.2.2-2.4.9-3.6.2-.3.8-1 1.2-1 .9-.1 0 .8-.2 1.2.6-.4 1.3.5.5.9.4.5 0 .6-.2.9-.3.4-.8.4-1 1-.3 1-.3 1.3-.7 2.1-.6.1-.9-.3-1.4-.7-.8-.5-1.6-2.1-2.3-2.7"/><linearGradient id="c" x1="-24.362" x2="-23.181" y1="330.163" y2="330.163" gradientTransform="matrix(2.7597 0 0 -2.7597 114.128 982.45)" gradientUnits="userSpaceOnUse"><stop offset="0" stop-color="#8c2b8a"/><stop offset=".173" stop-color="#933992"/><stop offset=".501" stop-color="#a55da6"/><stop offset=".944" stop-color="#c298c6"/><stop offset="1" stop-color="#c6a0ca"/></linearGradient><path fill="url(#c)" d="M47.2 70.1c1.3-.8 2.3.5 3 1.5-.7.5-1.3.8-2 1.1-.4-.6-.7-1.2-1.2-1.7"/><linearGradient id="d" x1="32.3" x2="32.932" y1="158.747" y2="158.747" gradientTransform="rotate(-147.746 13.99 267.24) scale(2.7598)" gradientUnits="userSpaceOnUse"><stop offset="0" stop-color="#fff2ca"/><stop offset=".436" stop-color="#ffeabc"/><stop offset="1" stop-color="#ffdda4"/></linearGradient><path fill="url(#d)" stroke="#F1B74F" stroke-width=".25" d="M42.3 81.5s-.6 1-.8 1.3l-.6.9-1.5-.9 1.4-2.2 1.5.9z"/><linearGradient id="e" x1="32.931" x2="30.707" y1="157.06" y2="157.06" gradientTransform="rotate(-147.746 13.99 267.24) scale(2.7598)" gradientUnits="userSpaceOnUse"><stop offset="0" stop-color="#f3ea38"/><stop offset="1" stop-color="#ffca07"/></linearGradient><path fill="url(#e)" d="M41.4 91.3s-2.7-2.3-2.8-2.8 2.4-4.7 2.4-4.7l-1.5-.9s-3 4.8-3.2 5.2c-.3.4 1.4 1.5 2 1.8.6.4 1.4.9 2 1.3.6.3 1.1.1 1.1.1z"/><g fill="#369946"><circle cx="36.6" cy="88.1" r=".2"/><circle cx="36.6" cy="87.6" r=".2"/><circle cx="37" cy="87.6" r=".2"/><circle cx="37" cy="88" r=".2"/></g><g fill="#369946"><circle cx="37.8" cy="87.1" r=".2"/><circle cx="37.8" cy="86.6" r=".2"/><circle cx="38.2" cy="86.6" r=".2"/><circle cx="38.1" cy="87.1" r=".2"/></g><g fill="#369946"><circle cx="38.2" cy="85.3" r=".2"/><circle cx="38.3" cy="84.9" r=".2"/><circle cx="38.7" cy="84.9" r=".2"/><circle cx="38.6" cy="85.4" r=".2"/></g><g fill="#369946"><circle cx="39.6" cy="84.3" r=".2"/><circle cx="39.7" cy="83.9" r=".2"/><circle cx="40" cy="83.9" r=".2"/><circle cx="40" cy="84.3" r=".2"/></g><g fill="#369946"><circle cx="37.8" cy="89.2" r=".2"/><circle cx="37.9" cy="88.7" r=".2"/><circle cx="38.3" cy="88.8" r=".2"/><circle cx="38.2" cy="89.2" r=".2"/></g><linearGradient id="f" x1="-832.751" x2="-832.12" y1="326" y2="326" gradientTransform="matrix(2.7597 0 0 -2.7597 2342.688 982.45)" gradientUnits="userSpaceOnUse"><stop offset="0" stop-color="#fff2ca"/><stop offset=".436" stop-color="#ffeabc"/><stop offset="1" stop-color="#ffdda4"/></linearGradient><path fill="url(#f)" stroke="#F1B74F" stroke-width=".25" d="M44.5 81.5v2.6h1.7v-2.6h-1.7z"/><linearGradient id="g" x1="-832.745" x2="-830.552" y1="324.365" y2="324.365" gradientTransform="matrix(2.7597 0 0 -2.7597 2342.688 982.45)" gradientUnits="userSpaceOnUse"><stop offset="0" stop-color="#f3ea38"/><stop offset="1" stop-color="#ffca07"/></linearGradient><path fill="url(#g)" d="M50.6 90.2s-3.4-.5-3.9-.9c-.4-.4-.5-5.3-.5-5.3h-1.7v6.1c0 .5 2 .5 2.6.5h2.4c.8 0 1.1-.4 1.1-.4z"/><g fill="#369946"><circle cx="46.1" cy="89.9" r=".2"/><circle cx="46.3" cy="89.5" r=".2"/><circle cx="45.9" cy="89.3" r=".2"/><circle cx="45.7" cy="89.7" r=".2"/></g><g fill="#369946"><circle cx="45.6" cy="88.5" r=".2"/><circle cx="45.8" cy="88.1" r=".2"/><circle cx="45.4" cy="87.9" r=".2"/><circle cx="45.2" cy="88.3" r=".2"/></g><g fill="#369946"><circle cx="46.1" cy="86.7" r=".2"/><circle cx="46.3" cy="86.3" r=".2"/><circle cx="46" cy="86.1" r=".2"/><circle cx="45.8" cy="86.5" r=".2"/></g><g fill="#369946"><circle cx="45.4" cy="85.1" r=".2"/><circle cx="45.6" cy="84.7" r=".2"/><path d="M45.5 84.6c0 .1-.1.2-.2.2s-.2-.1-.2-.2.1-.2.2-.2c.1-.1.2 0 .2.2z"/><circle cx="45.1" cy="85" r=".2"/></g><g fill="#369946"><circle cx="47.7" cy="90.4" r=".2"/><circle cx="47.9" cy="90" r=".2"/><circle cx="47.5" cy="89.8" r=".2"/><circle cx="47.4" cy="90.2" r=".2"/></g><linearGradient id="h" x1="-932.308" x2="-930.159" y1="293.096" y2="293.096" gradientTransform="scale(2.7598 -2.7598) rotate(12.504 989.698 4437.823)" gradientUnits="userSpaceOnUse"><stop offset="0" stop-color="#ef5324"/><stop offset=".713" stop-color="#45180a"/><stop offset="1"/></linearGradient><path fill="url(#h)" stroke="#624119" stroke-width=".25" d="M33.2 64.8l1.8 1.7s-4.7 4-5.2 4.1c-.5.1 2.7-4.6 2.6-5.1.2-.6.8-.7.8-.7z"/><linearGradient id="i" x1="-932.033" x2="-929.884" y1="291.98" y2="291.98" gradientTransform="scale(2.7598 -2.7598) rotate(12.504 989.698 4437.823)" gradientUnits="userSpaceOnUse"><stop offset="0" stop-color="#ef5324"/><stop offset=".713" stop-color="#45180a"/><stop offset="1"/></linearGradient><path fill="url(#i)" stroke="#624119" stroke-width=".25" d="M34.6 67.7l1.8 1.7s-4.7 4-5.2 4.1c-.5.1 2.7-4.6 2.6-5.1.2-.6.8-.7.8-.7z"/><path fill="#F7F6F5" d="M51.8 60.5s0 .1-.1.2c-.2.6-.9 2.3-.9 3-.1.8 0 2.3.3 2.3.3.1.2-1 .2-1.4 0-.4.3-2.1.3-2.5" opacity=".14"/><linearGradient id="j" x1="686.132" x2="694.15" y1="411.691" y2="411.691" gradientTransform="matrix(2.3085 .00028 .00028 -2.7597 -1551.565 1199.103)" gradientUnits="userSpaceOnUse"><stop offset="0" stop-color="#fff2ca"/><stop offset=".436" stop-color="#ffeabc"/><stop offset="1" stop-color="#ffdda4"/></linearGradient><path fill="url(#j)" stroke="#F1B74F" stroke-width=".25" d="M49.5 56.6s1.2 3.7 1.2 4.8c0 1.1-.3 3-.1 4.5.1.4.4 1.3.3 1.7-.1.5-.7 1.4-2.2 1.9s-3.8.5-4.7.5c-1.3 0-7.8-.4-8.7-.9-.8-.6-1.4-.5-1.1-.6 1.2-.1-.5-1.2-.4-1.8.1-.7-1.4-.7-1.4-.7.6 0 5-5.7 7.1-6.7 2.2-1 4.3-2.9 6-2.9 1.8-.2 4 .2 4 .2z"/><linearGradient id="k" x1="757.118" x2="759.563" y1="409.973" y2="409.973" gradientTransform="matrix(2.0298 .00028 .00028 -2.7597 -1498.863 1198.866)" gradientUnits="userSpaceOnUse"><stop offset="0" stop-color="#ec1475"/><stop offset="1" stop-color="#fff5cb"/></linearGradient><ellipse cx="40.5" cy="67.7" fill="url(#k)" opacity=".13" rx="2.4" ry="2.3"/><ellipse cx="47.3" cy="63.3" fill="#030305" rx=".5" ry=".4" transform="rotate(-97.892 47.283 63.31)"/><ellipse cx="42.3" cy="64.2" fill="#030305" rx=".5" ry=".4" transform="rotate(-97.834 42.314 64.23)"/><linearGradient id="l" x1="842.789" x2="844.526" y1="34.298" y2="34.298" gradientTransform="matrix(1.6795 -1.5496 -1.1398 -2.2836 -1328.524 1452.506)" gradientUnits="userSpaceOnUse"><stop offset="0" stop-color="#ec1475"/><stop offset="1" stop-color="#fff5cb"/></linearGradient><path fill="url(#l)" d="M50.9 65.7c.5.8.3 2-.6 2.6-.9.6-2 .4-2.5-.4-.6-.8-.3-2 .6-2.6.8-.6 1.9-.4 2.5.4z" opacity=".13"/><path fill="none" stroke="#BD6428" stroke-width=".25" d="M44.4 65.3s.3-.6 1-.5c.7.1.9.5.9.5"/><linearGradient id="m" x1="-603.242" x2="-602.399" y1="-1229.999" y2="-1229.999" gradientTransform="matrix(1.6597 2.205 2.205 -1.6597 3748.408 -641.583)" gradientUnits="userSpaceOnUse"><stop offset="0" stop-color="#ef5324"/><stop offset=".713" stop-color="#45180a"/><stop offset="1"/></linearGradient><path fill="url(#m)" stroke="#624119" stroke-width=".25" d="M35.6 69.3s-.6.4-.9 1.3c-.3.9-.1 2.3-.1 2.3s.7-1.1 1.6-1.9 1.8-1.3 1.8-1.3l-2.4-.4z"/><linearGradient id="n" x1="-991.337" x2="-990.803" y1="83.722" y2="83.722" gradientTransform="scale(2.7597 -2.7597) rotate(3.9 1113.022 14772.072)" gradientUnits="userSpaceOnUse"><stop offset="0" stop-color="#ef5324"/><stop offset=".713" stop-color="#45180a"/><stop offset="1"/></linearGradient><path fill="url(#n)" stroke="#624119" stroke-width=".25" d="M34.7 68.4s-.4 1.8.2 2.5c.6.7 1.2.8 1.2.8s-.2-.8-.4-1.9c-.2-1.2-.5-1.6-.5-1.6l-.5.2z"/><linearGradient id="o" x1="-894.1" x2="-885.319" y1="409.813" y2="409.813" gradientTransform="scale(2.76 -2.76) rotate(16.493 1054.114 3312.487)" gradientUnits="userSpaceOnUse"><stop offset="0" stop-color="#ef5324"/><stop offset=".713" stop-color="#45180a"/><stop offset="1"/></linearGradient><path fill="url(#o)" d="M30.1 73.2s2.1-4.3 2.3-5.5c.2-1.2.6-1.9-.6-.5s-2.2 2.1-2.4 1.9c-.2-.2 2.4-5.9 2.5-6.4s.7-8.7 4.2-9.7c3.6-1.1 5.2.2 5.9.6.7.4 2.6-1.6 5.6.9 2.9 2.4 3.9 5.5 4.4 7.6.5 2.1.2 4.7 0 5.8-.2 1.1-1.4 1.6-1.4 1.6s.4-3.9-.4-6.9c-.6-2.2-4.3-5.6-4.7-5.5-.4 0-1 .1-.6.9.3.8.4 1.9.4 1.9s-1.2-2.3-1.5-1.4c-.2.8-.5 2.4-1.5 2.4s-.8-.7-1.1-1.7-.7 2.6-1.8 3.9c-1.1 1.3-2.1 2.4-2.2 2.2-.1-.2 0-1.1.1-1.3.1-.3-1.6 5.1-4.1 7.1-2.5 2-3.1 2.1-3.1 2.1z"/><linearGradient id="p" x1="-835.776" x2="-830.399" y1="328.451" y2="328.451" gradientTransform="matrix(2.7597 0 0 -2.7597 2342.688 982.45)" gradientUnits="userSpaceOnUse"><stop offset="0" stop-color="#8c2b8a"/><stop offset=".173" stop-color="#933992"/><stop offset=".501" stop-color="#a55da6"/><stop offset=".944" stop-color="#c298c6"/><stop offset="1" stop-color="#c6a0ca"/></linearGradient><path fill="url(#p)" d="M38.9 69.7S36 81.4 36.3 81.8c.3.4 7.4.7 9.2.5 4.7-.6 5.4-1.3 5.6-1.3.2 0-3-10.9-3.3-10.9-.4 0-2.8.1-4.3.1-1.5-.2-4.4-.5-4.6-.5z"/><path fill="#F7F7F8" d="M48.6 80.9s-.1 0-.2-.3c-.1-.2-2.2-2.8-1.6-2.9.4 0 2.2 2.9 2.3 2.8.1-.1-.4-.8-.6-1.2-.2-.5-1.6-2.9-1.7-3.3-.1-.3 1.8 2.4 2.1 2.8.3.5.8 1.3.9 1.1.1-.2-.1-.7-.3-1-.2-.2-1.2-1.5-1.2-1.7.1-.3 1.4 1.6 1.4 1.4 0-.2-1.1-1.7-1.1-1.9 0-.2.4.1.4.1s.6.4.6.3c0-.1-.7-.9-.9-1-.2-.1 0-.3.1-.3s.8.3.8.4.2.6.3 1c.2.5.5 1.3.6 1.6.1.3.4 1.3.4 1.6-.1.4-.9.7-1.1.8s-.6.3-.7.3c0 .2-.5-.7-.5-.6m-12 .6s-.4 0-.4-.3c0-.1 1.1-1.6 1.4-2.2.3-.5 1-2.1 1.3-2.1.3 0-.8 2.1-1.2 2.7-.2.6-1.1 1.9-1.1 1.9z" opacity=".21"/><path fill="#F7F7F8" stroke="#000" stroke-width=".25" d="M38.6 82c-.1 0-.7-.2-.6-1 .1-.7.4-1.1.5-1.3.1-.2.5-.4.1-.5-.3-.1-.9 1.1-1.1 1.5-.1.3-.5.8-.4.9.1.1.2.1.5.2.2.2 1 .2 1 .2z" opacity=".21"/><linearGradient id="q" x1="-833.134" x2="-832.958" y1="328.279" y2="328.279" gradientTransform="matrix(2.7597 0 0 -2.7597 2342.688 982.45)" gradientUnits="userSpaceOnUse"><stop offset="0" stop-color="#f9f29e"/><stop offset=".193" stop-color="#fbe776"/><stop offset=".455" stop-color="#fcdb47"/><stop offset=".686" stop-color="#fed224"/><stop offset=".876" stop-color="#ffcc0f"/><stop offset="1" stop-color="#ffca07"/></linearGradient><ellipse cx="43.7" cy="76.5" fill="url(#q)" rx=".2" ry=".3"/><linearGradient id="r" x1="-833.044" x2="-832.867" y1="328.463" y2="328.463" gradientTransform="matrix(2.7597 0 0 -2.7597 2342.688 982.45)" gradientUnits="userSpaceOnUse"><stop offset="0" stop-color="#f9f29e"/><stop offset=".193" stop-color="#fbe776"/><stop offset=".455" stop-color="#fcdb47"/><stop offset=".686" stop-color="#fed224"/><stop offset=".876" stop-color="#ffcc0f"/><stop offset="1" stop-color="#ffca07"/></linearGradient><ellipse cx="44" cy="76" fill="url(#r)" rx=".2" ry=".3"/><linearGradient id="s" x1="-833.208" x2="-833.032" y1="328.536" y2="328.536" gradientTransform="matrix(2.7597 0 0 -2.7597 2342.688 982.45)" gradientUnits="userSpaceOnUse"><stop offset="0" stop-color="#f9f29e"/><stop offset=".193" stop-color="#fbe776"/><stop offset=".455" stop-color="#fcdb47"/><stop offset=".686" stop-color="#fed224"/><stop offset=".876" stop-color="#ffcc0f"/><stop offset="1" stop-color="#ffca07"/></linearGradient><ellipse cx="43.5" cy="75.8" fill="url(#s)" rx=".2" ry=".3"/><linearGradient id="t" x1="-833.29" x2="-833.113" y1="328.353" y2="328.353" gradientTransform="matrix(2.7597 0 0 -2.7597 2342.688 982.45)" gradientUnits="userSpaceOnUse"><stop offset="0" stop-color="#f9f29e"/><stop offset=".193" stop-color="#fbe776"/><stop offset=".455" stop-color="#fcdb47"/><stop offset=".686" stop-color="#fed224"/><stop offset=".876" stop-color="#ffcc0f"/><stop offset="1" stop-color="#ffca07"/></linearGradient><ellipse cx="43.3" cy="76.3" fill="url(#t)" rx=".2" ry=".3"/><linearGradient id="u" x1="-833.145" x2="-832.968" y1="329.014" y2="329.014" gradientTransform="matrix(2.7597 0 0 -2.7597 2342.688 982.45)" gradientUnits="userSpaceOnUse"><stop offset="0" stop-color="#f9f29e"/><stop offset=".193" stop-color="#fbe776"/><stop offset=".455" stop-color="#fcdb47"/><stop offset=".686" stop-color="#fed224"/><stop offset=".876" stop-color="#ffcc0f"/><stop offset="1" stop-color="#ffca07"/></linearGradient><ellipse cx="43.7" cy="74.5" fill="url(#u)" rx=".2" ry=".3"/><linearGradient id="v" x1="-833.055" x2="-832.878" y1="329.198" y2="329.198" gradientTransform="matrix(2.7597 0 0 -2.7597 2342.688 982.45)" gradientUnits="userSpaceOnUse"><stop offset="0" stop-color="#f9f29e"/><stop offset=".193" stop-color="#fbe776"/><stop offset=".455" stop-color="#fcdb47"/><stop offset=".686" stop-color="#fed224"/><stop offset=".876" stop-color="#ffcc0f"/><stop offset="1" stop-color="#ffca07"/></linearGradient><ellipse cx="43.9" cy="74" fill="url(#v)" rx=".2" ry=".3"/><linearGradient id="w" x1="-833.219" x2="-833.042" y1="329.272" y2="329.272" gradientTransform="matrix(2.7597 0 0 -2.7597 2342.688 982.45)" gradientUnits="userSpaceOnUse"><stop offset="0" stop-color="#f9f29e"/><stop offset=".193" stop-color="#fbe776"/><stop offset=".455" stop-color="#fcdb47"/><stop offset=".686" stop-color="#fed224"/><stop offset=".876" stop-color="#ffcc0f"/><stop offset="1" stop-color="#ffca07"/></linearGradient><ellipse cx="43.5" cy="73.8" fill="url(#w)" rx=".2" ry=".3"/><linearGradient id="x" x1="-833.3" x2="-833.124" y1="329.088" y2="329.088" gradientTransform="matrix(2.7597 0 0 -2.7597 2342.688 982.45)" gradientUnits="userSpaceOnUse"><stop offset="0" stop-color="#f9f29e"/><stop offset=".193" stop-color="#fbe776"/><stop offset=".455" stop-color="#fcdb47"/><stop offset=".686" stop-color="#fed224"/><stop offset=".876" stop-color="#ffcc0f"/><stop offset="1" stop-color="#ffca07"/></linearGradient><ellipse cx="43.3" cy="74.3" fill="url(#x)" rx=".2" ry=".3"/><linearGradient id="y" x1="-833.179" x2="-833.002" y1="329.713" y2="329.713" gradientTransform="matrix(2.7597 0 0 -2.7597 2342.688 982.45)" gradientUnits="userSpaceOnUse"><stop offset="0" stop-color="#f9f29e"/><stop offset=".193" stop-color="#fbe776"/><stop offset=".455" stop-color="#fcdb47"/><stop offset=".686" stop-color="#fed224"/><stop offset=".876" stop-color="#ffcc0f"/><stop offset="1" stop-color="#ffca07"/></linearGradient><ellipse cx="43.6" cy="72.5" fill="url(#y)" rx=".2" ry=".3"/><linearGradient id="z" x1="-833.089" x2="-832.912" y1="329.896" y2="329.896" gradientTransform="matrix(2.7597 0 0 -2.7597 2342.688 982.45)" gradientUnits="userSpaceOnUse"><stop offset="0" stop-color="#f9f29e"/><stop offset=".193" stop-color="#fbe776"/><stop offset=".455" stop-color="#fcdb47"/><stop offset=".686" stop-color="#fed224"/><stop offset=".876" stop-color="#ffcc0f"/><stop offset="1" stop-color="#ffca07"/></linearGradient><ellipse cx="43.8" cy="72" fill="url(#z)" rx=".2" ry=".3"/><linearGradient id="A" x1="-833.253" x2="-833.076" y1="330.007" y2="330.007" gradientTransform="matrix(2.7597 0 0 -2.7597 2342.688 982.45)" gradientUnits="userSpaceOnUse"><stop offset="0" stop-color="#f9f29e"/><stop offset=".193" stop-color="#fbe776"/><stop offset=".455" stop-color="#fcdb47"/><stop offset=".686" stop-color="#fed224"/><stop offset=".876" stop-color="#ffcc0f"/><stop offset="1" stop-color="#ffca07"/></linearGradient><ellipse cx="43.4" cy="71.7" fill="url(#A)" rx=".2" ry=".3"/><linearGradient id="B" x1="-833.335" x2="-833.158" y1="329.786" y2="329.786" gradientTransform="matrix(2.7597 0 0 -2.7597 2342.688 982.45)" gradientUnits="userSpaceOnUse"><stop offset="0" stop-color="#f9f29e"/><stop offset=".193" stop-color="#fbe776"/><stop offset=".455" stop-color="#fcdb47"/><stop offset=".686" stop-color="#fed224"/><stop offset=".876" stop-color="#ffcc0f"/><stop offset="1" stop-color="#ffca07"/></linearGradient><ellipse cx="43.2" cy="72.3" fill="url(#B)" rx=".2" ry=".3"/><linearGradient id="C" x1="-835.813" x2="-835.564" y1="326.294" y2="326.294" gradientTransform="matrix(2.7597 0 0 -2.7597 2342.688 982.45)" gradientUnits="userSpaceOnUse"><stop offset="0" stop-color="#8c2b8a"/><stop offset=".173" stop-color="#933992"/><stop offset=".501" stop-color="#a55da6"/><stop offset=".944" stop-color="#c298c6"/><stop offset="1" stop-color="#c6a0ca"/></linearGradient><ellipse cx="36.4" cy="82" fill="url(#C)" rx=".3" ry=".4"/><linearGradient id="D" x1="-835.564" x2="-835.315" y1="326.257" y2="326.257" gradientTransform="matrix(2.7597 0 0 -2.7597 2342.688 982.45)" gradientUnits="userSpaceOnUse"><stop offset="0" stop-color="#8c2b8a"/><stop offset=".173" stop-color="#933992"/><stop offset=".501" stop-color="#a55da6"/><stop offset=".944" stop-color="#c298c6"/><stop offset="1" stop-color="#c6a0ca"/></linearGradient><ellipse cx="37.1" cy="82.1" fill="url(#D)" rx=".3" ry=".4"/><linearGradient id="E" x1="-835.313" x2="-835.065" y1="326.294" y2="326.294" gradientTransform="matrix(2.7597 0 0 -2.7597 2342.688 982.45)" gradientUnits="userSpaceOnUse"><stop offset="0" stop-color="#8c2b8a"/><stop offset=".173" stop-color="#933992"/><stop offset=".501" stop-color="#a55da6"/><stop offset=".944" stop-color="#c298c6"/><stop offset="1" stop-color="#c6a0ca"/></linearGradient><ellipse cx="37.8" cy="82" fill="url(#E)" rx=".3" ry=".4"/><linearGradient id="F" x1="-835.065" x2="-834.815" y1="326.257" y2="326.257" gradientTransform="matrix(2.7597 0 0 -2.7597 2342.688 982.45)" gradientUnits="userSpaceOnUse"><stop offset="0" stop-color="#8c2b8a"/><stop offset=".173" stop-color="#933992"/><stop offset=".501" stop-color="#a55da6"/><stop offset=".944" stop-color="#c298c6"/><stop offset="1" stop-color="#c6a0ca"/></linearGradient><ellipse cx="38.6" cy="82.1" fill="url(#F)" rx=".3" ry=".4"/><linearGradient id="G" x1="-834.809" x2="-834.56" y1="326.257" y2="326.257" gradientTransform="matrix(2.7597 0 0 -2.7597 2342.688 982.45)" gradientUnits="userSpaceOnUse"><stop offset="0" stop-color="#8c2b8a"/><stop offset=".173" stop-color="#933992"/><stop offset=".501" stop-color="#a55da6"/><stop offset=".944" stop-color="#c298c6"/><stop offset="1" stop-color="#c6a0ca"/></linearGradient><ellipse cx="39.2" cy="82.1" fill="url(#G)" rx=".3" ry=".4"/><linearGradient id="H" x1="-834.56" x2="-834.311" y1="326.221" y2="326.221" gradientTransform="matrix(2.7597 0 0 -2.7597 2342.688 982.45)" gradientUnits="userSpaceOnUse"><stop offset="0" stop-color="#8c2b8a"/><stop offset=".173" stop-color="#933992"/><stop offset=".501" stop-color="#a55da6"/><stop offset=".944" stop-color="#c298c6"/><stop offset="1" stop-color="#c6a0ca"/></linearGradient><ellipse cx="39.9" cy="82.2" fill="url(#H)" rx=".3" ry=".4"/><linearGradient id="I" x1="-834.061" x2="-833.812" y1="326.221" y2="326.221" gradientTransform="matrix(2.7597 0 0 -2.7597 2342.688 982.45)" gradientUnits="userSpaceOnUse"><stop offset="0" stop-color="#8c2b8a"/><stop offset=".173" stop-color="#933992"/><stop offset=".501" stop-color="#a55da6"/><stop offset=".944" stop-color="#c298c6"/><stop offset="1" stop-color="#c6a0ca"/></linearGradient><ellipse cx="41.3" cy="82.2" fill="url(#I)" rx=".3" ry=".4"/><linearGradient id="J" x1="-833.811" x2="-833.562" y1="326.221" y2="326.221" gradientTransform="matrix(2.7597 0 0 -2.7597 2342.688 982.45)" gradientUnits="userSpaceOnUse"><stop offset="0" stop-color="#8c2b8a"/><stop offset=".173" stop-color="#933992"/><stop offset=".501" stop-color="#a55da6"/><stop offset=".944" stop-color="#c298c6"/><stop offset="1" stop-color="#c6a0ca"/></linearGradient><ellipse cx="42" cy="82.2" fill="url(#J)" rx=".3" ry=".4"/><linearGradient id="K" x1="-833.562" x2="-833.313" y1="326.184" y2="326.184" gradientTransform="matrix(2.7597 0 0 -2.7597 2342.688 982.45)" gradientUnits="userSpaceOnUse"><stop offset="0" stop-color="#8c2b8a"/><stop offset=".173" stop-color="#933992"/><stop offset=".501" stop-color="#a55da6"/><stop offset=".944" stop-color="#c298c6"/><stop offset="1" stop-color="#c6a0ca"/></linearGradient><ellipse cx="42.6" cy="82.3" fill="url(#K)" rx=".3" ry=".4"/><linearGradient id="L" x1="-833.307" x2="-833.057" y1="326.184" y2="326.184" gradientTransform="matrix(2.7597 0 0 -2.7597 2342.688 982.45)" gradientUnits="userSpaceOnUse"><stop offset="0" stop-color="#8c2b8a"/><stop offset=".173" stop-color="#933992"/><stop offset=".501" stop-color="#a55da6"/><stop offset=".944" stop-color="#c298c6"/><stop offset="1" stop-color="#c6a0ca"/></linearGradient><ellipse cx="43.3" cy="82.3" fill="url(#L)" rx=".3" ry=".4"/><linearGradient id="M" x1="-833.064" x2="-832.814" y1="326.184" y2="326.184" gradientTransform="matrix(2.7597 0 0 -2.7597 2342.688 982.45)" gradientUnits="userSpaceOnUse"><stop offset="0" stop-color="#8c2b8a"/><stop offset=".173" stop-color="#933992"/><stop offset=".501" stop-color="#a55da6"/><stop offset=".944" stop-color="#c298c6"/><stop offset="1" stop-color="#c6a0ca"/></linearGradient><ellipse cx="44" cy="82.3" fill="url(#M)" rx=".3" ry=".4"/><linearGradient id="N" x1="-832.812" x2="-832.562" y1="326.221" y2="326.221" gradientTransform="matrix(2.7597 0 0 -2.7597 2342.688 982.45)" gradientUnits="userSpaceOnUse"><stop offset="0" stop-color="#8c2b8a"/><stop offset=".173" stop-color="#933992"/><stop offset=".501" stop-color="#a55da6"/><stop offset=".944" stop-color="#c298c6"/><stop offset="1" stop-color="#c6a0ca"/></linearGradient><ellipse cx="44.7" cy="82.2" fill="url(#N)" rx=".3" ry=".4"/><linearGradient id="O" x1="-832.566" x2="-832.317" y1="326.221" y2="326.221" gradientTransform="matrix(2.7597 0 0 -2.7597 2342.688 982.45)" gradientUnits="userSpaceOnUse"><stop offset="0" stop-color="#8c2b8a"/><stop offset=".173" stop-color="#933992"/><stop offset=".501" stop-color="#a55da6"/><stop offset=".944" stop-color="#c298c6"/><stop offset="1" stop-color="#c6a0ca"/></linearGradient><ellipse cx="45.5" cy="82.2" fill="url(#O)" rx=".3" ry=".4"/><linearGradient id="P" x1="-832.325" x2="-832.076" y1="326.257" y2="326.257" gradientTransform="matrix(2.7597 0 0 -2.7597 2342.688 982.45)" gradientUnits="userSpaceOnUse"><stop offset="0" stop-color="#8c2b8a"/><stop offset=".173" stop-color="#933992"/><stop offset=".501" stop-color="#a55da6"/><stop offset=".944" stop-color="#c298c6"/><stop offset="1" stop-color="#c6a0ca"/></linearGradient><ellipse cx="46.1" cy="82.1" fill="url(#P)" rx=".3" ry=".4"/><linearGradient id="Q" x1="-832.078" x2="-831.828" y1="326.331" y2="326.331" gradientTransform="matrix(2.7597 0 0 -2.7597 2342.688 982.45)" gradientUnits="userSpaceOnUse"><stop offset="0" stop-color="#8c2b8a"/><stop offset=".173" stop-color="#933992"/><stop offset=".501" stop-color="#a55da6"/><stop offset=".944" stop-color="#c298c6"/><stop offset="1" stop-color="#c6a0ca"/></linearGradient><ellipse cx="46.8" cy="81.9" fill="url(#Q)" rx=".3" ry=".4"/><linearGradient id="R" x1="-831.838" x2="-831.589" y1="326.368" y2="326.368" gradientTransform="matrix(2.7597 0 0 -2.7597 2342.688 982.45)" gradientUnits="userSpaceOnUse"><stop offset="0" stop-color="#8c2b8a"/><stop offset=".173" stop-color="#933992"/><stop offset=".501" stop-color="#a55da6"/><stop offset=".944" stop-color="#c298c6"/><stop offset="1" stop-color="#c6a0ca"/></linearGradient><ellipse cx="47.4" cy="81.8" fill="url(#R)" rx=".3" ry=".4"/><linearGradient id="S" x1="-831.593" x2="-831.344" y1="326.404" y2="326.404" gradientTransform="matrix(2.7597 0 0 -2.7597 2342.688 982.45)" gradientUnits="userSpaceOnUse"><stop offset="0" stop-color="#8c2b8a"/><stop offset=".173" stop-color="#933992"/><stop offset=".501" stop-color="#a55da6"/><stop offset=".944" stop-color="#c298c6"/><stop offset="1" stop-color="#c6a0ca"/></linearGradient><ellipse cx="48.1" cy="81.7" fill="url(#S)" rx=".3" ry=".4"/><linearGradient id="T" x1="-831.363" x2="-831.114" y1="326.478" y2="326.478" gradientTransform="matrix(2.7597 0 0 -2.7597 2342.688 982.45)" gradientUnits="userSpaceOnUse"><stop offset="0" stop-color="#8c2b8a"/><stop offset=".173" stop-color="#933992"/><stop offset=".501" stop-color="#a55da6"/><stop offset=".944" stop-color="#c298c6"/><stop offset="1" stop-color="#c6a0ca"/></linearGradient><ellipse cx="48.7" cy="81.5" fill="url(#T)" rx=".3" ry=".4"/><linearGradient id="U" x1="-831.134" x2="-830.885" y1="326.551" y2="326.551" gradientTransform="matrix(2.7597 0 0 -2.7597 2342.688 982.45)" gradientUnits="userSpaceOnUse"><stop offset="0" stop-color="#8c2b8a"/><stop offset=".173" stop-color="#933992"/><stop offset=".501" stop-color="#a55da6"/><stop offset=".944" stop-color="#c298c6"/><stop offset="1" stop-color="#c6a0ca"/></linearGradient><ellipse cx="49.3" cy="81.3" fill="url(#U)" rx=".3" ry=".4"/><linearGradient id="V" x1="-830.895" x2="-830.637" y1="326.625" y2="326.625" gradientTransform="matrix(2.7597 0 0 -2.7597 2342.688 982.45)" gradientUnits="userSpaceOnUse"><stop offset="0" stop-color="#8c2b8a"/><stop offset=".173" stop-color="#933992"/><stop offset=".501" stop-color="#a55da6"/><stop offset=".944" stop-color="#c298c6"/><stop offset="1" stop-color="#c6a0ca"/></linearGradient><circle cx="50" cy="81.1" r=".4" fill="url(#V)"/><linearGradient id="W" x1="-830.66" x2="-830.411" y1="326.699" y2="326.699" gradientTransform="matrix(2.7597 0 0 -2.7597 2342.688 982.45)" gradientUnits="userSpaceOnUse"><stop offset="0" stop-color="#8c2b8a"/><stop offset=".173" stop-color="#933992"/><stop offset=".501" stop-color="#a55da6"/><stop offset=".944" stop-color="#c298c6"/><stop offset="1" stop-color="#c6a0ca"/></linearGradient><ellipse cx="50.6" cy="80.9" fill="url(#W)" rx=".3" ry=".4"/><path fill="#FFF" d="M47 67.2s-3.1.9-5.6-.1c-2.5-1 1.5 3.2 5.6.1z"/><linearGradient id="X" x1="-26.189" x2="-25.183" y1="330.558" y2="330.558" gradientTransform="matrix(2.7597 0 0 -2.7597 114.128 982.45)" gradientUnits="userSpaceOnUse"><stop offset="0" stop-color="#fff2ca"/><stop offset=".436" stop-color="#ffeabc"/><stop offset="1" stop-color="#ffdda4"/></linearGradient><path fill="url(#X)" d="M44.6 70c-.6.4-.7.4-1.4.4-.6-.1-.8 0-1.4-.4 1 0 2 .1 2.8 0"/><linearGradient id="Y" x1="-28.091" x2="-26.805" y1="330.281" y2="330.281" gradientTransform="matrix(2.7597 0 0 -2.7597 114.128 982.45)" gradientUnits="userSpaceOnUse"><stop offset="0" stop-color="#8c2b8a"/><stop offset=".173" stop-color="#933992"/><stop offset=".501" stop-color="#a55da6"/><stop offset=".944" stop-color="#c298c6"/><stop offset="1" stop-color="#c6a0ca"/></linearGradient><path fill="url(#Y)" d="M39.3 69.7c-.8 0-1.2-.4-1.8.4-.4.5-.7 1.2-.8 1.8.7.1 2.7.8 3.3.1.6-.6-.3-2.2-1-2.3"/><linearGradient id="Z" x1="-835.698" x2="-835.521" y1="329.933" y2="329.933" gradientTransform="matrix(2.7597 0 0 -2.7597 2342.688 982.45)" gradientUnits="userSpaceOnUse"><stop offset="0" stop-color="#f9f29e"/><stop offset=".193" stop-color="#fbe776"/><stop offset=".455" stop-color="#fcdb47"/><stop offset=".686" stop-color="#fed224"/><stop offset=".876" stop-color="#ffcc0f"/><stop offset="1" stop-color="#ffca07"/></linearGradient><ellipse cx="36.6" cy="71.9" fill="url(#Z)" rx=".2" ry=".3"/><linearGradient id="aa" x1="-29.408" x2="-27.244" y1="328.408" y2="328.408" gradientTransform="matrix(2.7597 0 0 -2.7597 114.128 982.45)" gradientUnits="userSpaceOnUse"><stop offset="0" stop-color="#fff2ca"/><stop offset=".436" stop-color="#ffeabc"/><stop offset="1" stop-color="#ffdda4"/></linearGradient><path fill="url(#aa)" stroke="#F1B74F" stroke-width=".25" d="M37.4 72.2c-.4 1.4-.2 3-.8 4.4-.3.6-.8 1-1.5 1.1-.5.1-1.5-.2-1.7.4.2.1.7.1.9.1-.4 0-1.2.1-1.3.5.6.2 1.2 0 1.7-.1-.3.2-1.5.8-.8 1.1.5.2 1.3-.5 1.7-.7-.1.2-.6 1-.2 1.1.3 0 .6-.6.7-.8.4-.7 1-1.4 1.3-2.1.3-.7.6-1.6.8-2.4.3-.8.7-1.7.7-2.6"/><linearGradient id="ab" x1="-835.543" x2="-835.366" y1="329.86" y2="329.86" gradientTransform="matrix(2.7597 0 0 -2.7597 2342.688 982.45)" gradientUnits="userSpaceOnUse"><stop offset="0" stop-color="#f9f29e"/><stop offset=".193" stop-color="#fbe776"/><stop offset=".455" stop-color="#fcdb47"/><stop offset=".686" stop-color="#fed224"/><stop offset=".876" stop-color="#ffcc0f"/><stop offset="1" stop-color="#ffca07"/></linearGradient><ellipse cx="37.1" cy="72.1" fill="url(#ab)" rx=".2" ry=".3"/><linearGradient id="ac" x1="-835.364" x2="-835.187" y1="329.86" y2="329.86" gradientTransform="matrix(2.7597 0 0 -2.7597 2342.688 982.45)" gradientUnits="userSpaceOnUse"><stop offset="0" stop-color="#f9f29e"/><stop offset=".193" stop-color="#fbe776"/><stop offset=".455" stop-color="#fcdb47"/><stop offset=".686" stop-color="#fed224"/><stop offset=".876" stop-color="#ffcc0f"/><stop offset="1" stop-color="#ffca07"/></linearGradient><ellipse cx="37.5" cy="72.1" fill="url(#ac)" rx=".2" ry=".3"/><linearGradient id="ad" x1="-835.208" x2="-835.031" y1="329.786" y2="329.786" gradientTransform="matrix(2.7597 0 0 -2.7597 2342.688 982.45)" gradientUnits="userSpaceOnUse"><stop offset="0" stop-color="#f9f29e"/><stop offset=".193" stop-color="#fbe776"/><stop offset=".455" stop-color="#fcdb47"/><stop offset=".686" stop-color="#fed224"/><stop offset=".876" stop-color="#ffcc0f"/><stop offset="1" stop-color="#ffca07"/></linearGradient><ellipse cx="38.1" cy="72.3" fill="url(#ad)" rx=".2" ry=".3"/><linearGradient id="ae" x1="-835.051" x2="-834.875" y1="329.786" y2="329.786" gradientTransform="matrix(2.7597 0 0 -2.7597 2342.688 982.45)" gradientUnits="userSpaceOnUse"><stop offset="0" stop-color="#f9f29e"/><stop offset=".193" stop-color="#fbe776"/><stop offset=".455" stop-color="#fcdb47"/><stop offset=".686" stop-color="#fed224"/><stop offset=".876" stop-color="#ffcc0f"/><stop offset="1" stop-color="#ffca07"/></linearGradient><ellipse cx="38.5" cy="72.3" fill="url(#ae)" rx=".2" ry=".3"/><linearGradient id="af" x1="-834.895" x2="-834.718" y1="329.786" y2="329.786" gradientTransform="matrix(2.7597 0 0 -2.7597 2342.688 982.45)" gradientUnits="userSpaceOnUse"><stop offset="0" stop-color="#f9f29e"/><stop offset=".193" stop-color="#fbe776"/><stop offset=".455" stop-color="#fcdb47"/><stop offset=".686" stop-color="#fed224"/><stop offset=".876" stop-color="#ffcc0f"/><stop offset="1" stop-color="#ffca07"/></linearGradient><ellipse cx="38.9" cy="72.3" fill="url(#af)" rx=".2" ry=".3"/><linearGradient id="ag" x1="-834.705" x2="-834.528" y1="329.786" y2="329.786" gradientTransform="matrix(2.7597 0 0 -2.7597 2342.688 982.45)" gradientUnits="userSpaceOnUse"><stop offset="0" stop-color="#f9f29e"/><stop offset=".193" stop-color="#fbe776"/><stop offset=".455" stop-color="#fcdb47"/><stop offset=".686" stop-color="#fed224"/><stop offset=".876" stop-color="#ffcc0f"/><stop offset="1" stop-color="#ffca07"/></linearGradient><ellipse cx="39.4" cy="72.3" fill="url(#ag)" rx=".2" ry=".3"/><linearGradient id="ah" x1="-834.56" x2="-834.383" y1="329.86" y2="329.86" gradientTransform="matrix(2.7597 0 0 -2.7597 2342.688 982.45)" gradientUnits="userSpaceOnUse"><stop offset="0" stop-color="#f9f29e"/><stop offset=".193" stop-color="#fbe776"/><stop offset=".455" stop-color="#fcdb47"/><stop offset=".686" stop-color="#fed224"/><stop offset=".876" stop-color="#ffcc0f"/><stop offset="1" stop-color="#ffca07"/></linearGradient><ellipse cx="39.8" cy="72.1" fill="url(#ah)" rx=".2" ry=".3"/><linearGradient id="ai" x1="-831.303" x2="-831.127" y1="329.749" y2="329.749" gradientTransform="matrix(2.7597 0 0 -2.7597 2342.688 982.45)" gradientUnits="userSpaceOnUse"><stop offset="0" stop-color="#f9f29e"/><stop offset=".193" stop-color="#fbe776"/><stop offset=".455" stop-color="#fcdb47"/><stop offset=".686" stop-color="#fed224"/><stop offset=".876" stop-color="#ffcc0f"/><stop offset="1" stop-color="#ffca07"/></linearGradient><ellipse cx="48.8" cy="72.4" fill="url(#ai)" rx=".2" ry=".3"/><linearGradient id="aj" x1="-831.153" x2="-830.976" y1="329.823" y2="329.823" gradientTransform="matrix(2.7597 0 0 -2.7597 2342.688 982.45)" gradientUnits="userSpaceOnUse"><stop offset="0" stop-color="#f9f29e"/><stop offset=".193" stop-color="#fbe776"/><stop offset=".455" stop-color="#fcdb47"/><stop offset=".686" stop-color="#fed224"/><stop offset=".876" stop-color="#ffcc0f"/><stop offset="1" stop-color="#ffca07"/></linearGradient><ellipse cx="49.2" cy="72.2" fill="url(#aj)" rx=".2" ry=".3"/><linearGradient id="ak" x1="-831.019" x2="-830.842" y1="329.896" y2="329.896" gradientTransform="matrix(2.7597 0 0 -2.7597 2342.688 982.45)" gradientUnits="userSpaceOnUse"><stop offset="0" stop-color="#f9f29e"/><stop offset=".193" stop-color="#fbe776"/><stop offset=".455" stop-color="#fcdb47"/><stop offset=".686" stop-color="#fed224"/><stop offset=".876" stop-color="#ffcc0f"/><stop offset="1" stop-color="#ffca07"/></linearGradient><ellipse cx="49.6" cy="72" fill="url(#ak)" rx=".2" ry=".3"/><linearGradient id="al" x1="-830.868" x2="-830.691" y1="329.97" y2="329.97" gradientTransform="matrix(2.7597 0 0 -2.7597 2342.688 982.45)" gradientUnits="userSpaceOnUse"><stop offset="0" stop-color="#f9f29e"/><stop offset=".193" stop-color="#fbe776"/><stop offset=".455" stop-color="#fcdb47"/><stop offset=".686" stop-color="#fed224"/><stop offset=".876" stop-color="#ffcc0f"/><stop offset="1" stop-color="#ffca07"/></linearGradient><ellipse cx="50" cy="71.8" fill="url(#al)" rx=".2" ry=".3"/><path fill="#00854B" stroke="#96CD82" stroke-width=".25" d="M83.7 72.8c-.3.3-.4.7-.6 1-.3.4-.7.6-1 .9-.4.6-1 1.6-1.1 2.3-.2 1.3 1.2 2 2.2 2.3 1.1.3 2.5.1 2.8-1.2.2-.7.1-1.6 0-2.3-.1-.7-.2-1.6-.5-2.2-.3-.7-1-.8-1.6-.9"/><path fill="#00854B" stroke="#96CD82" stroke-width=".25" d="M87.1 67.7c-1.7-1.3-2.6.6-2.8 2-.1 1.1-.2 2.1-.2 3.2 0 .7.2 1.9-.1 2.5-.3-.7-.1-2.1-.1-2.9 0-1 .1-2 .2-3 .1-.8.1-2.2.9-2.6.9-.3 1.9.1 2.1.8"/><path fill="#F5E0AB" stroke="#F5E0AB" stroke-width=".25" d="M83.5 70.2c0 .5-.3 4.1.3 4.3.6.2 1.4-1.2 1.6-1.6.3-.7.5-1.8.4-2.6m11.2.2c.3 1.8.4 3.8.6 5.6 0 .6.1.9.4 1.5.2.4.6 1 .3 1.4-.4-.2-.4-.6-.6-.9.3.6.3 1.3.1 2-.4 0-.3-.9-.4-1.3 0 .3.2 1-.1 1.2-.5.3-.3-.9-.3-1 0 .3 0 .8-.2.9-.3-.3-.1-1.5-.3-2-.2-.8-.5-1.4-.6-2.2-.1-.9-.1-1.7-.3-2.6-.1-.8.2-1.8-.2-2.5"/><path fill="#F26C21" stroke="#F26C21" stroke-width=".25" d="M94.6 68.2c2.3-1.9 2.2 1.7 2.9 2.9-1 .1-1.9-.2-2.9.1-.1-.3-.1-.7-.2-1.1"/><path fill="#E9BA8B" stroke="#CB905E" stroke-width=".25" d="M92.4 65.1c-.5.4-.6 1-1.3 1.5-.5.3-1.5.4-2.1.5-1.4.4-2.5.3-4 .4"/><path fill="#F5E0AB" stroke="#F5E0AB" stroke-width=".25" d="M88.9 81.1l-.5 1.5-1.3 2.1-1.1-1.5.6-1-.5-1.4zm4.3-.7v1.7c0 .4-.1 1.4-.1 1.4l-2-.2v-2.9h2.1z"/><path fill="#233E98" stroke="#030303" stroke-width=".25" d="M96.9 76.4s-2.3 4.1-2.5 4.6c-.2.5-3.9 0-3.9 0l-.6-1.4"/><path fill="#233E98" stroke="#030303" stroke-width=".25" d="M96.6 76.4s-4.1 3.2-5.5 4c-1.3.7-4.8 1.1-5 .4l-.4-1.2-.8-3.1 11.7-.1z"/><path fill="#A7D38B" d="M98.5 89.5s-4.4-.6-4.8-1c-.5-.4-.6-5.8-.6-5.8H91v6.8c0 .5 2.4.5 3.3.5h2.9c1-.1 1.3-.5 1.3-.5z"/><ellipse cx="91.5" cy="88.6" fill="#00854B" stroke="#96CD82" stroke-width=".25" rx=".4" ry=".3"/><circle cx="91.7" cy="87.8" r=".2" fill="#00854B" stroke="#96CD82" stroke-width=".25"/><circle cx="91.2" cy="87.5" r=".2" fill="#00854B" stroke="#96CD82" stroke-width=".25"/><circle cx="91.6" cy="87.2" r=".2" fill="#00854B" stroke="#96CD82" stroke-width=".25"/><circle cx="91.1" cy="86.8" r=".1" fill="#00854B" stroke="#96CD82" stroke-width=".25"/><path fill="#00854B" stroke="#96CD82" stroke-width=".25" d="M93.1 83.3l-2.1.1v-.5h2.1zm0 .6H91v-.4h2.1z"/><path fill="#F26C21" stroke="#F26C21" stroke-width=".25" d="M95 67.3s1.7 8.1 1.7 8.6-3.8.5-5.4.5c-1.6 0-6 .4-6.4 0-.4-.4.6-8.1.9-8.9.3-.9.1.1 0 0-.2-.2 3.2-.4 4.3 0 1.8.8 4.9-.2 4.9-.2z"/><path fill="#A7D38B" d="M89.8 91.3s-3.4-2-3.7-2.6c-.2-.6 2.2-5.9 2.2-5.9l-1.8-.7s-2.8 6.1-3.1 6.7c-.2.5 1.8 1.4 2.5 1.6.7.3 1.7.7 2.5 1 .9.3 1.4-.1 1.4-.1z"/><path fill="#00854B" stroke="#96CD82" stroke-width=".25" d="M83.8 88c-.1.2 0 .4.1.5.2.1.4 0 .5-.2s0-.4-.2-.5c-.1-.1-.3 0-.4.2zm.6-.6c-.1.1 0 .3.1.3s.3 0 .3-.1c.1-.1 0-.3-.1-.3-.1-.1-.2-.1-.3.1zm-.1-.6c0 .1 0 .2.1.2s.2 0 .2-.1 0-.2-.1-.2c-.1-.1-.2 0-.2.1zm.5-.2c0 .1 0 .2.1.2s.2 0 .2-.1 0-.2-.1-.2-.2 0-.2.1zm-.2-.4v.2s.1 0 .2-.1v-.2c-.1-.1-.2 0-.2.1zm3.4-2.7l-1.8-.7.1-.4 1.9.7zm-.2.6l-1.9-.7.2-.4 1.8.7z"/><path fill="#233E98" stroke="#030303" stroke-width=".25" d="M89.6 76.7v-4.4c0-.5-.3-1.7.1-2.1.5-.5 2.4-1.3 3.1-1.3 2.5-.2 2.8 1.3 3.4 3.1.5 1.3.9 3 .3 4.5l-.5 1.1"/><path fill="#233E98" stroke="#030303" stroke-width=".25" d="M89.7 70.6c.4-2.6-2.3-2.8-4.2-3.1 2.1-1.7 4.7 0 5.5 2.2-.2.4-.6.6-1.1.6m4-1.2c-.3-.3-.3-.8-.1-1.4.4-.1 1-.4 1.4-.4-.1.8-.4 2-1.3 1.9"/><g stroke-width=".25"><path fill="#0E829F" stroke="#0E829F" d="M89.4 76.8H87v2.4s.2.6 1.2.4c1.2-.3 1 0 1.1-.1.7-.7.1-2.7.1-2.7z"/><path fill="#FBB216" stroke="#FBB216" d="M89.5 76.8s-.2 1-.9 1.1c-.7.1-.8.2-1.1.1-.3-.1-.5-.1-.5-.2v-1h2.5z"/><path fill="#DF214F" stroke="#030303" d="M87.7 77.8h.6v.9h-.6z"/></g><path fill="#233E98" d="M89.7 74.2s-2.4 1-3 .3L85.2 73s-.3 2.7-.1 3.6l1.1 4.4 3 .2 4-1.2"/><path fill="#E4AF80" stroke="#CB905E" stroke-width=".25" d="M91.2 66.2c.5 0 1.3.3 1.2.9-.1.6-1.2.5-1.6.5-1 0-2.4 0-3.3-.4 1.2-.2 2.4-.2 3.6-.9"/><path fill="none" stroke="#000" stroke-width=".25" d="M94.9 64c-.8.4-1.5.5-2.1 0"/><path fill="#F5E0AB" stroke="#F5E0AB" stroke-width=".25" d="M80.5 60s-.8-.7-1.2-.4c-.3.4-.6 1.2-.6 1.7s.9 1.7 1.1 1.7h.8l-.1-3z"/><path fill="#F5E0AB" stroke="#F5E0AB" stroke-width=".25" d="M101.7 62s.2 3.1-.3 3.7-2.4 2.1-6.7 2.1c-4.3 0-6.7-.4-8.2-.4s-2.6-.7-3.7-1.2-1.8-1.7-2-2.5c-.2-.8-.4-1.8-.2-2.1.2-.2-1-3-1-3.6 0-2.8 8.9-2.1 11.6-2.1 2.6 0 9.7 2.3 10.1 2.8.4.6.4 3.3.4 3.3z"/><path fill="#F5E0AB" stroke="#F5E0AB" stroke-width=".25" d="M101.7 62s.8-.7 1.2-.4c.3.4.6 1.2.6 1.7s-.9 1.7-1.1 1.7h-.8l.1-3z"/><linearGradient id="am" x1="-785.996" x2="-784.318" y1="332.874" y2="332.874" gradientTransform="rotate(180 -1040.872 491.225) scale(2.7597)" gradientUnits="userSpaceOnUse"><stop offset="0" stop-color="#ec1475"/><stop offset="1" stop-color="#fff5cb"/></linearGradient><ellipse cx="85" cy="63.8" fill="url(#am)" opacity=".1" rx="2.3" ry="2.6"/><linearGradient id="an" x1="-788.433" x2="-790.105" y1="332.616" y2="332.616" gradientTransform="rotate(180 -1040.872 491.225) scale(2.7597)" gradientUnits="userSpaceOnUse"><stop offset="0" stop-color="#ec1475"/><stop offset="1" stop-color="#fff5cb"/></linearGradient><ellipse cx="96.4" cy="64.5" fill="url(#an)" opacity=".1" rx="2.3" ry="2.6"/><path fill="#FFF" d="M82 63.4c.8.3 2.8 1.8 8.1 2 7.4.3 10-1.2 10-1.2s-6.6 3.6-13 1.4c-3.4-1-5.1-2.2-5.1-2.2z"/><path fill="none" stroke="#B09A31" stroke-width=".25" d="M91.2 63.2s-.3-.7-1.1-.6-.9.7-.9.7"/><path fill="#030305" d="M85.6 59.3c0 .3.8.5 1 .6.2 0 .4 0 .5-.2 0-.3-.1-.2-.3-.2-.3-.1-1.2-.5-1.2-.2zm9.3.6c-.1-.3-.9-.1-1.1 0s-.4.2-.4.4c.1.3.2.1.4 0 .1 0 1.2-.1 1.1-.4z"/><path fill="#1D110B" d="M100.5 62c.2.8 0 1.5-.1 2.3 1.8.3 1.3-1.7 1.2-2.8-.2-1.9.1-4.4-1.3-5.7-2.3-2.3-6-3.6-8.9-3.9-2.9-.3-8-.2-9.3 1.7-.9 1.4-2.7 2.5-2.6 4.4.2 5 .6 4.9 1 5 .6-2.1 1.1-5.7 3.6-6.3-.1.2-.1.5-.1.7 2.1.4 4.1-.2 6.3-.2s4.5.1 6.6.8c-.1-.2-.2-.5-.4-.7.9-.1 1.8 1.5 2.4 2.1.8.8 1.9 1.5 1.9 2.9"/><path fill="#F26C21" stroke="#F26C21" stroke-width=".25" d="M86.8 68.2c-.8-.8-1.8-.8-2.4-.1-.3.4-.5.9-.8 1.4-.4.6-.7.6 0 .9.8.4 2.8.8 3.7.3.5-.3.2-.5 0-1.1-.2-.4-.3-.9-.5-1.4"/><path fill="#F5E0AB" stroke="#F5E0AB" stroke-width=".25" d="M84.4 72.1c.9-.9 1.8-2.1 2.2-3.3.1-.3.1-1.1.4-1.4.5-.5.5.4.4.7.1-.2.2-.9.5-1 .6-.2.6.5.6.9.1-.1.2-.2.3-.2.3.7-.3 1.5-.7 2.2-.5.8-1 1.7-1.6 2.5-.5.6-.9 1.3-1.6 1.7-.8.5-1.7.5-1.4-.6l.9-1.5z"/><path fill="#989898" d="M82.9 74.9c-.5.6-.9 1.5-1.1 2.3-.1.3-.2.7-.1 1.1 0 .4.2.5.5.7.1-1.5.4-2.7 1.1-4-.2 0-.3-.1-.4-.1"/><path fill="none" stroke="#676767" d="M82 79c-.1-.2-.3-.5-.3-.7h.4c0-.3-.3-.5-.4-.7.1 0 .3.1.5 0-.1-.3-.2-.5-.2-.8.1.1.3.1.4.1 0-.3-.2-.6-.3-.8.2 0 .4.1.6.1 0-.3 0-.6-.1-.8.2 0 .4 0 .6-.1"/><path fill="#D1ECF2" d="M22.9.3L22 129.7H.6L.7.1z"/><path fill="#CB9866" d="M17.3.4l.2 109.7 7.4.4L24.7.4zM126.8.2l-.2 109h7.4L134.1 0z"/><path fill="#D1ECF2" d="M.9 101.3l135.5-1.7 9 30.2-144.5.1z"/><linearGradient id="ao" x1="34.559" x2="26.939" y1="332.274" y2="332.393" gradientTransform="matrix(2.7597 0 0 -2.7597 114.128 982.45)" gradientUnits="userSpaceOnUse"><stop offset="0" stop-color="#d1ecf2"/><stop offset="1" stop-color="#98cbcb"/></linearGradient><path fill="url(#ao)" d="M201.7 129.7V1.3h17.9V130z"/><path fill="#CB9866" d="M17.5 101.2l116.5-.6 3.4 3.6L16.8 108z"/><path fill="#CB9866" d="M16.8 107l.3 2.8 117.3-3.3 3-3.3z"/><path fill="#FFF" d="M97 21.2c.1-1.2-1.2-2.2-1.8-.9-1.1-1.4-3.1-1.1-3.2.8-1.8 0-4.5.9-2.1 2.2 1.4.8 3.3.7 4.3-.7.7.9 1.4.8 2.3.9.3 0 .5-.5.8-.6.4 0 1 .5 1.4.4 2-.5 2.5-3 .2-2v-.7c-.6-.1-1.3 0-1.7.4" opacity=".37"/><path fill="#FFF" d="M115.9 7.1c-.4-2-2-3.7-4-2-2.4-2.6-4.2-2.2-5.5 1-2.1-1.2-4.4-.6-4.7 2-2.2-.1-4.8 0-4 3 1.3.6 2.8.5 4-.2 1.8 3.4 4.9.7 7.1.3 1.9-.3 3.9 1.1 5.6-.7 1.6 1.7 5.7 2.8 5.7-.6-.4 0-.8-.1-1.2-.1 1.7-2-1.6-3.4-3-2.7M72 9.9c-.2-2.5 2.5-4.2 4.6-3 1.5-2.4 5.4-2.9 6.2.2 2.6-1.3 5.9.8 3.6 3.3 0 0-3.4 1.1-3.7 1.1-1.6.1-3-.1-4.1-1.4-1 2.1-6 1.9-6.7 0" opacity=".51"/><circle cx="94.1" cy="12.5" r="6" fill="#F8EE6B" opacity=".77"/><linearGradient id="ap" x1="-11.958" x2="-7.64" y1="321.534" y2="321.534" gradientTransform="matrix(2.7597 0 0 -2.7597 114.128 982.45)" gradientUnits="userSpaceOnUse"><stop offset="0" stop-color="#cee194"/><stop offset="1" stop-color="#98cb66"/></linearGradient><path fill="url(#ap)" d="M86 97.9c-1.4-1.9-3.3-3.1-5-5 2.2-.4 3.7 1.3 5.6 1.6-.1-.9.4-1.5.4-2.2 1.3.1 1.7 1.6 2.5 2.5.9-1 2.1-1.5 3.3-1.6-.2 1.5-1.5 2.6-1.6 4.3"/><path fill="#FCCB98" stroke="#CB9866" stroke-width=".25" d="M74.8 61.4c.4 1.3.4 2.7.8 4.1.3 1 1.3 2.6.8 3.8-.6 1.1-2.9 1.7-4 1.9-1.7.3-3.8.4-5.5.4-2.3 0-7.1-.3-8.8-2-2-2.1 1.6-4.7 3.3-6.5l3.9-3.2 4.5.3 5 1.2zm-3.5 11.9c.5 1.5 1.6 3 2 4.7.1.5.6 3.3-.3 3.1 0-.2 0-.5-.1-.7 0 .2-.1.5-.4.4-.2-.5-.2-1.2-.5-1.8-.3-.6-.4-1.2-.7-1.9-.5-1.1-1.2-2.6-1.3-3.9.3 0 .5-.1.8-.3"/><path fill="#FFF" stroke="#989898" stroke-width=".25" d="M70.1 71.5c.6.8 1.4 1.1 2.1 2-.6.6-2.1.6-2.9.4"/><path fill="#E9BA8B" stroke="#CB905E" stroke-width=".25" d="M69.6 82.1s.6 1 .8 1.3c.2.3.5.9.5.9l-1.5.9L68 83"/><path fill="#FBB216" d="M77.9 87.3s-3.2 1.4-3.8 1.2c-.6-.1-3.1-4.2-3.1-4.2l-1.5.9s2.9 4.8 3.1 5.2c.2.4 1.9-.6 2.5-1 .6-.3 1.4-.8 2-1.2.7-.4.8-.9.8-.9z"/><circle cx="72.6" cy="89.6" r=".3" fill="#00854B" stroke="#96CD82" stroke-width=".25"/><circle cx="72.4" cy="88.9" r=".2" fill="#00854B" stroke="#96CD82" stroke-width=".25"/><circle cx="71.9" cy="88.8" r=".1" fill="#00854B" stroke="#96CD82" stroke-width=".25"/><circle cx="72" cy="88.4" r=".1" fill="#00854B" stroke="#96CD82" stroke-width=".25"/><circle cx="71.5" cy="88.4" r=".1" fill="#00854B" stroke="#96CD82" stroke-width=".25"/><path fill="#00854B" stroke="#96CD82" stroke-width=".25" d="M71.3 84.9l-1.4.8-.2-.3 1.4-.9z"/><path fill="#FFF" d="M65.1 66.4s-.8-3.4.1-4.3c.9-.8 2.2-.7 2.8-.5.6.2 2.1.7 2.5.8.4.1 1.1.2 1.4-.1s1.1-1 1.9-.8c.8.1.9.2.9.2l.1 4s-.4.6-1.6.6c-1.2 0-1.7.2-1.7.2s.1-1.9-.6-2.1c-.7-.2-1.3 1.3-1.3 1.4 0 .1-.1.7-.1.7l-4.4-.1z"/><path fill="#00854B" stroke="#96CD82" stroke-width=".25" d="M71.6 85.3l-1.5.9-.2-.3 1.5-.9z"/><path fill="#E9BA8B" stroke="#CB905E" stroke-width=".25" d="M62.7 83.1v2.5h1.7V83l-1.7.1z"/><linearGradient id="aq" x1="-19.465" x2="-15.05" y1="326.631" y2="326.631" gradientTransform="matrix(2.7597 0 0 -2.7597 114.128 982.45)" gradientUnits="userSpaceOnUse"><stop offset="0" stop-color="#f4ea0b"/><stop offset="1" stop-color="#73be44"/></linearGradient><path fill="url(#aq)" stroke="#5CB747" stroke-width=".25" d="M60.4 78.6s.1 4.7.9 4.8c.8.1 4.1 0 4.5-.1.4-.1.7-2.3.7-2.3s.4 2.3.5 2.4c.1.1 2.4.1 3.2-.1.8-.1 2.2-.3 2.3-.5.1-.3-.6-3.7-.7-3.7-.1 0-6.6.1-7.1.1-.4 0-3.3-.4-3.6-.4-.1 0-.7-.2-.7-.2z"/><path fill="#FBB216" d="M69.1 91.8s-3.9-.6-4.3-.9c-.4-.4-.5-5.2-.5-5.2h-1.7v6.1c0 .5 2 .5 2.6.5h2.3c.9-.1 1.6-.5 1.6-.5z"/><path fill="none" stroke="#CB905E" stroke-width=".25" d="M64.6 83.5l-1.7.1"/><circle cx="63.1" cy="90.9" r=".3" fill="#00854B" stroke="#96CD82" stroke-width=".25"/><circle cx="63" cy="90.1" r=".2" fill="#00854B" stroke="#96CD82" stroke-width=".25"/><circle cx="63.3" cy="89.8" r=".1" fill="#00854B" stroke="#96CD82" stroke-width=".25"/><circle cx="63" cy="89.5" r=".1" fill="#00854B" stroke="#96CD82" stroke-width=".25"/><circle cx="63.4" cy="89.2" r=".1" fill="#00854B" stroke="#96CD82" stroke-width=".25"/><path fill="#64BB47" d="M61.1 83.6s.1 0 .1-.2c-.1-.2-.3-.5-.3-.5.1 0 .6.6.7.4.1-.1-.1-.8-.3-1.2-.2-.4-.8-1.4-.7-1.4s.5.8.8 1.2c.3.4.8 1.1.9 1 .1-.1-.1-.6-.3-.9s-.8-1.1-.6-1.1c.2 0 .8.9.9.7 0-.1-.3-1-.3-1.2v-.3s.2.3.2.2c0-.1-.2-.7-.4-.8-.2-.1-.5-.2-.4-.2.1 0 .8.3.8.4s.2.5.3.9c.2.4.5 1.1.6 1.4.1.2.4 1.1.4 1.4-.1.3-.7.2-.9.2-.2.1-1.2 0-1.3 0-.1 0-.2-.1-.2 0" opacity=".63"/><path fill="#0E829F" stroke="#0E829F" stroke-width=".25" d="M69.7 80.1h2v2.2s-.1.5-1 .3c-1-.2-.8 0-.9-.1-.5-.7-.1-2.4-.1-2.4z"/><path fill="#FBB216" stroke="#FBB216" stroke-width=".25" d="M69.7 80.1s.1.9.7 1c.6.1.6.1.9.1.3-.1.4 0 .4-.2v-.9h-2z"/><path fill="#DF214F" stroke="#030303" stroke-width=".25" d="M70.7 80.9h.5v.8h-.5z"/><path fill="#FFF" stroke="#989898" stroke-width=".25" d="M62.1 71.1s-2.6 6.8-2.6 7.2c0 .4 4.5 1.1 5.8 1.1s6.8.1 7.1-.2c.3-.3-1.8-6.1-2-6.9-.2-.8-.3-.7-.2-.8.2-.1-3 .1-3.9.1-1 .1-4.2-.5-4.2-.5z"/><path fill="#F7F7F8" d="M61.7 78.9c-.1 0-.7-.2-.6-1 .1-.7.4-1.1.5-1.3.1-.2.5-.4.1-.5-.3-.1-.9 1.1-1.1 1.5-.1.3-.5.8-.4.9.1.1.2.1.5.2s1 .2 1 .2z" opacity=".21"/><path fill="#00854B" stroke="#96CD82" stroke-width=".25" d="M62.7 86v.4l1.7-.1V86zm0 .5v.4h1.7v-.4z"/><linearGradient id="ar" x1="4159.942" x2="4160.491" y1="21.425" y2="21.425" gradientTransform="matrix(3.2 -.2017 -.2605 -2.7514 -13249.476 966.105)" gradientUnits="userSpaceOnUse"><stop offset="0" stop-color="#ffedc4"/><stop offset=".322" stop-color="#ffe6b6"/><stop offset=".928" stop-color="#ffd592"/><stop offset="1" stop-color="#ffd38d"/></linearGradient><path fill="url(#ar)" stroke="#F3B77F" stroke-width=".25" d="M57.5 67s-.6-.5-.9-.2-.5.9-.5 1.2c0 .3.9 1.1 1.1 1.1h.7l-.4-2.1z"/><linearGradient id="as" x1="4474.135" x2="4475.888" y1="410.014" y2="410.014" gradientTransform="matrix(2.8295 .00028 .00028 -2.7597 -12597.1 1198.866)" gradientUnits="userSpaceOnUse"><stop offset="0" stop-color="#ec1475"/><stop offset="1" stop-color="#fff5cb"/></linearGradient><ellipse cx="65.1" cy="68.6" fill="url(#as)" opacity=".13" rx="2.4" ry="2.2"/><linearGradient id="at" x1="3917.816" x2="3919.162" y1="-2052.63" y2="-2052.63" gradientTransform="matrix(2.3413 -1.5496 -1.5888 -2.2836 -12361.54 1452.506)" gradientUnits="userSpaceOnUse"><stop offset="0" stop-color="#ec1475"/><stop offset="1" stop-color="#fff5cb"/></linearGradient><path fill="url(#at)" d="M75.6 67c.5.8.3 1.9-.6 2.5-.9.6-2 .4-2.5-.4s-.3-1.9.6-2.5c.9-.5 2-.3 2.5.4z" opacity=".13"/><path fill="#F7F6F5" d="M74.9 59.2s-4.2-2.3-5.9-2.4c-1.7 0-5 1.6-5.1 1.6-.1.1.2.1.4 0 .1 0 3.3-1.3 3.8-1.4.4-.1.7-.2.9-.2.1 0 .4.2.7.4.3.2.7.5.9.7.2.2.5.5.7.6.2.1.4.2 1 .3.5.1 2.6.4 2.6.4zm-16.4 7.6s0 .1.1.2c.2.5.9 2 1 2.6.1.7 0 1.9-.3 2-.3.1-.2-.9-.2-1.2 0-.4-.3-1.8-.3-2.2" opacity=".14"/><path fill="none" d="M71.4 66.9c.6-1-.8-1.3-1-.2"/><linearGradient id="au" x1="2540.723" x2="2543.86" y1="1514.278" y2="1514.278" gradientTransform="matrix(-2.4832 1.3625 -1.41 -2.3998 8505.81 224.606)" gradientUnits="userSpaceOnUse"><stop offset="0" stop-color="#060708"/><stop offset=".419" stop-color="#080c1b"/><stop offset="1" stop-color="#0c163b"/></linearGradient><path fill="url(#au)" stroke="#000" stroke-width=".25" d="M57.4 51.6l-.6-.1-1.2 1.2s.5-.1.6.2c.1.3-.4.8-.4.8s-.3.3-.2.6c.1.2 0 .7.3.6.3-.2.7-.1.7-.1l.2.4s-1.9.5-2.2.7c-.3.2-.1.5-.1.5l1-.2-.2.6-.2.5-.6.3.1.2s.1-.3.4-.2c.5-.1.4.2.4.2l.2.4s2.4-1.6 3.3-2c.9-.4 3.6-1 3.6-1.1 0-.2.1-.5.2-.7.1-.2.2-.5 0-.4-.2.1-.7.6-.9.5-.2 0 0-.6 0-.6s-.4.4-.6.3c-.2-.1-.4-.4-.4-.4l.6-.3-.2-.4s-.9.8-1.1.6l-.3-.6s.6-.1.5-.3c-.1-.2-.7-.1-.9 0-.2.1-.6.3-.8.5-.2.1-.7 0-.7 0l.2-.6v-.4l-.6.1-.6-.1.3-.2.2-.5z"/><linearGradient id="av" x1="2910.783" x2="2918.314" y1="333.504" y2="333.504" gradientTransform="matrix(-2.8557 0 0 -2.7597 8387.307 982.45)" gradientUnits="userSpaceOnUse"><stop offset="0" stop-color="#060708"/><stop offset=".419" stop-color="#080c1b"/><stop offset="1" stop-color="#0c163b"/></linearGradient><path fill="url(#av)" stroke="#000" stroke-width=".25" d="M74.8 61.6c.2-.7-.3-1.5-.6-2.2-.3-.7-.8-1.9-1.5-2.3-2-1.3-2-1.3-3.7-1.7-1.4-.4-3.7-.4-5-.6-1.3-.3-3.3-.2-4.8 0-1.7.2-3.3 2-4.5 3.6-1 1.3-1.8 3.3-1.3 4.9 1.2 4.1 5.4 10 5.9 4 .1-1.3 3.3-.5 4.7-1.1 1-.4.8-1.3.7-2.2-.1-1-.1-1.4.9-1.9 1.6-.9 3-.2 4.7.4 1.2.5 1.4-.1 2.4-.6.8-.6 1.5-.5 2.1-.3"/><path fill="none" stroke="#D2793C" stroke-width=".255" d="M71.1 66.5c-.1-1-.9-.6-1.1.2"/><ellipse cx="68.1" cy="64.9" fill="#030305" rx=".4" ry=".5"/><ellipse cx="73.3" cy="64.7" fill="#030305" rx=".4" ry=".5"/><path fill="#1379A9" d="M71.6 66.5s.1-2.2-.7-2.1c-.8.1-1.2 2.1-1.2 2.1l-4.6-.2s-1-3.7.3-4.3c1.8-.8 2.2-.7 5.6.4.4.3.6-.1 1.9-.9.4-.2 1.5 0 1.8 0 .3.1.3 1 .2 1.7-.1.7 0 1.7 0 2.3.1.8-3.3 1-3.3 1z" opacity=".36"/><path fill="none" stroke="#D2793C" stroke-width=".255" d="M67.3 68.5c3.6 1.3 4.1 1.5 6.9-.3"/><circle cx="63.5" cy="74.3" r=".1" fill="#F5F093"/><circle cx="63.5" cy="74.3" r=".1" fill="#030305"/><path fill="#FFF" stroke="#989898" stroke-width=".25" d="M62.2 71.1c-1.1-.1-3.2.5-4.1 1.3.6 1 2.6 1.4 3.7 1.3"/><path fill="#FCCB98" stroke="#CB9866" stroke-width=".25" d="M59.8 67c-1-.9-2 0-1.8 1.2.1.7 1.9 2.3 2.3 1.1"/><path fill="#B49B6B" d="M66 73.8s-.2.5 0 1.3.3 1.1.8.9c.5-.1.4-.4.3-.9 0-.4-.3-1.2-.6-1.3H66zm-1.8-1.4s-.5.3-1.3.2c-.9-.1-1.1-.1-1.1-.6s.4-.4.8-.5c.4 0 1.2.1 1.4.4.1.3.2.5.2.5zm-4.7 4.5s-.1-.6-.1-.8c0-.2.5-1.4 1-1.5.5-.2.7-.2.9-.1.2.1 2.1.9 2.5 1.2.4.3 1.7 1.5 1.7 1.8 0 .3-.1.7-.2.9-.1.1-1.2 1.1-1.6 1.2-.3.1-1.3.3-2.1.1-.8-.3-1.3-.7-1.4-.9-.1-.3-.7-1.9-.7-1.9z"/><linearGradient id="aw" x1="-1542.106" x2="-1542.106" y1="-93.974" y2="-92.503" gradientTransform="matrix(2.1457 1.7356 1.7356 -2.1457 3532.784 2553.67)" gradientUnits="userSpaceOnUse"><stop offset="0" stop-color="#f48343"/><stop offset=".132" stop-color="#f48648"/><stop offset=".279" stop-color="#f58f55"/><stop offset=".432" stop-color="#f69d6b"/><stop offset=".589" stop-color="#f8b28a"/><stop offset=".75" stop-color="#faccb2"/><stop offset=".912" stop-color="#fdece2"/><stop offset="1" stop-color="#fff"/></linearGradient><path fill="url(#aw)" d="M61.5 75s-.5.2-.6.4c-.2.2-.5.7-.6.8 0 .2-.2 2.1.7 2.6s2.4.2 2.9-.3.7-1.1.7-1.3c0-.2-.9-1.3-1.2-1.5-.2-.1-1.9-.7-1.9-.7z" opacity=".42"/><path fill="#F48343" d="M62.1 75.5s0 .5.8 1.1c.7.5 1.2.5 1.3.5.1 0 .3-.1.3-.1s-.7-1.2-.9-1.3c-.1-.1-.6-.2-.8-.3l-.7.1z"/><path fill="#B49B6B" d="M63.4 75.8s.2 0 .3.1c.1.2.8 1.2.9 1.2.2.1.7.3 1-.2.4-.5.1-.9 0-1.2s.3-1 .4-1.3c.1-.3.2-.8.1-1s-.3-.3-.4-.5c-.2-.1-1-.6-1.2-.7-.2-.1-.5-.1-.8 0-.3.2-.6.4-.8.6-.1.1-.3.3-.3.4l-.2.2c.1.1-.7 0-1 .2-.2.2-.4.6-.2.9.2.3.5.7.9.8l.6.2c.4.3.7.3.7.3z"/><path fill="#F48343" d="M63.6 75.1s.1-.2.3-.1c.1.1.1.2.1.3 0 .1-.2.1-.3 0-.1-.1-.1-.2-.1-.2z"/><path fill="#B49B6B" d="M59.6 77.5s-.3.9.2 1c.4.1.5 0 .6-.3.1-.3.1-.5.2-.6.1-.1.3-.1.4-.2.1-.1.1-.2 0-.3 0-.1-.3-.1-.3-.1s-.1-.2-.2-.2h-.2c-.1 0-.3-.2-.4-.1-.2 0-.3.2-.3.3 0 .1 0 .1.1.4l-.1.1zm2.6 1.8s.7.2.7.5-.1.5-.1.5-.3.2-.7.1c-.4-.2-.6-.3-.6-.4 0-.1.3-.3.3-.5 0-.1.2-.3.2-.3 0 .1.2.1.2.1z"/><linearGradient id="ax" x1="-1542.488" x2="-1541.947" y1="-91.204" y2="-91.204" gradientTransform="matrix(2.1457 1.7356 1.7356 -2.1457 3532.784 2553.67)" gradientUnits="userSpaceOnUse"><stop offset="0" stop-color="#ec0d74"/><stop offset=".094" stop-color="#ef2d6a"/><stop offset=".225" stop-color="#f2545e"/><stop offset=".362" stop-color="#f57354"/><stop offset=".503" stop-color="#f78c4c"/><stop offset=".652" stop-color="#f99d46"/><stop offset=".811" stop-color="#faa843"/><stop offset="1" stop-color="#faab42"/></linearGradient><path fill="url(#ax)" d="M65.1 71.9s.4.2.4.3c.1.1.3-.1.3 0s.1.3 0 .4c-.1.1-.2.1-.2.2s.3.3.1.5c-.1.2-.2.3-.3.1s-.1-.3-.2-.3-.1.3-.2.1c-.1-.2-.1-.3-.1-.3h-.3c0-.1.1-.2.1-.2s-.3-.1-.2-.2.1-.2.2-.1.3.1.4 0c0-.1-.1-.4-.1-.4l.1-.1z"/><linearGradient id="ay" x1="-1541.947" x2="-1541.736" y1="-90.728" y2="-90.728" gradientTransform="matrix(2.1457 1.7356 1.7356 -2.1457 3532.784 2553.67)" gradientUnits="userSpaceOnUse"><stop offset="0" stop-color="#ec0d74"/><stop offset=".094" stop-color="#ef2d6a"/><stop offset=".225" stop-color="#f2545e"/><stop offset=".362" stop-color="#f57354"/><stop offset=".503" stop-color="#f78c4c"/><stop offset=".652" stop-color="#f99d46"/><stop offset=".811" stop-color="#faa843"/><stop offset="1" stop-color="#faab42"/></linearGradient><path fill="url(#ay)" d="M67.1 71.9l.2.4c.1.2 0 .2 0 .3-.1.1-.2.3-.2.1v-.8z"/><path fill="#B49B6B" d="M60.3 75.1s-.4-.3-.5-.2c-.1.1-.1.3-.1.5 0 .1.1.3 0 .4-.1 0-.4.1-.5 0-.1-.1-.5-.4-.4-.6.1-.2.1-.3.2-.3s.2.2.2.2.1-.4.4-.5c.3-.1.6-.1.8 0l.2.2-.3.3zm4.3 3.3l.3-.2c.1 0 .3.2.4.5.1.3.1.4.1.5-.1.1-.6.4-.7.4-.1 0 0 .2-.2.3-.2 0-.4 0-.5-.3-.1-.3-.1-.6 0-.7.1-.1.3-.1.4-.1.1.1 0 .4.1.4s.7-.2.6-.3l-.5-.5zm-.2-6.2s.2-.1.2-.2-.1-.2 0-.4l.4-.4.1-.1-.2.1s-.3.2-.3.3c0 0-.2.2-.1.2 0 .1.1.1.1.2-.2.2-.3.3-.2.3z"/><linearGradient id="az" x1="-1542.659" x2="-1542.511" y1="-90.767" y2="-90.767" gradientTransform="matrix(2.1457 1.7356 1.7356 -2.1457 3532.784 2553.67)" gradientUnits="userSpaceOnUse"><stop offset="0" stop-color="#ec0d74"/><stop offset=".094" stop-color="#ef2d6a"/><stop offset=".225" stop-color="#f2545e"/><stop offset=".362" stop-color="#f57354"/><stop offset=".503" stop-color="#f78c4c"/><stop offset=".652" stop-color="#f99d46"/><stop offset=".811" stop-color="#faa843"/><stop offset="1" stop-color="#faab42"/></linearGradient><path fill="url(#az)" d="M65.7 71h-.3c-.1 0-.2 0-.2.1s-.2.3-.1.2c.2 0 .3-.1.5-.2.1 0 .1-.1.1-.1z"/><path fill="#F48343" d="M59.9 76.9s0 .2-.1.3c-.1 0-.2 0-.3-.1 0-.1.1-.2.2-.2.1-.1.2 0 .2 0zm.1.4s.4.1.3.5c-.1.3-.3.6-.4.5-.1 0-.2-.3-.1-.6s.2-.4.2-.4zm.4 0s.1-.2.2-.1.1.1.1.2c-.1.1-.2.1-.3-.1 0 .1 0 0 0 0zm-.3-.2s.1-.1.2-.1c.1.1.1.2.1.2h-.2l-.1-.1zm1.8 3.3s.1-.2.2-.1.1.1.1.2c-.1 0-.2 0-.3-.1zm-.4-.3s.1-.1.2-.1c.1.1.1.2.1.2h-.2c-.1 0-.1-.1-.1-.1zm.9.4s0-.2.1-.2.2.1.2.1-.1.1-.2.1h-.1z"/><path fill="#B49B6B" d="M66.3 73.5s0-.2.1-.2.3.2.5 0c.1-.2.3-.5.3-.5l.1-.1v.3s-.1.4-.2.4c0 .1-.1.2-.2.2s-.2-.1-.3-.1c-.1 0-.3.1-.3 0z"/><linearGradient id="aA" x1="-1542.612" x2="-1542.58" y1="-92.336" y2="-92.336" gradientTransform="matrix(2.1457 1.7356 1.7356 -2.1457 3532.784 2553.67)" gradientUnits="userSpaceOnUse"><stop offset="0" stop-color="#ec0d74"/><stop offset=".094" stop-color="#ef2d6a"/><stop offset=".225" stop-color="#f2545e"/><stop offset=".362" stop-color="#f57354"/><stop offset=".503" stop-color="#f78c4c"/><stop offset=".652" stop-color="#f99d46"/><stop offset=".811" stop-color="#faa843"/><stop offset="1" stop-color="#faab42"/></linearGradient><path fill="url(#aA)" d="M62.7 74.6s-.1 0 0 0c-.1 0-.1-.1 0 0-.1-.1 0-.1 0 0 0-.1 0-.1 0 0z"/><linearGradient id="aB" x1="-1542.517" x2="-1542.485" y1="-92.356" y2="-92.356" gradientTransform="matrix(2.1457 1.7356 1.7356 -2.1457 3532.784 2553.67)" gradientUnits="userSpaceOnUse"><stop offset="0" stop-color="#ec0d74"/><stop offset=".094" stop-color="#ef2d6a"/><stop offset=".225" stop-color="#f2545e"/><stop offset=".362" stop-color="#f57354"/><stop offset=".503" stop-color="#f78c4c"/><stop offset=".652" stop-color="#f99d46"/><stop offset=".811" stop-color="#faa843"/><stop offset="1" stop-color="#faab42"/></linearGradient><path fill="url(#aB)" d="M62.8 74.8s0-.1 0 0c0-.1 0-.1 0 0 .1-.1.1-.1 0 0z"/><linearGradient id="aC" x1="-1542.478" x2="-1542.445" y1="-92.474" y2="-92.474" gradientTransform="matrix(2.1457 1.7356 1.7356 -2.1457 3532.784 2553.67)" gradientUnits="userSpaceOnUse"><stop offset="0" stop-color="#ec0d74"/><stop offset=".094" stop-color="#ef2d6a"/><stop offset=".225" stop-color="#f2545e"/><stop offset=".362" stop-color="#f57354"/><stop offset=".503" stop-color="#f78c4c"/><stop offset=".652" stop-color="#f99d46"/><stop offset=".811" stop-color="#faa843"/><stop offset="1" stop-color="#faab42"/></linearGradient><path fill="url(#aC)" d="M62.7 75.1c-.1 0-.1-.1 0 0 0-.1 0-.1 0 0 .1-.1.1 0 0 0z"/><linearGradient id="aD" x1="-1542.573" x2="-1542.541" y1="-92.419" y2="-92.419" gradientTransform="matrix(2.1457 1.7356 1.7356 -2.1457 3532.784 2553.67)" gradientUnits="userSpaceOnUse"><stop offset="0" stop-color="#ec0d74"/><stop offset=".094" stop-color="#ef2d6a"/><stop offset=".225" stop-color="#f2545e"/><stop offset=".362" stop-color="#f57354"/><stop offset=".503" stop-color="#f78c4c"/><stop offset=".652" stop-color="#f99d46"/><stop offset=".811" stop-color="#faa843"/><stop offset="1" stop-color="#faab42"/></linearGradient><path fill="url(#aD)" d="M62.6 74.8c-.1 0-.1 0 0 0 0-.1 0-.1 0 0 0-.1 0 0 0 0z"/><linearGradient id="aE" x1="-1541.836" x2="-1541.804" y1="-92.323" y2="-92.323" gradientTransform="matrix(2.1457 1.7356 1.7356 -2.1457 3532.784 2553.67)" gradientUnits="userSpaceOnUse"><stop offset="0" stop-color="#ec0d74"/><stop offset=".094" stop-color="#ef2d6a"/><stop offset=".225" stop-color="#f2545e"/><stop offset=".362" stop-color="#f57354"/><stop offset=".503" stop-color="#f78c4c"/><stop offset=".652" stop-color="#f99d46"/><stop offset=".811" stop-color="#faa843"/><stop offset="1" stop-color="#faab42"/></linearGradient><path fill="url(#aE)" d="M64.3 75.9s0-.1 0 0c0-.1 0-.1 0 0 .1-.1.1-.1 0 0z"/><linearGradient id="aF" x1="-1541.774" x2="-1541.743" y1="-92.379" y2="-92.379" gradientTransform="matrix(2.1457 1.7356 1.7356 -2.1457 3532.784 2553.67)" gradientUnits="userSpaceOnUse"><stop offset="0" stop-color="#ec0d74"/><stop offset=".094" stop-color="#ef2d6a"/><stop offset=".225" stop-color="#f2545e"/><stop offset=".362" stop-color="#f57354"/><stop offset=".503" stop-color="#f78c4c"/><stop offset=".652" stop-color="#f99d46"/><stop offset=".811" stop-color="#faa843"/><stop offset="1" stop-color="#faab42"/></linearGradient><path fill="url(#aF)" d="M64.4 76.1s-.1 0 0 0c-.1 0-.1 0 0 0-.1-.1 0-.1 0 0 0-.1 0 0 0 0z"/><linearGradient id="aG" x1="-1541.752" x2="-1541.72" y1="-92.267" y2="-92.267" gradientTransform="matrix(2.1457 1.7356 1.7356 -2.1457 3532.784 2553.67)" gradientUnits="userSpaceOnUse"><stop offset="0" stop-color="#ec0d74"/><stop offset=".094" stop-color="#ef2d6a"/><stop offset=".225" stop-color="#f2545e"/><stop offset=".362" stop-color="#f57354"/><stop offset=".503" stop-color="#f78c4c"/><stop offset=".652" stop-color="#f99d46"/><stop offset=".811" stop-color="#faa843"/><stop offset="1" stop-color="#faab42"/></linearGradient><path fill="url(#aG)" d="M64.6 75.9c-.1 0-.1-.1 0 0 0-.1 0-.1 0 0 0-.1 0-.1 0 0z"/><linearGradient id="aH" x1="-1541.808" x2="-1541.776" y1="-92.211" y2="-92.211" gradientTransform="matrix(2.1457 1.7356 1.7356 -2.1457 3532.784 2553.67)" gradientUnits="userSpaceOnUse"><stop offset="0" stop-color="#ec0d74"/><stop offset=".094" stop-color="#ef2d6a"/><stop offset=".225" stop-color="#f2545e"/><stop offset=".362" stop-color="#f57354"/><stop offset=".503" stop-color="#f78c4c"/><stop offset=".652" stop-color="#f99d46"/><stop offset=".811" stop-color="#faa843"/><stop offset="1" stop-color="#faab42"/></linearGradient><path fill="url(#aH)" d="M64.6 75.7s-.1 0 0 0c-.1 0-.1-.1 0 0-.1-.1 0-.1 0 0 0-.1 0-.1 0 0z"/><path fill="#B49B6B" d="M60.4 74.7c.1 0 .2.2.2.2l-.1.2-.2.1v-.1l.1-.4zm4.4 3.3c.1 0 .2.2.2.2l-.1.2-.2.1v-.1l.1-.4z"/><circle cx="63.6" cy="74.2" r=".1" fill="#010103"/><circle cx="64.8" cy="75" r=".1" fill="#010103"/><path fill="none" d="M63.4 74.9s.3-.1.5.1.2.4.2.5"/><linearGradient id="aI" x1="-1542.627" x2="-1542.22" y1="-92.004" y2="-92.004" gradientTransform="matrix(2.1457 1.7356 1.7356 -2.1457 3532.784 2553.67)" gradientUnits="userSpaceOnUse"><stop offset="0" stop-color="#ec0d74"/><stop offset=".094" stop-color="#ef2d6a"/><stop offset=".225" stop-color="#f2545e"/><stop offset=".362" stop-color="#f57354"/><stop offset=".503" stop-color="#f78c4c"/><stop offset=".652" stop-color="#f99d46"/><stop offset=".811" stop-color="#faa843"/><stop offset="1" stop-color="#faab42"/></linearGradient><path fill="url(#aI)" d="M64 74.5c-.2.2-.5.2-.7 0-.2-.2-.3-.5-.1-.7.2-.2.5-.2.7 0 .2.1.3.4.1.7z"/><circle cx="63.6" cy="74.2" r=".3" fill="#3A2814"/><path fill="#FCCB98" stroke="#CB9866" stroke-width=".25" d="M60.3 73.7c-.5.6-.9.8-1.4 1.4.6.6 2 1.4 2.9 1.3.4 0 .9-.4 1.3-.2.7.3-.2.5-.5.6.4 0 1.1-.1 1.4.3.5.6-.4.5-.9.6.3.2.9.3 1.1.7-.4.1-.9 0-1.3-.1.3.2.7.4.7.8-.5.1-.9-.3-1.3-.6.2.3.6.9-.1.8-.4-.1-.8-.7-1.1-.9-.8-.6-1.6-1.1-2.4-1.6-.6-.4-1.8-1-1.2-1.8.5-.7 1.1-.9 1.7-1.5"/><path fill="none" stroke="#70BF66" stroke-miterlimit="10" stroke-width=".5" d="M65.1 66.4s-.9-3.8.1-4.3 1.9-.7 2.4-.6c.5.1 2.9.8 2.9.8s.6.2.9.1 1.1-.9 1.4-1c.3 0 1-.3 1.9.1.4 1.4.3 2.5.3 2.5v1.7l-2.1.5-1.2.2s0-2.1-.6-2.1-1.2 1-1.3 2.1h-4.7z"/><path fill="#70BF66" d="M64.7 64.8l-6 1.4-.1.3.8.1 5.3-.9z"/><path fill="#70BF66" d="M58.7 66.2l-.7.7.6-.4.9-.3z"/><linearGradient id="aJ" x1="-834.3" x2="-834.051" y1="326.221" y2="326.221" gradientTransform="matrix(2.7597 0 0 -2.7597 2342.688 982.45)" gradientUnits="userSpaceOnUse"><stop offset="0" stop-color="#8c2b8a"/><stop offset=".173" stop-color="#933992"/><stop offset=".501" stop-color="#a55da6"/><stop offset=".944" stop-color="#c298c6"/><stop offset="1" stop-color="#c6a0ca"/></linearGradient><ellipse cx="40.6" cy="82.2" fill="url(#aJ)" rx=".3" ry=".4"/><path fill="#D1ECF2" d="M25.1.7v102h102V.7z" opacity=".35"/><path fill="#FFF" d="M26 33.3c3.8-1.4 7.9-6.3 10.9-9.1 3.3-3.2 6.9-6.4 10.1-9.5C49.3 12.4 59.6 5 59.4 1.6c-7.4-2.4-13.9-.4-19.9 4-4.1 2.8-13.3 6.9-14.9 10.9M67.9 1.4L25.6 41v18.2L78.3 1.8z" opacity=".32"/><path fill="#C82029" d="M149.8 51.7l-7.7-.2-.7-6.1 9.1.1z"/><path fill="none" stroke="#CB9798" stroke-width=".25" d="M115 114.8l-1.8 15m35.7-36.5l1.1 9.3"/><path fill="#FACBCB" d="M148.5 89.5L123 87.2c-.7.4-3.2 10.8-3.9 13-1.4 5.5-2.9 11.8-4.1 17.3-1.4 6.7-.8 5.8-1.8 12.3l39.6.4-4.3-40.7z"/><path fill="#FCEA03" stroke="#F2BA1A" stroke-width=".25" d="M157.5 117.8c1.4.1 2.7 1.9 3.8 2.8.8.7 2.6 1.5 2.8 2.7-.4 0-.8.2-1.2.1.5 1.3-.6 2.5-2 2.4-1.4-.1-2.4-1.9-3.2-2.9"/><path fill="#FCEA03" stroke="#F2BA1A" stroke-width=".25" d="M160.7 130.3l-4-13.3-10.2.2c-.4 2.9-.9 6-1.2 8.9-.1 1.2-.4 2.8-.6 4.3"/><path fill="#F7E42C" stroke="#F7E42C" stroke-width=".25" d="M148.7 106c-4.9 1.2-6.1 5.7-3.8 9.8 2.4 4.2 9.8 4.1 12.8.5 4.7-5.6-1.1-11.4-6.2-10.3h-2.8z"/><ellipse cx="155.2" cy="114.7" fill="#E48D25" stroke="#E48D25" rx="4.4" ry="4.9" transform="rotate(79.146 155.158 114.666)"/><g fill="#020202"><path d="M150.046 104.282l.787-.142.302 1.673-.787.142z"/><circle cx="150.2" cy="103.6" r=".9"/><path d="M146.55 104.892l.788-.143.305 1.67-.787.14z"/><circle cx="146.9" cy="104.1" r=".9"/></g><path fill="#FCEA03" stroke="#F2BA1A" d="M146 107.1c-1.2-.6-3.9-.9-4.7.5-1.2 2 1.4 2.8 2.8 2.7"/><path fill="#FCEA03" stroke="#F2BA1A" stroke-width=".25" d="M153.2 105.8c-.5-1.4 1.1-4.1 2.7-3.6 1.7.6 1.8 3.8.4 4.7"/><circle cx="153.4" cy="114.4" r=".7" fill="#020202" stroke="#020202"/><circle cx="158" cy="113.4" r=".7" fill="#020202" stroke="#020202"/><circle cx="148.3" cy="110.5" r=".3" fill="#020202" stroke="#020202"/><circle cx="153.9" cy="108.5" r=".3" fill="#020202" stroke="#020202"/><path fill="#302512" d="M145.6 116.4c1.2-2.2 4.9.4 2.9 2.1-.1-.1-2.1-.3-2.9-2.1z"/><path fill="#FCEA03" stroke="#F2BA1A" stroke-width=".25" d="M146.2 118.9c-.1 1.7-1.8 4.1-2.6 5.7-.6 1.2-2.4 3.1-2.4 4.5.2-.1.5 0 .7-.1 0 2.4 3.2.8 4-.2 1.1-1.5 1.3-3.9 2.2-5.6"/><ellipse cx="154.2" cy="123.6" fill="#302512" rx="1.7" ry="1.6"/><ellipse cx="149.3" cy="128.2" fill="#302512" rx="1.5" ry="1.4"/><path fill="#FCEA03" stroke="#F2BA1A" stroke-width=".5" d="M147.8 122.5c-.3-1.3-.6-2.8-.9-4"/><linearGradient id="aK" x1="225.168" x2="236.151" y1="219.721" y2="219.721" gradientTransform="scale(2.7597 -2.7597) rotate(5.796 2518.84 -1771.438)" gradientUnits="userSpaceOnUse"><stop offset="0" stop-color="#653614"/><stop offset="1" stop-color="#996733"/></linearGradient><path fill="url(#aK)" stroke="#653614" stroke-width=".25" d="M126.1 29.6c-5.3-2.5-8.5-5.5-14.9-4.4-9.4 1.7-11.9 9.3-12.9 17.9-1.7 15.1 3.6 29.7 5.8 44.5.3 1.8.6 4 1.3 5.6-.2-1.4-.3-3 .2-4.5.4 1.9 1.1 4.4 2 5.9 0-2.4 0-4.9 1.2-7.1 1.5-2.8 3.8-4.3 4.5-7.7 1.5-7.5 1.7-15.3 1.3-22.9-.5-9.1 4.1-14.9 8.8-22.1"/><path fill="#FACBCB" stroke="#CB9798" stroke-width=".25" d="M118.9 92c-5.5 5-6.2 14.9-5.2 21.4 4.3-.2 11.5.7 13.2-3.3 1.9-4.6.1-13.3-.7-15.1.1-.1-3.1-6.9-7.3-3z"/><linearGradient id="aL" x1="11.104" x2="4.801" y1="350.037" y2="309.695" gradientTransform="matrix(2.7597 0 0 -2.7597 114.128 982.45)" gradientUnits="userSpaceOnUse"><stop offset="0" stop-color="#fff2ca"/><stop offset=".436" stop-color="#ffeabc"/><stop offset="1" stop-color="#ffdda4"/></linearGradient><path fill="url(#aL)" stroke="#F1B74F" stroke-width=".25" d="M116.8 113.1c1.6 4.2 4.4 8.9 6.5 12.9 3.9.9 9.4-3.4 12.5-5.5 1.8-1.2 10.1-5.9 5-8-4.2 3.1-9 5.6-13.6 7.5-1.6-1.8-2.7-5.3-3.3-7.6"/><path fill="#C82029" d="M130.1 35.1c-2.3-3.3-.4-6.5-6.3-4.9-2.7.7-8 2.2-9.9 4.4 1.1.8 2.5 3.4 3.8 3.9 1.1.4 2.7-.5 4-.8 2.2-.6 6.6-.8 8.1-2.3"/><linearGradient id="aM" x1="-4.099" x2="26.243" y1="320.755" y2="345.338" gradientTransform="matrix(2.7597 0 0 -2.7597 114.128 982.45)" gradientUnits="userSpaceOnUse"><stop offset="0" stop-color="#fff2ca"/><stop offset=".436" stop-color="#ffeabc"/><stop offset="1" stop-color="#ffdda4"/></linearGradient><path fill="url(#aM)" stroke="#F1B74F" stroke-width=".25" d="M164.8 82.6c.2 2.8-.6 4.2-1.1 5.2-1.9 3.9-6.9 4.7-15.8 4.9-11.4.3-22.7.3-29.4-8-4.9-6.2-1.3-8.9-3.6-15.3-2.9-8.6-1.9-16.2 3.1-23.8 3.7-5.5 7.5-6.8 13.1-9.4 8.7-4.1 14.5.4 23.4 3.6l2.6 5.8c4.7 3.6 5.4 8.9 7.3 14.6 2.2 6.5-2.7 13.3-1.3 17.4.2 0 1.5 2.2 1.7 5z"/><path fill="#996733" stroke="#653614" stroke-width=".25" d="M131 61.2c-2.1.7-6.3 7.5-5.8 10 1.3 6.9-5.2 9.7-7 13.9-21.5-12.3-14.3-33.6-4-44.9 9.5-10.5 25-7.3 36.7-3.8 9.5 2.9 18.8 14.1 19.4 24.4-2-.5-5.5 1.4-6.8 0-.9-1-.9-4.9-1.6-6.2-1.7-3.2-3-6.9-6.5-8.2.2 3.7 4 10 1.8 13.9-6.7-.4-16.2 1.1-23.8.6l-2.4.3z"/><path fill="#060708" d="M147.5 72.7c-.2.8.2 1.5.9 1.7.6.1 1.3-.4 1.4-1.2.2-.8-.2-1.5-.9-1.7-.7-.2-1.3.4-1.4 1.2z"/><linearGradient id="aN" x1="-5.424" x2="24.918" y1="322.391" y2="346.974" gradientTransform="matrix(2.7597 0 0 -2.7597 114.128 982.45)" gradientUnits="userSpaceOnUse"><stop offset="0" stop-color="#fff2ca"/><stop offset=".436" stop-color="#ffeabc"/><stop offset="1" stop-color="#ffdda4"/></linearGradient><path fill="url(#aN)" stroke="#F1B74F" stroke-width=".25" d="M126.9 69.3c-9-8.6-11.3 10.5-1.9 9.9"/><path fill="none" stroke="#CB9866" stroke-width=".5" d="M152.8 89.3c-1.1 0-2.8-.1-4 .3"/><linearGradient id="aO" x1="-1079.004" x2="-1074.287" y1="535.112" y2="535.112" gradientTransform="matrix(-2.556 -1.0407 1.0407 -2.556 -3171.08 330.36)" gradientUnits="userSpaceOnUse"><stop offset="0" stop-color="#ec1475"/><stop offset="1" stop-color="#fff5cb"/></linearGradient><path fill="url(#aO)" d="M143.7 85.5c-1.3 3.3-5.2 4.9-8.5 3.6-3.3-1.3-5-5.2-3.6-8.4 1.3-3.3 5.2-4.9 8.5-3.6 3.4 1.3 5.1 5 3.6 8.4z" opacity=".13"/><path fill="#060708" d="M159.3 73.3c-.2.8.2 1.5.9 1.7.6.1 1.3-.4 1.4-1.2.2-.8-.2-1.5-.9-1.7-.6-.1-1.3.4-1.4 1.2z"/><path fill="none" stroke="#CB9866" stroke-width=".75" d="M156.8 77.6c1.6-.2 2.4 1.6 1.5 2.6"/><linearGradient id="aP" x1="-1085.808" x2="-1082.894" y1="537.377" y2="537.377" gradientTransform="matrix(-2.556 -1.0407 1.0407 -2.556 -3171.08 330.36)" gradientUnits="userSpaceOnUse"><stop offset="0" stop-color="#ec1475"/><stop offset="1" stop-color="#fff5cb"/></linearGradient><path fill="url(#aP)" d="M163.5 86.8c-1.3 3.3-4.2 5.4-6.2 4.5-2-.8-2.6-4.2-1.3-7.5s4.2-5.4 6.2-4.5c2.1.8 2.6 4.1 1.3 7.5z" opacity=".13"/><path fill="#F7F6F5" d="M146.4 37.9c4 1.6 6.8 3.6 10.1 6.1-3.2-1-6.7-5.5-10-4.2 1.4 2.7 1.9 7.3 2.6 10.4.8 3.9-.2 6.7-5.2 5.1-3.6-1.2-2.3-4.9-1.6-8.3.6-2.9 1-7.2 3.1-9.5" opacity=".14"/><path fill="none" stroke="#CB9866" d="M161.9 70.2c.3.2.8.6 1.2.8m-11.2-2.7c-1.1.8-2.3 1.1-3.2 1"/><linearGradient id="aQ" x1="16.186" x2="9.883" y1="349.242" y2="308.901" gradientTransform="matrix(2.7597 0 0 -2.7597 114.128 982.45)" gradientUnits="userSpaceOnUse"><stop offset="0" stop-color="#fff2ca"/><stop offset=".436" stop-color="#ffeabc"/><stop offset="1" stop-color="#ffdda4"/></linearGradient><path fill="url(#aQ)" stroke="#F1B74F" stroke-width=".25" d="M138.8 113.7c1.1-2 .1-4.4 1.9-6.8 1.3-1.8 6.1-3 3.7-1.1.8-1.2 2.1-1.7 3.2-.7-.5.9-1.3 1.7-1.9 2.6 1.2-1.6 3.6-1.7 4.4.1-2.7 1.4-5.8 9.6-9.7 8.7"/><linearGradient id="aR" x1="20.869" x2="14.565" y1="348.51" y2="308.169" gradientTransform="matrix(2.7597 0 0 -2.7597 114.128 982.45)" gradientUnits="userSpaceOnUse"><stop offset="0" stop-color="#fff2ca"/><stop offset=".436" stop-color="#ffeabc"/><stop offset="1" stop-color="#ffdda4"/></linearGradient><path fill="url(#aR)" stroke="#F1B74F" stroke-width=".25" d="M156.7 105.2c2.9-1.8 8.2 8.9.6 7.6 0-1.1.5-2 1.3-2.9-.7.5-2.1 1.5-3.4 1.4-.2-1.1.2-1.9 1.1-2.6-2.9 0-1.7-3.7.7-3.8"/><path fill="#FFF" stroke="#989898" stroke-width=".25" d="M126.5 111.8l-13.3 2-.2 1c.1.1.8 2.6 1.7.6.5.9 2.4 1.2 2.4-.3.4 1.3 2.2 1.2 2.5-.2.8 1 2.5.5 2.9-.5.6 1 2 .4 2-.6.8 1.2 3 .2 2.2-1.4l-.2-.6z"/><path fill="#996733" stroke="#653614" stroke-width=".25" d="M133.8 58.7c1.2 2.5 1.5 6.5 1.5 9.3 0 3.9-1.4 7.4-2.9 10.9-1.5 3.4-3.2 7.6-2.8 11.5.2 2.1 1 5.1 3.6 5.5-1.8 1.7-5.8 1.5-7.8.2-3.1-2-4.1-5.8-3.9-9.3.2-6.1 4.6-11.1 5.8-16.7.5-2.7.3-6.1-.8-8.6"/></g></switch></svg>
