<svg xmlns="http://www.w3.org/2000/svg" version="1.0" viewBox="0 0 37.7 31.9"><switch><g><path fill="#D0E7C4" stroke="#669866" stroke-width=".25" d="M33.1 22.4l-.3.1-.6.1-.8-.1-.6-.1-.8-.4-.6-.4-.7-.2-.5.5-.3.1-.5.6-.5.6.1.7.6.4.6.1 1.2.2h.5l.6-.5 1 .1.1.4.5.4.5.2.4.4h.5V25l.3-.4.5-.2h.6l.2.7-.3.5-.3.4h-.4l-.5.4-.4.7-.2.8v.5l.7.4 1 .2.9.3.8.3.9.6.3.6-.5.5-1-.1-1.3-.7-1.3-.5-.8-.4-.3-.5-.2-.3-.6-.1-.5.2-.4.1-.3-.1-.1-.3-.3-.4h-1.1l-.2.1v.4l.4.1.3.5-.3.5.4.3.1.5v.3l.4.1v.6h-.6l-.4-.3-.1-.4-.1-.4-.4-.2h-.6l-.7-.1h-1l-.6.3-.7.7-.1.4-.1.3h-.5l-.9-.6-.6-.3-.2-.1-.2-1-.2-.7-.5-.5-.6-.4s-.2 0-.4-.1h-1.1l-.5-.2-.2-.4-.7-.4s-.4-.1-.6-.2c-.2 0-.7-.1-.7-.1h-.6c-.1 0-.5.2-.7.2h-.7c-.3 0-.4-.1-.5 0-.1.1-.4.6-.4.7 0 .1-.1.8-.1.8l-.4.2-1.8.1s-.7-.2-.8-.2c-.1 0-.6-.3-.8-.4l-.8-.4c-.2-.1-.4-.2-.6-.2l-.4.2-.2.4-.5-.3-.4-.5-.4-.3H4.9l-.5.2s-.2.2-.5.3c-.3.1-1 .1-1 .1l-.6-.1-.3-.2v-.9l.3-.7.6-.9.1-.9-.5-.7-.5-.7v-.2l.2-.1.5-2.8 1.1-.7v-1l-.3-.7.6-.6-.1-.9-.6-.6-.5-.3V14l-.2-.7-.6-.5-.8-.3.1-1.1.3-.7-.6-.7-.7-.5-.3-1.3L0 .3l11.8.1 8.9-.4.5 2.4.3 1 .4.9-.5 2.7-.3.8-.9 1.4-.8 1.3-.8 1-.7 5 .4.4 12.9-.9.6.2.1 1-.3.8-.1.9.1.6 1.1 1.5.4 1.4z"/></g></switch></svg>
