<svg xmlns="http://www.w3.org/2000/svg" version="1.0" viewBox="0 0 35 31.8"><switch><g><path fill="#EC1C24" d="M.2.5l9.6 29.4h.7L.9.3z"/><path fill="#E5DCBC" d="M33.7 23.2l1.2 2.3-6 1z"/><path fill="#BB2026" d="M0 1.2L.2.5l9.6 29.4-.4.6z"/><path fill="#ECE7D2" stroke="#D0CAB3" stroke-width=".25" d="M34.9 25.5l-.3.5-25.2 4.5.4-.6z"/><radialGradient id="a" cx="210.833" cy="-449.766" r="46.643" gradientTransform="translate(-53.716 166.863) scale(.3379)" gradientUnits="userSpaceOnUse"><stop offset="0" stop-color="#444d9f"/><stop offset="1" stop-color="#22205f"/></radialGradient><path fill="url(#a)" d="M.9.3L23.3 0l9 19.5 1.7 2.6s.3.6 0 .8c-.3.2-2.3 2.6-2.6 2.9-.3.3-1.9.6-2.1.6-.2.1-18.8 3.4-18.8 3.4L.9.3z"/><path fill="#EC1C24" d="M18.2 8.8L4.1 10.2.9.3 14.3.1z"/><text fill="#FFF" font-family="'Verdana-Bold'" font-size="4.202" transform="matrix(.9958 -.09184 .09184 .9958 5.845 9.23)">2011</text><linearGradient id="b" x1="199.663" x2="203.173" y1="116.08" y2="116.08" gradientTransform="rotate(-20.232 -172.062 592.045)" gradientUnits="userSpaceOnUse"><stop offset="0" stop-color="#cccbcb"/><stop offset="1" stop-color="#fff"/></linearGradient><path fill="url(#b)" d="M16.2 18.9c-.4.3-.2.2-.8.3-.5.1-.9.5-1.6.2-1.1-.4-.7-1.6-.2-2.4.9-1.4 1.1-3.3-.5-4.4l-.6-.3v.1c.6 0 1.4 1.1 1.6 1.7.2.8.1 1.6-.3 2.3-.4.8-1.1 1.2-1 2.2.1.8.6 1.4 1.7 1.4.8 0 2.1-.2 2.1-1.1"/><linearGradient id="c" x1="27.755" x2="29.394" y1="-84.287" y2="-84.287" gradientTransform="rotate(-12.787 450.053 61.306)" gradientUnits="userSpaceOnUse"><stop offset="0" stop-color="#cccbcb"/><stop offset="1" stop-color="#fff"/></linearGradient><path fill="url(#c)" d="M7.6 12.5L6.4 12l-.5.5 1.2.8z"/><linearGradient id="d" x1="27.979" x2="32.929" y1="-81.6" y2="-85.843" gradientTransform="rotate(-12.787 450.053 61.306)" gradientUnits="userSpaceOnUse"><stop offset="0" stop-color="#cccbcb"/><stop offset="1" stop-color="#fff"/></linearGradient><path fill="url(#d)" d="M11 11.1l-2.3 1.5-1.1-.1-.5.8 1.8 1.1z"/><linearGradient id="e" x1="29.022" x2="33.973" y1="-80.382" y2="-84.626" gradientTransform="rotate(-12.787 450.053 61.306)" gradientUnits="userSpaceOnUse"><stop offset="0" stop-color="#cccbcb"/><stop offset="1" stop-color="#fff"/></linearGradient><path fill="url(#e)" d="M8.4 14.2l-.5 1.1 1 .9 1.4-1.1z"/><linearGradient id="f" x1="29.107" x2="34.056" y1="-80.284" y2="-84.526" gradientTransform="rotate(-12.787 450.053 61.306)" gradientUnits="userSpaceOnUse"><stop offset="0" stop-color="#cccbcb"/><stop offset="1" stop-color="#fff"/></linearGradient><path fill="url(#f)" d="M9.8 12.2l1.5-1.7s.6-.4 1.3-.5c.6-.3 1.1-.5 1.1-.5s.5 0 .1.7c-.4.8-1.6 2.8-1.6 2.8l-2.3 2.2-1.5-1 1.4-2z"/><linearGradient id="g" x1="30.405" x2="35.354" y1="-78.77" y2="-83.012" gradientTransform="rotate(-12.787 450.053 61.306)" gradientUnits="userSpaceOnUse"><stop offset="0" stop-color="#cccbcb"/><stop offset="1" stop-color="#fff"/></linearGradient><path fill="url(#g)" d="M12.7 11.8l-.4 1.8.9 2-1.3 1.1-2.1-1.6z"/><path fill="#333" d="M11.3 10.5s.9-.4 1.3.5l.1.2.4-.7s-.2-.4-.6-.4c-.4 0-.8.1-1.2.4z"/><path fill="none" d="M12.7 11.2s-2.6 3.1-3.4 3.4"/><linearGradient id="h" x1="31.726" x2="34.181" y1="-79.731" y2="-79.731" gradientTransform="rotate(-12.787 450.053 61.306)" gradientUnits="userSpaceOnUse"><stop offset="0" stop-color="#cccbcb"/><stop offset="1" stop-color="#fff"/></linearGradient><path fill="url(#h)" d="M13.2 15.6h-1.3l-1 .8 1 .3z"/><path fill="#FFF" d="M12 10.5s.6.3.6.6c-.3.4-2.8 3.3-3.4 3.4l-.6-.4.2-.3s.3.3.8 0c.4-.3 3-2.6 2.4-3.3zm-2.7 4.1c.1.1.3.3.5.4-.1-.2.1-.5.1-.7-.2.1-.3.3-.6.3m-1.3.7c.1-.2.2-.3.3-.5 0-.1.1-.2.1-.3.1-.2.1-.2.2-.1.2.1.4.3.6.4.2.1.3.2.5.4-.3 0-.5-.2-.8-.2-.4.1-.6.2-.9.3"/><path fill="#F7EC37" d="M7.8 7.9v.3l.2.2-.3.1v.3l-.2-.3-.3.1.2-.3-.2-.3.3.1zm3 1.2l-.1.1v.2l-.2-.1-.2.1.1-.2-.1-.2h.2l.1-.1v.2zm5.6 3.4l-.1.1v.1h-.2v-.1l-.1-.1h.2l.1-.2v.2zm.9-9.3l-.1.1v.2l-.1-.1H17v-.1l-.1-.1h.2v-.1l.1.1zM9.7 15.1l-.1.1v.2l-.2-.1-.1.1v-.2l-.1-.2h.2l.1-.1.1.2zm4.6-3.4l-.2.1v.2l-.1-.1-.2.1.1-.2-.1-.1h.1l.1-.2.1.2zm-3.8 9.9l-.1.1v.1l-.1-.1-.2.1.1-.1-.1-.2h.1l.1-.1v.1zm5.7-3.7l-.1.1v.2l-.1-.1h-.1V18l-.1-.1h.2l.1-.1v.1z"/><circle cx="21.6" cy="2.6" r="2.4" fill="#4B68B0"/><path fill="#A7CF57" d="M19.6 2.8c-.1-.1-.2-.2-.2-.4 0-.3 0-.3.3-.4.3-.2.2-.1.6-.2.4-.1.4-.1.8 0-.2.2 0 .2 0 .4 0 .1-.2.2-.3.4-.2.4.6 0 .9 0 0 .1-.1.2-.1.3 0 .1-.1.2-.1.3-.1.3.2.4.2.7-.2 0-.3-.1-.5-.2h-.5c0 .3.4.3.6.6-.4.1-1.1 0-1.2-.2-.1-.2 0-.2-.1-.4-.1-.1-.3-.2-.4-.3v-.6m3-1.9c-.1.2-.3.3-.5.4-.1-.1-.2.1-.3.2.2.5.2 1 .9 1.2 0 .2-.1.4-.2.6.3 0 .6.1.8-.1.3-.3.1-.6.5-.8 0-.3-.2-.7-.3-1-.2-.4-.4-.5-.9-.5"/><path fill="#FFF" d="M19.9.9c.2.2.4 0 .6-.1.2-.1.3 0 .6 0 .4 0 .8-.2 1.1-.5-.3-.2-.8 0-1.2 0-.5.1-.8.3-1.1.6M21.5 5c.4-.3.9-.3 1.4-.5-.3.4-.9.5-1.4.5"/><path fill="none" d="M14.7 27.8c.3 0 .5-.7.7-1"/><linearGradient id="i" x1="18.81" x2="27.748" y1="19.95" y2="34.248" gradientUnits="userSpaceOnUse"><stop offset="0" stop-color="#cccbcb"/><stop offset="1" stop-color="#979797"/></linearGradient><path fill="url(#i)" d="M9 25.5l1.4 4.3 18.2-3.1 2.8-.9 2.6-2.9.1-.6s-1.1-1.7-1.4-2.1c-.3-.4-2.5-5.3-2.5-5.3s-6 1.6-9.1 2.8c-3.1 1.2-6.1 3.1-7.4 4-1.2.9-4.7 3.8-4.7 3.8z"/><path fill="#CCCBCB" d="M22.1 19.7c-.1.7 0 1.4.6 1.8.5.3 1.7.3 1.3-.6m2.7-9.3c.1.2.4.4.6.5h.1v-.3c.2.1.4.3.5.4.3.1.6-.1.3-.3.2 0 .4 0 .5-.2-.1 0-.1-.1-.2-.1 0 0 .1 0 .2-.1.1-.5-1.4-1-1.7-.9m-9.5 3.2c-.2.4-.4.9-.3 1.4.2 0 .2.1.3-.1 0 .2.1.4.3.3 0-.1.1-.1.1-.2 0 .2.1.3.3.3.1-.2.1-.4.1-.6.1.1.2.1.2.2.2-.2 0-.6 0-.9"/><linearGradient id="j" x1="41.867" x2="43.181" y1="-74.493" y2="-72.681" gradientTransform="rotate(-12.787 450.053 61.306)" gradientUnits="userSpaceOnUse"><stop offset="0" stop-color="#cccbcb"/><stop offset="1" stop-color="#fff"/></linearGradient><path fill="url(#j)" d="M22.1 19.6c.1.8.3 2.1 1.4 2.1 1.4 0 .4-1.7.2-2.3"/><path fill="#CCCBCB" d="M23.6 19.3c.3.4-.1.6-.4.8-.4.3-.3.5-.4.9-.3-.3-.6-.7-.5-1.2.2-.1.4-.2.6-.2.2-.1.4 0 .7-.3" opacity=".39"/><linearGradient id="k" x1="39.53" x2="42.606" y1="-83.012" y2="-83.145" gradientTransform="rotate(-12.787 450.053 61.306)" gradientUnits="userSpaceOnUse"><stop offset="0" stop-color="#cccbcb"/><stop offset="1" stop-color="#fff"/></linearGradient><path fill="url(#k)" d="M19.2 7.3c-.5.1-.9.6-1.1.9-.4 1 1.4 5.4 1.4 5.4l1.9.7-2.2-7z"/><linearGradient id="l" x1="39.542" x2="42.14" y1="-83.587" y2="-83.7" gradientTransform="rotate(-12.787 450.053 61.306)" gradientUnits="userSpaceOnUse"><stop offset="0" stop-color="#cccbcb"/><stop offset="1" stop-color="#fff"/></linearGradient><path fill="url(#l)" d="M20.4 13.6c-1.7-.1-2.1-5.2-2.1-5.6.1-.5.9-.8 1.3-1 .7-.3 1.4-.3 2-.5.4-.1 1.4-.2 1.8.1.6.4.4 1.7.4 2.3"/><linearGradient id="m" x1="36.504" x2="44.601" y1="-90.448" y2="-79.083" gradientTransform="rotate(-12.787 450.053 61.306)" gradientUnits="userSpaceOnUse"><stop offset="0" stop-color="#cccbcb"/><stop offset="1" stop-color="#fff"/></linearGradient><path fill="url(#m)" d="M20 12.1c-.1.5.5 1.6.7 2.1.2.7.5 1.3.6 2 .1.7.2 1.5.4 2.2.2.8.1 1.5 1.1 1.5.5 0 1-.1 1-.7 0-.5-.3-1.1-.4-1.6-.1-.4-.1-.9 0-1.4.1-.6-.1-.6.7-.9.5.4.9.9 1.5 1.4.3.3.5.6.8.8.2.2.5.7.8.7.6.1 1-1.1.8-1.5-.3-.6-1-1.1-1.4-1.7-.3-.4-.4-.6-.7-.9-.3-.2-.6-.6-.7-.9-.4-.7-.6-1.5-.8-2.3v-.3c.8.3 1.3.5 1.8.8.7.3.9.5 1.2-.4.2-.6-.7-1-1.2-1.3-.6-.4-.7-.5-1.5-.8 0 0-1-.5-1.2-.4-.2.1-4.4 1.4-4.4 1.4-.3.6-.7 1.2-1 1.9-.2.4-.8 1.4-.7 1.8.1.3.6.5.9.5.4.1.4-.1.5-.4l.9-1.5c.1 0 .2 0 .3-.1z"/><radialGradient id="n" cx="341.11" cy="-682.202" r="13.667" gradientTransform="matrix(.2651 -.0602 .0602 .2651 -30.24 209.779)" gradientUnits="userSpaceOnUse"><stop offset="0" stop-color="#cccbcb"/><stop offset="1" stop-color="#fff"/></radialGradient><path fill="url(#n)" d="M20 8.9c-.3.4-.6.8-.8 1.2.6.2 1 .5 1.5.9.2.2 2.6-.4 2.7-.7.1-.5.4-.8.6-1.3l.2-.2c-.3-.1-.5-.2-.8-.3-.3-.1-.7-.1-1-.1"/><radialGradient id="o" cx="344.636" cy="-684.031" r="12.136" gradientTransform="matrix(.2651 -.0602 .0602 .2651 -30.24 209.779)" gradientUnits="userSpaceOnUse"><stop offset="0" stop-color="#cccbcb"/><stop offset="1" stop-color="#fff"/></radialGradient><path fill="url(#o)" d="M23 7.2c-.2-1-1.2-1.6-2.1-1.4-1 .2-1.6 1.2-1.4 2.2.2 1 1.2 1.6 2.1 1.4 1-.2 1.6-1.2 1.4-2.2z"/><radialGradient id="p" cx="349.079" cy="-681.809" r="8.048" gradientTransform="matrix(.2651 -.0602 .0602 .2651 -30.24 209.779)" gradientUnits="userSpaceOnUse"><stop offset="0" stop-color="#444d9f"/><stop offset="1" stop-color="#22205f"/></radialGradient><path fill="url(#p)" d="M19.7 7.5l.4 1.3s1.4 1.2 2.6-.5l-.1-1.4s-1.5-.6-2.9.6z"/><path fill="#FFF" d="M27.3 17.1c.2-.4.6-1.3 1.2-1 .5.2.6 1.1.3 1.5-.2.4-.6 1-.9 1.3-.6.4-1.2-.3-1.2-.9"/><path fill="none" d="M21.2 16h.2m.2-.1h.2m.1.1h.2m.3.1h.3m.2-.1c.1 0 .3-.1.4-.1m1-.4l.3-.3m.1-.2c0-.1.1-.2.2-.2m.1-.1c.1 0 .1-.1.2-.2m.1-.1c.1 0 .1-.1.1-.1M19.9 12s-.2-.3-.3-.4m-.2-.2c-.1-.1-.2-.2-.4-.2m5.3-.4c-.1-.2 0-.6.1-.8m.2-.4c0-.2.1-.4.2-.6m-6.2 2.1h.2m5.7-1.2v-.2"/><path fill="#CCCBCB" d="M28.7 16.1s-.5.1-.8.6c-.3.5-1.1 1.8-.9 2 .1.2.6.7 1.3-.1.6-.8 1.3-2 .4-2.5z"/><path fill="#FBF8CD" d="M20.1 8.6s1.2-1.1 2.5-.8l.1.3s-.9 1.5-2.5.6l-.1-.1zm.3-1.4c-.3.2-.3.6-.3.9 0-.1-.3-.4-.2-.5 0-.2.3-.3.5-.4" opacity=".21"/><path fill="#FBF8CD" d="M22.2 8.4c.2-.4.2-1.3-.3-1.5.7-.3.9 1.4.3 1.5" opacity=".21"/><path fill="#FBF8CD" d="M20.6 7.5l-.1.1.1.1h-.2v-.2l.1.1zm.6.2h-.1v.1-.1H21v-.1h.1zm0-.5h-.1v.1-.2.1z"/><path fill="#CCCBCB" d="M21.7 17.7c.2.2.8.4.9.2-.1-.1-.3-.1-.4-.2.2-.1.5-.1.6-.3-.2-.2-.7 0-1 .1.3-.3 0-.3-.2-.5s-.2-.4-.3-.6c-.1.4.1.9.2 1.3s.1.9.4 1.2c0-.4-.1-.7-.2-1.1m-1.6-5.7c.1-.1.2-.1.3-.1v.3c.2 0 .3-.1.5-.2-.1.3-.3.4-.3.7 0 .3 0 .5.1.7.1.4.4 1 .6 1.3.4-.1.7-.5 1.2-.5-.1.1-1.6 1.3-.6 1.3-.2.1-.4 0-.6 0-.1-.6-.4-1.2-.6-1.8-.2-.5-.6-1.2-.5-1.8" opacity=".39"/><path fill="#CCCBCB" d="M23.8 15.2c.1-.1.1-.3.2-.5.3.2.3.4.6 0 .1-.2.4-.4.5-.6.2-.5-.5-1.2-.5-1.7.2.8.7 1.3 1.1 1.9.4.6 1.1 1.1 1.4 1.7-.1.1-.2.2-.4.3 0-.2-.1-.3-.1-.5 0 .2-.1.4-.3.6 0-.6-.1-1.5-1-1.5-.2 0-.3 0-.4.2 0 0-.2.3-.3.3-.2.1-.4-.3-.8-.2" opacity=".25"/><path fill="#CCCBCB" d="M24.3 10.2c0-.1.1-.2.2-.2.1.1.2.2.2.3.3-.3.5.3.6.4.2.2.5.4.7.7-.4-.2-1.9-.5-1.7-1.2m-4.9 1.4c.2.5.4.5 0 .9-.2.3-.3.6-.5.9 0-.6.5-1.1.5-1.7m.9-2.6c-.2.3-.4.6-.3.9.1.3.5.6.6.9-.5-.2-.9-.5-1.4-.7.2-.5.6-.8.8-1.2m3 1.1c.4-.1.6-1.1.6-1.4.1 0 .2.1.3.1 0 .4-.6 1.2-.9 1.3" opacity=".39"/><linearGradient id="q" x1="47.023" x2="47.319" y1="-73.885" y2="-73.898" gradientTransform="rotate(-12.787 450.053 61.306)" gradientUnits="userSpaceOnUse"><stop offset="0" stop-color="#cccbcb"/><stop offset="1" stop-color="#fff"/></linearGradient><path fill="url(#q)" d="M27.1 18.3l.9.6"/><linearGradient id="r" x1="47.324" x2="47.635" y1="-74.193" y2="-74.207" gradientTransform="rotate(-12.787 450.053 61.306)" gradientUnits="userSpaceOnUse"><stop offset="0" stop-color="#cccbcb"/><stop offset="1" stop-color="#fff"/></linearGradient><path fill="url(#r)" d="M27.3 17.8l.9.8"/><linearGradient id="s" x1="47.606" x2="47.92" y1="-74.492" y2="-74.506" gradientTransform="rotate(-12.787 450.053 61.306)" gradientUnits="userSpaceOnUse"><stop offset="0" stop-color="#cccbcb"/><stop offset="1" stop-color="#fff"/></linearGradient><path fill="url(#s)" d="M27.5 17.5l1 .7"/><linearGradient id="t" x1="47.879" x2="48.223" y1="-74.791" y2="-74.806" gradientTransform="rotate(-12.787 450.053 61.306)" gradientUnits="userSpaceOnUse"><stop offset="0" stop-color="#cccbcb"/><stop offset="1" stop-color="#fff"/></linearGradient><path fill="url(#t)" d="M27.7 17.1l1 .8"/><linearGradient id="u" x1="48.168" x2="48.493" y1="-75.126" y2="-75.14" gradientTransform="rotate(-12.787 450.053 61.306)" gradientUnits="userSpaceOnUse"><stop offset="0" stop-color="#cccbcb"/><stop offset="1" stop-color="#fff"/></linearGradient><path fill="url(#u)" d="M27.9 16.7l1 .8"/><linearGradient id="v" x1="48.573" x2="48.858" y1="-75.506" y2="-75.518" gradientTransform="rotate(-12.787 450.053 61.306)" gradientUnits="userSpaceOnUse"><stop offset="0" stop-color="#cccbcb"/><stop offset="1" stop-color="#fff"/></linearGradient><path fill="url(#v)" d="M28.3 16.4l.8.5"/><path fill="#ED1E3A" d="M25.9 11.4s-.1-1.1.5-1.5c.2 0 .3.2.3.2s-.8.2-.6 1.4c-.3-.1-.2-.1-.2-.1zm-6.7 1.8s-.4-.9-1.1-1c-.2.1-.2.3-.2.3s.8-.2 1.2 1c.1-.2.1-.3.1-.3z"/><linearGradient id="w" x1="42.839" x2="45.056" y1="-81.889" y2="-81.889" gradientTransform="rotate(-12.787 450.053 61.306)" gradientUnits="userSpaceOnUse"><stop offset="0" stop-color="#cccbcb"/><stop offset="1" stop-color="#fff"/></linearGradient><path fill="url(#w)" d="M21.2 10.4s-.3-.1-.1.7c.2.8.5 1.9.5 1.9s.2.2.5.1 1.8-.2 1.6-.8"/><radialGradient id="x" cx="379.443" cy="-427.971" r="4.178" gradientTransform="matrix(.2569 -.0583 .0686 .302 -45.773 162.826)" gradientUnits="userSpaceOnUse"><stop offset="0" stop-color="#cccbcb"/><stop offset="1" stop-color="#fff"/></radialGradient><path fill="url(#x)" d="M23.6 12.3c0 .1 0 .3-.2.3l-1.6.4c-.1 0-.2-.1-.3-.2l-.5-2.1c0-.1 0-.3.2-.3l1.6-.4c.1 0 .2.1.3.2l.5 2.1z"/><path fill="#CBCB31" d="M21.7 10.7v.2l-.1.1-.2-.1v-.1l.1-.1zm.5-.1l.1.2-.2.1-.1-.1v-.2l.1-.1z"/><radialGradient id="y" cx="379.335" cy="-426.942" r="2.699" gradientTransform="matrix(.2569 -.0583 .0686 .302 -45.773 162.826)" gradientUnits="userSpaceOnUse"><stop offset="0" stop-color="#cccbcb"/><stop offset="1" stop-color="#fff"/></radialGradient><path fill="url(#y)" d="M23.2 11.9c.1.2-.1.5-.3.5l-.8.2c-.2 0-.4-.1-.5-.3l-.1-.6c-.1-.2.1-.5.3-.5l.8-.2c.2 0 .4.1.5.3l.1.6z"/><linearGradient id="z" x1="44.293" x2="44.736" y1="-82.837" y2="-82.837" gradientTransform="rotate(-12.787 450.053 61.306)" gradientUnits="userSpaceOnUse"><stop offset="0" stop-color="#cccbcb"/><stop offset="1" stop-color="#fff"/></linearGradient><path fill="url(#z)" d="M22.9 10.5c0-.1-.2-.2-.3-.2-.1 0-.2.2-.2.3 0 .1.2.2.3.2.1 0 .2-.2.2-.3z"/><path fill="#ED1E3A" d="M20.8 14.6s3.1.6 4.2-1.6c.2.4.2.3.2.3s-.9 1.8-4.2 1.6c-.1-.1-.2-.3-.2-.3z"/><radialGradient id="A" cx="343.395" cy="-682.855" r="1.245" gradientTransform="matrix(.2651 -.0602 .0602 .2651 -30.24 209.779)" gradientUnits="userSpaceOnUse"><stop offset="0" stop-color="#cccbcb"/><stop offset="1" stop-color="#fff"/></radialGradient><path fill="url(#A)" d="M19.8 8.1c.1.2 0 .5 0 .5-.1 0-.2-.2-.2-.4-.1-.2 0-.5 0-.5.1-.1.2.1.2.4z"/><path fill="#444D9F" d="M21 8.3c-.1 0-.2.1-.3.2.1.1.3-.1.4-.2 0 0 0 .1-.1 0m.8 0c-.1 0-.6.2-.4.2.2.1.7-.1.4-.2m.3-.2s-.3-.1-.4 0c-.1.1.3 0 .4 0"/><path fill="none" d="M20.7 8.5s0 .1 0 0m.4-.1h.1m.1.2c.1 0 .1-.1.1-.2m.5-.1c0 .1.1.1 0 0"/><path fill="#FBF8CD" d="M20.2 7.4c-.1.1-.2.3-.2.4 0-.1-.2-.2-.1-.3.1-.1.2-.1.3-.1m1.9-.5c.3 0 .4.4.4.6 0 .2 0 .7-.2.7 0-.1.1-.2.1-.3v-.3c0-.1 0-.2-.1-.4-.1 0-.2-.1-.2-.3" opacity=".21"/><linearGradient id="B" x1="47.635" x2="46.97" y1="-88.915" y2="-85.382" gradientTransform="rotate(-12.787 450.053 61.306)" gradientUnits="userSpaceOnUse"><stop offset="0" stop-color="#cccbcb"/><stop offset="1" stop-color="#fff"/></linearGradient><path fill="url(#B)" d="M22.6 10.4S26.5 9 26 7.3c-.7-1.4-2.2-2-2.9-.8-.6-.1-.5 0-.5 0s.8-1.1 1.8-.9c1 .1 2.6 1.1 1.9 2.7-.7 1.6-3.7 2.5-3.7 2.5s-.1-.3 0-.4z"/><linearGradient id="C" x1="32.634" x2="33.164" y1="-71.817" y2="-70.699" gradientTransform="rotate(-12.787 450.053 61.306)" gradientUnits="userSpaceOnUse"><stop offset="0" stop-color="#cccbcb"/><stop offset="1" stop-color="#979797"/></linearGradient><path fill="url(#C)" d="M13.7 23.6c-.7.4-1.3.8-1.8 1.4-.4.4-1.1.6-.7 1.3.5-.2.6-.1 1.1-.5.3-.3.6-.6 1-.8.9-.5 1.8-.9 2.5-1.6.2-.2.8-.7.9-1 0-.5-.5-.5-.8-.4-.7.2-1.2 1-1.8 1.3"/><path fill="none" d="M16.4 22c.2.2.6.2.9.2"/><linearGradient id="D" x1="48.155" x2="47.977" y1="-69.951" y2="-68.885" gradientTransform="rotate(-12.787 450.053 61.306)" gradientUnits="userSpaceOnUse"><stop offset="0" stop-color="#cccbcb"/><stop offset="1" stop-color="#979797"/></linearGradient><path fill="url(#D)" d="M31.7 23.1c-.8.2-1.4.1-2.2.1-.9 0-2.3.7-3 .1.1-.7 1.2-1 1.8-1 .6 0 1.7 0 2.2-.3l1.1-.1"/><path fill="none" d="M26.5 23.3c-.1.2-.2.4-.4.6m-14.2 2.5v.5m4.1-3.2c.2.1.3.2.5.2m-.1-.4s.3.2.5.2m-.1-1c.2.1.4.1.5 0m8.6 1.8c.3.1.6-.2.6-.6m.1.5c0-.2.1-.4.3-.5m3.1-.2c.1.2.3.3.4.4m.3-.3c.2.2.4.2.7.2"/><linearGradient id="E" x1="35.7" x2="35.641" y1="-68.696" y2="-67.99" gradientTransform="rotate(-12.787 450.053 61.306)" gradientUnits="userSpaceOnUse"><stop offset="0" stop-color="#cccbcb"/><stop offset="1" stop-color="#979797"/></linearGradient><path fill="url(#E)" d="M18.9 26.2c-.5-.3-3.3.1-3.5.7.5.3 1.3 0 1.9-.1.6-.1 1.4-.1 1.9-.3 0-.2-.1-.1-.2-.2"/><path fill="none" d="M19.1 26.4c.2.3.4.5.6.7m-4.4.7c.1-.1.2-.2.3-.4m.2.5c.1-.2.2-.4.2-.6m2.3-.3c.1.2.3.3.5.4"/><path d="M8.5 4.7h-.6c-.1-.6-.1-.9-.2-1.5-.1.4-.2.6-.4 1h-.4c-.2-.4-.3-.6-.6-1 .1.5.1.8.2 1.4-.2 0-.4 0-.6-.1-.1-.8-.2-1.3-.3-2.2.3 0 .5.1.8.1.3.5.4.7.7 1.1.2-.4.3-.6.5-1.1h.8c0 1 0 1.4.1 2.3zm1.7-.3l-.1.1-.1.1c-.1 0-.1.1-.2.1h-.2c-.2 0-.3 0-.5-.1-.1-.1-.2-.3-.2-.4 0-.1 0-.2.1-.3 0-.1.1-.2.2-.2.1-.1.2-.1.4-.1s.3-.1.5-.1c0-.1-.1-.1-.1-.2h-.4c-.1 0-.2 0-.3.1-.1 0-.2.1-.2.1H9V3h.3c.1 0 .3 0 .4-.1.3 0 .6 0 .8.1.2.1.3.2.3.4 0 .4.1.7.1 1.1-.2 0-.4 0-.6.1 0-.1 0-.2-.1-.2zm0-.3v-.3h-.3c-.1 0-.2 0-.2.1-.1 0-.1 0-.1.1v.2l.1.1h.5c-.1-.1 0-.1 0-.2zm3.1-.2v.4c0 .1-.1.2-.2.3-.1.1-.2.1-.3.2-.1 0-.3.1-.4.1h-.7v-.4h.7c.1 0 .2 0 .3-.1.1 0 .1-.1.2-.1l.1-.1V4l-.2.2c-.1 0-.2.1-.3.1-.3 0-.5 0-.6-.1-.2-.1-.2-.3-.3-.6v-.4c0-.1.1-.2.2-.3.1-.1.2-.1.3-.2.1-.1.2-.1.3-.1h.5v-.1c.2 0 .4-.1.6-.1-.3.7-.3 1-.2 1.5zm-.7-.2c0-.3 0-.4-.1-.7h-.2c-.2 0-.3.1-.3.2-.1.1-.1.2-.1.3 0 .2.1.3.1.3.1.1.2.1.3 0 .1 0 .1 0 .2-.1 0 .1.1 0 .1 0zm2.4-.1l-.1.1-.1.1c-.1 0-.1.1-.2.1s-.1 0-.2.1c-.2 0-.3 0-.5-.1-.1-.1-.2-.2-.2-.3 0-.1 0-.2.1-.3.1-.1.1-.2.2-.2.1-.1.2-.1.4-.2.2 0 .3-.1.5-.1 0-.1-.1-.1-.1-.2h-.4c-.1 0-.2.1-.3.1-.1.1-.2.1-.2.1h-.1v-.4c.1 0 .2-.1.3-.1.1 0 .3-.1.4-.1.3-.1.6-.1.8 0 .2.1.3.2.3.4 0 .4.1.7.1 1.1-.2 0-.4.1-.6.1-.1-.1-.1-.1-.1-.2zm0-.2v-.3c-.1 0-.2 0-.3.1-.1 0-.2.1-.2.1-.1 0-.1.1-.1.1v.2l.1.1h.3c.1 0 .1 0 .2-.1-.1-.1-.1-.2 0-.2z"/><path fill="#EC1C24" d="M17.8 3.4c-.7.1-1.1.2-1.8.3v-.3c.4-.4.5-.6.9-1.1-.4.1-.6.1-1 .2v-.4c.7-.1 1-.2 1.7-.3v.3c-.4.4-.5.6-.9 1.1.4-.1.6-.1 1-.2.1.1.1.2.1.4zm.9-2c-.3 0-.4 0-.6.1v-.4c.1-.1.3-.1.5-.1.1.1.1.2.1.4zm.1 1.8c-.2 0-.4 0-.6.1-.1-.7-.1-1-.2-1.6.2 0 .4 0 .6-.1.1.6.2 1 .2 1.6zm2.5-.1h-.6c0-.3 0-.5-.1-.8v-.2c0-.1 0-.1-.1-.1l-.1-.1H20c-.1 0-.1 0-.2.1.2.4.2.7.2 1.1h-.6c-.1-.7-.1-1-.2-1.6.2 0 .4 0 .6-.1v.2c.1-.1.2-.1.3-.2.1 0 .2-.1.3-.1.2 0 .4 0 .5.1.1.1.2.3.2.5.2.5.2.7.2 1.2zm2.4-.6c-.6-.1-.8-.1-1.4-.1 0 .1.1.2.2.3.1.1.3.1.5.1h.4c.1 0 .2-.1.3-.1h.1v.4c-.1 0-.3 0-.4.1H23c-.4 0-.7-.1-.9-.3-.2-.2-.3-.4-.4-.6 0-.3 0-.5.2-.6.2-.2.4-.2.8-.2.3 0 .5.1.7.3.2.2.3.4.3.6v.1zm-.7-.4c0-.1 0-.2-.1-.3-.1-.1-.2-.1-.3-.1-.1 0-.2 0-.3.1-.1 0-.1.1-.1.2.4.1.5.1.8.1z"/><text fill="#231F20" font-family="'Verdana-Bold'" font-size=".621" transform="rotate(-14.046 121.58 -77.32)">July 2011</text></g></switch></svg>
