<svg xmlns="http://www.w3.org/2000/svg" version="1.0" viewBox="0 0 46.8 31.5"><switch><g><path fill="#F3EAE3" d="M45.2 27.7c0 .9-.6 1.7-1.4 1.7H1.4c-.8 0-1.4-.7-1.4-1.7v-26C0 .7.6 0 1.4 0h42.5c.8 0 1.4.7 1.4 1.7v26z"/><path fill="#DDD3CC" d="M44.4 26.4c0 .8-.6 1.5-1.4 1.5h-7c-.8 0-1.4-.7-1.4-1.5V2.6c0-.8.6-1.5 1.4-1.5h7c.8 0 1.4.7 1.4 1.5v23.8z"/><path fill="#C5AE9C" d="M31 22.8c0 .8-.5 1.4-1.2 1.4H6.6c-.7 0-1.2-.6-1.2-1.4V7c0-.8.5-1.4 1.2-1.4h23.2c.7 0 1.2.6 1.2 1.4v15.8z"/><path fill="#BEB3A1" d="M43.3 23.4c0 1-.6 1.8-1.4 1.8h-4.7c-.8 0-1.4-.8-1.4-1.8v-19c0-1 .6-1.8 1.4-1.8h4.7c.8 0 1.4.8 1.4 1.8v19z"/><path fill="#4D4B4C" d="M42.3 7.3c0 .2-.4.3-1 .3h-3.4c-.5 0-1-.1-1-.3V3.9c0-.2.4-.3 1-.3h3.4c.5 0 1 .1 1 .3v3.4z"/><path fill="#FFF" d="M42.5 9c0 .2-.3.4-.6.4h-4.4c-.3 0-.6-.2-.6-.4v-.3c0-.2.3-.4.6-.4h4.4c.3 0 .6.2.6.4V9z"/><path fill="#CBBDB3" d="M26.8 20.4H8.4l-3.3 4.7h26.2z"/><path fill="#BAB0A0" d="M8.7 20.4V5.8H5.9l-.8 1.9v17.4zm18.2 0l4.4 4.7s-.4 1.4-.3-4.7c.1-5.3.9-13.1-.5-14.3-.7-.6-3.6-.3-3.6-.3v14.6z"/><path fill="#DDD3CC" d="M8.7 5.8h18.2v14.6H8.7z"/><path fill="#7A4D1F" d="M32.7 24c0 1-.6 1.7-1.4 1.7H5.1c-.8 0-1.4-.8-1.4-1.7V5c0-1 .6-1.7 1.4-1.7h26.2c.8 0 1.4.8 1.4 1.7v19z" opacity=".25"/><path fill="#FFF" d="M38 10.7h1.5v1.7H38zm0 2.2h1.5v1.7H38zm0 2.3h1.5v1.7H38zm0 2.2h1.5v1.7H38zm0 2.2h1.5v1.7H38zm2.1-8.9h1.5v1.7h-1.5zm0 2.2h1.5v1.7h-1.5zm0 2.3h1.5v1.7h-1.5zm0 2.2h1.5v1.7h-1.5zm0 2.2h1.5v1.7h-1.5z"/><text fill="#231F20" font-family="'MyriadPro-Regular'" font-size="1.855" transform="matrix(.8443 0 0 1 38.115 12.303)">1</text><text fill="#231F20" font-family="'MyriadPro-Regular'" font-size="1.855" transform="matrix(.8443 0 0 1 40.537 12.19)">2</text><text fill="#231F20" font-family="'MyriadPro-Regular'" font-size="1.855" transform="matrix(.8443 0 0 1 38.085 14.605)">3</text><text fill="#231F20" font-family="'MyriadPro-Regular'" font-size="1.855" transform="matrix(.8443 0 0 1 40.507 14.605)">4</text><text fill="#231F20" font-family="'MyriadPro-Regular'" font-size="1.855" transform="matrix(.8443 0 0 1 38.172 16.77)">5</text><text fill="#231F20" font-family="'MyriadPro-Regular'" font-size="1.855" transform="matrix(.8443 0 0 1 40.594 16.77)">6</text><text fill="#231F20" font-family="'MyriadPro-Regular'" font-size="1.855" transform="matrix(.8443 0 0 1 38.257 21.176)">9</text><text fill="#231F20" font-family="'MyriadPro-Regular'" font-size="1.855" transform="matrix(.8443 0 0 1 38.257 18.987)">7</text><text fill="#231F20" font-family="'MyriadPro-Regular'" font-size="1.855" transform="matrix(.8443 0 0 1 40.68 18.987)">8</text><text fill="#231F20" font-family="'MyriadPro-Regular'" font-size="1.855" transform="matrix(.8443 0 0 1 40.524 21.137)">0</text></g></switch></svg>
