<svg xmlns="http://www.w3.org/2000/svg" version="1.0" viewBox="0 0 29.5 48"><switch><g><path fill="#FFF" stroke="#D1D1D1" stroke-width=".5" d="M0 36.2l9.9 2.7 5.8 3v3.5L0 37.4z"/><path fill="#F4F4F4" stroke="#F4F4F4" d="M3.1 33.5L0 36.2l9.3 2.5z"/><path fill="#F6F7F7" stroke="#D1D1D1" stroke-width=".5" d="M25.6 36.6l.4 3.2-10.3 5.6v-3.5z"/><path fill="#FFF" stroke="#FFF" stroke-width=".5" d="M3.1 33.5l.9-.4 14.4 1.2 7.2 2.3-9.9 5.3-6.4-3.2z"/><path fill="#FFF" stroke="#D1D1D1" stroke-width=".5" d="M11.7 12.6l-9.5 1.1v7.4l.9 5.3 1 7.1 4.6 2V17.1l4.6-1.5v-.7l-1.1.2.3-2.1.1-.4z"/><path fill="#49494A" stroke="#49494A" d="M6.9 1.7s-.3-.5.6-1.1C8.8-.2 8.8.2 8.8.2s.8.6.9.8c.1.2.2.8.2.8s-.6.2-1 .5c-.4.2-.9.8-.9.8s-.6-.5-.7-.7c-.1-.1-.4-.7-.4-.7z"/><path fill="#C1D8E8" d="M14.6 7.7l-4.7-6s-.6.1-1 .5c-.4.3-.8.9-.8.9l4.1 5.6h.2v-.4l1.4-.3.9-.1v-.2z"/><path fill="#E5E5E4" stroke="#FFF" d="M12.4 11.5s2.5.6 4.1.5c1.6-.1 2.6-.4 2.6-.4V9.2s.6.7-1.2.7c-1.8 0-3.2-.6-3.7-.8-.5-.3-1.7-.9-1.7-.9l-.1 3.3z"/><path fill="#FFF" stroke="#FFF" d="M17.2 7.5s1.4.9 1.6 1.2c.2.4.6.9.1 1-.5.1-2.2.3-3.5-.2-1.3-.5-2.5-1.2-2.7-1.2l-.2-.1 4.7-.7z"/><path fill="#090405" d="M12.6 11.6v1.3s1.5.6 3.8.4c2.3-.2 2.6-.3 2.6-.3v-1.3s-2.2.4-3.2.4c-.9-.1-3.2-.5-3.2-.5z"/><path fill="#090405" stroke="#090405" d="M7.4 2.6s.5-.8 1-1.1c.5-.3 1.4-.4 1.4-.4L9.4.5s-.6 0-1.1.5c-.5.5-1.2 1.1-1.2 1.1l.1.3.2.2z"/><path fill="#090405" d="M6.9 1.7l.1.1s.6-.8.9-1C8.3.6 9.1.3 9.1.3L8.9.1s-.7.3-1.2.6c-.6.3-.8 1-.8 1z"/><path fill="#353535" stroke="#060303" d="M21 13v.5s-1.8.4-3.7.8c-1.9.4-4 1.4-4 1.4V15s2.2-.7 3.8-1.3c1.6-.6 2.7-.7 2.7-.7H21z"/><path fill="#BFBEBE" stroke="#BFBEBE" d="M13.5 16.2l-.2-.5s2.5-1 3.9-1.3c1.4-.3 3.5-.8 3.7-.8h.2v.6s-2 .4-3.4.7c-1.3.3-3.5 1-3.6 1.1-.2 0-.6.2-.6.2z"/><path fill="#3F4040" stroke="#060303" d="M15.6 16.4s-1.3.1-1.6 0c-.3-.1-.5-.2-.5-.2s2.6-.9 3.6-1.2c1-.3 2.4-.6 2.9-.7.5-.1.9-.2.9-.2v.4s-1.6 1.1-1.9 1.2c-.2.1-.5.2-.5.2l-2.9.5z"/><path fill="#C1D8E8" d="M14.8 17.2v1h.4v.1h1v-1.1h-.4z"/><path fill="#060303" stroke="#060303" d="M14.6 16.4l-.1.8H16v-.9l-.7.1z"/><path fill="#C1D8E8" d="M20.3 17.1l1.6 2.1h.5c.1-.2.2-.2.5-.5s.3-.7.3-.7l-1.5-2.1s-.4.4-.8.6c-.2.3-.6.6-.6.6z"/><path fill="#060303" stroke="#060303" d="M19.7 16.4s0 .1.1.4c.2.3.5.3.5.3l1.5-1.2s.2-.4 0-.5c-.2-.1-.5-.3-.5-.3s-.6.5-.9.8c-.3.1-.7.5-.7.5z"/><path fill="#060303" stroke="#060303" d="M19.1 15.5s0 .4.1.6c.1.2.4.3.4.3l1.7-1.3s.2-.4 0-.5c-.2-.1-.4-.4-.4-.4l-1.8 1.3zm-3.6.7s.1.2.3.4c.2.1.7-.3 1.1-.4.4-.1.9-.1 1.2-.1.2.1.6.1.6.1s-.1-.7-.4-.9c-.3-.2-.9-.2-1.5 0s-.8.3-1 .6l-.3.3z"/><path fill="#C1D8E8" d="M16.7 19.8l.3 1s.5.1 1 0c.4-.1.7-.2.7-.2v-1.1h-1.1c-.6 0-.9.3-.9.3z"/><path fill="#060303" stroke="#060303" d="M16.1 17.1l.3 2.5s.6-.6 1.2-.6h1l-.2-2s-.8-.1-1.2 0c-.5 0-1.1.1-1.1.1z"/><path fill="#060303" stroke="#060303" d="M18.4 16.2v.8s-.5-.1-1 0c-.4 0-1.3.2-1.3.2l-.1-.7s.8-.4 1.2-.4c.3 0 1.2.1 1.2.1zm-1.8 3.4l.2.2s.7-.3 1-.3h1v-.4s-.7-.1-1.1 0c-.4 0-1.1.5-1.1.5z"/><path fill="#CCCBCB" stroke="#CCCBCB" d="M6 20.6l-.1-2.9 2.2-.8v4.4z"/><path fill="#C8C8C8" stroke="#C8C8C8" d="M5.5 17.4l.4.1.1 2.9h-.3z"/><path fill="#E5E5E4" stroke="#FFF" d="M5.5 22.3v.4l1.5.4.5-.4-1.5-.4v-.2z"/><path fill="#060303" stroke="#060303" d="M9.3 21.8v.3l-1.2.2v-.7h1.2z"/><path fill="#575757" stroke="#575757" d="M26.1 23.6l-9.4 3.2L6 23.5l1.3-.4 8.4-2.4z"/><path fill="#0D0607" stroke="#0D0607" d="M16.7 28.5v-1.7l9.4-3.2-.2 1.7z"/><path fill="#0D0607" stroke="#0D0607" d="M5.9 23.5v1.6l10.8 3.4v-1.7z"/><ellipse cx="6.2" cy="28.4" stroke="#000" rx="2.1" ry="2.8"/><ellipse cx="5.9" cy="28.7" fill="#282827" stroke="#282827" rx="2.1" ry="2.8"/><path fill="#3D3D3D" stroke="#3D3D3D" d="M7.7 28.5c0 1.6-.5 2.8-2.6 3-1.2.1-2.1-1.3-2.1-2.8 0-1.6.9-2.8 2.1-2.8 1.2-.1 2.6 1.1 2.6 2.6z"/><ellipse cx="7.2" cy="33" fill="#49494A" stroke="#49494A" opacity=".76" rx=".3" ry=".4"/><path fill="#49494A" stroke="#49494A" d="M8.3 26.2v.8s.5.5 1.3.6h.8V27s-.8-.2-1.2-.4c-.5-.2-.9-.4-.9-.4z" opacity=".11"/><path fill="#49494A" stroke="#49494A" d="M11.6 27l-1.2.6V27s.2-.1.3-.2c.2-.1.5 0 .5 0l.4.2z" opacity=".11"/><path fill="#CCCBCB" stroke="#CCCBCB" d="M8.3 26v.2s2 .9 2.1.8c.1-.1.5-.3.5-.3L8.3 26z"/><path fill="#E5E5E4" stroke="#E5E5E4" d="M9.7 27.6v8.2l-.9-.3-.1-8.2s.2.1.3.1c.2.1.7.2.7.2zm3.6-.1v7l-3.6 1.3v-8.2l1.9-.6h.4z"/><path fill="#49494A" stroke="#49494A" d="M12.4 32.4l-1.4.5-.1-5.6 1.5-.1z" opacity=".11"/><ellipse cx="11.7" cy="34" fill="#49494A" stroke="#49494A" opacity=".76" rx=".3" ry=".4"/><path fill="#C1D8E8" d="M12.9 28.4v2.1s.6.8 2.8.8c2.2 0 2.8-.6 2.8-.6.1-.1.1-2.2.1-2.2l-5.7-.1z"/><path fill="#060303" stroke="#060303" d="M13.3 27.5v1.2s.8.7 2.5.8c1.8.1 2.2-.5 2.2-.5l.1-.9-1.4.5-3.4-1.1z"/><path fill="#3F4040" stroke="#060303" d="M12.9 29s1.3.9 3.1.8c1.8-.1 2.6-.8 2.6-.8v-.5h-.5s.2.5-.5.7c-.7.2-1.5.3-2.1.2-.6-.1-1.9-.5-1.9-.6-.1 0-.3-.2-.3-.2l-.2-.2h-.2v.6z"/><path fill="#0D0607" stroke="#0D0607" d="M16.3 30.6v.3s1.2 0 1.6-.1c.4-.2.7-.3.7-.3V30s-.6.6-1.1.6h-1.2z"/><path fill="#3F4040" stroke="#060303" d="M18.3 32.6l-.1 4.7s-1.5.9-2.6.8c-1.1-.1-2.3-.7-2.3-.7v-4.7h5z"/><path fill="#2D2D2D" stroke="#2D2D2D" d="M13.2 36.3v1s.6.7 2.6.7 2.4-.6 2.4-.6c.1-.1 0-1 0-1s0 .4-.5.6c-.5.2-1.4.4-2.2.4-.8-.1-2-.5-2-.5 0-.1-.3-.6-.3-.6z"/><path fill="#3F4040" stroke="#060303" d="M13.5 39.6V38s.6.3 1.2.2c.6-.1.8-.2.8-.2v1.5s-.5.1-1 .1c-.5.1-1 0-1 0z"/><path fill="#060303" stroke="#060303" d="M13.3 39.5v.5s.9.2 1.4.2c.8 0 1.1-.4 1.1-.4v-.5s-1 .3-1.2.3c-.3.1-1.3-.1-1.3-.1z"/><path fill="#49494A" stroke="#49494A" d="M8.1 3.1l4.3 5.6.1-.6-4.1-5.4z" opacity=".11"/><path fill="#FFF" d="M8.2 2.4l4.4 6 .5-.2-4.6-6.3z" opacity=".27"/><path fill="#49494A" stroke="#49494A" d="M14.5 7.8L9.9 1.7l-.5.2L14.1 8z" opacity=".06"/><path fill="#FFF" d="M9.3 2l4.4 5.9.5-.1-4.6-6.3z" opacity=".27"/><path fill="#49494A" stroke="#49494A" d="M12.6 8.4h.1l2.8 1.2 1.1.6s.6 1.9-.1 1.9-3.3-.3-3.3-.3l-.6-.1" opacity=".11"/><path fill="#F4F4F4" stroke="#F4F4F4" d="M12.6 12.9l-.3 1.1-.1 1.1s1.4-.3 2.1-.5c.7-.2 2.7-1 2.7-1l1.2-.5-1.9.2-2.4-.3-1.3-.1z"/><path fill="#D8D8D7" stroke="#D8D8D7" d="M5.7 20.4H6l2.1.7-2.4.7z"/><path fill="#E5E5E4" stroke="#E5E5E4" d="M5.4 17.2l-.4.3.2 4.8 3.5-1v-4.2l-.6-.3v4.3l-2.4.7-.2-4.4z"/><path fill="#E5E5E4" stroke="#E5E5E4" d="M5.4 17.2l7.9-2.3v.7l-4.6 1.5-.2-.3h-.4l-2.7 1z"/><ellipse cx="15.8" cy="22.8" fill="#C1D8E8" rx="5.9" ry="1.9"/><ellipse cx="15.7" cy="22.6" fill="#49494A" stroke="#49494A" opacity=".11" rx="5.5" ry="1.8"/><ellipse cx="15.8" cy="22.7" fill="#575757" stroke="#575757" rx="1.2" ry=".4"/><path fill="#0D0607" stroke="#0D0607" d="M14.6 20.4l-.1.5h1l-.2-.5h.5l-.1-.5-1.6.1v.4z"/><path fill="#C1D8E8" d="M11.4 22.6l1.9.9h.5v-.4l-2.2-.8h-.2zm4.7-1.5l2.1 1.2.4-.2v-.3l-2-.9z"/><path fill="#0D0607" stroke="#0D0607" d="M8.4 22.3h.7v.4h-.7z"/><path fill="#060303" stroke="#060303" d="M17.4 24.3v.6h.7v-.7zm-6.6-1.8v.3h.4v-.5z"/><path fill="#0D0607" stroke="#0D0607" d="M17.4 25.8l-.1.4 7.6-2.5v-.4z"/><path fill="#0D0607" stroke="#0D0607" d="M7.5 23.1l-.2.4 10 2.7.1-.4z"/><path fill="#FFF" stroke="#FFF" d="M20.8 14.6l.1.7.5.6 1.7 2.6.2-.4-1.5-2.2-.4-.8-.5-.8zm-4.2 1.8l.2 1 .2 2 .3 1.5.5-.2-.4-1.1-.2-1.3-.1-1.1-.2-1z" opacity=".32"/><path fill="#49494A" stroke="#49494A" d="M15.7 17.4l.1.9h.5l-.2-1.2z" opacity=".11"/><ellipse cx="15.8" cy="32.6" fill="#060303" stroke="#060303" rx="2.5" ry=".9"/><ellipse cx="15.8" cy="32.7" fill="#0D0607" stroke="#0D0607" rx="1.9" ry=".7"/><ellipse cx="14.5" cy="38" fill="#0D0607" stroke="#0D0607" rx="1" ry=".3"/><path fill="#494848" stroke="#494848" d="M6.7 28.9c0 1.6-.8 3.3-2.6 2.8-.5-.1-1.8-1.2-1.8-2.8 0-1.6.7-2.9 2-2.9 1.4 0 2.4 1.3 2.4 2.9z"/><path fill="#3D3D3D" stroke="#3D3D3D" d="M4.1 27.5s.7.8.7 1.4c0 .6-.2 1.4-.2 1.4l-1.7.4-.3-3 1.5-.2z"/><ellipse cx="2.8" cy="29.3" stroke="#000" rx="1" ry="1.5"/></g></switch></svg>
