<svg xmlns="http://www.w3.org/2000/svg" version="1.0" viewBox="0 0 40.5 45.7"><switch><g><path fill="#D0E7C4" stroke="#669866" stroke-width=".25" d="M0 2.4l.4-.1 3.9.2 3.2.3 1.3.1.2-.4h1.5v-.4L11 2l.3-.2.2-1.8.8.1s.6.8.6.9c0 .1.4 1 .4 1l.4.6v.5l.2.3.1.9.3.4.7-.1.4-.4.6.5.3.3.5.2s.9.1 1 .1c.1 0 2.5.2 2.5.2l.3-.5.5-.1.2-.3.3.1.4.4.6-.1.3-.2.5.2.1.3.4.4.5.7s.5.4.6.4c.1 0 1.3.9 1.3.9l.6.1.4-.2.6.2.2.1.6.3.4.9 1 .1 1.2.1s.3-.1.5-.1.6-.1.6-.1.4-.2.5-.2c.1 0 .7-.4.7-.4h.7l.5.3.6.2.9.1.8-.1.9.3.9.2 1 .1h.6v.3h-.4l-.4.4-10 6.5-.9.8h-.4v.5l.2.5.3.4.3.3-.1.4-.8-.1-.8-.1-.2.5-.3 4.3.2.2.2.3v.4l-.5.4-.6.2-.5.7h-.5l-.3.5-.2.5-.4.5-.3.6.2.3.4.4.5.4.3.5v.4l-.4.4-.4 4.7.6.2.4.4.2.5s.7.5.6.3c-.1-.2.8-.1.8-.1s.5.5.7.6c.2.1.7.3.7.3h.7l.7 1 .3.5.3.4.5.5s0 .4.1.4.9.1.9.1l.8.6.3.5.5.4.1.8.4.5.1.6-.3.9h-.6l-.6.4-1.3-.1-7.3.4-8-.1-1.2.2-1.5-.2-9.9-.2-.4-2 .7-9.8h-.4l.3-2.4V31l-.1-.2-.4.2-.1-.6-.9-.2-.4-.3-.3-.6.2-1.2h.6l1-1.1-.2-.6.4-1.6-1.5-3.7.1-2.9-.6-.2.3-4.7L.8 9.6.7 5.1l.1-1.3L0 2.4z"/></g></switch></svg>
