<svg xmlns="http://www.w3.org/2000/svg" version="1.0" viewBox="0 0 24.3 40.1"><switch><g><path fill="#D0E7C4" stroke="#669866" stroke-width=".25" d="M8.4 1.1l5.8-.6 2.1-.1 2.6-.3H21l.9-.1.7.6.1.4v9.9l.1.6-.2 6.8.3 1.6-.3 5.4.4.9.7 6.3.4 2.1.3 1.9v1.2l-.4.5h-.5l-1.4-.1-2.3.2-2.1.6-1.1.9-.8.4-.6-.2-.5-1.4-.6-.8s-.5-.6-.5-.7c0-.1-.1-.6-.1-.6s.1-.8.1-.9c0-.1.3-.8.3-.8l-.1-1-.6-.2-1.2.1-11.6.8L0 34l.7-5 .8-1 .8-1.4.9-1.3.3-.8.5-2.8-.4-.9-.3-.8-.2-1-.1-.6-.1-.9.3-.8.1-.9-.3-.7-.7-1.1.6-4.4.5-.3.3-.3.1-.8.5-1.4h.2l1.4-1.7.1-1.4.7-.7 1.7-1.9z"/></g></switch></svg>
