<svg xmlns="http://www.w3.org/2000/svg" version="1.0" viewBox="0 0 18.3 31.4"><switch><g><path fill="#669" stroke="#336" stroke-miterlimit="10" stroke-width=".25" d="M16.6 9c-.4 1.3 0 3.7-.2 5.2-.2 1.8-.8 3.7-.6 5.5.1 2.1-.4 4.9-1.1 6.9-.6 1.7-1.2 2.6-2.7 3.7-3.4 2.5-11 .3-11.7-3-.8-3.8.9-5.1 1.2-8.9.1-1.4.7-4 1-5.3.1-1.1.8-4.1 1.3-6l.6-1.4L16.6 9z"/><path fill="#9494C8" stroke="#336" stroke-miterlimit="10" stroke-width=".25" d="M3.4 4.8c.2-1.5-.2-3.3 1.1-4.4 1.2-1 2.6.1 4 .4 1.8.4 3.7.7 5.5.9.9.1 1.8.3 2.7.7 1 .5 1.2.7 1.1 1.8-.1 1.7-.3 3.2-.3 4.8 0 .6-.1 1.7-.9 2-.6.2-1.6-.4-2.1-.6-1.8-.6-3.8-1-5.7-1.5-.9-.3-1.8-.8-2.8-1-1.1-.1-1.9.1-2.8-.8l.2-2.3zm.8 2.9C3.5 5.8 3.8 2 4.8.2"/><path fill="#9494C8" stroke="#336" stroke-miterlimit="10" stroke-width=".25" d="M5.1 7.7c0-1.4-.1-2.7 0-4.1 0-.7.2-1.4.3-2.1.1-.3.2-1.1.6-1.4m.8.2c-.9 1.3-.5 2.9-.7 4.4C6 5.3 6 6 5.9 6.6c0 .4-.3.8-.1 1.2m1.4.4c.4-.5.5-1.5.6-2.1.1-.9.2-1.6.2-2.5 0-1 .2-1.9.3-2.8m.3 7.8c.7-1.5 1.1-3.1 1.1-4.8 0-.9.3-1.8.3-2.7m-.2 8c1.8-1.9 1.3-5.3 1.7-7.7m-.6 7.8c.6-.4 1-1.4 1.2-2 .3-.9.3-1.8.4-2.7 0-.6.1-1.2.1-1.8 0-.4.1-.8.1-1.2m.9.2c0 1.9-.2 3.9-.3 5.8 0 .7-.2 1.7-.6 2.3m.8.2c1-1.4 1.2-3.3 1.4-5.1.1-.6.1-1.2.1-1.8 0-.4 0-1 .1-1.3m-.5 8.5c-.1-.1 1-1.9 1.2-2.2.4-1 .4-1.9.6-2.9.1-.6.1-1.2.2-1.7 0-.3 0-.9.1-1m-1 8.2c1.1-1.4 1.3-3.2 1.4-5 0-1 .2-2 .2-3.1"/><path fill="#669" stroke="#336" stroke-miterlimit="10" stroke-width=".25" d="M16.3 10.9c1.1 1.5 1.1 3.5 1.1 5.5 0 2.5 0 4.5.8 6.8.8 2.4-2.6 1.8-3.9.8-1.4-1.1-2.4-3.7-2.2-5.4m-7.3 6.5c.8-1 2.1-1.4 2.7-2.6.7-1.4.3-2.9 1.5-4.2"/><path fill="#336" d="M9.2 18.2c-.2 2.1 1.8 4 .5 6.1-1.1 1.8-3.4 1.8-5.3 1.8-.4-1.3 2.2-2.3 2.9-3.4.5-.8.5-1.7.8-2.5.3-.7.8-1.3 1.1-2" opacity=".16"/></g></switch></svg>
