<svg xmlns="http://www.w3.org/2000/svg" version="1.0" viewBox="0 0 63.7 43.7"><switch><g><path fill="#D0E7C4" stroke="#669866" stroke-width=".25" d="M2.2 0l19.4 5.4 18 3.5 24.1 4.2-3.9 30.6-39.2-7-1 3.8-.8-.9-.1-.8-.5-.4-.6.2-.3.5-.6.5-.9-.2-.6-.4-2.5-.2-.1.6-1.1-.1-.5-.5-.8-.1-.5.3-.6-.1-.5-1.1v-1.3l-.2-1-.7-.5-.8-.3.3-1.5-1-2.5v-2.2l-.1-.9-.5-.2-.4.4-.6.3-.3.5-.7-.1-.6-.4-.3-.4-.5-.1.3-.5.2-.4.1-1.2.6-.2h.4l.4-.3-.3-.6.1-1.2.4-.1.3-1 .6-.7.6-1v-.6l-.9-.1-.2-.4-.6-.5-.5-.3-.3-.7v-.9l-1.7-3.6-.6-.5-.6-.9.3-3.4L.2 8 0 7.3l.1-1.5.4-.3z"/></g></switch></svg>
