<svg xmlns="http://www.w3.org/2000/svg" version="1.0" viewBox="0 0 220 129"><switch><g><path fill="#A8D48D" d="M.1 0H220v128.5H.1V0z"/><path fill="#0F0F10" d="M.1 80.4L220 81.6v-3L.1 77.3v3.1z" opacity=".1"/><path fill="#C1A682" stroke="#9F8363" d="M.5 74l219.3.3-.5 7.6L.4 80.2.5 74z"/><path fill="#FCDD87" d="M.4 80.2H220v48.4H.4V80.2z"/><path fill="#D4953A" d="M65.4 84.4s1.5 2.4 0 5.3-5.5 6.4-5.3 9.3c.3 2.9 0 7.6 0 7.6h-3.5s-.8-4.9 0-6.6.8-15.7.8-15.7l8 .1zm109.4-3.5s-1.5 2.4 0 5.3 5.3 6.4 5.1 9.3 0 7.6 0 7.6h3.4s.7-4.9 0-6.6-.7-15.7-.7-15.7l-7.8.1z"/><path fill="#E9B14C" d="M44.2 45l1.9 1.3S54.8 19.2 79 18c22.5-1.2 21.4 3.2 33.5 10 10 5.6 13.5 10.3 25.5 14.3 13.4 4.5 27 6.1 28.7 7.1s8 3.8 10.2 9.4c4.2 10.6 3 11.2 3 11.2L58.3 73.2s-.5-10.1-2.7-13.8-8-11.8-8-11.8L44.2 45z"/><g fill="#F2C460"><path d="M59.3 90.3s-1.9-24.1-3.9-29c-1.9-4.9-6.8-18.2-16.5-13.7l-2.2 2.2s-1.5-.5-2.2 4.4-.5 7.6 2.2 11.8c2.7 4.2 6.2 7.9 10 11.3s4.3 8.1 4.3 8.1l-.2 4.9h8.5z"/><path d="M59.6 90.6h-9.2l.3-5.2s-.5-4.5-4.2-7.8c-4.5-4.1-7.7-7.7-10.1-11.4-2.8-4.4-2.9-7.2-2.2-12 .6-4.1 1.7-4.7 2.4-4.7l2.2-2.2c1.3-.6 2.7-.9 3.9-.9 7.2 0 11 9.7 12.8 14.4l.2.5c1.9 4.9 3.8 28.1 3.9 29.1v.2zm-8.5-.6h7.8c-.2-3-2.1-24-3.8-28.5l-.2-.5c-1.8-4.5-5.5-14-12.2-14-1.2 0-2.4.3-3.6.8l-2.3 2.3-.2-.1c-.4 0-1.3.9-1.8 4.2-.7 4.7-.6 7.4 2.1 11.6 2.3 3.6 5.5 7.2 10 11.2 3.9 3.5 4.4 8.1 4.4 8.3l-.2 4.7z"/></g><g fill="#F2C460"><path d="M46.2 45.9l1.9 1.3s8.9-28.4 33.2-28c24.3.5 18.9 4.3 30.7 10.2 10.2 5.1 19.4 14.5 31.8 16.7 12.4 2.2 20.6 3.2 22.3 4.2s9.2 5.2 10.2 11c1 5.9 2.7 10.1 2.7 10.1L60.2 74.2s-.5-10.1-2.7-13.7c-2.2-3.7-8-11.8-8-11.8l-3.3-2.8z"/><path d="M59.9 74.5v-.3c0-.1-.5-10-2.6-13.6-2.1-3.5-7.5-11.1-8-11.7L46 46.2l.4-.5 1.6 1.1c1.2-3.5 10.7-28.2 33.3-27.8 17.1.3 19.5 2.3 23.6 5.6 1.7 1.4 3.7 2.9 7.2 4.7 3.6 1.8 7 4 10.5 6.4 6.5 4.3 13.2 8.8 21.2 10.2 4.2.8 7.9 1.4 11.1 1.9 6.3 1 10.1 1.7 11.3 2.3l.2.1c6.1 3.5 9.5 7.3 10.2 11.2 1 5.8 2.6 10 2.7 10l.2.4-119.6 2.7zM48.4 47.3l1.4 1.1c.1.1 5.9 8.2 8 11.8 2 3.4 2.6 11.8 2.7 13.6l117.9-2.7c-.5-1.2-1.7-4.9-2.5-9.7-.6-3.7-3.9-7.3-9.9-10.7l-.2-.1c-1.1-.6-5.1-1.3-11.1-2.3-3.2-.5-6.9-1.1-11.1-1.9-8.1-1.5-14.9-6-21.4-10.3-3.6-2.4-6.9-4.6-10.5-6.4s-5.6-3.4-7.3-4.7c-4-3.2-6.4-5.1-23.2-5.4-23.3-.4-32.4 26.6-32.8 27.7z"/></g><path fill="#E9B14C" d="M52 88.8c0-1.2-.1-2.5-.1-3.8-.3-10.3-.5-21-7.3-29.2l.5-.4c6.9 8.3 7.2 19.1 7.5 29.6 0 1.3.1 2.5.1 3.8H52z"/><path fill="#F5C76F" d="M181.2 70.7l15.5 5.4L58.1 79v-5.4l123.1-2.9z"/><path fill="#F2C460" d="M57.8 79.3v-6l123.4-3 15.6 5.4-.1.6-138.9 3zm.7-5.4v4.8L195 75.8 181.1 71 58.5 73.9z"/><path fill="#E9B14C" d="M51 85.4c-.1 4.1-.2 4.9-.2 4.9s126.5 1.2 131.8 0 12.6-3.2 12.6-3.2l1.5-11L58.1 79l-9.6.3s2.6 2 2.5 6.1z"/><path fill="#E1A642" d="M59.1 90.3s1.5 2.4 0 5.3-5.5 6.4-5.3 9.3c.3 2.9 0 7.6 0 7.6h-3.5s-.8-4.9 0-6.6.8-15.7.8-15.7l8 .1zm128.8-3.2s-1.5 2.4 0 5.3 5.3 6.4 5.1 9.3 0 7.6 0 7.6h3.4s.7-4.9 0-6.6-.7-15.7-.7-15.7l-7.8.1z"/><g fill="#684219"><path d="M118.7 65.5s4.1-3.5 5.5-10.1c1.3-6.6 4.2-17.4 4.2-17.4s9.3 3.7 13.3 2.7 11.3.2 11.3.2-4.3 14.2-5.5 18.7c-1.2 4.4-1 12.3-1 12.3s-13.3 0-17.2-2.5c-3.8-2.5-10.6-3.9-10.6-3.9z"/><path d="M147 72.1h-.3c-.5 0-13.5 0-17.4-2.5-3.8-2.4-10.5-3.8-10.6-3.8l-.6-.1.5-.4s4.1-3.5 5.4-9.9c1.3-6.6 4.2-17.3 4.3-17.5l.1-.3.3.1c.1 0 7.3 2.8 11.6 2.8.6 0 1.1-.1 1.5-.2 1.1-.3 2.4-.4 4.1-.4 3.6 0 7.3.6 7.3.6l.4.1-.1.3c0 .1-4.3 14.3-5.5 18.7-1.2 4.3-1 12.1-1 12.2v.3zm-27.6-6.8c1.8.4 6.9 1.7 10.2 3.8 3.4 2.2 14.7 2.4 16.7 2.4 0-1.6-.1-8.1 1-12 1.1-4 4.7-16.1 5.4-18.3-1-.2-4-.6-6.9-.6-1.6 0-2.9.1-3.9.4-.5.1-1 .2-1.7.2-4 0-10-2.2-11.5-2.8-.5 1.9-3 11.2-4.1 17.1-1.2 5.4-4.1 8.7-5.2 9.8z"/></g><g fill="#4B2C19"><ellipse cx="134.5" cy="54.8" rx="1.2" ry="1.4"/><path d="M134.5 56.5c-.9 0-1.6-.8-1.6-1.7 0-1 .7-1.7 1.6-1.7.9 0 1.6.8 1.6 1.7-.1.9-.8 1.7-1.6 1.7zm0-2.8c-.5 0-.9.5-.9 1.1s.4 1.1.9 1.1.9-.5.9-1.1-.4-1.1-.9-1.1zm1 4.5c-.5-.7-.7-1.5-.6-2.3"/><path d="M135.2 58.4c-.5-.8-.8-1.6-.7-2.5l.6.1c-.1.8.1 1.5.6 2.1l-.5.3zm-1.4-3.6c-1.3-.3-2.4.4-2.7 1.7"/><path d="M131.5 56.6l-.6-.1c.3-1.4 1.7-2.2 3.1-1.9l-.1.6c-1.2-.3-2.2.3-2.4 1.4zm3.8-2.4c-.3 0-.5-.2-.4-.5.5-.4 1.2-.8 1.8-.8"/><path d="M135.3 54.5c-.3 0-.5-.1-.6-.2-.1-.2-.2-.4-.1-.6v-.1l.1-.1c.6-.5 1.4-.8 2-.9v.6c-.5 0-1 .2-1.5.6l.1.7z"/><path d="M134.3 54c0-.8-.2-1.5-.8-2.1m1.1 2.1h-.6c0-.7-.2-1.3-.7-1.9l.5-.5c.5.7.8 1.5.8 2.4z"/></g><g fill="#962D21"><path d="M141.6 47.9s7.8 1.5 12.6 0c4.9-1.5 12.1 0 12.1 0l1.5 23.3s-7.5 1.5-10.9 1.2c-3.4-.2-12.1 0-12.1 0s-.8-12.5-.8-14.5c0-1.9-2.4-10-2.4-10z"/><path d="M144.5 72.8v-.3c0-.5-.7-12.6-.7-14.5s-2.4-9.9-2.4-10l-.2-.5.5.1s3.5.6 7.1.6c2.1 0 3.9-.2 5.3-.6 1.5-.4 3.3-.7 5.4-.7 3.6 0 6.9.7 6.9.7h.2l1.5 23.9-.3.1c-.3.1-7.6 1.5-11 1.2-.9-.1-2.4-.1-4.2-.1-3.7 0-7.8.1-7.9.1h-.2zm8.1-.8c1.9 0 3.3 0 4.3.1 3 .2 9.2-.9 10.6-1.2l-1.4-22.8c-.8-.1-3.6-.6-6.5-.6-2.1 0-3.8.2-5.2.6-1.5.4-3.3.7-5.5.7-2.9 0-5.6-.4-6.7-.6.5 1.8 2.3 7.9 2.3 9.7s.6 12.2.7 14.2c.9 0 4.3-.1 7.4-.1z"/></g><g fill="#81221A"><ellipse cx="155.8" cy="60.4" rx="1.2" ry="1.4"/><path d="M155.8 62.1c-.9 0-1.6-.8-1.6-1.7 0-1 .7-1.7 1.6-1.7.9 0 1.6.8 1.6 1.7s-.7 1.7-1.6 1.7zm0-2.8c-.5 0-.9.5-.9 1.1s.4 1.1.9 1.1.9-.5.9-1.1-.4-1.1-.9-1.1zm1 4.5c-.5-.7-.7-1.5-.6-2.3"/><path d="M156.6 64c-.5-.8-.8-1.6-.7-2.5l.6.1c-.1.8.1 1.5.6 2.1l-.5.3zm-1.4-3.6c-1.3-.3-2.4.4-2.7 1.7"/><path d="M152.8 62.2l-.6-.1c.3-1.4 1.7-2.2 3.1-1.9l-.1.6c-1.2-.3-2.2.3-2.4 1.4zm3.8-2.4c-.3 0-.5-.2-.4-.5.5-.4 1.2-.8 1.8-.8"/><path d="M156.6 60.1c-.3 0-.5-.1-.6-.2-.1-.1-.2-.3-.1-.6v-.1l.1-.1c.6-.5 1.4-.8 2-.9v.6c-.5 0-1 .2-1.5.6l.1.7z"/><path d="M155.6 59.6c0-.8-.2-1.5-.8-2.1m1.1 2.1h-.6c0-.7-.2-1.3-.7-1.9l.5-.5c.5.7.9 1.5.8 2.4z"/></g><path fill="#231F54" stroke="#15133F" stroke-width=".5" d="M63.5 66.3s19.7-5.5 24.5-5.1 9.2.7 12 1.5c2.8.7-9-5.1-8.2-8.7.8-3.6 10.6-13.5 8.6-15.6-2-2.2-3.6-4-3.6-4s-10.4 1.8-13.6 1.8-10-2.2-10-2.2-2.8 1.5-3.6 2.9c-.8 1.5-1 2.4-2.2 4.6-1.2 2.2-4.4 3.4-3.2 4.5 1.2 1.1.4-1.8 0 0s2.9 2.6 5.7 2.9c2.8.4-2 7.7-.4 6.6 1.6-1.1-1.9 2.2-3.5 5.1-1.6 2.9-4.4 6.2-4.4 7.3-.1.9 1.9-1.6 1.9-1.6zm-3.4 28.4l1.2 1.8 3.6-4.7s-4.4 6.9-4 9.1.4 6.2 2.8 5.1 8.4-6.2 8.8-7.6c.4-1.5.1-4 .1-4s-2.5 4-3.8 1.9c-1.2-2.2 0-8.7 0-8.7s-2.4 0-4.4 1.5c-1.9 1.3-4.3 5.6-4.3 5.6zm17.6 12.1s-2.8 2.5-4 .7-1.2-3.6-1.2-4.7.8-2.9.8-2.9-5.6 3.6-5.6 6.2c0 2.5 0 8.4 2 8.4s5.6-1.8 6.8-2.9c1.2-1.1 1.2-4.8 1.2-4.8z"/><path fill="#010101" stroke="#010101" stroke-width=".5" d="M100.6 78.1s-8.2 11.5-11.5 15.2c-2.1 2.4 0 0-4.2 5.9-.9 1.2-4.8 2.8-4.4 3.9s-4 .7-4 .7-1.2-2.5-1.2-4.7 4.8-8 4.8-9.1 1.2-4.4 5.2-5.5 9.6-3.6 9.6-3.6l5.7-2.8zm-35.2.9s6.8 1.1 10-.7 14.4-10.5 20.5-6.5c6 4 4.8 6.2 4.8 6.2s3.4-13.9.5-15.3c-3.1-1.5-19.8-2.1-24.2-1.4-4.4.7-6.4 1.1-10 1.8s-4.8 3.3-6 4.7c-1.2 1.5-2.4 2.9-1.6 4.4.8 1.5 0 3.3 2 5.1 2 1.7 4 1.7 4 1.7z"/><path fill="#231F20" stroke="#231F20" d="M66.8 55.6c.2-.2 2.9-1.9 2.9-1.9s.3-4.3.1-4.9c-.2-.6-2.2 1.6-3.1 2.8s-1.9 3.2-1.9 3.2l2 .8zm14.8-1.7s2.6-1.7 3.7-2.1c1.1-.4 2.2-.3 3-.2s-1 1.8-1.9 2.4c-.9.6-1.7.7-2.1.8-.3 0-2.7-.9-2.7-.9z" opacity=".3"/><path fill="#E9BA8A" stroke="#CB905E" stroke-width=".25" d="M67.7 21.7s-.3 9 .5 10.5c.7 1.5 4 4.2 10.4 6.2 3.4 1 5.5 1.1 7 1 1.6-.2 2.6-.6 3.8-.6 2.4 0 5.9-3.4 7.5-4.9s2.8-5 3.2-7.4c.4-2.4.7-5.3.4-6-.3-.7-1-7.9-1-9.5 0-3.7-11.2-7-15.3-7-4 0-15 6.8-15.7 8.2s-.8 9.5-.8 9.5z"/><linearGradient id="a" x1="91.242" x2="100.565" y1="98.2" y2="98.2" gradientTransform="matrix(1 0 0 -1 0 129)" gradientUnits="userSpaceOnUse"><stop offset="0" stop-color="#ec1875"/><stop offset="1" stop-color="#fff5cc"/></linearGradient><ellipse cx="95.9" cy="30.8" fill="url(#a)" opacity=".18" rx="4.7" ry="3.6"/><circle cx="91.8" cy="23.9" r=".8" fill="#060608" stroke="#010101" stroke-width=".75"/><circle cx="81.7" cy="24.3" r=".8" fill="#060608" stroke="#010101" stroke-width=".75"/><linearGradient id="b" x1="79.944" x2="68.685" y1="98.2" y2="98.2" gradientTransform="matrix(1 0 0 -1 0 129)" gradientUnits="userSpaceOnUse"><stop offset="0" stop-color="#ec1875"/><stop offset="1" stop-color="#fff5cc"/></linearGradient><ellipse cx="74.3" cy="30.8" fill="url(#b)" opacity=".18" rx="5.6" ry="4.3"/><path fill="#010101" stroke="#010101" stroke-width=".5" d="M85.9 11.1c-7.4-.8-13.5 2.9-16.3 10-1.2 2.9-.9 6-.3 9.1.6 3 3 7 2.7 9.9-2.1-1.1-4.3-.4-5.6 1.9-1.5-7.3-2.7-16.6-2.1-23.9.7-8.1 12.3-13 19.8-12.4"/><path fill="#FFF" d="M77.8 30.3c.2.1 7 4.5 9.9 4.1 2.8-.4 7.6-3.6 7.6-3.6s-6.4 7.2-8.5 7c-2.3-.2-9-7.5-9-7.5z"/><path fill="#E9BA8A" stroke="#B17C54" stroke-width=".25" d="M85.9 27.9s1.3-2.4 2-1.9 1 2.2 1 2.2"/><path fill="#010101" stroke="#010101" stroke-width=".5" d="M89.1 71c-4.4 2.5-11 6.9-13.4 11.3-1.5 2.7-1.2 4.9 2.4 5.9 2.8.8 4.9-.5 7.6-1.6 3.7-1.5 13.4-4.7 14.9-8.4 2.4-5.7-7-9.8-11.5-6.8"/><path fill="#E9BA8A" stroke="#CB905E" stroke-width=".25" d="M79.3 104.3c-.5 2.9-4.2 4.7-6.3 2.6-3.2-3.1 1.3-5.1 1.9-7.8m.8-16.9c-1.5 1.9-7.2 4.4-8.4 6.2-.6.8-1.4 5.6-1 6.5 2.4 6.1 9.4-3.5 11.2-5.9"/><radialGradient id="c" cx="-1383.004" cy="507.127" r="2.535" gradientTransform="matrix(.4694 0 0 -.4694 725.713 281.997)" gradientUnits="userSpaceOnUse"><stop offset="0" stop-color="#59aeca"/><stop offset=".388" stop-color="#6bb1ca"/><stop offset="1" stop-color="#8bb9cb"/></radialGradient><ellipse cx="76.5" cy="44" fill="url(#c)" rx="1.3" ry="1.1"/><radialGradient id="d" cx="-1389.314" cy="514.366" r="2.537" gradientTransform="matrix(.4694 0 0 -.4694 725.713 281.997)" gradientUnits="userSpaceOnUse"><stop offset="0" stop-color="#59aeca"/><stop offset=".388" stop-color="#6bb1ca"/><stop offset="1" stop-color="#8bb9cb"/></radialGradient><ellipse cx="73.6" cy="40.6" fill="url(#d)" rx="1.3" ry="1.1"/><radialGradient id="e" cx="-1376.922" cy="499.692" r="2.537" gradientTransform="matrix(.4694 0 0 -.4694 725.713 281.997)" gradientUnits="userSpaceOnUse"><stop offset="0" stop-color="#59aeca"/><stop offset=".388" stop-color="#6bb1ca"/><stop offset="1" stop-color="#8bb9cb"/></radialGradient><ellipse cx="79.4" cy="47.4" fill="url(#e)" rx="1.3" ry="1.1"/><radialGradient id="f" cx="-1372.148" cy="491.135" r="2.536" gradientTransform="matrix(.4694 0 0 -.4694 725.713 281.997)" gradientUnits="userSpaceOnUse"><stop offset="0" stop-color="#59aeca"/><stop offset=".388" stop-color="#6bb1ca"/><stop offset="1" stop-color="#8bb9cb"/></radialGradient><ellipse cx="81.6" cy="51.5" fill="url(#f)" rx="1.3" ry="1.1"/><radialGradient id="g" cx="-1366.851" cy="484.115" r="2.536" gradientTransform="matrix(.4694 0 0 -.4694 725.713 281.997)" gradientUnits="userSpaceOnUse"><stop offset="0" stop-color="#59aeca"/><stop offset=".388" stop-color="#6bb1ca"/><stop offset="1" stop-color="#8bb9cb"/></radialGradient><ellipse cx="84.1" cy="54.8" fill="url(#g)" rx="1.3" ry="1.1"/><radialGradient id="h" cx="-1360.847" cy="477.642" r="2.536" gradientTransform="matrix(.4694 0 0 -.4694 725.713 281.997)" gradientUnits="userSpaceOnUse"><stop offset="0" stop-color="#59aeca"/><stop offset=".388" stop-color="#6bb1ca"/><stop offset="1" stop-color="#8bb9cb"/></radialGradient><ellipse cx="86.9" cy="57.8" fill="url(#h)" rx="1.3" ry="1.1"/><radialGradient id="i" cx="-1358.717" cy="486.477" r="2.536" gradientTransform="matrix(.4694 0 0 -.4694 725.713 281.997)" gradientUnits="userSpaceOnUse"><stop offset="0" stop-color="#59aeca"/><stop offset=".388" stop-color="#6bb1ca"/><stop offset="1" stop-color="#8bb9cb"/></radialGradient><ellipse cx="87.9" cy="53.6" fill="url(#i)" rx="1.3" ry="1.1"/><radialGradient id="j" cx="-1358.145" cy="495.859" r="2.534" gradientTransform="matrix(.4694 0 0 -.4694 725.713 281.997)" gradientUnits="userSpaceOnUse"><stop offset="0" stop-color="#59aeca"/><stop offset=".388" stop-color="#6bb1ca"/><stop offset="1" stop-color="#8bb9cb"/></radialGradient><ellipse cx="88.2" cy="49.2" fill="url(#j)" rx="1.3" ry="1.1"/><radialGradient id="k" cx="-1357.335" cy="502.403" r="2.537" gradientTransform="matrix(.4694 0 0 -.4694 725.713 281.997)" gradientUnits="userSpaceOnUse"><stop offset="0" stop-color="#59aeca"/><stop offset=".388" stop-color="#6bb1ca"/><stop offset="1" stop-color="#8bb9cb"/></radialGradient><ellipse cx="88.6" cy="46.2" fill="url(#k)" rx="1.3" ry="1.1"/><radialGradient id="l" cx="-1354.636" cy="510.397" r="2.536" gradientTransform="matrix(.4694 0 0 -.4694 725.713 281.997)" gradientUnits="userSpaceOnUse"><stop offset="0" stop-color="#59aeca"/><stop offset=".388" stop-color="#6bb1ca"/><stop offset="1" stop-color="#8bb9cb"/></radialGradient><ellipse cx="89.8" cy="42.4" fill="url(#l)" rx="1.3" ry="1.1"/><radialGradient id="m" cx="-1351.173" cy="516.729" r="2.537" gradientTransform="matrix(.4694 0 0 -.4694 725.713 281.997)" gradientUnits="userSpaceOnUse"><stop offset="0" stop-color="#59aeca"/><stop offset=".388" stop-color="#6bb1ca"/><stop offset="1" stop-color="#8bb9cb"/></radialGradient><ellipse cx="91.5" cy="39.4" fill="url(#m)" rx="1.3" ry="1.1"/><path fill="#010101" stroke="#010101" stroke-width=".5" d="M79.9 9.9c2.4 1.4 3.5 4.3 6.4 5.8 2.6 1.3 5.2 1.8 8 2.4.9.2 3.5.5 4.1 1.2 1.7 1.8 0 1.8 0 3.8-.1 2.8 1 5.3-1.1 8.1-1.7 2.2-4.3 3.4-5.3 6.4-.9 2.8 1 5.1.6 7.9-.2 1.2-4.4 8.2.1 6.5 1.8-.7 2.6-7 3-8.7 1.3-5.9 4.5-10.6 7.5-15.7 2.4-4.2 1.2-11.4-.5-15.8C100.3 5.6 95.4 3.6 89 3c-2.6-.3-5.4-1.2-7.9-.1-3.6 1.6-3.6 4.9-.9 7.7"/><path fill="#231F54" stroke="#010101" stroke-width=".5" d="M86.1 40c.9 1.3 2.8 2.9 3.3 4.5.6 1.9 1.5 4.1 3.3 5.3 1.7-1.2 3.8-3.6 3.6-5.9-.2-3.5-3.1-2.2-4.8-4.7"/><path fill="#010101" stroke="#010101" stroke-width=".5" d="M75.5 13.9c-4.1 2.4-6.5 7.8-6.4 12.4.1 5.3 4.2 8.6 6.8 12.6-3.2 3.5-5.8-4.6-6.8-6.4"/><path fill="#E9BA8A" stroke="#040404" stroke-width=".25" d="M87.2 63.5c1.5-.3 3.9-.6 3.9 1.6-.9.4-1.7.1-2.5-.5"/><path fill="#010101" stroke="#010101" stroke-width=".5" d="M67.3 42.7c-3.1-.3-1.6 3.2-3.2 4.4-1.7 1.3-3.2-.7-2.6-2.8 1.6 1.6 4.9.1 5-2.2M71.9 21c-4 5.5-.2 17.2 6.5 18.4-4 3.4-7.8-2.8-9.1-5.9-1.6-3.9-.9-7.5-.1-11.3"/><path fill="#010101" stroke="#010101" stroke-width=".5" d="M75.9 40c1.9.9 2.2 3.2 1.4 4.9 7.3-.9-3.8-8.7-4.4-9.8-.7-1.4-.9-5.1-1-6.7-.1-2.2 1.1-4.5.8-6.5-2.7-.2-4.2 4.5-4.1 6.7.2 2.9 2.9 6.8 4.8 8.9m6.3-27.6c-.2 2.1-1.4 3.7-2.4 5.6 2.3.5 4.5-1.5 5.3-3.7"/><path fill="#010101" stroke="#010101" stroke-width=".5" d="M78.4 10.5c-1.6 1.7-2.9 4.2-2.2 6.7 1-1.6 1.5-3.3 2.5-4.8M90 12c-1.6 1.7-2.9 4.2-2.2 6.7 1-1.6 1.5-3.3 2.5-4.8m1.5-.5c-1.6 1.7-2.9 4.2-2.2 6.7 1-1.6 1.5-3.3 2.5-4.8m1.8-1C92.3 16 91 18.5 91.7 21c1-1.6 1.5-3.3 2.5-4.8"/><path fill="#010101" stroke="#010101" stroke-width=".5" d="M93 15.4c.9 1.7 1.7 4.2 1.3 6.6-.6-1.6-.9-3.3-1.5-4.8m2.6-7.1c.9 1.7 1.7 4.2 1.3 6.7-.6-1.6-.9-3.3-1.5-4.8"/><path fill="#AA1E2C" d="M100.3 71.8c-.3 2.4.9 9.5 2.2 11.4 1.4-2.7 1.1-8 5.7-4.8 2.8 2 4.6 7.3 8.5 3.7 1.2-1.1 1.3-4.1 3.2-4.6 1.9-.5 3.3 2.7 5 3.1 2.6.6 8.7-3.6 9.9-5.8 1.7-3 0-7.4-3.6-7.3-2.9.1-6.9 2.5-9.8 3.4-6.3 2-13.3 2.7-19.8 1.1"/><linearGradient id="n" x1="200.235" x2="210.614" y1="257.043" y2="257.043" gradientTransform="scale(1 -1) rotate(9.154 2317.123 -449.324)" gradientUnits="userSpaceOnUse"><stop offset="0" stop-color="#fff3cb"/><stop offset=".411" stop-color="#ffeabd"/><stop offset="1" stop-color="#ffdba3"/></linearGradient><path fill="url(#n)" d="M117.5 98.8s3.7 1.9 5 1.1c1.3-.7 3.2-2.4 3.2-2.4s0-13.8-2.6-18-2.7-4.1-4.7-3.8c-2.3.3-3.2 4.6-3.6 6.6s.3 8.2.3 8.2l2.4 8.3z"/><linearGradient id="o" x1="219.18" x2="229.559" y1="314.45" y2="314.45" gradientTransform="scale(1 -1) rotate(11.8 2115.244 -451.355)" gradientUnits="userSpaceOnUse"><stop offset="0" stop-color="#fff3cb"/><stop offset=".411" stop-color="#ffeabd"/><stop offset="1" stop-color="#ffdba3"/></linearGradient><path fill="url(#o)" d="M105.6 98.8s3.8 1.5 5 .8c1.2-.8 3.1-2.5 3.1-2.5s-.5-13-3.2-16.8-2.8-3.7-4.8-3.3c-2.3.4-3 4.5-3.3 6.4s.6 7.7.6 7.7l2.6 7.7z"/><path fill="#1D8543" d="M105.7 99.2l1.8 8.7 6-1.5.3-8.9s-2.1 2.3-3.8 2.2c-1.7-.1-4.3-.5-4.3-.5z"/><linearGradient id="p" x1="218.519" x2="227.673" y1="289.972" y2="289.972" gradientTransform="scale(1 -1) rotate(11.8 2115.244 -451.355)" gradientUnits="userSpaceOnUse"><stop offset="0" stop-color="#0c0c0d"/><stop offset=".295" stop-color="#11131c"/><stop offset=".888" stop-color="#101735"/><stop offset="1" stop-color="#0e173a"/></linearGradient><path fill="url(#p)" stroke="#010101" stroke-width=".25" d="M115 109.5s-3.2-.2-5.3.8c-2.3 1.1-2.8 3.1-2.8 3.1s.2 1.5 1.6 1.8 2.1.7 3.4.2c2-.7 3.3-1.4 3.6-1.9.4-.8.2-3 .2-3l-.7-1z"/><linearGradient id="q" x1="218.519" x2="227.833" y1="293.755" y2="293.755" gradientTransform="scale(1 -1) rotate(11.8 2115.244 -451.355)" gradientUnits="userSpaceOnUse"><stop offset="0" stop-color="#0c0c0d"/><stop offset=".295" stop-color="#11131c"/><stop offset=".888" stop-color="#101735"/><stop offset="1" stop-color="#0e173a"/></linearGradient><path fill="url(#q)" stroke="#010101" stroke-width=".25" d="M107.6 107.8l-.5 5.8s2.1-3.1 4.1-3.7c2-.5 4.7.7 4.7.7s-.4-3.5-.9-4.3-1.9-2.8-2.6-1.1c-.7 1.8-4.8 2.6-4.8 2.6z"/><path fill="#1D8543" d="M117.5 99.3l1.4 8.7 6.1-1.2.7-8.9s-2.2 2.2-3.9 2.1c-1.7-.2-4.3-.7-4.3-.7z"/><linearGradient id="r" x1="199.536" x2="208.691" y1="231.795" y2="231.795" gradientTransform="scale(1 -1) rotate(9.154 2317.123 -449.324)" gradientUnits="userSpaceOnUse"><stop offset="0" stop-color="#0c0c0d"/><stop offset=".295" stop-color="#11131c"/><stop offset=".888" stop-color="#101735"/><stop offset="1" stop-color="#0e173a"/></linearGradient><path fill="url(#r)" stroke="#010101" stroke-width=".25" d="M126.3 110s-3.2-.3-5.3.6c-2.3 1-2.9 3-2.9 3s.2 1.5 1.5 1.9c1.4.3 2.1.8 3.4.4 2.1-.6 3.4-1.2 3.7-1.8.4-.7.3-2.9.3-2.9l-.7-1.2z"/><linearGradient id="s" x1="199.538" x2="208.851" y1="235.614" y2="235.614" gradientTransform="scale(1 -1) rotate(9.154 2317.123 -449.324)" gradientUnits="userSpaceOnUse"><stop offset="0" stop-color="#0c0c0d"/><stop offset=".295" stop-color="#11131c"/><stop offset=".888" stop-color="#101735"/><stop offset="1" stop-color="#0e173a"/></linearGradient><path fill="url(#s)" stroke="#010101" stroke-width=".25" d="M118.9 108l-.8 5.8s2.2-3 4.2-3.5 4.6.9 4.6.9-.2-3.5-.7-4.3-1.8-2.9-2.5-1.2c-.6 1.6-4.8 2.3-4.8 2.3z"/><linearGradient id="t" x1="151.063" x2="160.637" y1="193.403" y2="193.403" gradientTransform="scale(1 -1) rotate(4.744 3060.555 -443.479)" gradientUnits="userSpaceOnUse"><stop offset="0" stop-color="#ffedc5"/><stop offset=".388" stop-color="#ffe9b9"/><stop offset="1" stop-color="#ffe1a0"/></linearGradient><path fill="url(#t)" d="M115.1 51.3s3.7-.2 2.7-2.5c-1.1-2.3-.9-1.7-.9-1.7s-4.7-.5-5.8-.4c-1.1.1-2.8 2-2.8 2l4.8 2.5 2 .1z"/><path fill="none" d="M104.3 49.6s-.5-1.5-1.6-.6c-1.1.8-1.8 1.5-2.1 2.3-.3.8-.3 2.6-.3 2.6l-.7 1.9V58s1.6 1.6 1.8 2c.3.4 2.3.1 2.3.1l2.5-3.6s0-3.3-.1-4c-.1-.6-1.8-2.9-1.8-2.9z"/><path fill="#F7F8F9" d="M110.1 46.9s-1.2 1.8-.5 2.6 3.5 1.7 3.5 1.7l.2 1.2-.4 2.4s-1.5-.7-2.4-1.3-1-2-1.4-2.5-.8-2.3-.8-2.3l.9-1.9 1-.7-.1.8zm5 4.4l.8 1.5 1.6.9 1.7-4 .6-2-1.4-1.8-1.3-.5-.2 1.8.6.7.3.9-2.7 2.5z"/><path fill="#643429" d="M121.5 51.7c.4-1.9 1.6-3.1 3.4-3.2 1.4 1.3 2.2 3 2.1 4.8-1-1.2-2.5-2.3-4.1-2.7"/><linearGradient id="u" x1="307.998" x2="337.069" y1="515.26" y2="515.26" gradientTransform="scale(1 -1) rotate(18.718 1885.79 -411.698)" gradientUnits="userSpaceOnUse"><stop offset="0" stop-color="#ffedc5"/><stop offset=".388" stop-color="#ffe9b9"/><stop offset="1" stop-color="#ffe1a0"/></linearGradient><path fill="url(#u)" d="M120.6 29.8c-.4-.4-1.6-6.1-1.9-7.2-1.9-5.7-11.9-.9-15.4.3C99.9 24 92.1 32 91.9 33.1s3.1 7.1 3.1 7.1 1.4 6.3 1.5 6.9c.1 1.3 4.4 1.3 10.3 1.3 6.2 0 8.4-1.1 10.3-3.3 1.4-1.7 3.3-3.6 4.3-5.1l-.2-10.4"/><linearGradient id="v" x1="327.586" x2="333.622" y1="511.09" y2="511.09" gradientTransform="scale(1 -1) rotate(18.718 1885.79 -411.698)" gradientUnits="userSpaceOnUse"><stop offset="0" stop-color="#ec1875"/><stop offset="1" stop-color="#fff5cc"/></linearGradient><path fill="url(#v)" d="M119.6 35.8c.6 1.9-.1 3.9-1.7 4.4s-3.4-.6-4-2.5.1-3.9 1.7-4.4 3.4.6 4 2.5z" opacity=".13"/><ellipse cx="105.2" cy="37" fill="#070808" rx="1.1" ry=".7" transform="rotate(-108.717 105.216 37.002)"/><linearGradient id="w" x1="310.96" x2="318.249" y1="510.379" y2="510.379" gradientTransform="scale(1 -1) rotate(18.718 1885.79 -411.698)" gradientUnits="userSpaceOnUse"><stop offset="0" stop-color="#ec1875"/><stop offset="1" stop-color="#fff5cc"/></linearGradient><path fill="url(#w)" d="M98.4 43.7c.8 2.3 3 3.6 4.9 3s2.8-3 2-5.3-3-3.6-4.9-3c-1.9.7-2.8 3-2 5.3z" opacity=".13"/><path fill="#FFF" d="M119.1 36.3s-6.9 7.2-7.7 7.8c-.8.6-12.1.3-12.1.3s5.8-.9 10.6-2.6c4.7-1.8 9.2-5.5 9.2-5.5z"/><path fill="none" d="M108 38.4s0-1.2 1.2-1.4c1.1-.2 1.6.5 1.6.5"/><path fill="#F7F6F5" d="M100.3 56.5s-2.7-1.3-3.1-4.2.6-5 .3-5.8c-.3-.8.6-1.2.6-1.2s-.4 5.6-.1 6.7c.2 1.1.8 2.6 1.4 2.8.5.2 1.6 1.3 1.6 1.3l-.7.4zm19-27.7c.3.8.8 4 1 4.8.3.8 1.2 2.7.6 2.7s-1.6-2.5-2-4.1c-.3-1.3-.4-4.7-.5-6v-.5" opacity=".14"/><linearGradient id="x" x1="316.231" x2="318.735" y1="500.795" y2="500.795" gradientTransform="scale(1 -1) rotate(18.718 1885.79 -411.698)" gradientUnits="userSpaceOnUse"><stop offset="0" stop-color="#9b6026"/><stop offset=".252" stop-color="#b78726"/><stop offset=".486" stop-color="#d1ac22"/><stop offset=".696" stop-color="#e5c816"/><stop offset=".874" stop-color="#f4dc02"/><stop offset="1" stop-color="#fbe500"/></linearGradient><path fill="url(#x)" d="M109.3 51.8c-.9-.5-5.5-1.5-1.8-2.7"/><path fill="#0A0809" d="M110.6 59.9c1.3 1.7-2.1 5.3-2.1 5.3S91.1 50.7 91.3 37.9c.2-12.8 4-17.8 5.7-19.3 1.8-1.5 4.1-2.3 5.1-2.6 1-.3 8.5 5.5 8.5 5.5l-9.1 9.6-3.3 8.7s-.3 3 1.3 5.3c2.1 3 9.6 4 9 3.6"/><path fill="#0A0809" d="M110.6 21.5c-3.5-2.4-8.5-5.5-8.5-5.5s2.8-.6 7.5-.3c4.6.2 7.5-.3 12.1 5.4 2.7 3.3 1.5 12.3 2.5 17.1 1.1 4.8.3 8 .8 9.6.6 1.6 4.4 8.1 4.4 8.1l-6.7 2.2-2.3-11.1-1.8-3.1s3.9-10.9 2.3-13.2c-1.6-2.4-5.6-5.7-6.6-6.9-.3-.4-1.8-1-3.7-2.3z"/><path fill="#282827" stroke="#010101" stroke-width=".25" d="M112.2 23.8l-1.4-2.5-.9-.5-.4.7-.3 1.4 1.1 2.6.4-.6.8.2.7-1.3z"/><path fill="#282827" stroke="#010101" stroke-width=".25" d="M107.1 20.5s1.1.4 1.8 1.6c.7 1.1 1.2 3.4 1.2 3.4s-.7.2-.9.9c-.2.6-1 .3-1 .3l-.6-.1-.7-4.4.2-1.7z"/><linearGradient id="y" x1="-365.58" x2="-361.119" y1="545.239" y2="545.239" gradientTransform="matrix(-.6394 .0658 -.1023 -.9948 -70.413 591.175)" gradientUnits="userSpaceOnUse"><stop offset="0" stop-color="#d0cccf"/><stop offset=".007" stop-color="#ccc8cb"/><stop offset=".216" stop-color="#858183"/><stop offset=".415" stop-color="#565253"/><stop offset=".598" stop-color="#373535"/><stop offset=".762" stop-color="#212020"/><stop offset=".902" stop-color="#111011"/><stop offset="1" stop-color="#0a0909"/></linearGradient><path fill="url(#y)" d="M105.9 21.7s1 .7 1.4 1.9c.4 1.2.4 3.6.4 3.6s-.7.1-1.1.6-1 .1-1 .1l-.6-.2.2-4.4.7-1.6z"/><path fill="#282827" stroke="#010101" stroke-width=".25" d="M103.7 23.4s1 .7 1.4 1.9c.4 1.2.4 3.6.4 3.6s-.7.1-1.1.6-1 .1-1 .1l-.6-.2.2-4.4.7-1.6z"/><linearGradient id="z" x1="-297.72" x2="-293.74" y1="560.263" y2="560.263" gradientTransform="matrix(-.6367 -.0885 .1377 -.9905 -163.596 557.79)" gradientUnits="userSpaceOnUse"><stop offset="0" stop-color="#d0cccf"/><stop offset=".007" stop-color="#ccc8cb"/><stop offset=".216" stop-color="#858183"/><stop offset=".415" stop-color="#565253"/><stop offset=".598" stop-color="#373535"/><stop offset=".762" stop-color="#212020"/><stop offset=".902" stop-color="#111011"/><stop offset="1" stop-color="#0a0909"/></linearGradient><path fill="url(#z)" d="M101 30.1v-4.3s.1-.8.8-.1c.4.4.7 1.5.9 2.3.1.5.2.9.2.9s.3 1.1-.1 2.2c-.1.4-.4.6-.6.8-.4.4-.8.6-.8.6l-.4-2.4z"/><path fill="#282827" stroke="#010101" stroke-width=".25" d="M99.6 33v-4.3s.1-.8.8-.1c.4.4.7 1.5.9 2.3.1.5.2.9.2.9s.3 1.1-.1 2.2c-.1.4-.4.6-.6.8-.4.4-.8.6-.8.6l-.4-2.4z"/><path fill="#1D8543" d="M98.1 41.6s-3.9-16.7 3.8-19.9c4.1-1.7 8.9-1 11.6 1 3.5 2.4 5.2 4.3 6.3 6 2 3.1 1.7 1.4 1.7 1.4s-.8-6.4-8.5-9.2c-7.3-2.7-9.6-1.9-12.5-.1s-3.8 2-4.5 6.2c-.8 4.2-.7 8 .1 11 .6 2.7 2 3.6 2 3.6z"/><linearGradient id="A" x1="318.876" x2="320.678" y1="513.658" y2="513.658" gradientTransform="scale(1 -1) rotate(18.718 1885.79 -411.698)" gradientUnits="userSpaceOnUse"><stop offset="0" stop-color="#ffedc5"/><stop offset=".388" stop-color="#ffe9b9"/><stop offset="1" stop-color="#ffe1a0"/></linearGradient><path fill="url(#A)" d="M106.5 37.5c.3.8.1 1.5-.4 1.7s-1.1-.3-1.3-1.1c-.3-.8-.1-1.5.4-1.7s1.1.3 1.3 1.1z"/><ellipse cx="110.7" cy="34.3" fill="#070808" rx="1.1" ry=".7" transform="rotate(-108.748 110.72 34.306)"/><linearGradient id="B" x1="324.948" x2="326.749" y1="514.45" y2="514.45" gradientTransform="scale(1 -1) rotate(18.718 1885.79 -411.698)" gradientUnits="userSpaceOnUse"><stop offset="0" stop-color="#ffedc5"/><stop offset=".388" stop-color="#ffe9b9"/><stop offset="1" stop-color="#ffe1a0"/></linearGradient><path fill="url(#B)" d="M112 34.8c.3.8.1 1.5-.4 1.7s-1.1-.3-1.3-1.1c-.3-.8-.1-1.5.4-1.7s1.1.3 1.3 1.1z"/><path fill="#1D8543" stroke="#186A36" d="M118.1 55.7c2.1-1 4.4-2 6.8-1.7 1.3 4.4 2.4 9 3.2 13.5.1.4.1.9-.1 1.3-.2.3-.6.5-.9.6-6.3 2.6-13.2 3.9-20 3.8-1.4 0-2.8-.1-4.2-.5-.5-.2-1-.4-1.5-.7-.2-.1-.4-.3-.5-.5s0-.4 0-.7c.5-2.1 1-4.3 1.5-6.4.1-.5.2-1 .5-1.4.4-.5 1-.8 1.5-1 4.7-2 9.2-4.1 13.7-6.3z"/><path fill="#E9BA8A" stroke="#CB905E" stroke-width=".25" d="M141.2 85.1c.9.7 1.1 1.8 2.2 2.5.8.5 2.6.7 3.6.9 2.5.7 4.3.4 6.8.7m-2.8 22.9l.4 3.5 3.3 1.6 1.8-3-2.1-.2 1.3-2.3-4.7.4zm-7.4-1.1v4.9h3.6v-5l-3.6.1z"/><linearGradient id="C" x1="-2200.12" x2="-2139.939" y1="21.372" y2="21.372" gradientTransform="matrix(.212 0 0 -1 602.976 129)" gradientUnits="userSpaceOnUse"><stop offset="0" stop-color="#f4ea09"/><stop offset="1" stop-color="#75bf44"/></linearGradient><path fill="url(#C)" stroke="#5CB747" stroke-width=".25" d="M136.6 103s4.8 8.1 5.2 8.9c.3.8 6.5 0 6.5 0l1.1-2.3"/><linearGradient id="D" x1="-2197.057" x2="-2100.459" y1="21.335" y2="21.335" gradientTransform="matrix(.212 0 0 -1 602.976 129)" gradientUnits="userSpaceOnUse"><stop offset="0" stop-color="#f4ea09"/><stop offset="1" stop-color="#75bf44"/></linearGradient><path fill="url(#D)" stroke="#5CB747" stroke-width=".25" d="M137.2 103.1s7.6 6.6 9.9 7.8c2.3 1.3 8.2 1.8 8.6.8.4-1.1.7-2.1.7-2.1l1.3-5.3-20.5-1.2z"/><g stroke-width=".25"><path fill="#13839F" stroke="#13839F" d="M150.1 104.9h4.2v4.2s-.3 1.1-2.1.7c-2.1-.4-1.8 0-1.9-.1-1.1-1.4-.2-4.8-.2-4.8z"/><path fill="#F9B218" stroke="#F9B218" d="M150.1 104.9s.3 1.8 1.5 1.9c1.2.2 1.4.3 1.9.1.5-.2.9-.1.9-.4v-1.7l-4.3.1z"/><path fill="#DE2350" stroke="#040404" d="M152.1 106.5h1v1.6h-1v-1.6z"/></g><g stroke-width=".25"><path fill="#F9B218" stroke="#F99C21" d="M134.5 126.5s7.4-1 8.2-1.7 1-9.9 1-9.9h3.6v11.6c0 .9-4.2.9-5.7.9h-5.1c-1.4-.1-2-.9-2-.9z"/><circle cx="146.6" cy="125" r=".6" fill="#00864C" stroke="#96CD82"/><circle cx="146.3" cy="123.7" r=".4" fill="#00864C" stroke="#96CD82"/><circle cx="147" cy="123" r=".3" fill="#00864C" stroke="#96CD82"/><path fill="#00864C" stroke="#96CD82" d="M146.6 122.5c0 .2-.1.3-.3.3s-.3-.1-.3-.3c0-.2.1-.3.3-.3s.3.2.3.3z"/><circle cx="147.2" cy="122" r=".2" fill="#00864C" stroke="#96CD82"/><path fill="#00864C" stroke="#96CD82" d="M143.7 116l3.6.1.1-.8h-3.7v.7zm0 1.1h3.6l.1-.7h-3.7v.7z"/></g><linearGradient id="E" x1="-2209.321" x2="-2080.427" y1="32.663" y2="32.663" gradientTransform="matrix(.212 0 0 -1 602.976 129)" gradientUnits="userSpaceOnUse"><stop offset="0" stop-color="#f9f39f"/><stop offset=".115" stop-color="#faea8c"/><stop offset=".403" stop-color="#fddc60"/><stop offset=".656" stop-color="#ffd338"/><stop offset=".864" stop-color="#ffcd19"/><stop offset="1" stop-color="#ffcb0a"/></linearGradient><path fill="url(#E)" stroke="#C2AB31" stroke-width=".25" d="M140.7 88.5s-6.1 12.7-6.1 13.6 9.5 2.1 12.2 2.1 14.4.3 15.1-.4c.7-.6-3.8-11.7-4.3-13.2s-1.6-1.7-1.4-1.8c.4-.3-5.6-.7-7.3 0-3.1 1.4-8.2-.3-8.2-.3z"/><path fill="none" stroke="#076981" stroke-width="2" d="M158.1 92.4c0 1.1-19.6-.5-19.6-.5m-2.7 7.2s26.1 1.6 26.1.5"/><g stroke-width=".25"><path fill="#F9B218" stroke="#F99C21" d="M149.5 129.8s5.9-3.5 6.2-4.5c.4-1-3.7-10.1-3.7-10.1l3.1-1.2s4.9 10.5 5.3 11.4c.4.9-3.2 2.4-4.4 2.8-1.2.5-3 1.2-4.3 1.7s-2.2-.1-2.2-.1z"/><path fill="#00864C" stroke="#96CD82" d="M159.7 124c.2.3 0 .7-.3.8-.3.1-.7-.1-.8-.4s0-.7.3-.8c.3-.1.6.1.8.4zm-1.1-1.2c.1.2 0 .5-.2.5-.2.1-.4 0-.6-.3-.1-.2 0-.5.2-.5.3 0 .5.1.6.3zm.3-.8c.1.2 0 .3-.1.4s-.3 0-.4-.2c-.1-.2 0-.3.1-.4s.3 0 .4.2zm-.9-.3c.1.2 0 .3-.1.4s-.3 0-.4-.2c-.1-.2 0-.3.1-.4.2 0 .3.1.4.2zm.4-.8c.1.1 0 .3-.1.3s-.2 0-.3-.2c-.1-.1 0-.3.1-.3s.3.1.3.2zm-5.8-4.6l3-1.2-.3-.7-3.1 1.2.4.7zm.4 1l3.1-1.2-.3-.7-3.1 1.3.3.6z"/></g><path fill="#E4B080" stroke="#CB905E" stroke-width=".25" d="M143.2 86.8c-.9-.1-2.3.4-2.1 1.6.2 1 2 .9 2.8.9 1.8.1 4.2 0 5.8-.8-2.1-.3-4.1-.3-6.1-1.5"/><path fill="none" stroke="#010101" stroke-width=".25" d="M136.9 83.2c1.3.7 2.6.8 3.7 0"/><path fill="#E9BA89" stroke="#D29361" stroke-width=".085" d="M135.9 59.7s-3.8 6.8-4.2 9c-.3 2.2-1.2 4.7-2.2 7.4-.3.8-1.8 3-1.9 3.8-.7 4.3 2.6 5 6 6.7 3.4 1.6 8.4 2.3 10.5 2.7 3.1.5 18.3 1 20.4.2 2.2-.8 3.3-.6 2.8-.7-2.7-.7 1.4-2.2 1.4-3.5 0-1.4 2.3-2.4 2.3-2.4-1.4-.2-8.6-9.3-13.4-12-4.8-2.8-8.6-9.6-12.6-10.3-3.8-.8-9.1-.9-9.1-.9z"/><path fill="#FCFDFB" stroke="#737272" stroke-width=".25" d="M135.8 77.8s.5-4.2 2.4-3.6 1.9 4.3 1.9 4.3l10.8 1.3s4.3-7.6 1.6-9.4-10.7-3.1-13.5-.7c-.9.8-1.4-.4-4.3-2.5-.8-.6-3.5-.6-4.2-.6-.7.1-.9 2.1-1 3.6s-.6 3.4-.8 4.7c-.3 1.2 7.1 2.9 7.1 2.9z"/><linearGradient id="F" x1="429.031" x2="431.535" y1="-183.569" y2="-183.569" gradientTransform="matrix(-1.5835 -.3183 .282 -.9653 903.617 45.547)" gradientUnits="userSpaceOnUse"><stop offset="0" stop-color="#ffeec5"/><stop offset=".282" stop-color="#ffe8b8"/><stop offset=".811" stop-color="#ffd898"/><stop offset="1" stop-color="#ffd28c"/></linearGradient><path fill="url(#F)" stroke="#F1B67F" stroke-width=".25" d="M169.7 83.7s1.5-.8 2.1-.1c.6.7.9 2.1.7 2.7-.2.7-2.5 2.1-3 1.9-.5-.1-1.7-.4-1.7-.4l1.9-4.1z"/><linearGradient id="G" x1="277.196" x2="285.305" y1="-64.455" y2="-64.455" gradientTransform="matrix(-1.41 -.2175 .1524 -.9883 556.648 81.78)" gradientUnits="userSpaceOnUse"><stop offset="0" stop-color="#ec1875"/><stop offset="1" stop-color="#fff5cc"/></linearGradient><path fill="url(#G)" d="M155.9 85.2c-.4 2.5-3.3 4.2-6.4 3.7-3.2-.5-5.4-2.9-5-5.5.4-2.5 3.3-4.2 6.4-3.7 3.2.5 5.4 3 5 5.5z" opacity=".13"/><linearGradient id="H" x1="127.599" x2="134.08" y1="48.898" y2="48.898" gradientTransform="matrix(1 0 0 -1 0 129)" gradientUnits="userSpaceOnUse"><stop offset="0" stop-color="#ec1875"/><stop offset="1" stop-color="#fff5cc"/></linearGradient><path fill="url(#H)" d="M132.6 77.4c-.9-.7-2-1.1-3.1-1.1-.4.9-1.7 2.8-1.8 3.6-.3 1.7.1 2.8.8 3.7 1.6.6 3.4.3 4.6-.8 1.5-1.5 1.3-3.9-.5-5.4z" opacity=".13"/><path fill="#F5F6F6" d="M132.2 61.4s10.4-3.4 14.4-2.8c4 .5 10.9 5.1 11.1 5.2.2.1-.6 0-.9-.1-.3-.1-7.3-3.9-8.3-4.3-1-.4-1.7-.6-2-.6s-1.1.3-1.8.6-1.8.9-2.3 1.2-1.4.8-1.8 1c-.4.2-.9.3-2.3.2-1.3-.1-6.1-.4-6.1-.4z" opacity=".14"/><path fill="none" d="M124.9 64.4c1.9 1.3 6.4.8 8.8 1.4 3.4.8 6.8 1.5 10.2 2.4 7.2 2 13.2 4.4 18.1 9.6m-24.2.7c-1.1-2.2 2.2-2.3 2.5-.1"/><linearGradient id="I" x1="6169.236" x2="6184.481" y1="3124.926" y2="3124.926" gradientTransform="matrix(1.1622 .6788 .8353 -.751 -9615.44 -1788.301)" gradientUnits="userSpaceOnUse"><stop offset="0" stop-color="#0c0c0d"/><stop offset=".295" stop-color="#11131c"/><stop offset=".888" stop-color="#101735"/><stop offset="1" stop-color="#0e173a"/></linearGradient><path fill="url(#I)" stroke="#010101" stroke-width=".25" d="M174.7 52.4l1.3-.1 2.4 2.9s-1.1-.3-1.6.1c-.4.5.7 1.7.7 1.7s.6.8.2 1.2c-.4.5-.3 1.5-.9 1-.7-.5-1.5-.4-1.5-.4l-.7.7s4.4 1.8 5 2.2.1 1 .1 1l-2.3-.7.2 1.4.4 1.2 1.4 1-.3.3s-.2-.7-.9-.7c-.7.1-.6.7-.6.7l-.6.7s-5-4.2-7.1-5.3c-2-1.1-7.9-3.2-7.9-3.6-.1-.4-.2-1-.2-1.5-.1-.5-.2-1.2.2-.9s1.4 1.5 1.9 1.4c.4 0 .2-1.3.2-1.3s.8 1 1.4.9c.5 0 1.1-.7 1.1-.7l-1.3-.9.6-.8s1.9 2 2.3 1.6c.4-.4 1-1.1 1-1.1s-1.3-.4-1-.7c.3-.4 1.6-.1 2 .2s1.4 1 1.8 1.2c.4.3 1.7.2 1.7.2l-.2-1.3.2-.7 1 .7 1.3-.1-.7-.5-.6-1z"/><linearGradient id="J" x1="6914.599" x2="6949.453" y1="-128.205" y2="-128.205" gradientTransform="matrix(1.4232 .2196 .1525 -.9883 -9690.123 -1577.645)" gradientUnits="userSpaceOnUse"><stop offset="0" stop-color="#0c0c0d"/><stop offset=".295" stop-color="#11131c"/><stop offset=".888" stop-color="#101735"/><stop offset="1" stop-color="#0e173a"/></linearGradient><path fill="url(#J)" stroke="#010101" stroke-width=".25" d="M131.5 66.6c-.2-1.6 1.1-3 2.1-4.3 1-1.4 2.5-3.6 4.3-4.3 5.1-2 5.1-2 8.9-2.3 3.3-.3 8.5.6 11.7.5 3.1 0 7.7.8 10.9 1.7 3.9 1.1 7.1 5.3 9.2 8.8 1.9 3 3 7.5 1.6 10.4-4 8-15.5 18.7-14.9 6.1.1-2.8-7.6-2.3-10.3-3.9-2.3-1.3-1.5-2.9-.9-4.7.6-2 .6-2.9-1.4-4.3-3.6-2.5-7-1.5-10.9-.8-3 .5-3.1-.7-5.3-2.2-1.6-1-3.3-1-5-.7"/><path fill="none" stroke="#BC6428" stroke-width=".255" d="M136.2 79.1c.5-2.1 2.4-.8 2.5.7"/><ellipse cx="143.6" cy="74.4" fill="#070808" rx="1" ry=".9" transform="rotate(-81.228 143.6 74.41)"/><ellipse cx="132.2" cy="71.9" fill="#070808" rx="1" ry=".9" transform="rotate(-81.188 132.198 71.896)"/><path fill="#75BF44" d="M151.2 79.6c5.2.9 14.9 4 19.1 2.4 0-3.1-6.2-2.4-9.7-2.6-3-.2-5.9-1.9-8.8-2.6-.2 1.5-.8 1.7 0 2.1"/><path fill="none" stroke="#70BE46" stroke-width="2" d="M140 76.2l.7 2.1 10.2 1.2s1.2-4.9 1.6-7.1c.4-2.3-3.1-3.4-5.4-3.5-2.3-.2-6.5.5-6.5.5s0 .4-1.8.1m-1.1.1c-2.1-2.3-3.2-2.8-5.4-3.1-1.5-.2-2.3 2.4-2.3 2.4l-.9 6.1 3.5 1.7 3.8.9.9-3.6"/><path fill="#E9BA89" stroke="#D29361" stroke-width=".085" d="M157.6 80.9c1.4-.8 3.2-3.1 6.3-1.3 2.6 1.6-1 4.9-2.6 5.7"/><path fill="#70BE46" d="M136.6 74.4l.6-4.7 1.3-.7h.5v1.2s1.8 4.8 1.7 5.4c0 .6-1.1 1.2-1.1 1.2s-.3-2.5-1.1-2.5h-.8l-1.1.1z"/><path fill="#030303" d="M125.1 93.2s.5-.6 2.4-.6 2.5.6 2.5.6-1.4-.6-2.7-.5c-1.8.1-2.1.5-2.2.5z" opacity=".22"/><path fill="#72BF45" d="M128.1 95.7c0-.9-.2-2.1-1-2.4-.3.9.3 2 1 2.4"/><path fill="none" stroke="#396A35" stroke-width=".25" d="M128 98.8s-.4-6.6 1.9-9.5"/><path fill="#EF403B" stroke="#983A21" stroke-width=".25" d="M130.4 86.7c-.4-.4-.8-1.5-1.4-1.4-.8.1-.2.7-.4 1.3-.2.5-.9.7-.4 1.5.4.6 1-.1 1.5-.1-.2.5-1.2.7-1.2 1.3 0 .5.2.3.5.4.4.2.3 0 .6.4s.5.8.9.2c.3-.4.3-1.2.3-1.7.2.4.1 1.8.4 2 .4.2.8-.3.8-.7.5-.1 1 0 1.1-.7 0-.7-.7-1.4-1.2-1.4.4.1 1.3.4 1.6 0s-.1-.6-.1-1.1.4-.5.1-.9c-.2-.2-.4-.3-.7-.2-.4.1-.8.7-1.1 1.1.1-.6.7-1.7.4-2.1s-.5-.1-.8-.1c0 0-.1.3-.2.3-.2 0-.2-.3-.4-.3-.5-.2-1.1 0-.9.9.1.6.7 1 .8 1.6"/><path fill="#FFCF35" d="M131.3 87.3c-.1-.4-.4-.6-.7-.6-.3.1-.5.5-.4.9s.4.6.7.6c.3-.1.5-.5.4-.9z"/><ellipse cx="127.6" cy="93.2" fill="#EBEAE7" opacity=".39" rx="2.5" ry=".6"/><path fill="#030303" d="M125.1 93.2s.5.7 2.3.6c1.8-.1 2.1-.2 2.3-.3.2-.1.4-.3.4-.3s.2 1-2.7.9c-2.9-.2-2.3-.9-2.3-.9z" opacity=".22"/><path fill="#72BF45" d="M128.1 96.4c-.1-.9 0-2.1.8-2.5.3.9-.2 2-.8 2.5"/><path fill="none" stroke="#396A35" stroke-width=".25" d="M127.8 100.7s-.3-4.8-1.7-10.4"/><path fill="#EF403B" stroke="#983A21" stroke-width=".25" d="M125.5 87.8c.4-.5.7-1.6 1.2-1.6.7 0 .2.6.5 1.2.2.5.8.6.5 1.4-.3.7-.9 0-1.4.1.2.4 1.2.5 1.2 1.1 0 .5-.2.3-.4.5-.3.3-.3.1-.5.5-.3.4-.4.9-.8.3-.3-.3-.4-1.1-.3-1.6-.1.5 0 1.8-.3 2-.3.3-.7-.2-.7-.6-.4-.1-.9.2-1-.6-.1-.7.6-1.4 1-1.6-.3.2-1.2.6-1.4.2-.3-.4.1-.7 0-1.1 0-.5-.4-.4-.1-.9.1-.2.4-.3.6-.3.4.1.8.6 1.1.9-.1-.5-.7-1.6-.5-2.1.2-.4.4-.2.7-.2 0 0 .1.3.2.3.2 0 .2-.3.3-.4.5-.3 1-.1.9.8 0 .6-.5 1.1-.6 1.7"/><path fill="#FFCF35" d="M124.7 88.5c0-.4.3-.7.6-.6.3 0 .5.4.4.8 0 .4-.3.7-.6.6-.2-.1-.4-.4-.4-.8z"/><path fill="#EF403B" stroke="#983A21" stroke-width=".25" d="M124.4 82.4c-.4-.4-.8-1.5-1.4-1.4-.8.1-.2.7-.4 1.3-.2.5-.9.7-.4 1.5.4.6 1-.1 1.5-.1-.2.5-1.2.7-1.2 1.3 0 .5.2.3.5.4.4.2.3 0 .6.4s.5.8.9.2c.3-.4.3-1.2.3-1.7.2.4.1 1.8.4 2 .4.2.8-.3.8-.7.5-.1 1 0 1.1-.7 0-.7-.7-1.4-1.2-1.4.4.1 1.3.4 1.6 0 .3-.4-.1-.6-.1-1.1s.4-.5.1-.9c-.2-.2-.4-.3-.7-.2-.4.1-.8.7-1.1 1.1.1-.6.7-1.7.4-2.1-.3-.4-.5-.1-.8-.1 0 0-.1.3-.2.3-.2 0-.2-.3-.4-.3-.5-.2-1.1 0-.9.9.1.6.7 1 .8 1.6"/><path fill="#FFCF35" d="M125.3 82.9c-.1-.4-.4-.6-.7-.6-.3.1-.5.5-.4.9s.4.6.7.6c.3-.1.4-.5.4-.9z"/><path fill="#EF403B" stroke="#983A21" stroke-width=".25" d="M132.4 90.1c-.4-.4-.8-1.5-1.4-1.4-.8.1-.2.7-.4 1.3-.2.5-.9.7-.4 1.5.4.6 1-.1 1.5-.1-.2.5-1.2.7-1.2 1.3 0 .5.2.3.5.4.4.2.3 0 .6.4s.5.8.9.2c.3-.4.3-1.2.3-1.7.2.4.1 1.8.4 2 .4.2.8-.3.8-.7.5-.1 1 0 1.1-.7 0-.7-.7-1.4-1.2-1.4.4.1 1.3.4 1.6 0s-.1-.6-.1-1.1.4-.5.1-.9c-.2-.2-.4-.3-.7-.2-.5.1-.8.7-1.1 1.1.1-.6.7-1.7.4-2.1s-.5-.1-.8-.1c-.1 0-.1.3-.2.3-.2 0-.2-.3-.4-.3-.5-.2-1.1 0-.9.9.1.6.7 1 .8 1.6"/><path fill="#FFCF35" d="M133.3 90.7c-.1-.4-.4-.6-.7-.6-.3.1-.5.5-.4.9s.4.6.7.6c.3-.1.5-.5.4-.9z"/><path fill="#EF403B" stroke="#983A21" stroke-width=".25" d="M122.3 92.5c-.4-.4-.8-1.5-1.4-1.4-.8.1-.2.7-.4 1.3-.2.5-.9.7-.4 1.5.4.6 1-.1 1.5-.1-.2.5-1.2.7-1.2 1.3 0 .5.2.3.5.4.4.2.3 0 .6.4s.5.8.9.2c.3-.4.3-1.2.3-1.7.2.4.1 1.8.4 2 .4.2.8-.3.8-.7.5-.1 1 0 1.1-.7 0-.7-.7-1.4-1.2-1.4.4.1 1.3.4 1.6 0 .3-.4-.1-.6-.1-1.1s.4-.5.1-.9c-.2-.2-.4-.3-.7-.2-.4.1-.8.7-1.1 1.1.1-.6.7-1.7.4-2.1-.3-.4-.5-.1-.8-.1 0 0-.1.3-.2.3-.2 0-.2-.3-.4-.3-.5-.2-1.1 0-.9.9.1.6.7 1 .8 1.6"/><path fill="#FFCF35" d="M123.2 93c-.1-.4-.4-.6-.7-.6-.3.1-.5.5-.4.9s.4.6.7.6c.3-.1.5-.5.4-.9z"/><path fill="#72BF45" d="M127.9 93.3c.2-.9.2-2.1-.5-2.6-.4.9-.1 2.1.5 2.6"/><path fill="none" stroke="#396A35" stroke-width=".25" d="M125.4 102.5s1.4-11 5.6-15.1"/><path fill="#FAD704" stroke="#983A21" stroke-width=".25" d="M132 85c-.3-.5-.5-1.6-1.1-1.7-.8-.1-.3.6-.7 1.1-.3.5-1 .5-.7 1.3.3.7 1 .1 1.5.2-.3.4-1.3.4-1.5 1-.1.5.2.3.4.5.3.3.3.1.5.5.2.5.3.9.9.4.3-.3.6-1.1.6-1.6.1.5-.3 1.7 0 2s.8-.1.9-.5c.5-.1 1 .3 1.2-.5.2-.7-.4-1.5-.9-1.7.3.2 1.2.7 1.6.3.4-.4 0-.7.1-1.1.1-.5.5-.4.2-.9-.1-.2-.4-.4-.6-.3-.5 0-.9.5-1.3.8.2-.5 1-1.5.8-2-.2-.4-.4-.2-.7-.2-.1 0-.2.3-.3.3-.2 0-.2-.3-.3-.4-.5-.3-1-.2-1.1.7 0 .6.4 1.2.5 1.8"/><path fill="#983A21" stroke="#983A21" stroke-width=".25" d="M132.8 85.7c0-.4-.2-.7-.5-.7s-.6.4-.6.8.2.7.5.7.6-.4.6-.8z"/><path fill="#72BF45" d="M127.5 92.3c-.3-.9-.8-2-1.7-2 0 1 .9 1.9 1.7 2"/><path fill="none" stroke="#396A35" stroke-width=".25" d="M127.8 103.8s-1.1-12.5-.5-18"/><path fill="#FAD704" stroke="#983A21" stroke-width=".25" d="M127 83.1c-.5-.3-1.2-1.2-1.8-.9-.7.3 0 .7 0 1.3 0 .6-.6.9 0 1.5.6.5.9-.4 1.4-.6-.1.5-1 1-.8 1.6.1.4.3.2.6.3.4.1.3 0 .7.2.4.3.7.6 1-.1.2-.4 0-1.2-.2-1.7.3.4.6 1.7 1 1.8.4.1.6-.5.5-.9.4-.3 1-.3.8-1s-1.1-1.1-1.6-1c.4 0 1.4 0 1.5-.5s-.3-.6-.4-1c-.1-.5.2-.6-.2-.9-.2-.2-.5-.1-.7 0-.4.2-.6.9-.7 1.4 0-.6.2-1.8-.3-2.2-.4-.3-.5 0-.7.2 0 0 0 .3-.1.4-.2.1-.3-.2-.5-.2-.6-.1-1 .3-.6 1.1.3.6.9.8 1.2 1.3"/><path fill="#983A21" stroke="#983A21" stroke-width=".25" d="M128 83.4c-.2-.4-.5-.5-.8-.3s-.3.6-.1.9c.2.4.5.5.8.3.2-.2.3-.6.1-.9z"/><path fill="#EF403B" stroke="#983A21" stroke-width=".25" d="M127.6 93.2c-.4-.4-.8-1.5-1.4-1.4-.8.1-.2.7-.4 1.3-.2.5-.9.7-.4 1.5.4.6 1-.1 1.5-.1-.2.5-1.2.7-1.2 1.3 0 .5.2.3.5.4.4.2.3 0 .6.4s.5.8.9.2c.3-.4.3-1.2.3-1.7.2.4.1 1.8.4 2 .4.2.8-.3.8-.7.5-.1 1 0 1.1-.7 0-.7-.7-1.4-1.2-1.4.4.1 1.3.4 1.6 0s-.1-.6-.1-1.1.4-.5.1-.9c-.2-.2-.4-.3-.7-.2-.4.1-.8.7-1.1 1.1.1-.6.7-1.7.4-2.1s-.5-.1-.8-.1c0 0-.1.3-.2.3-.2 0-.2-.3-.4-.3-.5-.2-1.1 0-.9.9.1.6.7 1 .8 1.6"/><path fill="#FFCF35" d="M128.5 93.7c-.1-.4-.4-.6-.7-.6-.3.1-.5.5-.4.9s.4.6.7.6c.3-.1.4-.5.4-.9z"/><path fill="#E9BA8A" stroke="#CB905E" stroke-width=".25" d="M153.1 92.7c2.1-1.1 2.2 1.6 1.2 2.8-1 1.3-2.8 1.9-4.3 2.3-3.1.8-6.1 1.7-9.3 2.3-3.1.5-6.3-.3-9.4.5-1.3.3-3.4 1.1-4.7.7-2-.5-1.4-3.9.2-3.5 0 .3.3.7.3 1 1.7-.2 1.1-1.6 1.7-2.6.9.8.8 1.3 2.1 1.8 1.1.4 2 .2 3.1.1 2.1-.2 4.4-.1 6.5-.6 2.1-.4 4.3-.8 6.4-1.3 2.3-.7 4.5-2.1 6.7-3"/><linearGradient id="K" x1="148.845" x2="154.655" y1="32.817" y2="32.817" gradientTransform="matrix(1 0 0 -1 0 129)" gradientUnits="userSpaceOnUse"><stop offset="0" stop-color="#f9f39f"/><stop offset=".115" stop-color="#faea8c"/><stop offset=".403" stop-color="#fddc60"/><stop offset=".656" stop-color="#ffd338"/><stop offset=".864" stop-color="#ffcd19"/><stop offset="1" stop-color="#ffcb0a"/></linearGradient><path fill="url(#K)" stroke="#C2AB31" stroke-width=".25" d="M148.8 93.7s4.5 7.3 4.5 6 2.2-4.8.8-6.5c-1.4-1.8-5.3.5-5.3.5z"/><path fill="#FFFFFB" stroke="#FFFFFB" stroke-width=".25" d="M133.2 80.9s1.4 1.8 4.6 2.7c2.8.7 8.2-.1 8.2-.1l-8.8 2.7-4-5.3z"/><path fill="#C0C" d="M57.4 59.4l-2.2 2.3h19.2l.3-2.5-17.3.2z"/><linearGradient id="L" x1="55.9" x2="74.526" y1="68.55" y2="68.55" gradientTransform="matrix(1 0 0 -1 0 129)" gradientUnits="userSpaceOnUse"><stop offset="0" stop-color="#d91e60"/><stop offset="1" stop-color="#e61489"/></linearGradient><path fill="url(#L)" d="M63.3 60.7h-7.4l.5-.5h18.1v.5H63.3z"/><path fill="#C0C" d="M55.2 61.7v2.9l19.2.1v-3.2l-19.2.2z"/><path fill="#F0F" d="M55.5 64.7v13.2h18.2l.5-13.2H55.5z"/><path fill="#C06" d="M64.1 55.4c-.3.8-.1 1.6 0 2.4 0 .8 0 1.8.2 2.5.5-1.2.5-3.7-.2-4.8"/><linearGradient id="M" x1="59.357" x2="64.144" y1="70.558" y2="70.558" gradientTransform="matrix(1 0 0 -1 0 129)" gradientUnits="userSpaceOnUse"><stop offset="0" stop-color="#d91e60"/><stop offset="1" stop-color="#e61489"/></linearGradient><path fill="url(#M)" d="M63.9 60c-.4-.8-.6-1.6-1.2-2.3-.7-.9-1.6-1.2-2.1.1-.3.8.1 1.9.9 2.3.9.4 1.7-.2 2.4-.1-.1.8-2.4.9-3 .7-1.2-.4-2.1-.7-1.3-3 .3-.9 2.1-2.2 3.3-1.3.4.3.7 1 1 1.5.4.8.2 1 0 1.7"/><linearGradient id="N" x1="60.638" x2="63.506" y1="70.484" y2="70.484" gradientTransform="matrix(1 0 0 -1 0 129)" gradientUnits="userSpaceOnUse"><stop offset="0" stop-color="#d91e60"/><stop offset="1" stop-color="#e61489"/></linearGradient><path fill="url(#N)" d="M63.5 59.9c-1.1.5-1.9-2-1.5-2.7-.8-.4-.9 0-1.2.3-.4.5 0 .8.3 1.2.6.9 1.2 1.2 2.4 1.2"/><linearGradient id="O" x1="66.272" x2="70.409" y1="69.858" y2="69.858" gradientTransform="matrix(1 0 0 -1 0 129)" gradientUnits="userSpaceOnUse"><stop offset="0" stop-color="#d91e60"/><stop offset="1" stop-color="#e61489"/></linearGradient><path fill="url(#O)" d="M70.2 57.7c-1-.7-2.1-.4-2.8.2-.5.4-1.5 2.4-.9 2.8.7.5 2.4.3 3-.2.5-.4.8-.9.9-1.5.1-.5-.1-.8-.2-1.3zm-1.8 2.7c-1.6.2-.3-2.3.5-2.3h-.5c.9-.7 1.4 2.1 0 2.3z"/><path fill="#F6F2D8" d="M55.5 75h18.7v1.1H55.5V75zm-.3-4.2h18.7v1.5H55.2v-1.5zm0-4.3h18.7v1.4H55.2v-1.4z"/><linearGradient id="P" x1="63.558" x2="66.204" y1="57.7" y2="57.7" gradientTransform="matrix(1 0 0 -1 0 129)" gradientUnits="userSpaceOnUse"><stop offset="0" stop-color="#d91e60"/><stop offset="1" stop-color="#e61489"/></linearGradient><path fill="url(#P)" d="M63.6 64.7h2.6v13.2h-2.6V64.7z"/><linearGradient id="Q" x1="63.265" x2="66.204" y1="66.55" y2="66.55" gradientTransform="matrix(1 0 0 -1 0 129)" gradientUnits="userSpaceOnUse"><stop offset="0" stop-color="#d91e60"/><stop offset="1" stop-color="#e61489"/></linearGradient><path fill="url(#Q)" d="M63.3 61.7l.1 3h2.8l-.2-3 .2-.9-2.2-.6-.7 1.5z"/><linearGradient id="R" x1="64.012" x2="66.42" y1="70.821" y2="70.821" gradientTransform="matrix(1 0 0 -1 0 129)" gradientUnits="userSpaceOnUse"><stop offset="0" stop-color="#d91e60"/><stop offset="1" stop-color="#e61489"/></linearGradient><path fill="url(#R)" d="M64.1 60.4c.5-.7.3-1.7.4-2.5 0-.5.1-.9 0-1.4s-.5-.9-.5-1.3c.9-.3 2.2-.3 2.3.9.1.9.1 1.3.1 2.1s.1 1.8-.2 2.5c-.1.5-.4.7-1 .6-.6-.1-1.4-.3-1.1-1"/><path fill="#E9BA8A" stroke="#CB905E" stroke-width=".25" d="M85.7 63.7c2.1 2.2 10.5 7.5 3 8-5.5.4-6.4-2.9-8.9-8.7"/><path fill="#231F54" stroke="#010101" stroke-width=".5" d="M87.1 62.8c1.9-.6-7.9 6.7-6.6 3.8-7.9-4.1-20.1-8.5-13.8-23.4 2.2-5.2 3.8 3.5 3.8 6.5 0 4.5 2.8 6.8 7.3 9.4 6.5 3.6 3.3 2.7 10.5 4"/><path fill="#1D8543" stroke="#186A36" d="M127.1 50c2.3 2.9-17.9 8.4-23.6 11.5s-12.7 3.8-12.7 3.8.7-4-.6-5.4c-1.2-1.3 8.3-4.3 15.1-6.6 6.9-2.2 16.8-6.2 16.8-6.2s2.7 0 5 2.9z"/><linearGradient id="S" x1="83.02" x2="95.22" y1="63.747" y2="63.747" gradientTransform="matrix(1 0 0 -1 0 129)" gradientUnits="userSpaceOnUse"><stop offset="0" stop-color="#ffedc5"/><stop offset=".388" stop-color="#ffe9b9"/><stop offset="1" stop-color="#ffe1a0"/></linearGradient><path fill="url(#S)" d="M92.2 69c-2.9 4.8-9.9 2.1-4.9-.8-4.2 1.2-6.2-3.5-1.6-4.3-6.2 0 .4-4.9 3.4-5 4.7-.3 6.5 2.7 6.1 7.5"/><linearGradient id="T" x1="120.335" x2="127.984" y1="80.915" y2="80.915" gradientTransform="matrix(1 0 0 -1 0 129)" gradientUnits="userSpaceOnUse"><stop offset="0" stop-color="#fff3cb"/><stop offset=".411" stop-color="#ffeabd"/><stop offset="1" stop-color="#ffdba3"/></linearGradient><path fill="url(#T)" d="M126.9 42.6c-2.6-.2-10.2 1.7-4.4 3.8-2.4 1.2-1.9 3.4-.1 5 .8-.2 1.5-.6 2-1.3-.6 1.1-.3 2.3-.7 3.3 4.8 1.6 5.8-7.7 1.8-9.8"/><path fill="#D7B873" d="M23.5 58.7l-.7 2.8-6.4 5 .4-2.4 6.7-5.4z"/><path fill="#D7B873" d="M19.3 59h3.1v27.6h-3.1V59z"/><path fill="#D7B873" d="M19.4 77.4l.2 1.4-3.4 1.9-2-.5 5.2-2.8z"/><path fill="#D7B873" d="M13.3 65.2h3.1v27.6h-3.1V65.2z"/><path fill="#D7B873" d="M.1 66.5h16.3l.2-2.2-16.5.1v2.1z"/><path fill="#FCDD87" d="M.1 64.4l16.5-.1 6.8-5.7H.1v5.8z"/><path fill="#643591" d="M10.3 57.5h2.3v1.2s3.2-.5 4.2.5 1.5 2.7 1.5 2.7l-13.7.3s-.1-1.4 1.1-2.3c1.1-.9 4.2-1 4.2-1l.4-1.4zm-.6-7s-.8-2.1-2-2.4c-1.2-.3-5.3-.2-6 0-.6.2-1.7.6-1.7.6s1.6.5 2.6.5h4.5c.4 0 1.1 2.2 1.6 3 .5.7.8 1.4 1 1.7s.5.9.9 1.4.1 1.9.1 1.9H12l-.6-3.2s-1.4-.5-1.5-.9c-.1-.5.7-1.4.7-1.4s2.4-3.5 2.8-3.7.7-1.2 1.3-1.9c.5-.7.5-1.1 1.6-1.2 1.1-.1 2.3.1 3 .6s1.7.7 2.7.6c1-.1 2.1-.2 2.1-.5s-3.1-2.4-4.9-2.4c-1.8-.1-4.6.7-5 1s-1.9 1-1.7 1.3-.2 1.8-.5 2.4c-.3.6-1.2 1.6-1.3 1.8-.1.1-1 .8-1 .8z"/><path fill="#643591" d="M10.7 41.9s-.1.6.8 1.5 1.1 1.6 1.1 1.6l1.7-.9s-.9-.1-1.4-1-.3-1.8-.3-1.8l-1.9.6z"/><path fill="#FFF" stroke="#FCD247" stroke-width=".25" d="M3.5 25.1h14.2s.1 1.4 0 1.7c-.1.3-1.5.4-1.5.4s.2 3.8.8 4.8c.6.9 2.1 2.2 1.5 4s-5.1 4.6-6.7 4.6-7.9-1.6-7.6-4.9c.3-3.3 1.5-4.7 1.4-5.8-.1-1.1-.1-2.8-.1-2.8l-2-.1v-1.9z"/><path fill="#643591" d="M5.1 37.4s2.8 2.7 3.7 3.5c.9.7 1.5 1.2 2.4 1.1.9-.1 1.9-.9 1.9-.9s.7-1.1 1-1.4c.3-.2 1.7-1.7 2.1-2 .3-.3 0-1.2 0-1.2S15 39 13.3 39.2s-4.6.5-5.2.1c-.5-.4-2.6-2.4-2.6-2.4l-.4.5z"/></g></switch></svg>
