<svg xmlns="http://www.w3.org/2000/svg" version="1.0" viewBox="0 0 220 129"><switch><g><linearGradient id="a" x1="112.107" x2="109.704" y1="-103.643" y2="89.368" gradientUnits="userSpaceOnUse"><stop offset="0" stop-color="#71c8f0"/><stop offset="1" stop-color="#d1ecf2"/></linearGradient><path fill="url(#a)" d="M.1 0h219.8v128.8H.1z"/><path fill="#9798CB" d="M218.7 128.8H.1L.7 44c13.9-4.9 30.8 1.6 37.1 4.3 6.2 2.6 5.7 4.6 14.6 4.6 14.4.1 22.7-5.3 35.8-7 5.9-.8 7.8 1.1 13.2 1.5 5.4.4 12-1.2 17.4-1.5 10.6-.7 5-1.6 14.4-4 4.5-1.1 19.9-2.8 23.9-4 4.3-1.3 16.1 4.5 20.5 3.4 8.3-2.2 16.5 7.3 24.5 4.9l17.9-5.8" opacity=".26"/><path fill="#9798CB" d="M.4 50.7c6.8.9 10.9 3 14.9 5.8 3.9 2.7 6.2 3.5 11.8 5.6 8 2.9 3.9 2.9 12.2-.1 4.4-1.6 9.6-3.5 14.2-4.9 6.1-1.9 9-1.1 15.3 1 8.3 2.9 17.7 5.3 24.7 8.9 6.2 3.2 11.7 5.3 21.5 3.4 3.6-.7 5.5-1.9 8.8-2.6 6-1.2 13.5-1.6 19.8-2.8 10.1-1.9 3.9-4.8 13.6-7 7.2-1.7 14.8-2.1 21.2-4.6 6.4-2.5 17.2 1.8 25.8 2.5 7.5.5 10.2 6.8 15.2 4.3l.2 68.6H.1l.3-78.1z" opacity=".41"/><path fill="#CDCAE5" d="M35.1 63.9c2.4-1.7 7.1-2.5 10.6-3.7 3.3-1.1 6.5-3.2 10.4-3.7 8.4-1.2 18 4 25.3 5.8-5.2.5-8.8-1.6-13.8-1.4 1 1.3 6.1 3.5 8.5 4.8-7.6-.3-7-1.4-13.2 1-1.8-1.2-4.5-4.8-7.3-5.1-5.3-.7-3.3 1.1-7.2 2.1-1.6.4-4.7-.3-6.5 0-1.2.2-2.8 1.2-3.9 1.6-3.6 1.1-5.2 1.6-7.3 3.2-2.6-1.7-2.5-2.3-6.1-3.6-3.4-1.2-6.3-2-9.3-3.4-.5.7-1.8 1.1-1.4 2.1-5.7-.9-6-4.9-13.8-5.5v-7.4s10.6 2.2 11.9 4c1.3 1.8 7.3 4.6 7.3 4.6l15.8 4.6zm120-5.8c6.6-.9 11.7-1.3 17.9-3 6.1-1.7 8.3-2.6 15.7-1.8 11.3 1.1 21.5 3.9 27.9 8.5-5.5.6-8.8-1.9-13.7-2 .6.5.6 1.6 1.1 2.1-6.7.1-11-3.3-16.4-4.2-.2 1.5 0 3.3-4 3.3-6.2-9.3-21.1 2.1-28.5-2.9"/><path fill="none" stroke="#9798CB" stroke-miterlimit="10" stroke-width=".25" d="M.8 50.7c6.8.9 10.9 3 14.9 5.8 3.9 2.7 6.2 3.5 11.8 5.6 8 2.9 3.9 2.9 12.2-.1 4.4-1.6 9.6-3.5 14.2-4.9 6.1-1.9 9-1.1 15.3 1 8.3 2.9 17.7 5.3 24.7 8.9 6.2 3.2 11.7 5.3 21.5 3.4 3.6-.7 5.5-1.9 8.8-2.6 6-1.2 13.5-1.6 19.8-2.8 10.1-1.9 3.9-4.8 13.6-7 7.2-1.7 14.8-2.1 21.2-4.6 6.4-2.5 17.2 1.8 25.8 2.5 7.5.5 10.2 6.8 15.2 4.3l.2 68.6H.5l.3-78.1z"/><linearGradient id="b" x1="111.428" x2="109.321" y1="176.451" y2="35.748" gradientUnits="userSpaceOnUse"><stop offset="0" stop-color="#669"/><stop offset="1" stop-color="#cdcae5"/></linearGradient><path fill="url(#b)" stroke="#669" stroke-miterlimit="10" stroke-width=".25" d="M.7 93.8c1.9-2 9.4-.1 12.9-.2 3.3-.1 9.6-1.7 12.1-2.7 4.4-1.7 6.5-3 12.4-4.2 6.9-1.5 12.2-2.6 16.8-5.1 5.5-3 11.2-4.9 18.4-7.5 6.5-2.3 9.5-5.1 14.4-7.8 6.1-3.4 11.7-7.2 18.6-10.3 4.8-2.1 18.1-5.7 25.3-5.9 11.5-.4 17.4 6 25.2 8.2 5.3 1.5 8.1 2.4 11.8 4.6 3.5 2 5.3 4.5 9.4 6.2 8.4 3.6 18.3 6.8 26 10.5 5.4 2.6 16.2 6.6 15.7 6.5l.3 42.7H1.1l-.4-35z"/><path fill="#CDCAE5" d="M75.2 75.1c2.7 0 8.5-1.6 10.6-2.3 3.4-1.2 2.5-3.1 4.6-4.2 1.1-.6 3.6-.6 4.7-1.2 1.3-.6 1.4-1.4 2.8-2.1 1.9-.9 5.7-2.3 8.4-2.4.1 2.2-1.5 3.2-3.4 4.9-1.5 1.3-3.1 2.8-3 4.3 4-.6 5.4-3.2 10.4-2.7-1.6 2.4-6.6 4.5-7.9 7-1.3 2.3-1.5 5.5-1.9 7.7 6-.2 7.3-1.6 10-3.2 2.6-1.5 8.2-2.7 10.3-4.3.9-.7.1-1.3.8-2 .6-.5 2.2-1.4 2.5-1.7 1.4-1.6 1.3-3 1.6-4.7 2.7 1.1 1.7 2.7 2 4.2 1.2-.3 2.6-.2 3.9-.7 5.4 1.9 8.1 4.9 9.3 7.5.9 2.1-.3 6.5 7.2 7 .6-4.1.6-8.4.6-12.5 0-2-4.2-4.1-3.2-6 .8-1.6 7.6-3.1 12-2.1 3.2.7 5.5 4.5 6.4 5.8 0 0 3.5 2.3 12.1 3.3s13.3 3 13.3 3 4 1.5 7.3 1.8c3.3.2 7.5.7 7.5.7-7.7-3.7-17.6-6.9-26-10.5-4.2-1.8-5.9-4.2-9.4-6.3-3.7-2.2-6.5-3.1-11.8-4.6-7.8-2.2-13.7-8.6-25.2-8.2-7.3.3-20.6 3.8-25.3 5.9-6.9 3.1-12.5 7-18.6 10.3-4.8 2.6-7.8 5.4-14.4 7.8"/><linearGradient id="c" x1="110.551" x2="109.522" y1="93.275" y2="161.49" gradientUnits="userSpaceOnUse"><stop offset="0" stop-color="#696"/><stop offset="1" stop-color="#346733"/></linearGradient><path fill="url(#c)" d="M.7 107.1c1.2-.5 3-.8 4.5-.9.3 1.2.4 2.1.9 3.3 1.8.6 2.5 1.2 2 2.5 5.1-.6 6.3 1.4 6 3.4.9 0 2.2.1 3.1.1 0 .3 0 .8.2 1.1 1.1.1 1 .1 1.3.6.8 0 1.7.1 2.4.1-.4 1.3.4 2.6 3.3 2.8.1.4 0 .8.2 1.2 2.8-.8 8.8-4.5 8.6-5.7 4.1-.3 3.4-4.9 8.5-2.2 3.9-1.9 8.1-4 11.9-6.2 4 1.3 10.3 3.3 9.4 5.8 6.7.8 5.3 3.4 13 1 3.3 2.7 8.5 1.5 10.9 3.3 2.7-.4 10-1.6 11.2-2.1 7.9.4 11.6-5.8 17.8-7.4.8.6 2.4.8 3.2 1.2 1.4-1.2 3.3-2.3 5.6-3 1.8-.1 3.3-.2 5.1-.9 2.2 1.8 6.5 2.8 10.5 3.1.3.4 1 .9 1.3 1.2 0-.7.7-1.1.9-1.8 4.1.4 6.7-.4 10.4-.9 1.6 2.4 7.6 3.6 7.5 7 3.4 0 4.1 1.3 3.3 2.8 4.3.2 7-1.5 9.3-3-3.6-1.6 1.9-2.4-.8-4 6.1-1.2 7.3-6 16.6-5.3.4-1.6 3.5-1.3 5.9-.5.7 1.3.6 1.3 3.3 1.8.2 1.1 1 2.1 2.2 3 4.4-1.1 7.9-1.4 11.9-3 2.7-1.1 5.2-4.3 7.7-6l.2 29.5H.1l.6-21.9z"/><path fill="none" stroke="#669" stroke-miterlimit="10" stroke-width=".25" d="M.7 93.8c1.9-2 8.4.1 11.9 0 3.3-.1 9.6-1.7 12.1-2.7 4.4-1.7 6.5-3 12.4-4.3 6.9-1.5 12.2-2.6 16.8-5.1 5.5-3 11.2-4.9 18.4-7.5 6.5-2.3 9.5-5.1 14.4-7.8 6.1-3.4 11.7-7.2 18.6-10.3 4.8-2.1 18.1-5.7 25.3-5.9 11.5-.4 17.4 6 25.2 8.2 5.3 1.5 8.1 2.4 11.8 4.6 3.5 2 5.3 4.5 9.4 6.3 8.4 3.6 18.3 6.8 26 10.5 5.4 2.6 16.2 6.6 15.7 6.5V129H.1l.6-35.2z" opacity=".31"/><path fill="none" stroke="#9798CB" stroke-miterlimit="10" stroke-width=".25" d="M218.7 128.8H.1L.7 44c13.9-4.9 30.8 1.6 37.1 4.3 6.2 2.6 5.7 4.6 14.6 4.6 14.4.1 22.7-5.3 35.8-7 5.9-.8 7.8 1.1 13.2 1.5 5.4.4 12-1.2 17.4-1.5 10.6-.7 5-1.6 14.4-4 4.5-1.1 19.9-2.8 23.9-4 4.3-1.3 16.1 4.5 20.5 3.4 8.3-2.2 16.5 7.3 24.5 4.9l17.9-5.8" opacity=".68"/><path fill="#FFF" d="M207.2 28.2c-1.8-1.6-4.8-3.7-8.6-2.1-3.7-3.3-21-7.1-20.6-.8-4.1-.4-6.9.5-7.1 2.5-6-.1-2 1.7-5.3 2.5-3.5.8-3.5.4-6.9.8-5.5.6-10.9.3-16 2 4.7.9 16.1 1.7 21.3 2.1 5.7.4 18.5.8 21.2-1.9 2.3 1.2 4.4 1.4 7.1.4 5.2.2 19.9 1.3 24-.6-1.8-.2-3.3-.9-6-.9 3-1.9-1.6-2.9-3.8-4m-131 8.2c-.1-.4-1.2-1.6-1-2.4-.4-.2-1.8 0-2.4-.1.1-3.6-6.6-.9-10.6-.5-2.3-1.4-6.1-1.1-9.7-.7-1.3-1.9-.4-1-3.5-2-.9-2.3-5.6-4.9-10.5-2.9-5.3-2.6-26.6.3-21.4 4.6-2.2.9-5.7 2.3-5.3 3.7 1 3.2 9.9 1.6 15 2.9 3.3.8 6.4.6 9.7.9 4 .4 8.3 1.1 12.4 1.2 3.5 0 7-1.1 10.4-1.3 4.1-.3 6.6.2 10.8.1 5-.1 18.6.7 20.2-1.6-5.2-.9-11.8.2-15.8-1.3M54.3 20.5c.2-1.8 2.7-2.1 6-1.3.9-1.6 2.3-1.9 6.2-1.7.2-1.7 1.6-3.3 5.5-2.9 2.3-1.9 6.8-1.4 10.4-1.4.9.3 2.6.9 3.6 1.2.7.7.4 1.1.5 1.6.6.1 1.5-.2 2.2 0 0 .5-.1 1.1.3 1.5.8.6 1.3.2 1.7 1.2 5.4.8 27.1-.2 27.1 2.9-11.2.3-20.2.3-31.5.5-8.5.1-27 1.3-33.8-1.2" opacity=".63"/></g></switch></svg>
