<svg xmlns="http://www.w3.org/2000/svg" id="Capa_1" x="0" y="0" version="1.0" xml:space="preserve" viewBox="0 0 20 6"><style/><switch><g><path fill="#d68d93" d="M1.9 2.2c.9-.4.6 0 2.1-.3 2.4-.5 2.9-.2 5.9-.2 4.4-.7 5.4.2 8.8.3-1.6.4-2.1 1.4-3.4 2.3-1.5 1.1-3.6 1.2-5.4 1.2-1.7.1-3.1-.3-4.7-1.1-1.6-.7-2.6-1.8-3.9-2.5"/><path fill="none" stroke="#923533" stroke-width=".5" d="M1.1 1.9c6.1 1.8 12.3.8 18.4.2"/><path fill="none" stroke="#923533" stroke-width=".25" d="M1.3 1c-.2.8-.4 1.7-.2 2.2m5.1 1.9c1.5.9 5 .9 6.6.3m6.5-4.2c0 .5.1 1.4.3 1.8"/></g></switch></svg>
