<svg xmlns="http://www.w3.org/2000/svg" id="Capa_1" x="0" y="0" version="1.0" xml:space="preserve" viewBox="0 0 65 95"><style>.st2{fill:#e65e4e}.st6{fill:#ffa882}</style><switch><g><path fill="#fff" d="M50.3 92H12.7C5.7 92 0 86.3 0 79.3V12.7C0 5.7 5.7 0 12.7 0h37.7C57.3 0 63 5.7 63 12.7v66.7C63 86.3 57.3 92 50.3 92z"/><path fill="#ff734f" d="M36 9.8s14.6 21.8 13.6 28.9C48.5 45.8 40.8 93 40.8 93l-11.3-1.3s1-6.3-2.7-13.5C20 64.6 13.9 49 14.5 45.6c1-5.4 7.1-25.1 7.5-27.7.4-2.6 1.6-6.1 1.9-8.1s12.1 0 12.1 0"/><path d="M29.5 91.7s-.9-8.5-.9-10.3-3.9-8.3-4.2-9.8c-.2-.8-1.7-3.1-3.3-6-1.3-2.5-2.6-5.4-3-8.4-.9-6.6-1.3-24.6 1.9-29.2s4.3-13.4 4.9-16.5c.6-3.1.6-8.1.6-8.1h-1.2s0 6.8-2.1 11.8-5.8 15.2-7.7 29c-1 7 1.5 15 5.8 22.4 4.2 7.2 7.3 12.5 7.4 14 .3 3.3.7 11 .7 11h1.1zM35.7.2c0 .4-.3 6.1 1.2 9.6S50 32.5 50 42.3c0 3.3-.3 7.3-.9 11.3-1.1 8-2.9 16-4.5 18.8-2.3 4.2-3.8 20.6-3.8 20.6h-1.5s1.8-15.5 2.1-15.9c.2-.2 6.8-17 7-31.3.1-12.3-6.2-22.2-7.3-24.4-2.4-4.6-4.8-9.4-5.3-11.1S34.6.3 34.6.3h1.1z" class="st2"/><path fill="#e4c2b9" d="M24.5 3.5c-.8-1.1 0-2.7 1.8-3.2 1.2-.4 2.7-.3 4-.3l5.7.3c.2 1.7-.9 3.4-1 5.1-.1 2.2 1.7 4.4.7 6.4-.5-.3-.8-.8-1-1.2-.4.2-.8.5-1.1.8-.1-.4-.2-.9-.7-1.2s-1.5-.4-1.8 0c-.2.2-.1.5-.1.8 0 .3-.2.6-.7.6-.3-.2-.4-.4-.7-.7-.2-.2-.8-.4-1.1-.2-.1.1-.2.2-.2.3-.2.5-.3 1-.5 1.6-.7-.5-1.1-1.1-1-1.8-.6 0-.8.4-1.1.8-.3.3-1 .6-1.3.3 1.2-2.4 1.5-5 1-7.5 0-.2-.1-.5-.4-.6-.5-.3-1.4-.2-1.5-.6 0-.1.1-.3.2-.4.5-.5.9-1 1.4-1.5"/><path fill="#f2d9d1" d="M30 91.8c-.3-.2-.3-.5-.3-.7-.1-1.7.6-3.3.5-5-.1-1.5-.6-3.2.8-4.2.2.3.4.5.7.7 0-.5.1-1.1.4-1.5.1-.1.2-.3.3-.4.5-.3 1.1.1 1.5.4.2-.6.6-1.1 1.1-1.6.2.5.5 1.1.7 1.6.4-.1.8 0 1.1.3.2.3.2.6.3.9.7-.6 2.2-.6 2.9.1.4.4.4.9.4 1.4 0 1.5-.5 2.9-.9 4.3-.2.9-.1 2.9-.9 3.6-1.4 1.2-7.2 1-8.6.1z"/><path d="M27.7 12.6s-4.5 21.2-4.8 24.5c-.3 3.3-1.2 10.7 0 15.1s3 15.1 4.8 17c1.8 2-7.4-12.2-8-15.9-.6-3.7-.9-12.4 0-16.4s.9-5.7 2.4-9.4 5.6-14.9 5.6-14.9z" class="st2"/><path d="M34.6 76.2c-.6-.4-3.3-9.6-4.2-12.4s-2.1-24-2.4-27.1c-.3-3.1 1.8-25.1 1.8-25.1S23.6 37.7 25 43.9c1.5 6.1 1.8 19 4.8 23.2 3 4.1 3.6 10 3.6 10l1.2-.9zm.3-13.6c.3-.4-2.7-49.8-2.7-50 0-.2-1.5 1.7-1.5 1.7l2.1 28 2.1 20.3zm2.6-1.3s1.5-21.4 0-26-4.7-19.2-4.7-19.2h1.8s4.8 23.4 4.8 26.9.6 13.8 0 15.3-1.9 3-1.9 3z" class="st2"/><path d="M38.4 77.1s3.9-22.9 3.9-29.5-6.6-31.3-7.7-32.6c-1.2-1.3.3-.9.3-.9s8.6 24.5 8.9 28c.3 3.5.9 12 0 15.3-.9 3.3-1.8 11.8-2.4 12-.6.2-3 7.7-3 7.7z" class="st2"/><path fill="#ffad8a" d="M41 77.2c0-.3 0-.5-.2-.7-.2-.2-.6-.4-.9-.3-.8.2-.2 1.1-.6 1.6-.2.3-1 .3-1.3.1-.4-.3-.4-.7-.4-1.1-.7.2-1.5-.2-1.6-.7 0-.3.1-.6 0-.8-.2-.5-1.2-.6-1.6-.2.2.4.3.7.3 1.1 0 .4-.3.8-.8.9-.6.1-1.2-.1-1.5-.5-.3-.4-.3-.8-.4-1.3-.1-.8-.1-1.5-.2-2.3 0-.2-.1-.4-.4-.5-.3 0-.4.2-.5.4-.4 1.9 1.4 4.1.1 5.7-.8-.2-1-.9-1.1-1.5-.2-.6-.8-1.3-1.6-1.1.7 1.4 1.2 2.9 1.5 4.5-.6.1-1.3-.1-1.4-.6.1 1.6.5 3.2 1.1 4.8.3.1.6 0 .8-.2.2-.2.2-.4.2-.7 0-.6 0-1.1.1-1.7.4-.2.9-.1 1.2.1-.2-.4 0-1 .6-1.2.5-.3 1.3-.2 1.8.1.2-.5.4-1 .7-1.4.4.5.6 1 .5 1.6.9-.2 1.6.5 1.6 1.1 4.4.6 4.2-2.5 4-5.2z"/><path d="M47.3 42.3l-1.8-2.2" class="st2"/><path d="M19.7 55s0-.2-.1-.5c-.4-2.6-2.5-15.1-1.7-17.9.9-3.1 1.8-12.9 1.8-12.9s-3.3 9-3 15.5C17 45.8 18.8 55 18.8 55m6.5 5.7c-.3-.2-4.1-11.2-3.5-19.7s3.6-25.6 3.6-25.6-2.1 22.1-1.8 26.2 2.4 18.3 2.7 19c.2.7-1 .1-1 .1zm13.1-39.8c0 .2 4.2 11.1 4.2 17.3s-.6 24-1.2 25.3c-.6 1.3 3.3-21 2.4-25.3-.9-4.4-5.4-19.2-5.4-19.2v1.9z" class="st6"/><path d="M44.7 61.8c.3-.4 4.8-19.7 3-23.2-1.8-3.5-4.8-14-4.8-14s3.6 13.3 3.9 15.9c.2 2.7-2.1 21.3-2.1 21.3zm-7.5 1.7c.3-.7 2.7-18.8 1.8-22.3-.9-3.5-3.9-23.8-4.8-24.7-.9-.9 6.5 21.4 6.8 24.7.4 3.3-3.8 22.3-3.8 22.3zm-2.9-4.1s-.3-18.8 0-22.3-2.7-25.8-2.7-25.3c0 .4-.3 24.5.6 31.5l2.1 16.1zm-2.1 1.5s-2.4-19-2.7-24.2c-.3-5.2 0-21.2 0-21.2S26.8 34 27.7 40.6c.9 6.5 4.5 20.3 4.5 20.3z" class="st6"/><path fill="none" stroke="#ffcc05" stroke-miterlimit="10" stroke-width="2" d="M50.3 92H12.7C5.7 92 0 86.3 0 79.3V12.7C0 5.7 5.7 0 12.7 0h37.7C57.3 0 63 5.7 63 12.7v66.7C63 86.3 57.3 92 50.3 92z"/></g></switch></svg>
