<svg xmlns="http://www.w3.org/2000/svg" viewBox="0 0 118.7 83.7"><path fill="#F99" stroke="#F99" stroke-width=".25" d="M70.9 44.3c25.1-.6 45.7 7.1 45.9 17.1.2 10-20 18.5-45.1 19.1-25.1.5-45.7-7.1-45.9-17.1-.2-10 20-18.5 45.1-19.1z"/><path fill="#FFF" stroke="#FFF" stroke-width=".25" d="M70.8 48.8c20.9-.5 37.9 4.9 38.1 12 .2 7.1-16.7 13.2-37.5 13.6-20.9.5-37.9-4.9-38.1-12-.2-7.1 16.6-13.2 37.5-13.6z"/><path fill="#FFF" d="M53 61.3c0-1.1-.5-3.8.6-5 1.1-1.3 3.1.3 4.8-1-1.7-2.1-1.7-4.5-1.7-6.9-1.2.4-2.9.8-4 1.7 1.1-1.6.9-3.6-1-4.7-1.5 2.1-1.4 5.9-2.5 8.5-.1-2.7-.5-5.6-3.1-6.9-.7 2.8 1.6 7.1 4.2 8.3.2 2.5 1.6 4.6 2.4 6.9" opacity=".03"/><path fill="#FCEBB7" d="M43 55v1.3c-.5.1-.8.3-.5 1.1.3.9 3.1 2.7 4.3 3.2 1.3.5 7.6 5.4 9.2 6.2 1.6.8 3.9 2.1 5 2.8 1.1.7 3.4 1.2 3.7.9.3-.3 3.4-1.4 3.8-1.5.4-.1 6.7-2.2 6.7-2.2s6.8-2.9 7.1-2.9c.3 0 6.2-2.6 6.2-2.6s7.7-2.7 8.1-3.1c.1-.1.2-.3.2-.5.1-.7-.2-1.6-.9-1.4-1 .3-21.4-7.9-23.3-8.3-1.9-.4-3.1-.2-3.9 0-.8.2-4.1-.1-5.5-.2-1.3-.2-4.2.3-5.9.5-1.6.2-2.9.5-3.9.8-1 .3-1.3.8-1.6 1-.4.2-1 .8-1.4.6-.5-.2-.5-.4-1.1-.4-.6 0-1.8.1-2.1.4-.3.3-.6 1-1.1 1.1-.5.1-1.1-.5-1.3-.1.1.3-.8 1-.8 1s-1 .5-1 .8c0 .3-1 .4-.5.6.4.1.5.9.5.9z"/><path fill="#F8A144" d="M96.9 63.9s-.3.8-2.4 1.7c-2.1.9-3.9 1.1-4.9 1.5-1 .4-1.9.5-2.2.6-.3.1-1.3.4-1.5.6-.3.2-1.7.7-1.7.7l-1.2.7-2 .8s-1.1.4-1.4.6c-.4.2-.9.5-1.3.6-.5.1-.9.5-.9.5l-1.2.5s-.6.6-1.1.7c-.5.1-1.4.5-1.9.7-.5.2-1.7.6-2 .7-.3.1-.7.3-1.1.4-.4.1-.6.4-1.2.7-.6.3-1 .4-1.3.4-.4 0-.6-.3-1.2 0s-1.3.6-1.3.6-2.6-.9-3.3-1.1c-.7-.2-1.6-.3-2.2-.7-.6-.4-2.1-1.9-2.1-1.9s-.6-.7-1.1-1c-.5-.3-1-.4-1.3-.7-.3-.3-.9-.6-1.3-.9-.4-.3-2.8-2.4-3.2-2.6-.4-.2-1.2-.4-1.5-.7-.4-.3-1.2.1-1.5-.5-.4-.6-1.5-1.1-1.8-1.3-.3-.2-1.2-1.3-1.4-1.5-.3-.2-1.2-1.2-1.2-1.2s-1.2-.8-.9-3.1c.2-2.3.3-3.3.3-3.3s1.1 2.9 4.3 4.2c3.2 1.3 12.4 9 15.2 9.4 2.8.4 14.7-4 17.2-5s15.8-5.9 16.7-6.7c.9-.8.9-.3.9-.8v.5l.6 4.3-.6 1.6z"/><path fill="#050505" stroke="#81807F" d="M71.7 72.5c-.1-.5.7-.8.3-1.4.2-.3.4-.4.7-.4.1.6-.3 1.8-1 1.8m2.4-.5c-.2-.3.1-.7.4-1 .1 0 .1 0 .2.1-.1.4-.3.9-.6.9m4-1.9c0 .1-.2.1-.1.3.5-.3.8-1 .2-1.4l-.3.3c.3.3.3.5.2.8m8.3-4.4c0-.3 1.1-2.1 1.3-1.9.7.5-1 1.9-1.3 1.9M83.2 67c.3-.2.6-.4.9-.5 0 0 .2.2.2.1-.2.3-.6.4-1 .2m-1.5-.5c.4-.2.9-.3 1.2-.5-.1.4-.5.7-.9.7 0-.1-.1-.2-.1-.3m-5.4 3.1c-.5-.6.3-1 .6-1.4.2.5-.1 1-.7 1.2m2-1.5c0-.4-.1-.6.3-.7 0 .3-.1.6-.3.7m-3.1-.1c1.1.3.3-1.3-.3-.3.2.2.4.1.4.1m-6.6 4.4c-.3-.5.3-1 .7-.6.4.5-.4.8-.7.8m-.8 2.4c.2-.4.2-.8.3-1.2-.8-.1-.7 1.2-.2 1m-.8 1.8c-.7-1.3-2-.2-.4-.2.9 0 1.8-.5 2.7-.5-.3.3-.7.4-1.1.7m4.6-2.1l-.3-.9h-.5c.1 0 .4-.1.6-.1-.1-.1-.2-.3-.2-.3.2-.1.2-.1.4-.1 0 .4 0 .7-.1 1.1.1.1 0 .2.1.3m1.8-.9l-.3-.3c0 .1-.1 0-.2.1 0 .1.1.2.2.3.2.1.2-.1.3-.1m2.4-1.8c-.2-.4-.1-.9.1-1.1.2.4.1 1-.1 1.1m5.9-2c.3-.5.4-1 .8-1.5.4-.6.4-.6 1-1-.2.6-.9.8-1.1 1.2-.1.1-.2.1-.2.3.4.2.9-.1 1.3-.4-.3.6-1 .6-1.5 1 .2.2 0 .1 0 .2m1.9-4.1c-.3-.5.2-.8.4-1.1.3.5-.2 1.2-.4 1.1m-18.2 8c-.1-.2.1-.7.1-1-.2.6-.4 1.3-.7 1.9-.2.4-.5.9-.8 1.2-.4.3-1.1.4-1.3.8m-1.2-2.2c-.3-.1-.3-.3-.1-.7.5.2.3.7-.1.7m.1-2.7c-.2.1-.4.2-.6.4.3.3.7.4.9 0-.1-.2-.1-.3-.1-.5.1 0 .2.1.3.1m1.4 2.6c-1.1-.8.6-1.6-.2-2.6 1.1 0 1.1 1.9.9 2.5-.2.5-1.4 2.7-2 2 .5-.6 1.6-1 1.3-1.9m-5.5-.6c-.2 0-.6-.2-1-.2 0 .5.5.8.9.7 0-.1 0-.2.1-.5m2.2 2.3c-.1-.3-.1-.6 0-.9.2.3.2.5.2.8-.1 0-.2 0-.2.1m-.2-3.5c0-.2.1-.5 0-.7.4.4.6.8.5 1.3-.3 0-.4-.1-.6-.3.2-.3.3-.6.2-.9m-7.9-.7c-.1-.2-.1-.4-.1-.7.4.3.1.7.4 1 .2.2.7.2 1 .4 0 .1-.1.2-.1.3-.5-.2-.9-.7-1.2-1m-2.7-10.6c-.4.2-.7-.2-1-.5.3-.3 1.1-1 1.4-.6.6.6-.6 1-.5 1.4-.2.1-.1-.1-.1-.1m4-1.2c-.2-.5.4-.8.8-.4.2.2-.1.7.2 1-.6.2-1.2-.8-1.7 0 .3-.5.9-.7 1.3-1m-6.4-.4c.3 0 .5-.3.7-.6.2.3.3.6.4.9-.2-.2-.4-.2-.6-.2.1.1.1.3.2.5-.1-.1-.3-.3-.5-.4-.2.3-.6.5-1 .4.6-.8.1-.9-.1-1.8.8-.5.7.4.9 1m.4-3.6c.4-.1.6-.6.4-1 1.3.4-.1 1.3-.5 1.5-.4.3-1.7 1.3-1.8 0 .3-.1.7-.3.9-.6.2.1.4.1.6.4.1-.1.3-.1.4-.2m5.9 1.6c-.7-.3-.3-1 0-1.6-.1.2-.3.3-.6.4m-2.3 3.8c-.1-.4-.1-.9.2-1.2-.2-.1-.4-.3-.6-.3.4-1 1.2.3.7 1m.5-2.9c-.3-.5-.2-1-.6-1.5 0 0 .1 0 .1-.1.1 0 .3 0 .4.1-.2.5 0 1.2.7.9 0 .2 0 .4-.1.6.1 0 .2.1.3.1-.3 0-.6-.1-.9-.3m.3 4.4c-.9-.8.1-2 1-1.3 0 .2-.1.3-.2.5-.7-.5-.8.2-.8.7m-.8 2.1c0-.3 0-.5.2-.7v.6M45.2 55c.1-1.2-.6-1.6.6-1.9-1.6-1-.5 1.1-.7 1.7m9.3-4c-.2-.1-.4-.4-.6-.6.6-.4 1.6-.5 2-1.1-.5-.3-2.5.7-2.3 1.3-.2.2-.2.2-.5.2.1-.2 0-.6 0-.8-.7.4.5 1.4 1.1.6m1.1 2.1c-.2.2-.4.5-.8.6-.1-.1 0-.2.1-.3m2.1-.1c-.1-.6.5-.6.8-1-.5-.4-.8.2-.9.7m1.9-3.5c.4.2 1.1.1 1.5 0-.1-.7-1.5-.8-1.5 0m-.8 6.4c-.1-.3 0-.7.2-.9-.3-.2-.4-.5-.6-.7h.5c-.4.7.4.8.8.9-.2.1-.4.3-.7.4.1.1.1.4.2.4-.3.1-.3-.1-.4-.1m2.4 2.9c-.4.1-1.1.8-1.6.4-.6-.5.8-.7 0-1.2-.8.6-.6 1 .2 1.3.8.3 1-.1 1.7-.5M57.7 60c0 .2.1.4.3.6.2-.5 0-.4-.3-.6m-2 1.6c-.1.1-.1.3 0 .4.1-.3-.1-.2-.3-.4m-9.6-3.7c.1-.1.2-.4.3-.6-.4-.2-.8-.5-.9-1 1.2.6 1.6 1.1.4 1.8m37.6-4.9c-.5.1-1 0-1.2-.4-.5.9 1.1.5 1.2 1.1.2-.4 0-.5 0-.7m2 .5c-.2 0-.5 0-.7.1.4.1.5 0 .7-.1M68.4 65.8l-.1-.1c-.2.2-.2.2-.2.5.3 0 .3-.2.3-.4m1-4.6c.1-.2.1-.3.2-.5.2.2.3.3.4.7h-.8c0-.2.1-.3.2-.5m-4.5-1.8c-.1.1-.2.1-.4.2-.4-.2-.7 0-1.2-.2h.8m29.8-1.7c0 .3-.1 0-.2-.2m-3.6-1.5c-.3.5-1.1.3-.6-.2.2.3.5.5.6.5m-2.8-1.7c0 .1.2.2.3.3m-7.1-2.1c-.1-.1-.1-.2-.2-.3.1-.1.1-.2.2-.3.2.1.5.4.7.5-.3.3-.7.4-.9.1m6.7 3.6s-.1 0-.1-.2c.4 0 .5-.1.6.4-.4-.1-.3-.2-.4-.4m-6-.9c.2 0 .4 0 .6.1v.3c-.5.1-.4-.1-.6-.4m-21-3.1c.2-.4.3-.7.7-.8-.6-.1-1.2.4-.6.8m-1.7-1.3c.6-.2 1.2-.4 1.7-.7-.4-.3-1.5.1-1.4.6m-.1 2.9c-.1.1.1 0 .1-.1-.3-.3-1.7-1-1.3 0 .4-.1.9.1 1.2.1m-7.5 9.1c-.2-.1-.2-.2 0-.2.5.2.1.3.1.5m2.9-.6c-.6-.1-.6-.4-.2-.7.1.1.2.2.3.2-.1.2-.2.2-.3.3m-3.1-7.6c-.2.6.4.5.9.4 0-.3-.1-.4-.3-.6-.3.2-.5.4-.7.7m1.1-1.8c.4-.2.5-.8.7-1.3.4.2.2.7.1 1-.3.2-.6.3-.9.4m2.7-1.4c.2-.2.4-.4.8-.2-.3.4-.6.5-1 .4-.1-.2 0-.1.2-.2m2-1.2c-.1-.2-.2-.4-.2-.6.1 0 .2-.1.3-.1 0 .4-.2.7-.4.8m2.2 1.7c-.1-.3-.1-.6 0-.9.2 0 .5.1.7.3-.2.1-.7.6-.7.6m12.9-3.1c.1-.1.1-.2.2-.2-.4.2-.8.5-1.2.7m-5.9 10.9c0-.5.5-.7.9-.4-.2.3-.4.2-.7.1m-2.5.8c.1-.3.2-.5.4-.6.2.4 0 .7-.4.6m-1.7 1.1v-.6" opacity=".06"/><path fill="#050505" d="M50.4 51.6c-1.2.3-3.3 1.1-3.8 2.4-.6 1.7.9 3.4 1.9 4.6 2 2.5 4.9 5 7.7 6.6 1.1.7 2.3 1.3 3.4 2 .7.4 2.3 1.4 2.4 2.2-.1.1-.1.2-.1.3-1.4-.7-2.9-1.2-4.1-2.1-1.7-1.2-3.3-2.5-5.2-3.5-1.5-.8-2.9-1.8-4.2-2.7-1.5-1-3.3-1.7-4.6-2.9-.8-.7-1.4-1.5-1.1-2.5.2-.5.5-.5.6-1 0-.3-.3-.7-.3-1.1.1-.8 2.6-4 2.8-2.1.7.1 1.3-1.3 2.2-1.3.6-.1 2.3.3 1.9 1.2" opacity=".02"/><path fill="#050505" stroke="#050505" d="M84.8 66.4c-.1-.2-.1-.4-.1-.7.4.3.1.7.4 1 .2.2.7.2 1 .4 0 .1-.1.2-.1.3-.5-.2-.9-.7-1.2-1" opacity=".14"/><path fill="#050505" stroke="#050505" d="M94.3 60.8c-.5.1-1 0-1.2-.4-.5.9 1.1.5 1.2 1.1.2-.3 0-.4 0-.7" opacity=".15"/><path fill="#050505" stroke="#050505" d="M90.4 64.9l-.1-.1c-.1.2-.2.2-.2.5.3-.1.3-.2.3-.4" opacity=".1"/><path fill="#050505" stroke="#050505" d="M80.5 68.8c.1-.2.1-.3.2-.5.2.2.3.3.4.7h-.8c0-.2.1-.3.2-.5m11.1-8.4c-.1-.1-.1-.2-.2-.3.1-.1.1-.2.2-.3.2.1.5.4.7.5-.3.3-.7.4-.9.1m-29.1 7.2c-.4.2-.7-.2-1-.5.3-.3 1.1-1 1.4-.6.6.6-.6 1-.5 1.4-.2.1-.1-.1-.1-.1m4-1.1c-.2-.5.4-.8.8-.4.2.2-.1.7.2 1-.6.2-1.2-.7-1.7 0 .3-.5.9-.7 1.3-1m-6.4-.5c.3 0 .5-.3.7-.6.2.3.3.6.4.9-.2-.1-.4-.1-.6-.2.1.1.1.3.2.5-.1-.1-.3-.3-.5-.4-.2.3-.6.5-1 .4.6-.8.1-.9-.1-1.8.8-.5.7.4.9 1m.4-3.6c.4-.1.6-.6.4-1 1.3.4-.1 1.3-.5 1.5-.4.3-1.7 1.3-1.8 0 .3-.1.7-.3.9-.6.2.1.4.1.6.4.1-.1.3-.1.4-.2m5.9 1.7c-.7-.3-.3-1 0-1.6-.1.2-.3.3-.6.4m-2.3 3.8c-.1-.4-.1-.9.2-1.2-.2-.1-.4-.3-.6-.3.4-1 1.2.3.7 1m.5-2.9c-.3-.5-.2-1-.6-1.5 0 0 0-.1.1-.1s.3 0 .4.1c-.2.5 0 1.2.7.9 0 .2 0 .4-.1.6.1 0 .2.1.3.1-.3 0-.6-.1-.9-.3m.3 4.4c-.9-.8.1-2 1-1.3 0 .2-.1.3-.2.5-.7-.5-.8.2-.8.7m-.8 2c0-.3 0-.5.2-.7v.6m-7.7-6c.1-1.2-.6-1.6.6-1.9-1.6-1-.5 1.1-.7 1.7m9.2-4c-.2-.1-.4-.4-.6-.6.5-.4 1.6-.5 2-1.1-.5-.3-2.5.7-2.3 1.3-.2.2-.2.2-.5.2.1-.2 0-.6 0-.8-.7.4.5 1.4 1.1.6m1.1 2c-.2.2-.4.5-.8.6-.1-.1 0-.2.1-.3m2.1-.1c-.1-.6.5-.6.8-1-.5-.4-.8.2-.9.7m2-3.5c.4.2 1.1.1 1.5 0-.2-.6-1.6-.7-1.5 0m-.9 6.5c-.1-.3 0-.7.2-.9-.3-.2-.4-.5-.6-.7h.5c-.4.7.4.8.8.9-.2.1-.4.3-.7.4.1.1.1.3.2.4-.3 0-.2-.1-.4-.1m2.4 2.9c-.4.1-1.1.8-1.6.4-.6-.5.8-.7 0-1.2-.8.6-.6 1 .2 1.3.8.3 1-.1 1.7-.5m-2.6 1.7c0 .2.1.4.3.6.2-.4 0-.4-.3-.6m-2 1.6c-.1.1-.1.3 0 .4.1-.3-.1-.2-.3-.4m-9.6-3.7c.1-.1.2-.4.3-.6-.4-.2-.8-.5-.9-1 1.2.6 1.6 1.1.4 1.8M76 66.8c-.1.1-.2.1-.4.2-.4-.2-.7 0-1.2-.2h.8m-4-7.2c.2-.4.3-.7.7-.8-.6-.1-1.2.4-.5.8m-1.7-1.4c.6-.2 1.2-.4 1.7-.7-.4-.3-1.5.1-1.4.6m-.2 2.9c-.1.1.1 0 .1-.1-.3-.3-1.7-1-1.3 0 .4 0 1 .1 1.2.1m-7.5 9.2c-.2-.1-.2-.2 0-.2.5.2.1.3.1.5m2.9-.6c-.6-.1-.6-.4-.2-.7.1.1.2.2.3.2-.1.2-.2.2-.3.3M62 62.1c-.2.6.4.5.9.4 0-.3-.1-.4-.3-.6-.3.2-.5.4-.7.7m1.1-1.9c.4-.2.5-.8.7-1.3.4.2.2.7.1 1-.3.2-.6.3-.9.4m2.7-1.3c.2-.2.4-.3.8-.2-.2.3-.6.4-.9.4-.2-.2 0-.2.1-.2m2-1.2c-.1-.2-.2-.4-.2-.6.1 0 .2-.1.3-.1 0 .4-.2.7-.4.8m2.2 1.6c-.1-.3-.1-.6 0-.9.2 0 .5.1.7.3-.2.1-.7.7-.7.6m6 8.3c0-.5.5-.7.9-.4-.2.3-.4.2-.7.1m-2.5.8c.1-.3.2-.5.4-.6.2.5 0 .7-.4.6M71.5 70v-.6" opacity=".15"/><path fill="#050505" stroke="#81807F" d="M77.5 64.1c-.4.2-.7-.2-.9-.5.3-.3 1.1-1 1.4-.6.6.6-.6 1-.5 1.4-.2.1-.1-.1-.1-.1m3.9-1.2c-.2-.5.4-.8.8-.4.2.2-.1.7.2 1-.6.2-1.2-.7-1.7 0 .3-.5.9-.7 1.3-1m-6.4-.4c.3 0 .5-.3.7-.6.2.3.3.6.4.9-.2-.1-.4-.1-.6-.2.1.1.1.3.2.5-.1-.1-.3-.3-.5-.4-.2.3-.6.5-1 .4.6-.8.1-.9-.1-1.8.8-.5.7.4.9 1m.4-3.6c.4-.1.6-.6.4-1 1.3.4-.1 1.3-.5 1.5-.4.3-1.7 1.3-1.8 0 .3-.1.7-.3.9-.6.2.1.4.1.6.4.1-.1.3-.1.4-.2m5.8 1.6c-.7-.3-.3-1 0-1.6-.1.2-.3.3-.6.4m-2.2 3.8c-.1-.4-.1-.9.2-1.2-.2-.1-.4-.3-.6-.3.4-1 1.2.3.7 1m.5-2.9c-.3-.5-.2-1-.6-1.5l.1-.1c.1 0 .3 0 .4.1-.2.5 0 1.2.7.9 0 .2 0 .4-.1.6.1 0 .2.1.3.1-.3 0-.6-.1-.9-.3m.3 4.4c-.9-.8.1-2 1-1.3 0 .2-.1.3-.2.5-.7-.5-.8.2-.8.7m-.9 2.1c0-.3 0-.5.2-.7v.6m-7.7-6.1c.1-1.2-.6-1.6.6-1.9-1.6-1-.5 1.1-.7 1.7m9.3-3.9c-.2-.1-.4-.4-.6-.6.6-.4 1.6-.5 2-1.1-.5-.3-2.5.7-2.3 1.3-.2.1-.2.1-.4.1.1-.2 0-.6 0-.8-.7.4.5 1.4 1.1.6m4.2-1.5c.4.2 1.1.1 1.5 0-.1-.7-1.5-.8-1.5 0m-.8 6.4c-.1-.3 0-.7.2-.9-.3-.2-.4-.5-.6-.7h.5c-.4.7.4.8.8.9-.2.1-.4.3-.7.4.1.1.1.3.2.4-.3.1-.3-.1-.4-.1m2.4 3c-.4.1-1.1.8-1.6.4-.6-.5.8-.7 0-1.2-.8.6-.6 1 .2 1.3.8.3 1-.1 1.7-.5M84 64.4c0 .2.1.4.3.6.2-.5-.1-.4-.3-.6M81.9 66c-.1.1-.1.3 0 .4.1-.3-.1-.2-.3-.4m-9.5-3.7c.1-.1.2-.4.3-.6-.4-.2-.8-.5-.9-1 1.2.6 1.6 1.1.4 1.8m19.3 1c-.1.1-.2.1-.4.2-.4-.2-.7 0-1.2-.2h.8m-4-7.2c.2-.4.3-.7.7-.8-.6-.1-1.2.4-.6.8M84.8 55c.6-.2 1.2-.4 1.7-.7-.4-.3-1.5.1-1.4.6m-.1 2.9c-.1.1.1 0 .1-.1-.3-.3-1.7-1-1.3 0 .4-.1.9.1 1.2.1m-7.5 9.1c-.2-.1-.2-.2 0-.2.5.2.1.3.1.5m2.9-.6c-.6-.1-.6-.4-.2-.7.1.1.2.2.3.2-.1.2-.2.2-.3.3m-3.1-7.5c-.2.6.4.5.9.4 0-.3-.1-.4-.3-.6-.3.2-.5.4-.7.7m1.1-1.9c.4-.2.5-.8.7-1.3.4.2.2.7.1 1-.3.2-.6.3-.9.4m2.7-1.4c.2-.2.4-.3.8-.2-.2.3-.6.4-.9.4-.2-.1-.1-.1.1-.2m2-1.1c-.1-.2-.2-.4-.2-.6.1 0 .2-.1.3-.1 0 .4-.2.7-.4.8m2.1 1.6c-.1-.3-.1-.6 0-.9.3 0 .5.1.7.3-.1.1-.6.6-.7.6m6.1 8.3c0-.5.5-.7.9-.4-.2.3-.4.2-.7.1m-2.5.8c.1-.3.2-.5.4-.6.2.4 0 .7-.4.6m-1.7 1.1v-.6" opacity=".15"/><g fill="#050505" stroke="#81807F" opacity=".15"><path d="M72 54.8c.4-.3.7.1 1 .3-.2.3-.9 1.2-1.3.9-.7-.5.4-1.1.2-1.5.2-.1.1.1.1.1" opacity=".15"/><path d="M72.1 55c.2.4-.3.9-.7.5-.2-.2 0-.7-.3-1 .5-.3 1.4.5 1.7-.3-.3.5-.7.8-1.1 1.2m4.7-2.8c-.3 0-.5.4-.6.7-.2-.2-.4-.5-.5-.8.2.1.4 0 .6.1-.1-.1-.2-.3-.2-.4.1.1.4.2.5.3.2-.3.5-.6.9-.5-.5.9.1.9.4 1.8-.7.6-.8-.3-1.1-.8m-4.7-2.2c-.4.2-.5.7-.2 1-1.4-.2-.2-1.3.2-1.6.4-.3 1.4-1.6 1.8-.4-.3.2-.6.4-.8.7-.2-.1-.4 0-.6-.3-.1.1-.2.2-.3.2m-6.2-.2c.8.2.5 1 .3 1.6.1-.2.3-.4.5-.5m1.6-4.2c.2.4.3.8.1 1.3.2 0 .4.2.7.2-.2 1.1-1.2-.1-.8-.9m-.2 2.9c.4.4.3 1 .9 1.3 0 0 0 .1-.1.1h-.5c.1-.5-.3-1.2-.8-.7 0-.2-.1-.4 0-.6H67c.3 0 .6 0 .9.1m6.6 4.4c1 .6.3 2-.8 1.5 0-.2 0-.3.1-.5.7.4.8-.3.7-.8m14.8 2.2c.1.3.1.5-.1.7-.1-.2-.1-.6-.1-.6m-13.3-8.6c.1 1.2.9 1.4-.2 2 1.8.7.3-1.2.3-1.8m-8.3 5.6c.2.1.5.3.7.5-.5.5-1.5.8-1.8 1.5.6.2 2.3-1.2 2-1.7.2-.2.2-.2.4-.3 0 .3.2.6.2.8.6-.5-.7-1.3-1.2-.4m-1.4-1.9c.2-.2.3-.6.7-.7.1.1.1.2-.1.3m-2 .5c.2.6-.4.6-.6 1.1.6.3.7-.4.8-.8m-1.4 3.7c-.5-.1-1.1.1-1.5.2.4.8 1.8.6 1.5-.2m-.3-6.4c.2.3.2.7 0 1 .3.2.4.4.7.6-.1.1-.4.1-.5.1.2-.8-.6-.7-1-.7.2-.1.3-.4.6-.5-.1-.1-.2-.3-.2-.4.3-.1.3 0 .4.1m-2.9-2.7c.4-.2 1-1 1.5-.7.6.4-.6.8.2 1.2.6-.7.4-1.1-.5-1.3-.8-.1-.9.3-1.6.8m18.7 6c-.1-.2-.2-.4-.4-.5-.2.5.1.4.5.4m8.9 1.4c.1-.4.1-.7-.1-.9 0 .7.4.4.8.8m-5.2 3.6c-.1.2-.1.4-.2.6.4.2.9.4 1 .9-1.3-.4-1.8-.8-.7-1.7M55.8 48.7c.1-.1.2-.2.3-.2.4.2.7-.1 1.2 0-.3 0-.6.1-.8.2m5.3 6.2c-.1.4-.2.8-.6.9.6 0 1.1-.6.4-.9m2 1c-.6.3-1.1.6-1.6 1 .5.3 1.4-.4 1.2-.8m-.3-2.9c0-.1-.1.1-.1.1.3.2 1.8.7 1.2-.2-.3.1-.9 0-1.3 0m30.7 3.4c.2.1.2.2.1.2-.5-.1-.2-.2-.2-.4m-16.6-2c.6 0 .6.3.3.7-.1 0-.2-.1-.3-.2 0-.2.1-.2.2-.4m-6.6-3.7c.1-.7-.5-.5-.9-.2 0 .3.1.4.4.6.2-.2.4-.5.6-.9m-.8 2c-.4.2-.3.9-.5 1.4-.4-.1-.3-.7-.3-1 .2-.2.5-.4.8-.6m-2.3 1.9c-.2.3-.4.4-.7.3.2-.3.5-.5.9-.5.2.1 0 .1 0 .3m-2 1.5c.1.2.2.3.3.5-.1 0-.1.1-.2.1-.1-.4.1-.8.2-.8m-2.4-1.2c.2.3.2.6.2.9-.2 0-.5 0-.7-.1.1-.2.5-.8.5-.7m24.1 4.9c.1.4-.3.8-.8.5.1-.4.3-.3.6-.2m6.2-2.7c0 .3-.1.5-.3.7-.2-.4-.1-.7.4-.6m-4.3.8c0 .2.1.4.1.6" opacity=".15"/></g><path fill="#FBE400" d="M59.4 72.7c-.6-3.2-3.5-5.6-6.3-7.2-1.4-.8-3.1-1.1-4.6-2.2-.6-.4-2.8-3.1-3.4-3.1-3.6-.1 4.3 6 5.1 6.6 2.5 1.9 5.5 4.4 8.2 5.5" opacity=".15"/><path fill="#050505" d="M70.7 47.6c2.4.7 4.2 1 6.4 2.3 1.9 1.1 4.1 1.6 6.1 2.1 2.4.6 4.7 1.8 7.1 2.7 2 .7 4.4.6 6.1 1.7 0 .5.1.8-.2 1.3-.4-2-3.6-1.3-5.1-1.9-2.1-.9-4.3-2.3-6.6-3.1-2.5-.9-4.5-1.2-6.8-2.5-1.6-.8-6.3-1.3-6.9-2.5" opacity=".07"/><path fill="#050505" d="M49.9 51.6c1.7.3 3.1-1.7 4.9-2.2 1.9-.6 3.7-.9 5.7-1.1 3.7-.4 7.7.6 11.4-.3-.9-1.4-3.7.1-5.2.1-2-.1-3.9-.6-5.9-.2-2 .3-4.3.3-6.2.9-1.5.5-3.3 2.4-5 1.7.1.4.1.8.3 1.1m9.3 16.6c1.6 2.1 6.6 1.3 8.9.7 3-.8 6.3-1.7 9.1-2.8 2.9-1.1 5.8-2.8 8.7-3.7 2.6-.8 6.8-1 9-2.9.9-.8 1.6-1.7.6-2.7.2 3.2-5.2 3.3-7.1 4.2-2.9 1.5-5.8 2.1-8.9 3.3-5.1 2-12.4 5.5-17.3 4.4-.5-.1-1 0-1.4-.7 0 .3-.1.6-.1.9-.6.1-.8-.2-1.1-.7m12.8 4.2c-.2.1-.3.3-.5.4-.2-1 .9-3.8-1.3-2.7.2-.5 0-.8.3-1.3-1.5 0-3.3.8-4.9 1.1-1.6.3-3.7.4-5.2.9 1.3.1 2.1.9 1.8 2.3.9 0 1 .3 1.5.7-.5.3-.7.9-1.1 1.2 1.5 2.1 2.5 1 4.4.5 1.7-.4 4.1 0 5-1.8" opacity=".07"/><path fill="#050505" d="M93.6 65.5c.6-.4 1.2-1 1.7-1.6-1.4-1.3-.5-5.4 1.1-6 .7.3.8 3.6.6 4.6-.3 1.4-1.6 2.7-3 3" opacity=".07"/><path fill="#E3C81F" d="M74.1 72c1.3.2 3.3-2.5 5-3 .6-.2 1.6 0 2.3-.3.7-.3 1.2-1 2-1.4 1.4-.7 10.1-1.8 9.5-3.6.5-.3.9-.7 1.5-.8-.6-.3-1.2-.7-2-.7-.1-.4-.3-.5-.5-.9-3.6.7-7.3 3.4-11 4.5-1.8.6-3.1 1-4.8 2.1-1.5 1-4 .8-5.2 1.8.5.2 1 .8 1.5 1.1-.2.2-.6.3-.8.3.1.1.6.3.6.4-.3.3-.6.8-.9 1.1 1-.4 1.9-1.4 2.9-1.3.2.4-.2.3-.2.4" opacity=".15"/><g fill="#050505" stroke="#81807F" opacity=".41"><path d="M79.9 62.1c.4-.3.7.1 1 .3-.2.3-.9 1.2-1.3.9-.7-.5.4-1.1.2-1.5.2-.1.1.1.1.1" opacity=".15"/><path d="M80 62.2c.2.4-.3.9-.7.5-.2-.2 0-.7-.3-1 .5-.3 1.4.5 1.7-.3-.3.5-.7.8-1.1 1.2m4.7-2.8c-.3 0-.5.4-.6.7-.2-.2-.4-.5-.5-.8.2.1.4 0 .6.1-.1-.1-.2-.3-.2-.4.1.1.4.2.5.3.2-.3.5-.6.9-.5-.5.9.1.9.4 1.8-.7.6-.8-.3-1.1-.8m-4.6-2.1c-.4.2-.5.7-.2 1-1.4-.2-.2-1.3.2-1.6.4-.3 1.4-1.6 1.8-.4-.3.2-.6.4-.8.7-.2-.1-.4 0-.6-.3-.1.1-.2.2-.3.2m-6.2-.2c.8.2.5 1 .3 1.6.1-.2.3-.4.5-.5m1.5-4.3c.2.4.3.8.1 1.3.2 0 .4.2.7.2-.2 1.1-1.2-.1-.8-.9m-.2 2.9c.4.4.3 1 .9 1.3 0 0 0 .1-.1.1H76c.1-.5-.3-1.2-.8-.7 0-.2-.1-.4 0-.6h-.3c.3 0 .6 0 .9.1m6.7 4.4c1 .6.3 2-.8 1.5 0-.2 0-.3.1-.5.7.4.8-.3.7-.8m14.8 2.3c.1.3.1.5-.1.7-.1-.2-.1-.6-.1-.6m-13.3-8.7c.1 1.2.9 1.4-.2 2 1.8.7.3-1.2.3-1.8m-8.4 5.6c.2.1.5.3.7.5-.5.5-1.5.8-1.8 1.5.6.2 2.3-1.2 2-1.7.2-.2.2-.2.4-.3 0 .3.2.6.2.8.6-.5-.7-1.3-1.2-.4m-1.3-1.8c.2-.2.3-.6.7-.7.1.1.1.2-.1.3m-2.1.4c.2.6-.4.6-.6 1.1.6.3.7-.4.8-.8m-1.3 3.8c-.5-.1-1.1.1-1.5.3.3.6 1.7.4 1.5-.3m-.3-6.5c.2.3.2.7 0 1 .3.2.4.4.7.6-.1.1-.4.1-.5.1.2-.8-.6-.7-1-.7.2-.1.3-.4.6-.5-.1-.1-.2-.3-.2-.4.3-.1.3 0 .4.1m-2.9-2.6c.4-.2 1-1 1.5-.7.6.4-.6.8.2 1.2.6-.7.4-1.1-.5-1.3-.8-.1-.9.3-1.6.8m18.6 6c-.1-.2-.2-.4-.4-.5-.2.5.1.4.5.4m9 1.3c.1-.4.1-.7-.1-.9 0 .7.4.4.8.8m-9.3 2.3c-.1.2-.1.4-.2.6.4.2.9.4 1 .9-1.2-.4-1.7-.8-.6-1.8m-23.9-9.1c.1-.1.2-.2.3-.2.4.2.7-.1 1.2 0-.3 0-.6.1-.8.2m5.3 6.2c-.1.4-.2.8-.6.9.6 0 1.1-.6.4-.9m2 1.1c-.6.3-1.1.6-1.6 1 .5.3 1.4-.4 1.2-.8m-.3-3c0-.1-.1.1-.1.1.3.2 1.8.7 1.2-.2-.3.1-.9 0-1.3 0m14.1 1.2c.6 0 .6.3.3.7-.1 0-.2-.1-.3-.2 0-.2.1-.2.2-.4M78.3 58c.1-.7-.5-.5-.9-.2 0 .3.1.4.4.6.2-.2.4-.5.6-.9m-.8 2c-.3.2-.3.9-.5 1.4-.4-.1-.3-.7-.3-1 .2-.2.5-.4.8-.6m-2.4 1.9c-.2.3-.4.4-.7.3.2-.3.5-.5.9-.5.2.1 0 .1 0 .3m-1.9 1.4c.1.2.2.3.3.5-.1 0-.1.1-.2.1-.1-.4.1-.8.2-.8m-2.4-1.2c.2.3.2.6.2.9-.2 0-.5 0-.7-.1.1-.2.5-.8.5-.7m19.7 2.9c.1.4-.3.8-.8.5.1-.4.3-.3.6-.2m1.4-.7c0 .2.1.4.1.6" opacity=".15"/></g><path fill="#851719" stroke="#851719" stroke-width="2" d="M48.7 51.9c-1.5.6-.5 1.2-.6 2.1-.1.8-.5 1.4-.4 2.2.1 1.9 2.6 1.3 2.5 3.4 1.6 0 3 1.9 4.4 2.5.6.2 1.8.4 2.5.6.9.2 1.5.6 2.2.9 3.4 1 7.4.5 10.8 1 .9.1 1.7.7 2.7.7.8 0 1.8-.7 2.7-.7 1.8-.1 3.8.1 5.6-.3 1.7-.3 3.8-1.9 4.6-3.3.9-1.6.8-3.5 1.2-5.5-.9-.5-1.6-1.3-2.2-2.1.6 0 2 2.2 2.3 2.8.5 1 .4 2.6.2 3.7-.8 3.2-3.6 4.2-6.4 4.9-5 1.3-9.6 1.4-14.8.7-2.5-.3-5 .1-7.5-.3-2.8-.5-5.2-2.3-7.7-3.6-2.9-1.5-4.2-2.6-3.9-6.1.1-1.1 0-2.8.6-3.7.5-.8 2.8-2.6 2.6-.4-1 .3-1.8.7-1.8 1.9"/><path fill="#030202" d="M47.4 54.6c.1.6-.1 1.3 0 2l.1-.1c.2-.3 1-2.7.6-2.9-.4-.2.3-2.4.3-2.4l.3-.3h-.4c-.3.3-.5.7-.7 1-.8.9-.3 1.7-.2 2.7z" opacity=".19"/><linearGradient id="a" x1="-11253.42" x2="-11212.412" y1="302.913" y2="302.913" gradientTransform="matrix(.9473 .1096 -.026 .4937 10715.852 1137.91)" gradientUnits="userSpaceOnUse"><stop offset="0" stop-color="#f9af71"/><stop offset="1" stop-color="#f9b8a9"/></linearGradient><path fill="url(#a)" d="M60.2 63s-1.5 0-1.9-.1c-.4-.1.2-.5-.2-.5-.4-.1-1.6-.2-1.6-.2l-.8-.5s-.8.1-1.3-.1c-.6-.2-1.4-.6-1.4-.6s.6-.2 0-.5c-.6-.2-1.5-.2-1.7-.4-.3-.3-.2-.6-.2-.6l-1.1-.7.4-.8-.5-.6s-2.1-.4-2-.7c0-.3.3-1.3.3-1.5 0-.2.2-1.5.2-1.5s-.6-1.1-.1-1.6.1-1.3.7-1.3 1.9-.9 2.2-1.1c.3-.2 1.1-.8 1.7-.8.6 0 1.8-.2 2.4-.2.6 0 1.7-.4 2.1-.4.5 0 1.5.1 1.5.1h2.2l2.1.1s1.5-.1 2.1.1c.6.2 2.4 0 2.8 0 .4 0 1.6.4 1.6.4s1.6.1 1.9 0c.3 0 .7.2.7.2s1.9.1 2.2.3c.3.2 3.5.6 3.5.6s1.5.3 1.9.6c.4.3 1.9.8 2.3 1 .4.2 1.5.3 1.7.7.3.4 1.1 1.2 1.1 1.2s1.2 1.1 1.5 1.4c.3.3.5 1 .2 1.2-.3.2-.4.9-.4 1.1 0 .2.2 1.1.2 1.2 0 .2-.7.6-.8.8-.2.2-.3 1.1-.4 1.3-.2.2-.4.9-1.1.9-.7-.1-1.1.6-1.4.7-.3.2-.4.6-.8.5h-.4s-.3.1-.8.3c-.4.1-1 .3-1.4.3-.8.1-1.9 0-1.9 0s-.6.5-1.2.4c-.6 0-1.9-.1-1.9-.1s-.6.2-1.5.2-2.5-.4-2.5-.4-.8.1-1.5 0-1.6-.3-1.6-.3l-2.3.3-1.6-.1-2.1-.1-1.1-.2z"/><path fill="#100708" d="M70 64.2c.3 0 .5.1.8.1l-.1-.1c-.7.1-2.7-.7-4.8-.3 1.4.1 2.7.2 4.1.3z" opacity=".56"/><path fill="#F2E924" d="M53 61.6c1.1 0 2.6.1 2.6 0 .1-.6-1.3-.1-1.3-.1 0 .3-1.4-.7-1.4-.6 0 0 .1-.7 0-.5 0 .2-1.7-.5-1.7-.4 0-.1-.2-.6-.3-.4 0-.1-1.1-1.1-1.1-.9-.1.5-.8-.7-1.6-.6-.1 0-.1 0-.2-.1.9 1.4 2.8 2.6 5 3.6z" opacity=".05"/><path fill="#F2E924" d="M76 49.8c-.6-.1-1.1-.2-1.7-.3.3.2.5.4.9.4.6.3 1.6.2 2.2.2-.5-.1-.9-.3-1.4-.3zm-6.6-.6c-.1.9 1.5-.1 1.9 0 .4.1.7.6 1.6.2.1-.1.2-.1.3-.2-1.2-.2-2.3-.3-3.5-.5-.3 0-.6-.1-1-.1.5.4.7.7.7.6zm-8.6-.6c1.3.6 2.5.5 3.1.1.6-.1 1.6 0 1.6.1 0 .2 1.6 0 2.2 0 0-.1.1-.1.1-.1-3.5-.3-7.1-.3-10.6-.2h-.8c.4 0 .8.1 1.1 0 1.2.3 2-.1 3.3.1z" opacity=".13"/><path fill="#FFFDEF" d="M79.3 51.9c-.1.6-1.2.8-2.7-.3-1.9 0-4.5-.7-6.9-.7-2.4.4-4.7.8-5.5-.5-1.3-1.4-1.9.5-2.3 1.3-.4.3-.7.3-2 1.9-1.1-.7-2.3 1.4-3 1.1-.9 1.7-1.4 1.7-1.3.7-.1 1.1 1.1-.1 2.6-.1 1.4.9 3.5-.6 4.9.4 1.5-.3 2.9 1.5 4.4-.6 1.2 0 2.2-1.3 2.2-1-.1.6 2.1.1 4.3-1.1 2 .7 4.3-1.6 4.3-1.1" opacity=".17"/><path fill="#F38272" d="M55.8 57.8c1-1.7 2.3-1.2 3.6-.9 1.5-1.2 3-1.4 4-1.1 1 0 3.4 1 5.9-.4 2.3-.6 4.4-.5 4.4-.4-.1.6-.1-1.5-.6 1.1-.3.5-.5.5-.6 1.1-.1 1.2-1.8 1.1-2.9.4-.8 2.1-2.2.6-3.7.1s-3.2.5-4 .1c-.8-.2-1.8-1.2-2.9.2-1.1 1.8-1.7 1.1-1.6.2 0-.4-2.8-.3-2.8-.1 0-.1 1.3-1.2 1.2-.3z" opacity=".38"/><path fill="#F38272" d="M86 54.3c.2-1.7-2-.2-4.3.3-1.1-.7-2.2-1.4-3.2-1.6-1-.1-1.9.3-2.6 1.8-.8 1-1.2 1.6-1.3.9-.2.6-.2.7-.2 0-.1.6-.1 1-.3 1.9-.2 1.8-.2 2-.1.9 0-.2-.2 1.3-.2 1-.1-.1-.8 1.6-1.5 1.1-.8 1-1.8 1-2.6.2-.9-.6-1.7-1.2-2.5-.3-.7-.2-1.2.4-1.2.5 0 .1 0 1.4.3 1.3.3.2.7 1 1.5 1.5v.2c.8 0 1.5.1 2.3.2h.4c.6-.1 1.1-.1 1.1-.1.2-1.7.9 1.3 2.3.1.6.4 1.3-.9 1.9-.6.5.4.9.1 1.2.5h.2c.4-.9.8-.5 1.1-.2.3 0 .5-.1.8-.1 0 0 .1-.1.1-.2 0 .1.1.1.1.1h.4c.6-.1 1.1-.2 1.6-.3l.1-.1c-.6-.3.1-1.2.3-.8.1.2.4.4.8.5.5-.2.9-.4 1.4-.6.2-.3.3-.8.5-1 .4-1.4.7-.8 1.2-2.3.4-.4.7-.4.9.4.2-.7.4-1.1.5-1.3-.1-.7-.2-1.2-.3-.7.2-1.9-.1-1.3-.2-1.8-.4-.6-.7.3-.5-1.4z" opacity=".38"/><path fill="none" d="M60.2 63s-1.5 0-1.9-.1c-.4-.1.2-.5-.2-.5-.4-.1-1.6-.2-1.6-.2l-.8-.5s-.8.1-1.3-.1c-.6-.2-1.4-.6-1.4-.6s.6-.2 0-.5c-.6-.2-1.5-.2-1.8-.4-.3-.2-.2-.6-.2-.6l-1.1-.7.4-.8-.5-.6s-2.1-.4-2-.7c0-.3.3-1.3.3-1.5 0-.2.2-1.5.2-1.5s-.6-1.1-.1-1.6.1-1.3.7-1.3 1.9-.9 2.2-1.1c.3-.2 1.1-.8 1.7-.8.6 0 1.8-.2 2.4-.2.6 0 1.7-.4 2.1-.4.5 0 1.5.1 1.5.1H61l2.1.1s1.5-.1 2.1.1c.6.2 2.4 0 2.8 0 .4 0 1.6.4 1.6.4s1.6.1 1.9 0c.3 0 .7.2.7.2s1.9.1 2.2.3c.3.2 3.5.6 3.5.6s1.5.3 1.9.6c.4.3 1.9.8 2.3 1 .4.2 1.5.3 1.7.7.3.4 1.1 1.2 1.1 1.2s1.2 1.1 1.5 1.4c.3.3.5 1 .2 1.2-.3.2-.4.9-.4 1.1 0 .2.2 1.1.2 1.2 0 .2-.7.6-.8.8-.2.2-.3 1.1-.4 1.3-.2.2-.4.9-1.1.8-.7 0-1.1.6-1.4.7-.3.2-.4.6-.8.5h-.4s-.3.1-.8.3c-.4.1-1 .3-1.4.3-.8.1-1.9 0-1.9 0s-.6.5-1.2.4c-.6 0-1.9-.1-1.9-.1s-.6.2-1.5.2-2.5-.4-2.5-.4-.8.1-1.5 0c-.7 0-1.6-.3-1.6-.3l-1.8-.1-1.6-.1-2.1-.1-1.5.3z" opacity=".33"/><path fill="none" d="M52.1 52.9s3.7-.8 5.3-.4c1.6.4 2.7-.2 4.6.1 1.9.3 5.2.6 5.6.2m-15.3 1.5s6-1.3 7.6-.8c1.6.5 5.7-.2 7-.3 1.3 0 5.8.9 7.8 1"/><path fill="none" d="M54.3 53.9s.4-.9 1.7-.9c1.3 0 3.9.5 3.9.5s.7.2 1.7.3m-5.3 6.3s.1-1 2.7-1.1c2.6-.1 2.9-1.1 2.9-1.1m-4.4 3.3s1-.1 2.7-1c1.7-.9 3-.7 4.4-1l1.3-.3m-5.6 3.6s1.4-.9 2.7-1.1c1.3-.2 2.4-.9 2.4-.9l2.3-.4"/><path fill="none" d="M66.3 62.4s-1.6-.5-1.9-.9c-.3-.4-2.2-.9-2.2-.9m-6.4.3s-2.2-.7 1.4-.9c3.6-.3 4.4-.7 4.4-.7m-3.5 2.5s.7-.2 2.4-.7c0 0 1.9.8 2.8 1.3.9.6 1.3.5 1.3.5m-12.8-3.8s4-.4 5.6-.7c1.6-.2 2.1-1.4 2.1-1.4m-8.5.1s1.4-1.1 4-.9c2.6.2 5-1.1 5-1.1m10.1-1.9c1.7-.2 2.7-1.1 4.5-1.2 1.4-.1 2.9.2 3-.8m-27.8 1.2c2.7-1.3 6.3-.9 10-.6 2.2.2 3.3-1.3 4.9-1.5 3-.1 6.5.7 9.1-.1"/><path fill="none" d="M50.7 50.3c2.7.2 5.4 1.2 7.9.3.8-.3 1-1.1 2.5-.9 2.7 1.1 2.8 3.5 2.4 5-5.1-.5-10.4-.3-14.8.5"/><path fill="none" d="M52.7 56.3s8.1-1.9 10.7-1.7c2.6.2 5.3-.3 7.3-.3s4.7-.6 6-.6c1.3 0 4.9.1 5-.3 0-.4.1-1 .1-1"/><path fill="#ECB61E" d="M71.8 56.9c.5-.1 1-.5 1.4-.9.4-.4.7-.9 1-1.4.8-1.3.6-3-.5-4.1-.4-.4-1.8-1.7-2.1-.6-.1.4 0 .8-.2 1.3s-.7.8-1.2.9c-.8.1-1.5.2-2.3.2-1.7.2-3.1-.7-4.7-.8-.6 0-.9.1-1.2.6-.3.5-.3 1.1-.1 1.8.1.4.1.5.2.9s1 .9 1.3 1.2c1.1.9 2.4.9 3.6 1 .8.1 1.6.2 2.4.2.4 0 .8-.1 1.2-.1.4-.2.8-.1 1.2-.2z"/><path fill="#FC3" d="M63.3 51.7v-1c.1-.4.7-.8.9-1 .6-.5 1.3-.4 1.9-.2.5.1 1.4.3 1.9 0 .6-.3.1-.5-.3-.7-.4-.2-.7-.5-1-.9.3-.1.7.2 1.1.2.4.1.8.1 1.2.2.8.3 1.8.5 2.3 1.3.5.8.2 1.8-.5 2.4-.6.5-1.6.2-2.3.3-1.6.2-3.2 0-4.8-.3-.4-.1-.8-.1-.9-.7 0-.4.3-1 .5-1.3.5-.7 1.5-.7 2.3-.7.5 0 .9.2 1.3.3"/><path fill="#BD8C2D" d="M70.3 56.1c1.3-.1 2.7-1.7 3.5-2.7-.2 1-1 1.6-1.7 2.2-.6.4-1.6 1.1-2.4.7.3-.2.6-.3.9-.4" opacity=".49"/><path fill="#BD8C2D" d="M68.3 56.3c.4-.3 1-.4 1.5-.5.5-.1 1-.4 1.5-.7 1-.5 2.4-1.3 2.2-2.7-.5.3-.7 1.1-1.1 1.5-.4.4-1 .7-1.5 1-.5.3-.9.6-1.4.8-.4.2-1 .2-1.4.5.1.1.1.1.2.1M63.2 55c.9-.2 1.8-.4 2.6-.6 1-.2 1.8-.8 2.7-1.2.9-.4 1.7-.8 2.6-1.1.4-.1 1-.5 1.2-1 .1-.4-.4-1.3-.7-1.5 0 .3.3.3.4.6.1.2 0 .5-.1.7-.2.5-.7 1.1-1.2 1.3-.5.2-.9.2-1.3.4-.5.2-.9.4-1.4.6-.9.2-1.8.2-2.7.4-.7.1-2.5.6-2.5 1.6.2.1.5 0 .7-.1" opacity=".49"/><path fill="#BD8C2D" d="M66.2 55.9c1 .1 2.3-.4 3.2-.8.5-.3 1.2-.6 1.6-1 .4-.4 1.1-1.2 1.6-1.4-.1.6-.9 1.1-1.4 1.5-.5.4-1.1.8-1.6 1.1-.5.3-1.1.5-1.7.6-.3 0-1.4.1-1.5 0m-3.9-1.6c-.1-.8 2.4-1.1 2.9-1.2 1-.2 2.1-.4 3-.9-.6-.2-1.2.2-1.8.3-.6.1-1.2.2-1.8.2-1.1 0-3.1-.1-2.9 1.8.3.2.5-.4.6-.7m7.5-4.1c.1.2 0 .5 0 .7.4-.1.4-1.3.1-1.6-.2.1 0 .8-.1 1.1m-4.3-.5c-.1.1-2.1.1-1.6.6.2.2 2-.2 2-.4m-2 1.5c.7-.4 1.6-.6 2.3-.7.4 0 .8 0 1.1-.2.5-.2.7-.8 1.2-1-.1 1.1-1.8 1.1-2.5 1.3-.5.2-.9.3-1.3.4-.2 0-1.5.6-1.1.1" opacity=".49"/><path fill="#BD8C2D" d="M65 51.8c.5-.7 1.9-.6 2.7-.8.5-.1.9-.4 1.3-.8.6-.5.5-.6.4-1.4.9 1-1.1 2-1.7 2.3-.9.4-2 .3-2.9.8m-1.4 1.6c.5-.1.9-.2 1.4-.3.4-.1 1.1-.3 1.5-.2-.1.4-1 .4-1.4.4-.5.1-1.1.4-1.6.3.1 0 .1-.1.1-.2m-1.5-.3c.2-.1.4-.4.6-.5.2-.1.4-.2.7-.2.4-.1.9-.2 1.4-.2.8-.1 1.9-.4 2.7-.3-.2.4-.9.2-1.2.3-.5 0-.9.1-1.4.2-.4.1-.9.1-1.3.2-.2 0-.5.1-.7.2-.3.1-.4.5-.7.5m-.2-.9c.2-1 1.8-.5 2.3-.6-.2-.3-.9-.2-1.2-.2-.4 0-1 .2-1.1.8" opacity=".49"/><path fill="#BD8C2D" d="M67.9 49.7c-.7-.2-1.5 0-2.2.2-.7.2-1.9.3-2.2 1.1.6.2 1.8-.3 2.4-.5.4-.1.8 0 1.2-.1.3-.1 1.1-.5.7-.8m-1.2 2.6c1.2.2 2.7-.5 3.5-1.5-.7 1.3-2.6 1.7-3.9 1.4m7.2.1c.5-.6-.1-1.9-.5-2.4.2.5 1.4 1.4 1.1 2-.1 0-.1 0-.2-.1-.1.3-.1.7-.4.7-.1 0 0-.1 0-.2m-4-.1c.7-.5 1-1.2 1.1-2.1.5.7-.6 1.7-.9 2.2m.8-.2c.5-.4 1-1.4.8-2 .3.9-.1 1.8-.9 2.2" opacity=".49"/><path fill="#FFDD32" d="M1.4 78.638c-2.5-12.4 1.3-18.5 3.4-26.3.9-11-12.7-15.9 4.1-33.4.8-1.6 1.6-3.1 3.2-4.1-.5 0-1.1.2-1.4-.5l.3-4.3 3.8-1.1c.7-3.6 1.5-7.5 2.2-8.6 2.2-.3 4.1-.1 5.9.2.5-.4 1.2 2.9 2 8.3l3.8 1.1c.6 1.7.4 3.2.3 4.8-.2.4-.9.4-1.5.5l1.7.5c1.2 1.2 2 2.9 2.9 4.4 13.7 14.7 2.2 21.6 2.9 32.2 1.1 8.6 6 14.3 2.6 26.4-.1 5.7-35 6.9-36.2-.1z"/><path fill="#649EDC" d="M2.4 27.538c11.4.8 23.2.5 35.1 0 2.1 4.8 1.6 8.8.3 12.6-12.2 1.1-24.4 2-36.1 0-1.5-3.7-2.1-7.9.7-12.6z"/><path fill="#FFF" d="M10.335 38.36H8.95v-4.658l-.83 4.66H7.107l-.923-4.66v4.66h-1.2v-8.345h2.03l.74 4.335.645-4.335h2.12v8.344zm3.968-1.407c0 .433-.184.867-.553 1.083-.37.217-.738.434-1.292.434s-.923-.11-1.292-.325c-.37-.217-.554-.65-.554-1.084V30.13h1.57v7.043c0 .11 0 .11.09.217.094 0 .094.108.186.108s.184 0 .184-.108c0 0 .093-.108.093-.217v-7.045h1.568v6.827zm3.877-.217c0 .542-.093.975-.37 1.192-.277.325-.738.433-1.476.433-.646 0-1.108-.213-1.385-.54a1.487 1.487 0 01-.37-.974v-1.95h1.382v1.95c0 .11 0 .11.093.217.092 0 .092.11.184.11.093 0 .185 0 .185-.11.092 0 .092-.107.092-.216v-.975c0-.217 0-.433-.092-.542-.277-.325-.462-.65-.738-.975-.462-.542-.74-.867-.74-.975a1.442 1.442 0 01-.368-.976v-.974c0-.542.092-.975.37-1.192.275-.325.737-.433 1.383-.433.553 0 1.015.11 1.292.434.276.216.37.65.37 1.083v1.41H16.61v-1.52c0-.11 0-.11-.092-.217 0 0-.092-.11-.184-.11-.093 0-.185 0-.185.11 0 0-.095.108-.095.216v.757c0 .216.092.54.277.757l.83.976c.37.434.554.65.646.868.184.325.276.65.276.975l.092 1.192zm3.598-5.636h-.83v7.26h-1.57V31.1h-.83v-1.083h3.322l-.092 1.084zm4.522 7.26h-1.57l-.276-2.274h-.738l-.277 2.275h-1.57l1.2-8.34h1.936l1.294 8.34zm-1.938-3.466l-.185-2.384-.184 2.492h.37zm5.998 3.466h-1.57a.908.908 0 01-.183-.54c0-.217-.092-.542-.092-.976v-2.06c0-.215 0-.324-.093-.324-.092 0-.184-.108-.37-.108v4.01h-1.568v-8.345h1.938c.554 0 .923.11 1.2.434.277.22.46.65.46 1.086v.976c0 .326 0 .54-.09.65-.093.326-.462.543-.83.65.368.11.645.326.83.543.09.217.184.433.184.65v2.492c0 .434.092.76.184.867zm-1.753-5.525v-1.41c0-.216 0-.324-.092-.324-.093 0-.185-.105-.37-.105v2.275h.277c.093 0 .185-.218.185-.434zm5.537 3.9c0 .434-.093.868-.37 1.193a1.62 1.62 0 01-1.2.542h-1.937v-8.344h1.938c.46 0 .923.108 1.2.433.276.322.37.65.37 1.19v4.984zm-1.57.11v-5.31c0-.217-.09-.326-.184-.434h-.276v6.18h.276c.185-.11.185-.217.185-.434z"/><g opacity=".2"><linearGradient id="b" x1="19.921" x2="19.896" y1="122.452" y2="103.149" gradientTransform="matrix(1 0 0 -1 0 130)" gradientUnits="userSpaceOnUse"><stop offset="0"/><stop offset="1" stop-opacity="0"/></linearGradient><path fill="url(#b)" d="M12 14.9c-1.5.7-8.6 11-9.5 12.6 11.8.9 23.3.6 34.8-.1-1.2-1.6-6.8-11.9-10.1-12.3-4.5.3-9.4.4-15.2-.2z"/><linearGradient id="c" x1="19.659" x2="19.659" y1="35.88" y2="80.001" gradientTransform="matrix(1 0 0 -1 0 130)" gradientUnits="userSpaceOnUse"><stop offset="0"/><stop offset="1" stop-opacity="0"/></linearGradient><path fill="url(#c)" d="M4.9 50.6c.7 2.1-6.9 14.3-3.4 28.5 4.1 6 33.8 5.8 36.1-.1 3.8-12.7-3.1-22.3-2.6-28.4-11.7-17.2-23.2-13.4-30.1 0z"/><linearGradient id="d" x1="19.459" x2="20.306" y1="110.299" y2="121.829" gradientTransform="matrix(1 0 0 -1 0 130)" gradientUnits="userSpaceOnUse"><stop offset="0"/><stop offset="1" stop-opacity="0"/></linearGradient><path fill="url(#d)" d="M11 10c6.1 1.2 12.2 1.2 18.1-.1l-.1 5c-5.9.8-12.7 1-18.1-.2L11 10z"/><linearGradient id="e" x1="20.587" x2="20.587" y1="119.441" y2="99.942" gradientTransform="matrix(1 0 0 -1 0 130)" gradientUnits="userSpaceOnUse"><stop offset="0"/><stop offset="1" stop-opacity="0"/></linearGradient><path fill="url(#e)" d="M4.8 36.8c4.3-5.5 2.1-14.6 14.8-15.3 13.3.9 11.3 10.7 16.8 16.1l-31.6-.8z"/><radialGradient id="f" cx="-49.286" cy="81.717" r="15.916" gradientTransform="matrix(1.29 .05513 .041 -.9595 79.353 137.002)" gradientUnits="userSpaceOnUse"><stop offset="0"/><stop offset="1" stop-opacity="0"/></radialGradient><path fill="url(#f)" d="M8.5 49.1c-1.3 9-7.6 23-3.4 27.5 2.9 4.6 27.1 4.1 29.2.2 4-4.2-1.2-17.5-2.7-27.3 2.2-19.9-24.9-20.4-23.1-.4z" opacity=".6"/><path d="M12.1 10.9l-.1 3c.3.8.7.6 1 .1l.2-3c-.3-.2-.6-.5-1.1-.1zm2 .2l-.1 3c.3.8.7.6 1 .1l.2-3c-.3-.2-.6-.5-1.1-.1zm2.6.2l-.1 3c.3.8.7.6 1 .1l.2-3c-.3-.2-.6-.5-1.1-.1zm2.4.1l-.1 3c.3.8.7.6 1 .1l.2-3c-.3-.2-.6-.5-1.1-.1zm2.7.1l-.1 3c.3.8.7.6 1 .1l.2-3c-.3-.2-.6-.5-1.1-.1zm2.4-.3l-.1 3c.3.8.7.6 1 .1l.2-3c-.3-.2-.6-.5-1.1-.1zm2.2-.2l-.1 3c.3.8.7.6 1 .1l.2-3c-.3-.2-.6-.5-1.1-.1zM14.9 9c3.5.4 6.1.3 9.9-.2-2.3 1.3-7.2 1.4-9.9.2z"/></g></svg>
