<svg xmlns="http://www.w3.org/2000/svg" version="1.0" viewBox="0 0 136.8 129"><switch><g><path fill="#998EC4" d="M0 104.4h135.3V129H0z"/><path fill="#DAD4E9" d="M0 0h136.4v97.5H0z"/><path fill="#E69643" d="M0 97.5h136.4v6.9H0z"/><linearGradient id="a" x1="49.954" x2="31.836" y1="67.839" y2="4.656" gradientUnits="userSpaceOnUse"><stop offset="0" stop-color="#fff"/><stop offset=".5" stop-color="#8dd5e7"/><stop offset="1" stop-color="#3298cb"/></linearGradient><path fill="url(#a)" d="M69.8 62.2l-58.1-1V10.4h58.1z"/><path fill="#F7D323" d="M47 14c0 4.6 4 8.6 8.9 8.6s8.9-3.7 8.9-8.3c0-1.4-.4-2.7-1-3.9H48c-.6 1.2-1 2.2-1 3.6z"/><path fill="#FFF" d="M27.5 40.1c-.2-1-1-1.5-1.7-.7-.9-1.6-2.6 0-3 1-1.1-.5-2.3-1.4-3.1-.1-1.2-1-3.4-.3-3.3 1.2 1.1.2 2.1.1 3.1.3 1 .2 1.4.9 2.7.2.6.7 1.4.8 1.9 0 1 .6 2.4.1 2.5-1 1.5 1.6 4.6-.4.8-.8"/><path fill="#FDFEFF" d="M11.7 10.4h1.7v50.2h-1.7z"/><g fill="#FDFEFF"><path d="M13.4 10.4l14 3V57l-14 3.6v-1.8l1.6-.4 11.3-2.6V14.7l-11.1-2-1.8-.3z"/><path d="M13.4 58.8V10.4h1.7l-.1 48zm6.5-45.2v43.7l1.7-.4v-43z"/><path d="M15.1 46.5l4.8-.7v1.8l-4.8.6zm6.5-.7l4.7-.7v1.3l-4.7.6zm-1.7-11.2v1.8c0 .1-4.8 0-4.8 0v-1.8h4.8zm1.7 0h4.6v1.8h-4.6zm-.3-10.9l.3 1.7h4.7v-1.6zm-6.2-.7h4.8v2.2l-4.8-.4zm11.2-8.3l-1.2.6-3.5-.6v-.8zm-6.4-1.1l-1.1.6-3.7-.9.2-.6z"/><path d="M25.1 15.3v8.5h1.2v-9.1zm-6.3-1.1l1.1-.6V23h-1.1zm0 11.2l1.1-.2v9.4h-1.1zm-.2 11h1.3v9.4h-1.1zm.2 20.1l1.1.8v-9.7l-1.2.1zm6.3-30.8v8.9h1.2v-9.2zm0 10.7h1.2V45h-1.2zm0 10.6v8l1.2.8v-9.4z"/><path d="M18.8 56.5l-3.7 1.1-.1.8 4.9-1.1zm6.3-1.5l1.2.7-4.7 1.2v-1.1z"/></g><g fill="#FDFEFF"><path d="M55.1 55.3l11.7 2.9V13.1l-10.5 2-1.2.2-1.3-.1v-2l13-2.8 1.4 50.8-14.4-3.9V55z"/><path d="M53.8 13.3h1.3v44.3l-1.3-.3zm14.4 47.9h1.6l.5-50.8h-3.5zM60 14.4v42.1l1 .8V14.2z"/><path d="M54.8 23.7l12-1v2.2l-12 .8zm-.3 10.9h12.3v1.8H54.5zm.6 10.5l4.9.7v1.9l-4.9-1zm11.7 1.3l-6-.4-.1 1.9 6.1.3z"/><path d="M55.1 15.3l-.3 8.4h1.4l.1-8.6zm5.9 7.9l1.2-.5V14l-1.2.2zm0 11.7l1.2-.5.1-9.2-1.3.1zm-5.8-9.2h1.6v8.7h-1.6zM60.8 46h1.4v-9.6H61zm-5.7-.9h1.1l.1-8.7h-1.2zm0 10.6l1.2-.7v-7.9l-1.2-.4zm5.7 1.2l1.5-.6V48l-1.6-.1z"/><path d="M62.3 56.3l4.5 1v.9l-5.3-1.7zm-6.3-.8l.3-.5 3.7.8v.7z"/></g><path fill="#FDFEFF" d="M69.8 61.8l3.5 1.5L9.8 63l1.9-1.8z"/><path fill="#FDFEFF" d="M6.9 62.7v2.5l68.8.7v-2.6z"/><path fill="#FDFEFF" d="M69.8 63.4l.5-53.6 2.5-5.1V64 4.7l2.9.2v58.4M6.9 63l2.9-.1.6-58.2H7.2z"/><path fill="#FDFEFF" d="M10.4 9.6l-.6 53 2.8-1.4.5-53.6zm0-4.9h62.4v2.8H10.4z"/><path fill="#FFF" d="M40.6 47.7c.2-1.6 1-2.5 1.7-1.1.9-2.6 2.5 0 3 1.7 1.1-.8 2.2-2.3 3.1-.1 1.1-1.7 3.3-.5 3.2 2-1 .4-2.1.2-3.1.5s-1.4 1.5-2.6.3c-.6 1.2-1.4 1.4-1.8 0-1 1-2.3.2-2.5-1.6-1.5 2.5-4.6-.6-.8-1.3m1.9-29.5c-.2-1-1-1.5-1.7-.7-.9-1.6-2.6 0-3 1-1.1-.5-2.3-1.4-3.1-.1-1.2-1-3.4-.3-3.3 1.2 1.1.2 2.1.1 3.1.3 1 .2 1.4.9 2.7.2.6.7 1.4.8 1.9 0 1 .6 2.4.1 2.5-1 1.5 1.6 4.6-.4.8-.8"/><path fill="#FDFEFF" d="M10.2 10.4l-.1-5.7h62.7l-2.5 5.7"/><path fill="#FFF" d="M99.3 89.1c0 1.9-1 3.5-2.1 3.5-1.2 0-2.2-1.6-2.2-3.5V58.7c0-1.9 1-3.5 2.1-3.5 1.2 0 2.1 1.6 2.1 3.5v30.4zm13.5.7c0 1.9-1 3.5-2.1 3.5-1.2 0-2.1-1.6-2.1-3.5V59.4c0-1.9 1-3.5 2.1-3.5 1.2 0 2.1 1.6 2.1 3.5v30.4z"/><path fill="#F8E17B" d="M136.8 127.4h-7V1.2h7z"/><path fill="#FFEB8B" stroke="#FFEB8B" d="M89 1.7v92.5l43.6 33.2V1.7H89z"/><path fill="#C6C6D2" d="M105.1 102.6l5.2 5.3H78.7l-4.8-5.1z" opacity=".54"/><path fill="#CBC4DB" d="M104.8 102.9v4.8l5.3-.1-5.3-5.3"/><path fill="#D0915D" stroke="#D0915D" stroke-width=".25" d="M73 102.1l5.2 5.7 4.2.4-5-5.6z"/><path fill="#BC753A" stroke="#E7A96C" stroke-width=".25" d="M77.4 102.6l4.7 5.5 4.4-.2-5.3-5.5z"/><g fill="#F37A20"><ellipse cx="106.4" cy="95" rx=".6" ry=".5"/><path d="M106 94.9c0 .2.2.4.4.4s.4-.2.4-.4-.2-.4-.4-.4-.4.2-.4.4z"/><path d="M106.2 94.9c0 .1.1.3.3.3.1 0 .3-.1.3-.3 0-.1-.1-.2-.3-.2-.2 0-.3.1-.3.2z"/></g><path fill="none" stroke="#F9AC5F" stroke-width=".25" d="M98.5 89.6l3.4 2.9"/><g fill="#F37A20"><ellipse cx="99.7" cy="93.3" rx=".6" ry=".5"/><path d="M99.3 93.3c0 .2.2.4.4.4s.4-.2.4-.4-.2-.4-.4-.4-.4.1-.4.4z"/><ellipse cx="99.7" cy="93.2" rx=".3" ry=".2"/></g><g fill="#F37A20"><path d="M99.4 88.1c0 .3.3.5.6.5s.6-.2.6-.5-.3-.5-.6-.5-.6.2-.6.5z"/><circle cx="100" cy="88.1" r=".4"/><path d="M99.7 88c0 .1.1.2.3.2.1 0 .3-.1.3-.2s-.1-.2-.3-.2c-.2 0-.3.1-.3.2z"/></g><path fill="#C5A58A" stroke="#C5A58A" stroke-width=".25" d="M104.8 90v10.7l3.5 3.5V93.3z"/><g fill="#F37A20"><path d="M105.6 100.2c0 .3.3.5.6.5s.6-.2.6-.5-.3-.5-.6-.5c-.3-.1-.6.2-.6.5z"/><path d="M105.8 100.1c0 .2.2.4.4.4s.4-.2.4-.4-.2-.4-.4-.4-.4.2-.4.4z"/><ellipse cx="106.2" cy="100.1" rx=".3" ry=".2"/></g><g fill="#F37A20"><ellipse cx="106.4" cy="95" rx=".6" ry=".5"/><path d="M106 94.9c0 .2.2.4.4.4s.4-.2.4-.4-.2-.4-.4-.4-.4.2-.4.4z"/><path d="M106.2 94.9c0 .1.1.3.3.3.1 0 .3-.1.3-.3 0-.1-.1-.2-.3-.2-.2 0-.3.1-.3.2z"/></g><ellipse cx="107.1" cy="82.9" fill="#7DC142" rx=".1" ry=".2"/><path fill="#C0BB91" stroke="#C0BB91" stroke-width=".25" d="M120.3 60.8s-2.8-3.8-3.1-1.3c-.7 6.6-1.6 23.5-1.6 23.5h3.5l1.2-22.2z"/><path fill="#D1CDAF" stroke="#D1CDAF" stroke-width=".25" d="M86.4 58.8s-2.7 1.3-3.1 9.3c-.4 8-.4 11.1 0 12.2.4 1.1 1.4 10.6 1.4 10.6l5.5 1.3s2.2-5.5 5.1-7.5c2.9-2 8.2-1.8 8.2-1.8h12.2s.8-11.8 1.4-16.2c.5-4.4.4-8 .4-8H86.4z"/><path fill="#AAA87A" d="M82.9 79H56s3.3 4.2 4.4 7.1c1.1 2.9 2 10 2 10h1.3s3.1-2.9 10.9-3.8c7.8-.9 10-1.3 10-1.3v-6.3c.1-1.4-1.7-5.7-1.7-5.7z"/><path fill="#D3CBA6" stroke="#D3CBA6" stroke-width=".25" d="M90.4 98.5s-25.3-2.4-26.6-2.4c-1.3 0 7.1-3.3 10.9-3.8 3.7-.4 10-1.3 10-1.3l4.1 1 1.8.3-.2 6.2z"/><path fill="#AAA87A" stroke="#AAA87A" stroke-width=".25" d="M90.6 116.4l-27-6 .2-14.4 26.6 2.5z"/><path fill="#A7A379" stroke="#A7A379" stroke-width=".25" d="M55.9 79.1l-1 2.1s2.9 1.8 4.4 9.7c1.6 8 1.8 18.4 1.8 18.4l2.5 1.1.2-14.4-2.7-13.1-5.2-3.8z"/><path fill="#83491F" d="M113.5 109.4v9.7h3.9V108z"/><path fill="#723B18" d="M110.8 110.4l1.3 6 1.4 2.7v-9.7z"/><path fill="#83491F" d="M97.4 115.4l-1.1 11.4h-2.8v-10.4z"/><path fill="#723B18" d="M66.2 111l-2.4 8.1h-2.5l-.2-9.8zm27.3 15.8l-2-3.3-.9-7.1h2.9z"/><path fill="#83491F" d="M69.3 111.7l-2.4 4.7-1.6 2.7h-1.5l2.4-8.1z"/><g fill="#5A3C17"><ellipse cx="105.2" cy="69.3" rx="1" ry=".9"/><path d="M105.6 69.2c-.3-1.3-.9-3.1-2.3-3.6 0 1.1.9 2.3.9 3.6.1 1.2-1 3.5-.9 4.7.9-.4 1.2-2.7 2.1-3.5 1.2-1.1 2.4.6 3.5.9-.4-1.4-2.5-2-3.6-2.8" opacity=".08"/></g><g fill="#5A3C17"><path d="M87.9 69c0 .5.4.9 1 .9.5 0 1-.4 1-.9s-.4-1-1-1-1 .5-1 1z"/><path d="M89.3 68.9c-.3-1.3-.9-3.1-2.3-3.6 0 1.1.9 2.3.9 3.6.1 1.2-1 3.5-.9 4.7.9-.4 1.2-2.7 2.1-3.5 1.2-1.1 2.4.6 3.5.9-.4-1.4-2.5-2-3.6-2.8" opacity=".08"/></g><g fill="#5A3C17"><ellipse cx="88.5" cy="83.7" rx="1" ry=".9"/><path d="M89 83.6c-.3-1.3-.9-3.1-2.3-3.6 0 1.1.9 2.3.9 3.6.1 1.2-1 3.5-.9 4.7.9-.4 1.2-2.7 2.1-3.5 1.2-1.1 2.4.6 3.5.9-.4-1.4-2.5-2-3.6-2.8" opacity=".08"/></g><g fill="#5A3C17"><ellipse cx="103.6" cy="85.5" rx="1" ry=".9"/><path d="M104.1 85.4c-.3-1.3-.9-3.1-2.3-3.6 0 1.1.9 2.3.9 3.6.1 1.2-1 3.5-.9 4.7.9-.4 1.2-2.7 2.1-3.5 1.2-1.1 2.4.6 3.5.9-.4-1.4-2.5-2-3.6-2.8" opacity=".08"/></g><g fill="#AAA87A"><circle cx="118.6" cy="68.2" r=".3"/><path d="M118.3 67.4c0 .2.2.4.4.4s.4-.2.4-.4-.2-.7-.4-.7-.4.5-.4.7z"/><path d="M117.8 68.1c.2.1.4 0 .5-.2.1-.2 0-.4-.2-.5-.2-.1-.7-.2-.8 0-.1.3.3.6.5.7zm.5.9c.1-.1.1-.4 0-.5-.1-.1-.4-.1-.5 0-.1.1-.4.6-.2.8.1.1.6-.1.7-.3zm1-.4c-.1-.2-.3-.2-.5-.1s-.2.4-.1.5c.1.2.6.5.7.4.2-.2 0-.7-.1-.8zm-.1-.9c-.2.1-.3.3-.2.5.1.2.3.3.5.2.2-.1.7-.4.6-.6-.2-.2-.7-.2-.9-.1z"/></g><g fill="#AAA87A"><path d="M117.5 78.8c0 .1.1.3.3.3.2 0 .3-.1.3-.3 0-.2-.1-.3-.3-.3-.2 0-.3.2-.3.3zm0-.7c0 .2.2.4.4.4s.4-.2.4-.4-.2-.7-.4-.7c-.3-.1-.4.5-.4.7zm-.6.7c.2.1.4 0 .5-.2.1-.2 0-.4-.2-.5-.2-.1-.7-.2-.8 0-.1.2.3.6.5.7zm.6.9c.1-.1.1-.4 0-.5-.2-.1-.4-.1-.5 0-.1.1-.4.6-.2.8 0 .1.5-.2.7-.3z"/><path d="M118.4 79.2c-.1-.2-.3-.2-.5-.1s-.2.3-.1.5.6.5.7.4c.2-.1 0-.6-.1-.8zm-.1-.9c-.2.1-.3.3-.2.5.1.2.3.3.5.2.2-.1.7-.4.6-.6-.1-.2-.7-.2-.9-.1z"/></g><path fill="#C0BB91" stroke="#C0BB91" stroke-width=".25" d="M117.4 108l-22.9 8.4s-.2-21.5 0-22.8c.2-1.3.7-5.1 3.8-6.9 3.1-1.8 6-3.8 6-3.8h14.8l-1.7 25.1z"/><path fill="#A7A379" stroke="#A7A379" stroke-width=".25" d="M117.4 82.9h-13.1l-2.7-.3 14 .3z"/><g fill="#AAA87A"><circle cx="113.7" cy="87.8" r=".5"/><path d="M113.2 86.4c0 .4.3.7.7.7.4 0 .7-.3.7-.7 0-.4-.3-1.3-.7-1.3-.4-.1-.7.9-.7 1.3zm-1 1.2c.3.2.7 0 .9-.3.2-.3 0-.7-.3-.9-.3-.2-1.3-.3-1.5 0-.2.4.5 1.1.9 1.2zm1 1.7c.3-.3.3-.7 0-1-.3-.3-.7-.2-1 0-.3.3-.7 1.2-.4 1.4.3.3 1.1-.1 1.4-.4zm1.8-.9c-.2-.3-.6-.4-.9-.2-.3.2-.4.6-.2.9.2.3 1 .9 1.3.7.3-.1 0-1.1-.2-1.4z"/><path d="M114.8 86.8c-.4.1-.6.5-.5.8.1.4.5.6.8.5.4-.1 1.2-.7 1.1-1 0-.4-1-.4-1.4-.3z"/></g><g fill="#AAA87A"><circle cx="109.5" cy="96.3" r=".5"/><path d="M109 94.9c0 .4.3.7.7.7.4 0 .7-.3.7-.7 0-.4-.3-1.3-.7-1.3-.4 0-.7.9-.7 1.3zm-1.1 1.3c.3.2.7 0 .9-.3.2-.3 0-.7-.3-.9-.3-.2-1.3-.3-1.5 0-.1.3.6 1 .9 1.2zm1.1 1.6c.3-.3.3-.7 0-1-.3-.3-.7-.3-1 0-.3.3-.7 1.2-.4 1.4.2.4 1.1-.1 1.4-.4zm1.7-.9c-.2-.3-.6-.4-.9-.2-.3.2-.4.6-.2.9.2.3 1 .9 1.3.7.3-.1 0-1-.2-1.4z"/><path d="M110.6 95.3c-.4.1-.6.5-.5.9.1.4.5.6.8.4.4-.1 1.2-.7 1.1-1-.1-.4-1.1-.4-1.4-.3z"/></g><g fill="#AAA87A"><circle cx="103.6" cy="89.2" r=".5"/><path d="M103.1 87.9c0 .4.3.7.7.7.4 0 .7-.3.7-.7 0-.4-.3-1.4-.7-1.4-.4 0-.7 1-.7 1.4zm-1.1 1.2c.3.2.7 0 .9-.3.2-.3 0-.7-.3-.9-.3-.2-1.3-.3-1.5 0-.1.4.6 1.1.9 1.2zm1.1 1.7c.3-.3.3-.7 0-1-.3-.3-.7-.3-1 0-.3.3-.7 1.2-.4 1.4.2.3 1.1-.2 1.4-.4zm1.7-.9c-.2-.3-.6-.4-.9-.2-.3.2-.4.6-.2.9.2.3 1 .9 1.3.7.4-.1 0-1.1-.2-1.4z"/><path d="M104.7 88.3c-.4.1-.6.5-.5.9.1.4.5.6.9.5.4-.1 1.2-.7 1.1-1-.2-.5-1.2-.5-1.5-.4z"/></g><g fill="#AAA87A"><circle cx="100.1" cy="98.6" r=".5"/><path d="M99.6 97.3c0 .4.3.7.7.7.4 0 .7-.3.7-.7 0-.4-.3-1.4-.7-1.4-.3 0-.7 1-.7 1.4zm-1 1.2c.3.2.7 0 .9-.3.2-.3 0-.7-.3-.9-.3-.2-1.3-.3-1.5 0-.2.4.6 1.1.9 1.2zm1 1.7c.3-.3.3-.7 0-1-.3-.3-.7-.3-1 0-.3.3-.7 1.2-.4 1.4.3.3 1.2-.2 1.4-.4zm1.8-.9c-.2-.3-.6-.4-.9-.2-.3.2-.4.6-.2.9.2.3 1 .9 1.3.7.3-.1 0-1.1-.2-1.4z"/><path d="M101.2 97.7c-.4.1-.6.5-.4.9.1.4.5.6.9.4.4-.1 1.2-.7 1.1-1-.2-.4-1.2-.4-1.6-.3z"/></g><g fill="#AAA87A"><circle cx="105.1" cy="105.3" r=".5"/><path d="M104.6 104c0 .4.3.7.7.7.4 0 .7-.3.7-.7 0-.4-.3-1.3-.7-1.3-.4-.1-.7.9-.7 1.3zm-1 1.2c.3.2.7 0 .9-.3.2-.3 0-.7-.3-.9-.3-.2-1.3-.3-1.5 0-.2.3.5 1 .9 1.2zm1 1.7c.3-.3.2-.7 0-1-.3-.3-.7-.2-1 0-.3.3-.7 1.2-.4 1.4.2.3 1.1-.2 1.4-.4zm1.8-.9c-.2-.3-.6-.4-.9-.2-.3.2-.4.6-.2.9.2.3 1 .9 1.3.7.3-.1 0-1.1-.2-1.4z"/><path d="M106.2 104.4c-.4.1-.6.5-.5.9.1.4.5.6.8.5.4-.1 1.2-.7 1.1-1 0-.5-1-.5-1.4-.4z"/></g><g fill="#AAA87A"><circle cx="114.2" cy="101.6" r=".5"/><path d="M113.7 100.2c0 .4.3.7.7.7.4 0 .7-.3.7-.7 0-.4-.3-1.4-.7-1.4-.4.1-.7 1-.7 1.4zm-1.1 1.3c.3.2.7 0 .9-.3.2-.3 0-.7-.3-.9-.3-.2-1.3-.3-1.5 0-.1.3.6 1 .9 1.2zm1.1 1.6c.3-.3.3-.7 0-1-.3-.3-.7-.2-1 0-.3.3-.7 1.2-.4 1.4.2.4 1.1-.1 1.4-.4zm1.7-.9c-.2-.3-.6-.4-.9-.2-.3.2-.4.6-.2.9.2.3 1 .9 1.3.7.3-.1 0-1-.2-1.4z"/><path d="M115.3 100.6c-.4.1-.6.5-.5.9.1.4.5.6.8.5.4-.1 1.2-.7 1.1-1-.1-.5-1.1-.5-1.4-.4z"/></g><g fill="#AAA87A"><circle cx="98.6" cy="109.6" r=".5"/><path d="M98.1 108.2c0 .4.3.7.7.7.4 0 .7-.3.7-.7 0-.4-.3-1.4-.7-1.4-.4 0-.7 1-.7 1.4zm-1.1 1.3c.3.2.7 0 .9-.3.2-.3 0-.7-.3-.9-.3-.2-1.3-.3-1.5 0-.2.3.6 1 .9 1.2zm1.1 1.6c.3-.3.2-.7 0-1-.3-.3-.7-.3-1 0-.3.3-.7 1.2-.4 1.4.2.4 1.1-.1 1.4-.4zm1.7-.9c-.2-.3-.6-.4-.9-.2-.3.2-.4.6-.2.9.2.3 1 .9 1.3.7.3-.1 0-1.1-.2-1.4z"/><path d="M99.6 108.6c-.4.1-.6.5-.5.9.1.4.5.6.9.4.4-.1 1.2-.7 1.1-1-.1-.4-1.1-.4-1.5-.3z"/></g><path fill="#A7A379" stroke="#A7A379" stroke-width=".25" d="M90.6 116.4h4V93.6s-.5-3.2 1.9-5.3c3.7-3.2 7.8-5.3 7.8-5.3s-3.1-.8-5.1 0c-2 .8-8.2 4-8.6 8.3-.5 4.3 0 25.1 0 25.1z"/><path fill="none" d="M80.047 44.816l9.783 5.654-3.953 6.84-9.783-5.654z"/><path fill="#FFCC05" stroke="#DCA927" d="M86.7 55.9l-6.4-3.6-.8 1.4-1.5-5.4 5.5-1.5-.9 1.4 6.4 3.7z"/></g></switch></svg>
