<svg xmlns="http://www.w3.org/2000/svg" version="1.0" viewBox="0 0 37.9 53.6"><switch><g><g fill="#CCCBCB" stroke="#989898" stroke-miterlimit="10" stroke-width=".25"><path d="M26.8 45.8c-.6-.4-1-1-1.4-1.5-.5-.6-1-1.2-1.6-1.6-1.4-1-3.4-1.6-5.1-2.1-3.4-1-7.3-2.3-10.7-4.4-6.4-4-8.5-11.2-5.3-18 1.6-3.4 4.6-6.7 7.7-8.6 2-1.2 4.1-1.6 6.1-2 .9-.2 1.8-.3 2.7-.6h.3c1.6-.4 3.6-1 4.8-2 .5-.4.7-.9.9-1.6.2-.6.4-1.3 1-1.8C27.4.5 28.9.1 30.6.6c2.8.8 5.4 3.6 6 5.8 1 3.3.3 7-1.8 9.5-1.4 1.7-3.3 2.5-5.2 3.3-.9.4-1.8.8-2.6 1.2-2.7 1.5-4.4 3.7-4.7 5.9-.2 1.6.5 3.2 2 4.7.6.6 1.3 1.2 2 1.7 2.3 1.7 4.8 3.7 4 7.3l-1.6-.4c.6-2.5-.9-3.7-3.4-5.7-.7-.6-1.5-1.1-2.2-1.8-1.9-1.8-2.7-3.9-2.5-6 .3-2.6 2.4-5.3 5.5-7.1.9-.5 1.8-.9 2.8-1.3 1.8-.8 3.5-1.5 4.6-2.9 1.7-2 2.3-5.3 1.5-8.1-.5-1.8-2.7-4.2-4.9-4.7-1.1-.3-2.1-.1-2.8.7-.3.4-.5.8-.6 1.3-.2.7-.5 1.6-1.3 2.3-1.5 1.2-3.7 1.8-5.4 2.3l-.2.1c-.9.3-1.9.4-2.8.6-2 .4-3.9.7-5.6 1.8-2.9 1.7-5.6 4.7-7.1 7.9-2.9 6-1 12.4 4.7 16 3.2 2 7 3.3 10.2 4.2 1.9.6 4 1.2 5.6 2.3.8.5 1.3 1.2 1.9 1.9.4.5.8 1 1.2 1.3l-1.1 1.1z"/><path d="M23.2 5.8c-.4-.1-.9-.3-1.4-.2-.2.9.7 1.7.9 2.5 1.6.2.6-1.6.4-2.3"/><path d="M21.7 6.2c-1.3-.7-1.6-.2-.9.9.2.2.6 1.2.9 1.3.6.2.8-.5.7-1"/></g><path fill="#CCCBCB" stroke="#676767" stroke-miterlimit="10" stroke-width=".25" d="M25.1 41.5c0-.9-.8-1.7-1.8-1.7s-1.8.7-1.8 1.7c0 .9.8 1.7 1.8 1.7s1.8-.8 1.8-1.7z"/><path fill="#CCCBCB" stroke="#676767" stroke-miterlimit="10" stroke-width=".25" d="M24 41.1v.9l-.7.4-.8-.4v-.9l.8-.4zm-.7-.4v-.8m.7 1.2l.8-.4m-2.3.4l-.7-.4M24 42l.7.6m-2.2-.6l-.7.5m1.5-.1v.8"/><path fill="#FFF" d="M23.9 41.2v.7l-.6.3-.6-.3v-.7l.6-.4zm-2-.5l.5.1.5-.3.3-.5v.6l-.7.4zm1.5-.6v.5l.6.4.5-.3-.4.1-.5-.3zm1.2.8l-.5.2v.8l.5.5-.2-.5v-.7zm-2.7-.1l.5.4v.7l-.6.4.4-.4v-.6zm.1 1.6l.5-.3.7.4v.5l-.2-.4-.5-.3zm1.4.1l.6-.4.5.4-.5-.1-.5.2-.2.5z"/><ellipse cx="26.1" cy="39.2" fill="#CCCBCB" stroke="#676767" stroke-miterlimit="10" stroke-width=".25" rx="1.8" ry="1.7"/><path fill="#CCCBCB" stroke="#676767" stroke-miterlimit="10" stroke-width=".25" d="M26.9 38.8v.9l-.8.4-.7-.4v-.9l.7-.4zm-.8-.4v-.8m.8 1.2l.8-.4m-2.3.4l-.8-.4m2.3 1.3l.6.6m-2.1-.6l-.7.5m1.4-.1v.8"/><path fill="#FFF" d="M26.7 38.9v.7l-.6.4-.6-.4v-.7l.6-.3zm-1.9-.5l.5.1.5-.3.2-.5.1.6-.7.4zm1.4-.6v.5l.7.4.5-.3-.4.1-.5-.2zm1.2.8l-.4.2v.9l.5.4-.3-.5.1-.7zm-2.7-.1l.6.4v.7l-.6.4.3-.4.1-.6zm.2 1.6l.4-.3.7.4v.6l-.1-.5-.6-.3zm1.3.1l.7-.4.5.5-.6-.2-.4.2-.2.5z"/><path fill="#CCCBCB" stroke="#676767" stroke-miterlimit="10" stroke-width=".25" d="M24.4 44.7c0-.9-.8-1.7-1.8-1.7s-1.8.7-1.8 1.7c0 .9.8 1.7 1.8 1.7 1-.1 1.8-.8 1.8-1.7z"/><path fill="#CCCBCB" stroke="#676767" stroke-miterlimit="10" stroke-width=".25" d="M23.4 44.2v.9l-.8.5-.8-.5v-.9l.8-.4zm-.8-.4V43m.8 1.2l.7-.4m-2.3.4l-.7-.4m2.3 1.3l.6.6m-2.2-.6l-.7.5m1.5 0v.7"/><path fill="#FFF" d="M23.2 44.3v.7l-.6.4-.6-.4v-.7l.6-.3zm-1.9-.5l.4.1.5-.2.3-.5v.5l-.6.4zm1.4-.6v.5l.7.4.4-.2h-.4l-.5-.2zm1.2.8l-.5.3v.8l.5.4-.2-.5v-.7zm-2.7 0l.5.3v.8l-.5.4.3-.5v-.6zm.1 1.6l.5-.4.7.4v.6l-.2-.5-.5-.3zm1.4 0l.6-.4.5.5-.5-.2-.5.2-.1.5z"/><path fill="#CCCBCB" stroke="#676767" stroke-miterlimit="10" stroke-width=".25" d="M25.2 47.7c0-.9-.8-1.7-1.8-1.7s-1.8.7-1.8 1.7c0 .9.8 1.7 1.8 1.7s1.8-.8 1.8-1.7z"/><path fill="#CCCBCB" stroke="#676767" stroke-miterlimit="10" stroke-width=".25" d="M24.1 47.3v.9l-.7.4-.8-.4v-.9l.8-.5zm-.7-.5v-.7m.7 1.2l.8-.4m-2.3.4l-.7-.4m2.2 1.3l.7.6m-2.2-.6l-.7.4m1.5 0v.8"/><path fill="#FFF" d="M24 47.4v.7l-.6.3-.6-.3v-.7l.6-.4zm-1.9-.5l.4.1.5-.3.3-.5v.6l-.7.4zm1.4-.6v.5l.6.4.5-.3-.4.1-.5-.3zm1.2.8l-.5.2v.8l.5.5-.2-.5v-.7zM22 47l.5.4v.7l-.5.4.3-.4v-.7zm.1 1.6l.5-.3.7.4v.5l-.2-.4-.5-.3zm1.4.1l.6-.4.5.4-.5-.1-.5.2-.1.5z"/><path fill="#CCCBCB" stroke="#676767" stroke-miterlimit="10" stroke-width=".25" d="M27.3 50.3c0-.9-.8-1.7-1.8-1.7s-1.8.7-1.8 1.7c0 .9.8 1.7 1.8 1.7s1.8-.8 1.8-1.7z"/><path fill="#CCCBCB" stroke="#676767" stroke-miterlimit="10" stroke-width=".25" d="M26.3 49.9v.9l-.8.4-.8-.4v-.9l.8-.5zm-.8-.5v-.7m.8 1.2l.8-.4m-2.4.4l-.7-.4m2.3 1.3l.6.6m-2.2-.6l-.7.4m1.5 0v.8"/><path fill="#FFF" d="M26.1 50v.7l-.6.3-.6-.3V50l.6-.4zm-1.9-.5l.5.1.4-.3.3-.5v.6l-.6.4zm1.4-.7v.6l.7.4.4-.3-.4.1-.5-.3zm1.2.9l-.5.2v.8l.5.5-.2-.5V50zm-2.7-.1l.5.3v.8l-.5.4.3-.4V50zm.1 1.6l.5-.3.7.4v.5l-.2-.4-.5-.3zm1.4.1l.6-.4.5.4-.5-.1-.5.2-.1.5z"/><ellipse cx="28.8" cy="51.2" fill="#CCCBCB" stroke="#676767" stroke-miterlimit="10" stroke-width=".25" rx="1.8" ry="1.7"/><path fill="#CCCBCB" stroke="#676767" stroke-miterlimit="10" stroke-width=".25" d="M29.6 50.8v.9l-.8.4-.8-.4v-.9l.8-.4zm-.8-.4v-.8m.8 1.2l.8-.4m-2.4.4l-.7-.4m2.3 1.3l.6.6m-2.2-.6l-.7.5m1.5-.1v.8"/><path fill="#FFF" d="M29.4 50.9v.7l-.6.4-.6-.4v-.7l.6-.3zm-1.9-.5l.5.1.5-.3.2-.5v.6l-.6.4zm1.4-.6v.5l.7.4.5-.3-.5.1-.5-.3zm1.2.8l-.5.2v.8l.6.5-.3-.5v-.7zm-2.7-.1l.5.4v.7l-.5.4.3-.4V51zm.1 1.6l.5-.3.7.4v.6l-.2-.5-.5-.3zm1.4.1l.6-.4.5.5-.5-.2-.5.2-.1.5z"/><path fill="#CCCBCB" stroke="#676767" stroke-miterlimit="10" stroke-width=".25" d="M33.8 50.5c0-.9-.8-1.7-1.8-1.7s-1.8.7-1.8 1.7c0 .9.8 1.7 1.8 1.7 1-.1 1.8-.8 1.8-1.7z"/><path fill="#CCCBCB" stroke="#676767" stroke-miterlimit="10" stroke-width=".25" d="M32.8 50v.9l-.8.5-.7-.5V50l.7-.4zm-.8-.4v-.8m.8 1.2l.8-.4m-2.3.4l-.8-.4m2.3 1.3l.6.6m-2.1-.6l-.7.5m1.4 0v.7"/><path fill="#FFF" d="M32.6 50.1v.7l-.6.4-.6-.4v-.7l.6-.3zm-1.9-.5l.5.1.5-.2.2-.5.1.6-.7.4zm1.4-.6v.5l.7.4.5-.2h-.4l-.5-.2zm1.3.8l-.5.3v.8l.5.5-.3-.6.1-.7zm-2.8 0l.6.3v.8l-.6.4.3-.5.1-.6zm.2 1.6l.4-.4.8.4v.6l-.2-.4-.6-.4zm1.3 0l.7-.4.5.5-.6-.2-.4.2-.2.5z"/><path fill="#CCCBCB" stroke="#676767" stroke-miterlimit="10" stroke-width=".25" d="M36.8 48.5c0-.9-.8-1.7-1.8-1.7s-1.8.7-1.8 1.7c0 .9.8 1.7 1.8 1.7s1.8-.7 1.8-1.7z"/><path fill="#CCCBCB" stroke="#676767" stroke-miterlimit="10" stroke-width=".25" d="M35.8 48.1v.9l-.8.4-.8-.4v-.9l.8-.4zm-.8-.4v-.8m.8 1.2l.8-.4m-2.4.4l-.7-.4m2.3 1.3l.6.6m-2.2-.6l-.7.5m1.5-.1v.8"/><path fill="#FFF" d="M35.6 48.2v.7l-.6.4-.6-.4v-.7l.6-.3zm-1.9-.5l.5.1.5-.3.2-.5v.6l-.6.4zm1.4-.6v.5l.7.4.5-.3-.5.1-.4-.2zm1.2.8l-.4.2-.1.8.6.5-.3-.5v-.7zm-2.7-.1l.6.4v.7l-.6.4.3-.4.1-.6zm.2 1.6l.4-.3.7.4v.6l-.2-.5-.5-.3zm1.3.1l.7-.4.5.5-.6-.2-.4.2-.2.5z"/><path fill="#CCCBCB" stroke="#676767" stroke-miterlimit="10" stroke-width=".25" d="M37.9 45.3c0-.9-.8-1.7-1.8-1.7s-1.8.7-1.8 1.7c0 .9.8 1.7 1.8 1.7s1.8-.8 1.8-1.7z"/><path fill="#CCCBCB" stroke="#676767" stroke-miterlimit="10" stroke-width=".25" d="M36.9 44.9v.9l-.8.4-.7-.4v-.9l.7-.5zm-.8-.5v-.7m.8 1.2l.8-.4m-2.3.4l-.8-.4m2.3 1.3l.6.6m-2.1-.6l-.7.4m1.4 0v.8"/><path fill="#FFF" d="M36.8 45v.7l-.6.3-.6-.3-.1-.7.7-.4zm-2-.5h.5l.5-.2.2-.5.1.6-.7.4zm1.5-.7l-.1.6.7.4.5-.3-.4.1-.5-.3zm1.2.9l-.5.2v.8l.5.5-.3-.5.1-.7zm-2.7-.1l.5.3v.8l-.6.4.4-.4V45zm.1 1.6l.4-.3.8.4v.5l-.2-.4-.6-.3zm1.3.1l.7-.4.5.4-.5-.1-.5.2-.2.5z"/><path fill="#CCCBCB" stroke="#676767" stroke-miterlimit="10" stroke-width=".25" d="M37.4 42c0-.9-.8-1.7-1.8-1.7s-1.8.7-1.8 1.7c0 .9.8 1.7 1.8 1.7 1.1 0 1.8-.8 1.8-1.7z"/><path fill="#CCCBCB" stroke="#676767" stroke-miterlimit="10" stroke-width=".25" d="M36.4 41.6v.9l-.7.4-.8-.4v-.9l.7-.5zm-.8-.5v-.7m.8 1.2l.8-.5m-2.3.5l-.7-.4m2.2 1.3l.6.6m-2.1-.6l-.7.4m1.5 0v.8"/><path fill="#FFF" d="M36.3 41.7v.7l-.6.3-.6-.3v-.7l.6-.4zm-2-.5h.5l.5-.2.3-.5v.6l-.7.4zm1.5-.7v.6l.6.4.5-.3-.4.1-.5-.3zm1.2.9l-.5.2v.8l.5.5-.2-.5v-.8zm-2.7-.1l.5.3v.8l-.6.4.4-.4v-.7zm.1 1.6l.5-.3.7.4v.5l-.2-.4-.6-.3zm1.4 0l.6-.3.5.4-.5-.1-.5.2-.2.5z"/><path fill="#CCCBCB" stroke="#676767" stroke-miterlimit="10" stroke-width=".25" d="M35.2 39.5c0-.9-.8-1.7-1.8-1.7s-1.8.7-1.8 1.7c0 .9.8 1.7 1.8 1.7 1-.1 1.8-.8 1.8-1.7z"/><path fill="#CCCBCB" stroke="#676767" stroke-miterlimit="10" stroke-width=".25" d="M34.1 39l.1.9-.8.5-.8-.5V39l.8-.4zm-.7-.4v-.8m.7 1.2l.8-.4m-2.3.4l-.7-.4m2.3 1.3l.6.6m-2.2-.6l-.7.5m1.5 0v.7"/><path fill="#FFF" d="M34 39.1v.7l-.6.4-.6-.4v-.7l.6-.3zm-1.9-.5l.4.1.5-.2.3-.5v.5l-.7.4zm1.4-.6v.5l.6.4.5-.2h-.4l-.5-.2zm1.2.8l-.5.3v.8l.5.4-.2-.5v-.7zm-2.7 0l.5.3v.8l-.5.4.3-.5v-.6zm.1 1.6l.5-.4.7.4v.6l-.2-.5-.5-.3zm1.4 0l.6-.4.5.5-.5-.2-.5.2-.1.5z"/><path fill="#CCCBCB" stroke="#676767" stroke-miterlimit="10" stroke-width=".25" d="M31.8 38.4c0-.9-.8-1.6-1.8-1.6s-1.8.7-1.8 1.6c0 .9.8 1.7 1.8 1.7s1.8-.7 1.8-1.7z"/><path fill="#CCCBCB" stroke="#676767" stroke-miterlimit="10" stroke-width=".25" d="M30.7 38v.9l-.7.4-.8-.4V38l.8-.4zm-.7-.4v-.8m.7 1.2l.8-.4m-2.3.4l-.7-.4m2.2 1.3l.6.6m-2.1-.6l-.7.5m1.5-.1v.8"/><path fill="#FFF" d="M30.6 38.1v.7l-.6.3-.6-.3v-.7l.6-.3zm-2-.5l.5.1.5-.3.3-.5v.6l-.7.4zm1.5-.6v.5l.6.4.5-.3-.4.1-.5-.3zm1.2.8l-.5.2v.8l.5.5-.2-.5v-.7zm-2.7-.1l.5.4v.7l-.6.4.4-.4v-.6zm.1 1.6l.5-.3.7.4v.6l-.2-.5-.6-.3zm1.4.1l.6-.4.5.5-.5-.2-.5.2-.2.5z"/><linearGradient id="a" x1="29.966" x2="21.739" y1="43.037" y2="64.655" gradientUnits="userSpaceOnUse"><stop offset="0" stop-color="#c36"/><stop offset="1" stop-color="#fff"/></linearGradient><ellipse cx="29.3" cy="44.8" fill="url(#a)" rx="6.3" ry="6"/><path fill="#CCCBCB" d="M29.4 51.2c-3.7 0-6.7-2.8-6.7-6.3s3-6.3 6.7-6.3 6.7 2.8 6.7 6.3c0 3.4-3 6.3-6.7 6.3zm0-12c-3.3 0-6 2.5-6 5.6 0 3.1 2.7 5.7 6 5.7s6-2.5 6-5.7c0-3-2.7-5.6-6-5.6z"/><path fill="#CCCBCB" d="M32.6 40l-.7 1.1.5.3 1-1zm-2.9-.8l-.1 1.3-.5.1-.2-1.4zm-4.4 1.6l.7 1.1-.2.3-1.1-.9zm-1.9 3.5l1.3.3.1.3-1.6.1zm1.2 4.4l1.8-.7.2.3-1 1.1m3.5 1.4l.3-2.2.4-.1.3 1.9zm4.9-2.1l-1.6-1.1.3-.4 1.8.6-.6 1.1m1.7-4.8l-1.7-.1-.1-.5 1.6-.4z"/><path fill="#FACBCB" d="M28.2 47.9l-1.7-1.5-.4-2.3 1.1-2 2.2-.8 2.1.8 1.2 2-.4 2.3-1.8 1.5z" opacity=".34"/><circle cx="17.4" cy="39.4" r="1.5" fill="#FFF" stroke="#CCCBCB" stroke-miterlimit="10" stroke-width=".25"/><circle cx="11.4" cy="37.4" r="1.5" fill="#FFF" stroke="#CCCBCB" stroke-miterlimit="10" stroke-width=".25"/><circle cx="5.7" cy="34.1" r="1.5" fill="#FFF" stroke="#CCCBCB" stroke-miterlimit="10" stroke-width=".25"/><circle cx="2.7" cy="29.7" r="1.5" fill="#FFF" stroke="#CCCBCB" stroke-miterlimit="10" stroke-width=".25"/><circle cx="26.3" cy="33.9" r="1.5" fill="#FFF" stroke="#CCCBCB" stroke-miterlimit="10" stroke-width=".25"/><circle cx="22" cy="29.9" r="1.5" fill="#FFF" stroke="#CCCBCB" stroke-miterlimit="10" stroke-width=".25"/><circle cx="21.6" cy="24.5" r="1.5" fill="#FFF" stroke="#CCCBCB" stroke-miterlimit="10" stroke-width=".25"/><circle cx="26" cy="19.8" r="1.5" fill="#FFF" stroke="#CCCBCB" stroke-miterlimit="10" stroke-width=".25"/><circle cx="1.5" cy="24.3" r="1.5" fill="#FFF" stroke="#CCCBCB" stroke-miterlimit="10" stroke-width=".25"/><circle cx="3" cy="18.6" r="1.5" fill="#FFF" stroke="#CCCBCB" stroke-miterlimit="10" stroke-width=".25"/><circle cx="6.6" cy="13.4" r="1.5" fill="#FFF" stroke="#CCCBCB" stroke-miterlimit="10" stroke-width=".25"/><circle cx="32" cy="17" r="1.5" fill="#FFF" stroke="#CCCBCB" stroke-miterlimit="10" stroke-width=".25"/><circle cx="35.7" cy="12.3" r="1.5" fill="#FFF" stroke="#CCCBCB" stroke-miterlimit="10" stroke-width=".25"/><circle cx="35.3" cy="5.9" r="1.5" fill="#FFF" stroke="#CCCBCB" stroke-miterlimit="10" stroke-width=".25"/><circle cx="12.4" cy="9.4" r="1.5" fill="#FFF" stroke="#CCCBCB" stroke-miterlimit="10" stroke-width=".25"/><circle cx="30" cy="1.5" r="1.5" fill="#FFF" stroke="#CCCBCB" stroke-miterlimit="10" stroke-width=".25"/></g></switch></svg>
