<svg xmlns="http://www.w3.org/2000/svg" version="1.0" viewBox="0 0 63.3 94.3"><switch><g><g fill="#D0E7C4" stroke="#669866" stroke-width=".25"><path d="M3.6 79.2c.1.1-.3-.2-.5-.2.1-.2.2-.4.3-.5 0 0-.2.5.2.7z"/><path d="M34.8 59.3c.6-1 1.2-2 1.8-3.1.6-.9 1.6-1.6 2-2.7-.5-.1-.6-.2-.7-.7 0-.2-.1-.5-.1-.6-.1-.1-.3-.2-.3-.3-.6-1.1 1.1-.9 1-1.7-.1 0-.3 0-.4.1V50c.3-.1.9-.2 1-.6-.2-.1-.8.2-.9.4-.4 0-.2-.4.2-.4-.1-.4.3-.2.4-.5 0-.3-.3-.2-.5-.1-.4-.5-.9-.3-.7.3-.2.1-.3.2-.5.2v-.2c-.6 0-.2.8-.3 1.1-.4 0-.2-.5-.6-.6.2-.3.6-.3.6-.6h-.6c0-.1 0-.2.1-.3.3 0 1-.4 1-.8-.2 0-.4.3-.6.3v-.1c-.2 0-.7.5-.8.7.1 0 .1.1.1.1-.3.5-1.2-.1-1.3.7-.4 0-.7.2-.9.5-.2.3-.5.9-.9.5-.2-.2-.3-.7-.4-.9-.3-.4-.4-.4-.4-.9 0-.3.3-.7.2-1.1-.1-.5-.4-.4-.7-.4-.8 0-1.3-.7-1.1-1.5.1-.3.4-.6.8-.6 0 0 1.1.4.6 0-.2-.1-.9-.1-1.1-.1-.2 0-.3 0-.5.1s-.1.4-.3.5c-.2.2-.3.1-.5.2-.1.1-.2.3-.3.4-.3.2-.6.4-.8.7-.5.5-.7 1.2-.7 1.9 0 .3-.1.6-.1 1 0 0-.2 1-.4 1.6-.2.5-.7 1.2-1 1.6-.3.4-.6.6-.8.6s-.9.1-.9.5.1 1-.1 1.6c-.1.6-.2.4-.3 1.1-.1.6-.1.6-.3 1.1-.2.5-.5.2-.5.9s-.1.7-.4 1.1c-.2.4-.3.5-.6.8-.2.3-1.1 1.3-1.1 1.3-.2.5-.7.4-1.1.6-.3.1-.3.3-.6.5-.2.2-.4.2-.6.5-.1.2-.2.5-.4.7-.4.5-.9.7-1.4 1.1-.4.3-.5.8-.9 1.2-.6.6-1.5.8-2.2 1.3-.6.4-1.2 1-1.7 1.5-.3.3-.6.3-1 .4-.2.1-1 .1-1.2.3-.2.2-.2.7-.4 1-.2.2-.5.6-.8.6 0 0 0 .4-.3.5l-.1.3c-.5.5-.7.6-.7 1.4h-.3c-.1.2-.2.4-.4.6-.1.1-.2.1-.3.2-.1.1-.1.3-.2.4-.5.4-.9.2-.6 1.1.1.1.4.7.1.7-.2.1-.2-.6-.3-.8-.7-.2-.8.1-1 .3-.2.2-.5.3-.4.6.2 0 .6.1.5.4-.2 0-.4-.1-.7-.1 0 .3.3.3.5.3.2.7-.6 0-.7 0-.1.4.3.4.3.7-.3 0-.4-.3-.6-.4 0 .2-.1.8.1.9.2.2.7 0 .9 0v.2c.4 0 .2.3-.1.3-.3 0-.5-.4-.7-.1.2.3.5.3.6.6.2.3-.1.8-.5.5.4-.2.1-.6-.1-.2-.3-.4-.4-1-1.1-.8-.3.5.3.5.5.8-.4.1-1-.1-1 .7 0 .7.7 0 1.1.1 0 .3-.6.5-.8.7.2.1.4.1.5.2-.1 0-.3.1-.3.3.2 0 1.3-.3.6.2-.2.1-.6.1-.8.1-.3.1-.4.2-.7.4-.2.1-.3.1-.5.3-.1.1 0 .7 0 .8.3.8.5-.3 1-.2.1.4-.3.5-.3.9.4 0 1.2-1 1.4-.5-.5.1-1.1.7-1 1.2.4.2 1 .2 1.4.4.3.1 1.2.2 1.5.1.9-.1.3-.9 1-.9.4 0 .9.3 1.2.5l.3.6c.1.2.8.2 1 .1.4-.1.6-.5 1.1-.1.6.5.2 1.4 1.2 1.6.5.1.7-.2 1.1-.3.5-.1.5.4.8.5.4.2.8-.1 1.1-.2.4-.1.8.1 1.1 0 .3-.1.5-.5.8-.6.4-.1.8-.1 1.1-.5.3-.4 0-.7.2-1.1.1-.3.5-.4.8-.5.4-.2.8-.4 1-.7.2-.4.2-.7.4-1.1.5-.9 1.4-.5 2-.9.9-.6-.4-.9-.4-1.5 0-.3.4-.7.6-.8.4-.3.4-.3.5-.9.1-.6 0-1.4.4-1.9.2-.3.4-.5.5-.7.2-.4.1-.7.2-1.1l.1-1.5c.3-.6.1-1.6.4-2.2.4-.8 1-1.2 1.7-1.7 1.2-.8 2.6-1.5 4-2 .3-.1.7-.2.9-.3-.4-.1-1.1.4-1.3.1-.5-.6.6-.6.9-.6.3 1 1.8 1 2.5.5.5-.4.4-.8-.2-1.1-.4-.2-1.1-.1-1.6-.1-.1-.2.2-.5.2-.8 0-.3-.1-.6 0-.9.1-.7.1-1.2.7-1.7.5-.4 1-.7 1.5-1.1.5-.4.7-.9 1.1-1.5l.5-1.2zm-25.2 31c-.1 0-.4 0-.5-.1-.1-.3.2-.2.3-.3.2-.2.3 0 .3-.3 0-.1-.3-.2-.3-.3-.3-.3-.4-.6-.8-.6-.3-.1-.9 0-1 .3-.1.4.3.4.4.6.2.4 0 .4-.1.7 0 .1-.1.5-.1.4 0 .3-.2.3-.3.4-.2.2-.4.5 0 .7-.3.2-.9.8-.2.9.5 0 .3-.2.4-.4.2-.3.1-.3.5-.4.2 0 .5.1.7 0 .2-.1.3-.3.5-.4.4-.2 1.1.1.9-.7 0-.2-.3-.6-.7-.5zm32.5-65.8c.3.5-.3.5-.4.9v.6c.1.2.3 0 .4.2.2.2.3.8.1.9-.3.2-.6-.3-1-.1.1.5.3.9 0 1.5-.2.4-.3.5-.3 1 0 .4 0 .9-.1 1.2-.1.7-.4 1.5-1 1.9-.7.5-1.5.2-2.2.7-.5.4-1.2.7-1.4 1.2l.1.7c0 .7.8 1.5 1.5 1.6h.6c.4.1.2.1.4.3.3.3.6.5.9.8.6.4 1.4.8 2 1 .9.3 1.3.8 1.6 1.7.5 1.3.4 3-.3 4.3-.2.3-.6.6-.8.9-.1.2.1.4 0 .6 0 .1-.3.2-.4.3-.3.3-.4.6-.6.9-.2.3-.9.4-.8.8.1.5.6.4.8.2.1-.1.1-.4.4-.3.3 0 .1.2.2.4.2.6.2.3.7.2.4-.1.8.2.9.5.1.3-.2.8.2 1 .3.2.8-.2 1-.3.6-.4 1.3-.8 1.8-1.3.6-.6 1.1-1 1.4-1.7.3-.7.8-1.3 1.2-2 .4-.8.7-1.3 1.5-1.9.6-.4.6-1.1 1.1-1.7l.5-.7c.1-.6.6-1.4.8-2 .1-.3.4-.7.4-1 0-.4-.3-.4-.5-.7-.9-1.4.7-2.9 1.8-3.4.6-.3 1.4-.2 2.1-.1.3.1.6.2.8.4.2.3-.1.8.2.9.2-.1.2-.4.3-.5.1-.2.4-.1.4-.5-.8-.2-.4-.6-.2-1.1.1-.6.1-1.1.2-1.7.4-.1.7.1 1-.3l.6-.4c.6-.5.5-1.4.7-2.2.1-.4-.1-.7-.1-1.1 0-.3.3-.7.4-.9.3-.5 1.2-1.3.6-1.8-.1-.1-.3-.1-.5-.2s-.2-.3-.4-.4c-.3-.2-.7-.3-1.1-.3-.4 0-.8 0-1 .2-.1.1-.2.3-.3.4-.1.1-.3.1-.5.2-.3.2-.4.4-.6.7-.3.3-.6.5-.9.8-.6.6-1.1.9-2 .5-.7-.3-1.7-.4-2.5-.8-.6-.2-1.1-.7-1.6-1-.5-.3-1.1-.9-1.7-1.1 0 .2-.1.3-.3.2-.2-.1-.1-.5-.2-.7v-.4c.2-.3-.2-1.1-.2-1.4-.1-.5.1-1 0-1.5-.3-.2-.1-.5-.2-.7 0-.1 0-.2-.1-.4-.2-.1-.2 0-.3 0-.4-.2-.3-.1-.1-.5.2-.3.2-.4.2-.8-.4 0-.3.6-.8.5-.2 0-.6-.6-.6-.8-.2-.5 0-.5-.6-.7-.1 0-.3-.3-.5-.2-.3.2 0 .4.1.5.1.1.3.1.4.3.1.2.1.4.1.6 0 .1.2.4.2.5 0 .3-.1.3-.2.5-.2.7.5 1.3.4 2.1-.1.7-.9.4-1.2-.1-.2-.3 0-.7-.1-.9-.2-.4-.4-.2-.5-.2-.2-.1-.5-.4-.7-.4-.2 0-.3.1-.3.1-.2 0-.2-.1-.3-.2-.5-.2-.8-.5-1.4-.5-.2-.4.1-.3.2-.5.1-.3 0-.4 0-.6 0-.2-.2-.4-.1-.7.1-.2.3-.3.3-.6.1-.3-.1-.3.1-.6.1-.3.4 0 .3-.5-.1-.4-.7-.7-.9-1.1l-.5-.5c-.4-.1-.4-.4-.5-.7 0-.2.1-.4 0-.5-.1-.2-.4 0-.5-.1-.3-.3 0-.7.4-.5.3.1.3.6.7.5.2-.6-.3-.6-.5-1.1-.1-.4.1-.2.2-.5.1-.4-.1-.2-.2-.5-.2-.3-.2-.6-.3-.8-.1-.2-.3-.3-.4-.5-.2-.4-.2-.8-.8-.9 0 .4-.3.5-.7.4v-.4c-.5-.2-.5-.7.1-.6 0-.3-.2-.3-.4-.4-.2-.1-.3-.2-.6-.4-.3-.3-.9-.7-1.1-.2l-.4-.6-.2-.1c-.4-.3-.8 0-.4.3-.3.2-.7-.1-.8-.4-.1-.3.3-.9-.3-.7-.1 0-.3.2-.3.3-.1.3.2.1.3.4 0 .7-.4.9-.8.8 0-.2.2-.4.2-.5 0-.4-.2-.2-.4-.4s-.2-.4-.3-.6c-.1-.2-.4-.2-.5-.4-.1-.2 0-.5-.1-.6-.2-.2-.6-.1-.7-.3-.1-.3.3-.4.4-.5.2-.3.2-.5.2-.8-.2 0-.3.1-.5.2-.2-.2-.5.1-.8.2-.2.1-.8-.1-.5.4.1.2.7.4.8.6.2.2.4.5.6.7.3.4 2.2 3.4.8 3.2 0 .4.4.5.6.8.2.3.4.7.6 1 .3.3.5.6.9.9.3.3.4.7.7 1.1.4.6.9 1.4 1.5 1.9.3.3.5.6.7 1 .2.3.1.8.3 1.1 0 .1 0 .1.1.2.3.1 1.1.3 1-.2-.1-.3-.7-.3-.9-.7-.3-.5.2-.6.5-.4.3.2.5.9 1 .4v.5l.1.5c.3.4.3-.2.5-.3 0 .2.1 1.5-.1 1.6-.3.2-.7-.9-1.2-.8 0 .4.2.6.4.9.2.3.2.6.4.9.2.3.4.5.6.8.1.2.2.7.4.9.4.4.5-.1.9-.3.5-.2.4.2.6.4.3.4.6.1.2.5-.2.2-.6.4-.8.3 0-.3-.1-.7-.5-.4-.3.2 0 .6.1.9.3.6.6 1.3.6 2l.5 1.8z"/></g></g></switch></svg>
