<svg xmlns="http://www.w3.org/2000/svg" xmlns:xlink="http://www.w3.org/1999/xlink" version="1.0" viewBox="0 0 82.3 81.7"><switch><g><symbol id="a" viewBox="-46.4 -43.7 92.8 93.5"><path fill="#CCCBCB" stroke="#3F4040" stroke-width="2" d="M45.4 3.1c0-25.3-20.3-45.7-45.4-45.7-25.1 0-45.4 20.5-45.4 45.7 0 25.3 20.3 45.7 45.4 45.7 25.1 0 45.4-20.4 45.4-45.7z"/><path fill="#D6D6D6" stroke="#151415" stroke-width="2" d="M43.6 3.3c0-24-19.3-43.4-43.2-43.4-23.9 0-43.2 19.4-43.2 43.4S-23.5 46.7.4 46.7c23.9 0 43.2-19.4 43.2-43.4z"/><path fill="#D6D6D6" stroke="#666" d="M-26.1-4.5c-.7-2.1 1.2-3.8 2.9-4.4 1.5-.5 3.7-1 5.3-1.1 1.9-.2 3.9-.5 1.8-2.8.4 0 .8-.5 1.4-.4.4-1.5-2.1-2.6-2.7-4.1-.7-1.7-.4-3.6-.7-5.3-.1-.8-.4-1.7-.6-2.5-.4-1.3-.3-1.1-1-2-1.2-1.6-3.5-2.3-3.9-4.3-.4-1.9 1.5-1.9 3.1-3 1.9-1.3 3.3-1.6 5.4-2.2 1.7-.5 2.9-1.2 4.8-1.5 1.8-.3 3.6-.5 5.3-.9 6.8-1.3 13.7-1.7 20.3 1 1.8.7 3.2 2 4.9 2.8 2.2.9 3.4 2 5.3 3.2 1.9 1.2 3.5.6 3 3.3-.3 1.9-1.5 3.5-2.1 5.3-.5 1.6-1.5 2.6-1.8 4-.3 1.9 1.3 2.3 2.6 3.5 1.8 1.7 1.8 2.3 0 4.2-.7.8-1.4 1-2.2 1.7-.3.2-.8.1-1.1.4-.3.2 0 .9-.3 1.2-1.2 1.4-1.9 2.2-2.2 4-.2 1.5 1 3.1 1.4 4.5.5 1.7.4 3 1.3 4.5 1.6 2.7 2.3 5.8 1.5 8.9-.2.8-1 1.6-1.2 2.3-.2.9.2 1.6.1 2.5-.2 1.7-1.4 3-2 4.6-1 2.5-2.1 3.8-2.4 6.5-.2 2.5-1.5 4.7-3.2 6.4-3.2 3.5-8.4 6.3-13.2 6.1-3.7 0-7.7-.7-11.1-2.2-2.7-1.3-6.1-3.2-7.5-6-.4-.7-.4-1.5-.6-2.2-.3-.8-.4-.9-.9-1.7-.9-1.5-1.5-3.1-2.5-4.6-1.4-2.1-3.1-3.6-2.9-6.4 0-.9.9-2 .6-2.9-.3-.9-1.9-1.7-2.5-2.4-1-1.1-4.4-4.5-4-5.9 1.5 0 .7.5 3.7-1.6 1.1-.8-.1-4.8-.1-6.1-.1-1.9-1.5-2.6-2-4.4z"/><path fill="#6B6B6B" d="M2 0C-.2-1.5-2-3.4-4.4-4.6c-1.1-.5-2.1-1-3.2-1.6-.5-.3-1.1 0-1.6-.4-.6-.5 0-1.2-1.1-1.6 2.1-3 14.9 6.9 13.6 9.5C2.8.8 2.6-.2 1.6-.4m-19.9 17.8c-1.2-2.6 2.2-6.4-.2-8.7-.5.9-.1 3-.3 4.2-.3 1.4-1.2 3.6-.1 4.8m21.5 7.9c1.8-.1 2.4-1.3 3.9-2 1.2-.5 3.3 0 3.6-1.7-2.6-.8-4.5 3-6.8 3.5M-.7 6c-.6-.9.7-2.2 1.6-2.5 1.2-.4 1.9.4 3 0 1.9-.7 3.4-4.4 6-1.9C9.5.6 8 .3 7 .5 5.4.9 5.1 2.4 3.7 3.1c-1.8.9-6.5-.9-5 3.1m26-18.5c-1.8-.4-1.1 1.3-1.3 2.4-.3 1.4-1.6 2.2-1.7 3.6 0-.4 2.6-3.1 3-3.4 1.4-1.2 3.3-1.7 3.7-3.9.3-1.5-2.5-4.2-4-3.9.8 1.6 3.1 1.3 3.3 3.8.1 2.5-2.4 2.5-3.5 4.4"/><path fill="#0A0A0A" d="M20.2.7c1.2.8 3.5 3.4 1.6 4.6 1.2-1.7 2.4-.5 2.7 1-1.1.4-1.2 2.9-1.6 3.9-.5 1.2-2.8 3.6-1.6 4.5 1.2-.3.7-1.3 1.1-2.1.4-1.1 1.2-2 1.6-2.9.3-.8-.4-2.1.7-2.4 1.8-.5.7 1.8.7 2.2-.2 1.8-.1 4.1-1 5.7-1.1 1.9-1.8 3.2-2.5 5.3-.7 2.2-1.8 4.4-3.3 6.1-.7.8-1.7 2-2.5 2.7-1.1.8-2.7.4-3.3 2.1 2.2 0 3.2-2.3 4.6-3.6.8-.7 1.7-1.4 2.5-2.3.3-.4.8-.4 1.1-.8.3-.5.1-1.2.4-1.7.6-1 1.5-1.4 1.8-2.5.2-1-.6-1.8-.2-2.9.8-2.4 3.4-3.3 3.3-6 0-1.8-.4-4.1-1.2-5.7-.6-1.3-1.6-1.9-2.2-2.9-.3-.5-.2-1.2-.6-1.7-.4-.6-.9-.5-1.3-.9-.8-.9-1.2-1.3-2.3-1.7-.9-.4-2.1-.1-2.9-.6-1.9-1.2-1.6-3.9-1.6-5.7-1 1.2-.5 4.9.4 6.1C16 .4 18.5-.6 20.2.7zM17-11.4c-.2-1.6.3-3 1.3-4.1.3 1.9-1.5 2.8-1.7 4.5"/><path fill="#FFF" d="M22 10c-.2 2.1-2.1 1-3.3 1.5-1.4.5-2.4 2.7-3.9 2.5 1.2-2.2 4.1-2.2 5.9-3.6" opacity=".34"/><path fill="#6B6B6B" d="M21 9.7c-.4 1.2-2.1 1.6-3.2 1.8.7-.9 2.3-1.1 3.2-2m-4.9-.4c-.9.4-1.6 1.1-2.5 1.6 0-.8.7-1.4 1.6-1.4m-5.1 1.5c-.2.8-.7 1.5-1 2.3 1.6.1 1.7-2.4 1.9-3.6M-6.9 23.6c.5-.2 1.8-1.3 1.3-2-.4.9-.9 1.6-1.6 2.4m3 2.5c1.2-.5 2.5-1.3 3.8-1 0 1.1-2.8 1.3-3.8 1.2m-3.9-13c1.6-1.4.6-4.9 3.3-5.2-2.7 1-1.5 3.5-3 4.9-.2 0-.3-.1-.3-.3m6.3-3c.8.2 1.6-.3 2.3-.6-.8-.1-1.6.2-2.3.8"/><path fill="#0A0A0A" d="M1.8 8.1C4.7 10 4 5.8 6.1 5.1c-.2.8-1.1 1.5-1.5 2.3-.7 1-.8 1.8-2.3 1.2"/><path fill="#6B6B6B" d="M6.4 11.7c1.2.1 1.8-1.1 2.9-1.3-.9-.7-2.4.3-2.7 1.3m4.9-3.9c2.6-1.3 5.2-2.4 5.9-5.4-.9 2.6-4.1 2.9-5.4 5m-.3-3.3c1.5-.6 1.1-3 2.6-3.8-.6 1.2-.8 3.5-2.5 4.1M6.9 4c2 .1 1.9-1.7 2.9-2.6.5 1.2-1.4 2.8-2.6 2.9"/><path fill="#0A0A0A" d="M5.7 17.7c.1-1.3 1-1 1.7-1.6.7-.6 1.3-1.4 2-2.1 1.6-1.5 2-2.7 3-4.5 1-1.8 2.1-2.5 4.2-2.4.8 0 3.8.2 4-.8-1.1.8-3.4 0-4.7 0-2 0-2.2 1.4-3 3-.8 1.5-1.5 3.8-3.1 4.7-.7.4-1.6.4-2.4.9-1.2.7-1.6 1.4-2.4 2.4"/><path fill="#6B6B6B" d="M-2.2 18.2c1.2.4 2-1.5 3.2-1.8 1-.3 3.2.5 3-1.3-.7.3-1.7.6-2.4.9-1.2.7-1.6 1.5-2.6 2.3m-3.9 13.6c.8.3 2.8 1.1 3.2.5-1-.2-1.8-.7-2.9-.5m10.4 7.6c1.1-.4 2.2-.2 3.3-.6 1.2-.4 2.3-1.2 3.5-1.5-.4.5-2.4.8-3.3 1.2-1.3.6-2.3 1.2-3.8 1m-20.1-8c.1 1.8 3.2 3.6 4.5 4.5 1 .7 2.2.9 3.2 1.6 1 .7 1.6 1.8 2.8 2.2-1.4.3-4.2-2.3-5.3-3.1-1.7-1.1-4.5-2.5-5.4-4.5m-.6-34C-15.9-.5-14.7 1-14 2c.9 1.4 1.7 1.6 3.1 2.4 1.5.9 2.4 1.8 3.3 3.3.4.7 1 1 .8 1.9-.3.8-1 1.2-1.8.8-.8-.4-1.6-3.1-2.1-3.8-.5-.9 0-.6-.9-1.3-.5-.3-1.4-.3-2-.8-.3-.2-1.3-.9-1.5-1-.8-.8-.4-.6-.7-1.7-.3-.9-2.2-2.8 0-3.1m27.2-1.2c.1-.5 1.3-3.4.6-3.2-1.1.2-.8 3.2-1.2 4.2m1.5 1.1c1.9-1 3.3-1.1 4.6 1.1-1.4-.8-2.7-.7-4.3-.7m-.9-2.2c1.4.2 1-2.1 1.3-3 .9.6.1 2.8-.9 3.1M4.7 33.2c1.2.3 1.9.2 3.1 0 1.4-.3 2.1 0 3.4 0 1.4 0 1.9-.9 3-1.5 1-.5 2.5-.4 3.1-1.4-1.5-1.3-4.1 1.7-5.6 2-.9.2-1.9-.1-2.7 0-1 .1-1.9.9-3 .7m7.5 1.5c2.1-.2 6-2.8 5.4-5.1-.9 2.4-3.7 3.3-5.7 4.6m-13.7-.2c.1 1.4 3 2.2 4.1 2.4-1.9-2.4-8.6-3.6-11.4-3.7m11.4 5.6h1.2-1.2"/><path fill="#6B6B6B" d="M-2.7 35c-1-.7-2.7-1.4-3.9-.7 1.5.4 3.1.8 4.6 1.3.4.1 5 1.9 4.9 1.6-.1-.8-1.5-.5-2.3-.8-1.1-.4-1.5-1.2-2.4-1.9-1.8-1.4-3.7-1.2-5.8-1.7 1.1-.1 2.6 0 3.6.6m-7.2-1.8c.3.2.5.7.7.9-.1.1-.2.2-.4.2.1.3.3.5.5.8-.3-.4-.5-1-.7-1.7m-1.9.1c.9 3.2 5.9 2.8 7.4 5.7-1.7-2-6.6-2.1-6.8-5"/><path fill="#0A0A0A" d="M-3.2 22c-.3.1-.3.2-.2.3.9-.1 1.8-.4 2.8-.5 1.8-.2 1.2-.2 2.5-1.4 1.4-1.3 4.7-.3 5.1-2.7-1.2 1.8-3.4 1.2-4.9 2.2-1 .6-1.4 1.1-2.6 1.4-1 .2-1.9 0-2.6.9m10.4 4c.9-.9 4.8-.6 4-2.6-1 .7-2.5 1.4-3.3 2.3"/><path fill="#6B6B6B" d="M8.1 28.5c.6-.2 1-.6 1.4-1.2-.4-.1-.7 0-1.1.1m8.2-6c.9-.7 1.4-.9 2.1-1.8.4-.6.5-1.2 1.3-1.4-.6.8-3 5-4.1 3.4m-.8-3.1c1.4 0 1.9-1.2 3-1.7-.2 1.4-2.3 2.3-3.6 2.1m.4 4.5c.4-.2.7-.3 1.2-.3-.6.2-1 .7-1.3 1.3-.2-.1-.3-.2-.2-.5m-9.7 6.6c.2 1 1.7.7 2.4.6-.5-.6-1.3-.4-2.1-.4m-8-.9c.7 0 1.5-.1 2-.4-.4-.2-.4.1-.8.2"/><path fill="#0A0A0A" d="M-.7 33.2c.9 1 2.8 1 4 1.5 1.3.5 3 2 4.4.9-.6-.6-2.5-.2-3.5-.5-1.1-.3-2.4-.9-3.4-1.5m-4.6 5c1.2 1.5 3.8.1 5.3 1.1-.8-.5-1.7-1.2-2.6-1.4-1-.2-1.8.2-2.8 0"/><path fill="#6B6B6B" d="M-5.6 36.6c.3.6 1.1.9 1.7.6-.3-.4-.5-.2-.9-.3m-4.8-4.8c0 .7 1.8 2.1 2.4 2.5-.2-1-1.5-1.2-2-2.2m10.5 8.5c-.2-.2-.2-.2 0 0 .4.3.4.2.9.3-.2-.3-.6-.4-1.1-.4m14.4-5.6c.5-.3 1-.7 1.2-1.3.2.7-.1 1.2-.9 1.2m4.4-50.6c-.1-.8.1-2.2-.6-2.6-.2.7 0 1.4.4 2m-3.9 9.4c.9 0 2.6-2.5 2-3.2-.5 1.1-.9 3.2-2.5 3.2m1.3 3.9c.2-1.1 2.1-2 1.5-3.1-.5.2-1 1.4-1.2 1.9-.2.7-.3.9 0 .9m3 1.7c.3.3.6-.3.8-.9.8.2 1.4 2.2 1.3 3.1-.5-.7-.5-2-1.8-1.7M8.3 6.9c.3-1.1 1.8-1 2.7-1.4-1-1.1-2.5.4-2.8 1.4m-12.6 3.2C-3.9 8-1.9 8-.9 6.8c-1.9-.4-3.4 1.6-3.5 3.5"/><path fill="#6B6B6B" d="M-5.8 25.7c-.2-2.1 4.4-1.5 5-2.8-.7-.4-1.3.1-1.6.9-1.3-.4-2.7.4-3.5 1.4m7.7-1.6c1-.4 2.1-1.7 3.2-1.5-.5-1-2.7 1-3.5 1.5m8.2 6.6c1 .1 3.7-.6 4-1.5-1.2.1-2.5.8-3.7.7m2.9-3.5c.4-.1.8-.5 1.1-.8-.3-.4-.4 0-.8.1m-.1-12c1.3.1 1.7-1.1 2.6-1.6 1-.5 2 .1 2.1-1.7-.5 1.9-3.1 1.6-4.5 2.8m8.7 3.6c.5-.9 2.5-1.6 2.2-2.5-1 .1-1.5 1.3-2.2 2M20 21c0-.9.5-2.4 0-2.9-.3.7-.7 1.5-.7 2.3m-1.9-37c.3-.2.6-.8.7-1.1-1 2.9-3.8 6.4-3.9 9.5m8.2-16.5c-.6 2.2-3.6 4.4-2.9 6.8 1.4-.8 2.1-2.8 3-4.1-.4 1.1-.9 2.3-1.7 3.2-.2-1.9 1.1-3.9 1.6-5.9zm2.1 7.7c-.9 1 .4 2.1 0 3-.5-1.2-.7-2.1-.6-3.3"/><path fill="#0A0A0A" d="M10.7 37.2c-.9.1-1.4.9-2 .5.7 0 1.2-.4 1.1-1.1.4-.1.9-.2 1.3-.1-.6.4-1.4.5-1.9 1l1.5-.6"/><path fill="#6B6B6B" d="M5.2 8.3c-.1.6-.3 1.1-.8 1.5.5-.1.6-.4.9-.9m.5 3.6c0 2.1-3.5.2-4.4 2 .9-.2 1.6-.1 2.4-.5.9-.4 1.2-1.4 2.3-1.3M-3.3 18c-.3-.7.5-1.2 1.1-1.1-.4.4-.8.4-1.2.5m1.8 13c1.3.5 2.8.7 4.2.9 1.2.2 3.2.2 4 1.1-1.7 1-2.9-.7-4.4-1.2-1.2-.4-3.1-.7-4.3-.6m18.1-16c1.3-.1 1.7-.8 2.6-1.7-.6.3-1.2.5-1.8.9m-4.5.7c1.2.5 3-.7 3.8-1.3-1-.3-2 .1-2.6 1m3 2.7c.1.1.3.2.4.3.3-.4.6-1 .9-1.5-.3.1-.7.3-.9.4m-2.4 5.8c.2-.3.6-.5.8-.7.1.7-.4 1.3-1.1 1.3m-3.9-2.3c1.8-.9 3.8-2.8 6-3.1-1.2-.7-5.2 1.3-6 2.3m-2.5 3.4c1.5.2 2.9-1 4.3-1-1-.4-2.2-.4-2.7.7m4.3 4.2c.4-.7 1.3-1.1 2.1-1.2-.5 1.1-1.6 1.5-2.7 1.4m6.3-2.4c-.1.3-.2.3-.3.1-.1-.7.4-1.4.6-1.8-.4.3-.8.7-.9 1.2m3.2-9.1c-.9-1.9.9-1.5 1.8-2.5-.2.1-1 .2-1.3.3.2-.3.1-.8.6-1.1-.6.1-1.3 2.1-1.4 2.9m3.7-46c-.9.7-1.4 3.1-1.9 4.1-.5 1.1-1 2.3-1.4 3.5-.5 1.4-1.6 3.5-1.3 5 .7-.5 1.8-1.7 2.1-2.5m-2 5.3c-.1.5 0 1.1.2 1.5.2-.3.4-.8.4-1.2m-.7 8c-.5 1.1.2 2.4 0 3.5.3-.7.9-2 .3-2.7m5.4-21.8c-.1 1.2.2 3.6-.6 4.5.5-1.4.7-2.3.7-3.9m.5-2.7c.9.3.9 1.6.8 2.2v-1.7"/><path fill="#BBBBBC" stroke="#838283" d="M-35.8 25.2l1.2 1.8.2-.7s2.3-1.8 2.8-2.1c.5-.2 1.1-.2 1.4.1.3.3.3 1 .3 1.2-.1.2-2.9 2.7-3.1 2.7h-.9l1 1.2.1-.8s3-1.9 3.4-2.6c.3-.6.3-1.7-.2-2.2-.5-.5-1.2-.8-1.8-.7-.6.1-3.2 2-3.3 2-.2.1-1.1.1-1.1.1zm5.6 7.4l1.3-.1s-1.6-.5-1.8-1.4c-.2-.9-.1-1.3.3-1.3s2.5 1.1 3.4.7c.9-.4 1.2-.8.8-1.7-.4-.8-1.3-1.8-1.3-1.8l-.9.5s1.4.6 1.5.9c.1.3.4 1.4.1 1.4-.3 0-.8.3-1.3 0s-1.9-.8-2.4-.7c-.5.1-1.1 1-1 1.3 0 .3.5.9.7 1.1.2.2.6.9.6.9v.2zm1.4 1.4l.7-.7s.5.8.8.9c.3.1 2.7-3.1 2.7-3.1v-.6h.3l1.5 1.1-.6.2-3 3s.3.5.4.7c.2.1 1 0 1 0l-1 .8-2.8-2.3zm56.1-1l.3 1.1 1.2-1.3-.8-.1-2.6-2.8.3-1.1.9-.3-.4-.6-2.4 2.3h.7zm3-1.6l1.3-1.2-.9-.3-3-2.6v-.9l-1.4 1.3h.6l3.2 3zm-2.2-5.8l.2.6h.6l3.1 2.4v.6h.5s1.4-1.8 1.6-2.3c.1-.5.4-1-.2-1.4-.7-.5-1.9-.3-1.9-.3s.1-1.1-.2-1.5c-.4-.3-1.2-.4-1.2-.4l-.8.3-1.7 2zm2.8-4.1s.7-1 .9-1.5c.1-.5.6-1.1.6-1.1h1.1s-.4.4-.6.5c-.3.1-.7 1-.7 1s.9 1 1.3 1 .7-.1.7-.4v-1l1.2.8s-.5 0-.6.2c-.1.2-.2.8-.2.8s1 1.2 1.4.9c.4-.4.7-2.2.7-2.2l.8.9s-1.3 2-1.4 2.3c-.1.3-.5.6-.5.6s-.2-.5-.4-.7c-.2-.2-3.1-1.9-3.1-1.9h-.9l-.3-.2z"/><path fill="#D6D6D6" stroke="#666" d="M29.3 25.2s0-.7.5-.9c.5-.2 1.2-.3 1.3 0 0 .3-.1.9 0 1.2.1.3-.3.8-.3.8l-1.5-1.1zm2.3 1.5s-.1-.3.3-.5 1.1-.1 1.2 0c.1.2 0 1 0 1.1 0 .1-.5.4-.5.4l-1-1z"/><path fill="#BBBBBC" stroke="#838283" d="M33.1 17.2s.6-1.4.6-1.5c0-.1.4.4.9.7.6.3 1.1.7 1.4.5.3-.2.6-.7.5-.9 0-.1-.1-.5-.6-.6-.4-.1-.9-.6-1.2-.9-.3-.2.2-1.2 0-1.4-.2-.2.3-.7.5-.7s.1.6 0 .7c-.1.1-.1.3.1.6s1 .7 1.1.8c.1.1.4.7.6.8.2.1.3 0 .7-.1.4-.1 1.2.3 1.3.4.1.1-.6 2.9-.7 3.3 0 .4-.4.5-.4.5s-.1-.3-.3-.5c-.2-.2-2.7-1.3-2.7-1.3s-.5-.3-.9-.3c-.3.1-.9-.1-.9-.1z"/><path fill="#D6D6D6" stroke="#666" d="M36.6 17.5s0-.6.6-1c.5-.4 1-.2 1.1-.2.1.1.4 1.2.2 1.4-.2.1-1 0-1 0l-.9-.2z"/><path fill="#BBBBBC" stroke="#838283" d="M35.2 11.6s.3-.6.4-.9c.1-.3 0-.8 0-.8s4.6 1.8 4.8 1.5c.2-.4.2-1.5.2-1.5l.7.5-1 3.4-1.1-.1s.8-1 .8-1.2c0-.1-4.8-.9-4.8-.9zm1-4.6V5.7s2.3.6 2.8.3c.5-.2 2.4-1.4 2.4-1.4l.6-.4v1.7l-.6-.3-2.1 1L41 7.8h.6l-.3 1.9-.4-.3V9l-2.4-2h-2.3zM39 .4l-.5.7h-.9l.5.7-.3.9.9-.3.7.6v-.9l.8-.6-.9-.2zm1.6-3.5s-.1-.4-.4-.4-.6-.1-.7.2c-.1.3.3.9.5 1 .3.1.9-.2 1.1-.5.2-.3.5-1 .2-1.6C41-5 40.9-6 40.2-6c-.7.1-1.4.4-1.7.6-.3.2-1 1.3-1.2 1.7-.1.3-.3.7-.5.7s-.3-1.2-.3-1.4c0-.2.4-.9.4-.9l-.4-.2-.9.5.4 3.4h.9s.4-1.4 1.3-2.2c.9-.8 1.6-1 1.9-1 .3.1.5.1.5.5.2.4 0 1.2 0 1.2zm-5.8-4.1s1.9 1.8 3.7.5C40.3-8 40.4-8.1 40.2-9c-.2-.9-.6-1.8-1.9-1.7-1.3.2-2.7.9-3.2 1.7-.5.9-.3 1.8-.3 1.8z"/><path fill="#0A0A0A" d="M.2 3.4C.1 3 .1 2.6.2 2.1c1.6-.3 3 .7 4.7.5-1.5-.8-3.1-.4-4.5-1.3-.8.5-1 1.2-.8 2.1"/><path fill="#FFF" d="M11.6 3.6c1.1-.5 2.3-.3 3.3.4-.7 1.5-2.9 1.5-3.7 3.2 2.4 0 4.9-2.7 7.8-3l.4-.8c2.2 1.7-3.6 4.3-4.9 5.1.5.1 1 .5 1.5.7-.2.3-.4 1.1-.7 1.4.5 1 1 1.2 2.2 1 .8-1.8 2.4-7.3 1.8-9.1-.2-.3-.5-.3-.7 0M.6 21.1c1.6-.4 3.5-.4 5-1.1 2-1 2.6-2.1 5.1-2.4C8.9 15.1 2 20.9-.5 21.3M20.2 13c.4 1.9-.4 2.7-1.9 3.8-.5.3-1.2-.1-1.7.3-.6.5-1 1.9-1.4 2.2-2 1.5-5.6 2.1-8.2 1.5 1.2 0 2.7 0 2.9 1.3-1.2.3-1.9.9-1.4 2 1.9-.1 2.2-2.4 3.8-3 1.8-.8 2.8.4 4.2-.9.6-.6 1.9-2.4 2.3-3 1.1-1.5 1.4-1.9 1.4-4.2M0 38.6c-1.7-2.3-5.1-2.4-7.1-3.9 1.4-2.1 6.6.4 8.5 1.3 1.7.8 2.3 1.1 3.7 2.5 1.1 1.2 1.2 2.3 3.2 2.1-.5 2.7-6-.4-7.9-.5-2-.1-2.4.8-4.4-.5-1.3-.9-2.6-2.2-2.8-3.8 1.7.3 5.8 6.3 6.6 2.4M-15.1-7.1c.6 1.7-.1 3.6.6 5.2.5 1.2 2.4 4.6 3.5 5.5-2.4.4-3.9-2.1-4.5-4.1-.8-2.3-1.5-4.4-2.2-6.6.6-.4 1.2-.6 1.9-.6m-4.3 19.1c-.8-1.3-2-1.9-3.8-1.7-.2-2.4-3.7-1.6-1.5 1.2 1 1.2 1.4.5 2.5 1.3 1.1.9 1.6 2.2 2.9 3 .2-.9.1-2.1.2-3.2m-4.3-15.7c.4-1.1.8-2.3 1.4-3.4-.9 1.4-1.8 2.9-1.1 4.5 1.2-.5 1.6-1.8 1.4-3.1" opacity=".34"/><path fill="#6B6B6B" d="M11.5-10.3c-5 0-11.4-3.2-15.8-5.3-5.5-2.6-11.2-6.5-14.1-12.1-.6 1.6.8 3.1 1.7 4.3-.3 0-.5.1-.7.2-.2 2.6 2.9 5.2 2.3 7.8-3.1-1.1-2.1-9.4-2.7-12.2 5 3.8 9.8 7.9 15.5 10.8 2.7 1.3 5.5 2.8 8.2 3.9 1.7.7 7 .2 7 2.1-1 .1-2 .1-3.1.1M-23.9 2.7c0 1.1-.1 2.2.1 3.3.9-.8.8-3 1.3-4.3-.4.1-.8.4-1.2.7m4.7-30.6c-1.3-2.2-3.3-3.6-2.1-6.2-1 .1-3.4 2.2-3.1 3.5.3 1.4 3.9 2.9 4.9 4 .1-.7 0-1.2-.3-1.8M10.1-2.5C9.4-1.7 9.8.1 9 .8c-.8.6-2.5.2-3.4.5-1.2.5-2.2 1.5-3.5 2-2.4.8-1.7-.1-3.3 1.9-.2.3 0 1.5-.3 1.9-.4.6-1.7.2-1.9.9-.6 1.9-.3 2 1.2 3 1.2.7 6.6 2.4 8 2.2 1.9-.3 1-1 2.5-1.7.9-.4 3 .3 3.7-.3.7-.6.3-2.6.5-3.5.7-2.3 1.7-1.6 2.9-2.8.8-.9 1.8-2.3 1.8-3.6-.1-2.5-1.1-1.3-1.9-2.9-1.1-2.2-2-5.5-1.5-7.7-1.2 1.4-1.7 3.6-2.9 5.2" opacity=".28"/><path fill="none" d="M13.1 11.1c4.4-2 1 5.4.3 6.6-.5.7-2 3.4-3.1 3.3-2.9-.1.3-2.7.9-3.2-1-.2-2.2.1-2.8-.8 2.4-.2 7.2-1.2 6.3-4.8-2.7.5-5.7 1.5-7.8 3.7-.6-1.4.5-2.7 2-2.7-.2-.3-.2-.7-.6-1.1 1.1 1 2.9.8 4.3.3"/><path fill="#FFF" d="M-4.9 26.8c1.4 1.6 4 2.3 6.1 2.2 1.1 0 2.1-.6 3.3-.5 1.4 0 2.1 1.8 3.3.3-1.7-1.1-3.9-2-6-1.9-2.4.1-4.1 1.7-6.6.8" opacity=".34"/></symbol><use width="92.8" height="93.5" x="-46.4" y="-43.7" overflow="visible" transform="matrix(.8575 0 0 -.8575 40.984 43.364)" xlink:href="#a"/></g></switch></svg>
