<svg xmlns="http://www.w3.org/2000/svg" version="1.0" viewBox="0 0 33.6 28.8"><switch><g><path fill="none" stroke="#006a9d" stroke-linecap="round" stroke-linejoin="round" stroke-miterlimit="10" d="M.2 16.9c0-.1.1.1 0 .1s-.2-.2-.2-.3c-.1-1 0-2.2.8-2.8.3-.2.8-.3 1.1-.5.6-.4.7-1.3 1.2-1.9.3-.5.9-.9 1.4-1.3.9-.6 1.8-1.2 2.6-1.8 1.1-.7 2.1-1.5 3.3-2 1-.4 2.3-.9 2.4-2 .1-.5-.1-1 .1-1.5.3-.9 1.6-.8 2.3-1.3.3-.2.4-.5.7-.7.4-.2.8-.1 1.2-.1.4-.1.8-.5.5-.9.9-.3 1.8.2 2.4 1s.9 1.7 1.1 2.6c.4 1.3.8 2.5 1.1 3.8.2.8.5 1.6 1 2.2.9 1 2.3 1.3 3.2 2.2.4.5.7 1.1.9 1.7.4 1.1.9 2.1 1.3 3.2.3.7.6 1.4 1.1 1.9 1 1 2.7 1.2 3.1 2.5.3.7 0 1.5-.2 2.3-.5 1.5-1 3.1-1.5 4.6 0 .1-.1.3.1.4s.1-.2 0-.2"/></g></switch></svg>
