<svg xmlns="http://www.w3.org/2000/svg" version="1.0" viewBox="0 0 45.2 36.9"><switch><g><path fill="#D0E7C4" stroke="#669866" stroke-width=".25" d="M29.6 35.7c1.5 1.7 3.7 1.3 5.1.1.8-.7.3-2 1.5-2.3 1-.2 1.5 1.2 2.5 1.3 6.5.7-1.9-7.2 3.2-7.9 1.4 2.5-.5 4.1.3 6 4 .6 4.5-11.4-3.2-9.7 1.4-1.4 5.5-2.3 5.7-4.2-.9-.8-2.1-1.4-2.4-2.4.3-3.2 2.3-9.3-.1-12 .8-1.3-.2-2.2-1.6-2.4.1.3 0 .6.3 1-.9 1.6-3.5-.4-5-.9-1.8-.5-3.3.2-5-.3l-2.5-2c-2.1-.1-4 1.1-6.2 1.5-2.6.4-3.9 2.5-3.9 2.5-1.1 1.1-2.2 2.2-2.9 3.6-1.6-.7-6.4-2.8-8-2.3.3 1.2.3 2 .3 3.2.7.4.9.9 1.7 1.2-.4.1-.6.1-1 0-.6 1.3 0 2.5 1.1 3.3-.4 1.1-.6 2.1-.9 3.2-1.7-2-2.8-6-5.4-6.6-1.8.7-2.5 2.4-3.1 4.3 2.6.6 3.2 4 4.2 5.9.9 1.6 2.1 5 4 5.3.2-1.3.3-2.5 1-3.7.7 1.4.7 3.3 1.9 4.3.5-1.6 2-1.9 3.5-2.2-.3-.5-.4-1.1-.9-1.6 1.5-4.4 6.1-1.5 6.2 2.1 0 .4-.3 2-.2 2.3 0 .2.8 2.1.8 1.9.1 1 .4 2.4.3 4 2.4.5 4.4 1.2 6.3 2.7-.1.6-.5 1.4-.8 1.8l3.2-1z"/><path fill="#69C8C9" d="M30.8 15c.1.8.6 1.6 1.1 2.3.4-.2 1.2-.1 1.7-.3.8 2.1-1.9 5.3-3.9 5.4-3 0-5.2-4.4-1-4l2.1-3.4z"/></g></switch></svg>
