<svg xmlns="http://www.w3.org/2000/svg" version="1.0" viewBox="0 0 12.9 19.8"><switch><g><radialGradient id="a" cx="-63.3" cy="7.157" r="170.371" gradientUnits="userSpaceOnUse"><stop offset="0" stop-color="#e9c298"/><stop offset="1" stop-color="#e8c4c7"/></radialGradient><path fill="url(#a)" d="M10.5 17.6c.5-.5 1.3-.4 1.6-1 .3-.4.4-1.7.5-2.2.1-.9-.3-.8-.6-1.6-.3-.7-1.3-3.2-1.6-3.9-.3-.7-.4-1.5-.6-2.2-.2-.7-.1-3.7-.2-4.5 0 0-3.4-4.5-6.4 0-.1.8 0 3.7-.2 4.4-.2.8-.3 1.5-.6 2.2-.2.7-1.3 3.2-1.6 3.9-.3.8-.7.8-.6 1.6 0 .5.2 1.8.5 2.2.3.5 1.1.5 1.6 1 0 0 1.9-.2 2.4.9s1.8 1.4 2.5.9c.8-.5.8-1.2 1.3-1.4.5-.1 2-.3 2-.3z"/><path fill="#923533" d="M4.8 17.4c.1-1-.1-1.4-1-1.6-1-.3-1.4.3-2.3.5 0 1.1 2.7.3 3.3.9m3 .1c-.1-1 .1-1.4 1-1.6 1-.3 1.4.3 2.3.5 0 1.1-2.7.3-3.3.9"/><path fill="none" stroke="#923533" stroke-width=".25" d="M3.2 2.1c-.1.9 0 3.8-.2 4.5-.2.8-.3 1.5-.6 2.2-.2.7-1.3 3.2-1.6 3.9-.3.8-.7.8-.6 1.6 0 .5.2 1.8.5 2.2.3.5 1.1.5 1.6 1 0 0 1.9-.2 2.4.9"/></g></switch></svg>
