<svg xmlns="http://www.w3.org/2000/svg" version="1.0" viewBox="0 0 220 129"><switch><g><path fill="#9CF" d="M.7 0H220v122.1H.7z"/><path fill="#00A19B" d="M.7 80.2H220V88H.7zm0 18.7H220v14.8H.7z"/><path fill="#D0DAEF" d="M.7 105.2H220V129H.7z"/><path fill="#B0B7A9" stroke="#767772" stroke-width=".25" d="M30.8 9.5c0 .4.4.7.9.7h15.1c.5 0 .9-.3.9-.7 0-.4-.4-.7-.9-.7H31.6c-.4.1-.8.4-.8.7z"/><path fill="#B0B7A9" stroke="#767772" stroke-width=".25" d="M30.8 56.9c0 .6.6 1.1 1.4 1.1.8 0 1.4-.5 1.4-1.1V10c0-.6-.6-1.1-1.4-1.1-.8 0-1.4.5-1.4 1.1v46.9z"/><path fill="#FFF" stroke="#949494" d="M46.1 9.5c3.5-.6 6.8 3.5 6.8 3.5H40.3s4.3-3.2 5.8-3.5zm2.2 16.9l4.5-3V13H40.3v9.2l5.2 4.2z" opacity=".59"/><path fill="#FFF" stroke="#A4A5A4" stroke-width=".25" d="M50.3 62.8s-.3-13.9 0-14.8c.3-.9 1.2-4.7.6-5.2-.6-.6-3.4-9.9-3.4-9.9v-4.7H46s2.8 11.5 3.2 13.3c.4 1.8.9 3.7.6 4.7s-.4 16.6-.4 16.6h.9z"/><path fill="#C9DBAE" stroke="#A4B786" stroke-width=".25" d="M47.6 5.7v1.9h-2.2V5.7s-.6-1 1.1-.9c1.5-.1 1.1.9 1.1.9z"/><path fill="#E3E4E2" stroke="#E3E4E2" d="M50.9 14.3h-9.7l2.1 7.4 2.8 3.4h1.8l3-1.9z" opacity=".44"/><path fill="#A4A5A4" stroke="#A4A5A4" d="M51.3 15.4s-.1 4.2-2.2 5.8c-2.1 1.6-5.5 1.4-5.5 1.4l2.1 3.2h1.7l3.8-3.2v-7.2z" opacity=".43"/><path fill="#C9DBAE" stroke="#A4B786" stroke-width=".25" d="M45.4 26.4h2.8v1.9h-2.8zm-.2-18.8H48v1.9h-2.8z"/><path d="M0 119.2l179.3.7-13.6-15.6L22 102.4z" opacity=".05"/><path fill="#65C7C9" d="M172.6 71.4s1.7 4.8-.2 4.8-4.3 1.4-4.3 1.4L65 78s-1.6-6-.8-6.5c.7-.6 108.4-.1 108.4-.1z"/><path fill="#C9C9C8" stroke="#AAA" d="M48.4 52.7v3c0 1.3 1.6 2.4 3.6 2.4h54.5c2 0 3.6-1.1 3.6-2.4v-3c0-1.3-1.6-2.4-3.6-2.4H52.1c-2 0-3.7 1-3.7 2.4zm.7.2c0-1.1 1.6-2 3.5-2h52.8c1.9 0 3.5.9 3.5 2v2.5c0 1.1-1.6 2-3.5 2H52.6c-1.9 0-3.5-.9-3.5-2v-2.5z"/><path fill="#99999A" stroke="#99999A" d="M62.9 107.7v1.3L57 122.1l3 .4 5.7-13.5v-1.3z"/><path fill="#7C7D7D" stroke="#7C7D7D" d="M57 122.1l-.8 3.4h3.6l.2-3z"/><path fill="#7C7D7D" stroke="#7C7D7D" d="M65.7 109v2.1l-6.1 14.4.4-3.4z"/><path fill="#99999A" stroke="#99999A" d="M149.6 72.1l-77.2 35.4 1.9 1.5 76.6-35.2z"/><path fill="#C9AE90" d="M164.1 73.3L178.4 85l1.4-23.5v-7.8s1.2-2.9-1.4-2.9c-2.5 0-3.9 2.1-6.3 1.6s-4-3.6-4-3.6l-2.3-1.2-1.7 25.7z"/><path fill="#AC9077" d="M167.6 47.7h-1.9s1.9.7 2.5 1.6c.6.9 2.2 2.5 2.7 2.8.6.3 2.3.5 2.3.5s.1-.4-1.2-1-1.1-.7-1.6-1.1c-.5-.3-1.4-1.3-1.6-1.7-.1-.5-1.2-1.1-1.2-1.1zm11.8 3.4s1-.6 1.9.7c1 1.3-1 33.3-1 33.3h-1.9l1.4-31.3.3-1.5-.7-1.2z"/><path fill="#C9AE90" d="M8.9 85.7l24.5-11.9-3.5-22.5s-.1-.7-2.1-.8c-2-.1-4.3 4-8.3 4.6-4 .6-10.1-1.8-11.6-1.3-1.5.4-2.5.2-2.8 2.2-.3 2 3.8 29.7 3.8 29.7z"/><path fill="#AC9077" d="M6.9 85.7h1.9S4.9 57.2 5 56.3c.2-1 2-2.3 2-2.3s-.1-.3-1.9 0C.9 54.7 7 85.4 7 85.4m20.5-34.9v-.2c-2.3-.4-3.3 1.6-4.8 2.6-1.7 1.1-3.4 1.7-5.4 2.1 1.2.8 4.1-.6 5-1.2.9-.6 1.8-1.1 2.6-1.8.7-.6 1.4-1.3 2.4-1.6"/><path fill="#C9C9C8" stroke="#AAA" d="M40.5 77.2l-1.7-23.3s-.7-2.7 3.2-2.7c2.3 0 4.2 2 4.1 2.6-.1.6.6 7.9.6 7.9l1.7.2-.7-7.5s-.9-4.3-5.7-4.3c-2.3 0-4.2 1.8-4.7 2.5-.3.5 1.7 24.6 1.7 24.6h1.5z"/><path fill="#FFF" stroke="#EFEFEF" d="M33.4 58.6l-14.2 5 23.7 7.6 27.3 6H168c.9 0 4-1.2 3.2-2.7-.8-1.5-6-5.8-7-6.2-1-.3-3.4-.6-3.4-.6l-83 .4S50 62.4 46.9 61.7c-6.1-1.5-12.2-3.5-13.5-3.1z"/><path fill="#FFF" stroke="#EFEFEF" d="M33.4 52.8l-14.2 5 23.7 7.6 27.3 6H168c.9 0 4-1.2 3.2-2.7-.8-1.6-6-5.8-7-6.2-1-.3-3.4-.6-3.4-.6l-83 .4S50 56.6 46.9 55.9c-6.1-1.5-12.2-3.5-13.5-3.1z"/><path fill="#FFF" stroke="#EFEFEF" d="M171.1 68.7s3.2 5.8-.7 7.6c-3.8 1.7-97.4 1.5-100.2.9-2.9-.6-50.9-13.6-50.9-13.6s-2.8-4.8 0-5.8 14.2-5 14.2-5 44.4 9.2 48.2 9.4c3.8.2 80.9 0 82.6.3 1.4.2 6.8 6.2 6.8 6.2z"/><path fill="#C9C9C8" stroke="#AAA" d="M122.4 67.5l-.9-15.4s-.4-3.7-5.7-3.4c-5.2.3-4.9 2.9-5 3.8-.1.9-.7 9.1-.7 9.1s-.4 1.8-2.6 1.9c-2.1.1-53.1-.5-53.1-.5l.9.9 5.1.6 46.2.1s1.7 0 3.5-1.1 1.9-10.4 2.2-11.8c.3-1.4 1.8-1.9 3.2-1.8 1.5.1 4 1.2 4.2 2.3.2 1.1 1.2 15.3 1.2 15.3h1.5z"/><path fill="#C9C9C8" stroke="#AAA" d="M99 51h.6v6.4H99zM20.6 66.5v3.6c0 1.6 2.1 2.9 4.7 2.9h70.4c2.6 0 4.7-1.3 4.7-2.9v-3.6c0-1.6-2.1-2.9-4.7-2.9H25.3c-2.6 0-4.7 1.3-4.7 2.9zm.9.3c0-1.3 2-2.4 4.5-2.4h68.2c2.5 0 4.5 1.1 4.5 2.4v3c0 1.3-2 2.4-4.5 2.4H26c-2.5 0-4.5-1.1-4.5-2.4v-3z"/><path fill="#C9C9C8" stroke="#AAA" d="M85.9 64.4h.7v7.7h-.7z"/><path fill="#AAA" stroke="#99999A" d="M178.4 77.2l-163.5.6v2.9l163.5-1.3z"/><path fill="#C9C9C8" stroke="#AAA" d="M70.2 77.2s-36.6-8.1-40-8.9c-3.4-.8-7.1-1.8-8.7-1.9-1.6-.1-2.2-2.8-2.2-2.8s-.9 1.3-.9 2.1 43 11.5 43 11.5h8.8z"/><path fill="#7C7B7B" stroke="#616161" d="M119.4 85.3c0 1 1.1 1.8 2.4 1.8 1.3 0 2.4-.8 2.4-1.8V78c0-1-1.1-1.8-2.4-1.8-1.3 0-2.4.8-2.4 1.8v7.3z"/><path fill="#99999A" stroke="#99999A" d="M79.3 82.3l58.6 26.7 1.1-2-54.5-24.7z"/><path fill="#C9C9C8" stroke="#AAA" d="M55.4 81.9l78.9 36.6h5.7L60.5 81.7z"/><path fill="#AAA" stroke="#AAA" d="M141.5 118.5H140L60.5 81.7h2.1z"/><path fill="#C9C9C8" stroke="#AAA" d="M143.6 106h-85l-10.4 11.9-1.9-.1 11.2-12.7h87.4l4.9 13.4h-2.1z"/><path fill="#99999A" stroke="#99999A" d="M46.3 118.2h103.5v2H46.3z"/><path fill="#C9C9C8" stroke="#AAA" d="M48.7 117.1l-.5.8h99.3l-.4-.8z"/><path fill="#99999A" stroke="#99999A" d="M143.3 107.7H62v-.8h-3l-.4-.9h85z"/><path fill="#99999A" stroke="#99999A" d="M59 106.9L51.2 117l-2.5.1 9.9-11.1z"/><path fill="#C9C9C8" stroke="#AAA" d="M115.2 91.5l31.9 25.6h-2.8l-29.1-23.3z"/><path fill="#99999A" stroke="#99999A" d="M72.4 107.7l-4.1 8.5 2-1.1 4-6.1z"/><ellipse cx="146.8" cy="125.9" fill="#828283" stroke="#828283" rx="4" ry="2.9"/><ellipse cx="146.7" cy="126.4" fill="#565656" stroke="#565656" rx="2.8" ry="1.8"/><path fill="#7C7D7D" stroke="#7C7D7D" d="M45.7 118.5h2.5v2.2h-2.5z"/><path fill="#C9C9C8" stroke="#AAA" d="M48.6 120.3c1.3-.4 1 2.3.8 2.7-.2.4-.5.3-.7 0-.2-.3-.3-.5-.7-.6-.7-.2-1.4.2-1.6.8-.1.2-.1.5-.1.7 0 .2.1.5.1.7-.1.3-.5.2-.7 0-.1-.2 0-.6 0-.8 0-.6 0-1.1-.1-1.6 0-.5.1-.9 0-1.4.7.1 1.4 0 2.1 0h.4c.3 0 .2 0 .2-.2 0-.1-.1-.3 0-.4.1-.1.4 0 .5 0"/><path fill="#565656" stroke="#565656" d="M47.1 126.5c-.8-.1-1.4-1-1.1-1.5.1-.1.3-.3.3-.4.1-.3 0-.7-.1-1-.1-.4 0-.8.5-1 .3-.1 1-.3 1.3-.3.9.1.8 1.4.8 1.9s-.2 1.3-.4 1.8c-.3.6-.6.6-1.3.5z"/><path fill="#C9C9C8" stroke="#AAA" d="M148.9 79.6L66.4 117h5.8l82.5-37.4z"/><path fill="#C2C1C3" stroke="#C2C1C3" d="M148.3 120.1h2.6v2h-2.6z"/><path fill="#CDCCCB" stroke="#CDCCCB" d="M150.9 122.1v3.4s-1.1-.5-1.3 0c-.2.5.1 2.7-2.4 2.3-2.5-.4-3-1.6-2.9-1.9.1-.3 1.8-1 1.8-1l2.3-2.9h2.5z"/><path fill="#C2C1C3" stroke="#C2C1C3" d="M141.5 122.5l2 1.3 2.2.5.6 1.8s1.6.7 1.9.4c.3-.3 0-4 0-4h-6.7z"/><path fill="#C9C9C8" stroke="#AAA" d="M13.8 81.7H16S8.8 66.8 8.8 66.2c0-.5 1.5-3.2 4.8-3.1 3.3.1 4.6 1.2 4.7 2.6.1 1.4.2 9.6.9 11.5.6 1.9.2 3.6 3.1 4 2.9.4 75.4 1.3 75.4 1.3s2.3-1 4-2.1c1.7-1.2 1.2-14.8 1.2-14.8s2.6-3.4 5.2-3.2c2.6.2 4.8 2.9 4.8 2.9v38.3h2.1V65.5s-3-4.2-6.3-4.3c-3.3-.1-6.4 1.2-7.1 3.3-.7 2.1-1 14.1-1 14.1s-.1 1.5-1.9 1.7c-1.7.2-74.4 0-75.3-.1-.8-.1-2.3-1.5-2.6-2-.3-.5-1.2-11.9-1.2-11.9s-2.1-5-6.8-5c-4.7 0-5.9 3.8-5.5 5.7.7 1.7 6.5 14.7 6.5 14.7z"/><linearGradient id="a" x1="-9758.403" x2="-9722.319" y1="-6595.467" y2="-6595.467" gradientTransform="matrix(.6777 -.467 .5675 .8234 10386.928 933.346)" gradientUnits="userSpaceOnUse"><stop offset="0" stop-color="#746046"/><stop offset=".973" stop-color="#9f552b"/></linearGradient><path fill="url(#a)" d="M46.4 39.1s5.4 3.1 6.5 4.3c1.1 1.2 2.6 3.7 4.3 5 .5.4 1.9 1.1 2.2 1.6.4.7.4 2.1-1.5 4-1.8 1.8-4.2 3-5.6 3.8-2 1.1-13.2 4.6-16 5.3-1.2.3-2.1-.1-2.4-.3-2-1.2-2.1-.7-2.6-1.5s-1-.9-1-.9c.9-.5 1-6.6 3.3-9.5 2.3-2.9 3.8-7.5 6.3-8.9 2.7-1.5 6.5-2.9 6.5-2.9z"/><path fill="#030305" d="M53.8 46.6c.3.3.4.7.1.9-.3.2-.8.2-1.2-.1-.3-.3-.4-.7 0-.9.3-.3.8-.2 1.1.1z"/><path fill="#F7F6F5" d="M42.6 38.4s-5.6.4-7.3 1.3c-1.7.9-3.7 3.7-3.8 3.8 0 .1.3-.1.4-.2.1-.1 2.4-2.7 2.7-3 .3-.3.6-.5.7-.6.1-.1.6-.1 1-.1s1 0 1.3.1c.3 0 .8.1 1.1.1.2 0 .5 0 1.1-.3.7-.2 2.8-1.1 2.8-1.1z" opacity=".14"/><path fill="#FFF" stroke="#050606" stroke-width=".405" d="M45.7 41.3s.5.6-2.4 1.1c-2.9.6-4.8 1.4-4.8 1.4s3.2-.2 4.2-.4c.9-.2 2.8-.1 3.7-1 .8-.7-.7-1.1-.7-1.1zm-21.1 9.6c2.3.1 7.4-1.1 9.1-2.7-1-.5-3.7.6-4.9 1.1-1.6.7-3.2 1.1-4.8 1.7m5.4-6.8c1.5.1 6.4-2.4 4.3-2.5-.8-.1-2.4 1.2-3.2 1.5-1 .4-2.4.7-3.5.9 1.1-.1 2.1.1 3.1 0" opacity=".13"/><path fill="#050606" stroke="#050606" stroke-width=".405" d="M57.7 48.8c-.5.2-.9.5-1.2.8.4.2.4 1.3 1 1.5-1 1.6-3.7 2.8-2.3 4.7 3-2 5.5-3.6 3.2-6.5m-28.5.1c3.7-2.7 7.7.6 4.9 1.9-.5-.9-1.4-2.1-2.9-2.3"/><linearGradient id="b" x1="-9556.11" x2="-9554.901" y1="-6513.679" y2="-6513.679" gradientTransform="matrix(.81 -.5585 .5676 .8233 11494.962 73.837)" gradientUnits="userSpaceOnUse"><stop offset="0" stop-color="#746046"/><stop offset=".973" stop-color="#9f552b"/></linearGradient><path fill="url(#b)" d="M55.7 47.2c1.6-.4 2.2.8 2.1 1.7"/><path fill="#050606" stroke="#050606" stroke-width=".405" d="M46.4 40.3c.8 1 2.3 1.3.4 2.5-1.1.7-2.4.9-3.3 1.8-1 .9-2 2.1-1 3.1.2.2.6 0 .8.1.3.4 0 .5-.1.9-.1.6-.5 1.4-.1 2 .4.5 1.2.6 1.9.6s1.4-.6 1.9-.6c1.3.1 1 2.2 1 2.9 0 .4.5 1.2.2 1.5-.2.2-2.2.5-2.5.4-.7-.2-.8-.9-1.4-1.2-.7-.3-1.6-.2-2.4 0 .2.3.4.7.8.9.7.5.7.2 1.1.9.3.5.1.7.8 1 1 .4 1.1-.1 1.6.8 1.1 2.1-2.8 2.8-4.7 3.6-2.4 1-3.7 2-6.6 1.9-1.1-.1-2 0-2.9-.7-.8-.5-1.8-1.4-2.2-2.1-.4-.8-.2-1.7-.7-2.5-.5-.8-1.8-1.3-2.5-2-.8-.8-.8-1.5-.7-2.5.1-1.2 1-1.9 1.3-3 .4-1.4-.7-1.4-1.5-2.3-.9-1 .3-2.1 1.2-2.9.9-.9 1.8-1.3 2.8-2 1.3-.9 1.3-1.6 1.9-2.8.7-1.3 2.7-2.4 4.5-3 .7-.2 1.9-.2 2.6-.5.8-.4 1-1 1.8-1.5.6-.3 1.5-.8 2.3-.8.4 0 .9.1 1.1.3.4.4-.3.6-.1.9.5.9 1 .3 2.2.3 1 .1 1.6.8 2.5 1-.1.5-.7 1-.5 1.5.7 0 5.5.2 3.3 1.5-.7.4-4.1-1-3.7.4-.1.1-.2 0-.3-.1"/><path fill="#050606" stroke="#050606" stroke-width=".405" d="M42.2 50.5c.1-1.5.1-1.6 1.5-2.5 2-1.2.7-.7 0-2-1.5-2.5 3.9-2.6 5.4-3.7-.8-.8-.9-1.6-.4-2.4.3-.6.9 0 .8-1 0-.6-.8-.6-.9-1-.3-1.2.5-1.7-1.2-2.4-1.6-.7-2.4-.2-3.9.5-1.6-1.2-1.1-2.7-4.2-1.8-1 .3-1.5.8-2.1 1.4-.9.9-1.1 1.2-2.7 1.5-2.1.5-4.2.8-5.9 1.9-1.4.9-3.4 3.3-.9 3.9-1.9 1.4-4.3 1.3-4.6 3.7 0 .3.4.7.3 1.1-.1.5-.7 1.1-.8 1.7-.1 1.5 1.2 1 2.8 1.1.2 1.3-4 4.4.1 4.8-2.6 2.6 1 2.7 2.4 4.2.9.9-.4 1.6.2 2.7.5 1.1 1.7 1.1 2.9.5.8.8.8 1.5 2.4 1.5.5 0 1.4-.5 1.7-.5.7 0 1.1.5 1.8.5.8-.1 2.7-1.4 3.2-1.9 1.4-1.3-.6-1.8.2-2.8 1.6.2 2.6 1.2 4.2.7 1.2-.4 2.7-1.9 1.6-2.7-.5-.4-1.2 0-1.8-.6-.4-.4-.6-1-.3-1.5.8-1.3 2.1.1 2.5.9.8-.8.1-.9-.2-1.4-.1-.1-.5-.2-.7-.5-.2-.4.2-.9 0-1.3-.4-.9-2.2-2.1-3.3-2.6"/><path fill="#050606" stroke="#050606" stroke-width=".405" d="M43 51.8c1.4-.9 4 0 4.2-1.8.1-1.1-.7-.6-1.5-1.3-1.1-.9 0-.7.4-1.5.8-1.5-2-2 .7-3.2.1 0 .2-.4.5-.5.4-.1.8.5 1.3.1.6-.4 0-1.6-.4-1.9-.9-1-3.8-.4-4.9.6-.1.1 0 .7-.1.9-.2.3-.8.5-1.1.8-.6.7-1.2 1.6-1 2.4.2.7 1 .9.7 1.6-.4.9-1.5.8-2.2 1.4-2.1 2 2.3 2.3 3.6 2.9m-16.4-2c-3.9 0-11.5 6.1-7.2 6.7.8.1 3-.3 3.4.3.3.5-.7 1.7-.7 2.3 0 2.5 3.1.3 4.8.8.4 1.5-1.1 2.5 1.6 2.1 1.6-.2 3.5-.6 4.2-1.7"/><path fill="#050606" stroke="#050606" stroke-width=".405" d="M26.2 51.6c-4-2.5-6.2-3.8-1-7.2-.3-8.1 13.8-10.2 13.8-5"/><path fill="#050606" stroke="#050606" stroke-width=".405" d="M24.3 54c-2.4 1-4.5.3-5.4-1.5-1.5-2.8.9-1.9 2.1-3.6.8-.1 1.6-.3 2.4-.6 1-1 0-1.6.5-2.7 1-1.7 2.5-2.2 1.3-4.3"/><linearGradient id="c" x1="9890.887" x2="9893.321" y1="-6514.075" y2="-6514.075" gradientTransform="scale(-1 1) rotate(34.583 -5622.2 -19211.673)" gradientUnits="userSpaceOnUse"><stop offset="0" stop-color="#746046"/><stop offset=".973" stop-color="#9f552b"/></linearGradient><path fill="url(#c)" stroke="#643D17" stroke-width=".25" d="M55.8 47.2c.8-.9 2.2.8 1.9 1.4-.1.3-.8.7-1.3.8-.3 0-.6.1-.8-.1-.2-.2-.2-.6 0-.7"/><path fill="#E6EDF7" d="M58.7 56.8c2.7.8 4.1 2.1 3.9 4.4-7 .9-12.7 4.6-20.7 1.9.8-4.6 4-1.4 7.3-3 3.1-1.5 5.5-2.1 8.6-4.6"/><path fill="#6EC9D0" d="M164.5 62.4c-5.9.4-12.2-.5-18.2-.6-6.3-.2-12.8 0-19.1.3-12.7.4-25.5-.3-38.1.2-2.8.1-6.1.5-8.9.2-4.3-.5-5.2-3.4-9-.6-2.5 1.8-3.3 4.7-4.8 7-1.4 2.1-5.1 5-3.8 7.7 1.8 3.8 15 1 19 .9 8.3-.2 13.6 0 20.2.3 7.9.4 15.5-.3 23.3-.3 7.4 0 15-.6 22.4-.3 6.3.2 15.9 1.5 22.1 0 4.2-1 3.1-4.9 2.3-7.8-.5-2.1-2-2.8-3.8-4.2-1.4-1.1-2-2-3.4-3.1"/><path fill="#6EC9D0" d="M71.5 58.3c6.8.3 13.9-1.7 20.7-1.9 7.5-.3 19.6-1.3 26.9-.2 6.7.9 15.4 3.3 22.2 3.7 3.7.2 14.5 1.5 3.4 7.9-5.4 3.1-9.8.8-16.1 1.2-7.3.5-13.3-2.7-20.5-3.5-6.8-.8-22.1 1.5-29.1 1.6-7.2.2-9.5 2.4-16.8 2.3.2-4.2 8.7-8 8.9-11.8"/><path fill="#FFF" stroke="#EFEFEF" d="M62.9 57.3c-.3 6.4-4.6 3.5-6.6 7.5-1.7 3.4-1.8 8.5-1.8 12 14.6 9 9.9-12.4 20.8-14.4.9-8.9-9.3-8.2-13.3-3.3"/><linearGradient id="d" x1="-8035.821" x2="-8025.006" y1="-7691.51" y2="-7691.51" gradientTransform="matrix(.7146 -.6765 .6875 .7262 11102.6 218.348)" gradientUnits="userSpaceOnUse"><stop offset="0" stop-color="#746046"/><stop offset=".973" stop-color="#9f552b"/></linearGradient><path fill="url(#d)" d="M73.3 63.9s.4-1.6 1.8-1.3c1.3.3 2.3.5 2.6-.1.3-.6.5-1.7.9-1.2s2.4.2 1.5 1.2c-.9 1-2 1.5-2 1.5l-.3.2s.7.8 1.2.5c.6-.3.4-1 .8-1.1.4-.1.9.4 1 .8 0 .4.3 1-.5 1.3-.8.4-1.9.9-2.1 1.5-.2.6-.6 1.2-1 1.6-.3.3-1.6.6-2.1.4-.6-.2-1.4-.3-2.1-.6-.7-.3-1.7-.8-1.7-.8s.9-1.6 1-2l.3-1.2.7-.7z"/><linearGradient id="e" x1="-8050.101" x2="-8031.679" y1="-7703.842" y2="-7703.842" gradientTransform="matrix(.7146 -.6765 .6875 .7262 11102.6 218.348)" gradientUnits="userSpaceOnUse"><stop offset="0" stop-color="#746046"/><stop offset=".973" stop-color="#9f552b"/></linearGradient><path fill="url(#e)" d="M45.8 61.2c.3-.5 1.2-1.5 1.2-1.5s5.9.7 8.1 1.3c2.2.6 6.1 1.7 6.5 2 .3.3 6.3 1.3 8.2 1.4 1.8 0 2.3-.2 3.6.3 1.3.5 1.3.6.9 1.5s-.7.9-3.4.6c-2.7-.3-9.1-2-10.4-2.2-1.3-.2-7.4-.8-8.8-.9-1.4-.2-3.2-1.1-4.4-1.1-1.1-.1-1.5-1.4-1.5-1.4z"/><path fill="#070707" d="M113.6 65.4c4.6.4 8.9 1.9 13.4 2.5-4.5.9-7.6-.6-11.8-1.3-4.5-.8-9.6.2-13.8-.9 4.2-1 9.8-.3 14.3-.3m16.2-4.1c7.1.4 13.6 3 20.5 3.7-2 1-10.5-1.2-13.3-1.5-3.3-.3-4.1-1.4-6.8-2.4-2.1-.8-4.1-.7-6.3-1.1 2 0 4 .2 5.9.7m-55.3-1c3.2-.7 7.1-1 10.4-.6 2.8.4 8.5.8 10.7 1.7-3.3.4-6.6-.7-9.9-1.2-3.7-.5-6.8.5-10.4.3" opacity=".05"/><path fill="#C9C9C8" stroke="#AAA" d="M20.6 66.5v3.6c0 1.6 2.1 2.9 4.7 2.9h70.4c2.6 0 4.7-1.3 4.7-2.9v-3.6c0-1.6-2.1-2.9-4.7-2.9H25.3c-2.6 0-4.7 1.3-4.7 2.9zm.9.3c0-1.3 2-2.4 4.5-2.4h68.2c2.5 0 4.5 1.1 4.5 2.4v3c0 1.3-2 2.4-4.5 2.4H26c-2.5 0-4.5-1.1-4.5-2.4v-3z"/><path fill="#C9C9C8" stroke="#AAA" d="M85.9 64.5h.7v7.7h-.7z"/><path fill="#AAA" stroke="#99999A" d="M178.4 77.2l-163.5.7v2.8l163.5-1.3z"/><path fill="#C9C9C8" stroke="#AAA" d="M70.2 77.2s-36.6-8-40-8.9c-3.4-.8-7.1-1.8-8.7-1.9-1.6-.1-2.2-2.8-2.2-2.8s-.9 1.3-.9 2.1 43 11.5 43 11.5h8.8z"/><path fill="#7C7B7B" stroke="#616161" d="M119.4 85.4c0 1 1.1 1.8 2.4 1.8 1.3 0 2.4-.8 2.4-1.8v-7.3c0-1-1.1-1.9-2.4-1.9-1.3 0-2.4.8-2.4 1.9v7.3z"/><path fill="#C9C9C8" stroke="#AAA" d="M13.8 81.7H16S8.8 66.8 8.8 66.2c0-.5 1.5-3.2 4.8-3.1 3.3.1 4.6 1.2 4.7 2.6.1 1.4.2 9.6.9 11.5.6 1.9.2 3.6 3.1 4 2.9.4 75.4 1.3 75.4 1.3s2.3-1 4-2.1c1.7-1.2 1.2-14.8 1.2-14.8s2.6-3.4 5.2-3.2c2.6.2 4.8 2.9 4.8 2.9v38.3h2.1V65.5s-3-4.2-6.3-4.3c-3.3-.1-6.4 1.2-7.1 3.3-.7 2.1-1 14.1-1 14.1s-.1 1.5-1.9 1.7c-1.7.2-74.4 0-75.3-.1-.8-.1-2.3-1.5-2.6-2-.3-.5-1.2-11.9-1.2-11.9s-2.1-5-6.8-5c-4.7 0-5.9 3.8-5.5 5.7.7 1.7 6.5 14.7 6.5 14.7z"/><path fill="#69C8C9" stroke="#669998" stroke-width=".25" d="M121.9 92.7c1.2 5 1.3 10.1 2.7 14.8.9 3 4.5 8.8 3.7 12-.5 2.1-1.3 1.2-2.9 2.3-1 .7-1.1 1.4-.5 2.6.7 1.5 4.7-.4 6.2-1.3 2.5-1.5.5-9.8.4-12.6-.3-5.4-.4-10.7-.4-16.2"/><path fill="#69C8C9" stroke="#669998" stroke-width=".25" d="M128 95.3l1 13.4s.4 3 1.1 4.1c.8 1 5.6 9.1 5.6 9.1s-.5 1.4-2.2 2.2c0 0-2.2 3.4 1.4 3.6 3.6.2 6.4-3.8 6.4-3.8l-1.7-5.5-5-9.9 1.3-14.6-7.9 1.4z"/><path fill="#FCF8CD" stroke="#CBCB98" stroke-width=".25" d="M118.5 53.4l-5.2 7 4.7 3.9 2.6-10.1"/><path fill="#FDD9B6" d="M132.1 44.5s.8 3.8 1.5 4.4c.8.6-8.2 6.4-9.5 6.8-1.3.4-2.1-3.7-1.1-4.7s-.6-1.8 0-2.9c.6-1.1-.8-2.7-.8-2.7s6.9 0 8-.4c1.2-.3 1.9-.5 1.9-.5z"/><path fill="#FDD9B6" d="M141.1 41.8s-3.6 1.8-8.3 3.1c-4.2 1.2-9 3.6-13.1 2.3-8.1-2.6-13.1-10.2-9.9-11.8 3.2-1.6-1.3-3.8-1.3-5.8s1.3-9.6 9.2-9.8c7.9-.2 19.9 3.4 19.6 5.6-.3 2.2 3.1 12.6 4.7 12.6 1.7 0-.9 3.8-.9 3.8z"/><linearGradient id="f" x1="11085.32" x2="11091.985" y1="24.253" y2="77.352" gradientTransform="matrix(-1.1 0 0 1 12330.63 .003)" gradientUnits="userSpaceOnUse"><stop offset="0" stop-color="#f05525"/><stop offset=".116" stop-color="#f36930"/><stop offset=".391" stop-color="#f89348"/><stop offset=".64" stop-color="#fcb259"/><stop offset=".851" stop-color="#fec463"/><stop offset="1" stop-color="#ffcb67"/></linearGradient><path fill="url(#f)" d="M137.9 39.6c-.5 1.6-.6 3.5-1.6 4.9 3.3 1.3 4.6-2 7.9-.8.8-1.3.7-2.7 1.1-4 5 2 5.7-2 4.1-4.2-1.3-1.6-2-1.3-1.5-3.3.5-2 2.4-1.8.5-3.5-.9-.8-3.7-.1-4.3-1.7-.5-1.1 2-2.4 2.1-3.5.1-2.2-.3-1.3-2.5-2.1-.4-.1-1.2.7-2.1.4-1.2-.5-1.2-1.4-1.7-2.2-.9-1.3-.1-2.1-2.3-2.9-2.2-.7-3.2.7-5 .8-5.3.3-2.8-3.3-8.1-3.5-4.1-.2-4.6 2.6-8.6 2.5-1.8 0 1.8.6-.3 2.1-1.6 1.2-4.6.5-4.1 1.6-2.2.2-4.5.6-5.9 1.8-1.4 1.2.5 3.2-3.6 2.7-1.6 2.3 1.8 2.1 2.9 3.5 2 2.5-1.4 1.5-1.5 3.8-.2 2.5 3.5 1.3 4.5 2.4 1.6 1.7-1.9 2.7.8 3.8 2.4-1 4.4-5.6 1.9-6.9 1.1-1.1 3-1.4 3.9-2.6.4-.4-.5-1.7-.5-1.7.8-.7 1.6-.8 2.5-1.4.2-.1 1.5.4 2.2.1.7-.3.1-1.6.7-1.9 2.9-1.1 1.9-.5 3.8.8.4.3-.5 1.3.3 1.7 1 .5 1.9-.3 2.6-.1.7.2 1.2-.8 2.3-.3 1.6.8.5 1.4 1 2.4.3.7 1.1 1.3 1.8 2.1.6.6 3.7.7 4.1 1.1 1.8 1.9-.6 2.7-.4 4.7 3.4.6 4.3 1.7 2.5 4.4.3.1.6.2.8.3"/><linearGradient id="g" x1="11093.18" x2="11100.127" y1="47.268" y2="47.268" gradientTransform="matrix(-1.101 -.0006 -.0007 1 12330.34 -.573)" gradientUnits="userSpaceOnUse"><stop offset="0" stop-color="#ec1475"/><stop offset="1" stop-color="#fff5cb"/></linearGradient><path fill="url(#g)" d="M110.2 40c0 1.3 1.7 2.4 3.8 2.4 2.1 0 3.8-1.1 3.8-2.4 0-1.3-1.7-2.4-3.8-2.4-2.1 0-3.8 1.1-3.8 2.4z" opacity=".18"/><path fill="#050506" d="M116.6 32.5c0 .5.5.9 1.1.9.6 0 1.1-.4 1.1-.9s-.5-.9-1.1-.9c-.6 0-1.1.4-1.1.9zm10.5 1.5c0 .5.5.9 1.1.9.6 0 1.1-.4 1.1-.9s-.5-.9-1.1-.9c-.6 0-1.1.4-1.1.9z"/><linearGradient id="h" x1="11083.808" x2="11075.183" y1="48.207" y2="48.207" gradientTransform="matrix(-1.101 -.0006 -.0007 1 12330.34 -.573)" gradientUnits="userSpaceOnUse"><stop offset="0" stop-color="#ec1475"/><stop offset="1" stop-color="#fff5cb"/></linearGradient><path fill="url(#h)" d="M137.6 41c0 1.7-2.1 3-4.7 3s-4.7-1.4-4.7-3c0-1.7 2.1-3 4.7-3s4.7 1.3 4.7 3z" opacity=".18"/><path fill="#FFF" d="M111.5 39.8s8.6 3.3 9.5 3.5c.9.2 11.2-2.6 11.2-2.6s-5.6.8-10.5.7c-4.9-.1-10.2-1.6-10.2-1.6z"/><path fill="none" stroke="#986632" stroke-width=".5" d="M120.8 36.7c-1.9 0-1.6 1.6-.6 2.5"/><path fill="none" stroke="#F8EE6B" stroke-width=".25" d="M132.1 19.1c1.2.6 1.2 2.5-.6 2.1.1-.3.1-.5.2-.7.7 1-1.2 1.5-2.3 1"/><path fill="#FCF8CD" stroke="#989898" stroke-width=".25" d="M138.5 29.6s-13.3-8.3-28.4-4.3c-.5-4.1 1.3-10.5 1.3-10.5s18.3-6 28.7 3.9c-1.9 7.6-1.6 10.9-1.6 10.9z"/><path fill="#EC1E24" d="M124.7 18.1l.2-2.2-1.8-.1-.6 2.2h-2.6l-.4 1.2 2.8.1.1 2.1 1.9.3.6-2.3 2.2.2.2-1.2z"/><path fill="#FCF8CD" stroke="#CBCB98" stroke-width=".25" d="M120.1 55.1s-1.8 3.3-2.6 6.2c-.8 2.9 3.9 11.3 3.9 11.3s-7 10.1-7 14.4v8.5l28.9-.6s-2.9-17.1-5.7-21.5c-2.9-4.3.8-21.5.8-21.5"/><path fill="#FDD9B6" d="M134.2 62.1c.4 1.5.8 3.1 1 4.5-3.4-1.1-7.9-1.3-11.7-1.4-2.5-.1-5.1.3-7.6 0-1.9-.2-3-1.3-4.9-1.5-3-.2-2.9.9-1.5 2.4 1.5 1.7 3.1 1.6 5.7 2 5.7.9 11.4 2 17.2 2.7 2.9.4 5.8.8 8.8.7.4-2.5.5-5.9-.2-8.4"/><path fill="#FCF8CD" stroke="#CBCB98" stroke-width=".25" d="M138.3 51.8s2.9 1 3.7 2.5c.8 1.5 2.4 10.1 2.4 10.1l-11.7-.2-1.1-4.9c0-.1-.4-7 6.7-7.5z"/><path fill="#FCF8CD" stroke="#CBCB98" stroke-width=".25" d="M122.2 56.1c3-2.8 5.9-5 9.8-6.9 3.2-1.5 5.7.5 8.9 1.7-2.2 2.6-10.4 3.9-14 5-1.7.5-4.3 1.6-5.9.8-1.2-.6-3-3.2-4.1-4.1 1.8-1.3 4.1-1.4 6.2-2 0 1.2.2 2.7 1.1 3.7"/><path fill="#FDD9B6" d="M105.3 63.9c1.3.3 5.1 1.1 3.2 2.7-1 .9-3.3.6-4.6.4-4.3-.8-2.6-2.9.9-3"/><path fill="#319999" stroke="#CBCB98" stroke-width=".1" d="M122.3 57l1.2 8.2"/><path fill="#319999" stroke="#066" stroke-width=".25" d="M122.8 64.4l-.8.9-19.7.4-4.2-3.7-.1-1.3"/><linearGradient id="i" x1="11095.675" x2="11101.49" y1="73.959" y2="59.333" gradientTransform="matrix(-1.1 0 0 1 12330.63 .003)" gradientUnits="userSpaceOnUse"><stop offset="0" stop-color="#066"/><stop offset=".373" stop-color="#198080"/><stop offset=".741" stop-color="#2b9292"/><stop offset="1" stop-color="#319999"/></linearGradient><path fill="url(#i)" stroke="#066" stroke-width=".25" d="M117.1 60.2l-19.1.5 4.9 4.1 19.9-.4z"/><linearGradient id="j" x1="11089.178" x2="11094.647" y1="70.91" y2="57.155" gradientTransform="matrix(-1.1 0 0 1 12330.63 .003)" gradientUnits="userSpaceOnUse"><stop offset="0" stop-color="#066"/><stop offset=".373" stop-color="#198080"/><stop offset=".741" stop-color="#2b9292"/><stop offset="1" stop-color="#319999"/></linearGradient><path fill="url(#j)" stroke="#066" stroke-width=".25" d="M117.1 60.2l-.2.8 4.2 3.4"/><path fill="#319999" stroke="#066" stroke-width=".25" d="M116.9 61l-18.1.4"/><g fill="#CCCBCB" stroke="#989898" stroke-width=".25"><path d="M107.1 58.7s-.6-.7-1.9-.7h-1s-1.4.1-1.5.5c-.8.5 2.1 1 2.1 1l2.3-.8z"/><path d="M106.3 62.7l.8-4s-.8.3-2.4.3c-1.6 0-2.1-.4-2.1-.4l.5 3.9c0 .1 1 .8 3.2.2z"/></g><g fill="#CCCBCB" stroke="#989898" stroke-width=".25"><path d="M112.5 59.8s-.6-.7-1.9-.7h-1s-1.4 0-1.5.5c-.8.5 2.1 1 2.1 1l2.3-.8z"/><path d="M111.7 63.8l.8-4s-.8.3-2.4.3c-1.6 0-2.1-.4-2.1-.4l.5 3.9c0 .1 1 .8 3.2.2z"/></g><g fill="#CCCBCB" stroke="#989898" stroke-width=".25"><path d="M117.9 59.1s-.6-.7-1.9-.7h-1s-1.4.1-1.5.5c-.8.5 2.1 1 2.1 1l2.3-.8z"/><path d="M117.1 63.1l.8-4s-.8.3-2.4.3c-1.6 0-2.1-.4-2.1-.4l.5 3.9c-.1.1.9.8 3.2.2z"/></g><path fill="none" stroke="#CBCB98" stroke-width=".1" d="M125 69.8l.8 2.7-1 22.8"/><path fill="#669998" d="M135.7 121.9c-1.4.8-2.4 1.6-2.9 3-.3 1-.6 2.4 1 2.7 3 .5 3.9.3 6.3-1.1.6-.3 1.3-1.1 1.7-1.6.6-.7-.8-1.6-1-2.4-.9 0 .4 1.5-.3 1.8-1 .5-1.9.8-3 .8s-1.5-.3-1.8-1.1c-.3-.8.3-1.2.2-1.9m-8.3-1.1c-.9.5-3.1 1.3-2.8 1.6.6.5 1.7.5 2.5.5.9 0 1.8 0 2.7-.2.8-.1 1.7-.5 2.5-.5.1 1.4-.4 2-2.2 2.4-1.5.3-3.1.4-4.6.6-2.2.2-6.7-1.8-4-3.8.9-.7 4.2-.3 5.4-.5"/><path fill="#FDD9B6" d="M111.8 64.5c1.3.3 5.1 1.1 3.2 2.7-1 .9-3.3.6-4.6.4-4.3-.8-2.6-2.9.9-3"/><path fill="#FDD9B6" d="M116.7 66.1c-.4-.3-1.6-1.3-2.2-1.8-2.7-1.9-4.3.2-1 1"/><ellipse cx="129.1" cy="72.6" fill="#FCF8CD" stroke="#CBCB98" stroke-width=".25" rx="1.4" ry="1.1"/><path fill="#FCF8CD" stroke="#CBCB98" stroke-width=".25" d="M127.7 77.5c0-.6.6-1.1 1.4-1.1.8 0 1.4.5 1.4 1.1s-.6 1.1-1.4 1.1c-.7 0-1.4-.5-1.4-1.1zm.3 4.4c0-.6.6-1.1 1.4-1.1.8 0 1.4.5 1.4 1.1 0 .6-.6 1.1-1.4 1.1-.8 0-1.4-.5-1.4-1.1z"/></g></switch></svg>
