<svg xmlns="http://www.w3.org/2000/svg" version="1.0" viewBox="0 0 103.1 116.4"><switch><g><path fill="#34926E" d="M14.4 39.9zm0 0zm0 0zm0 0zm0 0zm0 0zm0 0zm0 0zm0 0zm0 0zm0 0zm0 0zm0 0zm0 0zm0 0zm0 0zm0 0zm0 0zm0 0z"/><path fill="#70BF66" d="M43 95.8c-.6-.8-1.6-1.6-2.5-2.2 0 .3-1.2 1.3-1.2 1.7-.2-.6-1.4-1.2-2.3-1.4.2.3.2.9.5 1.2-.3-.1-.6-.2-.9-.4 0 .2 0 .5-.1.7-.1 0-.3-.2-.3-.1-.4.2-.7.3-1.4.4 0 .2-.1.5-.1.7-1.2-.3-2.3-.9-3.6-.7.2.3.4.9.6 1.2-.2 0-.6-.2-.8-.3 0 .1.2.4.3.3-.3-.1-.6-.1-.9-.2.1.2.2.6.3.9-1-.4-2.5-.7-3.6-.5.2.2.7.7.9.8-1.1 0-2.3-.4-3.4-.3.3.2.6.6.9.9-1.6 0-3.2-.3-4.9-.4.6.5 1.3.9 1.8 1.3-1 .1-2.4-.1-3.2.2.4.1.8.3 1.1.5-.6.2-1.6.1-2.1.3.2.1.6.3.7.4 0 0-.5.1-.5 0 2.7.5 5.8 2.3 8.6 2-.1.1-.4.4-.6.5 1.1.7 4.8 0 5.1 1.4 1.8.1 3.5-.2 5.3 0 1.9.2 3.7.4 5.7.4 3.7 0 7 .4 10.6.2 4.7-.2 9.3-.8 14-.8 3.8 0 7.1-.1 10.6-1.1l-.5-5.7c.1-.3.1-.5.3-.9-.4.2-2.2 2.2-2.7 2.5.2-.2-.1-.8.3-1.1-.8-.2-1 .4-1.7.6.1-.2.5.5.6.3-.7 0-2.3 0-2-1.1.2-.6-2-.3-1.4-.8-.8-.1-4.2-.1-2.1-2.4-.8-.1-1.6.2-2.3.5.2-.3.1-.5.5-.9-1.4-.2-2.4.7-3.6 1.1-1.4.4-5 1.3-6.2.4"/><linearGradient id="a" x1="37.215" x2="44.122" y1="55.971" y2="55.971" gradientUnits="userSpaceOnUse"><stop offset="0" stop-color="#cccbcb"/><stop offset="1" stop-color="#cbcb98"/></linearGradient><path fill="url(#a)" d="M44.1 59c-.9 1-2.9-2.5-3.3-3.2-.8-1.3-1.8-3.8-3.6-3 .7 1.2 1.7 2.1 2 3.4.3 1.4.7 2 1.7 3.1"/><linearGradient id="b" x1="140.728" x2="2.331" y1="45.213" y2="74.046" gradientUnits="userSpaceOnUse"><stop offset="0" stop-color="#cccbcb"/><stop offset="1" stop-color="#cbcb98"/></linearGradient><path fill="url(#b)" d="M57.6 62c3-1.8 8.2-4.2 12.3-4.5 3.7-.3 10.4 2.6 12.6 5.2 1.5-.4-3-4.1-4.9-4.5 3.1-1.3 5.9 2.5 9.2 1.5-.9-.4-2.2-1.1-3.3-1.6.4-1.1 1.6-1.5 2.3-2.1-1.5-.4-1.7.8-3 1-1.3.2-3.6-.5-4.9-.4-2.9.4-3.3.3-6.3-.2-4.7-.8-12 0-16 2.1"/><linearGradient id="c" x1="136.814" x2="-7.118" y1="10.847" y2="40.832" gradientUnits="userSpaceOnUse"><stop offset="0" stop-color="#cccbcb"/><stop offset="1" stop-color="#cbcb98"/></linearGradient><path fill="url(#c)" d="M53.6 36.2c-.1-2.2 3.5-3 4.6-4.8 1.1-1.6.8-3.2.8-5.7-.2-.1-.8 0-1-.1-.2 1.4-.4 3.3-1.4 4.5-1.1 1.3-3 2.1-4.2 3.5.4-2.7-1.1-3 1-5.4 1.2-1.4 2.3-3 3-4.6-.2-.2-.4-.3-.5-.4-.6.6-.7 1.3-1.2 2-1.2-.7-.1-3.6.4-4.7-1.6-.2-2.2-.6-2.1.6.2 1.9.1 5.4-1.3 7-1.7 1.9-1.7 5.7.2 7.7"/><linearGradient id="d" x1="148.713" x2="-2.744" y1="28.705" y2="60.259" gradientUnits="userSpaceOnUse"><stop offset="0" stop-color="#cccbcb"/><stop offset="1" stop-color="#cbcb98"/></linearGradient><path fill="url(#d)" d="M27.6 53.2c2.6.9 4.5-.9 7-.8 1.6.1 5.5.5 6.9 1.1 2 .9 3.6 1.9 4.8 3.4 1.1 1.4-1 4 1.3 5.3l3.7-4.3c-.7-.5-1.4-4.4-1.9-4.9-.7-.7-3.8-.5-4.7-1.1-2-1.2-2.9-1.4-5.3-1.6-2.5-.2-3.2-1-5.2-2.2-1.6-1.1-4.4-1-5.5-2.4 0 0-3-3.2-5.1-3.4-2.1-.2-4 1.3-2.5 1.5 1.5.2 2.9-.2 2.9-.2l2.5 1.7s-3.1.6-3.8.9c-.8.4-1.2 1.1.2.9 1.3-.2 2.9-.7 2.9-.7l1.9.4c1.9 1.3 5.3 1.8 6.7 3.8-2 .1-5.7 1.8-7.2 1.3 0 0-2.1-1.1-3.8-1.4-1.7-.4-2.7-.4-3.1.2-.4.6 2.1.4 3.3.7 1 .4 4 1.8 4 1.8z"/><linearGradient id="e" x1="140.397" x2="-5.905" y1="30.191" y2="60.671" gradientUnits="userSpaceOnUse"><stop offset="0" stop-color="#cccbcb"/><stop offset="1" stop-color="#cbcb98"/></linearGradient><path fill="url(#e)" d="M83.6 41.5c-1.6.6-1.8 1.7-3.5 2.4-1.5.6-2.7.3-4.3.5-2.5.3-5.8 1.4-7.2 3.6-1.6 2.5-5 5.9-7.6 7.9-1.8 1.5-4 8.1-3.3 5.6l-.3-9.7c4.2-.1 8.4-4.9 11.2-7.2 2.4-2 1.5-3.4 2.9-5.7 1.2-2 3.6-2.7 2.7-5.4-1.5-4.7 1.1-5.2.7-3.7-.4 1.5.6 4 .6 4s1-1.8 2.1-3.1c1.2-1.3.6-3.5 1.3-2 .8 1.5-1.5 4.3-1.5 4.3-.9 2-1.5 3-2.7 4.9-1.1 1.7-2.8 3.5-2.9 5.6 2.1-.2 6-.3 7.8-1.4 2.2-1.3 4.8-4.7 6.1-6.7 0 0 .9.9-.6 2.9l-1.5 2s1.9-1.1 3.1-.6c1.2.6.4 1.1-.8 1.1-1.2.2-2.3.7-2.3.7z"/><linearGradient id="f" x1="137.95" x2="1.243" y1="37.138" y2="65.619" gradientUnits="userSpaceOnUse"><stop offset="0" stop-color="#cccbcb"/><stop offset="1" stop-color="#cbcb98"/></linearGradient><path fill="url(#f)" d="M49.6 95.3s-1.3 2-2.3 2.8c-1 .7-4 1.7-5.8 1.7-1.7 0-4.4-.4-6.5 0-2.1.4-2.7.4-4.6.4-1.9 0-1.7-.7-1.7-.7s2.5-.4 3.5-1.1c1-.7 3.8-.6 6.5-1.5s3.3-.5 3.3-.5c1.2-1.4 2.9-2.2 4.2-3.7 2.8-3.4 2.5-14.7 2.7-18.9.4-7.9-.7-4.3-.5-15.8 0-1.5.3-6.4-1.3-7.4l-1.6-1.5c-2.1-1.4-3.9-6.1-4.5-8.4-1-3.5-4.8-6.1-9.1-7.4l-.7.4s-1.2.6-3.1 1.5c0 0-1.7.6-2.7 1.8-1 1.3-1.7 1.5-1.5 0 .2-1.5 2.3-2.8 3.3-2.9 1-.2 2.5-1.7 2.5-1.7l-1-.9s-1.7-1.1-3.3-2.9c-1.5-1.8-1-3.7 0-2.2s3.3 3.6 3.3 3.6c2.4.8 4.9 1.6 7.2 2.6 2.6 1.2 4.4 2.9 6.7 4.3.5-2.7-1.2-6.2-1.8-8.7-.8-3.6-2.8-5.4-5.7-7.9 0 0-3.9-1.2-5.8-.3-1.9.9-2.3-.4-.6-1.1 1.7-.7 6 0 6 0s-1.3-.9-3.3-2.4c-1.9-1.5-.4-4.4 0-2.8.4 1.7 3.1 2.9 5.4 5.1 2.3 2.2 5.4 6.4 5.4 6.4s-.4-2.6-.4-4.2c0-1.7-1.3-6.1-2.3-7-1-.9-2.3-2.2 0-1.1s3.1 3.5 3.3 6.2c.2 2.8.7 8.5.7 8.5 1 3.8 2 17.3 7.2 18.1L49.3 41c.6-4.6-1.4-9.9-2.1-14.3-.8-4.8 0-9.6 0-14.6 0 0-.7-1.8-2-2.9-1.3-1.1-2.1-1.3-.4-1.3 1.7 0 3.5 3.1 3.5 3.1s1-.2 1.7-2.4 5.8-2.6 2.9-1.3-3.3 5.2-3.3 5.2c0 4.8-.4 9.8 1 14.3 1.5 4.6 3.9 7.9 4.1 13 3.2-5.4 3.6-5.5 8.6-9.4 2.3-1.8 4.2-3.9 5.7-6.3 1.6-2.5 4.3-5.3 5.3-8 0 0 .8-3.5-.3-4.9-1.2-1.5 1.5-1.7 1.5.6 0 2.2.4 3.3.4 3.3s.8-.6 2.5-.6 2.3.6 1.2.9c-1.2.4-2.5.4-2.5.4l-1.2 1.1c-2.2 4.5-3.7 8.7-7.3 12.5-3.2 3.3-4.1 4.2-5.4 8.5l-1.3 2.8c-1.1 4.9-3.4 15.5-3.3 17 .9 8.5 0 16.4.5 25.1.2 4.2.5 7 3.3 10.3 1.2 1.5 2.8 2.1 4 3.6 0 0 2.7.5 4.5.5 1.7 0 6.1 1.8 3.1 2-3.1.2-9-.2-10-.6-1-.4-3.1-2-3.1-2"/><linearGradient id="g" x1="131.748" x2="-5.975" y1="5.763" y2="34.455" gradientUnits="userSpaceOnUse"><stop offset="0" stop-color="#cccbcb"/><stop offset="1" stop-color="#cbcb98"/></linearGradient><path fill="url(#g)" d="M60.1 33.5c0-1.8.7-3.4-.6-5.5-1.3-2-3.2-3.8-4-6.1-.8-2.3-1.7-10.5 1.9-11.2.2 1.3-1 2-1.3 3.1-.4 1.1-.5 2.7-.4 3.9.2 2.6 1.4 3.9 3.7 5.3 2-5.4 3.9-9.9 3.1-15.6 1.5.4.9 3.8 1 5.1 1.1-.4 1.8-2.2 2.1-3.2 2.2-.3-1.1 3.9-1.3 4.7-.7 2-1.1 4.4-1.4 6.4 2.2-.2 4.4-4.7 5.3-6.2.2 3-2.8 6-4.7 8.3-1.3 1.6-1.8 2-1.2 4 .4 1.5 1.8 2.8 2 4.4"/><linearGradient id="h" x1="131.032" x2="-14.998" y1="34.41" y2="64.834" gradientTransform="rotate(9.852 6.089 145.75)" gradientUnits="userSpaceOnUse"><stop offset="0" stop-color="#cccbcb"/><stop offset="1" stop-color="#cbcb98"/></linearGradient><path fill="url(#h)" d="M48.9 67.7c.4-2.2-4.6-6.3-6.6-6.8-2.7-.7-7.5 3.5-9.8 2.6.6-.8 3.1-2.2 3.9-3.1-1.3-.9-5.5.3-7.1.5-2 .3-3.5.6-4 2.7-.2 0-.5-.1-.7-.1.1-.6.4-1.2.7-1.7 1.8-.9 3.2-2.1 5.4-2.1-2.3-3.5-6.3-3-10-2.9 1.8-1.6 5.2-.7 7.4-.4.1-.6-.1-1.2-.4-1.7 2 .2 2.5 2.6 4.5 2.9 1.9.3 2.6.4 5.1.6 4.1.4 10.2.9 13.8 2.7"/><linearGradient id="i" x1="155.472" x2="-9.106" y1="42.626" y2="76.913" gradientUnits="userSpaceOnUse"><stop offset="0" stop-color="#cccbcb"/><stop offset="1" stop-color="#cbcb98"/></linearGradient><path fill="url(#i)" d="M62.8 59c2 .1 3.4 1.3 5.2 2.1.5 1.1 2.3 2.6 2.7 3.6.7-1.5-1-4-2.3-5.1-1.1-.9-3-1.4-3.5-2.4-.3 0-1.4.8-1.7.7"/><linearGradient id="j" x1="147.919" x2="9.655" y1="78.14" y2="106.945" gradientUnits="userSpaceOnUse"><stop offset="0" stop-color="#cccbcb"/><stop offset="1" stop-color="#cbcb98"/></linearGradient><path fill="url(#j)" d="M50.1 90.9s-3.1 8.8-5.2 9.5c-2.1.7-4 1.3-5.2 1.7-1.2.4 1.5.7 3.7.4 2.1-.4 7.7-1.1 8.8-2 1.2-.9 4-1.8 4.2-2.6.2-.7 1-1.8 1-1.8s1.5 2 2.5 2.8c1 .7 3.7 2 6.1 2.2 2.5.2 9.2-.9 9.2-.9s3.5-.4 4.4-.2c1 .2-.4-.7-4.4-1.3-4-.6-9 .4-11.3-2.4-2.3-2.8-3.3-4.2-3.3-4.2"/><linearGradient id="k" x1="131.732" x2="-6.185" y1="5.394" y2="34.127" gradientUnits="userSpaceOnUse"><stop offset="0" stop-color="#cccbcb"/><stop offset="1" stop-color="#cbcb98"/></linearGradient><path fill="url(#k)" d="M36.7 28.9c-.4-1.3-.9-2-1.2-3.3-.2-1.2 0-2.7.2-3.8-2-.1-.9 2.9-1 4-1.3-.9-2.4-1.8-3.4-3-.3.2-.8.6-1 .8 1.2.7 2.7 1.4 3.7 2.4.8.9 1.1 3.6 2.7 2.9"/><g fill="#696"><path stroke="#346733" stroke-miterlimit="10" stroke-width=".25" d="M48.4 4.6c.1-.1 0-.6 0-.8.4 0 1-.2 1.4-.1-.1-1.5 1-1.6 2-.9.2-1.2 1.2-1.5 2.3-1 1.1-.3.6-.5 1.7 0 .7-1.2 1.8-1.1 1.8.5.7-.9.8-.4 1.7-.7 0 .3.1.7.1 1 .5-.3 1.3-.3 1.7-.5 0 .3.3.9.3 1.3 1.2-.2 2 .2 2 1.4 1.5-.3 2.9.4 2.3 1.9 5 .7-4.1 5.5-5.8 5.8-6.5 1.2-10.1-1.2-15-4.4m39 14.4c.8-.1 1.6.1 2.3.3-.1.4 0 .8-.2 1.3.3 0 .7 0 1.1.1.3.9.5 1.7.7 2.7 1.2-.2 2.2 0 2.6 1.1 1.4-.3 2.7.3 2 1.6.6 0 1.1.4 1.7.4-.2.8.1 1.4-.5 2.1 1.4.8.8 2.3.3 3.3.3.1.5 0 .8.1 0 1-.1 1.6-1 2.2 3.2.2.3 3.3-.4 4.4-.6.8.5 1.5-1.7 1.6-1.7.1-2.8-1.1-4-2.2-2.3-2-3.3-4.7-4.8-7.4-1.7-3.2-1.1-5.8-.7-9.4m-57.6-5.8c-1.5 0-3.8-.1-4.1 1.6-1.6.2-3.1 1-2.9 2.8-1.4.3-1.7 1.4-1.1 2.5-1.4 0-4.1-.1-4.3 1.4-1.8.4-1.8 2.3-1.4 3.6-2 .9-2.9 3.2-2.8 5.2.3 5.3 4.3 6.3 7.8 4.7 6.9-3.2 15.1-13.5 10.4-20.9"/><path stroke="#346733" stroke-miterlimit="10" stroke-width=".25" d="M89.6 38.7c.6 0 1.2.3 1.7.6.1.4.1.9.1 1.3 1.2.2 1.4 1.3 1.2 2.5.6-.1 1.4.2 1.9.1.1.3 0 .5.1.7 1.1-.1 2.2 0 3.1.6-.2.7.1 1.2-.1 2.1 1.2.7.9.5 1.1 1.7 1.4-.3 2.8.3 3 1.6-.3.1-.9.5-1.1.5.5.2.8.7 1.2.9-2.1 1.1-2.1 5.2-4.6 5.6.1.3.2.5.2.8-1.4.4-7.7 5.3-8.1 1.7-2.7-1.9-4.8-6.2-5.4-9.4-1.1-5.5 3.2-4.8 4.9-8.8m-71.5-5.8c-1.1.4-3 .4-2.7 1.9-1.5-.1-2.7 1.1-2.6 2.2-1.7-.3-3.8.9-2.3 2.5-2.2.1-4.4 2.9-2.5 4.4-1.3.7-4.5.6-4.1 2.6-1.5.8-3.6 3.6-.5 3.8-1 1.2-.2 2.5 1.4 2.7 0 .3.1.7.1 1 .6 0 1 .4 1.6.4-.7 1.3-.2 3 1.7 2.7.3 2.6 7.7 2.7 9.8 2.4 3.1-.4 2.4-1.4 3.1-3.3.5-1.5 1.7-3.1 1.9-4.6.2-1.7-.9-3.3-.9-4.9-.1-1.6.8-3.1 1.2-4.7 1.2-4.8-1.7-5.3-5.3-8"/><path d="M28.2 57.9c2 .4 2.5-2.8.6-2.1.1-.7.5-1.5.8-2.1-.6-.1-1.3 0-1.9.1 0-.2 0-.3-.1-.5-.7.1-1.4 0-2.1-.2-.5-1.6 1.5-1.5 2.6-1.5.2-.7.6-1.1.6-2-.4 0-.7-.3-1.1-.2 0-.7-.6-1.2-1.4-1.3.4-.5.3-1 .3-1.6-.6 0-.9-.4-1.5-.4 1.7-1.2 0-2.4-1.6-1.9-.6-.5-.9-1.2-.8-1.9-2-.5-3.2.6-4.9.2-.1 1.2-1.5.9-2.5.9-.1.2 0 .3-.1.5-1-.1-1.9.2-1.7 1.3-.8 0-1.5.4-1.5 1.1.3 0 .6.2.9.2.5 1.6-.9 1-1.3 1.9-.1.6-.5 1.6.9 1.6-.9.2-1.6 1.1-.4 1.3-.2.4 0 1-.1 1.4.6 0 3.4 1 2.8 2-.6 1-2.6-.6-2.6 1.5.4.1.7.4 1.1.4-2.4-.3-2.4 3.6-1 3.7-.5.6-.5 1.3.2 1.7-1 2.1 1.8.6 2.3 1.6.5.9-1.8 2.9.9 2.4-.1.5.1 1.1.1 1.6 1.1.6 4.1-1.7 3.5 1.3.7.1 1 .3 1.7 0 .1 1 1 1.7 1.8 1 1.1 1.4 2 .4 3.2.3 1.5-.2 2.7.4 2.3-1.6.6-.1 4.2 2.8 3.8.2.1.9 1.8.2 1.5-1 1.6-.3 1.4-1.6.5-2.5.5 0 1.7.2 2.1-.2.7-.5.8-1.3-.2-1.6.8-1.1-.9-2-1.9-1.3-.1.1-.1.1 0 0s.1-.2 0-.3c-1.3 0-2.7.3-3.8.5-1.1.2-2.6.9-3.3-.3-.3 0-.6 0-.9-.1-.3-1.1-1.4-1.6-2.5-1.5-.1-.3-.1-.9 0-1.2 1.5.3 1.8-1.1 3-1.3l1.7-.1z"/><path d="M29.8 25.4c.1-.1.4 0 .5 0v-.5c-.3.1-.8 0-1.1.1 0-.2-.1-.6-.1-.8-.2 0-.5 0-.7-.1.1-.3-.1-.7-.1-1-.6.1-.6-.2-1.1.1-.2-1.4-1.8-.3-2.6-.1.1.5-.1 1.1-.1 1.6-.8.1-.9.4-1.3.8-.2-.4-1-.6-1.7 0-1.1-1-4.4.6-3.5 2.4.4.1.5.4.7.5-.7.9-2.2.2-2.1 1.7-1-.1-2.1.2-2.3 1.3-2.2.3.3 2.6 1.6 2.6-.3.9-2.4 2-.6 2.5-1.1.4-1.2 1.7.2 1.6-1 .7-.3 1.5.8 1.2.3 1 1.6 1.4 2.5.7.3.5.4.7.8 1.1-.5.8.1 1.5 1 1.3-.1 1.1 1.4 1.1 2 .5.6.8 2.2.8 2.3-.4 1 .4 2.2-.2 2.1-1.3.6-.4 1.4-.9 2.2-.7.1.8-.1 1.5-.1 2.3.7-.1 1 .1 1.5-.3-.1.3.1.7 0 1 1 .2 2.9.6 3.5-.3 1.1.1 1.6-.7 1.1-1.5 2.1.7 2-5.6-.6-3.6.1-1-.7-1.3-1.5-.9-.2-1-1.4-1-1.7-.6 0-.7-.5-1.1-1.3-1.2 0-.2-.1-1-.1-1.2.7.5 2-.2 1.5-1.3.8-.1 1-.6.8-1.3.2-.2.2 0 .3-.3 1.2.1 2.3-.1 2.1-1.5h-.5c.6-.5.7-1.1.2-1.5.5-1.1-.7-1.3-1.5-.7.4-.9-.3-1.3-1.2-1.1.1-.9-.4-1.3-1.4-1.1"/><path stroke="#346733" stroke-miterlimit="10" stroke-width=".25" d="M45.5 45.7c.4-1.5-.7-1.7-2-1.6.2-1.2.5-2.7-1.4-2.3.3-1.4-1.4-2.1-2.3-1-.4-.7-1-.7-1.5 0-.8.1-1 .4-1 1.2h-.8c.5-1-.1-1.7-1.3-1.2-.8-1-4.7.2-4.5 1.6-.9.2-1.4 1-1.4 1.8.1.1.4 0 .6.1.4.6 1 .8 1.8.6-.3.6-.5 1.4-.2 2.1-1 .3-1.9.9-1.6 2 .2.1.3 0 .5 0-.6.7-.4 1 .2 1.4.1 1 1 1.2 1.9.8.5.8-.4 3 1.5 2.1.4.9 1.6 1 2.3.2.4 1.3 2.3 1.1 2.7-.2.8.1 1.4-.2 1.4-1h.8c-.2 1 0 1.9 1.2 1.8-.1 1.3 1.9 1.7 2.3.6.5.5 1.3.7 2.2.5.1-.3.2-.5.3-.7 1.2.5 3.1-.1 1.9-1.4 1-.1 1.5-.8 1.2-1.7 1.5-.6 1.2-3-.6-2.6.8-1.1.1-2.2-1.3-2 0-1.4-2.5-1.8-3.3-.9"/><path d="M25.5 22.3c-.7.1-1.1.1-1.3-.5.2-.1.2 0 .3-.2-.9 0-1.8-.4-1.9-1.3.2 0 .4 0 .5-.1-1.3-.6-1.1-1.9.6-1.8-.9-1.1.5-1.3 1.5-1.5.2-1.3-2-.8-3-1.3.3-.7.2-.7 1.1-.7-.9-.1-2-1-.6-1.5-.4-.2-.5-.8-.7-1 .5 0 1-.3 1.5-.2-1.1-1.3 2-3 3.4-2.9.4-.9 1.6-.8 2.3-.4 0-.9.7-1.2 1.6-1 .6-.6 1.4-.6 2.1-.1.2-.1.8-.5.9-.7-.8-.2-1.7-.4-2-1.1.3 0 .6-.2.9-.2-.7-.7.2-1.1 1-1.1.1-.2 0-.3.1-.5 1 0 1.9-.3 2.8-.1 0-.2.1-.5.1-.7 1.1-.8 2.8-.1 4-.2 1.4-.1 2.9-.5 4.4-.7.4 1.8 3.2-.4 3.9 1.1.7 0 1.4.1 2.1.4 0 .2-.1.3-.1.5.7-.1 1.4 0 2 .2 0 .2-.1.3-.1.5 1.4-.2 1.6 1.1.7 1.8.8.4.6.8 0 1.3.2.6 2.4.1 2.5.7 1.1-.1 1.8.4 2 1.6.7-.1 1.4.1 1.7.8-.2.1-.6.4-.9.5 1.1.4 1 1.2.1 1.7 1.1.5.7 1.3-.4 1.5 1 1.2-.5 1.3-1.5 1.5.5 1.1-.7 1.6-1.7 1.7 2.6.9-1.9 2.9-2.7 3.1-1 .2-2.1-.7-2.9-.9-1.1-.3-1.3-.4-2.6-.4-.1.1-.4 1-.4 1 .9 0 1.6.4 1.5 1.3h-.7c1.3.3 1.1 1.5-.2 1.7 1.4-.3 2.7.8 1.4 1.8.8-.1 1.4.2 1.5.9 1.5-.1 5 2.5 2.5 3 .6.5.7 1 0 1.5.7.9.2 1.7-1 1.8.3 1.2-.5 1.9-1.7 1.6.1.4-.1.9-.1 1.2-.2 0-.5.1-.7.1.1 2.2-3.1 2-4.6 2-.1-.2 0-.3-.1-.5-1.6 0-5.7-3.6-3.6-4.7-.5-.3-.5-.8-.7-1.2.5-.2 1.6-1.8 1.3-2.2-.8-1.2-2.3.1-3.4-.4.2-.4 0-.8.5-1.2-1.1-.1-1.8-1.3-.7-1.9.1-1.3.4-2.4-.9-2.9-1.1-.4-2.7 1.2-2.7-.6-.6.3-1.3.6-2.1.6-.2.8-.2.7-1 1.1.7 1.6-2.3.7-3.1.5-.9-.3-.9-.1-1.5-.6-.3-.2-.9-1-1.3-1.5"/><path d="M57.8 10.7c-.4-.8 0-1.2.9-1.1-.2-.1-.2-.2-.5-.2v-.7c.2-.1.4.1.5-.1-.1-.3 0-.8-.1-1 .4 0 .8-.3 1.3-.2-.7-3 9-2.1 8.7-.7 1.4-.4 3.5-.9 4.4.3-.1.1-.2.2-.3.4 1-.1 2.3-.2 2.1.9.5-.1.8.2 1.2.2 0 .7-.1 1-.9 1.3.9-.2 1.9-.1 1.9.9 1-.1 2.3.1 2 1.3 1-.1 3.2.5 1.5 1.5 2 .2 1.8 2 .2 2.5.8.5 1 1.4.4 2.1.6.4.9.7.9 1.5.9-.7 2-.4 1.7.9 1.2-.7 2.7-.2 1.9 1.3 1.8-.2 1.6 1.2.9 2.1-.8 1-1.5.8-2.7 1.3.4.4.4 1 .5 1.6-.2 0-.3 0-.5.1 1.4.7.8 2-.3 2.5.6 1.5 3.7-.4 3.3 1.8 1.3-.3 4.3.5 1.9 1.8 1.6-.8 2.3 1.9 0 1.9.4.5.5 1.1.2 1.8 1.7-.2 3.3 3.1 1.9 3.5 0 1.2.2 2.5-1.5 2.2 1.7.6 1.7 3-.5 2.5 2.4.7-1.5 1.8-2.1 2.1.8 1.9-7.8 3.2-9.4 1.9.2-.3.4-.7.7-.9-1 .3-3 .4-2.9-.9-1.8.1-2.4-1.6-.3-1.9-.2-1.2 1.1-1.4 2.1-1.5-.7-.9-1.2-2.2.6-2.2-.8-.8.2-1.4 1-1.8-.8-.7-3.5 1-2.9-1 .1-.1.1-.1 0 0-.9.1-1.5-.2-.6-.9-1.7-.5.1-1.9-1.3-2.6-.7.9-2.7.3-3.4-.3-.1 1.8-4 1.4-3.3-.2-.1 0-.2 0-.3-.1 0-.8.1-1.8 1.1-2-.3-.7-.1-.9.4-1.5-.4-.4-.7-1.1-.5-1.8.2-.1.3 0 .5-.1-.1-.2-.2-.8-.3-1 .2 0 .5-.1.7-.1-.2-2.4 4.3-.3 3.8-2.9-.7 0-1.1-.3-1.5-.8 0-.1.1-.2.2-.2.2 0 .2 0 0 0-.9-.3-1.3-.9-.6-1.4-.6-.3-.8-1-.8-1.7-.3-.1-.9-.2-1.3-.2.2.3.2.9.3 1.2-.2.1-.3 0-.5.1.3 1.4-3 3.3-3.9 1.9-.8 1-2.5 1-3.6.8-2-.4-.9-.8-2.2-2.1-.9.5-3 .8-3.1-.6-1.4 1.5-1-.9-2.4-1.2 1-1.1-1.7-1.8.1-2.4-.5-1.4 1-2.4-.4-3.3.6-.4 1-1 .6-1.7 1.3-.4 1.4-1.2 2.3-1.9.8-.6 1.6-.6 2.3-1.6"/><path d="M71.1 51.8c.1-.2.2-.3.5-.2.4-.8 1.4-1 2.1-1.8.2.1.3.2.4.3.2-1.2 1.8-1.5 2.2-.3.6-1.2 1.9-.6 1.9.7.5.2 1.1.3 1.7.4-.5-1-.3-2.6 1.1-2 .3-1.1 1.5-1.4 2.3-.7.6-.8 1.9-1 2 .2.8-.6 2.1-.8 1.9.7.8.3.7.9 0 1.5.8.3 1.1.8.7 1.4 1.1-1 3.4 3.5 0 3 0 .3 0 1 .1 1.3l.5 1c1-.4 1.7.4 1.5 1.3.8-.1 1.3.2 1.5.9 1.9-.4 2.1 2.3.4 2.1.2.5 0 .9.1 1.4-.3 0-.6.1-.9 0 .3.7.2 1.3-.6 1.1-.3.9-3.2 2-3.7.9-.5.2-1.1.1-1.7.3-.2-.5-.6-.5-.6-1.1-1.2.6-2.3-.6-2.5-1.5-.5.8.2 1.1.2 1.9 0 .5-.5 1.3-.4 2.2-.3-.1-.6 0-.9-.1.1 1.4-2.2 2.4-2.7 1 .6 1.3-1.3 1.4-2.2 1.1.3 1.8-2.8 1.9-3.2.6-.8.5-2 1.2-2.5 0-.9.3-1.6-.2-1-.9-.2-.1-.4 0-.5-.1v-.7c.5 0 .8-.4 1.3-.4 0-1.1-4.8-.8-2.9-2.2-.4-.5-.2-.8-.3-1.4.1-.1.4 0 .5-.1-.2-1.1.8-1.3 1.8-1 1-.9 1.9.1 3-.3.5.8 1.4.2 1.6 1.2.1-1.2 2.4-1.1 3.4-1 .1.2.2.3.3.5.6-.6 1.5-.7 2.2-.2.1-.8.3-.9 1-1 .1.1.1.1 0 0-.4-.5-.3-.9-.3-1.5.2-.1.4 0 .7 0-.4-1.2 1.3-1.4 2-.8 1.2-2.2-4.3.1-2.9-2.3-.8.3-1.7 0-2.1-.7-.6.1-1.1-.4-1.5-.9.1 1-.7 1.5-1.7 1.4-.2 1.1-2.2 1.6-2.4.2-1.2.5-2.5-.4-2-1.7-.9-.5-1-1.5 0-1.8-.4-.5-.4-.9-.3-1.6.3-.1.6-.3.9-.4"/><path d="M67.8 34.7c-.6-.8-1.9-1.7-2.9-.6-2.7-2.5-2 2.3-2.5 2.8-.9-.4-1.9 0-2.1.9-1.1-.3-1.2.8-.6 1.5-.8.1-1-1.3-1.1-.5-1.3-.1-3.8.7-4.4 1.9-1-1-2.2 0-2.1 1.1-1.8.6.1 2.3 1.1 2.6-.2 1.1 1.3 1.9 2.3 1.5 0 1 3.5 2.5 4.5 1.5.8 1.3 3.4.8 3.3-.8l1.2-.4c.2 0 .8.1 1.1.2-.5.7-2.3 3.1-.2 2.9-.7.8-.1 1.4.8 1v.6c.8 0 .7.1 1.2-.5h.5c-1.3.8-.6 2.3.8 1.3.1 1 1.6.9 2.2.4.8.8 2.3.8 2.6-.4.8 0 1 0 1.6-.6.6.2 1.3.4 1.9.2 1.3.5 3.3.9 3.9-.8 1.7-.3 1.8-2.6.2-3 1-1.3-.3-2.3-1.7-2.4.1-1.7-2.5-2-3.3-.8-.4-1.1-3.1-2.3-4.2-1.7-.4-.7-1.9-.6-2.9-.6-.3-.7-1.2-.8-1.7-.5 0-.6-1.1-.8-1.7-.6.8 0 1.4-.3 1.5-1 .7.1 1.5.1 1.7-.6 1.5.2 2.6-1.1 1.3-1.7.2 0 .6-.1.8 0 .7-1.7-.9-2.4-.5-4m-36.9-4.4c.5-.8 1.3-.8 2-.2.5-.7 1.3-1 2.1-.4.3-1.7 4.9-1.5 4.8.2 1.2-.6 2.2.3 2 1.6 1.4-.2 2.8.4 1.6 1.8 1.6.3 2.7.9 1 2.2 1.6.1 1.6 2 0 2.2.1 1.4-1.5 3.5-3.1 2.5-.5.6-.8.7-1.6.8.2 1-.7 1.5-1.6 1.4.5.8.1 1.6-.8 1.8 0 1.3-2 1.5-3.1 1.5-.5-1.1-1.9-1.4-2.7-2.3-.3-.4-.2-1-.7-1.5-.6-.6-.7-.3-1.4-.6-2.1-1.2-6-1.5-5.9-4.7 1.5-.3 1.2-1.9 1.8-2.9.7-1 1.8-1.5 3.1-1.8.3-1.1 1.7-1.2 2.7-1.6"/><path d="M76.3 32.9c-1.4.1-4.4-1-5 .5-1-.4-4.2-.1-2.9 1.4-1.1.4-3.3 1.4-2.1 2.7-1-.1-1.5.2-2.3.7-.1.1-1.3 1.1-1.4 1.3-.6 1.8 1.3 1.9 2.7 2.2.3 1.5 2.1.8 3.1 1.3.1.1.6 1 1 1.2.8.4 2.1.4 3 .4.1 1.5 3 .5 4.1.3 2.2-.3 2.3-.7 3.7-1.6.4-.2 7.5-4.6 3.6-4.5.4-1.1-.3-1.8-1.5-1.8.2-1.4-1.8-1.4-2.9-1.5 1.7-1.6-2.5-2.3-3.3-2.7"/><path stroke="#346733" stroke-miterlimit="10" stroke-width=".25" d="M45.9 31.6c-1.2-.1-.7-1.4-.9-2.2.3-.1.4-.2.7-.2 0-.3 0-.6.1-.9 1-.5 1.7-.9 2.8-1.3"/><path d="M49 26.9c1.3-.4 6.8-1.2 6.8.3 1-.2 2.2.1 1.3 1.1 1-.1 1.3.4 1 1.3.7.3 1 .9.9 1.6.2-.1.5 0 .8-.1-.1.4.1.8 0 1.2.9-.1.5-.3 1.3.4.2-1 1.5-1.5 2-.5.8-.5 1.9-.7 2.1.4.9-.1 2.1 2.2 1.1 2.6.2.8-.1 1.5-1 1.5.1.8-.3 1.4-1.2 1.5-.1 1.2-4.6 2.4-5.2 1.8-.8.6-2.4 1-2.9-.1-2.4.3-3.7-.9-5-1.5-.7-.3-4.2-.9-3.8-2.6m37.5 23.5v-.9c-.4.1-.8-.1-1.3.1-.3-.7-.5-.7-1.3-.7-.5-.6-.2-.4-1-.7.1-.3-.1-.7-.1-1-.7-.3-1.4-.3-1.9.1-.8-.6-2-1.1-2.8-.4-.6-.8-2-.5-1.6.6-.7.3-.5.3-1 .7-.8-.1-1.3.3-1.2 1-.8-.1-1.2.3-1 1.1-.9 0-2.8.5-1.5 1.3 0 0-.4.1-.3.4.2 0 .7.3.9.4-.7.5-.7 1 .1 1.3-.7.9-.2 1.5 1 1.5.2 1 1.3 1.5 2.3 1.1.3 1 1.4.9 2 .2.7.5 1.7.6 2.1-.2 1 .1 2.1.1 1.9-1.1.8-.3.4-.1 1-.7.7-.3.8-.2.8-1.1.7.3 1.3.2 1.7-.4"/></g><path fill="none" stroke="#346733" stroke-miterlimit="10" stroke-width=".25" d="M31.2 21.3c-.9.4-2-.3-2.4-1.1.6-.3 1.5-.2 2.1 0-.2-.7-.6-1.2-.5-2 1.1 0 1.4.8 1.9 1.4.1-2.1 2.2-.7 1 .7" opacity=".26"/><path fill="none" stroke="#346733" stroke-miterlimit="10" stroke-width=".25" d="M38 20.7c-.7-.1-1.6-.9-1.8-1.6.8-.5 2.3-.4 2.8.4-.2-3 2.8-1 1.6.2.3-.3 1.2-1.3 1.6-1.3.9 0 1.2 1.2.4 1.6m-7.2-.9c-.7-.4-1.7-1.1-1.5-2.1.6-.1 1.2.1 1.6.5.1-.9-.3-1.6.2-2.4.6.1 1 .8 1 1.4.4-1.9 2.2-.7 2 .9m-8.2.8c-.8.1-1.3-.5-1.3-1.2.6-.1 1.3 0 1.7.2.1-.7-.2-1.7.5-2.1.7.3 1.5 1 1.3 1.8m7.7-7.5c-.5-.3-.6-1.1-.5-1.7.6.3 1.1.7 1.6 1.2.3-.8 1.1-1.2 1.9-1.2-.1.6-.2 1.6-.5 1.8m-2 1.3c.1-.9-1.1-1.2-1.9-1.2.1.4 0 .6.3 1-.5-.1-1.2-.2-1.7-.1 0 .9.6 1.8 1.6 1.7" opacity=".39"/><path fill="none" stroke="#346733" stroke-miterlimit="10" stroke-width=".25" d="M35.7 13.1c0-1 0-1.6-1-2.1-.2.6-.6 1.2-.3 1.7-.3-.4-.9-.8-1.4-.9-.3.6-.2 1.5.6 1.7-.3.1-1.7 0-1.8.6-.2.8 1.2.8 1.7.7M30 12.9c.7-1.2-.8-1.9-1.9-2.1-.1.5 0 1.1.4 1.5-.8-.5-2-1.2-2.8-.4.3.6 1 1 1.6 1-.8.1-1.6.5-1.9 1.3h1.8c-.4.4-.7 1-.6 1.7.7 0 1.5-.3 1.8-1m9.6-4.5c-.4-.7-.5-1.7.5-2 .3.4.5.8.7 1.3.3-.4 1.1-1.5 1.8-1.2.7.3.2 1.7-.2 2.1.4-.1 1.5-.8 2-.4.7.6-.4 1.5-1 1.6.4 0 1.7.3 1.5 1-.2.5-1.6.3-2 .3" opacity=".48"/><path fill="none" stroke="#346733" stroke-miterlimit="10" stroke-width=".25" d="M32.2 10.7c.9-.1 1-1.6.4-2.1-.5.3-.8.8-1 1.2-.1-1.7-2-2-1.5-.1-.4-.3-1.2-.5-1.8-.5 0 .7.8 1.1 1.2 1.2-.7-.1-1.4.2-1.9.7.5.5 1.2.9 2 .9m33.7-2.9c-1-.1-.8-1.1-.7-1.8.7.1 1.2.5 1.4 1.2.6-.8.9-1.4 2.1-1.6.3.5.4 1.2 0 1.7.8-.4 1.5-.6 2.4-.3 0 .7-.7 1.2-1.4 1.4m1.6 2.8c-.5-.5-.9-1.7-.1-2.1.3.3.5.8.7 1.1.5-.7 1.3-1 2.2-.8.2 1.1-.4 2.1-1.6 2.2m2.5-.4c-.1-1 1.1-1.6 2-1.6.1.5 0 1-.4 1.3.5-.7 1.8-1.1 2.6-.7-.1.8-.9 1.2-1.6 1.4 1 0 2.1 0 2.3 1.1-.8.2-1.5.4-2.3.4.7.1 1.3.9 1.1 1.6-.7.1-1.6 0-2.2-.5M61 14.2c-.7-.3-1.4-.9-1.4-1.7.7-.2 1.3.1 1.8.6.3-.8 0-1.5 1.1-1.9.3.5.6 1.1.9 1.6.2-.5.5-1.2.9-1.6.6.5 1.2 1 1 1.8.5-.3 1.1-.3 1.8-.2.2.8-.6 1.3-1.1 1.7.7 0 1.5 0 1.5.9-.4.1-.8.3-1.3.4" opacity=".48"/><path fill="none" stroke="#346733" stroke-miterlimit="10" stroke-width=".25" d="M27 27.3c.4-.7-.6-1.6-1-2.2-.6.3-.9 1-.7 1.5-.3-.3-1.3-1.2-1.8-.8-.7.5.1 1.5.6 1.6-1-.2-1.5.4-2 1.1.7.3 1.8.5 2.6.2m-1.8 2.9c-.4-.5-1.1-.6-1.7-.9-.6.4-.5 1.2.2 1.5-.8.1-1.6-.1-2.4.3.1.8 1.2.9 2 .8-.6.3-1 .8-1.2 1.3.7 0 1.6.2 2-.4-.3.6-.5 1.2-.4 1.9.8.2 2-.2 2-1.1m-3.6.9c-1 0-1.4 1-1.3 1.8.6.1 1.1-.2 1.6-.5 0 .6-.3 1.8.5 2 .8.2 1.7-1.1 1.4-1.7m2.1.5c-.9.4-1.3 1.5-1.1 2.3.7-.1 1.6-.6 1.6-1.4.3.6.8 1.1 1.5 1.2.2-.6.3-1.5-.4-1.7m23.5-7c-.6-.2-.9-1.2-.7-1.9.8 0 1.3.6 1.7 1.2 0-.8.3-1.7 1.3-1.9.2.6.6 1.2.5 1.9.5-.6 1.4-.9 2.2-.8.5 1-.4 1.4-1.3 1.7M77.7 24c-.1-.7.3-1.9 1.2-2 1.1-.1.9 1.1.9 1.8.7-.2 1.2-.6 2-.5.2 1.1-.6 1.8-1.6 2.1" opacity=".47"/><path fill="none" stroke="#346733" stroke-miterlimit="10" stroke-width=".25" d="M80.2 22.3c.1-.4.9-1.6 1.5-1.4.9.4.2 2.2-.9 2.1m-2.2-1.7c-.1-.8.2-1.4.1-2.2-.9-.2-1.4.6-1.6 1.3-.2-.5-.7-.8-1.3-.8-.4.6-.7 1.7 0 2.2m6.1 10.6c.1-2.2 2.6-1.3 1.5.4.9-.5 1.5-.8 2.6-.7-.3.9-1 1.6-1.9 1.9.4 0 1.7-.2 1.9.2.4.8-1.1.6-1.6.8.6.3 1 .8.9 1.5-.8.1-2.3-.1-2.4-1m3.5 3.1c.7-.6 1.4-1 2.4-.8-.1.6-.5 1.2-1.1 1.5.9 0 1.7.2 1.9 1.1-.9.8-2.5.4-3.4-.1m-1.5 1.6c1.2-.1 2 .4 2.5 1.3-.6.2-1.6.2-2.1-.2.4.7.6 1.3.5 2.1-.8 0-1.9-.7-1.8-1.5 0 2.8-3.1 1.6-1.8-.4M19.8 47c0-1-.1-1.8-1.2-2.3-.6.6-.5 1.3-.5 2.1-.4-.3-1-.5-1.6-.6-.5.8.3 1.4 1.1 1.7-.9-.1-1.7.1-2 1 .8.5 1.7.3 2.5 0m.3 1.4c-.8 0-2.1-.2-2.5.6-.6.9.8.9 1.6.7-.4.5-.7 1.1-1 1.7.9.2 2.4-.1 2.3-1.2m-2.1 7.2c.5-1-1.5-1.4-2.3-1.4-.2.9.2 1.5 1 1.8-.4 0-1.8.3-1.9.9-.1.8 1.7.9 2.3.9-.3.4-.5 1-.3 1.5.7-.1 1.7-.5 1.9-1.2m.5 1.4c-.6.4-.6 1.1-.5 1.7.9.1 1.5-.8 1.8-1.5m.7 1.1c-.4 3.2 2.6 1.8 1.8-.6M8.1 50.8c.4-.8-.7-1.3-1.4-1.6-.2.5-.3 1.1.2 1.5-.7 0-1.3-.3-2-.2-.3 1.1.5 1.3 1.5 1.4-.6.3-1.3.6-1.9 1 .3.8 2.3.9 2.7.1m84.2-5.4c-.1.1.1.2-.1.3-.6-.9.6-1.5 1.3-2 .6.4.5 1.8.3 2.5 1.2-.4 1.7-.9 3-.8.3 1.2-1.1 2.1-2.1 2.3.8-.1 1.8.3 1.6 1.2-.6 0-1.3.1-1.9-.1m-.2 2.6c.9-.3 2 .2 1.9 1.2-.5.2-1 .2-1.5.1.5 1.9-1.2 2.6-1 .4M57.4 41.9c-1 0-1.7.2-2.5.8.4.9 1.5.9 2.3.5-.1.5-.7.9-.8 1.3.9 0 1.8 0 2.2-1 .2.6.1 1.3.1 1.9 1 .2 1.5-1.1 1.4-1.8m9.3 4.2c-.5.1-1.2.7-1.5 1.1.7.3 1.5.4 2-.2v1.5c.6 0 1.5-.6 1.4-1.3.3.4.3 1.3 1.2 1.1.1-.9.1-1.2-.5-2m1-1.7c0 .6-.2 2 .8 2 .5 0 .6-.7.5-1.2.3 1.6 2.7.9 1.1-.8.7.1 1.7-.4 1.8-1.1-.8-.5-1.9-.3-2.8-.3m-2.2-9.8c-.4.4-1.9 1.2-2.5.9-.9-.5.1-1.4.7-1.7-.7-.1-1.9-.1-1.7-.8.3-.9 1.6-.9 2.3-.7-.3-1-.6-1.8-.5-2.8 1 .2 1.8.8 2.5 1.5.3-.4.9-1.3 1.6-1.2.6.1.7.8.2 1.3M34.7 48.4c-.4-.2-2.1-.1-2.2.5-.1.8 1.6.5 2 .3-.2.4-.7.9-.8 1.3.6.1 1.1-.1 1.4-.5.1 2.2 1.3 1.3 1.3-.5m7.8 2c-.1.4-.5 1.5 0 1.7.5.2 1-.9 1.1-1.2.2.3.5 1 .9 1.1.7.1.6-.9.3-1.3m-1.8-4.1c.3-.5 1.1-.9 1.7-.8.1.5 0 1-.3 1.4.7-.2 1.5-.1 1.8.6-.4.1-1 .3-1.3.4 1.2.2.7 2.2-1.2.9m-10.5-15c.5-.8-.6-1.4-1.1-1.9-.2.5-.2 1.2.1 1.6-.7-.3-1.5-.4-2.2-.3-.1.8.8 1.5 1.5 1.6-.5.1-1.3.4-1.7 1 .6.3 1.8.4 2.3 0 0 .5-.3.9-.6 1.3.8 0 1.7.1 2-.8m6.4-1.4c-.4.6-.6 1.4-.9 2 1 .1 1.5-.3 2.1-1.1.8 1.8 2 .2 1.1-.6.3.3 1 .8 1.4.5.8-.6-.6-1.3-1-1.5" opacity=".47"/><path fill="#70BF66" d="M54.4 99.7c.1-.8-.2-1.5-.9-1.8 0 .3-.1.7-.1 1.1-.4-.8-1.5-1.5-2.4-1.6.5.9.9 1.8.8 2.8-.5-.4-1-.5-1.6-.8.1.4-.1.8 0 1.2l-.6-.6c0 .3-.1.7-.1 1-.2-.1-.8-.3-1.1-.5-.1.2-.2.5-.3.7-.9-.7-1.9.4-2.8.4-.4.2-.7.3-1.1.4-.3.2-.7.6-.9.9 3.1-.4 6.1.7 9.2-.4m11.3-1.7c.2-.5.5-1.4 1.1-1.8.1.5.3.7.4 1.2.2-1.1 1.5-1.9 2.6-2.3-.5.7-1 1.5-1.1 2.3.4-.5 1-.7 1.5-.8-.1.3 0 .7-.1 1 .4-.4 1-.7 1.5-1 0 .5.1 1.1 0 1.6.5-.6.9-1 1.5-1.2 0 .3.3.7.4.9.2-.6.7-1 1.2-1.3 0 .3.2.7.2 1 .2-.3.7-.5.9-.7.2.5.2 1.8.2 2m-32.8-1.6c.1-.7 0-1.4-.5-2-.1.3-.4.7-.4.9-.4-.7-1-1.3-1.9-1.1.2.3.3.9.6 1.2-.5-.7-1.4-.8-2.3-.6.1.2.2.5.3.6-.7-.1-1.4-.2-2-.3.2.2.4.3.7.5-.8-.3-1.8-.6-2.4 0 .6.4.9.8 1.1 1.3"/><path fill="#989898" d="M50.2 62.9c0 1 .3 1.7.5 2.7.1.8-.3 1.8-.5 2.6-.2 1.1-.8 4 .6 4.6-.1.3-.1.7.1 1 .2-2-.2-3.6.6-5.4-1.1 0-.4-.9-.3-1.3.2-.6.2-1.4.1-2.1-.1-.6-.5-1.2-.7-1.8-.2-.7 0-1.5-.4-2 .2.5 0 1.1 0 1.7m-.8 3.4c-.3-1.2-1.4-2.1-2.2-3-.4-.5-.7-1.1-1.3-1.5-.4-.3-1-.7-1.1-1.1 1.5-.1 2.5 1.4 3.4 2.2 0-.6.1-1.4-.1-2 1 1.4 1.3 3.7 1.3 5.4m7.9-4.9c-.5.4-.2 1.4-.3 1.9 0 .6-.3 1.2-.3 1.9.1-.1.3-.1.4-.2 0 .5-.4.9-.3 1.5.1.5.4 1 .5 1.6.1.5.2.8.1 1.3-.1.3-.4 1-.1 1.3.3-.2.2-1 .4-1.4.2-.5.3-.7.2-1.2-.2-1-.2-1.6 0-2.6.2-.9-.2-1.6-.1-2.5.1-.5.2-.9.2-1.4 0-.4-.3-.8-.2-1.3-.3.4-.4.7-.5 1.1m-5.1 0c0-.7.5-3-.1-3.3-.1 0-.1.1-.2.2-.1-1.9-.3-3.8-.9-5.6-.1 2.1-1.1 4-.5 6 .2.5.3.7.6 1.2.2.5.1 1 .2 1.5.2.8.4 1.7.7 2.6m0 7.8c-.6 1.7-.1 3.9 0 5.7.1-.1.3-.3.3-.4.2.9.1 1.8.1 2.7 0 .9.2 1.7.2 2.5.5-.5.6-2.7.5-3.5-.1-1.2-.1-2.4-.1-3.7 0-1.1 0-2.3-.1-3.5-.1-1.1-.6-2-.6-3.1m-2.1 5.2c.1.7-.5 1-.7 1.6-.2.5 0 1 0 1.5.1 1.4 0 2.4.3 3.8.3 1.1.5 2.3.4 3.4 0 .5-.2 1-.2 1.5 0 .4.4.8.4 1.3.4-.4.3-1.8.4-2.5.2-.8.2-1.5.2-2.3 0-.7.3-1.6.1-2.2-.1-.3-.5-.5-.6-.8-.2-.4 0-1.2 0-1.6m7.5 6.2c.5 1.5-.4 3.2 0 4.7.5 1.6 1.4 3.2 2.7 4.4-1.5.1-3.3-2.5-3.6-3.5-.2-.8-.8-1.7-.9-2.4-.1-.8.6-1.3.1-2.2.4-.3.9-.5 1.3-.9m-1.2 0c1.6-.4.9-2.3.9-3.7 0-1.5.1-3.1 0-4.6-.6.4-.5 1.1-.6 1.8-.1.8-.4 1.1-.5 1.8-.2.7-.2.3-.1 1 .1.4.5.5.5 1s-.6.9-.5 1.6m-6.3 6.6c-.9.9-.3 3.1-1.4 4.3-1 1.1-2.5 1.5-3.8 1.9 1.5-.1 1.6-1.4 2-2.4 2.2-.2 1.9-5.3 2.3-6.9m2.1 6c-.3 1.1-.6 2.8-1.2 3.7-.6.9-2 1.7-1.9 2.9.9-.8 2.1-1.5 2.9-2.3 1.2-1.2.1-1.9.2-3.3m13.5-41.4c-1.3 1-2.9 2.8-4.1 3.8-.5.4-.9.6-1.2 1.2-.3.5-.2 1.3-.6 1.8-1.3-1.3.4-3.1.9-4.4 1.2-.1 3.9-1.8 5-2.4m-6.4 3.8c-.1-.3.4-.9.4-1.5s-.2-1.2-.4-1.7c-.4-1.1.1-2.4-.2-3.5-.3.4-1 2.9-.9 3.4.1.6 1 4.5 0 5.3" opacity=".25"/><linearGradient id="l" x1="112.866" x2="75.063" y1="-36.663" y2="54.508" gradientTransform="matrix(.8628 .0052 .0052 .8442 -3.352 91.545)" gradientUnits="userSpaceOnUse"><stop offset="0" stop-color="#70bf66"/><stop offset="1" stop-color="#696"/></linearGradient><path fill="url(#l)" stroke="#696" stroke-miterlimit="10" stroke-width=".25" d="M62.2 112.3c1.6-.5 4.1-.1 6.2-.5 2.1-.5 3.1-2.1 5-2.7 2.6-.8 5.5.5 8.2-.3 2.1-.6 5-1.7 6.7-3 1.9-1.5.6-3.8-1.4-5-2.2-1.3-5.6.2-8.1-.5 3.7-4.1 9.2-2.1 11.7-2.4 2.3-.2 2.7-2.1 4.5-3.4 1.1-.8 3.9-.5 5.2-1.1 1.1-.5 2-.5 1.3-1.9-.9-1.7-5.5-2.7-7.4-3-2.4-.4-5.1.3-7.5-.1.8-1.1 2.8-1.8 4.2-2.2 1.5-.5 4.5-.5 5.6-1.7 1.5-1.7-.3-3.2-2-3.7-1.4-.4-4.2.4-5.1-.2 1.5-2 7-2.7 6.5-5.9-.3-1.7-1.4-1-2.3-1.5-1.1-.7-.5-1.8-.7-3-.5-3.3-3.4-1.4-4.7.3-1.2 1.5-1.3 1.1-3.2 1-1.5-.1-1.8.5-1.9 1.9-.1 1.8 2.4 4.5 1.8 6-1.3-.3-2.3-3.1-3.4-4-1.5-1.3-4.3-2.1-4.8.2-.4 1.8 1.4 3.6 2.1 5.1.5 1.2 1.5 4.2.9 5.4-1-1.4-1.2-3.2-2.3-4.6-1.1-1.4-2.6-2.5-4.3-3.1-1.5-.6-6.7-2.5-7-.4-.2 1.9 3.2 4 3.8 5.7.4 1.2-.7 2.1-.5 3.4.2 1 1.4 1.9 2.2 2.7 2 2.2 3.8 3.1 2 7.9-1-1.5-2.2-3.5-3.5-4.9-1.7-2-4.7-3.4-5.9-.4-.9 2.2-.2 4.6.5 6.8.3 1 .8 2 1 3 .3 1.6-.3 2-.8 3.3-1 2.1 0 5.4-2.4 6.8"/><path fill="none" stroke="#339947" stroke-miterlimit="10" stroke-width=".25" d="M60.4 113.1c5.6-1.8 9.8-6.1 13.4-10.6 2.4-3 4.4-6.4 6.2-9.6 1.9-3.3 10.4-17.4 10.6-22.6"/><path fill="none" stroke="#339947" stroke-miterlimit="10" stroke-width=".25" d="M85.7 103.7c-6.8 0-10.3 1.1-15.2 3.5l-1.5.8.6-2.1c.3-1.8.4-1.5.3-3.8-.1-3.5-1.7-6-2.7-9.3m29.6-1.1c-3.5-.5-7.9.3-11.2 1.6-2.9 1.1-3.6 1.2-7.1 3.1l-.9.5.1-1c0-3.8.1-4.3-1.2-8-.5-1.5-1.3-3.2-2.2-4.6-.9-1.4-2-2.7-3.3-3.5"/><path fill="none" stroke="#339947" stroke-miterlimit="10" stroke-width=".25" d="M94.2 83c-4.1.2-6.7.5-10 3.2l-.7.6-.1-.9c-.2-3.5-1.1-6.8-3.6-8.7m5.9-4.6c1.3 2 1.8 2.7 2 4.6l.3 1.1.7-.4c1.8-1.1 2.1-1.7 4.4-2.5"/><path fill="#696" d="M60.3 19.7c-1.7-1.1-3.3-.5-5.1-.9-1.8-.4-3.4-1.1-5.4-1.3-1.3-.2-11.6 0-6.9 2.9-2.5.6-4.2 2.1-1.3 3.4-3.7 1.9-1.9 2.5 1 3.6-.3.4-.2 1.3-.5 1.8.5 0 1.4.6 1.8.6-1.5 1.6.3 2.4 2 2.5-.1 2.5 3 .8 4.6 1.1 1.5.3 3.3 1.9 4.8 2.4 2 .6 10 1.3 12 0 .4-.2 1.2-3.1 1.5-3.6 1-1.7 1.2-1.6 2.6-2.9 1.3-1.2 2-.9 2.4-3.1.2-1.3.2-3.3-1.8-3.6 1-4.2-7.9-3.2-10.6-2.7"/><path fill="#696" d="M39.8 22.5c-3-.4-6.8-1.5-9.7-.2-.1.2 0 .5-.1.7-1.4 0-2.3.5-1.7 1.7-.4.2-.6.8-.9 1.1.4.1.8.2 1.1.3-.3.5-.1.9-.2 1.3.5 0 .9.3 1.4.4-.4.4-.3 1.2-.5 1.6.7 0 1.4.5 2.2.4.1.3 0 .5.1.7 1.6.1 10.3.7 8.1-2.2 2.6-1.1 4.9-4.6.8-5.5"/><path fill="none" stroke="#346733" stroke-miterlimit="10" stroke-width=".25" d="M65.5 21.3c-.3-1.4 1.3-2.9 1.4-.9.3-.5.8-1.1 1.5-1.2-.1.6.2 1.1.3 1.6 1.3-.2 3.5.2 1.3 1.3.8-.1 1.2.1 1.3.7-.5.1-1 .5-1.3.6 1.2.4.8 1.4-.5 1.3" opacity=".47"/><linearGradient id="m" x1="-596.409" x2="-595.693" y1="-134.864" y2="-134.864" gradientTransform="rotate(-18.88 483.643 -1990.69)" gradientUnits="userSpaceOnUse"><stop offset="0" stop-color="#cb9866"/><stop offset="1" stop-color="#996733"/></linearGradient><path fill="url(#m)" stroke="#996733" stroke-miterlimit="10" stroke-width=".25" d="M62.1 114.4c.1.3.2.6.6.6.2-.3.1-.6 0-.9"/><linearGradient id="n" x1="-597.453" x2="-589.067" y1="-140.85" y2="-141.041" gradientTransform="rotate(-18.88 483.643 -1990.69)" gradientUnits="userSpaceOnUse"><stop offset="0" stop-color="#cb9866"/><stop offset="1" stop-color="#996733"/></linearGradient><path fill="url(#n)" stroke="#996733" stroke-miterlimit="10" stroke-width=".25" d="M53.7 105.4s1.4 6.1 5 8.1c1.5.8 2.5 1.4 3.9 1l.6-.2c1.4-.5 1.8-1.5 2.4-3.1 1.6-3.6-1.2-9.3-1.2-9.3"/><path fill="#FCF8CD" d="M57.8 105.5c-.1.8.7 2.8 1.1 3.5.4.8 1 1.5 1.9 1.9.8.3 1.9 0 2.7.6.7.5.6 1.5-.1 2.1-1.3 1.1-3.6.5-4.9-.4-1.5-1-2.2-2.3-2.8-3.8-.4-1-1.4-2.7-1.4-3.7" opacity=".18"/><path fill="#FCF8CD" d="M57.9 110.9c.7.7.9.7 1.8 1.1.9.3 1.5-.3 2.4-.4.8-.1 1.6.5.9 1.3-.8 1-2.9.7-3.8-.1 0 0-2.5-1.5-3.1-4.2 0 0 .4.9 1.8 2.3z" opacity=".33"/><linearGradient id="o" x1="-615.535" x2="-615.064" y1="-43.48" y2="-50.061" gradientTransform="matrix(.944 -.2979 .3398 1.0768 661.276 -30.445)" gradientUnits="userSpaceOnUse"><stop offset="0" stop-color="#cee194"/><stop offset="1" stop-color="#659941"/></linearGradient><path fill="url(#o)" stroke="#659941" stroke-miterlimit="10" stroke-width=".25" d="M64.5 102.4s.5-.4.2-1.3-.8.4-.7.7c.1.3.5.6.5.6z"/><linearGradient id="p" x1="-623.923" x2="-623.487" y1="-42.724" y2="-48.807" gradientTransform="matrix(.944 -.2979 .3398 1.0768 661.276 -30.445)" gradientUnits="userSpaceOnUse"><stop offset="0" stop-color="#cee194"/><stop offset="1" stop-color="#659941"/></linearGradient><path fill="url(#p)" stroke="#659941" stroke-miterlimit="10" stroke-width=".25" d="M56.1 106.1s1.2-.1 1.6-.3c.4-.2-.6-1.6-1.1-1.2-.4.4-1 1-.9 1.2.2.1.4.3.4.3z"/><linearGradient id="q" x1="-620.04" x2="-620.233" y1="-43.819" y2="-47.932" gradientTransform="matrix(.944 -.2979 .3398 1.0768 661.276 -30.445)" gradientUnits="userSpaceOnUse"><stop offset="0" stop-color="#cee194"/><stop offset="1" stop-color="#659941"/></linearGradient><path fill="url(#q)" stroke="#659941" stroke-miterlimit="10" stroke-width=".25" d="M59.5 104v1.1s.9-.3 1.5-.6c0 .1-1.1-1.5-1.5-.5z"/><linearGradient id="r" x1="-621.733" x2="-622.194" y1="-40.893" y2="-50.715" gradientTransform="matrix(.944 -.2979 .3398 1.0768 661.276 -30.445)" gradientUnits="userSpaceOnUse"><stop offset="0" stop-color="#cee194"/><stop offset="1" stop-color="#659941"/></linearGradient><path fill="url(#r)" stroke="#659941" stroke-miterlimit="10" stroke-width=".25" d="M57 104.9c0 .5.4.6.7.9 0 0 1.6-.5 1.7-.6.1-.1 0-1.1-.3-1.7-.3-.6-1.4-1-1.4-1l-.9 1.1.2 1.3z"/><linearGradient id="s" x1="-626.642" x2="-627.011" y1="-42.614" y2="-50.466" gradientTransform="matrix(.944 -.2979 .3398 1.0768 661.276 -30.445)" gradientUnits="userSpaceOnUse"><stop offset="0" stop-color="#cee194"/><stop offset="1" stop-color="#659941"/></linearGradient><path fill="url(#s)" stroke="#659941" stroke-miterlimit="10" stroke-width=".25" d="M52.6 104.2s0 .7.3 1.2c.4.5.8.6 1.1.7.3 0-.4-1.4-.4-1.4l-.7-.8-.3.3z"/><linearGradient id="t" x1="-625.056" x2="-625.528" y1="-40.903" y2="-50.963" gradientTransform="matrix(.944 -.2979 .3398 1.0768 661.276 -30.445)" gradientUnits="userSpaceOnUse"><stop offset="0" stop-color="#cee194"/><stop offset="1" stop-color="#659941"/></linearGradient><path fill="url(#t)" stroke="#659941" stroke-miterlimit="10" stroke-width=".25" d="M54.6 103.3s-1 .8-1 1.4c0 .6.3 1.4.3 1.4s1.3.3 2.2.1c.2-1.2-.3-3.4-1.5-2.9z"/><linearGradient id="u" x1="-617.536" x2="-617.245" y1="-44.023" y2="-48.091" gradientTransform="matrix(.944 -.2979 .3398 1.0768 661.276 -30.445)" gradientUnits="userSpaceOnUse"><stop offset="0" stop-color="#cee194"/><stop offset="1" stop-color="#659941"/></linearGradient><path fill="url(#u)" stroke="#659941" stroke-miterlimit="10" stroke-width=".25" d="M62.5 103.9s.5-.2.7-.5c.3-.2-.8-.5-.8-.5s-.3.4-.2.8c.1.4.3.2.3.2z"/><linearGradient id="v" x1="-627.084" x2="-625.161" y1="-44.132" y2="-52.065" gradientTransform="matrix(.944 -.2979 .3398 1.0768 661.276 -30.445)" gradientUnits="userSpaceOnUse"><stop offset="0" stop-color="#cee194"/><stop offset="1" stop-color="#659941"/></linearGradient><path fill="url(#v)" stroke="#659941" stroke-miterlimit="10" stroke-width=".25" d="M52.9 103.9c-.1.4 0 1 .3 1.3.1.1.3.3.5.4.2.1.3 0 .5-.1.7-.5 1-1.2.6-2.1-.1-.2-.3-.6-.6-.6-.4-.1-.6.3-.8.5l-.5.6z"/><linearGradient id="w" x1="-618.633" x2="-619.054" y1="-41.502" y2="-50.474" gradientTransform="matrix(.944 -.2979 .3398 1.0768 661.276 -30.445)" gradientUnits="userSpaceOnUse"><stop offset="0" stop-color="#cee194"/><stop offset="1" stop-color="#659941"/></linearGradient><path fill="url(#w)" stroke="#659941" stroke-miterlimit="10" stroke-width=".25" d="M60.1 103.8s.2.6.8.8c.9-.4 1.6-.8 1.6-.8s-.1-.7-.5-1.2-2.2-1.5-2.2-.1.3 1.3.3 1.3z"/><linearGradient id="x" x1="-624.686" x2="-622.793" y1="-40.952" y2="-53.83" gradientTransform="matrix(.944 -.2979 .3398 1.0768 661.276 -30.445)" gradientUnits="userSpaceOnUse"><stop offset="0" stop-color="#cee194"/><stop offset="1" stop-color="#659941"/></linearGradient><path fill="url(#x)" stroke="#659941" stroke-miterlimit="10" stroke-width=".25" d="M55.3 103.5c-.3.6.2 2.2.9 2.2.3 0 .7-.5.9-.8.2-.3.3-.8.3-1.2 0-.5-.3-1.1-.6-1.5-.5-.6-1 .2-1.2.7l-.3.6z"/><linearGradient id="y" x1="-619.788" x2="-621.057" y1="-41.575" y2="-52.699" gradientTransform="matrix(.944 -.2979 .3398 1.0768 661.276 -30.445)" gradientUnits="userSpaceOnUse"><stop offset="0" stop-color="#cee194"/><stop offset="1" stop-color="#659941"/></linearGradient><path fill="url(#y)" stroke="#659941" stroke-miterlimit="10" stroke-width=".25" d="M58.1 102.5c0 .9.8 2 1.7 2 1 0 .6-1.5.4-2.1-.1-.5-.5-.9-.9-1.2-.6-.3-1-.3-1.2.3v1z"/><linearGradient id="z" x1="-616.082" x2="-616.444" y1="-42.503" y2="-50.205" gradientTransform="matrix(.944 -.2979 .3398 1.0768 661.276 -30.445)" gradientUnits="userSpaceOnUse"><stop offset="0" stop-color="#cee194"/><stop offset="1" stop-color="#659941"/></linearGradient><path fill="url(#z)" stroke="#659941" stroke-miterlimit="10" stroke-width=".25" d="M62.5 102.6s.2.6.6.9c.7-.3 1.1-.6 1.2-.7.1-.2.3-.4.3-.4s0-.6-.8-1.1c-.7-.5-1.7-.2-1.5.8.3 1 .2.5.2.5z"/><linearGradient id="A" x1="-625.955" x2="-622.84" y1="-44.429" y2="-53.589" gradientTransform="matrix(.944 -.2979 .3398 1.0768 661.276 -30.445)" gradientUnits="userSpaceOnUse"><stop offset="0" stop-color="#cee194"/><stop offset="1" stop-color="#659941"/></linearGradient><path fill="url(#A)" stroke="#659941" stroke-miterlimit="10" stroke-width=".25" d="M54.2 102.2c-.1.4-.1.6 0 1 .1.5.3.5.7.8.6-.4 1.4-.9 1.4-1.8 0-.3-.2-.7-.5-.8-.5-.1-.7.4-1 .5l-.6.3z"/><linearGradient id="B" x1="-615.018" x2="-619.551" y1="-41.719" y2="-51.485" gradientTransform="matrix(.944 -.2979 .3398 1.0768 661.276 -30.445)" gradientUnits="userSpaceOnUse"><stop offset="0" stop-color="#cee194"/><stop offset="1" stop-color="#659941"/></linearGradient><path fill="url(#B)" stroke="#659941" stroke-miterlimit="10" stroke-width=".25" d="M60.4 101.6c.2.7 1.4 2.3 2.2 1.6.5-.5 0-1.9-.5-2.3-.5-.3-1.4-.7-1.6 0l-.1.7z"/><linearGradient id="C" x1="-613.702" x2="-617.534" y1="-41.502" y2="-53.816" gradientTransform="matrix(.944 -.2979 .3398 1.0768 661.276 -30.445)" gradientUnits="userSpaceOnUse"><stop offset="0" stop-color="#cee194"/><stop offset="1" stop-color="#659941"/></linearGradient><path fill="url(#C)" stroke="#659941" stroke-miterlimit="10" stroke-width=".25" d="M62.5 101.2c.2.7 1.9.9 2.2.3 0 0 .1-.5-.2-1-.3-.5-2.1-1.2-2.3-.7-.2.4.3 1.4.3 1.4z"/><linearGradient id="D" x1="-623.29" x2="-620.979" y1="-42.458" y2="-53.647" gradientTransform="matrix(.944 -.2979 .3398 1.0768 661.276 -30.445)" gradientUnits="userSpaceOnUse"><stop offset="0" stop-color="#cee194"/><stop offset="1" stop-color="#659941"/></linearGradient><path fill="url(#D)" stroke="#659941" stroke-miterlimit="10" stroke-width=".25" d="M57.1 100.9c.3-.3.5-.4.9-.1.7.6.6 1.6 0 2.2-.1.1-.3.3-.5.4-.2.1-.3.1-.5-.1-.3-.4-.7-.9-.5-1.4l.6-1z"/><linearGradient id="E" x1="1497.716" x2="1500.9" y1="-44.716" y2="-54.083" gradientTransform="matrix(-.944 .2979 .3398 1.0768 1493.774 -292.817)" gradientUnits="userSpaceOnUse"><stop offset="0" stop-color="#cee194"/><stop offset="1" stop-color="#659941"/></linearGradient><path fill="url(#E)" stroke="#659941" stroke-miterlimit="10" stroke-width=".25" d="M62.1 99.6c.3.2.5.4.6.8.1.5 0 .6-.1 1-.8 0-1.7 0-2.2-.7-.2-.3-.3-.7 0-1 .3-.3.8-.1 1.1-.2l.6.1z"/><linearGradient id="F" x1="-629.597" x2="-623.595" y1="-43.645" y2="-53.495" gradientTransform="matrix(.944 -.2979 .3398 1.0768 661.276 -30.445)" gradientUnits="userSpaceOnUse"><stop offset="0" stop-color="#cee194"/><stop offset="1" stop-color="#659941"/></linearGradient><path fill="url(#F)" stroke="#659941" stroke-miterlimit="10" stroke-width=".25" d="M54.1 102.4c.1.2 0 .6-.1.7-.1.3-.3.4-.5.6-.3.3-.6.5-.9.7 0 0-.2-1 .6-2 .8-.1.9 0 .9 0z"/><linearGradient id="G" x1="-612.85" x2="-618.384" y1="-45.226" y2="-52.993" gradientTransform="matrix(.944 -.2979 .3398 1.0768 661.276 -30.445)" gradientUnits="userSpaceOnUse"><stop offset="0" stop-color="#cee194"/><stop offset="1" stop-color="#659941"/></linearGradient><path fill="url(#G)" stroke="#659941" stroke-miterlimit="10" stroke-width=".25" d="M62.3 99.8s.7 1.1 2.1.7c-.4-.9-1.1-1.1-1.2-1.1h-.3l-.6.4z"/><linearGradient id="H" x1="1499.598" x2="1501.946" y1="-42.707" y2="-54.072" gradientTransform="matrix(-.944 .2979 .3398 1.0768 1493.375 -292.69)" gradientUnits="userSpaceOnUse"><stop offset="0" stop-color="#cee194"/><stop offset="1" stop-color="#659941"/></linearGradient><path fill="url(#H)" stroke="#659941" stroke-miterlimit="10" stroke-width=".25" d="M59.3 100.1c-.5-.1-.6-.1-.8.4-.2.9.4 1.6 1.3 1.8.2 0 .4.1.6.1.3 0 .3-.1.3-.4 0-.5 0-1.1-.4-1.5l-1-.4z"/><linearGradient id="I" x1="-628.08" x2="-619.833" y1="-49.006" y2="-51.43" gradientTransform="matrix(.944 -.2979 .3398 1.0768 661.276 -30.445)" gradientUnits="userSpaceOnUse"><stop offset="0" stop-color="#cee194"/><stop offset="1" stop-color="#659941"/></linearGradient><path fill="url(#I)" stroke="#659941" stroke-miterlimit="10" stroke-width=".25" d="M53.1 102.6s1.9 0 2.6-1.2c.3-.8.4-1.1.4-1.1s-1.9.8-3 2.3z"/><linearGradient id="J" x1="-620.906" x2="-624.335" y1="-53.635" y2="-45.858" gradientTransform="matrix(.944 -.2979 .3398 1.0768 661.276 -30.445)" gradientUnits="userSpaceOnUse"><stop offset="0" stop-color="#cee194"/><stop offset="1" stop-color="#659941"/></linearGradient><path fill="url(#J)" stroke="#659941" stroke-miterlimit="10" stroke-width=".25" d="M57.3 99.7c.2.5.4.9.2 1.4-.3.6-.6.8-1.2.9-.2-.2-.4-.5-.5-.7-.1-.3 0-.6 0-.9l.6-.4.9-.3z"/><linearGradient id="K" x1="1503.523" x2="1499.962" y1="-54.021" y2="-45.945" gradientTransform="matrix(-.944 .2979 .3398 1.0768 1493.5 -292.727)" gradientUnits="userSpaceOnUse"><stop offset="0" stop-color="#cee194"/><stop offset="1" stop-color="#659941"/></linearGradient><path fill="url(#K)" stroke="#659941" stroke-miterlimit="10" stroke-width=".25" d="M57.3 99.7c.1.5.2 1 .7 1.3.6.3 1 .3 1.6.1 0-.2.1-.6 0-.9-.1-.3-.6-.8-.8-1l-.7.1-.8.4z"/><linearGradient id="L" x1="-617.03" x2="-620.411" y1="-44.51" y2="-55.562" gradientTransform="matrix(.944 -.2979 .3398 1.0768 661.276 -30.445)" gradientUnits="userSpaceOnUse"><stop offset="0" stop-color="#cee194"/><stop offset="1" stop-color="#659941"/></linearGradient><path fill="url(#L)" stroke="#659941" stroke-miterlimit="10" stroke-width=".25" d="M58.7 99.2c.4.7.8 1.1 1.6 1.3.4.1.7.1.7-.4 0-.4-.1-.8-.4-1.1 0 0-1.2 0-1.9.2"/><linearGradient id="M" x1="-612.521" x2="-621.404" y1="-44.366" y2="-56.115" gradientTransform="matrix(.944 -.2979 .3398 1.0768 661.276 -30.445)" gradientUnits="userSpaceOnUse"><stop offset="0" stop-color="#cee194"/><stop offset="1" stop-color="#659941"/></linearGradient><path fill="url(#M)" stroke="#659941" stroke-miterlimit="10" stroke-width=".25" d="M60.5 99c.3.6.7.9 1.4.9.4 0 1.1-.1 1.3-.6 0 0-1.2-.6-2.7-.3z"/><path fill="none" stroke="#346733" stroke-miterlimit="10" stroke-width=".25" d="M52.7 104.7c-.6-2.6 2.9-4.5 5-5.2 1.3-.4 3.2-.8 4.5-.4 1.7.5 1.9.9 2.6 2.3 0 0 .6 1.8-4.6 3.5-4.5 1.5-3.8 1.5-6.5 1.1-.8-.6-1-1.3-1-1.3z"/><path fill="#346733" d="M56.9 99.8c.2.6 1 .1 1.1-.4 0-.5-.6-.8-.7-1.4-.3 0-.5.1-.7.3l.3 1.5z"/><linearGradient id="N" x1="-226.671" x2="-226.058" y1="-228.196" y2="-228.196" gradientTransform="rotate(-70.598 167.798 -273.989)" gradientUnits="userSpaceOnUse"><stop offset="0" stop-color="#cb9866"/><stop offset="1" stop-color="#996733"/></linearGradient><path fill="url(#N)" stroke="#996733" stroke-miterlimit="10" stroke-width=".25" d="M79.6 113.2c.3.1.6.2.8-.1-.1-.3-.4-.4-.7-.5"/><linearGradient id="O" x1="-227.566" x2="-220.386" y1="-233.703" y2="-233.867" gradientTransform="rotate(-70.598 167.798 -273.989)" gradientUnits="userSpaceOnUse"><stop offset="0" stop-color="#cb9866"/><stop offset="1" stop-color="#996733"/></linearGradient><path fill="url(#O)" stroke="#996733" stroke-miterlimit="10" stroke-width=".25" d="M68.4 113.8s5.3 2.4 8.6 1.1c1.4-.6 2.4-.9 2.9-2l.2-.5c.4-1.2-.2-2-.9-3.3-1.7-3-7.4-4.3-7.4-4.3"/><path fill="#FCF8CD" d="M70.7 111.2c.5.5 2.4 1 3.1 1.1.8.1 1.6.1 2.4-.2.7-.3 1.1-1.3 1.9-1.5.8-.2 1.4.4 1.5 1.2.1 1.4-1.6 2.6-3 3-1.5.4-2.9.2-4.3-.2-1-.3-2.8-.6-3.5-1.1" opacity=".18"/><path fill="#FCF8CD" d="M74.7 114c.9-.1 1-.2 1.8-.6.7-.4.6-1.2 1-1.8.4-.6 1.3-.7 1.4.1.2 1.1-1.1 2.3-2.1 2.5 0 0-2.5.8-4.8-.2 0 0 .9.2 2.7 0z" opacity=".33"/><linearGradient id="P" x1="-244.237" x2="-243.804" y1="-134.027" y2="-140.073" gradientTransform="matrix(.3511 -.9255 1.0557 .4005 302.59 -65.957)" gradientUnits="userSpaceOnUse"><stop offset="0" stop-color="#cee194"/><stop offset="1" stop-color="#659941"/></linearGradient><path fill="url(#P)" stroke="#659941" stroke-miterlimit="10" stroke-width=".25" d="M72.2 105s0-.6-.9-.8c-.8-.3-.2.7.1.8.3.1.8 0 .8 0z"/><linearGradient id="Q" x1="-251.412" x2="-251.011" y1="-133.334" y2="-138.93" gradientTransform="matrix(.3511 -.9255 1.0557 .4005 302.59 -65.957)" gradientUnits="userSpaceOnUse"><stop offset="0" stop-color="#cee194"/><stop offset="1" stop-color="#659941"/></linearGradient><path fill="url(#Q)" stroke="#659941" stroke-miterlimit="10" stroke-width=".25" d="M70.2 112.6s.6-.9.7-1.3c.1-.4-1.5-.5-1.5 0 .1.5.2 1.2.4 1.2.2.1.4.1.4.1z"/><linearGradient id="R" x1="-248.065" x2="-248.242" y1="-134.338" y2="-138.124" gradientTransform="matrix(.3511 -.9255 1.0557 .4005 302.59 -65.957)" gradientUnits="userSpaceOnUse"><stop offset="0" stop-color="#cee194"/><stop offset="1" stop-color="#659941"/></linearGradient><path fill="url(#R)" stroke="#659941" stroke-miterlimit="10" stroke-width=".25" d="M70.6 109.2l.8.6s.3-.7.4-1.4c0 .1-1.8-.1-1.2.8z"/><linearGradient id="S" x1="-249.505" x2="-249.93" y1="-131.652" y2="-140.687" gradientTransform="matrix(.3511 -.9255 1.0557 .4005 302.59 -65.957)" gradientUnits="userSpaceOnUse"><stop offset="0" stop-color="#cee194"/><stop offset="1" stop-color="#659941"/></linearGradient><path fill="url(#S)" stroke="#659941" stroke-miterlimit="10" stroke-width=".25" d="M69.9 111.3c.4.3.7.1 1.1 0 0 0 .5-1.3.5-1.5 0-.1-.8-.6-1.4-.7-.6-.1-1.5.4-1.5.4l.3 1.2 1 .6z"/><linearGradient id="T" x1="-253.713" x2="-254.052" y1="-133.241" y2="-140.462" gradientTransform="matrix(.3511 -.9255 1.0557 .4005 302.59 -65.957)" gradientUnits="userSpaceOnUse"><stop offset="0" stop-color="#cee194"/><stop offset="1" stop-color="#659941"/></linearGradient><path fill="url(#T)" stroke="#659941" stroke-miterlimit="10" stroke-width=".25" d="M66.9 113.8s.5.4 1.1.4c.6 0 .9-.2 1.1-.4.2-.2-1.3-.5-1.3-.5h-1l.1.5z"/><linearGradient id="U" x1="-252.35" x2="-252.785" y1="-131.664" y2="-140.919" gradientTransform="matrix(.3511 -.9255 1.0557 .4005 302.59 -65.957)" gradientUnits="userSpaceOnUse"><stop offset="0" stop-color="#cee194"/><stop offset="1" stop-color="#659941"/></linearGradient><path fill="url(#U)" stroke="#659941" stroke-miterlimit="10" stroke-width=".25" d="M67.3 112s0 1.1.5 1.4c.5.3 1.2.6 1.2.6s.9-.7 1.3-1.4c-.7-.7-2.7-1.6-3-.6z"/><linearGradient id="V" x1="-245.939" x2="-245.671" y1="-134.529" y2="-138.267" gradientTransform="matrix(.3511 -.9255 1.0557 .4005 302.59 -65.957)" gradientUnits="userSpaceOnUse"><stop offset="0" stop-color="#cee194"/><stop offset="1" stop-color="#659941"/></linearGradient><path fill="url(#V)" stroke="#659941" stroke-miterlimit="10" stroke-width=".25" d="M72.1 107.1s.1-.4.1-.7c0-.3-.8.2-.8.2s.2.4.5.5c.3.2.2 0 .2 0z"/><linearGradient id="W" x1="-254.162" x2="-252.408" y1="-134.664" y2="-141.903" gradientTransform="matrix(.3511 -.9255 1.0557 .4005 302.59 -65.957)" gradientUnits="userSpaceOnUse"><stop offset="0" stop-color="#cee194"/><stop offset="1" stop-color="#659941"/></linearGradient><path fill="url(#W)" stroke="#659941" stroke-miterlimit="10" stroke-width=".25" d="M66.9 113.5c.3.3.7.6 1.1.6.2 0 .4 0 .5-.1.2-.1.1-.2.1-.4 0-.7-.3-1.4-1.2-1.6-.2-.1-.6-.1-.8 0-.3.2-.1.6-.1.8l.4.7z"/><linearGradient id="X" x1="-246.852" x2="-247.24" y1="-132.203" y2="-140.461" gradientTransform="matrix(.3511 -.9255 1.0557 .4005 302.59 -65.957)" gradientUnits="userSpaceOnUse"><stop offset="0" stop-color="#cee194"/><stop offset="1" stop-color="#659941"/></linearGradient><path fill="url(#X)" stroke="#659941" stroke-miterlimit="10" stroke-width=".25" d="M70.8 108.7s.5.2 1-.1c.2-.8.3-1.5.3-1.5s-.6-.4-1.2-.4-2.3.6-1.3 1.4c1 .8 1.2.6 1.2.6z"/><linearGradient id="Y" x1="-252.113" x2="-250.38" y1="-131.734" y2="-143.53" gradientTransform="matrix(.3511 -.9255 1.0557 .4005 302.59 -65.957)" gradientUnits="userSpaceOnUse"><stop offset="0" stop-color="#cee194"/><stop offset="1" stop-color="#659941"/></linearGradient><path fill="url(#Y)" stroke="#659941" stroke-miterlimit="10" stroke-width=".25" d="M67.9 111.7c.2.5 1.7 1.1 2.1.6.2-.2 0-.8-.1-1-.1-.3-.4-.6-.7-.8-.4-.2-1-.4-1.4-.4-.7 0-.4.8-.1 1.2l.2.4z"/><linearGradient id="Z" x1="-247.814" x2="-248.981" y1="-132.28" y2="-142.508" gradientTransform="matrix(.3511 -.9255 1.0557 .4005 302.59 -65.957)" gradientUnits="userSpaceOnUse"><stop offset="0" stop-color="#cee194"/><stop offset="1" stop-color="#659941"/></linearGradient><path fill="url(#Z)" stroke="#659941" stroke-miterlimit="10" stroke-width=".25" d="M68.7 109.3c.6.4 1.9.6 2.4 0s-.7-1.2-1.3-1.4c-.4-.2-1-.2-1.4 0-.5.2-.7.5-.5 1l.8.4z"/><linearGradient id="aa" x1="-244.671" x2="-245.004" y1="-133.121" y2="-140.212" gradientTransform="matrix(.3511 -.9255 1.0557 .4005 302.59 -65.957)" gradientUnits="userSpaceOnUse"><stop offset="0" stop-color="#cee194"/><stop offset="1" stop-color="#659941"/></linearGradient><path fill="url(#aa)" stroke="#659941" stroke-miterlimit="10" stroke-width=".25" d="M71.2 106.4s.5.2 1 .1c.2-.7.2-1.1.1-1.2l-.2-.4s-.4-.3-1.2-.1c-.8.2-1.1 1-.2 1.4.9.4.5.2.5.2z"/><linearGradient id="ab" x1="-253.228" x2="-250.406" y1="-134.973" y2="-143.271" gradientTransform="matrix(.3511 -.9255 1.0557 .4005 302.59 -65.957)" gradientUnits="userSpaceOnUse"><stop offset="0" stop-color="#cee194"/><stop offset="1" stop-color="#659941"/></linearGradient><path fill="url(#ab)" stroke="#659941" stroke-miterlimit="10" stroke-width=".25" d="M66.3 111.7c.2.3.4.4.7.5.4.2.6.1.9 0 0-.6.1-1.4-.6-1.9-.3-.2-.6-.3-.9-.1-.3.3-.1.6-.2.9l.1.6z"/><linearGradient id="ac" x1="-243.616" x2="-247.744" y1="-132.462" y2="-141.356" gradientTransform="matrix(.3511 -.9255 1.0557 .4005 302.59 -65.957)" gradientUnits="userSpaceOnUse"><stop offset="0" stop-color="#cee194"/><stop offset="1" stop-color="#659941"/></linearGradient><path fill="url(#ac)" stroke="#659941" stroke-miterlimit="10" stroke-width=".25" d="M69.3 107.3c.6.3 2.5.3 2.4-.6-.1-.6-1.3-1.1-1.9-.9-.5.1-1.2.6-.9 1.1l.4.4z"/><linearGradient id="ad" x1="-242.535" x2="-246.024" y1="-132.269" y2="-143.482" gradientTransform="matrix(.3511 -.9255 1.0557 .4005 302.59 -65.957)" gradientUnits="userSpaceOnUse"><stop offset="0" stop-color="#cee194"/><stop offset="1" stop-color="#659941"/></linearGradient><path fill="url(#ad)" stroke="#659941" stroke-miterlimit="10" stroke-width=".25" d="M70.1 105.7c.6.2 1.8-.8 1.4-1.3 0 0-.3-.3-.8-.4-.6-.1-2.1.7-1.8 1.1.3.4 1.2.6 1.2.6z"/><linearGradient id="ae" x1="-250.94" x2="-248.829" y1="-133.132" y2="-143.356" gradientTransform="matrix(.3511 -.9255 1.0557 .4005 302.59 -65.957)" gradientUnits="userSpaceOnUse"><stop offset="0" stop-color="#cee194"/><stop offset="1" stop-color="#659941"/></linearGradient><path fill="url(#ae)" stroke="#659941" stroke-miterlimit="10" stroke-width=".25" d="M67 109.1c0-.4-.1-.5.4-.6.9-.1 1.5.5 1.6 1.2v.5c0 .2-.1.2-.3.2-.5 0-1.1 0-1.3-.4l-.4-.9z"/><linearGradient id="af" x1="1126.81" x2="1129.702" y1="-134.232" y2="-142.74" gradientTransform="matrix(-.3511 .9255 1.0557 .4005 611.613 -882.846)" gradientUnits="userSpaceOnUse"><stop offset="0" stop-color="#cee194"/><stop offset="1" stop-color="#659941"/></linearGradient><path fill="url(#af)" stroke="#659941" stroke-miterlimit="10" stroke-width=".25" d="M68.8 105c.3-.1.6-.1.9.1.4.1.5.3.7.6-.4.5-.9 1.1-1.8 1.1-.3 0-.7-.2-.7-.5-.1-.4.4-.5.5-.9l.4-.4z"/><linearGradient id="ag" x1="-256.367" x2="-251.044" y1="-134.367" y2="-143.103" gradientTransform="matrix(.3511 -.9255 1.0557 .4005 302.59 -65.957)" gradientUnits="userSpaceOnUse"><stop offset="0" stop-color="#cee194"/><stop offset="1" stop-color="#659941"/></linearGradient><path fill="url(#ag)" stroke="#659941" stroke-miterlimit="10" stroke-width=".25" d="M66.4 111.8c.2 0 .4.3.5.5.1.2.1.4.2.6v1s-.9-.4-1.1-1.5c.3-.5.4-.6.4-.6z"/><linearGradient id="ah" x1="-241.828" x2="-246.744" y1="-135.754" y2="-142.653" gradientTransform="matrix(.3511 -.9255 1.0557 .4005 302.59 -65.957)" gradientUnits="userSpaceOnUse"><stop offset="0" stop-color="#cee194"/><stop offset="1" stop-color="#659941"/></linearGradient><path fill="url(#ah)" stroke="#659941" stroke-miterlimit="10" stroke-width=".25" d="M69.1 105s1.2.2 1.6-1c-.9-.3-1.4.1-1.5.2l-.2.3.1.5z"/><linearGradient id="ai" x1="1128.368" x2="1130.517" y1="-132.36" y2="-142.764" gradientTransform="matrix(-.3511 .9255 1.0557 .4005 611.465 -882.455)" gradientUnits="userSpaceOnUse"><stop offset="0" stop-color="#cee194"/><stop offset="1" stop-color="#659941"/></linearGradient><path fill="url(#ai)" stroke="#659941" stroke-miterlimit="10" stroke-width=".25" d="M67.6 107.2c-.3.3-.4.4-.1.7.6.6 1.4.6 2 .1.1-.1.3-.2.4-.4.1-.2.1-.2-.1-.4-.3-.3-.8-.6-1.3-.5l-.9.5z"/><linearGradient id="aj" x1="-254.979" x2="-247.882" y1="-139.184" y2="-141.27" gradientTransform="matrix(.3511 -.9255 1.0557 .4005 302.59 -65.957)" gradientUnits="userSpaceOnUse"><stop offset="0" stop-color="#cee194"/><stop offset="1" stop-color="#659941"/></linearGradient><path fill="url(#aj)" stroke="#659941" stroke-miterlimit="10" stroke-width=".25" d="M66 112.6s1-1.3.6-2.4c-.4-.6-.5-.9-.5-.9s-.5 1.8-.1 3.3z"/><linearGradient id="ak" x1="-248.762" x2="-251.846" y1="-143.301" y2="-136.308" gradientTransform="matrix(.3511 -.9255 1.0557 .4005 302.59 -65.957)" gradientUnits="userSpaceOnUse"><stop offset="0" stop-color="#cee194"/><stop offset="1" stop-color="#659941"/></linearGradient><path fill="url(#ak)" stroke="#659941" stroke-miterlimit="10" stroke-width=".25" d="M66.2 108.3c.5.1.9.2 1.2.6.3.5.2.9 0 1.3-.2 0-.6 0-.8-.1-.3-.1-.4-.3-.7-.5l.1-.6.2-.7z"/><linearGradient id="al" x1="1131.901" x2="1128.686" y1="-142.676" y2="-135.384" gradientTransform="matrix(-.3511 .9255 1.0557 .4005 611.512 -882.576)" gradientUnits="userSpaceOnUse"><stop offset="0" stop-color="#cee194"/><stop offset="1" stop-color="#659941"/></linearGradient><path fill="url(#al)" stroke="#659941" stroke-miterlimit="10" stroke-width=".25" d="M66.2 108.3c.5.2.9.4 1.3.3.6-.2.8-.5.9-1-.2-.1-.4-.4-.6-.5-.3-.1-.9 0-1.2-.1l-.3.5-.1.8z"/><linearGradient id="am" x1="-245.405" x2="-248.47" y1="-135.053" y2="-145.07" gradientTransform="matrix(.3511 -.9255 1.0557 .4005 302.59 -65.957)" gradientUnits="userSpaceOnUse"><stop offset="0" stop-color="#cee194"/><stop offset="1" stop-color="#659941"/></linearGradient><path fill="url(#am)" stroke="#659941" stroke-miterlimit="10" stroke-width=".25" d="M66.7 107.1c.7.1 1.3.1 1.8-.4.3-.2.4-.4.1-.7-.3-.2-.7-.3-1-.4-.1.1-.8.9-.9 1.5"/><linearGradient id="an" x1="-241.544" x2="-249.368" y1="-135.065" y2="-145.414" gradientTransform="matrix(.3511 -.9255 1.0557 .4005 302.59 -65.957)" gradientUnits="userSpaceOnUse"><stop offset="0" stop-color="#cee194"/><stop offset="1" stop-color="#659941"/></linearGradient><path fill="url(#an)" stroke="#659941" stroke-miterlimit="10" stroke-width=".25" d="M67.5 105.8c.6.1 1 0 1.4-.4.2-.3.5-.8.3-1.2 0 0-1.1.4-1.7 1.6z"/><path fill="none" stroke="#346733" stroke-miterlimit="10" stroke-width=".25" d="M67.2 114c-2.1-1.3-1.5-4.4-.8-6.2.4-1.1 1-2.6 2.1-3.3 1.4-.8 1.5-.9 3-.4 0 0 2 .7.1 5.2-1.4 3.8-1 3.4-2.8 4.9-1 .1-1.6-.2-1.6-.2z"/><path fill="#346733" d="M66 108.7c.6.3.8-.6.5-1-.4-.4-1-.2-1.5-.5-.2.2-.3.4-.3.6l1.3.9z"/><path fill="none" stroke="#346733" stroke-miterlimit="10" stroke-width=".25" d="M22.4 18.8c.4 0 .9-.1 1.3-.3-.1-.3 0-.7-.1-1.1.8-.3 2.6-.9 1-1.7-.3-.2-3.8.1-1.7-.9-1-.1-1.2-1.2-.1-1.4-.4-.3-.6-.8-.6-1.3.4 0 .9-.1 1.3 0m-.1-.2c-.3-1.7 2.2-2.2 3.4-2.6m0 0c.5-.7 1.4-1 2.2-.5.2-.7.9-1.1 1.7-.8.7-.9 1.8-.8 2.5-.2.3-.3.6-.6.8-.9-.7-.1-1.6-.4-2-1 1.5-.6.2-.8.6-1.1.5-.4 1.4.3 1.3-.7 1-.1 1.9-.1 2.9-.2 0-.3.2-.4.2-.7 2.4 0 4.7-.1 7-.6 1.5-.4 1.3.6 2.9.6.6 0 .7-.1 1.4 0 .5.1.6.7 1.4.3m16.2 1.9s2.6.6 2.8 1.2c0 0 3.6-.9 4.4.4-.3.6-.3.4-.3.4s1.6-.2 1.9.4l.3.5 1 .2-.9 1.3s1.2-.3 1.5.1c.3.4.4.8.4.8s2.3 0 2 1.3c1.3.1 2.8.3 1.5 1.5 1.3.5 1.9 1.3.2 2.5.7.5 1 1.7.4 2.1.6.3.9.9.9 1.5 0 .5 1.6-1.4 1.7.9 0 0 1-.7 1.6-.2.6.5.6 1.1.3 1.5.9.1 2.1.1.7 2.3M12.5 61.9s-1 1.2.8 1.3 1.7.2 1.5.7c-.1.5-1 1.8-.3 2 .7.2 1.1 0 1.1 0l.1 1.6s.8 0 1.5-.1c.7-.2 1.1-.2 1.5-.1.3.2.7.5.6.9-.1.4-.1.6-.1.6s1.2.3 1.4.1l.2-.1s.3 1.2.8 1.3c.5.1 1.1-.3 1.1-.3s.7.7 1 .7c.4 0 1.1-.1 1.4-.2.3-.1.5-.2 1-.2s1.3.1 1.6-.1c.3-.2.7-1 .5-1.5s1.4.4 1.7.6c.3.2 1.5.7 1.7.6.3-.1.4-.8.4-.8s.4.2.8.1c.3-.1.9-1.1.6-1.3-.2-.2 2.2-.1.5-2.5 1.3-.1 1.8.1 2.1-.2.3-.3 1-1.3-.2-1.6.1-.3.5-1.5-1.1-1.6-1.6-.1-1.1.1-1.1.1m41.6 8.3c-1.4.2-2.2-.9-2.2-.9s-.9.5-1.5.6c-.6.1-1-.6-1-.6s-.6.1-1 0 0-1 0-1H69s.1-.6.9-1 .1-.5-.6-.7c-.6-.2-2.2-.7-2.4-.9-.3-.2.7-.5.5-.7-.2-.1-.3-1.4-.3-1.4l.5-.1s-.1-.4.1-.9 1.7-.1 1.7-.1l.7-.3s0-.5.3-.7l.3-.3-.7-.4s-.6-.8-.3-1c.3-.2 1.1-.6 1.1-.6 1-.1.6-.5.8-.8.2-.3.9-.3.9-.3v-.9s-1.1.3-1.3-.1-.7-.8-.7-1.1c.1-.5-1.5-1.8.1-2.4l-.1-1.1h-1.3l-.5-.6s-.9.6-1.2.1c-.3-.5.4-1.4.4-1.4h-.5s-.2.3-.5.4c-.3.1-.6.1-.6.1 0-.6-2-.8-.9-1.6-.3.1-.7-.2-.7-.2l-.2-.7 1.1-2-1.1-.2-1.2.4c-.4 1.2-1.7 2-3.3.8-2.1 1.1-3.5-.5-4.5-1.5-1.4.2-2.1-.4-2.3-1.5-2.3-1-1.8-2.2-1.1-2.6.2-2.4 2.1-1.1 2.1-1.1l1-.8s-2.3-.7-2.9-1.2c-.6-.5-3.7-1.2-3.7-1.2l-2 .6s-.5 1-.9 1.2c-.4.2-1.7-.2-1.7-.2l-1.6.8-.4 1.3"/></g></switch></svg>
