<svg xmlns="http://www.w3.org/2000/svg" xmlns:xlink="http://www.w3.org/1999/xlink" id="Capa_1" x="0" y="0" version="1.1" xml:space="preserve" viewBox="0 0 220 129"><style>.st0{fill:none}.st4{fill:#9b9b9f}.st7,.st8{fill:#4f81a6;stroke:#555;stroke-width:.25;stroke-miterlimit:10}.st8{fill:none}.st10,.st9{fill:#2a4656}.st9{opacity:.71}.st10{opacity:.42}.st11{opacity:8.000000e-02;fill:#151516}.st12,.st13{fill:#887b5e;stroke:#887b5e;stroke-width:.25}.st13{fill:#948769;stroke:#948769}.st14{fill:#fff}.st15,.st16,.st17{fill:#7d6f4d;stroke:#7d6f4d;stroke-width:.25}.st16,.st17{fill:#aca181;stroke:#9e9376}.st17{fill:#9e9376}.st19{fill:#636261}.st22{fill:#e3ecf1}.st25{opacity:5.000000e-02;fill:#131313;stroke:#131313;stroke-width:.25}.st27{fill:#575f5f}.st28{fill:#6b6d6d}.st29{fill:#323333}.st30{fill:#444445}.st31{fill:#696c6a}.st32{fill:#979798}.st33{fill:#bcbcbc}.st34{opacity:.23;fill:#464647}.st42{fill:#09090c}.st67{fill:#232154;stroke-width:.25}.st67,.st68{stroke:#000}.st68,.st69,.st70{stroke-width:.25}.st69{fill:#dbb88b;stroke:#ba8e61}.st70{fill:#bcbcbc}.st70,.st71{stroke:#8b8b8b}.st71,.st72{stroke-width:.25}.st71{fill:#8b8b8b}.st72{fill:#7f7e7e;stroke:#7f7e7e}.st73{fill:#687072}.st74{fill:#565e5e}.st75{fill:#020202}.st76{fill:#1f2022}.st77{fill:#6a6c6b}.st78{fill:#565857}.st79{fill:#333}.st80{fill:#4b5253}.st81{fill:#4d4e4e}.st82{fill:#7a8082}.st83{fill:none;stroke:#8b8b8b;stroke-width:.25}.st84{fill:#020202;stroke:#020202}.st84,.st85,.st86{stroke-width:.25}.st85{fill:#5a5a5a;stroke:#8b8b8b}.st86{fill:#fffff9;stroke:#020202}.st93{fill:#fffff8}.st94{fill:#f3f3f3}.st98{fill:#edca32;stroke:#edca32}.st101,.st104,.st98,.st99{stroke-width:.25}.st99{fill:#d6b738;stroke:#d6b738}.st101{fill:#575f5f;stroke:#575f5f}.st104{fill:#0b0b0d;stroke:#000}.st111{fill:#d77c85}.st112{opacity:.48}.st127{fill:#c1a13a;stroke:#c1a13a}.st127,.st128,.st129{stroke-width:.25}.st128{fill:#cfcfcf;stroke:#cfcfcf}.st129{fill:#afafaf;stroke:#afafaf}.st130{fill:#dbdfc5}.st131{fill:#d1d4b9}.st132{fill:#c8cbb0}.st133{fill:#e9ebdb}.st134{fill:#4e658a}.st135{opacity:.25;fill:#f9fbff}.st136,.st137{fill:#dde0cd}.st137{opacity:.44}.st138{fill:#dde0cb}.st139{fill:#e0e5d3}.st140{fill:#d3d7c9}.st141{fill:#d7d9cc}.st147{fill:#45569f}.st149{fill:#f0dc9c}.st151{fill:#0b0b0d}.st155{fill:#0e0e0e}.st158{fill:#ca2729}.st163{fill:#dcb23c}.st165{fill:#42754b}.st167{fill:#8fad49}.st171{opacity:.49;fill:#def0f7;stroke:#555;stroke-width:.25;stroke-miterlimit:10}</style><path d="M85.1 94.8L1.7 118.1l112.1 12.3 77.9-19.2z" class="st4"/><path fill="#dad9d8" stroke="#dad9d8" stroke-width=".25" d="M86.2 98l-68.6 19.4 95.2 10 67.7-16.4z"/><path fill="#619fd6" stroke="#555" stroke-miterlimit="10" stroke-width=".25" d="M70.6 111.9L71 11.4l31.6-9-.5 115.9z"/><path d="M157.6 15l-55-12.6-.5 115.9 56.7-9.9z" class="st7"/><path d="M71.1 42.7l31.8-5.5 54.5 6.5M70.7 58.4l31.8-2.4 56 3.2m-55.7 19.5L71 77l31.7 2.2 55.8-.7M115.4 4.6v112.1m42-89.6l-54.8-9.4-31 5.1m59-15V114m14.1-102.6v100.5M78.7 9v68.5M90.6 5.7v72.7" class="st8"/><path d="M70.5 44l3-.4-.8-15.8 4.2-.3.4 26.9 1.8-.4-.3-4.6h1.8v-3.1l4.6.4.7 31.2-14.3-.9z" class="st9"/><path d="M73.9 52l3.7.4-.3 25.4 3 .4.3-15.4 5.3.8-.4 6.5h3.4l.4-20.4 4.1 1.2-1.5 25 3.8.4.4-19.6 4.9.3.3 23.1-28.6-3.5zm48.9-20.7l15.4 2.3-.7 26.9h5.3l.3-16.1 7.9 1.1-.7 33.4-26.4.8z" class="st10"/><path d="M102.6 80l-.1-9.5-5.3-.1L96.1 45l-4.2.9v25H87l.6 7.5z" class="st10"/><path d="M141.4 54.5l3-.7-.8-25.8 4.2-.7.4 44.2 1.8-.6-.3-7.6h1.8v-5.1l4.6.7 3 49.6-16.2 2.9z" class="st9"/><path d="M152 109.3l-.6-15.9-6.7.9-.1-48.5-13 .5v49.6h-4.9l.6 18z" class="st10"/><path d="M103.1 58.7l4.7.3-.2-29.5 7.8 1.1-2.4 48.9 3.6.2-.1-11h3.6v-5.5l10.6.9 1.1 48.9-29.1 5.2z" class="st9"/><path d="M138.2 78.9l-4-5.8-5.2-.2-1.2-25.3-4.1.9v24.9h-4.9l.2 5.9z" class="st10"/><path d="M94.4 118.5l-17.1 8.9-28-3.4 29.2-7.4z" class="st4"/><ellipse cx="35.4" cy="118.6" class="st11" rx="6.2" ry="2.3" transform="matrix(1 -.00804 .00804 1 -.953 .289)"/><path d="M31.9 58.7l.2.9s4 .2 4.3.1c.3-.1.6-.6.4-1.1-.2-.4-2.1-.9-2.7-.9-.6.1-2.2 1-2.2 1z" class="st12"/><path d="M30.9 111.2s1.6-.1 2.7-.1 3.1.1 3-.1c-.1-.2-.8-1-.8-1h-3.7l-1.2 1.2z" class="st13"/><path d="M33.8 59.2l-1.2.5s-1.1.6-1.6 2.1c-.4 1.5 1.2 5 3.4 4.7 2.3-.2 3.8-2.4 3.5-3.9-.3-1.5-1.4-3.1-1.4-3.1l-1.2-.6-1.5.3z" class="st14"/><path d="M35 55s-1.2.2-1.3 1.2c-.1 1.1.1 1.7.8 1.6.7-.1 1.6-.8 1.6-1.5 0-.6.1-.8-1.1-1.3z" class="st15"/><path d="M32 67.1l.4.7s.7-.5 1.8-.5c1 0 1.9.6 1.9.6v-.8s-1.9-.3-2.2-.3c-.3-.1-1.9.3-1.9.3zm0 1.4l.6.5s.8-.6 1.6-.4c.8.2 1.7.5 1.7.5l-.1-.8s-1.2-.3-1.9-.4c-.5.1-1.9.6-1.9.6zm-.3 1.4l.3.6s1.6-.8 2.4-.6c.8.2 1.8.7 1.8.7l.1-.9s-1.5-.3-2.3-.4c-.8 0-2.3.6-2.3.6z" class="st12"/><path d="M33.1 66.3l-.9 43.8 3.2-.1-.2-43.6z" class="st16"/><path d="M30.9 111.3s5.2-.2 5.5-.2c.4 0 .5 6.9.5 6.9s-1.5.4-3 .4c-1.4 0-2.5 0-2.9-.2-.4-.2-.1-6.9-.1-6.9z" class="st17"/><ellipse cx="112.8" cy="128" class="st11" rx="6.2" ry="2.3" transform="matrix(1 -.00804 .00804 1 -1.025 .911)"/><path d="M109.3 68l.2.9s4 .2 4.3.1c.3-.1.6-.6.4-1.1-.2-.4-2.1-.9-2.7-.9-.6.1-2.2 1-2.2 1z" class="st12"/><path d="M108.3 120.6s1.6-.1 2.7-.1 3.1.1 3-.1c-.1-.2-.8-1-.8-1h-3.7l-1.2 1.2z" class="st13"/><path d="M111.2 68.5l-1.2.5s-1.1.6-1.6 2.1c-.4 1.5 1.2 5 3.4 4.7 2.3-.2 3.8-2.4 3.5-3.9-.3-1.5-1.4-3.1-1.4-3.1l-1.2-.6-1.5.3z" class="st14"/><path d="M112.4 64.3s-1.2.2-1.3 1.2c-.1 1.1.1 1.7.8 1.6.7-.1 1.6-.8 1.6-1.5.1-.6.1-.8-1.1-1.3z" class="st15"/><path d="M109.4 76.5l.4.7s.7-.5 1.8-.5c1 0 1.9.6 1.9.6v-.8s-1.9-.3-2.2-.3c-.2-.1-1.9.3-1.9.3zm0 1.4l.6.5s.8-.6 1.6-.4c.8.2 1.7.5 1.7.5l-.1-.8s-1.2-.3-1.9-.4c-.5 0-1.9.6-1.9.6zm-.3 1.4l.3.6s1.6-.8 2.4-.6c.8.2 1.8.7 1.8.7l.1-.9s-1.5-.3-2.3-.4c-.8-.1-2.3.6-2.3.6z" class="st12"/><path d="M110.6 75.6l-.9 43.8h3.1l-.2-43.6z" class="st16"/><path d="M108.3 120.6s5.2-.2 5.5-.2c.4 0 .5 6.9.5 6.9s-1.5.4-3 .4c-1.4 0-2.5 0-2.9-.2-.3-.1-.1-6.9-.1-6.9z" class="st17"/><ellipse cx="173.7" cy="110.9" class="st11" rx="6.2" ry="2.3" transform="matrix(1 -.00804 .00804 1 -.886 1.4)"/><path d="M170.1 51l.2.9s4 .2 4.3.1c.3-.1.6-.6.4-1.1-.2-.4-2.1-.9-2.7-.9-.6 0-2.2 1-2.2 1z" class="st12"/><path d="M169.1 103.5s1.6-.1 2.7-.1 3.1.1 3-.1c-.1-.2-.8-1-.8-1h-3.7l-1.2 1.2z" class="st13"/><path d="M172 51.4l-1.2.5s-1.1.6-1.6 2.1c-.4 1.5 1.2 5 3.4 4.7 2.3-.2 3.8-2.4 3.5-3.9-.3-1.5-1.4-3.1-1.4-3.1l-1.2-.6-1.5.3z" class="st14"/><path d="M173.3 47.2s-1.2.2-1.3 1.2c-.1 1.1.1 1.7.8 1.6.7-.1 1.6-.8 1.6-1.5 0-.6 0-.8-1.1-1.3z" class="st15"/><path d="M170.3 59.4l.4.7s.7-.5 1.8-.5c1 0 1.9.6 1.9.6v-.8s-1.9-.3-2.2-.3c-.3-.1-1.9.3-1.9.3zm0 1.4l.6.5s.8-.6 1.6-.4c.8.2 1.7.5 1.7.5l-.1-.8s-1.2-.3-1.9-.4c-.6 0-1.9.6-1.9.6zm-.4 1.4l.3.6s1.6-.8 2.4-.6c.8.2 1.8.7 1.8.7l.1-.9s-1.5-.3-2.3-.4c-.7 0-2.3.6-2.3.6z" class="st12"/><path d="M171.4 58.5l-.9 43.8h3.1l-.2-43.6z" class="st16"/><path d="M169.1 103.5s5.2-.2 5.5-.2c.4 0 .5 6.9.5 6.9s-1.5.4-3 .4c-1.4 0-2.5 0-2.9-.2-.3-.1-.1-6.9-.1-6.9z" class="st17"/><path fill="#f4f9fb" d="M172 5.6h30.6v18.3H172z"/><g id="XMLID_10_"><path d="M199.4 7.5c0 .1-.1.2-.1.2h-9.4c-.1 0-.1-.1-.1-.2s.1-.2.1-.2h9.4s.1.1.1.2zm0 7.7c0 .1-.1.1-.1.1h-9.4c-.1 0-.1 0-.1-.1s.1-.1.1-.1h9.4c.1 0 .1 0 .1.1z" class="st19"/><path d="M199.4 7.6c0 .1-.1.1-.1.1h-9.4c-.1 0-.1-.1-.1-.1 0-.1.1-.1.1-.1h9.4s.1 0 .1.1z" class="st19"/><path fill="#8f8e8d" d="M199.4 7.5c0 .1-.1.1-.1.1h-9.4c-.1 0-.1-.1-.1-.1 0-.1.1-.1.1-.1h9.4l.1.1zm0 .4c0 .1-.1.1-.1.1h-9.4c-.1 0-.1 0-.1-.1s.1-.1.1-.1h9.4l.1.1zm0 .3c0 .1-.1.1-.1.1h-9.4c-.1 0-.1 0-.1-.1s.1-.1.1-.1h9.4s.1 0 .1.1zm0 .3c0 .1-.1.1-.1.1h-9.4c-.1 0-.1 0-.1-.1s.1-.1.1-.1h9.4s.1 0 .1.1zm0 .3c0 .1-.1.1-.1.1h-9.4c-.1 0-.1 0-.1-.1s.1-.1.1-.1h9.4s.1 0 .1.1zm0 .2c0 .1-.1.1-.1.1h-9.4c-.1 0-.1 0-.1-.1s.1-.1.1-.1h9.4c0 .1.1.1.1.1zm0 .3c0 .1-.1.1-.1.1h-9.4c-.1 0-.1 0-.1-.1s.1-.1.1-.1h9.4l.1.1zm0 .3c0 .1-.1.1-.1.1h-9.4c-.1 0-.1 0-.1-.1s.1-.1.1-.1h9.4l.1.1zm0 .3c0 .1-.1.1-.1.1h-9.4c-.1 0-.1 0-.1-.1s.1-.1.1-.1h9.4s.1 0 .1.1zm0 .3c0 .1-.1.1-.1.1h-9.4c-.1 0-.1 0-.1-.1s.1-.1.1-.1h9.4s.1 0 .1.1zm0 .3c0 .1-.1.1-.1.1h-9.4c-.1 0-.1 0-.1-.1s.1-.1.1-.1h9.4s.1 0 .1.1zm0 .2c0 .1-.1.1-.1.1h-9.4c-.1 0-.1 0-.1-.1s.1-.1.1-.1h9.4c0 .1.1.1.1.1zm0 .3c0 .1-.1.1-.1.1h-9.4c-.1 0-.1 0-.1-.1s.1-.1.1-.1h9.4l.1.1zm0 .3c0 .1-.1.1-.1.1h-9.4c-.1 0-.1 0-.1-.1s.1-.1.1-.1h9.4l.1.1zm0 .3c0 .1-.1.1-.1.1h-9.4c-.1 0-.1 0-.1-.1s.1-.1.1-.1h9.4l.1.1zm0 .3c0 .1-.1.1-.1.1h-9.4c-.1 0-.1 0-.1-.1s.1-.1.1-.1h9.4s.1 0 .1.1zm0 .3c0 .1-.1.1-.1.1h-9.4c-.1 0-.1 0-.1-.1s.1-.1.1-.1h9.4s.1 0 .1.1zm0 .3c0 .1-.1.1-.1.1h-9.4c-.1 0-.1 0-.1-.1s.1-.1.1-.1h9.4s.1 0 .1.1zm0 .2c0 .1-.1.1-.1.1h-9.4c-.1 0-.1 0-.1-.1s.1-.1.1-.1h9.4c0 .1.1.1.1.1zm0 .3c0 .1-.1.1-.1.1h-9.4c-.1 0-.1 0-.1-.1s.1-.1.1-.1h9.4l.1.1zm0 .3c0 .1-.1.1-.1.1h-9.4c-.1 0-.1 0-.1-.1s.1-.1.1-.1h9.4l.1.1zm0 .3c0 .1-.1.1-.1.1h-9.4c-.1 0-.1 0-.1-.1s.1-.1.1-.1h9.4l.1.1zm0 .3c0 .1-.1.1-.1.1h-9.4c-.1 0-.1 0-.1-.1s.1-.1.1-.1h9.4s.1 0 .1.1zm0 .3c0 .1-.1.1-.1.1h-9.4c-.1 0-.1 0-.1-.1s.1-.1.1-.1h9.4s.1 0 .1.1zm0 .3c0 .1-.1.1-.1.1h-9.4c-.1 0-.1 0-.1-.1s.1-.1.1-.1h9.4s.1 0 .1.1zm0 .2c0 .1-.1.1-.1.1h-9.4c-.1 0-.1 0-.1-.1s.1-.1.1-.1h9.4l.1.1zm0 .3c0 .1-.1.1-.1.1h-9.4c-.1 0-.1 0-.1-.1s.1-.1.1-.1h9.4l.1.1z"/><path fill="none" stroke="#2a2a2a" stroke-width=".25" d="M191.1 7.3v7.9m6.8-7.9v7.9"/></g><path d="M202.7 23.9V5.6h14.4V46z" class="st22"/><path fill="#faf1bd" stroke="#faf1bd" stroke-width=".25" d="M172.1 23.3L160 46h57.1l-15.5-22.7z"/><path fill="#363636" d="M176.1 36.3l-4.7 6.2-10.2-.8 8.2-5.9z" opacity=".09"/><path d="M198.5 23.8l1.5.8-9.9.6-1.6-.9z" class="st25"/><path fill="#687173" d="M192.9 17.5s-.1.7 0 .9c.1.2.3 1 .3 1.2s.1 1.2.1 1.2c0 .1 1.8.5 1.8.5s.1.1.1.2-2.6.4-2.6.4v-.1l-2-.5V21l.2-3.5h2.1z"/><path d="M190.9 17.5s-.2-.1-.2.1.1.2.1.2-.4 2.8-.5 3c0 .2 0 .5.3.6.3.1 2 .5 2 .5v-.1l-1.2-.4c-.2-.1-.7-.1-.8-.2 0-.2.3-3.7.3-3.7zm4.3 3.9l-2.5.4v.1s.8-.1 1.1-.1c.4 0 1.2-.1 1.3-.2.1-.1.1-.1.1-.2z" class="st27"/><path d="M192.5 22.9l.1-1h.3v1s-.1.1-.2.1l-.2-.1z" class="st28"/><path d="M192.5 22.8s.1.1.2.1.2-.1.2-.1v.2s-.1.1-.2.1-.2-.1-.2-.1v-.2z" class="st29"/><path d="M192.6 23.6V23h.2v.6s0 .1-.1.1-.1-.1-.1-.1z" class="st29"/><path d="M192.9 23.2h1c.1 0 .1.2.1.3s-.1 0-.1 0l-.1-.1h-.4l-.5-.2z" class="st27"/><path d="M194.9 24.1v-.2s-1.9-.4-2-.4h-.1s-.1-.3 0-.4c.1 0-.1-.1.1 0 .1 0 2.1.5 2.1.5v.3l-.1.2zm-2.3-.9s-1.1.3-1.3.3c-.2.1-.5.1-.6.2 0 .1-.1.3-.1.3h.2v-.2l1.8-.4v-.2z" class="st27"/><path d="M192.8 23.5v.7s0 .1.1.1.1-.1.1-.1v-.7h-.2zm-.2-.4s-.9-.1-1 0c-.1.1-.1.4-.1.4h.2s-.1-.1 0-.2c.1 0 .3-.1.3 0l.6-.2zm-1 .8c.1 0 .1-.1.2-.1s0-.1 0-.1h-.3v.1c.1 0 .1.1.1.1z" class="st27"/><path d="M192.9 24.5s0-.1.1-.1.2.1.2.1.1.1 0 .2-.3.1-.3.1l-.1-.1.1-.2zm2.3-.4c.1 0 .2.1.3.1.1.1 0 .2-.2.2-.3.1-.4-.2-.1-.3m-4.5.1c.1 0 .1-.2.2-.1.1 0 .1.2.1.2-.1.1-.2.1-.3.1-.1 0-.1-.1 0-.2m.7-.5c0 .1.2.3.3.2-.1 0-.1-.1-.1-.2h-.2" class="st29"/><path d="M192.8 24.3c0 .1-.1.2 0 .3.1-.1.1-.2.2-.3.1 0 .2.1.3.1.2-.1-.1-.2-.1-.2h-.2c-.1.1-.1.1-.2.1m2.2-.1s.1-.1.2-.1.1.1.2.1 0-.1 0-.1h-.2c-.1 0-.3.1-.3.2s0 .2.1.2v-.2c0-.1.1-.1.1-.2m-4.2 0c-.2 0-.4.3-.2.4h-.2c0-.1-.1-.2 0-.3 0-.1.2-.1.4-.1" class="st27"/><path d="M191.3 21.6l.6.7.1.1c.1 0 .1.1.1.1s1.8-.2 1.9-.2c.1 0 .1 0 .1-.1.1-.1.1-.4.1-.4l-.5.1v.2s-1.2.1-1.3.1c0 0-.3.1-.4 0-.1-.1-.4-.6-.4-.6h-.3z" class="st29"/><circle cx="192.2" cy="22" r=".3" class="st30"/><circle cx="192.2" cy="22" r=".2" class="st31"/><circle cx="192.1" cy="22" r=".2" class="st32"/><path d="M194.2 20.4h.2l-.2.6h-.3z" class="st33"/><path d="M190.6 21.2l2.7-.4 1.8.5.1.1-2.6.4z" class="st34"/><path d="M191.4 21.6l.4-1.1h-.2l-.4 1.1z" class="st33"/><linearGradient id="SVGID_1_" x1="191.31" x2="192.003" y1="18.126" y2="18.126" gradientUnits="userSpaceOnUse"><stop offset="0" stop-color="#8c5f2e"/><stop offset=".188" stop-color="#a88330"/><stop offset=".44" stop-color="#c9ad33"/><stop offset=".669" stop-color="#e1cc34"/><stop offset=".863" stop-color="#f0de36"/><stop offset="1" stop-color="#f5e536"/></linearGradient><path fill="url(#SVGID_1_)" d="M191.3 17.8c.1.1.3.1.4.2.3 0 .3.1.1.3-.1.1-.3.2-.5.1-.1-.1 0-.2 0-.2.1-.1 0-.2 0-.4"/><path fill="#76c3f0" d="M191.5 18.4s.2-.1.4-.1.2-.1.2-.1-.1-.2 0-.2c0-.1.1 0 .1 0h.7l.2.1h.3l.1.9s-.2.6-.2.7v.4h-1.4v-.5c0-.3-.1-.5-.1-.5s-.1-.4-.1-.5c-.2-.1-.2-.2-.2-.2z"/><linearGradient id="SVGID_2_" x1="190.023" x2="191.634" y1="19.975" y2="19.975" gradientUnits="userSpaceOnUse"><stop offset="0" stop-color="#f9eac4"/><stop offset=".467" stop-color="#f8e6b6"/><stop offset="1" stop-color="#f6dfa1"/></linearGradient><path fill="url(#SVGID_2_)" d="M191.5 18.4s-.2.2-.2.4c-.1.2-.1.9-.2 1 0 .1-.2.3-.2.3-.1.1-.1.4-.2.5v.3h-.1l-.2-.1s0-.1-.1-.1h-.1v.2h.1s-.2 0-.2.1c0 0 0 .1.1.1h.1v.2s0 .1 0 0h.5s.2-.2.2-.3c0-.1 0-.1.1-.2s.3-.5.4-.7c.1-.1.2-.3.2-.4 0-.1.1-.4.1-.5 0-.1.1-.2.1-.2s0-.2-.1-.3c-.3 0-.3-.3-.3-.3z"/><path d="M190.2 21.4h.2s.1-.1 0-.1h-.3c.1-.1.1 0 .1.1z" class="st0"/><path d="M190.3 21.4s.1 0 0 0l.1-.1h-.2s-.1 0-.1.1c0 0 .1.1.2 0z" class="st0"/><path fill="#b5ce48" d="M190.3 20.8s.1-.1 0 0h.1l-.3.6h-.1v-.1s.2-.3.2-.4c.1 0 .1-.1.1-.1z"/><path d="M192.1 17.9v.3m.1-.3v.3m0-.3v.3m.1-.3v.3m.2.1v-.4m.1.1v.3m.1-.3v.2m0-.3v.3m.1-.2v.2m-.7.6s.3-.2.3-.3c.1-.1.4-.2.4-.2h.1m-.7.7s.3-.3.4-.3c.1-.1.3-.2.3-.2m-1.1 1.1l.2.1m-.3.2h.4" class="st0"/><linearGradient id="SVGID_3_" x1="192.591" x2="193.193" y1="20.341" y2="20.341" gradientUnits="userSpaceOnUse"><stop offset=".011" stop-color="#acacac"/><stop offset=".124" stop-color="#bab9ba"/><stop offset=".337" stop-color="#dedcdd"/><stop offset=".494" stop-color="#fdfafb"/><stop offset=".989" stop-color="#272425"/></linearGradient><path fill="url(#SVGID_3_)" d="M193.2 20.3h-.6l.5.1.1-.1z"/><linearGradient id="SVGID_4_" x1="191.241" x2="193.527" y1="17.125" y2="17.125" gradientUnits="userSpaceOnUse"><stop offset="0" stop-color="#f9eac4"/><stop offset=".467" stop-color="#f8e6b6"/><stop offset="1" stop-color="#f6dfa1"/></linearGradient><path fill="url(#SVGID_4_)" d="M193.5 17.1v-.5c0-.4-.9-.3-1.2-.3-.3 0-1.1.3-1.1.4 0 .1.1.5.1.5s-.1.4-.1.5c0 .1.3.3.7.3h.9c.2 0 .3-.1.4-.2l.3-.7"/><linearGradient id="SVGID_5_" x1="192.782" x2="193.257" y1="17.465" y2="17.465" gradientUnits="userSpaceOnUse"><stop offset="0" stop-color="#c91b72"/><stop offset="1" stop-color="#fbf4cb"/></linearGradient><ellipse cx="193" cy="17.5" fill="url(#SVGID_5_)" opacity=".13" rx=".2" ry=".3"/><circle cx="192.2" cy="17" r=".1" class="st42"/><linearGradient id="SVGID_6_" x1="191.475" x2="192.048" y1="17.512" y2="17.512" gradientUnits="userSpaceOnUse"><stop offset="0" stop-color="#c91b72"/><stop offset="1" stop-color="#fbf4cb"/></linearGradient><circle cx="191.8" cy="17.5" r=".3" fill="url(#SVGID_6_)" opacity=".13"/><path d="M193.2 17.5s-.7.3-.8.3c-.1 0-.9-.3-.9-.3s.5.1.9.1.8-.1.8-.1z" class="st14"/><path d="M192.3 17.4s0-.1.1-.1.1.1.1.1" class="st0"/><path fill="#f6f6f5" d="M191.3 18.4s-.2-.1-.1-.3c0-.2.2-.3.2-.4 0-.1.1-.1.1-.1l-.2.4v.2c0 .1.1.2 0 .2zm2.1-1.4v.5s-.1-.2 0-.3c0-.1.1-.3.1-.4" opacity=".14"/><circle cx="192.6" cy="17" r=".1" class="st42" transform="matrix(.998 -.06346 .06346 .998 -.693 12.26)"/><path d="M193 18s-.2-.1-.1.2c0 0-.1 0-.1.1-.1 0-.2.1-.3.1s-.3-.1-.3-.1" class="st0"/><linearGradient id="SVGID_7_" x1="191.025" x2="193.681" y1="17.164" y2="17.164" gradientUnits="userSpaceOnUse"><stop offset="0" stop-color="#8c5f2e"/><stop offset=".188" stop-color="#a88330"/><stop offset=".44" stop-color="#c9ad33"/><stop offset=".669" stop-color="#e1cc34"/><stop offset=".863" stop-color="#f0de36"/><stop offset="1" stop-color="#f5e536"/></linearGradient><path fill="url(#SVGID_7_)" d="M192.3 16.4c.1.1-.4.2-.5.3-.1.1-.1.2-.2.3-.1.1-.2 0-.3.2-.1.1-.1.5 0 .6 0 .1.1.1.1.2s0 .2.2.2c-.1.1 0 .4-.3.3-.1 0-.1-.1-.2-.2-.1 0-.1-.1-.2-.1 0-.2.1-.5.1-.8 0-.3-.1-.5.1-.8.2-.2.3-.5.6-.6.2-.1.6-.1.8 0 .2.1.7.2.8.4.1.2.2.5.2.8 0 .2-.1.3-.1.4-.1.2 0 .2 0 .4 0 .5-.3.2-.6.2.5-.3.4-.8.4-1.2 0-.2-.1-.5-.3-.6-.1 0-.2 0-.3.1-.1 0-.1 0-.3-.1"/><linearGradient id="SVGID_8_" x1="191.178" x2="191.82" y1="17.978" y2="17.978" gradientUnits="userSpaceOnUse"><stop offset="0" stop-color="#8c5f2e"/><stop offset=".188" stop-color="#a88330"/><stop offset=".44" stop-color="#c9ad33"/><stop offset=".669" stop-color="#e1cc34"/><stop offset=".863" stop-color="#f0de36"/><stop offset="1" stop-color="#f5e536"/></linearGradient><path fill="url(#SVGID_8_)" d="M191.5 17.1c0 .1-.1.1-.1.2-.1.1-.1.1 0 .2s.1.1.1.2v.1l.1.1c0 .1-.1.1-.1.2s.1.2.2.2l.1.2c0 .1-.1.2-.1.3-.1.1-.1-.1-.2-.1v-.1c0-.1-.1-.1-.1-.2s.1-.1 0-.2c0-.1-.2-.1-.2-.3 0-.1.1-.1 0-.2 0-.1-.1-.2-.1-.3 0-.2.2-.2.4-.3"/><linearGradient id="SVGID_9_" x1="191.592" x2="191.976" y1="18.411" y2="18.411" gradientUnits="userSpaceOnUse"><stop offset="0" stop-color="#8c5f2e"/><stop offset=".188" stop-color="#a88330"/><stop offset=".44" stop-color="#c9ad33"/><stop offset=".669" stop-color="#e1cc34"/><stop offset=".863" stop-color="#f0de36"/><stop offset="1" stop-color="#f5e536"/></linearGradient><path fill="url(#SVGID_9_)" d="M191.8 18c-.2.2 0 .3.1.4 0 .1 0 .4-.1.4s-.2-.3-.2-.4c0-.1-.1-.2-.1-.2 0-.1.2-.1 0-.2"/><linearGradient id="SVGID_10_" x1="191.037" x2="191.614" y1="17.862" y2="17.862" gradientUnits="userSpaceOnUse"><stop offset="0" stop-color="#8c5f2e"/><stop offset=".188" stop-color="#a88330"/><stop offset=".44" stop-color="#c9ad33"/><stop offset=".669" stop-color="#e1cc34"/><stop offset=".863" stop-color="#f0de36"/><stop offset="1" stop-color="#f5e536"/></linearGradient><path fill="url(#SVGID_10_)" d="M191.4 16.7c-.1 0-.2.1-.2.2h.1c0 .1-.2.1-.2.2s.1.2.1.3c-.1 0-.1.2-.1.3 0 .1.1.1.1.2v.1l.1.1c0 .1-.1.1-.1.1 0 .1 0 .1.1.2s.2.2.1.3c.1.1 0 .1.1.2 0 .1.1 0 .1.1h.2c-.1 0-.1-.4-.2-.5-.1-.2-.2-.4-.2-.6 0-.1-.1-.4 0-.5-.2-.2 0-.4 0-.7"/><linearGradient id="SVGID_11_" x1="191.34" x2="192.722" y1="16.623" y2="16.623" gradientUnits="userSpaceOnUse"><stop offset="0" stop-color="#8c5f2e"/><stop offset=".188" stop-color="#a88330"/><stop offset=".44" stop-color="#c9ad33"/><stop offset=".669" stop-color="#e1cc34"/><stop offset=".863" stop-color="#f0de36"/><stop offset="1" stop-color="#f5e536"/></linearGradient><path fill="url(#SVGID_11_)" d="M192.7 16.2c-.1.2-.2.1-.3.1-.1 0-.2.2-.4.3-.1.1-.3.1-.4.2-.1 0-.1.1-.1.2-.1.1-.1.1-.2.1-.1-.2.3-.5.5-.6h.2s.1-.1.2-.1.1-.1.2-.1c.2-.1.2.1.3-.1"/><linearGradient id="SVGID_12_" x1="193.058" x2="193.492" y1="17.236" y2="17.236" gradientUnits="userSpaceOnUse"><stop offset="0" stop-color="#8c5f2e"/><stop offset=".188" stop-color="#a88330"/><stop offset=".44" stop-color="#c9ad33"/><stop offset=".669" stop-color="#e1cc34"/><stop offset=".863" stop-color="#f0de36"/><stop offset="1" stop-color="#f5e536"/></linearGradient><path fill="url(#SVGID_12_)" d="M193.3 16.5c.1.1 0 .1 0 .2s0 .1.1.2v.2l.1.1v.1c0 .1-.1.3-.2.5 0 .1-.1 0-.1.2 0 .1 0 .2.2.1l.1-.2.1-.1v-.1c0-.1.1-.2.1-.2 0-.1-.1-.2-.1-.3v-.4c0-.1 0-.4-.2-.4s-.2 0-.1.1"/><linearGradient id="SVGID_13_" x1="192.59" x2="193.515" y1="16.621" y2="16.621" gradientUnits="userSpaceOnUse"><stop offset="0" stop-color="#8c5f2e"/><stop offset=".188" stop-color="#a88330"/><stop offset=".44" stop-color="#c9ad33"/><stop offset=".669" stop-color="#e1cc34"/><stop offset=".863" stop-color="#f0de36"/><stop offset="1" stop-color="#f5e536"/></linearGradient><path fill="url(#SVGID_13_)" d="M192.6 16.3c.2-.3.6 0 .7.1.1.1.3.7.2.7 0-.2-.2-.4-.3-.6 0-.1-.1-.2-.2-.3-.2 0-.3.1-.4.1"/><linearGradient id="SVGID_14_" x1="192.477" x2="193.584" y1="17.098" y2="17.098" gradientUnits="userSpaceOnUse"><stop offset="0" stop-color="#8c5f2e"/><stop offset=".188" stop-color="#a88330"/><stop offset=".44" stop-color="#c9ad33"/><stop offset=".669" stop-color="#e1cc34"/><stop offset=".863" stop-color="#f0de36"/><stop offset="1" stop-color="#f5e536"/></linearGradient><path fill="url(#SVGID_14_)" d="M192.5 16.2c.2-.1.3-.2.5-.1.1 0 .2.1.2.1l.2.2.2.2v.2c0 .1 0 .5-.1.5 0 0-.1 0-.1-.1 0 .2.1.6-.1.8-.1-.1.1-.4.1-.6v-.6c0-.1 0-.2-.1-.3-.1-.1-.2-.2-.2-.3-.1-.1-.2-.2-.3-.2-.1.1-.3.3-.3.2"/><linearGradient id="SVGID_15_" x1="191.205" x2="192.792" y1="16.4" y2="16.4" gradientUnits="userSpaceOnUse"><stop offset="0" stop-color="#8c5f2e"/><stop offset=".188" stop-color="#a88330"/><stop offset=".44" stop-color="#c9ad33"/><stop offset=".669" stop-color="#e1cc34"/><stop offset=".863" stop-color="#f0de36"/><stop offset="1" stop-color="#f5e536"/></linearGradient><path fill="url(#SVGID_15_)" d="M191.4 16.7c0-.1.4-.2.5-.3.2-.1.3-.1.4-.2.1-.1.3-.1.4-.1.3-.2-.2 0-.3 0 0 0-.1-.1-.2-.1h-.3c-.3.1-.5.5-.8.5.2-.1.3-.1.5-.2.1-.1.3-.3.5-.3-.1.2-.4.2-.6.3-.1 0-.3.1-.4.2.1.3.3.4.3.2"/><linearGradient id="SVGID_16_" x1="191.37" x2="192.402" y1="16.21" y2="16.21" gradientUnits="userSpaceOnUse"><stop offset="0" stop-color="#8c5f2e"/><stop offset=".188" stop-color="#a88330"/><stop offset=".44" stop-color="#c9ad33"/><stop offset=".669" stop-color="#e1cc34"/><stop offset=".863" stop-color="#f0de36"/><stop offset="1" stop-color="#f5e536"/></linearGradient><path fill="url(#SVGID_16_)" d="M192.4 16c-.1 0-.2 0-.3.1-.1 0-.2.1-.3.1-.1.1-.1.1-.2.1s-.2.1-.2.1c0-.1.3-.3.4-.4h.6"/><linearGradient id="SVGID_17_" x1="192.893" x2="193.218" y1="17.42" y2="17.42" gradientUnits="userSpaceOnUse"><stop offset="0" stop-color="#f9eac4"/><stop offset=".467" stop-color="#f8e6b6"/><stop offset="1" stop-color="#f6dfa1"/></linearGradient><path fill="url(#SVGID_17_)" d="M193.1 17.5s0-.1 0 0h-.1s-.1 0-.1-.1.1-.1.1-.2c0 0 .1 0 .2.1l.1.1-.2.1z"/><linearGradient id="SVGID_18_" x1="192.754" x2="193.934" y1="18.532" y2="18.532" gradientUnits="userSpaceOnUse"><stop offset="0" stop-color="#f9eac4"/><stop offset=".467" stop-color="#f8e6b6"/><stop offset="1" stop-color="#f6dfa1"/></linearGradient><path fill="url(#SVGID_18_)" d="M193 18s-.1.1 0 0c-.1 0-.2-.3-.2-.3s.4-.3.5-.2c0 0 .3.4.3.5 0 .1.2.9.3 1 0 .1.2.4.2.4s-.2 0-.2.1h-.1l-.1.3s-.1 0-.1-.1v-1.4h-.2s-.1 0-.1-.1c-.2-.2-.2-.1-.3-.2 0 .1 0 0 0 0z"/><linearGradient id="SVGID_19_" x1="192.9" x2="193.231" y1="17.856" y2="17.856" gradientUnits="userSpaceOnUse"><stop offset="0" stop-color="#f9eac4"/><stop offset=".467" stop-color="#f8e6b6"/><stop offset="1" stop-color="#f6dfa1"/></linearGradient><path fill="url(#SVGID_19_)" d="M193.2 17.7l-.1.1h-.1s0 .1.1.1l.2-.1c0 .1-.1.2-.1.2s0 .1-.1.1-.1-.1-.1-.1v-.1"/><linearGradient id="SVGID_20_" x1="193.37" x2="193.4" y1="18.244" y2="18.244" gradientUnits="userSpaceOnUse"><stop offset="0" stop-color="#f9eac4"/><stop offset=".467" stop-color="#f8e6b6"/><stop offset="1" stop-color="#f6dfa1"/></linearGradient><path fill="url(#SVGID_20_)" d="M193.4 18.2v.2"/><linearGradient id="SVGID_21_" x1="193.304" x2="193.364" y1="18.581" y2="18.581" gradientUnits="userSpaceOnUse"><stop offset="0" stop-color="#f9eac4"/><stop offset=".467" stop-color="#f8e6b6"/><stop offset="1" stop-color="#f6dfa1"/></linearGradient><path fill="url(#SVGID_21_)" d="M193.3 18.2v.2c.1-.1.1-.2 0-.2z"/><path fill="#010101" d="M190.7 21v-.2c0-.1.1-.3.1-.3l.1-.3c.1 0 .1-.2.1-.2.1 0 .2-.4.2-.5v-.4s0-.2.1-.2c.1-.1.1-.3.1-.3v-.2s-.1 0-.1.1-.1.2-.1.3c0 .1-.1.5-.1.6 0 .1 0 .2-.1.3-.1.1-.2.2-.2.4 0 .1-.1.4-.1.4l-.1.2.1.3c-.1 0-.1 0 0 0-.1 0-.1.1 0 0m1-.8v-.6c0-.2-.1-.6-.1-.7 0-.1-.1-.4-.1-.4v-.2l.1.2s.1.5.1.6c0 .1 0 .2.1.4v.4l-.1.3z" opacity=".12"/><linearGradient id="SVGID_22_" x1="190.026" x2="190.479" y1="21.12" y2="21.12" gradientUnits="userSpaceOnUse"><stop offset="0" stop-color="#f9eac4"/><stop offset=".467" stop-color="#f8e6b6"/><stop offset="1" stop-color="#f6dfa1"/></linearGradient><path fill="url(#SVGID_22_)" d="M190.2 21h.2l-.1.1s-.2 0-.2.1c0 0-.1 0-.1.1h-.1v-.1c.1-.1.2-.1.3-.2z"/><linearGradient id="SVGID_23_" x1="190.017" x2="190.119" y1="21.408" y2="21.408" gradientUnits="userSpaceOnUse"><stop offset="0" stop-color="#f9eac4"/><stop offset=".467" stop-color="#f8e6b6"/><stop offset="1" stop-color="#f6dfa1"/></linearGradient><path fill="url(#SVGID_23_)" d="M190 21.4h.1l-.1.1v-.1z"/><linearGradient id="SVGID_24_" x1="190.001" x2="190.046" y1="21.47" y2="21.47" gradientUnits="userSpaceOnUse"><stop offset="0" stop-color="#f9eac4"/><stop offset=".467" stop-color="#f8e6b6"/><stop offset="1" stop-color="#f6dfa1"/></linearGradient><path fill="url(#SVGID_24_)" d="M190 21.4v.1z"/><path fill="#4d5da4" d="M191.8 19.9h-.1.1z"/><linearGradient id="SVGID_25_" x1="191.798" x2="192.048" y1="18.332" y2="18.332" gradientUnits="userSpaceOnUse"><stop offset="0" stop-color="#8c5f2e"/><stop offset=".188" stop-color="#a88330"/><stop offset=".44" stop-color="#c9ad33"/><stop offset=".669" stop-color="#e1cc34"/><stop offset=".863" stop-color="#f0de36"/><stop offset="1" stop-color="#f5e536"/></linearGradient><path fill="url(#SVGID_25_)" d="M191.8 18.1c-.1.2.1.4.2.5.2-.1-.1-.4-.2-.5.1 0 .1 0 0 0"/><linearGradient id="SVGID_26_" x1="191.783" x2="192.012" y1="18.353" y2="18.353" gradientUnits="userSpaceOnUse"><stop offset="0" stop-color="#8c5f2e"/><stop offset=".188" stop-color="#a88330"/><stop offset=".44" stop-color="#c9ad33"/><stop offset=".669" stop-color="#e1cc34"/><stop offset=".863" stop-color="#f0de36"/><stop offset="1" stop-color="#f5e536"/></linearGradient><path fill="url(#SVGID_26_)" d="M191.9 18c-.3 0 0 .2.1.2-.1.1.1.4-.1.4.2.2 0-.5 0-.6.1 0 0 0 0 0"/><path d="M191.7 23l.1.1.2-.4s-.3.6-.2.7c0 .2 0 .5.2.4.1-.1.5-.5.5-.6v-.3s-.2.3-.2.1c-.1-.2 0-.7 0-.7s-.1 0-.3.1c-.2.2-.3.6-.3.6zm1.1.9s-.2.2-.2.1c-.1-.1-.1-.3-.1-.4v-.2s-.3.3-.3.5 0 .7.1.7.3-.1.4-.2c.1-.2.1-.5.1-.5z" class="st67"/><path d="M194.2 21.7s-.5.9-.7 1.2c-.1.2 0 0-.3.5-.1.1-.3.2-.3.3 0 .1-.2.1-.2.1s-.1-.2-.1-.4.3-.6.3-.7c0-.1.1-.3.3-.4l.6-.3.4-.3zm-2.2 0s.4.1.6-.1c.2-.1.9-.8 1.2-.5.4.3.3.5.3.5s.2-1.1 0-1.2c-.2-.1-1.2-.2-1.5-.1-.3.1-.4.1-.6.1-.2.1-.3.3-.4.4-.1.1-.1.2-.1.3 0 .1 0 .3.1.4.3.2.4.2.4.2z" class="st68"/><path d="M193.5 21.1c-.3.2-.7.5-.8.9-.1.2-.1.4.1.5.2.1.3 0 .5-.1s.8-.4.9-.7c.1-.5-.5-.8-.7-.6" class="st68"/><path d="M192.9 23.7c0 .2-.3.4-.4.2-.2-.2.1-.4.1-.6m0-1.3c-.1.2-.4.4-.5.5 0 .1-.1.4-.1.5.1.5.6-.3.7-.5" class="st69"/><path d="M188.5 20.1l1.4.6-.1 4.3-1.3-1.3z" class="st70"/><path d="M200.5 20.4l-10.6.3-.1 4.3h.3l.1-4.1 10.1-.2-.2 4h.4z" class="st71"/><path d="M198.7 23.9l1.4.8.2-4h-1.6z" class="st72"/><path d="M188.5 20.1l10.7-.2 1.3.5-10.6.3z" class="st70"/><path d="M200.7 18.7s.3.1.4.2c.1.1.1.2.1.2s-.5 1.7-.6 1.8c-.1.1-2 .5-2.2.5-.2-.1-.5-.2-.6-.3-.1-.2-.1-.3-.1-.5s.2-1.4.4-1.5c.1-.1.3-.3.4-.3h.6s.3-.1.4-.1c.1 0 .3.1.3.1s.3-.1.4-.1h.5z" class="st73"/><path d="M198.8 19.3s.2-.3.4-.2c.2 0 .3.2.3.2s.1-.3.4-.2c.2.1.3.2.3.2s.1-.3.4-.3c.2 0 .3.1.3.1s.1-.2.2-.1c.1 0 .2.2.2.3 0 .2-.6 1.4-.7 1.5-.1.1-.5.3-.5.3s-1 .2-1.1.2c-.1 0-.4.1-.5-.1-.1-.2 0-.6 0-.6l.2-.8.1-.5z" class="st74"/><ellipse cx="196.7" cy="25.7" class="st75" rx=".3" ry=".2"/><path d="M196.7 26c-.2 0-.3-.1-.3-.2s.1-.2.3-.2c.2 0 .3.1.3.2s-.2.2-.3.2zm0-.4c-.1 0-.2.1-.2.2s.1.2.2.2.2-.1.2-.2c0-.2-.1-.2-.2-.2z" class="st75"/><circle cx="198.6" cy="26.2" r=".3" class="st76"/><circle cx="199.5" cy="25.4" r=".2" class="st75"/><path d="M199.5 25.6c-.1 0-.3-.1-.3-.3 0-.1.1-.3.3-.3.1 0 .3.1.3.3-.1.2-.2.3-.3.3zm0-.4c-.1 0-.2.1-.2.2s.1.2.2.2.2-.1.2-.2-.1-.2-.2-.2z" class="st75"/><path d="M197.7 24.6s-1.4.7-1.5.9c-.1.2 0 .4.2.5h.1s.1-.1 0-.1l-.1-.2.1-.2v-.1l1.2-.5s.1 0 .1.1.6.9.6.9-.2 0-.2.1v.3l.1.1.1-.1v-.1l.1-.1v-.3l-.3-.5h.8l.1.1.1-.1h.2l-.1-.1-1.1-.3-.5-.1c.1-.1 0-.2 0-.2z" class="st77"/><path d="M199.4 25.6h-.2l-.2-.2v-.2h.2l.1.1s-.1.1-.1.2c0-.1.2.1.2.1zm-1.7-1.2v.3s.3.1.4.1c.1 0 .2-.1.2-.1v-.4s-.3.2-.4.2c-.1 0-.2-.1-.2-.1z" class="st78"/><ellipse cx="198" cy="24.5" class="st79" rx=".3" ry=".1"/><path d="M197.8 23.2v1.3h.5l.1-1.2s-.3-.1-.3 0c-.1-.1-.3-.1-.3-.1z" class="st77"/><path d="M198.4 21.1s-.1.1-.2.1-.3-.1-.3-.3c0-.1.1-1.3.2-1.4.1-.2.2-.5.4-.4.2.1.3.2.3.2s-.3.8-.3 1.2c-.1.3-.1.6-.1.6z" class="st74"/><path d="M199.1 18.8c.1.1.2.2.2.3m.6-.3c0 .1.2.1.2.2.1.1 0 .1 0 .2m.3-.5c0 .1.2.1.3.1.1.1.1.2.1.3m-1.5 1.1c0 .3-.1.8-.4 1.1m1.7-1.3c-.1.1-.1.3-.2.5 0 .1-.2.3-.1.5" class="st80"/><path d="M199.5 20.1l.1.1h.6v-.1z" class="st79"/><ellipse cx="198.1" cy="23.2" class="st79" rx=".3" ry=".1"/><path d="M195.7 21.6s-.1.4-.1.5c0 .1.1.4.1.4s.8.3 1.1.4c.3.1.9.2.9.2.1 0 1.5-.1 1.7-.2.2-.1.6-.3.7-.5.1-.2.2-.4.1-.5-.1-.1-1.4-.4-1.5-.5-.1 0-.6-.1-.6-.1h-1.2c-.3 0-.8.1-.9.1-.2.1-.3.2-.3.2z" class="st73"/><path d="M198.4 22.1l-1.9-.6h-.1l.1.1 1.8.5h.1zm-1.1-.7h.1l1.5.5h-.1zm.6.1h.1l1 .3h-.1l-1-.3z" class="st80"/><path d="M198.2 22.5s-.4.1-.5.2c0 .1-.1.3 0 .4v.1l-2-.6s-.2-.3-.1-.4c0-.2-.1-.4.1-.4.1 0 .6.2.7.3.1 0 .8.3 1 .3.1.1.4.1.5.1.1 0 .3-.1.3 0z" class="st74"/><path d="M200.2 21.9s.1.4-.1.4-.3.1-.4.1c-.1 0-.8 0-.9.1h-.6s-.4.1-.4.2v.4h.9c.2.1.6 0 .7 0 .1 0 .4-.2.4-.2.1 0 .2-.2.2-.3l.3-.4v-.3h-.1z" class="st74"/><path d="M199.6 20.2h.6s-.8 2.5-.9 2.7c-.1.2-.2.3-.2.3l-.5.1s.5-1.2.5-1.4c.2-.4.5-1.7.5-1.7z" class="st81"/><path d="M198.6 23.2l.9-3.1.1.1-.7 2.7-.1.2-.1.1z" class="st79"/><path d="M199.6 20.2l-.7 2.5-.2.5h.1l.9-3z" class="st73"/><path d="M197.9 23.3v1.1l.1-1.1zm-.3 1.4l-.5.3-.5.3-.4.2.2.4v-.3l.2-.3 1-.5.1-.2z" class="st82"/><path d="M200.4 21h.2l-.2.5h-.2z" class="st83"/><path d="M194.4 20.2l.4.3h1.8l-.5-.4zm2.5-2l-.2-.1h-2.8l.2.1z" class="st84"/><path d="M197 20.1l-.1-1.9h-2.8v1.9z" class="st85"/><path d="M195.8 19.1l.1.1h-.7l-.2-.1z" class="st84"/><path d="M195.2 19.2h.7v1.2h-.7z" class="st85"/><path d="M195.2 19.2v1.2l-.2-.2v-1.1zm-1.1-1v1.9l-.2-.1v-1.9zm1.9 1.4h.5v.2h-.5zm.5.9s0-.2-.1-.2l-.1-.2-.1-.2v-.1h.1s.1 0 .1.1l.1.2s.1.1.1.2 0 .2-.1.2z" class="st84"/><path d="M196.2 19.8h-.1v.1c0 .1.1.2.1.3l.1.2v.2h.2s-.1-.1-.1-.2-.1-.1-.1-.2-.1-.2-.1-.2v-.2z" class="st84"/><path d="M196.2 19.6l.1.2" class="st86"/><path d="M172.1 23.3L160 46V5.6h12z" class="st22"/><g stroke="#6570b0" stroke-width=".25"><path fill="#cddce2" d="M188.6 5.6v21.3h2.2V15.5h4.2v11.2h8.6V5.6z"/><path fill="#bfdae3" d="M188.6 5.6h-1.5v17.8l1.5 3.3z"/><path fill="#8fb8c2" d="M195 26.7l-2.8 1.2V16.3l2.8-.8z" opacity=".45"/></g><path fill="#90bf5b" d="M185.8 15.8c0 .5-.4.9-.9.9h-9.7c-.5 0-.9-.4-.9-.9v-7c0-.5.4-.9.9-.9h9.7c.5 0 .9.4.9.9v7z"/><path fill="#dcedf6" d="M174.1 11c.1-.7.1-1.2.1-1.7 0-.9.1-1.3 1.2-1.4 1.3-.1 2.8-.1 4.2-.1 1.4 0 2.7-.2 4.1-.1.7 0 1.6.1 1.9.7.3.5.2 1.5-.2 1.9-.6-.6-1.1-1.3-1.6-.5-.3.5.1.5-.6.9-.3.2-.8.4-1.1.4-.2-.6-.9-.8-1.5-.7-.9.3-.5 1-1.4.4-.7-.4-.6-1.1-1.2-1.5-.8-.5-1.1.2-1.1.8-.5.1-1-.3-1.5-.1-.9.2-.6.8-1.3 1"/><path fill="#cbe5f2" d="M173.9 7.7h11.9V13h-11.9z" opacity=".53"/><path d="M173.9 9.7H186v.7h-12.1z" class="st93"/><path d="M173.8 9.7h1v7.4h-1zm11.3 0h1v6.7h-1z" class="st93"/><path d="M174.2 12.7h11.7v.7h-11.7zm-.3 3.7h12.2v.7h-12.2zm0-8.7H186v.7h-12.1z" class="st93"/><path d="M173.9 7.7h1v6.7h-1zm11.2 0h1v6.7h-1z" class="st93"/><path d="M185.6 16.4l.2-.2V7l-.2.1zM174.3 9l.4-.2h9.9V9z" class="st94"/><path d="M174.7 8.8l.1-1.1h-.4V9zm-.5 3.3l.4-.2h10v.2z" class="st94"/><path d="M174.6 11.9l.1-2.2h-.4v2.4zm-.4 3.8l.4-.2h9.9v.2z" class="st94"/><path d="M174.6 15.5v-2.8h-.3v3z" class="st94"/><path fill="#abd3e5" d="M209.1 33.2l.1-15.6L205 12l-.3 15.4z"/><path fill="#f9f5c7" stroke="#f9f5c7" stroke-width=".25" d="M209.1 27v6.2l-4.4-5.8z"/><path fill="#868685" stroke="#f9f5c7" stroke-width=".25" d="M209.1 27l.1 6.2-4.5-5.8z" opacity=".04"/><path d="M184.4 23.3l1.4.7-9.3.6-1.4-.9z" class="st25"/><path d="M179.1 17.4s-.1.6 0 .8c.1.2.3.9.3 1.1 0 .1.1 1.1.1 1.1 0 .1 1.7.5 1.7.5s.1.1.1.2-2.4.3-2.4.3v-.1l-1.8-.5v-.2l.2-3.2h1.8z" class="st98"/><path d="M177.3 17.4s-.2-.1-.2.1.1.2.1.2-.4 2.6-.4 2.8c0 .2 0 .4.3.5.2.1 1.9.5 1.9.5v-.1s-.9-.3-1.1-.4c-.2-.1-.7-.1-.7-.2-.2-.1.1-3.4.1-3.4z" class="st99"/><path d="M181.3 21l-2.4.4v.1s.7-.1 1.1-.1c.3 0 1.1-.1 1.2-.2.1 0 .1-.1.1-.2z" class="st99"/><path d="M178.8 22.4l.1-.9h.3v.9s-.1.1-.2 0h-.2z" class="st28"/><path fill="#323333" stroke="#323333" stroke-width=".25" d="M178.8 22.3s.1.1.2.1.2-.1.2-.1v.1s-.1.1-.2.1-.2-.1-.2-.1v-.1z"/><path d="M178.8 23.1v-.5h.2v.6s0 .1-.1.1c-.1-.1-.1-.2-.1-.2z" class="st29"/><path d="M179.1 22.7h1c.1 0 .1.2.1.2h-.1v-.1h-.4l-.6-.1zm1.9.9v-.2l-1.8-.3h-.1s-.1-.3 0-.3h.1c.1 0 2 .4 2 .5v.3s-.2-.1-.2 0zm-2.2-.9s-1 .3-1.2.3c-.2.1-.5.1-.5.2s-.1.3-.1.3h.2v-.2l1.6-.4v-.2z" class="st101"/><path d="M179.1 23v.6s0 .1.1.1l.1-.1V23h-.2zm-.3-.3s-.9-.1-.9 0c-.1.1 0 .3 0 .3h.1v-.2h.3l.5-.1zm-.8.6c.1 0 .1-.1.2-.1s0-.1 0-.1h-.2v.1c-.1 0 0 .1 0 .1z" class="st101"/><path d="M179.1 23.9s0-.1.1-.1.2.1.2.1.1.1 0 .2-.2.1-.3.1l-.1-.1.1-.2zm2.1-.4c.1 0 .2.1.2.1.1.1 0 .2-.1.2-.2.1-.3-.2-.1-.3m-4.2.1c.1 0 .1-.2.2-.1.1 0 .1.2.1.2 0 .1-.2.1-.3.1-.1 0 0-.1 0-.2m.8-.4s-.1 0 0 0c0 .1.2.3.2.2-.1 0-.1-.1-.1-.2-.1-.1-.1 0-.1 0" class="st29"/><path d="M179.1 23.7c0 .1-.1.2 0 .3.1-.1.1-.2.2-.2s.2.1.3.1c.2-.1-.1-.2-.1-.2h-.2c-.2 0-.2.1-.2 0m2-.1l.1-.1.1.1c.1 0 0-.1 0-.1h-.2c-.1 0-.2.1-.3.2 0 .1 0 .2.1.2.2-.1.2-.2.2-.3m-3.9-.1c-.2 0-.4.3-.2.4h-.2c0-.1-.1-.2 0-.3.1-.1.3-.1.4-.1" class="st101"/><path d="M177.7 21.2l.5.7.1.1c.1 0 .1.1.1.1l1.7-.2c.1 0 .1 0 .1-.1.1-.1.1-.3.1-.3l-.5.1v.2l-1.2.1s-.3.1-.4 0c-.1-.1-.4-.5-.4-.5l-.1-.2z" class="st29"/><circle cx="178.5" cy="21.6" r=".3" class="st30"/><circle cx="178.5" cy="21.6" r=".2" class="st31"/><circle cx="178.4" cy="21.6" r=".2" class="st32"/><path d="M180.3 20.1h.2l-.2.6h-.2z" class="st70"/><path d="M177 20.8l2.5-.3 1.7.4.1.1-2.4.4z" class="st34"/><path d="M177.7 21.2l.4-1h-.2l-.3 1z" class="st70"/><path d="M177.8 20.2s1.3-.3 1.7-.3c.3 0 .6 0 .8.1.2 0-.6-.3-.6-.6.1-.2.7-.9.6-1-.1-.1-.2-.3-.2-.3s-.7.1-.9.1c-.2 0-.7-.1-.7-.1s-.2.1-.2.2c-.1.1-.1.2-.2.3-.1.1-.3.2-.2.3.1.1 0-.1 0 0s.2.2.4.2-.1.5 0 .4c.1-.1-.1.1-.2.3-.1.2-.3.4-.3.5-.1.1 0-.1 0-.1zm-.2 1.8l.1.1.2-.3s-.3.4-.3.6 0 .4.2.3c.2-.1.6-.4.6-.5v-.3s-.2.3-.3.1c-.1-.1 0-.6 0-.6s-.2 0-.3.1c0 .2-.2.5-.2.5zm1.2.8s-.2.2-.3 0c-.1-.1-.1-.2-.1-.3 0-.1.1-.2.1-.2s-.4.2-.4.4 0 .5.1.5.4-.1.5-.2c.1 0 .1-.2.1-.2z" class="st67"/><path d="M180.3 21s-.6.7-.8 1c-.1.2 0 0-.3.4-.1.1-.3.2-.3.3 0 .1-.3 0-.3 0s-.1-.2-.1-.3c0-.1.3-.5.3-.6 0-.1.1-.3.4-.3.3-.1.7-.2.7-.2l.4-.3z" class="st68"/><path d="M177.9 21s.5.1.7 0c.2-.1 1-.7 1.4-.4.4.3.3.4.3.4s.2-.9 0-1c-.2-.1-1.3-.1-1.6-.1-.3 0-.4.1-.7.1-.2 0-.3.2-.4.3-.1.1-.2.2-.1.3.1.1 0 .2.1.3.2.1.3.1.3.1z" class="st68"/><path fill="#272425" stroke="#272425" stroke-width=".25" d="M178 19.5l.2-.1v-.3l-.2.2c-.1.1-.1.2-.1.2h.1zm1-.1s.2-.1.3-.1h.2c.1 0-.1.1-.1.2-.1 0-.1 0-.1.1-.1-.1-.3-.2-.3-.2z" opacity=".3"/><path d="M178.1 17.4v.7c0 .1.3.3.7.4.2.1.4.1.5.1h.3c.2 0 .4-.2.5-.3.1-.1.2-.3.2-.5v-.4s-.1-.5-.1-.6c0-.2-.8-.4-1-.4-.3 0-1 .4-1.1.5v.5z" class="st69"/><linearGradient id="SVGID_27_" x1="179.699" x2="180.329" y1="17.949" y2="17.949" gradientUnits="userSpaceOnUse"><stop offset="0" stop-color="#c91b72"/><stop offset="1" stop-color="#fbf4cb"/></linearGradient><ellipse cx="180" cy="17.9" fill="url(#SVGID_27_)" opacity=".18" rx=".3" ry=".2"/><circle cx="179.7" cy="17.5" r=".1" class="st104"/><circle cx="179.1" cy="17.5" r=".1" class="st104"/><linearGradient id="SVGID_28_" x1="178.934" x2="178.171" y1="17.951" y2="17.951" gradientUnits="userSpaceOnUse"><stop offset="0" stop-color="#c91b72"/><stop offset="1" stop-color="#fbf4cb"/></linearGradient><ellipse cx="178.6" cy="18" fill="url(#SVGID_28_)" opacity=".18" rx=".4" ry=".3"/><path d="M179.3 16.7c-.5-.1-.9.2-1.1.6-.1.2-.1.4 0 .6 0 .2.2.4.2.6-.1-.1-.3 0-.4.1-.1-.5-.2-1.1-.1-1.5 0-.5.8-.8 1.3-.8" class="st68"/><g id="XMLID_9_"><path fill="#d98392" d="M179.6 18.1s-.1 0 0 0c-.1 0-.1 0 0 0-.1 0-.1 0 0 0-.1 0 0 0 0 0z"/><path fill="#f4d97e" d="M179.3 18.2s0-.1 0 0l.1-.1h.2c0 .1-.1.1-.1.1h-.1c0 .1-.1 0-.1 0zm.2-.1s0 .1 0 0h-.1l-.1.1.1.1c.1 0 .1-.1.1-.2.1 0 0 0 0 0z"/><path fill="#753687" d="M179.3 18.2s0-.1 0 0l.1-.1h.1c0 .1-.1.1-.1.1h-.1c.1.1 0 0 0 0zm.2-.1s0 .1 0 0h-.1l-.1.1.1.1c.1 0 .1-.1.1-.2.1 0 0 0 0 0z"/><path fill="#c4254c" d="M179.5 18.2h-.2c.1 0 .1-.1.2 0-.1-.1 0 0 0 0 0-.1 0-.1 0 0 .1-.1.1-.1 0 0 .1-.1 0 0 0 0zm-.1 0c.1.1.1 0 .1 0h.1c-.1.2-.3 0-.2 0-.1 0 0 0 0 0z"/><path fill="#872245" d="M179.5 18.2c-.1 0-.1 0 0 0h-.2s.1-.1.2 0l.1-.1c0 .1-.1.1-.1.1z"/><path d="M179.4 18.3c0-.1 0-.1 0 0 0 0 .1 0 0 0zm.2-.1s-.1.1 0 0c-.1.1-.1 0 0 0-.1 0 0 0 0 0zm-.1.1zm-.1-.2s0 .1 0 0zm.1 0" class="st111"/><g class="st112"><path d="M179.3 18.1c.1 0 .1 0 0 0 .1 0 .1 0 0 0 .1 0 .1 0 0 0 .1 0 .1 0 0 0z" class="st14"/></g><g class="st112"><path d="M179.4 18.2c0-.1 0-.1 0 0 0-.1 0-.1 0 0 0-.1 0-.1 0 0 0-.1 0-.1 0 0z" class="st14"/></g><path d="M179.4 18.3c0-.1 0-.1 0 0-.1 0-.1 0-.1-.1l.1.1c0-.1 0-.1 0 0 0-.1 0-.1 0 0 0-.1 0-.1 0 0 0-.1 0-.1 0 0 0-.1 0-.1 0 0 0-.1 0-.1 0 0 0-.1 0-.1 0 0 0-.1 0-.1 0 0 0-.1 0-.1 0 0 0-.1 0-.1 0 0 0-.1 0-.1 0 0 0-.1 0-.1 0 0 0 0 0-.1 0 0 0-.1 0 0 0 0z" class="st111"/></g><path fill="none" stroke="#61351c" stroke-width=".25" d="M179.5 18.1l-.1-.1m-.1.2l-.1-.1"/><path fill="#dbb88b" stroke="#a27b57" stroke-width=".25" d="M179.3 17.8s.1-.2.1-.1l.1.1"/><path d="M179.6 20.5c-.3.2-.7.4-.9.7-.1.2-.1.3.2.4.2.1.3 0 .5-.1s.9-.3 1-.5c.1-.4-.5-.7-.8-.5" class="st68"/><path d="M178.9 22.6c0 .2-.3.3-.4.2-.2-.2.1-.3.1-.5m0-1.1c-.1.1-.5.3-.6.4 0 .1-.1.4-.1.4.2.4.6-.2.8-.4" class="st69"/><radialGradient id="SVGID_29_" cx="-1013.38" cy="-16798.672" r=".744" gradientTransform="matrix(.1085 0 0 .102 288.615 1732.986)" gradientUnits="userSpaceOnUse"><stop offset="0" stop-color="#78abc7"/><stop offset=".515" stop-color="#86b0c7"/><stop offset="1" stop-color="#97b7c8"/></radialGradient><circle cx="178.7" cy="18.8" r=".1" fill="url(#SVGID_29_)"/><radialGradient id="SVGID_30_" cx="-1015.23" cy="-16800.793" r=".743" gradientTransform="matrix(.1085 0 0 .102 288.615 1732.986)" gradientUnits="userSpaceOnUse"><stop offset="0" stop-color="#78abc7"/><stop offset=".515" stop-color="#86b0c7"/><stop offset="1" stop-color="#97b7c8"/></radialGradient><circle cx="178.5" cy="18.6" r=".1" fill="url(#SVGID_30_)"/><radialGradient id="SVGID_31_" cx="-1011.597" cy="-16796.494" r=".744" gradientTransform="matrix(.1085 0 0 .102 288.615 1732.986)" gradientUnits="userSpaceOnUse"><stop offset="0" stop-color="#78abc7"/><stop offset=".515" stop-color="#86b0c7"/><stop offset="1" stop-color="#97b7c8"/></radialGradient><circle cx="178.9" cy="19" r=".1" fill="url(#SVGID_31_)"/><radialGradient id="SVGID_32_" cx="-1010.202" cy="-16793.986" r=".743" gradientTransform="matrix(.1085 0 0 .102 288.615 1732.986)" gradientUnits="userSpaceOnUse"><stop offset="0" stop-color="#78abc7"/><stop offset=".515" stop-color="#86b0c7"/><stop offset="1" stop-color="#97b7c8"/></radialGradient><circle cx="179" cy="19.3" r=".1" fill="url(#SVGID_32_)"/><radialGradient id="SVGID_33_" cx="-1008.647" cy="-16791.93" r=".743" gradientTransform="matrix(.1085 0 0 .102 288.615 1732.986)" gradientUnits="userSpaceOnUse"><stop offset="0" stop-color="#78abc7"/><stop offset=".515" stop-color="#86b0c7"/><stop offset="1" stop-color="#97b7c8"/></radialGradient><circle cx="179.2" cy="19.5" r=".1" fill="url(#SVGID_33_)"/><radialGradient id="SVGID_34_" cx="-1006.888" cy="-16790.037" r=".744" gradientTransform="matrix(.1085 0 0 .102 288.615 1732.986)" gradientUnits="userSpaceOnUse"><stop offset="0" stop-color="#78abc7"/><stop offset=".515" stop-color="#86b0c7"/><stop offset="1" stop-color="#97b7c8"/></radialGradient><circle cx="179.4" cy="19.7" r=".1" fill="url(#SVGID_34_)"/><radialGradient id="SVGID_35_" cx="-1006.265" cy="-16792.623" r=".744" gradientTransform="matrix(.1085 0 0 .102 288.615 1732.986)" gradientUnits="userSpaceOnUse"><stop offset="0" stop-color="#78abc7"/><stop offset=".515" stop-color="#86b0c7"/><stop offset="1" stop-color="#97b7c8"/></radialGradient><circle cx="179.5" cy="19.4" r=".1" fill="url(#SVGID_35_)"/><radialGradient id="SVGID_36_" cx="-1006.097" cy="-16795.371" r=".743" gradientTransform="matrix(.1085 0 0 .102 288.615 1732.986)" gradientUnits="userSpaceOnUse"><stop offset="0" stop-color="#78abc7"/><stop offset=".515" stop-color="#86b0c7"/><stop offset="1" stop-color="#97b7c8"/></radialGradient><circle cx="179.5" cy="19.1" r=".1" fill="url(#SVGID_36_)"/><radialGradient id="SVGID_37_" cx="-1005.861" cy="-16797.289" r=".742" gradientTransform="matrix(.1085 0 0 .102 288.615 1732.986)" gradientUnits="userSpaceOnUse"><stop offset="0" stop-color="#78abc7"/><stop offset=".515" stop-color="#86b0c7"/><stop offset="1" stop-color="#97b7c8"/></radialGradient><circle cx="179.5" cy="18.9" r=".1" fill="url(#SVGID_37_)"/><radialGradient id="SVGID_38_" cx="-1005.068" cy="-16799.631" r=".742" gradientTransform="matrix(.1085 0 0 .102 288.615 1732.986)" gradientUnits="userSpaceOnUse"><stop offset="0" stop-color="#78abc7"/><stop offset=".515" stop-color="#86b0c7"/><stop offset="1" stop-color="#97b7c8"/></radialGradient><circle cx="179.6" cy="18.7" r=".1" fill="url(#SVGID_38_)"/><radialGradient id="SVGID_39_" cx="-1004.053" cy="-16801.486" r=".743" gradientTransform="matrix(.1085 0 0 .102 288.615 1732.986)" gradientUnits="userSpaceOnUse"><stop offset="0" stop-color="#78abc7"/><stop offset=".515" stop-color="#86b0c7"/><stop offset="1" stop-color="#97b7c8"/></radialGradient><circle cx="179.7" cy="18.5" r=".1" fill="url(#SVGID_39_)"/><path d="M178.9 16.6c.2.1.2.3.4.4.2.1.4.1.5.2.1 0 .2 0 .3.1.1.1 0 .1 0 .2 0 .2.1.3-.1.5-.1.1-.3.2-.4.4-.1.2.1.3 0 .5 0 .1-.3.5 0 .4.1 0 .2-.4.2-.6.1-.4.3-.7.5-1 .2-.3.1-.7 0-1-.2-.4-.5-.5-.9-.6-.2 0-.4-.1-.5 0-.1.2-.1.4 0 .5" class="st68"/><path d="M175.1 19.8l1.2.5-.1 4.1-1.1-.8z" class="st70"/><path d="M186.2 20.1l-9.9.2-.1 4.1h.3l.1-3.9 9.4-.1-.1 3.7h.3z" class="st71"/><path d="M184.5 23.4l1.4.7.1-3.7h-1.5z" class="st72"/><path d="M175.1 19.8l9.9-.1 1.2.4-9.9.2z" class="st70"/><path d="M186.4 18.5s.3.1.4.2c.1.1.1.2.1.2s-.5 1.6-.6 1.7c-.1.1-1.8.5-2.1.4-.2-.1-.4-.1-.5-.3-.1-.1-.1-.2-.1-.4s.2-1.3.3-1.4c.1-.1.3-.2.4-.3h.6s.2-.1.4-.1c.1 0 .3.1.3.1s.2-.1.4-.1h.4z" class="st98"/><path d="M184.6 19.1s.2-.2.4-.2.3.2.3.2.1-.3.3-.2c.2.1.3.2.3.2s.1-.3.4-.3.3.1.3.1.1-.1.2-.1.2.2.2.3c0 .1-.5 1.3-.6 1.4-.1.1-.5.2-.5.3 0 0-.9.2-1 .2-.1 0-.4.1-.5-.1-.1-.2 0-.6 0-.6l.2-.7v-.5z" class="st98"/><circle cx="182.7" cy="25.1" r=".2" class="st75"/><path d="M182.7 25.3c-.1 0-.3-.1-.3-.2s.1-.2.3-.2c.1 0 .3.1.3.2-.1.1-.2.2-.3.2zm0-.4c-.1 0-.2.1-.2.2s.1.2.2.2.2-.1.2-.2-.1-.2-.2-.2z" class="st75"/><ellipse cx="184.5" cy="25.5" class="st76" rx=".3" ry=".2"/><circle cx="185.2" cy="24.7" r=".2" class="st75"/><path d="M185.2 25c-.1 0-.2-.1-.2-.2s.1-.2.2-.2.2.1.2.2c.1.1 0 .2-.2.2zm0-.5c-.1 0-.2.1-.2.2s.1.2.2.2.2-.1.2-.2-.1-.2-.2-.2z" class="st75"/><path d="M183.6 24s-1.3.7-1.4.9c-.1.2 0 .4.1.4h.1s.1-.1 0-.1l-.1-.1.1-.2v-.1l1.1-.4s.1 0 .1.1.5.8.5.8-.2 0-.2.1v.3l.1.1.1-.1v-.1l.1-.1V25l-.3-.5h.8l.1.1.1-.1h.2l-.1-.1-1.1-.3s-.4-.1-.5-.1c.3.1.2 0 .2 0z" class="st77"/><path d="M185.1 25h-.2s-.1-.1-.1-.2v-.2h.2l.1.1s-.1.1-.1.2c0-.1.1.1.1.1zm-1.5-1.2v.3s.2.1.4.1c.1 0 .2-.1.2-.1v-.4s-.3.2-.4.2c-.1 0-.2-.1-.2-.1z" class="st78"/><ellipse cx="183.9" cy="23.9" class="st79" rx=".3" ry=".1"/><path d="M183.7 22.7v1.2h.4l.1-1.2s-.3-.1-.3 0h-.2z" class="st77"/><path d="M184.2 20.8s-.1.1-.2.1-.3-.1-.3-.2.1-1.2.2-1.3c.1-.2.2-.5.4-.4.2.1.2.2.2.2s-.2.8-.3 1.1c.1.2 0 .5 0 .5z" class="st127"/><path d="M184.9 18.6c.1.1.2.2.2.3m.6-.3c0 .1.2.1.2.2.1.1 0 .1 0 .2m.2-.5c0 .1.2.1.2.1.1.1.1.2.1.2m-1.3 1.1c0 .3-.1.8-.3 1m1.5-1.2c-.1.1-.1.3-.1.4 0 .1-.1.3-.1.4" class="st80"/><path d="M185.3 19.8l.1.1h.6l-.1-.1z" class="st79"/><ellipse cx="184" cy="22.7" class="st79" rx=".3" ry=".1"/><path d="M181.7 21.3s-.1.3-.1.5c0 .1.1.4.1.4s.7.3 1 .4c.3.1.8.2.9.2.1 0 1.4-.1 1.6-.1.2-.1.5-.3.6-.5.1-.2.2-.4.1-.5-.1 0-1.3-.4-1.4-.4-.1 0-.6-.1-.6-.1h-1.2c-.3 0-.8 0-.9.1.1-.2-.1 0-.1 0z" class="st98"/><path d="M184.2 21.6l-1.8-.5h-.1l.1.1c.1 0 1.7.4 1.8.4zm-1-.5h.1l1.4.3-.1.1zm.6 0h.1l1 .3h-.1l-1-.3z" class="st80"/><path d="M184.1 22s-.4 0-.4.2c0 .1-.1.3 0 .4v.1l-1.9-.5s-.1-.2-.1-.4c0-.1-.1-.4 0-.4s.6.2.7.2c.1 0 .8.2.9.3.1.1.4.1.5.1h.3z" class="st127"/><path d="M185.9 21.5s.1.4-.1.4-.3.1-.3.1-.8 0-.9.1h-.6s-.3.1-.4.2v.4h.8c.2.1.6 0 .7 0 .1 0 .3-.2.4-.2.1 0 .2-.2.2-.3 0 0 .3-.3.2-.4v-.3z" class="st127"/><path d="M185.4 19.9h.6s-.8 2.4-.8 2.6c-.1.2-.2.2-.2.2h-.5s.4-1.1.5-1.3c0-.3.4-1.5.4-1.5z" class="st81"/><path d="M184.5 22.7l.7-2.9.2.1-.7 2.5-.1.2-.1.1z" class="st79"/><path d="M185.4 19.9l-.7 2.4-.2.4h.2l.7-2.8z" class="st73"/><path d="M183.8 22.8v1.1l.1-1.1zm-.3 1.3l-.5.2-.5.3-.3.3.2.4V25l.2-.3.9-.5.1-.2z" class="st82"/><path d="M186.2 20.6h.1l-.1.6h-.3z" class="st83"/><path d="M180.5 19.9l.4.3h1.7l-.5-.4zm2.4-1.9h-2.8l.1.1z" class="st84"/><path d="M182.9 19.8V18l-2.7.1v1.7z" class="st85"/><path d="M181.8 18.9l.2.1h-.7l-.2-.1z" class="st84"/><path d="M181.3 19h.7v1.1h-.7z" class="st85"/><path d="M181.3 19v1.1l-.2-.2v-1zm-1.1-1v1.8l-.1-.1V18zm1.8 1.3h.5v.2h-.5zm.5.9s0-.2-.1-.2l-.1-.2-.1-.2v-.1h.1s.1 0 0 .1l.1.2s.1.1.1.2c.1.1.1.2 0 .2z" class="st84"/><path d="M182.2 19.5h-.1v.1c0 .1.1.2.1.2l.1.2v.2h.2s0-.1-.1-.2c0-.1-.1-.1-.1-.2s-.1-.2-.1-.2v-.1z" class="st84"/><path d="M182.2 19.3l.1.2" class="st86"/><path d="M175.7 23.8l-3.2 4.4h-7.9l4.5-4.4z" class="st128"/><path d="M175.7 24.4v-.6l-3.2 4.4v.5z" class="st129"/><path d="M171.3 24.1c0 .1-.3.3-.7.4-.4.1-.8 0-.8-.2 0-.1.3-.3.7-.4.4-.1.8 0 .8.2z" class="st130"/><path d="M170.3 24s-.1 0 .1.1c.1.1.3 0 .3 0l.2-.1v-.2l-.6.2z" class="st131"/><path d="M170.5 23.9v.3l-.3-.1V24z" class="st132"/><path d="M168.9 21.6s2.5-.6 2.6-.6c.1 0 .4.1.4.1s.1 2.2.1 2.3c0 .1-2.7.8-2.7.8l-.3-.1-.1-2.5z" class="st130"/><path d="M172 21.1l-2.7.6s0 2.4.1 2.5c.1.1 2.7-.8 2.7-.8l-.1-2.3z" class="st133"/><path d="M169.4 22l2.4-.5v1.8l-2.3.7z" class="st134"/><path d="M171.7 21.9s.1.5-.4.7c-.5.1-1 .3-1.2.5-.2.2-.6.7-.6.7V22l2.2-.5v.4z" class="st135"/><path d="M172.4 24.1s.4.1.5.1c.1 0 .2-.1.2-.2l-.1-.2h-.3c-.1 0-.2.1-.2.1l-.1.1v.1z" class="st133"/><path d="M172.3 24s.1 0 .1-.1l.1-.1-.1.1c0-.1-.1 0-.1.1z" class="st136"/><path d="M172.3 24l.1.1c.1 0 .2.1.3.1h.1l.1-.1.1-.1s0-.1-.1 0-.1.1-.2.1h-.3l-.1-.1c.1.1 0 .1 0 0z" class="st137"/><path d="M172.3 24s.3-.1.4-.1h.1l.1.1" class="st0"/><path d="M172.1 24.1s.6.3.6.4c0 .1-2.2.9-2.3.9-.1 0-.5-.4-.6-.4 0 0-.1-.2 0-.2.1-.1 2.3-.7 2.3-.7z" class="st133"/><path d="M170.2 24.8l.4.3 1.9-.6-.4-.3z" class="st138"/><path d="M169.9 24.7l.7.7h-.1s-.4-.3-.6-.4c-.1-.2-.1-.2 0-.3-.1 0 0 0 0 0z" class="st130"/><path d="M171.8 24.4h.2v-.1z" class="st139"/><path d="M172 24.4h-.1v.1z" class="st140"/><path d="M171.2 24.8s.1 0 0 0l.7-.2-.7.2z" class="st139"/><path d="M171.9 24.7v-.1l-.6.2v.1z" class="st140"/><path d="M171.2 24.8h.1v.1l-.1-.1z" class="st141"/><path d="M179.1 24.1s.2.1.3.1c.1.1.1.2.1.2s-.4 1.3-.5 1.4c-.1.1-1.6.4-1.8.3-.2-.1-.4-.1-.4-.2-.1-.1-.1-.2-.1-.4s.2-1 .3-1.1c.1-.1.3-.2.3-.2h.5s.2-.1.3-.1c.1 0 .3.1.3.1s.2-.1.3-.1h.4z" class="st98"/><path d="M177.5 24.6s.2-.2.3-.2c.2 0 .3.2.3.2s.1-.2.3-.2c.2 0 .2.2.2.2s.1-.2.3-.2c.2 0 .2.1.2.1s0-.1.2-.1c.1 0 .2.1.2.2s-.4 1-.5 1.1c-.1.1-.4.2-.4.2s-.8.2-.9.1c-.1 0-.3 0-.4-.1-.1-.1 0-.5 0-.5l.1-.6.1-.2z" class="st98"/><ellipse cx="175.9" cy="29.4" class="st75" rx=".2" ry=".1"/><path d="M175.9 29.6c-.1 0-.2-.1-.2-.2s.1-.2.2-.2.2.1.2.2-.1.2-.2.2zm0-.3c-.1 0-.2.1-.2.1 0 .1.1.1.2.1s.2-.1.2-.1c0-.1-.1-.1-.2-.1z" class="st75"/><circle cx="177.4" cy="29.7" r=".2" class="st76"/><circle cx="178.1" cy="29.1" r=".2" class="st75"/><path d="M178.1 29.3c-.1 0-.2-.1-.2-.2s.1-.2.2-.2.2.1.2.2-.1.2-.2.2zm0-.3c-.1 0-.2.1-.2.2s.1.2.2.2.2-.1.2-.2c0-.2-.1-.2-.2-.2z" class="st75"/><path d="M176.7 28.6s-1.1.5-1.2.7c-.1.2 0 .3.1.4h.1s.1-.1 0-.1l-.1-.1.1-.1v-.1l1-.3s.1 0 .1.1.5.6.5.6-.1 0-.2.1v.2s.1.1.1 0l.1-.1v-.1l.1-.1v-.2l-.2-.4h1l-.1-.1-.9-.2-.4-.1c0-.1-.1-.1-.1-.1z" class="st77"/><path d="M178 29.3h-.1s-.1-.1-.1-.2v-.2h.3l-.1.1c-.1.2 0 .3 0 .3zm-1.3-.9v.2s.2.1.3.1h.2v-.3s-.3.2-.3.1c-.1 0-.2-.1-.2-.1z" class="st78"/><ellipse cx="176.9" cy="28.4" class="st79" rx=".2" ry=".1"/><path d="M176.8 27.5v.9h.4l.1-.9h-.5z" class="st77"/><path d="M177.2 25.9l-.1.1c-.1 0-.2-.1-.2-.2s.1-.9.2-1.1c.1-.1.2-.4.3-.3.2.1.2.2.2.2l-.3.9c0 .2-.1.4-.1.4z" class="st127"/><path d="M177.8 24.2c.1 0 .1.2.1.3m.6-.3c0 .1.1.1.2.1.1.1 0 .1 0 .2m.2-.4c0 .1.1 0 .2.1.1 0 .1.1.1.2m-1.2.9c0 .3-.1.6-.3.8m1.3-1c-.1.1-.1.2-.1.3 0 .1-.1.3-.1.4" class="st80"/><path d="M178.2 25.2h.5z" class="st79"/><ellipse cx="177" cy="27.5" class="st79" rx=".2" ry=".1"/><path d="M175 26.3s-.1.3-.1.4c0 .1.1.3.1.3l.9.3c.3.1.7.1.8.2.1 0 1.2-.1 1.4-.1.2-.1.5-.3.5-.4.1-.2.1-.3.1-.4 0 0-1.1-.3-1.2-.4-.1 0-.5-.1-.5-.1h-1c-.2 0-.7 0-.8.1l-.2.1z" class="st98"/><path d="M177.2 26.6l-1.5-.4h-.1.1c0 .1 1.5.4 1.5.4zm-.9-.4h.1l1.3.3h-.1zm.6 0h.1l.8.2-.9-.2z" class="st80"/><path d="M177.1 27s-.3 0-.4.2c0 .1-.1.3 0 .3v.1l-1.6-.4s-.1-.2-.1-.3v-.3c.1 0 .5.2.6.2.1 0 .7.2.8.2.1 0 .3.1.4.1.1-.2.3-.2.3-.1z" class="st127"/><path d="M178.7 26.5s.1.3-.1.3h-.3s-.7 0-.8.1h-.5s-.3.1-.3.2v.3h1.3c.1 0 .3-.2.4-.2.1 0 .2-.2.2-.2l.2-.3v-.2h-.1z" class="st127"/><path d="M178.2 25.2h.5s-.7 1.9-.7 2.1c-.1.1-.1.2-.1.2h-.4s.4-.9.4-1.1c0-.2.3-1.2.3-1.2z" class="st81"/><path d="M177.5 27.5l.6-2.3h.1l-.5 2.1-.2.2z" class="st79"/><path d="M178.2 25.2l-.6 1.9v.1l-.1.3h.1l.7-2.2z" class="st73"/><path d="M176.9 27.6v.8-.8zm-.3 1l-.4.2-.4.2-.3.3.2.3v-.3l.1-.2.8-.4.1-.1v-.1z" class="st82"/><path fill="#809fd2" stroke="#809fd2" stroke-width=".25" d="M177.7 26.7v10l-12.7-.1v-9.9z"/><path fill="#6c8bb8" stroke="#6c8bb8" stroke-width=".25" d="M177.7 26.7l.3-.4-12.5.1-.5.3zm0 10l.5-.8-.1-9.6-.4.4z"/><path d="M164.5 28.4h8.2l-4.1 6-9.2-.6z" class="st128"/><path d="M172.7 29.1l.1-.7-4.2 6v.4zm-13.3 4.7v.8l9.1.4.1-.7z" class="st129"/><path d="M167 29.4c0 .2-.4.4-.9.5-.5.1-1 0-1-.2s.4-.4.9-.5c.6 0 1 0 1 .2z" class="st130"/><path d="M165.7 29.4s-.1 0 .1.2c.2.1.4 0 .4 0l.2-.2v-.3l-.7.3z" class="st131"/><path d="M166 29.3v.3l-.3-.2z" class="st132"/><path d="M163.9 26.3s3.2-.7 3.4-.7c.2 0 .5.1.5.1s.2 2.9.1 3c0 .1-3.5 1.1-3.5 1.1l-.4-.2-.1-3.3z" class="st130"/><path d="M167.9 25.6l-3.5.8s0 3.1.1 3.2c.2.1 3.5-1 3.5-1l-.1-3z" class="st133"/><path d="M164.6 26.7l3.1-.6.1 2.4-3.1.8z" class="st134"/><path d="M167.6 26.7s.1.7-.5.8c-.7.2-1.3.4-1.6.6-.3.2-.8.9-.8.9v-2.3l2.9-.7v.7z" class="st135"/><path d="M168.4 29.5s.5.2.6.1l.2-.2c0-.1-.1-.3-.2-.3h-.4c-.1 0-.2.1-.3.1l-.2.1.3.2z" class="st133"/><path d="M168.4 29.3s.2 0 .2-.1l.1-.1-.2.1-.1.1z" class="st136"/><path d="M168.3 29.4s.1.1.2.1.3.1.4.1h.2s.1-.1.2-.1l.1-.1s0-.1-.1 0-.1.2-.2.2h-.5l-.1-.1s-.1-.1-.2-.1c.1 0 .1-.1 0 0z" class="st137"/><path d="M168.4 29.3s.4-.2.5-.1c.1 0 .1 0 .2.1l.2.1v.1" class="st0"/><path d="M168.1 29.4s.8.4.8.5c0 .1-2.8 1.1-2.9 1.2-.1 0-.7-.5-.7-.6 0 0-.1-.3 0-.3l2.8-.8z" class="st133"/><path d="M165.6 30.3l.6.5 2.4-.8-.5-.4z" class="st138"/><path d="M165.2 30.2l.9.8h-.1s-.6-.3-.7-.6c-.1-.1-.1-.1-.1-.2z" class="st130"/><path d="M167.8 29.9l.2-.1z" class="st139"/><path d="M168 29.9v-.1l-.2.1v.1z" class="st140"/><path d="M167 30.4c0 .1.9-.2.9-.2l-.1-.1-.8.3z" class="st139"/><path d="M167.8 30.2l-.8.2v.1z" class="st140"/><path d="M167 30.4v.1-.1z" class="st141"/><path d="M176 30.6s.4.1.5.2c.1.1.2.3.2.3s-.6 2.1-.8 2.2c-.2.1-2.5.6-2.8.6-.3-.1-.6-.2-.7-.4-.1-.2-.2-.3-.1-.6s.3-1.6.5-1.8c.2-.2.4-.3.6-.3h.8s.3-.1.5-.1.4.1.4.1.3-.1.5-.1c.1 0 .4-.1.4-.1z" class="st98"/><path d="M173.5 31.4s.3-.3.6-.3c.2.1.4.3.4.3s.2-.3.5-.3c.3.1.4.3.4.3s.2-.3.5-.3.4.2.4.2.1-.2.3-.2c.2 0 .3.2.2.4-.1.2-.7 1.7-.8 1.8-.1.1-.6.3-.7.3 0 0-1.2.3-1.4.2-.2 0-.5.1-.6-.1-.1-.2 0-.8 0-.8l.2-.9v-.6z" class="st98"/><ellipse cx="170.8" cy="39.1" class="st75" rx=".3" ry=".2"/><path d="M170.8 39.4c-.2 0-.4-.1-.4-.3 0-.1.2-.3.4-.3s.4.1.4.3c0 .2-.2.3-.4.3zm0-.5c-.2 0-.3.1-.3.2s.1.2.3.2c.2 0 .3-.1.3-.2s-.1-.2-.3-.2z" class="st75"/><ellipse cx="173.3" cy="39.7" class="st76" rx=".4" ry=".3"/><circle cx="174.4" cy="38.7" r=".3" class="st75"/><path d="M174.4 39c-.2 0-.3-.1-.3-.3 0-.2.1-.3.3-.3.2 0 .3.1.3.3 0 .2-.1.3-.3.3zm0-.6c-.1 0-.3.1-.3.3 0 .1.1.3.3.3.1 0 .3-.1.3-.3 0-.1-.2-.3-.3-.3z" class="st75"/><path d="M172.1 37.8s-1.8.9-1.9 1.1c-.1.2 0 .5.2.6 0 0 .1.1.1 0s.1-.1.1-.1l-.1-.2.1-.2.1-.1 1.6-.6s.1 0 .2.1.7 1 .7 1-.2 0-.2.1v.3l.1.1s.2-.1.1-.2l.1-.2.1-.2V39l-.4-.6h1.2l.1.1.1-.1c.1 0 .2.1.2.1l-.2-.1-1.5-.4-.6-.1c-.1-.1-.2-.1-.2-.1z" class="st77"/><path d="M174.3 39h-.2l-.2-.2v-.3h.3l.1.1s-.1.1-.1.2c-.1 0 .1.2.1.2zm-2.1-1.5v.4s.3.1.5.1.3-.1.3-.1v-.5s-.4.2-.5.2c-.2.1-.3-.1-.3-.1z" class="st78"/><ellipse cx="172.5" cy="37.6" class="st79" rx=".4" ry=".1"/><path d="M172.3 36.1v1.5h.6l.1-1.5s-.4-.1-.4 0h-.3z" class="st77"/><path d="M173 33.6s-.1.1-.2.1c-.1-.1-.3-.1-.4-.3 0-.2.2-1.5.3-1.7.1-.2.3-.6.6-.5.3.1.3.2.3.2s-.3 1-.4 1.4l-.2.8z" class="st127"/><path d="M174 30.8c.1.1.2.3.2.4m.8-.4c0 .1.2.1.3.2.1.1 0 .2 0 .3m.3-.6c.1.1.2.1.3.1.1.1.2.2.1.3m-1.8 1.4c0 .4-.2 1-.5 1.3m2.2-1.6c-.1.1-.1.4-.2.6-.1.2-.2.4-.2.6" class="st80"/><path d="M174.5 32.4h.9l-.1-.1z" class="st79"/><ellipse cx="172.6" cy="36.1" class="st79" rx=".4" ry=".1"/><path d="M169.5 34.2s-.1.4-.1.6c0 .2.2.5.2.5s1 .4 1.4.5c.4.1 1.1.2 1.2.2.1 0 1.9-.1 2.2-.2.3-.1.7-.4.9-.7.1-.2.2-.5.1-.6-.1-.1-1.7-.5-1.9-.6-.2 0-.8-.1-.8-.1h-1.6c-.4 0-1.1.1-1.2.1-.2.1-.4.3-.4.3z" class="st98"/><path d="M173 34.7l-2.5-.7h-.2l.1.1 2.4.6h.2zm-1.4-.7h.1l2 .5h-.1zm.8 0h.2l1.3.4-.1.1-1.4-.5z" class="st80"/><path d="M172.8 35.2s-.5.1-.6.2c0 .2-.1.4-.1.5v.1l-2.6-.7s-.2-.3-.2-.5-.1-.5.1-.5c.1 0 .8.3.9.3.1 0 1.1.3 1.2.4.2.1.6.2.7.2h.6z" class="st127"/><path d="M175.3 34.5s.1.5-.1.5-.4.1-.5.1-1.1.1-1.2.1h-.8s-.5.1-.5.3v.5h1.1c.2.1.8 0 .9 0 .1-.1.5-.2.6-.3.1-.1.2-.3.3-.3.1-.1.4-.4.3-.5v-.3l-.1-.1z" class="st127"/><path d="M174.6 32.4h.8l-1.1 3.3c-.1.2-.2.3-.2.3l-.7.1s.6-1.4.7-1.7c0-.3.5-2 .5-2z" class="st81"/><path d="M173.4 36.1l1-3.7h.2l-.9 3.3-.2.3-.1.1z" class="st79"/><path d="M174.6 32.4l-.9 3.1-.3.6.2-.1 1.1-3.5z" class="st73"/><path d="M172.4 36.2v1.4l.1-1.4zm-.4 1.6l-.7.4-.6.3-.5.4.3.5V39l.2-.4 1.3-.6.2-.2-.1-.1z" class="st82"/><path d="M159.9 35.5l10 .2-2.5 2.8h-7.7z" class="st128"/><path fill="#ededed" d="M170 37.6l-.1 4.6-2.3 3.6-.1-5.3z"/><path fill="#f8f8f8" d="M169.9 35.6l.1 2-2.7 3.1.1-2.2z"/><path d="M160 38.5h7.5l.1 7.3-7.6-.2z" class="st129"/><path fill="#cfcfcf" stroke="#a5a5a5" stroke-width=".25" d="M168.3 38.4l.5.1.6-.8-.2-.2m-.5 4.1l.5.1.6-.8-.3-.2"/><path d="M208.3 31.8v3.6s.6.2.8.3c.1.1 0-3.9 0-3.9h-.8z" class="st147"/><path fill="#565858" d="M207.4 36.1s.3-.3.6-.4c.3-.2.4-.1.4-.1l.6.3v.3s-.7.2-.8.2h-.8v-.3z"/><path d="M208.7 31.6v3.9s.6.3.8.3c.1.1 0-4.2 0-4.2h-.8z" class="st147"/><path d="M208.4 28c-.1.3-.7.5-.9.7-.3.2-.7.2-1 .4-.2.1-.3.2-.1.4.1.2.3.1.4.1.4 0 .9-.1 1.1-.3.3-.3.4-.8.4-1.1m-1.1-2.2s-.2-.1-.3-.1c-.1.1-.1.3-.1.4 0 .1.2.3.3.3h.2l-.1-.6z" class="st149"/><path d="M208.7 24.3s-1.6.9-1.6 1.2c0 .3.1.9 0 1.2 0 .1-.1.4-.1.5 0 .1.2.4.6.5.4.2.9.1 1.2.1.3 0 2-.1 2.2-.3.2-.2.3-.2.3-.2-.3 0 .1-.3.1-.5s.4-.2.4-.2c-.2 0-1.2-1.3-1.8-1.5-.6-.3-1.1-1.1-1.5-1.1-.5 0 .2.3.2.3z" class="st149"/><path d="M211.3 26.7s.2-.1.3-.1c.1.1.1.3.1.4 0 .1-.2.3-.3.3h-.2l.1-.6z" class="st149"/><linearGradient id="SVGID_40_" x1="2917.745" x2="2919.826" y1="-51.313" y2="-51.313" gradientTransform="matrix(-.6045 .0001 .0001 1 1974 78.428)" gradientUnits="userSpaceOnUse"><stop offset="0" stop-color="#c91b72"/><stop offset="1" stop-color="#fbf4cb"/></linearGradient><circle cx="209.6" cy="27.4" r=".6" fill="url(#SVGID_40_)" opacity=".13"/><circle cx="208" cy="26" r=".1" class="st151" transform="rotate(-81.599 207.955 26.002)"/><circle cx="209.2" cy="26.3" r=".1" class="st151" transform="rotate(-81.594 209.196 26.258)"/><linearGradient id="SVGID_41_" x1="2580.568" x2="2582.017" y1="1565.769" y2="1565.769" gradientTransform="matrix(-.5002 -.5615 -.3394 .8275 2029.754 180.747)" gradientUnits="userSpaceOnUse"><stop offset="0" stop-color="#c91b72"/><stop offset="1" stop-color="#fbf4cb"/></linearGradient><path fill="url(#SVGID_41_)" d="M206.8 26.7c-.1.2-.1.6.1.7.2.2.5.1.7-.1.1-.2.1-.6-.1-.7-.3-.2-.6-.1-.7.1z" opacity=".13"/><linearGradient id="SVGID_42_" x1="-2068.177" x2="-2068.177" y1="25.211" y2="25.211" gradientTransform="matrix(.722 0 0 1 1701.294 0)" gradientUnits="userSpaceOnUse"><stop offset="0" stop-color="#ce4952"/><stop offset="1" stop-color="#e19a31"/></linearGradient><path fill="#f5f5f4" d="M207.2 25.3s.7-.4 1-.4c.3 0 .8.3.8.3h-.1s-.5-.2-.6-.3h-.1s-.1 0-.1.1l-.1.1-.1.1s-.1 0-.2.1c-.2-.1-.5 0-.5 0z" opacity=".14"/><path d="M208.4 26.3s-.5.2-.4.4c.1.2.5.4.5.4" class="st149"/><path d="M210.9 26.4v.6s-.2.2 0 .2.4-.3.4-.3l.3-.3s0-.4.2-.7c.1-.3-.5-.7-.4-.9 0-.2 0-.4-.1-.4s-.5.5-.5.2c.1-.3.4-.8.1-.6-.3.2-.4.6-.5.5-.2-.1.2-.7 0-.7s-.4.4-.4.4-.2-.2-.2-.4-.5-.3-.5-.2c0 .1-.3 0-.3-.2s-.3-.2-.3 0c.1.2-.4.3-.4.2-.1-.1-.3.1-.3.3 0 .2.2.4 0 .4-.1 0 .4-.1.5 0 0 .1-.7 0-.7 0s.7.1.9.1c.2 0 .5.2 1 .5s.4.3.7.5c.3.4.5.8.5.8z" class="st155"/><path d="M208.1 24.6s-.2.1-.2.3c0 .2-.4.3-.4.4 0 .1-.2.2-.1.3 0 .1-.1.3-.1.3l-.2-.3c.1-.1 0-.5.2-.6.2-.1.4-.3.5-.3.1 0 .4-.2.4-.2h.2l-.3.1zm3.2 2.8s.2.1 0 .1c-.3.1-.1.3-.3.3h-.5s-.1-.2.1-.2-.8-.1-.5.3c0 0 .2.2.3.2.1.1.2 0 .3.2.1 0 .2-.1.3-.1 0-.2-.1-.2-.3-.2v-.2h-.2c0-.1 0-.1.1-.2" class="st155"/><path fill="#f7faff" d="M207.4 27s.4.3.9.4c.5.1 1.1-.2 1.1-.2l-1.2.4-.8-.6z"/><path d="M207.9 35.9h.1l.1.1v.2h-.2V36c.1 0 .1-.1 0-.1m.2-.1h.1l.1.1v.2h-.2v-.2c.1 0 .1 0 0-.1" class="st147"/><path fill="#6e6f70" d="M207.8 36.2s.3-.3.6-.4c.3-.2.4-.1.4-.1l.6.3v.3s-.7.2-.8.2h-.8v-.3z"/><path d="M208.6 36h.1l.1.1v.2h-.2V36m.2 0h.1l.1.1v.2h-.2V36" class="st147"/><path d="M208.1 35.5c0-.1-.1-.3-.2-.2-.1.1-.1.1 0 .2 0 .1.1.1.2 0h.1c.1 0 .1.1 0 .2h-.2s.1-.1.1-.2m.5.2c0-.1 0-.1-.1-.2s-.1-.1-.2 0v.2c.2.1.3.1.3 0 .1 0 .1-.1.2-.1s.2.1.1.2h-.2c-.1.1 0 0-.1-.1" class="st0"/><path d="M208.4 29.3s.4.8.6.8c.2-.1.5-.5.5-.6 0-.2-.1-.4-.2-.5-.2-.2-.9.3-.9.3z" class="st158"/><path d="M208.4 28s-.2 3.7-.2 3.9c0 .2.3.2.5.2s.4-.3.4-.3l.2.2h.4c.2 0 .3-1.8.3-2.3 0-1-.2-.8-.7-1.9h-.8l-.1.2m-.2 3.7l-.2.3-.5-.3s.5-2.7.6-3.1c.1-.4.3-.7.3-.7l-.2 3.8z" class="st158"/><circle cx="208.3" cy="28.9" r=".1" class="st147"/><path d="M209 28.9c-.1.1-.4.6-.7.7-.3.1-.6.1-.9.1-.5 0-1.7 0-1 .7.3.2.5.2.8.1l.9-.3c.6-.2 1.3-.5.9-1.3" class="st149"/><path d="M208.7 27.9l.2.3.4-.4h-.1l-.6.1zm-.5.3l.4-.3-.2-.1z" class="st147"/><circle cx="208.1" cy="31.5" r=".1" class="st147"/><circle cx="208.2" cy="30.9" r=".1" class="st147"/><circle cx="208.3" cy="30.3" r=".1" class="st147"/><circle cx="208.4" cy="29.5" r=".1" class="st147"/><path d="M207.9 28.4l.1.7.2-.9zm.7.9l.4.6s.6-.7.3-.9c-.3-.3-.7.3-.7.3z" class="st147"/><text font-family="MyriadPro-Regular" font-size=".62" transform="matrix(1.7387 -.01175 .00763 1 207.722 24.827)">Pizza</text><path fill="#d1d8d2" d="M208.2 37.2h7.8l-1.6-2h-3.6l-5.3-7h-2.8z"/><path d="M207.1 43.3l.6 1 .5-7.1-5.5-9-.3 5 .5.7.1-3.1 4.4 7.7z" class="st14"/><path fill="#c9c9c9" d="M216 44.3h-8.3l.5-7.1h7.8zm-13.1-10.4l4.3 8.4.2-3.8-4.4-7.7z"/><path d="M208.4 35.6l.8.5h3l-.8-.6zm4.4-3.4l-.4-.1h-4.7l.2.2z" class="st84"/><path d="M212.8 35.5v-3.3l-4.9.1v3.2z" class="st85"/><path d="M210.9 33.7l.2.3h-1.2l-.3-.3z" class="st84"/><path d="M209.8 34h1.3v2h-1.3z" class="st85"/><path d="M209.9 34l-.1 1.9-.2-.2v-2zm-2-1.8v3.3l-.2-.2v-3.2zm3.3 2.4h.8v.3h-.8zm.9 1.7s-.1-.3-.1-.4c0-.1-.2-.4-.2-.4s-.1-.3-.1-.4v-.2h.1l.1.1c0 .1.1.4.1.4s.1.2.2.3c.1.1.1.5.1.5h-.2z" class="st84"/><path d="M211.5 34.9h-.2v.2c0 .1.1.4.1.4.1 0 .2.3.2.4v.3h.3s-.1-.2-.1-.3c0-.1-.2-.2-.2-.3-.1-.1-.1-.4-.1-.4v-.3z" class="st84"/><path d="M211.6 34.6l.1.3" class="st86"/><g id="XMLID_3_"><path d="M205.7 43.5l.3 1.5c0 .1.3.2.8.2s.8-.1.8-.2l.3-1.5h-2.2z" class="st163"/><path d="M206.7 43.6c-.6 0-1-.1-1.1-.2l.4 1.6c0 .1.3.2.8.2s.8-.1.8-.2l.3-1.5c-.1.1-.6.1-1.2.1z" class="st163"/><ellipse cx="206.7" cy="43.5" fill="#66573a" rx="1.1" ry=".2"/><path d="M207.1 42.4s-.1 0 0 0c-.1 0-.2.1-.3.4 0-.7.1-1.4.1-1.4v-.1h-.1s-.1.8-.1 1.6c-.1-.3-.2-.4-.2-.4h-.1v.1s.2.3.3.8c0 .3 0 .6.1.8h.1V43c0-.3.2-.5.2-.6 0 .1 0 .1 0 0z" class="st165"/><pattern id="SVGID_43_" patternTransform="matrix(.3318 0 0 .3606 -5347.008 -5303.897)" xlink:href="#Weave_Color"/><path fill="url(#SVGID_43_)" d="M206.7 43.6c-.6 0-1-.1-1.1-.2l.4 1.6c0 .1.3.2.8.2s.8-.1.8-.2l.3-1.5c-.1.1-.6.1-1.2.1z"/><path d="M207.4 41.8c0-.1 0-.1 0 0-.1-.1-.1 0 0 0-.1.1 0 .2 0 .1.1 0 .1-.1 0-.1z" class="st0"/><circle cx="208" cy="41.8" r=".1" class="st0" transform="rotate(-42.803 208.037 41.809)"/><path d="M208.7 41.4c-.1 0-.1 0 0 0-.1 0-.1 0 0 0zm-.5 0v-.1l-.1.1v.1c0 .1 0 0 .1-.1z" class="st0"/><circle cx="207.5" cy="42.3" r=".1" class="st0" transform="rotate(-46.094 207.477 42.268)"/><path d="M207.7 41.7l.1-.1v-.1l-.1.1v.1z" class="st0"/><path d="M208.6 41.4c0-.1.1-.2.1-.2-.1 0-.2-.1-.2-.1-.1.1-.1.2-.1.3 0 0 0 .1-.1.1v-.1c0-.1.1-.2.1-.3h-.3c-.1.1-.1.2-.1.4 0 0 0 .1-.1.1v-.1c0-.1.1-.2.1-.3-.1 0-.2.1-.3.1-.1.1-.2.2-.3.4 0 .1.1.1.1.2v.1h-.1s0-.1-.1-.1c-.1.2-.1.4-.1.7.2-.6.8-1 1.4-1.2zm-.9.2c0-.1 0-.1.1-.1v.1c0 .1 0 .1-.1.1v-.1zm-.4.2v-.1c.1 0 .1 0 0 .1.1 0 .1.1.1.1l-.1-.1zm.8-.2v-.1c0-.1 0-.1.1-.1v.1c-.1 0-.1.1-.1.1z" class="st167"/><path d="M207.7 42.1l.2.2c.1 0 .1 0 .1-.1 0 0 .1 0 .1-.1-.1-.1-.2-.1-.3-.2v-.1h.1c.1.1.2.1.3.2.1 0 .1-.1.2-.1l-.2-.2v-.1h.1l.2.2.2-.2c-.1 0-.1-.1-.2-.1v-.1h.1c.1 0 .1.1.2.1l.2-.2h-.3c-.7.2-1.2.5-1.6 1.1 0 0 .2 0 .3-.1h-.1v-.1h.1l.1.1c.1 0 .2-.1.4-.1-.1.1-.2.1-.2-.1-.1.1-.1.1 0 0-.1 0-.1 0 0 0zm.3-.4s.1 0 .1.1c0 0 .1.1 0 .1 0 0-.1 0-.1-.1 0 0-.1-.1 0-.1zm-.4.6h-.1l-.1-.1h.1l.1.1zm.1-.3h.1l.1.1h-.1c-.1 0-.1-.1-.1-.1z" class="st165"/><path d="M209 41.4l-.1-.1c-.1 0-.1.1-.1.1h.2z" class="st167"/><path d="M205.7 41.9c-.1 0-.1.1-.1.1h.1c.1 0 .1-.1.1-.2 0 0-.1 0-.1.1zm-.2-.8v-.2s-.1 0-.1.1v.2l.1-.1zm-.9-.5zm.4.5c-.1 0-.1.1-.1.1h.1c.1 0 .1-.1.1-.1h-.1zm1.1.8s.1 0 .1-.1v-.2s-.1 0-.1.1c-.1.1-.1.2 0 .2zm-.6-.4h-.1c-.1 0-.1.1-.1.1l.2-.1c0 .1 0 0 0 0zm.3-.4s-.1 0-.1.1v.2s.1 0 .1-.1c.1-.1 0-.2 0-.2z" class="st0"/><path d="M204.6 40.7c.1 0 0 0 0 0-.1.1-.1.1-.2.1 0 .1.1.2.2.2s.2 0 .3-.1h.1v.1c-.1 0-.2 0-.3.1 0 .1.1.1.2.2.1 0 .2 0 .4-.1h.1v.1c-.1 0-.2 0-.3.1.1.1.2.2.2.3.1 0 .2-.1.3-.1h.1v.1c-.1 0-.2 0-.3.1.1.1.3.2.4.4.1-.1.1-.1.2-.1h.1v.1l-.1.1c.2.1.4.3.6.4-.6-.9-1.2-1.6-2-2zm.8.9h-.1s0-.1.1-.1c0 0 .1 0 0 .1.1-.1.1 0 0 0zm.3.4c-.1 0-.1.1-.1 0 0 0 0-.1.1-.1s.1-.1.1 0c0 0 0 .1-.1.1zm-.5-.9s0 .1-.1.1h-.1s0-.1.1-.1h.1z" class="st167"/><path d="M205.9 41.4V41c-.1-.1-.1-.2-.2-.2l-.1-.1c0 .2.1.3.1.5v.1l-.1-.1c0-.2 0-.3-.1-.5-.1-.1-.2-.1-.3-.1 0 .2.1.2.1.4v.1s-.1 0-.1-.1c0-.2-.1-.2-.1-.4h-.3c.1.1.1.1.1.2v.1s-.1 0-.1-.1c-.1-.1-.1-.1-.1-.2-.2 0-.3.1-.3.1.1 0 .2.1.3.1.8.5 1.4 1.2 1.8 2v-.6.1h-.1v-.1c0-.1.1-.1.1-.2-.1-.2-.2-.5-.3-.7v.3s0 .1-.1.1c-.2-.2-.2-.3-.2-.3zm-.5-.2s-.1-.1 0-.2c0-.1 0-.1.1-.1 0 0 .1.1 0 .2l-.1.1zm.8.4v.2c0 .1-.1.1-.1.1v-.2c0-.1.1-.1.1-.1zm-.4-.2v-.2c0-.1 0-.1.1-.1 0 0 .1.1 0 .2s-.1.2-.1.1z" class="st165"/><path d="M204.3 40.5s0 .1.1.2h.2c-.1-.1-.2-.2-.3-.2zm2.7-.6l-.1-.1-.2.2.2.2v.1h-.1l-.2-.2s-.1.1-.1.2l.2.2v.1h-.1l-.2-.2c0 .1-.1.2-.1.2l.2.2v.1h-.1l-.2-.1v.4l.2.1s.1 0 0 .1h-.2c.1.3.3.5.3.5l.5-2zm-.3.7l-.1-.1s.1 0 .1.1zm-.1.3s-.1 0 0 0c0-.1 0-.1 0 0 .1-.1.1 0 .1 0 .1 0 0 .1-.1 0zm.3-.6h-.1l-.1-.1h.1l.1.1z" class="st167"/><path d="M207.1 40.9l.3-.1v-.3l-.3.1h-.1v-.1l.3-.1v-.2l-.3.1h-.1v-.1l.3-.1c0-.1-.1-.2-.1-.2l-.1.1h-.1v-.1l.2-.1c-.1-.1-.1-.2-.2-.2v.2l-.3 1.7s.1-.1.3-.2h-.2.2c.1-.1.2-.2.2-.3v-.1c0 .1 0 .1 0 0-.1 0 0 0 0 0zm-.1-.4s0-.1.1-.1h.1s0 .1-.1.1h-.1zm.1.6h-.1c-.1 0-.1 0-.1-.1h.1l.1.1zm-.1-.3s0-.1.1-.1h.1s0 .1-.1.1c0 .1-.1 0-.1 0z" class="st165"/><path d="M207.1 39.6l-.1.1.1.1v-.2z" class="st167"/></g><path fill="none" stroke="#eecb30" stroke-width="2" d="M160.1 5.5H217v40.1h-56.9z"/><path fill="none" stroke="#eecb30" stroke-linecap="round" stroke-linejoin="round" stroke-width="2" d="M150 32.3l10.6-6.5"/><path fill="#ecedf0" stroke="#ecedf0" stroke-width=".25" d="M70.7 77.7l31.7.8-.6 40.3-31.5-3.6z"/><path d="M94.1 117.8V83.5l-15.9-.3v32.7z" class="st7"/><path d="M78.2 88.1l7.3-.1.3 28.9-7.6-.8z" class="st171"/><path d="M78.2 88.2l-.2-5.1 16.5.1-.2 5z" class="st171"/><path d="M83.5 83v5m5.6-5v5m-10.6 8.1h7m-6.8 7.2h7m-7.6 6.8h7" class="st8"/></svg>
