<svg xmlns="http://www.w3.org/2000/svg" version="1.0" viewBox="0 0 27.3 30.1"><switch><g><path fill="#D0E7C4" stroke="#669866" stroke-width=".25" d="M0 6.9s2.1-.2 2.3-.2c.2 0 3-.7 3.2-.7h1.9l1.5.1s1.8.3 1.9.4c.1.1 1.1.8 1.1.8l1.9-.1 1.9-.7 1.8-.8 1.4-.6.8-.2s1.3-1.5 1.5-1.5c.2-.1 2.1-1.8 2.1-1.8l1-1.1.6-.5.8 1.8-.1 2 .6 2.1.3 2 .5 2.4.4 3.4-.6.2-.3 1.4-.2 3.3-.1.6-1.2 1.1-.4.8-.8-.1-1.4 1.1-.4.6-.1 2.8-.9.2-.4-.7-.7-.1s-.4 1.4-.4 1.5v.7l.2.5-.4.7-.2.2-.1 1.1-.6.1-.7.4-.2-.4-1.9-.7v-.4l-.5-.3h-.5l-.4.2-.4.6-.4.2-.6.1-1.5-.4-1 .8-.7-.2-.5-.4-.1-.4-.5.2-1.9-.1-.4-.3v-1l-.6-.2V27l-.4-.3-.5-.2-.2.4-1.2-.1h-.6l-.1-.6-.6-1.8-1.7-14L0 6.9z"/></g></switch></svg>
