<svg xmlns="http://www.w3.org/2000/svg" version="1.0" viewBox="0 0 220 129"><switch><g><linearGradient id="a" x2="220.72" y1="64.75" y2="64.75" gradientUnits="userSpaceOnUse"><stop offset="0" stop-color="#aadee8"/><stop offset="1" stop-color="#4dbc93"/></linearGradient><path fill="url(#a)" d="M0 0h220.7v129.5H0z"/><path fill="#FF701F" d="M16.4 8.2h-.1l-6.8 3.3-1-3.6L17 3.8h4.5v34.7h-5.1V8.2z"/><path fill="#8AA007" d="M140.9 49.6s-53.8 3.8-54 4.7c-.2.9 0 3.9 0 3.9l1.8 1.2s-33.6-3.1-42.9-.9C36.6 60.7 26 64.8 27.9 71c1.2 4 7.7 8.6 11.8 9.3 3.8.6-.3.8 2.4 2.3 1.8 1 1.5-.7 3.1 1.4 1.3 1.6 4.6 2.4 6.4 3.1 2.7 1 5.5 1.8 8.3 2.3 12.4 2.1 17.8 3.7 44.6 4.5 26.8.9 49.5-2 58.6-3.8 0 0 9.4-1.7 17.3-3.7 7.9-1.9 12-3.5 17-4.8 5-1.4 8.7-2.7 9.8-3.3 1.2-.6 1.3-.3 1.2-2.5-.2-2.3-8.9-10.9-12.2-13.3-3.3-2.3-21.5-6.4-22.6-7.3-1.1-.9-5.9-1.9-10.7-2.9-4.8-1-9.7-1.7-11.2-1.9-1.3-.2-4.8-.5-7.3-.7-.5 0-1-.1-1.3-.1"/><path fill="#B1E00A" d="M75.8 60.4s-3.3-.3-5.3 0c-1.5.2-2.3.8-2.9 1.9-.2.4-.4.9-.6 1.4-.9 2.2.6 2 3.5 3.1 3 1.1 3.5-1.7 5.6-2.6 2.1-.9 8.8-3.8 8.8-3.8l.9-5.6L84 25s3.8 7.1 4.4 8.8c.6 1.8 3.8 7.1 3.8 7.1l.5-6.8s2.4-3.5 1.4-5 .6-2.3 1-3.7c.4-1.4 2.6-3 2.6-3s-16-10.7-18.1-9.2c-2.1 1.5-2.7 13.9-2.1 20.3.6 6.5 3 15.9 3 15.9l-.3 6.8s-2.9 2.1-3.8 2.1c-.9 0-8.2.6-9.7 0s-3.9-.6-4.8-.6c-.9 0-2.1-.6-3.2-.3-1.2.3-3.2 2.6-3.2 2.6l4.1.6s-.9.9.9 1.5 4.4 0 4.4 0l10.9-1.7z"/><path fill="#0A0A0A" stroke="#0A0A0A" stroke-width="1.782" d="M92.3 74.6c-1.7.6-3.1 2.2-4.7 3.2-1.7 1.1-3.6 1.8-5.4 2.8-3.8 2.3-8.1 4.2-11.7 6.8-4.2 3.1-1.9 6 1.9 7.8 2.1 1 3 1.2 5.2 1.1 1.4-.1 3.2-.2 4.5.3.2 3.5-2.6 7.3-1.9 10.8.4 2 2.9 1.9 4.5 1.1 1-.5 1.4-1.7 2.1-2.5.9-1.1 2-1.6 2.9-2.5 1.6-1.7 2.1-3.4 4.8-4 2-.4 3.8 1.3 4.3 3.2.4 1.5-.3 3.5-.6 5-.3 1.7-.6 3.7-1.2 5.4-1.4 4.2-1.8 7.6 3.3 9.2 3.5 1.1 7.6.8 10.5-1.7 1.6-1.3 2-3.4 4.2-3.5.7 0 2 .5 2.6.9 1.1.9.8 2.2 1.4 2.9 2.2 2.4 8.2 1.7 10.7.4 3-1.6 4.1-4.5 4.5-7.7.1-1 .6-2.7.4-3.7-.4-1.7-1.6-2.5-1.8-4.2-.2-1.7.2-2.3.8-3.9.5-1.4-.1-3.1.4-4.2.8-1.8 6-2.5 7.6-1.8-1 1.8-.1 3.1 2 2.5 0 .8-1 3.2-1.5 3.8-.5.6-1.7.6-1.9 1.5-.2 1 1 1.4 1.3 2.2.7 1.8-.4 2.6 1.9 3.6 1 .4 3.1 1.3 4.1 1.1 2.4-.3 2.3-5.1 2.6-7.2.4-2.3 2.2-6.1 1.2-8.4-.3-.7-1.1-1-1.3-1.6-.2-.6 0-1.4-.1-2.1-.2-1.1-1.9-3.5-1.7-4.2.1-.2 1.7-1 2.1-1.4.4-.5.7-1.5.9-2.1.4-1.3.8-2.8.6-4.3-.3-2.7-.5-5.5-.8-8.3-.4-3.7-3.7-3.4-6.7-3.6.7 2.8-.4 6.4-.2 9.2.1 1.3 1.3 10.5-1.6 8.5-.6-.4-1.1-3.9-1.1-4.7 0-1.8.9-3.1.7-5-.2-1.7-.8-3-1.7-4.5-.7-1.1-1.1-1.3-2-2.1-.4-.3-1.6-1.8-2-1.9-2.5-.9-6.5 8.1-7.7 1.9-.1-.8.7-1.2.2-2-.1-.2-2.1-.6-2.5-.6-1.7-.2-3.7.3-5.4.4-3.5.3-5.4-.5-8.9-.3-1.7.1-10-1.2-11-2.3-.3 1.8 2.9 6.4-3.3 7.4-1.2.2-1.6-1.3-2.7-.9-1 .3-1.7 2.1-2.1 3" opacity=".11"/><path fill="#98BE29" d="M122.4 72.5c-1.9 2.5-1.5 8.6-1.8 11.6-.3 2.7-1.8 8.1.2 10.5 4.4-1.5 4.1-10.7 5.1-14.4.6-2.3 1.6-4.7 1.6-7.1 0-1.9-.2-2.1-1.7-2.3-1.3-.2-2.8.2-3.3 1.5m30.5 3.3c1.6 1.1 3.8 2.6 4.8 4.2 1.1 1.7 1.5 3.6 2.9 5.2.7.8 1.7 1.4 2.5 2.2.4.4 1.4 1.9 1.8 2 .7.2 4.2-.8 4.9-1.2-.7-1.6-2.4-2.1-3.4-3.5-1-1.5-1.7-3.2-2.8-4.7-1.1-1.5-2.4-3.2-3.9-4.4-1.4-1.1-3.2-1.7-4.7-2.8-1.2-.9-2.7-3.6-4-4-1.8-.6-3.3 1.6-3.1 2.8.3 2.9 4.7 6.9 7.5 6.8m2.5-9.7c2.8.3 6.4 1.1 9.2 2 3 1 6.1 1.3 9.1 2.3 3.8 1.2 7.2 3.1 10.9 4.5 2.3.8 6.8 2.5 7.7 5-1.2 1.6-3.1 2.2-4.6 1.1-1.7-1.3-2.8-2.9-4.7-4-3.7-2-7.7-3.7-11.6-5.2-3.4-1.4-6.7-3-10.2-4.1-3.1-.9-8 .7-9.6-2.4 1.2-.6 3.2 1.3 4.8 1.1m42.3.3c-2.7.2-5.7-1.2-8.5-1.2-3 0-5.9-.3-8.9-.4-4.5-.2-9 1.1-13.5.8-3.1-.3-7.6.2-10.3-1.4 1.5-1.2 2.4-1 4.1-.8.8.1 1.3.3 2.2.3 1 0 2.1-.3 3-.3 3.3-.1 6.8.2 10.1-.3 3.4-.5 7-.5 10.4-.1 2.4.2 4.8.9 7.2.9.8 0 2.1-.5 2.9-.1.4.1 1.5 2.5 1.3 2.6zM74.4 67.5c-1.2.1-3 2.2-4.2 2.9-1.5.8-2.8 1.7-4.3 2.7-3 2-6.5 3.5-9.7 5.2-2.5 1.3-6.2 1.1-8.4 3.1-1.8 1.7-.9 2.3-3.5 1.4-1.1-.4-4.3-.7-2.9-2.7.8-1.2 3-.5 4.2-.6 1.8-.2 2.8-.9 4.2-1.9 2.8-1.9 5.8-3.2 8.9-4.2 3.2-1 6-2.9 9-4.1.7-.3 1.5-.3 2.1-.8.7-.4 1.1-1.4 1.8-1.7 2.4-1.1 2.2 1.4.9 2.7"/><path fill="#BEEF0C" d="M137.6 46.1s-.4-8.2-1.2-11.2c-.7-3-18.1-9.3-22.5-9.6-4.5-.3-19.3 2.7-20.7 4.1-1.4 1.4-2.1 10.4-1.9 11.8.2 1.4.4 6.1.4 6.1s19.2.1 22.1 0c2.9-.1 13 1.9 14.1 2.4 1.2.5 9.7-3.6 9.7-3.6z"/><path fill="#BBE50A" d="M91.6 48.8c.3-.8-1.9-6 15.9-5.8 17.8.3 23.8-.5 25.8 1.4 1.9 1.9 3.8 4.1 3 7.7-.8 3.6-3.5 10.5-6 11.3-2.5.8-6.6 2.6-13.9 3.1-4.4.3-14.2 0-18-3.1-1.7-1.4-4.9-3.8-5.5-5.5-.5-1.7-.8-4.9-1.4-6-.5-1.1.1-3.1.1-3.1z"/><path fill="#AFDD07" d="M60 58.9c0 1.2-1.4 2.1-3 2.1-1.7 0-3-.9-3-2.1 0-1.2 1.3-2.1 3-2.1 1.6 0 3 1 3 2.1zm6 2.1c0 1.2-1.3 2.1-3 2.1s-3-.9-3-2.1c0-1.2 1.3-2.1 3-2.1s3 1 3 2.1z"/><path fill="#AFDD07" d="M72.8 63.4c0 1.8-1.8 3.2-4 3.2s-4-1.4-4-3.2c0-1.8 1.8-3.2 4-3.2s4 1.4 4 3.2z"/><path fill="#B1E00A" d="M91.3 46.8s-4.1.3-3.6 4.9c.4 4.6 1.7 7.4 2.6 8.5.9 1.1 2.3 2.9 2.3 2.9s-1.1 1.3-1.3 1c-.2-.3-7.1 1.2-8.3 1.2-1.2 0-4 1-5.1 1.4-1 .4-2 .9-1.7 1.7.3.7 2 .9 3.6.9s3.8-1.2 3.8-1.2l2.3-.7s.3.4-.1 1-2 1.5-.6 2c1.4.6 5.2 0 5.2 0l.9-2s1.9-1.8 2.6-1c.7.7 2.1 2.9 1.8 3.3-.3.5 1.2 1.8 2.8.9 1.6-.9 3.5-1.5 2.2-2.8-1.3-1.3-4.7-3.6-5-4.1-.3-.4-.4-3.7-.4-3.7s-3-5.8-3.2-6.9c-.2-1.2-.6-5.3-.6-5.3l-.2-2zM133 61v3.7l-1.7 2s-2.9 1.4-3 2.4c-.1 1 1.7 3.2 2.4 2.7.7-.4 1.7-1.3 2.4-1.6.7-.3 1.3-1.9 1.3-1.9s1.7-1 2.2-.6c.4.4-.3 1.9 1.2 2.5 1.4.6 2.3.7 3.9.3 1.6-.4 2.7-.6 2.7-1.6s-1.3-1.9-1.3-1.9 1.7 1.3 2.9 1.4c1.2.1 2.6.7 3.5.3.9-.4 2.9-.5 2.5-1.7-.4-1.2-1.7-2.3-3-2.8-1.3-.4-5.3-.7-5.9-.9-.6-.1-3.2-.2-3.9-.3-.7-.1-2 1-2.4 0-.4-1 .9-1 1.2-2.1.3-1.1 1.8-3 2.4-4.2.6-1.2 1.8-5.7.9-6.4-.9-.7-3.2-3.8-3.3-4.3-.1-.4-2.3.7-2.3.7s1.2 4.4 1 5.4c-.3 1-2.6 6.2-2.6 6.2L133 61z"/><path fill="#B1E00A" d="M133.9 23.5s11.6-10.4 14.7-8.9c3.1 1.5 4.4 12.9 3 19.3-1.3 6.4-3.4 21.3-2.7 22.7.8 1.4 3.5 4.4 6.4 4.2 2.9-.3 7.7-.8 7.7-.8s4.4-.4 5.6-1.2c1.2-.9 3.1-1.1 3.5 0 .4 1.1 1.9.5 1.4 2.1-.6 1.6-.4 2.9-1.7 2.4-1.3-.5-2.7-1.5-2.7-1.5s.6.8.6 1.6c0 .9-.6 1.8-1.9 2.2-1.3.4-3.1.4-3.9 0-.8-.4-1-2.4-1-2.4h-2.1s0 .4.2 1.4c.2 1 .4 2.1-.8 2.2-1.2.1-2.7-.1-4.1-.4-1.3-.3-1.5-1.5-1.5-1.5l-4 .3-6.3-1.9.3-35.6s-6.7 12.6-8.1 12.9c-1.3.3-.9-5.2-1.2-6.5-.2-1.4.9-2.3.9-2.3s-.6-2.3-.8-3.7c-.2-1.3-1.5-4.6-1.5-4.6z"/><path fill="#FCFCFC" d="M111.6 29.9s-1.5 3.3-2.5 3.5c-1 .2-7.1-.4-7.9 0-.8.4-4.8 1.4-5.4.1-.6-1.4-2.3-2.8-2.3-2.8v-.8s7.3-.5 8.8-.6c1.4-.1 6.1.6 7.2 0 1.1-.6 2.1.6 2.1.6z"/><path fill="#ACD80B" d="M109.1 33.4s-5 2.8-6.9 4.1c-1.8 1.3-3.9 1.1-4.7.9-.8-.2-4.1-4.3-4.1-4.3v-2.5s2.4-1.8 2.4 0 2.4 2.7 3.9 2.2 5.7-.6 5.7-.6l3.7.2zm10.8-.2l14.3-1.6 2.3.4s-1 1.6-1.2 2.1c-.2.5-2.9 3.4-2.9 3.4s-2.5 1.3-5 1c-2.5-.3-10.1-5.3-10.1-5.3"/><path fill="#FCFCFC" d="M93.2 29.4s.2 3.5.2 3.8c0 .3 5.1 1.7 8.3 1.5 3.2-.2 5.9 0 5.9 0s3.4-1.3 4-3.8c.2-.9-1.2-2.8-1.2-2.8s-10.6-.5-11.6-.5-4.3.6-5 .5c-.7-.2-.6 1.1-.6 1.1"/><path fill="#ACD80B" d="M92.8 28.6s3.1-9.3 10.1-8.9c6.9.4 8.7 5.2 8.7 6.5v2.4l-18.2 1.2-.6-1.2z"/><path fill="#FCFCFC" d="M135.3 29.9s1.3 2.4-.4 3.1c-1.7.8-5.2.4-6.7.7-1.6.3-6.8.5-7.1.5-.4 0-3.1-.2-3.8-.9-.7-.8-.9-1.4-.9-2.4s4.3-3.7 6-3.3c1.7.4 6.4-.3 7.7 0 1.2.1 5.2 2.3 5.2 2.3z"/><path fill="#ACD80B" d="M116.6 30.4s0-4.8 1.7-6.7c1.7-1.9 5-4.1 8.3-3.5 3.3.6 7.4 3.1 7.7 4.1.4.9 2.1 4.4 2.1 4.4l-19.8 1.7z"/><path fill="#677F03" d="M128.1 31.6c0 .7-.6 1.3-1.3 1.3-.7 0-1.3-.6-1.3-1.3 0-.7.6-1.3 1.3-1.3.7.1 1.3.6 1.3 1.3z"/><path fill="#9DC105" d="M91.1 25.6c0 1.1-.8 1.9-1.8 1.9s-1.9-.9-1.9-1.9.8-1.9 1.9-1.9c1-.1 1.8.8 1.8 1.9zm-1.5-4.5c0 .5-.4 1-.9 1s-.9-.4-.9-1c0-.5.4-1 .9-1s.9.5.9 1zm3 1c0 .5-.4 1-.9 1s-.9-.4-.9-1c0-.5.4-1 .9-1s.9.4.9 1z"/><path fill="none" stroke="#9DC609" stroke-width="1.825" d="M83.8 25.3c.2-1.6-.1-3.4-.7-4.8M67 60.9c2-2.1 6.5.4 9.1-.5m-13.2-1.2c1.3-1.6 3.6.1 5.3 0m91.9 3.8c-.9-2.8-6.5-1.8-6.7 1.2m10.6-3.6c1.6 0 4-.6 5 .7"/><path fill="#0A0A0A" stroke="#0A0A0A" stroke-width="1.782" d="M90.7 36.9c.3-2.3-4-13.1-6.7-12.8-3.7.4-1 10.4-1 12.5 0 4.4 1.1 8.7.8 13-.4 4.5.9 9.6-3.3 12.7-1.8 1.3-4.4 1.9-6.4 2.6-.6.2-2.9.7-3.2 1.1-1.4 1.9.9 1.3 2 .9 2-.6 4.5-2.5 6.4-3.6 2-1.2 4.1-2 5.1-3.7.9-1.5 1.1-4.5 1-6.2-.2-2.3-.4-4.4-.5-6.7-.1-2.1-.3-4.2-.4-6.2-.2-2.4-.2-4.4-.3-6.9 0-2 1.1-4.7.4-6.6 2.9 2.9 4.8 8 6.9 11.2.2-.2-.8-.5-.8-.8m45.3-3.5c.3 2 .9 4.1 1.3 6.2 3-3.2 4.4-11.1 7.6-14.5 2.7.6-.7 17.1-.5 19.8.1 1.5.1 3 .2 4.5.1 1.3-.1 2.4-.1 3.9 0 2.3-1.3 8.7.1 10.4 2.2 2.4 6.8-.5 9.3.5-.4-3.7-7.4 1.9-8.3-3.3-.5-3.3.5-5 .6-10 .1-3.7-.6-8.5-.2-12.3.4-4.3 0-7.2-1.4-11.2-2.7.2-3.3 1.9-4.1 3.7-.9 2.1-2.5 3.8-3.5 5.9.1-1.3-.8-2.3-1.5-3.2" opacity=".11"/><path fill="none" stroke="#9DC609" stroke-width="1.825" d="M146.3 21.2c-.1.4-.9 1.4-1.1 2.1-.3.9-.3 1.9-.7 2.7"/><path fill="#ACD80B" d="M93.3 33.4c.4 3.7 4 5.3 7.1 4.8 3.2-.6 8.5-.7 9.4-4.8-2.5.1-6.1 1.2-8.7 1.4-2.5.1-5.4-.4-7.7-1.2m25 .3c2.5 2.7 6 4.3 9.7 4.3 1.7 0 3.4-.4 4.8-1.3 1.2-.8 3.5-3 3.1-4.6-.7.1-1.4 1-2.1 1.3-.6.2-1.5.3-2.1.4-1.5.2-3 .2-4.4.3-1.4 0-2.8-.1-4.3 0s-3.1.3-4.5-.2"/><path fill="#677F03" d="M103.7 31.1c0 .7-.6 1.3-1.2 1.3-.7 0-1.2-.6-1.2-1.3 0-.7.6-1.3 1.2-1.3.6.1 1.2.6 1.2 1.3z"/></g></switch></svg>
