<svg xmlns="http://www.w3.org/2000/svg" version="1.0" viewBox="0 0 58.4 75.6"><switch><g><path fill="#CA9797" stroke="#663534" stroke-width=".25" d="M35.9 43.1c-.7.3-1.5 1.6-1.9 2.4-.5.9-1.1 1.5-1.6 2.2-.7 1-.8 2.2-1 3.4-.3 1.5-.5 3.1-.6 4.5-.1 2.3.1 4.9.6 7.1.5 2.3.9 3.5 3.1 4.8 1.6.9 3.7 1.1 4.3 3-2-.1-4-.5-5.8-1.2-1.4-.5-2.9-1.9-4.4-1.1-1.7-1.2-.4-4 0-5.5.6-2.1.6-4.1.5-6.3-.1-1.7.2-3.6 0-5.4-.3-1.9-1.5-3.4-.2-5.3.4-.6 1.1-1.1 1.6-1.6 1-1.1 1.3-2 1.9-3.3"/><path fill="#CA9797" stroke="#663534" stroke-width=".25" d="M29.1 40.6c-1.1.7-1.5 2.3-2.1 3.4-.5.9-1.2 1.9-1.3 3-.1 2.1 1.3 3.7.2 5.9-1.1 2-1.6 4.1-1.7 6.5-.1 2.8-.1 5.7.7 8.4.4 1.5 0 2.9.7 4.3.5.9 1.5 2.7.8 3.6-2-.7-2.6-1.5-3.5-3.4-.4-.8-.5-1.4-1.5-1.1-.8.2-1.6.9-2 1.6-1.9-1.4 1.6-3.4 2.3-4.1 1.3-1.5.5-5.7.7-7.4.3-2.1.2-3.5.2-5.7 0-1.9-.2-3.5.3-5.4.4-1.6.6-3 .7-4.7.1-1.4.1-2.8.2-4.2 0-.9-.3-2.1.2-2.9"/><path fill="#CACA97" stroke="#35351A" stroke-width=".25" d="M9.9 32.9c-.9.7 1.7 2.1 1 3-.2-.2-.5-.3-.7-.5.2.5.6 1.7.2 2.2-.7.8-1.2-.4-1.5-.8.2.7.4 3-.8 3 0-.1-.2-.6-.2-.6 0 .7-.3 2.4-1.1 2.7-1 .3-.8-1.1-1-1.7-1.1 1.3-2.3-1.4-2.2-2.2-.2.7-.9.7-.6-.1-.9.5-.7-.8-.6-1.2C.6 38.4.7 35.6 1 34.5c-2.3.2-.7-2 .3-2.6-1.5.2-.3-1.7.1-2.2-1.2.2-.3-.9.2-1.2-.4-.7.7-1.6 1.4-1.7 1.2-.3 2.1.5 3 .6"/><path fill="#CACA97" stroke="#35351A" stroke-width=".25" d="M3.9 30.9c-.7 1.3-1.2 2.8-.3 4.1.8-.3.5-1.7.6-2.3.1-.8.3-2 1-2.5-.2 1.2-1.3 7.8 1 7.7.9-1.2-1.2-3.2-.2-4.4 0 .9.3 2.2 1.3 2.5.3-.4 0-1.2.1-1.8"/><g fill="#CACA97" stroke="#35351A" stroke-width=".25"><path d="M24.6 45.9c-1 .2-2.6 2.2-3.6 3-1.2.9-2.5 1.6-4 2.1-2.1.7-5.3.6-6.8-1.3s3.1-1.9 4.7-2.2c3.6-.7 6.2-1.7 9.1-3.7"/><path d="M26.4 48.2c-2 2.1-3 4.1-6.2 4.9-.9.2-5.7.9-5.9-.6-.1-.7 3.5-2.2 4.1-2.7 2.3-1.7 5.5-3.8 6.1-6.7"/><path d="M22.7 44.2c-1.5 1.5-3.3 2.8-5.1 4-1.2.8-3 2-.4 2.5 4.2.9 7.5-3.2 8.4-6.5m0 4.8c-1.5 0-4.8 3.8-5.7 4.9 1.2.6 4.2.4 5.6.2 3-.4 4-2.3 4.6-5.1M12 44.4c-1 .2-4-.4-4.3.4-.3.9 1.8 2.6 2.5 2.9 4.1 1.8 9.2-.8 11.4-4.1"/><path d="M17.1 41.4c-1 .7-2 1.5-3.2 1.8-1 .3-2.4.1-3.2.8 1.9 5.9 10.8 1.7 11.4-3.2"/></g><path fill="#CA9797" stroke="#663534" stroke-width=".25" d="M48.5 26.8s1.5-12.7 1.3-14.2c-.2-1.5-.4-10.3-.1-11C50 .9 51 0 51.6.1c.7.1 1.5.2 1.5.2s.9.5 1.2.9c.3.4 1.4 1.5 1.8 1.5.4 0 2.5.5 2 .8-.5.3-2 .3-2 .3s-1.4.3-1.8.3c-.4 0-.7.2-1 .5-.3.2-.8.8-1.1 1.3-.2.4-.1 2.1-.2 3.6v17.7s-2.2 2.4-3.5-.4z"/><path fill="#2E1313" stroke="#35351A" stroke-width=".25" d="M53.3 2.1c.3-.9-1.4-1-1.3-.2.1.7 1.4.7 1.6 0"/><path fill="none" stroke="#35351A" stroke-width=".25" d="M50 2.6c-.5-.4.9-.9 1 .3 0 .6-.6 2.2-1.3 1.2M3.8 28.5c-.8.2-1.9.6-2.4 1.3"/><path fill="#976928" stroke="#35351A" stroke-width=".25" d="M54.3 4.1c-.2-.4-2.2 0-1.7-.7.2-.2.8-.2 1.1-.3.3-.1.5-.3.8-.5.8-.6.8-.4 1.7 0 .7.3 1.4.5 2.2.6.3.8-1.4.7-1.9.8-.8 0-1.7.4-2.5.1"/><linearGradient id="a" x1="51.065" x2="28.161" y1="-72.716" y2="26.057" gradientUnits="userSpaceOnUse"><stop offset="0" stop-color="#343433"/><stop offset="1"/></linearGradient><path fill="url(#a)" stroke="#000" stroke-width=".25" d="M48 26.9c-1.5 2.4-5 2.2-7.1.8-1.3-.9-2.1-2.1-3.3-3.2-1.7-1.5-3.3-2.4-5.4-3.3-4.3-1.9-9.3-3.1-14.1-1.5-3.8 1.3-5.3 3.6-7.9 6.1l-1-1.2c-.2-.7-.6-1.3-1.4-1.3 0 .2.1.6.1.8-.2-.3-.6-.5-.7-.7-.6.5-.4 1.2-.4 1.9-1.1 0-2.1-1.3-3-.3.4.3.7.8 1 1-1.4-.4-2.6 1.1-.9 1.3-1.6.8-.1 1.2.9 1-.1.9-1 1.5-.9 2.4.5-.4 1-.6 1.7-.5-.2.5 0 .9-.1 1.4.3-.2.9-.3 1.1-.4 0 .7-.4 1.3-.5 2.1.5-.3.9-.2 1.3-.5-.6 1.5.6 2.3 1.3.6l1.3-.1c.6-.9 1.9-.1 2.4.9.7 1.5.5 2.9 1.7 4.3 1.7 1.9 4.1 3 6.4 4.1 4.8 2.3 10.6 3 15.8 1.3 4.5-1.4 9-3.8 12.2-7.1 2.7-2.7 3.3-4.3 3.3-7.9l.7-1.9-2.1-.3-1.2.4-.6-1.5-1 .3.4 1z"/><path fill="none" stroke="#35351A" stroke-width=".25" d="M6 38c-.1.8-.1 1.4 0 2.2"/><linearGradient id="b" x1="38.328" x2="39.146" y1="13.419" y2="28.048" gradientUnits="userSpaceOnUse"><stop offset="0" stop-color="#343433"/><stop offset="1"/></linearGradient><path fill="url(#b)" stroke="#000" stroke-width=".25" d="M44.9 35.1c.7 2.9 1.1 7.6-1.2 10-2.4 2.5-7.2 1.1-8-2.1L34 36.3"/><path fill="none" stroke="#35351A" stroke-width=".25" d="M2.6 36.7c0-.6.1-1.4.6-1.8m-1.6-3.1c.6-.5 1.3-.9 2.1-1.2M9.2 37c-.4-.7-.5-1.5-.8-2.2"/><linearGradient id="c" x1="25.436" x2="26.255" y1="14.08" y2="28.719" gradientUnits="userSpaceOnUse"><stop offset="0" stop-color="#343433"/><stop offset="1"/></linearGradient><path fill="url(#c)" stroke="#000" stroke-width=".25" d="M39.2 37.7c-2.2.7-3.6-3.7-4.7-4.9-1.7-1.9-3.8-4-6.5-3.2-2.9.8-4.8 4.6-6.8 6.6-2.1 2.1-4.4 3.9-6.7 5.8.5.7 1.4.6 2.1.1-.3.3-.2.8-.4 1.1 2 1.6 4.7-.7 6.5-1.5-.6.5-5.5 4.1-5.5 4.5 0 2.4 5.6-.3 6.4-.8-.5.5-.9 1.1-1.1 1.7 1.2.3 2.2-.4 3.2-.9-.7.9-1.9 1.4-1.9 2.7h.9c-.9.6-1.8 1.9-.3 2.4.9.2 2.6-1 3.2-1.5-.9 1.2-1.3 2.6.6 2.5 1.2-.1 2.2-1.4 2.9-2.1-.4.7-.1.7.1 1.3 2.1-.7 2.8-2.4 3.8-4.2.5-.9.8-1.7 1.8-2.2.8-.4 2.3-.3 2.5-.5"/><path fill="#FFF" d="M52.7 1.5s-.1-.1-.2-.1c-.2.1-.4.3-.2.5.1-.1.2-.3.4-.4"/><path fill="none" stroke="#35351A" stroke-width=".25" d="M56.5 3.9c-1.2-.3-2.3-.5-3.6-.3m2.6-1c-.2 0-.4.1-.5.2.4 0 1 .2 1.3.3"/><path fill="#CACA97" stroke="#35351A" stroke-width=".25" d="M22 46.9c-.5 1.2-3.8 3.1-5.3 2.9"/><path fill="none" stroke="#35351A" stroke-width=".25" d="M17.5 44.1c-1.4.9-4.6 1-5.8-.3m13.9 7.9c-1.4 1.1-3 2.1-4.9 2m-6.1-1.1c2.2.1 4.5-.6 6.5-1.7m-13-6c.8.5 2.4 1.6 3.7 1.8m-1.7 2.4c1.2.5 4.1 1.1 5.2.2M7 41.2c-.2-.8.1-1.5 0-2.3m-6.3-5c.3-.6.9-1.1 1.5-1.4m2.7 7.2c0-.5-.1-.9-.2-1.4"/><path fill="none" stroke="#EFCDE1" stroke-width=".25" d="M51.6 24.5c.2 0 .4-.1.6-.2m-3.1-.3c-.1 0-.1 0-.1-.1m2.6-.6c.1 0 .1-.1.2-.1m-2.7-1.5c.1.1.1.1.2.1m.2-2c.1 0 .2 0 .3.1m1.8-.2l.3-.3m-.4 2c.1-.1.2-.2.4-.2m-2.8-.2c.1.1.2.2.4.2m2 1.4c.1 0 .2-.1.3-.2m-3.2 2.9c.2-.1.4-.1.6-.2m2.3.5c.1 0 .3-.1.4-.1m-1.6-14h-.2m1.6-1.1c.1-.1.2-.1.3-.2M49.6 9c.1.1.2.1.3.2M51 .8c-.1-.1-.1-.3-.2-.4m1.9.4l.2-.2M51.6 11c.1-.1.2-.1.3-.2m-.4 4.5c.1-.1.3-.1.4-.2m-2-.7c.2.1.4.2.5.3m-.9 1.8c.2.1.3.1.5.2m1.7-3l.3-.3m-.3 3c.1-.1.2-.3.2-.4m-.3 1.9c.1 0 .2 0 .2.1m-2.4.3h.2m2.2-8.8c.1 0 .2 0 .3-.1m-2.7-1c.1.1.3.2.5.2M52.2 0c0 .2-.1.4-.2.5m1.4.3l.3-.3M51.4.4c0-.1 0-.3-.1-.4m-1.1 1.1c-.1 0-.2-.1-.3-.1m2.4 5.5c-.1 0-.3-.1-.3-.2m.4-.4c-.1-.1-.3-.2-.4-.2m-.1 2.1c.1.1.2.1.4.2m.3-3c.1 0 .3 0 .4.1"/><path fill="none" stroke="#343433" stroke-width=".25" d="M9.5 30.7c-1.1 0-2.1.8-2.1 1.8.8-.1 1.3-.1 2.1-.5-.2.3-.2.6-.2.9.6-.3 1.4-.8 1.4-1.5m-2.1-1.6c-.8.5-1.6 0-2.4-.1.3-.2 1-.5 1.5-.3-.4-.8-1.4-.7-2.1-1.1.8-.9 2.3-.6 2.9.3 0-.9-.8-1.8-.2-2.7.6.6 1.5 1.8 1.1 2.6m11.5 10c-1 .7-1.9 1.3-2.9 1.9-.6.4-1.6.8-1.6 1.5 3.1.6 6.5-1.8 8.3-4m-.1 3.8c-.6 1.4-2.2 2.2-2.9 3.5 1.3 1.1 3.6-.9 4.5-1.8-.2.6-1 1.6-.7 2.2.4.8.9.2 1.5-.3 1.1-1.1 2.1-2.8 2.2-4.4m-.9 5.6c-.4.6-1.8 3.1-.8 3.3 1.4.2 2.9-2.8 3.2-3.8-.1.4-.9 4.5.7 3.7.7-.3 1-3 1.3-3.7-.2 1.3.8 1 1.3.2.6-1.2.3-3.3.3-4.5M48 28.3c0-.4-.1-.6.2-.9.1.3.4.6.5 1 .2-.5.6-.9 1.1-1.2.1.4.2.8 0 1.3 1.1-.6 1.2.3.3.8"/><path fill="none" stroke="#35351A" stroke-width=".25" d="M20.3 48.5c-.6.6-.8 1.9-1.9 1.8m2.5-.6c.6-.7.1-1.5.6-2.1m1.4 10.7c.2.3.6.4 1 .3m.3 2.1c-.4.3-.8.6-1.3.2m6.3-2.8c.4.3.9.3 1.3.1m.2-2.2c-.2.3-1 .4-1.3.2m-.4-2c.2.6.9.7 1.4.6m-7.7 6.4c.2.3.6.4 1 .3m1.6 9.3c-.6-.5-1.4-.2-1.8.3m1.6-2.2c-.7-.5-1.8-.2-2.3.5m-.2-2.8c.3.3.8.6 1.2.3m8.3-1.5c-.4-.5-2 .4-2.1.9m1.1-3.2c-.6-.2-1.4.1-1.8.5m1.7-2.1c-.3-.2-.9-.1-1.3.1m2.5 4.1c-.5-.2-1.1.6-1.4.9m4.3 1.4c-.5.1-.9.6-.9 1.1m-9.6-12.9c-.5-.4-1.4-.1-1.6.5"/><path fill="#676767" stroke="#35351A" stroke-width=".25" d="M25 74.8c-.3-.3 0-.6.1-.9.3-.6.2-.7.8-.3.8.5 1.1 1.3.7 2.1-.6-.3-1.3-.3-1.7-.9m-5.6-3.7c-.5.4-.4 2 .4 1.5.7-.4.2-1.7-.4-1.5m17.5-.8s-.2-1-.2-1.5c1.4-.3 2 1.1 2.1 1.8-.7 0-1.3-.3-1.9-.3M28 67c-.4.5-.2 1.1.2 1.5.4-.3 1.1-.4.9-1-.1-.3-.8-.6-1.1-.5"/></g></switch></svg>
