<svg xmlns="http://www.w3.org/2000/svg" version="1.0" viewBox="0 0 220 129"><switch><g><path fill="#FFC" d="M0 .1h220V129H0z"/><path fill="#B5652B" d="M1.2 128.9l45.1-17.3H220V129z"/><path fill="#FACC4F" stroke="#F5BC17" stroke-width=".25" d="M213.1 81.2l-93.5.5 8.2-5.9 76.7-.1z"/><g fill="#F5BC17" stroke="#F5BC17" stroke-width=".25"><path d="M214.7 114.7c0 1-1.1 1.8-2.5 1.8h-89.9c-1.4 0-2.5-.8-2.5-1.8v-.9c0-1 1.1-1.8 2.5-1.8h89.9c1.4 0 2.5.8 2.5 1.8v.9z"/><path d="M119.6 114.2v2.6h96l-.8-3z"/></g><path fill="#090A0B" d="M133.3 106.1c-.2 0-.3 0-.4.2.5.2.6.1 1-.2-.3-.3-.6-.3-1 0"/><path fill="#FACC4F" stroke="#F5BC17" stroke-width=".25" d="M212.8 111c0 1-.4 1.8-.9 1.8h-89.7c-.5 0-.9-.8-.9-1.8V88.3c0-1 .4-1.8.9-1.8h89.7c.5 0 .9.8.9 1.8V111z"/><path fill="#F6D278" stroke="#F5BC17" stroke-width=".25" d="M203.7 101.5c0 5.5.8 9.9-2.2 9.9h-30.9c-3.1 0-2.2-4.4-2.2-9.9v-2.7c0-5.5-.8-9.9 2.2-9.9h30.9c3 0 2.2 4.4 2.2 9.9v2.7z"/><path fill="#575755" d="M178.2 88.5c-3.9 2.1-7 5.1-7.2 8.3-.1 1.6 1.3 2.9 2.3 4.4 1 1.5.7 3 1.8 4.5 2.7 3.7 8.1 2.7 13.2 2.7 2.6 0 12.3.8 13 2-4.9 1.5-12.8.2-18.2.1-3.3-.1-6.2.2-9.5 0-4.7-.4-5-.7-5.2-3.7-.3-3.9.3-8 .3-11.9 0-1.3-1.6-5.4.6-5.8 3.4-.5 7.9-.9 8.8.4" opacity=".06"/><path fill="#F6D278" d="M164.2 101.6c0 5.5.9 9.9-2.3 9.9h-31.7c-3.1 0-2.3-4.4-2.3-9.9v-2.7c0-5.5-.9-9.9 2.3-9.9h31.7c3.1 0 2.3 4.4 2.3 9.9v2.7z"/><path fill="none" stroke="#F5BC17" stroke-width=".25" d="M164.2 101.6c0 5.5.9 9.9-2.3 9.9h-31.7c-3.1 0-2.3-4.4-2.3-9.9v-2.7c0-5.5-.9-9.9 2.3-9.9h31.7c3.1 0 2.3 4.4 2.3 9.9v2.7z"/><path fill="#575755" d="M137.9 88.7c-4 2.1-7.2 5.1-7.4 8.3-.1 1.6 1.4 2.9 2.3 4.4 1 1.5.7 3 1.8 4.5 2.8 3.7 8.3 2.7 13.6 2.7 2.7 0 12.6.8 13.4 2-5 1.5-13.2.2-18.7.1-3.4-.1-6.4.2-9.7 0-4.8-.4-5.1-.7-5.4-3.7-.3-3.9.3-8 .3-11.9 0-1.3-1.6-5.4.7-5.8 3.5-.5 8.1-.9 9 .4" opacity=".05"/><ellipse cx="172.9" cy="100" fill="#F17A21" rx="2.1" ry=".7"/><path fill="#F17A21" d="M174.4 100c0 .3-.7.6-1.5.6-.9 0-1.5-.2-1.5-.6 0-.3.7-.6 1.5-.6s1.5.3 1.5.6z"/><path fill="#F17A21" d="M173.8 99.9c0 .2-.4.3-1 .3-.5 0-1-.2-1-.3 0-.2.4-.3 1-.3s1 .1 1 .3zm-12.9.3c0 .4-.9.7-2.1.7-1.2 0-2.1-.3-2.1-.7 0-.4.9-.7 2.1-.7 1.2 0 2.1.3 2.1.7z"/><path fill="#F17A21" d="M160.3 100.2c0 .3-.7.6-1.5.6-.9 0-1.5-.3-1.5-.6s.7-.6 1.5-.6 1.5.3 1.5.6z"/><ellipse cx="158.8" cy="100.2" fill="#F17A21" rx="1" ry=".3"/><g stroke="#F5BC17" stroke-width=".25"><path fill="#FCD259" d="M213.1 84c0 1-1.1 1.8-2.5 1.8h-88.4c-1.4 0-2.5-.8-2.5-1.8v-.9c0-1 1.1-1.8 2.5-1.8h88.4c1.4 0 2.5.8 2.5 1.8v.9z"/><path fill="#F5BC17" d="M119.6 83.5v2.6H214l-.8-3z"/></g><path fill="#D6D3D0" d="M.2 128.9V0h47.2l-1 111.6z"/><path fill="#333" d="M126.9 118.3h1.8v1.6h-1.8z"/><linearGradient id="a" x1="67.551" x2="68.151" y1="-307.511" y2="-331.839" gradientTransform="matrix(-.005 1 -.8118 -.0042 -123.968 23.522)" gradientUnits="userSpaceOnUse"><stop offset="0" stop-color="#ca9765"/><stop offset="1" stop-color="#653614"/></linearGradient><path fill="url(#a)" stroke="#333" stroke-width=".25" d="M129.7 118.9l.6-52.8h-3.8l-.6 52.8z"/><path fill="#333" d="M90.3 120.3l-1.3-.1-.3 1.8 1.3.1z"/><linearGradient id="b" x1="-51.923" x2="-51.025" y1="-119.381" y2="-155.779" gradientTransform="rotate(114.363 -43.186 35.116)" gradientUnits="userSpaceOnUse"><stop offset="0" stop-color="#ca9765"/><stop offset="1" stop-color="#653614"/></linearGradient><path fill="url(#b)" stroke="#333" stroke-width=".25" d="M91.1 121.3l32.5-55.2-3.1-1.1L88 120.2z"/><path fill="#333" d="M166.7 120.3l1.3-.1.3 1.8-1.3.1z"/><linearGradient id="c" x1="688.741" x2="689.64" y1="1516.186" y2="1479.787" gradientTransform="scale(1 -1) rotate(-65.637 -823.707 1125.85)" gradientUnits="userSpaceOnUse"><stop offset="0" stop-color="#ca9765"/><stop offset="1" stop-color="#653614"/></linearGradient><path fill="url(#c)" stroke="#333" stroke-width=".25" d="M165.8 121.3l-32.4-55.2 3.1-1.1 32.4 55.2z"/><linearGradient id="d" x1="126.957" x2="128.643" y1="21.334" y2="-46.984" gradientUnits="userSpaceOnUse"><stop offset="0" stop-color="#ca9765"/><stop offset="1" stop-color="#653614"/></linearGradient><path fill="url(#d)" stroke="#333" stroke-width=".25" d="M126.7 3.8h1.1v15.8h-1.1z"/><linearGradient id="e" x1="130.89" x2="132.577" y1="21.148" y2="-47.18" gradientUnits="userSpaceOnUse"><stop offset="0" stop-color="#ca9765"/><stop offset="1" stop-color="#653614"/></linearGradient><path fill="url(#e)" stroke="#333" stroke-width=".25" d="M130.6 3.6h1.1v15.8h-1.1z"/><linearGradient id="f" x1="129.259" x2="129.492" y1="4.997" y2="-4.447" gradientUnits="userSpaceOnUse"><stop offset="0" stop-color="#ca9765"/><stop offset="1" stop-color="#653614"/></linearGradient><path fill="url(#f)" stroke="#333" stroke-width=".25" d="M126.4 2.6h5.8v2h-5.8z"/><path fill="#FFF" stroke="#000" stroke-width=".25" d="M102.5 65.4h51.4l-1.5-45h-46.7z"/><path fill="#FFF" stroke="#000" stroke-width=".25" d="M102.5 64.1h51.4l-1.5-44.9h-46.7z"/><linearGradient id="g" x1="128.174" x2="128.689" y1="67.837" y2="47" gradientUnits="userSpaceOnUse"><stop offset="0" stop-color="#ca9765"/><stop offset="1" stop-color="#653614"/></linearGradient><path fill="url(#g)" stroke="#333" stroke-width=".25" d="M115.8 62.8h24.8V67h-24.8z"/><linearGradient id="h" x1="129.348" x2="129.578" y1="19.598" y2="10.275" gradientUnits="userSpaceOnUse"><stop offset="0" stop-color="#ca9765"/><stop offset="1" stop-color="#653614"/></linearGradient><path fill="url(#h)" stroke="#333" stroke-width=".25" d="M124.5 17.3h9.8v1.9h-9.8z"/><path fill="#F7EC37" d="M109.1 59.2h39.7l-1.2-34.7h-36z"/><path fill="#4169B1" d="M133 48c.4-.1.7-.2 1-.3h-1v.3z"/><path fill="#ED3A68" d="M137.5 46.2c2.3-1.5 3.8-3.7 3.8-6 0-4.6-5.5-8.4-12.3-8.4-6.8 0-12.3 3.8-12.3 8.4 0 4.6 5.5 8.4 12.3 8.4.6 0 1.2 0 1.8-.1v-2.3h6.7zm-17.3-6.1c0-3.3 3.9-5.9 8.7-5.9 4.8 0 8.7 2.7 8.7 5.9 0 3.3-3.9 5.9-8.7 5.9-4.8.1-8.7-2.6-8.7-5.9z"/><path fill="#4169B1" d="M137.5 46.2c-1 .7-2.2 1.2-3.4 1.6h7.6v5.9H133V48c-.7.2-1.5.3-2.3.4v6.8H144v-9.1h-6.5z"/><path fill="#FFF" stroke="#333" stroke-width=".25" d="M118.4 63.3c.3.1.4.1.5.4.1.2.1.4.4.5.2.1.6 0 .9 0 .3 0 .6.1.9.1 2-.1 3.9-.3 5.8-.8.4-.1.9-.3 1.4-.3.2 0 1 0 1.1-.1.1-.1-.1-.7-.2-.9-.1-.5-.2-1-.3-1.4-.1-.4-.3-.7-.4-1.1 0-.2-.2-.6-.3-.7-.2-.1-.2 0-.4 0-.3.1-.6.1-.9.2-.6.1-1.1.2-1.6.3-1 .1-2 .4-3.1.5-.7.1-1.5.1-2.2.2-.4 0-1 .3-1.4.5-.5.3.1.9-.7 1"/><g fill="#CCCBCB" stroke="#333" stroke-width=".25"><path d="M118 61.5c-1.1 0-.4.5-.4 1 .1.5-.2 1 .6.9.3 0 .4-.5.4-1s-.3-.9-.6-.9z"/><path d="M117.6 61.5c-.3 0-.4.5-.4 1 .1.5.3.9.6.9s.4-.5.4-1c-.1-.5-.4-.9-.6-.9z"/></g><path fill="#498ECC" d="M120.2 60c.2.2.4.7.5.9.2.4.3.7.4 1.1 0 .4-.1.8-.2 1.1 0 .4 0 .7.1 1.1 0 0 1.2 0 1.3-.1 0 0 2.8-.3 3.3-.4.5-.2 1.2-.3 1.2-.3.4-.8.1-1.4-.1-2.2-.1-.4-.2-.7-.3-1.1-.1-.4-.1-.6-.4-.9h-.5s-1.7.2-2.1.3c-.4.1-2 .2-2 .3-.3.2-1.2.2-1.2.2z"/><path fill="#CCCBCB" d="M118.5 63.3c.1-.1.2-.2.2-.3.1.1.2.3.3.5.1.1.2.3.3.4.3.2 1 0 1.2.3-.1.1-.5 0-.6 0-.2 0-.5.1-.7 0-.2-.1-.2-.3-.3-.5 0-.3-.1-.4-.4-.4m8.9-.1c.2-.1.3-.2.5-.2s.4-.1.6-.1h.4c.1-.1 0-.2 0-.3 0-.2-.1-.3-.2-.4v-.5c0-.1.1-.3.1-.4V61c.1.1.1.3.1.4 0 .2.1.3.1.5 0 .3.2.5.3.7.1.3.2.5-.3.5-.1 0-.3-.1-.4 0-.1 0-.3 0-.4.1-.3-.1-.6 0-.8 0" opacity=".25"/><path fill="#FFF" stroke="#333" stroke-width=".25" d="M128.9 62.9c-.2-.3-.1-.8-.2-1.1-.1-.3-.3-.7-.4-1-.1-.3-.2-.6-.2-1 0-.1-.1-.3-.1-.4 0-.1-.1-.3-.2-.4"/><path fill="none" stroke="#676767" stroke-width=".25" d="M118.1 63.2c.1 0 .3 0 .4-.1m-.4 0h.5m-.4-.2c.1 0 .3 0 .4-.1m-.4-.1c.1 0 .2-.1.4 0m-.4-.3h.5m-.5-.2h.4m-.5-.2h.4m-.5-.2c.1 0 .3 0 .4-.1m-.5 0c.1 0 .3 0 .4-.1"/><path fill="#FFF" stroke="#333" stroke-width=".25" d="M136.7 61.3c-.3-.1-.4-.1-.4-.5 0-.2 0-.4-.3-.5-.2-.1-.6 0-.9-.1-.3-.1-.6-.1-.9-.2-2-.1-3.9-.2-5.9.2-.5.1-.9.2-1.4.2-.2 0-1-.1-1.1 0-.2.1 0 .7 0 .9.1.5 0 1 .1 1.4.1.4.2.8.2 1.2 0 .2.1.6.2.7.1.1.2 0 .4 0 .3-.1.6-.1.9-.1.6 0 1.1-.1 1.7-.1 1 0 2.1-.1 3.1-.1h2.3c.4 0 1.1-.2 1.4-.3.5-.3 0-.9.8-.9"/><g fill="#CCCBCB" stroke="#333" stroke-width=".25"><path d="M136.7 63.1c1.1.1.5-.4.6-.9 0-.5.4-1-.4-1-.3 0-.5.4-.6.9-.1.6.1 1 .4 1z"/><path d="M137.1 63.2c.3 0 .5-.4.6-.9 0-.5-.2-1-.4-1-.3 0-.5.4-.6.9s.2.9.4 1z"/></g><path fill="#ED3A68" d="M134.3 64.3c-.2-.2-.2-.7-.3-1-.1-.4-.2-.7-.2-1.1.1-.4.3-.7.4-1.1.1-.4.1-.7.1-1.1 0 0-1.2-.1-1.3-.1-.1 0-2.8-.1-3.3 0s-1.3.2-1.3.2c-.5.7-.3 1.4-.2 2.2 0 .4.1.8.1 1.1.1.4 0 .6.3.9h.5s1.7 0 2.2-.1h2.1c0 .1.9.1.9.1z"/><path fill="#CCCBCB" d="M136.5 61.3l-.3.3c-.1-.1-.2-.3-.2-.5-.1-.1-.1-.3-.2-.4-.2-.2-1-.1-1.1-.4.1-.1.5.1.6.1.2 0 .5 0 .7.1.1.1.1.4.2.5 0 .1.1.3.3.3m-8.8-.9c-.2 0-.3.1-.5.2h-1c-.1.1 0 .2 0 .3 0 .2.1.3.1.5v.5c0 .1-.1.2-.1.4v.3c-.1-.1-.1-.3-.1-.4v-.5c0-.3-.1-.5-.2-.8 0-.3-.1-.5.3-.5.1 0 .3.1.4.1h.4c.2-.1.4-.1.7-.1" opacity=".25"/><path fill="#FFF" stroke="#333" stroke-width=".25" d="M126.2 60.6c.2.3 0 .8 0 1.1 0 .4.2.7.2 1 0 .3.1.6.1 1v.4c0 .1 0 .3.1.4"/><path fill="none" stroke="#676767" stroke-width=".25" d="M136.9 61.4h-.4m.4.1c-.1-.1-.3 0-.5 0m.4.2h-.4m.3.2h-.4m.4.3c-.1-.1-.3 0-.5 0m.5.2c-.1-.1-.3 0-.4 0m.4.2h-.4m.5.2h-.4m.5.2h-.4"/><path fill="#89C551" d="M121.1 42.2h-10.8l5.4 6.4 5.4 6.4 5.4-6.4 5.4-6.4h-10.8zm3.2 5.4l-3.4 4-3.4-4-3.4-4h13.8l-3.6 4z"/><linearGradient id="i" x1="71.659" x2="70.596" y1="83.328" y2="121.947" gradientUnits="userSpaceOnUse"><stop offset="0" stop-color="#8c2b8a"/><stop offset=".173" stop-color="#933992"/><stop offset=".501" stop-color="#a55da6"/><stop offset=".944" stop-color="#c298c6"/><stop offset="1" stop-color="#c6a0ca"/></linearGradient><path fill="url(#i)" d="M69.1 91.2h4v27.5h-4z"/><linearGradient id="j" x1="62.573" x2="61.509" y1="83.418" y2="122.073" gradientUnits="userSpaceOnUse"><stop offset="0" stop-color="#8c2b8a"/><stop offset=".173" stop-color="#933992"/><stop offset=".501" stop-color="#a55da6"/><stop offset=".944" stop-color="#c298c6"/><stop offset="1" stop-color="#c6a0ca"/></linearGradient><path fill="url(#j)" d="M59.6 90.5h4.8V118h-4.8z"/><path fill="#E9BA8B" stroke="#CB905E" stroke-width=".25" d="M104.6 49.6c0-.1-.1-.2-.1-.3-.3-1.3 2.2-1 3.1-1.5 1.8-1-2-1-2.7-.9-1.4.3-3.2 2-3.6 3-.4 1.1-.4 1.9-.5 3.1l-1.5 1.3 2.3 1.9 1.6-1.4c2-.5 3.1-1.1 4.2-2.5.5-.6.9-2 1.6-2.5.6-.4 1.6.1 2.2-.3.1-1.4-2-1-3.1-1.1.5-.6 3.3-1.5.7-1.9-1.7-.3-1.7-.2-3.1.3"/><linearGradient id="k" x1="-1065.623" x2="-1060.148" y1="-238.745" y2="-240.716" gradientTransform="rotate(70.5 -684.57 731.607)" gradientUnits="userSpaceOnUse"><stop offset="0" stop-color="#ca9765"/><stop offset="1" stop-color="#653614"/></linearGradient><path fill="url(#k)" stroke="#333" stroke-width=".25" d="M112.7 46.9s-.2-.6-1.9 0c-1.8.6-16 4.9-15.9 5.5.1.4 15.7-4.2 17.5-4.9.7-.5.3-.6.3-.6z"/><path fill="#333" d="M112.7 46.2c.1-.2.3-.4.5-.5 0 .1-.1.2-.1.2.3-.4.9-.6 1.5-.8-.1.1-.2.1-.3.2.9-.3 2.1-.4 3-.2-.1 0-.2.1-.4.2.3 0 .6-.1.8 0-.9.3-1.3 1.2-2.3 1.5h.3c-.5.2-.9.5-1.4.6-.5.1-1-.1-1.4-.1"/><linearGradient id="l" x1="-1065.16" x2="-1062.46" y1="-250.598" y2="-244.602" gradientTransform="rotate(70.5 -684.57 731.607)" gradientUnits="userSpaceOnUse"><stop offset="0" stop-color="#fff"/><stop offset="1" stop-color="#676767"/></linearGradient><path fill="url(#l)" stroke="#333" stroke-width=".25" d="M110.5 46.9l2.3-.8.7 1.2-2.5.7z"/><path fill="#676767" d="M113.5 46.7c.2-.1.2-.2.4-.4s.5-.3.8-.4c-.5 0-.9.4-1.2.6.1-.8 1.8-1.2 2.7-1.3-.9-.1-3.6.5-2.7 1.5"/><path fill="#E9BA8B" stroke="#CB905E" stroke-width=".25" d="M102.7 51.1c1.4.6 2.1-.5 2.9-1.1.6-.5 2.5-1.7 2.5-.4 0 .7-1.1 1.9-1.6 2.5-.7.9-1.7 1.2-2.6 1.9"/><path fill="#D1ECF2" d="M77.5 51.7c3.4 2.6 7.5 5.4 10.1 8.6 4.5-1.2 8.4-5.1 12.6-7 .7.8 1.6 1.6 2.6 2.2-1.3 2.4-4.1 4.2-7.3 6.4-3.4 2.4-5.8 3.4-8.8 4.9C83.3 63.1 75.5 60 73.9 56"/><path fill="#D1ECF2" d="M78.3 44.2c3.7 2.8-1.8 13.5 1.7 18 4.2 5.4-1.4 8-1.3 12.3.1 10.6 5.6 21.4 2 21.9-10.5 1.4-24.8.2-26.1.2-.7-9.5-1.8-17.3 0-26.5.9-4.7.3-8.6 1.7-13.2 1-3.2 2.4-13.4 2.2-16.7"/><path fill="#E9BA8B" stroke="#CB905E" stroke-width=".25" d="M61.3 47.8s6.4 4 7.6 8.5c1.2 4.6 1.5 2.2 1.5 2.2s.7-5.8 4.8-8.7"/><path fill="#D1ECF2" d="M56.3 54.8c-3.3 1.8-9.8 6.5-12.5 8.8-3.4-1.4-5.7-5.3-8.7-7.3-.7.6-1.6 1.1-2.6 1.5.6 2.1 3.4 4.4 5.1 6.2 1.8 1.8 3.8 3.5 6 5 3.6-2.6 9.3-4.5 12.3-7.6"/><g stroke="#653614" stroke-width=".25"><path fill="#CA9765" d="M36.2 46.3s-6.4-.8-13.3 2.4c-6.8 3.2-11.9 9 .4 13.9 15.4 5.2 18.6-7.1 18.6-7.1s-.5-3.2-2.5-2.7c-2.1.5-3.9 2.5-5.8.8-2-1.7 2.1-2.8 3.6-2.6 1.5.2 4.4-1.4 3.1-3.2-1.3-1.9-4.1-1.5-4.1-1.5z"/><path fill="#CA9765" d="M36.2 45s-6.4-1.9-13.2 1.3c-6.8 3.2-13.1 11.4-.2 15.8 15.8 5.5 19.5-7.5 19.5-7.5s.8-3.4-3-2.5c-2.1.5-3.8 2.9-5.8 1.1-2-1.7 2-2.8 3.5-2.6 1.5.2 4.8-1.7 3.3-3.4-1.7-1.9-3.8-2.2-4.1-2.2z"/><path fill="#FFF" d="M33.1 55c3-.5 2.3 2.7 0 2.7 0 0-4.4-1.4 0-2.7z"/><path fill="#CA9765" d="M31.9 57.2s-1.8-.8.1-1.8c1.9-1 2.9 0 2.9 0s-1.9-.2-2.5.2c-1.2.5-.5 1.6-.5 1.6z"/></g><path fill="#E9BA8B" stroke="#CB905E" stroke-width=".25" d="M35.4 56.5c-4.8-2.1-7.5 3.9-1 1"/><linearGradient id="m" x1="63.908" x2="66.84" y1="67.471" y2="67.471" gradientUnits="userSpaceOnUse"><stop offset="0" stop-color="#8c2b8a"/><stop offset=".173" stop-color="#933992"/><stop offset=".501" stop-color="#a55da6"/><stop offset=".944" stop-color="#c298c6"/><stop offset="1" stop-color="#c6a0ca"/></linearGradient><ellipse cx="65.4" cy="67.5" fill="url(#m)" rx="1.5" ry="1.2"/><linearGradient id="n" x1="63.908" x2="66.84" y1="73.196" y2="73.196" gradientUnits="userSpaceOnUse"><stop offset="0" stop-color="#8c2b8a"/><stop offset=".173" stop-color="#933992"/><stop offset=".501" stop-color="#a55da6"/><stop offset=".944" stop-color="#c298c6"/><stop offset="1" stop-color="#c6a0ca"/></linearGradient><ellipse cx="65.4" cy="73.2" fill="url(#n)" rx="1.5" ry="1.2"/><linearGradient id="o" x1="63.25" x2="66.181" y1="79.171" y2="79.171" gradientUnits="userSpaceOnUse"><stop offset="0" stop-color="#8c2b8a"/><stop offset=".173" stop-color="#933992"/><stop offset=".501" stop-color="#a55da6"/><stop offset=".944" stop-color="#c298c6"/><stop offset="1" stop-color="#c6a0ca"/></linearGradient><path fill="url(#o)" d="M66.2 79.2c0-.7-.7-1.2-1.5-1.2s-1.5.5-1.5 1.2.7 1.2 1.5 1.2 1.5-.6 1.5-1.2z"/><path fill="#F7EC37" d="M20.3 52.8c-.3-.2-.7-.1-.4-.6.4.1 1.1 0 1.5.1 0-.3.3-.6.3-1 1-.1 1.7.4 1.3 1.1 1.8-.6 2.2.3 1.9 1.3-.1.3-1.1.4-1.3.9-.2.3.3 1.2.2 1.6-.9.2-2.1 1-3 .7-1.1-.4-1-1.4-.2-2-.9-.5-2.5-1.5-.7-2.2"/><path fill="#7291CA" d="M23.6 49.6c-.8-.6-.7-1.4.4-1.8.2.2.6.3.7.5 1.3-1 3.1 1.1 2.6 2-.5 1-4.2 1.2-3.7-.3"/><path fill="#ED3A68" d="M28.8 48.4c-1.2-1.1.1-2.2 1.7-2.3 0 1.2 1.3.6 1.6 1.4.2.6-.8.9-.7 1.7-.9.2-1.9.1-2.4-.5"/><path fill="#89C551" d="M23.3 58.8c-.3-.3.6-1.8 1.8-.6.3-.4.8-.5 1.3-.8.5.7 1.2 1.6-.2 1.8.9 2.1-3.2 1.8-2.9.1"/><path fill="#333" d="M66.5 116.8s-7-4-8.7-.5l-1.8 3.5h10l.5-3zm3.2-.5s7-4 8.7-.5l1.8 3.5-10.7.4.2-3.4z"/><path fill="#E9BA8B" stroke="#CB905E" stroke-width=".25" d="M48.7 34.5s-.3 8.2.6 9.6c.9 1.4 4.7 3.9 12.4 5.6 4 .9 6.6 1 8.4.9 1.9-.1 3.1-.5 4.5-.5 2.9 0 7.1-3.1 9-4.5 1.9-1.4 3.4-4.5 3.8-6.7.4-2.2.8-4.9.4-5.5-.4-.6-1.2-7.2-1.2-8.6 0-3.3-13.5-6.4-18.3-6.4-4.8 0-18 6.2-18.8 7.5-.8 1.2-.8 8.6-.8 8.6z"/><linearGradient id="p" x1="76.841" x2="88.028" y1="42.796" y2="42.796" gradientUnits="userSpaceOnUse"><stop offset="0" stop-color="#ec1475"/><stop offset="1" stop-color="#fff5cb"/></linearGradient><path fill="url(#p)" d="M88 42.8c0 1.8-2.5 3.3-5.6 3.3-3.1 0-5.6-1.5-5.6-3.3 0-1.8 2.5-3.3 5.6-3.3 3.1 0 5.6 1.5 5.6 3.3z" opacity=".18"/><ellipse cx="77.5" cy="36.5" fill="#030305" stroke="#000" stroke-width=".25" rx="1" ry=".7"/><ellipse cx="65.4" cy="36.9" fill="#030305" stroke="#000" stroke-width=".25" rx="1" ry=".7"/><linearGradient id="q" x1="63.286" x2="49.781" y1="42.826" y2="42.826" gradientUnits="userSpaceOnUse"><stop offset="0" stop-color="#ec1475"/><stop offset="1" stop-color="#fff5cb"/></linearGradient><ellipse cx="56.5" cy="42.8" fill="url(#q)" opacity=".18" rx="6.8" ry="4"/><linearGradient id="r" x1="43.637" x2="70.425" y1="42.758" y2="42.758" gradientUnits="userSpaceOnUse"><stop offset="0" stop-color="#986632"/><stop offset="1" stop-color="#533416"/></linearGradient><path fill="url(#r)" stroke="#986632" stroke-width=".25" d="M70.4 24.9c-8.5-.7-15.9 2.7-20.3 8.2-4.4 5.4 2.9 6.8 3.7 11.7.4 2.2 3.5 2.9 6.1 4.2 2.6 1.3 2.6 1 .9 4.7-.4 1-1.5 1.4-1.9 2.6-.3.9 0 2.5-.2 3.5-.6 2.5-1.9 4.1-4.1 6-1.5-3 .7-5.8.9-8.7.1-1.8 0 2-2.5 1.4-2.8-.7-2.9 5.6-5.2 5.1-1.7-3.8-1.8-17.6-3-21.4-1.8-5.9-2.1-12.4 3.8-16.9 4.8-3.7 12.8-5.7 19.6-5.3"/><path fill="#E9BA8B" stroke="#B17C54" stroke-width=".25" d="M70.4 40.2s1.6-2.2 2.4-1.7c.8.5 1.2 2 1.2 2"/><linearGradient id="s" x1="60.779" x2="92.242" y1="40.497" y2="40.497" gradientUnits="userSpaceOnUse"><stop offset="0" stop-color="#986632"/><stop offset="1" stop-color="#533416"/></linearGradient><path fill="url(#s)" stroke="#986632" stroke-width=".25" d="M62.7 24.7c2.8 1.3 4.2 4 7.6 5.3 3.2 1.2 6.2 1.6 9.5 2.2 1.1.2 4.2.4 5 1.1 2 1.6.1 1.6 0 3.4-.1 2.6 1.2 4.8-1.3 7.4-2 2-5.1 3.1-6.3 5.8-1.1 2.6 1.2 4.6.7 7.2-.2 1.1-5.3 7.5.1 6 2.1-.6 3.2-6.4 3.6-7.9 1.6-5.4 5.4-9.7 9-14.3 2.9-3.8 1.4-10.4-.6-14.4-2.9-5.7-8.7-7.5-16.4-8-3.1-.2-6.5-1.1-9.4-.1-4.3 1.5-4.3 4.5-1.1 7"/><linearGradient id="t" x1="55.089" x2="63.713" y1="27.717" y2="27.717" gradientUnits="userSpaceOnUse"><stop offset="0" stop-color="#986632"/><stop offset="1" stop-color="#533416"/></linearGradient><path fill="url(#t)" stroke="#986632" stroke-width=".25" d="M63 25.7c.1-.3 0-.5-.4-.6-3.7.6-5.8 3-7.5 5.3 1.8-.3 7.6-3.6 8.6-4.7"/><linearGradient id="u" x1="49.101" x2="54.84" y1="35.175" y2="35.175" gradientUnits="userSpaceOnUse"><stop offset="0" stop-color="#986632"/><stop offset="1" stop-color="#533416"/></linearGradient><path fill="url(#u)" stroke="#986632" stroke-width=".25" d="M54.8 27.9c-5.9 3.8-8.4 10-2 14.5 1.6-3.5-6.8-11.4.1-14.5"/><path fill="none" stroke="#6D3214" stroke-width=".25" d="M66.9 43.8c1.7 1.4 5.6 1.7 7.8 1.1"/><path fill="#333" d="M64.9 18.7c-2.5 5.9-12.1 6.7-17.6 10.3-1.5 1-1.8 1.7-3.4.8-1.1-.7-1.9-2.6-1.9-3.7 0-2.5 2.3-5.6 5.3-6.6.9-.3 2.5-.2 3.2-.5.8-.4 1-1.4 1.5-2.1 1.1-1.6 2.7-2.6 5.1-2.9 3-.4 10.8 2.3 8.1 5"/><path fill="#333" d="M51.2 18.7c-1.2-.3-1.5-2.3-2.1-3.1-2.1 1.7-.2 2.6 1.9 3.3"/><path fill="none" stroke="#231F20" stroke-width=".25" d="M70 59c.3 3.1-1.1 6.2-1.3 9.2-.2 3.3-.3 6.7-.3 10 0 3.5-.3 6.6-.3 10 0 2.6 1.9 6.4 1.3 8.5"/><path fill="#F7EC37" d="M119.6 24.5h4v31.6h-4z"/><path fill="#F7EC37" d="M148.4 39.5c0 .7-.8 1.3-1.7 1.3H113c-.9 0-1.7-.6-1.7-1.3 0-.7.8-1.3 1.7-1.3h33.7c1 0 1.7.6 1.7 1.3z"/><path fill="#4169B1" d="M133.1 32.6c1.3.3 2.6.7 3.7 1.3l-3.6-4.6 7.6-2.8 4.1 5.2-7.2 2.6c.6.4 1.1.8 1.6 1.2l8.8-3.2-6.3-8-11.8 4.4 3.1 3.9z"/><path fill="#686765" stroke="#686765" stroke-width=".25" d="M184.2 74.9c0 .8-3.1 1.4-6.9 1.4-3.8 0-6.9-.6-6.9-1.4 0-.8 3.1-1.4 6.9-1.4 3.8-.1 6.9.6 6.9 1.4z"/><ellipse cx="177.3" cy="74.6" fill="#858481" stroke="#858481" stroke-width=".25" rx="6.9" ry="1.4"/><ellipse cx="177.3" cy="74.6" fill="#B6B6B7" rx="6" ry="1.2"/><path fill="#C82028" d="M183.2 74.5c0 .6-2.6 1.1-5.9 1.1-3.3 0-5.9-.5-5.9-1.1 0-.6 2.6-1.1 5.9-1.1 3.2-.1 5.9.4 5.9 1.1z"/><path fill="#949491" stroke="#949491" stroke-width=".25" d="M193.5 75.7c0 1.1-3 1.9-6.8 1.9-3.7 0-6.8-.9-6.8-1.9 0-1.1 3-1.9 6.8-1.9s6.8.8 6.8 1.9z"/><path fill="#949491" stroke="#949491" stroke-width=".25" d="M180.4 69.2l-.3 6.5s3.6 2.2 6.8 1.9c3.1-.2 6.8-1.9 6.8-1.9l.3-6.5s-4.6.5-6.8.5-6.8-.5-6.8-.5z"/><path fill="#F5EB25" d="M180.9 69.2c1 .4 1.7.7 2.9.7 1 .1 2.1.2 3.1.2 1.9.1 4.8-.1 6.3-.9"/><path fill="#31312F" d="M180 75.5s2.4 1.8 7 1.8 6.2-1.4 6.5-1.7c.3-.3 0 .2 0 .2s-1 2-6.5 1.7c-5.5-.2-6.4-1-6.6-1.3-.2-.2-.4-.6-.4-.6v-.1z"/><path fill="#B5B3AE" stroke="#B5B3AE" stroke-width=".25" d="M180 75.6v.3s.3.8 2.1 1.2c1.6.4 3.4.6 5.8.5 2.2-.1 3.1-.3 3.5-.5.4-.1 1.4-.5 1.4-.6.1-.1.4-.4.5-.4.1-.1.2-.5.2-.5v-.2s.1 0-.3.4c-.5.4-1.2.8-1.9 1-.6.2-2.2.4-3.1.4-.9 0-1.2.1-1.9 0s-2 0-3.2-.4c-1.2-.4-2.3-.7-2.4-.8 0 .1-.7-.4-.7-.4z"/><path fill="#B5B3AE" stroke="#B5B3AE" stroke-width=".25" d="M180 75.6s2.4 1.8 7 1.8 6.2-1.4 6.5-1.7c.3-.3 0 .2 0 .2s-1 2-6.5 1.7c-5.5-.2-6.4-1-6.6-1.3-.2-.2-.4-.6-.4-.6v-.1z"/><path fill="#353535" stroke="#353535" stroke-width=".25" d="M187.6 77.5s1.3-1.4 2-3.6-.4-3.3-.4-3.3l3.5-.6 1.1-.8-.3 6.4s-.6 1-2.1 1.5c-2.4.8-3.8.4-3.8.4z" opacity=".57"/><path fill="#FFFFFA" stroke="#FFFFFA" stroke-width=".25" d="M180.3 69.5l-.3 6.1s.2.7.9 1c.7.3 1.9.6 1-.8s-1-.6-.8-2.6c.2-2 .3-3.1.3-3.1l-.7-.3-.4-.3" opacity=".19"/><ellipse cx="187.1" cy="69.3" fill="#858481" stroke="#858481" stroke-width=".25" rx="6.9" ry="1.4"/><path fill="none" stroke="#FFFFFA" stroke-width=".25" d="M180.1 71.8c1.6 1 4.4 1.5 6.8 1.4m-6.9-.1c1.6 1 4.4 1.5 6.8 1.4m-6.7-.3c1.6 1 4.4 1.5 6.8 1.4m-6.6-4.5c1.6 1 4.4 1.5 6.8 1.4" opacity=".19"/><path fill="#B6B6B7" d="M193.9 69.2c0 .7-3 1.3-6.7 1.3s-6.7-.6-6.7-1.3c0-.7 3-1.3 6.7-1.3s6.7.6 6.7 1.3z"/><ellipse cx="187.1" cy="69.2" fill="#858481" stroke="#858481" stroke-width=".25" rx="6" ry="1.2"/><path fill="#C82028" d="M192.9 69.4c0 .5-2.6 1-5.8 1-3.2 0-5.8-.4-5.8-1s2.6-1 5.8-1c3.2 0 5.8.5 5.8 1z"/><path fill="none" stroke="#949491" stroke-width=".25" d="M181.7 68.4s2.3-3.4 6.7-3.5c4.4-.1 4.3 5.3 4.3 5.3"/><path fill="#C82028" d="M182.1 69.7l-1.1 7.1s-.5-.2-1-.1c-.6 0-1.2.2-1.2.7 0 .9.8.9.8.9 2.7-.2 2.5-.1 2.9-.2 1.2-.4.9-1 .9-1l1.2-6.8-2.5-.6z"/><path d="M185.2 68.8c-.3-.1-.8-.1-1.2 0-.2.1-.2.2-.3.2-.2.1-.4.1-.6.2-.5.2-.6.3-.2.5.2.1.9.3 1.2.3.4.1.8 0 1.2.1.5.1.8.2 1.3.2.8 0 1.7-.1 2.5-.1.9 0 1.6 0 2.5-.3.4-.1.8-.3.7-.6-.2-.4-.7-.3-1.2-.4-.6-.1-4.7-.6-4.7-.1 1.4.1 3.1-.1 4.4.2.7.1 1.5.6.5.8-.6.1-1.5.3-2.2.3-.7 0-1.5-.1-2.2 0-.5.1-.5.2-1.1.1-.4-.1-.7-.1-1.2-.2-.6 0-.5-.1-.9-.3-.4-.2-.7-.1-.2-.3.1 0 .4-.1.5-.1.1-.1.2-.2.4-.3.4-.1.8.1 1.1-.2-.1-.1-.2-.1-.3-.1m-2.5 1.3c-.6.5-.1 1.5-.2 2.1-.1.7 0 1.4-.2 2.1-.2.7-.5 1.4-.7 2.1-.2.4-.3.7-1 .8-.6.1-1.5 0-1.1.5h.4c0-.5.9-.3 1.3-.4.5-.2.9-.7.9-1 .2-.7.3-1.4.5-2.1.3-.7.6-1.4.5-2.1-.1-.6-.5-1.5.1-2-.2 0-.4 0-.6.1" opacity=".04"/><path d="M179.6 77.5c-.4.5 1.2.1 1.4 0 .7-.2 1-.4 1.3-.9.4-.8.4-1.6.7-2.3l.3-1.2c.1-.4.3-.8.3-1.1 0-.4-.3-2.3 1-1.9-1.2.6-.7 1.5-.9 2.2l-.6 2.4c-.3.8-.5 1.6-.9 2.3-.3.5-.4.7-1.3.8-.8.1-1.4.2-1.5-.4" opacity=".04"/><path fill="#C82028" d="M183.4 77.4c.5.2.8.5.2.6-.5.1-1 .1-1.5.1-1 0-1.8.2-2.8 0"/><path fill="#B6B6B7" stroke="#B6B6B7" stroke-width=".25" d="M189.4 80.4l-2.8-2.9-.1-.3-2.5.8 2.9 3.1z"/><path fill="#2C337A" stroke="#2C337A" stroke-width=".25" d="M189.4 80.4l.2-.1s-.4-.5-.1-1c.3-.4.3-.6 1-.8.7-.2 3.2-.7 4.1-1 .9-.3 2.6-.8 3.4-1.1.8-.3 1.3-.6 1.5-.8.2-.2.1-.4-.2-.5-.3-.1-1.1 0-1.5 0-.4.1-2.4.6-3.1.8-.7.2-3.2 1.2-3.7 1.3-.5.2-.9.4-1.4.4-.5 0-1.8-.1-2.1-.2-.2-.1-.5-.3-.5-.3l-.3-.1-.1.1 2.8 3.3z"/><path fill="#FFF" d="M197 76.2c-.1-.1-.4-.2-.7-.1-.3.1-.4.2-.3.4.1.1.4.2.7.1.3-.1.4-.3.3-.4z"/><path fill="none" stroke="#777876" stroke-width=".25" d="M187.3 80.9l-2.8-2.9m3.3 2.8l-2.8-2.9"/><path fill="#777876" stroke="#777876" stroke-width=".25" d="M184 78l2.6-.8v.1l-2.6.8z"/><path fill="#1A1647" stroke="#1A1647" stroke-width=".25" d="M186.6 77.2v.2s0 .1.8.3c.8.2 1.7.5 2.3.4.4-.1 1.7-.5 2.8-.9.8-.3 1.6-.6 2-.8.2-.1.3-.1.5-.2 1-.3 2.3-.4 2.5-.5.3-.2 1.4-.3 1.4-.3l.5.1s-1.1-.3-1.8-.1c-.7.2-.7.2-1.3.3-.5.1-2.1.6-2.1.6l-3.4 1.2-1.2.3h-.9l-2.1-.6z"/><path fill="#FFF" d="M188.5 78c-.4 0-.9-.1-1.2-.3.3 0 .7.2 1.2.3" opacity=".46"/><path fill="#D8C489" d="M186.8 81.1s-3.3 1.1-3.6 1.1c-.3 0-.9-.6-1.1-.7-.2-.2-2-1.9-2-2.1-.1-.2 0-.6 0-.6l3.8-.8.2.2 2.7 2.9z"/><path fill="none" stroke="#B8822C" stroke-width=".25" d="M182 81.3l2.4-.7m-4.3-1.7l3.9-.7m-.8 4.1l3.6-1.1m-4 .9l3.8-1.1m-4.1 1l3.8-1.1m-3.9.9l3.8-1.1m-4.1.9l3.8-1.1m-3.9.9l3.8-1.2m-4 1l3.8-1.1m-4 .9l3.8-1.1m-4 .9l3.8-1.1m-3.9 1l3.8-1.1m-4 1l3.8-1.2m-3.9 1l3.8-1.1m-4.1.9l3.8-1.1m-4 .9l3.9-1.2m-4.1 1l3.8-1.1m-3.8.8l3.9-1.1m-4.1 1l3.8-1.2m-3.8 1.3l3.9-1.2m-3.8.8l3.8-.8m-3.7 1.2l3.6-1m-3.6 1.3l3.9-1.4m-3.7 1.6l3.9-1.2m-3.7 1.4l3.7-1.2m-3.4 1.4l3.5-1.3m-3.9.7l3.5-1.1m-3 1.9l3.7-1.3m-3.5 1.4l3.8-1.1m-3.7 1.2l3.8-1.1m-3.6 1.3l3.8-1.1m-3.6 1.3l3.8-1.1m-3.6 1.3l3.8-1.2m-3.4 1.6l3.5-1.3m-3.6 1.1l3.6-1.1m-3.4 1.5l3.8-1.1m-3.5 1.2l3.8-1.1m-3.4 1.3l3.4-1.3m-6.1-1l2.6-.8m-1.8 1.5l2.9-1.1m-2.4 1.6l2.8-1.1m-2.3 1.5l2.7-.6m-2.3.7l2.3-.7m-2.2 1.1l2.7-1" opacity=".27"/><g fill="#89C551"><ellipse cx="199.1" cy="79.4" rx="4" ry="1"/><path d="M195.3 75.9l-.2 3.5s2.1 1.1 4 1c1.9-.1 4-1 4-1l.2-3.5s-2.7.3-4 .3c-1.3 0-4-.3-4-.3z"/><path d="M195.6 75.9c.6.2 1 .4 1.7.4.6 0 1.2.1 1.8.1 1.1 0 2.8 0 3.8-.5"/><ellipse cx="199.2" cy="76" rx="4" ry=".8"/><path d="M202.7 76c0 .3-1.5.5-3.4.5s-3.4-.2-3.4-.5 1.5-.5 3.4-.5c1.8 0 3.4.2 3.4.5z"/></g><path fill="#B4B4B5" stroke="#8B8A83" stroke-width=".25" d="M197.1 80.5l.1.3s1.2-.2 1.9-.2 2-.1 2-.1-.1-.1-.1-.2-.1-.2-.1-.2-1.8.3-1.9.3c-.1 0-1.6.1-1.6.1h-.3z"/><path fill="#B59265" d="M192.4 80.8s.2.1.5.2c.4.1.9.2 1.2.2.6 0 1.9-.1 2.5-.2.6-.1.7-.2.7-.2l-.1-.3s-.7-.1-1-.1c-.3 0-.8 0-1.1.1-.3.1-.7.2-.9.2-.1 0-.2.1-.5.1-.2.1-1.3 0-1.3 0z"/><path fill="#49C1C3" stroke="#35A8A9" stroke-width=".25" d="M201.1 80l5.7-.6s-.1.2-.2.3c-.1.1-5.4.7-5.4.7v-.1c-.1-.1-.1-.3-.1-.3z"/><path fill="#F9E200" d="M192.5 80.8c.4 0 .8.1 1.2.1.4 0 .9-.3 1.2-.2-.1.2 0 .2.3.2l-.1.1c.1 0 .3 0 .2.1-.4.1-.9 0-1.4 0-.4 0-1.2 0-1.4-.3"/><path fill="none" stroke="#CBB92F" stroke-width=".25" d="M192.6 80.8c.6 0 1.2.2 1.8.1m-1.7 0h1.8m-1.3.1c.2.1.7.1 1 .1"/><path fill="#FFF" d="M195.8 77.1v1.5s2.7.3 3.7.3c1.5 0 3.2-.3 3.2-.3s-.1-1.2 0-1.5c.1-.3-1.7.1-3.6.2-.5 0-3.3-.2-3.3-.2z"/><ellipse cx="199.2" cy="75.9" fill="#EFF2F3" stroke="#EFF2F3" stroke-width=".25" rx="4" ry=".5"/><path fill="#EFF2F3" stroke="#EFF2F3" stroke-width=".25" d="M195.4 74.3l-.2 1.6s2.1.5 4 .5c1.9-.1 4-.5 4-.5l.2-1.6s-2.7.1-4 .1c-1.2 0-4-.1-4-.1z"/><path fill="#F5EB25" d="M195.7 74.3c.6.1 1 .2 1.7.2h1.8c1.1 0 2.8 0 3.8-.2"/><ellipse cx="199.4" cy="74.3" fill="#E7E6E0" stroke="#E7E6E0" stroke-width=".25" rx="4" ry=".4"/><path fill="none" stroke="#E7E6E0" stroke-width=".25" d="M195.7 74.3v1.9m1.2-1.6v1.8m1.7-1.7v1.7m1.6-1.7v1.7m1-1.7v1.7m.6-1.8v1.6m1-1.6V76m-3.4-1.3v1.7m-1.5-1.7v1.7m-1.6-1.8v1.7m5.9-1.7l.2 1.6"/><text fill="#231F20" font-family="'MyriadPro-Regular'" font-size=".902" transform="matrix(1.6852 0 0 1 196.556 78.345)">Paint</text><path fill="#F9E200" d="M202.1 78.1c-.1 0 .1-.1.1-.1.1 0 0-.1.1-.1 0-.1 0-.1.2-.1.1 0 .2 0 .2-.1h-.7c-.1 0-.1.1-.2 0 0-.1.1-.1 0-.2 0 0-.1.1-.1.2h-.1c-.1 0-.1-.1-.2-.1s-.1.1 0 .1h-.1v.1c-.2 0-.3-.1-.5-.1 0 .1.2.1.2.1.1.1-.1.1-.1.2h-.1c0 .1.3.2 0 .3.1 0 .2-.1.3-.1v.3s0 .1-.1.1h.4s0 .1.1.1.1 0 .1-.1c.1 0 .2-.1.2-.1.1-.1 0-.1.2-.1.1 0 .2.1.3.1.3-.3-.3-.3-.2-.4"/></g></switch></svg>
