<svg xmlns="http://www.w3.org/2000/svg" version="1.0" viewBox="0 0 192.7 121.5"><switch><g><path fill="#55C7E8" d="M192.7 72.2c0 39.9-42.9 44.1-95.9 44.1-53 0-95.9-4.2-95.9-44.1S43.9 0 96.8 0c53 0 95.9 32.3 95.9 72.2z"/><path fill="#857C73" d="M2.8 105.9c0-4 .9-8.2 1.4-12.3.8-6.3 1.4-4.3 5.9-2.3 3 1.4 6.4 2.2 9.5 3.3 3.3 1.2 6.9 3.5 10.6 3.2 3.6-.3 6-2.1 10.1-2.1 4.8 0 6-1.9 10.1-3.8 9.7-4.6 22.5-.9 32.8-2.6 17.4-3 38.1-11.9 55.6-6.9 6.1 1.8 10.9 5 16.5 7.2 2.4 1 6.2.6 8.6 1.7 2.7 1.3 2.4 5.2 6.2 4.4.2 3.4.7 6.8.5 10-7.4-2.3-17.4 1.1-24.9 2.3-12.8 2.1-25.8 1-38.9 2-13.4 1.1-26.1-1.1-39.4-1.1-10.3 0-20.2 1-30.3 1.6-11.1.7-22.9.5-34-.1-.4-2.8-.1-5.7 1.4-8"/><path fill="#98C93C" d="M2 114.2c.5 0 .7-1.8.9-3 0 1 .1 2.3.1 3.3.7-1.3.5-3.6.6-5.5.5 1.4.4 3.7.9 5.2.2-1.3.5-2.6.8-3.4.1.7.3.9.4 1.9.5-1 .8-2.2 1.2-3.3.1.5.3.9.5 1.4 1 .1 1-2 1.8-2.5.1 1.1.5 1.4.8 2.2.2-.3.2-.6.4-1.1 0 .1-.1.9.2.7.2-.8.8-1.9.9-2.6-.1 1.8.4 3.4 1.3 3.4 0 .5.1 1.2.1 1.8.9.1 1.3-1.8 1.9-3 1.6 3.1 7.5-10.3 6.8 1.1 1 .2 1.6-1.6 2.4-2.4-.2.7-.3 1.7-.6 2.4.7-.6 2.2-1.4 2.4-2.6v1.1c1.3-.1 1.4-5.2 2.2-7-.1 1.7-.5 3.6-.7 5.2.9-1.6 1.7-2.4 2.8-3.3 0 .8.1 1.8.1 2.5.7-2.1 1.3-5.3 1.1-8.1.1 2.4.2 4.9.2 7.3.8-.2 1.5-1 2-2.2-.1 1.2 0 4.5 1 3 .5-.8-.1-3 .4-4.2.2.9.7 1.4.9 1.9.5-2.6.4-5.8 1.3-7.8.1 2.5 0 4.8-.2 7.1 0-1.5.9-2.9 1.5-4.4 0 .8.1 1.7 0 2.5 1-1.4.7-4.4.8-6.7 1.3 1.7-.6 9 2 7.4.2-1.1.5-1.7.8-2.5.1 1.6-.2 3-.3 4.4 1.2.5 1.9-1.2 1.9-3.3h.5c-.1.8.1 1.8.1 2.5.5-.4 1.1-1.4 1.5-2.4-.1.8.1 1.7 0 2.4.3.1.6.1.9 0 .2-1 .6-1.7.8-2.4-.1.8.1 2 .1 2.8.9.4 1.6-1.2 2-2.1-.1.7.1 1.8.1 2.5.7 0 1.4-.6 1.9-1.7.4 2.3 1.4.7 2.2.2 0-.6 0-1-.1-1.4-.2 1.5-.1 2.9.5 3.8 1.5-2.2-1.1-4.3-.7-7.5.4 1.1.9 3 1 4.8.3-1.3 0-3.1-.4-4.3.6 1.3.7 2.9 1.2 4.3 1.5-1.1.4-5 1.3-6.7.4 1.8 0 3.9 0 5.9 1.1-.1.7-2.5 1.5-3.5-.1.8.1 1.7 0 2.4.4-.4.9-.4 1.3-1.3-.6 3.9 1.1 4.1 1 6.9 1.1-.5 1.8-3.7 1.7-5.9.2.2.7.4.9.6-.4-2.3.2-4.5 1.5-3.4.1-1.1.5-1.8.8-2.6.3 1.2 0 2.8-.2 4.1 1 .1 1.7-1.4 2.6-2.4-.2.9-.2 2.2-.3 3.2.9-.6 1.6-2.3 2.8-1.8-.4 1-.3 1.7-.5 2.9.5-1 1-2.4 1.6-2.9 0 .2 0 .4.1.6.5-.3 1-.5 1.4-1.4.6 1.6 2.5.7 3.1-.9 0 .3.2 1.2.2 1.9.4-.4.7-.2 1.1-1.1 0 0 .3.8.2.8.4-.8 1-1.7 1.3-2.4v1.7c.3-.6 1-1.2 1.3-1.8-.1.4-.1 1.2-.1 1.8.8 1.4 1.6 0 2.2-1 .2 3.8 2.7-.4 3.6-.9-.4-1.1-.9-3.5-1.1-4.1 0 1.7-.3 5.5 1.1 4.3 1-.9.6-4.1.6-6h.5c0 1.5 0 3.2.1 4.7.5-.9.8-2.2 1.1-3.2 0 1.7-.4 3.3-.3 5.2.3-.4 1-.9 1.3-1.4 0 1.5.3 1.3.6 2.3.3-1 .9-1.7 1.3-2.2 0 .4 0 .7.1 1 1.8.9 2.7-1.4 4.1-1 0 4.8 1.7.6 2.7 0 .4 6.5 3.6 1.2 5.4 1.9-.1 4.1 4.4 1.2 3.7-2.2 1.4-.2 1.2 2.5 1.7 4.1 1.1-1.6 2-4.5 2.8-.5.1-1.1.4-2.1.4-3.3h.5c.3 1.6.2 3.4.3 5.1 1.5 1 3.4-.5 4.7 1.5.2-1.3 1-3.1 1.8-3.3 1.1-.2 1.1 1.4 2 1.8 1.9.8 2.2-3.6 3.8-3 .7.2.2 2.2 1.3 2.7.4.2 1.9-1 2.5-1.1.8-.2 1.5-.5 2.3-.4.4.1.7-.6 1.1-.4.4.2.3 1.4.6 1.5 2.4 1.1 2.3-2.1 4.3-3.5 1.6-1 3 2.6 4.5 1.5 1.7-1.2 1.2-4.4 3.5-3.8.7.2 1.3 1.4 2 1.5 1.1.2 1.3-.8 2.1-1.1 1.9-.9 1.1-.1 2.5 2.3 1.1 1.9 2.1 1.4 3.6 1.6.1 9.7 3 .3 4.9 3 .9 1.2 0 6.8 1.8 4.9 1.2-1.2.4-4.4 1.6-5.3 0 1.2.3 2.1.4 2.9 0-.9.2-1.4.3-2.2.3.4.8.3 1.1 1 .2-.9.6-1.1.8-1.9.3.7.9 1.2 1.1 2 .1-.6.8-1.4 1-2 .5 1.3.6 3.2 1.3 4.2.1-1.4.4-2.5 1-2.9.1 1.8.5 3.7 1.4 4.5.8-.7.9-2 1.5-2.6.3-.3.7 1 1.1.6.2-.2.5-1.5.8-1.9.8-1.2.7-1.9 1.7-2.6.9-.6 1.2.9 2.2-.7.1 1.9-.3 3.4-.5 5.1 1.1-.6 1.7-2.3 3.2-1.8.1.5.3 1.1.4 1.4.5-1.4.6-.8 1.4-1 .1 1.8-.4 4.7.8 4.8 0 0-.2-7.1 2.8-5.4l3 1.7.8 18.4H2.9l-.9-7.9z"/><path fill="#C5C0A0" d="M3.1 95.4h68.5v15.8H3.1z"/><path fill="#E9E9EA" stroke="#DDDDDC" d="M3.108 92.706l68.5.392-.015 2.6-68.5-.392z"/><path fill="#E4E1DE" stroke="#636463" stroke-width=".25" d="M3.102 92.806l68.5.392-.003.6-68.5-.392zm0 1.8l68.5.39-.003.6-68.5-.39z"/><path fill="#F9F6DE" d="M4.5 77.1H66v15.3H4.5z"/><path fill="#E9E9EA" stroke="#DDDDDC" d="M18 65.3v9.3h41.4l.1-9.1s-11.4-.3-21.6-.9c-8.5-.6-19.9.7-19.9.7zm-7.3 9.3h54v2.6h-54z"/><path fill="#E4E1DE" stroke="#636463" stroke-width=".25" d="M10.7 74.7h54v.6h-54zm0 1.8h54v.6h-54z"/><path fill="#FFFDF3" d="M14.2 92.2v-8.8s.4-3.1 4-3c3.6.1 4.1 3.4 4.1 3.4v8.4h-8.1z"/><path fill="#EEEBDD" d="M14.8 92.2v-8.3s.3-2.9 3.5-2.8c3.2 0 3 3.2 3 3.2v7.9h-6.5z"/><path fill="#FFFDED" stroke="#FFFDED" d="M15.2 92.2v-7.6s.3-2.6 3.1-2.6c2.8 0 2.7 3 2.7 3v7.3h-5.8z"/><path fill="none" stroke="#E4DFC0" d="M15.2 90.7v-6.5s.3-2.3 3.1-2.2c2.8 0 2.7 2.5 2.7 2.5v6.2h-5.8z"/><path fill="#F6EFD2" d="M15.1 90.7h6v.5h-6z"/><path fill="#E4DFC0" d="M15.1 91.1h6v.4h-6z"/><path fill="#C9E8E8" stroke="#C9E8E8" stroke-width=".25" d="M17 90.7v-5.5s-.1-2.2 1.1-2.2c1.2 0 1.3 2.5 1.3 2.5v5.2H17z"/><path fill="#F6E2ED" stroke="#F6E2ED" stroke-width=".25" d="M17 82.1l.6 1.2s.3-.1.8 0l.4.1.7-1.4s-.6-.2-1.1-.2c-.7.2-1.4.3-1.4.3zm-1.8 2.4H17v1.6h-1.8zm4.1 0h1.6v1.6h-1.6z"/><path fill="none" stroke="#E4DFC0" d="M15.2 86.1h1.7v3h-1.7zm4.1 0h1.5v3h-1.5z"/><path fill="#F6E2ED" stroke="#F6E2ED" stroke-width=".25" d="M15.2 89.2H17v1.5h-1.8zm4.1 0h1.6v1.5h-1.6z"/><path fill="#F2EDD5" stroke="#E4DFC0" d="M17 89.2h2.2v1.5H17z"/><path fill="#CDC7A5" d="M15 91.6h6v.4h-6z"/><path fill="none" stroke="#E4DFC0" d="M19.4 84.5h1.5s-.2-1.4-.5-1.6c-.2-.2-1.1-.8-1.1-.8l-.7 1.4.4.5.4.5zm-4.2 0H17s.1-.6.2-.7c.1-.1.3-.4.3-.4l-.5-1.3s-1 .5-1.2.8c-.2.3-.6 1.6-.6 1.6z"/><path fill="#E4E1DE" stroke="#636463" stroke-width=".25" d="M18 65.3v2.4s11.8-1.8 20.7-1.2c8.9.5 20.7 1.4 20.7 1.4l.1-2.4s-14-.9-21.6-1.1c-8.7-.3-19.9.9-19.9.9zm0 8.2h41.3v1H18z"/><path fill="#FFFDF3" d="M27.2 92.2v-8.8s.4-3.1 4-3c3.6.1 4.1 3.4 4.1 3.4v8.4h-8.1z"/><path fill="#EEEBDD" d="M27.9 92.2v-8.3s.3-2.9 3.5-2.8c3.2 0 3 3.2 3 3.2v7.9h-6.5z"/><path fill="#FFFDED" stroke="#FFFDED" d="M28.3 92.2v-7.6s.3-2.6 3.1-2.6c2.8 0 2.7 3 2.7 3v7.3h-5.8z"/><path fill="none" stroke="#E4DFC0" d="M28.2 90.7v-6.5s.3-2.3 3.1-2.2c2.8 0 2.7 2.5 2.7 2.5v6.2h-5.8z"/><path fill="#F6EFD2" d="M28.1 90.7h6v.5h-6z"/><path fill="#E4DFC0" d="M28.1 91.1h6v.4h-6z"/><path fill="#C9E8E8" stroke="#C9E8E8" stroke-width=".25" d="M30.1 90.7v-5.5S30 83 31.2 83c1.2 0 1.3 2.5 1.3 2.5v5.2h-2.4z"/><path fill="#F6E2ED" stroke="#F6E2ED" stroke-width=".25" d="M30.1 82.1l.6 1.2s.3-.1.8 0l.4.1.7-1.4s-.6-.2-1.1-.2c-.7.2-1.4.3-1.4.3zm-1.8 2.4h1.8v1.6h-1.8zm4.1 0H34v1.6h-1.6z"/><path fill="none" stroke="#E4DFC0" d="M28.3 86.1H30v3h-1.7zm4.1 0h1.5v3h-1.5z"/><path fill="#F6E2ED" stroke="#F6E2ED" stroke-width=".25" d="M28.3 89.2h1.8v1.5h-1.8zm4.1 0H34v1.5h-1.6z"/><path fill="#F2EDD5" stroke="#E4DFC0" d="M30.1 89.2h2.2v1.5h-2.2z"/><path fill="#CDC7A5" d="M28.1 91.6h6v.4h-6z"/><path fill="none" stroke="#E4DFC0" d="M32.5 84.5H34s-.2-1.4-.5-1.6c-.2-.2-1.1-.8-1.1-.8l-.7 1.4.4.5.4.5zm-4.2 0h1.8s.1-.6.2-.7c.1-.1.3-.4.3-.4l-.6-1.2s-1 .5-1.2.8c-.2.2-.5 1.5-.5 1.5z"/><path fill="#FFFDF3" d="M41.8 92.2v-8.8s.4-3.1 4-3c3.6.1 4.1 3.4 4.1 3.4v8.4h-8.1z"/><path fill="#EEEBDD" d="M42.5 92.2v-8.3s.3-2.9 3.5-2.8c3.2 0 3 3.2 3 3.2v7.9h-6.5z"/><path fill="#FFFDED" stroke="#FFFDED" d="M42.9 92.2v-7.6S43.2 82 46 82c2.8 0 2.7 3 2.7 3v7.3h-5.8z"/><path fill="none" stroke="#E4DFC0" d="M42.8 90.7v-6.5s.3-2.3 3.1-2.2c2.8 0 2.7 2.5 2.7 2.5v6.2h-5.8z"/><path fill="#F6EFD2" d="M42.7 90.7h6v.5h-6z"/><path fill="#E4DFC0" d="M42.7 91.1h6v.4h-6z"/><path fill="#C9E8E8" stroke="#C9E8E8" stroke-width=".25" d="M44.6 90.7v-5.5s-.1-2.2 1.1-2.2c1.2 0 1.3 2.5 1.3 2.5v5.2h-2.4z"/><path fill="#F6E2ED" stroke="#F6E2ED" stroke-width=".25" d="M44.6 82.1l.6 1.2s.3-.1.8 0l.4.1.7-1.4s-.6-.2-1.1-.2c-.6.2-1.4.3-1.4.3zm-1.7 2.4h1.8v1.6h-1.8zm4.1 0h1.6v1.6H47z"/><path fill="none" stroke="#E4DFC0" d="M42.9 86.1h1.7v3h-1.7zm4.1 0h1.5v3H47z"/><path fill="#F6E2ED" stroke="#F6E2ED" stroke-width=".25" d="M42.9 89.2h1.8v1.5h-1.8zm4.1 0h1.6v1.5H47z"/><path fill="#F2EDD5" stroke="#E4DFC0" d="M44.6 89.2h2.2v1.5h-2.2z"/><path fill="#CDC7A5" d="M42.7 91.6h6v.4h-6z"/><path fill="none" stroke="#E4DFC0" d="M47.1 84.5h1.5s-.2-1.4-.5-1.6c-.2-.2-1.1-.8-1.1-.8l-.7 1.4.4.5.4.5zm-4.2 0h1.8s.1-.6.2-.7c.1-.1.3-.4.3-.4l-.6-1.2s-1 .5-1.2.8c-.2.2-.5 1.5-.5 1.5z"/><path fill="#FFFDF3" d="M54.6 92.2v-8.8s.4-3.1 4-3c3.6.1 4.1 3.4 4.1 3.4v8.4h-8.1z"/><path fill="#EEEBDD" d="M55.3 92.2v-8.3s.3-2.9 3.5-2.8c3.2 0 3 3.2 3 3.2v7.9h-6.5z"/><path fill="#FFFDED" stroke="#FFFDED" d="M55.7 92.2v-7.6S56 82 58.8 82c2.8 0 2.7 3 2.7 3v7.3h-5.8z"/><path fill="none" stroke="#E4DFC0" d="M55.6 90.7v-6.5s.3-2.3 3.1-2.2c2.8 0 2.7 2.5 2.7 2.5v6.2h-5.8z"/><path fill="#F6EFD2" d="M55.5 90.7h6v.5h-6z"/><path fill="#E4DFC0" d="M55.5 91.1h6v.4h-6z"/><path fill="#C9E8E8" stroke="#C9E8E8" stroke-width=".25" d="M57.5 90.7v-5.5s-.1-2.2 1.1-2.2c1.2 0 1.3 2.5 1.3 2.5v5.2h-2.4z"/><path fill="#F6E2ED" stroke="#F6E2ED" stroke-width=".25" d="M57.5 82.1l.6 1.2s.3-.1.8 0l.4.1.7-1.4s-.6-.2-1.1-.2c-.7.2-1.4.3-1.4.3zm-1.8 2.4h1.8v1.6h-1.8zm4.1 0h1.6v1.6h-1.6z"/><path fill="none" stroke="#E4DFC0" d="M55.7 86.1h1.7v3h-1.7zm4.1 0h1.5v3h-1.5z"/><path fill="#F6E2ED" stroke="#F6E2ED" stroke-width=".25" d="M55.7 89.2h1.8v1.5h-1.8zm4.1 0h1.6v1.5h-1.6z"/><path fill="#F2EDD5" stroke="#E4DFC0" d="M57.5 89.2h2.2v1.5h-2.2z"/><path fill="#CDC7A5" d="M55.5 91.6h6v.4h-6z"/><path fill="none" stroke="#E4DFC0" d="M59.9 84.5h1.5s-.2-1.4-.5-1.6c-.2-.2-1.1-.8-1.1-.8l-.7 1.4.4.5.4.5zm-4.2 0h1.8s.1-.6.2-.7c.1-.1.3-.4.3-.4l-.6-1.2s-1 .5-1.2.8c-.2.2-.5 1.5-.5 1.5z"/><path fill="#68503F" d="M15.4 95.4H58v15.8H15.4z"/><path fill="#EFECCC" d="M27 100.2s-.7-3.6-4.8-3.8c-4.1-.1-5.4 2.6-5.5 3.5-.1.8 0 10.4 0 10.4h-1.5v-15h12.2v4.9H27z"/><path fill="#E4DFC0" d="M27.4 98.7s-1.6-3.1-5.4-3c-4.7 0-5.8 3.9-5.8 3.9v10.6h.5l.1-10.7s1.5-3.2 5-3.2c4.3.1 5.2 3.8 5.2 3.8l.4-.1v-1.3z"/><path fill="#E4E1DE" stroke="#E4E1DE" stroke-width=".25" d="M15.2 110.2h1.6v.4h-1.6z"/><path fill="#E9E9EA" stroke="#E9E9EA" d="M14.7 110.8h2.5v.6h-2.5z"/><path fill="#EFECCC" d="M48.1 100s.7-3.6 4.7-3.8c4-.1 5.2 2.6 5.3 3.5.1.8 0 10.4 0 10.4h1.5V95H47.7v4.9l.4.1z"/><path fill="#E4DFC0" d="M47.7 98.5s1.5-3.1 5.2-3c4.5 0 5.6 3.9 5.6 3.9V110H58V99.4s-1.4-3.2-4.8-3.2c-4.1.1-5.1 3.8-5.1 3.8l-.3-.1v-1.4z"/><path fill="#E4E1DE" stroke="#E4E1DE" stroke-width=".25" d="M58 110h1.5v.4H58z"/><path fill="#E9E9EA" stroke="#E9E9EA" d="M57.6 110.7H60v.6h-2.4z"/><path fill="#E9E9EA" stroke="#DDDDDC" stroke-width=".25" d="M27.5 111h2.1v3.3h-2.1z"/><path fill="#E4E1DE" stroke="#E4E1DE" stroke-width=".25" d="M31.8 111h-2.2v3.3l2.2-.7z"/><path fill="#EFECCC" d="M29.6 111s-.1-16.7 0-17.8c.1-.9 1.9-3.9 7.9-6.4 1.1-.5 0-2.3 0-2.3s-4 .7-7.2 3.5-2.7 4.5-2.9 6.1c-.2 1.5 0 17 0 17h2.2z"/><path fill="#E4DFC0" d="M31.8 111s-1-15.7-.6-17.2c.4-1.4 3.4-4.8 4.6-5.3 1.2-.5 2.2-.8 2.2-.8l-.5-.8s-2 .8-3.3 1.7c-1.3.9-4.5 2.8-4.6 4.7v17.8h2.2z"/><path fill="#E9E9EA" stroke="#DDDDDC" stroke-width=".25" d="M45.9 111H48v3.3h-2.1z"/><path fill="#E4E1DE" stroke="#E4E1DE" stroke-width=".25" d="M43.7 111h2.2v3.3l-2.2-.7z"/><path fill="#EFECCC" d="M45.9 111s.1-16.7 0-17.8c-.1-.9-1.9-3.9-7.9-6.4-1.1-.5 0-2.3 0-2.3s4 .7 7.2 3.5c3.1 2.7 2.7 4.5 2.9 6.1.2 1.5 0 17 0 17h-2.2z"/><path fill="#E4DFC0" d="M43.7 111s1-15.7.6-17.2c-.4-1.4-3.4-4.8-4.6-5.3-1.2-.5-2.2-.9-2.2-.9l.5-.8s2 .8 3.3 1.7c1.3.9 4.5 2.8 4.6 4.7V111h-2.2z"/><path fill="#C5C0A0" d="M121.5 95.6H190v15.8h-68.5z"/><path fill="#E9E9EA" stroke="#DDDDDC" d="M121.41 92.905l68.5.392-.015 2.6-68.5-.392z"/><path fill="#E4E1DE" stroke="#636463" stroke-width=".25" d="M121.504 92.905l68.5.393-.003.6-68.5-.393zm-.1 1.9l68.5.39-.003.6-68.5-.39z"/><path fill="#F9F6DE" d="M122.9 77.3h61.5v15.3h-61.5z"/><path fill="#E9E9EA" stroke="#DDDDDC" d="M136.4 65.4v9.3h41.4l.1-9.1s-11.4-.3-21.6-.9c-8.5-.5-19.9.7-19.9.7zm-7.4 9.4h54v2.6h-54z"/><path fill="#E4E1DE" stroke="#636463" stroke-width=".25" d="M129 74.9h54v.6h-54zm0 1.8h54v.6h-54z"/><path fill="#FFFDF3" d="M132.6 92.3v-8.8s.4-3.1 4-3c3.6.1 4.1 3.4 4.1 3.4v8.4h-8.1z"/><path fill="#EEEBDD" d="M133.2 92.3V84s.3-2.9 3.5-2.8c3.2 0 3 3.2 3 3.2v7.9h-6.5z"/><path fill="#FFFDED" stroke="#FFFDED" d="M133.6 92.3v-7.6s.3-2.6 3.1-2.6c2.8 0 2.7 3 2.7 3v7.3h-5.8z"/><path fill="none" stroke="#E4DFC0" d="M133.6 90.8v-6.5s.3-2.3 3.1-2.2c2.8 0 2.7 2.5 2.7 2.5v6.2h-5.8z"/><path fill="#F6EFD2" d="M133.4 90.8h6v.5h-6z"/><path fill="#E4DFC0" d="M133.4 91.3h6v.4h-6z"/><path fill="#C9E8E8" stroke="#C9E8E8" stroke-width=".25" d="M135.4 90.8v-5.5s-.1-2.2 1.1-2.2c1.2 0 1.3 2.5 1.3 2.5v5.2h-2.4z"/><path fill="#F6E2ED" stroke="#F6E2ED" stroke-width=".25" d="M135.4 82.3l.6 1.2s.3-.1.8 0l.4.1.7-1.4s-.6-.2-1.1-.2c-.7.1-1.4.3-1.4.3zm-1.8 2.4h1.8v1.6h-1.8zm4.1 0h1.6v1.6h-1.6z"/><path fill="none" stroke="#E4DFC0" d="M133.6 86.3h1.7v3h-1.7zm4.1 0h1.5v3h-1.5z"/><path fill="#F6E2ED" stroke="#F6E2ED" stroke-width=".25" d="M133.6 89.3h1.8v1.5h-1.8zm4.1 0h1.6v1.5h-1.6z"/><path fill="#F2EDD5" stroke="#E4DFC0" d="M135.4 89.3h2.2v1.5h-2.2z"/><path fill="#CDC7A5" d="M133.4 91.7h6v.4h-6z"/><path fill="none" stroke="#E4DFC0" d="M137.8 84.7h1.5s-.2-1.4-.5-1.6c-.2-.2-1.1-.8-1.1-.8l-.7 1.4.4.5.4.5zm-4.2 0h1.8s.1-.6.2-.7c.1-.1.3-.4.3-.4l-.6-1.2s-1 .5-1.2.8c-.1.1-.5 1.5-.5 1.5z"/><path fill="#E4E1DE" stroke="#636463" stroke-width=".25" d="M136.4 65.4v2.4s11.8-1.8 20.7-1.2c8.9.5 20.7 1.4 20.7 1.4l.1-2.4s-14-.9-21.6-1.1c-8.7-.2-19.9.9-19.9.9zm0 8.2h41.3v1h-41.3z"/><path fill="#FFFDF3" d="M145.6 92.3v-8.8s.4-3.1 4-3c3.6.1 4.1 3.4 4.1 3.4v8.4h-8.1z"/><path fill="#EEEBDD" d="M146.2 92.3V84s.3-2.9 3.5-2.8c3.2 0 3 3.2 3 3.2v7.9h-6.5z"/><path fill="#FFFDED" stroke="#FFFDED" d="M146.6 92.3v-7.6s.3-2.6 3.1-2.6c2.8 0 2.7 3 2.7 3v7.3h-5.8z"/><path fill="none" stroke="#E4DFC0" d="M146.6 90.8v-6.5s.3-2.3 3.1-2.2c2.8 0 2.7 2.5 2.7 2.5v6.2h-5.8z"/><path fill="#F6EFD2" d="M146.5 90.8h6v.5h-6z"/><path fill="#E4DFC0" d="M146.5 91.3h6v.4h-6z"/><path fill="#C9E8E8" stroke="#C9E8E8" stroke-width=".25" d="M148.4 90.8v-5.5s-.1-2.2 1.1-2.2c1.2 0 1.3 2.5 1.3 2.5v5.2h-2.4z"/><path fill="#F6E2ED" stroke="#F6E2ED" stroke-width=".25" d="M148.4 82.3l.6 1.2s.3-.1.8 0l.4.1.7-1.4s-.6-.2-1.1-.2c-.7.1-1.4.3-1.4.3zm-1.8 2.4h1.8v1.6h-1.8zm4.2 0h1.6v1.6h-1.6z"/><path fill="none" stroke="#E4DFC0" d="M146.6 86.3h1.7v3h-1.7zm4.2 0h1.5v3h-1.5z"/><path fill="#F6E2ED" stroke="#F6E2ED" stroke-width=".25" d="M146.6 89.3h1.8v1.5h-1.8zm4.2 0h1.6v1.5h-1.6z"/><path fill="#F2EDD5" stroke="#E4DFC0" d="M148.4 89.3h2.2v1.5h-2.2z"/><path fill="#CDC7A5" d="M146.5 91.7h6v.4h-6z"/><path fill="none" stroke="#E4DFC0" d="M150.9 84.7h1.5s-.2-1.4-.5-1.6c-.2-.2-1.1-.8-1.1-.8l-.7 1.4.4.5.4.5zm-4.3 0h1.8s.1-.6.2-.7c.1-.1.3-.4.3-.4l-.6-1.2s-1 .5-1.2.8c-.1.1-.5 1.5-.5 1.5z"/><path fill="#FFFDF3" d="M160.2 92.3v-8.8s.4-3.1 4-3c3.6.1 4.1 3.4 4.1 3.4v8.4h-8.1z"/><path fill="#EEEBDD" d="M160.8 92.3V84s.3-2.9 3.5-2.8c3.2 0 3 3.2 3 3.2v7.9h-6.5z"/><path fill="#FFFDED" stroke="#FFFDED" d="M161.2 92.3v-7.6s.3-2.6 3.1-2.6c2.8 0 2.7 3 2.7 3v7.3h-5.8z"/><path fill="none" stroke="#E4DFC0" d="M161.2 90.8v-6.5s.3-2.3 3.1-2.2c2.8 0 2.7 2.5 2.7 2.5v6.2h-5.8z"/><path fill="#F6EFD2" d="M161.1 90.8h6v.5h-6z"/><path fill="#E4DFC0" d="M161.1 91.3h6v.4h-6z"/><path fill="#C9E8E8" stroke="#C9E8E8" stroke-width=".25" d="M163 90.8v-5.5s-.1-2.2 1.1-2.2c1.2 0 1.3 2.5 1.3 2.5v5.2H163z"/><path fill="#F6E2ED" stroke="#F6E2ED" stroke-width=".25" d="M163 82.3l.6 1.2s.3-.1.8 0l.4.1.7-1.4s-.6-.2-1.1-.2c-.7.1-1.4.3-1.4.3zm-1.8 2.4h1.8v1.6h-1.8zm4.2 0h1.6v1.6h-1.6z"/><path fill="none" stroke="#E4DFC0" d="M161.2 86.3h1.7v3h-1.7zm4.2 0h1.5v3h-1.5z"/><path fill="#F6E2ED" stroke="#F6E2ED" stroke-width=".25" d="M161.2 89.3h1.8v1.5h-1.8zm4.2 0h1.6v1.5h-1.6z"/><path fill="#F2EDD5" stroke="#E4DFC0" d="M163 89.3h2.2v1.5H163z"/><path fill="#CDC7A5" d="M161.1 91.7h6v.4h-6z"/><path fill="none" stroke="#E4DFC0" d="M165.5 84.7h1.5s-.2-1.4-.5-1.6c-.2-.2-1.1-.8-1.1-.8l-.7 1.4.4.5.4.5zm-4.3 0h1.8s.1-.6.2-.7c.1-.1.3-.4.3-.4l-.6-1.2s-1 .5-1.2.8c-.1.1-.5 1.5-.5 1.5z"/><path fill="#FFFDF3" d="M173 92.3v-8.8s.4-3.1 4-3c3.6.1 4.1 3.4 4.1 3.4v8.4H173z"/><path fill="#EEEBDD" d="M173.6 92.3V84s.3-2.9 3.5-2.8c3.2 0 3 3.2 3 3.2v7.9h-6.5z"/><path fill="#FFFDED" stroke="#FFFDED" d="M174 92.3v-7.6s.3-2.6 3.1-2.6c2.8 0 2.7 3 2.7 3v7.3H174z"/><path fill="none" stroke="#E4DFC0" d="M174 90.8v-6.5s.3-2.3 3.1-2.2c2.8 0 2.7 2.5 2.7 2.5v6.2H174z"/><path fill="#F6EFD2" d="M173.9 90.8h6v.5h-6z"/><path fill="#E4DFC0" d="M173.9 91.3h6v.4h-6z"/><path fill="#C9E8E8" stroke="#C9E8E8" stroke-width=".25" d="M175.8 90.8v-5.5s-.1-2.2 1.1-2.2c1.2 0 1.3 2.5 1.3 2.5v5.2h-2.4z"/><path fill="#F6E2ED" stroke="#F6E2ED" stroke-width=".25" d="M175.8 82.3l.6 1.2s.3-.1.8 0l.4.1.7-1.4s-.6-.2-1.1-.2c-.7.1-1.4.3-1.4.3zm-1.8 2.4h1.8v1.6H174zm4.2 0h1.6v1.6h-1.6z"/><path fill="none" stroke="#E4DFC0" d="M174 86.3h1.7v3H174zm4.2 0h1.5v3h-1.5z"/><path fill="#F6E2ED" stroke="#F6E2ED" stroke-width=".25" d="M174 89.3h1.8v1.5H174zm4.2 0h1.6v1.5h-1.6z"/><path fill="#F2EDD5" stroke="#E4DFC0" d="M175.8 89.3h2.2v1.5h-2.2z"/><path fill="#CDC7A5" d="M173.9 91.7h6v.4h-6z"/><path fill="none" stroke="#E4DFC0" d="M178.3 84.7h1.5s-.2-1.4-.5-1.6c-.2-.2-1.1-.8-1.1-.8l-.7 1.4.4.5.4.5zm-4.3 0h1.8s.1-.6.2-.7c.1-.1.3-.4.3-.4l-.6-1.2s-1 .5-1.2.8c-.1.1-.5 1.5-.5 1.5z"/><path fill="#68503F" d="M133.8 95.6h42.6v15.8h-42.6z"/><path fill="#EFECCC" d="M145.4 100.3s-.7-3.6-4.8-3.8c-4.1-.1-5.4 2.6-5.5 3.5-.1.8 0 10.4 0 10.4h-1.5v-15h12.2v4.9h-.4z"/><path fill="#E4DFC0" d="M145.8 98.9s-1.6-3.1-5.4-3c-4.7 0-5.8 3.9-5.8 3.9v10.6h.5l.1-10.7s1.5-3.2 5-3.2c4.3.1 5.2 3.8 5.2 3.8l.4-.1v-1.3z"/><path fill="#E4E1DE" stroke="#E4E1DE" stroke-width=".25" d="M133.6 110.4h1.6v.4h-1.6z"/><path fill="#E9E9EA" stroke="#E9E9EA" d="M133.1 111h2.5v.6h-2.5z"/><path fill="#EFECCC" d="M166.5 100.1s.7-3.6 4.7-3.8c4-.1 5.2 2.6 5.3 3.5.1.8 0 10.4 0 10.4h1.5v-15h-11.8v4.9h.3z"/><path fill="#E4DFC0" d="M166.1 98.7s1.5-3.1 5.2-3c4.5 0 5.6 3.9 5.6 3.9v10.6h-.5l-.1-10.7s-1.4-3.2-4.8-3.2c-4.1.1-5.1 3.8-5.1 3.8l-.3-.1v-1.3z"/><path fill="#E4E1DE" stroke="#E4E1DE" stroke-width=".25" d="M176.3 110.2h1.5v.4h-1.5z"/><path fill="#E9E9EA" stroke="#E9E9EA" d="M176 110.8h2.4v.6H176z"/><path fill="#E9E9EA" stroke="#DDDDDC" stroke-width=".25" d="M145.9 111.2h2.1v3.3h-2.1z"/><path fill="#E4E1DE" stroke="#E4E1DE" stroke-width=".25" d="M150.2 111.2H148v3.3l2.2-.7z"/><path fill="#EFECCC" d="M148 111.2s-.1-16.7 0-17.8c.1-.9 1.9-3.9 7.9-6.4 1.1-.5 0-2.3 0-2.3s-4 .7-7.2 3.5c-3.1 2.7-2.7 4.5-2.9 6.1-.2 1.5 0 17 0 17h2.2z"/><path fill="#E4DFC0" d="M150.2 111.2s-1-15.7-.6-17.2c.4-1.4 3.4-4.8 4.6-5.3 1.2-.5 2.2-.9 2.2-.9l-.5-.8s-2 .8-3.3 1.7c-1.3.9-4.5 2.8-4.6 4.7v17.8h2.2z"/><path fill="#E9E9EA" stroke="#DDDDDC" stroke-width=".25" d="M164.3 111.2h2.1v3.3h-2.1z"/><path fill="#E4E1DE" stroke="#E4E1DE" stroke-width=".25" d="M162.1 111.2h2.2v3.3l-2.2-.7z"/><path fill="#EFECCC" d="M164.3 111.2s.1-16.7 0-17.8c-.1-.9-1.9-3.9-7.9-6.4-1.1-.5 0-2.3 0-2.3s4 .7 7.2 3.5c3.1 2.7 2.7 4.5 2.9 6.1.2 1.5 0 17 0 17h-2.2z"/><path fill="#E4DFC0" d="M162.1 111.2s1-15.7.6-17.2c-.4-1.4-3.4-4.8-4.6-5.3-1.2-.5-2.2-.9-2.2-.9l.5-.8s2 .8 3.3 1.7c1.3.9 4.5 2.8 4.6 4.7v17.8h-2.2z"/><path fill="#DAB357" stroke="#DAB357" d="M73.8 39.6h15.4l6.9-37.5z"/><path fill="#F3D491" stroke="#F3D491" d="M118.7 39.6h-11.9L96.1 2.1z"/><path fill="#E9C56B" stroke="#DAB357" d="M89.2 39.6h17.6L96.1 2.1z"/><path fill="#E4E1DE" stroke="#636463" stroke-width=".25" d="M76.1 39.6v.6h42.6v-.6H89.2z"/><path fill="#E9E9EA" stroke="#DDDDDC" d="M78.2 40.2h38.4v.6H78.2z"/><path fill="#E4DFC0" d="M81.4 59.4V40.8h9.1v18.6h-10z"/><path fill="#F9F6DE" d="M102.8 40.8h9.6v18.5h-9.6z"/><path fill="#EFECCC" d="M90.5 40.8h12.2v18.5H90.5z"/><path fill="#C5C0A0" d="M92.7 48h7.2v-4.7s.2-.7-3.3-.7-3.9.5-3.9.5V48z"/><path fill="#E9E9EA" stroke="#DDDDDC" d="M115.4 52.4c0 .2-.9.4-2.1.4H79.1c-1.1 0-2.1-.2-2.1-.4s.9-.4 2.1-.4h34.3c1.1 0 2 .2 2 .4zm.6-2.3c0 .2-.9.4-2.1.4H79.6c-1.1 0-2.1-.2-2.1-.4s.9-.4 2.1-.4h34.3c1.1 0 2.1.2 2.1.4z"/><path fill="#E4DFC0" d="M65.4 60v1.4l1.1.9 9.6 2.7v26.3h-1.6l1.6 4.6h12.4l1-31-6.2-2.6-1.6-2.3z"/><path fill="#EFECCC" d="M113.6 60H82.8l.5 2.3 6.2 2.6-1 31h14.6l5.7-30.8 4.8-2.8z"/><path fill="#F9F6DE" d="M122.5 60l-1.1 1.6-1.8 1.1-4.4 2.2v31h-12.1l5.7-30.8 4.8-2.8V60z"/><path fill="#E9E9EA" stroke="#DDDDDC" d="M62.1 61.6h59.3v.6H62.1zm1.1-2.2h59.3v.6H63.2z"/><path fill="silver" stroke="silver" d="M104.1 110.8l.3 2.8 61.7.1-.4-3.1zm-84.5.1l.3 2.7 63.8.1v-3zM88 113l-2.1.8h16.5l-2.6-.7z"/><path fill="#C5C0A0" d="M59.4 94.9h68.5v15.8H59.4z"/><path fill="#E9E9EA" stroke="#DDDDDC" d="M59.41 92.205l68.5.392-.016 2.6-68.5-.392z"/><path fill="#E4E1DE" stroke="#636463" stroke-width=".25" d="M59.403 92.305l68.5.392-.003.6-68.5-.392zm0 1.8l68.5.39-.003.6-68.5-.39z"/><path fill="#F9F6DE" d="M60.9 76.6h61.5v15.3H60.9z"/><path fill="#DAB357" stroke="#DAB357" d="M58 54.4h2.8l1.3-11z"/><path fill="#F3D491" stroke="#F3D491" d="M66.3 54.4h-2.2l-2-11z"/><path fill="#E9C56B" stroke="#DAB357" d="M60.8 54.4h3.3l-2-11z"/><path fill="#E4E1DE" stroke="#636463" stroke-width=".25" d="M58.4 54.4v.6h7.9v-.6h-5.5z"/><path fill="#E9E9EA" stroke="#DDDDDC" d="M58.8 55h7.1v.6h-7.1z"/><path fill="#E4DFC0" d="M59.6 74.1V55.6h1.7v18.5h-1.8z"/><path fill="#F9F6DE" d="M63.6 55.6h1.8v18.5h-1.8z"/><path fill="#EFECCC" d="M61.3 55.6h2.3v18.5h-2.3z"/><path fill="#C5C0A0" d="M61.7 62.8H63v-4.7s0-.7-.6-.7-.7.5-.7.5v4.9z"/><path fill="#E9E9EA" stroke="#DDDDDC" d="M65.9 67.2c0 .2-.2.4-.4.4h-6.4c-.2 0-.4-.2-.4-.4s.2-.4.4-.4h6.4c.3 0 .4.2.4.4zm.1-2.3c0 .2-.2.4-.4.4h-6.4c-.2 0-.4-.2-.4-.4s.2-.4.4-.4h6.4c.3 0 .4.2.4.4z"/><path fill="#E4DFC0" d="M56.4 74.8v1.3l.2.9 1.8 2.7V106h-.3l.3 4.6h2.3l.2-30.9-1.2-2.7-.2-2.2z"/><path fill="#EFECCC" d="M65.4 74.8h-5.7V77l1.2 2.7-.2 30.9h2.7l1.1-30.8.9-2.8z"/><path fill="#F9F6DE" d="M67 74.8l-.2 1.6-.3 1.1-.8 2.2v30.9h-2.3l1.1-30.8.9-2.8v-2.2z"/><path fill="#E9E9EA" stroke="#DDDDDC" d="M55.8 76.4h11v.6h-11zm.2-2.3h11v.6H56zm18.4-9.3V74h41.4l.1-9.1s-11.4-.3-21.6-.9c-8.5-.5-19.9.8-19.9.8zM67 74.1h54v2.6H67z"/><path fill="#E4E1DE" stroke="#636463" stroke-width=".25" d="M67 74.2h54v.6H67zm0 1.8h54v.6H67z"/><path fill="#FFFDF3" d="M70.6 91.7v-8.8s.4-3.1 4-3c3.6.1 4.1 3.4 4.1 3.4v8.4h-8.1z"/><path fill="#EEEBDD" d="M71.2 91.7v-8.3s.3-2.9 3.5-2.8c3.2 0 3 3.2 3 3.2v7.9h-6.5z"/><path fill="#FFFDED" stroke="#FFFDED" d="M71.6 91.7V84s.3-2.6 3.1-2.6c2.8 0 2.7 3 2.7 3v7.3h-5.8z"/><path fill="none" stroke="#E4DFC0" d="M71.6 90.2v-6.5s.3-2.3 3.1-2.2c2.8 0 2.7 2.5 2.7 2.5v6.2h-5.8z"/><path fill="#F6EFD2" d="M71.4 90.2h6v.5h-6z"/><path fill="#E4DFC0" d="M71.4 90.6h6v.4h-6z"/><path fill="#C9E8E8" stroke="#C9E8E8" stroke-width=".25" d="M73.4 90.2v-5.5s-.1-2.2 1.1-2.2c1.2 0 1.3 2.5 1.3 2.5v5.2h-2.4z"/><path fill="#F6E2ED" stroke="#F6E2ED" stroke-width=".25" d="M73.4 81.6l.6 1.2s.3-.1.8 0l.4.1.7-1.4s-.6-.2-1.1-.2c-.7.2-1.4.3-1.4.3zM71.6 84h1.8v1.6h-1.8zm4.1 0h1.6v1.6h-1.6z"/><path fill="none" stroke="#E4DFC0" d="M71.6 85.6h1.7v3h-1.7zm4.1 0h1.5v3h-1.5z"/><path fill="#F6E2ED" stroke="#F6E2ED" stroke-width=".25" d="M71.6 88.7h1.8v1.5h-1.8zm4.1 0h1.6v1.5h-1.6z"/><path fill="#F2EDD5" stroke="#E4DFC0" d="M73.4 88.7h2.2v1.5h-2.2z"/><path fill="#CDC7A5" d="M71.4 91h6v.4h-6z"/><path fill="none" stroke="#E4DFC0" d="M75.8 84h1.5s-.2-1.4-.5-1.6c-.2-.2-1.1-.8-1.1-.8l-.6 1.4.4.5.3.5zm-4.2 0h1.8s.1-.6.2-.7c.1-.1.3-.4.3-.4l-.6-1.2s-1 .5-1.2.8c-.2.2-.5 1.5-.5 1.5z"/><path fill="#E4E1DE" stroke="#636463" stroke-width=".25" d="M74.4 64.8v2.4s11.8-1.8 20.7-1.2c8.9.5 20.7 1.4 20.7 1.4l.1-2.4s-14-.9-21.6-1.1c-8.7-.3-19.9.9-19.9.9zm0 8.2h41.3v1H74.4z"/><path fill="#DAB357" stroke="#DAB357" d="M121.6 54.4h2.8l1.3-11z"/><path fill="#F3D491" stroke="#F3D491" d="M129.9 54.4h-2.2l-2-11z"/><path fill="#E9C56B" stroke="#DAB357" d="M124.4 54.4h3.3l-2-11z"/><path fill="#E4E1DE" stroke="#636463" stroke-width=".25" d="M122 54.4v.6h7.9v-.6h-5.5z"/><path fill="#E9E9EA" stroke="#DDDDDC" d="M122.4 55h7.1v.6h-7.1z"/><path fill="#E4DFC0" d="M123.2 74.1V55.6h1.7v18.5H123z"/><path fill="#F9F6DE" d="M127.2 55.6h1.8v18.5h-1.8z"/><path fill="#EFECCC" d="M124.9 55.6h2.3v18.5h-2.3z"/><path fill="#C5C0A0" d="M125.3 62.8h1.3v-4.7s0-.7-.6-.7-.7.5-.7.5v4.9z"/><path fill="#E9E9EA" stroke="#DDDDDC" d="M129.5 67.2c0 .2-.2.4-.4.4h-6.4c-.2 0-.4-.2-.4-.4s.2-.4.4-.4h6.4c.3 0 .4.2.4.4zm.1-2.3c0 .2-.2.4-.4.4h-6.4c-.2 0-.4-.2-.4-.4s.2-.4.4-.4h6.4c.3 0 .4.2.4.4z"/><path fill="#E4DFC0" d="M120 74.8v1.3l.2.9 1.8 2.7V106h-.3l.3 4.6h2.3l.2-30.9-1.2-2.7-.3-2.2z"/><path fill="#EFECCC" d="M129 74.8h-5.7V77l1.2 2.7-.2 30.9h2.7l1.1-30.8.9-2.8z"/><path fill="#F9F6DE" d="M130.6 74.8l-.2 1.6-.3 1.1-.8 2.2v30.9H127l1.1-30.8.9-2.8v-2.2z"/><path fill="#E9E9EA" stroke="#DDDDDC" d="M119.4 76.4h11v.6h-11zm.2-2.3h11v.6h-11z"/><path fill="#FFFDF3" d="M83.6 91.7v-8.8s.4-3.1 4-3c3.6.1 4.1 3.4 4.1 3.4v8.4h-8.1z"/><path fill="#EEEBDD" d="M84.2 91.7v-8.3s.3-2.9 3.5-2.8c3.2 0 3 3.2 3 3.2v7.9h-6.5z"/><path fill="#FFFDED" stroke="#FFFDED" d="M84.6 91.7V84s.3-2.6 3.1-2.6c2.8 0 2.7 3 2.7 3v7.3h-5.8z"/><path fill="none" stroke="#E4DFC0" d="M84.6 90.2v-6.5s.3-2.3 3.1-2.2c2.8 0 2.7 2.5 2.7 2.5v6.2h-5.8z"/><path fill="#F6EFD2" d="M84.5 90.2h6v.5h-6z"/><path fill="#E4DFC0" d="M84.5 90.6h6v.4h-6z"/><path fill="#C9E8E8" stroke="#C9E8E8" stroke-width=".25" d="M86.4 90.2v-5.5s-.1-2.2 1.1-2.2c1.2 0 1.3 2.5 1.3 2.5v5.2h-2.4z"/><path fill="#F6E2ED" stroke="#F6E2ED" stroke-width=".25" d="M86.4 81.6l.6 1.2s.3-.1.8 0l.4.1.7-1.4s-.6-.2-1.1-.2c-.7.2-1.4.3-1.4.3zM84.6 84h1.8v1.6h-1.8zm4.2 0h1.6v1.6h-1.6z"/><path fill="none" stroke="#E4DFC0" d="M84.6 85.6h1.7v3h-1.7zm4.2 0h1.5v3h-1.5z"/><path fill="#F6E2ED" stroke="#F6E2ED" stroke-width=".25" d="M84.6 88.7h1.8v1.5h-1.8zm4.2 0h1.6v1.5h-1.6z"/><path fill="#F2EDD5" stroke="#E4DFC0" d="M86.4 88.7h2.2v1.5h-2.2z"/><path fill="#CDC7A5" d="M84.5 91h6v.4h-6z"/><path fill="none" stroke="#E4DFC0" d="M88.9 84h1.5s-.2-1.4-.5-1.6c-.2-.2-1.1-.8-1.1-.8l-.6 1.4.4.5.3.5zm-4.3 0h1.8s.1-.6.2-.7c.1-.1.3-.4.3-.4l-.6-1.2s-1 .5-1.2.8c-.1.2-.5 1.5-.5 1.5z"/><path fill="#FFFDF3" d="M98.2 91.7v-8.8s.4-3.1 4-3c3.6.1 4.1 3.4 4.1 3.4v8.4h-8.1z"/><path fill="#EEEBDD" d="M98.8 91.7v-8.3s.3-2.9 3.5-2.8c3.2 0 3 3.2 3 3.2v7.9h-6.5z"/><path fill="#FFFDED" stroke="#FFFDED" d="M99.2 91.7V84s.3-2.6 3.1-2.6c2.8 0 2.7 3 2.7 3v7.3h-5.8z"/><path fill="none" stroke="#E4DFC0" d="M99.2 90.2v-6.5s.3-2.3 3.1-2.2c2.8 0 2.7 2.5 2.7 2.5v6.2h-5.8z"/><path fill="#F6EFD2" d="M99.1 90.2h6v.5h-6z"/><path fill="#E4DFC0" d="M99.1 90.6h6v.4h-6z"/><path fill="#C9E8E8" stroke="#C9E8E8" stroke-width=".25" d="M101 90.2v-5.5s-.1-2.2 1.1-2.2c1.2 0 1.3 2.5 1.3 2.5v5.2H101z"/><path fill="#F6E2ED" stroke="#F6E2ED" stroke-width=".25" d="M101 81.6l.6 1.2s.3-.1.8 0l.4.1.7-1.4s-.6-.2-1.1-.2c-.7.2-1.4.3-1.4.3zM99.2 84h1.8v1.6h-1.8zm4.2 0h1.6v1.6h-1.6z"/><path fill="none" stroke="#E4DFC0" d="M99.2 85.6h1.7v3h-1.7zm4.2 0h1.5v3h-1.5z"/><path fill="#F6E2ED" stroke="#F6E2ED" stroke-width=".25" d="M99.2 88.7h1.8v1.5h-1.8zm4.2 0h1.6v1.5h-1.6z"/><path fill="#F2EDD5" stroke="#E4DFC0" d="M101 88.7h2.2v1.5H101z"/><path fill="#CDC7A5" d="M99.1 91h6v.4h-6z"/><path fill="none" stroke="#E4DFC0" d="M103.5 84h1.5s-.2-1.4-.5-1.6c-.2-.2-1.1-.8-1.1-.8l-.7 1.4.4.5.4.5zm-4.3 0h1.8s.1-.6.2-.7c.1-.1.3-.4.3-.4l-.6-1.2s-1 .5-1.2.8c-.1.2-.5 1.5-.5 1.5z"/><path fill="#FFFDF3" d="M111 91.7v-8.8s.4-3.1 4-3c3.6.1 4.1 3.4 4.1 3.4v8.4H111z"/><path fill="#EEEBDD" d="M111.6 91.7v-8.3s.3-2.9 3.5-2.8c3.2 0 3 3.2 3 3.2v7.9h-6.5z"/><path fill="#FFFDED" stroke="#FFFDED" d="M112 91.7V84s.3-2.6 3.1-2.6c2.8 0 2.7 3 2.7 3v7.3H112z"/><path fill="none" stroke="#E4DFC0" d="M112 90.2v-6.5s.3-2.3 3.1-2.2c2.8 0 2.7 2.5 2.7 2.5v6.2H112z"/><path fill="#F6EFD2" d="M111.9 90.2h6v.5h-6z"/><path fill="#E4DFC0" d="M111.9 90.6h6v.4h-6z"/><path fill="#C9E8E8" stroke="#C9E8E8" stroke-width=".25" d="M113.8 90.2v-5.5s-.1-2.2 1.1-2.2c1.2 0 1.3 2.5 1.3 2.5v5.2h-2.4z"/><path fill="#F6E2ED" stroke="#F6E2ED" stroke-width=".25" d="M113.8 81.6l.6 1.2s.3-.1.8 0l.4.1.7-1.4s-.6-.2-1.1-.2c-.7.2-1.4.3-1.4.3zM112 84h1.8v1.6H112zm4.2 0h1.6v1.6h-1.6z"/><path fill="none" stroke="#E4DFC0" d="M112 85.6h1.7v3H112zm4.2 0h1.5v3h-1.5z"/><path fill="#F6E2ED" stroke="#F6E2ED" stroke-width=".25" d="M112 88.7h1.8v1.5H112zm4.2 0h1.6v1.5h-1.6z"/><path fill="#F2EDD5" stroke="#E4DFC0" d="M113.8 88.7h2.2v1.5h-2.2z"/><path fill="#CDC7A5" d="M111.9 91h6v.4h-6z"/><path fill="none" stroke="#E4DFC0" d="M116.3 84h1.5s-.2-1.4-.5-1.6c-.2-.2-1.1-.8-1.1-.8l-.7 1.4.4.5.4.5zm-4.3 0h1.8s.1-.6.2-.7c.1-.1.3-.4.3-.4l-.6-1.2s-1 .5-1.2.8c-.1.2-.5 1.5-.5 1.5z"/><path fill="#68503F" d="M71.8 94.9h42.6v15.8H71.8z"/><path fill="#EFECCC" d="M83.4 99.7s-.7-3.6-4.8-3.8c-4.1-.1-5.4 2.7-5.5 3.5-.1.8 0 10.4 0 10.4h-1.5v-15h12.2v4.9h-.4z"/><path fill="#E4DFC0" d="M83.8 98.2s-1.5-3.1-5.4-3c-4.7 0-5.8 3.9-5.8 3.9v10.6h.5l.1-10.7s1.5-3.2 5-3.2c4.3.1 5.2 3.8 5.2 3.8l.4-.1v-1.3z"/><path fill="#E4E1DE" stroke="#E4E1DE" stroke-width=".25" d="M71.6 109.7h1.6v.4h-1.6z"/><path fill="#E9E9EA" stroke="#E9E9EA" d="M71.1 110.3h2.5v.6h-2.5z"/><path fill="#EFECCC" d="M104.5 99.5s.7-3.6 4.7-3.8c4-.1 5.2 2.6 5.3 3.5.1.8 0 10.4 0 10.4h1.5v-15h-11.8v4.9h.3z"/><path fill="#E4DFC0" d="M104.1 98s1.5-3.1 5.2-3c4.5 0 5.6 3.9 5.6 3.9v10.6h-.5l-.1-10.7s-1.4-3.2-4.8-3.2c-4.1.1-5.1 3.8-5.1 3.8l-.3-.1V98z"/><path fill="#E4E1DE" stroke="#E4E1DE" stroke-width=".25" d="M114.3 109.5h1.5v.4h-1.5z"/><path fill="#E9E9EA" stroke="#E9E9EA" d="M114 110.2h2.4v.6H114z"/><path fill="#E9E9EA" stroke="#DDDDDC" stroke-width=".25" d="M83.9 110.5H86v3.3h-2.1z"/><path fill="#E4E1DE" stroke="#E4E1DE" stroke-width=".25" d="M88.1 110.5H86v3.3l2.1-.7z"/><path fill="#EFECCC" d="M86 110.5s-.1-16.7 0-17.8c.1-.9 1.9-3.9 7.9-6.4 1.1-.5 0-2.3 0-2.3s-4 .7-7.2 3.5c-3.1 2.7-2.7 4.5-2.9 6.1-.2 1.5 0 17 0 17H86z"/><path fill="#E4DFC0" d="M88.1 110.5s-1-15.7-.6-17.1c.4-1.4 3.4-4.8 4.6-5.3 1.2-.5 2.2-.9 2.2-.9l-.5-.8s-2 .8-3.3 1.7c-1.3.9-4.5 2.8-4.6 4.7v17.8h2.2z"/><path fill="#E9E9EA" stroke="#DDDDDC" stroke-width=".25" d="M102.3 110.5h2.1v3.3h-2.1z"/><path fill="#E4E1DE" stroke="#E4E1DE" stroke-width=".25" d="M100.1 110.5h2.2v3.3l-2.2-.7z"/><path fill="#EFECCC" d="M102.3 110.5s.1-16.7 0-17.8c-.1-.9-1.9-3.9-7.9-6.4-1.1-.5 0-2.3 0-2.3s4 .7 7.2 3.5c3.1 2.7 2.7 4.5 2.9 6.1.2 1.5 0 17 0 17h-2.2z"/><path fill="#E4DFC0" d="M100.1 110.5s1-15.7.6-17.1c-.4-1.4-3.4-4.8-4.6-5.3-1.2-.5-2.2-.9-2.2-.9l.5-.8s2 .8 3.3 1.7c1.3.9 4.5 2.8 4.6 4.7v17.8h-2.2z"/><path fill="#AEAEAF" stroke="#AEAEAF" d="M86.8 110.6h13.7v.8H86.8z"/><path fill="#898784" stroke="#898784" d="M86.8 112h13.9v.8H86.8z"/><path fill="#ECECEC" stroke="#DDDDDC" d="M97.7 109.4h-8.1v-.6h8.1z"/><path fill="#DDDDDC" stroke="#DDDDDC" d="M90.5 110.6h6.2l.5-1.2h-7.1z"/><path fill="#E9E9EA" stroke="#E9E9EA" d="M91.2 106h4.4l-1.4 1.5-.2 1.1h-.6l-.4-1.1z"/><path fill="#9D9E9F" stroke="#9D9E9F" d="M86.8 111.4h13.9v.6H86.8z"/><path fill="#898784" stroke="#898784" d="M19.9 113.6h170.2v1.4H19.9z"/><path fill="#98C93C" d="M49.9 113H19.6v-2.1H54zm140.2 2l-58.4-1.2-2.4-3.2 60.8-.4z"/><path fill="#DAB357" stroke="#DAB357" d="M2.2 66.5H5l1.3-8.7z"/><path fill="#F3D491" stroke="#F3D491" d="M10.5 66.5H8.3l-2-8.7z"/><path fill="#E9C56B" stroke="#DAB357" d="M5 66.5h3.3l-2-8.7z"/><path fill="#E4E1DE" stroke="#636463" stroke-width=".25" d="M2.6 66.5v.5h7.9v-.5H5z"/><path fill="#E9E9EA" stroke="#DDDDDC" d="M3 67h7.1v.5H3z"/><path fill="#E4DFC0" d="M3.8 82.1V67.5h1.7v14.6H3.6z"/><path fill="#F9F6DE" d="M7.8 67.5h1.8v14.7H7.8z"/><path fill="#EFECCC" d="M5.5 67.5h2.3v14.7H5.5z"/><path fill="#C5C0A0" d="M5.9 73.2h1.3v-3.7s0-.5-.6-.5-.7.4-.7.4v3.8z"/><path fill="#E9E9EA" stroke="#DDDDDC" d="M10.1 76.6c0 .2-.2.3-.4.3H3.4c-.2 0-.4-.1-.4-.3 0-.2.2-.3.4-.3h6.4c.2 0 .3.2.3.3zm.1-1.8c0 .2-.2.3-.4.3H3.5c-.2 0-.4-.1-.4-.3 0-.2.2-.3.4-.3h6.4c.2 0 .3.1.3.3z"/><path fill="#E4DFC0" d="M.6 82.6v1.1l.2.7 1.8 2.2v20.8h-.3l.3 3.6h2.3l.2-24.5-1.2-2.1-.3-1.8z"/><path fill="#EFECCC" d="M9.6 82.6H3.9v1.8l1.2 2.1-.2 24.5h2.7l1.1-24.4.9-2.2z"/><path fill="#F9F6DE" d="M11.2 82.6l-.2 1.3-.3.9-.8 1.7V111H7.6l1.1-24.4.9-2.2v-1.8z"/><path fill="#E9E9EA" stroke="#DDDDDC" d="M0 83.9h11v.5H0zm.2-1.8h11v.5H.2z"/><path fill="#DAB357" stroke="#DAB357" d="M182.7 66.6h2.9l1.3-8.7z"/><path fill="#F3D491" stroke="#F3D491" d="M191.1 66.6h-2.2l-2-8.7z"/><path fill="#E9C56B" stroke="#DAB357" d="M185.6 66.6h3.3l-2-8.7z"/><path fill="#E4E1DE" stroke="#636463" stroke-width=".25" d="M183.2 66.6v.5h7.9v-.5h-5.5z"/><path fill="#E9E9EA" stroke="#DDDDDC" d="M183.6 67.1h7.1v.5h-7.1z"/><path fill="#E4DFC0" d="M184.4 82.3V67.6h1.7v14.7h-1.9z"/><path fill="#F9F6DE" d="M188.4 67.6h1.8v14.7h-1.8z"/><path fill="#EFECCC" d="M186.1 67.6h2.3v14.7h-2.3z"/><path fill="#C5C0A0" d="M186.5 73.3h1.3v-3.7s0-.5-.6-.5-.7.4-.7.4v3.8z"/><path fill="#E9E9EA" stroke="#DDDDDC" d="M190.7 76.8c0 .2-.2.3-.4.3H184c-.2 0-.4-.1-.4-.3 0-.2.2-.3.4-.3h6.4c.1 0 .3.1.3.3zm.1-1.9c0 .2-.2.3-.4.3H184c-.2 0-.4-.1-.4-.3 0-.2.2-.3.4-.3h6.4c.2 0 .4.2.4.3z"/><path fill="#E4DFC0" d="M181.2 82.8v1l.2.7 1.8 2.2v20.8h-.3l.3 3.6h2.3l.2-24.5-1.2-2.1-.3-1.7z"/><path fill="#EFECCC" d="M190.1 82.8h-5.7l.1 1.7 1.2 2.1-.2 24.5h2.7l1-24.3.9-2.3z"/><path fill="#F9F6DE" d="M191.8 82.8l-.2 1.2-.3.9-.9 1.7v24.5h-2.2l1-24.3.9-2.3v-1.7z"/><path fill="#E9E9EA" stroke="#DDDDDC" d="M180.6 84h11v.5h-11zm.2-1.7h11v.5h-11z"/><path fill="#DAB357" stroke="#DAB357" d="M17.7 65.2h14.4l6.5-32.1z"/><path fill="#F3D491" stroke="#F3D491" d="M59.8 65.2H48.7L38.6 33.1z"/><path fill="#E9C56B" stroke="#DAB357" d="M32.1 65.2h16.6L38.6 33.1z"/><path fill="#DAB357" stroke="#DAB357" d="M136.4 64.8h14.4l6.5-32z"/><path fill="#F3D491" stroke="#F3D491" d="M178.5 64.8h-11.1l-10.1-32z"/><path fill="#E9C56B" stroke="#DAB357" d="M150.8 64.8h16.6l-10.1-32z"/></g></switch></svg>
