<svg xmlns="http://www.w3.org/2000/svg" version="1.0" viewBox="0 0 37.58 41.59"><path fill="#d0e7c4" stroke="#669866" stroke-width=".25" d="M12.79 24.31l4.93 2.58 3.93 1.8 2.02 1.57.22 1.79-1.34 4.04-.56 2.24-.45 1.46 2.8.57 3.26.78 3.47.45 1.57-.68h.56l1.35-1.79 2.58-1.34.11-2.7v-3.93l.34-6.95-1.46-1.01-3.03.67-1.45-4.37-1.35-3.48-2.8-1.57-2.14.78-4.6-1V9.28l-1.57-3.81-.33-3.43-.38.57L17 1.73l-1.27-.71L14.39 0l-1.85.19-2.04.19-4.34.7-1.53.26-1.28.32-1.34 3.06-.89 1.85.38 2.49-1.5 5.6 1.8 1.79 2.91 3.26 3.37 2.02.33.9z"/></svg>
