<svg xmlns="http://www.w3.org/2000/svg" id="Capa_1" x="0" y="0" version="1.0" xml:space="preserve" viewBox="0 0 20 20"><style>.st0,.st1{stroke:#0e057c;stroke-width:.253}.st0{fill:#fefefe}.st1{opacity:.24}.st1,.st2{fill:#fefefe}.st3{fill:none;stroke:#0e057c;stroke-width:.253}.st4{opacity:.63}.st5,.st6{opacity:.61;fill:#fefefe;stroke:#0e057c;stroke-width:.253}.st6{opacity:.55}</style><switch><g><ellipse cx="15.8" cy="10.9" class="st0" rx="1.6" ry="1.9"/><ellipse cx="3.5" cy="10.7" class="st0" rx="1.6" ry="1.9"/><path d="M1.9 11.7h-1l-.2-.2c-.1-.1-.4 0-.4 0l-.2-.3v-.8S0 9.7 0 9.5c0-.1.3-.4.6-.5.2-.1 1.1-.5 1.6-.5.5-.1 1.1-.2 1.7-.3.5 0 1.2-.2 1.3-.2.1.1.8 0 .8 0l.4.1s.2.1.4-.1c.3-.2.7-.4 1.1-.7.4-.1 1.1-.6 1.1-.6s.8-.4 1.2-.4h1.9c.8 0 1.3 0 2.2.2.9.2 1.6.3 1.9.5.3.2 1.3.5 1.3.5l.4.1s0-.1.2-.1c.3 0 .8.1.8.1l.4.1.3-.1.2.3s-.2.3-.2.5.1.3.2.5c.1.3.2.6.2.7 0 .2.1.6 0 .7-.1.1-.1.5-.1.5l-.1.2-.2.3-2.2.4s.1-.9-.1-1.4c-.3-.9-1-1.2-1.5-1.2-.9 0-1.2.4-1.4.9-.3.7-.2 1.7-.2 1.7H5S5.3 8.8 3.3 9c-1.6.1-1.4 2.7-1.4 2.7z" class="st0"/><path d="M6.1 8s2.7-1.6 2.8-1.6c.1 0 .3.1.3.1L6.6 8.1h-.2L6.1 8zM.2 10.4l.1-.1c.1-.1.1-.2.1-.2v-.7s-.1-.1-.2-.1H0l-.1.2s.1.2.1.3v.3c.1.1.1.3.2.3zm.4-1.1l.1.2s.9 0 1-.1c.3-.1.7-.5.7-.5v-.2s-1.6.4-1.8.6z" class="st0"/><path d="M.6 9.4l.1.3 1.4-.1m-.2.7s-1.1 0-1.2.1c-.1.1-.2.4-.2.5v.2" class="st0"/><path d="M1.9 11.7h-.1S1.5 9 3.5 9s1.6 2.8 1.6 2.8h-.2s.3-2.7-1.5-2.7c-1.7 0-1.5 2.6-1.5 2.6zM18 7.6c0 .1-.4 0-.8-.2-.3-.1-.9-.4-1-.5-.1-.1-.5-.2-.5-.2h-.2l.2-.3s.6.2 1.1.5c.5.2.6.2.9.4.3.2.3.3.3.3zm-4 2c-.7 1.2-.2 1.8-.2 1.8H11s-.1-1.6-.1-2.2c.1-.6.3-1 .3-1l.3-.2h4c0-.1-.8.4-1.5 1.6z" class="st0"/><path d="M14.2 11.8H14s-.3-2.9 1.8-2.9c2.1.1 1.7 2.7 1.7 2.7h-.2s.4-2.4-1.5-2.5c-1.8-.1-1.6 2.7-1.6 2.7zM1.6 10.5s-1-.2-1 .4c0 .6.7.4.7.4s.1-.1.2-.3c.1-.2.1-.5.1-.5z" class="st0"/><path d="M1.1 10.5s-.2 0-.3.2c-.1.2-.1.3 0 .4 0 .1.1.2.1.2s-.1.1-.2-.1-.1-.3-.1-.4c0-.1.1-.2.2-.2.1-.1.2-.2.3-.1 0-.1.1-.1 0 0zm9.2-3.8c-1 .2-2.4 1-2.6 1.1-.2.1-.9.5-1 .7-.1.2-.1 1.7-.1 2.2 0 .5 0 .7.2.7H11s-.1-1.8-.1-2.1c0-.3.2-.6.2-.8 0-.1.2-.4.3-.5s.2-.1.2-.1l.2-1.4c-.1 0-1 0-1.5.2zm.7 1.8l-.2.5s-.1.1-.1.8c0 .8.1 1.4.1 1.4s-4 .1-4.1-.1c-.1-.2 0-2.2 0-2.5.1-.3.4-.4.4-.4l4-.1-.1.4zm.4-.6l-4.1.2.5-.3s.4-.2.7-.4c.1-.1 1.2-.5 2-.7.8-.2 1.2-.1 1.2-.1l-.3 1.3zm.2 0l.2-1.4s1 0 1.8.1c.8.2 2.2.7 2.2.7s0 .2-.2.4c-.1.2-.2.1-.2.1l-3.8.1zm8.1 2.8l-2 .1s.3-.5-.5-1.6c-.7-.8-1.2-.7-1.2-.7s.4-.3.7-.6l.4-.2.8.2.2-.2c.1-.1.1-.1.3-.1.2 0 .7.1.7.1l.3.1.2.4c.1.2.2.9.2.9l.1.6.1.4-.3.6z" class="st0"/><path d="M18.7 10.4h.7v.8s-.3 0-.5-.2-.3-.4-.3-.4c.1 0 .1-.2.1-.2z" class="st0"/><path d="M19.2 10.4s.1 0 .1.1v.2h-.5l-.1-.1v-.2h.5z" class="st0"/><path d="M19.6 11v.2c0 .1-.3 0-.3 0l-.3-.3-.2-.3s.1 0 .2.1.2.3.2.3h.4z" class="st0"/><path d="M19.3 10.7h.1v.2h-.1v.1-.3zm-.4.1h.3v.2h-.1l-.2-.2zm.6-2.2s0-.3-.2-.4c-.1-.1-1.1-.1-1.1-.1s-.1 0-.1.1.5.5.6.5h.7v-.1z" class="st0"/><path d="M18.2 8.4h.4s.1.2.3.3h.6s-.1-.3-.1-.4c-.1-.1-.9-.1-1-.1-.1 0-.2-.1-.2 0-.1 0 0 .2 0 .2zm1.7 1h-.6s-.1 0-.5-.2-.6-.5-.6-.5m-2.4.6c-.8 0-1.4.7-1.4 1.7 0 .9.6 1.7 1.4 1.7.8 0 1.4-.7 1.4-1.7 0-.9-.6-1.7-1.4-1.7zm0 3c-.7 0-1.2-.6-1.2-1.4 0-.8.5-1.4 1.2-1.4s1.2.6 1.2 1.4c0 .8-.6 1.4-1.2 1.4z" class="st0"/><path d="M15.8 9.3c-.8 0-1.4.8-1.4 1.7 0 1 .6 1.7 1.4 1.7.8 0 1.4-.8 1.4-1.7 0-1-.6-1.7-1.4-1.7zm0 3.1c-.7 0-1.2-.7-1.2-1.5s.6-1.5 1.2-1.5c.7 0 1.2.7 1.2 1.5 0 .9-.5 1.5-1.2 1.5z" class="st0"/><path d="M15.2 9.7s0 .1.1.2.1.2.2.3c.1.2.1.2.2.1 0-.1.1-.8.1-.8v.4c0 .2 0 .6-.1.6s-.3-.4-.4-.5c-.1-.2-.2-.3-.1-.3zm.7-.2v1c.1 0 .4-.4.4-.4 0-.1.2-.3.2-.3h-.1s0 .1-.1.2-.2.3-.2.3l-.2.2h-.1V10c.1-.2.1-.5.1-.5zm.3 1v.1h.3c.2 0 .2-.1.2-.1h.1v-.1.1s-.1 0-.1.1c-.1 0-.7.2-.7.1l.2-.2zm.1.5s.3.2.4.2c.1.1.2.1.2.1h.1v.1c-.1 0-.7-.3-.7-.4h-.1.1zm-.2.3s.1 0 0 0c.1.2.2.4.2.5 0 .1.1.2.1.2h.2l-.1.1s-.3-.5-.4-.7v-.1c0-.1 0 0 0 0zm-1.4-1v.1s.2.1.3.1h.4l.1.1s.1.1-.4 0c-.2-.1-.5-.2-.5-.2l.1-.1z" class="st0"/><path d="M15.2 10.1l.2.4.1.1s0-.1-.1-.2c-.1-.2-.2-.3-.2-.3zm-.6 1.1s0 .1 0 0c.1.1.3 0 .4-.1l.2-.2h.2s.1 0-.1.1c-.1.1-.2.2-.4.3-.2.1-.3.1-.3.1v-.2zm.4.8s0 .1 0 0c.2-.1.3-.4.4-.5 0-.1.1-.1.1-.1l.1-.1v.2c-.1.1-.2.4-.2.5-.1.1-.2.3-.2.3-.2-.2-.2-.2-.2-.3 0 .1-.1 0 0 0zm.6.4s.1 0 0 0c.1-.1.1-.6.1-.7v-.3l.1.2v.7c-.1.1-.2.1-.2.1-.1 0 0 0 0 0zm.3-.5v.4h-.1v-.4z" class="st0"/><path d="M16.5 9.5s.1 0 0 0c0 .2-.2.5-.2.6-.1.1-.4.4-.4.5V9.5l.1-.1h-.3.1v1.1c0 .1 0 .1-.1.1 0 0-.2-.1-.2-.2s-.2-.4-.3-.4c0-.1-.1-.2-.1-.2v-.2s.1-.1 0-.1l-.2.2c.1 0 .1.1.2.2s.1.2.2.3c.1.1.1.2.2.3 0 .1.1.2.1.2h-.1c-.1 0-.3-.1-.5-.1-.1-.1-.3-.1-.3-.1l-.1-.1v-.1s0 .1-.1.2v.2l.1-.1h.2c.1 0 .2.1.4.1.1.1.2.1.3.1h.1l-.2.2c-.1.1-.5.3-.6.3h-.2l.1.2.1-.1.4-.2c.2-.1.4-.1.4-.1h.1s0-.1 0 0-.1.4-.2.5c0 .1-.2.3-.2.4l.1.1s.1-.1.1-.2c.1-.1.1-.2.2-.2.1-.1.1-.2.1-.2l.1-.1s0-.1.1 0v1.1l-.1.1h.3v-1c0-.1 0-.3.1-.3s.2.1.2.3c.1.1.2.3.2.4 0 0 0 .1.1.1v.3l.1-.1.1-.1s.1-.1 0-.1h-.1s-.1 0-.2-.2c-.1-.1-.3-.5-.3-.6 0-.1-.1-.1-.1-.2V11h.2c.1 0 .3.1.4.2.1 0 .1 0 .1.1l.1.1.1.1v.1l.1-.3v-.2.1H17c-.1 0-.5-.2-.5-.3-.1 0-.1-.1-.1-.1l.2-.1c.2-.1.1-.1.3-.1.2 0 .2-.1.3-.1h.2v-.3.1l-.1.1s-.1.1-.2.1-.2.1-.3.1h-.3v-.1l.1-.1s.1-.2.2-.3c0-.1.1-.2.1-.2l.1-.1s0-.1.1-.1h.1l-.1-.1c-.4 0-.5 0-.6-.1.1 0 0 0 0 0z" class="st0"/><circle cx="15.6" cy="10.7" r=".1" class="st0"/><circle cx="16" cy="10.6" r=".1" class="st0"/><circle cx="15.5" cy="11.1" r=".1" class="st0"/><circle cx="15.8" cy="11.3" r=".1" class="st0"/><path d="M16.2 11.1c0 .1 0 .1-.1.1 0 0-.1 0-.1-.1s0-.1.1-.1c0 0 .1 0 .1.1z" class="st0"/><circle cx="15.8" cy="11" r=".2" class="st0"/><circle cx="15.6" cy="10.7" r=".1" class="st0"/><circle cx="15.5" cy="11.1" r=".1" class="st0"/><circle cx="16.1" cy="11.1" r=".1" class="st0"/><circle cx="15.8" cy="11.3" r=".1" class="st0"/><path d="M16.2 10.6s-.1.1 0 0c-.1 0 0-.1 0-.1v.1m.6 1.5c0-.1 0-.1-.1-.1h-.1v.2s.1 0 .2-.1c-.1.1-.1.1 0 0 0 .1 0 0 0 0m-.5.2c0-.1 0-.1 0 0h.1v.1c0-.1 0-.1-.1-.1 0 0 0-.1 0 0m-1.1 0l-.1.1v-.1s.1-.1.1 0" class="st0"/><path d="M14.8 12.2v-.1l.1-.1h.1s-.1 0-.1.1c-.1 0-.1 0-.1.1 0-.1 0 0 0 0m.1 0l.1-.1-.1.1s0 .1 0 0" class="st1"/><path d="M15.5 9.3s0 .1 0 0c-.1.1-.1.1 0 .1h.2v-.1c-.1 0-.1.1-.2 0 .1.1.1.2 0 0 0 .1 0 .1 0 0m.5 0c-.1 0-.1.1 0 0v.2h.1v-.1c0-.1 0-.1-.1-.1.1 0 .1.1 0 0 .1.1.1.1 0 0l.1.1c-.1 0-.1 0-.1-.1 0 .1 0 .1 0 0 0 .1 0 0 0 0m.4.2c-.1 0-.1 0 0 0-.1.1-.1.2-.1.2h.1c.1-.1.1-.1 0-.2.1.1.1.1 0 .1v-.1m.4.3c-.1 0-.1 0 0 0-.1 0-.1.1-.1.1l.1.1s.1 0 .1-.1c-.2-.1-.2-.1-.1-.1m.2.4c-.1 0-.1 0-.1.1 0 0 0 .1.1.1h.1c-.1-.1-.1-.1-.1-.2 0 .1 0 0 0 0m.1.5s-.1 0-.1.1v.1h.1v-.2m-.1.5c0 .1 0 .1 0 0 0 .1 0 .1 0 0l.1.1v-.2H17v.1s0 .1 0 0m0 .5c0-.1 0-.1-.1-.1h-.2v.1c.2.1.3.1.3 0 0 .1 0 .1 0 0h-.1.1m-.2.5z" class="st0"/><path d="M16.8 12.1s0-.1 0 0l-.1-.1h-.1v.2h.1s.1 0 .1-.1zm0 .1c-.1 0-.1 0 0 0-.1 0-.1 0-.1-.1v-.2h.1c-.1.1 0 .2 0 .3 0-.1 0 0 0 0zm0 0c-.1 0-.1 0 0 0-.1 0-.1 0-.1-.1v-.2h.1c-.1.1 0 .2 0 .3 0-.1 0 0 0 0z" class="st2"/><path d="M16.8 12.1s0-.1 0 0l-.1-.1h-.1v.2h.1s.1 0 .1-.1zm0 .1c-.1 0-.1 0 0 0-.1 0-.1 0-.1-.1v-.2h.1c-.1.1 0 .2 0 .3 0-.1 0 0 0 0zm0 0c-.1 0-.1 0 0 0-.1 0-.1 0-.1-.1v-.2h.1c-.1.1 0 .2 0 .3 0-.1 0 0 0 0z" class="st3"/><path d="M16.4 12.5c0-.1 0-.1 0 0v-.1l-.1-.1v.2c0-.1 0 0 .1 0-.1 0-.1 0 0 0-.1-.1-.1-.1 0 0-.1-.1 0-.1 0 0 0-.2 0-.1 0 0 0-.1 0-.1 0 0m-.5-.1s.1 0 0 0h.1v.2h-.1v-.2c0 .1 0 .1 0 0m-.4.2s0-.1 0 0v-.2s0-.1.1-.1h.1v.2c-.1.1-.1.1-.2.1.1 0 .1.1 0 0 .1 0 0 0 0 0m-.4-.2v-.2s.1 0 .1.1v.2s-.1 0-.1-.1m-.3-.2v-.1h.1v.1h-.1m-.2-.6h.1l-.1.2s.1-.1 0-.2c0 .1 0 .1 0 0 0 .1 0 .1 0 0 0 .1 0 0 0 0m-.2-.3c0-.1.1-.1.2-.1 0 0 0 .1-.2.1.1 0 .1-.1 0 0 .1-.1 0-.1 0 0 0-.1 0 0 0 0m0-.6h.1v.1h-.1c.1 0 .1 0 0-.1.1.1.1 0 0 0 .1 0 0 0 0 0m.1-.5s.1 0 0 0c.1 0 .1-.1.1 0v.2h-.1c.1-.1.1-.1 0-.2.1.1.1.1 0 0 .1.1.1 0 0 0 .1 0 0 0 0 0m.3-.4s.1-.1 0 0c.1 0 .1.1.1.1l-.1.1v-.2.1h.1s0-.1-.1-.1c.1 0 0 0 0 0m.4-.3s.1 0 0 0c.1.1.1.1.1.2h-.1c-.1-.1-.1-.2 0-.2-.1 0-.1 0 0 0v.1h.1l-.1-.1m1.6 2.7c-.1 0-.1 0 0 0-.1 0-.1 0-.1-.1v-.2h.1c-.1.1 0 .2 0 .3 0-.1 0 0 0 0z" class="st0"/><circle cx="15.2" cy="9.5" r=".1" class="st1"/><circle cx="15.6" cy="9.4" r=".1" class="st1"/><circle cx="16" cy="9.4" r=".1" class="st1"/><circle cx="16.4" cy="9.5" r=".1" class="st1"/><circle cx="16.8" cy="9.9" r=".1" class="st1"/><circle cx="17" cy="10.3" r=".1" class="st1"/><circle cx="17.1" cy="10.8" r=".1" class="st1"/><circle cx="17.1" cy="11.3" r=".1" class="st1"/><circle cx="17" cy="11.7" r=".1" class="st1"/><circle cx="16.7" cy="12.1" r=".1" class="st1"/><circle cx="16.4" cy="12.4" r=".1" class="st1"/><circle cx="16" cy="12.6" r=".1" class="st1"/><circle cx="15.6" cy="12.6" r=".1" class="st1"/><circle cx="15.2" cy="12.4" r=".1" class="st1"/><circle cx="14.8" cy="12.1" r=".1" class="st1"/><circle cx="14.6" cy="11.7" r=".1" class="st1"/><circle cx="14.5" cy="11.3" r=".1" class="st1"/><circle cx="14.4" cy="10.8" r=".1" class="st1"/><circle cx="14.6" cy="10.3" r=".1" class="st1"/><circle cx="14.8" cy="9.9" r=".1" class="st1"/><g class="st4"><path d="M15 9.7c.1.1.1.1.1.2s.1.1.1.2l-.1-.1v.1L15 10s0-.1-.1-.1c.1-.1.1-.1.1-.2-.1.1-.1 0 0 0-.1 0 0 0 0 0m.6.7s0 .1.1.1l-.1-.1m.3 0c.1 0 .1 0 0 0 .1 0 .1.1 0 0 0 .1 0 .1 0 0m-1.3 1.1s.1 0 .2-.1.2-.1.3-.1c0 0 .1-.1.2-.1h.1s.1-.1.2-.1.1.1.2.1h.1l.1-.1.3.1c.1 0 .5.2.5.2h.1l.1.1s-.1 0-.3-.1c-.2-.1-.4-.2-.5-.2h-.1v.1s.1.3.2.3l.1.2s0 .1-.1-.1-.1-.3-.2-.4v.2c0 .1.1.1.1.1v.1l-.1-.1v.1l-.1-.2-.1-.1s0 .2-.1.2v.3s0 .1 0 0v-.3s0-.1 0 0v-.3l-.1.1c-.1.1-.2.3-.2.3l-.1.1v-.1l.1-.2.1-.1h-.1v-.3h-.2c-.1 0-.2.1-.2.1l-.2.1c-.2.2-.2.2-.3.2 0 .1 0 0 0 0zm-.1-.9c.1 0 .1 0 .2.1.1 0 .1 0 .2.1h.4-.2c-.1 0-.1-.1-.2-.1h-.2c-.1-.1-.1-.1-.2-.1 0 0 .1 0 0 0" class="st5"/></g><path d="M15 9.7s.1.2.1.3c0 0 0 .1.1.1l.2.2.1.1-.5-.7zm.8-.3zm.3 1c.1-.2.1-.3.2-.3l.2-.2v-.2l-.1.2-.3.5zm-1.5.1l.2.1c.2.1.3.1.3.1h.1l-.3-.1-.3-.1zm1.7.2s.2 0 .3-.1c.1 0 .3-.1.3-.1l.1-.1-.2.1-.5.2zm0 .4s.2.1.3.1c.1.1.3.1.3.1h.1l-.4-.2h-.3zm.2 1.1s-.1-.2-.2-.3c0 0-.1-.1-.1-.2s-.1-.2-.1-.2l-.1-.1.3.5.2.3zm-.7-.6zm-.6.4c.1-.1.1-.2.1-.2l.1-.1v-.2l-.2.4c.1-.1-.1.2 0 .1zm-.6-.6s.2-.1.3-.1c.1 0 .2-.1.2-.1l.1-.1h.1l-.3.1-.3.1-.1.1z" class="st6"/><path d="M8.9 6.4s1.4-.5 3-.4c1.6.1 2.5.1 2.9.2.4.1.9.2.9.2l-.2.3s-.9-.2-1.3-.3c-.4-.1-2.2-.2-2.4-.2h-1.2c-.2 0-1.1.2-1.1.2-.1 0-.3.1-.3.1l-.3-.1zM3.5 9.2c-.8 0-1.5.8-1.5 1.7 0 .9.6 1.7 1.4 1.7.8 0 1.4-.7 1.4-1.7.1-.9-.5-1.7-1.3-1.7zm0 3.1c-.7 0-1.2-.6-1.2-1.4 0-.8.5-1.4 1.2-1.4s1.2.6 1.2 1.4c0 .8-.6 1.4-1.2 1.4z" class="st0"/><path d="M3.5 9.2c-.8 0-1.5.7-1.5 1.7s.6 1.7 1.4 1.7c.8 0 1.4-.8 1.4-1.7.1-1-.5-1.7-1.3-1.7zm0 3.1c-.7 0-1.2-.7-1.2-1.5s.6-1.5 1.2-1.5c.7 0 1.2.7 1.2 1.5 0 .9-.6 1.5-1.2 1.5z" class="st0"/><path d="M2.8 9.6s0 .1.1.2.2.2.2.3c.1.2.1.2.2.1 0-.1.1-.8.1-.8v.4c0 .2 0 .6-.1.6s-.3-.4-.4-.5c-.1-.1-.1-.2-.1-.3zm.8-.2v1c.1.1.4-.3.4-.4 0-.1.2-.3.2-.3h-.1s0 .1-.1.2c0 .1-.2.3-.2.3l-.2.2h-.1v-.5c.1-.2.1-.5.1-.5zm.3 1v.1h.3c.2 0 .2-.1.2-.1h.1v-.1.1s-.1 0-.1.1c-.1 0-.7.2-.7.1l.2-.2zm.1.5s.3.2.4.2c.1.1.2.1.2.1h.1v.1c-.1 0-.7-.3-.7-.4h-.1.1zm-.2.3s.1 0 0 0c.1.2.2.4.2.5 0 .1.1.2.1.2h.2l-.1.1s-.3-.5-.4-.7v-.1zm-1.4-1v.1s.2.1.3.1h.4l.1.1s.1.1-.4 0c-.2-.1-.5-.2-.5-.2l.1-.1z" class="st0"/><path d="M2.9 10.1l.2.4.1.1s0-.1-.1-.2c-.1-.2-.2-.3-.2-.3zm-.6 1.1c.1.1.3 0 .4-.1l.2-.2h.2s.1 0-.1.1c-.1.1-.2.2-.4.3-.2.1-.3.1-.3.1v-.2zm.3.7s.1.1 0 0c.2 0 .4-.4.4-.5 0-.1.1-.1.1-.1l.1-.1v.2c-.1.1-.2.4-.2.5-.1.1-.2.3-.2.3-.1-.1-.1-.2-.2-.3.1.1 0 .1 0 0zm.7.4s.1 0 0 0c.1-.1.1-.6.1-.7v-.3l.1.2v.7c-.1.1-.3.1-.2.1-.1 0 0 0 0 0zm.3-.5v.4h-.1v-.4z" class="st0"/><path d="M4.2 9.4s.1.1 0 0c0 .2-.1.5-.2.6-.1.1-.4.4-.4.5V9.4l.1-.1h-.3.1v1.1c0 .1 0 .1-.1.1 0 0-.2-.1-.2-.2s-.2-.4-.3-.4c0-.1-.1-.2-.1-.2v-.2s.1-.1 0-.1l-.2.2c.1 0 .1.1.2.2 0 .1 0 .2.1.2.1.1.1.3.2.4 0 .1.1.2.1.2h-.1c-.1 0-.3-.1-.5-.1-.1-.1-.3-.1-.3-.1l-.1-.1v-.1s0 .1-.1.2v.2l.1-.1h.2c.1 0 .2.1.4.1.1.2.2.2.2.2h.1l-.2.2c-.1.1-.5.3-.6.3h-.2l.1.2.1-.1.4-.2c.2-.1.4-.1.4-.1h.1s0-.1 0 0-.1.4-.2.5c0 .1-.2.3-.2.4l.1.1s.1-.1.1-.2c.1-.1.1-.2.2-.2.1-.1.1-.2.1-.2l.1-.1s0-.1.1 0v1.1l-.1.1h.3v-1c0-.1 0-.3.1-.3s.2.1.2.3c-.1.2.1.4.1.4s0 .1.1.1v.3l.1-.1.1-.1s.1-.1 0-.1h-.1s-.1 0-.2-.2c-.1-.1-.3-.5-.3-.6 0-.1-.1-.1-.1-.2V11h.2c.1 0 .3.1.4.2.1 0 .1 0 .1.1l.1.1.1.1v.1l.1-.3v-.2.1h-.3c.1 0-.3-.2-.4-.2-.1 0-.1-.1-.1-.1l.2-.1c.1-.1.1-.1.3-.1.2 0 .2-.1.3-.1h.2v-.3.1l-.1.1s-.1.1-.2.1-.2.1-.3.1H4v-.1l.1-.1s.1-.2.2-.3c0-.1.1-.2.1-.2l.1-.1s0-.1.1-.1h.1l-.1-.1c-.3-.2-.3-.2-.4-.3.1 0 0 0 0 0z" class="st0"/><circle cx="3.3" cy="10.6" r=".1" class="st0"/><circle cx="3.7" cy="10.6" r=".1" class="st0"/><circle cx="3.2" cy="11" r=".1" class="st0"/><circle cx="3.5" cy="11.3" r=".1" class="st0"/><path d="M3.9 11c0 .1 0 .1-.1.1 0 0-.1 0-.1-.1s0-.1.1-.1c0 0 .1 0 .1.1z" class="st0"/><circle cx="3.5" cy="10.9" r=".2" class="st0"/><circle cx="3.3" cy="10.6" r=".1" class="st0"/><circle cx="3.2" cy="11" r=".1" class="st0"/><circle cx="3.8" cy="11" r=".1" class="st0"/><circle cx="3.5" cy="11.2" r=".1" class="st0"/><path d="M3.9 10.5s-.1.1 0 0c-.1 0 0-.1 0-.1v.1m.6 1.5c0-.1 0-.1-.1-.1h-.1v.2s.1 0 .2-.1c-.1.1-.1.1 0 0 0 .1 0 .1 0 0m-.5.2s0-.1 0 0h.1v.1c0-.1 0-.1-.1-.1m-1.1 0l-.1.1v-.1h.1" class="st0"/><path d="M2.5 12.1V12l.1-.1h.1s-.1 0-.1.1c-.1 0-.1 0-.1.1 0-.1 0 0 0 0" class="st1"/><path d="M2.6 12.1V12c.1 0 .1 0 0 .1 0 0 0 .1 0 0" class="st1"/><path d="M3.2 9.2s0 .1 0 0c-.1.1-.1.1 0 .1h.2v-.1c-.1 0-.1.1-.2 0 .1.2.1.2 0 0 0 .1 0 .1 0 0 0 .1 0 .1 0 0m.5 0c-.1.1-.1.1 0 0v.2h.1v-.1l-.1-.1c.1.1.1.1 0 0 .1.1.1.1 0 0l.1.1c-.1.1-.1 0-.1-.1 0 .1 0 .1 0 0 0 .1 0 .1 0 0 0 .1 0 0 0 0m.4.2c-.1 0-.1 0 0 0-.1.1-.1.1-.1.2h.1c.1 0 .1-.1 0-.2.1.1.1.1 0 .1v-.1m.4.3c-.1 0-.1 0 0 0-.1 0-.1.1-.1.1l.1.1s.1 0 .1-.1c-.2 0-.2-.1-.1-.1m.2.4c-.1 0-.1 0-.1.1 0 0 0 .1.1.1h.1c-.1-.1-.1-.1-.1-.2 0 .1 0 .1 0 0m.1.5s-.1 0-.1.1v.1h.1v-.2m-.1.6l.1.1v-.2h-.1v.1c0-.1 0-.1 0 0 0-.1 0 0 0 0m0 .5c0-.1 0-.1 0 0 0-.1 0-.1-.1-.1h-.2v.1c.2 0 .3.1.3 0h-.1s0-.1.1 0c-.1-.1 0-.1 0 0 0-.1 0-.1 0 0m-.2.4z" class="st0"/><path d="M4.5 12s0-.1 0 0l-.1-.1h-.1v.2h.1s.1 0 .1-.1c0 .1 0 0 0 0zm0 .1c-.1 0-.1 0 0 0-.1 0-.1 0-.1-.1v-.2h.1c-.1.1 0 .2 0 .3zm0 0c-.1 0-.1 0 0 0-.1 0-.1 0-.1-.1v-.2h.1c-.1.1 0 .2 0 .3z" class="st2"/><path d="M4.5 12s0-.1 0 0l-.1-.1h-.1v.2h.1s.1 0 .1-.1c0 .1 0 0 0 0zm0 .1c-.1 0-.1 0 0 0-.1 0-.1 0-.1-.1v-.2h.1c-.1.1 0 .2 0 .3zm0 0c-.1 0-.1 0 0 0-.1 0-.1 0-.1-.1v-.2h.1c-.1.1 0 .2 0 .3z" class="st3"/><path d="M4.1 12.4s0-.1 0 0v-.1l-.1-.1v.2h.1c-.1 0-.1 0 0 0-.1 0-.1-.1 0 0-.1-.1-.1-.1 0 0 0-.1 0-.1 0 0 0-.1 0-.1 0 0m-.5-.1s.1 0 0 0h.1v.2h-.1v-.2c0 .1 0 .1 0 0 0 .1 0 0 0 0m-.4.2v-.2s0-.1.1-.1h.1v.2c-.1.1-.1.2-.2.1.1.1.1.1 0 0 0 .1 0 0 0 0m-.4-.1v-.2s.1 0 .1.1v.2c0-.1-.1-.1-.1-.1m-.3-.3V12h.1v.1h-.1m-.2-.5s0-.1 0 0h.1l-.1.2c0-.1.1-.1 0-.2-.1 0 0 0 0 0m-.2-.4c0-.1.1-.1.2-.1 0 0-.1.2-.2.1.1 0 .1 0 0 0 .1-.1 0-.1 0 0 0-.1 0 0 0 0m0-.6h.1v.1h-.1c.1 0 .1 0 0-.1.1.1.1.1 0 0 .1 0 0 0 0 0m.1-.5s.1 0 0 0c.1 0 .1-.1.1 0v.2h-.1c.1 0 .1 0 0-.2.1.1.1.1 0 0 .1.1.1 0 0 0 .1 0 0 0 0 0m.3-.4s.1 0 0 0c.1 0 .1.1.1.1l-.1.1v-.2.1h.1l-.1-.1c.1 0 0 0 0 0m.4-.3s.1 0 0 0c.1.1.1.1 0 .2h-.1c0-.1 0-.2.1-.2-.1 0-.1 0 0 0v.1H3l-.1-.1m1.6 2.7c-.1 0-.1 0 0 0-.1 0-.1 0-.1-.1v-.2h.1c-.1.1 0 .2 0 .3z" class="st0"/><circle cx="2.9" cy="9.5" r=".1" class="st1"/><circle cx="3.3" cy="9.3" r=".1" class="st1"/><circle cx="3.7" cy="9.3" r=".1" class="st1"/><circle cx="4.1" cy="9.5" r=".1" class="st1"/><circle cx="4.5" cy="9.8" r=".1" class="st1"/><circle cx="4.7" cy="10.2" r=".1" class="st1"/><circle cx="4.8" cy="10.7" r=".1" class="st1"/><circle cx="4.8" cy="11.2" r=".1" class="st1"/><circle cx="4.7" cy="11.6" r=".1" class="st1"/><circle cx="4.4" cy="12.1" r=".1" class="st1"/><circle cx="4.1" cy="12.3" r=".1" class="st1"/><circle cx="3.7" cy="12.5" r=".1" class="st1"/><circle cx="3.3" cy="12.5" r=".1" class="st1"/><circle cx="2.9" cy="12.4" r=".1" class="st1"/><circle cx="2.5" cy="12.1" r=".1" class="st1"/><circle cx="2.3" cy="11.7" r=".1" class="st1"/><circle cx="2.1" cy="11.2" r=".1" class="st1"/><circle cx="2.1" cy="10.7" r=".1" class="st1"/><circle cx="2.3" cy="10.2" r=".1" class="st1"/><circle cx="2.5" cy="9.8" r=".1" class="st1"/><g class="st4"><path d="M2.7 9.6c.1.1.1.1.1.2l.2.2-.1-.1v.1l-.1-.1s0-.1-.1-.1v-.2c-.1.1-.1.1 0 0-.1 0 0 0 0 0m.6.7s0 .1.1.1l-.1-.1m.3 0c.1 0 .1 0 0 0 .1.1 0 .1 0 0 0 .1 0 .1 0 0m-1.3 1.1s.1 0 .2-.1.2-.1.3-.1c0 0 .1-.1.2-.1h.1s.1-.1.2-.1.1.1.2.1h.1l.1-.1.3.1c.1 0 .5.2.5.2h.1l.1.1s-.1 0-.3-.1c-.1 0-.4-.1-.4-.1h-.1v.1s.1.3.2.3l.1.2s0 .1-.1-.1-.1-.3-.2-.4v.2c0 .1.1.1.1.1v.1l-.1-.1v.1s-.2-.3-.2-.4l-.1-.1s0 .2-.1.2v.3s0 .1 0 0v-.3s0-.1 0 0v-.3l-.1.1c-.1.1-.2.3-.2.3l-.1.1v-.1l.1-.2.1-.1h-.1v-.3H3c-.1 0-.2.1-.2.1l-.2.1c-.2.3-.3.4-.3.3 0 .1 0 0 0 0zm-.1-.9c.1 0 .1 0 .2.1.1 0 .1 0 .2.1H3h-.2c-.1 0-.1-.1-.2-.1h-.2c-.1 0-.1-.1-.2-.1 0 0 .1 0 0 0" class="st5"/></g><path d="M2.7 9.6s.1.2.1.3c0 0 0 .1.1.1l.2.2.1.1-.5-.7zm.8-.2zm.3.9c.1-.1.2-.2.2-.3l.2-.2v-.2l-.1.2-.3.5zm-1.5.1l.2.1c.2.1.3.1.3.1h.1l-.3-.1-.3-.1zm1.7.3s.2 0 .3-.1c.1 0 .3-.1.3-.1l.1-.1-.2.1-.5.2zm0 .4s.2.1.3.1c.1.1.3.1.3.1h.2l-.4-.2H4zm.2 1s-.1-.2-.2-.3c0 0-.1-.1-.1-.2s-.1-.2-.1-.2l-.1-.1.3.5.2.3zm-.7-.5zm-.6.3c0-.1.1-.2.1-.2l.1-.1v-.2l-.2.4c0-.1-.1.2 0 .1zm-.6-.5s.2-.1.3-.1c.1 0 .2-.1.2-.1l.1-.1.1-.1-.3.1-.3.1-.1.2z" class="st6"/></g></switch></svg>
