<svg xmlns="http://www.w3.org/2000/svg" version="1.0" viewBox="-1.3 354.3 217 129.3"><switch><g><path fill="#FFF" d="M83.2 465c0 5.6-4.4 10.2-10 10.2H10c-5.5 0-10-4.6-10-10.2v-98.8c0-5.6 4.4-10.2 10-10.2h63.3c5.5 0 10 4.6 10 10.2l-.1 98.8z"/><path fill="#FBF8D0" stroke="#CA9665" stroke-miterlimit="10" d="M44.9 367.2s-.7-1.8-.4-2.6-.8-.5-1.4.5c-.7 1.1-.4 2.3-.4 2.3s.7.6 2.2-.2z"/><path fill="#F6C46B" stroke="#CA9665" stroke-miterlimit="10" d="M19.4 475.2s-6.8-61.9 1.7-86.3c25.6 2 45.3 8.6 45.3 8.6s-2.8 10.3-3 16.3c-.2 6-1.5 28.9-.9 32.2.7 3.3 4.4 29 4.4 29l-47.5.2z"/><path fill="#F6C46B" stroke="#CA9665" stroke-miterlimit="10" d="M28.9 393s1.6-16.7 5.4-19.8c3.8-3.1 5.7-6.4 8.5-6.3 2.6.2 5.4.9 5.7 2.6.3 1.8 1.2-1.8 4.3-2 3.1-.2 6.6 1.5 7.6 4.8s1.8 9.8 1.8 9.8 3.3-.7 4.3 1.3 2 9.1.9 11.9c-1.2 2.8-2.2 7.3-2.2 7.3M49 370s-1.6 8.1-2.5 15.7"/><path fill="#F6C46B" stroke="#CA9665" stroke-miterlimit="10" d="M19.6 394.7c1-5 2.6-16.4 8.9-17.8 6.6-1.5 7.9 5.3 7.9 10.4 0 2.4-.3 4.7-.5 6.9m26.6-12.3s-3.5 2.9-4.3 4.7"/><path fill="#FACBCA" stroke="#CA9665" stroke-miterlimit="10" d="M62.5 387.5s-2.9-.1-3.7 1.6c-.7 1.7-.9 6.2-.9 7.2s.9 2.9 2.2 3.1c1.3.2 3.1-.7 4-2 .8-1.3 1.8-5.4 1.3-7.2-.4-1.6-2.1-2.7-2.9-2.7zm-7.7-14.1s-2.9-.1-3.7 1.6c-.7 1.7-.9 6.2-.9 7.2s.9 2.9 2.2 3.1 3.1-.7 4-2c.8-1.3 1.8-5.4 1.3-7.2-.4-1.6-2.1-2.7-2.9-2.7zm-12.4-1.7s2.9.7 3.1 2.5c.2 1.8-.7 6.2-.9 7.2-.2 1-1.5 2.7-2.9 2.6-1.3-.1-2.9-1.4-3.4-2.9-.4-1.5-.5-5.6.4-7.3 1.1-1.7 2.9-2.3 3.7-2.1zm-11.6 7.5s2.9.7 3.1 2.5c.2 1.8-.7 6.2-.9 7.2-.2 1-1.5 2.7-2.9 2.6-1.3-.1-2.9-1.4-3.4-2.9-.4-1.5-.5-5.6.4-7.3 1.1-1.7 3-2.3 3.7-2.1z"/><path fill="#CA9665" d="M28.6 379.8c-1.2 2.5-1.5 5.1-.5 7.7.9 2.5 3.3 2.9 5 .8 0 0-1 3.8-3.7 2.8-2.6-.9-3.1-4.6-2.9-7.3.2-2.7 2.1-4 2.1-4zm11.5-7.5c-1.2 2.5-1.5 5.1-.5 7.7.9 2.5 3.4 3.1 5.1 1 0 0-1.1 3.6-3.8 2.6-2.6-.9-3.1-4.6-2.9-7.3.2-2.7 2.1-4 2.1-4zm13.7 1.3c-2.5 1-3 5.9-2.8 8.1.1 1.7 1.3 2.6 3 2.3 1.5-.2 2.3-1.3 3.1-2.4 0 0-.5 3.3-2.8 3.7-2.3.3-3.4-.3-4-2.9-.5-2.6.9-7.8 1.5-8.1.8-.5 2-.7 2-.7zm7.8 14c-2.5 1-3 5.9-2.8 8.1.1 1.7 1.3 2.6 3 2.3 1.5-.2 2.3-1.3 3.1-2.4 0 0-.5 3.3-2.8 3.7-2.3.3-3.4-.3-4-2.9-.5-2.6.9-7.8 1.5-8.1.8-.4 2-.7 2-.7z" opacity=".25"/><path fill="#FACBCA" stroke="#CA9665" stroke-miterlimit="10" d="M35.8 399.8s-2.8-2.2-4.6-1.1c-1.6 1.1-5.7 6.2-5.7 11.6 0 5.4 5.4 5 6.4 4.2 1-.8 2.4-2.6 2.4-2.6s3.8 4.7 6.4 4.4c2.6-.2 4.6-1.2 4.6-1.2l1.2-1.3s1.7 3 3.8 3.1c2 .1 4-.4 4.8-2.6s.8-9.3-.5-10.3-4.2-1.4-4.7-1.2c-.4.2-1.1.7-1.1.7s.4-6.6-2.9-7.6c-3.4-1-5.6-.2-6.3.2-.8.3-3.8 3.7-3.8 3.7z"/><path fill="#CA9665" d="M27.2 404.3c-1.1 2.2.3 5.2 2.4 5.9 2.7.9 4.1-.7 6-2.3.2 3.8 2.5 5.9 6.3 6 4.2.1 4.1-3.9 5.4-6.9.1 1.3.5 2.8.8 4.1.2 1.5 1 2.8 2.5 2.9 2.6.3 4.8-3.3 4.7-5.6 0 0 1.2 7.4-2.4 8.3-3.7 1-5.9-2.8-5.9-2.8s-4.3 3.1-7 2.1-5.5-4.2-5.5-4.2-2.7 4.7-6 2.8c-.1.1-5.2-2.2-1.3-10.3zm5.2-5.7c-1 .3 1.6 1.5 1.8 2.4.7 0 1.4-.4 1.6-1.1.2 0-1.9-1.7-3.4-1.3zm16 3.5c-.3.9-1.6 2.9.3 2.5.7-.2 2-1.3 2.3-1.8-.9-.2-1.8-.2-2.4.7l-.2-1.4z" opacity=".25"/><path fill="#FBF8D0" stroke="#CA9665" stroke-miterlimit="10" d="M63.3 382.6s.7-1.8.4-2.6c-.2-.8.8-.5 1.4.5s.4 2.3.4 2.3-.7.6-2.2-.2zm-9.4-14.8s.7-1.8.4-2.6c-.1-.7.9-.5 1.5.5.7 1.1.4 2.3.4 2.3s-.8.7-2.3-.2zm-9-.6s-.7-1.8-.4-2.6-.8-.5-1.4.5c-.7 1.1-.4 2.3-.4 2.3s.7.6 2.2-.2zm-14.2 10s-.7-1.8-.4-2.6c.2-.8-.8-.5-1.4.5s-.4 2.3-.4 2.3.7.7 2.2-.2z"/><path fill="#F6C46B" stroke="#CA9665" stroke-miterlimit="10" d="M16.8 428.8c-.9-3.9-3.9-12.4.4-15.7 2.6-2.1 4.8 1 6.3 2.8 2.1 2.6 2.7 5.7 3.3 8.8"/><path fill="none" stroke="#CA9665" stroke-miterlimit="10" d="M26.9 397.7c.5-.3 1.1-.9 1.3-1.5m-.5 2.1c.4-.1.8-.3 1.2-.5m24.1-1c-.9.2-1.1 1.2-1.2 2m1.5-1.1c-.8.4-1.3 1.4-1.2 2.3m-10.4-7.9c.4-.2.7-.9.5-1.5m10.3 28.6c1.3.1 2.3-.5 3.3-1.2m-17.9 14.6c.8.5 1.7.3 2.7.3-.1.1-.8.8-1 1.1.7.1 1.3 0 2-.2-.4.9-1.3 1.5-1.6 2.4h2c-.7.5-1.3 1.2-1.7 2 .2 0 .5.1.8.1-.1 1.8-.4 3.7-.7 5.6"/><path fill="#CA9665" d="M17.3 446c.1 0 1.3.3 2 0 0 1.5.3 2.7.4 4.2.5-.1 1.3.2 1.8.1-.7 4.6 2.7 2.6 5.3 2.6-.1 2 1.4 2.8 2.9 2 0 1.1.5 2.5 1 3-1-.7-2.1-1.1-3.3-1.4-.5 3.5-8.2-1.1-10-2.1l-.1-8.4zm46.5 7.2c-1.3.5-2.6.9-3.9.3.4 1.6.7 3.7-1.6 3.7-.2.4.2.4.2.9-.4 0-1.1 0-1.5.1 0 .4-.1 1.1-.1 1.5-3.4.3-3 4.2-7.2 2.4 0 3.7-2 1.7-3.9 2.4-1.8.5-1.8 2.8-4.6 1.5 2.7 2.1 6.8-.5 9.4 1.7.7-.9 1.5-1.3 2.3-2.1.3.3 1 .4 1.3.7.7-2.4 3.4-2.2 4.9-3 .2-.1.2-1.3.7-1.6.5-.4 1.2.1 1.7-.2 1.2-.8 1.3-1.5 2.9-1.3" opacity=".16"/><path fill="none" stroke="#DAA827" stroke-width="3" d="M82.9 464.7c0 5.6-4.4 10.2-9.9 10.2H10.5c-5.4 0-9.9-4.6-9.9-10.2v-98.2c0-5.6 4.4-10.2 9.9-10.2H73c5.4 0 9.9 4.6 9.9 10.2v98.2z"/><path fill="#FFC969" stroke="#C69432" stroke-width=".25" d="M199.6 448.2c3.3-.3 9.4 3.3 11.8 5.3 3.5 2.9 4.7 7.6 4 11.8-1.3 9-15.4 12.7-24.3 14.8-3.9 1-7.7 2-11.6 2.8-1.8.4-4.6 1.2-6.5.3.1-.1.2-.1.3-.3-1 0-2.1 0-2.9-.5.5-2 0-3 1.8-4.3 1.5-1 3-1.1 4.7-1.7 2-.8 3.3-.9 5.3-1.2 1.7-.3 4.2-.8 5.9-1.3 3.4-1 6.2-1.5 9.4-2.5 2.8-.9 7-2.4 8.7-5.1 1.5-2.4 1.2-4.3-.4-6.7-2.1-3-7.8-3.7-11.3-3.7"/><path fill="#C69432" d="M186.3 474.3c-.8 1.4 1.3 3.8 2.9 3.7 0 1-.1 2 .4 2.7-.4.2-.5.2-1 0-.5-1.6 0-1.7-1.4-2.9-.9-.8-1.6-1.7-2-2.9m4.7-1.5c.2.5.7 1.1.7 1.7 1.6.4 1.5 1 1.7 2.4.2 1.1.7 2.4 2.1 1.6-2.1-.1-1.6-3.3-1.5-4.6.5 1.1 1.7 2.1 2.6 2.9.1-2.4-3-2.9-3.3-4.6m9.9-3.3c.5.2 1.2.4 1.5 1.2 1.5-.1 2.1.4 2.5 1.7.2.7.8 3.1-.5 2.7.3-1.8-.2-4.4-2.6-4-.2-.7-.8-1.1-1.3-1.4m4.4-3.1c1.5-1.2 2.2-1.4 3.8-.2-.5-.2-1.2-.5-1.8-.2-.1.9 2.4 1.6 3 2.6 1 1.5.2 3.9-1.4 4.4 1-2.1-2.1-5.9-3.8-6.2m1.4-5.2c.5-1.5 1.8-.1 2.6.1.1-.7 0-.9-.7-.9.3-.9 2.8-.5 3.7-.3 1.5.3 2.1 1.6 2.4 2.8-.1-2.3-.7-3.1-2.8-3.7-1.8-.4-3.3.5-5.1.5-2.3-3.6 4.8-5.3 6.6-3 .9-1.8-2.9-2.4-4-2.1-2.1.5-3.8 1.8-4.4 3.8.7.3 1.1 1 1 1.6"/><path fill="#FFC969" stroke="#C69432" stroke-width=".25" d="M156.8 451.6c-1.7 1.2-2.8 1.6-4.9 2.1-1.2.2-4 1.3-3.4 4-1.1 4.4 4 3.9 6.9 3.1 3.4-1 7.4-2.5 10.4-4.6"/><path fill="#F9F7CD" d="M156.7 451.7c-1.6 1.1-2.8 1.5-4.8 2.1-1.2.2-3.9 1.3-3.3 3.9-1 4.3 3.9 3.8 6.7 3 3.3-1 7.2-2.5 10.1-4.4" opacity=".54"/><path fill="#FFC969" stroke="#C69432" stroke-width=".25" d="M155.2 400c-.5-.2-7-7.4-5.9-9-1.3-.3-.8-1.2.2-1.7-.4 0-.9-.1-1.2 0 .4-1 1-1.7 1.6-2.6-.3.2-.8.3-1 .4.4-1.5 1-3 1.6-4.4l.2-1.5s-1.5-6.5-1.5-10.9v-4.6s6.5 3.3 8.5 4.8 3 2.4 3 2.4l12.7.7s1.1-.9 3-2.4c2-1.5 8.5-4.8 8.5-4.8v4.6c0 4.6-1.5 10.9-1.5 10.9l.7 1.8c.4 1.2.9 2.4 1.2 3.6-.2-.1-.7-.2-1-.4.7.9 1.2 1.6 1.6 2.6-.3 0-.8.1-1.2 0 1 .5 1.4 1.5.2 1.7 1.2 1.6-4.1 7.8-5.9 9l1.8 1.8c0 1.7 3.7 6.3 4.9 8.1 1.8 2.9 4 5.4 6.1 8.2 2.4 3.3 3.1 5 5.1 8.6 3.3 6.2 4.4 10.7 5.7 14.3 1.7 5 .9 16.5-4.9 18.9-3.5 1.5-1-1.7-4.6-.8-2.1.5-3.9 1.3-6.1 1.3-2.5 0-4.6-1.1-6.9-1.5-4.4-.9-9.5-1.7-14.1-1.7-4.9 0-6.4 1-8.2-3.4-2.3-5.5-4.4-12.9-4-20.3.5-8.2-.3-19-.3-27.4l.3-1.5-1.5 1.3c.3 0 1.8-5.4 2.9-6.1z"/><path fill="#F9F7CD" d="M166.8 401.1c-1-.5-2-.5-2.8-1.2-1-.7-1.6-1.7-2.6-2.3-1.5-1-3.8-1.4-5.4-2 .4-.2.8-.5 1.1-.9-.7-.5-1.2-.9-1.6-1.7-.4-.7-.5-1.4-1-2.1 1.4-.1 4.7 1 5.2-.5-.3 0-1.1-.7-1.4-.8 1-.4 3.5.2 4.1-.8 1.4 1 1.6-1.1 3-1.5 0 .7.4 1.3 1.1 1.3.5-.7.9-1.4 1.4-2.1.3 1 .7 1.6 1.6 2 .1 1 2.5-.2 3.5-.2-.8 2.1 3.9 2.4 5.1 2.2-.1.8-.8 1.3-1.3 2 .4.7 1.2.3 1.8.2-1.5 2.1-3 2.8-5.3 4.2-1.2.7-2.3 2.7-3.7 3-1 .3-1.3.9-2.8.9" opacity=".54"/><path fill="#C69432" stroke="#C79531" stroke-width=".25" d="M170.9 386.8c.2-1.8.8-3.7 2.7-3.8 2 0 2.6.8 3.3 2.7-1.8 2.3-4 2.5-6.2 1"/><linearGradient id="a" x1="-449.766" x2="-449.548" y1="223.271" y2="226.877" gradientTransform="rotate(180 -573.488 522.838) scale(2.9373)" gradientUnits="userSpaceOnUse"><stop offset="0" stop-color="#cce194"/><stop offset="1" stop-color="#669766"/></linearGradient><path fill="url(#a)" stroke="#686833" stroke-width=".25" d="M171.5 385.4c0-1.2 1.1-2.3 2.4-2.3s2.4 1 2.4 2.3c0 1.2-1.1 2.2-2.4 2.2s-2.4-1-2.4-2.2z"/><path fill="#221F1F" d="M172.4 385.2c0-.9.7-1.6 1.4-1.6s1.4.8 1.4 1.6c0 .9-.7 1.6-1.4 1.6s-1.4-.6-1.4-1.6z"/><path fill="#FFF" d="M174.3 384c-.7-.1-1.2-.1-1.6.2-.2.1-1.2 1.1-.8 1.4.2.2 2.2-1.2 2.4-1.4"/><path fill="#C69432" stroke="#C79531" stroke-width=".25" d="M162.5 386.7c-.2-2-.8-3.8-2.7-3.9-2.1 0-2.6.8-3.4 2.7 1.8 2.3 4.1 2.6 6.3 1"/><linearGradient id="b" x1="13.423" x2="13.645" y1="223.286" y2="226.959" gradientTransform="matrix(2.9373 0 0 -2.9373 119.733 1045.677)" gradientUnits="userSpaceOnUse"><stop offset="0" stop-color="#cce194"/><stop offset="1" stop-color="#669766"/></linearGradient><path fill="url(#b)" stroke="#686833" stroke-width=".25" d="M161.9 385.3c0-1.3-1.1-2.3-2.5-2.3s-2.5 1-2.5 2.3c0 1.2 1.1 2.3 2.5 2.3 1.3-.1 2.5-1.1 2.5-2.3z"/><path fill="#221F1F" d="M160.8 385.1c0-1-.7-1.6-1.4-1.6-.8 0-1.4.8-1.4 1.6s.7 1.6 1.4 1.6 1.4-.6 1.4-1.6z"/><path fill="#FFF" d="M160 383.8c-.7-.1-1.2-.1-1.7.2-.2.1-1.2 1.2-.8 1.4.2.1 2.3-1.2 2.5-1.5"/><g stroke="#C69432" stroke-width=".25"><g fill="none"><path d="M166.6 392.5l-.1 3.8s-2.3.5-4.7-.1"/><path d="M166.5 392.5v3.8s2.7.7 4.9 0"/></g><path fill="#FACBCA" d="M166.2 394.2s-.8-.9-1.2-1.1c-.4-.1-2.1-1 .1-1.2s4.1.1 3.7.5c-.5.4-.8.5-1 .8-.3.3-.9 1.1-.9 1.1l-.7-.1z"/><path fill="none" d="M166.2 391.8c-.3.4-.1 1.8.2 2.4"/></g><linearGradient id="c" x1="11.949" x2="11.459" y1="232.017" y2="225.084" gradientTransform="matrix(2.9373 0 0 -2.9373 119.733 1045.677)" gradientUnits="userSpaceOnUse"><stop offset="0" stop-color="#facbca"/><stop offset="1" stop-color="#ca9696"/></linearGradient><path fill="url(#c)" stroke="#CA9696" stroke-width=".25" d="M152.8 379.7c.3-.4.8-.9 1.2-1.2-.4-.1-.9-.1-1.2.2.4-.2.9-.7 1.4-.8-.3-.2-.8-.3-1.1-.1.4-.1 1-.1 1.2-.4-.4 0-.9 0-1.2-.2.8-.7 1.7-1.2 2.6-1.5.9-.3 2.1-.5 2.7-1.3-1.1-1.3-2.4-2.7-3.6-3.9-1.2-1.1-2.7-2.8-4.4-2.8-.5 1.8-.4 3.9 0 5.9.3 1.8.5 4.3 1.7 6l.7.1z"/><linearGradient id="d" x1="20.756" x2="20.266" y1="231.394" y2="224.456" gradientTransform="matrix(2.9373 0 0 -2.9373 119.733 1045.677)" gradientUnits="userSpaceOnUse"><stop offset="0" stop-color="#facbca"/><stop offset="1" stop-color="#ca9696"/></linearGradient><path fill="url(#d)" stroke="#CA9696" stroke-width=".25" d="M182.3 379.9c1.1-1.6 1.3-4 1.7-5.9.4-2 .4-4 0-5.9-1.7 0-3.4 1.7-4.4 2.8-1.2 1.2-2.5 2.5-3.6 3.9.7.8 1.8 1 2.7 1.3.9.3 1.8 1 2.6 1.5-.3.2-.8.2-1.2.2.3.2.9.2 1.2.4-.3-.2-.8-.1-1.1.1.5.1 1 .5 1.4.8-.3-.2-.8-.3-1.2-.2.3.4.8.9 1.2 1.3l.7-.3z"/><path fill="none" stroke="#C69432" stroke-width=".25" d="M163.4 396.5s0 .9 1 1.5 3.9 1.4 5.6-1.1"/><path fill="#FFC969" stroke="#C69432" stroke-width=".25" d="M202.9 443.2c-2-4-3.3-9.6-7.6-11.9-2.9-1.5-7.7-.7-9.3 2.2-1.6 2.8-2.5 7.5-2.9 10.7-.5 3.9.2 7.8 1.8 11.4 1.1 2.5 2.5 4.6 4.4 6.6 1.8 2.1 4.3 2.1 7 1.6 5.3-.9 5.4-6.3 6.5-11.1"/><path fill="none" stroke="#C69432" stroke-width=".25" d="M154.9 413c-.1 1.3-.7 2.4-1.2 3.6.3-.2.9-.4 1.2-.8-.4 1-.7 2.2-.7 3.3.3-.7.8-1.1 1.3-1.6-.7 2.6.3 5 .7 7.5.1-.9.7-1.5 1.1-2.3 1.1 1.3 1.8 3 3.1 4.3 1.2 1.2 2.8 2.6 2.7 4.4.3-.7.8-1.2 1.1-1.8.2.7.5 1.5.8 2.3.8-1.3 2.4-2.2 3.4-3.3"/><path fill="#FFC969" stroke="#C69432" stroke-width=".25" d="M167.6 428.2c1.8 1.3 1.1 5.7 1.1 7.8 0 3.3 0 6.4-.2 9.6-.1 2.9-.2 6.1-.2 9.1 0 2.7.2 5.4-.7 8-1.5.4-1.8-.7-3.4.7-1.1 1-.8 3.3-.4 4.6.7.1 2.3.5 2.9.2 1 1.8 3.9.4 5.5 0 3.1-1 2.4-2.1 2.9-5.1 1-5 1-6.4 1.7-11.6.1.1.3-3.6.3-3.4 1.5-4.3 2.3-10.1 3-14.7M153.6 405c-.7 8-.7 28.8-.7 36.9 0 4.1.4 8.8.7 12.8.1 1.4.1 3.9-.4 5.3s-2.8 1.3-3.5 3.1c-.2.7.2 2.7.7 3.3.5.5 2.9.1 3.6-.2.9 1.1 3.1.8 4.1.7 1.8-.2 2.5-.4 2.7-2.3.3-3.3-.7-6.9-.7-10.3 0-3.5.4-6.8.4-10.3 0-3.3.4-5.7.7-9.9m27.8 27.1c-1.6-2.6-4.1-1.3-5.1.9-.5 1.2-1.2 6.8 1.6 4.4.3 1.6 3.1 2 3.7.2 1.1 4.2 7.3-2.2 8.7-3.4-2.3-.9-4.9-1-7.2-1.7"/><path fill="#F9F7CD" d="M176.7 452c-.8 5-.7 6.4-1.6 11.3-.5 2.9.2 4-2.9 4.9-1.5.4-4.3 1.7-5.3 0-.7.2-2.3-.2-2.8-.2-.3-1.2-.7-3.5.4-4.4 1.4-1.3 1.8-.2 3.3-.7.9-2.5.7-5.2.7-7.8l.1-3.1.7 1c.7-1.1 2.3-2.9 2.3-2.9l.5 1.7h1.4l1.1 1.4 2.1-1.2zm-16.6 3.1c0 3.1.9 6.6.7 9.6-.1 1.7-.8 1.8-2.6 2.1-.9.1-3.1.3-3.9-.7-.5.3-2.8.8-3.4.2-.5-.4-.8-3-.5-3.7.5-1.7 2.7-1 3.3-2.3s.4-3.6.4-4.9l-.2-4.7.9.9c.9-.9 1.3.3 1.3.3l1 .1 1.5-.9.3-1.4.8 1.1.9-1-.5 5.3zm28.9 6.1c-1.6-2.6-4-1.3-4.9.9-.5 1.2-1.2 6.5 1.6 4.3.3 1.5 3 1.8 3.5.2 1 4.1 7-2.2 8.3-3.3-2.3-.9-4.8-1-6.9-1.6" opacity=".54"/><path fill="none" stroke="#C69432" stroke-width=".25" d="M166.6 468.1c-.1-1.1-.3-4.1 1.8-3.7m-14.7 1.6v-1c0-.5 0-1 .2-1.4.4-.9 1.3-1.3 2.2-1.4m-3.9 4.4c-1.1-1.4-.4-4 1.3-4.3m16.4 6.6c-.7-2.5-.7-4.3 2-4.7m17.2 2.9c.1-1.4-.5-3 1.4-3.7m-4.9 3.1c0-1.4-.7-4.1 1.7-4.1m-36.9-1.4c-.5-.7-1-1.8-.9-2.8.2-1.3.8-1.3 2-1.5"/><path fill="none" stroke="#FFF" stroke-width=".25" d="M162.3 393.2s-4.7-4.2-9.6-3.3"/><path fill="#FFC969" stroke="#C69432" stroke-width=".25" d="M157.3 412.1c-.5.9-.8 1.7-1.6 2.5.2 0 .4.1.7.1-.3.3-.8.5-1.1.9.3.1.7.3.9.5-.4.2-.8.4-1.1.8.9 1 2.4 2.7 2.3 4.2"/><path fill="none" stroke="#FFF" stroke-width=".25" d="M162 393.6s-5.5-2.9-10.2-.8m18.1.4s4.7-4.2 9.6-3.3m-9.3 3.7s5.5-2.9 10.2-.8M160.7 382s-1-2.9-3.1-4.8m1.9 4.4s-.7-1-3.4-2m15.7 2.3s1-2.9 3-4.8m-1.8 4.4s.7-1 3.4-2"/><path fill="#FACBCA" stroke="#C69432" stroke-width=".25" d="M167 393.8c.1-.1.3-1.3.8-.7"/><path fill="none" stroke="#C69432" stroke-width=".25" d="M165.6 393.8c-.1-.4-.3-.9-.8-.9"/><path fill="#C69432" d="M162.5 394.1c0-.1-.1-.1-.1-.1-.1 0-.1.1-.1.1 0 .1.1.1.1.1 0 .1.1 0 .1-.1zm.7.2c0-.1 0-.1-.1-.1s-.1.1-.1.1c0 .1.1.1.1.1.1.1.1 0 .1-.1zm.1.9c0-.1 0-.1-.1-.1s-.1.1-.1.1c0 .1 0 .1.1.1l.1-.1zm-.9-.3c0-.1 0-.1-.1-.1l-.1.1c0 .1 0 .1.1.1 0 .1.1.1.1-.1zm7.4-.7c0-.1 0-.1.1-.1s.1.1.1.1c0 .1-.1.2-.1.2s-.1-.1-.1-.2zm-.7.2c0-.1 0-.1.1-.1s.1 0 .1.1 0 .1-.1.1c-.1.1-.1 0-.1-.1zm-.1.8c0-.1 0-.1.1-.1s.1.1.1.1c0 .1 0 .1-.1.1-.1.1-.1 0-.1-.1zm.7-.3c0-.1 0-.1.1-.1s.1.1.1.1c0 .1 0 .1-.1.1 0 .1-.1.1-.1-.1zm-5.4-12.7c.2-.7.2-1.5.1-2.4-.1-.1-.3 0-.4-.1.1-.3 0-1 .1-1.3-.1 0-.3.1-.4-.1.2-2.9-.9-5.7-2.9-5.9 1.1 1.8 1.4 2.2 1.8 4.6.3 1.7 1.4 3 1.5 5m5.1.9c-.2-.7-.2-1.5-.1-2.4.1-.1.3 0 .4-.1-.1-.4 0-1-.1-1.4.1 0 .4 0 .4-.1-.2-2.9.9-5.9 3.1-5.9-1.2 1.8-1.5 2.2-2.1 4.6-.4 1.7-1.5 2.9-1.6 4.9m-5.4-9.4c1 1.5.7 4.1 1.6 5.4.7-1.8-.8-3.9 0-5.6-.1.1-.2.1-.4.1m5.1.3c-.9 1.4-1.2 4-2.2 5 .3-1.7.5-3.5 1-5.3m-15.5 33.8c.4 1.5 2.2 1.6 2.8 2.8-.7 0-2.3-.8-2.6-1.2m-.6 27.4c.8 1 1.3 1.7 2.6 1.8.3 1.1 1.5-.1 2.2.2 1.1.5-.7.7-1 .7-.7 0-1.4 0-2.1-.3-.7-.3-1-1-1.8-.5.2.7-.1 1.5.4 2 .2.2 1.5.4 1.8.4-.5.4-1.5.2-2.2.2m26.8-4.8c-1.2 1.5-3.4 1-5 .8.2 1 3.4.4 4.2.4.3 1.1-1.1 1.1-1.6 1.3.3.3.9.2 1.3.2.5 1.4-.9 2.6-2.2 2.6-1.4 0-2.4-.3-3.7-.5 1.2 1.8 4.3.7 6.2.7m-8-32.7c2.5 2.1 2.5.9 5.1 0-.5.7-1.3.9-1.7 1.5 3.6.3 6.1-2.1 8-4.8.9 2.8-3.9 5.2-6.1 5.4-3.1.3-1.8-.9-4.7-2.5m14.5 36.6c.4 2.8 5.7.9 7.2.8-1.2.8-2.6 1-4.1 1.2-.9.1-1.3-.2-1.8-.4-.8-.3-1.1-1.1-1.4 0-.4 1.2 2.6 2.9.2 2.3-1.1-.3-1.7-1.7-2.3-2.7.3.2.9.8 1.4.9.2-.4.4-1 .8-1.3m1.9 4.1c2 1.4 2.9-.8 4.6-.8v.7c-.5 0-.9.3-1.2.5 1.2.7 4-.2 5-1 1.5-1.1 2.8-2.7 3.6-4.3.5 2.1-2.9 4.7-4.4 5.7-1.2.9-2.1.8-3.4.4-.9-.2-2.8-.1-3.5-1"/><path fill="none" stroke="#DAA827" stroke-width="3" d="M83.2 441.3l70.3 21"/></g></switch></svg>
