<svg xmlns="http://www.w3.org/2000/svg" version="1.0" viewBox="0 0 42 60"><switch><g><path fill="#C7C55D" stroke="#660" stroke-miterlimit="10" stroke-width=".25" d="M23.3 7.1c-2.7 1-4.6 1.9-5.9 2.9-3.5 3.2-4.6 7.1-6.8 10.8-2 3.5-12.2 7.7-10.3 23.8.7 6.2 7.9 13.7 13.6 13.6 21.2 7.7 28.7-12.1 27.5-19.8.1-5.2-2.7-9.4-4.3-14-1.6-2.8-1.4-7.3-2.7-11.2-1.5-4.4-4.6-7.8-7-6.5-.7-1.7-.4-4.1-.5-6.3l-2-.4c-.6.4-.9 1.2-1.1 2.1-.2 1.6-.3 2.5-.5 5z"/><path fill="#B7AF5F" stroke="#630" stroke-miterlimit="10" stroke-width=".25" d="M24.9 0l1.9.6c.2 2-.1 3.6.6 6l.7 2c-2 1.5-3.6 1.3-5 .4.3-2.2.4-4.2.6-6.1.2-1.1.4-2.3 1.2-2.9z"/><path fill="#6F7346" d="M25.4 57c.4-.1-.4.5-.3.6s.7.1.6-.1c-.1-.1-.5-.3-.3-.5.1-.1.3.3.5.4.1.1-.3-.3-.5-.4zm5-.9c-.7.8.3.7 0 0zm6-6.8c-.3-.1-1.4.6-1 1 .1.1.8-.3.3-.6m-5 2.2c-.7.8.5.9 0 0zm3-3.9c-.4.7.1.7 0 0zm-9 4.7c.2 0 .3-.1.5-.1v-.1M18 55.6c-.7 1 1.2.3 0 0zm4 1.1c-.9-.3-1 .8 0 0zm-.2-3.8c-1.3.3.3.6.3.5-.1-.2-.5-.5-.3-.5.2-.1.3.3.5.4.2.1.2-.7 0-.6-.2 0-.3.1-.5.2zm-11.8.3c-1.8 1.1.5 1.2 0 0zm4.5-1.1c-.4.7.7.9 0 0zm4.9-2.1c-1.4.6.9 1.4 0 0zm5.2-1.2c.3 1.1 1.1-.3 0 0zm13.8-5.9c-1.1 1 .2 1.4-.3.5m-9.2 3c1 .7.7-.5 0 0zm-7.1-1.3c-1.1.2-.2.9 0 0zm7.3-3.3c-1.4.8.7 1.4 0 0zm7-5.5c-1.4.4-.8 1.6 0 0zm3.4 3.1c-1.8 1.3 1.1-.3-.5.1M6.1 48.3c-1.6 1.3 1.1-.3-.5.1m6.2-.2c-1.3.4.5.8 0 0zm.4-5.8c-.8 1.2.8 1 .5.3m-8.8.4c-1.5.2 0 1.2 0 0zM17 45.2c-2.6.5.6 1.4 0 0zm5.9-3.8c-1.8-.1-.9 1.2 0 0zM5.4 37.6c-1.1-.2-1 1.3 0 0zm4.3 1.3c.7 0 .5.1.4-.3m-7.8-6.7c-1.9-.4 0 1.1-.6-.1m6.2-5.5c-.8 1 .8 1.1 0 0zm3.1 5c-1.2.4.2 1.1 0 0zm5.7 6.2c.7.2.7 0 0 0zm5.6-5.4c-1.7.6.1 1.6.1.5m5.2 3.2c-1.3.5-.3 1 0 0zm5.4-4.4c-1.1 1 .6 1 0 0zm-16-6.9c-1.5 1 .5.8.4.5-.1-.2-.5-.4-.4-.5.1-.2.3.2.5.2l-.5-.2zm.7-10.2c-.8.4-.6.9 0 0zm6.9-1.9c-2.7.6-.9 1.6-.4.5m6.4-.5c-.9 0-1 .7 0 0zm5.3 15c-.9-.2-.7.2 0 0zm-8.2-.1c-1-.3-1 .2 0 0zm-2-5.7c-1-.8-1.3.7 0 0zm7.1-1.4c-.9-.3-1 .4 0 0zm-12.6-2c-.9.3-.2.8 0 0zm-5.8 1c-2.1 1.9 2.9-.8 0 0zm12.9-2.4c-.1.2-.6.4-.2.6.1.1.5-.1.5-.1 0-.2-.4-.4-.3-.5.1-.1.2.3.4.4.1.1-.2-.3-.4-.4zM16.7 37.3c-.8.6-.3.7 0 0zm0-5.2c-1.3 1 0 1.5 0 0zm3.2-23.3c-.4.6.4.6 0 0zM5.5 53c-.2.6.4.7 0 0z"/><path fill="#7F7F7F" d="M19.6 8.5c3.2 0 4 1.4 5.8 1.3 2.1-.1 2.6-1.9 6-1.6-1-1-2.2-2.1-4.2-1.5-1.3.4-2.7.6-4.2.4-.8 0-1.6 1-3.4 1.4z"/><path fill="#7F7F7F" d="M9.1 22.1c-2.5 4.1-10.4 6.1-8.9 23 2.5 7.5 6.9 12 13.7 13.2 7.1 1.5 13.9 4.7 23-5 9.2-14.9 2.3-21-.1-29.7-6.6-11-15.9-11.3-27.7-1.5z" opacity=".11"/><path fill="#E3E2AE" d="M9.6 21.7C7.1 25.8-.8 27.8.7 44.7c2.5 7.5 6.9 12 13.7 13.2 7.1 1.5 13.9 4.7 23-5 9.2-15 2.3-21.1 0-29.7-6.7-11-15.9-11.3-27.8-1.5z" opacity=".06"/><path fill="#FFF" d="M24 9.5c2.5.6 3.6-.7 4.7-1.1 1.1-.4 2.2-.3 3.2.1 4.2 4.5 0 6.8 4.3 13.1-6.5-9.2-8.2-.5-12.2-12.1z" opacity=".11"/><path fill="#E3E2AE" d="M27.4 6.8l.6 1.9c1.2-.5 2.5-.6 3.8-.1-1-1.2-2.4-2.7-4.4-1.8zM23 9.1c.2-.5.2-1.3.3-2.1-1.6.4-3 1.1-4.5 2 1.5-.5 2.9-.5 4.2.1z" opacity=".06"/><path fill="#FFF" d="M29.1 13.4c-.8-1.1-1.5-2.8-2.9-2.5-1.2.3-1.4 1.9-2.3 2.9-.7.7-1.8.9-2.7 1.4-3.6 1.8-4.1 7-7.6 8.8-1.3.7-2.9.7-4.3.7-.5 0-1 0-1.3-.3-.5-.4-.4-1.2-.1-1.7.3-.5.8-.9 1.3-1.3 4.4-3.6 5.8-9.8 10.3-13.3 1.8-1.4 4.1-2.3 6.4-2.5 1.4-.1 2.9.1 4.1.8 2.7 1.7 2.8 5.5 4.7 8 .1.2.3.4.3.6 0 .5-.6.7-1.1.7-1.8.2-3.7-.7-4.8-2.3z" opacity=".11"/><path d="M8.4 28.6c.3.4.4.9.5 1.4.4 1.9.7 3.9-.1 5.5-.4.8-1 1.5-1.3 2.3-1.3 2.9.6 6 2.4 8.6l3.3 4.8c.4.5.8 1.1 1.4 1.1.6 0 1-.3 1.6-.5 2.4-.8 4.2 2 6.2 3.2 3.1 1.8 7.3 0 8.9-3 1.6-3.1.8-6.8-1.1-9.7-2.1-3.3-5.6-5.8-6.2-9.6 3.2-1.3 6.3-2.6 9.5-4 .6-.3 3.7-4.2 2-.4-.3.8 2.6-.9 3-.2 2.5 4.1 3.9 4.6 2.5 15.1-.2 1.9-.8 5.9-1.7 7.5-2 3.8-4.9 5.2-8.7 7.1-1.7.8-3.5 1.2-5.3 1.4-8.6.9-18.7.2-22.2-9.2C1.6 46 .4 41.9.3 37.7c0-3.8.8-8.2 4.4-9.8 1.3-.5 3-.4 3.7.7z" opacity=".06"/></g></switch></svg>
