<svg xmlns="http://www.w3.org/2000/svg" id="Capa_1" x="0" y="0" version="1.0" xml:space="preserve" viewBox="0 0 220 129"><style>.st3{opacity:.52;fill:#f4f5f5;enable-background:new}.st5{fill:none;stroke:#c68d00;stroke-miterlimit:10}</style><switch><g><linearGradient id="SVGID_1_" x1="128.079" x2="16.27" y1="106.537" y2="-140.829" gradientTransform="matrix(1 0 0 -1 0 129)" gradientUnits="userSpaceOnUse"><stop offset="0" stop-color="#71c8f0"/><stop offset="1" stop-color="#32689a"/></linearGradient><path fill="url(#SVGID_1_)" d="M0 0h218.7v127.8H0V0z"/><linearGradient id="SVGID_2_" x1=".6" x2="150.3" y1="86.221" y2="86.221" gradientTransform="matrix(1 0 0 -1 0 129)" gradientUnits="userSpaceOnUse"><stop offset="0" stop-color="#51b748"/><stop offset="1" stop-color="#a7cf57"/></linearGradient><path fill="url(#SVGID_2_)" stroke="#659941" stroke-width=".25" d="M121.9 84.8c0-2.5-1.7-4.6-3.2-6.6-3.8-5-6.9-10.5-9.2-16.4.5-.3 1-.5 1.5-.8-1 .2-1.8-1-1.7-2 .1-1 .7-1.9 1-2.9 1-3.2-1.4-6.4-3.7-8.9-1.6-1.7-3.2-3.5-5.2-4.7s-4.6-1.6-6.7-.6c-1.5.7-2.9 2.1-4.5 1.7-1.7-.4-2.2-2.4-3.3-3.8-2.3-2.7-6.5-2.3-9.9-3.5-.6-.2-1.2-.5-1.8-.4-.6.1-1.1.5-1.6.9-2.3 1.4-5.7.4-6.8-2.1-1.7 3.9-9.2.7-11.2 4.4-1.3-.6-2.9-.7-4.3-.2-.8.2-1.6 1-1.3 1.7.4.9 1.7.4 2.7.5 1.1.1 1.8 1.2 2.4 2.2 1.4 2.5 2.8 4.9 4.2 7.4-1.6-1.2-3.3-2.4-4.9-3.6-.4-.3-.8-.6-1.3-.5-.7.1-.9.9-1.3 1.4-.5.9-1.5 1.6-2.5 1.4-1-.2-1.6-1.7-.8-2.4-2.7.9-5.9.2-8-1.7-.9-.8-1.6-1.8-2.7-2.4s-2.6-.5-3.2.6c.9.8 1.7 1.6 2.6 2.4-4-.9-7.9-2.2-11.6-4-3.3 1-6.5 2.1-9.8 3.1-.7-.4-1.2-1.1-1.4-1.8-.9-.3-2-.1-2.6.6 1.6 1.7.1 4.5-1.8 5.9-1.6 1.2-3.5 2.1-5.5 2.6-2.2.7-2.5 2.2-3.9 4V0h149.7s-2.5-.3-2.5 1.9v2.2s-2.5-.3-5.9 1.5-2.2 2.8-4 4.6c-1.9 1.9-1.5 2.2-3.1 3.4-1.5 1.2-1.5 1.9-3.4 2.8s.6-1.2-1.9.9c-2.5 2.2.3-.9-2.5 2.2s-4 3.7-4.6 4.6 0 .9-1.2 2.8-.6-1.9-1.2 1.9c-.6 3.7-.9 4.3-.6 7.4.3 3.1-.3 4.9 1.5 7.4 1.9 2.5 1.2 3.1 2.2 4.6.9 1.5 2.5 4.6 3.1 5.9.6 1.2-.9 4.6 1.2 6.8 2.2 2.2 2.5 1.9 2.8 5.3.3 3.4.9 4.3-.3 8s.3 5.6-1.9 7.7-3.1.9-4.3 2.8c-1.2 1.9-1.8.1-1.8.1z"/><linearGradient id="SVGID_3_" x1=".3" x2="71.96" y1="18.282" y2="18.282" gradientTransform="matrix(1 0 0 -1 0 129)" gradientUnits="userSpaceOnUse"><stop offset="0" stop-color="#51b748"/><stop offset="1" stop-color="#a7cf57"/></linearGradient><path fill="url(#SVGID_3_)" stroke="#659941" stroke-width=".25" d="M.3 127.3h63.8c.2-.8-1-1.6-1.6-1 .6-.7-.6-1.9-1.3-1.3 1.3-1.4 1.1-3.8-.4-5 .3-1.2.6-2.4.9-3.7 1.4 2 2 4.4 1.7 6.8 1.2-4.1 2.5-8.1 3.7-12.2-.8.1-1.5-.7-1.5-1.6 0-.8.5-1.6.9-2.3 1.4-2.1 2.7-4.1 4.1-6.2 1.1-1.7 2.1-4.1.6-5.4-.6-.5-1.3-.7-2.1-.8-5.9-.9-11.9-.5-17.6 1.3-1.8.5-3.6 1.3-4.7 2.8-1.2 1.7-1.3 3.9-1.6 5.9-.7 4-2.7 7.8-5.6 10.6-.9.9-1.9 2.2-1.1 3.1-.3.9-1.6 1.1-2.5.7-.9-.3-1.7-1-2.6-1.2-.8-.2-1.7 0-2.5.2-5.3 1.1-10.6 2.2-15.9 3.4-1.4-3.6-5.7-5.7-9.4-4.7-1.7-3-5.6-8.1-5.2-7.7"/><path d="M26.4 61.7c1.1 0 1.7-.9 2.9-.8-.7.2.3.7.9.4.5-.2.7-.6 1.4-.5-.8.5.3.9.8.7.7-.2 1.2-.8 2-.4-.8 0-.2.6.3.6-.4 0-1.1.1-1.1-.4-.3-.1-2.9 1.4-2.7-.1-.6 0-2 1.4-2.2.1-.7 0-1.4.9-2.1.5m14.1 5.3c.8 0 1.2-.6 2.1-.6-.5.2.2.5.7.3.4-.2.5-.4 1-.4-.6.3.2.7.6.5.5-.2.8-.6 1.5-.3-.6 0-.1.5.2.4-.3 0-.8.1-.8-.3-.2-.1-2.1 1-2-.1-.4 0-1.5 1-1.6 0-.5 0-1 .6-1.6.4m29.1-8.8c.7 0 1.1-.5 1.8-.5-.5.1.2.4.6.3.3-.1.4-.4.9-.3-.5.3.2.6.5.4.4-.2.7-.5 1.3-.3-.5 0-.1.4.2.4-.3 0-.7.1-.7-.3-.2-.1-1.9.9-1.7-.1-.4 0-1.3.9-1.4 0-.5 0-.9.5-1.4.3M31.7 88.8c.7 0 1.1-.5 1.8-.5-.5.1.2.4.6.3.3-.1.4-.4.9-.3-.5.3.2.6.5.4.4-.2.7-.5 1.3-.3-.5 0-.1.4.2.4-.3 0-.7.1-.7-.3-.2-.1-1.9.9-1.7-.1-.4 0-1.3.9-1.4 0-.5 0-.9.5-1.5.4m32.1-10.9c.8 0 1.2-.6 2.1-.6-.5.2.2.5.7.3.4-.2.5-.4 1-.4-.6.3.2.7.6.5.5-.2.8-.6 1.5-.3-.6 0-.1.5.2.4-.3 0-.8.1-.8-.3-.2-.1-2.1 1-2-.1-.4 0-1.5 1-1.6 0-.5 0-1 .6-1.7.5m47.4 46.1c.7 0 1.1-.5 1.8-.5-.5.1.2.4.6.3.3-.1.4-.4.9-.3-.5.3.2.6.5.4.4-.2.7-.5 1.3-.3-.5 0-.1.4.2.4-.3 0-.7.1-.7-.3-.2-.1-1.9.9-1.7-.1-.4 0-1.3.9-1.4 0-.5 0-.9.5-1.4.3m19.3-7.8c.8 0 1.2-.6 2.1-.6-.5.2.2.5.7.3.4-.2.5-.4 1-.4-.6.3.2.7.6.5.5-.2.8-.6 1.5-.3-.6 0-.1.4.2.4-.3 0-.8.1-.8-.3-.2-.1-2.1 1-2-.1-.4 0-1.5 1-1.6 0-.5 0-1 .6-1.7.5m-16.5-37.6c.6 0 .9-.5 1.6-.5-.4.1.2.4.5.2.3-.1.4-.3.7-.3-.4.3.1.5.5.4s.6-.5 1.1-.2c-.4 0-.1.3.2.3-.2 0-.6.1-.6-.2-.2-.1-1.6.8-1.5-.1-.3 0-1.1.8-1.2 0-.4 0-.7.5-1.3.4" class="st3"/><path d="M127.5 82.6c1.4-.9 1.8-2.8 1.9-4.5.1-1.7 0-3.4.7-5 0 2.3-.1 4.5-.1 6.8 0 .5 0 .9-.2 1.3-.3.8-1.1 1.3-1.9 1.7-1.4.8-2.9 1.6-4.3 2.4-.3.2-.7.4-1 .4-.8.1-1.6-.6-1.9-1.4s-.3-1.6-.5-2.4c-.6-2.5-2.7-4.4-4.3-6.5-1.7-2-2.9-4.4-4.2-6.7-1.1-2-2.2-4.1-1.9-6.3 1.1 1.6 1.9 3.3 2.5 5.2.5 1.4.8 2.9 1.6 4.2.6 1 1.4 1.8 2.2 2.6 2.4 2.7 4.3 5.8 5.5 9.2.3.8 1 1.9 1.8 1.4.2-.1.3-.4.5-.6.9-.9 2.5-1 3.6-1.8zm-35-39c-1.3.5-2.8 1-4.1.5-1.2-.5-1.9-1.8-2.8-2.8-2.9-3.8-8.4-5.4-12.9-3.7-.7.2-1.3.6-2 .6-1.6.2-3.4-1-3.7-2.7-.4.7-.2 1.6.3 2.1s1.3.8 2.1 1c2.6.5 5.3-.5 8-.4 3.2 0 6.4 1.5 8.5 4 .3.4.6.8 1 1.1 1.6 1.2 3.8.8 5.6.3zm-81.7 6.8c1-.9 2.1-1.9 2.5-3.1.4-1.3 0-3-1.2-3.5.4 1.9-.3 4-1.5 5.5s-3 2.5-4.9 3.1c-.8.2-1.5.4-2.2.8-1.2.6-2 1.9-2.1 3.2h1c0-.9.7-1.7 1.6-2.1.8-.4 1.8-.6 2.6-.9 1.6-.6 2.9-1.8 4.2-3zm27.9 66.7c-.1.5.1 1 0 1.4-.2.8-1.2 1.2-2 1.1s-1.6-.5-2.4-.8c-1.4-.4-2.9-.3-4.3-.1-5.1.7-10.1 1.7-15 3.1.7-.8 1.8-1.1 2.8-1.3 6.7-1.8 13.8-3.5 20.6-1.9-.7-1 .2-2.2 1-3.1l3.9-4.2c-1 1.6-2 3.3-3.5 4.5-.4.3-1 .7-1.1 1.3zm25-23.3c-1.7-.3-3.3-.5-5-.3-1.3.2-2.5.6-3.7 1-1.4.5-2.8 1-4.2 1.4-1.7.6-3.5 1.3-4.4 2.9 8-4.2 17.6-5.3 26.4-2.9-1.1 2.2-2.2 4.5-3.2 6.7 1.1-.9 2-2 2.8-3.2.4-.6.7-1.3.6-2-.2-1.7-2.3-2.4-3.9-2.7l-5.4-.9z" class="st3"/><path fill="none" stroke="#696" stroke-miterlimit="10" stroke-width="2" d="M0 0h219.7v127.8H0V0z"/><circle cx="56.2" cy="102.8" r="21.8" class="st5"/><circle cx="120.2" cy="66.8" r="21.8" class="st5"/></g></switch></svg>
