<svg xmlns="http://www.w3.org/2000/svg" xmlns:xlink="http://www.w3.org/1999/xlink" version="1.0" viewBox="0 0 60.3 61.7"><switch><g><symbol id="b" viewBox="-37.9 -33.8 75.8 76"><path fill="#9F704C" stroke="#442917" d="M37.4 4.2c0-20.7-16.7-37.5-37.4-37.5-20.6 0-37.4 16.8-37.4 37.5S-20.7 41.7 0 41.7c20.6 0 37.4-16.8 37.4-37.5z" opacity=".78"/><path fill="#9F704C" d="M37.5 4.3c0-20.7-16.7-37.5-37.4-37.5-20.6 0-37.4 16.8-37.4 37.5S-20.6 41.8.1 41.8 37.5 25 37.5 4.3z" opacity=".78"/><path fill="#673715" d="M35.1 4.7c0-19.8-15.7-35.8-35-35.8s-35 16-35 35.8c0 19.8 15.7 35.8 35 35.8s35-16 35-35.8z" opacity=".74"/><path fill="#C69763" d="M35.1 5.1c0-19.5-15.1-35.4-33.6-35.4-18.6 0-33.7 15.8-33.7 35.4 0 19.5 15.1 35.4 33.7 35.4 18.5 0 33.6-15.8 33.6-35.4z"/><path fill="#D7A96F" stroke="#925225" stroke-width=".5" d="M8.6 26.1c.1-1 1.1-1.5 1.5-2.3.5-.8.4-1.8.8-2.6.6-1.2 1.1-1.2.8-2.6-.3-1.6-1.2-1.3-.1-3 .5-.7 2-1.6 2.3-2.4.6-1.7-1.4-.9-1.7-2.2-.6-2.3-.8-3.9-2-5 2.6-.9 3.5-4.8.6-6-1.1-.6-1.6.4-3 0-1.5-.4-1.7-2.5-3.1-2.9-.3 1.2-1.6 2-1.8 3.1-.8.4-1.3 1.2-1.6 2.1-.1.2-.2 1.3-.3 1.4-.6.6-1.2.2-1.7.7-.5.4-.7 1.2-1 1.5-.4.3-1.3.6-1.5.9-.5.6-.7 2.1-1.3 2.8-.5-1.5-.7-1.8-2-2.6-.8-.5-1.9-1.2-2.9-1.5-3.3-.8-3.7 2.2-4.4 4.7-.1.5 0 1.1-.2 1.6-.4.7-1.2.4-1.6 1.1-.4.6 0 1.3-.2 1.9-.2.6-.7 1.1-.8 1.6-.6 2.2-.3 5.2.8 7.2 1.4 2.5 2.2 4.8 3.8 7.1 1.1 1.6 4.8 2.8 6.8 3.6 1.1.4 2.3.5 3.5.3.7-.1 1.1-.5 1.7-.6.6-.2 1.3-.1 1.9-.2 1.5-.4 1.9-1.4 3.1-1.9 1-.4 3.1.8 3-1.1 1.5.1 1.5-.8 2-2 .8-2 .3-1.3-1-2.9" opacity=".74"/><g fill="#0B0907" opacity=".2"><path d="M-.6 29c1.2.4 1.4 1.3 2.3 2 .3-.1 1-.3 1.2-.5-.5-.3-1.1-.3-1.6-.6-.8-.5-.6-1.4-1.9-1.1m-4.6-5.9c-1.3 1.3-1.3-1.5-2.3-2 1 .4 2 1.4 2.8 2m-1.1 6.5c.4 1.4.5 1.6-.7 2.3-.7.4-2.7.7-3.4.3 2.5.1 3.7 1.1 6-.8-.1-.6-.5-1-1.2-1.1m8.8.8c-.4.7.2 1.6 1 1.2-.3-.3-.2-.8-.3-1M2.7 28c.6.5 1.4 1 1.5 1.8-.5-.2-1-.5-1.4-.8-.1.3-.3.6-.3 1-.3-.5-.4-1.1-.3-1.6m-11.9-7.9c-2.2 1.2-2.1-2.6-1.7-3.5-1.6 1.1 0 3.3 1.4 3.7m-.3 4.1c-2-.2-1.3-3.1-3.2-3.4-.9 1.4 1.1 3.9 2.7 3.6m5.1-8.9c-2-.1-.7-3.6 1.2-2.5-.7 1.4-.8 2.8-1.4 4.3v-1.6m-4.4-1.5c1.9.3 1.7-1.2 2.4-2.3-1.2 0-1 2.2-2.2 2.7m7.3 13.5c-.8-.7-1.3-.3-2.2-.4-.1 0-.9-.4-.9-.4-.1 0-1 .5-.9.5-1.8 0-2.7-.4-3.4-2.5.6.2 1 .7 1.6 1.1.5-.5 2.3-2.9 2.3-.2.4 0 .7.4.9.4.1.3 0 .5-.2.6 1.2-.7 3 .2 3.8 1.1-1.1.7-3.2-.6-3.9-1.2"/><path d="M-12.5 19.2c-.1 0-.3.1-.4.1-.9 2.4 3.4 1.4 2 3.8.5.3 1.1.4 1.6.5-.2.2-.4.5-.6.7 1.2-.7 2.6-1 2.5 1-.2-.3-.6-1-1-1h-1.8c-.9-.5-1.1-1.9-2-2.7m3.3 7.8c.5 1.2 2.1 1.3 2.5 2.4-1.7.7-3.2-1.6-3.2-3m7.2 1.2c1 1.9 2.3.3 3.5 1.5-.2-1-1.8-1.2-2.7-.8m-2 1.2c.3.6.3 1-.3 1.4 1.4.1 1.4-1.4.4-2.1m9.7-2.9c0 1.9 1.9.2 2.5 0-1-.4-1.6.5-2.7.4M-.4 10.5c-.4.7-2.5 1.5-.8 2.2.3-.8 1-1.7 1.2-2.6m9.5-8.4c-.1.3-.2.4-.5.5-.1-.5.2-.3.5-.5M5 .8v.4c-.9 0-2.1.1-1.4 1.1 0-.2 0-.4.1-.6.2 0 .5-.1.7-.1 0-.4.3-.5.4-.8M7.1.5c.4 0 .5-.4.8.1-.3 0-.9.4-1.3.3.3.6.2 1 .2 1.3-.1-.4-.1-.9-.1-1.4m-9-23.4c.2.5.3 2.3 0 2.9-.5 1-1.4 1.1-2.2 2.1-1.7 2.1-1.7 3.8-4.4 4.9 3 .7 3.2-2.6 4.6-4.2 1-1.1 1.4-.9 2-2.5.4-1 .8-1.9.7-3.1m-1.4 9c-.6.9-1.4 1.1-2.2 1.7-.8.6-1.1 1.6-2.2 1.6 2.3 1.7 3.7-2.9 5.5-2.5M-12.5-1.4c-.2-.2-.2-.4-.1-.6 2-1.5 4.4-1.9 6.3-3.3 1.8-1.3 4.4-3.4 4.5-5.7-1 .2-1.7 1.9-2.5 2.6-1 .9-2.2 1.6-3.2 2.4C-9-5-13.8-3.5-13-1.2m17.5-15c-1 .2-3.2 1.2-3.7.2 1.1-.2 2.3.1 3.4.1m-1 3.3c-1.8-.2-3.2 1.2-4.9 1 .6-.9 3.5-.5 4.7-.6m17.7-9.1c0 1.5-1.7 2.3-2.5 3.3-1 1.1-1.9 2.3-3 3.4-2.1 1.9-4.2 3.9-6.3 5.8 1.2 0 2.3-1.9 3.2-2.6 1.4-1.1 2-2 3.1-3.3 1.2-1.4 7-4.3 6-6.4"/><path d="M6.9-26.9c1.4 2.5 0 6.9-1.7 8.8-1.4 1.6-.9 2.3-1.6 4.2-.5 1.5-1.7 3.3-2.6 4.4 2.6.9 4.2-6.3 5-8 .9-1.8 1.7-2.7 1.9-4.8.1-1.6.2-3.3.2-4.9m2.9-.2c1.8 1.6 1 3.3.3 5.2 0-1.6 1.2-3.6.5-5.1m3.8 3.3c-.4 1.3-2.2 4.4-3.7 3.7.5-1.4 2.6-3.2 3.5-4.4.2.1.4.3.4.5m2 .7c-.3.8-1 2.2-2 1.9 0-.9 1-1.2 1.6-1.7m-5.9 7.8c-1.4-.8-2.4 1.5-2.9 2.5-.6 1.5-.4 3.3-2.7 3.8 1.1-1 2-1.7 2.7-3.1.7-1.3 1.2-2.6 2.5-3.2M8.6 7.9c.2.9 2 .9 2.6.4-.5-.4-1.5 0-2.1 0m1.8 2.9c.2.8 1.1.9 1.7.5-.4-.2-1.1-.2-1.6-.2m-2 6.9c-.7 0-.3.7-.5 1.2.8 0 1-.6 1.6-1.1-.3-.1-.7 0-1 .1-.1-.2-.1-.3-.1-.4m1.1 3.5c.1-.5.3-.9.8-1.1.2.5-.4.6-.5 1.1-.1.1-.2 0-.3 0m-.1 1.8c-.6 0-.6.5-.7 1 .5.1.8-.3.7-.8m.3-11.3c0 .6.4 1 .7 1.5-1.2-.2-.6 1.3-1.4 1.7-.1-.6-.2-1-.9-.9.1-.2.4-.3.5-.5.2-.3.2-.7.4-.9.2-.3.4 0 .6-.3.1-.2 0-.7-.1-.9M5.8 4.9c.1-.8-.6-.7-.8 0-.2-.4.1-.7.5-.7.1.1.2.2.2.3m5.5-2.2c-.6-.4-.8-1.3.1-1.5.1.4-.3.6-.6.9M.4 6.1c-.1 0-.1 0-.2.1.3.2.5.1.2-.3m-1.5 1.3c.2 0 .4 0 .4.3-.3.2-.3 0-.4-.3m-1.1.2c0 .1-.4.1 0 0 .1 0 .1-.1.1-.3-.1-.1-.2-.1-.3 0m1.3 10.5c-.3.7.4.8.9.8-.2.1-.5.4-.4.8-.7.3-1-1-.4-1.3m9.6-.6c-1 .4-1-.6-1.8-.6.8.5 1.5 1.3 2.5 1.1-.1-.1-.2-.2-.3-.2"/></g><g fill="#FFF9FB" opacity=".53"><path d="M-.6 30c1.4-.7 1.9 2.8 3 2.8.1-1.1-1.6-3-2.6-3M-12 27.9c-.1 1.1.8 1.2.8 2.1-.3-.5-.6-1-1.1-1.3-.6-.3-1.1.1-1.6-.3-.7-.6-.8-2.7-1.2-3.5.9-.1 3.6 3.2 3.4 3.7"/><path d="M2.9 30.4c-.2 2.8-2-.8-3-.6.6.6 1 2.1 1.6 2.5 1.3.8.7-1.2 1.4-1.4m-12.8.4c.5.3 1.1.5 1.6.4-.4-.4-2.1-1.7-2.5-1.5-1.6.6.5 1.9 1.1 2.2 0-.5.1-.7-.2-1.1.3-.2.4-.1.7 0m3.8 2.1c.6-.1 1.5-.6 1.4-1.3-.2.1-.5.1-.8.2-.6-1-1.1.6-1.8.8-.7.1-1.6-1.2-2.1 0 .4.2.8 0 1.2.2.5.3.7.7 1.1 1 .6.3 2.4.4 2.7-.1-.7-.5-1.5 0-2.3-.8.8-.4 1.3-.3 2.1-.9m-5.8-10.4c.6.2 1.3.2 1.7.5-.2 0-.4.2-.7.3.1.2 0 .6.1.7-1 .2-.7-1.8-1.7-1.7m4.2 2.4c.9.2 1.8.7 2.4 1.4l.4-.4c.1.4.2.8.1 1.3-.2-1.2-.8-.4-1.4-.8-.7-.4-.7-1.3-1.7-1.3m-1.4-5.1c-.2.1-.4.1-.6.3.3.1.7.1 1 0 0-.2-.1-.3-.3-.4M-9 16.1c-.1.6.2 1.3.2 1.9-.7 0-.7-.8-.5-1.4m4.8-4.2c.2 0 .2 0 .3.2-1.1 0-3.2 1.3-2.2 2.7.1-.6 0-1.5.5-2 .6-.5 1.9.1 1.8-1m-2.2 4.6c0 .2-.2.5-.3.7-1.3-.1-.9-1.7-1.5-2.2-.9 1.5 2.3 3.2 1.6 1.4m-.2 12.1c.2.7.6 1.1.4 1.8-1.2 0-1.4-2.6-2.6-1.9.2.6.9.6 1.3 1.2-.4-.1-.8-.3-1.3-.3.3.4 1.9 1.6 2.5 1.6 1.3 0 .9-1.4.2-2.1M-18.1-11c.6.6 1.2.8 1.6 1.7.3-1.1-.9-1.1-1.6-1.5m4.6 6.5c-.7.8-.3 1.6.6 2 .7-.8-.3-.7-.6-1.1-.3-.5-.2-1-.9-1.1M2-5.6C.3-3.4-2-1.5-4.4-.2-5.5.4-6.8.9-7.9 1.5c-.4.2-4.1 1.7-2.3 2 .8.1 2.7-1.7 3.5-2.1C-5.4.8-4.1 0-2.8-.7-1.5-1.5-.3-2.2.6-3.3c.7-.8 2.9-2.1 2.8-3.1-.2 0-.3 0-.4.2m7.6-10.5c.9-.1 1.2-.8 1.9-1.3s1.7-.8 2.4-1.4c1.2-.9 3.4-2.7 3.3-4.4-.6.4-.8 1.4-1.2 2.1-.5.8-1.3 1.5-2.1 2-1.6 1.2-3.3 2.5-5 3.4M7.6-8.1c.8-.4 1.4-2.1 2-2.8.8-1 1.7-1.5 2.6-2.3.9-.8 1.6-1.8 2.5-2.5.5-.4 1.2-.6 1.5-1.2.3-.5-.1-1.1.6-1.4.5 1.1-1.1 2-1.8 2.7-.9.8-1.7 1.6-2.5 2.6s-1.7 1.7-2.6 2.6c-.4.6-1.2 2.7-2.3 2.5M-9.1 4.5c-.5-.1-1.1.1-1.5.4.4.2.9.3 1.3.1M1.5-1.2C1-.6-.5-.1-1.4.3-2.6.9-3.7 1.8-5 2.5-4.2.2-.6.5.7-1.2m-2.8-10.3c-.4-.1-.7-.3-.9-.6.9-.2 1.9-.1 2.8-.2 1.1-.3 2.1-.7 3.2-.8-1.2-.5-3.7.6-4.7 1.2m10.2 22c.4.7 1 1.1 1.2 1.8.1-.5.1-1.1-.4-1.4M8.1 6.7c.2.5.5 1.2.5 1.7-.2-.2-.3-.4-.4-.6m3.3 2.6c0-.6-.3-1.2-.5-1.8 1.1-.2 1 1.3 1 2m-1.6-3.8c-1-.8.1-1.8 1-1.6-.3.5-.8.6-1.1 1.1.1.3.3.4.6.5m1.6 8.4c.3-.5.8-1 1.1-1.5.3-.4.4-1.2.7-1.5.9 1.6-1.7 2.3-1.4 3.6M11 18v1c-.1.8-.2.6-.5 1.2-.5.8-.8 1.5-1 2.4-.2.7-.3 1.6-.7 2.2-.4.6-2.8 1.2-1.2 1.9 1.3.6 1.2-.6 1.5-1.3.5-1 1.1-1.6 1.5-2.7.3-.8.8-1.5 1.1-2.4.5-1.3-.4-1.6-.6-2.8m-2-4.2c-.4-.1-.8 0-1.2.1 1 1.3.3 1.7.1 3.2.8-.3.2-1.6 1.2-1.5-.1.5-.2.9-.2 1.2 1.3-.1-.5-2.4.4-3.1m-3.6 2c.1.4 0 1.1-.1 1.5.8.1.6-.9.5-1.5m-16.1-2.7c-.1 0-.2.1-.3.1.1.3.5.6.8.7-.5.2-.5-.2-.7-.4m-2.5-2.7c.2-.1.5-.2.8-.2.2.4.2.2.1.6.1-.6-.2-.4-.7-.5m8.2.1c-1.6.2-1.8 1.7-3.1 2.2.1-.6 2-2.2 2.8-2.2m25.9-30.7c-.9 1.9-3.3 4.3-5 5.3-2.2 1.4-3.4 3.5-5.2 5.4 1.5-.7 1.5-2 2.6-2.9 1.1-1 2.5-1.7 3.6-2.8 1.2-1.2 2.5-1.7 3.8-2.6 1.5-1.1.8-3.4-.3-1.9"/></g><g fill="#6B471B" opacity=".18"><path d="M-30.9 15.1c1 2 3.1 6.3 5.5 6.9.6.2.9-.4 1.6-.2.7.2 1.4 1 2 1.3 1.7.9 2.4.9 3.1 2.7.7 1.7 1.3 1.8 2.5 3.1 1.1 1.2.3 2.2.6 3.6.7-.1 1.4.1 1.4.9-1.1-.7-2.2-1.3-3.5-.6-1.5.7-1.8 1.9-3.5.8-2.6-1.7-5-4.5-6.7-7-2.1-3-4-6.3-5.1-9.8-.7-2.3-2.4-6.9-.9-9.1 1.7 1.5 2 5.3 3 7.4zm33.8 2.7c0 .3.3.5.3.7.3-.2 1-.2 1.2-.2-.2.2-.2.7-.4.9.8.3 1.1-.7 2.1-.4.6 1.4-.6 1.3-1.3 2.2-.6.8-.3 1.8-1 2.6-.9 1.1-3.8 1.6-5.3 1.6-2.2 0-2.3-2.4-3.9-3.5-.4-.3-.9-.1-1.2-.6-.4-.4 0-.9-.2-1.3-.3-.6-1.5-1.4-1.4-2 .7 0 1.9.9 2.5.7.8-.2 1.3-1.8 1.5-2.6.6.4.9 1.1 1.9.8-2 1.3-.5 1.8.2 3 .3.6.4 1.8 1 2.2 1.3.9.9-1.3 1-2.3.1-.5-.1-.6 0-1.1.3-1.2 2.9-1.3 3-.7zm-16.5 1.7c0-.9-1.2-1.3-2-1.2-.3.8.2 1.4.9 1.8-.7.8-.5 1.9-.2 2.8.3-.2 1.2-1.2 1.3-1.6.2-.8-.1-1-.1-2.1m9.2-9.3c-.7.6-1.5 1.7-2.3 2.1-.2 0-2.6.6-2.7.6-1-.4-.4-1.6-1-2.3-.7-1-1.5-.6-1.7-1.9 0-.1.5-2.6.5-2.6.7-.6 2.1-.1 2.7.2 1.1.5 4.6 2.9 4.4 4.2m.7-15.6c-.4 1-1.6 2.2-1.7 3.2 1.2.9 1.8-2 2-2.8M.9-9c0 .9-.6 1.9-.1 2.7.7-.4.7-1.3.4-2m-3.5-17.4c-1.6-.1-4.5 2.2-5.7 3.2-1.5 1.3-3.2 3.1-5.2 3.4-.5-1.6 3-4.1 4.1-5C-7.3-25.6-5.3-26-3-26m-2.4 4.4c-1.3.8-3.6.8-3.3 2.9 1 .1 2-2.3 2.7-3"/><path d="M-21.3-17.5c.3.9 2 1.8 2.9 2 1.6.4 2.5-.3 3-1.7.3-1.2.3-2.4.7-3.5.1-.4.5-1.3.9-1.5 1.1-.7.7-.2 1.4.4 1.6 1.4 1.4 6.7 4 3.5.9-1.1 1.2-2.5 2.1-3.6 1-1.2 2.6-1.8 3.6-2.9.3-.4 1.5-2.8 1.3-3.2-.4-.9-2.8-.4-3.6-.3-2.5.4-4.8 1.2-7.2 1.9-2.5.7-5.3 1.6-7 3.5-2 2.1-3.3 4.7-.4 6.7M3.6-26.6c-1.6-.6-2.3.6-2.5 2.1-.1.7.2 1.3.2 1.9 0 .6-.4 1.4-.3 1.9.4 2.5 1.5.1 1.8-1.2.3-1.3 0-3.1 1.5-3.7 0-.5-.3-.9-.7-1.3m14.6 3.4c2.9.1 0 2 1.3 2.9-.6.4-1.2.3-1.9.8s-1.2 1.2-1.6 1.9c-.2-.6.7-2.5 1.3-3 .5-.5 1 .2 1.3-.5.2-.5-.9-1.1-.4-1.9m-3.9-2.6c.2.7-.1 1.1.3 1.7.5-.4 1.3-.5 1.9-.4 0-.8-.8-1.3-1.6-1.5m-2.1 38.2c-.4 1.1-1.6 2.7-1.6 3.8.5-.3 1.8-1.4 2-2 .3-.8.4-2.1-.8-1.3-.1.2 0 .4.1.6m-2 6.5c-2.2-.3-1.2 1.1-1.8 2.5-.3.9-1.8 3.1-2.8 3-.4.8-.3 1.6.6 1.6 1 0 1.6-1.4 1.9-1.9.6-1 1-1.9 1.3-2.8.3-.7.8-1.8.9-2.5m-32.5-36.4c-1.1 2.1-.3 5.3.8 7.3.7 1.3 1.8 2.2 2.1 3.7.3 1.4-.4 2.6-.3 4 .2 1.2.6 2.4 1 3.5.7 1.9 1.9 2.4 3.2 3.9.8 1 1.3 2.7 2.8 2 .2-.1.1-.8.3-1 .3-.3.6-.2 1-.4.6-.3 1.2-.5 1.9-.5-.9-2.3-3-3.3-3.9-5.4-.8-1.9-1.4-3.7-2.5-5.6-1.1-1.9-2.4-3.8-3.6-5.7-1-1.7-3.1-4.1-3.3-6M22-18.1c-.5.6-.1 1.1-.3 1.9-.2.8-.5 1.2-.9 2-.3.7-.2 1.3-.4 2-.3.8-.9 1.5-1.2 2.3-.4 1.3-.5 2.6-1 3.9-.7 1.8-2.1 2.6-3.1 4.1-.7 1-.6 2.7-.8 3.9-.5 2.5.2 1.9 1.9 3.4 1 1 1.1 3.2-.4 3.8-.9.3-3.5-.5-4.2-1.1-.3-.2-1.3-1.4-1.1-1.8.2-.7 1.4-.3 1.8-.6.5-.7 1-3.6.7-4.4-.1-.3-1.6-1.4-1.9-1.6-.8-.4-1.2-.2-1.9-.1-1.4 0-3-.3-3.6-2-.3-.7-.3-1.5.6-1.7.7-.2 1.2.9 1.9.8 1.7-.2.8-2.7 1.1-3.8.5-1.5 2.3-2.4 3.3-3.5 1.2-1.2 2.6-2 3.9-3.1.9-.9 1.5-2.1 2.5-2.8.5-.4 2.5-1.4 3-1.4"/><path d="M28.3-16.6c2.1.2 3.6 6 4.2 7.8.9 2.7 1.5 5.4 1.8 8.2.6 5.5.8 11.4-1.6 16.5C31 19.5 22.2 30.5 18 24.6c-1-1.3-.8-2.6-1.4-4-.7-1.6-2-2.4-2.3-4.3-.7-4.3 3.3-5 4.4-8.7.7-2.5.4-4.3 2-6.6.7-1 1-2 2.2-2.7.3-.2 1 0 1.3-.3.5-.5.1-1.1.3-1.6.5-1.4 1.3-1.3 2.2-2.3.7-.8 1.2-2 1.5-3 .7-2.3-.6-4.1 1.5-6 .5.3.7.8 1.2 1.2M8.8 10c-.6-.3-1-.9-1.6-1.1-.8-.3-1.4.6-1.7-.8-.3.4-.1 1-.4 1.6-.5 1-.9.7-1.6 1.4-.2.2.1.7-.1.9-.2.2-.6.2-.8.4-.6.5-1.6.5-1.7 1.4.7.3 1.6.2 2.2-.2 1-.6.7-1 2.1-1.1 1.8-.2 3.8.4 3.6-2.2"/></g><g fill="#FFF9FB" opacity=".44"><path d="M-2.7 26.5c1.1.2 1.6 1.4 2.8 1.6 1 .1 1.8-.2 2.9.1 1.3.4 2.6 1.1 3.6 2-1.1-.8-1.6-2.7-3-1.2 1.2.5 1.9.6 2.7 1.8m-8.7 3.4c.8-.1 1.7 0 2.3-.5-.5-.3-1.1-.1-1.7.1.1-.2.1-.5.3-.8-.4.3-.9.9-1.2 1.4M-5 29.2c-.3.3.7.5 1.1 1 .4.6-.4 1.2.6 1.3.4-.8-.7-2.3-1.5-2.6"/><path d="M5.6 21.3c-1.2.4-1.5 1.3-2.2 2.2-1 1.2-1.2.7-2.6.9-.3 0-2 .5-2.2.6-.9.5-1 .9-.6 1.7 0-.1.8.5.8.5.4.4 0 .5.7.8.8.4 3.3.4 4.2.3.6 0 1.9.1 1.8-.9-.1-.7-1.4-.8-1.2-1.9 1.9-.2 1.3-2.9 1.3-4.2M8.8 19c-.2.1-.6 0-.8 0 .1-.3-.1-.6.1-1-.7.2-.6 1.5.4 1.4.1-.2.2-.4.2-.6m1.3-3c-.1 0 0 .5-.3.1-.1.4 0 .7.2 1 .6 0 .8-.5.6-1.1m.3-4.3c-.4-.1-.6.1-.5-.5.3-.2.4-.2.7-.1 0 .1.1.2.1.3M8.2 7.7c-.3-.3-.5-.5-.2-1 .5.1.6.4.5 1M11 1.8c-.2.3-.1.5-.5.6-.4-.7-.2-1.7.6-1.9.5.5.4 1.2-.3 1.5m1 1.6c-.7 0-1.3.2-1.3 1-.4-.1-.5.1-.9-.3.7.3 2.3.7 2.1-.6m-4.4.4c-.1.4.1.5-.2.8-.2 0-.3 0-.4-.2.4 0 .4-.3.6-.4M3.9 5.9c-.4.3-.6.5-.4 1 .6 0 .3-.3.4-.6M1.4 9.7c-.1.3.1.5-.2.7-.1-.2 0-.3.2-.3m-2-1.7c.2-.3-.1-.6.4-.5.4.5 0 .4-.3.7m1.8-1.9c.2-.1.4-.1.4-.5-.2-.1-.3-.1-.5 0m1.5-4.7c.1-.2.2-.3.4-.3.1.6-.2.9-.8.8m3.8-3.2c-.4.1-.8 0-1.2 0 0-.3.2-.2.5-.3M3.5-.2c.3.2.4.5.9.1.1-.2 0-.4-.2-.5M.1 9.3c-.3 0-.4-.1-.4-.4.5-.3.9-.1 1.1.4 0 .2-.2.3-.4.3m-2 1.2c-.3-.2-.5-.3-.5-.7.6-.2.6.1.7.7m.4 2.7c.2 0 .3-.1.4-.2-.4 0-.2-.1-.6.1 0 .2.1.2.2 0m.7-2c.2.1.3.3.6 0 0-.2-.1-.3-.3-.4m1.6-3.3c-.3 0-.4.2-.4.4.2.4.3.4.7.5.3-.3.2-.4.1-.8m1.3-2.7c0 .2.1.3.3.3.2-.1.3-.2.3-.4-.1-.3-.2-.3-.4-.3m-1.8 0c.5 0 .7-.2.5-.7m6.7-.4c.1.2.3.3.5.2 0-.3 0-.5-.3-.7M-20-15.2c1.5.7 1 1.8 1.4 3 .4 1.4 1.7 2.1 2.5 3.2.7 1.1 1 2.2 1.7 3.3.8 1.1 1.3 2.1 2.4 2.9-2.7 1.4-3.8-3.7-4.6-5.3-.7-1.4-2-2.2-2.6-3.6-.5-1.1-.3-2.6-1-3.6.2.1.3.2.4.3m30.9-4.6c-.5 3.3-3.2 5.7-4.8 8.5-.4.8-.9 1.5-1.3 2.2-.4.5-.2.7-.7 1.1-.4.3-1-.1-1.3.1-.8.7 0 1.2-.4 1.9-.3.8-1.5.9-1.6 1.9 1.5.4 1.5-1.2 2-2.1.6-1 1.6-1.7 2.4-2.5 1.6-1.8 2.6-4 4.1-6 .8-1 1.7-1.7 2.2-2.9.4-1 .5-2 1-3 .5-1.1 1.5-1.8 1.9-3 .2-.7.5-2.4 0-2.9-.6 1-.5 2.2-1.1 3.2-.4.7-.7 1.1-1 1.8-.3.7-.4 1.2-1.1 1.7M4.8 18.3c1.3.2 1.4 2 2.6 1.8-.9-1-2.3-2.7-3.4-3.3.3-.4.3-.7.1-1.1-.4.2-.6.7-1 1-.7.4-1-.1-1.7.8.8.8 1.7-.2 2.5 0 .5.1 2.4 1.4 2.6 1.9M-4.8 5.6c-.1 1 1.1.5.8 1.4.1-.6.5-1.5-.2-1.9m-10.7 12.2c-.5-.3-.9-.8-.8-1.4-.4.5-.5 1.1-.4 1.8.3 0 .5.2.9 0-1.3.8-1.2 1.9-1 3.2.1.9.5 3 1.5 3.3.6-1.2-.9-1.8-1-3 0-.5.3-.6.3-1.2 0-.5-.3-1-.4-1.5.4-.1.9-.3 1.2-.6m1.2-1.5c-.3.1-.5.1-.8 0 .1-.2.2-.2.4-.2m-.3-4.3c.3.1.5 0 .7.3-.1.4-.3.4-.7.4m21.5 3c.3.1.2.4.6.4-.4.5-.9.6-1.5.6 0-.5-.1-1-.1-1.5-.2 0-.5-.1-.6-.1.4-.4.9-.4 1.4-.2 0 .3 0 .6-.1.8"/></g><g fill="#BB9B70" stroke="#BB9B70" font-family="'David'"><text font-size="6.674" transform="matrix(.97 0 0 -1 14.406 -13.318)">1</text><text font-size="10.011" transform="matrix(.97 0 0 -1 17.276 -14.092)">9</text><text font-size="6.674" transform="matrix(.97 0 0 -1 22.028 -13.204)">1</text><text font-size="10.011" transform="matrix(.97 0 0 -1 24.898 -13.698)">9</text></g><path d="M-11 38.4c2.9-.2 6.2 2 5.3-3 1.9-.2 4.1-.2 6 .1 1.1.2 1.8.6 3.1.5 1.1-.1 2.2-1.2 3.5-.7 2 .7.5 1.1 1.4 2.4 1.1 1.8.3 1.2 2.4.7s4.7-1 6-2.4c-8 3.9-19.9 6.2-28.5 2.4" opacity=".04"/><path fill="#FCED20" stroke="#FCED20" d="M24.3-20c2.5 1.9 2.9 2.5 1.2 5-1.3 1.9-2.5 3.9-3.4 5.9C21-6.6 18.5 2.4 14.7 2.2c-1.6-3 3.7-8.3 4.7-11 .8-2 .8-3.7 1.9-5.7 1-1.6 1.9-4.2 3.1-5.5 1.2.6 3 1.4 3.4 2.8" opacity=".22"/><path fill="#D7A96F" d="M-9.3 3.7c.7.4.2 1 .4 1.5.2.4 1.2.8 1.5 1C-6.1 7.1-5 8-4.3 9.4c.5-1.4 1-2.8 2.2-3.5.6-.4 1-1.2 1.6-1.6.7-.4 1.4-.1 1.9-1.1.1-.3 0-.6.1-.9.2-.4.3-.5.7-.9.4-.5.7-1.3 1.1-1.9.5-.7 2.9-2.8 2.5-3.7.1.8-.9.9-1.4 1-.8.2-1.4.6-2.1.9C1-1.8-.2-1.1-1.5-.5c-1.4.6-3.2 2.3-4.4 2.6-.8.2-.8.6-1.7.9-.7.2-1.4.3-2 .7.3.6.4 1.3.4 1.9" opacity=".74"/><path fill="#6B471B" d="M33.3-11.3s2.9 16.6 1.4 22.5c-1.4 6-10.1 20.1-13.9 22.6C17 36.4 7.2 41 2.4 40.7c-4.8-.2-15.3-1.1-16.3-2.3-1-1.3-2.2 0-2.2 0s12.5 4 16.5 3.8c4.1-.2 13.7-1.4 20.4-6.7 3.9-3.1 7.5-5.7 10.8-11.8 3.3-6.2 3.9-8 4.9-11.7 1-3.8 1.3-8.1 1-9.3-.2-1.2-2.2-9.8-2.2-9.8l-2-4.2z" opacity=".07"/><path fill="#6B471B" d="M6.3 10.3c-.7.7-1.2 1.4-1.5 2.3-2-.1-4.8.4-6.6 1.5 1.6-.9 3.9-1.4 5.2-2.4.5-.4 1-1.7 1.6-2.1.8-.5 2.2-.5 3-.9 0 .4-.1.9-.3 1.3-1 0-1 .4-1.1 1.3" opacity=".18"/><text font-family="'David'" font-size="4.265" opacity=".56" transform="matrix(1.212 0 0 -1 -34.458 -2.66)">LIBERTY</text><text fill="#CCCB9A" font-family="'David'" font-size="4.107" transform="matrix(1.212 0 0 -1 -33.838 -2.5)">LIBERTY</text><path fill="#FCED20" stroke="#FCED20" d="M13.2 16.4c1 1.9.7 4.6.7 6.7 0 .9-.5 2.9-.3 3.7.5 1.4 1.5 1.3 2.2 2.6 1.3 2.6.3 4.8-2.2 5.8-3 1.2-5.5.2-3.9-3.1-3.3-1.3.6-2.6 1.3-3.5.9-1.2 1.3-3.9-1-3.9.1-1.6 2.2-6.7 3.8-6.5" opacity=".22"/><path id="a" fill="none" d="M-25.9 22s12.9 15.1 27 13.3c14.1-1.9 22-9.5 23.8-11.9"/><text><textPath startOffset=".561%" xlink:href="#a"><tspan fill="#ECEAB2" stroke="#BB9B70" font-family="'David'" font-size="4.107">IN GOD WE TRUST</tspan></textPath></text><g fill="#ECEAB2" stroke="#BB9B70" font-family="'David'"><text font-size="6.674" transform="matrix(.97 0 0 -1 14.656 -13.294)">1</text><text font-size="10.011" transform="matrix(.97 0 0 -1 17.527 -14.067)">9</text><text font-size="6.674" transform="matrix(.97 0 0 -1 22.277 -13.18)">1</text><text font-size="10.011" transform="matrix(.97 0 0 -1 25.146 -13.674)">9</text></g><path fill="#F5841F" d="M13.2 34.7c3.8-4.3 9.8-6.7 13.7-11 1.8-1.9 2.7-4.5 4-6.8 1.2-2.1 2.7-4.7 2.7-7.1.1-4.5-1-9.3-1.5-13.7-.6-5.3-2.8-9.5-6.2-13.8 5 1.4 7.4 10.6 7.8 15.1.5 5 1.6 11.5.1 16.4C30.5 25.1 20.9 38.1 8 37.6c.3-.6.9-1.1 1.7-1.4M-32.6-1.2c1.1-1.7 1.4-3.5 2.2-5.2 1.1-2.3 2.9-4.4 4.3-6.5 2.4-3.6 3.5-8.9 7.2-11.6 6.5-4.7 16.7-4.5 24.3-4-4.3-3-7-2.6-11.9-1.4-4.6 1.1-8.7 2.7-12.9 4.8-4.7 2.3-7.9 5.8-10.6 10.1-2.2 3.5-6 9.9-4 14.1" opacity=".29"/><path fill="#0B0907" d="M9.8.4c-.2.3-.8.7-1.1.9 0-.3 0-1.2.2-1.5C8.4 1 7.1 1.5 6.2 1.1 6.5.3 8.7-.3 9.6-.5" opacity=".2"/><path fill="#0B0907" d="M11.6 4.9c-.9-.3-1.9-.1-2.8-.2-.4 0-.7-.7-1.1-.6-.8.1-.7 1-1.4 1.2-1.4.4-1.5-.1-2.7 1-1 1.1-.3 2.2-2.4 2.2.1 1.6-2.1 3.8-3.5 4.5-.3-.1-1.1-.6-1.2-.6-.4-.8 0-1.7.3-2.4-2.8-1.1.8-3.6.8-5.1C-.2 4.3.2 3.2 1.7 1.7 3 .5 5.6.4 5.1-1.7 6.9-2.1 6.2-.3 7 .1c1.3.8 2.2-.2 3.5-.2 2.7.2 3.4 3.3 1.6 5.2" opacity=".07"/><path fill="#FFF9FB" d="M7.9 6.8C6.4 5.3 3.5 5.5 1.6 5.2 1.3 6.4.5 7.5-.9 7.4c0 1.2-1.5 3.8-2.2 4.9 1.8 1.8 2.6-.9 3.1-1.7.7-1 3.5-1.8 3-3.7.8.1 1.8-.3 2.5-.7" opacity=".15"/><path fill="none" stroke="#653D17" stroke-width="2" d="M36 4.2C36-15.5 20-31.5.3-31.5c-19.7 0-35.7 16-35.7 35.7 0 19.7 16 35.7 35.7 35.7C20 39.9 36 23.9 36 4.2z"/></symbol><use width="75.8" height="76" x="-37.9" y="-33.8" overflow="visible" transform="matrix(.7694 0 0 -.7694 29.887 34.103)" xlink:href="#b"/></g></switch></svg>
