<svg xmlns="http://www.w3.org/2000/svg" version="1.0" viewBox="0 0 103.9 68.7"><switch><g><linearGradient id="a" x1="1617.408" x2="1662.598" y1="-178.031" y2="-178.031" gradientTransform="rotate(-84.434 972.692 787.505)" gradientUnits="userSpaceOnUse"><stop offset="0" stop-color="#faaf40"/><stop offset="1" stop-color="#fff100"/></linearGradient><path fill="url(#a)" stroke="#53AF48" stroke-width=".25" d="M90.5 46.1s-4.7 3.8-6.6 4c-1.8.2-3.5-.1-4 0s-2.7 1.6-5.2 1.7c-2.4.1-3.8.6-7-1s-9.4-6.1-13.1-12.1c-3.6-6-3.6-7.6-3.6-11-.1-3.4.1-3.4 1-5.2.9-1.7 1.6-2.2 1.6-2.2s-.1.6-.1-.9c-.1-1.4.4-3 1.9-4.9 1.6-1.9 3.5-3.8 5.7-4.7 2.2-1 4.1-1.1 5.9-1.3 1.7-.2 3.9.1 3.9.1S79.3 7 81.3 7.5c2 .4 5 1.5 6.5 2s2.9.9 4.1 2.2c1.2 1.3 1.7 1.9 2.1 2.5.4.6 0 0 1.8.9s4.2 3 5.1 4.3c.8 1.3 1.4 2.6 1.6 4.6.2 2-.2 4.6-1.1 7.1-.9 2.5-3.6 5.9-5.1 7.7-1.4 1.8-2.4 3.7-3.8 4.9-1.3 1.2-2 2.4-2 2.4z"/><path fill="#3A9B47" d="M80.3 22.1s-1.3-.1-1.9-.3c-.6-.2-1.2-.2-1.4-.2-.2 0-2.1-.3-2.6-.3s-1.2-.2-1.5-.1c-.3.1-1.4-.1-1.8.1-.4.2-1.4.2-1.4.2s-1.4-.3-2.1-.5c-.7-.2-1.6-.7-2.3-1-.7-.3-1.6-.8-1.7-1.1-.1-.2-1-.7-1-.7s-.3-.2-.2-.5c0-.3.8-.3.8-.3s.7-.4.8-.7c0-.3.1-.5.5-.7.4-.2 1.1-.7 1.1-.7s.3-.4.6-.6c.4-.2.9-.5 1.2-.7.3-.3.9-.1 1-.4v-.7s-.1-.4.2-.5h1.2l1.1.4s8.1.4 8.6.3c.4-.1 1.3-.1 1.6-.2.3-.1.7-.3 1-.2.3.1.8.7 1.1 1 .2.3.7 1 1.1 1.4.4.4.6 1 .9 1.3.3.3.5.8.9.9.5.1.4.5.3.7-.1.2-.8 1.2-1.4 1.5-.6.3-1.1.6-1.9.8-.9.3-1.3.7-1.6.9-.2.2-.4.1-.6.5l-.6.4z"/><path fill="#5AB947" d="M68.7 18.8s-.1 0-.2-.6 0-.8-.2-1.1c-.2-.3-.3-.5 0-.8.3-.4.6-.3.8-.5.2-.2.2-.3.6-.7.4-.4.5-.3.9-.4.4-.1.9-.3.9-.3s.3-.4.4-.7c0-.3.1-.6.1-.8 0-.2-.5-.3-.7-.7-.2-.3-.2-1.2-.4-1.6-.1-.6.1-1.3.2-1.5.1-.2.4-.7.6-1.1.2-.4 1.2-1.1 1.7-1.4.5-.3 2-.9 2.8-.8.8.1 1.9.2 2.5.5.6.3 2.1 1.3 2.3 1.9.2.6 0 2.5 0 2.5l-.1.7s.2.5-.1.7c-.3.2-.7.3-.7.3s-.2 1.9-.3 2.1c-.1.2.3.2.3.4s1.8.7 1.8.7.3.6.4.9c.1.3-.1.5-.2 1-.1.4-.3.9-.3.9s-.2.5-.4.8c-.2.3-.2.6-.7.7-.5.1-3.4.5-3.6.7-.2.1-.6.6-1.1.5-.5-.1-1-.1-1.4.1-.4.1-.9.1-1.3 0s-.6-.5-.9-.6c-.3-.1-.7-.3-.9-.3-.3 0-.6.1-.9 0-.3 0-1-.6-1-.6l-.6-.5-.3-.4z"/><path fill="none" stroke="#399846" stroke-width=".25" d="M69.2 12.5s-.3.8-.4 1c-.1.2 0 .7-.5.7-.5.1-.9.2-1.1.4-.2.2-.5.9-1 1-.5.1-1.1.2-1.1.5s-.2 1-.5 1.2c-.3.1-1.2.3-1.3.5 0 .2-.4 0-.4.2s0 .2.2.3c.3.1 1.3.8 1.3.8s1.1.6 1.3.7"/><path d="M94.8 19.7s-3.8-.7-4.3-.8h-2.3l-1.5.2.2-1v-1.7s1.3-.3 2-.6c.7-.2 1.4-1 1.8-.8.4.1 1.5-.1 1.5-.1l-.1 1.4s0 .7.8.8c.8.1 1 .2 1.4.3.4.1 1.3.4 1.3.6 0 .3.5.7.4 1 0 .3-.1.8-.1.8l-.8.3-.3-.4zm-26.3 2.9s-4.3.9-5.6 3.6c-1.3 2.8-2.7 5.6-2.8 6.3-.1.8-1 2.4-1 2.4s-2.2.1-1.7.7c.4.6-.7-2.2-.7-2.2s.3-2.7.8-3.9c.5-1.1 1.3-2.8 1.8-3.5.4-.8.4-1.5 1.8-2.4 1.4-.8.6-1 2-1.7s3.1-.5 3.1-.5l1.8-.3 1.4.6-.9.9zm-5-3.6s-4.9 0-7 .8c-2.1.9-3 1.7-3 1.7l.2-1.3s1.3-.5 1.7-1.1c.4-.6 2.3-.6 5.7-.7 3.4-.1 3.5.8 3.5.8m15.7 2.9s3.8 1.1 5 4.1c1.1 3 .6 3.2.6 4.6 0 1.4-1.4 1.9-1.4 1.9s-.8-3.2-1.1-4.9c-.3-1.7-1.4-3.4-1.4-3.4l-2.2-2 .5-.3z" opacity=".05"/><path d="M88.7 26.9c1-.9 1.1-1.6 2.9-1.4 1.8.1 5 1.6 5 1.6l1.2 4.9s-.7 3.1-1.8 4.6c-1.1 1.6-3.1 5.7-4.2 6.6-1 .9-2.9 4.1-4.5 4.2-1.5.1-3 1.9-3.9 1.9-.9-.1-5.7-.2-5.7-.2-.4.7-2.5.3-3.7.7-1.3.4-4.4-1.5-4.4-1.5l-.4-3.3-.8-3.6.5-4.3v-5s-1.2-5.1 1-5.9c2.2-.8 3.5-1.6 6.8-.9 3.2.7 5 .9 5.8 2.1.8 1.3 2.2 4.5 2.2 4.5s-.2-.4 1.4-1.5c0 0-.5-1.5-.9-2.3-.4-.8-.8-1.6-1.7-2.4-.8-.7-1.5-1.4-1.5-1.4" opacity=".03"/><path fill="#FFF" d="M68.4 24.9l-.9 2.6-2.1-.2s-2.3.2-2-.8c.4-1-.2-1.5.8-1.9 1-.4 2.5-.8 2.5-.8l1.7 1.1zm-5.9-4l-1.7 1.7-1.6 3.5-3.2 1.2-2.3-1.1-.1-1.7 1.1-1.6 2-1.3 1.9-1 1.9-.9z" opacity=".09"/><path fill="#FFF" d="M59.3 15.3l-1.2 2.1-1.7 1.3-2.8 1.6.8-2.7 2.4-1.7 1.3-1.4z" opacity=".16"/><path fill="#FFF" d="M85.2 26.2l1.5-2.1-1.5-.8-1.8.6.2 1.8z" opacity=".05"/><path fill="#FFF" d="M68.4 25.3l-.7 1.9-1.6-.1s-1.8.1-1.5-.6c.3-.7-.1-1.1.6-1.4.7-.3 1.9-.6 1.9-.6l1.3.8zm-6.6-3.8l-1.3 1.3-1.1 2.5-2.4.9-1.7-.8-.1-1.3.8-1.1 1.5-1 1.4-.8 1.5-.6zm-3.6-5.3l-.9 1.7-1.4 1.1-2.3 1.3.7-2.2 1.9-1.4 1.1-1.1zm27 10l1.4-2.1-1.4-.8-1.9.5.3 1.9z" opacity=".13"/><path fill="#29803F" stroke="#29803F" stroke-width=".25" d="M83.1 18.8L81 20.3l-2.4 2-6-1.4-.9-.3-1.9-.5-.6-.5-1.3-.3-.2-1 .9-.8.2 1.1 2.4.7 2 .9 5.5-.1 1.6-.8 2.1-1.5.2-.9"/><path fill="#5AB947" stroke="#53AF48" stroke-width=".25" d="M20.9 42.4s-6.7 0-8.2-.9c-1.5-.9-2.4-2-2.8-2.3-.4-.2-3.4-.4-5.2-1.7-1.8-1.3-3.2-1.7-4-4.7-.8-2.9-1.2-9.6 1.7-15.9 2.9-6.3 4.3-7.3 7.3-9.8 3.1-2.5 3.1-2.4 5.4-3.1 2.2-.7 3.1-.6 3.1-.6s-.6.4.7-.7c1.3-1.1 3-1.9 5.8-2.4s5.8-.7 8.3-.2c2.4.5 3.9 1.5 5.3 2.4 1.4.9 2.6 2.2 2.6 2.2s7.4 3.6 8.4 5.1c1 1.4 2.2 3.9 2.8 5.1.6 1.2 1.3 2.3.9 3.9s-.5 2.3-.7 2.9c-.3.7 0 0 .5 1.7s.3 4.5-.3 5.9c-.6 1.4-1.4 2.6-3 4.2-1.7 1.6-4.3 3.1-7.2 4.4-2.9 1.3-7.9 2.2-10.6 2.6-2.6.5-5.1 1.3-7 1.3-2.2.1-3.8.6-3.8.6z"/><path fill="#3A9B47" d="M35.2 19.8s-.8-.8-1.1-1.3c-.3-.5-.6-.8-.8-.9-.1-.1-1.3-1.4-1.6-1.7-.3-.3-.7-.8-1-.9-.3-.1-.9-.8-1.4-1-.5-.1-1.2-.6-1.2-.6s-.7-1-1-1.5c-.4-.5-.5-1.4-.7-2-.3-.6-.4-1.5-.2-1.7.1-.3-.1-1.2-.1-1.2s0-.3.3-.4c.3-.2.8.3.8.3s.9.1 1.2-.1c.3-.2.5-.3 1-.2.5 0 1.4.1 1.4.1s.5-.1 1-.1 1.1.2 1.5.2c.4 0 .8.4 1.1.2.3-.2.6-.5.6-.5s.3-.4.6-.2c.2.1.8.7.8.7l.5.9s5.4 4.8 5.7 5c.4.2 1 .7 1.2.8.3.1.7.2.9.4.2.2 0 .9-.2 1.3-.1.4-.4 1.1-.4 1.6-.1.5-.5 1-.6 1.4 0 .4-.3.8-.1 1.2.2.4-.2.5-.4.6-.3.1-1.7.4-2.4.3-.7-.1-1.3-.2-2.1-.5-.9-.3-1.5-.3-1.9-.3-.3 0-.4-.1-.9 0l-.5.1z"/><path fill="#2F8741" d="M30 10.9l.4-.6c.5-.5.7-.6.9-.9.2-.2.2-.4.7-.5.5-.1.8.1 1.1.1.3 0 .5-.1 1.1-.1.6 0 .6.1 1 .2s.9.3.9.3.6-.2.9-.4c.3-.2.6-.4.8-.5.2-.2-.1-.5.1-.9.2-.3 1-1 1.2-1.3.2-.4 1.1-.8 1.3-.9.3-.1.9-.3 1.4-.5.5-.2 1.8-.1 2.5 0s2.3.5 2.7 1c.4.6 1.1 1.2 1.3 1.7.1.6.3 2.1-.1 2.6-.4.6-2.2 1.8-2.2 1.8l-.6.4s-.3.5-.7.5c-.4 0-.8-.1-.8-.1s-1.8 1.3-2 1.3c-.2.1 0 .3-.1.4-.1.1.6 1.5.6 1.5l-.6.9c-.2.3-.5.3-1 .6-.5.2-1 .5-1 .5s-.6.3-1 .4c-.4.1-.7.3-1.2.1-.4-.2-2.9-1.6-3.2-1.6-.3 0-1 .1-1.3-.3-.3-.3-.6-.6-1-.7-.4-.2-.8-.4-.9-.7-.2-.3 0-.7-.1-.9-.2-.2-.2-.6-.4-.7-.2-.2-.5-.3-.7-.5-.2-.2-.2-.9-.2-.9v-.7l.2-.6z"/><path fill="none" stroke="#399846" stroke-width=".25" d="M36 6.8s-.9.4-1.2.5c-.3.1-.6.5-1 .2-.4-.2-.8-.3-1.1-.3-.3 0-1.1.4-1.6.2s-.9-.5-1.3-.3c-.3.2-1.1.6-1.4.6-.3-.1-1.1-.5-1.3-.3-.2.1-.3-.2-.4-.1-.2.1-.2.1-.1.3.1.2.2 1.3.2 1.3s.3 1 .3 1.2"/><path d="M47.6 26.2s-2-2.6-2.3-3c-.4-.3-1.6-1.3-1.6-1.3l-1.2-.7 1-.6 1.6-1.2s1.2.5 1.9.7c.7.2 1.8.1 2 .4.2.3 1.1.8 1.1.8l-1.3 1s-.6.5-.1 1 .6.7.8 1c.2.3.6 1 .3 1.2-.3.2-.3.8-.6 1-.3.2-.8.5-.8.5l-.8-.3v-.5zM26.5 13.4s-3.8-1.8-7.3-.6c-3.4 1.2-6.9 2.4-7.7 2.9-.8.5-2.8 1.2-2.8 1.2s-1.6-1.1-1.8-.5c-.2.6 1.4-1.9 1.4-1.9s2.7-1.7 4-2.3c1.4-.5 3.4-1.2 4.4-1.5 1-.3 1.6-.9 3.4-.7 1.7.2 1.3-.4 2.9 0 1.6.3 2.6 1.4 2.6 1.4l1.6.8.4 1.2h-1.1zm-.3-5.3s-3.4-2.8-5.7-3.3c-2.3-.6-3.7-.5-3.7-.5l1.3-.8s1.3.4 2.2.2c.9-.2 2.1.8 4.6 2.7 2.5 1.8 1.8 2.5 1.8 2.5m8.5 10.9s1.7 2.9-.2 5.7c-1.9 2.7-2.4 2.6-3.7 3.6-1.3 1-2.7.5-2.7.5s2.3-2.7 3.7-4.1c1.3-1.4 2-3.2 2-3.2l.2-2.7.7.2z" opacity=".05"/><path d="M36.8 27.9c1.5-.1 2.2-.5 3.4.6 1.1 1.1 2.1 3.9 2.1 3.9l-3.5 4.1s-3.2 1.8-5.4 2.3c-2.2.5-7.4 2.3-8.9 2.3-1.5.1-5.7 1.2-6.9.5-1.2-.8-3.8-.3-4.4-.9-.6-.6-3.9-3.4-3.9-3.4-.9.3-2-1.2-3.2-1.6-1.2-.4-1.7-3.5-1.7-3.5l2.5-2.5 2.7-3 4.2-2.7 4.5-3.5s3.8-4.3 6-3.6c2.3.7 4 .8 5.6 3.1 1.6 2.3 2.8 3.4 2.2 4.7-.6 1.3-2.5 4.4-2.5 4.4s.2-.4 2.4-.3c0 0 1-1.3 1.4-2.1.5-.8.9-1.6.9-2.6s.1-1.9.1-1.9" opacity=".08"/><path fill="#FFF" d="M24.3 15l-3 1.3L20 15s-1.8-1.2-.7-1.7c1.2-.5 1.2-1.2 2.3-.9 1 .3 2.5.9 2.5.9l.2 1.7zm-.5-6.1l-2.8.3-4.2 1.5-3.4-.9-.6-2.1 1.5-1.2 2.2-.5 2.5.2 2.3.3 2.1.5z" opacity=".09"/><path fill="#FFF" d="M26.5 3.2l-2.7.8h-2.4l-3.3-.5L21 2.1l3.2.1 2.2-.2z" opacity=".16"/><path fill="#FFF" d="M35 25.4l2.9-.7-.3-1.3-1.8-.7-1.5 1.5z" opacity=".05"/><path fill="#FFF" d="M23.9 15.3l-2.2 1-1-1s-1.4-.9-.5-1.3c.9-.4.9-.9 1.7-.7.8.2 1.8.7 1.8.7l.2 1.3zM22.8 9l-2.1.2-3.1 1.1-2.5-.7-.5-1.5 1.1-.9 1.7-.4 1.8.1 1.7.3 1.6.4zm2.1-5.7l-2.1.6h-2l-2.7-.4 2.4-1.1h2.6l1.8-.1zm10.2 22.1l2.8-.7-.2-1.4-1.9-.6-1.4 1.4z" opacity=".13"/><path fill="#29803F" stroke="#29803F" stroke-width=".25" d="M40.2 19l-2.8-.1h-3.5l-3-4.3-.4-.7-.9-1.4.1-.7-.7-1 .8-.8 1.3-.1-.8.9 1.1 1.9.6 1.7 3.9 3 1.9.4 2.7.1 1.1-.6"/><linearGradient id="b" x1="9.906" x2="66.955" y1="48.365" y2="48.365" gradientUnits="userSpaceOnUse"><stop offset="0" stop-color="#fff"/><stop offset="0" stop-color="#ec1c24"/><stop offset="1" stop-color="#ee4036"/></linearGradient><path fill="url(#b)" d="M19.1 61.1s-5.2-3.3-5.7-4.8c-.5-1.4-.2-2.8-.4-3.1-.1-.4-2.3-2-2.7-3.9-.4-1.9-1.1-3 .6-5.6 1.7-2.7 6.8-8 14-11.4 7.3-3.4 9.2-3.5 13.5-3.9 4.3-.4 4.3-.3 6.6.3s2.9 1 2.9 1-.7 0 1.1-.2 3.9 0 6.4 1c2.5 1 5.1 2.4 6.5 4 1.5 1.6 1.8 3.1 2.2 4.5.4 1.3.2 3 .2 3s2.8 6.5 2.4 8.1c-.4 1.6-1.4 4.1-1.9 5.3-.5 1.2-.8 2.4-2.4 3.4-1.6 1-2.2 1.5-2.9 1.9-.7.4 0 0-1 1.5s-3.4 3.6-5 4.4c-1.6.8-3.1 1.3-5.7 1.7-2.5.4-5.8.3-9.1-.2s-7.9-2.3-10.3-3.2c-2.4-1-5-1.5-6.5-2.5-1.3-.8-2.8-1.3-2.8-1.3z"/><path fill="#3A9B47" d="M48.3 50.7s0-1 .1-1.5.1-.9.1-1.1c0-.2.1-1.7.1-2.1 0-.4.1-1 0-1.2-.1-.2 0-1.1-.3-1.4-.3-.3-.4-1.1-.4-1.1s.3-1.1.4-1.7c.1-.6.8-1.3 1-1.9.3-.6.9-1.3 1.2-1.4.3-.1.8-.9.8-.9s.2-.2.6-.2c.3 0 .4.6.4.6s.6.5 1 .5.6.1 1 .3c.3.3 1 .8 1 .8s.5.2.8.4c.3.3.7.7 1 .9.3.2.3.7.6.7s.9-.1.9-.1.6-.1.6.1c.1.2.1.9.1.9l-.3.9s.3 6.4.4 6.7c.1.3.2 1 .3 1.2.1.2.4.5.3.8-.1.3-.8.7-1.2.9-.4.2-1.2.7-1.6 1-.4.3-1.2.5-1.6.8-.3.3-.9.4-1 .8-.1.4-.6.3-.8.3-.3-.1-1.6-.5-2.1-1-.5-.4-.8-.8-1.3-1.4-.4-.7-1-1-1.3-1.2-.3-.2-.2-.3-.7-.4h-.1z"/><path fill="#5AB947" d="M51.4 41.3s0-.1.8-.2c.8-.2 1-.1 1.4-.3.4-.2.6-.3 1-.1.5.2.5.4.8.6.3.2.4.2.9.4.5.3.4.4.6.7.2.3.5.7.5.7s.6.2 1 .2h1c.2 0 .3-.4.8-.6.4-.2 1.5-.3 2-.4.5-.2 1.5-.1 1.7 0 .3.1 1 .2 1.5.3.5.1 1.5.8 1.9 1.2.5.4 1.4 1.5 1.3 2.1-.1.7-.1 1.5-.4 2-.3.5-1.4 1.8-2.2 2-.8.2-3.1.2-3.1.2H62s-.6.2-.9 0c-.3-.2-.5-.5-.5-.5s-2.4.1-2.6 0c-.2-.1-.2.2-.4.3-.2.1-.8 1.5-.8 1.5s-.8.3-1.1.4c-.3.1-.7 0-1.3-.1-.6-.1-1.2-.1-1.2-.1s-.7-.1-1-.2c-.3-.1-.8-.1-1-.5-.1-.4-1-2.6-1.2-2.8-.2-.2-.8-.4-.8-.8.1-.4 0-.8-.2-1.1-.2-.3-.3-.7-.1-1 .1-.3.6-.5.6-.8.1-.3.3-.5.3-.8 0-.2-.1-.4-.1-.7 0-.3.6-.8.6-.8l.6-.5.5-.3z"/><path fill="none" stroke="#399846" stroke-width=".25" d="M59.4 41.1s-1-.2-1.3-.2c-.3-.1-.8.1-1-.3-.1-.4-.3-.7-.6-.8-.3-.2-1.2-.3-1.4-.7-.2-.4-.3-.8-.8-.8-.4 0-1.3-.1-1.5-.3-.2-.2-.5-.9-.8-.9-.3 0-.1-.3-.3-.3-.2 0-.2 0-.3.2-.1.2-.9 1.1-.9 1.1s-.6.9-.7 1.1"/><path d="M52.7 61.9s.6-3 .6-3.5c0-.4-.2-1.8-.2-1.8l-.3-1.2H54l2.2-.1.9 1.5c.3.5 1.4 1 1.2 1.3-.1.4.2 1.2.2 1.2l-1.8.1s-.9.1-.9.7-.1.8-.2 1.2c-.1.4-.3 1.1-.7 1.1-.3 0-.9.4-1.2.4h-1l-.4-.6.4-.3zm-6.1-20.4s-1.5-3.3-5.1-4.1c-3.6-.8-7.3-1.6-8.3-1.6-1 0-3.1-.5-3.1-.5s-.3-1.7-1-1.3c-.7.4 2.6-.8 2.6-.8s3.5 0 5 .3 3.6.8 4.6 1c1 .3 2 .1 3.1 1.2 1.2 1 1.3.4 2.3 1.4 1 1 .9 2.4.9 2.4l.6 1.4-.7 1.2-.9-.6zm4.1-4.3s-.4-3.9-1.7-5.4c-1.3-1.6-2.5-2.2-2.5-2.2h1.6s.7 1 1.6 1.2c.8.3 1 1.7 1.5 4.4s-.6 2.9-.6 2.9m-2.3 12.6s-1 3.1-4.7 4.3c-3.6 1.2-4 .8-5.8.9-1.8.2-2.4-.9-2.4-.9s4-.9 6.1-1.3c2.1-.4 4.1-1.4 4.1-1.4l2.3-2 .4.4z" opacity=".05"/><path d="M43.1 57.9c1.2.7 2.1.7 2.1 2.1 0 1.4-1.5 4-1.5 4l-6 1.4s-3.9-.2-6-1c-2.1-.7-7.5-1.9-8.7-2.6-1.2-.7-5.4-1.9-5.7-3.1-.3-1.2-2.7-2.1-2.7-2.9 0-.7-.3-4.5-.3-4.5-.9-.2-.6-1.9-1.2-2.9s1.5-3.6 1.5-3.6l3.9-.7 4.5-1h5.4l6.3-.5s6.3-1.4 7.5.2c1.2 1.7 2.4 2.6 1.8 5.2-.6 2.6-.6 4-2.1 4.8-1.5.7-5.4 2.1-5.4 2.1s.5-.2 2.1 1c0 0 1.8-.5 2.8-.9 1-.4 2-.8 2.8-1.6.8-.8 1.7-1.4 1.7-1.4" opacity=".05"/><path fill="#FFF" d="M43.7 41.7l-3.3-.5v-1.7s-.5-1.8.8-1.6c1.3.2 1.9-.3 2.5.4.6.7 1.2 1.9 1.2 1.9l-1.2 1.5zm4.5-5l-2.4-1.2-4.5-.9-1.8-2.5 1.2-1.9 2.1-.2 2.1.7 1.8 1.4 1.5 1.5 1.2 1.4z" opacity=".09"/><path fill="#FFF" d="M54.8 33.6l-2.7-.7-1.8-1.2-2.2-2.1 3.4.4 2.4 1.7 1.8.9z" opacity=".16"/><path fill="#FFF" d="M43.6 55l2.8.9.9-1.1-.9-1.5-2.3.4z" opacity=".05"/><path fill="#FFF" d="M43.1 41.7l-2.5-.4v-1.2s-.3-1.4.6-1.2c1 .1 1.4-.2 1.9.3s.9 1.4.9 1.4l-.9 1.1zm4.3-5.5l-1.8-.9-3.3-.7-1.4-1.8.9-1.4 1.6-.1 1.5.5 1.4 1 1.1 1.1.9 1.1zm6.2-3.3l-2.2-.6-1.5-1-1.8-1.7 2.8.3 2 1.4 1.5.8zM43.7 55l2.8.9.9-1.2-.9-1.4-2.3.4z" opacity=".13"/><path fill="#29803F" stroke="#29803F" stroke-width=".25" d="M52.8 52.6l-2-1.5-2.9-1.6 1.2-4.9.3-.7.4-1.6.6-.5.3-1.1 1.2-.2 1.1.6-1.3.3-.7 2-.9 1.6.6 4.3 1.2 1.2L54 52h1.2"/></g></switch></svg>
