<svg xmlns="http://www.w3.org/2000/svg" version="1.0" viewBox="0 0 83 97.3"><switch><g><path fill="#98CB66" stroke="#659941" stroke-miterlimit="10" d="M37.9 30.8c-1.4 5.2 0 12.5 1.8 18.1 1.6 5.1 2.3 9.8 2.7 15.2-.1-3.6-7.8-12.1-11.1-13.4l-1.6 1.4s3.4.7 6.8 5 3.9 3.9 4.5 9.8c.7 5.9-2.3 23.1 1.1 27.9 3.4 4.8-.2-7.7.7-17 .6-6.5 2-14.5-.2-23.6-1.6-6.6-4.3-14.1-3.9-17.5.5-3.4.2-6.4.2-6.4"/><path fill="#98CB66" stroke="#659941" stroke-miterlimit="10" d="M54 45.3c-.9 4-2.5 7.8-2.9 12-.5 4.9-.4 8.8-2.6 13.4-1.9 4.2-4 8.1-4.8 12.7-.6 3.2-1.7 8-.7 11.2 0 .1 0 .1.1.2 0 0 1.8 1.1 2-3.2.2-4.3 1.6-12 4.3-17 2.7-5 3.6-11.8 3.4-15.4s2.9-13.4 3.4-14.3c.5-1-2.2.4-2.2.4z"/><radialGradient id="a" cx="35.495" cy="17.547" r="17.323" gradientUnits="userSpaceOnUse"><stop offset="0" stop-color="#ef6596"/><stop offset="1" stop-color="#facbcb"/></radialGradient><path fill="url(#a)" stroke="#EF6596" stroke-miterlimit="10" d="M22.4 17.8c-2.2-.6-5-.1-5-3 0-1 .5-2.5.7-3.5.2-.9.1-.8.6-1.6.3-.4.7-.5 1-1 .2-.5 0-1 .3-1.5.2-.4 1-1 1.3-1.3.8-.7 1.5-.8 2.4-1.4 2.3-1.3 3.9-2.4 5.8.1v-2c.9-.2 1.5-.9 2.4-1.1.8-.2 2-.1 2.9-.1 2.2 0 4.2-.9 6.5-.3.9.3 1.6.6 2.5 1.1.8.4 2.2.5 2.9 1.1.4.3.3.8.6 1.2.2.2 1 .9 1.1.9.5 1.1 0 1.4-.6 2.4 2.7-.1 3 .8 4.4 2.9 1.2 1.8 1.8 3.3 1.4 5.6-.4 2.1.5 7-1.1 8.4-1.3 1.2-3.1 2.7-5 1.6 0 .8.6 1.4.4 2.3-.2.6-1 1.2-1.5 1.6-1.4 1.1-2.7 1.4-4.3 1.9-3.3.8-7.3 3.2-10.9 1.3-.2-1.2-1.8-.9-1.6-2.5-1.8.2-3 1.2-5 .9-1.6-.2-4-4.4-4.6-5.9-.5-1.2-.6-2.6-1.1-3.9-.5-1.3-.9-3 .9-3.4l2.6-.8z"/><radialGradient id="b" cx="36.386" cy="17.979" r="8.483" gradientUnits="userSpaceOnUse"><stop offset="0" stop-color="#ef6596"/><stop offset="1" stop-color="#facbcb"/></radialGradient><path fill="url(#b)" d="M27.2 11.1c.6-.1 2.2.9 2.7 1.4.2-.8-.6-1.4-1-2.1 1.6-.1 1.9 2.4 3.2 2.7.1-.7-1.2-3.4-.8-3.8.5-.5 1.7 2.3 1.9 2.6.2-.6-.2-2.4.4-2.7.8-.4.7 1.8 1 2.3.9-.8.2-2.6 2.1-2.7.2 1-.6 1.8-.4 2.8.9.1 1.5-2.1 2.9-1.9.1.6-.5.9-.6 1.4.7-.6 1.6-1.1 2.6-1 .2.8-.9 1.1-.9 1.9 1.6.1 3.2-1.2 4.9-1.1-.2.7-1.4.7-1.8 1.5 1.2.1 2.2-.3 3.3.2-.4.6-1.2.7-1.7 1.2.6.3 2.5.5 2.6 1.3-.7 0-1.4.3-1.9.7.8.4 1.7.8 2.4 1.4-2.1-.1-3.7-.2-5.7.6.5.5 1.6.4 2.2.9.5.4 1 1.2 1.4 1.7-.7-.3-1.4-.5-2.1-.8.5.6 1 1.1 1.4 1.8-.5-.2-1.1-.6-1.7-.7.1 1 .9 1.9.5 3-.6-.6-1.6-1.5-2.4-1.5.3 1.5.9 3.1-.2 4.5-.3-.4-.8-1-1.2-1.3-.1.4-.3.8-.6 1.1-.2-.6-.8-1.3-1.4-1.4 0 .7-.7 1.9-1.2 2.4-.5-.6-.9-1.5-1-2.3-.3.4-.4 1.2-.6 1.7-.1-.2-.2-.3-.3-.5-.6 2.6-1.1.1-2.1-.8-.5.6-1.1 2.5-1.8 1.1-.4-.8-.1-2.2-.1-3-.8.4-1.3 1.6-2.2 1.7-.1-.9.1-1.6.9-2.2-.8-.1-1.7.9-2.3 1.4-.8-1.6.9-2 1.4-3.1-.6 0-1.1 0-1.6.2-.3.1-1.3.6-1.6.4-1.1-.6.8-1.5 1.3-1.7-.5-.2-2.2.2-1.8-.8.3-.8 2.1-.3 2.6-.9-.5-.6-1.6-.5-2.3-.5.3-.9 3.5-.6 2.1-1.4-.4-.3-1.9 0-2.1-.5-.4-.9 1.1-.7 1.5-.8 1.9-.5-.6-.7-1.2-1.2-1.2-1 1.5-.8 2.2-.8-.1-1-1-.9-1.6-1.4-.8-.7 0-1.7.5-1"/><path fill="#C36" d="M30.9 17.2c1.2.5 1.3-.6 2.1-1.1.8-.5 2.1-.3 3-.3 1 0 2.3.7 3 1.4.7.7.5 1.3 1.4 1.7 0 0-3.5 3.2-5 2.7s-2.7-1.8-3.4-3.2c-.5-.5-1.1-1.2-1.1-1.2z" opacity=".3"/><path fill="none" stroke="#C36" stroke-miterlimit="10" d="M29.4 16.8c3 .1 3.3 4.4 5.9 4.8 3 .5 4.6-3.5 7.6-4.1" opacity=".56"/><path fill="#C36" d="M34.7 21.3c.3-.7-.6-1.8-.8-2.5-.6-.2-.8-.7-.9-1.4.1-.1.3 0 .4 0l-.3-.6h.4c0-.5.2-.8.2-1.3.1-.1.3 0 .4 0 0-.1.1-.4.2-.6 1.2-.1 2.1-.8 3.4.4.1.2-.1.3-.1.4.2 0 .4-.1.5 0-.1.4 0 .7-.1 1.2.3 0 .4.2.6.3-.5.2-.8 1.4-1.1 2-.3.7-.7 1.5-.9 2.2-.8.1-1.6.4-2.2-.1"/><path fill="#EF6596" d="M34.5 15.9c-.2.1-.3.3 0 .5-.2.3-.1.3 0 .6-.3.1-.4.3-.5.6.3.1.3.2.6 0-.1.5.3.9.7.5 0-.1 0-.1 0 0 .1.4.6.9.7.3.3.6.8 0 .4-.4.1-.1.4-.1.5-.2.4.7 1 0 .5-.1.5.2.7-.4.2-.5.4-.2.2-.9-.3-.6.1-.5-.3-.7-.7-.5 0-.4-.6-.8-.8-.4-.1-.4-.7-.5-.8-.1-.1-.1-.2-.1-.3-.1-.2 0-.2.1-.2.4" opacity=".51"/><path fill="none" stroke="#C36" stroke-miterlimit="10" d="M33.5 18c-2.6-3.7-6.2-5.7-10.7-6.6m11 5.9c0-1.7-2.1-4.1-3-5.4-1.6-2.2-3.9-4.4-6.6-5.5m12.7 8.8c2.1-3 4.5-6.7 8.4-7.7M36.2 15c.4-.5.4-2 .6-2.7.4-1 .6-1.9 1.1-2.9C39 7.2 41 5.6 43.2 4.7m-5.3 11.5c2.3-3.7 8.3-6.3 12.5-5.1m-17 9.2c-3.2-1.9-9.4-.1-11.5 2.9M34 21.1c-1.9 0-3.5.4-5.1 1.5-1.9 1.3-3.1 2.6-3.7 4.8m13.6-7.1c1.3 0 3 1.5 3.7 2.5 1 1.4 1.6 2.6 1.8 4.3M40 19.3c1.8-.4 3.9-.3 5.7 0 2.2.4 3.7 1.2 5.1 2.6" opacity=".33"/><path fill="#EF6596" d="M35.7 16c-.6-1.3-.9 1.4.1.2m-.4.8h-.6v.4c.2.1.5.1.8.1.1-.2 0-.3-.1-.5m1-.4c-.3.1-.4.2-.3.6.5.3.8.1.7-.5-.2 0-.3-.1-.4-.1"/><path fill="none" stroke="#EF6596" stroke-miterlimit="10" d="M29.2 30.8c.7-1.5-2.3-.5-2.9-.3-1 .3-2.7.9-3.6 0m-4.8-18.3c.2-1.9 2.5-1.6 3.2-3 .5-1 .9-3.5 2.4-4.4"/><radialGradient id="c" cx="62.816" cy="35.085" r="17.584" gradientUnits="userSpaceOnUse"><stop offset="0" stop-color="#ef6596"/><stop offset="1" stop-color="#facbcb"/></radialGradient><path fill="url(#c)" stroke="#EF6596" stroke-miterlimit="10" d="M56.8 49.1c-.6-2.1-5.4-2.4-7.1-3.4-2.3-1.4-5.4-4.2-4.7-7 .1-.6-.5-1.1-.5-1.8 0-.6.5-1 .5-1.7-.2-1.7 1.9-2 3-2.9 1.7-1.4 1-2.1.7-3.4-.3-1.1-1.6-2.1-1.6-3.3.1-1.2.9-1.4 1.9-1.5.1-2.3.4-3 2.8-3.6 2.2-.6 4-2.5 6.2-2.2 2.1.2 4.4.4 6.3 1.5 2 1.2 2.4 2.9 3.3 4.8 1.1-2.3 4.8-3 6.7-1.8 1.5 1 2.7 1.9 2.9 3.7.2 2.2.1 2.9 1.5 4.7 1.7 2.1 2.5 4.8 2.4 7.6-.1 2-.9 5.8-2.9 6.8-1.6.8-4 0-5.6-.3-1.3 2.8-2.4 4-5.3 5.3-1.7.8-5 2.1-6.5.6l-4-2.1z"/><path fill="none" stroke="#C36" stroke-miterlimit="10" d="M67.5 24.6c0 1.3-.9 2.5-1.7 3.5m-16.9 1.2c.1 1.2 1.1 2.2 2.1 2.6" opacity=".43"/><radialGradient id="d" cx="62.74" cy="34.902" r="6.504" gradientUnits="userSpaceOnUse"><stop offset="0" stop-color="#ef6596"/><stop offset="1" stop-color="#facbcb"/></radialGradient><path fill="url(#d)" d="M55.3 30.7c-1.1-.5-2.9-1.5-3-2.9.7.4 1.4.9 2.2 1 .1-2.3-.2-1.8 1.7-.9 0-.6-.3-2.2.5-2.3.6-.1 1.3 1.8 1.8 2.2 0-.2.3-.5.3-.9 1.6-.5.5 1.6 1.8 1.8 1.1.1.5-1.8 1.9-1.5.7 2.4.1 2.2 2.1.7 2.1-1.5 1.8.3 1.5 1.8 1.3-.1 3.5-1.9 4.7-.7-.5.6-3.2 1.6-2.3 2.4 1 .9 3.5-.7 4.7.7-1.2.5-3.1.1-3.9 1.2.9.4 3.3.1 3.6 1.2-.9 0-2 0-2.5.7 1 .3 2.6.3 3.1 1.4-.9 0-2.4-.1-2.7.9 1.2.4 3.4 1.3 3.1 2.9-1.1 0-2-1-3.1-1 2.1.9 2.7 4.1 0 2.8-1-.5-1.1-1.5-2.5-1.2-.9.2-1 1.1-2.2.9 0-.6-.2-.7-.6-1.1-.7.7-1.1 1.4-2.2 1.2.1-.3-.1-.8 0-1.2-.9.1-1.2 1.2-2.2 1.3-.5-.9.4-1.5.4-2.4-1 0-1.2 1.6-2.2 1.9-1.7.5-.3-1.1-.2-1.9-.4.4-1.1 1.1-1.8 1-1.1-.2-.3-1-.2-1.8-.6.3-1.9 1.1-1.9 0 0-.6 1.2-1.4 1.6-1.6-1.4-.2-2.2.8-3.3.7-.4-1.7 1.9-1.9 2.6-2.8-.6-.7-2.1.3-3 .3-.1-.2-.1-.6 0-.9.8-.3 1.9-.4 2.4-1.1-1-.5-2.2-.3-3.3-.4-1.3-2.3 3.1-1 3.5-2.2-.1-.2-.3-.3-.5-.5"/><path fill="#C36" d="M58.2 32.3c-1.9-.6 3.9-.3 5.7.9 1.8 1.2 1.4 3.4 2.9 4.5 0 0-4.2-.5-5.3-1.3-1-.7-2.8-3.9-3.3-4.1z" opacity=".3"/><path fill="none" stroke="#C36" stroke-miterlimit="10" d="M56.4 31.7c1.9-.4 3.5 3.8 5.1 4.7 2.4 1.4 6.3.5 7.9 3.4" opacity=".56"/><path fill="#C36" d="M59.7 34.4c-.1-.3.1-.8.7-.4.1-.2.3-.3.3-.5l.3.3c.2-.5.1-.2.5-.4 0 .1.1.2.1.4.2-.7.9-.5 1 .1.4-.3.8-.3.8.1.7-.2 1 .4.4.7.4.1.4.3.6.5-.1 0-.3.1-.4.1l.5.5c-.1 0-.2.1-.3.1.5.3.5.8.2 1.3 0 0-3.1.4-4.7-2.8z"/><path fill="#EF6596" d="M61.8 33.7c-.3.1-.4-.1-.5.3-.5-.1-1.1 0-1 .6.6-.1 2.2.9 2.2 1.4 1.8.4 1.3-.3 1.2-1.7-.9-.1-1.2-.4-2-.7" opacity=".51"/><path fill="#EF6596" d="M62 34.2c-.2-.1-.4-.1-.7-.1-.1.7 1.1.8.8.1m1.4 1.2c.1-.5-.4-.9-.7-.4-.3.5.3.7.6.4"/><path fill="#EF6596" d="M62.3 34.8c-.2-.1-.3-.1-.5-.1v.5c.3.2.5.1.8-.1-.1-.1-.1-.2-.2-.3"/><path fill="none" stroke="#C36" stroke-miterlimit="10" d="M59.8 33.8c.5-4-3.6-11.6-6.7-13.6m7.6 13.5c-.5-2.3-.1-3.7.6-5.9.9-2.9-.1-7.2-2.3-9.4m1.2 16.8c-2.6-1.3-13-.3-13.6 7.6m15.3-6.1c-4.1-.1-10.3 5-10.4 9.2M64 37.3c3 3.4 1.4 11.3-1.8 14.4m3.6-14.1c3.9 2.6 2.6 10 .3 13.5m11.1-22.9c-4.7 1.3-11.7 2-14.1 7.3M79.3 32c-4.8 0-12.7.2-15.9 4.5m9.2 8.9c-.6-1.4-1.7-2.2-2.7-3.4" opacity=".33"/><path fill="none" stroke="#EF6596" stroke-miterlimit="10" d="M49.2 30.8c.9 1.6 1 1-.3 2.3-.3.3-.7.4-.9.6-.2.1-.2.7-.5.9-.5.4-1.3.4-1.7.9-.8 1 .4 2.3.3 3.5-.1 1.3-1 2.5-.2 3.8"/><path fill="none" stroke="#C36" stroke-miterlimit="10" d="M72.8 45.3c.5-1.1 2.6-.3 3.8-.5 1.2-.2 3.1-1.2 3.8-2.3"/><path fill="none" stroke="#EF6596" stroke-miterlimit="10" d="M52.2 46.4c1.9.3 3.5-.4 5.1.9 1.3 1.1 2 2.7 3.4 3.7"/><radialGradient id="e" cx="35.426" cy="55.715" r="45.781" gradientUnits="userSpaceOnUse"><stop offset="0" stop-color="#ef6596"/><stop offset="1" stop-color="#facbcb"/></radialGradient><path fill="url(#e)" stroke="#EF6596" stroke-miterlimit="10" d="M30.2 49.8c-2.9-4.9-8.1-7.4-11.8-11.6-4.4-5.1.5-12.4 7-10.5-1.2-2.6-7.5-1.5-10-1.3-2.8.2-2 1-3.5 2.9-1 1.3-3.3 2.3-4 3.7-.8 1.6.2 3.8 0 5.4-.3 2.1-1.6 2.3-2.7 3.9-.8 1.3-.8 3.3-1.6 4.8-1.2 2-2.5 2.6-2.7 5.2-.1 1.6 2.1 9 3.6 5.9.3-.6-.4-1.5-.2-2.3.2-.8.8-1.3 1.3-2.1 1-1.5 1.9-3 3.5-4 2.4-1.5 7.2-.9 9.8-.1 3.4 1.1 5.9 2.1 9.7 2.1"/><path fill="none" stroke="#EF6596" stroke-miterlimit="10" d="M4.6 44.6c1.2-1.5 3.1-1.9 4.1-3.6 1.2-2.2.6-3.5-.1-5.6-.4-1.3-1.1-1.9.4-2.8.9-.5 1.9-.5 2.8-1.1.7-.4 1.5-1.2 1.8-2 .3-.9-.3-1.8 0-2.6m-9 31.3c-1-.9-1.5-1.2-2.1-2.4-.4-.8-1.4-1.9-1.4-2.9"/><path fill="none" stroke="#EF6596" stroke-miterlimit="10" d="M11.7 31.6c-.2 4.4 4.4 9 7.9 11.2 3.6 2.2 8.3 3.6 10.1 7.6M3.1 48.1c2-.7 3.1-1.7 5.4-1.8 3-.2 5.4.7 8.2 1.4 4.2 1 8.5 2.2 12.6 3.3"/><path fill="#CCDD60" stroke="#98CB66" stroke-miterlimit="10" d="M28.5 51.7c1.2.9 6.3 2.2 3.8-.5-.3-.3-2.2-1.7-2.6-1.6-1.1.1-1.6 1.7-1.2 2.4"/><path fill="#98CB66" d="M32.8 52.6c-2.7-2.1-4.8-8.4-3.6-11.7.6 2.1 2.2 3.9 2.9 6 .6 1.8.7 3.8.7 5.7"/><path fill="#98CB66" d="M32.5 52.8c-2.1 0-4.1-.2-6.2-.2-2.2 0-3.9.9-6 1.2 2.5.1 4.7 1.2 7.3.9 2.1-.2 3.7-.9 5.3-2.1"/><path fill="#98CB66" stroke="#659941" stroke-miterlimit="10" d="M41.3 74.1c-.9-.9-2.1-3.3-3.7-4.7-2.4-2.2-5-3.1-7.9-4.1-1.9-.7-6.1-3.4-7.7-3-1.2.3-2 1.7-3.3 2.1-1.2.3-3.3.4-4.5-.1 1.5-.6 2.2-2 3.5-2.7 1.2-.6 2.6-.5 4-.4-1.1-1.1-2.9-1.6-2.8-3.4 2.1-.2 4.5 1.3 4.5 3.6 3 .1 5.8 3.2 9.2 3.4-2.7-1.6-2.7-4.5-1-6.8 2.4 2 4.7 4.3 2.5 7.5 2.7 1.8 6.4 3.4 7.9 6.6m3.4 11.1c1.5-5.1 4.6-7.4 9.8-7.3 2.3.1 3.7 1 5 2.9 1.1 1.6 1.1 3.6 2.2 5-1.8-2.7-6.6.6-9.2-.5-1.6-.6-2.6-2.4-4.6-2.2-2.3.1-2.2 2.1-3.4 2.9M52 53.9c0-3.2-2.9-4.5-5.2-6-.3 2.9 2.7 4.5 4.6 6.1-2-.1-4 1.6-5.7 1 2.1 1.5 4.3 1.8 6.2-.1.9 1.3 2.4 3.1 3.9 3.8.5-3.5-2.4-3.1-4.3-5"/><path fill="none" stroke="#659941" stroke-miterlimit="10" d="M45.2 83.4c1-8.1 13.3-4.8 16.6-.2m-30.2-25c-1.3 2.2 2.2 4.8 1.6 7m-18.6-.9c1.6.3 2.2-.9 3.6-1.4 1.1-.4 2.3-.5 3.5-.6"/><path fill="#98CB66" stroke="#659941" stroke-miterlimit="10" d="M37.5 36.4c-1.3 0-1.8-.2-2.9.2-1 .3-1.3 1.2-2.5 1.2 1.8 1.3 3.7 1.6 5.6.3-1.7 1.3-2.6 3.1-2.9 5.1 3.1 0 2.5-3 3.2-5"/><path fill="#98CB66" stroke="#659941" stroke-miterlimit="10" d="M37.7 37.6c1-1.5 2.4-2.8 4.5-2.4-1.3 1.9-1.9 2.9-4.5 2.7m5.4 28.5c1-4 5.6-6.7 9.5-5.4 3.2 1 5.7 6.8 3.6 9.9.9-4-5.1-2.5-6.7-1.9-1.5.5-7.8.7-6.2-2.6"/><path fill="none" stroke="#659941" stroke-miterlimit="10" d="M43.4 66.6c1.1-5.9 14.1-3.8 13.2 3.2"/><path fill="#98CB66" stroke="#659941" stroke-miterlimit="10" d="M41.3 83.6c-.5-1.5-1.2-6.1-3-7.4-1.1-.8-2.4-.3-3.6-.3-1.7 0-2.9-.5-4.5-.8-3.7-.7-4.1 2.3-6.4 4.3-2.5 2.1-5.6 3.8-4.9 7.6 1.5-1.8 4.3-1.4 6.5-1.3 2.3.1 4.6.1 6.8-.9 1.7-.8 2.8-2.8 4.9-2.2 1.5.5 2.3 2.5 4.1 2.7"/><path fill="none" stroke="#659941" stroke-miterlimit="10" d="M19.1 86.3c.4-2.3 3.6-2.4 5.4-3.1 2.8-1.1 4.9-3.1 7.7-4.2 5.3-2.1 6.1.9 8.9 4.4"/></g></switch></svg>
