<svg xmlns="http://www.w3.org/2000/svg" version="1.0" viewBox="0 0 41.7 46.2"><switch><g><path fill="#CC6732" stroke="#986732" stroke-width=".5" d="M21.8 37.7c-.4.5-.7 1.2-1.1 1.8.6-.2 1.5-.6 2.1-.5.5.1.7.1.7.6.1.8-.3.4-.8.4-.8.1-1.4.6-2.1.6-.8 0-1.7-.2-2 .8-1.3 1-1.1-1.2 0-1.9.7-.4 1-.2 1.4-1.1.3-.6.6-1.2 1-1.8m3.8 6.1c1.2.8 2.3-1.1 3.3-.6.9.5-.1.9-.5 1-.5.1-1.3.6-1.7.3"/><path fill="#CC6732" stroke="#986732" stroke-width=".5" d="M24.4 40.2c.1 2.5 1 3.2 3.1 3.1.6 0 1.8-.5 2 .6.3 1.3-1.3.8-2 .7-1.6-.4-3.4-.5-5-.4-.4 0-2.4.8-1.2-.6.5-.6 1.7-.2 2.4-.3 0-1.1-.4-2-.5-3.1"/><path fill="#969595" stroke="#676768" stroke-width=".5" d="M26.8 34.9c-.9 1.7-1.6 4.1-.5 5.7-.4.4-.9.4-1.3-.1-.2 1.5-1.1 1-1.5.1-.6.8-2 1.1-1.6-.5-.3.4-.7.6-1.1.6-.5-1.2 1.1-3.6 1.2-5m5.3-24.5c-4.2.2-6.4 1.7-8.6 5.3-1.9 3.1-4.6 6.1-6.1 9.4-.8 1.8-1.7 2.8-3 4.1-.8.8-3 1.9-3.3 3.1.9.2 1.9-.4 2.8-.8v.4c1.3.2 3.3-.9 4.3-1.9 0 0 15.5-5.4 17.7-8.7 0 0 4 0 4.5-1.7s1.5-4.1 1.1-5"/><path fill="#676768" d="M12.2 26.5c-.6 1.5-1.9 2.8-3.1 3.8-.7.7-3.2 2.2-3.3 3.3.8.1 1.8-1 2.6-1.3-.7.5-1.7 1.4-2 2.3 1.3.3 3.1-1.3 4.1-2.2 1.3-1.1 2.5-2.6 2.7-4.4-.5-.1-1 .6-1.5.9 0-.5.2-1.1.2-1.7m22.5-1c0 .1 0 .3-.1.1.1-.7.6-1.6.5-2.2 0-.3-.4-.5-.3-1.1.1-.4.3-.7.5-.9-2.3.1-.7-2.3-.6-3.6-.4.1-.8-.3-.8-.8-.9.6-2-.1-1.5-1.4-1.2.5-1.9 0-1.4-1.5-1.4 1.1-1-.8-.8-1.6-.5.7-1.9.7-1.8-.5-.4.2-1.2.9-1.4 0-1.1.5.1-1.4.3-1.7.7-.9 1.4-1.6 1.9-2.7.9-2 1.6-4.3 3-6C33 1 34.7-.4 36.5.1c1.8.4 3 2.6 2.5 4.4-2.2 1.9-2.1 2.6-2.4 3.9-.8 1.6.1 4 .5 5.6 1 4.5 1.6 9.5-2.3 12.6l-.4-.4z"/><linearGradient id="a" x1="24.238" x2="-14.207" y1="25.423" y2="46.639" gradientUnits="userSpaceOnUse"><stop offset="0" stop-color="#969595"/><stop offset="1" stop-color="#676768"/></linearGradient><path fill="url(#a)" stroke="#676768" stroke-width=".5" d="M20.4 15.8c-1.7 2-3.3 3.8-4.2 5.7-.4.9-3.6 8.5-4.4 9.4-1.4 1.6-2.1 1.5-3.8 2.7-1.6 1.1-3.1 2-4.8 2.8-2.1 1.1-2.4 1.5-1.9 4 .9.4 1.5-.2 2.3-.5-.8.4-1.9 1.2-2.7 1.7-.8.6-1.4 1.8-.4 2.7 1.5 1.4 4-.5 5.2-1.4-.4.9-1 1.5-1.6 2.3 1.6 2.9 5.7-1.8 6.9-3.3-.5.8-1 1.8-1.6 2.5 2.9.2 5.6-3.1 7.6-5.3 1-1.1 1.8-2.4 2.8-3.5 1.4-1.5 3.1-2.6 4.7-3.8"/><path fill="#676768" d="M26.4 35.1c-1.2 2.3-6.8 5.8-9.4 4.9.2-1.1.9-1.8 1.4-2.6-3.1 3.9-9.1 5.3-13.8 3.9-4.3-1.3.7-2.1 2.1-2.8 2.1-1.1 3.9-2.9 5.4-4.8 2.3-2.8 4.9-5.4 7-8.3"/><path fill="#969595" stroke="#676768" stroke-width=".5" d="M22.7 18.5c2.5-1.5 3.2-3.8 6.4-3.7 2.5.1 4.6.3 6.4 2.3 1.6 1.8 2.5 5.1 1.4 7.7-.8 1.8-1.8 4-3.1 5.2-1.2 1.2-2.2 2.5-3.6 3.5s-3 1.9-4.6 2.3c-1.2.3-4.2-.5-2.3-2.3-1.6 1.3-3.6 2-5.4 2-3.2 0-2.2-2.1-.2-3.7-3.8.7-1.2-3.8.4-4.8-.4.3-.6 0-1.1.1-.4-2.2 2.9-4.1 3.8-5.9"/><path fill="#676768" d="M20.3 22.9c-1 2 1 2.7 2.3 1.7-.8 2.3 1.8 1.6 2.8.9-.4 1.6.9 3 2 1.5 0 1 .5 2.2 1.5 1.3 0 1.3 1.4 1.9 2.3 1.3-.1.3 0 .7-.1.9.5.2.6.4 1.1.2-.4 1.1-1.7 1.1-1.9 0-.8.6-1.4-.2-1.5-1.1-.6.5-2 .7-1.8-.6-1.3.1-2.4-.2-2.4-2-.8.3-3.8 1.2-3.1-.8-.6.3-1.2.2-1.9 0-.4 1.4 1.1 2.4 2.2 2.3.1 1.3.9 2.1 2 1.8-.3 1.3 1.3 1.7 2 1.1-.1.6 0 1.2.2 1.6.5.3.7.4 1.2.2 0 .6.4 1.1.9 1.2-.7.6-2.4 1.1-2.6-.1-1.5.8-.6-2-2.2-1.5 0-1.7-3.8.1-2.8-2.7-1.5-.2-.9-.5-1.5-1.5-.2-.3-.7 0-.9-.6-.1-.5.3-1.1.2-1.5-.1-.9-1.2-1.1-.2-2.3.5-.6 1.4-.6 2-1"/><path fill="#676768" d="M32.9 17.1c2.3 3.8 1.4 7.8-1.3 11.2-1.2 1.5-7.3 7.2-8.1 3.1-1.3 1.8-3.7 2-5.5 2 .3 2 3.8.7 4.9.3-.4 2.9 4.3.5 5.2-.1 2.2-1.4 4.5-2.9 6.3-4.9 1.7-1.8 2.8-3.8 2.7-6.5 0-1.3-.4-2.4-1.1-3.4-.8-1.1-1.8-1.1-2.7-1.9 0-.1-.1-.1-.2-.2" opacity=".12"/><path fill="#343433" stroke="#231F20" stroke-width=".5" d="M38.9 3.1c.8 0 1.6.7 1.8 1.6-.2.1-.7-.2-.9-.2-.4 0-.8.2-1.1.2.1-.4.4-.9.2-1.4"/><path fill="#CACA97" d="M35.8 2.1c.1-.4.5-.5.8-.4.4.2.3.6.5.9-.1.2-.2.4-.4.5-.2.1-.5-.1-.7-.1-.1-.3-.2-.6-.2-.9"/><linearGradient id="b" x1="36.684" x2="36.247" y1="6.021" y2="-.797" gradientUnits="userSpaceOnUse"><stop offset="0" stop-color="#973721"/><stop offset="1" stop-color="#f79839"/></linearGradient><ellipse cx="36.5" cy="2.4" fill="url(#b)" rx=".5" ry=".6"/><circle cx="36.5" cy="2.4" r=".3" fill="#343433"/><path fill="#FFF" d="M36.5 2.1c0-.7-.9.2-.4.5.1-.4.2-.4.4-.5" opacity=".3"/><path fill="#CACA97" stroke="#979764" stroke-width=".5" d="M39.6 3.3c-.4 0-.6.3-1 .2-.1-.4.1-.7.3-1 .2.2.4.5.6.6"/><path fill="#343433" d="M36.1 12c.1.5-.3 1.6-.7.9.1 1.6-1 .3-1.4.5 0 .6.6 1.7 1.1.9.1.4.2.4.4.7.1-.2.3-.3.3-.5.3.1.3.1.5 0 0 1.4-.1 2.7.7 3.9.7-1.8-.3-4.6-.8-6.3m-2.7-.2c.1 1.1-1.3 1-.9-.4-.5.8-1.2-.3-.8-1-.5.9-1.3.5-1.1-.5-.3.2-.6-.1-.7-.4-.1.5-.2 2.5.7 1.6-.2.5.1.9.5.6-.4.8.6 1 1 .4-.1 1.6 1.5 1.3 1.2.2m2-2.8c0 .5-.7.8-.8 0-.4.7-1 .1-1.2-.5 0-.1-.1.2-.2.3-.1-.2-.3-.3-.4-.5-.2.5 0 1.7.8 1.4-.1.7.6 1.1.8.4.5 1.1 1.2-.1 1.2-.9" opacity=".12"/><path fill="#CACA97" stroke="#979764" stroke-width=".5" d="M29.1 43.6c.4-.1.8.7.6 1.2-.1-.4-.3-.7-.7-.7m-7.8-.3c-.4-.2-.7.3-.6.8.2-.2.4-.4.7-.3m6.6-2.2c.4-.1.8-.2.9.3-.2 0-.5 0-.7.1m-10.2-1.4c-.4.2-.5.7-.5 1.1.3-.2.6-.5.9-.8"/></g></switch></svg>
