<svg xmlns="http://www.w3.org/2000/svg" version="1.0" viewBox="0 0 117 61.3"><switch><g><path fill="#FCBD58" d="M2.7 21.2C1 23.7-.5 24 .1 27.4c.9 5.2 1.5 8.8 5 12.8 3.4 3.8 7.9 7.2 12.1 10 1.9 1.3 4.3 1.6 6.4 2.4 2.4.9 4.6 2.3 7.1 2.9 2 .5 4.2.4 6.2.7 2.5.3 4.6 1.4 7 2 4.1 1 8.9 2.1 13.1 1.6 4.5-.6 8.8-.7 13.2-1.6 4.2-.8 8.8.1 13.1-.5 2-.3 3.5-1.5 5.4-2.1 2-.6 3.9-.5 5.8-1.6 2.1-1.1 3.4-2.5 5.6-3.3 2.2-.8 3.5-1.3 5.3-2.8 3.2-2.6 7.6-5.2 8.6-9.5.6-2.6 1.9-6.1 1.2-8.8-.5-1.7-1.5-1.7-2.3-2.9-1.1-1.6-.8-4.1-1.3-5.9-1-3.3-2.3-3-4.8-5-4.4-3.6-7.6-6.5-13.3-8-2.4-.6-4.7-1.4-7-2.1-2.1-.7-4.7-.3-6.7-1.1-1.1-.4-2-1.2-3.1-1.6-1.2-.5-2.6-.5-3.9-.8C65.6.8 58.2.5 50.8.1 45.6-.2 40.3.4 35 .6c-2.8.1-5.1 1.4-7.9 1.6-3.1.3-5.4.6-8.1 2.3-3.2 2.1-7 3.5-10.2 5.9-3.8 3.1-3.5 6.9-6.1 10.8z"/><path fill="#C44E2C" d="M79.4 48.9c1-.3.9-1.1 1.6-1.4 1-.4 1.6-.2 2.6-.4 1.6-.3 2.9-.8 4.4-1.5 1.5-.7 3.4-.6 4.7-1.2 1.6-.7 1.6-1.9 2.6-3.1 1.3-1.4 3-1.9 4.5-2.7 1.5-.8 2.7-1.1 3.3-2.8.7-2-.1-2.6 1.2-4.4.4-.6 1.3-.1 1.7-1 .2-.6-.3-1.2-.3-1.7 0-1.4-1.4-3.3-1.1-4.4.6-1.7 2.8-1.3 1.8-3.9-.5-1.5-2.5-2.5-3.6-3.6-2.4-2.3-5.7-4-8.5-5.6-4-2.3-8.3-2.2-12.5-3.6-1.2-.4-2-1.2-3.2-1.7-2.1-.9-4.5-.8-6.8-.7-4.8.4-8.8-1.6-13.5-2.5-2.4-.4-4-1.3-6.4-.8-2.5.6-4.2 1.6-6.9 1.6-4.5 0-8.5.8-13 .9-2.6.1-4.3.6-6.5 2.1-2.4 1.7-4.2 2.4-6.8 3.6-2.2 1-4.8 3.1-6.6 4.7-2 1.9-2.2 4.5-3.6 6.8-1.1 2-2 4.2-1 6.4.6 1.4 2.5 4.5 4.3 5.2 1 .4 2.3-.2 3.3.5 1.2.8.8 1.9 1.4 2.9 1.3 2 4.3 3.6 6.1 5.2 1 .9 1.9 1 3 1.6 1.1.6 1.6 2 2.6 2.5 1.6 1 5 .8 6.8 1.5 1.6.6 1.3.7 3.1.4 1.3-.2 2.2-1.5 3.7-.9 1 .4 1.3 1.7 2.5 2.1 1.1.4 2.7-.3 3.8 0 1.2.2 1.8.9 3 1 1.1.1 2.4-1 3.6-1 2.5 0 4 1.6 6.8 1.2 2.7-.3 4.4-2.6 6.9-3.1 1.8-.3 3.2 1.1 4.8 1.5 1.7.7 4.8.7 6.2.3z"/><path fill="#C44E2C" d="M80.4 46.7c2.1 0 4.6-1.7 6.5-2.6 2.6-1.2 4.6-2 6.5-3.9.8-.8 1.5-2 2.4-2.6.3-.2 1 .2 1.4 0 .8-.4 1-1 1.6-1.6 1.1-1.1 1.1-1.8 1.8-3 1-1.6 2.3-1.7 2.1-3.9-.1-1.6-1.7-1.7-.6-3.6.8-1.4 2.4-1 2.5-3 .1-1.7-1.5-1.8-2.2-2.6-.9-.9-1.6-2.4-2.7-3.4-1.7-1.6-5-3.5-7-4.7-1.2-.7-2.4-.4-3.5-.9-1.4-.7-2.1-2.3-3.6-3.1-1.8-1-3.7-.6-5.7-1.1-2.4-.7-4-1.2-6.5-1.2-4.4.1-8.5-.7-12.5-1.8-1.1-.3-1.4-1-2.9-.9-.9 0-2 .6-2.9.8-2.1.4-4.4.6-6.5.4-2-.2-3.8-1.2-5.9-.4-1.1.4-1.9 1.6-3.1 1.8-1.4.4-2.2-.4-3.6-.4-2.3-.1-3.9 1.4-6 2.1-1.2.4-1.8.3-3.1.9-1.3.6-2.3 1.7-3.4 2.5-1.8 1.3-3.7 2.5-5.6 3.4-1.2.6-2 .4-2.8 1.5-.3.4.1 1.1-.1 1.6-.4.7-1.1 1.3-1.5 2-2.5 4.7-2.2 8.4 1.4 12.4 1.6 1.8 3.7 2.5 5.5 3.8.9.7 2.3 1.5 2.9 2.5.2.3.5 1.5.7 1.7.5.5 1 .6 1.3.9 1.2 1.1 3 3 4.3 4 1.5 1.2 3.7 1.4 5.4 2.1 3.6 1.6 7-.1 10.5 1 1.8.5 3.2 1.7 5.1 1.9 1.9.2 3.6-.5 5.4-.5 3.5 0 7.8 1.5 10.7-1.1"/><path fill="#191818" stroke="#4363AD" stroke-width=".25" d="M21.2 50.1c2.1-1.7 3.1 1.6 4.7 2.4.5.2 2 .2 2.6.3 1.2.1 1.9.2 3.1.4 3.8.8 7.4 2 11.1 2.7 2.2.4 3.3-.3 5.4-.5 2-.2 3.8.4 5.8.7 1.6.2 3.6.7 5.2.5 2.1-.3 3.5-1.6 5.7-1.8 1.8-.1 3.5-.1 5.2-.3 1.9-.3 3.8-1.2 5.7-1.2 1.9 0 3.5.9 5.4 1 1.9.1 3.8-.5 5.7-.5 2-.1 3.4.2 5.2-.9 1.7-1 3.3-2.7 5.3-3.5 1.7-.7 3.7.1 5.3-1.3 2-1.9.7-3.6.6-5.8 2.4-1 2.7 1 4.7 1.1 2.3.1 1.9-2.2 2.4-3.7 2.3 1.3 2.2-3.2 3.9-4.2.3 4.7-5.7 9.3-9 11.9-4.1 3.1-8.4 4.8-13.2 6.8-4.9 2-8 3.4-13.4 3.6-4.6.2-9 1.6-13.7 1.6-9.3 0-18-.5-27.1-2.4-2.2-.5-4.1-1.4-6.3-1.6-2.6-.2-4.5-.1-6.9-1.4-2.1-1.2-4.2-2.1-6.1-3.2-1.5-.9-6.4-1.7-6.6-3.9-.3-.2-.4-.5-.2-.7 1 .1 1.7.8 2.6.9.8.1 2.1-.3 2.7-.2 1.7.3 2.8 1.6 4 2.8" opacity=".06"/><path fill="#B65026" d="M87.3 53.1c-.3.3-.8.5-.8 1 .5.5 1-.2 1.2-.7 0-.1-.1-.2-.3-.2m-62.9-6c-.1.1-.2.2-.1.3.5.2 1.1-.4.4-.5m84.7-19c.2 0 .5.2.4.4-.3.2-.7.1-.7-.3.1-.1.2-.1.4-.1m-1.8 3.2c.4-.1.7.1.6.5-.5.2-.7-.1-.6-.5M94.7 8.4c-.3.1-.8.2-.8.4.5.2 1-.1 1.2-.3 0-.1-.1-.1-.3-.1M82.4 5.6c-.1.1-.4.2-.4.5.3.2.5-.1.6-.3 0-.1-.1-.1-.2-.2M7 35.1c.3-.3.8 0 .5.4-.3.4-.9-.2-.5-.5M74.4 2.9c-.3.1-.8.2-.8.4.5.2 1-.1 1.2-.3 0-.1-.1-.1-.3-.1m38 26.7c-.1.1-.4.2-.4.5.3.2.5-.1.6-.3 0-.1 0-.2-.2-.2M62.9 1.7c.3-.3.8 0 .5.4-.3.4-.9-.1-.5-.5M46.3 54c.2 0 .5.2.4.4-.3.2-.7.1-.7-.3.1-.1.2-.1.4-.1m53.1-42.9c.2 0 .5.2.4.4-.3.2-.7.1-.7-.3.1-.1.2-.1.4-.1M89.1 53.7c.2 0 .5.2.4.4-.3.2-.7.1-.7-.3.1-.1.2-.1.4-.1m15.1-20.9c.2 0 .5.2.4.4-.3.2-.7.1-.7-.3.1-.1.2-.1.4-.1m-83-26.6c.2 0 .5.2.4.4-.3.2-.7.1-.7-.3.1-.1.2-.1.4-.1m21.9-4.5c.2 0 .5.2.4.4-.3.2-.7.1-.7-.3.1-.1.2-.1.4-.1m32.8 52c.2 0 .5.2.4.4-.3.2-.7.1-.7-.3.1-.1.2-.1.4-.1m32.4-35.8c.2 0 .5.2.4.4-.3.2-.7.1-.7-.3.1-.1.2-.1.4-.1m-3.2 19.7c.2 0 .5.2.4.4-.3.2-.7.1-.7-.3.1-.1.2-.1.4-.1M36 50.6c.2 0 .5.2.4.4-.3.2-.7.1-.7-.3.1-.1.2-.1.4-.1m63.3-3.9c.2 0 .5.2.4.4-.3.2-.7.1-.7-.3.1-.1.2-.1.4-.1m-86.1-6.5c.2 0 .5.2.4.4-.3.2-.7.1-.7-.3.1-.1.2-.1.4-.1m45.9 12.6c.2 0 .5.2.4.4-.3.2-.7.1-.7-.3.1-.1.2-.1.4-.1M6.8 19.7c.2 0 .5.2.4.4-.3.2-.7.1-.7-.3.1-.1.2-.1.4-.1m6.9-10.8c.2 0 .5.2.4.4-.3.2-.7.1-.7-.3.1-.1.2-.1.4-.1m5.6 33.6c.2 0 .5.2.4.4-.3.2-.7.1-.7-.3.1-.1.2-.1.4-.1"/><path fill="#B6903A" d="M27.6 50.3c-.3.3-.7.5-.8 1 .5.5 1-.2 1.2-.7 0-.1-.1-.2-.3-.2m-24-17.7c.1 0 .2 0 .2.1-.2.4-.7.4-1 .1.1-.3.4-.4.8-.2m14.9 6.9c-.1.1-.2.2-.1.3.5.2 1.1-.4.4-.5m20.9 14.5c.2 0 .5.2.4.4-.3.2-.7.1-.7-.3.1-.1.2-.1.4-.1m-6.3-.7c.2-.1.4 0 .6.1-.2.5-1 .3-1-.2.1-.1.2-.1.4-.1m37.7 1.6c.4-.1.7.1.6.5-.4.2-.7-.2-.6-.5m-17.1-2.5c-.3.1-.8.2-.8.4.5.2 1-.1 1.2-.3 0-.1-.1-.1-.3-.1m56.1-16.8c-.1.1-.4.2-.4.5.3.2.5-.1.6-.3 0-.1-.1-.1-.2-.2m-46 16.6c.3-.3.8 0 .5.4-.3.4-.9-.1-.5-.5M32 3.5c.1 0 .2 0 .2.1-.2.4-.7.4-1 .1.1-.3.4-.4.8-.2m74.4 37c.2 0 .5.2.4.4-.3.2-.7.1-.7-.3.1-.1.2-.1.4-.1M7.1 31c.2-.1.4 0 .6.1-.2.5-1 .3-1-.2.1-.1.2-.1.4-.1m97.6-14.4c.4-.1.7.1.6.5-.5.1-.7-.2-.6-.5M60 56c-.3.1-.8.2-.8.4.5.2 1-.1 1.2-.3 0-.1-.1-.1-.3-.1m24.3-4c-.1.1-.4.2-.4.5.3.2.5-.1.6-.3 0-.1-.1-.1-.2-.2m-63.5-5.8c.3-.3.8 0 .5.4-.3.4-.9-.1-.5-.5m3.8-43c.2 0 .5.2.4.4-.3.2-.7.1-.7-.3.1-.1.2-.1.4-.1m60 2.8c.2 0 .5.2.4.4-.2.3-.6.1-.6-.3.1-.1.2-.1.4-.1M67.8 3.4c.2 0 .5.2.4.4-.3.2-.7.1-.7-.3.1-.1.2-.1.4-.1M35.6 1.7c.2 0 .5.2.4.4-.3.2-.7.1-.7-.3.1-.1.2-.1.4-.1m52.7 50.6c.2 0 .5.2.4.4-.3.2-.7.1-.7-.3.1-.1.2-.1.4-.1m-38.9 6.3c.2 0 .5.2.4.4-.3.2-.7.1-.7-.3.1-.1.2-.1.4-.1M89.5 7.9c.2 0 .5.2.4.4-.3.2-.7.1-.7-.3.1-.1.2-.1.4-.1m-78.4 34c.2 0 .5.2.4.4-.3.2-.7.1-.7-.3.1-.1.2-.1.4-.1M40.2 2.6c.2 0 .5.2.4.4-.3.2-.7.1-.7-.3.1-.1.2-.1.4-.1m66.5 23.3c.2 0 .5.2.4.4-.3.2-.7.1-.7-.3.1-.1.2-.1.4-.1M9.5 16c.2 0 .5.2.4.4-.3.2-.7.1-.7-.3.1 0 .2-.1.4-.1m6.1 28.4c.2 0 .5.2.4.4-.3.2-.7.1-.7-.3.1-.1.2-.1.4-.1m-4.9-7c.2 0 .5.2.4.4-.3.2-.7.1-.7-.3.1-.1.2-.1.4-.1m18.2 11.8c.2 0 .5.2.4.4-.3.2-.7.1-.7-.3.1-.1.2-.1.4-.1m61.6 0c.2 0 .5.2.4.4-.3.2-.7.1-.7-.3.1-.1.2-.1.4-.1M29.6 3.1c.2 0 .5.2.4.4-.3.2-.7.1-.7-.3.1-.1.2-.1.4-.1m66.8 8c.2 0 .5.2.4.4-.3.2-.7.1-.7-.3.1-.1.2-.1.4-.1M47.5.8c.3 0 .5.2.5.4-.3.2-.7.1-.7-.3.1-.1.2-.1.4-.1m31.5 49.8c.2 0 .5.2.4.4-.3.2-.7.1-.7-.3.1-.1.2-.1.4-.1M8.4 39.4c.2 0 .5.2.4.4-.3.2-.7.1-.7-.3.1-.1.2-.1.4-.1M25 50.1c.2 0 .5.2.4.4-.3.2-.7.1-.7-.3.1-.1.2-.1.4-.1M3.7 25.7c.2 0 .5.2.4.4-.3.2-.7.1-.7-.3.1-.1.2-.1.4-.1M52.9 1.1c.2 0 .5.2.4.4-.3.2-.7.1-.7-.3.1-.1.2-.1.4-.1m46 43c.2 0 .5.2.4.4-.3.2-.7.1-.7-.3.1-.1.2-.1.4-.1m-10.7 6.3c.2 0 .5.2.4.4-.3.2-.7.1-.7-.3.1-.1.2-.1.4-.1m21.4-28.3c.2 0 .5.2.4.4-.3.2-.7.1-.7-.3.1-.1.2-.1.4-.1M13.1 35.9c.2 0 .5.2.4.4-.3.2-.7.1-.7-.3.1-.1.2-.1.4-.1M6 22.1c.2 0 .5.2.4.4-.3.2-.7.1-.7-.3.1-.1.2-.1.4-.1M43 51.4c.2 0 .5.2.4.4-.3.2-.7.1-.7-.3.1-.1.2-.1.4-.1M77 3.9c.2 0 .5.2.4.4-.3.2-.7.1-.7-.3.1-.1.2-.1.4-.1M18.4 8.2c.2 0 .5.2.4.4-.3.2-.7.1-.7-.3.1-.1.2-.1.4-.1m84 37.9c.2 0 .5.2.4.4-.3.2-.7.1-.7-.3.1-.1.2-.1.4-.1m-6.1 1.1c.2 0 .5.2.4.4-.3.2-.7.1-.7-.3.1-.1.2-.1.4-.1M59.4 1.4c.2 0 .5.2.4.4-.3.2-.7.1-.7-.3.1-.1.2-.1.4-.1m24.7 45.8c.2 0 .5.2.4.4-.3.2-.7.1-.7-.3.1-.1.2-.1.4-.1m15.3-6.7c.2 0 .5.2.4.4-.3.2-.7.1-.7-.3.1-.1.2-.1.4-.1m-7.4 5.3c.2 0 .5.2.4.4-.3.2-.7.1-.7-.3.1-.1.2-.1.4-.1m-22.2 3.4c.2 0 .5.2.4.4-.3.2-.7.1-.7-.3.1-.1.2-.1.4-.1m-17.8 5.1c.2 0 .5.2.4.4-.3.2-.7.1-.7-.3.1-.1.2-.1.4-.1M70.9 2.4c.2 0 .5.2.4.4-.3.2-.7 0-.7-.3.1-.1.2-.1.4-.1M9.1 13c.2 0 .5.2.4.4-.3.2-.7.1-.7-.3.2-.1.3-.1.4-.1M39.5.5c.2 0 .5.2.4.4-.3.2-.7.1-.7-.3.1-.1.2-.1.4-.1M102 13c.2 0 .5.2.4.4-.3.2-.7.1-.7-.3.1-.1.2-.1.4-.1m11.3 19.3c.2 0 .5.2.4.4-.3.2-.7.1-.7-.3.1-.1.2-.1.4-.1M64.2 55.5c.2 0 .5.2.4.4-.3.2-.7.1-.7-.3.1-.1.2-.1.4-.1m14.6.3c.2 0 .5.2.4.4-.3.2-.7.1-.7-.3.1-.1.2-.1.4-.1M4 20c.2 0 .5.2.4.4-.3.2-.7.1-.7-.3.2-.1.3-.1.4-.1"/><linearGradient id="a" x1="80.332" x2="86.355" y1="13.972" y2="13.972" gradientUnits="userSpaceOnUse"><stop offset="0" stop-color="#faaf40"/><stop offset="1" stop-color="#fff100"/></linearGradient><path fill="url(#a)" d="M85.6 16.3c-.6-.4-2-1.3-1.6-2.2.5-1 2.2.3 2.2-1.1-.7-.3-1.3.1-1.9.2-.4-1.1 1.3-1 2-.8-.2-1.1-2.4-.7-3.1-1-.3-.1-1.5-1.2-1.7-1.1-1.9.2.4 1.2.4 1.2.6 1.6-1.4 2.1-1.6 3.6-.2 1.4 2 2.4 3.1 2.6.3-.9 1.1-1.3 2-1.3"/><linearGradient id="b" x1="88.688" x2="94.045" y1="37.234" y2="37.234" gradientUnits="userSpaceOnUse"><stop offset="0" stop-color="#faaf40"/><stop offset="1" stop-color="#fff100"/></linearGradient><path fill="url(#b)" d="M88.7 38.7c-.4-1.7 1.4-.8 2.1-.9 1.3-.3 1.1-.9 1.2-2.1 1.5-.1 3 2.1 1 2.7-1.2.3-2.8.3-4 .3"/><linearGradient id="c" x1="66.781" x2="72.98" y1="43.256" y2="43.256" gradientUnits="userSpaceOnUse"><stop offset="0" stop-color="#faaf40"/><stop offset="1" stop-color="#fff100"/></linearGradient><path fill="url(#c)" d="M72.7 42.9c-1.1.4-2 .8-3.1.4-.6-.2-2.6-2.2-2.8-1.1-.2 1.2 2.2 1.9 2.9 2.1 1.3.3 2.5.4 3.3-1"/><linearGradient id="d" x1="41.874" x2="49.719" y1="44.999" y2="44.999" gradientUnits="userSpaceOnUse"><stop offset="0" stop-color="#faaf40"/><stop offset="1" stop-color="#fff100"/></linearGradient><path fill="url(#d)" d="M47.9 42c2.4-.5 2 3.9.8 4.6-1.7 1-4.5-2.7-4.9 1.4-.7.1-1.6-.2-1.9-1-.4-1.2.8-1.4 1.4-1.6 1.6-.6 3.1-1.3 4.5-2.4-1.2-.2-2.4.4-3.4-.5 1.2-.8 3.8-.2 5.2-.2"/><linearGradient id="e" x1="62.072" x2="69.203" y1="41.712" y2="41.712" gradientUnits="userSpaceOnUse"><stop offset="0" stop-color="#faaf40"/><stop offset="1" stop-color="#fff100"/></linearGradient><path fill="url(#e)" d="M64.2 41.1c1.5 1.5-.4 1.8-.8 2.9.7.6 1.7-.1 2.5-.2.3.7 1.2 2.3 2 1.2-.2-.1-.4-.4-.7-.5 1.7-1 3.4-2.2.4-2.7-.9-.2-2.1 0-2.5-1.2-.3-.9 1-1.8-.2-2.5-1.1.9.4 2.1-.2 3.1-.7 1.1-2.1-.6-2.5.8"/><linearGradient id="f" x1="36.65" x2="40.132" y1="46.954" y2="46.954" gradientUnits="userSpaceOnUse"><stop offset="0" stop-color="#faaf40"/><stop offset="1" stop-color="#fff100"/></linearGradient><path fill="url(#f)" d="M39.6 46.1c-.4-.5-1.2-.5-1.7-.1-.7.5-.5 1.1-.4 1.9-.3 0-.5.1-.8.1.9.3 2.1.4 2.8-.2.9-.7 1-2.2-.5-1.6"/><linearGradient id="g" x1="37.729" x2="42.374" y1="40.01" y2="40.01" gradientUnits="userSpaceOnUse"><stop offset="0" stop-color="#faaf40"/><stop offset="1" stop-color="#fff100"/></linearGradient><path fill="url(#g)" d="M41.6 41.5c.6-.9.9-1.9.8-3-.9.4-1.5 0-2.3.7-.3.3.1.8-.4 1.1-.4.2-1.1-.2-1.5 0-1.1.7.4 1 1.1 1 .8-.1 1.6-1 2.2 0"/><linearGradient id="h" x1="26.218" x2="33.401" y1="41.992" y2="41.992" gradientUnits="userSpaceOnUse"><stop offset="0" stop-color="#faaf40"/><stop offset="1" stop-color="#fff100"/></linearGradient><path fill="url(#h)" d="M33.2 42.7c-2.3-.6-4.6-1.1-6.9-1.5-.3 2.2.6 1.8 2.5 1.5 1.6-.2 3.1.3 4.6 0 0-.5-.3-.7-.8-.9"/><linearGradient id="i" x1="42.702" x2="53.093" y1="36.971" y2="36.971" gradientUnits="userSpaceOnUse"><stop offset="0" stop-color="#faaf40"/><stop offset="1" stop-color="#fff100"/></linearGradient><path fill="url(#i)" d="M46.6 39c1.5-1.5 2.1-1.7 3.9-2.3 1-.3 1.8-.5 2.6-1.1-1-1.3-2.3-.8-3.6-.4-1.6.5-2.5 1-4.1.8-1-.1-3.8-.3-2.1 1.3.2.2.6.2.9.4.3.2.6.4 1 .7.7.5.8 1.2 1.9.7-.2-.5-.5-1.2-.4-1.8"/><linearGradient id="j" x1="31.117" x2="40.901" y1="38.09" y2="38.09" gradientUnits="userSpaceOnUse"><stop offset="0" stop-color="#faaf40"/><stop offset="1" stop-color="#fff100"/></linearGradient><path fill="url(#j)" d="M37.2 37.2c-1.3 1.2-2.7 2.2-4.2 3.2 0-.4 0-1.6-.2-1.9-.4-.6-1.1-.2-1.4-.6-.6-.8 0-1 .7-1.2.3-.1.6.3.8.3.5-.1.7-.4 1.1-.5 1.1-.3 2.7-.6 3.8-.6.8 0 .8-.3 1.6.5.4.4.8 1 .6 1.6.5 0 .6.3.8.5-.9 1.1-2.2-1.1-2.7-1.7-1 .8-1.9.2-2.9.6-1.2.5-.9 1.6-.9 2.6"/><linearGradient id="k" x1="17.148" x2="32.321" y1="35.36" y2="35.36" gradientUnits="userSpaceOnUse"><stop offset="0" stop-color="#faaf40"/><stop offset="1" stop-color="#fff100"/></linearGradient><path fill="url(#k)" d="M25 38.9c.2-2.7-1.9-1.6-3.6-2.5-.5-.3-.6-.7-1.1-.9-.3-.1-.8.1-1.2 0-.7-.2-2.1-1.1-2-1.9.7-.3 1.1.2 1.8.1.8 0 1.3-.4 2-.7 1.5-.6 2.3-1.5 4-.7.7.3 1.1.7 1.8.7.8.1 1.2-.4 2.1-.1 1.5.4 1.8 2.1 3.4 1.9.6 2-2.5-.1-2.4 2.1-1.5-.6-1.6 1.2-3.1 1.3"/><linearGradient id="l" x1="15.074" x2="20.988" y1="27.343" y2="27.343" gradientUnits="userSpaceOnUse"><stop offset="0" stop-color="#faaf40"/><stop offset="1" stop-color="#fff100"/></linearGradient><path fill="url(#l)" d="M15.7 27.7c.8-.7 1.9-.1 2.8-.6.3-.2 2.4-2.4 2.5-.5 0 .6-2.2 2.2-2.8 2.3-.7.2-2.5 0-3.1-.5.7-.4 1.5-.4 2.2-.9"/><linearGradient id="m" x1="25.014" x2="36.921" y1="23.348" y2="23.348" gradientUnits="userSpaceOnUse"><stop offset="0" stop-color="#faaf40"/><stop offset="1" stop-color="#fff100"/></linearGradient><path fill="url(#m)" d="M27.9 25.2c-.2.1-3.3.3-2.8 1.5.3.9 1.5.2 2.1.1 1.2-.2 2.5-.2 3.7.1.4.1 1.5.9 1.7.9 1.2-.1.2-1.1.8-1.6.2-.2.7 0 .9-.2-.1.1 1-.6.8-.5.7-.3 1.1-.3 1.8-.5-.4-.4-1.2-.3-1.8-.7-.8-.5-1-1.1-1.9-1.3.2-.7 1.6-3.5 1-3.9-.9-.6-.8 1-1 1.3-.3.5-.6.4-.8 1-.1.5.2.8.2 1.2.1 1.4 0 .6-.8 1.7-.5.7-.2 1.5-1 2-1.9 1.1-2.3-1.7-3.8-1.6 0 .4 0 .8.2 1.1-.6.4-1.6.1-2.2.8"/><linearGradient id="n" x1="32.925" x2="37.742" y1="15.079" y2="15.079" gradientUnits="userSpaceOnUse"><stop offset="0" stop-color="#faaf40"/><stop offset="1" stop-color="#fff100"/></linearGradient><path fill="url(#n)" d="M34 16.8c.1-.7.1-1.3-.2-1.9-.5 0-.4-.1-.8-.3.3-.4.3-.9 0-1.3.5-.3 1.1.1 1.7.4.2.1.5-.1.8.1.3.2 0 .6.2.8.7.4.9.1 1.4.6.1.1 0 .7 0 .8.1.3.6.6.7.9-.6-.1-1.2-.5-1.8-.7 0 .2-.3.6-.2 1-.4-.1-.3-.5-.6-.7-.4-.2-.8-.4-1.1-.6"/><linearGradient id="o" x1="45.198" x2="48.838" y1="19.44" y2="19.44" gradientUnits="userSpaceOnUse"><stop offset="0" stop-color="#faaf40"/><stop offset="1" stop-color="#fff100"/></linearGradient><path fill="url(#o)" d="M48.5 19.4c1.2-1.2-2.5-1.8-3.2-.5-.5 1 .3.6 1.1.8.8.2 1.6 1 2.3 1 .1-.3.1-.8 0-1.2"/><linearGradient id="p" x1="59.329" x2="66.014" y1="13.82" y2="13.82" gradientUnits="userSpaceOnUse"><stop offset="0" stop-color="#faaf40"/><stop offset="1" stop-color="#fff100"/></linearGradient><path fill="url(#p)" d="M62.3 14.7c.7-.3 1.3-.7 1.7-1.3-.8-.6-1.4-.1-2.1-.2-.5 0-.6.2-1.2 0s-.4-.9-1.3-.9c-.3 1.1.8 2-.1 2.9.8.4 2.2-.3 3.1-.2 1.2.1 2.3.4 3.5.1"/><linearGradient id="q" x1="44.481" x2="51.14" y1="8.851" y2="8.851" gradientUnits="userSpaceOnUse"><stop offset="0" stop-color="#faaf40"/><stop offset="1" stop-color="#fff100"/></linearGradient><path fill="url(#q)" d="M50.1 9.4c-1 .9-2.1 1.6-3.3 2.1-.7-1-1.1-1.8-2.3-1.9.3-.2 1.1-.4 1.3-.7.8-.9-.1-.7 0-1.6.1-1.9 1.1-.9 2.5-.5.6.1 2.8-.1 2.9.5 0 .9-2.6.6-3.1 1 .6.3 1.7-.1 2 .7.3.8-.7 1.7-1.3 1.7"/><linearGradient id="r" x1="20.328" x2="25.408" y1="11.763" y2="11.763" gradientUnits="userSpaceOnUse"><stop offset="0" stop-color="#faaf40"/><stop offset="1" stop-color="#fff100"/></linearGradient><path fill="url(#r)" d="M25.4 12.7c-1.1 0-1-1.1-1.1-1.8-.2.1-.6 0-.9.1 0-.2-.1-.6-.1-.8-.9.4-2 1.1-3.1 1.6.6.5 1.7.3 2.6.4-.2 1.1 1 1.4 1.6.7"/><linearGradient id="s" x1="17.918" x2="18.049" y1="12.055" y2="12.055" gradientUnits="userSpaceOnUse"><stop offset="0" stop-color="#faaf40"/><stop offset="1" stop-color="#fff100"/></linearGradient><path fill="url(#s)" d="M18 12.4c0-.3-.1-.5-.1-.8"/><linearGradient id="t" x1="29.781" x2="34.484" y1="8.236" y2="8.236" gradientUnits="userSpaceOnUse"><stop offset="0" stop-color="#faaf40"/><stop offset="1" stop-color="#fff100"/></linearGradient><path fill="url(#t)" d="M34.1 7.6c.6-1-.3-1.5-.9-2.1-.3.2-1.5.8-1.7 1.1-.5.7-.1 1.2-.4 1.9-.3-.1-.9-.1-1.2-.2-.4.7.4 1.7 1.1 1.7 0-.3.1-.8.1-1.2.6.5 1.9 3.4 3 1.7-.7-.7-2.2-.3-2.5-1.6.6.5 2.6 1.3 2.9.2-.6-.4-1.3-.1-1.7-.9.6.1 1.3-.1 1.7-.6"/><linearGradient id="u" x1="39.359" x2="45.12" y1="21.495" y2="21.495" gradientUnits="userSpaceOnUse"><stop offset="0" stop-color="#faaf40"/><stop offset="1" stop-color="#fff100"/></linearGradient><path fill="url(#u)" d="M44.9 23.2c-.1-1.1-.8-2.3-1.9-1.1-.5-.6.1-1.1.6-1.6-1.2 1-2.8 1.4-4.2 1.9-.2-.8.3-1.4 1-1.8.3-.2.9.1 1.3-.1s.7-.6 1.1-.7c2.1-.4 2.4 1.6 2.4 3"/><linearGradient id="v" x1="38.009" x2="44.181" y1="26.982" y2="26.982" gradientUnits="userSpaceOnUse"><stop offset="0" stop-color="#faaf40"/><stop offset="1" stop-color="#fff100"/></linearGradient><path fill="url(#v)" d="M39.2 27.3c1.9.9 1.8 1.1 3.3.4.4-.2 1.2-.5 1.7-.8-.7-.8-2.7-.9-3.7-.5-.5.2-1.4 1-2.1.7-1-.5.1-1.2.8-1.2"/><linearGradient id="w" x1="59.232" x2="67.699" y1="26.064" y2="26.064" gradientUnits="userSpaceOnUse"><stop offset="0" stop-color="#faaf40"/><stop offset="1" stop-color="#fff100"/></linearGradient><path fill="url(#w)" d="M60.2 27.2c-.6-.8.4-1.2.9-1.4-.4-.4-.8-.6-.9-1.2 1.8-.4.5-1.6 1.7-2 1.1-.4 2.8 1.6 3.5 2.1-.7 1-.1 1.2.6 1.8.8.6 1.1.8 1.7 1.7-.8.1-2.2.3-1.9 1.5-1 0-1.2-.8-2.1-.9-.8-.1-1.5.9-2.3.7-1.4-.3-.5-.9.3-1 .8-.1 1.8.3 2.6.3.2-.7-.3-1.5-.6-2.3-1.1.1-3.5 1.7-4.5.7.4-1.5 3.5-.9 4.5-1.9-1.1-.7-1.9.8-3.3.6"/><g fill="#5AB947" stroke="#53AF48" stroke-width="3"><path d="M31.3 40.7c-1.3-.7-4-1.8-5.3-1.7-.2.4-.3.8-.2 1.2 1 .7 2.1.3 3.2.6s1.8 1.8 3.1.1m11 .1c1.1-.9 2.3-2.9 3.8-1.9-.1 1.7-1.8.7-2.8 1.1-.8.3-2.3 2.3-2.5 0M52.5 46c-.5.5-.5.9-.3 1.4.7.1 1.3-.2 1.8-.7-.3-.3-.6-.4-1.1-.5m20.9-.9c.8.1 1.3.5 1.5 1.2-1 .3-1.6 0-1.7-1m16.8-16.2c.2-.1 6.6-2.3 6.4-3.5-.3-2-2.7.2-3.5.6-.3-3-1.3-2.5-2.8-.4-.5.7-.5 2.1-2 1.3-1-.5 0-2.2-1.7-2-.7 2 1 1.7 1.6 3-.3 0-1 .4-1.4.4 0 1.5 1.8.9 2.9.9M100 32c.1-.1.3-.1.4-.2m-32.3-6.5c-.3-1 .1-2 1.3-2-.5-.3-2.2-1-2.5-1.4-.5-.9 0-1.6 0-2.7-1.4-.8-3.2.5-2.9 2.2.1.4 1.2 1.2 1.5 1.5.4.3.3 1 1.4 1.2m-21 8.9c0-.9-.3-1.3-.9-1.3-.2.4-.2 1-.2 1.4.2.1.4.1.6.1M28.1 15.3c.9-.2 1.7-.6 2.3-1.2-1.3-.1-2.5.4-2.3 1.8m29.8-1.4c-1 .1-1.7-.5-1.2-1.5.9.3 1.6.9 2.3 1.5m-7.3-6c-.5-.1-.8-.2-.9-.7.8-1.1 2.6-.7 1.7.7m9.2 2.9c-.5-.8-1-1.1-1.7-.8.2.4.5.6.9.6m20.6-.7c.8-.1 1.2-.5 1.2-1.2-1-.8-2.4 0-1.8 1.2m-1.7 4.2c-1.2 0-1.5-1.2-2-1.9-1.6 1.3.1 1.9 1.1 2.5.3-.1.5-.3.6-.6m20.5 5.6c-.3 0-.5-.2-.5-.5.8-.3 1.9-.5 2.7-.8.3.5.3.8.2 1.3-1 .3-2 .2-3 .2m5.6 4c-.3-.3-.6-.2-.3-.9.9 0 1.6.4 2 1.1-.6.6-1.4.6-1.9 0"/><path d="M100.2 33.4c1.3-.4 3.7-.5 3-2.4-1.6-.4-1.9 1.5-3.6.5-.2.8.2 1.5 1.2 1.4m-1.2-4c.8.1 1.2.4 1.3 1-.3-.1-.7-.2-1.1-.2M97.9 27c1.5-1 2.6-.2 4-1.1 0 1.2-3.1 1.9-3.8 1.1m-36-15c-.3 0-.5-.1-.5-.4.6-.7 1.4-.9 1.9-1.7-.6-.6-1.4-.4-2.1-.8.9-.7 2-.1 2.4-1.1-.9-.5-1.9-.9-3-.7.1.3.1 1.2.3 1.5-2.6-.1-1.2 2.4.8 2.5m4.2 4.9c-1.4.5-1.1-.8-1.9-1.2-.8-.4-1.3-.2-2.1-.4-1.2-.2-4.1-.5-3.4 1.7.5.2.9.1 1.3-.2-.6-2.6 5-.2 5.7.4m-29.8-2.8c1.7-1.9-4.7-1.1-1.7 1.2.5-.3 1.1-.5 1.6-.8m6.7-3.2v.6m17.9 19.7c-1.7.3-1.4-.1-1.9-1.1-.2-.3 0-1.1-.2-1.5-.2-.4-.8-.5-.9-1.3-.7 0-.9.3-1.1 1 1.5.6.7 1.2 1.3 2.2.5 1 1.2.9 1.2 2.3 1 .4 1.7-.2 1.4-1.3m12.9 1.9c-.2.1-.4.2-.6.4-.4-.5 0-.6.3-.9m19.9 7c2.4-3.3-2.1-1.7-3.2-1.9-.2 1.4 2.7 1.7 3.8 1.3M80.2 26.2c-.8.4-1.7.2-2.4-.3-.2 1.5 1.5 1.4 2.6 1.3M75 10.7c-1.4.2-4.1 1.1-4.9-.5 1.7-.5 2.7.5 4.5-.2.2.2.3.5.2.7M49.2 6.6c-.1-.2 0-.4.2-.4 2.1.5.4 3.2 1.4 4.1 1.3 1.2 1.6-2.4 2-3.1-1.3-.4-2.8-2.3-3.8-.3m-26.7 8.8c.5.4.9 1 1.1 1.6-.8.1-1.2-.6-2-.6-.7 0-1.4.9-2.2.9-1 0-2.9-.9-2.1-2.1 1.1 1.6 3.4.5 4.6-.4m6.9.8c1.1.3 3.3.5 2.7-1.2-1-.4-2.3.1-2.9.8.3.5.6.5 1.2.5m-3.1 21.8c-.8-.4-1.4-1.2-1.8-2.1-.9 1.2.4 3.3 1.6 2M39 31.6c-.4-.1-.6-.4-.6-.8.4-.1.7-.3 1.2-.2-1.1-.6-2.5-.8-2.4 1 .4.2.7.3 1.2.2m42 7.1c-.8.2-1.3.9-1.8 1.7-.6-.1-1.1-.6-1.4-1.1 1.1-1.5 3.5-1.6 3 .8m-4.1-5.6h-.7c.1-.2.3-.4.5-.4m1.4-5.4c-1.5.2-3.6.6-5.2.9.8.9 3.2.6 4.1-.1m-8.5-11.9c.4-.4.5-1 .3-1.5-.2 0-.6-.2-.7-.2.3-.1.6-.5.8-.6-.4 0-.7-.1-1.1-.1.5-1.1 3.5-.5 2.2 1 .7.2 1.2.7 1.2 1.4-.8.2-1.7.1-2.3.8"/></g><g fill="#EFECE0"><path d="M34.1 43.8c1.7-2.1 5.2-.5 6.6-3.2-1.3-.8-3.7-.4-5.1-.4-.7 0-2.1-.3-2.4.6-.2.6 1.1 2.4 1.6 2.8m-9.9-5.1c-.7-.6-1.8-.2-2.7-.4-1.3-.2-1.9-.8-3.1-1.4-2.2-1.1-4.3-1.9-5.2-4.4 1.2-.4 1.9 1.5 2.6 2.1.8.6 1.9 1.1 2.9 1.4 1 .3 2.2.5 3.2.8.9.3 2 .8 2.9 1-.4.4-1 .7-1.6.8m-6.8-7.2c1.5-1.1 3.1-1.9 4.8-2.4.2 1.7.4 1.9-1.2 2.4-1.1.4-2.5.2-3.7.2m-1.1-1.8c.4 0 .8 0 1.2-.1-.2.1-1.5.3-1.6.1-.5-1.3.6-.8 1.3-1.3 1.8-1.2 1.4-1.7 3 .2-.8.5-1.8.2-2.7.7m4-8.6c.4.7 1.6 1.7 1.1 2.6-.7 1.3-2 0-2.8-.1-.9-.1-2.1.6-2.9.3-.8-.3-1.8-2-2.3-2.7 1.2-1.1 5.3-.4 6.6.5m5.4-5.3c-.4 0-3.1-.5-3.4-1-.7-1.2 1.6-2 2.4-1.1-.4-1.7-4.4-.5-4.1 1.2.2 1.6 4.5 2.7 5.3 1.4m17.6-.1c.7.3 3.2 1.6 4 1.1.2-.2.3-.5.1-1.2-1.2-3.5-5.9-.6-4.1.1zM31.5 7.2c1.4.5 3 .3 3.9 1.9 1-.9 1-2.6-.2-3.4-1.7-1.3-2.8.4-3.9 1.5m-2.2-2.7l.3-.3m22.1 1.3c.4-.3 3.6-2.5 1.6-3.4-.7-.3-1.6 0-1.6.8.5.1 1.1.2 1.6.3-.2 1.1-1.9.7-2.4 1.6.2.2.4.4.6.5m-4.8 5.5c-.2-.1-4.6-2.5-3.8 0-.6-.4-.5-1.2-.4-1.9 1.6-.5 4.2-.8 4.5 1.4"/><path d="M44.7 11.8c.5 2-.1 3.3-1.8 4.4-.8-.5-1.6-1.1-2.4-1.7m-1.1 8.2c-1 .1-.9-.8-1.7-1.3-.9-.6-1.6-.3-2.5-.5-.9-.2-3.7-3-4.5-2.1-1.3 1.5 2.3 2.8 3.1 3.1 1 .3 1.5.4 2.4.8.9.4 1.4.9 2.4.5m-8.3-7.3c.8-1.8 7.1-4.9 7.9-2.1.7 2.8-5.8 3-7.5 2m1.6 12.4c1.5-1.3 3.2-2.2 5.1-2.7 0 1.2 4.7 3.5.1 2.9-2-.3-3.9-.5-6.1-.5"/><path d="M46.5 29.5c-1.4.6-9.5-.7-6.6-2.6 1.1-.7 3.8-.7 5-.3 1.2.4 3.8 1.9 1.6 2.9zm-2.4 7c.7.8 0 2.7-1.2 1.9-1.5-1 1.1-3.3 1.7-1.4"/><path d="M46.5 35.2c.1.4 0 1 0 1.5-1.5 0-3.6-2.1-1.1-2.4-.5-.1-1.3-.1-1.7.3-1 1 0 1.3.6 1.8.5.5 1.1 1.2 1.9 1.1.9-.2 1.3-.9.5-1.6m3.3 7.5c-1.1-1.9-2.8-1.3-1.6-3.5 1-1.9 2-2.2 3.7-1.6 1.1.3 3.7 1 2.4 2.7-.7.9-2.9.9-3.9 1.8m11.5-1.9c.9 1.6 1.8 4.5 4.1 4.3 1.6-.1 2.8-1.9 2.9-3.3.3-2.5-1-1.4-2.5-1-1.1.3-3.3-.5-3.9.3m-12.5-8.4c-.5-.6-2.9-2.5-3.5-1.2-.7 1.4 2.7 1.1 3.2 1m7.7 5.9c-.3 0-.4-.1-.3-.3.9-1.8 8.8-2.9 9.6-.9 1.4 3.5-7 2.5-8.5 1.3m-4-8c-1.2.7-2-1.5-3.2-1.6-.2.8-.9 1.3-1.3 1.7 1.3 1.1 4-.6 5 .5m28.9 11c-.6.4 1-1.4 1-1.6 0-.5-1.6-1.8-2.1-2.1-2.7-1.7-3.5.3-5.5 1.8.7 1.1 6.7 3.1 7 1.4"/><path d="M66 34.6c-.5-1.7-2.4.8-3.5.8-1.6 0-1.8-3.2-3.1-1.4-1.2 1.7.4 2.8 1.9 2.3 1.4-.5 3.2-1 4.4-1.9M51.3 23.3c-1.6-1.2-1.9-.3-3.5 0-1.3.3-2.5-.5-3.8-.2.6.4 1.6.2 2.4.3 1 .1 1.6.8 2.4 1 .6.1 1.9-.3 2.5-.5.7-.2 2.4 0 1-1.1m6.1-.6c.6 0 1.2-.3 1.6-.7-.8-2.4-6.2-3-6.1 0 2.2-.5 3.9-1 6.1-.5 1.2.2 2.7.4 3.8 1 .3.2 2.1 2.3 1.8 2.3-1.3-.1-1.9-1.3-3.5-1.2-1.1.1-3.2 1.4-3.7.1m5.6-5.8c-2.2.6-5.8 1.6-7.3-.3 1.4-.9 6.1-1.6 7.6-.4m.5-3.2c.4-1.3 1-2.5 1.8-3.6.4 2.1-.4 3.1-2.2 4.1m2.8-7.6c-2.4-.4-4.6-1.1-6.8-2.1 1.7-.2 3.7-1.8 5.3-1.6.8.1 1.9.9 1.9 1.8.1 1.3-.9 1.1-1.2 2.2"/><path d="M66 9.8c.2-.1.5 0 .7.1-2.2 1.1-5.4.9-7.7 2.3-.2.1 3.5 1.4 4 1.4 2.2-.1 1.5-1.6 3.1-2.8m.3-4.4c-1.5-.1-1.7 1-3.1.7-1.1-.3-2.7-1.4-2.9-2.5 1.1-.1 2.2 1 3.2 1.3 1.2.4 2.5.4 3.7 1m14.4 1.6c-.4-.9.6-1.4 1.4-1.5-.2-.2-.4-.6-.6-.8.3-.3.3-.7.8-.9-2.2-.7-5.2 2.3-1.6 3m13.1 8.8c-.8-1.2-1.9.9-2.8.8-1.6-.2-1.1-2.2-.6-2.9.8-1.1 6.1-2.6 5.4.1-.3.1-.9.1-1.2 0 0-.4-.3-.7-.4-.9-2.1.6 1 2.4-1.3 2.9M88 24.5c-1-.1-.7-1.3-.5-2.1.3-1.5.5-1.7 1.9-1.7 1.3 0 3.9 1.9 3.7 3.1-1.3-.2-1.2-2-2.7-.8-.6.5-.9 2.7-2 1.3m3 8.5c-.6-.7-1.9.7-2.9.8-1.1.1-2.3-.2-3.2-.9.5-1.1 3.6-1.2 4.7-1.4 2.1-.5 3.4.5 5.3.9.6.1 2.2-.2 2.6.5.7 1.2-.8 1.3-1.6 1.4-1.8.3-3.5 0-5-.8M82 28c-.3-1.2-1-.5-1.8-.7-1.1-.2-1.5-.2-2.5-.8-1.6-.8-3-.7-4.6-1.1-.9 1.3 2.6 2.2 3.6 2.5.8.3 1.7.1 2.5.4.9.3 1 1.7 2.1.3m-29.7 3.6c-.2.3-.2.3 0 .2.9-1.1 3.6-1.7 4 .2-.6.6-2.8.2-3.7.3m9.6-2.3c1-.1 1.9-.3 2.8-.5-.4 0-.6.2-.7.5.7 1 4 2.1 4.8.6 1.1-2-2.8-2.5-3.8-2.9-1.4-.5-3.6-2.6-4.8-1-1.1 1.6 1.1 4.5 1.7 2.4m13.8 6.7c-.4-2.3 1.4-2.1 1.7-4.1.7.1 2 .2 2.5.8.6.8.1 1.7.9 2.3-1.2.6-4 2.8-5 1.2m28.4-18.9c.2-.4.3-.7.9-.5.4.8.6 2-.7 1.7-.1-.3-.1-.6 0-.9m-33.1 1.6c.5 0 1.4.1 1.9 0 .5-.2 1.1-1 1.5-1.1 1.5-.2 2.2 1.8 3.7 1.8-1.2 1.9-6.6.7-8-.6"/></g><path fill="#D5B382" d="M14.7 23.4c-2.1-1-3.2 2.3-1.7 3.4 1.2.9 4-.1 4.8-.9.6 1 3.4 1.5 3.1-.1-1.7-.2-7.1-5-8.5-1.1M23 26.2c-.7.5.1 1.1.7 1.4.9.5 1.3.1 2.3-.1 1-.3 1.6.1 1.9-1.1.1-.6-.6-2-1-2.4-1.2-1.6-3.3-1.6-2.3.3.2.4 1.6.4.5 1.4-.5.4-1.6-.1-2.3.6m-4.5 9.2c-1-.3-1.8-.7-2.5-1.5.6-.5 1-1.1.5-1.8 1.2-.5 4.2-.7 5.1.4 1.1 1.4-1.8 5.1-2.7 2.8M41.3 41c-1.5.4-3.3-.7-3.9 1.4-.7 2.5 1.5 1.8 2.9 1.9-.5.6-1.6.2-2 1-.5 1.1.6 1.3 1.4 1.5 1.6.4 4.2-.5 4.9-2 .5-1.1.4-3.8-.4-4.7-.9-1-4.8-1.9-3.9.6 1 .3 3.1-1 2.8 1.1-1 .6-3-.5-4.1-.7M34.3 18c-.1.2-.3.2-.5.2-.3-.5-.1-1.1.1-1.5-1.1-.2-2.5.8-2.4 2.1.2 1.3 1.8 2.3 2.9 2.6.6.2 3.3.7 3.2-.5 0-.7-.8-.6-1.3-.8-.7-.4-1-1-1.5-1.6M51.9 25h1.3c.9 1.4-1 1.6-2 1.7-1.2.2-3.1.3-3-1.5 1-.5 2.9-.4 4-.3m-10.7-.3c-.1.2-.2.4-.2.7 1-.2 1.3.6.7 1.1-.5.4-1.5.4-2.1.5-1.4.2-2.7.3-4.1.2-.6-.1-1.7-.1-2.1-.6-.5-.6-.2-1.7.6-1.9.4-.1 1.6.1 2.1.1.7 0 1.4.2 2.1.1-.1-1-.2-1.1.8-1.1.7 0 1.5.3 2.1.6-.2.7-3.3 3.4-3.6 2.7-.5-1-2.9-.6-3.8-1.7-1.7 1.5 2.2 2.1 3.1 2.1 1.6.1 3.3-1 4.8-1.5m12.3 17.4c0-.5-.5-1.1-.3-1.6s1.2-1 1.7-1.3c1-.5 2.9-1.7 3.3-.3.1.3.1 1.3 0 1.6-.2.4-.6.4-.9.7-.1.2-.2.9-.3 1-.8.7-2.2-.1-3.3.3m21-.9c-1.1-.3-2.1-.5-3.2-.7-.2.9-.2 1.2.7 1.5.6.2 1.8.2 2.2-.3m4.1-10.9c1.6-.4 3.2-1 4.7-1.7-2.2-1.3-5.1-.5-7.5-.3-.7 0-1.3-.2-1.6.6-.2.6.4 1.5.9 1.7.9.4 2.9 0 3.8-.3m-20.3-8.8c0 .7.2 1.2.7 1.5 1.4-1.6 2.7-.1 2.1 1.5 1 .8 1.8-.7 2.8-.4.7 3.1-5.2 1.4-6.3.9-1.2-.6-2.3-1.5-1.3-2.9.4-.5.5-.8 1.3-.8.7 0 1.5 0 1.4.9m-16.5-4.5c2.2.7 4.4 1.3 6.7.6 1.2-.4 2.4-1.4 1.3-2.7-.7-.8-2.4-.7-3.4-.6 3.3-2.2 6.8 3.4 3.2 4.7-1.1.4-9.4 1.8-7.8-1.2m-.1-7c2.5-.1 5-.3 7.4-.7-.6-.5-.1-1.9-1.3-1.7 1.1 0 2.2 1 2.1 2.1-.1 1.2-1.7 1.7-2.8 1.9-1.1.2-6.8-.3-5.8-2.3m-5.2-5c1.4.1 3.6.2 4.4-1.5.4-.8.2-1.9 0-2.8 2.1-.9.7 2.8.3 3.4-.8 1.4-2.4 2.4-3.8 1m25.6 10.7s3-.3 3.7-.5c.8-.2 1.1-.4 2-.3.7.1 1.3.2 2-.2.5 1.1-.7 1.1-1.4 1.3-.9.3-1.3.6-2.3.6-1 .1-4.2 1.4-4-.9m20.4-2.8c-.4 0-2.2.6-2.5.9-.7.8.3 2 1.3 1.9.4-.1.8-.6 1.2-.6.9-.1.3.4.9.8.7.4 2.1 0 2.5-.9.8-1.8-2.7-3.5-4.1-3.6-.5 0-2.6-.1-2.1.9.4.8 2.6-.7 2.4 1.1M81 10.9c.5-1.3 1.2-2.6 2.1-3.8.5.6 1.4.5 1.9 1.3.3.4.6 1.6.3 2.1-.8 1.8-3.9-1.1-3.8.8M56.1 7.2c-1.7.6-3.4 1-5.2 1.2-.4-.7-1.8-2.4-2.1-.8-.2 1.2.9 2.5 1.8 2.9 1.1.5 2.1 0 3.2-.2 1.4-.2 2-.2 2.2-1.8m-5.1 26.1c-.4 1.1 1.5 1.9 2.4 1.9.4 0 1.4-.2 1.7-.6.4-.5-.1-1.1.6-1.4.7 1.8-1 2.7-2.5 2.7-.6 0-1.8-.1-2.3-.6-.5-.5-1-1.8.2-1.7M14.4 17.2c-.5.1-.5.6-.4 1 .3 1.2.8.3 1.4.1 1.1-.3 2.1.8.8 1.4-.3.2-1 .3-1.4.3-.3.1-.1.5-.5.5s-.7-.4-1-.6c-.8-.8-1.2-3 .5-2.9m56.4-4.6c.7-.1 1.2.4 1.2 1.1-1.7.3-3.2.6-4.9.3-.3-.1-.9-.2-1.2-.4-.5-.6-.1-.7-.3-1.3-.2-1.2-.9-1.5-1.1-.1-.3 1.9 2 2.6 3.5 2.8.7.1 1.8.3 2.5.1.6-.2 2.1-1.4 1-1.8m-1.2-6c-.9-.4-1.8-.8-2.7-1.1-.5 1.5 3.7 2.5 3.2.7m23.2 17.1c1.2.1 2.5.8 3.7.6 1.9-.3.9-1.9 0-2.7-.9-.9-2.1-1.7-3.4-2-1-.2-3.1.2-2 1.7-.6-.4-1.8-1-2.4-.1-.4.7.3 2 .9 2.2 1.1.3 1.4-.7 2.4 0 .3.2.1.7.8.9.4.1 1 0 1.4-.1m-.8 7.1c-1.7-1.2-3.3-1.3-5.1-.6 0 .9 1.9.5 2.6.9.4.2 2.5 1.6 2.4.2"/><g fill="#222421"><path d="M17.2 14.4c-3.8-.8-.6 5.2 1.1 2.6-.4-.2-1-.3-1.4-.4-.7-2.1 3.1-1.1 1.4.5 1 .6 1.8-.8 1.5-1.7-.4-1.4-1.7-1.1-2.8-1.1m12.3-1.5c-1.1-.5-2.6.6-1.3 1.3 1.3.7 2.1-.8 1.9-1.8 1.3-.4 1 1.1.4 1.8s-2 1.1-2.8.7c-3.4-1.5 1.4-4.5 2-2.1-.2.3-.5.4-.8.5m.6-3.9c-1.4 1.2-1.4-1.7.4-2.3 1.9-.6 2.7 1 2.5 2.7-.8.2-2 .6-2.8 0m11.5-1.6c0-.8.2-1.6.8-2.2.3.2.9.4 1.2.6.2-.8-1.7-1.5-2.5-1.3-1.6.4-1 2.2.4 2.4m5.5-3.9C46 1.8 49.1.6 49.9 2.6c.8 2-2.6 1.8-3.3.9"/><path d="M20.1 19.2c0-.1 0-.3-.1-.4-.4.3-.8 0-1.2.1.5-1.7 2.5-.1 2.9.6 1.2-1.4-1.7-2.1-2.7-1.8-2.1.6-.7 2.9 1.1 2.3m-.8 3.9c-.8.2-1.5 0-2.2.3.8.6 2-.1 2.8.3 1.5.7.4 1.2-.8 1.2-.8 0-2.7-.5-2.7-1.6 0-1.3 2.1-1.4 2.6-.4m13.3-3.1c-1.1-.4-2.2-.4-3.3-.2.5 1.2 2.4 2.5 3.7 2.2.2-.4.2-.9 0-1.3m-.9 10.4c-.3-.3-.7-.4-1.1-.3.1.4-.1.5.3.9-.6.4-1.6-.3-2.4-.1-.2-1.1 2.8-2 3.4-.6M34.4 45c-.5-1.4.8-1.7 1.8-1.6.8 1.4-1.5 1.3-1.2 2.5 2.8 1.2 5-2.8 1.2-3.6-1.1-.2-2.7-.1-3.4.8-.7 1-.3 2.8 1.1 2.9m-2.1-5.6c.3-1 5.2.7 3.6-1.8-1.4-2.4-5.8 1.2-3.5 1.5m10.3-3.4c.2-.5.1-.8-.3-.9-.9.3-2.1 1.1-1.5 2.1.9-.4 1.5-1.3 2.4-1.5m2-1.2c1.3-1 2.8-1.6 4.4-1.8-.1 1.9 1 2-1.1 2.6-.4.1-1.3.3-1.7.3-.6-.1-.7-.9-1.6-.7m-7-5.9c-.9.1-1.8.3-2.6.5.1 1.9 3.8.2 5 .5-.8-1.1-2.3-.9-3.5-.9m9.4-12.2c-1.3.6-.5 2.1.9 1.2 1.2-.9.5-1.8-.9-1.2zm2.6-8c.3-.6 1-.7 1.6-.6 0-.6-.2-1.5.5-1.7.8-.2 1.8.9 1.9 1.6.2 1.8-3 2.9-3.8 1.2m17.5-3.8c0-1-3.6-2.5-4.4-1.7-1.3 1.4 3.1 2.9 3.5 1.5M55.1 16.6c1.4-.8 5.6-2.2 5.1.6-.8.3-1.6 0-2.4.2-1.3.4-1.3 1.4-2.6 0m1.3-5.6c.8.5 2.3 1.3 1.8 2.3-.4-.6-1-1-1.8-.9-.2-.2-.2-.4-.2-.7M44.6 30.2c1 1.5 3.1.1 4.6.6-.5 1.2-2 1.1-3.2 1.1-.8-.1-3.1-.7-1.4-1.7m12.5.9c-.7-.9-1.7-1.5-2.7-1.7-.6.5-1.6.8-1.2 1.6 1.2-.4 2-1.3 3.3-.5m7.3-5.2c-.7.2-1.1.8-1.1 1.6.8.2 1.9-.7 1.4-1.4m-6.1.7c-.1-.8-.2-1.6-.5-2.3v.8c-.5.2-.8.6-1 1.1.4.6 1 .8 1.7.7-.1-.2-.2-.3-.5-.4m6.4 8.2c-.8-.3-4.3-1.8-3.8.4 1.4.4 2.3-1.5 3.6-.4m-5.3 6.2c.8-.5 1.6-.7 2.5-.5-.2 1.1-1.7.8-2.2-.1m-1.2 7.9c-.9.2-1.8.4-2.6.6.8 1.4 3.1-.2 4.1-.1 2.4.4-.6 2-1.8 2.2-1 .2-4-.5-3.7-2 .4-1.6 3.2-1.4 4.2-1 .1.5-.2.5-.6.7m23.3-36.7c.5-.1.8-.2.8-.7-2.2-.9-3.3 1.8-.9 2.4 1.7.5 4.4-2.2 2.3-2.2-.1 1.3-1.7 2.2-2.5 1m3.6-3.6c.6 0 1.1-.1 1.5-.4-.5-.5-2.1-1.6-3-1.1-1.3.7-.3 2 1 1.7m9.5 2.9c.9-1 3.1-.7 2.4.9-.4 1-2.3.9-2.6-.1.4-.4 1.1-.5 1.6-.6-.8-.3-2 .6-2.1.2m-4.9 4.6c-.4-.1-.6 0-.7-.5.4-.7 1.1-.8 1.8-.4.1.7-.5 1.2-1 1.7 1.1 1.2 4.6-3 .1-3.1-4.1 0-.8 4.4.3 3m-8.1 6.6c-2-1.1-5.3 1.5-2.6 2.4.5.2 2.2.4 2.7.1 1.2-.7.8-2.3-.6-1.5 0 .2-.1.6-.1.9-.7.2-1.3-.1-1.6-.8.6-.8 1.5-.8 2.4-1m-6.5 4.9c-.4.2-.6.4-.7.7.4 0 .8.2 1.2.2.3 1.3-1.5.8-2.2.6-.1 1.1 2 1.4 2.8.9 1.5-1 .5-3.1-1.2-2.5m16.6 8c-.1-1.6-3.3-2.2-3.9-.8-1.1 2.2 3.3 3.4 3.2 1.4-.8 0-2.2-.1-1.6-1.1.9.3 1.6 1.3 2.4.3m-14.2 6.9c-1.9-.9-.5 2.8 1.2.8-.2-.4-.5-.5-.9-.6m11.2-4.1c-1-.4-2.7-1.6-3.8-1.1-1.2.5-1.4 2.5.1 2-.1-.3.2-.8.1-1.1 1.1-.3 2 .4 3.1.5m11.4-2.6c-.3-.2-.6-.3-.9-.2-.2.4-.2.6-.1 1 .8.2 1.6.1 2.3-.4-.1-.2-.2-.6-.3-.7.2-.1.5-.1.7 0 1 1.7-2 2.3-3 1.7-2.2-1.2 1.6-2.9 2.1-1.4m-4-5.8c-2-.4-1-2.2.9-.9-.3-.7-2.2-1.5-2.9-1-1.4.9.5 2.5 1.7 2.3m7.5-2.2c-.9-1-2.1-3-3.7-2.2-.7.3-1.2.8-.8 1.7.5 1.1 3 1 3.9.6m-.9-11.7c.9-.4 1.8-.5 2 .5 1.8-1.6-4.1-2.9-3.2-.1.8.2 2.3.6 2.6-.1-.5 0-1-.1-1.4-.3.4-.5 1.1-.6 1.8-.6"/></g><path fill="#B65026" d="M39 15.1c.2 0 .5.2.4.4-.3.2-.7.1-.7-.3.1-.1.2-.1.4-.1"/><path fill="#B6903A" d="M42.2 12.1c.2 0 .5.2.4.4-.3.2-.7.1-.7-.3.1-.1.2-.1.4-.1m-6.3 5c.2 0 .5.2.4.4-.3.2-.7.1-.7-.3.1-.1.2-.1.4-.1"/><path fill="#B65026" d="M62.4 17.7c.2 0 .5.2.4.4-.3.2-.7.1-.7-.3.1-.1.2-.1.4-.1"/><path fill="#B6903A" d="M65.7 14.7c.2 0 .5.2.4.4-.3.2-.7.1-.7-.3.1-.1.2-.1.4-.1m-6.4 5c.2 0 .5.2.4.4-.3.2-.7.1-.7-.3.1-.1.2-.1.4-.1"/><path fill="#B65026" d="M88.7 12.2c.2 0 .5.2.4.4-.3.2-.7.1-.7-.3.1-.1.2-.1.4-.1"/><path fill="#B6903A" d="M74.5 22.3c.2 0 .5.2.4.4-.3.2-.7.1-.7-.3.1-.1.2-.1.4-.1m-1.1-2c.2 0 .5.2.4.4-.3.2-.7.1-.7-.3.1-.1.2-.1.4-.1"/><path fill="#B65026" d="M75.9 20.6c.2 0 .5.2.4.4-.3.2-.7.1-.7-.3.1-.1.2-.1.4-.1"/><path fill="#B6903A" d="M76.9 22.5c.2 0 .5.2.4.4-.3.2-.7.1-.7-.3.1-.1.2-.1.4-.1m-5.7.6c.2 0 .5.2.4.4-.3.2-.7.1-.7-.3.1-.1.2-.1.4-.1"/><path fill="#B65026" d="M53.2 15.4c.2 0 .5.2.4.4-.3.2-.7.1-.7-.3.1-.1.2-.1.4-.1"/><path fill="#B6903A" d="M54.9 14.1c.2 0 .5.2.4.4-.3.2-.7.1-.7-.3.1-.1.2-.1.4-.1m-1.2-2c.2 0 .5.2.4.4-.3.2-.7.1-.7-.3.1-.1.2-.1.4-.1"/><path fill="#B65026" d="M56.2 12.4c.2 0 .5.2.4.4-.3.2-.7.1-.7-.3.1-.1.2-.1.4-.1"/><path fill="#B6903A" d="M57.2 14.3c.2 0 .5.2.4.4-.3.2-.7.1-.7-.3.1-.1.2-.1.4-.1m-5.7.6c.2 0 .5.2.4.4-.3.2-.7.1-.7-.3.1-.1.2-.1.4-.1"/><path fill="#B65026" d="M41.4 20.2c.2 0 .5.2.4.4-.3.2-.7.1-.7-.3.1-.1.2-.1.4-.1"/><path fill="#B6903A" d="M43 18.9c.2 0 .5.2.4.4-.3.2-.7.1-.7-.3.1-.1.2-.1.4-.1m-1.1-2c.2 0 .5.2.4.4-.3.2-.7.1-.7-.3.1-.1.2-.1.4-.1"/><path fill="#B65026" d="M44.4 17.2c.2 0 .5.2.4.4-.3.2-.7.1-.7-.3.1-.1.2-.1.4-.1"/><path fill="#B6903A" d="M45.4 19.1c.2 0 .5.2.4.4-.3.2-.7.1-.7-.3.1-.1.2-.1.4-.1m-5.7.6c.2 0 .5.2.4.4-.3.2-.7.1-.7-.3.1-.1.2-.1.4-.1"/><path fill="#B65026" d="M26 21c.2 0 .5.2.4.4-.3.2-.7.1-.7-.3.2-.1.3-.1.4-.1"/><path fill="#B6903A" d="M27.7 19.6c.2 0 .5.2.4.4-.3.2-.7.1-.7-.3.1-.1.2-.1.4-.1m-1.1-1.9c.2 0 .5.2.4.4-.3.2-.7.1-.7-.3.1-.1.2-.1.4-.1"/><path fill="#B65026" d="M29.1 18c.2 0 .5.2.4.4-.3.2-.7.1-.7-.3.1-.1.2-.1.4-.1"/><path fill="#B6903A" d="M30.1 19.9c.2 0 .5.2.4.4-.3.2-.7.1-.7-.3.1-.1.2-.1.4-.1m-5.7.5c.2 0 .5.2.4.4-.3.2-.7.1-.7-.3.1-.1.2-.1.4-.1"/><path fill="#B65026" d="M27.6 12.2c.2 0 .5.2.4.4-.3.2-.7.1-.7-.3.1-.1.2-.1.4-.1"/><path fill="#B6903A" d="M29.3 10.8c.2 0 .5.2.4.4-.3.2-.7.1-.7-.3.1-.1.2-.1.4-.1m-1.2-1.9c.2 0 .5.2.4.4-.2.3-.7.1-.6-.3.1-.1.2-.1.4-.1"/><path fill="#B65026" d="M30.6 9.2c.2 0 .5.2.4.4-.3.2-.7.1-.7-.3.1-.1.2-.1.4-.1"/><path fill="#B6903A" d="M31.6 11.1c.2 0 .5.2.4.4-.3.2-.7.1-.7-.3.1-.1.2-.1.4-.1m-5.7.5c.2 0 .5.2.4.4-.3.2-.7.1-.7-.3.1-.1.2-.1.4-.1"/><path fill="#B65026" d="M37.4 10.2c.2 0 .5.2.4.4-.3.2-.7.1-.7-.3.1-.1.2-.1.4-.1"/><path fill="#B6903A" d="M39 8.8c.2 0 .5.2.4.4-.3.2-.7.1-.7-.3.1-.1.2-.1.4-.1M38 6.9c.2 0 .5.2.4.4-.3.2-.7.1-.7-.3.1-.1.2-.1.4-.1"/><path fill="#B65026" d="M40.4 7.1c.2 0 .5.2.4.4-.3.2-.7.1-.7-.3.1-.1.2-.1.4-.1"/><path fill="#B6903A" d="M41.4 9.1c.2 0 .5.2.4.4-.3.2-.7.1-.7-.3.1-.1.2-.1.4-.1m-5.7.5c.2 0 .5.2.4.4-.3.2-.7.1-.7-.3.1-.1.2-.1.4-.1"/><path fill="#B65026" d="M55.2 7c.2 0 .5.2.4.4-.3.2-.7.1-.7-.3.1-.1.3-.1.4-.1"/><path fill="#B6903A" d="M56.9 5.7c.2 0 .5.2.4.4-.3.2-.7.1-.7-.3.1-.1.2-.1.4-.1m-1.2-2c.2 0 .5.2.4.4-.3.2-.7.1-.7-.3.1-.1.2-.1.4-.1"/><path fill="#B65026" d="M58.2 4c.2 0 .5.2.4.4-.3.2-.7.1-.7-.3.2-.1.3-.1.4-.1"/><path fill="#B6903A" d="M59.2 5.9c.2 0 .5.2.4.4-.2.3-.6.1-.6-.3.1-.1.2-.1.4-.1m-5.8.6c.2 0 .5.2.4.4-.3.2-.7.1-.7-.3.1-.1.2-.1.4-.1"/><path fill="#B65026" d="M24.8 28.1c.2 0 .5.2.4.4-.3.2-.7.1-.7-.3.1-.1.2-.1.4-.1"/><path fill="#B6903A" d="M26.5 26.8c.2 0 .5.2.4.4-.3.2-.7.1-.7-.3.1-.1.2-.1.4-.1m-1.2-2c.2 0 .5.2.4.4-.3.2-.7.1-.7-.3.1-.1.2-.1.4-.1"/><path fill="#B65026" d="M27.8 25.1c.2 0 .5.2.4.4-.3.2-.7.1-.7-.3.1-.1.2-.1.4-.1"/><path fill="#B6903A" d="M28.8 27.1c.2 0 .5.2.4.4-.3.2-.7.1-.7-.3.1-.1.2-.1.4-.1m-5.7.5c.2 0 .5.2.4.4-.3.2-.7.1-.7-.3.1-.1.2-.1.4-.1"/><path fill="#B65026" d="M15.1 25.7c.2 0 .5.2.4.4-.3.2-.7.1-.7-.3.1-.1.2-.1.4-.1"/><path fill="#B6903A" d="M16.8 24.4c.2 0 .5.2.4.4-.3.2-.7.1-.7-.3.1-.1.2-.1.4-.1m-1.2-1.9c.2 0 .5.2.4.4-.3.2-.7.1-.7-.3.1-.1.2-.1.4-.1"/><path fill="#B65026" d="M18.1 22.7c.2 0 .5.2.4.4-.3.2-.7.1-.7-.3.1-.1.2-.1.4-.1"/><path fill="#B6903A" d="M19.2 24.7c.2 0 .5.2.4.4-.3.2-.7.1-.7-.3.1-.1.2-.1.4-.1m-5.7.5c.2 0 .5.2.4.4-.3.2-.7.1-.7-.3.1-.1.2-.1.4-.1"/><path fill="#B65026" d="M70.6 15.8c.2 0 .5.2.4.4-.3.2-.7.1-.7-.3.1-.1.2-.1.4-.1"/><path fill="#B6903A" d="M72.3 14.5c.2 0 .5.2.4.4-.3.3-.7.1-.7-.3.1-.1.2-.1.4-.1m-1.2-1.9c.2 0 .5.2.4.4-.3.2-.7.1-.7-.3.1-.1.2-.1.4-.1"/><path fill="#B65026" d="M73.6 12.8c.2 0 .5.2.4.4-.3.2-.7.1-.7-.3.1-.1.2-.1.4-.1"/><path fill="#B6903A" d="M74.6 14.8c.2 0 .5.2.4.4-.3.2-.7.1-.7-.3.1-.1.2-.1.4-.1m-5.7.5c.2 0 .5.2.4.4-.3.2-.7.1-.7-.3.1-.1.2-.1.4-.1"/><path fill="#B65026" d="M69 10.2c.2 0 .5.2.4.4-.3.2-.7.1-.7-.3.1-.1.2-.1.4-.1"/><path fill="#B6903A" d="M70.7 8.9c.2 0 .5.2.4.4-.3.2-.7.1-.7-.3.1-.1.2-.1.4-.1M69.6 7c.2 0 .5.2.4.4-.3.2-.7.1-.7-.3.2-.1.3-.2.4-.1"/><path fill="#B65026" d="M72 7.2c.2 0 .5.2.4.4-.3.2-.7.1-.7-.3.1-.1.2-.1.4-.1"/><path fill="#B6903A" d="M73 9.2c.2 0 .5.2.4.4-.3.2-.7.1-.7-.3.1-.1.2-.1.4-.1m-5.7.5c.2 0 .5.2.4.4-.3.2-.7.1-.7-.3.1-.1.2-.1.4-.1"/><path fill="#B65026" d="M64.1 26.4c.2 0 .5.2.4.4-.3.2-.7.1-.7-.3.1-.1.2-.1.4-.1"/><path fill="#B6903A" d="M65.8 25.1c.2 0 .5.2.4.4-.3.2-.7.1-.7-.3.1-.1.2-.1.4-.1m-1.2-2c.2 0 .5.2.4.4-.3.2-.7.1-.7-.3.1-.1.2-.1.4-.1"/><path fill="#B65026" d="M67.1 23.4c.2 0 .5.2.4.4-.3.2-.7.1-.7-.3.1-.1.2-.1.4-.1"/><path fill="#B6903A" d="M68.2 25.3c.2 0 .5.2.4.4-.3.2-.7.1-.7-.3.1-.1.2-.1.4-.1m-5.8.6c.2 0 .5.2.4.4-.3.2-.7.1-.7-.3.1-.1.2-.1.4-.1"/><path fill="#B65026" d="M44.6 27.5c.2 0 .5.2.4.4-.3.2-.7.1-.7-.3.1-.1.2-.1.4-.1"/><path fill="#B6903A" d="M46.3 26.2c.2 0 .5.2.4.4-.3.2-.7.1-.7-.3.1-.1.2-.1.4-.1m-1.2-2c.2 0 .5.2.4.4-.3.2-.7.1-.7-.3.1-.1.2-.1.4-.1"/><path fill="#B65026" d="M47.6 24.5c.2 0 .5.2.4.4-.3.2-.7.1-.7-.3.1-.1.2-.1.4-.1"/><path fill="#B6903A" d="M48.7 26.4c.2 0 .5.2.4.4-.3.2-.7.1-.7-.3.1-.1.2-.1.4-.1m-5.7.6c.2 0 .5.2.4.4-.3.2-.7.1-.7-.3.1-.1.2-.1.4-.1"/><path fill="#B65026" d="M31.9 32.6c.2 0 .5.2.4.4-.3.2-.7.1-.7-.3.1-.1.2-.1.4-.1"/><path fill="#B6903A" d="M33.5 31.3c.2 0 .5.2.4.4-.3.2-.7.1-.7-.3.1-.1.2-.1.4-.1m-1.1-2c.2 0 .5.2.4.4-.3.2-.7.1-.7-.3.1-.1.2-.1.4-.1"/><path fill="#B65026" d="M34.9 29.6c.2 0 .5.2.4.4-.3.2-.7.1-.7-.3.1-.1.2-.1.4-.1"/><path fill="#B6903A" d="M35.9 31.5c.2 0 .5.2.4.4-.3.2-.7.1-.7-.3.1-.1.2-.1.4-.1m-5.7.6c.2 0 .5.2.4.4-.3.2-.7.1-.7-.3.1-.1.2-.1.4-.1"/><path fill="#B65026" d="M49.8 35.1c.2 0 .5.2.4.4-.3.2-.7.1-.7-.3.1-.1.2-.1.4-.1"/><path fill="#B6903A" d="M51.5 33.8c.2 0 .5.2.4.4-.3.2-.7.1-.7-.3.1-.1.2-.1.4-.1m-1.2-2c.2 0 .5.2.4.4-.3.2-.7.1-.7-.3.1-.1.2-.1.4-.1"/><path fill="#B65026" d="M52.8 32.1c.2 0 .5.2.4.4-.3.2-.7.1-.7-.3.1-.1.2-.1.4-.1"/><path fill="#B6903A" d="M53.9 34c.2 0 .5.2.4.4-.3.2-.7.1-.7-.3.1-.1.2-.1.4-.1m-5.8.6c.2 0 .5.2.4.4-.2.2-.6 0-.6-.4.1-.1.2-.1.4-.1"/><path fill="#B65026" d="M38.6 35.1c.2 0 .5.2.4.4-.3.2-.7.1-.7-.3.1-.1.2-.1.4-.1"/><path fill="#B6903A" d="M40.2 33.8c.2 0 .5.2.4.4-.3.2-.7.1-.7-.3.1-.1.2-.1.4-.1m-1.1-1.9c.2 0 .5.2.4.4-.3.2-.7.1-.7-.3.1-.1.2-.1.4-.1"/><path fill="#B65026" d="M41.6 32.1c.2 0 .5.2.4.4-.3.2-.7.1-.7-.3.1-.1.2-.1.4-.1"/><path fill="#B6903A" d="M42.6 34.1c.2 0 .5.2.4.4-.3.2-.7.1-.7-.3.1-.1.2-.1.4-.1m-5.7.5c.2 0 .5.2.4.4-.3.2-.7.1-.7-.3.1-.1.2-.1.4-.1"/><path fill="#B65026" d="M66.1 34.7c.2 0 .5.2.4.4-.3.2-.7.1-.7-.3.1-.1.2-.1.4-.1"/><path fill="#B6903A" d="M67.7 33.4c.2 0 .5.2.4.4-.3.2-.7.1-.7-.3.1-.1.2-.1.4-.1m-1.1-1.9c.2 0 .5.2.4.4-.3.2-.7.1-.7-.3.1-.1.2-.1.4-.1"/><path fill="#B65026" d="M69.1 31.7c.2 0 .5.2.4.4-.3.2-.7.1-.7-.3.1-.1.2-.1.4-.1"/><path fill="#B6903A" d="M70.1 33.7c.2 0 .5.2.4.4-.3.2-.7.1-.7-.3.1-.1.2-.1.4-.1m-5.7.5c.2 0 .5.2.4.4-.3.2-.7.1-.7-.3.1-.1.2-.1.4-.1"/><path fill="#B65026" d="M80.2 22.8c.2 0 .5.2.4.4-.3.2-.7.1-.7-.3.1-.1.2-.1.4-.1"/><path fill="#B6903A" d="M81.9 21.5c.2 0 .5.2.4.4-.3.2-.7.1-.7-.3.1-.1.2-.1.4-.1m-1.2-2c.2 0 .5.2.4.4-.3.2-.7.1-.7-.3.1-.1.2-.1.4-.1"/><path fill="#B65026" d="M83.2 19.8c.2 0 .5.2.4.4-.3.2-.7.1-.7-.3.1-.1.2-.1.4-.1"/><path fill="#B6903A" d="M84.2 21.7c.2 0 .5.2.4.4-.3.2-.7.1-.7-.3.1-.1.2-.1.4-.1m-5.7.6c.2 0 .5.2.4.4-.3.2-.7.1-.7-.3.1-.1.2-.1.4-.1M66.4 40.1c.2 0 .5.2.4.4-.3.2-.7.1-.7-.3.1-.1.2-.1.4-.1m-1.2-2c.2 0 .5.2.4.4-.3.2-.7.1-.7-.3.1-.1.2-.1.4-.1"/><path fill="#B65026" d="M67.8 38.4c.2 0 .5.2.4.4-.3.2-.7.1-.7-.3.1-.1.2-.1.4-.1"/><path fill="#B6903A" d="M68.8 40.3c.2 0 .5.2.4.4-.3.2-.7.1-.7-.3.1-.1.2-.1.4-.1m-5.7.6c.2 0 .5.2.4.4-.3.2-.7.1-.7-.3.1-.1.2-.1.4-.1"/><path fill="#B65026" d="M72 40.6c.2 0 .5.2.4.4-.3.2-.7.1-.7-.3.1-.1.2-.1.4-.1"/><path fill="#B6903A" d="M73.7 39.3c.2 0 .5.2.4.4-.3.2-.7.1-.7-.3.1-.1.2-.1.4-.1m-1.1-2c.2 0 .5.2.4.4-.3.2-.7.1-.7-.3.1-.1.2-.1.4-.1"/><path fill="#B65026" d="M75.1 37.6c.2 0 .5.2.4.4-.3.2-.7.1-.7-.3.1-.1.2-.1.4-.1"/><path fill="#B6903A" d="M76.1 39.5c.2 0 .5.2.4.4-.3.2-.7.1-.7-.3.1-.1.2-.1.4-.1m-5.7.6c.2 0 .5.2.4.4-.3.2-.7.1-.7-.3.1-.1.2-.1.4-.1m-12.5 4c.2 0 .5.2.4.4-.3.2-.7.1-.7-.3.1-.1.2-.1.4-.1m-1.1-1.9c.2 0 .5.2.4.4-.3.2-.7.1-.7-.3.1-.1.2-.1.4-.1"/><path fill="#B65026" d="M59.5 42.5c.2 0 .5.2.4.4-.3.2-.7.1-.7-.3.1-.1.2-.1.4-.1"/><path fill="#B6903A" d="M60.5 44.4c.2 0 .5.2.4.4-.3.2-.7.1-.7-.3.1-.1.2-.1.4-.1m-5.7.5c.2 0 .5.2.4.4-.3.2-.7.1-.7-.3.1-.1.2-.1.4-.1"/><path fill="#B65026" d="M63.8 44.7c.2 0 .5.2.4.4-.3.2-.7.1-.7-.3.1-.1.2-.1.4-.1"/><path fill="#B6903A" d="M65.4 43.3c.2 0 .5.2.4.4-.3.2-.7.1-.7-.3.1-.1.2-.1.4-.1m-1.1-1.9c.2 0 .5.2.4.4-.3.2-.7.1-.7-.3.1-.1.2-.1.4-.1"/><path fill="#B65026" d="M66.8 41.6c.2 0 .5.2.4.4-.3.2-.7.1-.7-.3.1-.1.2-.1.4-.1"/><path fill="#B6903A" d="M67.8 43.6c.2 0 .5.2.4.4-.3.2-.7.1-.7-.3.1-.1.2-.1.4-.1m-5.7.5c.2 0 .5.2.4.4-.3.2-.7.1-.7-.3.1-.1.2-.1.4-.1m17.3-11c.2 0 .5.2.4.4-.3.2-.7.1-.7-.3.1-.1.2-.1.4-.1m-1.1-1.9c.2 0 .5.2.4.4-.3.2-.7.1-.7-.3.1-.1.2-.1.4-.1"/><path fill="#B65026" d="M81 31.4c.2 0 .5.2.4.4-.3.2-.7.1-.7-.3.1-.1.2-.1.4-.1"/><path fill="#B6903A" d="M82 33.4c.2 0 .5.2.4.4-.3.2-.7.1-.7-.3.1-.1.2-.1.4-.1m-5.7.5c.2 0 .5.2.4.4-.3.2-.7.1-.7-.3.1-.1.2-.1.4-.1"/><path fill="#B65026" d="M85.3 33.6c.2 0 .5.2.4.4-.3.2-.7.1-.7-.3.1-.1.2-.1.4-.1"/><path fill="#B6903A" d="M87 32.3c.2 0 .5.2.4.4-.3.2-.7.1-.7-.3.1-.1.2-.1.4-.1m-1.2-1.9c.2 0 .5.2.4.4-.3.2-.7.1-.7-.3.1-.1.2-.1.4-.1"/><path fill="#B65026" d="M88.3 30.6c.2 0 .5.2.4.4-.3.2-.7.1-.7-.3.1-.1.2-.1.4-.1"/><path fill="#B6903A" d="M89.3 32.6c.2 0 .5.2.4.4-.3.2-.7.1-.7-.3.1-.1.2-.1.4-.1m-5.7.5c.2 0 .5.2.4.4-.3.2-.7.1-.7-.3.1-.1.2-.1.4-.1m-15-5.9c.2 0 .5.2.4.4-.3.2-.7.1-.7-.3.1-.1.2-.1.4-.1m9.4 16.9c.2 0 .5.2.4.4-.3.2-.7.1-.7-.3.1-.1.2-.1.4-.1"/><path fill="#B65026" d="M82.6 25.2c.2 0 .5.2.4.4-.3.2-.7.1-.7-.3.1-.1.2-.1.4-.1"/><path fill="#B6903A" d="M99 21.9c.2 0 .5.2.4.4-.3.2-.7.1-.7-.3.1-.1.2-.1.4-.1m-3.9-7.2c.2 0 .5.2.4.4-.3.2-.7.1-.7-.3.1-.1.2-.1.4-.1"/><path fill="#B65026" d="M89.6 17.7c.2 0 .5.2.4.4-.3.2-.7.1-.7-.3.1-.1.2-.1.4-.1"/><path fill="#B6903A" d="M99.5 24.5c.2 0 .5.2.4.4-.3.2-.7.1-.7-.3.1-.1.2-.1.4-.1m-14.2.7c.2 0 .5.2.4.4-.3.2-.7.1-.7-.3.1-.1.2-.1.4-.1"/><path fill="#B65026" d="M76.3 18c.2 0 .5.2.4.4-.3.2-.7 0-.7-.4.1-.1.2-.1.4-.1"/><path fill="#B6903A" d="M77.3 10.7c.2 0 .5.2.4.4-.3.2-.7.1-.7-.3.1-.1.2-.1.4-.1m18.7 8.2c.2 0 .5.2.4.4-.3.2-.7.1-.7-.3.1-.1.2-.1.4-.1M53.8 23c.2 0 .5.2.4.4-.3.2-.7.1-.7-.3.1-.1.2-.1.4-.1m-1.1-2c.2 0 .5.2.4.4-.3.2-.7.1-.7-.3.1-.1.2-.1.4-.1"/><path fill="#B65026" d="M55.2 21.3c.2 0 .5.2.4.4-.3.2-.7.1-.7-.3.1-.1.2-.1.4-.1"/><path fill="#B6903A" d="M56.2 23.2c.2 0 .5.2.4.4-.3.2-.7.1-.7-.3.1-.1.2-.1.4-.1m-5.7.6c.2 0 .5.2.4.4-.3.2-.7.1-.7-.3.1-.1.2-.1.4-.1"/><path fill="#B65026" d="M59.5 23.5c.2 0 .5.2.4.4-.3.2-.7.1-.7-.3.1-.1.2-.1.4-.1"/><path fill="#B6903A" d="M61.2 22.2c.2 0 .5.2.4.4-.3.2-.7.1-.7-.3.1-.1.2-.1.4-.1m-1.2-2c.2 0 .5.2.4.4-.3.2-.7.1-.7-.3.1-.1.2-.1.4-.1"/><path fill="#B65026" d="M62.5 20.5c.2 0 .5.2.4.4-.3.2-.7.1-.7-.3.1-.1.2-.1.4-.1"/><path fill="#B6903A" d="M63.6 22.4c.2 0 .5.2.4.4-.3.2-.7.1-.7-.3.1-.1.2-.1.4-.1m-5.8.6c.2 0 .5.2.4.4-.3.2-.7.1-.7-.3.1-.1.2-.1.4-.1"/><g fill="#9D9B36"><path d="M23.2 39.3c-1.3-.7-4-1.8-5.3-1.7-.2.4-.3.8-.2 1.2 1 .7 2.1.3 3.2.6s1.8 1.8 3.1.1m10.9.2c1.1-.9 2.3-2.9 3.8-1.9-.1 1.7-1.8.7-2.8 1.1-.8.3-2.3 2.3-2.5 0m10.9 5.8c-.5.5-.5.9-.3 1.4.7.1 1.3-.2 1.8-.7-.3-.3-.6-.4-1.1-.5m21-1c.8.1 1.3.5 1.5 1.2-1 .3-1.6 0-1.7-1m16.7-16.2c.2-.1 6.6-2.3 6.4-3.5-.3-2-2.7.2-3.5.6-.3-3-1.3-2.5-2.8-.4-.5.7-.5 2.1-2 1.3-1-.5 0-2.2-1.7-2-.7 2 1 1.7 1.6 3-.3 0-1 .4-1.4.4 0 1.5 1.8.9 2.9.9m10.1 2.4c.1-.1.3-.1.4-.2m-32.3-6.5c-.3-1 .1-2 1.3-2-.5-.3-2.2-1-2.5-1.4-.5-.9 0-1.6 0-2.7-1.4-.8-3.2.5-2.9 2.2.1.4 1.2 1.2 1.5 1.5.4.3.3 1 1.4 1.2m-20.9 8.9c0-.9-.3-1.3-.9-1.3-.2.4-.2 1-.2 1.4.2.1.4.1.6.1M19.9 13.9c.9-.2 1.7-.6 2.3-1.2-1.3-.1-2.5.4-2.3 1.8m29.8-1.4c-1 .1-1.7-.5-1.2-1.5.9.3 1.6.9 2.3 1.5m-7.2-5.9c-.5-.2-.8-.2-1-.8.8-1.1 2.6-.7 1.7.7m9.3 2.9c-.5-.8-1-1.1-1.7-.8.2.4.5.6.9.6m20.6-.7c.8-.1 1.2-.5 1.2-1.2-1-.8-2.4 0-1.8 1.2m-1.7 4.2c-1.2 0-1.5-1.2-2-1.9-1.6 1.3.1 1.9 1.1 2.5.3-.1.5-.3.6-.6m20.5 5.6c-.3 0-.5-.2-.5-.5.8-.3 1.9-.5 2.7-.8.3.5.3.8.2 1.3-1 .3-2 .2-3 .2m5.6 4c-.3-.3-.6-.2-.3-.9.9 0 1.6.4 2 1.1-.6.6-1.4.6-1.9 0"/><path d="M92 32c1.3-.4 3.7-.5 3-2.4-1.6-.5-1.9 1.5-3.6.5-.2.8.2 1.5 1.2 1.4m-1.1-4c.8.1 1.2.4 1.3 1-.3-.1-.7-.2-1.1-.2m-2-2.7c1.5-1 2.6-.2 4-1.1 0 1.2-3.1 1.9-3.8 1.1M54 10.6c-.3 0-.5-.1-.5-.4.6-.7 1.4-.9 1.9-1.7-.6-.6-1.4-.4-2.1-.8.9-.7 2-.1 2.4-1.1-.9-.5-1.9-.9-3-.7.1.3.1 1.2.3 1.5-2.6-.1-1.2 2.4.8 2.5m4.2 4.9c-1.4.5-1.1-.8-1.9-1.2-.8-.4-1.3-.2-2.1-.4-1.2-.2-4.1-.5-3.4 1.7.5.2.9.1 1.3-.2-.6-2.6 5-.2 5.7.4m-29.8-2.8c1.7-1.9-4.7-1.1-1.7 1.2.5-.3 1.1-.5 1.6-.8m6.6-3.2v.6m17.9 19.7c-1.7.3-1.4-.1-1.9-1.1-.2-.3 0-1.1-.2-1.5-.2-.4-.8-.5-.9-1.3-.7 0-.9.3-1.1 1 1.5.6.7 1.2 1.3 2.2.5 1 1.2.9 1.2 2.3 1 .4 1.7-.2 1.4-1.3M64.9 32c-.2.1-.4.2-.6.4-.4-.5 0-.6.3-.9m19.9 7c2.4-3.3-2.1-1.7-3.2-1.9-.2 1.4 2.7 1.7 3.8 1.3M72 24.8c-.8.4-1.7.2-2.4-.3-.2 1.5 1.5 1.4 2.6 1.3M66.8 9.3c-1.4.2-4.1 1.1-4.9-.5 1.7-.5 2.7.5 4.5-.2.2.2.3.5.2.7M41.1 5.2c-.1-.2 0-.4.2-.4 2.1.5.4 3.2 1.4 4.1 1.3 1.2 1.6-2.4 2-3.1-1.3-.4-2.8-2.3-3.8-.3M22 26.3c.5.4.9 1 1.1 1.6-.8.1-1.2-.6-2-.6-.7 0-1.4.9-2.2.9-1 0-2.9-.9-2.1-2.1 1.1 1.6 3.4.5 4.6-.4m-.9-11.2c1.1.3 3.3.5 2.7-1.2-1-.4-2.3.1-2.9.8.2.6.6.6 1.1.7m-3 21.6c-.8-.4-1.4-1.2-1.8-2.1-.9 1.2.4 3.3 1.6 2m12.7-6.1c-.4-.1-.6-.4-.6-.8.4-.1.7-.3 1.2-.2-1.1-.6-2.5-.8-2.4 1 .4.2.7.3 1.2.2m41.9 7.1c-.8.2-1.3.9-1.8 1.7-.6-.1-1.1-.6-1.4-1.1 1.1-1.5 3.5-1.6 3 .8m-4-5.6h-.7c.1-.2.3-.4.5-.4m1.4-5.4c-1.5.2-3.6.6-5.2.9.8.9 3.2.6 4.1-.1m-8.6-11.9c.4-.4.5-1 .3-1.5-.2 0-.6-.2-.7-.2.3-.1.6-.5.8-.6-.4 0-.7-.1-1.1-.1.5-1.1 3.5-.5 2.2 1 .7.2 1.2.7 1.2 1.4-.8.2-1.7.1-2.3.8"/></g><g fill="#C44E2C"><path d="M24.5 38.3c-1.3-.7-4-1.8-5.3-1.7-.2.4-.3.8-.2 1.2 1 .7 2.1.3 3.2.6s1.8 1.8 3.1.1m10.9.2c1.1-.9 2.3-2.9 3.8-1.9-.1 1.7-1.8.7-2.8 1.1-.8.3-2.3 2.3-2.5 0m11 5.8c-.5.5-.5.9-.3 1.4.7.1 1.3-.2 1.8-.7-.3-.3-.6-.4-1.1-.5m20.9-1c.8.1 1.3.5 1.5 1.2-1 .3-1.6 0-1.7-1M83.6 27c.2-.1 6.6-2.3 6.4-3.5-.3-2-2.7.2-3.5.6-.3-3-1.3-2.5-2.8-.4-.5.7-.5 2.1-2 1.3-1-.5 0-2.2-1.7-2-.7 2 1 1.7 1.6 3-.3 0-1 .4-1.4.4 0 1.5 1.8.9 2.9.9m10.1 2.4c.1-.1.3-.1.4-.2m-32.4-6.6c-.3-1 .1-2 1.3-2-.5-.3-2.2-1-2.5-1.4-.5-.9 0-1.6 0-2.7-1.4-.8-3.2.5-2.9 2.2.1.4 1.2 1.2 1.5 1.5.4.3.3 1 1.4 1.2m-20.9 8.9c0-.9-.3-1.3-.9-1.3-.2.4-.2 1-.2 1.4.2.1.4.1.6.1M21.2 12.9c.9-.2 1.7-.6 2.3-1.2-1.3-.1-2.5.4-2.3 1.8m29.9-1.3c-1 .1-1.7-.5-1.2-1.5.9.3 1.6.9 2.3 1.5m-7.3-6c-.5-.1-.8-.2-.9-.7.8-1.1 2.6-.7 1.7.7m9.2 2.9c-.5-.8-1-1.1-1.7-.8.2.4.5.6.9.6m20.6-.8c.8-.1 1.2-.5 1.2-1.2-1-.8-2.4 0-1.8 1.2m-1.7 4.3c-1.2 0-1.5-1.2-2-1.9-1.6 1.3.1 1.9 1.1 2.5.3-.1.5-.3.6-.6m20.5 5.5c-.3 0-.5-.2-.5-.5.8-.3 1.9-.5 2.7-.8.3.5.3.8.2 1.3-1 .3-2 .2-3 .2m5.6 4.1c-.3-.3-.6-.2-.3-.9.9 0 1.6.4 2 1.1-.6.6-1.4.6-1.9 0"/><path d="M93.4 31c1.3-.4 3.7-.5 3-2.4-1.6-.5-1.9 1.5-3.6.5-.2.8.2 1.5 1.2 1.4m-1.2-3.9c.8.1 1.2.4 1.3 1-.3-.1-.7-.2-1.1-.2m-1.9-2.7c1.5-1 2.6-.2 4-1.1 0 1.2-3.1 1.9-3.8 1.1m-36-15c-.3 0-.5-.1-.5-.4.6-.7 1.4-.9 1.9-1.7-.6-.6-1.4-.4-2.1-.8.9-.7 2-.1 2.4-1.1-.9-.5-1.9-.9-3-.7.1.3.1 1.2.3 1.5-2.6-.1-1.2 2.4.8 2.5m4.2 4.9c-1.4.5-1.1-.8-1.9-1.2-.8-.4-1.3-.2-2.1-.4-1.2-.2-4.1-.5-3.4 1.7.5.2.9.1 1.3-.2-.6-2.6 5-.2 5.7.4m-29.8-2.8c1.7-1.9-4.7-1.1-1.7 1.2.5-.3 1.1-.5 1.6-.8m6.7-3.3v.6m17.9 19.8c-1.7.3-1.4-.1-1.9-1.1-.2-.3 0-1.1-.2-1.5-.2-.4-.8-.5-.9-1.3-.7 0-.9.3-1.1 1 1.5.6.7 1.2 1.3 2.2.5 1 1.2.9 1.2 2.3 1 .4 1.7-.2 1.4-1.3M66.3 31c-.2.1-.4.2-.6.4-.4-.5 0-.6.3-.9m19.9 7.1c2.4-3.3-2.1-1.7-3.2-1.9-.2 1.4 2.7 1.7 3.8 1.3M73.4 23.9c-.8.4-1.7.2-2.4-.3-.2 1.5 1.5 1.4 2.6 1.3M68.2 8.3c-1.4.2-4.1 1.1-4.9-.5 1.7-.5 2.7.5 4.5-.2.2.2.2.4.2.7m-25.6-4c-.1-.2 0-.4.2-.4 2.1.4.4 3.1 1.4 4 1.3 1.2 1.6-2.4 2-3.1-1.3-.4-2.8-2.3-3.8-.3M76.5 15c.5.4.9 1 1.1 1.6-.8.1-1.2-.6-2-.6-.7 0-1.4.9-2.2.9-1 0-2.9-.9-2.1-2.1 1.1 1.6 3.4.5 4.6-.4m-54.1-.9c1.1.3 3.3.5 2.7-1.2-1-.4-2.3.1-2.9.8.2.6.6.6 1.1.7m-3 21.6c-.8-.4-1.4-1.2-1.8-2.1-.9 1.2.4 3.3 1.6 2m12.7-6c-.4-.1-.6-.4-.6-.8.4-.1.7-.3 1.2-.2-1.1-.6-2.5-.8-2.4 1 .4.2.7.3 1.2.2m42 7.1c-.8.2-1.3.9-1.8 1.7-.6-.1-1.1-.6-1.4-1.1 1.1-1.5 3.5-1.6 3 .8m-4.1-5.6h-.7c.1-.2.3-.4.5-.4m1.4-5.4c-1.5.2-3.6.6-5.2.9.8.9 3.2.6 4.1-.1m-8.5-12c.4-.4.5-.9.3-1.5-.2 0-.6-.2-.7-.2.3-.1.6-.5.8-.6-.4 0-.7-.1-1.1-.1.5-1.1 3.5-.5 2.2 1 .7.2 1.2.7 1.2 1.4-.8.2-1.7.1-2.3.8"/></g><g fill="#D5B382"><path d="M23.9 19c-2.1-1-3.2 2.3-1.7 3.4 1.2.9 4-.1 4.8-.9.6 1 3.4 1.5 3.1-.1-1.7-.2-7.1-5-8.5-1.1m-3 6.7c-.7.5.1 1.1.7 1.4.9.5 1.3.1 2.3-.1 1-.3 1.6.1 1.9-1.1.1-.6-.6-2-1-2.4-1.2-1.6-3.3-1.6-2.3.3.2.4 1.6.4.5 1.4-.5.4-1.6-.1-2.3.6m6.9 4.5c-1-.3-1.8-.7-2.5-1.5.6-.5 1-1.1.5-1.8 1.2-.5 4.2-.7 5.1.4 1.1 1.4-1.8 5.1-2.7 2.8m10.6.4c-1.5.4-3.3-.7-3.9 1.4-.7 2.5 1.5 1.8 2.9 1.9-.5.6-1.6.2-2 1-.5 1.1.6 1.3 1.4 1.5 1.6.4 4.2-.5 4.9-2 .5-1.1.4-3.8-.4-4.7-.9-1-4.8-1.9-3.9.6 1 .3 3.1-1 2.8 1.1-1 .6-3-.5-4.1-.7"/><path d="M29.9 18.8c-.2.2-.3.2-.5.2-.3-.5-.1-1.1.1-1.5-1.1-.2-2.5.8-2.4 2.1.2 1.3 1.8 2.3 2.9 2.6.6.2 3.3.7 3.2-.5 0-.7-.8-.6-1.3-.8-.7-.4-1-1-1.5-1.6m17 6.5h1.3c.9 1.4-1 1.6-2 1.7-1.2.2-3.1.3-3-1.5 1-.5 2.9-.4 4-.3M37 25.4c-.1.2-.2.4-.2.7 1-.2 1.3.6.7 1.1-.5.4-1.5.4-2.1.5-1.4.2-2.7.3-4.1.2-.6-.1-1.7-.1-2.1-.6-.5-.6-.2-1.7.6-1.9.4-.1 1.6.1 2.1.1.7 0 1.4.2 2.1.1-.1-1-.2-1.1.8-1.1.7 0 1.5.3 2.1.6-.2.7-3.3 3.4-3.6 2.7-.5-1-2.9-.6-3.8-1.7-1.7 1.5 2.2 2.1 3.1 2.1 1.6.1 3.3-1 4.8-1.5m12.4 17.4c0-.5-.5-1.1-.3-1.6s1.2-1 1.7-1.3c1-.5 2.8-1.7 3.3-.3.1.3.1 1.3 0 1.6-.2.4-.6.4-.9.7-.1.2-.2.9-.3 1-.8.7-2.2-.1-3.3.3m20.9-.8c-1.1-.3-2.1-.5-3.2-.7-.2.9-.1 1.2.7 1.5.6.2 1.8.2 2.2-.3m4.1-10.9c1.6-.4 3.2-1 4.7-1.7-2.2-1.3-5.1-.5-7.5-.3-.7 0-1.3-.2-1.6.6-.2.5.4 1.5.9 1.7.9.4 2.9 0 3.8-.3m-20.3-8.9c0 .7.2 1.2.7 1.5 1.4-1.6 2.7-.1 2.1 1.5 1 .8 1.8-.7 2.8-.4.7 3.1-5.2 1.4-6.3.9-1.2-.6-2.3-1.5-1.3-2.9.4-.5.5-.8 1.3-.8.7 0 1.5 0 1.4.9M39 20.7c2.2.7 4.4 1.3 6.7.6 1.2-.4 2.4-1.4 1.3-2.7-.7-.8-2.4-.7-3.4-.6 3.3-2.2 6.8 3.4 3.2 4.7-1.1.4-9.4 1.8-7.8-1.2m-.1-7.1c2.5-.1 5-.3 7.4-.7-.6-.5-.1-1.9-1.3-1.7 1.1 0 2.2 1 2.1 2.1-.1 1.2-1.7 1.7-2.8 1.9-1.1.2-6.8-.3-5.8-2.3m-5.2-5c1.4.1 3.6.2 4.4-1.5.4-.8.2-1.9 0-2.8 2.1-.9.7 2.8.3 3.4-.9 1.4-2.5 2.3-3.9.9m25.7 10.8s3-.3 3.7-.5c.8-.2 1.1-.4 2-.3.7.1 1.3.2 2-.2.5 1.1-.7 1.1-1.4 1.3-.9.3-1.3.6-2.3.6-1 .1-4.3 1.4-4-.9m20.3-2.8c-.4 0-2.2.6-2.5.9-.7.8.3 2 1.3 1.8.4-.1.8-.6 1.2-.6.9-.1.3.4.9.8.7.4 2.1 0 2.5-.9.8-1.8-2.7-3.5-4.1-3.6-.5 0-2.6-.1-2.1.9.4.8 2.6-.7 2.4 1.1m-3.2-5.4c.5-1.3 1.2-2.6 2.1-3.8.5.6 1.4.5 1.9 1.3.3.4.6 1.6.3 2.1-.8 1.8-3.9-1.1-3.8.8M51.6 8c-1.7.6-3.4 1-5.2 1.2-.4-.7-1.8-2.4-2.1-.8-.2 1.2.9 2.5 1.8 2.9 1.1.5 2.1 0 3.2-.2 1.4-.2 2-.2 2.2-1.8m-5 26.1c-.4 1.1 1.5 1.9 2.4 1.9.4 0 1.4-.2 1.7-.6.4-.5-.1-1.1.6-1.4.7 1.8-1 2.7-2.5 2.7-.6 0-1.8-.1-2.3-.6-.5-.5-1-1.8.2-1.7M31.2 14.9c-.5.1-.5.6-.4 1 .3 1.2.8.3 1.4.1 1.1-.3 2.1.8.8 1.4-.3.2-1 .3-1.4.3-.2.1-.1.5-.5.5-.3 0-.7-.4-1-.6-.8-.8-1.2-3 .5-2.9m35.2-1.5c.7-.1 1.2.4 1.2 1.1-1.7.3-3.2.6-4.9.3-.3-.1-.9-.2-1.2-.4-.5-.6-.1-.7-.3-1.3-.2-1.2-1-1.5-1.1-.1-.3 1.9 2 2.6 3.5 2.8.7.1 1.8.3 2.5.1.6-.2 2.1-1.4 1-1.8m-1.2-6c-.9-.4-1.8-.8-2.7-1.1-.5 1.5 3.7 2.5 3.2.7m15.7 31.3c1.2.1 2.5.8 3.7.6 1.9-.3.9-1.9 0-2.7-.9-.9-2.1-1.7-3.4-2-1-.2-3.1.2-2 1.7-.6-.4-1.8-1-2.4-.1-.4.7.3 2 .9 2.2 1.1.3 1.4-.7 2.4 0 .3.2.1.7.8.9.4.1 1 0 1.4-.1m6.7-7.1c-1.7-1.2-3.3-1.3-5.1-.6 0 .9 1.9.5 2.6.9.4.2 2.5 1.6 2.4.2"/></g><g fill="#F8B720"><path d="M89.4 13.7c-.6-.4-2-1.3-1.6-2.2.5-1 2.2.3 2.2-1.1-.7-.3-1.3.1-1.9.2-.4-1.1 1.3-1 2-.8-.2-1.1-2.4-.7-3.1-1-.3-.1-1.5-1.2-1.7-1.1-1.9.2.4 1.2.4 1.2.6 1.6-1.4 2.1-1.6 3.6-.2 1.4 2 2.4 3.1 2.6.3-.9 1.1-1.3 2-1.3m3.3 22.4c-.4-1.7 1.4-.8 2.1-.9 1.3-.3 1.1-.9 1.2-2.1 1.5-.1 3 2.1 1 2.7-1.2.3-2.8.3-4 .3m-16.3 4.2c-1.1.4-2 .8-3.1.4-.6-.2-2.6-2.2-2.8-1.1-.2 1.2 2.2 1.9 2.9 2.1 1.3.3 2.5.4 3.3-1m-25.1-1.3c2.4-.5 2 3.9.8 4.6-1.7 1-4.5-2.7-4.9 1.4-.7.1-1.6-.2-1.9-1-.4-1.2.8-1.4 1.4-1.6 1.6-.6 3.1-1.3 4.5-2.4-1.2-.2-2.4.4-3.4-.5 1.2-.8 3.8-.2 5.2-.2"/><path d="M68 38.6c1.5 1.5-.4 1.8-.8 2.9.7.6 1.7-.1 2.5-.2.3.7 1.2 2.3 2 1.2-.2-.1-.4-.4-.7-.5 1.7-1 3.4-2.2.4-2.7-.9-.2-2.1 0-2.5-1.2-.3-.9 1-1.8-.2-2.5-1.1.9.4 2.1-.2 3.1-.7 1.1-2.1-.6-2.5.8m-22.6 4c-.4-.5-1.2-.5-1.7-.1-.7.5-.5 1.1-.4 1.9-.3 0-.5.1-.8.1.9.3 2.1.4 2.8-.2.9-.7 1-2.2-.5-1.6m2.6-4.6c.6-.9.9-1.9.8-3-.9.4-1.5 0-2.3.7-.3.3.1.8-.4 1.1-.4.2-1.1-.2-1.5 0-1.1.7.4 1 1.1 1 .8-.1 1.6-1 2.2 0m-8.4 1.3c-2.3-.6-4.6-1.1-6.9-1.5-.3 2.2.6 1.8 2.5 1.5 1.6-.2 3.1.3 4.6 0 0-.5-.3-.7-.8-.9m14.1-2.7c1.5-1.5 2.1-1.7 3.9-2.3 1-.3 1.8-.5 2.6-1.1-1-1.3-2.3-.8-3.6-.4-1.6.5-2.5 1-4.1.8-1-.1-3.8-.3-2.1 1.3.2.2.6.2.9.4.3.2.6.4 1 .7.7.5.8 1.2 1.9.7-.2-.5-.5-1.2-.4-1.8"/><path d="M41 34.6c-1.3 1.2-2.7 2.2-4.2 3.2 0-.4 0-1.6-.2-1.9-.4-.6-1.1-.2-1.4-.6-.6-.8 0-1 .7-1.2.3-.1.6.3.8.3.5-.1.7-.4 1.1-.5 1.1-.3 2.7-.6 3.8-.6.8 0 .8-.3 1.6.5.4.4.8 1 .6 1.6.5 0 .6.3.8.5-.9 1.1-2.2-1.1-2.7-1.7-1 .8-1.9.2-2.9.6-1.2.5-.9 1.6-.9 2.6m36.4-23c.2-2.7-1.9-1.6-3.6-2.5-.5-.3-.6-.7-1.1-.9-.3-.1-.8.1-1.2 0-.7-.2-2.1-1.1-2-1.9.7-.3 1.1.2 1.8.1.8 0 1.3-.4 2-.7 1.5-.6 2.3-1.5 4-.7.7.3 1.1.7 1.8.7.8.1 1.2-.4 2.1-.1 1.5.4 1.8 2.1 3.4 1.9.6 2-2.5-.1-2.4 2.1-1.5-.6-1.6 1.2-3.1 1.3M19.5 25.2c.8-.7 1.9-.1 2.8-.6.3-.2 2.4-2.4 2.5-.5 0 .6-2.2 2.2-2.8 2.3-.7.2-2.5 0-3.1-.5.7-.4 1.5-.4 2.2-.9m10.6-2.3c-.2.1-3.3.3-2.8 1.5.3.9 1.5.2 2.1.1 1.2-.2 2.5-.2 3.7.1.4.1 1.5.9 1.7.9 1.2-.1.2-1.1.8-1.6.2-.2.7 0 .9-.2-.1.1 1-.6.8-.5.7-.3 1.1-.3 1.8-.5-.4-.4-1.2-.3-1.8-.7-.8-.5-1-1.1-1.9-1.3.2-.7 1.6-3.5 1-3.9-.9-.6-.8 1-1 1.3-.3.5-.6.4-.8 1-.1.5.2.8.2 1.2.1 1.4 0 .6-.8 1.7-.5.7-.2 1.5-1 2-1.9 1.1-2.3-1.7-3.8-1.6 0 .4 0 .8.2 1.1-.6.4-1.6.1-2.2.8m8.9-9.9c.1-.7.1-1.3-.2-1.9-.5 0-.4-.1-.8-.3.3-.4.3-.9 0-1.3.5-.3 1.1.1 1.7.4.2.1.5-.1.8.1.3.2 0 .6.2.8.7.4.9.1 1.4.6.1.1 0 .7 0 .8.1.3.6.6.7.9-.6-.1-1.2-.5-1.8-.7 0 .2-.3.6-.2 1-.4-.1-.3-.5-.6-.7-.4-.2-.8-.4-1.1-.6m14.5 3.6c1.2-1.2-2.5-1.8-3.2-.5-.5 1 .3.6 1.1.8.8.2 1.6 1 2.3 1 .1-.3.1-.8 0-1.2m13.6-4.9c.7-.3 1.3-.7 1.7-1.3-.8-.6-1.4-.1-2.1-.2-.5 0-.6.2-1.2 0s-.4-.9-1.3-.9c-.3 1.1.8 2-.1 2.9.8.4 2.2-.3 3.1-.2 1.2.1 2.3.4 3.5.1M53.9 6.9c-1 .9-2.1 1.6-3.3 2.1-.7-1-1.1-1.8-2.3-1.9.3-.2 1.1-.4 1.3-.7.8-.9-.1-.7 0-1.6.1-1.9 1.1-.9 2.5-.5.6.1 2.8-.1 2.9.5 0 .9-2.6.6-3.1 1 .6.3 1.7-.1 2 .7.3.8-.7 1.7-1.3 1.7m-23.4 2c-1.1 0-1-1.1-1.1-1.8-.2.1-.6 0-.9.1 0-.2-.1-.6-.1-.8-.9.4-2 1.1-3.1 1.6.6.5 1.7.3 2.6.4-.2 1.1 1 1.4 1.6.7m-6.4-.5c0-.3-.1-.5-.1-.8M37.9 5c.6-1-.3-1.5-.9-2.1-.3.2-1.5.8-1.7 1.1-.5.7-.1 1.2-.4 1.9-.3-.1-.9-.1-1.2-.2-.4.7.4 1.7 1.1 1.7 0-.3.1-.8.1-1.2.5.5 1.9 3.4 3 1.7-.7-.7-2.2-.3-2.5-1.6.6.5 2.6 1.3 2.9.2-.5-.4-1.3-.1-1.7-.9.6.1 1.3-.1 1.7-.6m10.3 15.7c-.1-1.1-.8-2.3-1.9-1.1-.5-.6.1-1.1.6-1.6-1.2 1-2.8 1.4-4.2 1.9-.2-.8.3-1.4 1-1.8.3-.2.9.1 1.3-.1s.7-.6 1.1-.7c2.1-.4 2.4 1.6 2.4 3M43 24.8c1.9.9 1.8 1.1 3.3.4.4-.2 1.2-.5 1.7-.8-.7-.8-2.7-.9-3.7-.5-.5.2-1.4 1-2.1.7-1-.5.1-1.2.8-1.2m21 1.2c-.6-.8.4-1.2.9-1.4-.4-.4-.8-.6-.9-1.2 1.8-.4.5-1.6 1.7-2 1.1-.4 2.8 1.6 3.5 2.1-.7 1-.1 1.2.6 1.8.8.6 1.1.8 1.7 1.7-.8.1-2.2.3-1.9 1.5-1 0-1.2-.8-2.1-.9-.8-.1-1.5.9-2.3.7-1.4-.3-.5-.9.3-1 .8-.1 1.8.3 2.6.3.2-.7-.3-1.5-.6-2.3-1.1.1-3.5 1.7-4.5.7.4-1.5 3.5-.9 4.5-1.9-1.1-.7-1.9.8-3.3.6"/></g><g fill="#222421"><path d="M25.7 20c-3.8-.8-.6 5.1 1.1 2.6-.4-.1-1-.3-1.4-.4-.7-2.1 3.1-1.1 1.4.5 1 .6 1.8-.8 1.5-1.7-.4-1.4-1.7-1.1-2.8-1.1m12.3-1.4c-1.1-.5-2.6.6-1.3 1.3 1.3.7 2.1-.8 1.9-1.8 1.3-.4 1 1.1.4 1.8s-2 1.1-2.8.7c-3.4-1.5 1.4-4.5 2-2.1-.2.3-.5.4-.8.5m.6-4c-1.4 1.2-1.4-1.7.4-2.3 1.9-.6 2.7 1 2.5 2.7-.8.2-2 .6-2.8 0m11.5-1.5c0-.8.2-1.6.8-2.2.3.3.9.4 1.2.6.2-.8-1.7-1.5-2.5-1.3-1.6.4-1 2.2.4 2.4m5.5-3.9c-.3-1.9 2.8-3.1 3.6-1.1.8 2-2.6 1.8-3.3.9M28.6 24.9c0-.1 0-.3-.1-.4-.4.3-.8 0-1.2.1.5-1.7 2.5-.1 2.9.6 1.2-1.4-1.7-2.1-2.7-1.8-2.1.6-.7 2.9 1.1 2.3m-.7 3.9c-.8.2-1.5 0-2.2.3.8.6 2-.1 2.8.3 1.5.7.4 1.2-.8 1.2-.8 0-2.7-.5-2.7-1.6 0-1.3 2.1-1.4 2.6-.4m13.2-3.2c-1.1-.4-2.2-.5-3.3-.2.5 1.2 2.4 2.5 3.7 2.2.2-.4.2-.9 0-1.3m-.9 10.5c-.3-.3-.7-.4-1.1-.3.1.4-.1.5.3.9-.6.4-1.6-.3-2.4-.1-.2-1.1 2.8-2 3.4-.6m3.5-6.5c-.5-1.4.8-1.7 1.8-1.6.8 1.4-1.5 1.3-1.2 2.5 2.8 1.2 5-2.8 1.2-3.6-1.1-.2-2.7-.1-3.4.8-.7 1-.3 2.8 1.1 2.9M40.3 46c.3-1 5.2.7 3.6-1.8-1.4-2.4-5.8 1.2-3.5 1.5m10.3-3.3c.2-.5.1-.8-.3-.9-.9.3-2.1 1.1-1.5 2.1.9-.4 1.5-1.3 2.4-1.5m2-1.2c1.3-1 2.8-1.6 4.4-1.8-.1 1.9 1 2-1.1 2.6-.4.1-1.3.3-1.7.3-.6-.1-.7-.9-1.6-.7m-7-5.9c-.9.1-1.8.3-2.6.5.1 1.9 3.8.2 5 .5-.8-1.1-2.3-.9-3.5-.9m9.4-12.2c-1.3.6-.5 2.1.9 1.2 1.2-.9.5-1.9-.9-1.2zm2.6-8c.3-.6 1-.7 1.6-.6 0-.6-.2-1.5.5-1.7.8-.2 1.8.9 1.9 1.6.2 1.8-3 2.9-3.8 1.2m17.5-3.9c0-1-3.6-2.5-4.4-1.7-1.3 1.4 3.1 2.9 3.5 1.5M63.6 22.3c1.4-.8 5.6-2.2 5.1.6-.8.3-1.6 0-2.4.2-1.3.4-1.3 1.4-2.6 0m1.3-5.7c.8.5 2.3 1.3 1.8 2.3-.4-.6-1-1-1.8-.9-.2-.2-.2-.4-.2-.7M53.1 35.8c1 1.5 3.1.1 4.6.6-.5 1.2-2 1.1-3.2 1.1-.8 0-3.1-.7-1.4-1.7m12.5.9c-.7-.9-1.7-1.5-2.7-1.7-.6.5-1.6.8-1.2 1.6 1.2-.4 2-1.3 3.3-.5m7.3-5.1c-.7.2-1.1.8-1.1 1.6.8.2 1.9-.7 1.4-1.4m-6.1.7c-.1-.8-.2-1.6-.5-2.3v.8c-.5.2-.8.6-1 1.1.4.6 1 .8 1.7.7-.1-.2-.2-.3-.5-.4m6.4 8.1c-.8-.3-4.3-1.8-3.8.4 1.4.4 2.3-1.5 3.6-.4m-5.3 6.3c.8-.5 1.6-.7 2.5-.5-.2 1.1-1.7.8-2.2-.1m-4.9-2.2c-.9.2-1.8.4-2.6.6.8 1.4 3.1-.2 4.1-.1 2.4.4-.6 2-1.8 2.2-1 .2-4-.5-3.7-2 .4-1.6 3.2-1.4 4.2-1 .1.5-.2.5-.6.7m27-26.7c.5-.1.8-.2.8-.7-2.2-.9-3.3 1.8-.9 2.4 1.7.5 4.4-2.2 2.3-2.2-.1 1.3-1.7 2.2-2.5 1m3.6-3.5c.6 0 1.1-.1 1.5-.4-.5-.5-2.1-1.6-3-1.1-1.3.7-.3 2 1 1.7m3 4.3c.9-1 3.1-.7 2.4.9-.4 1-2.3.9-2.6-.1.4-.4 1.1-.5 1.6-.6-.8-.3-2 .6-2.1.2"/><path d="M95.8 22.1c-.4-.1-.6 0-.7-.5.4-.7 1.1-.8 1.8-.4.1.7-.5 1.2-1 1.7 1.1 1.2 4.6-3 .1-3.1-4.1 0-.8 4.4.3 3m-8.1 6.6c-2-1.1-5.3 1.5-2.6 2.4.5.2 2.2.4 2.7.1 1.2-.7.8-2.3-.6-1.5 0 .2-.1.6-.1.9-.7.2-1.3-.1-1.6-.8.6-.8 1.5-.8 2.4-1m-6.5 5c-.4.2-.6.4-.7.7.4 0 .8.2 1.2.2.3 1.3-1.5.8-2.2.6-.1 1.1 2 1.4 2.8.9 1.5-1 .5-3.1-1.2-2.5m-11.6-.3c-.1-1.6-3.3-2.2-3.9-.8-1.1 2.2 3.3 3.4 3.2 1.4-.8 0-2.2-.1-1.6-1.1.9.3 1.6 1.3 2.4.3m5.5 7.4c-1.9-.9-.5 2.8 1.2.8-.2-.4-.5-.5-.9-.6M63.2 6.4c-1-.4-2.7-1.6-3.8-1.1-1.2.5-1.4 2.5.1 2-.1-.3.2-.8.1-1.1 1.1-.3 2 .4 3.1.5M67 41.4c-.3-.2-.6-.3-.9-.2-.2.4-.2.6-.1 1 .8.2 1.6.1 2.3-.4-.1-.2-.2-.6-.3-.7.2-.1.5-.1.7 0 1 1.7-2 2.3-3.1 1.7-2.2-1.2 1.6-2.9 2.1-1.4m24.6-1.6c-2-.4-1-2.2.9-.9-.3-.7-2.2-1.5-2.9-1-1.4.9.5 2.5 1.7 2.3m-12.7-20c-.9-1-2.1-3-3.7-2.2-.7.3-1.2.8-.8 1.7.5 1.1 3 1 3.9.6m5.8 21.4c.9-.4 1.8-.5 2 .5 1.8-1.6-4.1-2.9-3.2-.1.8.2 2.3.6 2.6-.1-.4 0-1-.1-1.4-.3.4-.5 1.1-.6 1.8-.6"/></g><g fill="#C44E2C"><path d="M66 35.8c1-1.4 3.1-.4 3.9-2.1-.7-.5-2.1-.3-3-.3-.4 0-1.3-.2-1.4.4-.1.4.7 1.6.9 1.9m-5.7-3.5c-.4-.4-1-.2-1.6-.2-.8-.1-1.1-.5-1.8-.9-1.3-.8-2.5-1.3-3-2.9.7-.3 1.1 1 1.5 1.4.5.4 1.1.7 1.7 1 .6.2 1.3.3 1.9.6.5.2 1.2.6 1.7.6-.2.3-.6.5-.9.6M56 27.3c.9-.7 1.8-1.3 2.8-1.6.1 1.1.2 1.3-.7 1.6-.7.3-1.5.1-2.1.1m-.6-1.1c.3 0 .5 0 .7-.1-.1 0-.9.2-.9.1-.3-.9.4-.6.8-.9 1-.8.8-1.2 1.8.1-.5.3-1.1.1-1.6.4m2.2-5.7c.2.5.9 1.1.6 1.7-.4.8-1.2 0-1.7-.1s-1.2.4-1.7.2-1-1.4-1.3-1.8c.7-.7 3.1-.3 3.9.3m3.2-3.5c-.3 0-1.8-.3-2-.7-.4-.8.9-1.4 1.4-.8-.2-1.1-2.6-.3-2.4.8.1 1.1 2.6 1.8 3.1 1m10.3-.1c.4.2 1.9 1.1 2.3.7.1-.1.2-.4 0-.8-.6-2.2-3.3-.3-2.3.1zm-7.3-6c.8.3 1.8.2 2.3 1.3.6-.6.6-1.7-.1-2.3-1-.9-1.6.2-2.2 1m-1.4-1.9l.2-.2m13 .9c.2-.2 2.1-1.7.9-2.3-.4-.2-.9 0-.9.5.3.1.6.2.9.2-.1.8-1.1.4-1.4 1.1.1.2.2.3.4.3m-2.9 3.8c-.1-.1-2.7-1.7-2.2 0-.3-.3-.3-.8-.2-1.3.9-.3 2.5-.5 2.6 1"/><path d="M72.3 14.2c.3 1.4 0 2.2-1 3-.5-.4-.9-.8-1.4-1.1m-.7 5.5c-.6.1-.6-.5-1-.9-.5-.4-.9-.2-1.5-.3-.5-.2-2.2-2-2.6-1.4-.7 1 1.3 1.9 1.8 2.1.6.2.9.2 1.4.5.5.2.8.6 1.4.3M63.8 17c.5-1.2 4.2-3.3 4.6-1.4.4 1.9-3.4 2-4.4 1.3m1 8.4c.9-.9 1.9-1.5 3-1.8 0 .8 2.8 2.3.1 1.9-1.2-.2-2.3-.3-3.6-.3"/><path d="M73.3 26.2c-.8.4-5.6-.5-3.9-1.8.6-.5 2.2-.5 2.9-.2.8.3 2.3 1.3 1 2zm-1.4 4.7c.4.6 0 1.8-.7 1.3-.9-.7.6-2.2 1-1"/><path d="M73.3 30.1c.1.3 0 .7 0 1-.9 0-2.1-1.4-.6-1.6-.3-.1-.8-.1-1 .2-.6.7 0 .8.3 1.2.3.4.6.8 1.1.7.5-.1.8-.6.3-1.1m2 5.1c-.6-1.3-1.7-.8-.9-2.4.6-1.3 1.2-1.5 2.2-1.1.6.2 2.2.7 1.4 1.8-.4.6-1.7.6-2.3 1.2m6.7-1.3c.5 1.1 1.1 3 2.4 2.9.9-.1 1.6-1.3 1.7-2.3.2-1.7-.6-.9-1.5-.7-.6.2-1.9-.4-2.3.2m-7.3-5.5c-.3-.4-1.7-1.7-2.1-.8-.4.9 1.6.7 1.9.7m4.5 3.9c-.1 0-.2 0-.2-.2.5-1.2 5.2-1.9 5.7-.6.8 2.3-4.1 1.7-5 .9M78 26.9c-.7.5-1.2-1-1.9-1.1-.1.5-.5.9-.8 1.2.7.8 2.3-.4 2.9.3m17.1 7.4c-.3.3.6-.9.6-1.1 0-.4-.9-1.2-1.2-1.4-1.6-1.1-2.1.2-3.3 1.2.4.7 3.9 2.1 4.1.9"/><path d="M84.8 29.6c-.3-1.1-1.4.5-2.1.5-1 0-1.1-2.2-1.8-1-.7 1.2.2 1.9 1.1 1.5.8-.3 1.9-.7 2.6-1.3M76.2 22c-.9-.8-1.1-.2-2.1 0-.8.2-1.5-.4-2.3-.2.4.3.9.1 1.4.2.6.1.9.6 1.4.6.4.1 1.1-.2 1.5-.3.4-.1 1.4 0 .6-.8m3.6-.2c.3 0 .7-.2.9-.4-.5-1.6-3.6-2-3.6 0 1.3-.4 2.3-.6 3.6-.3.7.2 1.6.3 2.2.6.2.1 1.2 1.6 1 1.6-.8-.1-1.1-.9-2.1-.8-.7 0-1.9 1-2.2.1m3.5-4.1c-1.3.4-3.4 1.1-4.3-.2.8-.6 3.6-1.1 4.5-.2m.3-2.2c.2-.9.6-1.7 1.1-2.4.3 1.4-.2 2.1-1.3 2.7m1.6-5.1c-1.4-.3-2.7-.7-4-1.4 1-.1 2.2-1.2 3.1-1.1.5.1 1.1.6 1.1 1.2.1.8-.5.8-.7 1.5m-.2 2.1h.4c-1.3.7-3.2.6-4.5 1.5-.1.1 2.1.9 2.3.9 1.3-.1.9-1.1 1.8-1.9"/><path d="M85 10.6c-.9-.1-1 .7-1.8.5-.6-.2-1.6-.9-1.7-1.7.6-.1 1.3.7 1.9.9.7.2 1.5.3 2.2.6M94 12c-.2-.6.4-.9.8-1-.1-.1-.2-.4-.4-.6.2-.2.2-.5.5-.6-1.3-.5-3.1 1.5-.9 2m7.7 6c-.5-.8-1.1.6-1.6.6-1-.1-.6-1.5-.3-2 .5-.7 3.6-1.7 3.2.1-.2.1-.5.1-.7 0 0-.3-.2-.5-.2-.6-1.2.4.6 1.6-.7 2m-3.7 4.9c-.6-.1-.4-.9-.3-1.4.2-1 .3-1.1 1.1-1.1.7 0 2.3 1.3 2.2 2.1-.8-.1-.7-1.3-1.6-.5-.4.3-.5 1.8-1.1.9m1.7 5.6c-.4-.5-1.1.5-1.7.5-.7.1-1.4-.1-1.9-.6.3-.7 2.1-.8 2.8-.9 1.2-.3 2 .3 3.1.6.4.1 1.3-.1 1.5.4.4.8-.5.9-.9.9-1.1.2-2.1 0-3-.5m-5.4-3.6c-.2-.8-.6-.4-1-.5-.7-.1-.9-.1-1.5-.5-.9-.6-1.7-.5-2.7-.7-.5.9 1.5 1.5 2.1 1.7.5.2 1 .1 1.4.2.5.2.6 1.1 1.2.2M76.3 28c-.1.2-.1.2 0 .1.5-.7 2.1-1.1 2.4.1-.4.4-1.6.2-2.2.2m5.6-1.5c.6-.1 1.1-.2 1.7-.3-.2 0-.4.1-.4.3.4.7 2.3 1.4 2.8.4.6-1.3-1.6-1.7-2.2-1.9-.8-.3-2.1-1.8-2.8-.7-.7 1.1.6 3.1 1 1.6m8 4.5c-.2-1.6.8-1.4 1-2.8.4.1 1.2.2 1.4.6.4.5 0 1.1.5 1.6-.7.4-2.3 1.9-2.9.8M107 18.2c.1-.3.2-.4.5-.3.2.5.3 1.4-.4 1.2 0-.2-.1-.4 0-.6m-19.4 1c.3 0 .8.1 1.1 0 .3-.1.7-.7.9-.7.9-.1 1.3 1.2 2.2 1.2-.7 1.3-3.9.5-4.7-.4"/></g><g fill="#C44E2C"><path d="M30 33.6c1-1.4 3.1-.4 3.9-2.1-.7-.5-2.1-.3-3-.3-.4 0-1.3-.2-1.4.4-.1.4.7 1.6.9 1.9M24.6 30c-.4-.4-1.1-.2-1.6-.2-.8-.1-1.1-.5-1.8-.9-1.3-.8-2.5-1.3-3-2.9.7-.3 1.1 1 1.5 1.4.5.4 1.1.7 1.7 1 .6.2 1.3.3 1.9.6.5.2 1.2.6 1.7.6-.2.3-.6.5-.9.6m-4.1-5c.9-.7 1.8-1.3 2.8-1.6.1 1.1.2 1.3-.7 1.6-.7.2-1.5.1-2.1.1m-.7-1.2c.3 0 .5 0 .7-.1-.1 0-.9.2-.9.1-.3-.9.4-.6.8-.9 1-.8.8-1.2 1.8.1-.5.3-1.1.1-1.6.4m2.2-5.7c.2.5.9 1.1.6 1.7-.4.8-1.2 0-1.7-.1s-1.2.4-1.7.2-1-1.4-1.3-1.8c.7-.7 3.1-.3 3.9.3m3.3-3.4c-.3 0-1.8-.3-2-.7-.4-.8.9-1.4 1.4-.8-.2-1.1-2.6-.3-2.4.8.1 1.1 2.6 1.8 3.1 1m10.3-.1c.4.2 1.9 1.1 2.3.7.1-.1.2-.4 0-.8-.6-2.3-3.3-.4-2.3.1zM28.5 9c.8.3 1.8.2 2.3 1.3.6-.6.6-1.7-.1-2.3-1-.9-1.7.2-2.2 1m-1.4-1.8l.2-.2m12.9.8c.2-.2 2.1-1.7.9-2.3-.4-.2-.9 0-.9.5.3.1.6.2.9.2-.1.9-1.1.5-1.4 1.2.1.2.2.3.4.3m-2.8 3.7c-.1-.1-2.7-1.7-2.2 0-.3-.3-.3-.8-.2-1.3.9-.3 2.5-.5 2.6 1"/><path d="M36.2 12c.3 1.4 0 2.2-1 3-.5-.4-.9-.8-1.4-1.1m-.7 5.5c-.6.1-.6-.5-1-.9-.5-.4-.9-.2-1.5-.3-.5-.2-2.2-2-2.6-1.4-.7 1 1.3 1.9 1.8 2.1.6.2.9.2 1.4.5.5.2.8.6 1.4.3m-4.9-4.8c.5-1.2 4.2-3.3 4.6-1.4.4 1.9-3.4 2-4.4 1.3m1.1 8.3c.9-.9 1.9-1.5 3-1.8 0 .8 2.8 2.3.1 1.9-1.2-.2-2.3-.3-3.6-.3"/><path d="M37.3 24c-.8.4-5.6-.5-3.9-1.8.6-.5 2.2-.5 2.9-.2.7.3 2.3 1.3 1 2zm-1.4 4.7c.4.6 0 1.8-.7 1.3-.9-.7.6-2.2 1-1"/><path d="M37.3 27.9c.1.3 0 .7 0 1-.9 0-2.1-1.4-.6-1.6-.3-.1-.8-.1-1 .2-.6.7 0 .8.3 1.2.3.4.6.8 1.1.7.5-.1.8-.6.3-1.1m2 5.1c-.6-1.3-1.7-.8-.9-2.4.6-1.3 1.2-1.5 2.2-1.1.6.2 2.2.7 1.4 1.8-.4.6-1.7.6-2.3 1.2m6.6-1.2c.5 1.1 1.1 3 2.4 2.9.9-.1 1.6-1.3 1.7-2.3.2-1.7-.6-.9-1.5-.7-.6.2-1.9-.4-2.3.2m-7.3-5.6c-.3-.4-1.7-1.7-2.1-.8-.4.9 1.6.7 1.9.7m4.6 3.9c-.1 0-.2 0-.2-.2.5-1.2 5.2-1.9 5.7-.6.8 2.3-4.1 1.7-5 .9m-2.4-5.4c-.7.5-1.2-1-1.9-1.1-.1.5-.5.9-.8 1.2.7.8 2.3-.4 2.9.3m17.1 7.4c-.3.3.6-.9.6-1.1 0-.4-.9-1.2-1.2-1.4-1.6-1.1-2.1.2-3.3 1.2.4.7 3.9 2.1 4.1.9m-10.7-4.7c-.3-1.1-1.4.5-2.1.5-1 0-1.1-2.2-1.8-1-.7 1.2.2 1.9 1.1 1.5.8-.3 1.9-.7 2.6-1.3m-8.4-7.3c-.9-.8-1.1-.2-2.1 0-.8.2-1.5-.4-2.3-.2.4.3.9.1 1.4.2.6.1.9.6 1.4.6.4.1 1.1-.2 1.5-.3.4-.1 1.4 0 .6-.8m3.7-.2c.3 0 .7-.2.9-.4-.5-1.6-3.6-2-3.6 0 1.3-.4 2.3-.6 3.6-.3.7.2 1.6.3 2.2.6.2.1 1.2 1.6 1 1.6-.8-.1-1.1-.9-2.1-.8-.7.1-1.9 1-2.2.1m3.5-4.1c-1.3.4-3.4 1.1-4.3-.2.8-.6 3.6-1.1 4.5-.2m.2-2.2c.2-.9.6-1.7 1.1-2.4.3 1.4-.2 2.1-1.3 2.7m1.7-5c-1.4-.3-2.7-.7-4-1.4 1-.1 2.2-1.2 3.1-1.1.5.1 1.1.6 1.1 1.2.1.8-.5.8-.7 1.5m-.3 2h.4c-1.3.7-3.2.6-4.5 1.5-.1.1 2.1.9 2.3.9 1.3-.1.9-1.1 1.8-1.9"/><path d="M49 8.5c-.9-.1-1 .7-1.8.5-.6-.2-1.6-.9-1.7-1.7.6-.1 1.3.7 1.9.9.7.3 1.5.3 2.2.6M58 9.9c-.2-.6.4-.9.8-1-.1-.1-.2-.4-.4-.6.2-.2.2-.5.5-.6-1.3-.5-3.1 1.5-.9 2m7.6 5.9c-.5-.8-1.1.6-1.6.6-1-.1-.6-1.5-.3-2 .5-.7 3.6-1.7 3.2.1-.2.1-.5.1-.7 0 0-.3-.2-.5-.2-.6-1.2.4.6 1.6-.7 2m-3.6 4.9c-.6-.1-.4-.9-.3-1.4.2-1 .3-1.1 1.1-1.1.7 0 2.3 1.3 2.2 2.1-.8-.1-.7-1.3-1.6-.5-.4.3-.5 1.8-1.1.9m1.6 5.6c-.4-.5-1.1.5-1.7.5-.7.1-1.4-.1-1.9-.6.3-.7 2.1-.8 2.8-.9 1.2-.3 2 .3 3.1.6.4.1 1.3-.1 1.5.4.4.8-.5.9-.9.9-1.1.2-2.1 0-3-.5M58.2 23c-.2-.8-.6-.4-1-.5-.7-.1-.9-.1-1.5-.5-.9-.6-1.7-.5-2.7-.7-.5.9 1.5 1.5 2.1 1.7.5.2 1 .1 1.4.2.5.2.6 1.1 1.2.2m-17.4 2.4c-.1.2-.1.2 0 .1.5-.7 2.1-1.1 2.4.1-.4.4-1.6.2-2.2.2m5.6-1.5c.6-.1 1.1-.2 1.7-.3-.2 0-.4.1-.4.3.4.7 2.3 1.4 2.8.4.6-1.3-1.6-1.7-2.2-1.9-.8-.3-2.1-1.8-2.8-.7-.7 1.1.6 3.1 1 1.6m8 4.5c-.2-1.6.8-1.4 1-2.8.4.1 1.2.2 1.4.6.4.5 0 1.1.5 1.6-.7.4-2.3 1.9-2.9.8m16.7-12.7c.1-.3.2-.4.5-.3.2.5.3 1.4-.4 1.2 0-.2-.1-.4 0-.6m-19.4 1c.3 0 .8.1 1.1 0 .3-.1.7-.7.9-.7.9-.1 1.3 1.2 2.2 1.2-.7 1.3-3.9.5-4.7-.4"/></g></g></switch></svg>
