<svg xmlns="http://www.w3.org/2000/svg" viewBox="0 0 81.5 58.7"><path fill="#d5e5c3" stroke="#769668" stroke-width=".25" d="M76.3 27.7l-1.7-1.4s-4.1-1 0-3.1 4.1-6.4 4.1-6.4l-3.6-5.5-1.9-5-4.5-1.4H58.4l-14-1.8-2.9 1.2h-5.2l-3.1-3.1V0h-5.5l-4.3 1-5.5 2.1-1.7 1.4L1.7 8.8v2.4L.5 12.6l1.7 4.1L0 19.3l2.6 3.3L4.3 26l-.2 4.5L7 35.3v3.6l5.7 2.6 5.2.5v2.1l3.3 4.3 2.4-1.9-.5-2.1 6.7 2.1v3.1l6.4.2 2.4 2.9 1.7 2.4 3.8-1.7 4.1 3.8 7.6-1.9 4.5-1 4.3 1.9 3.8 1.9 2.3.5.8-1.1.2-.5-.7-1.4-.3-1.1 3.4-5.9 6.2-4.1 1.2-4.4-4.5-6.5-.7-5.9z"/></svg>
