<svg xmlns="http://www.w3.org/2000/svg" version="1.0" viewBox="0 0 112.1 95.1"><switch><g><path fill="#851719" stroke="#030202" stroke-width=".255" d="M3.5 78.8l-.6 3.7 2.1.7s1.1 1.6 1.8 1.9c.8.3 1.9 1 1.9 1l1.7 1.2s1.3 1.6 2.3 1.1c1-.5 2.1.8 2.1.8s2.9.5 3.5.5c.6.1 4.2.6 4.2.6s3 1.3 4.4.4c1.4-.9 2.6-.8 3.1-.7.6.1 3.7-.7 3.7-.7s1.1.7 2.3.2c1.2-.5 2.4-.4 3-.8.6-.4 4.1-.9 5.1-1.4 1-.5 1.4-.7 2.2-1.7.8-1 1.2-1.1 1.8-1.7.6-.6 2.2-1.9 2.2-1.9l.7-1.4s.2.4 1.2-.3 2.7-2.3 2.7-2.3l-.6-3.6-1.7-1-2.6-1.3s1.5 3.9 1.5 4.8c-.1.8-2.6 1-3.2 2-.6 1-3.2 1.6-3.2 1.6s-1.8 1.3-2.8 1.2c-1-.1-6.1.9-7.7 1.4-1.6.5-6.5 1.5-7.5 1.4-1-.1-6.4-.4-7.9-.5-1.5-.1-4.1-.2-5.6-.5-1.5-.4-3.4-2-3.4-2s-1.6-.5-2.5-.8c-1-.3-3.4-1.4-3.4-1.4l-.8-.5zm21.8-8.2c6.7.9 13.1 2.1 18.9 1.8 5.8-.3 7.3-1.8 13-3.2C63 67.9 78 60.1 80.9 56.6c2.9-3.5 5.5-7.7 5.2-9.4-.3-1.7.6-3.9.3-4.8-.3-.9-1.1-1.8-1.1-1.8s1.5-1.7 1.3-2.8c-.1-1.1-2-1.7-2-1.7s.3-1.9-.2-3.2c-.5-1.3-1.1-4.1-1.9-4.6-.7-.5-2-2.1-2-2.1s-1-6.6-2.4-8.2c-1.5-1.6-3.2-2.2-4.7-2.8-1.5-.6-3.6-1.2-3.6-1.2S69 10.1 67 9.9c-1.9-.2-8.8-1.9-10.2-2-1.3-.1-5.7.1-5.7.1l-8.5.2s-3.7-.1-4.9.4c-1.2.5-4.4-.6-5.3.8-.9 1.4-3.4.9-3.9.9-.6-.1-1.5 1.8-2.4 1.7-1-.1-4.3.4-4.5 1-.2.6-2.1 1.9-2.8 2-.8.1-3 2.2-4.1 3.2-1 1-2.4 1.7-2.3 2.3.2.6-1.2 1.1-1.2 1.1s-1.9 1.7-2.1 2.5C8.9 24.9 7 27 7 27s-1.4 4.1-1.7 5.1c-.3 1-.1 4.8-.4 5.8-.3 1-.9 5.8-1.2 6.6-.2.8.5 4.2.5 4.2l1.1 4.5S7.9 59.1 8 60c.1.9 1.5 3.7 2.9 4.1 1.3.3 3.8 1.6 3.8 1.6s2.4 1.9 3.3 2.4c.9.5 3.6 1 4.6 1.5.8.6 2.7 1 2.7 1z"/><path fill="#030202" d="M55.4 29.4s4.9-.4 7.3 1.3c2.4 1.7 3.6 7.7 4.7 8.8 1.1 1.2 3.2 4.9 4.3 5.7 1.1.7 2.3 3.6 1.5 3.9-.8.3-5.2 5-6.5 5-1.4.1-4.7 1.2-6.3 1.1-1.5-.1-.6-.3-3-1.8-2.4-1.4-2.3-2.4-2.5-3.5-.1-1.1-.4-9.9.2-10.5.6-.6.5-8.8.5-8.8l-.2-1.2z" opacity=".19"/><linearGradient id="a" x1="-993.197" x2="-953.87" y1="-342.258" y2="-342.258" gradientTransform="matrix(-1.2896 -.098 -.0757 .9972 -1251.39 287.924)" gradientUnits="userSpaceOnUse"><stop offset="0" stop-color="#f9af71"/><stop offset="1" stop-color="#f9b8a9"/></linearGradient><path fill="url(#a)" stroke="#620C0D" stroke-width=".51" d="M36.3 68.7s1.9.6 2.5.4c.6-.2-.1-1.7.5-1.8.6-.2 2.1-.2 2.1-.2l1.3-1.6s.9.5 1.7 0c.8-.6 2-1.7 2-1.7s-.7-1.1.1-1.7c.8-.6 1.9 0 2.4-.8.4-.8.5-2.1.5-2.1l1.7-1.9-.2-3 .9-1.8s2.8-.6 2.8-1.6c.1-1 .1-4.6.1-5.4.1-.8.3-5.4.3-5.4s1.2-3.7.7-5.8c-.5-2.1.3-4.8-.5-4.9-.8-.1-2.1-3.8-2.4-4.6-.3-.9-1.2-3.3-1.9-3.3-.8-.1-2.2-1.5-3-1.5-.8-.1-2-1.9-2.6-2.1-.6-.3-1.9-.2-1.9-.2l-2.9-.7-2.7-.5s-1.9-.8-2.7-.5c-.8.3-3.1-.9-3.6-1-.6-.1-2.2.8-2.2.8s-2.1-.4-2.5-.7c-.4-.2-1 .5-1 .5s-2.5-.4-2.9.1c-.4.6-4.7.8-4.7.8s-2 .6-2.6 1.6c-.6 1-2.7 2.3-3.3 2.8-.6.6-2 .7-2.4 1.9-.5 1.2-1.8 4-1.8 4s-2 3.4-2.4 4.4c-.4 1-1 3.5-.7 4.3.3.9.2 3.4.1 4.2-.1.8-.6 3.7-.6 4.3 0 .6.6 2.4.8 3.2.1.9-.1 4.2.1 4.8.2.6.2 3.4 1.1 3.5 1 .1 1.2 2.4 1.6 3.1.5 1 .4 2.4.9 2.5l.6.1s.4.6.9 1.2 1.2 1.3 1.6 1.6c.9.5 2.5.9 2.5.9s.7 2 1.4 2c.8.1 2.5.2 2.5.2s.7 1.1 1.9 1.4c1.1.3 3.3-.5 3.3-.5s.9.5 1.9.6c1 .1 2.2-.4 2.2-.4l2.3.4 2.1.2 2.7.5 1.4-.6z"/><path fill="#851719" stroke="#030202" stroke-width=".255" d="M10.5 65.4l-6.1 1.1s-2.1-.6-2.5.2c-.4.8-1.3 2-1.3 2l-.6.8 1.2 2.2s1.7 1 2.3 1.3c.6.3 4 .8 4 .8s2.1.2 2.9.7c.7.5 1.9.8 3 1.1 1.1.3 2.9.5 3.5.5.6.1 2.3-.2 3.4.7 1.1.9 4.4.2 5 .3.6.1 2 1.5 3.2 1.1 1.2-.3 2.4-.4 2.4-.4s1.7.2 2.3.2c.6.1 1 .3 2-.2s2.7.1 3.9-.5c1.2-.5 1.5.1 2.7-.4 1.2-.5 3.7-4.3 3.7-4.3s-3.8.3-5.2.1c-1.4-.1-7.2-.3-10.8-1-3.6-.8-9.9-3.5-11.6-3.6-1.7-.2-3.8-.8-4.6-1.3-.7-.3-2.8-1.4-2.8-1.4z"/><linearGradient id="b" x1="-984.976" x2="-955.875" y1="-313.318" y2="-313.318" gradientTransform="matrix(-1.2896 -.098 -.0757 .9972 -1251.39 287.924)" gradientUnits="userSpaceOnUse"><stop offset="0" stop-color="#f9af71"/><stop offset="1" stop-color="#f9b8a9"/></linearGradient><path fill="url(#b)" stroke="#620C0D" stroke-width=".51" d="M5.2 66.8s-.1.8-.1 1.7c-.1.8 1.1 1.8 1.1 1.8s1.5 1 2.5 1.1c1 .1 1.1.5 1.9.6.8.1 2.5 1.1 3 1.1.6.1 1.3.3 2.7.3 1.4-.1 2.8 1.5 4 1 1.2-.5 2.3 0 3.7.1 1.4.1 2.7.3 3.3.3.6.1 1.6-.3 2.7-.2 1.2.1 2.7.3 2.7.3s1.7.4 2.7.3c1-.1 1.2-1.3 1.2-1.3l2.1.2.8-.8 2.9.3s-6.7-.9-8.7-1c-1.9-.2-9.4-2.6-10.3-2.7-1-.1-8.6-2.5-9.3-3l-1-.5c-1.1-.4-2.6-.9-2.6-.9l-3.7.7-1.6.6z"/><path fill="#100708" stroke="#000" stroke-width=".255" d="M17.1 69.4c1.3.9 2.4.9 3.3 1.5 1.1-3.2 1.8.2 2.6.8.9-.2 2-1.4 2.9.3 1.1-.7 2.2-1.3 3.1.3 2.1-2.7 4-1.6 4.9-.2 1-.5 1.8-.8 1.7.6-.1 2.5-2.6-2.2-5.7-1.4-2.8-4.3-6.3-1.2-7.3-2-1.2 2.9-2.2 1.1-3.1-1.1-1-.5-2 2.1-2.6-.7-1.5-1-3.5-.1-3.4-1-.2 2.9.3 1.2.9 1.3.3 2 2.6 2.6 2.7 1.6z" opacity=".56"/><path fill="#851719" stroke="#030202" stroke-width=".255" d="M3.5 78.8s-.1-1.5-1.3-1.6C1 77.1-.3 76.1 0 74.7c.3-1.4 1.4-1.5 1.7-2.1C2 72 3.6 74 3.6 74s2.8 1.1 2.8 1.7c0 .6.7 1.5.7 1.5s2.3-.2 3.1.5c.7.7 2.2 1.9 2.2 1.9s1.9 1.2 2.7.9c.8-.3 2-.2 3.3.1 1.3.3 2.1.8 2.7.5.6-.4 1.9.2 3.3-.3s2.5.7 3.5.3c1-.3 2.4-.6 3.1-.7.8-.1 1-.1 2.8-.6 1.8-.5 3.6-1.1 3.6-1.1s.8.1 2.1.2c1.4.1 3.1.3 3.5-.5.4-.8 1.8-1.3 2.4-1.2.6.1 2.1.6 2.9-.1l2.3-2.3 1.3.3s.3 2.1-.4 2.7c-.6.6-2.2.8-3.2 1.2-1 .3-2.4 1.7-3.2 1.6-.8-.1-2 .9-2.8 1.2-.8.3-3.1.8-3.7.9-.6.2-3.5.3-3.9.5-.4.2-4.1.7-5.1 1-1 .3-4.1.4-4.9.4-.8-.1-4.6-.7-5.4-.5-.8.1-4.8-.5-5.6-.5-.8-.1-2-1.9-3.4-2-1.4-.1-2.7-.9-3.6-1-1-.3-3.2-1.8-3.2-1.8z"/><linearGradient id="c" x1="-991.394" x2="-953.34" y1="-308.194" y2="-308.194" gradientTransform="matrix(-1.2896 -.098 -.0757 .9972 -1251.39 287.924)" gradientUnits="userSpaceOnUse"><stop offset="0" stop-color="#f9af71"/><stop offset="1" stop-color="#f9b8a9"/></linearGradient><path fill="url(#c)" stroke="#620C0D" stroke-width=".51" d="M50.1 72.1l-6.5 1.7s-.1 1.3-.5 2.1-3.2 1.2-3.2 1.2l-4.7.8h-4.3s-1 .3-2.4.4c-1.4.1-3.2-1.1-3.2-1.1s-1.8.7-3.9.3c-2.1-.5-2.4-2.2-2.4-2.2s1.3 1.4-2.2.8c-3.5-.5-5-.7-5.8-1.2-.7-.5-3-1.3-3.6-1.2-.6.2-4-.8-4-.8s-2.9-.3-1.7-.4c1.2 0 2.3 1.5 3.6 1.9 1.3.3 1.8 2.9 1.8 2.9l3.1.5s2.6 2.3 3.3 2.6c.8.3 3-.8 3.9-.3.9.5 1.7.8 2.7.9 1 .1 1-.3 2.1-.2 1.2.1 2-.4 3.1-.1 1.1.3 1.5.6 2.5.4 1-.1 4.7-1 5.9-1.3 1.2-.3 3-1.2 3.6-1.1.6.1 4.4.8 5 .3.6-.6 2.4-1.7 2.4-1.7l3.5-.3s1.7-1.9 2.3-2.3c.6-.4-.4-2.6-.4-2.6z"/><linearGradient id="d" x1="-992.323" x2="-960.687" y1="-304.068" y2="-304.068" gradientTransform="matrix(-1.2896 -.098 -.0757 .9972 -1251.39 287.924)" gradientUnits="userSpaceOnUse"><stop offset="0" stop-color="#f9af71"/><stop offset="1" stop-color="#f9b8a9"/></linearGradient><path fill="url(#d)" stroke="#620C0D" stroke-width=".51" d="M10.3 81.4s2.4 2.5 3.1 2.6c.8.1 2.7 1.1 2.7 1.1s1.5.8 2.7.9c1.2.1 3.1.7 4 .8 1 .1 2.1 0 3.5.1s1.8-.5 2.9-.4c1.2.1 3.5.1 4.1-.2.6-.4 2.7.5 4.3-.2 1.6-.7 2.6-1.4 3.4-1.6.8-.1 1.8-1.7 1.8-1.7s1 .1 2.4-.6 2-1.5 2.6-1.4c.6.1 1.7 0 2-.9.2-.8 1.7-2.1 1.7-2.1l.4-2.7-3.5 3.9s-4.2 1.9-4.8 1.9c-.6-.1-4 1.9-5 1.8-1-.1-6.7 1.9-7.7 1.8-1-.1-6-.2-7.4-.1-1.4.1-4.1-.2-5-.3-1-.1-3.5-.3-3.5-.3l-4.7-2.4z"/><linearGradient id="e" x1="-1001.066" x2="-996.309" y1="-330.058" y2="-330.058" gradientTransform="matrix(-1.2896 -.098 -.0757 .9972 -1251.39 287.924)" gradientUnits="userSpaceOnUse"><stop offset="0" stop-color="#b5802c"/><stop offset="1" stop-color="#82281d"/></linearGradient><path fill="url(#e)" d="M58.3 58.6s2-1.7 3.5-3c1.4-1.3 2.8-2 2.8-2s.1 1.1.1 1.9c0 .8-2 4.2-2.6 4.4-.6.2-1.7 0-2.9-.1s-.9-1.2-.9-1.2z" opacity=".53"/><path fill="#F2E924" d="M62.2 28.8c-.2 2.8 1.3 1.7 3.2 2.2 1.9.2 1.6 2.3 3 1.3 1.3.3 3 2.1 3.5.1.5-1.7-.6-3.1-.5-5.1 0-.6-1.9-7.9-1-3.5 1.1.8 1.5 4.1 2.3 4 .8.1.3 7.6 1 5.1.6-.7.9 4.6.4 5.7-.6 3.1-2.2 3.9-2.9 2.9-.9 2.2-2.5 2.3-2.3 0 0 .2-2.8-2.6-2.8-4.3-.1-1.5-1.6-6.1-1.7-4.2.2-2-2.2-4.5-2.2-4.2z" opacity=".12"/><path fill="#F2E924" d="M64.7 55.5c.1-.8 2.4 2.2 4.1 0 .9-1.4 2.3-2.8 3.5-2.1 1.3-1.3 2.4-.1 2.8-1.9.6-.1 3.6-1.5 3.6-1.5 0 .4 1.8-.7 1.7-1.9-.1-1.9.1-2.4.3-4.4.2-3.9.1-4.8.1-4.2 0 .4-1.4-2.6-2.1-1.2-.7 2-.1-5.1-.2-3.8.2-3.5 0-7.2-.2-3.2-.2 3.4-1.6 0-1.7 1.7.1-1-.2.7-.5 3.9-.2 1.5-.5 5 0 2.8.7-1.2-.1 1.7-.2 2.7.2-3.7 1.9 1.4 1.2 2-.8 2.9-2.1-4-2.6-2.8-.1-4.7-1.1-.5-1.8 1.7-.5-1-.8.9-.9 2-.2 3.4 1.6 3 1.6 3.1 0-.2-1.3 3.6-2.3 2.4-1.2 1.4-2.3 3.5-2.3 2.4.1-1.5-3.1-.5-3.2 1.4-.2 1.6-.9.7-.9.9z" opacity=".14"/><path fill="#F2E924" d="M68.3 63.4c0 .8-2.2.5-2.8-1.5-.8.3-2.5 2.8-3.4 2-1 1.3-1.9-3.6-2-2.3 0-.6.7-1.3.7-1.8-.1 1.1-1.5-.8-1.9-3.3-.2-2-1.3-2.5-2.5-.6-1-2.1-2.4.1-2.9.1-.9-.8-2.3 3.4-2.2 1.5 0-.8-1.7 2.3-1.7 2.8.1-1-.4.9-.5 1.2 0-.4-2.4 1.5-2.4.8s-.1 1.7-.1 1.7c0-.3-2.1 2.9-2 1.7 0 .1-1.6-2.1-1.7 0 0 .1 4.4 1.2 5 .9.6-.4 2.1 1.4 2.8 2.4.8-.4 3.5-3.7 4.5-1.2 1.1.4 2.1 4.3 2.2 1.7 0-.6 1.1-1.5 2.2-.6 1.1.3 2.5-.4 3.4-1.1.9-2 2.1 0 3.3-1.6 1.1.1 2.3-3.9 2.1-1.1-.1-2 0-4-.1-1.7z" opacity=".05"/><path fill="#F2E924" d="M54 16.3c-.1 2.5.4-.4-.9-1.8-1.4 1-2.4-2.2-3.7-.1-1.1-1.4-5.4-.3-5-1.1.5-2.5 1.8-3.8 1.7-2.8 0 .4.1-5.3 0-2.5 0 .2-1.6 1.3-3.3.2-1.6-1.7-3.5 0-4.1.3-1.2.2-4.4 2.2-5-.1-.9 1.5-1.5 1.7-1.4.9 0 .8-3-2-3.9.9-.8.5-2.5 2.1-2.4 1.7 0-.8-4.5-.2-4.5 1-.1 2.4-2.8 1.9-2.8 2 0-.2-.3 1.7-.3 1.7.1-1.6 2.3.7 3.5-.5 1.2-.2 2-3.6 3-.8 1.1 1.8 1.6 0 2.1-.2.6-.1 2.3 3.8 2.5.7 0 .8 1.6-4 2.2-.8.8.3 2.8 1.7 2.9.9 0-.4 1.4-.5 2.1.2.7 1.7 2.2 2.4 4 .8 1.8-.3 2.6 1.5 4 .6 1.3 1.2 3.5-.1 4.1-.7.4-1.2 1.7-.7 3 0 1.2 1.6 2.4 3.3 2.6.3 0-.6-.3-2.3-.4-.8z" opacity=".13"/><linearGradient id="f" x1="-997.917" x2="-987.649" y1="-377.207" y2="-377.207" gradientTransform="matrix(-1.2896 -.098 -.0757 .9972 -1251.39 287.924)" gradientUnits="userSpaceOnUse"><stop offset="0" stop-color="#b5802c"/><stop offset="1" stop-color="#82281d"/></linearGradient><path fill="url(#f)" d="M51.1 8s1.7 2.4 2.5 1.6c.8-.8 4.3 0 4.3 0s2.3 0 3.3.1 1.7.8 1.7.8l1.2-1.1L56 7.9s-6.3.7-4.9.1z" opacity=".53"/><path fill="#382027" d="M65.2 16.8c-.1 1 .6.3 1.7.4 1.1 1.6 3.1-3.5 1.9-2.8-.5-.7-1.8-2-3-2.1-1.1-2.2-2.2-.8-2.2-2 .1-1-.1 1.8-1.2.9-1.2.2-1.5-.2-3.5-.1-2 .3-4.3-1.9-3.3-.5 1.1 1.7 2.7 3.2 3.3 2.4.4 3.3 2.7 0 4 1 1.5-2.6 2.5-.1 2.5 1.1.1-.5-.2 2.2-.2 1.7zM85 45.6c0 .1 2.9-3 .8-3.7-2-1.9-1.3-3.8-2.1-1.2-.6-.5.1 4.7.1 4.2 0 .8 1.3-.5 1.2.7z" opacity=".81"/><path fill="none" stroke="#0A0506" stroke-width=".064" d="M48.8 16.8l1.2-2.7 2.6-.3m-31.3-.2l4.1-2.4"/><path fill="#FFFDEF" d="M15.9 21.9c-.1 2.2 1.2 3.5 3.6-.1 2.4.8 6-.9 9.1-.1 3 2.2 5.7 4.5 7.2.1 2.1-4.5 2.3 2.3 2.5 5.5.4 1.1.7 1.4 1.9 7.4 1.6-2.2 2.5 5.7 3.5 5.2.6 6.3 1.2 6.6 1.4 3-.2 3.8-1.4-.8-3.4-1.2-2.1 2.9-4.2-3.4-6.3-.3-1.9-1.6-4.3 4.4-5.4-3.6-1.6-.3-2.3-5.5-2.4-4.5-.1 2.3-2.7-.4-5.1-5.7-2.8 1.9-5-7.2-5.1-5.7" opacity=".17"/><path fill="#F38272" d="M43.7 51.8c-.6-6.5-2.5-5.3-4.3-4.4-1.5-4.7-3.3-6.1-4.7-5.3-1.3-.3-4.7 2.4-7.3-3.6-2.8-3.1-5.4-3.5-5.4-3-.1 2 .6-5.2.3 4.3.2 1.8.5 2 .4 4.3-.3 4.4 1.9 4.5 3.5 2.5.3 7.8 2.6 3 4.7 1.5 2.1-1.1 4 2.9 5.1 2 1.1-.6 2.7-3.7 3.6 1.9.8 6.8 1.8 4.5 2 1.3.1-1.5 3.7 0 3.6.8.1-1.1-1.3-5.6-1.5-2.3z" opacity=".38"/><path fill="#F38272" d="M26.5 69.1c1.1-1.3 1.9-4.1 2.4-4.8.4.6.8-5.1.8-4.5 0-.6-.4-2.8-1.3-2.3-.7-3.5-2-1.7-3.3.1-1.4 2.7-2.6 2.3-3.3-1.6-1 1.5-1.4-4.7-1.5-4.4-.2 1.3.1-4.4.1-3.6-.3 4.2-.2 3.3.2-3.2.2-3.5.3-4.7.4-7.1-.2 2.3-.2 2.1-.2-.2-.4 2.5-.7.2-1.4-3.5-.3-5.7-1.3-7.5-2.7-7.4-1.4.1-3 2.2-4.6 4.5-2.8-2.6-5-9.1-5.4-2.8-.4 6-.4 2.7-.8 4.7-.4 1.9-.5-.6-.9 6.4-.1-2.4-.6.6-1 3.5 0-2.3-.1-1.6 0-1.9.1-.3.2.7.3 5.6.6-3.1 1-2.8 1.3-1.2.1 5.5.6 3.4.7 8.7.3 1.7.3 6 .6 5.3.2 0 .3 1.5.3.5-.1 1.9 1.7.6 2.1-.9.4-1.4 1.2 3.3-.5 3.3 1.1-3.1 1.2 9.6 1.7 2.4.1-1.4.6 1.2 1.6-.8.5 5.9 2.1-4.7 2.4 2.9.5-2.1 1-.2 1.9-1.8.8-.8 1.3 4.3 2.2 3 1.3 5.1 3.3-5.7 2.9.6.1-.2 4.8 3.9 5 .5z" opacity=".38"/><g fill="none" stroke="#000" stroke-width=".766" opacity=".19"><path d="M52.6 21.6s1.8.2 2.2-.6c.4-.8.1-2.2.1-2.2l1.6-.8.8.2s.9.3 2.4.4l1.5.1s.7-1.6.7-2.1.4-1.6-.2-1.7c-.6-.1-1.8-1.3-2.4-1.7-.6-.4-.9-.9-2.1-1-1.2-.1-2.9-.9-4-.7-1.1.2-1.6.9-1.2 2.2.4 1.4.1 1.2-.4 1.6-.5.5-1.2 1.2-1.2 1.9s-1 .6-1.6.7c-.6.1-.8.6.2 1.2s3.2-1.2 3.9-1.1m2.4 9.2c.5-.1 2.6-1.4 2.6-2.4.1-1 .9-2.7 2.2-3.3 1.3-.5 1.3-1.5 1.8-2s1.4-1 2.1-1m-3 11.9s2.1-2.1 2.2-2.8c0-.7 1.8-1.7 2.5-2.3.7-.6 1.7-2.2 1.6-3.4-.1-1.2-.6-2.1-1.2-2.5m-8.9 11s5.3.8 5.5 1.5c.1.7-3.3 3.9-4.1 3.8-.8-.1-.1 1.7 1 1.8 1.1.1 2.6.2 2.5 1.2-.1 1-.8 3.3-2.1 4-1.3.7-2.8-.1-2.8-.1s-1.1 5.9.1 6.5c1.2.6 1.9 2 2.3 2.4.4.4 2.2 2.5 0 2.3-2.1-.2-5.2-1.2-5.2-1.2s-2.3 2.9-1.6 3.5c.7.6 2.1.9 2.9.9.8.1 2.2 1.7 2 2.2-.2.5-3.1.9-3.1.9l-2.1-.4s-.7 1.3-.1 1.8c.6.6 3 1.1 3 1.1s.7-1.4 1.2-1.6c.5-.1 3-1.2 3-1.2s2.2-2.6 3.1-2.7c.9-.1 1.9-.3 2.5-.3"/><path d="M59 24.9s.6.6 1.6 1.2 2.5 1.6 2.5 1.6l2.6-4.9s-1 .7-2.5-.2c-1.5-1-1.6-1.7-1.6-1.7l-2.6.4s-.3-.5-1.5-.6c-1.2-.1-1.2-3.4-1.2-3.4s.5-.6.1-.8c-.5-.2-.6-.4-1.4-.5-.8-.1-.7-.7-1.6-.8-.9-.1-1.7.3-1.7.3m6.2.3s.8-.3 2-.1c1.2.1 1.9-.7 1.9-.7m2.4 23.2c.8.1 2.4.9 2.9.1s-.7-5.7-2.1-6.2c-1.4-.5-2.5-.2-2.5-.2s-1 3.4-1.2 4.1c-.1.6 2.9 2.2 2.9 2.2zm2.7-5.7c.8-.4 1.9-1.2 1.7-1.8-.3-.7 1.1-2.6 1.8-2.5.8.1 1.5 1.3 1.7 2.2.3.9.6 2.9-.2 3.3-.8.4-3-.8-3-.8l-2-.4zm6.8-6.2s2 .7 2.7.8c.8.1 1.4 1.8 1.4 1.8l-1.8 2s-1.1-1.8-2-2.5c-.8-.8-.3-2.1-.3-2.1z"/><path d="M47.1 13.3s.1-2.2 1.4-2c1.2.1 2.9.3 2.9.3l.9 3.3s-1 2.1-2 1.8c-.9-.3-2.9-1.3-3-1.8-.1-.6-.2-1.6-.2-1.6zm3.9-3.2s1-1.7 1.5-1.7 1.9-.2 2.1.5c.3.7.4 1.7.4 1.7l-2.4.9-1.2-.1-.4-1.3zm6.6-1.7c-.9-.1-2.8-.3-2.8-.3l.2 2.5s.4 1 1.2 1.1c.7.2 2.3-3.2 1.4-3.3zm4.1 5.6s1.7-.5 1.8-2c.1-1.5-.3-3-1.2-2.8-.9.2-3.3.2-3.3.2s-1 .4-.9 1.4c.1 1 .8 1.9.8 1.9l1.9 1.9.9-.6zm9.6 12.2s1.2-1.6-.3-2.7-2.3-2.6-3.1-2.6c-.8-.1-1.6 1.2-1.3 1.7.3.5 2.2 1 2.5 1.6.3.5 2.2 2 2.2 2zm-7.9 27.6s0-2.8-1.7-3c-1.7-.2-2.3-2.9-3.4-3m6.3-2.4c-.4-1.4.9.4 2.2-1.3 1.3-1.7 2-2.3 2-2.3"/><path d="M65.6 54.2s2.9.6 4.7-.7c1.8-1.3 3.5-2.2 3.7-2.8.2-.6.5-1.4.5-1.4s-.6-2.9-1.7-2.8c-1.1.1-.8-2.1-1.9-2.3-1.1-.3-2.2-1.2-2.2-2.2.1-1-.1-2.7-.9-3.1M62 62.7s.4-.8 2-2 1.6-3 1.6-3m-2.8 6.9s1.7-.2 3.3-1.2c1.6-1 2.5-1.3 1.7-3s-1.7-2-1.7-2m7.4.2s-.3-3-.9-3.1c-.6-.1-4.1.8-4.1.8l-.3 3m15.9-20.7s-.3-2.9-1.2-3.6c-.9-.7-2.6-.9-3-1-.5 0-2.8-.1-3.1.4-.3.5-1.6 1.2-1.7.2-.1-1-1.5-.6-2.1-.9m9.2 5.4c-.5.5-3.1 1-3.7.5-.6-.6-1.8-3-1.8-3m4.8 8.6s.7.4.8-1.3c.1-1.7-.6-2.7-1.2-2.8m1.1 11.5s1.8-1.7 1.9-4.2c.1-2.5-.2-2.3-1.4-2.8m4 1c0-.7 1.1-2.6.1-3.8-1-1.3-2.4-1.9-3.1-2M39.8 12.5s0-.7.8-1.6c.7-.9 1.2-1.6 1.9-1.5.7.1 1.6-.6 2.9.5 1.3 1.1 1.3 1.1.1 2-1.2.9-1.9 2-1.9 2m-6.1-1.6s-3.1-1-4-1.1c-.9-.1-.9.6-1.2 1.4-.3.7-2.3 1.7-4.2 1.6m-6.7 2.7s1.4-3.1 3.1-2.9c1.8.2.4-.4 1.8.2"/><path d="M27.8 12.1s2.4-2 3.3-1.4c.9.6 1.2 1.8 1.2 1.8m4.9-2.2s1.2-1.4 2.3-1.2m24.8 6.2s.7.1 2.2.9c1.5.9 2.1 2.2 2.3 3.2.2 1 2.2 1.2 2.2 1.2m-1.2-3.8s.2-3.4-.2-4.4c-.4-1-2.6-2.5-3.7-2.6m8.8 12.9s1.1-.1 3.2.3c2 .4 2.3 2.4 2.3 2.4m-6.8 17.7s1.2-1.4 1.5-3c.3-1.7.6-2.9.5-3.9m-2.6-16.1s1.8-1.4 3.3-1.3c1.5.1 2.6.6 3.4 1.6M78 55.1s.5-3.4-1-3.6c-1.5-.1-2.3 3.6-2.3 3.6"/><path d="M77.8 48.4l.2-3.1-1.2-3.3-2.9-.6"/></g><g fill="none" stroke="#590B19" stroke-width=".128"><path d="M52.6 21.6s1.8.2 2.2-.6c.4-.8.1-2.2.1-2.2l1.6-.8.8.2s.9.3 2.4.4l1.5.1s.7-1.6.7-2.1.4-1.6-.2-1.7c-.6-.1-1.8-1.3-2.4-1.7-.6-.4-.9-.9-2.1-1-1.2-.1-2.9-.9-4-.7-1.1.2-1.6.9-1.2 2.2.4 1.4.1 1.2-.4 1.6-.5.5-1.2 1.2-1.2 1.9s-1 .6-1.6.7c-.6.1-.8.6.2 1.2s3.2-1.2 3.9-1.1m2.4 9.2c.5-.1 2.6-1.4 2.6-2.4.1-1 .9-2.7 2.2-3.3 1.3-.5 1.3-1.5 1.8-2s1.4-1 2.1-1m-3 11.9s2.1-2.1 2.2-2.8c0-.7 1.8-1.7 2.5-2.3.7-.6 1.7-2.2 1.6-3.4-.1-1.2-.6-2.1-1.2-2.5m-8.9 11s5.3.8 5.5 1.5c.1.7-3.3 3.9-4.1 3.8-.8-.1-.1 1.7 1 1.8 1.1.1 2.6.2 2.5 1.2-.1 1-.8 3.3-2.1 4-1.3.7-2.8-.1-2.8-.1s-1.1 5.9.1 6.5c1.2.6 1.9 2 2.3 2.4.4.4 2.2 2.5 0 2.3-2.1-.2-5.2-1.2-5.2-1.2s-2.3 2.9-1.6 3.5c.7.6 2.1.9 2.9.9.8.1 2.2 1.7 2 2.2-.2.5-3.1.9-3.1.9l-2.1-.4s-.7 1.3-.1 1.8c.6.6 3 1.1 3 1.1s.7-1.4 1.2-1.6c.5-.1 3-1.2 3-1.2s2.2-2.6 3.1-2.7c.9-.1 1.9-.3 2.5-.3"/><path d="M59 24.9s.6.6 1.6 1.2 2.5 1.6 2.5 1.6l2.6-4.9s-1 .7-2.5-.2c-1.5-1-1.6-1.7-1.6-1.7l-2.6.4s-.3-.5-1.5-.6c-1.2-.1-1.2-3.4-1.2-3.4s.5-.6.1-.8c-.5-.2-.6-.4-1.4-.5-.8-.1-.7-.7-1.6-.8-.9-.1-1.7.3-1.7.3m6.2.3s.8-.3 2-.1c1.2.1 1.9-.7 1.9-.7m2.4 23.2c.8.1 2.4.9 2.9.1s-.7-5.7-2.1-6.2c-1.4-.5-2.5-.2-2.5-.2s-1 3.4-1.2 4.1c-.1.6 2.9 2.2 2.9 2.2zm2.7-5.7c.8-.4 1.9-1.2 1.7-1.8-.3-.7 1.1-2.6 1.8-2.5.8.1 1.5 1.3 1.7 2.2.3.9.6 2.9-.2 3.3-.8.4-3-.8-3-.8l-2-.4zm6.8-6.2s2 .7 2.7.8c.8.1 1.4 1.8 1.4 1.8l-1.8 2s-1.1-1.8-2-2.5c-.8-.8-.3-2.1-.3-2.1z"/><path d="M47.1 13.3s.1-2.2 1.4-2c1.2.1 2.9.3 2.9.3l.9 3.3s-1 2.1-2 1.8c-.9-.3-2.9-1.3-3-1.8-.1-.6-.2-1.6-.2-1.6zm3.9-3.2s1-1.7 1.5-1.7 1.9-.2 2.1.5c.3.7.4 1.7.4 1.7l-2.4.9-1.2-.1-.4-1.3zm6.6-1.7c-.9-.1-2.8-.3-2.8-.3l.2 2.5s.4 1 1.2 1.1c.7.2 2.3-3.2 1.4-3.3zm4.1 5.6s1.7-.5 1.8-2c.1-1.5-.3-3-1.2-2.8-.9.2-3.3.2-3.3.2s-1 .4-.9 1.4c.1 1 .8 1.9.8 1.9l1.9 1.9.9-.6zm9.6 12.2s1.2-1.6-.3-2.7-2.3-2.6-3.1-2.6c-.8-.1-1.6 1.2-1.3 1.7.3.5 2.2 1 2.5 1.6.3.5 2.2 2 2.2 2zm-7.9 27.6s0-2.8-1.7-3c-1.7-.2-2.3-2.9-3.4-3m6.3-2.4c-.4-1.4.9.4 2.2-1.3 1.3-1.7 2-2.3 2-2.3"/><path d="M65.6 54.2s2.9.6 4.7-.7c1.8-1.3 3.5-2.2 3.7-2.8.2-.6.5-1.4.5-1.4s-.6-2.9-1.7-2.8c-1.1.1-.8-2.1-1.9-2.3-1.1-.3-2.2-1.2-2.2-2.2.1-1-.1-2.7-.9-3.1M62 62.7s.4-.8 2-2 1.6-3 1.6-3m-2.8 6.9s1.7-.2 3.3-1.2c1.6-1 2.5-1.3 1.7-3s-1.7-2-1.7-2m7.4.2s-.3-3-.9-3.1c-.6-.1-4.1.8-4.1.8l-.3 3m15.9-20.7s-.3-2.9-1.2-3.6c-.9-.7-2.6-.9-3-1-.5 0-2.8-.1-3.1.4-.3.5-1.6 1.2-1.7.2-.1-1-1.5-.6-2.1-.9m9.2 5.4c-.5.5-3.1 1-3.7.5-.6-.6-1.8-3-1.8-3m4.8 8.6s.7.4.8-1.3c.1-1.7-.6-2.7-1.2-2.8m1.1 11.5s1.8-1.7 1.9-4.2c.1-2.5-.2-2.3-1.4-2.8m4 1c0-.7 1.1-2.6.1-3.8-1-1.3-2.4-1.9-3.1-2M39.8 12.5s0-.7.8-1.6c.7-.9 1.2-1.6 1.9-1.5.7.1 1.6-.6 2.9.5 1.3 1.1 1.3 1.1.1 2-1.2.9-1.9 2-1.9 2m-6.1-1.6s-3.1-1-4-1.1c-.9-.1-.9.6-1.2 1.4-.3.7-2.3 1.7-4.2 1.6m-6.7 2.7s1.4-3.1 3.1-2.9c1.8.2.4-.4 1.8.2"/><path d="M27.8 12.1s2.4-2 3.3-1.4c.9.6 1.2 1.8 1.2 1.8m4.9-2.2s1.2-1.4 2.3-1.2m24.8 6.2s.7.1 2.2.9c1.5.9 2.1 2.2 2.3 3.2.2 1 2.2 1.2 2.2 1.2m-1.2-3.8s.2-3.4-.2-4.4c-.4-1-2.6-2.5-3.7-2.6m8.8 12.9s1.1-.1 3.2.3c2 .4 2.3 2.4 2.3 2.4m-6.8 17.7s1.2-1.4 1.5-3c.3-1.7.6-2.9.5-3.9m-2.6-16.1s1.8-1.4 3.3-1.3c1.5.1 2.6.6 3.4 1.6M78 55.1s.5-3.4-1-3.6c-1.5-.1-2.3 3.6-2.3 3.6"/><path d="M77.8 48.4l.2-3.1-1.2-3.3-2.9-.6"/></g><path fill="none" stroke="#DCA427" stroke-width=".766" d="M36.4 68.7s1.9.6 2.5.4c.6-.2-.1-1.7.5-1.8.6-.2 2.1-.2 2.1-.2l1.3-1.6s.9.5 1.7 0c.8-.6 2-1.7 2-1.7s-.7-1.1.1-1.7c.8-.6 1.9 0 2.4-.8.4-.8.5-2 .5-2l1.7-1.9-.2-3 .9-1.8s2.7-.6 2.8-1.6c.1-1 .1-4.6.1-5.4 0-.8.3-5.4.3-5.4s1.2-3.7.7-5.8c-.5-2.1.3-4.8-.5-4.9-.8-.1-2.1-3.8-2.4-4.6-.3-.9-1.2-3.3-1.9-3.3-.8-.1-2.2-1.5-3-1.5-.8-.1-2-1.9-2.6-2.1-.6-.3-1.9-.2-1.9-.2l-2.9-.7-2.6-.7s-1.9-.8-2.7-.5c-.8.3-3.1-.9-3.6-1-.6-.1-2.2.8-2.2.8s-2.1-.4-2.5-.7c-.4-.2-1 .5-1 .5s-2.5-.4-2.9.1c-.4.6-4.7.8-4.7.8s-2 .6-2.6 1.6c-.6 1-2.7 2.3-3.3 2.8-.6.6-2 .7-2.4 1.9-.5 1.2-1.8 4-1.8 4s-2 3.4-2.4 4.4c-.4 1-1 3.5-.6 4.3.3.9.2 3.4.1 4.2-.1.8-.6 3.7-.7 4.3 0 .6.6 2.4.8 3.2.1.9-.1 4.2.1 4.8.2.6.2 3.4 1.1 3.5 1 .1 1.2 2.4 1.6 3.1.3.7.3 2.1.8 2.2l.6.1s.4.6.9 1.2 1.2 1.3 1.6 1.6c.9.5 2.5.9 2.5.9s.7 2 1.4 2c.8.1 2.5.2 2.5.2s.7 1.1 1.9 1.4c1.1.3 3.3-.5 3.3-.5s.9.5 1.9.6c1 .1 2.2-.4 2.2-.4l2.3.4 2.1.2 2.7.5 1.4-.2z" opacity=".33"/><path fill="#382027" d="M84.3 40s-3.1-.5-3.5-3.3c-.4-2.8-.8-5.5-1.4-6.7-.7-1.3.2-4-1-4.5-1.3-.5-3.7-3.5-4.3-5-.6-1.5.9-5.9 2.1-4.2 1.2 1.7 3.8 6.5 3.8 6.5s.3 4 1.2 4.3c.9.3 1.7 2.4 2.5 3.6.8 1.3 1.2 3.6 1 4.5-.2.9 1.8 1.4 2.1 2 .3.6-.2 3-.9 2.9-.6 0-1.6-.1-1.6-.1z" opacity=".46"/><path fill="#F2E924" d="M40.7 85.7s-1.6 1.6-3.3 1.4c-1.8-.2-2.8-.4-3.3 0-.5.3-2 .4-2.6.3-.6 0-1.7-3.1-2.5-.1-.7 1.9-.9-.1-2 .5-.6.9-2.1-1.5-3.7-.1-1.4-2.7-3 .4-3.1.1-.4 2.1-3.2-3.3-3.6-1.5 0-4.7-1.1.1-2.4-.7-1.4 0-4.1-.1-3.8-1.3.3-2.3-1.1-.7-1.5-.5-.4.2.6 4 1.5 2.8.9.1 1.7 1.7 2.8.6 1.2-2.3.2-1.2 2.9 1.1 1.3 2.3 2.1 1.6 3 .3.9-1.4 1.5.1 2.8.7 1.3.7 2.6 2.2 4 .1 1.4-.5 2.5 2 3.9-.4 1.1 2.2 2.4-.3 3.5.3 1 1.4 2 .1 2.9-.4 1.6-.9 3.4-1.2 4.3-1.8 1-.7.2-1.4.2-1.4zM39 79.9c-.1 1.1-2.5-2.2-2.7-.3l-3.4 1.6s-6.7.3-8.3.4c-.5 0-1.3.2-2.2.4-1.8.4-4 .8-4.8.4L15 81.1c-2.5-1.2-5.8-2.9-5.8-2.9s-4.2-.6-4.4-.7c-.2 0 2.1 1.4 3.7 1.8 1.5.4 15.4 3.4 19.8 3.3 4.4-.1 8.5-1.6 8.5-1.6.2-.8 2.2-2.2 2.2-1.1zm-13.8-4.2c0 .3-3.8-1.4-5-1.3-1 .7-2.5.2-3.8-.1-.3-.1-.7-.2-1-.2-.7-.1-1.7-.2-2.6-.3-.9-.1-1.8-.3-2.2-.4-.6-.2-2.7-.8-3.9-1.2-.5-.2-.9-.3-.9-.3s14.2 4.2 16 4.4c1.8.2 2.8 1.2 3.5.8.7-.4 2.5-.2 3.1-.2.7.1.3-1.4.3-1.4.3-3.4-3.6 2.3-3.5.2z" opacity=".12"/><path fill="#F38272" d="M21.3 71.6s-1.4.5-2.5.4c-.4 0-1.2-.4-2-.9-1.2-.7-2.6-1.6-3.1-1.6-.8-.1-2.6-2.6-3.4-2.7-.8-.1-1.7 1-1.7 1s3.4 2.1 4.2 2.5c.8.4 7.2 2.2 7.2 2.2l1.3-.9zm4.4 7.8l1.4.1c1.4.1 4.6-.1 4.6-.1l-6.5-1.2.5 1.2zm21.9-5.6l-2.5.7 1.9 1 1.7-1.3z" opacity=".38"/><path fill="none" stroke="#FACCC7" stroke-width=".064" d="M50.3 35.2s-4.5-4.1-6.6-3.4c-2.2.7-3.3-1.7-5.9-1.5-2.6.2-6.9.3-7.2-1.2"/><path fill="none" stroke="#F2E4E2" stroke-width=".064" d="M49.6 40.3s-7.2-6.9-9.4-5.6c-2.3 1.3-7.1-2.9-8.8-3.5-1.7-.6-7.8 1.1-10.3.9"/><path fill="none" stroke="#F2E4E2" stroke-width=".064" d="M47.1 38.2s-.2-3.3-1.9-3.9c-1.7-.6-5.1.3-5.1.3s-.9.5-2.2.4m4.5 24.9s.2-3.7-3.1-4.9C36 53.7 36 50.1 36 50.1m4.5 13.3s-1.2-.6-3.1-4.5c-1.9-3.9-3.6-3.6-5.2-5.1l-1.6-1.5m5.8 14.4s-1.5-3.8-3.1-4.9c-1.6-1.1-2.8-4-2.8-4l-2.9-2.1"/><path fill="none" stroke="#F2E4E2" stroke-width=".064" d="M28.9 64.3s2.3-1.3 2.8-2.6 3.1-2.5 3.1-2.5m7.9 3.5s3.1-1.6-1.5-3.8c-4.6-2.3-5.3-4.2-5.3-4.2m3.6 10.5l-2.8-3.5s-2.7 2.1-4.1 3.8c-1.4 1.7-1.8 1.2-1.8 1.2m17.7-9s-4.9-3.1-6.9-4.4c-2-1.3-2.2-5.9-2.2-5.9m10.8 3.5s-1.4-4.3-4.8-4.6c-3.4-.3-6.1-5.7-6.1-5.7M27.1 29.8c-2.1-1.1-3.5-6.3-6.5-6.2-3 .2-2.3-4.8-2.3-4.8m35 15.8s-6-6.6-7.8-5.8c-1.8.8-6.7 1.4-7.3-1.5-.6-2.9-4.2-6-4.2-6l-5.5.4-4.2-2.3-2.5-3.2"/><path fill="none" stroke="#F2E4E2" stroke-width=".064" d="M53 26.7s-6 .8-8.9-.9c-2.9-1.7-1.4-5.7-4.4-5.5 0 0-3.4 7.5-3.6 10.7-.2 3.2-.8 6.4-.8 6.4 1.6 1.1 7.2.2 11 2.4C50 42 55 45.4 55 45.4"/><path fill="none" stroke="#F2E4E2" stroke-width=".064" d="M48.3 47.5s-9.7-9.7-13.1-10c-3.4-.3-6.7-2.9-9.2-3.7-2.5-.7-5.8-3.8-7.4-4.4-1.7-.6-6.3-1.5-6.2-2.9.1-1.4.2-3.7.2-3.7"/><path fill="#CF5B58" d="M57 94.7s.6-.7 1.1-.5c.6.2 2.3.4 2.8-.1.6-.5 3.8-2.6 4.2-2.8.4-.1 2.6-1.1 3.2-1.1.6.1 1.3-.1 1.6.4.3.5 1.5.9 1.5.9s.1.8.3 1.5c.2.7.7.7.7.7s1.3.1 1.7.1c.4 0 1.9-.1 1.9.2 0 .3.7 0 .7 0s.6-.1.7.1c.1.2.7.1.7.1s.8-.9 1.4-.9c.6 0 1.2-.3 1.6-.3.4-.1 1-.7 1-.7s1.4.8 1.8.8c.4 0 .9-.1 1.1.3.2.4 1.6.4 1.8.7.2.3 1.6.7 1.6.7s.8-.1.9.1c.1.2.6.5 1.1.4.5-.1 2.5-.7 3.1-.6.6.1.9-.1 2.1-.1 1.2-.1 2.1-.5 2.6-.4.5.1 1.1.2 1.1.2s1.3-.3 1.6-.5c.2-.2 2-.5 2.4-.9.4-.4.6-1.2 1.3-1.9.8-.7.9-1.7 1.2-2.2.3-.5.6-1.2.6-1.2s-1 .3-1.4-.2c-.4-.5-2-1.7-2.4-1.8-.4-.1-1.2.1-1.7.1-.5.1-.8-.1-1.7-.3-.9-.2-3.8-.8-4.7-1.1-.8-.3-2.1-.6-3 0-.9.6-1.9.8-3 .5-1.1-.3-3-.7-3.6-.5-.6.3-1.8 1-2.5.5s-1.8.4-2.4.5c-.6.1-2.4-.3-3.2-.4-.8-.1-3-.2-3.9-.5-.8-.3-2 .3-2.7.1-.6-.2-2.8.3-4.2.3-1.4 0-3.3.3-3.6.3-.4 0-.8.3-.8.3s-.8-.7-1.5-.3c-.6.3-.8.8-.9 1-.1.2-.5.1-1 .3-.5.3-.5.9-.7.9-.2 0-.9-.3-1 .1-.1.3.1.4-.5 1s-1.3 1.8-1.3 1.8-.1.2-.4.5c-.4.3-.1 1.3.2 2 .4.7.8 1.5 1.3 1.7.5.3 1.2.2 1.2.2z"/><path fill="#FBF1BA" d="M105.4 88s0 .9-.5 1.3c-.5.3-1.1.5-1.4.7-.3.1-.8.9-1.2 1.3-.4.4-.5 1.5-1.3 1.5s-1.8.5-2.3.1c-.5-.4-2-1.1-2.4-1.3-.2-.1-.8-.6-1.7-.4-.8 0-1.8.2-2.6-.6-.8-.6-1.4.1-2-.8-.6-.7-1-.9-1.3-1.1-.3-.4-1.2-.5-2-1.5-.8-.6-1.6-.8-1.8-1.1-.4-.6-.9-1-1.3-.5-.2 0-.6.1-1 .1s-.7.1-.9.1c-.3 0 1 .4 1.4.5.4.1-.1-.5.9 0 .5.2.8.8 1 .6.2-.5.4 0 .7.3.6.5.4.2.1.7-.1.2-.6-.3-1.1.3-.5.2-1.1 0-1.5.2-.4-.2-.7-.1-1 .2-.3.1-.6.2-1 .2-.7 0-1.5-.1-1.5-.1s-.7.8-1.3.8c-.6 0-.9.2-1.4 0-.5-.2-1.2-.9-1.4-.9-.2 0-.6-.3-1.3-.7-.7-.4-1.4-.6-2-.9-.6-.3-2-.7-2.2-.7-.2 0-2.5.9-3.2 1-.4.1-.8 0-1.1 0-.3-.1-.6-.3-.8-.2-.1.2-.4.3-.6.1-.3 0-.6.5-1.1.3-.4.4-.8.3-1.1.6-.4 0-.7.5-1 .6-.7.4-1.3.8-1.3.9 0 0 .3.9-.5 1.1-.4-.1-1 0-1.5.3-.5 0-1.1.2-1.4.3-.5-.5-.5.3-.5.5 0 .6-.1.7-.5.7-.7-.2-1.1.4-1.1.4 0 .2.2.1.4.8.2.2.5.6.7.7.2.4.4-.6.6-.4.2-.5.5-.5.7-.8.3-.8.6-.6 1-.7.4-.2.8-1.1 1.2-.6.4-.5.9-.2 1.3-.4.4-.4.7.6.9-.5.2-.1 1-.5 1.8-1.5.8-.9 1.6-1.2 1.7-1.1.2.6.7 0 1.3-.3.5-.2 1.1-.4 1.3-.4.4 0 1.8-.3 2.5-.5s2 .3 2 .3 2.1.4 2.1.7c0 .3 1.5 1.5 1.5 2.2 0 .6 1.1.4 1.4.3.4-.1 2.2-1 2.7-.9.6-.3 2.5-.8 2.5-.8s.2-.2.5-.3c.4.3 1-.1 1.8.4.8.4 1.1.8 1.2.3.2-.6.3.7.9.4.6 1.2 1.2 1.1 1.7 1.1.5.7.9 1 1 .5.2.4 1.3 0 1.5.4.2.5 1 1.2 1.3.4.2-.1.7.3 1.2.2.5.5.9.2.9.2 0 .2.9 0 .9-.1l1.1-.2s2 .9 2 1.1c0 .3.7.7 1.4.5.7-.1 2-.5 2.3-.9.3-.4.5-1.5 1.1-1.9.6-.5.8-1 1.3-1l.4.5.8-1.2 1-1.7-.8.1-.1.2z" opacity=".99"/><path fill="#BC413D" d="M102 85.8s1.1.1.9.6c-.1.5-2.1 1.6-2.3 2.1-.2.5-1.3.9-1.7.8-.4-.1-1.9-1.1-1.9-1.1s-2.1 0-2.6-.3-1.6-.5-2-.9c-.4-.4-1.3-1.6-1.3-1.6v-.8l1.3-.6s3.3.5 4 .8c.7.3 1.9.9 2.8.8.9-.1 2.8.2 2.8.2z"/><path fill="#CF5B58" d="M103.4 87.7l-3.7 1.9-2.1.6-1.2-1.6-3.3.1s-.9.8-1.4-.1c-.5-.9-1.5-1.8-1.5-1.8l-.5-1.4-1.3-.6-2-.3s-1.1-.6-1.6-.1-1.5.7-1.5.7 2.4 1.6 3.4 2.1 2.3 1.7 2.5 2.2c.2.5 4 1.7 4.9 1.7 1 0 3.8 1.3 3.8 1.3s2.4 1 3 .4c.5-.6 1.8-3 2.5-2.8.7.2 1.4-.7 1.4-.7l.7-1.5-1.1-.1h-1z"/><path fill="#FBF1BA" d="M104.4 87.7s-.8.1-1.1 0c-.2-.1-.4.1-.7.3-.1.1-.9.5-1.6.9-.7.4-1.4.5-1.4.7 0 0-1.1.5-1.3.3-.2.7-.2-.7-.2.1 0 .2-.4 1.2-.4.9 0-.9-.3-.7-.4-1.4-.1.1-.6-.9-.9-1-.1.8-.6-.1-1.1 0-.5.4-1-.4-1.3 0-.2-.1-.7.2-1.1.1-.4-.6-.9-.2-1.2 0-.3-.1-.4.1-.5-.7-.1.2-.2-1-.4-.9-.4.2-.8 1-1-.7-.2-.3-.6-1.5-.6-1.1 0 .3 1.2-1.5 1.2-.5 0 .2.5.6 1 1.1.5.6 1 .7 1 1.1 0 .2.8.5 1.2.7.2.5 1 1 1.7.3.7.7 1.5-.1 1.8.2.2.4.6 1.3 1 .7.4.5.7.5 1 .4.2-.4.9-.4 1.6-.5.6-.3 1.2-.5 1.2-.5s1.3-.7 1.3-.9c0-.2.6-.5-.1-.9-.6-.3-.9-.6-.9-.6h1c.2 0 1.1 1.2 1.3 1.2.3 0 .6.5.6.5l-.7.2zm-47 6s.1-.6.6-.6c.6 0 .6-.5 1.6-.6 1.1-.1 1.5-1 1.8-1 .4-.1 2-1.1 2-1.1s.6-1 1.3-1.1c.6-.1 1.6-.6 2.5-.6.8 0 1.5.1 1.8-.3.3-.3.7-.6.7-.6s.7-.4.7.2c0-.7.5.9.5.9 0-.8 0 .8.6.6.6.5-.1-.6.4-.4.6.9.6.8.6.4 0 .3.1-.5.7.8.6 1 .1.4.1 1 0-.4.1.9.1.5 0-1 .6.2.6.1 0-.9 1.6.6 1.6.5 0 0 .7.1.9 0 .2-.4 1.1-.9 1.5-.3.4-.4.4-.7.8-.6.4-.4.8.2 1.2-.5.4-.2-.1-1 .4-.1.4-.1.8.1 1 .1.2 0 1.1-.3 1.1-.3s.8.5 1 .5c.2.1 1 .4 1 .4s1.1.2 1.5.1c.4-.1 1.1.8 1.1.8s.5.3 1.1.3c.6.5 1.1.2 1.4.8.3-.6 1.3-.5 1.6-.4.1.4.5.4.8.4.3.5.6.1.8.4.3.5 1.1-.3 1.1-.1 0 .2.7-.2 1.1-.3.4-.3.6.5 1.2.1.6-1 1.1.1 1.3-.5.2-.2.6.5.6.3 0 .2-.2.3-.2.3 0 .3-.3 0-.7.2-.4 0-.8.4-1 .2-.4-.3-1.3-.1-1.6 0-.3.6-1.3.2-1.7.2-.2-.1-.5-.3-.8.3-.3.4-.7-.1-1.1.2-.7-.5-1.3.2-1.3-.3s-.4.2-.8-.2c-.4.9-1.2.3-1.5-.4-.3-.2-.4-1-.8-.4-.5 0-1.6-.5-1.6-.5s-.3-.1-.6-.1c-.4 0-1.1-.3-1.4-.3-.3-.1-1-.5-1-.5s-.2.5-1 .6c-.4-.2-.8-.2-1.1.3-.3.5-.6-.3-.9.3-.4.2-.6 1.2-1 .6-.4-.2-.6-.3-1-.3-.4.7-.4-.2-.8.2-.4.3-.5-.7-1-.3-.2-.1-.6-.5-1.1 0-.4-.5-.9-.8-1.2 0-.7-.5-1 .1-1.2-.4-.2.2-.5-1.6-.5-1.4 0-.7-.4-.9-.7-.7-.4.4-.7-1.2-.7-.5 0 .2-.8-.4-1.1-.5-.1.2-.5 1-.9.2-.4.1-.7.2-.9.2-.3 0-1.1.4-1.9.8-.8.5-2 1.4-2.3 1.5-.4.1-1.5 1.1-1.8 1.2-.4.1-.2.1-1.6.1-1.4 0-1.7.1-1.9.1-.2-.1 0-.5 0-.5z" opacity=".99"/><path fill="none" d="M57.5 89.8s-.4-.5-.3-.7c.1-.2.4-.6.4-.9.1-.3.5-.5.4-.7-.1-.2-.5-.1-.5-.1l-.4.7-.1 1.7s.1.2.3.3c.1.1.2-.3.2-.3z"/><path fill="#FBF1BA" d="M79.7 85.5s.4.6.8.5c.4-.1.4-.9 1.2-.3.8.6.8.3 1.4.5.6.1-.3-.7-.3-.7l.6-.3s-1.1-.3-1.5-.3c-.4.1-1.3.2-1.6.3-.3 0-.6.3-.6.3z" opacity=".99"/><path fill="#BC413D" d="M85.8 87.7s-.9-1.5-1.8-1.5-2.3-.5-2.3-.5l-1.3-.6s-2.6 0-3.6-.1-4.1-.6-4.8-.6c-.7 0-1.1.3-1.8.2-.7-.1-3.4 1.1-4.4.7-.9-.4-3.4-.1-3.4-.1l.1 1s-2-1.7-2.4-1c-.4.7-.9 1-.9 1l-1 .3-.7.9-1 .1s-1 1.3-1.4 2.1c-.4.7-1 1.7-1 2.2 0 .5.4 1.1.4 1.1l1.1-.4.8-1.3 1.5-.6h1.4s.1-1.9.8-1.9c.7 0 3.7-1.5 3.7-1.5s.5-.5 1.8-.3 4.5-.8 4.5-.8l3.3.9s2.6 1.7 3.1 2c.5.4 1.9.4 1.9.4s2.2-.6 2.8-.7c.6-.1 2.7-.9 2.7-.9l1.9-.1z"/><path fill="none" d="M84.4 93s-.1.6-.1-.8v-1.4s1.7.4 1.5-.5c-.2-.8.9-1.6 0-2.6-.8-1-1.7-2.1-1.7-2.1l-.6-.1"/><path fill="#FBF1BA" d="M62.4 85.1s-.1.8.6.8.6.7 1.3.7c.6 0 .8-.7.8-.7l.8-.6s.8-.3 1.1-.3c.4 0 1.2-.4 1.2-.4h2c.2 0 .3.3.3.3s-1.5.1-1.8.1c-.4 0-1.3.3-1.6.4l-1.2.3-.6.6v.4l.4.1-1.8.3s-1-.7-1.3-.9c-.3-.2-.9-.7-.9-.7l.7-.4z" opacity=".99"/><path fill="none" d="M105.3 88.5s-.1.1-.3-.3c-.2-.4-.1-.7-.1-.7l-.5.8.3.5s.5.4.1.5c-.4.1-.6-.5-.9-.8-.3-.3.1-.8.1-.8m-.6 0c-.1.1.3.7.3 1 0 .3.4.6.5.7.1.1.1.2.1.3m-.6.2l-.3-.6c-.2-.5-.2-.7-.3-.9-.1-.2 0-.6 0-.6m-.4.2s-.2.4 0 .6c.2.2.2.1.3.3 0 .2.1.3.1.4-.1.1-.1.4-.1.4s0 .3.1.4c.1 0 .1 0 .1.2m-.5.3s-.1-.4-.2-.6c0-.2.2-.4 0-.6-.2-.2-.1 0-.4-.3-.3-.3-.3-.5-.3-.5m.6 2.4s-.3-.2-.3-.8c-.1-.6-.1-.5-.3-.8-.3-.3-.3-.7-.3-.7m.7 2.7s-.3-.2-.5-.8c-.2-.6-.3-.8-.4-.9-.2-.1-.2-.6-.4-.7m1 2.8s-.4-.6-.6-1c-.3-.4-.1-.6-.5-.9-.4-.2-.5-.3-.5-.4v-.3m1.4 3.1s-.5-1-.9-1.4c-.4-.3-.3-.1-.6-.6s-.4-.8-.4-.8m1.5 3.2c-.1 0-.5-.3-.8-.9-.3-.6-.4-.9-.7-1.2-.3-.2-.5-.3-.5-.6v-.3m1.4 3.1c-.1-.1-1.1-.7-1.2-1.2-.1-.5-.1-.8-.3-1-.3-.2-.4-.5-.4-.5l-.2-.1m1.2 2.8s-.2-.9-.6-1.5c-.4-.5-.9-.7-.9-.9 0-.1-.1-.3-.1-.3m1 2.9c-.1-.2-.3-.5-.6-1s-.4-.9-.5-1c-.1-.1-.3-.1-.3-.1"/><path fill="none" d="M98.4 92.7s.4-.3 0-.7c-.4-.4-.4-.5-.4-.7 0-.2-.1-.3-.1-.3m-.4 1.3s.5 0 .3-.4-.4-.5-.4-.6c-.1-.2-.1-.6 0-.7.1-.1.2-.4.2-.4m-.9 1.6s-.1-.1.1-.5.2-.6.2-.9c-.1-.3-.3-.7-.2-.9.1-.2.1-.4.1-.4m-.9 2.4s.1-.4.1-1 .1-.6-.1-1-.1-.7-.1-.7m-.6 2.5s.1-.6.2-1c.2-.4.2-.6.1-.8-.2-.2-.3-.3-.3-.5-.1-.2-.1-.3-.1-.3m-.6 2.4s-.3-.3-.1-.9c.2-.5.4-.9.2-1.1m-.9 2.2s-.4-.2-.2-.8c.2-.5.3-.8.3-1.2 0-.4-.2-.7-.2-.7m-1 2.4l-.1-1s.2-.5-.1-.9c-.3-.4.1-.7.1-.7m-.8 2c-.1-.3-.3-.2-.1-.8.2-.6.1-.9.1-.9m-1.1 1.6s.1-.2.1-1c0-.7.2-1.4.2-1.6m-1.5 1.9s.2-.5.4-.7c.2-.2.5-.5.6-.9.1-.4-.1-.6-.1-.6m-1.5 1.4s.4-.2.6-.7c.3-.4.4-1.1.4-1.1m-1.8 1.5s.1-.5.4-1c.3-.5.8-.7.8-.7s.3-.4.3-.7m-2.4 1.7s.3-.7.8-1.1c.6-.4.6-.1.9-.4.3-.2.2-1.1.2-1.1"/><path fill="none" d="M88.6 88.8s0-.8.5-1.2c.5-.4.8-.9.8-.9s-.9-.8-.3.5c.7 1.4.9 1.7 1.3 2.2"/><path fill="none" d="M89.9 89.8s.5-.7.7-1.2c.2-.5.2-1.5.2-1.5m-4.1.1s.6-.4 1-.8.8-.3.8-.8.1-.8.1-.8m-2.7 1.8s.3-.3.8-.7c.6-.4.5-.2.9-.5.4-.2.1-.7.1-.7m-2.5 1.5s.3 0 .6-.6c.4-.6.6-.8.9-.9m-2.3 1s.1-.7.8-.8c.7-.2.9-.5.9-.5m-2.3.8s.6-.4.9-.7c.3-.2.7-.4.7-.4m-.6 2s.1-.7.6-.9c.4-.2 1-.6 1-.6m18.2 6s.2 0-.3.1-.5-.4-.5-.4m.3 1s-.2-.4-.5-.3c-.3.1-.7.2-.7.2m.9.4s-.3.4-.6.1c-.3-.2-.6-.2-.6-.2m1 .9s-.2.1-.5-.1-.8.1-.8.1m.9.6s-.3-.6-.6-.4l-.4.2m-.3.7l-.1-.4m-1.7 1.1l.4-.3.4-.3m-2.1.7s.2-.1.3-.2m-.9.2l.1-.6m-1.1-.3c-.2-.5-.4-.9-.6-.9m-.5.9s-.1-.2 0-.5-.2-.7-.2-.7m-.3 1.6s.2-.2 0-.8c-.2-.6-.5-.5-.5-.5m-.3 1.2s-.1-.5-.3-.7c-.1-.2.2-.4.2-.4m-1 1.4s-.3-.3-.3-.6v-.9m-.5 1.7s.1-.2 0-.7c-.1-.5-.3-1-.3-1m-.7 1.3s.3-.1.4-.5c.1-.4-.2-.9-.2-.9m-1 1s-.1-.3.1-.4c.2-.2.5-.4.5-.4m-1.4.6s-.1-.4.1-.8c.1-.4.3-.5.3-.5m-1 1.5s-.1-.2 0-.7c.1-.5.1-1 .1-1m-1.1 1.4s.3-.5.3-.8c.1-.3-.2-.7-.2-.7m-1 1.3s.3-.1.4-.7c.1-.5 0-1.3 0-1.3m-1.3 1.7s.5-.5.6-.8c.2-.4.3-.8.3-.8m-1.5 1s.4-.2.4-.7c0-.5.2-.7.2-.7m-1.6 1.2s.4-.2.6-.7c.1-.5.6-1.2.6-1.2m-3.2 1.4s-.2-.6.4-1c.6-.4 1.1-.5 1.1-.7 0-.2-.5-.5-.5-.5m-2 1.7s.6 0 .7-.6c.1-.5.4-.3.6-.6.2-.3.2-.8.2-.8M81.6 91s-.1-.8.3-1c.4-.2.8-.5.8-.8 0-.3.3-.5.3-.5m-2.3 2.2s.3-.2.3-.8c.1-.5.3-1 .3-1M80 90.4s0-.3.2-.7l.2-.4m-1.4 2s.2-.1.3-.6c.1-.5.3-.5.1-.7-.3-.2 0-.5 0-.5m-1.3 2.2s-.3-.3 0-.7c.3-.4.6-.7.6-.7l-.3-.5h-.3m-1 2.1s.3-.6.3-1c.1-.4.3-.9.3-.9m-1.6 2.4s.3-.4.4-1c.1-.6-.1-1-.1-1m-1.1 1.8s.8-.2.8-.8c0-.5-.1-.9-.1-.9l.1-.2m-1.8 1.4s.7.1.9-.4c.2-.4 0-.8 0-1 0-.2.3-.4.3-.4m-2 1.6l.5-.5c.4-.4.4-1 .4-1l.3-.5.3-.4m-1.8 1.3s.5.1.5-.5c0-.5.2-.8.2-.8l.4-.1.1-.5m-1.9 1.1s.1-1 .3-1c.2 0 .8-.6.8-.6l-.3-.5M72 89.2s-.6-.2-.1-.7c.5-.5.5-1 .5-1l-.4-.2m-1.3.9s.4-.1.4-.5c-.1-.3.1-.7.1-.7m-.2 2.3s.1-.6.3-1.1l.4-1m1.2 2.6l.6-.9c.3-.3.5-.9.5-.9m-3.8-.4s.5-.2.4-.4c-.1-.2-.4-.4-.4-.4m-.5 1.1s-.3-.1-.3-.4c0-.3-.4-.3-.4-.3m.2 1s.1-.3-.4-.5l-.8-.4m.8 1.2s.1-.6-.3-.7c-.4-.1-.6-.2-.6-.2l-.5-.2m.3 1.3s.1-.6-.3-.7l-.8-.2.1-.3m-.1 1.3s-.1-.4-.3-.4c-.3-.1-.2-.5-.2-.5m-.3 1.2s.1-.2-.3-.5l-.5-.4m-.2 1.2s-.1-.6-.3-.6c-.3 0-.6-.3-.6-.3m.2 1.1s.1 0-.4-.1-.4-.5-.4-.5m.2 1.5s-.1-.1-.5-.3l-.4-.2m.2.9s.1-.4-.4-.4h-.6m.2.7s-.3 0-.5-.2l-.2-.1m.2.6l-.6-.2m-.2.8s-.1-.3-.6-.4l-.5-.1m.4.9l-.6-.4c-.3-.2-.7-.5-.7-.5m.3 1s-.2-.5-.5-.5h-.3m-.1 1.1s-.1-.2-.4-.4c-.3-.2-.6-.1-.6-.1m.4.7c-.2-.2-.2.1-.5 0m.4.3s-.2.3-.7.2l-.5-.1m1.2.3s0 .2-.6.3c-.7.2-1.2-.1-1.2-.1"/><path fill="none" d="M73.8 91.5s.9 0 1-.9c.1-.9.4-1.1.4-1.1m-19.3 2s-.2.2-.6-.2c-.4-.5-.5-1.2-.5-1.2m1.6 1s-.2.2-.5-.5c-.2-.7-.8-1-.8-1m2.2 1.1s-.1-.2-.6-.8c-.5-.6-1.1-1-1.1-1h-.3m2.9 1.5c-.2-.1-.3-.1-.9-.8-.6-.7-.9-1.4-1.2-1.4h-.3m3.1 2.1s.1-.6-.7-1c-.8-.4-.9-.3-1.1-.8-.3-.5-.6-1.1-.6-1.1"/><path fill="none" d="M59.7 90c-.4-.4-.5-.3-1.1-1.2-.6-.9-.4-.5-.9-.9l-.5-.4s-1.8-.2-1.1.7m3.6 1.2s-.1-.3-.6-.9c-.4-.6-.6-.7-.8-1l-.6-.4m2.8 1.6s-.1-.1-.8-.9c-.7-.8-.7-.8-1-.9-.3-.1-.5-.4-.5-.4m2.9 1.7s.1-.3-.6-.8c-.8-.5-1-.8-1.2-1-.2-.1-.1-.4-.1-.4m2.9 1.8s-.1-.7-.8-.9c-.7-.2-.8-.3-1.1-.8-.3-.5-.4-.9-.4-.9m2.8 2.3s-.1-.7-.6-1c-.5-.3-.9-.1-1.3-.7s-.4-.8-.4-.8m2.9 2.2s-.7-1-1.2-1.3c-.5-.3-.8-.7-.8-.7m1.7.7s.1-.6-.1-.6c-.3-.1-.4-.2-.4-.2m1 .9s.4-.5-.1-.6c-.5-.1-.2-.4-.2-.4m.8 1.3s-.1-.4-.1-.8.3-.7.3-.7m.1 1.8s-.2-.6 0-1 .5-.4.6-.6l.1-.2m-.2 1.5s-.3-.5.1-.7c.3-.2.7-.5.7-.5l.3-.3m-9.2 5.9s.2-.3-.4-.7c-.6-.4-.9-.9-.9-.9m-.6 3.4s.1-.2-.3-.6c-.4-.4-.2-.7-.2-.7s-.1.7.4.7.8.4.8.4m.6-.5s-.4.2-.9-.4c-.5-.6-.5-.9-.5-.9m10.9-3.7s.1.1.3-.5c.2-.6.7-1 .7-1m0 1.6s-.1-.6.4-1c.4-.3.6-.7.6-.7m0 1.5s-.2-.6.2-.9c.4-.3.5-1 .5-1m.2 1.6s-.1-.1.1-.6c.3-.5 0-.8 0-.8m1.6 1s.2-.2.2-.8c-.1-.6-.5-.4-.5-.4m.8 1.2s-.2-.5.2-.8c.4-.3.4-.8.4-.8m0 1.8s.2-.3.5-.8-.1-1-.1-1m.2 2s.1-.6.4-1c.4-.4 0-1.1 0-1.1m0 2.4s.6-.4.8-.9c.2-.5.2-1.2.4-1.2m-.4 2.3s-.1-.2.4-.8c.5-.6.8-.8.4-1.1-.4-.3.2-.3.2-.3m.3 2.9s0-.6.3-1c.4-.3.4-1.2.4-1.2l-.1-.6s-.3-.1-.5-.1c-.2.1.1.7-.1 1.4s-.7 1-.7 1m1.3.7s.8-.8.7-1.4c-.1-.6-.3-1.5 0-1.5m0 3.4s.4-.5.4-1.4c.1-.9-.1-1.3 0-1.5.1-.2.6-.4.6-.4m-.4 3.6s.6-.8.6-1.4c0-.5.1-1.2 0-1.4-.1-.2.7-.7.7-.7m-.7 4s.8-.1.7-1.4c-.1-1.2-.4-1.7.4-1.9.8-.3.8-.6.8-.6m-.8 4s.6-1 .4-1.7c-.2-.7.1-.8.6-1.3.4-.5.6-1 .6-1m-.8 3.9s-.1-1.2.4-1.7c.4-.5.6-1.5.7-1.5.1 0 .2-.7.2-.7m-.4 3.7c0-.2-.2-.8.2-1.4.4-.7.4-1.1.6-1.4l.4-.6m-.4 3.1s-.2-.5.2-1 .5-.6.6-1.2c.1-.6.1-.9.1-.9m-.1 3.1s.1-.7.5-1.3c.4-.6.5-1 .4-1.3m.4 2s.4-.2.4-1-.1-1-.1-1m.6 1.9s.4-.1.3-.6c-.1-.6 0-1 0-1m.6 1.7s-.4-.7 0-1c.4-.3.3-.6.3-.6m.4 1.4s.1-.1.4-.7m5.5-2.2s0 .3.7-.4.6-1 .6-1m-.7 2.6s-.4-.3.4-.5.7-.3.9-.8c.2-.5.4-.8.4-.8m-1.1 2.5s.1-.3.7-.7c.6-.3.7-1.3.7-1.3l.1-.5m-1.3 2.9s.5-.4 1-.9.8-.9.8-1.2v-.7m-.9 3.2s0-.5.5-.9.6-.6.8-1.1c.1-.5.4-1.1.4-1.1M93.6 88s.3-.1 1-1c.7-1 .6-1.5.6-1.9v-.8m-.8 4s.6-1.2 1.1-1.9c.5-.7.5-.8.5-1.2 0-.3-.3-.8-.3-.8"/><path fill="none" d="M95.2 88s1 .1 1.3-1c.3-1 .4-1.3.3-1.7-.1-.3-.5-.7-.5-.7m.1 3.6s.5-.8.9-1.2c.4-.4.5-.8.4-1-.1-.2-.3-.9-.3-.9"/><path fill="none" d="M97 88.1s.4-.5.9-.9.6-.6.5-1.1c-.1-.5-.4-.8-.4-.8m-.7 3.4s.1-.6 1.3-1.6.5-1.6.5-1.6m-1.2 3.4s.7-.3 1.3-1c.6-.7.3-1.4.8-1.5.5-.1.4-.8.4-.8m-1.2 3.3s.4-.6.8-1.4c.4-.8.3-1.1.7-1.4l.4-.3m-1 3s.3-.7.6-1.2c.4-.6.2-.9.5-1.1.3-.2.8-.7.8-.7m-1 2.6s.1-.5.6-1c.6-.5.9-1 .8-1.2m-.2 1.6s.4-.1.5-.6c.1-.5.2-.7.2-.7m-35.4 1.8s.1-.4.5-.3c.4.1.8-.6.8-.4.1.2 1-.2 1-.2l.8.1s1 .9 1.2.9c.2 0 .4.1.5.3.1.2.9.2 1 .6.2.5.2.6.7.6.5 0-.5-.1-.2.6.3.6-.5.3.7.3s.2-.2 1.1.2c.9.4 1.8-.1 1.8-.1s-.1-.3-.6-.2c-.4.2.7-.8 1.1-.8.4 0 .9-.1 1.1-.1.2 0 .8.1.3.2s-1.4.3-1.4.3 2.2-.8 2.4-.8c.3 0-.7-.2.3.2.9.4 1.8-.3 2.2-.2.4.2.6-.4.6-.4s.2.7.5.8c.3.1.7.3 1 .4.3.2.5-.1.5-.1s1.6.9 1.9 1.1c.3.2.8.2 1.1.2.3 0 1.3.5 1.4.7"/><path fill="none" d="M94.2 93.6c-.2 0-1.1-1-1.7-1-.6.1-1 .7-1 .7s-.9-.8-1.7-.8c-.8.1-.8-.6-1.5-1.1-.5-.4-1-.4-1.6-.4s-.8-.1-1.3 0-1-.1-1-.1l-.5-.3m4.6-5.7l1.1 1.5s.2.4.1 1.2c-.2.8 1.8 2.2 1 2.2s-1.3-.2-1.3-.2m5.1-5.2s-.2.1-.1.5c.1.5.1.5.3.8"/><path fill="none" d="M93.6 85.8s.1-.1.5-.4c.4-.2.3-.5.3-.5m-36.9 2.5s.2.2.2.5c0 .1 0 .2-.1.3l-.6.8m1.1-.8c.4.2.8-.1 1 0m21.2-3.1s.4.2-.3.7c-.6.4-.8.3-1.2.4-.4.1-.4-.2-.9-.3-.5-.1-.8-.5-1.2-.6m.4.5s.1-.2-.3.3c-.3.5-.6.4-.5.7m-11.1-.1s2-.3 2.5-.9c.5-.6 1.6-.9 1.6-.9s.4.3.1.6c-.3.3-.1.8-.1.8"/><path fill="#CF5B58" d="M59 82.8s.6-.7 1.1-.5c.6.2 2.3.4 2.8-.1.6-.5 3.8-2.6 4.2-2.8.4-.1 2.6-1.1 3.2-1.1.6.1 1.3-.1 1.6.4.3.5 1.5.9 1.5.9s.1.8.3 1.5c.2.7.7.7.7.7s1.3.1 1.7.1c.4 0 1.9-.1 1.9.2 0 .3.7 0 .7 0s.6-.1.7.1c.1.2.7.1.7.1s.8-.9 1.4-.9c.6 0 1.2-.3 1.6-.3.4-.1 1-.7 1-.7s1.4.8 1.8.8c.4 0 .9-.1 1.1.3.2.4 1.6.4 1.8.7.2.3 1.6.7 1.6.7s.8-.1.9.1c.1.2.6.5 1.1.4.5-.1 2.5-.7 3.1-.6.6.1.9-.1 2.1-.1 1.2-.1 2.1-.5 2.6-.4.5.1 1.1.2 1.1.2s1.3-.3 1.6-.5c.2-.2 2-.5 2.4-.9.4-.4.6-1.2 1.3-1.9.8-.7.9-1.7 1.2-2.2.3-.5.6-1.2.6-1.2s-1 .3-1.4-.2c-.4-.5-2-1.7-2.4-1.8-.4-.1-1.2.1-1.7.1-.5.1-.8-.1-1.7-.3-.9-.2-3.8-.8-4.7-1.1-.8-.3-2.1-.6-3 0-.9.6-1.9.8-3 .5-1.1-.3-3-.7-3.6-.5-.6.3-1.8 1-2.5.5s-1.8.4-2.4.5c-.6.1-2.4-.3-3.2-.4-.8-.1-3-.2-3.9-.5-.8-.3-2 .3-2.7.1-.6-.2-2.8.3-4.2.3-1.4 0-3.3.3-3.6.3-.4 0-.8.3-.8.3s-.8-.7-1.5-.3c-.6.3-.8.8-.9 1-.1.2-.5.1-1 .3-.5.3-.5.9-.7.9-.2 0-.9-.3-1 .1-.1.3.1.4-.5 1s-1.3 1.8-1.3 1.8-.1.2-.4.5c-.4.3-.1 1.3.2 2 .4.7.8 1.5 1.3 1.7.5.3 1.2.2 1.2.2z"/><path fill="#FBF1BA" d="M107.4 76.1s0 .9-.5 1.3c-.5.3-1.1.5-1.4.7-.3.1-.8.9-1.2 1.3-.4.4-.5 1.5-1.3 1.5s-1.8.5-2.3.1c-.5-.4-2-1.1-2.4-1.3-.2-.1-.8-.6-1.7-.4-.8 0-1.8.2-2.6-.6-.8-.6-1.4.1-2-.8-.6-.7-1-.9-1.3-1.1-.3-.4-1.2-.5-2-1.5-.8-.6-1.6-.8-1.8-1.1-.4-.6-.9-1-1.3-.5-.2 0-.6.1-1 .1s-.7.1-.9.1c-.3 0 1 .4 1.4.5.4.1-.1-.5.9 0 .5.2.8.8 1 .6.2-.5.4 0 .7.3.6.5.4.2.1.7-.1.2-.6-.3-1.1.3-.5.2-1.1 0-1.5.2-.4-.2-.7-.1-1 .2-.3.1-.6.2-1 .2-.7 0-1.5-.1-1.5-.1s-.7.8-1.3.8c-.6 0-.9.2-1.4 0-.5-.2-1.2-.9-1.4-.9-.2 0-.6-.3-1.3-.7-.7-.4-1.4-.6-2-.9-.6-.3-2-.7-2.2-.7-.2 0-2.5.9-3.2 1-.4.1-.8 0-1.1 0-.3-.1-.6-.3-.8-.2-.1.2-.4.3-.6.1-.3 0-.6.5-1.1.3-.4.4-.8.3-1.1.6-.4 0-.7.5-1 .6-.7.4-1.3.8-1.3.9 0 0 .3.9-.5 1.1-.4-.1-1 0-1.5.3-.5 0-1.1.2-1.4.3-.3-.3-.4.5-.4.7 0 .6-.1.7-.5.7-.7-.2-1.1.4-1.1.4 0 .2.2.1.4.8.2.2.5.6.7.7.2.4.4-.6.6-.4.2-.5.5-.5.7-.8.3-.8.6-.6 1-.7.4-.2.8-1.1 1.2-.6.4-.5.9-.2 1.3-.4.4-.4.7.6.9-.5.2-.1 1-.5 1.8-1.5.8-.9 1.6-1.2 1.7-1.1.2.6.7 0 1.3-.3.5-.2 1.1-.4 1.3-.4.4 0 1.8-.3 2.5-.5s2 .3 2 .3 2.1.4 2.1.7c0 .3 1.5 1.5 1.5 2.2 0 .6 1.1.4 1.4.3.4-.1 2.2-1 2.7-.9.5.1 2.4-.4 2.4-.4s.2-.2.5-.3c.4.3 1-.1 1.8.4.8.4 1.1.8 1.2.3.2-.6.3.7.9.4.6 1.2 1.2 1.1 1.7 1.1.5.7.9 1 1 .5.2.4 1.3 0 1.5.4.2.5 1 1.2 1.3.4.2-.1.7.3 1.2.2.5.5.9.2.9.2 0 .2.9 0 .9-.1L98 81s2 .9 2 1.1c0 .3.7.7 1.4.5.7-.1 2-.5 2.3-.9.3-.4.5-1.5 1.1-1.9.6-.5.8-1 1.3-1l.4.5.8-1.2 1-1.7-.8.1-.1-.4z" opacity=".99"/><path fill="#BC413D" d="M104 73.9s1.1.1.9.6c-.1.5-2.1 1.6-2.3 2.1-.2.5-1.3.9-1.7.8-.4-.1-1.9-1.1-1.9-1.1s-2.1 0-2.6-.3-1.6-.5-2-.9c-.4-.4-1.3-1.6-1.3-1.6v-.8l1.3-.6s3.3.5 4 .8c.7.3 1.9.9 2.8.8.9-.1 2.8.2 2.8.2z"/><path fill="#CF5B58" d="M105.4 75.8l-3.7 1.9-2.1.6-1.2-1.6-3.3.1s-.9.8-1.4-.1c-.5-.9-1.5-1.8-1.5-1.8l-.5-1.4-1.3-.6-2-.3s-1.1-.6-1.6-.1-1.5.7-1.5.7 2.4 1.6 3.4 2.1 2.3 1.7 2.5 2.2c.2.5 4 1.7 4.9 1.7 1 0 3.8 1.3 3.8 1.3s2.4 1 3 .4c.5-.6 1.8-3 2.5-2.8.7.2 1.4-.7 1.4-.7l.7-1.5-1.1-.1h-1z"/><path fill="#FBF1BA" d="M106.5 75.8s-.8.1-1.1 0c-.2-.1-.4.1-.7.3-.1.1-.9.5-1.6.9-.7.4-1.4.5-1.4.7 0 0-1.1.5-1.3.3-.2.7-.2-.7-.2.1 0 .2-.4 1.2-.4.9 0-.9-.3-.7-.4-1.4-.1.1-.6-.9-.9-1-.1.8-.6-.1-1.1 0-.5.4-1-.4-1.3 0-.2-.1-.7.2-1.1.1-.4-.6-.9-.2-1.2 0-.3-.1-.4.1-.5-.7-.1.2-.2-1-.4-.9-.4.2-.8 1-1-.7-.2-.3-.6-1.5-.6-1.1 0 .3 1.2-1.5 1.2-.5 0 .2.5.6 1 1.1.5.6 1 .7 1 1.1 0 .2.8.5 1.2.7.2.5 1 1 1.7.3.7.7 1.5-.1 1.8.2.2.4.6 1.3 1 .7.4.5.7.5 1 .4.2-.4.9-.4 1.6-.5.6-.3 1.2-.5 1.2-.5s1.3-.7 1.3-.9c0-.2.6-.5-.1-.9-.6-.3-.9-.6-.9-.6h1c.2 0 1.1 1.2 1.3 1.2.3 0 .6.5.6.5l-.7.2zm-47 6s.1-.6.6-.6c.6 0 .6-.5 1.6-.6 1.1-.1 1.5-1 1.8-1 .4-.1 2-1.1 2-1.1s.6-1 1.3-1.1c.6-.1 1.6-.6 2.5-.6.8 0 1.5.1 1.8-.3.3-.3.7-.6.7-.6s.7-.4.7.2c0-.7.5.9.5.9 0-.8 0 .8.6.6.6.5-.1-.6.4-.4.6.9.6.8.6.4 0 .3.1-.5.7.8.6 1 .1.4.1 1 0-.4.1.9.1.5 0-1 .6.2.6.1 0-.9 1.6.6 1.6.5 0 0 .7.1.9 0 .2-.4 1.1-.9 1.5-.3.4-.4.4-.7.8-.6.4-.4.8.2 1.2-.5.4-.2-.1-1 .4-.1.4-.1.8.1 1 .1.2 0 1.1-.3 1.1-.3s.8.5 1 .5c.2.1 1 .4 1 .4s1.1.2 1.5.1c.4-.1 1.1.8 1.1.8s.5.3 1.1.3c.6.5 1.1.2 1.4.8.3-.6 1.3-.5 1.6-.4.1.4.5.4.8.4.3.5.6.1.8.4.3.5 1.1-.3 1.1-.1 0 .2.7-.2 1.1-.3.4-.3.6.5 1.2.1.6-1 1.1.1 1.3-.5.2-.2.6.5.6.3 0 .2-.2.3-.2.3 0 .3-.3 0-.7.2-.4 0-.8.4-1 .2-.4-.3-1.3-.1-1.6 0-.3.6-1.3.2-1.7.2-.2-.1-.5-.3-.8.3-.3.4-.7-.1-1.1.2-.7-.5-1.3.2-1.3-.3s-.4.2-.8-.2c-.4.9-1.2.3-1.5-.4-.3-.2-.4-1-.8-.4-.5 0-1.6-.5-1.6-.5s-.1-.3-.5-.3-1.1-.3-1.4-.3c-.3-.1-1-.5-1-.5s-.2.5-1 .6c-.4-.2-.8-.2-1.1.3-.3.5-.6-.3-.9.3-.4.2-.6 1.2-1 .6-.4-.2-.6-.3-1-.3-.4.7-.4-.2-.8.2-.4.3-.5-.7-1-.3-.2-.1-.6-.5-1.1 0-.4-.5-.9-.8-1.2 0-.7-.5-1 .1-1.2-.4-.2.2-.5-1.6-.5-1.4 0-.7-.4-.9-.7-.7-.4.4-.7-1.2-.7-.5 0 .2-.8-.4-1.1-.5-.1.2-.5 1-.9.2-.4.1-.7.2-.9.2-.3 0-1.1.4-1.9.8-.8.5-2 1.4-2.3 1.5-.4.1-1.5 1.1-1.8 1.2-.4.1-.2.1-1.6.1-1.4 0-1.7.1-1.9.1-.4.1-.1-.3-.1-.3z" opacity=".99"/><path fill="none" d="M59.5 77.9s-.4-.5-.3-.7c.1-.2.4-.6.4-.9.1-.3.5-.5.4-.7-.1-.2-.5-.1-.5-.1l-.4.7-.1 1.7s.1.2.3.3c.2.1.2-.3.2-.3z"/><path fill="#FBF1BA" d="M81.7 73.5s.4.6.8.5c.4-.1.4-.9 1.2-.3.8.6.8.3 1.4.5.6.1-.3-.7-.3-.7l.6-.3s-1.1-.3-1.5-.3c-.4.1-1.3.2-1.6.3l-.6.3z" opacity=".99"/><path fill="#BC413D" d="M87.8 75.8s-.9-1.5-1.8-1.5-2.3-.5-2.3-.5l-1.3-.6s-2.6 0-3.6-.1-4.1-.6-4.8-.6c-.7 0-1.1.3-1.8.2-.7-.1-3.4 1.1-4.4.7-.9-.4-3.4-.1-3.4-.1l.1 1s-2-1.7-2.4-1c-.4.7-.9 1-.9 1l-1 .3-.7.9-1 .1s-1 1.3-1.4 2.1c-.4.7-1 1.7-1 2.2 0 .5.4 1.1.4 1.1l1.1-.4.8-1.3 1.5-.6h1.4s.1-1.9.8-1.9c.7 0 3.7-1.5 3.7-1.5s.5-.5 1.8-.3 4.5-.8 4.5-.8l3.3.9s2.6 1.7 3.1 2c.5.4 1.9.4 1.9.4s2.2-.6 2.8-.7c.6-.1 2.7-.9 2.7-.9l1.9-.1z"/><path fill="none" d="M86.4 81.1s-.1.6-.1-.8v-1.4s1.7.4 1.5-.5c-.2-.8.9-1.6 0-2.6-.8-1-1.7-2.1-1.7-2.1l-.6-.1"/><path fill="#FBF1BA" d="M64.4 73.2s-.1.8.6.8.6.7 1.3.7c.6 0 .8-.7.8-.7l.8-.6s.8-.3 1.1-.3c.4 0 1.2-.4 1.2-.4h2c.2 0 .3.3.3.3h-1.9c-.4 0-1.3.3-1.6.4l-1.2.3-.6.6v.4l.4.1-1.8.3s-1-.7-1.3-.9c-.3-.2-.9-.7-.9-.7l.8-.3z" opacity=".99"/><path fill="none" d="M107.3 76.5s-.1.1-.3-.3c-.2-.4-.1-.7-.1-.7l-.5.8.3.5s.5.4.1.5c-.4.1-.6-.5-.9-.8-.3-.3.1-.8.1-.8m-.6.1c-.1.1.3.7.3 1 0 .3.4.6.5.7.1.1.1.2.1.3m-.5.2l-.3-.6c-.2-.5-.2-.7-.3-.9-.1-.2 0-.6 0-.6m-.5.2s-.2.4 0 .6c.2.2.2.1.3.3 0 .2.1.3.1.4-.1.1-.1.4-.1.4s0 .3.1.4c.1 0 .1 0 .1.2m-.4.3s-.1-.4-.2-.6c0-.2.2-.4 0-.6-.2-.2-.1 0-.4-.3-.3-.3-.3-.5-.3-.5m.6 2.4s-.3-.2-.3-.8c-.1-.6-.1-.5-.3-.8-.3-.3-.3-.7-.3-.7m.6 2.7s-.3-.2-.5-.8c-.2-.6-.3-.8-.4-.9-.2-.1-.2-.6-.4-.7m1 2.8s-.4-.6-.6-1c-.3-.4-.1-.6-.5-.9-.4-.2-.5-.3-.5-.4v-.3m1.4 3.1s-.5-1-.9-1.4c-.4-.3-.3-.1-.6-.6s-.4-.8-.4-.8m1.5 3.2c-.1 0-.5-.3-.8-.9-.3-.6-.4-.9-.7-1.2-.3-.2-.5-.3-.5-.6v-.3m1.4 3.1c-.1-.1-1.1-.7-1.2-1.2-.1-.5-.1-.8-.3-1-.3-.2-.4-.5-.4-.5l-.2-.2m1.2 2.9s-.2-.9-.6-1.5c-.4-.5-.9-.7-.9-.9 0-.1-.1-.3-.1-.3m1 2.9c-.1-.2-.3-.5-.6-1s-.4-.9-.5-1c-.1-.1-.3-.1-.3-.1"/><path fill="none" d="M100.4 80.8s.4-.3 0-.7c-.4-.4-.4-.5-.4-.7 0-.2-.1-.3-.1-.3m-.3 1.3s.5 0 .3-.4-.4-.5-.4-.6c-.1-.2-.1-.6 0-.7.1-.1.2-.4.2-.4m-1 1.6s-.1-.1.1-.5.2-.6.2-.9c-.1-.3-.3-.7-.2-.9.1-.2.1-.4.1-.4m-.8 2.4s.1-.4.1-1 .1-.6-.1-1-.1-.7-.1-.7m-.7 2.5s.1-.6.2-1c.2-.4.2-.6.1-.8-.2-.2-.3-.3-.3-.5-.1-.2-.1-.3-.1-.3m-.6 2.4s-.3-.3-.1-.9c.2-.5.4-.9.2-1.1m-.8 2.1s-.4-.2-.2-.8c.2-.5.3-.8.3-1.2 0-.4-.2-.7-.2-.7m-1.1 2.5l-.1-1s.2-.5-.1-.9c-.3-.4.1-.7.1-.7m-.8 2c-.1-.3-.3-.2-.1-.8.2-.6.1-.9.1-.9m-1 1.6s.1-.2.1-1c0-.7.2-1.4.2-1.6m-1.5 1.8s.2-.5.4-.7c.2-.2.5-.5.6-.9.1-.4-.1-.6-.1-.6m-1.6 1.5s.4-.2.6-.7c.3-.4.4-1.1.4-1.1m-1.7 1.5s.1-.5.4-1c.3-.5.8-.7.8-.7s.3-.4.3-.7m-2.5 1.7s.3-.7.8-1.1c.6-.4.6-.1.9-.4.3-.2.2-1.1.2-1.1"/><path fill="none" d="M90.7 76.8s0-.8.5-1.2c.5-.4.8-.9.8-.9s-1-.7-.4.6c.7 1.4.9 1.7 1.3 2.2"/><path fill="none" d="M92 77.9s.5-.7.7-1.2c.2-.5.2-1.5.2-1.5m-4.1.1s.6-.4 1-.8.8-.3.8-.8.1-.8.1-.8m-2.8 1.8s.3-.3.8-.7c.6-.4.5-.2.9-.5.4-.2.1-.7.1-.7m-2.5 1.5s.3 0 .6-.6c.4-.6.6-.8.9-.9m-2.2.9s.1-.7.8-.8c.7-.2.9-.5.9-.5m-2.4.9s.6-.4.9-.7c.3-.2.7-.4.7-.4m-.5 2s.1-.7.6-.9c.4-.2 1-.6 1-.6m18.1 6s.2 0-.3.1-.5-.4-.5-.4m.4 1s-.2-.4-.5-.3c-.3.1-.7.2-.7.2m.8.4s-.3.4-.6.1c-.3-.2-.6-.2-.6-.2m1 .9s-.2.1-.5-.1-.8.1-.8.1m.9.6s-.3-.6-.6-.4l-.4.2m-.2.7l-.1-.4m-1.8 1l.4-.2.4-.3m-2.1.7s.2-.1.3-.2m-.9.2l.1-.6m-1-.4c-.2-.5-.4-.9-.6-.9m-.5 1s-.1-.2 0-.5-.2-.7-.2-.7m-.4 1.6s.2-.2 0-.8c-.2-.6-.5-.5-.5-.5m-.3 1.2s-.1-.5-.3-.7c-.1-.2.2-.4.2-.4m-.9 1.4s-.3-.3-.3-.6v-.9m-.5 1.6s.1-.2 0-.7c-.1-.5-.3-1-.3-1m-.8 1.4s.3-.1.4-.5c.1-.4-.2-.9-.2-.9m-1 .9s-.1-.3.1-.4c.2-.2.5-.4.5-.4m-1.3.7s-.1-.4.1-.8c.1-.4.3-.5.3-.5m-1.1 1.5s-.1-.2 0-.7c.1-.5.1-1 .1-1m-1 1.4s.3-.5.3-.8c.1-.3-.2-.7-.2-.7m-1 1.3s.3-.1.4-.7c.1-.5 0-1.3 0-1.3M89 80.7s.5-.5.6-.8c.2-.4.3-.8.3-.8m-1.5 1s.4-.2.4-.7c0-.5.2-.7.2-.7m-1.6 1.2s.4-.2.6-.7c.1-.5.6-1.2.6-1.2m-3.2 1.4s-.2-.6.4-1c.6-.4 1.1-.5 1.1-.7 0-.2-.5-.5-.5-.5m-2 1.7s.6 0 .7-.6c.1-.5.4-.3.6-.6.2-.3.2-.8.2-.8m-2.3 2.2s-.1-.8.3-1c.4-.2.8-.5.8-.8 0-.3.3-.5.3-.5M82.8 79s.3-.2.3-.8c.1-.5.3-1 .3-1m-1.3 1.3s0-.3.2-.7l.2-.4m-1.4 2s.2-.1.3-.6c.1-.5.3-.5.1-.7-.3-.2 0-.5 0-.5m-1.3 2.2s-.3-.3 0-.7c.3-.4.6-.7.6-.7l-.3-.5h-.3m-1 2.1s.3-.6.3-1c.1-.4.3-.9.3-.9m-1.6 2.4s.3-.4.4-1c.1-.6-.1-1-.1-1m-1.1 1.8s.8-.2.8-.8c0-.5-.1-.9-.1-.9l.1-.2m-1.8 1.4s.7.1.9-.4c.2-.4 0-.8 0-1 0-.2.3-.4.3-.4m-2.1 1.6l.5-.5c.4-.4.4-1 .4-1l.3-.5.3-.4m-1.7 1.3s.5.1.5-.5c0-.5.2-.8.2-.8l.4-.1.1-.5m-1.9 1s.1-1 .3-1c.2 0 .8-.6.8-.6l-.3-.5M74 77.3s-.6-.2-.1-.7c.5-.5.5-1 .5-1l-.4-.2m-1.3.9s.4-.1.4-.5c-.1-.4.1-.7.1-.7m-.1 2.2s.1-.6.3-1.1l.4-1m1.2 2.7l.6-.9c.3-.3.5-.9.5-.9m-3.9-.4s.5-.2.4-.4c-.1-.2-.4-.4-.4-.4m-.5 1.1s-.3-.1-.3-.4c0-.3-.4-.3-.4-.3m.2 1s.1-.3-.4-.5l-.8-.4m.8 1.2s.1-.6-.3-.7c-.4-.1-.6-.2-.6-.2l-.5-.2m.3 1.3s.1-.6-.3-.7l-.8-.2.1-.3m0 1.3s-.1-.4-.3-.4c-.3-.1-.2-.5-.2-.5m-.4 1.2s.1-.2-.3-.5l-.5-.4m-.2 1.1s-.1-.6-.3-.6c-.3 0-.6-.3-.6-.3m.2 1.1s.1 0-.4-.1-.3-.5-.3-.5m.1 1.5s-.1-.1-.5-.3l-.3-.2m.1 1s.1-.4-.4-.4h-.6m.3.7s-.3 0-.5-.2l-.3-.1m.3.6l-.6-.2m-.2.8s-.1-.3-.6-.4l-.5-.1m.3.9l-.6-.4c-.3-.2-.7-.5-.7-.5m.3 1s-.2-.5-.5-.5h-.3m-.1 1s-.1-.2-.4-.4c-.3-.2-.6-.1-.6-.1m.4.8c-.2-.2-.2.1-.5 0m.5.3s-.2.3-.7.2h-.6m1.3.2s0 .2-.6.3c-.7.2-1.2-.1-1.2-.1m18.1-2.8s.9 0 1-.9c.1-.9.4-1.1.4-1.1m-19.2 2s-.2.2-.6-.2c-.4-.5-.5-1.2-.5-1.2m1.5 1s-.2.2-.5-.5c-.2-.7-.8-1-.8-1m2.3 1.1s-.1-.2-.6-.8c-.5-.6-1.1-1-1.1-1h-.3m2.9 1.5c-.2-.1-.3-.1-.9-.8-.6-.7-.9-1.4-1.2-1.4h-.3m3 2.1s.1-.6-.7-1c-.8-.4-.9-.3-1.1-.8-.3-.5-.6-1.1-.6-1.1"/><path fill="none" d="M61.8 78.1c-.4-.4-.5-.3-1.1-1.2-.7-.9-.4-.6-1-.9l-.5-.4s-1.8-.2-1.1.7m3.7 1.1s-.1-.3-.6-.9c-.4-.6-.6-.7-.8-1l-.6-.4m2.8 1.6s-.1-.1-.8-.9c-.8-.8-.7-.8-1-.9-.3-.1-.5-.4-.5-.4m2.8 1.8s.1-.3-.6-.8c-.8-.5-1-.8-1.2-1-.2-.1-.1-.4-.1-.4m2.9 1.8s-.1-.7-.8-.9c-.7-.2-.8-.3-1.1-.8-.3-.5-.4-.9-.4-.9m2.9 2.3s-.1-.7-.6-1c-.5-.3-.9-.1-1.3-.7s-.4-.8-.4-.8m2.8 2.2s-.7-1-1.2-1.3c-.5-.3-.8-.7-.8-.7m1.8.7s.1-.6-.1-.6c-.3-.1-.4-.2-.4-.2m.9.8s.4-.5-.1-.6c-.5-.1-.2-.4-.2-.4m.8 1.4s-.1-.4-.1-.8.3-.7.3-.7m.1 1.8s-.2-.6 0-1 .5-.4.6-.6l.1-.2m-.2 1.4s-.3-.5.1-.7c.3-.2.7-.5.7-.5l.3-.3m-9.1 6s.2-.3-.4-.7c-.6-.4-.9-.9-.9-.9m-.7 3.4s.1-.2-.3-.6c-.4-.4-.2-.7-.2-.7s0 .7.5.7.8.4.8.4m.5-.5s-.4.2-.9-.4c-.5-.6-.5-.9-.5-.9m11-3.7s.1.1.3-.5c.2-.6.7-1 .7-1m0 1.5s-.1-.6.4-1c.4-.3.6-.7.6-.7m-.1 1.5s-.2-.6.2-.9c.4-.3.5-1 .5-1m.2 1.7s-.1-.1.1-.6c.3-.5 0-.8 0-.8m1.6 1s.2-.2.2-.8c-.1-.6-.5-.4-.5-.4m.8 1.2s-.2-.5.2-.8c.4-.3.4-.8.4-.8m0 1.8s.2-.3.5-.8-.1-1-.1-1m.2 2s.1-.6.4-1c.4-.4 0-1.1 0-1.1m.1 2.4s.6-.4.8-.9c.2-.5.2-1.2.4-1.2m-.5 2.2s-.1-.2.4-.8c.5-.6.8-.8.4-1.1-.4-.3.2-.3.2-.3m.3 3s0-.6.3-1c.4-.3.4-1.2.4-1.2l-.1-.6s-.3-.1-.5-.1c-.2.1.1.7-.1 1.4s-.7 1-.7 1m1.3.7s.8-.8.7-1.4c-.1-.6-.3-1.5 0-1.5m.1 3.4s.4-.5.4-1.4c.1-.9-.1-1.3 0-1.5.1-.2.6-.4.6-.4m-.4 3.6s.6-.8.6-1.4c0-.5.1-1.2 0-1.4-.1-.2.7-.7.7-.7"/><path fill="none" d="M78.8 77.2s.8-.1.7-1.4c-.1-1.2-.4-1.7.4-1.9.8-.3.8-.6.8-.6m-.8 4s.6-1 .4-1.7c-.2-.7.1-.8.6-1.3.4-.5.6-1 .6-1m-.8 3.9s-.1-1.2.4-1.7c.4-.5.6-1.5.7-1.5.1 0 .2-.7.2-.7m-.4 3.6c0-.2-.2-.8.2-1.4.4-.7.4-1.1.6-1.4l.4-.6m-.4 3.2s-.2-.5.2-1 .5-.6.6-1.2c.1-.6.1-.9.1-.9m0 3s.1-.7.5-1.3c.4-.6.5-1 .4-1.3m.3 2.1s.4-.2.4-1-.1-1-.1-1m.7 1.9s.4-.1.3-.6c-.1-.6 0-1 0-1m.5 1.6s-.4-.7 0-1c.4-.3.3-.6.3-.6m.4 1.4s.1-.1.4-.7m5.5-2.1s0 .3.7-.4.6-1 .6-1m-.6 2.6s-.4-.3.4-.5.7-.3.9-.8c.2-.5.4-.8.4-.8m-1.2 2.5s.1-.3.7-.7c.6-.3.7-1.3.7-1.3l.1-.5M94.3 75s.5-.4 1-.9.8-.9.8-1.2v-.7m-.9 3.2s0-.5.5-.9.6-.6.8-1.1c.1-.5.4-1.1.4-1.1M95.7 76s.3-.1 1-1c.7-1 .6-1.5.6-1.9v-.8m-.8 4.1s.6-1.2 1.1-1.9c.5-.7.5-.8.5-1.2 0-.3-.3-.8-.3-.8"/><path fill="none" d="M97.2 76.1s1 .1 1.3-1c.3-1 .4-1.3.3-1.7-.1-.3-.5-.7-.5-.7m.1 3.6s.5-.8.9-1.2c.4-.4.5-.8.4-1-.1-.2-.3-.9-.3-.9"/><path fill="none" d="M99 76.2s.4-.5.9-.9.6-.6.5-1.1c-.1-.5-.4-.8-.4-.8m-.7 3.4s.1-.6 1.3-1.6.5-1.6.5-1.6m-1.1 3.3s.7-.3 1.3-1c.6-.7.3-1.4.8-1.5.5-.1.4-.8.4-.8m-1.3 3.4s.4-.6.8-1.4c.4-.8.3-1.1.7-1.4l.3-.2m-.9 2.9s.3-.7.6-1.2c.4-.6.2-.9.5-1.1.3-.2.8-.7.8-.7m-1 2.6s.1-.5.6-1c.6-.5.9-1 .8-1.2m-.1 1.5s.4-.1.5-.6c.1-.5.2-.7.2-.7m-35.5 1.9s.1-.4.5-.3c.4.1.8-.6.8-.4.1.2 1-.2 1-.2l.8.1s1 .9 1.2.9c.2 0 .4.1.5.3.1.2.9.2 1 .6.2.5.2.6.7.6.5 0-.5-.1-.2.6.3.6-.5.3.7.3s.2-.2 1.1.2c.9.4 1.8-.1 1.8-.1s-.1-.3-.6-.2c-.4.2.7-.8 1.1-.8.4 0 .9-.1 1.1-.1.2 0 .8.1.3.2s-1.4.3-1.4.3 2.2-.8 2.4-.8c.3 0-.7-.2.3.2.9.4 1.8-.3 2.2-.2.4.2.6-.4.6-.4s.2.7.5.8c.3.1.7.3 1 .4.3.2.5-.1.5-.1s1.6.9 1.9 1.1c.3.2.8.2 1.1.2.3 0 1.3.5 1.4.7"/><path fill="none" d="M96.2 81.6c-.2 0-1.1-1-1.7-1-.6.1-1 .7-1 .7s-.9-.8-1.7-.8c-.8.1-.8-.6-1.5-1.1-.7-.4-1.2-.5-1.8-.5-.6 0-.8-.1-1.3 0s-1-.1-1-.1l-.5-.3m4.8-5.5l1.1 1.5s.2.4.1 1.2c-.2.8 1.8 2.2 1 2.2s-1.3-.2-1.3-.2m5.1-5.2s-.2.1-.1.5c.1.5.1.5.3.8"/><path fill="none" d="M95.6 73.9s.1-.1.5-.4c.4-.2.3-.5.3-.5m-36.9 2.5s.2.2.2.5c0 .1 0 .2-.1.3-.2.4-.6.7-.6.7m1.1-.7c.4.2.8-.1 1 0m21.2-3.1s.4.2-.3.7c-.6.4-.8.3-1.2.4-.4.1-.4-.2-.9-.3-.5-.1-.8-.5-1.2-.6"/><path fill="none" d="M79.2 73.8s.1-.2-.3.3c-.3.5-.6.4-.5.7m-11.2 0s2-.3 2.5-.9c.5-.6 1.6-.9 1.6-.9s.4.3.1.6c-.3.3-.1.8-.1.8"/><path fill="#996733" d="M94.9 32.7l-1.5-.1-2.3 43.8 1.3-1.3z"/><path fill="#CB9866" d="M93.7 32.9l-1.5-.1-2.3 43.5 1.5.1z"/><path fill="#FFF" stroke="#676767" stroke-miterlimit="10" stroke-width=".25" d="M112.1 2.1L78.7 0l-2 37.8 33.4 2.1z"/><g fill="#FFCC67"><path d="M98 13.5s-5-1.1-8.3-.6c-3.2.5-6.3.6-7.2 2.9-.9 2.4-1 4.9-.2 6.9.7 2 .9 3.2.9 3.5 0 .3.1 1.8.1 1.8h.4l.1 1 1.4.1s-.2-1.2-.7-2.1c-.5-.9-.3-2.1-.3-2.6-.1-.4.5-2.4.5-2.4s.3 2.8.3 3.3v1.3h.3l.1.5 1.5.2s-.2-.7-.6-1.3c-.4-.6-.2-2.6-.1-3.3.2-.7.4-1 .4-1s2.8 1.9 6.5 1.4c3.6-.5 3.4-.8 3.4-.8s.4.9.5 1.9c.1 1 .2 3.5.2 3.5l.1.6h.3l-.2.7.1.6h1.7s-.1-.6-.7-2.2c-.4-1 .3-4.9.3-4.9s1.1-.4 1.9-.2c.8.2 4.3 1 5.1 1.1.8 0 1.7-.1 1.7-.1s1.1-.9 1.2-1.5c.1-.5-.2-.7-.5-.6-.3.1-1-.6-1-.6s-.7-2.1-1.1-2.7c-.5-.6-.8-1.1-.8-1.1s2.5-1.4 1.9-1.6c-.7-.3-1.4-.3-2.3 0-.7.3-1 .7-1 .7s-4.3-2.2-5.9-2.4z"/><path d="M82.9 15.3c-.4-.1-.7-.5-.8-1-.5-.1-1.1-.5-1-1.1.3.3.5.7.9.5.2-.1.2-.8.8-.9 1.3-.3.7 1.4-.3 1.5-.1.5.3.7.7.7m22.1 1.4c.3-.1 2.2-.5 2.1.4-.6.1-1.7.7-2.2.4m-6.8 5.3s.5 3.5.5 4 .1 1.6.1 1.6h.3l.1.6 1.5.2s-.3-.9-.7-1.6c-.4-.7-.4-3.1-.3-4 .1-.9.5-1.6.5-1.6"/><path d="M82.6 13.8c-.1-.2.1-.9.6-.6-.1.3-.3.5-.6.6"/></g></g></switch></svg>
