<svg xmlns="http://www.w3.org/2000/svg" id="Capa_1" x="0" y="0" version="1.0" xml:space="preserve" viewBox="0 0 220 129"><style>.st0{fill:#1e160d}.st1{fill:#7b7b7c}.st2{fill:#e7ddd4;stroke:#e7ddd4;stroke-width:.25}.st4{fill:#c7bfb3}.st6{fill:#575a51}.st7,.st8{fill:#dcd1c3;stroke:#dcd1c3;stroke-width:.25}.st8{fill:#9d9d99;stroke:#91918d}.st10{fill:#b4b4b4}.st11{fill:#d8cbc3;stroke:#d8cbc3;stroke-width:.25}.st12{fill:#954421}.st13{fill:#b76830}.st14{fill:#d4bd29}.st15{fill:#d02027;stroke:#d02027}.st15,.st16,.st17{stroke-width:1.241}.st16{fill:#364c9f;stroke:#364c9f}.st17{opacity:.16;fill:#09193d;stroke:#0d173f;enable-background:new}.st18{fill:#fcfdff;stroke:#e5e5e4;stroke-width:.25}.st19{fill:#351c15;stroke:#341514;stroke-width:1.241}.st25{fill:none}.st27{fill:#09193d;stroke:#0d173f;stroke-width:1.241}.st28{fill:#c48d5f;stroke:#9b5e31;stroke-width:.25}.st30{fill:#030305}.st35{fill:#62451b;stroke:#62451b;stroke-width:.31}.st40{fill:#545454;stroke:#020202;stroke-width:.25}.st42{fill:#9f5024}.st47{fill:#09193d;stroke:#0c142b;stroke-width:1.241}.st49,.st50{fill:#020202}.st50{stroke:#020202}.st51{fill:#3f403f;stroke:#3f403f}.st52{fill:#f3bc9e}.st53{fill:#e15d26}.st55{fill:#e9a28a}.st57{fill:#343e42}.st58{fill:#413f32}.st60{fill:#2279bd}.st64{fill:#70be44}.st65{fill:#1b1813}.st68{fill:#e4d22d}.st72{fill:#c95d2b}.st75,.st79{enable-background:new}.st75{opacity:.15;fill:#fff8f4;stroke:#fff8f4}.st79{opacity:.26;fill:#fcfdff}</style><switch><g><path d="M.5 124.9H220v3.9H.5v-3.9z" class="st0"/><path d="M0 .1h220v124.8H0V.1z" class="st1"/><path d="M220 .1h-97.5l4.5 77.2 38 3.1 55-.1V.1z" class="st2"/><path d="M144 .1l-.4 67.7.5 3 9-.5v-4.6L154.6.1H144z" class="st2"/><path d="M154.5.1l-.5 26.7 1.1-2s3.1-2.2 5.6-2.2 4.5 6.2 5.6 10.7 1 36.9 1 36.9l2 1.7h5l1-71.9h-20.8v.1zm61.3 70.7l3.5 7.5h.7V.1h-3.1l-1.1 70.7z" class="st2"/><path fill="#dbdbd9" stroke="#dbdbd9" stroke-width=".25" d="M220 98l-80.8 3.2s-3.8 3.5-13.9 2.2-19.6-1.7-19.6-1.7l-43.7-.4-4.9 2.2L0 100.8v6l75 3.9s1.4-1.8 15.5 0 69.6-.6 74.7 0c1.4.2 23.8-.9 54.9-2.6V98h-.1z"/><path d="M220 74.6l-52.7-1.7v26.2h30.6l22.1-.8V74.6z" class="st4"/><path fill="#efe9e0" stroke="#efe9e0" stroke-width=".25" d="M0 .1v76.8h.5v-3.8h4.1l3.2-.6 1.5.6 1.5-.9v1.5l6-.9 6.3-.3 7.5-1.2V73l6.7-.9 6-.9 1.8.3 4.8-1.5 2.1 1.8 7.8-.9 6.9-.3 7.2-.9 2.7 11.4h4.5V33.9l13.9-2 1.2 12.8-2.2.3-.9 2.3h3.3V64s-.9 4.4-2.1 6.1c-1.2 1.8-3 7.3-3 7.3l-33.8 19-.3 7h5.3l43.3-1.7L108.6.1H0z"/><path d="M0 23.3h1.1V5.8L0 6.1v17.2zM12.6 2.5l.6 17.2h4.6V1.3l-5.2 1.2zm-1 42.6v28.4l6.2-.8V45.1h-6.2zM31.7.1h5.4v16.3h-5.4V.1zm-1.2 42.8l.1 28.4h6.5V42l-6.6.9zM52.3 0l-.2 11.7 7.1-.9.2-10.7-7.1-.1zm-.1 39.3l-.8 32 7.9-1V38.1l-7.1 1.2zM86.3.1v3.3l8.9-2.1V.1h-8.9z" class="st6"/><path d="M66.4.1h1.4v69.7h-1.4V.1zm8.6 0v73.4l.9 3.8.7-77.2H75zM45.2.1l-1.7 74.4h1.9L47.2.1h-2zM27 .1h-2l.1 79.4L27 .1zM7.2.1L4.6 76.3l2.5 1L9.5.1H7.2z" class="st7"/><path d="M52.1 71.9L50 70.1l-4.9 1.6-14.5 1.4v-1.8l-19 2.2-.9-1.3-3.5.4-6.1.5-.6 3.8H0v22.6l25 1.2 1.1-1.4 4.4-.3v-3.8h1.9l3.5-.5 7.6-4.9 17.6-10.3 1.4-2.2 1.1-3.4-1.1-4.1-10.4 2.1z" class="st4"/><path d="M31.7 89.8l-.4 5.4H25v-5.4h6.7zm-26 0h6.9v8.4H5.7v-8.4z" class="st6"/><path d="M102.1 3.4v3.1l-25.3 5.2-.3-2.5 25.6-5.8zm0 5.4v2.9l-25.7 4.7.4-2.9 25.3-4.7zm-41.4 5.8v1.8l-13.9 2.4.6-2.4 13.3-1.8zm.9 4.2v1.7l-14.8 2v-1.4l14.8-2.3zm-21.6 0v1.9l-13.6 1.8.1-1.8L40 18.8zm0 3.7v1.7L26.3 26l.1-1.3L40 22.5zm-19.5 4.3v1.5L8.6 29.9l-.7-1.5 12.6-1.6zm0-4.3l.6 1.8L8.7 26l.1-1.8 11.7-1.7z" class="st8"/><path fill="#9c9a9c" d="M16 103.4v-1h4.5l1.2-1.9 3.3.2 1.1-2.5 4.4.8v-3.8l5.4-.5 1.2-1.6 2.2-.6 2.1-1.4 2.1-1.3 5.9-3.5 5.9-3.4 2.6-1.5 3.2-1.9 1-1.6h13.8l.9 3.3h4.5l2.9-3.3h7.1L57.5 96.4l.5 7-.2 1-41.8-1z"/><path d="M75 69.8l.9 8.1H62.1l1.5-4-.8-3L75 69.8z" class="st7"/><path d="M92.8 78.7L62.1 96.4h-4.6l33-18.1 2.3.4z" class="st10"/><path d="M108.4.1l-1.7 67.7h20.2L129 .1h-20.6z" class="st2"/><path d="M109.6 67.8h-2.9l-.9 37.1 61.5-5.8.8-28.8-24 .5-34.5-3z" class="st4"/><path d="M128.7.1L127 69.8l17.1-.8V.1h-15.4z" class="st11"/><path d="M128.7 2.9l4.7-.4 10.7 1.8v2.5l-12.4-2.5-2.9 1-.1-2.4zm14.9 7.9l-14.9-.9V6.8l15.2 2-.3 2zm11.5-3.2l19.2 4.1v1.8l-19.2-3V7.6zm0 5.9l19.2 2.9v1.3l-20.1-2.3.9-1.9z" class="st8"/><path d="M155.1.1v4.2l10.4 1.9.2-6.1h-10.6zm-2 70.3l13.2-.5s.7-31.3.3-33.8c-.3-2.5-1.6-12.5-6-12.2-4.3.3-4 .2-6.7 3.1-2.8 2.9-2.8 40.9-2.8 40.9l2 2.5z" class="st6"/><path d="M174.3.1V72l2.6-1.2V.1h-2.6z" class="st11"/><path d="M176.9.1v70.7l3.7 1.2 1.6 1 4-1v-1.7L187.4.1h-10.5z" class="st2"/><path d="M186.9.1v27.8s3.8-1.6 6.8-1.5c3.1.2 6.4 6.1 6.4 9.6s.6 42.3.6 42.3h2.8l.8-7.5 2.2-.5L207.6.1h-20.7z" class="st2"/><path d="M204.4 15.6v2.1l-16.8-2.1-.5-2.1 17.3 2.1zm0 5.4v1.4l-17.4-3v-1.7l17.4 3.3z" class="st8"/><path d="M186.9 23.7s2.6-2.2 6.6-1.3c3.9.8 10.8 4.1 10.9 12.2.1 8.1 0 36.2 0 36.2l-.8 7.5h-2.8l-.6-42.3s-1.7-10.3-6.4-9.6c-4.7.7-6.8 1.5-6.8 1.5l-.1-4.2z" class="st4"/><path d="M187.3.1l-.3 10.4 10.3.3V.1h-10zm4.9 78.2h8.5s-.4-44.1-1.8-47c-1.5-2.9-5.1-4.9-5.1-4.9l-6.8 1.5-1.6 2.7.9 41.4 4.7 1.1 1.2 5.2zM220 15.4V.1h-3v15.3h3z" class="st6"/><path d="M208.8.1l-2.2 70.2 5.8.5h3.4l2-70.7h-9z" class="st2"/><path d="M220 30.3c-2.3.4-3.6 3-3.6 3l-.6 37.5 4.2.5v-41z" class="st6"/><path d="M220 25.4c-2.1.2-3.5 1-3.5 1s-.1 6.9.5 4.6c.2-.9 1.5-.9 3-.6v-5z" class="st4"/><path d="M81.3 33.9l13.9-2 1.2 12.8V64l-5.9 14.3-7.7 3-1.5-47.4z" class="st6"/><path d="M57.5 96.4h4.6v8h-4.3l-.3-8z" class="st10"/><path d="M76.8 81.2l-42.4 22.3 21.2.9v-6.2l27.2-16.9-6-.1z" class="st1"/><path d="M204.6.1l-.2 70.7 2.2-.5L208.8.1h-4.2z" class="st11"/><path d="M220 24.3l-3-.3v1.3l3 .3v-1.3zm0-5.9l-3-.7V21l3 .2v-2.8z" class="st8"/><path d="M154 26.9s3.6-4.8 6.7-3.1c11.7 6.4 4.1 46.4 4.1 46.4l7.6 1.7s-1-48.2-3.1-50.4C167.2 19.3 159 20 159 20l-5 5.4" class="st4"/><ellipse cx="80.5" cy="107.4" class="st12" rx="8.6" ry="3"/><ellipse cx="80.4" cy="106.2" class="st13" rx="7.8" ry="3"/><ellipse cx="80.4" cy="105.5" class="st12" rx="6.3" ry="2.1"/><path d="M79.6 5.6h1.6v98.6h-1.6V5.6z" class="st14"/><path d="M88.5 98s-5-5.3-7.7-9.5-5.1-8.6-7.3-9.1-4.4-3.3-4.4-3.3-1.2-1.5.2-6.5 6.3-37.8 7.1-40.5c.8-2.7 3.5-13.9 3.5-13.9V8.1s1.8.9 2.2 6.5c.2 3.5 6.1 31.6 6.3 36.6.1 5 1 20.8 1.5 27.1.6 6.4-1.4 19.7-1.4 19.7z" class="st15"/><path d="M80.2 0l-1.7 3.6 1.7 3.2 1.3-3.2L80.2 0z" class="st14"/><path d="M77.4 26s3.6 3.7 4.9 4.7 3.6 4.2 3.6 4.6c.1.4 2.5 17.3 2.9 23.9.3 6.6.9 15.7 1 17.5l.1 1.7s-9.4-10-11.3-12.5-5.6-6.1-5.9-6.4c-.3-.4-.9-2.8-.9-2.8s1.8-10.9 2.1-12.5c.3-1.6 1.4-8.3 1.5-8.9s1.1-6.1 1.1-6.1l.9-3.2z" class="st16"/><path d="M80.5 27.5l.4 1.6 1.1-1.3-.4 1.5 1.7-.8-1.2 1.3 2-.2-1.7.8 1.9.5-2 .2 1.5 1-1.9-.5.8 1.5-1.5-1.1.1 1.6-.8-1.5-.8 1.5V32l-1.5 1.1.9-1.5-1.9.5 1.5-1-2-.2 1.9-.5-1.7-.8 1.9.2-1.2-1.3 1.8.8-.5-1.5 1.2 1.3.4-1.6zm2.9 13.8l.4 1.6 1.2-1.3-.5 1.5 1.7-.8-1.1 1.3 1.9-.2-1.7.8 1.9.5-2 .1 1.5 1.1-1.9-.5.9 1.4-1.5-1v1.6l-.8-1.5-.8 1.5v-1.6l-1.4 1 .8-1.4-1.9.5 1.5-1.1-2-.1 1.9-.5-1.7-.8 2 .2-1.2-1.3 1.7.8-.4-1.5 1.1 1.3.4-1.6zm-4.9 10.6l.4 1.5 1.2-1.3-.4 1.6 1.7-.8-1.2 1.3 2-.2-1.8.8 1.9.4-2 .2 1.5 1.1L80 56l.8 1.4-1.5-1.1v1.6l-.8-1.4-.8 1.4.1-1.6-1.5 1.1.8-1.4-1.9.5 1.5-1.1-1.9-.2 1.8-.4-1.7-.8 2 .2-1.2-1.3 1.7.8-.4-1.6 1.1 1.3.4-1.5z" class="st14"/><path d="M81.2 11c-.7 1.1-.4 2.4-.4 3.6-.1 1.3-.5 2.5-.6 3.8-.3 2.6-1 4.9-.7 7.6.2 1.7-.3 2.2-.8 3.8-.4 1.4 0 2.5.4 3.9.4 1.3.5 2.4.3 3.7-.2.9-.8 1.9-.7 2.8.1.9.6 1.4.5 2.4-.1 1.5-1.2 2.8-1.8 4.2-.9 2.1-.6 4.6-1.3 6.8-.3 1-.8 2-1.1 3-.1.4-.3 1-.3 1.4 0 .6.5 1.3.5 1.7 0 1.4-1.6 1.5-1.7 2.8-.1 1.2 1.2 2 1.6 3s.4 2.7.1 3.8c-.2.7-.8 1.2-1 2-.2.7.1 1.4-.3 2.1-.7 1.3-2.5 2.3-1.1 3.7 1.2 1.2 3.1 1.2 4.2.1 2.4-2.4 1.7-4.7 1.4-7.5-.2-1.6 0-2.4.7-3.8.6-1.3.6-2.4.7-3.7.1-2.6.4-5.4.8-7.9.5-2.9.5-5.3.3-8.1-.2-2.6-.3-4.9-.1-7.6.1-1.3.2-2.5.3-3.7 0-.4.1-1.3 0-1.7-.3-1.1-1.2-2-1.3-3.2-.1-1.1.7-2.2.7-3.4 0-.9-.4-1.5-.5-2.4-.1-1 .3-1.8.5-2.7.4-1.7.4-3.5.7-5.2.1-.9.5-1.6.7-2.4.3-1.2-.3-1.6-.6-2.7m-1.4 69c.2-.6.6-.3 1.1-.6.6-.4 1.1-.9 1.7-1.4 1.1-1 2.4-1.9 3.3-3.1.8 2.5-1.3 3.2-3 4.5s-3.6 2.3-5.3 3.6c-2-1.3-2.4-2.6-.9-4.3 1.2-1.4 2.6-3.1 3.1-4.8.2 2.1-.3 4.1-.2 6.2.3.1.6 0 .9-.2" class="st17"/><path d="M83.6 91.5c1.4-1.4 1-3.5 1.4-5.3.4-1.9.9-3.9 1.5-5.8.7-2.2.8-3.2.4-5.4-.3-2 0-3.9-.2-6-.4-3.8.8-7.5.4-11.4-.2-1.9-.5-3.5-.4-5.4 0-.9.2-2 0-2.8-.3-1-1.1-1.7-1.4-2.7-.4-1.3 0-2.7 0-4.1 0-1.5-.6-2.7-.9-4.1-.4-2.7-.8-5.5-.8-8.2 0-2.6-.7-5.2-.9-7.8-.1-1.5 0-2.7-.3-4.1-.2-1.3-.9-2.9-.8-4.2 0 0-1.3-3.6.6.4s2.3 15.1 3.7 20.6c1.4 5.6 2.1 13.9 2.5 19.4s.9 13.9 1.2 19.5c.4 5.5.9 10 .4 12.6-.4 2.6-1.5 11.3-1.5 11.3l-2.7-3-2.1-2.6-.1-.9z" class="st17"/><path d="M93.2 40.1s12.4 3.5 13.2 3.9c.8.4 2.7.1 2.7.1l3-1s5.4-1.1 6-1.3c.6-.1-.1 8.7-.1 8.7S114.1 61 113.6 62c-.4 1-.9 8.5-.9 9.5S107 76 107 76s-3.8-1.3-4.8-1.6c-1-.3-5.5-2.6-5.8-3.1-.3-.6-1.3-4.6-1.3-5 .1-.3-1.9-26.2-1.9-26.2z" class="st18"/><path d="M97.3 115.2s.2 1.1 2 1.1h3.3s2.4-24.1 2.4-25.8c0-1.8 1.8-7.6 1.8-7.6s1.6-1.1 1.6 0-.8 11.8-.5 13.4c.2 1.6 1.5 7.4 1.5 8.2 0 .9-1.6 5.3-1.6 5.3l1.1 2.4v3.1s2.9.7 3.8.7 2.7-.7 2.7-.7 1-12.2 1-13.4c0-1.1 1.4-2.2 1.4-2.2l-.2-2.7s.5-4.7.9-6.5c.5-1.8 2.3-5.6 2.1-6.7-.2-1.1 0-4.2 0-4.2l-4.9-4.2s-6.7.2-8.5.2h-6.5c-1.3 0-7.8 1.1-7.8 3.6 0 2.4 1.5 17.6 1.7 19.3.2 1.8 1.3 6 1.3 6s.4 2.2.4 3.6c0 1.3-.2 3.6-.2 3.6s1.6-.4 1.6.7v3.8l-.4-1z" class="st19"/><path fill="none" stroke="#000" stroke-width="1.241" d="M97.6 78.7s-1.9 0-1.3.6 2.1.2 2.1.2l1.5-2.5-2.3 1.7z"/><path d="M89 119.6s5.1-2.9 6-3.3 2.2-1.1 2.2-1.1l5.3 1.1-.2 1.6-3.6 1.1-.2-1.1s-3.1 2.2-4.7 2.2-3.6.9-3.6.9l-1.7-.2.5-1.2zm19.9-4.2v2.9l2.5.2-.7-1.1s1.6 1.3 3.8 2.2c2.2.9 5.6.9 5.6.9l2-1.3-2.4-.9-3.1-2.2-1.1-.7-4.7.7-1.9-.7z" class="st19"/><path fill="#e6a325" d="M107.5 44.7c0 .1-.1.2-.2.2s-.2-.1-.2-.2.1-.2.2-.2.2.1.2.2z"/><path fill="#e9ba8b" stroke="#c3854e" stroke-width=".93" d="M100.6 38.2l11 .6 1.7-.6-3.6 6-2.3.5-6.8-6.5z"/><linearGradient id="SVGID_1_" x1="103.453" x2="111.577" y1="75.703" y2="75.703" gradientTransform="matrix(1 0 0 -1 0 130)" gradientUnits="userSpaceOnUse"><stop offset="0" stop-color="#8d298b"/><stop offset=".17" stop-color="#943792"/><stop offset=".49" stop-color="#a65ba6"/><stop offset=".924" stop-color="#c496c5"/><stop offset="1" stop-color="#c9a1cb"/></linearGradient><path fill="url(#SVGID_1_)" d="M106.1 45.7s-2.6 10.7-2.6 12.3 2.6 4 3.8 4.8c1.2.8 4-3.7 4.3-4.3s-2.3-12.8-2.3-12.8h-3.2z"/><path fill="none" stroke="#8aceb5" stroke-width=".25" d="M105.1 51c.4-.5 1.5-.9 2.1-1.3.7-.3 1.5-.9 2.2-1 0-.2.1-.1.2-.2m-5 4.8c.5-.7 1.8-1.3 2.6-1.7.8-.5 1.8-1.2 2.7-1.3 0-.2.1-.2.2-.3m-5.9 5.7c.6-.9 2.1-1.6 3-2.2.9-.6 2.1-1.5 3.1-1.7 0-.3.1-.2.2-.4m-7 6.8c.7-1.1 2.4-1.9 3.5-2.6 1.1-.7 2.4-1.8 3.6-1.9 0-.3.2-.2.3-.5m-6.7 6.6c.7-1 2.3-1.7 3.3-2.3s2.3-1.6 3.4-1.8c0-.3.2-.2.3-.4m-5.7 5.8c.6-.9 1.9-1.6 2.8-2.1.8-.6 1.9-1.4 2.9-1.6 0-.3.1-.2.2-.4m-4.8 5.3c.4-.7 1.4-1.2 2-1.6.6-.4 1.4-1.1 2.1-1.2 0-.2.1-.1.2-.3m-5.6-10.1c.4-.5 1.3-.8 1.9-1.1s1.3-.8 1.9-.8c0-.1.1-.1.2-.2"/><path d="M106.1 45.8s-2.6 10.7-2.6 12.3 2.6 4 3.8 4.8c1.2.8 4-3.7 4.3-4.3s-2.3-12.8-2.3-12.8h-3.2z" class="st25"/><linearGradient id="SVGID_2_" x1="105.309" x2="110.056" y1="84.386" y2="84.386" gradientTransform="matrix(1 0 0 -1 0 130)" gradientUnits="userSpaceOnUse"><stop offset="0" stop-color="#8d298b"/><stop offset=".17" stop-color="#943792"/><stop offset=".49" stop-color="#a65ba6"/><stop offset=".924" stop-color="#c496c5"/><stop offset="1" stop-color="#c9a1cb"/></linearGradient><path fill="url(#SVGID_2_)" d="M105.3 45c.4.9 0 .7.2 1.6 2 .8 2.6.6 4.6 0v-2c-1.3-.6-3.2-.2-4.4-.5"/><path d="M115 36c4.9 1 8.9 2.9 9.3 6.3 1.1 9.1-.5 12.3-.5 12.3L121 77.3l-.5 2.9s-2 2.4-4.7 2.7c-2.7.2-7.4-.9-7.4-.9s1.8-28.7 2.4-30.1c.7-1.3 2.1-9.8 2.1-9.8l.9-3.6L115 36zm-25.7 5s4.3-4 5.2-4.4c.9-.4 2.2-1.1 2.2-1.1s6 9.8 6.2 12.3c.2 2.4 2.1 17.1 1.9 19.2-.2 2 .6 15.8.6 15.8s-2 1.3-3.8.9-3.8-1.6-4.9-1.8c-1.1-.2-4.3-3.5-4.3-3.5l-2.9-31.7-.2-5.7z" class="st27"/><path d="M97.4 37.3l-.8 6 6 4.1-1.7 3.7 2.7 6.7-.7-9.7s-2.1-4.5-3.1-6.9c-1-2.5-2.4-3.9-2.4-3.9zm17-.1l2.3 7.3-4.6 3 1.1 5.2-2.9 4.1s-.4-1.8.3-4.1 1-5.1 1.8-8c.8-2.7 2-7.5 2-7.5z" class="st27"/><path d="M106.5 44.1l-3.6 4s-4-9.1-4.8-10.3c-.9-1.1 1.8 0 2.4.7.7.7 4.7 4.2 4.7 4.2l1.3 1.4zm2.7.1l2.8 4s1.6-9.3 2.3-10.4c.7-1.1-.2-.7-.7 0s-3.3 5-3.3 5l-1.1 1.4z" class="st18"/><path d="M120.1 25.9s1.1-1.3 1.6-.6c.4.6.8 2.2.8 3s-1.2 3-1.5 3h-1.1l.2-5.4zm-27.5 1.8s-1.1-1.3-1.5-.6c-.4.6-.9 2.2-.9 3s1.1 3 1.4 3h1.1l-.1-5.4z" class="st28"/><path fill="#c48d5f" stroke="#c3854e" stroke-width=".25" d="M92.3 27.7s-.3 5.4.3 6.3c.6.9 2.8 3 8.1 4.2 6 1.3 8.9 1.2 11.7 0 2.4-1 4.3-2.1 5.4-3.4 1.2-1.3 1.7-2.2 2-3.7.3-1.4.6-2.8.3-3.2-.3-.4.8-6.1.8-7 0-4.9-9.6-10.4-14.7-10.9-4.8-.5-13.3 6.2-13.4 12.1.1 1.1-.5 5.6-.5 5.6z"/><path d="M103.4 27.1c0 .4-.2.6-.5.6s-.5-.3-.5-.6c0-.4.2-.6.5-.6s.5.3.5.6z" class="st30"/><path fill="none" stroke="#000" stroke-width=".31" d="M120.1 26.5h0"/><path fill="#e9ba8b" stroke="#9d5324" stroke-width=".25" d="M105.7 30.6s.4-1.2 1.4-1 1.2 1.1 1.2 1.1"/><linearGradient id="SVGID_3_" x1="98.968" x2="94.603" y1="85.382" y2="85.382" gradientTransform="matrix(1 0 0 -1 -.057 117.382)" gradientUnits="userSpaceOnUse"><stop offset="0" stop-color="#ec1475"/><stop offset="1" stop-color="#fff5cb"/></linearGradient><path fill="url(#SVGID_3_)" d="M94.4 32c0 1.8 1 3.3 2.2 3.3s2.2-1.5 2.2-3.3-1-3.3-2.2-3.3-2.2 1.5-2.2 3.3z" opacity=".18"/><linearGradient id="SVGID_4_" x1="113.796" x2="118.883" y1="85.182" y2="85.182" gradientTransform="matrix(1 0 0 -1 -.057 117.382)" gradientUnits="userSpaceOnUse"><stop offset="0" stop-color="#ec1475"/><stop offset="1" stop-color="#fff5cb"/></linearGradient><path fill="url(#SVGID_4_)" d="M118.6 32.2c0 1.8-1.2 3.3-2.6 3.3s-2.5-1.5-2.5-3.3 1.2-3.3 2.6-3.3 2.6 1.5 2.5 3.3z" opacity=".18"/><path d="M94.1 20.3s-1.1.5-1.1.9-.6 3.4-.6 3.4l-.2 3 2.1 1.2-.2-8.5z" class="st35"/><path d="M109.3 13.6s-7.7 1.1-9 1.5-2.2.2-3 1.2c-.8.9-1.8 1.4-2.2 2.2-.4.8-.8 1.8-1.2 2.5-.4.6-1.5 6.7-1.5 6.9 0 2.7 0-8 1.9-12 1.3-2.7 6.4-6.3 9.8-6.4 3.3-.1 5.9.6 7.7 1.6 1.6 1 0 1.4-.2 1.7-.3.4-2.3.8-2.3.8z" class="st35"/><path d="M110.6 13.5s1.5-2.2 2-2c.4.1 5.6 3.4 6 3.8.4.4 2.4 2.8 2.9 3.7s.3 3.6 0 4.4c-.3.7-1.1 1.7-1.1 1.7s-.2.7-.4.6c-.2 0-.6-.1-.6-.1s.2-1.9.3-2.9c.1-1-2.5-4.7-3.2-5.5-.8-.8-4.2-2.4-5-3-.9-.5-.9-.7-.9-.7z" class="st35"/><path d="M118.6 28.4l1.7 1s-.1-1.8.1-2.3c.1-.6.1-2 .1-2l.2-1.2h-1s-.1 1.8-.4 2.5c-.5.7-.7 2-.7 2zm-9.6-5.3c1-2.3 6.5-1.4 7.8.2-1.1.1-1.7.6-2.8 0-1.2-.7-2.9-.9-4.3-.4m-4.4.6c-1-2.3-6.5-1.4-7.8.2 1.1.1 1.7.6 2.8 0 1.2-.7 2.9-.9 4.3-.4" class="st35"/><path d="M111.6 27.1c0 .4-.2.6-.5.6s-.5-.3-.5-.6c0-.4.2-.6.5-.6s.5.3.5.6z" class="st30"/><ellipse cx="106.7" cy="35.1" fill="#4f112c" stroke="#7a133e" stroke-width=".25" rx="3.9" ry="2"/><path fill="#7a133e" d="M105.4 33.3s-2.5.5-2.6 1.7c0 1.2 1.4 1.7 1.9 1.8s-.8-.7-.8-1.7 1.5-1.8 1.5-1.8zm2.5 0s2.5.5 2.6 1.7c0 1.2-1.4 1.7-1.9 1.8s.8-.7.8-1.7-1.5-1.8-1.5-1.8z"/><path fill="#fcfdff" d="M104 33.6c-.2.2-.1.5-.1.8.1.3 1.6-.3 2.7-.3s2.9.4 2.9.2c.1-.2.2-.4-.1-.6-.3-.2-1.3-.6-2.7-.6-.8 0-2.5.3-2.7.5z"/><path fill="#c93d7e" d="M104.6 36.8c-.3-.3.5-.8.7-.9.4-.2.8-.3 1.3-.3.9-.1 1.8.2 2.4.9.2.3 0 .3-.2.3s-.4.1-.6.2c-.4.1-.8.2-1.2.2h-1.2c-.4-.1-.7-.3-1.2-.4"/><path d="M91.3 66.4s7.1-1.1 16.3-8.9c9.2-7.9 11.7-20.3 11.7-20.3s2.6.5 4.6 3.7c2 3.1-8.9 21.4-15.6 25.5-6.2 3.9-16.4 6.7-16.4 6.7l-.6-6.7z" class="st15"/><path d="M119.3 37.2s2.2.2 2.5.7-5.6 13.9-10.2 19.1c-6.5 7.2-20.1 11.7-20.1 11.7l-1.2-2.4s13.9-5.1 18.3-10.3c4.4-5.2 6.6-9.5 7.4-10.5.7-.9 3.3-8.3 3.3-8.3z" class="st15"/><path d="M91.4 68.8s8.9-1.9 18.1-9.7c9.2-7.9 12.6-20.6 12.6-20.6s.5 0 1.4 1.1c.7 1-8.2 18.6-16.1 23.1-6.4 3.6-15.6 7.9-15.6 7.9l-.4-1.8z" class="st16"/><path d="M120.3 37.7l.2.8.5-.7-.2.8.9-.4-.6.6h1l-.9.4.9.2-.9.1.7.5-.9-.2.4.7-.7-.5v.8l-.4-.8-.4.8V40l-.7.5.4-.7-.9.2.7-.5-1-.1 1-.2-.9-.4h1l-.6-.6.8.4-.2-.8.6.7.2-.8zm.9 4.7l.2.8.5-.7-.2.8.9-.4-.6.7.9-.1-.8.4.9.2-.9.1.7.6-.9-.3.4.7-.8-.5.1.8-.4-.7-.4.7v-.8l-.7.5.4-.7-1 .3.8-.6-1-.1.9-.2-.8-.4 1 .1-.6-.7.8.4-.2-.8.6.7.2-.8zm-.7 3.7l.2.8.6-.7-.3.8.9-.4-.6.7 1-.1-.9.4 1 .2-1 .1.7.6-.9-.3.4.8-.7-.6v.8l-.4-.7-.4.7v-.8l-.7.6.4-.8-.9.3.7-.6-1-.1 1-.2-.9-.4 1 .1-.6-.7.8.4-.2-.8.6.7.2-.8z" class="st14"/><path d="M118.3 57.7c0 .2-.2.4-.4.4h-1.1c-.2 0-.4-.2-.4-.4l.3-8.7c0-.2.3-.4.5-.4h1c.2 0 .4.2.4.4l-.3 8.7z" class="st40"/><path d="M120.5 53c.3.3.6.5.8.4l.5-.5c.1-.1 0-.5-.3-.8l-12-13.7c-.3-.3-.7-.5-.8-.4l-.5.5c-.1.1 0 .5.3.8l12 13.7z" class="st40"/><path fill="#020202" stroke="#020202" stroke-width=".25" d="M108.8 37.9c-.5.4-.6 1.1-.3 1.6l3.3 4.5c.3.5 1 .5 1.5 0l.1-.1c.5-.4.6-1.1.3-1.6l-3.3-4.5c-.3-.4-1-.5-1.6.1h0z"/><path d="M128.5 123.3l-37.1 1.6v-4.5l36.8-1.3.3 4.2z" class="st13"/><path d="M85.8 115.9l5.6 4.5v4.5l-5.6-5.1v-3.9z" class="st42"/><path d="M120.4 114.7h.8l7 4.4-36.8 1.3-5.6-4.5 34.6-1.2zM85.2 69.2l35.1.5 7.1-6.4-38-.2-4.2 6.1z" class="st12"/><path d="M127.4 63.3l-38-.2v-6.2l38 .4v6zm-6.9 55.5l-23.7 1-.5-51.7h23.3l.9 50.7z" class="st13"/><path d="M89.4 56.9l-5.5 10.4s.9 1.8 1.3 2 4.2-6.1 4.2-6.1v-6.3zm3.4 12.4l3.5-1.2.5 51.7-2.6-3.4-1.4-47.1z" class="st42"/><path fill="#424342" d="M99 73.2h18.9l-.3 29.8-18.6.5V73.2z"/><path fill="#c3854e" stroke="#c3854e" stroke-width=".25" d="M101.2 25.4c1-.9 2.6-1 3.6-.2-.4-.8-1.3-1.4-2.2-1.4-1.4 0-2.6 1.2-2.6 2.7 0 .5.1 1 .4 1.4-.2-.8.1-1.8.8-2.5zm11.6-.2c-1-.9-2.6-1-3.6-.2.4-.8 1.3-1.4 2.2-1.4 1.4 0 2.6 1.2 2.6 2.7 0 .5-.1 1-.4 1.4.2-.8-.1-1.8-.8-2.5z" opacity=".49"/><path fill="#8bd5ec" stroke="#030303" stroke-width=".31" d="M105.2 26.4c0 1.5-1.2 2.7-2.6 2.7s-2.6-1.2-2.6-2.7 1.2-2.7 2.6-2.7c1.5 0 2.6 1.2 2.6 2.7zm8.8-.4c0 1.5-1.2 2.7-2.6 2.7s-2.6-1.2-2.6-2.7 1.2-2.7 2.6-2.7 2.6 1.2 2.6 2.7z" opacity=".11"/><path fill="none" stroke="#030303" stroke-width=".25" d="M105.2 26.4c0 1.5-1.2 2.7-2.6 2.7s-2.6-1.2-2.6-2.7 1.2-2.7 2.6-2.7c1.5 0 2.6 1.2 2.6 2.7zm8.8-.4c0 1.5-1.2 2.7-2.6 2.7s-2.6-1.2-2.6-2.7 1.2-2.7 2.6-2.7 2.6 1.2 2.6 2.7zm-8.8.4l3.9.1m4.9-.5l6.4-1.2M100 26.4l-7.8.4"/><path d="M108.9 82.6l.8 3.1 2.1-2.6-.8 3.1 3.2-1.6-2.2 2.5 3.6-.4-3.2 1.6 3.5.9-3.6.3 2.7 2.1-3.5-1 1.6 2.8-2.7-2.1v3.1l-1.5-2.8-1.4 2.8v-3.1l-2.7 2.1 1.5-2.8-3.5 1 2.8-2.1-3.7-.3 3.5-.9-3.2-1.6 3.7.4-2.2-2.5 3.2 1.6-.8-3.1 2.1 2.6.7-3.1z" class="st14"/><path d="M89.3 32.7c-.2-.4-1.3-.6-1.8-.6-.7 0-.6 1.2-.5 1.7.2 1 1.9 2.9.9 3.9-.3.3-1.4.4-1.9.3-1.2-.2-.9-.4-1-1.3-.1-.8.2-1-.8-1-.9 0-1.3.6-1.6 1.4-.5 1.5 1.1 2.3 1.3 3.8.1.8.1 1.3.5 2 .4.6 1.3 1.2 1.5 1.9s-.5 1.2-.6 1.9c-.4 2 .2 7.1 3.6 5.5.9-.4 1.4-1.9 1.8-2.7.2-.4.2-1 .4-1.4.4-.7-.1-3.6.3-4.9.3-1 .7-1.7.4-2.8-.3-1.1-.5-2.4-1-3.4-.6-1-.9-3.3-1.5-4.3z" class="st28"/><path d="M85.1 37.2c.4 1 .1 1.9-.9 2.4 2-1.1 3 .5 1.6 2 1.6.1 2 1.1.8 2.1.4.5 0 .5-.3.9" class="st28"/><path d="M85.1 46.5c0 .6-.2 1.1.2 1.7.4.5 1.5.9 2.1 1 1.7.3 2.7-1.1 3.8-2 .7.5.1 2.9-.2 3.6-.7 1.6-2 2.3-3.6 2.4-1.6.1-2.5-1.1-3-2.6-.3-1.1-.3-3 .6-3.8" class="st47"/><path d="M126.3 29.2c.2-.4 1.3-.6 1.8-.6.7 0 .6 1.2.5 1.7-.2 1-1.9 2.9-.9 3.9.3.3 1.5.4 1.9.3 1.2-.2.9-.4 1-1.3.1-.8-.2-1 .8-1 .9 0 1.3.6 1.6 1.4.5 1.5-1.1 2.3-1.3 3.8-.1.8-.1 1.3-.5 2-.4.6-1.3 1.2-1.5 1.9s.5 1.2.6 1.9c.4 2-.2 7.1-3.6 5.5-.9-.4-1.4-1.9-1.8-2.7-.2-.4-.2-1-.4-1.4-.4-.7.1-3.6-.3-4.9-.3-1-.7-1.7-.4-2.8.3-1.1.5-2.4 1-3.4.6-1 .9-3.3 1.5-4.3z" class="st28"/><path d="M130.5 33.7c-.4 1-.1 1.9.9 2.4-2-1.1-3 .5-1.6 2-1.6 0-2 1.1-.8 2.1-.4.5 0 .5.3.9" class="st28"/><path d="M130.5 43c0 .6.2 1.1-.2 1.7-.4.5-1.5.9-2.1 1-1.7.3-2.7-1.1-3.8-2-.7.5-.1 2.9.2 3.6.7 1.6 2 2.3 3.6 2.4 1.6.1 2.5-1.1 3-2.6.3-1.1.3-3-.6-3.8" class="st47"/><path d="M147.6 125c-3.5-.9-2.8 2.3-.2 3.1 4 1.2 4.9-1.5 1.2-2.8" class="st25"/><path fill="#f8c033" stroke="#f8c033" d="M176.3 112.7h42.8v7.8h-42.8v-7.8z"/><path d="M29.3 110.9c1.3-.6 2.7-3.5 4.3-3.2 2.2.3.9 3.2.2 4.1s-1 .9-1.1 2c-.1 1 .6 1.3 0 2.4-.8 1.3-4 2.9-5.8 3.2-4 .5-8.7-3.5-7.6-6.6.6-1.7 2.5-3 4.8-3.4.8-.2 2.3-.4 3.1 0 1 .5.4 1.8 2.2 1.7m25.6 3.7c.3 1.1-.8 2.6-3 1.9 1.2.3 1.5.9.5 1.6-1.2.7-2.4.1-3.9.3 0 1.2 1.3 1.7 3 1.7.5 2.7-12.4 1.1-12.6-1.3-3.4.8-2.7-2.3-1.4-3.3-3.1.9-1.9-1.3-2-2.1.4 0 .8-.2 1.3-.2-.1-.4 0-1-.3-1.4 1.4-.4 1.9 1.5 3.2.1.4-.4-.6-.9-.4-1.3.3-.7 1.2-1.2 2.1-1.6 3.1-1.3 5-.5 6.8 1.1.9.8 1.5 1.6 2.6 2.2 1.6.5 3.7.8 4.1 2.3zm31 11.8c-.4-.9 1.1-1.3.7-2.4l.5-1.2c3.2-2.9-6.1-2.5-7.7-2.2-3.5.6-7.1 2.8-7.8 5.5-.2.7-.1 1.3.1 1.9h17.1c-.5-.8-2.5-.9-2.9-1.6zm-33.1-1.3c-1 .4-2.8.6-2.7 1.8 2.1.2 3.9.5 5.6 1.1h9.1c-.4-.8-1.2-1.2-2.3-1.5-.4-.1-.9-.3-1.3-.4-1.3-.1-2.5-.4-3.4-.7-.7-.2-6.5-2.6-5-.3z" class="st49"/><path d="M68.9 116.1c.9-.3 1.5-1 1.4-1.6-1.9-.1-3.5 0-5.1-.9-2-1-1.3-1.8-4.1-1.5-5.8.5-8.4 5-7.7 8.8.7 4.1 3.8 4.2 8.1 5.3 1.6.2 3.3.1 4.2-.7-.8-.5-1.8-1.2-1.9-2.2 1.2.2 2.1 1 3.3.6.3-.1.3-1 .6-1.2.4-.3 1.2-.3 1.5-.6.5-.5.7-2-.2-2.4-.7-.3-2.2.4-2.8.6-.2-.3-.2-.6 0-.9 1-.9 1.6.3 3.6-.1 3.1-.6-.2-1.2-1.5-1.5 1.4-.6 3.7-.3 3.9-2.1-1 .4-2.3.9-3.3.4zm-3.3 4.2c.2-.3.4-.6.6-.7l-.6.7z" class="st49"/><path d="M63.6 128.2h7.6c-2.5-.5-5.6-.7-7.6 0zm-10.5-5c-3.6-.9-7.1-.3-10.4.7-1.8-2.2-4.4-4.8-7.9-5.6-1.3-.3-3.7-.4-5-.1-1.8.4-2.6 1.7-4 2.4-2.2-2.1-3.4-4.2-7.4-4.9-3-.5-5.6.7-8.4.8.6 0-1.7-2.8-2.1-3.1-1.1-.6-2.6-.8-4-.8-1 0-1.5 0-2.7.1v3.4c.5.1.1.3.6.4 4.8 1.4 9 3.2 14.1 4 4.9.7 9.5 2.1 14.6 2.9 5.2.8 10 3 14.7 4.6.1 0 .1 0 .2.1H60c-1.8-1.9-3.3-4-6.9-4.9z" class="st50"/><path d="M105.1 128.2c0-.1.1-.1.1-.2l-.1.2zm-1.2-5.7c-2-1-1.3-1.8-4.1-1.5-5 .4-7.6 3.8-7.8 7.2h12.8c.9-2.2.6-5-.9-5.7zm20.5 5.7h3.5c0-.7-.3-1.2-1.2-1.3-.8-.2-1.6.5-2.3 1.3zM15.1 108.1c0 .4.1.8.5 1 .3-.3 1-1.3 1.7-1.3.9 0 1.6 1.2 1.5 1.7-.1.4-.7.6-.8.9-.1.2.4.9.2 1-.7.6-1.8.4-2.7.6.6.7 1.7.8 2.5 1-.5 1.5-3.8 2.2-5.5 2.4-.7.1-6.3.2-3.9 1.4-.5.6-1.7 1.3-1 2.1 2.3-.7 4.2-1.1 6.8-.9 1.6.1 5.8 1.1 6.8.1-.4-.7-.9-1.8-1.5-2.3-1.1-1-1.9-1.1-3.3-1-4.5.4-7 1.8-10-1.3-2.6-2.6-3.2-6.7.8-8.8 1.9-1 1.8-.3 3.8-.2 1.7.1 2.8-.4 4.2-1 .4.5.4 1.2-.2 1.6 1 0 1.7-.7 2.3-1.3.9 1.4-1.1 1.8-1.7 2.7 1.1-.2 3.8-.8 1.9.6-1.5 1.1-2.8-.1-2.6 2m30.9 11.5c-.4-.5-.9-.5-1.6 0 0 1.9-1.2 2.9-2.2 4.1-1.7-3.1-2.4-8-8.2-7.1h2.5m79.5 10.6h3.7c-.8-1.1-2.4-.9-3.7 0z" class="st49"/><path d="M51.8 124c-3.6-.9-7.1-.3-10.4.7-1.8-2.2-4.4-4.8-7.9-5.6-1.3-.3-3.7-.4-5-.1-1.8.4-2.6 1.7-4 2.4-2.2-2.1-3.4-4.2-7.4-4.9-3-.5-5.6.7-8.4.8.6 0-1.7-2.8-2.1-3.1-1.1-.6-2.6-.8-4-.8H2v3.9c.1 0 .2.1.3.1 4.1 1.2 6.1 8.4 10.2 10.8h6.2c3.4-1.5 6.8-4.5 10.4-4 2 .3 3.9 2 5.8 4h23.2c-1.6-1.8-3.1-3.4-6.3-4.2z" class="st51"/><path d="M22 120.8c-1.6-.3-2.9 2.6-4.3 3.2v.2c-1.8.1-1.2-1.1-2.2-1.7-.8-.4-2.2-.2-3.1 0-2.2.4-4.1 1.7-4.8 3.4-.3.7-.2 1.5.1 2.3h13.5c-.1-.4-.3-.7-.2-1.3.1-1 .3-1.1 1.1-2 .8-.9 2-3.7-.1-4.1zm16.7 2.8c-1.2-.8-1.9-1.8-2.9-2.7-2-1.9-4-3-7-1.5-.8.4-1.7 1.1-2 1.8-.2.5.9 1.1.6 1.6-1.2 1.6-1.9-.6-3.3-.2.4.5.3 1.2.5 1.7-.5 0-.9.2-1.3.2.1.9-.9 3.6 2.2 2.6-.3.3-.5.6-.6 1H43c.2-.4.2-1 .1-1.5-.6-1.6-2.8-2-4.4-3zm10.8 1.6c-2.8.2-4.9 1.4-6.2 3h15.3c0-.2.1-.4.1-.6-1.9-.1-3.5 0-5.1-.9-2-1-1.3-1.7-4.1-1.5zm136.9-20c-1.5-.6-3-3.3-4.8-3-2.4.3-1 3-.2 3.9.8.8 1.1.9 1.2 1.9.1.9-.7 1.3 0 2.3.9 1.2 4.5 2.8 6.5 3 4.5.5 9.7-3.4 8.5-6.2-.7-1.6-2.8-2.8-5.3-3.2-.9-.1-2.6-.4-3.4 0-1.1.5-.4 1.7-2.4 1.6m-27.3 4.8c-.4 1 .3 2.3 2.5 1.5-1.1.3-1.5.9-.7 1.5 1 .6 2.2-.1 3.5 0-.2 1.1-1.4 1.6-3 1.7-.8 2.4 11.1.2 11.6-2 3 .5 2.7-2.2 1.7-3.1 2.7.7 1.9-1.3 2.1-2-.4 0-.7-.2-1.2-.1.1-.4.1-.9.5-1.3-1.3-.3-1.9 1.5-2.9.3-.3-.3.7-.9.6-1.2-.2-.6-1-1-1.7-1.3-2.6-1-4.5-.1-6.3 1.4-.9.7-1.6 1.5-2.7 2.2-1.5.7-3.4 1.1-4 2.4zm-28.7 4.5c-1.8-.3-12.2-.8-8.6 2.5l.5 1.3c-.4 1.2 1.3 1.6.8 2.6s-3.3 1-3.4 2.1c-.1.8.8.5 1.1.9-.5-.6 2.4 1.3 1.5 1 1 .3 2.1.3 3.4.4 0 .9-.9 1.5-2.2 1.7 0 .3 0 .6.1.8h8.2c.4-.1.7-.3.9-.4 3.4-1.4 7.1-3.7 6.2-6.9-.6-2.9-4.6-5.4-8.5-6z" class="st49"/><path d="M145 113c.4.5.6 1 .2 1.4-.7-.2-2.3-1-3.1-.7-1 .5-.7 2.2-.2 2.7.4.4 1.3.4 1.7.7.3.2.4 1.2.7 1.3 1.3.4 2.4-.4 3.7-.7 0 1.1-1.2 1.8-2.1 2.4 1.9 1.5 6.3.6 8.5 0 .9-.3 7.4-2.9 5.7-.3 1.2.4 3.1.7 2.9 2-3.3.3-5.9.8-8.7 2.3-1.7.9-5.8 4.1-7.9 3.4-.2-1-.5-2.5-.3-3.4.4-1.7 1.3-2.2 3-2.8 5.5-1.7 9.6-1.3 10.4-6.4.7-4.3-2.1-9.3-8.6-9.8-3.1-.3-2.4.6-4.6 1.7-1.8.9-3.6.9-5.7 1-.1.8.6 1.5 1.6 1.8-1.1.5-2.6 0-3.8-.4.1 2 2.8 1.6 4.3 2.3-1.5.4-5.1 1-1.6 1.7 2.7.5 3.1-1.5 4.7 1" class="st49"/><path d="M219.1 105.8c-1.5-.2-3.1-.2-4.3-.2-1.5 0-3.2.2-4.4.9-.5.3-3 3.4-2.3 3.4-3.2-.1-6.1-1.4-9.4-.9-4.5.7-5.7 3.1-8.2 5.4-1.5-.7-2.4-2.2-4.5-2.6-1.5-.3-4.2-.1-5.6.2-3.9.8-6.8 3.8-8.8 6.2-3.7-1.1-7.6-1.8-11.6-.7-5.2 1.3-6.3 4.6-9.6 7.3-1.2-3.5-10.6-2.3-13.7-.9-2.7 1.2-3.1 3.3-6.4 3.4-2.4.1-4.9-.7-7.4-.6-2.6 0-4.3.6-6.3 1.5h28.6c2-.3 3.9-.6 5.8-1 6.1-1.1 12.1-2.3 17.9-4.2 5.3-1.8 10.6-4.2 16.4-5.2 5.6-.9 10.8-2.4 16.2-3.2 5.6-.8 10.3-2.9 15.7-4.4.6-.2 1.3-.4 2-.6l-.1-3.8z" class="st50"/><path d="M107.8 115c-3.1-.3-2.4.6-4.6 1.7-1.8.9-2.1 4.9-.5 7.4l-.9-1.2c.4.5.6 1 .2 1.4-.7-.2-2.3-1-3.1-.7-1 .5-.7 2.2-.2 2.7.4.4 1.3.4 1.7.7.3.2.3 1 .5 1.2h1.9c.6-.2 1.2-.5 1.8-.6 0 .2-.1.4-.2.6h10.1c.9-.7 1.5-1.8 1.7-3.4.9-4.3-1.9-9.3-8.4-9.8zm-14 12.1c-.7-1.9-2.8-3.3-5.3-3.7-.9-.2-2.6-.4-3.4 0-1.1.6-.4 2-2.4 1.8v-.2c-1.5-.7-3-3.9-4.8-3.6-2.4.4-1 3.6-.2 4.6s1.1 1 1.2 2.1H94c0-.3-.1-.6-.2-1zm108.5-26.5c0 .5-.1.9-.6 1.1-.4-.4-1.1-1.5-1.9-1.4-1 0-1.7 1.4-1.6 1.9.1.4.8.7.9 1 .1.3-.4 1-.2 1.2.7.7 2 .4 3.1.6-.6.8-1.9.9-2.8 1.1.5 1.7 4.2 2.4 6.2 2.7.8.1 7 .2 4.3 1.6.6.7 1.9 1.5 1.1 2.3-2.6-.8-4.7-1.3-7.6-1-1.8.1-6.5 1.2-7.6.1.4-.8 1-2 1.7-2.6 1.2-1.1 2.2-1.2 3.7-1.1 5 .4 7.7 2 11.1-1.4 2.9-2.9 3.6-7.4-.9-9.9-2.1-1.1-2-.3-4.3-.2-1.8.1-3.1-.5-4.7-1.1-.5.5-.4 1.3.2 1.8-1.1 0-1.9-.8-2.5-1.5-1 1.5 1.2 2 1.9 3-1.3-.2-4.2-.9-2.1.7 1.7 1.2 3.1-.1 2.9 2.2M168 114.5c.4-.6 1-.6 1.7 0 0 2.1 1.3 3.2 2.4 4.6 1.9-3.4 2.7-8.9 9.2-8h-2.8" class="st49"/><path d="M95.2 126.4c-.1-2.2-2-3.4-5-3.3-2.1-1.5-4.8-1.4-4.8 1.8l.7-1.1c.8 1.8.6 3.1.1 4.4h12.3c-1.1-.7-2.7-1.1-4.4-1 .5-.2.8-.4 1.1-.8z" class="st49"/><path d="M219.1 106.5c-1-.1-2.1-.1-2.9-.1-1.5 0-3.1.2-4.4.9-.5.3-3 3.4-2.3 3.4-3.2-.1-6.1-1.4-9.4-.9-4.5.7-5.7 3.1-8.2 5.4-1.5-.7-2.4-2.2-4.5-2.6-1.5-.3-4.2-.1-5.6.2-3.9.8-6.8 3.8-8.8 6.2-3.7-1.1-7.6-1.8-11.6-.7-5.2 1.3-6.3 4.6-9.6 7.3-1.2-3.5-10.6-2.3-13.7-.9-2.6 1.2-3.1 3.3-6.4 3.4-2.4.1-4.9-.7-7.3-.6-1.6 0-2.9.3-4.1.6h55.4c3.6-3.9 7.3-9 11.1-9.6 5.6-.9 10.8 6.1 16.2 5.3 5.6-.8 10.3-11.4 15.7-13 .2-.1.4-.1.6-.2v-4.1h-.2z" class="st51"/><path d="M216 112.5l1.3-.6c-1.9 3.5-8.4.7-10.3 3.8-1.9 3.1 5.7 5.4 8.4 3.7.1 1.5 1.8 2.6 3.7 3.1v-15.1c-.1 0-.2.1-.3.1-1.9 1.4-.4 3.8-2.8 5z" class="st49"/><path d="M199.3 118.4c-1.5-.7-3-3.9-4.8-3.6-2.4.4-1 3.6-.2 4.6s1.1 1 1.2 2.2c.1 1.1-.7 1.5 0 2.6.9 1.5 4.5 3.3 6.5 3.5 4.5.6 9.7-3.9 8.5-7.3-.7-1.9-2.8-3.3-5.3-3.7-.9-.2-2.6-.4-3.4 0-1.1.6-.4 2-2.4 1.8m-6.3.5c-.5 0-.9-.3-1.5-.2.1-.5.1-1.3.5-1.9-1.6-.5-2.3 2-3.7.2-.4-.5.8-1.3.6-1.8-.3-.9-1.3-1.6-2.2-2-3.4-1.7-5.6-.5-7.8 1.6-1.1 1-1.9 2.1-3.2 3-1.7 1.1-4.2 1.6-4.7 3.5-.5 1.5.6 3.4 3.2 2.4-1.4.4-1.8 1.3-.8 2.1 1.3.9 2.7 0 4.4.3-.1 1.1-.9 1.8-2 2.1h10.8c1.1-.6 1.9-1.2 2-1.9 3.8 1 3.3-3.1 1.9-4.4 3.6 1 2.4-1.9 2.5-3zm-47.1 7.2c-1.7-.3-11-.7-9.1 2h14.2c-1.5-1-3.3-1.7-5.1-2z" class="st49"/><path d="M163.9 119.7c-3.1-.3-2.4.6-4.6 1.7-1.8.9-3.6.9-5.7 1-.1.8.7 3 2.2 3.7-1.3.3 1 .2 2.6 2.1h14.2c0-4-2.9-8-8.7-8.5z" class="st49"/><path d="M206.4 128.2c-1.3-.8-2.3-2-4.1-2.5-1.5-.3-4.2-.1-5.6.2-1.8.4-3.4 1.2-4.9 2.3h14.6zm12.7-.1V123c-1.4-.2-2.7-.3-4.2-.1-4.4.7-5.7 3-8 5.2h12c0 .1.1.1.2 0z" class="st50"/><path d="M183.7 128.2h4.1c.9-1.2 2.1-2.2 3.8-2.5h-.2l-7.7 2.5zm7.9-2.5h2.6c-1-.1-1.8-.1-2.6 0zm-114.3-5c-1 .4-2.8.6-2.7 1.8 2.1.2 3.9.5 5.6 1.1h9.1c-.4-.8-1.2-1.2-2.3-1.5-.4-.1-.9-.3-1.3-.4-1.3-.1-2.5-.4-3.4-.7-.7-.3-6.5-2.6-5-.3z" class="st49"/><path d="M93.3 111.5c.9-.3 1.5-1 1.4-1.6-1.9-.1-3.5 0-5.1-.9-2-1-1.3-1.8-4.1-1.5-5.8.5-8.4 5-7.7 8.8.7 4.1 3.8 4.2 8.1 5.3 1.6.2 3.3.1 4.2-.7-.8-.5-1.8-1.2-1.9-2.2 1.2.2 2.1 1 3.3.6.3-.1.3-1 .6-1.2.4-.3 1.2-.3 1.5-.6.5-.5.7-2-.2-2.4-.7-.3-2.2.4-2.8.6-.2-.3-.2-.6 0-.9 1-.9 1.6.3 3.6-.1 3.1-.6-.2-1.2-1.5-1.5 1.4-.6 3.7-.3 3.9-2.1-1 .4-2.3.9-3.3.4zm-3.3 4.1c.2-.3.4-.6.6-.7l-.6.7zm22.3 1.2c.1 1.1-.7 1.5 0 2.6.9 1.5 4.5 3.3 6.5 3.5 4.5.6 9.7-3.9 8.5-7.3-.7-1.9-2.8-3.3-5.3-3.7-.9-.2-2.6-.4-3.4 0-1.1.6-.4 2-2.4 1.8" class="st49"/><path d="M48 108.4c-.1.5 1 1.1 1.3 1.5.5.4 1.1.8 1.7 1 1.6.6 3.5 1.7 3.9 3.1.1.5-.5 1.3-.9 1.7-.5.5-1.1.2-1.8.3 0 .3 1.1.5 1 1-.1.3-1 .9-1.2 1.1-.6.4-1.6 0-2.4 0-.2 0-1.1-.1-1.3.1-.1.2.5.7.6.8.6.5 1 .9 2 1 .5.1.9-.1 1 .3.1.3-.1.6-.5.8-.8.4-2.1.5-3.1.6s-2.4 0-3.3-.3c-.9-.3-1.4-.7-1.6-1.4-.2-.7-.4-1.4-.3-2.1 0-.6.5-1.6-.2-2.1-.3-.2-.8-.2-1.2-.4-.4-.2-.5-.8-.4-1.1.1-1 1.5-.5 1.9-1.3.4-.7.2-1.7.3-2.4.1-.8.7-1.1 1.5-1.6.4-.3.7-.4 1.3-.4.3 0 1.2-.1 1.4 0s.5.5.6.7c.2.2.4.5.6.7.2.2.3.4.6.5" class="st52"/><path d="M39.7 120c.3.4.8.7 1 1.2l.3.9c.1.3 0 .8.3 1.1.2.2.8.3 1.1.4 1.2.3 1.3-.9 1.5-1.6.1-.3.5-.7.4-1 0-.4-.5-.3-.7-.7-.3-.4-.3-.5-.9-.7-.5-.2-1-.3-1.5-.5-.9-.4-1.6-1.1-2.5-1.3-.4.4.5 1.5.7 1.9.4.6 1.1.9 1.4 1.6" class="st52"/><path d="M189.6 102.2c-4-.1-1.2 1.9-1.2 2.8.1 1.2-1.4 1.9-.6 3-1.6.5-.9 1.6-1.7 2.5.7 1.1 2.2.9 3.1.3-1.1.6-1.4 1.5-.5 2.3 3.7.2 4.2-2.2 7.5-2 5.7-5.1-1.2-12.4-7.8-8.7" class="st53"/><path fill="#fac2aa" d="M187.5 104.6c-.5.2-.9.4-1.4.2-.4-.2-.6-.6-1-.8-.8-.5-1-1.1-1.5-1.8-.5-.5-1.4-1-2.4-.7-.9.3-.7 1.4-.6 2 .1.8.5 1.2.9 1.9.5.8.7 1.7.8 2.5s-.1 1.5.4 2.3c.4.7 1.4 1.3 2.1 1.8.8.5 2 .8 3.1.6.9-.2 1.4-1.1 1.3-1.8-.9-.1-3.2.5-2.6-.8.2-.4.4-.9.8-1.2.4-.3.9-.4.8-.8-.1-.4-.5-.6-.2-1 .2-.4.7-.5.8-.9 0-.3-.3-.9-.4-1.2-.2-.3-.4-.6-.9-.5-.1 0-.4.1-.4.2m15-4.2c.2.6 1.9.8 2.5 1.2.8.5 1.4 1.3 2.5 1.3.6 0 1.2-.2 1.6.3.2.3.2.8-.1 1.1-.2.3-.8.4-1 .7-.3.4 0 .7.2 1 .3.5 1.1 1.3.6 1.8-.6.7-1.9.6-2.9.5-2.2-.2-4.4-.5-6.1-1.6-.3-.2-.7-.4-.6-.8 1.1-.3 2.4-.3 3-1.2-.8-.2-2.4 0-3-.5-.6-.4.1-.5.3-.9.3-.4-.7-1-.9-1.4-.4-.6 0-1.2.7-1.7 1-.7 1.7.3 2.2.9.8 1.2 1.3-.1 1-.7"/><path d="M173.5 107c-.4.1-.6.5-1 .7s-.7.2-1.2.3c-.5.1-.7.2-1.1.4-.5.3-.4.2-.4.6.1.6-.8.9-.2 1.6.3.3.8.4 1.2.6.4.3 0 .5.2.8s.7.5 1.1.7c.4.2.5.4.8.6.6.6.9.9.3 1.5-.5.5-.9.8-1.1 1.4l-.3.9c-.1.3 0 .5-.2.8-.5.6-2.2.4-2.3-.3-.1-.6-.4-1.5-1-2-1.1.5-2.9.4-4.3.5-1.6.1-2.8-.1-3.1-1.1.4-.1.8.1 1.2-.1.4-.1.7-.3 1-.4.7-.3 1.5-.7 1-1.2-1 0-1.8.4-2.9.1-.4-.1-1-.4-1.1-.7-.2-.4.3-.5.3-.9-1.1 0-1.5-.4-2-.9s-.1-1.1.3-1.6c.6-.6 1-.8 1.9-1.1.9-.3 1.8-.8 2.4-1.2.9-.6 1.7-1.4 2.6-1.9.7-.4 1.1-.7 1.9-1.1 1.6-.7 4.6-.4 5.7.7.4.4.9.5.9.9-.1.4-.8 1.1-.9 1.5" class="st55"/><path d="M4 114.6c.8 0 1.8-.5 2.6-.7-.9-1.3-2.4-3-.6-4.1.7 2.9 1.2 5.3 2.7 8.1 1.6 3.1 4.1 6.5-1.4 8.3-1.8-3.1-2.1-7.6-3-11" class="st25"/><path fill="#703f19" d="M199.6 105.4c-2.1.3-4.6 3.6-5.2 5-.3.8.3 1.6 0 2.5-.4 1.1-1.6 1.8-1.3 2.9.4 0 .8-.1 1-.3.5 1.2.2 2.5.3 3.7.2 2.6.5 2.3 3.9 3 2.5.5 3.1.8 6 .4 2.2-.3 5.6-.6 7.2-1.6-1.1-2-5-2.2-6.7-4-.7-.7-.5-2.7-1.2-3-1.6-.7-3 .4-3.4 1.3-1.3-.5-.4-3.2-.3-4.5.1-2.2 1.4-3.2 2.9-5.1-.7-.1-1.5-.1-2.2-.1"/><path d="M28.1 125c.9.8 1 1.6.1 2.4-3.2-.5-5.6-2.1-9.1-2.5-3-.3-5.9-.1-8.9-.3-2.2-4.7 15.7-2.7 17.5.1" class="st57"/><path d="M10.4 125.2c-2.3.4-6.2 2.7-6.5 4.5 8.1-1 14.6-.1 25.5-.3-.1-3.3-16.5-6.3-20.1-4.2" class="st57"/><path d="M85.1 116.6c-3.7.2-.8-4.3-.8-6.1-6.5-.8-5 3.1-6.4 6.4-.7 1.6-2.4 3.6-2.4 5.4.1 1.9 1.4 3.1 2.8 4.7 1.5 1.9-.2 2.2 3.5 2.4 3.2.2 4.2-.1 5.1-2.7.6-1.7.5-9.1-1.5-9.8m-49.7 1.6c2.2-2 .5-3.7 1.3-5.8.6 1.1.8 2.7 1.6 3.9 1.1 1.7 3.7 2.3 4.3 3.8.5 1.2-1.4 3.7-2.4 4.6-.7.7-1.9.8-2.6 1.4-.9.9-.7 1.8-1.6 2.4-1.1-3.1-.9-8.9.9-11.9m156.9-8.6c-4.7-3.1-3.7 1.2-3.9 3-.3 2.8-1.4 4-.7 7 .6 2.3.7 5.9 3.2 7.6 4.9 3.4 3.6-2.3 6.5-3.5-4.9-1.3-5.5-2.6-5.8-6.3-.1-1.5-.7-1.5-.4-3.2s1.4-2.8 1.1-4.6m-134.6 2.6c-.8-1.3-2.8-1.1-4-.1-1.6 1.5.6 3.2.5 4.6 0 .6-1.1 1.4-1.2 2-.2.7.2 1.6 0 2.4-.4 1.5-1.1 3.3-3.1 3.9-.1 1.9 5.4 4.5 7.3 5.5 1.4-1.1.4-2.7 1.1-4 .4-.7 2.3-.3 2.6-1.4.2-.9-1.7-1.8-2.1-2.7-1.2-3 1.4-7.6-.7-10" class="st25"/><path d="M23.5 122.9c.9-1.3 15.2-4.9 7.8-7.2.3-1.1.3-2.2 1.6-3-1.6-1.7-3.4-3-4.8-4.9-.9-1.4-2.6-4.5-4.4-5.3-.1.6-.3 1.4-.3 2.1-3.9.3-9.3 1.3-7.3 4.7.6 1.1 4.1 1.8 2.6 3.4-1.2 1.2-2.8 0-4.5 1.3-1.2.9-4.9 6.4-4 7.5 1.8 2.2 9.6-.4 12.7 1.1" class="st52"/><path d="M197.2 123.7c4.5-1.5 13.7-4.2 16.2.2-1.4 1-5.9.5-7.9.6-2.5.1-6.1 1.1-8.4.8-.1-.4-.1-1 .2-1.4" class="st58"/><path d="M25.6 102.2c-4.3-1.2-13.5 2.2-16.5 4.4-5.2 3.9-1.5 8.5.7 12.9 1.3 2.6 4.2 4.4 5.1.5.2-1-.8-2-.5-3 .6-2.1 2.3-1.9 4.1-3.1 4.9-3.2.3-2.4-.5-5.6-.6-2.6 4-4.6 6.9-3.8.5-.3.7-.6.4-1.1" class="st0"/><path fill="#201910" d="M197.5 105.4c6.6-2.9 17.5-.9 19.9 5.2 1 2.6.6 5.9-.7 8.3-2 3.9-5 4-9.7 2.9.2-2.8-3.4-2.4-5.1-4.3-1.6-1.8-.2-3.7-4-3.3-.6-2.4.8-6.1 2.3-8.2-.6-.2-1.6-.3-2.4-.1"/><path d="M197.3 125.6c-2.6.5-4.1 2.7-6.2 3.8 0 0 27.3.5 26.5.3l.7-4c-1.7-1.9-4.6-1.5-6.8-1.6-4.7-.1-9.8.1-14.1 1.7" class="st58"/><path d="M61.3 125.3c3.2-.4 19.6-2.6 16.9 3-3.2-.1-6-1.3-9.2-1.6-3.4-.3-5.8.7-9 1.2-1.1-1.6 1-3.3 3.2-3.7" class="st60"/><path fill="#252520" d="M109.6 128.3c-1.3-3.3-12.3-5.4-15.9-2.7-4 3 3.3 1.3 5.1 1.1 2.9-.3 8.2-.4 9.7 1.9"/><path fill="#171118" d="M140.3 126.4c-3.9 0-10.4-.9-13.4 1.4 2 2.1 11 .9 14.1.7.4-.4.5-.8.4-1.3"/><path fill="#2a251e" d="M186.9 111.8c-.3 0-.6.1-1 .1.6 2.1 2.8 3.8 3.8 5.8.9 1.9 1.3 4 2.2 6 1.3 2.7 2.7 3.9-1.7 4.9-2.4.5-6.5.4-9 .3-4.2-.3-4-.9-4.8-3.5-.5-1.8-1.8-4.1-1.4-6 .2-1.1 1.7-2 2-3.1.3-.9-.4-2.3.1-3.1 1.3-1.8 6.6-2.8 8.7-1"/><path d="M169.5 120.7c-3.2 0-7.2-.5-9.5 1.6 1.3 1.2 9.4 0 11.3-.6-.1-.2-.3-.5-.4-.7" class="st64"/><path d="M140.3 125.9c-.1-4.1 3.9-5.5 1-9.8-2.4-3.4-8.6-6.5-12.5-2.7-2.5 2.4-4.3 6.9-1.7 9.7 3.2 3.6 8.3 2.8 13.2 2.8" class="st65"/><path d="M170.6 121.1c3 .6 4.3 2 4.4 4.3.1 3-1.3 3.4-4.5 3.4-5 .1-10.1 0-16 0-1.9-7 10.2-7.3 16.2-8" class="st64"/><path fill="#131210" d="M160.2 110.7c-3.5.8-2 5.5-1.6 7.3.9 3.6 3.7 4.1 8.7 2.8 11-2.8-1-15.5-6.8-10.1"/><path fill="#161516" d="M79.7 112.5c-2.3.4-1.8-.8-2.2.4-.5 1.7 1.2 3.9-.2 5.6-1.9 2.4-4.2 4.9-7.4 5.3-2.6.4-6.7.4-8.3-1.1-1.8-1.6-1.3-5.5-1.7-7.5 2.6-.5 5.5-.2 8.8-.4 3.4-.3 6.1.2 8.7-1.3"/><path d="M52 109.2c3.2 1.3 3.4 9.2 2.5 11.7-1.9 5-15.3 2.6-12-1.5-3.5-.5-6-7.2-3.3-9.2 1.3-1 5-.6 6.7-.9 2.1-.4 5.3-2.2 6.5-.2" class="st68"/><path fill="#654018" d="M94.9 124.7c-1.3-1.8-2.7-3.1-2.5-5.2.1-1 1.2-2 1.4-3 .2-.9-.3-2.2.1-2.9 2-4 10.1-4.3 14-1.6.9.7 2.8 4.4 2.5 5.3-.3 1.4-1.8 1.2-2.3 2.3-.5 1 .1 1.9-.2 2.9-1.5 5.5-7.5-.5-12.3 1.9"/><path fill="#070808" d="M3.8 108.1c2 1.5 1.6 5.4-2.1 5.1.2 1.4 2.1.9 3.2 2 .9.9 1.3 2.8 1.7 3.9 1 2.4 2 5 2.1 7.5-3.3.5-6.1 5.9-8.2 2.2-.8-1.4.2-6.5.4-8.2.2-2.9.3-5.4-.3-8.3-.2-.9-1-3-.4-3.8.9-1.2 4.1-2.3 4.3-.3m26.9 2.1c3.4-1.4 3.1.7 3.2 2.2.1 1-.5 1.9-.3 3 .3 1.2 1.6 2 1.9 3 .9 3-.1 8-1.1 10.9-1.2.3-5.7.3-6.6-.4-1.3-1.1.2-1.9-.1-3-.4-1.3-.9-1.6-1.4-2.4-.4-.9-2.1-.4-1.8-1.9.2-.7 3.1-1.5 3.9-1.9 2.8-1.3 5.4-2.3 2-4.6 1.8-1.3 1.6-3.1.2-4.6"/><path fill="#222e26" d="M51.2 125.5c1.5.3 9.1 2.6 7.2 3.4-2.3 1-7.2.7-8.7.7-4-.1-7.3-.2-13.9-.9 3-3.4 10.4-3.7 15.4-3.7"/><path d="M36.1 117.9c2.9-1.1 1.9-3.1.6-4.8 1.7 2.3 5.5 6 5.3 8.4-.2 3.5-3.6 4.8-6.1 7.1-1.1-3.2-.3-7.4.4-10.6" class="st25"/><path d="M60.2 115.2c-1.2-3.4-1.2-5.4 2.5-7.8 3.3-2.1 8.8-2.6 12.2-.3 1.2.8 2.7 2.6 2.9 3.8.4 2.6.6 3.1-2 4.2-3.1 1.4-9.6 2-13.1.6" class="st72"/><path d="M51.2 124.7c3.5.1 5.8 2.3 7 4.6-2.7 1.1-7.5.1-10.5.1-4.3 0-7.5-.4-11.7-.8 4-2.9 11-5.3 16.7-3.3" class="st25"/><path fill="#fff" d="M42.2 123.4c-.8 1-1.6 1.9-2.3 2.9 1.9 0 3.7-.9 5.7-1.1 1.4-.1 5 .5 6-.2 3.2-2.4-3.6-1.3-3.9-1.3-1.9-.1-4.3-.8-5.8-.5"/><path fill="#fff8f4" stroke="#fff8f4" d="M188.7 116.9c-1.9 3.3-3.9 1.1-5.5-.7 1.7.9 3.9 1 5.5-.1m.7 5.7c-2.3 1-4.9 1-7.4.6 1 2.1 6.3 1.6 7.8-.1m-5.1-9.7c-1.7.3-2.5-.2-2.4-1.5.8-.2 1.5 0 2.1.5m7.2 11.6c.4 3.5-4.1 6.2-8.6 4.3 2.1-2 6.1-.6 7.2-4.3" opacity=".39"/><path d="M139.6 118.3c-1.5 2.3-4.7-.8-6.2-1.7-3.9 3.1 8.9 6.9 6.9 1.4m-.7-3.5c-1.7.2-3.4.2-4.8-.5 1.1-1 3-.8 4 .3" class="st75"/><path fill="#313235" d="M91.2 128.5c6.4-2.4 13.4-2.3 19.6.6-1.6 1.1-7.1.2-9.4.3-3.5.2-6.4.6-9.8-.1"/><path d="M70.1 120.7c5.7-.8 7.5 4.2 6.9 7.5-3.1.4-7.1.4-10.1.3-3.2-.1-6.2.4-9.2.4-.3-2.2 3.3-7 5.9-8.2 3.9-1.7 7.3 0 10 .6" class="st60"/><path fill="#e8b989" stroke="#c2854e" stroke-width=".25" d="M90.1 114.8c-1 .2-1.7 0-1.5 1.1 1.1-.2 2.1-.2 3-.8.8 1.1.5 1.9-1.1 2 0 .8-.6 1.2-.8 1.7-.4-.2-.8-.4-1.2-.7-1.5 1.2 1.8 2.5-.5 3.5-2.6 1.1-3.2-2-3-3.2.5-2.3 3.7-5.5 6.5-4.1"/><linearGradient id="SVGID_5_" x1="173.288" x2="193.873" y1="11.19" y2="11.19" gradientTransform="matrix(1 0 0 -1 0 130)" gradientUnits="userSpaceOnUse"><stop offset="0" stop-color="#e95425"/><stop offset=".026" stop-color="#de5023"/><stop offset=".177" stop-color="#a43b1a"/><stop offset=".327" stop-color="#722912"/><stop offset=".474" stop-color="#491a0c"/><stop offset=".617" stop-color="#290f07"/><stop offset=".755" stop-color="#120703"/><stop offset=".885" stop-color="#050201"/><stop offset="1"/></linearGradient><path fill="url(#SVGID_5_)" d="M176.8 112.1c-1.4.9-3.7 2.5-3.5 4 .1.7 1.5 1.1 1.8 2 .4 1.3-.8 2.3-1.2 3.5 2.5 2.1 1.9 2.1.2 4.4 1 .5 1.9 1.2 1.8 2.2 4.6.2 8.8-.9 12.9-.2 6.2 1 6.7-5.6 1-5.5-.3-1.2 1.4-1.7 1.4-2.6 0-1.2-1.2-1.4-1.8-2.4-1.4-2.2.5-3.4-2.2-5.1-2-1.3-3.2-2.9-5.9-3-4-.1-3.6 1.7-5.5 3.5"/><path d="M189 116.5c-.9.3-3.5 1.1-5.2 1.4-.3 2.2 5.8.7 5.2-.9" class="st25"/><path d="M189.8 121.8c-1.7.8-3.2 1.4-5.2 1.6v.6c1.7.2 8.9-.6 4.9-2.4m-.5-4.9c-1.3 1.6-3.1 2.1-5.5 2 1.7 1.4 7.1 1.1 6.6-1.5-.6-.1-1.2-.1-1.4 0m-13.6 2.6c1.5.8 3.3 1 5.1.9-1.7 1.6-4.1.9-6.2.4.2-.3.5-1 .8-1.3m0 5.9c1.7 0 3.6.2 5.2-.2.1.3.1.7 0 1-1.7.4-5.3 1-6.3-.4.7-.2 2-.4 2.6-.5" class="st79"/><path d="M137.4 110.9c2.6 2.3 2.9 3.3 1.8 5.4-.9 1.7 1.5 2.1 1.6 3.5v1.1c0 1.7-1.9 1.7-1.2 2.8.6 1 2.7 1.8 3.2 2.6 1.1 1.6 5.9 1.1 5.9 2.8 2 .1 6.1.3 6-1.9-2.4-.4-.8-2.8.6-3.6 2-1.2 3.5-.7 3.2-3.2-.1-.7-.9-1.2-.8-2 .1-1.1 1.2-1.6 1.2-2.5 0-.8-1.2-1.3-1.3-2.1-.2-1.1.6-1.3.7-2.2.1-2.1-1.3-2-2.5-3.3-1.7-1.9 0-4-3.5-4-2.1 0-7.3.7-9.2 1.3-2 .7-1.2 1.9-3.5 2.2-.5 1.6-2.2-.1-2.1 1.4" class="st53"/><path d="M142.9 117.2c1.3-.4 3-.3 3.8-1.1 1.3 1.5-3.3 2.7-4.3 1.1m14.1-3.3c-1.6.1-3-.1-4.3-.6-.3 1.8 4.4 2.5 4.9.9m-14.5 9.3c1.8.1 3.3-.3 4.7-1.2-.1 1.6-3.4 2.2-4.7 1.2" class="st79"/><path d="M81 120.8c.2-.6-2.6-1.1-3.2-1.1-.3 0-1-.1-1.3.1-.4.3-.2.7-.1 1-.8 0-1.6 0-2.1.5-.6.7-1.3 1.4-1.7 2.2-.6 1.1-1.2 2-1.2 3.2 0 .6 0 1.3-.3 1.8 2.2.3 4.4.2 6.6.2h9.9c1 0 2.1.1 3.1.1.4 0 .8.1 1.2.1 0-.4-.1-.4-.5-.7-.3-.2-.4-.4 0-.7.5-.3 2.3-.2 2.1-1.1-.1-.4-.4-.2-.8-.4-.5-.3-.2-.5.1-.7.2-.2.7-.5.8-.8 0-.3-.7-.7-.9-.9-.6-.5-1.8-.7-2.7-.7-.6 0-.9-.2-1.4-.4-.5-.3-1-.4-1.6-.6-.3-.1-.8-.2-1.1-.3-.3-.2-.3-.5-.6-.7-1-.5-2.2-.2-3.3-.3-.3 0-.7-.1-1-.2" class="st72"/><path fill="#61bf86" d="M109.8 128.6s3.5-1.8 5.3-2.1c1.7-.3 5-2.3 1.6-3.2 2.3-.3 4.4-.8 6.9-.8.8 0 3.2-.4 3.9.2.9 1 .3 2.1-.7 2.5 2.5 1.2 5.5.6 7.7 3.2 0 .2.1-.1 0 0-4 .7-7.3.6-12.5.5-7.3-.1-9.1-.2-12.3-.2"/><path d="M138.5 123.4c-.1-4.1 3.9-5.5 1-9.8-2.3-3.4-8.5-6.5-12.4-2.7-2.5 2.4-4.2 6.9-1.7 9.7 3.1 3.6 8.2 2.8 13.1 2.8" class="st65"/><path d="M137.8 115.8c-1.5 2.3-4.7-.8-6.2-1.7-3.9 3.1 8.8 6.9 6.9 1.4m-.7-3.5c-1.7.2-3.4.2-4.7-.5 1.1-1 3-.8 4 .3" class="st75"/><path d="M116.5 128.5s4.6-1.6 7-1.8c2.2-.3 6.6-2.1 2.1-2.8 3.1-.3 5.8-.7 9-.7 1.1 0 4.3-.4 5.1.2 1.2.9.4 1.9-.9 2.2 3.3 1 7.2.5 10.1 2.8 0 .2.1-.1 0 0-5.3.6-9.6.5-16.4.4-9.5-.1-11.9-.1-16.2-.2" class="st68"/><path d="M114.3 112.9c3.3-1.5 4.3-1.6 5.3-1.5 2.5.3 5.5.7 5.6 2.6s-1.9 3.9-4.3 4.1c-3.2.3-2.1 1.5-1.5 3.3 1.1 3.5-5.4.9-4-.5-3.1 0-4.6-5.1-3-6.1" class="st55"/><path d="M120.3 118.4c-2.7.1-3.9-.2-5.9-1.6-.7-.5-2.1-1.5-2.9-.6-.5.6.6 2.9 1 3.5.5.9 1.3.4 2.1 1 .7.6.8 1.5 1.5 2 1.9 1.2 5.1.4 5.5-1.4.3-1.5-.6-2-1.6-3" class="st49"/></g></switch></svg>
