<svg xmlns="http://www.w3.org/2000/svg" version="1.0" viewBox="0 0 100 85.7"><switch><g><linearGradient id="a" x1="9819.898" x2="9818.888" y1="-56.879" y2="-95.294" gradientTransform="scale(-1 1) rotate(1.455 -158.586 -388172.93)" gradientUnits="userSpaceOnUse"><stop offset="0" stop-color="#969696"/><stop offset="1" stop-color="#666733"/></linearGradient><path fill="url(#a)" stroke="#343433" stroke-width=".25" d="M46.9 49.4c-.7 4.6-1.8 8.7-1.4 13.7.3 4.3 2.1 9.1 1.2 13.2-.8 4-4.9 6.2-9.1 4.3-4.4-2-1.6-5.9 2.4-6.8-1-3.8-1.2-8-1.6-12.2-.2-2-1-4.4-.7-6.5.4-3 1.6-3.6 3.4-6.4"/><linearGradient id="b" x1="9794.167" x2="9793.156" y1="-56.202" y2="-94.617" gradientTransform="scale(-1 1) rotate(1.455 -158.586 -388172.93)" gradientUnits="userSpaceOnUse"><stop offset="0" stop-color="#969696"/><stop offset="1" stop-color="#666733"/></linearGradient><path fill="url(#b)" stroke="#343433" stroke-width=".25" d="M58.4 48.6c2 5.9 5.7 10.1 7.9 15.6 1.1 2.8 3.2 6.5 1.5 9.6-1.6 2.9-4.6 2.7-5 6.8 7.7 2.1 12.4-6.4 12.7-13.2.4-7.5-9-13-8.9-21.3"/><linearGradient id="c" x1="9806.228" x2="9811.281" y1="-43.325" y2="-141.886" gradientTransform="scale(-1 1) rotate(1.455 -158.586 -388172.93)" gradientUnits="userSpaceOnUse"><stop offset="0" stop-color="#969696"/><stop offset="1" stop-color="#666733"/></linearGradient><path fill="url(#c)" stroke="#343433" stroke-width=".25" d="M8.2 5.5c.6-1.3 1.7-2.5 2.9-3.1.1.4 0 .8.2 1.2 1.4-1 2.9-2.2 4.5-2.8-.3.5-.7 1-1 1.4 1.7-.7 3.2-.8 3.6.7 7.9-.7 10.7 6.6 16.4 9.2 7 3.2 13.8 1.3 21.2.8 7.6-.5 15-1.8 21.6 1.7C84 18 88.9 21.1 92.9 27c1.8 2.5 4 5.3 5.1 8.1-.5-.1-1.2-.2-1.7-.3 3.9 11.3 1.4 23.1-4.5 33.1-1.4-1-1.6-2.8-1.3-4.6-.3.8-1.1 1.6-1.4 2.5-2.3-2.9-1.2-10.8-1.1-14.5.1-3.8 1.9-11.2.9-13.8-1.6 5.8-7.3 12.6-7.5 18.4-.1 3.5 2.4 6.3 2 9.6-.4 3-3.2 5.9-4.2 8.8-1.2 3.5-.8 5.6-4.2 7.2-2 1-8.8 2.9-9.6.4-1-3.2 4.7-4.8 6-6.4 1.9-2.2 2.4-6 2.4-8.9 0-7.8-8.7-10.5-10.7-17.7-.7.9-1.9 1.3-2.5 2.3-.5-.6-1-.8-1.4-1.6-.2.1.1 1-.5 1-.2-.5-1-1.4-1.4-1.9-1.2 1.5-2.8 1.5-4.2.1-.2 1.2-1 1.5-1.3 2.3-.7-.5-1.7-.5-2.2-.8-.2.7-1 1.2-1.3 1.8-.9-.7-2.2-.7-3.1-1.3-4.8 4.1-3.9 11.9-5.6 17.5-1.5 4.9-2.3 13.5-7.3 15.4-2.1.8-7.8 1.2-8.7-1.8-1.2-3.9 4.3-3.8 5.6-6.3 1.2-2.3.2-8 0-10.6-.3-3.6 0-7.3-.4-10.9-1.2 0-2.1-.6-3.4 0 .2-.7.1-1.9.2-2.5-.4.2-1.1.5-1.6.8 0 0-.8-.8-.6-.8.4-.6.3-1 .5-1.6-4.1 2.5-11.5-16-14-19.9-3.1-5-12.1-19.9-2.1-23.6"/><linearGradient id="d" x1="9817.95" x2="9817.078" y1="-429.805" y2="-470.783" gradientTransform="scale(-1 1) rotate(1.65 -11237.77 -341584.631)" gradientUnits="userSpaceOnUse"><stop offset="0" stop-color="#969696"/><stop offset="1" stop-color="#666733"/></linearGradient><path fill="url(#d)" stroke="#343433" stroke-width=".25" d="M10.3 6.2c-2.2-3.9-6-8.5-8.8-4.3-2.7 4.1-1.2 8.5-.1 12.7L1 17.7c.3 2.3-.8 4.1-1.1 6.2.7-.3 1.3-.2 2-.4.2.6.2 1.5.2 2.1.4.2.9-.2 1.2.1-.3.6-.3 1.7-.8 2.4 1.4-.8 1.7-.1 3.1-.3 2.3 1.6.4 4.5 2.4 6.5 1.9 1.9 6.6 1 8.5.1 4.6-2.3 5.8-6.4 11.6-6-.5-.6-.6-1.5-1.1-2.1.7.1 1.7-.3 2.4-.2-.4-.9-.4-2.5-.9-3.4.7.2 1.9 0 2.6.2-.6-1-.8-2.5-1.3-3.3.5.4 1.2.7 1.7 1.1-.4-.9-.5-2-.9-2.8.5-.3.7.1.9-.6-.6-.7-.7-1.4-1-2.2l-1.5-.9c.8-4.3 2.1-8.8-.8-12.7-3-4-6.6.8-8.5 4.8"/><linearGradient id="e" x1="9813.893" x2="9812.717" y1="-435.724" y2="-445.423" gradientTransform="scale(-1 1) rotate(1.65 -11237.77 -341584.631)" gradientUnits="userSpaceOnUse"><stop offset="0" stop-color="#343433"/><stop offset="1"/></linearGradient><path fill="url(#e)" stroke="#676833" stroke-width=".25" d="M18.3 21.4c.1-2.7 3.5-4.2 4.6-1.3-1 1.6-3 2.1-4.6.9"/><linearGradient id="f" x1="9826.683" x2="9825.507" y1="-437.277" y2="-446.974" gradientTransform="scale(-1 1) rotate(1.65 -11237.77 -341584.631)" gradientUnits="userSpaceOnUse"><stop offset="0" stop-color="#343433"/><stop offset="1"/></linearGradient><path fill="url(#f)" stroke="#676833" stroke-width=".25" d="M10 21c-.2-2.7-3.8-4-4.7-1 1.1 1.5 3.1 2 4.7.6"/><linearGradient id="g" x1="9848.961" x2="9846.435" y1="-26.593" y2="-157.95" gradientTransform="scale(-1 1) rotate(1.455 -158.586 -388172.93)" gradientUnits="userSpaceOnUse"><stop offset="0" stop-color="#969696"/><stop offset="1" stop-color="#666733"/></linearGradient><path fill="url(#g)" stroke="#343433" stroke-width=".25" d="M15.7 34.9c-2-.1-4.6-.8-6.2.2 1.7 1.3 4.2.9 6.2-.2"/><path fill="#343433" d="M12.4 33.6c3.5-2.5.7-3.9-2.4-2.5-.1.5-.1.9 0 1.4.6.7 1.6 1.1 2.6.9"/><path fill="#FFF" d="M20.8 18.8c.8-.1 1.3.4 1.3 1.1h-.5c-.3-.6-.8-.9-1.4-1m-12.3 0c.8-.1 1.3.4 1.3 1.1h-.5c-.3-.6-.8-.9-1.4-1"/><path fill="none" stroke="#343517" stroke-width=".25" d="M53.8 15.6c.6.1 1.2 0 1.7-.4m-.4 2.4c.6-.4 1.3-.5 2.1-.4m-7.6-.1c.6.1 1.2 0 1.7-.4M64 18.8c-.7 0-1.4 0-2.1.1m-17.4-2c.7 0 1.4 0 2.1-.1m13.5 0c1.2.1 2.3-.1 3.4-.4M56.8 20c.4.1.9.2 1.3.3m-6.8-.5c.7 0 1.4 0 2.1-.1m12.7-1.3c.9-.1 1.8.1 2.6.6m-11.4 3.1c.6.3 1.6.5 2.6.6m-13.2-1.4c1 .2 1.9.2 3 .3m-9-2.9c1 .2 1.9.3 3 .3m23.6-2.7c-.1 0 2.5-.1 3.4-.1m6.5 5.3c-1.3-.5-2.6-1.1-3.9-1.6m-8.8 1.3l.9.3m7.2.8c.9.5 2 .8 3 .9m-8.9 2.4c-1.1-.5-2.4-1-3.4-1.6m6.3-2.3c-.7-.1-1.4-.5-1.7-1m-13.5 3.5c-.3-.5-1-.7-1.7-.6m-7.6.2h-.8M41.1 16c-.6.3-1.5 0-2.1-.6m3.5 6.4c-.5.2-1.4-.1-2.1-.6"/><path fill="#666733" d="M26.5 9.5c-.2.9-.2 1.5-1 2.2 0 0-.8-1.3-.9-1.4-.7.1-.7.8-1.6.5-1.1-2.5.3-6.4 2.7-7.9.6 2.2.9 4.4 1.3 6.7M8 7.8C7.3 7 5.7 4.2 4.3 3.2c-1.2 2-1.1 6-.2 8.1.2-.4.6-1.3.8-1.9.1 0 .5.7.8.6 0-.3-.1-1.2 0-1.5.3.3.7.8 1 1.1 1.1-.5 1-1.1 1.1-2.1"/></g></switch></svg>
