<svg xmlns="http://www.w3.org/2000/svg" xmlns:xlink="http://www.w3.org/1999/xlink" id="Capa_1" x="0" y="0" version="1.0" xml:space="preserve" viewBox="0 0 220 129"><style>.st10{opacity:.32}.st10,.st11,.st12{fill:none;stroke:#496738}.st11{opacity:.25}.st12{opacity:.23}.st15{fill:#89bb4f}.st16{fill:none}.st17{fill:#cd3e3c}.st18{fill:#f1cc46}.st22{fill:#f8f7f6;stroke:#866d42;stroke-width:.25}.st24{opacity:9.000000e-02;fill:#736144}.st32{fill:#fff;stroke:#e1e2e3;stroke-width:.25}.st33{fill:#8b6738;stroke:#5b381b;stroke-width:.5}.st34{fill:#38398f}.st43{fill:#bb953c}.st47{fill:none;stroke:#e0d439;stroke-width:.1964}.st71{fill:#8eb24d}.st75{fill:#fdfbe9}</style><switch><g><symbol id="flower" viewBox="-20.5 -31.7 41 63.3"><path fill="#769648" d="M5.2-31.7s3.3 17.5-6.5 45.8"/><path fill="#f1e973" stroke="#949641" d="M-5.2 22.4s-2.7 9.8 1.6 8.7C.8 30-2 23.5-2 23.5s1.1 3.8 4.9 6c3.8 2.2 2.7-3.8 2.7-3.8l-4.4-5.5s8.2 6 11.5 6c3.3 0 3.3-1.6 0-3.3-3.3-1.6-7.6-3.8-7.6-3.8s7.1 1.6 9.8 1.1c2.7-.5 7.1-1.1 3.8-2.7S8.3 15.9 8.3 15.9l-4.9-.5s5.5-1.6 9.8-3.3c4.4-1.6 7.1-4.9 2.7-3.8-4.4 1.1-12 4.4-12 4.4s.5-3.3 2.7-4.9C9 6 7.4 1.6 4.1 4.3S.3 13 .3 13s1.6-8.2 0-9.8c-1.6-1.6-6-3.3-5.5.5s1.6 9.8 1.6 9.8-3.3-7.1-7.1-8.7c-3.8-1.6-5.5 0-2.7 3.3l3.8 6s-7.6-4.9-9.3-4.4c-1.6.5-2.7 3.8 5.5 8.2 8.2 4.4 4.4 0 4.4 0l-7.6 4.9s0 4.9 3.8 3.8c3.8-1 7.6-4.2 7.6-4.2z"/><path fill="#5c3b1f" d="M2.6 18.9s-3.4 7.5-8.3 1.5c-5-5.9 8.9-8.8 8.3-1.5z"/></symbol><path fill="#81c5e5" d="M.7 0h220v129H.7z" transform="rotate(-180 110.656 64.5)"/><path fill="#fff" d="M91.6 33.4c1.9-2.7 3.2-3.3 6.5-2.1 3.5 1.2 4.5 4.3 6.7.7 1.6-2.6 1.5-5.4 5.6-4.3 3 .9 1.9 1.9 2.6 4.3 1.6-.3 6.9-2.7 5.7.8 1.5-.1 2.6.6 2.2 2.1 2.4.2 5.7-1.8 7.8-1.1 3.2 1.1 1.4 3.7-.4 5.2-2.7 2.4-4.7.3-7.5 2.4-1.3 1-.8 2.5-2.4 2.9-1.5.4-2.8-.5-2.9-1.9-.6.2-1.7-.1-2.2.1-.3-1.5-.1-3.1-.7-4.4-.9 1.5-1.9 2.9-3.7 2.2-1 1.5-2.6 4.4-4.8 3.6-1.6-.6-2.1-3-1.5-4.3-1.2-1-2.3-.3-3 .8-.9-2.4-2.4-1-3.8-2-.8-.5-1.5-2.3-2.4-2.9-2.2 1.7-4-.6-1.8-2.4m86.2-23.7c1.6-2.3 2.7-2.7 5.5-1.8 2.9 1 3.7 3.6 5.6.6 1.3-2.1 1.2-4.6 4.7-3.6 2.6.7 1.6 1.6 2.2 3.6 1.4-.2 5.8-2.3 4.8.6 1.3-.1 2.2.5 1.9 1.7 2 .1 4.8-1.5 6.5-.9 2.7.9 1.2 3.1-.3 4.4-2.3 2-3.9.3-6.3 2-1.1.8-.6 2.1-2 2.5-1.3.3-2.3-.4-2.5-1.6-.5.2-1.4-.1-1.8.1-.2-1.3 0-2.6-.6-3.7-.7 1.3-1.6 2.4-3.1 1.9-.8 1.2-2.2 3.7-4 3-1.3-.5-1.8-2.5-1.3-3.6-1-.8-2-.2-2.6.7-.8-2-2-.8-3.2-1.6-.7-.4-1.3-1.9-2-2.5-1.8 1.4-3.3-.5-1.5-2M37.9 29.8c-1.1 2.5-2.1 3-4.8 2.5-2.9-.6-4.1-3-5.3.3-.9 2.3-.5 4.6-3.8 4.2-2.5-.3-1.8-1.3-2.6-3.1-1.2.4-5 3.1-4.6.1-1.2.3-2.1-.2-2-1.4-1.9.2-4.2 2.2-5.9 1.9-2.6-.5-1.6-2.8-.4-4.3 1.8-2.3 3.6-.8 5.5-2.9.9-.9.3-2.1 1.5-2.7 1.2-.5 2.2 0 2.6 1.2.4-.2 1.4-.2 1.7-.3.4 1.2.4 2.5 1.1 3.5.5-1.3 1.1-2.6 2.6-2.3.6-1.3 1.5-3.9 3.3-3.5 1.3.3 2 2.2 1.8 3.3 1.1.7 1.9-.1 2.3-1.1 1 1.8 2 .5 3.3 1.1.7.3 1.5 1.7 2.3 2.1 1.5-1.6 3.2 0 1.7 1.7" opacity=".75"/><path fill="#8abb4f" d="M.7 94h220v35H.7z"/><linearGradient id="SVGID_1_" x1="-1.241" x2="5.037" y1="27.763" y2="141.094" gradientUnits="userSpaceOnUse"><stop offset="0" stop-color="#9bc35a"/><stop offset="1" stop-color="#5f964d"/></linearGradient><path fill="url(#SVGID_1_)" d="M.9 52.7H2v47.4H.9z"/><linearGradient id="SVGID_2_" x1="-5539.106" x2="-5545.845" y1="18.007" y2="139.655" gradientTransform="translate(5689.224)" gradientUnits="userSpaceOnUse"><stop offset="0" stop-color="#9bc35a"/><stop offset="1" stop-color="#5f964d"/></linearGradient><path fill="url(#SVGID_2_)" stroke="#3d673a" stroke-width=".5" d="M77.1 91.7c-.2-.5-5.1-11-5-11.6 2-.2-.2-2.2 1.8-1.7-.1-1.7 1.5-2.2 3.9-1.9.4-2.3 4.1-2.7 6.8-1.9 4.6-3 11.5 2.2 15.2-.4-4.7-1.9-1.2-7 4.5-6.3-.4-2.2 2.1-2.8 4.7-1.9.7-2 4.3-6.3 6.9-2.8.6-2 4.6-4.7 5.8-1.5 1.9-1.9 5.5-2.2 5.7.5 3.6-.3 14.1 1.3 11.6 4.8 2.8-.5 5.3.2 5.1 2.3 2.6.1 5.3.1 7.9 0 .1-1.5 0-3.1.1-4.6 1.1.2 2.8-.3 3.9-.1.2-2.9 6.8-4.3 9.1-2 1.3-1.7 4.7-2.7 6-.7 2.7-.1 5.6-.4 6.3 1.6 1.1-.2 2.7.3 3.8.1 0 1 1 1.9.8 3 .8-.1 3.1-1.8 3.9-1.9-1.3 4.2 4 4.5 3.5-1.2-.3-2.8-1.3-5.4 7.4-5.1-.6-2 1-3.3 4-3.1-.8-2.6 2.4-3.5 5.8-3.5.4-2.1 3.3-2.4 5.7-1.5 1.1-1.8 4.1-1.3 6.4-.4.5-.2.8-.5 1.3-.7 1.9 0 0 0 0 0v48.1s-97-2.9-122.2-4.7c-13.3-1.3-20.7-.9-20.7-.9z"/><linearGradient id="SVGID_3_" x1="1383.667" x2="1376.928" y1="21.14" y2="142.789" gradientTransform="matrix(-1 0 0 1 1454.807 0)" gradientUnits="userSpaceOnUse"><stop offset="0" stop-color="#9bc35a"/><stop offset="1" stop-color="#5f964d"/></linearGradient><path fill="url(#SVGID_3_)" stroke="#3d673a" stroke-width=".5" d="M144 94.9c.2-.5 5.1-11 5-11.6-2-.2.2-2.2-1.8-1.7.1-1.7-1.5-2.2-3.9-1.9-.4-2.3-4.1-2.7-6.8-1.9-4.6-3-11.5 2.2-15.2-.4 4.7-1.9 1.2-7-4.5-6.3.4-2.2-2.1-2.8-4.7-1.9-.7-2-4.3-6.3-6.9-2.8-.6-2-4.6-4.7-5.8-1.5-1.9-1.9-5.5-2.2-5.7.5-3.7-.5-14.2 1.1-11.8 4.6-2.8-.5-5.3.2-5.1 2.3-2.6.1-5.3.1-7.9 0-.1-1.5 0-3.1-.1-4.6-1.1.2-2.8-.3-3.9-.1-.2-2.9-6.8-4.3-9.1-2-1.3-1.7-4.7-2.7-6-.7-2.7-.1-5.6-.4-6.3 1.6-1.1-.2-2.7.3-3.8.1 0 1-1 1.9-.8 3-.8-.1-3.1-1.8-3.9-1.9 1.3 4.2-4 4.5-3.5-1.2.3-2.8 1.3-5.4-7.4-5.1.6-2-1-3.3-4-3.1.8-2.6-2.4-3.5-5.8-3.5-.4-2.1-3.3-2.4-5.7-1.5-1.1-1.8-4.1-1.3-6.4-.4-.5-.2-.8-.5-1.3-.7-1.9 0 0 0 0 0v43.1s97 2.1 122.2.3c13.5-1.2 20.9-.7 20.9-.7z"/><radialGradient id="SVGID_4_" cx="-6834.988" cy="-478.209" r="53.122" gradientTransform="matrix(.8275 -.07918 .0773 .8478 5730.582 -73.685)" gradientUnits="userSpaceOnUse"><stop offset="0" stop-color="#a6c96c"/><stop offset="1" stop-color="#769749"/></radialGradient><path fill="url(#SVGID_4_)" stroke="#769749" d="M27 100.1c-.9-1.8-3.3-.4-5-.5-.1-.9-.6-1.3-1.4-1.5.3-.2.4-.8.8-1.1-1.4-2.3-3.4-.4-5.4-.3 0-.3-.2-.8-.2-1.1-1.2.3-5.2-.8-4-2.4-.4-1.2-.4-2.5-.3-3.8-1.1-.1-1.8-.5-2.7-1-.8-.4-2.5-.9-3.1-1.4-1.3-.9-1.1-2.7-2.9-3.4-.1-.4-.2-1-.1-1.4 1.8-.3 5.3.1 3.8-2.8 1.5-1.2 7.4-2.2 7.2.9 1.8.2 2.3-1.6 1.6-2.9 0-.1-1.5-.4-1.7-.5-.7-.4-.3-1.6-2-1.1-.2-.9-1.8-1.4-1.7-2.2.2-1.1 1.7-.9 2.3-1.4 2.1-1.9-1.5-1-1.1-3.8 2.2-1.7 4.6.4 7-.7.8 1.3 2.1.3 3.1-.3-.1 1.4.6 2 1.5 1.1.6.4 1.1.5 1.9.1 0 .3.1.6.1.9.4-.2 1.1 0 1.6-.3.1.3.3.6.4.9 2.9-.3 2.6-.9 1.8-3-.1-.2-.8-.3-1-.7-.2-.5.5-.7.4-1-.2-.7-.1-1.6-.2-2.4 3-.2 5.7-2 2.4-4.4.4 0 1-.2 1.4-.2 0-.5.3-.9.2-1.4 1.1-.5 2.4-.2 3.2-1.1.2.2.9.4 1.2.6.8-1.5 1.9-.5 2.8-1.7.5 0 1 0 1.6.1.8 1.4 2.2.1 3.5.4 1.4.3 2 2.1 3.6 1.1-.1.5.3 1.1.2 1.6 1.5.2 2.2-1.2 3.4-1.3 1.7-.1 1.9 1.5 3.3 2.1-.8.3-1.6.7-2.2 1.3.6.4 1.2 1 1.6 1.7-.4.2-.8.8-1.3.9.8 1.9 4.7 3.5 4.6 6.3-.1 1.5-1.8 1.8-1.4 3.1.5 1.5 3.2.7 4.2 0 .1-.1.8-1.4.9-1.5-.2.2 1.9-1.6 1.3-1.3.3-.1 1.6-.2 1.5-.1-.7.3 2-.2 1.5-.2 1 .2 2.2.5 3.6.6-.3 0 2.4.6 2.2.5.7.4 1.4.4 1.8 1.3-.5.3-.7 1.2-1.1 1.6.8.3 1.4.8 1.8 1.5-1.7.8-.4 2.6-1 4-.7 1.5-3.8 1.7-2.9 3.9 1.5-.1 3.2-.2 4.6-.6.1.3.1.6.2.9.3-.1.8 0 1.1 0 .6 1.9-1.4 1.3-1.9 2.6-.3.8.7 2.2.6 3.3-1.2.5-.8 1.5-1.4 2.4-.5.7-1.6 1.2-2.2 1.9-.2-.3-.6-.4-.8-.7-.7.8-1.5 2.9-2.3 3.4-.7.5-2.2.2-3.3.6-1.3.4-2.3 2-3.3 2.3-1.4.4-2.2-1.6-3.1.1-1.7-1.5-3 .6-4.6.8-1.4.2-2.4-1-3.6.4-1.5 1.6.1 2.3-2.6 2.5-.9.1-2.8-.8-3.5-.7-1.7.3-2.8 1.9-4.6 1.4-1.6-.4-2.5-2-3.8-2.6-1.7-.6-2.8.3-4.6.5-.7.1-.9.4-1.6.3-.5-.1-.6-.9-1.5-.8"/><path d="M16.4 83.3c-.5-.8-2-1.2-3-1.5-.2 1.2.9 1.6 1.8 1.9-1.3 0-3 .5-3.4 1.9 1.2.1 2.6.5 3.6-.4-.1.9-1.3 1.7-1.8 2.4 1.3 0 3.4.2 3.3-1.7m40 1.5c-.4 0-.7.1-1 0-.8-2.5.4-4.7 2.6-5.9.2 1.6.5 3.3.2 4.8 1.2-.8 2.4-1.7 3.7-2.3-.1 1.8-1.5 3.2-2.8 4.1 1.3-.4 2.6-1 3.7-1.3-.4 1.3-1.7 2.4-3.2 2.8m-7.4-10.2c.5-1.5.7-2.9.6-4.4-.5 0-.9.1-1.3.1-.2 1.2-.5 2.5-.9 3.6-.6-.6-1.9-1.2-2.5-1.9-.6 1.5-.1 2.9 1.3 3.5m-23.8 8.2c-2-.1-3.8 1.1-5 2.7 1.5-.1 3-.2 4.3-.8-.7 1.1-1.5 2.3-2 3.4 1.9-.1 3.2-1.5 3.9-3.2m1.2.6c0 1.5.9 2.7 2.3 2.6 0-.8 0-1.7-.2-2.5m-5.3-15.5c.8-1.3.8-2.7-.3-3.7-.2.8-1 2.3-1.1 3.1-.9-.7-2-1.3-3-1.8-.9 2.1.7 3.8 2.8 3.6m2.5.9c.3-1.2 1-1.9 2.3-2 .6 1.6.1 2.8-1.5 3m15.5-9.5c-1.7 0-2.6-1.5-2.7-3 1.3.1 2.5.9 3.4 2-.5-1.6-.1-3.1 1.4-3.6.7 1.5 1.1 3.3.3 4.7 1.4-.3 1.9 0 3 .4-.7.3-1.5.8-2.3.9m-8.2-6.7c.5-1.2.1-2.4-1-3.2-.2.8-.7 1.3-.5 2.6-1-.1-2.1.5-3.1.4.6 1.3 2.1 1.8 3.6 1.4m6.1 24.2c-1.3.6-2.3 1.7-2.5 3.1 1.4.1 2.5-.6 3.3-1.7-.1.7.4 1.7.3 2.4 1.5 0 1.9-1 1.6-2.5 1.6 4.4 5.3-.9 1.1-2.4m-7.2 6.2c-1.3.3-2.1 1-2.2 2.3 1.3.1 2.5-.6 3-1.7m-5.6-10c.6-1.5-1.3-2.5-3-2.2-.1 1.6.8 2.7 2.3 2.6m31.2-9.5c.2-.8 1-1.5 2.3-1.6.1 1-.2 2.3-.8 3.2-.4.1-.8.3-.9.4 1.4-.3 2.4.1 2.6 1.6-1.4.5-2.7.5-3.2-.7" class="st10"/><path d="M15.4 77.9c.5-.1 1.1-.1 1.6-.1-.2.8-.8 1.4-.5 2.3.4-.1.8 0 1.2-.1-.3.3-.3.8-.5 1 .2-.1.6-.1.8-.2-.9 2.2 1.4.4 1.9.1-.1 1-.5 1.8-.8 2.6.5-.1.9-.1 1.3-.4-.2 1.1.6 1.9 1.4.9-.1 1.1.9 1.4 1.3.5.1 1.2 1.3 1.1 1.5 0 .5.5 1 .6 1.3-.1.7.8 1.7.2 2.5-.4" class="st11"/><path d="M55.3 71.8c-1 1.8-1.7 1.5-2.4-.2-.5.5-2 2.8-2.6.9.5 2.1-1.8 1.8-3.1 2.1 1.2 1.4-.2 1.8-1.6 1.9 2 1.5-.2 2.9-2 2.1" class="st12"/><path d="M69.6 82.2c.6 1.5-.4 2.6-1.7 3.5-.7-.7-1.5-1.3-1.7-2.3-.3 1.1-.9 2.3-2.1 2.2 0-.6-.2-1.2-.3-1.7" class="st11"/><radialGradient id="SVGID_5_" cx="-6745.806" cy="-469.879" r="53.122" gradientTransform="matrix(.8275 -.07918 .0773 .8478 5730.582 -73.685)" gradientUnits="userSpaceOnUse"><stop offset="0" stop-color="#a6c96c"/><stop offset="1" stop-color="#769749"/></radialGradient><path fill="url(#SVGID_5_)" stroke="#769749" d="M101.4 100.1c-.9-1.8-3.3-.4-5-.5-.1-.9-.6-1.3-1.4-1.5.3-.2.4-.8.8-1.1-1.4-2.3-3.4-.3-5.4-.2 0-.3-.2-.8-.2-1.1-1.2.3-5.2-.8-4-2.4-.4-1.2-.4-2.5-.3-3.8-1.1-.1-1.8-.5-2.7-1-.8-.4-2.5-1-3.2-1.4-1.3-.9-1.1-2.7-2.9-3.4-.1-.4-.2-1-.1-1.4 1.8-.3 5.3.1 3.8-2.8 1.5-1.2 7.4-2.2 7.2.9 1.8.2 2.3-1.6 1.6-2.9 0-.1-1.5-.4-1.7-.5-.7-.4-.3-1.6-2-1.1-.2-.9-1.8-1.4-1.7-2.2.2-1.1 1.7-.9 2.3-1.4 2.1-1.9-1.5-1-1.1-3.8 2.2-1.7 4.6.4 7-.7.8 1.3 2.1.3 3.1-.3-.1 1.4.6 2 1.5 1.1.6.4 1.1.5 1.9.1 0 .3.1.6.1.9.4-.2 1.1 0 1.6-.3.1.3.3.6.4.9 2.9-.3 2.6-.9 1.8-3-.1-.2-.8-.3-1-.7-.2-.5.5-.7.4-1-.2-.7-.1-1.6-.2-2.4 3-.2 5.7-2 2.4-4.4.4 0 1-.2 1.4-.2 0-.5.3-.9.2-1.4 1.1-.5 2.4-.2 3.2-1.1.2.2.9.4 1.2.6.8-1.5 1.9-.5 2.8-1.7.5 0 1 0 1.6.1.8 1.4 2.2.1 3.5.4 1.4.3 2 2.1 3.6 1.1-.1.5.3 1.1.2 1.6 1.5.2 2.2-1.2 3.4-1.3 1.7-.1 1.9 1.5 3.3 2.1-.8.3-1.6.7-2.2 1.3.6.4 1.2 1 1.6 1.7-.4.2-.8.8-1.3.9.8 1.9 4.7 3.5 4.6 6.3-.1 1.5-1.8 1.8-1.4 3.1.5 1.5 3.2.7 4.2 0 .1-.1.8-1.4.9-1.5-.2.2 1.9-1.6 1.3-1.3.3-.1 1.6-.2 1.5-.1-.4.2 2.3-.3 1.7-.4 1 .2 2.2.5 3.6.6-.3 0 2.4.6 2.2.5.7.4 1.4.4 1.8 1.3-.5.3-.7 1.2-1.1 1.6.8.3 1.4.8 1.8 1.5-1.7.8-.4 2.6-1 4-.7 1.5-3.8 1.7-2.9 3.9 1.5-.1 3.2-.2 4.6-.6.1.3.1.6.2.9.3-.1.8 0 1.1 0 .6 1.9-1.4 1.3-1.9 2.6-.3.8.7 2.2.6 3.3-1.2.5-.8 1.5-1.4 2.4-.5.7-1.6 1.2-2.2 1.9-.2-.3-.6-.4-.8-.7-.7.8-1.5 2.9-2.3 3.4-.7.5-2.2.2-3.3.6-1.3.4-2.3 2-3.3 2.3-1.4.4-2.2-1.6-3.1.1-1.7-1.5-3 .6-4.6.8-1.4.2-2.4-1-3.6.4-1.5 1.6.1 2.3-2.6 2.5-.9.1-2.8-.8-3.5-.7-1.7.3-2.8 1.9-4.6 1.4-1.6-.4-2.5-2-3.8-2.6-1.7-.6-2.8.3-4.6.5-.7.1-.9.4-1.6.3-.5-.1-.6-.9-1.5-.8"/><path d="M90.8 83.3c-.5-.8-2-1.2-3-1.5-.2 1.2.9 1.6 1.8 1.9-1.3 0-3 .5-3.4 1.9 1.2.1 2.6.5 3.6-.4-.1.9-1.3 1.7-1.8 2.4 1.3 0 3.4.2 3.3-1.7m40.1 1.5c-.4 0-.7.1-1 0-.8-2.5.4-4.7 2.6-5.9.2 1.6.5 3.3.2 4.8 1.2-.8 2.4-1.7 3.7-2.3-.1 1.8-1.5 3.2-2.8 4.1 1.3-.4 2.6-1 3.7-1.3-.4 1.3-1.7 2.4-3.2 2.8m-7.5-10.2c.5-1.5.7-2.9.6-4.4-.5 0-.9.1-1.3.1-.2 1.2-.5 2.5-.9 3.6-.6-.6-1.9-1.2-2.5-1.9-.6 1.5-.1 2.9 1.3 3.5m-23.8 8.2c-2-.1-3.8 1.1-5 2.7 1.5-.1 3-.2 4.3-.8-.7 1.1-1.5 2.3-2 3.4 1.9-.1 3.2-1.5 3.9-3.2m1.2.6c0 1.5.9 2.7 2.3 2.6 0-.8 0-1.7-.2-2.5m-5.3-15.5c.8-1.3.8-2.7-.3-3.7-.2.8-1 2.3-1.1 3.1-.9-.7-2-1.3-3-1.8-.9 2.1.7 3.8 2.8 3.6m2.5.9c.3-1.2 1-1.9 2.3-2 .6 1.6.1 2.8-1.5 3m15.5-9.5c-1.7 0-2.6-1.5-2.7-3 1.3.1 2.5.9 3.4 2-.5-1.6-.1-3.1 1.4-3.6.7 1.5 1.1 3.3.3 4.7 1.4-.3 1.9 0 3 .4-.7.3-1.5.8-2.3.9m-8.2-6.7c.5-1.2.1-2.4-1-3.2-.2.8-.7 1.3-.5 2.6-1-.1-2.1.5-3.1.4.6 1.3 2.1 1.8 3.6 1.4m6.2 24.2c-1.3.6-2.3 1.7-2.5 3.1 1.4.1 2.5-.6 3.3-1.7-.1.7.4 1.7.3 2.4 1.5 0 1.9-1 1.6-2.5 1.6 4.4 5.3-.9 1.1-2.4m-7.3 6.2c-1.3.3-2.1 1-2.2 2.3 1.3.1 2.5-.6 3-1.7m-5.5-10c.6-1.5-1.3-2.5-3-2.2-.1 1.6.8 2.7 2.3 2.6m31.2-9.5c.2-.8 1-1.5 2.3-1.6.1 1-.2 2.3-.8 3.2-.4.1-.8.3-.9.4 1.4-.3 2.4.1 2.6 1.6-1.4.5-2.7.5-3.2-.7" class="st10"/><path d="M89.8 77.9c.5-.1 1.1-.1 1.6-.1-.2.8-.8 1.4-.5 2.3.4-.1.8 0 1.2-.1-.3.3-.3.8-.5 1 .2-.1.6-.1.8-.2-.9 2.2 1.4.4 1.9.1-.1 1-.5 1.8-.8 2.6.5-.1.9-.1 1.3-.4-.2 1.1.6 1.9 1.4.9-.2 1 .8 1.3 1.2.4.1 1.2 1.3 1.1 1.5 0 .5.5 1 .6 1.3-.1.7.8 1.7.2 2.5-.4" class="st11"/><path d="M129.8 71.8c-1 1.8-1.7 1.5-2.4-.2-.5.5-2 2.8-2.6.9.5 2.1-1.8 1.8-3.1 2.1 1.2 1.4-.2 1.8-1.6 1.9 2 1.5-.2 2.9-2 2.1" class="st12"/><path d="M144 82.2c.6 1.5-.4 2.6-1.7 3.5-.7-.7-1.5-1.3-1.7-2.3-.3 1.1-.9 2.3-2.1 2.2 0-.6-.2-1.2-.3-1.7" class="st11"/><radialGradient id="SVGID_6_" cx="-6660.972" cy="-463.984" r="53.122" gradientTransform="matrix(.8275 -.07918 .0773 .8478 5730.582 -73.685)" gradientUnits="userSpaceOnUse"><stop offset="0" stop-color="#a6c96c"/><stop offset="1" stop-color="#769749"/></radialGradient><path fill="url(#SVGID_6_)" stroke="#769749" d="M172.1 98.4c-.9-1.8-3.3-.4-5-.5-.1-.9-.6-1.3-1.4-1.5.3-.2.4-.8.8-1.1-1.4-2.3-3.4-.3-5.4-.2 0-.3-.2-.8-.2-1.1-1.2.3-5.2-.8-4-2.4-.4-1.2-.4-2.5-.3-3.8-1.1-.1-1.8-.5-2.7-1-.8-.4-2.5-1-3.2-1.4-1.3-.9-1.1-2.7-2.9-3.4-.1-.4-.2-1-.1-1.4 1.8-.3 5.3.1 3.8-2.8 1.5-1.2 7.4-2.2 7.2.9 1.8.2 2.3-1.6 1.6-2.9 0-.1-1.5-.4-1.7-.5-.7-.4-.3-1.6-2-1.1-.2-.9-1.8-1.4-1.7-2.2.2-1.1 1.7-.9 2.3-1.4 2.1-1.9-1.5-1-1.1-3.8 2.2-1.7 4.6.4 7-.7.8 1.3 2.1.3 3.1-.3-.1 1.4.6 2 1.5 1.1.6.4 1.1.5 1.9.1 0 .3.1.6.1.9.4-.2 1.1 0 1.6-.3.1.3.3.6.4.9 2.9-.3 2.6-.9 1.8-3-.1-.2-.8-.3-1-.7-.2-.5.5-.7.4-1-.2-.7-.1-1.6-.2-2.4 3-.2 5.7-2 2.4-4.4.4 0 1-.2 1.4-.2 0-.5.3-.9.2-1.4 1.1-.5 2.4-.2 3.2-1.1.2.2.9.4 1.2.6.8-1.5 1.9-.5 2.8-1.7.5 0 1 0 1.6.1.8 1.4 2.2.1 3.5.4 1.4.3 2 2.1 3.6 1.1-.1.5.3 1.1.2 1.6 1.5.2 2.2-1.2 3.4-1.3 1.7-.1 1.9 1.5 3.3 2.1-.8.3-1.6.7-2.2 1.3.6.4 1.2 1 1.6 1.7-.4.2-.8.8-1.3.9.8 1.9 4.7 3.5 4.6 6.3-.1 1.5-1.8 1.8-1.4 3.1.5 1.5 3.2.7 4.2 0 .1-.1.8-1.4.9-1.5-.2.2 1.9-1.6 1.3-1.3.3-.1 1.6-.2 1.5-.1-.4.2 2.3-.3 1.7-.4 1 .2 2.2.5 3.6.6-.3 0 2.4.6 2.2.5.7.4 1.4.4 1.8 1.3-.5.3-.7 1.2-1.1 1.6.8.3 1.4.8 1.8 1.5-1.7.8-.4 2.6-1 4-.7 1.5-3.8 1.7-2.9 3.9 1.5-.1 3.2-.2 4.6-.6.1.3.1.6.2.9.3-.1.8 0 1.1 0 .6 1.9-1.4 1.3-1.9 2.6-.3.8.7 2.2.6 3.3-1.2.5-.8 1.5-1.4 2.4-.5.7-1.6 1.2-2.2 1.9-.2-.3-.6-.4-.8-.7-.7.8-1.5 2.9-2.3 3.4-.7.5-2.2.2-3.3.6-1.3.4-2.3 2-3.3 2.3-1.4.4-2.2-1.6-3.1.1-1.7-1.5-3 .6-4.6.8-1.4.2-2.4-1-3.6.4-1.5 1.6.1 2.3-2.6 2.5-.9.1-2.8-.8-3.5-.7-1.7.3-2.8 1.9-4.6 1.4-1.6-.4-2.5-2-3.8-2.6-1.7-.6-2.8.3-4.6.5-.7.1-.9.4-1.6.3-.5-.1-.6-.9-1.5-.8"/><path d="M161.5 81.6c-.5-.8-2-1.2-3-1.5-.2 1.2.9 1.6 1.8 1.9-1.3 0-3 .5-3.4 1.9 1.2.1 2.6.5 3.6-.4-.1.9-1.3 1.7-1.8 2.4 1.3 0 3.4.2 3.3-1.7m40.1 1.5c-.4 0-.7.1-1 0-.8-2.5.4-4.7 2.6-5.9.2 1.6.5 3.3.2 4.8 1.2-.8 2.4-1.7 3.7-2.3-.1 1.8-1.5 3.2-2.8 4.1 1.3-.4 2.6-1 3.7-1.3-.4 1.3-1.7 2.4-3.2 2.8m-7.5-10.2c.5-1.5.7-2.9.6-4.4-.5 0-.9.1-1.3.1-.2 1.2-.5 2.5-.9 3.6-.6-.6-1.9-1.2-2.5-1.9-.6 1.5-.1 2.9 1.3 3.5m-23.8 8.2c-2-.1-3.8 1.1-5 2.7 1.5-.1 3-.2 4.3-.8-.7 1.1-1.5 2.3-2 3.4 1.9-.1 3.2-1.5 3.9-3.2m1.2.6c0 1.5.9 2.7 2.3 2.6 0-.8 0-1.7-.2-2.5m-5.3-15.5c.8-1.3.8-2.7-.3-3.7-.2.8-1 2.3-1.1 3.1-.9-.7-2-1.3-3-1.8-.9 2.1.7 3.8 2.8 3.6m2.5.9c.3-1.2 1-1.9 2.3-2 .6 1.6.1 2.8-1.5 3m15.5-9.5c-1.7 0-2.6-1.5-2.7-3 1.3.1 2.5.9 3.4 2-.5-1.6-.1-3.1 1.4-3.6.7 1.5 1.1 3.3.3 4.7 1.4-.3 1.9 0 3 .4-.7.3-1.5.8-2.3.9m-8.2-6.7c.5-1.2.1-2.4-1-3.2-.2.8-.7 1.3-.5 2.6-1-.1-2.1.5-3.1.4.6 1.3 2.1 1.8 3.6 1.4m6.1 24.2c-1.3.6-2.3 1.7-2.5 3.1 1.4.1 2.5-.6 3.3-1.7-.1.7.4 1.7.3 2.4 1.5 0 1.9-1 1.6-2.5 1.6 4.4 5.3-.9 1.1-2.4m-7.2 6.2c-1.3.3-2.1 1-2.2 2.3 1.3.1 2.5-.6 3-1.7m-5.6-10c.6-1.5-1.3-2.5-3-2.2-.1 1.6.8 2.7 2.3 2.6m31.2-9.6c.2-.8 1-1.5 2.3-1.6.1 1-.2 2.3-.8 3.2-.4.1-.8.3-.9.4 1.4-.3 2.4.1 2.6 1.6-1.4.5-2.7.5-3.2-.7" class="st10"/><path d="M160.5 76.1c.5-.1 1-.1 1.5-.1-.2.8-.8 1.4-.5 2.3.4-.1.8 0 1.2-.1-.3.3-.3.8-.5 1 .2-.1.6-.1.8-.2-.9 2.2 1.4.4 1.9.1-.1 1-.5 1.8-.8 2.6.5-.1.9-.1 1.3-.4-.2 1.1.6 1.9 1.4.9-.1 1.1.9 1.4 1.3.5.1 1.2 1.3 1.1 1.5 0 .5.5 1 .6 1.3-.1.7.8 1.7.2 2.5-.4" class="st11"/><path d="M200.4 70c-1 1.8-1.7 1.5-2.4-.2-.5.5-2 2.8-2.6.9.5 2.1-1.8 1.8-3.1 2.1 1.2 1.4-.2 1.8-1.6 1.9 2 1.5-.2 2.9-2 2.1" class="st12"/><path d="M214.7 80.5c.6 1.5-.4 2.6-1.7 3.5-.7-.7-1.5-1.3-1.7-2.3-.3 1.1-.9 2.3-2.1 2.2 0-.6-.2-1.2-.3-1.7" class="st11"/><path d="M207.1 119.8c.2-.6.2-1.4-.5-1.8-.4.6 0 1.4.5 1.8" class="st15"/><path d="M206.6 121.8s.6-4.4 3-5.9" class="st16"/><path d="M210.5 114.3c-.3-.4-.5-1.1-1-1.2-.7-.1-.3.4-.5.7-.2.3-.9.3-.6.9.3.5.9.1 1.3.2-.3.3-1.2.2-1.2.6-.1.3.1.2.3.4.3.2.3.1.5.4.2.3.3.6.8.3.3-.2.5-.7.5-1 .1.3-.2 1.2.1 1.4.3.2.7-.1.8-.3.4 0 .9.2 1.1-.3.1-.5-.4-1-.9-1.2.3.1 1.1.5 1.4.3.3-.2 0-.4.1-.7.1-.3.4-.3.2-.6-.1-.2-.3-.3-.6-.3-.4 0-.8.3-1.1.5.2-.3.9-1 .6-1.3-.2-.3-.4-.2-.6-.2 0 0-.2.2-.3.2-.2 0-.1-.2-.3-.3-.4-.2-.9-.2-.9.4-.2.4.2.8.3 1.1" class="st17"/><circle cx="210.6" cy="114.8" r=".5" class="st18"/><use width="41" height="63.3" x="-20.5" y="-31.7" overflow="visible" transform="matrix(.1711 0 0 -.1633 192.655 94.12)" xlink:href="#flower"/><path d="M192.9 98.2c-.6-.2-1.4-.3-1.8.3.5.4 1.3.2 1.8-.3" class="st15"/><path d="M194.9 98.9s-4.3-1.1-5.5-3.6" class="st16"/><path d="M187.8 94.3c-.4.3-1.2.4-1.3.9-.1.7.4.3.7.6.3.3.2.9.8.7.5-.2.2-.8.3-1.3.2.3.1 1.2.5 1.3.3.1.2-.1.4-.3.2-.3.1-.2.4-.4.3-.2.6-.3.4-.8-.2-.3-.7-.5-1-.6.3 0 1.1.3 1.4.1.2-.3 0-.7-.2-.8 0-.4.3-.9-.2-1.1-.4-.2-1.1.3-1.2.7.2-.3.6-1 .4-1.3-.2-.3-.4 0-.7-.1-.3-.1-.2-.4-.6-.3-.2.1-.3.3-.3.5-.1.4.2.8.4 1.2-.3-.2-.9-1-1.3-.8-.3.1-.2.4-.2.6 0 0 .2.2.1.3 0 .2-.2.1-.3.2-.3.4-.3.9.3 1 .4.1.9-.3 1.2-.3" class="st17"/><circle cx="188.3" cy="94.2" r=".5" class="st18" transform="rotate(-83.967 188.331 94.152)"/><path d="M9.1 100.1c.2-.6.2-1.4-.5-1.8-.4.6 0 1.4.5 1.8" class="st15"/><path d="M8.6 102.2s.6-4.4 3-5.9" class="st16"/><path d="M12.5 94.6c-.3-.4-.5-1.1-1-1.2-.7-.1-.3.4-.5.7-.2.3-.9.3-.6.9.3.5.9.1 1.3.2-.3.3-1.2.2-1.2.6-.1.3.1.2.3.4.3.2.3.1.5.4.2.3.3.6.8.3.3-.2.5-.7.5-1 .1.3-.2 1.2.1 1.4.3.2.7-.1.8-.3.4 0 .9.2 1.1-.3.1-.5-.4-1-.9-1.2.3.1 1.1.5 1.4.3.3-.2 0-.4.1-.7.1-.3.4-.3.2-.6-.1-.2-.3-.3-.6-.3-.4 0-.8.3-1.1.5.2-.3.9-1 .6-1.3-.2-.3-.4-.2-.6-.2 0 0-.2.2-.3.2-.2 0-.1-.2-.3-.3-.4-.2-.9-.2-.9.4-.2.4.2.8.3 1.1" class="st17"/><circle cx="12.6" cy="95.2" r=".5" class="st18"/><use width="41" height="63.3" x="-20.5" y="-31.7" overflow="visible" transform="matrix(.1711 0 0 -.1633 24.216 118.954)" xlink:href="#flower"/><path d="M19.8 89.3c-.6-.2-1.4-.3-1.8.3.5.5 1.3.2 1.8-.3" class="st15"/><path d="M21.7 90s-4.3-1.1-5.5-3.6" class="st16"/><path d="M14.7 85.4c-.4.3-1.2.4-1.3.9-.1.7.4.3.7.6.3.3.2.9.8.7.5-.2.2-.8.3-1.3.2.3.1 1.2.5 1.3.3.1.2-.1.4-.3.2-.3.1-.2.4-.4.3-.2.6-.3.4-.8-.2-.3-.7-.5-1-.6.3 0 1.1.3 1.4.1.2-.3 0-.7-.2-.8 0-.4.3-.9-.2-1.1-.4-.2-1.1.3-1.2.7.2-.3.6-1 .4-1.3-.2-.3-.4 0-.7-.1-.3-.1-.2-.4-.6-.3-.2.1-.3.3-.3.5-.1.4.2.8.4 1.2-.3-.2-.9-1-1.3-.8-.3.1-.2.4-.2.6 0 0 .2.2.1.3 0 .2-.2.1-.3.2-.3.4-.3.9.3 1 .4.1.9-.3 1.2-.3" class="st17"/><circle cx="15.2" cy="85.3" r=".5" class="st18" transform="rotate(-83.967 15.223 85.286)"/><linearGradient id="SVGID_7_" x1="62.295" x2="82.274" y1="112.468" y2="112.468" gradientUnits="userSpaceOnUse"><stop offset="0" stop-color="#b99a6f"/><stop offset="1" stop-color="#df9643"/></linearGradient><path fill="#f8f7f6" stroke="url(#SVGID_7_)" stroke-width=".25" d="M66.8 105.8c-1.3 1.4-1.6 2.8-2.5 4.5-1.1 2.1-1.8 4.4-1.7 6.8 0 1-.6 2.3.1 3 .3.3.7.6 1.1.8 3 1.6 6.4 2.4 9.7 3.2 1.2.3 2.6.6 3.7-.1.6-.4 4-.2 4.2-1.3-.2-1.1-.3-2.3 0-3.4.2-.6.5-1.2.6-1.8s0-1.4-.6-1.7c0-.5-.3-1-.7-1.3l-1.2-.9c-1.1-.9 1.9-7 1.3-8.2-.5-1-.2-2.5-.6-3.6-.2-.6-.3.8-.6.3s-.6-.8-.9-1.3c-.4-.8-4.8 1.3-5.8 1-.7-.2-1.5.3-2.1.6-1.4.7-2.7 2.1-4 3.4z"/><linearGradient id="SVGID_8_" x1="76.548" x2="89.681" y1="111.442" y2="111.442" gradientUnits="userSpaceOnUse"><stop offset="0" stop-color="#b99a6f"/><stop offset="1" stop-color="#df9643"/></linearGradient><path fill="#f8f7f6" stroke="url(#SVGID_8_)" stroke-width=".25" d="M88.6 101.9c.1.3-.2.5-.5.6.1 0 .3.1.4.1v.3c.1.1.2.1.3.2.1.4 0 .8-.2 1.1.1 0 .3.1.4.1 0 .6-.1 1.1-.1 1.7.3-.1.5.3.5.6s-.3.5-.5.7c.1 0 .2.1.3.1-.1.1-.2.3-.3.4.2 0 .3.1.5.1-.2.4-.5.8-.9 1 .1.1.2.1.3.1-.5.6-.6 1.5-1.2 2-.3.3-.9.5-.8.9-.4.2-.8.3-1.1.6s-.5.7-.4 1.2c0 .1.1.2.1.3 0 .2-.2.3-.3.4-.1.2.2.4.2.2-.1.2-.3.5-.1.7 0 .1.1.1.2.1.2.2-.1.5-.1.8 0 .3.2.5.3.8.2.2.2.6 0 .8.2 0 .3.1.3.3v.5c0 .3.2.5.2.8.1.4 0 .8 0 1.3-.1.6-.2 1.2-.3 1.9 0 .3-.1.6-.4.7-.2.1-.4 0-.6-.1-.7-.4-1.4-.7-2.1-1.1-.2-.1-.4-.2-.5-.4-.2-.3-.1-.8 0-1.2.3-1.5.3-3-.2-4.4-.1-.2-.1-.3-.3-.4-.1 0-.2-.1-.2-.2s.2 0 .1 0h-.5c-.1-.3-.2-.7-.4-1-.5.1-.9-.7-1.3-.5v-.4h-.3c0-.3-.2-.6-.5-.6.1-.3-.1-.6-.4-.6l.2-.2c-.1-.1-.2-.1-.3-.1.1-.2-.1-.5-.3-.7.1-.2.1-.4 0-.6-.1-.3-.3-.6-.4-.9-.1-.3-.1-.6 0-1 0-.1.1-.3 0-.4-.1-.1-.3-.2-.3-.3 0-.2.2-.3.1-.4 0-.1-.2-.1-.3-.2-.1-.2.2-.4.1-.6 0-.1-.2-.2-.2-.3 0-.1.1-.2 0-.4 0-.1-.1-.2-.2-.3-.3-.3-.2-.8 0-1.1.3-.3.7-.5 1.1-.6-.2-.3-.4-.5-.6-.8.5-.2.9-.4 1.4-.3.2 0 .5.1.7 0 .7 0 1.3-.6 2-.9 1.1-.5 2-.7 3-1.5.2-.2.4-1 .8-1 .2 0 1.3 1.2 1.6 1.2.3 0 .6-.1 1-.1v.5c.1 0 .3.1.4.1.3.2.5.2.6.4z"/><path fill="#f8f7f6" stroke="#8a6738" stroke-width=".25" d="M87.9 111.6c.1.1.3.2.5.2-.1.1-.1.2-.2.2.1 0 .2.1.4.1-.2.2-.4.4-.5.6.1.1.2.1.4.2l-.3.3c.1.1.1.2.2.2-.3 0-.4.4-.3.6.1.3.2.5.3.7v.5c0 .7.2 1.4.6 1.9-.2.2-.3.4-.3.7.1 0 .3 0 .4.1-.2.1-.2.3-.2.5s.2.3.2.5c.1.3 0 .5 0 .8-.1.4-.2.9-.5 1.2-.3.3-.8.5-1.2.3-.3-.2-.4-.5-.4-.9-.2-1-.5-2-.7-3 0-.2-.1-.4-.2-.6-.2-.3-.5-.5-.8-.8-.2-.3-.3-.6-.4-1-.1-.9.2-1.8.8-2.5.5-.5 1.2-.8 1.8-1.3.7-.6.8-.5 1.5.2-.5 0-.8.1-1.1.3z"/><path d="M70.6 94.7c-.2.2-.4.4-.7.5-.6.4-1.4.4-2.1.6-2.2.4-4.1 2.1-4.8 4.2-.1.4-.2.9.1 1.2.2.2.5.2.7.2.8 0 1.5-.3 2.3-.6 1.9-.7 3.7-1.4 5.7-1.8.1 0 .2 0 .3-.1 0-.1.1-.1.1-.2.2-.6.4-1.2.6-1.9.2-.6.5-1.4.4-2-.1-.9-2-.5-2.6-.1z" class="st22"/><linearGradient id="SVGID_9_" x1="63.733" x2="70.474" y1="98.723" y2="98.723" gradientUnits="userSpaceOnUse"><stop offset="0" stop-color="#b99a6f"/><stop offset="1" stop-color="#df9643"/></linearGradient><path fill="#edcf9b" stroke="url(#SVGID_9_)" stroke-width=".25" d="M63.8 100.4c2.1-1 4.2-2 6.3-3.1.8-.4-.6-.2-.8-.2-.7.2-1.3.5-2 .8-1.3.7-2.5 1.5-3.5 2.5z"/><path d="M70.7 96.1c-.2.1-.3.2-.5.3.3 0 .5.1.8.1 0 .2-.1.3-.2.4.4.2.3.8.1 1.1-2.6.3-4.8 2.2-7.3 2.5 0-.5.5-.8 1-1.1s1-.5 1.1-1c-.4-.1-.9 0-1.3.3s-.7.6-1 1c-.3.4-.6 1-.2 1.4.3.2.7.2 1 .1 2.4-.6 4.8-1.3 7.2-1.9.4-.1.9-.2 1.1-.6-.4-.3-.8-.7-.6-1.1.1-.1.1-.2.2-.3.2-.4-.3-.7-.1-1.1-.6-.5-1.1-.4-1.8-.2 0 .1.4.2.5.1zm9 21.6c0-.1-.1-.2-.1-.3-.1 0-.2.1-.3.1.1-.4.3-.8.4-1.2-.2 0-.4.1-.5.3v-.3c-.2.1-.3.2-.5.2.1-.4.2-.7.2-1.1-.1-.1-.2 0-.3.1-.1.1-.2.1-.2.1v-.2c-.5.3-.9.6-1.3 1-.1-.3-.2-.6-.1-1 .1-.3.5-.5.8-.5-.4.2-.9.4-1.3.7.1-.1.2-.2.2-.3-.2-.1-.4-.1-.6-.2.5-.3 1.1-.7 1.6-1l.1-.1c.1-.1-.1-.3-.2-.3s-.3.1-.4.1c-.4.2-.8.5-1.2.9.3-.4.5-.8.8-1.2h-.6v-.4c-.4.2-.8.4-1.1.5v-.4h-.4l.4-.4-1.2.3c0-.5-.2-1.1-.6-1.2-.2-.2.2-.5.3-.7 0-.3-.3-.4-.6-.4.1-.2.2-.5.4-.6-.2 0-.4-.1-.6-.1.2-.2.4-.4.5-.6-.1 0-.3-.1-.4-.1.1-.1.2-.3.3-.4-.1 0-.3-.1-.4-.1.2-.3.4-.6.5-1-.1-.1-.3-.1-.4-.2.1-.3.1-.7.2-1-.1 0-.2 0-.3-.1.3 0 .3-.4.2-.7s-.1-.7.2-.7c-.2 0-.3 0-.5-.1-.2-.2-.2-.5-.1-.7.1-.2.3-.4.6-.5-.2.4-.1.9.1 1.2.1.1.2.2.2.3.1.1.1.3.1.4.1 1.9.4 3.8.8 5.6.1.3.1.5.3.8.1.2.3.4.5.6 1 .7 2.6.6 3.4-.4 0 .4 0 .8.1 1.2.4 0 .8 0 1.2.2.2.1.4.4.6.6.5.7 1.4 1.6 1.2 2.5 0 .2-.8 1.4-.8.7-.1.2-.3.3-.6.3.5-.5-.4-.8-.6-.2z" class="st24"/><path d="M83.9 101.8c.4-.1.8-.3 1.2-.3-.1.3 0 .7.2.8s.7-.2.5-.5c.3-.1.5-.1.8 0-.1.2-.3.5-.4.7.1 0 .3 0 .4-.1-.2.5-.4.9-.8 1.2.2 0 .4 0 .6.1.1 0 .1 0 .2.1.1.2-.1.3-.2.5s0 .5.3.5l-.3.6c.1 0 .2 0 .3.1-.1.1-.2.3-.3.4h.3c-.2.1.1.4.2.4.2 0 .4.1.4.3 0 .2-.2.3-.2.5.2.1.4.1.6.2-.3.2-.1.8-.2 1.2-.1.6-.9.7-1.5.8.1 0 .3.1.3.2-.2 0-.5.2-.5.5s0 .5.2.7c-.1 0-.2.1-.3.2-.1-.3-.3-.6-.6-.7-.3-.1-.7 0-.7.3-.1-.2-.3-.3-.5-.4-.2-.1-.5 0-.6.2-.1.3.1.5.2.8 0 .2-.1.4-.1.5 0 .2.2.4.3.6.1.2.1.5 0 .6-.2.1-.4 0-.5-.2s-.1-.4-.1-.6c0 .3-.1.6-.1.9-.1-.1-.1-.2-.2-.3l-.3.3c-.1-.1-.1-.3-.2-.4-.2.1-.3.2-.5.3-.2-.2-.3-.6-.4-.9-.1-.3-.3-.6-.6-.6 0-.3-.2-.6-.4-.7-.3 0-.5.3-.6.5-.3.6-.5 1.3-.5 2l-.9-.9c-.7-1-1-2.2-1-3.5 0-.3 0-.6-.1-.9-.1-.2-.2-.4-.3-.5-.4-.6-.6-1.4-.2-2.1.1-.2.2-.3.3-.5.2-.4 0-1 .4-1.3.1-.1.3-.2.4-.3.1-.1.2-.3.1-.4.7.1 1.5-.1 2.2-.4.8-.3 1.7-.7 2.5-1 .1 0 .2-.1.3-.1.2 0 .3.2.5.2.4.5.4.6.4.4zm-18.5 8.8c0 .2 0 .3.1.5.3-3.3 2.3-6.4 5.2-8.1.3-.1.5-.3.6-.6-1.2.4-2.3 1.2-3 2.3-.4.5-.6 1-1 1.5-.3.3-.7.6-.9 1-1 1.3-.5 3.1-.9 4.6" class="st24"/><linearGradient id="SVGID_10_" x1="71.506" x2="88.258" y1="101.698" y2="101.698" gradientUnits="userSpaceOnUse"><stop offset="0" stop-color="#b99a6f"/><stop offset="1" stop-color="#df9643"/></linearGradient><path fill="#f8f7f6" stroke="url(#SVGID_10_)" stroke-width=".25" d="M87.4 94.9s0-.1-.1-.1l-.6-1.2c-.5-.6-1.1-1.1-1.8-1.5-1.5-1-3.2-2-5-2.1-1.3-.1-2.7.4-3.6 1.3-.3.3-.5.6-.9.8-.3.2-.6.2-.8.4s-.4.5-.3.8c-.4 0-.7.2-.9.5-.3.3-.6.7-.9 1-.2.3-.4.5-.6.8.1 0 .1.4-.2.4 0 .2.2.5.3.7-.2.1-.3.4-.1.4-.2.2-.3.4-.3.6.5.2.7.9.4 1.3.1 0 .2.1.3.1 0 .2-.1.4-.1.6.4 0 .7.4.4.7.2-.1.3.3.3.5 0 .8 0 1.5.2 2.3.1.5.1.9 0 1.4-.1.5.6 1 .7 1.5.1 1.6.2 3.3.3 4.9 0 .3 0 .7.2 1 .4 1.1 1.8 1.5 2.9 1.5.2 0 .4 0 .6-.1.2-.1.4-.4.5-.6.9-2.2.9-4.8-.1-6.9-.3-.8-.8-1.5-1-2.4-.2-.9 0-1.9-.1-2.8 0 .9.2 1.8.5 2.6 1.9-.2 3.8-.5 5.5-1.3.6-.3 1.1-.6 1.5-1.1.2-.3.5-.6.7-.8.7-.7 2-.8 2.5-1.7.7-1.2 0-2.6-.4-3.5z"/><path d="M84.5 94.9c-.2.4-.3.8-.6 1.2-.2.2-.5.3-.6.6-.3.5.2 1.1.1 1.6-.2.2-.4.5-.4.7-.3.8.5 1.6.5 2.4.4 0 .7-.4.9-.7.2-.3.4-.7.8-.9.1-.1.3-.1.4-.2s.2-.3.2-.4c-.1-.2-.4-.2-.6-.3-.4-.1-.6-.6-.7-1-.1-.2-.1-.5-.1-.7.1-.2.2-.4.4-.6s.2-.4.1-.6c.6 0 1.1-.7.9-1.2.1-.3.5-.3.7-.3s.6.1.8-.1c-1-.5-2.2-.6-2.8.5z" class="st24"/><path fill="#161720" d="M80.5 94.6c-.2-.3-.5-.5-.8-.7s-.7-.1-1 .1c-.3.2-.4.6-.4.9 0 .3 0 .6.2.9.2.3.5.4.8.4.2 0 .3-.1.5-.2.5-.2 1-.3 1.5-.4-.3-.3-.5-.6-.8-1z"/><path d="M81 92.7c-.2-.4-.4-.7-.5-1.1-.1.5-.1 1-.2 1.5-.1-.5-.4-.9-.8-1.2.1.3.2.6.5.8-.4-.2-.9-.4-1.3-.6 0 .3.2.6.5.7l-1.2-.3c.1.2.3.3.4.4-.3 0-.7 0-1 .1.1 0 .3.1.3.3.2-.1.4-.1.5-.2.3-.1.6-.2.9-.1.5 0 .8.6 1.2.6.4.1.2-.3.3-.6.2-.5 1-.9.3-1.4-.1.3 0 .7.1 1.1zm-4.4 6.5c-.1-.6.2-1.3.7-1.7-.4 0-.8.3-1 .7-.2.4-.3.8-.2 1.2.1.2.2.5.4.6.2.1.3.2.5.2s.4.1.5.1c-.4-.1-.8-.6-.9-1.1zm3.9-2.6c.5-.1 1.1-.1 1.5-.3-1.1-.2-2.2.2-3.1.7-.2.1-.5.3-.6.5.2.1 1.7-.8 2.2-.9z" class="st24"/><linearGradient id="SVGID_11_" x1="58.861" x2="63.386" y1="117.63" y2="117.63" gradientUnits="userSpaceOnUse"><stop offset="0" stop-color="#b99a6f"/><stop offset="1" stop-color="#df9643"/></linearGradient><path fill="#f8f7f6" stroke="url(#SVGID_11_)" stroke-width=".25" d="M62.6 116.9c0-.4 0-.8-.2-1.2s-.6-.6-.9-.6c-.2 0-.3.1-.5.2-.4.1-1 .1-1.2.5-.2.4.1.9-.2 1.2-.1.2-.4.2-.5.4-.4.4 0 1 0 1.5.3.3.8.5 1.2.5.1.4.4.7.7.7h.5c.3 0 .6-.1.9-.1.1 0 .3 0 .4-.1.2-.2.3-.5.2-.8l-.3-.9c-.1-.4.1-.9.2-1.3s-.2-1-.7-1"/><linearGradient id="SVGID_12_" x1="85.262" x2="87.829" y1="95.733" y2="95.733" gradientUnits="userSpaceOnUse"><stop offset="0" stop-color="#b99a6f"/><stop offset="1" stop-color="#df9643"/></linearGradient><path fill="#edcf9b" stroke="url(#SVGID_12_)" stroke-width=".25" d="M86.7 94.6c-.4-.2-1.1 0-1.3.4-.2.4 0 1.1.4 1.3.2.1.4.1.6.2.4.1.7.4.8.8.2-.1.3-.4.3-.6 0-.6 0-1.3-.4-1.9-.4-.5-1.3-.6-1.7-.1"/><linearGradient id="SVGID_13_" x1="126.489" x2="130.265" y1="102.743" y2="102.743" gradientTransform="rotate(-1.83 99.788 1667.86) scale(1.00001)" gradientUnits="userSpaceOnUse"><stop offset="0" stop-color="#b99a6f"/><stop offset="1" stop-color="#df9643"/></linearGradient><path fill="#edcf9b" stroke="url(#SVGID_13_)" stroke-width=".25" d="M78.2 103.6c.2.7.5 1.3.8 2 .4.6.9 1.1 1.2 1.7-.5-1.5-.9-3-1.4-4.6-.2-.6-1.3-5.1-2.3-4.6-.5.2 1.5 4.9 1.7 5.5z"/><path d="M74.6 95.2c-1.3.1-2.1 1.3-2.2 2.4-.1 1.1.3 2.3.6 3.4.7 3 .2 6.3 1.4 9.1.3.7.8 1.4 1.5 1.9s1.7.7 2.5.4c1.2-.5 1.6-1.8 1.6-3 .2-3.6-1.3-7-2.7-10.3-.4-.8-.7-1.7-1.4-2.3-.7-.6-1.7-1-2.6-.7-1.1.3-1.6 1.6-1 2.5" class="st22"/><path fill="#f8f7f6" d="M74.8 95.7c-.5-.1-1 .5-.9 1 .1.3.3.5.5.7.5.3 1 .5 1.6.5.3 0 .6-.1.8 0 .3.1.5.4.3.6.1 0 .1-.1.2-.1"/><path d="M76.8 97.2c-.7-.3-1.3-.8-1.8-1.3-.3-.3-.6-.7-1-.6.4 1.3 1.8 2.3 3.2 2.3" class="st24"/><linearGradient id="SVGID_14_" x1="3882.345" x2="3887.1" y1="94.877" y2="94.877" gradientTransform="matrix(-1 0 0 1 4000.127 0)" gradientUnits="userSpaceOnUse"><stop offset="0" stop-color="#f9ebc4"/><stop offset=".327" stop-color="#f7e4b6"/><stop offset=".942" stop-color="#f2d392"/><stop offset="1" stop-color="#f2d18e"/></linearGradient><path fill="url(#SVGID_14_)" d="M113.9 93.2c0 .9-.4 1.8-.8 2.5.9.1 3.1 1.3 3.8 1 1-.3.8-2 1-3-1.2-.4-2.5-.3-3.7-.7"/><path d="M118.3 86.7c-2.8-.2-4.3 4.7-5.6 6.6 2.5 1.1 5.2 1.1 7.6 1.9.1-2 2-6 .4-7.7" class="st32"/><path d="M127.4 112.9c-2.5-.9-5.8 0-8.2-1.6.9.9.9 2 1.3 3.2-2.1-.6-5.2-1.6-5.7 1.7-.5 2.9 2.3 3.1 4.6 3.5 2.2.3 5.5 1 7.5-.3 1.6-1.1.9-4.6.6-6.4" class="st33"/><path d="M133.6 78.3c3.6 1.4 3.4 1.7 6.1 6.4 2.3 4.1 5.3 16.4 6.6 20.8-4.6.3-13.2-1-17.8-1.3-3.8-.3-5.2 1.5-8.9.7-1.7-.4-2.8-.3-3.2-2.1-.4-1.8.6-4.6.7-6.5.2-3.9-.1-7.8.7-11.6 2.9-.2 6.3-2.6 9.1-3.6 2.4-.9 6.2-1.3 8-3" class="st32"/><path d="M122.8 98.5c-1.5-.3-2.7-1.7-4.3-2.1-1.5-.3-3.4.1-4.8.7-3.8 1.5-2.3 5.6-1 8.4 1.2 2.5 2.8 5.5 4.9 7.3 1.4 1.2 6.5 4 8.2 2.7.9-.7 1.9-3.7 2.6-4.8 1.7-2.5 2.2-8.7-.8-10.3" class="st34"/><linearGradient id="SVGID_15_" x1="3882.836" x2="3890.155" y1="97.486" y2="97.486" gradientTransform="matrix(-1 0 0 1 4000.127 0)" gradientUnits="userSpaceOnUse"><stop offset="0" stop-color="#f9ebc4"/><stop offset=".327" stop-color="#f7e4b6"/><stop offset=".942" stop-color="#f2d392"/><stop offset="1" stop-color="#f2d18e"/></linearGradient><path fill="url(#SVGID_15_)" d="M117.1 96.1c-1.3-1.3-3.8-1.6-5.5-.9-1.6.7-2.4 4.3-.5 5 .5-.5.8-1.2 1.2-1.7.2.8.9 1.3 1.7 1.2.3 0 .3-.9.6-1.1.3-.1.8.1.9 0 1.9-.7 1.6-.8 1.7-2.9"/><path fill="#f2e943" stroke="#3d3d3d" stroke-width=".196" d="M115.3 45.5c2.8 2.7 1.7 7.8.1 10.4-1.5-.8-2.5-2.8-4-3.8-1.6-1.1-3.2-2.5-4.1-4.3.7-1 3-.8 4.1-1.2 1.4-.5 2.8-.7 4.3-1.1"/><path fill="#f6eb42" stroke="#f6eb42" stroke-width=".196" d="M116.1 45.5s6.1.5 7.3 2.1c1.2 1.6 1.1 5.7 1.5 7.4.4 1.7.5 6.2-.2 7.5-.7 1.3-4 3.4-4 3.4s-3.8-4.7-3-4.9c.8-.1.5-6.9.5-8.7.1-1.8-2.1-6.8-2.1-6.8z"/><linearGradient id="SVGID_16_" x1="10587.475" x2="10625.444" y1="-982.243" y2="-982.243" gradientTransform="matrix(-1.2986 .4091 .2975 .9546 14188.559 -3334.474)" gradientUnits="userSpaceOnUse"><stop offset="0" stop-color="#f9ebc4"/><stop offset=".327" stop-color="#f7e4b6"/><stop offset=".942" stop-color="#f2d392"/><stop offset="1" stop-color="#f2d18e"/></linearGradient><path fill="url(#SVGID_16_)" d="M96.9 57.5s-.3 9.9.5 12.5c.8 2.7 3.3 7.3 3.7 10.9.1 1-.1 3.5.4 4.5.6 1.2 2.9 2.9 7.5 2.9 4.5.1 10.3-1.9 12.7-2.7 3.6-1.1 20.6-7.4 22.4-9.5 1.9-2.1 3.2-2.5 2.6-2.4-3.3.6.3-3.2-.5-4.8-.8-1.5 3.3-2.9 3.3-2.9-1.6.5-16.5-7.1-23.1-7.7-6.6-.6-14.6-6.4-19.2-5.1-4.6 1.5-10.3 4.3-10.3 4.3z"/><linearGradient id="SVGID_17_" x1="12042.738" x2="12054.326" y1="-968.641" y2="-968.641" gradientTransform="matrix(-1.1417 .3596 .2975 .9546 14170.828 -3329.66)" gradientUnits="userSpaceOnUse"><stop offset="0" stop-color="#c91a72"/><stop offset="1" stop-color="#fbf4cb"/></linearGradient><path fill="url(#SVGID_17_)" d="M133.5 76.3c1 3.1-1.2 6.6-4.8 7.7-3.7 1.1-7.4-.5-8.4-3.6s1.2-6.6 4.8-7.7c3.6-1.2 7.4.4 8.4 3.6z" opacity=".13"/><linearGradient id="SVGID_18_" x1="9005.415" x2="9014.668" y1="3066.896" y2="3066.896" gradientTransform="matrix(-.5191 .6999 .6731 .794 2718.05 -8658.32)" gradientUnits="userSpaceOnUse"><stop offset="0" stop-color="#c91a72"/><stop offset="1" stop-color="#fbf4cb"/></linearGradient><path fill="url(#SVGID_18_)" d="M102.7 86c1.7 1.9 4.3 2.1 5.7.4 1.4-1.7 1.1-4.6-.6-6.5-1.8-1.9-4.3-2.1-5.7-.4-1.4 1.7-1.2 4.6.6 6.5z" opacity=".13"/><linearGradient id="SVGID_19_" x1="-9716.082" x2="-9716.082" y1="-917.023" y2="-917.023" gradientTransform="matrix(1.3638 -.4295 .2974 .9547 13631.334 -3240.5)" gradientUnits="userSpaceOnUse"><stop offset="0" stop-color="#ce4952"/><stop offset="1" stop-color="#e19930"/></linearGradient><path fill="#f5f5f4" d="M93.2 62.4s9.3-9.5 13.9-11 14.5-.1 14.8 0c.3.1-.6.4-1 .4-.4.1-10-.5-11.3-.5-1.3 0-2.2.2-2.5.3-.3.1-1 .9-1.6 1.6-.6.7-1.5 2-1.8 2.6-.3.6-1 1.7-1.3 2.1-.3.5-.8.9-2.4 1.5-1.5.8-6.8 3-6.8 3z" opacity=".14"/><path d="M142.3 68.3c2.7.7 4.7 7.7 7.2 4.5s2.3-6.6.3-10.1c-1.7-3-3.4-5.8-5.7-8.4-1.5-1.7-2.8-2.2-4.5-3.2-1.5-.9-3.1-3.1-4.8-2.8" class="st43"/><linearGradient id="SVGID_20_" x1="10866.831" x2="10870.428" y1="-93.008" y2="-93.008" gradientTransform="matrix(-1.3128 .3369 .1915 .9848 14429.7 -3503.18)" gradientUnits="userSpaceOnUse"><stop offset="0" stop-color="#f9ebc4"/><stop offset=".327" stop-color="#f7e4b6"/><stop offset=".942" stop-color="#f2d392"/><stop offset="1" stop-color="#f2d18e"/></linearGradient><path fill="url(#SVGID_20_)" d="M140.9 65s1.8-1.9 2.8-1.4c1 .5 2.1 1.9 2.3 2.8.2.9-1.5 3.7-2.1 3.8-.6.1-2 .5-2 .5l-1-5.7z"/><path fill="#42549e" d="M121.1 71.4c.1.7.7 1.1 1.2 1 .6-.1.9-.7.8-1.4-.1-.7-.7-1.1-1.2-1-.5.1-.9.7-.8 1.4zM106.2 74c.1.7.7 1.1 1.2 1 .6-.1.9-.7.8-1.4-.1-.7-.7-1.1-1.2-1-.6.1-.9.8-.8 1.4z"/><path fill="#f6eb42" stroke="#e0d439" stroke-width=".196" d="M111.7 54c-2.7 2.1-3.8 2.7-3.7 6.9"/><path d="M104.9 62.1c.2-3.7.5-7.2 3-9.7m-7.1 9.8c-.5-4.5 2.8-9.1 6.1-11m-7.7 13.9c-2.2-3.5 1.3-13.7 4.7-14.6m-6.2 16.9c-3.5-5.4-.9-12.1 1.7-16.5m18.2 8.5c.4-3.2-2.3-4.9-4.3-6.5m8.5 6.1c-.5-2.8-4.2-5.6-6.3-6.9m10.5 7.7c.3-3.4-4-5.7-5.7-8m10.3 8.7c-.8-3-3.5-5.2-4.5-8.1m-1.4 8.3c0-2.1-1.1-3.1-2.1-4.8m11.8 9.2c-.8-2.4-1.3-5.3-2.6-7.5m8.4 5.7c-.1 1.3.7 6 .5 6.1m-.9 2.4c-1.4-.9-2.5-3.5-2.9-5.3m9.4 4.7c1.1-.9 2.2-3.1 2.2-4.7m-7.8 4.7c-1.3-1.2-3.4-4.1-2.9-6m.6 7.5c-1.9-1.6-4.3-8-2.8-10.1m-3-6.5c-.8-1.6-.1-3.2-.8-4.8-.5-1.2-2.1-3.6-2.9-4.7-1.8-2.7-6.3-3.8-9-3m-15.1 8.3c3.6-3.1 6.4-5.6 11.4-4.7m21.5 15.2c-1-3.3-1.1-6.5-2.5-9.7m4.1 2.3c2.9.6 3.1 5.3 3.5 7.7m-9.3-15c4.8 2.4 6 7.8 6.9 12.6m-21.7-14.4c3.3.6 6.2 1.8 8.4 5m-23-1.2c2.9-2.8 5.4-3.7 9.3-4.1" class="st47"/><path d="M122.2 45c2.4.3 3.6.2 5.6 2.1 1.8 1.7 2 3.7 3.6 5.3m-14.5-6.9c3.7-.3 8.2 5.4 9.3 9" class="st47"/><path d="M117.1 42.8c1.1.6 2.1-.3 3.2-.5 1.7-.3 3.3.1 4.9.7 2.6 1 6.5 3.1 7.8 6m7.8 6.2c1.6.8 2.1 5.8 2 7.5m3.4-3.7c-.1-2.5 1.9 5.2 2.1 7.4 0 .1-2-5-2.1-7.4z" class="st47"/><linearGradient id="SVGID_21_" x1="-2558.841" x2="-2558.841" y1="-909.988" y2="-909.988" gradientTransform="matrix(.929 -.2926 .2974 .9547 2790.346 173.545)" gradientUnits="userSpaceOnUse"><stop offset=".012" stop-color="#d9c839"/><stop offset="1" stop-color="#f2e941"/></linearGradient><path d="M98.1 72.9s-1.1-5.7 1.2-7.2c2.3-1.4 7.5-2.3 9.2-3.5 1.8-1.2 5.3-6.9 5.3-6.9l2.1 5.7s3.3 0 6.6.1 6.6-1.2 8.1.6c1.5 1.8 5.7 9.6 6.3 10.7.6 1 3.2.5 3.4-.3.3-.8 2.1-1.6 1.5-3.1-.6-1.5-1.8-1.8-.5-4.3s4.1-1.1 4.5 1.7c.4 2.7-1.2 4-1.6 5.4-.4 1.4-2.1 2.4-1.1 3.5 1 1-.5 1.3 1 1 1.5-.2 1.6-.1 2.9-1.6 1.3-1.5 1.2 2.4 2.3-4.1 1.2-6.5.2-7.6-1.9-11.2-2.1-3.6-4.5-6.7-7.2-9-2.8-2.3-15.9-8.6-18.4-8.1-2.5.5 1.3-.5-7.4.9-8.5 1.4-8.5 2.4-15.1 7.8-3.4 2.8-4.9 5.9-3.9 10.8.9 4.9 2.7 11.1 2.7 11.1z" class="st43"/><linearGradient id="SVGID_22_" x1="3875.598" x2="3897.865" y1="88.205" y2="118.522" gradientTransform="matrix(-1 0 0 1 4000.127 0)" gradientUnits="userSpaceOnUse"><stop offset="0" stop-color="#f9ebc4"/><stop offset=".327" stop-color="#f7e4b6"/><stop offset=".942" stop-color="#f2d392"/><stop offset="1" stop-color="#f2d18e"/></linearGradient><path fill="url(#SVGID_22_)" d="M123.9 91.4l-4.6 5.3-9.8 1.8-.4 2.7 11.8-1.1 6.9-6.2z"/><path d="M141 102.6c-4.5-.9-8.9-4.4-13.5-5.2-3.3-.6-8.2.9-9.9 3.9-3.3 5.8 2.5 9 6.6 12.3 2.7 2.1 7.7 7.9 10.9 3.6 1-1.3-.3-2.5 1.6-2.9 1.5-.3 2.4.9 4.1.2 2.1-.9 4.7-3.5 5.3-5.7.7-2.8 1.4-6.3-.7-8.2-1.4-1.3-2.2-1-4.1-.5-1.3.4-2.4 1-3.7 1.4" class="st34"/><path fill="#fff" stroke="#c9c9c9" stroke-width=".25" d="M126.9 85.7c-1.8 2.1-4.5 3.4-6.1 5.7 2.8 1.5 5.3 3.7 8.2 5.1l7-7"/><linearGradient id="SVGID_23_" x1="3882.363" x2="3904.629" y1="83.234" y2="113.551" gradientTransform="matrix(-1 0 0 1 4000.127 0)" gradientUnits="userSpaceOnUse"><stop offset="0" stop-color="#f9ebc4"/><stop offset=".327" stop-color="#f7e4b6"/><stop offset=".942" stop-color="#f2d392"/><stop offset="1" stop-color="#f2d18e"/></linearGradient><path fill="url(#SVGID_23_)" d="M110.1 98.3c-2.8 0-9.7-2.2-9.7 2.9.6-.2 1.3-.6 2-.9-1.1.5-1.9 1.5-1.6 2.7.6-.2 1.3-.6 1.9-.9-.4.6-1.5 3.1-.2 3.3 1 .2 1.6-2.4 2.2-2.8 1.1-.7 1.5 0 2.7-.2 1.2-.2 2.6-1.3 3-2.4"/><path fill="none" stroke="#bb8b36" stroke-width=".512" d="M123.1 80.6c-2.5 2.6-8.4 3.6-11.9 3.1"/><path d="M136.5 112l.3 8.4-1.5 1.9-6.3 1.4s-4.6.5-5.1-.9-1.2-3.4.9-4.5c2.1-1 3.6-1.5 3.6-1.5l-3.6-3.1c-.1 0 7.4 3.8 11.7-1.7z" class="st33"/><path fill="none" stroke="#b36730" stroke-width=".5" d="M128.8 117.1c.7-.3 2.4-2.7 3.3-1.9 1.3 1.3-2.6 2.1-3.2 2-.3-.7-2.2-3-3-1.9-1 1.4 2.7 1.9 3.4 2-.1.8.1 1.6.7 2-.3.5-.6 1.1-.9 1.4m-8-5.8c0-.7.4-3.5-.9-3.4-1.7.1.8 3.1 1 3.4-.3-.2-3.4-2.9-3-.9.2 1 2.5 1.3 3.2 1.4-.9.6-.1 1.3-.7 2m1-2.1c.6.3.9.7.7 1.3.6.1.4.5.7.9"/><path fill="none" stroke="#bb953c" stroke-miterlimit="10" stroke-width=".5" d="M113.9 76.3c-2.2-.1-1.7 2.5.5 2.3" opacity=".55"/><path fill="#d77930" d="M91.2 119.4s.1-.3.4-.5c.3-.2.6-.2.6-.2s.1-.2.3-.2c.1 0 .5-.1.5-.1h.2s.5-.3.6-.2c.1.1.3.1.3.1s.5-.2.6-.2c.1 0 .4-.1.4-.1s.4-.2.5-.1c.1.1.2-.1.2-.1h.5c.1 0 .5-.1.5-.1l.4-.1.2-.1s.4-.1.5-.1c.1 0 .5-.1.5-.1l.4-.1.3-.1.5-.1s.3-.2.5-.2c.3 0 .5.1.6 0 .1-.1.4-.1.4-.1l.4-.1h.3s.1.1.6-.1c.4-.2.8-.1.9-.2.1 0 .4-.2.6-.2.1 0 .5-.1.6 0 .1.1.5 0 .5 0l.4-.1h.6s.2 0 .4-.1.7-.1.7-.1 1.1.1 1.3.1c.2 0 .6.4.6.4.1 0 .4.3.4.4v.9c0 .1-.1.3-.2.6-.1.2-.3.6-.6.8-.3.2-.5.2-1 .3-.5.1-.9 0-1.3.1s-1 0-1.3.1c-.3.1-1 .1-1.1.1-.1 0-.4-.1-.6 0-.2.1-.5 0-.6.1-.1.1-.7 0-.7 0s-.3 0-.5.1c-.3.1-.7 0-.7 0s-.4-.1-.6 0c-.3.1-.4 0-.7 0h-1.1c-.1 0-.3 0-.5.1-.1 0-.5.1-.6.1-.1 0-.5-.1-.7 0-.2.1-.5 0-.9.1s-.3 0-.6 0c-.2 0-.5-.2-.9-.1s-.7 0-.9 0c-.2 0-.7-.2-.8-.2-.1 0-.6 0-.8-.1-.4-.1-.5-.3-.5-.3z"/><path fill="#e7be79" d="M108.1 118.1l.4.9.4-.5.3-.8v-.9h-.5l-1.1.7-1.2.3-1.1.2s-1.4-.8-1.7-.6c-.3.2-1.1.2-1.3.2-.2 0-1.1-.2-1.4 0-.3.2-1.5.6-1.5.6l-.7-.3-.9-.2-1.1.3-.8.2-1.1.2-1 .2s-1.3-.5-1.5-.1l-.2.4 1.5.6 1.2-.1.8-.3 1.4.2 1.7-.4s1.1.4 1.4.2c.3-.2 1.3-.5 1.3-.5l.9.4 1.7-.1 1.7-.4s.8-.3 1.4-.4c.4.1 1 0 1 0z" opacity=".25"/><path fill="#a5c85a" d="M117.4 116l.2-.1.3-.2h.2l.2.1-.2.3-.2.1.2.1.3.1.1.1-.1.2h-.1v.2l.1.2.3.3v.4s0 .3-.1 0l-.4-.8s-.1-.3-.3-.4c-.1-.1-.5-.1-.5-.1l-.1-.2-.4-.2s-.3-.1-.2-.2c.1-.1.3-.2.3-.2h.1l.1-.1h.2v.4z"/><path fill="none" stroke="#cc8031" stroke-width=".557" d="M92.7 119.6s-.1-.3-.1-.6.1-.5.1-.5m.5-.1s-.1.3-.1.5c-.1.2.1.7.1.7m.6.1s-.2-.8-.1-1l.3-.6m1 1.7s-.2-.4-.1-.8c0-.4.1-.8.1-.8m1.5 1.4s-.1-.3-.1-.5-.1-.6-.1-.6m1 0s0 .4.1.6c0 .2-.1.6-.1.6m.8-1.3c0 .1-.1.1 0 .5 0 .4-.1.7-.1.7m.9-.1s.2-.2.1-.6c-.1-.4 0-.5 0-.6m.5 1.2v-.5c-.1-.4-.1-.7-.1-.8.1-.1.1-.7.1-.7m2.2-.2c0 .1.1.4.1.6 0 .2-.1.3 0 .7.1.3-.1 1-.1 1m.8 0s.1-.6 0-1-.1-.7 0-.8m.5.2s-.1.1 0 .4v.5m1.8-.7c0 .2 0 .4.1.7v.4m.9 0s.2-.3.2-.8c-.1-.5-.1-.5-.1-.8v-.8c-.1-.1-.2-.5-.2-.5m2.1.4s.1.5.1.8c0 .3-.1.5.1.9.1.4-.2.6-.2.6m-1-.2v.3m-2.9-2.2s0 .1.1.5c0 .4-.1.4 0 .8.1.5 0 .5 0 .6-.1.1-.2.5-.2.5"/><path fill="#9eba63" d="M109.2 117.7s.3 0 .6.1.8.1 1 .1c.3-.1.8 0 .8 0l.3-.1s-.2-.2-.2-.3c0-.1-.1-.3-.1-.3h.3l.1.2s-.1-.3-.2-.4c-.1-.2-.3-.4-.5-.4s-.3 0-.5.1c-.1.1-.1 0-.4 0-.2.1-.3 0-.5.1s-.6.1-.6.1l-.2.1v.2l.1.5z"/><path fill="#738c45" d="M109.2 116.7l-.1-.4-.1-.4.1-.3h-.1v-.2l-.1.2v.4l-.2-.2-.1-.4h-.1v.3l-.2-.1v.3l.1.2s.1 0 .2.1c.1 0 .2.1.2.1l.1.1v.2l.3.1z"/><path fill="#90bd56" d="M109.2 116.8l-.3-.1s-.5.2-.6.1c-.1 0 .1-.2.1-.2h-.2l-.1-.2.1-.2.3.1.3.1h.2v.2l.2.2z"/><path fill="#86a249" d="M109.3 117.2s.2.1.3.2c.1.1.4 0 .4 0s.1 0 .3-.2c.2-.2.5-.2.5-.2h.4l.4.1.1-.1.1-.1-.1-.2s-.1.1-.2 0c-.1 0-.3 0-.5.1s-.4.1-.4.1h-.3c-.1 0-.3-.1-.3-.1h-.2c-.4.2-.5.4-.5.4z"/><path fill="#39542f" d="M112 118l.2-.2.1-.3-.1-.1-.1-.1-.3-.2-.2.1.1.2.2.4z"/><path fill="#497340" d="M110.9 116.6s.5-.4.6-.5c.1-.1.5-.2.5-.2s.3-.1.4-.2c.1-.1 0-.4 0-.4v-.4l.1.2s0-.3.1-.2c.1.1-.1.6 0 .6s.3 0 .3-.1.2-.1.2-.1l-.6.7c.2.1.4.1.4.1h.2v.1s-.2.2-.3.1c-.1 0-.3.1-.4.1h-.3l-.2.1h.4l.2.3-.1.2.1.3c0 .2-.2.2-.2.2s-.1-.3-.2-.4c-.1-.2-.5-.4-.5-.4l-.7-.1z"/><path fill="#517f44" d="M111.9 117.9s.3.3.3.5.1.3.1.4c.1.2.1.3.2.4l.4.2-.2.1-.1.4s0 .3-.1.2c-.1-.1-.1-.2-.2-.3-.1-.2-.2-.4-.2-.5-.1-.1-.2-.3-.2-.4.1-.2 0-.4 0-.4l-.3-.3-.1-.2.3-.1h.1zm1.6 3.3s.1-.4 0-.5c-.1-.1-.2-.1-.2-.1l-.2.2v-.2l-.5-.1v-.1s.5-.2.5-.3c0-.1.1-.2.1-.3v-.4h.1v.3l.1.5.1.5s.1.3 0 .4c.1 0 0 .1 0 .1z"/><path fill="#83a24a" d="M112.5 118s.3 0 .3.1.3-.2.3-.2l.2-.1.5-.2.1.2-.1.1-.3.2-.3.1h-.1l.1.2.3-.1h.2l.1-.2.3-.2v.2s.2-.2.3-.2c.1 0 .2.1.3.1.1 0 .1-.1.1-.1h.2l-.3.4-.4.4-.2.2.1.2.2-.2.3-.2h.4l.2-.1s.2-.2.2-.1-.2.3-.2.3l-.3.2h.3s.1-.1.2-.1.2.1.2.1l-.4.1.4.1.1.2-.2.1-.1-.1-.1-.1-.1.1.3.2-.1.1-.2-.1-.1-.1h-.3l-.4-.1h-.4l.3.4.3.2h.1l.1.2h-.3s0 .2-.1.1-.5-.3-.5-.3-.1-.2-.2-.2-.1-.2-.2-.2-.4-.1-.4-.1l-.3-.1c-.2-.1-.5-.3-.5-.3l-.2-.2c-.1-.1-.1-.3-.1-.3l.1-.2s.1 0 .1-.1v-.5l.2.1v.1z"/><path fill="#84b24f" d="M114.5 122.6s.2-.2.1-.3v-.5l.2.2v-.7c-.1-.1-.1-.5-.1-.5l-.1-.4v-.2l-.2-.1v.4l.1.3-.2.2-.1.5-.1.4.2-.4v.4l-.1.4.1-.1.1.2.1.2z"/><path fill="#749f4c" d="M115.1 122l.1.1s.2.1.1.2.1.4.1.4l.1-.3.2.2s.2 0 .1-.1-.2-.4-.2-.4v-.3l.3.5.2-.1s0-.2-.2-.3l-.3-.3-.1-.4-.1-.2.3.1.2.1h.3l-.1-.1s-.1.1-.2 0c-.1 0-.2-.2-.2-.2h.2l-.3-.1h-.1l.1-.2.1-.2.2-.1s0 .1.1.1h.2l.3.1.2-.1-.1-.1.1-.1c-.1-.1-.3 0-.3 0v-.3l.2-.1s0-.1-.1-.2 0-.2 0-.2h.3l-.3-.2h-.1l-.2-.3-.1-.1v-.2h-.2l-.1.1v.2s.1 0 0 .2l-.1.2.1.2s.1-.1.1 0 .2.2.2.2l.1.1v.3h-.2v-.1l-.1-.1h-.1l-.1.1v.3l-.1.1-.2.1-.1.1h-.2v-.2l-.1-.1v-.2h-.3v.2l.3.4.1.4.1.5-.1.4z"/><path fill="#f2f6ea" d="M115.3 120.1l.1.3-.1.3.4-.2c-.1-.1-.2-.3-.2-.3l-.2-.1z"/><path fill="#8dba4e" d="M115.1 119.7l-.1.5h.3v-.3l.2-.1.1.2v-.2l.1-.4-.3-.5v-.4l-.1-.4.2.1v.4l.1.1.1.3.3-.1.1-.2.1-.1h.1s-.1-.1-.2-.1-.3-.2-.3-.2l-.3-.2-.1-.2-.3.3-.1.1v.2l.1.2-.1.2v.4l.1.3"/><path d="M116.7 117.7l.2.3v.3l.1.4.3.1v-.3l-.1-.2v-.3l-.1-.2h.5l.2-.1h.1l.1.2.2.3v.4l.1.1.2.1s.1.1.1.2c.1 0 .3.1.3.1h.1l.1.1v-.2l-.2-.1-.2-.2-.2-.2-.1-.3-.1-.4.4.2s.1 0 .2.1.1.3.1.3l.1.2.1.3h.1v-.7h.1l.2.2.2.1.2.2.4-.1-.1-.1-.3-.4h.4l.2.1.2-.1-.2-.2.2-.2.1.1.1.1h.3v-.1l-.2-.2-.5.1-.4.1h-.5l-.4.2-.2.1-.2-.1s-.1-.1-.2-.1h-1.5s-.1-.1-.3-.1c0-.2-.2-.1-.2-.1z" class="st71"/><path fill="#5a8446" d="M115.3 117.6l.3.1.2.2.2.1.3.3v.2l.1.3.1.2.1-.2.2.3v.3l.2.2s0-.4-.1-.4-.2-.4-.2-.4c0-.1-.2-.4-.2-.4s0-.2-.1-.3l-.5-.5-.1-.3-.3-.1-.2-.2v-.3l-.1-.4-.1-.3-.2-.3-.2.2v.2l-.4.1-.1.1h-.1l-.3.1-.2.2h-.1l-.5.4-.2.1-.3.1-.1.1v.2l.2.2.1.1.2-.1.3.1h.4l.1-.1h.1l.2.3.1.1.2-.1.3-.1v.2l-.2.5.1.2-.1.1.3.1h.3l.1-.1v-.2h-.1l-.1-.2v-.3l.1-.2h.2l-.1.1.3-.3v-.1l-.1-.1z"/><path fill="#668f49" d="M112.9 116.3l.3.1h.3l.5-.3.2-.1.2-.1h.1v.2s-.2.1-.3.2l-.1.1-.2.2-.2.2s-.1.1-.3.1c-.2.1-.3.3-.3.3s0 .2-.2.1-.4-.1-.4-.1l-.2-.1.1-.4s-.1 0-.1-.2v-.1l.2-.2h.2l.2.1z"/><path fill="#87ad4d" d="M113.8 116l.2-.2h.2l.3.2h.3l-.1-.2.1-.1h.2l.2.2.2-.1.2-.1.2.2h.4l.3-.1h.2v-.2l-.3.1h-.3l-.2-.1-.3-.2-.2-.1-.3-.1v-.1l.2-.2h.2s.1.1.2.1.3.1.3.1h.2l.2.1.1-.1-.2-.2-.2-.2.4.1h.1l.1-.1-.2-.1.1-.2.1-.1-.1-.2-.2.2-.1.2h-.1l.1-.3.1-.1-.2.2v-.3l-.2.2-.2.3-.2.1-.2.1.3-.3-.2-.1.2-.1.1-.1.1-.2h-.2v-.2h-.1l-.1.2-.1.1-.2-.2v-.2h.3v-.2l-.2-.1h-.2s0-.2-.1-.1l-.2.2h-.1v-.3l-.1.3s-.1-.5-.1-.4v.1l-.1.1-.1.2.1.4-.2.1s.1.2-.1.2h-.3l.1.2.1-.1-.2.3-.1.3.3-.2.1-.3v.6l.1.4h-.2v-.2l-.3.2-.3.2.1.4h-.1s-.1.2-.2 0v-.3l-.1-.1-.2.2s0 .1-.1.1h-.1l-.1.3h.3v.3l.2.2h.2c.1 0 .1.1.1.1l.3-.3h.1v-.4z"/><path d="M114.9 114.3l.2-.2v-.2l.1-.2v-.1l-.1-.1-.2.2-.1.2v.2zm-.7 0l.2-.2.1-.1-.2-.1-.1.1zm.1.4h.1v-.1l-.2-.3zm.3-.2c.1-.1.1-.1 0 0l.2-.3v-.3h-.1l-.1.3v.3z" class="st75"/><path fill="#85b04e" d="M115.3 115.9l.2.2.2.1.4.2.1.2c.1 0 .2.1.2.1h.2l.2-.1.2.1v.4h-.2c-.1 0-.4-.1-.4-.1l-.3-.1-.1-.2-.2-.2-.2-.1-.1-.2-.2-.1-.2-.3.2.1z"/><path fill="#618545" d="M116 115.9l.2.1.1.1.1.1h.2l.1-.1c.1 0 .2-.1.2-.1v.1l-.2.1-.2.2h-.3l-.2-.1-.1-.2-.2-.4h.4l-.1.2z"/><path fill="#84b44f" d="M116.7 115.6l.3-.2.2-.4.1-.5.3-.4s.1-.1.1-.2l.3-.3.3-.1-.2.2-.3.3-.1.4v.3l-.2.2-.1.2.4-.3s.1 0 .2-.2.1-.3.1-.4c0-.1.1-.3.1-.3l.1.4-.1.3.2.1.3-.2.1-.3.2-.2.2-.1h.1l-.1.2-.2.2-.2.2s.3 0 .4-.1c.1 0 .4-.1.4-.1s.3.1.2.1c-.2 0-.1-.1-.2 0 0 .1.3.1.3.1l.3-.2s0 .4-.1.4-.4.2-.4.2v.2h.1l.3-.2h.4v.1h.1s.1.2 0 .2-.5.1-.5.1h.4l.2.1-.2.1-.3.1-.2-.1-.1.2-.1.2.1.2.1.1-.1.1-.1.2-.2.1-.1.2v.4h.2l.1-.1.1.1h.1l.2-.2.3-.6.3-.4s-.1.2-.1.4.3-.1.3-.1v.3l-.2.2c-.2.1-.3.3-.3.3l-.1.2h.2l.2-.1.2-.1.2-.1h.4l.1.1-.1.2h-.2.4l-.1.1-.1.1s.1.1 0 .1-.2.1-.3 0c-.1-.1-.1-.2-.2-.2s-.1-.1-.1 0 .1.2.1.2v.5s-.2-.3-.3-.4c-.1-.1-.4 0-.6-.1h-.4c-.1 0-.3.2-.3.2l-.4.1-.1.1-.1-.2.3-.2h.2l-.1-.3v-.3l.1-.3.1-.1-.1-.2s.1-.1 0-.2-.1-.2-.2-.2c-.1-.1.1-.1-.1-.1h-.2s-.2.2-.3.1h-.2l-.1.1s-.2-.1-.3-.1c-.1 0-.4.1-.4.1l-.2-.1h-.2l-.2.1h-.2l-.1-.5z"/><path d="M118.6 115.3l.3-.3h.4c.1-.1.4-.1.4-.1l.2-.1s-.1.4-.2.4h-.9l-.2.1zm.9.3l.1.2.1-.3-.1-.1zm-1.9-.9v-.3c0-.2.2-.3.2-.3l-.1.4-.1.2zm.8 2.5s.2-.1.2 0c.1.1 0 .4 0 .4l-.2-.4zm.5-.3l.1-.1.2-.2v.3h-.3zm.2-1.2l-.1.4s0 .3-.1.3-.2-.1-.3-.2l-.2-.2v-.3h.4l.1-.1.2.1z" class="st75"/><path fill="#99c24d" d="M117.2 116.5l.1.2.1-.1.2-.1v.2l-.2.1-.1.1h.1l.2-.1.2.1s0 .1-.1.1-.4.1-.4.1v.2l-.1.3-.1-.1-.1-.2-.1-.1s.1.5 0 .3c-.2-.2-.2-.4-.2-.4v-.4l-.2-.1.2-.2v-.2l-.2-.2v-.1l-.1-.2h.4l.2.3.2.5z"/><path fill="#7ba04b" d="M118 117.4l-.2.1-.3.1.3-.4.1-.1.1-.3.2.3v.2l-.1.2h-.1z"/><path d="M116.1 117.7s.4 0 .5.1c.1.1.3 0 .3 0l.1-.2-.5-.1-.4-.1-.6-.1.6.4z" class="st71"/><path fill="none" stroke="#b57031" stroke-width=".557" d="M92.8 119.7s-.1-.3-.1-.6.1-.5.1-.5m.5-.2s-.1.3-.1.5c-.1.2.1.7.1.7m.6.1s-.2-.8-.1-1l.3-.6m1 1.7s-.2-.4-.1-.8c0-.4.1-.8.1-.8m1.4 1.5s-.1-.3-.1-.5-.1-.6-.1-.6m1.1-.1s0 .4.1.6c0 .2-.1.6-.1.6m.8-1.3c0 .1-.1.1 0 .5 0 .4-.1.7-.1.7m.8-.1s.2-.2.1-.6c-.1-.4 0-.5 0-.6m.6 1.2v-.5c-.1-.4-.1-.7-.1-.8.1-.1.1-.7.1-.7m2.2-.1c0 .1.1.4.1.6 0 .2-.1.3 0 .7.1.3-.1 1-.1 1m.8-.1s.1-.6 0-1-.1-.7 0-.8m.4.3s-.1.1 0 .4v.5m1.9-.7c0 .2 0 .4.1.7v.4m.8 0s.2-.3.2-.8c-.1-.5-.1-.5-.1-.8v-.8c-.1-.1-.2-.5-.2-.5m2.2.4s.1.5.1.8c0 .3-.1.5.1.9s-.2.6-.2.6m-1-.3v.3m-2.9-2.1s0 .1.1.5c0 .4-.1.4 0 .8.1.5 0 .5 0 .6-.1.1-.2.5-.2.5"/><path fill="#8abb4f" stroke="#74a13a" stroke-miterlimit="10" stroke-width=".25" d="M98.9 127.6c.3-.9-.5-2.6-.8-3.7.6.4 1.4 1.2 1.9 1.9.1-1.2-.5-2.6.4-3.5.5 1.2.8 2.7 1.1 4 .6-1.6 1.6-2.6 3-3.5 0 .8-.2 1.7-.3 2.6.5-1.2 1.7-2.1 3-2.2-.5.9-1.2 1.9-1.5 3 .8-.2 1.3-1.1 2.2-1-.2 1-1.1 1.7-1 2.8m-29.2-3.6c-.5-1.8-1.9-3.3-3-4.8.3 1.3 1 2.3 1 3.7-1-1.1-1.6-2.9-3.2-3.3.6 1 1.4 1.9 1.7 3.1-1-.9-2.3-1.4-3.5-1.9.8.7 1.4 1.6 1.7 2.6-.6-.6-1.6-1-2.5-.8.5.9 1.5 1.6 1.9 2.5m57.5 0c-.3-1 1.4-2.8 2.5-3.1-.4.8-.8 1.8-.9 2.7 1-1 2.1-1.9 3.5-1.7-.9.4-1.9 1.5-2.2 2.5.8-.8 1.9-1 3-.8-.8.6-1.8 1.3-2.3 2.3"/></g></switch></svg>
