<svg xmlns="http://www.w3.org/2000/svg" version="1.0" viewBox="0 0 67.5 62.8"><switch><g><path fill="#966632" stroke="#2E1313" stroke-width=".25" d="M58.2 20.6c1.1.6 3-.6 4.3-.3 1.2 2.9-5.6 3.2-4.2 1.2"/><linearGradient id="a" x1="-1714.818" x2="-1718.291" y1="195.593" y2="171.78" gradientTransform="rotate(3.8 1190.85 26355.73)" gradientUnits="userSpaceOnUse"><stop offset="0" stop-color="#663817"/><stop offset="1" stop-color="#966632"/></linearGradient><path fill="url(#a)" stroke="#2E1313" stroke-width=".25" d="M36.5 34.1c-.3 2.1-.8 4-1 6.3-.2 2.3-.8 4-1.3 6.1-.4 2-.5 4.5-.2 6.4.2 2 1.3 4.1 1.4 6.1-2.5-.7-6.1.4-6.4-2.8-.3-2.8.7-6.6 1.4-9.2.4-1.6.2-2.8.5-4.3.2-1.3 1-2.3 1.2-3.8.3-3.1-.4-5.8-1.1-8.7-.2-.8-.3-1.6-.6-2.4"/><linearGradient id="b" x1="-1731.676" x2="-1735.149" y1="198.038" y2="174.222" gradientTransform="rotate(3.8 1190.85 26355.73)" gradientUnits="userSpaceOnUse"><stop offset="0" stop-color="#663817"/><stop offset="1" stop-color="#966632"/></linearGradient><path fill="url(#b)" stroke="#2E1313" stroke-width=".25" d="M19.7 32.7c-1.2 2.3-2.5 3.2-4.1 5.1-1.8 2.1-1.7 3.8-1 6.3.7 2.4 1.1 4.8 2.1 7s1.8 4.3 1.9 6.7c.1.1.1.1 0 0-1.9-.8-3.7 0-5.5-.4.1-1.5-.2-2.3-1.1-3.5 1.7-1.7.4-5.5-.3-7.5-.5-1.3-1.4-2.8-1.6-4.2-.2-1.4.6-2.2 1.1-3.6.6-1.4.9-3 .9-4.6 0-1.1-.9-3.4-.3-4.4 1.3-2.2 6.6 2.8 7.9 3.8"/><linearGradient id="c" x1="-1653.761" x2="-1650.592" y1="22.629" y2="15.732" gradientTransform="rotate(.81 -643.217 124455.175)" gradientUnits="userSpaceOnUse"><stop offset="0" stop-color="#caca97"/><stop offset="1" stop-color="#966632"/></linearGradient><path fill="url(#c)" stroke="#2E1313" stroke-width=".25" d="M8 13c-3.2 0-6 1-7.5 4 .2-.1.3-.2.5-.3-.4 1.1-.7 2.1-1 3.3.2-.1.4-.3.6-.5-.1 1.3-.5 2.5.2 3.6.1-.3.4-.5.5-.8-.2 1.5-.1 2.6.5 4 .9-2.2 2.5-3.8 3.1-6 .6-2.3 1.5-4.3 2.7-6.5"/><path fill="#966632" stroke="#2E1313" stroke-width=".25" d="M50.1 24.3c-3.6-.2-7.5.2-11 1-2.8.7-6.9 3.4-2 3.9 3 .3 6.2.3 9.2.6 1.4.1 2.5 1.1 3.5-.2.9-1 .8-3.4.4-4.6-.1-.4-.2-.6-.4-1M12 33.7l14.3 2.9 7.4-3.3 6.3-2"/><path fill="#966632" d="M37.6 30.8c2.2 1.3 3.9 1.5 6.6 1 2.1-.4 4.1-1.5 6.1-1.5 1.8-2.6-3.6-1.5-4.6-1.4-2.7.2-4.9.1-7.3 1.4"/><path fill="#343433" stroke="#2E1313" stroke-width=".25" d="M30.8 58.7c.8.1 1.7-1.5 1.9-2.4.9.4 1.5 1.5 1.8 2.4-.7.8-2.6.1-3.7 0m3.8.1c-.2-.7-.6-1.4-.8-2.2 1.1-.7 2.4 1.2 2.4 2.2-.1 0-.1.1-.2.1-.4-.1-.9 0-1.4-.1"/><linearGradient id="d" x1="-1720.795" x2="-1718.31" y1="196.624" y2="171.022" gradientTransform="rotate(3.8 1190.85 26355.73)" gradientUnits="userSpaceOnUse"><stop offset="0" stop-color="#663817"/><stop offset="1" stop-color="#966632"/></linearGradient><path fill="url(#d)" stroke="#2E1313" stroke-width=".25" d="M12 33.6c.2 2.7-2.2 4.8-3.5 6.9-1.5 2.5-2 5.4-2.6 8.2-.6 2.9-1.1 6.4-.2 9.1.2.7 1.5 2.7 1 3.3-.5.6-3.3-.2-4-.2-.9 0-1.7.2-2.6 0 0-2.2 1.1-4.3 1.5-6.4.5-2.3.7-4.7.9-7.2.2-2.5.1-4.8 1.2-6.8 1.1-2.2 1.5-4.1.9-6.5l-.1-1.3s-3.1-4.3-1.4-12.2c1.7-7.9 6.8-9.1 9.4-8.7 2.6.4 7.8 2.2 9.5 2.3 1.7.1 8.4-.4 8.4-.4 4.5-.3 13.8 4.1 15.2 5.1 1.4 1 4.8.7 6.4.4 1.5-.3 5.9 1.3 5.9 1.3 2.5 1.2 1.6 5.3 3 7.3 1.2 1.7 5.4 5.7 1.3 7.1-.5.2-1.2 1.1-2.6.7-.6-.2-1.2-.6-1.9-1.1-.4-.3-1.5-1.1-1.9-1.3-.9-.3-1.7-.6-2.2-.8-3.4-1.1-4.4-3.8-4.2-7.1"/><path fill="#966632" stroke="#2E1313" stroke-width=".25" d="M8.5 24.4c-.4 1.9 1.2 5.6 2.3 7.6 1.4 2.5 3.4 3.7 5.9 5 5.1 2.6 13.1 2.4 17.7-1.2.9-.7 1.8-1.5 2.5-2.4 0 0 5.8-4.5 13-2.9"/><path fill="#CACA97" stroke="#676833" stroke-width=".25" d="M50.6 30.9c-.4 1.1-2.6 1.8-2.6 3.2-.1-.1-.4-.5-.5-.7-1.1 1.1-2.2 2.5-2.6 3.8-.4-.3-.8-.8-1.1-1.1-.1.2-.3.4-.3.6-.9-.8-1.5-1.5-3-1.4 0 .4-.3.7-.3 1l-1.4-1.1-2 .3c-2.3 1.5-3.4 2-6.1 2.7-5.8 1.5-14.9.2-18.4-4.6l-.3-1.1c.5.6 1.2 1.1 1.9 1.5-.1-.2-.1-.5-.2-.7.6.5 1.2 1.1 1.9 1.5.1.1.1.1 0 0-.2-.3-.3-.6-.4-.8.8.7 1.5 1.4 2.6 1.7-.2-.4-.2-.7-.4-1 4.5 3.1 11.9.2 16.2-1.4l2.1-.6-.9-1.1c1-.1 1.5.6 2.4.7-.4-1 .8-.9.9-1.7.1-.7-.8-1.1-.4-1.8.5.2 1 .7 1.2 1.2-.6-.7-.3-1.6.3-2.1.1 1.4 1.9 1.5 2.2 2.7.2-.6.1-1.3 0-1.8.5.4.9 1 1.2 1.5.3-.7.5-1.3 1.3-1.8-.6 1.9 1.1.5 1.9 1.4.7-.4 1.2-.5 1-1.1.4.3.9.8 1.4 1.1.1-.5.3-1 .5-1.5.4.8.8.6 1.3 1.3l.2.8"/><linearGradient id="e" x1="-1720.092" x2="-1721.829" y1="194.651" y2="165.876" gradientTransform="rotate(3.8 1190.85 26355.73)" gradientUnits="userSpaceOnUse"><stop offset="0" stop-color="#663817"/><stop offset="1" stop-color="#966632"/></linearGradient><path fill="url(#e)" stroke="#2E1313" stroke-width=".25" d="M32.1 29.5c.2 0 .1-.4.2-.2.3 1.2-.9 2.2-1.2 3.3-.3 1.3-.3 2.8-.5 4.1-.3 2.9-.6 5.9-.4 8.7.2 2.8.6 5.5.8 8.4.1 1.2.1 2.6.5 3.8.4 1.1 1.3 1.7 1.4 2.9-1.4-.3-2 0-3.3 0-.5.7-2.5.2-3.6.1-.4-2.7.2-5.7.2-8.4 0-1.2.2-2.7.2-3.9 0-1.4-.7-2.3-.6-3.8.3-2.8 1.5-5.2.5-8-1.2-3.3-2.1-5.7-1.8-9.5"/><path fill="#663817" d="M11.8 30.7c-2.3-1.4-1.9-6-3.6-7.1-.7 1.5.2 3.2-.3 4.6-.7 1.7-2.5.8-3.3-.4-1.3-1.9-.4-6.6.2-8.8.6-2.1 2-5 4.1-6.1 2.6-1.3 5.6.2 8.1 1 2.8.9 5.6 1.3 8.6.9s6-.6 9 .2c6.5 1.7 8.6 3.7 14.2 5.2.3.8-1.3 3.8-1.9 4.2-1.2.9-2.5 0-3.8-.1-.7 0-1.5.4-2.3.2-.8-.2-1.5-.9-2.2-1.1-1.8-.6-2.6-.1-3.8 1.1-1.9 1.8-3.5 4.5-6.5 3.3-.9-.4-1.8-2-2.8-2.1-1.6-.2-2 1.9-2.9 2.8-2.2 2.4-8.3 4.2-11 1.7" opacity=".27"/><path fill="#2E1313" d="M57.2 33.6c-1.9-2 1.4-.9 2.1-2.4.4-.8-.4-1.5-.7-2.2-.2-.5-.8-2.5.3-1.5 1.1-.8 5.1 4 4.8 5.8-.6 2.9-4.6.8-6.2.5" opacity=".27"/><linearGradient id="f" x1="-1708.788" x2="-1701.479" y1="158.035" y2="158.035" gradientTransform="rotate(3.8 1190.85 26355.73)" gradientUnits="userSpaceOnUse"><stop offset="0" stop-color="#663817"/><stop offset="1" stop-color="#cb6732"/></linearGradient><path fill="url(#f)" d="M49.6 23.4c0-.2-.3-.8-.3-1.1-2-.6-4.8-.9-6.9-.3 1.2 2.4 4.7 2.2 6.8 1.6"/><path fill="#35351A" stroke="#2E1313" stroke-width=".25" d="M62.6 33.7c-.9.3-2-.6-2.2-1.6-2.1 1.4.7 1.4 1.4 1.9"/><path fill="#2E1313" d="M56.3 27.8c.6-3.4-5.1-4.1-5.3-1.1 1 .9 1.9.3 3 .2 1.4-.1 1.3.3 2.2 1.4" opacity=".27"/><path fill="#C99665" stroke="#2E1313" stroke-width=".25" d="M53.1 27.2c.6.2.9.7 1.6.9.7.2.7-.5 1.4.1l.5.8c-.4-1.1-.6-2.3-1.7-2.4-.9-.1-2 .8-2.8.1"/><path fill="#663817" d="M50 20.2c.5.8.3 1.3 1.4 1.7.8.2 1.5-.1 2.3.4 1.2.7 2.9 3.3 4.1 1.1 1.9-3.6-7.1-3.8-7.6-3.2" opacity=".27"/><path fill="#663817" stroke="#2E1313" stroke-width=".25" d="M52 22.6c1.1.5 1.6-.5 1.3-1.5-.3-.8-1.7-1.4-2.2-2-.8-.9-1-1.5-1.1-2.7-.1-.9.5-2.1-.1-2.8-1.1.6-.9 1.9-1.2 3-4.3-2.1.5-13.7-4.1-14.1-.1 2.4 1.5 4.4.6 7.2-.6-2.8-4.3-4.6-6.8-5.5-1.6-.5-2.7-.7-4.2-.2-.9.2-2.9 1-1.9 2.1 2.9-1.1 5.1-1.2 8 .1 2 .9 4.5 3.3 4.4 5.6-2.6.4-5-1.9-6.7-3.4-3.1 2.1 6.3 4.5 6.8 5.1 1 1.2.9 3 2 4.3 1.2 1.4 2.6 2.6 3.8 4m7.8 0c-.7.9-1.5.1-1.6-.7-.1-.7.8-1.8 1-2.5.3-1 .2-1.6-.2-2.6-.3-.8-1.2-1.6-1-2.4 1.1.1 1.5 1.2 2.1 2 2.6-3.3-5.7-11-2.3-13.1 1 2 .5 4.2 2.3 6.1-.6-2.6 1.6-5.4 3.3-6.9 1-1 1.9-1.5 3.2-1.7.8-.1 2.7-.2 2.3 1-2.8.2-4.5.9-6.3 3-1.2 1.4-2.3 4.3-1.4 6.2 2.2-.6 3.2-3.4 4-5.2 3.3.6-3.2 6-3.4 6.6-.3 1.3.4 2.8.1 4.3-.4 1.6-1 3.1-1.5 4.6"/><path fill="#966632" stroke="#2E1313" stroke-width=".25" d="M49.2 22.3c.3.4 0 2.1 1.5 1.4 1-.5.6-2-.1-2.6-1.4-1.1-3.8.3-5.4.2-.7 0-2.3-.6-2.7-.1-.5.7.8 1.9 1.3 2.2 1.1.8 4.5 1.5 5.1 0-1.6-.1-5.1 1.3-5.8-1.4.9-.2 1.9.1 2.8 0 .9 0 1.7-.2 2.6-.2l.7.5z"/><path fill="#343433" stroke="#2E1313" stroke-width=".25" d="M28 60.9c2.8 1.2 2-1.7 1.7-3.1-.9.7-2.6 1.6-2.8 2.8.4.2 1 .4 1.5.4"/><path fill="#343433" stroke="#2E1313" stroke-width=".25" d="M30.4 60.9c-.3-1-.8-2.4-.1-3.2.9.9 1.6 1.6 2.6 2.5-.5.9-1.7.8-2.6.5"/><g fill="#343433" stroke="#2E1313" stroke-width=".25"><path d="M2.3 61.5c2.8 1.2 2-1.7 1.7-3.1-1 .8-2.6 1.6-2.8 2.9.4.1 1 .4 1.5.4"/><path d="M4.7 61.5c-.3-1-.8-2.4-.2-3.2.9.9 1.7 1.6 2.6 2.5-.5.9-1.7.8-2.6.5"/></g><path fill="#343433" stroke="#2E1313" stroke-width=".25" d="M13.9 57.4c.8.1 1.7-1.5 1.9-2.4.9.4 1.5 1.5 1.8 2.4-.7.7-2.6 0-3.7 0m3.8 0c-.2-.7-.6-1.4-.8-2.2 1.1-.7 2.4 1.2 2.4 2.2-.1 0-.1.1-.2.1-.4-.1-.9 0-1.4-.1"/><path fill="#669666" stroke="#2E1313" stroke-width=".25" d="M54.1 26.7c-.9.6.5 2 1.3 1.1.7-.8-.8-1.8-1.4-1"/><path d="M54.6 26.5c-.4.4-.2 1.5.6 1.2.6-.3.2-1.3-.3-1l-.3-.2z"/><path fill="#FFF" d="M54.8 26.8c-.3-.2-.9.2-.5.6.2-.1.3-.3.5-.6"/><path fill="none" stroke="#2E1313" stroke-width=".25" d="M61.7 35c-1-.1-2.2-.4-3.2-.7-1.2-.3-1.7-.9-2.2-2"/></g></switch></svg>
