<svg xmlns="http://www.w3.org/2000/svg" version="1.0" viewBox="0 0 220 129"><switch><g><path fill="#6ECEF2" d="M.1 0h219.8v128.9H.1z"/><path fill="#959595" d="M.1 83.8h219.8v45.1H.1z"/><path fill="#24A74A" d="M220 64.4c0-.1-.1-.1-.1-.2-1.3-2-6-1.9-8.7-2.2-3.9-.4-8-1.2-11.8-2.1-3.7-.9-6.3-1.8-10.1-1.1-4 .7-7.9 1.6-12.1 1.9-6.7.5-13.5-.3-19.9-1.3-6.3-.9-12.9-1.1-19.3-1.4-7-.3-14.2-1.5-21.2-1.3-9.1.3-18.1.8-27.2 1.1-18.7.5-37 .2-55 3.8-6.8 1.3-11.7-.9-18.5-1.3-4.5-.3-12.4 1.1-15.4 4H.1v.6H0l.1.1v18.8h219.8V64.5l.1-.1zm-93.3-.2H51.9c24.5-2.3 50.2-2.1 74.8 0z"/><path fill="#858484" stroke="#858484" d="M164.9 64.5c0 1.6-1.2 2.9-2.7 2.9-1.5 0-2.7-1.3-2.7-2.9 0-1.6 1.2-2.9 2.7-2.9 1.5 0 2.7 1.3 2.7 2.9z"/><linearGradient id="a" x1="171.444" x2="172.226" y1="72.268" y2="63.324" gradientUnits="userSpaceOnUse"><stop offset=".018"/><stop offset=".253" stop-color="#2e2d2e"/><stop offset=".768" stop-color="#8d8b8d"/><stop offset="1" stop-color="#b3b1b3"/></linearGradient><path fill="url(#a)" d="M165.1 71.2l13.7 1.7v-8.2l-14-2z"/><path fill="#454646" stroke="#454646" d="M157.7 72.8l.6-1.4-.6 1.4z"/><path fill="#17160F" stroke="#17160F" d="M190.5 75l-3.5.1-1.2-.6-27.4-3.1-.7 1.4 22.6 2.9 11.3 2.7"/><path fill="#292728" d="M182.7 110.1s-.4 5.7-5 8.9c-4.6 3.1-20.1 2.5-20.1 2.5l-9.2-4.2 34.3-7.2zM60.5 108s.3 5.7 4 8.9c3.7 3.1 16.2 2.5 16.2 2.5l7.4-4.2-27.6-7.2z"/><path d="M75.7 59.3s4.4-4.6 5.2-4.6c11.1.2 87.6 3.8 89.1 4.6 1.6.9 8.1 8.4 8.1 8.4l4.3 7.3s-24 9.7-25.3 9.7c-1.3 0-40.9.7-40.9.7l-32.6-.7-13.2-9.6-5-4.5"/><path fill="#C9CAC7" d="M70.2 60.7s-3 3.1-5.2 6c-1.6 2.1-2.4 4.1-3.1 4.9-1.8 1.9-2.2 1.9-3.1 4.1-.9 2.2-1.7 6.8-2.1 9.7-.4 2.8 0 8.9 0 9.7 0 .9 1.5 6.6 1.5 6.6s-.3 4.6 2.2 6.3c2.5 1.7 8.2 4.2 15 5.2 6.8 1 12.7 2 12.7 2l2.6.9s1.3.4 4.3 1.1c3 .7 24 1.9 29.4 2 5.5.1 20.6-.4 23.8-.7 3.2-.3 7.9-.7 8.9-1.2.9-.4 3.8-.3 3.8-.3s11.1-1.3 14.1-2.2c3-.9 6.4-2 8-2.7 1.5-.7 3.6-2.7 3.6-2.7s.1-7.6.9-8.9c.8-1.3 1.2-7.6 1-8.2-.2-.6-.9-3.3-1-3.9 0-.6-.3-10.2-2-12.6-1.7-2.4-10.6-10.5-11.3-11.6-.8-1.2-2.6-4.3-2.6-4.3H170v2.6s1.7.3 1.5 1c-.2.7-1.5 1.6-1.5 2v2.3s2.2 1.1 2.2 2c0 .9 1.5 4.2 1.5 4.2l1.3 1.6s-.8-2.6 0-2.4c.8.1 1.7.1 2.5.3.8.1 1.9 0 1.9 0s-9.2 7.2-12.1 8.2c-2.8 1-2.6 1.9-2.8 3-.2 1.1-1.9 2-1.9 2s-1.3 1.3-4.5 1.6c-3.2.3-15.7.7-16.8.7-1.1 0-9.2.7-10.9.7-1.7-.1-4-.9-5.9-.8-1.9.1-4 1.2-4.5.8-.6-.4-23-1.8-23-1.8s-9.6-1-10.2-1c-.6 0-2.5-.4-2.5-.4S73.8 76 71.7 74.5c-2.1-1.4-2.9-2.9-4-2.9h-2.8l5.3-10.9z"/><path fill="#BFC0BC" d="M73.1 52.3c-.3.2-.7.4-1.2.4-.9-1.8-1.1-2.6-4-2.6-1.2 0-5.8-.3-5.9.9 1.8-.4 5.9-.6 7.7.1 1.2.4.7 1.4 1.1 2.1.7 1.3 1.5.2 2.7-.2-.2-.2-.4-.5-.6-.7-.2 0-.4.1-.6.2"/><path fill="#BFC0BC" d="M71.5 58.7c.7-1.8 2.3-3.6 1.7-5.4-.6.2-1.1.5-1.6.7-.9.5-.8.6-1.2 1.3-.1.2-.7 1.2-.9 1.2-.5.2-1.2-.1-1.8-.2-2.6-.6-5.1-1.3-7.4-2.3-.5 1.3 4.3 2.1 5.3 2.3 2.1.4 4.4 1.1 6 2.2"/><path fill="#EFEFEF" d="M71.1 54.2c-.9-.6-.5-1.1-.9-1.9-.3-.7-1.1-.9-2-1.1-1.9-.4-4-.5-5.9-.2-1.2.2-1.4.3-1.6 1.2-.1.4-.3 1.6-.1 1.9.5.6 1.9.6 2.7.9.9.2 1.6.6 2.4 1 .8.3 2.9 1 3.8.5.5-.3 1.3-1.9 1.6-2.3"/><path fill="#DFDFDD" d="M74.5 57.4l-6 14.9s-.7.2-1.7 0c-1-.1-2.3.1-2.3.1l5-10.7 4-5.8 1 1.5z"/><path fill="#F8FBFB" d="M68.5 72.4s-.9-1.7-4 .1c-3 1.8-4.3 6.1-4.3 9.3.1 3.2-.3 5.3 1.7 6.8.6.5 3 1.9 5.9 2.8 6.4 2 15.7 3.8 16.8 3.8 1.7 0 3-.6 3.4-1 .4-.4-1.9-4.9-3.8-7.8-1.9-2.9-7.4-8.2-10.1-10.1-2.6-1.9-5.6-3.9-5.6-3.9zm94.9 23.5s-1.7-1.2 0-4.5 9.1-13.7 12.6-15.1c3.6-1.4 4.3-2.4 6.4-1.4 2.1 1 4.2 5.6 4.5 6.6.4 1 .9 7.2 0 7.9-.9.7-5.8 2.7-10 3.9-4.1 1.2-9.4 2.2-10.8 2.6-1.2.5-2.7 0-2.7 0z"/><path fill="#BFC0BC" d="M171.7 52.5c1.9-.2 6.3-1.2 7.8.3-1.9 1.7-7.5-.8-8.5 2 .1-.9.3-1.7.9-2.4m-1.3 5.4c3.8.1 7-1.2 10.5-1.8-.3 2.8-8.5 3-11.1 3.3.1-.4.2-1 .3-1.4"/><path fill="#292728" d="M59.2 95.6c.8-2.6-.5-6.5-.7-9.2-.1-1.4-.1-3.1-.1-4.3.1-2.2 1.7-4.4 2-6.6-1.8.5-1.2 3.5-1.4 4.8-.3 1.7-.9 3.3-1.3 4.9-.8 2.8-.9 8.1 1.9 10.3m27.7 4.2s-1.3-2 0-2 2.5 1 2.5 1l3.4 7.9s.8 3.9 1.7 4.7c.9.9 3 2.4 3 2.4s-1.3 1.4-2.3 1.3c-.9-.1-4-5.5-5.3-7.5-1.3-1.9-3-7.8-3-7.8zm38.7 2.1s-.4 1.3 0 1.1c.4-.1 21.1-.6 22.5-.6 1.3 0 1.3 5.3 1.3 5.3l7.2-.7s3.4-6.5 3.6-7.8c.2-1.3 3.8-.9-3 0s-17 1.7-20 1.7-8.9.6-9.4.4c-.7.1-2.2.6-2.2.6z" opacity=".25"/><path fill="#292728" d="M85.3 112.3l-4-4.6s-17.9-7.2-18.9-7.5c-.9-.3-2.2-1.8-2.2-1.8l1.8 6.9s-.9.8 4.2 2.3c5.1 1.6 10.2 3 10.2 3l5.1 1.6h3.8zm77.3 1.5c.9-.3 4.7-5.2 4.7-5.2s9.1-2 11.3-3.2c2.3-1.2 5.5-4 6.4-3.5.9.4 0 4.5-1.3 5.9-1.3 1.4-8.7 3.9-8.7 3.9l-7.3 2.2h-5.1z"/><path d="M86.8 89.6l1.4 1.6s1.4.1 4.2.6c2.7.4 12.2 1.3 14.5 1.7 2.3.4 12.5 1.7 13 1.6.6-.1 11.7 0 11.7 0s18.1-1.7 20.4-1.9c2.3-.1 9.8-.9 9.8-.9l1-1.3s-26.2 2.4-28.3 2.4h-3.4s-16-.9-19.4-1.2c-3.4-.3-4-.3-7.4-.7-3.4-.4-11.2-1-11.8-1.3-.7-.3-2.9-.8-2.9-.8h-2.8z"/><path d="M160 96.1V95s-.8-.7-4.5 0c-3.8.7-9.4.7-14 1.1-4.5.4-13.6 2.2-16.8 1.5-3.2-.7-33.6-3.7-33.6-3.7h-1.5l.9 1.2s14.7 2.2 26.6 3.3c11.9 1.1 20 .8 23.6 0 3.6-.8 11.7-.3 12.8-.8 1.2-.4 6.5-1.5 6.5-1.5z"/><path d="M160.8 93.9l.9-1.6s-15.3 1.9-21.7 2.8c-6.4.9-19.8.1-21.5-.1-1.7-.2-17.1-2.2-17.1-2.2s-7.9-.9-9-1c-1.2-.2-2.7 0-2.7 0v1.3s20.6 3.1 24.9 3.1c4.3 0 10.6.4 14.7.4h11.1c5.5 0 11.7-1 12.3-1.1.5-.1 8.1-1.6 8.1-1.6z"/><path fill="#292728" d="M100.5 107.7s-2.3-5.3 0-5.9c2.3-.7 15.1 1.8 17.2 1.3 2.1-.5 11.3-.2 14.9-.3 3.6-.1 9.1-.2 10.2-.2 1.1 0 7-2.2 7.2-.7.2 1.5.6 6 .6 6l-1.7.7-.6-5.4s-19.5.8-23.2.8c-3.7 0-16.2-.7-17.3-.8-1.1-.1-5.9-1.8-5.9 0s-.2 5.4-.2 5.4l-1.2-.9zm62.1-9.3c.4.1 1.5.7 1.5.7s5.3-.6 9.1-1.5 6.2-1.6 7.9-2c1.7-.4 3.2-1.1 4.4-1.7 1.1-.6 2.8-2.2 2.8-2.2v-2.1s-.8-.3-2.1.4c-1.4.6-9.2 5.4-12.1 5.1-2.9-.3-7.6 1-8.6 1s-1.5.4-1.5.4l-1.4 1.9zm-75.8-2.8l1.4.5s.9.7 1.5.4c.6-.3 1.1.4.6-.3-.6-.7-2.1-2.2-2.1-2.2l-1.3 1" opacity=".25"/><path fill="#F8FBFB" d="M70.1 71.9c.4-.1 2.1.1 2.4 0 .3-.1 1.5-4.8 1.8-5 .3-.2.7-1.4.7-1.7.1-.3 0-1 0-1h-1.3l-.7.9s-1.3 2.4-1.2 2.5c0 .2-1.7 4.3-1.7 4.3z" opacity=".21"/><path fill="#F8FBFB" d="M69 72l1.1-.1 3.7-8 .4-3.7-.5-.7-3.2 7.7-1.4 3.6z" opacity=".21"/><path fill="#47464A" d="M76.3 75.5s-1.3-.8-.9-1.1c.4-.3 3.2-1.1 3.6-.7.4.3.8 1.7 1 1.8.1.1 0 1.2 0 1.2h-1.5s-.9-.3-1.2-.6c-.3-.1-1-.6-1-.6zm14.5-8.1v2.3s-3.8.8-5 1.1c-1.2.2-5 .7-5.8.9-.7.2-1.1.3-1.2 0-.1-.3-.1-1.3 0-2s0-1.2.4-1.5c.4-.4 11.6-.8 11.6-.8z"/><path fill="#47464A" d="M75 74.1c0-.2 1.2-3.6 1.6-4 .4-.3 1.2-1.4 1.8-1.6.6-.1.4 1.3.4 1.3l.5 1.8v2.1s-1.6.4-2.2.4H75z"/><path fill="#242329" d="M93.9 75.5c-.2 0-2.5-.1-3.6-.3-1.1-.2-1.8-1.1-1.9-1.1-.1-.1.3-.3-.3-.4-.6-.1-1.7-.3-2.3 0-.6.2-1.4 1.3-1.4 1.3s.3.6.3.8c0 .2.3 1.3 2.9 2 2.6.6 3.8.7 4.6.6.8-.2 2.3-.2 2.3-.2s.1-1.6 0-1.8c-.1-.3-.6-.9-.6-.9z"/><path fill="#65656B" d="M81.8 71.8c.2.1.4.7.4.7s-.1.9 0 1.1c.1.2.4.3.6.1.2-.1-.1-.4.7-.9.8-.5 1.5-1 1.9-.8.4.2 1.3 0 1.3 0s.5-.4 0-.6c-.5-.2-.8-.6-1.4-.5-.6.1-1.9.2-2.1.5-.2.2-.7.6-.7.6l-.7-.2z"/><path fill="#47464A" d="M83.9 75.5l-.3-.3c-.1-.2 0-.8 0-.8s-.2.1-.5-.3 0-.1 0-.6.8-1.1 1.2-1.2c.3-.2 1.1-.3 1.1-.3s.8-.4 1.3 0l.5.4s.9.4.9.6v.7s-1.2-.2-1.9 0-1.3.7-1.4.9c-.1.2-.1 1-.1 1h-.8zm10.1-.3c.4-.1 3.2-.5 3.2-.5s4.7-.1 4.9 0c.2.1.7 1 .5 1.5-.1.5.5 1.2 0 1.3-.5.2-3.2 1.1-4.2 1-1-.1-3.8-.2-3.8-.2s.1-1.4 0-1.7c-.1-.3-.6-1.4-.6-1.4z"/><path fill="#65656B" d="M86.1 67.4c-.3-.3-.3-.7-.8-1-.4-.2-1-.5-1.5-.6-1.2-.3-2.3-.5-3.5-.1-1.6.5-5 2.1-3.1 3.5.2-.4 1-.9 1.5-.7.2-1.1 2.5-.9 3.5-.9 1.4 0 2.7-.2 3.9-.2"/><path fill="#47464A" d="M96.9 73.9c.2.7 2.4-.1 2.7-.5.6-.8-.4-1.9.4-2.6.8-.7 2.3-.7 3.2-.2.5.3.9.4 1.4.6.7.3.4.6.3 1.1-.1.4 0 .7 0 1.1-1.1.4-3.8.8-5 .4.1.8 6.1-.1 7-.1 1.3 0 2.4-.1 3.8-.3 1.5-.3 3 .1 4.5.2 1.2.1 2.4.2 3.6.2 1 0 2.7.5 3.6.2.7-.2.3-.6.5-1.1.2-.5.8-.5 1.4-.6 1.3-.1 2.7 0 4 .2.9.1 3 .5 3.6-.2.5-.6-.2-2.1-.6-2.7-.6-.8-1.4-1.3-2.6-1.5-1.7-.4-3.8-.3-5.5-.5-2.2-.2-4.7-.3-6.9-.2-2 .1-3.9 0-6 0-3.6.1-7.2-.5-10.8-.2-1.5.1-1.9.9-1.7 2 .2.9-.4 1.7-.4 2.6-.3-.1-.7 0-.9.2-.1.1.1.3 0 .4-.1.1-.3.1-.4.2-.5.5-.4.6.1 1.1.4 0 .6.2.9.3"/><path fill="#65656B" d="M109.9 76.5c1.3-.2 2.6.1 3.9.4.6.1 1.5.4 2.1.4.6-.1.7-.4 1.2-.6.3-.1 1.5 0 1.5-.3 0-.4-1.3-.2-1.6-.3-.7-.2-.6-.4-.9-.9-1-1.7-5.5-1.3-7.4-1-1 .2-1.9.3-2.9.3s-2-.1-2.9 0c-.5.1-.9.1-1 .5 0 .2.4.7.5.9.1.3-.1 1.4.3 1.6.3.2 1.7-.4 2.1-.5 1.8-.3 3.5-.3 5.1-.5z"/><path fill="#EAB51F" d="M104.7 71.4c-1.2 0-2.3-.2-3.4-.1-.6.1-.9.2-.7.7.1.3.4.9.7 1.1.7.4 2.2.3 2.9.1.7-.1.9-.3 1-.8 0-.4-.1-.9-.6-.9m20.5 4c-1.1-.3-2.1.2-1.6 1.1.2.3.8.6.9.8.2.4-.4.7-.7.9.2.3 1.5.4 1.9.2.3-.1.3-.4.4-.6.3-.4 1.4-1.5.5-1.9-.5-.2-1.4.4-1.6.7-.3.6.5.8.9.3.3-.3 0-1.1-.7-.8"/><path fill="#47464A" d="M110.4 77.6c-.7.8 2.1 1.2 2.8 1.4.5.2 1.1.5.4.9-.4.2-1.7 0-2.2-.1-1.3-.1-2.1-.8-3.4-.3-.8.3-3.4.7-1.9-.6.5-.4 1.4-.8 2.1-1 .4-.1.9-.3 1.3-.3s.9.2 1.2.1"/><path fill="#CDDEF2" d="M80.7 57.6s17.5-5.2 37.9-4.4c20.4.8 37.9 3.7 37.9 3.7 4.1.8 8.6 2.5 9.2 2.9.6.4 1.9.5 2.5.4.6-.1 1.6.1 1.1 0s-.8 1.3-.8 1.3-.4.5-1.3.8c-.9.2-2.2.7-2.1 0 .1-.8-2-1.3-2.9-1.4-.9-.2-4.3-.1-4.9-.4-.6-.3-3.7-.9-4.4-1.3-.7-.3-8.9-.6-9.2-.6-.3 0-16.8-.6-19.7-.7-3-.1-15.6-.2-16 0-.4.2-.1 1.1-1.3.7-1.2-.4-1.7-.4-1.9-.7-.2-.3-8.5-.2-9.2-.3-.7-.1-5.1.2-5.7 0-.6-.2-5.8 0-6.1 0-.2.1-3.1 0-3.1 0z"/><path fill="#47464A" d="M168.9 69.8c.2-.1.4-.4.6-.5-.7-.3-1.5-.1-2.2 0-1.2.1-2.4 0-3.5-.1-1 0-4.3-.4-4.7.5-.1.2.4 1.1.5 1.4.1.6.1 1.3.2 1.9.1.6.2 1.2.5 1.7s.9.9 1 1.5c1.9.1 3.6.1 5.4 0 1 0 2-.1 3-.1 1.4 0 .9.4 1.7.9 1.6 1 2.5-.7 1.8-1.7-.8-1.1-.9-2.1-1.7-3.2-.5-.7-1.3-2-2.3-2.4"/><path fill="#EFEFEF" d="M145.2 69.6c-.3-.3.6-2.5 1.3-2.8.8-.3 4-.6 4.9-.2.7.2.5.7 1.6.7.8.1 1.5 0 2.3.2 1.3.4 2.7 1.6 1.8 2.8-.5.6-5.2.5-6.4.5-1.7 0-4.8.1-5.9-1"/><path fill="#65656B" d="M134.2 77.1c1.6-2.2 7.5-.1 7.8-2.6.2-1.1-.9-2.3-1.6-3.3-.7-1.1-1.8-2-3.5-1.6-1.4.3-2.5.8-1.5 2 .8.9 2.2 1.2 2.8 2.1-.2.7-1 .5-1.6.6-.7.1-1.4.3-2 .6-1.1.4-3.1 1.2-2.3 2.3.6-.1 1.4-.2 2.1.1m1.4-.1c1.1 0 2.1.1 3.2.1 1.3 0 1.8.1 1.5 1.2-.3 1-.9.8-2.1.7-1-.1-2.1 0-3.1 0 0-.8-.1-1.8 1.2-2"/><path fill="#171518" d="M152 70.3c.3.2-.1 1.6-.3 1.9-1.6 0-3.6-.1-5.1-.2-.7-.1-1.1 0-1.4-.7-.1-.3-.1-1.3 0-1.6.9.5 2.3.3 3.3.4.8 0 3.2-.1 3.5.4"/><path fill="#EAB51F" d="M152.1 65.6c0 .4-.1 1 0 1.4 1 0 1.9.5 2.8.4.9-.1 1.6-.8 1-1.4-.9.4-2.9.4-3.7-.2"/><path fill="#47464A" d="M140 69.3c-.1-.5-.5-1.2-.7-1.8.3-.1.8.1 1 .4.2.2-.1.6 0 .8.4.5 1.7 0 1.9.6h-.5c.4.7 1.8 1.2 1.5 2.1-.2.5-.5.4-.2 1.1.2.5.5.9.7 1.4.3 1 0 2 .3 3 .2.6.5 2.5 1.2 2.7.3-.2.7-.5 1.1-.6.1.3.2.6.2.9-1.7.4-2.2 0-2.9-1.2-.6-.9-1.1-1.6-1.1-2.6 0-.5.3-1.2.1-1.7-.1-.3-.5-.3-.6-.4-.1-.3.1-.3 0-.5 0-.1.2-.3.1-.5-.2-.4-.5-.2-.7-.4-.4-.3-.5-.8-.9-1.1.5-.2 1.2-1.1.8-1.4-.6-.5-1.8.2-2.4-.3.3-.2.8-.1 1.3-.2 0-.4-.3-.6-.6-1m-5.9-.4c.9.2 2.5.6 2.9 1.3-.2.1-1.3.7-1.5.7-.6 0-.7-.9-1.2-1.2-.6.1.2 1.9-.8 1.4-.1-.6.2-2.1.7-2.5.2.2.4.5.4.7"/><path fill="#65656B" d="M128 67.6c.7.4 1.9.2 2.8.3.8.2 1.8.5 2.6.7-.3.5-1.5.6-1.8 0 .1 0 .2 0 .3-.1m-16.4-3.6c2.2 0 4.3-.1 6.4.2-.5 1-1.8 0-2.6.5 0 .4-.7.8-1.2 1.1-.8.5-.7.3-1.7.1.8-.1 3.1-.8 1.4-1.1-.8-.1-3.7.2-2.2-.9"/><path fill="#47464A" d="M132.3 76.1c-1-.2-2.4-.7-3.6-.9-1.1-.2-2.3-.5-3.6-.5.1-.3.3-.7.6-1 1.4.3 1.4-.4 1.3-1.1-1.2.1-2.9-.6-3.9.2-.8.7 1.1 2.2-.6 2.4-.6.1-1.3-.3-1.9-.4-.7-.1-1.4-.1-2.1-.1-1.9.2-1.3 1.2.1 1.5l-.1.1c.5 1 1.1 1.6 2.1 2.4 1.4 1 2.6.8 4.5.9 2.7.1 6.6.6 8.8-1.1.3-.3.7-.9.8-1.2-.7-.1-1.7 0-2.3-.3-.7-.2-1-.9 0-1.1"/><path fill="#47464A" d="M114.8 78.4c1.1 0 .9-.9 1.6.4.2.4 1.1 1.5 1.6.7.1-.2-.2-.7-.2-1 .1-.3.5-1.1.8-1.4-.3-.4-.2-.9-.8-.8-.5.1-1.1.9-1.4 1.2 0 0-1.8-.5-2.1-.3-.5.3-.1 1.2.5 1.2z"/><path fill="#65656B" d="M145.9 68.7c0-.2-.3-.6-.2-.9.1-.3.6-.5.7-.8-.5-.1-5.7-.7-4.2-1.6.6-.4 3.1-.1 3.9-.1.6 0 2.5-.1 2.1.6.8-.1 2.3-.2 3.2 0-1.3.2-3 .1-4.1.8-.7.5-.7 1.6-.7 2.3-.3 0-.7-.1-1-.2"/><path fill="#171518" d="M122.9 65.9c-.6 0-1.3 0-1.8.2.3.7 1.6.2 2.4.3v.2c.7 0 2.1-.1 2.7-.3-.6-.6-.5-.9-1.6-.6 0 .1-.1.2-.1.3.1.1.1.2.2.3-.5-.1-1.2 0-1.7-.2.4-.4 0-.9-.6-.5.2.1.2.3.3.5"/><path fill="#65656B" d="M133.7 66.4c1-.2.4-.8-.3-1-.8-.2-1.9-.1-2.8-.1-.9 0-1.7 0-2.6.1-1.3.1-.8.1-1.1.9h-.4c0 .5.6.4 1 .3.3.2.7 0 1.2.2 0 .2-.1.4-.3.5-.5-.1-.8-.4-.7-.7-.9.3-.8.8 0 1 .6.1 1.5 0 2 .1-.2-.1-.5-.4-.5-.7.6 0 1 .1 1.5.1 0 .1 0 .2.1.3.9-.3.9-.1 1.5.3.1 0 .4 0 .5-.1.1-.3.4-.5.8-.4 0-.2 0-.5-.2-.7"/><path fill="#F8FBFB" d="M77.8 59.8c3.7.5 8 .9 11.9.8-.7.8.7 1.8-1.3 1.9-2 .1-4.1 0-6-.1-1.1-.1-3.1.1-4-.4-1.1-.5-1.1-2.1.1-2.6" opacity=".21"/><path fill="#EAB51F" d="M155.9 66c.5-.7-3.4-1.2-3.8-.6-.6.7 3.2 1.1 3.8.6"/><path fill="#F8FBFB" d="M152.6 62.7c-.5 0-.8.2-1.2.4.1.1.3.3.5.4-.1.1-.1.2-.2.2.2 0 .3.2.5.2 0 1.5-2.6.9-3.8.7-3-.3-6.1-.3-9.2-.4-6.8-.2-13.6-2.1-20.4-1.7-2.9.2-5.9.2-8.9.2-2.3 0-4.4.2-6.6.3-1.8.1-3.7 0-5.5.1-1.7.1-3.4.3-5.1.3-.7 0-2.7-.1-3.1-.5-.4-.3 0-.6.1-1s.1-.7 0-1.1c3.3 0 6.6-.4 9.9-.3 2.3 0 4.5-.1 6.8-.1-.2-.4-.3-.9-.4-1.3.6-.2 1.8-.2 2 .1.4.7-.7 1 .7 1.1 1.8.1 3.8-.2 5.7-.2 3.8.1 7.5.3 11.3.3 3.3 0 6.4.2 9.7.5 3.7.3 7.2.4 10.8.8 1.6.2 5.3 1.2 6.5.7" opacity=".21"/><path fill="#47464A" d="M145.9 78.8c-.3-.4-.6-1.5-.8-2-.3-.8 0-1.2.8-1.7.4-.3 1.6-.8 1.6-1.3 0-1-1.8-.4-2.5-.6.1-.3.1-.7.4-1 1 .2 5.7 1.5 6.3.4.2-.4-.8-1.7 1-1.3 1 .2.1 1.4-.2 1.9.6.5 3.3.3 4.1.2-.1.3.1 1-.2 1.2-.3.2-1.2.1-1.6.1 1.3-.2 2.8-.1 3.3.9.9 2.1-2 .5-2.9 1.4.1.1.2.3.4.4-1.5-.3-3.1-.2-4.7-.1-1.4 0-3.1.1-1.9 1.5-.5.1-1 .1-1.6.2 0 .1 0 .2.1.3-.6-.1-2-.2-2-.7"/><path fill="#65656B" d="M162.2 67.7c.8-.1 4.4-.3 3.7 1-.6 1.1-3.9.4-5 .5-.5 0-2.1-.1-2.6.1-.6.3.1.9.2 1.3.2.7 0 1.2-.4 1.8-.7 1.2-.9 1.9.4 3 .7.6 2 1.1 3 1.2.4-1.1-1.9-1.9-2.3-2.8-.5-1.2.6-2.6-.1-3.7-.2-.3-.6-.9-1.1-.4-.3.3.3 1 .4 1.3.2 1-.5 1.3-1.6 1.6-1.1.2-3.1.6-4.2.4.1-.5.7-.8.6-1.4 0-.1-.8-1.1-.8-1.1 1.5-.4 3.8.5 5.1-.3-.2-.9-1.3-1.7.3-2.1 1.2-.2 2.9-.1 4.4-.4z"/><path fill="#47464A" d="M170.3 76.4c.2 0 .5.7.7 1-1.1.5-1.8 1.2-3.1 1.5-.8.2-1.7.1-2.5.2s-1.7.3-2.6.4c.1-.3.1-.7.2-1 .1-.2.8-.6.8-.7.2-.7-1.1-1-1.8-.9 0-.9 3.6-.4 4.4-.4 1.1 0 2.7 0 3.7-.2"/><path fill="#EFEFEF" d="M171.6 53.8c-.6.3-.3 1.1-.4 1.6-.1.5-.6 1.2-.5 1.7.3 1.2 3 .4 4.2.2 1.5-.2 3.4-.4 4.8-.9 1.3-.4 1.2-2 .4-2.7-1.2-1-9.4-1-8.6.6"/><path fill="#47464A" d="M170.7 59.5s1-9 2-11.4c1-2.3 2.7-7.2 2.7-7.2l1.7-3.7.6-1.3s-4.6-6.8-5-7.4c-.4-.6-97.5-.3-97.5-.3s-5.1 3.9-4.8 4.3c.3.4 2.4 17.6 2.4 17.6l1.5 7.1V59s.6.3.9 0c.4-.3 2.8.2 3.7-.3.9-.5 3.9-.9 3.9-.9s14.1-5.5 43.1-4.4c28.9 1.2 29.6 2.6 33.4 3.5 3.7.9 9 2.6 9.6 2.9.6.4 2 .4 2 .4l-.2-.7z"/><path fill="#F8FBFB" d="M76.8 50.2c-.7-.8-.2-3.6 0-4.7.2-1.7.3-3.3.4-5 .2-3.4-.4-6.8.3-10.2-4.6 1.6-2.8 6.7-2.8 9.8 0 1.9-.1 3.9.4 5.7.4 1.6 1.6 3.6 1.7 5m87.5 7.9c-2.5-.1-6.2-2.3-8.5-3.3-3-1.3-6.5-1.7-9.8-2.4-9.1-1.8-19.4-1.5-28.9-1.8-4.6-.2-9.6.3-14.1.8-4.4.5-8.6.3-12.9.9-3.3.5-6.1.8-9.2 1.7-1.9.6-6.2 1.2-7 2.8-.1.2-.3.5-.4.7 2.6 1.1 5.6-1 8-1.6 3-.6 5.9-1.6 9.1-2.2 6.3-1.2 12.8-1 19.2-1.4 6.3-.5 12.7-.2 19.1 0 7.1.3 14.7.9 21.5 2.3 2.4.5 5 1.1 7.2 1.9 1.6.6 5 1.5 6.4 1.4" opacity=".21"/><path fill="#F8FBFB" d="M76.6 28.2c1.1 0 2.1.3 3.1.1-1 .8-1.6 1.7-2.8 2.3-1.2.7-2.9 1.1-2.5 2.4-1.7-1.7.3-4 2.7-5m2.7 16.2s.5 1.6 3.6 2c3.1.4 73 1.7 73.3 1.9.3.1 4.3.3 6 0 1.7-.3 3.4-1.9 3.4-1.9s.6-.7.9 0c.4.7 2.6 2.2-1.7 2.9-4.3.7-37.4-.9-44.1-.9-6.7 0-35.7.4-38.5-.1-2.7-.6-4.6-1.2-4.7-1.9-.1-.7-1-2.9 0-3.3 1-.4 1.8 1.3 1.8 1.3zm85.5 6.6s-1.7-.4-2.1-.1c-.4.4-2.3.8-1.5 1.3.9.5 3.3 1.3 3.5 1.2.2-.1.8-1.3.8-1.3l-.7-1.1z" opacity=".21"/><path fill="#F8FBFB" d="M80.4 53.9c0-.5-.6-2.8 1-3.3s79.4 1 80.4 1.4c1 .5.4-1.2 1.5-1.3 1-.1-.8-.6-.8-.6s-80.8-1.6-82.7-.8c-1.9.8-2.6 1.1-1.8 1.9.8.8 2.4 2.7 2.4 2.7zm90.3 5.6l-1-1.8 1.4-1 1-8.1s1.2-8.8 1.3-9.2c.1-.4 0-1.9 0-1.9s1.9-2.7.1-2.2c-1.8.6-1.3 1.3-1.5 1.9-.2.6.8 1.7.8 1.7l-1.7 9.1s-1.5 3.3-1.3 4.1c.2.8-1.9.9-.9 1.2 1 .3 1.6-.2 1.4.7-.2.9-1.4 2.7-1.4 2.7V60l1.8-.5z" opacity=".21"/><path fill="#F8FBFB" d="M74.9 52.2c3.2-2.5 3 .9 5.4 1.7 0-2.4.2-3.9 3.6-3.6 3 .2 6.3.4 9.3.4 5.7 0 11.5-1.2 16.9 0 .3 2.4-20.2 2.1-22.8 2.4-3.1.4-5.9 1.5-8.7 2.6-1.5.6-2.4 1.3-3-.3-.2-.7.1-1.1 0-1.7-.1-.4-.8-1-.8-1.4 0-.6.6-1.3 1.5-1.5 1.5-.2.7.6 1.7.9" opacity=".21"/><path fill="#292728" d="M75.7 76.7c.6.2 4.7.9 5.3 1.3.7.4.7 1.1.7 1.1s-.1 1 .4 1.4c.5.4 3.5 1.2 3.5 1.2S82.5 81 84 80s1.5-1.8 2.5-1.3c1 .6.7 1.5.7 1.9 0 .5.3 1.7.5 1.1.3-.7.7-2.3.7-2.3l.4.4c.3.3.7 1.5.7 1.5s11 1.4 13.6 1.6c2.6.2 5.4 0 5.4 0l2 1s6.3.8 10.7.7c4.4-.1 10.5.6 12.4.4 1.9-.2 4.1.5 4.5 0 .4-.4.2-.8 2.6-1.1 2.5-.4 4.4-.8 5.4-.9 1-.2 1-.5 3.6-.4 2.6.1 7.8-.3 8.7-.4.9-.1 2.7-1.3 2.7-1.3s1.3-.9 1.7-.3c.4.6.8 1.2 1 .9.3-.3 2.3-1.1 2.3-1.1V80s-.2.8.6 1.6c.8.7-2.5 2.1-2.2 2.5.3.4 1.2 4-4.3 4.5s-28.3 1.8-29.3 1.7c-1-.1-4.2-1.3-6.7-.7-2.4.6-4 .7-4 .7s-14.8-1.3-18.9-1.5c-4.1-.3-15.8-1.5-16.3-1.6-.5-.1-1.3-1-4.1-3.7s-5-5.4-5.7-6c-.8-.5 0-1.2 0-1.2"/><path fill="none" d="M81.4 78.4c.7.1 2.8-.5 3-.1.2.3-.5.2-.7 1-.3.8 0 1.1 0 1.1l-1.9-.6-.4-1.4z"/><path fill="none" d="M81.6 79c.3-.4 2.4-.8 3-.6-.3.5-1.5 2-2 2-.9.1-1.5-1.6-1-2.1"/><path fill="#47464A" d="M165.7 79.6c.2-.4.6-1 1.1-.8.5.2.2 1 .3 1.3.8-.1 1.6-.4 2.2.2-.4.4-1.1.4-1.7.6.1.1.2.3.2.4-.9.4-2-1-2.5-1.3"/><path fill="#47464A" d="M172.4 77.6c-1 .1-4.2.8-4.1 1.8.2.1.4.2.5.2-.1.1-.2.2-.2.3 1.3.2 4-1.2 3.5-2.1"/><path fill="#F9A11E" d="M180.7 80.2c-1.5-2.6 4.3-2.9 3.2.7-1 .1-2.6.3-3.7 0M68.8 78.4c1.9-3.1-7.5-3.3-5.9 1 1.1.3 2.1.1 3.1-.3"/><path fill="#292728" d="M71.7 87.8c-1.5 7.7 13.7.7 7.2-3.1-.1 3.3-2.5 5.6-7.2 4.2m98.8-2.4c2.6-.3 6.1 1.1 4.6 3.5-1.4 2.2-5.3.6-6.8 2.1 2.6 1.2 8.9.5 8.8-2.6-.1-2.3-6.9-4.9-8.4-2.4" opacity=".22"/><path fill="#CDDEF2" d="M85.6 86.5v3.4l34.9 2.9s6.1 4.2 8.1 3.1c2-1 3.9-3.1 3.9-3.1l31.8-2.9 1.7-3.4s.9-.3-1.7 0c-2.6.4-34.4 3.3-38.4 3.4-4.1.1-40.3-3.4-40.3-3.4z"/><path fill="#292728" d="M130.4 91.9c0 1.7-1.7 3.1-3.7 3.1s-3.7-1.4-3.7-3.1c0-1.7 1.7-3.1 3.7-3.1s3.7 1.4 3.7 3.1z"/><path fill="#292728" d="M156.2 97.1c2.2-1 3.7-2.7 5.6-4.1.3 1.5.9 3.4 2.1 4.7-2.3 1.2-6.6 1.2-8.6-.3" opacity=".25"/><path fill="#292728" d="M95.9 106.2l62 1.4s-3.5 5.2-6.6 6.6c-3.1 1.4-47.1 2.1-51.2 0-4.2-2-4.2-8-4.2-8z"/><path fill="#F8FBFB" d="M148.1 110.2h-26.8c-7 0-18.9 1.7-19.2 0-.4-1.7-1.9-6.3-.2-7.1 1.7-.8 3.2-.1 7.7.1s11.5.7 15.4.7c4-.1 10.6-.3 12.3-.4 1.7-.1 9.1-.3 10-.4 1 0 1 .4 1.1.9 0 .4-.3 6.2-.3 6.2z"/><path fill="#93938E" d="M88.6 79.2l2.3.2v1l1.5-1c0 .1 1-.1 1.7 0 .6.2 1.4.1 1.7.4.2.3 1.5.2 1.5.2s.2-.7.7-.5l.5.2s-.4.6 0 .8c.4.2 1.1 0 1.1 0s1-.7 1-.6c0 .1 6.5 0 6.5 0l4.3.1H124v.5l1.8-.1.4-.4s14.7.3 17 .5c2.3.2 5.3 0 5.3 0s3-.1 4.1-.1c1.1 0 4.6-.4 4.6-.4s1.7-.7 2.7-.2c1 .5 0 1.4-.9 1.6-.8.3-6.2.6-7.5.6-1.3 0-3.6.3-4.3.6-.6.3-1.4 1-3.2.8-1.8-.3-3-.3-4 0s-1.2.8-1.2.8-.7.9-1.1.3c-.4-.6-1.2-1.1-1.2-1.1h-2.4v1.1l-15.5-.5s-.2-1.2-1.4-.7-1.3.4-2 0-1.6-1.9-1.4-.8c.2 1.1-.9.5-1.3.8-.4.2-2.2 0-2.2 0l-1.4-.8s-12.3-1-14.3-1.2c-1.9-.2-5.3-.6-5.3-.6l-.7-1.5z"/><path fill="#454646" stroke="#454646" stroke-width=".25" d="M203.3 107.5c-.7 17-6.9 21.3-15.4 21.3s-15.4-6.2-15.4-21.3c0-11.6 3.4-20.4 15.4-21 11.6-.6 15.8 11.4 15.4 21z"/><ellipse cx="192.5" cy="107.5" fill="#3A3B3E" stroke="#3A3B3E" stroke-width=".25" rx="10.8" ry="20.6"/><ellipse cx="193.7" cy="107.6" fill="#454646" stroke="#454646" stroke-width=".25" rx="9.6" ry="19"/><path fill="#454646" stroke="#454646" stroke-width=".25" d="M203.3 107.4c0 8.9-3.8 16-8.5 16s-8.5-7.2-8.5-16c0-8.9 3.8-16 8.5-16s8.5 7.1 8.5 16z"/><path fill="#686D70" d="M200.1 107.6c0 7-2.9 12.7-6.4 12.7-3.6 0-6.4-5.7-6.4-12.7 0-7 2.9-12.7 6.4-12.7 3.5 0 6.4 5.7 6.4 12.7z"/><path fill="#0D0F10" d="M198.8 107.8c0 6.3-2.6 11.3-5.8 11.3-3.2 0-5.8-5.1-5.8-11.3 0-6.3 2.6-11.3 5.8-11.3 3.2 0 5.8 5 5.8 11.3z"/><path fill="#454646" stroke="#454646" stroke-width=".25" d="M197.3 108.4c0 5.9-2.4 10.7-5.3 10.7s-5.3-4.8-5.3-10.7c0-5.9 2.4-10.7 5.3-10.7 2.9.1 5.3 4.8 5.3 10.7z"/><path fill="#686D70" d="M192 100.4s.3-.8 0-1.2c-.3-.3-.9-.5-1.1-.3-.3.3-.4.6-.2.9.2.3.9.5.9.5h.4z"/><path fill="#EBEBF6" stroke="#EBEBF6" stroke-width=".25" d="M189.3 106.2s-.4-1-1.2-.8c-.8.2-.9.4-.9.7 0 .3-.4.6 0 .9.4.3.6.6 1 .5.3-.1.9-.3.9-.5.1-.2.2-.8.2-.8zm-1.6 4.6s.8-1.3 1.3-.9.9.9.7 1.2c-.2.3-.4.7-.7.7-.3 0-1 .2-1 0s-.2-.7-.2-.7v-.3z"/><path fill="#686D70" d="M190 115.3s.7 0 .9-.4c.2-.4.1-.8 0-.9-.1-.1-.5-.2-.9 0s-.3.5-.3.8c0 .3.3.5.3.5z"/><path fill="#0D0F10" d="M187 106.4c.1-.2 1.1 0 1.1 0v.2l-.8.2-.2.3-.2-.1.1-.6z"/><path fill="#0B0C0C" stroke="#0B0C0C" stroke-width=".25" d="M188.9 114.6s.5-.3.4 0c-.1.3.3.9.3 1 .1.1.5 0 .5 0s.8.5.8.7c.1.2.4.2.6.3.2.1.7.2.8.3.2.1.6-.2.7-.3.2-.1.6-.3.8-.3.2 0 .7-.2.8-.3 0-.1.3-.7.3-.7l.9-1s-1 1.8-1.2 2.1c-.2.3-.7.9-2 1.3s-2.1.5-2.2.4c-.1-.1-1.2-1.5-1.3-1.7-.1-.1-.5-1-.5-1l-.3-.8-.7-2.6-.2-1.7s.1-.7.4-.4c.3.3 0 .7 0 .7v1.4s.5 2 .8 2.4l.3.2z" opacity=".3"/><path fill="#0B0C0C" stroke="#0B0C0C" stroke-width=".25" d="M192.5 118.4v-.3s.3-.1.7-.3c.3-.2.6-.5.7-.6h.1s-.6.9-.7 1c-.2 0-.8.2-.8.2z" opacity=".48"/><path fill="#FFF" stroke="#FFF" stroke-width=".25" d="M194.8 100.6s-1.1-.3-1.8-.2c-.6.1-1.8.9-2 1.2-.2.3-.7.4-.7.4l-.4-.8s.9-1.1 1.1-1c.2.1 1.6-.7 2.4-.6.8.1 1.9.4 2.1.8.2.4.8.6.7.9-.1.4.1.9.1.9l-.3-.2v.3s-.7-1.3-.9-1.4c-.2 0-.3-.3-.3-.3z" opacity=".13"/><path fill="#FFF" stroke="#FFF" stroke-width=".25" d="M189.3 98.5v.3c0-.2.4-.9.9-1.5.4-.5.9-.8 1.5-.8 1.3 0 2.6.1 3.3.7.7.6 1.8 2.1 1.8 2.1s-.3-1-.6-1.4c-.3-.4-.8-1.6-1.3-1.7-.5-.2-1.4-.6-1.8-.6-.5 0 1-.3 1.6 0 .5.3 1.5.7 1.5.7s-1.5-1.6-3.3-.8c-1.7.7-3.6 3-3.6 3z" opacity=".29"/><ellipse cx="193.8" cy="107.7" fill="#686D70" rx="3.8" ry="6.9"/><ellipse cx="194.1" cy="107.8" fill="#787C7D" rx="3.1" ry="6.1"/><ellipse cx="193.7" cy="107.8" fill="#101416" rx="2.6" ry="5.4"/><path fill="#454646" stroke="#454646" stroke-width=".25" d="M194.6 108c0 2.4-.9 4.3-1.9 4.3-1.1 0-1.9-1.9-1.9-4.3s.9-4.3 1.9-4.3c1 0 1.9 1.9 1.9 4.3z"/><path fill="#454646" stroke="#454646" stroke-width=".25" d="M194.1 107.8c0 1.1-.7 2.1-1.5 2.1s-1.5-.9-1.5-2.1c0-1.1.7-2.1 1.5-2.1s1.5 1 1.5 2.1z"/><path fill="#454646" stroke="#454646" stroke-width=".25" d="M193.2 108.1c0 1-.3 1.8-.7 1.8-.4 0-.7-.8-.7-1.8s.3-1.8.7-1.8c.4.1.7.9.7 1.8z"/><ellipse cx="192.7" cy="108" fill="#0C0C0F" rx=".4" ry="1.4"/><path fill="#0C0C0F" d="M193 104.9c0 .3-.2.5-.4.5s-.4-.2-.4-.5.2-.5.4-.5.4.2.4.5zm-.3 6.2c0 .1-.1.2-.3.2-.1 0-.3-.1-.3-.2s.1-.2.3-.2c.1 0 .3.1.3.2z"/><path fill="#0B0C0C" stroke="#0B0C0C" stroke-width=".25" d="M190.4 87.3s-2.8-.2-3-.2c-.2 0-2.3.3-2.5.3-.2 0-1.5.2-1.6.3-.1 0-.9.4-.9.4s-.6-.2-.6-.1c-.1 0-1.4.8-1.4.8s-.4.4-.5.4l-.4.2-.4.5-.2-.1.4-.2.1-.5s1.8-1.3 4-1.8c2.1-.5 3.8-.7 3.8-.7 1.4-.1 2.4-.1 3.2 0 .8.1 1.3.2 1.4.3.1 0 .2.1 0 .1s-1.1.2-1.2.3c0-.1-.2 0-.2 0z"/><path fill="#0B0C0C" stroke="#0B0C0C" stroke-width=".25" d="M187.2 87.4h.4l.2-.3h-.8l-.1.1h-.3l-.4.2v.3h-.5l-.3.6h-.4l-.3.3v.5l-.6.2-.2.3-.3.6h-.3l-.2.2v.3s.1.4 0 .5c-.1.1-.5.1-.5.2s-.2.3-.2.3l-.2.4v.6s-.4 0-.4.1-.2.3-.2.3l-.1.3-.1.4.1.2-.1.2v.3h-.3v.2H180l-.2.3 1 .1-.1.5.3.2-.2.8h-.3v.4h-1.2l-.1.2h1v.8l.3.1v.1h-.1v.5h-.3v.3h-1s0 .1.1.2c.1 0 .8-.1.9 0 .1.1-.7.3-.7.3.1 0 .4.2.5.2.1 0 0 .4 0 .4l-.1.3.2.1v.9h-.3l-.1.3h-.2v.2l.1 1.1.2.2v.8h-.4s0 .5.1.6h.4l-.1.3v.1l-.4.1v.7l.3.1v.7l-.3.1s-.1.3 0 .3.3.2.3.2.1.3 0 .3h-.4l.2.8.2.1.1.7h-.2s-.1.4 0 .4 0 .4 0 .4v.5s.3-.2.3 0 .1.6.1.6l-.3.2v.2h.3v.3h-.2v.6l.3.1v.5h-.2v.3h.4v.3H179l-.2.1s-.2.2 0 .1h.9c.1 0 .2.3.2.3v.4s.4-.1.4 0v.6s-.3-.1-.3 0v.4h-.4l-.3.1-.4-.1s0 .3.1.3h.9c.1 0 .4.2.4.2l.1.3.3.1.1.7h-.1v.4h-1.1v.2h1.2l.1.6.5.1v.2l.1.2-.2.1-.3.2-.9.2.1.2h1l.2.5h.4v.3l.1.2h-.1v.3s-1.2-.1-1.2 0 .1.4.1.4h1.2l.3.5.2.2.2.2.1.2v.3l-.1.1v.2h-1l.1.2s1.1-.1 1.2 0l.4.4.3.3.1.2s.1.2.1.3c.1.1-.1.3-.1.3h-1.1l.2.3 1.3-.2.1.4s.4.2.5.3c.1.1 0 .5 0 .5h-1.1l.4.2h1.1l.3.3c.1 0 .4.1.4.1l.1.3v.1h-1.1l.2.2 1.1-.1.1.2h.5v.3h-.5l.4.2h.5l.5.2.1.2h-.5l.7.1h.6v.2l.3.2.6.1h.5l.1-.2h-.7s.2-.1.1-.1-.4-.1-.4-.1 0-.3-.1-.1c-.1.1-.3.1-.3.1l-.3-.2-.1-.2v-.2h-.6l-.2-.1-.1-.2-.1-.3-.4.1-.3-.2.1-.1-.3-.2v-.3h-.4l-.5-.2v-.3h1.8l.4-.3.5-.5.4-.3.3-.3v-.4c-.1 0-.6.5-.7.6-.1.1-1 .7-1.1.7-.1 0-.8.3-.9.3-.1 0-.7.1-.7.1s-.2-.2-.3-.2c0-.1-.2-.2-.1-.2h.4-.6l-.3-.1-.2-.2v-.3l1.7-.2 1.7-1.3-.1-.1-1.9 1.1-1.5.3-.1-.3s-.2-.2-.1-.2h.3v-.3h-.8l-.3-.5 1.1-.1.9-.2 1.6-1.1-.3-.1-.3.2h-.6l-1 .6-1.7.2-.1-.6h.2l.2-.2-.2-.1h-.5l-.3-.1-.1-.3s-.2-.5-.1-.5.9.2.9.2l.8-.1.9-.4c.1 0 .6-.3.6-.3l.4-.4s.1-.2-.1-.1c-.1 0-.5.2-.5.2l-.3.1s-.2.1-.3.1c-.1.1-.6.2-.7.2-.1 0-.8.2-.8.2l-.8.1s-.2.1-.2 0-.1-.3-.1-.3c0-.1-.2-.3-.1-.3s-.4-.1-.4-.1v-.6h.5l.4-.1h.5l.2-.3-1.2.2h-.4v-.2l-.1-.3s.1-.2.2-.1h.6-1.1l-.1-.3-.1-.2s-.2-.1-.1-.1.2-.2.2-.2c.1.1 1.3 0 1.3 0h.3l-.1-.4h-.8l-.3.2h-.3l-.2-.3v-.4l-.4-.4-.1-.3v-.3h.5l.3-.2.2-.2h.5v-.2l-1 .3h-.5v-.8l-.4-.4v-.3s-.2-.2-.1-.2.1-.3.1-.3l.3-.1-.2-.5-.3-.5-.3-.3.1-.2.2-.3v-.4l-.2-.4-.1-.2-.2-.1-.1-.3h.2l.1-.2.2-.1s.1-.8 0-.8-.4-.2-.4-.2v-1.4c.1 0 .3 0 .3-.1s-.1-.9-.1-.9l-.3-.1.1-1.3.3-.2v-1l-.2-.2.1-.8h-.4v-1h.5v-.3l.4-.1.1-1-.2-.2v-.5l.1-.7h.3l.1-.3v-.5l.2-.3c.1 0 .2-.1.2-.1h-.3l.7-1h.4v-1.1l.3-.1-.2-.4.2-.5h.4l-.2-.3v-.4l.1-.3h.6v-.2h-.4v-.4l.5-.2v-.2s-.1-.4 0-.4h.6v-.2h-.3c0-.1.3-.4.3-.4l.3-.1s-.1-.4 0-.4.2-.1.3-.1c.1 0 .2-.1.3-.1h.6l-.5-.2h-.4l.2-.3.4-.1-.1-.3.2-.1s0-.2.1-.2c.1.1.4 0 .4 0l-.1-.1-.4-.1.2-.2.4-.1h.4c.1 0 1 .3 1 .3l.2.1s.4-.2.1-.3c-.3 0-1.6-.4-1.6-.5.1-.1.2-.2.3-.2.1 0 .3-.1.3-.1s-.5-.1-.5-.2.2-.2.3-.2c.1 0 .4 0 .6.1.1 0 .2.1.4.1.1 0 .3 0 .4.1l.2.2c.2.1.3-.3.3-.3s-1-.3-1.1-.3c-.1 0-.5-.1-.5-.1.2-.1.4-.3.5-.2.1.1-.2.1-.2 0s-.1-.2 0-.2h.6l.5.1.6.1.4.3.3.2.1-.1s-.3-.4-.4-.3c-.1 0-1-.2-1-.2-.1 0-.6 0-.6-.1s.1-.1.2-.1h.4v-.1l-.4-.1.2-.1z"/><path fill="#0B0C0C" stroke="#0B0C0C" stroke-width=".25" d="M184.8 87.4l-.2.2h-1l.4.1.3.1-.5.4h-.6l-.4-.1-.3.1.3.1h.6l-.2.4-.2.3-.8-.1-.3-.1-.2.1.4.1s.2-.1.2 0c.1.1.5 0 .5 0l-.3.4-.3.5h-.5l-.3-.1-.5-.1-.2.2h.4s0 .2.1.2h.4l.1.1s-.3.4-.4.5c-.1.1-.2.3-.2.3h-.5l-.1-.2-.5-.1h-.2v.2l.3.1v.2h.7l-.6 1-.5.1.3-.3h-.6l-.1.2.4.1s0 .3.1.3.2-.1.2-.1h.4c.1 0 0 .3 0 .3l-.4.9s-.2.2-.3.2c-.1 0-.4-.1-.4-.1s.1-.3 0-.3h-.8l-.1.3.5.1v.3h.7l-.3 1.1-.1.5-.1.2-.4-.1-.1-.5h-.6v.2l.3.1v.5h.2v-.1l.3.1.3.2v.3l-.2.1-.1.5-.1.4-.1.3.1.2h-.2l-.3.1-.1-.3-.3-.3h-.1l-.3-.1-.1.1h.3c.1 0 .2.1.2.1v.4l.6.1.1.4-.2.2v.3s-.1.3-.1.4c0 .1-.1.4-.1.4h-.1v.3h.1l.1.1-.2.2-.2-.1-.1.1.1.1c.1 0 .1.3.1.3l-.1.7-.1.7v.5l-.3.1h-.5v.2s.1.2.1.1c.1 0 .4-.1.4 0 .1.1.2.4.2.4l-.2 1v.8l-.3.1h-.6l.1.3h.6l.2.4v1.4l-.1.3s-.1.1-.2.1h-.6v.2s.1.2.2.2h.4c.1 0 .3.2.3.2v.6c0 .1-.1.6-.1.6l-.1.3h-.2v.2h.3l.2.2.1.9v.3l-.1.2h-.2l-.1.1s.1-.1.2 0 .3.2.3.2.1.7.1.8c0 0 .1.4.1.5 0 .1.1.2.1.3 0 .1.1.8.2.9 0 0 .2.8.2.9 0 .1.1.3 0 .3h-.5l-.2-.1-.1-.2h-.6l.1.3s.4-.1.5 0c.1.1.1.3.1.3h.8c.1 0 .2.7.3.8 0 .1.1.4.1.4l.1.4-.2.1s-.3-.1-.3-.2-.2-.2-.2-.2h-.8l.1.3h.4l.2.3h.6c.1 0 .2.1.2.1l.4 1v.3h-.4s-.2 0-.2-.1v-.2h-.9l.2.3h.5l.1.2h.8l.7 1.5-.5.1-.3-.4h-.6v.2s.3.1.3.2c.1 0 .3.1.4.1 0 .1 0 .3.1.3s.9-.1.9-.1l.8 1.5-.1.1-.5.1-.2-.3-.4-.1h-.5l.3.4h.6l.1.3h.9l.8 1.1s-.1.1-.1.2h-.4l-.1-.2-.9-.1.2.3h.6l.2.2h.9s.6.8.7.8c.1 0 .2.2.2.2h-.5l-.3-.2h-.8l.2.2h.6l.2.2h1l.5.6-.4.2-.3-.2h-.6l.3.2 1.4.1.3.3.3.2s.4.3.5.3c.1 0 .7.3.7.3l.6.2.4.2.3-.1-.2-.2-1.2-.4-.5-.3.3-.1.3-.1-.4-.2-.6.1-.6-.3v-.1s0-.3-.2-.2c-.2.1-.9-.7-.9-.7l-.2-.2-.2-.2c-.1 0-.3-.3-.4-.4-.1-.1-.3-.4-.3-.4l-.3-.6-.4-.5-.5-.7-.3-.6-.3-.6-.4-1-.2-.4-.3-.7s-.3-.5-.2-.6c0-.1-.1-.3 0-.3s-.2-.1-.2-.1l-.4-1.4-.3-1-.2-.6v-.4l-.2-.7-.2-.6-.1-.3v-.3l.3-.2v-.2l-.3-.1-.1-.2c0-.1-.1-.5-.1-.5s-.2-.6-.1-.6c0-.1.1-.2.2-.2h1s0-.2-.1-.2-.4-.1-.5 0h-.6l-.1-.1v-.7s-.1-.5 0-.5c0-.1.1-.1.1-.2l-.1-.4h-.1c0-.1-.1-.8-.1-.8v-1.1s.1-.2.2-.2h1v-.1h-1.2l.1-.8.1-.5.1-.9.1-1.6s.4-2.2.4-2.4c0-.1.4-2.1.4-2.1s.2-1.7.4-1.8c.2-.2 1-2.9 1-2.9s1.9-3.2 2-3.4c.1-.2 2-2.4 2-2.4l.8-.8"/><path fill="#0B0C0C" stroke="#0B0C0C" stroke-width=".25" d="M182.3 88.1l-.5.4h-.8l-.3.2h.8l-.5.6-1-.1v.3h.7l-.7.7h-.8v-.3l-.2-.1-.2.4h-.5l.2.2h1.4l-.5 1h-1.2s-.3.2 0 .2h.8v.6l-.4.6h-.7l-.4.1s.2.2.3.2h.5s-.2.8-.3.9c0 .1-.2.4-.2.4h-.8v.2s.4-.1.5 0c.2.1 0 .7 0 .7l-.3 1-.6.2h-.5s0 .3.2.2h.5c.1 0 0 .6 0 .6v.7l-.3.4-.1.4-.2 1v1.1l-.2.7v.8s-.2.8-.2.9v.3h-.8l-.4.3h.8l.2.5v1.8l-.1.5v2.1l.2.8v.8l.1.7.1.9s.1.1 0 .3c-.1.2-.6.3-.6.3h-.3l.1.3h.9v.4l.1.7.1.4h-.5l-.2.3h.3l.6.2v1l.4.9h-1.1s0 .2.2.2.6-.1.8 0c.2.1.3.4.3.4l.3 1v.3h-1.1l1.2.2.3.5.3.6v.3h-.6l-.2.3h.9s.4.8.5.9c.1.1.2.5.2.5v.2h-.7l.1.2h.8s.4 1 .7 1c.2-.1.5.4.5.4l-.4.3h-.6s-.1.2 0 .2h1s.4.6.5.8c.2.2.3.4.3.4h-1.1l.1.2s.6.2.7.2h.6l.4.3.3.6h-.5l.2.2.6-.2.7.5h-.6l.2.3h.5l.4.2.4.3.3.3.6.4.5.1v-.3h.2c.1 0 .3.1.3.1h.3l-.6-.3h-.8l-.3-.1-.2-.1 1-.1-.3-.2-.7.1h-.5l-.5-.4-1.3-1-.5-.7-.7-.7-.6-.9-.8-1.3-.6-1 .3-.1-.3-.4h-.3l-.5-1.4-.3-1-.4-1.4-.2-1.2s-.4-1.1-.3-1.2c0-.1-.6-.8-.4-1 .2-.2 0-.7 0-.7v-1.1l.3-.1.2.3s-.1.1.2 0c.3-.1.2-.2 0-.3-.2-.1-.6-.2-.6-.2l-.2-.2s-.2-.3-.1-.5c0-.2.1-.7.1-.7l.4.1.1.3.2-.2-.1-.3-.2-.1-.5-.1-.2-.5-.1-.4.1-.8h.5l.1-.1-.3-.1-.1-.2h.3l.3-.1-.3-.2-.5.1s-.2-.9-.1-1c.1-.1.1-.7.1-.7l.2-.2v-.4h-.1l-.1-1.1.1-.5.1-.6.3-.2-.2-.2h.7l-.1-.2h-.4l-.3-.6.1-.6.2-.4v-.5l.2-.3.2-1.3.1-.3s.3-1.2.5-1.6c.2-.4.5-1.6.5-1.6l.3-.9.5-1.1s.7-1.2.9-1.6c.2-.4.8-1.2.8-1.2l.7-.9s.3-.6.5-.6.5-.4.5-.4l.3-.4"/><path fill="#0B0C0C" stroke="#0B0C0C" stroke-width=".25" d="M178.5 90.7h-.8c-.3 0-.6.4-.5.3.1-.1.9 0 .9 0l-.2.2-.4.2h.4v.2l-.4.2-.6.2-.4.2h.7l-.1.3-.2.1h-.3l.4.2v.3h-.3l-.3.2h-.3l-.5.2s-.1.2 0 .2h.9v.1l-.2.3h-.3v.2h.3l-.1.3-.1.2h-.5l-.6.2h-.4v.2h1l-.1.4-.1.3-.1.5v.2l.2.2h-.5s-.1.1-.1.4c0 .3-.2.6-.1.8.1.1 0 .5 0 .6 0 .1-.5.4-.2.4s-.3.3-.3.3v1s-.4-.1-.3 0l.3.3c.1.1.2 0 .2.3 0 .2-.1.4-.1.4l-.3.7v.8h-.3v.5h.2s.3 0 .2.1v.5l-.3.4h-.2v1.2h-.2c.2 0-.2 0 0 .2l.2.2.3.2-.1.4-.4.1.2.1.2.2v.8h-.3v.2h.3l.2.5v.4l-.1.2s-.1.1 0 .3c.1.2 0 .5 0 .5h-.2l-.2.3h.6l.1.3v.3l-.2.3s0 .2.1.3l.1.1h-.4s-.2.2 0 .3c.1.1.3 0 .3 0l.2.5v1.5h-.2c.2 0 0 0 .2.1s.3 0 .3 0h.2v.6l-.4.2h-.8s-.6-.2-.3 0 .8.2.8.2h.7s.1.2 0 .3c-.1.1 0 .1 0 .2v.1l-.8.2s.8-.1.9 0c0 .1.3 0 .3 0h.1l.1.3s-.1.2-.1.3v.3h-1.2s.1.2.2.2h.8s-.2-.2 0 0 .2.5.2.5l-.7.4h.9s.2.2.2.3l.2.4-1.1-.1h-.3l.3.1 1.1.1v.5l-.2.1v.1c0-.1.5 0 .5 0l.2.4-.3.1-.6-.2h-.3l.2.2s.2.2.5.2h.5l.2.4h.1l-.1.4h-.2c.2 0 .2.3.2.3h.4l.2.3.1.4h-.9s-.4.4-.2.3c.3-.1.5.1.7 0 .2-.1.7 0 .7 0l.1.2.1.3h-.9l.5.2s.5.4.6.3c.1-.1.5 0 .5 0l.2.4h-1l.9.2.3.2v.3l.2.2c.1 0 .7.3.7.3h-1.1c.2 0 .5.4.5.4h.7l.4.3s-.3.2 0 .2h.5l.1.1.1.1.1.1v.2l.2.4h.5l.4.2.5.2s-.1-.3-.3-.3c-.2 0-.5-.2-.6-.2l-.1-.1s0-.1-.2-.2-1-.8-1-.8v-.5l-.4-.2-.6-.5v-.5l-.6-.4-.2-.5-.4-.2s-.6-.5-.2-.7c.3-.2-.2-.6-.2-.6s-.4-.5-.4-.6c0-.1-.2-.6-.2-.6l-.2-.7-.2-.3-.3-.2v-.7l-.7.1-.2-.4-.1-.4.2-.4s-.3-.3-.3-.4c0-.1-.1-.5-.1-.5l-.2-.3-.2-.3v-.4l-.1-.3h.1l-.1-.2-.1-.4-.3-.3v-.5l-.2-.2.2-.4v-.5l-.3-.2v-.7l.1-.3v-.6l-.3-.3.1-.2v-.5l.1-.3s.1-.1.1-.3v-.6l-.3-.1s.1-.3.1-.4c0-.1-.1-.6-.1-.6v-.4s.2 0 .2-.1v-.6s-.2 0-.2-.1-.1-.1-.1-.1.4.3.3 0c-.1-.3 0-.6-.1-.7v-.3c0-.1.1-.3.1-.3h.4v-1h-.3l-.1-.2h.3s-.2-.9 0-1.2c.1-.3.3-.6.3-.6s.2.3.2 0-.2-.8-.2-.8-.1-.2 0-.4.3-.5.2-.6v-.3s.4-.2.3-.3c-.1-.1.1-.4.1-.4v-1.3s.2-.3.3-.3c.1 0 .3-.5.3-.5l.1-.7v-.5l.2-.4s.2.2.2.1-.2-.2 0-.4c.2-.1.2-.2.3-.3.1-.1.2-.2.2-.3v-.4c0-.1-.3 0 0-.2.4-.3.5-.5.5-.5v-.6s.2-.3.3-.3c.1 0 .4-.1.4-.2v-.2l.1-.4s.2-.1.2-.3c0-.1.1-.1.2-.2s0-.3.2-.3h.7-1l-.2.1"/><path fill="#454646" stroke="#454646" stroke-width=".25" d="M188.5 91l-1.2-1.1h-.2l1.1 1.5z"/><path fill="#0B0C0C" stroke="#0B0C0C" stroke-width=".25" d="M184.5 90.4c.2.1.4 0 .7.1.1 0 .1.1.2.1h.3c.5.1.8.5 1.1.7.2.1.3.2.4.4 0 0 .5.4.2.4-.1 0-.3-.3-.4-.4l-.6-.3c-.4-.2-.7-.5-1-.6-.2-.1-.3-.2-.5-.2-.2-.1-.5 0-.7-.1v-.1m-.6 1.3c.2-.3 1.6.1 1.9.2.3.2.7.4.9.6.1.1.2.3.3.4.2.2.3.1.5.1-.2.5-.6 0-.8-.2l-.9-.6c-.3-.2-.6-.3-1-.3h-.3c-.1 0-.1-.1-.2-.1-.2-.1-.4 0-.5 0-.1-.1 0-.2.1-.1m-.8 1.3c.2-.1.5.1.7.1.2 0 .5 0 .7.1.4.1.8.2 1.1.5.2.1.3.3.5.4.1.1.5.2.6.3.2.3-.3.1-.4.1-.2-.1-.4-.2-.6-.4-.2-.1-.5-.2-.7-.3-.2-.1-.4-.3-.7-.3-.2-.1-.5 0-.8-.1-.1 0-.2 0-.3-.1-.1-.1 0-.3-.1-.3m-.5 2c-.4-.4.4-.3.6-.2.3.1.7.2 1 .2.7.2 1.2.6 1.8.9-.1.3-.6 0-.8-.1-.3-.1-.6-.2-1-.3-.3-.2-.5-.3-.8-.4-.3 0-.8 0-.8-.1m-.6 2c-.2 0-.2-.2 0-.3.2-.1.5 0 .7.1.3.1.6.3 1 .4l.9.3c.3.1.7.2.9.4v.1l-.9-.3c-.3-.1-.6-.2-.8-.3l-.9-.3c-.3 0-.7 0-.9-.1m-.3 2.3c-.1 0-.3-.1-.3-.3 0-.1.3-.1.4-.1.4.1.7.2 1.1.2.4.1.7.2 1.1.3.3.1.4.4.7.5-.3-.1-.5-.2-.7-.3-.3-.1-.6-.1-.8-.2-.2-.1-.5-.2-.7-.2-.3.1-.6.2-.8.1m2.7 2.8c-.3-.2-.9-.2-1.2-.2-.2 0-1.2-.2-1.3 0-.1.3 2 .6 2.2.6v.1c.2-.1.5-.2.3-.5m-.3 2.5h-1.6c-.4 0-1.2-.2-1.5 0 .2.3.6.1.8.2.3 0 .6.1.9.1.6 0 1 .1 1.5-.1 0-.1-.1-.1-.1-.2m-.3 2.4h-1.4c-.4 0-.8-.2-1.2 0-.1.5 1.2.4 1.5.4h.8c0-.1.6-.3.3-.4m.2 2.3c-.2.1-.6 0-.8 0h-2.3c-.2 0-.5 0-.6.1-.3.2.1.2.3.2.5.1.9.1 1.4.1.4 0 .7-.1 1.1-.1.3 0 .7 0 1-.1m-.8 1.6c-.4.1-1 0-1.5 0h-.8c-.1 0-.6 0-.3.2-.1 0-.2.1-.3.1.4.3 1.3 0 1.7 0h.8c.2-.1.7-.1.4-.3m-.1 1.5c-.4 0-.7.2-1.2.2-.3 0-.9-.3-1.2 0 .2.3.7-.1.9.1.1.1-.1.2.2.2.1 0 .3-.1.5-.1.4 0 .5-.1.8-.3.2-.1.6-.1.7-.3-.2.1-.5.1-.7.2m-.5 2.4c-.1-.4.1-.3.5-.4.3-.1.6-.2.9-.2-.1.2-1.5.5-1.2.8m.2 1.6c.1-.1.9-.1 1.2-.1.3-.1.5-.2.8-.4 0 .3-.6.5-.9.6-.3.1-.5.3-.9.2 0-.1.1-.3.1-.4m1.9.3c-.4.1-.7.3-1 .5-.3.1-.6.1-.9.2.4.4 2-.2 2-.7-.1 0-.2 0-.3.1m.5.7c-.6.4-1.3.4-2 .8.2.2.9-.1 1.1-.2.4-.1.7-.5.9-.6m-2.3-4.6c-.3.1-.7 0-.9.2.2.2 1.6-.1 1.8-.4m.2.9c-.4.2-1.3.1-1.5.5.3 0 .6-.2.9-.2.2-.1.5-.2.6-.3m-.5-.3c-.2-.1-1.4 0-1.2.3.1.1.7-.1.9-.2.2 0 .5-.1.7-.1h-.1m3.1 13.1c.3-.1.6-.2.9-.2.3 0 .5-.2.8-.4.4-.3.9-.7 1.2-1.1.1.3-.5.5-.7.6-.2.2-.3.4-.5.6-.2.2-.5.4-.8.4-.3.1-.8.4-.9.1"/><path fill="#454646" stroke="#454646" stroke-width=".25" d="M188 127.4c.5-.2 1.1-.4 1.5-.7.2-.2.4-.3.6-.5.1-.2.2-.5.5-.6 0 .3-.3.6-.6.7l-.6.6c-.4.4-1.2.6-1.8.5"/><path fill="#0B0C0C" stroke="#0B0C0C" stroke-width=".25" d="M188.5 127.9c.5.2 1.3-.3 1.6-.6.4-.4.9-.8 1.2-1.3.2.1-.3.6-.5.7-.2.2-.4.4-.6.7-.3.4-1.2.7-1.7.6m1.7.2c.3-.3.7-.3 1-.6.2-.3.5-.7.9-.9-.1.5-.7.8-1 1.2-.1.1-.2.3-.4.4-.2.1-.5.1-.7.2m1.6-.3c.2-.3.6-.4.8-.7.2-.2.3-.7.6-.8-.1.4-.4.9-.7 1.1-.1.1-.3.2-.5.3-.1.1-.3.3-.3.1"/><path fill="#454646" stroke="#454646" stroke-width=".25" d="M191.1 126.9c.2-.2.4-.5.6-.6.1.3-.2.4-.4.6m1.8.4c.2-.2.3-.5.5-.6.1.3-.5.7-.7.8m-3.8-2.9c-.2.3-.4.4-.7.6-.2.1-.8.4-.8.7.3 0 .7-.4 1-.6.2-.1.6-.3.5-.7"/><path fill="#0B0C0C" stroke="#0B0C0C" stroke-width=".25" d="M188.1 123.6c-.2.1-1.5 1.1-1.4 1.2.2.2.8-.4 1-.5.2-.2.4-.5.6-.7m-1.1-1.6c0 .2-.6.3-.6.5s.6-.1.5-.3h.1m-1-1.8c-.2.2-1.6.7-1.5.9.4 0 .7-.3 1-.5.3-.1.8-.1.7-.5m-.9-1.8c-.3.2-.6.4-.9.5-.2.1-.3.2-.5.2-.2.1-.3 0-.5.1 0 .1 0 .1.1.1.3-.1 1.7-.5 1.7-.8m1.1 7.2c-.1.2.1.3.2.1 0 0-.1 0-.2-.1m-1.6-1.2c-.1.1.2.2.3 0-.1-.1-.2-.1-.3 0m-.3-1.8c-.3 0 .1.3.3.1-.1-.1-.2-.1-.4-.1m-1.4-1.9c-.4 0 .1.3.3 0-.2-.1-.3-.1-.3 0m-.5-1.9c-.4.1 0 .5.2.2-.1-.1-.2-.1-.3-.1m-1.4-3.1s.1-.2.2-.1 0 .2 0 .3c-.3.1-.2-.2-.1-.3m.5-.5c-.1.1-.1.2 0 .3.3 0 .2-.3 0-.3m-.8-2c-.1 0-.1 0-.2.1.1.4.7-.2.1-.1m-.3-1.4c-.1.1-.1.3 0 .3.3-.1.2-.3 0-.3m-.2-1.7c-.2.1 0 .3.2.2.3-.1-.1-.2-.2-.2m.3-2.8c-.2.2.1.4.3.2-.1-.1-.2-.1-.3-.2m-.5-2.4c-.2.2.2.4.3.2.2-.3-.3-.2-.3-.2m1-2.7c-.1.2.2.4.3.1-.1-.1-.3-.1-.4-.1m.1-2.7c-.4.1.1.4.3.1-.1-.1-.3-.1-.3-.1m-1.2 3.2c.1.1.6 0 .5.2 0 .2-.8 0-.4-.2m3.6 1.2c-.5-.2-1-.2-1.5-.2-.4 0-1.1-.2-1.5 0 .3.1.8.1 1.2.1 0 .2 1.4.2 1.6.2m.7-.7c-.2-.2-.4-.3-.8-.3h-.8c-.3 0-.6-.1-.9-.2-.2 0-.6-.2-.8 0 .1.2.7.1 1 .2.3 0 .7 0 1 .1.4.1.4.3.7.3.2 0 .3 0 .4.1.1.1.1.3.2.4.2-.2.2-.5.1-.8m-2.3-1.7c-.4 0-1-.2-1.3 0 .2.2 1.1.2 1.4.1.1 0 0-.1-.1-.1m-.4-1.2c-.3 0-.7-.1-.9.1.1.2.8.1 1 .1-.1 0-.2-.1-.3-.1m2.4 7.7c-.1 0-1-.1-.9.1.1.2.8 0 1 0-.1-.1-.2-.2-.3-.2m.3-2.2c-.2 0-.9-.2-.9 0-.1.3.9.3 1 .2 0-.1 0-.1-.1-.2m0 4.1c-.1.1-.9-.1-.9.1-.1.3.9.1 1 0h-.1m.6-9c-.2-.1-1.4-.6-1.4-.4 0 .2 1.2.7 1.4.4-.1 0-.2 0-.2-.1m-2.4-3.6c-.1 0-.2 0-.2.1.2.3.7 0 .2-.1m.2-2.2c-.2 0-.2.2 0 .2.3.1.2-.2-.1-.2m3.4 1.5c-.2 0-.7-.4-.9-.2.1.2.7.4.9.3m-.5.4c-.2-.1-.4-.3-.5-.4l-.6-.3c-.1 0-.4-.2-.4 0s.4.4.6.5c.3.2.7.4 1.1.5.1 0 .4.1.3-.1-.2-.1-.4-.2-.5-.2-.3-.1-.6-.5-.9-.5m0 1.8c-.2 0-.5-.4-.7-.3.1.2.5.2.7.4.2.1.4.3.6.3.3-.2-.3-.3-.6-.4m-.6-5c-.2.2.1.3.3.2 0 0-.1-.1-.3-.2m.4-1.5c-.2.1-.2.3 0 .2.3 0 .2-.2 0-.2m1-1.3c-.1.1-.1.1 0 0 0 .2.1.4.3.3.2-.1-.3-.2-.3-.3"/><path fill="#454646" stroke="#454646" stroke-width=".25" d="M186.1 91.7c.1.2.5.3.7.4.2.1.3.4.4.6-.5-.3-.7-.9-1.1-1m-.8 1.2c.5.4.8.7 1.5.8-.1.4-1.3-.5-1.3-.8"/><path fill="#0B0C0C" stroke="#0B0C0C" stroke-width=".25" d="M184.6 94.4c.3.1.6.2.8.4.1.1.7.3.7.5 0 .3-.6-.2-.6-.2-.2-.2-1-.6-.9-.7"/><path fill="#454646" stroke="#454646" stroke-width=".25" d="M189 90.3c-.1-.2-.4-.3-.5-.5-.2-.2-.2-.3-.4-.4-.1.2.2.4.4.5 0 .1.3.6.5.4m.7-.6c-.2-.1-.4-.6-.6-.5 0 .2.5.7.6.5m-.2-1.6c-.2-.1-.2-.3-.4-.4-.2-.1-.4-.2-.6-.2-.2 0-.4 0-.6-.1-.1 0-.5-.1-.4.1.4-.1.9 0 1.2.2.2.1.3.2.5.3.2.2.3 0 .1-.1"/><path fill="#0B0C0C" stroke="#0B0C0C" stroke-width=".25" d="M190.8 87.2c-.1 0-.1-.1 0-.1s.2.1.2.1c.1.1.2.3.3.4.2.1.3.2.3.4.1.1.1.2.1.4-.1-.1-.2-.3-.3-.4l-.3-.3c-.1-.2-.3-.4-.5-.5"/><path fill="#454646" stroke="#454646" stroke-width=".25" d="M192.6 88.4c0-.1 0-.2-.1-.3-.1-.1-.1-.2-.2-.3-.1-.1-.3-.3-.5-.4-.1-.1-.1-.2 0-.3.1-.1.2.1.3.2l.3.6.3.3s.1.1.1.2c-.1-.1-.2-.1-.2 0"/><path fill="#F3F3F9" d="M192.7 108c0 .4-.1.6-.2.6s-.2-.3-.2-.6c0-.4.1-.6.2-.6.1-.1.2.2.2.6z" opacity=".16"/><path fill="#EBEBF6" stroke="#EBEBF6" stroke-width=".25" d="M190.5 102.4c0 .5-.6.9-1.3.9-.7 0-1.3-.4-1.3-.9s.6-.9 1.3-.9c.7-.1 1.3.3 1.3.9z"/><path fill="#0D0F10" d="M189.7 102.8l-.3-.8v-.7s1.1.4 1.2.6c.2.5 0 .4 0 .6 0 .3-.2.5-.3.5-.3.1-.6-.2-.6-.2z"/><path fill="#0B0C0C" stroke="#0B0C0C" stroke-width=".25" d="M189.3 100.3c1.5-1.1 3.1-2 5-1.1-1.6-1.3-3.8-1.9-5 0-1 1.6-1.8 3.7-1.7 5.6 2-.6.8-3.5 2-4.5" opacity=".3"/><path fill="#0B0C0C" stroke="#0B0C0C" stroke-width=".25" d="M178.3 124.5c2.2-.5 3.4-1.3 4.3-3.2 1.1 1.1 2.5 1.6 3.6 2.7 1.2 1.1 1.8 2.3 2.3 3.6-2 2-4 1.5-6 .2-1.6-1.1-5.8-2.6-5.7-4.9" opacity=".41"/><path fill="#0B0C0C" stroke="#0B0C0C" stroke-width=".25" d="M176.5 92.9c1.6-.7 5-.4 6.8.6-.1.1-.1.1 0 .2-.2 0-.4.1-.6.1 1.3-2.3 4-4.9 6.5-6.4-3-1.1-11.2 1.4-11.8 4.4" opacity=".19"/><path fill="#FFF" stroke="#FFF" stroke-width=".25" d="M188.5 111.6c0-.7.6-4.7-1.2-3.9-1.1.5-.3 4.3 0 5 .2.8 1.8 5 1.9 2.1 0-.7-.8-1.7-1-2.4-.1-.9-.1-2 .1-2.8m3.7-10.8s1-1.1 1.4-.8c.3.4.3-1.5-1.4-1.3-1.7.1-2.4.5-2.4.5l-.9.7s1.6-1.2 2.4-.2l.9 1.1z" opacity=".13"/><path fill="#FFF" d="M190.7 105.3c1.4-.6 1.1-2.5 2.8-3 2.4-.6 2.5 1.8 3 3.1 1.1-1.4-1.2-3.8-3-3.9-2.4-.2-3.2 2.7-3.1 4m-.3 2.5c-.5 1 .2 2.1.8 3-.5-1.2-2.6-2.9-.8-4.2" opacity=".13"/><path fill="#FFF" stroke="#FFF" stroke-width=".25" d="M189.9 117.8c.3.4 1.6 2.5 3.1 2.3 1.5-.2 3.6-1.5 3.6-1.5v-.8s-2.1.7-2.6 1c-.5.3-2.4.2-2.4.2l-1.7-1.2z" opacity=".13"/><path fill="#454646" stroke="#454646" stroke-width=".25" d="M188.9 87.9c0 .3.6 1.3.7 1.8.3-.7-.3-1.2-.7-1.8"/><path fill="#FFF" stroke="#A7A6A6" stroke-width=".25" d="M92 67.7c-1.5 2.7.7 6.4-4.2 7-6.2.8-10.3-.8-15.9-2.7-4.2-1.4-8.8-3-10.5-6.5-1.8-3.6-2.7-8.2-3.5-12-.1-.7-.5-1-.4-1.7 2.8-1.1 3.8-2 7-1.8 4.3.2-1.4-3.6 0 0 1 2.6 9.4 10.6 11.4 12.9 2.9 3.3 12.5 3.7 16 4.6"/><path fill="#FFF" stroke="#A7A6A6" stroke-width=".25" d="M50.6 70.8c9.7-4.9 24.6-18.6 6.2-22.1-6.5-1.3-17.2 3.7-19.9 8.1-1.8 2.9 2.6 4.9 5.3 7.7 2 2.1 6.1 4.1 7.4 5.9"/><path fill="#234D87" d="M51.1 43.2c-1.7.9-2.9 2.4-4.5 3.5-2.1 1.4-4.3 2.5-6.1 4.1-3.5 3.1-7.5 6.1-9.5 9.9-.9 1.8-2.8 3.2-3.8 4.9-1 1.7-.6 3.3-.5 5.1.3 4.2.7 7.8 1.8 11.9 1.4 5.3.8 11.1 1.7 16.6.9 5.1-.2 10.4 0 15.5 4.8-1.5 10.5-.8 15.6-1 .5-7.6-3.5-14.2-3.4-21.8 0-4.5 3.9-8 4.5-12.3.2-1.6.6-8.1.6-9.5-.3-4.5-9.1-6.7-7.3-12.5.7-2.3 5.6-5 8-6.4 2.9-1.8 5.6-2.6 8.9-3.8-.3-3-3.8-2.4-6-4.4v.5"/><path fill="#683217" d="M45.2 113.7c1.3-1.6 10.1.3 11.6 2.2 3.3 4-7.5 3.6-10.4 3.9-2.9.3-5.6.4-8.5.1-1.7-.1-5.5.3-7-.4-1.6-.7-1.4-2.7-1-4.1.6-1.9 1.7-1.6 4.2-1.6 4.1 0 8.1-.2 12.2-.2"/><path fill="#234D87" d="M60.2 89c-.4 3.1-7.4 11.5-7.6 13.9-.1 2-.7 3.8-.9 5.6-.2 1.4.6 3.7-1.1 4.6-1.5.8-5 .1-5.7-.9-1-1.5-1.7-16.6-1.7-19.5 0-1.6 7.5-2.6.2-4.8-2.1-.6 1.7-3 2-4.7.5-2.5.9-5 1.3-7.6.2-1.6-.5-3.5 0-5 .9-2.6 9.6 10.1 9.4 10.9-.5 1.4 4.2 6.2 4.1 7.5z"/><path fill="#683217" d="M52.4 111.3c3.8 0 11.5-.6 12.5 3.5.7 2.9-5 3.2-7.6 3.1 3-2-5.2-4.1-6.5-4.9.2-.8.5-1.6.5-2.5 1.1.3 2 1.2 3.2.8"/><path fill="#E8B987" stroke="#E4A065" stroke-width=".25" d="M84.2 44.6s2.5-.1 2.7.7c.2.8-.2 2.3-.7 2.9-.5.6-3.6 1.4-4 1.1-.4-.2-1.5-.8-1.5-.8l3.5-3.9z"/><path fill="#E8B987" stroke="#E4A065" stroke-width=".25" d="M80.8 27.8s8.4 11.7 6.9 13.7c-1.5 2.1-4.9 5.5-6.3 8.4-.4.8-.9 2.8-1.7 3.6-.9.9-3.3 2-7.3 1.6-3.9-.4-8.3-2.5-10.1-3.4-2.7-1.2-15.4-7.9-16.4-9.8-1-1.9-2-2.3-1.6-2.2 2.6.8.7-2.6 1.8-3.8 1.1-1.2-1.9-2.6-1.9-2.6 1.2.5 16.2-4.2 22.1-4 5.9.1 14.4-3.7 17.9-2.2 3.5 1.6-3.4.7-3.4.7z"/><path fill="#E8B987" stroke="#E4A065" stroke-width=".25" d="M47.6 34.8s-1-1.7-2-1.4c-1 .3-2.4 1.3-2.8 2-.4.7.3 3.4.5 3.7.9 1.5 2.2 1.2 2.2 1.2l2.1-5.5z"/><linearGradient id="b" x1="2193.978" x2="2212.371" y1="225.373" y2="225.373" gradientTransform="matrix(.5242 .301 -.4979 .8673 -985.528 -816.08)" gradientUnits="userSpaceOnUse"><stop offset="0" stop-color="#ec1475"/><stop offset="1" stop-color="#fff5cb"/></linearGradient><path fill="url(#b)" d="M52.1 40.3c-1.8 2.4-.9 5.4 1.9 6.7 2.8 1.3 6.5.3 8.3-2.1 1.8-2.4.9-5.4-1.9-6.7-2.8-1.3-6.5-.4-8.3 2.1z" opacity=".13"/><path fill="#050506" d="M78.9 42.4c-.3.6-1 .9-1.5.8-.5-.1-.7-.7-.3-1.3.3-.6 1-.9 1.5-.8.4.1.6.7.3 1.3zm-11.3-2.8c-.3.6-1 .9-1.5.8-.5-.1-.7-.7-.3-1.3.3-.6 1-.9 1.5-.8.4.2.6.7.3 1.3z"/><linearGradient id="c" x1="1854.171" x2="1867.812" y1="1408.606" y2="1408.606" gradientTransform="matrix(.7133 -.238 -.1176 .8866 -1085.234 -755.448)" gradientUnits="userSpaceOnUse"><stop offset="0" stop-color="#ec1475"/><stop offset="1" stop-color="#fff5cb"/></linearGradient><path fill="url(#c)" d="M81.3 49.9c0 2.1-2.1 4.1-4.7 4.4-2.6.3-4.7-1.1-4.7-3.2s2.1-4.1 4.7-4.4c2.6-.3 4.7 1.1 4.7 3.2z" opacity=".13"/><path fill="#F7F6F5" d="M88 40s-3.3-5.4-5.5-6.5c-2.2-1.1-7.9-.9-8.1-.9-.2 0 .3.2.5.3.2.1 5.5.3 6.2.4.7.1 1.1.2 1.3.3.1.1.4.5.6.9.2.4.4 1.1.5 1.4.1.3.2.9.3 1.2.1.2.3.5 1 .9.7.5 3.2 2 3.2 2z" opacity=".14"/><path fill="#E8B987" stroke="#E4A065" stroke-width=".25" d="M66.3 44.4s4-1.8 5.4-.4c1.4 1.4 1 4.9 1 4.9"/><path fill="#2D1213" stroke="#060707" stroke-width=".25" d="M52.1 34.1l-2.9 4s.8 2.3-1 1.4c-1.8-1-1.6-3.1-1.6-3.1l-.8-2.8s1.8-2.9 2.2-5.3c.5-2.4 7.3-3.1 8.1-4.6.8-1.4 2-2.4 2.9-2.2.9.2 1.8 5 2.8 2.8 1-2.2.8-6.9 2-4.6 1.2 2.3-.2 5.6 1.7 5.1 1.9-.4 1.5-5.2 3.2-4.4 1.7.8 1 3.9 1 3.9s2.5-.8 3.6-1.9c1.1-1 5.8-.2 5 .5-.6.7 2.7 1.1 3.7-.1 1.1-1.3 3.7-.1 2.2 1-1.4 1.1 1.5 3.1 2.7 2.7 1.1-.4 1.6 1.9.7 3.5-.9 1.6-3.5 2.2-2.3 2.6 1.2.3-2.9-2.2-3.8-1.5-.9.7 5.9 2.3 5.9 2.3s-6.6-1.7-8.1-2.6c-1.5-.9-4.8-.5-10.5-.1s-5.1.5-8.7 1c-3.7.5-8 2.4-8 2.4z"/><path fill="#2D1213" stroke="#060707" stroke-width=".25" d="M83.9 32.4s1.2 1.5.4 2.5c-.8 1 2.3 3.4 1.8 4.1-.5.8.3 1.8-.3 2.4-.7.7-.8 2.6-.8 2.6s3.1-1 2.9-1.8c-.2-.7 2.9-3.5 1.8-4.7-1.1-1.2-1.5-3.1-2.4-3.6-.9-.5-2.5-2.7-2.5-2.7l-1.5-.7.6 1.9z"/><path fill="none" stroke="#C0812B" stroke-width=".25" d="M72.9 51s-6.9-.2-11.5-4.3"/><path fill="#663817" stroke="#060707" stroke-width=".25" d="M53.6 32.1c2.8-1 5.6-1 6.6-3.7-.2 1.4-3 2.2-4.6 2.2 2.4 0 3.7-2.8 3.4-4.3-.5 1.9-1.7 2.9-3.9 3.6-2 .6-4.2 1-4.2 3 .7-1 2.4-.7 3.6-.9m-2.2-2.2c1.1-.3 2.6-1.9 2.1-2.9-.7 1.2-2.3 1.4-2.7 2.9"/><path fill="#FFF" stroke="#A7A6A6" stroke-width=".25" d="M61.9 54c3 1.7 1 .1 5.8 5.8 3.1 3.7 5 6.2 9.4 7.6 3.8 1.2 8.6-.4 12 1.5 2.8 1.5 3.6 4.8 1.4 6.8-2.8 2.5-8.6 2.1-12.8 1.9-6-.4-11.2 0-15.1-3.4-2.9-2.5-5.6-5.1-7.9-8-2-2.5-5.3-4.7-4.7-7.6 1-4 7.6-4.6 12.6-4.6"/><path fill="#C8C8C6" stroke="#868686" d="M98 68.3c-.6-1.4-.2-3.1 0-4.5.3-2.1.1-2.7-1-4.3-2.6-3.8 2.2-3.7 5-5.6 2.1.8-3.1 7.4 1.7 6.6 1.9-.3 1-2.4 1.7-3.3 1.3-1.5 2.7-1.1 3.3.4.5 1.3 0 3.6-.8 4.7-1.2 1.7-2.4 1-3.9 2-3.4 2.2-.8 5.3-6.5 5.2-.3-1.2.3-2.2.7-3.3"/><path fill="#E8B987" stroke="#E4A065" stroke-width=".25" d="M91.2 69.1c.5-.9 2.1-2.8 3.5-2.9 3-.2 1.6 2.1 2.9 3.2 1.5 1.2 3.6-.2 4.9.5 2 1.1.5 3.2 0 4.4-1.4 3.5-2.8 4.3-7.6 4.6-4.3.3-9.4.2-6.1-3.8.8-1 2-1.7 2.5-2.8.6-1.3-.3-2.9.2-4.1"/><path fill="#C8C8C6" stroke="#868686" d="M38.3 82.2c-1.6-.7-2.8-2.2-3.8-3.3-1.6-1.7-2.2-2-4.5-2.7-5.2-1.5-1.5-3.9-1.1-6.8 2.2-.5 4 7.1 6.9 4 1.2-1.2-1.3-2.3-1.5-3.4-.4-1.8 1-2.3 2.8-1.4 1.4.7 3.1 2.6 3.4 3.9.5 1.9-.9 2-1.2 3.5-.6 3.4 3.9 4.3-.4 7.2-1.2-.8-1.7-1.9-2.3-2.8"/><path fill="#14183C" d="M42.4 76.9c-.3-.5-2.3 1.4-3.2 2-1.2.7-2.7 1-3.7 1.9-1.9 1.5-1.8 4.1.6 5.6 1.4-2 5.2-2.7 7.2-4.4 1.2-1 1.7-1.1 1.4-2.8-.3-1.5-.8-2.1-2.5-2.7"/></g></switch></svg>
