<svg xmlns="http://www.w3.org/2000/svg" version="1.0" viewBox="0 0 185.2 94.7"><switch><g><linearGradient id="a" x1="29.464" x2="36.466" y1="8.981" y2="8.981" gradientUnits="userSpaceOnUse"><stop offset="0" stop-color="#989898"/><stop offset="1" stop-color="#cbcb98"/></linearGradient><path fill="url(#a)" stroke="#663" stroke-miterlimit="10" stroke-width=".5" d="M30.4 15.3c0-1.1 1-1.8 1.2-2.8.3-1.1 0-2.5-.3-3.4-.6-1.8-3.3-4.2-.7-5.8 6-3.6 7.6 8.4 4 11.5"/><path fill="#CBCB98" stroke="#989866" stroke-miterlimit="10" stroke-width=".5" d="M15 46.7c.2-1.6-2.7-1.9-3.8-2.4-1.7-.8-3.4-1.9-4.9-3.2-2.3-2-6.6-6.3-6.4-9.5 1.5.8 2.7 2.1 4.2 2.9 1.5.8 3.1 1.5 4.5 2.3 3.7 1.9 6.8 1.7 10.5.5-1-.9-6.6-6.7-3.9-7.8.7-.3 3.2 1.4 4.1 1.5 1.8.3 3.6.4 5.5.4"/><linearGradient id="b" x1="228.953" x2="152.751" y1="169.239" y2="-67.835" gradientTransform="rotate(-1.318 -2.61 451.43)" gradientUnits="userSpaceOnUse"><stop offset="0" stop-color="#989898"/><stop offset="1" stop-color="#cbcb98"/></linearGradient><path fill="url(#b)" stroke="#663" stroke-miterlimit="10" stroke-width=".5" d="M169 19.5c7.7.7 7.8 8.3 9.1 13.9 1.2 5.3 8 9.1 7 15-.2 0-1.2-.5-1.3-.6v1.6c-.2 0-.3-.7-.5-.8-.4.9-.4.8-1.2 1.3-1-2.6.4-5.3-.7-7.6-1-2.2-3.7-3.6-4.6-6-1-2.5-1.1-5.5-2.3-7.7-1-1.7-2.6-3.6-4.3-4.5"/><linearGradient id="c" x1="96.32" x2="20.118" y1="212.615" y2="-24.457" gradientTransform="rotate(-1.318 -2.61 451.43)" gradientUnits="userSpaceOnUse"><stop offset="0" stop-color="#989898"/><stop offset="1" stop-color="#cbcb98"/></linearGradient><path fill="url(#c)" stroke="#663" stroke-miterlimit="10" stroke-width=".5" d="M31.6 14.1c-3.7 1.5-3.5 6.5-3.5 9.7 0 2.5-.9 3.5-2.3 5.5-.7.9-2.8 1.6-3.5 2.4-.6.7-3.1 4-3.7 4.8-.4.5-2.5 1.1-2.8 1.7-.6 1 0 1.6-.9 2.6-.7.8-.9 1.3-1.4 2.1-.2.3-.3 1.8-.4 2.1-1.1 2.6 2 6.3 3.6 8.5 2.5 3.5 7.5.5 10.2-1.7-.6.3-4 2.6-4.9 3 1.7 1.6 6.2 2.3 8.1 1 .9-.6 1.3-1.6 2.1-2.3 1-.9 1.9-1 3.1-1.4 4.8-1.6 10-5.5 12.4-10.2 1.6-3 2.9-10.3 1-13.3"/><linearGradient id="d" x1="134.105" x2="57.902" y1="200.474" y2="-36.601" gradientTransform="rotate(-1.318 -2.61 451.43)" gradientUnits="userSpaceOnUse"><stop offset="0" stop-color="#989898"/><stop offset="1" stop-color="#cbcb98"/></linearGradient><path fill="url(#d)" stroke="#663" stroke-miterlimit="10" stroke-width=".5" d="M69.7 56.4c1.5 4.4 3.5 9.4 6.5 13 3.3 3.8 6.4 6.5 8.6 11.2.9 1.8 2.3 5 1.5 7.2-.9 2.5-3.3 3.9.7 4.9 2.2.5 3.8 1 5.9.2 3.7-1.4 5.1-2.2 4.2-6-.6-2.7-1.8-3.8-2.3-6.5-.7-3.1-.2-5.9-1.8-8.8-1.5-2.7-2-3.5-1.9-7 .2-5.6-3.4-6.8-4.7-12.1"/><linearGradient id="e" x1="207.225" x2="131.025" y1="176.219" y2="-60.849" gradientTransform="rotate(-1.318 -2.61 451.43)" gradientUnits="userSpaceOnUse"><stop offset="0" stop-color="#989898"/><stop offset="1" stop-color="#cbcb98"/></linearGradient><path fill="url(#e)" stroke="#663" stroke-miterlimit="10" stroke-width=".5" d="M171.1 30.9c1.8 5.8-.2 13.5-1.4 19.2-1.2 5.8-.1 10.8-.3 16.4-.1 2.4-1.6 5-2.1 7.4-.4 2.3.1 6.7-.8 8.7-1.6 3.7-11.6 4.2-14.3 1.7-.4-.2-.7-.6-.9-1 0 0 1.6.3 2.8-6.4 1.1-6.7 1.3-12.8.3-16.1-1-3.3-5.2-14.6-5.2-14.6"/><linearGradient id="f" x1="164.868" x2="89.26" y1="188.808" y2="-46.417" gradientTransform="rotate(-1.318 -2.61 451.43)" gradientUnits="userSpaceOnUse"><stop offset="0" stop-color="#989898"/><stop offset="1" stop-color="#cbcb98"/></linearGradient><path fill="url(#f)" stroke="#663" stroke-miterlimit="10" stroke-width=".5" d="M31.4 15.6c-.3-1.3 1-1.8 1.7-2.7.8-1.1 1.1-2.1 1-3.5-.2-2.4-2.9-5.9-.9-8.1 2-2.3 5-.5 6.3 1.5 1.2 1.9 1.8 5.2 1.4 7.5-.4 2.1-2.7 3.5-4.5 4.3 0 0 4.9-1.2 4.8-6.5 0-.4.9-.2.9-.2 5.8-5 13.4-10 21.6-7.1 3.7 1.3 4.1 2.8 8.3 2.9 3.7.1 8.9.2 12.5.9 8 1.4 12.7 1.6 21.1 1 4.7-.3 9.6-.8 14.3-.6 3.8.1 22 2.5 25.6 2.8 2.7.2 5.2-.9 7.8-.6 2.6.3 6.3 1.9 8.5 3.2 5.3 3 8.5 8.7 10 14.4 0 0 7.4 22.3-8.3 26.5-14.1 3.8-14.5.8-33.7 8-18 6.8-33.9 2-41.4 0-7.5-1.9-23.5-2.9-23.5-2.9-3.4-2.1-2.1-6.8-4-9.4-1.3-1.9-1.9-.7-4-1.7-1.6-.8-2.4-2.6-3.3-4.1-1.3 1.6-4 1.2-5.6 0"/><path fill="#989866" d="M20.5 48.8c-.7 0-2-.2-2.5.3-.4.4-.6 1.9-.2 2.3 1.3 1.1 1.6-2.2 2.5-2.6"/><linearGradient id="g" x1="86.695" x2="10.464" y1="215.78" y2="-21.381" gradientTransform="rotate(-1.318 -2.61 451.43)" gradientUnits="userSpaceOnUse"><stop offset="0" stop-color="#989898"/><stop offset="1" stop-color="#cbcb98"/></linearGradient><path fill="url(#g)" stroke="#663" stroke-miterlimit="10" stroke-width=".5" d="M15.8 44.5c1.3-1.6 3.5-1.5 5.4-1.8 2.5-.3 4.5-1.1 6.5-2.7" opacity=".33"/><linearGradient id="h" x1="101.939" x2="25.737" y1="210.81" y2="-26.263" gradientTransform="rotate(-1.318 -2.61 451.43)" gradientUnits="userSpaceOnUse"><stop offset="0" stop-color="#989898"/><stop offset="1" stop-color="#cbcb98"/></linearGradient><path fill="url(#h)" stroke="#663" stroke-miterlimit="10" stroke-width=".5" d="M32.7 34.3c5.5.1 1.6-10.5 1.8-13.2" opacity=".35"/><linearGradient id="i" x1="110.933" x2="34.732" y1="207.917" y2="-29.153" gradientTransform="rotate(-1.318 -2.61 451.43)" gradientUnits="userSpaceOnUse"><stop offset="0" stop-color="#989898"/><stop offset="1" stop-color="#cbcb98"/></linearGradient><path fill="url(#i)" stroke="#663" stroke-miterlimit="10" stroke-width=".5" d="M47.9 41c.2-3.2-.2-4.7-2.1-7.4-1.6-2.3-3.5-4.9-2.2-7.8"/><linearGradient id="j" x1="201.441" x2="125.24" y1="178.079" y2="-58.992" gradientTransform="rotate(-1.318 -2.61 451.43)" gradientUnits="userSpaceOnUse"><stop offset="0" stop-color="#989898"/><stop offset="1" stop-color="#cbcb98"/></linearGradient><path fill="url(#j)" stroke="#663" stroke-miterlimit="10" stroke-width=".5" d="M141.1 24.4c-.5 7.2-3.7 12-5.1 19.1-.5 2.4-.1 8.4 2.3 12.7 2.6 4.8 3.2 5 4.6 6.7 4.5 5.3 2.6 6.4 3.4 13.6.4 3.1.7 5.1-.6 8-.7 1.6-4.4 6.1-3.5 8.1 1.4 3 12.9 1.7 14.7-1.2 1.4-2.3.5-5.8 1.2-8.3.8-2.9 2.8-4.2 2.5-7.6-.6-6.3-1.8-9.4 2.5-14.9 3.3-4.3 6.1-7.7 7.5-12.8.3-1.2 2.2-3.9 2.6-8.2"/><linearGradient id="k" x1="119.933" x2="43.733" y1="205.023" y2="-32.044" gradientTransform="rotate(-1.318 -2.61 451.43)" gradientUnits="userSpaceOnUse"><stop offset="0" stop-color="#989898"/><stop offset="1" stop-color="#cbcb98"/></linearGradient><path fill="url(#k)" stroke="#663" stroke-miterlimit="10" stroke-width=".5" d="M64.5 49.8c-1.4 6-2.7 11.7-6.2 16.9-3.2 4.8-5.4 9-7.1 14.4-.9 2.9-2.8 4.4.1 5.9 1.9 1 7.1 1.3 9.3.6 4.7-1.3 2.5-9.5 5.1-13.4 1.8-2.8 5.1-4.7 7.8-6.8 5.7-4.5 10.1-8.6 12.3-16.1"/><path fill="#CBCB98" stroke="#989866" stroke-miterlimit="10" stroke-width=".5" d="M51.3 81.1c.5 1.1-.4 6.1-2.1 4.6-1.2-1.1 1.2-3.9 1.8-5l.3.4z"/><path fill="#CBCB98" stroke="#989866" stroke-miterlimit="10" stroke-width=".5" d="M55.2 84.1c1.9 3 2.3 5.4-2.3 4.1-3.5-1-4.3-2.8-1.1-5.2 0 0 1.9-1 3.4 1.1z"/><path fill="#CBCB98" stroke="#989866" stroke-miterlimit="10" stroke-width=".5" d="M57 88.4c-2.3-.7 4.6-7.5 5.6-1.8 0-.1-1.7 3-5.6 1.8z"/><linearGradient id="l" x1="130.893" x2="54.689" y1="201.508" y2="-35.569" gradientTransform="rotate(-1.318 -2.61 451.43)" gradientUnits="userSpaceOnUse"><stop offset="0" stop-color="#989898"/><stop offset="1" stop-color="#cbcb98"/></linearGradient><path fill="url(#l)" stroke="#663" stroke-miterlimit="10" stroke-width=".5" d="M64.5 50c.1-3.4 5-4.8 7.7-4.9 3.5-.1 7.2 1.1 10 3.3"/><linearGradient id="m" x1="125.135" x2="48.936" y1="203.351" y2="-33.715" gradientTransform="rotate(-1.318 -2.61 451.43)" gradientUnits="userSpaceOnUse"><stop offset="0" stop-color="#989898"/><stop offset="1" stop-color="#cbcb98"/></linearGradient><path fill="url(#m)" stroke="#663" stroke-miterlimit="10" stroke-width=".5" d="M63.8 51.4c-.5-2.4-2.6-4.2-1.6-7 .9-2.6 3.4-3.4 5.5-4.4"/><linearGradient id="n" x1="142.632" x2="66.435" y1="197.722" y2="-39.334" gradientTransform="rotate(-1.318 -2.61 451.43)" gradientUnits="userSpaceOnUse"><stop offset="0" stop-color="#989898"/><stop offset="1" stop-color="#cbcb98"/></linearGradient><path fill="url(#n)" stroke="#663" stroke-miterlimit="10" stroke-width=".5" d="M82.8 58.1c4.7 1.9 11.2-3 10.4-8.2"/><path fill="#CBCB98" stroke="#989866" stroke-miterlimit="10" stroke-width=".5" d="M86.3 87.8c-1 .8-4.4 3.2-3.5 4.6.4.6 2.8.6 3.4.3 1.3-.6 1.3-1.2 1.1-2.8l-1-2.1z"/><path fill="#CBCB98" stroke="#989866" stroke-miterlimit="10" stroke-width=".5" d="M92.5 92.4c-.2 1.3-5.5 1.8-6.4.5-1.1-1.7 2-3.5 3.3-3.7 0 0 3.5.6 3.1 3.2zm52.7.3c-1.3.6-6 1.8-6.1-.3-.1-1.2 3.3-3.6 4.1-4.1l2 4.4z"/><path fill="#CBCB98" stroke="#989866" stroke-miterlimit="10" stroke-width=".5" d="M149.8 94.2c-1.9.2-4.8.8-6.6.2-.3-2.5 1.5-5.1 4.8-4.8 0-.1 5.5 4.3 1.8 4.6z"/><path fill="#CBCB98" stroke="#989866" stroke-miterlimit="10" stroke-width=".5" d="M151.6 90.6c-1.5.5-3.1 1.9-2.9 3.6 2 .8 8.5 1.1 7.7-2.7l-4.8-.9z"/><linearGradient id="o" x1="120.543" x2="44.341" y1="204.831" y2="-32.242" gradientTransform="rotate(-1.318 -2.61 451.43)" gradientUnits="userSpaceOnUse"><stop offset="0" stop-color="#989898"/><stop offset="1" stop-color="#cbcb98"/></linearGradient><path fill="url(#o)" stroke="#663" stroke-miterlimit="10" stroke-width=".5" d="M53.9 39.2c-.1-5.3.8-9.8 3.9-14.2" opacity=".15"/><linearGradient id="p" x1="113.574" x2="37.375" y1="207.063" y2="-30" gradientTransform="rotate(-1.318 -2.61 451.43)" gradientUnits="userSpaceOnUse"><stop offset="0" stop-color="#989898"/><stop offset="1" stop-color="#cbcb98"/></linearGradient><path fill="url(#p)" stroke="#663" stroke-miterlimit="10" stroke-width=".5" d="M48.5 40.7c-.1-3.8-.6-7.4 1.4-10.9" opacity=".15"/><linearGradient id="q" x1="151.636" x2="75.432" y1="194.842" y2="-42.235" gradientTransform="rotate(-1.318 -2.61 451.43)" gradientUnits="userSpaceOnUse"><stop offset="0" stop-color="#989898"/><stop offset="1" stop-color="#cbcb98"/></linearGradient><path fill="url(#q)" stroke="#663" stroke-miterlimit="10" stroke-width=".5" d="M79.2 12.5c3.7-.4 8.7 4.9 10.7 7.5 3.5 4.8 4.5 12.2 4.7 18"/><linearGradient id="r" x1="152.242" x2="76.022" y1="194.679" y2="-42.447" gradientTransform="rotate(-1.318 -2.61 451.43)" gradientUnits="userSpaceOnUse"><stop offset="0" stop-color="#989898"/><stop offset="1" stop-color="#cbcb98"/></linearGradient><path fill="url(#r)" stroke="#663" stroke-miterlimit="10" stroke-width=".5" d="M91.9 54.3c1.8.6 4.2.6 5.9-.1 1.4-.6 1.3-1 2.7-1 1.5 0 3.3.6 5 .5" opacity=".15"/><linearGradient id="s" x1="124.447" x2="48.264" y1="203.54" y2="-33.475" gradientTransform="rotate(-1.318 -2.61 451.43)" gradientUnits="userSpaceOnUse"><stop offset="0" stop-color="#989898"/><stop offset="1" stop-color="#cbcb98"/></linearGradient><path fill="url(#s)" stroke="#663" stroke-miterlimit="10" stroke-width=".5" d="M77 62.4c-3.1 2.8-7.6 3.1-10.4 6.1" opacity=".15"/><linearGradient id="t" x1="113.593" x2="37.399" y1="207.05" y2="-29.999" gradientTransform="rotate(-1.318 -2.61 451.43)" gradientUnits="userSpaceOnUse"><stop offset="0" stop-color="#989898"/><stop offset="1" stop-color="#cbcb98"/></linearGradient><path fill="url(#t)" stroke="#663" stroke-miterlimit="10" stroke-width=".5" d="M58.9 71.8c2.1.8 5.1-.7 4.9-3.4" opacity=".15"/><linearGradient id="u" x1="196.315" x2="120.117" y1="179.723" y2="-57.341" gradientTransform="rotate(-1.318 -2.61 451.43)" gradientUnits="userSpaceOnUse"><stop offset="0" stop-color="#989898"/><stop offset="1" stop-color="#cbcb98"/></linearGradient><path fill="url(#u)" stroke="#663" stroke-miterlimit="10" stroke-width=".5" d="M147.7 65.5c3.2.6 5.1-3.2 6.4-6" opacity=".15"/><linearGradient id="v" x1="213.936" x2="137.739" y1="174.056" y2="-63.002" gradientTransform="rotate(-1.318 -2.61 451.43)" gradientUnits="userSpaceOnUse"><stop offset="0" stop-color="#989898"/><stop offset="1" stop-color="#cbcb98"/></linearGradient><path fill="url(#v)" stroke="#663" stroke-miterlimit="10" stroke-width=".5" d="M156.3 52.2c1.1-2.6 3.6-4.1 5.8-5.5 3.7-2.5 6.9-2.8 8.6-14.1" opacity=".15"/><linearGradient id="w" x1="190.666" x2="114.466" y1="181.538" y2="-55.528" gradientTransform="rotate(-1.318 -2.61 451.43)" gradientUnits="userSpaceOnUse"><stop offset="0" stop-color="#989898"/><stop offset="1" stop-color="#cbcb98"/></linearGradient><path fill="url(#w)" stroke="#663" stroke-miterlimit="10" stroke-width=".5" d="M140.8 23.1c-.6-3.8-3.1.9-3.2 2.4-.2 2.6.1 5-.8 7.4-.7 2-1.9 3.9-2.9 5.9-1.6 3.2-2.6 6.6-4.1 10" opacity=".5"/><path fill="#989866" d="M35.8 13.4c1.6-.7 2.4-2.7 1.7-4.1-.8-1.4-2.6-2.3-3.4-3.8-2-3.6 2.8-5.1 4.8-1.5 1.8 3.1 2.1 6.3-1.8 8.5"/><linearGradient id="x" x1="92.379" x2="16.184" y1="213.866" y2="-23.185" gradientTransform="rotate(-1.318 -2.61 451.43)" gradientUnits="userSpaceOnUse"><stop offset="0" stop-color="#989898"/><stop offset="1" stop-color="#cbcb98"/></linearGradient><path fill="url(#x)" stroke="#663" stroke-miterlimit="10" stroke-width=".5" d="M27.4 53c3 .1 6-1.8 7.2-4.6" opacity=".32"/><linearGradient id="y" x1="100.778" x2="24.581" y1="211.171" y2="-25.885" gradientTransform="rotate(-1.318 -2.61 451.43)" gradientUnits="userSpaceOnUse"><stop offset="0" stop-color="#989898"/><stop offset="1" stop-color="#cbcb98"/></linearGradient><path fill="url(#y)" stroke="#663" stroke-miterlimit="10" stroke-width=".5" d="M39.1 49.9c1-.7 1-1.9.9-3.1" opacity=".32"/><linearGradient id="z" x1="103.909" x2="27.704" y1="210.183" y2="-26.897" gradientTransform="rotate(-1.318 -2.61 451.43)" gradientUnits="userSpaceOnUse"><stop offset="0" stop-color="#989898"/><stop offset="1" stop-color="#cbcb98"/></linearGradient><path fill="url(#z)" stroke="#663" stroke-miterlimit="10" stroke-width=".5" d="M42.3 47.7c1.3-1.1-.2-2.7-1.3-3.5" opacity=".32"/><path fill="none" stroke="#663" stroke-miterlimit="10" stroke-width=".5" d="M51.3 83.2c.1-.4.3-.6.4-1 .7-.4 1.1-1.3 1.3-2.2m3.7 7.2c0-1.8.4-3.6.4-5.7m30.3 8.2c1.1-.4 1.7-1.7 1.9-2.9m55 3.5c.5-1.3 2.3-2.7 2.4-4.1m3.1 5.1c1-1 .8-2.4.8-3.7"/><path fill="#333" d="M32 35.3c-.9.5-1.6-1-2.6-.8-.8.2-1.2 1.2-1.7 1.8.8.1 1.5.9 2.3.7.7-.1 1.2-.8 1.7-1.2l.3-.5z"/><linearGradient id="A" x1="-43.951" x2="-39.836" y1="-79.723" y2="-79.723" gradientTransform="rotate(11.157 -596.583 345.202)" gradientUnits="userSpaceOnUse"><stop offset="0" stop-color="#989898"/><stop offset="1" stop-color="#cbcb98"/></linearGradient><path fill="url(#A)" stroke="#663" stroke-miterlimit="10" stroke-width=".5" d="M31.9 35.4c-.2.3-.8.2-1.1.1-.4-.2-.6-.4-1.1-.3l.2-.2c-.2-.1-.5 0-.7.2v-.3c-.6-.2-1.3 1.1-1.7 1.4.4-.2.5-.9.7-1.2.2-.4.7-.7 1.1-.7.5 0 1 .2 1.4.4.4.2.9.6 1.2.6"/><path fill="#FFF" d="M30.3 35.6c.2.5-.4.5-.6.6-.2.1-.4 0-.2.3.1.1.4.2.5.2.8 0 1.1-1.1.3-1.1" opacity=".56"/><path fill="#FFF" d="M30.2 36.1c-.2.1-.5.1-.6.4.3.1.8.1.9-.3-.1-.1-.1-.1-.2-.1"/><path fill="none" stroke="#663" stroke-miterlimit="10" stroke-width=".5" d="M32.8 34c-.9-3.9-6.3-3-7.5.2"/><linearGradient id="B" x1="12.852" x2="16.025" y1="41.843" y2="41.843" gradientUnits="userSpaceOnUse"><stop offset="0" stop-color="#989898"/><stop offset="1" stop-color="#cbcb98"/></linearGradient><path fill="url(#B)" d="M13.3 45.1c0-.9-.5-1.2-.4-2 .2-1 .6-.7 1.1-1.5.6-1 .7-3 2-3.2.4 2.3-2.3 4.8-2.9 7"/><linearGradient id="C" x1="18.287" x2="22.612" y1="33.907" y2="33.907" gradientUnits="userSpaceOnUse"><stop offset="0" stop-color="#989898"/><stop offset="1" stop-color="#cbcb98"/></linearGradient><path fill="url(#C)" d="M19.1 36.2c-.4.1-.4.3-.8.2 0-2 2.3-4.9 4.3-5.2-.4 1.5-2.5 4.7-4.1 5.2"/><linearGradient id="D" x1="14.822" x2="20.06" y1="47.997" y2="47.997" gradientUnits="userSpaceOnUse"><stop offset="0" stop-color="#989898"/><stop offset="1" stop-color="#cbcb98"/></linearGradient><path fill="url(#D)" stroke="#663" stroke-miterlimit="10" stroke-width=".5" d="M15.1 51c-1.2-3.4 1.7-5.7 5-6.1" opacity=".15"/></g></switch></svg>
