<svg xmlns="http://www.w3.org/2000/svg" id="Capa_1" x="0" y="0" version="1.1" xml:space="preserve" viewBox="0 0 44.8 31.7"><style>.st4{fill:none;stroke:#4c3d3c;stroke-width:.25;stroke-miterlimit:10}.st18,.st22,.st4,.st5{enable-background:new}.st5{fill:#635150}.st18{fill:#aa715b}.st22{fill:#2a2222}</style><path fill="#fff" d="M19.7 8.8s-.1-.3-1.8 1.1-2.5 2.1-2.5 2.1l-1.7 1.5-1.1.6"/><path fill="#544140" d="M11.5 14.6s-2.1.8-2.8.9c-.7.1-2.7.8-2.7.8l-1.8.4-1 .3-1.5.4-.4-.1s.6.2 1.5.1-2 .3-1.7.5 1.4-.2 1.4-.2-1 .1-1.1.5c-.2.4.3-.2 1.5-.2s2.1-.2 2.1-.2-.4.3-1.6.8c-1.2.5-1.6.8-1.6.8s-.3.3 1.3-.3 2.8-.9 4.6-1.4 1.9-.5 3.6-.6 2.7 0 4.2.5 1.3.3 2 .8 1.5.7 1.5.7.2.1.4-.1c.2-.3 1.1-.8 1.1-.8l-2.2-1.4s-.6-1.2-.5-1.7c.1-.2 2.6-.1 2.6-.1s2.5.1 3.8-.7c1.2-.8 2.8-1.8 3.4-3.2.6-1.4.7-1.5.8-2.2.1-.7 1.1.7 1.1.7s.4-1.2 1.3-1.3c.9-.1 1.2-.2 2.1-.2.9-.1 1.4 0 1.4 0l.1-1.1s-.5-.2.3-1.1c.8-.9.9-1.1.9-1.1l-1.6.1s-.2.2-.3-.5c0-.7.4-.1 1.3-.4s.9-.6.9-.6-.5-2-3.6-1.4-3.2.9-3.8 2c-.3.4-.7 1.3-1.7 1.8-1.4.7-3.5 1-4.4 1.4-1.8.8-4.4 2.4-5.6 3.4s-3.1 2.9-3.1 2.9l-2.2 1.1z"/><path fill="#b5aeaa" d="M35.3 5c-.6.4-1.1 1-1.3 1.7 0 .1-.1.3-.1.4-.1-.2 0-.4.1-.5-.1.1-.2.2-.2.3 0-.1.1-.2.1-.4-.1 0-.2.1-.2.2 0-.2.1-.3.2-.4-.1.1-.2.2-.3.2.1-.3.2-.5.4-.8-.1.2-.3.4-.4.5.2-.2.3-.5.5-.7-.1.1-.3.1-.4.1.2 0 .3-.1.4-.2-.1 0-.3 0-.4-.1.1 0 .2-.1.3-.1v-.1c.3 0 .7-.1 1-.1h.3c-.2.2-.5.3-.7.4-.1.1-.1.2-.2.3-.2.4-.4.9-.4 1.3v-.6"/><path fill="#d56900" d="M34.3 9.9c-.1.4-.2.8-.4 1.2-.8 1.8-1.6 3.6-3 5.1l-.9.9c-.8.7-1.7 1.4-2.8 1.9-1 .4-2.2.6-3.3.2-.7-.2-1.3-.6-2-.7-.6-.1-1.2.1-1.8.1-.2 0-.4 0-.6-.1-.2-.1-.3-.2-.5-.4-.7-.8-1.4-1.7-1.4-2.7 0-.1 0-.2.1-.3.1-.1.1-.1.2-.1.9-.4 2-.1 3-.1 2 0 3.9-1.2 5.4-2.6.3-.3.6-.6.9-1 .4-.6.5-1.2.7-1.9.2-.5.3-.7.9-1.2.3-.3.8-.1 1.2 0 1.3.1 2.7-.5 4.1-.2.1.6.3 1.3.2 1.9z"/><path d="M13.6 13.8c.4.2.9.3 1.3.5.2.1.3.1.5.1.2.1.5.1.7.1.6 0 1.2.1 1.8.1" class="st4"/><path d="M3.7 17.3c2.4-.6 4.9-1.2 7.3-1.8.4-.1.9-.2 1.3-.5m-6.4 2.5c1.7-.3 3.3-.8 4.9-1.2" class="st5"/><path d="M24 12.5c-.8.6-1.6 1.3-2.6 1.6-.5.1-1.1.1-1.6.3h-.1s-.1-.1 0-.1h.1m2.8-2.7c-.9.7-1.9 1.3-2.8 2-.3.2-.5.4-.8.5-.5.3-1.1.4-1.7.3l.1-.1m-.9.1c1.8-.6 3.3-1.9 4-3.6l-.1.1m-5.6 3.3c.5-.1.9-.3 1.3-.5s.6-.5.9-.8c.5-.6 1-1.2 1.4-1.8" class="st4"/><path d="M26.8 6.8c.2 0 .5.1.7.2.3.2.5.5.6.9.1-.1.3-.2.3-.3v-.1s0-.1-.1-.1c-.2-.2-.5-.4-.7-.5-.3-.2-.7-.4-1.1-.5-.3-.1-.8-.1-1.1.1.6.2 1 .2 1.4.3z" class="st5"/><path fill="#f2b800" d="M37.5 2.9c.5.1 1.1.4 1.3.9-.2.1-.5 0-.7 0-1.4 0-2.7.6-4.1.7h-.2c-.1-.1-.2-.4-.1-.4.1-.1.5 0 .6 0 .4 0 .7 0 1.1-.2.2-.1.3-.2.4-.4.1-.1-.2-.2-.1-.3.1-.2.3-.2.5-.2.5-.1.9-.1 1.3-.1z"/><path fill="#ea7c20" d="M28.8 10.3c-.7 1.5-1.9 2.6-3.2 3.6-1.3.9-2.8 1.6-4.3 2.3.6-.2 1.3-.4 1.9-.7-.3.2-.5.4-.8.6.4-.1.8-.3 1.2-.6-.2.2-.5.4-.6.6.4-.2.9-.4 1.3-.7l-.6.6c.6-.3 1.2-.6 1.8-1-.3.4-.7.7-1.1.9.8-.3 1.5-.7 2.2-1.1-.1.1-.2.2-.3.4.6-.2 1.1-.5 1.5-1-.2.2-.3.4-.4.6.5-.2 1-.5 1.2-1-.2.2-.3.4-.4.6.3-.2.6-.4.8-.7-.1.2-.3.4-.4.6.5-.4.9-.8 1.3-1.3-.1.2-.2.5-.3.8.2-.3.4-.6.7-.9v.5c.4-.2.7-.5 1-.8-.1.3-.2.5-.4.8l.8-.8v.4c.2-.3.4-.7.7-.9 0 .1 0 .3-.1.4.3-.3.5-.7.5-1.1 0 .1.1.3.1.4.2-.3.3-.6.3-1-.1.1.1.2.2.2s.2-.2.2-.3c.1-.3.1-.6 0-.9 0 .1.1.2.1.3 0-.2 0-.5-.2-.7.2-.1.3-.5 0-.6.1.1 0 .4-.1.4-.2.1-.3-.1-.3-.3 0 .2-.1.4-.1.6 0-.1-.1-.3-.1-.4 0 0 0-.1-.1-.1s-.2.1-.1.2v.6c0-.3 0-.6-.2-.8-.1.3-.2.6-.1.9-.1 0-.2-.1-.3-.1 0 .1-.1.1-.1.2 0-.2 0-.4-.2-.4-.3 0-.1.6-.4.7 0-.1-.1-.2-.1-.3l-.2.2c0-.2-.1-.5-.3-.6-.1.2-.1.4 0 .6 0-.1-.1-.2-.1-.2-.1 0-.1.1-.2.2 0-.1 0-.3-.1-.4-.2.4-.4.7-.6 1.1.1-.3.2-.6.2-.9-.2.3-.3.6-.6.8.1-.2.2-.5.2-.7-.3.5-.8 1-1.3 1.4.3-.4.5-.9.6-1.4-.2.1-.5.3-.7.5"/><path fill="#e17412" d="M30.5 12c.1-.1.3-.2.4-.3.1-.1.1-.4.2-.5-.1.2-.4.7-.6.8zm-3.3 1.3s.1 0 .1-.1c.1-.1.2-.1.3-.2-.2 0-.3.2-.4.3zm4.1-1.1c.1-.1.7-.6.4-.7-.1.3-.3.5-.4.7zm-3.4 1.2c-.2.1-.4.3-.7.4.3-.1.6-.2.9-.4"/><path fill="#c99400" d="M36.5 4.4c.5-.2 1-.6 1.5-.6-.7-.2-1.3 0-2 .2-.5.1-1.9.3-2.4.4-.1 0-.1.3 0 .5 0 .1 1 0 1.1 0 .7-.1 1.2-.2 1.8-.5z"/><path fill="#fcca3d" d="M36.1 3.7c.1 0 .3-.1.4-.2.5-.3 1.2-.3 1.7 0-.1-.2-.4-.3-.6-.4-.3-.1-.5-.1-.7-.1-.2 0-.5 0-.6.1-.2.2-.2.4-.2.6z"/><path fill="#a9928f" d="M32.5 2.6c-.3 0-.5.2-.5.5-.1-.2 0-.4.1-.5.1-.1.3-.2.5-.2s.4 0 .5.1c.1 0 .1 0 .2.1s.1.2 0 .3c-.1.1-.1 0-.2 0-.2-.2-.3-.3-.6-.3zm-.2 1.1c-.1 0-.3-.1-.3-.3 0 .1 0 .2.1.2s.1.1.2.1c.2.2.5.3.8.3.2 0 .4 0 .6-.1.2-.2.1-.5-.1-.5s-.3.2-.4.2c-.4.1-.6.1-.9.1z"/><circle cx="32.7" cy="3.1" r=".5" fill="#110a11"/><circle cx="32.7" cy="3" r=".2" fill="#bfbab8"/><path fill="#cec6c2" d="M20.2 20.1c.4.1.9 0 1.4 0 .5-.1 1-.1 1.5-.1.9 0 1.8.1 2.6-.3-.6.1-1.2 0-1.8-.2-.4-.2-.8-.5-1.3-.7-.4-.1-.8-.2-1.1-.2-.5 0-1.6-.1-1.9.4-.4.4.2 1 .6 1.1z"/><path fill="#c68d50" d="M17.3 30.4c1.6-1.9 3.2-4 4.6-6.1.2-.3.4-.5.6-.7.6-.5 1.4-.4 2.2-.4 1.7-.2 3.2-1.3 4.9-1.4 1-.1 2 .2 2.9.1.2 0 .4-.1.7-.1.2 0 .4.1.5.4 0 .1 0 .2.1.3.1.1.1.1.2.1h3c.3 0 .6 0 .8.1.2.1.3.2.5.3.2.1.4.1.5 0 1.1.1 2.1.4 3.2.5-1.7.1-3.5.1-5.2-.4-.1 0-.3-.1-.4-.1-.1 0-.3.2-.2.3l.1.1c1.9 1 3.7 2 5.6 3.1-1.4-.7-2.7-1.3-4.1-2-1-.5-2-.9-3-1.3-1.8-.6-3.7-.8-5.6-.6-.6.1-1.2.2-1.7.4-.3.1-.6.3-1 .4-.4.1-.8.1-1.1.1-1.3.2-2.3 1.3-3.1 2.4-1.2 1.6-2.4 3.1-3.5 4.7-.5.1-1 .1-1.5-.2z"/><path fill="#775539" d="M19.4 29.2c1.4-1.2 2.5-2.6 3.4-4.1.1-.1.2-.3.3-.4.1-.1.2-.2.4-.2.8-.4 1.7-.6 2.6-.9.4-.1.8-.2 1.2-.4.7-.2 1.5-.4 2.2-.5.3 0 .7-.1 1-.1.6 0 1.2.1 1.8.2 2 .3 3.9.9 5.6 2-2.5-1.5-5.4-2.2-8.3-2-1.9.1-3.7.6-5.3 1.4-.4.2-.8.5-1.2.8-.4.5-.7 1.1-1 1.6-.6 1-1.5 1.7-2.1 2.7-.3.5-.6 1-1.1 1.3-.3.2-.6.2-.9.1-.2-.1-.6-.3-.4-.5.1-.2.6-.2.8-.3.3-.1.7-.4 1-.7zm15.2-6.8c-.1 0-.3.1-.4.1-.1 0-.3.1-.4 0-.1-.1-.2-.2-.1-.4.1.2.3.3.4.3.2 0 .3-.1.5-.1.1 0 .1 0 .2.1-.1 0-.1.1-.2 0"/><path d="M37.1 23.3c.1 0 .2 0 .3.1.4 0 .7-.1 1 0-.5-.1-1-.2-1.6-.3-.2 0-.4-.1-.5 0 .2.2.6.2.8.2z"/><path d="M19.7 19.5s-.4 0 .2.6.7.2.7.2l2.7 1.5.4.5.4.2.2.5.4.3.1.7-.5.2.1.4h.4l.3-.3.1-.4v-.6L25 23l.2.9-.1.6-.2.2.5-.1.2-.8.1-.5-.1-.5.2.1.2.7-.2.2.3.1h.4l.1-.3-.3-.6-.4-.5-.5-.1-.8-.4-1.1-.6-2.4-1.7s-1.2.1-1.4-.2z" class="st18"/><path fill="#aa715b" d="M24.8 24.8l.3.3s0 .4.3-.2c.3-.6 0-.2 0-.2l-.3-.1-.3.2z"/><path fill="#191515" d="M26.2 24.8c.2-.1.4-.2.6-.4 0 .3-.2.5-.4.6-.3.2-.7.3-1.1.2.1-.1.1-.4.3-.4.2-.1.4.1.6 0zm-1.9-.5v.5c-.1-.1-.3-.1-.4-.2l.1-.1s.1-.1.3-.2c-.1 0-.1 0 0 0m1.7-.7c.1.1.2.3.3.4 0 0 .1 0 0 0-.2-.1-.5-.2-.6-.4.1.1.2.1.3 0 0 .1 0 .1 0 0 .1 0 0 0 0 0"/><path d="M24.4 20.1c.6.3 1.3.4 2 .5 1 .2 2 .5 2.9.8.2.1.4.2.6.1.1 0 .1-.1.2-.2s.3-.2.4-.2c0 .1.1.2.1.3.1 0 .2-.1.3 0l.1.1c.2.2.3.4.5.7.1.1.1.2.1.3 0 .1 0 .1-.1.2-.1.2-.3.4-.5.5.2-.4 0-1-.3-1.3 0 .2.2.4.3.6.1.3 0 .5-.1.8-.1.2-.1.3-.3.4 0-.2-.1-.3-.1-.6s.1-.5 0-.7c-.1-.2-.3-.4-.5-.4-.1.1.1.3.1.4.2.3 0 .8-.3.9h-.3c-.1-.1-.1-.2 0-.3 0 0 .1 0 .1-.1.1-.1.2-.3.2-.4 0-.1 0-.2-.1-.3-.1-.2-.3-.2-.5-.2s-.4.1-.5.1c-.5.1-1.1-.2-1.5-.5-.1-.1-.2-.1-.4-.2-.1-.1-.3-.1-.4-.1-.8-.2-1.5-.3-2.3-.4-.3 0-.6-.1-.8-.3-.2-.2-.3-.4-.4-.6l-.2-.2c0-.1-.1-.2 0-.3.5 0 .9-.1 1.4-.1h.2c.3.1 0 .6.1.7z" class="st18"/><path fill="#6a473d" d="M30.3 23.5c.1.2.2.3.3.4l-.3.3h-.1v-.1c-.2-.3-.5-.5-.6-.7 0 0 .4-.3.5-.3.1 0 .1.3.2.4z"/><path d="M30 23.5c-.1 0-.2.1-.3 0-.1 0-.2-.1-.2-.2 0 .1 0 .3.1.4.1.1.2.1.3.1h.6c.1 0 .2-.1.2-.3 0 .1-.3-.3-.2-.2-.2 0-.4.2-.5.2zm.3.8c.2.1.4.1.6.1.2 0 .3-.2.4-.3.1-.2.1-.3.1-.5h-.1s0 .1-.1.1c-.1.2-.2.3-.3.5-.1.2-.2 0-.3 0-.1-.1-.2.1-.3.1z" class="st22"/><path d="M29.4 23c-.1 0-.3-.1-.4-.1h-.2v.1c.2.3.5.4.8.3-.1 0-.1-.1-.2-.1V23" class="st22"/></svg>
