<?xml version="1.0" encoding="utf-8"?>
<!-- Generator: Adobe Illustrator 21.0.0, SVG Export Plug-In . SVG Version: 6.00 Build 0)  -->
<svg version="1.1" id="Capa_1" xmlns="http://www.w3.org/2000/svg" xmlns:xlink="http://www.w3.org/1999/xlink" x="0px" y="0px"
	 viewBox="0 0 220 130" style="enable-background:new 0 0 220 130;" xml:space="preserve">
<style type="text/css">
	.st0{fill:#3E5799;stroke:#26387C;}
	.st1{fill:#26387C;stroke:#26387C;}
	.st2{opacity:0.63;}
	.st3{fill:#924693;}
	.st4{fill:#802123;}
	.st5{fill:#4A2258;}
	.st6{fill:#CA272B;}
	.st7{fill:#ECC6B2;}
	.st8{fill:#83368D;}
	.st9{fill:none;}
	.st10{fill:#BB262C;}
	.st11{fill:none;stroke:#711012;stroke-width:0.95;stroke-linecap:square;}
	.st12{fill:none;stroke:#8A1B1E;stroke-width:0.95;stroke-linecap:square;}
	.st13{opacity:0.75;fill:#599D53;}
	.st14{opacity:0.75;fill:#518FD0;}
	.st15{opacity:0.75;fill:#ECC649;}
	.st16{opacity:0.5;fill:#FFFFFF;}
	.st17{opacity:0.6;fill:#272425;}
	.st18{opacity:0.33;fill:#FFFFFF;}
	.st19{fill:#272425;}
	.st20{fill:#D5815F;stroke:#A4512B;stroke-width:0.75;}
	.st21{fill:#D06E4B;stroke:#A4512B;stroke-width:0.75;}
	.st22{opacity:5.000000e-02;fill:#C9C9C9;}
	.st23{fill:#D4E7EC;}
	.st24{fill:#9E521C;}
	.st25{fill:#483A89;stroke:#969695;stroke-width:0.75;}
	.st26{fill:#FFFFFF;stroke:#969797;stroke-width:0.25;}
	.st27{fill:#F6F3C9;stroke:#969797;stroke-width:0.25;}
	.st28{fill:none;stroke:#969797;stroke-width:0.25;}
	.st29{opacity:0.41;fill:none;stroke:#969797;stroke-width:0.25;}
	.st30{opacity:0.45;fill:none;stroke:#969797;stroke-width:0.25;}
	.st31{opacity:0.4;fill:none;stroke:#969797;stroke-width:0.25;}
	.st32{fill:#BF3A2A;stroke:#969797;stroke-width:0.25;}
	.st33{fill:url(#SVGID_1_);stroke:#969797;stroke-width:0.25;}
	.st34{fill:url(#SVGID_2_);stroke:#969797;stroke-width:0.25;}
	.st35{fill:url(#SVGID_3_);stroke:#969797;stroke-width:0.25;}
	.st36{opacity:0.34;fill:none;stroke:#969797;stroke-width:0.25;}
	.st37{opacity:0.28;fill:none;stroke:#969797;stroke-width:0.25;}
	.st38{fill:url(#SVGID_4_);stroke:#969797;stroke-width:0.25;}
	.st39{fill:url(#SVGID_5_);stroke:#969797;stroke-width:0.25;}
	.st40{fill:url(#SVGID_6_);stroke:#969797;stroke-width:0.25;}
	.st41{fill:#A1262D;}
	.st42{fill:none;stroke:#B79192;stroke-width:0.75;}
	.st43{fill:#A7A6A6;stroke:#726F6F;stroke-width:0.75;}
	.st44{fill:#382512;stroke:#573719;stroke-width:0.75;}
	.st45{fill:#C6A97D;}
	.st46{fill:#A7A6A6;stroke:#888787;stroke-width:0.75;}
	.st47{fill:#483A89;stroke:#EDDAE0;stroke-width:0.75;}
	.st48{fill:#0D1946;stroke:#E4E2F0;stroke-width:0.75;}
	.st49{fill:#100F10;}
	.st50{fill:none;stroke:#95724C;stroke-width:0.75;}
	.st51{opacity:0.13;fill:url(#SVGID_7_);}
	.st52{opacity:0.13;fill:url(#SVGID_8_);}
	.st53{fill:#FFFFFF;}
	.st54{fill:#1A1A1B;}
	.st55{fill:#3485C2;}
	.st56{fill:#79B6DC;}
	.st57{fill:#D17C3F;}
	.st58{fill:#C6A97D;stroke:#A07D4F;stroke-width:0.75;}
	.st59{fill:#542760;}
	.st60{fill:#F2D7B5;}
	.st61{fill:#8B8A8A;stroke:#6B6B6B;stroke-width:0.25;}
	.st62{fill:#9E9E9D;stroke:#6B6B6B;stroke-width:0.25;}
	.st63{fill:#090909;}
	.st64{fill:#2B2B2B;}
	.st65{fill:#F0C86E;stroke:#B9943D;stroke-width:0.25;}
	.st66{fill:#E2B65D;stroke:#B9943D;stroke-width:0.25;}
	.st67{fill:#EDCAC9;stroke:#B9943D;stroke-width:0.25;}
	.st68{fill:#B9943D;}
	.st69{fill:#EDCAC9;stroke:#BB9595;stroke-width:0.25;}
	.st70{fill:none;stroke:#FFFFFF;stroke-width:0.25;}
	.st71{fill:#EF5550;}
	.st72{opacity:0.29;fill:#969595;}
	.st73{fill:#F2D7BD;}
	.st74{fill:#B7C8E5;}
	.st75{fill:#B8B7B5;}
	.st76{fill:#DB863F;}
	.st77{fill:#90BF5B;}
	.st78{fill:#F2E5B0;}
	.st79{fill:url(#SVGID_9_);stroke:#779768;stroke-width:0.25;}
	.st80{fill:url(#SVGID_10_);stroke:#779768;stroke-width:0.25;}
</style>
<symbol  id="Deleted_Symbol_1" viewBox="-36.2 -22.4 72.4 44.7">
	<g>
		<g>
			<g>
				<g>
					<path class="st0" d="M-29.9,10.9c-1.7,0.7-3.5,1.8-5,3c0,0,0-0.1,0-0.1c0.3-0.5,0.6-1,1-1.6c1.1-2,2.4-4.5,3.4-7.2
						c1-0.7,2.4-1.8,2.9-3.5C-27,0-28-2.1-28.9-3.9C-29-4.7-29.2-5.4-29.6-6c-0.9-1.6-1.9-4-2.5-6.5c-0.5-2-0.9-4-1-5.6
						C-29.6-12.3-23-6.8-21-2.2C-18.4,4-25.2,9.1-29.9,10.9z"/>
					<path class="st1" d="M-5.9,7.5c0-0.1-0.2-0.1-1.4,1.3C-8.9,10.5-22,20.9-29.1,21.8c-4.2,0.5-8.5-3.5-5.7-7.9
						c1.5-1.2,3.3-2.4,5-3c4.6-1.8,11.5-6.8,8.8-13c-2-4.6-8.5-10.1-12.1-15.9c-0.1-2.8,0.6-4.6,3.1-3.4c0,0,0.1,0,0.1,0.1
						c-0.7,0.1-1.2,0.4-1.1,1.3C-30.6-18-12.8-8.5-8.1-4.7c0.3,0.4,0.5,0.7,0.7,1C-5.4,0.4-5.8,7-5.9,7.5z"/>
					<path class="st1" d="M-27.5,1.6c-0.5,1.6-2,2.8-2.9,3.5c1.2-3.1,1.9-6.4,1.5-9C-28-2.1-27,0-27.5,1.6z"/>
				</g>
				<g>
					<path class="st0" d="M18.3,1.6C19.7-1.5,30.4-10.1,33-16.8c-0.2,1.3-0.5,2.8-0.9,4.3C31.4-10,30.5-7.6,29.6-6
						c-0.3,0.6-0.6,1.3-0.7,2.1C28-2.1,27,0,27.5,1.6c0.5,1.6,2,2.8,2.9,3.5c1,2.6,2.3,5.2,3.4,7.2c0.3,0.6,0.7,1.1,1,1.6
						c0.6,1,0.9,2,0.9,2.9C34.7,15.9,33,15,30,14C24.4,12,16.3,5.8,18.3,1.6z"/>
					<path class="st1" d="M29.1,21.8C22,20.9,8.9,10.5,7.3,8.8C6,7.4,5.9,7.4,5.9,7.5c0-0.5-0.5-7,1.6-11.2c0.2-0.3,0.4-0.7,0.7-1
						C12.8-8.5,30.6-18,30.9-20.1c0.1-0.9-0.4-1.2-1.1-1.3c0,0,0.1-0.1,0.1-0.1c2.8-1.4,3.4,1.1,3,4.7C30.4-10.1,19.7-1.5,18.3,1.6
						C16.3,5.8,24.4,12,30,14c3,1.1,4.8,1.9,5.8,2.8C35.7,19.9,32.4,22.2,29.1,21.8z"/>
					<path class="st1" d="M27.5,1.6C27,0,28-2.1,28.9-3.9c-0.4,2.6,0.3,5.8,1.5,9C29.4,4.4,28,3.2,27.5,1.6z"/>
				</g>
				<path class="st1" d="M30.9-20.1c0.1-0.9-0.4-1.2-1.1-1.3c-5.4,2.7-18.2,12-21.8,16.7C12.8-8.5,30.6-18,30.9-20.1z"/>
				<path class="st1" d="M-5.9,7.5C-5.9,7.5-5.9,7.5-5.9,7.5C-5.8,7.5-5.9,7.5-5.9,7.5z"/>
				<path class="st1" d="M-30.9-20.1c-0.1-0.9,0.4-1.2,1.1-1.3c5.4,2.7,18.2,12,21.8,16.7C-12.8-8.5-30.6-18-30.9-20.1z"/>
				<path class="st1" d="M-31.2,16.4c0,0-0.5,2.2,1.7,2.5c2.2,0.2,17.4-8.4,17.4-8.4s-11.4,5.5-13.9,5.2
					C-28.5,15.4-30.5,14.6-31.2,16.4z"/>
				<path class="st1" d="M12.7,10.3c0,0,12.1,9.4,18.4,9.4c0.7,0,2.3-3.8-0.4-2.8C27.2,18.2,12.7,10.3,12.7,10.3z"/>
				<path class="st1" d="M5.9,5c0,0,8.2,5.9,8.7,4.9c0.5-1-6.2-4.5-6.2-4.5s5,0.9,5.2,0.2c0.2-0.7-6.4-1.7-6.4-1.7s6.6-2.6,6.6-3.3
					C13.7-0.2,7.5,2,7.5,2s6.8-7.8,5.9-8.2c-0.9-0.3-6.1,5.6-6.8,6.4C5.9,1.2,5.9,5,5.9,5z"/>
				<path class="st1" d="M-6.2,5c0,0-8.2,5.9-8.7,4.9c-0.5-1,6.3-4.5,6.3-4.5s-5,0.9-5.2,0.2c-0.2-0.7,6.4-1.7,6.4-1.7
					s-6.6-2.6-6.6-3.3c0-0.7,6.3,1.6,6.3,1.6s-6.8-7.8-5.9-8.2c0.9-0.3,6.1,5.6,6.8,6.4C-6.2,1.2-6.2,5-6.2,5z"/>
				<g class="st2">
					<path class="st1" d="M7.5-2.7c0,0.6-0.1,1.5-0.2,2.4c-8.1-2.1-13.6-1-15.8-0.3c-0.1-0.8-0.1-1.5,0-2.2
						C-4.6-3.2,1.5-3.7,7.5-2.7z"/>
					<path class="st1" d="M-8.6-2.7c0.1-1.5,0.7-2.5,1.8-2.6C-2.7-5.6,7.7-5.3,7.5-3c0,0.1,0,0.2,0,0.3C1.5-3.7-4.6-3.2-8.6-2.7z"/>
					<path class="st1" d="M7.3-0.3c-0.3,3-0.8,6.9-1.6,8C4.6,9.1-4.6,9.3-5.9,8.2c-0.7-0.6-2.3-5.1-2.7-8.7
						C-6.3-1.2-0.9-2.4,7.3-0.3z"/>
				</g>
				<path class="st1" d="M-5.7,6.4c0,0,0.9,1.2,4.7,1.2c3.8,0,6.4-1.4,6.4-1.4S5,4.6,3.3,5.1c-1.7,0.5-3.6,1.9-5.6,1
					C-4.2,5.3-6.2,4.6-5.7,6.4z"/>
				<path class="st1" d="M-31.8-19.8c0,0,1.9,3.9,11.4,8.7C-20.4-11.1-31.7-15.1-31.8-19.8z"/>
				<path class="st1" d="M17-8.4c0,0,15.5-8.2,15.2-10.9C32.2-19.3,19.1-9.8,17-8.4z"/>
			</g>
		</g>
	</g>
</symbol>
<symbol  id="Deleted_Symbol_2" viewBox="-35.7 -21.9 71.4 43.7">
	<g>
		<g>
			<g>
				<g>
					<path class="st3" d="M-29.9,10.9c-1.7,0.7-3.5,1.8-5,3c0,0,0-0.1,0-0.1c0.3-0.5,0.6-1,1-1.6c1.1-2,2.4-4.5,3.4-7.2
						c1-0.7,2.4-1.8,2.9-3.5C-27,0-28-2.1-28.9-3.9C-29-4.7-29.2-5.4-29.6-6c-0.9-1.6-1.9-4-2.5-6.5c-0.5-2-0.9-4-1-5.6
						C-29.6-12.3-23-6.8-21-2.2C-18.4,4-25.2,9.1-29.9,10.9z"/>
					<path class="st4" d="M-5.9,7.5c0-0.1-0.2-0.1-1.4,1.3C-8.9,10.5-22,20.9-29.1,21.8c-4.2,0.5-8.5-3.5-5.7-7.9
						c1.5-1.2,3.3-2.4,5-3c4.6-1.8,11.5-6.8,8.8-13c-2-4.6-8.5-10.1-12.1-15.9c-0.1-2.8,0.6-4.6,3.1-3.4c0,0,0.1,0,0.1,0.1
						c-0.7,0.1-1.2,0.4-1.1,1.3C-30.6-18-12.8-8.5-8.1-4.7c0.3,0.4,0.5,0.7,0.7,1C-5.4,0.4-5.8,7-5.9,7.5z"/>
					<path class="st3" d="M-27.5,1.6c-0.5,1.6-2,2.8-2.9,3.5c1.2-3.1,1.9-6.4,1.5-9C-28-2.1-27,0-27.5,1.6z"/>
				</g>
				<g>
					<path class="st3" d="M18.3,1.6C19.7-1.5,30.4-10.1,33-16.8c-0.2,1.3-0.5,2.8-0.9,4.3C31.4-10,30.5-7.6,29.6-6
						c-0.3,0.6-0.6,1.3-0.7,2.1C28-2.1,27,0,27.5,1.6c0.5,1.6,2,2.8,2.9,3.5c1,2.6,2.3,5.2,3.4,7.2c0.3,0.6,0.7,1.1,1,1.6
						c0.6,1,0.9,2,0.9,2.9C34.7,15.9,33,15,30,14C24.4,12,16.3,5.8,18.3,1.6z"/>
					<path class="st4" d="M29.1,21.8C22,20.9,8.9,10.5,7.3,8.8C6,7.4,5.9,7.4,5.9,7.5c0-0.5-0.5-7,1.6-11.2c0.2-0.3,0.4-0.7,0.7-1
						C12.8-8.5,30.6-18,30.9-20.1c0.1-0.9-0.4-1.2-1.1-1.3c0,0,0.1-0.1,0.1-0.1c2.8-1.4,3.4,1.1,3,4.7C30.4-10.1,19.7-1.5,18.3,1.6
						C16.3,5.8,24.4,12,30,14c3,1.1,4.8,1.9,5.8,2.8C35.7,19.9,32.4,22.2,29.1,21.8z"/>
					<path class="st3" d="M27.5,1.6C27,0,28-2.1,28.9-3.9c-0.4,2.6,0.3,5.8,1.5,9C29.4,4.4,28,3.2,27.5,1.6z"/>
				</g>
				<path class="st5" d="M30.9-20.1c0.1-0.9-0.4-1.2-1.1-1.3c-5.4,2.7-18.2,12-21.8,16.7C12.8-8.5,30.6-18,30.9-20.1z"/>
				<path class="st6" d="M-5.9,7.5C-5.9,7.5-5.9,7.5-5.9,7.5C-5.8,7.5-5.9,7.5-5.9,7.5z"/>
				<path class="st5" d="M-30.9-20.1c-0.1-0.9,0.4-1.2,1.1-1.3c5.4,2.7,18.2,12,21.8,16.7C-12.8-8.5-30.6-18-30.9-20.1z"/>
				<path class="st7" d="M-31.2,16.4c0,0-0.5,2.2,1.7,2.5c2.2,0.2,17.4-8.4,17.4-8.4s-11.4,5.5-13.9,5.2
					C-28.5,15.4-30.5,14.6-31.2,16.4z"/>
				<path class="st7" d="M12.7,10.3c0,0,12.1,9.4,18.4,9.4c0.7,0,2.3-3.8-0.4-2.8C27.2,18.2,12.7,10.3,12.7,10.3z"/>
				<path class="st4" d="M5.9,5c0,0,8.2,5.9,8.7,4.9c0.5-1-6.2-4.5-6.2-4.5s5,0.9,5.2,0.2c0.2-0.7-6.4-1.7-6.4-1.7s6.6-2.6,6.6-3.3
					C13.7-0.2,7.5,2,7.5,2s6.8-7.8,5.9-8.2c-0.9-0.3-6.1,5.6-6.8,6.4C5.9,1.2,5.9,5,5.9,5z"/>
				<path class="st4" d="M-6.2,5c0,0-8.2,5.9-8.7,4.9c-0.5-1,6.3-4.5,6.3-4.5s-5,0.9-5.2,0.2c-0.2-0.7,6.4-1.7,6.4-1.7
					s-6.6-2.6-6.6-3.3c0-0.7,6.3,1.6,6.3,1.6s-6.8-7.8-5.9-8.2c0.9-0.3,6.1,5.6,6.8,6.4C-6.2,1.2-6.2,5-6.2,5z"/>
				<g>
					<path class="st8" d="M7.5-2.7c0,0.6-0.1,1.5-0.2,2.4c-8.1-2.1-13.6-1-15.8-0.3c-0.1-0.8-0.1-1.5,0-2.2
						C-4.6-3.2,1.5-3.7,7.5-2.7z"/>
					<path class="st8" d="M-8.6-2.7c0.1-1.5,0.7-2.5,1.8-2.6C-2.7-5.6,7.7-5.3,7.5-3c0,0.1,0,0.2,0,0.3C1.5-3.7-4.6-3.2-8.6-2.7z"/>
					<path class="st8" d="M7.3-0.3c-0.3,3-0.8,6.9-1.6,8C4.6,9.1-4.6,9.3-5.9,8.2c-0.7-0.6-2.3-5.1-2.7-8.7
						C-6.3-1.2-0.9-2.4,7.3-0.3z"/>
				</g>
				<path class="st7" d="M-5.7,6.4c0,0,0.9,1.2,4.7,1.2c3.8,0,6.4-1.4,6.4-1.4S5,4.6,3.3,5.1c-1.7,0.5-3.6,1.9-5.6,1
					C-4.2,5.3-6.2,4.6-5.7,6.4z"/>
				<path class="st7" d="M-31.8-19.8c0,0,1.9,3.9,11.4,8.7C-20.4-11.1-31.7-15.1-31.8-19.8z"/>
				<path class="st7" d="M17-8.4c0,0,15.5-8.2,15.2-10.9C32.2-19.3,19.1-9.8,17-8.4z"/>
			</g>
		</g>
	</g>
</symbol>
<pattern  width="82.1" height="82.1" patternUnits="userSpaceOnUse" id="Plaid_4_Color_2" viewBox="5.7 -87.8 82.1 82.1" style="overflow:visible;">
	<g>
		<g>
			<rect x="5.7" y="-87.8" class="st9" width="82.1" height="82.1"/>
		</g>
		<rect x="5.7" y="-87.8" class="st10" width="82.1" height="82.1"/>
		<line class="st11" x1="4.9" y1="-36.5" x2="88.5" y2="-36.5"/>
		<line class="st11" x1="4.9" y1="-9.1" x2="88.5" y2="-9.1"/>
		<line class="st11" x1="4.9" y1="-63.8" x2="88.5" y2="-63.8"/>
		<line class="st12" x1="36.5" y1="-88.5" x2="36.5" y2="-4.9"/>
		<line class="st11" x1="63.8" y1="-88.5" x2="63.8" y2="-4.9"/>
		<line class="st11" x1="9.1" y1="-88.5" x2="9.1" y2="-4.9"/>
		<rect y="-47.9" class="st13" width="91.2" height="4.6"/>
		<rect y="-20.5" class="st14" width="91.2" height="4.6"/>
		<rect y="-75.2" class="st15" width="91.2" height="4.6"/>
		<rect y="-57" class="st14" width="91.2" height="4.6"/>
		<rect y="-29.6" class="st15" width="91.2" height="4.6"/>
		<rect y="-84.4" class="st13" width="91.2" height="4.6"/>
		<rect x="43.3" y="-91.2" class="st16" width="4.6" height="91.2"/>
		<rect x="70.7" y="-91.2" class="st15" width="4.6" height="91.2"/>
		<rect x="16" y="-91.2" class="st13" width="4.6" height="91.2"/>
		<rect x="52.4" y="-91.2" class="st14" width="4.6" height="91.2"/>
		<rect x="79.8" y="-91.2" class="st14" width="4.6" height="91.2"/>
		<rect x="25.1" y="-91.2" class="st17" width="4.6" height="91.2"/>
		<rect x="16" y="-75.2" class="st18" width="4.6" height="4.6"/>
		<rect x="25.1" y="-84.4" class="st18" width="4.6" height="4.6"/>
		<rect x="25.1" y="-75.2" class="st18" width="4.6" height="4.6"/>
		<rect x="16" y="-84.4" class="st18" width="4.6" height="4.6"/>
		<rect x="43.3" y="-75.2" class="st18" width="4.6" height="4.6"/>
		<rect x="52.4" y="-84.4" class="st18" width="4.6" height="4.6"/>
		<rect x="52.4" y="-75.2" class="st18" width="4.6" height="4.6"/>
		<rect x="43.3" y="-84.4" class="st18" width="4.6" height="4.6"/>
		<rect x="70.7" y="-75.2" class="st18" width="4.6" height="4.6"/>
		<rect x="79.8" y="-84.4" class="st18" width="4.6" height="4.6"/>
		<rect x="79.8" y="-75.2" class="st18" width="4.6" height="4.6"/>
		<rect x="70.7" y="-84.4" class="st18" width="4.6" height="4.6"/>
		<rect x="16" y="-47.9" class="st18" width="4.6" height="4.6"/>
		<rect x="25.1" y="-57" class="st18" width="4.6" height="4.6"/>
		<rect x="25.1" y="-47.9" class="st18" width="4.6" height="4.6"/>
		<rect x="16" y="-57" class="st18" width="4.6" height="4.6"/>
		<rect x="43.3" y="-47.9" class="st18" width="4.6" height="4.6"/>
		<rect x="52.4" y="-57" class="st18" width="4.6" height="4.6"/>
		<rect x="52.4" y="-47.9" class="st18" width="4.6" height="4.6"/>
		<rect x="43.3" y="-57" class="st18" width="4.6" height="4.6"/>
		<rect x="70.7" y="-47.9" class="st18" width="4.6" height="4.6"/>
		<rect x="79.8" y="-57" class="st18" width="4.6" height="4.6"/>
		<rect x="79.8" y="-47.9" class="st18" width="4.6" height="4.6"/>
		<rect x="70.7" y="-57" class="st18" width="4.6" height="4.6"/>
		<rect x="16" y="-20.5" class="st18" width="4.6" height="4.6"/>
		<rect x="25.1" y="-29.6" class="st18" width="4.6" height="4.6"/>
		<rect x="25.1" y="-20.5" class="st18" width="4.6" height="4.6"/>
		<rect x="16" y="-29.6" class="st18" width="4.6" height="4.6"/>
		<rect x="43.3" y="-20.5" class="st18" width="4.6" height="4.6"/>
		<rect x="52.4" y="-29.6" class="st18" width="4.6" height="4.6"/>
		<rect x="52.4" y="-20.5" class="st18" width="4.6" height="4.6"/>
		<rect x="43.3" y="-29.6" class="st18" width="4.6" height="4.6"/>
		<rect x="70.7" y="-20.5" class="st18" width="4.6" height="4.6"/>
		<rect x="79.8" y="-29.6" class="st18" width="4.6" height="4.6"/>
		<rect x="79.8" y="-20.5" class="st18" width="4.6" height="4.6"/>
		<rect x="70.7" y="-29.6" class="st18" width="4.6" height="4.6"/>
	</g>
</pattern>
<pattern  width="77.9" height="67.5" patternUnits="userSpaceOnUse" id="Weave_Color" viewBox="18.1 -83.5 77.9 67.5" style="overflow:visible;">
	<g>
		<rect x="18.1" y="-83.5" class="st9" width="77.9" height="67.5"/>
		<polygon class="st19" points="72.6,-88 72.6,-79 64.9,-83.5 		"/>
		<polygon class="st19" points="80.4,-88 80.4,-79 88.2,-83.5 		"/>
		<polygon class="st19" points="33.7,-88 33.7,-79 25.9,-83.5 		"/>
		<polygon class="st19" points="41.5,-88 41.5,-79 49.3,-83.5 		"/>
		<polygon class="st19" points="72.6,-65.5 72.6,-56.5 64.9,-61 		"/>
		<polygon class="st19" points="80.4,-65.5 80.4,-56.5 88.2,-61 		"/>
		<polygon class="st19" points="33.7,-65.5 33.7,-56.5 25.9,-61 		"/>
		<polygon class="st19" points="41.5,-65.5 41.5,-56.5 49.3,-61 		"/>
		<polygon class="st19" points="72.6,-43 72.6,-34 64.9,-38.5 		"/>
		<polygon class="st19" points="80.4,-43 80.4,-34 88.2,-38.5 		"/>
		<polygon class="st19" points="33.7,-43 33.7,-34 25.9,-38.5 		"/>
		<polygon class="st19" points="41.5,-43 41.5,-34 49.3,-38.5 		"/>
		<polygon class="st19" points="72.6,-20.5 72.6,-11.5 64.9,-16 		"/>
		<polygon class="st19" points="80.4,-20.5 80.4,-11.5 88.2,-16 		"/>
		<polygon class="st19" points="33.7,-20.5 33.7,-11.5 25.9,-16 		"/>
		<polygon class="st19" points="41.5,-20.5 41.5,-11.5 49.3,-16 		"/>
		<polygon class="st19" points="92.1,-76.8 92.1,-67.8 84.3,-72.3 		"/>
		<polygon class="st19" points="53.2,-76.7 53.2,-67.7 45.4,-72.2 		"/>
		<polygon class="st19" points="61,-76.7 61,-67.7 68.8,-72.2 		"/>
		<polygon class="st19" points="92.1,-54.3 92.1,-45.3 84.3,-49.8 		"/>
		<polygon class="st19" points="53.2,-54.3 53.2,-45.3 45.4,-49.8 		"/>
		<polygon class="st19" points="61,-54.3 61,-45.3 68.8,-49.8 		"/>
		<polygon class="st19" points="92.1,-31.8 92.1,-22.8 84.3,-27.3 		"/>
		<polygon class="st19" points="53.2,-31.8 53.2,-22.8 45.4,-27.3 		"/>
		<polygon class="st19" points="61,-31.8 61,-22.8 68.8,-27.3 		"/>
		<polygon class="st19" points="22,-76.7 22,-67.7 29.8,-72.2 		"/>
		<polygon class="st19" points="22,-54.3 22,-45.3 29.8,-49.8 		"/>
		<polygon class="st19" points="22,-31.8 22,-22.8 29.8,-27.3 		"/>
		<polygon class="st20" points="53.2,-22.8 57.1,-20.5 61,-22.8 61,-36.3 72.7,-43 72.7,-47.5 68.8,-49.8 57.1,-43 45.4,-49.8 
			41.5,-47.5 41.5,-43 53.2,-36.3 		"/>
		<polygon class="st21" points="72.7,-11.5 76.5,-9.3 80.4,-11.5 80.4,-25 92.1,-31.8 92.1,-36.3 88.2,-38.5 76.5,-31.8 64.9,-38.5 
			61,-36.3 61,-31.8 72.7,-25 		"/>
		<polygon class="st20" points="80.4,-2.5 92.1,-9.3 92.1,-13.8 88.2,-16 76.5,-9.3 64.9,-16 61,-13.8 61,-9.3 72.7,-2.5 		"/>
		<polygon class="st20" points="2.5,-43 14.2,-36.3 14.2,-22.8 18.1,-20.5 22,-22.8 22,-36.3 33.7,-43 33.7,-47.5 29.8,-49.8 
			18.1,-43 6.4,-49.8 		"/>
		<polygon class="st21" points="33.7,-11.5 37.6,-9.3 41.5,-11.5 41.5,-25 53.2,-31.8 53.2,-36.3 49.3,-38.5 37.6,-31.8 25.9,-38.5 
			22,-36.3 22,-31.8 33.7,-25 		"/>
		<polygon class="st20" points="41.5,-2.5 53.2,-9.3 53.2,-13.8 49.3,-16 37.6,-9.3 25.9,-16 22,-13.8 22,-9.3 33.7,-2.5 		"/>
		<polygon class="st21" points="33.7,-34 37.6,-31.8 41.5,-34 41.5,-47.5 53.2,-54.3 53.2,-58.8 49.3,-61 37.6,-54.3 25.9,-61 
			22,-58.8 22,-54.3 33.7,-47.5 		"/>
		<polygon class="st21" points="2.5,-20.5 14.2,-13.8 14.2,-2.5 22,-2.5 22,-13.8 33.7,-20.5 33.7,-25 29.8,-27.3 18.1,-20.5 
			6.4,-27.3 		"/>
		<polygon class="st21" points="61,-2.5 61,-13.8 72.7,-20.5 72.7,-25 68.8,-27.3 57.1,-20.5 45.4,-27.3 41.5,-25 41.5,-20.5 
			53.2,-13.8 53.2,-2.5 		"/>
		<polygon class="st21" points="99.9,-2.5 99.9,-13.8 111.6,-20.5 107.7,-27.3 96,-20.5 84.3,-27.3 80.4,-25 80.4,-20.5 92.1,-13.8 
			92.1,-2.5 		"/>
		<polygon class="st20" points="107.7,-49.8 96,-43 84.3,-49.8 80.4,-47.5 80.4,-43 92.1,-36.3 92.1,-22.8 96,-20.5 99.9,-22.8 
			99.9,-36.3 111.6,-43 		"/>
		<polygon class="st21" points="72.6,-34 76.5,-31.8 80.4,-34 80.4,-47.5 92.1,-54.3 92.1,-58.8 88.2,-61 76.5,-54.3 64.9,-61 
			61,-58.8 61,-54.3 72.6,-47.5 		"/>
		<polygon class="st21" points="2.5,-65.5 14.2,-58.7 14.2,-45.2 18.1,-43 22,-45.2 22,-58.7 33.7,-65.5 33.7,-70 29.8,-72.3 
			18.1,-65.5 6.4,-72.2 		"/>
		<polygon class="st21" points="107.7,-72.3 96,-65.5 84.3,-72.2 80.4,-70 80.4,-65.5 92.1,-58.7 92.1,-45.2 96,-43 99.9,-45.2 
			99.9,-58.7 111.6,-65.5 		"/>
		<polygon class="st21" points="53.2,-45.3 57.1,-43 61,-45.3 61,-58.8 72.7,-65.5 72.7,-70 68.8,-72.3 57.1,-65.5 45.4,-72.3 
			41.5,-70 41.5,-65.5 53.2,-58.8 		"/>
		<polygon class="st21" points="72.6,-92.5 72.6,-79 76.5,-76.8 80.4,-79 80.4,-92.5 		"/>
		<polygon class="st20" points="72.6,-56.5 76.5,-54.3 80.4,-56.5 80.4,-70 92.1,-76.8 92.1,-81.3 88.2,-83.5 76.5,-76.8 
			64.9,-83.5 61,-81.3 61,-76.8 72.6,-70 		"/>
		<polygon class="st21" points="2.5,-88 14.2,-81.3 14.2,-67.8 18.1,-65.5 22,-67.8 22,-81.3 33.7,-88 33.7,-92.5 29.8,-94.8 
			18.1,-88 6.4,-94.8 		"/>
		<polygon class="st21" points="33.7,-92.5 33.7,-79 37.6,-76.8 41.5,-79 41.5,-92.5 		"/>
		<polygon class="st20" points="33.7,-56.5 37.6,-54.3 41.5,-56.5 41.5,-70 53.2,-76.8 53.2,-81.3 49.3,-83.5 37.6,-76.8 
			25.9,-83.5 22,-81.3 22,-76.8 33.7,-70 		"/>
		<polygon class="st21" points="53.2,-67.8 57.1,-65.5 61,-67.8 61,-81.3 72.6,-88 72.6,-92.5 68.8,-94.8 57.1,-88 45.4,-94.8 
			41.5,-92.5 41.5,-88 53.2,-81.3 		"/>
		<polygon class="st21" points="107.7,-94.8 96,-88 84.3,-94.8 80.4,-92.5 80.4,-88 92.1,-81.3 92.1,-67.8 96,-65.5 99.9,-67.8 
			99.9,-81.3 111.6,-88 		"/>
	</g>
</pattern>
<path class="st22" d="M393-18.7c1.3-2,4.2-1.5,5.9-2.9c-0.5,1.4-2.3,1.7-3.3,2.3c1.8-0.1,4,0,5.6-0.6c-1.1,0.7-2.5,1.4-3.9,1.4
	c-1.5,0-3-0.8-4.5-0.2"/>
<g>
	<g>
		<polygon class="st23" points="220,0.4 219.5,128.4 0.7,128.2 0,0 		"/>
		<polygon class="st23" points="220,0.4 219.5,128.4 0.7,128.2 0,0 		"/>
		<polygon class="st23" points="220,0.4 219.5,128.4 0.7,128.2 0,0 		"/>
		<polygon class="st23" points="220,0.4 219.5,128.4 0.7,128.2 0,0 		"/>
		<polygon class="st23" points="220,0.4 219.5,128.4 0.7,128.2 0,0 		"/>
		<polygon class="st23" points="220,0.4 219.5,128.4 0.7,128.2 0,0 		"/>
		<g>
			<polygon class="st24" points="0,130.5 221,130 220.3,85.9 0.4,85.3 			"/>
		</g>
		<g>
			<g>
				<g>
					<g>
						<path class="st25" d="M34.5,83.5l27.3-1.9c-2.3,1.6-4.1,5.1-6.5,6.8c-0.4,0.3-0.8,0.6-1.2,0.8L55,99.9l-2.1,17.2l-4.2-0.3
							l2.1-15.6l-2.2-10.4c-0.1,0-0.2,0-0.2,0c-0.1,0-0.3,0-0.4,0l0.2,26.8l-4.2-0.3l-1.3-27.7c-0.4-0.2-0.8-0.4-1.2-0.6
							C38.9,87.8,36.9,85,34.5,83.5z"/>
						<g>
							<g>
								<path class="st26" d="M50.6,117c0.9,0.6,3,2,4.3,2.7c1.3,0.7,3.4,0.1,3.9-0.4c0.6-0.6,0.8-1.6,0.8-1.6l-11.5-5
									c0,0-0.8,1.8,0.1,2.6C48.9,115.9,50.6,117,50.6,117z"/>
								<path class="st27" d="M57.2,114.7c0,0,1.5,0.5,2,0.6c0.5,0.2,0.9,2.2,0,3.1c-0.9,0.9-2.6,1-3.6,0.7c-1-0.3-3.5-2.4-4.3-3.1
									c-0.8-0.7-3.3-2-3.4-2.2c-0.1-0.1,1-3,1.1-4.6c0.9-1.6,1.4-1.6,1.8-0.4c0.4,1.2,1.2,2.9,1.8,2.9c0.5,0,1.8-1.1,2.2-0.6
									c0.4,0.5-0.7-0.8,0-1.2c0.7-0.4,0.9,0.1,1.2,1C56.2,111.9,56.4,114.1,57.2,114.7z"/>
								<path class="st28" d="M57.2,114.7c0,0-0.2,0.5-0.4,0.5c-0.2-0.1-0.9-0.7-1-1c-0.1-0.3-1-2.9-1-2.9"/>
								<path class="st28" d="M59.7,116.4c-0.2,1.1-1.3,1.5-2,1.3c-0.9-0.2-1.1-1.5-0.8-2.6"/>
								<path class="st29" d="M56.3,116c-0.3,0.5-0.1,1.8-1.8,2.4"/>
								<path class="st30" d="M56.7,116.2c0,0-2.4-1.7-2.8-3.2c-0.4-1.6-0.7-1.5-0.7-1.5"/>
								<path class="st31" d="M53.7,112.3c0,0-1.1,1-1.7,0.4c-1.5-1.5-1.8-2.4-2.2-3.2c-0.4-0.8-0.3-1-0.3-1"/>
								<path class="st32" d="M55.5,115.2l-2.2,2.4l-1.9-1.5l2.5-3.2c0,0,0.4,1,0.7,1.3C54.8,114.5,55.5,115.2,55.5,115.2z"/>
								<path class="st27" d="M54.9,114.6l-2.1,2.6l-0.6-0.5l2.2-2.9C54.3,113.7,54.6,114.2,54.9,114.6z"/>
								
									<linearGradient id="SVGID_1_" gradientUnits="userSpaceOnUse" x1="2314.3333" y1="874.1111" x2="2314.2949" y2="874.7341" gradientTransform="matrix(-0.7272 -0.2214 -0.2912 0.9566 1993.8915 -208.856)">
									<stop  offset="0" style="stop-color:#E8BF6D"/>
									<stop  offset="1" style="stop-color:#C19235"/>
								</linearGradient>
								<path class="st33" d="M56,115.1c0-0.2,0.2-0.2,0.3-0.2c0.1,0,0.2,0.2,0.1,0.4c0,0.2-0.2,0.2-0.3,0.2
									C56,115.4,55.9,115.3,56,115.1z"/>
								
									<linearGradient id="SVGID_2_" gradientUnits="userSpaceOnUse" x1="2315.7146" y1="873.4704" x2="2315.6765" y2="874.093" gradientTransform="matrix(-0.7272 -0.2214 -0.2912 0.9566 1993.8915 -208.856)">
									<stop  offset="0" style="stop-color:#E8BF6D"/>
									<stop  offset="1" style="stop-color:#C19235"/>
								</linearGradient>
								<path class="st34" d="M55.2,114.2c0-0.2,0.2-0.2,0.3-0.2c0.1,0,0.2,0.2,0.1,0.4c0,0.2-0.2,0.2-0.3,0.2
									C55.2,114.5,55.1,114.3,55.2,114.2z"/>
								
									<linearGradient id="SVGID_3_" gradientUnits="userSpaceOnUse" x1="2316.7715" y1="872.4257" x2="2316.7332" y2="873.0493" gradientTransform="matrix(-0.7272 -0.2214 -0.2912 0.9566 1993.8915 -208.856)">
									<stop  offset="0" style="stop-color:#E8BF6D"/>
									<stop  offset="1" style="stop-color:#C19235"/>
								</linearGradient>
								<path class="st35" d="M54.7,113c0-0.2,0.2-0.3,0.3-0.2c0.1,0,0.2,0.2,0.1,0.4c0,0.2-0.2,0.2-0.3,0.2
									C54.7,113.3,54.6,113.1,54.7,113z"/>
								<path class="st27" d="M56.6,113.8c0,0,0.1,0,0.1,0c0.1,0.3,0.1,0.5-0.1,0.8c-0.1,0.1-0.3,0.6-0.4,0.6
									c-0.4,0,0.1-0.5,0.2-0.6C56.6,114.4,56.7,114.1,56.6,113.8"/>
								<path class="st27" d="M56.3,112.3c-0.1,0.5-0.2,0.8-0.5,1.2c-0.1,0.2-0.3,0.3-0.4,0.5c-0.1,0.3-0.1,0.4,0.2,0.3
									c0.2-0.1,0.6-0.6,0.7-0.8C56.5,113.1,56.4,112.7,56.3,112.3"/>
								<path class="st27" d="M56,111c-0.1,0.5-0.3,0.9-0.6,1.3c-0.1,0.2-0.9,0.8-0.5,0.8C55.5,113.3,56.7,111.4,56,111"/>
								<path class="st36" d="M54.8,111.2c0.3-0.2,0.4,0.3,0.7,0.2c0.4,0,0.2-0.5,0.3-0.8"/>
								<path class="st37" d="M59.7,116.3c-0.2,1-1.7,1.5-2.3,1.2c-0.6-0.4-0.5-2.1,0-2.7"/>
								
									<ellipse transform="matrix(0.3095 -0.9509 0.9509 0.3095 -69.3813 136.4201)" class="st28" cx="59.2" cy="116" rx="0" ry="0"/>
								
									<ellipse transform="matrix(0.3102 -0.9507 0.9507 0.3102 -69.9708 136.1824)" class="st28" cx="58.9" cy="116.3" rx="0" ry="0"/>
								
									<ellipse transform="matrix(0.3041 -0.9526 0.9526 0.3041 -69.3361 136.4871)" class="st28" cx="58.8" cy="115.7" rx="0" ry="0"/>
								
									<ellipse transform="matrix(0.3101 -0.9507 0.9507 0.3101 -69.9465 135.3782)" class="st28" cx="58.3" cy="115.9" rx="0" ry="0"/>
								
									<ellipse transform="matrix(0.3041 -0.9526 0.9526 0.3041 -69.5973 135.3973)" class="st28" cx="57.9" cy="115.3" rx="0" ry="0"/>
								
									<ellipse transform="matrix(0.3041 -0.9526 0.9526 0.3041 -70.4912 136.6436)" class="st28" cx="58.3" cy="116.6" rx="0" ry="0"/>
								
									<ellipse transform="matrix(0.309 -0.9511 0.9511 0.309 -70.4087 135.0739)" class="st28" cx="57.8" cy="116" rx="0" ry="0"/>
								<path class="st28" d="M50.4,115.4c0,0,0.6-2.3-0.4-3.2c-1-0.9-1.1-2.6-1.1-2.6"/>
								<path class="st29" d="M50.2,115.1c0,0,0.2-1.8-0.2-2.4c-0.4-0.6-1.3-1.1-1.3-2.3"/>
							</g>
							<path class="st28" d="M57.6,117.7c0.1,0.4,0,1.4-0.2,1.5"/>
						</g>
						<g>
							<g>
								<path class="st26" d="M46.5,122.3c1,0.3,3.3,0.9,4.6,1.1c1.3,0.2,3-1,3.4-1.7c0.4-0.7,0.2-1.8,0.2-1.8L43.1,119
									c0,0-0.2,2,0.8,2.4C44.6,121.8,46.5,122.3,46.5,122.3z"/>
								<path class="st27" d="M51.8,117.9c0,0,1.5,0,2-0.1s1.4,1.8,0.9,2.9c-0.6,1.2-2.1,1.9-3.1,1.9c-1,0-3.8-1.2-4.7-1.5
									c-0.9-0.4-3.5-0.8-3.7-0.9c-0.2-0.1,0-3.2-0.3-4.7c0.3-1.8,0.8-2,1.5-1c0.7,1,1.9,2.3,2.4,2.1c0.5-0.2,1.3-1.7,1.8-1.3
									c0.5,0.4-0.9-0.5-0.3-1.2c0.5-0.6,0.8-0.3,1.4,0.6C50.1,115.6,50.9,117.6,51.8,117.9z"/>
								<path class="st28" d="M51.8,117.9c0,0,0,0.5-0.2,0.6c-0.2,0-1-0.4-1.2-0.6c-0.2-0.2-1.7-2.5-1.7-2.5"/>
								<path class="st28" d="M54.5,118.7c0.1,1.1-0.8,1.8-1.4,1.9c-0.9,0.1-1.4-1.1-1.4-2.2"/>
								<path class="st29" d="M51.4,119.4c-0.1,0.6,0.4,1.7-1,2.9"/>
								<path class="st30" d="M51.8,119.5c0,0-2.6-0.8-3.4-2.1c-0.8-1.3-1.1-1.2-1.1-1.2"/>
								<path class="st31" d="M47.9,116.8c0,0-0.7,1.3-1.4,0.9c-1.8-1-2.3-1.7-2.9-2.3c-0.6-0.6-0.5-0.9-0.5-0.9"/>
								<path class="st32" d="M50.4,119l-1.3,3l-2.1-0.8l1.3-3.8c0,0,0.7,0.8,0.9,1C49.6,118.5,50.4,119,50.4,119z"/>
								<path class="st27" d="M49.7,118.5l-1.2,3.2l-0.7-0.3l1.1-3.5C48.9,117.9,49.3,118.3,49.7,118.5z"/>
								
									<linearGradient id="SVGID_4_" gradientUnits="userSpaceOnUse" x1="2930.9402" y1="162.8969" x2="2930.9019" y2="163.5215" gradientTransform="matrix(-0.7181 1.794231e-02 2.502591e-02 0.9997 2151.5615 -96.9871)">
									<stop  offset="0" style="stop-color:#E8BF6D"/>
									<stop  offset="1" style="stop-color:#C19235"/>
								</linearGradient>
								<path class="st38" d="M50.8,118.7c0-0.2,0.1-0.3,0.2-0.3c0.1,0,0.2,0.1,0.2,0.3c0,0.2-0.1,0.3-0.2,0.3
									C50.9,119,50.8,118.9,50.8,118.7z"/>
								
									<linearGradient id="SVGID_5_" gradientUnits="userSpaceOnUse" x1="2932.2993" y1="162.273" x2="2932.261" y2="162.8972" gradientTransform="matrix(-0.7181 1.794231e-02 2.502591e-02 0.9997 2151.5615 -96.9871)">
									<stop  offset="0" style="stop-color:#E8BF6D"/>
									<stop  offset="1" style="stop-color:#C19235"/>
								</linearGradient>
								<path class="st39" d="M49.8,118.1c0-0.2,0.1-0.3,0.2-0.3c0.1,0,0.2,0.1,0.2,0.3c0,0.2-0.1,0.3-0.2,0.3
									C49.9,118.4,49.8,118.3,49.8,118.1z"/>
								
									<linearGradient id="SVGID_6_" gradientUnits="userSpaceOnUse" x1="2933.3257" y1="161.2383" x2="2933.2874" y2="161.8634" gradientTransform="matrix(-0.7181 1.794231e-02 2.502591e-02 0.9997 2151.5615 -96.9871)">
									<stop  offset="0" style="stop-color:#E8BF6D"/>
									<stop  offset="1" style="stop-color:#C19235"/>
								</linearGradient>
								<path class="st40" d="M49,117.1c0-0.2,0.1-0.3,0.2-0.3c0.1,0,0.2,0.1,0.2,0.3c0,0.2-0.1,0.3-0.2,0.3
									C49.1,117.4,49,117.2,49,117.1z"/>
								<path class="st27" d="M51,117.2c0,0,0.1,0,0.1,0c0.1,0.2,0.2,0.5,0.2,0.8c0,0.1-0.1,0.7-0.2,0.7c-0.3,0.1-0.1-0.5,0-0.7
									C51.1,117.8,51.1,117.5,51,117.2"/>
								<path class="st27" d="M50.3,116c0,0.5,0,0.8-0.1,1.3c-0.1,0.2-0.2,0.4-0.3,0.6c-0.1,0.3,0,0.4,0.2,0.2
									c0.2-0.2,0.4-0.7,0.4-1C50.7,116.6,50.5,116.3,50.3,116"/>
								<path class="st27" d="M49.7,114.8c0,0.5,0,0.9-0.2,1.4c-0.1,0.2-0.6,1-0.2,1C49.8,117.1,50.4,114.9,49.7,114.8"/>
								<path class="st36" d="M48.6,115.4c0.2-0.3,0.5,0.1,0.7,0c0.3-0.2,0-0.6,0-0.9"/>
								<path class="st37" d="M54.4,118.6c0.1,1-1.1,2-1.7,1.8c-0.7-0.2-1.1-1.8-0.8-2.6"/>
								
									<ellipse transform="matrix(0.9997 -2.509573e-02 2.509573e-02 0.9997 -2.9552 1.3914)" class="st28" cx="54" cy="118.4" rx="0" ry="0"/>
								
									<ellipse transform="matrix(0.9997 -2.429924e-02 2.429924e-02 0.9997 -2.8726 1.3401)" class="st28" cx="53.7" cy="118.9" rx="0" ry="0"/>
								
									<ellipse transform="matrix(0.9995 -3.115585e-02 3.115585e-02 0.9995 -3.6608 1.7224)" class="st28" cx="53.4" cy="118.3" rx="0" ry="0"/>
								
									<ellipse transform="matrix(0.9997 -2.439269e-02 2.439269e-02 0.9997 -2.8785 1.3303)" class="st28" cx="53.1" cy="118.7" rx="0" ry="0"/>
								
									<ellipse transform="matrix(0.9995 -3.112645e-02 3.112645e-02 0.9995 -3.6561 1.6931)" class="st28" cx="52.6" cy="118.3" rx="0" ry="0"/>
								
									<ellipse transform="matrix(0.9995 -3.112640e-02 3.112640e-02 0.9995 -3.688 1.7158)" class="st28" cx="53.3" cy="119.3" rx="0" ry="0"/>
								
									<ellipse transform="matrix(0.9997 -2.565290e-02 2.565290e-02 0.9997 -3.0338 1.3891)" class="st28" cx="52.6" cy="118.9" rx="0" ry="0"/>
								<path class="st28" d="M45.9,120.8c0,0-0.1-2.4-1.3-2.9c-1.1-0.5-1.7-2.1-1.7-2.1"/>
								<path class="st29" d="M45.6,120.7c0,0-0.3-1.8-0.8-2.2c-0.5-0.4-1.5-0.6-1.8-1.7"/>
							</g>
							<path class="st28" d="M53,120.7c0.2,0.3,0.4,1.3,0.2,1.5"/>
						</g>
						<g>
							<g>
								<g>
									<g>
										<polygon class="st41" points="55.4,21.7 49.9,22 49.1,17.4 55.5,16.9 										"/>
										<line class="st42" x1="34.3" y1="72.5" x2="33.7" y2="84.3"/>
										<line class="st42" x1="56.9" y1="53.9" x2="58.3" y2="61.1"/>
										<path class="st43" d="M56.5,51.1l-18.1-0.3c-0.5,0.4-1.7,8.5-2,10.3c-0.7,4.3-1.4,9.3-2,13.7c-0.6,5.3-4.5,18.1-4.9,23.2
											h36.8L56.5,51.1z"/>
										<path class="st44" d="M42.2,5.2c-3.5-2.4-5.5-5-10.1-4.7C25.4,0.9,22.9,6.5,21.4,13c-2.6,11.4-0.3,23.2-0.2,34.8
											c0,1.4,0.1,3.1,0.4,4.4c0-1.1,0.1-2.4,0.6-3.4c0.1,1.5,0.4,3.5,0.9,4.7c0.2-1.9,0.5-3.8,1.5-5.4c1.3-2,3.1-2.9,3.9-5.5
											c1.8-5.6,2.7-11.6,3.1-17.5c0.5-7.1,4.3-11.1,8.3-16.2"/>
										<g>
											<path class="st25" d="M44.5,9.8c-1.3-2.8,0.3-5-3.9-4.3c-2,0.3-5.9,1-7.4,2.5c0.7,0.8,1.4,2.9,2.3,3.3
												c0.8,0.4,1.9-0.1,2.9-0.3c1.6-0.3,4.7,0,5.9-1"/>
											<path class="st45" d="M64.4,49.6c-0.1,2.2-0.8,3.2-1.3,3.9c-1.7,2.8-5.3,2.9-11.6,2.3c-8-0.9-16-1.9-19.9-8.9
												c-2.9-5.2-0.1-7-1-12.1c-1.3-6.9,0.2-12.7,4.4-18c3-3.8,5.9-4.6,10.1-6c6.5-2.3,10.1,1.7,16.1,4.9l1.3,4.7
												c2.9,3.2,2.9,7.4,3.8,11.9c1,5.2-3.2,9.9-2.5,13.3C63.8,45.6,64.5,47.4,64.4,49.6z"/>
											<path class="st44" d="M42.7,30c-1.6,0.3-5.1,5.2-5,7.2c0.3,5.4-4.6,7-6.2,10.1c-14-11.4-6.9-27.2,1.4-35
												C40.6,5.1,51.1,9,59,12.9c6.4,3.1,10.1,12.6,9.6,20.6c-2.2,2.8-2.3,0.6-3-0.6C65,31.9,65.4,29,65,27.9
												c-0.9-2.7-1.5-5.6-3.8-7C61,23.7,49.7,31.1,44.3,30L42.7,30z"/>
											<path class="st45" d="M39,35.9c-5.5-7.5-8.9,7-2.3,7.5"/>
										</g>
									</g>
								</g>
							</g>
						</g>
						<path class="st43" d="M28.6,54.9c-0.6,1.2-1.2,2.4-1.3,3.8c-0.1,1.3,0.3,2.8,1.4,3.6c1,0.7,1.3,2.1,2.5,2.5
							c0.5,0.2,1.9-0.9,2.5-0.9c0.8,0,1.4-0.6,1.9-1.2c2.7-3.2,4.3-7.4,4.5-11.7c-0.6-0.6-1.6-0.4-2.2,0.2c-0.6,0.6-0.9,1.4-1.3,2.2
							c-1.1,1.8-3.1,3-5.2,2.9c0.2-1.6,1.3-2.8,2.3-4c1.5-1.9,2.2-5-0.6-3.6C31.3,49.4,29.5,53.2,28.6,54.9z"/>
						<path class="st25" d="M34.5,48.4c-1.1,1.6-2.7,2.7-4,4.3c-1.2,1.5-2,3.9-0.8,5.5c0.8,1.2,2.4,1.5,3.7,1.1
							c1.3-0.4,2.4-1.3,3.4-2.4c0.8-0.9,1.5-1.8,2.2-2.8c0.3-0.5,0.7-1.1,0.8-1.7c0.2-1.1-0.4-2.3-1.3-3c-0.9-0.7-2-1-3-1.3
							c-0.7-0.2-1.4-0.4-2.1-0.2c-0.7,0.2-1.3,0.9-1.1,1.6"/>
					</g>
					<path class="st46" d="M40.3,45.7c-3.1-0.8-5.5,5.3-5.9,9.3l10.2-0.2C44,51.9,42.8,46.3,40.3,45.7z"/>
				</g>
				<ellipse class="st47" cx="52.5" cy="60.8" rx="4.7" ry="5.4"/>
				<path class="st48" d="M48.6,59.2c0.6-0.7,1.4-1.1,2.3-1.1c0.1,0.4-0.1,0.9,0.1,1.1c0.1,0.1,0.2,0.1,0.3,0.2
					c0.3,0.1,0.6,0.1,0.9,0.1c-0.1-0.4,0.1-0.8,0.4-1c0,0.2,0,0.4,0,0.6c0,0.1,0,0.1,0,0.1c0,0,0.1,0.1,0.1,0.1
					c0.2,0.1,0.4,0.1,0.6,0.1c0.2-0.1,0.4-0.2,0.4-0.4c0.1,0.4,0.1,0.9-0.2,1.1c0.3,0.1,0.6,0.2,1,0.2c0.3,0,0.6,0,0.8-0.2
					c0.2-0.2,0.4-0.5,0.3-0.8c0.5,0.4,1,0.9,1.3,1.5c0.5,1,0.5,2.2-0.1,3.2c-0.1-0.5-0.3-1-0.6-1.5c-0.1-0.1-0.2-0.2-0.3-0.3
					c-0.3-0.2-0.7,0-1,0.2s-0.4,0.6-0.6,0.9c0-0.3,0-0.7-0.1-1c0-0.1-0.1-0.3-0.2-0.4c-0.1-0.2-0.3-0.2-0.5-0.3
					c-0.7-0.1-1.3,0.4-1.7,1c0.1-0.6-0.2-1.1-0.6-1.5c-0.1-0.1-0.2-0.1-0.3-0.1c-0.1,0-0.3,0-0.4,0.1c-0.3,0.2-0.6,0.5-0.6,0.9
					c0-0.4,0-0.8-0.2-1.1s-0.5-0.6-0.8-0.5c-0.3,0-0.5,0.3-0.8,0.5c-0.2,0.2-0.4,0.5-0.6,0.7c-0.1-0.1,0-0.5,0-0.6
					c0-0.2,0.1-0.4,0.2-0.7C48.1,59.9,48.3,59.6,48.6,59.2z"/>
			</g>
			<g>
				<path class="st49" d="M54.5,40.1c-0.1,0.5,0.1,1,0.6,1.1c0.4,0.1,0.8-0.3,0.9-0.8c0.1-0.5-0.1-1-0.6-1.1
					C55,39.2,54.6,39.6,54.5,40.1z"/>
				<path class="st50" d="M57.8,51.3c-0.7,0-1.8,0-2.5,0.2"/>
				
					<linearGradient id="SVGID_7_" gradientUnits="userSpaceOnUse" x1="-1282.8011" y1="-209.5069" x2="-1274.5438" y2="-209.5069" gradientTransform="matrix(-0.9262 -0.3771 -0.3771 0.9262 -1214.9583 -241.101)">
					<stop  offset="0" style="stop-color:#BB286C"/>
					<stop  offset="1" style="stop-color:#F8F0C8"/>
				</linearGradient>
				<path class="st51" d="M52.1,48.7c-0.9,2.2-3.2,3.3-5.3,2.4c-2.1-0.9-3.1-3.4-2.2-5.7c0.9-2.2,3.2-3.3,5.3-2.4
					C52,43.9,53,46.5,52.1,48.7z"/>
				<path class="st49" d="M61.9,40.6c-0.1,0.5,0.1,1,0.6,1.1c0.4,0.1,0.8-0.3,0.9-0.8c0.1-0.5-0.1-1-0.6-1.1
					C62.4,39.7,62,40,61.9,40.6z"/>
				<path class="st50" d="M58.9,45c0.4-1,1.7-0.8,1.9,0.1"/>
				
					<linearGradient id="SVGID_8_" gradientUnits="userSpaceOnUse" x1="-1294.6284" y1="-213.3408" x2="-1289.5228" y2="-213.3408" gradientTransform="matrix(-0.9262 -0.3771 -0.3771 0.9262 -1214.9583 -241.101)">
					<stop  offset="0" style="stop-color:#BB286C"/>
					<stop  offset="1" style="stop-color:#F8F0C8"/>
				</linearGradient>
				<path class="st52" d="M64.6,49.6c-0.9,2.2-2.6,3.6-3.9,3c-1.3-0.6-1.7-2.8-0.8-5c0.9-2.2,2.6-3.6,3.9-3
					C65,45.1,65.4,47.3,64.6,49.6z"/>
				<path class="st50" d="M63.5,38.5c0.2,0.1,0.5,0.4,0.8,0.6"/>
				<path class="st50" d="M57.2,37.2c-0.7,0.6-1.5,0.8-2,0.7"/>
			</g>
			<g>
				<g>
					<path class="st53" d="M63.6,63c0,0,0,3.6-5.2,3.8c-5.8,0.3-6.1-4-6.1-4s0.1-4.4,2.7-4.7c2.6-0.2,7.1,0.5,7.1,0.5L63.6,63z"/>
					<path class="st54" d="M52.4,63.3c0,0-0.1-0.4,0.4-0.3c0.6,0.1,0.7,0.1,0.7,0.1s-0.5-3.1,1.1-3.9c1.6-0.7,3.2,1.4,3.2,1.4
						s2.7-2.9,4.1-1.2c1.4,1.6,0.6,3.6,0.6,3.6l1,0.2c0,0,1.6-6.8-5.6-6.6C50.6,56.8,52.4,63.3,52.4,63.3z"/>
					<path class="st54" d="M53.7,65.5c0,0-3.5,1.6-3,3.2c0.5,1.6,4.3-2.4,4.3-2.4s-0.4-0.1-0.7-0.4S53.7,65.5,53.7,65.5z"/>
					<path class="st54" d="M62.4,65.4c0,0,3.5,2.2,3.4,3c0,0.7-0.4,1.4-1.3,1c-0.9-0.4-3.6-3.1-3.6-3.1S61.9,65.8,62.4,65.4z"/>
					<path class="st54" d="M54.2,65.8c0,0-1.2,2.3-1.2,4.5s0.3,3.1,2.4,3.7c2.1,0.6,4.5,0.2,4.5,0.2s3.4-0.4,3.2-3.1
						c-0.3-2.7-1.8-5-1.8-5s-1.6,1.1-3.5,0.7C55.8,66.4,54.2,65.8,54.2,65.8z"/>
					<path class="st55" d="M53.8,74.3c0.2,0.1,0.4,0.1,0.7,0.1c0,0.2,0.2,0.4,0.4,0.5c0.2,0.1,0.4,0.1,0.6-0.1
						c0.1-0.1,0.2-0.1,0.2-0.2c0.2-0.1,0.5,0.2,0.7,0.1c0,0,0,0,0.1,0c0,0,0-0.1,0-0.1c0-0.2,0-0.5-0.1-0.7
						c-0.1-0.2-0.4-0.4-0.6-0.5c-0.3-0.1-0.7-0.2-1-0.2c-0.4-0.1-0.7-0.1-1,0.1C53.5,73.7,53.4,74.1,53.8,74.3z"/>
					<path class="st55" d="M61.7,74.3c-0.1,0.3-0.4,0.5-0.7,0.5s-0.6-0.1-0.8-0.3c-0.2,0.2-0.6,0.2-0.8,0c0,0-0.1-0.1-0.1-0.2
						c-0.1-0.2,0.2-0.4,0.4-0.5c0.2-0.1,0.3-0.1,0.5-0.1c0.2,0,0.3-0.1,0.4-0.3c0.2-0.1,0.3-0.2,0.5-0.3c0.3-0.1,0.5-0.1,0.8,0
						c0.3,0.1,0.7,0.4,0.6,0.8C62.4,74.3,62,74.3,61.7,74.3z"/>
					<g>
						<g>
							<ellipse class="st54" cx="56.1" cy="62.3" rx="1.4" ry="1.5"/>
							<path class="st56" d="M56.2,63.4c-0.7,0-1.4-0.6-1.4-1.3c0,0.1,0,0.2,0,0.3c0,0.8,0.6,1.5,1.4,1.5c0.8,0,1.4-0.7,1.4-1.5
								c0-0.1,0-0.1,0-0.2C57.4,62.9,56.9,63.4,56.2,63.4z"/>
						</g>
						<g>
							<ellipse class="st54" cx="60.1" cy="62.2" rx="1.4" ry="1.5"/>
							<path class="st56" d="M60.2,63.2c-0.7,0-1.4-0.6-1.4-1.3c0,0.1,0,0.2,0,0.3c0,0.8,0.6,1.5,1.4,1.5c0.8,0,1.4-0.7,1.4-1.5
								c0-0.1,0-0.1,0-0.2C61.4,62.7,60.9,63.2,60.2,63.2z"/>
						</g>
						<path class="st57" d="M56.5,64.8c0,0,0-1.6,1.7-1.4s1.7,0.7,1.7,1.2c-0.1,0.5-0.7,1.6-1.4,1.6C57.7,66.1,56.9,65.7,56.5,64.8z
							"/>
					</g>
					<path class="st53" d="M56.1,66.7c0,0-4.3,7.3,1.4,7.2c5.7-0.1,3.9-3.9,3.9-3.9l-1.2-3.5L56.1,66.7z"/>
				</g>
			</g>
			<path class="st58" d="M36.5,54.7c1,2.8,1.7,13.3,3.1,16c2.4,0.6,6-2.3,7.8-3.7c1.1-0.8,6.4-4,3.1-5.3c-2.6,2.1-5.7,3.7-8.6,5
				c-1-1.2-0.8-10.3-1.2-11.9"/>
			<path class="st58" d="M49.3,62.5c0.7-1.4,0.1-2.9,1.2-4.6c0.9-1.2,3.8-2.1,2.3-0.7c0.5-0.8,1.3-1.1,2-0.5
				c-0.3,0.6-0.8,1.1-1.2,1.7c0.7-1.1,2.2-1.2,2.8,0.1c-1.7,0.9-3.7,6.5-6.1,5.8"/>
			<path class="st58" d="M60.6,56.7c1.8-1.3,5.2,6,0.4,5.1c0-0.7,0.3-1.4,0.8-2c-0.4,0.3-1.3,1.1-2.2,1c-0.1-0.7,0.1-1.3,0.7-1.8
				c-1.8,0-1.1-2.4,0.4-2.5"/>
		</g>
		<path class="st59" d="M164.3,25.5l9.7,0c0,0,1.2-8.1,1.2-10.4c0-2.4-0.3-8.6-2.7-8.6c-2.3,0-4.6,1.7-5.1,2.9
			c-0.5,1.2-3.6,9.5-3.6,10C163.8,19.8,164.3,25.5,164.3,25.5z"/>
		<path class="st60" d="M163.3,24.5l9.7,0l-1,27.1c0,0,3.3,2,3.3,3.6c0,1.6-1,5-3,4.5c-2-0.5-2.7-1.4-5-1.8
			c-2.3-0.4-0.7-4.7-0.7-6.1c0-1.4-2.4-18.5-2.4-18.5L163.3,24.5z"/>
		<polygon class="st61" points="183.2,39.1 177.5,93.7 165.6,96 167.9,40.3 		"/>
		<path class="st62" d="M146,34.7c0.4,1.4,45,5.1,45,5.1s2.5-13.1,2.2-21.2c-0.2-5.1-2.1-12.2-4.9-18.3l-29.5,0
			C152.9,14.5,145.7,33.7,146,34.7z"/>
		<path class="st62" d="M187.8,3.6c-0.6-1.1-1.1-2.2-1.5-3.3l-3.2,0C184.4,1.5,185.9,2.7,187.8,3.6z"/>
		<polygon class="st61" points="178.4,39.1 172.6,93.7 160.8,96 163.1,40.3 		"/>
		<path class="st63" d="M174.1,94.2c4.2-2.6,9.5,3.5,11.9,5.6c3.9,3.5,9.2,6.2,0.4,6.2c-3.6,0-10.3-0.6-13.6-1.7
			c-2.3-0.8-3.7-2.3-6.2-3c-2.3-0.6-4.8-0.1-7.2-0.9c-1.1-6.5,9.1-4.6,15.3-7.5"/>
		<polygon class="st9" points="159.5,100.4 158.9,104.5 172.9,104.3 166.7,101.4 		"/>
		<path class="st63" d="M180.8,94.6c5,0.2,15.8,2.3,15.4,7.1c-8.1,0.6-10.5-3.7-16.5-7.2"/>
		<g>
			<path class="st64" d="M146.6,72.4c0,0,4.3-3.5,8.2-4.3s26.5-1.7,26.5-1.7l10.4,4.2l0.8,5.3c0,0-44.9,1.1-45.7-0.6
				C145.9,73.7,146.6,72.4,146.6,72.4z"/>
			<g>
				<path class="st65" d="M182.9,75.5c-0.2-0.7-0.6-0.5-0.9-1.3s-0.2-0.4,0.2-1.3c0.4-0.9,1.3-3.1,0.2-4.1c-1.1-1.1-1.9-2-3.9-2.3
					s-5.8-0.9-8-0.2c-2.2,0.7-3.2,1.4-4.1,1.3s-1.5-0.9-1.5-0.9l0,0c0.2-0.9,0.3-1.9-0.4-2.6c-0.3-0.3-0.7-0.5-1.1-0.6
					c-1.3-0.4-2.8-0.1-4.1,0.5c-1,0.5-2.3,1.4-2.9,2.3c-0.6,0.9-0.5,2.4-0.4,3.4c0,0.3,0.1,0.5,0.2,0.7c0.2,0.3,0.5,0.6,0.8,0.8
					c0.6,0.4,1.4,0.6,2.2,0.7c1.3,0.2,2.7-0.1,3.7-0.9l-0.1,0.2l5.2,2.9l2.2-0.7h7.8c0,0,1.5,1.3,1.9,1.4s0.7,0.4,0.7,0.4l-2.2,1.4
					c0,0-1.1,0-1.5,0.9c-0.4,0.9,0,1.6,0.7,1.8c0.7,0.2,1.5-0.9,1.5-0.9s0.7-0.9,1.7-1.6C181.7,76.2,183,76.2,182.9,75.5z"/>
				<path class="st66" d="M178.3,74.3l-3.3,2c0,0-0.7,1.1,0.4,1.6c1.1,0.5,1.3,0,1.3,0l3.3-2.7l-2.2-1.8l-0.2,0.2L178.3,74.3z"/>
				<path class="st66" d="M170.3,73.6l1.1,2.3l0.4,1.4c0,0-1.3,2.3-2.2,1.3c-0.9-1.1,0-2.2,0-2.2v-2.9H170.3z"/>
				<path class="st65" d="M158.2,64.7c0,0-0.4-4,1.1-4.9c1.5-0.9,1.9,2.2,2.4,2.7c1.2,1.1,1.5,0.9,1.5,0.9s-1.4-0.5-3.2,0.5
					C158.2,65,158.2,64.7,158.2,64.7z"/>
				<path class="st65" d="M156.2,66.5c0,0-2.8,0.2-3.4,0.9c-0.6,0.7,3.5,2.5,3.5,2.5s-0.2-0.4-0.2-1.9S156.2,66.5,156.2,66.5z"/>
				<path class="st67" d="M159.3,64c0,0-0.4-2.8,0.2-3.7c0.6-0.9,2,3.1,2,3.1L159.3,64z"/>
				<path class="st67" d="M152.7,67.6c0,0,1.2-0.1,2.7,0.5c1.5,0.5,1.3,0.7,1.3,0.7l-0.4,1.1L152.7,67.6z"/>
				<path class="st68" d="M162.3,69.5c-0.1,0.2-0.3,0.4-0.4,0.6c0.1,0,0.1,0.1,0.1,0.2c-0.2,0-0.4-0.2-0.4-0.4s0-0.4,0.2-0.6
					c0.1-0.1,0.2-0.2,0.4-0.2c0.1,0,0.1,0.1,0.1,0.1c0.1,0.1,0.1,0.4,0,0.5"/>
				<path class="st65" d="M170,71.8c0,0,0.4,3.8-0.2,5.6c-0.6,1.8-0.9,1.8-0.9,1.8s-1.5,0.2-1.9-0.2s0.2,0.2,0.6-1.1
					c0.4-1.3,0.6-4,0.6-4l2-2.2H170z"/>
				<path class="st65" d="M180.5,67.2c0,0,5.9,2.2,7.4,5.8c1.5,3.6,0.9,4.1,0.4,5c-0.6,0.9-0.6,1.8-2.4,1.4
					c-1.9-0.4,0.7-1.3,0.7-3.6c0-2.3-0.6-4.1-1.9-5c-1.3-0.9-2.2-1.8-2.2-1.8L180.5,67.2z"/>
				<polygon class="st69" points="161,69.1 159.8,69.6 161.3,67.5 				"/>
				<path class="st70" d="M161.4,68.1c0,0,1.1-1.9,2.1-2.8"/>
				<line class="st70" x1="161.8" y1="68.3" x2="164.1" y2="66.2"/>
				<path class="st70" d="M160.4,69.6c0,0-2.5,2.2-3.3,2.9"/>
				<path class="st70" d="M160.6,69.9c0,0-1.9,2.8-2.1,3.2"/>
			</g>
			<path class="st71" d="M145.4,56.1c0,0,19.9,1.8,24,1.6c4-0.2,23.1-2,23.1-2s-1.5-3.4-6.3-4.3c-4.8-0.9-14.4,2.9-17.7,2.3
				s-17.4-2.4-20.8-1.3C144.2,53.5,145.4,56.1,145.4,56.1z"/>
			<path class="st71" d="M147,72.6c0,0-1,2.4,0.3,2.5c7.2,0.7,18.4-0.2,18.4-0.2l10.6-0.1l8.5,0.5l5.6-0.6c0,0,1.5,1.6,1.5-0.9
				c0-2.5-0.1-18.4-0.1-18.4h0.8c0,0,5.8,25.6-0.3,26.6c-6.2,1.1-42.2,2.1-44.3,0.3c-2.1-1.8-2.7-2-2.5-7
				C145.5,70.3,147,72.6,147,72.6z"/>
			<path class="st72" d="M147,73.2c0.5-1.4-0.3-3-0.1-4.5c0.1-0.6,0.3-1.2,0.4-1.8c0.3-1.5-0.2-3-0.6-4.4c-0.6-1.8-0.4-3.6-1.3-5.3
				c1.9,0.1,3.1-0.1,5,0.2c1.7,0.3,3.4,0.3,5.2,0.3c9.4,0.1,18.8,0,28.2-0.5c1.8-0.1,3.7-0.2,5.5-0.7c0.8-0.2,1.8-0.5,2.5-0.2
				c0.9,0.5,0.7,2.6,0.6,3.6c-0.3,3-0.4,6.1-0.3,9.1c0,1.8,0.1,3.6-0.1,5.4c-0.1,0.5-0.2,1.7-0.6,2c-0.3,0.2-0.7-0.4-1-0.4
				c-3.7,0.6-7.4,1.1-11.1,1.1c-2.4,0-4.7-1.1-7.1-1c-2,0.1-3.9-0.2-5.9-0.1c-10.1,0.6-12.8,0.3-15.8,0.4c-0.9,0-1.8,0.2-2.6-0.1
				s-1.6-1.1-1.5-1.9c0.1-0.9,1-1.7,0.8-2.5"/>
			<path class="st64" d="M157.2,57.2l3.2,0.1c0,0-0.2-13.7,6.2-14.3c7.4-0.7,6.4,14.5,8.4,14.3c2-0.2,3.1-0.3,3.1-0.3
				s-0.8-7.4-3.9-12.6c-1.7-2.9-2-5.1-7-5.1c-5.6,0-8.1,4.5-8.6,5.8C158.1,46.3,157.2,57.2,157.2,57.2z"/>
		</g>
		<path class="st62" d="M164,9.5c0,4.3,0.9,8.6,1.1,12.9c0.2,5.8-1.5,7.8,6.9,8.1c6.9,0.3,9.9,2,12.2-3.1c1.7-3.9,1.4-8.6,1.3-12.7
			c-0.1-3.9-0.6-9.5-2.6-14.5l-19,0C163.6,3.8,164,7.5,164,9.5z"/>
		<path class="st73" d="M178.6,36.5c0.8,1.5,1.3,7.8,0.2,9.5c-0.9,1.4-7.5,3.8-8.8,3.2c1-2.4,3.4-5,5.7-6.3c-2.4,1-6.3,5.7-9.3,3.2
			c-4.4-3.6,2.8-3.7,5-3.6c-2.6-0.1-8.4,0.8-9.3-2.2c1.7-1.8,4.2-1.1,6.2-0.7c0.5-1.6,0.2-3.4,0.7-5.2c3.1-0.2,7.9-1.1,10.4,0.7"/>
		<path class="st53" d="M164.8,29.5c0.1,2-1.4,3.8-2.5,5.6c3.3,1,8,0.6,11.8,0.6c6,0,6.3,0.4,7.4-4.7c-4.8-0.4-9.9-1.5-14.9-2"/>
		<polygon class="st74" points="219.7,74.2 219.7,0.4 206.1,0.3 202.4,85.6 219.6,99.9 		"/>
		<polygon class="st75" points="207.7,61.4 219.7,61.1 219.7,99.9 203,85.5 		"/>
		<polygon class="st76" points="207.7,61.4 219.7,61.1 219.7,58.5 207.7,58.7 		"/>
		<path class="st77" d="M207.7,58.7l12-0.2c0-2.6,1-6.2-1.6-8c-3.7-2.6-8.2,1.4-11.2-3.2"/>
		<polygon class="st78" points="202.4,0.3 202.4,86.5 207.7,86.5 207.7,0.3 		"/>
	</g>
	<g>
		<g>
			<path class="st68" d="M161.5,66.9c-1.2,0.4-1.4-0.7-1.4-1.5C161.2,65.3,162.3,65.7,161.5,66.9"/>
			<linearGradient id="SVGID_9_" gradientUnits="userSpaceOnUse" x1="163.709" y1="60.8551" x2="153.9014" y2="79.4221">
				<stop  offset="0" style="stop-color:#D1DF96"/>
				<stop  offset="1" style="stop-color:#769668"/>
			</linearGradient>
			<ellipse class="st79" cx="160.9" cy="66.1" rx="0.9" ry="0.8"/>
		</g>
		<circle class="st19" cx="161.2" cy="66.3" r="0.5"/>
		<path class="st53" d="M161.1,66.1c-0.2-0.1-0.6-0.1-0.5-0.4C160.9,65.5,161.4,65.8,161.1,66.1"/>
	</g>
	<g>
		<g>
			<path class="st68" d="M158.5,69.9c-1.2,0.4-1.4-0.7-1.4-1.5C158.2,68.3,159.3,68.7,158.5,69.9"/>
			<linearGradient id="SVGID_10_" gradientUnits="userSpaceOnUse" x1="160.709" y1="63.8551" x2="150.9014" y2="82.4221">
				<stop  offset="0" style="stop-color:#D1DF96"/>
				<stop  offset="1" style="stop-color:#769668"/>
			</linearGradient>
			<ellipse class="st80" cx="157.9" cy="69.1" rx="0.9" ry="0.8"/>
		</g>
		<circle class="st19" cx="158.2" cy="69.3" r="0.5"/>
		<path class="st53" d="M158.1,69.1c-0.2-0.1-0.6-0.1-0.5-0.4C157.9,68.5,158.4,68.8,158.1,69.1"/>
	</g>
	<path class="st68" d="M158.6,68.6c-0.2-0.2-0.5-0.3-0.7-0.3c-0.3,0-0.5,0.1-0.8,0.2c-0.1,0.1-0.2,0.1-0.3,0.2
		c-0.1,0.2-0.1,0.4-0.1,0.6c0,0.2,0.2,0.7,0.5,0.5c0.2-0.2,0.1-0.6,0.2-0.8c0.1-0.4,0.3-0.5,0.8-0.5c0-0.1-0.1-0.2-0.2-0.2
		c-0.4-0.1-0.9,0-1.1,0.4c-0.2,0.2-0.2,0.8,0,1c0,0.1,0.1,0.1,0.2,0.1c0.2,0,0.1-0.1,0.1-0.2c0-0.3,0.1-0.6,0.3-0.8
		c0.3-0.2,0.6-0.3,1-0.3c0.5,0-0.2-0.4-0.4-0.4c-0.3,0-0.5,0-0.8,0.1c-0.1,0-0.2,0.1-0.2,0.1c-0.1,0.1-0.1,0.2-0.2,0.3
		c-0.2,0.5,0.1,1,0.5,1.3c0-0.2-0.1-0.4-0.1-0.6c0-0.1,0-0.3,0-0.4c0.1-0.1,0.3-0.2,0.5-0.2c0.3,0,0.5-0.1,0.8-0.1
		C158.5,68.6,158.6,68.6,158.6,68.6C158.6,68.6,158.6,68.5,158.6,68.6c-0.1-0.2-0.2-0.2-0.3-0.3"/>
	<path class="st68" d="M161.6,65.6c-0.2-0.2-0.5-0.3-0.7-0.3c-0.3,0-0.5,0.1-0.8,0.2c-0.1,0.1-0.2,0.1-0.3,0.2
		c-0.1,0.2-0.1,0.4-0.1,0.6c0,0.2,0.2,0.7,0.5,0.5c0.2-0.2,0.1-0.6,0.2-0.8c0.1-0.4,0.3-0.5,0.8-0.5c0-0.1-0.1-0.2-0.2-0.2
		c-0.4-0.1-0.9,0-1.1,0.4c-0.2,0.2-0.2,0.8,0,1c0,0.1,0.1,0.1,0.2,0.1c0.2,0,0.1-0.1,0.1-0.2c0-0.3,0.1-0.6,0.3-0.8
		c0.3-0.2,0.6-0.3,1-0.3c0.5,0-0.2-0.4-0.4-0.4c-0.3,0-0.5,0-0.8,0.1c-0.1,0-0.2,0.1-0.2,0.1c-0.1,0.1-0.1,0.2-0.2,0.3
		c-0.2,0.5,0.1,1,0.5,1.3c0-0.2-0.1-0.4-0.1-0.6c0-0.1,0-0.3,0-0.4c0.1-0.1,0.3-0.2,0.5-0.2c0.3,0,0.5-0.1,0.8-0.1
		C161.5,65.6,161.6,65.6,161.6,65.6C161.6,65.6,161.6,65.5,161.6,65.6c-0.1-0.2-0.2-0.2-0.3-0.3"/>
</g>
</svg>
