<svg xmlns="http://www.w3.org/2000/svg" version="1.0" viewBox="0 0 108 67"><switch><g><path fill="#5F9B42" d="M44.1 47.6s-.3 1.2 1.3.9c1.6-.3 3.7-1.5 4.6-3 .9-1.5 7.9-5.6 9.8-7.1 1.9-1.4 4.3-2.3 5.4-2.7 1.1-.4.2-1.4 2.3-1.7 2-.3 4.1-.7 4.1-.7l1.7-2.3s-1.4-2.9-.7-4.2c.7-1.3 1.1-2.9 1.2-3.8.1-.9-1.9-8.6-1.6-9.5.3-1 .1-1.4-.5-3.3s1-2.9-.4-4.2C69.8 4.5 68 3.5 67 3.2c-1-.3-2.7.4-3.4.6-.7.1-3.1-2-3.1-2l-2.5.3L54.6 0l-3.4.6s-3.4.6-4.3.7c-.9.1-1.8.3-1.8.3s-1.7 2.7-2.5 3.1c-.9.4-1.1 2.1-1.1 2.1s-.2.5-1.1 1.6c-1 1.1-2.9 1.4-2.4 2.4.5 1.1.6 4 .6 4s-1.2.4-1.8 1.4c-.5 1 .4 2.4.4 2.4l-.2.9-2.6 2.2s-1.9 1.2-1.8 3.2c.1 2-.6 3.5.8 4.9 1.4 1.4 2.2 2.4 3.5 3.1l1.3.7s4.3 3.4 2.5 1.2c0 0 3.4 3.8 1.8 2.2l1.6 1.5s.7 2.6.5 3.3c-.1.7-.1 2.5-.1 2.5l-.2 1.8-.2 1.5z"/><path fill="#FCED20" d="M48 47.5l-.3-1.8s2.2-.3 3.2-1c1-.8 1.3-2.9 1.3-2.9l1.3-1.8-.2-1.1-2.9 3-1.2 1.6s-1.6.3-1.8.3c-.2 0-.5-2.9-.5-2.9l2.7-3.6s2.8-2.4 3.2-2.7c.7-.5 1.5-.8 2-.9.4-.1.5-.4.6-.5.1-.2.4-.2 1.1.2l1.5.9-.3-1.6s1-1.2 1.9-1.4c.9-.1-.6.6.9-.1s3-.3 1.5-.7c-1.5-.4-2.5-1.1-3.4.6-.9 1.7-8.5-.7-7.7-1.5.8-.8 1.8-1.9 2.3-2.2.5-.3 1.8-1.2 2.4-1.5.6-.3 1.8-1.7 1.8-1.7s-1.9-.1-2.5.4c-.6.6-2.6 3.8-2 1.2.6-2.6 1.5-4.1 1.5-4.1l1.6-1.6.7-1.5.3-2.1.6-1.7.7-.1 1.2-1.8 1.9-.3 5.2-.9 2.6 1.4-.3-1.8-9 .4 2.3-3.1.9-1.3 3.4-.6 1.6-.3-5.9 1-3.8 3.6s-2.2.8-1.5 2.3c.7 1.5-1 2.2-1 2.2h-1.2s-.3-.4-.6-.9c-.4-.5-.8-1.2-.9-1.6-.2-.4-.4-1.2-.6-1.9-.2-.8-.5-1.5-1-1.9l-1.7-1.7-.8-.8c-.7-.7-1.3-1.2-1.3-1.2L46 4.1l-.7.1s5.1 6 5.9 7.3c.8 1.2 3.5 3.3 2.7 6.8-.8 3.5-2.6 6.8-2.6 6.8l-.6 2.2s-.6-.8-1-1.9c-.4-1.1-.8-3.3-1.8-4-.5-.4-1.3-1.1-2.1-1.8-.7-.7-1.4-1.2-1.7-1.4-.5-.2-1.2-.9-2-1.5-.3-.3-.6-.5-1-.7-1.1-.7-2.8-3.2-2.7-2.2.1 1-1.9 2.5.4 2.4 2.3-.2 4 1.6 2.9 2-.5.2-1.1.5-1.7.7-.6.2-1.2.3-1.7.1-1.1-.3-1.2.7-1.2.7l5.6-.5s3.1 3.2 4.8 4c1.8.7 1.3 3.9 1.3 3.9s0 1.3.2 2.9c.3 1.6-1 6.8-1 6.8s.1-3.9-.5-4.7c-.5-1.1-4.8-5.1-5.6-5.5-.6-.3-1.2-.6-1.6-.7-1-.4-2.5-.8-3.4-.9-.9-.1-2.5.2-2.5.2l1.4 1.5s.5-.1 2.5-.4c2-.3 9 2.7 8.7 4.8-.3 2.1-.1 2.5 0 4.1v1.6s-1.8 1.7-.9 2.9-1.3 2.3-1.3 2.3l-.1 2.5-.2 1.8-.5 1.4 1.3.9 2.7-1.1z" opacity=".25"/><path fill="#FCED20" d="M72.4 18.9c-2.6-2.6-6.8-.8-9.4-3.6 1.4-.4 2.6.6 4 .7 1.3.1 2.7-1 3.7-.1-.7.4-1.5.7-2.4.9 1 1 5.3-.5 4.2 2.9m-10.7 3.9c-1-2.8 6-1 7.4-3.2-1.6-.7-3.9.6-5.6 1.1.4-.8 1.4-1.6 1.4-2.5-1.4.1-6 4.7-5.2 6.1 1.3.1 5.3-.6 6.1-1.3-1.2-1.1-3.6 1.3-4.2-.9" opacity=".25"/><path fill="none" stroke="#6DBD45" stroke-width="2" d="M46 47.6c-.3-3.1.5-7.2 2.1-9.9 2.2-3.7 3.3-6.3 4-10.5.6-3.7 1.5-6.7 3.3-10 .9-1.5 2.2-3.2 3.1-4.7 1-1.5 3.6-2.8 4-4.4"/><path fill="#FCED20" d="M61.5 6.4C61.3 4.1 57.4 3 58 1.7c1.1.3 2.6 2.1 3.6 2.9 1 .8.7 1.2 1.9 1.7.8.4 1.3-.7 2.1.2-1.4 1.8-3.6-.2-4.7 1.9.5-1.2.8-2.6 0-3.8" opacity=".25"/><path fill="none" stroke="#6DBD45" stroke-width="2" d="M47.3 38.7c.3-3.4.7-6.2-2.2-8.9-2.3-2.1-6.9-4.5-10.1-3.8m12.1 18.4c-.1.2 1 .6 1.9.2 1.1-.5 2.2-2.2 2.7-3.2m-1.4-7.1c1.1-2.5 2.6-2.1 4.7-2 .9 0 1.7.4 2.6 0 1.2-.5 1.2-1.8 2.8-1.6-.6.1-1 .5-1.5.8m-5.5-4.9c.3-1 1.2-1.6 2.3-1.5m4.3-1c1.1-1.5 2.9-2.6 4-4.1m.5-3.9c-.1-.2-.3-.4-.4-.5 1 .2 1.5.8 2.6.9 1.2.1 2.2-.8 3.5-.6-1 .2-2 .3-3 .7 1.4 1.1 4-.2 4.9 2m-2.8-6.9c-1.9-.2-3.6-.6-5.5-.4-1.8.2-3.7 1.8-5.5 1.3m-2.7 4.5c-1.9-.7-2.8-4.8-3.9-6.4-.9-1.3-2-1.9-3-3-.9-1-1.2-3.1-2.8-3M50 32.8c-.6-3.5.4-7.7-2-10.7-1.4-1.7-3.6-2.4-5.1-3.9-.7-.7-.9-1.6-1.7-2.3-.9-.7-2.1-1.1-3.1-1.7m24.1-6.1c-1.2-1.2.3-1.8-.2-2.9-.6-1.2-2.1-1.1-2.6-2.5M37.3 19c1.9-.3 3.5.3 5.2-.9"/><path fill="#090A07" stroke="#6DBD45" stroke-width="2" d="M45.2 43.3c-.7-1.3-.7-3.1-1.3-4.6-.6-1.8-1.7-3.4-2-5.3-.7-4.2 1 .1 2.8-.8 1.8-.9-2.3-3.8 1.2-4.3 0-.8-1-2.2-.8-2.8.6-1.6 2.4-1 3.6-.6.5-1.1.1-2.6.3-3.8.3-1.5 1.1-2.8 1.2-4.3 1.3 2.4 1.8 3.3 1.3 6.1-.5 2.5-.8 4.9-1.2 7.4-.7 5.1-5 8.9-5.1 14.2-.3-2.3-.8-4.7-1.1-7" opacity=".06"/><path fill="#090A07" stroke="#6DBD45" stroke-width="2" d="M48.6 41c.1-3.5 4-3 6-4.4.6-.4 2.3-2.6 2.3-3.4-.1-2.1-1.7-.5-2.9-.6.5-2.3 5.1-4.7 4.4-6.6-2 0-5.1.3-3.4-2.7.4-.6 2.1-1.9 2.6-2.5 1-1 1.8-1.7 3.1-2.1-1.3-1.2-2.7-2.2-1.2-3.9 1.3-1.4 2.4-.3 3.8-1-3.3.3-3.1-2.1-1.1-3.9 1.7-1.6 4-1.3 5.6-2.3-1.2-.2-2.7-.4-2.7-1.8 4.8-3.2 6.8 6.9 7 9.5.3 4.6.7 9-2.4 12.8C66.4 32 63.6 37 59 39.6c-3.9 2.2-7.6 5.6-11.8 7.3-.6-1.7 1-4.9 1.4-6.5" opacity=".02"/><path fill="#090A07" stroke="#6DBD45" stroke-width="2" d="M67 34.1c1.5-2 3.8-3.6 4.6-6.1.9 1 1.8 3.3 1 4.5-1.3 2.1-3.8 1-5.7 1.1" opacity=".06"/><path fill="none" stroke="#FCED20" d="M64.6 35.4c1.2-2 4.3-2.9 5.8-4.8 1.7-2.1 2.8-4.8 2.8-7.5" opacity=".25"/><path fill="#77B143" d="M74.8 44.9s-.2 1 1.1.8c1.3-.2 3.1-1.3 3.9-2.6.8-1.3 6.7-4.9 8.3-6.1 1.6-1.2 3.6-2 4.5-2.3.9-.4.2-1.2 1.9-1.5 1.7-.3 3.5-.6 3.5-.6l1.4-2s-1.2-2.6-.6-3.6c.6-1.1 1-2.5 1-3.3.1-.8-1.6-7.4-1.4-8.3.3-.8.1-1.2-.4-2.9s.9-2.5-.4-3.7c-1.2-1.2-2.8-2.1-3.6-2.4-.8-.3-2.3.4-2.9.5-.6.1-2.7-1.8-2.7-1.8l-2.1.3-2.9-1.8-2.9.5s-2.9.5-3.6.6c-.8.1-1.5.3-1.5.3S74 7.3 73.3 7.7c-.7.4-.9 1.8-.9 1.8s-.1.4-1 1.3c-.8.9-2.5 1.2-2.1 2.1.4.9.5 3.5.5 3.5s-1 .4-1.5 1.2c-.4.9.3 2.1.3 2.1l-.1.8-2.2 1.9s-1.6 1.1-1.5 2.8c.1 1.8-.5 3 .7 4.2 1.2 1.2 1.9 2.1 3 2.7l1.1.6s3.6 3 2.1 1c0 0 2.9 3.3 1.5 1.9l1.4 1.3s.6 2.3.5 2.9c-.1.6 0 2.2 0 2.2l-.1 1.6-.2 1.3z"/><path fill="#FCED20" d="M78.1 44.8l-.3-1.6s1.9-.2 2.7-.9c.8-.7 1.1-2.5 1.1-2.5l1.1-1.6-.2-1-2.4 2.6-1.1 1.4s-1.4.2-1.5.3c-.2 0-.4-2.5-.4-2.5l2.3-3.1s2.3-2 2.7-2.3c.6-.4 1.3-.7 1.7-.8.3-.1.4-.3.5-.5.1-.1.3-.2 1 .2l1.3.8-.2-1.4s.8-1.1 1.6-1.2c.8-.1-.5.5.8-.1s2.5-.2 1.3-.6c-1.2-.4-2.1-1-2.9.5-.7 1.5-7.2-.6-6.5-1.3.7-.7 1.5-1.6 2-1.9.4-.3 1.5-1 2-1.3.5-.3 1.5-1.4 1.5-1.4s-1.6-.1-2.1.3c-.5.5-2.2 3.3-1.7 1.1.5-2.3 1.3-3.6 1.3-3.6L85 21l.6-1.3.3-1.8.5-1.5.6-.1 1-1.5 1.6-.3 4.4-.7 2.2 1.2-.2-1.6-7.6.3 1.9-2.7.8-1.1 2.9-.5 1.3-.2-5 .8-3.2 3.1s-1.9.7-1.3 2c.7 1.2-.8 1.9-.8 1.9h-1s-.2-.3-.5-.8c-.3-.4-.6-1-.8-1.4-.2-.4-.3-1-.5-1.7s-.5-1.3-.8-1.6L79.9 10l-.7-.7c-.7-.6-1.2-1.1-1.2-1.1l-1.8-1.1-.6.1s4.4 5.2 5.1 6.3c.7 1.1 3 2.9 2.3 5.9-.7 3.1-2.2 5.9-2.2 5.9l-.5 1.9s-.5-.7-.9-1.6c-.3-.9-.7-2.8-1.6-3.5-.5-.3-1.1-1-1.8-1.6-.6-.6-1.2-1.1-1.5-1.2-.4-.2-1.1-.8-1.7-1.3-.3-.2-.5-.5-.8-.7-.9-.6-2.4-2.8-2.3-1.9.1.9-1.6 2.2.3 2 2-.1 3.4 1.4 2.5 1.8l-1.5.6c-.5.2-1 .2-1.5.1-.9-.2-1.1.6-1.1.6l4.7-.4s2.6 2.8 4.1 3.5c1.5.7 1.1 3.4 1.1 3.4s0 1.1.2 2.5-.8 5.9-.8 5.9 0-3.4-.5-4.1c-.5-.7-4.1-4.2-4.8-4.5-.5-.3-1-.5-1.4-.6-.8-.4-2.1-.7-2.9-.8-.8-.1-2.1.2-2.1.2l1.2 1.3s.4-.1 2.1-.3c1.7-.3 7.7 2.4 7.4 4.2-.3 1.8 0 2.2 0 3.6v1.4s-1.5 1.4-.8 2.5c.8 1.1-1.1 2-1.1 2v2.2l-.1 1.6-.4 1.2 1.1.8 2.7-1.3z" opacity=".25"/><path fill="#FCED20" d="M98.7 20c-2.2-2.2-5.8-.7-8-3.2 1.2-.3 2.2.5 3.4.6 1.1.1 2.3-.9 3.1-.1-.6.4-1.3.6-2 .7.8.9 4.5-.4 3.5 2.5m-9 3.6c-.8-2.4 5.1-.8 6.2-2.7-1.3-.6-3.3.5-4.7 1 .3-.7 1.2-1.4 1.2-2.2-1.2.1-5.1 4.1-4.4 5.3 1.1.1 4.5-.5 5.2-1.1-1.1-.9-3.1 1.1-3.6-.8" opacity=".25"/><path fill="none" stroke="#6DBD45" stroke-width="2" d="M76.4 44.8c-.3-2.7.4-6.3 1.8-8.6 1.9-3.2 2.8-5.5 3.4-9.1.5-3.2 1.2-5.8 2.8-8.7.7-1.3 1.8-2.8 2.6-4 .8-1.3 3.1-2.4 3.4-3.8"/><path fill="#FCED20" d="M89.4 9.1c-.2-2-3.5-3-3-4.1 1 .3 2.3 1.8 3.1 2.5.8.7.6 1 1.7 1.5.7.3 1.1-.6 1.8.2-1.2 1.6-3-.2-4 1.6.4-1.1.7-2.2 0-3.3" opacity=".25"/><path fill="none" stroke="#6DBD45" stroke-width="2" d="M77.5 37.1c.2-3 .6-5.4-1.9-7.7-1.9-1.9-5.9-3.9-8.6-3.4m10.3 16.1c-.1.1.9.5 1.6.2.9-.4 1.9-1.9 2.3-2.8M80 33.4c.9-2.2 2.2-1.8 4-1.7.8 0 1.4.3 2.2 0 1-.4 1-1.5 2.4-1.4-.5.1-.8.5-1.3.7m-4.7-4.4c.2-.9 1-1.4 2-1.3m3.6-.8c.9-1.3 2.5-2.2 3.4-3.5m.4-3.4c-.1-.2-.2-.3-.3-.5.8.2 1.3.7 2.2.8 1 .1 1.9-.7 3-.5-.8.2-1.7.3-2.5.6 1.2 1 3.4-.2 4.2 1.7m-2.5-6c-1.6-.2-3-.6-4.6-.4-1.5.2-3.2 1.5-4.7 1.1m-2.4 4c-1.6-.6-2.4-4.2-3.3-5.6-.7-1.1-1.7-1.7-2.6-2.6-.8-.9-1.1-2.7-2.4-2.6M79.8 32c-.5-3 .3-6.7-1.8-9.3-1.2-1.5-3.1-2.1-4.3-3.4-.6-.6-.7-1.4-1.4-2-.8-.7-1.8-.9-2.6-1.5M90 10.6c-1-1 .3-1.5-.2-2.6-.5-1-1.8-1-2.2-2.2M68.9 20c1.6-.2 3 .3 4.4-.7"/><path fill="#090A07" stroke="#6DBD45" stroke-width="2" d="M75.7 41.1c-.6-1.1-.6-2.7-1.1-4-.6-1.5-1.5-3-1.8-4.6-.6-3.6.9.1 2.4-.7 1.5-.7-2-3.3 1-3.7 0-.7-.9-1.9-.7-2.5.5-1.4 2-.9 3-.5.4-.9.1-2.2.2-3.3.2-1.3.9-2.4 1-3.7 1.1 2.1 1.6 2.9 1.1 5.3-.4 2.1-.7 4.3-1 6.4-.6 4.4-4.2 7.7-4.3 12.3-.3-2-.7-4.1-1-6.1" opacity=".06"/><path fill="#090A07" stroke="#6DBD45" stroke-width="2" d="M78.6 39.1c.1-3 3.4-2.6 5.1-3.8.5-.4 2-2.3 1.9-2.9-.1-1.8-1.5-.5-2.5-.5.4-2 4.3-4.1 3.7-5.7-1.7 0-4.4.2-2.9-2.4.3-.5 1.7-1.7 2.2-2.2.8-.9 1.5-1.5 2.7-1.8-1.1-1-2.3-1.9-1-3.4 1.1-1.2 2-.2 3.2-.9-2.8.3-2.6-1.8-1-3.4 1.5-1.4 3.4-1.1 4.7-2-1-.1-2.3-.3-2.3-1.6 4-2.8 5.8 6 6 8.2.3 4 .7 7.8-2 11.1-2.8 3.4-5.2 7.7-9 9.9-3.3 1.9-6.4 4.9-10 6.3-.5-1.5.9-4.2 1.2-5.7" opacity=".02"/><path fill="#090A07" stroke="#6DBD45" stroke-width="2" d="M94.2 33.2c1.2-1.8 3.2-3.1 3.9-5.3.8.8 1.5 2.9.9 3.9-1.1 1.8-3.2.9-4.8 1" opacity=".06"/><path fill="none" stroke="#FCED20" d="M92.2 34.3c1-1.7 3.6-2.5 4.9-4.2 1.5-1.8 2.3-4.2 2.4-6.5" opacity=".25"/><path fill="#6FAC43" d="M72.7 29.2s.8-.7-.5-1.3c-1.2-.6-3.3-.6-4.7 0-1.4.7-8.3.4-10.3.6-2 .2-4.1-.3-5.1-.6-1-.2-.8.9-2.4.2l-3.2-1.4-2.3.9s-.4 2.8-1.5 3.4c-1.1.6-2.2 1.6-2.7 2.2-.5.6-2.7 7.1-3.4 7.6-.7.6-.7 1-1.2 2.7-.5 1.7-2.1 1.6-1.7 3.3.4 1.7 1.2 3.3 1.7 4 .6.7 2.1.9 2.7 1.2.5.2 1.2 3 1.2 3l2 .9 1.4 3.1 2.7 1.2s2.7 1.2 3.4 1.5l1.4.6s2.4-1.2 3.2-1.1c.8.1 1.7-1 1.7-1s.3-.3 1.5-.6 2.7.4 2.9-.6c.2-1 1.4-3.2 1.4-3.2s1.1.3 1.9-.2c.8-.5.9-2 .9-2l.6-.6 2.9-.4s1.9 0 2.8-1.5c.9-1.5 2.1-2.3 1.7-3.9-.3-1.6-.5-2.8-1-3.9l-.6-1.1s-1.4-4.5-1.2-2c0 0-.6-4.3-.2-2.4l-.4-1.9s.8-2.2 1.2-2.7c.4-.5 1.2-1.8 1.2-1.8l1-1.3 1-.9z"/><path fill="#FCED20" d="M69.9 27.5l-.6 1.4s-1.7-.8-2.7-.7c-1 .1-2.3 1.5-2.3 1.5l-1.8.7-.5.8 3.4-.8 1.6-.6s1.3.5 1.4.6c.2.1-1 2.3-1 2.3l-3.6 1.4s-3.1.4-3.6.4c-.7 0-1.5-.1-1.8-.3-.3-.1-.5 0-.7.1-.2.1-.4 0-.7-.7l-.7-1.4-.6 1.3s-1.3.5-2 .1c-.7-.3.7-.1-.7-.3-1.4-.2-2.2-1.2-1.4-.2.8 1 1.2 2 2.7 1.2 1.4-.8 5.7 4.5 4.7 4.7-.9.2-2.1.5-2.7.5h-2.4c-.5.1-1.9.5-1.9.5s1.3 1 2 .9c.7-.1 3.7-1.6 2 0-1.7 1.6-3 2.3-3 2.3l-2 .4-1.2.7-1.2 1.4-1.3.9-.5-.2-1.7.7-1.5-.7-4.1-1.8-1.1-2.2-.6 1.4 6.5 4-3.2 1.2-1.3.5-2.7-1.2-1.2-.6 4.6 2.1L45 49s1.9.4 2.1-1c.2-1.4 1.7-1.1 1.7-1.1l.9.6v.9c0 .5 0 1.2-.1 1.6-.1.4-.3 1-.5 1.7s-.3 1.3-.2 1.8c.1.4.3 1.2.4 2 .1.3.1.7.2 1 .2.8.3 1.5.3 1.5l.9 1.9s1.1.5.5.2c0 0-.8-6.8-.8-8.1 0-1.3-.9-4 1.3-6.2 2.3-2.2 5.1-3.7 5.1-3.7l1.4-1.3s0 .9-.2 1.8c-.2 1-1 2.7-.6 3.8.2.5.4 1.4.6 2.3.2.8.4 1.5.5 1.8.3.4.5 1.2.7 2 .1.3.2.7.3 1 .4 1 .4 3.7.9 2.9.4-.8 2.5-.9.8-1.9-1.7-1-2.1-3-1.1-2.8l1.5.3c.5.1 1 .4 1.3.7.6.7 1.2.1 1.2.1l-4.2-2.3s-.7-3.8-1.5-5.2c-.9-1.4.9-3.4.9-3.4s.6-.9 1.2-2.2c.6-1.3 3.9-4.5 3.9-4.5s-1.9 2.8-1.8 3.7c0 .9 1.1 5.8 1.5 6.4.3.5.6 1 .8 1.3.5.8 1.3 1.8 2 2.3.6.5 1.9 1 1.9 1l-.3-1.7s-.4-.2-2-.9-5.1-6.2-3.9-7.6c1.2-1.4 1.2-1.8 2-3l.7-1.2s2.1-.4 2-1.7c-.1-1.3 2-1 2-1l1.2-1.8 1-1.3 1-.8-.5-1.3-2.1-.1z" opacity=".25"/><path fill="#FCED20" d="M39.1 36.8c.7 3.1 4.4 3.8 4.9 7-1.2-.4-1.6-1.7-2.5-2.4-.9-.7-2.4-.5-2.7-1.6.7 0 1.4.2 2.1.5-.2-1.2-4-2.1-1.6-4m9.5 2.1c-.6 2.5-4.7-2.1-6.7-1.2.8 1.2 3.1 1.4 4.5 1.8-.7.4-1.8.5-2.2 1.2 1.1.6 6.5-.6 6.6-2-.9-.6-4.1-2.1-5-1.9.4 1.3 3.2.8 2.6 2.6" opacity=".25"/><path fill="none" stroke="#6DBD45" stroke-width="2" d="M71.4 28.4c-1.2 2.4-3.8 5-6.2 6.2-3.3 1.6-5.3 3-7.8 5.8-2.2 2.4-4.2 4.2-7.1 5.7-1.3.7-3 1.3-4.4 1.9-1.4.7-3.9.3-4.9 1.3"/><path fill="#FCED20" d="M40.9 51c-.9 1.8 1.3 4.4.2 5-.7-.8-.9-2.8-1.2-3.8-.3-1 0-1.2-.6-2.1-.4-.6-1.2-.1-1.4-1.2 1.8-.7 2.4 1.8 4.3.8-1 .6-1.8 1.5-1.8 2.7" opacity=".25"/><path fill="none" stroke="#6DBD45" stroke-width="2" d="M66.2 34.2c-1.8 2.4-3.4 4.2-2.7 7.5.6 2.6 2.8 6.5 5.4 7.5m.2-19.1c.1-.1-.5-.9-1.3-1-1-.1-2.6.6-3.5 1.1m-2.2 5.7c-2 1.3-2.8.3-4.3-.8-.7-.5-1-1.1-1.8-1.2-1.1-.2-1.7.7-2.7-.2.5.2 1 .1 1.5.2m1.4 6.2c-.7.6-1.6.6-2.4 0m-3.5-1.3c-1.5.5-3.3.5-4.7 1.1m-2.2 2.6v.6c-.6-.6-.7-1.3-1.4-1.8-.8-.6-2-.5-2.8-1.2.8.3 1.6.7 2.4.9-.5-1.5-2.9-1.7-2.5-3.7m-1.3 6.2c1.2 1 2.2 2.1 3.7 2.9 1.4.7 3.5.5 4.5 1.6m4.1-2c1 1.4-.3 4.8-.3 6.5 0 1.4.5 2.3.7 3.6.2 1.2-.6 2.9.6 3.5m10.4-22.4c-1.3 2.8-3.9 5.4-3.6 8.8.1 1.9 1.4 3.5 1.7 5.3.2.8-.2 1.6.1 2.5.3 1 1 1.8 1.4 2.7m-19.9-7.1c.3 1.4-1.1 1.1-1.3 2.2-.2 1.1 1 1.8.6 3M64 53.2c-1.5-.7-2.3-1.9-4.1-1.8"/><path fill="#090A07" stroke="#6DBD45" stroke-width="2" d="M69.9 31.8c-.1 1.3-1 2.6-1.3 3.9-.4 1.6-.4 3.3-1.1 4.8-1.5 3.4-.7-.5-2.4-.7-1.6-.2-.2 3.9-2.9 2.5-.4.6-.3 2-.8 2.4-1.2.9-2.1-.4-2.8-1.2-.8.6-1.3 1.8-2 2.6-.9 1-2.1 1.5-2.9 2.5.2-2.4.3-3.3 2-5.1 1.5-1.6 2.9-3.2 4.3-4.8 2.9-3.4 7.8-4.1 10.3-7.9-.9 1.9-1.7 3.8-2.5 5.6" opacity=".06"/><path fill="#090A07" stroke="#6DBD45" stroke-width="2" d="M66.4 31.9c-1.7 2.5-4.3.3-6.4.4-.6 0-2.9.8-3.2 1.4-.9 1.6 1 1.2 1.8 1.8-1.5 1.4-5.9 1-6.2 2.7 1.4.9 3.8 2.2 1.1 3.6-.6.3-2.4.4-3.1.6-1.2.3-2.1.4-3.2.1.4 1.5.9 2.9-1 3.4-1.6.4-1.8-.9-3.2-1.1 2.5 1.3 1.2 3-1.1 3.4-2 .4-3.5-.9-5-.9.7.7 1.7 1.5 1.1 2.6-4.9.1-1.6-8.3-.5-10.2 1.9-3.5 3.7-6.9 7.8-8.1 4.2-1.3 8.6-3.6 13-3.3 3.8.2 8-.5 11.8.2-.4 1.5-3 3.1-4.1 4.1" opacity=".02"/><path fill="#090A07" stroke="#6DBD45" stroke-width="2" d="M50.1 28.3c-2 .8-4.4.8-6.1 2.3-.2-1.1.3-3.2 1.4-3.8 1.9-.9 3.2 1 4.5 1.8" opacity=".06"/><path fill="none" stroke="#FCED20" d="M52.4 28.5c-1.8.9-4.4.1-6.4.8-2.2.7-4.3 2.2-5.6 4.1" opacity=".25"/><path fill="#80C241" d="M41.1 46.8s.7.9 1.4-.3c.7-1.1.9-3.2.2-4.7-.6-1.5 0-8.2 0-10.2-.1-2 .6-4 .9-4.9.3-.9-.9-1-.1-2.4.8-1.5 1.7-2.9 1.7-2.9l-.8-2.4s-3-.9-3.5-2c-.6-1.2-1.6-2.4-2.2-3-.7-.6-7.4-3.9-8-4.6-.6-.8-1-.9-2.8-1.6-1.8-.8-1.6-2.3-3.4-2.2-1.8.1-3.6.6-4.3 1-.7.4-1.1 2-1.4 2.4-.3.5-3.2.7-3.2.7l-1 1.8-3.4.9-1.4 2.4S8.4 17.2 8 17.9c-.6.4-1 1.1-1 1.1s1.1 2.6 1 3.4c-.1.8 1 1.9 1 1.9s.3.4.5 1.6c.3 1.2-.5 2.6.5 3 1 .3 3.3 2 3.3 2s-.3 1 .1 1.9c.5.9 2 1.2 2 1.2l.6.6.3 2.9s-.1 1.9 1.5 3 2.3 2.4 4.1 2.4c1.8-.1 3 0 4.2-.4l1.2-.4s4.9-.7 2.2-.9c0 0 4.7.1 2.6.2l2.1-.1s2.3 1.1 2.8 1.6 1.9 1.5 1.9 1.5l1.3 1.2.9 1.2z"/><path fill="#FCED20" d="M43.1 44.2l-1.5-.9s1-1.5.9-2.6c-.1-1.1-1.4-2.5-1.4-2.5l-.6-1.9-.9-.5.7 3.6.5 1.7s-.7 1.2-.8 1.3c-.1.1-2.4-1.4-2.4-1.4l-1.3-3.8s-.3-3.1-.3-3.6c0-.7.2-1.4.4-1.8.2-.3 0-.5-.1-.7 0-.2 0-.3.8-.6l1.5-.4-1.3-.8s-.4-1.3 0-2 .1.7.4-.7c.3-1.4 1.4-2 .3-1.4-1.1.7-2.2.9-1.4 2.4.8 1.5-5.1 4.9-5.3 3.9-.2-1-.4-2.2-.4-2.7.1-.5.1-1.8.2-2.4.1-.6-.3-2.1-.3-2.1s-1.1 1.1-1 1.8c.1.7 1.5 3.9-.2 2-1.6-1.9-2.3-3.4-2.3-3.4l-.4-2-.7-1.3-1.4-1.5-.9-1.4.3-.5-.7-1.8.8-1.4 2.2-3.8 2.4-.8-1.5-.9-4.6 5.8-1.1-3.2-.5-1.4 1.4-2.4.7-1.1-2.5 4.2.6 4.5s-.6 1.8.9 2.3c1.5.4 1.1 1.9 1.1 1.9l-.7.8s-.4 0-1-.1-1.3-.2-1.7-.3c-.4-.1-1.1-.5-1.8-.8-.7-.3-1.4-.5-1.9-.5-.4 0-1.3.1-2.2.1H13c-.9 0-1.6.1-1.6.1l-2.1.6-.3.5s7.3.4 8.7.6c1.4.2 4.4-.2 6.6 2.4C26.5 25.9 28 29 28 29l1.3 1.6s-1-.1-2-.5-2.9-1.5-4-1.2c-.6.1-1.6.2-2.5.2-.9.1-1.7.1-2 .2-.5.2-1.3.3-2.2.3-.4 0-.7.1-1.1.2-1.1.2-3.9-.2-3.1.4.8.6.8 2.7 2 1.1 1.1-1.5 3.4-1.5 3.1-.6-.1.5-.3 1-.4 1.5-.2.5-.4.9-.8 1.2-.8.5-.2 1.2-.2 1.2l2.7-3.8s4.1 0 5.6-.7 3.6 1.4 3.6 1.4 1 .8 2.3 1.5c1.3.8 4.6 4.6 4.6 4.6s-2.9-2.3-3.8-2.4c-.9-.1-6.2.2-7 .4-.6.2-1.1.4-1.4.6-.8.4-2 1-2.5 1.6-.6.5-1.2 1.7-1.2 1.7h1.9s.2-.3 1-1.8 6.9-4 8.3-2.6c1.4 1.5 1.9 1.5 3.1 2.4l1.2.9s.3 2.1 1.7 2.3c1.4.2 1 2.1 1 2.1l1.9 1.5 1.3 1.2.8 1.1 1.4-.3.5-2.1z" opacity=".25"/><path fill="#FCED20" d="M34.8 12.2c-3.4.1-4.3 3.8-7.8 3.7.4-1.1 1.9-1.3 2.7-2.1.8-.8.7-2.3 1.9-2.4-.1.7-.3 1.4-.6 2 1.3 0 2.5-3.6 4.4-.9m-2.9 9.1c-2.6-1 2.5-4.3 1.6-6.4-1.4.6-1.7 2.8-2.1 4.1-.4-.7-.5-1.8-1.1-2.4-.7 1 .3 6.5 1.8 6.9.7-.7 2.4-3.7 2.3-4.6-1.5.1-1 3-3 2.1" opacity=".25"/><path fill="none" stroke="#6DBD45" stroke-width="2" d="M42 45.6c-2.5-1.6-5.2-4.6-6.3-7.2-1.6-3.6-3-5.8-5.8-8.7-2.4-2.5-4.2-4.9-5.7-8-.7-1.5-1.2-3.2-1.8-4.7-.6-1.5-.1-3.9-1.1-5.1"/><path fill="#FCED20" d="M19.5 11.6c-1.8-1.2-4.8.5-5.4-.6.9-.5 3-.4 4.2-.5 1.1-.1 1.3.2 2.3-.2.7-.3.2-1.2 1.3-1.2.6 1.9-2.1 2.1-1.1 4.1-.6-1.1-1.5-2-2.8-2.3" opacity=".25"/><path fill="none" stroke="#6DBD45" stroke-width="2" d="M36.1 39.5c-2.4-2.2-4.3-4.1-7.9-3.9-2.8.2-7.1 1.7-8.4 4.1M40.3 43c.1.1 1-.3 1.2-1.1.2-1-.5-2.7-1-3.6m-6.1-3.2c-1.3-2.2-.1-2.8 1.1-4.1.5-.6 1.2-.8 1.4-1.6.3-1-.7-1.8.3-2.7-.2.5-.1.9-.3 1.4m-6.6.4c-.6-.8-.5-1.7.1-2.3M32 23c-.5-1.6-.4-3.4-.9-4.9m-2.7-2.6c-.2 0-.4 0-.6-.1.7-.5 1.4-.5 2-1.1.7-.7.6-1.9 1.4-2.5-.4.7-.9 1.4-1.1 2.2 1.6-.2 2-2.6 4.1-1.9m-6.5-2.3c-1.2 1.1-2.4 1.9-3.3 3.2-.8 1.3-.7 3.4-2 4.2m1.9 4.4c-1.6.8-5.1-1.1-7-1.4-1.4-.2-2.5.1-3.9.1-1.3 0-3-1.1-3.8 0m23.5 14c-2.9-1.7-5.6-4.7-9.2-5.1-2-.2-3.8.8-5.7.9-.9 0-1.7-.4-2.7-.3-1 .1-1.9.7-3 .9m8.6-18.6c-1.5 0-1.2-1.3-2.3-1.6-1.2-.4-2 .7-3.3.1m.4 23.5c.8-1.3 2.1-2 2.2-3.8"/><path fill="#090A07" stroke="#6DBD45" stroke-width="2" d="M38.4 43.5c-1.4-.3-2.7-1.4-4.1-1.9-1.7-.6-3.5-.9-5.1-1.9-3.5-2 .6-.6.9-2.2.3-1.6-4.1-.8-2.6-3.2-.6-.5-2.2-.6-2.5-1.2-.9-1.3.5-2.1 1.5-2.6-.6-.9-1.9-1.6-2.7-2.4-1-1-1.5-2.3-2.6-3.3 2.5.6 3.5.8 5.3 2.8 1.6 1.8 3.3 3.4 4.9 5.1 3.4 3.4 4 8.4 7.9 11.5-1.9-1.2-3.9-2.3-5.9-3.4" opacity=".06"/><path fill="#090A07" stroke="#6DBD45" stroke-width="2" d="M38.5 40c-2.6-2.1-.1-4.3-.1-6.4 0-.6-.7-3-1.3-3.4-1.6-1.2-1.3.8-2 1.5-1.4-1.7-.8-6-2.6-6.6-1.1 1.2-2.6 3.4-3.9.5-.3-.6-.3-2.4-.5-3.1-.2-1.2-.3-2.1.1-3.2-1.6.1-3.1.4-3.6-1.6-.4-1.6 1.1-1.6 1.3-3-1.5 2.2-3.3.7-3.6-1.6-.3-2 1.2-3.3 1.3-4.8-.5.7-1.5 1.5-2.6.7.1-4.9 8.9-.2 10.9 1.2 3.6 2.5 7.2 4.9 8.3 9 1.1 4.3 3.4 9.1 2.9 13.4-.5 3.7.1 8-.9 11.7-1.6-.7-3.1-3.5-4.2-4.7" opacity=".02"/><path fill="#090A07" stroke="#6DBD45" stroke-width="2" d="M43.3 24.5c-.7-2.1-.6-4.5-2.1-6.5 1.2 0 3.4.8 4 2.1.8 2-1.3 3-2.2 4.2" opacity=".06"/><path fill="none" stroke="#FCED20" d="M43 26.7c-.9-2 .1-4.4-.5-6.5-.7-2.3-2.1-4.6-4.1-6.2" opacity=".25"/><path fill="#A21E36" d="M78 50.9s-.3.5-1.3.3c-1-.1-1.3-.2-2-.2-.6 0-.8-.1-1.1-.1-.3 0-.3-.1-1.1-.1-.4 0-2.2-1-2.7-1.3-.6-.3-.9-.9-.8-1.5 0-.7-.1-1.3.7-1.9.8-.6 2.3-1.3 3.4-1.3s2.2-.3 3.2.2 2 1.3 2.3 1.8c.3.5.4 1.4.4 1.7 0 .3-.2 1.2-.3 1.3-.1.1-.5.8-.5.8l-.2.3z"/><path fill="#FFF" d="M73.9 49.2c.6-.4-.9-.8-1.2-1-.4-.2-1.2-.9-1.7-.6-.6.4.8 1.2 1.1 1.4.7.4 1.1.1 1.8.1 0-.1 0-.1-.1-.2m3.5.3c-.4.4-1.1 0-1.5-.1-.4.5.7.6 1 .6.7 0 .8-.7.1-.5" opacity=".82"/><path d="M78.1 47c.1.4.4.7.4 1.2 0 .4-.1.9-.3 1.3-.2.4-.5.8-.9 1-.5.3-.8 0-1.3-.2-.4-.1-.8-.1-1.2-.2-.4-.1-.9-.3-1.3-.4-.8-.1-1.8.3-2.5-.1-.8-.4-1.4-1.2-1.4-2.2 0-.3 0-1.2-.4-.5-.1.2-.1 1.1-.1 1.3.2.9 1.5 1.6 2.2 2 .9.5 1.6.6 2.6.7 1.1.1 1.7.3 2.6.4 1 .1 1.4 0 2-.9.4-.7.7-2.2.5-2.9-.3-1-1.3-1.5-2-2.1-.8-.6-1.5-.7-2.5-.7-.9 0-1.6-.1-2.5.2-.4.1-.8.3-1.2.5-.4.2-1.1.9-.2.7 1-.2 1.5-1.1 2.6-1.1 1.7 0 3.8.3 4.9 2" opacity=".17"/><path fill="#A21E36" d="M33.2 48.5c.8 0 1.1 0 1.5-.4.4-.5 1.1-1.1 1.3-1.6.2-.5.2-1.1.4-1.7.1-.6.6-1.3.8-1.6.2-.3.1-1.2 0-1.8-.1-.5-.5-1.6-.8-2.1-.4-.5-.8-1.3-1.5-1.4-.7-.1-.8-.2-1.6.3-.7.5-1.6 1.8-1.9 2.5-.3.7-.9 1.7-1.1 3-.1 1.3 0 2.4.5 3.1.4.6 1 1 1.5 1.3.4.2.9.4.9.4z"/><path fill="#FFF" d="M32.4 46.3c.2-.3 0-1-.4-.9 0-.1-.1-.1-.1-.2-.6.1-.1 1.7.5 1.1m1.8-.3c.2-.2 1.7-1.9.6-1.8-.4 0-.2.6-.4.9-.1.3-.8.8-.2.9" opacity=".82"/><path d="M33 48.1c.6-.1 1.5-.5 2-.9.5-.5.6-1.3.7-2 0-.3.1-.7.2-1 .1-.2.3-.2.3-.5 0-.2-.1-.4-.1-.5 0-.6.2-.4.6-.7.3-.2.3-.9.6-1 .2.5-.1 1.6-.3 2.1-.4.8-.7 1.4-.8 2.2-.2.9-.8 1.4-1.4 2.1-.3.3-.5.6-1 .7-.2 0-.9-.1-.8-.5h.3m3.1-9c-.1.5-.5-.1-.6-.3-.2-.3-.5-.8-.9-.9-.4-.1-1.8.6-1.9.4-.3-.3.5-.6.7-.6.3-.1.7 0 1 0 .8.3 1.2.9 1.7 1.4m-6 4.3s-.1-.1 0 0c.2-.4.7-.5.9-.9.1-.3 0-.8.2-1.1.1-.2.2-.3.3-.4.1-.2.1-.5.1-.6.1-.3.7-.8.7-1.1-.1-.6-.7.3-.9.5-.3.3-.5.7-.6 1.1-.2.8-.5 1.5-.6 2.3" opacity=".17"/><path fill="#A21E36" d="M48.5 57.6c.5.7.5 1 1.1 1.1.6.1 1.5.4 2 .3.5-.1 1.5-1.4 2.1-1.5.6-.2 1.7-.2 2-.2.3 0 1.7.5 2.1.1.4-.3.6 0 1.6-1.3 1.1-1.3.4-2.1-.1-2.6-.6-.6-.8-.6-1.6-1s-2.6-.7-3.3-.6c-.7.1-2 0-3.2.6-1.2.5-2.1 1.2-2.4 1.9-.4.7-.4 1.3-.4 1.9 0 .8.1 1.3.1 1.3z"/><path d="M48.6 57.6c.7.7 1.5 1.3 2.6 1.1 1.2-.3 1.7-1.6 2.8-1.9.8-.3 1.9.2 2.8.3.4 0 1 .1 1.5 0 .6-.2.8-.8 1.3-1.1-.6.8-1.6 1.8-2.7 1.5-1.1-.2-1.8-.5-2.8-.1-.5.2-1 .4-1.4.7-.5.4-.8.9-1.4 1-.7.1-2.6-.2-2.6-1.2m3.7-5.1c-1.1.4-2 .6-2.8 1.4-.4.4-.8.8-1 1.4-.2.4-.1.9-.3 1.3-.1-1.1.4-2.4 1.1-3.2.8-.9 2.2-1.2 3.4-1.3 1.1-.1 2.1-.4 3.2-.1 1 .2 2.7.6 3.4 1.5-.3.3-1.3-.5-1.7-.6-.6-.3-1.2-.3-1.8-.4-1-.1-2.5-.6-3.5 0" opacity=".17"/><path fill="#FFF" d="M50.3 57.9c.2-.3 0-1-.4-.9 0-.1-.1-.1-.1-.2-.6.1-.1 1.7.5 1.1m.7-.6c.2-.2 1.6-1.9.6-1.8-.4.1-.2.6-.4.9-.2.3-.8.8-.2.9" opacity=".82"/><path fill="#05773D" d="M24.5 15.3s-2.6 4.7-2.6 6.2.9 6.8 5 8.6c4.1 1.8 6.6 1.9 8.2 1.2 1.6-.7 3.7-2.8 4.3-3.7.6-.9 2.2-4.1.7-6.8-1.5-2.6-2.7-4.6-5.7-5.8-2.9-1.2-5.5-1.7-7.8-.6-1.7.9-2.1.9-2.1.9z"/><path fill="#D3DF9B" d="M23.5 22.5s1.5 3.5 4.3 5 3.8 2.2 5.5 2.3c1.7.1 3.1-.2 3.6-.6.6-.4 2.3-2.8 2.5-4.6.2-1.8-.6-5.2-1.7-6.2-1-.9-5.2-3.9-7.3-3.7-2.1.2-5.3.5-5.9 1.6-.6 1.1-1.7 2.5-1.6 4 .3 1.5.6 2.2.6 2.2z"/><path fill="#DEEAB6" d="M39 22.9c-.9.1-3.2.6-2.4 2 .3.6.9.9 1 1.6.1.6-.2 1.4-.7 1.7-.4.2-1.2.5-1.7.6-.6.2-1.4.1-2 0-.6-.1-1.2-.2-1.7-.3-.8-.1-1.1-.4-1.7-.9-.6-.5-.8-1.2-1.4-1.6-.6-.4-1.2-.6-1.9-.9-.6-.3-1.1-.8-1.5-1.4-.4-.6-1-1.2-1.2-1.9-.4-1.2.7-2.5 1.2-3.4.4-.7.7-1 1.4-1.4.3-.2.6-.4.9-.4.5-.1.5.1.9.2 1 .1 2.2-.1 3.1-.4 1.4-.4 2 .1 3.2.7 1.2.6 2.1 1.6 2.8 2.7.3.5.6 1 .8 1.5.2.5.9 1 .9 1.6"/><path fill="#D3DF9B" d="M34.9 23.9c.5-1 2-2.3.1-2.9 1-1-.2-1.3-.9-1.8-1.4-1-1.2-1-2.8-.4-2.3.8-3.7.2-3 3.1.2 1.1 0 1.6 1.5 2.2 1 .4 1.9.3 3 .3 1.5 0 1.7.4 2.5-.9.3-.5.6-2.1.3-2.7"/><path fill="#F0F2C5" stroke="#B6AF7E" d="M30.9 19.2c-.1 1 1.7 3.1 1.7 1.4 0-.6-.5-1.4-1-1.7-.8-.6-.9.2-.7.9m3.9 2.1c-.5-.2-3-.5-2.6.4.2.5 1 .6 1.5.6s1.6-.3.7-.7m-5.7 1.5c-.3-.7 1.2-2.5 1.7-1.6.6 1-.8 2.1-1.7 2m4-.3c.1-.6 1.9-.8 1.8.1-.1 1.3-2.2.2-1.5-.3m-1.6-1.3c-.4.3-.1 1.4.5 1 .7-.5-.3-1.5-.6-.8m-.9-.9c-.5-.4-1.8-2.3-.4-2.3.6 0 .7.6.8 1.1.1.6.1.9-.6 1.2M34 21c-.1-.5-2.9-2.4-1.2-2.7 1.2-.3 2.1 1.9 2.5 2.7-.1.2-.2.2-.3.2" opacity=".55"/><path fill="#DCDF8B" d="M29.5 25.2c-.2.3-.2.7-.1 1-.5.2-.7-.7-1.1-.9-.4-.3-1.1-.1-1.2-.8-.1-.8.6-.4.9-.3.4.1 1.2.1 1.4.5m-1-5.4c0-.4.2-.8.5-.9.1.1.3.2.3.2.3-.2.2-.6.4-.7.2-.1.7.2.9 0 .8-.5-.8-.8-1.1-.9-.6 0-1.4-.4-1.6.2-.2.4.2 1.4.4 1.7m7.1 4.4c.5-.4 1.4-.7 2-.7.6 1.2.2 2.4-1 2.8-.6-.4-.5-.7-.5-1.3" opacity=".45"/><path fill="#F0F2C5" d="M31.1 19.1c-.1 1 1.7 3.1 1.7 1.4 0-.6-.5-1.4-1-1.7-.8-.6-.9.2-.7.9m3.9 2.1c-.5-.2-3-.5-2.6.4.2.5 1 .6 1.5.6s1.6-.3.7-.7m-5.7 1.6c-.3-.7 1.2-2.5 1.7-1.6.6 1-.8 2.1-1.7 2m4-.3c.1-.6 1.9-.8 1.8.1-.1 1.3-2.2.2-1.5-.3m-1.6-1.3c-.4.3-.1 1.4.5 1 .7-.5-.3-1.5-.6-.8m-.9-1c-.5-.4-1.8-2.3-.4-2.3.6 0 .7.6.8 1.1.1.6.1.9-.6 1.2m3.8-.5c-.1-.5-2.9-2.4-1.2-2.7 1.2-.3 2.1 1.9 2.5 2.7-.1.2-.2.2-.3.2" opacity=".91"/><path fill="#05773D" d="M82.9 32.9s-3.7-3.9-5.1-4.4c-1.4-.4-6.7-1.2-9.7 2.2-2.9 3.4-3.8 5.7-3.6 7.5.2 1.8 1.5 4.3 2.2 5.2.7.8 3.3 3.3 6.2 2.7 3-.6 5.2-1.2 7.2-3.7 2-2.4 3.3-4.7 2.9-7.2-.2-2-.1-2.3-.1-2.3z"/><path fill="#D3DF9B" d="M76.4 29.7s-3.8.4-6.1 2.6-3.2 3-3.8 4.5c-.6 1.5-.7 3-.5 3.7.2.6 1.9 3.1 3.6 3.8 1.6.7 5.2 1 6.4.3 1.2-.7 5.3-3.7 5.7-5.8.4-2.1 1.1-5.2.2-6.1-.9-.9-1.9-2.4-3.3-2.7-1.5-.4-2.2-.3-2.2-.3z"/><path fill="#DEEAB6" d="M71.4 44.4c.1-.9.4-3.2-1.2-2.9-.7.1-1.1.6-1.8.4-.6-.1-1.2-.6-1.4-1.2-.1-.4-.1-1.3-.1-1.8 0-.6.3-1.3.6-1.9.3-.5.6-1 .8-1.5.4-.7.7-.9 1.4-1.4.6-.4 1.4-.4 2-.9.6-.5 1-1 1.4-1.5.4-.5 1.1-.8 1.7-1 .7-.2 1.5-.6 2.1-.6 1.3 0 2.2 1.4 2.9 2.2.5.6.7 1 .9 1.8.1.3.2.7.1 1-.1.5-.3.5-.5.8-.3.8-.4 2.1-.4 3.1 0 1.5-.7 1.9-1.7 2.8-1 .9-2.1 1.5-3.4 1.8-.5.1-1.1.2-1.6.3-.7.1-1.3.7-1.8.5"/><path fill="#D3DF9B" d="M71.6 40.2c.8.8 1.6 2.6 2.8 1 .6 1.3 1.3.2 2-.3 1.4-1.1 1.3-.8 1.2-2.6-.1-2.4.9-3.5-2-3.8-1.1-.1-1.5-.5-2.6.8-.7.8-.9 1.7-1.2 2.7-.5 1.4-.9 1.5.1 2.7.4.5 1.8 1.2 2.5 1.1"/><path fill="#F0F2C5" stroke="#B6AF7E" d="M77.3 37.8c-.9-.4-3.5.7-1.9 1.2.6.2 1.5-.1 2-.4.8-.5.1-.9-.6-1m-3.2 3.1c.3-.4 1.4-2.7.4-2.6-.5.1-.8.8-1 1.2-.1.4-.2 1.6.5.9m.2-5.9c.8-.1 2 1.9 1 2.1-1.1.2-1.7-1.4-1.4-2.2m-1 3.9c.5.3.2 2-.6 1.7-1.2-.5.4-2.2.7-1.3m1.8-1.2c-.2-.5-1.3-.5-1.1.2.2.8 1.6.2.9-.3m1.2-.6c.5-.3 2.7-1 2.3.3-.2.6-.8.5-1.3.4-.6 0-.8-.1-1-.7m-.6 3.6c.5 0 3.1-2.1 3-.3-.1 1.2-2.4 1.4-3.4 1.5-.1-.1-.1-.2-.1-.4" opacity=".55"/><path fill="#DCDF8B" d="M72 34.7c-.2-.3-.6-.4-.9-.4 0-.6.9-.5 1.2-.7.4-.3.4-1 1.1-.9.8.2.2.7 0 1-.2.3-.5 1.1-.9 1.2m5.4.4c.3.1.7.4.7.8-.1 0-.2.2-.3.3.1.3.5.4.5.6.1.3-.3.6-.3.8.3.9 1-.5 1.1-.8.2-.5.8-1.2.3-1.6-.4-.3-1.3-.3-1.7-.1m-6.1 5.4c.3.6.2 1.5.1 2.2-1.3.3-2.3-.5-2.3-1.8.5-.5.8-.2 1.4-.1" opacity=".45"/><path fill="#F0F2C5" d="M77.3 38c-.9-.4-3.5.7-1.9 1.2.6.2 1.5-.1 2-.4.8-.5.1-.9-.6-1m-3.3 3.1c.3-.4 1.4-2.7.4-2.6-.5.1-.8.8-1 1.2-.1.4-.2 1.6.5.9m.2-5.9c.8-.1 2 1.8 1 2.1-1.1.2-1.7-1.4-1.4-2.2m-.9 3.9c.5.3.2 2-.6 1.7-1.2-.5.4-2.2.7-1.3m1.8-1.2c-.2-.5-1.4-.5-1.2.2.2.8 1.6.1.9-.3m1.3-.6c.5-.3 2.7-1 2.3.3-.2.6-.8.5-1.3.4-.6 0-.9-.1-1-.7m-.6 3.6c.5 0 3.1-2.1 3-.3-.1 1.2-2.4 1.4-3.4 1.5-.1-.1-.1-.2-.1-.4" opacity=".91"/><path fill="#F37A25" d="M37.8 43.6s.3.5.9.5c.6.1.9 0 .9 0s.3.3.5.2c.2-.1.6-.2.6-.2h.3s.8.2.9.1c.1-.1.3-.2.3-.2h.9c.1-.1.5 0 .5 0s.6 0 .7-.1c.1-.2.3 0 .3 0s.5-.2.7-.3h.8l.6-.1h.3s.6-.1.6-.2c.1-.1.8-.1.8-.1l.5-.1h.4l.6-.2s.5.1.8 0 .6-.4.8-.3c.2.1.6-.1.6-.1l.6-.1.4-.1s.1-.2.8-.1c.7 0 1.1-.2 1.3-.2.2 0 .7.1.9 0 .2-.1.7-.1.8-.3.1-.1.6-.2.6-.2h.5l.8-.3s.2-.2.6-.1c.3.1.9-.3.9-.3s1.3-.7 1.5-.8c.2-.2.4-.9.5-1 .1-.1.3-.6.2-.8-.1-.2-.6-1.1-.7-1.3-.1-.2-.3-.5-.6-.7-.3-.3-.8-.8-1.3-.8-.5-.1-.8 0-1.4.1-.7.1-1.1.5-1.7.5-.6.1-1.3.5-1.7.5-.4 0-1.3.4-1.5.5-.2.1-.5.4-.7.4-.3 0-.7.3-.8.3-.2-.1-.8.4-.8.4s-.3.1-.7.2c-.4.1-1 .3-1 .3s-.4.3-.8.3c-.4.1-.5.2-.9.3-.3.1-.4.2-.6.2-.2.1-.6.2-.8.3-.2.1-.4.2-.6.2-.2 0-.7.1-.8.2-.1.1-.6.4-.8.4-.3 0-.6.2-1.2.3-.5.1-.4.2-.7.3-.3.1-.5.5-1.1.6-.6.1-.9.4-1.2.4-.3.1-.7.7-.9.7-.2 0-.7.4-.9.5-.5-.1-.5.3-.5.3z"/><path fill="#F7C076" d="M60 36.6l-.2-1.6.9.6 1 1 .7 1.3-.6.3-1.9-.5-1.8.3-1.6.3s-1.1 1.9-1.7 1.8c-.6-.1-1.5.2-1.7.4-.2.2-1.2.9-1.7.7-.5-.2-2.3 0-2.3 0l-.7.8-1 .7-1.7.1-1.2.1-1.7.1-1.4.3s-1.2 1.4-1.8.9l-.6-.6 1.5-1.8 1.6-.4h1.3l1.6-1 2.5-.3s1.1-1.1 1.6-1c.6.1 2.1.1 2.1.1l.8-1.1 2.2-.7 2.4-.3s1.3 0 2-.2c.6-.1 1.4-.3 1.4-.3z" opacity=".25"/><path fill="none" stroke="#E48125" stroke-width=".557" d="M39.5 42.4s.1.5.3.9c.2.4.5.7.5.7m.9.1s-.3-.4-.6-.7c-.2-.3-.5-1.1-.5-1.1m.7-.5s.4 1.3.7 1.5c.3.2.8.7.8.7m0-3s.1.6.5 1.3c.4.7.7 1.2.7 1.2m.7-3s.1.5.3.9c.2.3.4.9.4.9m1.3-.6s-.3-.6-.4-1c-.1-.4-.6-.9-.6-.9m2.1 1.6c-.1-.1-.2-.1-.4-.7s-.6-1-.6-1m1-.3s.4.2.5.8c.2.6.4.8.5.9m-.2-2s.1.1.3.7c.2.6.4 1.1.6 1.2.2.2.6 1 .6 1m3-.9c-.1-.2-.2-.6-.3-.9-.1-.3-.3-.5-.5-1-.1-.5-.9-1.4-.9-1.4m.9-.5s.6.8.9 1.5c.2.7.5 1 .6 1.2m.3-.6s-.2-.2-.4-.7c-.2-.4-.4-.7-.4-.7m3 .1l-.5-1c-.2-.4-.4-.7-.4-.7m1.2-.4s.6.4.9 1.1c.3.8.3.8.5 1.2.2.3.6 1 .6 1.3s.2.9.2.9m2.3-1.8s-.3-.7-.5-1.2-.5-.7-.7-1.4c-.2-.7-.7-.8-.7-.8m-.9.7c-.2-.5-.3-.4-.3-.4m-1.9 4.9s0-.2-.3-.8c-.3-.6-.4-.5-.6-1.2-.3-.7-.3-.8-.5-1l-.7-.7"/><path fill="none" stroke="#CC7128" stroke-width=".557" d="M39.6 42.4s.1.5.3.9c.2.4.5.7.5.7m.8 0s-.3-.4-.6-.7c-.2-.3-.5-1.1-.5-1.1m.8-.5s.4 1.3.7 1.5c.3.2.8.7.8.7m0-3s.1.6.5 1.3c.4.7.7 1.2.7 1.2m.7-3s.1.5.3.9c.2.3.4.9.4.9m1.2-.5s-.3-.6-.4-1c-.1-.4-.6-.9-.6-.9m2.1 1.5c-.1-.1-.2-.1-.4-.7s-.6-1-.6-1m1.1-.3s.4.2.5.8c.2.6.4.8.5.9m-.2-2s.1.1.3.7c.2.6.4 1.1.6 1.2.2.2.6 1 .6 1m2.9-.9c-.1-.2-.2-.6-.3-.9-.1-.3-.3-.5-.5-1-.1-.5-.9-1.4-.9-1.4m1-.5s.6.8.8 1.5c.2.7.5 1 .6 1.2m.4-.6s-.2-.2-.4-.6c-.2-.5-.4-.8-.4-.8m2.9.1l-.5-1c-.2-.4-.4-.7-.4-.7m1.2-.4s.6.4.9 1.1c.3.8.3.8.5 1.2.2.3.6 1 .6 1.3 0 .2.2.9.2.9m2.4-1.8s-.2-.7-.5-1.2c-.2-.5-.5-.7-.7-1.4-.2-.7-.7-.8-.7-.8m-1 .8c-.2-.5-.3-.4-.3-.4m-1.9 4.8s0-.2-.3-.8c-.3-.6-.4-.5-.7-1.2-.2-.7-.3-.8-.5-1l-.7-.7"/><path fill="#F37A25" d="M75.1 57.4s.3-.5.1-1.1c-.2-.5-.4-.9-.4-.9s.1-.4-.1-.5c-.1-.1-.4-.5-.4-.5l-.2-.2s-.2-.8-.4-.8-.4-.2-.4-.2-.3-.7-.4-.7c-.1-.1-.3-.5-.3-.5s-.3-.6-.4-.5c-.2 0-.2-.3-.2-.3s-.4-.3-.5-.5c-.1-.1-.4-.7-.4-.7l-.4-.4-.2-.3s-.3-.5-.4-.5c-.1 0-.5-.6-.5-.6l-.3-.4-.2-.4-.3-.4s-.1-.5-.4-.7c-.3-.2-.6-.3-.7-.5-.1-.2-.3-.5-.3-.5l-.4-.5-.3-.3s-.2 0-.5-.6-.7-.9-.8-1c-.1-.2-.2-.6-.4-.8-.1-.1-.4-.5-.6-.6-.2 0-.5-.4-.5-.4l-.3-.5-.6-.6s-.3-.1-.4-.4c-.1-.3-.6-.6-.6-.6s-1.2-.9-1.5-1c-.2-.1-1 0-1.1 0-.1 0-.7 0-.8.2-.1.2-.7 1-.8 1.2-.1.2-.3.5-.4.9-.1.4-.3 1.1-.1 1.5.1.5.3.7.7 1.2.4.5.9.8 1.2 1.3.3.5 1 .9 1.3 1.3.2.4 1 .9 1.1 1.1.1.1.6.2.7.5.1.3.6.4.6.6 0 .2.7.6.7.6s.3.3.5.6.7.7.7.7.4.2.7.5c.2.3.5.4.7.6.3.3.4.3.5.4.1.1.5.4.6.6.1.1.4.3.4.5.1.2.4.5.6.6.1.1.6.3.7.6.1.3.5.4.8.9.3.4.4.3.6.5.2.2.7.2 1 .7.3.5.7.6.9.9.2.2.9.3 1 .5.1.1.7.5.9.6.5 0 .9-.2.9-.2z"/><path fill="#F7C076" d="M58.7 41l-1.3.9.1-1.1.4-1.4.8-1.2.6.4.5 1.9 1 1.5 1 1.3s2.2.1 2.3.7c.1.6.9 1.3 1.1 1.4.3.1 1.4.7 1.4 1.2.1.5 1 2.1 1 2.1l1 .2 1.1.6.9 1.4.7 1 1 1.3.9 1.1s1.8.4 1.6 1.2l-.2.8-2.2-.5-1.1-1.2-.6-1.1-1.6-1-1.4-2s-1.5-.4-1.6-1c-.1-.6-.9-1.9-.9-1.9l-1.3-.2-1.6-1.6-1.4-2s-.6-1.1-1.1-1.7c-.7-.6-1.1-1.1-1.1-1.1z" opacity=".25"/><path fill="none" stroke="#E48125" stroke-width=".557" d="M73.3 56.4s.4-.3.6-.7c.3-.4.4-.8.4-.8m-.3-.7s-.2.5-.3.8c-.1.3-.8.9-.8.9m-.8-.3s.9-.9 1-1.3c.1-.3.3-1 .3-1m-2.7 1.3s.5-.4.9-1 .7-1.2.7-1.2m-3 .8s.4-.3.6-.6c.2-.4.6-.8.6-.8m-1-1s-.4.5-.7.8c-.3.3-.6.9-.6.9m.6-2.5c-.1.2 0 .2-.5.7-.4.5-.5 1-.5 1m-.9-.8s0-.4.5-.9c.4-.4.5-.7.6-.9m-1.7 1.2s0-.2.5-.6c.4-.4.8-.8.8-1.1.1-.2.6-1 .6-1m-2.1-2.1c-.1.2-.5.5-.6.7-.2.2-.3.5-.7.9-.4.4-.8 1.5-.8 1.5m-1-.7s.4-.9.9-1.5c.5-.5.7-.9.8-1.1m-.7 0s-.1.2-.4.6c-.3.4-.5.7-.5.7M61.9 44c-.2.3-.4.5-.7.9-.3.4-.4.6-.4.6m-.9-.8s.1-.7.6-1.3c.5-.6.6-.7.8-1 .2-.3.6-1 .8-1.1.2-.1.7-.6.7-.6m-2.7-1.2s-.5.6-.8 1c-.3.4-.4.8-1 1.2-.6.5-.4 1-.4 1m1.2.5c-.3.4-.2.4-.2.4m5.2-.5s-.1.1-.6.7c-.4.5-.3.6-.8 1.1-.5.6-.6.7-.6.9-.1.2-.3.9-.3.9"/><path fill="none" stroke="#CC7128" stroke-width=".557" d="M73.2 56.4s.4-.3.7-.7c.3-.4.4-.8.4-.8m-.5-.7s-.2.5-.3.8c-.1.3-.8.9-.8.9m-.7-.3s.9-.9 1-1.3c.1-.3.3-1 .3-1m-2.7 1.3s.5-.4.9-1 .7-1.2.7-1.2m-3 .8s.4-.3.6-.6c.2-.4.6-.8.6-.8m-1-1s-.4.5-.7.8c-.3.3-.6.9-.6.9m.6-2.5c-.1.2 0 .2-.5.7-.4.5-.5 1-.5 1m-.9-.8s0-.4.5-.9c.4-.4.5-.7.6-.9m-1.7 1.3s0-.2.5-.6c.4-.4.8-.8.8-1.1.1-.2.6-1 .6-1M66 45.5c-.1.2-.5.5-.6.7-.2.2-.3.5-.7.9-.4.4-.8 1.5-.8 1.5m-1-.7s.4-.9.9-1.5c.5-.5.7-.9.8-1.1m-.7.1s-.1.2-.4.6c-.3.4-.5.7-.5.7M61.8 44c-.2.3-.4.5-.7.9-.3.4-.4.6-.4.6m-.9-.8s.1-.7.6-1.3c.5-.6.6-.7.8-1 .2-.3.6-1 .8-1.1.2-.1.7-.6.7-.6M60 39.5s-.5.6-.8 1c-.3.4-.4.8-1 1.2-.6.5-.4 1-.4 1m1.2.5c-.3.4-.2.4-.2.4m5.2-.5s-.1.1-.6.7c-.4.5-.3.6-.8 1.1-.6.6-.6.7-.6.9-.1.2-.3.9-.3.9"/><path fill="#05773D" d="M73.9 15.1s-3.7-3.9-5.1-4.4c-1.4-.4-6.7-1.2-9.7 2.2-2.9 3.4-3.8 5.7-3.6 7.5.2 1.8 1.5 4.3 2.2 5.2.7.8 3.3 3.3 6.2 2.7 3-.6 5.2-1.2 7.2-3.7 2-2.4 3.3-4.7 2.9-7.2-.2-2-.1-2.3-.1-2.3z"/><path fill="#D3DF9B" d="M67.4 11.9s-3.8.4-6.1 2.6-3.2 3-3.8 4.5c-.6 1.5-.7 3-.5 3.7.2.6 1.9 3.1 3.6 3.8 1.6.7 5.2 1 6.4.3 1.2-.7 5.3-3.7 5.7-5.8.4-2.1 1.1-5.2.2-6.1-.9-.9-1.9-2.4-3.3-2.8-1.5-.3-2.2-.2-2.2-.2z"/><path fill="#DEEAB6" d="M62.4 26.5c.1-.9.4-3.2-1.2-2.9-.7.1-1.1.6-1.8.4-.6-.1-1.2-.6-1.4-1.2-.1-.4-.1-1.3-.1-1.8 0-.6.3-1.3.6-1.9.3-.5.6-1 .8-1.5.4-.7.7-.9 1.4-1.4.6-.4 1.4-.4 2-.9.6-.5 1-1 1.4-1.5.4-.5 1.1-.8 1.7-1 .7-.2 1.5-.6 2.1-.6 1.3 0 2.2 1.4 2.9 2.2.5.6.7 1 .9 1.8.1.3.2.7.1 1-.1.5-.3.5-.5.8-.4.9-.6 2.2-.6 3.1 0 1.5-.7 1.9-1.7 2.8-1 .9-2.1 1.5-3.4 1.8-.5.1-1.1.2-1.6.3-.5.2-1.1.8-1.6.5"/><path fill="#D3DF9B" d="M62.6 22.4c.8.8 1.6 2.6 2.8 1 .6 1.3 1.3.2 2-.3 1.4-1.1 1.3-.8 1.2-2.6-.1-2.4.9-3.5-2-3.8-1.1-.1-1.5-.5-2.6.8-.7.8-.9 1.7-1.2 2.7-.5 1.4-.9 1.5.1 2.7.4.5 1.8 1.2 2.5 1.1"/><path fill="#F0F2C5" stroke="#B6AF7E" d="M68.3 20c-.9-.4-3.5.7-1.9 1.2.6.2 1.5-.1 2-.4.8-.5.1-.9-.6-1m-3.3 3.1c.3-.4 1.4-2.7.4-2.6-.5.1-.8.8-1 1.2-.1.4-.2 1.6.5.9m.3-5.9c.8-.1 2 1.9 1 2.1-1.1.2-1.7-1.4-1.4-2.2m-1 3.8c.5.3.2 2-.6 1.7-1.2-.5.4-2.2.7-1.3m1.8-1.1c-.2-.5-1.3-.5-1.2.1.2.8 1.6.2.9-.3m1.3-.5c.5-.3 2.7-1 2.3.3-.2.6-.8.5-1.3.4-.6 0-.8-.2-1-.7m-.6 3.6c.5 0 3.1-2.1 3-.3-.1 1.2-2.4 1.4-3.4 1.5-.1-.1-.1-.2-.1-.4" opacity=".55"/><path fill="#DCDF8B" d="M63 16.8c-.2-.3-.6-.4-.9-.4 0-.6.9-.5 1.2-.7.4-.3.4-1 1.1-.9.8.2.2.7 0 1-.2.3-.5 1.1-.9 1.2m5.4.5c.3.1.7.4.7.8-.1 0-.2.2-.3.3.1.3.5.4.5.6.1.3-.3.6-.3.8.3.9 1-.5 1.1-.8.2-.5.8-1.2.3-1.6-.4-.3-1.3-.3-1.7-.1m-6.1 5.4c.3.6.2 1.5.1 2.2-1.3.3-2.3-.5-2.3-1.8.5-.5.8-.2 1.4-.1" opacity=".45"/><path fill="#F0F2C5" d="M68.3 20.2c-.9-.4-3.5.7-1.9 1.2.6.2 1.5-.1 2-.4.8-.5.1-.9-.6-1m-3.3 3.1c.3-.4 1.4-2.7.4-2.6-.5.1-.8.8-1 1.2-.1.4-.2 1.6.5.9m.2-5.9c.8-.1 2 1.8 1 2.1-1.1.2-1.7-1.4-1.4-2.2m-.9 3.9c.5.3.2 2-.6 1.7-1.2-.5.4-2.2.7-1.3m1.8-1.2c-.2-.5-1.3-.5-1.1.2.2.8 1.6.1.9-.3m1.2-.6c.5-.3 2.7-1 2.3.3-.2.6-.8.5-1.3.4-.6 0-.9-.2-1-.7m-.6 3.6c.5 0 3.1-2.1 3-.3-.1 1.2-2.4 1.4-3.4 1.5-.1-.1-.1-.2-.1-.4" opacity=".91"/><path fill="#A21E36" d="M65.7 42.2s-.3.5-1.3.3c-1-.1-1.3-.2-2-.2-.6 0-.8-.1-1.1-.1-.3 0-.3-.1-1.1-.1-.4 0-2.2-1-2.7-1.3-.6-.3-.9-.9-.8-1.5 0-.7-.1-1.3.7-1.9.8-.6 2.3-1.3 3.4-1.3s2.2-.3 3.2.2 2 1.3 2.3 1.8c.3.5.4 1.4.4 1.7 0 .3-.2 1.2-.3 1.3-.1.1-.5.8-.5.8l-.2.3z"/><path fill="#FFF" d="M61.6 40.4c.6-.4-.9-.8-1.2-1-.4-.2-1.2-.9-1.7-.6-.6.4.8 1.2 1.1 1.4.7.4 1.1.1 1.8.1 0-.1 0-.1-.1-.2m3.5.3c-.4.4-1.1 0-1.5-.1-.4.5.7.6 1 .6.7 0 .8-.7.1-.5" opacity=".82"/><path d="M65.8 38.2c.1.4.4.7.4 1.2 0 .4-.1.9-.3 1.3-.2.4-.5.8-.9 1-.5.3-.8 0-1.3-.2-.4-.1-.8-.1-1.2-.2-.5-.1-.9-.3-1.4-.3-.8-.1-1.8.3-2.5-.1-.8-.4-1.4-1.2-1.4-2.2 0-.3 0-1.2-.4-.5-.1.2-.1 1.1-.1 1.3.2.9 1.5 1.6 2.2 2 .9.5 1.6.6 2.6.7 1.1.1 1.7.3 2.6.4 1 .1 1.4 0 2-.9.4-.7.7-2.2.5-2.9-.3-1-1.3-1.5-2-2.1-.8-.6-1.5-.7-2.5-.7-.9 0-1.6-.1-2.5.2-.4.1-.8.3-1.2.5-.4.2-1.1.9-.2.7 1-.2 1.5-1.1 2.6-1.1 1.8-.1 3.9.3 5 1.9" opacity=".17"/><path fill="#F37A25" d="M34.6 3s-.5.3-.6.9c-.1.6-.1.9-.1.9s-.3.3-.2.5c0 .2.1.7.1.7v.3s-.2.8-.1.9c.1.1.2.4.2.4s-.1.7 0 .9c.1.1 0 .5 0 .5s-.1.5.1.6c.2.1 0 .4 0 .4s.2.5.2.7v.8l.1.6v.3s0 .6.1.6c.1.1.1.8.1.8v.5l-.1.4.1.6s-.2.5 0 .8c.1.3.4.6.3.8-.1.2 0 .6 0 .6l.2.5.1.4s.1.1.1.8c-.1.7.1 1.1.1 1.3 0 .2-.1.7-.1.9.1.2.1.7.2.8.1.1.2.6.2.6v.5l.2.8s.2.3.1.6.2.9.2.9.6 1.4.7 1.6c.1.2.8.5.9.5.1.1.6.3.8.2.2-.1 1.1-.5 1.3-.6.2-.1.5-.3.8-.6.3-.3.8-.8.9-1.2.1-.5.1-.8 0-1.4-.1-.7-.4-1.1-.4-1.7 0-.6-.4-1.3-.4-1.7 0-.4-.3-1.3-.4-1.5-.1-.2-.4-.5-.3-.8 0-.3-.3-.7-.2-.9.1-.2-.3-.9-.3-.9s-.1-.3-.1-.7c0-.4-.3-1-.3-1s-.3-.4-.3-.8-.2-.5-.3-.9c-.1-.3-.1-.4-.2-.6-.1-.2-.2-.6-.2-.8-.1-.2-.1-.4-.1-.6 0-.2-.1-.7-.2-.8-.1-.1-.4-.6-.3-.9 0-.3-.2-.6-.3-1.2-.1-.5-.1-.4-.2-.8-.1-.3-.5-.5-.5-1.1 0-.6-.3-.9-.4-1.2 0-.3-.6-.8-.7-.9 0-.2-.3-.7-.5-1 .1-.3-.3-.3-.3-.3z"/><path fill="#F7C076" d="M40.2 25.6l1.6-.1-.6.9-1.1 1-1.3.6-.3-.7.6-1.8-.1-1.9-.2-1.6s-1.8-1.2-1.6-1.8c.2-.6-.1-1.5-.3-1.8-.2-.2-.8-1.3-.6-1.8.2-.5.2-2.3.2-2.3l-.7-.7-.7-1.1v-1.7L35 9.7l-.2-1.6-.2-1.4s-1.4-1.3-.8-1.9l.6-.6 1.7 1.6.3 1.6-.1 1.3.9 1.7.2 2.5s1.1 1.1.9 1.7c-.2.6-.2 2.1-.2 2.1l1 .8.6 2.2.1 2.5s-.1 1.3.1 2c.2.6.3 1.4.3 1.4z" opacity=".25"/><path fill="none" stroke="#E48125" stroke-width=".557" d="M35.6 4.8s-.5.1-.9.3c-.4.2-.7.5-.7.5m-.1.8s.4-.3.7-.5c.3-.2 1.1-.4 1.1-.4m.5.7s-1.3.3-1.5.6c-.3.2-.8.7-.8.7m3 .2s-.6 0-1.3.4c-.7.3-1.2.6-1.2.6m2.9.9s-.5 0-.9.2c-.3.2-.9.3-.9.3m.4 1.4s.6-.2 1-.4c.4-.1 1-.5 1-.5m-1.7 2c.1-.1.2-.2.8-.4.6-.2 1-.6 1-.6m.2 1.2s-.3.3-.8.5c-.6.1-.8.4-1 .4m2-.1s-.1.1-.7.3c-.6.1-1.1.3-1.3.5-.2.2-1 .6-1 .6m.7 2.9c.2-.1.6-.2.9-.3.3-.1.5-.3 1-.4.5-.1 1.4-.8 1.4-.8m.6 1s-.9.6-1.6.8c-.7.2-1 .4-1.2.5m.6.4s.2-.2.7-.3c.5-.2.8-.4.8-.4m-.3 2.9c.4-.2.6-.2 1-.4s.7-.3.7-.3m.4 1.2s-.4.5-1.2.8c-.8.3-.8.3-1.2.4-.4.2-1.1.5-1.3.5-.2 0-.9.1-.9.1m1.6 2.5s.8-.2 1.2-.4c.5-.2.7-.5 1.5-.6.7-.1.8-.6.8-.6m-.7-1.1c.5-.2.4-.2.4-.2M36.6 21s.2 0 .9-.3c.7-.2.5-.4 1.3-.6.8-.2.8-.3 1-.5.2-.2.8-.6.8-.6"/><path fill="none" stroke="#CC7128" stroke-width=".557" d="M35.7 4.9s-.5.1-.9.3c-.4.2-.7.5-.7.5m-.1.7s.4-.3.7-.5c.3-.2 1.1-.4 1.1-.4m.5.7s-1.3.3-1.5.6c-.3.2-.8.7-.8.7m3 .2s-.6.1-1.3.4c-.7.3-1.2.6-1.2.6m2.9 1s-.5 0-.9.2c-.3.2-.9.3-.9.3m.4 1.4s.6-.2 1-.4c.4-.1 1-.5 1-.5m-1.7 2c.1-.1.2-.2.8-.4.6-.2 1-.6 1-.6m.2 1.2s-.3.3-.8.5c-.6.1-.8.4-1 .4m2-.1s-.1.1-.7.3c-.6.1-1.1.3-1.3.5-.2.2-1 .5-1 .5m.7 3c.2-.1.6-.2.9-.3.3-.1.5-.3 1-.4.5-.1 1.4-.8 1.4-.8m.6 1s-.9.6-1.6.8c-.7.2-1 .4-1.2.5m.6.3s.2-.2.7-.3c.5-.2.8-.4.8-.4m-.3 3c.4-.1.6-.2 1-.4.4-.1.7-.3.7-.3m.4 1.1s-.4.5-1.2.8c-.8.3-.9.3-1.2.4-.4.2-1.1.5-1.3.5-.2 0-.9.1-.9.1m1.6 2.6s.8-.2 1.2-.4c.5-.2.7-.5 1.5-.6.7-.1.8-.6.8-.6m-.7-1.1c.5-.2.4-.2.4-.2M36.7 21s.2 0 .8-.3c.7-.2.5-.4 1.3-.6.8-.2.8-.3 1-.5.2-.2.8-.6.8-.6"/><path fill="#DFD4D8" d="M47.2 28.6s-.2.4 0 1.5.6 2.2.6 2.7l.4 2-.2.8h.8c.4 0 .9.2 1.2 0 .2-.2 1-.3 1.2-.3.2.1.7.1.7.1l-.2-1.1v-2.6c0-.3.3-1.2.3-1.2s.1-.4.2-.7c.2-.7-.4-1.2-1.1-1.7-.3-.2-.3-.6-.4-.8-.1-.1 0-.2-.4-.2-.5 0-.8-.5-.8-.5h-.6s.2-.3 0-.2c-.2.1-.5.3-.5.3l-.4.5-.3-.2v.8l-.3.6-.2.2z"/><path fill="#D1C5CB" d="M53 29.2s.1.1.8-.2c.7-.3 1.3-1 1.3-1.2 0-.2.2-1.6 0-2.6-.1-.5-1.3-1.4-1.3-1.4l-1.2-.8-2.4-.6s-.7-.3-2-.1c-1.3.2-2.6.4-3.4 1.6-.8 1.2-1 2.4-.8 2.8.2.4 1.2.8 1.5 1 .3.1.6.1.6.1l.1.6s.2.2.3.2c.1 0 .6.1.6.1s.6-.6.6-.8v-.6h.3l.4-.4.5-.3.6.2s.1.2.3.3c.2.1.8.2.8.2l.5 1s.3.1.5.3c.2.2.6.8.6.8v1s.4-.3.6-.3c.2 0 .1-.4.1-.4l.1-.5z"/><path fill="#937F86" d="M48.7 24.7c.1-.2.4-.4.3-.6-.3 0-.6.4-.7.6.2.1.4 0 .6 0m-2.2.5c-.1 0-.4-.2-.5-.1-.2.1-.2.4-.4.5.1-.1.3-.2.4-.2.2-.1.4.3.5-.2"/><path fill="#6C575A" d="M46.2 27.8c-.1-.5.5-.8.9-1 .4-.1.8-.4 1.2-.5.4-.1.9-.1 1.2.1.4.2.6.6 1.1.7-.3-.2-.5-.4-.8-.6.3-.3.9 0 1.2.2.4.3.6.5 1.1.4.1-.5-3.2-1.4-3.8-1.4-.7 0-1.3.1-1.9.3-.4.1-.7.2-.9.7-.1.3.1.7 0 1 .6.4.5-.3 1-.5"/><path fill="#A28F8A" d="M51.6 28.1c.3.1.7-.1 1 .1.3.2.3.8.2 1.1-.2 0-1.2-.9-1.3-1 .3-.3.6-.1.9.1"/><path fill="#937F86" d="M53.9 26c-.4-.5-.3-.8-.3-1.3 0-.4-.1-.7-.1-1 .3-.1.8.4 1.1.7.4.3.5.8.6 1.3 0 .4.1.9.1 1.3 0 .9-.4.2-.7-.1.7-.1.2-.5-.1-.7-.3-.3-.5-.5-1-.3"/><path fill="#978484" d="M51.9 27.5c.2-.1.9.2 1.1.4.2.3-.1.9.1 1.2.3 0 .9-.2 1-.5.2-.4-.2-.9-.5-1.1-.3-.3-1.9-.6-2-.3"/><path fill="#CAB6B2" d="M47.3 27.6c0 .3-.1.7-.5.5 0 .1-.1.1 0 .2.3-.1.4.1.6-.1.2-.2.3-.6.2-.8 0 .1-.1.1-.1.2"/><path fill="#937F86" d="M52.8 24.8c-.1.2-.3.4-.6.3.1-.8-1.2-.7-1.2 0 .4-.2 1-.5 1 .3.3.1.5-.1.7-.1"/><path fill="#B7A098" d="M48.7 28.8c-.2.8-.4 1.2-.1 1.9.1.2.2.8.3.9.3.4.6.1.6-.4.1-.3-.3-1.9.5-1.6.1.4-.2.8-.2 1.2.1.5.5.4.7.9.2.5.4.9.6 1.3.2.3.2.2.2.6 0 .2-.1.5 0 .6.3-.5.1-1.3.1-1.8.1-.6.3-1.3.3-1.9-.8.2-.8-.3-.8-.9 0-.2.1-.7 0-.8-.2-.3-.6-.2-.6.2-.1-.2-.1-.5-.1-.8s.2-.6.1-.8c0-.3-.3-.2-.6-.3-.2-.1-.8-.7-1-.4-.1.1.1.7.1.9.1.3 0 .8-.1 1.2z"/><path fill="#8F7A68" d="M48.1 35.5c.1.2.7.4 1 .4.4.1.7-.1 1.1-.2.4-.1.6-.1 1 0 .3 0 .8.1.8-.4-.2-.1-.7 0-1-.1-.4 0-.6.2-1 .3-.7.2-1.3-.2-2 0 0 .2.1.2.3.2"/><path fill="#91808B" d="M48.5 26.8c0 .4-.1.6-.3.9-.1.1-.2 0-.3.2-.1.1 0 .3-.1.5-.1 0-.2 0-.3-.1-.1.2-.2.3-.4.2.1.5.6.9.5 1.4.7-.1.4.7.4 1 0 .5.2.9.1 1.4 0 .5 0 .9.1 1.3 0 .3.1 1.2-.1 1.3-.1-.3 0-.6-.1-1s-.3-.7-.3-1.1c0-.3.1-.7 0-1-.1-.4-.4-.6-.5-1-.1-.7-.2-1.4-.3-2-.1-.6.2-.5.5-.9.2-.3 0-.7.2-1 .6.3.5-.2.9-.1"/><path fill="#C0ADAF" d="M49 24.4c.1.3.3.1.6.1.5 0 .2-.1.6.3.2.2.3.3.6.5.1 0 .2 0 .3.1.1.1.2.3.3.4.3.2 1 .2 1.3.3.4.1 1-.1 1.4 0 .2.1.5.3.4.5-.1.2-.5.1-.7.1-.5 0-.9-.2-1.4-.2-.6 0-.8.4-1.4-.1-.5-.4-.8-.6-1.4-.6.3-.6-.3-.5-.6-.6 0 .3-.1.3-.3.4-.2.1-.5 0-.5-.2s.4-.2.5-.3c.2-.2.1-.4.4-.5"/><path fill="#856C6B" d="M53.2 27.4c.2-.5-.8-1.1-1.1-.7-.4.5 1.1.4 1.2.5"/><path fill="#D4C5C8" d="M49.1 25.8c-.2-.1-.1.1-.4.1-.1 0-.5-.1-.5-.1-.2.1-.4.8-.8.3.2-.2.5-.4.8-.4.3 0 .5.3.9.1"/><path fill="#937F86" d="M45.2 25.6c0 .3-.6.5-.2.7.2-.1.2-.4.2-.7m4.8-2.8c.2.1.3.3.5.4.2.1.4 0 .5.3-.3.1-1.1-.5-1-.7m-1.1-.2c-.1 0-.2.1-.2.2.2 0 .5 0 .6-.2h-.4m-1.1-.1c-.1.4.4.4.3 0h-.3m4.4 1.7h-.1c.2.1.3.1.4-.1-.1-.1-.2-.1-.4-.1m-1.8 1.3c0 .1-.1.1-.1.1-.1-.2 0-.9.2-1 .2.3.2 1-.2 1.1"/><path fill="#97CA50" d="M56.5 39.3l.9-.2h1.2l.7-.2.5-.6-1.2-.5h-.9l.6-.7 1.1-.8v-.6l-.5-.5-.4.3-.3-.6.2-1 .9-1.5-.7-1.4s-.5-.9-.6.2c-.2 1-.4 3.3-.4 3.3s0 1.2-.5 1.7c-.4.5-1.8 1.1-1.8 1.1l.1.7-1.2 1.6s-1 1-.4 1.2c.6.2 1.3 0 1.3 0l.5-.2h.6l.5-.2.4-.3-.6-.8z"/><path fill="#27743A" d="M30.4 50.3s2.5.2 3 .4c.6.2 2.4-.2 2.4-.2s1.3-.1 1.8.1c.5.3.8 1.4.8 1.4l.8 1.4.1-.7s.4 1.1.6.6c.2-.4-1.3-1.6-1-1.9.3-.2 1-.6 1.2-.2.2.3.7-.1.7-.1l-3.4-1.4c.6-.6 1.2-1 1.2-1l.7-.3-.1-.5s-1.1-.1-1.5.2c-.4.3-1.2.3-1.6.5-.4.3-1.2.7-1.2.7l-.9.1 1.5-.9.2-1.5-.7-.3.1-1.1c-.2-.6-1.2-.2-1.2-.2s.2 1.1-.1 1.9c-.3.8-1.3 2.5-1.3 2.5l-2.1.5z"/><path fill="#2D803E" d="M33.4 29.3s1 1.1.9 1.7c-.1.5-.5.8-.5.8l-1.1-.3.2.7-1.6 1.4.2.5s2-.4 2.3-.1c.3.2.7.4 1.1.9.4.5.7 1.2.7 1.2l.5-.4-.5-1.1-.3-1.7-.1-1.9s-.1-1.2-.6-1.4c-.5-.3-1.2-.3-1.2-.3z"/><path fill="#76A541" d="M34.5 42s1.1-.6 1-1c-.1-.4 1.3.1 1.3.1l.9-.2 2.2-.2.1-.7-.7-.1-1.6-.1-1.5.3-.5.1v-.8l1.5-.3.8-.2.8.3 1.3.1-.2-.7s1.3.3 1.7.2c.4-.1.6-.6.9-.8.3-.2.7.1.7.1l.8-.4-1.8-.8s-1.7-.5-2.2-.4c-.4 0-.9-.2-.9-.2l.3-.8 1.1.1 1.3.1 1.5-.7 1 .1s1 .2.9-.2c-.1-.4-1.3-.7-1.3-.7h-1.2l1.3-.6s.6.2.9 0c.3-.2.6-.9.6-.9l-1.8.4 1.4-1 .1-.7-1 .1-.2.4-.2.5-.8-.4.8-1.4-.4-.3-.4.6-.4.5-1 .6-1.4 1.3-1.4.7.7-1.9.9-1.1.4-.3.2-.7-1.1.6s-.2-.6-.5-.3c-.3.4-1.5 2.2-1.5 2.2s-.1.9-.4 1.1c-.3.2-.3.8-.5 1.2-.2.3-1.3 1.2-1.3 1.2l-.9.9c-.8.9-1.4 1.9-1.4 1.9s-.4.7-.5 1.3c-.1.5-.1 1.3-.1 1.3l.6.6s.4-.1.5.3c.1.4.2.9.2.9l.3 1 .6-.6-.5-1.6z"/><path fill="#6CB445" d="M35.4 22.4s.9.4 1 .8c.1.4.9 1.8.9 1.8l.5-1s1 1.8.9 2.3c-.1.5.5 1.8.5 1.8v1.5l.2.8-.5.5-.7-1.5-.1-1-.9-.2-1.2-1.5-1.1-1.2 1.6 1-.7-1.5-.9-1.3.7.1v-.9l-.2-.5z"/><path fill="#5CA144" d="M38.8 23.2v-.6s.5-.6 0-.8c-.4-.2-.3-1.3-.3-1.3l.8.7.4-1.2s.9-.3.8.2c-.1.5 0 1.7 0 1.7l.6.8.3-2.1h.8s.1.8-.2 1.5c-.3.7-.9 1.7-.9 1.7l.3 1.3-.3.8 1.1-1 .5-.5.9-.7.5-.1v.6s-.4 0-.8.2c-.3.2-.5 1-.5 1l.3-.1.4-.1-.9.8-.4.3.6.5.5.4.9-.2s-.1-.4.2-.6c.3-.2.9-.7.9-.7l1.1-.8h.8l-.3.7.5.3c-.4.6-1.2.7-1.2.7l.5.9h1.1s.1.5-.1 1c-.2.4.2.9.2.9l1.1-.6-.8 1.2-.4.3-.2 1.2-.2.5.1.8-.6.2-.4-.3-.3-.7s.3-.2-.4-.6l-.7-.4.1-.9s.4.2.4-.3c0-.4.4-.9.4-.9l.3-.4-.3-.9-.3-.4-.7.4V29l-.4.3-.4-.3-.3-.6-.3-.4-.5-.3-1 .1-.8-.2-.7.3.4.8-.4.6.4.7-1.1.6-.2-.8.5-1.7-.3-1.5-.4-1.8-.8-1.1.1-.5z"/><path fill="#F2F7EB" d="M42.3 29.5l-.1-1-.8-.9 1.8.1c-.4.7-.2 1.2-.2 1.2l-.7.6z"/><path fill="#78BC43" d="M42 31.4L41 30l.5-.2.9-.3.4 1 .8-.1.1-.9.4.6 1 1-.3 2.2s-.1-.1.2.7l.2.7.2 1.5.7-.7-.1-.8-.2-.7.3-.7.1-1.3 1.2-.1.6.4.5.3.5-.1s-.1.5-.6.9-1 1.3-1 1.3l-.9 1.3v.9l-1.5-.3-.6-.2-.3-.9.2-.8-.6-.4-1.1-.6-.1-.7-.1-.5.1-1.1"/><path fill="#7FB443" d="M51.4 34.6l.4-1.4-.3-1.1-.1-1.4.9-.8.3 1v.8l.4 1-.1 1 .5-.2s.6-.3.8-.6c.2-.3.9-.7.9-.7h.9l.5-.2.1-.9.2-1.4-.2-.9-.4-.8.3-.7.5-.8s0-.6.3-.8c.3-.2 1-.9 1-.9l.4-.3.4-.5.2.8-.6.7s-.3.7-.5 1.3c-.2.6-.6 1.3-.6 1.3l-.1 1.4.3 1.3 1.3-1.4s.5-.4.7-.8c.2-.4.1-1.4.1-1.4v-2l.4-.3.9 1.7.1.8.6-.3.5-1 .5-.8.6-1.1 1.5-.5-.4.7-.5 1.7 1.5-.6.8-.8.9-.2-.5 1 1 .5.3-.7.3-.4 1.2-.7.3.4-.1 1.4-2.1.7-1.9.6-1 .6-.9.7-1.9.2-1 .3-.6.7s-.3.7-.8.9c-.5.2-1.5.7-1.5.7l-.7.5c-.7.5-1.3.8-1.8 1-.5.2-1.7.9-1.7.9s-.3.7-1 .9c-.6.2-1.5-.1-1.5-.1z"/><path fill="#3E863F" d="M46.1 37.8l1.1-.8.5-1 .5-.6.6-1.5-.4-.5v-1.3l.2-.9.5.5.3-1.5v-.1l-.3-1.1.6-1.2s.7 1.4.3 1.5c-.3-.1 0 1.7 0 1.7 0 .4-.3 1.7-.3 1.7s.5.7.2 1.1c-.3.4-1.1 2.5-1.1 2.5v1.2l-1.1.8-.5 1.2.6 1L48 42l.2 1.1-.3 1.3-.9-.2-.4-.8-1.8.4h-.6l-.5.1-1.1.3s-.8-.2-1.1-.1l-.4.1-3-.2-1-.1-1.1.4h-.6l-.4-.7.4-.9.4-.7h.9l1-1 1.7-1.1.6.1.6-.3-.5-.4.4-.5 1-.1 1.2-.1-.2-.8-1.7-1.3.1-1-.4-.3.9-.9 1.3-.6.7.1.4.5-.4.3-.2.8.3.9.3.4.7.3.6-.4-.6-.2 1.5.3.1.5v.6z"/><path fill="#4D9142" d="M38.6 47.3l1-1 1-.6 2.2.1 1.1-.2 1-.1.5-.2-.4-.5s-.9-.1-1.3-.1h-.4l-1.1-.4-1.2-.1s-.4 0-1.2.1c-.7.1-1.7-.3-1.7-.3s-.3-.7-1-.1c-.6.6-1.4 1-1.4 1l-.6.6.9 1.2s-.4.3-.1.7l.3.4 1 .3.7-.2.7-.6z"/><path fill="#75B043" d="M42.5 46.5l1.2.4.7-.3.9-1.1.7-.5.5-.2.1.7.4.3.8-.6.4-.9h.9l1-.3.3-1 1.5-.6 1.2-.3.7-.2.3.9-1 .2-1.3.5-.5.5-.7 1.3-.5.5-1.1.8.3.4 1.1.4.7-.5s.4-.5.7-.8c.2-.3 1-1 1-1l.8-.6.8-.8.5.3-.4 1.2-.5 1.2 1.4-1 .5-.2.5.3-.5.5.8.3.8.2-.1.9-1.1-.3-.6-.4-.7.5.8.8.4.3-1.4-.3.5 1.2-.9-.4-1.1-.6-1-.1h-1.1l1.4.5-.5.5 1 .1.7.1.5.4-.6.2.4.6-.5.2s0-.2-.6-.4l-.6-.2-.4 1.2.3.6 1.1-.4.3.7-.6.6-.9.5s.3.6-.2.6c-.4 0-.9-.2-.9-.2l-.5.1.3 1-1-.7s.5 1.8.2 1.5l-.3-.2-.8-.3-.7-.3-.1-1.4-1.1.2s.2-.8-.5-.4c-.7.3-1.3.5-1.3.5l-.1-.7.5.3-1.3-.7-.9-.8 1.5.2 1 .8-.5-1.5-.3-.9v-1.5s.1-.1-.5.2l-.6.3.1.8-1.3-.1h-1.2l-.1-1.6-.6.3s-.7-.4-.6.4c.1.8.6 1.1.6 1.1v.2l-.9-.2s-.1-.4-.5-.3l-.4.1-.8-.7 1-.4.5-.4-.5-.9.3-1 .6-.4c.3-.2.2-.6.2-.6l1.6.4.6-.3-.2.7z"/><path fill="#FFFCEA" d="M49.5 50l.9.3.4.5.5.7.4.3-.6.4-.8-.3-.8-.2V51zm-2.8 1.4l.8.2.5.4-.4.5-.7-.1zm-.4-1.4l.5-.3.2.4-.3 1.3z"/><path fill="#FFFCEA" d="M47.9 50.1l.4-.1.7.7.6 1-.6.2-.9-.9-.2-.9z"/><path fill="#6FB344" d="M48.5 43.9l.6-1.1.7-1 1.2-1.6s-.1-.7.2-1c.2-.3.5-.8.5-.8l.8-.2.9.1.6-.7-.7-1.2s-.5.1-1 .4c-.4.3-1.2 1-1.2 1l-1 1-.2.9-.5 1.3-.6.7-.1.9-.7.6-.3 1.3.8-.6z"/><path fill="#4B873E" d="M51.2 42.3l.5-.8v-.6l.3-.4.9-.3s.4.3.6 0c.2-.3 1-.3 1-.3l-.1-.5h-.8l-1.1-.4-1 .6-.6.7-.2.9-.3 1.8 1.5-.6-.7-.1z"/><path fill="#6CB645" d="M54.7 42l1.6.1 1.3 1 1.2 1.4 1.7.7s.4.2.8.3c.4.2 1.5.3 1.5.3l1.5-.3-1.1-.4-1.6-.5-.9-1-.4-1.1-1.2-.2-.5-.3 2.1.2s.5-.2 1.1.4c.6.6.8.9 1.1 1.2.3.2.9.8.9.8l-.4-1.6-.9-.8.5-.8 1.3.1 1 .7 1.3.3h.8l.6-.3-.7-.4-1.1-.4-1.2-.3s1.2-.4 1.6-.5c.4-.1 1.8-.5 1.8-.5s1.1-.8.5-.6c-.7.2-.4.6-.7.2-.3-.4 1.1-.8 1.1-.8h1.3s-.7-1.2-1.1-1.1c-.4.1-1.8-.1-1.8-.1l-.4-.6.6-.3 1.6.1.7-.2.8-.4-.2-.5.5-.1s.1-.9-.4-.5-2.1.6-2.1.6l1.6-.8.5-.5H70l-1.4.4-.6.4-.5-.3-.7-.6-.1-.7.2-.6-.5-.3-.8-.3-.9.2-.7-.3-.4-.6-.4-.8.8-.3h.6l.4-.5.5-.2 1.1.4 2 1.5 1.7.6s-.6-.6-.9-1.2c-.3-.6 1.3-.1 1.3-.1l-.4-1s-.4-.3-1.1-.3c-.7.1-1.5-.3-1.5-.3l-.5-.5.8-.4.9.1 1 .1H71l.7-.3.9-.7.3-.4-.8-.3-.7.3 1.7-.9-.8-.2h-.6s.3-.7-.2-.5c-.5.2-.9 0-1.1.6-.2.6-.1 1-.6 1.1-.5.1-.3.5-.5.1-.3-.4.3-.8.3-.8l-.1-.8-.6-1.1s-.4 1.6-.7 2c-.3.4-1.7 1.1-2.1 1.4-.4.3-1.2.7-1.7.8-.5.1-1.3 0-1.3 0L61 30l-.6-.2v.9l1.6.1.7-.2v1.1l.3 1.1 1.1.9.4.3-.2 1s.5.3.2.7c-.3.5-.3.8-.5 1.3-.2.4.4 0-.2.4l-.6.4s-.9 0-1.2.2c-.3.2-.9.3-.9.3l-.7-.1s-.5.8-1 1c-.5.2-1.6.5-1.6.5l-.5.6-.9.5-.9.2-.8.2v.8z"/><path fill="#FFFCEA" d="M62.2 39.4l1.6.3s1-.7 1.5-.7c.4 0 1.7-.6 1.7-.6h.9s-.8-1.1-1.5-.8c-.7.3-1.9 1-1.9 1l-1.5.6-.8.2zm3.1-3.2l.2-.6.7.6-.3.6zm-6.2 6.9s.3.2.6.8c.3.6 1.2.6 1.2.6l-.9-1-.9-.4zm-.5-10s.8 0 .8-.6-.6-1.3-.6-1.3l-.2 1.9zm2.5-.1s.1-.1.5.3c.4.3 1.1.3 1.1.3l-.5-1.1-1.1.5zm2.7 3.7l-.8-1.1s-.3-1.1-.9-.8c-.5.4-.7.7-.9 1.1-.2.4-.5 1.3-.5 1.3l.3 1.1 1-.3.7-.2.7.1.4-1.2z"/><path fill="#87C440" d="M55 38l.1-.7.5.3 1.1-.2-.3-.7-.9-.1-.4-.3.5-.4 1 .1.5-.8s0-.4-.5-.3c-.5.2-1.7.4-1.7.4l-.1-.8-.7-.7-.3.5.1.7-.3.7s-.1-1.9-.6-1c-.4.9.1 1.8.1 1.8l.7 1.2-.6.7 1 .3.2.7-.4 1.1.1.5-.2.8.8-.6.8-.2.2-1.4L55 38z"/><path fill="#67A243" d="M57 33.2l-1.2.2h-1.1l1.6.7.6.5.9.8.2-1.5-.4-.7-.4-.8-.5.4z"/><path fill="#7FB443" d="M49.1 36s1.5-1 1.9-1.6c.3-.6 1.4-.6 1.4-.6l.7.5-1.7 1.4-1.6 1.1-2.3 1.4 1.6-2.2z"/><path fill="#6D6D6D" stroke="#000" d="M1.9 17.9S19 64.7 52.4 65c33.4.2 53.3-36.2 53.3-47.1" opacity=".06"/><path d="M1.4 19C4 20.7 6 22.7 9 23.7c2.7 1 5.6 1.6 8.4 2.4 5.6 1.6 13.9.5 19.4 2.2-2.4 1.2-5.3 8.8-5 11.3.5 4.5 3.2 7.8 6.2 11 3.4 3.5 6.7 7.5 11 10 3.3 1.9 7.4 2.5 11.1 3.3-2 2.1-5.6 1.1-8 .9-2.9-.3-5.9-.1-8.8-.7-6.8-1.3-12.7-5.4-18.1-9.3-6-4.3-9-11.1-13.1-17-3.5-5.2-8.5-11.5-9.2-17.9" opacity=".1"/><path fill="#FFF" d="M79.9 38.6c.9-1.4 3.7-1.8 4.8-3.5 1-1.6.9-3.7 1-5.7 4.4 5.6-2.8 11-7.7 11.5.3-1.6 2.9-2.3 3.6-4.2" opacity=".57"/><path fill="#FFF" d="M84.9 40c2.4-1 3-4.2 4.4-6.1 1.7 1.9-1.8 5.8-3.7 6.6" opacity=".87"/><path fill="none" stroke="#636463" stroke-width=".25" d="M1.9 18.3s16.7 46.8 49.3 47.1c32.6.2 52-36.2 52-47.1"/><ellipse cx="53" cy="14" fill="none" stroke="#636463" stroke-width=".25" rx="53" ry="12.6"/></g></switch></svg>
