<svg xmlns="http://www.w3.org/2000/svg" xmlns:xlink="http://www.w3.org/1999/xlink" id="Capa_1" x="0" y="0" version="1.0" xml:space="preserve" viewBox="0 0 220 129"><style>.st0{fill:none}.st1{fill:#ec6923;stroke:#0c160f;stroke-width:.5}.st4{fill:#9cf;stroke:#f7b0b0}.st14,.st4{stroke-width:.25}.st6{fill:#9e9e9e;stroke:#030202}.st6,.st7,.st9{stroke-width:.25}.st7{fill:none;stroke:#000}.st9{fill:#f786f4;stroke:#030202}.st14{fill:#f7d303;stroke:#070707}.st15{fill:#020202}.st24{opacity:.21;fill:#f7f8f9;enable-background:new}.st28{fill:#0b1320}.st31{fill:#fff}.st32{fill:#bd2227}.st41{fill:#030404}.st42{opacity:.13;fill:#fff;enable-background:new}.st45,.st46{fill:#d9edff;stroke:#93b4cc}.st46{fill:none}.st49{fill:#221f27}.st51{fill:#2e313d}.st55{fill:#c2c3c5}.st61{fill:#cccbcb;stroke:#000;stroke-width:.5}.st63{fill:#222430}.st64{fill:#4d5059}.st65{fill:none;stroke:#000}.st66{fill:#222430}.st66,.st67{stroke:#000}.st69{fill:#fff;stroke:#ddd}.st74{fill:#80491e}.st77{fill:#3f3f3f;stroke:#3f3f3f;stroke-width:.25}.st82{fill:#efdf8a}.st84{fill:#ddce7f}.st85{fill:#e1d483}.st86{fill:#0f1110}.st87{fill:#ccbd6f}.st88{fill:#e0d181}.st93{enable-background:new}.st94{fill:#a29a89}.st95{fill:#5d584e}.st96{fill:#767063}.st97{fill:#8b2225}.st98{fill:#4f1415}.st99{fill:#65191b}.st103{fill:#90be4f}.st104{font-family:&apos;FranklinGothic-Book&apos;}.st107{fill:#9e272a}.st108{fill:#781f22}.st109{fill:#842225}.st113{fill:#8b8a8a}.st114{fill:#6d6e6e}.st115{fill:#464647}</style><switch><g><pattern id="b" width="77.8" height="65.3" y="129" overflow="visible" patternUnits="userSpaceOnUse" viewBox="77.5 -84.8 77.8 65.3"><path d="M126.8-37.6l-4.3-7.9s21.9-13.5 41 12.1m-37 20.5s-21.9-13.5-41 12.1v-49.4c19 25.6 41 12.1 41 12.1m.3 24.7l-4.3 7.9s21.9 13.5 41-12.1" class="st1"/><path d="M48.8-12.9S26.9-26.4 7.8-.8v-49.4c19 25.6 41 12.1 41 12.1m.2 24.7l-4.3 7.9S66.6 8 85.7-17.6" class="st1"/></pattern><pattern id="c" width="77.8" height="65.3" y="129" overflow="visible" patternUnits="userSpaceOnUse" viewBox="77.5 -84.8 77.8 65.3"><path d="M126.8-37.6l-4.3-7.9s21.9-13.5 41 12.1m-37 20.5s-21.9-13.5-41 12.1v-49.4c19 25.6 41 12.1 41 12.1m.3 24.7l-4.3 7.9s21.9 13.5 41-12.1" class="st1"/><path d="M48.8-12.9S26.9-26.4 7.8-.8v-49.4c19 25.6 41 12.1 41 12.1m.2 24.7l-4.3 7.9S66.6 8 85.7-17.6" class="st1"/></pattern><pattern id="d" width="77.8" height="65.3" y="129" overflow="visible" patternUnits="userSpaceOnUse" viewBox="77.5 -84.8 77.8 65.3"><path d="M126.8-37.6l-4.3-7.9s21.9-13.5 41 12.1m-37 20.5s-21.9-13.5-41 12.1v-49.4c19 25.6 41 12.1 41 12.1m.3 24.7l-4.3 7.9s21.9 13.5 41-12.1" class="st1"/><path d="M48.8-12.9S26.9-26.4 7.8-.8v-49.4c19 25.6 41 12.1 41 12.1m.2 24.7l-4.3 7.9S66.6 8 85.7-17.6" class="st1"/></pattern><path d="M0 0h220v129H0V0z" class="st4"/><path fill="#666768" stroke="#3d3d3d" d="M87 7.9c0 .6-.5 1.2-1.2 1.2H8.3c-.6 0-1.2-.5-1.2-1.2v-.5c0-.6.5-1.2 1.2-1.2h77.6c.6 0 1.2.5 1.2 1.2l-.1.5h0z"/><path d="M76.5 10.4s-2.6 11.4-2.6 13.1 2.6 4.3 3.7 5.1c1.1.9 3.9-3.9 4.2-4.6.3-.7-2.3-13.6-2.3-13.6h-3z" class="st6"/><path d="M76.5 10.5s-2.6 11.4-2.6 13.1 2.6 4.3 3.7 5.1c1.1.9 3.9-3.9 4.2-4.6.3-.7-2.3-13.6-2.3-13.6h-3z" class="st7"/><path d="M76.1 9c-1.2 0-2.7-.1-3.7-.5.6-3 10-3.6 10.5-.3-.6.8-2.6.9-3 1.6-.7 1.3 2.1.8 2.7.6 2.7-.9 1.8-3.9-.3-5.1-2.4-1.4-5.3-1.1-7.8-.1-2.8 1.2-4.2 2.4-3.1 5.6 1.7 0 3.4.2 5.2.2" class="st6"/><path d="M75.7 9.6c.4 1 0 .8.1 1.8 2 .9 2.5.7 4.5 0V9.2c-1.2-.7-3.1-.2-4.3-.5" class="st6"/><path fill="#030202" d="M81.8 23.6c0 .2-.2.4-.4.4h-7.1c-.2 0-.4-.2-.4-.4s.2-.4.4-.4h7.1c.2-.1.4.1.4.4zm-.1-2c0 .2-.2.4-.4.4h-6.7c-.2 0-.4-.2-.4-.4s.2-.4.4-.4h6.7c.2 0 .4.2.4.4zm-.3-1.9c0 .2-.2.4-.4.4h-6.1c-.2 0-.4-.2-.4-.4s.2-.4.4-.4H81c.2-.1.4.1.4.4z"/><path d="M60.4 10.2s-2.6 11.4-2.6 13.1 2.6 4.3 3.7 5.1c1.1.9 3.9-3.9 4.2-4.6s-2.3-13.6-2.3-13.6h-3z" class="st9"/><path d="M60.4 10.3s-2.6 11.4-2.6 13.1 2.6 4.3 3.7 5.1c1.1.9 3.9-3.9 4.2-4.6s-2.3-13.6-2.3-13.6h-3z" class="st7"/><path d="M60.1 8.9c-1.2 0-2.7-.1-3.7-.5.6-3 10-3.6 10.5-.3-.6.8-2.6.9-3 1.6-.7 1.3 2.1.8 2.7.6 2.7-.9 1.8-3.9-.3-5.1-2.4-1.4-5.3-1.1-7.8-.1-2.8 1.2-4.2 2.4-3.1 5.6 1.7 0 3.4.2 5.2.2" class="st9"/><path d="M59.6 9.5c.4 1 0 .8.1 1.8 2 .9 2.5.7 4.5 0V9.1c-1.2-.7-3.2-.2-4.4-.5" class="st9"/><pattern id="SVGID_1_" patternTransform="matrix(.4892 0 0 -.5141 -8269.814 -8644.92)" xlink:href="#b"/><path fill="url(#SVGID_1_)" stroke="#030202" stroke-width=".25" d="M60.1 10.3s-2.6 11.4-2.6 13.1 2.6 4.3 3.7 5.1c1.1.9 3.9-3.9 4.2-4.6s-2.3-13.6-2.3-13.6h-3z" opacity=".36"/><pattern id="SVGID_2_" patternTransform="matrix(.4892 0 0 -.5141 -8269.814 -8644.92)" xlink:href="#c"/><path fill="url(#SVGID_2_)" stroke="#030202" stroke-width=".25" d="M59.8 8.9c-1.2 0-2.7-.1-3.7-.5.6-3 10-3.6 10.5-.3-.6.8-2.6.9-3 1.6-.7 1.3 2.1.8 2.7.6 2.7-1 1.8-4-.3-5.2-2.4-1.4-5.4-1.1-7.8-.1-2.8 1.2-4.2 2.4-3.1 5.6 1.7 0 3.4.2 5.2.2" opacity=".36"/><pattern id="SVGID_3_" patternTransform="matrix(.4892 0 0 -.5141 -8269.814 -8644.92)" xlink:href="#d"/><path fill="url(#SVGID_3_)" stroke="#030202" stroke-width=".25" d="M59.4 9.5c.4 1 0 .8.1 1.8 2 .9 2.5.7 4.5 0V9.1c-1.2-.7-3.2-.2-4.4-.5" opacity=".36"/><path fill="#f7d303" d="M44.4 10.2s-2.6 11.4-2.6 13.1 2.6 4.3 3.7 5.1c1.1.9 3.9-3.9 4.2-4.6s-2.3-13.6-2.3-13.6h-3z"/><path d="M44.4 10.3s-2.6 11.4-2.6 13.1 2.6 4.3 3.7 5.1c1.1.9 3.9-3.9 4.2-4.6s-2.3-13.6-2.3-13.6h-3z" class="st7"/><path d="M44.1 8.9c-1.2 0-2.7-.1-3.7-.5.6-3 10-3.6 10.5-.3-.6.8-2.6.9-3 1.6-.7 1.3 2.1.8 2.7.6 2.7-.9 1.8-3.9-.3-5.1-2.4-1.4-5.3-1.1-7.8-.1-2.8 1.2-4.2 2.4-3.1 5.6 1.7 0 3.4.2 5.2.2" class="st14"/><path d="M43.7 9.5c.4 1 0 .8.1 1.8 2 .9 2.5.7 4.5 0V9.1c-1.2-.7-3.2-.2-4.4-.5" class="st14"/><ellipse cx="46" cy="15.6" class="st15" rx=".7" ry=".8"/><ellipse cx="45.3" cy="20.5" class="st15" rx=".7" ry=".8"/><ellipse cx="48.3" cy="18.3" class="st15" rx=".7" ry=".8"/><ellipse cx="46.4" cy="25.3" class="st15" rx=".7" ry=".8"/><ellipse cx="45.3" cy="12.8" class="st15" rx=".7" ry=".8"/><ellipse cx="42.6" cy="22.9" class="st15" rx=".7" ry=".8"/><ellipse cx="48.7" cy="22.3" class="st15" rx=".7" ry=".8"/><linearGradient id="SVGID_4_" x1="27.042" x2="35.02" y1="109.044" y2="109.044" gradientTransform="matrix(1 0 0 -1 0 129)" gradientUnits="userSpaceOnUse"><stop offset="0" stop-color="#8e278e"/><stop offset=".168" stop-color="#953595"/><stop offset=".484" stop-color="#a659a7"/><stop offset=".912" stop-color="#c394c5"/><stop offset="1" stop-color="#c9a1cb"/></linearGradient><path fill="url(#SVGID_4_)" d="M29.6 10.8S27 22.2 27 23.9c0 1.7 2.6 4.3 3.7 5.1 1.1.9 3.9-3.9 4.2-4.6s-2.3-13.6-2.3-13.6h-3z"/><path fill="none" stroke="#8aceb6" stroke-width=".25" d="M28.6 16.5c.4-.6 1.5-1 2.1-1.4s1.4-.9 2.2-1c0-.2.1-.1.2-.2m-5 5c.5-.8 1.8-1.4 2.6-1.9s1.8-1.3 2.7-1.4c0-.2.1-.2.2-.3m-5.9 6.1c.6-1 2.1-1.7 2.9-2.3.9-.6 2-1.6 3.1-1.8 0-.3.1-.2.2-.4m-6.8 7.3c.7-1.1 2.4-2 3.4-2.7s2.3-1.9 3.5-2.1c0-.3.2-.3.3-.5m-6.5 7c.7-1 2.3-1.8 3.3-2.5s2.2-1.7 3.4-1.9c0-.3.1-.2.3-.4M29 27.2c.5-.9 1.9-1.7 2.7-2.2.8-.6 1.9-1.5 2.8-1.7 0-.3.1-.2.2-.4m-4.5 5.6c.4-.7 1.4-1.3 2-1.7.6-.5 1.4-1.2 2.1-1.3 0-.2.1-.2.2-.3m-5.6-10.8c.4-.5 1.3-.9 1.8-1.2.6-.3 1.3-.8 1.9-.9 0-.1.1-.1.2-.2"/><path fill="none" stroke="#67007c" stroke-width=".25" d="M29.6 10.9S27 22.3 27 24s2.6 4.3 3.7 5.1c1.1.9 3.9-3.9 4.2-4.6s-2.3-13.6-2.3-13.6h-3z"/><linearGradient id="SVGID_5_" x1="24.239" x2="37.492" y1="120.926" y2="120.926" gradientTransform="matrix(1 0 0 -1 0 129)" gradientUnits="userSpaceOnUse"><stop offset="0" stop-color="#8e278e"/><stop offset=".168" stop-color="#953595"/><stop offset=".484" stop-color="#a659a7"/><stop offset=".912" stop-color="#c394c5"/><stop offset="1" stop-color="#c9a1cb"/></linearGradient><path fill="url(#SVGID_5_)" stroke="#60017f" stroke-width=".25" d="M29.3 9.4c-1.2 0-2.7-.1-3.7-.5.6-3 10-3.6 10.5-.3-.6.8-2.6.9-3 1.6-.7 1.3 2.1.8 2.7.6 2.7-.9 1.8-3.9-.3-5.1-2.4-1.4-5.3-1.1-7.8-.1-2.8 1.2-4.2 2.4-3.1 5.6 1.7 0 3.4.2 5.2.2"/><linearGradient id="SVGID_6_" x1="28.989" x2="33.532" y1="118.249" y2="118.249" gradientTransform="matrix(1 0 0 -1 0 129)" gradientUnits="userSpaceOnUse"><stop offset="0" stop-color="#8e278e"/><stop offset=".168" stop-color="#953595"/><stop offset=".484" stop-color="#a659a7"/><stop offset=".912" stop-color="#c394c5"/><stop offset="1" stop-color="#c9a1cb"/></linearGradient><path fill="url(#SVGID_6_)" stroke="#60017f" stroke-width=".25" d="M29.2 9.1c.4 1-.3 1.7-.1 2.7 2 .9 2.5.7 4.5 0V9.6c-1.3-.7-3.3-.2-4.4-.5"/><linearGradient id="SVGID_7_" x1="9.569" x2="22.822" y1="120.526" y2="120.526" gradientTransform="matrix(1 0 0 -1 0 129)" gradientUnits="userSpaceOnUse"><stop offset="0" stop-color="#006780"/><stop offset=".406" stop-color="#026881"/><stop offset=".552" stop-color="#096a84"/><stop offset=".657" stop-color="#146e8a"/><stop offset=".741" stop-color="#257592"/><stop offset=".813" stop-color="#3b7c9d"/><stop offset=".877" stop-color="#5786aa"/><stop offset=".935" stop-color="#7792b9"/><stop offset=".987" stop-color="#9b9fcb"/><stop offset="1" stop-color="#a6a3d0"/></linearGradient><path fill="url(#SVGID_7_)" stroke="#030202" stroke-width=".25" d="M14.6 9.8c-1.2 0-2.7-.1-3.7-.5.6-3 10-3.6 10.5-.3-.6.8-2.6.9-3 1.6-.7 1.3 2.1.8 2.7.6 2.7-.9 1.8-3.9-.3-5.1C18.4 4.7 15.5 5 13 6c-2.8 1.2-4.2 2.4-3.1 5.6 1.7 0 3.4.2 5.2.2"/><linearGradient id="SVGID_8_" x1="12.372" x2="20.351" y1="108.644" y2="108.644" gradientTransform="matrix(1 0 0 -1 0 129)" gradientUnits="userSpaceOnUse"><stop offset="0" stop-color="#006780"/><stop offset=".406" stop-color="#026881"/><stop offset=".552" stop-color="#096a84"/><stop offset=".657" stop-color="#146e8a"/><stop offset=".741" stop-color="#257592"/><stop offset=".813" stop-color="#3b7c9d"/><stop offset=".877" stop-color="#5786aa"/><stop offset=".935" stop-color="#7792b9"/><stop offset=".987" stop-color="#9b9fcb"/><stop offset="1" stop-color="#a6a3d0"/></linearGradient><path fill="url(#SVGID_8_)" stroke="#030202" stroke-width=".25" d="M15 11.2s-2.6 11.4-2.6 13.1 2.6 4.3 3.7 5.1c1.1.9 3.9-3.9 4.2-4.6S18 11.2 18 11.2h-3z"/><linearGradient id="SVGID_9_" x1="14.2" x2="18.864" y1="117.849" y2="117.849" gradientTransform="matrix(1 0 0 -1 0 129)" gradientUnits="userSpaceOnUse"><stop offset="0" stop-color="#006780"/><stop offset=".406" stop-color="#026881"/><stop offset=".552" stop-color="#096a84"/><stop offset=".657" stop-color="#146e8a"/><stop offset=".741" stop-color="#257592"/><stop offset=".813" stop-color="#3b7c9d"/><stop offset=".877" stop-color="#5786aa"/><stop offset=".935" stop-color="#7792b9"/><stop offset=".987" stop-color="#9b9fcb"/><stop offset="1" stop-color="#a6a3d0"/></linearGradient><path fill="url(#SVGID_9_)" stroke="#030202" stroke-width=".25" d="M14.2 10.4c.4 1 0 .8.2 1.8 2 .9 2.5.7 4.5 0V10c-1.2-.7-3.2-.2-4.4-.5"/><path d="M16.9 28.7c.7-2.4 3.7-2.9 3.2-5.8-.2-1.2-.7-2.5-1-3.7-.3-1.3-.4-2.8-.9-4-.3 2.1.6 4.5.9 6.5-.1-.6-1.1-2.2-1.3-1-.2.9 1.2 1.8 1.2 2.7-1.1.2-2.2.9-3.1 1.3.8.7 1.9.2 2.9.2 0 0 0-.1 0 0-.5.7-1.4 3.4-1.8 3.4" class="st24"/><path d="M14.1 17.7c.2-.9.8-1.5 1.7-1.8-.2 1-.8 1.9-1.3 2.8.8-.1 1.8 0 2.6-.2-.6.7-1.7 1.1-2.4 1.6.6.9 1.5 1.8 1.8 2.9-.8-.2-1.8-.6-2.3-1.3.3.6.2 1.4.3 2-.6-.1-1.1-.7-1.5-1.3.2-1.4.5-2.7.7-4.1" class="st24"/><linearGradient id="SVGID_10_" x1="64.841" x2="71.903" y1="64.892" y2="64.892" gradientTransform="matrix(1 0 0 -1 0 129)" gradientUnits="userSpaceOnUse"><stop offset="0" stop-color="#746046"/><stop offset=".973" stop-color="#a0542b"/><stop offset="1"/></linearGradient><path fill="url(#SVGID_10_)" d="M68.9 58.8c-1.3 2.9-2.6 5.9-3.8 8.8-.3.6-.4 1.5.2 1.8.4.1.9-.3 1.1-.7.2-.4.3-.9.6-1.3.8-.9 2.4-.3 3.5-1 .6-.4.9-1.1 1.1-1.8.2-.5.4-1.1.4-1.7 0-1.8-1.6-3-3.1-4.1"/><path fill="#ddd" stroke="#afafaf" stroke-width=".25" d="M0 80.4h220v48.7H0V80.4z"/><path fill="#afafaf" stroke="#afafaf" stroke-width=".25" d="M0 80.3h220v4.8H0v-4.8z"/><path d="M98.7 92.6s-.2-3.5 0-8.7-.5-6.6.3-9.9c.7-3.3.7-7.8.7-7.8s-1.3-4.2-4-4c-2.7.1-4.5 2-4.7 3.6s0 8.4-.9 12 .2 3.4.5 7.2c.3 3.8 1.5 4.4.2 6.6-.6.9-.9-.1-.6 3.6.9 9.9 1.2 10.2 1.7 9.7.4-.5 7.7-.4 7.7-.4l-.9-11.9z" class="st28"/><path d="M90.3 91.9s-.2-3.5 0-8.7-.5-6.6.3-9.9c.7-3.3.7-7.8.7-7.8s-1.3-4.2-4-4.1c-2.7.1-4.5 2-4.7 3.6s0 8.4-.9 12 .2 3.4.5 7.2c.3 3.8 1.5 4.4.2 6.6-.5.9-.9-.1-.6 3.6.9 9.9 1.2 10.1 1.7 9.7.4-.5 7.7-.4 7.7-.4l-.9-11.8z" class="st28"/><path d="M80.1 19.8s-.2 0-.2-.1v-.2c.1 0 .5.1.5.1.1 0 .2.1.2.1 0 .1-.2.1-.3.1h-.2z" class="st0"/><linearGradient id="SVGID_11_" x1="259.994" x2="260.236" y1="113.273" y2="113.273" gradientTransform="rotate(177.228 171.526 64.292) scale(.99997)" gradientUnits="userSpaceOnUse"><stop offset="0" stop-color="#ffecc3"/><stop offset=".456" stop-color="#ffe7b5"/><stop offset="1" stop-color="#ffe09f"/></linearGradient><path fill="url(#SVGID_11_)" d="M80.8 19.5l-.2.2.2.1v-.3z"/><linearGradient id="SVGID_12_" x1="259.957" x2="260.066" y1="113.071" y2="113.071" gradientTransform="rotate(177.228 171.526 64.292) scale(.99997)" gradientUnits="userSpaceOnUse"><stop offset="0" stop-color="#ffecc3"/><stop offset=".456" stop-color="#ffe7b5"/><stop offset="1" stop-color="#ffe09f"/></linearGradient><path fill="url(#SVGID_12_)" d="M80.8 19.8l.1.1-.1-.1z"/><path d="M97 35.3l-10.2 2.4.5 4.3 6.2 1.8 4.7-2.1-1.2-6.4z" class="st31"/><path d="M85.9 67.9s1.8-1.1 3.4-1.3c2.1-.2 1.9 1 4.5.7 2-.2 6.1-.4 6.1-.4s-.9-25.2-2-26.4c-1-1.2-1.5-2.2-2.1-2.1-.5.1-1.1 4-2.5 4s-4.9-1.7-5.2-2.2l-1.9-1.9s-2.3-.2-2.8.2c-.5.5-1.5 1.9-1.5 1.9l1 9.3-1.3 18.8 4.3-.6z" class="st32"/><path d="M93.5 43.8s-2.2.1-2.8-.1c-.7-.2-3.4-1.7-3.4-1.7l-1.9-1.3-2.6-.9-.8.1.3-5s1.5-.5 2.3-.7l.8-.1.3 1s1.1 2.1 1.2 2.6c.1.4 2 3.1 2.5 3.5s.9.3 1.7.7c.8.4 2.7.1 2.7.1l-.3 1.8z" class="st32"/><path fill="#06090a" d="M93.1 43.4s-2.2.1-2.8-.1c-.7-.2-3.4-1.7-3.4-1.7L85 40.3l-2.5-.9-.9.1.3-5s1.5-.5 2.3-.7l.8-.1.3 1s1.1 2.1 1.2 2.6c.1.4 2 3.1 2.5 3.5s1.4.9 2.1 1.3c.8.4 2.3.3 2.3.3l-.3 1z" opacity=".08"/><path d="M83.8 47.3s-.3 1.9-.2 2.3c.1.4-.8 1.4-.8 1.4s-5.3 2.5-5.8 3.1c-.5.7-2.1 2-1.9 2.6.1.7-.8 3.9-.8 3.9l-.1-.4s-2.7 3.5-3.5 2.8-2.2-1.7-2-2.3c.2-.7 3.8-11.1 4.3-11.7.5-.6 1.5-2.2 2.5-2.8.9-.6 1.8-1 1.8-1s1-2.1 1.6-2.8 2.5-1.9 2.5-1.9 1.2-.8 1.6-.9c.4 0 1.7 1.5 1.7 1.5" class="st32"/><path d="M85.4 37l-1.7-1.4.7-.4 1-.5.5 1.4-.1.9h-.4z" class="st0"/><path d="M97.8 40.8s1.8 3.4 2 4c.2.5.6 1.2.4 2.2s-.3 2-.4 2.7.3 1.3.4 2.1.5 1.4.8 2.2.3 2 .3 2l-.9 2.9-.6 1.5-.5.6-.3-8.8-.7-10.5-.5-.9z" class="st32"/><linearGradient id="SVGID_13_" x1="222.938" x2="225.788" y1="73.71" y2="73.71" gradientTransform="rotate(-178.379 164.736 53.772)" gradientUnits="userSpaceOnUse"><stop offset="0" stop-color="#746046"/><stop offset=".973" stop-color="#a0542b"/><stop offset="1"/></linearGradient><path fill="url(#SVGID_13_)" d="M104.5 30.4s1.3-.9 1.8-.4.9 1.7.9 2.3-1.4 2.2-1.7 2.2h-1.2l.2-4.1z"/><linearGradient id="SVGID_14_" x1="236.214" x2="265.419" y1="101.934" y2="101.934" gradientTransform="rotate(177.228 171.526 64.292) scale(.99997)" gradientUnits="userSpaceOnUse"><stop offset="0" stop-color="#746046"/><stop offset=".973" stop-color="#a0542b"/><stop offset="1"/></linearGradient><path fill="url(#SVGID_14_)" d="M76.4 30.8c.3-.4-.7-5.2-.8-6.2-.2-5 10.9-4.4 14.5-4.6s13.8 3.5 14.5 4.3c.6.8-.3 6.5-.3 6.5s1 5.3 1.1 5.8c.4 1.1-3.7 4-9.2 4.3-5.9.3-8.9 0-11 .1-2.2.1-5-1.4-5.7-2.1-.7-.6-3.6-8.1-3.6-8.1"/><linearGradient id="SVGID_15_" x1="255.41" x2="261.481" y1="97.178" y2="97.178" gradientTransform="rotate(177.228 171.526 64.292) scale(.99997)" gradientUnits="userSpaceOnUse"><stop offset="0" stop-color="#eb1274"/><stop offset="1" stop-color="#fff4ca"/></linearGradient><path fill="url(#SVGID_15_)" d="M80.1 35.8c.1 1.7 1.5 3 3.2 2.9s3-1.5 2.9-3.2-1.5-3-3.2-2.9c-1.7.2-3 1.6-2.9 3.2z" opacity=".13"/><path fill="#030305" d="M85.8 30.5c0 .4.3.7.6.6.3 0 .5-.3.5-.7 0-.4-.3-.7-.6-.6-.3 0-.5.3-.5.7zm6.6 0c0 .4.3.7.6.6.3 0 .5-.3.5-.7 0-.4-.3-.7-.6-.6-.3 0-.5.3-.5.7z"/><linearGradient id="SVGID_16_" x1="239.667" x2="246.988" y1="96.647" y2="96.647" gradientTransform="rotate(177.228 171.526 64.292) scale(.99997)" gradientUnits="userSpaceOnUse"><stop offset="0" stop-color="#eb1274"/><stop offset="1" stop-color="#fff4ca"/></linearGradient><path fill="url(#SVGID_16_)" d="M101.9 35.3c.1 2-1.5 3.7-3.5 3.8s-3.7-1.5-3.8-3.5c-.1-2 1.5-3.7 3.5-3.8 2-.1 3.7 1.5 3.8 3.5z" opacity=".13"/><linearGradient id="SVGID_17_" x1="274.531" x2="277.423" y1="101.536" y2="101.536" gradientTransform="rotate(172.793 178.178 60.91)" gradientUnits="userSpaceOnUse"><stop offset="0" stop-color="#746046"/><stop offset=".973" stop-color="#a0542b"/><stop offset="1"/></linearGradient><path fill="url(#SVGID_17_)" d="M77.3 31.1s-1.3-1-1.8-.5-.9 1.7-.9 2.3c0 .6 1.3 2.2 1.7 2.2h1.2l-.2-4z"/><path fill="#f6f6f5" d="M78.9 15c-.1.1-1.6.9-2 .6-.4-.2-.6-1.2-.3-1.5.9-1 1.6 0 1.8.2.1.2.5.7.5.7z" opacity=".14"/><path d="M91.4 33.5s-.5-.9-1.6-.7-1.3.9-1.3.9" class="st0"/><path d="M105.8 24.4c1.4 1.5-.3 3.1-1.9 3.2-2.3.1-1.7-2.3-3.4-2.8-1-.3-1.1.8-1.9.8-1.1.1-1.3-.8-2.1-1.2-.4-.2-1.5-.5-1.9-.4-1 .3-.9 1.3-1.8 1.7-1.5.6-2.6-1.4-3.8-1.8-.5-.2-1.4-.4-1.9-.3-1.1.2-1.1 1.1-1.9 1.3-1.9.5-2.4-2.4-3.9-2.3-1.2.1-.6 1.2-1.4 1.4-1 .3-1.4-.8-1.3-1.5-2.5-.9-.6 1.7-.5 2.3.1.8-.7 1.3-.6 1.8.1.8 1 .9 1.3 1.5-.5.6-1 1.7-1.9 1.9-1.9.3-.6-1-.8-2-.3-1.2-1.1-1.6-1.1-2.9 0-1.2.6-1.9 1.2-2.8.4-.6 1-1.7.8-2.4-.3-1.3-1.9-1.1-.1-2.4 1.1-.9 1.5-1.2 2.4-2.3.7-1 1.1-1.4 2.5-1.3-1.4-2.6 5.1-5.9 6.2-3.4 1.2-3 4-2 5.5.1.1-.2.1-.4.2-.6.8.2.9 1 1.7 1.4 1.5-1.3 2.5-2.9 4-.3 1 1.7.7 3.3 3 1.9.4.5 2 1.7 2.1 2.3.2 1.4-.6 1.2-.8 2.4 1.3.7 1.2-.2 2.3.4 2.3 1.3 1.4 2.6.3 3 .5 1.4 3.4 1.3 1.7 3.1-.6.6-1.5.3-1.9 1.2-.4.9.3 1.5.7 2.2-.4.6-1.2.7-1.8.8.2.6.7 1.2.8 1.9-.9.7-2.2.4-2.6-.7-.5-1.5 1.2-1.5 1.1-2.9" class="st41"/><path d="M98.8 20.3s0 .9-2.2 0c-2.3-.9-4-1-4-1s2.3 1.5 3 1.8c.8.3 2 1.4 3 .9 1-.6.2-1.7.2-1.7zm-19.4-.9c1.5 1.3 5.6 2.7 7.6 1.9-.4-1-2.8-1.3-3.9-1.4-1.4-.1-2.7-.5-4.2-.7m7.3-4.4c1 .9 5.6.8 4.2-.5-.5-.5-2.3 0-3-.1-.9-.1-2-.5-2.8-.8.8.4 1.4 1.2 2.1 1.6" class="st42"/><path d="M103.9 30.7c-.4 0-.8 1.1-1.1 1.4-.4.6-.9 1.1-1.4 1.6-1 .9-2 1.8-3.2 2.4-1.1.5-2.1 1-3.2 1.2-1 .2-2.1 0-3.1 0-2 0-4.2.3-6.2.6-.7 0-1.1.1-1.7.1-.7 0-1.1-.3-1.7-.7-1.1-.7-2.2-1.3-3-2.2l-1.2-1.5c-.4-.5-1.2-1.1-.8 0 .2.5.3 1 .5 1.5.3.5.7 1 1 1.6.5 1 .9 2.4 1.9 2.9s2.2.6 3.2.8c1.1.2 2.2.2 3.2.4 1 .3 2.1.4 3.2.3 1.1 0 2-.4 3.1-.5s2.2.1 3.2.2c.7 0 1.2-.3 1.9-.4.6-.1 1.3 0 1.9-.2 1.4-.5 2.5-1 3.7-2 1.1-1 1.1-2.4.5-3.7-.4-1.3-.7-2.4-.7-3.8" class="st0"/><path fill="#070707" d="M103 30c-.2 1.3-.4 2.5-1.2 3.6-1 1.3-2.3 2-3.9 2.6-1.1.4-2.5.3-3.7.4-1.2.1-3.5.2-4.7.2-2.3 0-3.6-.7-5.9-1.2-1.2-.3-2.6-.5-3.7-1.3-.9-.7-2.2-1.8-2.6-3-.1-.5.2-1.2-.4-1.4-.8-.3-.7.7-.6 1.1.1.6.4 1.1.6 1.6.3.6.2 1.4.5 1.9s.6.7.8 1.2c.2.5.2.6.4 1.1.2.5.3 1.3.7 1.7.4.4.9.9 1.4 1 1.1.2 1 .6 2.1.9.5.2 1.8.1 2.3.3.7.2 1.7.1 2.4-.1 1.2-.3 2.8.1 4 .2 1 .1 2.3 0 3.3 0 1.6-.1 3.3-.4 4.8-.9s2-.9 3.5-1.4c.3-.1 1.9-1.5 1.9-2.2.1-.8-.2-1.6-.5-2.3-.3-.8-.5-1.6-.7-2.4-.2-.7-.3-1.9-1.4-1.7" opacity=".19"/><path d="M92.8 38c0 .1.1.9-.1 1.2-.3.5-1.1.6-1.7.7-1.4.1-2-.4-2.8-1.5-.6-.8-2.5-1.4-2.3.2.2 1.2.6 2.3 1.7 3s2 .8 3.2.8c1 0 2.5-.1 3.1-1.1.5-.8.6-2.3.5-3.2 0-.7-.3-.7-1-.8-1 0-.5.3-.5 1v.1" class="st41"/><path d="M90.8 35c-.2 0-.3-.1-.5-.1-1.3-.2-2.5.3-3.6 1.2-.2.2-1 .7-.9 1 .1.4.8.3 1.1.3.7-.1 1.4-.7 2.1-.8 1.6-.2 2.9.5 4.5.7 1.5.1.4-.8-.3-1.1-.8-.5-1.5-.9-2.4-1.2h-.1" class="st41"/><path d="M99.2 102.3s2.3 3.6 4.6 3.5c2.4-.1 1.7 1.5-.1 2.7-1.8 1.2-8.7.2-7.1.9.7.3.6.6-4.6-2.5l-.8-3.3 8-1.3zm-16.2.8s-2.2 1-4.1 1.9c-1.9 1-4.1 2.5-4.1 2.5l2 2.5s6.1-.3 7.7-.7c1.6-.4 3.5-.2 4.4-1.4.9-1.2 2.2-4.2 2.2-4.2l-8.1-.6zm13.8-62.8c1.3 1 4.1 2.3 5 3.7 1.5 2.4.1 3.8.1 6.3 0 2.9 2.5 10.8-2.3 11.4-1-5.8.5-12.7-2-18.7" class="st32"/><g opacity=".87"><path d="M.9 80.9l.2-12.2 93.9.2-20.7 12.5-73.4-.5z" class="st45"/><path d="M73.5 81.3V129h21.2V68.8L73.5 81.3zM.9 80.9h72.6V129H.9V80.9z" class="st45"/><path d="M0 113.1l.2-12.2 93.9.2-20.7 12.5-73.4-.5z" class="st46"/></g><path d="M1.3 80.9l.2-12.2 94 .2-20.8 12.5-73.4-.5z" class="st46"/><path d="M73.9 81.3V129h21.2V68.8L73.9 81.3zm-72.6-.4h72.6V129H1.3V80.9z" class="st46"/><path d="M.4 113.2L.6 101l94 .2-20.8 12.5-73.4-.5z" class="st46"/><path fill="#060203" stroke="#231f20" d="M4.8 77l32.4-5-.1-27.8-32.3 3.3V77z"/><path fill="#302f2f" stroke="#231f20" d="M6.3 79.5l32.5-5 .4-28.8-32.4 3.6-.5 30.2z"/><path d="M4.8 47.5l2 1.8v11.6l7 2.9 19-2.4 6.4-4.9V45.7l-2.1-1.5-32.3 3.3z" class="st49"/><path fill="#1a171e" d="M14.6 46.5l.5.7.7-.4s1.3-3.5 1.8-3.8 2.1-.1 4.5-.3c2.4-.3 4.4-.5 4.4-.5h1.4l1.4 3.4h.7s-1.3-4.1-2.3-4.4c-1.1-.3-2.8-.2-5 0s-4.5.3-5.2.7-1.5 1.7-1.5 1.7l-1 2-.4.9z"/><path d="M5.7 47l1.2 1.2.6 11.3 6.9 3.3 18.4-2.2 6.3-4.9V45.6l-1.7-1.8" class="st49"/><path d="M38.2 47.7c-3.1 2.1-4.3 6.2-6.9 8.9-1.4 1.4-3 2.2-4.4 1.2-.6-.4-.6-1.1-1.4-1.6-.1 0-2.2-.5-2.3-.6-2.3-.2-2.2 1.7-4.2 2.6-1.4.6-3.2.1-4.4-.7-1.4-.9-2.7-2.3-3.9-3.6-1.1-1.2-3.2-2.4-3.4-4.1 2.4-.5 5.2.1 7.7-.1 2.6-.2 5.1-.9 7.7-1.2 2.5-.3 5.1-.5 7.7-.6 1.3-.1 2.7.1 4 0 1.4-.1 2.6-.7 4.1-.6" class="st51"/><path fill="#d2dce5" d="M22 62.3l.2 2.4s1 .2 2 0c.9-.2 1.7-.5 1.7-.5v-2.6l-3.9.7z"/><path fill="#dce3eb" d="M22 66.1s1.2.2 2.1 0l1.8-.4v-1.5s-2 .1-2.4.3c-.5.3-1.3.2-1.3.2l-.2 1.4z"/><path fill="none" stroke="#231f20" d="M24 63.6h0l.1-.1v.1h.2v.1h-.2v.4H24v-.3h-.1v-.2h.1z"/><path d="M21.3 62l.7.4 3.9-.8-.7-.3-3.9.7z" class="st55"/><path d="M22 66.1l.1-1.4-.1-2.3-.7-.4.1 3.8.6.3z" class="st55"/><path fill="#221f27" d="M22 63.4l3.8-.7v1.4s-1.3.4-1.8.3c-.5 0-1.9.2-1.9.2l-.1-1.2z" opacity=".05"/><path fill="#fff" stroke="#231f20" d="M5 51.8V77"/><path d="M6.8 49.5h-.4l-.1-.8.4-.1.1.9zm.1 1.7h-.4l-.1-.8.4-.1.1.9zm.1 1.7l-.4.1-.1-.9.4-.1.1.9zm.1 1.7h-.4l-.1-.8.4-.1.1.9zm.1 1.7l-.4.1-.1-.9.4-.1.1.9zm.1 1.7h-.4l-.1-.8.4-.1.1.9zm.1 1.7l-.4.1-.1-.9h.4l.1.8zm-.3 2.8h-.4l-.1-.8.4-.1.1.9zm0 1.7h-.4v-.8l.4-.1v.9zm0 1.7h-.4v-.8l.4-.1v.9zm0 1.7h-.4v-.8l.4-.1v.9zm0 1.7h-.4v-.8h.4v.8zm0 1.7l-.4.1v-.9h.4v.8zm0 1.7l-.4.1v-.9h.4v.8zm0 1.7l-.4.1v-.9h.4v.8zm0 1.7l-.4.1v-.9h.4v.8zm0 1.6h-.4v-.8l.4-.1v.9zm-.4 1.4l-.1-.4.9-.1v.5h-.8zm1.6-.2v-.4l.8-.1v.4l-.8.1zm1.7-.3l-.1-.4.8-.1.1.4-.8.1zm1.6-.3l-.1-.4.9-.1v.5h-.8zm1.6-.2l-.1-.4.8-.1.1.4-.8.1zm1.6-.3l-.1-.4.8-.1.1.5h-.8zm1.7-.3l-.1-.4.8-.1.1.5h-.8zm1.6-.2l-.1-.4.8-.1.1.4-.8.1zm1.5-.2v-.4l.8-.1v.4l-.8.1zm1.7-.3l-.1-.4.8-.1.1.4-.8.1zm1.6-.3l-.1-.4.9-.1v.4l-.8.1zm1.6-.2v-.5h.8l.1.4-.9.1zm1.6-.3l-.1-.4.9-.1v.4l-.8.1zm1.6-.2v-.5h.8v.4l-.8.1zm1.7-.3l-.1-.5h.8l.1.4-.8.1zm1.6-.3l-.1-.4.9-.1v.4l-.8.1zm1.5-.1l-.1-.4.8-.1.1.4-.8.1zm1.6-.2l-.1-.4.9-.1v.4l-.8.1zm1.7-.3l-.1-.4.8-.1.1.4-.8.1zm1.6-.3l-.1-.4.9-.1v.4l-.8.1zm1.7-27.4h-.4l-.1-.9h.4l.1.9zm-.2 1.6l-.4.1-.1-.9h.4l.1.8zm.1 1.8h-.4v-.9h.4v.9zm0 1.6l-.4.1v-.9h.4v.8zm0 1.8h-.4v-.8l.4-.1v.9zm0 1.6l-.4.1v-.9h.4v.8zm-.4 2.9h-.4v-.8l.4-.1v.9zm0 1.7h-.4v-.8l.4-.1v.9zm0 1.7h-.4v-.8l.4-.1v.9zm0 1.7h-.4v-.8l.4-.1v.9zm0 1.7l-.4.1v-.9h.4v.8zm0 1.7l-.4.1v-.9h.4v.8zm0 1.7l-.4.1v-.9h.4v.8zm0 1.7l-.4.1v-.9h.4v.8zm0 1.8h-.4V71h.4v.9zm0 1.6l-.4.1v-.9h.4v.8zM6.1 47.8l-.2.3-.7-.5.2-.3.7.5zm2.4 12.7l-.1.3-.8-.3.1-.4.8.4zm1.5.7l-.1.4-.8-.4.1-.4.8.4zm1.5.5l-.1.4-.8-.3.1-.4.8.3zm1.5.7l-.1.4-.8-.3.1-.4.8.3zm1.5.8l-.1.4-.7-.4.1-.4.7.4zm1.5-.5v.4h-.8v-.4h.8zm1.6-.1v.5l-.8-.1v-.4h.8zm1.6-.2l.1.4h-.9v-.4h.8zm1.8-.1v.4l-.9-.1v-.4l.9.1zM32.2 61v.4h-.8V61h.8zm-1.6.2v.4h-.8v-.5l.8.1zm-1.7.2l.1.4-.9-.1v-.4l.8.1zm-1.6.1v.4h-.8v-.4h.8zm6.3-1.4l.2.4-.8.4-.2-.4.8-.4zm1.1-1l.2.2-.6.6-.3-.3.7-.5zm1.4-1l.3.3-.7.5-.2-.3.6-.5zm1.3-1l.2.3-.6.6-.3-.3.7-.6zm1.2-1.2l.3.3-.7.6-.2-.3.6-.6z" class="st31"/><path d="M6.5 49.1s.2-.1.4-.3c.3-.2.8-.4 1-.5.5-.2 3.2-.3 3.2-.3s1.9-.2 2.2-.3c.3-.2 1.2-.3 1.8-.4.6-.2 1.5 0 1.5 0s3.6-.2 4-.1c.3.2 4.2-.6 4.9-.6.8.1 2 .1 2.5-.1.5-.3 1.2-.8 1.8-.8.6 0 1.8-.1 2.4 0 .6.1 3.5-.3 4 0s2.3-.1 2.3-.1l.6.1-32.6 3.4z" class="st51"/><linearGradient id="SVGID_18_" x1="4.789" x2="34.456" y1="26.873" y2="26.873" gradientTransform="matrix(1 0 0 -1 0 129)" gradientUnits="userSpaceOnUse"><stop offset="0" stop-color="#333"/><stop offset=".516" stop-color="#676767"/><stop offset="1" stop-color="#333"/></linearGradient><path fill="url(#SVGID_18_)" stroke="#000" stroke-width=".5" d="M4.8 102s-.4-2.3 3.7-2.8c4.1-.6 23.3-2.1 25.9 3-.6 4.1-.5 3.5-.5 3.5l-3.4-.5s-2.1-2.3-5.9-2.4-13.3-.4-14.5.8c-1 1.3-5.3-1.6-5.3-1.6z"/><linearGradient id="SVGID_19_" x1="7.526" x2="33.772" y1="24.68" y2="21.634" gradientTransform="matrix(1 0 0 -1 0 129)" gradientUnits="userSpaceOnUse"><stop offset="0" stop-color="#333"/><stop offset=".516" stop-color="#676767"/><stop offset="1" stop-color="#333"/></linearGradient><path fill="url(#SVGID_19_)" stroke="#000" stroke-width=".5" d="M5.1 101.8s-.6.2-.5.8c.2.6.3 3.8.3 3.8s.1.7.2 1.2 3.6 2.7 13.5 2.9c9.9.2 15.1-2.2 15.5-2.3.5-.1.8-.7.7-1.4 0-.3-.4-3.6-.4-3.6s.6-1.1-1-1c-1.6.1-6.9 2.3-14 2.4-7.3.1-14.3-2.8-14.3-2.8z"/><linearGradient id="SVGID_20_" x1="7.41" x2="33.984" y1="23.345" y2="20.261" gradientTransform="matrix(1 0 0 -1 0 129)" gradientUnits="userSpaceOnUse"><stop offset="0" stop-color="#333"/><stop offset=".516" stop-color="#676767"/><stop offset="1" stop-color="#333"/></linearGradient><path fill="url(#SVGID_20_)" stroke="#000" stroke-width=".5" d="M17.9 110.6c2.3.3 8.2-.5 8.2-.5s.5-.2 1.3-.8c.8-.6 1.8-2.6 1.5-3.1s-2.2-2.3-3.1-2.1c-.8.2-7.2.5-7.2.5"/><path d="M17.3 107.8l.1-2.1c.3-1.5 4.2-1.5 4.2-1.5l.2.4h.6v-.9s-6.1-.8-6 2.9l-.1 1.5.1.7c.1 3.7 6.1 2.4 6.1 2.4v-.8h-.6l-.2.4s-3.9.3-4.2-1.2l-.2-1.8z" class="st61"/><path d="M20.8 107.2s-3.6-.4-3.6.3c0 .6.1.8.4.7.3-.1 3.3-.4 3.3-.4l-.1-.6z" class="st61"/><ellipse cx="24.5" cy="107.2" rx=".5" ry=".3"/><ellipse cx="14.4" cy="107.5" rx=".3" ry=".5" transform="rotate(-83.414 14.398 107.496)"/><ellipse cx="9.6" cy="106.7" rx=".3" ry=".5" transform="rotate(-81.709 9.599 106.705)"/><path fill="none" stroke="#000" stroke-width=".5" d="M5.5 101.9s.5-1.1 1.6-1.5c1.6-.5 12.9-1.5 18.6-.7s7.2 2.6 7.2 2.6"/><path d="M17.4 105c-.8.4-.7 2-.6 2.7.4-.5.4-1.9.6-2.5" class="st31"/><path d="M40.8 96.1s.8 15 1.1 15.3c.2.2 14.7-5.6 15.3-5.4.5.2 9.5 6.5 9.7 6.5s0 .2.4.4.5-3.4.7-5.9.2-5.6.4-6.1c.1-.5.6-1.6.5-1.8-.1-.2 0-1.5 0-1.5s-9.8-6.1-11.4-6.2-16.4 4.5-16.7 4.7z" class="st63"/><path d="M68 98.2s-9.6-5.2-10.4-5.3h-.9c-.9 0-1.8 0-2.8.3-1.1.3-9.6 2.8-9.6 2.8s-2.3.7-2.5.7h-.1s12.9-4.2 14.9-4.2 11.1 5.2 11.4 5.4c.3.1 0 .3 0 .3z" class="st64"/><path d="M46.5 109s-3.9 2.2-4.2 1.8c-.3-.5-1.1-13.4-1-14" class="st65"/><path d="M42.3 102.9s1.9-.8 2-.7c.1.1 0 .5 0 .5s-.3.1-.7.2c-.4 0-1 .2-1 .2l-.3-.2zm1.6-1.9s-1 .4-1.3.3c-.4 0-.6.2-.6 0s.6-.2 1-.3c.4-.1.7-.3.7-.3h.2v.3z"/><path d="M47.5 110.5l11.8-5.1s-2.8-11-3-11.5-.5-.9-.7-.9c-.1 0-12.7 4.2-13 4.2s.5.6.7 1.2c.2.5 2.1 6.4 2.1 6.9.1.4 2.1 5.2 2.1 5.2z" class="st63"/><path d="M55.4 93.1s.4.2.6.8c.2.6 2.4 9.2 2.6 10 .2.8.4 1.5.4 1.5l-11.2 4.8s-2.3-6.6-2.7-7.9c-.5-1.3-1.3-3.9-1.5-4.2s-.7-.8-.7-.8" class="st66"/><path d="M67.6 99s-9.6-5.4-10.1-5.4c-.4 0-.8-.3-.8-.3l-.5.3-.2-.3s.5-.3 1.1 0 10.4 5.4 10.4 5.4l.1.3z" class="st64"/><path d="M43.7 99.2s-.7-.1-1 0c-.2.1-.7 0-.7 0V99l.9-.2.5-.6.3 1z"/><path d="M57.2 95.2s9.9 5.2 10.1 5.4c.2.2.2.1 0 .2-.2 0-5.5-2.9-6.2-3.3S58.4 96 58 95.9c-.4-.2-.7-.4-.8-.4 0 0-.2-.4 0-.3zm10 7.5s-4.8-2.4-5.9-3c-1.1-.7-2.9-1.7-3.2-1.9-.3-.2-.8-.4-.8-.4s-.1-.3.1-.3 1.9 1.3 3.2 1.9 2.1 1.1 3.1 1.6c.9.5 2.6 1.5 2.9 1.6s.6.3.6.3v.2zm-.3 1.8s-3.6-1.5-4.4-2c-.8-.5-4.1-2.5-4.2-2.7-.1-.2-.5-.3-.5-.3s-.2-.4.2-.2 1.4.8 2 1.2c.7.4 1.4.8 2.3 1.3.9.6 1.6 1 2 1.2s1.4.6 1.6.7.6.2.7.3c.1.1.3.2.3.2v.3z" class="st64"/><path d="M68.1 97.6s-.5 14.2-1.2 14.4c0 0 1.4-14.1 1.4-14.2 0-.2-.2-.2-.2-.2z" class="st67"/><path d="M55.8 94.9c-.5.1-1.2.5-1.5 1-.5.6-.9 1.1-1.5 1.6-.5.5-.5.9-.7 1.6-.2.8-.7 1.3-1.2 1.8-.9.8-1.5 2.2-1.9 3.3-.3.8-.2 1 .4 1.6.4.5.7 1 .9 1.6.3 1.4-1 1.9-2 2.4-.6.3-.1.4-.3-.3-.2-.5-4.4-11.8-4.5-12.1l12.4-4.3s.6.6.7.9c-.1.3-.8.9-.8.9zm3.7 11.5c.4-.3.6.3.9.5.3.2.7.3 1.1.4h1.1c.5-.1.7-.4 1.1-.5.9-.3 1.3 0 1.8-1.1.2-.6.3-.6-.3-1-.3-.2-.9-.3-1-.6.5-.5 1.6.4 2.2.1 1.1-.4.7-1.2.8-2.1.1-.8-.1-1.7.3-2.4.2-.4.4-.6.5-1.1.1-.4-.4-1.1.3-.7L67 113.1l-.2-.4-7.5-5.1.2-1.2z" class="st51"/><path d="M66.6 112s-7-4.9-7.2-5.1c-.2-.1-.4-.6-.2-.4.7.6 2.3 1.8 3.6 2.7 1.3.9 2.4 1.7 2.6 1.9.2.2.9.6.9.6s.4.1.4.2l-.1.1z" class="st66"/><path d="M146.9 79l-3.5 5.2H73.9L117 55.5l103 1.3v22.5l-73.1-.3z" class="st45"/><path d="M146.9 74.4l-3.5 6.2H73.9L117 51.8h103v22.9l-73.1-.3z" class="st45"/><linearGradient id="SVGID_21_" x1="115.767" x2="122.138" y1="78.7" y2="78.7" gradientTransform="matrix(1 0 0 -1 0 129)" gradientUnits="userSpaceOnUse"><stop offset="0" stop-color="#ec0d74"/><stop offset="1" stop-color="#fff5cb"/></linearGradient><ellipse cx="119" cy="50.3" fill="url(#SVGID_21_)" opacity=".08" rx="3.2" ry="3.4"/><path d="M158.2 44.4s2.9 2.2 4.4 3.6c1.5 1.4 3.9 5.2 1.5 9.6-2.4 4.5-.2 5.8-.2 5.8s-.3 10.8.4 10.5-1.3 1.9-4.1 1.9c-2.8.1-12.2-.9-12.2-.9l-2.9-.3s2.1-24.7 3-25.4 3.2-2.4 3.2-2.4l6.9-2.4z" class="st69"/><path d="M150.8 123.7s-2.3 1.5-4.7 1.5c-2.3 0-8.1-.6-8.1-.6l-2.6-.9s1.5-11.4 1.6-12.3 2-6.4 2-6.4l-1-6.7s4.6-12.2 4.5-13.1.8-6.3 1.3-6.7c.5-.3 1.2-3.8 1.2-3.8l18.8.7s2.5 7.7 2.9 8.6-.3 10.1-.1 11.2.5 4.8.5 4.8 7.9 6.4 9.1 7.3c1.2.9 2.1 3.6 3.6 5s3.5 6 3.5 6-.2 1.9-4.5 3.9-7.5 1.2-7.5 1.2l-3.1-7-5.9-5.8-2.5-5.9-3.3-3-6.7-16.8s3.3 6.5 1.5 11.5c-1.8 4.9-.6 11.1-1 11.9s.8 5.1.9 6.2c.2 1.1-1.1 4.8-.9 5.7.1.6.5 3.5.5 3.5z"/><path d="M135.5 123.6l-6.2 2.1-1.1 1.3s3.1 1.6 4.7 1.9c1.6.3 6.1-.2 6.1-.2l2.8-.4 2.4.9 3.1-.5 1.9-.3 2.3-.3-.5-3.4h-2.3c-.1 0-6.5.2-6.5.2l-6.7-1.3zm35.8-.4l-4 2.5-2.3 2.8s1.4.7 3.6.4c2.2-.3 7.8-1.9 7.8-1.9s3.5-2.6 4.8-2.6 2.3-.2 2.9-1.2c.6-1-.5-3.4-.5-3.4l-.2-1.5s-2.9 3.2-4.5 3.9c-1.7.4-7.6 1-7.6 1z" class="st4"/><path d="M171.2 124.5c0-1 1.2-3.1 2.5-2.8 2 .4.4 2.4-.6 2.9-1.7.8-1.9-.3-2.5-1.7-.4-1.1-1.5-2.7-3-2.2-.4 2.3 1.4 3.1 3.2 3.8m-1 0c.5-.2 1-.2 1.4.1m-36.4 0c-.5-1.3 1.3-4.4 2.5-2.6 1.1 1.6-1.7 2.4-2.8 2.4-.2-.8-1.2-3.8-2.4-2.6-1.3 1.4 1.7 2.5 2.4 2.8m34 .3c.4-.2 1-.2 1.4.1m-2.3.6c.5-.2 1-.2 1.4.1m-36.4-1.1c.4-.2 1-.2 1.4.1m-2.3.2c.4-.2 1-.2 1.4.1m-2 .2c.5-.2 1-.2 1.4.1" class="st0"/><linearGradient id="SVGID_22_" x1="1480.217" x2="1523.437" y1="180.412" y2="180.412" gradientTransform="matrix(-.8064 .1049 -.129 -.9916 1386.984 53.968)" gradientUnits="userSpaceOnUse"><stop offset="0" stop-color="#ffedc4"/><stop offset=".322" stop-color="#ffe6b6"/><stop offset=".928" stop-color="#ffd592"/><stop offset="1" stop-color="#ffd38d"/></linearGradient><path fill="url(#SVGID_22_)" d="M136.5 21.2s-1.4 7.8-1.1 10c.3 2.2 1.5 6.2 1.3 9.2 0 .8-.5 2.8-.2 3.6.3 1 1.7 2.7 5.1 3.4 3.3.7 6.4.2 8.3-.1 2.7-.4 15.4-5.1 18.4-6.5 1.3-.6 1.6-1.8 1.7-2.3.5-2.9 1.1-2.5.7-3.8-.4-1.3-.1-1.8-.1-1.8-1.2.2-7.3-6.8-12-8.3s-10.4-5.6-14-5.3c-3.7.6-8.1 1.9-8.1 1.9z"/><path fill="#010103" d="M137.6 35.6c0 .6.4 1.1.8 1.1.5 0 .8-.5.8-1.1s-.4-1.1-.8-1.1c-.4.1-.8.5-.8 1.1z"/><path fill="#f8f7f6" d="M138.9 17.4s5-3.9 7.2-4.3c2.2-.3 6.7 1.3 6.8 1.4.1.1-.3.1-.5.1s-4.6-1.2-5.2-1.3c-.6-.1-1-.1-1.2-.1-.1 0-.5.4-.9.7-.3.3-.8.9-1 1.1-.2.3-.6.8-.8 1s-.4.4-1.2.5c-.6.2-3.2.9-3.2.9z" opacity=".14"/><path d="M139.1 23.2s.1 1.1 3.1-.6c2.9-1.6 5.4-2.1 5.4-2.1s-2.8 2.4-3.8 2.8c-1 .5-2.5 2.1-4 1.8-1.5-.3-.7-1.9-.7-1.9zm26.8-5.7c-1.8 1.9-7.1 4.6-10.1 4.1.3-1.3 3.6-2.2 5.1-2.6 1.9-.5 3.7-1.3 5.6-1.8m-11-3.5c-1.1 1.3-7.6 2.3-6 .4.6-.7 3.2-.5 4.1-.8 1.3-.3 2.7-1 3.8-1.7-1 .7-1.6 1.8-2.6 2.5" class="st42"/><path d="M160.2 20.1c-5.7-.1-5.7 6.8-2.2 6-.5-1.4-.9-3.5.2-4.9" class="st41"/><path fill="#010101" d="M136.6 37.8c-1.7.8-1 2.7-.1 3.6 0 0 1.7 1.3 3.8 1.4 2.1.1 4.3 0 4.8.4s3.6 1.7 4 .6c.4-1.2 2.5-1.9 2.5-1.9s2.5.4 3 .6c.6.2 0 3.4 0 3.4s-8 2.9-8.3 2.5-6.1-.9-6.1-.9l-3.8-3.3.2-6.4z" opacity=".09"/><path d="M137.7 22.6c.3 1.8-.6 3.2 2.1 3.2 1.6 0 2.9-.8 4.5-.5 1.7.3 3.7.9 3.9 2.8 0 .3-.6.5-.5.8.2.8.4.5 1 1 .6.6 1.8 1.2 2 2.2.2.8-.4 1.6-1 2.2-.6.5-1.7.4-2.2.9-1 1.1 1.3 3.3 2 4.1.4.4.7 1.7 1.2 1.9.4.1 2.3-1.2 2.5-1.6.4-.8-.2-1.6.1-2.5s1.1-1.6 2-1.9c.1.5.3 1.1.2 1.6-.1 1.1-.3.8 0 1.9.3.8.6.8.3 1.8-.4 1.3-1 .7-.5 2.2 1.2 3.2 5.1 1 7.4.4 3-.7 5.1-.6 7.3-3 .9-.9 1.6-1.6 1.7-3 .1-1.2.1-3-.2-4.1-.4-1.2-1.5-2.2-1.8-3.4-.4-1.4.2-2.9.1-4.3-.1-1.5-.9-2.4-1.8-3.4-1.2-1.3-2.6-1.3-4-2.4-1.7-1.2-.8-2.2-1-3.9-.3-1.8-2.3-2.1-3.8-2.4-1.5-.3-2.7-.1-4.2 0-2 .1-2.7-.8-4.3-1.7-1.9-1-4.6-.7-6.6.1-.8.3-1.7 1.3-2.6 1.5-1 .2-1.8-.4-3-.3-.8.1-2.1.2-2.7.9-.3.3-.6.8-.6 1.2.1.8.8.5 1 1 .4 1.4-.6 1.1-1.4 2.1-.8.9-.6 2.1-1.1 3.1.6.5 1.5.6 1.9 1.3-.6.6-4.4 4.6-1.2 4.3 1-.1 2.4-4.4 3.4-2.5.2 0 .2-.1.2-.3" class="st74"/><path d="M151 31c-1.6-1.6-1.6-1.8-3.7-1.6-2.8.2-1.3-.3-1.9-2.3-1.3-4.1-5.8.1-8.1.1-.1-1.6-.8-2.5-2-3.1-.8-.4-.7.7-1.6-.5-.5-.7.1-1.3-.2-1.9-.9-1.6-2.1-1.5-1.4-3.7.6-2.1 1.7-2.1 3.7-2.5.2-2.6-1.7-4 1.7-5.4 1.1-.5 2.1-.2 3.1 0 1.6.3 2.1.5 3.7-.3 2.2-1.1 4.2-2.4 6.8-2.5 2-.1 6 1.1 4.6 3.9 3 .2 4.8-1.9 7.4.6.3.3.4 1.1.8 1.5.6.6 1.7.7 2.3 1.3 1.6 1.6 0 2.1-1.2 3.5 1.1 1.7 7.6 1.9 4.6 5.6 4.7.9 1.8 3.9 2.1 6.8.2 1.8 1.9 1.6 2.5 3.3.6 1.6-.4 2.6-1.9 2.9.2 1.6.9 2.4-.5 3.6-.4.4-1.6.5-1.9.8-.6.6-.3 1.5-1 2s-3.6.5-4.4.3c-2.4-.5-1.3-2.6-2.9-3.1-1.1 1.5-.9 3.5-2.8 4.1-1.3.4-4.1 0-3.9-1.8.1-.8 1-.9.9-2.1-.1-.8-.5-1.7-1.3-2-1.9-.8-1.6 1.7-1.2 3-1.4-.3-.9-1-1.2-1.8-.1-.2.2-.7 0-1.1-.2-.6-1-.8-1.3-1.4-.6-1.4-.2-4.1.2-5.5" class="st74"/><path d="M151.6 33.1c-2 .1-3.3 3.2-5.3 1.2-1.2-1.2 0-1.2 0-2.7 0-2-.7-.8-1.8-1.3-2.2-1.1-.3-3.9-3.6-3.1-.1 0-.6-.3-.9-.2-.4.1-.2 1.2-1 1.2s-1.5-1.8-1.6-2.5c-.2-1.8 2.8-3.4 4.6-3.1.1 0 .6.8.9.9.5.2 1.1-.1 1.7 0 1.1.3 2.6.8 3.2 1.9.5.9.1 1.8 1 2.4 1.2.8 2-.3 3.2-.1 3.7.6.4 4.5-.1 6.1m11.6-15.2c3.3-3.1 15.5-2 12.5 2.1-.5.7-2.8 1.9-2.5 3 .2.8 2.3 1.5 2.9 2.1 2.5 2.9-2.3 2.7-3.2 4.7 1.1 2 3.4 2.1.7 3.7-1.5.9-3.4 2.1-5.2 1.3" class="st74"/><path d="M165.3 19.6c.8-6 1.4-9.3-6.2-9.1-7.6-9.5-21.3-.8-16.2 5.2" class="st74"/><path d="M169.2 20.9c3-.7 4-3.2 3-6-1.5-4.5-2.6-1.5-5.2-2.4-.8.6-1.6.9-2.6 1.2-1.8-.3-1.6-1.9-3-2.6-2.5-1.2-4.3-.6-5.2-3.9" class="st74"/><linearGradient id="SVGID_23_" x1="82.155" x2="84.566" y1="89.287" y2="89.287" gradientTransform="rotate(180 109.624 64.5)" gradientUnits="userSpaceOnUse"><stop offset="0" stop-color="#ffedc4"/><stop offset=".322" stop-color="#ffe6b6"/><stop offset=".928" stop-color="#ffd592"/><stop offset="1" stop-color="#ffd38d"/></linearGradient><path fill="url(#SVGID_23_)" d="M136.7 37.6c-1.1 0-2.1 1.2-2 2.3s1.3 2.1 2.4 1.9"/><path fill="#d9edff" stroke="#93b4cc" d="M73.9 84.2h69.5V129H73.9V84.2z" opacity=".62"/><path d="M210.9 62.5c.7-6.3-5.9-9.9-13.8-11.3-7.9-1.4-14.1-.1-14.8 6.2s5.1 12.5 13 13.9 14.9-2.5 15.6-8.8z" class="st77"/><path d="M206.4 60.7c-.6-3.7-.3-7.6-.9-11.4-.7-4.3-2.9-4.9-5.7-7-1.6-1.2-1.9-1-3.4-.1-1.2.7-3.4 1.8-4.3 2.9-2.2 2.8-3.4 6-4.4 9.7-.2.7-.4 1.5-.6 2.2 0 .1 5.3 13.3 19.3 3.7z" class="st77"/><linearGradient id="SVGID_24_" x1="189.306" x2="193.894" y1="85.521" y2="97.501" gradientTransform="matrix(1 0 0 -1 0 129)" gradientUnits="userSpaceOnUse"><stop offset="0" stop-color="#ffcb67"/><stop offset="1" stop-color="#ca9732"/></linearGradient><path fill="url(#SVGID_24_)" stroke="#986632" stroke-width=".25" d="M189.7 57.2c.4-3.9-3.4-3.3-3.1-6.8.4.2.9.4 1.3.6-1-.5-2.7-3.8-1-4.2-1.8-2.4-1.3-6.3-1.3-9.5 1.8.7 3.2 4 3.6 6.1h.5c.7 1.1.6 2.5 0 3.5.1-.2.4-.5.6-.8 2 1.3.7 6.3-.7 7.7.2 1.1.5 2.2.6 3.2-.1 0-.5 0-.4-.1"/><linearGradient id="SVGID_25_" x1="209.67" x2="186.786" y1="61.716" y2="77.184" gradientTransform="matrix(1 0 0 -1 0 129)" gradientUnits="userSpaceOnUse"><stop offset="0" stop-color="#ffcb67"/><stop offset="1" stop-color="#ca9732"/></linearGradient><path fill="url(#SVGID_25_)" stroke="#986632" stroke-width=".25" d="M188 53.2s6.3 12 18 3.5l.2 4.5s-13 10.2-19.2-4.1c-.2-1.2 1-3.9 1-3.9z"/><path fill="none" stroke="#050200" stroke-width=".25" d="M192.5 44.7c3.1.7 4.5 5.8 7.7 6.4 5.1 1-1.8-6.4-1.7-7.9m-12.1 9.5c-2.7 1.6-2.3 6.6-.9 9.2 1.7 3 4.1 4.1 6.8 4.9 3 .9 5.9 2.4 9.1 1.6 2.2-.5 6.6-2.5 7.3-5.6" opacity=".43"/><path fill="none" stroke="#986632" stroke-width=".25" d="M189.1 54.2c1.4-3.5-1.7-11.8-2.8-15.2" opacity=".46"/><path d="M108.5 69.9l32.4-10v6.7l-32.3 10.8z" class="st82"/><path fill="#efdf8c" d="M92.9 54.8l15 14.4 33.9-10.6-4.6-2.4-12.4-8.9-30.6 6.9z"/><path d="M126.5 36.2l.7 8.8-14.8 2.8s-.6-2-1.2-2.9c-.6-.9-1-3-1-3l-.3-3.4 16.6-2.3z" class="st84"/><path d="M125.9 36.2l-2.7-.8-16.3 1.9s2.1.2 2.7 1c.6.8 16.3-2.1 16.3-2.1z" class="st85"/><path d="M111.8 39.1s13.3-2.5 13.7-1.7c.4.7.8 6.6.4 6.9-.3.3-13.2 3-13.5 2.2-.3-.9-.7-3.4-.7-4.5.1-1.3.1-2.9.1-2.9z" class="st86"/><path d="M106.9 37.3s1.1-.1 2.1.6c1.1.7.9.6.9.6l.3 3.4s-.5-.8-.7-1.3c-.1-.4-.2-.7-.7-1.9-.2-.5-1.9-.6-1.9-.6v-.8z" class="st87"/><path d="M138.2 53.7l-.5 2.3-30.8 8.5v-2.3z" class="st88"/><path d="M127.2 44.9l11 8.7-31.3 8.5-4.9-6.9-5.8-14.6 12.6-2.2 5.4 13.1-1.3-4z" class="st82"/><path fill="#897e48" d="M108.3 40.1l3.1 7.4-10.1 2-2.7-7.7z"/><path fill="#beaf72" d="M140.9 59.9v6.7l.9-.4v-7.6l-33.9 10.6.1 7.9.5.5h.5l-.5-7.7z"/><path fill="#d1c174" d="M93.2 68.6l15.1 9-.4-8.4-15-14.4z"/><path fill="#e7dc8f" d="M94.5 39.3l1.7 1.4 12.6-2.2-2.2-1.2z"/><path d="M94.5 54.8V39.3l1.7 1.4 5.6 14.1 5.1 7.4v3.4z" class="st85"/><path d="M137.2 56.4l-1.2 1.5-28.9 7.5h-.2v-1.1z" class="st87"/><path d="M109 28.8s1.8-.3 4.1-.5c2.3-.1 4.2-.7 4.4 0 .2.7.7 4.2.7 4.6 0 .3-9.3 1.1-9.3 1.1v-2.3c.1-2 .1-2.9.1-2.9z" class="st86"/><path d="M108.1 28.5l.9.3V34l-1.5-.6z" class="st85"/><path d="M116 27.5l1.4.5s-8.1.9-8.4.8c-.3-.1-.8-.2-.8-.2s3.1-.4 4.2-.6c1.2-.2 3.6-.5 3.6-.5z" class="st0"/><path d="M112.4 33.8v1.6h1.4v-1.8z" class="st84"/><path d="M111.9 35.1l.1 1.1h2.5v-1.1zm-.4 1.1v1.3h3.3v-1.3z" class="st84"/><path d="M107.5 47s.8-2.1.8-2.7c0-.6-.2-3.1-.8-4.1-.5-1-1.8-4-2.5-4.4-.7-.4-6.8 1.1-6.8 1.1s2.1 1 2.3 2c.2 1 1.1 3.6 1.1 4.6 0 1.1-.3 4.4-.3 4.4l3.7-.4 2.5-.5z" class="st31"/><path d="M112.4 47.8l2.3 4.5.6-.7-.8-3 12.6-2.3v-1.2z" class="st87"/><path d="M115.7 52.3l-1.3-3.8 13.1-2.5 3.6 3.1z" class="st88"/><path d="M109 53.7l5.5 6.4" class="st0"/><g class="st93"><path d="M107 54.5l.2 1.9-1.2.2-.2-2z" class="st94"/><path d="M105.8 54.6l.2 2-.3-.2-.2-2z" class="st95"/><path d="M106.7 54.3l.3.2-1.2.1-.3-.2z" class="st96"/></g><g class="st93"><path d="M108 55.3l.1 2-1.2.1-.2-1.9z" class="st94"/><path d="M106.7 55.5l.2 1.9-.3-.2-.2-1.9z" class="st95"/><path d="M107.7 55.1l.3.2-1.3.2-.3-.2z" class="st96"/></g><g class="st93"><path d="M108.8 56.3l.2 1.9-1.3.2-.1-2z" class="st94"/><path d="M107.6 56.4l.1 2-.3-.2-.1-2z" class="st95"/><path d="M108.5 56.1l.3.2-1.2.1-.3-.2z" class="st96"/></g><g class="st93"><path d="M109.1 54l.1 2-1.2.1-.2-1.9z" class="st94"/><path d="M107.8 54.2l.2 1.9-.3-.2-.2-1.9z" class="st95"/><path d="M108.8 53.8l.3.2-1.3.2-.3-.2z" class="st96"/></g><g class="st93"><path d="M110 54.8l.2 2-1.3.2-.1-2z" class="st94"/><path d="M108.8 55l.1 2-.3-.2-.1-2z" class="st95"/><path d="M109.7 54.7l.3.1-1.2.2-.3-.2z" class="st96"/></g><g class="st93"><path d="M110.8 55.8l.2 1.9-1.2.2-.2-1.9z" class="st94"/><path d="M109.6 56l.2 1.9-.4-.2-.1-1.9z" class="st95"/><path d="M110.5 55.6l.3.2-1.2.2-.3-.2z" class="st96"/></g><g class="st93"><path d="M122.9 51.8l.2 2-1.3.2-.1-2z" class="st94"/><path d="M121.7 52l.1 2-.3-.2-.2-2z" class="st95"/><path d="M122.6 51.7l.3.1-1.2.2-.4-.2z" class="st96"/></g><g class="st93"><path d="M123.8 52.7l.2 1.9-1.2.2-.2-2z" class="st94"/><path d="M122.6 52.8l.2 2-.3-.2-.2-1.9z" class="st95"/><path d="M123.5 52.5l.3.2-1.2.1-.3-.1z" class="st96"/></g><g class="st93"><path d="M124.7 53.6l.1 2-1.2.2-.2-2z" class="st94"/><path d="M123.4 53.8l.2 2-.3-.2-.2-2z" class="st95"/><path d="M124.4 53.4l.3.2-1.3.2-.3-.2z" class="st96"/></g><g class="st93"><path d="M120.7 52.1l.1 1.9-1.2.2-.2-2z" class="st94"/><path d="M119.4 52.2l.2 2-.3-.2-.2-2z" class="st95"/><path d="M120.4 51.9l.3.2-1.3.1-.3-.2z" class="st96"/></g><g class="st93"><path d="M121.6 52.9l.2 2-1.3.1-.1-1.9z" class="st94"/><path d="M120.4 53.1l.1 1.9-.3-.2-.1-1.9z" class="st95"/><path d="M121.3 52.7l.3.2-1.2.2-.3-.2z" class="st96"/></g><g class="st93"><path d="M122.4 53.9l.2 1.9-1.2.2-.2-2z" class="st94"/><path d="M121.2 54l.2 2-.3-.2-.2-2z" class="st95"/><path d="M122.1 53.7l.3.2-1.2.1-.3-.2z" class="st96"/></g><g class="st93"><path d="M127.4 50.6l.2 2-1.2.1-.2-1.9z" class="st94"/><path d="M126.2 50.8l.2 1.9-.3-.2-.2-1.9z" class="st95"/><path d="M127.1 50.4l.3.2-1.2.2-.3-.2z" class="st96"/></g><g class="st93"><path d="M128.4 51.4l.1 2-1.2.2-.2-2z" class="st94"/><path d="M127.1 51.6l.2 2-.3-.2-.2-2z" class="st95"/><path d="M128.1 51.3l.3.1-1.3.2-.3-.2z" class="st96"/></g><g class="st93"><path d="M129.2 52.4l.2 2-1.3.1-.1-1.9z" class="st94"/><path d="M128 52.6l.1 1.9-.3-.2-.1-1.9z" class="st95"/><path d="M128.9 52.2l.3.2-1.2.2-.3-.2z" class="st96"/></g><g class="st93"><path d="M125 51.2l.2 1.9-1.2.2-.2-2z" class="st94"/><path d="M123.8 51.3l.2 2-.3-.2-.2-2z" class="st95"/><path d="M124.7 51l.3.2-1.2.1-.3-.2z" class="st96"/></g><g class="st93"><path d="M126 52l.1 2-1.2.1-.2-1.9z" class="st94"/><path d="M124.7 52.2l.2 1.9-.3-.2-.2-1.9z" class="st95"/><path d="M125.7 51.8l.3.2-1.3.2-.3-.2z" class="st96"/></g><g class="st93"><path d="M126.8 53l.2 1.9-1.3.2-.1-2z" class="st94"/><path d="M125.6 53.1l.1 2-.3-.2-.1-2z" class="st95"/><path d="M126.5 52.8l.3.2-1.2.1-.3-.2z" class="st96"/></g><g class="st93"><path d="M131.1 49.7l.2 2-2 .2-.2-1.9z" class="st97"/><path d="M129.1 50l.2 1.9-.6-.3-.1-1.9z" class="st98"/><path d="M130.6 49.4l.5.3-2 .3-.5-.3z" class="st99"/></g><g class="st93"><path fill="#5f9a49" d="M132 50.4l.1 1.9-2 .3-.1-1.9z"/><path fill="#36582a" d="M130 50.7l.1 1.9-.5-.3-.1-1.9z"/><path fill="#457035" d="M131.5 50.1l.5.3-2 .3-.5-.3z"/></g><path d="M101.9 38.5l3.9-.5m-3.7 1.7l4-.5m-3.5 1.7l4-.5m-3.6 1.8l3.9-.5m-3.9 1.8l3.9-.5m-3.9 1.8l3.9-.5" class="st0"/><g class="st93"><path d="M132.8 51l.2 2-2 .2-.2-1.9z" class="st97"/><path d="M130.8 51.3l.2 1.9-.5-.3-.2-1.9z" class="st98"/><path d="M132.3 50.7l.5.3-2 .3-.5-.3z" class="st99"/></g><text class="st103 st104" font-size="3.187" transform="matrix(.898 0 0 1 111.917 31.483)">280</text><text class="st103 st104" font-size="3.191" transform="matrix(.8767 -.184 .2165 .9763 119.116 42.426)">280</text><path d="M129.1 50.6v.8l2.1-.3v-.8z" class="st107"/><path d="M128.6 51.1l.5.3v-.8l-.5-.4z" class="st108"/><path d="M131.2 50.3l-.6-.3-2 .2.5.4z" class="st109"/><path fill="#538548" d="M130 51.2v.9l2.1-.3V51z"/><path fill="#426c3d" d="M129.5 51.7l.5.4v-.9l-.5-.4z"/><path fill="#395a33" d="M132.1 51l-.6-.3-2 .1.5.4z"/><path d="M130.8 51.9v.9l2.1-.3v-.9z" class="st107"/><path d="M130.3 52.4l.5.4v-.9l-.5-.4z" class="st108"/><path d="M132.9 51.6l-.7-.3-1.9.2.5.4z" class="st109"/><path d="M126.3 51.4v.9l1.2-.3v-.8z" class="st113"/><path d="M126 51.9l.3.4v-.9l-.3-.3z" class="st114"/><path d="M127.5 51.2l-.4-.3-1.1.2.3.3z" class="st115"/><path d="M127.3 52.3v.9l1.2-.3v-.8z" class="st113"/><path d="M127 52.8l.3.4v-.9l-.3-.3z" class="st114"/><path d="M128.5 52.1l-.3-.3-1.2.2.3.3z" class="st115"/><path d="M128.1 53.3v.9l1.2-.3V53z" class="st113"/><path d="M127.8 53.8l.3.4v-.9l-.3-.4z" class="st114"/><path d="M129.3 53l-.3-.3-1.2.2.3.4z" class="st115"/><path d="M123.9 52v.9l1.2-.3v-.8z" class="st113"/><path d="M123.6 52.5l.3.4V52l-.3-.3z" class="st114"/><path d="M125.1 51.8l-.3-.3-1.2.2.3.3z" class="st115"/><path d="M124.8 52.9v.9l1.3-.3v-.9z" class="st113"/><path d="M124.5 53.4l.3.4v-.9l-.3-.4z" class="st114"/><path d="M126.1 52.6l-.4-.3-1.2.2.3.4z" class="st115"/><path d="M125.6 53.8v.9l1.3-.3v-.9z" class="st113"/><path d="M125.3 54.3l.3.4v-.9l-.3-.4z" class="st114"/><path d="M126.9 53.5l-.4-.2-1.2.1.3.4z" class="st115"/><path d="M121.7 52.7v.9l1.2-.3v-.9z" class="st113"/><path d="M121.3 53.2l.4.4v-.9l-.4-.4z" class="st114"/><path d="M122.9 52.4l-.4-.3-1.2.2.4.4z" class="st115"/><path d="M122.7 53.5v.9l1.2-.3v-.8z" class="st113"/><path d="M122.3 54.1l.4.3v-.9l-.4-.3z" class="st114"/><path d="M123.9 53.3l-.4-.3-1.2.2.4.3z" class="st115"/><path d="M123.5 54.5v.9l1.2-.3v-.9z" class="st113"/><path d="M123.2 55l.3.4v-.9l-.3-.4z" class="st114"/><path d="M124.7 54.2l-.4-.3-1.1.2.3.4z" class="st115"/><path d="M119.5 53v.9l1.2-.3v-.9z" class="st113"/><path d="M119.2 53.5l.3.4V53l-.3-.4z" class="st114"/><path d="M120.7 52.7l-.4-.3-1.1.2.3.4z" class="st115"/><path d="M120.5 53.9v.9l1.2-.3v-.9z" class="st113"/><path d="M120.2 54.4l.3.4v-.9l-.3-.4z" class="st114"/><path d="M121.7 53.6l-.4-.3-1.1.2.3.4z" class="st115"/><path d="M121.3 54.8v.9l1.2-.3v-.8z" class="st113"/><path d="M121 55.3l.3.4v-.9l-.3-.4z" class="st114"/><path d="M122.5 54.6l-.3-.3-1.2.1.3.4z" class="st115"/><path d="M110.2 54.2v.9l1.2-.3v-.9z" class="st113"/><path d="M109.9 54.7l.3.4v-.9l-.3-.4z" class="st114"/><path d="M111.4 53.9l-.3-.3-1.2.2.3.4z" class="st115"/><path d="M111.1 55v.9l1.3-.3v-.8z" class="st113"/><path d="M110.8 55.5l.3.4V55l-.3-.4z" class="st114"/><path d="M112.4 54.8l-.4-.3-1.2.1.3.4z" class="st115"/><path d="M112 56v.8l1.2-.3v-.8z" class="st113"/><path d="M111.7 56.5l.3.3V56l-.3-.4z" class="st114"/><path d="M113.2 55.7l-.4-.3-1.1.2.3.4z" class="st115"/><path d="M108 54.8v.9l1.2-.3v-.8z" class="st113"/><path d="M107.7 55.3l.3.4v-.9l-.3-.4z" class="st114"/><path d="M109.2 54.6l-.4-.3-1.1.1.3.4z" class="st115"/><path d="M109 55.7v.9l1.2-.3v-.9z" class="st113"/><path d="M108.7 56.2l.3.4v-.9l-.3-.4z" class="st114"/><path d="M110.2 55.4l-.4-.2-1.1.1.3.4z" class="st115"/><path d="M109.8 56.6v.9l1.2-.3v-.8z" class="st113"/><path d="M109.5 57.1l.3.4v-.9l-.3-.3z" class="st114"/><path d="M111 56.4l-.4-.3-1.1.2.3.3z" class="st115"/><path d="M105.8 55.1v.9l1.2-.3v-.8z" class="st113"/><path d="M105.5 55.6l.3.4v-.9l-.3-.3z" class="st114"/><path d="M107 54.9l-.3-.3-1.2.2.3.3z" class="st115"/><path d="M106.8 56v.9l1.2-.3v-.8z" class="st113"/><path d="M106.5 56.5l.3.4V56l-.3-.4z" class="st114"/><path d="M108 55.8l-.3-.3-1.2.1.3.4z" class="st115"/><path d="M107.6 57v.8l1.2-.3v-.8z" class="st113"/><path d="M107.3 57.5l.3.3V57l-.3-.4z" class="st114"/><path d="M108.8 56.7l-.3-.3-1.2.2.3.4z" class="st115"/><path d="M152.9 55.5s-8.1 3-8.8 3.2-4.4 1.7-6 1.2-8-2-8-2l-2.5-.9s-1.2 2.8-.6 3.8c.6.9 1.9-.2 2.7 2 .8 2.1 8.5 3.6 8.5 3.6s3.4.7 5 .5 6.3-.4 7.7-.7c1.4-.3 4.7-.1 4.7-.1" class="st69"/><linearGradient id="SVGID_26_" x1="106.901" x2="115.821" y1="74.755" y2="74.755" gradientTransform="rotate(171.274 118.492 67.417)" gradientUnits="userSpaceOnUse"><stop offset="0" stop-color="#ffedc4"/><stop offset=".322" stop-color="#ffe6b6"/><stop offset=".928" stop-color="#ffd592"/><stop offset="1" stop-color="#ffd38d"/></linearGradient><path fill="url(#SVGID_26_)" d="M123.2 58.5c-1.3.3-2.5 1-2.8 1.9-.4.9.2 1.9 1.3 2.2.7.2 1.5.2 2.3 0 1.3-.2 2.6-.8 3.3-1.6l.6-.9c.3-.6.7-1.3.8-2 .1-.4.1-.8 0-1.2-.2-.6-.6-1.3-1.4-1.5-.8-.3-2.1 0-2.4.7s.4 1.5-.3 2c-.5.2-1 .3-1.4.4z"/><path fill="#234c87" d="M148.1 49.2L147 53l14.1-6.5-2.4-2.3-10.6 5zm-19.5 9l-1.3 2.8 2.5 1.8.3-4.9-1.5.3zm35.3 17.1l.5 2.2-19.3-.9v-2l18.8.7z"/><path d="M60.6 63s.6 10.6.8 10.8c.1.1 10.4-4 10.8-3.8.4.1 6.7 4.6 6.9 4.6s0 .1.3.3c.3.1.4-2.4.5-4.2s.1-4 .3-4.3c.1-.4.4-1.1.4-1.3-.1-.1 0-1.1 0-1.1s-6.9-4.3-8.1-4.4-11.7 3.3-11.9 3.4z" class="st63"/><path d="M79.9 64.5s-6.8-3.7-7.4-3.8h-.6c-.6 0-1.3 0-2 .2-.8.2-6.8 2-6.8 2s-1.6.5-1.8.5h-.1s9.1-3 10.6-3c1.4 0 7.9 3.7 8.1 3.8.2.2 0 .3 0 .3z" class="st64"/><path d="M64.6 72.2s-2.8 1.6-3 1.3c-.2-.4-.8-9.5-.7-9.9" class="st65"/><path d="M61.6 67.8s1.3-.6 1.4-.5 0 .4 0 .4-.2.1-.5.1-.7.1-.7.1l-.2-.1zm1.2-1.3s-.7.3-.9.2c-.3 0-.4.1-.4 0s.4-.1.7-.2c.3-.1.5-.2.5-.2h.1v.2z"/><path d="M65.3 73.2l8.4-3.6s-2-7.8-2.1-8.2c-.1-.4-.4-.6-.5-.6-.1 0-9 3-9.2 3s.4.4.5.9c.1.4 1.5 4.5 1.5 4.9 0 .2 1.4 3.6 1.4 3.6z" class="st63"/><path d="M70.9 60.9s.3.1.4.6c.1.4 1.7 6.5 1.8 7.1.1.6.3 1.1.3 1.1L65.5 73s-1.6-4.7-1.9-5.6c-.4-.9-.9-2.8-1.1-3-.1-.2-.5-.6-.5-.6" class="st66"/><path d="M79.6 65.1s-6.8-3.8-7.2-3.8c-.3 0-.6-.2-.6-.2l-.4.2-.1-.3s.4-.2.8 0 7.4 3.8 7.4 3.8l.1.3z" class="st64"/><path d="M62.6 65.2s-.5-.1-.7 0c-.1.1-.5 0-.5 0v-.1l.6-.1.4-.4c0-.1.2.6.2.6z"/><path d="M72.2 62.4s7 3.7 7.2 3.8c.1.1.1.1 0 .1S75.5 64.2 75 64c-.5-.3-1.9-1.1-2.2-1.1-.3-.1-.5-.3-.6-.3 0 0-.1-.3 0-.2zm7.1 5.3l-4.2-2.1c-.8-.5-2.1-1.2-2.3-1.3l-.6-.3s-.1-.2.1-.2 1.3.9 2.3 1.3c.9.4 1.5.8 2.2 1.1.6.4 1.8 1.1 2.1 1.1l.4.2v.2zm-.2 1.3s-2.6-1.1-3.1-1.4c-.6-.4-2.9-1.8-3-1.9-.1-.1-.4-.2-.4-.2s-.1-.3.1-.1c.3.1 1 .6 1.4.9.5.3 1 .6 1.6.9.6.4 1.1.7 1.4.9.3.1 1 .4 1.1.5.1.1.4.1.5.2.1.1.2.1.2.1v.1z" class="st64"/><path d="M79.9 64.1s-.4 10.1-.9 10.2c0 0 1-10 1-10.1.1-.1-.1-.1-.1-.1z" class="st67"/><path d="M71.2 62.2c-.4.1-.9.4-1.1.7-.4.4-.6.8-1.1 1.1-.4.4-.4.6-.5 1.1-.1.6-.5.9-.9 1.3-.6.6-1.1 1.6-1.3 2.3-.2.6-.1.7.3 1.1.3.4.5.7.6 1.1.2 1-.7 1.3-1.4 1.7-.4.2-.1.3-.2-.2-.1-.4-3.1-8.4-3.2-8.6l8.8-3s.4.4.5.6c0 .4-.5.8-.5.8zm2.6 8.1c.3-.2.4.2.6.4s.5.2.8.3h.8c.4-.1.5-.3.8-.4.6-.2.9 0 1.3-.8.1-.4.2-.4-.2-.7-.2-.1-.6-.2-.7-.4.4-.4 1.1.3 1.6.1.8-.3.5-.9.6-1.5.1-.6-.1-1.2.2-1.7.1-.3.3-.4.4-.8.1-.3-.3-.8.2-.5l-.9 10.8-.3-.3-5.3-3.6.1-.9z" class="st51"/><path d="M78.9 74.3s-5-3.5-5.1-3.6c-.1-.1-.3-.4-.1-.3.5.4 1.6 1.3 2.6 1.9.9.6 1.7 1.2 1.8 1.3.1.1.6.4.6.4s.2.2.2.3c0-.1 0 0 0 0z" class="st66"/></g></switch></svg>
