<svg xmlns="http://www.w3.org/2000/svg" version="1.0" viewBox="0 0 135.5 67.3"><switch><g><g stroke-width=".25"><ellipse cx="67.7" cy="40.5" fill="#4363AD" stroke="#4363AD" rx="67.7" ry="25.3"/><ellipse cx="67.2" cy="41.2" fill="#FFF" stroke="#FFF" rx="61.6" ry="18.4"/></g><path fill="#DE9B2D" d="M118.3 48.9s.3-4.7 0-5.6c-.3-.8-29.3 5-29.3 5l-10.7.6L55 53.2v10l63.3-14.3z"/><path fill="#DE9B2D" d="M17.8 41c.6.3 37.2 22.2 37.2 22.2l.9-6.7-36.7-21.3-1.4 5.8z"/><path fill="#F6AF1D" d="M66 55c3.5-.2 6.6.3 10-.4 1.3-.2 3.4.1 4.3-1.2.4-.7-.3-1.1.4-1.8.5-.6 1.7-.5 2.4-.4.9.1 1.6.4 2.3.9 1.2.8.2 1.1 1.9.9 2.1-.3 4.3-1.6 6.4-2.1 2.7-.7 5.3-1.7 7.9-2.6 3.1-1 5.9-1.2 8.6-3.1 2.3-1.7 6-1.5 8.8-1.9 1.4-.2 2.7-.5 4.1-.7 1.3-.2 3.3.2 4.3-.9-.7-1.5-2.6-2.2-3.8-3.2-1.3-1-2.3-3-4.1-3.4-1.5-.4-3.2.5-4.6.8-1.6.4-3.1.5-4.7.9-3.3.7-6.9 2.5-10 3.8-4.3 1.7-8.2 4.1-12.8 5.2C80 47.6 72 47 64.5 47.4c-3.1.1-6.2-.2-9-1.7-1.5-.8-2.6-1.1-4.2-1.5-1.7-.4-2.8-1.5-4.4-2-2-.7-4.8-.4-7-.6-2.8-.3-4-.6-5.1-3.3-2.2-5.4-8-7-12.4-10.3 1.3 1.2-6.1 5.5-6.8 6.6.6.8 1.9 1.2 2.8 1.9 1.1.8 2.1 1.7 3.1 2.5 1.3 1 3.9 3.5 5.6 3.7.9.1 2-1.2 2.7-1 1.4.4.7 1.8 1.1 2.7.7 1.7 3.7 2.2 5.3 3 2.1 1.1 3.5 2.7 5.1 4.4 2.1 2.1 3.1.7 5.6.4 3.3-.4 1.9 2.6 4.2 4 .8.5 2 .9 2.9 1.4 4.3 2.1 7.7-2.4 12-2.6z"/><path fill="none" stroke="#000" d="M78.1 38.5c-1.3.8 0 2.1.9 2.4 1.1.3 2.4-.1 3.5-.3 2.2-.4 4.5-1.8 4-4.6-1.2.2-2.6 1.2-3.9 1.5-1.4.4-2.8.8-4.2 1.1m11.1-2.4c-1.5 1.7 1.8 2.5 2.9 2.4 1.8-.2 3.2-1 3.7-2.8.7-2.5-.7-2-2.4-1.2-1.6.7-3.2 1.6-4.8 2.2m-19.4 4.1c.6.9 2.3 1 3.3.6 1.3-.5 1.5-1.8 2.1-2.9-1.1-.2-5.9 1.2-5.2 2.5"/><path fill="#92C05D" d="M52.3 39c.1-1.4-1.9-2.5-2.8-3.4-1.2-1.2-1.9-1.9-2.9-3.1-2.1-2.7-6-3.5-8.3-5.8-1.9-1.9-5.1-5.1-7.8-5.4-2.2-.3-4.3.4-6.5.1-2-.2-3.5-.4-5.5.4-1.5.6-4.6 2.1-5.2 3.7-1.3 3.6 7.6 1 8.8 1-1.9 1.7-6.2 2.3-6.1 5.5 3.5 1.4 6.3-.3 9.7-1.2.1 1.9-2.5 2.4 0 4.2.8.6 1.7 1 2.7 1.1.6 0 2.2-.6 2.7-.3.9.6-.5 1.7-.1 2.6.4.9 1.7 1.1 2.5 1.3 1.9.3 3.6-.4 5.5-.6.2 1.3-1.4 2.6-1.6 4-.2 2.1 1.3 2.7 3.1 3 1.8.3 2.9 0 4.6-.6 1.2-.5 2.9-1 4.1-.2-.2 1.1-1.4 2-1.3 3.1.1 1.3 1.8 1.8 2.9 1.9 2.8.3 4.6-.9 7.1-1.9 1.3 1.4-.5 3.9 2.5 4.1 2.6.2 3.2-1.3 3.9-3.2.6.7.6 1.7 1.7 2.1.5.2 2.6.1 3.1-.1 1.5-.7 2.8-4.9 4.5-4.5 1.1.2 1.1 1.9 1.7 2.6.7.9 2 1.5 3.1 1.3 1.1-.2 1.8-1 2.4-1.7.6-.7.7-2.5 1.4-2.8.9-.5 2.1.8 2.7 1.2 1.1.7 1.9 1 3.1 1.4 1.9.5 4.3 1 5.9-.6 1.2-1.3.9-3.4 2.1-4.7 1.4-1.4 3.6 0 5.4-.5 1.9-.5 3.6-2 5.5-1.3 1.1.4 1.4.9 2.7 1 1 0 2.3.3 3-.7.6-1-.1-1.4.2-2.4.4-1.8 2.5-1.4 4.1-1.3 1.3.1 4.4.8 2.8-1.5 2.4-1.1 5.3 2.1 7.8 1 1.5-.6 1.7-2.1.7-3.4-1-1.2-2.3-1.1-3.6-1.4-.4-1.6 2.5-1.5-.2-3.3-1.3-.8-2.7-1-4.2-1.2-2.8-.3-5.3-1.8-8.3-1.1-1.8.5-3.2 1.8-5.1 2.2-1.5.3-3 .5-4.5.8-3.5.7-6.9 1.2-10.2 2.9-4.3 2.2-8.1 3.8-12.8 4.9-2.7.6-5.5.8-8.3 1.2-3.3.5-6.3.6-9.6.4-2.9-.1-5.9-2-8.8-1.1"/><path fill="#89B554" d="M25 24c1.9 1.4-3.8 6.7-3.5 9.6 3.7.5 6.1-7.3 9.9-3.7-1.1 2.9-4.9 5.4-3.9 8.9 4.4.3 4.9-7.8 10.2-4.1-.3 2.6-3.4 4.9-4.2 7.6 3.5 2.5 5.1-6.4 9.4-5.2 4.7 1.3.2 7.2 1.9 9.9 2.9-1.1 3.9-4.4 7.2-5.1 5-1 3.3 1.8 3.3 5.2 0 2.3.8 6.9 3.5 3.2.3-.4-.6-3.3-.1-4.5.8-1.5 2.5-2.6 4.1-2.6 1 2.3 1.8 5.3 2.3 7.8 2.5-2.2 1.8-6.7 6.3-7.3.1 1.9-.9 4 1 5.4 3.2-1.4 2.1-7.3 5.5-8 4.1-.8 2.4 6 5.5 6.8 2.1-2.4 2.6-12.2 8.5-8.4 1.5.9 2 6.7 4.9 5.7 2.1-.7.5-5.3 2.7-6.9 5-3.5 5.7 9.8 9.6 4 1.3-1.9-1.9-5.1 2-6.5 3.7-1.3 3.4 2.9 6.1 3.8 2.6-3.2-2.6-4.4-2-7.5 1.5.3 4.9 3 6 2.9 2.6-.3 3.5-3 1.4-4.8-.2-.2-6.5-1.6-7-1.7-2.5-.2-4.8.7-7.2 1.7-5 2.1-9.6 2.6-14.8 3.9-5.3 1.3-8.8 4.9-14.4 5.2-4.5.2-8.7-.1-13.1.3-4.6.4-9.3.3-13.7-1.2-4.5-1.6-10.1-4.8-14-7.6-4.5-3.1-6.2-8.7-12.9-8"/><path fill="none" stroke="#000" d="M36.9 26.1c-2.1-.8.4 3.9.9 4.5.8.8 1.2 1.3 2.4 1 .7-.2 2.1-1.1 2.5-1.7-.6-.9-2-1.8-2.8-2.5-.6-.6-2.2-1.7-3-1.8m7.8 6c-.2 2 .5 3.7 2.8 2.9 1.7-.5.9-.9-.1-1.7-.6-.5-1.5-2.4-2.4-1.9"/><path fill="#DB6842" d="M101.6 32.6c-2.8 10.1-15.9 9.8-24.3 10.1-4.1.1-9.5.9-13.1-1.6-1.6-1.1-.4-1.4.9-1.7 1.1-.3 2.3-.7 3.4-.9 2.3-.5 4.7-1.1 7.1-1.7 4.4-1 8.7-1.9 13.2-2.6 2.2-.3 4.4-1.1 6.6-1.4.9-.1 6.1-1.3 5.9-.1"/><path fill="#C44E2C" d="M51.6 36.8c-.9 0-1.9.3-2.8.3-1.2 0-2.5 0-3.7-.2-1.7-.3-4.7-.3-6.1-1.3-3.5-2.3-5.8-6-6.2-10.2-.1-.9 0-2 .9-2.6 1-.7 1.9.5 2.7 1.1 1.8 1.3 3.6 2.6 5.3 4 .9.7 1.4 1.6 2.4 2.3 1 .7 1.9 1.3 2.8 2 .9.8 1.8 1.5 2.7 2.4.7.7 2.1 1.4 2.4 2.5"/><path fill="#F9CC73" d="M32.3 16.9l24.2 18.4 60.7-14.4S82.4 3.8 81.7 3.6c-.6-.2.8-.6 1.2-1.6.5-1.1-1.3-2.5-8.2-1.7-7 .8-22 2-26.6 3.8-4.6 1.7-21.7 7.4-22.9 8.5-1.3 1.1-3.1 3.8-1.4 4.1 1.7.2 8.5.2 8.5.2z"/><path fill="#DE9B2D" d="M56 42l.4-6.8 61.9-14.9v8.2z"/><path fill="#DE9B2D" d="M23.2 16.2v5.4s4.1 1.6 6.7 1.9c2.7.3 26.1 19.7 26.1 19.1 0-.6.5-7.4.5-7.4S33.4 16.9 32.3 16.9c-1.1 0-9.1-.7-9.1-.7z"/><g fill="#FBECBF"><path d="M61.6 15.7c-.8.9-2.3 1.5-2.5 3.1 1.6 1.4 3-.6 3.7-2.1-.1-.4-.4-.7-.8-.7m7.5-2.5c.4 0 .6.1.7.4-.6 1.1-2.1 1.2-3 .2.4-.9 1.1-1.1 2.1-.6m-6.1-6.7c-.4.2-.5.5-.4.9 1.7.6 3.4-1.2 1.1-1.5m22.6 7.5c.8.1 1.4.5 1.4 1.3-.9.7-2.2.2-2.1-1 .3-.2.7-.3 1.1-.3m-15.3.4c.7-.2 1.3 0 1.8.4-.6 1.5-3 1-3-.7.3-.3.7-.3 1.1-.2"/><path d="M69 11.9c1.2-.3 2.1.4 1.7 1.6-1.3.4-2.1-.6-1.7-1.9M55.6 7.9c-.8.4-2.4.7-2.5 1.3 1.7.6 3-.3 3.8-.9-.1-.2-.3-.3-.8-.3m24.8-.1c-.4.4-1.2.7-1.3 1.4.9.7 1.6-.3 1.9-1 0-.2-.2-.3-.4-.3m-12.3-.7c.9-1 2.5-.1 1.6 1.1-.8 1.2-2.7-.4-1.6-1.6m11.3 12.5c.4 0 .6.1.7.5-.6 1.1-2.1 1.2-3 .2.4-.9 1.1-1.1 2.1-.6m2.3.4c.7-.2 1.3 0 1.8.4-.6 1.5-3 1-3-.7.3-.3.7-.3 1.1-.2"/><path d="M79.6 17.6c1.2-.3 2.1.4 1.7 1.6-1.3.4-2.1-.6-1.7-1.9M61.7 9.4c-.8.4-2.4.7-2.5 1.3 1.7.6 3-.3 3.8-.9-.1-.2-.3-.3-.8-.3m24.7-.2c-.4.4-1.2.7-1.3 1.4.9.7 1.6-.3 1.9-1 0-.2-.2-.3-.4-.3m-12.3-.6c.9-1 2.5-.1 1.6 1.1-.8 1.2-2.7-.4-1.6-1.6m-4.3 11.2c.8.1 1.4.5 1.4 1.3-.9.7-2.2.2-2.2-1 .3-.2.7-.3 1.1-.3m-14.5 4c.8.1 1.4.5 1.4 1.3-.9.7-2.2.2-2.2-1 .3-.2.7-.3 1.1-.3m11.8 1.9c.8.1 1.4.5 1.4 1.3-.9.7-2.2.2-2.2-1 .3-.2.7-.3 1.1-.3M63.6 5.3c.8.1 1.4.5 1.4 1.3-.9.7-2.2.2-2.2-1 .3-.2.7-.3 1.1-.3M49 10.1c.8.1 1.4.5 1.4 1.3-.9.7-2.2.2-2.1-1 .3-.2.7-.3 1.1-.3m-8 4.8c.8.1 1.4.5 1.4 1.3-.9.7-2.2.2-2.1-1 .3-.2.7-.3 1.1-.3m7.6 12.9c.8.1 1.4.5 1.4 1.3-.9.7-2.2.2-2.1-1 .3-.2.7-.3 1.1-.3m27.7-2.4c.8.1 1.4.5 1.4 1.3-.9.7-2.2.2-2.1-1 .3-.2.7-.3 1.1-.3m10-6.4c.8.1 1.4.5 1.4 1.3-.9.7-2.2.2-2.1-1 .3-.2.7-.3 1.1-.3m-41.5-2.8c.8.1 1.4.5 1.4 1.3-.9.7-2.2.2-2.2-1 .3-.2.7-.3 1.1-.3m.8 6.4c.8.1 1.4.5 1.4 1.3-.9.7-2.2.2-2.2-1 .3-.2.7-.3 1.1-.3M77.2 6c.8.1 1.4.5 1.4 1.3-.9.7-2.2.2-2.2-1 .3-.2.7-.3 1.1-.3m9.3 17.5c.8.1 1.4.5 1.4 1.3-.9.7-2.2.2-2.1-1 .3-.2.7-.3 1.1-.3m-11.9-1.6c.8.1 1.4.5 1.4 1.3-.9.7-2.2.2-2.1-1 .3-.2.7-.3 1.1-.3m.7-6.7c.8.1 1.4.5 1.4 1.3-.9.7-2.2.2-2.1-1 .3-.2.7-.3 1.1-.3m-18.2-1.9c.8.1 1.4.5 1.4 1.3-.9.7-2.2.2-2.1-1 .3-.2.7-.3 1.1-.3m6.5 3.7c.8.1 1.4.5 1.4 1.3-.9.7-2.2.2-2.1-1 .3-.2.7-.3 1.1-.3M85.5 6.2c.8.1 1.4.5 1.4 1.3-.9.7-2.2.2-2.1-1 .3-.2.7-.3 1.1-.3M40.3 21.1c.8.1 1.4.5 1.4 1.3-.9.7-2.2.2-2.1-1 .3-.2.7-.3 1.1-.3m40.5-8.2c.8.1 1.4.5 1.4 1.3-.9.7-2.2.2-2.2-1 .3-.2.7-.3 1.1-.3M56.7 5.3c.8.1 1.4.5 1.4 1.3-.9.7-2.2.2-2.1-1 .3-.2.7-.3 1.1-.3m-3.2 12.9c.8.1 1.4.5 1.4 1.3-.9.7-2.2.2-2.1-1 .3-.2.7-.3 1.1-.3M50.5 6.1c.8.1 1.4.5 1.4 1.3-.9.7-2.2.2-2.1-1 .3-.2.7-.3 1.1-.3m11.6 16.5c.8.1 1.4.5 1.4 1.3-.9.7-2.2.2-2.2-1 .3-.2.7-.3 1.1-.3m9.9-19.3c.8.1 1.4.5 1.4 1.3-.9.7-2.2.2-2.1-1 .3-.2.7-.3 1.1-.3"/></g><path fill="#F3DA9C" d="M74 13.4c-.8.9-2.3 1.5-2.5 3.1 1.6 1.4 3-.6 3.7-2.1-.1-.4-.3-.7-.8-.7M60.8 5.6c.4 0 .6.1.7.4-.6 1.1-2.1 1.2-3 .2.4-.9 1.1-1.1 2.1-.6m24.3 4.7c-.3.2-.5.5-.4.9 1.7.6 3.4-1.2 1.1-1.5M56.1 21.6c.8.1 1.4.5 1.4 1.3-.9.7-2.2.2-2.2-1 .3-.2.7-.3 1.1-.3M55 11.9c.7-.2 1.3 0 1.8.4-.6 1.5-3 1-3-.7.3-.3.7-.3 1.1-.2m7.7 19.7c1.2-.3 2.1.4 1.7 1.6-1.3.4-2.1-.6-1.7-1.9m33.6-14.9c-.8.4-2.4.7-2.5 1.3 1.7.6 3-.3 3.8-.9-.1-.2-.3-.3-.8-.3M67 29.7c-.4.4-1.2.7-1.3 1.4.9.7 1.6-.3 1.9-1 0-.2-.2-.3-.4-.3m-13-.1c.9-1 2.5-.1 1.6 1.1-.8 1.2-2.7-.4-1.6-1.6m21.4-10.8c.4 0 .6.1.7.4-.6 1.1-2.1 1.2-3 .2.4-.9 1.1-1.1 2.1-.6m-43.1-3.2c.7-.2 1.3 0 1.8.4-.6 1.5-3 1-3-.7.3-.3.7-.3 1.1-.2M36 9.8c1.2-.3 2.1.4 1.7 1.6-1.3.4-2.1-.6-1.7-1.9m66.3 7.8c-.8.4-2.4.7-2.5 1.3 1.7.6 3-.3 3.8-.9-.1-.2-.3-.3-.8-.3m3.9 2c-.4.4-1.2.7-1.3 1.4.9.7 1.6-.3 1.9-1 0-.2-.2-.3-.4-.3m-34.6 8.2c.9-1 2.5-.1 1.6 1.1-.8 1.2-2.7-.5-1.6-1.6M42.6 19c.8.1 1.4.5 1.4 1.3-.9.7-2.2.2-2.1-1 .3-.2.7-.3 1.1-.3"/><path fill="#F3DA9C" d="M107.3 19.8c.8.1 1.4.5 1.4 1.3-.9.7-2.2.2-2.2-1 .3-.2.7-.3 1.1-.3m-55.7-5.5c.8.1 1.4.5 1.4 1.3-.9.7-2.2.2-2.1-1 .3-.2.7-.3 1.1-.3m10.9 12c.8.1 1.4.5 1.4 1.3-.9.7-2.2.2-2.1-1 .3-.2.7-.3 1.1-.3m26-8.2c.8.1 1.4.5 1.4 1.3-.9.7-2.2.2-2.1-1 .3-.2.7-.3 1.1-.3m-8 4.8c.8.1 1.4.5 1.4 1.3-.9.7-2.2.2-2.1-1 .3-.2.7-.3 1.1-.3M78 24.7c.8.1 1.4.5 1.4 1.3-.9.7-2.2.2-2.1-1 .3-.2.7-.3 1.1-.3m-14.9-12c.8.1 1.4.5 1.4 1.3-.9.7-2.2.2-2.2-1 .3-.2.7-.3 1.1-.3M49.5 26.4c.8.1 1.4.5 1.4 1.3-.9.7-2.2.2-2.1-1 .3-.2.7-.3 1.1-.3m37.5-2.3c.8.1 1.4.5 1.4 1.3-.9.7-2.2.2-2.2-1 .3-.2.7-.3 1.1-.3m-4.6-6.4c.8.1 1.4.5 1.4 1.3-.9.7-2.2.2-2.2-1 .3-.2.7-.3 1.1-.3M59.7 29.4c.8.1 1.4.5 1.4 1.3-.9.7-2.2.2-2.2-1 .3-.2.7-.3 1.1-.3M80.9 6.1c.8.1 1.4.5 1.4 1.3-.9.7-2.2.2-2.2-1 .3-.2.7-.3 1.1-.3m-2 7.4c.8.1 1.4.5 1.4 1.3-.9.7-2.2.2-2.1-1 .3-.2.7-.3 1.1-.3m-37-5.9c.8 0 1.4.5 1.4 1.3-.9.7-2.2.2-2.1-1 .3-.2.7-.3 1.1-.3m56.2 13.6c.8.1 1.4.5 1.4 1.3-.9.7-2.2.2-2.1-1 .3-.2.7-.3 1.1-.3m-35.8-2.7c.8.1 1.4.5 1.4 1.3-.9.7-2.2.2-2.1-1 .3-.2.7-.3 1.1-.3m14.1-17c.8.1 1.4.5 1.4 1.3-.9.7-2.2.2-2.1-1 .3-.2.7-.3 1.1-.3M66.4 22c.8.1 1.4.5 1.4 1.3-.9.7-2.2.2-2.2-1 .3-.2.7-.3 1.1-.3m-18.2-3.8c.8.1 1.4.5 1.4 1.3-.9.7-2.2.2-2.2-1 .3-.2.7-.3 1.1-.3m48.5-4.9c.8.1 1.4.5 1.4 1.3-.9.7-2.2.2-2.1-1 .3-.2.7-.3 1.1-.3m-5.5 9c.8.1 1.4.5 1.4 1.3-.9.7-2.2.2-2.1-1 .3-.2.7-.3 1.1-.3m-1.5-8.2c.8.1 1.4.5 1.4 1.3-.9.7-2.2.2-2.1-1 .3-.2.7-.3 1.1-.3M67.7 2.7c.7.1 1.4.5 1.3 1.3-.9.7-2.2.2-2.1-1 .3-.2.7-.3 1.1-.3m23.1 7.2c.8.1 1.4.5 1.4 1.3-.9.7-2.2.2-2.1-1 .3-.2.7-.3 1.1-.3"/></g></switch></svg>
