<svg xmlns="http://www.w3.org/2000/svg" version="1.0" viewBox="0 0 159 102.8"><switch><g><path fill="#003" d="M.3 0H159c.2 0 .3.1.3.2v102.4c0 .1-.1.2-.3.2H.3c-.2 0-.3-.1-.3-.2V.2C0 .1.1 0 .3 0z"/><path fill="#FFF" d="M13.5 76.4c0 .3-.3.5-.8.5-.4 0-.8-.2-.8-.5s.3-.5.8-.5.8.3.8.5zm32 21.5c0 .3-.3.5-.8.5-.4 0-.8-.2-.8-.5s.3-.5.8-.5c.4-.1.8.2.8.5zm-38-41c0 .3-.3.5-.8.5-.4 0-.8-.2-.8-.5s.3-.5.8-.5.8.2.8.5zm57.9 35.3l-.8-.1-.5.5-.2-.7-.7-.2.7-.3.1-.6.5.4.8-.1-.3.5zM14.6 21.8l-.8-.1-.5.5-.1-.6-.8-.3.7-.3.1-.6.6.4.8-.1-.4.6zM6.7 42.7l-.8-.1-.5.5-.1-.6-.8-.3.7-.3.1-.6.6.4.8-.1-.4.6zM66.4 13l-.7-.1-.6.5-.1-.6-.8-.3.7-.3.1-.6.6.4.8-.1-.4.6zM22.7 6c0 .2-.3.4-.6.4s-.6-.2-.6-.4.3-.4.6-.4.6.2.6.4zM18 91.3c0 .2-.3.4-.6.4s-.6-.2-.6-.4.3-.4.6-.4.6.1.6.4zm25.6-11.6c0 .2-.3.4-.6.4s-.6-.2-.6-.4.3-.4.6-.4.6.2.6.4zm-1.2-22.8c0 .2-.3.4-.6.4s-.6-.2-.6-.4.3-.4.6-.4.6.1.6.4zM8.1 83.6c0 .2-.3.4-.6.4s-.6-.2-.6-.4.3-.4.6-.4.6.2.6.4zm114.7-65.8c0-.3.3-.5.8-.5.4 0 .8.2.8.5s-.3.5-.8.5c-.4 0-.8-.2-.8-.5zm29.5 0c0-.3.3-.5.8-.5.4 0 .8.2.8.5s-.3.5-.8.5c-.4 0-.8-.2-.8-.5zm-36.9 58.4c0-.3.3-.5.8-.5.4 0 .8.2.8.5s-.3.5-.8.5c-.4 0-.8-.2-.8-.5zm-14.6-48c0-.3.3-.5.8-.5.4 0 .8.2.8.5s-.3.5-.8.5c-.4 0-.8-.2-.8-.5zm12.7-26.4c0-.3.3-.5.8-.5.4 0 .8.2.8.5s-.3.5-.8.5-.8-.2-.8-.5zm37.3 94.5c0-.3.3-.5.8-.5.4 0 .8.2.8.5s-.3.5-.8.5c-.5.1-.8-.2-.8-.5zm-2.4-24.8l.8.1.6-.4.1.6.7.2-.7.3v.6l-.6-.4-.8.1.3-.5zM65.3-.1l.8.1.5-.5.1.6.8.3-.7.3-.1.6-.6-.4-.8.1.4-.6zm15.6 34l.8.1.5-.5.2.7.7.2-.7.3-.1.6-.5-.4-.8.1.3-.5zm-8.3-8.4l.8.1.5-.5.2.6.7.3-.7.3-.1.6-.5-.4-.8.1.3-.6zm-5.1 45.2l.8.1.5-.5.1.6.8.3-.7.3-.1.6-.6-.4-.8.1.4-.6zm69.6-52.9l.8.1.5-.5.2.6.7.3-.7.3-.1.6-.6-.4-.7.1.3-.6zM98.3 95.3l.8.1.5-.5.2.6.7.3-.7.3-.1.6-.6-.4-.8.1.4-.5zM74.2 52.9l.7.1.6-.5.1.7.8.2-.7.3-.1.6-.6-.4-.8.1.4-.5zm65.4 30.5l.8.1.5-.5.1.6.8.3-.7.3-.1.6-.6-.4-.8.1.4-.6zm-28-29.2h.8l.5-.4.2.6.7.2-.7.3-.1.7-.6-.5-.7.2.3-.6zM94.5 14.6l.8.1.5-.4.2.6.7.2-.7.3-.1.6-.5-.4-.8.2.3-.6zm37.7 50.2c0-.2.3-.4.6-.4s.6.2.6.4-.3.4-.6.4c-.4 0-.6-.2-.6-.4zM95 87.6c0-.2.3-.4.6-.4s.6.2.6.4-.3.4-.6.4c-.3.1-.6-.1-.6-.4zm33.3-52.8c0-.2.3-.4.6-.4s.6.2.6.4-.3.4-.6.4-.6-.1-.6-.4zm-48 43.6c0-.2.3-.4.6-.4s.6.2.6.4-.3.4-.6.4-.6-.1-.6-.4zm22.4-32c0-.2.3-.4.6-.4s.6.2.6.4-.3.4-.6.4-.6-.2-.6-.4zm1.2 22.8c0-.2.3-.4.6-.4s.6.2.6.4-.3.4-.6.4-.6-.2-.6-.4zm48.6-19c0-.2.3-.4.6-.4s.6.2.6.4-.3.4-.6.4-.6-.2-.6-.4zm-14.3-7.7c0-.2.3-.4.6-.4s.6.2.6.4-.3.4-.6.4-.6-.2-.6-.4zm-10.7 48.4c0-.2.3-.4.6-.4s.6.2.6.4-.3.4-.6.4-.6-.2-.6-.4z"/><ellipse cx="82.4" cy="54" fill="#CBAB77" rx="30.2" ry="32" transform="rotate(-107.951 82.416 53.967)"/><radialGradient id="a" cx="82.76" cy="16.382" r="20.359" gradientTransform="matrix(.9678 -.2517 -.1387 -.5332 -3.173 58.222)" gradientUnits="userSpaceOnUse"><stop offset="0" stop-color="#9b8148"/><stop offset="1" stop-color="#9b8148" stop-opacity="0"/></radialGradient><path fill="url(#a)" d="M56.2 37.7c5.9-9.3 21.3-18.3 39-11.8-15.3-1-25.8 3.7-39 11.8z"/><radialGradient id="b" cx="87.94" cy="-22.275" r="25.128" gradientTransform="matrix(1.4435 -.4905 -.1167 -.3433 -53.575 67.929)" gradientUnits="userSpaceOnUse"><stop offset="0" stop-color="#c6b68a"/><stop offset="1" stop-color="#c6b68a" stop-opacity="0"/></radialGradient><path fill="url(#b)" d="M56.2 37.5C68.3 29.2 80.6 24.6 95 25.8c.7.1 6.3 3.2 6.3 3.2-13.5-1.1-38 7.7-48.3 14 1.5-3.4 2.7-4.9 3.2-5.5z"/><radialGradient id="c" cx="93.877" cy="9.021" r="30.247" gradientTransform="matrix(2.5449 -.9101 -.1841 -.5149 -159.38 130.208)" gradientUnits="userSpaceOnUse"><stop offset="0" stop-color="#bca166"/><stop offset="1" stop-color="#bca166" stop-opacity="0"/></radialGradient><path fill="url(#c)" d="M53.1 42.9c-.5 1.9-2.8 5.8-2.1 12.4 16.5-8.5 40-15.8 57.4-19.1-3-3.2-6.5-6.5-7.7-7.7-14 2.7-36.5 8.3-47.6 14.4z"/><radialGradient id="d" cx="85.156" cy="-2.919" r="31.835" gradientTransform="matrix(1.2434 -.4028 -.1697 -.5239 -24.656 85)" gradientUnits="userSpaceOnUse"><stop offset="0" stop-color="#e4b871"/><stop offset="1" stop-color="#e4b871" stop-opacity="0"/></radialGradient><path fill="url(#d)" d="M50.7 56.1c.3 6.1 1.6 8.8 3.1 11.9 18.9-8.9 40.8-16 59.9-17.8-.9-5.8-1.9-9.4-4.6-13.2-20.3 3.9-40.8 10.4-58.4 19.1z"/><radialGradient id="e" cx="83.062" cy="-15.53" r="31.076" gradientTransform="matrix(1.1524 -.3975 -.15 -.4349 -13.168 87.816)" gradientUnits="userSpaceOnUse"><stop offset="0" stop-color="#c19853"/><stop offset="1" stop-color="#c19853" stop-opacity="0"/></radialGradient><path fill="url(#e)" d="M54.1 68.3C66 62.4 95.5 52 113.8 50.9c.8 2.6.8 5.1-.2 8.6-20.3-.3-36 13.2-51.2 18.4"/><radialGradient id="f" cx="85.892" cy="-79.353" r="27.19" gradientTransform="matrix(1.2292 -.4194 -.09065 -.2657 -23.873 85.363)" gradientUnits="userSpaceOnUse"><stop offset="0" stop-color="#b89e7f"/><stop offset="1" stop-color="#b89e7f" stop-opacity="0"/></radialGradient><path fill="url(#f)" d="M62.8 78.3C77 71.7 99.2 60 113.7 58.9c-1 2.8-1.8 4.8-3.2 8-19.1 4-29.9 7.7-39.5 15.8-3.9-.8-4.7-2.2-8.2-4.4z"/><radialGradient id="g" cx="87.317" cy="-94.737" r="21.185" gradientTransform="matrix(1.2571 -.3902 -.07717 -.2486 -25.987 86.285)" gradientUnits="userSpaceOnUse"><stop offset="0" stop-color="#b48552"/><stop offset="1" stop-color="#b48552" stop-opacity="0"/></radialGradient><path fill="url(#g)" d="M71 82.6c4.7-8.6 31.6-15.8 39.5-15.5-2.3 4-3.5 5.4-6.8 8.6-10.7-1.5-19.3 4-23.9 8.4"/><radialGradient id="h" cx="97.155" cy="-14.678" r="12.558" gradientTransform="matrix(2.821 -.5834 -.155 -.7497 -184.684 125.416)" gradientUnits="userSpaceOnUse"><stop offset="0" stop-color="#a68165"/><stop offset="1" stop-color="#a68165" stop-opacity="0"/></radialGradient><path fill="url(#h)" d="M80 84.4c3.3-6.6 22.6-12 23.7-8.2 0 .1-2.9 2.1-3.1 2.5-.3.6-12.8 5.9-14.3 5.6"/><path fill="#BEA17D" d="M53.2 66.8c-40.4 9.3-11.6-4-2.4-7.2 22.2-8.5 41.5-13.7 60.4-19.3 23-6.8 24.1-.9 2.4 7.1l.5 2.9c40.1-14.4 66.5-33.5-4.5-13.3-19.1 5.4-38.1 10.8-58.9 18.6-81.7 31.2-27.9 24 5 15.7l-2.5-4.5z"/><radialGradient id="i" cx="80.644" cy="-269.162" r="71.36" gradientTransform="matrix(1.045 -.3385 -.03462 -.1069 -12.33 53.104)" gradientUnits="userSpaceOnUse"><stop offset="0" stop-color="#7d6b44"/><stop offset="1" stop-color="#7d6b44" stop-opacity="0"/></radialGradient><path fill="url(#i)" d="M53.5 69c-48.7 10.4-38.4 3.4-3.1-11l60.4-19.6c24.3-5.2 47.7-10.1 3 9.4l.2 1.3c67.1-29.3 20.3-16.7-3.8-12.4L49.8 56.3c-72.5 30.4-19.6 18 4.3 15.5l-.6-2.8z"/><linearGradient id="j" x1="-9.164" x2="27.948" y1="25.758" y2="26.636" gradientTransform="scale(1 -1) rotate(17.951 334.01 -6.01)" gradientUnits="userSpaceOnUse"><stop offset="0" stop-color="#7d6b44"/><stop offset="1" stop-color="#7d6b44" stop-opacity="0"/></linearGradient><path fill="url(#j)" d="M37.9 63c-27.2 13-18.2 12.2 2.2 8.3-10 .3-22.8 2.5-2.2-8.3z"/><linearGradient id="k" x1="166.31" x2="123.803" y1="27.708" y2="26.83" gradientTransform="scale(1 -1) rotate(17.951 334.01 -6.01)" gradientUnits="userSpaceOnUse"><stop offset="0" stop-color="#7d6b44"/><stop offset="1" stop-color="#7d6b44" stop-opacity="0"/></linearGradient><path fill="url(#k)" d="M115.5 38.1c28.4-7.8 28.5-3.7 3.4 7.7 21.8-10.4 17.1-12.9-3.4-7.7z"/><path fill="#003" d="M.1 23h1.8v80.2H.1z"/></g></switch></svg>
