<svg xmlns="http://www.w3.org/2000/svg" version="1.0" viewBox="0 0 154 141"><switch><g><path fill="#D0E7C4" stroke="#669866" stroke-width=".25" d="M153.9 82.2l-17-2.6-7.8-11.3-4.3-2.3-5.2-4-6.1-10.7.9-3.4-2.6-2.9-9.2-9.2-2-4.4-6.4-1.1-1.3-3.3-5.3-1.4-1.4.9-12.7-.9L50.9 7.9l-11.4-6L32.1 0 15.6 5.5l4.9 6.4 2.3 2.3-5.8 4-6.9 6.3-7.8-1.1-1.4 6-.9 4.9 3.5.6L17 54.5l2.9 6.3V64l2.3 3.8 4.3.8 5.2 6.1 3.5 9.5v3.1l1.4 6.7 5.2 7.8 4.9 2.6 2.9 4.6 3.7 7.2 3.2 4.6 5.8 8 3.1 6.7 2.3-3.5 1.5-6.3 9.2 1.1 7.2 3.8 6.6 2.6v9.2l17.3-22.8 20.9-5.5-1.5-3.5 26.4-26.3z"/></g></switch></svg>
