<svg xmlns="http://www.w3.org/2000/svg" version="1.0" viewBox="0 0 221.2 129.3"><switch><g><path fill="#DBA372" d="M0 .1h220.8v113.2H0z"/><linearGradient id="a" x1="-17.32" x2="-17.776" y1="361.245" y2="338.245" gradientTransform="matrix(2.7597 0 0 -2.7597 114.128 982.45)" gradientUnits="userSpaceOnUse"><stop offset="0" stop-color="#630c0d"/><stop offset="1" stop-color="#c12227"/></linearGradient><path fill="url(#a)" stroke="#630C0D" stroke-width="2" d="M68.7 2.6c-28.2-1.4-40.6 9.5-40.6 9.5l.4 45.6 74.1-.3V11.7s-5.5-7.6-33.9-9.1z"/><linearGradient id="b" x1="-35.906" x2="-36.351" y1="360.683" y2="338.27" gradientTransform="matrix(2.7597 0 0 -2.7597 114.128 982.45)" gradientUnits="userSpaceOnUse"><stop offset="0" stop-color="#630c0d"/><stop offset="1" stop-color="#c12227"/></linearGradient><path fill="url(#b)" d="M28.4 12S23.6 5.4 0 3.3v54.6l28.4-.1V12z"/><linearGradient id="c" x1="-35.258" x2="-35.701" y1="360.422" y2="338.091" gradientTransform="matrix(2.7597 0 0 -2.7597 114.128 982.45)" gradientUnits="userSpaceOnUse"><stop offset="0" stop-color="#630c0d"/><stop offset="1" stop-color="#c12227"/></linearGradient><path fill="url(#c)" d="M30.8 66.9V53.5c0-.7-.9-1.2-1.8-1.2H0v15.8h29c.9 0 1.8-.5 1.8-1.2z"/><linearGradient id="d" x1="-17.168" x2="-17.636" y1="362.052" y2="338.444" gradientTransform="matrix(2.7597 0 0 -2.7597 114.128 982.45)" gradientUnits="userSpaceOnUse"><stop offset="0" stop-color="#630c0d"/><stop offset="1" stop-color="#c12227"/></linearGradient><path fill="url(#d)" stroke="#630C0D" stroke-width="2" d="M103.3 52H27.2c-1 0-1.8.5-1.8 1.2v13.3c0 .7.9 1.2 1.8 1.2h76c1 0 1.8-.5 1.8-1.2V53.2c.2-.7-.7-1.2-1.7-1.2z"/><linearGradient id="e" x1="-31.361" x2="-29.63" y1="325.049" y2="374.514" gradientTransform="matrix(2.7597 0 0 -2.7597 114.128 982.45)" gradientUnits="userSpaceOnUse"><stop offset="0" stop-color="#231f20"/><stop offset="1" stop-color="#333"/></linearGradient><path fill="url(#e)" stroke="#000" stroke-miterlimit="10" stroke-width="2" d="M32.4 39.7h-8.5v36.9h9.2l-.7-25.4z"/><linearGradient id="f" x1="-31.193" x2="-30.97" y1="339.804" y2="346.189" gradientTransform="matrix(2.7597 0 0 -2.7597 114.128 982.45)" gradientUnits="userSpaceOnUse"><stop offset="0" stop-color="#231f20"/><stop offset="1" stop-color="#333"/></linearGradient><path fill="url(#f)" stroke="#000" stroke-miterlimit="10" stroke-width="2" d="M23 39h10.4v4.4H23z"/><linearGradient id="g" x1="9.719" x2="9.262" y1="361.396" y2="338.397" gradientTransform="matrix(2.7597 0 0 -2.7597 114.128 982.45)" gradientUnits="userSpaceOnUse"><stop offset="0" stop-color="#630c0d"/><stop offset="1" stop-color="#c12227"/></linearGradient><path fill="url(#g)" stroke="#630C0D" stroke-width="2" d="M143.3 2.2c-28.2-1.4-40.6 9.5-40.6 9.5l.4 45.6 74.1-.3V11.3s-5.5-7.6-33.9-9.1z"/><linearGradient id="h" x1="31.112" x2="30.656" y1="361.689" y2="338.689" gradientTransform="matrix(2.7597 0 0 -2.7597 114.128 982.45)" gradientUnits="userSpaceOnUse"><stop offset="0" stop-color="#630c0d"/><stop offset="1" stop-color="#c12227"/></linearGradient><path fill="url(#h)" d="M217.8 1.7c-28.2-1.4-40.6 9.5-40.6 9.5l.4 45.6 43.2-.2V1.9c-1-.1-2-.1-3-.2z"/><linearGradient id="i" x1="30.801" x2="30.35" y1="361.382" y2="338.632" gradientTransform="matrix(2.7597 0 0 -2.7597 114.128 982.45)" gradientUnits="userSpaceOnUse"><stop offset="0" stop-color="#630c0d"/><stop offset="1" stop-color="#c12227"/></linearGradient><path fill="url(#i)" d="M176.4 51c-1 0-1.8.5-1.8 1.2v13.4c0 .7.9 1.2 1.8 1.2h44.4V51h-44.4z"/><linearGradient id="j" x1="9.96" x2="9.491" y1="362.138" y2="338.534" gradientTransform="matrix(2.7597 0 0 -2.7597 114.128 982.45)" gradientUnits="userSpaceOnUse"><stop offset="0" stop-color="#630c0d"/><stop offset="1" stop-color="#c12227"/></linearGradient><path fill="url(#j)" stroke="#630C0D" stroke-width="2" d="M178.1 51.7h-76c-1 0-1.8.5-1.8 1.2v13.4c0 .7.9 1.2 1.8 1.2h76c1 0 1.8-.5 1.8-1.2V52.9c0-.7-.7-1.2-1.8-1.2z"/><linearGradient id="k" x1="-4.256" x2="-2.525" y1="324.868" y2="374.333" gradientTransform="matrix(2.7597 0 0 -2.7597 114.128 982.45)" gradientUnits="userSpaceOnUse"><stop offset="0" stop-color="#231f20"/><stop offset="1" stop-color="#333"/></linearGradient><path fill="url(#k)" stroke="#000" stroke-miterlimit="10" stroke-width="2" d="M107.1 40.2h-8.3v36.9h9.1l-.8-25.4z"/><linearGradient id="l" x1="-4.11" x2="-3.887" y1="339.624" y2="346.006" gradientTransform="matrix(2.7597 0 0 -2.7597 114.128 982.45)" gradientUnits="userSpaceOnUse"><stop offset="0" stop-color="#231f20"/><stop offset="1" stop-color="#333"/></linearGradient><path fill="url(#l)" stroke="#000" stroke-miterlimit="10" stroke-width="2" d="M97.7 39.5h10.4v4.4H97.7z"/><linearGradient id="m" x1="23.65" x2="25.38" y1="324.747" y2="374.212" gradientTransform="matrix(2.7597 0 0 -2.7597 114.128 982.45)" gradientUnits="userSpaceOnUse"><stop offset="0" stop-color="#231f20"/><stop offset="1" stop-color="#333"/></linearGradient><path fill="url(#m)" stroke="#000" stroke-miterlimit="10" stroke-width="2" d="M184.2 40.5h-8.5v36.9h9.3l-.8-25.4z"/><linearGradient id="n" x1="23.818" x2="24.041" y1="339.502" y2="345.885" gradientTransform="matrix(2.7597 0 0 -2.7597 114.128 982.45)" gradientUnits="userSpaceOnUse"><stop offset="0" stop-color="#231f20"/><stop offset="1" stop-color="#333"/></linearGradient><path fill="url(#n)" stroke="#000" stroke-miterlimit="10" stroke-width="2" d="M174.8 39.8h10.4v4.4h-10.4z"/><linearGradient id="o" x1="-1.353" x2="-1.353" y1="315.16" y2="307.619" gradientTransform="matrix(2.7597 0 0 -2.7597 114.128 982.45)" gradientUnits="userSpaceOnUse"><stop offset="0" stop-color="#333"/><stop offset="1" stop-color="#346733"/></linearGradient><path fill="url(#o)" d="M0 79.3h220.8v49.9H0z"/><linearGradient id="p" x1="-3.393" x2="2.478" y1="314.249" y2="314.249" gradientTransform="matrix(2.7597 0 0 -2.7597 114.128 982.45)" gradientUnits="userSpaceOnUse"><stop offset="0" stop-color="#231f20"/><stop offset="1" stop-color="#333"/></linearGradient><path fill="url(#p)" stroke="#000" stroke-miterlimit="10" stroke-width=".5" d="M107.9 111.6l-3.1 7.5H121l-3.2-7.8z"/><path fill="#7A603A" stroke="#654928" stroke-width=".25" d="M149.5 45.3c-6.3.2-23.6 1.4-23.6 1.4l2.2 7.3 5 1 10.3-.8s11.9.8 14.2 0c2.3-.9 3.6-8.8 3.6-8.8s-5.5-.3-11.7-.1z"/><path fill="#033" stroke="#1A5180" stroke-width=".25" d="M155.1 20.6l-18.4.8 1.4 25.4s12.5-.5 13.9-.9c1.4-.5 5.5-12.6 5.2-14-.5-1.5-2.1-11.3-2.1-11.3z"/><path fill="#676767" d="M143.3 21.6c-.4-.2-18.7-3-19.1-2.2-.6.8-4.2 23.6-3.8 24.9 1 3 1.1 7.2 7.2 10.2 6.3 2.9 13.3-.2 13.3-.2l2.5-31.2c.1-.1.7-1.3-.1-1.5z"/><path fill="none" stroke="#000" stroke-width=".25" d="M169.2 8.9v-.1"/><path fill="#676767" d="M163.2 18.3c-1.5.3-5.9 1.8-5.9 1.8l-8.1 1.5s.2 3.6.6 6.1c.4 2.5-3.9 26.8-3.9 26.8s7.9.6 11.3.6c3.4 0 .2.5 6.5-.8 7.1-1.7.9-36.5-.5-36z"/><path fill="#E8B989" stroke="#E4A065" stroke-width=".25" d="M117.5 8.5c-.5 0-1.2-.1-1.6-.1-.5 0-2.9 1.9-2.9 2.7-.1.8.5 2.4 1.2 3 .7.7 2.9-.4 2.9-.4v-.1c.1 1.2.2 2.4.7 2.8 1.1.9 5.4 3 15.2 4.1 11.3 1.3 16.8 1.1 22 0 4.5-1 8-2.1 10.1-3.4 2.2-1.3 3.2-2.2 3.8-3.6h2c.6 0 2.7-2.1 2.7-2.9 0-.8-.7-2.3-1.6-2.9-.5-.4-1.6 0-2.3.3.5-1.8 1.1-4 1.1-4.5 0-1.1-1-2.2-2.5-3.3H121c-1.7 1.5-2.8 3-2.8 4.5 0 .6-.4 2.4-.7 3.8z"/><path fill="#050506" d="M154.4 4c-.5 0-1 .4-1 1 0 .5.5 1 1 1 .6 0 1-.4 1-1s-.5-1-1-1zm-19.8.5c-.6 0-1 .4-1 1 0 .5.5 1 1 1s1-.4 1-1-.4-1-1-1z"/><path fill="#E8B989" stroke="#E28C44" stroke-width=".75" d="M144.8 10.1c-2-.2-2.6 1-2.6 1l4.9.1c-.1 0-.4-.9-2.3-1.1z"/><linearGradient id="q" x1="7.681" x2="2.18" y1="351.022" y2="351.022" gradientTransform="matrix(2.7597 0 0 -2.7597 114.128 982.45)" gradientUnits="userSpaceOnUse"><stop offset="0" stop-color="#ec1475"/><stop offset="1" stop-color="#fff5cb"/></linearGradient><path fill="url(#q)" d="M127.8 9c-4.2 0-7.6 2.1-7.6 4.7s3.4 4.7 7.6 4.7 7.6-2.1 7.6-4.7-3.5-4.7-7.6-4.7z" opacity=".18"/><linearGradient id="r" x1="13.952" x2="19.151" y1="351.167" y2="351.167" gradientTransform="matrix(2.7597 0 0 -2.7597 114.128 982.45)" gradientUnits="userSpaceOnUse"><stop offset="0" stop-color="#ec1475"/><stop offset="1" stop-color="#fff5cb"/></linearGradient><path fill="url(#r)" d="M159.8 8.8c-3.9 0-7.1 2-7.1 4.5s3.2 4.5 7.1 4.5c3.9 0 7.1-2 7.1-4.5.1-2.5-3.2-4.5-7.1-4.5z" opacity=".18"/><linearGradient id="s" x1="16.051" x2="20.743" y1="353.947" y2="353.947" gradientTransform="matrix(2.7597 0 0 -2.7597 114.128 982.45)" gradientUnits="userSpaceOnUse"><stop offset="0" stop-color="#f05525"/><stop offset=".059" stop-color="#db4d22"/><stop offset=".257" stop-color="#993618"/><stop offset=".446" stop-color="#63230f"/><stop offset=".619" stop-color="#381409"/><stop offset=".775" stop-color="#190904"/><stop offset=".907" stop-color="#070201"/><stop offset="1"/></linearGradient><path fill="url(#s)" d="M159.3.6c3.4 2.5 8.3 4.7 8.3 6.8v3.8l1.8-.9s2.7-6.5 1.5-8.2c-.4-.5-1.1-1.2-2.1-2h-10.6c.5.2.9.3 1.1.5z"/><linearGradient id="t" x1=".992" x2="4.323" y1="353.62" y2="353.62" gradientTransform="matrix(2.7597 0 0 -2.7597 114.128 982.45)" gradientUnits="userSpaceOnUse"><stop offset="0" stop-color="#f05525"/><stop offset=".059" stop-color="#db4d22"/><stop offset=".257" stop-color="#993618"/><stop offset=".446" stop-color="#63230f"/><stop offset=".619" stop-color="#381409"/><stop offset=".775" stop-color="#190904"/><stop offset=".907" stop-color="#070201"/><stop offset="1"/></linearGradient><path fill="url(#t)" d="M116.8 12.3c-.1.7 2.8.7 2.8.7l.6-.9-.6-4s3.3-5.6 6.4-8h-6.3c-.2.2-.5.4-.6.7-2.5 3.1-2.1 10.8-2.3 11.5z"/><linearGradient id="u" x1="2.602" x2="4.662" y1="355.728" y2="355.728" gradientTransform="matrix(2.7597 0 0 -2.7597 114.128 982.45)" gradientUnits="userSpaceOnUse"><stop offset="0" stop-color="#f05525"/><stop offset=".059" stop-color="#db4d22"/><stop offset=".257" stop-color="#993618"/><stop offset=".446" stop-color="#63230f"/><stop offset=".619" stop-color="#381409"/><stop offset=".775" stop-color="#190904"/><stop offset=".907" stop-color="#070201"/><stop offset="1"/></linearGradient><path fill="url(#u)" d="M124 1.3c.5-.3 1.6-.8 3.1-1.2h-5.6c.6.7 1.7 1.6 2.5 1.2z"/><linearGradient id="v" x1="4.721" x2="11.284" y1="350.699" y2="350.699" gradientTransform="matrix(2.7597 0 0 -2.7597 114.128 982.45)" gradientUnits="userSpaceOnUse"><stop offset="0" stop-color="#f05525"/><stop offset=".059" stop-color="#db4d22"/><stop offset=".257" stop-color="#993618"/><stop offset=".446" stop-color="#63230f"/><stop offset=".619" stop-color="#381409"/><stop offset=".775" stop-color="#190904"/><stop offset=".907" stop-color="#070201"/><stop offset="1"/></linearGradient><path fill="url(#v)" d="M143.3 12.4s-9.8 1.3-11.9 2c-2.1.7-6 2.8-3.4 2.3s10.1-.1 12.4-.5c2.2-.4 3.7-1.4 4.5-1.6.9-.2-.2-2.1-.2-2.1l-1.4-.1z"/><linearGradient id="w" x1="10.873" x2="16.157" y1="350.793" y2="350.793" gradientTransform="matrix(2.7597 0 0 -2.7597 114.128 982.45)" gradientUnits="userSpaceOnUse"><stop offset="0" stop-color="#f05525"/><stop offset=".059" stop-color="#db4d22"/><stop offset=".257" stop-color="#993618"/><stop offset=".446" stop-color="#63230f"/><stop offset=".619" stop-color="#381409"/><stop offset=".775" stop-color="#190904"/><stop offset=".907" stop-color="#070201"/><stop offset="1"/></linearGradient><path fill="url(#w)" d="M155.5 13.7c-1.6-.6-9.5-1.4-9.5-1.4l-1.6.3s-.6 2.2 0 2.3c.7.1 1.7 1.1 3.6 1.4 1.7.3 8-.7 10.1-.4 1.9.4-1-1.6-2.6-2.2z"/><path fill="#020303" stroke="#000" stroke-width=".25" d="M160.7 16.3c-3.8.7-15.6-1.8-15.7-2 0 0-13.5 2.7-17.6 2.4-4.2-.2-4.8.1-6.3-1.8-1.5-1.9-4.2-2.7-4.2-2.7s-.5 2.5 1 4c1.5 1.6 16.9 5.8 28.2 4.7s13.9-1.3 17.2-2.9 5-2.9 4.7-3.6c-.4-.5-3.5 1.3-7.3 1.9z" opacity=".04"/><path fill="#020303" stroke="#000" stroke-width=".25" d="M166.9 11.2l.4 3.3s.5.1 1.5-1.1c.9-1.1-1.9-2.2-1.9-2.2z" opacity=".04"/><linearGradient id="x" x1="30.021" x2="35.892" y1="314.212" y2="314.212" gradientTransform="matrix(2.7597 0 0 -2.7597 114.128 982.45)" gradientUnits="userSpaceOnUse"><stop offset="0" stop-color="#231f20"/><stop offset="1" stop-color="#333"/></linearGradient><path fill="url(#x)" stroke="#000" stroke-miterlimit="10" stroke-width=".5" d="M200.2 111.7l-3.2 7.5h16.2l-3.2-7.8z"/><path fill="#333" d="M165.4 19.6c-5.2-1.5-3.9 4.2-3.2 6.5l-1.6 1c3.6-.1 7.1.4 10.4.6-.3-1.9-2.5-7.2-5.6-8.1zM125.7 21l-1.1-.3c-5.9 1.3-8.7 11.6-7.7 15.2 15.6.6 7.7-8.5 8.8-14.9z"/><linearGradient id="y" x1="-39.879" x2="-39.302" y1="325.029" y2="359.434" gradientTransform="matrix(2.7597 0 0 -2.7597 114.128 982.45)" gradientUnits="userSpaceOnUse"><stop offset="0" stop-color="#f05525"/><stop offset=".059" stop-color="#db4d22"/><stop offset=".257" stop-color="#993618"/><stop offset=".446" stop-color="#63230f"/><stop offset=".619" stop-color="#381409"/><stop offset=".775" stop-color="#190904"/><stop offset=".907" stop-color="#070201"/><stop offset="1"/></linearGradient><path fill="url(#y)" d="M3.9 20C.8 15.1 6.6 11.9 6.6 7c0-3.2-1.7-5.4-4.4-6.8H0v30.4l10.2 1C11.9 27.2 6.4 24 3.9 20z"/><linearGradient id="z" x1="35.514" x2="36.142" y1="322.356" y2="359.806" gradientTransform="matrix(2.7597 0 0 -2.7597 114.128 982.45)" gradientUnits="userSpaceOnUse"><stop offset="0" stop-color="#f05525"/><stop offset=".059" stop-color="#db4d22"/><stop offset=".257" stop-color="#993618"/><stop offset=".446" stop-color="#63230f"/><stop offset=".619" stop-color="#381409"/><stop offset=".775" stop-color="#190904"/><stop offset=".907" stop-color="#070201"/><stop offset="1"/></linearGradient><path fill="url(#z)" d="M215.3.1c-2.8 1.6-4.7 3.8-4.7 7-.1 5.4 7.1 8.9 3.3 14.2-3.1 4.3-10.1 7.8-7.9 12.5l14.6-1.3V.1h-5.3z"/><path fill="#663433" stroke="#663314" stroke-width=".25" d="M83.2 28.3c-3.7-1.7-16.3-3.4-16.2-6.9l-7.4-.5c-1.2 5.2-8.7 5.2-15 6.6-8.3 1.9-6.4 9.5-4.4 14.2.7 1.8 2.1 7 4.8 8 2 .7 9.1-.3 11.3-.3h11.3c2.9 0 9.9.4 12.4-.7 2.8-1.3 3.7-5.4 4.4-7.4 1.8-4.2 5.3-10-1.2-13z"/><linearGradient id="A" x1="-19.722" x2="-16.333" y1="347.913" y2="347.913" gradientTransform="matrix(2.7597 0 0 -2.7597 114.128 982.45)" gradientUnits="userSpaceOnUse"><stop offset="0" stop-color="#ffedc4"/><stop offset=".322" stop-color="#ffe6b6"/><stop offset=".928" stop-color="#ffd592"/><stop offset="1" stop-color="#ffd38d"/></linearGradient><path fill="url(#A)" stroke="#FDDC8C" d="M59.6 20.4c0 2.4-.4 4.4 4.5 4.2 4.3-.2 5-2 4.9-4.5l-9.4.3z"/><path fill="#80491E" stroke="#663314" stroke-width=".25" d="M40.5 16.9l1.7.5s-.6 1.4-1 1.7c-.4.3-1 1.7-1.2 2s1.1.1 1.4 0c.2-.1 2.2-1 2.6-1.2.4-.2.4.9.4.9l.1 2.7s1-.6 1-1 .9-1.5.9-1.5.1 1.2.2 1.5c.1.3 1.5-.9 1.8-1.4.4-.4 1.1-1 1.1-1s.5 2.2.5 2.5c.1.2 1.1-.8 1.1-.8l.9 1s.4-2.6.5-3c.1-.4.4 1.3.4 1.7 0 .4.9 1.3 1.4 1.6.5.2.5-1.1.5-1.1l1 .9 1.2-2.2.5-.3s-3.2-.4-4.1-.4c-.9 0-4.7-1.9-4.7-1.9s-2.7-.2-4.1-.4c-1.4-.1-1.4-1.9-.5-2.3 1.1-.6 2.2-.5 3.4-1.3 1.5-.9 2.9-2.8 4.4-3.5 1.5-.7 4.3-2.6 6.2-3.6 1.8-1 3.3-1.2 4.1-1.6.7-.3 5-3.2 7-4.1 2-.9 3.2-.6 4.3-.5 1.1 0 5.6.6 6.4 2.3s1 6.6 1 6.6l.9.8s.9-1 .7-1.3c-.1-.2 1-2.3.7-2.9-.2-.6.9-4.1.7-5.4 0-.2-.1-.5-.1-.8H38.9c-4.9 5.2 1.6 16.8 1.6 16.8z"/><linearGradient id="B" x1="-25.752" x2="-11.959" y1="351.966" y2="351.966" gradientTransform="matrix(2.7597 0 0 -2.7597 114.128 982.45)" gradientUnits="userSpaceOnUse"><stop offset="0" stop-color="#ffedc4"/><stop offset=".322" stop-color="#ffe6b6"/><stop offset=".928" stop-color="#ffd592"/><stop offset="1" stop-color="#ffd38d"/></linearGradient><path fill="url(#B)" stroke="#FDDC8C" d="M80.6 8.7c.2-1.6-1.6-7.2-1.6-7.2S74.8.8 71.5.7c-3.3-.1-7.6 4.4-11.9 5.8-4.3 1.3-13.4 8.1-14.5 8.1-1.1 0-1.7 1.3-2 2.3-.2 1 4.1 1.3 4.5 1.3.4-.1 1.6.2 3.2 1.1s13.7 2 16.3 2.1c1.7.1 5.9.3 8.8-.4 3.1-.7 5.3-2.8 5.3-2.8s-1.1-2-1.2-2.6c-.3-2.3.5-5.3.6-6.9z"/><linearGradient id="C" x1="-20.627" x2="-16.749" y1="349.75" y2="349.75" gradientTransform="matrix(2.7597 0 0 -2.7597 114.128 982.45)" gradientUnits="userSpaceOnUse"><stop offset="0" stop-color="#ec1475"/><stop offset="1" stop-color="#fff5cb"/></linearGradient><path fill="url(#C)" d="M62.8 13.7c-2.9-.1-5.5 1.3-5.6 3.3-.1 1.9 2.1 3.6 5 3.7 2.9.1 5.5-1.3 5.6-3.3.3-2-2-3.6-5-3.7z" opacity=".13"/><path fill="#030305" stroke="#010101" stroke-width=".75" d="M73.6 8.7c-.5 0-.9.4-.9.8s.5.7 1 .7.9-.4.9-.8c-.1-.4-.5-.7-1-.7zm-11.4.6c-.5 0-.9.4-.9.8s.5.7 1 .7.9-.4.9-.8-.5-.7-1-.7z"/><path fill="#80491E" stroke="#663314" stroke-width=".25" d="M70.9 1.2s2.2.2 2.8.3c.7.1 4.2 1.5 4.7 2 .6.5 3.1 6.9 3.1 6.9V9.1c-.1-.4.1-2.2.2-2.5 0-.3.1-3.8 0-4.1 0-.1-1.1-1.4-2.5-2.5H68.6c-.7.2-1.1.4-1.1.4l3.4.8z"/><path fill="#80491E" stroke="#663314" stroke-width=".25" d="M66.3.9C67.6.8 61.5 3 60 4.3c-1.6 1.2-2.3 2.8-4.2 3.3-2 .4-4.9 1.3-5.6 1.4-.7 0-1.5.2-.6.6.9.4 2.5.5 3.2.5.7 0 8.2-2.5 9.3-3.1 1.2-.5 6-3.9 6.1-4.3s2-1.5 2-1.5l-.5-.2c-5-.5-5 0-3.4-.1z"/><path fill="none" stroke="#EDB73F" stroke-width=".5" d="M73.4 16c.2-.2.2-.9.2-1.3s-.7-.7-1.5-.9c-.9-.2-2.3.7-2.3.7"/><path fill="#989898" stroke="#663314" stroke-width=".25" d="M57.9 22.8c-1.4.3-3.2 2.4-4.7 3-.5 1.9 6.9 7.6 8.8 9.1-.1-3.3 1.7-6.6 1.4-9.9l.9-.5c-2.3-.6-4.3-2.2-6.4-1.7z"/><path fill="#989898" stroke="#663314" stroke-width=".25" d="M69.2 22.8c-2.1-.4-3.9 1.1-6.3 1.6l.9.5c-.4 3.3 1.5 6.6 1.2 9.9 2-1.5 9.3-7.2 8.8-9.1-1.5-.5-3.2-2.7-4.6-2.9z"/><path fill="#336" d="M.4.1h220.8v102.1H.4z" opacity=".4"/><linearGradient id="D" x1="-35.796" x2="-29.926" y1="314.14" y2="314.14" gradientTransform="matrix(2.7597 0 0 -2.7597 114.128 982.45)" gradientUnits="userSpaceOnUse"><stop offset="0" stop-color="#231f20"/><stop offset="1" stop-color="#333"/></linearGradient><path fill="url(#D)" stroke="#000" stroke-miterlimit="10" stroke-width=".5" d="M18.5 111.9l-3.2 7.5h16.2l-3-7.8z"/><linearGradient id="E" x1="-16.541" x2="-17.084" y1="354.126" y2="326.713" gradientTransform="matrix(2.7597 0 0 -2.7597 114.128 982.45)" gradientUnits="userSpaceOnUse"><stop offset="0" stop-color="#630c0d"/><stop offset="1" stop-color="#c12227"/></linearGradient><path fill="url(#E)" stroke="#630C0D" stroke-width="2" d="M71.4 25.6c-33.8-1.7-48.6 11.3-48.6 11.3l.5 54.4 88.5-.4V36.4s-6.6-9.1-40.4-10.8z"/><linearGradient id="F" x1="-36.81" x2="-37.328" y1="352.847" y2="326.711" gradientTransform="matrix(2.7597 0 0 -2.7597 114.128 982.45)" gradientUnits="userSpaceOnUse"><stop offset="0" stop-color="#630c0d"/><stop offset="1" stop-color="#c12227"/></linearGradient><path fill="url(#F)" d="M23.1 36.8S18.9 31 0 27.8v63.6l23.1-.1V36.8z"/><linearGradient id="G" x1="-36.559" x2="-36.682" y1="339.127" y2="313.728" gradientTransform="matrix(2.7597 0 0 -2.7597 114.128 982.45)" gradientUnits="userSpaceOnUse"><stop offset="0" stop-color="#630c0d"/><stop offset="1" stop-color="#c12227"/></linearGradient><path fill="url(#G)" d="M26 102.2v-16c0-.8-1-1.4-2.2-1.4H0v18.9h23.8c1.2-.1 2.2-.7 2.2-1.5z"/><linearGradient id="H" x1="-16.901" x2="-17.026" y1="339.221" y2="313.571" gradientTransform="matrix(2.7597 0 0 -2.7597 114.128 982.45)" gradientUnits="userSpaceOnUse"><stop offset="0" stop-color="#630c0d"/><stop offset="1" stop-color="#c12227"/></linearGradient><path fill="url(#H)" d="M112.7 84.4H21.8c-1.2 0-2.2.6-2.2 1.4v15.9c0 .8 1 1.4 2.2 1.4h90.8c1.2 0 2.2-.6 2.2-1.4V85.8c0-.8-1-1.4-2.1-1.4z"/><linearGradient id="I" x1="-33.318" x2="-31.255" y1="310.985" y2="369.943" gradientTransform="matrix(2.7597 0 0 -2.7597 114.128 982.45)" gradientUnits="userSpaceOnUse"><stop offset="0" stop-color="#231f20"/><stop offset="1" stop-color="#333"/></linearGradient><path fill="url(#I)" stroke="#000" stroke-miterlimit="10" stroke-width=".5" d="M27.9 69.8H17.8v43.9h11l-.9-30.2z"/><linearGradient id="J" x1="-33.158" x2="-32.892" y1="328.573" y2="336.182" gradientTransform="matrix(2.7597 0 0 -2.7597 114.128 982.45)" gradientUnits="userSpaceOnUse"><stop offset="0" stop-color="#231f20"/><stop offset="1" stop-color="#333"/></linearGradient><path fill="url(#J)" stroke="#000" stroke-miterlimit="10" stroke-width=".5" d="M16.6 68.9H29v5.3H16.6z"/><linearGradient id="K" x1="15.701" x2="15.157" y1="354.307" y2="326.894" gradientTransform="matrix(2.7597 0 0 -2.7597 114.128 982.45)" gradientUnits="userSpaceOnUse"><stop offset="0" stop-color="#630c0d"/><stop offset="1" stop-color="#c12227"/></linearGradient><path fill="url(#K)" stroke="#630C0D" stroke-width="2" d="M160.4 25.1c-33.8-1.7-48.6 11.3-48.6 11.3l.5 54.4 88.5-.4V35.9c.1 0-6.5-9.1-40.4-10.8z"/><linearGradient id="L" x1="35.424" x2="34.905" y1="353.34" y2="327.172" gradientTransform="matrix(2.7597 0 0 -2.7597 114.128 982.45)" gradientUnits="userSpaceOnUse"><stop offset="0" stop-color="#630c0d"/><stop offset="1" stop-color="#c12227"/></linearGradient><path fill="url(#L)" d="M200.8 35.8l.5 54.4 19.5-.1V26.9c-13.8 3.4-20 8.9-20 8.9z"/><linearGradient id="M" x1="34.528" x2="34.404" y1="338.86" y2="313.484" gradientTransform="matrix(2.7597 0 0 -2.7597 114.128 982.45)" gradientUnits="userSpaceOnUse"><stop offset="0" stop-color="#630c0d"/><stop offset="1" stop-color="#c12227"/></linearGradient><path fill="url(#M)" d="M199.8 83.3c-1.2 0-2.2.6-2.2 1.4v15.9c0 .8 1 1.4 2.2 1.4h21V83.3h-21z"/><linearGradient id="N" x1="15.473" x2="15.348" y1="339.118" y2="313.466" gradientTransform="matrix(2.7597 0 0 -2.7597 114.128 982.45)" gradientUnits="userSpaceOnUse"><stop offset="0" stop-color="#630c0d"/><stop offset="1" stop-color="#c12227"/></linearGradient><path fill="url(#N)" d="M202 84.1h-90.8c-1.2 0-2.2.6-2.2 1.4v15.9c0 .8 1 1.4 2.2 1.4H202c1.2 0 2.2-.6 2.2-1.4V85.5c-.1-.8-1.1-1.4-2.2-1.4z"/><linearGradient id="O" x1="-.942" x2="1.121" y1="310.768" y2="369.725" gradientTransform="matrix(2.7597 0 0 -2.7597 114.128 982.45)" gradientUnits="userSpaceOnUse"><stop offset="0" stop-color="#231f20"/><stop offset="1" stop-color="#333"/></linearGradient><path fill="url(#O)" stroke="#000" stroke-miterlimit="10" stroke-width=".5" d="M117.2 70.4h-10.1v43.9h11.1l-1-30.2z"/><linearGradient id="P" x1="-.783" x2="-.517" y1="328.357" y2="335.964" gradientTransform="matrix(2.7597 0 0 -2.7597 114.128 982.45)" gradientUnits="userSpaceOnUse"><stop offset="0" stop-color="#231f20"/><stop offset="1" stop-color="#333"/></linearGradient><path fill="url(#P)" stroke="#000" stroke-miterlimit="10" stroke-width=".5" d="M105.9 69.5h12.4v5.3h-12.4z"/><linearGradient id="Q" x1="32.367" x2="34.43" y1="310.625" y2="369.582" gradientTransform="matrix(2.7597 0 0 -2.7597 114.128 982.45)" gradientUnits="userSpaceOnUse"><stop offset="0" stop-color="#231f20"/><stop offset="1" stop-color="#333"/></linearGradient><path fill="url(#Q)" stroke="#000" stroke-miterlimit="10" stroke-width=".5" d="M209.1 70.8h-10v43.9h11l-1-30.2z"/><linearGradient id="R" x1="32.571" x2="32.837" y1="328.212" y2="335.82" gradientTransform="matrix(2.7597 0 0 -2.7597 114.128 982.45)" gradientUnits="userSpaceOnUse"><stop offset="0" stop-color="#231f20"/><stop offset="1" stop-color="#333"/></linearGradient><path fill="url(#R)" stroke="#000" stroke-miterlimit="10" stroke-width=".5" d="M198 69.9h12.4v5.3H198z"/><path fill="#FAF39A" d="M211 69.3l-1.6 13.6 11.4.1V43c-11.1 9-9.8 26.3-9.8 26.3z" opacity=".16"/><path fill="#EE3C24" d="M16.7 68.9h12.4l1.3-8.7-14.9.2z"/><path fill="#AADEE9" d="M14.7 60.2l.4 1.3h15.7l-.4-1.3z"/><path fill="#FFF" stroke="#676767" stroke-width=".25" d="M18.7 55.9l2.7 4.8 2.3-.1-2.6-5 6 2.2.3-1.9-7-1.4z"/><path fill="#FAF39A" stroke="#989866" stroke-miterlimit="10" stroke-width=".25" d="M143.2 119.4c-.1-.2-.5-.1-.7-.2-.4-.2-.1-.9-1-.7-.5.1-.1.3-.5.4-.1 0-.7-.1-.9 0-.5.1-1.2.4-1 .7-.6 0-1-.1-1.2.4.2.1.6.2.6.4-.4.1-.6.2-.9.3.1.6.6 1 1.5 1.2.4.1.7.1 1.1-.1.4-.2.2-.4.2-.8.5 0 1 .1 1.5-.1.2-.1.7-.5.5-.7l1.1-.2c-.2-.1-.2-.4-.3-.6z"/><path fill="#FC3" d="M142.7 119.7c-.4 0-.6-.1-.7.1-.2.2 0 .2.2.3.1 0 .5 0 .5-.1.2-.1 0-.2 0-.3zm-.5-.5c-.1-.1-.1-.3-.2-.4-.1-.2-.6-.3-.6 0s0 .5.4.6c.1.1 1 .1.7-.1 0 0-.1 0-.3-.1zm-4.4 1.7c0 .1.1.4.4.4 0-.2.2-.4.2-.6-.2 0-.6.1-.6.2z"/><path fill="#FFF" d="M141.6 119.9c0-.1.1-.1.1-.2s-.1-.1-.1-.2c-.2-.1-.4-.1-.6-.1-.4 0-.5 0-.5.2v.2s-.2.1-.4.1c-.2.1-.4.1-.7.1v.3c-.1.1-.4.1-.5.2.2.1.5.4.6.5.1.2-.4.4-.1.6.6.5 1-.6.9-.8.4 0 .9 0 1.2-.1.2 0 .4-.1.5-.3.1-.2 0-.2-.1-.4 0 .2-.3 0-.3-.1z"/><path fill="#FFF" d="M140.9 119.1c-.4-.1-1-.1-1.3.1-.2.2-.2.7.2.8.1 0 .5-.1.5-.2.1-.1 0-.3.1-.4h.1c.3 0 1.1 0 .4-.3zm-.5.3z"/><path fill="#FAF39A" stroke="#989866" stroke-miterlimit="10" stroke-width=".25" d="M128 123.2l-.1-.6c-.1.2-.1.4.1.6z"/><path fill="#FAF39A" stroke="#989866" stroke-miterlimit="10" stroke-width=".25" d="M128.9 121.9c-.4.1-.9.4-1 .7l.1.6c-.2-.2-.2-.4-.1-.6-.5.1-1 .1-.9.5 0 .2.4.3.4.5.1.1.1.4.1.5.4.1.7.2 1.1.3.2-.2.7-.6.9-.1.2 0 .6.1.9 0 .4-.1.1-.3.2-.4.1-.3 0-.2.2-.4s.5-.3.7-.4c-.1-.3-.1-.8-.1-1.1-.8-.2-1.7-.3-2.5-.1z"/><path fill="#FFF" d="M130.5 121.9c-.7-.2-1.6 0-2.2.4v.1c-.5.4.2 1.1 1 1 0-.2.1-.8.6-.7-.2.4-.4.4-.4.9h1.1c.1-.2-.4-.5 0-.7.1.1.2.2.2.3 1 0 .3-1.1-.3-1.3z"/><path fill="#FC3" d="M127.8 123.7c-.6.3.9.9 1.2.2-.5.2-1.5.5-1.2-.2zm2.4.2c-.1.2-.5.3-.7.1.2.7 1.2.1.7-.1zm-3.1-.7c0-.2.2-.4.5-.4-.5 0-.9.1-.5.4z"/><path fill="#FAF39A" stroke="#989866" stroke-miterlimit="10" stroke-width=".25" d="M177.2 121.2l-.1-.6c-.1.2-.1.4.1.6z"/><path fill="#FAF39A" stroke="#989866" stroke-miterlimit="10" stroke-width=".25" d="M178.1 119.9c-.4.1-.9.4-1 .7l.1.6c-.2-.2-.2-.4-.1-.6-.5.1-1 .1-.9.5 0 .2.4.3.4.5.1.1.1.4.1.5.4.1.7.2 1.1.3.2-.2.7-.6.9-.1.2 0 .6.1.9 0 .4-.1.1-.3.2-.4.1-.3 0-.2.2-.4s.5-.3.7-.4c-.1-.3-.1-.8-.1-1.1-.8-.2-1.7-.3-2.5-.1z"/><path fill="#FFF" d="M179.7 119.9c-.7-.2-1.6 0-2.2.4v.1c-.5.4.2 1.1 1 1 0-.2.1-.8.6-.7-.2.4-.4.4-.4.9h1.1c.1-.2-.4-.5 0-.7.1.1.2.2.2.3 1 0 .3-1.1-.3-1.3z"/><path fill="#FC3" d="M177 121.7c-.6.3.9.9 1.2.2-.5.2-1.5.5-1.2-.2zm2.4.2c-.1.2-.5.3-.7.1.2.7 1.2.1.7-.1zm-3-.7c0-.2.2-.3.5-.4-.5-.1-1 .1-.5.4z"/><path fill="#FAF39A" d="M103 86H31.2c-1.6 0-2.8.7-2.8 1.6v5.2c0 .9 1.2 1.6 2.8 1.6H103c1.6 0 2.8-.7 2.8-1.6v-5.2c0-.9-1.2-1.6-2.8-1.6z" opacity=".08"/><path fill="#FAF39A" d="M157.7 58.8h1.1c1.8-1.5 9.7-3.8 9-6.1-2.7-.1-8.1 4.8-10.1 6.1z" opacity=".5"/><path fill="#FAF39A" d="M133.5 46.7c-.7.7-2.3 4-1.3 4.6 1.7 1.2 4.8-1.2 6.3-1.9 2.6-1.4 2.8-2.2 3.4-4.2l-.7-.2c-2.9.3-6 .1-7.7 1.7zm35.4 5.4c-2.5-.2-7.4 2.8-8 4.3 1.7.6 9.6-2.7 8.3-4l-.3-.3z" opacity=".68"/><path fill="#FAF39A" d="M145.9 75.6h-.4c-.6 1.2-.9 1.9-.1 3 .6.9 2 .9 2.6 1.8 1.1 1.4 1.6 6.1 3.7 2.3.9-1.5 1.8-4.9 1.1-6.4-.9-2.2-4.9-2.6-6.9-.7zm14.6-.5h-.4c-.6 1.2-.9 1.9-.1 3 .6.9 2 .9 2.6 1.8 1.1 1.4 1.6 6.1 3.7 2.3.9-1.5 1.8-4.9 1.1-6.4-.9-2.1-4.8-2.6-6.9-.7z" opacity=".24"/><path fill="#FAF39A" d="M0 40.2V85h16.9C17.7 58.5 9.3 45.9 0 40.2z" opacity=".16"/><path fill="#FAF39A" d="M13.3 86.3H0v6.9l10.7-.1c0 .1 6.2-1.2 2.6-6.8zm204.5-1.8c-3.1 5.4 2.2 6.8 2.2 6.8h.9v-6.8h-3.1z" opacity=".08"/><path fill="none" stroke="#EDB73F" stroke-width=".75" d="M63.6 18.8c2.6-1.4 6.5-1.8 8.7.2"/><linearGradient id="S" x1="-25.258" x2="-11.584" y1="333.053" y2="333.053" gradientTransform="matrix(2.7597 0 0 -2.7597 114.128 982.45)" gradientUnits="userSpaceOnUse"><stop offset="0" stop-color="#f9f29d"/><stop offset=".189" stop-color="#fbe876"/><stop offset=".452" stop-color="#fcdb47"/><stop offset=".685" stop-color="#fed224"/><stop offset=".875" stop-color="#ffcc0f"/><stop offset="1" stop-color="#ffca07"/></linearGradient><path fill="url(#S)" stroke="#C1AA30" stroke-width=".268" d="M52.7 51.3l-8.3 22.3.4.9 1 .9L82.2 72l-4.7-20.8z"/><path fill="#FCCB98" stroke="#CB9866" stroke-width=".25" d="M63.1 32.4c-6.5 0-23.1 6.4-24.2 7.1-1.1.7-1.1 4.7-1.1 4.7s-.4 4.5.7 5.3c1.2.8 6.2 3.1 16.9 3.1s16.8-.5 20.7-.5 6.5-1 9.1-1.7c2.5-.8 4.5-2.5 5.2-3.7.6-1.2.2-2.6.6-3 1.2-1.4 1.1-4.5 1.1-5.2-.1-4.2-22.5-6.1-29-6.1z"/><linearGradient id="T" x1="-14.585" x2="-10.367" y1="338.994" y2="338.994" gradientTransform="matrix(2.7597 0 0 -2.7597 114.128 982.45)" gradientUnits="userSpaceOnUse"><stop offset="0" stop-color="#ec0d74"/><stop offset="1" stop-color="#fff5cb"/></linearGradient><ellipse cx="79.7" cy="46.9" fill="url(#T)" opacity=".1" rx="5.8" ry="3.7"/><linearGradient id="U" x1="-20.71" x2="-24.915" y1="338.631" y2="338.631" gradientTransform="matrix(2.7597 0 0 -2.7597 114.128 982.45)" gradientUnits="userSpaceOnUse"><stop offset="0" stop-color="#ec0d74"/><stop offset="1" stop-color="#fff5cb"/></linearGradient><ellipse cx="51.1" cy="47.9" fill="url(#U)" opacity=".1" rx="5.8" ry="3.7"/><path fill="#231F20" d="M68.5 22.7l-1.3-.8 2.4-.6s0-.6-.8-.6-5.9.8-5.9.8v-.8s.6-.4 1.6-.4 0-.6 0-1.1c0-.5-1.2-.7-1.2-.7s-1.9-.3-1.9-.8 1.3-.8 1.3-.8l-4.3-.9-1.1.7 1.3.5h1l-1.1.7h-1.4l.4.6 1.2.8s-1 .6-1.6.6h-2.4c-.6 0-1.9.4-1.9.8s1.4 0 1.4 0v1.1c0 .5-3.2 0-3.2 0l.1.8h1.8s0 .7-.4 1-1.9 0-1.9 0 1.2.8.8 1-2.1-.1-2.7-.1 0 .4.4.7c.4.3 1.1.7 1.4.9.3.2 6.9-1 9.4-1.3 2.5-.2 10 .2 10 .2v-.8s-.6-.4 0-.8 1.3 0 1.3 0v-.3h-1.9l-.8-.4z"/><path fill="none" stroke="#000" stroke-width=".085" d="M68.6 31.4l-3.5 2.9m26.5 6.9v.4m.3-.3l.1.1m-.6-.2v.3m-.2.3h-.1m.5-.6l-.2.3m-53.5 2.6l.3-.1m-.5 0v.3m.2-.2l.3.2m-.6-.3l-.1.1"/><path fill="#F7F7F8" stroke="#030202" stroke-width=".255" d="M72.3 30.5c1.9.1-8.3 1.1-9.1 1.9-.8.8 4.3.5 6.4-.5 2.1-1 13.5.6 13.5.6-32.5-6.6-34.3-3.6-10.8-2zm-4.6-4.6l-15.4.2c2.8.8 13.6.8 15.4-.2z" opacity=".09"/><path fill="#F7F7F8" stroke="#030202" stroke-width=".255" d="M72.4 32c-.5.6-1.3 1-2.1 1.5-.7.5-1.4.8-2.3 1-.7.1-2.3.1-2 .9v-.2c1.8.1 3.9-1.3 5.2-1.9 1.3-.6 3.1-1.6 2.7-2.8-.8.3-1 1-1.5 1.5zm-18.8 2.4c-1.3 0-2.4.1-3.6-.3-1-.2-1.9-.6-2.9-.8 2.6 1.5 7.6 1.9 11.1 1.6h-.1c.3-.1.4-.3.4-.5-1.6-.1-3.3 0-4.9 0z" opacity=".09"/><path fill="none" stroke="#000" stroke-width=".085" d="M37.7 44.3v.2m0-.6l-.3.2m.5 0l-.9.3m.4-.3l-.4.8m.9-.8l-.4.6m.7-.7L37 45.3m-.1-1.2l-.2.5m.4-.6l-.2.1m.3 0l-.5.5m-.1-.5l-.2.2m1.5-.2l-.6.7m-.7-.7l-.9.8m2.2-.9l-.7.7"/><path fill="none" stroke="#030202" stroke-width=".085" d="M38.2 44l-.9.5"/><path fill="#F7F7F8" stroke="#030202" stroke-width=".255" d="M65.8 22.2l-9.3-.2c1.7.6 8.3.8 9.3.2z" opacity=".09"/><path fill="none" stroke="#000" stroke-width=".085" d="M90.8 41.3l.6.1m-.5-.1h.9m-.6-.1h.3m-.4.2h.4m-.3-.2h.5"/><path fill="none" stroke="#0F112B" stroke-width=".085" d="M91.7 41.3h.4m-.4 0h.4m0 0h.1m-.3.1h.3"/><path fill="none" stroke="#0F1131" stroke-width=".085" d="M91.3 41.5l1-.2m-.7.2h.7m-.4.1l.2-.1m-.6 0l.4-.1m-.1.2l.5-.1m-.3.1l.2-.1m-.2.1l.3-.2"/><path fill="none" stroke="#0F112B" stroke-width=".085" d="M91.8 41.4l.5-.1"/><path fill="none" stroke="#0F1131" stroke-width=".085" d="M91.3 41.6l.9-.2m-1 .1l1.4-.2"/><path fill="none" stroke="#0F112B" stroke-width=".085" d="M91.2 41.3h1.4m-.9 0h1.1"/><path fill="none" stroke="#0F1131" stroke-width=".085" d="M91.2 41.5l2.3-.1m-.3-.1l-1.2.5m1.1-.5l-.8.3m-.8.1l1.3-.3m-.1.2l-.6-.2m-6.5-5.2l1.1-1.3"/><path fill="none" stroke="#D2793C" stroke-width=".255" d="M69.2 46.1s-.4-.8-2.4-1c-2-.2-2.6.9-2.6.9"/><path fill="#231F20" d="M85.3 29.2c-6.7-2.6-8.4-2.9-11.8-3.5l-5.8-1.3c-2.5 0-15.6.5-17.9 2.1-2.2 1.6-5.5 4.1-9.2 6.8s-6.3 8.4-3.5 10.7c1.8 1.4 3.8-5.4 9.9-7.4 9.2-2.9 12.7-1.5 17 .9 2.7 1.5 5.7-1.3 5.7-1.3s6-2.7 10.4-1.9c11.1 2 12.3 8.8 12.9 5.7.7-2.7-4.5-9.5-7.7-10.8z"/><path fill="#FCCB98" stroke="#CB9866" stroke-width=".25" d="M35 43c-.8.5-1.3 1.3-1.7 2.5s2.2 2.5 2.9 2.5h2s-.5-.9-.4-2.1c.1-.9.7-1.4 1.2-2.1.3-.7-3.2-1.3-4-.8z"/><path fill="#73BE44" d="M36.3 42.5l.9 1.3 2.3.1-.1-1.7zm54-3l-.3 1.6 2.9.3-.1-1.7z"/><path fill="#FCCB98" stroke="#CB9866" stroke-width=".25" d="M91.3 40.9c0 .8.4 1.3.1 2.1-.4 1.1-1.4 1.8-1.4 1.8s1.4.3 2 .4c.5.1 3.6-.5 3.8-1.7s.1-1.9-.4-2.6c-.5-.6-4.1-.8-4.1 0z"/><path fill="#FFF" d="M86.7 35.4c-2.5-1-5-1.6-8.3-1.7-3.4-.1-8.6 3.1-12.8 3.2-3.2.1-3.9-.9-6.4-1.5-2.7-.7-3.3-.4-5.6-.7-3.1-.3-7.1 1.1-8.8 1.7-1.7.6-3.6 1.4-4.5 2.5-1 1.1-1.4 1.8-1.6 2.6-.2.8-.4 2.5-.1 2.6.2 0 5.6.6 9.3.8s11.8.6 12.9.4C62 45 64 42 64.5 41.4c.5-.8 1.3-.5 1.8-.5 1.3-.1 1.6.3 1.6.3.3.4 2 3.6 3.5 3.7 1.5.1 6.1-.5 7.2-.7 1.5-.2 6.2-1 7-1 1.5-.1 4.8-.5 4.8-.5s.4-1.9 0-2.9c-.5-1.2-1-3.4-3.7-4.4z"/><ellipse cx="75.7" cy="36.7" fill="#010103" rx="1.1" ry=".8"/><ellipse cx="54.8" cy="37.3" fill="#010103" rx="1.1" ry=".8"/><path fill="none" d="M86.7 35.4c-2.5-1-5-1.6-8.3-1.7-3.4-.1-8.6 3.1-12.8 3.2-3.2.1-3.9-.9-6.4-1.5-2.7-.7-3.3-.4-5.6-.7-3.1-.3-7.1 1.1-8.8 1.7-1.7.6-3.6 1.4-4.5 2.5-1 1.1-1.4 1.8-1.6 2.6-.2.8-.4 2.5-.1 2.6.2 0 5.6.6 9.3.8s11.8.6 12.9.4C62 45 64 42 64.5 41.4c.5-.8 1.3-.5 1.8-.5 1.3-.1 1.6.3 1.6.3.3.4 2 3.6 3.5 3.7 1.5.1 6.1-.5 7.2-.7 1.5-.2 6.2-1 7-1 1.5-.1 4.8-.5 4.8-.5s.4-1.9 0-2.9c-.5-1.2-1.1-3.4-3.7-4.4z"/><path fill="#FFF" d="M46.3 32.1l.5.1c.8-2.3 7.9-.7 6.5-3.6-2.2.5-6.3 1.9-7 3.5zm13.3.3h-2.2c1.1.2 1.9.4 2.4.8l-.2-.8zm-15.4 2.8c3.1-1.9 8.7-2.7 13.2-2.7-4.4-.7-12.2.7-13.2 2.7zm24.5.2l.5-.6c.1.2.2.4.4.6 1.7-.2 3.3-1.8 5-2.3 1-.3 1.9-.5 3-.7-3.3.3-7.5 1.2-8.9 3zM79.8 32c-.7.1-1.6.2-2.3.3.6-.1 1.3-.1 1.8-.2 2.3-.1 8.2-.6 9.6 1-.4-2.2-6.9-1.4-9.1-1.1z" opacity=".15"/><path fill="#FFF" d="M53.5 33.7c4.1-.3 8.9.1 12.3 1.6v-.2c1.4-2.7-10.6-1.8-12.3-1.4zM74.6 29c-3.8 0-4.4 1.1-7.2 2.4l-.5.4c2.4-1.2 4.1-1.7 7.2-2 1.3-.1 2.5-.2 3.8-.1 1.4.1 2.5.6 3.9.7-.6-1.7-5.3-1.4-7.2-1.4zm-13-5.5c-1.7.5-2.9 1.6-4.2 2l.4.5c2.5-1.4 6.7-1.6 8.9-3.1-1.5-.1-3.7.3-5.1.6zm-3 4.8c4 1.8 10.4-.8 12.4-3h-1c-1.3 1.9-8.5 2.7-11.4 3z" opacity=".15"/><path fill="#1379A9" stroke="#6CBD45" stroke-width="2.141" d="M86.7 35.4c-2.5-1-5-1.6-8.3-1.7-3.4-.1-8.6 3.1-12.8 3.2-3.2.1-3.9-.9-6.4-1.5-2.7-.7-3.3-.4-5.6-.7-3.1-.3-7.1 1.1-8.8 1.7-1.7.6-3.6 1.4-4.5 2.5-1 1.1-1.4 1.8-1.6 2.6-.2.8-.4 2.5-.1 2.6.2 0 5.6.6 9.3.8s11.8.6 12.9.4C62 45 64 42 64.5 41.4c.5-.8 1.3-.5 1.8-.5 1.3-.1 1.6.3 1.6.3.3.4 2 3.6 3.5 3.7 1.5.1 6.1-.5 7.2-.7 1.5-.2 6.2-1 7-1 1.5-.1 4.8-.5 4.8-.5s.4-1.9 0-2.9c-.5-1.3-1.1-3.5-3.7-4.4z" opacity=".38"/><path fill="#73BE44" d="M67.2 36.7c-1 .1-1.4.2-2.7.2l-.5-.1c.5.2 1 1 1 1.9 0 1.1-.4 2.3-.7 2.9 1.5-1.5 2.9-.6 3.9-.4-1.6-1.2-1.5-2.6-1-4.5z"/><path fill="#EBBB8C" stroke="#996733" stroke-width=".5" d="M82.6 40.3c.1.1.1.1 0 0z"/><linearGradient id="V" x1="-13.413" x2="-10.31" y1="335.942" y2="335.942" gradientTransform="matrix(2.7597 0 0 -2.7597 114.128 982.45)" gradientUnits="userSpaceOnUse"><stop offset="0" stop-color="#f9f29d"/><stop offset=".189" stop-color="#fbe876"/><stop offset=".452" stop-color="#fcdb47"/><stop offset=".685" stop-color="#fed224"/><stop offset=".875" stop-color="#ffcc0f"/><stop offset="1" stop-color="#ffca07"/></linearGradient><path fill="url(#V)" stroke="#C1AA30" stroke-width=".268" d="M78.4 57.9l5.1.7 2.1-5.3-8.5-1.2z"/><linearGradient id="W" x1="-6.4" x2="-15.189" y1="333.828" y2="328.294" gradientTransform="matrix(2.7597 0 0 -2.7597 114.128 982.45)" gradientUnits="userSpaceOnUse"><stop offset="0" stop-color="#f4ea0b"/><stop offset="1" stop-color="#73be44"/></linearGradient><path fill="url(#W)" stroke="#5CB747" stroke-width=".268" d="M78.4 72.4c-6.3.4-12.7.5-19 .7l-2.2 7c3 3.9 10 3.3 15 2.7 2.5-.3 4.9-.6 7.3-.9 3.2-.4 3.8-.2 4.1-2.5.2-1.5.7-4.5 0-5.9-1.1-1.9-2.4-1.3-5.2-1.1z"/><path fill="#FCCB98" stroke="#CB9866" stroke-width=".25" d="M86.6 73.7c-.1-1.7.7-6.3-1.2-7.5-6-3.9-12.5 6.9-14.8 8.9l4.2 6.1c1.7-2.3 3.3-4.5 4.9-6.8-.2 1.8-.4 4.3.9 5.9 1.6 1.8 3.3 1.2 6.3.5-.7-2.4-.2-4.7-.3-7.1z"/><path fill="#FCCB98" stroke="#CB9866" stroke-width=".25" d="M58 73.6l6 8.4c2.2-2 2.7-4.8 4.8-6.9-.8 1.6-.6 5.2.3 6.9 1 2 2 .5 5 .2-.1-2.4 1.1-4.7 1.6-7 .3-1.7 2.2-6.1.7-7.5-5-4.7-12 3.8-18.4 5.9z"/><linearGradient id="X" x1="-25.365" x2="-16.869" y1="328.12" y2="328.12" gradientTransform="matrix(2.7597 0 0 -2.7597 114.128 982.45)" gradientUnits="userSpaceOnUse"><stop offset="0" stop-color="#f4ea0b"/><stop offset="1" stop-color="#73be44"/></linearGradient><path fill="url(#X)" stroke="#5CB747" stroke-width=".268" d="M44.1 74.2c2.2 12.2 23.4 9.1 23.4 9.1l-3.1-13.1s-10.7 3.1-20.3 4z"/><linearGradient id="Y" x1="-26.073" x2="-22.368" y1="335.978" y2="335.978" gradientTransform="matrix(2.7597 0 0 -2.7597 114.128 982.45)" gradientUnits="userSpaceOnUse"><stop offset="0" stop-color="#f9f29d"/><stop offset=".189" stop-color="#fbe876"/><stop offset=".452" stop-color="#fcdb47"/><stop offset=".685" stop-color="#fed224"/><stop offset=".875" stop-color="#ffcc0f"/><stop offset="1" stop-color="#ffca07"/></linearGradient><path fill="url(#Y)" stroke="#C1AA30" stroke-width=".268" d="M42.2 57.9l8.3.7 1.8-5.9-7.3-.8z"/><path fill="none" stroke="#066880" stroke-width="2.141" d="M53.2 58.9S65 61.1 79 58.8m-31.3 6.8s20.9 2.7 32.4-1.6"/><path fill="#0E829F" stroke="#0E829F" stroke-width=".268" d="M45.8 75.4c9.5 8.4 8.9-1.4 8.9-1.4l-8.9 1.4z"/><path fill="#FBB216" stroke="#FBB216" stroke-width=".268" d="M45.8 75.4l8.9-1.4c-.1 0-6.1-2.3-8.9 1.4z"/><path fill="#DF214F" stroke="#030303" stroke-width=".268" d="M49.2 74.5l.7 1.5 1.6-.2-1-1.8z"/><path fill="#FAF39A" d="M43.2 45.6c-1.9-.3-7.3-1.6-5 .7.9.9 6.9 2.8 6.9.5-.8-.3-1.3-.8-2.1-1.2h.2zm7.6-10.9l-2.2.5c-3 .3-8.8 2.2-9.2 4.7 2.2.1 5.6-1.3 7.6-1.9 1.4-.6 6.9-2.2 3.8-3.3zm18.1 2.9c3.9.3 8.9-1.8 12.1-3.4-3.4 0-11.1.7-12.1 3.4z" opacity=".5"/><path fill="#FBB216" stroke="#F89B1F" stroke-width=".268" d="M81.5 86.1C76.6 83.7 75 83 75 83l1.6-11.9-7.7 3.3-.4 10.6 14.7 3.7c.1 0 3.2-.2-1.7-2.6z"/><path fill="#FBB216" stroke="#F89B1F" stroke-width=".268" d="M94.6 84.6c-5.6-1.8-7.4-2.3-7.4-2.3l-.6-11.5L79 74l2.1 11.1 16 1.9c0 .1 3-.6-2.5-2.4z"/><path fill="#00854B" stroke="#96CD82" stroke-width=".268" d="M68.9 75l7.7-3.2.2-1-7.9 3.4zM79 74l-.1.8 7.8-3-.1-1zm-10.7 2.5l8.1-2.9.2-.6-7.6 2.6zm11.1-.2l7.2-2.6.1-.8-7.1 2.7z"/><path fill="#FAF39A" d="M194.9 85.8h-74.6c-1.6 0-2.9.7-2.9 1.6v5.2c0 .9 1.4 1.6 2.9 1.6h74.6c1.6 0 2.9-.7 2.9-1.6v-5.2c0-.9-1.3-1.6-2.9-1.6z" opacity=".08"/><path fill="#36469C" d="M173.6 80.7c-1.7-.5-4.5-.3-6.4-.4-3.7-.4-7.5-1.1-11.3-1.8l-13.8 1.4c-5.7 10.9 13.8 9.3 23.1 9.3 4.3 0 9.9-.9 11.3-4.3.7-1.8-.3-3.4-2.9-4.2z"/><path fill="#FFF" stroke="#676767" stroke-width=".25" d="M171.1 64c-.8-3.9 1-5.7-5.6-5.7-5.5 0-10.8.6-16.2.9l-.9.2c.1 1.2-1.2 1.1-1.5 2-.5 1-2.9.8-2.9 1.8-.2 1.7 0 3.9-.3 6.3-.5 3.3-.9 6.8-1.6 10.7 3.4 2.9 10.8 2 15.7 2 3.2 0 6.6 0 10 .2 2.8.2 6.4.6 8.9-.3.3-2.5-1.7-6.1-2.1-8.8-.7-3-2.9-6.1-3.5-9.3z"/><linearGradient id="Z" x1="11.442" x2="15.646" y1="334.178" y2="334.178" gradientTransform="matrix(2.7597 0 0 -2.7597 114.128 982.45)" gradientUnits="userSpaceOnUse"><stop offset="0" stop-color="#fff2ca"/><stop offset=".436" stop-color="#ffeabc"/><stop offset="1" stop-color="#ffdda4"/></linearGradient><path fill="url(#Z)" stroke="#F1B74F" stroke-width=".186" d="M151.2 61.3c4.4.3 6-1.5 6-1.5l-11.6-.6c.1-.1 1.2 1.8 5.6 2.1z"/><path fill="#050606" stroke="#050606" stroke-width=".211" d="M135.7 44.1v-1.9c-4.5.5-3.5 7.7 2.4 4.8.6-1.1.3-2.3-.5-3.3-.7-.3-1.3-.2-1.9.4z"/><linearGradient id="aa" x1="6.556" x2="8.237" y1="337.754" y2="337.754" gradientTransform="matrix(2.7597 0 0 -2.7597 114.128 982.45)" gradientUnits="userSpaceOnUse"><stop offset="0" stop-color="#fff2ca"/><stop offset=".436" stop-color="#ffeabc"/><stop offset="1" stop-color="#ffdda4"/></linearGradient><path fill="url(#aa)" stroke="#F1B74F" stroke-width=".186" d="M133.4 48.1c-.7.5-1.3 1.8-1.2 2.4.1.6 2.3 2.2 2.8 2.2.6 0 1.9-.1 1.9-.1l-.7-4.2c0 .1-2.1-.8-2.8-.3z"/><linearGradient id="ab" x1="7.06" x2="22.446" y1="338.854" y2="338.854" gradientTransform="matrix(2.7597 0 0 -2.7597 114.128 982.45)" gradientUnits="userSpaceOnUse"><stop offset="0" stop-color="#fff2ca"/><stop offset=".436" stop-color="#ffeabc"/><stop offset="1" stop-color="#ffdda4"/></linearGradient><path fill="url(#ab)" stroke="#F1B74F" stroke-width=".186" d="M161.5 42.2c-5.2-1.9-10.1-7.6-14.2-7.7-4.1-.1-9.4.6-9.4.6s-4.3 6.8-4.3 8.9c0 2 .5-1.7 1.6 8.3-.2.7-.9 2.4-.8 3.2.2 1 1.6 2.6 5.3 3.7 3.6 1 8.8.9 10.9.9 3.1 0 18.4-.7 20.4-1.8s5.2-2.7 4.8-2.7c-2.8-.3-.1-.6-.5-1.8-.2-1.2.7-4.2.7-4.2-1.3 0-9.4-5.5-14.5-7.4z"/><linearGradient id="ac" x1="21.549" x2="23.152" y1="336.347" y2="336.347" gradientTransform="matrix(2.7597 0 0 -2.7597 114.128 982.45)" gradientUnits="userSpaceOnUse"><stop offset="0" stop-color="#fff2ca"/><stop offset=".436" stop-color="#ffeabc"/><stop offset="1" stop-color="#ffdda4"/></linearGradient><path fill="url(#ac)" d="M174.2 52.3l-.7 4.2s1.3.1 1.7.1 2.6-1.6 2.7-2.2c.1-.6-.5-1.9-1.2-2.4-.5-.6-2.5.3-2.5.3z"/><linearGradient id="ad" x1="13.895" x2="18.141" y1="335.565" y2="335.565" gradientTransform="matrix(2.7597 0 0 -2.7597 114.128 982.45)" gradientUnits="userSpaceOnUse"><stop offset="0" stop-color="#ec1475"/><stop offset="1" stop-color="#fff5cb"/></linearGradient><path fill="url(#ad)" d="M158.3 52.8c-3.2 0-5.8 1.9-5.8 4.3s2.7 2.8 5.8 2.8c3.2 0 5.9-.5 5.9-2.8-.1-2.4-2.6-4.3-5.9-4.3z" opacity=".13"/><path fill="#030305" d="M143.4 45.7c-.6-.1-1 .3-1.2.9-.1.5.2 1 .8 1.1s1-.3 1.2-.9c.1-.6-.3-1-.8-1.1zm11.9.2c-.6-.1-1 .3-1.2.9-.1.5.2 1 .8 1.1.6.1 1-.3 1.2-.9.1-.5-.2-1-.8-1.1z"/><linearGradient id="ae" x1="7.398" x2="9.46" y1="336.258" y2="336.258" gradientTransform="matrix(2.7597 0 0 -2.7597 114.128 982.45)" gradientUnits="userSpaceOnUse"><stop offset="0" stop-color="#ec1475"/><stop offset="1" stop-color="#fff5cb"/></linearGradient><path fill="url(#ae)" d="M138.3 51.7c-2.1-1.1-1.4-.6-2.8 1-1.3 1.6-1.4 3.2.7 4.3 2.1 1.1 2.1 1.1 3.4-.5 1.2-1.5.6-3.6-1.3-4.8z" opacity=".13"/><path fill="#F7F6F5" d="M144.7 39.8c-2.7 0-8.9 3-8.9 3s3.1-.3 3.9-.3c.9-.1 1.3-.2 1.5-.3.2-.2.8-.5 1-.8.2-.2.9-.7 1.4-.9.3-.2.9-.5 1-.5s.6 0 1.3.2c.7.2 5.5 1.7 5.7 1.8h.6c0-.3-4.9-2.3-7.5-2.2z" opacity=".14"/><path fill="#EF5023" d="M135.4 47.3c.1.5.2.3 0 0zm-2.5-1.8l-.1-.1v.1h.1zm-3.5-2.3c-.1-.2-.2-.3-.5-.4-.2.6 0 1.1.5 1.6.3-.4.4-.7 0-1.2zm3.6 2.3c.5 0 .9 0 1.4-.2.1 0 .3-.1.5-.2.1 0 .1 0 .1-.1 0 0-.1-.2 0-.2-.2-.1-.3-.1-.6-.2-.2 0-.3-.1-.6-.1-.5 0-.8.3-.9.6v.1c0 .2 0 .2.1.3-.1 0-.1 0 0 0z"/><path fill="#EF5023" d="M180 41.2c-.1-1.3-1.2-2-2.2-3-.7-.7-1.7-1.8-1.6-2.6.3-1.4 2.9-1.3-.1-2.7-1.9-.9-2.6-1.2-4.1-2.4-1.3-1-2-1.5-4.1-1.2 2-3-8.7-6.2-10.3-3.4-2.1-3.2-6.7-2-8.9.4l-.3-.6c-1.4.3-1.4 1.1-2.7 1.6-2.4-1.4-4.3-3-6.6-.1-1.5 1.9-2.3 4-6.1 2.5-.6.6-1.6 1.7-1.7 2.4-.3 1.5 1 1.3 1.5 2.6-2.1.8-5.1-.4-6.7.3-3.6 1.6.9 3.1 2.7 3.5-.7 1.5-5.5 1.6-2.6 3.4.8.5 2 .4 2.8.8.1-.2.3-.5.6-.7l2.9 2.4c0 .3.1.6.3.8v-.1c.1-.3.5-.7.9-.6.2 0 .3.1.6.1.2 0 .3.1.6.2v.2c0 .1-.1.1-.1.1-.1.1-.3.1-.5.2-.5.1-.9.2-1.4.2.3.4.9.8 1.4 1.2.1.1.3.1.5.2s.5.3.6.4c0-.1-.1-.2-.1-.4 0-.1.1-.2.1-.3 0-.4-.2-.9-.2-1.4v-.3c.1-.1.3-.2.5-.4.2-.3.5-.6.7-.9.5-.7 1-1.2 2-1.5 1.6-.3 1.7.8 3 .8 1.7 0 2-.9 3.4-1.4.6-.2 2.4-.6 3.1-.5 1.6.3 1.5 1.4 3 1.7 2.4.6 4.1-1.6 6-2.2.8-.2 2.2-.5 3.1-.5 1.7.1 1.9 1.1 3.1 1.3 3.1.4 3.7-2.8 6.1-2.8 2 0 1 1.3 2.3 1.5 1.6.2 2.2-.9 2-1.7 3.9-1.1 1 1.8 1 2.5-.1.8 1.2 1.3 1.2 1.9-.1.9-1.5 1-2 1.7.8.6 1.7 1.8 3.2 2 3.1.3.9-1.1 1.2-2.2.6-1.1 1.9-1.6 1.9-3z"/><path fill="#EF5023" d="M132.8 45.5c0 .2 0 .3.1.5s.2.1.5.2c.1.1.3.2.5.3.1.1.2.2.5.3-.5-.4-.9-.8-1.4-1.2-.1-.1-.1-.1-.2-.1z"/><path fill="#EF5023" d="M133.8 46.4c-.1-.1-.2-.3-.5-.3-.2-.1-.3 0-.5-.2-.1-.1-.1-.3-.1-.5-1.3 0-2.6-.5-3.4-1.1-.2.4-.7.8-1 1.3.8.6 2 .7 3 .8-.2.7-1 1.3-1.2 2.1 1.5.7 3.9 1.1 4.5-.1.2-.7-.1-1.2-.6-1.7.1-.1 0-.2-.2-.3z"/><path fill="#EF5023" d="M132.8 45.5v-.1c-.2-.3-.3-.5-.3-.8l-2.9-2.4c-.3.2-.5.5-.6.7.1.1.3.2.5.4.3.5.2.8.1 1.2.6.5 1.9 1 3.2 1z"/><path fill="#FFF" d="M140.7 37.3s-1.2 1.3.5 1.8 3.6-.8 4.8-1.1c1.2-.3 4.8-2.1 4.8-2.1s-2.9.2-6.5 1.3c-3.6 1-3.6.1-3.6.1zm19.1.5c3.4.8 9.9-1 12.2-2.5l.7-.2c-2.3.3-4.4.7-6.7 1-1.6.2-5.6.5-6.2 1.7zm-1.1-7.7c-1 .1-3.9-.4-4.8.2-2.1 1.5 5.5 1.4 7 .3l-.9.3c1.3-.5 2.1-1.4 3.4-1.9-1.6.5-3.2 1-4.7 1.1z" opacity=".13"/><path fill="#EF5023" d="M177.1 35l-18.9 2.7c-1.7 3.7 1.2 4.2 4.5 6.9 3.4 2.8 5.7 4.8 1 7.4 2.7.4 3.4 1.8 2.8 3.5 2.9 1 6.8-1.3 8.4-2.8.9-.9 1.5-.4 2.3-1.1 1-1 1.6-2 2.3-3.2.9-1.8-.7-4.8-.7-6.5-.2-2.3 1.6-5.3-1.7-6.9z"/><path fill="none" stroke="#FCB614" stroke-width=".75" d="M147.9 50.3s-1.5.3-1.6 1.6c-.1 1.4.9 1.8.9 1.8"/><path fill="#FFF" stroke="#050606" stroke-width=".211" d="M160.5 42.1c-.3-1.3-.5-3.3.9-4.4l2.4-.8c-6.3-.7-7.3 5.4-3.3 5.2z" opacity=".13"/><g stroke-width=".186"><path fill="#FFF" stroke="#FFF" d="M146.7 55.7c-.2 0-.5.1-.5.1l-.2.3v.3h1.1c.3 0 .3-.3.3-.3l-.1-.2c.2.1-.3-.2-.6-.2z"/><path fill="#F59EB0" stroke="#F59EB0" d="M146.6 56.8c-.2 0-.5-.1-.7 0-.2.1-.1.3 0 .4.2.4.5.5.9.6.2 0 .5 0 .6-.2.1-.1.3-.4.2-.5v.1c-.1-.3-.6-.3-1-.4z"/><ellipse cx="146.7" cy="56.8" fill="none" stroke="#CD8D2A" rx="1" ry="1.1"/></g><path fill="#030305" d="M157.3 46.2l-3.2-1.4c1.1.5 2 1 3.2 1.4zm-13.6-1l-2.4 1c.8-.3 1.6-.7 2.4-1z"/><path fill="#FFF" stroke="#676767" stroke-miterlimit="10" stroke-width=".5" d="M193.4 40c-2.4-1-11-3-19.6-2.9-8.5.1-14.3 1-19.4 3.2-.7.3-.1 1.5.5 1.2 0 0 5.9-3.2 19.1-3.2 13.1 0 19.1 3.2 19.1 3.2s2.7-.5.3-1.5z"/><path fill="#FFF" stroke="#676767" stroke-miterlimit="10" stroke-width=".5" d="M154.7 41.6l6.4 21.9s10.4 3.5 26.3.2c1.7-6.9 5.1-14.8 7.3-22.6-14.3 4.1-40 .5-40 .5z"/><path fill="none" d="M170.9 65.1c1.7-6.9 5.2-14.9 7.3-22.1"/><path fill="#CC3232" d="M156 41.7l6.4 22.1s4.2 1 4.1.7c-.2-.9-5-21.7-5-21.7l-5.5-1.1zm10.4 1.5l2.6 21.7 3.7.2V43.3z" opacity=".71"/><path fill="#FAF39A" stroke="#989866" stroke-miterlimit="10" stroke-width=".25" d="M175.3 41.4l-.1-.3c.1-.2.3-.3.1-.5-.1-.1-.5-.1-.6-.1-.6 0-.8.2-.9.6-.3-.6-1.5-.1-.9.4-.3-.1-1-.1-1 .3s.7.3 1 .4c-.2.5-.3.7.3 1 .6.3.9.3 1.6 0 .7-.2.9-.6 1.3-1 .2-.3.1-.3-.1-.5-.3-.2-.5-.3-.7-.3z"/><path fill="#FFF" d="M175.4 41.6c-.3.2-.2-.5-.6-.5-.6 0-.5.4-.6.6-.2-.1-.2-.4-.5-.4-.2-.1-.6.1-.6.2v.3c0 .1-.1.1 0 .2l.2.2c.1.1 0 .2.1.2-.1 0-.2 0-.3-.1-.3.1-.3.4-.1.6.2.2.6.2.8.4.7 0 1.4-.3 1.7-.8.1-.1.5-.5.5-.6.1-.1-.4-.3-.6-.3z"/><path fill="#FC3" d="M174.3 40.6c-.3.1-.8.7-.3.8.1-.2 0-.4.2-.6.2-.2.7-.1.9.1v.2c.1 0 .1-.1.1-.1.1-.4-.5-.5-.9-.4zm-1.6.6c0 .1 0 .2.1.3v-.1c0-.3.3-.6.8-.4 0-.3-.8 0-.9.2zm-.7.4c-.1.1-.1.4.1.4-.2-.2.1-.6.5-.5h.1c-.2 0-.6-.1-.7.1z"/><path fill="#CC3232" d="M176.3 65.1l3.7-.3 2.7-21.7-6.3.1zm5.8-.5l4.2-.7 6.4-22.1-5.5 1z" opacity=".71"/><linearGradient id="af" x1="21.741" x2="21.821" y1="342.522" y2="338.462" gradientTransform="matrix(2.7597 0 0 -2.7597 114.128 982.45)" gradientUnits="userSpaceOnUse"><stop offset="0" stop-color="#faf39a"/><stop offset="1" stop-color="#fc3"/></linearGradient><path fill="url(#af)" stroke="#CA9731" stroke-miterlimit="10" stroke-width=".25" d="M190.8 40.8c1.6-.3.3-1.1-.7-1.2.9-.8-1-.7-1.5-.7 1.3-.8-1.5-1-2.1-.9.7-1.4-1.9-1.2-2.8-.9-.2-.8-1.5-.5-2.2-.3 0-.4-.6-.5-1-.5 0-.9-.8-1.3-2-1.2-.2-.9-1.9-.9-2.8-.4-.7-.7-2-.1-2 .6-.8-.5-1.5-.5-2.4 0-.5-.7-1.6-.3-2.2.1-.6-.7-1.6-.4-2 .2-.3-.2-1.3-.1-1.5.2-.2.3.2.7.2 1.1-1 .5-1.4-.5-2.6-.1-.6.2-2.6.8-2.1 1.4-1 0-1.2.2-1.7.6-.3.3-.6.1-.7.5 0 .3.3.6.3.8-.5 0-1 .1-1.2.5-.6-.1-1.2.1-1 .6l-.5.4c1 1 3.6 1.2 5.5 1.5 2.2.4 4.4.5 6.6.9 2.3.4 4.9.7 7.3.6 2.2-.1 4.3-.4 6.5-.9 2.1-.4 4.2-.5 6.4-.9.8-.1 2.9-.2 3.2-.9.1-.5-.4-1-1-1.1z"/><path fill="#FAF39A" stroke="#989866" stroke-miterlimit="10" stroke-width=".25" d="M159.8 40.5c.3-.3.5-.4.2-.7s-.5-.3-1-.4c-.5 0-.8.2-1.2.4-.2.1-.2.2-.1.4.1.1.1.3.3.3v.2c-.1.1-.3.1-.2.3 0 .1.2.2.3.2.3.1.7 0 .8-.2 0 .4.9.4.8 0 .2.1.6.3.7 0 .1-.3-.3-.4-.6-.5z"/><path fill="#FFF" d="M159.6 39.5c-.5-.1-1-.1-1.4.1-.1.1-.5.2-.5.3s.1.4.2.4c.3 0 0 .4.1.4.3.1.5-.2.6-.3.1.1 0 .3.1.4.1.1.3.1.5 0 0 0 0-.1.1-.2l.1-.1v-.2c0-.1.1-.1 0-.2.1 0 .1.1.1.1.3 0 .5-.2.3-.4.1 0-.1-.1-.2-.3z"/><path fill="#FC3" d="M158.3 41.1c-.2.1-.5-.1-.6-.2l.1-.1s-.1 0-.1.1c-.1.1.3.3.6.2.1.1.7-.2.3-.3.1.1 0 .2-.3.3zm.6-.1c-.1.2.5.2.6.1 0-.1.1-.1.1-.2-.1.2-.5.3-.7.1zm1.4-.3c0 .2-.3.3-.5.2.1 0 .3.2.5.1 0 0 .1-.2 0-.3z"/><path fill="#FAF39A" stroke="#989866" stroke-miterlimit="10" stroke-width=".25" d="M170.5 41.6v-.2c.1-.1.2-.2.1-.3-.1-.1-.2-.1-.3-.1-.3 0-.6.1-.7.3-.1-.4-1-.2-.7.2-.2-.1-.7-.1-.7.1 0 .3.5.2.7.4-.2.3-.3.4 0 .7.3.3.6.2 1.2.2.5-.1.7-.3 1-.6.2-.2.1-.2 0-.4-.4-.1-.5-.3-.6-.3z"/><path fill="#FFF" d="M170.5 41.7c-.2.1-.1-.4-.3-.4-.3-.1-.3.3-.5.4-.2-.1-.1-.3-.2-.3-.1-.1-.5 0-.5.1v.2c0 .1-.1.1-.1.2 0 0 .1.1.1.2v.2c-.1 0-.1 0-.2-.1-.2.1-.3.2-.2.4.1.2.3.2.6.3.5 0 1-.1 1.3-.4.1-.1.3-.3.3-.4.2-.1-.2-.3-.3-.4z"/><path fill="#FC3" d="M170 41c-.2 0-.6.4-.3.5 0-.1 0-.3.3-.5.1 0 .3.1.6.2 0 0 0 .1-.1.1l.1-.1c0-.1-.4-.2-.6-.2zm-1.2.3v.2c0-.2.3-.4.6-.2.1-.3-.5-.1-.6 0zm-.6.2c-.1.1-.1.3 0 .3-.1-.2.2-.4.5-.3-.2 0-.4-.1-.5 0z"/><path fill="#FAF39A" stroke="#989866" stroke-miterlimit="10" stroke-width=".25" d="M183.4 38.1c.2-.4-.6-.6-.7-.2-.1-.2-.3-.4-.7-.2-.2.2.1.4.2.6-.5.1-.7.2-.6.6 0 .4.2.5.7.6.5.2.8.1 1.3 0 .2 0 .3-.1.3-.3 0-.1 0-.3-.1-.4l.1-.2c.2-.1.3 0 .3-.2 0-.1-.1-.2-.1-.3-.1-.1-.5-.1-.7 0z"/><path fill="#FFF" d="M183.8 38.5c-.2-.2-.5 0-.7.1 0-.1.1-.3.1-.4s-.3-.2-.5-.1l-.1.1c-.1.1-.1 0-.2.1 0 0 0 .1-.1.2 0 .1-.1.1-.1.1l-.1-.1c-.2-.1-.5 0-.6.2 0 .2.1.3.1.5.3.3.8.4 1.4.3.1 0 .6 0 .6-.1.1-.1.1-.4 0-.4-.1-.1.5-.4.2-.5z"/><path fill="#FC3" d="M184.1 38.1c-.2-.1-.8 0-.7.2.2 0 .3-.2.6-.2s.3.2.3.4l-.1.1h.1c.1-.1-.1-.4-.2-.5zm-1.2-.3l-.2.2c.2-.1.6-.1.6.1.3-.2-.3-.4-.4-.3zm-.7-.1c-.1 0-.3.2-.2.2.1-.2.5-.2.6 0-.1-.1-.1-.2-.4-.2z"/><path fill="#FAF39A" stroke="#989866" stroke-miterlimit="10" stroke-width=".25" d="M175.3 36.7c.2-.4-.6-.6-.7-.2-.1-.2-.3-.4-.7-.2-.2.2.1.4.2.6-.5.1-.7.2-.6.6 0 .4.2.5.7.6.5.2.8.1 1.3 0 .2 0 .3-.1.3-.3 0-.1 0-.3-.1-.4l.1-.2c.2-.1.3 0 .3-.2 0-.1-.1-.2-.1-.3-.2-.1-.5-.2-.7 0z"/><path fill="#FFF" d="M175.7 37c-.2-.2-.5 0-.7.1 0-.1.1-.3.1-.4 0-.1-.3-.2-.5-.1l-.1.1c-.1.1-.1 0-.2.1 0 0 0 .1-.1.2 0 .1-.1.1-.1.1l-.1-.1c-.2-.1-.5 0-.6.2 0 .2.1.3.1.5.3.3.8.4 1.4.3.1 0 .6 0 .6-.1.1-.1.1-.4 0-.5-.1 0 .3-.2.2-.4z"/><path fill="#FC3" d="M176 36.7c-.2-.1-.8 0-.7.2.2 0 .3-.2.6-.2s.3.2.3.4l-.1.1h.1c.1-.2-.1-.4-.2-.5zm-1.3-.4l-.2.2c.2-.1.6-.1.6.1.4-.2-.2-.3-.4-.3zm-.6-.1c-.1 0-.3.2-.2.2.1-.2.5-.2.6 0-.2 0-.2-.2-.4-.2z"/><path fill="#FAF39A" stroke="#989866" stroke-miterlimit="10" stroke-width=".25" d="M174.3 41.9c.6-.2 0-.7-.5-.5 0-.2 0-.5-.3-.5s-.2.4-.3.5c-.5-.1-.7-.1-.9.2-.2.3-.2.5.1.8.2.3.7.4 1 .5.2.1.3 0 .5-.1.1-.1.2-.2.2-.3l.2-.1c.2 0 .3.1.5 0 .1-.1.1-.2.1-.3 0-.1-.2-.2-.6-.2z"/><path fill="#FFF" d="M173.9 42.1c.1-.1.3-.1.3-.3.1-.1-.1-.3-.2-.3h-.4s-.1.1-.2.1-.1 0-.2.1v-.2c-.1-.2-.5-.2-.7 0-.2.1-.2.3-.3.5.1.4.5.7.9.8.1 0 .5.2.6.2s.3-.3.3-.4c-.2-.2.5-.1.5-.3-.1-.2-.5-.1-.6-.2z"/><path fill="#FC3" d="M174.1 42c.2 0 .5 0 .6.1.2.1.1.3 0 .5h-.2s.1 0 .1.1c.2 0 .2-.4.2-.5 0-.2-.6-.4-.7-.2zm.1-.6c-.1 0-.2 0-.2.1.2 0 .6.2.3.3.4 0 0-.4-.1-.4zm-.9-.3c.2-.1.6 0 .5.2 0-.1.1-.3-.1-.3-.1 0-.4 0-.4.1z"/><path fill="#FAF39A" stroke="#989866" stroke-miterlimit="10" stroke-width=".25" d="M165.9 39.1c-.5 0-.5.3-.8.5-.2-.2-.7-.5-1.2-.5-.3 0-.9.1-.9.4l-.9-.3c-.1.1-.5.4-.5.5 0 .2.2.3.3.5.1.3-.7.7.1 1 .5.1.3-.2.7-.1.1 0 .5.3.6.4.3.2 1.2.2 1.4-.2.5.2.6.5 1.2.2-.1-.2-.2-.4-.1-.6.3.1.6.1.9.1.5-.5.3-1 0-1.6-.1-.2-.4-.4-.8-.3z"/><path fill="#FC3" d="M163 39.6c-.1-.1-.3-.2-.5-.1-.1 0-.2.2-.3.2.2.2.3.3.7.2.2 0 .1-.1.1-.3zm-1 .4c0 .1.1.2.1.3s-.1.2-.2.4c0 .2.2.5.5.3.2-.2.3-.4.2-.7 0-.1-.6-.5-.6-.3zm4.9.3c-.2.1-.5.2-.7.4.1.1.5.1.6 0 .1 0 .2-.3.1-.4z"/><path fill="#FFF" d="M165.1 39.7c-.3-.1-.6-.3-.9-.5-.1-.1-.5 0-.6 0-.2.1-.2.2-.3.4 0 .1 0 .3-.1.4-.1 0-.2 0-.2.1v.2c0 .2.1.2.3.3s.3.2.6.1l.2-.2h.3c.2 0 .3.1.6.2.1-.1.2-.2.3-.2.1 0 .3.1.6 0v-.7c.1-.3.7-.2.6-.5-.2-.6-1.3.1-1.4.4zm-1.4 1.2c-.2 0-.2 0 0 0z"/><path fill="#FFF" d="M164 40.7l-.3.3h-.1c-.2-.2-.9-.4-.7 0 .1.3.7.5 1 .4.3 0 .8-.4.5-.7.1-.1-.3-.1-.4 0z"/><path fill="#FAF39A" stroke="#989866" stroke-miterlimit="10" stroke-width=".25" d="M188.4 39.5c-.5-.1-.3.2-.7.2-.1 0-.5-.3-.6-.4-.5-.1-1.2-.2-1.4.2-.5-.2-.7-.5-1.2-.2.1.2.2.4.1.6-.3-.1-.6 0-.9-.1-.5.5-.3 1 0 1.6.2.3.5.4.9.3.5 0 .5-.3.8-.5.3.2.7.4 1.2.5.3 0 .9-.2.9-.4l.9.3c.1-.1.5-.4.5-.5 0-.2-.2-.3-.3-.5-.1-.5.7-.9-.2-1.1z"/><path fill="#FC3" d="M187.7 40.7c-.3.1-.1.1-.1.3.1 0 .3.2.5.1.1 0 .2-.2.3-.3-.3-.1-.4-.2-.7-.1zm.9-.8c0-.2-.2-.5-.5-.3-.2.2-.3.4-.2.7.1.1.7.4.7.2 0-.1-.1-.2-.1-.3 0 0 .1-.1.1-.3zm-4.9.1c-.1.1-.2.3-.1.4.2-.1.5-.3.7-.4-.2-.1-.5-.1-.6 0z"/><path fill="#FFF" d="M187.3 40.1c-.2-.1-.3-.2-.6 0l-.2.2h-.3c-.2 0-.3-.1-.6-.2-.1.1-.2.2-.3.2h-.6c0 .2.1.5 0 .7-.1.3-.6.2-.6.5.1.7 1.2-.1 1.3-.3.3.1.6.3.9.4.1.1.5 0 .6 0 .2-.1.2-.2.2-.4 0-.1 0-.3.1-.4.1-.1.2 0 .2-.1v-.2c.3-.3.2-.3-.1-.4zm-.4-.4c0 .1 0 .1 0 0 0 .1 0 .1 0 0z"/><path fill="#FFF" d="M186.4 39.3c-.3 0-.8.4-.5.7.1.1.5.1.6 0l.3-.3h.1c.2.1.9.4.7 0-.3-.2-.7-.4-1.2-.4z"/><path fill="#FAF39A" stroke="#989866" stroke-miterlimit="10" stroke-width=".25" d="M173.8 37.3c-.3-.2-.3.1-.7 0-.1 0-.2-.4-.5-.5-.3-.2-1-.5-1.4-.1-.3-.3-.3-.6-1-.5 0 .2 0 .4-.2.6-.2-.1-.6-.2-.8-.3-.7.4-.8.9-.7 1.5 0 .3.2.5.7.5.3.1.6-.1 1-.3.2.3.5.6.8.7.3.1 1 .1 1-.2l.7.5c.1-.1.6-.3.7-.4.1-.2-.1-.4-.1-.5.2-.3 1.1-.5.5-1z"/><path fill="#FC3" d="M172.6 38.3c-.3 0-.2.1-.3.3 0 .1.2.2.3.2s.2-.1.3-.2c0-.1 0-.3-.3-.3zm.8-.9c-.3.2-.6.3-.6.6 0 .1.3.6.5.4.1-.1 0-.2.1-.3l.3-.3c.2-.2.2-.5-.3-.4zm-4.3-.7c-.1 0-.3.3-.2.4.2-.1.6-.1.8-.2-.1-.2-.4-.3-.6-.2z"/><path fill="#FFF" d="M172 37.5c-.1 0-.1.1-.3.1-.1 0-.2-.1-.3-.1-.2-.1-.3-.2-.5-.3-.1 0-.3.2-.5.2s-.3-.1-.5-.2c-.1.2-.1.5-.3.6-.2.2-.7 0-.8.3-.2.6 1.2.2 1.4 0 .2.2.5.4.7.6.1.1.3.1.6.1s.3-.1.5-.3c.1-.1.1-.3.3-.4h.2c.1 0 .1-.1.1-.2.1-.2 0-.2-.1-.4-.1 0-.1-.1-.5 0zm.2-.3z"/><path fill="#FFF" d="M172 36.7c-.3-.1-.9.2-.8.5.1.1.3.2.5.2.1 0 .3-.1.5-.2h.1c.2.2.7.6.6.1-.1-.2-.5-.5-.9-.6z"/><path fill="#FAF39A" stroke="#989866" stroke-miterlimit="10" stroke-width=".25" d="M180.4 39.9c-.1-.2-.5-.1-.7-.2-.3-.2-.1-.9-.9-.7-.5.1-.1.3-.5.4-.1 0-.6-.1-.8 0-.5.1-1 .4-.9.7-.6 0-.9-.1-1.2.4.2.1.5.2.6.4-.2.1-.5.2-.8.3.1.6.6 1 1.4 1.2.3.1.7.1 1-.1.3-.2.1-.4.1-.8.3 0 .9.1 1.3-.1.2-.1.7-.5.5-.7l.9-.2c.1-.1.1-.4 0-.6z"/><path fill="#FC3" d="M179.2 40.3c-.2.2 0 .2.1.3.1 0 .5 0 .5-.1.1-.1 0-.2 0-.3-.1-.1-.4-.1-.6.1zm.4-.6c-.1-.1-.1-.3-.2-.4-.1-.2-.6-.3-.6 0s0 .5.3.6c.1.1.9.1.7-.1 0 0-.2 0-.2-.1zm-4.2 1.7c0 .1.1.4.3.4 0-.2.2-.4.1-.6-.1 0-.3.1-.4.2z"/><path fill="#FFF" d="M179 40.4c0-.1.1-.1.1-.2s-.1-.1-.1-.2c-.2-.1-.3-.1-.6-.1s-.5 0-.5.2v.2s-.2.1-.3.1c-.2.1-.3.1-.6.1v.3c-.1.1-.3.1-.5.2.2.1.5.4.6.5.1.2-.3.4-.1.6.6.5.9-.6.7-.8.3 0 .7 0 1.2-.1.2 0 .3-.1.5-.3.1-.2 0-.2-.1-.4-.2.2-.3 0-.3-.1z"/><path fill="#FFF" d="M178.3 39.6c-.3-.1-.9-.1-1.2.1-.2.2-.2.7.2.8.1 0 .5-.1.5-.2.1-.1 0-.3.1-.4.3 0 1-.1.4-.3zm-.5.3z"/><path fill="#FAF39A" stroke="#989866" stroke-miterlimit="10" stroke-width=".25" d="M166.6 37.4c.3-.6-.8-.8-1-.3-.1-.2-.6-.6-.9-.3-.3.3.2.6.2.8-.7.2-.9.3-.9.8s.3.7 1 .9c.6.2 1.3.1 1.9 0 .5-.1.5-.1.5-.4 0-.2.1-.4-.1-.5l.2-.3c.2-.1.5 0 .6-.3 0-.1-.1-.3-.2-.4-.5-.2-1-.2-1.3 0z"/><path fill="#FFF" d="M167.3 37.9c-.3-.3-.7.1-1 .1-.1-.2.2-.4.2-.5 0-.2-.5-.3-.7-.2-.1 0-.1.1-.2.2s-.1 0-.2.1c0 0 0 .2-.1.3l-.2.2c-.1 0-.1-.1-.1-.2-.3-.1-.7 0-.8.4-.1.2.1.5.1.7.5.4 1.3.5 2 .4.2 0 .8-.1.9-.1.1-.1.1-.5 0-.6-.5-.2.3-.6.1-.8z"/><path fill="#FC3" d="M167.5 37.4c-.2-.1-1.2 0-1 .3.2-.1.5-.3.8-.3s.5.3.5.5c-.1 0-.1.1-.2.1h.2c.3-.1-.1-.5-.3-.6zm-1.6-.5c-.1.1-.2.1-.2.2.3-.2.8-.2.9.2.3-.2-.5-.4-.7-.4zm-1-.1c-.2 0-.5.2-.3.3.1-.3.7-.3.8 0-.1-.1-.2-.3-.5-.3z"/><path fill="#FAF39A" stroke="#989866" stroke-miterlimit="10" stroke-width=".25" d="M169.5 40.3l-.1-.6c-.2.2-.2.4.1.6z"/><path fill="#FAF39A" stroke="#989866" stroke-miterlimit="10" stroke-width=".25" d="M170.3 39c-.3.1-.8.4-.9.7l.1.6c-.2-.2-.2-.4-.1-.6-.5.1-.9.1-.8.5 0 .2.3.3.3.5.1.1.1.4.1.5.3.1.7.2 1 .3.2-.2.7-.6.8-.1.2 0 .6.1.8 0 .3-.1.1-.3.2-.4.1-.3 0-.2.2-.4s.5-.3.7-.4c-.1-.3-.1-.8-.1-1.1-.7-.2-1.5-.3-2.3-.1z"/><path fill="#FFF" d="M171.7 39c-.7-.2-1.5 0-2.1.4v.1c-.5.4.2 1.1.9 1 0-.2.1-.8.6-.7-.2.4-.3.4-.3.9h.9c.1-.2-.3-.5 0-.7.1.1.2.2.2.3 1 0 .3-1.1-.2-1.3z"/><path fill="#FC3" d="M169.2 40.8c-.6.3.7.9 1.2.2-.5.2-1.4.5-1.2-.2zm2.2.2c-.1.2-.5.3-.6.1.2.7 1.1.1.6-.1zm-2.8-.7c0-.2.2-.4.5-.4-.5 0-.8.1-.5.4z"/><path fill="#FAF39A" stroke="#989866" stroke-miterlimit="10" stroke-width=".25" d="M182.8 40.6c0-.2.1-.4 0-.6-.2-.2-.5-.1-.7-.1-.3 0-.2 0-.6-.1-.2-.1-.5-.3-.7-.5l-1.5.3c-.2.6-.3 1.2.1 1.7.2.2.7.5 1 .6l.8-.2c-.2.2-.5.2-.8.2.2.3.2.6.8.5.2-.1.3-.3.6-.3.2-.1.5-.1.7-.2 0-.2.1-.5.2-.8 0-.1-.7-.4.1-.5z"/><path fill="#FAF39A" stroke="#989866" stroke-miterlimit="10" stroke-width=".25" d="M181.4 41.7l-.8.2c.2.1.6 0 .8-.2z"/><path fill="#FFF" d="M181.9 40.8c0-.2-.1-.5-.2-.7-.3 0-.7.3-1 .1.1-.1.2-.2.5-.2-.2-.7-1.6-.1-1.7.4-.2.5.2 1.1.8 1.4h.1c.7.3 1.4-.3 1.3-.8-.3 0-1 0-1-.3.5.1.6.2 1.2.1z"/><path fill="#FC3" d="M182.3 41c.2.3.8.9-.1.8h-.1c.5.4 1.2-.6.2-.8zm-.2-.8c.3.1.5.2.2.4 1-.2 0-.8-.2-.4zm-1.3 1.8c0 .3.3.6.6.2-.2 0-.5-.1-.6-.2z"/><path fill="#FAF39A" stroke="#989866" stroke-miterlimit="10" stroke-width=".25" d="M177.2 38.3l-.1-.6c-.2.2-.1.4.1.6z"/><path fill="#FAF39A" stroke="#989866" stroke-miterlimit="10" stroke-width=".25" d="M177.9 37c-.3.1-.8.4-.9.7l.1.6c-.2-.2-.2-.4-.1-.6-.5.1-.9.1-.8.5 0 .2.3.3.3.5.1.1.1.4.1.5.3.1.7.2 1 .3.2-.2.7-.6.8-.1.2 0 .6.1.8 0 .3-.1.1-.3.2-.4.1-.3 0-.2.2-.4s.5-.3.7-.4c-.1-.3-.1-.8-.1-1.1-.6-.1-1.3-.3-2.3-.1z"/><path fill="#FFF" d="M179.4 37.1c-.7-.2-1.5 0-2.1.4v.1c-.5.4.2 1.1.9 1 0-.2.1-.8.6-.7-.2.4-.3.4-.3.9h.9c.1-.2-.3-.5 0-.7.1.1.2.2.2.3 1.1-.1.4-1.1-.2-1.3z"/><path fill="#FC3" d="M176.9 38.8c-.6.3.7.9 1.2.2-.4.2-1.3.5-1.2-.2zm2.3.2c-.1.2-.5.3-.6.1.1.7 1.1.2.6-.1zm-2.8-.7c0-.2.2-.4.5-.4-.5 0-.8.2-.5.4z"/><path fill="#FFF" stroke="#676767" stroke-miterlimit="10" stroke-width=".5" d="M193.6 40.4s-6 3.2-19.1 3.2-19.1-3.2-19.1-3.2c-.6-.3-1.6.8-.9 1.1 5.1 2.2 11.3 3.1 19.7 3.3 8.5.1 17.2-1.8 19.6-2.9 1.9-1-.2-1.5-.2-1.5z"/><path fill="#FFF" d="M154.4 41.1h1.2c.2 0 .3 0 .5-.1s.1-.2.2-.3v-.1c-.6-.7-2.4-.3-1.9.5zm39-.8c-.5 0-.8.2-1.3.4l-.8.3c.3.3 1.2.2 1.7.1.3 0 .8 0 1.2-.2.2-.4-.3-.6-.8-.6z"/><path fill="#FAF39A" stroke="#989866" stroke-miterlimit="10" stroke-width=".25" d="M178.2 36.2c.3-.3.5-.4.2-.7-.2-.3-.5-.3-1-.4-.5 0-.8.2-1.2.4-.2.1-.2.2-.1.4.1.1.1.3.3.3v.2c-.1.1-.3.1-.2.3 0 .1.2.2.3.2.3.1.7 0 .8-.2 0 .4.9.4.8 0 .2.1.6.3.7 0 .1-.3-.4-.4-.6-.5z"/><path fill="#FFF" d="M178 35.2c-.5-.1-1-.1-1.4.1-.1.1-.5.2-.5.3 0 .1.1.4.2.4.3 0 0 .4.1.4.3.1.5-.2.6-.3.1.1 0 .3.1.4.1.1.3.1.5 0 0 0 0-.1.1-.2l.1-.1V36c0-.1.1-.1 0-.2.1 0 .1.1.1.1.3 0 .5-.2.3-.4.2 0 0-.1-.2-.3z"/><path fill="#FC3" d="M176.8 36.8c-.2.1-.5-.1-.6-.2l.1-.1h-.1c-.1.2.2.4.6.3.1.1.7-.2.3-.3-.1.1-.2.3-.3.3zm.5-.1c-.1.2.5.2.6.1 0-.1.1-.1.1-.2-.2.2-.5.3-.7.1zm1.3-.3c0 .2-.3.3-.5.2.1 0 .3.2.5.1 0 0 .1-.2 0-.3z"/><linearGradient id="ag" x1="12.628" x2="22.419" y1="334.31" y2="334.31" gradientTransform="matrix(2.7597 0 0 -2.7597 114.128 982.45)" gradientUnits="userSpaceOnUse"><stop offset="0" stop-color="#fff2ca"/><stop offset=".436" stop-color="#ffeabc"/><stop offset="1" stop-color="#ffdda4"/></linearGradient><path fill="url(#ag)" stroke="#F1B74F" stroke-width=".186" d="M172.5 57.4c.7-.4 3.5-1.6 3-2.4-.2-.6-1.2-.1-2 .4-.2.2-.5.3-.6.4-.3.2-.6.4-.7.5.2-.2.5-.3.7-.5.2-.1.5-.3.6-.4.6-.4.9-.9.5-1.4-1.3.3-2 1.1-2.9 1.8.7-.6 1.5-1.3 1.6-2.1-1.6-.6-3.4 1.8-4.8 2.3.3-.8.9-1.6 0-2.2-1.5.3-4.5 4-3.6 4.8l-7.2 5.1-8.1-2.1.7 3 9.9 1.4 5.8-5.2c2.3.1 5.6-1.6 7.7-2.3.7-.2 3.6-1 3-1.7-.8-.9-3 .4-3.6.6z"/><linearGradient id="ah" x1="21.294" x2="21.522" y1="335.837" y2="335.837" gradientTransform="matrix(2.7597 0 0 -2.7597 114.128 982.45)" gradientUnits="userSpaceOnUse"><stop offset="0" stop-color="#fff2ca"/><stop offset=".436" stop-color="#ffeabc"/><stop offset="1" stop-color="#ffdda4"/></linearGradient><path fill="url(#ah)" stroke="#F1B74F" stroke-width=".186" d="M172.9 55.8c.2-.1.5-.3.6-.4-.2.1-.4.3-.6.4z"/><path fill="#996733" d="M154.7 99.9c-2.6-.2-8.8-1.8-11.3-.5-2.6 1.4.9 5.3 2.9 6.6 2 1.4 6.3 3.4 9 1.6 2.2-1.4.9-5.5-.1-7.1l-.5-.6z"/><path fill="#FFF" stroke="#676767" stroke-width=".25" d="M150.7 60.2c-3.7-.7-7.7-.2-7.8 2.6-.1 3.3 5.7 3.8 9.2 4.4.9-1.8 2-4.8 1.3-6.8l-2.7-.2z"/><path fill="#996733" d="M168.9 97.7c-2.8-.8-8.1 2-10.6 2.7l-.3.8c-.3 1.8.1 5.9 2.8 6.8 3.5 1.2 6.7-1.6 8.1-3.3 1.3-1.8 3-6.2 0-7z"/><linearGradient id="ai" x1="25.195" x2="27.845" y1="336.066" y2="336.066" gradientTransform="matrix(2.7597 0 0 -2.7597 114.128 982.45)" gradientUnits="userSpaceOnUse"><stop offset="0" stop-color="#fff2ca"/><stop offset=".436" stop-color="#ffeabc"/><stop offset="1" stop-color="#ffdda4"/></linearGradient><path fill="url(#ai)" stroke="#F1B74F" stroke-width=".186" d="M189.6 51.6l-3 .8c-.7.3-1.6.3-2.6.3.3 1.1 2 1.1 3.4 1-.2.1-3.4.4-3.7.9-.7 1 2.7.6 3.5.7-1 .4-2.7.4-3.6 1 .8.6 2.7.3 3.8.3-1 .3-2.3.4-3.1 1 1.7 1.9 5.1-.3 5.8-1.7.6-.8 1.9-4.4-.5-4.3z"/><path fill="#36469C" d="M154.4 77.6c-6-1.1-8.9 3.2-10 8.4l-2.2 13.8c1.7.9 9 1.3 11.3 1.1 3.7-.3 4.1-.1 4.2-2.5.2-3.6.6-8.7.7-12.2-.1-3.2 1-7.7-4-8.6z"/><path fill="#36469C" d="M171.4 84.8c0-3.2.5-6.5-4.5-7.5-6-1.1-8 1.8-8.9 7l-1.6 15.6c1.7.9 7.7.1 10 0 3.7-.3 5.3.6 5.5-1.8.1-3.4-.6-9.7-.5-13.3z"/><path fill="none" stroke="#CA9731" stroke-miterlimit="10" stroke-width=".75" d="M150 101.2c-.9-.9-3.1-1.6-4.4-1.3.7.7 3.4 1.7 4.4 1.6 1.2-.2 2.2-2.7 3.5-1-.7.3-1.6.7-2.6.7m12.8-.4c-.9-.9-3.1-1.6-4.4-1.3.7.7 3.4 1.7 4.4 1.6 1.2-.2 2.2-2.7 3.5-1-.7.3-1.6.7-2.6.7"/><path fill="none" stroke="#1C3664" stroke-miterlimit="10" stroke-width=".75" d="M158 83.2l.3 17.2"/><path fill="#FAF39A" d="M127.8 54.9c-1.6-1.4-2.5-5.8-5.3-6.5-5.9-1.6-2.5 9.5-2.5 11.1 0 2.4-1.3 4-2.1 6.3-1 2.9 1.2 3 3.2 5.2 1.7 2-2.5 9.7 1 10h.4c2.6.2 6 .7 8.7.4.2-3.8-.4-6.9 1.4-10.6 1.6-3.5 4.3-8.2 2.1-11.8-1.4-2.2-5-2.4-6.9-4.1zm64 6c-1.6.2-2.6 1.1-4.2 1.6-1.8.5-3.6.4-5.5.5-5.4.1-6.3.6-4.7 3.9 1.8 3.7 5.3 11 2.2 14.7l.4.2c4.1 0 8-.1 12.2-.3 1.5-2.8-.2-7.2-.2-10.2-.2-3.6.8-6.9-.2-10.4zm-94-5c-1.5 1.5-.4 3.6-2 5-1.8 1.7-4.9.6-7 1.7 1.4 3 3.6 5.4 4.1 8.6.5 3.2-1.1 6.9 0 9.5l.4.7c2.1-.4 6.5.5 8.3-.2 2.2-.9 1.7-3.1 1.7-4.8 0-3.9 1.2-7.4 1.7-11.1.4-2.4-2-14.9-7.2-9.4zm-55.5 9.9c.2-3-3.2-4.9-3.2-7.9 0-2.7-.1-6-6.5-5.4-1.7 3.2.9 6.7-.1 9.9s.5 6.2-.2 9.6c-.6 2.7-3.6 6.6-2.1 9.5 1.1 2.1 10.6 2.4 14.2 1.6v-.7c-7.2-4.5-2.4-11.3-2.1-16.6z" opacity=".08"/><path fill="#CB9866" stroke="#C66" stroke-width=".186" d="M74.3 49.3c-1.8-.5-5.8-.3-8-.5-2.5-.2-5.2.1-7.3 1.1 2 .5 5.4-.2 7.6-.2h7.8c.1.1 1.1-.1-.1-.4z"/><path fill="#FCCB98" stroke="#CB9866" stroke-width=".25" d="M46.3 57.4c.4-2.4.8-4.8 1.4-7.2.2-1.1.6-7.2 4.3-4.7 1.8 1.2.5 6.8.5 8.4 0 2.4.1 5.1-2.5 7.1-2.9 2.1-6.7-1.2-7.9-2.9l3.7.3.5-1z"/><path fill="#EBBB8C" stroke="#D69561" stroke-width=".5" d="M85 58.6c2.1.2 4.3.6 4.4-1.1.1-1.7-1.8-2.8-4.2-2.5.5 1.1.6 2.8-.7 3.6"/><path fill="#FCCB98" stroke="#CB9866" stroke-width=".25" d="M47.8 48.1c-1-2.1-5-4.2-5-6.4 1.3 0 2.1.9 3.3 1.3-1.1-3.3-3.7-5.4-1.3-6.4 1.4.8 2.1 3.2 3.2 4.3-.6-.8-2-5 .5-5 1.3 0 .8 3.9 1.6 4.7.1-.7.4-5.1 3-3.8 1.6.8-1.3 3.8 0 4.9.2-.9.4-3.1 2.5-2.7.1 1.7-.8 4-1.3 5.5-.4 1.3-1.2 2.3-1.6 3.8m29.5-.4c1-2.1 5-4.2 5-6.4-1.3 0-2.1.9-3.3 1.3-.8-1.1 3.7-5.4 1.3-6.4-1.4.8-2.1 3.2-3.2 4.3.6-.8 2-5-.5-5-1.3 0-.8 3.9-1.6 4.7-.1-.7-.4-5.1-3-3.8-1.6.8 1.3 3.8 0 4.9-.2-.9-.4-3.1-2.5-2.7-.1 1.7.8 4 1.3 5.5.4 1.3 1.2 2.3 1.6 3.8"/><path fill="#FCCB98" stroke="#CB9866" stroke-width=".25" d="M77.3 47.5c1.8 3.4 8.2 11.5 12.5 10.7 1.2-1.8-1.2-4.6-2.7-5.8-1.7-1.4-3.3-3.5-5-4.9"/><path fill="#EBBB8C" d="M86.5 56.6c-2.5 3.2 8 2.1.5-.2"/></g></switch></svg>
