<svg xmlns="http://www.w3.org/2000/svg" xmlns:xlink="http://www.w3.org/1999/xlink" viewBox="0 0 220 129"><symbol id="e" viewBox="-30.4 -37.1 60.7 74.1"><path fill="#E1E8F3" d="M19.9-37c15.1 0 9.4 9.4 9.4 9.4L7.7 11.8v18.4c.3 2.1 3.1 1.2 4.4 2.4.6 1.5.6 4.4.6 4.4h-25.5s0-3 .6-4.4c1.2-1.2 4-.3 4.4-2.4V11.8l-21.5-39.5s-5.7-9.4 9.4-9.4l39.8.1z"/><path fill="#FFF" d="M6.3 11c-.1.2-.2.5-.2.8v18.7c.4 2.4 2.5 2.8 3.7 3 .3.1.6.1.9.2.1.5.2 1 .3 1.6h-21.9c.1-.6.1-1.2.3-1.6.3-.1.6-.2.9-.2 1.2-.2 3.3-.6 3.7-3V11.8c0-.3-.1-.6-.2-.8 0 0-7.1-13-13.1-24.1h38.8L6.3 11z"/><path fill="#C38D8B" stroke="#C38D8B" stroke-width=".75" d="M-5.3-8.6H-16m4.7-9.9H-22M0 2.1h-10.7m-5.9-31h-10.6"/></symbol><path fill="#A2D7C3" d="M0 0h220v129H0V0z"/><path fill="#CDDBE8" d="M0 81.1h220V129H0V81.1z"/><path fill="#7E7E80" d="M0 77.8h220v5.4H0v-5.4z"/><path fill="#C6C5C5" stroke="#C6C5C5" stroke-width="1.372" d="M60.7 53.4l-46.5.5 4.1-5.8 38.1-.1 4.3 5.4z"/><g fill="#AAAAA7" stroke="#AAAAA7" stroke-width="1.372"><path d="M61.5 87c0 1-.6 1.8-1.3 1.8H15.5c-.7 0-1.3-.8-1.3-1.8v-.9c0-1 .6-1.8 1.3-1.8h44.7c.7 0 1.3.8 1.3 1.8v.9z"/><path d="M14.2 86.5v2.6h47.7l-.4-3-47.3.4z"/></g><path fill="#090A0B" d="M21 78.4c-.1 0-.2 0-.2.2.2.1.3.1.5-.2-.1-.3-.3-.3-.5 0"/><path fill="#C6C5C5" stroke="#C6C5C5" stroke-width="1.372" d="M60.5 83.3c0 1-.2 1.8-.4 1.8H15.5c-.2 0-.4-.8-.4-1.8V60.5c0-1 .2-1.8.4-1.8h44.6c.2 0 .4.8.4 1.8v22.8z"/><path fill="#ADADAD" stroke="#ADADAD" stroke-width="1.372" d="M56 73.7c0 5.5.4 9.9-1.1 9.9H39.6c-1.5 0-1.1-4.4-1.1-9.9V71c0-5.5-.4-9.9 1.1-9.9H55c1.5 0 1.1 4.4 1.1 9.9l-.1 2.7z"/><path fill="#575755" d="M43.3 60.8c-1.9 2.1-3.5 5.1-3.6 8.3 0 1.6.7 2.9 1.1 4.4.5 1.5.3 3 .9 4.5 1.3 3.7 4 2.7 6.6 2.7 1.3 0 6.1.8 6.5 2-2.4 1.5-6.4.2-9 .1-1.6-.1-3.1.2-4.7 0-2.3-.4-2.5-.7-2.6-3.7-.2-3.9.2-8 .2-12 0-1.3-.8-5.4.3-5.8 1.7-.5 3.9-.9 4.4.4" opacity=".06"/><path fill="#ADADAD" stroke="#ADADAD" stroke-width="1.372" d="M36.4 73.9c0 5.5.4 9.9-1.1 9.9H19.5c-1.6 0-1.1-4.4-1.1-9.9v-2.7c0-5.5-.4-9.9 1.1-9.9h15.8c1.6 0 1.1 4.4 1.1 9.9v2.7z"/><path fill="#575755" d="M23.3 60.9c-2 2.1-3.6 5.1-3.7 8.3 0 1.6.7 2.9 1.2 4.4s.4 3 .9 4.5c1.4 3.7 4.1 2.7 6.7 2.7 1.3 0 6.3.8 6.6 2-2.5 1.5-6.6.2-9.3.1-1.7-.1-3.2.2-4.8 0-2.4-.4-2.5-.7-2.7-3.7-.2-3.9.2-8 .2-12 0-1.3-.8-5.4.3-5.8 1.7-.5 4-.9 4.5.4" opacity=".05"/><ellipse cx="40.7" cy="72.3" fill="#F17A21" rx="1" ry=".7"/><path fill="#F17A21" d="M41.4 72.2c0 .3-.3.6-.8.6-.4 0-.8-.2-.8-.6 0-.3.3-.6.8-.6.5.1.8.3.8.6z"/><ellipse cx="40.7" cy="72.2" stroke="#000" rx=".5" ry=".3"/><ellipse cx="33.7" cy="72.5" fill="#F17A21" rx="1" ry=".7"/><ellipse cx="33.7" cy="72.5" fill="#F17A21" rx=".8" ry=".6"/><ellipse cx="33.7" cy="72.4" stroke="#000" rx=".5" ry=".3"/><g stroke-width="1.372"><path fill="#C6C5C5" stroke="#C6C5C5" d="M60.7 56.2c0 1-.6 1.8-1.2 1.8h-44c-.7 0-1.2-.8-1.2-1.8v-.9c0-1 .6-1.8 1.2-1.8h43.9c.7 0 1.2.8 1.2 1.8l.1.9z"/><path fill="#AAAAA7" stroke="#AAAAA7" d="M14.2 55.8v2.6h46.9l-.4-3-46.5.4z"/></g><path fill="#5B3B1A" d="M135.1 10.7l8.9-8.9h14.3l8.9 8.9v14.5l-8.9 8.8h-14.4l-8.8-8.8V10.7z"/><path fill="#D0D1CD" stroke="#020202" stroke-width=".25" d="M138.2 12.3l7.3-7.2H157l7 7.2v11.5l-7.1 7.1h-11.5l-7.2-7.2V12.3z"/><path fill="#DDDDDC" stroke="#282827" stroke-width=".25" d="M139.3 23.3V12.6l6.6-6.4 10.7-.2 6.4 6.7v10.6l-6.4 6.5h-10.7l-6.6-6.5z"/><path fill="#CECDCB" stroke="#282827" stroke-width=".25" d="M144 14.8l4.1-4h6.2l4 4v6.4l-4 4.1h-6.1l-4.2-4.1v-6.4z"/><text fill="#231F20" font-family="'MyriadPro-Regular'" font-size="4.18" transform="matrix(.9894 0 0 1 149.27 9.738)">12</text><text fill="#231F20" font-family="'MyriadPro-Regular'" font-size="4.18" transform="matrix(.9894 0 0 1 155.512 10.785)">1</text><text fill="#231F20" font-family="'MyriadPro-Regular'" font-size="4.18" transform="matrix(.9894 0 0 1 158.667 14.665)">2</text><text fill="#231F20" font-family="'MyriadPro-Regular'" font-size="4.18" transform="matrix(.9894 0 0 1 159.727 19.447)">3</text><path fill="#7D5C39" d="M144 1.8l1.5 3.3H157l1.3-3.3H144z"/><path fill="#351D10" d="M135.1 10.7l3.1 1.6v11.4l-3.1 1.5V10.7z"/><path fill="#351D10" d="M145.4 30.9l-1.5 3.1-8.8-8.8 3.1-1.5 7.2 7.2z"/><path fill="#351D10" d="M156.9 30.9l1.4 3.1h-14.4l1.5-3.1h11.5z"/><path fill="#5B3B1A" d="M164 23.8l3.2 1.4-8.9 8.8-1.4-3.1 7.1-7.1z"/><path fill="#7D5C39" d="M164 12.3v11.5l3.2 1.4V10.7l-3.2 1.6z"/><path fill="#9B7D5B" d="M157 5.1l7 7.2 3.2-1.6-8.9-8.9-1.3 3.3z"/><circle cx="151.2" cy="18.1" r=".7" fill="#FFF" stroke="#231F20" stroke-width=".25"/><circle cx="151.2" cy="18.1" r=".6" fill="#EFEFED" stroke="#171716" stroke-width=".25"/><path fill="none" stroke="#231F20" stroke-width=".25" d="M152.7 10.8l-.1.3-2.2 10.6 2.3-10.9z"/><path fill="#231F20" stroke="#231F20" stroke-width=".25" d="M150.8 17.5l-4.7-4.1v.3l4.5 4 .2-.2zm-.3 3h.2l-.3 1.2h-.3l.4-1.2z"/><path fill="#231F20" stroke="#231F20" stroke-width=".25" d="M145.7 13.9l.8-.7-1.7-.9.9 1.6zm1.7 6l.7.9-1.3.6.6-1.5z"/><path fill="none" stroke="#231F20" stroke-width=".25" d="M150.5 18.1l-2.9 2.4"/><text fill="#231F20" font-family="'MyriadPro-Regular'" font-size="4.18" transform="matrix(.9894 0 0 1 159.538 24.02)">4</text><text fill="#231F20" font-family="'MyriadPro-Regular'" font-size="4.18" transform="matrix(.9894 0 0 1 156.127 27.972)">5</text><text fill="#231F20" font-family="'MyriadPro-Regular'" font-size="4.18" transform="matrix(.9894 0 0 1 150.692 28.873)">6</text><text fill="#231F20" font-family="'MyriadPro-Regular'" font-size="4.18" transform="matrix(.9894 0 0 1 145.38 28.46)">7</text><text fill="#231F20" font-family="'MyriadPro-Regular'" font-size="4.18" transform="matrix(.9894 0 0 1 140.956 24.96)">8</text><text fill="#231F20" font-family="'MyriadPro-Regular'" font-size="4.18" transform="matrix(.9894 0 0 1 139.905 19.832)">9</text><text fill="#231F20" font-family="'MyriadPro-Regular'" font-size="4.18" transform="matrix(.9894 0 0 1 139.905 14.637)">10</text><text fill="#231F20" font-family="'MyriadPro-Regular'" font-size="4.18" transform="matrix(.9894 0 0 1 143.82 10.75)">11</text><path fill="#C6C5C5" stroke="#C6C5C5" stroke-width="1.372" d="M140.2 53.4l-46.5.5 4.1-5.8 38.1-.1 4.3 5.4z"/><g fill="#AAAAA7" stroke="#AAAAA7" stroke-width="1.372"><path d="M141 87c0 1-.6 1.8-1.3 1.8H95c-.7 0-1.3-.8-1.3-1.8v-.9c0-1 .6-1.8 1.3-1.8h44.7c.7 0 1.3.8 1.3 1.8v.9z"/><path d="M93.7 86.5v2.6h47.7l-.4-3-47.3.4z"/></g><path fill="#090A0B" d="M100.5 78.4c-.1 0-.2 0-.2.2.2.1.3.1.5-.2-.1-.3-.3-.3-.5 0"/><path fill="#C6C5C5" stroke="#C6C5C5" stroke-width="1.372" d="M140 83.3c0 1-.2 1.8-.4 1.8H95c-.2 0-.4-.8-.4-1.8V60.5c0-1 .2-1.8.4-1.8h44.6c.2 0 .4.8.4 1.8v22.8z"/><path fill="#ADADAD" stroke="#ADADAD" stroke-width="1.372" d="M135.5 73.7c0 5.5.4 9.9-1.1 9.9H119c-1.5 0-1.1-4.4-1.1-9.9V71c0-5.5-.4-9.9 1.1-9.9h15.4c1.5 0 1.1 4.4 1.1 9.9v2.7z"/><path fill="#575755" d="M122.8 60.8c-1.9 2.1-3.5 5.1-3.6 8.3 0 1.6.7 2.9 1.1 4.4.5 1.5.3 3 .9 4.5 1.3 3.7 4 2.7 6.6 2.7 1.3 0 6.1.8 6.5 2-2.4 1.5-6.4.2-9 .1-1.6-.1-3.1.2-4.7 0-2.3-.4-2.5-.7-2.6-3.7-.2-3.9.2-8 .2-12 0-1.3-.8-5.4.3-5.8 1.7-.5 3.9-.9 4.4.4" opacity=".06"/><path fill="#ADADAD" stroke="#ADADAD" stroke-width="1.372" d="M115.8 73.9c0 5.5.4 9.9-1.1 9.9H98.9c-1.6 0-1.1-4.4-1.1-9.9v-2.7c0-5.5-.4-9.9 1.1-9.9h15.8c1.6 0 1.1 4.4 1.1 9.9v2.7z"/><path fill="#575755" d="M102.8 60.9c-2 2.1-3.6 5.1-3.7 8.3 0 1.6.7 2.9 1.2 4.4s.4 3 .9 4.5c1.4 3.7 4.1 2.7 6.7 2.7 1.3 0 6.3.8 6.6 2-2.5 1.5-6.6.2-9.3.1-1.7-.1-3.2.2-4.8 0-2.4-.4-2.5-.7-2.7-3.7-.2-3.9.2-8 .2-12 0-1.3-.8-5.4.3-5.8 1.7-.5 4-.9 4.5.4" opacity=".05"/><ellipse cx="120.2" cy="72.3" fill="#F17A21" rx="1" ry=".7"/><path fill="#F17A21" d="M120.9 72.2c0 .3-.3.6-.8.6-.4 0-.8-.2-.8-.6 0-.3.3-.6.8-.6.5.1.8.3.8.6z"/><ellipse cx="120.1" cy="72.2" stroke="#000" rx=".5" ry=".3"/><ellipse cx="113.2" cy="72.5" fill="#F17A21" rx="1" ry=".7"/><ellipse cx="113.2" cy="72.5" fill="#F17A21" rx=".8" ry=".6"/><ellipse cx="113.2" cy="72.4" stroke="#000" rx=".5" ry=".3"/><g stroke-width="1.372"><path fill="#C6C5C5" stroke="#C6C5C5" d="M140.2 56.2c0 1-.6 1.8-1.2 1.8H95c-.7 0-1.2-.8-1.2-1.8v-.9c0-1 .6-1.8 1.2-1.8h43.9c.7 0 1.2.8 1.2 1.8v.9h.1z"/><path fill="#AAAAA7" stroke="#AAAAA7" d="M93.7 55.8v2.6h46.9l-.4-3-46.5.4z"/></g><path fill="#AAA9A9" d="M37.1.6h42.5v36.8H37.1V.6z"/><path fill="#A29E9A" d="M41 3.1h35.9v34.3H41V3.1z"/><path fill="#D5D7D7" d="M36.3 16.6H81v2H36.3v-2zM36.2 32h44.7v2H36.2v-2z" opacity=".39"/><path fill="#E0E0E0" d="M37 .6v36h21V.6H37zm19.1 32.8H38.9V4h17.2v29.4z"/><path fill="#F5FBFD" d="M38.7 4.2h17.2v29.5H38.7V4.2z" opacity=".39"/><path fill="#E0E0E0" d="M56.8.6v36h22.8V.6H56.8zm20.8 32.8H58.9V4h18.7v29.4z"/><path fill="#F5FBFD" d="M58.7 4.2h18.7v29.5H58.7V4.2z" opacity=".39"/><path fill="#D5D7D7" d="M36.2 35.8h43.3V39H36.2v-3.2z" opacity=".39"/><path fill="#AAA9A9" d="M79.8.6h42.5v36.8H79.8V.6z"/><path fill="#A29E9A" d="M83.7 3.1h35.9v34.3H83.7V3.1z"/><path fill="#D5D7D7" d="M79.6 16.6h41.1v2H79.6v-2zM78.9 32h41.3v2H78.9v-2z" opacity=".39"/><path fill="#E0E0E0" d="M79.7.6v36h21V.6h-21zm19.1 32.8H81.6V4h17.2v29.4z"/><path fill="#F5FBFD" d="M81.4 4.2h17.2v29.5H81.4V4.2z" opacity=".39"/><path fill="#E0E0E0" d="M99.5.6v36h22.8V.6H99.5zm20.8 32.8h-18.7V4h18.7v29.4z"/><path fill="#F5FBFD" d="M101.4 4.2h18.7v29.5h-18.7V4.2z" opacity=".39"/><path fill="#D5D7D7" d="M78.9 35.8h43.3V39H78.9v-3.2z" opacity=".39"/><path fill="#FFF" d="M40.7 10.4v1s-.6.3-.6.4v4.1s.9.6 2.5.6c2.2 0 2.4-.8 2.4-.8v-3.9s-.6-.2-.6-.4-.1-1-.1-1 .1.1-.3.2-1 .2-1.3.2c-.4-.1-1.2 0-1.3-.1-.1 0-.5-.2-.5-.2l-.2-.1z"/><path fill="#B4DBF4" d="M40.7 10.4v1s-.6.3-.6.4v4.1s.9.6 2.5.6c2.2 0 2.4-.8 2.4-.8v-3.9s-.6-.2-.6-.4-.1-1-.1-1 .1.1-.3.2-1 .2-1.3.2c-.4-.1-1.2 0-1.3-.1-.1 0-.5-.2-.5-.2l-.2-.1z" opacity=".51"/><ellipse cx="42.5" cy="10.5" fill="#99CAE6" stroke="#8BBDD5" stroke-width=".25" rx="1.8" ry=".3"/><path fill="#FFF" d="M41.1 12.3c-.4-.1-.2 1.3-.2 1.6 0 .6 0 1.3-.1 1.9-.4.1-.2-.8-.2-1 0-.4 0-.8-.1-1.3 0-.2 0-.4-.1-.6 0-.3.1-.4.2-.6.1-.2 0-.5.3-.5.2.1.4.5.2.5m3.4-.2c-.3-.2-.5.4-.2.5.4.1.4-.6 0-.5m.4 1.6c0-.2-.1-.6-.3-.5-.1.1-.1.6-.1.8v1.4c0 .2 0 .6.3.5.2-.1.1-.6.1-.8v-1.4M41.4 12c.5 0 1 .1 1.5.1.1.5-.5.4-.8.4-.2-.1-1.1 0-.7-.5" opacity=".42"/><path fill="#FFF" d="M40.4 15.7c.3.1.7.3 1 .4.4.1.7 0 1.1 0 .8 0 1.4-.1 2.1-.4-.5.7-1.7.3-2.3.3-.4 0-.8.1-1.2.1-.2 0-.5 0-.7-.1-.3-.2-.2-.5 0-.3" opacity=".42"/><path fill="#FFF" d="M40.6 15.8c.3 0 .6-.3.9-.4.4-.1.7-.1 1.1-.1.7-.1 1.3.3 2 .5-.4-.3-.8-.5-1.2-.8s-.8-.4-1.2-.3c-.4.1-.8.4-1.2.5-.2 0-.6 0-.6.3s.4.5.6.4" opacity=".42"/><path fill="#060606" d="M40.8 11.2c.5.4 3.2.8 3.6-.1.1 0 0 .3.1.3-.6.9-3.2.5-3.8-.1l-.6.5V16l.6.1s-.3-3.8-.3-4 .6-.5.6-.5" opacity=".04"/><path fill="#F7B164" d="M40.5 10.3v.6s.7.5 2.1.4c1.9-.1 1.9-.3 1.9-.3v-.6s-1.1.5-2 .4l-1.8-.2-.2-.3z"/><ellipse cx="42.5" cy="10.2" fill="#F6D166" rx="2.1" ry=".4"/><path fill="#5A3212" stroke="#5A3212" stroke-width=".25" d="M41 10.2c0-.2.8-.3 1.7-.3.6 0 1.1.1 1.4.1-.3-.1-.9-.2-1.6-.2-1 0-1.7.1-1.7.3s.8.3 1.7.3h.1c-.9.1-1.6 0-1.6-.2z" opacity=".4"/><path fill="#5A3212" stroke="#5A3212" stroke-width=".25" d="M44.3 10.5v.5h.2v-.7l-.2.2zm-3.8-.2v.6s.6.3.8.3 1.1.1 1.2.1h.3s.1-.1.1-.2v-.4s-1.2-.1-1.3-.1-.9-.1-.9-.1l-.2-.2z" opacity=".11"/><path fill="#FFF" d="M43.3 10.8c0 .1.1.1.1.1v.1c0 .1 0 .1.1.1h.2c.1-.1-.1-.2-.1-.3s0-.1-.1-.1-.2 0-.2.1" opacity=".42"/><path fill="#FFF" d="M46 10.3v1s-.6.3-.6.4v4.1s.9.6 2.5.6c2.2 0 2.4-.8 2.4-.8v-3.9s-.6-.2-.6-.4-.1-1-.1-1 .1.1-.3.2-1 .2-1.3.2c-.4-.1-1.2 0-1.3-.1-.1 0-.5-.2-.5-.2l-.2-.1z"/><path fill="#B4DBF4" d="M46 10.3v1s-.6.3-.6.4v4.1s.9.6 2.5.6c2.2 0 2.4-.8 2.4-.8v-3.9s-.6-.2-.6-.4-.1-1-.1-1 .1.1-.3.2-1 .2-1.3.2c-.4-.1-1.2 0-1.3-.1-.1 0-.5-.2-.5-.2l-.2-.1z" opacity=".51"/><ellipse cx="47.8" cy="10.5" fill="#99CAE6" stroke="#8BBDD5" stroke-width=".25" rx="1.8" ry=".3"/><path fill="#FFF" d="M46.4 12.2c-.4-.1-.2 1.3-.2 1.6 0 .6 0 1.3-.1 1.9-.4.1-.2-.8-.2-1 0-.4 0-.8-.1-1.3 0-.2 0-.4-.1-.6 0-.3.1-.4.2-.6.1-.2 0-.5.3-.5.2.1.4.5.2.5m3.4-.2c-.3-.2-.5.4-.2.5.4.1.4-.6 0-.5m.4 1.6c0-.2-.1-.6-.3-.5-.1.1-.1.6-.1.8v1.4c0 .2 0 .6.3.5.2-.1.1-.6.1-.8v-1.4m-3.3-1.7c.5 0 1 .1 1.5.1.1.5-.5.4-.8.4-.2 0-1.1 0-.7-.5" opacity=".42"/><path fill="#FFF" d="M45.7 15.6c.3.1.7.3 1 .4.4.1.7 0 1.1 0 .8 0 1.4-.1 2.1-.4-.5.7-1.7.3-2.3.3-.4 0-.8.1-1.2.1-.2 0-.5 0-.7-.1-.3-.2-.2-.5.1-.4" opacity=".42"/><path fill="#FFF" d="M45.9 15.7c.3 0 .6-.3.9-.4.4-.1.7-.1 1.1-.1.7-.1 1.3.3 2 .5-.4-.3-.8-.5-1.2-.8s-.8-.4-1.2-.3c-.4.1-.8.4-1.2.5-.2 0-.6 0-.6.3s.4.5.6.4" opacity=".42"/><path fill="#060606" d="M46.1 11.2c.5.5 3.2.8 3.6-.1.1 0 0 .3.1.3-.6.9-3.2.5-3.8-.1l-.6.5v4.1l.6.1s-.3-3.8-.3-4 .6-.5.6-.5" opacity=".04"/><path fill="#F7B164" d="M45.8 10.2v.6s.7.5 2.1.4c1.9-.1 1.9-.3 1.9-.3v-.6s-1.1.5-2 .4l-1.8-.2-.2-.3z"/><ellipse cx="47.8" cy="10.2" fill="#F6D166" rx="2.1" ry=".4"/><path fill="#5A3212" stroke="#5A3212" stroke-width=".25" d="M46.3 10.2c0-.2.8-.3 1.7-.3.6 0 1.1.1 1.4.1-.3-.1-.9-.2-1.6-.2-1 0-1.7.1-1.7.3s.8.3 1.7.3h.1c-.9.1-1.6-.1-1.6-.2z" opacity=".4"/><path fill="#5A3212" stroke="#5A3212" stroke-width=".25" d="M49.6 10.4v.5h.2v-.7l-.2.2zm-3.8-.2v.6s.6.3.8.3 1.1.1 1.2.1h.3s.1-.1.1-.2v-.4s-1.2-.1-1.3-.1-.9-.1-.9-.1l-.2-.2z" opacity=".11"/><path fill="#FFF" d="M48.6 10.7c0 .1.1.1.1.1v.1c0 .1 0 .1.1.1h.2c.1-.1-.1-.2-.1-.3s0-.1-.1-.1-.2 0-.2.1" opacity=".42"/><path fill="#FFF" d="M51.2 10.3v1s-.6.3-.6.4v4.1s.9.6 2.5.6c2.2 0 2.4-.8 2.4-.8v-3.9s-.6-.2-.6-.4-.1-1-.1-1 .1.1-.3.2-1 .2-1.3.2c-.4-.1-1.2 0-1.3-.1-.1 0-.5-.2-.5-.2l-.2-.1z"/><path fill="#B4DBF4" d="M51.2 10.3v1s-.6.3-.6.4v4.1s.9.6 2.5.6c2.2 0 2.4-.8 2.4-.8v-3.9s-.6-.2-.6-.4-.1-1-.1-1 .1.1-.3.2-1 .2-1.3.2c-.4-.1-1.2 0-1.3-.1-.1 0-.5-.2-.5-.2l-.2-.1z" opacity=".51"/><ellipse cx="53" cy="10.5" fill="#99CAE6" stroke="#8BBDD5" stroke-width=".25" rx="1.8" ry=".3"/><path fill="#FFF" d="M51.5 12.2c-.4-.1-.2 1.3-.2 1.6 0 .6 0 1.3-.1 1.9-.4.1-.2-.8-.2-1 0-.4 0-.8-.1-1.3 0-.2 0-.4-.1-.6 0-.3.1-.4.2-.6.1-.2 0-.5.3-.5.3.1.5.5.2.5M55 12c-.3-.2-.5.4-.2.5.4.1.4-.6 0-.5m.3 1.6c0-.2-.1-.6-.3-.5-.1.1-.1.6-.1.8v1.4c0 .2 0 .6.3.5.2-.1.1-.6.1-.8.1-.5.1-1 0-1.4m-3.2-1.7c.5 0 1 .1 1.5.1.1.5-.5.4-.8.4-.2 0-1.1 0-.7-.5" opacity=".42"/><path fill="#FFF" d="M50.9 15.6c.3.1.7.3 1 .4.4.1.7 0 1.1 0 .8 0 1.4-.1 2.1-.4-.5.7-1.7.3-2.3.3-.4 0-.8.1-1.2.1-.2 0-.5 0-.7-.1-.3-.2-.2-.5.1-.4" opacity=".42"/><path fill="#FFF" d="M51.1 15.7c.3 0 .6-.3.9-.4.4-.1.7-.1 1.1-.1.7-.1 1.3.3 2 .5-.4-.3-.8-.5-1.2-.8s-.8-.4-1.2-.3c-.4.1-.8.4-1.2.5-.2 0-.6 0-.6.3s.4.5.6.4" opacity=".42"/><path fill="#060606" d="M51.3 11.2c.5.5 3.2.8 3.6-.1.1 0 0 .3.1.3-.6.9-3.2.5-3.8-.1l-.6.5v4.1l.6.1s-.3-3.8-.3-4 .6-.5.6-.5" opacity=".04"/><path fill="#F7B164" d="M51 10.2v.6s.7.5 2.1.4c1.9-.1 1.9-.3 1.9-.3v-.6s-1.1.5-2 .4l-1.8-.2-.2-.3z"/><ellipse cx="53" cy="10.2" fill="#F6D166" rx="2.1" ry=".4"/><path fill="#5A3212" stroke="#5A3212" stroke-width=".25" d="M51.5 10.2c0-.2.8-.3 1.7-.3.6 0 1.1.1 1.4.1-.3-.1-.9-.2-1.6-.2-1 0-1.7.1-1.7.3s.8.3 1.7.3h.1c-.9.1-1.6-.1-1.6-.2z" opacity=".4"/><path fill="#5A3212" stroke="#5A3212" stroke-width=".25" d="M54.8 10.4v.5h.2v-.7l-.2.2zm-3.8-.2v.6s.6.3.8.3 1.1.1 1.2.1h.3s.1-.1.1-.2v-.4s-1.2-.1-1.3-.1-.9-.1-.9-.1l-.2-.2z" opacity=".11"/><path fill="#FFF" d="M53.8 10.7c0 .1.1.1.1.1v.1c0 .1 0 .1.1.1h.2c.1-.1-.1-.2-.1-.3s0-.1-.1-.1-.2 0-.2.1" opacity=".42"/><path fill="#FFF" stroke="#4CC3D1" stroke-width=".25" d="M40.8 20v3.3c0 .6-.6 3.9-.7 4.4-.1.5-.4 2.1-.5 2.9-.1.7-.2 1.2 0 1.4s.9.6 1.7.6c.4 0 1.4-.1 1.6-.2.2-.1.6-.3.6-.4.1-.1.1 0 .1-.3.1-.4 0-1-.1-1.2-.1-.3-.4-1.7-.4-1.7s-.5-2.4-.6-2.9-.3-1.7-.3-2.2-.1-3.6-.1-3.6l-1.3-.1z"/><path fill="#A8D27A" d="M40.4 27s-.5 2.2-.6 2.7-.2 1.4-.2 1.5-.2.6 0 .7c.2.1 1 .6 1.3.6s.4.2 1.2 0l1.2-.3.2-.4s.1-1.1 0-1.4-.5-1.9-.5-2.1-.2-1.2-.2-1.4c-.1-.1-2.4.1-2.4.1z"/><ellipse cx="41.6" cy="26.9" fill="#A0CE73" rx="1.2" ry=".3"/><path fill="#C7E8ED" stroke="#4CC3D1" stroke-width=".25" d="M40.8 20v3.3c0 .6-.6 3.9-.7 4.4-.1.5-.4 2.1-.5 2.9-.1.7-.2 1.2 0 1.4s.9.6 1.7.6c.4 0 1.4-.1 1.6-.2.2-.1.6-.3.6-.4.1-.1.1 0 .1-.3.1-.4 0-1-.1-1.2-.1-.3-.4-1.7-.4-1.7s-.5-2.4-.6-2.9-.3-1.7-.3-2.2-.1-3.6-.1-3.6l-1.3-.1zm1.7-.2c0 .1-.1.2-.1.2h-1.5c-.1 0-.1-.1-.1-.2s.1-.2.1-.2h1.5s.1.1.1.2z"/><path fill="#FFF" d="M40.9 20v3.1s-.3 2.5-.4 2.8c0 .3-.5 2.2-.6 2.6s-.4 2.8-.4 2.8.2.3.3.4c.1 0 .5.2.5.2s.4-6.4.5-6.6.2-2.3.2-2.3l-.1-3zm1 0v3.3l.4 3.7s.2 1.6.2 2.1.1.8 0 1.5-.3 1.4-.3 1.4.4.1.6 0c.2-.1.4-.5.4-.5s-.1-1.5-.3-2.2c-.1-.8-.4-2.3-.6-3.8-.2-1.5-.3-2.8-.3-2.9v-2.5l-.1-.1z" opacity=".26"/><path d="M40.8 20.2c.3 0 .5.1.8.4.1.2.3.3.4.5.1.2.2.6.4.6v-1.8c0-.1-.7-.1-.9-.1h-.6c-.1.3-.1.4-.1.4" opacity=".04"/><path fill="#FFF" d="M42.4 19.7c0 .1 0 .1 0 0l-1.6.1v-.2l1.6.1z" opacity=".26"/><path d="M40.2 32s1.2.8 1.8-.4c.6-1.2.8-4.2.8-4.2s.2.5.3 1.1.4 2.4.4 2.9c0 .6-1 .8-1.4.8-.5.1-1.9-.2-1.9-.2z" opacity=".04"/><path fill="#FFF" d="M40.8 30.8c1.2 0 1.3-2.6 1.1-3.9-.1-.7-.2-1.5-.2-2.3 0-.4-.1-.8-.1-1.1 0-.4.1-.9-.1-1.2-.3.3-.1 1.6-.1 2.1.1.8 0 1.5-.2 2.3-.2.7-.2 1.4-.3 2.2-.1.5-.5 1.9 0 2.2" opacity=".26"/><path fill="#FFF" stroke="#4CC3D1" stroke-width=".25" d="M46 19.9v3.3c0 .6-.6 3.9-.7 4.4-.1.5-.4 2.1-.5 2.9s-.2 1.2 0 1.4c.2.2.9.6 1.7.6.4 0 1.4-.1 1.6-.2.2-.1.6-.3.6-.4.1-.1.1 0 .1-.3.1-.4 0-1-.1-1.2-.1-.3-.4-1.7-.4-1.7s-.5-2.4-.6-2.9-.3-1.7-.3-2.2-.1-3.6-.1-3.6l-1.3-.1z"/><path fill="#A8D27A" d="M45.6 26.8s-.5 2.2-.6 2.7-.2 1.4-.2 1.5-.2.6 0 .7 1 .6 1.3.6.4.2 1.2 0l1.2-.3.2-.4s.1-1.1 0-1.4-.5-1.9-.5-2.1-.2-1.2-.2-1.4c-.1 0-2.4.1-2.4.1z"/><ellipse cx="46.8" cy="26.8" fill="#A0CE73" rx="1.2" ry=".3"/><path fill="#C7E8ED" stroke="#4CC3D1" stroke-width=".25" d="M46 19.9v3.3c0 .6-.6 3.9-.7 4.4-.1.5-.4 2.1-.5 2.9s-.2 1.2 0 1.4c.2.2.9.6 1.7.6.4 0 1.4-.1 1.6-.2.2-.1.6-.3.6-.4.1-.1.1 0 .1-.3.1-.4 0-1-.1-1.2-.1-.3-.4-1.7-.4-1.7s-.5-2.4-.6-2.9-.3-1.7-.3-2.2-.1-3.6-.1-3.6l-1.3-.1zm1.7-.2c0 .1-.1.2-.1.2H46c-.1 0-.1-.1-.1-.2s.1-.2.1-.2h1.5c.1 0 .2.1.2.2z"/><path fill="#FFF" d="M46.1 19.9V23s-.3 2.5-.4 2.8c0 .3-.5 2.2-.6 2.6s-.4 2.8-.4 2.8.2.3.3.4c.1 0 .5.2.5.2s.4-6.4.5-6.6.2-2.3.2-2.3v-3.1h-.1v.1zm1 0v3.3l.4 3.7s.2 1.6.2 2.1.1.8 0 1.5-.3 1.4-.3 1.4.4.1.6 0c.2-.1.4-.5.4-.5s-.1-1.5-.3-2.2c-.1-.8-.4-2.3-.6-3.8-.2-1.5-.3-2.8-.3-2.9V20l-.1-.1z" opacity=".26"/><path d="M46 20.1c.3 0 .5.1.8.4.1.2.3.3.4.5.1.2.2.6.4.6v-1.8c0-.1-.7-.1-.9-.1h-.6c-.1.2-.1.4-.1.4" opacity=".04"/><path fill="#FFF" d="M47.6 19.6s0 .1 0 0l-1.6.1v-.2l1.6.1z" opacity=".26"/><path d="M45.4 31.9s1.2.8 1.8-.4.8-4.2.8-4.2.2.5.3 1.1.4 2.4.4 2.9c0 .6-1 .8-1.4.8-.5.1-1.9-.2-1.9-.2z" opacity=".04"/><path fill="#FFF" d="M46 30.6c1.2 0 1.3-2.6 1.1-3.9-.1-.7-.2-1.5-.2-2.3 0-.4-.1-.8-.1-1.1 0-.4.1-.9-.1-1.2-.3.3-.1 1.6-.1 2.1.1.8 0 1.5-.2 2.3-.2.7-.2 1.4-.3 2.2-.1.5-.5 1.9 0 2.2" opacity=".26"/><path fill="#FFF" stroke="#4CC3D1" stroke-width=".25" d="M51.4 20.2v3.3c0 .6-.6 3.9-.7 4.4-.1.5-.4 2.1-.5 2.9-.1.7-.2 1.2 0 1.4s.9.6 1.7.6c.4 0 1.4-.1 1.6-.2.2-.1.6-.3.6-.4.1-.1.1 0 .1-.3.1-.4 0-1-.1-1.2-.1-.3-.4-1.7-.4-1.7s-.5-2.4-.6-2.9-.3-1.7-.3-2.2-.1-3.6-.1-3.6l-1.3-.1z"/><path fill="#A8D27A" d="M51 27.2s-.5 2.2-.6 2.7-.2 1.4-.2 1.5-.2.6 0 .7c.2.1 1 .6 1.3.6s.4.2 1.2 0l1.2-.3.2-.4s.1-1.1 0-1.4-.5-1.9-.5-2.1-.2-1.2-.2-1.4c-.1 0-2.4.1-2.4.1z"/><ellipse cx="52.2" cy="27.2" fill="#A0CE73" rx="1.2" ry=".3"/><path fill="#C7E8ED" stroke="#4CC3D1" stroke-width=".25" d="M51.4 20.2v3.3c0 .6-.6 3.9-.7 4.4-.1.5-.4 2.1-.5 2.9-.1.7-.2 1.2 0 1.4s.9.6 1.7.6c.4 0 1.4-.1 1.6-.2.2-.1.6-.3.6-.4.1-.1.1 0 .1-.3.1-.4 0-1-.1-1.2-.1-.3-.4-1.7-.4-1.7s-.5-2.4-.6-2.9-.3-1.7-.3-2.2-.1-3.6-.1-3.6l-1.3-.1z"/><path fill="#C7E8ED" stroke="#4CC3D1" stroke-width=".25" d="M53.1 20.1c0 .1-.1.2-.1.2h-1.5c-.1 0-.1-.1-.1-.2s.1-.2.1-.2H53s.1.1.1.2z"/><path fill="#FFF" d="M51.5 20.2v3.1s-.3 2.5-.4 2.8c0 .3-.5 2.2-.6 2.6s-.4 2.8-.4 2.8.2.3.3.4c.1 0 .5.2.5.2s.4-6.4.5-6.6.2-2.3.2-2.3v-3.1h-.1v.1zm1 .1v3.3l.4 3.7s.2 1.6.2 2.1.1.8 0 1.5-.3 1.4-.3 1.4.4.1.6 0c.2-.1.4-.5.4-.5s-.1-1.5-.3-2.2c-.1-.8-.4-2.3-.6-3.8-.2-1.5-.3-2.8-.3-2.9v-2.5l-.1-.1z" opacity=".26"/><path d="M51.4 20.5c.3 0 .5.1.8.4.1.2.3.3.4.5.1.2.2.6.4.6v-1.8c0-.1-.7-.1-.9-.1h-.6c-.1.2-.1.3-.1.4" opacity=".04"/><path fill="#FFF" d="M53 20s0 .1 0 0l-1.6.1v-.2l1.6.1c0-.1 0 0 0 0z" opacity=".26"/><path d="M50.8 32.3s1.2.8 1.8-.4c.6-1.2.8-4.2.8-4.2s.2.5.3 1.1.4 2.4.4 2.9c0 .6-1 .8-1.4.8-.5.1-1.9-.2-1.9-.2z" opacity=".04"/><path fill="#FFF" d="M51.4 31c1.2 0 1.3-2.6 1.1-3.9-.1-.7-.2-1.5-.2-2.3 0-.4-.1-.8-.1-1.1 0-.4.1-.9-.1-1.2-.3.3-.1 1.5-.1 2 .1.8 0 1.5-.2 2.3-.2.7-.2 1.4-.3 2.2-.1.5-.5 1.9 0 2.2" opacity=".26"/><g opacity=".8"><path fill="#FFF" d="M63.4 16c0 .4-.2.7-.5.7h-2.5c-.3 0-.6-.3-.6-.7v-4.6c0-.4-1-1-.7-1h4.2l.1 5.6z"/><path fill="none" stroke="#FFF" stroke-linecap="round" stroke-linejoin="round" stroke-width=".25" d="M63.4 16c0 .4-.2.7-.5.7h-2.5c-.3 0-.6-.3-.6-.7v-4.6c0-.4-1-1-.7-1h4.2l.1 5.6z"/></g><path fill="#FFF" d="M62.8 10.5h.5V16c0 .3-.2.6-.4.6h-2.5c-.3 0-.5-.3-.5-.6v-4.6c0-.2-.3-.5-.5-.7l-.2-.2h3.6z"/><path fill="#FFF" stroke="#6EA0D5" stroke-linecap="round" stroke-linejoin="round" stroke-width=".25" d="M63.4 16c0 .4-.2.7-.5.7h-2.5c-.3 0-.6-.3-.6-.7v-4.6c0-.4-1-1-.7-1h4.2l.1 5.6z" opacity=".8"/><linearGradient id="a" x1="61.6" x2="61.6" y1="117.415" y2="112.262" gradientTransform="matrix(1 0 0 -1 0 129)" gradientUnits="userSpaceOnUse"><stop offset="0" stop-color="#00bbc4"/><stop offset=".489" stop-color="#9dd7d5"/><stop offset="1" stop-color="#00627c"/></linearGradient><path fill="url(#a)" d="M59.9 13v3c0 .3.2.5.5.5h2.5c.3 0 .4-.3.4-.5v-3h-3.4z"/><path fill="#FFF" stroke="#6EA0D5" stroke-linecap="round" stroke-linejoin="round" stroke-width=".25" d="M59.2 10.4h4.2" opacity=".8"/><path fill="none" stroke="#932923" stroke-width=".25" d="M62 15.8h.8v-3.9H62m.7 1.8H62m.7 1h-.3m.3-2h-.3"/><g opacity=".8"><path fill="#FFF" d="M68.1 15.8c0 .4-.2.7-.5.7h-2.5c-.3 0-.6-.3-.6-.7v-4.6c0-.4-1-1-.7-1H68l.1 5.6z"/><path fill="none" stroke="#FFF" stroke-linecap="round" stroke-linejoin="round" stroke-width=".25" d="M68.1 15.8c0 .4-.2.7-.5.7h-2.5c-.3 0-.6-.3-.6-.7v-4.6c0-.4-1-1-.7-1H68l.1 5.6z"/></g><path fill="#FFF" d="M67.6 10.2h.5v5.5c0 .3-.2.6-.4.6h-2.5c-.3 0-.5-.3-.5-.6v-4.6c0-.2-.3-.5-.5-.7l-.2-.2h3.6z"/><path fill="#FFF" stroke="#6EA0D5" stroke-linecap="round" stroke-linejoin="round" stroke-width=".25" d="M68.1 15.8c0 .4-.2.7-.5.7h-2.5c-.3 0-.6-.3-.6-.7v-4.6c0-.4-1-1-.7-1H68l.1 5.6z" opacity=".8"/><linearGradient id="b" x1="66.4" x2="66.4" y1="117.709" y2="112.555" gradientTransform="matrix(1 0 0 -1 0 129)" gradientUnits="userSpaceOnUse"><stop offset="0" stop-color="#00bbc4"/><stop offset=".489" stop-color="#9dd7d5"/><stop offset="1" stop-color="#00627c"/></linearGradient><path fill="url(#b)" d="M64.7 12.7v3c0 .3.2.5.5.5h2.5c.3 0 .4-.3.4-.5v-3h-3.4z"/><path fill="#FFF" stroke="#6EA0D5" stroke-linecap="round" stroke-linejoin="round" stroke-width=".25" d="M63.9 10.1h4.2" opacity=".8"/><path fill="none" stroke="#932923" stroke-width=".25" d="M66.8 15.5h.7v-3.9h-.7m.7 1.8h-.7m.7 1h-.4m.4-2h-.4"/><g opacity=".8"><path fill="#FFF" d="M72.7 15.8c0 .4-.2.7-.5.7h-2.5c-.3 0-.6-.3-.6-.7v-4.6c0-.4-1-1-.7-1h4.2l.1 5.6z"/><path fill="none" stroke="#FFF" stroke-linecap="round" stroke-linejoin="round" stroke-width=".25" d="M72.7 15.8c0 .4-.2.7-.5.7h-2.5c-.3 0-.6-.3-.6-.7v-4.6c0-.4-1-1-.7-1h4.2l.1 5.6z"/></g><path fill="#FFF" d="M72.1 10.3h.5v5.5c0 .3-.2.6-.4.6h-2.5c-.3 0-.5-.3-.5-.6v-4.6c0-.2-.3-.5-.5-.7l-.2-.2h3.6z"/><path fill="#FFF" stroke="#6EA0D5" stroke-linecap="round" stroke-linejoin="round" stroke-width=".25" d="M72.7 15.8c0 .4-.2.7-.5.7h-2.5c-.3 0-.6-.3-.6-.7v-4.6c0-.4-1-1-.7-1h4.2l.1 5.6z" opacity=".8"/><linearGradient id="c" x1="70.9" x2="70.9" y1="117.649" y2="112.495" gradientTransform="matrix(1 0 0 -1 0 129)" gradientUnits="userSpaceOnUse"><stop offset="0" stop-color="#00bbc4"/><stop offset=".489" stop-color="#9dd7d5"/><stop offset="1" stop-color="#00627c"/></linearGradient><path fill="url(#c)" d="M69.2 12.8v3c0 .3.2.5.5.5h2.5c.3 0 .4-.3.4-.5v-3h-3.4z"/><path fill="#FFF" stroke="#6EA0D5" stroke-linecap="round" stroke-linejoin="round" stroke-width=".25" d="M68.5 10.2h4.2" opacity=".8"/><path fill="none" stroke="#932923" stroke-width=".25" d="M71.3 15.6h.8v-4h-.8m.8 1.9h-.8m.8 1h-.4m.4-2.1h-.4"/><g opacity=".8"><path fill="#FFF" d="M76.9 15.8c0 .4-.2.7-.5.7h-2.5c-.3 0-.6-.3-.6-.7v-4.6c0-.4-1-1-.7-1h4.2l.1 5.6z"/><path fill="none" stroke="#FFF" stroke-linecap="round" stroke-linejoin="round" stroke-width=".25" d="M76.9 15.8c0 .4-.2.7-.5.7h-2.5c-.3 0-.6-.3-.6-.7v-4.6c0-.4-1-1-.7-1h4.2l.1 5.6z"/></g><path fill="#FFF" d="M76.3 10.2h.5v5.5c0 .3-.2.6-.4.6h-2.5c-.3 0-.5-.3-.5-.6v-4.6c0-.2-.3-.5-.5-.7l-.2-.2h3.6z"/><path fill="#FFF" stroke="#6EA0D5" stroke-linecap="round" stroke-linejoin="round" stroke-width=".25" d="M76.9 15.8c0 .4-.2.7-.5.7h-2.5c-.3 0-.6-.3-.6-.7v-4.6c0-.4-1-1-.7-1h4.2l.1 5.6z" opacity=".8"/><linearGradient id="d" x1="75.1" x2="75.1" y1="117.709" y2="112.555" gradientTransform="matrix(1 0 0 -1 0 129)" gradientUnits="userSpaceOnUse"><stop offset="0" stop-color="#00bbc4"/><stop offset=".489" stop-color="#9dd7d5"/><stop offset="1" stop-color="#00627c"/></linearGradient><path fill="url(#d)" d="M73.4 12.7v3c0 .3.2.5.5.5h2.5c.3 0 .4-.3.4-.5v-3h-3.4z"/><path fill="#FFF" stroke="#6EA0D5" stroke-linecap="round" stroke-linejoin="round" stroke-width=".25" d="M72.7 10.1h4.2" opacity=".8"/><path fill="none" stroke="#932923" stroke-width=".25" d="M75.5 15.5h.8v-3.9h-.8m.7 1.8h-.7m.7 1h-.3m.3-2h-.3"/><use width="60.7" height="74.1" x="-30.4" y="-37.1" overflow="visible" transform="matrix(.1094 0 0 -.1305 62.544 27.393)" xlink:href="#e"/><use width="60.7" height="74.1" x="-30.4" y="-37.1" overflow="visible" transform="matrix(.1094 0 0 -.1305 72.58 27.445)" xlink:href="#e"/><use width="60.7" height="74.1" x="-30.4" y="-37.1" overflow="visible" transform="matrix(.1094 0 0 -.1305 68.254 27.655)" xlink:href="#e"/><ellipse cx="85.4" cy="14.8" fill="#8DCDEE" opacity=".51" rx="3.1" ry=".7"/><path fill="#B4DBF4" d="M82.7 15c0-.2 1.3-.4 2.9-.4 1.4 0 2.4.3 2.7.4.1 0 .2-.3.2-.3 0-.4-1.4-.7-3.1-.7s-3.1.3-3.1.7.4.5.4.3z" opacity=".75"/><path fill="#B4DBF4" d="M82.3 16c-.2-.5 0-1.2 0-1.2s.5.4 1.1.5 2.3.2 2.7.2c.4 0 1.4-.1 1.7-.2.3-.1.8-.5.8-.5v1.4s-.3.2-1 .3c-.7.1-2.3.2-3.1.2-.9-.1-2-.2-2.2-.7z" opacity=".51"/><path fill="#FFF" d="M85 16s.5.2 1.1.2c.6-.1 1-.4 1-.4s-.8.5-1 .5c-.4 0-1.1-.3-1.1-.3zm-2.5-.1s.1.2.8.4c.7.2 1 .1 1.1.1s.5-.2.5.1c.1.2 0 .1-.3.1-.4 0-1.3-.1-1.8-.2-.3-.1-.5-.2-.5-.4 0-.1-.1-.4-.1-.4s0-.6.1-.6 0 .1.1.4c.1.4.1.5.1.5zm5.7-.5c-.2-.1-.3.2-.1.3.2.1.2-.4.1-.3" opacity=".42"/><ellipse cx="85.4" cy="13.2" fill="#8DCDEE" opacity=".51" rx="3.1" ry=".7"/><path fill="#B4DBF4" d="M82.7 13.4c0-.2 1.3-.4 2.9-.4 1.4 0 2.4.3 2.7.4.1 0 .2-.3.2-.3 0-.4-1.4-.7-3.1-.7s-3.1.3-3.1.7.4.5.4.3z" opacity=".75"/><path fill="#B4DBF4" d="M82.3 14.4c-.2-.5 0-1.2 0-1.2s.5.4 1.1.5 2.3.2 2.7.2c.4 0 1.4-.1 1.7-.2.3-.1.8-.5.8-.5v1.4s-.3.2-1 .3-2.3.2-3.1.2c-.9-.1-2-.3-2.2-.7z" opacity=".51"/><path fill="#FFF" d="M85 14.4s.5.2 1.1.2c.6-.1 1-.4 1-.4s-.8.5-1 .5c-.4 0-1.1-.3-1.1-.3zm-2.5-.1s.1.2.8.4c.7.2 1 .1 1.1.1s.5-.2.5.1c.1.2 0 .1-.3.1-.4 0-1.3-.1-1.8-.2-.3-.1-.5-.2-.5-.4 0-.1-.1-.4-.1-.4s-.1-.6.1-.6c.1 0 0 .1.1.4.1.4.1.5.1.5zm5.7-.5c-.2-.1-.3.2-.1.2.2.1.2-.4 0-.3" opacity=".42"/><ellipse cx="85.4" cy="10.8" fill="#8DCDEE" opacity=".51" rx="3.1" ry=".7"/><path fill="#B4DBF4" d="M82.7 11.1c0-.2 1.3-.4 2.9-.4 1.4 0 2.4.3 2.7.4.1 0 .2-.3.2-.3 0-.4-1.4-.7-3.1-.7s-3.1.3-3.1.7.4.5.4.3z" opacity=".75"/><path fill="#B4DBF4" d="M82.3 12.1c-.2-.5 0-1.2 0-1.2s.5.4 1.1.5 2.3.2 2.7.2c.4 0 1.4-.1 1.7-.2.3-.1.8-.5.8-.5v1.4s-.3.2-1 .3-2.3.2-3.1.2c-.9-.2-2-.3-2.2-.7z" opacity=".51"/><path fill="#FFF" d="M85 12.1s.5.2 1.1.2c.6-.1 1-.4 1-.4s-.8.5-1 .5c-.4 0-1.1-.3-1.1-.3zm-2.5-.2s.1.2.8.4c.7.2 1 .1 1.1.1s.5-.2.5.1c.1.2 0 .1-.3.1-.4 0-1.3-.1-1.8-.2-.3-.1-.5-.2-.5-.4 0-.1-.1-.4-.1-.4s-.1-.6.1-.6c.1 0 0 .1.1.4l.1.5zm5.7-.5c-.2-.1-.3.2-.1.3.2.1.2-.4.1-.3" opacity=".42"/><ellipse cx="85.4" cy="10.1" fill="#8DCDEE" opacity=".51" rx="3.1" ry=".7"/><path fill="#B4DBF4" d="M82.7 10.3c0-.2 1.3-.4 2.9-.4 1.4 0 2.4.3 2.7.4.1 0 .2-.3.2-.3 0-.4-1.4-.7-3.1-.7s-3.1.3-3.1.7.4.5.4.3z" opacity=".75"/><path fill="#B4DBF4" d="M82.3 11.3c-.2-.5 0-1.2 0-1.2s.5.4 1.1.5 2.3.2 2.7.2c.4 0 1.4-.1 1.7-.2.3-.1.8-.5.8-.5v1.4s-.3.2-1 .3-2.3.2-3.1.2c-.9-.1-2-.3-2.2-.7z" opacity=".51"/><path fill="#FFF" d="M85 11.3s.5.2 1.1.2c.6-.1 1-.4 1-.4s-.8.5-1 .5c-.4 0-1.1-.3-1.1-.3zm-2.5-.1s.1.2.8.4c.7.2 1 .1 1.1.1s.5-.2.5.1c.1.2 0 .1-.3.1-.4 0-1.3-.1-1.8-.2-.3-.1-.5-.2-.5-.4 0-.1-.1-.4-.1-.4s-.1-.6.1-.6c.1 0 0 .1.1.4.1.4.1.5.1.5zm5.7-.6c-.2-.1-.3.2-.1.3.2.1.2-.4.1-.3" opacity=".42"/><ellipse cx="85.4" cy="8.4" fill="#8DCDEE" opacity=".51" rx="3.1" ry=".7"/><path fill="#B4DBF4" d="M82.7 8.7c0-.2 1.3-.4 2.9-.4 1.4 0 2.4.3 2.7.4.1 0 .2-.3.2-.3 0-.4-1.4-.7-3.1-.7s-3.1.3-3.1.7.4.5.4.3z" opacity=".75"/><path fill="#B4DBF4" d="M82.3 9.7c-.2-.5 0-1.2 0-1.2s.5.4 1.1.5 2.3.2 2.7.2c.4 0 1.4-.1 1.7-.2.3-.1.8-.5.8-.5v1.4s-.3.2-1 .3-2.3.2-3.1.2c-.9-.2-2-.3-2.2-.7z" opacity=".51"/><path fill="#FFF" d="M85 9.6s.5.2 1.1.2c.6-.1 1-.4 1-.4s-.8.5-1 .5c-.4 0-1.1-.3-1.1-.3zm-2.5-.1s.1.2.8.4c.7.2 1 .1 1.1.1s.5-.2.5.1c.1.2 0 .1-.3.1-.4 0-1.3-.1-1.8-.2-.3-.1-.5-.2-.5-.4 0-.1-.1-.4-.1-.4s-.1-.6.1-.6c.1 0 0 .1.1.4.1.4.1.5.1.5zm5.7-.5c-.2-.1-.3.2-.1.3.2.1.2-.4.1-.3" opacity=".42"/><ellipse cx="85.4" cy="6.1" fill="#8DCDEE" opacity=".51" rx="3.1" ry=".7"/><path fill="#B4DBF4" d="M82.7 6.3c0-.2 1.3-.3 2.9-.3 1.4 0 2.4.3 2.7.4.1 0 .2-.3.2-.3 0-.4-1.4-.7-3.1-.7s-3.1.3-3.1.7c0 .4.4.5.4.2z" opacity=".75"/><path fill="#B4DBF4" d="M82.3 7.4c-.2-.5 0-1.2 0-1.2s.5.4 1.1.5 2.3.2 2.7.2c.4 0 1.4-.1 1.7-.2.3-.1.8-.5.8-.5v1.4s-.3.2-1 .3c-.8.1-2.4.2-3.2.1-.8-.1-1.9-.2-2.1-.6z" opacity=".51"/><path fill="#FFF" d="M85 7.3s.5.2 1.1.2c.6-.1 1-.4 1-.4s-.8.5-1 .5c-.4 0-1.1-.3-1.1-.3zm-2.5-.1s.1.2.8.4c.7.2 1 .1 1.1.1s.5-.2.5.1c.1.2 0 .1-.3.1-.4 0-1.3-.1-1.8-.2-.3-.1-.5-.2-.5-.4 0-.1-.1-.4-.1-.4s-.1-.6.1-.6c.1 0 0 .1.1.4.1.4.1.5.1.5zm5.7-.5c-.2-.1-.3.2-.1.3.2.1.2-.4.1-.3" opacity=".42"/><ellipse cx="92.2" cy="14.4" fill="#8DCDEE" opacity=".51" rx="3.1" ry=".7"/><path fill="#B4DBF4" d="M89.5 14.6c0-.2 1.3-.4 2.9-.4 1.4 0 2.4.3 2.7.4.1 0 .2-.3.2-.3 0-.4-1.4-.7-3.1-.7s-3.1.3-3.1.7c-.1.4.4.5.4.3z" opacity=".75"/><path fill="#B4DBF4" d="M89 15.6c-.2-.5 0-1.2 0-1.2s.5.4 1.1.5 2.3.2 2.7.2c.4 0 1.4-.1 1.7-.2.3-.1.8-.5.8-.5v1.4s-.3.2-1 .3-2.3.2-3.1.2c-.8-.1-2-.2-2.2-.7z" opacity=".51"/><path fill="#FFF" d="M91.7 15.6s.5.2 1.1.2c.6-.1 1-.4 1-.4s-.8.5-1 .5c-.3 0-1.1-.3-1.1-.3zm-2.5-.1s.1.2.8.4c.7.2 1 .1 1.1.1s.5-.2.5.1c.1.2 0 .1-.3.1-.4 0-1.3-.1-1.8-.2-.3-.1-.5-.2-.5-.4 0-.1-.1-.4-.1-.4s-.1-.6.1-.6c.1 0 0 .1.1.4.1.4.1.5.1.5zm5.7-.5c-.2-.1-.3.2-.1.3.2.1.2-.4.1-.3" opacity=".42"/><ellipse cx="92.2" cy="12.8" fill="#8DCDEE" opacity=".51" rx="3.1" ry=".7"/><path fill="#B4DBF4" d="M89.5 13c0-.2 1.3-.4 2.9-.4 1.4 0 2.4.3 2.7.4.1 0 .2-.3.2-.3 0-.4-1.4-.7-3.1-.7s-3.1.3-3.1.7c-.1.4.4.5.4.3z" opacity=".75"/><path fill="#B4DBF4" d="M89 14c-.2-.5 0-1.2 0-1.2s.5.4 1.1.5 2.3.2 2.7.2c.4 0 1.4-.1 1.7-.2.3-.1.8-.5.8-.5v1.4s-.3.2-1 .3-2.3.2-3.1.2c-.8-.1-2-.2-2.2-.7z" opacity=".51"/><path fill="#FFF" d="M91.7 14s.5.2 1.1.2c.6-.1 1-.4 1-.4s-.8.5-1 .5c-.3 0-1.1-.3-1.1-.3zm-2.5-.1s.1.2.8.4c.7.2 1 .1 1.1.1s.5-.2.5.1c.1.2 0 .1-.3.1-.4 0-1.3-.1-1.8-.2-.3-.1-.5-.2-.5-.4 0-.1-.1-.4-.1-.4s.1-.6.2-.6 0 .1.1.4v.5zm5.7-.5c-.2-.1-.3.2-.1.3.2.1.2-.4.1-.3" opacity=".42"/><ellipse cx="92.2" cy="10.5" fill="#8DCDEE" opacity=".51" rx="3.1" ry=".7"/><path fill="#B4DBF4" d="M89.5 10.7c0-.2 1.3-.4 2.9-.4 1.4 0 2.4.3 2.7.4.1 0 .2-.3.2-.3 0-.4-1.4-.7-3.1-.7s-3.1.3-3.1.7c-.1.4.4.5.4.3z" opacity=".75"/><path fill="#B4DBF4" d="M89 11.7c-.2-.5 0-1.2 0-1.2s.5.4 1.1.5 2.3.2 2.7.2c.4 0 1.4-.1 1.7-.2.3-.1.8-.5.8-.5v1.4s-.3.2-1 .3-2.3.2-3.1.2c-.8-.1-2-.3-2.2-.7z" opacity=".51"/><path fill="#FFF" d="M91.7 11.7s.5.2 1.1.2c.6-.1 1-.4 1-.4s-.8.5-1 .5c-.3 0-1.1-.3-1.1-.3zm-2.5-.1s.1.2.8.4c.7.2 1 .1 1.1.1s.5-.2.5.1c.1.2 0 .1-.3.1-.4 0-1.3-.1-1.8-.2-.3-.1-.5-.2-.5-.4 0-.1-.1-.4-.1-.4s-.1-.6.1-.6c.1 0 0 .1.1.4.1.4.1.5.1.5zm5.7-.5c-.2-.1-.3.2-.1.3.2.1.2-.4.1-.3" opacity=".42"/><ellipse cx="92.2" cy="9.7" fill="#8DCDEE" opacity=".51" rx="3.1" ry=".7"/><path fill="#B4DBF4" d="M89.5 9.9c0-.2 1.3-.4 2.9-.4 1.4 0 2.4.3 2.7.4.1 0 .2-.3.2-.3 0-.4-1.4-.7-3.1-.7-1.8.1-3.2.4-3.2.7 0 .4.5.5.5.3z" opacity=".75"/><path fill="#B4DBF4" d="M89 10.9c-.2-.5 0-1.2 0-1.2s.5.4 1.1.5 2.3.2 2.7.2c.4 0 1.4-.1 1.7-.2.3-.1.8-.5.8-.5V11s-.3.2-1 .3-2.3.2-3.1.2c-.8 0-2-.1-2.2-.6z" opacity=".51"/><path fill="#FFF" d="M91.7 10.9s.5.2 1.1.2c.6-.1 1-.4 1-.4s-.8.5-1 .5c-.3 0-1.1-.3-1.1-.3zm-2.5-.1s.1.2.8.4c.7.2 1 .1 1.1.1s.5-.2.5.1c.1.2 0 .1-.3.1-.4 0-1.3-.1-1.8-.2-.3-.1-.5-.2-.5-.4 0-.1-.1-.4-.1-.4s.1-.6.2-.6 0 .1.1.4v.5zm5.7-.5c-.2-.1-.3.2-.1.3.2.1.2-.4.1-.3" opacity=".42"/><ellipse cx="92.2" cy="8.1" fill="#8DCDEE" opacity=".51" rx="3.1" ry=".7"/><path fill="#B4DBF4" d="M89.5 8.3c0-.2 1.3-.4 2.9-.4 1.4 0 2.4.3 2.7.4.1 0 .2-.3.2-.3 0-.4-1.4-.7-3.1-.7-1.8 0-3.2.4-3.2.7 0 .4.5.5.5.3z" opacity=".75"/><path fill="#B4DBF4" d="M89 9.3c-.2-.5 0-1.2 0-1.2s.5.4 1.1.5 2.3.2 2.7.2c.4 0 1.4-.1 1.7-.2.3-.1.8-.5.8-.5v1.4s-.3.2-1 .3c-.8.1-2.3.2-3.1.1-.8 0-2-.2-2.2-.6z" opacity=".51"/><path fill="#FFF" d="M91.7 9.3s.5.2 1.1.2c.6-.1 1-.4 1-.4s-.8.5-1 .5c-.3 0-1.1-.3-1.1-.3zm-2.5-.1s.1.2.8.4c.7.2 1 .1 1.1.1s.5-.2.5.1c.1.2 0 .1-.3.1-.4 0-1.3-.1-1.8-.2-.3-.1-.5-.2-.5-.4 0-.1-.1-.4-.1-.4s.1-.6.2-.6 0 .1.1.4v.5zm5.7-.6c-.2-.1-.3.2-.1.3.2.1.2-.3.1-.3" opacity=".42"/><ellipse cx="92.2" cy="5.7" fill="#8DCDEE" opacity=".51" rx="3.1" ry=".7"/><path fill="#B4DBF4" d="M89.5 6c0-.2 1.3-.4 2.9-.4 1.4 0 2.4.3 2.7.4.1 0 .2-.3.2-.3 0-.4-1.4-.7-3.1-.7-1.8 0-3.2.3-3.2.7 0 .4.5.5.5.3z" opacity=".75"/><path fill="#B4DBF4" d="M89 7c-.2-.5 0-1.2 0-1.2s.5.4 1.1.5 2.3.2 2.7.2c.4 0 1.4-.1 1.7-.2.3-.1.8-.5.8-.5v1.4s-.3.2-1 .3c-.7.1-2.3.2-3.1.2-.8-.2-2-.3-2.2-.7z" opacity=".51"/><path fill="#FFF" d="M91.7 6.9s.5.2 1.1.2c.6-.1 1-.4 1-.4s-.8.5-1 .5c-.3 0-1.1-.3-1.1-.3zm-2.5-.1s.1.2.8.4c.7.2 1 .1 1.1.1s.5-.2.5.1c.1.2 0 .1-.3.1-.4 0-1.3-.1-1.8-.2-.3-.1-.5-.2-.5-.4 0-.1-.1-.4-.1-.4s.1-.5.2-.5 0 .1.1.4v.4zm5.7-.5c-.2-.1-.3.2-.1.3.2.1.2-.4.1-.3" opacity=".42"/><path fill="#FFF" stroke="#4CC3D1" stroke-width=".25" d="M104.1 21.6s.1 2.3 0 2.9-.7 3.4-.8 3.8c-.1.4-.5 1.8-.6 2.5-.1.6-.3 1 0 1.2s1.1.6 1.9.6c.5 0 1.6-.1 1.8-.2.2-.1.6-.3.7-.3.1-.1.1 0 .2-.3.1-.4 0-.8-.1-1.1-.1-.2-.4-1.5-.4-1.5s-.5-2.1-.6-2.5-.3-1.5-.3-1.9-.1-3.2-.1-3.2h-1.7z"/><path fill="#C7E8ED" stroke="#4CC3D1" stroke-width=".25" d="M104.1 21.6s.1 2.3 0 2.9-.7 3.4-.8 3.8c-.1.4-.5 1.8-.6 2.5-.1.6-.3 1 0 1.2s1.1.6 1.9.6c.5 0 1.6-.1 1.8-.2.2-.1.6-.3.7-.3.1-.1.1 0 .2-.3.1-.4 0-.8-.1-1.1-.1-.2-.4-1.5-.4-1.5s-.5-2.1-.6-2.5-.3-1.5-.3-1.9-.1-3.2-.1-3.2h-1.7z" opacity=".61"/><path fill="#FFF" d="M104.3 21.6v2.7s-.4 2.1-.4 2.4c-.1.3-.6 1.9-.7 2.3s-.5 2.4-.5 2.4.3.3.4.3.6.2.6.2.5-5.5.6-5.7c.1-.2.2-2 .2-2v-2.7h-.2v.1zm1.1 0v2.8l.5 3.2s.3 1.4.3 1.8c0 .5.1.7 0 1.3-.1.6-.3 1.2-.3 1.2s.5.1.7 0 .5-.5.5-.5-.2-1.3-.3-1.9c-.1-.7-.5-2-.7-3.3s-.3-2.4-.3-2.6v-2.1l-.4.1zm-1.2 9.3c1.4 0 1.5-2.2 1.2-3.4-.1-.6-.2-1.3-.3-2 0-.3-.1-.7-.1-1s.1-.8-.1-1.1c-.3.3-.1 1.4-.1 1.8.1.7 0 1.3-.2 2-.2.6-.2 1.3-.4 1.9-.1.4-.5 1.7 0 1.8" opacity=".26"/><path fill="#A8D27A" d="M103.7 27.6s-.5 1.9-.6 2.3c-.1.5-.3 1.2-.3 1.3 0 .1-.2.5 0 .6s1.1.5 1.5.5.4.1 1.3 0 1.3-.2 1.3-.2l.2-.3s.1-.9 0-1.2c-.1-.3-.5-1.6-.6-1.8-.1-.2-.2-1.1-.2-1.2s-2.6 0-2.6 0z"/><ellipse cx="105" cy="27.6" fill="#A0CE73" rx="1.3" ry=".2"/><path fill="#C7E8ED" stroke="#4CC3D1" stroke-width=".25" d="M106 21.4c0 .1-.1.2-.1.2h-1.7c-.1 0-.1-.1-.1-.2s.1-.2.1-.2h1.7c.1.1.1.1.1.2z"/><path d="M104.1 21.8c.4 0 .6.1.9.4.1.1.3.3.4.5s.2.5.4.6v-1.5c0-.1-.8-.1-1-.1h-.7v.1" opacity=".04"/><path fill="#FFF" d="M106 21.4s-.1 0 0 0h-1.9 1.9c-.1-.1 0 0 0 0z" opacity=".26"/><path d="M103.4 32s1.4.7 2.1-.4.9-3.6.9-3.6.2.4.4.9l.5 2.5c0 .5-1.2.7-1.6.7-.6.2-2.3-.1-2.3-.1z" opacity=".04"/><path fill="#FFF" stroke="#4CC3D1" stroke-width=".25" d="M108.8 22.1s.1 2.3 0 2.9-.7 3.4-.8 3.8c-.1.4-.5 1.8-.6 2.5-.1.6-.3 1 0 1.2s1.1.6 1.9.6c.5 0 1.6-.1 1.8-.2.2-.1.6-.3.7-.3.1-.1.1 0 .2-.3.1-.4 0-.8-.1-1.1-.1-.2-.4-1.5-.4-1.5s-.5-2.1-.6-2.5-.3-1.5-.3-1.9-.1-3.2-.1-3.2h-1.7z"/><path fill="#C7E8ED" stroke="#4CC3D1" stroke-width=".25" d="M108.8 22.1s.1 2.3 0 2.9-.7 3.4-.8 3.8c-.1.4-.5 1.8-.6 2.5-.1.6-.3 1 0 1.2s1.1.6 1.9.6c.5 0 1.6-.1 1.8-.2.2-.1.6-.3.7-.3.1-.1.1 0 .2-.3.1-.4 0-.8-.1-1.1-.1-.2-.4-1.5-.4-1.5s-.5-2.1-.6-2.5-.3-1.5-.3-1.9-.1-3.2-.1-3.2h-1.7z" opacity=".61"/><path fill="#FFF" d="M108.9 22.1v2.7s-.4 2.1-.4 2.4c-.1.3-.6 1.9-.7 2.3s-.5 2.4-.5 2.4.3.3.4.3.6.2.6.2.5-5.5.6-5.7.2-2 .2-2V22h-.2v.1zm1.1 0v2.8l.5 3.2s.3 1.4.3 1.8c0 .5.1.7 0 1.3-.1.6-.3 1.2-.3 1.2s.5.1.7 0 .5-.5.5-.5-.2-1.3-.3-1.9c-.1-.7-.5-2-.7-3.3s-.3-2.4-.3-2.6V22l-.4.1zm-1.2 9.3c1.4 0 1.5-2.2 1.2-3.4-.1-.6-.2-1.3-.3-2 0-.3-.1-.7-.1-1s.1-.8-.1-1.1c-.3.3-.1 1.4-.1 1.8.1.7 0 1.3-.2 2-.2.6-.2 1.3-.4 1.9-.1.4-.5 1.7 0 1.8" opacity=".26"/><path fill="#A8D27A" d="M108.3 28.1s-.5 1.9-.6 2.3c-.1.5-.3 1.2-.3 1.3 0 .1-.2.5 0 .6.2.1 1.1.5 1.5.5s.4.1 1.3 0 1.3-.2 1.3-.2l.2-.3s.1-.9 0-1.2c-.1-.3-.5-1.6-.6-1.8-.1-.2-.2-1.1-.2-1.2.1-.1-2.6 0-2.6 0z"/><ellipse cx="109.7" cy="28.1" fill="#A0CE73" rx="1.3" ry=".2"/><path fill="#C7E8ED" stroke="#4CC3D1" stroke-width=".25" d="M110.7 21.9c0 .1-.1.2-.1.2h-1.7c-.1 0-.1-.1-.1-.2s.1-.2.1-.2h1.7c0 .1.1.1.1.2z"/><path d="M108.8 22.3c.4 0 .6.1.9.4.1.1.3.3.4.5s.2.5.4.6v-1.5c0-.1-.8-.1-1-.1h-.7v.1" opacity=".04"/><path fill="#FFF" d="M110.6 21.9h-1.9 1.9c0-.1 0-.1 0 0z" opacity=".26"/><path d="M108 32.5s1.4.7 2.1-.4c.7-1.1.9-3.6.9-3.6s.2.4.4.9l.5 2.5c0 .5-1.2.7-1.6.7-.6.2-2.3-.1-2.3-.1z" opacity=".04"/><path fill="#FFF" stroke="#4CC3D1" stroke-width=".25" d="M113.9 22s.1 2.3 0 2.9-.7 3.4-.8 3.8c-.1.4-.5 1.8-.6 2.5-.1.6-.3 1 0 1.2s1.1.6 1.9.6c.5 0 1.6-.1 1.8-.2.2-.1.6-.3.7-.3.1-.1.1 0 .2-.3.1-.4 0-.8-.1-1.1-.1-.2-.4-1.5-.4-1.5s-.5-2.1-.6-2.5-.3-1.5-.3-1.9-.1-3.2-.1-3.2h-1.7z"/><path fill="#C7E8ED" stroke="#4CC3D1" stroke-width=".25" d="M113.9 22s.1 2.3 0 2.9-.7 3.4-.8 3.8c-.1.4-.5 1.8-.6 2.5-.1.6-.3 1 0 1.2s1.1.6 1.9.6c.5 0 1.6-.1 1.8-.2.2-.1.6-.3.7-.3.1-.1.1 0 .2-.3.1-.4 0-.8-.1-1.1-.1-.2-.4-1.5-.4-1.5s-.5-2.1-.6-2.5-.3-1.5-.3-1.9-.1-3.2-.1-3.2h-1.7z" opacity=".61"/><path fill="#FFF" d="M114 22v2.7s-.4 2.1-.4 2.4c-.1.3-.6 1.9-.7 2.3s-.5 2.4-.5 2.4.3.3.4.3.6.2.6.2.5-5.5.6-5.7.2-2 .2-2V22h-.2zm1.1 0v2.8l.5 3.2s.3 1.4.3 1.8c0 .5.1.7 0 1.3-.1.6-.3 1.2-.3 1.2s.5.1.7 0 .5-.5.5-.5-.2-1.3-.3-1.9c-.1-.7-.5-2-.7-3.3s-.3-2.4-.3-2.6v-2.1l-.4.1zm-1.2 9.3c1.4 0 1.5-2.2 1.2-3.4-.1-.6-.2-1.3-.3-2 0-.3-.1-.7-.1-1s.1-.8-.1-1.1c-.3.3-.1 1.4-.1 1.8.1.7 0 1.3-.2 2-.2.6-.2 1.3-.4 1.9-.1.4-.5 1.7 0 1.8" opacity=".26"/><path fill="#A8D27A" d="M113.4 28s-.5 1.9-.6 2.3c-.1.5-.3 1.2-.3 1.3 0 .1-.2.5 0 .6s1.1.5 1.5.5.4.1 1.3 0 1.3-.2 1.3-.2l.2-.3s.1-.9 0-1.2c-.1-.3-.5-1.6-.6-1.8-.1-.2-.2-1.1-.2-1.2s-2.6 0-2.6 0z"/><ellipse cx="114.7" cy="28" fill="#A0CE73" rx="1.3" ry=".2"/><path fill="#C7E8ED" stroke="#4CC3D1" stroke-width=".25" d="M115.7 21.8c0 .1-.1.2-.1.2h-1.7c-.1 0-.1-.1-.1-.2s.1-.2.1-.2h1.7c.1.1.1.1.1.2z"/><path d="M113.9 22.2c.4 0 .6.1.9.4.1.1.3.3.4.5s.2.5.4.6v-1.5c0-.1-.8-.1-1-.1h-.7c-.1-.1 0 0 0 .1" opacity=".04"/><path fill="#FFF" d="M115.7 21.8h-1.9 1.9c0-.1 0-.1 0 0z" opacity=".26"/><path d="M113.1 32.4s1.4.7 2.1-.4c.7-1.1.9-3.6.9-3.6s.2.4.4.9l.5 2.5c0 .5-1.2.7-1.6.7-.6.2-2.3-.1-2.3-.1z" opacity=".04"/><g fill="#C7E8ED" stroke="#4CC3D1" stroke-width=".25"><path d="M84.6 20.7s.1-.5.8-.5c.7 0 .9.1.9.4s-.4.6-.8.5l-.8-.2-.1-.2z"/><path d="M84.5 25.4s.1-.1.2-.5c.1-.3 0-4 0-4s.7.2 1 .2.4-.2.4-.2v4c0 .1-.1.2.3.4.3.2 1.1.6 1.4 1.2s.7 2 .4 2.9c-.3 1-1.2 2-1.4 2.2-.3.2-.5.4-.8.4h-1.3c-.1 0-1-.5-1.3-1s-.8-1.3-.7-2.3c0-1 .3-1.9.6-2.1.2-.2.3-.4.7-.7.3-.4.5-.5.5-.5z"/></g><g fill="#C7E8ED" stroke="#4CC3D1" stroke-width=".25"><path d="M89.5 21.1s.1-.5.8-.5c.7 0 .9.1.9.4s-.4.6-.8.5l-.8-.2-.1-.2z"/><path d="M89.5 25.8s.1-.1.2-.5c.1-.3 0-4 0-4s.7.2 1 .2.4-.2.4-.2v4c0 .1-.1.2.3.4.3.2 1.1.6 1.4 1.2s.7 2 .4 2.9c-.3 1-1.2 2-1.4 2.2-.2.2-.4.4-.7.4h-1.3c-.1 0-1-.5-1.3-1s-.8-1.3-.7-2.3c0-1 .3-1.9.6-2.1.2-.2.3-.4.7-.7.1-.4.4-.5.4-.5z"/></g><g fill="#C7E8ED" stroke="#4CC3D1" stroke-width=".25"><path d="M95.1 20.8s.1-.5.8-.5c.7 0 .9.1.9.4s-.4.6-.8.5l-.8-.2-.1-.2z"/><path d="M95 25.6s.1-.1.2-.5c.1-.3 0-4 0-4s.7.2 1 .2.4-.2.4-.2v4c0 .1-.1.2.3.4.3.2 1.1.6 1.4 1.2s.7 2 .4 2.9c-.3 1-1.2 2-1.4 2.2-.2.2-.4.4-.7.4h-1.3c-.1 0-1-.5-1.3-1s-.8-1.3-.7-2.3c0-1 .3-1.9.6-2.1.2-.2.3-.4.7-.7.2-.5.4-.5.4-.5z"/></g><path fill="#6D6D6D" stroke="#000" stroke-width=".25" d="M104.8 10.3s1.6 5.4 4.9 5.4c3.2 0 5.1-4.2 5.1-5.4" opacity=".06"/><path d="M104.8 10.4c.3.2.4.4.7.5.3.1.5.2.8.3.5.2 1.3.1 1.9.3-.2.1-.5 1-.5 1.3 0 .5.3.9.6 1.3s.6.9 1.1 1.1c.3.2.7.3 1.1.4-.2.2-.5.1-.8.1s-.6 0-.8-.1c-.7-.1-1.2-.6-1.7-1.1-.6-.5-.9-1.3-1.3-2-.3-.6-.8-1.3-.9-2.1" opacity=".1"/><path fill="#FFF" d="M112.3 12.7c.1-.2.4-.2.5-.4s.1-.4.1-.7c.4.6-.3 1.3-.7 1.3 0-.2.3-.3.3-.5" opacity=".57"/><path fill="#FFF" d="M112.8 12.8c.2-.1.3-.5.4-.7.2.3-.1.7-.4.7" opacity=".87"/><path fill="none" stroke="#636564" stroke-width=".25" d="M104.8 10.4s1.6 5.4 4.7 5.4 5-4.2 5-5.4"/><ellipse cx="109.7" cy="9.9" fill="none" stroke="#636564" stroke-width=".25" rx="5.1" ry="1.4"/><path fill="#C6C5C5" stroke="#C6C5C5" stroke-width="1.372" d="M216.6 53.9l-64.8.5 5.6-5.8 53.3-.2 5.9 5.5z"/><g fill="#AAAAA7" stroke="#AAAAA7" stroke-width="1.372"><path d="M217.7 87.4c0 1-.8 1.8-1.7 1.8h-62.4c-1 0-1.7-.8-1.7-1.8v-.9c0-1 .8-1.8 1.7-1.8H216c1 0 1.7.8 1.7 1.8v.9z"/><path d="M151.8 87v2.5h66.6l-.6-2.9-66 .4z"/></g><path fill="#090A0B" d="M161.3 78.8c-.2 0-.2 0-.2.2.3.1.4.1.7-.2-.2-.3-.4-.3-.7 0"/><path fill="#C6C5C5" stroke="#C6C5C5" stroke-width="1.372" d="M216.4 83.7c0 1-.3 1.8-.6 1.8h-62.2c-.3 0-.6-.8-.6-1.8V61c0-1 .3-1.8.6-1.8h62.2c.3 0 .6.8.6 1.8v22.7z"/><path fill="#ADADAD" stroke="#ADADAD" stroke-width="1.372" d="M210.1 74.2c0 5.5.6 9.9-1.5 9.9h-21.4c-2.1 0-1.5-4.4-1.5-9.9v-2.7c0-5.5-.6-9.9 1.5-9.9h21.4c2.1 0 1.5 4.4 1.5 9.9v2.7z"/><path fill="#575755" d="M192.4 61.3c-2.7 2.1-4.9 5.1-5 8.3-.1 1.6.9 2.9 1.6 4.4.7 1.5.5 3 1.2 4.5 1.9 3.7 5.6 2.7 9.2 2.7 1.8 0 8.5.8 9 2-3.4 1.5-8.9.2-12.6.1-2.3-.1-4.3.2-6.6 0-3.3-.4-3.5-.7-3.6-3.7-.2-3.9.2-8 .2-12 0-1.3-1.1-5.4.5-5.8 2.3-.5 5.5-.9 6.1.4" opacity=".06"/><path fill="#ADADAD" stroke="#ADADAD" stroke-width="1.372" d="M182.7 74.3c0 5.5.6 9.9-1.6 9.9h-22c-2.2 0-1.6-4.4-1.6-9.9v-2.7c0-5.5-.6-9.9 1.6-9.9h22c2.2 0 1.6 4.4 1.6 9.9v2.7z"/><path fill="#575755" d="M164.5 61.4c-2.8 2.1-5 5.1-5.1 8.3-.1 1.6.9 2.9 1.6 4.4.7 1.5.5 3 1.3 4.5 1.9 3.7 5.8 2.7 9.4 2.7 1.8 0 8.8.8 9.3 2-3.5 1.5-9.2.2-12.9.1-2.3-.1-4.4.2-6.7 0-3.3-.4-3.6-.7-3.7-3.7-.2-3.9.2-8 .2-12 0-1.3-1.1-5.4.5-5.8 2.4-.5 5.6-.9 6.3.4" opacity=".05"/><ellipse cx="188.7" cy="72.8" fill="#F17A21" rx="1.5" ry=".7"/><path fill="#F17A21" d="M189.7 72.7c0 .3-.5.6-1.1.6s-1.1-.2-1.1-.6c0-.3.5-.6 1.1-.6.7.1 1.1.3 1.1.6z"/><ellipse cx="188.7" cy="72.7" stroke="#000" rx=".7" ry=".3"/><path fill="#F17A21" d="M180.4 73c0 .4-.6.7-1.5.7-.8 0-1.4-.3-1.4-.7 0-.4.7-.7 1.4-.7.9-.1 1.5.3 1.5.7z"/><path fill="#F17A21" d="M180 72.9c0 .3-.5.6-1.1.6s-1.1-.2-1.1-.6.5-.6 1.1-.6c.6.1 1.1.3 1.1.6z"/><ellipse cx="178.9" cy="72.9" stroke="#000" rx=".7" ry=".3"/><g stroke-width="1.372"><path fill="#C6C5C5" stroke="#C6C5C5" d="M216.6 56.7c0 1-.8 1.8-1.7 1.8h-61.3c-.9 0-1.7-.8-1.7-1.8v-.9c0-1 .8-1.8 1.7-1.8h61.3c.9 0 1.7.8 1.7 1.8v.9z"/><path fill="#AAAAA7" stroke="#AAAAA7" d="M151.8 56.2v2.6h65.5l-.6-2.9-64.9.3z"/></g><path fill="none" stroke="#2D2D2D" stroke-width=".25" d="M156 52.8c-1.1.4-1.8-.2-1.9-1.6 3-2.6 5.1-1.2 8.3-1.7 2.4-.4 2.2-1.9 4.1-3 1.6-.9 3.1.6 4.7 0 1.3-.4 2.4-1.5 3.6-2.3 1.4-.9 3.2-1.8 4.7-2.7s2.9-1.4 4.6-1.3c1.9.2 2.4 2.4 4.6.6"/><path fill="#535353" d="M198.5 21.6l-10.5.5v25.7l10.5 3.6V21.6z"/><path fill="#2D2D2D" d="M198.5 21.6h2c0 1.8.1 27.5 0 29.2-.1 1.7-1.6.7-2 .6-.4-.2 0-29.8 0-29.8z"/><path fill="#6E7275" d="M210.2 21.9l-9.7-.3-.5 30.2 10.2-1.2V21.9z"/><path fill="none" stroke="#2D2D2D" stroke-width=".25" d="M209.2 22.9v1.4h-7.9v-1.8l7.9.4z"/><path fill="#2D2D2D" d="M209.6 22.3v7h-8.9v.3h9.4V22l-9.4-.1v.3l8.9.1z"/><path fill="#2D2D2D" d="M201.6 24.9h.7v.3h-.7v-.3zm8.1 7.2c0-.1 0-.8-.4-1s-2.1-.1-2.1-.1H204s-.2-.8 0-.8c.2-.1 5.3-.2 5.6 0s.2 1.9.1 1.9z"/><path fill="#FFF" stroke="#FFF" stroke-width=".25" d="M204.3 31.1s-.3.5-.2.9c0 .4.4.7.4.7h5.3v-.5c0-.2.1-.9-.4-1-.5-.2-5.1-.1-5.1-.1z" opacity=".11"/><circle cx="204.7" cy="31.7" r=".4" fill="#2D2D2D"/><ellipse cx="204.9" cy="31.7" fill="#888C8E" opacity=".74" rx=".2" ry=".3"/><path fill="#FFF" stroke="#020202" stroke-width=".25" d="M201.1 40.2c0 .2.4.5.5.5h.5c.1 0 .4-.4.4-.5l.1-9.7c0-.2-.4-.5-.5-.5h-.6c-.1 0-.5.3-.5.4l.1 9.8z" opacity=".11"/><ellipse cx="201.8" cy="31.3" fill="#888C8E" stroke="#686868" stroke-width=".25" rx=".6" ry=".8"/><path fill="#2D2D2D" d="M209.5 43.1l-.5-1c-.1-.2-8 .3-8 .3v-.8s8.3-.7 8.4-.5c.2.2.1 2 .1 2zm0 3.4s-.3-1.2-.5-1.2-8.1.6-8.1.6-.1-.9 0-1 8.5-.6 8.6-.5c.1 0 0 2.1 0 2.1zm-.1 3.1s.3-1.8 0-1.8-8.5.6-8.5.6v.6c0 .2 7.8-.4 8.1-.3.2.1.3.9.4.9z"/><path fill="#FFF" stroke="#FFF" stroke-width=".25" d="M209 42.1l.5 1-8.5.5v-1.2l8-.3zm0 3.2l.5 1.1-8.6.4v-.9l8.1-.6zm.4 3l.3.7v.3s-8.3.6-8.4.5c-.1-.1 0-1.1 0-1.1l8.1-.4z" opacity=".11"/><path fill="#6E7275" d="M186.4 44.6s-1.9-.5-2.7-.4c-.7.1-10.2.7-10.7 1.2s1.1 1.2 1.9 1.4c.7.2 13.7-.5 13.9-.7.2-.3.4-.4.2-.6-.2-.1-2.6-.9-2.6-.9z"/><path fill="#535353" d="M173 45.4l-.1.8s1.7 1.2 2 1.3 14.1-1 14.1-1l-.1-.9s-13.7 1.5-14.1 1.3c-.4-.2-1.8-1.5-1.8-1.5z"/><path fill="#E3E3E3" d="M192.8 17.7h-22.2v25.6l22.2-1.5V17.7z"/><path fill="#565656" d="M192.2 19.6v19.2l-20.7 1.5V19.6h20.7z"/><path fill="#8D8E8E" d="M170.6 17.7s-.2 0-.5-.1-.3 0-.3 0V43l.4.2h.4V17.7z"/><path fill="#2D2D2D" d="M179.4 42.7v3l-1.1-.6v-2.3l1.1-.1z"/><path fill="#535353" d="M183.4 42.7s.5 2.4.3 2.5c-.2.2-4.2.5-4.2.5v-3c-.1 0 3.9.3 3.9 0z"/><path fill="#EAEAEA" stroke="#AAA" stroke-width=".25" d="M185.6 40.7l-6.6.4s-.3-.1-.4.3c0 .4.5.4.5.4l6.5-.3s.4 0 .3-.3c0-.4-.3-.5-.3-.5z"/><path fill="#2D2D2D" d="M184.2 40.8h.1v.7h-.1v-.7zm-1.5.1h.1v.7h-.1v-.7zm-1.6.1h.2v.8h-.2V41z" opacity=".76"/><ellipse cx="171.6" cy="41.9" fill="#2D2D2D" rx=".5" ry=".6"/><circle cx="171.6" cy="41.9" r=".4" fill="#6E7275"/><path fill="#535353" d="M165.2 54.7V54s-1.2-1.8-1.6-2.2l-1.1-1.1-.5-.5-.3-.3v.5l3.5 4.3z"/><path fill="#2D2D2D" d="M161.7 50.4v.8s1.7 2 2.1 2.4c.3.5 1.5 1.9 1.5 1.9v-.7c0-.2-1.4-2.2-1.8-2.6-.4-.4-1.2-1.3-1.3-1.4-.2-.2-.5-.4-.5-.4z"/><path fill="#2D2D2D" d="M200.1 50.5L165.2 54v1.5l34.9-3.4s.5-.1.4-.9c-.1-.8-.4-.7-.4-.7z"/><path fill="#5E5E5E" d="M161.7 49.9L195 47l5.1 3.5-34.9 3.5s-1.1-1.7-1.6-2.2l-1.9-1.9z"/><path fill="#383838" d="M175.9 49.6l2.4 2.1v.8l-2.7-2.1.3-.8z"/><path fill="#191919" d="M173 52.3l-.4-.4-.2.6.6.6v-.8z"/><path fill="#383838" d="M168.9 52.8l2.6-.3.2.8-3 .2.2-.7z"/><path fill="#191919" d="M166.6 50.7l.1-.5 2.3 2.4-.3.9-2.1-2.8z"/><path fill="#383838" d="M177.2 51.8l-4.1.5-.1.9 4.3-.6-.1-.8z"/><path fill="#434444" stroke="#434444" stroke-width=".25" d="M176.6 51.5l-3.9.4.4.4 4.1-.5-.6-.3zm-1.9-.1l-.9.1-.2-.3h.8l.3.2z"/><path fill="#191919" d="M173.5 51.1l-.1.5.4.2v-.4l-.3-.3zm1.3.3v.3l-1 .1v-.3l1-.1zm.4-1l-4 .2v.6l4-.3v-.5zm-4 .8l-1.7-1.5.3-.5 1.4 1.4v.6z"/><path fill="#434444" stroke="#434444" stroke-width=".25" d="M171.6 52.4l-2.4-2.5-2.4.3 2.2 2.5 2.6-.3z"/><path fill="#383838" d="M169.4 50.2l-2.3.3.2.3 2.2-.3-.1-.3zm.5.5l-2.4.3.3.3 2.3-.3-.2-.3zm.6.6l-2.5.3.2.2 2.5-.3-.2-.2zm.5.5l-2.5.3.2.2 2.4-.3-.1-.2z"/><path fill="#434444" stroke="#434444" stroke-width=".25" d="M175.2 50.3l-1.7-1.4-3.7.3 1.4 1.4 4-.3z"/><path fill="#191919" d="M170.1 49.4l3.7-.4.1.6s-3.1.3-3.5.2c0-.1-.3-.4-.3-.4zm4.6.5l-3.9.3.2.2 3.9-.3-.2-.2z"/><path fill="#383838" d="M199.2 49.9l-20.9 1.9v.7l20.9-1.9v-.7z"/><path fill="#191919" d="M175.2 49.6v-.7l-.4-.1-.1.6.5.2z"/><path fill="#434444" stroke="#434444" stroke-width=".25" d="M175.9 49.6l20-1.9 3.1 2.1-20.7 1.9-2.4-2.1z"/><path fill="#191919" d="M180.3 52.4l-.2-.8-.4-.3-1.5.2-.2-.1 3.3-.5v.3l-.9.3.4.1v.6l-.5.2zm-2.9-1.7l2.5-.1v.2l-2.3.2-.2-.3zm-.6-.5h1.5l-.1.2-1.2.1-.2-.3zm3.3-1h.4v.5l-.6-.1.2-.4zm-1.2.7l-.6-.2v.2l.2.3h.4v-.3zm1.5.1l-.5-.3v.5h.5V50zm2.3 1.4l-.5-.1-.2-.4-.5-.2v.4l.5.2.3.8h.4v-.7zm-.6-.9v-.2l-.6-.1v.4l.6-.1zm-.8-.8l.5.2v.3l-.3-.2-.2-.1v-.2zm.5-.3l.1-.2-.6-.1.2.3h.3zm-5 0v-.6l-.5-.3v.7l.5.2zm7.1 1.9l.3.6h.2l.1-.7-.6.1zm-3.3-.6v-.3l-.5-.2v.4l.5.1zm-1.7-1.1l-.2-.3-.1.4.1.1.2-.2zm1 0h-1l-.1.2h1l.1-.2zm3.7.6l-.4-.2.2-.3-.7-.2v.4l.2.3v.2h.7v-.2zm.6.7l-.6-.1.1.2.2.2.3-.1v-.2zm-1.1-.3l.4.1v.3h-.6v-.4h.2zm1.8 0l-.7-.3.2.3v.2l.4.1.1-.3zm-6.7-1.9l-.4-.2-.1.7h.5v-.5zm1.4-.2l-.4-.1v.8h.4v-.7zm2.2 0l-.6-.3-.2.6.6.2.2-.5zm.9.4v-.8l.4.2v.6h-.4zm.8.3l-.6-.2-.1.3.3.2.3-.1.1-.2zm.9.7c.1 0 .5.1.5.1l.2.4-.7-.1v-.4z"/><path fill="#191919" d="M184.2 49.4l.6.2v.3h-.4v.1l-.2-.1v-.5zm.6-.3l-.6-.1.1.3.5.1v-.3zm-.9-1.1c.1 0 .6.2.6.2l-.1.7h-.3l-.2-.9zm1.4.1v-.3l.5.3-.1.5.5.3v.2l-.5.1.4.2v.3h-.2l.5.2v.3h-.6l.5.2.1.2h-.6v.2l.4.1v.9h-.2l-.3-.9.1-.6v-.5l-.1-.2-.3-.3.3-.3-.1-.2-.2-.4-.1-.3zm2.6-.3s-.5-.2-.4-.2-.4.5-.4.5l-.2.3.1.6v.7h.2v.3l-.1.2.1.4.5.1.2-.3-.5-.1.3-.2.2-.3h-.5l.1-.3-.2-.1.1-.3.1-.1-.1-.2-.2-.1.6-.2.1-.7zm1.3 2.7v-.3h-.2l-.3-.2.5-.1v-.2h-.4v-.4l-.3-.2.3-.1v-.4l-.3-.1.7-.2V48l-.4-.3v.4l-.5.3v.6l.1.6h.2l.1.2-.2.3.2.1-.1.3h.6zm.8-2.8l.5-.1-.1.7-.4.2.3.2-.1.3-.3.1.7.5v.4h-.3l.3.3-.1.2s-.2.1-.2 0c-.1-.1-.1-.2-.1-.2v-.6l-.2-.1-.1-.3h-.2v-.2h.1v-.4l-.1-.1.2-.1.2-.3-.1-.5zm1.3-.2v-.2l.6.2-.1.5-.5.3.2.1-.1.5v.2l.5.3v.3l-.2.1.2.1v.3l-.5-.1v-.7l-.3-.1v-.9l-.1-.1.4-.3-.1-.5zm3.1 3.6v-.9l-.5-.1v1h.5zm1.7-.2v-.7l-.4-.3-.1.3.2.4v.3h.3zm1.7-.4V50l-.5-.2v.4l.2.5h.3v-.2zm-4.9-.3l-.1-.3-.3-.1.2-.2.2-.2-.2-.2h-.2V49l-.1-.1v-.3h.2l.2.2.1.3.3.1v.2l-.1.3.2.1v.3l-.4.1zm1.5-3l-.6.1v.4h-.2l.1.3v.2l.3.1h.4v-1.1z"/><path fill="#191919" d="M196.1 49.9s.3-.3-.1-.4l-.4-.1.7-.1v-.4l-.3-.1-.2-.1-.2-.3h-.3v.5l.4.1-.1.2-.3.1.4.2v.5l.5.1-.1-.2zm-1.4.2v-.4h-.3l.3-.3v-.3h-.5v-.8l-.5-.1.1.8.4.2v1l.5-.1zm-1.9-1.6v-.4h-.4v.4h.4zm-16.6 3.4l-.4-.2-.2.3.3.6.3.2v-.9zm-1.5.2l-.6-.2.3.9h.3v-.7zm-6.6-1.7l.2-.2.4.1v.5h.4v.4l.6.2v.3l.5.2-.2.2-.2.1-.3-.1v-.2l-.4-.3-.1-.3-.3-.1-.1-.3-.3-.3-.2-.2z"/><path fill="#383838" d="M166.8 52.8l-1 .2-.1.7 1.3-.1-.2-.8zm-1.9-.8l.9 1-.2.7-.9-1.1.2-.6z"/><path fill="#434444" stroke="#434444" stroke-width=".25" d="M166 51.9l-1.1.1.9 1 1-.2-.8-.9z"/><path fill="#383838" d="M164.1 51l.6.8-.1.7-.8-1.1.3-.4z"/><path fill="#434444" stroke="#434444" stroke-width=".25" d="M165.1 51h-1l.6.8 1.1-.1-.7-.7z"/><path fill="#383838" d="M163.3 51l.3-.5.3.2-.2.7-.4-.4z"/><path fill="#434444" stroke="#434444" stroke-width=".25" d="M164.7 50.7c-.1 0-.8.1-.8.1l-.2-.3h.8l.2.2z"/><path fill="#434444" stroke="#434444" stroke-width=".25" d="M163.7 51.4l.2-.7h.9v.2l-.7.1-.4.4z"/><path fill="#191919" d="M165.1 50.4l-.1.4.5.3-.1-.6-.3-.1z"/><path fill="#383838" d="M166.4 50.6l-1-.1.1.7h.6l.3-.6z"/><path fill="#383838" d="M167 51.1l-1.1.1v.6h.9l.2-.7z"/><path fill="#191919" d="M165.6 50.8v.6l.3.4v-.6l-.3-.4zm.5.6l-.1.4.3.5v-.6l-.2-.3z"/><path fill="#383838" d="M167.4 51.6l-.2.4-.8.3v-.6l1-.1zm.5.5l-.2.7-.8.2v-.7l1-.2z"/><path fill="#191919" d="M166.6 51.9l-.2.5.5.5v-.6l-.3-.4z"/><path fill="#383838" d="M168.5 52.6l.2.9-1.4.2.1-.8 1.1-.3z"/><path fill="#191919" d="M167.2 52.5l-.2.9.3.3.1-.8-.2-.4z"/><path fill="#434444" stroke="#434444" stroke-width=".25" d="M165.2 50.4l.2.1h1l-.2-.1h-1zm.4.4l.3.3h1l-.3-.3h-1zm1.4.5l.3.2-1 .2-.2-.3.9-.1zm.2 1.3l.2.2 1-.1-.3-.2-.9.1zm-.6-.7l.3.4 1-.2-.3-.3-1 .1z"/><path fill="#626363" stroke="#020202" stroke-width=".25" d="M162.8 55.5s.3-1.3-.2-1.8c-.6-.5-2-.7-2.4-.8s-.9-.6-.9-.6-.3.2-.7.2c-.3 0-.7-.2-.7-.2s-.5 1-.9 1.3l-.4.4s1.7 1.4 3.1 1.9c1.3.5 2 .5 2.5.2s.6-.6.6-.6zm-6-3.6s-.9.7-.9 1.1c0 .4.4 1.2.5 1.1.2-.1 1.3-1.7 1.3-1.6 0 .1.1-.2-.4-.4-.2-.1-.5-.2-.5-.2z"/><path fill="#626363" stroke="#020202" stroke-width=".25" d="M159.3 52.1s-.4-.3-.8-.5c-.4-.1-1.3 0-1.3 0-.2.1-.1.2-.1.2l.8.4s.3.2.8.2c.4 0 .6-.1.7-.1l.1-.1-.2-.1z"/><path fill="#434444" stroke="#020202" stroke-width=".25" d="M163 55.3s.3 1.5-.7 1.8-2.5.1-3.3-.2c-.9-.3-1.9-1-2.3-1.4-.4-.4-.7-.5-.8-.8s0-1 0-1.1.1-.2.1-.2.3.7.4.7c.1 0 .3-.1.3-.1s.7.5 1.1.8c.5.3.7.5 1.3.7.6.3 1.1.5 1.6.6.4.1 1.2.2 1.5 0 .2-.1.5-.4.6-.5s.2-.5.2-.5v.2z"/><path fill="none" stroke="#2D2D2D" stroke-width=".25" d="M163 55.6s-.1.2-.2.3c-.1.1-.3.4-.8.6-.5.2-1.9.1-3.2-.5-1.3-.5-2.6-2-2.6-2s-.2-.1-.2-.3"/><path fill="#FFF" d="M162.4 54.2c-.6.7-1.6.5-2.4.4-.2 0-1.1-.3-1.2-.1-.3.4.6 1 .8 1.2.6.4 1.6.7 2.3.5.5-.1.8-.4.9-.9.1-.4.1-1.1-.2-1.3-.1.2-.1.5-.4.5m-2.4 2.1c-.2-.2-.7-.3-1-.4-.4-.1-.7-.3-1.1-.6-.2.5.9.9 1.1 1.1.2.1.4.2.7.2.4 0 .3-.2 0-.4" opacity=".12"/><path fill="#C6C5C5" stroke="#C6C5C5" stroke-width="1.372" d="M104.3 52.6l-49.9.5 4.4-6.2 40.9-.2 4.6 5.9z"/><g fill="#AAAAA7" stroke="#AAAAA7" stroke-width="1.372"><path d="M105.1 88.6c0 1.1-.6 1.9-1.3 1.9H55.9c-.7 0-1.3-.9-1.3-1.9v-1c0-1.1.6-1.9 1.3-1.9h47.9c.7 0 1.3.9 1.3 1.9v1z"/><path d="M54.4 88.1v2.7h51.3l-.5-3.1-50.8.4z"/></g><path fill="#090A0B" d="M61.8 79.4c-.1 0-.2 0-.2.2.3.2.3.1.5-.2-.1-.4-.3-.3-.5 0"/><path fill="#C6C5C5" stroke="#C6C5C5" stroke-width="1.372" d="M104.1 84.6c0 1-.2 1.9-.5 1.9H55.8c-.3 0-.5-.8-.5-1.9V60.2c0-1 .2-1.9.5-1.9h47.8c.3 0 .5.8.5 1.9v24.4z"/><path fill="#ADADAD" stroke="#ADADAD" stroke-width="1.372" d="M99.3 74.4c0 5.9.4 10.6-1.2 10.6H81.7c-1.6 0-1.2-4.7-1.2-10.6v-2.9c0-5.9-.4-10.6 1.2-10.6h16.5c1.6 0 1.2 4.7 1.2 10.6l-.1 2.9z"/><path fill="#575755" d="M85.7 60.5c-2.1 2.3-3.7 5.4-3.8 8.9 0 1.7.7 3.2 1.2 4.7.5 1.6.4 3.2 1 4.8 1.4 3.9 4.3 2.9 7 2.9 1.4 0 6.5.8 6.9 2.1-2.6 1.6-6.8.3-9.7.1-1.7-.1-3.3.3-5 0-2.5-.4-2.7-.7-2.8-3.9-.2-4.2.2-8.6.2-12.8 0-1.4-.8-5.8.3-6.2 1.8-.5 4.2-1 4.7.4" opacity=".06"/><path fill="#ADADAD" stroke="#ADADAD" stroke-width="1.372" d="M78.2 74.5c0 5.9.5 10.6-1.2 10.6H60.1c-1.7 0-1.2-4.7-1.2-10.6v-2.9c0-5.9-.5-10.6 1.2-10.6H77c1.7 0 1.2 4.7 1.2 10.6v2.9z"/><path fill="#575755" d="M64.2 60.7c-2.1 2.3-3.8 5.4-3.9 8.9 0 1.7.7 3.2 1.2 4.7.5 1.6.4 3.2 1 4.8C64 83 66.9 82 69.7 82c1.4 0 6.7.8 7.1 2.1-2.7 1.6-7 .3-10 .1-1.8-.1-3.4.3-5.2 0-2.6-.4-2.7-.7-2.9-3.9-.2-4.2.2-8.6.2-12.8 0-1.4-.9-5.8.4-6.2 1.9-.5 4.3-1 4.8.4" opacity=".05"/><ellipse cx="82.8" cy="72.8" fill="#F17A21" rx="1.1" ry=".8"/><path fill="#F17A21" d="M83.6 72.8c0 .3-.4.6-.8.6-.5 0-.8-.3-.8-.6s.4-.6.8-.6c.5 0 .8.3.8.6z"/><ellipse cx="82.8" cy="72.7" stroke="#000" rx=".5" ry=".4"/><ellipse cx="75.4" cy="73.1" fill="#F17A21" rx="1.1" ry=".8"/><ellipse cx="75.3" cy="73" fill="#F17A21" rx=".8" ry=".6"/><ellipse cx="75.3" cy="73" stroke="#000" rx=".5" ry=".4"/><g stroke-width="1.372"><path fill="#C6C5C5" stroke="#C6C5C5" d="M104.3 55.6c0 1.1-.6 2-1.3 2H55.9c-.7 0-1.3-.9-1.3-2v-1c0-1.1.6-1.9 1.3-1.9H103c.7 0 1.3.9 1.3 1.9v1z"/><path fill="#AAAAA7" stroke="#AAAAA7" d="M54.4 55.1v2.8h50.4l-.5-3.2-49.9.4z"/></g><path fill="#ADA9A3" stroke="#A6A399" stroke-width=".25" d="M82.8 44.3l-2.6 2.1 7.2 5.5 1.4-3.6-6-4z"/><path fill="#A6A399" stroke="#A6A399" stroke-width=".25" d="M89 48.3l9.9-4 2.3 2.1-13.6 5.4 1.4-3.5z"/><path fill="#80807E" stroke="#80807E" stroke-width=".25" d="M82.7 44.3l5.9 4.1 10.2-4.2-5.7-3.6-10.4 3.7z"/><path fill="#80807E" stroke="#80807E" stroke-width=".25" d="M89.8 46.5v.8l7-2.6v-.8l-7 2.6z"/><path fill="#5B5B5B" stroke="#5B5B5B" stroke-width=".25" d="M90.3 45.8v.5l5.3-2.2v-.5l-5.3 2.2z"/><path fill="#444445" stroke="#444445" stroke-width=".25" d="M90.3 46.3l-.5-.3.5-.2v.5z"/><path fill="#A29F9D" stroke="#80807E" stroke-width=".25" d="M89.7 45.5v.5l6.4-2.5v-.6l-6.4 2.6z"/><linearGradient id="f" x1="85.232" x2="96.079" y1="86.2" y2="86.2" gradientTransform="matrix(1 0 0 -1 0 129)" gradientUnits="userSpaceOnUse"><stop offset="0" stop-color="#a5a8ab"/><stop offset="1" stop-color="#d0d1d2"/></linearGradient><path fill="url(#f)" stroke="#BFBCBB" stroke-width=".25" d="M85.2 42.6l4.5 2.9 6.4-2.6-4.1-2.8-6.8 2.5z"/><path fill="#A29F9D" stroke="#80807E" stroke-width=".25" d="M85.2 42.6l.1.5 4.4 2.9v-.4l-4.5-3z"/><path fill="#090A0A" d="M89.7 49.1v1.4l3.9-1.5v-1.4l-3.9 1.5z"/><text fill="#7AC043" font-family="'FranklinGothic-Book'" font-size="1.271" transform="matrix(.7313 .02635 -.02526 .9997 92.846 48.912)">0</text><path fill="#D2CFBA" stroke="#D2CFBA" stroke-width="2" d="M95.5 46.4l.4-.1v.4l-.4.2v-.5zm.6-.2l.4-.1v.4l-.4.2v-.5zm.6-.2l.4-.2v.5l-.4.2V46zm.5-.2l.4-.2v.5l-.4.1v-.4zm.6-.3l.4-.1v.4l-.4.2v-.5zm.6-.2l.4-.2v.5l-.4.1v-.4z"/><path fill="#FAF6E6" stroke="#FAF6E6" d="M95.5 46.4l.4-.1v.4l-.4.2v-.5zm.6-.2l.4-.1v.4l-.4.2v-.5zm.6-.2l.4-.2v.5l-.4.2V46zm.5-.2l.4-.2v.5l-.4.1v-.4zm.6-.3l.4-.1v.4l-.4.2v-.5zm.6-.2l.4-.2v.5l-.4.1v-.4z"/><path fill="#D2CFBA" stroke="#D2CFBA" stroke-width="2" d="M95.6 47.2l.4-.2v.5l-.4.2v-.5zm.6-.2l.4-.2v.5l-.4.1V47zm.5-.2l.4-.2v.4l-.4.2v-.4zm.6-.2l.4-.2v.4l-.4.2v-.4zm.6-.3l.4-.2v.5l-.4.2v-.5zm.5-.2l.4-.2v.4l-.4.2v-.4z"/><path fill="#FAF6E6" stroke="#FAF6E6" d="M95.6 47.2l.4-.2v.5l-.4.2v-.5zm.6-.2l.4-.2v.5l-.4.1V47zm.5-.2l.4-.2v.4l-.4.2v-.4zm.6-.2l.4-.2v.4l-.4.2v-.4zm.6-.3l.4-.2v.5l-.4.2v-.5zm.5-.2l.4-.2v.4l-.4.2v-.4z"/><text fill="#80807E" font-family="'MyriadPro-Regular'" font-size=".676" transform="matrix(.8222 -.226 .1893 .9819 95.642 46.785)">=</text><text fill="none" stroke="#80807E" stroke-width=".25" font-family="'MyriadPro-Regular'" font-size=".676" transform="matrix(.8222 -.226 .1893 .9819 95.642 46.785)">=</text><text fill="#80807E" font-family="'MyriadPro-Regular'" font-size=".529" transform="matrix(.8367 -.048 .04 .9992 96.218 46.584)">1</text><text fill="none" stroke="#80807E" stroke-width=".25" font-family="'MyriadPro-Regular'" font-size=".529" transform="matrix(.8367 -.048 .04 .9992 96.218 46.584)">1</text><text fill="#80807E" font-family="'MyriadPro-Regular'" font-size=".525" transform="matrix(.8222 -.2265 .1897 .9818 96.696 46.308)">2</text><text fill="none" stroke="#80807E" stroke-width=".25" font-family="'MyriadPro-Regular'" font-size=".525" transform="matrix(.8222 -.2265 .1897 .9818 96.696 46.308)">2</text><text fill="#80807E" font-family="'MyriadPro-Regular'" font-size=".528" transform="matrix(.8361 -.06656 .05573 .9984 97.383 46.153)">3</text><text fill="none" stroke="#80807E" stroke-width=".25" font-family="'MyriadPro-Regular'" font-size=".528" transform="matrix(.8361 -.06656 .05573 .9984 97.383 46.153)">3</text><text fill="#80807E" font-family="'MyriadPro-Regular'" font-size=".528" transform="matrix(.8361 -.06656 .05573 .9984 97.943 45.93)">4</text><text fill="none" stroke="#80807E" stroke-width=".25" font-family="'MyriadPro-Regular'" font-size=".528" transform="matrix(.8361 -.06656 .05573 .9984 97.943 45.93)">4</text><text fill="#80807E" font-family="'MyriadPro-Regular'" font-size=".528" transform="matrix(.8361 -.06656 .05573 .9984 98.5 45.66)">5</text><text fill="none" stroke="#80807E" stroke-width=".25" font-family="'MyriadPro-Regular'" font-size=".528" transform="matrix(.8361 -.06656 .05573 .9984 98.5 45.66)">5</text><text fill="#80807E" font-family="'MyriadPro-Regular'" font-size=".528" transform="matrix(.8361 -.06656 .05573 .9984 95.76 47.563)">6</text><text fill="none" stroke="#80807E" stroke-width=".25" font-family="'MyriadPro-Regular'" font-size=".528" transform="matrix(.8361 -.06656 .05573 .9984 95.76 47.563)">6</text><text fill="#80807E" font-family="'MyriadPro-Regular'" font-size=".528" transform="matrix(.8361 -.06656 .05573 .9984 96.32 47.39)">7</text><text fill="none" stroke="#80807E" stroke-width=".25" font-family="'MyriadPro-Regular'" font-size=".528" transform="matrix(.8361 -.06656 .05573 .9984 96.32 47.39)">7</text><text fill="#80807E" font-family="'MyriadPro-Regular'" font-size=".528" transform="matrix(.8361 -.06656 .05573 .9984 96.887 47.166)">8</text><text fill="none" stroke="#80807E" stroke-width=".25" font-family="'MyriadPro-Regular'" font-size=".528" transform="matrix(.8361 -.06656 .05573 .9984 96.887 47.166)">8</text><text fill="#80807E" font-family="'MyriadPro-Regular'" font-size=".528" transform="matrix(.8361 -.06656 .05573 .9984 97.455 46.86)">9</text><text fill="none" stroke="#80807E" stroke-width=".25" font-family="'MyriadPro-Regular'" font-size=".528" transform="matrix(.8361 -.06656 .05573 .9984 97.455 46.86)">9</text><text fill="#80807E" font-family="'MyriadPro-Regular'" font-size=".528" transform="matrix(.8361 -.06656 .05573 .9984 98.022 46.64)">0</text><text fill="none" stroke="#80807E" stroke-width=".25" font-family="'MyriadPro-Regular'" font-size=".528" transform="matrix(.8361 -.06656 .05573 .9984 98.022 46.64)">0</text><text fill="#80807E" font-family="'MyriadPro-Regular'" font-size=".528" transform="matrix(.8361 -.06656 .05573 .9984 98.557 46.403)">/</text><text fill="none" stroke="#80807E" stroke-width=".25" font-family="'MyriadPro-Regular'" font-size=".528" transform="matrix(.8361 -.06656 .05573 .9984 98.557 46.403)">/</text><path fill="#FFF" stroke="#EFEFEF" stroke-width=".25" d="M83 47.2l-.9 45.5h21.4L100.7 50 83 47.2z"/><g stroke-width=".25"><path fill="#7BC14A" stroke="#619B42" d="M88.3 114.9s.1 2.6.8 2.9c.7.3 3 .5 3 .5s1.5 1.1 3 1.6 4.7 1 5.4.5c.7-.5.6-1.4-.3-2.2-.9-.8-3-1.9-3.8-2.3s-1-.1-2.1-.1-3.8-.9-4.4-1.1c-.7-.3-1.6.2-1.6.2z"/><path fill="#FBFCFA" stroke="#FBFCFA" d="M96.5 120s.4-1.8 1.3-2.1c.9-.3 1.7-.3 1.9-.1.2.1 1.4.9 1.4 1.3s-.6 1.4-1.4 1.4-2.2-.2-2.5-.3c-.4.1-.7-.2-.7-.2z"/><path fill="#2D3487" stroke="#1F1E53" d="M91.6 81.3s-.9 4.7-.9 5.9c0 .9-.9 2.6-1.3 4.1-.1.4-.1.7-.1 1 0 1.6-.9 3.1-.9 3.1l-1.4 2v3.5c0 1.2-1.4 6.6-1.4 6.6l.1 2.6.3 1.3-2.2 5.7-6.2.2-1.8-1.2s3.7-14.8 3.7-16.4 1.4-9.4 1.4-11.3c0-2 3.2-13.9 3.2-13.9v-2s10.8 1.1 13.6 1.1c2.8 0 4.2-.8 4.2-.8s1 4.6 1 6.5c0 2-2.9 11.8-3.8 14.1-.9 2.3-1.4 8.2-1.4 8.2l-.9 5.9-1.9 2.3 1.6 4.6c-2.8 2.7-6.8 1.7-6.8 1.7s-2.3-2-1.9-3.1c.5-1.2 1.4-5.5 1.4-5.5V102s1.4-4.3 1.4-5.9 1.9-7.8 1.9-7.8l-.9-7z"/><path fill="#7BC14A" stroke="#619B42" d="M85.1 116.1s-4.6 3.7-4.7 4.2c-.1.6-2.3 2.1-3.1 2.3-.8.1-3.2.2-3.8-.2-.6-.4-.8-2 0-2.5s1.7-1.6 2.1-2 .5-1.3.8-1.1c.3.2 3.8.6 4.7.5 1 0 4-1.2 4-1.2z"/><path fill="#FBFCFA" stroke="#FBFCFA" d="M77.6 122s-1.2-1.8-1.8-2.1c-.6-.3-1.7-.4-1.7-.4S73 120.7 73 121s1.2 1.7 1.4 1.7h1.9c.4 0 1 0 1.2-.1.3-.1.1-.6.1-.6z"/></g><g opacity=".35"><path fill="#FFF" d="M79.2 63v1.9s-1.1.5-1.2.7v7.6s1.7 1.1 4.6 1.1c3.9.1 4.4-1.5 4.4-1.5v-7.2s-1.1-.4-1.1-.7c0-.4-.2-1.9-.2-1.9s.2.2-.5.4-1.7.4-2.4.3c-.7-.1-2.2-.1-2.3-.1-.1-.1-.9-.3-.9-.3l-.4-.3z"/><path fill="#B4DBF4" d="M79.3 63v1.9s-1.1.5-1.2.7v7.6s1.7 1.1 4.6 1.1c3.9.1 4.4-1.5 4.4-1.5v-7.2s-1.1-.4-1.1-.7c0-.4-.2-1.9-.2-1.9s.2.2-.5.4-1.7.4-2.4.3c-.7-.1-2.2-.1-2.3-.1-.1-.1-.9-.3-.9-.3l-.4-.3z" opacity=".51"/><ellipse cx="82.6" cy="63.3" fill="#99CAE6" stroke="#8BBDD5" stroke-width=".25" rx="3.3" ry=".5"/><path fill="#FFF" d="M79.9 66.5c-.8-.2-.3 2.4-.3 3 0 1.1 0 2.4-.2 3.5-.7.2-.4-1.4-.4-1.9 0-.8-.1-1.5-.1-2.3 0-.4-.1-.7-.1-1.1 0-.6.1-.7.3-1.2.1-.3.1-.9.5-.9.3 0 .7.8.3.9m6.3-.4c-.5-.3-1 .7-.3.9.7.2.7-1.1 0-.9m.6 2.9c0-.3-.2-1.1-.6-.9-.3.2-.1 1.1-.1 1.4v2.6c0 .4.1 1.1.6.8.4-.2.2-1 .2-1.4 0-.9 0-1.8-.1-2.5m-6-3.1c.9 0 1.8.1 2.6.1.2.9-1 .7-1.4.7-.3 0-1.8.1-1.2-.8" opacity=".42"/><path fill="#FFF" d="M78.7 72.7c.6.2 1.2.6 1.8.7.7.1 1.4.1 2 .1 1.4 0 2.6-.2 3.9-.7-.8 1.2-3.1.5-4.3.5-.7 0-1.4.1-2.2.1-.4 0-.9 0-1.2-.2-.5-.4-.4-.9.2-.7" opacity=".42"/><path fill="#FFF" d="M79.1 72.8c.6-.1 1.1-.5 1.7-.7s1.4-.2 2-.3c1.3-.1 2.4.6 3.6 1l-2.1-1.5c-.7-.6-1.4-.8-2.3-.6-.8.2-1.5.7-2.2.9-.3.1-1 0-1.1.5-.1.6.7.8 1 .7" opacity=".42"/><path fill="#060606" d="M79.4 64.6c1 .8 5.9 1.4 6.5-.1.1.1 0 .5.1.6-1.1 1.6-5.7 1-7-.3l-1 .8v7.6l1 .2s-.5-7-.5-7.3c.1-.3 1.1-.8 1.1-.8" opacity=".04"/></g><path fill="#FFF" stroke="#EFEFEF" stroke-width=".25" d="M76.6 50s-.5-1.3-1.3-2c-.7-.7-2.7-2.2-2.7-2.2s8.2-10.9 9-10.6c.7.3 3.1.4 3.1.4l-2.4 4.9s-3.5 10.7-3.6 11.4c-.2.7-2.2 4-2.2 4l-1.8-.9 1.9-5z"/><path fill="#424342" stroke="#424342" stroke-width=".25" d="M74.2 47.3c1 1 3.3-.4 4.2-1.1.1 1.6.4 3.4.4 4.9 0 2.3-2 3-2.8 4.8-2.3-.6-.9-2-.1-3.7s.4-3.6-1.2-4.5" opacity=".04"/><path fill="#FFF" stroke="#EFEFEF" stroke-width=".25" d="M91.8 46.1s2.9 1.4 5 3.6c1.6 1.6 3.3 4.6 3 4.9-.3.3-.6 1.8-.6 1.8s1.2 1.9 2 2.1c.8.1 4.5 1.7 5.9 1.2 1.3-.6 2.6-1 2.8-1.9.2-.9-.6-6.1-2.9-9.7-2.3-3.6-4.5-8.1-5.7-10.6-.2-.4-1.4 0-1.4-.2 0-.1-1.1.3-2.1 1.4-1 1.1 0 4.9 0 4.9s.6 2.5 0 2.4c-.7-.3-6 .1-6 .1z"/><path fill="#424342" stroke="#424342" stroke-width=".25" d="M97.7 45.8s.9.8 2.1 1.3 1.7 1.3 3.2 2.2c1.4 1 2.5 2 2.5 2s-2-3.5-3.3-4.2-1.4-.9-2.3-1.6c-.9-.7-2.1-2.1-2.1-2.1l.2 1.1-.3 1.3z" opacity=".09"/><path fill="#026999" stroke="#026999" stroke-width=".25" d="M85.6 36.5l1.3 7.4 3.5 3.3 5.1-7.5.8-2.5s-5.4.1-6.9 0c-1.4-.2-3.8-.7-3.8-.7z"/><path fill="#FFF" stroke="#EFEFEF" stroke-width=".25" d="M98.6 37.1l.6 2h-2.9l1.3 6.7-6.2-.3 4.9-8.4s.7-.9 1.3 0c.6.9 1 0 1 0zm-15.1-1.9s1.6-.3 2.1.6c.4.8 1.3 8.1 1.3 8.1l-5.7-2.1 2.4-4.7-2.1-.7 2-1.2z"/><path fill="#FFF" stroke="#FFF" stroke-width=".25" d="M80.2 51.9l.3 14.1 3-7.3v-1.1c0-1.1 1.1-1.7 1.1-1.7"/><linearGradient id="g" x1="86.051" x2="89.539" y1="70.952" y2="70.952" gradientTransform="matrix(1 0 0 -1 0 129)" gradientUnits="userSpaceOnUse"><stop offset="0" stop-color="#ffedc4"/><stop offset=".322" stop-color="#ffe6b6"/><stop offset=".928" stop-color="#ffd592"/><stop offset="1" stop-color="#ffd38d"/></linearGradient><path fill="url(#g)" stroke="#FDDC8C" stroke-width=".25" d="M88.8 58.4c.2-2.8-3-3.3-2.7-.4.1 1.3 1 1.7 2 1.8.5.1.7.5 1.2 0s.5-1.2-.1-1.4"/><path fill="#B4DBF4" stroke="#0C80AE" stroke-width=".25" d="M80.5 52.5c-.5 1.2-3.8.2-7.2-2.1-3.4-2.3-5.7-5.1-5.2-6.3s3.8-.2 7.2 2.1c3.4 2.4 5.8 5.2 5.2 6.3z" opacity=".51"/><path fill="#B4DBF4" d="M80.5 52.5s-1 1.4-1.3 1.5c-.4.1-3.8 9.5-3.8 9.5s-1.3 1-2.4 1-7-2.5-7.8-3.6-1.9-4.2-1.9-4.2L68 44.6s.4 1.4 1.1 2.2c.8.9 3.1 3 4.1 3.6s3.3 1.8 3.6 2c.3.1 2 .6 2 .6l1.7-.5z" opacity=".51"/><path fill="#F7B948" stroke="#F7B948" stroke-width=".25" d="M77.6 56.5c-.3.7-2.9-.4-5.8-2.3s-5-4-4.7-4.7 2.9.4 5.8 2.3 5 4 4.7 4.7z"/><path fill="#FBAE17" stroke="#FBAE17" stroke-width=".25" d="M63.7 56.9s1.1 3 4.3 4.8 5.6 2 5.6 2l4-7.3s-3.8-.8-5.8-2.3c-2.1-1.5-4.2-3.5-4.2-3.5l-.6-1.1-3.3 7.4z"/><linearGradient id="h" x1="43.729" x2="49.168" y1="136.201" y2="136.201" gradientTransform="scale(1 -1) rotate(-16.703 -584.893 -21.55)" gradientUnits="userSpaceOnUse"><stop offset="0" stop-color="#ffedc4"/><stop offset=".322" stop-color="#ffe6b6"/><stop offset=".928" stop-color="#ffd592"/><stop offset="1" stop-color="#ffd38d"/></linearGradient><path fill="url(#h)" stroke="#FDDC8C" stroke-width=".25" d="M68.8 48.6c-.2 1 .1 2.6-1.5 1.5 1.7 0 .4 4.6-1.9 2.1 2 .6.3 3.8-1.3 2.4 1-.2 1.7 2.7-.9 1.8-1.5-.6-2.2-3.4-.2-2.6-1.2-.5-.2-2.8 1.1-2.6-1.1-.6 0-2.3 1.2-1.8-2.3-2.8 2.8-2.6 3.5-.8"/><linearGradient id="i" x1="57.287" x2="61.463" y1="133.092" y2="133.092" gradientTransform="scale(1 -1) rotate(-16.703 -584.893 -21.55)" gradientUnits="userSpaceOnUse"><stop offset="0" stop-color="#ffedc4"/><stop offset=".322" stop-color="#ffe6b6"/><stop offset=".928" stop-color="#ffd592"/><stop offset="1" stop-color="#ffd38d"/></linearGradient><path fill="url(#i)" stroke="#FDDC8C" stroke-width=".25" d="M78.1 56.8c-1 .6-1.9-.5-2.8.2-.7.5-1.1 2.3-.6 3 1.6 1.9 5.7-1.1 3.6-2.9"/><path fill="#B4DBF4" stroke="#0C80AE" stroke-width=".25" d="M82.9 46c-1.5 2.1-2.2 4.4-1.5 5.2s2.6-.3 4.1-2.4c1.5-2.1 2.2-4.4 1.5-5.2-.7-.7-2.5.3-4.1 2.4zm-3.6 5.6c-.3.7-2.9 0-5.7-1.8-2.8-1.7-4.8-3.7-4.5-4.5.3-.7 2.9 0 5.7 1.8 2.8 1.7 4.8 3.7 4.5 4.5z" opacity=".51"/><path fill="#B4DBF4" stroke="#0C80AE" stroke-width=".25" d="M83.4 46.1c-1.3 1.8-2.1 3.6-1.7 3.9.4.4 1.7-.8 3.1-2.6 1.3-1.8 2.1-3.6 1.7-3.9-.4-.3-1.8.8-3.1 2.6z" opacity=".51"/><path fill="#B4DBF4" stroke="#0C80AE" stroke-width=".25" d="M82.7 51.8s11.8 12.1 12.6 12.5c.8.4 2.8-.1 3.9-1.5s1.6-3.7 1.6-3.9S99 56 99 56L87 43.6s.6 1.1 0 2.5-2.1 3.5-2.1 3.5l-1.4 1.3h-.7v.9h-.1z" opacity=".51"/><path fill="#5EBA47" stroke="#5EBA47" stroke-width=".25" d="M86.1 53.2l9.5 10.2s-.2.9 2.2-.5c2.4-1.4 2.8-2.5 2.9-2.8s-.1-2-.1-2l-10-9.1s-2.6 1.2-3.2 1.9c-.7.7-1.3 2.3-1.3 2.3z"/><linearGradient id="j" x1="90.82" x2="99.258" y1="76.3" y2="76.3" gradientTransform="matrix(1 0 0 -1 0 129)" gradientUnits="userSpaceOnUse"><stop offset="0" stop-color="#ffedc4"/><stop offset=".322" stop-color="#ffe6b6"/><stop offset=".928" stop-color="#ffd592"/><stop offset="1" stop-color="#ffd38d"/></linearGradient><path fill="url(#j)" stroke="#FDDC8C" stroke-width=".25" d="M94 48.5c1.2-.1 2.6 1 3.4 2.1.6.7 2.2 2.5 1.9 3.6-.2.6-1.1 1.4-1.4 1.9-.4.6-.7 1.1-1.4 1.1-1.7.1.2-2.4.8-3-.5.6-1.7 2.1-2.4 1.8-.8-.3-.8-1.8-.5-2.6-.8 1.9-2.9.6-1.7-1-.1.9-.9 1-1.4.5-.5-.6-.5-1.3-.2-2 .7-1.8 2.1-1.4 2.9-2.6"/><path fill="#030303" stroke="#000" stroke-width=".25" d="M91.8 51.3c-.8.5-1.7 1.4-1.9 2.5 0-1.1 1.1-1.7 1.7-2.3m3.2 1.1c-1.1-.1-1.2 1.6-2 2-.2-.9 1.2-1.9 1.8-2.4" opacity=".01"/><g stroke-width=".25"><path fill="#5EBA47" stroke="#5EBA47" d="M84.2 62.8c.6-1.4-.1-2.1-.4-3.5-.3-1.2-.3-2.4-.3-3.7 0-1 .6-7.2-.8-6.9-1.7.3 1.2 13.2 1.1 14.7"/><path fill="#FBAE17" stroke="#FBAE17" d="M78.6 51.3c2.6-.6 2.1 3 2.3 5 .3 2 2.7 4.7 2 6.8-.9 2.5-1.9-3.6-2.1-4.6-.6-2.7-.3-4.5-2-6.8"/><path fill="#FBAE17" stroke="#FBAE17" d="M81.6 65.1c1 .5.5 2.1.2 3-.4 1.1-.9 1.6-1.8 2.5s-2.2 1.5-.3 2.2c.7.3 2.8.3 3.2-.4-.3-.4-.8-.5-1.3-.3-.1-.1-.4-.8-.4-1 1-1 .6-2 1-3.4.2-.6.6-.8.7-1.5.1-.6-.1-1.2 0-1.8.1-1.1 1-3.1-.8-2.4-1.2.5-1.2 2.2-.5 3.1"/><path fill="#5EBA47" stroke="#5EBA47" d="M83.3 62.3c.7.5-.1.8-.1 1.4 0 .1-.2 1-.3 1.2-.1.4.3 1 .2 1.5-.2 1.6-1.7 3.5-1.6 5.1.9 0 2.2.9.8 1.7.7.2 1.9.4 2.5-.2 1.4-1.3 0-2.7-1.2-1.9-1.1-1.3-.5-2.9 0-4.2.5-1.6.8-3.3.9-5"/></g><g fill="none" stroke="#7B96CC" stroke-width=".25"><path d="M79.4 63v1.9s-1.1.5-1.2.7v7.6s1.7 1.1 4.6 1.1c3.9.1 4.4-1.5 4.4-1.5v-7.2s-1.1-.4-1.1-.7c0-.4-.2-1.9-.2-1.9s.2.2-.5.4-1.7.4-2.4.3c-.7-.1-2.2-.1-2.3-.1-.1-.1-.9-.3-.9-.3l-.4-.3z"/><path d="M79.4 63v1.9s-1.1.5-1.2.7v7.6s1.7 1.1 4.6 1.1c3.9.1 4.4-1.5 4.4-1.5v-7.2s-1.1-.4-1.1-.7c0-.4-.2-1.9-.2-1.9s.2.2-.5.4-1.7.4-2.4.3c-.7-.1-2.2-.1-2.3-.1-.1-.1-.9-.3-.9-.3l-.4-.3z" opacity=".51"/><ellipse cx="82.7" cy="63.3" rx="3.3" ry=".5"/><path d="M78.8 72.7c.6.2 1.2.6 1.8.7.7.1 1.4.1 2 .1 1.4 0 2.6-.2 3.9-.7-.8 1.2-3.1.5-4.3.5-.7 0-1.4.1-2.2.1-.4 0-.9 0-1.2-.2-.5-.4-.4-.9.2-.7" opacity=".42"/><path d="M79.6 64.6c1 .8 5.9 1.4 6.5-.1.1.1 0 .5.1.6-1.1 1.6-5.7 1-7-.3l-1 .8v7.6l1 .2s-.5-7-.5-7.3c.1-.3 1.1-.8 1.1-.8" opacity=".04"/></g><path fill="#5EBA47" stroke="#5EBA47" stroke-width=".25" d="M88 50.2c-.8 0-1.6.2-2.4.1-1.1-.1-1.6-.8-2.6-1.3-.1.5.5 3 .8 3.4.7.9 2.3 1.1 3.3 1.3"/><path fill="#F7B948" stroke="#F7B948" stroke-width=".25" d="M79.6 50.9c-.8-.1-1.4.4-2.1.8-.8.4-1.6.6-2.4.7-1.4.2-3.4-.2-4.6.3.5.8 1.2.6 1.9.9.8.3 1.4.8 2.2 1.1 1.4.5 3.2-.7 4.3-1.9"/><g stroke-width="1.372"><path fill="#ADADAD" stroke="#ADADAD" d="M151.2 125.6c0 .8.7 1.5 1.5 1.5.9 0 1.5-.7 1.5-1.5V92.5c0-.8-.7-1.5-1.5-1.5-.9 0-1.5.7-1.5 1.5v33.1zm-96.6.3c0 .8.7 1.5 1.5 1.5.9 0 1.5-.7 1.5-1.5V92.5c0-.8-.7-1.5-1.5-1.5-.9 0-1.5.7-1.5 1.5v33.4zm76.1-19.8c0 .8.7 1.5 1.5 1.5.9 0 1.5-.7 1.5-1.5V72.4c0-.8-.7-1.5-1.5-1.5-.9 0-1.5.7-1.5 1.5v33.7zm-87.3-.3c0 .8.7 1.5 1.5 1.5.9 0 1.5-.7 1.5-1.5V72.1c0-.8-.7-1.5-1.5-1.5-.9 0-1.5.7-1.5 1.5v33.7z"/><path fill="#F2F2F2" stroke="#F2F2F2" d="M54.6 87.8l99.8-.2-22.3-17.4-91.4-.2 13.9 17.8z"/><path fill="#C6C5C5" stroke="#C6C5C5" d="M54.6 87.8h100v3.1h-100v-3.1z"/><path fill="#ADADAD" stroke="#ADADAD" d="M54.6 90.9L42.3 75.1 40.7 70l13.9 17.8v4.3"/></g><path fill="#FFF" d="M57.7 72.1V74s-1.1.5-1.2.7v7.6s1.7 1.1 4.7 1.1c4 .1 4.4-1.5 4.4-1.5v-7.2s-1.1-.4-1.1-.7c0-.4-.2-1.9-.2-1.9s.2.2-.5.4-1.7.4-2.4.3-2.2-.1-2.3-.1c-.1-.1-.9-.3-.9-.3l-.5-.3z"/><path fill="#8C765F" d="M58.4 78.2c.3-.1.5 0 .8-.1s.5-.5.7-.8c.6.3 1.4.5 2 .4.4-.1.6-.3 1.1 0 .2.1.1.3.4.4.2.1.5 0 .6 0 .4.1.7.4 1 .8.4.5.3.7.2 1.3-.1.5 0 .8 0 1.3 0 .7-.3.6-.8.9-1.3.6-2.9 1-4.3.9-.7-.1-1.5-.3-2.2-.5-.3-.1-.8-.1-1-.5-.3-.6-.2-1.9 0-2.5.2-1 .9-1.3 1.5-1.6z"/><path fill="#B4DBF4" d="M57.7 72.1V74s-1.1.5-1.2.7v7.6s1.7 1.1 4.7 1.1c4 .1 4.4-1.5 4.4-1.5v-7.2s-1.1-.4-1.1-.7c0-.4-.2-1.9-.2-1.9s.2.2-.5.4-1.7.4-2.4.3-2.2-.1-2.3-.1c-.1-.1-.9-.3-.9-.3l-.5-.3z" opacity=".51"/><ellipse cx="61" cy="72.3" fill="#B4DBF4" stroke="#0C80AE" stroke-width=".25" opacity=".51" rx="3.3" ry=".5"/><path fill="#FFF" d="M58.4 75.6c-.8-.2-.3 2.4-.3 3 0 1.1 0 2.5-.2 3.5-.7.2-.4-1.4-.4-1.9 0-.8-.1-1.6-.1-2.3 0-.4-.1-.7-.1-1.1 0-.6.1-.7.3-1.2.1-.3.1-.9.5-.9.3 0 .7.8.3.9m6.3-.4c-.5-.3-1 .7-.3.9.7.2.7-1.1 0-.9m.6 2.9c0-.3-.2-1.1-.6-.9-.3.2-.1 1.1-.1 1.4v2.6c0 .4.1 1.1.6.8.4-.2.2-1 .2-1.4 0-.9 0-1.8-.2-2.7M59 75c.9 0 1.8.1 2.7.1.2.9-1 .7-1.4.7s-2 .1-1.3-.8" opacity=".42"/><path fill="#FFF" d="M57.1 81.8c.6.2 1.2.6 1.9.7s1.4.1 2 .1c1.4 0 2.6-.2 3.9-.7-.8 1.2-3.2.5-4.3.5-.7 0-1.5.1-2.2.1-.4 0-.9 0-1.2-.2-.5-.4-.4-.9.2-.7" opacity=".42"/><path fill="#FFF" d="M57.5 82c.6-.1 1.1-.5 1.7-.7.7-.2 1.4-.2 2-.3 1.3-.1 2.4.6 3.6 1l-2.1-1.5c-.7-.6-1.4-.8-2.3-.6-.8.2-1.5.7-2.2.9-.3.1-1 0-1.1.5-.1.6.7.8 1 .7" opacity=".42"/><path fill="#060606" d="M57.9 73.6c1 .8 5.9 1.4 6.6-.1.1.1 0 .5.1.6-1.1 1.7-5.8 1-7-.3l-1 .8v7.6l1 .2s-.5-7-.5-7.3c.1-.3 1.1-.8 1.1-.8" opacity=".04"/><path fill="#F7B164" d="M54 85v1s1.3.8 3.8.7c3.6-.1 3.6-.6 3.6-.6V85s-2 .8-3.7.7c-1.7-.2-3.3-.4-3.3-.4L54 85z"/><ellipse cx="57.7" cy="84.8" fill="#F6D166" rx="3.8" ry=".8"/><path fill="#5A3212" stroke="#5A3212" d="M54.9 84.8c0-.3 1.4-.5 3.2-.5 1.1 0 2.1.1 2.6.2-.5-.2-1.6-.4-2.9-.4-1.7 0-3.2.3-3.2.6s1.4.6 3.2.6h.1c-1.6.1-3-.2-3-.5z" opacity=".4"/><path fill="#5A3212" stroke="#5A3212" d="M60.9 85.2v1.1l.5-.1V85l-.5.2zM54 85v1s1 .5 1.5.5c.4.1 2.1.2 2.2.2h.6s.2-.2.1-.4v-.6s-2.2-.1-2.3-.1c-.2 0-1.6-.2-1.6-.2L54 85z" opacity=".11"/><path fill="#FFF" d="M59.1 85.8c0 .2.1.1.1.2v.3c0 .1 0 .1.1.2h.3c.1-.1-.1-.4-.2-.6-.1-.1 0-.2-.1-.2 0-.1-.2 0-.2.1" opacity=".42"/><path fill="#FFF" d="M70 74.7v1.9s-1.1.5-1.2.7v7.6s1.7 1.1 4.7 1.1c4 .1 4.4-1.5 4.4-1.5v-7.2s-1.1-.4-1.1-.7c0-.4-.2-1.9-.2-1.9s.2.2-.5.4-1.7.4-2.4.3c-.7-.1-2.2-.1-2.3-.1-.1-.1-.9-.3-.9-.3l-.5-.3z"/><path fill="#C55928" d="M70.7 80.9c.3-.1.5 0 .8-.1s.5-.5.7-.8c.6.3 1.4.5 2 .4.4-.1.6-.3 1.1 0 .2.1.1.3.4.4.2.1.5 0 .6 0 .4.1.7.4 1 .8.4.5.3.7.2 1.3-.1.5 0 .8 0 1.3 0 .7-.3.6-.8.9-1.3.6-2.9 1-4.3.9-.7-.1-1.5-.3-2.2-.5-.3-.1-.8-.1-1-.5-.3-.6-.2-1.9 0-2.5.3-1 1-1.3 1.5-1.6z"/><path fill="#B4DBF4" d="M70.1 74.7v1.9s-1.1.5-1.2.7v7.6s1.7 1.1 4.7 1.1c4 .1 4.4-1.5 4.4-1.5v-7.2s-1.1-.4-1.1-.7c0-.4-.2-1.9-.2-1.9s.2.2-.5.4-1.7.4-2.4.3c-.7-.1-2.2-.1-2.3-.1-.1-.1-.9-.3-.9-.3l-.5-.3z" opacity=".51"/><ellipse cx="73.4" cy="75" fill="#B4DBF4" stroke="#0C80AE" stroke-width=".25" opacity=".51" rx="3.3" ry=".5"/><path fill="#FFF" d="M70.7 78.3c-.8-.2-.3 2.4-.3 3 0 1.1 0 2.5-.2 3.5-.7.2-.4-1.4-.4-1.9 0-.8-.1-1.6-.1-2.3 0-.4-.1-.7-.1-1.1 0-.6.1-.7.3-1.2.1-.3.1-.9.5-.9.3 0 .7.8.3.9m6.4-.4c-.5-.3-1 .7-.3.9.7.2.7-1.1 0-.9m.5 2.8c0-.3-.2-1.1-.6-.9-.3.2-.1 1.1-.1 1.4v2.6c0 .4.1 1.1.6.8.4-.2.2-1 .2-1.4 0-.9 0-1.8-.2-2.7m-5.9-2.9c.9 0 1.8.1 2.7.1.2.9-1 .7-1.4.7-.4.1-1.9.2-1.3-.8" opacity=".42"/><path fill="#FFF" d="M69.5 84.5c.6.2 1.2.6 1.9.7.7.1 1.4.1 2 .1 1.4 0 2.6-.2 3.9-.7-.8 1.2-3.2.5-4.3.5-.7 0-1.5.1-2.2.1-.4 0-.9 0-1.2-.2-.5-.4-.4-.9.2-.7" opacity=".42"/><path fill="#FFF" d="M69.9 84.6c.6-.1 1.1-.5 1.7-.7.7-.2 1.4-.2 2-.3 1.3-.1 2.4.6 3.6 1l-2.1-1.5c-.7-.6-1.4-.8-2.3-.6-.8.2-1.5.7-2.2.9-.3.1-1 0-1.1.5-.1.6.7.8 1 .7" opacity=".42"/><path fill="#060606" d="M70.2 76.3c1 .8 5.9 1.4 6.6-.1.1.1 0 .5.1.6-1.1 1.7-5.8 1-7-.3l-1 .8V85l1 .2s-.5-7-.5-7.3c.1-.3 1.1-.8 1.1-.8" opacity=".04"/><path fill="#FFF" d="M81.2 74.1V76s-1.1.5-1.2.7v7.6s1.7 1.1 4.7 1.1c4 .1 4.4-1.5 4.4-1.5v-7.2S88 76.3 88 76c0-.4-.2-1.9-.2-1.9s.2.2-.5.4-1.7.4-2.4.3c-.7-.1-2.2-.1-2.3-.1-.1-.1-.9-.3-.9-.3l-.5-.3z"/><path fill="#BE8042" d="M81.9 80.3c.3-.1.5 0 .8-.1s.5-.5.7-.8c.6.3 1.4.5 2 .4.4-.1.6-.3 1.1 0 .2.1.1.3.4.4.2.1.5 0 .6 0 .4.1.7.4 1 .8.4.5.3.7.2 1.3-.1.5 0 .8 0 1.3 0 .7-.3.6-.8.9-1.3.6-2.9 1-4.3.9-.7-.1-1.5-.3-2.2-.5-.3-.1-.8-.1-1-.5-.3-.6-.2-1.9 0-2.5.3-1 1-1.3 1.5-1.6z"/><path fill="#B4DBF4" d="M81.3 74.1V76s-1.1.5-1.2.7v7.6s1.7 1.1 4.7 1.1c4 .1 4.4-1.5 4.4-1.5v-7.2s-1.1-.4-1.1-.7c0-.4-.2-1.9-.2-1.9s.2.2-.5.4-1.7.4-2.4.3c-.7-.1-2.2-.1-2.3-.1-.1-.1-.9-.3-.9-.3l-.5-.3z" opacity=".51"/><ellipse cx="84.6" cy="74.4" fill="#B4DBF4" stroke="#0C80AE" stroke-width=".25" opacity=".51" rx="3.3" ry=".5"/><path fill="#FFF" d="M81.9 77.7c-.8-.2-.3 2.4-.3 3 0 1.1 0 2.5-.2 3.5-.7.2-.4-1.4-.4-1.9 0-.8-.1-1.6-.1-2.3 0-.4-.1-.7-.1-1.1 0-.6.1-.7.3-1.2.1-.3.1-.9.5-.9.3 0 .7.8.3.9m6.4-.4c-.5-.3-1 .7-.3.9.7.2.7-1.1 0-.9m.5 2.8c0-.3-.2-1.1-.6-.9-.3.2-.1 1.1-.1 1.4v2.6c0 .4.1 1.1.6.8.4-.2.2-1 .2-1.4 0-.9 0-1.8-.2-2.7M82.5 77c.9 0 1.8.1 2.7.1.2.9-1 .7-1.4.7-.4.1-1.9.2-1.3-.8" opacity=".42"/><path fill="#FFF" d="M80.7 83.9c.6.2 1.2.6 1.9.7.7.1 1.4.1 2 .1 1.4 0 2.6-.2 3.9-.7-.8 1.2-3.2.5-4.3.5-.7 0-1.5.1-2.2.1-.4 0-.9 0-1.2-.2-.5-.4-.4-.9.2-.7" opacity=".42"/><path fill="#FFF" d="M81.1 84c.6-.1 1.1-.5 1.7-.7.7-.2 1.4-.2 2-.3 1.3-.1 2.4.6 3.6 1l-2.1-1.5c-.7-.6-1.4-.8-2.3-.6-.8.2-1.5.7-2.2.9-.3.1-1 0-1.1.5-.1.6.7.8 1 .7" opacity=".42"/><path fill="#060606" d="M81.4 75.7c1 .8 5.9 1.4 6.6-.1.1.1 0 .5.1.6-1.1 1.7-5.8 1-7-.3l-1 .8v7.6l1 .2s-.5-7-.5-7.3c.1-.3 1.1-.8 1.1-.8" opacity=".04"/><path fill="#F7B164" d="M73 71.1v1s1.2.8 3.8.7c3.6-.1 3.6-.6 3.6-.6V71s-2 .8-3.7.7c-1.7-.2-3.2-.4-3.2-.4l-.5-.2z"/><ellipse cx="76.6" cy="70.9" fill="#F6D166" rx="3.8" ry=".8"/><path fill="#5A3212" stroke="#5A3212" stroke-width=".25" d="M73.9 70.9c0-.3 1.4-.5 3.1-.5 1.1 0 2.1.1 2.6.2-.5-.2-1.6-.4-2.9-.4-1.7 0-3.1.3-3.1.6s1.4.6 3.1.6h.1c-1.6.1-2.9-.2-2.9-.5z" opacity=".4"/><path fill="#5A3212" stroke="#5A3212" stroke-width=".25" d="M79.8 71.4v1l.5-.1v-1.2l-.5.3zm-6.8-.3v1s1 .5 1.5.5c.4.1 2.1.2 2.2.2h.6s.2-.2.1-.4v-.6s-2.1-.1-2.3-.1c-.2 0-1.6-.2-1.6-.2l-.5-.4z" opacity=".11"/><path fill="#FFF" d="M78 71.9c0 .2.1.1.1.2v.3c0 .1 0 .1.1.2h.3c.1-.1-.1-.4-.2-.6-.1-.1 0-.2-.1-.2 0 0-.2 0-.2.1" opacity=".42"/><path fill="#AC7F4E" d="M90.7 74.7l19.7 8.3v1.5l-19.7-8.3v-1.5z"/><path fill="#D8AF7B" stroke="#D8AF7B" stroke-width=".25" d="M90.7 74.7l3.9-1.8 20.6 7.6-4.8 2.7-19.7-8.5z"/><path fill="#B68754" d="M90.7 70.5v.7s19.4 8.6 19.6 8.6 0-1 0-1l-19.6-8.3z"/><path fill="#B68754" d="M115.2 76.2v1.1l-4.9 2.5v-1l4.9-2.6z"/><path fill="#D8AF7B" stroke="#D8AF7B" stroke-width=".25" d="M90.7 70.4l4.5-1.9 20 7.7-4.9 2.6-19.6-8.4z"/><path fill="#AC7F4E" d="M91.8 71.7l.3 3.4h.5l-.3-3.4h-.5zm23.4 8.8v1.1l-4.8 2.9v-1.3l4.8-2.7z"/><path fill="#B4DBF4" d="M94 63.3v6.9s1.1.8 2.2.6c1.1-.2 1.9-.4 1.9-.4v-7.2H94v.1z" opacity=".51"/><path fill="#F6901E" stroke="#F6901E" d="M94 64.7h4v-1.1c0-.6-4.1-.4-4.1 0 .1.4.1 1.1.1 1.1z"/><path fill="#B4DBF4" d="M94 72.7v2.5s1.3 1 2.4.7 1.7-.7 1.7-.7v-.9L94 72.7z" opacity=".51"/><ellipse cx="100.8" cy="72.2" fill="#956A40" rx="2.2" ry=".7"/><path fill="#FFF" d="M99 72.5c0-.2 1-.4 2.2-.4.7 0 1.4.1 1.8.1v-.1c0-.4-1-.7-2.2-.7s-2.2.3-2.2.7c0 .2.2.4.4.4 0 .1 0 0 0 0z" opacity=".11"/><path fill="#AC7F4E" d="M113.3 78.2v2.3h.4V78l-.4.2z"/><path fill="#3FA8DF" d="M94.7 66.3h2.9v4.2s-.7.2-1.1.3c-1.3.1-.7 0-1.8-.3v-4.2zm-.1 6.7s0 .3.1 2.3l1 .4 1.6-.6-.1-1.2-2.6-.9z"/><circle cx="95.9" cy="67.1" r=".3" fill="#65C7C9" opacity=".5"/><path fill="#F5EB43" d="M96 66.8s-.2.1-.2.2v.3l-.2-.3c.1-.1.3-.2.4-.2zm.1.3c0 .1 0 0 0 0" opacity=".52"/><path fill="#65C7C9" d="M96.3 67.8c0-.2.1-.4.2-.4.2 0 .3.1.3.3 0 .2-.1.4-.2.4-.2.1-.3-.1-.3-.3z" opacity=".5"/><path fill="#F5EB43" d="M96.5 68.1s.2-.2.2-.3c0-.1-.1-.3-.1-.3s.2.2.2.3c0 .2-.2.3-.3.3zm-.1-.3c-.1 0-.1 0 0 0 0 .1 0 .1 0 0" opacity=".52"/><path fill="#65C7C9" d="M95.9 68.8c-.1.1-.3 0-.4-.1-.1-.2 0-.4.1-.5s.3 0 .4.1c.1.2 0 .4-.1.5z" opacity=".5"/><path fill="#F5EB43" d="M96 68.5s-.2-.1-.3-.1c-.1 0-.2.2-.2.2s.1-.4.2-.3c.1 0 .3.1.3.1v.1zm-.2.2c0 .1 0 .1 0 0 .1 0 0 0 0 0" opacity=".52"/><ellipse cx="104.7" cy="73.7" fill="#956A40" rx="2.2" ry=".7"/><path fill="#FFF" d="M102.9 74c0-.2 1-.4 2.2-.4.7 0 1.4.1 1.8.1v-.1c0-.4-1-.7-2.2-.7s-2.2.3-2.2.7c.1.2.2.3.4.4z" opacity=".11"/><ellipse cx="109.1" cy="75.6" fill="#956A40" rx="2.2" ry=".7"/><path fill="#FFF" d="M107.3 75.9c0-.2 1-.4 2.2-.4.7 0 1.4.1 1.8.1v-.1c0-.4-1-.7-2.2-.7s-2.2.3-2.2.7c0 .2.2.4.4.4 0 .1 0 0 0 0z" opacity=".11"/><ellipse cx="100.3" cy="77.1" fill="#956A40" rx="2.2" ry=".7"/><path fill="#FFF" d="M98.5 77.4c0-.2 1-.4 2.2-.4.7 0 1.4.1 1.8.1V77c0-.4-1-.7-2.2-.7s-2.2.3-2.2.7c.1.2.2.3.4.4z" opacity=".11"/><ellipse cx="104.2" cy="78.7" fill="#956A40" rx="2.2" ry=".7"/><path fill="#FFF" d="M102.4 79c0-.2 1-.4 2.2-.4.7 0 1.4.1 1.8.1v-.1c0-.4-1-.7-2.2-.7s-2.2.3-2.2.7c.1.2.2.4.4.4z" opacity=".11"/><ellipse cx="108.2" cy="80.3" fill="#956A40" rx="2.2" ry=".7"/><path fill="#FFF" d="M106.3 80.6c0-.2 1-.4 2.2-.4.7 0 1.4.1 1.8.1v-.1c0-.4-1-.7-2.2-.7s-2.2.3-2.2.7c.1.2.2.4.4.4.1.1 0 0 0 0z" opacity=".11"/><path fill="#AC7F4E" d="M109.5 79.3v3.2h.4v-3l-.4-.2z"/><circle cx="96.4" cy="69.2" r=".3" fill="#65C7C9" opacity=".5"/><path fill="#F5EB43" d="M96.5 68.8s-.2.1-.2.2v.3l-.2-.3c.1 0 .3-.2.4-.2zm.1.4c0-.1 0-.1 0 0" opacity=".52"/><path fill="#65C7C9" d="M96.8 69.9c0-.2.1-.4.2-.4.2 0 .3.1.3.3 0 .2-.1.4-.2.4s-.3-.1-.3-.3z" opacity=".5"/><path fill="#F5EB43" d="M97 70.2s.2-.2.2-.3c0-.1-.1-.3-.1-.3s.2.2.2.3c0 .1-.2.3-.3.3zm-.1-.3s0-.1 0 0c-.1-.1-.1 0 0 0" opacity=".52"/><path fill="#65C7C9" d="M95.7 70.2c-.1.1-.3 0-.4-.1-.1-.2 0-.4.1-.5s.3 0 .4.1c.1.2 0 .4-.1.5z" opacity=".5"/><path fill="#F5EB43" d="M95.8 69.9s-.2-.1-.3-.1c-.1 0-.2.2-.2.2s.1-.4.2-.3c.1 0 .3.1.3.1v.1zm-.2.2c0 .1 0 .1 0 0 .1 0 0 0 0 0" opacity=".52"/><circle cx="95.2" cy="73.6" r=".3" fill="#65C7C9" opacity=".5"/><path fill="#F5EB43" d="M95.2 73.3s-.2.1-.2.2v.3l-.2-.3.4-.2zm.1.3c0 .1 0 .1 0 0 .1.1.1.1 0 0" opacity=".52"/><path fill="#65C7C9" d="M95.5 74.4c0-.2.1-.4.2-.4.2 0 .3.1.3.3 0 .2-.1.4-.2.4s-.2-.1-.3-.3z" opacity=".5"/><path fill="#F5EB43" d="M95.7 74.7s.2-.2.2-.3c0-.1-.1-.3-.1-.3s.2.2.2.3c0 .1-.2.3-.3.3zm-.1-.3s0-.1 0 0c0-.1 0 0 0 0" opacity=".52"/><path fill="#65C7C9" d="M95.1 75.3c-.1.1-.3 0-.4-.1-.1-.2 0-.4.1-.5s.3 0 .4.1c.1.2.1.4-.1.5z" opacity=".5"/><path fill="#F5EB43" d="M95.3 75s-.2-.1-.3-.1c-.1 0-.2.2-.2.2s.1-.4.2-.3c.1 0 .3.1.3.1v.1zm-.2.2c0 .1-.1 0 0 0-.1.1 0 .1 0 0" opacity=".52"/><circle cx="95.7" cy="75.7" r=".3" fill="#65C7C9" opacity=".5"/><path fill="#F5EB43" d="M95.8 75.4s-.2.1-.2.2v.3l-.2-.3c.1-.1.3-.2.4-.2zm0 .3c.1 0 0 0 0 0 .1.1.1 0 0 0" opacity=".52"/><path fill="#65C7C9" d="M96.4 74.7c0-.2.1-.4.2-.4.2 0 .3.1.3.3 0 .2-.1.4-.2.4s-.3-.1-.3-.3z" opacity=".5"/><path fill="#F5EB43" d="M96.6 75s.2-.2.2-.3c0-.1-.1-.3-.1-.3s.2.2.2.3c0 .1-.2.3-.3.3zm-.1-.3s0-.1 0 0c0-.1 0 0 0 0" opacity=".52"/><path fill="#65C7C9" d="M96.6 70.6c-.1.1-.3 0-.4-.1-.1-.2 0-.4.1-.5s.3 0 .4.1c0 .2 0 .4-.1.5z" opacity=".5"/><path fill="#F5EB43" d="M96.7 70.2s-.2-.1-.3-.1c-.1 0-.2.2-.2.2s.1-.4.2-.3c.1 0 .3.1.3.1v.1z" opacity=".52"/><path fill="#B4DBF4" d="M98.3 65.4v6.9s1.1.8 2.2.6c1.1-.2 1.9-.4 1.9-.4v-7.2l-4.1.1zm0 9.1V77s1.3 1 2.4.7 1.7-.7 1.7-.7v-.9l-4.1-1.6z" opacity=".51"/><path fill="#4B4C9F" d="M99 68.4h2.9v4.2s-.7.2-1.1.3c-1.3.1-.7 0-1.8-.3v-4.2z"/><circle cx="100.2" cy="69.2" r=".3" fill="#65C7C9" opacity=".5"/><path fill="#F5EB43" d="M100.3 68.9s-.2.1-.2.2v.3l-.2-.3c.1-.1.3-.2.4-.2zm.1.3c0 .1-.1.1 0 0 0 .1 0 .1 0 0" opacity=".52"/><path fill="#65C7C9" d="M100.6 70c0-.2.1-.4.2-.4.2 0 .3.1.3.3 0 .2-.1.4-.2.4-.2 0-.3-.1-.3-.3z" opacity=".5"/><path fill="#F5EB43" d="M100.8 70.3s.2-.2.2-.3c0-.1-.1-.3-.1-.3s.2.2.2.3c-.1.1-.2.3-.3.3zm-.1-.3c-.1 0 0-.1 0 0-.1-.1-.1 0 0 0" opacity=".52"/><path fill="#65C7C9" d="M100.2 70.9c-.1.1-.3 0-.4-.1-.1-.2 0-.4.1-.5s.3 0 .4.1c0 .2 0 .5-.1.5z" opacity=".5"/><path fill="#F5EB43" d="M100.3 70.6s-.2-.1-.3-.1c-.1 0-.2.2-.2.2s.1-.4.2-.3c.1 0 .3.1.3.1v.1zm-.2.2c0 .1 0 0 0 0 0 .1 0 .1 0 0" opacity=".52"/><circle cx="100.7" cy="71.3" r=".3" fill="#65C7C9" opacity=".5"/><path fill="#F5EB43" d="M100.8 71s-.2.1-.2.2v.3l-.2-.3c.1-.1.3-.2.4-.2zm.1.3c0 .1 0 0 0 0" opacity=".52"/><path fill="#65C7C9" d="M101.1 72c0-.2.1-.4.2-.4.2 0 .3.1.3.3 0 .2-.1.4-.2.4-.2.1-.3-.1-.3-.3z" opacity=".5"/><path fill="#F5EB43" d="M101.3 72.3s.2-.2.2-.3c0-.1-.1-.3-.1-.3s.2.2.2.3c-.1.2-.2.3-.3.3zm-.1-.3c-.1 0-.1 0 0 0 0 .1 0 .1 0 0" opacity=".52"/><path fill="#65C7C9" d="M100 72.4c-.1.1-.3 0-.4-.1-.1-.2 0-.4.1-.5s.3 0 .4.1c.1.2 0 .4-.1.5z" opacity=".5"/><path fill="#F5EB43" d="M100.1 72s-.2-.1-.3-.1c-.1 0-.2.2-.2.2s.1-.4.2-.3c.1 0 .3.1.3.1v.1z" opacity=".52"/><circle cx="99.4" cy="75.8" r=".3" fill="#65C7C9" opacity=".5"/><path fill="#F5EB43" d="M99.5 75.5s-.2.1-.2.2v.3l-.2-.3c.2-.1.3-.3.4-.2zm.1.3s.1 0 0 0" opacity=".52"/><path fill="#65C7C9" d="M99.8 76.5c0-.2.1-.4.2-.4.2 0 .3.1.3.3 0 .2-.1.4-.2.4-.1.1-.3-.1-.3-.3z" opacity=".5"/><path fill="#F5EB43" d="M100 76.8s.2-.2.2-.3c0-.1-.1-.3-.1-.3s.2.2.2.3c0 .2-.2.3-.3.3zm-.1-.3c0 .1 0 0 0 0" opacity=".52"/><path fill="#65C7C9" d="M99.4 77.5c-.1.1-.3 0-.4-.1-.1-.2 0-.4.1-.5s.3 0 .4.1c.1.2 0 .4-.1.5z" opacity=".5"/><path fill="#F5EB43" d="M99.5 77.1s-.2-.1-.3-.1c-.1 0-.2.2-.2.2s.1-.4.2-.3c.1 0 .3.1.3.1v.1zm-.1.3c-.1 0-.1 0 0 0-.1 0 0 0 0 0" opacity=".52"/><path fill="#65C7C9" d="M100.7 76.8c0-.2.1-.4.2-.4.2 0 .3.1.3.3 0 .2-.1.4-.2.4-.1.1-.3-.1-.3-.3z" opacity=".5"/><path fill="#F5EB43" d="M100.9 77.1s.2-.2.2-.3c0-.1-.1-.3-.1-.3s.2.2.2.3c0 .2-.2.3-.3.3zm-.1-.3s-.1 0 0 0c0 .1 0 0 0 0" opacity=".52"/><path fill="#65C7C9" d="M100.8 72.7c-.1.1-.3 0-.4-.1-.1-.2 0-.4.1-.5s.3 0 .4.1c.1.2.1.4-.1.5z" opacity=".5"/><path fill="#F5EB43" d="M101 72.4s-.2-.1-.3-.1c-.1 0-.2.2-.2.2s.1-.4.2-.3c.1 0 .3.1.3.1v.1zm-.2.2s-.1 0 0 0c0 .1 0 .1 0 0" opacity=".52"/><path fill="#F6901E" stroke="#F6901E" d="M98.4 65.9h4v-1.1c0-.6-4.1-.4-4.1 0s.1 1.1.1 1.1z"/><path fill="#4B4C9F" d="M99.3 75.1s0 .3.1 2.3l1 .4 1.6-.6-.1-1.2-2.6-.9z"/><path fill="#B4DBF4" d="M102.6 66.9v6.9s1.1.8 2.2.6c1.1-.2 1.9-.4 1.9-.4v-7.2l-4.1.1zm-.1 9.5v2.5s.3.4 1.7.5c1.1 0 2.1-.5 2.1-.5V78l-3.8-1.6z" opacity=".51"/><path fill="#65C7C9" d="M104.6 78.2c0-.2.1-.4.2-.4.2 0 .3.1.3.3 0 .2-.1.4-.2.4s-.2-.2-.3-.3z" opacity=".5"/><path fill="#F5EB43" d="M104.9 78.4s.2-.2.2-.3c0-.1-.1-.3-.1-.3s.2.2.2.3c-.1.2-.3.4-.3.3zm-.2-.3c0 .1 0 .1 0 0" opacity=".52"/><ellipse cx="104.7" cy="67.2" fill="#B4DBF4" stroke="#0096D2" stroke-width=".25" opacity=".51" rx="2" ry=".5"/><path fill="#F6901E" stroke="#F6901E" d="M102.7 67.6h4v-1.1c0-.6-4.1-.4-4.1 0s.1 1.1.1 1.1z"/><path fill="#FFF" stroke="#D1D1D1" stroke-width=".5" d="M118.3 76.6l8 2.6 4.6 2.9v3.3l-12.6-7.6v-1.2z"/><path fill="#F4F4F4" stroke="#F4F4F4" d="M120.8 74l-2.5 2.6 7.5 2.4-5-5z"/><path fill="#F6F7F7" stroke="#D1D1D1" stroke-width=".5" d="M138.9 77l.3 3-8.3 5.4v-3.3l8-5.1z"/><path fill="#FFF" stroke="#FFF" stroke-width=".5" d="M120.8 74l.7-.3 11.6 1 5.8 2.3-8 5.1-5.1-3.1-5-5z"/><path fill="#FFF" stroke="#D1D1D1" stroke-width=".5" d="M127.7 53.9l-7.6 1.1v7.1l.7 5.1.8 6.8 3.8 1.9v-9l-.1-8.6 3.7-1.4v-.7l-.8.2.2-2.1.1-.4h-.8z"/><path fill="#49494A" stroke="#49494A" d="M123.9 43.4s-.2-.5.5-1.1c1-.8 1-.4 1-.4s.7.6.7.8c.1.2.1.8.1.8s-.5.1-.8.5c-.3.3-.7 1-.7 1s-.5-.5-.6-.7c0-.3-.2-.9-.2-.9z"/><path fill="#C1D8E8" d="M130.1 49.3l-3.8-5.8s-.5.1-.8.5-.6.9-.6.9l3.3 5.4h.2v-.4l1.1-.3.7-.1-.1-.2z"/><path fill="#E5E5E4" stroke="#FFF" d="M128.3 52.9s2 .6 3.3.5 2.1-.4 2.1-.4v-2.3s.4.7-1 .7-2.6-.5-3-.8c-.4-.2-1.4-.8-1.4-.8v3.1z"/><path fill="#FFF" stroke="#FFF" d="M132.2 49.1s1.1.8 1.3 1.2c.1.4.5.9.1 1s-1.8.2-2.8-.2-2-1.1-2.2-1.2l-.2-.1 3.8-.7z"/><path fill="#090405" d="M128.5 52.9v1.3s1.2.5 3 .4 2.1-.3 2.1-.3V53s-1.8.4-2.5.4c-.8-.1-2.6-.5-2.6-.5z"/><path fill="#090405" stroke="#090405" d="M124.3 44.3s.4-.8.8-1c.4-.3 1.1-.4 1.1-.4l-.4-.5s-.5 0-.9.5c-.4.4-.9 1-.9 1l.1.3.2.1z"/><path fill="#090405" d="M123.9 43.4l.1.2s.4-.8.7-1c.3-.2 1-.5 1-.5l-.2-.2s-.6.3-1 .6-.6.9-.6.9z"/><path fill="#353535" stroke="#060303" d="M135.2 54.3v.5l-3 .8c-1.5.4-3.2 1.3-3.2 1.3v-.7s1.8-.7 3-1.2 2.2-.7 2.2-.7h1z"/><path fill="#BFBEBE" stroke="#BFBEBE" d="M129.2 57.4l-.2-.5s2-1 3.1-1.3 2.8-.7 2.9-.8h.2v.6s-1.6.4-2.7.7c-1.1.3-2.8 1-2.9 1.1-.1 0-.4.2-.4.2z"/><path fill="#3F4040" stroke="#060303" d="M130.9 57.6s-1.1.1-1.3 0l-.4-.2s2.1-.9 2.9-1.2c.8-.3 2-.6 2.4-.6l.8-.2v.4s-1.3 1-1.5 1.1l-.4.2-2.5.5z"/><path fill="#C1D8E8" d="M130.2 58.4v.9h.3v.1h.9v-1h-1.2z"/><path fill="#060303" stroke="#060303" d="M130.1 57.6l-.1.8h1.2v-.9l-.6.1h-.5z"/><path fill="#C1D8E8" d="M134.7 58.3l1.3 2h.4c.1-.2.2-.2.4-.5s.3-.7.3-.7l-1.2-2-.6.6c-.4.3-.6.6-.6.6z"/><path fill="#060303" stroke="#060303" d="M134.1 57.6s0 .1.1.3c.1.3.4.3.4.3l1.2-1.1s.1-.4 0-.5-.4-.3-.4-.3l-.7.7c-.2.3-.6.6-.6.6z"/><path fill="#060303" stroke="#060303" d="M133.7 56.8s0 .4.1.6c.1.2.3.3.3.3s1.3-1.2 1.4-1.2c0 0 .2-.4 0-.5-.1-.1-.4-.3-.4-.3l-1.4 1.1zm-2.9.6l.2.4c.2.1.5-.3.8-.4.3-.1.8-.1.9-.1.2.1.5.1.5.1s-.1-.7-.3-.9-.7-.2-1.2 0-.7.2-.8.6l-.1.3z"/><path fill="#C1D8E8" d="M131.8 60.9l.2 1s.4.1.8 0c.3-.1.5-.2.5-.2v-1.1h-.9c-.4 0-.6.3-.6.3z"/><path fill="#060303" stroke="#060303" d="M131.3 58.3l.3 2.4s.5-.5 1-.5h.8l-.2-2s-.6-.1-1 0c-.4 0-.9.1-.9.1z"/><path fill="#060303" stroke="#060303" d="M133.1 57.4v.8s-.4-.1-.8 0c-.4 0-1 .2-1 .2l-.1-.5s.7-.4.9-.4c.3-.2 1-.1 1-.1zm-1.5 3.3l.1.2s.6-.3.8-.3h.8v-.4s-.6-.1-.9 0c-.2 0-.8.5-.8.5z"/><path fill="#CCCBCB" stroke="#CCCBCB" d="M123.1 61.6l-.1-2.8 1.9-.7v4.2l-1.8-.7z"/><path fill="#C8C8C8" stroke="#C8C8C8" d="M122.8 58.6l.2.1.1 2.8h-.2l-.1-2.9z"/><path fill="#E5E5E4" stroke="#FFF" d="M122.8 63.3v.3l1.2.5.3-.4-1.2-.4v-.2l-.3.2z"/><path fill="#060303" stroke="#060303" d="M125.8 62.8v.3l-.9.2v-.7h.9v.2z"/><path fill="#575757" stroke="#575757" d="M139.3 64.5l-7.5 3.1-8.7-3.2 1.1-.3 6.8-2.4 8.3 2.8z"/><path fill="#0D0607" stroke="#0D0607" d="M131.8 69.2v-1.6l7.5-3.1-.1 1.6-7.4 3.1zm-8.8-4.8V66l8.8 3.2v-1.6l-8.8-3.2z"/><ellipse cx="123.3" cy="69.1" stroke="#000" rx="1.7" ry="2.7"/><ellipse cx="123" cy="69.4" fill="#282827" stroke="#282827" rx="1.7" ry="2.7"/><path fill="#3D3D3D" stroke="#3D3D3D" d="M124.6 69.2c0 1.5-.4 2.7-2.1 2.9-.9.1-1.7-1.2-1.7-2.7s.8-2.7 1.7-2.7c.9-.1 2.1 1 2.1 2.5z"/><ellipse cx="124.1" cy="73.6" fill="#49494A" stroke="#49494A" opacity=".76" rx=".3" ry=".4"/><path fill="#49494A" stroke="#49494A" d="M125 67v.8s.4.5 1 .5h.6v-.6s-.6-.2-1-.4l-.6-.3zm2.7.8l-1 .6v-.6s.1-.1.3-.2c.1-.1.4 0 .4 0l.3.2z" opacity=".11"/><path fill="#CCCBCB" stroke="#CCCBCB" d="M125 66.8v.2s1.6.8 1.7.8c.1-.1.4-.3.4-.3l-2.1-.7z"/><path fill="#E5E5E4" stroke="#E5E5E4" d="M126.2 68.3v7.9l-.7-.3-.1-7.9s.1.1.3.1c0 .1.5.2.5.2zm2.8-.1V75l-2.8 1.2v-7.9l1.5-.5h.3l1 .4z"/><path fill="#49494A" stroke="#49494A" d="M128.3 73l-1.1.4-.1-5.3 1.2-.2V73z" opacity=".11"/><circle cx="127.7" cy="74.5" r=".3" fill="#49494A" stroke="#49494A" opacity=".76"/><path fill="#C1D8E8" d="M128.7 69.2v2s.5.8 2.3.8 2.2-.5 2.3-.6.1-2.1.1-2.1l-4.7-.1z"/><path fill="#060303" stroke="#060303" d="M129 68.2v1.2s.6.7 2 .7c1.4.1 1.8-.5 1.8-.5l.1-.8-1.1.5-2.8-1.1z"/><path fill="#3F4040" stroke="#060303" d="M128.7 69.7s1.1.9 2.5.8 2.1-.8 2.1-.8v-.5h-.4s.1.5-.4.6c-.5.2-1.2.3-1.7.2-.5-.1-1.5-.5-1.6-.5l-.2-.2-.2-.2h-.1v.6z"/><path fill="#0D0607" stroke="#0D0607" d="M131.4 71.2v.2s1 0 1.3-.1c.3-.2.5-.3.5-.3v-.5s-.5.6-.9.6c-.3.1-.9.1-.9.1z"/><path fill="#3F4040" stroke="#060303" d="M133 73.1l-.1 4.5s-1.2.8-2.1.7c-.9-.1-1.8-.7-1.8-.7v-4.5h4z"/><path fill="#2D2D2D" stroke="#2D2D2D" d="M128.9 76.7v1s.5.6 2.1.7c1.6 0 1.9-.6 2-.6.1-.1 0-.9 0-.9s0 .4-.4.5c-.4.2-1.2.4-1.8.4-.6-.1-1.6-.4-1.6-.5 0-.2-.3-.6-.3-.6z"/><path fill="#3F4040" stroke="#060303" d="M129.2 79.9v-1.5s.5.3.9.2c.4-.1.7-.2.7-.2v1.5s-.4.1-.8.1-.8-.1-.8-.1z"/><path fill="#060303" stroke="#060303" d="M129 79.8v.5s.8.2 1.1.2c.7 0 .9-.4.9-.4v-.5s-.8.3-1 .3c-.2.1-1-.1-1-.1z"/><path fill="#49494A" stroke="#49494A" d="M124.9 44.8l3.4 5.4.1-.6-3.3-5.2-.2.4z" opacity=".11"/><path fill="#FFF" d="M124.9 44.2l3.5 5.7.4-.2-3.7-6-.2.5z" opacity=".27"/><path fill="#49494A" stroke="#49494A" d="M130 49.3l-3.7-5.9-.4.2 3.8 5.9.3-.2z" opacity=".06"/><path fill="#FFF" d="M125.8 43.7l3.5 5.7.4-.1-3.6-6-.3.4z" opacity=".27"/><path fill="#49494A" stroke="#49494A" d="M128.4 49.9l2.3 1.2.9.5s.5 1.8-.1 1.8c-.5 0-2.6-.3-2.6-.3l-.5-.1" opacity=".11"/><path fill="#F4F4F4" stroke="#F4F4F4" d="M128.5 54.2l-.3 1.1v1s1.2-.3 1.7-.5 2.2-.9 2.2-.9l.9-.5-1.5.2-2-.2-1-.2z"/><path fill="#D8D8D7" stroke="#D8D8D7" d="M122.9 61.5h.2l1.8.6-2 .7v-1.3z"/><path fill="#E5E5E4" stroke="#E5E5E4" d="M122.7 58.4l-.4.3.2 4.6 2.8-1v-4l-.4-.3v4.1l-2 .7-.1-4.2-.1-.2z"/><path fill="#E5E5E4" stroke="#E5E5E4" d="M122.7 58.4l6.3-2.2v.7l-3.7 1.4-.1-.3h-.3l-2.2.9v-.5z"/><ellipse cx="131.1" cy="63.8" fill="#C1D8E8" rx="4.8" ry="1.9"/><ellipse cx="131" cy="63.6" fill="#49494A" stroke="#49494A" opacity=".11" rx="4.4" ry="1.7"/><ellipse cx="131.1" cy="63.7" fill="#575757" stroke="#575757" rx="1" ry=".4"/><path fill="#0D0607" stroke="#0D0607" d="M130.1 61.5l-.1.4h.8l-.1-.4h.3V61l-1.3.1v.4h.4z"/><path fill="#C1D8E8" d="M127.5 63.6l1.5.8h.4v-.3l-1.7-.8h-.2v.3zm3.8-1.5l1.7 1.2.3-.2v-.3l-1.7-.9-.3.2z"/><path fill="#0D0607" stroke="#0D0607" d="M125.1 63.3h.6v.4h-.6v-.4z"/><path fill="#060303" stroke="#060303" d="M132.3 65.2v.6h.6v-.7l-.6.1zm-5.3-1.7v.3h.3v-.5l-.3.2z"/><path fill="#0D0607" stroke="#0D0607" d="M132.3 66.6v.4l6.1-2.4v-.4l-6.1 2.4zm-8-2.6l-.1.4 8.1 2.6v-.4l-8-2.6z"/><path fill="#FFF" stroke="#FFF" d="M135 55.9l.2.7.3.5 1.4 2.5.1-.3-1.1-2.2-.4-.7-.3-.9-.2.4zm-3.4 1.7l.2 1 .2 1.9.3 1.4.3-.2-.2-1.1-.2-1.2-.1-1-.2-1-.3.2z" opacity=".32"/><path fill="#49494A" stroke="#49494A" d="M130.9 58.6l.1.8h.4l-.1-1.1-.4.3z" opacity=".11"/><ellipse cx="131" cy="73.1" fill="#060303" stroke="#060303" rx="2" ry=".8"/><ellipse cx="131.1" cy="73.3" fill="#0D0607" stroke="#0D0607" rx="1.6" ry=".6"/><ellipse cx="130" cy="78.4" fill="#0D0607" stroke="#0D0607" rx=".8" ry=".2"/><path fill="#494848" stroke="#494848" d="M123.8 69.6c0 1.5-.6 3.2-2.1 2.7-.4-.1-1.4-1.1-1.4-2.7 0-1.5.6-2.8 1.6-2.8s1.9 1.3 1.9 2.8z"/><path fill="#3D3D3D" stroke="#3D3D3D" d="M121.6 68.3s.6.7.6 1.3c0 .6-.1 1.3-.1 1.3l-1.4.4-.3-2.8 1.2-.2z"/><ellipse cx="120.6" cy="69.9" stroke="#000" rx=".8" ry="1.4"/><ellipse cx="194.1" cy="75.3" fill="#5C585C" stroke="#5C585C" rx="4.7" ry="9.6" transform="matrix(.04501 -.999 .999 .04501 110.136 265.815)"/><path fill="#4A4648" stroke="#4A4648" d="M203.1 74.1c0 1.6-4 3.8-8.7 3.9s-9.9-2.3-9.9-3.9c0-1.8 4.6-3.5 9.2-3.6 4.7-.1 9.4 2 9.4 3.6z"/><path fill="#D5D3D5" stroke="#B9B9BA" d="M192.3 79.8l.4 14 1.3.3.5-.4.2-13.7-1.5-.1-.9-.1z"/><path fill="#3F3D3F" stroke="#5C585C" d="M191.7 94.2l.8.9.1 2.6 2.1-.1-.2-2.7.3-.2-.3-1-.5.4-1.3-.3-1 .4z"/><path fill="#D5D3D5" stroke="#B9B9BA" d="M191.8 94.4s-8.5 4.3-8.5 4.5c0 .3-.1 1.6.1 1.6.2.1.8-.1 1.1-.1.2 0 .5-.6.5-.6l7.3-2.4.4-.1-.2-2.3-.7-.6zm3 .5s8.9 4.2 9.4 4.7.5 1.6.5 1.8c0 .2-.5.5-1 .3-.5-.1-8.9-4-8.9-4v-2.8z"/><path fill="#3F3D3F" stroke="#5C585C" d="M183.5 100.8c-.6-.2-.4.7-.2.9.3.3.9.4 1.3.1.4-.3.4-1-.1-1.2-.3-.1-1-.1-1.3 0m19.7.8c-.8.7 1.2 1.9 1.9 1 .1-.1.2-.5.1-.6-.1-.3-.2-.2-.5-.1-.2 0-.5.1-.7 0-.4-.1-.6-.3-.8-.3"/><linearGradient id="k" x1="78.548" x2="100.316" y1="25.889" y2="25.889" gradientUnits="userSpaceOnUse"><stop offset="0" stop-color="#ffedc4"/><stop offset=".456" stop-color="#ffe8b6"/><stop offset="1" stop-color="#ffe1a0"/></linearGradient><path fill="url(#k)" d="M86.1 33.2s3.3 4.3 6.6 4.8c5.1.7 5-1.2 5.7-2.2 1.1-1.4.7-2.6 1-4.5.1-.5-.3-3 .5-4.2.9-1.2-.1-6.3 0-7.8.2-4.7-4.7-5.1-7.7-5.5-3-.4-11.2.6-12.6 4.9-1.4 4.3-1.6 9.3.6 12 2.2 2.6 5.9 2.5 5.9 2.5z"/><path fill="#050506" d="M94 28.6c0 .4-.3.7-.7.7-.4 0-.7-.3-.7-.7 0-.4.3-.7.7-.7.4-.1.7.2.7.7z"/><path fill="none" stroke="#633" stroke-width=".25" d="M95.4 31.4s.3-.7 1-.6c.7.1.9.7.9.7"/><path fill="#050506" d="M98.4 28.8c0 .4-.3.8-.7.8-.4 0-.7-.3-.7-.8 0-.4.3-.8.7-.8.4.1.7.4.7.8z"/><linearGradient id="l" x1="86.912" x2="95.266" y1="39.169" y2="39.169" gradientUnits="userSpaceOnUse"><stop offset="0" stop-color="#ffedc4"/><stop offset=".456" stop-color="#ffe8b6"/><stop offset="1" stop-color="#ffe1a0"/></linearGradient><path fill="url(#l)" d="M86.9 36.4c2.2 1.1 3.6 3.7 3.3 6.2 1.5-1.2 3.1-2.4 4.6-3.6.3-.2.7-.7.4-1-.1-.1-.3-.1-.4-.1-2.4-.2-4.6-.5-6.4-2"/><path fill="none" stroke="#986632" stroke-width=".5" d="M116.8 67.7c-1.9 0-1.6 1.6-.6 2.5m.6-2.5c-1.9 0-1.6 1.6-.6 2.5m.6-2.5c-1.9 0-1.6 1.6-.6 2.5"/><path fill="#633" d="M93.7 17.9c.6 1.4.8 2.9.6 4.4 1.4-.8 1.4-2.7 1.3-4.3.9 1.3 1.4 3 1.3 4.6 1.2-.9 1.6-2.7 1.1-4.1"/><path fill="#633" d="M100.3 17.9c.9 2 2.1 6.6.4 7.9-.5-2.1-1.5-4.1-3.1-5.5s-3.9-2.2-6-1.8c-2 .5-2.2 3.8-3.6 5.4-.7.9-1.2.4-1.6 1.5-.9 2.1.1 4.2 1.2 6.2s.6 3.8 2.8 4.2c-.7 1.6-3.1 1.9-4.6.9-1.5-1-2.3-.7-2.9-2.4.3 3.1-2.7 3.4-5.6 4.6 1.8-1.7 1.9-4.6 1.3-7-.6-2.5-1.7-4.9-1.6-7.4.1-4.1 3.3-7.5 6.8-9.5 4.2-2.3 9.7-3.1 13.5-.3 1.7 1.3 2.1 1.2 3 3.2z"/><path fill="#633" d="M100.3 31.8c-1.4-2-1.3-4.9.2-6.8-1.4 3 .6 7.1 3.8 7.9-1.2 1.1-3.2.2-4-1.1zM93 17c-.8 2-1.1 4.2-.9 6.4-1.1-1.9-1.1-4.4 0-6.3m-6.9 8.6c-.8 3.1 1.2 6.6 4.2 7.5-.3.9-1.6.6-2.4.1-1.9-1.5-3-4-2.6-6.4"/><path fill="#633" d="M99.6 30.4c.5 1.7 1.7 3.3 3.3 4.1-1.7 1-2.9 1.7-3.8-.1"/><path fill="none" stroke="#633" stroke-width=".25" d="M93.6 26.2c-.8-.4-1.8-.3-2.5.3m8.8.5c-.2-.9-.9-1.4-1.7-1.3"/><ellipse cx="95" cy="34.8" fill="#F99" rx=".6" ry=".4"/><ellipse cx="96" cy="34.8" fill="#F99" rx=".6" ry=".4"/><ellipse cx="95.5" cy="35.2" fill="#F99" rx=".6" ry=".4"/><path fill="#D8AF7B" d="M86.9 36.4c2.2 1.1 3.6 3.7 3.3 6.2 1.5-1.2 3.1-2.4 4.6-3.6.3-.2.7-.7.4-1-.1-.1-.3-.1-.4-.1-2.4-.2-4.6-.5-6.4-2" opacity=".44"/><path fill="#050506" d="M92.7 28.4c-.3 0-.6-.1-.7-.3m6 .4c.3-.1.6-.2.7-.5-.2.2-.4.5-.6.7m-4.7-.4c-.4 0-.9-.2-1.1-.6m5.9 1.2c.2-.1.4-.2.5-.4"/></svg>
