<svg xmlns="http://www.w3.org/2000/svg" version="1.0" viewBox="0 0 51.3 112"><switch><g><path fill="#666" d="M0 67.3h35.9v46.3H0z"/><path fill="#333" d="M35.9 67.3c.1-1.6 15.4-6.9 15.4-6.9v41.4l-15.4 11.8V67.3z"/><path fill="#999" d="M51.3 60.4H16L0 67.3h35.9z"/><path fill="#B4A796" d="M17.2 59.9s3.3-.1 4.5-3.4c1.2-3.3 9.8 0 9.8 0s-.3 2.8 5.5 3.4c3.3.4-19.8 0-19.8 0z"/><path fill="#E4D5C2" d="M15.9 8.6s4.6-.9 6.5-1.3c1.8-.3 5.3-1 6-.8.7.2.3 1.6 1.4 2.9s1.4 2.4 2.3 3.9c.9 1.5 1.4 3.1 1 3.6-.3.5.3.6.8 0s.7-.6.7.4.9 1.1 0 1.9c-.9.8-.7 2.6-.7 2.6s.6 0-.6 2.2-3.7 4.5-5.3 5.1c-1.6.6-6.9.3-7.6-.8-.7-1.2-1.2-1.3-1.7-2.1-.6-.8-1-3.2-1.5-4.5-.5-1.3-1.5-2-1.3-3.2s-.4-2.3 0-2.8.1-6.3 0-7.1z"/><path fill="#DAD0BE" d="M38.5 11c-.1-4.2-3.1-8.2-7.2-9.4-2-.6-4.1-.6-6.1-1.1-.7-.2-1.4-.5-2.1-.5-.8 0-1.7.3-2.4.6-2.1.9-4 2.2-5.2 4.1-1.9 2.9-1.6 7.1.7 9.7-.2-1.5-.2-3.1.1-4.6.1-.5.2-1 .6-1.3.3-.2.6-.3 1-.3 3.8-.6 6.9-1.1 10.7-1.7-.2 1.5 1.1 2.9 2 4.2.9 1.3 1.6 3.8 2.2 5.2.3.8.8.3 1.6.8.2-1 .4-2 1.1-2.6.7-.7 2-.8 2.5.1.3.5.2 1 .1 1.6-.6 2.4-1.9 4.6-3.7 6.2-.2 1.7-.3 3.3-.5 5 .5.3 1.2-.3 1.3-.9.1-.6 0-1.2.1-1.9.1-.5.4-1 .4-1.5s-.3-1.1-.1-1.6c.1-.3.3-.5.5-.7.5-.7.8-1.5 1.1-2.3.6-2.3 1.4-4.7 1.3-7.1z"/><path fill="#D0C1AC" d="M19.9 27.5s-.6 5.2-.8 5.5-9.1 5.9-9 6.3-.2 3.1 1.5 3.8c1.7.7 8.1 5.5 8.3 5.9s2.1 2.3 4 2.4 8.3.3 9.1 0c.8-.3 3.9-3.9 5.1-5 1.2-1 2.4-1.7 3.6-3 1.2-1.3 1.6-.2 2.1-2.1s-2.2-3.1-5.2-5c-2.9-1.8-4.3-2.2-4.9-2.8-.6-.6-.2-6.2-.1-6.8.1-.5 0-3.8 0-3.8s-2.6 4.7-4.4 5.4c-1.9.7-5.9 1.2-7.3.5-1.5-.5-2-1.3-2-1.3z"/><path fill="#B4A796" d="M18 12.7c-.6 0-1.2-.1-1.8-.1.5-.3 1.1-.3 1.7-.3.7.1 1.3.2 1.9.7s.9 1.1.7 1.8c-.1.3-.2.5-.3.7-.1.3-.1.7-.2 1-.1.8-.1 1.6-.2 2.4 0 .4 0 .8.3 1.1.4.3.9 0 1.3-.2s1.1-.3 1.2.2c-.9-.1-2 .7-2.8.2-.7-.4-.6-1.4-.4-2.2.2-.8.3-1.6.5-2.5.2-.8.3-1.8-.4-2.3-.4-.4-1-.5-1.5-.5zm6-.8c-.9.4-1.5 1.2-1.8 2.1-.2.9 0 2 .6 2.7-.4-.1-.7-.6-.8-1-.1-.4-.1-.9 0-1.4.1-.9.3-1.8 1-2.4.4-.3.9-.4 1.4-.5 1.6-.2 3.2-.1 4.7.4-.7-.1-1.3-.1-2-.2-1 0-2.2-.2-3.1.3zm-.4 6.7c.3.2.4.6.2.9s-.6.5-.9.3c.7-.3 1.1-1.1.9-1.8m.5 5.1c-.9-.7-2.2-.1-3.3-.3-.2 0-.5-.1-.7 0-.2 0-.5.2-.5.4 1.5-.2 3.1-.3 4.6-.3m-.6 1.3H20c.7.4 1.5.5 2.3.5s1.5-.3 2.3-.6m.7 1.9c-1.7-.9-3.9-.8-5.5.2-.2-.2.1-.4.3-.5 1.4-.6 2.9-.8 4.4-.4.3.1.8.3.8.7z"/><path fill="#B4A796" d="M30.1 21.8c-.5 1.5-1.1 3-2 4.2-.9 1.3-2.3 2.3-3.9 2.3-.9 0-2-.1-2.5.6 2.8.5 5.9 1 8.3-.5 2.3-1.4 3.3-4.2 3.6-6.9 0-.4.1-.8.2-1.2.1-.3.3-.6.4-.8.5-1 .5-2.2-.1-3.2-.3.6-1.1 1.2-1.6.7-.2-.3-.1-.7-.1-1.1.3-1.8-1-3.4-2.1-4.8.9 2 1.2 4.2.9 6.4-.1 1.5-.6 2.9-1.1 4.3zm-5.6 20.8c-.1 0-.3-.1-.4-.1-.1 0-.3-.1-.4-.2-1.8-1.1-4.1-1.4-5.6-2.8 1.1.4 2 1.3 3.1 1.8 1.3.6 2.8.6 4.2.6-.4-1.2-.8-2.3-1.3-3.4.7 1.3 1.4 2.6 2 4 .1.1.1.2.1.4.1.5-.6.9-1.1 1 .2-.5-.1-1.1-.6-1.3zm9.4-8c-.2 1.1-.6 2.1-.9 3.1 0-.4-.1-.7-.1-1.1 0 .1-.1.1-.1.1v-.2c.2-1 .3-2.1.5-3.1.2.5.6 1 1.1 1.2M24.3 13.7c.3-.6.9-.9 1.6-.9.6 0 1.2.3 1.8.5-.2-.6-1-.8-1.6-.9-.5-.1-1-.1-1.4.1-.5.3-.8.8-.4 1.2m-5 .4c-.8-.5-1.9-.4-2.6.2.1-.5.5-.8 1-.8s.9.2 1.3.5"/><path fill="#D8D0BF" d="M36.3 60.5c.5-.2 1 .3 1.1.8s-.3 1-.6 1.4c-2.1 2.3-5.7 2.5-8.8 2.5h-4c-1.1 0-2.3 0-3.4-.3s-2.2-1-2.7-2-.4-2.4.4-3.2c.1.9.9 1.7 1.8 2s1.8.4 2.8.4c3.2 0 6.5-.1 9.7-.5 1.3.1 2.7-.2 3.7-1.1z"/><path fill="#E4D5C2" d="M33.4 17.2c.3-.8.7-1.6 1.2-2.3s1.3-1.2 2.2-1.3c.5 0 1.1.1 1.3.5.1.2.1.4.1.7 0 1.1-.5 2.1-1 3-.8 1.3-1.6 2.5-2.6 3.7-.2.2-.5.5-.8.3-.1-.1-.1-.2-.2-.3-.1-.7.1-1.5.6-2 .3-.3.6-.5.6-.9 0-.3-.1-.5-.3-.7-.3-.5-.9-1-1.4-.8"/><path fill="#D8D0BF" d="M33.8 56.5H19.4c-1.1 0-1.9-.9-1.9-1.9 0-1.1.9-1.9 1.9-1.9h14.3c1.1 0 1.9.9 1.9 1.9.1 1-.8 1.9-1.8 1.9zm.9 8.8H19.4c-1.5 0-2.7-1.2-2.7-2.7 0-1.5 1.2-2.7 2.7-2.7h15.3c1.5 0 2.7 1.2 2.7 2.7 0 1.5-1.2 2.7-2.7 2.7z"/><path fill="#B4A796" d="M33.5 17.3c.4-.8.8-1.7 1.3-2.4s1.4-1.3 2.3-1.4c-1.7 0-3.3 1.4-3.5 3.1 0 .2 0 .3-.2.4-.1.1-.4 0-.3-.2m-.7 36H21.8c-.7 0-1.3-.6-1.3-1.3 0-.7.6-1.3 1.3-1.3h10.6c.7 0 1.3.6 1.3 1.3 0 .7-.6 1.3-1.3 1.3z"/><path fill="#B4A796" d="M26.6 7.4c-3.2.2-6.4.4-9.4 1.5-.4.1-.8.3-1 .7-.4.7.1 1.5 0 2.3-.2-1-.4-2.1.2-2.8.4-.5 1.1-.7 1.8-.8C21.6 7.6 25 7.1 28.5 7c-.2 1.1.4 2.3 1.1 3.2s1.6 1.6 2.3 2.5c.9 1.1 1.4 2.5 1.6 3.9v.3c-.1.2-.3.3-.5.2 0-1.1 0-2.2-.5-3.1-.5-.9-1.5-1.5-2.2-2.2-.9-.8-1.5-1.8-1.8-3-.1-.4-.2-.8-.5-1.1-.4-.3-.9-.3-1.4-.3zm7.7 14.8c-.3 1.1-.5 2.1-.8 3.2 0-.6.1-1.1.1-1.7.1-.7.1-1.4-.3-2 .4 0 .9 0 1.3-.1 0 .4-.1.8-.3 1.1"/></g></switch></svg>
