<svg xmlns="http://www.w3.org/2000/svg" id="Capa_1" x="0" y="0" version="1.0" xml:space="preserve" viewBox="0 0 148 109"><style>.st2,.st5{fill:#474747;stroke:#474747;stroke-width:2}.st5{fill:#272727;stroke:#272727;opacity:.15}.st27{fill:#06060a}.st36{fill:#484848;stroke:#272727;stroke-width:2}.st37{fill:#747474}.st42{opacity:.15;fill:#484848}.st43,.st50{stroke-width:2}.st43{opacity:.62;fill:none;stroke:#3c6aa4}.st50{fill:#020202;stroke:#020202}</style><switch><g><path fill="#fff" stroke="#569ed8" d="M144.8 102.1c0 2.5-2.9 4.6-6.4 4.6H8.4c-3.5 0-6.4-2-6.4-4.6V6.6C2 4 4.9 2 8.4 2h130c3.5 0 6.4 2 6.4 4.6v95.5z" opacity=".55"/><circle cx="37" cy="47.3" r="30.5" fill="#fff" stroke="#3c6aa4" stroke-width="2" opacity=".62"/><path d="M137.2 88.2c-.7.7-.7 2-4.8 2.5s-15.8.8-20.9 1.2c-5.1.3-8.6.3-11.5 0-3-.3-8-1.9-9.2-2.5-1.2-.5.7 2.6.7 5.4 0 2.8-.4 5.9-.4 5.9s-1.6.8 2.3 1.2c3.9.3 16.8.7 24.7 0 7.9-.7 11.7-.5 14.6-2 3-1.5 4.1-2.6 4.4-3.9.4-1.3.1-7.8.1-7.8z" class="st2"/><path fill="#5e5e5e" stroke="#555" stroke-width="2" d="M91.5 12.3s.7-2.1 3-2.5c2.3-.3 10.4-1.2 12.7 0 2.3 1.1 3.1 1 3.9 2.5.8 1.5 2 3.6 2.5 6.1.5 2.5 0 5.1 0 5.1l-1 1.2s7.1 2.3 8.4 3.5c1.3 1.1 2.5 5.3 2.5 7.1 0 1.8 1.3 14.5 1.6 16.6.3 2.1.7 8.9.8 10.4.2 1.5-.5 5.9-1.2 7.2-.7 1.3-1.8 3-1.8 3l-1.2 1.2s-2.5.2 0 1 8.4 3.6 9.9 4.8c1.5 1.2 3.3 3 4.1 4.6.8 1.6 1.5 4.4 1.5 4.4s-.6 1.9-3.7 2.3c-3.1.4-14.1.9-16 1-2 .1-17.2.5-19.3 0-2.1-.5-7.2.1-7.8-1-.6-1.2-6.4-7.3-7.3-8.4-1-1.1-2.8-2.3-2.6-4.1.2-1.8.6-3 1.1-3.1.5-.2-.1-2.1-1.1-2.8-1-.7-.7-1.3-.7-1.3s.2-24.5.3-27c.2-2.5-.2-13.7 0-14.1.2-.5.7-2.6 2.5-3.6s3.6 0 3.6 0l3.5-.4s-.3-5.2.8-9.3l1-4.4z"/><path fill="#272727" stroke="#272727" stroke-width="2" d="M91.5 42s-4.1-5.1-5.8-5.9c-1.6-.8-5.1-1.6-5.1-1.6s.1 20.7.3 24c.2 3.3 0 7.9 0 8.6v4.1s.5.8.6 2.3c.1 1.5-.1 0-.7 0-.7 0-1.7 1-.7 3.6s4 6.8 4.9 7.2c.9.4 1.2-1.1 3-1.6s4.4-.5 5.1-.8c.7-.3 1.6-.2 1.6-.7 0-.5-4.1-4.9-4.1-4.9s-.2-.7 0-1.6c.2-1 1.1-2.3.9-4.1-.2-1.9 0-28.6 0-28.6zm23.8-.1s2-2.3 3.8-3.8c1.8-1.5 4.3-2.5 4.3-2.3 0 .2 1.3 12.7 1.6 16 .3 3.3 1 9.4.8 11.5-.2 2.1-1.2 6.4-2.1 7.7-.9 1.3-2 2.5-2 2.5s1 1.1 4.2 2.7 5 2.4 5.7 3c.8.6 1.6 1.4 1.6 1.4H123s-2.6-1.7-4.1-2.5c-1.5-.8-3-2.5-3.6-2.6-.7-.2-.5-1.6 0-2 .5-.3 1.3-9.8 1.2-14-.2-4.2-.8-8.5-.8-11.6s-.4-6-.4-6z"/><path d="M91.5 25.1c.6.3 3.9 0 9.2 0s7.1.5 8.4 0c1.3-.5 3.9-1 3.9-1l-.7 1.2s-7.9 1.4-10.9 1.6c-3 .2-5.4.3-8.6 0-3.1-.3-2.5-1.2-2.5-1.2s-.5-2 0-1.6c.5.5 1.2 1 1.2 1zm-9.9 49.8c1.4.4 2.4.8 3.9.8s3-.4 4.5-.3c-.7 2.4-4.7 1.9-6.7 1.8-1.3 0-5.5-1.2-3.3-3.4.9.4 1.5 1.6 2.4 1.8m32.2-1.2c1.9-.3 4.2-.4 5.8-1.3-1.3 2.7-3 2.5-6 2.2.1-.4.3-.9.5-1.1M91 75.3c4.2 0 8.4-.2 12.5-.8 3.5-.5 7.8-1.4 11.3-1-2.9 2.3-8.9 2-12.4 2.1-2.3.1-4.6 0-6.8 0-1.4 0-3.9.4-4.9-.2" class="st5"/><path d="M111.2 25.9c2.4.4 2.8 5 2.8 6.9 0 2.3 1.9 5.5.8 7.9 2.8-1 .6-7.2.1-9.4-.3-1.4-.7-2.7-1.4-4-.3-.6-.6-1.6-1.2-1.9-.7-.4-1.5-.3-.9.8M90.6 40.6c0-2.7-.1-5.2-.5-7.7s.2-4.8-1.1-6.9c3.8-.9 1.3 13.8 2.1 15.9-.3-.2-.7-.5-.9-.8" class="st5"/><path d="M80.1 74c-.5.2-1.6-.3-1.6 3.3 0 3.6 1 7.4 1.6 8.6.7 1.2 3.8 8.4 5.8 10.2 2 1.8 5.3 5.3 5.3 5.3s1.2-2.2.4-6.5c-.8-4.3-2.2-6.4-2.8-7.2-.2-.3-2.8-2.5-2.8-2.5s-2.1-1.8-2.8-2.5c-.7-.7-2-2.5-2-2.5s-1-1.8-.5-2.5c.4-.6-.6-3.7-.6-3.7z" class="st2"/><linearGradient id="SVGID_1_" x1="-589.991" x2="-584.437" y1="495.981" y2="495.981" gradientTransform="matrix(.9726 .2319 -.2316 .9733 799.508 -286.623)" gradientUnits="userSpaceOnUse"><stop offset="0" stop-color="#f1e94d"/><stop offset="1" stop-color="#f0c831"/></linearGradient><path fill="url(#SVGID_1_)" stroke="#f2d984" stroke-width=".25" d="M111.8 56.3c1.7 1.1 2.9 2.7 4.5 4.1-1.3 1-3.2 1.4-4.6 2.6 1.5-1.9-.1-4.8-.1-7"/><linearGradient id="SVGID_2_" x1="105.332" x2="112.7" y1="88.425" y2="88.425" gradientUnits="userSpaceOnUse"><stop offset="0" stop-color="#faf1cb"/><stop offset=".436" stop-color="#f8e9bd"/><stop offset="1" stop-color="#f5dca5"/></linearGradient><path fill="url(#SVGID_2_)" stroke="#e2b656" stroke-width=".25" d="M105.5 83.1c1.9 1.5 1.4 9 1.1 10.9 1.3.4 1.7 1.7 3.1 1.6 2.2-.2 2.4-4 2.9-6 .3-1.5-.1-7.1-1.3-8.2-1.9.2-4.2.4-6 1.4.2.5.5.8 1 1.1"/><linearGradient id="SVGID_3_" x1="112.568" x2="119.936" y1="87.497" y2="87.497" gradientUnits="userSpaceOnUse"><stop offset="0" stop-color="#faf1cb"/><stop offset=".436" stop-color="#f8e9bd"/><stop offset="1" stop-color="#f5dca5"/></linearGradient><path fill="url(#SVGID_3_)" stroke="#e2b656" stroke-width=".25" d="M112.7 82.1c1.9 1.5 1.4 10.3 1.1 12.2 1.3.4 2.4.4 3.8.3 2.2-.2 1.8-4 2.2-6 .3-1.5-.1-7.1-1.3-8.2-1.9.2-4.2.4-6 1.4.2.5.5.8 1 1.1"/><linearGradient id="SVGID_4_" x1="93.42" x2="122.802" y1="71.289" y2="71.289" gradientUnits="userSpaceOnUse"><stop offset="0" stop-color="#7a2d86"/><stop offset=".177" stop-color="#823b8e"/><stop offset=".511" stop-color="#975fa2"/><stop offset=".964" stop-color="#b89ac3"/><stop offset="1" stop-color="#bb9fc6"/></linearGradient><path fill="url(#SVGID_4_)" d="M97.1 57.2c4.1 2.5 11.2-.1 15.7-.6 0 2.1 1.1 3.9 1.4 5.9.3 2.5-1.2 4.1.1 6.4.9 1.8 2.2 4 3.7 5.5 1.8 1.8 5.6 3.3 4.9 6.1-3.8-.2-7.8.9-11.5 1.4-4.1.6-6.2 2.2-9.4 4.1 1.2-2.4-4.5-4.1-6.3-5.6-3.2-2.6-2.2-4.3-.8-7.8 1.1-2.7.8-3.8 0-6.6-.8-2.7.7-5.1-.7-7.9.3-.2.6-.4 1-.5"/><linearGradient id="SVGID_5_" x1="106.282" x2="107.273" y1="62.982" y2="62.982" gradientUnits="userSpaceOnUse"><stop offset="0" stop-color="#f6f19f"/><stop offset=".32" stop-color="#f3e070"/><stop offset=".608" stop-color="#f2d34e"/><stop offset=".845" stop-color="#f0cb39"/><stop offset="1" stop-color="#f0c831"/></linearGradient><ellipse cx="106.8" cy="63" fill="url(#SVGID_5_)" rx=".5" ry=".6"/><linearGradient id="SVGID_6_" x1="106.784" x2="107.777" y1="61.938" y2="61.938" gradientUnits="userSpaceOnUse"><stop offset="0" stop-color="#f6f19f"/><stop offset=".32" stop-color="#f3e070"/><stop offset=".608" stop-color="#f2d34e"/><stop offset=".845" stop-color="#f0cb39"/><stop offset="1" stop-color="#f0c831"/></linearGradient><ellipse cx="107.3" cy="61.9" fill="url(#SVGID_6_)" rx=".5" ry=".6"/><linearGradient id="SVGID_7_" x1="105.866" x2="106.856" y1="61.468" y2="61.468" gradientUnits="userSpaceOnUse"><stop offset="0" stop-color="#f6f19f"/><stop offset=".32" stop-color="#f3e070"/><stop offset=".608" stop-color="#f2d34e"/><stop offset=".845" stop-color="#f0cb39"/><stop offset="1" stop-color="#f0c831"/></linearGradient><ellipse cx="106.4" cy="61.5" fill="url(#SVGID_7_)" rx=".5" ry=".6"/><linearGradient id="SVGID_8_" x1="105.408" x2="106.399" y1="62.529" y2="62.529" gradientUnits="userSpaceOnUse"><stop offset="0" stop-color="#f6f19f"/><stop offset=".32" stop-color="#f3e070"/><stop offset=".608" stop-color="#f2d34e"/><stop offset=".845" stop-color="#f0cb39"/><stop offset="1" stop-color="#f0c831"/></linearGradient><ellipse cx="105.9" cy="62.5" fill="url(#SVGID_8_)" rx=".5" ry=".6"/><linearGradient id="SVGID_9_" x1="107.313" x2="108.302" y1="66.561" y2="66.561" gradientUnits="userSpaceOnUse"><stop offset="0" stop-color="#f6f19f"/><stop offset=".32" stop-color="#f3e070"/><stop offset=".608" stop-color="#f2d34e"/><stop offset=".845" stop-color="#f0cb39"/><stop offset="1" stop-color="#f0c831"/></linearGradient><ellipse cx="107.8" cy="66.6" fill="url(#SVGID_9_)" rx=".5" ry=".6"/><linearGradient id="SVGID_10_" x1="107.814" x2="108.807" y1="65.519" y2="65.519" gradientUnits="userSpaceOnUse"><stop offset="0" stop-color="#f6f19f"/><stop offset=".32" stop-color="#f3e070"/><stop offset=".608" stop-color="#f2d34e"/><stop offset=".845" stop-color="#f0cb39"/><stop offset="1" stop-color="#f0c831"/></linearGradient><ellipse cx="108.3" cy="65.5" fill="url(#SVGID_10_)" rx=".5" ry=".6"/><linearGradient id="SVGID_11_" x1="106.895" x2="107.887" y1="65.047" y2="65.047" gradientUnits="userSpaceOnUse"><stop offset="0" stop-color="#f6f19f"/><stop offset=".32" stop-color="#f3e070"/><stop offset=".608" stop-color="#f2d34e"/><stop offset=".845" stop-color="#f0cb39"/><stop offset="1" stop-color="#f0c831"/></linearGradient><ellipse cx="107.4" cy="65" fill="url(#SVGID_11_)" rx=".5" ry=".6"/><linearGradient id="SVGID_12_" x1="106.438" x2="107.43" y1="66.108" y2="66.108" gradientUnits="userSpaceOnUse"><stop offset="0" stop-color="#f6f19f"/><stop offset=".32" stop-color="#f3e070"/><stop offset=".608" stop-color="#f2d34e"/><stop offset=".845" stop-color="#f0cb39"/><stop offset="1" stop-color="#f0c831"/></linearGradient><ellipse cx="106.9" cy="66.1" fill="url(#SVGID_12_)" rx=".5" ry=".6"/><linearGradient id="SVGID_13_" x1="108.497" x2="109.487" y1="72.044" y2="72.044" gradientUnits="userSpaceOnUse"><stop offset="0" stop-color="#f6f19f"/><stop offset=".32" stop-color="#f3e070"/><stop offset=".608" stop-color="#f2d34e"/><stop offset=".845" stop-color="#f0cb39"/><stop offset="1" stop-color="#f0c831"/></linearGradient><ellipse cx="109" cy="72" fill="url(#SVGID_13_)" rx=".5" ry=".6"/><linearGradient id="SVGID_14_" x1="108.999" x2="109.991" y1="71.001" y2="71.001" gradientUnits="userSpaceOnUse"><stop offset="0" stop-color="#f6f19f"/><stop offset=".32" stop-color="#f3e070"/><stop offset=".608" stop-color="#f2d34e"/><stop offset=".845" stop-color="#f0cb39"/><stop offset="1" stop-color="#f0c831"/></linearGradient><ellipse cx="109.5" cy="71" fill="url(#SVGID_14_)" rx=".5" ry=".6"/><linearGradient id="SVGID_15_" x1="108.08" x2="109.071" y1="70.531" y2="70.531" gradientUnits="userSpaceOnUse"><stop offset="0" stop-color="#f6f19f"/><stop offset=".32" stop-color="#f3e070"/><stop offset=".608" stop-color="#f2d34e"/><stop offset=".845" stop-color="#f0cb39"/><stop offset="1" stop-color="#f0c831"/></linearGradient><ellipse cx="108.6" cy="70.5" fill="url(#SVGID_15_)" rx=".5" ry=".6"/><linearGradient id="SVGID_16_" x1="107.622" x2="108.614" y1="71.592" y2="71.592" gradientUnits="userSpaceOnUse"><stop offset="0" stop-color="#f6f19f"/><stop offset=".32" stop-color="#f3e070"/><stop offset=".608" stop-color="#f2d34e"/><stop offset=".845" stop-color="#f0cb39"/><stop offset="1" stop-color="#f0c831"/></linearGradient><ellipse cx="108.1" cy="71.6" fill="url(#SVGID_16_)" rx=".5" ry=".6"/><linearGradient id="SVGID_17_" x1="-57.228" x2="-48.553" y1="307.334" y2="307.334" gradientTransform="rotate(-12.48 -1134.443 -458.6)" gradientUnits="userSpaceOnUse"><stop offset="0" stop-color="#cf522b"/><stop offset=".823" stop-color="#250f08"/><stop offset="1"/></linearGradient><path fill="url(#SVGID_17_)" stroke="#5a4221" stroke-width=".25" d="M88.4 51.5l2.7 2.5s-6.8 5.8-7.5 6c-.7.1 4-6.7 3.9-7.5 0-.8.9-1 .9-1z"/><linearGradient id="SVGID_18_" x1="-56.116" x2="-47.44" y1="311.929" y2="311.929" gradientTransform="rotate(-12.48 -1134.443 -458.6)" gradientUnits="userSpaceOnUse"><stop offset="0" stop-color="#cf522b"/><stop offset=".823" stop-color="#250f08"/><stop offset="1"/></linearGradient><path fill="url(#SVGID_18_)" stroke="#5a4221" stroke-width=".25" d="M90.5 55.7l2.7 2.5s-6.8 5.8-7.5 6c-.7.1 4-6.7 3.9-7.5 0-.8.9-1 .9-1z"/><path fill="#f5f5f4" d="M115.8 45.2s-.1.1-.1.4c-.4 1-1.3 3.5-1.4 4.5-.1 1.2 0 3.4.5 3.5.5.1.3-1.5.3-2.1 0-.6.5-3.1.5-3.7" opacity=".14"/><linearGradient id="SVGID_19_" x1="1803.21" x2="1835.572" y1="-29.354" y2="-29.354" gradientTransform="matrix(.8365 .0005 -.0005 1 -1421.004 77.541)" gradientUnits="userSpaceOnUse"><stop offset="0" stop-color="#faf1cb"/><stop offset=".436" stop-color="#f8e9bd"/><stop offset="1" stop-color="#f5dca5"/></linearGradient><path fill="url(#SVGID_19_)" stroke="#e2b656" stroke-width=".25" d="M112.3 39.5s1.7 5.3 1.7 6.9c0 1.6-.5 4.5-.1 6.6.1.6.6 1.9.5 2.5-.1.8-1 2-3.3 2.9-2.2.8-5.5.7-6.8.7-2 0-11.4-.6-12.7-1.4-1.3-.8-2-.8-1.7-.8 1.7-.2-.7-1.7-.5-2.7.2-1-2.1-1-2.1-1 .9 0 7.1-6.7 10.3-8.1 3.2-1.5 6.3-6 8.8-6 2.6-.1 5.9.4 5.9.4z"/><linearGradient id="SVGID_20_" x1="2045.494" x2="2055.365" y1="-22.079" y2="-22.079" gradientTransform="matrix(.7355 .0004 -.0005 1 -1408.977 77.005)" gradientUnits="userSpaceOnUse"><stop offset="0" stop-color="#c91571"/><stop offset="1" stop-color="#fbf4cb"/></linearGradient><ellipse cx="99.1" cy="55.7" fill="url(#SVGID_20_)" opacity=".13" rx="3.6" ry="3.4"/><ellipse cx="109" cy="49.4" class="st27" rx=".6" ry=".8" transform="rotate(-7.65 109.015 49.354)"/><ellipse cx="101.8" cy="50.7" class="st27" rx=".6" ry=".8" transform="rotate(-7.839 101.861 50.709)"/><linearGradient id="SVGID_21_" x1="1856.091" x2="1863.103" y1="1108.65" y2="1108.65" gradientTransform="matrix(.6088 -.5612 .4126 .8277 -1477.508 180.477)" gradientUnits="userSpaceOnUse"><stop offset="0" stop-color="#c91571"/><stop offset="1" stop-color="#fbf4cb"/></linearGradient><path fill="url(#SVGID_21_)" d="M114.3 52.9c.8 1.2.4 2.9-.8 3.8-1.3.9-3 .6-3.8-.6-.8-1.2-.4-2.9.8-3.8 1.3-.9 3-.6 3.8.6z" opacity=".13"/><linearGradient id="SVGID_22_" x1="-1347.508" x2="-1347.508" y1="45.963" y2="45.963" gradientTransform="matrix(-.8785 -.0004 -.0004 1 -1075.365 -1.316)" gradientUnits="userSpaceOnUse"><stop offset="0" stop-color="#ce4952"/><stop offset="1" stop-color="#e19a2f"/></linearGradient><path fill="none" stroke="#a9621a" stroke-width=".25" d="M104.9 52.3s.4-.8 1.5-.7c1.1.1 1.3.8 1.3.8"/><circle cx="106.9" cy="56.8" r=".3" fill="none" stroke="#8e3b14" stroke-width=".25"/><linearGradient id="SVGID_23_" x1="3.927" x2="7.335" y1="784.513" y2="784.513" gradientTransform="rotate(53.056 774.66 509.025) scale(1.0001)" gradientUnits="userSpaceOnUse"><stop offset="0" stop-color="#cf522b"/><stop offset=".823" stop-color="#250f08"/><stop offset="1"/></linearGradient><path fill="url(#SVGID_23_)" stroke="#5a4221" stroke-width=".25" d="M91.9 58.1s-.9.7-1.3 2-.2 3.4-.2 3.4 1-1.7 2.4-2.8c1.3-1.2 2.7-1.9 2.7-1.9l-3.6-.7z"/><linearGradient id="SVGID_24_" x1="-74.965" x2="-72.81" y1="375.207" y2="375.207" gradientTransform="rotate(-3.887 -4653.415 -2227.538)" gradientUnits="userSpaceOnUse"><stop offset="0" stop-color="#cf522b"/><stop offset=".823" stop-color="#250f08"/><stop offset="1"/></linearGradient><path fill="url(#SVGID_24_)" stroke="#5a4221" stroke-width=".25" d="M90.6 57.4s-.6 2.6.3 3.7c.9 1.1 1.8 1.1 1.8 1.1s-.4-1.1-.6-2.9c-.3-1.7-.8-2.4-.8-2.4l-.7.5z"/><linearGradient id="SVGID_25_" x1="-43.365" x2="-6.624" y1="252.762" y2="252.762" gradientTransform="rotate(-16.469 -672.117 -275.848)" gradientUnits="userSpaceOnUse"><stop offset="0" stop-color="#cf522b"/><stop offset=".823" stop-color="#250f08"/><stop offset="1"/></linearGradient><path fill="url(#SVGID_25_)" stroke="#4d351a" stroke-width=".25" d="M83.9 63.7s3.9-7.6 4.2-9.4c.3-1.8.2-1.4-1.6.7-1.8 2.1-3.2 3.1-3.5 2.8-.3-.3 3.6-8.6 3.7-9.4.1-.8 1-12.7 6.1-14.3 5.1-1.6 7.6.4 8.6.9 1 .6 3.9-2.3 8.2 1.3 4.3 3.6 6.7 6.9 7.5 10 .7 3.2.6 6.8.3 8.5-.3 1.7-3.4 3.3-3.4 3.3s.6-5.7-.7-10.1c-.9-3.2-6.2-8.1-6.8-8.1-.6.1-1.4.2-.9 1.4.5 1.2.6 2.8.6 2.8s-1.8-3.5-2.2-2c-.4 1.4-.8 3.7-2.3 3.8-1.4.1-1.2-1.1-1.6-2.5-.4-1.4-1 3.8-2.7 5.7-1.6 1.9-3.1 3.5-3.3 3.2-.2-.3 0-1.6.1-2 .1-.4-2.4 7.4-5.9 10.4-3.4 2.9-4.4 3-4.4 3z"/><path fill="#353535" stroke="#414141" d="M31.8 46.2l-4.7 2.7 7.7 11.8 5.1-4z"/><path d="M43.9 35.7l-1.2.2s0-.1-.5-.6-.9-2.2-.2-3.8c.7-1.6 3.2-2.2 5.4-2.8 2.2-.6 3-.6 3-.6s9.7 9.7 10.9 11.3c1.2 1.6 2 2.7 1.4 3.8-.6 1.2-3.8 4.2-4.9 4.6-1.1.4-1.4.8-2.8.2-1.4-.6-2.9-1.7-3.5-1.8-.5 0-.8-.4-.8-.4s1.1-.6 1-1c-.1-.3-7.8-9.1-7.8-9.1z" class="st36"/><path d="M52.7 39l-.7.3-2.7-2.9.4-.8-3-4 7.3-6.7s1.2 1.3 1.2 1.6c0 .4.6.6.6.6s.7 0 .6.3c0 .3.7 1.5.7 1.5l1.3.9.7.9.4.4s.8.5 1.2.8c.3.3.9 1 .9 1l1.5.9s.7.8.6 1c-.1.2-8.2 7.4-8.2 7.4L52.7 39z" class="st37"/><path fill="#5a5a5a" stroke="#5a5a5a" stroke-width="2" d="M61.8 39.1l3-3.2-1.2-.6-3.2 3.1.9 1z"/><path fill="none" stroke="#080006" d="M43.6 30.5s-.9 1.8.1 3.1 8.7 10.9 10 11.7c1.2.9 1.5 1.9 2.6 1.3 1.1-.6 5.3-3.3 5.3-3.3"/><path fill="#cfcfcf" stroke="#cfcfcf" d="M50.3 43.2c-.5-.6-2.2-2.6-2.7-3.2-.5-.5-3.4-3.9-3.7-4.3-.4-.4-1.2.2-1.2.2s.3 1.1.4 2.1c.1.9-.3.8-1.2 2.2-.9 1.3-3.3 3.5-4.4 4.4-1.1.9-1.9 1.6-2.2 2.7-.2 1.1.3 1.3 1 2.4.8 1.2 1.9 2.5 2.9 2.8 1 .3 1-.4 1.7-.8s6.3-6.1 7.8-6.7c1.4-.6 2.2 1 2.2 1l1-1c-.2-.1-1-1.2-1.6-1.8zm-11 7.3l-2.5-3.3 5.5-5.4L45 45l-5.7 5.5z"/><path d="M39.4 55.9c-.9-1.2-6.4-9.4-6.4-9.4s-.2-.4-1.3-.7c-1.1-.2-3.1.9-4 1.3-.9.4-1.7.4-1.7 1.2 0 .8 7.1 11.3 7.7 12 .6.8 1.4.4 1.8.2.4-.1 2.8-2.4 2.8-2.4s1.3-.5 1.5-.8c.1-.2.5-.1-.4-1.4zm-5 3.2c-.9-.1-5.6-8.1-6.2-9-.6-1-.3-1 .1-1.2.4-.1 3.9-1.9 3.9-1.9s1.5 2.2 2.2 3.1c.8.9 4 5.9 4 5.9s-3.1 3.2-4 3.1z" class="st37"/><path fill="#414141" stroke="#414141" d="M29.7 49.9s5.2 7.8 5.4 7.7c.3-.1 3.3-1.5 3.3-1.5l-6.2-9-2.5 2.8z"/><path d="M39.7 57.6s-9 6.7-10.5 7.5c-1.4.8-4 2.4-4.4 2.5-.4.1-.4.4-1.2-.6-.8-1.1-5.6-8-5.8-8.4-.2-.4-.6.1 1-2s3.3-4.5 4.3-5.5c1.1-1 2.8-2.7 2.8-2.7s3 5.1 4 6.6 2.4 3.6 2.9 4.3c.5.7.5 1.9 1.6 1.6 1-.3 3.9-2.7 3.9-2.7l1.4-.6z" class="st36"/><path d="M13 65.4l6.5-4.3 3.3 4.8-5.4 3.9" class="st37"/><path d="M42.8 39c1.2-2 .2-1.9-.4-3.2 2.1-1.9 4.6 3.2 5.5 4.2.9.9 5.1 4.8 2.8 5.9-.2-3.2-3.1-5.5-5.2-7.7-.4-.4-1-1.4-1.5-1.6-1.5-.6-.5-.1-.6.7-.1.7.2 1.3-.3 2s-1.6 1.1-2.1 1.9c.6-1 .5-.5 1.4-1.9" class="st42"/><path d="M50.7 45.9s-.3-1.3-1.2-1.1c-.9.1-2.5 1.2-3.6 2.2-1.1 1-6.2 5.8-6.2 5.8s-.3-.1-.5-.3c-.8-.5 2-2.1 3.2-3 1.2-.9 4.5-3.9 5-4.1.5-.3 2.6-1.3 2.6-1.3l.7 1.8zm-8.4-4.1L45 45l-.2.1-2.8-3z" class="st42"/><path d="M39.3 50.5L45 45l-.3-.3-5.6 5.6zm3-8.7l-5.5 5.4-.1-.3 5.3-5.2z" class="st42"/><path d="M39.1 50.3l-2.3-3.1-.1-.3z" class="st42"/><ellipse cx="80.1" cy="89.5" class="st43" rx="12.2" ry="12"/><path d="M57.5 69.9l12.2 12.2" class="st43"/><linearGradient id="SVGID_26_" x1="105.298" x2="112.436" y1="95.431" y2="95.431" gradientUnits="userSpaceOnUse"><stop offset="0" stop-color="#f1e94d"/><stop offset="1" stop-color="#f0c831"/></linearGradient><path fill="url(#SVGID_26_)" stroke="#f2d984" stroke-width=".25" d="M106.9 89.7s1.9 1.5 3 1.6c1.1.2 2.5-.9 2.5-.9s-1.3 5.7-1.2 5.9c.1.3-2 5.9-4 4.7-2-1.3-2.2-3.3-1.8-4.2.5-.9 1.5-7.1 1.5-7.1z"/><linearGradient id="SVGID_27_" x1="113.201" x2="119.574" y1="95.832" y2="95.832" gradientUnits="userSpaceOnUse"><stop offset="0" stop-color="#f1e94d"/><stop offset="1" stop-color="#f0c831"/></linearGradient><path fill="url(#SVGID_27_)" stroke="#f2d984" stroke-width=".25" d="M114.1 90.6s2 1.1 3.1 1.3c1.1.2 2.4-.9 2.4-.9s-1.7 6.5-1.6 6.8c.1.3-1.4 4.4-3.4 3.1-2-1.3-1.3-4.7-.9-7 .1-1 .4-3.3.4-3.3z"/><linearGradient id="SVGID_28_" x1="103.991" x2="111.967" y1="99.127" y2="99.127" gradientUnits="userSpaceOnUse"><stop offset="0" stop-color="#f1e94d"/><stop offset="1" stop-color="#f0c831"/></linearGradient><path fill="url(#SVGID_28_)" stroke="#f2d984" stroke-width=".25" d="M105.5 96.8c.4 1.1-2.2 2.7-1.3 4 .6.8 3.2 1.1 4.2 1.1 1.3 0 3.2-.4 3.5-1.8.2-.8-.4-1.2-.6-1.8-.2-.6-.1-1.3-.1-1.9"/><linearGradient id="SVGID_29_" x1="-1412.79" x2="-1404.838" y1="99.197" y2="99.197" gradientTransform="matrix(-.9377 0 0 1 -1204.804 -.07)" gradientUnits="userSpaceOnUse"><stop offset="0" stop-color="#f1e94d"/><stop offset="1" stop-color="#f0c831"/></linearGradient><path fill="url(#SVGID_29_)" stroke="#f2d984" stroke-width=".25" d="M118.2 96.3c-.4 1.1 2.5 3.2 1.6 4.4-.5.8-3 1.1-3.9 1.1-1.3 0-3-.4-3.3-1.8-.2-.8.4-1.2.6-1.8.2-.6.1-1.3.1-1.9"/><linearGradient id="SVGID_30_" x1="113.239" x2="117.24" y1="67.548" y2="67.548" gradientUnits="userSpaceOnUse"><stop offset="0" stop-color="#faf1cb"/><stop offset=".436" stop-color="#f8e9bd"/><stop offset="1" stop-color="#f5dca5"/></linearGradient><path fill="url(#SVGID_30_)" stroke="#e2b656" stroke-width=".25" d="M116 60.5c.3 3 .4 2 .2 7.2-.1 2.6 0 4.5 1.1 6.8-.9-2.5-3.4-4.5-3.9-6.9-.4-1.8.4-4.5.5-6.4.5-.3 1.1-.6 1.7-.7"/><linearGradient id="SVGID_31_" x1="2651.907" x2="2657.463" y1="-158.247" y2="-158.247" gradientTransform="matrix(-.99 .1403 .1399 .9909 2743.516 -153.907)" gradientUnits="userSpaceOnUse"><stop offset="0" stop-color="#f1e94d"/><stop offset="1" stop-color="#f0c831"/></linearGradient><path fill="url(#SVGID_31_)" stroke="#f2d984" stroke-width=".25" d="M95.3 58.3c-1.8 1-3.2 2.4-4.8 3.7 1.2 1.1 3.1 1.7 4.3 3-1.3-2 .5-4.8.7-7"/><path d="M122.8 32.3c0 .2-.6 2.2-.6 2.2l-3.8.4-.7 2.4 9.8 3 .6-2.9-2.6-2.3.6-2" class="st50"/><path d="M83.7 86.9l1.9 3.1s14.9-11.3 17.8-14.4c2.9-3.1 10.9-13.2 14.2-18.6 3.4-5.3 7.1-17.5 7.1-17.5l-4.9-1.2s-3.6 11.5-6.5 17.2c-2.9 5.7-11.4 17-11.4 17s-7.8 6-9.6 7.5c-1.8 1.5-6.1 4.4-6.1 4.4l-2.5 2.5z" class="st37"/><path d="M82.8 86.6l3.3 3.9-2.8 1.9-2.2-2.7z" class="st50"/><path fill="none" stroke="#484848" stroke-width="2" d="M80.4 89.3l-2.9 3.1 3 3.7s2.8-3.2 2.9-3.3c.1.1-3-3.5-3-3.5zm-.5 4.6l-.9-1.4 1.2-1 .9 1.1-1.2 1.3z"/><linearGradient id="SVGID_32_" x1="91.113" x2="105.889" y1="70.694" y2="70.694" gradientUnits="userSpaceOnUse"><stop offset="0" stop-color="#faf1cb"/><stop offset=".436" stop-color="#f8e9bd"/><stop offset="1" stop-color="#f5dca5"/></linearGradient><path fill="url(#SVGID_32_)" stroke="#e2b656" stroke-width=".25" d="M91.1 62.5s.4 7.9 4.4 12c3.9 4 9.4 4.9 9.9 3.8.6-1.1.9-1.9-.6-2.4-1.5-.4-7.3-4.7-7.3-4.7l-3.4-7.7-3-1z"/><linearGradient id="SVGID_33_" x1="101.926" x2="102.966" y1="85.492" y2="85.492" gradientUnits="userSpaceOnUse"><stop offset="0" stop-color="#7a2d86"/><stop offset=".38" stop-color="#7d1f8d"/><stop offset="1" stop-color="#83009d"/></linearGradient><circle cx="102.4" cy="85.5" r=".5" fill="url(#SVGID_33_)"/><linearGradient id="SVGID_34_" x1="102.966" x2="104.006" y1="85.005" y2="85.005" gradientUnits="userSpaceOnUse"><stop offset="0" stop-color="#7a2d86"/><stop offset=".38" stop-color="#7d1f8d"/><stop offset="1" stop-color="#83009d"/></linearGradient><circle cx="103.5" cy="85" r=".5" fill="url(#SVGID_34_)"/><linearGradient id="SVGID_35_" x1="107.782" x2="108.822" y1="82.409" y2="82.409" gradientUnits="userSpaceOnUse"><stop offset="0" stop-color="#7a2d86"/><stop offset=".38" stop-color="#7d1f8d"/><stop offset="1" stop-color="#83009d"/></linearGradient><circle cx="108.3" cy="82.4" r=".5" fill="url(#SVGID_35_)"/><linearGradient id="SVGID_36_" x1="106.791" x2="107.832" y1="82.895" y2="82.895" gradientUnits="userSpaceOnUse"><stop offset="0" stop-color="#7a2d86"/><stop offset=".38" stop-color="#7d1f8d"/><stop offset="1" stop-color="#83009d"/></linearGradient><circle cx="107.3" cy="82.9" r=".5" fill="url(#SVGID_36_)"/><linearGradient id="SVGID_37_" x1="105.871" x2="106.911" y1="83.38" y2="83.38" gradientUnits="userSpaceOnUse"><stop offset="0" stop-color="#7a2d86"/><stop offset=".38" stop-color="#7d1f8d"/><stop offset="1" stop-color="#83009d"/></linearGradient><circle cx="106.4" cy="83.4" r=".5" fill="url(#SVGID_37_)"/><linearGradient id="SVGID_38_" x1="105.079" x2="106.12" y1="83.867" y2="83.867" gradientUnits="userSpaceOnUse"><stop offset="0" stop-color="#7a2d86"/><stop offset=".38" stop-color="#7d1f8d"/><stop offset="1" stop-color="#83009d"/></linearGradient><circle cx="105.6" cy="83.9" r=".5" fill="url(#SVGID_38_)"/><linearGradient id="SVGID_39_" x1="104.006" x2="105.047" y1="84.52" y2="84.52" gradientUnits="userSpaceOnUse"><stop offset="0" stop-color="#7a2d86"/><stop offset=".38" stop-color="#7d1f8d"/><stop offset="1" stop-color="#83009d"/></linearGradient><circle cx="104.5" cy="84.5" r=".5" fill="url(#SVGID_39_)"/><linearGradient id="SVGID_40_" x1="114.476" x2="115.516" y1="81.344" y2="81.344" gradientUnits="userSpaceOnUse"><stop offset="0" stop-color="#7a2d86"/><stop offset=".38" stop-color="#7d1f8d"/><stop offset="1" stop-color="#83009d"/></linearGradient><circle cx="115" cy="81.3" r=".5" fill="url(#SVGID_40_)"/><linearGradient id="SVGID_41_" x1="113.321" x2="114.361" y1="81.344" y2="81.344" gradientUnits="userSpaceOnUse"><stop offset="0" stop-color="#7a2d86"/><stop offset=".38" stop-color="#7d1f8d"/><stop offset="1" stop-color="#83009d"/></linearGradient><circle cx="113.8" cy="81.3" r=".5" fill="url(#SVGID_41_)"/><linearGradient id="SVGID_42_" x1="112.199" x2="113.239" y1="81.829" y2="81.829" gradientUnits="userSpaceOnUse"><stop offset="0" stop-color="#7a2d86"/><stop offset=".38" stop-color="#7d1f8d"/><stop offset="1" stop-color="#83009d"/></linearGradient><circle cx="112.7" cy="81.8" r=".5" fill="url(#SVGID_42_)"/><linearGradient id="SVGID_43_" x1="110.926" x2="111.966" y1="81.923" y2="81.923" gradientUnits="userSpaceOnUse"><stop offset="0" stop-color="#7a2d86"/><stop offset=".38" stop-color="#7d1f8d"/><stop offset="1" stop-color="#83009d"/></linearGradient><circle cx="111.4" cy="81.9" r=".5" fill="url(#SVGID_43_)"/><linearGradient id="SVGID_44_" x1="109.991" x2="111.031" y1="81.923" y2="81.923" gradientUnits="userSpaceOnUse"><stop offset="0" stop-color="#7a2d86"/><stop offset=".38" stop-color="#7d1f8d"/><stop offset="1" stop-color="#83009d"/></linearGradient><circle cx="110.5" cy="81.9" r=".5" fill="url(#SVGID_44_)"/><linearGradient id="SVGID_45_" x1="108.822" x2="109.863" y1="81.923" y2="81.923" gradientUnits="userSpaceOnUse"><stop offset="0" stop-color="#7a2d86"/><stop offset=".38" stop-color="#7d1f8d"/><stop offset="1" stop-color="#83009d"/></linearGradient><circle cx="109.3" cy="81.9" r=".5" fill="url(#SVGID_45_)"/><linearGradient id="SVGID_46_" x1="122.194" x2="123.235" y1="80.48" y2="80.48" gradientUnits="userSpaceOnUse"><stop offset="0" stop-color="#7a2d86"/><stop offset=".38" stop-color="#7d1f8d"/><stop offset="1" stop-color="#83009d"/></linearGradient><circle cx="122.7" cy="80.5" r=".5" fill="url(#SVGID_46_)"/><linearGradient id="SVGID_47_" x1="121.134" x2="122.175" y1="80.372" y2="80.372" gradientUnits="userSpaceOnUse"><stop offset="0" stop-color="#7a2d86"/><stop offset=".38" stop-color="#7d1f8d"/><stop offset="1" stop-color="#83009d"/></linearGradient><circle cx="121.7" cy="80.4" r=".5" fill="url(#SVGID_47_)"/><linearGradient id="SVGID_48_" x1="120.094" x2="121.134" y1="80.38" y2="80.38" gradientUnits="userSpaceOnUse"><stop offset="0" stop-color="#7a2d86"/><stop offset=".38" stop-color="#7d1f8d"/><stop offset="1" stop-color="#83009d"/></linearGradient><circle cx="120.6" cy="80.4" r=".5" fill="url(#SVGID_48_)"/><linearGradient id="SVGID_49_" x1="119.054" x2="120.094" y1="80.38" y2="80.38" gradientUnits="userSpaceOnUse"><stop offset="0" stop-color="#7a2d86"/><stop offset=".38" stop-color="#7d1f8d"/><stop offset="1" stop-color="#83009d"/></linearGradient><circle cx="119.6" cy="80.4" r=".5" fill="url(#SVGID_49_)"/><linearGradient id="SVGID_50_" x1="117.76" x2="118.8" y1="80.582" y2="80.582" gradientUnits="userSpaceOnUse"><stop offset="0" stop-color="#7a2d86"/><stop offset=".38" stop-color="#7d1f8d"/><stop offset="1" stop-color="#83009d"/></linearGradient><circle cx="118.3" cy="80.6" r=".5" fill="url(#SVGID_50_)"/><linearGradient id="SVGID_51_" x1="116.72" x2="117.76" y1="80.859" y2="80.859" gradientUnits="userSpaceOnUse"><stop offset="0" stop-color="#7a2d86"/><stop offset=".38" stop-color="#7d1f8d"/><stop offset="1" stop-color="#83009d"/></linearGradient><circle cx="117.2" cy="80.9" r=".5" fill="url(#SVGID_51_)"/><linearGradient id="SVGID_52_" x1="115.516" x2="116.557" y1="80.859" y2="80.859" gradientUnits="userSpaceOnUse"><stop offset="0" stop-color="#7a2d86"/><stop offset=".38" stop-color="#7d1f8d"/><stop offset="1" stop-color="#83009d"/></linearGradient><circle cx="116" cy="80.9" r=".5" fill="url(#SVGID_52_)"/></g></switch></svg>
