<svg xmlns="http://www.w3.org/2000/svg" viewBox="0 0 17.8 18.5"><path fill="#C29D6A" d="M8.1 11.2c-.3.2-.7.3-.9.6-.3.4-.2 1.1.1 1.5.3.4.8.7 1.4.8.3.1.6.1.7.3.2.3.1.7.2 1 .1.1.2.3.3.3.3.1.6-.1.7-.4.1-.3.1-.6.1-.9 0-.8.2-1.5-.1-2.2-.2-.5-.7-.9-1.2-.9-.2 0-.4 0-.6-.1-.1 0-.2-.1-.2-.1-.2 0-.4 0-.5.1z"/><path fill="#C9B888" d="M7.6 11.5c-.1 0-.1-.1-.1-.1-.4-1.4-.8-2.7-1.2-4 .2 0 .3-.1.5 0 .1 0 .1.1.2.2.5 1 .5 2.2.8 3.4v.3c0 .1-.2.2-.2.2z"/><path fill="#926646" d="M8.8 13.9c.1 0 .2 0 .3.1.1.1.1.2.2.3.1.1.2.2.3.2-.1-.3-.2-.6-.4-.9-.1-.1-.2-.3-.3-.4-.3-.4-.5-.9-.7-1.4 0-.1-.1-.2-.2-.2s-.2 0-.2.1v.1c0 .1.1.3.2.4l.2.2c0 .1.1.1.1.2.1.4.3.8.5 1.1-.1 0 0 .1 0 .2zm1.5 1v.1l.2-.2c-.2-.1-.4-.1-.5 0-.2.1-.2.3-.1.5.2 0 .4-.1.5-.2M9 12.7c0 .1.1.2.2.3l.3.6c.1.2.3.4.5.4 0-.6-.5-1-.6-1.5 0-.1 0-.3-.1-.4-.1-.4-.6-.6-.6-1-.1 0-.2.1-.2.2s.1.2.1.3v.1s0 .1-.1.1c0 .1 0 .1.1.2.1 0 .1 0 .2.1.1 0 .1.3.2.6zm.4-1c.3.1.4.3.6.4.1.2.3.3.3.5v1.2c-.1-.3-.3-.6-.3-.9v-.2c0-.2-.2-.3-.3-.5-.1-.1-.1-.4-.3-.5z"/><path fill="#C3AF94" d="M14 14.9c.2 0 .4-.1.6-.2.4-.2.7-.3 1.1-.5.1-.1.3-.1.4-.3.1-.1.1-.3 0-.4-.1-.1-.2 0-.3 0-.5.1-1.1 0-1.6-.1-.1 0-.2-.1-.3-.1-.2-.1-.1-.4-.2-.6-.1-.3-.5-.5-.8-.7-.4-.2-.9-.3-1.2-.1-.4.3-.3.9-.3 1.3.1.4.1.8.4 1.1.3.4.8.5 1.3.6.2 0 .5.1.9 0z"/><path fill="#926646" d="M11.9 13c.2.2.3.5.6.7.1.1.3.1.5.2.5.1 1 .1 1.5.1-.5-.2-1-.2-1.4-.5-.5-.2-.9-.7-1.3-1.1-.1 0-.2.2-.2.3 0 .2.2.2.3.3zm.8 1.5h.3c-.5-.1-1.1-.1-1.5-.4-.3-.2-.5-.7-.4-1 .2.5.9 1.3 1.6 1.4z"/><path fill="#C9B888" d="M10.6 9.9c.1 0 .2-.1.3 0 .1 0 .3.1.4.2-.4.2-.8-.2-.7-.2z"/><path fill="#B5A580" d="M10.2 14.1c-.2-.9-.6-1.7-1-2.4.3.3.5.7.6 1.2.1.3.2.8.4 1.2z"/><path fill="#885A31" d="M7.2 11.9c0-.1.1-.1.2-.2.1 0 .2 0 .3.1.1.1.1.2.2.3.3.7.6 1.3 1 1.9-.2-.1-.4-.1-.6-.2-.4-.2-.7-.6-1-1-.2-.2-.3-.4-.3-.6.1-.1.1-.2.2-.3z"/><path fill="#C0B595" d="M12.1 12.2c.4.2.8.5 1.1.9-.5-.2-.8-.6-1.1-.9z"/><path fill="#C59C59" d="M11.6 11.9c-.1.1-.3.1-.4.2-.2-.4-.3-.8-.5-1.1-.1-.3-.3-.7-.3-1 .1.1.2.3.4.3s.4 0 .4-.2c0 .5.1 1 .4 1.5 0 0 .1.2 0 .3z"/><path fill="none" d="M15.9 13.6c-.2.2-.4.4-.6.5-.2.1-.4.1-.5.3.4 0 .7-.2 1.1-.3.1 0 .1-.1.2-.1 0-.3-.1-.5-.2-.4"/><path fill="#C0B595" d="M12.1 12.3c-.1-.1-.1-.2-.2-.2.2.3.5.6.8.8.2.1.3.1.5.3.2.2.3.4.6.4-.5-.2-.8-.7-1.2-1-.2-.2-.4-.2-.5-.3z"/><path fill="none" d="M13 14.3c-.5-.3-1-.7-1.4-1.2-.1.2.1.4.2.5.3.3.7.5 1.2.7z"/><path fill="#9B7A4C" d="M5.9 14.9c.2.2.4.4.4.6.1.4-.2.9-.7 1-.3.1-.6 0-.9 0-.6-.1-1.2-.2-1.7-.5-.5-.4-.7-.9-.7-1.4 0-.1 0-.2.1-.3.1-.1.3-.2.4-.2.6-.1 1.3-.2 1.9-.1.4.2.8.5 1.2.9z"/><path fill="#926646" d="M5.2 16.9c.3 0 .5-.1.7-.3.2-.1.4-.4.4-.6-.2.3-.6.5-1 .6-1.3.2-2.4-.3-2.8-1.6-.7 1.5 1.7 2.1 2.7 1.9z"/><path fill="#8E5E1A" d="M5.7 15c0 .1-.1.1-.1.2-.2.1-.4.1-.5.1H5c-.1 0 0 .1 0 .2s.1.1.1.2l-.1.1c-.2.1-.4 0-.5-.1-.4-.2-.7-.4-1.1-.6.1-.1.4-.2.4-.3 0-.1-.1-.2-.2-.3-.1-.3-.3-.5-.6-.5 1 0 2 .2 2.6.8.1.1.1.1.1.2zm.2.8h-.2c-.1 0-.2 0-.3.1-.2.1-.4.3-.5.5.3 0 .7-.1 1-.2 0 0 .1 0 .1-.1 0 0 0-.1-.1-.1v-.1"/><path fill="#AA9169" d="M13.3 8.6c-.2.1-.3.3-.5.5l-.5.5c-.1.1-.2.2-.2.4s.1.3.2.4c.5.4 1.2.6 1.8.5s1.3-.2 1.9-.4c.4-.1.8-.3 1.2-.6.3-.3.6-.7.5-1.1 0-.3-.2-.5-.4-.7-.3-.3-.6-.5-1-.5-.2 0-.4.1-.7.1-.4.1-.8.2-1.2.4-.3.1-.7.2-1.1.5z"/><path fill="#8E7B6A" d="M16.8 9.4c-.3.1-.6.2-.9.2-.3.1-.6.1-.9.2-.3.1-.6.1-.9.3.3.1.6 0 .9-.1.5-.1 1.1-.2 1.6-.4.2-.1.5-.1.6-.3-.1 0-.3.1-.4.1z"/><path fill="#5A3E1D" d="M14.3 9.3c-.1 0-.3.1-.4.1-.1.1-.3.2-.3.3l2.4-.6c.4-.1.9-.2 1.3-.2.1 0 .2 0 .2-.1.1-.1 0-.2-.1-.3-.2-.2-.6-.3-.9-.2-.1 0-.3.1-.4.2-.4.2-.8.2-1.1.4-.2.1-.4.3-.7.4zm1.9-1.2h.3c.1 0 .2 0 .3-.1-.5-.2-1.1-.2-1.6-.1s-1 .4-1.5.6c-.3.1-.6.3-.6.6.9-.3 1.7-.6 2.6-.9.1 0 .3-.1.5-.1z"/><path fill="#9D794D" d="M12.7 9.8v-.2h-.2c0-.1-.1-.1-.2-.1s-.1.2 0 .2h.1c.1 0 .1-.1.2 0 0 .1 0 .2.1.2h.1c.1-.1.1-.2.1-.3m.2.6c.3 0 .5-.1.8-.1-.1.1-.1.2-.2.2-.1.1-.2.1-.3 0-.2 0-.4-.1-.5-.2h.1"/><path fill="#BEAD8E" d="M8.9 3.6c.3.2.4.5.6.8.3.7.7 1.5.8 2.3.1.5 0 1.1-.3 1.5-.3.2-.5.4-.7.6-.2.2-.3.5-.5.7-.1.3-.3.5-.6.5-.2-.8.1-1.6 0-2.4-.1-.5-.4-.9-.8-1.2-.2-.2-.5-.3-.7-.5-.1-.1-.2-.3-.3-.5-.2-.4-.4-.8-.3-1.3.1-.4.5-.7 1-.8.4-.1.9 0 1.3.1.2 0 .3.1.5.2z"/><path fill="#632F19" d="M9.6 5.2c0 .1.1.1.1.2.1.1.1.2.1.3.1.5.1 1 0 1.5s-.3 1-.7 1.3c0-.2.2-.5.3-.8.3-.6.2-1.3.1-1.9l-.3-1.2c-.2-.4-.5-.7-.9-.9.4.3.8.7 1.1 1.2 0 .1.1.2.2.3z"/><path fill="#632F19" d="M8.6 7.2c-.2.4.3.8.1 1.2.1-.3.3-.4.4-.6.2-.4.1-.8.1-1.2-.1-.5-.1-1-.3-1.5-.2-.2-.4-.5-.6-.7-.3-.3-.6-.6-1-.6 0 .3.4.5.4.7v.3c.1.3.6.2.8.5.1.2 0 .4.1.6 0 .1.1.1.1.2.1.2 0 .4 0 .6v.2c0 .2-.1.2-.1.3z"/><path fill="#736052" d="M7.5 5.5c.1.4.3.8.6 1.2 0-.6-.3-1.2-.6-1.8-.3-.4-.5-.8-.9-1.1v.6l.1.1c.1 0 .2.1.3.2.3.2.4.5.5.8z"/><path fill="#B58963" d="M8.6 9.2c-.1.1-.2.3-.2.5.1 0 .1-.1.2-.1s.1-.1.1-.1 0-.2-.1-.2m0-1.1c-.2 0-.3.2-.3.3H9c.1 0 0-.1 0-.2-.1-.1-.3 0-.4-.1"/><path fill="none" d="M9.1 5.5c-.1-.3-.3-.6-.4-.9.1 0 .2 0 .2.1 0 0 .1.1.1.2.1.4.2.8.1 1.2 0-.3-.1-.6-.1-.9"/><path fill="#4C2B0F" d="M7.1 6c.2 0 .4.2.5.1V6c-.4-.2-.6-.5-.8-.9 0-.1-.1-.2-.1-.3-.1-.2-.4-.3-.6-.4 0 .2 0 .4.1.6.1.2.2.3.3.5 0 .1.1.2.1.3.1.1.2.2.3.2h.2z"/><path fill="#AA9169" d="M6.8 5.2c-.2-.2-.3-.4-.5-.5.2.1.3.1.5.2s.1.4 0 .3z"/><path fill="#A0836E" d="M4.9 9.3c.2.7 0 1.5-.5 2.1s-1.2.9-2 1c-.3 0-.7.1-1 .2-.2.1-.5.2-.7.3-.1 0-.2.1-.3 0-.1 0-.1-.1-.1-.2-.1-.3-.2-.5-.3-.8.7-.3 1.3-.8 1.5-1.4.1-.3.1-.6.1-.9 0-.5.2-1 .6-1.3.6-.4 1.3-.1 1.9.2.2.1.4.2.5.4.2.1.3.2.3.4z"/><path fill="#83563E" d="M3.3 8.7c0-.1-.1-.1 0 0-.1-.1-.2 0-.2 0-.3.2-.5.6-.7.9-.5.9-1.1 1.6-1.8 2.3 0 0 0 .1.1.1.7-.2 1.3-.7 1.8-1.3.3-.4.5-.9.7-1.3 0-.1.1-.2.1-.3.1-.2 0-.3 0-.4z"/><path fill="#A0836E" d="M1.5 12.2c-.2.1-.4.1-.6 0 .8-.1 1.4-.5 1.9-1.1.5-.6.8-1.3 1.2-2 .1 0 .2.1.2.2v.3c-.2.3-.4.6-.6.8-.3.4-.6.7-.9 1.1s-.8.6-1.2.7zM4 11.1c.2-.3.3-.6.3-.9 0-.2.1-.4.1-.6.2.1.3.2.3.4s0 .3-.1.5c0 .1-.1.3-.1.4-.3.6-.9.9-1.5 1 .4-.3.7-.5 1-.8z"/><path fill="#B99456" d="M1.5 12.2C2.7 12 3.8 11 4.1 9.8c0-.1 0-.1.1-.2 0-.1.1-.1.2-.1s.1.1.1.1c0 .1 0 .2-.1.4-.1.3-.2.5-.3.8l-.3.6c-.1.1-.3.2-.4.3-.4.1-.6.3-1 .4-.3.1-.6.2-.9.1H.6c0 .1 0 .1.1.2.1 0 .1.1.2.1s0 .1 0 .2c-.1.1-.2 0-.2 0-.1-.1-.1-.2-.1-.2 0-.1-.1-.2-.2-.2s-.1 0-.2-.1 0-.2.1-.2h.2c.1 0 .1.1 0 .2.3 0 .6-.1.8-.3.7-.4 1.1-1 1.4-1.7.3-.5.5-1 .4-1.5.3 0 .4.2.6.3 0 0 .1.1.1.2v.2c-.3.7-.6 1.4-1.1 1.9-.3.4-.7.7-1.2.8"/><path fill="#C1B198" d="M3.5 8.5l.1.1h.3c.2 0 .2.2.4.4.1 0 .2.1.3.2.2.1.2.3.2.5 0-.1-.1-.2-.1-.3s-.2-.2-.3-.1c0-.1-.1-.2-.2-.3-.1 0-.2-.1-.3-.1h-.1s0-.1-.1-.1c-.1-.2-.2-.3-.4-.3h-.5c.2-.2.5-.2.7 0zm-.9.2c.1-.1.2-.2.2-.4-.2.1-.3.3-.5.5 0 .2-.1.3-.2.5s-.3.4-.4.6-.2.4-.2.7c.4-.4.7-.9.9-1.5.1-.2.1-.3.2-.4z"/><path fill="#8F7153" d="M14.9 14.1s0 .1-.1.1c0 0-.1.1-.2.1-.2 0-.3.2-.5.3-.2.1-.5.1-.7.3v.1c0 .1.1.1.1.1.6 0 1.3-.2 1.8-.6.1-.1.3-.2.3-.3-.2-.1-.4-.2-.5-.2 0 .1 0 .2.1.2-.1-.2-.2-.2-.3-.1z"/><path fill="#A0836E" d="M6.1 10c.2.7 0 1.5-.5 2.2s-1.2.9-1.9 1c-.3 0-.7.1-1 .2-.2.1-.5.2-.7.3-.1 0-.2.1-.3 0-.1 0-.1-.1-.1-.2-.1-.3-.2-.5-.3-.8.7-.3 1.3-.8 1.5-1.4.1-.3.1-.6.1-.9 0-.5.2-1 .6-1.3.5-.5 1.2-.2 1.8.1.2.1.4.2.5.4.2.2.3.3.3.4z"/><path fill="#83563E" d="M4.5 9.5c0-.1-.1-.1 0 0-.1-.1-.2 0-.2 0-.3.3-.4.6-.5.9-.5.9-1.1 1.7-1.8 2.4 0 0 0 .1.1.1.7-.2 1.3-.7 1.8-1.3.3-.4.5-.9.8-1.4 0-.1.1-.2.1-.3-.2-.2-.3-.3-.3-.4z"/><path fill="#A0836E" d="M2.8 13.1c-.2.1-.4.1-.6 0C3 13 3.6 12.6 4 12c.5-.6.8-1.3 1.2-2.1.1 0 .2.1.2.2v.3c-.1.3-.3.5-.5.8-.3.5-.6.8-.9 1.2-.2.4-.7.6-1.2.7zM5.2 12c.2-.3.3-.6.3-.9 0-.2.1-.4.1-.6.1.1.2.3.2.4 0 .2 0 .3-.1.5 0 .1-.1.3-.1.4-.3.6-.9.9-1.5 1 .5-.3.8-.5 1.1-.8z"/><path fill="#B99456" d="M2.8 13.1c1.2-.2 2.2-1.2 2.5-2.4 0-.1 0-.1.1-.2 0-.1.1-.1.2-.1s.1.1.1.1c0 .1 0 .2-.1.4-.1.3-.2.5-.3.8-.1.2-.2.3-.3.5-.1.1-.3.2-.4.3-.3.2-.6.3-.9.4-.3.2-.6.2-.9.2h-.9c0 .1 0 .1.1.2.1 0 .1.1.2.1v.2c-.1.1-.2 0-.2 0l-.1-.2c0-.1-.1-.2-.2-.2s-.1 0-.2-.1 0-.2.1-.2h.2c.1 0 .1.1 0 .2.3 0 .6-.1.8-.3.7-.4 1.1-1 1.4-1.8.3-.5.5-1 .4-1.5.1.1.2.3.4.4 0 0 .1.1.1.2v.2c-.3.7-.6 1.4-1.1 2-.3.4-.7.7-1.2.8"/><path fill="#C1B198" d="M4.7 9.3l.1.1h.3c.2 0 .2.2.4.4.1.1.2.1.3.2.2.1.2.3.2.6 0-.1-.1-.2-.1-.3-.1-.1-.2-.1-.3-.1 0-.1-.1-.2-.2-.3-.1-.2-.2-.2-.3-.2H5s0-.1-.1-.1c-.1-.2-.2-.3-.4-.3H4c.2-.2.5-.2.7 0z"/><path fill="#C29D6A" d="M9.9 13.9c-.3.2-.7.3-.9.6-.3.4-.2 1.1.1 1.5.3.4.8.7 1.4.8.3.1.6.1.7.3.2.3.1.7.2 1 .1.1.2.3.3.3.3.1.6-.1.7-.4.1-.3.1-.6.1-.9 0-.8.2-1.5-.1-2.3-.2-.5-.7-.9-1.2-.9-.2 0-.4 0-.6-.1-.1 0-.2-.1-.2-.1-.2.1-.4.2-.5.2z"/><path fill="#C9B888" d="M9.3 14.2c-.1 0-.1-.1-.1-.1-.4-1.3-.8-2.7-1.2-4 .2 0 .3-.1.5 0 .1 0 .1.1.2.2.5 1 .5 2.3.8 3.5v.3c0 .1-.1.1-.2.1z"/><path fill="#926646" d="M10.6 16.6c.1.1.2.1.2.1.1.1.1.2.2.3.1.1.2.2.3.2-.1-.3-.2-.6-.4-.9-.1-.1-.2-.3-.3-.4-.3-.4-.5-.9-.7-1.4 0-.1-.1-.2-.2-.2s-.2 0-.2.1v.1c0 .1.1.3.2.4l.2.2c0 .1.1.1.1.2.1.4.3.8.5 1.1 0 .1 0 .1.1.2zm1.4 1.1v.1l.2-.2c-.2-.1-.4-.1-.5 0-.2.1-.2.3-.1.5.2 0 .4-.1.5-.2m-1.3-2.5c0 .1.1.2.2.3l.3.6c.1.2.3.4.5.5 0-.6-.5-1-.6-1.5 0-.1 0-.3-.1-.4-.1-.4-.6-.6-.6-1-.1 0-.2.1-.2.2s.1.2.1.3v.1s0 .1-.1.1c0 .1 0 .1.1.2.1 0 .1 0 .2.1.1-.1.1.2.2.5zm.4-1c.3.1.4.3.6.4.1.2.3.3.3.5v1.2c-.1-.3-.3-.6-.3-.9v-.2c0-.2-.2-.3-.3-.5-.1-.1-.1-.4-.3-.5z"/><path fill="#C3AF94" d="M15.5 17.7c.2 0 .4-.1.6-.2.4-.2.7-.3 1.1-.5.1-.1.3-.1.4-.3.1-.1.1-.3 0-.4-.1-.1-.2 0-.3 0-.5.1-1.1 0-1.6-.1-.1 0-.2-.1-.3-.1-.2-.1-.1-.4-.2-.6-.1-.3-.5-.5-.8-.7-.4-.2-.9-.3-1.2-.1-.4.3-.3.9-.3 1.3.1.4.1.8.4 1.1.3.4.8.5 1.3.6.3 0 .7.1.9 0z"/><path fill="#926646" d="M13.6 15.8c.2.2.3.5.6.7.1.1.3.1.5.2.5.1 1 .1 1.5.1-.5-.2-1-.2-1.4-.5-.5-.2-.9-.7-1.3-1.1-.1 0-.2.2-.2.3 0 .1.2.2.3.3zm.7 1.6h.3c-.5-.1-1.1-.1-1.5-.4-.3-.2-.5-.7-.4-1 .3.4 1 1.2 1.6 1.4z"/><path fill="#C9B888" stroke="#C93" d="M12.3 12.5c.1 0 .2-.1.3 0 .1 0 .3.1.4.2-.4.2-.8-.2-.7-.2z"/><path fill="#B5A580" d="M11.9 16.8c-.2-.9-.6-1.8-1-2.5.3.3.5.7.6 1.2.2.5.2.9.4 1.3z"/><path fill="#885A31" d="M8.9 14.6c0-.1.1-.1.2-.2.1 0 .2 0 .3.1.1.1.1.2.2.3.3.7.6 1.3 1 2-.2-.1-.4-.1-.6-.2-.4-.2-.7-.6-1-1-.1-.2-.3-.4-.2-.6 0-.2.1-.3.1-.4z"/><path fill="#C0B595" d="M13.8 14.9c.4.2.8.5 1.1.9-.5-.2-.8-.6-1.1-.9z"/><path fill="#C59C59" d="M13.3 14.6c-.1.1-.3.1-.4.2-.2-.4-.3-.8-.5-1.1-.1-.3-.3-.7-.3-1 .1.1.2.3.4.3s.4 0 .4-.2c0 .5.1 1 .4 1.5 0 0 .1.2 0 .3z"/><path fill="none" d="M17.5 16.3c-.2.2-.4.4-.6.5-.2.1-.4.1-.5.3.4 0 .7-.2 1.1-.3.1 0 .1-.1.2-.1 0-.3-.1-.5-.2-.4"/><path fill="#C0B595" d="M13.8 15c-.1-.1-.1-.2-.2-.2.2.3.5.6.8.8.2.1.3.1.5.3.2.2.3.4.6.4-.5-.2-.8-.7-1.2-1-.3-.1-.4-.2-.5-.3z"/><path fill="none" d="M14.6 17.1c-.5-.3-1-.7-1.4-1.2-.1.2.1.4.2.5.4.2.8.5 1.2.7z"/><path fill="#BEAD8E" d="M12.1 4.7c.3.2.4.5.6.8.3.7.7 1.5.8 2.4.1.5 0 1.1-.3 1.5-.2.3-.5.4-.7.7-.2.2-.3.5-.4.7s-.4.4-.7.4c-.2-.8.1-1.7 0-2.5-.1-.5-.4-.9-.8-1.2-.1-.1-.4-.3-.6-.5-.1-.1-.2-.3-.3-.5-.2-.4-.4-.9-.3-1.3.1-.4.5-.7 1-.8.4-.1.9 0 1.3.1.1.1.3.1.4.2z"/><path fill="#632F19" d="M12.8 6.4c0 .1.1.1.1.2.1.1.1.2.1.3.1.5.1 1 0 1.5s-.3 1-.7 1.3c-.1-.3.2-.6.3-.8.3-.6.2-1.3.1-2l-.3-1.2c-.2-.4-.5-.7-.9-.8.4.3.8.7 1.1 1.2.1.1.1.2.2.3z"/><path fill="#632F19" d="M11.9 8.5c-.2.4.3.8.1 1.2.1-.2.3-.4.4-.6.2-.3.1-.7.1-1.1-.1-.5-.1-1-.3-1.5-.1-.3-.3-.6-.5-.8-.3-.3-.6-.6-1-.6 0 .3.4.5.4.7v.3c.1.3.6.2.7.5.1.2 0 .4.1.6.1.1.2.1.2.2.1.2 0 .4 0 .6v.2c-.1.1-.2.2-.2.3z"/><path fill="#736052" d="M10.8 6.6c.1.4.3.8.6 1.2 0-.6-.3-1.2-.6-1.9-.2-.4-.5-.8-.8-1.1v.6l.1.1c.1.1.3.2.4.3.1.2.2.5.3.8z"/><path fill="#B58963" d="M11.9 10.6c-.2.1-.3.3-.2.5.1 0 .1-.1.2-.1s.1-.1.1-.1 0-.2-.1-.2m0-1.3c-.2 0-.3.2-.3.3h.7c.1 0 .1-.1.1-.2-.2 0-.4 0-.5-.1"/><path fill="#AA9169" d="M14 4.7l.5.5c.2.1.3.3.5.4.1.1.2.2.4.2s.3-.1.4-.3c.4-.6.4-1.2.3-2-.1-.6-.3-1.3-.6-2-.2-.4-.4-.8-.7-1.1-.3-.3-.8-.5-1.2-.4-.2.1-.5.2-.6.4-.3.3-.4.7-.4 1.1 0 .2.1.4.2.6.2.5.3.9.5 1.3.2.5.4 1 .7 1.3z"/><path fill="#8E7B6A" d="M14.5 1.1l.3.9c.1.3.2.6.2.9.1.3.2.6.4.8 0-.3-.1-.6-.2-.9-.2-.5-.3-1-.5-1.5-.1-.2-.2-.5-.4-.6 0-.1.1.2.2.4z"/><path fill="#5A3E1D" d="M14.6 3.5c.1.1.1.3.2.4.1.1.2.2.3.2-.3-.8-.6-1.7-.9-2.5-.2-.4-.3-.8-.4-1.3 0-.1 0-.2-.1-.2s-.2 0-.2.1c-.2.3-.2.6-.1.9.1.1.1.3.2.4.2.3.3.8.5 1.1.2.5.4.7.5.9zm-1.4-1.8v-.3c0-.1-.1-.2-.2-.3-.2.5-.1 1.1.1 1.7.2.5.5 1 .8 1.5.2.3.4.5.7.5-.4-.8-.8-1.7-1.2-2.5-.1-.1-.2-.3-.2-.6z"/><path fill="none" d="M12.3 6.6c-.1-.3-.3-.6-.4-.9.1 0 .2 0 .2.1.1.1.1.1.1.2.1.4.2.8.1 1.2 0-.3-.1-.6-.1-.8"/><path fill="#9D794D" d="M15.3 5.2c-.1 0-.1 0-.2.1s0 .1.1.2c-.1 0-.1.1-.1.2.1.1.2 0 .2 0v-.1c0-.1-.1-.1 0-.1s.2-.1.2-.1v-.1c-.1-.1-.2-.1-.2-.1m.2-.5c-.1-.2-.1-.5-.2-.7.1.1.2.1.2.2.1.1.1.2.1.3 0 .2-.1.4-.2.5"/><path fill="#4C2B0F" d="M10.4 7.2c.2 0 .4.2.5.1v-.1c-.4-.2-.6-.6-.7-1 0-.1 0-.2-.1-.3-.1-.2-.4-.2-.6-.4-.1.2 0 .4.1.5.1.2.2.3.3.5 0 .1.1.2.1.3 0 .1.1.2.3.2 0 .2.1.2.1.2z"/><path fill="#AA9169" d="M10.1 6.3c-.1-.2-.3-.3-.4-.5.2.1.3.1.5.2.2.2 0 .4-.1.3z"/><path fill="#C1B198" d="M3.9 9.5c.1-.1.1-.2.1-.4-.1.1-.2.3-.3.5-.1.2-.1.3-.2.5s-.3.4-.4.6c-.1.3-.2.5-.2.8.4-.4.7-.9.9-1.5 0-.3 0-.4.1-.5z"/><path fill="#8F7153" d="M16.5 16.8s0 .1-.1.1c0 0-.1.1-.2.1-.2 0-.3.2-.5.3-.2.1-.5.1-.7.3v.1c0 .1.1.1.1.1.6 0 1.3-.2 1.8-.6.1-.1.3-.2.3-.3-.2-.1-.4-.2-.5-.2 0 .1 0 .2.1.2-.1-.2-.2-.2-.3-.1z"/><path fill="#6A681C" stroke="#330" stroke-miterlimit="10" stroke-width=".25" d="M9.1 8.6c.4 0 .7.2.9.5.1.2.1.4.2.6 0 .6-.2 1.3-.7 1.7-.2.2-.4.4-.7.5-.8.6-1.8 1.1-2.8.9-.4 0-.7-.2-1.1-.1-.2.1-.4.2-.7.2h-.1c-.1 0-.1-.1 0-.2.2-.8.6-1.6 1.1-2.2.3-.3.6-.5.9-.8 1-.5 2-1.2 3-1.1z"/><path fill="#A79230" d="M4.2 13.1V13c.1-.4.2-.8.4-1.3.1.2.2.4.2.7 0 .1 0 .2.1.2H5c.2 0 .3.1.5.1h.2c0 .1-.4 0-.4 0-.3.1-.5.3-.8.3-.2.1-.3.1-.3.1zm5.3-4.4c0 .1 0 .2-.1.3-.2.1-.3.2-.2.3.1.2.3.1.5.1 0 .1 0 .2-.1.3-.1.1-.1.2 0 .3h.1c.1 0 .3 0 .4-.1.1-.1.2-.2.2-.3 0-.1 0-.1-.1-.2-.2-.4-.4-.6-.7-.7" opacity=".76"/><path fill="#6A681C" stroke="#330" stroke-miterlimit="10" stroke-width=".25" d="M5.6 6.4c-.4 0-.7.2-.9.5-.1.2-.2.4-.2.6 0 .6.2 1.3.7 1.7.2.2.4.4.7.5.8.6 1.8 1.1 2.8.9.4 0 .7-.2 1.1-.1.2.1.4.2.7.2h.1c.1 0 .1-.1 0-.2-.2-.8-.6-1.6-1.1-2.2-.4-.1-.7-.4-1-.6-.8-.7-1.8-1.4-2.9-1.3z"/><path fill="#A79230" d="M10.5 10.9v-.1c-.1-.4-.2-.8-.4-1.3 0 .2-.1.5-.1.7 0 .1 0 .2-.1.2h-.1c-.2 0-.3.1-.5.1h-.2c0 .1.4 0 .4 0 .3.1.5.3.8.3.1.1.2.1.2.1zM5.3 6.5c0 .1 0 .2.1.3.1.1.3.2.2.4-.1.1-.3.1-.5 0 0 .1 0 .2.1.3.1.1.1.2 0 .3h-.1c-.1 0-.3 0-.4-.1s-.2-.2-.2-.3c0-.1 0-.1.1-.2.1-.3.4-.6.7-.7" opacity=".76"/><path fill="#663" stroke="#330" stroke-miterlimit="10" stroke-width=".25" d="M10.6 10.4c-.3.2-.7.4-1 .3-.2 0-.4-.2-.5-.3-.5-.5-.8-1.1-.8-1.7 0-.3 0-.6.1-.8.2-1 .5-2 1.3-2.6.3-.3.7-.5.8-.8.1-.2.1-.5.3-.6h.1c.1-.1.1 0 .2.1.5.7.7 1.5.8 2.4 0 .4 0 .8-.1 1.2-.1 1-.3 2.1-1.2 2.8z"/><path fill="#A79230" d="M10.9 3.8c.1 0 .1 0 0 0 .3.5.5.8.7 1.2-.2-.1-.4-.2-.6-.4-.1-.1-.1-.1-.2-.1 0 0-.1 0-.1.1-.1.1-.3.2-.4.2 0 0-.1.1-.2.1 0 0 .3-.2.3-.3.2-.3.2-.5.4-.8.1 0 .1-.1.1 0zm-.6 6.8c-.1-.1-.1-.2-.1-.3s0-.3-.1-.4c-.2-.1-.3.1-.4.3-.1 0-.1-.2-.1-.3s-.1-.2-.2-.2c0 0-.1 0-.1.1s-.1.2-.2.3c0 .1 0 .3.1.4.1.1.1.1.2.1.3.1.6.1.9 0" opacity=".76"/><path fill="#6A681C" stroke="#330" stroke-miterlimit="10" stroke-width=".25" d="M14.6 9.4c.2-.3.4-.7.3-1 0-.2-.2-.4-.3-.5-.4-.5-1.1-.7-1.7-.7-.3 0-.6 0-.8.1-1 .2-2 .5-2.6 1.3-.2.2-.4.6-.7.8-.2.1-.5.1-.6.3v.1c0 .1.1.1.1.2.7.5 1.5.7 2.4.8.4 0 .8 0 1.2-.1.9-.2 2.1-.4 2.7-1.3z"/><path fill="#A79230" d="M8 9.8s.1 0 0 0c.5.3.8.5 1.2.7 0-.3-.2-.4-.3-.6-.1-.1-.1-.1-.1-.2 0 0 0-.1.1-.1.1-.2.1-.3.2-.5 0 0 .1-.1.1-.2 0 0-.2.3-.3.3-.3.3-.5.2-.8.4 0 .1-.1.1-.1.2zm6.8-.6c0-.2-.1-.2-.3-.2-.1 0-.3 0-.4-.1-.1-.2.1-.3.3-.4 0-.1-.2-.1-.3-.1-.1 0-.2-.1-.2-.2 0 0 0-.1.1-.1.1-.1.2-.2.3-.2.1 0 .3 0 .4.1.1.1.1.1.1.2.2.3.2.7 0 1" opacity=".76"/><path fill="#663" stroke="#330" stroke-miterlimit="10" stroke-width=".25" d="M9.1 12.1c-.3.2-.6.4-.7.8 0 .2 0 .4.1.6.2.6.7 1.1 1.2 1.4.3.1.5.2.8.3 1 .2 2.1.4 2.9-.1.3-.2.6-.4 1-.5.2 0 .5.1.7 0h.1v-.2c-.4-.7-1.1-1.3-1.8-1.7-.4-.2-.7-.3-1.1-.4-1.1-.4-2.2-.7-3.2-.2z"/><path fill="#A79230" d="M15.3 14.5v-.1c-.3-.3-.5-.7-.8-1 0 .2 0 .5.1.7 0 .1.1.2 0 .2l-.1.1c-.1.1-.3.2-.4.3l-.2.1c0 .1.3-.2.4-.2.3-.1.6.1.9 0 0 0 .1 0 .1-.1zm-6.5-2.2c0 .1.1.2.2.2s.3.1.3.3c0 .2-.2.2-.4.2 0 .1.1.2.2.2.1.1.2.2.1.2h-.1c-.1 0-.3.1-.4 0s-.3-.1-.3-.2V13c0-.2.2-.5.4-.7" opacity=".76"/><path fill="#AA9169" d="M8.6 11c-.2.1-.3.3-.5.5l-.5.5c-.1.1-.2.2-.2.4s.1.3.2.4c.5.4 1.2.6 1.8.5.7 0 1.3-.2 1.9-.4.4-.1.8-.3 1.2-.6.3-.3.6-.7.5-1.1 0-.3-.2-.5-.4-.7-.3-.3-.6-.5-1-.5-.2 0-.4.1-.7.1-.4.1-.8.2-1.2.4-.3.1-.7.3-1.1.5z"/><path fill="#8E7B6A" d="M12.1 12c-.3.1-.6.2-.9.2-.3.1-.6.1-.9.2-.3.1-.6.1-.9.3.3.1.6 0 .9-.1.5-.1 1.1-.2 1.6-.4.2-.1.5-.1.6-.3-.1-.1-.2-.1-.4.1z"/><path fill="#5A3E1D" d="M9.6 11.8c-.1 0-.3.1-.4.1-.1.1-.3.2-.3.3.8-.2 1.6-.4 2.3-.6.4-.1.9-.2 1.3-.2.1 0 .2 0 .2-.1.1-.1 0-.2-.1-.3-.2-.2-.6-.3-.9-.2-.1 0-.3.1-.4.2-.4.2-.8.2-1.1.4-.1.1-.3.3-.6.4zm2-1.2h.3c.1 0 .2 0 .3-.1-.5-.2-1.1-.2-1.6-.1s-1 .4-1.5.6c-.3.1-.6.3-.6.6.9-.3 1.7-.6 2.5-.9.1 0 .3-.1.6-.1z"/><path fill="#9D794D" d="M8.1 12.4v-.2h-.2c0-.1-.1-.1-.2-.1-.1.1-.1.2 0 .2h.1c.1 0 .1-.1.2 0 0 .1 0 .2.1.2h.1c.1-.1.1-.2.1-.3m.3.6c.3 0 .5-.1.8-.1-.1.1-.1.2-.2.2-.2.1-.3.1-.4 0-.2 0-.4-.1-.5-.2h.1"/><path fill="#AA9169" d="M5.8 8c-.1.2 0 .4 0 .7v.7c0 .1 0 .3.2.4.1.2.3.2.4.2.7-.1 1.3-.4 1.6-.9.5-.5.8-1 1-1.6.2-.3.3-.8.4-1.3 0-.4-.1-.9-.5-1.1-.1-.2-.4-.2-.7-.3-.4 0-.8 0-1.1.3-.1.2-.2.4-.4.6-.2.4-.4.7-.5 1.1-.1.3-.3.7-.4 1.2z"/><path fill="#8E7B6A" d="M8.9 6.2c-.2.3-.3.6-.5.8-.1.3-.4.5-.5.7-.1.3-.3.5-.4.9.3-.1.4-.4.5-.7.3-.4.7-.9.9-1.4.1-.2.3-.4.2-.6-.1 0-.2.1-.2.3z"/><path fill="#5A3E1D" d="M7.1 7.9c-.1 0-.2.2-.2.3 0 .1-.1.4 0 .4l1.2-2.1c.2-.3.5-.8.8-1 0-.1.1-.1 0-.2 0-.1-.1-.1-.3-.1-.3-.1-.6.1-.7.4-.1.1-.2.3-.2.4-.1.5-.4.7-.4 1.1-.1.2-.1.5-.2.8zm.5-2.3l.2-.2c.1-.1.1-.1.1-.3-.5.2-.9.6-1.2 1-.3.4-.4 1-.6 1.5-.1.3-.2.7.1.9.4-.9.7-1.6 1.1-2.5 0 0 .1-.2.3-.4z"/><path fill="#9D794D" d="M6.3 9.3l-.1-.1c-.1 0-.1 0-.2.1 0-.1-.1 0-.2.1 0 .1.1.2.1.1l.1-.1c.1-.1 0-.1.1-.1.2.1.2.2.2 0 .1.1.1.1.1 0s-.1-.2-.1-.3m.7.3c.2-.2.3-.4.5-.6 0 .1.1.2 0 .3 0 .1-.1.2-.2.2-.2.1-.4.1-.5.1l.1-.1"/></svg>
