<svg xmlns="http://www.w3.org/2000/svg" version="1.0" viewBox="0 0 220 129"><switch><g><linearGradient id="a" x2="220.72" y1="64.75" y2="64.75" gradientUnits="userSpaceOnUse"><stop offset="0" stop-color="#aadee8"/><stop offset="1" stop-color="#4dbc93"/></linearGradient><path fill="url(#a)" d="M0 0h220.7v129.5H0z"/><path fill="#FF701F" d="M30.3 3.2v3.1L13.2 37.9H7.7L24.8 7.2v-.1H5.5V3.2h24.8z"/><path fill="#8AA007" d="M112.5 16s-17.7 1.2-17.8 1.5c-.1.3 0 1.3 0 1.3l.6.4s-11.1-1-14.1-.3c-3.1.7-6.5 2.1-5.9 4.1.4 1.3 2.5 2.9 3.9 3.1 1.2.2-.1.3.8.8.6.3.5-.2 1 .5.4.5 1.5.8 2.1 1 .9.3 1.8.6 2.7.7 4.1.7 5.9 1.2 14.7 1.5 8.8.3 16.3-.7 19.3-1.2 0 0 3.1-.6 5.7-1.2s3.9-1.1 5.6-1.6c1.7-.4 2.9-.9 3.2-1.1.4-.2.4-.1.4-.8-.1-.7-2.9-3.6-4-4.4-1.1-.8-7.1-2.1-7.5-2.4-.4-.3-1.9-.6-3.5-.9-1.6-.3-3.2-.6-3.7-.6-.4-.1-1.6-.2-2.4-.2h-.4"/><path fill="#B1E00A" d="M91.1 19.6s-1.1-.1-1.8 0c-.5.1-.7.3-1 .6-.1.1-.1.3-.2.5-.3.7.2.6 1.2 1s1.2-.6 1.8-.9c.7-.3 2.9-1.3 2.9-1.3l.3-1.8-.5-9.7s1.3 2.3 1.5 2.9c.2.6 1.3 2.3 1.3 2.3l.2-2.2s.8-1.1.5-1.6c-.3-.5.2-.8.3-1.2.1-.5.8-1 .8-1s-5.3-3.5-6-3c-.7.5-.9 4.6-.7 6.7.2 2.1 1 5.2 1 5.2l-.1 2.2s-1 .7-1.3.7c-.3 0-2.7.2-3.2 0s-1.3-.2-1.6-.2c-.3 0-.7-.2-1.1-.1-.4.1-1.1.9-1.1.9l1.4.2s-.3.3.3.5 1.5 0 1.5 0l3.6-.7z"/><path fill="#0A0A0A" stroke="#0A0A0A" stroke-width="1.782" d="M96.5 24.3c-.6.2-1 .7-1.5 1.1-.6.4-1.2.6-1.8.9-1.3.7-2.7 1.4-3.9 2.3-1.4 1-.6 2 .6 2.6.7.3 1 .4 1.7.3.5 0 1.1-.1 1.5.1.1 1.2-.9 2.4-.6 3.6.1.7.9.6 1.5.3.3-.2.5-.6.7-.8.3-.4.7-.5 1-.8.5-.6.7-1.1 1.6-1.3.7-.1 1.2.4 1.4 1.1.1.5-.1 1.2-.2 1.7-.1.6-.2 1.2-.4 1.8-.5 1.4-.6 2.5 1.1 3 1.2.4 2.5.3 3.4-.6.5-.4.7-1.1 1.4-1.2.2 0 .7.2.8.3.4.3.3.7.5 1 .7.8 2.7.6 3.5.1 1-.5 1.4-1.5 1.5-2.5 0-.3.2-.9.1-1.2-.1-.6-.5-.8-.6-1.4-.1-.5.1-.8.3-1.3.2-.4 0-1 .1-1.4.3-.6 2-.8 2.5-.6-.3.6 0 1 .6.8 0 .3-.3 1.1-.5 1.3-.2.2-.6.2-.6.5-.1.3.3.5.4.7.2.6-.1.9.6 1.2.3.1 1 .4 1.4.4.8-.1.7-1.7.9-2.4.1-.7.7-2 .4-2.8-.1-.2-.4-.3-.4-.5-.1-.2 0-.5 0-.7-.1-.4-.6-1.1-.5-1.4 0-.1.6-.3.7-.5.1-.2.2-.5.3-.7.1-.4.3-.9.2-1.4l-.3-2.7c-.1-1.2-1.2-1.1-2.2-1.2.2.9-.1 2.1-.1 3 0 .4.4 3.5-.5 2.8-.2-.1-.4-1.3-.4-1.5 0-.6.3-1 .2-1.6-.1-.6-.3-1-.6-1.5-.2-.4-.4-.4-.7-.7-.1-.1-.5-.6-.6-.6-.8-.3-2.1 2.7-2.5.6 0-.3.2-.4.1-.7 0-.1-.7-.2-.8-.2-.6-.1-1.2.1-1.8.1-1.1.1-1.8-.2-2.9-.1-.6 0-3.3-.4-3.6-.8-.1.6 1 2.1-1.1 2.5-.4.1-.5-.4-.9-.3-.3.1-.6.7-.7 1" opacity=".11"/><path fill="#98BE29" d="M106.4 23.6c-.6.8-.5 2.8-.6 3.8-.1.9-.6 2.7.1 3.5 1.5-.5 1.4-3.5 1.7-4.7.2-.8.5-1.6.5-2.4 0-.6-.1-.7-.6-.8-.4 0-.9.1-1.1.6m10.1 1c.5.4 1.2.8 1.6 1.4.3.5.5 1.2.9 1.7.2.3.6.5.8.7.1.1.5.6.6.7.2.1 1.4-.3 1.6-.4-.2-.5-.8-.7-1.1-1.2-.3-.5-.6-1.1-.9-1.5-.4-.5-.8-1.1-1.3-1.5-.5-.4-1.1-.6-1.6-.9-.4-.3-.9-1.2-1.3-1.3-.6-.2-1.1.5-1 .9.1 1 1.5 2.3 2.5 2.2m.9-3.1c.9.1 2.1.4 3 .7 1 .3 2 .4 3 .7 1.2.4 2.4 1 3.6 1.5.8.3 2.3.8 2.5 1.6-.4.5-1 .7-1.5.4-.5-.4-.9-1-1.6-1.3-1.2-.7-2.5-1.2-3.8-1.7-1.1-.5-2.2-1-3.4-1.3-1-.3-2.7.2-3.2-.8.4-.2 1.1.4 1.6.4m14 0c-.9.1-1.9-.4-2.8-.4-1 0-2-.1-2.9-.1-1.5-.1-3 .4-4.4.3-1-.1-2.5.1-3.4-.5.5-.4.8-.3 1.3-.3.3 0 .4.1.7.1.3 0 .7-.1 1-.1 1.1 0 2.2.1 3.3-.1 1.1-.2 2.3-.2 3.4 0 .8.1 1.6.3 2.4.3.3 0 .7-.2 1 0 .1 0 .5.8.4.8zM90.6 22c-.4 0-1 .7-1.4.9-.5.3-.9.6-1.4.9-1 .7-2.1 1.2-3.2 1.7-.8.4-2 .4-2.8 1-.6.6-.3.8-1.1.5-.4-.1-1.4-.2-1-.9.3-.4 1-.2 1.4-.2.6-.1.9-.3 1.4-.6.9-.6 1.9-1.1 2.9-1.4 1-.3 2-.9 3-1.4.2-.1.5-.1.7-.2.2-.1.4-.5.6-.6.8-.4.7.4.3.9"/><path fill="#BEEF0C" d="M111.4 14.9s-.1-2.7-.4-3.7c-.2-1-6-3.1-7.4-3.2-1.5-.1-6.4.9-6.8 1.4-.4.5-.7 3.4-.6 3.9.1.5.1 2 .1 2h7.3c1 0 4.3.6 4.7.8.3.2 3.1-1.2 3.1-1.2z"/><path fill="#BBE50A" d="M96.3 15.8c.1-.3-.6-2 5.2-1.9 5.9.1 7.9-.2 8.5.5.6.6 1.3 1.4 1 2.5-.3 1.2-1.2 3.5-2 3.7-.8.3-2.2.9-4.6 1-1.4.1-4.7 0-5.9-1-.6-.5-1.6-1.3-1.8-1.8-.2-.5-.3-1.6-.4-2-.2-.4 0-1 0-1z"/><path fill="#AFDD07" d="M85.8 19.1c0 .4-.4.7-1 .7-.5 0-1-.3-1-.7 0-.4.4-.7 1-.7s1 .3 1 .7z"/><ellipse cx="86.8" cy="19.8" fill="#AFDD07" rx="1" ry=".7"/><path fill="#AFDD07" d="M90.1 20.6c0 .6-.6 1.1-1.3 1.1-.7 0-1.3-.5-1.3-1.1 0-.6.6-1.1 1.3-1.1.7 0 1.3.5 1.3 1.1z"/><path fill="#B1E00A" d="M96.2 15.1s-1.3.1-1.2 1.6c.1 1.5.6 2.5.9 2.8.3.3.8 1 .8 1s-.4.4-.4.3c-.1-.1-2.3.4-2.7.4-.4 0-1.3.3-1.7.5-.3.1-.7.3-.6.5.1.2.7.3 1.2.3s1.2-.4 1.2-.4l.8-.2s.1.1 0 .3c-.1.2-.7.5-.2.7.5.2 1.7 0 1.7 0l.3-.7s.6-.6.9-.3c.2.2.7.9.6 1.1-.1.2.4.6.9.3s1.1-.5.7-.9c-.4-.4-1.5-1.2-1.6-1.3-.1-.1-.1-1.2-.1-1.2s-1-1.9-1.1-2.3c-.1-.4-.2-1.7-.2-1.7l-.2-.8zm13.7 4.7V21l-.6.6s-1 .5-1 .8c0 .3.6 1 .8.9.2-.1.6-.4.8-.5.2-.1.4-.6.4-.6s.6-.3.7-.2c.1.1-.1.6.4.8.5.2.8.2 1.3.1s.9-.2.9-.5-.4-.6-.4-.6.6.4 1 .5c.4 0 .9.2 1.1.1.3-.1 1-.2.8-.6-.1-.4-.6-.8-1-.9-.4-.1-1.8-.2-2-.3-.2 0-1-.1-1.3-.1-.2 0-.7.3-.8 0-.1-.3.3-.3.4-.7.1-.4.6-1 .8-1.4.2-.4.6-1.9.3-2.1-.3-.2-1-1.3-1.1-1.4 0-.1-.8.2-.8.2s.4 1.5.3 1.8c-.1.3-.9 2-.9 2l-.1.9z"/><path fill="#B1E00A" d="M110.2 7.5s3.8-3.4 4.8-2.9 1.4 4.3 1 6.4c-.4 2.1-1.1 7-.9 7.5.3.5 1.1 1.5 2.1 1.4 1-.1 2.5-.3 2.5-.3s1.5-.1 1.8-.4c.4-.3 1-.4 1.1 0 .1.3.6.2.4.7-.2.5-.1 1-.6.8-.4-.2-.9-.5-.9-.5s.2.3.2.5c0 .3-.2.6-.6.7-.4.1-1 .1-1.3 0-.3-.1-.3-.8-.3-.8h-.5s0 .1.1.5c.1.3.1.7-.3.7s-.9 0-1.3-.1-.5-.5-.5-.5l-1.3.1-2.1-.6.1-11.7s-2.2 4.2-2.7 4.3c-.4.1-.3-1.7-.4-2.2-.1-.4.3-.8.3-.8l-.3-1.2c0-.6-.4-1.6-.4-1.6z"/><path fill="#FCFCFC" d="M102.8 9.5s-.5 1.1-.8 1.2c-.3.1-2.4-.1-2.6 0-.3.1-1.6.5-1.8 0-.2-.5-.8-.9-.8-.9v-.3s2.4-.2 2.9-.2 2 .2 2.4 0c.4-.1.7.2.7.2z"/><path fill="#ACD80B" d="M102 10.7s-1.7.9-2.3 1.4c-.6.4-1.3.4-1.6.3-.3-.1-1.3-1.4-1.3-1.4v-.8s.8-.6.8 0 .8.9 1.3.7c.5-.2 1.9-.2 1.9-.2h1.2zm3.6-.1l4.7-.5.8.1s-.3.5-.4.7c-.1.2-1 1.1-1 1.1s-.8.4-1.7.3c-.8-.1-3.3-1.8-3.3-1.8"/><path fill="#FCFCFC" d="M96.8 9.4l.1 1.2c0 .1 1.7.6 2.7.5 1-.1 1.9 0 1.9 0s1.1-.4 1.3-1.3c.1-.3-.4-.9-.4-.9s-3.4-.1-3.8-.1c-.3 0-1.4.2-1.7.2-.2-.1-.2.4-.2.4"/><path fill="#ACD80B" d="M96.7 9.1s1-3.1 3.3-2.9c2.3.1 2.9 1.7 2.9 2.2v.8l-6 .4-.2-.5z"/><path fill="#FCFCFC" d="M110.7 9.5s.4.8-.1 1c-.6.2-1.7.1-2.2.2-.5.1-2.2.2-2.4.2-.1 0-1-.1-1.2-.3-.2-.3-.3-.5-.3-.8 0-.3 1.4-1.2 2-1.1.6.1 2.1-.1 2.5 0 .4.1 1.7.8 1.7.8z"/><path fill="#ACD80B" d="M104.5 9.7s0-1.6.6-2.2c.6-.6 1.7-1.3 2.7-1.1 1.1.2 2.4 1 2.5 1.3.1.3.7 1.5.7 1.5l-6.5.5z"/><circle cx="107.9" cy="10.1" r=".4" fill="#677F03"/><path fill="#9DC105" d="M96.1 8.1c0 .3-.3.6-.6.6s-.6-.3-.6-.6.3-.6.6-.6.6.3.6.6zm-.5-1.4c0 .2-.1.3-.3.3-.2 0-.3-.2-.3-.3 0-.2.1-.3.3-.3.2-.1.3.1.3.3z"/><circle cx="96.3" cy="7" r=".3" fill="#9DC105"/><path fill="none" stroke="#9DC609" stroke-width="1.825" d="M93.7 8c.1-.5 0-1.1-.2-1.6m-5.4 13.4c.7-.7 2.1.1 3-.2m-4.3-.4c.4-.5 1.2 0 1.7 0m30.4 1.3c-.3-.9-2.1-.6-2.2.4m3.4-1.2c.5 0 1.3-.2 1.7.2"/><path fill="#0A0A0A" stroke="#0A0A0A" stroke-width="1.782" d="M96 11.8c.1-.8-1.3-4.3-2.2-4.2-1.2.1-.3 3.4-.3 4.1 0 1.4.4 2.9.3 4.3-.1 1.5.3 3.2-1.1 4.2-.6.4-1.5.6-2.1.9-.2.1-1 .2-1.1.4-.5.6.3.4.7.3.7-.2 1.5-.8 2.1-1.2.6-.4 1.4-.7 1.7-1.2.3-.5.4-1.5.3-2.1-.1-.8-.1-1.4-.2-2.2 0-.7-.1-1.4-.1-2.1-.1-.8-.1-1.4-.1-2.3 0-.7.4-1.5.1-2.2 1 1 1.6 2.6 2.3 3.7.1-.1-.3-.2-.3-.3m14.9-1c.1.7.3 1.4.4 2 1-1.1 1.5-3.7 2.5-4.8.9.2-.2 5.6-.2 6.5 0 .5 0 1 .1 1.5v1.3c0 .8-.4 2.9 0 3.4.7.8 2.2-.2 3.1.2-.1-1.2-2.4.6-2.7-1.1-.2-1.1.2-1.6.2-3.3 0-1.2-.2-2.8-.1-4.1.1-1.4 0-2.4-.5-3.7-.9.1-1.1.6-1.3 1.2-.3.7-.8 1.3-1.2 1.9 0-.4-.3-.8-.5-1.1" opacity=".11"/><path fill="none" stroke="#9DC609" stroke-width="1.825" d="M114.3 6.7c0 .1-.3.5-.4.7-.1.3-.1.6-.2.9"/><path fill="#ACD80B" d="M96.8 10.7c.1 1.2 1.3 1.8 2.3 1.6 1.1-.2 2.8-.2 3.1-1.6-.8 0-2 .4-2.9.4-.7.1-1.7-.1-2.5-.4m8.3.2c.8.9 2 1.4 3.2 1.4.5 0 1.1-.1 1.6-.4.4-.3 1.2-1 1-1.5-.2 0-.4.3-.7.4-.2.1-.5.1-.7.1-.5.1-1 .1-1.5.1h-1.4c-.5 0-1 0-1.5-.1"/><circle cx="99.8" cy="10" r=".4" fill="#677F03"/><path fill="#8AA007" d="M178.3 59.2s-17.7 1.2-17.8 1.5c-.1.3 0 1.3 0 1.3l.6.4s-11.1-1-14.1-.3c-3.1.7-6.5 2.1-5.9 4.1.4 1.3 2.5 2.9 3.9 3.1 1.2.2-.1.3.8.8.6.3.5-.2 1 .5.4.5 1.5.8 2.1 1 .9.3 1.8.6 2.7.7 4.1.7 5.9 1.2 14.7 1.5 8.8.3 16.3-.7 19.3-1.2 0 0 3.1-.6 5.7-1.2s3.9-1.1 5.6-1.6c1.7-.4 2.9-.9 3.2-1.1.4-.2.4-.1.4-.8-.1-.7-2.9-3.6-4-4.4-1.1-.8-7.1-2.1-7.5-2.4-.4-.3-1.9-.6-3.5-.9-1.6-.3-3.2-.6-3.7-.6-.4-.1-1.6-.2-2.4-.2h-.4"/><path fill="#B1E00A" d="M156.9 62.7s-1.1-.1-1.8 0c-.5.1-.7.3-1 .6-.1.1-.1.3-.2.5-.3.7.2.6 1.2 1s1.2-.6 1.8-.9c.7-.3 2.9-1.3 2.9-1.3l.3-1.8-.6-9.8s1.3 2.3 1.5 2.9c.2.6 1.3 2.3 1.3 2.3l.2-2.2s.8-1.1.5-1.6c-.3-.5.2-.8.3-1.2.1-.5.8-1 .8-1s-5.3-3.5-6-3c-.7.5-.9 4.6-.7 6.7.2 2.1 1 5.2 1 5.2l-.1 2.2s-1 .7-1.3.7c-.3 0-2.7.2-3.2 0s-1.3-.2-1.6-.2c-.3 0-.7-.2-1.1-.1-.4.1-1.1.9-1.1.9l1.4.2s-.3.3.3.5 1.5 0 1.5 0l3.7-.6z"/><path fill="#0A0A0A" stroke="#0A0A0A" stroke-width="1.782" d="M162.3 67.4c-.6.2-1 .7-1.5 1.1-.6.4-1.2.6-1.8.9-1.3.7-2.7 1.4-3.9 2.3-1.4 1-.6 2 .6 2.6.7.3 1 .4 1.7.3.5 0 1.1-.1 1.5.1.1 1.2-.9 2.4-.6 3.6.1.7.9.6 1.5.3.3-.2.5-.6.7-.8.3-.4.7-.5 1-.8.5-.6.7-1.1 1.6-1.3.7-.1 1.2.4 1.4 1.1.1.5-.1 1.2-.2 1.7-.1.6-.2 1.2-.4 1.8-.5 1.4-.6 2.5 1.1 3 1.2.4 2.5.3 3.4-.6.5-.4.7-1.1 1.4-1.2.2 0 .7.2.8.3.4.3.3.7.5 1 .7.8 2.7.6 3.5.1 1-.5 1.4-1.5 1.5-2.5 0-.3.2-.9.1-1.2-.1-.6-.5-.8-.6-1.4-.1-.5.1-.8.3-1.3.2-.4 0-1 .1-1.4.3-.6 2-.8 2.5-.6-.3.6 0 1 .6.8 0 .3-.3 1.1-.5 1.3-.2.2-.6.2-.6.5-.1.3.3.5.4.7.2.6-.1.9.6 1.2.3.1 1 .4 1.4.4.8-.1.7-1.7.9-2.4.1-.7.7-2 .4-2.8-.1-.2-.4-.3-.4-.5-.1-.2 0-.5 0-.7-.1-.4-.6-1.1-.5-1.4 0-.1.6-.3.7-.5.1-.2.2-.5.3-.7.1-.4.3-.9.2-1.4l-.3-2.7c-.1-1.2-1.2-1.1-2.2-1.2.2.9-.1 2.1-.1 3 0 .4.4 3.5-.5 2.8-.2-.1-.4-1.3-.4-1.5 0-.6.3-1 .2-1.6-.1-.6-.3-1-.6-1.5-.2-.4-.4-.4-.7-.7-.1-.1-.5-.6-.6-.6-.8-.3-2.1 2.7-2.5.6 0-.3.2-.4.1-.7 0-.1-.7-.2-.8-.2-.6-.1-1.2.1-1.8.1-1.1.1-1.8-.2-2.9-.1-.6 0-3.3-.4-3.6-.8-.1.6 1 2.1-1.1 2.4-.4.1-.5-.4-.9-.3-.3.1-.6.7-.7 1" opacity=".11"/><path fill="#98BE29" d="M172.2 66.7c-.6.8-.5 2.8-.6 3.8-.1.9-.6 2.7.1 3.5 1.5-.5 1.4-3.5 1.7-4.7.2-.8.5-1.6.5-2.4 0-.6-.1-.7-.6-.8-.4 0-.8.1-1.1.6m10.1 1c.5.4 1.2.8 1.6 1.4.3.5.5 1.2.9 1.7.2.3.6.5.8.7.1.1.5.6.6.7.2.1 1.4-.3 1.6-.4-.2-.5-.8-.7-1.1-1.2-.3-.5-.6-1.1-.9-1.5-.4-.5-.8-1.1-1.3-1.5-.5-.4-1.1-.6-1.6-.9-.4-.3-.9-1.2-1.3-1.3-.6-.2-1.1.5-1 .9.1 1 1.5 2.3 2.5 2.2m.9-3.1c.9.1 2.1.4 3 .7 1 .3 2 .4 3 .7 1.2.4 2.4 1 3.6 1.5.8.3 2.3.8 2.5 1.6-.4.5-1 .7-1.5.4-.5-.4-.9-1-1.6-1.3-1.2-.7-2.5-1.2-3.8-1.7-1.1-.5-2.2-1-3.4-1.3-1-.3-2.7.2-3.2-.8.4-.2 1.1.4 1.6.4m14 0c-.9.1-1.9-.4-2.8-.4-1 0-2-.1-2.9-.1-1.5-.1-3 .4-4.4.3-1-.1-2.5.1-3.4-.5.5-.4.8-.3 1.3-.3.3 0 .4.1.7.1.3 0 .7-.1 1-.1 1.1 0 2.2.1 3.3-.1 1.1-.2 2.3-.2 3.4 0 .8.1 1.6.3 2.4.3.3 0 .7-.2 1 0 .1 0 .5.8.4.8zm-41.8-.5c-.4 0-1 .7-1.4.9-.5.3-.9.6-1.4.9-1 .7-2.1 1.2-3.2 1.7-.8.4-2 .4-2.8 1-.6.6-.3.8-1.1.5-.4-.1-1.4-.2-1-.9.3-.4 1-.2 1.4-.2.6-.1.9-.3 1.4-.6.9-.6 1.9-1.1 2.9-1.4 1-.3 2-.9 3-1.4.2-.1.5-.1.7-.2.2-.1.4-.5.6-.6.8-.4.7.4.3.9"/><path fill="#BEEF0C" d="M177.2 58s-.1-2.7-.4-3.7c-.2-1-6-3.1-7.4-3.2-1.5-.1-6.4.9-6.8 1.4-.4.5-.7 3.4-.6 3.9.1.5.1 2 .1 2h7.3c1 0 4.3.6 4.7.8.3.2 3.1-1.2 3.1-1.2z"/><path fill="#BBE50A" d="M162.1 58.9c.1-.3-.6-2 5.2-1.9 5.9.1 7.9-.2 8.5.5.6.6 1.3 1.4 1 2.5-.3 1.2-1.2 3.5-2 3.7-.8.3-2.2.9-4.6 1-1.4.1-4.7 0-5.9-1-.6-.5-1.6-1.3-1.8-1.8-.2-.5-.3-1.6-.4-2-.2-.4 0-1 0-1z"/><path fill="#AFDD07" d="M151.7 62.2c0 .4-.4.7-1 .7-.5 0-1-.3-1-.7 0-.4.4-.7 1-.7.5 0 1 .4 1 .7z"/><ellipse cx="152.7" cy="62.9" fill="#AFDD07" rx="1" ry=".7"/><path fill="#AFDD07" d="M155.9 63.7c0 .6-.6 1.1-1.3 1.1-.7 0-1.3-.5-1.3-1.1 0-.6.6-1.1 1.3-1.1.7 0 1.3.5 1.3 1.1z"/><path fill="#B1E00A" d="M162 58.2s-1.3.1-1.2 1.6c.1 1.5.6 2.5.9 2.8.3.3.8 1 .8 1l-.5.4c-.1-.1-2.3.4-2.7.4-.4 0-1.3.3-1.7.5-.3.1-.7.3-.6.5.1.2.7.3 1.2.3s1.2-.4 1.2-.4l.8-.2s.1.1 0 .3c-.1.2-.7.5-.2.7.5.2 1.7 0 1.7 0l.3-.7s.6-.6.9-.3c.2.2.7.9.6 1.1-.1.2.4.6.9.3s1.1-.5.7-.9c-.4-.4-1.5-1.2-1.6-1.3-.1-.1-.1-1.2-.1-1.2s-1-1.9-1.1-2.3c-.1-.4-.2-1.7-.2-1.7l-.1-.9zm13.7 4.7v1.2l-.6.6s-1 .5-1 .8c0 .3.6 1 .8.9.2-.1.6-.4.8-.5.2-.1.4-.6.4-.6s.6-.3.7-.2c.1.1-.1.6.4.8.5.2.8.2 1.3.1s.9-.2.9-.5-.4-.6-.4-.6.6.4 1 .5c.4 0 .9.2 1.1.1.3-.1 1-.2.8-.6-.1-.4-.6-.8-1-.9-.4-.1-1.8-.2-2-.3-.2 0-1-.1-1.3-.1-.2 0-.7.3-.8 0-.1-.3.3-.3.4-.7.1-.4.6-1 .8-1.4.2-.4.6-1.9.3-2.1-.3-.2-1-1.3-1.1-1.4 0-.1-.8.2-.8.2s.4 1.5.3 1.8c-.1.3-.9 2-.9 2l-.1.9z"/><path fill="#B1E00A" d="M176 50.6s3.8-3.4 4.8-2.9 1.4 4.3 1 6.4c-.4 2.1-1.1 7-.9 7.5.3.5 1.1 1.5 2.1 1.4 1-.1 2.5-.3 2.5-.3s1.5-.1 1.8-.4c.4-.3 1-.4 1.1 0 .1.3.6.2.4.7-.2.5-.1 1-.6.8-.4-.2-.9-.5-.9-.5s.2.3.2.5c0 .3-.2.6-.6.7-.4.1-1 .1-1.3 0-.3-.1-.3-.8-.3-.8h-.7s0 .1.1.5c.1.3.1.7-.3.7s-.9 0-1.3-.1-.5-.5-.5-.5l-1.3.1-2.1-.6.1-11.7s-2.2 4.2-2.7 4.3c-.4.1-.3-1.7-.4-2.2-.1-.4.3-.8.3-.8l-.3-1.2c.3-.6-.2-1.6-.2-1.6z"/><path fill="#FCFCFC" d="M168.7 52.7s-.5 1.1-.8 1.2c-.3.1-2.4-.1-2.6 0-.3.1-1.6.5-1.8 0-.2-.5-.8-.9-.8-.9v-.3s2.4-.2 2.9-.2 2 .2 2.4 0c.3-.2.7.2.7.2z"/><path fill="#ACD80B" d="M167.8 53.8s-1.7.9-2.3 1.4c-.6.4-1.3.4-1.6.3-.3-.1-1.3-1.4-1.3-1.4v-.8s.8-.6.8 0 .8.9 1.3.7c.5-.2 1.9-.2 1.9-.2h1.2zm3.6 0l4.7-.5.8.1s-.3.5-.4.7c-.1.2-1 1.1-1 1.1s-.8.4-1.7.3c-.8-.1-3.3-1.8-3.3-1.8"/><path fill="#FCFCFC" d="M162.6 52.5l.1 1.2c0 .1 1.7.6 2.7.5 1-.1 1.9 0 1.9 0s1.1-.4 1.3-1.3c.1-.3-.4-.9-.4-.9s-3.5-.2-3.8-.2c-.3 0-1.4.2-1.7.2-.2-.1-.2.4-.2.4"/><path fill="#ACD80B" d="M162.5 52.3s1-3.1 3.3-2.9c2.3.1 2.9 1.7 2.9 2.2v.8l-6 .4-.2-.5z"/><path fill="#FCFCFC" d="M176.5 52.7s.4.8-.1 1c-.6.2-1.7.1-2.2.2-.5.1-2.2.2-2.4.2-.1 0-1-.1-1.2-.3-.2-.3-.3-.5-.3-.8 0-.3 1.4-1.2 2-1.1.6.1 2.1-.1 2.5 0 .4 0 1.7.8 1.7.8z"/><path fill="#ACD80B" d="M170.3 52.8s0-1.6.6-2.2c.6-.6 1.7-1.3 2.7-1.1 1.1.2 2.4 1 2.5 1.3.1.3.7 1.5.7 1.5l-6.5.5z"/><circle cx="173.7" cy="53.2" r=".4" fill="#677F03"/><path fill="#9DC105" d="M161.9 51.2c0 .3-.3.6-.6.6s-.6-.3-.6-.6.3-.6.6-.6.6.3.6.6zm-.5-1.4c0 .2-.1.3-.3.3-.2 0-.3-.1-.3-.3 0-.2.1-.3.3-.3.2-.1.3.1.3.3z"/><circle cx="162.1" cy="50.1" r=".3" fill="#9DC105"/><path fill="none" stroke="#9DC609" stroke-width="1.825" d="M159.5 51.2c.1-.5 0-1.1-.2-1.6M154 62.9c.7-.7 2.1.1 3-.2m-4.4-.4c.4-.5 1.2 0 1.7 0m30.4 1.3c-.3-.9-2.1-.6-2.2.4m3.4-1.2c.5 0 1.3-.2 1.7.2"/><path fill="#0A0A0A" stroke="#0A0A0A" stroke-width="1.782" d="M161.8 55c.1-.8-1.3-4.3-2.2-4.2-1.2.1-.3 3.4-.3 4.1 0 1.4.4 2.9.2 4.3-.1 1.5.3 3.2-1.1 4.2-.6.4-1.5.6-2.1.9-.2.1-1 .2-1.1.4-.5.6.3.4.7.3.7-.2 1.5-.8 2.1-1.2.6-.4 1.4-.7 1.7-1.2.3-.6.3-1.6.3-2.2-.1-.8-.1-1.4-.2-2.2 0-.7-.1-1.4-.1-2.1-.1-.8-.1-1.4-.1-2.3 0-.7.4-1.5.1-2.2 1 1 1.6 2.6 2.3 3.7.1-.1-.3-.2-.3-.3m15-1c.1.7.3 1.4.4 2 1-1.1 1.5-3.7 2.5-4.8.9.2-.2 5.6-.2 6.5 0 .5 0 1 .1 1.5v1.3c0 .8-.4 2.9 0 3.4.7.8 2.2-.2 3.1.2-.1-1.2-2.4.6-2.7-1.1-.2-1.1.2-1.6.2-3.3 0-1.2-.2-2.8-.1-4.1.1-1.4 0-2.4-.5-3.7-.9.1-1.1.6-1.3 1.2-.3.7-.8 1.3-1.2 1.9 0-.4-.3-.8-.5-1.1" opacity=".11"/><path fill="none" stroke="#9DC609" stroke-width="1.825" d="M180.1 49.8c0 .1-.3.5-.4.7-.1.3-.1.6-.2.9"/><path fill="#ACD80B" d="M162.6 53.8c.1 1.2 1.3 1.8 2.3 1.6 1.1-.2 2.8-.2 3.1-1.6-.8 0-2 .4-2.9.4-.7.1-1.6-.1-2.5-.4m8.3.2c.8.9 2 1.4 3.2 1.4.5 0 1.1-.1 1.6-.4.4-.3 1.2-1 1-1.5-.2 0-.4.3-.7.4-.2.1-.5.1-.7.1-.5.1-1 .1-1.5.1h-1.4c-.4 0-1 .1-1.5-.1"/><circle cx="165.6" cy="53.1" r=".4" fill="#677F03"/><path fill="#8AA007" d="M111.8 59.2S94.1 60.4 94 60.7c-.1.3 0 1.3 0 1.3l.6.4s-11.1-1-14.1-.3c-3.1.7-6.5 2.1-5.9 4.1.4 1.3 2.5 2.9 3.9 3.1 1.2.2-.1.3.8.8.6.3.5-.2 1 .5.4.5 1.5.8 2.1 1 .9.3 1.8.6 2.7.7 4.1.7 5.9 1.2 14.7 1.5 8.8.3 16.3-.7 19.3-1.2 0 0 3.1-.6 5.7-1.2s3.9-1.1 5.6-1.6c1.7-.4 2.9-.9 3.2-1.1.4-.2.4-.1.4-.8-.1-.7-2.9-3.6-4-4.4-1.1-.8-7.1-2.1-7.5-2.4-.4-.3-1.9-.6-3.5-.9-1.6-.3-3.2-.6-3.7-.6-.4-.1-1.6-.2-2.4-.2h-.4"/><path fill="#B1E00A" d="M90.3 62.7s-1.1-.1-1.8 0c-.5.1-.7.3-1 .6-.1.1-.1.3-.2.5-.3.7.2.6 1.2 1s1.2-.6 1.8-.9c.7-.3 2.9-1.3 2.9-1.3l.3-1.8-.5-9.7s1.3 2.3 1.5 2.9c.2.6 1.3 2.3 1.3 2.3l.2-2.2s.8-1.1.5-1.6c-.3-.5.2-.8.3-1.2.1-.5.8-1 .8-1s-5.3-3.5-6-3c-.7.5-.9 4.6-.7 6.7.2 2.1 1 5.2 1 5.2l-.1 2.2s-1 .7-1.3.7c-.3 0-2.7.2-3.2 0s-1.3-.2-1.6-.2c-.3 0-.7-.2-1.1-.1-.4.1-1.1.9-1.1.9l1.4.2s-.3.3.3.5 1.5 0 1.5 0l3.6-.7z"/><path fill="#0A0A0A" stroke="#0A0A0A" stroke-width="1.782" d="M95.8 67.4c-.6.2-1 .7-1.5 1.1-.6.4-1.2.6-1.8.9-1.3.7-2.7 1.4-3.9 2.3-1.4 1-.6 2 .6 2.6.7.3 1 .4 1.7.3.5 0 1.1-.1 1.5.1.1 1.2-.9 2.4-.6 3.6.1.7.9.6 1.5.3.3-.2.5-.6.7-.8.3-.4.7-.5 1-.8.5-.6.7-1.1 1.6-1.3.7-.1 1.2.4 1.4 1.1.1.5-.1 1.2-.2 1.7-.1.6-.2 1.2-.4 1.8-.5 1.4-.6 2.5 1.1 3 1.2.4 2.5.3 3.4-.6.5-.4.7-1.1 1.4-1.2.2 0 .7.2.8.3.4.3.3.7.5 1 .7.8 2.7.6 3.5.1 1-.5 1.4-1.5 1.5-2.5 0-.3.2-.9.1-1.2-.1-.6-.5-.8-.6-1.4-.1-.5.1-.8.3-1.3.2-.4 0-1 .1-1.4.3-.6 2-.8 2.5-.6-.3.6 0 1 .6.8 0 .3-.3 1.1-.5 1.3-.2.2-.6.2-.6.5-.1.3.3.5.4.7.2.6-.1.9.6 1.2.3.1 1 .4 1.4.4.8-.1.7-1.7.9-2.4.1-.7.7-2 .4-2.8-.1-.2-.4-.3-.4-.5-.1-.2 0-.5 0-.7-.1-.4-.6-1.1-.5-1.4 0-.1.6-.3.7-.5.1-.2.2-.5.3-.7.1-.4.3-.9.2-1.4l-.3-2.7c-.1-1.2-1.2-1.1-2.2-1.2.2.9-.1 2.1-.1 3 0 .4.4 3.5-.5 2.8-.2-.1-.4-1.3-.4-1.5 0-.6.3-1 .2-1.6-.1-.6-.3-1-.6-1.5-.2-.4-.4-.4-.7-.7-.1-.1-.5-.6-.6-.6-.8-.3-2.1 2.7-2.5.6 0-.3.2-.4.1-.7 0-.1-.7-.2-.8-.2-.6-.1-1.2.1-1.8.1-1.1.1-1.8-.2-2.9-.1-.6 0-3.3-.4-3.6-.8-.1.6 1 2.1-1.1 2.5-.4.1-.5-.4-.9-.3-.3.1-.6.7-.7 1" opacity=".11"/><path fill="#98BE29" d="M105.7 66.7c-.6.8-.5 2.8-.6 3.8-.1.9-.6 2.7.1 3.5 1.5-.5 1.4-3.5 1.7-4.7.2-.8.5-1.6.5-2.4 0-.6-.1-.7-.6-.8-.4 0-.9.1-1.1.6m10.1 1c.5.4 1.2.8 1.6 1.4.3.5.5 1.2.9 1.7.2.3.6.5.8.7.1.1.5.6.6.7.2.1 1.4-.3 1.6-.4-.2-.5-.8-.7-1.1-1.2-.3-.5-.6-1.1-.9-1.5-.4-.5-.8-1.1-1.3-1.5-.5-.4-1.1-.6-1.6-.9-.4-.3-.9-1.2-1.3-1.3-.6-.2-1.1.5-1 .9.1 1 1.5 2.3 2.5 2.2m.8-3.1c.9.1 2.1.4 3 .7 1 .3 2 .4 3 .7 1.2.4 2.4 1 3.6 1.5.8.3 2.3.8 2.5 1.6-.4.5-1 .7-1.5.4-.5-.4-.9-1-1.6-1.3-1.2-.7-2.5-1.2-3.8-1.7-1.1-.5-2.2-1-3.4-1.3-1-.3-2.7.2-3.2-.8.4-.2 1.1.4 1.6.4m14.1 0c-.9.1-1.9-.4-2.8-.4-1 0-2-.1-2.9-.1-1.5-.1-3 .4-4.4.3-1-.1-2.5.1-3.4-.5.5-.4.8-.3 1.3-.3.3 0 .4.1.7.1.3 0 .7-.1 1-.1 1.1 0 2.2.1 3.3-.1 1.1-.2 2.3-.2 3.4 0 .8.1 1.6.3 2.4.3.3 0 .7-.2 1 0 .1 0 .4.8.4.8zm-41.9-.5c-.4 0-1 .7-1.4.9-.5.3-.9.6-1.4.9-1 .7-2.1 1.2-3.2 1.7-.8.4-2 .4-2.8 1-.6.6-.3.8-1.1.5-.4-.1-1.4-.2-1-.9.3-.4 1-.2 1.4-.2.6-.1.9-.3 1.4-.6.9-.6 1.9-1.1 2.9-1.4 1-.3 2-.9 3-1.4.2-.1.5-.1.7-.2.2-.1.4-.5.6-.6.8-.4.7.4.3.9"/><path fill="#BEEF0C" d="M110.7 58s-.1-2.7-.4-3.7c-.2-1-6-3.1-7.4-3.2-1.5-.1-6.4.9-6.8 1.4-.4.5-.7 3.4-.6 3.9.1.5.1 2 .1 2h7.3c1 0 4.3.6 4.7.8.3.2 3.1-1.2 3.1-1.2z"/><path fill="#BBE50A" d="M95.5 58.9c.1-.3-.6-2 5.2-1.9 5.9.1 7.9-.2 8.5.5.6.6 1.3 1.4 1 2.5-.3 1.2-1.2 3.5-2 3.7-.8.3-2.2.9-4.6 1-1.4.1-4.7 0-5.9-1-.6-.5-1.6-1.3-1.8-1.8-.2-.5-.3-1.6-.4-2-.2-.4 0-1 0-1z"/><path fill="#AFDD07" d="M85.1 62.2c0 .4-.4.7-1 .7-.5 0-1-.3-1-.7 0-.4.4-.7 1-.7s1 .4 1 .7z"/><ellipse cx="86.1" cy="62.9" fill="#AFDD07" rx="1" ry=".7"/><path fill="#AFDD07" d="M89.3 63.7c0 .6-.6 1.1-1.3 1.1-.7 0-1.3-.5-1.3-1.1 0-.6.6-1.1 1.3-1.1.7 0 1.3.5 1.3 1.1z"/><path fill="#B1E00A" d="M95.4 58.2s-1.3.1-1.2 1.6c.1 1.5.6 2.5.9 2.8.3.3.8 1 .8 1s-.4.4-.5.4c-.1-.1-2.3.4-2.7.4-.4 0-1.3.3-1.7.5-.3.1-.7.3-.6.5.1.2.7.3 1.2.3s1.2-.4 1.2-.4l.8-.2s.1.1 0 .3c-.1.2-.7.5-.2.7.5.2 1.7 0 1.7 0l.3-.7s.6-.6.9-.3c.2.2.7.9.6 1.1-.1.2.4.6.9.3s1.1-.5.7-.9c-.4-.4-1.5-1.2-1.6-1.3-.1-.1-.1-1.2-.1-1.2s-1-1.9-1.1-2.3c-.1-.4-.2-1.7-.2-1.7l-.1-.9zm13.8 4.7v1.2l-.6.6s-1 .5-1 .8c0 .3.6 1 .8.9.2-.1.6-.4.8-.5.2-.1.4-.6.4-.6s.6-.3.7-.2c.1.1-.1.6.4.8.5.2.8.2 1.3.1s.9-.2.9-.5-.4-.6-.4-.6.6.4 1 .5c.4 0 .9.2 1.1.1.3-.1 1-.2.8-.6-.1-.4-.6-.8-1-.9-.4-.1-1.8-.2-2-.3-.2 0-1-.1-1.3-.1-.2 0-.7.3-.8 0-.1-.3.3-.3.4-.7.1-.4.6-1 .8-1.4.2-.4.6-1.9.3-2.1-.3-.2-1-1.3-1.1-1.4 0-.1-.8.2-.8.2s.4 1.5.3 1.8c-.1.3-.9 2-.9 2l-.1.9z"/><path fill="#B1E00A" d="M109.5 50.6s3.8-3.4 4.8-2.9 1.4 4.3 1 6.4c-.4 2.1-1.1 7-.9 7.5.3.5 1.1 1.5 2.1 1.4 1-.1 2.5-.3 2.5-.3s1.5-.1 1.8-.4c.4-.3 1-.4 1.1 0 .1.3.6.2.4.7-.2.5-.1 1-.6.8-.4-.2-.9-.5-.9-.5s.2.3.2.5c0 .3-.2.6-.6.7-.4.1-1 .1-1.3 0-.3-.1-.3-.8-.3-.8h-.7s0 .1.1.5c.1.3.1.7-.3.7s-.9 0-1.3-.1-.5-.5-.5-.5l-1.3.1-2.1-.6.3-11.8s-2.2 4.2-2.7 4.3c-.4.1-.3-1.7-.4-2.2-.1-.4.3-.8.3-.8l-.3-1.2c0-.5-.4-1.5-.4-1.5z"/><path fill="#FCFCFC" d="M102.1 52.7s-.5 1.1-.8 1.2c-.3.1-2.4-.1-2.6 0-.3.1-1.6.5-1.8 0-.2-.5-.8-.9-.8-.9v-.3s2.4-.2 2.9-.2 2 .2 2.4 0c.4-.2.7.2.7.2z"/><path fill="#ACD80B" d="M101.3 53.8s-1.7.9-2.3 1.4c-.6.4-1.3.4-1.6.3-.3-.1-1.3-1.4-1.3-1.4v-.8s.8-.6.8 0 .8.9 1.3.7c.5-.2 1.9-.2 1.9-.2h1.2zm3.5 0l4.7-.5.8.1s-.3.5-.4.7c-.1.2-1 1.1-1 1.1s-.8.4-1.7.3c-.8-.1-3.3-1.8-3.3-1.8"/><path fill="#FCFCFC" d="M96.1 52.5l.1 1.2c0 .1 1.7.6 2.7.5 1-.1 1.9 0 1.9 0s1.1-.4 1.3-1.3c.1-.3-.4-.9-.4-.9s-3.5-.2-3.8-.2c-.3 0-1.4.2-1.7.2-.2-.1-.2.4-.2.4"/><path fill="#ACD80B" d="M95.9 52.3s1-3.1 3.3-2.9c2.3.1 2.9 1.7 2.9 2.2v.8l-6 .4-.2-.5z"/><path fill="#FCFCFC" d="M109.9 52.7s.4.8-.1 1c-.6.2-1.7.1-2.2.2-.5.1-2.2.2-2.4.2-.1 0-1-.1-1.2-.3-.2-.3-.3-.5-.3-.8 0-.3 1.4-1.2 2-1.1.6.1 2.1-.1 2.5 0 .4 0 1.7.8 1.7.8z"/><path fill="#ACD80B" d="M103.8 52.8s0-1.6.6-2.2c.6-.6 1.7-1.3 2.7-1.1 1.1.2 2.4 1 2.5 1.3.1.3.7 1.5.7 1.5l-6.5.5z"/><circle cx="107.1" cy="53.2" r=".4" fill="#677F03"/><path fill="#9DC105" d="M95.4 51.2c0 .3-.3.6-.6.6s-.6-.3-.6-.6.3-.6.6-.6.6.3.6.6zm-.5-1.4c0 .2-.1.3-.3.3-.2 0-.3-.1-.3-.3 0-.2.1-.3.3-.3.1-.1.3.1.3.3z"/><circle cx="95.5" cy="50.1" r=".3" fill="#9DC105"/><path fill="none" stroke="#9DC609" stroke-width="1.825" d="M92.9 51.2c.1-.5 0-1.1-.2-1.6m-5.3 13.3c.7-.7 2.1.1 3-.2m-4.3-.4c.4-.5 1.2 0 1.7 0m30.3 1.3c-.3-.9-2.1-.6-2.2.4m3.5-1.2c.5 0 1.3-.2 1.7.2"/><path fill="#0A0A0A" stroke="#0A0A0A" stroke-width="1.782" d="M95.2 55c.1-.8-1.3-4.3-2.2-4.2-1.2.1-.3 3.4-.3 4.1 0 1.4.4 2.9.3 4.3-.1 1.5.3 3.2-1.1 4.2-.6.4-1.5.6-2.1.9-.2.1-1 .2-1.1.4-.5.6.3.4.7.3.7-.2 1.5-.8 2.1-1.2.6-.4 1.4-.7 1.7-1.2.3-.5.4-1.5.3-2.1-.1-.8-.1-1.4-.2-2.2 0-.7-.1-1.4-.1-2.1-.1-.8-.1-1.4-.1-2.3 0-.7.4-1.5.1-2.2 1 1 1.6 2.6 2.3 3.7.1-.1-.3-.2-.3-.3m15-1.1c.1.7.3 1.4.4 2 1-1.1 1.5-3.7 2.5-4.8.9.2-.2 5.6-.2 6.5 0 .5 0 1 .1 1.5v1.3c0 .8-.4 2.9 0 3.4.7.8 2.2-.2 3.1.2-.1-1.2-2.4.6-2.7-1.1-.2-1.1.2-1.6.2-3.3 0-1.2-.2-2.8-.1-4.1.1-1.4 0-2.4-.5-3.7-.9.1-1.1.6-1.3 1.2-.3.7-.8 1.3-1.2 1.9 0-.4-.3-.8-.5-1.1" opacity=".11"/><path fill="none" stroke="#9DC609" stroke-width="1.825" d="M113.6 49.8c0 .1-.3.5-.4.7-.1.3-.1.6-.2.9"/><path fill="#ACD80B" d="M96.1 53.8c.1 1.2 1.3 1.8 2.3 1.6 1.1-.2 2.8-.2 3.1-1.6-.8 0-2 .4-2.9.4-.8.1-1.7-.1-2.5-.4m8.3.2c.8.9 2 1.4 3.2 1.4.5 0 1.1-.1 1.6-.4.4-.3 1.2-1 1-1.5-.2 0-.4.3-.7.4-.2.1-.5.1-.7.1-.5.1-1 .1-1.5.1h-1.4c-.5 0-1 .1-1.5-.1"/><circle cx="99.1" cy="53.1" r=".4" fill="#677F03"/><path fill="#8AA007" d="M176.9 16s-17.7 1.2-17.8 1.5c-.1.3 0 1.3 0 1.3l.6.4s-11.1-1-14.1-.3c-3.1.7-6.5 2.1-5.9 4.1.4 1.3 2.5 2.9 3.9 3.1 1.2.2-.1.3.8.8.6.3.5-.2 1 .5.4.5 1.5.8 2.1 1 .9.3 1.8.6 2.7.7 4.1.7 5.9 1.2 14.7 1.5 8.8.3 16.3-.7 19.3-1.2 0 0 3.1-.6 5.7-1.2s3.9-1.1 5.6-1.6c1.7-.4 2.9-.9 3.2-1.1.4-.2.4-.1.4-.8-.1-.7-2.9-3.6-4-4.4-1.1-.8-7.1-2.1-7.5-2.4-.4-.3-1.9-.6-3.5-.9-1.6-.3-3.2-.6-3.7-.6-.4-.1-1.6-.2-2.4-.2h-.4"/><path fill="#B1E00A" d="M155.5 19.6s-1.1-.1-1.8 0c-.5.1-.7.3-1 .6-.1.1-.1.3-.2.5-.3.7.2.6 1.2 1s1.2-.6 1.8-.9c.7-.3 2.9-1.3 2.9-1.3l.3-1.8-.5-9.7s1.3 2.3 1.5 2.9c.2.6 1.3 2.3 1.3 2.3l.2-2.2s.8-1.1.5-1.6c-.3-.5.2-.8.3-1.2.1-.5.8-1 .8-1s-5.3-3.5-6-3c-.7.5-.9 4.6-.7 6.7.2 2.1 1 5.2 1 5.2l-.1 2.2s-1 .7-1.3.7c-.3 0-2.7.2-3.2 0s-1.3-.2-1.6-.2c-.3 0-.7-.2-1.1-.1-.4.1-1.1.9-1.1.9l1.4.2s-.3.3.3.5 1.5 0 1.5 0l3.6-.7z"/><path fill="#0A0A0A" stroke="#0A0A0A" stroke-width="1.782" d="M160.9 24.3c-.6.2-1 .7-1.5 1.1-.6.4-1.2.6-1.8.9-1.3.7-2.7 1.4-3.9 2.3-1.4 1-.6 2 .6 2.6.7.3 1 .4 1.7.3.5 0 1.1-.1 1.5.1.1 1.2-.9 2.4-.6 3.6.1.7.9.6 1.5.3.3-.2.5-.6.7-.8.3-.4.7-.5 1-.8.5-.6.7-1.1 1.6-1.3.7-.1 1.2.4 1.4 1.1.1.5-.1 1.2-.2 1.7-.1.6-.2 1.2-.4 1.8-.5 1.4-.6 2.5 1.1 3 1.2.4 2.5.3 3.4-.6.5-.4.7-1.1 1.4-1.2.2 0 .7.2.8.3.4.3.3.7.5 1 .7.8 2.7.6 3.5.1 1-.5 1.4-1.5 1.5-2.5 0-.3.2-.9.1-1.2-.1-.6-.5-.8-.6-1.4-.1-.5.1-.8.3-1.3.2-.4 0-1 .1-1.4.3-.6 2-.8 2.5-.6-.3.6 0 1 .6.8 0 .3-.3 1.1-.5 1.3-.2.2-.6.2-.6.5-.1.3.3.5.4.7.2.6-.1.9.6 1.2.3.1 1 .4 1.4.4.8-.1.7-1.7.9-2.4.1-.7.7-2 .4-2.8-.1-.2-.4-.3-.4-.5-.1-.2 0-.5 0-.7-.1-.4-.6-1.1-.5-1.4 0-.1.6-.3.7-.5.1-.2.2-.5.3-.7.1-.4.3-.9.2-1.4l-.3-2.7c-.1-1.2-1.2-1.1-2.2-1.2.2.9-.1 2.1-.1 3 0 .4.4 3.5-.5 2.8-.2-.1-.4-1.3-.4-1.5 0-.6.3-1 .2-1.6-.1-.6-.3-1-.6-1.5-.2-.4-.4-.4-.7-.7-.1-.1-.5-.6-.6-.6-.8-.3-2.1 2.7-2.5.6 0-.3.2-.4.1-.7 0-.1-.7-.2-.8-.2-.6-.1-1.2.1-1.8.1-1.1.1-1.8-.2-2.9-.1-.6 0-3.3-.4-3.6-.8-.1.6 1 2.1-1.1 2.5-.4.1-.5-.4-.9-.3-.3.1-.6.7-.7 1" opacity=".11"/><path fill="#98BE29" d="M170.8 23.6c-.6.8-.5 2.8-.6 3.8-.1.9-.6 2.7.1 3.5 1.5-.5 1.4-3.5 1.7-4.7.2-.8.5-1.6.5-2.4 0-.6-.1-.7-.6-.8-.4 0-.8.1-1.1.6m10.1 1c.5.4 1.2.8 1.6 1.4.3.5.5 1.2.9 1.7.2.3.6.5.8.7.1.1.5.6.6.7.2.1 1.4-.3 1.6-.4-.2-.5-.8-.7-1.1-1.2-.3-.5-.6-1.1-.9-1.5-.4-.5-.8-1.1-1.3-1.5-.5-.4-1.1-.6-1.6-.9-.4-.3-.9-1.2-1.3-1.3-.6-.2-1.1.5-1 .9.1 1 1.5 2.3 2.5 2.2m.9-3.1c.9.1 2.1.4 3 .7 1 .3 2 .4 3 .7 1.2.4 2.4 1 3.6 1.5.8.3 2.3.8 2.5 1.6-.4.5-1 .7-1.5.4-.5-.4-.9-1-1.6-1.3-1.2-.7-2.5-1.2-3.8-1.7-1.1-.5-2.2-1-3.4-1.3-1-.3-2.7.2-3.2-.8.4-.2 1.1.4 1.6.4m14 0c-.9.1-1.9-.4-2.8-.4-1 0-2-.1-2.9-.1-1.5-.1-3 .4-4.4.3-1-.1-2.5.1-3.4-.5.5-.4.8-.3 1.3-.3.3 0 .4.1.7.1.3 0 .7-.1 1-.1 1.1 0 2.2.1 3.3-.1 1.1-.2 2.3-.2 3.4 0 .8.1 1.6.3 2.4.3.3 0 .7-.2 1 0 .1 0 .5.8.4.8zM155 22c-.4 0-1 .7-1.4.9-.5.3-.9.6-1.4.9-1 .7-2.1 1.2-3.2 1.7-.8.4-2 .4-2.8 1-.6.6-.3.8-1.1.5-.4-.1-1.4-.2-1-.9.3-.4 1-.2 1.4-.2.6-.1.9-.3 1.4-.6.9-.6 1.9-1.1 2.9-1.4 1-.3 2-.9 3-1.4.2-.1.5-.1.7-.2.2-.1.4-.5.6-.6.8-.4.7.4.3.9"/><path fill="#BEEF0C" d="M175.8 14.9s-.1-2.7-.4-3.7c-.2-1-6-3.1-7.4-3.2-1.5-.1-6.4.9-6.8 1.4-.4.5-.7 3.4-.6 3.9.1.5.1 2 .1 2h7.3c1 0 4.3.6 4.7.8.3.2 3.1-1.2 3.1-1.2z"/><path fill="#BBE50A" d="M160.7 15.8c.1-.3-.6-2 5.2-1.9 5.9.1 7.9-.2 8.5.5.6.6 1.3 1.4 1 2.5-.3 1.2-1.2 3.5-2 3.7-.8.3-2.2.9-4.6 1-1.4.1-4.7 0-5.9-1-.6-.5-1.6-1.3-1.8-1.8-.2-.5-.3-1.6-.4-2-.2-.4 0-1 0-1z"/><path fill="#AFDD07" d="M150.3 19.1c0 .4-.4.7-1 .7-.5 0-1-.3-1-.7 0-.4.4-.7 1-.7.5 0 1 .3 1 .7z"/><ellipse cx="151.3" cy="19.8" fill="#AFDD07" rx="1" ry=".7"/><path fill="#AFDD07" d="M154.5 20.6c0 .6-.6 1.1-1.3 1.1-.7 0-1.3-.5-1.3-1.1 0-.6.6-1.1 1.3-1.1.7 0 1.3.5 1.3 1.1z"/><path fill="#B1E00A" d="M160.6 15.1s-1.3.1-1.2 1.6c.1 1.5.6 2.5.9 2.8.3.3.8 1 .8 1s-.4.4-.4.3c-.1-.1-2.3.4-2.7.4-.4 0-1.3.3-1.7.5-.3.1-.7.3-.6.5.1.2.7.3 1.2.3s1.2-.4 1.2-.4l.8-.2s.1.1 0 .3c-.1.2-.7.5-.2.7.5.2 1.7 0 1.7 0l.3-.7s.6-.6.9-.3c.2.2.7.9.6 1.1-.1.2.4.6.9.3s1.1-.5.7-.9c-.4-.4-1.5-1.2-1.6-1.3-.1-.1-.1-1.2-.1-1.2s-1-1.9-1.1-2.3c-.1-.4-.2-1.7-.2-1.7l-.2-.8zm13.7 4.7V21l-.6.6s-1 .5-1 .8c0 .3.6 1 .8.9.2-.1.6-.4.8-.5.2-.1.4-.6.4-.6s.6-.3.7-.2c.1.1-.1.6.4.8.5.2.8.2 1.3.1s.9-.2.9-.5-.4-.6-.4-.6.6.4 1 .5c.4 0 .9.2 1.1.1.3-.1 1-.2.8-.6-.1-.4-.6-.8-1-.9-.4-.1-1.8-.2-2-.3-.2 0-1-.1-1.3-.1-.2 0-.7.3-.8 0-.1-.3.3-.3.4-.7.1-.4.6-1 .8-1.4.2-.4.6-1.9.3-2.1s-1-1.3-1.1-1.4c0-.1-.8.2-.8.2s.4 1.5.3 1.8c-.1.3-.9 2-.9 2l-.1.9z"/><path fill="#B1E00A" d="M174.6 7.5s3.8-3.4 4.8-2.9 1.4 4.3 1 6.4c-.4 2.1-1.1 7-.9 7.5.3.5 1.1 1.5 2.1 1.4 1-.1 2.5-.3 2.5-.3s1.5-.1 1.8-.4c.4-.3 1-.4 1.1 0 .1.3.6.2.4.7-.2.5-.1 1-.6.8-.4-.2-.9-.5-.9-.5s.2.3.2.5c0 .3-.2.6-.6.7-.4.1-1 .1-1.3 0-.3-.1-.3-.8-.3-.8h-.7s0 .1.1.5c.1.3.1.7-.3.7s-.9 0-1.3-.1-.5-.5-.5-.5l-1.3.1-2.1-.6.1-11.7s-2.2 4.2-2.7 4.3c-.4.1-.3-1.7-.4-2.2-.1-.4.3-.8.3-.8l-.3-1.2c.3-.6-.2-1.6-.2-1.6z"/><path fill="#FCFCFC" d="M167.3 9.5s-.5 1.1-.8 1.2c-.3.1-2.4-.1-2.6 0-.3.1-1.6.5-1.8 0-.2-.5-.8-.9-.8-.9v-.3s2.4-.2 2.9-.2 2 .2 2.4 0c.3-.1.7.2.7.2z"/><path fill="#ACD80B" d="M166.4 10.7s-1.7.9-2.3 1.4c-.6.4-1.3.4-1.6.3-.3-.1-1.3-1.4-1.3-1.4v-.8s.8-.6.8 0 .8.9 1.3.7c.5-.2 1.9-.2 1.9-.2h1.2zm3.6-.1l4.7-.5.8.1s-.3.5-.4.7c-.1.2-1 1.1-1 1.1s-.8.4-1.7.3c-.8-.1-3.3-1.8-3.3-1.8"/><path fill="#FCFCFC" d="M161.2 9.4l.1 1.2c0 .1 1.7.6 2.7.5 1-.1 1.9 0 1.9 0s1.1-.4 1.3-1.3c.1-.3-.4-.9-.4-.9s-3.5-.2-3.8-.2c-.3 0-1.4.2-1.7.2-.2-.1-.2.4-.2.4"/><path fill="#ACD80B" d="M161.1 9.1s1-3.1 3.3-2.9c2.3.1 2.9 1.7 2.9 2.2v.8l-6 .4-.2-.5z"/><path fill="#FCFCFC" d="M175.1 9.5s.4.8-.1 1c-.6.2-1.7.1-2.2.2-.5.1-2.2.2-2.4.2-.1 0-1-.1-1.2-.3-.2-.3-.3-.5-.3-.8 0-.3 1.4-1.2 2-1.1.6.1 2.1-.1 2.5 0 .4.1 1.7.8 1.7.8z"/><path fill="#ACD80B" d="M168.9 9.7s0-1.6.6-2.2c.6-.6 1.7-1.3 2.7-1.1 1.1.2 2.4 1 2.5 1.3.1.3.7 1.5.7 1.5l-6.5.5z"/><circle cx="172.3" cy="10.1" r=".4" fill="#677F03"/><path fill="#9DC105" d="M160.5 8.1c0 .3-.3.6-.6.6s-.6-.3-.6-.6.3-.6.6-.6.6.3.6.6zm-.5-1.4c0 .2-.1.3-.3.3-.2 0-.3-.1-.3-.3 0-.2.1-.3.3-.3.2-.1.3.1.3.3z"/><circle cx="160.7" cy="7" r=".3" fill="#9DC105"/><path fill="none" stroke="#9DC609" stroke-width="1.825" d="M158.1 8c.1-.5 0-1.1-.2-1.6m-5.3 13.4c.7-.7 2.1.1 3-.2m-4.4-.4c.4-.5 1.2 0 1.7 0m30.4 1.3c-.3-.9-2.1-.6-2.2.4m3.4-1.2c.5 0 1.3-.2 1.7.2"/><path fill="#0A0A0A" stroke="#0A0A0A" stroke-width="1.782" d="M160.4 11.8c.1-.8-1.3-4.3-2.2-4.2-1.2.1-.3 3.4-.3 4.1 0 1.4.4 2.9.3 4.3-.1 1.5.3 3.2-1.1 4.2-.6.4-1.5.6-2.1.9-.2.1-1 .2-1.1.4-.5.6.3.4.7.3.7-.2 1.5-.8 2.1-1.2.6-.4 1.4-.7 1.7-1.2.3-.5.4-1.5.3-2.1-.1-.8-.1-1.4-.2-2.2 0-.7-.1-1.4-.1-2.1-.1-.8-.1-1.4-.1-2.3 0-.7.4-1.5.1-2.2 1 1 1.6 2.6 2.3 3.7.1-.1-.3-.2-.3-.3m14.9-1c.1.7.3 1.4.4 2 1-1.1 1.5-3.7 2.5-4.8.9.2-.2 5.6-.2 6.5 0 .5 0 1 .1 1.5v1.3c0 .8-.4 2.9 0 3.4.7.8 2.2-.2 3.1.2-.1-1.2-2.4.6-2.7-1.1-.2-1.1.2-1.6.2-3.3 0-1.2-.2-2.8-.1-4.1.1-1.4 0-2.4-.5-3.7-.9.1-1.1.6-1.3 1.2-.3.7-.8 1.3-1.2 1.9 0-.4-.3-.8-.5-1.1" opacity=".11"/><path fill="none" stroke="#9DC609" stroke-width="1.825" d="M178.7 6.7c0 .1-.3.5-.4.7-.1.3-.1.6-.2.9"/><path fill="#ACD80B" d="M161.2 10.7c.1 1.2 1.3 1.8 2.3 1.6 1.1-.2 2.8-.2 3.1-1.6-.8 0-2 .4-2.9.4-.7.1-1.6-.1-2.5-.4m8.3.2c.8.9 2 1.4 3.2 1.4.5 0 1.1-.1 1.6-.4.4-.3 1.2-1 1-1.5-.2 0-.4.3-.7.4-.2.1-.5.1-.7.1-.5.1-1 .1-1.5.1H171c-.4 0-1 0-1.5-.1"/><circle cx="164.2" cy="10" r=".4" fill="#677F03"/><path fill="#8AA007" d="M42 103s-17.7 1.2-17.8 1.5c-.1.3 0 1.3 0 1.3l.6.4s-11.1-1-14.1-.3c-3.1.7-6.5 2.1-5.9 4.1.4 1.3 2.5 2.9 3.9 3.1 1.2.2-.1.3.8.8.6.3.5-.2 1 .5.4.5 1.5.8 2.1 1 .9.3 1.8.6 2.7.7 4.1.7 5.9 1.2 14.7 1.5 8.8.3 16.3-.7 19.3-1.2 0 0 3.1-.6 5.7-1.2s3.9-1.1 5.6-1.6c1.7-.4 2.9-.9 3.2-1.1.4-.2.4-.1.4-.8-.1-.7-2.9-3.6-4-4.4-1.1-.8-7.1-2.1-7.5-2.4-.4-.3-1.9-.6-3.5-.9-1.6-.3-3.2-.6-3.7-.6-.4-.1-1.6-.2-2.4-.2h-.4"/><path fill="#B1E00A" d="M20.5 106.6s-1.1-.1-1.8 0c-.5.1-.7.3-1 .6-.1.1-.1.3-.2.5-.3.7.2.6 1.2 1s1.2-.6 1.8-.9c.7-.3 2.9-1.3 2.9-1.3l.3-1.8-.6-9.8s1.3 2.3 1.5 2.9c.2.6 1.3 2.3 1.3 2.3l.2-2.2s.8-1.1.5-1.6c-.3-.5.2-.8.3-1.2.1-.5.8-1 .8-1s-5.3-3.5-6-3c-.7.5-.9 4.6-.7 6.7.2 2.1 1 5.2 1 5.2l-.1 2.2s-1 .7-1.3.7c-.3 0-2.7.2-3.2 0s-1.3-.2-1.6-.2c-.3 0-.7-.2-1.1-.1-.4.1-1.1.9-1.1.9l1.4.2s-.3.3.3.5 1.5 0 1.5 0l3.7-.6z"/><path fill="#0A0A0A" stroke="#0A0A0A" stroke-width="1.782" d="M26 111.3c-.6.2-1 .7-1.5 1.1-.6.4-1.2.6-1.8.9-1.3.7-2.7 1.4-3.9 2.3-1.4 1-.6 2 .6 2.6.7.3 1 .4 1.7.3.5 0 1.1-.1 1.5.1.1 1.2-.9 2.4-.6 3.6.1.7.9.6 1.5.3.3-.2.5-.6.7-.8.3-.4.7-.5 1-.8.5-.6.7-1.1 1.6-1.3.7-.1 1.2.4 1.4 1.1.1.5-.1 1.2-.2 1.7-.1.6-.2 1.2-.4 1.8-.5 1.4-.6 2.5 1.1 3 1.2.4 2.5.3 3.4-.6.5-.4.7-1.1 1.4-1.2.2 0 .7.2.8.3.4.3.3.7.5 1 .7.8 2.7.6 3.5.1 1-.5 1.4-1.5 1.5-2.5 0-.3.2-.9.1-1.2-.1-.6-.5-.8-.6-1.4-.1-.5.1-.8.3-1.3.2-.4 0-1 .1-1.4.3-.6 2-.8 2.5-.6-.3.6 0 1 .6.8 0 .3-.3 1.1-.5 1.3-.2.2-.6.2-.6.5-.1.3.3.5.4.7.2.6-.1.9.6 1.2.3.1 1 .4 1.4.4.8-.1.7-1.7.9-2.4.1-.7.7-2 .4-2.8-.1-.2-.4-.3-.4-.5-.1-.2 0-.5 0-.7-.1-.4-.6-1.1-.5-1.4 0-.1.6-.3.7-.5.1-.2.2-.5.3-.7.1-.4.3-.9.2-1.4l-.3-2.7c-.1-1.2-1.2-1.1-2.2-1.2.2.9-.1 2.1-.1 3 0 .4.4 3.5-.5 2.8-.2-.1-.4-1.3-.4-1.5 0-.6.3-1 .2-1.6-.1-.6-.3-1-.6-1.5-.2-.4-.4-.4-.7-.7-.1-.1-.5-.6-.6-.6-.8-.3-2.1 2.7-2.5.6 0-.3.2-.4.1-.7 0-.1-.7-.2-.8-.2-.6-.1-1.2.1-1.8.1-1.1.1-1.8-.2-2.9-.1-.6 0-3.3-.4-3.6-.8-.1.6 1 2.1-1.1 2.5-.4.1-.5-.4-.9-.3-.3.1-.6.7-.7 1" opacity=".11"/><path fill="#98BE29" d="M35.9 110.6c-.6.8-.5 2.8-.6 3.8-.1.9-.6 2.7.1 3.5 1.5-.5 1.4-3.5 1.7-4.7.2-.8.5-1.6.5-2.4 0-.6-.1-.7-.6-.8-.4-.1-.9 0-1.1.6m10.1 1c.5.4 1.2.8 1.6 1.4.3.5.5 1.2.9 1.7.2.3.6.5.8.7.1.1.5.6.6.7.2.1 1.4-.3 1.6-.4-.2-.5-.8-.7-1.1-1.2-.3-.5-.6-1.1-.9-1.5-.4-.5-.8-1.1-1.3-1.5-.5-.4-1.1-.6-1.6-.9-.4-.3-.9-1.2-1.3-1.3-.6-.2-1.1.5-1 .9.1 1 1.5 2.3 2.5 2.2m.8-3.2c.9.1 2.1.4 3 .7 1 .3 2 .4 3 .7 1.2.4 2.4 1 3.6 1.5.8.3 2.3.8 2.5 1.6-.4.5-1 .7-1.5.4-.5-.4-.9-1-1.6-1.3-1.2-.7-2.5-1.2-3.8-1.7-1.1-.5-2.2-1-3.4-1.3-1-.3-2.7.2-3.2-.8.4-.2 1.1.4 1.6.4m14.1 0c-.9.1-1.9-.4-2.8-.4-1 0-2-.1-2.9-.1-1.5-.1-3 .4-4.4.3-1-.1-2.5.1-3.4-.5.5-.4.8-.3 1.3-.3.3 0 .4.1.7.1.3 0 .7-.1 1-.1 1.1 0 2.2.1 3.3-.1 1.1-.2 2.3-.2 3.4 0 .8.1 1.6.3 2.4.3.3 0 .7-.2 1 0 .1 0 .4.8.4.8zm-41.8-.5c-.4 0-1 .7-1.4.9-.5.3-.9.6-1.4.9-1 .7-2.1 1.2-3.2 1.7-.8.4-2 .4-2.8 1-.6.6-.3.8-1.1.5-.4-.1-1.4-.2-1-.9.3-.4 1-.2 1.4-.2.6-.1.9-.3 1.4-.6.9-.6 1.9-1.1 2.9-1.4 1-.3 2-.9 3-1.4.2-.1.5-.1.7-.2.2-.1.4-.5.6-.6.8-.4.7.4.3.9"/><path fill="#BEEF0C" d="M40.9 101.9s-.1-2.7-.4-3.7c-.2-1-6-3.1-7.4-3.2-1.5-.1-6.4.9-6.8 1.4-.4.5-.7 3.4-.6 3.9.1.5.1 2 .1 2h7.3c1 0 4.3.6 4.7.8.3.1 3.1-1.2 3.1-1.2z"/><path fill="#BBE50A" d="M25.7 102.8c.1-.3-.6-2 5.2-1.9 5.9.1 7.9-.2 8.5.5.6.6 1.3 1.4 1 2.5-.3 1.2-1.2 3.5-2 3.7-.8.3-2.2.9-4.6 1-1.4.1-4.7 0-5.9-1-.6-.5-1.6-1.3-1.8-1.8-.2-.5-.3-1.6-.4-2-.1-.4 0-1 0-1z"/><path fill="#AFDD07" d="M15.3 106.1c0 .4-.4.7-1 .7-.5 0-1-.3-1-.7 0-.4.4-.7 1-.7s1 .3 1 .7z"/><ellipse cx="16.3" cy="106.8" fill="#AFDD07" rx="1" ry=".7"/><path fill="#AFDD07" d="M19.5 107.6c0 .6-.6 1.1-1.3 1.1-.7 0-1.3-.5-1.3-1.1 0-.6.6-1.1 1.3-1.1.8 0 1.3.5 1.3 1.1z"/><path fill="#B1E00A" d="M25.7 102.1s-1.3.1-1.2 1.6c.1 1.5.6 2.5.9 2.8.3.3.8 1 .8 1s-.4.4-.4.3c-.1-.1-2.3.4-2.7.4-.4 0-1.3.3-1.7.5-.3.1-.7.3-.6.5.1.2.7.3 1.2.3s1.2-.4 1.2-.4l.8-.2s.1.1 0 .3c-.1.2-.7.5-.2.7.5.2 1.7 0 1.7 0l.3-.7s.6-.6.9-.3c.2.2.7.9.6 1.1-.1.2.4.6.9.3s1.1-.5.7-.9c-.4-.4-1.5-1.2-1.6-1.3-.1-.1-.1-1.2-.1-1.2s-1-1.9-1.1-2.3c-.1-.4-.2-1.7-.2-1.7l-.2-.8zm13.7 4.7v1.2l-.6.6s-1 .5-1 .8c0 .3.6 1 .8.9.2-.1.6-.4.8-.5.2-.1.4-.6.4-.6s.6-.3.7-.2c.1.1-.1.6.4.8.5.2.8.2 1.3.1s.9-.2.9-.5-.4-.6-.4-.6.6.4 1 .5c.4 0 .9.2 1.1.1.3-.1 1-.2.8-.6-.1-.4-.6-.8-1-.9-.4-.1-1.8-.2-2-.3-.2 0-1-.1-1.3-.1-.2 0-.7.3-.8 0-.1-.3.3-.3.4-.7.1-.4.6-1 .8-1.4.2-.4.6-1.9.3-2.1-.3-.2-1-1.3-1.1-1.4 0-.1-.8.2-.8.2s.4 1.5.3 1.8c-.1.3-.9 2-.9 2l-.1.9z"/><path fill="#B1E00A" d="M39.7 94.4s3.8-3.4 4.8-2.9 1.4 4.3 1 6.4c-.4 2.1-1.1 7-.9 7.5.3.5 1.1 1.5 2.1 1.4 1-.1 2.5-.3 2.5-.3s1.5-.1 1.8-.4c.4-.3 1-.4 1.1 0 .1.3.6.2.4.7-.2.5-.1 1-.6.8-.4-.2-.9-.5-.9-.5s.2.3.2.5c0 .3-.2.6-.6.7-.4.1-1 .1-1.3 0-.3-.1-.3-.8-.3-.8h-.7s0 .1.1.5c.1.3.1.7-.3.7s-.9 0-1.3-.1-.5-.5-.5-.5l-1.3.1-2.1-.6.1-11.7s-2.2 4.2-2.7 4.3c-.4.1-.3-1.7-.4-2.2-.1-.4.3-.8.3-.8l-.3-1.2c.2-.5-.2-1.6-.2-1.6z"/><path fill="#FCFCFC" d="M32.3 96.5s-.5 1.1-.8 1.2c-.3.1-2.4-.1-2.6 0-.3.1-1.6.5-1.8 0-.2-.5-.8-.9-.8-.9v-.3s2.4-.2 2.9-.2 2 .2 2.4 0c.4-.2.7.2.7.2z"/><path fill="#ACD80B" d="M31.5 97.7s-1.7.9-2.3 1.4c-.6.4-1.3.4-1.6.3-.3-.1-1.3-1.4-1.3-1.4v-.8s.8-.6.8 0 .8.9 1.3.7c.5-.2 1.9-.2 1.9-.2h1.2zm3.6-.1l4.7-.5.8.1s-.3.5-.4.7c-.1.2-1 1.1-1 1.1s-.8.4-1.7.3c-.8-.1-3.3-1.8-3.3-1.8"/><path fill="#FCFCFC" d="M26.3 96.4l.1 1.2c0 .1 1.7.6 2.7.5 1-.1 1.9 0 1.9 0s1.1-.4 1.3-1.3c.1-.3-.4-.9-.4-.9s-3.5-.2-3.8-.2c-.3 0-1.4.2-1.7.2-.2-.1-.2.4-.2.4"/><path fill="#ACD80B" d="M26.1 96.1s1-3.1 3.3-2.9c2.3.1 2.9 1.7 2.9 2.2v.8l-6 .4-.2-.5z"/><path fill="#FCFCFC" d="M40.1 96.5s.4.8-.1 1c-.6.2-1.7.1-2.2.2-.5.1-2.2.2-2.4.2-.1 0-1-.1-1.2-.3-.2-.3-.3-.5-.3-.8 0-.3 1.4-1.2 2-1.1.6.1 2.1-.1 2.5 0 .4.1 1.7.8 1.7.8z"/><path fill="#ACD80B" d="M34 96.7s0-1.6.6-2.2c.6-.6 1.7-1.3 2.7-1.1 1.1.2 2.4 1 2.5 1.3.1.3.7 1.5.7 1.5l-6.5.5z"/><circle cx="37.4" cy="97.1" r=".4" fill="#677F03"/><path fill="#9DC105" d="M25.6 95.1c0 .3-.3.6-.6.6s-.6-.3-.6-.6.3-.6.6-.6c.3-.1.6.2.6.6zm-.5-1.5c0 .2-.1.3-.3.3-.2 0-.3-.1-.3-.3 0-.2.1-.3.3-.3.1 0 .3.1.3.3z"/><circle cx="25.8" cy="93.9" r=".3" fill="#9DC105"/><path fill="none" stroke="#9DC609" stroke-width="1.825" d="M23.2 95c.1-.5 0-1.1-.2-1.6m-5.4 13.3c.7-.7 2.1.1 3-.2m-4.3-.3c.4-.5 1.2 0 1.7 0m30.3 1.2c-.3-.9-2.1-.6-2.2.4m3.5-1.2c.5 0 1.3-.2 1.7.2"/><path fill="#0A0A0A" stroke="#0A0A0A" stroke-width="1.782" d="M25.5 98.8c.1-.8-1.3-4.3-2.2-4.2-1.2.1-.3 3.4-.3 4.1 0 1.4.4 2.9.3 4.3-.1 1.5.3 3.2-1.1 4.2-.6.4-1.5.6-2.1.9-.2.1-1 .2-1.1.4-.5.6.3.4.7.3.7-.2 1.5-.8 2.1-1.2.6-.4 1.4-.7 1.7-1.2.3-.5.4-1.5.3-2.1-.1-.8-.1-1.4-.2-2.2 0-.7-.1-1.4-.1-2.1-.1-.8-.1-1.4-.1-2.3 0-.7.4-1.5.1-2.2 1 1 1.6 2.6 2.3 3.7.1-.1-.3-.2-.3-.3m14.9-1.1c.1.7.3 1.4.4 2 1-1.1 1.5-3.7 2.5-4.8.9.2-.2 5.6-.2 6.5 0 .5 0 1 .1 1.5v1.3c0 .8-.4 2.9 0 3.4.7.8 2.2-.2 3.1.2-.1-1.2-2.4.6-2.7-1.1-.2-1.1.2-1.6.2-3.3 0-1.2-.2-2.8-.1-4.1.1-1.4 0-2.4-.5-3.7-.9.1-1.1.6-1.3 1.2-.3.7-.8 1.3-1.2 1.9 0-.4-.3-.8-.5-1.1" opacity=".11"/><path fill="none" stroke="#9DC609" stroke-width="1.825" d="M43.8 93.6c0 .1-.3.5-.4.7-.1.3-.1.6-.2.9"/><path fill="#ACD80B" d="M26.3 97.7c.1 1.2 1.3 1.8 2.3 1.6 1.1-.2 2.8-.2 3.1-1.6-.8 0-2 .4-2.9.4-.7 0-1.7-.1-2.5-.4m8.3.1c.8.9 2 1.4 3.2 1.4.5 0 1.1-.1 1.6-.4.4-.3 1.2-1 1-1.5-.2 0-.4.3-.7.4-.2.1-.5.1-.7.1-.5.1-1 .1-1.5.1h-1.4c-.5 0-1 .1-1.5-.1"/><circle cx="29.3" cy="96.9" r=".4" fill="#677F03"/><path fill="#8AA007" d="M179 103s-17.7 1.2-17.8 1.5c-.1.3 0 1.3 0 1.3l.6.4s-11.1-1-14.1-.3c-3.1.7-6.5 2.1-5.9 4.1.4 1.3 2.5 2.9 3.9 3.1 1.2.2-.1.3.8.8.6.3.5-.2 1 .5.4.5 1.5.8 2.1 1 .9.3 1.8.6 2.7.7 4.1.7 5.9 1.2 14.7 1.5 8.8.3 16.3-.7 19.3-1.2 0 0 3.1-.6 5.7-1.2s3.9-1.1 5.6-1.6c1.7-.4 2.9-.9 3.2-1.1.4-.2.4-.1.4-.8-.1-.7-2.9-3.6-4-4.4-1.1-.8-7.1-2.1-7.5-2.4-.4-.3-1.9-.6-3.5-.9-1.6-.3-3.2-.6-3.7-.6-.4-.1-1.6-.2-2.4-.2h-.4"/><path fill="#B1E00A" d="M157.5 106.6s-1.1-.1-1.8 0c-.5.1-.7.3-1 .6-.1.1-.1.3-.2.5-.3.7.2.6 1.2 1s1.2-.6 1.8-.9c.7-.3 2.9-1.3 2.9-1.3l.3-1.8-.6-9.8s1.3 2.3 1.5 2.9c.2.6 1.3 2.3 1.3 2.3l.2-2.2s.8-1.1.5-1.6c-.3-.5.2-.8.3-1.2.1-.5.8-1 .8-1s-5.3-3.5-6-3c-.7.5-.9 4.6-.7 6.7.2 2.1 1 5.2 1 5.2l-.1 2.2s-1 .7-1.3.7c-.3 0-2.7.2-3.2 0s-1.3-.2-1.6-.2c-.3 0-.7-.2-1.1-.1-.4.1-1.1.9-1.1.9l1.4.2s-.3.3.3.5 1.5 0 1.5 0l3.7-.6z"/><path fill="#0A0A0A" stroke="#0A0A0A" stroke-width="1.782" d="M163 111.3c-.6.2-1 .7-1.5 1.1-.6.4-1.2.6-1.8.9-1.3.7-2.7 1.4-3.9 2.3-1.4 1-.6 2 .6 2.6.7.3 1 .4 1.7.3.5 0 1.1-.1 1.5.1.1 1.2-.9 2.4-.6 3.6.1.7.9.6 1.5.3.3-.2.5-.6.7-.8.3-.4.7-.5 1-.8.5-.6.7-1.1 1.6-1.3.7-.1 1.2.4 1.4 1.1.1.5-.1 1.2-.2 1.7-.1.6-.2 1.2-.4 1.8-.5 1.4-.6 2.5 1.1 3 1.2.4 2.5.3 3.4-.6.5-.4.7-1.1 1.4-1.2.2 0 .7.2.8.3.4.3.3.7.5 1 .7.8 2.7.6 3.5.1 1-.5 1.4-1.5 1.5-2.5 0-.3.2-.9.1-1.2-.1-.6-.5-.8-.6-1.4-.1-.5.1-.8.3-1.3.2-.4 0-1 .1-1.4.3-.6 2-.8 2.5-.6-.3.6 0 1 .6.8 0 .3-.3 1.1-.5 1.3-.2.2-.6.2-.6.5-.1.3.3.5.4.7.2.6-.1.9.6 1.2.3.1 1 .4 1.4.4.8-.1.7-1.7.9-2.4.1-.7.7-2 .4-2.8-.1-.2-.4-.3-.4-.5-.1-.2 0-.5 0-.7-.1-.4-.6-1.1-.5-1.4 0-.1.6-.3.7-.5.1-.2.2-.5.3-.7.1-.4.3-.9.2-1.4l-.3-2.7c-.1-1.2-1.2-1.1-2.2-1.2.2.9-.1 2.1-.1 3 0 .4.4 3.5-.5 2.8-.2-.1-.4-1.3-.4-1.5 0-.6.3-1 .2-1.6-.1-.6-.3-1-.6-1.5-.2-.4-.4-.4-.7-.7-.1-.1-.5-.6-.6-.6-.8-.3-2.1 2.7-2.5.6 0-.3.2-.4.1-.7 0-.1-.7-.2-.8-.2-.6-.1-1.2.1-1.8.1-1.1.1-1.8-.2-2.9-.1-.6 0-3.3-.4-3.6-.8-.1.6 1 2.1-1.1 2.4-.4.1-.5-.4-.9-.3-.3.1-.6.7-.7 1" opacity=".11"/><path fill="#98BE29" d="M172.9 110.6c-.6.8-.5 2.8-.6 3.8-.1.9-.6 2.7.1 3.5 1.5-.5 1.4-3.5 1.7-4.7.2-.8.5-1.6.5-2.4 0-.6-.1-.7-.6-.8-.4-.1-.9 0-1.1.6m10.1 1c.5.4 1.2.8 1.6 1.4.3.5.5 1.2.9 1.7.2.3.6.5.8.7.1.1.5.6.6.7.2.1 1.4-.3 1.6-.4-.2-.5-.8-.7-1.1-1.2-.3-.5-.6-1.1-.9-1.5-.4-.5-.8-1.1-1.3-1.5-.5-.4-1.1-.6-1.6-.9-.4-.3-.9-1.2-1.3-1.3-.6-.2-1.1.5-1 .9.1 1 1.5 2.3 2.5 2.2m.8-3.2c.9.1 2.1.4 3 .7 1 .3 2 .4 3 .7 1.2.4 2.4 1 3.6 1.5.8.3 2.3.8 2.5 1.6-.4.5-1 .7-1.5.4-.5-.4-.9-1-1.6-1.3-1.2-.7-2.5-1.2-3.8-1.7-1.1-.5-2.2-1-3.4-1.3-1-.3-2.7.2-3.2-.8.4-.2 1.1.4 1.6.4m14.1 0c-.9.1-1.9-.4-2.8-.4-1 0-2-.1-2.9-.1-1.5-.1-3 .4-4.4.3-1-.1-2.5.1-3.4-.5.5-.4.8-.3 1.3-.3.3 0 .4.1.7.1.3 0 .7-.1 1-.1 1.1 0 2.2.1 3.3-.1 1.1-.2 2.3-.2 3.4 0 .8.1 1.6.3 2.4.3.3 0 .7-.2 1 0 .1 0 .4.8.4.8zm-41.9-.5c-.4 0-1 .7-1.4.9-.5.3-.9.6-1.4.9-1 .7-2.1 1.2-3.2 1.7-.8.4-2 .4-2.8 1-.6.6-.3.8-1.1.5-.4-.1-1.4-.2-1-.9.3-.4 1-.2 1.4-.2.6-.1.9-.3 1.4-.6.9-.6 1.9-1.1 2.9-1.4 1-.3 2-.9 3-1.4.2-.1.5-.1.7-.2.2-.1.4-.5.6-.6.8-.4.7.4.3.9"/><path fill="#BEEF0C" d="M177.9 101.9s-.1-2.7-.4-3.7c-.2-1-6-3.1-7.4-3.2-1.5-.1-6.4.9-6.8 1.4-.4.5-.7 3.4-.6 3.9.1.5.1 2 .1 2h7.3c1 0 4.3.6 4.7.8.3.1 3.1-1.2 3.1-1.2z"/><path fill="#BBE50A" d="M162.7 102.8c.1-.3-.6-2 5.2-1.9 5.9.1 7.9-.2 8.5.5.6.6 1.3 1.4 1 2.5-.3 1.2-1.2 3.5-2 3.7-.8.3-2.2.9-4.6 1-1.4.1-4.7 0-5.9-1-.6-.5-1.6-1.3-1.8-1.8-.2-.5-.3-1.6-.4-2-.2-.4 0-1 0-1z"/><path fill="#AFDD07" d="M152.3 106.1c0 .4-.4.7-1 .7-.5 0-1-.3-1-.7 0-.4.4-.7 1-.7s1 .3 1 .7z"/><ellipse cx="153.3" cy="106.8" fill="#AFDD07" rx="1" ry=".7"/><path fill="#AFDD07" d="M156.5 107.6c0 .6-.6 1.1-1.3 1.1-.7 0-1.3-.5-1.3-1.1 0-.6.6-1.1 1.3-1.1.7 0 1.3.5 1.3 1.1z"/><path fill="#B1E00A" d="M162.6 102.1s-1.3.1-1.2 1.6c.1 1.5.6 2.5.9 2.8.3.3.8 1 .8 1s-.4.4-.4.3c-.1-.1-2.3.4-2.7.4-.4 0-1.3.3-1.7.5-.3.1-.7.3-.6.5.1.2.7.3 1.2.3s1.2-.4 1.2-.4l.8-.2s.1.1 0 .3c-.1.2-.7.5-.2.7.5.2 1.7 0 1.7 0l.3-.7s.6-.6.9-.3c.2.2.7.9.6 1.1-.1.2.4.6.9.3s1.1-.5.7-.9c-.4-.4-1.5-1.2-1.6-1.3-.1-.1-.1-1.2-.1-1.2s-1-1.9-1.1-2.3c-.1-.4-.2-1.7-.2-1.7l-.2-.8zm13.8 4.7v1.2l-.6.6s-1 .5-1 .8c0 .3.6 1 .8.9.2-.1.6-.4.8-.5.2-.1.4-.6.4-.6s.6-.3.7-.2c.1.1-.1.6.4.8.5.2.8.2 1.3.1s.9-.2.9-.5-.4-.6-.4-.6.6.4 1 .5c.4 0 .9.2 1.1.1.3-.1 1-.2.8-.6-.1-.4-.6-.8-1-.9-.4-.1-1.8-.2-2-.3-.2 0-1-.1-1.3-.1-.2 0-.7.3-.8 0-.1-.3.3-.3.4-.7.1-.4.6-1 .8-1.4.2-.4.6-1.9.3-2.1-.3-.2-1-1.3-1.1-1.4 0-.1-.8.2-.8.2s.4 1.5.3 1.8c-.1.3-.9 2-.9 2l-.1.9z"/><path fill="#B1E00A" d="M176.7 94.4s3.8-3.4 4.8-2.9 1.4 4.3 1 6.4c-.4 2.1-1.1 7-.9 7.5.3.5 1.1 1.5 2.1 1.4 1-.1 2.5-.3 2.5-.3s1.5-.1 1.8-.4c.4-.3 1-.4 1.1 0 .1.3.6.2.4.7-.2.5-.1 1-.6.8-.4-.2-.9-.5-.9-.5s.2.3.2.5c0 .3-.2.6-.6.7-.4.1-1 .1-1.3 0-.3-.1-.3-.8-.3-.8h-.7s0 .1.1.5c.1.3.1.7-.3.7s-.9 0-1.3-.1-.5-.5-.5-.5l-1.3.1-2.1-.6.1-11.7s-2.2 4.2-2.7 4.3c-.4.1-.3-1.7-.4-2.2-.1-.4.3-.8.3-.8l-.3-1.2c.2-.5-.2-1.6-.2-1.6z"/><path fill="#FCFCFC" d="M169.3 96.5s-.5 1.1-.8 1.2c-.3.1-2.4-.1-2.6 0-.3.1-1.6.5-1.8 0-.2-.5-.8-.9-.8-.9v-.3s2.4-.2 2.9-.2 2 .2 2.4 0c.4-.2.7.2.7.2z"/><path fill="#ACD80B" d="M168.5 97.7s-1.7.9-2.3 1.4c-.6.4-1.3.4-1.6.3-.3-.1-1.3-1.4-1.3-1.4v-.8s.8-.6.8 0 .8.9 1.3.7c.5-.2 1.9-.2 1.9-.2h1.2zm3.5-.1l4.7-.5.8.1s-.3.5-.4.7c-.1.2-1 1.1-1 1.1s-.8.4-1.7.3c-.8-.1-3.3-1.8-3.3-1.8"/><path fill="#FCFCFC" d="M163.3 96.4l.1 1.2c0 .1 1.7.6 2.7.5 1-.1 1.9 0 1.9 0s1.1-.4 1.3-1.3c.1-.3-.4-.9-.4-.9s-3.5-.2-3.8-.2c-.3 0-1.4.2-1.7.2-.2-.1-.2.4-.2.4"/><path fill="#ACD80B" d="M163.1 96.1s1-3.1 3.3-2.9 2.9 1.7 2.9 2.2v.8l-6 .4-.2-.5z"/><path fill="#FCFCFC" d="M177.1 96.5s.4.8-.1 1c-.6.2-1.7.1-2.2.2-.5.1-2.2.2-2.4.2-.1 0-1-.1-1.2-.3-.2-.3-.3-.5-.3-.8 0-.3 1.4-1.2 2-1.1.6.1 2.1-.1 2.5 0 .4.1 1.7.8 1.7.8z"/><path fill="#ACD80B" d="M171 96.7s0-1.6.6-2.2c.6-.6 1.7-1.3 2.7-1.1 1.1.2 2.4 1 2.5 1.3.1.3.7 1.5.7 1.5l-6.5.5z"/><circle cx="174.3" cy="97.1" r=".4" fill="#677F03"/><path fill="#9DC105" d="M162.6 95.1c0 .3-.3.6-.6.6s-.6-.3-.6-.6.3-.6.6-.6c.3-.1.6.2.6.6zm-.5-1.5c0 .2-.1.3-.3.3-.2 0-.3-.1-.3-.3 0-.2.1-.3.3-.3.1 0 .3.1.3.3z"/><circle cx="162.7" cy="93.9" r=".3" fill="#9DC105"/><path fill="none" stroke="#9DC609" stroke-width="1.825" d="M160.1 95c.1-.5 0-1.1-.2-1.6m-5.3 13.3c.7-.7 2.1.1 3-.2m-4.3-.3c.4-.5 1.2 0 1.7 0m30.3 1.2c-.3-.9-2.1-.6-2.2.4m3.5-1.2c.5 0 1.3-.2 1.7.2"/><path fill="#0A0A0A" stroke="#0A0A0A" stroke-width="1.782" d="M162.4 98.8c.1-.8-1.3-4.3-2.2-4.2-1.2.1-.3 3.4-.3 4.1 0 1.4.4 2.9.2 4.3-.1 1.5.3 3.2-1.1 4.2-.6.4-1.5.6-2.1.9-.2.1-1 .2-1.1.4-.5.6.3.4.7.3.7-.2 1.5-.8 2.1-1.2.6-.4 1.4-.7 1.7-1.2.3-.5.4-1.5.3-2.1-.1-.8-.1-1.4-.2-2.2 0-.7-.1-1.4-.1-2.1-.1-.8-.1-1.4-.1-2.3 0-.7.4-1.5.1-2.2 1 1 1.6 2.6 2.3 3.7.1-.1-.3-.2-.3-.3m15.1-1.1c.1.7.3 1.4.4 2 1-1.1 1.5-3.7 2.5-4.8.9.2-.2 5.6-.2 6.5 0 .5 0 1 .1 1.5v1.3c0 .8-.4 2.9 0 3.4.7.8 2.2-.2 3.1.2-.1-1.2-2.4.6-2.7-1.1-.2-1.1.2-1.6.2-3.3 0-1.2-.2-2.8-.1-4.1.1-1.4 0-2.4-.5-3.7-.9.1-1.1.6-1.3 1.2-.3.7-.8 1.3-1.2 1.9 0-.4-.3-.8-.5-1.1" opacity=".11"/><path fill="none" stroke="#9DC609" stroke-width="1.825" d="M180.8 93.6c0 .1-.3.5-.4.7-.1.3-.1.6-.2.9"/><path fill="#ACD80B" d="M163.3 97.7c.1 1.2 1.3 1.8 2.3 1.6 1.1-.2 2.8-.2 3.1-1.6-.8 0-2 .4-2.9.4-.7 0-1.7-.1-2.5-.4m8.3.1c.8.9 2 1.4 3.2 1.4.5 0 1.1-.1 1.6-.4.4-.3 1.2-1 1-1.5-.2 0-.4.3-.7.4-.2.1-.5.1-.7.1-.5.1-1 .1-1.5.1h-1.4c-.5 0-1 .1-1.5-.1"/><circle cx="166.3" cy="96.9" r=".4" fill="#677F03"/><path fill="#8AA007" d="M112.4 103s-17.7 1.2-17.8 1.5c-.1.3 0 1.3 0 1.3l.6.4s-11.1-1-14.1-.3c-3.1.7-6.5 2.1-5.9 4.1.4 1.3 2.5 2.9 3.9 3.1 1.2.2-.1.3.8.8.6.3.5-.2 1 .5.4.5 1.5.8 2.1 1 .9.3 1.8.6 2.7.7 4.1.7 5.9 1.2 14.7 1.5 8.8.3 16.3-.7 19.3-1.2 0 0 3.1-.6 5.7-1.2s3.9-1.1 5.6-1.6c1.7-.4 2.9-.9 3.2-1.1.4-.2.4-.1.4-.8-.1-.7-2.9-3.6-4-4.4-1.1-.8-7.1-2.1-7.5-2.4-.4-.3-1.9-.6-3.5-.9-1.6-.3-3.2-.6-3.7-.6-.4-.1-1.6-.2-2.4-.2h-.4"/><path fill="#B1E00A" d="M91 106.6s-1.1-.1-1.8 0c-.5.1-.7.3-1 .6-.1.1-.1.3-.2.5-.3.7.2.6 1.2 1s1.2-.6 1.8-.9c.7-.3 2.9-1.3 2.9-1.3l.3-1.8-.6-9.8s1.3 2.3 1.5 2.9c.2.6 1.3 2.3 1.3 2.3l.2-2.2s.8-1.1.5-1.6c-.3-.5.2-.8.3-1.2.1-.5.8-1 .8-1s-5.3-3.5-6-3c-.7.5-.9 4.6-.7 6.7.2 2.1 1 5.2 1 5.2l-.1 2.2s-1 .7-1.3.7c-.3 0-2.7.2-3.2 0s-1.3-.2-1.6-.2c-.3 0-.7-.2-1.1-.1-.4.1-1.1.9-1.1.9l1.4.2s-.3.3.3.5 1.5 0 1.5 0l3.7-.6z"/><path fill="#0A0A0A" stroke="#0A0A0A" stroke-width="1.782" d="M96.4 111.3c-.6.2-1 .7-1.5 1.1-.6.4-1.2.6-1.8.9-1.3.7-2.7 1.4-3.9 2.3-1.4 1-.6 2 .6 2.6.7.3 1 .4 1.7.3.5 0 1.1-.1 1.5.1.1 1.2-.9 2.4-.6 3.6.1.7.9.6 1.5.3.3-.2.5-.6.7-.8.3-.4.7-.5 1-.8.5-.6.7-1.1 1.6-1.3.7-.1 1.2.4 1.4 1.1.1.5-.1 1.2-.2 1.7-.1.6-.2 1.2-.4 1.8-.5 1.4-.6 2.5 1.1 3 1.2.4 2.5.3 3.4-.6.5-.4.7-1.1 1.4-1.2.2 0 .7.2.8.3.4.3.3.7.5 1 .7.8 2.7.6 3.5.1 1-.5 1.4-1.5 1.5-2.5 0-.3.2-.9.1-1.2-.1-.6-.5-.8-.6-1.4-.1-.5.1-.8.3-1.3.2-.4 0-1 .1-1.4.3-.6 2-.8 2.5-.6-.3.6 0 1 .6.8 0 .3-.3 1.1-.5 1.3-.2.2-.6.2-.6.5-.1.3.3.5.4.7.2.6-.1.9.6 1.2.3.1 1 .4 1.4.4.8-.1.7-1.7.9-2.4.1-.7.7-2 .4-2.8-.1-.2-.4-.3-.4-.5-.1-.2 0-.5 0-.7-.1-.4-.6-1.1-.5-1.4 0-.1.6-.3.7-.5.1-.2.2-.5.3-.7.1-.4.3-.9.2-1.4l-.3-2.7c-.1-1.2-1.2-1.1-2.2-1.2.2.9-.1 2.1-.1 3 0 .4.4 3.5-.5 2.8-.2-.1-.4-1.3-.4-1.5 0-.6.3-1 .2-1.6-.1-.6-.3-1-.6-1.5-.2-.4-.4-.4-.7-.7-.1-.1-.5-.6-.6-.6-.8-.3-2.1 2.7-2.5.6 0-.3.2-.4.1-.7 0-.1-.7-.2-.8-.2-.6-.1-1.2.1-1.8.1-1.1.1-1.8-.2-2.9-.1-.6 0-3.3-.4-3.6-.8-.1.6 1 2.1-1.1 2.5-.4.1-.5-.4-.9-.3-.3.1-.6.7-.7 1" opacity=".11"/><path fill="#98BE29" d="M106.3 110.6c-.6.8-.5 2.8-.6 3.8-.1.9-.6 2.7.1 3.5 1.5-.5 1.4-3.5 1.7-4.7.2-.8.5-1.6.5-2.4 0-.6-.1-.7-.6-.8-.4-.1-.8 0-1.1.6m10.1 1c.5.4 1.2.8 1.6 1.4.3.5.5 1.2.9 1.7.2.3.6.5.8.7.1.1.5.6.6.7.2.1 1.4-.3 1.6-.4-.2-.5-.8-.7-1.1-1.2-.3-.5-.6-1.1-.9-1.5-.4-.5-.8-1.1-1.3-1.5-.5-.4-1.1-.6-1.6-.9-.4-.3-.9-1.2-1.3-1.3-.6-.2-1.1.5-1 .9.1 1 1.5 2.3 2.5 2.2m.9-3.2c.9.1 2.1.4 3 .7 1 .3 2 .4 3 .7 1.2.4 2.4 1 3.6 1.5.8.3 2.3.8 2.5 1.6-.4.5-1 .7-1.5.4-.5-.4-.9-1-1.6-1.3-1.2-.7-2.5-1.2-3.8-1.7-1.1-.5-2.2-1-3.4-1.3-1-.3-2.7.2-3.2-.8.4-.2 1.1.4 1.6.4m14 0c-.9.1-1.9-.4-2.8-.4-1 0-2-.1-2.9-.1-1.5-.1-3 .4-4.4.3-1-.1-2.5.1-3.4-.5.5-.4.8-.3 1.3-.3.3 0 .4.1.7.1.3 0 .7-.1 1-.1 1.1 0 2.2.1 3.3-.1 1.1-.2 2.3-.2 3.4 0 .8.1 1.6.3 2.4.3.3 0 .7-.2 1 0 .1 0 .5.8.4.8zm-41.8-.5c-.4 0-1 .7-1.4.9-.5.3-.9.6-1.4.9-1 .7-2.1 1.2-3.2 1.7-.8.4-2 .4-2.8 1-.6.6-.3.8-1.1.5-.4-.1-1.4-.2-1-.9.3-.4 1-.2 1.4-.2.6-.1.9-.3 1.4-.6.9-.6 1.9-1.1 2.9-1.4 1-.3 2-.9 3-1.4.2-.1.5-.1.7-.2.2-.1.4-.5.6-.6.8-.4.7.4.3.9"/><path fill="#BEEF0C" d="M111.3 101.9s-.1-2.7-.4-3.7c-.2-1-6-3.1-7.4-3.2-1.5-.1-6.4.9-6.8 1.4-.4.5-.7 3.4-.6 3.9.1.5.1 2 .1 2h7.3c1 0 4.3.6 4.7.8.3.1 3.1-1.2 3.1-1.2z"/><path fill="#BBE50A" d="M96.2 102.8c.1-.3-.6-2 5.2-1.9 5.9.1 7.9-.2 8.5.5.6.6 1.3 1.4 1 2.5-.3 1.2-1.2 3.5-2 3.7-.8.3-2.2.9-4.6 1-1.4.1-4.7 0-5.9-1-.6-.5-1.6-1.3-1.8-1.8-.2-.5-.3-1.6-.4-2-.2-.4 0-1 0-1z"/><path fill="#AFDD07" d="M85.8 106.1c0 .4-.4.7-1 .7-.5 0-1-.3-1-.7 0-.4.4-.7 1-.7.5 0 1 .3 1 .7z"/><ellipse cx="86.7" cy="106.8" fill="#AFDD07" rx="1" ry=".7"/><path fill="#AFDD07" d="M90 107.6c0 .6-.6 1.1-1.3 1.1-.7 0-1.3-.5-1.3-1.1 0-.6.6-1.1 1.3-1.1.7 0 1.3.5 1.3 1.1z"/><path fill="#B1E00A" d="M96.1 102.1s-1.3.1-1.2 1.6c.1 1.5.6 2.5.9 2.8.3.3.8 1 .8 1s-.4.4-.4.3c-.1-.1-2.3.4-2.7.4-.4 0-1.3.3-1.7.5-.3.1-.7.3-.6.5.1.2.7.3 1.2.3s1.2-.4 1.2-.4l.8-.2s.1.1 0 .3c-.1.2-.7.5-.2.7.5.2 1.7 0 1.7 0l.3-.7s.6-.6.9-.3c.2.2.7.9.6 1.1-.1.2.4.6.9.3s1.1-.5.7-.9c-.4-.4-1.5-1.2-1.6-1.3-.1-.1-.1-1.2-.1-1.2s-1-1.9-1.1-2.3c-.1-.4-.2-1.7-.2-1.7l-.2-.8zm13.7 4.7v1.2l-.6.6s-1 .5-1 .8c0 .3.6 1 .8.9.2-.1.6-.4.8-.5.2-.1.4-.6.4-.6s.6-.3.7-.2c.1.1-.1.6.4.8.5.2.8.2 1.3.1s.9-.2.9-.5-.4-.6-.4-.6.6.4 1 .5c.4 0 .9.2 1.1.1.3-.1 1-.2.8-.6-.1-.4-.6-.8-1-.9-.4-.1-1.8-.2-2-.3-.2 0-1-.1-1.3-.1-.2 0-.7.3-.8 0-.1-.3.3-.3.4-.7.1-.4.6-1 .8-1.4.2-.4.6-1.9.3-2.1s-1-1.3-1.1-1.4c0-.1-.8.2-.8.2s.4 1.5.3 1.8c-.1.3-.9 2-.9 2l-.1.9z"/><path fill="#B1E00A" d="M110.1 94.4s3.8-3.4 4.8-2.9 1.4 4.3 1 6.4c-.4 2.1-1.1 7-.9 7.5.3.5 1.1 1.5 2.1 1.4 1-.1 2.5-.3 2.5-.3s1.5-.1 1.8-.4c.4-.3 1-.4 1.1 0 .1.3.6.2.4.7-.2.5-.1 1-.6.8-.4-.2-.9-.5-.9-.5s.2.3.2.5c0 .3-.2.6-.6.7-.4.1-1 .1-1.3 0-.3-.1-.3-.8-.3-.8h-.4s0 .1.1.5c.1.3.1.7-.3.7s-.9 0-1.3-.1-.5-.5-.5-.5l-1.3.1-2.1-.6.1-11.7s-2.2 4.2-2.7 4.3c-.4.1-.3-1.7-.4-2.2-.1-.4.3-.8.3-.8l-.3-1.2c0-.5-.5-1.6-.5-1.6z"/><path fill="#FCFCFC" d="M102.8 96.5s-.5 1.1-.8 1.2c-.3.1-2.4-.1-2.6 0-.3.1-1.6.5-1.8 0-.2-.5-.8-.9-.8-.9v-.3s2.4-.2 2.9-.2 2 .2 2.4 0c.3-.2.7.2.7.2z"/><path fill="#ACD80B" d="M101.9 97.7s-1.7.9-2.3 1.4c-.6.4-1.3.4-1.6.3-.3-.1-1.3-1.4-1.3-1.4v-.8s.8-.6.8 0 .8.9 1.3.7c.5-.2 1.9-.2 1.9-.2h1.2zm3.6-.1l4.7-.5.8.1s-.3.5-.4.7c-.1.2-1 1.1-1 1.1s-.8.4-1.7.3c-.8-.1-3.3-1.8-3.3-1.8"/><path fill="#FCFCFC" d="M96.7 96.4l.1 1.2c0 .1 1.7.6 2.7.5 1-.1 1.9 0 1.9 0s1.1-.4 1.3-1.3c.1-.3-.4-.9-.4-.9s-3.5-.2-3.8-.2c-.3 0-1.4.2-1.7.2-.2-.1-.2.4-.2.4"/><path fill="#ACD80B" d="M96.6 96.1s1-3.1 3.3-2.9c2.3.1 2.9 1.7 2.9 2.2v.8l-6 .4-.2-.5z"/><path fill="#FCFCFC" d="M110.6 96.5s.4.8-.1 1c-.6.2-1.7.1-2.2.2-.5.1-2.2.2-2.4.2-.1 0-1-.1-1.2-.3-.2-.3-.3-.5-.3-.8 0-.3 1.4-1.2 2-1.1.6.1 2.1-.1 2.5 0 .4.1 1.7.8 1.7.8z"/><path fill="#ACD80B" d="M104.4 96.7s0-1.6.6-2.2c.6-.6 1.7-1.3 2.7-1.1 1.1.2 2.4 1 2.5 1.3.1.3.7 1.5.7 1.5l-6.5.5z"/><circle cx="107.8" cy="97.1" r=".4" fill="#677F03"/><path fill="#9DC105" d="M96 95.1c0 .3-.3.6-.6.6s-.6-.3-.6-.6.3-.6.6-.6c.3-.1.6.2.6.6zm-.5-1.5c0 .2-.1.3-.3.3-.2 0-.3-.1-.3-.3 0-.2.1-.3.3-.3.2 0 .3.1.3.3z"/><circle cx="96.2" cy="93.9" r=".3" fill="#9DC105"/><path fill="none" stroke="#9DC609" stroke-width="1.825" d="M93.6 95c.1-.5 0-1.1-.2-1.6m-5.3 13.3c.7-.7 2.1.1 3-.2m-4.4-.3c.4-.5 1.2 0 1.7 0m30.4 1.2c-.3-.9-2.1-.6-2.2.4m3.4-1.2c.5 0 1.3-.2 1.7.2"/><path fill="#0A0A0A" stroke="#0A0A0A" stroke-width="1.782" d="M95.9 98.8c.1-.8-1.3-4.3-2.2-4.2-1.2.1-.3 3.4-.3 4.1 0 1.4.4 2.9.3 4.3-.1 1.5.3 3.2-1.1 4.2-.6.4-1.5.6-2.1.9-.2.1-1 .2-1.1.4-.5.6.3.4.7.3.7-.2 1.5-.8 2.1-1.2.6-.4 1.4-.7 1.7-1.2.3-.5.4-1.5.3-2.1-.1-.8-.1-1.4-.2-2.2 0-.7-.1-1.4-.1-2.1-.1-.8-.1-1.4-.1-2.3 0-.7.4-1.5.1-2.2 1 1 1.6 2.6 2.3 3.7.1-.1-.3-.2-.3-.3m14.9-1.1c.1.7.3 1.4.4 2 1-1.1 1.5-3.7 2.5-4.8.9.2-.2 5.6-.2 6.5 0 .5 0 1 .1 1.5v1.3c0 .8-.4 2.9 0 3.4.7.8 2.2-.2 3.1.2-.1-1.2-2.4.6-2.7-1.1-.2-1.1.2-1.6.2-3.3 0-1.2-.2-2.8-.1-4.1.1-1.4 0-2.4-.5-3.7-.9.1-1.1.6-1.3 1.2-.3.7-.8 1.3-1.2 1.9 0-.4-.3-.8-.5-1.1" opacity=".11"/><path fill="none" stroke="#9DC609" stroke-width="1.825" d="M114.2 93.6c0 .1-.3.5-.4.7-.1.3-.1.6-.2.9"/><path fill="#ACD80B" d="M96.7 97.7c.1 1.2 1.3 1.8 2.3 1.6 1.1-.2 2.8-.2 3.1-1.6-.8 0-2 .4-2.9.4-.7 0-1.6-.1-2.5-.4m8.3.1c.8.9 2 1.4 3.2 1.4.5 0 1.1-.1 1.6-.4.4-.3 1.2-1 1-1.5-.2 0-.4.3-.7.4-.2.1-.5.1-.7.1-.5.1-1 .1-1.5.1h-1.4c-.4 0-1 .1-1.5-.1"/><circle cx="99.7" cy="96.9" r=".4" fill="#677F03"/></g></switch></svg>
