<svg xmlns="http://www.w3.org/2000/svg" version="1.0" viewBox="0 0 220 129"><switch><g><path fill="#FCF" d="M0 0h220v119.1H0z"/><path fill="#BFA480" stroke="#BFA480" stroke-width=".25" d="M0 100.5h220v6.1H0z"/><path fill="#A4A3A3" stroke="#A4A3A3" d="M0 104.1h220V129H0z"/><path fill="#BAB688" d="M171 60.2l14 6.2v39.4l-20.4-20.5z"/><path fill="#AAA87A" d="M29.8 58.7v-9.6l.8-7.8s4.3-.3 7.5-.8c3.2-.4 134.3-.1 135.9.4 1.6.4 2 8 2 8v10.3l-4.8.5s-2.4 9.6-1.6 10.9c.8 1.3-133.5-.9-133.5-.9l-.4-8.7-5.9-2.3z"/><path fill="#A7A379" stroke="#A7A379" stroke-width=".25" d="M13 106.8V67s.1-1.8 2.2-2.6c2-.8 15.5-5.3 15.5-5.3l6 1.2s-5.5 1.4-9.9 3.2c-2.2.9-4.4 1.6-4.8 2.9-1.1 4-.6 40.5-.6 40.5H13z"/><path fill="#BAB688" d="M36.7 71v31l-15.3 4.9V75.5s-.6-8 .6-9.6c1.2-1.7 14.7-5.6 14.7-5.6V71z"/><path fill="#5A3C17" stroke="#5A3C17" stroke-width=".25" d="M19.6 106.8l1.6 15.2h3.1l1.6-15.2z"/><path fill="#BAB688" d="M185 105.8c0 .6-.4 1.1-.9 1.1H22.2c-.5 0-.9-.5-.9-1.1V91.9c0-.6.4-1.1.9-1.1h161.9c.5 0 .9.5.9 1.1v13.9z"/><path fill="#C0BB91" stroke="#A19973" stroke-width=".25" d="M76.3 90c0 .5-.4.9-.9.9H23.6c-.5 0-.8-.4-.8-.9V79.7c0-.5.4-.9.8-.9h51.8c.5 0 .9.4.9.9V90z"/><path fill="#C0BB91" stroke="#A19973" stroke-width=".25" d="M131.2 90c0 .5-.4.9-.8.9H77.1c-.5 0-.8-.4-.8-.9v-9.3c0-.5.4-.9.8-.9h53.2c.5 0 .8.4.8.9V90zm53.8 0c0 .5-.4.9-.9.9h-52c-.5 0-.9-.4-.9-.9v-9.3c0-.5.4-.9.9-.9h52c.5 0 .9.4.9.9V90z"/><path fill="#A7A379" stroke="#A7A379" stroke-width=".25" d="M170.1 59.7l14.9 6.7v39.4l8.7 1v-41l-16.8-6.2z"/><path fill="#D1CDAF" stroke="#A19973" stroke-width=".25" d="M23.6 78.8s1-3.6 6.2-5.8c5.2-2.2 9.2-3.4 9.2-3.4s37.8-.8 40.3 1.5-3.9 7.7-3.9 7.7H23.6zm108.3.9s-4.7-8.7-6-9.3c-1.3-.5 18-.3 25.3-.3 7.3-.1 13.8-.2 17.3 1s19.5 7.7 15.5 8.6c-3.9.9-52.1 0-52.1 0z"/><path fill="#D1CDAF" stroke="#A19973" stroke-width=".25" d="M76.3 78l3.6-5.3s-.7-2.4 3.8-2.6c4.5-.2 40.9-.7 40.9-.7s4 3.2 5.1 5.4c1 2.2 2.2 4.8 2.2 4.8H77.1l-.8-1.6z"/><path fill="#5A3C17" stroke="#5A3C17" stroke-width=".25" d="M46.8 57.1c0 1-.8 1.9-1.8 1.9s-1.8-.8-1.8-1.9c0-1 .8-1.9 1.8-1.9s1.8.9 1.8 1.9zm21.6 0c0 1-.8 1.9-1.8 1.9s-1.8-.8-1.8-1.9c0-1 .8-1.9 1.8-1.9s1.8.8 1.8 1.9zm23.8 0c0 1-.8 1.9-1.8 1.9s-1.8-.8-1.8-1.9c0-1 .8-1.9 1.8-1.9s1.8.8 1.8 1.9zm24.2 0c0 1-.8 1.9-1.8 1.9s-1.8-.8-1.8-1.9c0-1 .8-1.9 1.8-1.9s1.8.8 1.8 1.9z"/><ellipse cx="137.5" cy="57.1" fill="#5A3C17" stroke="#5A3C17" stroke-width=".25" rx="1.8" ry="1.9"/><path fill="#5A3C17" stroke="#5A3C17" stroke-width=".25" d="M159.7 57.1c0 1-.8 1.9-1.8 1.9s-1.8-.8-1.8-1.9c0-1 .8-1.9 1.8-1.9s1.8.9 1.8 1.9zm24.1 49.6l1.4 14.4h2.8l1.8-14.4z"/><path fill="#5A3C17" stroke="#5A3C17" stroke-width=".25" d="M65.9 55.9c.5-2.6 1.7-6.1 4.1-7.2.1 2.3-1.6 4.6-1.7 7.1-.1 2.5 1.9 6.9 1.7 9.4-1.6-.7-2.2-5.4-3.9-7.1-2.2-2.2-4.4 1.3-6.3 1.7.8-2.8 4.6-4.1 6.6-5.6m23.2 2.4c.5-2.6 1.7-6.1 4.1-7.2.1 2.3-1.6 4.6-1.7 7.1-.1 2.5 1.9 6.9 1.7 9.4-1.6-.7-2.2-5.4-3.9-7.1-2.2-2.2-4.4 1.3-6.3 1.7.8-2.8 4.6-4.1 6.6-5.6m23.4 2c.5-2.6 1.7-6.1 4.1-7.2.1 2.3-1.6 4.6-1.7 7.1-.1 2.5 1.9 6.9 1.7 9.4-1.6-.7-2.2-5.4-3.8-7.1-2.2-2.2-4.4 1.3-6.3 1.7.8-2.8 4.6-4.1 6.6-5.6m22.6.7c.5-2.6 1.7-6.1 4.1-7.2.1 2.3-1.6 4.6-1.7 7.1-.1 2.5 1.9 6.9 1.7 9.4-1.6-.7-2.2-5.4-3.9-7.1-2.2-2.2-4.4 1.3-6.3 1.7.8-2.8 4.6-4.1 6.6-5.6m19.9 2.7c.5-2.6 1.7-6.1 4.1-7.2.1 2.3-1.6 4.6-1.7 7.1-.1 2.5 1.9 6.9 1.7 9.4-1.6-.7-2.2-5.4-3.9-7.1-2.2-2.2-4.4 1.3-6.3 1.7.8-2.8 4.6-4.1 6.6-5.6M44.3 56.6c.5-2.6 1.7-6.1 4.1-7.2.1 2.3-1.6 4.6-1.7 7.1-.1 2.5 1.9 6.9 1.7 9.4-1.6-.7-2.2-5.4-3.8-7.1-2.2-2.2-4.4 1.3-6.3 1.7.8-2.8 4.6-4.1 6.6-5.6" opacity=".08"/><path fill="#5A3C17" stroke="#5A3C17" stroke-width=".25" d="M38.5 60.3c1.3 5.9 6.4 10.1 12 10.3-4.6-.2-9.4-.8-13.5 1.6 0-2.8.2-6.1.6-9.1m134.1-3.8c-1.7 7.1-8.5 9.2-14.2 12.2 6.9.2 14.2 2.8 21.1 2.7-6.2-.6-4.7-8.6-6.1-14" opacity=".1"/><path fill="#5A3C17" stroke="#5A3C17" stroke-width=".25" d="M35.2 71.4s27.2-2.7 58.6-3.8c31.4-1.2 76.3 3.8 76.3 3.8H35.2zM22.8 90H185v2H22.8z" opacity=".1"/><path fill="#0F9A49" d="M139.9 50.2c-3.3-1.9-3.2 5.2-4.1 6.6-1.3 2.2-6 3.6-8.4 5.2-6.2 4.4-13.9 9.6-16.9 16.9-1.3 3.2-1.8 6.5-3.8 9.4-1 1.4-1.4 3.3-3.6 2.3-1-.4-3.4-2.7-3.9-3.6.7-.6 2.8-1.3 3.2-2 .6-1.1-.3-3.4-.4-4.7 0-3.3-.2-6.5 1.2-9.4 1.2-2.4 3.2-5.1 5.5-6.6 3.1-2 3.2-3.7 2.9-7.3-.3-3.2-.6-8.1.9-10.9.9-1.7 2.3-1.7 3.8-2.4 1.7-.8 3-2.4 5.1-2.4 1.4 3.2 5.1 3.7 8 2 1.7-1 6.7-4.1 8.7-2.8 0 1 .8 1.2 1.1 2.1.3.9.3 1.6.3 2.6.2 1.7 1.1 3.6.4 5.4.2.2.1 0 .2-.2"/><path fill="#D9AF89" d="M141.9 40c.9-.7 2.2-.6 3.1-1.2 1.1-.8 1.2-1.7 1.6-3 .9-2.4 2.3-4.8 2.7-7.3.2-1.3-.1-2.3-.3-3.6-.2-1.4.4-2.6.3-3.8-.1-.7-2.1-2.6-.6-3.2.6-.2 1.6 1.7 2 2.2 0-.7.1-1.5.2-2.2-2.4.5-1-1.5.4-1.8 2.2-.5 2.2.4 3.2 1.8 2.1 3 2.1 4.9 1 8.3-1.8 5.7-.1 13.1-5.3 17.8-1.6 1.5-5 3.3-7.1 3.8-.3-3.9-1.3-3.9-.6-8.8m-22.6 13.5c-.2 1.2-.6 5.4-.6 6.7 2-.5 5-.2 6.6 1.1-4.1 1.7-6 7.9-11.1 6.2-4.1-1.3-3.2-8.3-3-12 1.3-.2 3.3-.6 4.7-.2 1.5.4 1.9-1.3 3.3-.9"/><path fill="#FFF" d="M142.9 39.4c-1.4 2.4.8 7.8.4 10.7-1 .5-2.2.9-3.4 1-.2-2.8.3-5.1-.6-7.8-.2-.7-1.3-2.8-.7-3.4.4-.4 3.6-.4 3.9-.3m-21.8 12.8c0 .7.4 3.4-.4 4.2-1.5-1.8-2.5-2.7-4.9-2-1.6.4-3.9 1.2-4.7 2.7-.7-1.3-.4-2.8-.2-4.1.3-2.1.3-2.9 2.6-3 2.2-.1 8.1-.2 7.5 3"/><path fill="none" stroke="#985B5F" stroke-width=".25" d="M154.1 21.7c-.6.1-1 0-1.6.2.1-1 .9-1.8 1.8-2.3m-35.2 39.3c-1-.1-1.9.2-2.6.8"/><path fill="#D9AF89" d="M127.1 40.6c.8.1 3 .3 3.2 1.8.2 1.5-5.1 1.6-5.9 1.3-.9-.2-2.2-.8-2.6-1.7-.7-1.5.9-2.1.5-3.4"/><path fill="none" stroke="#985B5F" stroke-width=".25" d="M153.5 17.9c-.2.1-1.2.7-1.8 1v2.3h.8"/><path fill="#FBD6D9" stroke="#DFACB0" d="M92 115c-.1-1.3 1.3-2.3 1.8-3.6.5-1.3.5-2.8.8-4.1.7-2.6.6-6.6 1.9-8.8 1.4-2.5 4.9-3.6 6.9-5.4 2.2-2 3-5.2 4.4-7.7 2.9-5.1 4.8-10.5 7.7-15.5 2.9-5.1 9.3-7.7 13.7-11.2 1.9-1.5 3-1.7 5.5-1.6 1.2 2.5 5.9 2.1 8.5 3.1 3.3 1.2 6.6 2.2 9.8 3.3 1.5.5 2.5 1.4 4 1.8 1.5.4 3.1.3 4.6.6 3.5.7 5.2 2.7 7.1 5.5.9 1.4 2 3 2.6 4.5.6 1.7.6 3.6 1.4 5.3 1.2 2.5 3.5 4.4 4.7 6.9.9 1.8 1.4 5.1 1.4 7.1 0 2.1-.8 4-1.3 5.9-.9 3.7-1.8 7.2-3.1 10.8-1-2.2-5 .4-6.5 1-2.5 1.1-5.4 1.9-8.1 2.3-2.8.4-5.8.4-8.6-.2-2.5-.5-4.6-2.2-7-2.6 1-3.7-.9-5.1-4.6-5.1-3 0-5.9.1-8.2 2.2-1.3 1.2-1.2 2.7-2.1 3.9-.8 1.2-2.7 1.5-4 2-2.8 1-5.9 1.7-8.9 2.7-3.8 1.3-9 1.9-12.8.4-2-.8-3.6-1.6-5.5-2.5-1.9-1-4.5-1-6.4-1"/><path fill="#E97878" d="M93.8 110.2c2.8 0 5.8-.1 8.7.9 2.9 1 6.1 2.1 9.4 1.8 3.4-.3 6.5-1.1 9.8-1.8 2.4-.5 6.3-1.2 8.2-2.7 1.2-.9 1.2-2.1 2.2-3.2.7-.8 2.4-1.8 3.5-2.1 1.2-.4 3-.3 4.4-.2 1.5.1 3 1.4 4 1.2.8 1 .9 2.7 1.7 3.9 1.3 2 2.1 2.6 4.4 3.2 2.9.7 6.2 1.2 9.4.8 3.3-.4 5.4-2.2 8.4-3.4 1.2-.5 7.2-3.2 8-2.5.1 0 .1 0 .2.1-.5 1.7-1.4 3.4-2 5.2-3.9.2-5.9 1.7-9.4 3.1-2.7 1.1-6.3 1.7-9.2 2-3.1.3-7-.7-9.4-2.6-1.7-1.4-.5-2-1.2-3.9-.6-1.7-2.4-1.7-4-2-3.4-.5-6.4-.1-9.2 1.8-1.6 1.1-1.7 2.7-2.9 3.8-.9.8-3.2 1.4-4.4 1.8-3.2 1.2-6.3 2.1-9.4 3.2-2.8 1-6.5 1.5-9.4.3-2.3-1-4.7-2.1-7-3.2-2.5-1.1-4.7-.4-7.1-1 .2-.7 3.7-5.6 3.4-5.5"/><path fill="#020202" d="M139.3 106.4c.4 0 4.2 1.3 4.8 1.8 1.6 1.1.8 2.6-.8 3.6-1.2.8-3.8 1.5-5.3 1.3-1.8-.2-3-1.9-4.6-2.6 1.2-.9.5-2.3 1.6-3.2.9-.8 3.3-1.3 4.6-1.4"/><path fill="#020202" d="M135.6 109.1c.4 0 4.2 1.3 4.8 1.8 1.6 1.1.8 2.6-.8 3.6-1.2.8-3.8 1.5-5.3 1.3-1.8-.2-3-1.9-4.6-2.6 1.2-.9.5-2.3 1.6-3.2.9-.8 3.3-1.3 4.6-1.4"/><ellipse cx="173.7" cy="96.2" fill="#EEE818" rx="3.9" ry="3.7"/><circle cx="171.5" cy="96.4" r=".6"/><path fill="#F6911E" d="M169.8 96.6s-.3.5-.6.4c-.3-.1-.8-.4-1.1-.4-.3 0-.6.2-.3.8.2.6.7 1 1.3 1.1.7.1 1.6 0 1.6 0s-.4-.6-.5-.9c-.2-.3-.4-1-.4-1z"/><path fill="#EEE818" d="M172.9 99.9s-.2.7-.6 1.3c-.4.6-.9 1-.6 2.2.3 1.2.7 1.8.8 2 .1.1 1.8.2 2.7.2.9.1 3.1-.1 3.2-.2.1 0 1.5-1.5 1.4-2.7 0-1.2-.5-3-.7-2.9-.2.1-.5 1-1 1.1-.4.1-1.3-.2-1.9-.2H175c-.5-.1-.6.1-.7-.2 0-.3.1-.8.1-.8l-1.5.2z"/><path fill="#EEE818" d="M178.4 102.9s-1.4-1.4-2.9-1.3c-1.5.1-2.4.3-2.4 1.1s.2 1.7 1.7 2.1c1.5.4 2.2-.3 2.7-.8.6-.3.9-1.1.9-1.1zm-2.2 0s1.6.3 1.8.4m-2.3.5l1.9.3"/><path fill="#DFACB0" d="M172.6 115.8c-.7-1.1 2.5-4 3-5.4.4-1.2.5-2.3.9-3.4.4-1 .9-1.7 1.1-2.8.6-2.2 1.1-4.4 1.2-6.7.1-1.7-1.2-5.6 0-6.5.4.4 1 .9 1.4 1.2.2 2.7 1.5 5.1 2 7.7.6 2.8.1 6 .4 8.8.1.8 1.1 3.3.8 4-.5.8-2.8 1-3.6 1.2-2.7.6-5.1 1.8-7.8 2"/><path fill="#D76161" d="M182.6 108.7c-1.1.4-2.2 1.2-3.4 1.6-1.2.4-2.3.2-3.5.5-2 .5-3.2 2.5-4.2 4.5 2.2.7 11.2-.9 12-3.1-1.1-.7-.9-2.2-.9-3.5"/><path fill="#D5D6D6" d="M150.1 20.2c-.2-.7-.8-2.9-.8-2.9s0-.8-.1-.9c-.1-.2-.3-.3-.4-.2-.1.1-.3.3-.2.6.1.3.3.7.4.7 0 0 1.8 6.1 2.1 6 0 0-.7-2.6-1-3.3zm-1.2-3.8c.2 0 .2.7.2.7-.2 0-.4-.8-.2-.7z"/><path fill="none" stroke="#FFF" stroke-miterlimit="10" stroke-width=".25" d="M148.8 16.5c.8.4 1.3-.4 1.1-1.1-.2-.8-1-.8-1.8-1-.7-.2-1.2-.5-1.7-1-2.1-2.2-3.6-.4-2.1 1.9 1 1.5 1.4 2.3 1.5 4.2l.3 4.8c.1.7.3 1.4.3 2.1 0 .8-.4 1.6-.3 2.4 0-1.6.1-3.1.2-4.8 0-.8.3-1.6.2-2.4-.2-.8-.9-1.5-1.2-2.3-.3-.7-.3-1.5-.3-2.3-.1-1-.4-1.3-.7-2.1-.8-1.9-.6-2.9 1.7-2.2"/><path fill="none" stroke="#FFF" stroke-miterlimit="10" stroke-width=".25" d="M134.2 58.4c-.9-.9 4.5-6.3 5.2-7.3 2.2-2.9 4.5-6.5 5.4-10 .5-1.9.7-3.8 1-5.6.2-1.2.9-2.2 1.1-3.5.2-1.8-.9-3.5-.5-5.1-.5 1.5-.1 1.8.3 3.1.3 1 .2 2.5 0 3.6-.4 2.3-1 4.4-1.3 6.9-.2 2.7-2.1 4.3-3.4 6.6-1.2 2.1-2.8 4.2-4.1 6.3-.6 1-4.5 5-3.8 5.5"/><path fill="#FFF" d="M114.7 40.3s-3.3 7.7 2.4 9.6c5.7 1.9 7.9-4.9 7.9-4.9s5.6 7 8.7 4.3c3-2.7 4.9-6.9 3-9.3-1.9-2.4-9.7 3.1-11.3 3-1.6-.2-7.9-1.2-8.8-1.6-1-.5-1.9-1.1-1.9-1.1z"/><path fill="#D9AF89" d="M104.3 30.2s-.1 6.6.8 7.7c.9 1.1 4.6 3 12 4.2 3.9.6 6.2.6 8 .5 1.8-.2 2.9-.5 4.3-.5 2.7-.1 6.6-2.7 8.4-3.8 1.8-1.1 3.1-3.7 3.4-5.5.3-1.8.6-3.9.2-4.4-.4-.5 1.5-6.4 1.4-7.6-.2-6-15.8-4.1-20.4-3.9-4.6.1-16.9 5.5-17.6 6.5-.7.8-.5 6.8-.5 6.8z"/><linearGradient id="a" x1="142.186" x2="149.798" y1="29.179" y2="29.179" gradientTransform="rotate(-1.868 306.332 380.758)" gradientUnits="userSpaceOnUse"><stop offset="0" stop-color="#e61174"/><stop offset="1" stop-color="#fff1c8"/></linearGradient><path fill="url(#a)" d="M138.4 34.5c.1 1.7-1.6 3.1-3.7 3.2-2.1.1-3.8-1.3-3.9-2.9-.1-1.7 1.6-3.1 3.7-3.2 2.1-.1 3.9 1.2 3.9 2.9z" opacity=".18"/><path fill="#050506" d="M129.1 30.7c0 .4-.3.7-.7.7-.4 0-.7-.3-.7-.7 0-.4.3-.7.7-.7.3 0 .6.3.7.7zm-8.2.5c0 .4-.3.7-.7.7-.4 0-.7-.3-.7-.7 0-.4.3-.7.7-.7.3.1.6.4.7.7z"/><linearGradient id="b" x1="128.914" x2="119.734" y1="30.327" y2="30.327" gradientTransform="rotate(-1.868 306.332 380.758)" gradientUnits="userSpaceOnUse"><stop offset="0" stop-color="#e61174"/><stop offset="1" stop-color="#fff1c8"/></linearGradient><path fill="url(#b)" d="M108.4 36.6c.1 2 2.2 3.6 4.7 3.6 2.5-.1 4.5-1.8 4.4-3.8-.1-2-2.2-3.6-4.7-3.6s-4.5 1.7-4.4 3.8z" opacity=".18"/><path fill="#FFF" d="M139 35s-11.5 4.5-12.7 4.8c-1.3.3-15.3-2.9-15.3-2.9s7.7.7 14.3.4c6.6-.2 13.7-2.3 13.7-2.3z"/><linearGradient id="c" x1="120.838" x2="124.633" y1="4.708" y2="4.708" gradientTransform="rotate(2.292 -58.868 183.531)" gradientUnits="userSpaceOnUse"><stop offset=".005" stop-color="#171717"/><stop offset=".39" stop-color="#191919"/><stop offset=".559" stop-color="#202020"/><stop offset=".686" stop-color="#2d2d2d"/><stop offset=".792" stop-color="#3f3f3f"/><stop offset=".885" stop-color="#565656"/><stop offset=".967" stop-color="#727272"/><stop offset="1" stop-color="#80807f"/></linearGradient><path fill="url(#c)" d="M128 7.4s.8 1.7.9 2.3c.1.7.8 2.9.6 3.3-.2.4-1.5 2.6-1.5 2.6s.2.4.3.9c.1.4.6.4 1 .3.4 0 1.9-1.1 2.1-1.4.2-.3.1-3 .1-3s-.6-2.1-.7-2.3c0-.2-1.1-1.8-1.1-1.8l-1.2-1-.5.1z"/><linearGradient id="d" x1="96.172" x2="137.742" y1="14.977" y2="14.977" gradientTransform="rotate(2.292 -58.868 183.531)" gradientUnits="userSpaceOnUse"><stop offset=".005" stop-color="#171717"/><stop offset=".39" stop-color="#191919"/><stop offset=".559" stop-color="#202020"/><stop offset=".686" stop-color="#2d2d2d"/><stop offset=".792" stop-color="#3f3f3f"/><stop offset=".885" stop-color="#565656"/><stop offset=".967" stop-color="#727272"/><stop offset="1" stop-color="#80807f"/></linearGradient><path fill="url(#d)" stroke="#050404" d="M115 21.9c-2.3 1.7-3.7 5.1-4.7 7.7-1.1 2.8-4 4.1-4.3 7.2-4.6 1.3-3.7-9.6-3.2-11.8 1-4.6 4.2-9.7 8.3-12.1 4-2.4 8.6-4.8 13.3-5.3 2.5-.3 4.7-.5 5.7 2.2 1.2 3.6-2.4 5.4-.7 8.7 1.5 2.8 4 6 6.9 7.5 2.2 1.1 3 .9 4.4 2.8 2 2.6.6 2.6.2 5.5 4.9-1.3 2.9-11.9 1.8-15.5-1.6-5.4-7.8-13.7-14.7-11.5.4 1.3 3.3 2.9 2.9 4.5-.4 1.5-2.3 3.8-3.1 5-1 1.3-1.6 2-3.2 2.6-2.9 1.1-7.1.6-9.6 2.5z"/><path fill="none" stroke="#985B5F" stroke-width=".25" d="M126.5 35.6s-.7-2.3-2.1-2.1c-1.4.2-2.8 1.4-2.8 1.4"/><ellipse cx="124" cy="75.9" fill="#EEE818" rx="3.9" ry="3.7"/><circle cx="121.8" cy="76.1" r=".6"/><path fill="#F6911E" d="M120.1 76.3s-.3.5-.6.4c-.3-.1-.8-.4-1.1-.4-.3 0-.6.2-.3.8.2.6.7 1 1.3 1.1.7.1 1.6 0 1.6 0s-.4-.6-.5-.9c-.2-.4-.4-1-.4-1z"/><path fill="#EEE818" d="M123.2 79.6s-.2.7-.6 1.3c-.4.6-.9 1-.6 2.2.2 1.2.7 1.8.8 2 .1.1 1.8.2 2.7.2.9.1 3.1-.1 3.2-.2.1 0 1.5-1.5 1.4-2.7 0-1.2-.5-3-.7-2.9-.2.1-.5 1-1 1.1-.4.1-1.3-.2-1.9-.2h-1.2c-.5-.1-.6.1-.7-.2 0-.3.1-.8.1-.8l-1.5.2z"/><path fill="#EEE818" d="M128.7 82.6s-1.4-1.4-2.9-1.3c-1.5.1-2.4.3-2.4 1.1s.2 1.7 1.7 2.1c1.5.4 2.2-.3 2.7-.8.6-.3.9-1.1.9-1.1zm-2.2 0s1.6.3 1.8.4m-2.3.4l1.9.4"/><ellipse cx="147.6" cy="90.1" fill="#EEE818" rx="3.9" ry="3.7"/><circle cx="145.3" cy="90.3" r=".6"/><path fill="#F6911E" d="M143.7 90.5s-.3.5-.6.4c-.3-.1-.8-.4-1.1-.4-.3 0-.6.2-.3.8.2.6.7 1 1.3 1.1.7.1 1.6 0 1.6 0l-.6-.9c-.2-.4-.3-1-.3-1z"/><path fill="#EEE818" d="M146.8 93.8s-.2.7-.6 1.3c-.4.6-.9 1-.6 2.2.3 1.2.7 1.8.8 2 .1.1 1.8.2 2.7.2.9.1 3.1-.1 3.2-.2.1 0 1.5-1.5 1.4-2.7 0-1.2-.5-3-.7-2.9-.2.1-.5 1-1 1.1-.4.1-1.3-.2-1.9-.2h-1.2c-.5-.1-.6.1-.7-.2 0-.3.1-.8.1-.8l-1.5.2z"/><path fill="#EEE818" d="M152.3 96.8s-1.4-1.4-2.9-1.3c-1.5.1-2.4.3-2.4 1.1s.2 1.7 1.7 2.1c1.5.4 2.2-.3 2.7-.8.6-.4.9-1.1.9-1.1zm-2.3 0s1.6.3 1.8.4m-2.2.4l1.8.4"/><ellipse cx="156.3" cy="73.2" fill="#EEE818" rx="3.9" ry="3.7"/><circle cx="158.5" cy="73.4" r=".6"/><path fill="#F6911E" d="M160.1 73.6s.3.5.6.4c.3-.1.8-.4 1.1-.4.3 0 .6.2.3.8-.2.6-.7 1-1.3 1.1-.7.1-1.6 0-1.6 0s.4-.6.5-.9c.3-.3.4-1 .4-1z"/><path fill="#EEE818" d="M157.1 76.9s.2.7.6 1.3c.4.6.9 1 .6 2.2-.3 1.2-.7 1.8-.8 2-.1.1-1.8.2-2.7.2-.9.1-3.1-.1-3.2-.2-.1 0-1.5-1.5-1.4-2.7 0-1.2.5-3 .7-2.9.2.1.5 1 1 1.1.4.1 1.3-.2 1.9-.2h1.2c.5-.1.6.1.7-.2 0-.3-.1-.8-.1-.8l1.5.2z"/><path fill="#EEE818" d="M151.5 79.9s1.4-1.4 2.9-1.3c1.5.1 2.4.3 2.4 1.1s-.2 1.7-1.7 2.1c-1.5.4-2.2-.3-2.7-.8-.5-.3-.9-1.1-.9-1.1zm2.3 0s-1.6.3-1.8.4m2.2.5l-1.8.3"/><ellipse cx="108.5" cy="99.8" fill="#EEE818" rx="3.9" ry="3.7"/><circle cx="110.7" cy="100" r=".6"/><path fill="#F6911E" d="M112.3 100.2s.3.5.6.4c.3-.1.8-.4 1.1-.4.3 0 .6.2.3.8-.2.6-.7 1-1.3 1.1-.7.1-1.6 0-1.6 0s.4-.6.5-.9c.3-.4.4-1 .4-1z"/><path fill="#EEE818" d="M109.3 103.5s.2.7.6 1.3c.4.6.9 1 .6 2.2-.3 1.2-.7 1.8-.8 2-.1.1-1.8.2-2.7.2-.9.1-3.1-.1-3.2-.2-.1 0-1.5-1.5-1.4-2.7 0-1.2.5-3 .7-2.9.2.1.5 1 1 1.1.4.1 1.3-.2 1.9-.2h1.2c.5-.1.6.1.7-.2 0-.3-.1-.8-.1-.8l1.5.2z"/><path fill="#EEE818" d="M103.7 106.5s1.4-1.4 2.9-1.3c1.5.1 2.4.3 2.4 1.1s-.2 1.7-1.7 2.1c-1.5.4-2.2-.3-2.7-.8-.5-.4-.9-1.1-.9-1.1zm2.3 0s-1.6.3-1.8.4m2.2.4l-1.8.4"/></g></switch></svg>
