<svg xmlns="http://www.w3.org/2000/svg" version="1.0" viewBox="0 792 220 129"><switch><g><linearGradient id="a" x2="220" y1="856.5" y2="856.5" gradientUnits="userSpaceOnUse"><stop offset="0" stop-color="#d1ecf2"/><stop offset="1" stop-color="#9ec8ea"/></linearGradient><path fill="url(#a)" d="M0 792h220v129H0z"/><linearGradient id="b" x2="220" y1="856.5" y2="856.5" gradientUnits="userSpaceOnUse"><stop offset="0" stop-color="#d1ecf2"/><stop offset="1" stop-color="#9ec8ea"/></linearGradient><path fill="url(#b)" d="M0 792h220v129H0z"/><linearGradient id="c" x2="220" y1="856.5" y2="856.5" gradientUnits="userSpaceOnUse"><stop offset="0" stop-color="#d1ecf2"/><stop offset="1" stop-color="#9ec8ea"/></linearGradient><path fill="url(#c)" d="M0 792h220v129H0z"/><linearGradient id="d" x2="220" y1="856.5" y2="856.5" gradientUnits="userSpaceOnUse"><stop offset="0" stop-color="#d1ecf2"/><stop offset="1" stop-color="#9ec8ea"/></linearGradient><path fill="url(#d)" d="M0 792h220v129H0z"/><linearGradient id="e" x2="220" y1="856.5" y2="856.5" gradientUnits="userSpaceOnUse"><stop offset="0" stop-color="#d1ecf2"/><stop offset="1" stop-color="#9ec8ea"/></linearGradient><path fill="url(#e)" d="M0 792h220v129H0z"/><linearGradient id="f" x2="220" y1="856.5" y2="856.5" gradientUnits="userSpaceOnUse"><stop offset="0" stop-color="#d1ecf2"/><stop offset="1" stop-color="#9ec8ea"/></linearGradient><path fill="url(#f)" d="M0 792h220v129H0z"/><linearGradient id="g" x2="220" y1="856.5" y2="856.5" gradientUnits="userSpaceOnUse"><stop offset="0" stop-color="#d1ecf2"/><stop offset="1" stop-color="#9ec8ea"/></linearGradient><path fill="url(#g)" d="M0 792h220v129H0z"/><linearGradient id="h" x2="220" y1="856.5" y2="856.5" gradientUnits="userSpaceOnUse"><stop offset="0" stop-color="#d1ecf2"/><stop offset="1" stop-color="#9ec8ea"/></linearGradient><path fill="url(#h)" d="M0 792h220v129H0z"/><linearGradient id="i" x2="220" y1="856.5" y2="856.5" gradientUnits="userSpaceOnUse"><stop offset="0" stop-color="#d1ecf2"/><stop offset="1" stop-color="#9ec8ea"/></linearGradient><path fill="url(#i)" d="M0 792h220v129H0z"/><linearGradient id="j" x2="220" y1="856.5" y2="856.5" gradientUnits="userSpaceOnUse"><stop offset="0" stop-color="#d1ecf2"/><stop offset="1" stop-color="#9ec8ea"/></linearGradient><path fill="url(#j)" d="M0 792h220v129H0z"/><linearGradient id="k" x2="220" y1="856.5" y2="856.5" gradientUnits="userSpaceOnUse"><stop offset="0" stop-color="#d1ecf2"/><stop offset="1" stop-color="#9ec8ea"/></linearGradient><path fill="url(#k)" d="M0 792h220v129H0z"/><linearGradient id="l" x2="220" y1="856.5" y2="856.5" gradientUnits="userSpaceOnUse"><stop offset="0" stop-color="#d1ecf2"/><stop offset="1" stop-color="#9ec8ea"/></linearGradient><path fill="url(#l)" d="M0 792h220v129H0z"/><linearGradient id="m" x2="220" y1="856.5" y2="856.5" gradientUnits="userSpaceOnUse"><stop offset="0" stop-color="#d1ecf2"/><stop offset="1" stop-color="#9ec8ea"/></linearGradient><path fill="url(#m)" d="M0 792h220v129H0z"/><linearGradient id="n" x2="220" y1="856.5" y2="856.5" gradientUnits="userSpaceOnUse"><stop offset="0" stop-color="#d1ecf2"/><stop offset="1" stop-color="#9ec8ea"/></linearGradient><path fill="url(#n)" d="M0 792h220v129H0z"/><linearGradient id="o" x2="220" y1="856.5" y2="856.5" gradientUnits="userSpaceOnUse"><stop offset="0" stop-color="#d1ecf2"/><stop offset="1" stop-color="#9ec8ea"/></linearGradient><path fill="url(#o)" d="M0 792h220v129H0z"/><linearGradient id="p" x2="220" y1="856.5" y2="856.5" gradientUnits="userSpaceOnUse"><stop offset="0" stop-color="#d1ecf2"/><stop offset="1" stop-color="#9ec8ea"/></linearGradient><path fill="url(#p)" d="M0 792h220v129H0z"/><linearGradient id="q" x2="220" y1="856.5" y2="856.5" gradientUnits="userSpaceOnUse"><stop offset="0" stop-color="#d1ecf2"/><stop offset="1" stop-color="#9ec8ea"/></linearGradient><path fill="url(#q)" d="M0 792h220v129H0z"/><linearGradient id="r" x2="220" y1="856.5" y2="856.5" gradientUnits="userSpaceOnUse"><stop offset="0" stop-color="#d1ecf2"/><stop offset="1" stop-color="#9ec8ea"/></linearGradient><path fill="url(#r)" d="M0 792h220v129H0z"/><linearGradient id="s" x2="220" y1="856.5" y2="856.5" gradientUnits="userSpaceOnUse"><stop offset="0" stop-color="#d1ecf2"/><stop offset="1" stop-color="#9ec8ea"/></linearGradient><path fill="url(#s)" d="M0 792h220v129H0z"/><linearGradient id="t" x2="220" y1="856.5" y2="856.5" gradientUnits="userSpaceOnUse"><stop offset="0" stop-color="#d1ecf2"/><stop offset="1" stop-color="#9ec8ea"/></linearGradient><path fill="url(#t)" d="M0 792h220v129H0z"/><linearGradient id="u" x2="220" y1="856.5" y2="856.5" gradientUnits="userSpaceOnUse"><stop offset="0" stop-color="#d1ecf2"/><stop offset="1" stop-color="#9ec8ea"/></linearGradient><path fill="url(#u)" d="M0 792h220v129H0z"/><linearGradient id="v" x2="220" y1="856.5" y2="856.5" gradientUnits="userSpaceOnUse"><stop offset="0" stop-color="#d1ecf2"/><stop offset="1" stop-color="#9ec8ea"/></linearGradient><path fill="url(#v)" d="M0 792h220v129H0z"/><linearGradient id="w" x2="220" y1="856.5" y2="856.5" gradientUnits="userSpaceOnUse"><stop offset="0" stop-color="#d1ecf2"/><stop offset="1" stop-color="#9ec8ea"/></linearGradient><path fill="url(#w)" d="M0 792h220v129H0z"/><linearGradient id="x" x2="220" y1="856.5" y2="856.5" gradientUnits="userSpaceOnUse"><stop offset="0" stop-color="#d1ecf2"/><stop offset="1" stop-color="#9ec8ea"/></linearGradient><path fill="url(#x)" d="M0 792h220v129H0z"/><path fill="#CCC" d="M0 859h220v48.6H0z"/><path fill="none" stroke="#231F20" stroke-miterlimit="10" d="M96.8 821.3l1.1 70.9 110-.7-.9-71.5-36.9-28h-34.4z"/><path fill="#FFF" stroke="#B9B9BA" stroke-miterlimit="10" d="M220 819.7l-14.2.3-36.1-28h-34l-39.4 29.6-66.4 1.2v69.9l190.1-1.3z"/><path fill="#967D75" d="M124.8 792H76.6l-60.5 30.9h71.2zm95.2 27.8V792h-34l30.3 21.7v6.2zm-203.9 14l3-7.6h10.8v7.6z"/><path fill="#836057" d="M118 792l-29.2 22.5 3.2 4.6 32.8-27.1zm7.3 59h-4.2v-4.7l32.2-23.4 33.4 22.4-1.1 5.7H180l-.5-3-26.2-18-27.5 18.3z"/><path fill="#967D75" d="M139.7 821h26.5v-19.3s-5.4-3-13.9-2.5c-8.6.5-12.6 3.3-12.6 3.3V821zm-25.9 5.2h5.8v13h-5.8zm0 31.3l5.9.1v14.5h-5.9zm72-33.7v15.5h6.1V824zm.9 35.3h5.2v11.8h-5.2zM54.8 835.6s2.3-3.6 11.8-2.9c9.4.8 11.7 2.7 11.7 3.1v21.6l-23.5-.9v-20.9zm-37 1.4h1.4v41.4h-1.4zm3.8 0H23v41.4h-1.4z"/><path fill="#735348" d="M16.1 833.8H30v3.2H16.1z"/><path fill="#FFF" stroke="#B9B9BA" stroke-miterlimit="10" d="M55.8 835.8h4v19.5h-4zm16.4 0h4.5v19.5h-4.5zm-7.6 0l3.8-.2v19.7h-3.8zm76.5-32.1h4.3v15.4h-4.3zm9.2 0h5.2l-.5 15.4h-4.7zm8.8 0h4.5v15.4h-4.5z"/><path fill="#967D75" d="M141.3 887.9h25.2v-31s-6.7-2.8-12.6-3.1c-5.9-.3-12.6 2.8-12.6 2.8v31.3z"/><path fill="#C08B7E" d="M132.1 888.1h42.4v4.5h-42.4z"/><path fill="#A87369" d="M125.3 892.1h55.6v4.5h-55.6z"/><g stroke-width=".25"><path fill="#FFF" stroke="#E9E9E8" d="M82.7 793.4c.9.9 3.2.4 4.3.4.7 0 1.4.1 2.1.3.8.2 1.4.7 2.2.8.7.1 1.4 0 2 .1.8.1 1.5.4 2.2.6.9.2 1.4.4 1.7 1.4.3.8.5 1.7.8 2.5.2.8.3 1.6.5 2.3.2.6.8 1.9.2 2.5-.5.5-1.5-.1-2.1-.3-.8-.2-1.6-.3-2.3-.4-3-.3-5.9-.4-8.9-.7-1-.1-2 0-3-.1-.2 0-.4-4.4-.4-4.8 0-.8.1-1.7.2-2.5.2-.6.2-1.5.5-2.1"/><path fill="#231F20" stroke="#231F20" d="M82.2 792.9h.5v28.5h-.5z"/><path fill="#C12227" stroke="#C12227" d="M90.6 795.7s3.4.3 3.9 0 .8-.2.8-.2l-1.9-.5h-3.1v.8l.3-.1z"/><path fill="#384A9C" stroke="#384A9C" d="M82.2 799.4s2.1-.7 3.9-.5c1.7.3 4.5.5 4.5.5l-.3-4.8s-.9-.6-2.1-.7c-1.2-.1-3.3.1-3.9 0-.6-.1-1.6-.5-1.6-.5s-.5 2.3-.5 2.4v3.6z"/><path fill="#C12227" stroke="#C12227" d="M82.7 802l16.2.6-.3-.7-15.9-.7zm0-2.3v.7s6.8.5 11 .5 4.8.3 4.8.3l-.2-.8s-7.8-.3-8.5-.3c-.6 0-7.1-.4-7.1-.4zm7.9-.3l7.5.1-.2-.5h-7.3zm0-2.5l6.7.1-.2-.6h-6.7zm0 .7h6.9l.2.4h-7.1z"/><path fill="#FFF" stroke="#231F20" d="M83.9 795h.1v-.2l.1.1h.1v.2h-.1l-.1.1v-.1z"/></g><path fill="#735348" d="M205.8 820l10.5-.1-.5-6.5L186 792h-16.3zm-70.1-28h-10.9l-36.4 29.9 7.9-.3z"/><path fill="#999" d="M0 907.8h220v4.1H0z"/><path fill="#666" d="M0 909.9h220V921H0z"/><path fill="#FFF" stroke="#98CBCB" d="M12.4 803.8c1 .2.5-1 1.6-.9 0-.4.2-.6.6-.9-1-.5-1.5-2.6.4-2.5-.2-1.1 2.6-1.6 3.7-1.5 1.7.2 2.3 1.6 4 .1.5-.4.4-1.1 1.1-1.5.3-.2.8-.2 1-.3.4-.2.6-.5 1-.9 1-.8 4.4-1.3 4.9.3 1.2.1 3 .6 1.9 1.7 1.5 0 1.3 2.5.9 3.3.9 0 2.8-.2 2.6.9.7-.5 2.2-.5 2.4.4 1 0 2-.3 2.3.8.2.9-.4 1.1-1.5 1 .9.1 1.2.8.7 1.4-.5.5-1.4.2-2 .4-1 .4-1.3.9-2.6 1.1-.3 0-.6-.3-1.1-.2-.4.1-.7.6-1.2.8-.8.2-3.9.3-4.7.1-.6-.1-.9-.5-1.5-.7-.8-.2-1.7.2-2.1-.7-.9 0-2.3-.6-2.8-.5-.3.1-.5.8-.9 1-.4.1-1 0-1.5 0-.7.1-1.8.4-2.7.1-.3-.1-.6-.6-.9-.7-.3-.2-.9-.2-1.2-.4-.7.5-2.2.5-2.9.3-.7-.1-2.8-.7-1.3-1.5.2.2.9-.7 1.8-.5z"/><path fill="#CCCBCB" d="M36.3 801.8c.6-.1 1.9 0 1.8.7h-.2c1.3.5-.7.9-1.2.9 1.4.4-.4 2-1.8 1.1.1.5-.5.4-.8.5-.6.2-.7.5-1.5.4-.2 0-.4-.1-.7-.1h-.7c-.5 0-1.1-.1-1.1-.6-.7 0-.6-1.3-.6-1.7-.8 0-1.9 1.3-2.6.4-.4.5-1.4.4-1.7-.1-.5.5-1.9 1.5-2.8 1.2-.1.1-.1.1-.1.2-.1 0-.2 0-.3.1v.3c1.3 0 2.3.6 3.5.6-.2.7.9.5 1.3.5.7.1.9.4 1.5.6 1 .4 2.5.3 3.6.2.5 0 1.2 0 1.7-.3.6-.3.4-.6 1.2-.6.6 0 .9.2 1.5-.1.5-.2.9-.5 1.3-.7.6-.3 1.8-.1 2.3-.6.8-.7-1.2-.6-1-1.1.1-.5 1.6 0 1.8-.8.1-.8-1.3-.8-2-.7-.4-.7-1.8-.7-2.4-.3m-18.2-3.4c-1.5 0-2.6 1-.8 1.6-.8-.1-1.3.3-1.2.8 0 .6.5.6 1.2.8-.3.2-.4.5-.2.7-.3.1-.4.4-.4.6-.5-.1-1.5-.2-1.2.5-.8-.2-.8.5-.6.8-.2.1-2.9-.3-1.7.6.7.5 2.3.1 2.6-.5-.3 1.2 2.1 1.1 2.8.4.1.7 1.6.6 2.2.4 0 .5.6.8-.1 1.1-.5.2-1.3 0-1.8.1-.7.1-1.1.2-1.7-.1-.5-.2-.8-.5-1.3-.7-.2-.1-.5-.3-.7-.3-.4-.1-.3.1-.6.2-.6.1-1.2.2-1.8.2-1 0-2.7-.3-1.7-1.2.4-.4.8-.5 1.4-.5.9-.1.5-.1 1.1-.5.1-.1.6-.2.6-.3.2-.2.1-.3.2-.5.4-.4.9-.3.6-.9-.2-.4-.7-.6-.5-1.2.1-.5.6-.5.9-.9.3-.3.3-.6.7-.9.5-.3 1.1-.4 1.7-.4m12.8-2.4c.9 0 1.5 1.1.4 1.3 1.1.2 1.3 1.9-.1 1.9 0 .3 0 .5-.1.8.1-.1-.6.5-.5.4-.4.3-1.3.5-1.8.1-.5.6-1.9.5-2.2-.2-.2.9 1.9 1.4 2.7 1 .5 1 2.6 1 2.5-.2 1.3.1 1.8-.6 1.8-1.5 0-.4 0-.9-.1-1.2-.2-.4-.7-.5-1-.8 1-.7 0-1.4-1.1-1.5" opacity=".28"/><ellipse cx="32.1" cy="903.2" fill="#7F7F7F" stroke="#7F7F7F" stroke-width=".137" rx="14" ry="13.6"/><path fill="#FFF" stroke="#E5E5E3" d="M18.4 910H9.6s-.5-.7-1.4-1.4c-.9-.7-3.9 0-3.9 0l-1.8-2.3v-5.6s-1.1-4.8-1.1-6.1c0-1.4 2.9-2.9 5-3.9 2-.9 9.7-3.4 13.8-3.9 4.1-.5 10-1.4 15-1.8 5-.5 11.1-1.6 12-1.4.9.2 6.6 0 6.6 0l3.2.6s1.4.8 3.9-.6c2.5-1.3 5.9-3.1 9.3-4.7 3.4-1.6 10.2-5 10.2-5s6.8-2.7 10.6-2.9c3.9-.2 10 0 16.5 0 6.6 0 11.1.2 19.3 1.6 8.2 1.4 13.6 2.3 16.5 3.6 2.9 1.4 11.1 3.9 11.1 3.9l3.6.9s-.2-.9 2-.9c2.3 0 6.6.5 6.6.5l3.9.7 2.3-.5 1.8 2.3s-1.6 2.3-1.4 3.6c.2 1.4.9 2.4 1.4 3.8.5 1.4 1.1 3.5 1.1 4.8 0 1.4.7 4.3 0 5-.7.7-.7 3.4-.7 3.4l-1.1 1.4-2 2L153 910s.5-6.7-.7-9.7c-2.3-6.2-9-8.7-12.9-8.6-7.7.2-10.2 3.1-11.9 6.8-2.4 5.3-2 12.5-2 12.5l-80.2-1s2.5-20.8-15.2-19.5C16.2 891.6 18.4 910 18.4 910z"/><path fill="#0B829E" d="M54.7 883.7s23.3-11.3 24.2-11.3c.9 0 2.9 1 2.9 1l-22.7 10.9h-2.2l-2.2-.6z" opacity=".32"/><ellipse cx="32" cy="904.7" fill="#B9BABA" stroke="#898989" opacity=".58" rx="12" ry="11.9"/><circle cx="32" cy="904.6" r="9.7" fill="#FFF" stroke="#FFF"/><path fill="#B9BABA" stroke="#898989" d="M30.4 900.7V895s.3-.1 1.6 0 2.7 0 2.7 0l-1.1 5.8 3.6-4.3.8.5-3.8 5.5 5.5-3.8s1.2 1.4 1.5 2.8c.4 1.4.5 3.1.5 3.1l-6.6.1 6.6 1.7-.5 1.2-5.2-1.7 3.5 4.8-3.5 2.7-2.9-5.7-1.1 6.6-1.6-.1 1.6-6.4-3.7 5.8-4.4-3.6 5.6-3.6-6.8 1.2-.3-1.2 6.4-1.7-6.6-.1 1.9-5.7 5.4 3L26 897l1.3-.9 3.1 4.6z"/><path fill="#F4EFF0" stroke="#A8A8A8" d="M2.9 900.4s.4-.1 1-.4c.6-.4 1.2-1.1 1.2-1.1s.3-4.6 0-4.9c-.3-.3-1-.5-1.6-.7-.6-.2-1.1-.3-1.4 0-.3.3-.7 1.3-.7 1.3s.5 1.4.5 2.2c-.1.8.2 2.1.3 2.4.1.3.3 1.5.3 1.5l.4-.3zm4.2-7.8l1.3 1.7s7.8-.2 9.1-.8c1.3-.6 4.5-3.8 4.5-3.8l.3-1.1c0-.1-14.1 2.5-15.2 4z"/><path fill="#E58E38" stroke="#E58E38" d="M18 892.8l-.1-2.9h2.6v.9s-1.4 1.5-1.5 1.6c-.2 0-1 .4-1 .4z" opacity=".99"/><path fill="#E58E38" stroke="#E58E38" d="M11.7 890.8l.4 3s2.1-.2 2.3-.2c.2 0 1-.8 1.3-1.3.4-.5.8-1.6.8-1.8v-.9l-4.8 1.2z" opacity=".45"/><path fill="none" stroke="#A8A8A8" d="M6.5 893.8l1.4 2 12.1-.9m-2.3 4.7s-9.9 0-10.6.7c-.7.7-1.4 2.6-1.5 3.5-.1.9-.2 1.4-.2 1.4"/><path fill="#00467F" d="M79.3 872.4s12-3.6 25.9-3.1c13.9.5 21.8 1 25.1 1.6 3.3.7 7.6 1.5 7.6 1.5l-1.6 1.9s-8-1.5-11.2-1.9c-3.2-.5-19.1-1.5-20.8-1.5-1.7.1-8.4 0-10.3 0-1.9 0-9.4 1.4-10 1.6l-2.4.8-2.3-.9z"/><path fill="#0B829E" d="M158.3 880.4l-.3.6s-3.6-.8-6.6-1.9c-3-1-7.8-2.9-9-3.3-1.2-.4-4.3-1.2-4.3-1.2l-1.6-.3 1.6-1.9s5 1.6 9.3 3.3c4.4 1.7 4.8 1.5 8.1 3 3.1 1.4 2.8 1.7 2.8 1.7z" opacity=".32"/><path fill="#FFF" stroke="#E5E5E3" d="M123.7 895.1c-6.4 8.4-1.7 12.7-1.7 12.7l-24.4-.2s-1.3-11.5-.5-16c.8-4.4 2.7-7.3 2.7-7.3l1.6-1 34.9-.2h.1c.1-.1-6.3 3.6-12.7 12z"/><path fill="#E58E38" stroke="#E58E38" d="M15.2 901.3s-8.9-1.6-8.6 2.9c.3 4.5 6 2.8 6 2.8s1.2-.5 1.9-1.9.7-3.8.7-3.8z"/><path fill="#F4EFF0" stroke="#A8A8A8" d="M11.1 901.6s-1.7-.3-2.5 1.4-.8 2.4-.4 2.9.7 1.2.7 1.2-.9.4-1.5-.8c-.7-1.3-1.2-2.1-.7-3 .4-.9.8-1.4 1.6-1.7.8-.3 1.7-.6 2.1-.6h1.3l-.6.6z"/><path fill="#565656" stroke="#7F7F7F" stroke-width=".137" d="M81.6 892.7c.1.4-.1.8-.4.9-.4.1-.8-.1-.9-.4l-3.9-11.4c-.1-.4.1-.8.4-.9.4-.1.8.1.9.4l3.9 11.4zm-4.9-8.1c-.6.1-1.4.4-1.3 1.2-.5-.3-1.1-.3-1.6-.1-.9.4-.6 1-1.1 1.5-.6.6-2.6 1.3-3.5 1.6l.2.3s3.5-1.4 3.5-1.5c0-.1.2-1 .7-1.3.5-.3 1.2-.4 1.5-.4.3.1.6.1.6.1s0-.6.3-.8c.4-.2.8-.2.9-.2.2 0 .3-.3.3-.3l-.3-.5-.2.4zm2.7 6.3c-.5-.2-1-.8-1.5-1-1-.4-.7 0-1.3.6-.7.6-2.4 1.9-2.8.3-.6 1-1.5.5-2.4.5-1 0-2 .8-3 .6 0 0-.6-.6.5-.7 1.1 0 1.2-.4 2.1-.4h2c.4 0 .8-.5.8-.5s.2.7.7.8c.5.1 1.3-.3 1.5-.5.2-.2.7-1.1 1.1-1.2.4 0 .9.3 1.5.5s.7.4.7.4l.1.6z"/><path fill="#FFF" stroke="#E5E5E3" d="M91 873.8c-8.8 1.8-21.1 7.1-22.6 8-1.6.9-8.1 3.9-9 5.2-.9 1.3-.8 11.8-.7 15.5.1 3.8-.2 5.2 1.4 5.3 1.6.1 36.7.1 36.7.1s-.8-12.9-.6-15.4c.3-2.4 1.3-4.7 1.7-5.5.4-.9 1.8-3.2 2.5-3.6.7-.4 1.7-.5 1.7-.5l1.8-10.2c-.1 0-8.2.2-12.9 1.1zm6.1 13l-1.7 3.9s-.5.6-.5 5.9c0 5.6.5 10 .5 10s-35.2.8-35.8-.4c-.6-1.2-.2-16 .3-18.2.5-2.2 3.5-2.6 3.5-2.6l34.9-.9-1.2 2.3zm3.9-3.9s-36.1 1.7-36.2 1.3l4.4-1.8s3.8-1.6 6-2.7c.9-.4 10.1-3.8 17.3-5.1 7.1-1.3 10.3-.6 10.3-.6l-1.8 8.9z"/><path fill="#0B829E" d="M103 882.5l1.6-9.8s8.8-.1 15.5 1.1c6.7 1.2 19.1 5.1 19.1 5.1s-.3 1.4-1.3 3c-.7 1.1-1.6.8-1.6.8l-33.3-.2z" opacity=".32"/><path fill="#F4EFF0" stroke="#444545" d="M164.9 900.8s6.1-.3 6.5 0c.4.3.2-.3.4.3.3.6.3 5.7.3 5.7s-2.5.2-4.3-1.2c-1.8-1.4-2.8-2.8-2.9-3.1-.1-.3 0-1.7 0-1.7z"/><path fill="#E58E38" stroke="#E58E38" d="M169.2 900.6s.6.1.9 1c.3.9 0 1.5 0 1.5h-4.7s-.4-.2-.5-.7v-1.7l4.3-.1z" opacity=".45"/><path fill="#E58E38" stroke="#E58E38" d="M172.1 905v1.3c0 .5-3 0-3 0l-2.6-1.9-1.6-1.9s.9-.1 1.6.7c.8.8 1.4 2.1 2.2 2.1.8 0 2.3-.2 2.3-.2l1.1-.1z"/><path fill="#E58E38" stroke="#E58E38" d="M170 903.2s.9-.2 1.1 0c.3.2.4 1.3.4 1.3h-1.1l-.4.7-.4-2h.4z"/><path fill="#F4EFF0" stroke="#444545" d="M166.8 903.4l2.8-.3v2s-.6.3-1.1 0c-.6-.2-1.7-1.7-1.7-1.7z"/><path fill="#E58E38" stroke="#E58E38" d="M171.2 887.9s-.7-2.3-2.1-2.3c-2.1-.1-8.8-1-8.8-1s-.8.2-.5 1c.3.8 4 3.3 5.1 3.5 1 .2 6.3 0 6.3 0v-1.2z"/><path fill="#F4EFF0" stroke="#444545" d="M160.5 886.4h3.3s1.2 1.7 2.6 1.9c1.4.2 4.9 0 4.9 0s-.5-2.2-1.1-2.5c-.5-.4-8.1-1.1-8.7-1.1-.6 0-1.7-.5-1.7 0s.7 1.7.7 1.7z"/><path fill="none" stroke="#A8A8A8" d="M175.4 893.7h-4.8s-1.2 0-4.5-1.6-5.5-3.7-5.5-3.7"/><path fill="#FFF" stroke="#E5E5E3" d="M91.8 873.3c-8.8 1.8-21.1 7.1-22.6 8-1.6.9-8.1 3.9-9 5.2-.9 1.3-.8 11.8-.7 15.6.1 3.8-.2 5.2 1.4 5.3 1.6.1 36.7.1 36.7.1s-.8-12.9-.6-15.4c.3-2.4 1.3-4.6 1.7-5.5.4-.9 1.8-3.2 2.5-3.6.7-.4 1.7-.5 1.7-.5l1.8-10.2c-.1 0-8.2.1-12.9 1z"/><path fill="#0B829E" d="M100.9 883.1s-36.1 1.7-36.2 1.3l4.4-1.8s3.8-1.6 6-2.7c.9-.4 10.1-3.8 17.3-5.1 7.1-1.3 10.3-.6 10.3-.6l-1.8 8.9z" opacity=".32"/><path fill="#00467F" d="M42.3 893.3h86.2s-3.2 1.7-4.1 6.2c-.8 4.5-.8 3.8-.8 3.8l-77.4-.3s-.5-1.6-2.2-5.6l-1.7-4.1z"/><path fill="#B9BABA" stroke="#898989" d="M18.4 910h-1.2s-2.6-19.5 15.1-19.6c17.1-.1 14.4 20.3 14.4 20.3l-1.4.2s2.6-19.3-13.3-19.3S18.4 910 18.4 910z"/><ellipse cx="137.6" cy="904" fill="#7F7F7F" stroke="#7F7F7F" stroke-width=".137" rx="14" ry="13.6"/><ellipse cx="137.4" cy="905.6" fill="#B9BABA" stroke="#898989" opacity=".58" rx="12" ry="11.9"/><circle cx="137.4" cy="905.5" r="9.7" fill="#FFF" stroke="#938800"/><path fill="#B9BABA" stroke="#898989" d="M135.8 901.6v-5.8s.3-.1 1.6 0 2.7 0 2.7 0l-1.1 5.8 3.6-4.3.8.6-3.8 5.5 5.5-3.8s1.2 1.4 1.5 2.8c.4 1.4.5 3.1.5 3.1l-6.6.1 6.6 1.7-.5 1.2-5.2-1.7 3.5 4.8-3.5 2.7-2.9-5.7-1.1 6.6-1.6-.1 1.6-6.4-3.7 5.8-4.4-3.6 5.6-3.6-6.8 1.2-.3-1.2 6.4-1.7-6.6-.1 1.9-5.7 5.4 3-3.5-4.9 1.3-.9 3.1 4.6z"/><path fill="#B9BABA" stroke="#898989" d="M123.8 910.9h-1.2s-2.6-19.5 15.1-19.6c17.1-.1 14.4 20.3 14.4 20.3l-1.4.2s2.6-19.3-13.3-19.3-13.6 18.4-13.6 18.4z"/><text fill="#FDFFFF" stroke="#FDFFFF" font-family="'MyriadPro-Regular'" font-size="8.937" transform="translate(91.567 900.966)">POLICE</text><path fill="#00467F" d="M56.9 884.3l-31.3 1.9s10.7-2.6 17.9-3.1c7.2-.4 12.4-.6 12.4-.6l1 1.8z"/><path fill="#FF8415" stroke="#E58E38" d="M101.7 870.3c0 .4-.3.7-.7.7h-5.1c-.4 0-.7-.3-.7-.7v-3.8c0-.4.3-.7.7-.7h5.1c.4 0 .7.3.7.7v3.8z"/><path fill="red" stroke="#E58E38" d="M101.7 868.3c0 .4-.3.7-.7.7h-5.1c-.4 0-.7-.3-.7-.7v-3.8c0-.4.3-.7.7-.7h5.1c.4 0 .7.3.7.7v3.8z"/><path stroke="#000" d="M85.8 880.3c.5.2.5.9 1 1.1.7.3 1.4-.3 1.8-.7.4-.3 1-1 .9-1.5-.1-.6-1-1-1.5-1.3-.2.7-1.4 1.6-2.1 2" opacity=".02"/><path fill="#FFF" stroke="#DDDDDC" stroke-width=".25" d="M65.6 867.7s-1 .8-2.2 1.1c-1.2.2-2.4.6-3.4.9-1 .4-2.5 1.7-3.4 2.6-.9.9-2.9 4.6-3.7 5.9-.8 1.3-1.5 2.2-1.6 2.5-.1.3.1.8.8 1 .7.2 1.9.6 2.2.9.3.2 1.6 1.4 2.4 1.6.8.2 1.7 0 1.7 0l.4-1.4s.2 1.4.3 2.2c.1.8.3 1.9.3 2.1 0 .2.2 2.3.3 2.8.1.5.3 1.1.5 1.3.1.2 3.1 1 3.5 1.2.4.2 2 .6 3.4.5 1.3-.1 6-.3 7-.4 1-.1 2.2-.2 3.2-.7 1-.5 3.6-2.4 3.6-2.7 0-.3-.3-5.2 0-5.5.4-.4.6-2.6.6-2.6v-1.8l1.4 1.8 1 .9s1.2.4 2 .1c.8-.3 1.9-.7 2.2-1 .3-.3 1.2-.9 1.2-1.1v-1.2l.4-.7s-6-7-6.5-7.3c-.5-.2-3-1.6-4.3-1.9-1.3-.3-4.5-.8-4.7-.9-.2-.2-.7-.4-.7-.4l-7.9.2z"/><g fill="#383B40"><path d="M68.8 872.7s-1.4 11.5-1.4 13.2c0 1.7 1.4 4.3 2 5.1.6.9 2-3.9 2.2-4.6.2-.7-1.2-13.7-1.2-13.7h-1.6z"/><path d="M68.2 878.4c.2-.6.8-1 1.1-1.4.3-.4.8-.9 1.1-1 0-.2.1-.1.1-.2m-2.5 5c.3-.8.9-1.4 1.3-1.9s.9-1.3 1.4-1.4c0-.2.1-.2.1-.3m-3 6.2c.3-1 1.1-1.7 1.6-2.3.5-.6 1.1-1.6 1.6-1.8 0-.3.1-.2.1-.4m-3.7 7.2c.4-1.1 1.3-2 1.8-2.7.6-.7 1.2-1.9 1.9-2.1 0-.3.1-.3.1-.5m-3.4 7c.3-1 1.2-1.8 1.7-2.5s1.2-1.7 1.8-1.9c0-.3.1-.2.1-.4m-2.9 6.2c.3-.9 1-1.7 1.4-2.3.4-.6 1-1.5 1.5-1.7 0-.3.1-.2.1-.4m-2.4 5.7c.2-.7.7-1.3 1-1.7.3-.5.7-1.2 1.1-1.3 0-.2 0-.2.1-.3m-2.9-10.9c.2-.5.7-.9 1-1.2.3-.3.7-.8 1-.9 0-.1 0-.1.1-.2"/><path d="M68.8 872.7s-1.4 11.5-1.4 13.2c0 1.7 1.4 4.3 2 5.1.6.9 2-3.9 2.2-4.6.2-.7-1.2-13.7-1.2-13.7h-1.6z"/><path d="M68.4 871.9c.2 1 0 .8.1 1.8 1 .9 1.3.7 2.4 0v-2.2c-.7-.7-1.7-.2-2.3-.5"/></g><path fill="#FFF" stroke="#DDDDDC" stroke-width=".25" d="M64.2 885.2v-5.1l-5.7.9 1 4.2zm9.2-5.5l.1 3.7 1.3 1.1 4.1-.2.7-1 .5-3.6z"/><path fill="#FFF" stroke="#DDDDDC" stroke-width=".25" d="M64.9 877.9l-.3 2.2s-1.8.2-2.3.3c-.6.1-1.3.6-1.3.6s-1.1-.3-1.3-.3-1.5.3-1.5.3v-2.4l6.7-.7zm8.4-.8l.2 2.6h2.2c.6 0 1.7.4 1.7.4s1.2-.4 1.7-.4c.6 0 1.4.3 1.4.3v-2.9h-7.2zm-4-6.1l-2.4 4.2-1.9-3.4.7-2.8s0-.3.4 0c.3.3.9.8 1.4 1.3.4.4 1.8.7 1.8.7zm3.5 4.4l1.2-3.9-.5-2.9s-1.3 1.1-1.7 1.4c-.4.3-1.7 1-1.7 1l2.7 4.4z"/><path fill="#FDD9BE" d="M59.2 864.4s-.1 3.1.3 3.6 2 1.7 5.6 2.4c4.2.8 6.2.7 8.1 0 1.7-.6 3-1.2 3.8-2 .8-.8 1.2-1.3 1.4-2.1.2-.8.4-1.6.2-1.9-.2-.2.5-3.5.5-4.1 0-2.8-6.7-6-10.3-6.3-3.3-.3-9.2 3.6-9.3 7 .1.8-.3 3.4-.3 3.4z"/><path fill="none" d="M78.5 863.7v-.1"/><path fill="#FDD9BE" d="M59.2 866.5s-.8.7-1.1.3c-.3-.4-.5-1.3-.5-1.8s.9-1.6 1.1-1.6c.2 0 .7.1.7.1l-.2 3zm19.3-3.2s.8-.7 1.1-.4c.3.4.6 1.3.6 1.7 0 .5-.8 1.7-1 1.7h-.7v-3z"/><path fill="#FDD9BE" stroke="#E1AC87" stroke-width=".25" d="M68.6 866s.3-.7 1-.6c.7.1.9.7.9.7"/><linearGradient id="y" x1="1300.628" x2="1299.286" y1="1596.83" y2="1596.83" gradientTransform="translate(-2877.422 -2747.014) scale(2.2634)" gradientUnits="userSpaceOnUse"><stop offset="0" stop-color="#ec1475"/><stop offset="1" stop-color="#fff5cb"/></linearGradient><ellipse cx="64.9" cy="867.3" fill="url(#y)" opacity=".18" rx="1.5" ry="1.9"/><linearGradient id="z" x1="1303.211" x2="1304.774" y1="1596.729" y2="1596.729" gradientTransform="translate(-2877.422 -2747.014) scale(2.2634)" gradientUnits="userSpaceOnUse"><stop offset="0" stop-color="#ec1475"/><stop offset="1" stop-color="#fff5cb"/></linearGradient><path fill="url(#z)" d="M75.8 867c0 1.1-.8 1.9-1.8 1.9s-1.8-.9-1.8-1.9c0-1.1.8-1.9 1.8-1.9s1.8.9 1.8 1.9z" opacity=".21"/><path fill="#030303" d="M69.9 867s-5 1.6-6.5 1.4c-1.5-.1-1.8.1-2.3-1.1-.5-1.1-1.6-1.6-1.6-1.6s-.2 1.5.4 2.4c.5.9 6.3 3.4 10.4 2.8 4.2-.6 5.1-.8 6.4-1.7 1.2-.9 1.9-1.7 1.7-2.1-.1-.4-1.3.7-2.7 1.1-1.4.3-5.7-1.1-5.8-1.2z" opacity=".04"/><path fill="#030303" d="M77.7 865.1l.1 1.9s.2.1.5-.6c.4-.7-.6-1.3-.6-1.3z" opacity=".04"/><circle cx="66.1" cy="863.4" r=".4" fill="#030305"/><circle cx="71.9" cy="863.4" r=".4" fill="#030305"/><path fill="#E8E7E7" stroke="silver" stroke-width=".25" d="M59.8 859.5c3.6-7.8 16.3-7.4 19.2-.4-2-1.2-3.6-2.8-5.4-2.7-1.1 0-2.1 1-3.7 2-3.1-1.1-1.7-3-4.8-1.7-1.5.7-4.4 1.8-4.7 3.3l-.6 5-.3-1.6.3-3.9zm9.8 8.4c-.4-.1 0 .9-.3 1.1-.2.2-.9.2-1.2.3-.8.3-1.2.5-2.2.5-.1-.3.9-1.5 1.2-1.9.6-.6.7-.7 1.6-.9.8-.2 1.6-.2 2.3.1.5.2 1 .5 1.3.7.3.2.8 1 1.4 1.4.2.1.3.5.1.8-.3.2-.7 0-.9-.1-1.3-.8-1.5-1.1-3.2-.8-.1-.1.1-1.1-.1-1.2z"/><path fill="#383B40" d="M56.9 872.1c1.6.5 1.2-.6 2.5-1.2.9-.4 2.7-.1 3.3-.5-.2-1-2.2-.5-3-.3-1.4.4-2.1 1.2-3.2 1.8.2.1.4.1.4.2m19.5-3.5c.8 1.3 1.4.2 2.8.5.9.2 2.1 1.5 2.9 1.5.5-.9-1.3-1.7-2-1.9-1.3-.5-2.5-.3-3.8-.4 0 .1.1.2.2.3"/><path fill="#ECB12A" stroke="#AD7F2C" stroke-width=".25" d="M78.4 876.1l-.7-1 .6-.9h.1c.1 0 .2-.1.2-.2s-.1-.2-.2-.2-.1 0-.1.1H77l-.6-.8v-.1c0-.1-.1-.1-.2-.1s-.2.1-.2.1v.1l-.6.8h-1.2c0-.1-.1-.1-.2-.1s-.2.1-.2.2.1.2.2.2l.6 1-.6.9h-.1c-.1 0-.2.1-.2.2s.1.2.2.2.1 0 .2-.1h1.2l.6 1-.1.1c0 .1.1.2.2.2s.2-.1.2-.2c0 0 0-.1-.1-.1l.6-1H78c0 .1.1.1.2.1s.2-.1.2-.2c.2-.1.1-.2 0-.2z"/><path fill="#FFC942" stroke="#AD7F2C" stroke-width=".25" d="M76.3 873.3l-.7.8h-1.1l.5 1-.7 1h1.3l.6 1 .6-1h1.4l-.7-1 .6-.9h-1.2z"/><ellipse cx="76.2" cy="875.1" fill="#2F2E80" rx=".8" ry=".7"/><ellipse cx="76.2" cy="875.1" fill="#ECB12A" stroke="#AD7F2C" stroke-width=".25" rx=".6" ry=".5"/><ellipse cx="75.9" cy="875.1" fill="#FFF" stroke="#FFF" stroke-width=".25" rx=".3" ry=".4"/><ellipse cx="75.9" cy="875.1" fill="#7B1315" stroke="#7B1315" stroke-width=".25" rx=".2" ry=".3"/><ellipse cx="76.5" cy="875.1" fill="#FFF" stroke="#FFF" stroke-width=".25" rx=".3" ry=".4"/><path fill="#7B1315" stroke="#7B1315" stroke-width=".25" d="M76.7 875.1c0 .2-.1.3-.2.3s-.2-.1-.2-.3c0-.2.1-.3.2-.3s.2.2.2.3z"/><path fill="#F8DF8E" stroke="#E5C56F" stroke-width=".25" d="M75.1 876s0-.1.1-.1.5.4 1 .3c.4 0 .5-.1.6-.1.1 0 .2-.1.3-.2h.1c.1 0 .2.1.2.1s.1-.1.1-.2-.1-.2-.2-.2H77c-.1 0-.4.3-.8.3-.3 0-.5-.2-.7-.2-.1-.1-.3-.1-.4 0-.1 0-.1.1 0 .3 0-.1 0 0 0 0z"/><path fill="#F8DF8E" stroke="#E5C56F" stroke-width=".25" d="M75.8 876.6v-.4s.3.1.5.1.4-.1.4-.1v.4c-.1 0-.3.1-.4.1-.3 0-.5 0-.5-.1zm-.7-2.3s-.1.1 0 .2.2 0 .2 0 .4-.4.8-.3c.4 0 .7.2.8.3.1.1.2.1.3 0 .1-.1.1-.1 0-.2s-.5-.4-1.1-.4c-.4 0-1 .4-1 .4z"/><path fill="#F8DF8E" stroke="#E5C56F" stroke-width=".25" d="M75.2 874.7c.1 0 .1 0 0 0 .1 0 .1.1 0 0 0 .1 0 .1 0 0H75v-.1s0-.1.1-.1h.4v.1h-.2c-.1 0-.1 0-.1.1zm1.8-.2c-.1.1 0 .1 0 .1s.2 0 .2.1h.2s.2-.1.2-.2 0-.1-.1-.1h-.1l-.1.1H77z"/><path fill="#231F20" d="M75.7 874.2s.1 0 0 0c.1 0 .1 0 0 0 .1-.1.1-.1 0 0v-.1s0-.1.1-.1h.1c-.2.1-.2.1-.2.2.1-.1.1-.1.1 0h-.1c.1 0 0 0 0 0zm.2-.2h.1v-.1.1h-.1zm.3.1c-.1 0-.1 0 0 0 0 .1-.1.1-.1.1v-.2h.1v.1c0-.1 0-.1 0 0-.1-.1-.1-.1 0 0 0-.1 0-.1 0 0 0-.1 0-.1 0 0zm.1-.2h.1v.2c-.1 0-.1-.1-.1-.2zm0 .1s.1 0 0 0c.1 0 .1 0 0 0zm.2 0v.2c-.1-.1-.1-.2 0-.2zm0 0c.1 0 .1 0 0 0l.1.1h-.1v-.1zm.2 0s0 .1 0 0c0 .1.1.1.1.1h-.1v-.1z"/><g fill="#231F20"><path d="M75.4 875.7s.1 0 0 0c.1 0 .1 0 .1.1h-.1v-.1zm0 .1c.1 0 .1 0 0 0 .1 0 .1 0 0 0 .1 0 0 0 0 0zm.2 0c0 .1 0 .1-.1.2 0-.1.1-.1.1-.2zm.2.3c-.1 0-.1 0 0 0-.1 0-.2-.1-.1-.1 0-.1.1-.1.2-.1-.1 0-.1 0-.1.1-.2 0-.2 0 0 .1-.1-.1-.1-.1 0 0 0-.1 0-.1 0 0z"/><path d="M75.8 875.9c.1 0 .1 0 0 0 .1 0 .1 0 0 0 .1.1.1.1 0 0 .1.1.1 0 .1 0h-.1c.1.1.1.2.1.2s0-.1-.1-.1v-.1zm.3.1c-.1 0-.1 0-.1.1.1 0 .1 0 .1-.1 0 .1 0 .1 0 0 0 .1-.1.1-.1.1v-.2h.1v.1c0-.1 0-.1 0 0-.1 0-.1 0 0 0zm.1.1v-.2s0 .1.1.1v-.1.2l-.1-.1v-.1.2zm.2 0s.1 0 0 0h.1c0-.1 0-.1-.1 0v-.1s0-.1.1-.1h.1c-.2.1-.1.1-.2.2.1-.1.1-.1.1 0h-.1c.1 0 0 0 0 0zm.5-.1s-.1 0 0 0c-.1.1-.2 0-.2 0 0-.1 0-.1.1-.1h.1c-.1 0-.1.1-.1.1h.1c-.1 0-.1 0 0 0zm.1-.2v.1h-.1c0-.1 0-.1.1-.1 0-.1 0 0 0 0zm-.1.1s.1.1.1 0 .1-.1 0-.1c0 0-.1-.1-.1 0v.1z"/></g><text fill="#231F20" font-family="'MyriadPro-Regular'" font-size=".317" transform="matrix(1.0895 0 0 1 75.975 876.54)">S.C.</text><path fill="#E8E7E7" stroke="silver" stroke-width=".25" d="M67.2 861.7c-.7-.8-2.3-.3-3 .3-.3.3-.6 1.3-1.1.9-.4-.3-.1-1 0-1.4.2-.4.5-1 1-1.2.5-.2 1.1 0 1.6.2.6.2 1.1.4 1.6.7.2.1.7.2.5.5-.1.2-.5.1-.7 0m3.9.7c.3-.1.4-.4.6-.5.2-.1.5-.2.8-.3.4-.1 1-.3 1.4-.2.7.1.9.6 1.4.9.6.3.5-.7.3-1-.3-.4-.7-.8-1.1-1.1-.5-.4-1-.1-1.5.2-.5.3-1 .6-1.4 1-.2.2-1.4 1.1-.4 1m7.3 1.5s1.6-3.7.6-4.7-.6 4.7-.6 4.7z"/><path fill="#383B40" d="M61.5 856.1s.9-8.9 3.7-9.2c2.8-.3 3.2.5 4.4.5 1.2 0 4.3-.8 5.2-.6.9.2 2.3 1.3 2.8 2.8.4 1.5 1.2 6.8 1.2 6.8s-7.4.1-9.2 0c-1.8 0-8.1-.3-8.1-.3z"/><path fill="none" d="M54.7 857.5s-.4-1.1 2.5-1c2.9 0 4.1-.3 6.7 0 2.6.3 4.7.3 6.9.5 2.2.1 5.8-.1 6.7 0 .9.1 2.6-.2 3.8 0 1.2.2 1.9-.2 2.3 0 .4.2 1.3.2 1.5.6.2.4.6 0 .3 0s.5-.2-.8-.7c-.9-.3-5.3-.6-6.5-.5-1.2.2-4.4-.2-5.8 0-1.3.2-4.2-.2-6-.3-1.9-.1-3.3-.2-4.3-.1-.5 0-1.1.2-3.5 0s-3.6-.1-4.2.5c-.4.4-.1.6 0 .7.1.1.4.3.4.3z"/><path fill="#595D62" d="M61.7 858.1c3.2-.1 6.3-.3 9.5-.2 1.6.1 3.3.2 4.9.2.6 0 1.9.1 2.2.6.4.7-.4 1.8.6 2.2.6.3 1.7-.2 2.4-.3 1-.2 1.8-.4 2.6-1 .6-.4 1.8-1.2 1.8-2-.1-.9-1.5-1-2.3-1.1-3.2-.4-6.5-.1-9.8-.1-2.5 0-4.8 0-7.3-.3-2.4-.3-4.8-.2-7.3-.2-1.2 0-2.4.1-3.5.3-.5.1-1.4.1-1.4.7 0 .5 1.4 1.2 1.8 1.5 1.2.7 2.4.9 3.6 1.4.5.2 0 .5.4.1l1.8-1.8"/><path fill="#595D62" d="M76.9 855.2c-2.5-1.8-3.9-1.7-6.8-1.3-1.5.2-2.9.6-4.5.7-1.6.1-2-1.5-3.4 0 2.8 2.9 8.6 0 12.1.4"/><path fill="#ECB12A" stroke="#AD7F2C" stroke-width=".25" d="M72 852.2l-.7-1 .6-.9h.1c.1 0 .2-.1.2-.2s-.1-.2-.2-.2-.1 0-.1.1h-1.3l-.6-.8v-.1c0-.1-.1-.2-.2-.2s-.2.1-.2.2v.1l-.6.8h-1.2c0-.1-.1-.1-.2-.1s-.2.1-.2.2.1.2.2.2l.6 1-.6.9h-.1c-.1 0-.2.1-.2.2s.1.2.2.2.1 0 .2-.1H69l.6 1-.1.1c0 .1.1.2.2.2s.2-.1.2-.2c0 0 0-.1-.1-.1l.6-1h1.3c0 .1.1.1.2.1s.2-.1.2-.2c.1-.1 0-.2-.1-.2z"/><path fill="#FFC942" stroke="#AD7F2C" stroke-width=".25" d="M69.8 849.4l-.6.9h-1.1l.5.9-.7 1h1.3l.6 1 .6-1h1.4l-.7-1 .6-.9h-1.2z"/><path fill="#2F2E80" d="M70.6 851.2c0 .4-.4.7-.8.7s-.8-.3-.8-.7c0-.4.4-.7.8-.7s.8.3.8.7z"/><ellipse cx="69.8" cy="851.2" fill="#ECB12A" stroke="#AD7F2C" stroke-width=".25" rx=".6" ry=".5"/><ellipse cx="69.5" cy="851.2" fill="#FFF" stroke="#FFF" stroke-width=".25" rx=".3" ry=".4"/><ellipse cx="69.5" cy="851.2" fill="#7B1315" stroke="#7B1315" stroke-width=".25" rx=".2" ry=".3"/><ellipse cx="70.1" cy="851.2" fill="#FFF" stroke="#FFF" stroke-width=".25" rx=".3" ry=".4"/><ellipse cx="70.1" cy="851.2" fill="#7B1315" stroke="#7B1315" stroke-width=".25" rx=".2" ry=".3"/><path fill="#F8DF8E" stroke="#E5C56F" stroke-width=".25" d="M68.7 852.1s0-.1.1-.1.5.4 1 .3c.4 0 .5-.1.6-.1.1 0 .2-.1.3-.2h.1c.1 0 .2.1.2.1s.1-.1.1-.2-.1-.2-.2-.2h-.3c-.1 0-.4.3-.8.3-.3 0-.5-.2-.7-.2-.1-.1-.3-.1-.4 0-.1 0-.1.1 0 .3-.1 0 0 0 0 0zm.6.7v-.4s.3.1.5.1.4-.1.4-.1v.4c-.1 0-.3.1-.4.1-.2 0-.5-.1-.5-.1zm-.6-2.3s-.1.1 0 .2.2 0 .2 0 .4-.4.8-.3c.4 0 .7.2.8.3.1.1.2.1.3 0 .1-.1.1-.1 0-.2s-.5-.4-1.1-.4c-.5-.1-1 .4-1 .4z"/><path fill="#F8DF8E" stroke="#E5C56F" stroke-width=".25" d="M68.8 850.8c.1 0 .1 0 0 0 .1 0 .1.1 0 0 0 .1-.1.1-.1.1l-.1-.1v-.1s0-.1.1-.1h.5v.1H69l-.2.1c0 .1 0 0 0 0zm1.8-.2s-.1 0 0 0c-.1.1 0 .1 0 .1s.2 0 .2.1h.2s.2-.1.2-.2 0-.1-.1-.1H71l-.1.1h-.3z"/><g fill="#231F20"><path d="M69.3 850.3c.1 0 .1 0 0 0 .1-.1.1-.1 0 0v-.1s0-.1.1-.1h.1c-.2.1-.2.1-.2.2.1-.1.1-.1.1 0h-.1z"/><path d="M69.5 850.1l.1.1v-.1.1h-.1v.1c-.1-.1-.1-.1 0-.2-.1 0-.1 0 0 0zm.3.1c-.1 0-.1 0 0 0-.1 0-.1 0 0 0-.1 0 0 0 0 0 0 .1 0 .1 0 0 0 .1-.1.1-.1.1v-.2h.1v.1c-.1-.1-.1-.1 0 0-.1-.1-.1-.1 0 0-.1 0-.1 0 0 0zm0-.1s.1 0 0 0h.1v.2c-.1-.1-.1-.2-.1-.2zm.1.1s0-.1 0 0c0-.1 0-.1 0 0 0-.1 0-.1 0 0 0-.1 0-.1 0 0zm.2-.1v.2c-.1-.1-.1-.1 0-.2-.1 0-.1 0 0 0zm0 0l.1.1h-.1v-.1zm.2 0c0 .1 0 .1 0 0 0 .1.1.1.1.1h-.1v-.1z"/></g><path fill="#231F20" d="M69 851.8s0 .1 0 0c.1 0 .1 0 .1.1H69v.1c-.1-.1 0-.1 0-.2zm0 .1c0 .1.1.1 0 0 .1 0 .1 0 0 0zm.2 0c0 .1 0 .1-.1.2 0-.1 0-.1.1-.2zm.1.3c-.1 0-.2-.1-.1-.1 0-.1.1-.1.2-.1-.1 0-.1 0-.1.1-.1 0-.1 0 0 .1zm.1-.2c.1.1.1 0 .1 0 0 .1 0 .1-.1 0 .1.1.1.2.1.2s0-.1-.1-.1v-.1zm.3.1c-.1 0-.1 0-.1.1 0 0 .1 0 .1-.1 0 .1 0 .1 0 0l-.1.1v-.2h.1v.1c-.1 0-.1 0 0 0zm.1.1v-.2s0 .1.1.1v-.1.2l-.1-.1v-.1.2zm.2 0h.1c0-.1 0-.1-.1 0v-.1s0-.1.1-.1h.1c-.2.1-.2.1-.2.2.1-.1.1-.1.1 0H70zm.4-.1c-.1.1-.2 0-.2 0 0-.1 0-.1.1-.1h.1c-.1 0-.1.1-.1.1h.1zm.2-.2v.1h-.1c0-.1 0-.1.1-.1-.1 0 0 0 0 0zm-.2.1s.1.1.1 0c0 0 .1-.1 0-.1 0 0-.1-.1-.1 0v.1z"/><text fill="#231F20" font-family="'MyriadPro-Regular'" font-size=".317" transform="matrix(1.0895 0 0 1 69.546 852.66)">S.C.</text><path fill="#272626" d="M72.1 914.7s-.8.4 0 1.5 2.6 1.3 3.5 2.3c1 .9 1.4 2.1 3.2 2.1 1.8 0 6.1-.9 7.4-1.9 1.2-.9.4-2.3 0-3.2-.4-.9-2.7-1.7-3.7-1.9-1-.2-2-1.1-2-1.1s-2.5-1.1-3.9 0c-1.4 1-4.5 2.2-4.5 2.2zm-9.8-2.8s.7 1.6-1 1.4c-1.7-.2-4.2.6-5.2 1.7s-.8 2.3 0 2.4c.8.2 13.1 0 13.1 0s1.4.2 1-1.3c-.4-1.5-.8-2.5-.8-2.5s-2.9-2.1-3.8-1.8c-.9.4-3.3.1-3.3.1z"/><path fill="#595D62" d="M59.3 889.1s1.6.8.3 2.3c-1.3 1.5.4 2.7.6 3.8.2 1.1.9 3 1.1 3.7.2.8 1.8 4.1 1.6 5.1-.2.9.6 2.4 0 3.4-.6.9-1.7.6-1.6 2.1.2 1.5-1 3 0 3s1.5 0 3.6.2 4.6 1.7 4.6 1.7.8-1.4.8-1.8c0-.4 1.1.9 1.5 1.8.4.9.6 1.2 2.8-.1 2.1-1.2.7-2.2 3.3-1.7l2.7.5v-2.3c0-1.3-2.2-2.3-1.2-3 1-.8 1.2-1.7 1.2-1.7s-2.2-.7-1.2-1.7c1-.9 1-2.8 1.2-3.6.2-.8-.6-3.2 0-4.1.6-.9 1.4-3 1.6-3.9.2-.9 0-2.7 0-3.6 0-.9-.4-1.8-.4-1.8s-5.2 1.5-7.2 2.3c-2.1.7-4.6 1.9-6.2 1.9s-1.6.4-2.9 0c-1.2-.4-3.1-1.3-4.2-1.7-1.1-.5-2-.8-2-.8z"/><path fill="#383B40" d="M68.3 912.5s1.2-.8 0-1.4c-1.2-.6-1.5-1.3-1.5-1.3s.8-1.7 1.5-2.6c.7-.9.3-3.4.5-4.3.2-.9-1.4-5.8-1.4-5.8h1.4s1.8 9.8 1.4 10.7c-.4.9-.4 2.1 0 2.6.4.6 0 2.1 0 2.1l-.8 1.8-1.3-.9.2-.9zm8.9-1.2s.2-.8 0-1.7c-.2-.9 0-2.3 0-2.3l.8-1.7s.4-1.3 0-1.1c-.4.2-2.4 0-2.4 0s.8-1.5 1.3-2.2c.5-.8 0-3.6 0-3.6s-1.2-3.2-1.3-3.8c-.1-.6-1.1-2.4-1.1-2.4l-1.9-2.3 1.8-.7 7.2-2.3s.6 2.8.5 4.1c-.1 1.3-2.1 5-2 6.4.1 1.4.4 1.9.2 3s-1.2 3.6-1.2 3.6l1.2 1.7-1.2 1.7s.5 1.1.8 2c.4 1 .4 1.5.4 1.5v1.7c.2-1.6-3.1-1.6-3.1-1.6z"/><path fill="#292D2D" d="M59.2 892.2s2 2 3.3 2.3c1.3.4 6.3.4 7.2.2 1-.2 3.8-1.5 4.6-1.8.9-.3 1.6-1 2.6-1.4.9-.4 2.4-1.4 2.9-1.6.5-.2 2.3-.4 2.4-.5.1-.1-.2-1-.2-1s-1.1.4-1.7.6c-.6.1-2.4.9-3 1.2-.6.2-2 1.1-2.3 1.2-.3.1-2.5 1-2.8 1-.3 0-1.7.4-2.2.6-.4.2-1.4.5-1.4.5s-4.2.2-5 .2c-.8-.1-1.4-.5-2-.6-.5-.1-1.2-.6-1.4-.9-.2-.3-.6-.6-.6-.6l-.4.6z"/><path fill="#A9ABA9" d="M64.4 893.2s1.5-.3 2.2-.2c.7 0 1.4-.2 1.8.2.5.5.8.5.8 1.1 0 .5.1.9-.4 1.4-.5.5-.8.8-1.5.8s-1.4.2-2.1 0c-.7-.2-.8 0-1.1-.5-.3-.5-.4-.7-.4-1.2 0-.6-.2-1 .3-1.3l.4-.3zm7.2-2.3s.9 1.9.8 2c-.1.1 0 .8 0 .8h.4c.2 0 .8-.2.7-.4 0-.2-.2-.9-.3-1.3-.1-.4-.4-.5-.5-.9l-.2-.8-.9.6z"/><path fill="#F6E1AD" d="M86.5 881c.4 0 .9.7.8 1.1 0 .3-.7.9-.9 1.2-.3.4-.5.9-.8 1.3-.6.8-1 1.9-1.7 2.6-.7.7-1.7.5-2.6.5-2-.1-3.7 1.6-3.7 3.5 0 .9.8 2 1.1.6.2-1 .3-1.7 1.2-2.4.1.7-.6 1.6-.6 2.4 0 .9-.1 2 .6 2.7 1 1.1 1.1-.7 1.1-1.4 0-.8-.2-1.8.2-2.6-.2 1.2-.9 3.7.4 4.5.3.2.8.4 1.1-.1.2-.4-.3-.9-.4-1.2-.2-.7-.3-1.7-.3-2.5.9.5.6 2.2 1.2 2.5.8.4 3.2-.9 1.6-1.4-.4-.1-1.2-.1-1.2-.8 0-.7.7-.3 1.2-.4 1.4-.3.6-2 1.2-2.7.3-.4 1-.8 1.4-1.2.4-.4.8-.9 1.3-1.2 1-.8 2.4-1.7 3-2.7 1.4-2.2-1.3-3.1-2.3-4.6"/><path fill="#FFF" stroke="#DDDDDC" stroke-width=".25" d="M84 881.7l5.1-4.6 1.1.8-5 4.8z"/><path fill="#F6E1AD" d="M54.1 883.2c-.4 0-.1-1.5 0-1.1 0 .3.7.9.9 1.2.3.4.5.9.8 1.3.6.8 1 1.9 1.7 2.6.7.7 1.7.5 2.6.5 2-.1 3.7 1.6 3.7 3.5 0 .9-.8 2-1.1.6-.2-1-.3-1.7-1.2-2.4-.1.7.6 1.6.6 2.4 0 .9.1 2-.6 2.7-1 1.1-1.1-.7-1.1-1.4 0-.8.2-1.8-.2-2.6.2 1.2.9 3.7-.4 4.5-.3.2-.8.4-1.1-.1-.2-.4.3-.9.4-1.2.2-.7.3-1.7.3-2.5-.9.5-.6 2.2-1.2 2.5-.8.4-3.2-.9-1.6-1.4.4-.1 1.2-.1 1.2-.8 0-.7-.7-.3-1.2-.4-1.4-.3-.6-2-1.2-2.7-.3-.4-1-.8-1.4-1.2-.4-.4-.8-.9-1.3-1.2-1-.8-.3.2-1-.8-1.4-2.2-1.5-2.8-.5-4.3"/><path fill="#FFF" stroke="#DDDDDC" stroke-width=".25" d="M51.3 880.2l7.5 3.7-.4 1.4-7.6-3.7z"/></g></switch></svg>
