<svg xmlns="http://www.w3.org/2000/svg" version="1.0" viewBox="0 0 108.8 107"><switch><g><path fill="#F9F3C5" d="M17.9.6h81.7v80.6H17.9z"/><path fill="#A3C3D8" d="M17.8 82.3L0 107h108.8l-9.3-25z"/><path fill="#ACE856" stroke="#ACE856" d="M17.3 0h20.1v16.8H17.3zm40.3 0h20.1v16.8H57.6zM37.4 16.8h20.1v16.8H37.4zm40.3 0h20.1v16.8H77.7zm-60.4 17h20.1v16.8H17.3zm40.3 0h20.1v16.8H57.6zM37.4 50.6h20.1v16.8H37.4zm40.3 0h20.1v16.8H77.7zM17.3 67.4h20.1v13.8H17.3zm40.3 0h20.1v13.8H57.6z"/><path fill="#00ADDB" stroke="#00ADDB" stroke-width=".111" d="M100.1 82.6H16.6v-5.8h83.5c.2-.1.2 5.8 0 5.8z"/><path fill="#FFFFFD" stroke="#E0E0E0" stroke-width=".25" d="M43.5 48.6s1.2 9.1.9 16.8c-.4 7.7-1.6 17.6-2.5 20.7-.9 3.1 0 6.2 0 6.2s2.8 4.4 9.6 3.9c6.8-.5 8.4-3.3 8.4-3.3s-1.2-22.7-.7-27.6c.5-4.9 2.5-16.6 2.5-16.6s-3.5 1.5-9.3 1.5-8.9-1.6-8.9-1.6z"/><path fill="#E8E7E7" d="M43.5 49.2s1 9.7.9 13.4c-.1 3.8-.8 9.9-.9 11.8-.1 2-1 8.9-1.3 10-.2 1.1-1.6 5-.8 6.7.8 1.7 1.9 2.7 1.9 2.7s.6-7.8 1-13.3c.4-5.5 1.9-14.8 1.5-20.5-.4-5.7-.7-10.9-.7-10.9h-1.6zm16.4 43.6l-1.8 1.6s-1.3-4.9-1-14.6c.3-9.6 2.2-30.6 2.2-30.6l1.8-.4s-1.5 15.5-2 21.6c-.6 6.1.6 17.4.2 19.8-.1.6.6 2.6.6 2.6z" opacity=".29"/><path fill="#FFFFFD" stroke="#E2E2E2" stroke-width=".25" d="M83.2 38.1c0 4.9-13.6 12-30.5 12-16.8 0-29.2-6.6-29.2-11.5s12.4-6.1 29.2-6.1c16.9 0 30.5.8 30.5 5.6z"/><path fill="#F2F2EF" stroke="#E2E2E2" stroke-width=".25" d="M32.1 32.6c-5.3.6-11.3 3.4-7.3 6.7 4 3.2 21 5.2 40.8 3.7 14.2-1.1 15.3-.4 17-3.4 2.8-4.8-10.2-6.4-12.6-6.8-2.4-.4-32.6-.8-37.9-.2z"/><path fill="#FFFFFD" stroke="#DDD" stroke-width=".25" d="M64.8 34.2s-27.1-.3-30.4.4c-3.1.6-4.8 2.1-3.7 4.1 1.1 2 3.7 2.5 6.5 2.8 2.8.3 34.7.9 38-.6 3.3-1.5 2.6-3 .7-4.5-3.2-2.4-11.1-2.2-11.1-2.2z"/><path fill="#E8E7E7" d="M53.3 47.8c-.2 0 2.5.5 4.3 1.1 1.8.6 2.4.9 2.4.9s5.9-1.4 6.2-1.4c.3-.1-.2-1.9-3.9-1.7-3.7.2-7.6.2-8.4.4-.8 0-.6.7-.6.7zm-17-.3c.4-.3 4.8-.4 6.6-.5 1.8-.1 3.3.6 3.7 1 .4.4-.7 1.6-.9 1.6H45l-6.1-1.3-2.6-.8zm-1.2-12.8c.5 1.3 1.2 2.7 2.1 3.9.9 1.1 2.9 1.8 3.5 2.9-1.4.6-7.6-.5-8.8-1.3-3.1-2.1-.8-5 2.6-5.6m28.6 6.7c.9-.9 2.3-1.6 3.2-2.5 1-1 1.6-2.2 2.5-3.2 2-2.1 5.4-.9 7.4 1.1 4.3 4.7-9.1 5.1-12.6 5" opacity=".29"/><path fill="#83807F" d="M41.5 33.5l.1.1s-.5.4-1 .4c-.5.1-.9.1-1.3 0-.4 0-1-.2-1-.2v-.3s1.2.4 1.5.3c.3-.1 1.1-.3 1.3-.3.2.1.4 0 .4 0z"/><path fill="#A7A4A4" d="M46.4 23.4l.1.3s-.7.1-.9.2c-.2.1-.4 0-.4 0v-.2s.6-.3.7-.2l.5-.1z"/><path fill="#C7C2BF" d="M46.5 23.3s.1.1-.7.1c-.7.1-.9.2-.9.2s-.2-1.3-.4-1.8-.8-1.3-1.2-1.6c-.3-.2-.9-.4-1.2-.2-.4.2-.6.3-1.1 1-.4.7-.4 1.1-.4 1.7v6.2s.2 0-.4.1c-.6.1-.9 0-.9 0l-.1-.1c0 .4 0-6.2.1-7 .1-.5.5-1.7 1-2.4.5-.6 1.9-1.1 2.5-1 .9.1 2.1.9 2.6 1.9 0 0 .7 1.1.8 1.5.2.5.3.9.3.9l.1.5h-.1z"/><path fill="#A7A4A4" d="M40.8 29.2s-.2.1-.6.1h-.9c-.1 0-.1 0-.2-.1s0-.2 0-.3c0-.1.1-.1.1-.1s.1.1.3.1h.9c.2 0 .2-.1.2-.1s.1 0 .2.1v.3z"/><path fill="#050505" d="M41.6 33.7s-.7.4-1 .4h-1.4c-.4 0-.7-.1-.7-.2v-.2s0-.2-.1 0c0 .2-.1.2 0 .3.1.1 1 .3 1.5.3s.9-.1 1.2-.1l.6-.2s.1-.2-.1-.3z" opacity=".49"/><path fill="#C7C2BF" d="M37.2 30.7s.6.4.7.8c.1.4.1.8.1 1.1-.1.3-.1.4-.3.5-.2.1-.4 0-.4 0h-.1l.2.1 1.2-.1s-.1 0-.1.2-.1.3-.1.3l.1.2s.3.1.7.2h1.4c.3 0 .8-.3.8-.3l.2-.1v-.3c0-.1-.2-.3-.3-.5-.1-.1-.1-1.9-.1-1.9l-.1-1s0-.2-.1-.4l-.2-.2s-.5.1-.8.1h-.8l-.2-.1s-.1 0-.2.2c0 0-.1.1-.1.3v.7s.1 0 0 .1-.5.1-.7.1c-.2-.1-.8 0-.8 0zm-1.8-2v-.1s-.1-.1-.2-.1v-.2s.1-.2 0-.3c-.1-.1-.2-.1-.2-.1-.1 0-.2.2-.2.2v.2l.1.2-.1.1-.1.1v.1h.3c.2-.1.3-.1.4-.1z"/><path fill="#C7C2BF" d="M35.5 31.8s-.1.1-.2.1h-.6V31c0-.2-.1-.7-.1-.8-.1-.1-.1-.6-.1-.8 0-.2.1-.4.1-.5 0-.1.1-.2.1-.2h.7s.2.3.2.5 0 .3-.1.6-.2.7-.1.8v1l.1.2z"/><path fill="none" d="M35.1 28s-.1.1 0 0c-.1.1-.1.4-.1.4h.1V28z"/><path fill="#050505" d="M35.1 28.9s0 .3.1.5v2.4h-.1v-1.9s-.1-.3 0-.4c-.1 0-.1-.6 0-.6zm0-.7c0-.1-.1-.2-.1 0 0 .1 0 .2.1.3.1 0 0-.3 0-.3" opacity=".79"/><path fill="#050505" d="M34.7 31.9s.1-.9.1-1c0-.1 0-.3-.1-.5 0-.1-.1-1-.1-1.1 0-.1.1-.3.1-.4 0-.1.1-.2.1-.2l.1-.1h-.3s-.2.3-.2.5 0 .6.1.7c0 .2.2.5.2.8v1.3zm.7-3.2c-.1 0 .1.5.1.6 0 .2-.1.9-.2 1v1.4c0 .1.1.2.1.2h.1s-.1-.8-.1-1c0-.2.1-.4.1-.5 0-.1.1-.6.1-.7 0-.1 0-.4-.1-.5 0-.3-.1-.5-.1-.5z" opacity=".28"/><path fill="none" d="M35.8 32.4c0 .2-.6.3-.8.2 0 0 .1 0 .1.1 0 0 0 .1.1.1l.1-.1h.1c.2 0 .5 0 .4-.3"/><path fill="none" d="M35.7 32.7c-.1 0-.1.1-.2.2h-.2c-.2 0-.3 0-.5-.1.2.3.8.2.9-.1"/><path fill="#B6B2B1" d="M37.2 30.7s-.4.1-.5.1c-.1 0-.3.4-.4.4-.1.1-.4.2-.4.2l-.1.2h-.3s-.7 0-.8.2l-.2.4c0 .1.1.3.3.5.2.3.2.3.4.3s.4-.2.4-.3h.2s.1.1.2.1h.2l.4.1s.1.1.2.1h.5c.1 0 .3.1.4 0 .1-.1.2-.2.2-.4v-.5c0-.1-.1-.4-.1-.7-.1-.3-.2-.3-.3-.5-.2-.2-.3-.2-.3-.2z"/><path fill="#050505" d="M37.6 31.5c-.1.1-.3.1-.4.2-.1 0-.2.1-.4.1-.1 0-.2 0-.4.1-.1 0-.3.1-.4.1.1.1.3 0 .4 0 .2 0 .3-.1.5-.1.2-.1.3-.1.5-.2l.2-.1c.1-.1 0-.1 0-.1m.3.8c-.1.1-.1.2-.2.2-.1.1-.2.1-.3.1h-1c-.2 0-.3-.1-.5-.1.1.1.2.1.2.1.1 0 .2 0 .3.1.2 0 .4 0 .6.1h.2c.1 0 .2 0 .3-.1l.2-.2.2-.2" opacity=".79"/><path fill="#FFF" d="M35.5 32.2c0 .1-.2.2-.3.2h-.3c-.1 0-.3 0-.3.1s.2.1.3.1c.2.1.5.1.7 0 .1 0 .2-.1.2-.2-.1-.2-.2-.3-.3-.2m.5-.6c.1 0 .2.1.3.2.1.1.2.2.2.3 0-.1 0-.2-.1-.3-.1-.1-.3-.3-.4-.2 0-.1 0-.1 0 0m-.4.2c.1.1.1.2.2.3v-.2c-.1 0-.2 0-.2-.1 0 0 .1 0 0 0" opacity=".7"/><path fill="#050505" d="M36.4 32.1v.4c-.1 0-.1-.2-.1-.2.1-.1.1-.2.1-.2m-.4-.6c.2 0 .4.3.4.5.1-.1-.2-.5-.4-.5m1.1-.7c.2 0 .4.2.5.4.1.1.3.3.3.5.1.4.2 1.1-.3 1.3 0 0-.1 0-.2.1h-.2c.3.2.6 0 .6-.3 0-.1.1-.2.1-.4V32c0-.1 0-.3-.1-.4 0-.1-.1-.3-.2-.4 0-.1-.1-.1-.1-.2-.1-.1-.1-.1-.2-.1 0-.1-.1-.2-.2-.1" opacity=".79"/><path fill="#050505" d="M38.9 30.6l.1.1c0-.1-.1-.2 0-.2s.2.1.2.2c-.2.1-.5.2-.8.3-.2.1-.5.1-.8.1-.1-.1.5-.2.6-.2.4-.1.6-.1.7-.3" opacity=".28"/><path fill="#050505" d="M40 29.7v1.2l-.2-.1s-.2 0-.2-.1l-.1-.1s.2.1.3.1v-1h.2z" opacity=".49"/><path fill="#050505" d="M40.1 32.4v1.8h-.3l-.1-.2v-1l.4-.6zm-1.4.6s-.2.1-.2.2v.7l-.1.1-.1-.1.1-.2v-.2l.1-.5h.2z" opacity=".79"/><path fill="none" d="M39.1 29.3s-.2.2-.2.3c0 .1-.1.7-.1.7s0-.7.1-.8c-.1 0 .1-.3.2-.2z"/><path fill="#050505" d="M41.7 33.7s0 .2-.1.2c-.1.1-.4.2-.4.2s-.2-.4-.2-.7c0-.3-.2-.6-.2-.8 0-.3.1-1.6 0-1.9-.1-.3.1-.9-.1-1-.2-.1-.3-.2-.3-.3l.4-.1s.2.1.2.4c0 .2.1 1.6.1 1.8 0 .1.1 1 .1 1v.3c0 .1.2.3.2.4v.4l.3.1z" opacity=".49"/><path fill="none" d="M39.4 29.9v.4c0 .1-.1.4-.2.2.2 0 .1-.7.3-.8-.1 0 0 .1-.1.2"/><path fill="#050505" d="M40.1 29.5c.3 0 .2.7.2.9 0 .4 0 .6.2 1-.1 0-.3-.2-.4-.3-.1-.1-.3-.1-.4-.2-.2-.1-.3-.3-.4-.4-.1-.1-.3-.1-.4-.2.1-.2.5.1.6.2.2.2.4.4.6.3v-1.2c-.1 0-.5 0-.3-.1.1-.1.4-.1.5 0" opacity=".79"/><path fill="#050505" d="M39.3 29.4c-.1-.1-.2-.1-.3 0 0 0 0 .1-.1.2 0 .1-.1.1-.1.2 0 .2-.2.5.1.6.1 0 .2.1.3 0v-.3c.1-.2.3-.6.1-.7z" opacity=".49"/><path fill="#050505" d="M37.3 30.8c.3 0 .6-.1.8-.2.1 0 .3-.1.4-.1h.2c.1-.1 0-.1-.1 0-.3.1-.6.1-.9.2h-.4c-.1 0-.2.1 0 .1" opacity=".79"/><path fill="#050505" d="M39.3 32.7c-.1-.1-.3 0-.5-.1 0-.1.5-.2.6-.2h.3c.1.1-.2.1-.2.2.2-.1.4-.1.6-.2-.1.1-.3.2-.4.2-.1 0-.3.1-.4.1-.1.1-.1.1 0 0" opacity=".25"/><path fill="#050505" d="M39.1 33.2c-.1.1-.4 0-.5-.1-.1.2.3.2.5.1" opacity=".79"/><path fill="#FFF" d="M39.7 33.2c-.1-.1-.4 0-.5 0-.2 0-.1-.1-.1-.2-.1-.1-.2-.1-.3 0 .1.1.2 0 .2.2 0 .1-.1.2-.1.3 0 .1 0 .7.2.6v-.4c0-.1.1-.3 0-.4.1 0 .2.1.4.1.1 0 .4-.1.2-.2" opacity=".7"/><path fill="#FFF" d="M40.4 30.5c0 .2 0 .3.1.5 0 .1.1.4.1.5 0-.1-.2-.2-.3-.3h-.1c-.1 0-.1-.1-.2-.1-.2-.1-.5-.2-.7 0-.1.1 0 .2 0 .3v.7c0 .1-.1.2-.1.4.3.1.6-.2.8-.4.1 0 .3-.3.4-.3.1 0 .1.3.1.4 0 .3 0 .5.1.8v.7c0 .1 0 .4.1.5.1.1.3 0 .4 0 .1 0 .3 0 .3-.2 0-.1-.1-.3-.2-.4-.1-.1-.1-.2-.2-.4 0-.1 0-.3-.1-.4V32c0-.3-.1-.5-.1-.8v-.7c0-.2.1-.6 0-.8 0-.1-.1-.1-.1-.2l-.1-.1s-.3-.1-.3 0c0 0 .1 0 .1.1 0 0 .1.1.1.2-.1.3-.2.6-.1.8z" opacity=".52"/><path fill="#FFF" d="M39.5 29.9c.2.1.2.2.2.4 0 .1 0 .3-.2.3-.1 0-.2 0-.2-.1v-.2c.1-.1.1-.5.2-.4" opacity=".52"/><path fill="#050505" d="M38 31.6c.3-.1.7-.2 1-.2h.5c.1 0 .4-.1.5 0 .1.2-.2.2-.3.2h-1.1c-.3.1-.4.1-.6 0" opacity=".25"/><path fill="#FFF" d="M38.1 32c0 .1.1.4-.1.5v-.6c0-.1-.1-.1-.1-.2-.1-.1-.1-.3-.2-.4-.1-.1-.3-.2-.3-.4.2 0 .4.4.5.5.1.1.2.3.2.6" opacity=".7"/><path fill="#050505" d="M46.4 23.4l.3-.2s-.4-1.5-.8-2.2c-.2-.3-.4-.7-.7-1-.1-.2-.3-.3-.3-.4l-.2-.2c-.1-.1-.7-.5-.9-.6 0 0-.1 0-.1-.1-.1 0-.5-.3-.6-.3h-.6s.5.1.7.2c2 .7 3 3.2 3 3.4 0 .4.2 1.4.2 1.4m-1.5.2s-.1-.6-.2-1.1c-.1-.5-.7-1.5-.9-1.8-.2-.2-.4-.4-.8-.6 0 0-.2-.1-.3-.1h-.2c-.3 0-.5.1-.8.2-.3.2-.6.4-.7.5-.3.3-.5 2.4-.5 2.4V29s.1-.1.2 0 0 .3 0 .3.2.2.2.3c0 .1.2 2.2.2 2.2s.1.9.1 1c0 .1.3.4.2.6 0 .2.1.1.1.1v-.4c-.1-.1-.2-.5-.3-.7 0-.2-.2-2.5-.2-2.7 0-.1-.2-.5-.2-.5v-.3l-.2-.3v-5.8s0-1.4.6-2.2c.5-.7 1.1-.8 1.1-.8s1 .1 1.3.4c.3.4.9 1.3.9 1.4 0 .1.2 1.1.3 1.1.1.4.1.9.1.9zM40 29.4l-.1-.3h-.2v.3zm.7-9s-.2.2-.5.7c-.3.5-.3.9-.3 1.2v6.8h.1s-.2-7 0-7.3c.2-.3.7-1.4.7-1.4z" opacity=".79"/><path fill="#FFF" d="M40.5 21.4l-.1 1.3-.1 6.2-.2.1s-.1-6.6.1-6.9c.1-.4.3-.7.3-.7zm4.8 2c0-.1.1-.4-.1-.9s-.4-1.1-.4-1.2c0-.1-.4-.5-.3-.5.1 0 .7 1.3.9 1.7.2.4.2.9.2.9v.4h-.2v-.2l-.2-.2" opacity=".7"/><ellipse cx="34.7" cy="32.4" fill="#050505" rx=".2" ry=".3"/><ellipse cx="34.6" cy="32.4" fill="#B6B2B1" rx=".2" ry=".3"/><ellipse cx="34.6" cy="32.5" fill="#FFF" opacity=".7" rx=".1" ry=".2"/><path fill="#050505" d="M34.8 32c0 .1-.1.2-.2.2-.1-.1.1-.3.2-.2 0-.1 0-.1 0 0" opacity=".36"/><path fill="#FFF" d="M37.7 31.7c-.8-.1-1.5.6-2.4.6.6-.3 1.2-1 1.9-1.3.5-.2 1.7 0 2.1-.4.1-.1 0-.9.4-.5.2.2.1.8-.1 1-.4.5-1.6.6-2.1.8" opacity=".52"/><path fill="#050505" d="M46.1 23.4l-.4.2s-.3-1.8-.6-2.3c-.3-.5-1-1.8-1.4-1.9-.4-.1-1.6-.5-1.9-.4-.7.2-1.5.9-1.8 1.4-.1.1-.3.8-.4 1.7-.1 2.5 0 6.9 0 6.9l-.4-.2s.2-6.8.2-7.1c0-.3.7-2.1 1.1-2.5.4-.4 1.9-.7 2.5-.5.6.2 1.7.7 2.7 2.9.3.6.4 1.8.4 1.8z" opacity=".4"/><path fill="#E6B9B3" d="M61.1 35.2c0-.1-.4-.9-.5-1.5 0-.6.6-3.4.6-3.4s.2-.8 1.6-1.5c1.3-.7 3.9-1 6.2-.9 2.3.1 4 0 5 .6 1 .5 1.9 1 2.1 1.5.2.5.8 3.6.5 4.2-.3.6-.8 1.4-1.6 1.5-.8.1-1.4.3-2.6 0-1.2-.3-2.7-.2-3.7-.2s-2.6.2-3 .3c-.3.1-2 .2-3 0-1.4-.1-1.6-.6-1.6-.6z"/><path fill="#FCFCFC" stroke="#FCFCFC" d="M75.1 34.8c-.8-3.6-5.3-2.7-8-2.4-1.6.1-3-.1-4.4 1-.8.6-1 1.6-1.7.4-.6-1-.1-1.5.7-2.1 2.2-1.7 5.8-2.6 8.5-2 1.6.4 3.2.8 4.6 1.7.8.6 2.9 3.6.7 3.7" opacity=".05"/><path fill="#C9A19D" d="M60.9 34.7s1-.1 2.6 0 4.4 0 5.1 0c.7 0 2.2.1 3.7.1 1.5-.1 2.1.1 2.7 0 .6-.1 1.4-.3 1.4-.3s.3-.5-.1.2c-.4.6-.3 1-1.4 1.1-1.1.1-1.2.3-2.2.1-.9-.2-2.4-.3-3.5-.3s-1.9 0-2.7.2c-.9.2-1 .2-1.2.2-.2 0-1.7.3-2.8-.1-1-.3-1.4-.7-1.4-.7l-.2-.5z" opacity=".28"/><path fill="#FCFCFC" stroke="#FCFCFC" d="M61.7 34.1c.3-.5.7-.8 1.2-1 .2-.1.6-.2.6-.5.1-.3-.1-.5-.3-.4l-.6.6c-.2.2-.5.3-.7.5-.2.1-.5.5-.5.7.1.4.4.2.6-.1" opacity=".24"/><text fill="#B58785" font-family="'Miriam'" font-size="1.239" opacity=".28" transform="matrix(3.3744 0 0 1 64.755 29.953)">soap</text><path fill="#83807F" d="M41.8 34l.1.1s-.5.4-1 .5c-.5.1-.9.1-1.4 0-.4 0-1-.2-1-.2v-.3s1.3.4 1.6.3c.3-.1 1.2-.3 1.3-.3.2 0 .4-.1.4-.1z"/><path fill="#A7A4A4" d="M47.1 23.7l.1.3s-.8.1-1 .2c-.3.1-.5 0-.5 0V24s.7-.3.7-.2c.1-.1.7-.1.7-.1z"/><path fill="#C7C2BF" d="M47.2 23.5s.1.1-.7.2c-.8.1-1 .2-1 .2s-.3-1.4-.5-1.9-.8-1.4-1.2-1.6c-.4-.2-1-.5-1.4-.3-.4.2-.7.3-1.1 1-.5.8-.4 1.2-.4 1.7v6.5s.2 0-.5.2c-.7.1-.9 0-.9 0l-.2-.2c0 .4 0-6.4.1-7.3.1-.5.6-1.7 1.1-2.4.5-.7 2-1.1 2.6-1 1 .1 2.2.9 2.8 1.9 0 0 .7 1.1.9 1.5.2.6.3 1 .3 1l.2.5h-.1z"/><path fill="#A7A4A4" d="M41 29.7s-.2.1-.6.1h-1c-.1 0-.1 0-.2-.1s0-.2 0-.3c0-.1.1-.1.1-.1s.1.1.3.1h1c.2 0 .2-.1.2-.1s.1 0 .2.1v.3c0-.1 0 0 0 0z"/><path fill="#050505" d="M41.9 34.2s-.8.4-1.1.4c-.3 0-1 .1-1.5 0-.4 0-.7-.1-.8-.2v-.2s0-.2-.1 0-.2.2 0 .3c.2.1 1 .3 1.6.3.5 0 1-.1 1.3-.1l.6-.2s.2-.1 0-.3z" opacity=".49"/><path fill="#C7C2BF" d="M37.2 31.2s.6.4.7.8c.1.4.2.8.1 1.1-.1.3-.1.4-.3.5-.2.1-.4 0-.4 0l-.1-.1.2.1 1.3-.2s-.1 0-.1.2-.1.3-.1.3l.1.2s.4.2.8.2h1.5c.3 0 .8-.3.8-.3l.2-.1s.1-.2 0-.3c-.1-.1-.2-.3-.3-.5-.1-.1-.2-2-.2-2l-.1-1.1s0-.3-.1-.4l-.2-.2s-.5.1-.8.1h-.8l-.2-.1s-.1 0-.2.2c0 0-.1.2-.1.3v.7s.1 0 0 .1c-.2.3-.7.3-.9.3-.2.1-.8.2-.8.2zm-1.9-2.1V29s-.1-.1-.2-.1v-.2s.1-.2 0-.3c-.1-.1-.2-.1-.3-.1-.1 0-.2.2-.2.2v.2l.1.2-.1.1h-.1v.1h.8zm.1 3.2s-.1.1-.2.1h-.6v-1c0-.2-.1-.7-.2-.8-.1-.1-.1-.6-.1-.8 0-.2.1-.4.1-.5 0-.1.1-.2.1-.2h.7s.2.3.2.5 0 .3-.1.6-.2.7-.2.8v1c.2.1.3.3.3.3z"/><path fill="none" d="M34.9 28.4s-.1.1 0 0c-.1.1-.1.4-.1.4h.1v-.4z"/><path fill="#050505" d="M34.9 29.4s0 .3.1.6v2.5h-.1v-2s-.1-.3 0-.4c-.1-.2-.1-.7 0-.7zm.1-.8c0-.1-.1-.2-.1 0 0 .1 0 .3.1.4v-.4" opacity=".79"/><path fill="#050505" d="M34.6 32.5s.1-.9.1-1c0-.1 0-.4-.1-.5 0-.1-.1-1-.1-1.1 0-.1.1-.3.1-.4 0-.1.1-.2.1-.2l.1-.1h-.3s-.2.3-.2.5 0 .6.1.7c0 .2.2.5.2.8v1.3zm.7-3.4c-.1 0 .1.5.1.7 0 .2-.1.9-.2 1v1.4c0 .1.1.2.1.2h.1s-.1-.9-.1-1c0-.2.1-.5.1-.6 0-.1.1-.7.1-.8 0-.1 0-.4-.1-.5 0-.1-.1-.4-.1-.4z" opacity=".28"/><path fill="none" d="M35.7 33c0 .2-.7.3-.9.2 0 0 .1 0 .1.1s0 .1.1.1c0 0 .1-.1.2-.1h.1c.2 0 .4-.1.4-.3"/><path fill="none" d="M35.5 33.2c-.1 0-.2.1-.2.2H35c-.2 0-.3 0-.5-.1.3.3 1 .3 1-.1"/><path fill="#B6B2B1" d="M37.2 31.2s-.4.1-.5.2c-.1 0-.3.4-.4.5-.1.1-.4.2-.4.2l-.1.2h-.3s-.8 0-.9.2l-.2.4c0 .1.1.3.4.5.3.1.3.2.5.1.2 0 .4-.2.5-.3h.3s.1.1.2.1h.2l.4.1s.1.1.2.1h.5c.1 0 .4.1.4 0 .1-.1.2-.2.2-.4v-.5c0-.1-.1-.4-.1-.7-.1-.3-.2-.3-.4-.5l-.5-.2z"/><path fill="#050505" d="M37.6 32c-.1.1-.3.1-.4.2-.1 0-.3.1-.4.1-.1 0-.3 0-.4.1-.1 0-.3.1-.4.1.1.1.4 0 .5 0 .2 0 .3-.1.5-.1.2-.1.3-.1.5-.2l.2-.1c.1-.1-.1-.1-.1-.1m.3.8c-.1.1-.1.2-.2.2-.1.1-.2.1-.3.1h-1.1c-.2 0-.3-.1-.5-.1.1.1.2.1.3.1.1 0 .2 0 .3.1.2 0 .4 0 .6.1h.3c.1 0 .2 0 .3-.1l.2-.2c.1-.1.2-.2.1-.2" opacity=".79"/><path fill="#FFF" d="M35.4 32.7c0 .1-.2.2-.3.2h-.4c-.1 0-.3 0-.3.1s.3.1.3.1c.2.1.5.1.7 0 .1 0 .3-.1.2-.2 0-.1-.2-.3-.2-.2m.5-.6c.1 0 .2.1.3.2.1.1.2.2.2.3 0-.1 0-.2-.1-.3-.1-.1-.3-.3-.4-.2 0-.1 0-.1 0 0m-.4.2c.1.1.2.2.2.4 0-.1 0-.1-.1-.2 0-.1-.2-.1-.1-.2 0 0 0 .1 0 0" opacity=".7"/><path fill="#050505" d="M36.4 32.6v.4c-.1 0-.1-.2-.1-.2 0-.1 0-.2.1-.2m-.5-.6c.2 0 .4.3.4.5.1-.1-.2-.5-.4-.5m1.1-.8c.2 0 .4.2.5.4.1.1.3.4.3.5.1.4.2 1.1-.3 1.3-.1 0-.1.1-.2.1h-.2c.3.2.6 0 .7-.3 0-.1.1-.2.1-.4v-.4c0-.1 0-.3-.1-.4 0-.1-.1-.3-.2-.4 0-.1-.1-.1-.1-.2-.1-.1-.1-.1-.2-.1 0 0-.1-.1-.3-.1" opacity=".79"/><path fill="#050505" d="M39 31.1l.1.1c0-.1-.1-.2 0-.2s.2.1.2.2c-.2.1-.5.2-.8.3-.3.1-.6.1-.8.1-.1-.1.5-.2.6-.2.3-.1.6-.2.7-.3" opacity=".28"/><path fill="#050505" d="M40.2 30.2v1.3l-.2-.1s-.2 0-.2-.1l-.1-.1.3.1v-1h.2z" opacity=".49"/><path fill="#050505" d="M40.3 33v1.9H40l-.1-.3v-1l.4-.6zm-1.5.6s-.2.1-.2.2v.7l-.1.1-.1-.1.1-.2v-.2l.1-.5.2-.1v.1z" opacity=".79"/><path fill="none" d="M39.2 29.8s-.2.2-.2.3c0 .1-.1.8-.1.8h-.1s0-.7.1-.8c0-.2.2-.4.3-.3z"/><path fill="#050505" d="M42 34.3s0 .2-.1.2c-.1.1-.4.2-.4.2s-.2-.4-.3-.7c0-.3-.2-.6-.2-.9 0-.3.1-1.6 0-2-.1-.3.1-1-.1-1.1-.2-.1-.3-.2-.3-.3l.4-.1s.2.1.2.4c0 .2.1 1.7.1 1.8 0 .2.1 1 .1 1v.3c0 .1.2.3.3.4.1.1.1.4.1.4l.2.4z" opacity=".49"/><path fill="none" d="M39.5 30.3v.4c0 .1-.1.4-.3.2.3 0 .1-.7.3-.8.1.1.1.2 0 .2"/><path fill="#050505" d="M40.3 29.9c.3.1.3.7.2 1 0 .4 0 .6.2 1-.1 0-.3-.2-.4-.3-.1-.1-.3-.2-.5-.2-.2-.1-.3-.3-.5-.4-.1-.1-.4-.1-.4-.2.1-.2.6.1.7.2.2.2.4.4.7.3v-1.2c-.1 0-.5 0-.3-.2.1-.1.4-.1.5 0" opacity=".79"/><path fill="#050505" d="M39.5 29.8c-.1-.1-.3-.1-.3 0 0 0 0 .1-.1.2 0 .1-.1.1-.1.2 0 .2-.2.5.1.6.1.1.3.1.3 0v-.3c.1-.2.3-.5.1-.7z" opacity=".49"/><path fill="#050505" d="M37.3 31.3c.3 0 .6-.1.9-.2.1 0 .3-.1.4-.1h.2c.1-.1 0-.1-.1 0-.3.1-.6.1-.9.2h-.5c-.1 0-.2.1 0 .1" opacity=".79"/><path fill="#050505" d="M39.4 33.3s.1-.1 0 0c-.1-.1-.4 0-.6-.1 0-.1.5-.2.6-.2h.3c.1.1-.2.1-.2.3.2-.1.4-.1.6-.2-.1.1-.3.2-.5.2s-.3.1-.5.1c.2 0 .3 0 .3-.1" opacity=".25"/><path fill="#050505" d="M39.2 33.8c-.1.1-.4 0-.5-.1-.1.2.4.2.5.1" opacity=".79"/><path fill="#FFF" d="M39.9 33.7c-.1-.1-.5 0-.6 0-.2 0-.1-.1-.2-.2s-.3-.1-.3 0c.1.1.2 0 .2.2 0 .1-.1.2-.1.3 0 .1 0 .7.3.6v-.4c0-.1.1-.3 0-.5.1 0 .3.1.4.1.2.2.5.1.3-.1" opacity=".7"/><path fill="#FFF" d="M40.6 31c0 .2.1.3.1.5 0 .1.1.4.1.5 0-.1-.2-.2-.3-.3h-.2c-.1 0-.1-.1-.2-.2-.2-.1-.5-.2-.7 0-.1.1 0 .2 0 .3v.4c0 .1 0 .1-.1.2v.2c0 .1-.1.2-.1.4.3.1.6-.2.8-.4.1 0 .3-.3.4-.3.1 0 .1.3.1.4 0 .3.1.5.1.8v.7c0 .1 0 .4.1.5.1.1.3 0 .4 0 .1 0 .3 0 .3-.2 0-.1-.1-.3-.2-.4-.1-.1-.2-.3-.2-.4 0-.1 0-.3-.1-.4-.1-.3 0-.6 0-.9 0-.3-.1-.5-.1-.8v-.8c0-.2.1-.6 0-.8 0-.1-.1-.1-.2-.2l-.1-.1c-.1 0-.3-.1-.3 0l.1.1s.1.1.1.2c.2.4.1.7.2 1z" opacity=".52"/><path fill="#FFF" d="M39.7 30.3c.2.1.2.2.2.4 0 .1 0 .3-.2.3-.1 0-.2 0-.2-.1s0-.1.1-.2c0-.1 0-.4.1-.4" opacity=".52"/><path fill="#050505" d="M38.1 32.1c.3-.1.7-.2 1-.2h.5c.1 0 .4-.1.5 0 .2.2-.2.2-.3.2h-1.2c-.2.2-.3.1-.5 0" opacity=".25"/><path fill="#FFF" d="M38.2 32.5c0 .1.1.4-.1.5-.1-.1-.1-.2-.1-.4v-.2c0-.1-.1-.2-.2-.2-.1-.1-.1-.3-.2-.4-.1-.1-.3-.2-.3-.4.2 0 .4.4.5.5.2.1.4.3.4.6" opacity=".7"/><path fill="#050505" d="M47.1 23.7l.3-.2s-.5-1.6-.9-2.3c-.2-.3-.5-.7-.7-1-.1-.2-.3-.3-.4-.5l-.2-.2c-.1-.1-.7-.5-.9-.6 0 0-.1 0-.1-.1-.1 0-.6-.3-.7-.3h-.6s.5.1.7.2c2.2.8 3.2 3.3 3.2 3.6 0 .3.2 1.3.3 1.4m-1.7.2l-.2-1.2c-.1-.5-.7-1.6-.9-1.8-.2-.2-.4-.4-.8-.6-.1-.1-.3-.1-.5-.2h-.2c-.3 0-.6.1-.9.2-.4.2-.7.4-.8.5-.3.3-.6 2.4-.6 2.4v6.1s.1-.1.2 0 0 .3 0 .3.3.3.3.4c0 .1.2 2.3.2 2.3s.1.9.1 1c0 .1.3.4.3.6 0 .2.1.1.1.1s0-.3-.1-.4c-.1-.1-.3-.5-.3-.7 0-.2-.2-2.6-.2-2.7 0-.1-.2-.5-.2-.5v-.3l-.2-.3v-5.9s0-1.5.6-2.2c.6-.7 1.2-.8 1.2-.8s1 .1 1.4.5c.3.4 1 1.4 1 1.5 0 .1.2 1.1.3 1.2.2-.1.2.5.2.5zm-5.2 5.9l-.1-.2h-.2v.2z" opacity=".79"/><path fill="#050505" d="M40.9 20.6s-.2.2-.5.7c-.3.5-.3.9-.3 1.2v7h.1s-.2-7.2 0-7.5c.2-.3.7-1.4.7-1.4z" opacity=".79"/><path fill="#FFF" d="M40.7 21.6l-.1 1.3-.1 6.4-.2.2s-.1-6.8.1-7.2c.1-.4.3-.7.3-.7zm5.1 2.1c0-.1.1-.4-.1-.9s-.4-1.1-.5-1.2c0-.1-.4-.6-.3-.5.1 0 .8 1.4 1 1.7.2.4.3.9.3.9v.4H46v-.2l-.2-.2" opacity=".7"/><ellipse cx="34.5" cy="33" fill="#050505" rx=".2" ry=".3"/><ellipse cx="34.4" cy="33" fill="#B6B2B1" rx=".2" ry=".3"/><ellipse cx="34.4" cy="33" fill="#FFF" opacity=".7" rx=".1" ry=".2"/><path fill="#050505" d="M34.6 32.5c0 .1-.1.2-.2.2-.1-.1.1-.3.2-.2 0-.1 0-.1 0 0" opacity=".36"/><path fill="#FFF" d="M37.7 32.2c-.9-.1-1.7.6-2.5.6.7-.4 1.3-1 2-1.3.6-.2 1.8 0 2.2-.5.2-.1 0-.9.5-.5.2.2.1.9-.1 1-.4.5-1.7.7-2.3.8" opacity=".52"/><path fill="#050505" d="M46.7 23.6l-.4.2s-.3-1.9-.6-2.4-1.1-1.9-1.5-2c-.4-.1-1.7-.5-2-.4-.8.2-1.6.9-1.9 1.4-.1.1-.3.9-.4 1.8-.1 2.6 0 7.1 0 7.1l-.4-.2s.2-7 .2-7.3c0-.3.8-2.1 1.2-2.6.4-.4 2-.8 2.7-.6.6.2 1.9.7 2.9 3 .1.8.2 2 .2 2z" opacity=".4"/></g></switch></svg>
