<svg xmlns="http://www.w3.org/2000/svg" version="1.0" viewBox="0 0 220 129"><switch><g><linearGradient id="a" x2="220.72" y1="64.75" y2="64.75" gradientUnits="userSpaceOnUse"><stop offset="0" stop-color="#aadee8"/><stop offset="1" stop-color="#4dbc93"/></linearGradient><path fill="url(#a)" d="M0 0h220.7v129.5H0z"/><path fill="#FF701F" d="M28.2 7.4c-1.1-.1-2.5 0-4 .2-8.3 1.2-12.8 6.6-13.7 12.3h.2c1.9-2.2 5.1-4 9.5-4 7 0 11.9 4.4 11.9 11.2 0 6.3-4.9 12.2-13.1 12.2-8.4 0-13.9-5.8-13.9-14.8 0-6.8 2.8-12.2 6.7-15.6 3.3-2.8 7.6-4.6 12.6-5.1 1.6-.2 2.9-.3 3.9-.3v3.9zm-1.5 20c0-5-3.2-7.9-8.1-7.9-3.2 0-6.2 1.8-7.6 4.3-.4.5-.6 1.2-.6 2.1.1 5.7 3.1 9.9 8.6 9.9 4.6-.1 7.7-3.4 7.7-8.4z"/><path fill="#8AA007" d="M42.9 103.2s-17.7 1.2-17.8 1.5c-.1.3 0 1.3 0 1.3l.6.4s-11.1-1-14.1-.3c-3.1.7-6.5 2.1-5.9 4.1.4 1.3 2.5 2.9 3.9 3.1 1.2.2-.1.3.8.8.6.3.5-.2 1 .5.4.5 1.5.8 2.1 1 .9.3 1.8.6 2.7.7 4.1.7 5.9 1.2 14.7 1.5 8.8.3 16.3-.7 19.3-1.2 0 0 3.1-.6 5.7-1.2s3.9-1.1 5.6-1.6c1.7-.4 2.9-.9 3.2-1.1.4-.2.4-.1.4-.8-.1-.7-2.9-3.6-4-4.4-1.1-.8-7.1-2.1-7.5-2.4-.4-.3-1.9-.6-3.5-.9-1.6-.3-3.2-.6-3.7-.6-.4-.1-1.6-.2-2.4-.2h-.4"/><path fill="#B1E00A" d="M21.5 106.7s-1.1-.1-1.8 0c-.5.1-.7.3-1 .6-.1.1-.1.3-.2.5-.3.7.2.6 1.2 1s1.2-.6 1.8-.9c.7-.3 2.9-1.3 2.9-1.3l.3-1.8-.6-9.8s1.3 2.3 1.5 2.9c.2.6 1.3 2.3 1.3 2.3l.2-2.2s.8-1.1.5-1.6c-.3-.5.2-.8.3-1.2.1-.5.8-1 .8-1s-5.3-3.5-6-3c-.7.5-.9 4.6-.7 6.7.2 2.1 1 5.2 1 5.2l-.1 2.2s-1 .7-1.3.7c-.3 0-2.7.2-3.2 0s-1.3-.2-1.6-.2c-.3 0-.7-.2-1.1-.1-.4.1-1.1.9-1.1.9l1.4.2s-.3.3.3.5 1.5 0 1.5 0l3.7-.6z"/><path fill="#0A0A0A" stroke="#0A0A0A" stroke-width="1.782" d="M26.9 111.4c-.6.2-1 .7-1.5 1.1-.6.4-1.2.6-1.8.9-1.3.7-2.7 1.4-3.9 2.3-1.4 1-.6 2 .6 2.6.7.3 1 .4 1.7.3.5 0 1.1-.1 1.5.1.1 1.2-.9 2.4-.6 3.6.1.7.9.6 1.5.3.3-.2.5-.6.7-.8.3-.4.7-.5 1-.8.5-.6.7-1.1 1.6-1.3.7-.1 1.2.4 1.4 1.1.1.5-.1 1.2-.2 1.7-.1.6-.2 1.2-.4 1.8-.5 1.4-.6 2.5 1.1 3 1.2.4 2.5.3 3.4-.6.5-.4.7-1.1 1.4-1.2.2 0 .7.2.8.3.4.3.3.7.5 1 .7.8 2.7.6 3.5.1 1-.5 1.4-1.5 1.5-2.5 0-.3.2-.9.1-1.2-.1-.6-.5-.8-.6-1.4-.1-.5.1-.8.3-1.3.2-.4 0-1 .1-1.4.3-.6 2-.8 2.5-.6-.3.6 0 1 .6.8 0 .3-.3 1.1-.5 1.3-.2.2-.6.2-.6.5-.1.3.3.5.4.7.2.6-.1.9.6 1.2.3.1 1 .4 1.4.4.8-.1.7-1.7.9-2.4.1-.7.7-2 .4-2.8-.1-.2-.4-.3-.4-.5-.1-.2 0-.5 0-.7-.1-.4-.6-1.1-.5-1.4 0-.1.6-.3.7-.5.1-.2.2-.5.3-.7.1-.4.3-.9.2-1.4l-.3-2.7c-.1-1.2-1.2-1.1-2.2-1.2.2.9-.1 2.1-.1 3 0 .4.4 3.5-.5 2.8-.2-.1-.4-1.3-.4-1.5 0-.6.3-1 .2-1.6-.1-.6-.3-1-.6-1.5-.2-.4-.4-.4-.7-.7-.1-.1-.5-.6-.6-.6-.8-.3-2.1 2.7-2.5.6 0-.3.2-.4.1-.7 0-.1-.7-.2-.8-.2-.6-.1-1.2.1-1.8.1-1.1.1-1.8-.2-2.9-.1-.6 0-3.3-.4-3.6-.8-.1.6 1 2.1-1.1 2.5-.4.1-.5-.4-.9-.3-.3.1-.6.7-.7 1" opacity=".11"/><path fill="#98BE29" d="M36.8 110.7c-.6.8-.5 2.8-.6 3.8-.1.9-.6 2.7.1 3.5 1.5-.5 1.4-3.5 1.7-4.7.2-.8.5-1.6.5-2.4 0-.6-.1-.7-.6-.8-.4 0-.8.1-1.1.6m10.1 1.1c.5.4 1.2.8 1.6 1.4.3.5.5 1.2.9 1.7.2.3.6.5.8.7.1.1.5.6.6.7.2.1 1.4-.3 1.6-.4-.2-.5-.8-.7-1.1-1.2-.3-.5-.6-1.1-.9-1.5-.4-.5-.8-1.1-1.3-1.5-.5-.4-1.1-.6-1.6-.9-.4-.3-.9-1.2-1.3-1.3-.6-.2-1.1.5-1 .9.1 1 1.5 2.3 2.5 2.2m.9-3.2c.9.1 2.1.4 3 .7 1 .3 2 .4 3 .7 1.2.4 2.4 1 3.6 1.5.8.3 2.3.8 2.5 1.6-.4.5-1 .7-1.5.4-.5-.4-.9-1-1.6-1.3-1.2-.7-2.5-1.2-3.8-1.7-1.1-.5-2.2-1-3.4-1.3-1-.3-2.7.2-3.2-.8.4-.2 1.1.4 1.6.4m14 0c-.9.1-1.9-.4-2.8-.4-1 0-2-.1-2.9-.1-1.5-.1-3 .4-4.4.3-1-.1-2.5.1-3.4-.5.5-.4.8-.3 1.3-.3.3 0 .4.1.7.1.3 0 .7-.1 1-.1 1.1 0 2.2.1 3.3-.1 1.1-.2 2.3-.2 3.4 0 .8.1 1.6.3 2.4.3.3 0 .7-.2 1 0 .1 0 .5.8.4.8zm-41.8-.5c-.4 0-1 .7-1.4.9-.5.3-.9.6-1.4.9-1 .7-2.1 1.2-3.2 1.7-.8.4-2 .4-2.8 1-.6.6-.3.8-1.1.5-.4-.1-1.4-.2-1-.9.3-.4 1-.2 1.4-.2.6-.1.9-.3 1.4-.6.9-.6 1.9-1.1 2.9-1.4 1-.3 2-.9 3-1.4.2-.1.5-.1.7-.2.2-.1.4-.5.6-.6.8-.4.7.4.3.9"/><path fill="#BEEF0C" d="M41.9 102s-.1-2.7-.4-3.7c-.2-1-6-3.1-7.4-3.2-1.5-.1-6.4.9-6.8 1.4-.4.5-.7 3.4-.6 3.9.1.5.1 2 .1 2h7.3c1 0 4.3.6 4.7.8.3.2 3.1-1.2 3.1-1.2z"/><path fill="#BBE50A" d="M26.7 102.9c.1-.3-.6-2 5.2-1.9 5.9.1 7.9-.2 8.5.5.6.6 1.3 1.4 1 2.5-.3 1.2-1.2 3.5-2 3.7-.8.3-2.2.9-4.6 1-1.4.1-4.7 0-5.9-1-.6-.5-1.6-1.3-1.8-1.8-.2-.5-.3-1.6-.4-2-.2-.3 0-1 0-1z"/><path fill="#AFDD07" d="M16.3 106.3c0 .4-.4.7-1 .7-.5 0-1-.3-1-.7 0-.4.4-.7 1-.7.5 0 1 .3 1 .7z"/><ellipse cx="17.3" cy="107" fill="#AFDD07" rx="1" ry=".7"/><path fill="#AFDD07" d="M20.5 107.7c0 .6-.6 1.1-1.3 1.1-.7 0-1.3-.5-1.3-1.1 0-.6.6-1.1 1.3-1.1.7.1 1.3.5 1.3 1.1z"/><path fill="#B1E00A" d="M26.6 102.3s-1.3.1-1.2 1.6c.1 1.5.6 2.5.9 2.8.3.3.8 1 .8 1s-.4.4-.4.3c-.1-.1-2.3.4-2.7.4-.4 0-1.3.3-1.7.5-.3.1-.7.3-.6.5.1.2.7.3 1.2.3s1.2-.4 1.2-.4l.8-.2s.1.1 0 .3c-.1.2-.7.5-.2.7.5.2 1.7 0 1.7 0l.3-.7s.6-.6.9-.3c.2.2.7.9.6 1.1-.1.2.4.6.9.3s1.1-.5.7-.9c-.4-.4-1.5-1.2-1.6-1.3-.1-.1-.1-1.2-.1-1.2s-1-1.9-1.1-2.3c-.1-.4-.2-1.7-.2-1.7l-.2-.8zm13.7 4.7v1.2l-.6.6s-1 .5-1 .8c0 .3.6 1 .8.9.2-.1.6-.4.8-.5.2-.1.4-.6.4-.6s.6-.3.7-.2c.1.1-.1.6.4.8.5.2.8.2 1.3.1s.9-.2.9-.5-.4-.6-.4-.6.6.4 1 .5c.4 0 .9.2 1.1.1.3-.1 1-.2.8-.6-.1-.4-.6-.8-1-.9-.4-.1-1.8-.2-2-.3-.2 0-1-.1-1.3-.1-.2 0-.7.3-.8 0-.1-.3.3-.3.4-.7.1-.4.6-1 .8-1.4.2-.4.6-1.9.3-2.1-.3-.2-1-1.3-1.1-1.4 0-.1-.8.2-.8.2s.4 1.5.3 1.8c-.1.3-.9 2-.9 2l-.1.9z"/><path fill="#B1E00A" d="M40.6 94.6s3.8-3.4 4.8-2.9 1.4 4.3 1 6.4c-.4 2.1-1.1 7-.9 7.5.3.5 1.1 1.5 2.1 1.4 1-.1 2.5-.3 2.5-.3s1.5-.1 1.8-.4c.4-.3 1-.4 1.1 0 .1.3.6.2.4.7-.2.5-.1 1-.6.8-.4-.2-.9-.5-.9-.5s.2.3.2.5c0 .3-.2.6-.6.7-.4.1-1 .1-1.3 0-.3-.1-.3-.8-.3-.8h-.7s0 .1.1.5c.1.3.1.7-.3.7s-.9 0-1.3-.1-.5-.5-.5-.5l-1.3.1-2.1-.6.3-11.8s-2.2 4.2-2.7 4.3c-.4.1-.3-1.7-.4-2.2-.1-.4.3-.8.3-.8l-.3-1.2c.1-.4-.4-1.5-.4-1.5z"/><path fill="#FCFCFC" d="M33.3 96.7s-.5 1.1-.8 1.2c-.3.1-2.4-.1-2.6 0-.3.1-1.6.5-1.8 0-.2-.5-.8-.9-.8-.9v-.3s2.4-.2 2.9-.2 2 .2 2.4 0c.3-.2.7.2.7.2z"/><path fill="#ACD80B" d="M32.4 97.8s-1.7.9-2.3 1.4c-.6.4-1.3.4-1.6.3-.3-.1-1.3-1.4-1.3-1.4v-.8s.8-.6.8 0 .8.9 1.3.7c.5-.2 1.9-.2 1.9-.2h1.2zm3.6 0l4.7-.5.8.1s-.3.5-.4.7c-.1.2-1 1.1-1 1.1s-.8.4-1.7.3c-.8-.1-3.3-1.8-3.3-1.8"/><path fill="#FCFCFC" d="M27.2 96.5l.1 1.2c0 .1 1.7.6 2.7.5 1-.1 1.9 0 1.9 0s1.1-.4 1.3-1.3c.1-.3-.4-.9-.4-.9s-3.5-.2-3.8-.2c-.3 0-1.4.2-1.7.2-.2-.1-.2.4-.2.4"/><path fill="#ACD80B" d="M27.1 96.3s1-3.1 3.3-2.9c2.3.1 2.9 1.7 2.9 2.2v.8l-6 .4-.2-.5z"/><path fill="#FCFCFC" d="M41.1 96.7s.4.8-.1 1c-.6.2-1.7.1-2.2.2-.5.1-2.2.2-2.4.2-.1 0-1-.1-1.2-.3-.2-.3-.3-.5-.3-.8 0-.3 1.4-1.2 2-1.1.6.1 2.1-.1 2.5 0 .4.1 1.7.8 1.7.8z"/><path fill="#ACD80B" d="M34.9 96.9s0-1.6.6-2.2c.6-.6 1.7-1.3 2.7-1.1 1.1.2 2.4 1 2.5 1.3.1.3.7 1.5.7 1.5l-6.5.5z"/><circle cx="38.3" cy="97.3" r=".4" fill="#677F03"/><path fill="#9DC105" d="M26.5 95.3c0 .3-.3.6-.6.6s-.6-.3-.6-.6.3-.6.6-.6c.3-.1.6.2.6.6zm-.5-1.5c0 .2-.1.3-.3.3-.2 0-.3-.1-.3-.3 0-.2.1-.3.3-.3.2 0 .3.1.3.3z"/><circle cx="26.7" cy="94.1" r=".3" fill="#9DC105"/><path fill="none" stroke="#9DC609" stroke-width="1.825" d="M24.1 95.2c.1-.5 0-1.1-.2-1.6m-5.3 13.3c.7-.7 2.1.1 3-.2m-4.4-.4c.4-.5 1.2 0 1.7 0m30.4 1.3c-.3-.9-2.1-.6-2.2.4m3.4-1.2c.5 0 1.3-.2 1.7.2"/><path fill="#0A0A0A" stroke="#0A0A0A" stroke-width="1.782" d="M26.4 99c.1-.8-1.3-4.3-2.2-4.2-1.2.1-.3 3.4-.3 4.1 0 1.4.4 2.9.3 4.3-.1 1.5.3 3.2-1.1 4.2-.6.4-1.5.6-2.1.9-.2.1-1 .2-1.1.4-.5.6.3.4.7.3.7-.2 1.5-.8 2.1-1.2.6-.4 1.4-.7 1.7-1.2.3-.5.4-1.5.3-2.1-.1-.8-.1-1.4-.2-2.2 0-.7-.1-1.4-.1-2.1-.1-.8-.1-1.4-.1-2.3 0-.7.4-1.5.1-2.2 1 1 1.6 2.6 2.3 3.7.1-.1-.3-.2-.3-.3M41.3 98c.1.7.3 1.4.4 2 1-1.1 1.5-3.7 2.5-4.8.9.2-.2 5.6-.2 6.5 0 .5 0 1 .1 1.5v1.3c0 .8-.4 2.9 0 3.4.7.8 2.2-.2 3.1.2-.1-1.2-2.4.6-2.7-1.1-.2-1.1.2-1.6.2-3.3 0-1.2-.2-2.8-.1-4.1.1-1.4 0-2.4-.5-3.7-.9.1-1.1.6-1.3 1.2-.3.7-.8 1.3-1.2 1.9 0-.4-.3-.8-.5-1.1" opacity=".11"/><path fill="none" stroke="#9DC609" stroke-width="1.825" d="M44.7 93.8c0 .1-.3.5-.4.7-.1.3-.1.6-.2.9"/><path fill="#ACD80B" d="M27.2 97.8c.1 1.2 1.3 1.8 2.3 1.6 1.1-.2 2.8-.2 3.1-1.6-.8 0-2 .4-2.9.4-.7.1-1.6 0-2.5-.4m8.3.2c.8.9 2 1.4 3.2 1.4.5 0 1.1-.1 1.6-.4.4-.3 1.2-1 1-1.5-.2 0-.4.3-.7.4-.2.1-.5.1-.7.1-.5.1-1 .1-1.5.1H37c-.4 0-1 .1-1.5-.1"/><circle cx="30.2" cy="97.1" r=".4" fill="#677F03"/><path fill="#8AA007" d="M179.9 103.2s-17.7 1.2-17.8 1.5c-.1.3 0 1.3 0 1.3l.6.4s-11.1-1-14.1-.3c-3.1.7-6.5 2.1-5.9 4.1.4 1.3 2.5 2.9 3.9 3.1 1.2.2-.1.3.8.8.6.3.5-.2 1 .5.4.5 1.5.8 2.1 1 .9.3 1.8.6 2.7.7 4.1.7 5.9 1.2 14.7 1.5 8.8.3 16.3-.7 19.3-1.2 0 0 3.1-.6 5.7-1.2s3.9-1.1 5.6-1.6c1.7-.4 2.9-.9 3.2-1.1.4-.2.4-.1.4-.8-.1-.7-2.9-3.6-4-4.4-1.1-.8-7.1-2.1-7.5-2.4-.4-.3-1.9-.6-3.5-.9-1.6-.3-3.2-.6-3.7-.6-.4-.1-1.6-.2-2.4-.2h-.4"/><path fill="#B1E00A" d="M158.5 106.7s-1.1-.1-1.8 0c-.5.1-.7.3-1 .6-.1.1-.1.3-.2.5-.3.7.2.6 1.2 1s1.2-.6 1.8-.9c.7-.3 2.9-1.3 2.9-1.3l.3-1.8-.6-9.8s1.3 2.3 1.5 2.9c.2.6 1.3 2.3 1.3 2.3l.2-2.2s.8-1.1.5-1.6c-.3-.5.2-.8.3-1.2.1-.5.8-1 .8-1s-5.3-3.5-6-3c-.7.5-.9 4.6-.7 6.7.2 2.1 1 5.2 1 5.2l-.1 2.2s-1 .7-1.3.7c-.3 0-2.7.2-3.2 0s-1.3-.2-1.6-.2c-.3 0-.7-.2-1.1-.1-.4.1-1.1.9-1.1.9l1.4.2s-.3.3.3.5 1.5 0 1.5 0l3.7-.6z"/><path fill="#0A0A0A" stroke="#0A0A0A" stroke-width="1.782" d="M163.9 111.4c-.6.2-1 .7-1.5 1.1-.6.4-1.2.6-1.8.9-1.3.7-2.7 1.4-3.9 2.3-1.4 1-.6 2 .6 2.6.7.3 1 .4 1.7.3.5 0 1.1-.1 1.5.1.1 1.2-.9 2.4-.6 3.6.1.7.9.6 1.5.3.3-.2.5-.6.7-.8.3-.4.7-.5 1-.8.5-.6.7-1.1 1.6-1.3.7-.1 1.2.4 1.4 1.1.1.5-.1 1.2-.2 1.7-.1.6-.2 1.2-.4 1.8-.5 1.4-.6 2.5 1.1 3 1.2.4 2.5.3 3.4-.6.5-.4.7-1.1 1.4-1.2.2 0 .7.2.8.3.4.3.3.7.5 1 .7.8 2.7.6 3.5.1 1-.5 1.4-1.5 1.5-2.5 0-.3.2-.9.1-1.2-.1-.6-.5-.8-.6-1.4-.1-.5.1-.8.3-1.3.2-.4 0-1 .1-1.4.3-.6 2-.8 2.5-.6-.3.6 0 1 .6.8 0 .3-.3 1.1-.5 1.3-.2.2-.6.2-.6.5-.1.3.3.5.4.7.2.6-.1.9.6 1.2.3.1 1 .4 1.4.4.8-.1.7-1.7.9-2.4.1-.7.7-2 .4-2.8-.1-.2-.4-.3-.4-.5-.1-.2 0-.5 0-.7-.1-.4-.6-1.1-.5-1.4 0-.1.6-.3.7-.5.1-.2.2-.5.3-.7.1-.4.3-.9.2-1.4l-.3-2.7c-.1-1.2-1.2-1.1-2.2-1.2.2.9-.1 2.1-.1 3 0 .4.4 3.5-.5 2.8-.2-.1-.4-1.3-.4-1.5 0-.6.3-1 .2-1.6-.1-.6-.3-1-.6-1.5-.2-.4-.4-.4-.7-.7-.1-.1-.5-.6-.6-.6-.8-.3-2.1 2.7-2.5.6 0-.3.2-.4.1-.7 0-.1-.7-.2-.8-.2-.6-.1-1.2.1-1.8.1-1.1.1-1.8-.2-2.9-.1-.6 0-3.3-.4-3.6-.8-.1.6 1 2.1-1.1 2.4-.4.1-.5-.4-.9-.3-.3.1-.6.7-.7 1" opacity=".11"/><path fill="#98BE29" d="M173.8 110.7c-.6.8-.5 2.8-.6 3.8-.1.9-.6 2.7.1 3.5 1.5-.5 1.4-3.5 1.7-4.7.2-.8.5-1.6.5-2.4 0-.6-.1-.7-.6-.8-.4 0-.8.1-1.1.6m10.1 1.1c.5.4 1.2.8 1.6 1.4.3.5.5 1.2.9 1.7.2.3.6.5.8.7.1.1.5.6.6.7.2.1 1.4-.3 1.6-.4-.2-.5-.8-.7-1.1-1.2-.3-.5-.6-1.1-.9-1.5-.4-.5-.8-1.1-1.3-1.5-.5-.4-1.1-.6-1.6-.9-.4-.3-.9-1.2-1.3-1.3-.6-.2-1.1.5-1 .9.1 1 1.5 2.3 2.5 2.2m.9-3.2c.9.1 2.1.4 3 .7 1 .3 2 .4 3 .7 1.2.4 2.4 1 3.6 1.5.8.3 2.3.8 2.5 1.6-.4.5-1 .7-1.5.4-.5-.4-.9-1-1.6-1.3-1.2-.7-2.5-1.2-3.8-1.7-1.1-.5-2.2-1-3.4-1.3-1-.3-2.7.2-3.2-.8.4-.2 1.1.4 1.6.4m14 0c-.9.1-1.9-.4-2.8-.4-1 0-2-.1-2.9-.1-1.5-.1-3 .4-4.4.3-1-.1-2.5.1-3.4-.5.5-.4.8-.3 1.3-.3.3 0 .4.1.7.1.3 0 .7-.1 1-.1 1.1 0 2.2.1 3.3-.1 1.1-.2 2.3-.2 3.4 0 .8.1 1.6.3 2.4.3.3 0 .7-.2 1 0 .1 0 .5.8.4.8zm-41.8-.5c-.4 0-1 .7-1.4.9-.5.3-.9.6-1.4.9-1 .7-2.1 1.2-3.2 1.7-.8.4-2 .4-2.8 1-.6.6-.3.8-1.1.5-.4-.1-1.4-.2-1-.9.3-.4 1-.2 1.4-.2.6-.1.9-.3 1.4-.6.9-.6 1.9-1.1 2.9-1.4 1-.3 2-.9 3-1.4.2-.1.5-.1.7-.2.2-.1.4-.5.6-.6.8-.4.7.4.3.9"/><path fill="#BEEF0C" d="M178.8 102s-.1-2.7-.4-3.7c-.2-1-6-3.1-7.4-3.2-1.5-.1-6.4.9-6.8 1.4-.4.5-.7 3.4-.6 3.9.1.5.1 2 .1 2h7.3c1 0 4.3.6 4.7.8.3.2 3.1-1.2 3.1-1.2z"/><path fill="#BBE50A" d="M163.7 102.9c.1-.3-.6-2 5.2-1.9 5.9.1 7.9-.2 8.5.5.6.6 1.3 1.4 1 2.5-.3 1.2-1.2 3.5-2 3.7-.8.3-2.2.9-4.6 1-1.4.1-4.7 0-5.9-1-.6-.5-1.6-1.3-1.8-1.8-.2-.5-.3-1.6-.4-2-.2-.3 0-1 0-1z"/><path fill="#AFDD07" d="M153.3 106.3c0 .4-.4.7-1 .7-.5 0-1-.3-1-.7 0-.4.4-.7 1-.7.5 0 1 .3 1 .7z"/><ellipse cx="154.3" cy="107" fill="#AFDD07" rx="1" ry=".7"/><path fill="#AFDD07" d="M157.5 107.7c0 .6-.6 1.1-1.3 1.1-.7 0-1.3-.5-1.3-1.1 0-.6.6-1.1 1.3-1.1.7.1 1.3.5 1.3 1.1z"/><path fill="#B1E00A" d="M163.6 102.3s-1.3.1-1.2 1.6c.1 1.5.6 2.5.9 2.8.3.3.8 1 .8 1s-.4.4-.4.3c-.1-.1-2.3.4-2.7.4-.4 0-1.3.3-1.7.5-.3.1-.7.3-.6.5.1.2.7.3 1.2.3s1.2-.4 1.2-.4l.8-.2s.1.1 0 .3c-.1.2-.7.5-.2.7.5.2 1.7 0 1.7 0l.3-.7s.6-.6.9-.3c.2.2.7.9.6 1.1-.1.2.4.6.9.3s1.1-.5.7-.9c-.4-.4-1.5-1.2-1.6-1.3-.1-.1-.1-1.2-.1-1.2s-1-1.9-1.1-2.3c-.1-.4-.2-1.7-.2-1.7l-.2-.8zm13.7 4.7v1.2l-.6.6s-1 .5-1 .8c0 .3.6 1 .8.9.2-.1.6-.4.8-.5.2-.1.4-.6.4-.6s.6-.3.7-.2c.1.1-.1.6.4.8.5.2.8.2 1.3.1s.9-.2.9-.5-.4-.6-.4-.6.6.4 1 .5c.4 0 .9.2 1.1.1.3-.1 1-.2.8-.6-.1-.4-.6-.8-1-.9-.4-.1-1.8-.2-2-.3-.2 0-1-.1-1.3-.1-.2 0-.7.3-.8 0-.1-.3.3-.3.4-.7.1-.4.6-1 .8-1.4.2-.4.6-1.9.3-2.1-.3-.2-1-1.3-1.1-1.4 0-.1-.8.2-.8.2s.4 1.5.3 1.8c-.1.3-.9 2-.9 2l-.1.9z"/><path fill="#B1E00A" d="M177.6 94.6s3.8-3.4 4.8-2.9 1.4 4.3 1 6.4c-.4 2.1-1.1 7-.9 7.5.3.5 1.1 1.5 2.1 1.4 1-.1 2.5-.3 2.5-.3s1.5-.1 1.8-.4c.4-.3 1-.4 1.1 0 .1.3.6.2.4.7-.2.5-.1 1-.6.8-.4-.2-.9-.5-.9-.5s.2.3.2.5c0 .3-.2.6-.6.7-.4.1-1 .1-1.3 0-.3-.1-.3-.8-.3-.8h-.7s0 .1.1.5c.1.3.1.7-.3.7s-.9 0-1.3-.1-.5-.5-.5-.5l-1.3.1-2.1-.6.1-11.7s-2.2 4.2-2.7 4.3c-.4.1-.3-1.7-.4-2.2-.1-.4.3-.8.3-.8l-.3-1.2c.3-.5-.2-1.6-.2-1.6z"/><path fill="#FCFCFC" d="M170.3 96.7s-.5 1.1-.8 1.2c-.3.1-2.4-.1-2.6 0-.3.1-1.6.5-1.8 0-.2-.5-.8-.9-.8-.9v-.3s2.4-.2 2.9-.2 2 .2 2.4 0c.3-.2.7.2.7.2z"/><path fill="#ACD80B" d="M169.4 97.8s-1.7.9-2.3 1.4c-.6.4-1.3.4-1.6.3-.3-.1-1.3-1.4-1.3-1.4v-.8s.8-.6.8 0 .8.9 1.3.7c.5-.2 1.9-.2 1.9-.2h1.2zm3.6 0l4.7-.5.8.1s-.3.5-.4.7c-.1.2-1 1.1-1 1.1s-.8.4-1.7.3c-.8-.1-3.3-1.8-3.3-1.8"/><path fill="#FCFCFC" d="M164.2 96.5l.1 1.2c0 .1 1.7.6 2.7.5 1-.1 1.9 0 1.9 0s1.1-.4 1.3-1.3c.1-.3-.4-.9-.4-.9s-3.5-.2-3.8-.2c-.3 0-1.4.2-1.7.2-.2-.1-.2.4-.2.4"/><path fill="#ACD80B" d="M164.1 96.3s1-3.1 3.3-2.9c2.3.1 2.9 1.7 2.9 2.2v.8l-6 .4-.2-.5z"/><path fill="#FCFCFC" d="M178.1 96.7s.4.8-.1 1c-.6.2-1.7.1-2.2.2-.5.1-2.2.2-2.4.2-.1 0-1-.1-1.2-.3-.2-.3-.3-.5-.3-.8 0-.3 1.4-1.2 2-1.1.6.1 2.1-.1 2.5 0 .4.1 1.7.8 1.7.8z"/><path fill="#ACD80B" d="M171.9 96.9s0-1.6.6-2.2c.6-.6 1.7-1.3 2.7-1.1 1.1.2 2.4 1 2.5 1.3.1.3.7 1.5.7 1.5l-6.5.5z"/><circle cx="175.3" cy="97.3" r=".4" fill="#677F03"/><path fill="#9DC105" d="M163.5 95.3c0 .3-.3.6-.6.6s-.6-.3-.6-.6.3-.6.6-.6c.3-.1.6.2.6.6zm-.5-1.5c0 .2-.1.3-.3.3-.2 0-.3-.1-.3-.3 0-.2.1-.3.3-.3.2 0 .3.1.3.3z"/><circle cx="163.7" cy="94.1" r=".3" fill="#9DC105"/><path fill="none" stroke="#9DC609" stroke-width="1.825" d="M161.1 95.2c.1-.5 0-1.1-.2-1.6m-5.3 13.3c.7-.7 2.1.1 3-.2m-4.4-.4c.4-.5 1.2 0 1.7 0m30.4 1.3c-.3-.9-2.1-.6-2.2.4m3.4-1.2c.5 0 1.3-.2 1.7.2"/><path fill="#0A0A0A" stroke="#0A0A0A" stroke-width="1.782" d="M163.4 99c.1-.8-1.3-4.3-2.2-4.2-1.2.1-.3 3.4-.3 4.1 0 1.4.4 2.9.2 4.3-.1 1.5.3 3.2-1.1 4.2-.6.4-1.5.6-2.1.9-.2.1-1 .2-1.1.4-.5.6.3.4.7.3.7-.2 1.5-.8 2.1-1.2.6-.4 1.4-.7 1.7-1.2.3-.5.4-1.5.3-2.1-.1-.8-.1-1.4-.2-2.2 0-.7-.1-1.4-.1-2.1-.1-.8-.1-1.4-.1-2.3 0-.7.4-1.5.1-2.2 1 1 1.6 2.6 2.3 3.7.1-.1-.3-.2-.3-.3m15-1.1c.1.7.3 1.4.4 2 1-1.1 1.5-3.7 2.5-4.8.9.2-.2 5.6-.2 6.5 0 .5 0 1 .1 1.5v1.3c0 .8-.4 2.9 0 3.4.7.8 2.2-.2 3.1.2-.1-1.2-2.4.6-2.7-1.1-.2-1.1.2-1.6.2-3.3 0-1.2-.2-2.8-.1-4.1.1-1.4 0-2.4-.5-3.7-.9.1-1.1.6-1.3 1.2-.3.7-.8 1.3-1.2 1.9 0-.4-.3-.8-.5-1.1" opacity=".11"/><path fill="none" stroke="#9DC609" stroke-width="1.825" d="M181.7 93.8c0 .1-.3.5-.4.7-.1.3-.1.6-.2.9"/><path fill="#ACD80B" d="M164.2 97.8c.1 1.2 1.3 1.8 2.3 1.6 1.1-.2 2.8-.2 3.1-1.6-.8 0-2 .4-2.9.4-.7.1-1.6 0-2.5-.4m8.3.2c.8.9 2 1.4 3.2 1.4.5 0 1.1-.1 1.6-.4.4-.3 1.2-1 1-1.5-.2 0-.4.3-.7.4-.2.1-.5.1-.7.1-.5.1-1 .1-1.5.1H174c-.4 0-1 .1-1.5-.1"/><circle cx="167.2" cy="97.1" r=".4" fill="#677F03"/><path fill="#8AA007" d="M113.4 103.2s-17.7 1.2-17.8 1.5c-.1.3 0 1.3 0 1.3l.6.4s-11.1-1-14.1-.3c-3.1.7-6.5 2.1-5.9 4.1.4 1.3 2.5 2.9 3.9 3.1 1.2.2-.1.3.8.8.6.3.5-.2 1 .5.4.5 1.5.8 2.1 1 .9.3 1.8.6 2.7.7 4.1.7 5.9 1.2 14.7 1.5 8.8.3 16.3-.7 19.3-1.2 0 0 3.1-.6 5.7-1.2s3.9-1.1 5.6-1.6c1.7-.4 2.9-.9 3.2-1.1.4-.2.4-.1.4-.8-.1-.7-2.9-3.6-4-4.4-1.1-.8-7.1-2.1-7.5-2.4-.4-.3-1.9-.6-3.5-.9-1.6-.3-3.2-.6-3.7-.6-.4-.1-1.6-.2-2.4-.2h-.4"/><path fill="#B1E00A" d="M91.9 106.7s-1.1-.1-1.8 0c-.5.1-.7.3-1 .6-.1.1-.1.3-.2.5-.3.7.2.6 1.2 1s1.2-.6 1.8-.9c.7-.3 2.9-1.3 2.9-1.3l.3-1.8-.6-9.8s1.3 2.3 1.5 2.9c.2.6 1.3 2.3 1.3 2.3l.2-2.2s.8-1.1.5-1.6c-.3-.5.2-.8.3-1.2.1-.5.8-1 .8-1s-5.3-3.5-6-3c-.7.5-.9 4.6-.7 6.7.2 2.1 1 5.2 1 5.2l-.1 2.2s-1 .7-1.3.7c-.3 0-2.7.2-3.2 0s-1.3-.2-1.6-.2c-.3 0-.7-.2-1.1-.1-.4.1-1.1.9-1.1.9l1.4.2s-.3.3.3.5 1.5 0 1.5 0l3.7-.6z"/><path fill="#0A0A0A" stroke="#0A0A0A" stroke-width="1.782" d="M97.4 111.4c-.6.2-1 .7-1.5 1.1-.6.4-1.2.6-1.8.9-1.3.7-2.7 1.4-3.9 2.3-1.4 1-.6 2 .6 2.6.7.3 1 .4 1.7.3.5 0 1.1-.1 1.5.1.1 1.2-.9 2.4-.6 3.6.1.7.9.6 1.5.3.3-.2.5-.6.7-.8.3-.4.7-.5 1-.8.5-.6.7-1.1 1.6-1.3.7-.1 1.2.4 1.4 1.1.1.5-.1 1.2-.2 1.7-.1.6-.2 1.2-.4 1.8-.5 1.4-.6 2.5 1.1 3 1.2.4 2.5.3 3.4-.6.5-.4.7-1.1 1.4-1.2.2 0 .7.2.8.3.4.3.3.7.5 1 .7.8 2.7.6 3.5.1 1-.5 1.4-1.5 1.5-2.5 0-.3.2-.9.1-1.2-.1-.6-.5-.8-.6-1.4-.1-.5.1-.8.3-1.3.2-.4 0-1 .1-1.4.3-.6 2-.8 2.5-.6-.3.6 0 1 .6.8 0 .3-.3 1.1-.5 1.3-.2.2-.6.2-.6.5-.1.3.3.5.4.7.2.6-.1.9.6 1.2.3.1 1 .4 1.4.4.8-.1.7-1.7.9-2.4.1-.7.7-2 .4-2.8-.1-.2-.4-.3-.4-.5-.1-.2 0-.5 0-.7-.1-.4-.6-1.1-.5-1.4 0-.1.6-.3.7-.5.1-.2.2-.5.3-.7.1-.4.3-.9.2-1.4l-.3-2.7c-.1-1.2-1.2-1.1-2.2-1.2.2.9-.1 2.1-.1 3 0 .4.4 3.5-.5 2.8-.2-.1-.4-1.3-.4-1.5 0-.6.3-1 .2-1.6-.1-.6-.3-1-.6-1.5-.2-.4-.4-.4-.7-.7-.1-.1-.5-.6-.6-.6-.8-.3-2.1 2.7-2.5.6 0-.3.2-.4.1-.7 0-.1-.7-.2-.8-.2-.6-.1-1.2.1-1.8.1-1.1.1-1.8-.2-2.9-.1-.6 0-3.3-.4-3.6-.8-.1.6 1 2.1-1.1 2.5-.4.1-.5-.4-.9-.3-.3.1-.6.7-.7 1" opacity=".11"/><path fill="#98BE29" d="M107.3 110.7c-.6.8-.5 2.8-.6 3.8-.1.9-.6 2.7.1 3.5 1.5-.5 1.4-3.5 1.7-4.7.2-.8.5-1.6.5-2.4 0-.6-.1-.7-.6-.8-.4 0-.9.1-1.1.6m10.1 1.1c.5.4 1.2.8 1.6 1.4.3.5.5 1.2.9 1.7.2.3.6.5.8.7.1.1.5.6.6.7.2.1 1.4-.3 1.6-.4-.2-.5-.8-.7-1.1-1.2-.3-.5-.6-1.1-.9-1.5-.4-.5-.8-1.1-1.3-1.5-.5-.4-1.1-.6-1.6-.9-.4-.3-.9-1.2-1.3-1.3-.6-.2-1.1.5-1 .9.1 1 1.5 2.3 2.5 2.2m.8-3.2c.9.1 2.1.4 3 .7 1 .3 2 .4 3 .7 1.2.4 2.4 1 3.6 1.5.8.3 2.3.8 2.5 1.6-.4.5-1 .7-1.5.4-.5-.4-.9-1-1.6-1.3-1.2-.7-2.5-1.2-3.8-1.7-1.1-.5-2.2-1-3.4-1.3-1-.3-2.7.2-3.2-.8.4-.2 1.1.4 1.6.4m14.1 0c-.9.1-1.9-.4-2.8-.4-1 0-2-.1-2.9-.1-1.5-.1-3 .4-4.4.3-1-.1-2.5.1-3.4-.5.5-.4.8-.3 1.3-.3.3 0 .4.1.7.1.3 0 .7-.1 1-.1 1.1 0 2.2.1 3.3-.1 1.1-.2 2.3-.2 3.4 0 .8.1 1.6.3 2.4.3.3 0 .7-.2 1 0 .1 0 .4.8.4.8zm-41.9-.5c-.4 0-1 .7-1.4.9-.5.3-.9.6-1.4.9-1 .7-2.1 1.2-3.2 1.7-.8.4-2 .4-2.8 1-.6.6-.3.8-1.1.5-.4-.1-1.4-.2-1-.9.3-.4 1-.2 1.4-.2.6-.1.9-.3 1.4-.6.9-.6 1.9-1.1 2.9-1.4 1-.3 2-.9 3-1.4.2-.1.5-.1.7-.2.2-.1.4-.5.6-.6.8-.4.7.4.3.9"/><path fill="#BEEF0C" d="M112.3 102s-.1-2.7-.4-3.7c-.2-1-6-3.1-7.4-3.2-1.5-.1-6.4.9-6.8 1.4-.5.5-.7 3.5-.7 3.9.1.5.1 2 .1 2h7.3c1 0 4.3.6 4.7.8.4.2 3.2-1.2 3.2-1.2z"/><path fill="#BBE50A" d="M97.1 102.9c.1-.3-.6-2 5.2-1.9 5.9.1 7.9-.2 8.5.5.6.6 1.3 1.4 1 2.5-.3 1.2-1.2 3.5-2 3.7-.8.3-2.2.9-4.6 1-1.4.1-4.7 0-5.9-1-.6-.5-1.6-1.3-1.8-1.8-.2-.5-.3-1.6-.4-2-.2-.3 0-1 0-1z"/><path fill="#AFDD07" d="M86.7 106.3c0 .4-.4.7-1 .7-.5 0-1-.3-1-.7 0-.4.4-.7 1-.7s1 .3 1 .7z"/><ellipse cx="87.7" cy="107" fill="#AFDD07" rx="1" ry=".7"/><path fill="#AFDD07" d="M90.9 107.7c0 .6-.6 1.1-1.3 1.1-.7 0-1.3-.5-1.3-1.1 0-.6.6-1.1 1.3-1.1.7.1 1.3.5 1.3 1.1z"/><path fill="#B1E00A" d="M97 102.3s-1.3.1-1.2 1.6c.1 1.5.6 2.5.9 2.8.3.3.8 1 .8 1s-.4.4-.4.3c-.1-.1-2.3.4-2.7.4-.4 0-1.3.3-1.7.5-.3.1-.7.3-.6.5.1.2.7.3 1.2.3s1.2-.4 1.2-.4l.8-.2s.1.1 0 .3c-.1.2-.7.5-.2.7.5.2 1.7 0 1.7 0l.3-.7s.6-.6.9-.3c.2.2.7.9.6 1.1-.1.2.4.6.9.3s1.1-.5.7-.9c-.4-.4-1.5-1.2-1.6-1.3-.1-.1-.1-1.2-.1-1.2s-1-1.9-1.1-2.3c-.1-.4-.2-1.7-.2-1.7l-.2-.8zm13.8 4.7v1.2l-.6.6s-1 .5-1 .8c0 .3.6 1 .8.9.2-.1.6-.4.8-.5.2-.1.4-.6.4-.6s.6-.3.7-.2c.1.1-.1.6.4.8.5.2.8.2 1.3.1s.9-.2.9-.5-.4-.6-.4-.6.6.4 1 .5c.4 0 .9.2 1.1.1.3-.1 1-.2.8-.6-.1-.4-.6-.8-1-.9-.4-.1-1.8-.2-2-.3-.2 0-1-.1-1.3-.1-.2 0-.7.3-.8 0-.1-.3.3-.3.4-.7.1-.4.6-1 .8-1.4.2-.4.6-1.9.3-2.1-.3-.2-1-1.3-1.1-1.4 0-.1-.8.2-.8.2s.4 1.5.3 1.8c-.1.3-.9 2-.9 2l-.1.9z"/><path fill="#B1E00A" d="M111.1 94.6s3.8-3.4 4.8-2.9 1.4 4.3 1 6.4c-.4 2.1-1.1 7-.9 7.5.3.5 1.1 1.5 2.1 1.4 1-.1 2.5-.3 2.5-.3s1.5-.1 1.8-.4c.4-.3 1-.4 1.1 0 .1.3.6.2.4.7-.2.5-.1 1-.6.8-.4-.2-.9-.5-.9-.5s.2.3.2.5c0 .3-.2.6-.6.7-.4.1-1 .1-1.3 0-.3-.1-.3-.8-.3-.8h-.7s0 .1.1.5c.1.3.1.7-.3.7s-.9 0-1.3-.1-.5-.5-.5-.5l-1.3.1-2.1-.6.1-11.7s-2.2 4.2-2.7 4.3c-.4.1-.3-1.7-.4-2.2-.1-.4.3-.8.3-.8l-.3-1.2c.2-.5-.2-1.6-.2-1.6z"/><path fill="#FCFCFC" d="M103.7 96.7s-.5 1.1-.8 1.2c-.3.1-2.4-.1-2.6 0-.3.1-1.6.5-1.8 0-.2-.5-.8-.9-.8-.9v-.3s2.4-.2 2.9-.2 2 .2 2.4 0c.4-.2.7.2.7.2z"/><path fill="#ACD80B" d="M102.9 97.8s-1.7.9-2.3 1.4c-.6.4-1.3.4-1.6.3-.3-.1-1.3-1.4-1.3-1.4v-.8s.8-.6.8 0 .8.9 1.3.7c.5-.2 1.9-.2 1.9-.2h1.2zm3.5 0l4.7-.5.8.1s-.3.5-.4.7c-.1.2-1 1.1-1 1.1s-.8.4-1.7.3c-.8-.1-3.3-1.8-3.3-1.8"/><path fill="#FCFCFC" d="M97.7 96.5l.1 1.2c0 .1 1.7.6 2.7.5 1-.1 1.9 0 1.9 0s1.1-.4 1.3-1.3c.1-.3-.4-.9-.4-.9s-3.5-.2-3.8-.2c-.3 0-1.4.2-1.7.2-.2-.1-.2.4-.2.4"/><path fill="#ACD80B" d="M97.5 96.3s1-3.1 3.3-2.9c2.3.1 2.9 1.7 2.9 2.2v.8l-6 .4-.2-.5z"/><path fill="#FCFCFC" d="M111.5 96.7s.4.8-.1 1c-.6.2-1.7.1-2.2.2-.5.1-2.2.2-2.4.2-.1 0-1-.1-1.2-.3-.2-.3-.3-.5-.3-.8 0-.3 1.4-1.2 2-1.1.6.1 2.1-.1 2.5 0 .4.1 1.7.8 1.7.8z"/><path fill="#ACD80B" d="M105.4 96.9s0-1.6.6-2.2c.6-.6 1.7-1.3 2.7-1.1 1.1.2 2.4 1 2.5 1.3.1.3.7 1.5.7 1.5l-6.5.5z"/><circle cx="108.7" cy="97.3" r=".4" fill="#677F03"/><path fill="#9DC105" d="M97 95.3c0 .3-.3.6-.6.6s-.6-.3-.6-.6.3-.6.6-.6c.3-.1.6.2.6.6zm-.5-1.5c0 .2-.1.3-.3.3-.2 0-.3-.1-.3-.3 0-.2.1-.3.3-.3.1 0 .3.1.3.3z"/><circle cx="97.1" cy="94.1" r=".3" fill="#9DC105"/><path fill="none" stroke="#9DC609" stroke-width="1.825" d="M94.5 95.2c.1-.5 0-1.1-.2-1.6M89 106.9c.7-.7 2.1.1 3-.2m-4.3-.4c.4-.5 1.2 0 1.7 0m30.3 1.3c-.3-.9-2.1-.6-2.2.4m3.5-1.2c.5 0 1.3-.2 1.7.2"/><path fill="#0A0A0A" stroke="#0A0A0A" stroke-width="1.782" d="M96.8 99c.1-.8-1.3-4.3-2.2-4.2-1.2.1-.3 3.4-.3 4.1 0 1.4.4 2.9.3 4.3-.1 1.5.3 3.2-1.1 4.2-.6.4-1.5.6-2.1.9-.2.1-1 .2-1.1.4-.5.6.3.4.7.3.7-.2 1.5-.8 2.1-1.2.6-.4 1.4-.7 1.7-1.2.3-.5.4-1.5.3-2.1-.1-.8-.1-1.4-.2-2.2 0-.7-.1-1.4-.1-2.1-.1-.8-.1-1.4-.1-2.3 0-.7.4-1.5.1-2.2 1 1 1.6 2.6 2.3 3.7.1-.1-.3-.2-.3-.3m15-1.1c.1.7.3 1.4.4 2 1-1.1 1.5-3.7 2.5-4.8.9.2-.2 5.6-.2 6.5 0 .5 0 1 .1 1.5v1.3c0 .8-.4 2.9 0 3.4.7.8 2.2-.2 3.1.2-.1-1.2-2.4.6-2.7-1.1-.2-1.1.2-1.6.2-3.3 0-1.2-.2-2.8-.1-4.1.1-1.4 0-2.4-.5-3.7-.9.1-1.1.6-1.3 1.2-.3.7-.8 1.3-1.2 1.9 0-.4-.3-.8-.5-1.1" opacity=".11"/><path fill="none" stroke="#9DC609" stroke-width="1.825" d="M115.2 93.8c0 .1-.3.5-.4.7-.1.3-.1.6-.2.9"/><path fill="#ACD80B" d="M97.7 97.8c.1 1.2 1.3 1.8 2.3 1.6 1.1-.2 2.8-.2 3.1-1.6-.8 0-2 .4-2.9.4-.8.1-1.7 0-2.5-.4m8.3.2c.8.9 2 1.4 3.2 1.4.5 0 1.1-.1 1.6-.4.4-.3 1.2-1 1-1.5-.2 0-.4.3-.7.4-.2.1-.5.1-.7.1-.5.1-1 .1-1.5.1h-1.4c-.5 0-1 .1-1.5-.1"/><circle cx="100.7" cy="97.1" r=".4" fill="#677F03"/><path fill="#8AA007" d="M43.8 56.2S26.1 57.4 26 57.7c-.1.3 0 1.3 0 1.3l.6.4s-11.1-1-14.1-.3c-3.1.7-6.5 2.1-5.9 4.1.4 1.3 2.5 2.9 3.9 3.1 1.2.2-.1.3.8.8.6.3.5-.2 1 .5.4.5 1.5.8 2.1 1 .9.3 1.8.6 2.7.7 4.1.7 5.9 1.2 14.7 1.5 8.8.3 16.3-.7 19.3-1.2 0 0 3.1-.6 5.7-1.2s3.9-1.1 5.6-1.6c1.7-.4 2.9-.9 3.2-1.1.4-.2.4-.1.4-.8-.1-.7-2.9-3.6-4-4.4-1.1-.8-7.1-2.1-7.5-2.4-.4-.3-1.9-.6-3.5-.9-1.6-.3-3.2-.6-3.7-.6-.4-.1-1.6-.2-2.4-.2h-.4"/><path fill="#B1E00A" d="M22.3 59.8s-1.1-.1-1.8 0c-.5.1-.7.3-1 .6-.1.1-.1.3-.2.5-.3.7.2.6 1.2 1s1.2-.6 1.8-.9c.7-.3 2.9-1.3 2.9-1.3l.3-1.8-.5-9.7s1.3 2.3 1.5 2.9c.2.6 1.3 2.3 1.3 2.3l.2-2.2s.8-1.1.5-1.6c-.3-.5.2-.8.3-1.2.1-.5.8-1 .8-1s-5.3-3.5-6-3c-.7.5-.9 4.6-.7 6.7.2 2.1 1 5.2 1 5.2l-.1 2.2s-1 .7-1.3.7c-.3 0-2.7.2-3.2 0S18 59 17.7 59c-.3 0-.7-.2-1.1-.1-.4.1-1.1.9-1.1.9l1.4.2s-.3.3.3.5 1.5 0 1.5 0l3.6-.7z"/><path fill="#0A0A0A" stroke="#0A0A0A" stroke-width="1.782" d="M27.7 64.5c-.6.2-1 .7-1.5 1.1-.6.4-1.2.6-1.8.9-1.3.7-2.7 1.4-3.9 2.3-1.4 1-.6 2 .6 2.6.7.3 1 .4 1.7.3.5 0 1.1-.1 1.5.1.1 1.2-.9 2.4-.6 3.6.1.7.9.6 1.5.3.3-.2.5-.6.7-.8.3-.4.7-.5 1-.8.5-.6.7-1.1 1.6-1.3.7-.1 1.2.4 1.4 1.1.1.5-.1 1.2-.2 1.7-.1.6-.2 1.2-.4 1.8-.5 1.4-.6 2.5 1.1 3 1.2.4 2.5.3 3.4-.6.5-.4.7-1.1 1.4-1.2.2 0 .7.2.8.3.4.3.3.7.5 1 .7.8 2.7.6 3.5.1 1-.5 1.4-1.5 1.5-2.5 0-.3.2-.9.1-1.2-.1-.6-.5-.8-.6-1.4-.1-.5.1-.8.3-1.3.2-.4 0-1 .1-1.4.3-.6 2-.8 2.5-.6-.3.6 0 1 .6.8 0 .3-.3 1.1-.5 1.3-.2.2-.6.2-.6.5-.1.3.3.5.4.7.2.6-.1.9.6 1.2.3.1 1 .4 1.4.4.8-.1.7-1.7.9-2.4.1-.7.7-2 .4-2.8-.1-.2-.4-.3-.4-.5-.1-.2 0-.5 0-.7-.1-.4-.6-1.1-.5-1.4 0-.1.6-.3.7-.5.1-.2.2-.5.3-.7.1-.4.3-.9.2-1.4l-.3-2.7c-.1-1.2-1.2-1.1-2.2-1.2.2.9-.1 2.1-.1 3 0 .4.4 3.5-.5 2.8-.2-.1-.4-1.3-.4-1.5 0-.6.3-1 .2-1.6-.1-.6-.3-1-.6-1.5-.2-.4-.4-.4-.7-.7-.1-.1-.5-.6-.6-.6-.8-.3-2.1 2.7-2.5.6 0-.3.2-.4.1-.7 0-.1-.7-.2-.8-.2-.6-.1-1.2.1-1.8.1-1.1.1-1.8-.2-2.9-.1-.6 0-3.3-.4-3.6-.8-.1.6 1 2.1-1.1 2.5-.4.1-.5-.4-.9-.3-.3.1-.6.7-.7 1" opacity=".11"/><path fill="#98BE29" d="M37.7 63.8c-.6.8-.5 2.8-.6 3.8-.1.9-.6 2.7.1 3.5 1.5-.5 1.4-3.5 1.7-4.7.2-.8.5-1.6.5-2.4 0-.6-.1-.7-.6-.8-.4 0-.9.1-1.1.6m10.1 1c.5.4 1.2.8 1.6 1.4.3.5.5 1.2.9 1.7.2.3.6.5.8.7.1.1.5.6.6.7.2.1 1.4-.3 1.6-.4-.2-.5-.8-.7-1.1-1.2-.3-.5-.6-1.1-.9-1.5-.4-.5-.8-1.1-1.3-1.5-.5-.4-1.1-.6-1.6-.9-.4-.3-.9-1.2-1.3-1.3-.6-.2-1.1.5-1 .9.1 1 1.5 2.3 2.5 2.2m.8-3.1c.9.1 2.1.4 3 .7 1 .3 2 .4 3 .7 1.2.4 2.4 1 3.6 1.5.8.3 2.3.8 2.5 1.6-.4.5-1 .7-1.5.4-.5-.4-.9-1-1.6-1.3-1.2-.7-2.5-1.2-3.8-1.7-1.1-.5-2.2-1-3.4-1.3-1-.3-2.7.2-3.2-.8.4-.2 1.1.4 1.6.4m14.1 0c-.9.1-1.9-.4-2.8-.4-1 0-2-.1-2.9-.1-1.5-.1-3 .4-4.4.3-1-.1-2.5.1-3.4-.5.5-.4.8-.3 1.3-.3.3 0 .4.1.7.1.3 0 .7-.1 1-.1 1.1 0 2.2.1 3.3-.1 1.1-.2 2.3-.2 3.4 0 .8.1 1.6.3 2.4.3.3 0 .7-.2 1 0 .1-.1.4.8.4.8zm-41.9-.6c-.4 0-1 .7-1.4.9-.5.3-.9.6-1.4.9-1 .7-2.1 1.2-3.2 1.7-.8.4-2 .4-2.8 1-.6.6-.3.8-1.1.5-.4-.1-1.4-.2-1-.9.3-.4 1-.2 1.4-.2.6-.1.9-.3 1.4-.6.9-.6 1.9-1.1 2.9-1.4 1-.3 2-.9 3-1.4.2-.1.5-.1.7-.2.2-.1.4-.5.6-.6.8-.4.7.4.3.9"/><path fill="#BEEF0C" d="M42.7 55.1s-.1-2.7-.4-3.7c-.2-1-6-3.1-7.4-3.2-1.5-.1-6.4.9-6.8 1.4-.4.5-.7 3.4-.6 3.9.1.5.1 2 .1 2h7.3c1 0 4.3.6 4.7.8.3.2 3.1-1.2 3.1-1.2z"/><path fill="#BBE50A" d="M27.5 56c.1-.3-.6-2 5.2-1.9 5.9.1 7.9-.2 8.5.5.6.6 1.3 1.4 1 2.5-.3 1.2-1.2 3.5-2 3.7-.8.3-2.2.9-4.6 1-1.4.1-4.7 0-5.9-1-.6-.5-1.6-1.3-1.8-1.8-.2-.5-.3-1.6-.4-2-.2-.4 0-1 0-1z"/><path fill="#AFDD07" d="M17.1 59.3c0 .4-.4.7-1 .7-.5 0-1-.3-1-.7 0-.4.4-.7 1-.7s1 .3 1 .7z"/><ellipse cx="18.1" cy="60" fill="#AFDD07" rx="1" ry=".7"/><path fill="#AFDD07" d="M21.3 60.8c0 .6-.6 1.1-1.3 1.1-.7 0-1.3-.5-1.3-1.1 0-.6.6-1.1 1.3-1.1.7 0 1.3.5 1.3 1.1z"/><path fill="#B1E00A" d="M27.4 55.3s-1.3.1-1.2 1.6c.1 1.5.6 2.5.9 2.8.3.3.8 1 .8 1s-.4.4-.4.3c-.1-.1-2.3.4-2.7.4-.4 0-1.3.3-1.7.5-.3.1-.7.3-.6.5.1.2.7.3 1.2.3s1.2-.4 1.2-.4l.8-.2s.1.1 0 .3c-.1.2-.7.5-.2.7.5.2 1.7 0 1.7 0l.3-.7s.6-.6.9-.3c.2.2.7.9.6 1.1-.1.2.4.6.9.3s1.1-.5.7-.9c-.4-.4-1.5-1.2-1.6-1.3-.1-.1-.1-1.2-.1-1.2s-1-1.9-1.1-2.3c-.1-.4-.2-1.7-.2-1.7l-.2-.8zM41.2 60v1.2l-.6.6s-1 .5-1 .8c0 .3.6 1 .8.9.2-.1.6-.4.8-.5.2-.1.4-.6.4-.6s.6-.3.7-.2c.1.1-.1.6.4.8.5.2.8.2 1.3.1s.9-.2.9-.5-.4-.6-.4-.6.6.4 1 .5c.4 0 .9.2 1.1.1.3-.1 1-.2.8-.6-.1-.4-.6-.8-1-.9-.4-.1-1.8-.2-2-.3-.2 0-1-.1-1.3-.1-.2 0-.7.3-.8 0-.1-.3.3-.3.4-.7.1-.4.6-1 .8-1.4.2-.4.6-1.9.3-2.1-.3-.2-1-1.3-1.1-1.4 0-.1-.8.2-.8.2s.4 1.5.3 1.8c-.1.3-.9 2-.9 2l-.1.9z"/><path fill="#B1E00A" d="M41.5 47.6s3.8-3.4 4.8-2.9 1.4 4.3 1 6.4c-.4 2.1-1.1 7-.9 7.5.3.5 1.1 1.5 2.1 1.4 1-.1 2.5-.3 2.5-.3s1.5-.1 1.8-.4c.4-.3 1-.4 1.1 0 .1.3.6.2.4.7-.2.5-.1 1-.6.8-.4-.2-.9-.5-.9-.5s.2.3.2.5c0 .3-.2.6-.6.7-.4.1-1 .1-1.3 0-.3-.1-.3-.8-.3-.8h-.7s0 .1.1.5c.1.3.1.7-.3.7s-.9 0-1.3-.1-.5-.5-.5-.5l-1.3.1-2.1-.6L45 49s-2.2 4.2-2.7 4.3c-.4.1-.3-1.7-.4-2.2-.1-.4.3-.8.3-.8s-.2-.7-.2-1.1c-.1-.5-.5-1.6-.5-1.6z"/><path fill="#FCFCFC" d="M34.1 49.7s-.5 1.1-.8 1.2c-.3.1-2.4-.1-2.6 0-.3.1-1.6.5-1.8 0-.2-.5-.8-.9-.8-.9v-.3s2.4-.2 2.9-.2 2 .2 2.4 0c.4-.1.7.2.7.2z"/><path fill="#ACD80B" d="M33.3 50.9s-1.7.9-2.3 1.4c-.6.4-1.3.4-1.6.3-.3-.1-1.3-1.4-1.3-1.4v-.8s.8-.6.8 0 .8.9 1.3.7c.5-.2 1.9-.2 1.9-.2h1.2zm3.5-.1l4.7-.5.8.1s-.3.5-.4.7c-.1.2-1 1.1-1 1.1s-.8.4-1.7.3c-.8-.1-3.3-1.8-3.3-1.8"/><path fill="#FCFCFC" d="M28 49.6l.1 1.2c0 .1 1.7.6 2.7.5 1-.1 1.9 0 1.9 0s1.1-.4 1.3-1.3c.1-.3-.4-.9-.4-.9s-3.4-.1-3.7-.1c-.3 0-1.4.2-1.7.2-.2-.1-.2.3-.2.3"/><path fill="#ACD80B" d="M27.9 49.3s1-3.1 3.3-2.9c2.3.1 2.9 1.7 2.9 2.2v.8l-6 .4-.2-.5z"/><path fill="#FCFCFC" d="M41.9 49.7s.4.8-.1 1c-.6.2-1.7.1-2.2.2-.5.1-2.2.2-2.4.2-.1 0-1-.1-1.2-.3-.2-.3-.3-.5-.3-.8 0-.3 1.4-1.2 2-1.1.6.1 2.1-.1 2.5 0 .4.1 1.7.8 1.7.8z"/><path fill="#ACD80B" d="M35.8 49.9s0-1.6.6-2.2c.6-.6 1.7-1.3 2.7-1.1 1.1.2 2.4 1 2.5 1.3.1.3.7 1.5.7 1.5l-6.5.5z"/><circle cx="39.1" cy="50.3" r=".4" fill="#677F03"/><path fill="#9DC105" d="M27.3 48.3c0 .3-.3.6-.6.6s-.6-.3-.6-.6.3-.6.6-.6c.4 0 .6.3.6.6zm-.4-1.5c0 .2-.1.3-.3.3-.2 0-.3-.1-.3-.3 0-.2.1-.3.3-.3.1 0 .3.2.3.3z"/><circle cx="27.5" cy="47.2" r=".3" fill="#9DC105"/><path fill="none" stroke="#9DC609" stroke-width="1.825" d="M24.9 48.2c.1-.5 0-1.1-.2-1.6M19.4 60c.7-.7 2.1.1 3-.2m-4.4-.4c.4-.5 1.2 0 1.7 0m30.4 1.3c-.3-.9-2.1-.6-2.2.4m3.5-1.2c.5 0 1.3-.2 1.7.2"/><path fill="#0A0A0A" stroke="#0A0A0A" stroke-width="1.782" d="M27.2 52c.1-.8-1.3-4.3-2.2-4.2-1.2.1-.3 3.4-.3 4.1 0 1.4.4 2.9.3 4.3-.1 1.5.3 3.2-1.1 4.2-.6.4-1.5.6-2.1.9-.2.1-1 .2-1.1.4-.5.6.3.4.7.3.7-.2 1.5-.8 2.1-1.2.6-.4 1.4-.7 1.7-1.2.3-.5.4-1.5.3-2.1-.1-.8-.1-1.4-.2-2.2 0-.7-.1-1.4-.1-2.1-.1-.8-.2-1.4-.2-2.2 0-.7.4-1.5.1-2.2 1 1 1.6 2.6 2.3 3.7.1-.1-.3-.2-.3-.3m15.1-1.1c.1.7.3 1.4.4 2 1-1.1 1.5-3.7 2.5-4.8.9.2-.2 5.6-.2 6.5 0 .5 0 1 .1 1.5v1.3c0 .8-.4 2.9 0 3.4.7.8 2.2-.2 3.1.2-.1-1.2-2.4.6-2.7-1.1-.2-1.1.2-1.6.2-3.3 0-1.2-.2-2.8-.1-4.1.1-1.4 0-2.4-.5-3.7-.9.1-1.1.6-1.3 1.2-.3.7-.8 1.3-1.2 1.9 0-.4-.3-.8-.5-1.1" opacity=".11"/><path fill="none" stroke="#9DC609" stroke-width="1.825" d="M45.6 46.9c0 .1-.3.5-.4.7-.1.3-.1.6-.2.9"/><path fill="#ACD80B" d="M28.1 50.9c.1 1.2 1.3 1.8 2.3 1.6 1.1-.2 2.8-.2 3.1-1.6-.8 0-2 .4-2.9.4-.8.1-1.7-.1-2.5-.4m8.2.2c.8.9 2 1.4 3.2 1.4.5 0 1.1-.1 1.6-.4.4-.3 1.2-1 1-1.5-.2 0-.4.3-.7.4h-.6c-.5.1-1 .1-1.5.1h-1.4c-.5.1-1 .1-1.6 0"/><circle cx="31.1" cy="50.2" r=".4" fill="#677F03"/><path fill="#8AA007" d="M180.8 56.2s-17.7 1.2-17.8 1.5c-.1.3 0 1.3 0 1.3l.6.4s-11.1-1-14.1-.3c-3.1.7-6.5 2.1-5.9 4.1.4 1.3 2.5 2.9 3.9 3.1 1.2.2-.1.3.8.8.6.3.5-.2 1 .5.4.5 1.5.8 2.1 1 .9.3 1.8.6 2.7.7 4.1.7 5.9 1.2 14.7 1.5 8.8.3 16.3-.7 19.3-1.2 0 0 3.1-.6 5.7-1.2s3.9-1.1 5.6-1.6c1.7-.4 2.9-.9 3.2-1.1.4-.2.4-.1.4-.8-.1-.7-2.9-3.6-4-4.4-1.1-.8-7.1-2.1-7.5-2.4-.4-.3-1.9-.6-3.5-.9-1.6-.3-3.2-.6-3.7-.6-.4-.1-1.6-.2-2.4-.2h-.4"/><path fill="#B1E00A" d="M159.3 59.8s-1.1-.1-1.8 0c-.5.1-.7.3-1 .6-.1.1-.1.3-.2.5-.3.7.2.6 1.2 1s1.2-.6 1.8-.9c.7-.3 2.9-1.3 2.9-1.3l.3-1.8-.6-9.8s1.3 2.3 1.5 2.9c.2.6 1.3 2.3 1.3 2.3l.2-2.2s.8-1.1.5-1.6c-.3-.5.2-.8.3-1.2.1-.5.8-1 .8-1s-5.3-3.5-6-3c-.7.5-.9 4.6-.7 6.7.2 2.1 1 5.2 1 5.2l-.1 2.2s-1 .7-1.3.7c-.3 0-2.7.2-3.2 0s-1.3-.2-1.6-.2c-.3 0-.7-.2-1.1-.1-.4.1-1.1.9-1.1.9l1.4.2s-.3.3.3.5 1.5 0 1.5 0l3.7-.6z"/><path fill="#0A0A0A" stroke="#0A0A0A" stroke-width="1.782" d="M164.7 64.5c-.6.2-1 .7-1.5 1.1-.6.4-1.2.6-1.8.9-1.3.7-2.7 1.4-3.9 2.3-1.4 1-.6 2 .6 2.6.7.3 1 .4 1.7.3.5 0 1.1-.1 1.5.1.1 1.2-.9 2.4-.6 3.6.1.7.9.6 1.5.3.3-.2.5-.6.7-.8.3-.4.7-.5 1-.8.5-.6.7-1.1 1.6-1.3.7-.1 1.2.4 1.4 1.1.1.5-.1 1.2-.2 1.7-.1.6-.2 1.2-.4 1.8-.5 1.4-.6 2.5 1.1 3 1.2.4 2.5.3 3.4-.6.5-.4.7-1.1 1.4-1.2.2 0 .7.2.8.3.4.3.3.7.5 1 .7.8 2.7.6 3.5.1 1-.5 1.4-1.5 1.5-2.5 0-.3.2-.9.1-1.2-.1-.6-.5-.8-.6-1.4-.1-.5.1-.8.3-1.3.2-.4 0-1 .1-1.4.3-.6 2-.8 2.5-.6-.3.6 0 1 .6.8 0 .3-.3 1.1-.5 1.3-.2.2-.6.2-.6.5-.1.3.3.5.4.7.2.6-.1.9.6 1.2.3.1 1 .4 1.4.4.8-.1.7-1.7.9-2.4.1-.7.7-2 .4-2.8-.1-.2-.4-.3-.4-.5-.1-.2 0-.5 0-.7-.1-.4-.6-1.1-.5-1.4 0-.1.6-.3.7-.5.1-.2.2-.5.3-.7.1-.4.3-.9.2-1.4l-.3-2.7c-.1-1.2-1.2-1.1-2.2-1.2.2.9-.1 2.1-.1 3 0 .4.4 3.5-.5 2.8-.2-.1-.4-1.3-.4-1.5 0-.6.3-1 .2-1.6-.1-.6-.3-1-.6-1.5-.2-.4-.4-.4-.7-.7-.1-.1-.5-.6-.6-.6-.8-.3-2.1 2.7-2.5.6 0-.3.2-.4.1-.7 0-.1-.7-.2-.8-.2-.6-.1-1.2.1-1.8.1-1.1.1-1.8-.2-2.9-.1-.6 0-3.3-.4-3.6-.8-.1.6 1 2.1-1.1 2.4-.4.1-.5-.4-.9-.3-.3.1-.6.7-.7 1" opacity=".11"/><path fill="#98BE29" d="M174.7 63.8c-.6.8-.5 2.8-.6 3.8-.1.9-.6 2.7.1 3.5 1.5-.5 1.4-3.5 1.7-4.7.2-.8.5-1.6.5-2.4 0-.6-.1-.7-.6-.8-.4 0-.9.1-1.1.6m10.1 1c.5.4 1.2.8 1.6 1.4.3.5.5 1.2.9 1.7.2.3.6.5.8.7.1.1.5.6.6.7.2.1 1.4-.3 1.6-.4-.2-.5-.8-.7-1.1-1.2-.3-.5-.6-1.1-.9-1.5-.4-.5-.8-1.1-1.3-1.5-.5-.4-1.1-.6-1.6-.9-.4-.3-.9-1.2-1.3-1.3-.6-.2-1.1.5-1 .9.1 1 1.5 2.3 2.5 2.2m.8-3.1c.9.1 2.1.4 3 .7 1 .3 2 .4 3 .7 1.2.4 2.4 1 3.6 1.5.8.3 2.3.8 2.5 1.6-.4.5-1 .7-1.5.4-.5-.4-.9-1-1.6-1.3-1.2-.7-2.5-1.2-3.8-1.7-1.1-.5-2.2-1-3.4-1.3-1-.3-2.7.2-3.2-.8.4-.2 1.1.4 1.6.4m14.1 0c-.9.1-1.9-.4-2.8-.4-1 0-2-.1-2.9-.1-1.5-.1-3 .4-4.4.3-1-.1-2.5.1-3.4-.5.5-.4.8-.3 1.3-.3.3 0 .4.1.7.1.3 0 .7-.1 1-.1 1.1 0 2.2.1 3.3-.1 1.1-.2 2.3-.2 3.4 0 .8.1 1.6.3 2.4.3.3 0 .7-.2 1 0 .1-.1.4.8.4.8zm-41.9-.6c-.4 0-1 .7-1.4.9-.5.3-.9.6-1.4.9-1 .7-2.1 1.2-3.2 1.7-.8.4-2 .4-2.8 1-.6.6-.3.8-1.1.5-.4-.1-1.4-.2-1-.9.3-.4 1-.2 1.4-.2.6-.1.9-.3 1.4-.6.9-.6 1.9-1.1 2.9-1.4 1-.3 2-.9 3-1.4.2-.1.5-.1.7-.2.2-.1.4-.5.6-.6.8-.4.7.4.3.9"/><path fill="#BEEF0C" d="M179.7 55.1s-.1-2.7-.4-3.7c-.2-1-6-3.1-7.4-3.2-1.5-.1-6.4.9-6.8 1.4-.4.5-.7 3.4-.6 3.9.1.5.1 2 .1 2h7.3c1 0 4.3.6 4.7.8.3.2 3.1-1.2 3.1-1.2z"/><path fill="#BBE50A" d="M164.5 56c.1-.3-.6-2 5.2-1.9 5.9.1 7.9-.2 8.5.5.6.6 1.3 1.4 1 2.5-.3 1.2-1.2 3.5-2 3.7-.8.3-2.2.9-4.6 1-1.4.1-4.7 0-5.9-1-.6-.5-1.6-1.3-1.8-1.8-.2-.5-.3-1.6-.4-2-.2-.4 0-1 0-1z"/><path fill="#AFDD07" d="M154.1 59.3c0 .4-.4.7-1 .7-.5 0-1-.3-1-.7 0-.4.4-.7 1-.7.5 0 1 .3 1 .7z"/><ellipse cx="155.1" cy="60" fill="#AFDD07" rx="1" ry=".7"/><path fill="#AFDD07" d="M158.3 60.8c0 .6-.6 1.1-1.3 1.1-.7 0-1.3-.5-1.3-1.1 0-.6.6-1.1 1.3-1.1.7 0 1.3.5 1.3 1.1z"/><path fill="#B1E00A" d="M164.4 55.3s-1.3.1-1.2 1.6c.1 1.5.6 2.5.9 2.8.3.3.8 1 .8 1s-.4.4-.4.3c-.1-.1-2.3.4-2.7.4-.4 0-1.3.3-1.7.5-.3.1-.7.3-.6.5.1.2.7.3 1.2.3s1.2-.4 1.2-.4l.8-.2s.1.1 0 .3c-.1.2-.7.5-.2.7.5.2 1.7 0 1.7 0l.3-.7s.6-.6.9-.3c.2.2.7.9.6 1.1-.1.2.4.6.9.3s1.1-.5.7-.9c-.4-.4-1.5-1.2-1.6-1.3-.1-.1-.1-1.2-.1-1.2s-1-1.9-1.1-2.3c-.1-.4-.2-1.7-.2-1.7l-.2-.8zm13.7 4.7v1.2l-.6.6s-1 .5-1 .8c0 .3.6 1 .8.9.2-.1.6-.4.8-.5.2-.1.4-.6.4-.6s.6-.3.7-.2c.1.1-.1.6.4.8.5.2.8.2 1.3.1s.9-.2.9-.5-.4-.6-.4-.6.6.4 1 .5c.4 0 .9.2 1.1.1.3-.1 1-.2.8-.6-.1-.4-.6-.8-1-.9-.4-.1-1.8-.2-2-.3-.2 0-1-.1-1.3-.1-.2 0-.7.3-.8 0-.1-.3.3-.3.4-.7.1-.4.6-1 .8-1.4.2-.4.6-1.9.3-2.1-.3-.2-1-1.3-1.1-1.4 0-.1-.8.2-.8.2s.4 1.5.3 1.8c-.1.3-.9 2-.9 2l-.1.9z"/><path fill="#B1E00A" d="M178.4 47.6s3.8-3.4 4.8-2.9 1.4 4.3 1 6.4c-.4 2.1-1.1 7-.9 7.5.3.5 1.1 1.5 2.1 1.4 1-.1 2.5-.3 2.5-.3s1.5-.1 1.8-.4c.4-.3 1-.4 1.1 0 .1.3.6.2.4.7-.2.5-.1 1-.6.8-.4-.2-.9-.5-.9-.5s.2.3.2.5c0 .3-.2.6-.6.7-.4.1-1 .1-1.3 0-.3-.1-.3-.8-.3-.8h-.7s0 .1.1.5c.1.3.1.7-.3.7s-.9 0-1.3-.1-.5-.5-.5-.5l-1.3.1-2.1-.6.1-11.7s-2.2 4.2-2.7 4.3c-.4.1-.3-1.7-.4-2.2-.1-.4.3-.8.3-.8l-.3-1.2c.3-.5-.2-1.6-.2-1.6z"/><path fill="#FCFCFC" d="M171.1 49.7s-.5 1.1-.8 1.2c-.3.1-2.4-.1-2.6 0-.3.1-1.6.5-1.8 0-.2-.5-.8-.9-.8-.9v-.3s2.4-.2 2.9-.2 2 .2 2.4 0c.4-.1.7.2.7.2z"/><path fill="#ACD80B" d="M170.3 50.9s-1.7.9-2.3 1.4c-.6.4-1.3.4-1.6.3-.3-.1-1.3-1.4-1.3-1.4v-.8s.8-.6.8 0 .8.9 1.3.7c.5-.2 1.9-.2 1.9-.2h1.2zm3.5-.1l4.7-.5.8.1s-.3.5-.4.7c-.1.2-1 1.1-1 1.1s-.8.4-1.7.3c-.8-.1-3.3-1.8-3.3-1.8"/><path fill="#FCFCFC" d="M165 49.6l.1 1.2c0 .1 1.7.6 2.7.5 1-.1 1.9 0 1.9 0s1.1-.4 1.3-1.3c.1-.3-.4-.9-.4-.9s-3.5-.2-3.8-.2c-.3 0-1.4.2-1.7.2-.2-.1-.2.4-.2.4"/><path fill="#ACD80B" d="M164.9 49.3s1-3.1 3.3-2.9c2.3.1 2.9 1.7 2.9 2.2v.8l-6 .4-.2-.5z"/><path fill="#FCFCFC" d="M178.9 49.7s.4.8-.1 1c-.6.2-1.7.1-2.2.2-.5.1-2.2.2-2.4.2-.1 0-1-.1-1.2-.3-.2-.3-.3-.5-.3-.8 0-.3 1.4-1.2 2-1.1.6.1 2.1-.1 2.5 0 .4.1 1.7.8 1.7.8z"/><path fill="#ACD80B" d="M172.8 49.9s0-1.6.6-2.2c.6-.6 1.7-1.3 2.7-1.1 1.1.2 2.4 1 2.5 1.3.1.3.7 1.5.7 1.5l-6.5.5z"/><circle cx="176.1" cy="50.3" r=".4" fill="#677F03"/><path fill="#9DC105" d="M164.3 48.3c0 .3-.3.6-.6.6s-.6-.3-.6-.6.3-.6.6-.6c.4 0 .6.3.6.6zm-.5-1.5c0 .2-.1.3-.3.3-.2 0-.3-.1-.3-.3 0-.2.1-.3.3-.3.2 0 .3.2.3.3z"/><circle cx="164.5" cy="47.2" r=".3" fill="#9DC105"/><path fill="none" stroke="#9DC609" stroke-width="1.825" d="M161.9 48.2c.1-.5 0-1.1-.2-1.6M156.4 60c.7-.7 2.1.1 3-.2m-4.4-.4c.4-.5 1.2 0 1.7 0m30.4 1.3c-.3-.9-2.1-.6-2.2.4m3.5-1.2c.5 0 1.3-.2 1.7.2"/><path fill="#0A0A0A" stroke="#0A0A0A" stroke-width="1.782" d="M164.2 52c.1-.8-1.3-4.3-2.2-4.2-1.2.1-.3 3.4-.3 4.1 0 1.4.4 2.9.2 4.3-.1 1.5.3 3.2-1.1 4.2-.6.4-1.5.6-2.1.9-.2.1-1 .2-1.1.4-.5.6.3.4.7.3.7-.2 1.5-.8 2.1-1.2.6-.4 1.4-.7 1.7-1.2.3-.5.4-1.5.3-2.1-.1-.8-.1-1.4-.2-2.2 0-.7-.1-1.4-.1-2.1-.1-.8-.1-1.4-.1-2.3 0-.7.4-1.5.1-2.2 1 1 1.6 2.6 2.3 3.7.1-.1-.3-.2-.3-.3m15-1c.1.7.3 1.4.4 2 1-1.1 1.5-3.7 2.5-4.8.9.2-.2 5.6-.2 6.5 0 .5 0 1 .1 1.5v1.3c0 .8-.4 2.9 0 3.4.7.8 2.2-.2 3.1.2-.1-1.2-2.4.6-2.7-1.1-.2-1.1.2-1.6.2-3.3 0-1.2-.2-2.8-.1-4.1.1-1.4 0-2.4-.5-3.7-.9.1-1.1.6-1.3 1.2-.3.7-.8 1.3-1.2 1.9 0-.4-.3-.8-.5-1.1" opacity=".11"/><path fill="none" stroke="#9DC609" stroke-width="1.825" d="M182.5 46.9c0 .1-.3.5-.4.7-.1.3-.1.6-.2.9"/><path fill="#ACD80B" d="M165.1 50.9c.1 1.2 1.3 1.8 2.3 1.6 1.1-.2 2.8-.2 3.1-1.6-.8 0-2 .4-2.9.4-.8.1-1.7-.1-2.5-.4m8.2.2c.8.9 2 1.4 3.2 1.4.5 0 1.1-.1 1.6-.4.4-.3 1.2-1 1-1.5-.2 0-.4.3-.7.4-.2.1-.5.1-.7.1-.5.1-1 .1-1.5.1h-1.4c-.4 0-.9 0-1.5-.1"/><circle cx="168.1" cy="50.2" r=".4" fill="#677F03"/><path fill="#8AA007" d="M114.2 56.2s-17.7 1.2-17.8 1.5c-.1.3 0 1.3 0 1.3l.6.4s-11.1-1-14.1-.3c-3.1.7-6.5 2.1-5.9 4.1.4 1.3 2.5 2.9 3.9 3.1 1.2.2-.1.3.8.8.6.3.5-.2 1 .5.4.5 1.5.8 2.1 1 .9.3 1.8.6 2.7.7 4.1.7 5.9 1.2 14.7 1.5 8.8.3 16.3-.7 19.3-1.2 0 0 3.1-.6 5.7-1.2s3.9-1.1 5.6-1.6c1.7-.4 2.9-.9 3.2-1.1.4-.2.4-.1.4-.8-.1-.7-2.9-3.6-4-4.4-1.1-.8-7.1-2.1-7.5-2.4-.4-.3-1.9-.6-3.5-.9-1.6-.3-3.2-.6-3.7-.6-.4-.1-1.6-.2-2.4-.2h-.4"/><path fill="#B1E00A" d="M92.7 59.8s-1.1-.1-1.8 0c-.5.1-.7.3-1 .6-.1.1-.1.3-.2.5-.3.7.2.6 1.2 1s1.2-.6 1.8-.9c.7-.3 2.9-1.3 2.9-1.3L96 58l-.6-9.8s1.3 2.3 1.5 2.9c.2.6 1.3 2.3 1.3 2.3l.2-2.2s.8-1.1.5-1.6c-.3-.5.2-.8.3-1.2.1-.5.8-1 .8-1s-5.3-3.5-6-3c-.7.5-.9 4.6-.7 6.7.2 2.1 1 5.2 1 5.2l-.1 2.2s-1 .7-1.3.7c-.3 0-2.7.2-3.2 0s-1.3-.2-1.6-.2c-.3 0-.7-.2-1.1-.1-.4.1-1.1.9-1.1.9l1.4.2s-.3.3.3.5 1.5 0 1.5 0l3.6-.7z"/><path fill="#0A0A0A" stroke="#0A0A0A" stroke-width="1.782" d="M98.2 64.5c-.6.2-1 .7-1.5 1.1-.6.4-1.2.6-1.8.9-1.3.7-2.7 1.4-3.9 2.3-1.4 1-.6 2 .6 2.6.7.3 1 .4 1.7.3.5 0 1.1-.1 1.5.1.1 1.2-.9 2.4-.6 3.6.1.7.9.6 1.5.3.3-.2.5-.6.7-.8.3-.4.7-.5 1-.8.5-.6.7-1.1 1.6-1.3.7-.1 1.2.4 1.4 1.1.1.5-.1 1.2-.2 1.7-.1.6-.2 1.2-.4 1.8-.5 1.4-.6 2.5 1.1 3 1.2.4 2.5.3 3.4-.6.5-.4.7-1.1 1.4-1.2.2 0 .7.2.8.3.4.3.3.7.5 1 .7.8 2.7.6 3.5.1 1-.5 1.4-1.5 1.5-2.5 0-.3.2-.9.1-1.2-.1-.6-.5-.8-.6-1.4-.1-.5.1-.8.3-1.3.2-.4 0-1 .1-1.4.3-.6 2-.8 2.5-.6-.3.6 0 1 .6.8 0 .3-.3 1.1-.5 1.3-.2.2-.6.2-.6.5-.1.3.3.5.4.7.2.6-.1.9.6 1.2.3.1 1 .4 1.4.4.8-.1.7-1.7.9-2.4.1-.7.7-2 .4-2.8-.1-.2-.4-.3-.4-.5-.1-.2 0-.5 0-.7-.1-.4-.6-1.1-.5-1.4 0-.1.6-.3.7-.5.1-.2.2-.5.3-.7.1-.4.3-.9.2-1.4l-.3-2.7c-.1-1.2-1.2-1.1-2.2-1.2.2.9-.1 2.1-.1 3 0 .4.4 3.5-.5 2.8-.2-.1-.4-1.3-.4-1.5 0-.6.3-1 .2-1.6-.1-.6-.3-1-.6-1.5-.2-.4-.4-.4-.7-.7-.1-.1-.5-.6-.6-.6-.8-.3-2.1 2.7-2.5.6 0-.3.2-.4.1-.7 0-.1-.7-.2-.8-.2-.6-.1-1.2.1-1.8.1-1.1.1-1.8-.2-2.9-.1-.6 0-3.3-.4-3.6-.8-.1.6 1 2.1-1.1 2.5-.4.1-.5-.4-.9-.3-.3.1-.6.7-.7 1" opacity=".11"/><path fill="#98BE29" d="M108.1 63.8c-.6.8-.5 2.8-.6 3.8-.1.9-.6 2.7.1 3.5 1.5-.5 1.4-3.5 1.7-4.7.2-.8.5-1.6.5-2.4 0-.6-.1-.7-.6-.8-.4 0-.9.1-1.1.6m10.1 1c.5.4 1.2.8 1.6 1.4.3.5.5 1.2.9 1.7.2.3.6.5.8.7.1.1.5.6.6.7.2.1 1.4-.3 1.6-.4-.2-.5-.8-.7-1.1-1.2-.3-.5-.6-1.1-.9-1.5-.4-.5-.8-1.1-1.3-1.5-.5-.4-1.1-.6-1.6-.9-.4-.3-.9-1.2-1.3-1.3-.6-.2-1.1.5-1 .9.1 1 1.5 2.3 2.5 2.2m.9-3.1c.9.1 2.1.4 3 .7 1 .3 2 .4 3 .7 1.2.4 2.4 1 3.6 1.5.8.3 2.3.8 2.5 1.6-.4.5-1 .7-1.5.4-.5-.4-.9-1-1.6-1.3-1.2-.7-2.5-1.2-3.8-1.7-1.1-.5-2.2-1-3.4-1.3-1-.3-2.7.2-3.2-.8.4-.2 1.1.4 1.6.4m14 0c-.9.1-1.9-.4-2.8-.4-1 0-2-.1-2.9-.1-1.5-.1-3 .4-4.4.3-1-.1-2.5.1-3.4-.5.5-.4.8-.3 1.3-.3.3 0 .4.1.7.1.3 0 .7-.1 1-.1 1.1 0 2.2.1 3.3-.1 1.1-.2 2.3-.2 3.4 0 .8.1 1.6.3 2.4.3.3 0 .7-.2 1 0 .1-.1.5.8.4.8zm-41.8-.6c-.4 0-1 .7-1.4.9-.5.3-.9.6-1.4.9-1 .7-2.1 1.2-3.2 1.7-.8.4-2 .4-2.8 1-.6.6-.3.8-1.1.5-.4-.1-1.4-.2-1-.9.3-.4 1-.2 1.4-.2.6-.1.9-.3 1.4-.6.9-.6 1.9-1.1 2.9-1.4 1-.3 2-.9 3-1.4.2-.1.5-.1.7-.2.2-.1.4-.5.6-.6.8-.4.7.4.3.9"/><path fill="#BEEF0C" d="M113.1 55.1s-.1-2.7-.4-3.7c-.2-1-6-3.1-7.4-3.2-1.5-.1-6.4.9-6.8 1.4-.5.4-.7 3.4-.6 3.9.1.5.1 2 .1 2h7.3c1 0 4.3.6 4.7.8.3.2 3.1-1.2 3.1-1.2z"/><path fill="#BBE50A" d="M97.9 56c.1-.3-.6-2 5.2-1.9 5.9.1 7.9-.2 8.5.5.6.6 1.3 1.4 1 2.5-.3 1.2-1.2 3.5-2 3.7-.8.3-2.2.9-4.6 1-1.4.1-4.7 0-5.9-1-.6-.5-1.6-1.3-1.8-1.8-.2-.5-.3-1.6-.4-2-.1-.4 0-1 0-1z"/><path fill="#AFDD07" d="M87.5 59.3c0 .4-.4.7-1 .7-.5 0-1-.3-1-.7 0-.4.4-.7 1-.7s1 .3 1 .7z"/><ellipse cx="88.5" cy="60" fill="#AFDD07" rx="1" ry=".7"/><path fill="#AFDD07" d="M91.8 60.8c0 .6-.6 1.1-1.3 1.1-.7 0-1.3-.5-1.3-1.1 0-.6.6-1.1 1.3-1.1.7 0 1.3.5 1.3 1.1z"/><path fill="#B1E00A" d="M97.9 55.3s-1.3.1-1.2 1.6c.1 1.5.6 2.5.9 2.8.3.3.8 1 .8 1s-.4.4-.4.3c-.1-.1-2.3.4-2.7.4-.4 0-1.3.3-1.7.5-.3.1-.7.3-.6.5.1.2.7.3 1.2.3s1.2-.4 1.2-.4l.8-.2s.1.1 0 .3c-.1.2-.7.5-.2.7.5.2 1.7 0 1.7 0l.3-.7s.6-.6.9-.3c.2.2.7.9.6 1.1-.1.2.4.6.9.3s1.1-.5.7-.9c-.4-.4-1.5-1.2-1.6-1.3-.1-.1-.1-1.2-.1-1.2s-1-1.9-1.1-2.3c-.1-.4-.2-1.7-.2-1.7l-.2-.8zm13.7 4.7v1.2l-.6.6s-1 .5-1 .8c0 .3.6 1 .8.9.2-.1.6-.4.8-.5.2-.1.4-.6.4-.6s.6-.3.7-.2c.1.1-.1.6.4.8.5.2.8.2 1.3.1s.9-.2.9-.5-.4-.6-.4-.6.6.4 1 .5c.4 0 .9.2 1.1.1.3-.1 1-.2.8-.6-.1-.4-.6-.8-1-.9-.4-.1-1.8-.2-2-.3-.2 0-1-.1-1.3-.1-.2 0-.7.3-.8 0-.1-.3.3-.3.4-.7.1-.4.6-1 .8-1.4.2-.4.6-1.9.3-2.1-.3-.2-1-1.3-1.1-1.4 0-.1-.8.2-.8.2s.4 1.5.3 1.8c-.1.3-.9 2-.9 2l-.1.9z"/><path fill="#B1E00A" d="M111.9 47.6s3.8-3.4 4.8-2.9 1.4 4.3 1 6.4c-.4 2.1-1.1 7-.9 7.5.3.5 1.1 1.5 2.1 1.4 1-.1 2.5-.3 2.5-.3s1.5-.1 1.8-.4c.4-.3 1-.4 1.1 0 .1.3.6.2.4.7-.2.5-.1 1-.6.8-.4-.2-.9-.5-.9-.5s.2.3.2.5c0 .3-.2.6-.6.7-.4.1-1 .1-1.3 0-.3-.1-.3-.8-.3-.8h-.7s0 .1.1.5c.1.3.1.7-.3.7s-.9 0-1.3-.1-.5-.5-.5-.5l-1.3.1-2.1-.6.1-11.7s-2.2 4.2-2.7 4.3c-.4.1-.3-1.7-.4-2.2-.1-.4.3-.8.3-.8l-.3-1.2c.2-.5-.2-1.6-.2-1.6z"/><path fill="#FCFCFC" d="M104.5 49.7s-.5 1.1-.8 1.2c-.3.1-2.4-.1-2.6 0-.3.1-1.6.5-1.8 0-.2-.5-.8-.9-.8-.9v-.3s2.4-.2 2.9-.2 2 .2 2.4 0c.4-.1.7.2.7.2z"/><path fill="#ACD80B" d="M103.7 50.9s-1.7.9-2.3 1.4c-.6.4-1.3.4-1.6.3-.3-.1-1.3-1.4-1.3-1.4v-.8s.8-.6.8 0 .8.9 1.3.7c.5-.2 1.9-.2 1.9-.2h1.2zm3.6-.1l4.7-.5.8.1s-.3.5-.4.7c-.1.2-1 1.1-1 1.1s-.8.4-1.7.3c-.8-.1-3.3-1.8-3.3-1.8"/><path fill="#FCFCFC" d="M98.5 49.6l.1 1.2c0 .1 1.7.6 2.7.5 1-.1 1.9 0 1.9 0s1.1-.4 1.3-1.3c.1-.3-.4-.9-.4-.9s-3.5-.2-3.8-.2c-.3 0-1.4.2-1.7.2-.2-.1-.2.4-.2.4"/><path fill="#ACD80B" d="M98.4 49.3s1-3.1 3.3-2.9c2.3.1 2.9 1.7 2.9 2.2v.8l-6 .4-.2-.5z"/><path fill="#FCFCFC" d="M112.4 49.7s.4.8-.1 1c-.6.2-1.7.1-2.2.2-.5.1-2.2.2-2.4.2-.1 0-1-.1-1.2-.3-.2-.3-.3-.5-.3-.8 0-.3 1.4-1.2 2-1.1.6.1 2.1-.1 2.5 0 .4.1 1.7.8 1.7.8z"/><path fill="#ACD80B" d="M106.2 49.9s0-1.6.6-2.2c.6-.6 1.7-1.3 2.7-1.1 1.1.2 2.4 1 2.5 1.3.1.3.7 1.5.7 1.5l-6.5.5z"/><circle cx="109.6" cy="50.3" r=".4" fill="#677F03"/><path fill="#9DC105" d="M97.8 48.3c0 .3-.3.6-.6.6s-.6-.3-.6-.6.3-.6.6-.6.6.3.6.6zm-.5-1.5c0 .2-.1.3-.3.3-.2 0-.3-.1-.3-.3 0-.2.1-.3.3-.3.2 0 .3.2.3.3z"/><circle cx="98" cy="47.2" r=".3" fill="#9DC105"/><path fill="none" stroke="#9DC609" stroke-width="1.825" d="M95.4 48.2c.1-.5 0-1.1-.2-1.6M89.8 60c.7-.7 2.1.1 3-.2m-4.3-.4c.4-.5 1.2 0 1.7 0m30.3 1.3c-.3-.9-2.1-.6-2.2.4m3.5-1.2c.5 0 1.3-.2 1.7.2"/><path fill="#0A0A0A" stroke="#0A0A0A" stroke-width="1.782" d="M97.7 52c.1-.8-1.3-4.3-2.2-4.2-1.2.1-.3 3.4-.3 4.1 0 1.4.4 2.9.3 4.3-.1 1.5.3 3.2-1.1 4.2-.6.4-1.5.6-2.1.9-.2.1-1 .2-1.1.4-.5.6.3.4.7.3.7-.2 1.5-.8 2.1-1.2.6-.4 1.4-.7 1.7-1.2.3-.5.4-1.5.3-2.1-.1-.8-.1-1.4-.2-2.2 0-.7-.1-1.4-.1-2.1-.1-.8-.1-1.4-.1-2.3 0-.7.4-1.5.1-2.2 1 1 1.6 2.6 2.3 3.7.1-.1-.3-.2-.3-.3m14.9-1c.1.7.3 1.4.4 2 1-1.1 1.5-3.7 2.5-4.8.9.2-.2 5.6-.2 6.5 0 .5 0 1 .1 1.5v1.3c0 .8-.4 2.9 0 3.4.7.8 2.2-.2 3.1.2-.1-1.2-2.4.6-2.7-1.1-.2-1.1.2-1.6.2-3.3 0-1.2-.2-2.8-.1-4.1.1-1.4 0-2.4-.5-3.7-.9.1-1.1.6-1.3 1.2-.3.7-.8 1.3-1.2 1.9 0-.4-.3-.8-.5-1.1" opacity=".11"/><path fill="none" stroke="#9DC609" stroke-width="1.825" d="M116 46.9c0 .1-.3.5-.4.7-.1.3-.1.6-.2.9"/><path fill="#ACD80B" d="M98.5 50.9c.1 1.2 1.3 1.8 2.3 1.6 1.1-.2 2.8-.2 3.1-1.6-.8 0-2 .4-2.9.4-.7.1-1.7-.1-2.5-.4m8.3.2c.8.9 2 1.4 3.2 1.4.5 0 1.1-.1 1.6-.4.4-.3 1.2-1 1-1.5-.2 0-.4.3-.7.4-.2.1-.5.1-.7.1-.5.1-1 .1-1.5.1h-1.4c-.5 0-1 0-1.5-.1"/><circle cx="101.5" cy="50.2" r=".4" fill="#677F03"/></g></switch></svg>
