<svg xmlns="http://www.w3.org/2000/svg" version="1.0" viewBox="0 129 88 70"><switch><g><ellipse cx="18.9" cy="175.5" fill="#FCF9CF" rx="16.8" ry="18.6"/><path fill="#A7CF59" stroke="#346867" stroke-width=".5" d="M65.5 189.4s1.2 4.7.8 5.6c-.5 1-24.5 4.4-33.2.3-1.4-.5-3.3-2.7-3.3-2.7l.5-3.7 35.2.5z"/><path fill="#A7CF59" stroke="#346867" stroke-width=".5" d="M65.3 141.9c.5 8.3 1.7 18.2 1.2 24.5-.6 7-1.2 8.5-.1 15.2.7 4 1.8 8.5-3 10-5.2 1.7-10.6 2.3-15.9 1.5-2.1-.3-4.4-.8-6.5-.8-1.9 0-6.9-1-8.7-1.5-4.8-1.4-2.7-4.9-2.9-9.3-.4-8.2-1.5-18 .5-26.2v-3.4s-.5-10.3-5.4-13.4c-.7-.3.3-2 1-2.7.2-.2.4-.5.7-.7 2.1-2.1 4.9-4.3 7.3-4.7 0 0 1.2 2.7 5.5 5.1 4.4 2.4 16.4 1.2 18.3.2 1.9-1 2.9-5.3 2.9-5.3 3.2 2.4 7.7 3.1 9.8 6.9 2.9 5.1 4.1 11.6 5.5 17.3 1.4 5.7 3.7 12.1 6.1 17.5 2 4.6 4.4 6.9-.8 10-9.1 5.5-10.9-11.4-14.5-16.4"/><path fill="#A7CF59" stroke="#346867" stroke-width=".5" d="M83.5 176.1c1.5 2.8 3.6 4.5 1.5 7.9-1.4 2.2-5.2 3.6-7.8 2.4-1.7-.8-4.4-4.5-3.4-6.4 1.1-2.3 4.5-3.4 7.6-4.2-.1 0 1.7-.4 2.1.3z"/><linearGradient id="a" x1="34.026" x2="18.228" y1="18.346" y2="49.746" gradientTransform="matrix(1.8508 0 0 -1.8508 28.473 238.752)" gradientUnits="userSpaceOnUse"><stop offset="0" stop-color="#a7cf59"/><stop offset="1" stop-color="#346867"/></linearGradient><path fill="url(#a)" stroke="#346867" stroke-width=".5" d="M82.3 184.2c-1.1.8-4.3 1.7-5.4.3.6-1.4 5.9-4.8 7-3.4 0 0 .3 1.8-1.6 3.1z"/><path fill="#359A47" d="M77.3 184c-.5-.1-1-.4-1.5-1s-1-1.1-1.2-1.7-.6-1.3-.6-1.9v-.1h.3v.1c0 .6.3 1.2.6 1.7.3.6.7 1.1 1.1 1.6.5.6 1 .9 1.2.9h.1v.4zm-1.3-1c.2.3.5.5.7.6-.2-.2-.5-.4-.7-.6zm-.8-.8c.2.3.5.6.7.8-.2-.3-.5-.5-.7-.8zm3.6.6c-.6-.3-1-.8-1.2-1.1-.5-.6-.9-1.2-1.1-1.8-.2-.4-.3-.8-.4-1.3v-.3c0-.1-.1-.3-.1-.5v-.1h.3v.1c0 .1 0 .3.1.4v.3c.1.4.2.8.4 1.2.3.7.7 1.3 1.1 1.7.3.3.7.8 1 1h.1c0 .1-.2.4-.2.4zm-.9-.8c.3.3.6.6.9.8-.4-.3-.7-.6-.9-.8zm-1.4-2.4c0 .1.1.1.1.2.2.4.4.8.7 1.2-.3-.4-.5-.8-.7-1.2-.1 0-.1-.1-.1-.2zm4.5 1.9c0-.4-.2-.9-.3-1.2-.2-.6-.5-1.3-.9-1.8-.1-.1-.2-.3-.3-.4-.3-.4-.5-.9-.9-1.1h-.1l.2-.2h.3c.5.3.7.8 1 1.2.1.1.2.3.3.4.4.6.7 1.4.9 1.8.1.4.3.8.3 1.2v.1H81zm-.4-2.3c.2.4.3.8.5 1.1.1.3.3.7.3 1.1 0-.3-.2-.8-.3-1.1-.2-.4-.4-.8-.5-1.1zm3.5 2.2l-.3-.1v-.1c.2-.7.2-1.7-.1-2.3 0-.1-.1-.3-.1-.4-.2-.5-.3-1.1-.7-1.4-.1-.1-.2-.3-.3-.4-.2-.3-.4-.5-.7-.5h-.1v-.2h.2c.5 0 .7.3.9.6.1.1.2.3.3.4.5.4.6 1 .8 1.6 0 .2.1.3.1.4.2.5.2 1.5 0 2.4zm-.4-2.9c0 .1.1.2.1.3 0 .1.1.2.1.3 0-.1-.1-.2-.1-.3 0-.1 0-.2-.1-.3zm-.8-1.8l.2.2.1.1-.1-.1c-.2-.1-.2-.1-.2-.2zm-.9-.6c.3 0 .5.2.7.4-.2-.3-.4-.4-.7-.4zm1.8 6.5v-.2l.2-.1c.7-.2 1.6-.5 1.6-1.3v-.1h.3v.1c-.1 1-1.1 1.4-1.8 1.6h-.3zm1.1 1.7c-.3 0-.6-.2-.8-.3-.3-.2-.9-.5-.9-.8v-.1h.3v.1c0 .1.3.3.7.5.2.1.4.2.6.2h.1v.4zm-.6-.3c.1.1.3.1.5.2-.2-.1-.4-.2-.5-.2zm-.7-.5c.1.1.4.2.6.4-.2-.1-.5-.2-.6-.4zm-.9 2.7c-.6-.3-1.1-1-1.1-1.6v-.1h.3v.1c0 .5.5 1 .9 1.3h.1l-.2.3zm-1-1.4c0 .5.5 1 .9 1.3-.4-.3-.9-.8-.9-1.3zm-2.3 2.2c-.2-.5-.3-1.3-.1-1.7v-.1l.3.1v.1c-.1.3-.1 1 .1 1.4v.1l-.3.1zm-.1-1c0 .2 0 .5.1.7-.1-.3-.1-.6-.1-.7zm-3.6-1c-.3 0-.5-.1-.7-.2l.2-.2h.1c.1.1.3.1.5.1h.4c.1 0 .5 0 .6-.1v-.1l.2.2v.1c-.2.2-.5.2-.8.2h-.5zm-42.1 11c-.8-1.3-.8-2.8-.8-4.2v-.7h.3v.7c0 1.4 0 2.8.7 4v.1l-.2.1zm4 1.1c-.4-.5-.4-1.2-.5-1.7 0-.2 0-.4-.1-.6v-.2c-.1-.4-.2-.9-.2-1.3v-.4c0-.3 0-.7-.1-.9l.3-.1v.1c.1.2.1.6.1 1v.4c0 .4.1.9.2 1.3v.2c0 .2.1.4.1.6.1.6.2 1.3.4 1.6v.1l-.2-.1zm-.4-1.5c.1.5.2 1 .4 1.4-.2-.4-.3-1-.4-1.4zm-.2-1.7c0 .2.1.4.1.6v.2-.2c-.1-.1-.1-.4-.1-.6zm-.1-1c0-.3 0-.6-.1-.8 0 .3.1.6.1.8zm4.5 4.6h-.3v-.1c0-.6-.1-1.2-.1-1.8v-.1c0-.4-.1-.8-.2-1.2-.1-.6-.3-1.3-.2-1.9v-.1h.3v.1c-.1.6.1 1.2.2 1.8.1.4.2.8.2 1.2v.1c0 .7.1 1.3.1 2zm-.7-4.9c0 .6.1 1.2.2 1.7.1.2.1.5.1.7 0-.2-.1-.5-.1-.7-.1-.5-.3-1.2-.2-1.7zm4.5 5l-.3-.1v-.1c.2-.4.2-1.1.2-1.6v-.3c0-.5-.1-1-.1-1.5-.1-.5-.2-1-.1-1.4v-.1h.3v.1c0 .4.1.9.1 1.4.1.5.2 1 .1 1.5v.3c.1.6 0 1.3-.2 1.8zm-.1-.1c.1-.2.1-.5.2-.7 0 .2-.1.4-.2.7zm0-3.6c0 .1 0 .2.1.3 0-.1 0-.2-.1-.3zm3.1 3.7v-.3h.1c.5 0 1-1.5 1-2 .1-.6 0-1.1-.4-1.6v-.1l.2-.1v.1c.4.6.5 1.2.4 1.7.1 0-.3 2.2-1.3 2.3zm.2-.2c.6-.1 1-1.7 1-2.1v-.7.7c0 .4-.4 2-1 2.1zm4.5 0l-.2-.1v-.1c.4-.7.2-1.7 0-2.5-.1-.4-.2-.8-.2-1.1v-.1h.3v.1c0 .3.1.7.2 1 .2 1 .4 1.9-.1 2.8zm-.2-3.7c0 .2.1.5.1.8 0-.3-.1-.6-.1-.8zM57 197h-.3v-.1c0-.1 0-.2.1-.3.1-.4.1-.8.1-1.2s-.1-.7-.3-1.1c-.1-.4-.3-.8-.3-1.1v-.1h.3v.1c0 .3.1.7.2 1.1.1.4.3.8.3 1.1 0 .5-.1.9-.1 1.3v.1c.1-.1 0 0 0 .2zm0-.6v.2-.2zm0-1.6c.1.2.1.4.1.6 0-.2-.1-.4-.1-.6zm-.3-.7c0 .1.1.2.1.3 0 .1.1.2.1.3 0-.1-.1-.2-.1-.3 0-.2 0-.3-.1-.3zm4.4 2.4h-.3v-.1c0-.6 0-1.3-.2-1.7-.1-.4-.3-.8-.6-1.1-.2-.3-.4-.5-.5-.8v-.1l.3-.1v.1c.1.3.3.5.5.8.3.4.5.7.6 1.2.1.4.2 1.2.2 1.8zm-.2-.2v-.9.9zm-1.2-3.6c.1.3.3.5.5.7l.1.1-.1-.1c-.2-.2-.4-.4-.5-.7zm4.6 3.3l-.3-.1v-.1c.4-.9-.1-2.1-.5-3.1l-.3-.9v-.1l.3-.1v.1l.3.9c.4 1 .9 2.3.5 3.4zm-1-4.1c.1.2.2.5.3.8.3.6.6 1.4.6 2-.1-.7-.4-1.4-.6-2-.1-.3-.2-.6-.3-.8zm-35.2-53.7l.3.9-.3-.9z"/><path fill="#333" d="M43.8 149.4c-.6-.4-1.5-2.6-2.5-3.2-1.9 2-4.1 6.9-4.4 9.8-.5 4.6 1.9 6.3 5.7 8.2 7.6 3.7 19.3-.3 16.7-10.4-.5-1.9-1.3-4.3-2.4-6-1.4-2.2-1.6-1.2-2.9.9-1.2 1.9-1.1 2.9-3.5 3.1-1.8.2-3.7 0-5.5.2l-1.2-2.6z"/><path fill="#6598CB" d="M44.9 156.2c0-.5-.4-.9-.9-.9h-1.1c-.5 0-.9.4-.9.9s.4.9.9.9H44c.5 0 .9-.4.9-.9zm10 0c0-.5-.4-.9-.9-.9h-1.1c-.5 0-.9.4-.9.9s.4.9.9.9H54c.5 0 .9-.4.9-.9z"/><path fill="#CCCBCB" d="M48 160.6v-.2c.2 0 .4-.2.5-.4h.2c-.1.3-.3.5-.7.6zm-8.9-7.7c0-.2.1-.2.3-.2.1 0 .3-.1.4-.1l.1.2c-.1 0-.3.1-.4.1h-.4zm1.7-.7h.5v.2h-.5v-.2zm1.8 0h-.2v-.2c.2 0 .4 0 .5-.1l.1.2s-.2.1-.4.1zm.1-1.1c0-.2-.1-.4-.3-.5l.2-.2c.2.2.3.4.3.7h-.2zm-.7-1.7h-.2c0-.1 0-.3-.1-.4l.2-.1c0 .1.1.3.1.5zm-1.8.2l-.1-.2c.2-.2.5-.4.6-.7l.2.1c-.2.3-.4.6-.7.8zm-1.1 1.7l-.2-.1c.2-.2.3-.5.4-.7l.2.1c0 .2-.2.5-.4.7zm14.7-.7l.2.1-.3.7-.2-.1.3-.7zm.8-.8l-.2-.2c.1-.1.1-.2.1-.3l.2-.1c.1.4 0 .5-.1.6zm.8-1.5v-.2c.1 0 .2-.1.2-.2h.2c-.1.2-.3.3-.4.4zm1.3.8c-.1-.3-.3-.6-.4-.7l.2-.2c.2.2.4.5.5.8l-.3.1zm.9 1.8c-.2-.2-.3-.4-.3-.7h.2c0 .2.1.4.3.5l-.2.2zm.3 1.1c-.2-.1-.3-.2-.4-.4l.2-.1c0 .1.1.2.2.2v.3zm-1.1.1c-.1-.1-.4-.2-.7-.1l-.1-.2c.4-.1.7 0 .8.3.1-.1 0 0 0 0zm-2.2-.5h.5v.2h-.5v-.2z"/><path fill="#6598CB" d="M41.7 155.8h.6v.5h-.6v-.5zm.1.5h.5v.5h-.5v-.5zm2.6-.6h.9v.5h-.9v-.5zm.1.5h.8v.5h-.8v-.5zm7.7-.7l.1.5-.5.2-.1-.5.5-.2zm-.5.7h.8v.5h-.8v-.5zm2.9-.1v-.5c.2 0 .4 0 .5-.1l.2.4c-.2.2-.4.2-.7.2zm-.3.1h.9v.5h-.9v-.5z"/><path fill="#A7CF59" stroke="#346867" stroke-width=".5" d="M25.9 135.4c-3.7 3-9.3 14-10.6 20.7-1.1 6.4-2.9 12.4-2.2 18.9.3 2.9.5 5.9 1 8.8.5 2.8 1.3 2.7 4.1 2.6 4.2-.2 6-.6 6-5 0-4 0-8.1.3-12 .2-3.9.9-7.1 2.6-10.5 0 0 1.5-3.6 2.9-5.4 0-.2 3.9-16.1-4.1-18.1z"/><path fill="#A7CF59" stroke="#346867" stroke-width=".5" d="M13.3 182.8c-.5 1.3-.1 3.5.5 4.7.8 1.4 3.5 1 5 1.1 1.6.1 4.3-.2 5.1-1.6.4-.6.4-1.7.3-2.4s0-1.5-.1-2.3c0 0-4 .4-6.3.4-2.3.1-4.5.1-4.5.1z"/><path fill="#359A47" d="M16.2 188.8c-.2-.2-.4-.4-.5-.6v-.1c-.2-.4-.4-.7-.6-1.1l-.1-.1c-.2-.6-.5-1.3-.6-1.8-.1-.4 0-.8 0-1.2 0-.1.1-.3.1-.4.1-.2.1-.4.1-.5v-.1h.3v.1c0 .2-.1.4-.1.6 0 .1-.1.2-.1.4-.1.3-.1.7 0 1.1.1.6.3 1.2.6 1.7l.1.1c.1.4.4.7.6 1.1v.1c.1.2.2.4.3.4h.1c-.1 0-.2.3-.2.3zm-.5-.9c.1.1.1.2.1.2v.1c.1.1.2.3.3.4-.1-.1-.2-.3-.3-.4v-.1c0-.1-.1-.1-.1-.2zm-1.1-3.8v1c.1.6.3 1.3.6 1.8v.1-.1c-.2-.6-.5-1.2-.6-1.8-.1-.3-.1-.7 0-1zm2.5 4.7l-.3-.1v-.1c.1-.2 0-.4 0-.6v-1.6c0-1.2 0-2.3-.2-3.5v-.1h.3v.1c.2 1.2.2 2.3.2 3.5v1.5c.1.4.1.6 0 .9zm-.1-2.1v1.4-1.4zm-.2-3.6c.2 1.1.2 2.2.2 3.3 0-1 0-2.1-.2-3.3zm1.9 5.8v-.3h.1s.2-.2.5-1.4v-.1c.1-.6.2-1.2.2-1.8-.1-.6-.2-1.6-.5-2.2v-.1l.3-.1v.1c.4.8.5 1.7.6 2.3.1.7-.1 1.3-.2 1.9v.1c-.2.9-.4 1.4-.6 1.6h-.4zm.4-.6c-.1.3-.2.4-.3.5.1-.1.2-.3.3-.5zm.4-3.5c0 .2.1.4.1.6-.1-.2-.1-.4-.1-.6zm2.3 3.9l-.2-.2h.1c.4-.4.5-1.2.6-1.7.1-.8.1-1.6 0-1.9v-.2c0-.3-.1-.6-.1-.9 0-.1-.1-.2-.1-.4-.1-.2-.2-.3-.2-.5v-.1l.3-.1v.1c0 .2.1.3.2.5.1.1.1.3.2.4.1.3.1.6.2.9v.2c.1.4.1 1.3 0 2-.5.5-.6 1.4-1 1.9zm0-.2c.3-.4.5-1 .6-1.5-.2.5-.3 1.1-.6 1.5zm.4-5c.1.3.1.6.1.8-.1-.2-.1-.5-.1-.8z"/><path fill="none" stroke="#346867" stroke-width=".5" d="M68 135.4c-1.1 1.8-2.7 3.4-2.9 5.6"/><ellipse cx="18.9" cy="175.3" fill="none" stroke="#010101" stroke-width=".75" rx="16.8" ry="18.6"/><path fill="#A7CF59" stroke="#346867" stroke-width=".5" d="M33.6 130.2c-2.1 1.4 2 4.8 3 5.4 2.5 1.8 5.4 2.3 8.5 2.3 2.7 0 5.6.3 8.2-.2 1.7-.4 4.5-.8 5.9-2 1-.9 2.9-4.4 1.4-5.3-1-.7-3.3 2.7-4.4 3.5-2.1 1.4-4.7 1.4-7.1 1.4-2.8 0-5.3-.1-7.9-.9-1.6-.5-2.9-1.2-4.3-2.4-.7-.6-3.1-3-3.5-1.6"/><path fill="#359A47" d="M33.9 133.3l-.3-.1c.3-1 1-1.8 1.8-2.3l.1.2c-.7.6-1.4 1.4-1.6 2.2zm2.1 2.2c0-1 .7-2 1.2-2.9l.1-.1.2.1-.1.1c-.6.9-1.2 1.9-1.1 2.8H36zm3.5 1.7l-.3-.2c.3-.5.4-1.1.4-1.7.1-.5.1-1.1.4-1.5l.2.1c-.2.4-.3.9-.3 1.4-.1.8-.1 1.3-.4 1.9zm3.3.7l-.2-.1c.3-.7.2-2.1-.1-3h.2c.3.8.5 2.3.1 3.1zm3.7 0l-.2-.1c.3-.7.2-1.8-.1-2.6l.2-.1c.3.9.3 2.1.1 2.8zm3.8 0l-.3-.1c.2-.5.1-1.1.1-1.6 0-.3-.1-.6-.1-1h.3c0 .3 0 .6.1.9.1.7.1 1.2-.1 1.8zm3.5-.3c0-.9-.1-1.9-.7-2.6l.2-.2c.7.7.8 1.8.8 2.7l-.3.1zm3.7-.9c-.2-1.2-.9-2.1-1.4-2.7l.1-.2c.6.6 1.3 1.6 1.5 2.9h-.2zm2.6-2.6c-.3-.9-1.3-1.7-2.2-1.9l.1-.3c1 .3 2 1.2 2.4 2.1l-.3.1z"/></g></switch></svg>
