<svg xmlns="http://www.w3.org/2000/svg" version="1.0" viewBox="0 130 218.9 127.1"><switch><g><path fill="#FACBCA" stroke="#663533" stroke-width=".25" d="M33.4 225.1c-2.2 4.7-5.7 8.1-6.3 13.6-.3 2.4-.6 5.3.5 7.6 1.1 2.4 2.7 3.3 2.9 6.1-2-.1-4.6 1-6.5.3-1.6-.6-2.7-3.5-3.8-4.9.5-.1 1.2-.6 1.6-.6-.5-.1-.8-.4-1.3-.5 2.2-1.6.1-10.2-.6-12.8-1-3.4-3.1-9.5-1.7-12.9"/><path fill="#663533" d="M29.3 248.7c.6 1.3 1.7 2.8 2.1 4.2-.3-.1-.7.1-1-.1 0 .3-.2.6-.2 1-1.6.3-5.3-.2-6.1-1.6 2.2-.3 3.5-2 4.8-3.4"/><path fill="#FACBCA" stroke="#663533" stroke-width=".25" d="M84.2 228c-3.4 3-5.1 10.3-4.8 14.5.3 4.5 4 7.9 4.7 12.1-1.3.3-5 .8-6.1.2-.5-.3-1.2-2.2-1.6-2.8-.5-.6-1.5-1.1-2-1.6.3-.3.4-.3.8-.5-.3 0-.6-.2-1-.2 1.3-1.7-1.6-7.7-2.2-9.8-1.1-3.4-2.2-6.8-2.9-10.3m19.7-5.1c4.4-.4 8.5.4 13.3.1 2.7-.2 5.1-.4 7.5-1.3 2-.7 4.3 0 5.9-1.6.3-.1.1.3.1.3.2-.5.6-.7.7-1.3.1.2.2.5.2.7.5-.4.8-1.1.6-1.6l-4.2-3.4-10.1 2.1-14 6zm-78.5-29.9c-1.3-2-3.6-4.3-6.4-3.5-2.2.7-3.2 2.8-2.9 4.8s3.1 3.7 5 2c1.6-1.2.5-2.8-.8-3.6-1.5-.9-1.3-.4-2 .9.4.2 1.6.5 1.2 1.1-.4.8-1.1-.1-1.2-.6-.2-.9.5-2.2 1.5-2.5 1.6-.4 2.4.8 3.2 1.8.5.6.6 1 1.5.6.6-.3.9-.9.9-1.5m93.4 4.8c.1-4.2-2.8-7.5-6.6-9.4-.4 1.1-.1 2.2-.4 3.3-.3 1.2-1.2 2.2-.9 3.3"/><path fill="#FACBCA" stroke="#663533" stroke-width=".25" d="M105.7 218.9c5.4 1.6 13.6 1.6 15.5-.3 1.1-1 2.8-4.2 3-5.7.5-3.4-2.1-2.7-5-3.5-4.3-1.2-5.3-4.5-8.6-7.3-2.9-2.5-6.6-3.9-9.2-6.3-.3.1.1.5.1.6-.6-.3-1-.4-1.7-.4.2.4.2.8.4 1.2-1.6-.9-3.4-1-5.1-1.3l-2-.1c-3.4-.1-13.1-2.1-16.5-2-4.3.1-40.3-4.5-44.4-4.6-4.6-.1-9.6-1.1-13.8.6-19.5 7.9-14.7 20.7-14.7 20.7.4 2.8 2 10.9 3.9 13.1 4.7 5.1 1.6-2.6 6.5-.2 37.3 17.9 69.8 6.4 69.8 6.4 3.1-1.2 8.7-5.8 13.1-5.1"/><path fill="none" stroke="#663533" stroke-width=".25" d="M122.1 210c-1.1 0-1.6.8-1.8 1.7"/><path fill="#FACBCA" stroke="#663533" stroke-width=".25" d="M97.1 200.3c-2.1-3.4-5.5-12.9-11.4-10.7-.2 1.8 1.1 2.9 1 4.9-.2 1.8-1.5 3.3-1.5 5.4-.1 4.4 3.3 6.8 8 5.8"/><linearGradient id="a" x1="6654.316" x2="6656.325" y1="-346.744" y2="-347.484" gradientTransform="matrix(-4.0176 -.1178 -.1178 4.0176 26791.352 2378.35)" gradientUnits="userSpaceOnUse"><stop offset="0" stop-color="#ca9696"/><stop offset="1" stop-color="#facbca"/></linearGradient><path fill="url(#a)" stroke="#CA9696" stroke-width=".25" d="M86.9 200.3c-1 5.8 6.9 4.5 9.7 2.4-2.5-2.9-4.2-8.6-7.4-10.6" opacity=".51"/><path fill="#CA9696" d="M40.8 193.7c-.1.8.2 2.1 1.2 2.7-.5.1-.6.3-1.1.4-.2 0-.2 0 0 0 .8.3 1.5 1 2.1 1.7-.5-.1-1.1 0-1.6-.2.4.8-.1 2.6-.7 3.2-1.1.9-3.2.2-4.4.7-.1 0-1.6 1.2-1.6 1.2-.3 1.2.8.9.9 1.8.3 1.6-.9 2-1.2 3.4-.8.5-1.7.8-2.7.9-.4-1-2-2.8-3.4-2.5-.2.7-2.4 2.7-3.2 3-2.1.6-3-1.2-4.5-2-1.6-.7-3.3-.2-4.3-2-.7-1.2-.6-2.5-1.3-3.8-.2-.5-.7-1.5-.8-2-.4-1.8.1-.8.9-2.2.6-1 2.1-3.6 2.2-4.8 0-.6-.8-1.5-.6-1.8.4-1 1.2-.3 2.1-.7 1.5-.7 1.8-1.8 3.8-1.7 4.3.1 7.7-.2 11.3.1 4.4.3 5.3.7 6.8 4.4m4.6 12c.9-.6 1-1.6 2.2-1.7 1.2-.1 1.7.9 2.4 1.5 2.4 1.6 3.6-.2 5.9.8-.5.9-2 1.7-2.2 2.6-.4.8.4 2.6-.1 3.5-1.6 2.7-4.2.9-6.4 1.6-.2-.6-.2-1.5-.2-2.2-1.7 1-3.1-.8-3.5-2.4-.6-2.3.7-2.5 1.9-3.7" opacity=".51"/><path fill="#FFF" stroke="#996766" stroke-width=".25" d="M109.5 207c-1.2-1.8-4 .1-5 1.7 1.3.4 5.4 1.7 4.7-1.1"/><path fill="#1C3764" d="M108.8 209.2c.4-.3.5-2.1-.3-2.6s-1.8.4-2.4.9c0 .2 0 .3.1.5 1.1-.5 1.2.9.1.6 0 1 2.2 1.2 2.9.5"/><path fill="#996766" d="M122.1 213.9c.3-.6 1.3-2.1-.1-2.2-.3.9-.8 3.6.1 3.9 0-.5-.1-1-.1-1.6"/><path fill="none" stroke="#CA9696" stroke-width=".25" d="M117.5 209.1c-1.1.1-1.6 2.5-1.5 3.4m.2-4.4c-1.8.3-2.2 2.4-2.6 3.6"/><path fill="#FACBCA" stroke="#663533" stroke-width=".25" d="M80.4 228.3c-5.4 4.2-5.8 9.8-6.5 15.2-.3 2.2-1.7 5-1 7.2.6 1.8 3 3.4 3.6 5.3-1.5.3-6.8.7-8 0-.7-.5-.6-2.2-1.1-2.9-.5-.8-1.6-1.6-2.4-2.2.2-.3.4-.6.7-.9-.1 0-.7-.1-.7-.2.5-2.9 1.6-6.6.9-9.6-.5-2.4-3.7-7-2.4-9.1m-32.2-15.5c-.5 9.1-9.8 13.3-12.1 21.3-.8 3-1.6 7.1-.8 10.2.8 3.3 4.8 4.9 4.3 9-3.2.5-5.3-.1-7.3-.5-.6-2.5-2.1-4.2-4.1-5.9.5-.1.7-.4 1.2-.6-.4-.4-1.1-1.2-1.6-1.5.1-.1.3-.1.4-.1.2-2.6-1.2-5-2.2-7.4-.8-2.2-3.3-5.3-3.6-7.3-.2-2 .9-4.7.8-6.9-.1-2.6-.2-5.4-.8-7.8"/><path fill="#663533" d="M74.1 252.7c1.6.9 2.2 2.4 3 3.8-.4-.2-.9-.2-1.2-.4.2.3.2.7.4.9-2 .3-3.8-.1-5.5-.8 1.2-1 2.7-2.7 4.2-3.3m7.4-1.9c1.6.9 2.2 2.4 3 3.8-.4-.2-.8-.2-1.2-.4.2.3.2.7.4.9-2 .3-3.8-.1-5.5-.8 1.3-1.1 2.7-2.7 4.2-3.3m-61.6.6c.6 1.3 1.7 2.8 2.2 4.2-.3-.1-.7.1-1-.1 0 .3-.2.6-.2 1-1.6.3-5.3-.2-6.1-1.6 2.2-.3 3.5-2 4.8-3.3"/><path fill="#FACCCC" stroke="#986733" stroke-width=".5" d="M143.5 163c0 .6 3.2 1.8 4.7 3.8 1.5 2 7.4 11.9 9 14s3.2 3.8 4.1 4c.9.2-.2-3.8 2.8-7 3-3.1 12-11.2 19.8-9.7 7.7 1.5 13.2 7.1 14.3 9.1 1.1 2 3 5.5 3 5.5s.8-1.1 1.3-3.1c.5-2.1 0-5.9 1.2-7.3 1.2-1.4 8.1-20.6 9-21.8 1-1.1-12.7-19.9-36.4-19-26.7 1.2-33 26.2-32.8 31.5z"/><path fill="none" stroke="#AA7F7F" stroke-miterlimit="10" stroke-width=".25" d="M175.1 161.6c-4.1-.5-8.1 1.1-11.7 3.1-1 .6-2 1.2-2.8 2-1.1 1-2 2.1-2.6 3.4m28-9c1.2.5 2.4.9 3.4 1.4 2.8 1.1 5.9 2.5 7.1 5.2m-18.3-9.5c-3-.1-6.1.5-8.7 1.8-.3.1-.6.4-.5.7m.5 7.5c-1.2.5-2.4 1.3-3.4 2-3.5 2.5-6.7 5.9-7.3 10.1.1-.2.2-.3.3-.5m36.9-18.3c1.5 1.1 2.9 2.1 4.1 3.5 1.2 1.4 2 3.1 1.8 4.9 0 .1 0 .3.1.3.1.1.2-.2.1-.2m-20.6-4.6c1.4-.1 2.8.3 4.1.7 3.1 1 6.3 2.1 9 3.8 2.8 1.8 5 4.4 5.7 7.5.2-.2 0-.6-.3-.5M151.9 155c.3.3.6.6.9 1"/><path fill="#FACCCC" stroke="#986733" d="M160 152.2c.5.4.9 1.1 1 1.7m-4.6-6.1c-.7 0-1.3-.5-1.5-1.2m16.2-6.3c-.6-.6-1.4-1.2-2.1-1.5m-5.2 10.5c0-.7-.1-1.3-.5-1.8m9.4-5.6c.3-.7.2-1.5-.2-2.1m2.4-1.1c0-.7.1-1.6-.2-1.3m3.3 1.3c.1-.4.4-.8.7-1.2m3.8 9.2c.1-.5-.1-1-.5-1.3m4.5 1.9c.1-.8.3-1.5.4-2.2m7.8 4c.2-.4.3-.9.5-1.3 0-.1.1-.2.2-.2s0 .2 0 .1m2.7 4.2c.5-.7 1.3-1.1 2.1-1.1m-42 1.9c.2.2 1 1.2.6 1.1m37.1-3.8c.2-.5.6-.8 1.1-1"/><path fill="#FACCCC" stroke="#986733" stroke-width=".5" d="M166.1 192.3c.6.8 1.1 1.7 1.8 2.2.7.7 1.7 1.1 2.5 1.5 1.8.8 3.6 1.6 5.5 2 3.7.9 12.7-1.8 16-3.5.4-.2-3.9-2-4.2-2.4-2.9-1.6-2.4 1.4-5.8 1.2-3.7-.3-11.3-.8-14.5-2.8-1.2-.8-2.4-1.6-3.5-2.2-.3.2-.5.6-.6 1 1 .8 2 1.9 2.8 3z"/><path fill="#FACCCC" stroke="#986733" stroke-width=".5" d="M160.9 186c.6 3 3.4 5.2 6.3 6.5 1.7.8 3.3 1.3 5.2 1.7 2.8.6 6.7-.9 9.5-.8 4.6.2 8.5 2 12.7.2 3.1-1.3 6-3.7 6.7-7 .9-3.2-.4-6.7-2.5-9.2s-5.1-4.4-7.9-6.2c-2.4-1.4-4.7-2.8-7.4-3.1-2.2-.3-4.5.1-6.7.7-5.1 1.6-9.5 4.8-12.9 8.8-1.9 2.6-3.6 5.5-3 8.4z"/><path fill="#AA7F7F" d="M185.8 182.7c-.5 1.2-.3 2.5.5 3.4.7 1 2 1.6 3.2 1.5.5 0 1-.2 1.5-.4 1.3-.8 1.2-2.8.2-3.8-1-1.1-2.6-1.4-4.2-1.2-.6.1-1.4.4-1.3 1.1m-9.6-2.4c-2.1-.2-4.4.9-5.5 2.6-.3.4-.5.9-.4 1.3.2.9 1.3 1.3 2.1 1.5 1.7.3 3.6.3 4.7-.9.7-.7 1-1.8.5-2.8-.4-.9-1.6-1.4-2.5-1.1"/><path fill="#FFF" d="M171.9 180.2c-2.9.1-5.3 2.2-7.3 4.4-.4.4-.8.9-1.4 1-.6.1-1.3-.4-1.5-1-.3-.6-.3-1.2-.2-1.8.4-3.3 2.5-6.6 5.4-8.3 1.5-.9 3-1.5 4.5-2.4l2.1-1.5c2.9-2 6.7-2.6 10.2-1.7.3.1.7.2.9.4.4.4.5 1 .5 1.6 0 1.2 0 2.5-.5 3.5-.5 1.1-1.8 2-2.9 1.7-.5-.1-1-.4-1.4-.2-1 .3-.8 1.7-1.1 2.6-.4 1.3-1.8 1.8-3.2 1.8-1.5.2-2.7-.1-4.1-.1zm35.1-15.7c.1-3 4.5-11.5 4.7-13.5.4-3.7-5.9-7.3-8.4-10.2-2.5-2.9-6-4.9-9.7-6.2-3.9-1.4-8.1-2-12.3-1.8-.7 0-1.5.1-2.1.6-.6.7-.7 1.7-.8 2.5-.3 5.3-.5 10.6-.8 15.9 0 .7-.1 1.5.3 2.1.5.8 1.4 1.3 2.2 1.6 1.7.7 3.3 1.4 5 2.1 1.6.7 3.2 1.3 4.9 1.7 1.8.4 3.6.5 5.5.8 4.2.7 8.2 2.5 11.3 5.4" opacity=".11"/><ellipse cx="179.7" cy="167.4" fill="none" stroke="#DAA827" stroke-width="3" rx="37.4" ry="36.3"/><path fill="none" stroke="#DAA827" stroke-width="3" d="M121.6 209.8l30.3-17.4"/></g></switch></svg>
