<svg xmlns="http://www.w3.org/2000/svg" viewBox="0 0 47.1 34.2"><path fill="#D0E7C4" stroke="#669866" stroke-width=".25" d="M26.9 33.9c.7.3 1.6.3 2.4.2 2.2-.2 4.4-.3 6.7-.5.9-.1 1.8-.1 2.6-.5 1-.5 1.7-1.4 2.5-2.1 1.6-1.2 3.8-1.5 5.6-.6.9-.8.6-2.3-.2-3.2-.8-.9-1.8-1.5-2.6-2.4-2-2.2-2-6-4.7-7.4-.8-.4-1.6-.5-2.3-1-.7-.5-1.1-1.5-.6-2.2.7-.7 2-.2 2.7-.8.3-.3.4-.6.5-1 .5-2.1 1-4.2 1.6-6.4.2-.9.4-2-.2-2.7-.9-.9-2.7-1.2-2.4-2.3.1-.2.3-.4.2-.6 0-.3-.4-.4-.7-.4h-3.9c1 .7.9 2.2.4 3.2s-1.4 1.9-1.8 3c-.5 1.3-.5 3-1.8 3.5-1.4.5-2.6-1.2-4.1-1.5-2.3-.5-3.8 2.2-5.9 3.3-1.7.9-3.8.5-5.7 0-1-.2-2.1-.5-3-.9-1.4-.6-2.6-1.7-4-2.1-2-.6-4.1.1-6.1.8-1 .3-2.3 1-2.1 2.1 1 0 2.1.1 2.6.9.2.3.3.7.5 1 .5.9 1.5 1.3 2.3 1.9s1.4 1.8.7 2.6c2.1 1 4.4 2.2 5.1 4.4.3.8.4 1.8 1.1 2.2.6.4 1.6.3 1.8 1 .1.4-.1.8-.1 1.2-.1.7.4 1.5.9 2 1.8 1.9 4.7 2.6 7.2 2 .4-.1.7-.2 1.1-.2.3 0 .6.2.9.4 1 .8 1.5 2.5 2.8 3.1z"/></svg>
