<svg xmlns="http://www.w3.org/2000/svg" id="Capa_1" x="0" y="0" version="1.0" xml:space="preserve" viewBox="0 0 76 83"><style>.st0,.st1{stroke-miterlimit:10}.st0{fill:#3a6633;stroke:#33592a;stroke-width:.25}.st1{fill:#447938;stroke:#2b4c23}.st1,.st2,.st4{stroke-width:.25}.st2{fill:none;stroke:#2b4c23;stroke-miterlimit:10}.st4{fill:#61a84d;stroke:#3a671e}.st5{opacity:.2;fill:#d4d4d4}</style><switch><g><path d="M22.2 26.2c-3.3 0-6.9.6-9.2 3-1 1.1-1.7 2.4-2.2 3.9-.5 1.7-.7 3.5-1.9 4.8 2.6.5 5.3.9 7.9.6 1.1-.1 2.2-.3 3.3-.7 2.5-.8 4.9-2.2 6.3-4.4 1.5-2.4 1.3-5-.2-7.3.3-.2.7-.4.9-.7-.6 0-1.1.3-1.7.4-.9.4-2 .4-3.2.4z" class="st0"/><path d="M26.1 26c-4 4.5-8.1 9.1-13.6 11.7M23 29.5c.4 2.2-.1 4.5-1.4 6.3 0-.1.1-.2.1-.3m3.3-7.9c.5 1.1.6 2.3.4 3.5-.2 1.2-.6 2.3-1.2 3.3 0-.1 0-.3.1-.4m-2.2-4.8c-3.3-.3-6.7.5-9.5 2.4m10.9-4c-2.1-.2-4.3-.1-6.4.4-.8.2-1.7.5-2.3 1.1" class="st1"/><path d="M10.6 35c0 .1-.1.2-.1.2 1.7-1 3.1-2.2 5-2.8 1.5-.5 3.2-.5 4.7.1-.1 1.1-.3 2.4-.9 3.3-.3.4-.6.7-.9 1l-1 1-.1.1s-.1-.1 0-.1" class="st2"/><path d="M11.8 35.6c.9-.4 1.9-.7 2.8-.9.4-.1.9-.2 1.3-.1.3 0 .5.2.7.3" class="st1"/><path d="M39.9 42.9s.3 6.4 4.8 8.4S57 53.1 57 53.1s-.7-9.8-7-12.7-9.3-1.1-9.3-1.1l-.8 3.6z" class="st0"/><path d="M40.8 42.5s8.8 3.1 11.7 5.5c2.8 2.4 2.9 2.6 2.9 2.6m-13.5-8.8s3.9-1.4 6.8-.7m-7.5 1.7c-.3.9 0 1.9.4 2.7.4.8 1.1 1.5 1.8 2.2.7.7 1.4 1.5 2.1 2.2.1.1.4.2.4 0" class="st0"/><path d="M43.2 43.2c.7 1.5 1.4 3 2.5 4.2.6.6 1.3 1.1 2 1.6m-.5-3.9c.8 1.7 2 3.2 3.5 4.4m.2-2.8c.3 1.1.7 2.4 1.6 3.1h.1v-.1m.9-4.4c-2.2-1-4.8-1.3-7.1-.7m4.9-1.7c-1.6-.4-3.4-.2-5.1-.1-.8.1-1.7.2-2.5.2m10.9 4.9c-1.1-.6-2.3-1-3.6-1.2" class="st0"/><path d="M19.7 19.9s0-8.9-2.6-10.2S5.7 3.5.6 6.2C-2 7.6 3.8 20.6 7.2 21.8c3.4 1.2 10.2.5 11.3-.2 1.1-.6 1.2-1.7 1.2-1.7z" class="st1"/><path fill="#33592a" d="M37.3 39.7c-.4-2.3-.7-4.7-.3-7.1.4-2.3 1.4-4.7 3.3-6.2 1.4-1.1 3.1-1.7 4.3-2.9.1-.1.3-.3.5-.3s.3.1.4.3c1.8 1.9 2.5 4.6 2.1 7.2-.4 2.5-1.7 4.9-3.4 6.8-.8.9-1.7 1.7-2.8 2-1.5.4-3.1-.1-4.6.3.3-.4.5-.8.6-1.3.1-1-.6-2-.5-3.1"/><path d="M39.7 81.2s-2-4.3-1.7-11.3c.3-7 2.1-18.6 3.4-24.4S45.1 34 44 29.7c-1.1-4.3-2.7-9.2-2.7-9.2l-1.1.3 3.1 10.1s-2.7 10.8-3.1 13.6c-.3 2.8-3 14.5-3 14.5s-1.4 9-1.1 13.1c.3 4.1 1.4 9.2 1.4 9.2l2.2-.1zM43 60.9s4-3.4 6-8.9 2.1-5.8 2.1-5.8l.8.2s-1.2 4.9-3.4 8.7c-2.1 3.8-5.2 6.6-5.2 6.6l-.3-.8z" class="st1"/><path d="M41.3 46.5s8.3-7.8 11.2-14.2c2.9-6.4 4.6-11.1 4.6-11.1l.8.2s-2.6 10.2-7 15.9S41 47.9 41 47.9l.3-1.4zm1-13.2s-10.8-7.8-17-10.8-5.5-2.5-5.5-2.5l-.6.9s4.6 1.8 11.3 5.8 9.8 6.3 9.8 6.3l1.8 3.2.2-2.9zm-3.1 46.4s5-9 2.9-17.1c-2.1-8.1-5.5-15.4-5.5-15.4l.5-1.5s6 11 6.3 18.3c.3 7.3-2.1 16.5-2.1 16.5l-.8 1.1-.8-.5-.5-1.4z" class="st1"/><g id="closed-bean" transform="translate(1 1)"><path id="Path" d="M41.9 37.1c.2.2 1.7 1.7 2.1 2.8 1.1 1.1 1.4 2.1 1 4.3 1 1.1 1.7 2.9 1.5 4.4 1.6 1.4 2 4.6 1 5.2-1.4.9-3.5-1.4-3.5-4.5-1.8-1.3-2-3.3-1.6-4.6-1.2-2.2-1.2-3.9-.8-4.5s.5-1.1.6-1.6c.1-.6-1-1.5-.3-1.5z" class="st4"/><path id="Path-5" d="M44.2 41.2c.9.6.3 2.7.7 3.7.2.6.6 1.1.8 1.6.7 1.5 0 .3.3 1.4 0 .2.1.4.2.6.4.9.9 1.7 1.3 2.6.2.5.5 1 .3 1.4v.1l-.1.1c-1.1-.8-1.1-2.4-1.4-3.6-.3-1.1-.2-.5-.9-1.5-.3-.4-.7-1.5-.9-1.9-.3-.7.1-1.3 0-1.9-.2-1.1-1.1-1.5-.3-2.7v.1z" class="st5"/></g><g id="closed-bean_1_" transform="translate(1 1)"><path id="Path_1_" d="M39.4 41.1c.1.8.3 1.6 1 2.6.8 1 .6 3.8-1.3 7.5.6 2.2.4 5.4-2.6 7.6-.1 5.1-3.5 9-5.9 7.4-1.6-1-1-6.3 1.7-8.7-.3-2.6.9-5.5 2.5-7.4-.6-3.8-.2-5.3 1.7-7.2.7-1.8 3.1-4.4 3.5-4.7 1 .1-.7 1.7-.6 2.9z" class="st4"/><path id="Path-3_1_" fill="#465c44" d="M39.3 40.7c.1 1.1.2 1.3.7 2.6 1.5 1.3.2 5.6-1 7.7.9 3.9-.6 6.1-2.6 7.8-.6 7.2-4.4 8.5-5.9 7.5 1.8-.2 3.8-3.3 4.1-8 1.6-.9 3.4-5.1 2-8 1.4-.7 2.6-4 1.7-6.6-.2-.7-.4-1.1 0-2.1.5-1.5 1.1-2.3 1.7-3 .7-.3-.6 1.7-.7 2.1z"/><path id="Path-5_1_" d="M36.2 45.1c1.3 2.1-.3 2.6-.6 4.5-.2 1.1.4 2.1 0 3.3-.3.7-1 2.5-1.5 3.2-1.1 1.6-1 .6-1.5 2.4-.5 1.9-.5 4.7-2.4 6l-.1-.1v-.2c-.4-.7.2-1.6.4-2.4.6-1.5 1.4-2.9 2.1-4.3.1-.3.3-.6.3-.9.4-1.9-.7.2.4-2.4.4-.9 1-1.8 1.4-2.8.6-1.7-.3-5.1 1.2-6.2l.3-.1z" class="st5"/></g><path d="M34.1 41.3s-3.5-5.3-8.4-4.7c-4.9.6-11.5 4.7-11.5 4.7s5.7 8.1 12.5 7.3 8.6-3.8 8.6-3.8l-1.2-3.5z" class="st0"/><path d="M33.6 42.2s-9.2 1.8-12.8 1.2-3.8-.8-3.8-.8m16 .7s-2.6 3.2-5.5 4.1m5.6-5.4c-.2-.9-.9-1.6-1.7-2.1s-1.7-.7-2.6-1c-1-.3-1.9-.5-2.9-.8-.2 0-.4 0-.3.2" class="st0"/><path d="M31.1 42.7c-1.3-.9-2.7-1.9-4.3-2.3-.8-.2-1.7-.3-2.6-.3m2.5 3c-1.6-1.1-3.4-1.7-5.2-2m1.2 2.6c-.9-.8-1.8-1.7-3-1.9h-.1s0 .1 0 0m1.7 4.4c2.4-.3 4.7-1.4 6.4-3.1m-3.3 4.1c1.6-.5 3-1.5 4.4-2.5l2.1-1.5m-12 1.3c1.3-.1 2.5-.4 3.7-.8" class="st0"/><path d="M32.5 35.4s4.1-6.3-1.1-12.8-12.8-5-12.8-5-2.1 2.9-.3 8.4 5.5 8.9 8.9 9.5 5.3-.1 5.3-.1zm6.7 7.4l-6.7-7.4-.4.2 7 7.9zM32 34.5c.2-2.8.5-5.6 1-8.3m-2.7 5.3c.4-2.6.7-5.4-.2-7.9" class="st1"/><path d="M27.7 27.9c.6-2.2.7-4.5.2-6.7 0 0 0-.1-.1-.1 0 0 0 .1 0 0m1.6 10.1c-2 .1-3 0-4.9-.5-.1 0-1.3-.4-.9-.3m7.6 4c-1.2.1-2.4.2-3.6.2-.4 0-.7 0-1.1-.1-.4-.1-.8-.4-1.2-.6-.3-.2-.6-.4-.8-.6" class="st1"/><path d="M25.6 24.1c2.8 3.1 4.1 7.4 6.6 10.8.1.2.2.3.4.5M19.1 20.5c-3.3-1-6.4-2.8-9.4-4.7-.9-.6-1.8-1.2-2.6-1.9-.5-.5-.9-1-1.4-1.6L1.8 7.5" class="st1"/><path d="M10.4 15.3c0-1 0-2-.3-3-.1-.3-.2-.7-.4-1.1-.5-1.1-1-2.2-1.5-3.2.2.1.3.3.5.4m5.9 9.7c.6-1.5.5-3.3 0-4.8s-1.4-2.9-2.4-4.3c.1.1.1.2.2.3m6 10.2c.1-.9.1-1.9 0-2.8-.2-1.7-.9-3.3-1.8-4.9l-1.2-2.1M8.9 16c-1.6-.2-3.4-.4-4.6-1.5.2.1.5.2.7.3m8.8 3.7c-1.3.2-2.7.5-4 .4-1.8-.1-3.6-.7-5.3-1.2-.1 0-.2-.1-.2-.1 0-.1.1-.2.1-.1m13.2 3.2c-2 .4-4.1.7-6.2.6-1.7-.1-3.4-.4-5-.9M26.5 0s-4.7 2.3-6.4 8.9c-1.7 6.6-1.4 8.6 1.7 10.8s4 2 4 2 6.4-2.3 6.7-8.1c.3-5.8-3.2-11.9-6-13.6z" class="st1"/><path d="M25.9 21.6c-.1-4.7-.3-9.4-.4-14 0-1.3-.1-2.6.1-3.8.1-.7.3-1.4.3-2.1" class="st1"/><path fill="#4c853b" stroke="#2b4c23" stroke-miterlimit="10" stroke-width=".25" d="M42.8 12.9c.2-2.8-.2-5.7-1.4-8.2-.6-1.3-1.5-2.7-1.1-4.2-.5.3-1 .8-1.3 1.4-.4.8-.5 1.7-.5 2.6-.2 3.2 0 6.4.5 9.5.3 1.6.6 3.1 1.1 4.6.1.4.3 1.8.8 1.6.4-.1.7-1.6.8-2 .6-1.7 1-3.5 1.1-5.3z"/><path d="M25.5 20.9c1.5-.6 2.6-1.8 3.6-3.1.5-.7 1-1.5 1.3-2.3.3-.7.4-1.4.6-2.1.1-.6.3-1.2.4-1.7M25.5 17c1-1 1.9-1.9 2.6-3.1.9-1.5 1.3-3.2 2.2-4.8m-5 3.4c1.9-1.6 3.1-4 3.4-6.5m-3.2 1.9c1.3-1.2 2.1-2.7 2.5-4.4" class="st1"/><path d="M25.7 20.8c-1.2-.2-2.2-1-3-1.9-.8-.9-1.4-2-1.9-3.1-.4-.7-.7-1.5-.7-2.3 0-.1.1-.2.2-.1m5.2 3.2c-2.4-1.7-3.7-4.6-4.2-7.4 0-.2-.1-.4.1-.6m3.8 3.5c-.6-.6-1.3-1.2-1.7-2-.2-.3-.4-.7-.5-1.1-.5-1-1-2.1-.7-3.2m3 1.6c-.8-.5-1.4-1.3-1.6-2.3-.1-.3-.1-.6-.1-1v-.8c0-.1.1-.2.1-.2m16.5 13.5c-.2-.6-.5-1.1-.7-1.4-1.3-2.5-2.6-4.9-4.2-7.2-.5-.7-1-1.3-1.8-1.6-.3 2-.2 4 .2 5.9.4 1.9 1.4 4 3.1 4.9.7.4 1.5.6 2.1 1.3.4.5.4 1.4 1.2 1 1-.6.4-1.9.4-2.8 0-1.2.2-2.4.1-3.6-.3-2.7-1.5-5.3-3.3-7.3-.4.7-.4 1.4-.4 2.2 0 .9 0 1.9.2 2.8.2.6.4 1.2.7 1.7.6 1.2 1.1 2.3 1.7 3.5.2.5.6 1 1.1.8m13.8-2.9c-.6-.9-1.5-1.6-2.4-2.2-2.2-1.5-4.7-2.5-7.3-3.1h-.3c-.2 0-.2.2-.3.4-.6 1.3-.6 2.8-.3 4.2.2 1.4.7 2.8.9 4.2.1.9.2 1.9.6 2.8.3.7.9 1.2 1.4 1.7.6.6 1.3 1.1 2 1.6.6.4 1.2.8 1.8 1 .8.3 1.6.3 2.4.3 2.1 0 4.2-.9 4-3.3-.2-2.4-1-5.6-2.5-7.6zm12.6 2c1.1-.2 2.2-.3 3.3-.4.7-.1 1.5-.1 2.2-.2.5 0 1.1 0 1.3.4.1.2.1.5 0 .8-.2.7-.7 1.2-1.2 1.7-1.3 1.3-2.7 2.5-4 3.7-.9.8-1.8 1.6-2.9 2.2-1.5.7-3.1.9-4.7.9-.9 0-3.6.3-3.6-.9 0-1.1 1.5-2.7 2.1-3.5.9-1.1 2-2.1 3.2-2.9 1.3-.9 2.7-1.5 4.3-1.8z" class="st1"/><path d="M54.9 18.1c-.3-.9-.3-1.9-.2-2.9.1-1.8.3-3.6 1-5.2 1-2.2 2.8-3.9 4.9-5.1S65 3 67.2 2.2c.2-.1.4-.1.6-.1.2.1.3.2.4.4.7 1.1.9 2.5 1 3.8.2 2.2.2 4.5-.7 6.6-1.2 2.8-3.8 4.7-6.3 6.3-1.4.9-3 2-4.8 2-1.2.2-2.2-1.9-2.5-3.1zm.9 5.7c-1.5-.7-2.8-1.9-3.9-3.2-3.1-3.5-6-7.4-7.2-11.9.2 0 .3 0 .5.1m12.2 15.8c2.5.1 5-.7 7.2-1.7s4.3-2.5 6.4-3.9" class="st1"/><path d="M57.3 21.2c.7-2.4 2.4-4.5 3.5-6.8.4-.9.8-1.9 1.2-2.8.7-1.4 1.6-2.7 2.6-4l2.1-3m-19 10.6c.5-1 .8-2.1.7-3.2 0-.5-.1-1.1-.1-1.6m2.3 8.7c.7-2.2.9-4.6.8-6.9m1.9 10.1c.4-.8.8-1.6.9-2.5.1-.8 0-1.6-.1-2.4-.2-1-.4-1.9-.7-2.9v.2m1.8 9c-1.2 0-2.4 0-3.6-.3-1.2-.2-2.4-.7-3.2-1.5-.1-.1-.1-.3 0-.3m4.2-.2c-.6-.1-1.2-.2-1.8-.4-.4-.1-.8-.3-1.2-.5l-1.2-.6c-.7-.3-1.3-.6-2-1m3.7-.2c-2.1-.3-3.8-1.8-5.3-3.2m2.2-.6c-1-1.2-1.9-2.4-2.7-3.7m13.4 9.2c1 0 2.1-.2 3-.6m-3.2-.1c-1.3-2.7-2-5.8-1.9-8.9h.4" class="st1"/><path d="M58.5 8.1c-.5.8-.6 1.8-.6 2.7 0 .7 0 1.3.1 2 .2 1.3.8 2.4 1.5 3.6 2.7-.7 5.5-1.9 7.6-3.7" class="st1"/><path d="M68 8.3c-1.9 1.9-4.1 3.4-6.5 4.5-.4-1.8-1-3.6-.9-5.4.1-.5.1-1 .3-1.5" class="st1"/><path d="M63.7 4.7c-.2.2-.3.3-.4.5-.1.2-.1.5-.1.7v2.9c.7-.3 1.7-.3 2.4-.7.8-.5 1.3-1.3 1.9-2m-1 15.7c.8-2.1 2.2-4 4-5.5m-7.8 7c1-2.4 2.8-4.3 4.6-6.1l.1-.1v.1M59 24.5c.4-.8.9-1.5 1.3-2.3.3-.5.6-1 1-1.2M47.4 37.5c.4-.8.9-1.4 1.5-2 2-2.2 4.4-4.1 7-5.4.2-.1.4-.2.6-.1.2 0 .3.2.4.3 1.8 2.1 2.7 4.9 2.4 7.7-.3 3.1-2.2 6.3-4.9 7.8-1.1.6-2.5 1.2-3.7.5-1.2-.7-2.3-2.1-3-3.3-.9-1.8-1.2-3.8-.3-5.5zm8.2 17.3c.7.3 1.4.6 2.2.6 1 0 2-.4 2.9-.9 2.6-1.3 5.4-2.7 6.9-5.2-1.8-1.7-3.9-3-6.2-3.7-2.3-.6-5-.5-7.1.7-.8.4-1.5 1-2.2 1.6-.7.6-1.4 1.2-1.7 2-.2.6-.4 1.9-.1 2.5.4.7 1.5.9 2.1 1.1 1.1.5 2.2.9 3.2 1.3z" class="st1"/><path d="M51.2 46.5c0-.8.1-1.6.2-2.4.1-.9.3-1 1.1-1.5 1.3-.9 2.6-1.9 3.8-3 .6-.5 1.2-1 1.5-1.7m-5.6 1.7c1.1-.9 2.5-1.4 3.7-2.3.9-.6 1.6-1.4 2.2-2.3m-4.5.7c.9-.5 1.9-.9 2.7-1.7.5-.4.8-1 1.1-1.6m-4.7 5.7c-.6-.8-1.2-1.6-1.2-2.6 0-.2 0-.4.1-.6" class="st1"/><path d="M50.1 38.3v-.2c-.3.6-.2 1.3 0 2 .3 1.1.7 2.1 1.3 3.1.6-4.3 2.4-8.1 4.9-11.6m-6 20.5c1.3-.5 1.3-1.4 2.1-2.5.4-.5.8-.9 1.3-1.3.6-.6 1.2-1.1 1.8-1.7.4-.3.8-.7 1.2-1M54 51.1c1.8 1.5 4.3 1.9 6.6 2h2.6c.1 0 .1 0 .2-.1 0-.1-.1-.1-.1 0m-11.2-.9c.7.8 1.6 1.5 2.5 2 .1.1.4.1.4-.1m-.7-3.6c.8-2.2 2.8-3.8 4.7-5.2m-1.5 4c1.5-1.3 3.2-2.2 5.1-2.8m-4.9 3.7c1.2.5 2.4.9 3.6 1.2 1.2.3 2.5.4 3.8 0 .3-.1.6-.3.5-.5m-4.5-2.1c1.1-.7 2.3-1.1 3.5-1.3m-3.3 2c1.5.8 3.3 1.1 5 .8" class="st1"/><path d="M50.8 52.3l5.4-2.1c1.7-.7 3.5-1.4 5.3-1.6 1.5-.2 3 0 4.4-.2m-26.8-25c.2-.3.3-.7.7-.9.2-.1.5-.1.7-.2.7-.1 1.3-.5 1.9-.5 1 0 1.7 1 2.3 1.9-.4.1-.8.3-1.2.4-.2-.9-1.2-1.6-2.2-1.4-.9.2-1.7 1-1.9 1.9-.1.4-.1.8-.1 1.2 0 .5-.1 1-.3 1.5-.1.3-.4 1.2-.8 1.1-.4-.2-.2-1.2-.2-1.6.1-1.1.5-2.3 1.1-3.4z" class="st1"/><path d="M28 27.5c-1.8.3-3.6.5-5.4.3-1.8-.2-3.6-.9-4.9-2.1m8.3-1.2c-2.2-.8-3.9-2.5-5.4-4.2-.5-.6-1-1.1-1.4-1.7 0 0-.1-.1 0-.2h.1m-.6 5.1c1.3.7 2.9 1 4.4.9m1.2 6.2c-1.3-.4-2.5-.9-3.7-1.5" class="st2"/></g></switch></svg>
