<svg xmlns="http://www.w3.org/2000/svg" id="Capa_1" x="0" y="0" version="1.0" xml:space="preserve" viewBox="0 0 63 116"><style>.st23{stroke:#666733;stroke-width:.25}.st3{fill:#cccbcb}.st3,.st34{stroke:#666733;stroke-width:.25}.st23{fill:#fbf8cd}.st34{fill:none}</style><switch><g><path fill="#fff" stroke="#ffcc05" stroke-miterlimit="10" stroke-width="2" d="M47.3 114H12.7c-7 0-12.7-5.7-12.7-12.7V12.7C0 5.7 5.7 0 12.7 0h34.7C54.3 0 60 5.7 60 12.7v88.7c0 6.9-5.7 12.6-12.7 12.6z"/><radialGradient id="SVGID_1_" cx="126.831" cy="182.127" r="27.472" gradientTransform="rotate(-5.146 -1336.2 1211.563)" gradientUnits="userSpaceOnUse"><stop offset="0" stop-color="#fff"/><stop offset="1" stop-color="#fbf8cd"/></radialGradient><path fill="url(#SVGID_1_)" stroke="#666733" stroke-width=".25" d="M30.4 16.4c-.8-.1-1.5.8-2.1 1.3-.2.1-.8.4-.7.7.2.3 1.1 0 1.3-.1.5-.2 1.9-1.3 1.8-.1 0 .6-.4.4-.9.5-.4.1-.6.4-1 .6-.3.1-1.2.1-1.4.3-.2.2 0 1 .3 1 .2 0 .4-.3.6-.4.2-.1.5-.2.8-.1.5 0 .8.3 1.3-.1.6.5 0 .7-.4.8-.3 0-.6.1-.8.2-.2.1-.4.3-.6.4-.5.1-1.1-.1-1.5.2-.5.2-.6.7 0 .8 0 0-.1.1-.1.2.5.6 1-.2 1.5-.3.6-.2 1 .3 1.3.8-.7.1-.8 0-1.3.3-.4.2-.9.5-1.3.7-1 .4-2.2.2-2.4 1.5.4.3 1.7-.3 2.2-.4.8-.2 1.4 0 2.2.2 0 .1-.1.3-.1.4-.6.1-1 0-1.6.3-.4.2-.7.6-1.1.8-1 .5-2.3.2-2.5 1.5.4.2 1.2-.2 1.6-.1.5.1 1 .3 1.5.3 0 0 .4.6-.3.8-.7.2-2.5.3-3 .8-.5.4-.8 1.4-.2 1.4.6 0 1.2-.4 1.8-.3.6.1.6 1.5.2 1.7-.4.2-3.3 1.2-3.5 1.8-.2.6-.3 1.7.4 1.2s1.6-1.3 2.6-1.2c1 0 .5.9.5.9s-2.7 1.9-2.9 2c-.3.1-.9.7-.8 1.3.1.6.1.7.8.1.7-.5 2-.8 2-.8l1.2.4-.5.5s-2 1.6-2.3 1.9c-.3.4-.9.4-1 .8-.1.4-.1.9.1 1.1.2.2.2.3.7-.2.5-.5 1.3-.8 1.3-.8l.1.6s-.5 1-.8 1.3c-.4.3-1.6 1.6-1.6 1.6s-.1 1 .2 1.2c.2.3.4-.2.7-.4.4-.2 1.2-.7 1.2-.7l1-.1-.6.8s-1.3 1.9-1.5 2.1c-.2.2-.6 1-.4 1.4.3.5.6 1.2.7.8.2-.4.8-1.4.8-1.4l1-.7.2.7-.5.4s-.7 1.6-.8 2c-.1.3-.4 1-.5 1.4-.2.4-.6 1.2-.2 1.7.4.5.7.4 1-.2.3-.6 1.2-1.6 1.2-1.6l.4.3s-.7.8-.8 1.4c-.1.6-.6 1.7-.8 2.1-.2.4-.9.6-.7 1.3.2.6.4 1.2.8.8.4-.4 1.6-1.8 1.6-1.8s.5.9.2 1.4c-.3.5-1.1 1.6-1.2 1.9-.1.3-.7 1.6 0 1.6s.8-.6 1.2-.8c.3-.3.8-.6.8-.6s-.1 1.6-.8 2.5c-.7 1-.7 2.6-.3 2.5.3 0 .9-.5 1.3-.9s.8-.7.8-.7l.9.3s-.9 1.4-1 1.7c-.1.2-1.2 1.3-1.2 1.8s.3 1 1 .4 1.5-.9 1.6-.3c.1.5-.8 1.9-1.3 2.1-.5.3-1.1 1.2-.8 1.7.2.6.6.4 1.3.1.6-.3 1.9-.2 1.9-.2s.2.1.3.5c0 .3-.4.9-.9 1.1-.5.2-.7.4-.9.4-.2 0-1.3 1-.7 2 .6 1.1.8.9 1.5.5.7-.3 1.5 0 1.5 0s1 .5.6.8c-.4.3-1.8.7-2.2.8-.3.1-1.1.3-.8 1.2.3.9.5 1.9 1.3 1.5.8-.4 1.5-.8 1.5-.8l.9.4s1.1 1.2.3 1.4c-.8.1-3-.3-3.3 1.5-.2 1.7.3 2.2 1.4 1.8 1.1-.4 1.7.1 1.7.3 0 .2.9 1.5.9 1.5s-1.8.2-2.3.3c-.5.1-2.3.8-1.8 2 .5 1.2 1.5.7 2.1.6.6-.1 1.3.3 1.3.3s.5.7.2.9c-.3.1-2.5.1-2.8.2-.3.1-2 1.4-1.1 2.4.9 1 1.7.6 1.7.6l1.6-.6 2.3-1.4s-3.3-30.3-5-40.2c-1.8-10.3 4.4-34.5.9-35.1z"/><radialGradient id="SVGID_2_" cx="133.274" cy="139.016" r="2.83" gradientTransform="rotate(-5.146 -1336.2 1211.563)" gradientUnits="userSpaceOnUse"><stop offset="0" stop-color="#fff"/><stop offset="1" stop-color="#fbf8cd"/></radialGradient><path fill="url(#SVGID_2_)" stroke="#666733" stroke-width=".25" d="M30.8 13.1c-.4.1-.2-.4-.4-.5-.1-.1-.6 0-.8.1-.2.1-.5.3-.6.5-.1.2.1.2-.1.4-.1.1-.3 0-.4 0-.3 0-.6-.1-.7-.3-.2-.4 0-.5.3-.6.6-.2 1-.1 1.5-.5-.1-.3-1-1-.3-1.3.2-.1.6.1.9.1.2 0 .6-.1.8-.2.3-.2.4-.4.7-.5l.4-.4c.1-.1.1-.3.3-.3.3-.1.4.2.7.3.3.1.4-.1.7.3.2.2 1.1.9.6 1.2 0 0 0 0 0 0 .4.3.5.7 0 .9-.3.1-.3 0-.5-.1-.3-.1-.3-.2-.6.1-.3.4-.6.6-1 .8-.2.1-.5.2-.7.2-.3 0-.5-.1-.8-.2"/><path d="M32.1 15.8c-.2-.4.8-.9 1.1-1 .3 0 .6.2.8.3.1.1.2.1.3.2.1 0 .2 0 .4.1s.4.5.1.7c-.2.1-.8 0-.9-.1-.6-.3-1-.6-1.6-.3m.7 2.2c.1-.7.9 0 1.1.2.4.3 1.2.1 1 .8-.2.5-.9.4-1.3.1-.3-.4-.4-.9-.8-1.1" class="st3"/><radialGradient id="SVGID_3_" cx="134.217" cy="144.437" r="2.16" gradientTransform="rotate(-5.146 -1336.2 1211.563)" gradientUnits="userSpaceOnUse"><stop offset="0" stop-color="#fff"/><stop offset="1" stop-color="#fbf8cd"/></radialGradient><path fill="url(#SVGID_3_)" stroke="#666733" stroke-width=".25" d="M31.7 16.9c-.1.1 0 .2 0 .4-.1.1-.2.1-.3.2-.3.2-.5.3-.7.6-.7.6-.4-.5-.3-.9.1-.3-.1-.6 0-.9.1-.3.4-.5.6-.7.2-.2.4-.5.7-.2.2.3-.1.6.4.4.3-.1.4-.4.7-.4.3-.1.6 0 .8.1.3.1.4.3.7.5.3.1.6 0 .8.2.1.2 0 .7 0 .9 0 .3.1.6.2.8.2.7-.6.7-1.1.4-.3-.2-.3-.4-.7-.4-.3 0-.6.3-.8.3-.5-.1-.6-1-1-1.2"/><radialGradient id="SVGID_4_" cx="134.124" cy="146.918" r="2.183" gradientTransform="rotate(-5.146 -1336.2 1211.563)" gradientUnits="userSpaceOnUse"><stop offset="0" stop-color="#fff"/><stop offset="1" stop-color="#fbf8cd"/></radialGradient><path fill="url(#SVGID_4_)" stroke="#666733" stroke-width=".25" d="M31.7 19.4c.3.5-1 1-1.3 1 0-.8-.1-1.6.5-2.2.2-.3.5-.5.9-.6.5-.1.3.3.4.7.5 0 .9-.7 1.4-.2.2.2.2.5.4.7.3.3.5 0 .9.1.8.1 0 1 0 1.4 0 .3.1.6-.1.8-.2.1-.5 0-.8-.2-.5-.3-.7-.5-1.3-.4-.4 0-.4 0-.6-.4-.1-.3-.2-.5-.2-.8"/><path d="M32 20.8c.2-.5.9-.6 1.3-.4.2.1.4.3.6.4.2.1.6.1.7.3.1.2 0 .6-.2.7-.2.1-.6-.1-.7-.3-.6-.4-.7-.8-1.5-.7" class="st3"/><radialGradient id="SVGID_5_" cx="133.377" cy="149.581" r="2.179" gradientTransform="rotate(-5.146 -1336.2 1211.563)" gradientUnits="userSpaceOnUse"><stop offset="0" stop-color="#fff"/><stop offset="1" stop-color="#fbf8cd"/></radialGradient><path fill="url(#SVGID_5_)" stroke="#666733" stroke-width=".25" d="M31 21.9c0 .4-.8.4-1.1.5-.1-.5.2-1.6.5-2 .2-.2.7-.4 1-.4.6-.1.2.4.4.8.4-.4.9-.6 1.4-.2.2.2.3.5.5.6.2.1.6 0 .7.3.2.3-.2.4-.2.7-.1.3.1.6.1.9.1.8-.8.8-1.2.4-.4-.4-.7-.7-1.3-.9-.4.1-.9-.1-.8-.7"/><path d="M31.6 23c.4-.3.9-.3 1.3 0 .2.1.4.4.7.5.2.1.5 0 .6.1.6.5-.5.9-.9.8-.7-.2-.8-1-1.4-1.1" class="st3"/><radialGradient id="SVGID_6_" cx="132.396" cy="151.978" r="2.485" gradientTransform="rotate(-5.146 -1336.2 1211.563)" gradientUnits="userSpaceOnUse"><stop offset="0" stop-color="#fff"/><stop offset="1" stop-color="#fbf8cd"/></radialGradient><path fill="url(#SVGID_6_)" stroke="#666733" stroke-width=".25" d="M30.2 24.6c-.2.2-1.2.7-1.4.4-.3-.3.5-1.1.6-1.4.1-.2.1-.5.3-.7.2-.3.4-.3.7-.4.2-.1.5-.3.7-.1.1.2 0 .7 0 .9.4-.2.6-.5 1.1-.3.5.2.6.5.7 1 .2 0 .5.1.8.2.3 0 .6.1.5.4 0 .3-.3.5-.3.8 0 .3.1.6 0 .9-.1.4-.2.3-.6.3-.3-.1-.6-.1-.9-.2-.3-.1-.5-.3-.7-.4-.3-.2-.5-.2-.8-.3-.7-.2-.3-.7-.7-1.1"/><path d="M31 25.5c.6-.2 1 .3 1.5.6.4.3 1.3 0 1.3.6 0 .8-1 .5-1.4.3-.6-.3-.8-.6-1.1-1.2 0-.1-.1-.1-.1-.2" class="st3"/><radialGradient id="SVGID_7_" cx="131.48" cy="154.537" r="2.631" gradientTransform="rotate(-5.146 -1336.2 1211.563)" gradientUnits="userSpaceOnUse"><stop offset="0" stop-color="#fff"/><stop offset="1" stop-color="#fbf8cd"/></radialGradient><path fill="url(#SVGID_7_)" stroke="#666733" stroke-width=".25" d="M32.9 29.3c.5.5.2-1.3.3-1.4.2-.6.8-.8-.1-1l-.9-.3c-.3-.2-.4-.2-.5-.6-.3-.7-.8-.5-1.4-.3-.1 0-.2.1-.2.1s0 0 0 0c0-.3.2-.7.3-1-.2-.2-.5.2-.7.3-.3.1-.6 0-.8.3-.1.2-.2.6-.3.9-.1.2-.3.5-.4.7-.2.5-.4 1.2.3 1.2.8 0 .7-.7.6-1.3.2.4.5 1 1.1.8h-.4v.4c.5.1 1.1.6 1.6.8.2.1.5.2.8.3.2.1.7.2.8.3"/><path d="M29.6 28c.7-.1 1.2.2 1.8.6.3.2.6.3.9.4.2.1.6 0 .8.2.3.2.1.4-.2.6-.3.2-.5.2-.8.1-.5-.1-1.2-.4-1.6-.7-.4-.3-.8-.7-.9-1.2" class="st3"/><radialGradient id="SVGID_8_" cx="130.198" cy="157.146" r="2.813" gradientTransform="rotate(-5.146 -1336.2 1211.563)" gradientUnits="userSpaceOnUse"><stop offset="0" stop-color="#fff"/><stop offset="1" stop-color="#fbf8cd"/></radialGradient><path fill="url(#SVGID_8_)" stroke="#666733" stroke-width=".25" d="M28.7 30.3c0-1.4-2.5-.6-2.2-2.2.2-.8.9-.6 1.4-.3.3.2.3.4.8.2.3-.1.4-.1.7.1.5.3 1 .8 1.6 1.1.5.2 1.3.2 1.7.6.2.2 0 .4-.1.8-.1.3 0 .6-.1.9-.1 1-.9.6-1.6.4-.5-.1-1-.2-1.4-.5-.3-.2-.6-.5-.8-.7"/><path d="M28.8 31.1c.1-.3.5-.2.8-.1.1 0 .4.1.5.2l.8.4c.7.2 1-.1 1.5.4-.2 1-1.1.5-1.7.3-.4-.2-.8-.2-1.2-.4-.4-.2-.6-.4-.8-.7" class="st3"/><radialGradient id="SVGID_9_" cx="128.736" cy="160.196" r="3.153" gradientTransform="rotate(-5.146 -1336.2 1211.563)" gradientUnits="userSpaceOnUse"><stop offset="0" stop-color="#fff"/><stop offset="1" stop-color="#fbf8cd"/></radialGradient><path fill="url(#SVGID_9_)" stroke="#666733" stroke-width=".25" d="M28.2 33.3c-.1-.7-.9-.7-1.4-.6-.7.1-1.3.2-1.8-.4-.5-.5-.4-1.3.3-1.5.7-.2 1.1.1 1.7.4.5.2.8 0 1.3 0s.8.3 1.2.4c.4.2.9.3 1.3.4.4.1.9.3 1.3.3.3.4-.3.9-.4 1.3-.1.6.3 1.1-.4 1.3-.6.2-1.2.1-1.8-.2-.5-.2-1.3-.4-1.3-1"/><path d="M28.6 34.8c-.3 0-.4-.4-.2-.6.2-.2.6-.1.9.1.5.4 1 .8 1.6.7.3 0 .6-.1.7.2 0 .1.1.4.1.4-.1.3-.2.1-.4.1-.7 0-1.3-.3-1.9-.5-.3 0-.5-.2-.8-.4" class="st3"/><radialGradient id="SVGID_10_" cx="128.032" cy="162.922" r="3.053" gradientTransform="rotate(-5.146 -1336.2 1211.563)" gradientUnits="userSpaceOnUse"><stop offset="0" stop-color="#fff"/><stop offset="1" stop-color="#fbf8cd"/></radialGradient><path fill="url(#SVGID_10_)" stroke="#666733" stroke-width=".25" d="M27.4 36.2c0-.3-.2-.6-.5-.7-.3-.1-.5.1-.8.3-.6.3-1.2-.1-1.5-.6-.3-.4-.3-1.4.3-1.6.6-.1 1 .6 1.5.8.7.3.8-.7 1.3-.5.2.1.4.5.6.7.3.3.5.3.9.5.5.2 1.1.4 1.6.6.2.1.6.1.7.3.2.3-.1.7-.1.9 0 .4.3 1-.2 1.2-.2.1-.5 0-.7 0h-.8c-.3 0-.6-.1-.8-.2-.2 0-.5 0-.7-.1-.5-.2-.5-.7-.6-1.2"/><path d="M27.8 37.9c-.4-.4.2-.4.5-.3.3.1.6.1.9.1.5 0 1.2.1 1.7.2.2 0 .6.2.4.5-.1.3-.6.2-.8.2-.7-.1-1.3-.2-1.9-.3-.3 0-.4 0-.6-.3" class="st3"/><radialGradient id="SVGID_11_" cx="127.292" cy="166.266" r="3.084" gradientTransform="rotate(-5.146 -1336.2 1211.563)" gradientUnits="userSpaceOnUse"><stop offset="0" stop-color="#fff"/><stop offset="1" stop-color="#fbf8cd"/></radialGradient><path fill="url(#SVGID_11_)" stroke="#666733" stroke-width=".25" d="M27.5 41.1c-.7 0-.7-.8-.8-1.3-.1-.7-.6-.9-1.2-.7-.6.1-1.1 0-1.5-.5-.4-.6-.1-1.2.6-1.3.7-.1 1 .9 1.5.7.3-.1.3-.4.6-.6.3-.2.5-.1.8.1.5.3.9.7 1.5.8.6.1 1.6 0 2.2.2.2.1.3.3.2.5-.1.2-.2.5-.2.7 0 .5.2 1.1-.3 1.5-.4.3-1.3.3-1.8.3-.3 0-.5-.1-.8-.1-.3 0-.6.1-.9.1"/><path d="M27.5 41.3c-.3-.1-.5-.3-.4-.5.3 0 1.1-.2 1.4-.1.3.1.5.2.8.3.2.1.5.1.8.1.2 0 .7-.2.8-.1.3.1.2.4.1.6-.1.2-.5.3-.7.3-.6.1-1.5 0-2-.3" class="st3"/><radialGradient id="SVGID_12_" cx="126.554" cy="169.571" r="3.231" gradientTransform="rotate(-5.146 -1336.2 1211.563)" gradientUnits="userSpaceOnUse"><stop offset="0" stop-color="#fff"/><stop offset="1" stop-color="#fbf8cd"/></radialGradient><path fill="url(#SVGID_12_)" stroke="#666733" stroke-width=".25" d="M26.2 43c-.3-.6-.7-.7-1.3-.4-.6.3-1.1.4-1.5-.2-.3-.4-.6-1.1 0-1.5.1-.1.3-.1.4-.1.2-.1.1-.2.4-.1.2 0 .5.3.7.4.3.2.3.4.6.2.2-.1.3-.4.6-.5.3-.1.5.1.8.1.3.1.6.1.9.1.3.1.5.2.7.3.3 0 .5.1.8.1.6 0 1.3.1 1.8-.1.2.3-.1.4-.2.7-.1.2 0 .5 0 .8.1.5.5 1.1-.2 1.4-.7.3-1.7.4-2.4.4-.3 0-.7-.1-.9-.2-.4-.1-.6-.5-.9-.6"/><path d="M26.9 43.9c.4 0 .7.2 1.1.2.3 0 .6-.1 1-.1.6 0 1.2-.2 1.8-.1.3.1.6.1.4.5-.2.2-.6.3-.8.3-.6 0-1.3-.1-1.9 0-.5.1-1 .1-1.3-.4m.3 3.4c-.1-.2-.5-.3-.5-.6 0-.4.3-.5.6-.5h2.2c.5 0 1.5-.3 1.8.1.4.7-.8.9-1.3.9-.5.1-1 .1-1.4.1-.7.2-1 .1-1.4 0" class="st3"/><radialGradient id="SVGID_13_" cx="126.311" cy="172.609" r="3.127" gradientTransform="rotate(-5.146 -1336.2 1211.563)" gradientUnits="userSpaceOnUse"><stop offset="0" stop-color="#fff"/><stop offset="1" stop-color="#fbf8cd"/></radialGradient><path fill="url(#SVGID_13_)" stroke="#666733" stroke-width=".25" d="M26.4 46c-.4-.7-.9-.3-1.4 0-.5.4-1.1.5-1.7 0-.3-.3-.3-.4-.2-.8.1-.2.2-.6.5-.7.5-.2 1.2.4 1.7.3.4-.1.4-.9 1.1-.6.3.1.3.2.6.3.3 0 .5.1.8.1.6.1 1.2 0 1.7 0 .6 0 1.1 0 1.6-.1.1.2 0 .6-.1.8 0 .4.1.5.3.8.5.8-.5.6-1 .7-.6.2-1.1.2-1.7.2-.6-.1-1.1-.1-1.6-.3-.2-.1-.4-.2-.4-.4"/><radialGradient id="SVGID_14_" cx="126.406" cy="175.963" r="3.372" gradientTransform="rotate(-5.146 -1336.2 1211.563)" gradientUnits="userSpaceOnUse"><stop offset="0" stop-color="#fff"/><stop offset="1" stop-color="#fbf8cd"/></radialGradient><path fill="url(#SVGID_14_)" stroke="#666733" stroke-width=".25" d="M26.6 49.3c0-.1-.1-.3-.2-.3-.6-.1-.8.4-1.4.6-.4.1-1.2.2-1.5-.2-.4-.5.1-1.2.5-1.3.3-.1.5-.1.8-.1.2 0 .5.2.7.1.1-.4.3-.7.6-1.1.3 0 .5.2.8.4.4.3.4.2.8.2.3 0 .5.1.8.1.3 0 .5-.1.8-.1h.9c.3 0 .6-.2.9-.2.3 0 .6.1.5.4 0 .1-.2.2-.2.3 0 .2.1.3.1.5.1.2 0 .5.1.7 0 .2.2.4.3.5.1.5-1 .7-1.3.8-.8.3-1.6.4-2.5.3-.2 0-.7 0-.9-.1-.2-.1-.2-.4-.4-.6"/><path d="M27.7 51.3c-.5-.2-.6-.6 0-.7.5-.1 1-.1 1.5-.2s1-.1 1.5-.2.9-.3 1.3-.2c.7 1.1-2.6 1.3-3 1.3" class="st3"/><radialGradient id="SVGID_15_" cx="126.796" cy="179.668" r="3.401" gradientTransform="rotate(-5.146 -1336.2 1211.563)" gradientUnits="userSpaceOnUse"><stop offset="0" stop-color="#fff"/><stop offset="1" stop-color="#fbf8cd"/></radialGradient><path fill="url(#SVGID_15_)" stroke="#666733" stroke-width=".25" d="M27.1 53.4c-.2-.2-.4-.4-.7-.4-.4 0-.4.2-.7.4-.4.2-1.3 0-1.6-.3-.5-.5.1-1.1.6-1.3.6-.2 1.1.4 1.7.3.4-.1.3-.3.5-.6.2-.2.5-.3.7-.3.6-.1 1.2.1 1.8-.1.6-.1 1.2-.2 1.8-.4.3-.1.6-.3.9-.3.4.1.3.3.3.6s.1.6.2.8c.1.3.4.6.3.9-.1.3-.4.4-.7.5-.3.1-.6.4-.9.5-.6.3-1.3.4-2 .6-.6.2-1.2-.3-1.8-.5-.1 0-.1 0-.1-.1"/><path d="M28.1 54.1c1.2-.1 2.5-.6 3.6-.8.2-.1.6-.3.8-.3.3 0 .5.3.5.6-.1.4-1.2.8-1.6.9-.6.2-3.2 1.1-3.3-.4" class="st3"/><radialGradient id="SVGID_16_" cx="127.471" cy="183.616" r="3.653" gradientTransform="rotate(-5.146 -1336.2 1211.563)" gradientUnits="userSpaceOnUse"><stop offset="0" stop-color="#fff"/><stop offset="1" stop-color="#fbf8cd"/></radialGradient><path fill="url(#SVGID_16_)" stroke="#666733" stroke-width=".25" d="M28.6 57.8c.1.4-.3 1.7-.7 1.3-.4-.4-.2-1.2-.5-1.6-.4-.6-1.1-.1-1.7-.1-.7 0-.9-.7-.9-1.3 0-.6.6-.9 1.2-.9.5 0 1.1.7 1.5 0 .1-.3 0-.5.3-.7.3-.2.5 0 .7.1.1.1.1.1.3.1.1 0 .3-.1.4-.1.3 0 .6 0 .9-.1.6-.1 1.2-.2 1.7-.5.4-.2 1.4-.8 1.4-.1 0 .6-.1 1.1.3 1.6.1.2.5.5.4.8-.1.3-.5.3-.7.4-.6.2-1.2.5-1.8.7-.5.2-1.2.2-1.6.6"/><path d="M29.2 57.4c1.2-.1 2.5-.4 3.7-.9.4-.2 1.3-.6 1.4.2.1.6-1 1-1.4 1.1-.4.1-.7.1-1.1.3-.3.1-.7.2-1.1.2h-1.1c-.3 0-.8-.3-.4-.7" class="st3"/><radialGradient id="SVGID_17_" cx="128.509" cy="187.177" r="3.7" gradientTransform="rotate(-5.146 -1336.2 1211.563)" gradientUnits="userSpaceOnUse"><stop offset="0" stop-color="#fff"/><stop offset="1" stop-color="#fbf8cd"/></radialGradient><path fill="url(#SVGID_17_)" stroke="#666733" stroke-width=".25" d="M29.8 61.6c0 .7-.8 1.1-1.5 1.1-.1-.6.1-1.5-.6-1.7-.8-.3-1.6.7-1.6-.7 0-1.1.6-.8 1.3-1 .7-.2.8-.7 1-1.3.8.6 2 .2 3 0 .7-.1 2.7-1.2 3.1-.6.1.1.1.7.1.9.1.3.3.6.4.8.3.6.4.8-.1 1.2-.8.6-2.3.7-3.2 1.1-.5.2-1 .6-1.5.7"/><path d="M31 61.6c-.5.1-.8-.5-.5-.8.2-.2 1.1-.2 1.3-.2.9-.1 1.6-.4 2.5-.7.3-.1.9-.4 1.2-.2.5.3 0 .8-.2 1-.7.6-1.7.7-2.6 1-.6.2-1.1.1-1.7.2" class="st3"/><radialGradient id="SVGID_18_" cx="129.31" cy="190.982" r="3.869" gradientTransform="rotate(-5.146 -1336.2 1211.563)" gradientUnits="userSpaceOnUse"><stop offset="0" stop-color="#fff"/><stop offset="1" stop-color="#fbf8cd"/></radialGradient><path fill="url(#SVGID_18_)" stroke="#666733" stroke-width=".25" d="M31.5 65.6c-.1.6-1.5 1.3-1.9.7-.5-.7.3-1.8-.7-2.3-.8-.4-1.9.9-1.8-.7 0-.5.1-.9.5-1 .4-.1.7.4 1.1.2.6-.2.8-1.2 1.6-.6.6-.6 1.7-.5 2.4-.7.8-.2 1.7-.4 2.5-.7 1-.3.5 1 .8 1.7.2.4.6.7.6 1.1 0 .6-.3.5-.8.6-.6.2-1.5.5-2 .9-.4.2-.6.5-1 .6-.3.1-.8 0-1.1.2"/><radialGradient id="SVGID_19_" cx="129.235" cy="210.38" r="8.895" gradientTransform="rotate(-5.146 -1336.2 1211.563)" gradientUnits="userSpaceOnUse"><stop offset="0" stop-color="#fff"/><stop offset="1" stop-color="#fbf8cd"/></radialGradient><path fill="url(#SVGID_19_)" stroke="#666733" stroke-width=".25" d="M31 95.2c-.4-.6-.2-2 .2-2.6.4-.6 1.4-1 2.1-1.3 0-.1.1-.5.1-.6-.1-.3-.3-.1-.4-.3-.2-.3-.5-.6-.2-1h-.3c-.3-1 .9-1.2 1.1-2.1.1-.3-.1-1-.2-1.2-.3-.5-.3-.4-.9-.6 0-.2-.1-.4-.1-.6-.7-.3.1-1 .3-1.4.4-.5.5-.9.5-1.6 0-.6-.1-1.1-.6-1.5-.2-.2-1.3-.8-.3-1.2-.9-.8.3-1.3.3-2.1 0 0-.4-.9-.9-1-.5-.2-1.5-.5-1.1-.9.4-.4.3-1 .3-1s.6-1.6.5-2c0 0 .7-1.9 1.9-.7 1.1 1.2 8.9 15.7.3 23.6-1.8.2-2.6.1-2.6.1z"/><radialGradient id="SVGID_20_" cx="122.998" cy="227.343" r="4.631" gradientTransform="rotate(-5.146 -1336.2 1211.563)" gradientUnits="userSpaceOnUse"><stop offset="0" stop-color="#fff"/><stop offset="1" stop-color="#fbf8cd"/></radialGradient><path fill="url(#SVGID_20_)" stroke="#666733" stroke-width=".25" d="M26.6 106.3s-1.6-1.5 0-2.2c-.3-1.5.1-2.4 1.2-2.7-.3-1.6-.8-2.2.3-2.6l1.1-.4s-1-1.8-.2-2.3c.8-.6 1.8-1 1.8-1l.8-.6"/><path d="M39.2 96.6c1.3 0 2.3-1.4 1.6-2.6-1.1 0-2.1 0-3.1-.3-.7-.2-1.7-.9-2.4-.9-.6 1.2-1 1.7.3 2.4.8.4 2.2 1.2 3.1 1.2" class="st3"/><radialGradient id="SVGID_21_" cx="126.945" cy="228.988" r="8.135" gradientTransform="rotate(-5.146 -1336.2 1211.563)" gradientUnits="userSpaceOnUse"><stop offset="0" stop-color="#fff"/><stop offset="1" stop-color="#fbf8cd"/></radialGradient><path fill="url(#SVGID_21_)" stroke="#666733" stroke-width=".25" d="M28.1 111s-.5-2.3.5-4.1c1-1.8 2.9-3.6 4.2-4.1 1.3-.5 4.3-.7 4.6-2.8.3-2-.1-2.7-.1-2.7l2.6-1.1-4.5-1.8s-3.1-2.6-3.5-1.5c-.4 1-.7 3.1-.7 3.1s-1.6 2.8-2.4 4.4c-.8 1.6-2.8 6.8-2.6 7.6.2 1 .9 3.3 1.9 3z"/><path d="M35.8 92.7c-.3-.9-1.4-1.8-2.1-.7-.4.6-.1 2.6.5 3 .4-.6 1.6-1.7 1.6-2.5" class="st23"/><path d="M36.5 64.6c.3-.5.5-1.3-.3-1.1-.6.1-1.6.4-2.1.7-.9.4-2.1.5-2.9 1.2.1.5 1.6.3 1.9.2m8.3 24.9c.8-.1.9-1.6.6-2.2-.9-.2-5.4-.9-5.8.4-.5 1.6 4 1.8 4.8 1.8" class="st3"/><radialGradient id="SVGID_22_" cx="132.47" cy="219.84" r="3.624" gradientTransform="rotate(-5.146 -1336.2 1211.563)" gradientUnits="userSpaceOnUse"><stop offset="0" stop-color="#fff"/><stop offset="1" stop-color="#fbf8cd"/></radialGradient><path fill="url(#SVGID_22_)" stroke="#666733" stroke-width=".25" d="M41 94.4c.4-.9.1-1.6.1-1.8 0-.7 1-1.7.7-2.2-.3-.5-1.8 0-2.4-.1-.8-.1-1.6-.5-2.4-.7-.9-.2-1.1-.1-1.9.4-.4.2-1.8.8-1.9 1.1-.5 1.3 1.3.6 1.8.9.4.3.3.8.5 1.1.3.4.8.5 1.2.6 1.3.5 3.1 1.2 4.5.5"/><radialGradient id="SVGID_23_" cx="130.112" cy="195.352" r="4.175" gradientTransform="rotate(-5.146 -1336.2 1211.563)" gradientUnits="userSpaceOnUse"><stop offset="0" stop-color="#fff"/><stop offset="1" stop-color="#fbf8cd"/></radialGradient><path fill="url(#SVGID_23_)" stroke="#666733" stroke-width=".25" d="M37.6 67.6c.5-.2.3-.5.1-.8-.3-.4-.4-.5-.6-1-.1-.3-.1-1.1-.3-1.3-.3-.4-.8-.1-1.2 0-.9.3-1.8.4-2.7.7-.4.1-.8.4-1.2.4-.4.1-.8.1-1.2.3-.5.3-.5 1.1-1.2 1.3-.6.1-1.7-.5-1.2.7.3.9 1.2.1 1.8.4.2.1.7 1.5.6 1.8-.3-.1-.8-.5-.9 0-.1.4.3.9.6 1.1.7.4 1.8.2 2.3-.3 1.4-1.3 2.6-2.5 4.5-3 .2-.1.4 0 .5-.2"/><path d="M36.2 88.6c.3-.4.4-1.1.4-1.6-1.3-.9-2.3.8-2.1 2 .3 2 1.9 1.7 1.8-.3" class="st23"/><path d="M42 85.3c.7-.1.7-2.5-.3-2.9-.7-.3-1.5.2-2.1.3-.7.1-1.6-.1-2.2.1-1.8.5-.5 1.9.7 2.2 1.4.3 2.8-.3 4.1.3" class="st3"/><radialGradient id="SVGID_24_" cx="133.359" cy="214.642" r="3.466" gradientTransform="rotate(-5.146 -1336.2 1211.563)" gradientUnits="userSpaceOnUse"><stop offset="0" stop-color="#fff"/><stop offset="1" stop-color="#fbf8cd"/></radialGradient><path fill="url(#SVGID_24_)" stroke="#666733" stroke-width=".25" d="M37 88.4c-.2 0-.4-.2-.7-.2-.4-1.2-1.1-.7-1.9-1.1-.7-.3-1.3-1.2-.4-1.6.4-.2.9.3 1.3.2.4-.1.5-.7.8-.9.8-.4 1.6-.1 2.3-.1.9 0 1.7 0 2.7.1 1.3.2 1.1.2 1 1.5 0 .9.4 1.9-.3 2.4-.6.4-2 .3-2.6.2-.7-.1-1.4-.4-2.2-.5"/><path d="M38.2 68.6c.2-.3 0-1.3-.4-1.4-.4-.1-1.2.3-1.5.5-1 .5-2.2.8-3.2 1.3-.5.3-.6.7.1.9.6.2 1-.3 1.6-.6.8-.3 2.6-.9 3.4-.7" class="st3"/><radialGradient id="SVGID_25_" cx="131.606" cy="211.372" r="1.545" gradientTransform="rotate(-5.146 -1336.2 1211.563)" gradientUnits="userSpaceOnUse"><stop offset="0" stop-color="#fff"/><stop offset="1" stop-color="#fbf8cd"/></radialGradient><path fill="url(#SVGID_25_)" stroke="#666733" stroke-width=".25" d="M36.9 82.7c-.1-1.6-1.9-.7-2.1.4-.2 1.1.3 2.2 1.4 2.4.5-.7.6-1.7.8-2.5"/><radialGradient id="SVGID_26_" cx="131.827" cy="198.959" r="3.79" gradientTransform="rotate(-5.146 -1336.2 1211.563)" gradientUnits="userSpaceOnUse"><stop offset="0" stop-color="#fff"/><stop offset="1" stop-color="#fbf8cd"/></radialGradient><path fill="url(#SVGID_26_)" stroke="#666733" stroke-width=".25" d="M33.5 72.7c0-.4-.8-.9-1.1-.8-.6 0-.7.8-1.3.7-.6-.1-.8-.9-.6-1.3.4-.7 1 0 1.6-.3.4-.2.4-.9.9-1.1.5-.3 1.2-.2 1.8-.4.9-.4 2.2-1 3.3-.9.1 0 .2 0 .3-.1.6.5.6 1.7 1 2.3.3.4.6.5.5 1-.1.3-.8.7-1 .8-.8.6-1.7.8-2.7 1.1-.4.1-1 .5-1.5.3s-.4-.9-.8-1.2"/><path d="M40.3 73.8c.2-.5.1-1.2-.2-1.5-.5-.6-.9-.2-1.5.1-1.1.7-2 1-3.3 1.2-.5.1-1.2.4-.9 1 .3.5 1.3.3 1.8.3 1.2-.2 2.5-.3 3.6-.8.1 0 .3-.2.5-.3" class="st3"/><radialGradient id="SVGID_27_" cx="133.124" cy="203.994" r="3.761" gradientTransform="rotate(-5.146 -1336.2 1211.563)" gradientUnits="userSpaceOnUse"><stop offset="0" stop-color="#fff"/><stop offset="1" stop-color="#fbf8cd"/></radialGradient><path fill="url(#SVGID_27_)" stroke="#666733" stroke-width=".25" d="M35 77c-.7-.4-.6-.3-1.4 0-.5.2-1 .2-1.4-.3-.3-.5-.2-1.1.4-1.2.7-.1.6.4 1.1-.3.4-.5.4-.8 1.1-.8.6 0 1.2.2 1.8.2 1.2-.1 2.2-.7 3.2-1 1.1-.3.9 1 1.2 1.9.3.9 1 1.9-.3 2.3-1.1.3-2.1.5-3.2.8-1.1.3-2 0-2.5-1"/><path d="M41.6 79.2c.6-.1.4-1.1.2-1.5-.3-.6-.7-.7-1.3-.5-1.1.2-2.4.4-3.4.7-.4.1-1.3.2-1.4.7-.2.7.7.7 1.2.7 1.2 0 2.4 0 3.6.1.4 0 .9-.1 1.1-.2" class="st3"/><radialGradient id="SVGID_28_" cx="133.407" cy="209.001" r="3.775" gradientTransform="rotate(-5.146 -1336.2 1211.563)" gradientUnits="userSpaceOnUse"><stop offset="0" stop-color="#fff"/><stop offset="1" stop-color="#fbf8cd"/></radialGradient><path fill="url(#SVGID_28_)" stroke="#666733" stroke-width=".25" d="M36.4 82c0 .2.4.8.6 1.1.9.2 1.7-.2 2.6-.2.6 0 1.9.4 2.4.2 1.1-.4.2-.9-.1-1.6-.3-.9.4-1.5.2-2.3-1.2-.4-2.7.1-4 .1-.6 0-1.2-.2-1.8-.1-1.3.2-.3.3-.9 1.1-.5.5-3.4-.1-2.7 1.3.4.8 2.8.3 3.5.5"/><radialGradient id="SVGID_29_" cx="131.027" cy="205.905" r="1.319" gradientTransform="rotate(-5.146 -1336.2 1211.563)" gradientUnits="userSpaceOnUse"><stop offset="0" stop-color="#fff"/><stop offset="1" stop-color="#fbf8cd"/></radialGradient><path fill="url(#SVGID_29_)" stroke="#666733" stroke-width=".25" d="M35.3 76.9c-2.3-.1-1.8 3.4.2 2.9.6-.9.6-2.3-.3-3"/><radialGradient id="SVGID_30_" cx="129.953" cy="201.172" r="1.081" gradientTransform="rotate(-5.146 -1336.2 1211.563)" gradientUnits="userSpaceOnUse"><stop offset="0" stop-color="#fff"/><stop offset="1" stop-color="#fbf8cd"/></radialGradient><path fill="url(#SVGID_30_)" stroke="#666733" stroke-width=".25" d="M34.2 74.7c-.7.2-.8.2-1.3-.4-.3-.3-.4-.1-.5-.6-.1-.4.1-.6.4-.9 1.1-1 2.1 1.1 1.4 1.9"/><radialGradient id="SVGID_31_" cx="129.107" cy="196.72" r="1.045" gradientTransform="rotate(-5.146 -1336.2 1211.563)" gradientUnits="userSpaceOnUse"><stop offset="0" stop-color="#fff"/><stop offset="1" stop-color="#fbf8cd"/></radialGradient><path fill="url(#SVGID_31_)" stroke="#666733" stroke-width=".25" d="M33.1 69.7c-.2-.7-.3-1-.9-1.3-.7-.3-1.1 0-1 .8.2.9 2.3 2 2 .4"/><path d="M32.6 89.5c.2-.9 1.1-1.3 1.9-1.4m-2.3-3.3c.3-1.2 1.4-.9 2.3-1.2m-2.3-4.5c.4-.2.9-.4 1.5-.4m-3.1-3.8c.7-.1.8-1.3 1.7-1" class="st34"/><radialGradient id="SVGID_32_" cx="128.095" cy="192.147" r=".762" gradientTransform="rotate(-5.146 -1336.2 1211.563)" gradientUnits="userSpaceOnUse"><stop offset="0" stop-color="#fff"/><stop offset="1" stop-color="#fbf8cd"/></radialGradient><path fill="url(#SVGID_32_)" stroke="#666733" stroke-width=".25" d="M31.3 65.6c.2-.7-.6-2.2-1.1-1.2-.3.6.9 2 1.1 1.2"/><radialGradient id="SVGID_33_" cx="127.422" cy="188.589" r=".869" gradientTransform="rotate(-5.146 -1336.2 1211.563)" gradientUnits="userSpaceOnUse"><stop offset="0" stop-color="#fff"/><stop offset="1" stop-color="#fbf8cd"/></radialGradient><path fill="url(#SVGID_33_)" stroke="#666733" stroke-width=".25" d="M30.4 61.1c0-.5-.6-.6-1-.5-.8.2-.3.5-.1 1 .2.4.2 1 .9.8.5-.2.4-.8.3-1.3"/><radialGradient id="SVGID_34_" cx="126.899" cy="184.533" r=".814" gradientTransform="rotate(-5.146 -1336.2 1211.563)" gradientUnits="userSpaceOnUse"><stop offset="0" stop-color="#fff"/><stop offset="1" stop-color="#fbf8cd"/></radialGradient><path fill="url(#SVGID_34_)" stroke="#666733" stroke-width=".25" d="M28.5 56.5c-.6.1-.1 2.1.6 1.8 1.1-.3.1-1.7-.6-1.8"/><radialGradient id="SVGID_35_" cx="126.055" cy="180.897" r=".804" gradientTransform="rotate(-5.146 -1336.2 1211.563)" gradientUnits="userSpaceOnUse"><stop offset="0" stop-color="#fff"/><stop offset="1" stop-color="#fbf8cd"/></radialGradient><path fill="url(#SVGID_35_)" stroke="#666733" stroke-width=".25" d="M27.5 53c-.1.2-.4.1-.5.3-.1.2.1.4.2.6.2.3.5.9.9.9.6.1.5-.6.3-1-.3-.4-.5-.7-.9-.8"/><radialGradient id="SVGID_36_" cx="125.635" cy="177.17" r=".789" gradientTransform="rotate(-5.146 -1336.2 1211.563)" gradientUnits="userSpaceOnUse"><stop offset="0" stop-color="#fff"/><stop offset="1" stop-color="#fbf8cd"/></radialGradient><path fill="url(#SVGID_36_)" stroke="#666733" stroke-width=".25" d="M26.7 49.3s0 0 0 0c-.7.2 0 1.8.5 1.9.7 0 0-1.8-.5-1.9"/><radialGradient id="SVGID_37_" cx="125.75" cy="173.723" r=".762" gradientTransform="rotate(-5.146 -1336.2 1211.563)" gradientUnits="userSpaceOnUse"><stop offset="0" stop-color="#fff"/><stop offset="1" stop-color="#fbf8cd"/></radialGradient><path fill="url(#SVGID_37_)" stroke="#666733" stroke-width=".25" d="M26.4 45.9c-.4-.1-.2.8-.1 1 .1.2.6.8.9.7.7-.1-.4-1.7-.8-1.7"/><radialGradient id="SVGID_38_" cx="125.867" cy="170.585" r=".777" gradientTransform="rotate(-5.146 -1336.2 1211.563)" gradientUnits="userSpaceOnUse"><stop offset="0" stop-color="#fff"/><stop offset="1" stop-color="#fbf8cd"/></radialGradient><path fill="url(#SVGID_38_)" stroke="#666733" stroke-width=".25" d="M26.4 42.8c-.4-.3-.3.8-.3.9.1.3.3.8.7.9.9.1.1-1.6-.4-1.8"/><radialGradient id="SVGID_39_" cx="126.437" cy="167.333" r=".745" gradientTransform="rotate(-5.146 -1336.2 1211.563)" gradientUnits="userSpaceOnUse"><stop offset="0" stop-color="#fff"/><stop offset="1" stop-color="#fbf8cd"/></radialGradient><path fill="url(#SVGID_39_)" stroke="#666733" stroke-width=".25" d="M27.1 39.6c-.1-.6-.6.2-.6.4 0 .3.1.9.3 1.1.9.7.3-1.5.2-1.7"/><radialGradient id="SVGID_40_" cx="127.408" cy="163.973" r=".715" gradientTransform="rotate(-5.146 -1336.2 1211.563)" gradientUnits="userSpaceOnUse"><stop offset="0" stop-color="#fff"/><stop offset="1" stop-color="#fbf8cd"/></radialGradient><path fill="url(#SVGID_40_)" stroke="#666733" stroke-width=".25" d="M27.6 36c-.7 0-.5 1.7 0 1.8.6.2.5-1.5 0-1.7"/><radialGradient id="SVGID_41_" cx="128.394" cy="160.906" r=".612" gradientTransform="rotate(-5.146 -1336.2 1211.563)" gradientUnits="userSpaceOnUse"><stop offset="0" stop-color="#fff"/><stop offset="1" stop-color="#fbf8cd"/></radialGradient><path fill="url(#SVGID_41_)" stroke="#666733" stroke-width=".25" d="M28.3 33c-.5.1-.6 1.4-.1 1.5.5-.3.6-1.1.1-1.5"/><radialGradient id="SVGID_42_" cx="129.171" cy="157.981" r=".6" gradientTransform="rotate(-5.146 -1336.2 1211.563)" gradientUnits="userSpaceOnUse"><stop offset="0" stop-color="#fff"/><stop offset="1" stop-color="#fbf8cd"/></radialGradient><path fill="url(#SVGID_42_)" stroke="#666733" stroke-width=".25" d="M29 30.1c-.6-.4-.7 1.1-.4 1.4.5.4.8-1.3.4-1.4"/><radialGradient id="SVGID_43_" cx="130.189" cy="155.141" r=".448" gradientTransform="rotate(-5.146 -1336.2 1211.563)" gradientUnits="userSpaceOnUse"><stop offset="0" stop-color="#fff"/><stop offset="1" stop-color="#fbf8cd"/></radialGradient><path fill="url(#SVGID_43_)" stroke="#666733" stroke-width=".25" d="M29.6 27.3c-.6-.1-.5 1-.1 1 .3 0 .4-.3.4-.5s-.2-.3-.3-.5"/><path d="M30.7 25.9c-.2.1-.8.2-.9.4-.1.3.1.7.3.8.8.4 1.1-.3 1-1m1.4-5.4c-.2 0-.3.2-.5.2 0 .2 0 .4.1.6.2.2.1.1.4.1.4-.1.7-.3.3-.8" class="st34"/><radialGradient id="SVGID_44_" cx="132.83" cy="141.576" r="3.19" gradientTransform="rotate(-5.146 -1336.2 1211.563)" gradientUnits="userSpaceOnUse"><stop offset="0" stop-color="#fff"/><stop offset="1" stop-color="#fbf8cd"/></radialGradient><path fill="url(#SVGID_44_)" stroke="#666733" stroke-width=".25" d="M32.5 15.3c-.3.2-.7.2-.9-.1-.3-.2-.2-.7-.4-.8-.3.3-.2.7-.5 1-.3.2-.7.7-.9.3-.4.5-1.2.2-1.6.6-.2.2-.3.5-.6.2-.1-.1-.3-.6-.3-.8 0-.3.5-1.3.8-1.4.5-.3 1.3 0 1.8-.2s.5-.9 1-1.1c.5-.2 1 .2 1.6-.2.5-.3.6-.9 1-1.2.6-.3.7.6.8 1 .3 0 .5.2.4.5 0 .3-.3.3-.4.5-.2.4.6.8.7 1.3 0 .8-.6.7-1.1.4-.4-.1-1.1-.3-1.4 0"/><path d="M31.9 23.3c-.3 0-.5.2-.7.3 0 .2 0 .6.1.8.2.3.2.2.6.1.6-.1.9-.5.4-1m.7-5.3c-.2 0-.3.2-.5.2 0 .2 0 .4.1.6.2.2.1.1.4.1.4-.1.7-.3.3-.8m-.3-2.7c-.2 0-.3.2-.5.2 0 .2 0 .4.1.6.2.2.1.1.4.1.4-.1.7-.3.3-.8m-1.8-2c-.3.3.4.8.7.8.7-.2-.1-.8-.4-.9m-2.2 2c-.2-.3.1-.5.3-.7m2.7-.1c.3-.3.7-1.2 1.1-1.3m-4-1.5c.2-.1.3-.1.5-.1 0-.3 1.4-.3.9-.7-.3-.2-1.2.1-1.6 0m1 1.4c.4 0 1.3.2 1.4-.2.1-.3-.2-.4 0-.7.1-.2.5-.4.7-.3m1.2.2s.1-.5.1-.7m0 .4h.4" class="st34"/></g></switch></svg>
