<svg xmlns="http://www.w3.org/2000/svg" xmlns:xlink="http://www.w3.org/1999/xlink" version="1.0" viewBox="0 0 220 129"><switch><g><symbol id="a" viewBox="-67.1 -72.6 134.2 145.2"><path fill="#007647" d="M14-2.3c-.5.6-1.4.6-2 .1-.2-.2-4.3-4-8-10.7C4.6 6.7 6.8 24 6.8 24.3c.1.8-.5 1.5-1.2 1.6-.8.1-1.5-.5-1.6-1.2 0-.3-2.6-21.2-3-43.1-2.6 7-5.6 10.6-5.8 10.8-.4.6-1.3.6-1.9.1-.6-.5-.7-1.4-.2-2 .1-.1 5.5-6.8 7.9-19.9.2-7.5.7-14.8 1.8-21 .1-.8.9-1.3 1.6-1.1.8.1 1.3.9 1.1 1.6-.3 1.6-.5 3.3-.7 5.1.1.2.2.4.2.6.2 5.8-.3 10.9-1.1 15.4-.1 3-.1 6 0 9C7.7-10.1 13.9-4.3 14-4.2c.5.5.5 1.4 0 1.9z"/><path fill="none" d="M23.6 15.5c-.8 1.6-2.1 2.6-2.9 2.1-.8-.5-.7-2.2.1-3.8.9-1.6 2.2-2.5 2.9-2 .8.4.7 2.1-.1 3.7zm16.2-2c1.3-1.2 2.8-1.9 3.4-1.4.6.5 0 1.9-1.3 3.2-1.3 1.3-2.9 1.9-3.5 1.4-.6-.5 0-2 1.4-3.2zm19 10.8c-.5-.1-.7-.1-1.2-.2.4 0 .8 0 1.2.2zm-14.6-.2c.4 1.8.1 3.2-.7 3.2-.8 0-1.8-1.5-2.1-3.3-.3-1.8.1-3.2.9-3.2s1.6 1.5 1.9 3.3zM22.8 4.6c-.6-.6.1-2 1.5-3.2C25.7.2 27.2-.3 27.7.3c.5.5-.1 2-1.4 3.2-1.4 1.2-3 1.7-3.5 1.1zm9.1 13.5c.8.1 1.5 1.7 1.6 3.5.2 1.8-.3 3.2-1.2 3.1-.8-.1-1.6-1.8-1.8-3.6 0-1.7.6-3.1 1.4-3zm4.8-12.4c.5.5-.2 1.9-1.7 3-1.4 1.1-3.1 1.5-3.6 1-.5-.6.3-1.9 1.8-3s3-1.5 3.5-1z"/><path fill="#83B03E" d="M57.3 24.2c-.2.1-.3.2-.5.3-.6.3-.4 1.2.3 2 1.3 1.3 1.9 1.9 3.3 3.1-2 .9-4.3 1.8-7.1 2.4-1.7-2.6-2.4-3.9-3.8-6.6-.5-.9-1.4-1.6-2.1-1.4-.3 0-.4.1-.7.1-.7.1-.9 1-.5 1.9 1.3 2.7 2 4 3.5 6.6-2.3.3-4.7.4-7.2.2-1.8-3.9-2.5-5.8-3.7-9.7-.3-1-1.1-1.8-1.8-1.8h-.7c-.7 0-1.1.8-.8 1.8 1 3.7 1.7 5.5 3.2 9.2-3.1-.6-6.3-1.6-9.3-3.2-.4-3.6-.5-5.4-.5-9 0-1-.6-1.9-1.3-2.1-.3-.1-.4-.1-.7-.2-.7-.2-1.4.4-1.4 1.4-.1 3-.1 4.5.1 7.6-3.8-2.7-7-6.3-9.4-10.3 1.1-2 1.6-3 2.7-5 .5-.8.3-1.8-.3-2.3-.3-.1-.4-.2-.6-.3-.6-.5-1.5-.2-2 .6-.7 1.2-1.1 1.8-1.8 3.1C12 6.6 10.4 1 11.1-5.3h.2C23.6 10 38.6 19.4 57.6 24.1c-.1 0-.2.1-.3.1zm-26.7-3c.1 1.8.9 3.5 1.8 3.6.8.1 1.3-1.3 1.2-3.1-.2-1.8-.8-3.4-1.6-3.5-.9-.2-1.5 1.2-1.4 3zm-9.7-7.4c-.9 1.6-.9 3.3-.1 3.8s2.1-.4 2.9-2.1c.8-1.6.9-3.3.2-3.7-.9-.5-2.2.4-3 2zm21.3 7.1c-.8 0-1.2 1.4-.9 3.2.3 1.8 1.3 3.3 2.1 3.3s1.1-1.4.7-3.2c-.2-1.9-1.1-3.3-1.9-3.3z"/><path fill="#007647" d="M31.7 6.2c2.8-1.8 4.2-2.7 6.8-4.6 1.4.6 2.9 1.2 4.3 2 .8.4 1.5.9 2.2 1.3-3.1 2.1-4.7 3-8.2 4.8-.9.4-1.3 1.2-.9 1.8.1.2.2.3.4.5.4.5 1.4.6 2.3.2 3.5-1.9 5.1-2.9 8.2-5.2.2-.1.4-.3.5-.5 1.5 1.2 3 2.4 4.4 3.7-2.5 2-3.9 2.9-6.7 4.7-.8.5-1.2 1.3-.7 1.8.2.2.3.3.4.5.4.5 1.5.5 2.3 0 2.9-1.9 4.2-2.9 6.8-5 1.7 1.6 3.3 3.3 4.9 4.8-1.9 1.1-3 1.6-5.1 2.6-.9.4-1.4 1.2-1 1.7.1.2.2.3.4.5.4.5 1.5.6 2.4.1 2.2-1.1 3.3-1.7 5.3-2.9 3.2 3.3 5.7 5.9 6.2 6.5-3.3-.3-5-.5-8.2-1.1-.4-.2-.8-.3-1.2-.2C38.6 19.4 23.6 10 11.3-5.3c.9.2 4.9 1 10 2.1-.6.5-.9.7-1.4 1.1-.7.6-.9 1.5-.5 2l.5.5c.4.6 1.3.6 2-.1 1.2-1.1 1.8-1.6 3.1-2.7 3.3.8 6.9 1.6 10.3 2.7-2.1 1.4-3.2 2.1-5.4 3.3-.8.5-1.2 1.3-.8 1.8.2.2.2.3.4.5.4.7 1.4.8 2.2.3zm6.7 10.5c.6.5 2.2-.1 3.5-1.4 1.3-1.3 1.8-2.7 1.3-3.2-.6-.5-2.1.2-3.4 1.4-1.4 1.2-2 2.7-1.4 3.2zM27.6.3c-.5-.5-2 0-3.4 1.1-1.4 1.2-2 2.6-1.5 3.2.6.6 2.1.1 3.4-1.1C27.5 2.3 28.2.8 27.6.3zm3.9 9.4c.5.6 2.1.2 3.6-1 1.4-1.1 2.1-2.5 1.7-3-.5-.5-2-.1-3.5 1s-2.3 2.4-1.8 3z"/><path fill="#83B03E" d="M67.1 25.6s-1.3 1.1-3.9 2.6C61.7 27 61 26.3 59.7 25c-.3-.3-.6-.5-.9-.6 3.2.6 4.9.8 8.2 1.1.1 0 .1.1.1.1z"/><path fill="none" d="M1.6 39.9c-1.7.5-3.3.4-3.5-.2C-2 39-.8 38.1.9 37.6c1.7-.5 3.3-.4 3.5.2.2.6-1.1 1.6-2.8 2.1zm11.8 8.2c1.8.2 3.1 1 3.1 1.6-.1.7-1.6 1-3.4.7-1.8-.2-3.1-1-3.1-1.6.1-.6 1.6-.9 3.4-.7zm-1.3 18l-.1-.9c.1.2.2.5.1.9zM6.6 56c-1.4 1-2.8 1.4-3.2.9-.4-.5.5-1.7 1.9-2.7 1.4-1 2.8-1.4 3.2-.9.4.5-.5 1.7-1.9 2.7zm1.9-23.1c0-.7 1.4-1.3 3.2-1.4 1.8-.1 3.3.3 3.3 1s-1.4 1.3-3.2 1.4c-1.8.1-3.3-.4-3.3-1zM5 45.7c.4.5-.5 1.7-1.9 2.7-1.4 1-2.8 1.4-3.2.9-.4-.5.5-1.7 1.9-2.7 1.4-1 2.8-1.4 3.2-.9zm12.6-4.1c-.1.7-1.6 1-3.4.7-1.8-.2-3.1-1-3.1-1.6.1-.7 1.6-1 3.4-.7 1.9.2 3.2 1 3.1 1.6z"/><path fill="#83B03E" d="M11.8 65l-.5-.3c-.5-.3-1.3.1-1.8.9l-2 3.2c-1.4-1.1-2.9-2.5-4.4-4L7.8 60c.7-.7.8-1.5.4-1.9l-.4-.4c-.4-.4-1.3-.2-1.9.5l-4.6 4.7c-1.1-1.3-2.2-2.7-3.2-4.3l6.7-6.2c.7-.6.9-1.5.5-1.9l-.3-.6c-.4-.4-1.3-.3-2 .4l-6.2 5.8c-1-2-1.7-4.1-2.2-6.3l6.9-4.6c.8-.5 1.1-1.3.8-1.8l-.3-.5c-.3-.5-1.2-.5-2 .1l-5.8 3.9c-.2-3.3.4-6.6 1.4-9.7L1 35.4c.9-.3 1.5-1 1.3-1.5l-.2-.5c-.2-.6-1-.8-1.9-.5L-3.2 34c3.1-7.4 7.8-12.7 7.8-12.7s.1 0 .1.1L12 65.2c-.1-.1-.1-.2-.2-.2zm-10-18.5c-1.4 1-2.2 2.2-1.9 2.7.4.5 1.8.1 3.2-.9 1.4-1 2.2-2.2 1.9-2.7-.4-.4-1.8 0-3.2.9zm-.9-8.9c-1.7.5-3 1.4-2.8 2.1.2.6 1.7.7 3.5.2 1.7-.5 3-1.4 2.8-2.1-.2-.6-1.7-.7-3.5-.2zm7.6 15.7c-.4-.5-1.8-.1-3.2.9-1.4 1-2.2 2.2-1.9 2.7.4.4 1.8.1 3.2-.9 1.4-1 2.3-2.2 1.9-2.7z"/><path fill="#007647" d="M13.9 38.7l8 1.4c.5 1.4 1 2.9 1.2 4.4.1.8.2 1.7.3 2.5l-8.7-3c-.9-.3-1.7-.1-1.9.4l-.3.6c-.2.6.4 1.2 1.2 1.6l8.9 3.2c.2.1.5.1.7.1-.1 1.9-.4 3.7-.9 5.4l-7.3-2.9c-.9-.3-1.7-.2-2 .4l-.1.4c-.2.5.3 1.3 1.2 1.6l7.5 3c-.7 2.1-1.6 4-2.5 5.8l-4.3-3c-.8-.5-1.7-.6-2-.1l-.4.5c-.3.5 0 1.3.8 1.8l4.5 3.1c-2.1 3.6-4.2 6-4.6 6.5l-1-6.4c.1-.4 0-.7-.2-.9L4.8 21.3c.7.4 3.8 2.3 7.3 5.4l-1.8.2c-.9.1-1.6.6-1.6 1.2l.1.6c.1.6.9 1 1.8.9l4.1-.4c2.2 2.3 4.3 5 6 8l-6.2-1.1c-.9-.2-1.7.2-1.8.7l-.1.6c-.2.6.4 1.2 1.3 1.3zM10 48.8c-.1.7 1.3 1.4 3.1 1.6 1.8.2 3.3-.1 3.4-.7.1-.7-1.3-1.4-3.1-1.6-1.8-.2-3.3.1-3.4.7zm5-16.3c0-.7-1.5-1.1-3.3-1-1.8.1-3.2.7-3.2 1.4s1.5 1.1 3.3 1c1.8-.1 3.2-.8 3.2-1.4zm-3.8 8.2c-.1.7 1.3 1.4 3.1 1.6 1.8.2 3.3-.1 3.4-.7.1-.7-1.3-1.4-3.1-1.6-1.8-.2-3.3.1-3.4.7z"/><path fill="#83B03E" d="M13.1 72.6s-1.4-.8-3.4-2.2l2.1-3.4c.2-.3.3-.6.3-.9l1 6.4v.1z"/></symbol><pattern id="e" width="60.8" height="60.8" overflow="visible" patternUnits="userSpaceOnUse" viewBox="7.6 -68.4 60.8 60.8"><path fill="#018B45" d="M30.4 0v-15.2H15.2V0zm30.4 0v-15.2H45.6V0z"/></pattern><path fill="#55C7E8" d="M0 0h220v129H0z"/><path fill="#71BD44" d="M0 93.5h220v35H0z"/><path fill="#999" d="M219.9 105.1L0 106.9v21.9l220.4.4z"/><use width="134.2" height="145.2" x="-67.1" y="-72.6" overflow="visible" transform="matrix(.182 0 0 -.1898 12.54 104.293)" xlink:href="#a"/><path fill="#FFF" d="M114.5 14.4c-1.4-1.9-2.5-2.3-5-1.5-2.7.8-3.4 3-5.2.5-1.2-1.8-1.1-3.8-4.3-3-2.3.6-1.5 1.3-2 3-1.3-.2-5.3-1.9-4.4.5-1.2-.1-2 .4-1.7 1.4-1.9.1-4.4-1.3-6-.8-2.5.7-1.1 2.6.3 3.6 2.1 1.7 3.6.2 5.7 1.7 1 .7.6 1.8 1.9 2 1.2.3 2.1-.3 2.3-1.3.5.2 1.3 0 1.7 0 .2-1.1 0-2.2.6-3.1.7 1.1 1.5 2 2.8 1.5.7 1 2 3.1 3.7 2.5 1.2-.4 1.6-2.1 1.2-3 .9-.7 1.8-.2 2.4.6.7-1.6 1.9-.7 3-1.4.6-.4 1.2-1.6 1.8-2 1.7 1.2 3-.4 1.4-1.6m-19 42.2c1.4 2 2.5 2.4 5.2 1.7 2.8-.8 3.7-3 5.4-.3 1.2 1.9 1 4 4.4 3.2 2.5-.5 1.6-1.3 2.2-3 1.3.3 5.4 2.2 4.6-.4 1.2.1 2.1-.4 1.8-1.4 1.9-.1 4.5 1.5 6.2 1 2.6-.7 1.2-2.6-.1-3.8-2.1-1.8-3.7-.4-5.9-1.9-1-.7-.5-1.8-1.9-2.2-1.2-.3-2.2.3-2.4 1.3-.5-.2-1.4 0-1.8-.1-.3 1.1-.1 2.3-.7 3.2-.6-1.1-1.4-2.1-2.9-1.7-.7-1.1-2-3.2-3.7-2.7-1.3.4-1.8 2.1-1.4 3.1-1 .7-1.9.1-2.4-.7-.8 1.7-2 .7-3.1 1.3-.7.4-1.3 1.6-2 2.1-1.7-1.3-3.2.3-1.5 1.7M28 46.7c1.4 2 2.5 2.4 5.2 1.7 2.8-.8 3.7-3 5.4-.3 1.2 1.9 1 4 4.4 3.2 2.5-.5 1.6-1.3 2.2-3 1.3.3 5.4 2.2 4.6-.4 1.2.1 2.1-.4 1.8-1.4 1.9-.1 4.5 1.5 6.2 1 2.6-.7 1.2-2.6-.1-3.8-2.1-1.8-3.7-.4-5.9-1.9-1-.7-.5-1.8-1.9-2.2-1.2-.3-2.2.3-2.4 1.3-.5-.2-1.4 0-1.8-.1-.3 1.1-.1 2.3-.7 3.2-.6-1.1-1.4-2.1-2.9-1.7-.7-1.1-2-3.2-3.7-2.7-1.3.4-1.8 2.1-1.4 3.1-1 .7-1.9.1-2.4-.7-.8 1.7-2 .7-3.1 1.3-.7.4-1.3 1.6-2 2.1-1.7-1.3-3.2.3-1.5 1.7" opacity=".75"/><pattern id="c" patternTransform="matrix(.5645 0 0 .6965 -3550.263 -2550.71)" xlink:href="#b"/><path fill="url(#c)" d="M23.9 8.2h177.6v99.2H23.9z"/><path fill="#F9F3C5" stroke="#F9F3C5" d="M29.7 102l-5.8 25.5 186.2.8-11.9-25.6z"/><path fill="#F7E37C" stroke="#EACE2A" d="M24.7 129.2L23.9 33H37v72.6z"/><path fill="#EACE2A" stroke="#EACE2A" d="M16.4 31.4h8.7v97.3h-8.7z"/><path fill="#5A3B14" stroke="#5A3B14" d="M199.1 105.1c0 .4-.3.7-.7.7H37.7c-.4 0-.7-.3-.7-.7v-3.2c0-.4.3-.7.7-.7h160.7c.4 0 .7.3.7.7v3.2z" opacity=".88"/><path fill="#F7E37C" stroke="#EACE2A" d="M201.2 129.2V22.5h-13.1v80.1z"/><path fill="#EACE2A" stroke="#EACE2A" d="M201.2 28h8.9v101.3h-8.9z"/><path fill="#938D6A" stroke="#938D6A" d="M185.9 95.1l2.7-17.8s1.1-1.5 1.5 0c.4 1.5-2.1 15.4-2.1 15.4l2.1 1.4-4.2 1zm10.8 17.4s-22.6 13.7-23.9 12.9c-1.3-.9-1-7.6-1-8.1s6.1-14.8 7-16.5c1-1.7 14.4-6.7 16.1-5.7 3.4 2.1 1.8 17.4 1.8 17.4z"/><path fill="#938D6A" stroke="#938D6A" d="M196.7 112s-22.6 13.7-23.9 12.9c-1.3-.9-1-7.6-1-8.1s6.1-14.8 7-16.5c1-1.7 14.4-6.7 16.1-5.7 3.4 2.1 1.8 17.4 1.8 17.4z"/><path fill="#A9A47A" stroke="#A9A47A" d="M190.1 94.1s4.2-1 4.5 0c.3 1-7.5 2.6-8.7 3.1-1.2.5-6.5 3-6.5 3s-4.1 8.4-4.7 9.9c-.6 1.5-2.4 5.7-2.4 5.7l.5 9.4S97 105.6 94.7 103.6c-2.3-2.1-2.3-5.7-1.7-6.7.6-1 2.5-2 2.5-2s10.5 2.6 14.3 3.7c3.8 1 16.9 3.8 24.1 5.6 7.2 1.7 9.9 3.1 16.2 4.1 6.3 1 10.6 3.1 13.9 2.6 3.2-.5 4.9.1 6.5-1.4 1.5-1.5 2.7-2.9 3.4-5.8.8-2.9.8-5.1 1.7-5.7.7-.5 14.5-3.9 14.5-3.9z"/><path fill="#D2CEAF" stroke="#A29B74" d="M121.2 88.9s-18.9.9-19.6 1.1c-.7.2-6.1 1.1-4.7 1.9 1.4.8 64 15.2 67.8 14.4 3.7-.8 9-2.6 9-2.6l.8-3.9s1.5-2 2.8-2.4c1.3-.4 3.1.3 3.1.3l-59.2-8.8z"/><path fill="#C0BB92" stroke="#A29B74" d="M185.9 95s2.4-15.9 2.5-16.8c.1-.9-1.3-3.8-4-3.8S121.9 71 121.9 71s-2.8 1.1-3 2.3c-.2 1.3 0 4.9 0 4.9s2.3 5.7 3 6.3c.7.6 1.4 4.4 1.4 4.4l53.4 8.7 3.8-1 5.4-1.6z"/><path fill="#BAB688" d="M104.4 89.8s-1.9-1.8-1.9-3-.9-2.5-.9-2.5l-.9-3.2s4.2-1.5 8.6-1.7c4.4-.2 10 0 10 0L121 83l1.8 3.8.5 2.1-11.3.7-6 .1-1.6.1z"/><path fill="#C0BB92" stroke="#A29B74" d="M96.9 91.9s-3 2.7-1.5 3.1c1.5.4 23.1 5.4 34.5 8.3 11.4 2.9 22.2 5.3 25.4 6.2 3.1.8 6.1 1.7 8.6 1.4 2.4-.2 4.5 0 5.5-.7s2.5-2.3 2.5-2.3l1.9-4.2s-2.7.8-3.4 1c-.7.2-5.7 1.5-5.7 1.5s-31.5-5.8-37.2-7.1c-5.7-1.3-19.7-4.5-21-4.8-1.3-.3-5.8-1.3-5.8-1.3l-3.8-1.1z"/><path fill="#A9A47A" stroke="#A9A47A" d="M102.3 85.9s-2.6.1-2.6 1-1.9 3-1.9 3V91l2.8-.7 3.8-.5-1.9-3-.2-.9z"/><path fill="#5A3B14" stroke="#5A3B14" d="M131.7 81.5c.3-1.4 1.1-3.2 2.6-3.8 0 1.2-1 2.4-1.1 3.7-.1 1.3 1.2 3.6 1.1 4.9-1-.4-1.4-2.8-2.4-3.7-1.4-1.1-2.8.7-4 .9.5-1.5 2.9-2.1 4.2-2.9" opacity=".08"/><ellipse cx="132.1" cy="81.5" fill="#5A3B14" stroke="#5A3B14" rx="1.1" ry="1"/><path fill="none" stroke="#A29B74" d="M139.9 91.6L113.4 96v3.5m53.4-3.9l-26.5 6.7v3.5"/><path fill="#5A3B14" stroke="#5A3B14" d="M151 84.8c.3-1.4 1.1-3.2 2.6-3.8.1 1.2-1 2.4-1.1 3.7-.1 1.3 1.2 3.6 1.1 4.9-1-.4-1.4-2.8-2.4-3.7-1.4-1.1-2.8.7-4 .9.5-1.5 2.9-2.1 4.2-2.9" opacity=".08"/><ellipse cx="151.7" cy="84.8" fill="#5A3B14" stroke="#5A3B14" rx="1.1" ry="1"/><path fill="#5A3B14" stroke="#5A3B14" d="M172.3 87.8c.3-1.4 1.1-3.2 2.6-3.8 0 1.2-1 2.4-1.1 3.7-.1 1.3 1.2 3.6 1.1 4.9-1-.4-1.4-2.8-2.4-3.7-1.4-1.1-2.8.7-4 .9.5-1.5 2.9-2.1 4.2-2.9" opacity=".08"/><ellipse cx="172.7" cy="87.7" fill="#5A3B14" stroke="#5A3B14" rx="1.1" ry="1"/><g fill="#FFF"><path d="M71.9 49.4s-3 3.2-5.5 2.7-3.3-2.5-3.3-2.5l8.8-.2z"/><path d="M67 52.4c-.2 0-.4 0-.6-.1-2.6-.5-3.4-2.6-3.5-2.7l-.2-.4 9.9-.2-.5.5c0 .2-2.6 3-5.1 2.9zm4.2-2.7l-7.5.1c.3.6 1.2 1.6 2.8 2h.5c1.6 0 3.3-1.3 4.2-2.1z"/></g><ellipse cx="51.4" cy="110.2" fill="#976928" rx="10.4" ry="1.7"/><path fill="#472C0F" d="M50.2 109.8l1.8-.1c0-.1-1.3-5.8-1.3-8.7 0-1.1.5-1.7 1.1-2.5 1-1.3 2.2-2.8 2.3-6.9.2-6.4-2.5-18.3-3.8-24l-.2-.7c-1.2-5.1-1.3-15.2-.2-22.9.3-2.2 1.1-3.6 2.5-4.3 1.5-.7 3.7-.5 6.1-.3 1.2.1 2.5.2 3.8.2.8 0 1.3.1 1.7.5 1.5 1.2.6 4.2.1 5.3l1.8.3c.2-.4 1.9-4.4-.4-6.2-.7-.6-1.9-.9-3.2-.9-1.1 0-2.3-.1-3.5-.2-2.6-.2-5.4-.5-7.5.5-1.8.9-2.8 2.5-3.2 5-1 7.8-.9 18 .3 23.2l.2.7c1.3 5.7 4 17.5 3.8 23.8-.1 3.8-1.3 5.3-2.2 6.4-.7.9-1.3 1.6-1.3 3 .1 3 1.3 8.6 1.3 8.8z"/><g fill="#2E1313"><path d="M52.1 109.2s-1.5.3-2 .2c-.5-.1-.3.6-.3.6h2.3c.2 0 0-.8 0-.8z"/><path d="M49.5 110.2v-.1c0-.1-.2-.6.1-.8.1-.1.3-.1.6-.1h.2c.6 0 1.7-.2 1.7-.2l.3-.1.1.2c.2.9-.1 1-.3 1h-2.7v.1zm2.4-.4v-.4c-.5.1-1.4.2-1.8.1v.3h1.8z"/></g><g fill="#2E1313"><path d="M61.6 110.1v.9s-3.6 1.3-9.9 1.4c-6.8.1-9.3-.7-10.1-1.1-.8-.3-.7-1.1-.7-1.1s.1.5 1.2.8c1.1.3 3.6.7 5.4.8 1.8.1 5.3.1 6.1 0 .8-.1 5-.4 5.9-.7 1-.3 2.1-1 2.1-1z"/><path d="M50.7 112.5c-5.4 0-8-.6-9.2-1.1-.9-.4-.8-1.2-.8-1.2h.6s.1.4 1 .7c1.1.3 3.6.7 5.4.8.6.1 1.6.1 2.7.1 1.5 0 2.9 0 3.3-.1.9-.1 5-.4 5.8-.7.8-.2 1.8-1 1.8-1l.5-.4.1 1.5-.2.1c-.1.1-3.7 1.3-10.1 1.4-.3-.1-.6-.1-.9-.1zm7.4-.9c-1.7.2-4 .4-4.3.4-.5 0-1.9.1-3.4.1-.8 0-2 0-2.8-.1-1.8-.1-4.4-.5-5.5-.8-.1 0-.1 0-.2-.1 1.7.7 4.8 1 8.8 1h1c2.6 0 4.8-.3 6.4-.5zm3.2-.8v-.3c-.3.2-.7.4-1.2.6.6-.1 1-.2 1.2-.3z"/></g><pattern id="b" patternTransform="matrix(-.7638 0 0 .452 -14250.31 -4419.945)" xlink:href="#d"/><path fill="url(#b)" d="M76.6 43.4s-3-7.8-9.6-7.8-9.6 9.4-9.6 9.4l17.8.4 1.4-.4v-1.6z"/><path fill="#E0AED0" d="M61 43.9c-1.3 1.6 1.1 1.6-.1 0 1.3 1.6 1.3-1.4 0 .2 1.3-1.6-1.1-1.6.1 0-1.3-1.6-1.3 1.3 0-.2zm3.9-5.4c-1.2 1.5 1.1 1.5-.1 0 1.2 1.5 1.2-1.3 0 .2 1.2-1.5-1.1-1.5.1 0-1.2-1.5-1.2 1.3 0-.2zm5.2 5.4c-1.2 1.5 1.1 1.5-.1 0 1.2 1.5 1.2-1.3 0 .2 1.2-1.5-1.1-1.5.1 0-1.3-1.5-1.3 1.3 0-.2z"/><pattern id="d" patternTransform="matrix(-.7638 0 0 .452 -14197.58 -4438.66)" xlink:href="#e"/><path fill="url(#d)" d="M69.8 39.4c-.8 2 1.4.9-.1.1 1.5.8.8-1.8 0 .2.8-2-1.4-.9.1-.1-1.5-.8-.8 1.8 0-.2z"/><path fill="#FF8B00" stroke="#E57700" d="M57 44.8h20.1v5.1H57z"/><path fill="#CC785F" stroke="#9A3421" d="M0 28.2L11.7 1h201.4l8 28z"/><path fill="#999" stroke="#999" d="M3 29h212.5v5.2H3z"/><path fill="#020202" stroke="#020202" stroke-width=".308" d="M103.6 116.6c-.3.2-1 .3-1.4.5l-1.5.6c-.9.3-1.9 0-2.9.2s-2.2.2-2.8 1c-.3.4-.5.8-.4 1.3l.3.6c.1.4.1.4.5.4.9.1 2 0 2.9-.1 1-.2 2-.2 3-.3 1-.1 1.9-.1 2.9-.1s2 .2 3 .1c1.8-.3.3-1.9-.3-2.7-.2-.3-.5-.5-.7-.8-.2-.2-.5-.7-.7-.8-.2-.1-.7.1-.9.1-.4.2-.7.1-1 0m8.4 3.2c-.3.4-.9.8-1.2 1.2-.4.5-1 .9-1.3 1.4-.3.4-.6.9-1 1.2-.4.3-1.2.4-1.3.9-.2.8 2.1.7 2.7.8.9.2 2 .6 3 .4l1.5-.3c.6-.2.9-.5 1.2-.9.6-.8 1.5-1.6 1-2.6-.2-.4-.4-.9-.7-1.3-.2-.3-.8-1-1.1-1-.2 0-.4.2-.7.3h-.7c-.6.1-1.3-.6-1.4-.1"/><path fill="none" stroke="#F50" d="M103.6 114.9c.4.1.7.2 1.1.1.4-.1.5-.6 1-.4.4.2.5 1.7.1 2-.2.2-.9.1-1.1.2-.3 0-.9.1-1.1-.1-.3-.2-.5-2 .3-2m8.1 3.5c.6.4 2.6-.4 2-.7.5-.1 1 .9 1 1.3 0 .2 0 .5-.1.7-.1.4-.2.4-.7.5-.7.2-1.1.3-1.8-.1-.6-.4-.6-.8-.6-1.5"/><path fill="none" stroke="#F50" d="M101.6 106.8l2.2 7.8s.3.5.7.4c.4-.1.7-.6.7-.6s-1.5-7.7-1.6-8c-.2-.3-.3-.2-1 0-.8.2-1 .4-1 .4zm8.3 1.4s1.2.4 1.4.3c.2-.1.8-.3.8-.3l1.8 9.1s0 .8-.7.9c-.7.2-1.2 0-1.2 0s-1.2-6.5-1.4-7.2c-.1-.8-.7-2.8-.7-2.8z"/><path fill="none" stroke="#F50" d="M113 93.6s-1.1-.1-1.4.7c-.3.7-.1 1.3 0 1.5.1.2-1.5 10.1-1.5 10.1s-.7.4-.7 1.1c0 .7.5 1.3.5 1.3s1 .1 1.3.1c.3.1.6.3.9-.1.3-.4.6-1.1.5-1.4-.1-.3-.3-.7-.3-.7l1.2-10.1s.3-.5.5-1.4c.2-1.3-1-1.1-1-1.1zm-9-.7s-.9-.3-1.1.7c-.2.9.4 1.3.4 1.3l-1.8 9.3s-.4-.5-.7.4c-.3.9-.2 1.5.3 1.7.5.2.8.2.8.2s1.5-.3 1.5-.5.1-1.3 0-1.4c-.1-.1 1-9.5 1-9.5s.3-.2.3-.3c0-.1-.4-1.3-.5-1.4.3-.1-.2-.5-.2-.5z"/><path fill="#2E57A0" stroke="#223D7A" stroke-width=".308" d="M102.6 92.3c-2.2 8.2-2.1 10.1-2.1 14.6 0 1.5 1 4.4 1.4 9.3.2 1.9 2.2 1.3 6.2.9 0 0-2.8-11.4-2-15.3.2-1.1 1.7-6.7 3.7-3.8.6.9-1.1 6.7-1.2 8.2-.2 2.9.8 13.3 4.3 14.7 7.7 3 1.6-10 1.5-12.4-.3-5.2 1.9-10 1.6-15.1-.2-4.1.2-3.6-3.8-3.8-2.9-.1-5.8.2-8.8-.1-.2 1.8-.2 1.1-.8 2.8"/><path fill="#E8B989" stroke="#DCA572" stroke-width=".308" d="M124.4 57.2s.2 3.8-.4 4.5c-.6.6-2.8 2.1-7.9 3-5.8.9-8.7.8-11.4 0-2.3-.7-4.1-1.5-5.2-2.4-1.1-1-1.7-1.6-2-2.6-.3-1-.5-2-.3-2.3.3-.3-.7-4.3-.7-5 0-3.5 9.4-7.4 14.3-7.8 4.6-.3 12.9 4.4 12.9 8.6.2.8.7 4 .7 4z"/><path fill="#E8B989" stroke="#DCA572" stroke-width=".308" d="M124.5 59.8s1.1.8 1.5.3c.4-.5.7-1.6.7-2.2 0-.6-1.3-2-1.6-2-.3 0-1 .1-1 .1l.4 3.8zm-27-4s-1.1-.9-1.5-.5c-.4.5-.8 1.5-.8 2.1 0 .6 1.1 2.1 1.4 2.1h1l-.1-3.7z"/><path fill="#050506" stroke="#000" stroke-width=".308" d="M104.6 55.6c0 .4.2.7.5.7s.5-.3.5-.7c0-.4-.2-.7-.5-.7-.2 0-.5.3-.5.7zm10.3.5c0 .4.2.7.5.7s.5-.3.5-.7c0-.4-.2-.7-.5-.7-.2 0-.5.3-.5.7z"/><path fill="#E8B989" stroke="#C28757" stroke-width=".308" d="M111.4 59.2s-.3-.9-1.3-.7c-1 .1-1.2.8-1.2.8"/><path fill="none" stroke="#341515" stroke-width=".308" d="M111.9 52.8v.3m.1-.4l-.1.2m0-.2v.3m.2-.3v.3m.1-.3l.1.1m0-.2v.3m-.2-.3v.3m0-.2l.1.1m.2-.1v.1m.1-.2v.2m.3-.3l-.1.3m0-.2v.2m.3-.2v.2m-.2-.3l-.1.3m0-.2v.2m.1-.3v.3m-.5-.2l.1.2m0-.2v.2m-.3-.2l.1.2m.1-.2l-.1.3m-.3-.2l-.1.2m.2-.7l-.1.6m.6-.5l-.1.4m.5-.5l-.1.6m.5-.4l-.1.4m.1-.4l-.4.5m.3-.6l-.3.6m.2-.6l-.1.5m-.1-.4l.1.4m.4-.6v.3m0-.3v.3m.4-.3l-.1.3m-.3 0l-.2.3m.6-.6l-.3.6m.2-.4l-.2.4m.4-.3h-.2m.5-.2l-.2.4m0 0l-.2.1m-.1-.3l.1.3m-.1-.3l-.2.3m-.1-.3l.4.3m.4-.5l-.1.4m-.2-.2l-.1.3m.4-.5l-.2.4m.2-.2l.1.3m.1-.3l.1.3m.3-.3l-.2.4m-.4-.5l.1.4m.1-.4l.1.4m.3-.3l-.2.4m.4-.3l-.2.2m.4-.5l-.4.5m.4-.1l-.4.4m.4-.4l-.3.3m.4-.4l-.1.3m.3-.2l-.2.3m.4-.3h-.2m.1-.2l-.2.4m-.2-.6v.4m-.2-.1l-.1.2m-.1-.3v.3m.2-.2l.6-.2m.3 0l-.2.1m.1 0l-.1.4m-.1-.5l-.3.6m.6-.6l-.2.5m-.1-.5l.2.7m0-.6v.6m.4-.6v.5m-.2-.2l-.1.1m.1-.4l.2.3m0-.3l-.2.3m.2 0l-.4.5m.1-.6v.2m0-.3l.1.3m-.3-.2v.2m-.1-.2l-.1.2m0-.1v.1m.2-.2l-.1.2m0-.2v.1m.1 0v.1m.1-.1v.1m.1-.1v.1m.1-.1l-.1.1m.2-.1l-.1.1m.1-.2v.2m.1-.1v.2m0-.2v.2m.1-.2v.2m.1-.2v.2m0-.1v.2m-.1-.2v.1m.1-.2l-.1.2m0-.2v.2m.1-.1v.1m0-.2v.2m.1-.1v.1m0-.1v.2m.1-.2l-.1.1m.1-.1v.2m.1-.2l-.1.1m.1-.1v.1m0-.1v.2m.1-.2v.1m.1-.1l-.1.2m.1-.2l-.1.2m.1-.2v.2m.1-.2l-.1.1m.1-.1v.2m0-.1v.1m.1-.1l-.1.1m.1-.1v.1m.1-.1v.1m0-.1v.1m0-.1v.1m.1 0l-.1.1m.1-.2v.2m0-.2v.2m.1-.2v.1m0-.1v.1m-.3-.1l-.1.1m-.2-.1v.1m.7-.1l-.1.2m.1-.2v.1m.1-.1l-.1.1m.1-.1l-.1.2m.1-.1v.1m0-.1l-.1.1m.2-.1v.1m-.1-.1v.1m.1-.1v.1m.1-.1v.1m0 0v.1m.1-.1h-.1m.1 0v.1m.1-.1l-.1.1m.2-.1l-.1.1m0 0v.1m0-.2v.1m0-.1v.1m.1-.1v.1m.1-.1l-.1.1m.1 0l-.1.1m.2-.1l-.1.1m.1-.1l-.1.1m.2-.1l-.1.1m.1-.1l-.1.1m0-.1l-.1.1m.3-.1l-.1.1m.1-.1h-.1m0 0l-.1.1m.2-.1l-.1.1m0 0h-.1m.2-.1v.1m0 0v.1m.1-.1h-.1m.1-.1l-.1.2m.1-.1v.1m0-.1v.1m.1 0h-.1m.1-.1v.1m0-.1l-.1.1m.2 0l-.1.1m.2-.1v.1m-.1-.1v.1m0-.1v.1m0-.1v.1m.1-.1v.1m0-.1v.1m0-.1v.1m0-.1v.1m.2-.1l-.1.1m.1 0l-.1.1m0-.2v.1m0-.1v.1m-.1-.1l.1.1m0 0h.1m0 0v.1m.1 0l-.1.1m.1-.1v.1m0-.1h.1m.1 0l-.2.2m.1-.2l-.1.1m.1 0h-.1m.2-.1l-.1.1m.1 0v.1m-.1-.1v.1m.1-.1v.1m.1 0h-.1m0-.1v.1m-.1-.1l.1.1m.1-.1v.1m0-.1v.1m0 0v.1m.1-.1l-.1.1m.1-.1v.1m0-.1l-.1.1m0-.1v.1m.1-.1v.1m0 0v.1m0-.1v.1m0-.1h.1m0 0v.1m.1 0h-.1m.1 0v.1m0-.1v.1m.1 0h-.1m0-.1v.1m0-.1v.1m.2 0h-.1m.1 0l-.1.1m.1-.1v.1m0-.1v.1m0-.1l-.1.1m0-.5l-.3.3m-.3-.5l-.3.2m.1-.3l-.2.1m-.2-.2h-.3m-.2-.2h-.2m-.2-.1l-.1.2m-.1-.3l-.1.1m-.5-.2h-.3m-.3-.1l-.1.1m-.1-.4l.2.3m.2-.1v.1m.1-.3l.1.4m.1 0l-.1.3m.2-.3l-.1.1m.2 0l.1.1m.1-.4l-.2.5m-.2-.4l-.1.2m.3-.2l.1.3m.4-.3l-.1.2m.3-.1l.1.3m.4-.1v.3m.1-.3v.2m.5-.1l-.2.3m.3-.1v.3m.2-.1l-.2.1m.6 0l-.3.1m.2.1h-.1m.2.1h.1m.3.1v.1m0-.1l-.1.1m0-.3l-.1.1m.1 0v.2m.4 0l-.1.1m0-.1l-.2.1m.2-.2l-.1.2m.3 0l-.1.3m0-.4l-.2.3m.5-.1l-.3.1m.4.1v.2m0-.1l-.3-.1m.3-.1l-.4.1m.6.2l-.5.1m-.1-.3v.1m.8.2l-.5.2m.3-.3h-.2m.4.3h-.3m.5 0l-.3.1m.4.4l-.4.2m.5.1l-.3.2m.4-.4l-.4.2m.2-.5l-.4.2m.3-.3l-.3.2m.2-.3h-.2m-.1-.2h-.2m0-.3l-.2.2m1.1 1.1h-.3m.4.1l-.5-.2m.1-.4l-.4-.3m-.9-1.1h-.2m-.4 0v.1m1.6 1.6h-.1m.4 0l-.1.1m0-.3l-.5.3m.5-.3l-.6.4m.6-.4l-.5.3m.5-.2l-.5.3m.7-.2l-.6.3m.4-.7l-.5.4m.6-.2l-.5.4m.7-.3l-.5.4m.5-.8l-.8.6m1-.4l-.6.5m.5-.6l-.5.4m.7-.1l-.6.4m.6-.4l-.6.4m.5-.9l-.6.5m.2-.5l-.4.5m.9.1l-.7.1m.6.2h-.4m.5-.2l-.6.1m.6-.1l-.6.2m.8-.1l-.7.1m.6-.4l-.7.1m-.8-1h-.1m.7.4l-.9.1m.9.6l-.4.1m.1-.6l-.1.2m.2-.4l-.2.1m.1-.5l-.1.1m0-.2l-.3.5m.3-.3l-.6.3m.6-.5l-.5.2m.6-.4l-1.1.7m1 0l-.4.1m.5-.2l-.1.1m.4-.3l-.7.3m.3-.1l-.4.2m.5.1l-.3.1m.5-.2l-.5.2m.6.2h-.5m.4-.2l-.5.3m.7 0l-.5.2m.4.1l-.4-.1m.2-.1l-.2-.1m.4-.6l-.4.6m0-.4l-.2.1m.2-.8l-.6.3m.9.1l-.6.3m1-.2l-.8.5m.6.1l-.4.2m.5-.1l-.5-.1m.2-.5l-.4.3m.1-1l-.5.3m.5-.2l-.5.3m.7-.2l-.6.3m.7-.2l-.7.4m.7-.4l-.5.5m.6-.4l-.5.4m.3-.6l-.5.5m.7-.2l-.4.3m.5-.2l-.5.3m.2-.8l-.6.7m1-.1l-.5.4m.4-.4l-.5.2m0-1.1l-.5.4m.6-.2l-.5.4m.7-.3l-.5.4m.6-.8l-.9.6m1-.4l-.6.5m.5-.6l-.5.4m.7-.1l-.6.4m.7-.3l-.6.5m.5-.3l-.3.4m.6-.4l-.6.7m.7-.5l-.5.5m.3-.3l-.4.3m.3-.4l-.4.4m.3-.7l-.3.3m.3-.6l-.6.4m.5-.9l-.6.5m.2-.5l-.4.5m.7.8h-.6m.6 0l-.6.1m.7.1h-.7m.8.2h-.8m.8-.3l-.7.2m.7 0l-.6.1m.5-.4l-.6.3m.7 0l-.5.2m.5 0l-.6.1m.5-.7l-.8.4m.9.2l-.6.1m.6-1.3l-.7.1m.6.2h-.5m.6-.2l-.6.1m.5.3l-.8.1m.9-.3l-.8.1m1 0l-.7.2m.5-.5l-.7.2m.7 0l-.5.2m.5 0l-.6.4m.6-.1l-.5.2m.7-.3l-.5.1m.6-.3l-.6.3m.3.1l-.7.1m.9-.1l-.4.2m.5 0l-.5.1m.3-.2l-.5.3m.6-.1l-.5.1m.6-.3l-.8.2m.6-.6l-.4.1m.5-.4h-.7m.6-.4l-.7.1m1 1l-.5.2m.1-.1l-.2.1m.1-.2l-.1.1m.1-.6l-.1-.1m-1.1-1.2h-.2m.7.4l-.8.1m.9.6l-.4.1m.3 0l-.4.2m.2-.4v-.1m0-.3l-.1.1m.2-.3h-.2m.1-.5l-.1.2m-.1-.3l-.2.6m.3-.3l-.7.2m.6-.5l-.4.3m.6-.4l-1.1.7m.9 0l-.3.1m.4-.2l-.1.1m.4-.3l-.6.3m.3-.1l-.4.2m.5.1l-.3.1m.4-.3l-.4.3m.6.1l-.5.1m.4-.2l-.5.2m.7 0l-.5.3m.4.1l-.4-.1m.5 0l-.5.3m.9-.5l-.7.6m0-.5l-.3-.1m.4-.6l-.4.6m0-.4l-.1.1m.1-.9l-.5.4m.9.1l-.6.3m1-.2l-.8.5m.6 0l-.4.3m.5-.1l-.5-.2m.1-.5l-.3.4m0-.2l-.6.5m.7-1.3l-.5.3m.5-.3l-.5.4m.7-.3l-.7.4m.8-.2l-.8.4m.8-.4l-.5.4m.5-.3l-.4.4m.3-.6l-.5.5m.7-.2l-.4.3m.5-.2l-.5.3m.1-.8l-.6.7m1-.1l-.4.3m.4-.4l-.5.3m-.1-1.1l-.5.3m.7-.2l-.5.5m.7-.3l-.5.4m.5-.8l-.8.6m1-.4l-.6.5m.5-.7l-.6.4m.7 0l-.6.4m.8-.3l-.6.4m.5-.2l-.3.4m.5-.4l-.6.6m.8-.4l-.5.5m.3-.3l-.5.3m.4-.4l-.5.3m.3-.6l-.3.2m.3-.5l-.5.4m.5-.9l-.6.5m.2-.5l-.4.4m.7.8l-.6.1m.6 0l-.6.1m.7.1h-.7m.8.1l-.9.1m.9-.3l-.7.2m.7-.1l-.6.2m.5-.4l-.6.3m.7 0l-.5.1m.5 0l-.6.2m.5-.7l-.8.4m.9.2l-.6.1m.6-1.3l-.7.1m.5.2h-.4m.6-.3l-.6.1m.5.3l-.8.2m.9-.3l-.9.1m1.1 0l-.8.1m.6-.4l-.7.2m.7 0l-.5.2m.5 0l-.6.3m.5-.1l-.4.2m.7-.2l-.6.1m.6-.3l-.5.2m.3.2l-.7.1m.9-.1l-.5.2m.6 0l-.5.1m.3-.2l-.5.3m.6-.1l-.5.1m.5-.3l-.7.1m.6-.5h-.5m.6-.4l-.7.1m.6-.5l-.7.2m1 .9l-.5.3m.3 0l-.4.3m.2-.5l-.2.2m.1-.2l-.2.1m.2-.7h-.2m-1.1-1h-.1m.7.4l-.8.1m.8.6l-.4.1m.4 0l-.4.2m.2-.4h-.1m0-.3v.1m.2-.4l-.2.1m0-.5l-.1.2m0-.3l-.2.5m.2-.2l-.6.2m.6-.5l-.4.2m.5-.3l-1 .6m.9 0l-.3.1m.4-.2l-.1.1m.4-.2l-.6.2m.2-.1l-.3.2m.4.2h-.2m.4-.2l-.4.2m.5.2h-.5m.4-.2l-.5.3m.8 0l-.6.2m.4.1l-.4-.1m.9-.2l-.6.6m-.1-.5h-.2m.4-.7l-.4.7m0-.5l-.1.1m.1-.8l-.5.3m.8.1l-.5.3m.9-.2l-.8.5m.7.1l-.5.2m.6-.1l-.6-.1m.2-.5l-.3.3m.1-1l-.6.3m.6-.2l-.6.3m.7-.2l-.6.3m.8-.2l-.8.4m.8-.4l-.6.5m.6-.4l-.4.4m.3-.6l-.5.5m.6-.2l-.3.3m.4-.2l-.5.4m.2-.9l-.6.7m1-.1l-.4.4m.4-.4l-.6.3m0-1.1l-.5.3m.6-.2l-.4.4m.6-.3l-.5.5m.6-.9l-.9.6m1-.4l-.6.5m.6-.6l-.6.4m.7-.1l-.6.4m.8-.3l-.7.5m.6-.3l-.4.5m.6-.5l-.6.7m.8-.5l-.5.5m.3-.3l-.5.3m.3-.4l-.4.4m.3-.7l-.3.3m.3-.6l-.5.4m.5-.9l-.6.5m.1-.5l-.3.5m.7.8h-.6m.6.1l-.7.1m.8 0l-.7.1m.8.1h-.9m.8-.2l-.6.1m.6 0l-.5.1m.5-.3l-.7.2m.7 0l-.4.2m.5 0l-.6.1m.5-.7l-.8.4m.9.3h-.6m.6-1.3l-.7.1m.5.2h-.4m.5-.2l-.6.1m.6.3l-.9.1m1-.3l-.9.2m1 0l-.7.1m.6-.4l-.7.1m.7 0l-.5.2m.5.1l-.6.3m.5-.1l-.4.2m.6-.3l-.5.2m.6-.3l-.5.2m.3.1l-.7.1m.8-.1l-.4.2m.6 0l-.6.1m.4-.1l-.5.2m.5 0h-.4m.5-.3l-.7.2m.6-.6l-.5.1m.6-.4l-.7.1m.6-.5l-.8.1m1 1l-.4.2m.3 0l-.4.3m.5-.3l-.5.3m.2-.4l-.3.1m.1-.2l-.1.1m.2-.6l-.2-.1m-1.6-.3l-.1.1m.7-.3l-.4.8m.9-.4l-.1.4m.1-.3v.4m-.5-.6l.1.2m-.2-.4v.2m-.4-.4l.1.2m-.2-.1l.2.5m0-.4l-.2.7m0-.8l-.1.5m.5-.2l-.2.4m.2-.5v.1m0-.5l-.2.7m.1-.3l-.1.5m.4-.4l-.1.3m.1-.5l-.1.5m.5-.4l-.3.5m.1-.5l-.1.6m.4-.6l-.1.6m.3-.3l-.3.3m.3-.5l-.1.6m.2-1v.9m-.4-.3l-.2.2m-.2-.7l.2.7m-.3-.3v.2m-.5-.6l-.1.6m.6-.7l-.1.7m.4-.9l-.1 1m.4-.5l-.1.5m.3-.6l-.4.4m-.3-.4v.5m-.7-.7l-.1.6m.2-.6v.7m.2-.8l-.1.8m.2-.8l-.1.9m.2-.9v.7m.1-.7v.7m-.2-.7v.8m.2-.7v.5m.2-.6l-.1.7m-.5-.7l.2 1m.5-1v.6m-.1-.5l-.1.6m-.8-.7l-.1.7m.3-.7v.7m.2-.8v.7m-.3-1l-.1 1.1m.4-1.1v.8m-.2-.8v.7m.4-.6l-.1.7m.2-.8v.8m.1-.6l.1.6m.1-.8l.1.9m.1-.9l.1.7m-.1-.4l-.1.5m0-.5v.6m-.3-.6v.4m-.2-.6l-.1.7m-.3-1v.8m-.3-.4l.1.6m1-.2l-.3.6m.4-.5l-.3.6m.5-.6l-.4.6m.5-.6l-.4.8m.3-.9l-.3.7m.3-.6l-.2.6m.1-.7l-.3.7m.5-.6l-.2.5m.3-.4l-.2.6m-.3-.9l-.2 1m.8-.7l-.3.6m-.6-1.3l-.4.6m.5-.3l-.2.4m.1-.6l-.3.5m.6-.3l-.4.9m.3-1.1l-.4.9m.6-.9l-.4.7m.1-.7l-.3.6m.4-.6l-.2.6m.4-.4l-.2.7m.3-.5l-.1.5m.2-.7l-.2.5m.1-.7l-.1.6m.3-.3l-.1.5m.4-.5l-.3.5m.1-.4l-.1.6m.3-.5l-.3.5m.2-.7l-.4.7m0-.9l-.3.5m.1-.8l-.4.7m0-.8l-.3.7m1.3-.3l-.1.6m.2-.3l-.1.5m.2-.6l-.2.6m-.2-.4v.3m-.1-.2v.2m-.3-.6l-.2.2m-2-.4v.2m.7-.3l-.5.7m1-.3l-.2.4m.2-.3l-.1.4m-.4-.6v.2m-.1-.4l-.1.2m-.3-.4l.1.2m-.2-.2l.2.6m0-.4l-.3.6m.1-.8l-.2.6m.5-.2l-.1.4m.1-.6v.2m.1-.5l-.2.7m.1-.3l-.1.5m.4-.4l-.1.3m.1-.5l-.1.5m.4-.4l-.3.5m.2-.5l-.2.6m.5-.6l-.2.6m.3-.3l-.3.3m.4-.4l-.2.6m.3-1.1l-.1.9m-.3-.2l-.2.1m-.2-.7l.2.7m-.3-.3v.2m-.5-.7l-.2.7m.7-.7l-.2.7m.5-.9l-.2 1m.5-.5l-.1.5m.2-.5l-.4.3m-.2-.4v.5m-.7-.8l-.1.7m.2-.7l-.1.8m.3-.8l-.2.7m.3-.7l-.2.9m.3-.9l-.1.7m.2-.7l-.1.6m-.1-.6l-.1.8m.3-.8v.6m.2-.6l-.1.7m-.5-.7l.1.9m.6-.9v.7m-.1-.6l-.1.6m-.8-.7l-.1.6m.3-.6v.6m.2-.7v.7m.2-1l-.2.8m.4-.6l.1.6m.1-.8v.9m.2-.6l-.1.6m0-.5l-.1.5m-.2-.6v.4m-.2-.7l-.1.8m-.6-.7l.1.6m1 0l-.3.5m.4-.5l-.4.6m.5-.6l-.4.6m.6-.5l-.5.7m.4-.8l-.4.6m.4-.6l-.2.6m0-.7l-.2.7m.5-.5l-.2.5m.3-.5l-.3.6m-.2-.8l-.2.9m.8-.6l-.4.5m-.5-1.4l-.4.7m.5-.3l-.3.4m.2-.7l-.3.6m.5-.3l-.4.9m.4-1.1l-.5.8m.7-.8l-.4.7m.1-.7l-.3.6m.4-.6l-.2.6m.4-.4l-.2.7m.3-.5l-.2.5m.3-.7l-.3.5m.2-.7l-.2.6m.3-.1l-.4.6m.5-.8l-.1.5m.4-.5l-.3.6m.1-.4l-.2.5m.4-.4l-.3.4m.2-.6l-.4.7m0-.9l-.3.4m.7-.4l-.2.6m.3-.3l-.1.5m.2-.6l-.2.6m-.2-.4v.3m-.1-.2v.1m-.4-.6l-.1.2m-2.1-.1l-.1.1m.8-.3l-.5.8m.9-.3l-.1.4m.2-.3l-.1.4m-.5-.6l.1.1m-.2-.4v.2m-.3-.4v.2m-.2-.1l.2.5m0-.4l-.2.7m0-.8l-.1.5m.1-.7l-.2 1.3m.6-.7l-.2.3m.2-.5v.2m.1-.6l-.3.7m.1-.3l-.1.5m.4-.3l-.1.3m.1-.6l-.1.6m.5-.4l-.3.4m.1-.4l-.1.6m.4-.6l-.1.6m.3-.3l-.3.3m.3-.4l-.1.5m.2-1v.9m-.4-.3l-.2.2m-.1-.8l.1.8m-.3-.3v.2m-.5-.7l-.1.7m.6-.7l-.1.7m.5-1l-.2 1m.4-.4l-.1.5m.3-.6l-.4.4m-.3-.5v.5m-.6-.7l-.2.6m.3-.6l-.2.7m.3-.7l-.1.7m.3-.8l-.2.9m.2-.8v.7m.1-.7v.6m-.2-.6v.7m.3-.7l-.1.5m.2-.5l-.1.7m-.4-.7v.9m.7-.9l-.1.6m0-.6l-.2.7m-.7-.8l-.1.6m.2-.6v.7m.3-.7l-.1.6m-.2-1l-.2 1.1m.5-1l-.1.8m-.1-.9l-.1.7m.4-.6l-.1.8m.3-.8l-.1.8m.2-.6l.1.5m.1-.7v.9m.2-.6l-.1.5m0-.5l-.1.6m-.2-.7l-.1.4m-.2-.6v.7m-.4-1v.8m-.2-.4l.1.6m1-.1l-.4.5m.4-.4l-.3.6m.5-.6l-.4.6m.6-.6l-.6.8m.4-.9l-.3.7m.4-.6l-.3.6m.1-.7l-.3.7m.5-.6l-.2.5m.4-.4l-.3.6m-.2-.9l-.3.9m.8-.6l-.3.6m-.5-1.4l-.4.7m.5-.3l-.3.3m.2-.6l-.4.6m.6-.3l-.4.8m.3-1l-.4.8m.3-.9l-.3.7m.4-.6l-.1.6m.3-.4l-.2.7m.3-.5l-.1.5m.2-.7l-.2.5m.3-.3l-.4.7m.5-.8l-.2.5m.4-.5l-.3.5m.1-.4l-.1.6m.3-.5l-.3.5m.2-.7l-.4.7m0-.9l-.2.5m.1-.8l-.5.7m.1-.9l-.4.8m1.4-.2l-.2.5m.2-.3l-.1.6m.2-.6l-.2.6m-.1-.5l-.1.3m0-.2l-.1.2m-.3-.6l-.1.1m-1.4.2l-.1.1m.7-.3l-.4.8m.9-.4l-.2.4m.2-.3v.5m-.2-.4h-.1m-.2-.3l.1.2m-.2-.4v.2m-.3-.4v.2m-.2-.2l.2.6m0-.4l-.3.6m.1-.8l-.1.6m.5-.2l-.2.4m.2-.5v.1m.1-.5l-.3.7m.1-.3l-.1.5m.4-.4l-.1.3m.1-.5l-.1.5m.5-.4l-.3.5m.1-.5l-.2.6m.5-.6l-.2.6m.4-.2l-.4.2m.4-.4l-.1.6m.2-1.1v.9m-.4-.2l-.2.1m-.2-.7l.2.7m-.3-.3v.2m-.5-.7l-.2.7m.7-.7l-.1.7m.4-.9l-.1 1m.4-.5l-.1.5m.3-.5l-.5.4m-.2-.5v.5m-.6-.8l-.2.7m.3-.6l-.2.7m.3-.8l-.1.7m.3-.7l-.2.9m.2-.9v.7m.1-.7v.7m-.2-.7v.8m.3-.7l-.1.5m.2-.6l-.1.7m-.4-.7v1m.6-.9v.6m0-.6l-.2.6m-.7-.7l-.2.6m.3-.6v.6m.3-.7l-.1.7m-.2-1l-.2 1.1m.5-1.1l-.1.8m-.1-.8l-.1.7m.4-.6l-.1.7m.3-.8l-.1.8m.2-.6l.1.6m.1-.8v.9m.2-.9v.8m0-.5l-.1.6m-.1-.5v.5m-.3-.6v.4m-.2-.6v.7m-.4-1v.8m-.2-.5v.6m1.1 0l-.4.5m.4-.5l-.3.6m.5-.6l-.4.6m.5-.5l-.5.7m.4-.8l-.3.6m.4-.6l-.3.6m.1-.7l-.3.7m.5-.5l-.2.5m.3-.5l-.3.6m-.1-.8l-.3.9m.8-.6l-.4.5m-.4-1.3l-.4.6m.4-.3l-.2.4m.1-.6l-.3.5m.6-.2l-.5.8m.4-1.1l-.4.9m.6-.9l-.3.7m0-.7l-.3.6m.4-.6l-.1.6m.3-.4l-.2.7m.3-.5l-.1.5m.2-.7l-.2.5m.2-.7l-.2.6m.3-.1l-.4.6m.5-.8l-.2.5m.4-.4l-.3.5m.1-.4l-.1.5m.3-.4l-.3.4m.2-.6l-.4.7m0-.9l-.3.4m.2-.7l-.5.6m.1-.8l-.4.7m1.3-.2l-.1.6m.2-.3l-.1.5m-.2-.4v.3m-.1-.2v.1m-.3-.5l-.1.1m-2.1.2v.1m.7-.4l-.4.8m.9-.5l-.1.5m.1-.4v.5m-.2-.4h-.1m-.2-.1v.1m-.1-.4l-.1.2m-.3-.3l.1.2m-.3-.2l.3.6m0-.4l-.2.7m-.1-.9v.6m.5-.2l-.2.4m.1-.6l.1.2m-.1-.6l-.1.8m.1-.3l-.1.5m.4-.4l-.1.2m0-.5v.5m.4-.4l-.2.5m.1-.5l-.1.6m.4-.7l-.1.7m.3-.3l-.3.3m.3-.5l-.1.6m.1-1.1l.1.9m-.4-.2l-.2.2m-.2-.7l.2.7m-.3-.2v.1m-.6-.6v.7m.5-.7v.7m.3-1v1m.4-.6l-.1.6m.2-.6l-.4.4m-.3-.4l.1.5m-.7-.6l-.1.6m.2-.6l-.1.7m.2-.8l-.1.7m.3-.8l-.1 1m.1-.9v.7m.1-.7l.1.6m-.3-.6l.1.7m.2-.7v.5m.1-.5v.6m-.5-.6l.2.9m.4-1l.1.7m-.1-.6l-.1.6m-.8-.6l-.1.6m.2-.6l.1.6m.2-.7v.7m-.3-1l-.1 1.1m.3-1.1v.8m-.1-.8l-.1.7m.4-.7l-.1.8m.2-.9l.1.9m.1-.6l.1.5m0-.8l.1.9m.1-.9l.1.7m-.1-.4v.5m-.1-.4v.5m-.3-.6v.4m-.2-.6v.7m-.4-.9l.1.8m-.4-.4l.2.6m1-.2l-.3.5m.4-.5l-.3.6m.4-.6l-.3.6m.5-.6l-.4.8m.2-.9l-.2.7m.3-.6l-.2.6m0-.7l-.2.7m.5-.6l-.2.5m.3-.5l-.2.7m-.3-.9l-.2 1m.7-.7l-.2.6m-.7-1.3l-.3.7m.4-.4l-.2.4m.1-.6l-.2.6m.5-.3l-.3.8m.2-1l-.3.8m.5-.9l-.3.7m0-.7l-.2.7m.3-.6l-.1.5m.3-.4l-.1.7m.2-.5v.5m.1-.7l-.2.5m.1-.7l-.1.6m.3-.2l-.3.7m.4-.8l-.1.5m.3-.6l-.2.6m0-.4v.6m.2-.5l-.2.4m.1-.6l-.3.7m-.1-.9l-.2.5m0-.7l-.3.7m-.1-.9l-.3.8m1.3-.4v.6m.1-.3v.5m.1-.6l-.1.6m-.2-.4v.3m-.1-.2v.2m-.4-.5l-.1.1m-2.2.3l-.1.1m.7-.4l-.4.9m1-.5l-.2.4m.2-.3v.4m-.5-.5v.1m-.2-.3v.2m-.4-.4l.1.2m-.2-.1l.3.5m-.1-.4l-.2.7m.4-.5l-.1.4m.1-.5v.1m0-.5l-.1.7m0-.3v.5m.4-.4l-.1.3m0-.5v.5m.4-.4l-.2.4m0-.4l-.1.6m.4-.7l-.1.6m.3-.3l-.3.3m.4-.4l-.1.5m.1-1l.1.9m-.4-.2l-.2.1m-.3-.7l.3.7m-.3-.2v.2m-.1-.7l-.1.7m.4-1v1m.3-.5v.5m.2-.5l-.4.4m-.3-.4l.1.4m-.7-.6v.7m.2-.7l-.1.7m.3-.8l-.1.9m.1-.9v.7m.1-.7v.6m-.2-.6l.1.8m.1-.8l.1.6m.1-.6v.7m-.6-.7l.2 1m.5-1v.6m-.1-.6v.7m-.7-.7l.1.7m.1-.7l.1.6m-.1-1v.9m-.2-.9v.7m.3-.6v.7m.2-.8v.8m.1-.6l.2.5m0-.7l.1.9m.1-1l.1.8m-.1-.5v.6m-.1-.5v.6m-.3-.7v.5m-.3-.6l.1.7m.4-.2l-.2.6m.3-.6l-.3.7m.5-.7l-.3.7m.5-.6l-.5.8m.3-.9l-.2.7m.3-.7l-.2.6m0-.6l-.2.7m.4-.6l-.1.5m.3-.5l-.3.6m-.2-.8l-.2.9m.7-.7l-.3.6m-.6-1.2l-.3.7m.4-.4l-.2.4m.1-.7l-.3.6m.6-.3l-.4.9m.3-1.1l-.4.9m.6-.9l-.3.7m0-.7l-.3.7m.4-.7l-.1.6m.3-.5l-.1.8m.2-.6l-.1.6m.2-.8l-.2.6m.1-.7l-.1.5m.3-.1l-.3.7m.3-.9v.5m.3-.5l-.2.5m0-.4l-.1.6m.3-.5l-.2.5m.1-.7l-.3.8m-.1-.9l-.2.5m0-.8l-.4.7m0-.8l-.3.8m1.3-.4l-.1.5m.2-.3v.6m.1-.7l-.1.7m-.2-.4v.2m-.1-.1v.1m-.4-.5l-.2.1m-.6.4v.6m.1-.9l-.1.5m0-.6l.1.5m0-.6v.6m-.6-.7c1.5-.4 9.2 1.9 9.7 3l-.5.3m-11.7-2.2l-.1.3m.1-.4v.3m0-.2v.3m-.1-.3l-.1.2m-.1-.3v.1m-.1-.2v.3m.3-.3l-.1.3m0-.2l-.1.1m-.2-.1v.1m-.1-.3v.2m-.2-.2v.2m.1-.2l-.1.2m-.2-.2v.2m.2-.2v.2m.1-.2v.3m-.1-.3l-.1.2m.5-.1l-.1.2m0-.2v.2m.4-.2l-.2.2m0-.2v.3m.3-.2l.1.3m-.1-.8v.6m-.5-.5v.4m-.4-.6v.6m-.4-.4l.1.4m-.1-.4l.3.5m-.2-.6l.2.6m-.1-.6l.1.5m.1-.3l-.1.3m-.4-.6v.3m0-.3v.3m-.3-.4v.4m.3 0l.2.3m-.5-.7l.2.6m-.1-.3l.1.3m-.3-.3l.1.1m-.4-.4l.1.4m0 0l.2.2m.1-.2l-.1.2m.1-.2l.2.2m.1-.2l-.4.2m-.3-.6v.5m.3-.2v.3m-.3-.6l.1.4m-.2-.1l-.1.2m-.1-.2l-.1.2m-.2-.3l.1.4m.4-.4l-.1.3m-.1-.4l-.1.4m-.2-.3l.1.4m-.3-.3l.1.1m-.3-.4l.3.4m-.3-.1l.3.4m-.3-.4l.2.4m-.3-.5l.1.3m-.3-.2l.1.3m-.3-.3h.2m-.1-.2l.1.4m.3-.5v.3m.2 0v.1m.2-.2l-.1.2m-.1-.1l-.6-.3m-.3-.1l.2.2m-.1-.1v.4m.2-.4l.2.6m-.5-.7l.1.5m.2-.4l-.3.6m.1-.6l-.1.6m-.3-.6v.5m.2-.2v.1m0-.4l-.2.3m0-.3l.2.3m-.2 0l.3.5m0-.6v.2m0-.2l-.1.2m.3-.1v.1m.1-.1l.1.2m-.2-.2l.1.2m0-.3l-.1.2m0-.1v.2m-.1-.2v.2m-.1-.2v.1m-.1-.1v.1m-.1-.1l.1.2m-.1-.3v.2m-.1-.1v.2m-.1-.2l.1.2m-.1-.2v.2m-.1-.2v.2m-.1-.1v.1m.2-.1v.1m-.1-.2l.1.2m0-.2v.2m-.1-.2v.2m0-.2v.2m-.1-.2v.2m0-.1v.1m-.1-.2v.2m0-.2v.2m-.1-.1v.1m0-.1v.1m0-.2v.2m-.1-.2v.2m-.1-.2l.1.2m-.1-.2l.1.2m-.1-.2v.2m-.1-.2l.1.1m-.1-.1v.2m0-.2v.2m0-.1v.1m-.1-.2v.2m0-.1h-.1m0 0v.1m0-.1v.1m0-.1v.1m-.1-.1v.1m0-.1v.1m0-.1l-.1.1m0-.1v.1m.4-.1v.1m.2-.1v.1m-.6-.2v.2m-.1-.2v.2m0-.2v.2m-.1-.2l.1.2m-.1-.1v.1m0-.1l.1.1m-.2-.1v.1m.1-.1v.1m-.1-.1v.1m-.1-.1v.1m0-.1v.1m-.1 0v.1m-.1-.2v.1m.1 0h-.1m-.2 0l.1.1m-.2-.1l.1.1m0-.1v.1m-.1-.1l.1.1m0-.1v.1m-.3-.1l.1.1m0-.1l.1.1m0-.1v.1m-.2-.1l.1.1m0 0h.1m-.1 0h.1m-.2-.1v.1m0-.1l.1.1m-.1 0v.1m-.1-.2l.1.1m0-.1v.2m-.1-.1l.1.1m-.1-.1v.1m0-.1v.1m-.1-.1h.1m-.1 0l.1.1m-.1-.1v.1m0-.1v.1m-.1-.1v.1m0 0v.1m.1-.2v.1m-.1-.1v.1m0 0h.1m-.2-.1v.1m0 0l-.1.1m-.1-.2l.1.1m0 0v.1m.1-.1l-.1.1m0-.2l.1.1m-.1-.1l.1.1m0-.1l-.1.1m0 0v.1m-.1-.1l.1.1m-.2-.1v.1m0 0l.1.1m-.1-.1v.1m.1-.1h-.1m-.2 0l.2.2m-.1-.2l.1.1m-.1-.1v.1m-.1 0h.1m-.1 0v.1m0-.2v.1m.1 0h-.1m-.1 0v.1m0-.1v.1m-.1 0v.1m0-.1l-.1.1m-.1 0l.1.1m-.1-.1v.1m-.1 0h.1m-.2 0h.1m-.1 0l.1.1m-.1-.1v.1m0-.1l.1.1m.1-.5l.2.4m.3-.5l.3.2m-.1-.3l.3.1m.1-.1h.3m.3-.1h.2m.1-.1l.1.2m.1-.3l.1.2m.5-.2l.3.1m.3-.1l.1.1m.2-.4l-.3.3m-.3-.3l-.1.3m-.1 0v.3m-.1-.3l.1.1m-.2-.1l-.1.2m0-.4l.1.5m.3-.4v.2m-.2-.2l-.2.2m-.4-.3l.2.2m-.4-.1v.3m-.5-.2v.3m-.1-.3l.1.3m-.5-.2l.1.3m-.3-.1v.2m-.1-.1l.1.1m-.5-.1l.2.2m-.2 0l.1.1m-.2 0l-.1.1m-.3 0v.1m0-.1l.1.1m0-.3l.1.1m-.1 0v.2m-.4-.1l.1.2m.1-.1l.1.1m-.2-.2l.1.2m-.2 0v.2m0-.1v.1m0-.4l.2.4m-.5-.2l.3.2m-.4 0v.2m0-.1h.2m-.2-.2l.4.1m-.6.1l.4.2m.2-.3v.1m-.8.2l.5.2m-.3-.4l.2.1m-.4.3h.2m-.4 0l.2.1m-.4.3l.4.3m-.5 0l.3.2m-.4-.5l.3.3m-.1-.5l.3.3m-.1-.4l.2.2m-.1-.3l.1.1m.2-.2h.1m0-.3l.2.2m-1.1.9l.2.1m-.3.1l.4-.2m0-.4l.4-.3m1-.9h.2m.4 0v.1m-1.7 1.4l.1.1m-.4-.1l.1.2m0-.3l.4.3m-.4-.3l.5.4m-.5-.5l.5.4m-.5-.3l.4.4m-.6-.3l.6.4m-.3-.7l.4.3m-.6-.2l.4.5m-.6-.4l.4.5m-.4-.9l.8.7m-1-.5l.6.5m-.5-.7l.5.5m-.6-.2l.5.5m-.5-.5l.4.5m-.3-1l.5.6m-.1-.5l.3.5m-.9 0l.6.2m-.5.2h.4m-.5-.3l.6.2m-.6-.1l.6.2m-.9-.1l.7.1m-.5-.5l.7.2m.9-.9h.1m-.7.4l.8.2m-.9.5l.3.1m-.1-.2h.1m0-.4l.1.1m-.2-.3l.2.1m0-.5l.1.1m0-.2l.2.5m-.2-.3l.5.3m-.5-.5l.4.3m-.5-.5l.9.8m-.8-.1l.3.2m-.4-.3l.1.1m-.4-.3l.6.3m-.3-.1l.4.3m-.5 0l.3.1m-.4-.3l.4.3m-.6.1l.5.1m-.4-.2l.5.3m-.7-.1l.4.3m-.3.1l.3-.1m-.1-.1l.2-.1m-.3-.6l.3.6m0-.4l.2.1m-.1-.8l.5.4m-.8 0l.5.3m-.9-.3l.7.6m-.6 0l.3.3m-.4-.2h.5m-.1-.6l.3.4m0-1l.5.4m-.6-.3l.5.4m-.6-.4l.5.5m-.6-.3l.6.5m-.6-.5l.4.5m-.5-.4l.4.4m-.3-.6l.5.6m-.6-.4l.3.4m-.4-.3l.4.5m-.1-.9l.5.8m-.9-.3l.4.5m-.4-.5l.5.4m.1-1.1l.5.3m-.6-.2l.4.5m-.6-.4l.4.5m-.4-.9l.8.7m-1-.5l.6.5m-.5-.7l.5.5m-.7-.2l.6.5m-.7-.4l.5.6m-.4-.3l.2.4m-.5-.5l.5.7m-.6-.5l.4.6m-.3-.4l.4.3m-.2-.3l.3.3m-.2-.7l.3.3m-.3-.6l.5.5m-.3-1l.4.6m-.1-.5l.4.5m-.8.7l.5.1m-.5 0l.6.2m-.7-.1l.6.2m-.7 0l.8.1m-.8-.3l.6.2m-.6-.1l.5.2m-.4-.4l.6.3m-.7 0l.4.1m-.5 0l.6.2m-.4-.8l.7.5m-.9.2l.6.1m-.4-1.4l.6.2m-.5.2h.4m-.5-.3l.6.2m-.6.2l.8.3m-.9-.5l.8.3m-.9-.2l.6.3m-.4-.5l.6.2m-.7-.1l.5.3m-.5 0l.6.3m-.6-.1l.4.3m-.5-.4l.4.2m-.5-.4l.5.3m-.3.1l.6.2m-.8-.2l.4.3m-.6-.1l.6.2m-.3-.3l.4.3m-.5-.1l.4.2m-.5-.4l.7.2m-.5-.6l.4.1m-.3-.8l.7.2m-1.1.8l.5.3m-.1-.1l.2.2m-.1-.2l.1.1m-.1-.7h.2m1.2-1.1h.1m-.7.3l.8.3m-.9.4l.3.2m-.3-.1l.3.2m-.1-.4h.1m0-.3l.1.1m-.2-.4l.2.1m0-.5l.1.2m0-.3l.2.6m-.2-.3l.5.3m-.5-.6l.4.3m-.5-.4l.9.8m-.8-.1l.3.1m-.4-.2l.1.1m-.4-.4l.6.4m-.3-.2l.4.3m-.5.1l.2.1m-.3-.3l.3.3m-.5.1l.5.1m-.4-.3l.4.3m-.6-.1l.4.4m-.4 0h.4m-.5-.1l.5.3m-.8-.6l.5.7m.2-.5h.2m-.3-.7l.3.7m0-.4l.1.1m0-.9l.5.4m-.8 0l.5.4m-.9-.3l.7.6m-.6-.1l.3.4m-.4-.3h.5m-.1-.5l.2.3m0-.1l.6.5m-.5-1.4l.4.4m-.5-.3l.5.5m-.6-.4l.5.4m-.7-.3l.7.5m-.7-.5l.5.5m-.5-.4l.4.5m-.3-.6l.5.5m-.6-.3l.3.4m-.4-.3l.4.4m-.1-.9l.5.8m-.9-.2l.4.4m-.4-.5l.5.4m.1-1.1l.5.4m-.6-.3l.4.5m-.6-.3l.4.4m-.4-.9l.7.7m-.9-.5l.5.6m-.4-.7l.5.4m-.7-.1l.6.4m-.7-.3l.5.5m-.4-.3l.2.5m-.5-.5l.5.7m-.7-.6l.5.6m-.3-.4l.4.4m-.3-.4l.4.4m-.2-.7l.3.3m-.3-.6l.5.5m-.4-1l.5.6m-.1-.6l.4.6m-.8.6l.5.2m-.5-.1l.6.2m-.7 0l.6.1m-.7 0l.8.2m-.8-.4l.6.3m-.6-.2l.5.3m-.4-.5l.6.3m-.7 0l.4.2m-.5-.1l.6.2m-.4-.7l.7.5m-.9.1l.6.1m-.5-1.3l.7.2m-.5.1l.4.1m-.5-.4l.6.2m-.6.2l.8.3m-.9-.5l.8.3m-.9-.1l.6.2m-.4-.5l.6.3m-.7-.2l.5.3m-.5 0l.5.4m-.5-.2l.4.3m-.6-.3l.5.2m-.5-.4l.4.3m-.2.1l.6.2m-.8-.3l.4.3m-.6-.1l.5.2m-.3-.2l.5.3m-.5-.1l.4.1m-.5-.3l.7.2m-.5-.7l.4.2m-.5-.5l.7.2m-.5-.6l.7.3m-1.1.8l.4.3m-.3-.1l.4.4m-.1-.5l.1.2m0-.2l.1.1m-.1-.7h.2m1.1-.8h.1m-.7.3l.8.3m-.9.4l.4.2m-.3-.1l.3.3m0-.8v.1m-.1-.4l.1.1m0-.5l.1.2m.1-.3l.1.6m-.2-.3l.6.3m-.5-.6l.4.3m-.5-.4l.9.8m-.9-.1l.3.1m-.4-.2l.1.1m-.3-.3l.5.3m-.2-.2l.3.3m-.4.1l.2.1m-.4-.3l.4.3m-.5.1l.4.1m-.3-.3l.4.4m-.7-.1l.5.3m-.4 0h.4m-.8-.4l.5.7m.1-.5h.2m-.3-.7l.3.7m.1-.4l.1.1m0-.9l.5.4m-.9 0l.5.4m-.9-.3l.7.6m-.6 0l.4.3m-.5-.2l.5-.1m-.1-.5l.3.4m0-1l.5.3m-.5-.3l.5.5m-.6-.4l.5.4m-.7-.3l.7.5m-.7-.5l.5.5m-.5-.4l.3.5m-.2-.6l.4.5m-.6-.3l.4.4m-.5-.3l.5.4m-.1-.8l.5.7m-1-.2l.4.4m-.3-.5l.5.4m.1-1.1l.4.4m-.5-.3l.4.5m-.6-.3l.4.4m-.5-.9l.8.7m-.9-.5l.5.6m-.4-.7l.5.4m-.7-.1l.5.4m-.6-.3l.5.5m-.5-.3l.3.5m-.5-.5l.5.7m-.7-.6l.4.6m-.2-.4l.4.4m-.3-.4l.4.4m-.2-.7l.2.3m-.2-.6l.5.5m-.4-1l.5.6m-.1-.5l.3.5m-.8.7l.6.1m-.6-.1l.6.2m-.7 0l.7.1m-.8 0l.8.2m-.7-.4l.6.3m-.6-.2l.5.3m-.5-.5l.6.3m-.7 0l.5.2m-.5-.1l.5.2m-.3-.7l.7.5m-.9.1l.5.1m-.4-1.3l.7.2m-.6.1l.4.1m-.4-.3l.5.1m-.5.2l.8.3m-.9-.4l.8.2m-1-.1l.7.2m-.5-.5l.6.3m-.6-.1l.4.2m-.5 0l.6.4m-.5-.2l.4.3m-.6-.3l.5.2m-.6-.4l.5.3m-.3.1l.7.2m-.8-.2l.3.2m-.5-.1l.5.2m-.3-.2l.5.3m-.6-.1l.5.1m-.5-.3l.7.2m-.5-.7l.4.2m-.5-.5l.7.2m-.6-.6l.7.3m-1 .8l.4.3m-.3-.1l.3.4m-.4-.4l.4.4m-.1-.5l.2.2m-.1-.2l.1.1m0-.7h.1m1.6-.1l.1.1m-.7-.4l.4.9m-.9-.6l.1.4m-.1-.3v.5m.2-.4h.1m.2-.1v.1m.1-.4l.1.2m.3-.3l-.1.2m.3-.1l-.3.5m0-.4l.2.7m.1-.8v.5m-.5-.2l.1.4m0-.6l-.1.2m.1-.5l.1.7m-.1-.3v.5m-.3-.4l.1.2m0-.5v.5m-.4-.4l.2.5m0-.5v.6m-.3-.7v.6m-.3-.3l.3.3m-.3-.4l.1.6m0-1.1l-.2.9m.4-.2l.2.2m.2-.7l-.2.7m.3-.2v.1m.6-.5v.7m-.5-.8v.7m-.3-1v1m-.3-.6v.6m-.2-.6l.4.4m.3-.4l-.1.5m.7-.6v.6m-.1-.6v.7m-.1-.8v.8m-.2-.8l.1.9m-.1-.9l-.1.7m0-.7l-.1.6m.3-.6l-.1.8m-.2-.8v.5m-.1-.5v.6m.5-.6l-.2.9m-.4-1l-.1.6m.2-.5v.6m.8-.5v.6m-.1-.7l-.1.7m-.1-.8l-.1.7m.4-1l-.1 1.1m-.2-1.1l-.1.8m.3-.8l-.1.7m-.2-.7l-.1.8m-.1-.8l-.1.8m0-.6l-.2.5m0-.8l-.1.9m-.1-.9l-.1.7m.1-.4v.5m.1-.5v.6m.3-.6v.4m.3-.6l-.1.8m.5-1l-.2.8m.3-.4l-.1.6m-1-.2l.3.5m-.3-.5l.2.6m-.4-.6l.3.6m-.5-.6l.4.8m-.2-.9l.2.7m-.3-.7l.2.7m0-.7l.2.7m-.4-.6l.1.5m-.3-.5l.2.6m.3-.8l.1 1m-.6-.7l.2.5m.7-1.2l.3.7m-.4-.4l.2.4m-.1-.6l.2.6m-.5-.3l.3.8m-.2-1l.3.9m-.5-1l.3.7m0-.7l.2.7m-.3-.6l.1.5m-.3-.4l.1.7m-.2-.5v.5m-.1-.8l.2.6m-.1-.7l.1.6m-.3-.4v.5m-.3-.5l.2.6m0-.4l.1.5m-.3-.5l.2.5m-.1-.7l.3.8m.1-.9l.2.5m0-.7l.3.7m.1-.9l.2.8m-1.2-.4l.1.6m-.2-.4v.6m0-.7v.7m.2-.4v.3m.1-.2v.1m.4-.4l.1.1m2-.1v.2m-.6-.4l.3.8m-.9-.5l.2.5m-.2-.4l.1.5m.4-.6v.2m.2-.4v.2m.3-.4v.2m.2-.1l-.3.5m.1-.4l.1.7m.1-.8l.1.6m-.5-.3l.1.4m-.1-.5v.1m0-.5l.1.7m0-.3v.5m-.4-.4l.1.3m0-.5v.5m-.4-.4l.2.5m0-.5l.1.6m-.4-.7l.1.7m-.3-.3l.3.3m-.3-.5v.6m-.1-1.1v.9m.3-.2l.2.2m.3-.7l-.3.7m.3-.3v.2m.6-.6l.1.7m-.6-.7l.1.6m-.4-.9v1m-.3-.6v.6m-.2-.6l.4.4m.3-.4l-.1.5m.7-.7l.1.7m-.2-.7l.1.7m-.2-.7l.1.7m-.3-.8l.1.9m-.1-.9v.8m-.1-.8v.7m.2-.6l-.1.7m-.2-.7v.5m-.1-.6v.7m.5-.6l-.1.9m-.5-1v.6m.1-.5v.6m.8-.6l.1.6m-.2-.7l-.1.7m-.1-.7l-.1.6m-.1-.9l.1.7m-.3-.6l-.2.6m0-.8l-.1.9m-.1-.6v.5m.1-.5v.6m.3-.6v.4m.2-.6v.7m.6-.6l-.1.6m-.9-.2l.2.6m-.3-.5l.3.6m-.5-.6l.3.6m-.4-.6l.4.8m-.3-.9l.2.7m-.3-.6l.2.6m0-.7l.2.7m-.4-.6l.1.5m-.2-.5l.2.6m.2-.8l.2 1m-.7-.7l.3.5m.6-1.2l.3.7m-.4-.4l.2.4m-.1-.6l.2.6m-.5-.4l.4.9m-.3-1.1l.4.9m-.6-.9l.3.7m0-.7l.3.7m-.4-.7l.1.6m-.3-.4l.1.7m-.2-.5l.1.5m-.2-.7l.2.5m-.1-.7l.1.6m-.3-.2l.3.7m-.3-.8v.4m-.3-.5l.3.6m-.1-.4l.1.6m-.3-.5l.2.4m-.1-.6l.3.7m.1-.9l.2.5m-.6-.5l.1.6m-.2-.3v.5m0-.6v.6m.3-.4v.3m0-.2v.1m.4-.5l.1.2m2.1.2l.1.1m-.7-.4l.3.9m-.9-.5l.2.4m-.2-.3l.1.4m.5-.5l-.1.1m.2-.4v.2m.3-.3v.2m.2-.1l-.3.5m.1-.4l.2.7m0-.8l.1.5m-.1-.7l.1 1.3m-.5-.8l.1.4m-.1-.6v.2m0-.5l.1.7m0-.3v.5m-.3-.4v.3m0-.6v.6m-.4-.5l.2.5m0-.4l.1.5m-.4-.6l.1.6m-.3-.3l.3.3m-.3-.4l.1.5m-.1-1l-.1.9m.4-.2l.1.1m.3-.7l-.3.7m.3-.2v.2m.6-.6l.1.6m-.6-.7l.1.7m-.4-1v1m-.3-.5v.5m-.1-.5l.3.4m.3-.5l-.1.5m.7-.6l.1.6m-.2-.6l.1.7m-.2-.8l.1.8m-.3-.8l.1.9m-.1-.9v.7m-.1-.7v.6m.2-.6l-.1.8m-.1-.8l-.1.5m-.1-.5v.6m.5-.6l-.1.9m-.5-.9v.6m.1-.6v.6m.9-.6v.7m-.2-.7l-.1.7m-.1-.8l-.1.7m.4-1v1.1m-.3-1.1v.8m.1-.8l.1.7m-.4-.7l.1.8m-.2-.8v.8m-.1-.6l-.2.5m0-.7l-.1.9m-.1-.7v.6m.1-.5v.6m.3-.7v.4m.2-.6v.8m.4-1v.8m.2-.4l-.1.6m-.9-.2l.2.6m-.3-.6l.3.7m-.5-.7l.4.7m-.5-.6l.4.8m-.3-.9l.3.7m-.4-.7l.2.6m0-.6l.2.7m-.4-.6l.2.5m-.3-.5l.2.6m.3-.8l.1.9m-.7-.7l.3.6m.6-1.3l.3.7m-.4-.3l.2.4m-.1-.7l.3.6m-.6-.3l.4.8m-.3-1l.4.9m-.3-1l.3.7m-.4-.6l.1.6m-.3-.5l.1.8m-.2-.6l.1.5m-.2-.7l.2.6m-.2-.3l.3.7m-.4-.9l.1.5m-.4-.5l.3.5m-.1-.4l.1.6m-.3-.5l.2.5m-.1-.7l.4.8m0-.9l.2.4m0-.7l.4.7m0-.8l.3.7m-1.3-.3l.1.5m-.2-.3v.6m0-.7v.7m.3-.4v.2m.1-.2v.2m.3-.5l.2.1m1.3.3v.1m-.7-.3l.4.8m-.9-.5l.2.4m-.2-.3l.1.5m.4-.6v.2m.1-.4l.1.2m.3-.4v.2m.2-.1l-.3.5m.1-.4l.1.7m.1-.8v.6m-.4-.3l.1.4m-.1-.5v.1m0-.5l.1.7m-.1-.3l.1.5m-.4-.4l.1.3m0-.5v.5m-.4-.4l.2.5m0-.5l.1.6m-.4-.7l.1.6m-.3-.2l.3.2m-.3-.4v.6m-.1-1.1v.9m.3-.2l.2.2m.2-.7l-.2.7m.3-.3v.2m.6-.6v.7m-.5-.8l.1.7m-.4-.9v1m-.3-.6v.6m-.2-.6l.4.4m.3-.4l-.1.5m.7-.7l.1.7m-.2-.7l.1.7m-.2-.7l.1.7m-.3-.8l.1.9m-.1-.9v.8m-.1-.8v.7m.2-.6l-.1.7m-.2-.7v.5m-.1-.6v.7m.5-.7l-.1 1m-.5-1v.6m0-.5l.1.6m.8-.6l.1.6m-.2-.7l-.1.7m-.2-.7v.6m.3-1l.1 1.2m-.3-1.1v.8m.1-.9l.1.7m-.4-.6l.1.7m-.2-.8v.8m-.1-.6l-.2.5m0-.7l-.1.9m-.1-.9l-.1.7m.1-.4v.5m.1-.5v.6m.3-.6v.4m.2-.6v.7m.4-1l-.1.9m.3-.5l-.1.6m-1-.2l.3.6m-.3-.5l.3.6m-.5-.6l.3.6m-.4-.6l.4.8m-.3-.9l.2.7m-.3-.6l.2.6m0-.7l.2.7m-.4-.6l.1.5m-.2-.5l.2.6m.2-.8l.2 1m-.7-.7l.3.5m.6-1.2l.3.7m-.4-.4l.2.4m-.1-.6l.2.6m-.5-.4l.4.9m-.3-1.1l.4.9m-.6-.9l.3.7m0-.7l.2.7m-.3-.7l.1.6m-.3-.4l.1.7m-.2-.5l.1.5m-.2-.7l.2.5m-.1-.7l.1.6m-.3-.2l.3.7m-.3-.9v.5m-.3-.5l.3.6m-.1-.4l.1.6m-.3-.5l.2.4m-.1-.6l.3.7m.1-.9l.2.5m0-.8l.3.7m0-.8l.4.8m-1.3-.4l.1.6m-.2-.3v.5m-.1-.6l.1.6m.3-.4v.3m0-.2v.1m.4-.5l.1.2m2 .4v.2m-.6-.5l.2.9m-.8-.7l.1.5m-.1-.4v.5m.2-.3h.1m.2-.2v.1m.2-.3v.2m.4-.3l-.1.2m.2-.1l-.3.5m.1-.4v.7m.2-.8v.6m-.5-.3l.1.4m0-.6l-.1.2m.1-.6l.1.8m-.1-.3v.5m-.3-.5l.1.3m0-.5v.5m-.4-.5l.2.5m0-.4v.6m-.3-.8v.7m-.3-.4l.3.4m-.3-.5l.1.6m0-1.1l-.2.9m.4-.2l.2.2m.3-.6l-.3.6m.3-.2v.2m.6-.5v.7m-.5-.8v.7m-.2-1.1l-.1 1m-.3-.6v.6m-.2-.6l.4.5m.3-.4l-.1.4m.7-.5v.7m0-.7l-.1.7m-.1-.8v.8m-.1-.8v.9m-.1-.9l-.1.7m0-.7l-.1.6m.3-.6l-.1.7m-.1-.7l-.1.5m0-.6l-.1.7m.6-.6l-.3.9m-.4-1l-.1.6m.2-.6v.7m.9-.5l-.1.6m-.1-.7l-.1.7m-.1-.8l-.1.7m.4-1l-.1 1.2m-.1-1.2l-.1.8m.2-.8v.7m-.3-.7v.8m-.1-.9l-.2.8m0-.6l-.2.5m.1-.7l-.2.9m0-1l-.2.7m.2-.4l-.1.6m.1-.5v.6m.4-.6l-.1.4m.3-.6l-.1.7m.5-.8l-.1.7m.3-.3l-.2.6m-.9-.4l.2.6m-.3-.6l.2.7m-.4-.7l.3.7m-.4-.7l.3.9m-.2-1l.2.7m-.2-.6v.6m.2-.7v.8m-.3-.7l.1.5m-.2-.5l.1.7m.4-.8v.9m-.6-.7l.2.6m.8-1.2l.2.7m-.4-.4l.2.4m0-.6l.1.6m-.4-.4l.2.9m-.1-1.1l.2.9m-.4-1l.2.8m.1-.7l.1.7m-.2-.7v.6m-.2-.5v.8m-.2-.6v.5m0-.7l.1.5m0-.7v.6m-.2-.2l.2.7m-.3-.8v.5m-.2-.6l.1.6m0-.4v.6m-.2-.6l.2.5m0-.7l.2.8m.2-.8l.1.5m.1-.8l.2.8m.2-.9l.2.8m-1.2-.5v.6m-.1-.4l-.1.6m0-.7v.7m.3-.4l-.1.3m.1-.2v.2m.5-.5l.1.2m2 .6l.1.1m-.7-.5l.3.9m-.8-.6l.1.4m-.1-.3l-.1.4m.6-.4l-.1.1m.2-.4v.3m.4-.3l-.1.1m.3-.1l-.4.5m.1-.4l.1.8m-.3-.6l.1.4m-.1-.5v.1m.1-.5v.7m0-.3v.5m-.3-.4v.3m.1-.6l-.1.6m-.3-.5l.1.5m0-.5v.6m-.3-.7l.1.6m-.3-.3l.3.3m-.3-.5v.6m.1-1l-.2.8m.4-.1l.1.2m.3-.7l-.3.7m.4-.2l-.1.2m.2-.7v.7m-.3-1l-.1 1m-.3-.6v.5m-.1-.6l.3.5m.4-.4l-.2.5m.7-.5v.7m-.1-.8v.7m-.2-.8v.9m0-.9l-.1.7m0-.7l-.1.6m.3-.5l-.2.7m-.1-.8l-.1.5m0-.5l-.1.6m.6-.5l-.3.9m-.3-1.1l-.1.6m.2-.5l-.1.6m.8-.5l-.2.6m0-.7l-.2.6m.2-.9l-.1.8m.3-.8l-.1.7m-.2-.7l-.1.7m-.1-.8l-.1.8m0-.6l-.2.5m.1-.8l-.3.9m.1-.9l-.2.7m.1-.5v.6m.1-.5l-.1.6m.4-.6l-.1.4m.4-.5l-.1.7m-.5-.2l.2.5m-.2-.5l.1.7m-.3-.7l.2.6m-.4-.7l.3.9m-.1-.9l.1.7m-.2-.7l.1.6m.1-.6l.1.7m-.3-.6v.5m-.2-.5l.2.6m.3-.8l.1 1m-.6-.8l.2.6m.8-1.2l.2.8m-.4-.4l.1.4m0-.7l.2.7m-.5-.4l.3.9m-.2-1.1l.3.9m-.5-1l.2.8m.2-.8l.1.8m-.3-.7l.1.6m-.3-.5v.7m-.1-.5v.5m-.1-.8l.1.6m0-.7l.1.6m-.3-.2l.2.7m-.2-.9v.5m-.3-.6l.2.6m0-.4v.6m-.2-.5l.1.5m0-.7l.2.8m.3-.9l.1.5m.1-.7l.2.7m.1-.8l.2.8m-1.2-.6l.1.6m-.2-.3v.5m0-.6v.6m.2-.4v.3m.1-.1v.1m.4-.4l.1.1m.6.4l-.1.6m.1-.9v.6m0-.6l-.1.5m.1-.7l-.1.7m.7-.7c-1.4-.6-9 .7-9.6 1.7l.5.3"/><linearGradient id="f" x1="428.832" x2="425.218" y1="60.723" y2="60.723" gradientTransform="matrix(-1.3964 0 0 1 713.293 0)" gradientUnits="userSpaceOnUse"><stop offset="0" stop-color="#ec1475"/><stop offset="1" stop-color="#fff5cb"/></linearGradient><ellipse cx="117" cy="60.7" fill="url(#f)" opacity=".2" rx="2.5" ry="2.3"/><linearGradient id="g" x1="434.7" x2="439.097" y1="60.441" y2="60.441" gradientTransform="matrix(-1.3964 0 0 1 713.293 0)" gradientUnits="userSpaceOnUse"><stop offset="0" stop-color="#ec1475"/><stop offset="1" stop-color="#fff5cb"/></linearGradient><ellipse cx="103.2" cy="60.4" fill="url(#g)" opacity=".2" rx="3.1" ry="2.4"/><linearGradient id="h" x1="421.596" x2="441.604" y1="51.894" y2="51.894" gradientTransform="matrix(-1.3964 0 0 1 713.293 0)" gradientUnits="userSpaceOnUse"><stop offset="0" stop-color="#f05525"/><stop offset=".059" stop-color="#db4d22"/><stop offset=".257" stop-color="#993618"/><stop offset=".446" stop-color="#63230f"/><stop offset=".619" stop-color="#381409"/><stop offset=".775" stop-color="#190904"/><stop offset=".907" stop-color="#070201"/><stop offset="1"/></linearGradient><path fill="url(#h)" stroke="#833C1C" stroke-width=".308" d="M122.8 58.7l.3-2.9s-2.7-6.4-4.5-6.5c-1.8-.2-6.6-1.5-8.4-1.3-1.8.2-5.8.7-7.6 2.4-1.8 1.8-4.3 3.4-4.3 4.9v2.8l-1-.7s-1.1-4.6-.5-5.8c.9-1.8 7.2-8 14.2-6.9 6.7 1.1 10.7 3.8 12 6.1 1.3 2.3 1.5 7.6 1.6 8.1.1.5-1.4.5-1.4.5l-.4-.7z"/><linearGradient id="i" x1="423.102" x2="434.847" y1="47.605" y2="47.605" gradientTransform="matrix(-1.3964 0 0 1 713.293 0)" gradientUnits="userSpaceOnUse"><stop offset="0" stop-color="#f05525"/><stop offset=".059" stop-color="#db4d22"/><stop offset=".257" stop-color="#993618"/><stop offset=".446" stop-color="#63230f"/><stop offset=".619" stop-color="#381409"/><stop offset=".775" stop-color="#190904"/><stop offset=".907" stop-color="#070201"/><stop offset="1"/></linearGradient><path fill="url(#i)" d="M106.4 45.8s-.6 2.5-.1 2.6c.4.2 7.3 1 9.9 1 2.5 0 4 .4 4.3 1.1.3.8 2.1-.6 2.1-.6s-6.1-5.8-12-5.5c-6.2.4-4.2 1.4-4.2 1.4z"/><linearGradient id="j" x1="452.069" x2="459.094" y1="146.961" y2="146.961" gradientTransform="matrix(-1.3573 -.235 -.3282 .972 781.22 26.15)" gradientUnits="userSpaceOnUse"><stop offset="0" stop-color="#f05525"/><stop offset=".059" stop-color="#db4d22"/><stop offset=".257" stop-color="#993618"/><stop offset=".446" stop-color="#63230f"/><stop offset=".619" stop-color="#381409"/><stop offset=".775" stop-color="#190904"/><stop offset=".907" stop-color="#070201"/><stop offset="1"/></linearGradient><path fill="url(#j)" stroke="#833C1C" stroke-width=".308" d="M110.9 60s5.1.9 6.2 1.5c1.1.5 3.1 2 1.8 1.7-1.3-.4-5.2-.1-6.4-.4-1.2-.3-1.9-1-2.4-1.1-.4-.1.1-1.5.1-1.5l.7-.2z"/><linearGradient id="k" x1="387.365" x2="393.033" y1="23.98" y2="23.98" gradientTransform="matrix(-1.3653 .2277 .3554 1.0926 630.733 -53.183)" gradientUnits="userSpaceOnUse"><stop offset="0" stop-color="#f05525"/><stop offset=".059" stop-color="#db4d22"/><stop offset=".257" stop-color="#993618"/><stop offset=".446" stop-color="#63230f"/><stop offset=".619" stop-color="#381409"/><stop offset=".775" stop-color="#190904"/><stop offset=".907" stop-color="#070201"/><stop offset="1"/></linearGradient><path fill="url(#k)" stroke="#833C1C" stroke-width=".308" d="M109.3 60.1s-4.1.5-4.9 1c-.8.5-2.4 1.9-1.3 1.6 1-.2 4.3.5 5.2.3.9-.2 1.5-.9 1.8-1 .3-.1 0-1.7 0-1.7l-.8-.2z"/><path fill="#020303" stroke="#000" stroke-width=".308" d="M110.1 60.3s6.9 1.9 9.1 1.8c2.2-.2 2.5.1 3.2-1.3.7-1.4 2.2-1.9 2.2-1.9s.3 1.8-.5 2.9c-.8 1.1-8.7 4.2-14.6 3.4-5.8-.8-7.2-1-8.9-2.1-1.7-1.2-2.6-2.1-2.4-2.6.2-.5 1.8.8 3.8 1.3 1.9.4 8-1.4 8.1-1.5z" opacity=".04"/><path fill="#020303" stroke="#000" stroke-width=".308" d="M98.7 58l-.2 2.4s-.2.1-.7-.8c-.5-.8.9-1.6.9-1.6z" opacity=".04"/><path fill="#E8B989" stroke="#DCA572" stroke-width=".308" d="M90 76.4c-1.4.8-2.2 1.3-3.4.1 1.1-.8 4.3-3.4 1-3.8-2.4-.3-1.4 2-2 3.2-5.4.7-3.6-3.9-.8-5.4 2.8-1.5 7.9 1.7 6 4.8"/><path fill="#F6EBC1" stroke="#DFC96E" stroke-width=".308" d="M98.2 73.1l-6.2-.4v4.2l7.3-1.2 6.3-4.5 1-4.7-8.3 6.5"/><g fill="#F6EBC1" stroke="#DFC96E" stroke-width=".308"><path d="M90.9 77.2l.2-3.9 1.2-.7-.4 3.7z"/><path d="M92 77.1s.4-2.1.4-2.5c-.1-.4 0-2.1 0-2.1s-.1-.2-.9.1c-.8.3-.7 1.9-.7 1.9l-.2 2.3 1.4.3zm.1-.4l-1.5-.1m1.6-.6l-1.6.1m1.7-.8l-1.6.2m1.7-.9l-1.7.2m1.6-.9l-1.6.3m1.6-1l-1.4.2m1.4-.7l-1 .2"/></g><path fill="#F6EBC1" d="M106.2 66.7c-3.6 3.4-5.1 9.1-5.3 13.7-.1 2-.7 4.5 0 6.5.8 2.2 4.6 1.8 6.7 2 2.3.2 5.1-.2 7.3-1 1.4-.5 1.4-1.2 1.3-2.6-.1-1.1-.2-2.3-.2-3.4-.1-1.1.2-2.1.2-3.1 0-1.1-.2-2.3-.1-3.4.2-2.3 1.4-4.2.1-6.6-1.7-3-2.6-2.6-4.6-2.4-1.1.1-4.5-.5-5.1.2"/><path fill="#F6EBC1" stroke="#DFC96E" stroke-width=".308" d="M116 86.9s.9 2.4-.3 2.7c-1.1.2-4.4.4-5.7.5-1 .1-2.6.5-3.8.3-1.1-.1-2.1 0-3-.2-.9-.1-1.7 0-2 0-.4 0-.5-1.2-.5-1.5 0-.3.3-1.2.3-1.2s4.8 1 6.5 1c1.7 0 3.8-.4 4.7-.2.9.1 2.8-.7 2.8-.7l1-.7zm-.3.4l.2 2.2m-1.9-1.4l.2 1.6m.3-1.8l.3 1.8m-1.5-1.4l.3 1.5m-.7-1.4l.2 1.4m-1-1.4l.3 1.5m-.9-1.5l.2 1.5m-.8-1.5l.2 1.6m-.7-1.5l.2 1.6m-.9-1.6l.3 1.6m-1-1.5l.3 1.6m-.8-1.6l.3 1.7m-.9-1.7l.3 1.7m-.9-1.6l.2 1.7m-.6-1.8l.2 1.8m-.7-1.8l.3 1.8m-.9-1.9l.3 1.9m-.9-2l.3 1.9m-.7-1.9l.3 1.9m-1-2.1l.2 2.1m-.9-2.2l.3 2.2m-.9-2.3l.2 2.3m-.8-2.4l.2 2.3m-.6-2.4l.1 2.4m-.6-2.5v2.5"/><g stroke-width=".308"><path fill="#F6EBC1" stroke="#DFC96E" d="M115.3 65.9s-2.4 1-4.3.8c-1.9-.1-3.1-.2-3.4-.2-.4 0-1.5-.2-1.5-.2s-.5-.9-.1-1.3 3.1 0 4.7 0c1.2 0 4.5-.8 5-.5.4.3-.4 1.4-.4 1.4zm-.3-1.4V66m-.9-1.4l.3 1.6m-1-1.5l.4 1.6m-1.1-1.5l.5 1.7m-1.1-1.6l.5 1.7m-1.3-1.6l.5 1.7m-1.1-1.6l.2 1.5m-.8-1.5l.2 1.6m-.8-1.7v1.6m-.5-1.5l-.2 1.4m-.4-1.5l-.1 1.5m-.4-1.5l-.2 1.4m-.4-1.5l-.2 1.5m-.3-1.4l-.3 1.4m-.1-1.4l-.3 1.1"/><path fill="#020303" stroke="#000" d="M105.7 66.4c1.2-.6 3.4.3 4.8.4 1.7 0 3.5-.4 5.1-.9-3.3 1.7-6 1.4-9.6.5" opacity=".04"/></g><path fill="#F6EBC1" stroke="#DFC96E" stroke-width=".308" d="M113.6 67.5l7.1 8.3-6.9 4.4-1-1.9 4-2.8-5.5-6.1.8-1.6z"/><path fill="#E8B989" stroke="#DCA572" stroke-width=".308" d="M113.4 81c-3.3-5.7-9.9-3.5-10.8 1.3-.2.9 3.2-1.6 5.3-.9 1.8.6 5 .2 5.8.1.9-.1.2.8 0 0"/><g fill="#F6EBC1" stroke="#DFC96E" stroke-width=".308"><path d="M113.1 82.3l-1.5-3.7.8-1 1.2 3.6z"/><path d="M114 81.8s-.5-2.1-.7-2.4c-.2-.3-.9-1.9-.9-1.9s-.1-.1-.7.4.2 2 .2 2l.8 2.2 1.3-.3zm0-.4l-1.5.5m1.3-1.1l-1.5.6m1.3-1.3l-1.5.7m1.2-1.3l-1.4.7m1.1-1.4l-1.4.8m1-1.5l-1.1.7m.9-1.1l-.8.5"/></g></g></switch></svg>
