<svg xmlns="http://www.w3.org/2000/svg" version="1.0" viewBox="0 0 84 40"><switch><g><path fill="#22235D" stroke="#22235D" d="M81.7 18.4c0 10.2-18.3 18.5-40.8 18.6C18.3 37 0 28.8 0 18.6S18.3.1 40.8 0c22.6-.1 40.9 8.2 40.9 18.4z"/><path fill="#FFF" d="M78.5 17.1c0 7.7-16.8 14-37.5 14-20.6.1-37.4-6.1-37.4-13.8 0-7.7 16.8-14 37.5-14 20.6-.1 37.4 6.1 37.4 13.8z"/><path fill="#EDECEB" d="M74.3 15.9c0 6.9-14.9 12.5-33.2 12.6-18.4 0-33.3-5.5-33.3-12.4S22.7 3.6 41 3.5c18.4 0 33.3 5.5 33.3 12.4z"/><ellipse cx="4.2" cy="25.5" fill="#FFFCF8" rx=".4" ry=".8"/><ellipse cx="2.6" cy="21" fill="#FFFCF8" rx=".4" ry=".8"/><ellipse cx="7.1" cy="26.3" fill="#FFFCF8" rx=".4" ry=".8"/><ellipse cx="14.5" cy="31.1" fill="#FFFCF8" rx=".4" ry=".8"/><ellipse cx="4.3" cy="11" fill="#FFFCF8" rx=".4" ry=".8"/><ellipse cx="1.2" cy="15.4" fill="#FFFCF8" rx=".4" ry=".8"/><ellipse cx="11.5" cy="28.9" fill="#FFFCF8" rx=".4" ry=".8"/><ellipse cx="17.2" cy="30.3" fill="#FFFCF8" rx=".4" ry=".8"/><ellipse cx="20.8" cy="33.3" fill="#FFFCF8" rx=".4" ry=".8"/><ellipse cx="28.7" cy="34.1" fill="#FFFCF8" rx=".4" ry=".8"/><ellipse cx="24.6" cy="31.9" fill="#FFFCF8" rx=".4" ry=".8"/><ellipse cx="12" cy="6.4" fill="#FFFCF8" rx=".4" ry=".8"/><ellipse cx="7.8" cy="8.3" fill="#FFFCF8" rx=".4" ry=".8"/><ellipse cx="16.7" cy="4.9" fill="#FFFCF8" rx=".4" ry=".8"/><ellipse cx="66.6" cy="4.9" fill="#FFFCF8" rx=".4" ry=".8"/><ellipse cx="70.4" cy="6.7" fill="#FFFCF8" rx=".4" ry=".8"/><ellipse cx="72" cy="26.3" fill="#FFFCF8" rx=".4" ry=".8"/><ellipse cx="75.6" cy="10.3" fill="#FFFCF8" rx=".4" ry=".8"/><ellipse cx="64.3" cy="29.6" fill="#FFFCF8" rx=".4" ry=".8"/><ellipse cx="79.8" cy="13.3" fill="#FFFCF8" rx=".4" ry=".8"/><ellipse cx="61.5" cy="33.3" fill="#FFFCF8" rx=".4" ry=".8"/><ellipse cx="79.4" cy="24.7" fill="#FFFCF8" rx=".4" ry=".8"/><ellipse cx="53.5" cy="34.9" fill="#FFFCF8" rx=".4" ry=".8"/><ellipse cx="78.5" cy="19" fill="#FFFCF8" rx=".4" ry=".8"/><ellipse cx="49.5" cy="33.3" fill="#FFFCF8" rx=".4" ry=".8"/><ellipse cx="76" cy="26.2" fill="#FFFCF8" rx=".4" ry=".8"/><ellipse cx="46.1" cy="34.9" fill="#FFFCF8" rx=".4" ry=".8"/><ellipse cx="68.8" cy="30.3" fill="#FFFCF8" rx=".4" ry=".8"/><ellipse cx="38.3" cy="35.6" fill="#FFFCF8" rx=".4" ry=".8"/><ellipse cx="57.7" cy="31.8" fill="#FFFCF8" rx=".4" ry=".8"/><ellipse cx="34.3" cy="32.6" fill="#FFFCF8" rx=".4" ry=".8"/><ellipse cx="42.4" cy="32.6" fill="#FFFCF8" rx=".4" ry=".8"/><path fill="#814427" d="M12.4 8c3.2-.1 7 .3 10.2.8 1.6.2 3.1.8 4.6 1.2 1.7.5 3.5.7 5.1 1.2 3.4 1.1 7 3.2 9.7 5.4.8.7 1.3 1.2 2.4 1.5.9.3 1.7.2 2.6.6 1.9.8 2.7 2.3 4.9 2.5 3.5.4 6.7.8 9.9 2.2 1.8.7 2.7 1.1 4.7.9 1.6-.2 4.2-.6 5-2.1.7-1.3-.3-3-.3-4.4 0-.8.2-1.5.7-2.1.7-.8 1.7-.7 2-2 .6-3.2-5.3-5.1-8.1-6-2.5-.9-4.6-2.1-7.1-2.8-2.4-.7-4.9-1.4-7.4-1.9-2.6-.5-5.1-1.1-7.8-1.2-2.6 0-4.9-.5-7.4-.6-4.9-.1-10.4.7-15 1.9-2.2.5-5.4.7-7.1 2.1-.5.4-.6.9-1.3 1.3-.6.3-1.5 0-1.8.7-.8 1.6 1.9.9 2.6.6"/><path fill="#592312" stroke="#592312" d="M10.7 7.4c-.7 3.1 1.2 5.8 4.6 6.9 1.4.4 3.1.3 4.5.4 2.1.2 2.6-1.5 4.8-1.1 1.6.3 3.2 1.1 4.9 1.4 1.7.3 3.4.4 5 1 3.5 1.3 7.4 4.1 9.8 6.6.6.6 1.3 1 2 1.5.6.5.9 1.3 1.6 1.8 1.3.8 3.8 1.4 5.5 1.5.7.1 1.6-.1 2.3.1.9.2 1.4.7 2.4.8.8.1 1.6.1 2.4.2 1 .2 1.8.8 2.8 1.1 3.6.8 7.1-2.3 8.4-4.7.5-.9 1.5-3.5-.4-2.7-.7.3-.9 1.1-2 1.4-.9.2-1.8.3-2.7.6-1.5.4-2.2.8-3.6.1-1.2-.6-2.1-1.3-3.5-1.8-1.1-.4-2.4-.7-3.5-1-1.2-.2-2.3 0-3.5-.2-2.7-.3-4.6-2.4-7-3.3-1.2-.5-2.4-.6-3.5-1.2-1.3-.8-2.3-1.7-3.2-2.8-1.9-2.2-4-2.4-6.9-3.1-2.4-.6-4.6-1.4-7.1-1.8-2.4-.3-4.6-.7-7-.8-1.2-.1-2.3-.4-3.5-.5-1.2-.1-2.9.6-3.8 0-.3 0-.3.1 0 .2"/><path fill="#4C2603" d="M66.8 24c-.8-.4.4-1.1.5-1.8 0-.6-.8-1.7-1.1-2.3-.7-1.5-.2-2.8-.6-4.3-.2-.6-.7-1.3-.9-1.9-.4-1-.1-1.4-.2-2.4s-1-1.2-1.3-2.1c0-.1.2-2.3.1-2.2 1.1-.6.7 1.2.7 1.4.2.9.9 1.2 1.4 2.1.2.4.2.6.4 1-.1.2-.2.4-.3.7 0 .3.2.5.5.6.2.6 1.1 1.4 1.3 2 .5 1.3-.2 2.9.1 4.2.2.8.9 1.2 1.1 2.1.2.7-.8 1.7 1 1.4.8 1.5-1.7 2.5-2.8 1.4M18 8.2c1.1-.8.8-1.7-.3-2.4-.6-.4-2.4-1.3-3-1.2-.9 1.9-.1.9 1.2 2.1.9.8 0 1.9 2.1 1.5m45.5 15.4c-1.3-.2-.8-1.1-.5-1.8.5-1.1.8-.9.6-2.3-.3-1.7-.7-3.3-1.3-4.9-.6-1.6-1.2-3.2-1.6-4.9-.3-1.5-.9-3.9-2.1-5-1.2 1.1.3 3.6.5 4.8.4 1.7.4 3.6.9 5.3.5 1.6 2.5 3.1 1.7 5-.4.9-1.8 1.5-1.1 2.6.3.4 2 1.2 2.6 1.3M24.7 9.4c-.6-.3-.9-1.2-1.1-1.8-.3-.6-.8-1.3-1-1.9-.3-.8.1-3.8-2.1-2.6-.7.4-.7 1.1-.7 1.8.1 1.2.4.8 1.1 1.7 1.1 1.5.7 2.8 3.5 2.5.1-.2 0-.3-.2-.3m35.2 13.1c-.8-1.3-1.8-3.4-2.1-4.7-.1-.5.2-.8.1-1.3s-.6-.9-.8-1.4c-.4-.9-.4-1.7-.6-2.6-.4-1.7-1.6-3.2-1.9-5-.1-.9.1-1.7-.4-2.6-.6-.9-1.8-1.8-2.5-.5-.6 1.1 1.5 3.8 1.9 5 .6 1.7 1.8 3.5 2 5.3.2 1.6-.3 3.3.2 4.8.3.9 2.3 4.5 3.9 3.2M29 10.3c-.5-.6-.4-1.3-.6-2-.2-1.2-.8-1.2-1.4-2.1-.9-1.3 1-2.9 0-4-.8.3-1.9.2-2.3.8-.4.7.8 2 1 2.7.2.9 0 1.4.6 2.2.3.5.7.3 1 .9.1.3 0 .9 0 1.2.7 0 1.4.2 1.8.8m25.5 10.3c-2.2 0-2.5-3-2.8-4.2-.4-1.8-1.5-3.5-1.7-5.2-.2-1.7.3-3.3-.4-4.9-.3-.7-2-5.3-3.7-4-.8.6 1 4.1 1.2 4.9.4 1.8 1.8 3.3 2.3 5.1.2.8-.2 1.6 0 2.3.2.8.9 1.6 1.1 2.5.4 1.8.4 3.8 3.2 3.6m-20.4-9.4c-.7-.8-.6-1.7-.8-2.6-.3-1-1.2-1.9-1.5-2.9-.2-.8.2-1.8 0-2.6s-1.9-2.2.1-2.2c1.2 0 1.6 1.3 1.7 2.1.1 1.2-.2 1.8.1 3 0 .4.1 1.1.3 1.4 0 .2.1.5.1.7.2.3.8.1 1 .3.6.8.4 2 .1 2.9-.6.1-1-.1-1.3-.6m13.7 7.1c.1-1.7-.6-2.8-1.4-4.3-.7-1.3-.9-3.2-1.1-4.6-.1-.8.2-1.5.3-2.2.1-1.2-.4-1.2-.9-2.3-.7-1.5.4-3.6-2.6-3.3-3.1.3-.5 2.3.2 3.5.9 1.4.9 3.1 1.3 4.6.5 1.5.2 3.1.8 4.6.4 1 .7 3.9 2.4 3.8m-5.4-3c-.3-.6-.2-1-.3-1.6-.2-.7-.9-1.4-1-2-.1-.5.6-1.1.5-1.7 0-.6-.5-1.4-.7-2-.4-1.3-.3-7.5-3.4-6.4-1.6.5 1.7 5.8 2 7.2.2 1.2 0 2.4.3 3.6.1.6.3 1.6 1 1.9.8.4 1.6.3 1.5-.8"/><path fill="#814427" d="M12.5 8.8c.5 1.4 1.4 3.6 1.1 5-1.6 0-3-2-3.3-3.2-.3-1.6.4-3.3 2.5-1.8m7.1 0c-2.5-1.1-.9 2.7-.2 3.3.9.7 4.3 3.3 4.7.8 1.1.1 3.6-.6 4.1.4.9-.3 1.2-.7 2.3-.4 0-.1.1-.3.2-.4.6.1.6.5 1.2.8.5.2 1.1.1 1.6.3 1.1.4 1.5 1.4 2.9 1.4 4.1.1-1.3-3.8-1.4-1.4-.8-.3-.9-1-1.5-1.5-.7-.6-1.4-.6-2.2-.8-.7-.2-1.3-.7-2-.9-.9-.3-1.5-.1-2.4-.2-1.5-.2-2.8-.5-4.3-.6-1.4-.1-3-1.2-4.3-.6"/><path fill="#4C2603" d="M69.7 23c-.6.5-1.5.7-2.3 1-1.5.4-2.8.5-4.2 0-.7-.2-1.4-.5-2.1-.8-.8-.4-1.2-.9-2.2-1.2-1.5-.4-3-.3-4.5-.9-1.4-.5-2.7-.3-4.2-.6-1.8-.3-2.7-1.4-4.1-2.3-1.3-.8-2.9-1.2-4.2-1.9-.8-.4-.9-1-1.6-1.4-.3-.2-.6-.1-.9-.4-.2-.1-.1-.4-.3-.5-.2-.2-.3-.1-.6-.2-.6-.3-1.3-.5-2-.8-.9-.3-1.7-.7-2.6-.9-1.9-.6-3.4-1.3-5.4-1.6-2.1-.3-4-.8-6.1-.9-.9 0-1.8 0-2.7-.2-.5-.1-2.2-.3-2.3-.6 1.1-.2 2.9.2 4.1.3 1.4.2 2.8.3 4.2.7 1.4.4 2.7.7 4.1 1.2 1.2.5 2.2.5 3.5.6.9.1 1 .6 1.6 1 .6.5 1.2.2 1.8.5.4.2.7.6 1.1.9.6.4 1 .6 1.5 1.1.8.8 1.4 1.5 2.6 1.8.5.1 1 .2 1.5.4.6.3.9.9 1.5 1.2 1 .6 1.9.5 2.7 1.5.9 1 1.7 1 3.1 1.4 2.2.6 4.3.8 6.6 1 1.3.1 2 .5 3.2.9 1.2.4 1.9 1.3 3.1 1.7 1.2.4 1.9.1 3-.3 1-.3 2.1-.7 3.1-1 .5-.2 2.1-1.2 1.8-1.8-.4-.9-1.5.8-1.8 1.1z"/><path fill="#2B1402" d="M17.5 8.5c-.2-.3.1-.6 0-.9-.1-.4-.6-.7-.9-1-.5-.5-1.5-1.5-2.2-1.5.9-.7 2 .4 2.6.9.9.8.8 1.3.8 2.3m4.9.6c-.1-.5 0-1-.3-1.4-.4-.5-1-.9-1.4-1.5-.3-.4-.7-.9-.8-1.4 0-.4.3-1.2.4-1.6.4.2.4.8.4 1.2.1.7.3 1 .6 1.6.4.8 1.9 2.1 1.2 3.1m5.2.8c-.1-.6-.1-1.2-.6-1.6-.8-.7-1.3-.7-1.1-1.8.1-.7.1-1.1-.1-1.8-.2-.5-.8-1.6-.5-2.1.8-1.1.4.7.4.9-.1.7.1 1.4.3 2 .2.7.4 1.4.6 2 .3.7.7 1.3.9 2.1m5.5 1.5c.5-.7 0-1.5-.3-2.1-.6-.8-1.1-1.4-1.3-2.4-.1-.8.1-1.6-.2-2.5-.2-.7-1.2-1.7-1-2.4.7.2 1.1 1.6 1.3 2.1.3.8.3 1.6.3 2.4 0 .9.3 1.7.7 2.5.4.7 1.5 1.7.6 2.5m5.5 3.2c-.3-.5-.1-1-.2-1.6-.1-.6-.6-1-.8-1.7-.2-1.1-.1-2.1-.4-3.2-.3-1.1-.3-2.2-.6-3.3-.3-1.1-1-2.3-1.1-3.4 1.4-.2 1.9 5.4 2.2 6.3.3 1.1.6 2.3.6 3.5 0 1 .9 2.5.4 3.5m6.3 3.6c.1-.8.1-1.3-.3-2s-1-1.3-1.2-2.1c-.3-1.3-.1-2.7-.4-4-.2-.7-.2-1.4-.3-2.1-.1-.8-.5-1.3-.8-2-.2-.7 0-1.4-.3-2-.3-.8-.9-1.2-1.6-1.7.7-.7 1.5.7 1.8 1.1.5.8.4 1.4.6 2.2.2.8.6 1.2.6 2s.4 1.5.4 2.3c.2 1.4.6 2.8.7 4.3.1.9.4 1.4.8 2.3.4 1 .2 1.3-.3 2.2m7.4 2.2c-.9-.5-.9-1.3-1.1-2.1-.2-.9-.5-1.6-.9-2.4-.3-.8-.7-1.4-.7-2.2 0-.7.2-1.7 0-2.4-.2-.8-1.1-1.6-1.5-2.3-.4-.7-.7-1.6-.9-2.4-.3-.8-.1-1.5-.1-2.3 0-1-1.2-1.5-1.1-2.4.8.1 1.5 1.1 1.8 1.7.4.8-.1 1.6 0 2.5.1.8.6 1.5 1 2.3.4.8.4 1.6.7 2.4.3.8.5 1.4.5 2.3.1.8.3 1.6.5 2.4.2.8.3 1.6.6 2.4.3.8 1.1 1.6 1 2.5m5.4 1.2c-.3-.9-.3-1.5-.8-2.4-.5-.7-.9-1.6-1-2.4-.1-.8.3-1.7.1-2.4-.2-.8-1-1.7-1.3-2.5-.3-.8-.5-1.7-.7-2.5-.3-.9-.7-1.6-1.1-2.5-.4-.8-.3-1.6-.6-2.4-.3-.6-1.2-1.6.5-1.4 0 .4-.3.2-.3.6 0 .3.2.9.3 1.2.2.8.2 1.7.5 2.4.3.8.9 1.5 1.3 2.3.4.8.5 1.6.7 2.4.2.8.7 1.5.9 2.3.2.8 0 1.6.1 2.4.1 1 .6 1.4 1 2.3.4.8.4 1.6.4 2.4m4.9 2c-2-.9-.5-3.2-.4-4.5.1-1.8-.5-3.2-1.5-4.7-.9-1.6-.4-3-.8-4.7-.2-.8-.9-1.5-1.2-2.3-.3-.8.1-1.6.2-2.4.4.5.3 1.3.3 2 0 .9.4 1.4.8 2.2.3.8.4 1.5.4 2.3 0 1 .6 1.5 1 2.5.6 1.3 1.3 3.2 1.3 4.7.1 1.6-1.8 3.3-.3 4.7m4.9 0c.1-.6.5-1.3.3-2-.1-.7-.8-1.4-1-2.1-.6-1.3-.2-2.8-.6-4.2-.2-.7-.6-1.4-1-2-.4-.8-.1-1.3-.2-2-.2-.8-1.2-1-1.4-1.8-.2-.7.2-1.5.1-2.2.2.6-.2 1.3.1 1.9.3.8 1.3 1.2 1.6 2.1.2.7 0 1.5.3 2.2.3.8 1.1 1.2 1.3 2.1.2 1.4-.4 2.9.2 4.2.3.8 1 1.3 1 2.2 0 .8-.3 1.5-.3 2.2"/></g></switch></svg>
