<svg xmlns="http://www.w3.org/2000/svg" version="1.0" viewBox="0 0 53.7 91.7"><switch><g><path fill="#69A042" stroke="#390" stroke-miterlimit="10" stroke-width=".25" d="M34.8 91.7h-3.6s.8-14.3.7-15.7.2-11.6.3-13.1c.1-1.5-.1-13.8-.1-15.1 0-1.4 0-5.8-.4-7.4s-.2-3.2.5-3.4c.7-.2 2.8 1.1 2.6 1.4-.2.3 1.3-.1 1.3-.1s-1 4.6-.9 5 .1 19.3.1 19.8-.3 5.1-.3 6.9c0 1.8-.3 7.8-.2 9.2.3 1.4 0 12.5 0 12.5zm-6.7-.5s-1.9.6-2.6.5l-.6-.1-1-12s-.2-6.6 0-7.6-.1-4.6-.1-4.6-.5-8.1-.5-9.1-1-2.4-.9-3.1c.1-.6-.6-9.5-.7-10.2-.1-.7-.4-1.7-.4-1.7s3.1-.4 3.4 0c.3.4 1-1.2 1.1-.9.2 1.1-1 2.3-.9 3.5.1 1.2.4 6.6.7 7.5.3.9.1 1.6.1 2.3 0 .7.4 6.8.6 7.1.2.3.1 2.9.3 3.4.2.5 0 3.3.2 4.3s-.2 5.8.2 6.5c.4.7.1 1.9.3 2.3.2.4-.1 5.2.2 5.8.3.5.1 3.4.1 3.8s.5 2.3.5 2.3z"/><path fill="#69A042" stroke="#390" stroke-miterlimit="10" stroke-width=".25" d="M25.6 35.2H30s.2 3.6 0 6.6c-.2 3 .4 6.3.6 7.3.2 1-.4 3.6 0 5.2s-.3 4.9 0 6.2.4 5.3.6 6.6c.2 1.3.7 10.6.7 10.6l-.7 14.1h-2.3c-.1 0-.8-.6-.8-.6s-.1-12.1 0-13c.1-.9-.2-7.8 0-8.6.2-.9.3-4.4 0-5.2-.3-.8.2-5.4 0-6.3-.2-.9-1.5-6.7-1.5-7.9s.1-4.4 0-5.4c-.1-1.1-1.2-8.9-1-9.6z"/><path fill="#B69379" d="M25.6 55.8h-3.1c-.2 0-.4-.2-.4-.4s.2-.4.4-.4h3.1c.2 0 .4.2.4.4-.1.3-.2.4-.4.4zm.9 11.4h-3.1c-.2 0-.4-.2-.4-.4s.2-.4.4-.4h3.1c.2 0 .4.2.4.4s-.2.4-.4.4zm.6 12.7H24c-.2 0-.4-.2-.4-.4s.2-.4.4-.4h3.1c.2 0 .4.2.4.4s-.2.4-.4.4zm3.1-29.5h-3.7c-.2 0-.4-.2-.4-.4s.2-.4.4-.4h3.7c.2 0 .4.2.4.4s-.1.4-.4.4zm1 14.2h-3.7c-.2 0-.4-.2-.4-.4s.2-.4.4-.4h3.7c.2 0 .4.2.4.4s-.2.4-.4.4zm.8 13.2h-3.7c-.2 0-.4-.2-.4-.4s.2-.4.4-.4H32c.2 0 .4.2.4.4-.1.3-.2.4-.4.4zm3.7-26.2H32c-.2 0-.4-.2-.4-.4s.2-.4.4-.4h3.7c.2 0 .4.2.4.4s-.2.4-.4.4zm0 12.5H32c-.2 0-.4-.2-.4-.4s.2-.4.4-.4h3.7c.2 0 .4.2.4.4s-.2.4-.4.4z"/><path fill="#B69379" stroke="#AF5E27" stroke-width=".25" d="M34.6 78.2h-2.7c-.2 0-.4-.2-.4-.4s.2-.4.4-.4h2.7c.2 0 .4.2.4.4-.1.2-.2.4-.4.4z"/><path fill="#69A042" d="M36.2 38.3s1.2-2.7 2.3-3.4c1.2-.7.2-.6 2.3-.6s4.9-.3 6.1-.9 2.1-1.6 3.2-1.7-.5-.6-3.3-.5c-2.8.1-2-.1-4.8 1.1-2.8 1.2-3.4.9-4.6 2.5-1.2 1.6-1.9 3.7-1.9 3.7l.7-.2z"/><path fill="#69A042" stroke="#690" stroke-miterlimit="10" stroke-width=".25" d="M41.6 26.2s2.6-2.4 4.3-2.4 1.9.3 3.6-.4c1.7-.7 4.3-1.5 4.3-1.5s-1.6 1-1.9 1.5c-.3.5-1.8 1.5-3 2.1s-1.7.5-2.9.7c-1.2.2-3.7 1-5.2 2.4-1.5 1.5-2.9 2.7-3.1 3.5-.2.9-.2 2.5-.2 2.5s-2 .6-1.3.7.5-4.9.7-5.2 4.7-3.9 4.7-3.9z"/><path fill="#69A042" d="M21.7 45.1s-3.3-2.6-5.8-2.6c-2.4 0-2.6-.6-3.4 0-.9.6 1.3 1.6 2.9 1.7s2.8-.4 3.6 0 2.8 2.2 2.8 2.6c.1.3-.1-1.7-.1-1.7z"/><path fill="#69A042" stroke="#690" stroke-miterlimit="10" stroke-width=".25" d="M21.7 42.5c0-.2-.3-1.7-.2-2.4.1-.7-.3-4-.1-4.7s0-1.5 0-1.5-1 2.8-1 3.7.3 1.5.2 2.8c-.1 1.3 1.1 3 1.1 3v-.9zM15.5 33s2 2 2.6 2.4 1.2.6 1.4 1.6c.2 1-.2 2.6.4 3.4s.5 1.8.5 1.8-1.8-2.8-2.4-3.8c-.6-1-1.4-.4-1.6-1.5-.3-1-1-3.2-.9-3.9z"/><path fill="#69A042" stroke="#690" stroke-miterlimit="10" stroke-width=".25" d="M10.4 37c.4-.2 1.5.7 2.7.7 1.2 0 0-.8 2.4 0 2.5.8 2.8 1.4 3.2 1.9.4.6 1.1 1.7 1.1 1.7s-2.6-2.1-3.8-2.2-2 .7-2.8 0c-.8-.7-2.8-2.1-2.8-2.1z"/><path fill="#69A042" d="M21.7 45.1c.9-.2 1.4-.5 1.3-1.7-.1-1.2-.9-1.8 0-2.1.9-.3 1.1-.9 1.7-1.7.6-.9.9-2.6.1-1.9-.8.7-1.2.4-1.9 1.5s-.9 1-1 2.2-.2 3.7-.2 3.7zm11.5-8.6c.1-.5-.2-.7.7-1 .8-.3 1.5-.9 1.7-1.5.2-.6 0-1.4.6-1.8.6-.4-.9.3-1.5.5s-.9.7-1.5 1.6c-.6.9-1.6 1.7-1.3 2.2s1.3 0 1.3 0z"/><path fill="#69A042" stroke="#690" stroke-miterlimit="10" stroke-width=".25" d="M39.6 28.1c-.6-1.3-.7-2.9-.1-4.3 1.2-2.9 4.9-4.3 5.7-7.3.3 1.2-.9 2.3-1.1 3.6-.1.4 0 .8 0 1.2-.2 2-2.3 3.3-3.2 5.1-.3.5-.6 1.3-1.3 1.7zm-8.2-1c.1 0 .1.1.2.2 1.1 1.3 1.1 3.1.8 4.8-.4 1.6-1.1 3.2-1.3 4.9 0-.9-.9-1.6-1.4-2.4-.7-1.2-.5-2.7-.2-4.1.2-1.1.5-2.3 1.3-3.1.2-.2.4-.4.6-.3zm4.2-7.9c.8.6 1.2 1.5 1.6 2.4.7 1.9 1.3 3.9 1.4 6 0 .3 0 .5-.1.8-.1.4-.5.7-.9 1-.1.1-.3.2-.5.1-.1 0-.1-.1-.1-.2-1.5-3-.3-6.8-1.4-10.1z"/><path fill="#69A042" stroke="#690" stroke-miterlimit="10" stroke-width=".25" d="M32.2 25.8c1.2-1.5 2.7-2.7 4.4-3.5 1-.5 2.1-.8 3.2-1.2 2.7-1 5.3-2.5 7.5-4.4-2.3-.1-4.3 1.2-6.5 1.8-1 .3-2 .5-2.9.9-1.1.5-2.1 1.4-3 2.3-1.1 1.1-2.3 2.5-2.7 4.1zM27 36.3c.7-.8.5-1.9.4-3-.1-2.1.2-4.3 1.7-5.8.6-.6 1.4-1.1 1.7-1.9.6 2.2.2 4.6-1.1 6.4-.4.6-1 1.1-1.3 1.8-.4.9-.6 2-1.4 2.5zm-1.5 4.3c-.2-.4-.4-.8-.5-1.3-.1-.4-.1-.7-.1-1.1 0-.4 0-.9-.1-1.3-.4-2.3-2.5-4.2-4.8-4.5 0 .3.1.7.2 1 .5 1.3 1 2.7 2.2 3.4.3.2.7.3 1 .6 1.5 1.1 1.1 3.7 2.7 4.6-.2-.6-.4-1-.6-1.4z"/><path fill="#69A042" stroke="#690" stroke-miterlimit="10" stroke-width=".25" d="M25.8 19.9c.3-.5.6-1 1-1.4.7-.6 1.6-.9 2.2-1.5.4-.4.6-1 .8-1.5.6-1.5 1.2-2.9 1.8-4.4-1.1.9-2.5 1.3-3.8 2-1.6.9-2.8 2.4-3.4 4.1-.4 1.6-.4 3.3-.4 4.9 0 2.8 0 5.6.1 8.4-1.3-.6-2.6-1.3-3.9-1.9.6 1.3 1.7 2.4 3 3 .3.1.6.3.8.5.2.2.3.4.4.7.3.7.6 1.4.8 2.2.2.7.6 1.5 1.2 1.4.6-.1.8-.9.8-1.5-.2-2.4-1.6-4.4-2.3-6.7-.8-2.7-.5-5.8.9-8.3zm6.6 3.9c.7-.7.7-1.8.5-2.8-.2-1-.6-2-.3-2.9.4-1.1 1.5-1.8 2.4-2.7 1.2-1.2 1.9-2.9 3.4-3.8L36.6 17c-.2.7-.4 1.3-.7 1.9-.2.5-.6.9-.9 1.4-.5.8-1.1 1.6-1.6 2.4-.3.4-.6.8-1 1.1z"/><path fill="#69A042" stroke="#690" stroke-miterlimit="10" stroke-width=".25" d="M29.7 17c0-1.2.2-2.4-.5-3.4 1.9 3.8 2 8.1 2.8 12.2-.5-.1-1-.5-1.2-.9-.3-.5-.3-1-.4-1.6-.4-2.1-.7-4.2-.7-6.3zm-.2 9.9c-.1.3-.6.3-.6.6-.3-.5-.6-1.1-1-1.5-.3-.3-.6-.6-1-.8-1.4-1.1-2.3-2.8-2.6-4.6.9.8 1.9 1.5 2.9 2.1.9.5 1.9 1.1 2.1 2.1.1.6-.1 1.2.1 1.7 0 .1.1.3.1.4z"/><path fill="#69A042" stroke="#690" stroke-miterlimit="10" stroke-width=".25" d="M31.7 27.1c.4.7.8 1.3 1.2 2 .2.3.4.7.8.8.7.3 1.6-.4 2.4-.2-.5-1.7-2.1-2.8-3.6-3.7-.2-.2-.6-.3-.8-.2-.2.1-.3.4-.2.6s0 .5.2.7zm-7.8 3.2c-1.2-2.8-3.1-5.6-6.1-6.5-2.8-.8-5.9.2-8.5-.9-2-.9-3.5-2.9-5.6-3.2 2-.3 4.1-.6 6.1-.8.9-.1 1.8-.2 2.7 0 .8.2 1.6.6 2.3 1 1.1.6 2.1 1.1 3.2 1.7 1.7.9 3.4 1.9 4.7 3.4s1.9 3.5 1.2 5.3zm3.5-.5c-1.1-1.1-1.7-2.5-1.9-4.1.9.6 1.7 1.3 2.6 1.9.1.1.3.2.3.4 0 .1-.1.2-.1.4-.3.5-.6.9-.9 1.4z"/><path fill="#69A042" stroke="#690" stroke-miterlimit="10" stroke-width=".25" d="M24 26.4c-.5-2.6-2.3-5.1-1.8-7.7.2-1.1.9-2.1 1.3-3.1.6-1.5.7-3.2.8-4.8.1-2.9.1-5.9.1-8.8-2.1 5-4.3 10.4-3.7 15.8-.2-2.1-.5-4.2-.7-6.3-.1-1.2-.3-2.5-.8-3.5-1.5-3.3-5.9-4.6-7.5-8 1.5 1.5.9 4.1 1.4 6.2.7 3.1 3.7 5.1 5.2 7.9-.7-.5-1.5-1.1-2.2-1.6-2.1-1.5-4.4-3.1-7-3.3-1.2-.1-2.4 0-3.5-.2C3.7 8.7 1.9 7.5 0 7.5c.8-.5 2 0 2.6.7.7.7 1.1 1.6 1.8 2.3 1.7 1.6 4.3 1.4 6.5 1.8 3.3.7 6.2 2.9 8.4 5.4.9 1 1.7 2 2.4 3.1 1.2 1.8 1.9 3.6 2.3 5.6z"/><path fill="#F7EB03" d="M33.9 49.9c-.1-.5-.2-.9-.3-1.4 0 .3-.1.6-.1.9-1.4-3.5-1.7-7.6-.7-11.3.8-.5 1.9 0 2.2.8.2.7 0 1.4-.2 2.1-.4 1.6-.6 3.2-.5 4.9 0 1.4.2 2.8-.4 4zm.1 11.9c.4-2.5.3-5-.3-7.4-.1.3-.2.6-.4.9-.4.4-.6.9-.6 1.5 0 .4.1.9.2 1.3.3 1.7-.1 3.6.9 4.9.4-.3.7-.9.7-1.4m-1 3.6l-.3.6c.2-.1 0-.4-.2-.3-.2.1-.2.3-.2.5-.1 3.5-.1 6.9-.1 10.4.4 0 .7-.5.5-.8.1.2.2.4.4.7.5-3.7.6-7.4.5-11.1-.1.4-.1.7-.2 1.1-.1-.4-.2-.7-.4-1.1zm-.1 15l.9-.6c.3 1.1 0 2.3-.2 3.4-.5 2.8-.4 5.8.3 8.5-.7-.3-1.2-.8-1.5-1.5-.6-1.4 0-3 0-4.5 0-2-1.2-4.2 0-5.8l.5.5z" opacity=".19"/><path fill="#69A042" stroke="#690" stroke-miterlimit="10" stroke-width=".25" d="M26.2 40.5s3-3 5.5-3.5 6.2-.2 6.9-.3-.6.8-2.3 1.6c-1.7.7-4.6 1-6.2 1.4s-3.9.8-3.9.8z"/><path fill="#F7EB03" d="M29.1 36.4c.5.7.5 1.7.1 2.4-.3.4-.6.8-.8 1.2-.1.3 0 .7.1 1 .6 2.8.3 5.8-.9 8.5.3-4.2-1.3-8.5 0-12.4.2.2.5.3.7.1.3-.3.6-.5.8-.8zm.5 31.4c-.3-.1-.6 0-.8.3.7.1.8 1.2.6 1.9-.3.7-.7 1.5-.3 2.2.2.3.4.4.6.7.6 1-.6 2.4.1 3.3.3-.2.7-.2.9.1.1-.2.2-.5.4-.7-.2-1.7-.5-3.4-.7-5.1-.1-.4-.1-.7-.3-1 .1-.6.2-1.3.3-1.9l-.6-.6c-.3.2-.6.4-.7.8m-6.5-22.5c.5-.3 1-.6 1.4-.9-.2.2-.4.3-.4.6 0 .2.2.5.4.4-.3.4-.3.9-.3 1.4.1 2.4.2 4.8.2 7.1-.1.3-.4.6-.7.8-.2-.2-.4-.4-.4-.7.2-.2.4-.5.5-.9-.3 0-.5-.4-.5-.7s.2-.6.2-1c.1-.5.1-1.1.1-1.6-.1-1.6-.2-3.2-.2-4.8m1.2 13.4c.2-.3.7-.3 1-.1-.6 1.5-.6 3.2 0 4.7.3.8.7 1.8 0 2.4 0-1.2.3-2.4 1-3.4-.5.2-.8-.5-.8-1.1V59c0-.5-.1-1.1-.4-1.4s-1.1.1-.9.6c.1.7.3 1.3.4 2m.4 10c.1-.3.4-.6.8-.6-.2.4-.5.9-.5 1.3s.2 1 .7 1.1c-.1.3-.2.5-.3.8.3 1.2.5 2.4.7 3.6.1.9.1 2.1-.7 2.6-.5-1.3-.4-2.8.1-4.1-.4-1.8-.4-3.8.1-5.6" opacity=".19"/></g></switch></svg>
