<svg xmlns="http://www.w3.org/2000/svg" version="1.0" viewBox="0 129 220 129"><switch><g><path fill="#6D6D6D" stroke="#333" stroke-width=".25" d="M208.5 219.4s1.2-1.4 1.5-3c.4-1.4 4.9-78.1 4.9-78.1s-19.3 1.7-22.4 1.5-15-1.3-15-1.3-.6 73.3.4 77c1 3.6 7.5 6.2 15.8 6.1 8.3-.1 14.8-2.2 14.8-2.2z" opacity=".06"/><path fill="#FFF" d="M180.5 150.1l2 60.7s-1.2 4.6 5.6 5.4c6.8.7 15 .6 17-1.7s3.6-5.7 3.6-5.7v-60.7s-13.8-1.5-17.4-1c-3.6.6-8 .4-8 .4l-2.8 2.6z"/><ellipse cx="195.5" cy="138.6" fill="#6D6D6D" stroke="#6D6D6D" opacity=".06" rx="18.7" ry="1.5"/><path fill="#BCB792" d="M178.7 149.6l6.2 2.1s-.6 36 0 38c.6 1.9 2.5 17.4 2.5 18.9s2.7 4.2 0 4.8c-2.7.6-3.3-1-3.7-1.8-.4-.8-1.8-38.1-2.1-38.9-.4-1-.6-11.3-.4-12.1.4-1-3.3-5-2.5-6.2.9-1.4 0-4.8 0-4.8zm11.7 6.4s.4 25.2 0 30 .1 19.3.1 19.3l1.4 9.8" opacity=".26"/><path fill="none" stroke="#BCB792" stroke-width="3" d="M187.1 218.2c4.3 1.9 22.6.7 20.8-6.2" opacity=".26"/><path fill="#BCB792" d="M204.6 147.8s5.1 3.1 4.8 6.9c-.5 3.7-2.3 23.7-1.9 28.3.4 4.6 1.2 20.8 0 25-1.2 4-2.1 7.1-5.2 6.9-3.1-.2-9.2 1-10.7 0s-4.3 0-4.3 0c3.7 2.7 2.9 3.9 6.8 3.7s8 .4 10.7-.9 3-2 3.8-4.9c.5-2 1.8-4 1.8-6.4" opacity=".26"/><path fill="none" d="M210.5 146.3s-12.6 5.5-18.1 4.8c-5.6-.7-15.4-3-15.4-3s6.7-4 13.2-4.2c6.5-.2 13.8-.7 15.1 0 1.3.7 4.4 1.4 4.4 1.4l.8 1z"/><path fill="none" stroke="#A7A7A6" stroke-width=".25" d="M209.3 220.2s1.2-1.4 1.5-3c.4-1.4 4.2-78.7 4.2-78.7s-17.6 1.8-20.7 1.7c-3-.1-17.4-1.1-17.4-1.1s.8 73.6 1.9 77.3c1 3.6 7.5 6.2 15.8 6.1 8.3-.2 14.7-2.3 14.7-2.3z"/><path fill="none" stroke="#A7A7A6" stroke-width=".25" d="M215 138.6c0 .8-7 1.2-18.7 1.5-10.4.4-18.7-.7-18.7-1.5s8.3-1.5 18.7-1.5c10.4-.1 18.7.6 18.7 1.5z"/><ellipse cx="193.6" cy="149.3" fill="#CCC" rx="15" ry="1.7"/><path fill="#BCB792" d="M189.5 155.3s.4 25.2 0 30c-.4 4.8.1 19.3.1 19.3l1.4 9.8m12.8-66.8s.4 25.2 0 30 .1 19.3.1 19.3l1.4 9.8" opacity=".26"/><path fill="none" stroke="#BCB792" stroke-width="3" d="M189.6 214.6c2.5.6 6.9 1.1 9.8.2" opacity=".26"/><g stroke-width=".25"><ellipse cx="105.6" cy="230.8" fill="#03BEDD" stroke="#03BEDD" rx="74.4" ry="26.4"/><ellipse cx="105.1" cy="231.5" fill="#FFF" stroke="#FFF" rx="67.7" ry="19.3"/></g><path fill="#F3D13E" stroke="#F3D13E" stroke-width=".25" d="M54.8 221.5c2.1-2.6 5-3.5 7.3-5.7 2.4-2.5 4.2-5.2 6.5-7.7 1.1-1.1 1.8-2.4 3.2-3 1.4-.6 3-1 4.4-1.5 2.6-1.2 4.8-2.7 7.7-3.1 3-.4 6-.4 8.9-.4 4 0 8.5-1.2 12.4.4 2 .8 2.9 2.7 4.6 3.9 2 1.4 4.6 1.8 6.7 3 1.4.8 3.1-.8 4.8-.6 1.5.2 7-4.5 8.7-4.3 3.3.6 2.5 8.9 5.4 10.7 1.3.7 2.6 1.4 3.9 2 2.5 1 5.4 1.2 7.9 1.9 2.3.7 4.5 1.5 6.7 2.7 4.2 2.5 6.4 6.3 2.4 10.2-5.7 5.5-14 4-21.4 4-3.7 0-7.4-.5-11.1 0-3.8.5-7.5 1.8-11.2 2.7-1.7.5-3.5 1-5.1 1.1-2.4.2-4-.7-6.3-1.1-2.7-.5-6-.1-8.8-.2-1.4 0-2.7 0-4-.5-1.3-.5-2.5-1.4-3.9-1.8-1.5-.5-3-.7-4.4-1.3-1.5-.6-2.5-.8-4.2-.8-2.9 0-5.7.1-8.6 0-2.6-.1-5.2-1.1-7.9-1.8-1.3-.4-2.1-.5-3.5-.5-1.8 0-2.7-.5-3-2-.3-1.9.7-4.7 1.9-6.3z"/><path fill="#F3D13E" stroke="#FDDE44" d="M164 230.8c1 0 1.4-.6 1.3-1.5-11-15.5-41.7-12.9-58.5-13.6-14.5-.6-51.4-6.2-52.9 15.1-1.1 15.2 15.1 6.8 22.7 9.9 8.8 3.6 18.7 4.9 28.3 4 4.8-.4 9.5-1.4 14-1.7 4.8-.1 9.3 1.9 14 .4 2.3-.7 3.6-2.6 5.6-3.5 2.9-1.1 5.2-.6 8.1-1.2 5.7-1.3 10.5-4.3 15.2-7.5"/><path fill="#FDDE44" stroke="#B0732A" stroke-width=".25" d="M147 228.3c1.7.6 5.7-1.7 6.8-3 1.8-2 2.6-5.5 4.5-7.1 3.7 1.5-2.1 8.8-3.6 10.1-2 1.8-7.5 4.3-9.9 2 1-.7 2.6-1.2 3.1-2.3m-4.6 9.8c-2.5 6.5 11.2.6 13.2-.5 3-1.5 5.8-3.2 7.7-6.1 1-1.3 1.2-2.4 1.2-3.9.1-2.3-.7-2.1-2-3.8-1 1.8-1.1 3.7-2.4 5.5-1.5 2-3.9 3-6 4.6-2.9 2.3-8.2 5.5-12 4.2"/><path fill="#FDDE44" stroke="#B0732A" stroke-width=".25" d="M147.7 228.3c.7-.4 1.9-.6 2.9-1.2 1.2-.7 2.3-1.5 3.5-2.3 1.2-.7 2.1-1.5 2.7-2.9.5-1.1.2-2.7 1.7-3.1 1.2 3.5-2 7.7-4.6 9.3-1.7 1-3.1 1.9-5 2.4-.7.2-1.8.7-2.5 0-1.2-1.2.4-1.5 1.1-2.3m-5.6-9.9c.1 3-4.5 6.3-7 7.1-1.3.5-3.5.5-4.6-.2-.8-.6-3.2-3-2.6-4.3 1.2-2.4 3.1.7 4 1.3 1.4.8 3.1.5 4.5 0 2.3-1 2.1-2.1 3.3-3.8 1.7-2.4 2.1-.8 2.5 1.1"/><path fill="#FDDE44" stroke="#B0732A" stroke-width=".25" d="M146.7 228.6c-3.7.8-4.5 4.9-4.3 8 0 .7.1 1.5.4 2.1.1.6 1.2 1.9 1.1 2.5-.1.7-1.5 1.2-2.3 1.3-1.3.1-1.2.2-1.9-.8-1.4-2.4-.4-7.1.5-9.4.6-1.4 1.8-3.7 3-4.6 1.2-1 4-1.4 3.7.8m-14.4 10.8c-1.7.6-3 2.6-4.8 3.3-1.5.6-3 .7-4.5.8-1.4 0-3.1.4-4.5.1-1.7-.2-3.3-1.3-4.9-2.1-2 3 .1 3.1 2.5 4.2 2.3 1 3.8 1.4 6.3 1.3 5.1-.2 8.7-3.9 12.9-6.4-1.1 0-3.3 0-3-1.7m9.6-18.7v-.4c2.5 0 2.1 2.9 1.3 4.3-1.1 1.9-3 3-4.9 3.9-3.6 1.8-8.3 2.7-11.2-1-.7-1-3-4.6-.6-5.2 1.4-.4 3.8 3.2 5.1 3.8 3.7 1.4 8.8-2.7 10.1-5.7"/><path fill="#FDDE44" stroke="#B0732A" stroke-width=".25" d="M134.3 216.5c-.1-.1-.1-.2 0-.4 2.5-.1 2.9 4.4 2.4 6.1 1.5-1.5 1.9-2.5 1-4.6-.4-1-3.8-4.6-3.3-1.8m-13.7 9.2c-.1-.4-.2-.5-.5-.2 3.6 1.9 4.2 7.6 4.5 11.2.7-1 2.7-1.9 3.1-3 .2-.8-.8-3.2-1.3-3.9-.6-1.3-1.4-2.9-2.4-3.9-1.5-1.7-2-1.1-3.9-1.1m-3.8 13.4c0-2.7-.7-7.3-3.6-8.7-2.5-1.2-.8 2.4-3.2 1.4-1.5-.6-1.3-3.2.1-3.9.7-.4 3.7-.6 4.5-.2 1.3.6 2.6 3.3 3.3 4.5 1.2 2.1 3.3 7.6-1.1 7"/><path fill="#FDDE44" stroke="#B0732A" stroke-width=".25" d="M122.3 236.3c0-4.3-3.5-8.9-6.7-11.4 3.2-2.3 6.5.4 7.7 3.3 1 2.3 2.5 7.5-.5 8.6m19.5-2.5c3.8 2.4 10.4-1.2 13.3-3.8 2.3-1.9 3.5-3.3 4.4-6.2.4-1 .5-2.6 1.4-2.9 1.4-.2 1.8 1.5 1.8 2.6-.4 5.2-6.2 9.4-10.6 11.7-1.9 1-4.6 2-6.8 2.3-1.3.1-2.5.2-3.3-.8-.7-1-.6-2.7.4-3.3"/><path fill="#FDDE44" stroke="#B0732A" stroke-width=".25" d="M158.5 221.9c-.4-1.7 1.8-3 2.7-1.7.8 1.1-.5 3.7-1 4.6-1.9 3.1-4.6 6.2-7.7 8.1-1.9 1.2-6.7 3.8-8.9 2.1-3-2.1 2.4-8.9 3-4.8 2.5-.5 5.7-1.2 7.9-2.7 2.6-1.9 3.7-4.8 4.9-7.6"/><path fill="#FDDE44" stroke="#B0732A" stroke-width=".25" d="M143.2 226.8c-1.9-2.4-6.4 4.4-6.8 6.3-.4 2-.6 8.1 1.4 9.4 2.3 1.4 1.4-1.9 1.3-2.9-.2-1.7-.2-3 .4-4.5.5-1.5 1.1-3.1 1.8-4.5.8-1.8 2.3-2.7 3.6-4-1-.4-3.1-.6-3.5.6m8.1-13.4c1.5-.1 3.6-1 5.1-.4 1.3.6 3 3.8 2.5 5.4-.7 2.3-3.1-1.3-4.3-2-.8-.5-1.8-1-2.7-1-1 0-2 1-2.4-.6.5-.5 1-.8 1.5-1.1m-5.5 10.3c1.8-.8 8.3-2 7.6 1.9-.4 1.7-2.1 1.3-3.5 1-1.7-.5-2.7-1.4-4.5-1.4-.2-.7 0-1.3.6-1.8m11.8-1.7c-.5-2.1-9.8-6-10.7-2.4-.5 1.8 3.7.7 4.9.8 1 .1 2 .4 2.9 1 1.1.7 1.3 2.1 2.4 2.7.8-.7.8-2.3-.1-3"/><path fill="#FDDE44" stroke="#B0732A" stroke-width=".25" d="M137.3 229.4c-.7 4.2-1.8 8.1-.8 12.4-2 .2-3 0-3.2-2.1-.2-1.5-.4-3.2-.4-4.8 0-1.7-.2-3.6 1.1-5 .8-1 3.8-2.5 5-1.8-.8.7-1.8 1.3-2.1 2.5m-20.7 7.2c1-.4 2.3.2 3.3.1 1.2-.1 2.7-.5 3.8-1 1.8-.8 5.8-6.9 6.7-2.3.8 4.3-11.9 7.7-13.8 4m-4.8-9.2c-1.8 2-10.4 10-13 5.4-.1 1.8 0 2.7 2 3 1.7.2 3.5-.7 5-1.4 2.5-1.2 7.6-3.7 7-7.3-.2 0-.6 0-.8.1"/><path fill="#FDDE44" stroke="#B0732A" stroke-width=".25" d="M114.8 235.2c2.3 2.4-3.6 6.1-5.2 6.9-2.5 1.3-5.4 1.7-8.2 1.8-3 .1-5.5.4-8.1-1.4-1.3-.8-2.6-2.6-3.2-4-.4-.8.2-1.3-.7-1.9-.5-.2-1.7 0-2.1 0 .5 3.7 2 6.8 5 9 2.4 1.8 6.5 1.3 9.4 1.3 3.5 0 6.8-1.3 9.5-3.5 1.4-1.1 7.7-7.5 3.8-8.2m13.5-5.9c0 1.2-.2 2.9.2 3.7.2.4 1.1 1.4 1.4 1.8.5.6.7 1.5 1.3.4.2-.5-.2-3.6-.4-4.2-.4-1.7-1.7-2.6-3.5-2.4"/><path fill="#FDDE44" stroke="#B0732A" stroke-width=".25" d="M133.9 230c-1.8 1.7-.7 6-1 8.2-2.6-1.3-2.3-2.1-2-4.8.2-1.9-.6-4.5 2.4-3.6m-9-5.6c-.2-.1-.4 0-.5.1 0 1.2 1.7 2.9 2.3 3.9.7 1.3 1.9 2.3 2.4 3.7 1-1.7 0-3.2-.8-4.6-.6-1.1-1.9-5.1-3.5-3M97 236.5c3.3 1.7 5.4.7 8.6-.5 1.5-.6 3.1-1.4 4.3-2.5s2-3.3 3.2-4.2c1.5 1.5-.8 5-1.8 6.2-1.7 2.1-3.7 3.7-6.3 4.4-2.7.7-12.1 2.3-11.4-3 1.7.2 2.5-.1 4-.7m3-21c-1.4 2.3-.2 5.2-3 6.8-.8.5-3.5.7-3.8 1.5-.7 1.8 2 1.8 3 1.5 3-.7 4.9-2.6 5.8-5.5.8-2.6.7-6.4-3-4.3m5.2 6.5c3.2-.2 3.8 4 6.3 4 0-.8.7-2.4.6-3.2-.2-.7-2.3-2.4-3-2.9-.8-.5-2.6-1.1-3.6-.7-1.2.5-1.3 1.7-1.2 3"/><path fill="#FDDE44" stroke="#B0732A" stroke-width=".25" d="M102.1 231.4c2.5-1 2.1 1.4 2.5 3 1.1.4 2.5-1.4 2.9-2.4-.7-.8-1.8-2.3-2.7-2.6-1.6-.6-3 .4-2.7 2M93 220.2c2.3 1.4 5.8-3.1 4-4.4-1.3-1-2.3 1.5-3 2-1 .7-3 1.5-.7 2.5m9.9 4.2c1.2-.7 3-.4 4 .6.5.5.1 1.4 1.2 1.7 1 .2 1.7-.5 1.3-1.4-.1-.2-1.4-1.4-1.7-1.7-.6-.6-.8-1-1.7-1.3-1.9-1-2.7-.6-2.9 1.5"/><path fill="#FDDE44" stroke="#B0732A" stroke-width=".25" d="M94.5 220.6c0-.4-.1-.5-.2-.2-.1 2.1 1 2.5 3 1.8 2.1-.8 2.3-2.6 2.6-4.6.1-.8.6-1.5 0-2.3-1.2-1.2-1.3 0-1.8.7s-.5 1.8-1.2 2.5c-.8.8-2.1 1.2-2.6 2.3m3.1 4.7c-2 .5.5 1.5 1.7 1.2 1.5-.5 2.6-1.8 3.5-3.1 1.2-1.8 2.1-5.6 1.3-7.7-1 0-1.7 3.9-2 5-1 2.5-1.9 3.2-4 4.8m4.2 6.7c-.7.2-1.4 1.4-1 2.1.6.8 2.4.1 3.1 0 .1-.8.2-2-.4-2.9-1.2-1.4-2-.4-2.3 1m6.7-3.2c-1.1-1.2-1.9-2.1-3.6-2.4-1.4-.1-3.5 1-1.7 2.4.2.2 1.4 0 1.8.1.7.2 1.4.6 1.9 1.2.4.5.2 1.7 1.1 1.8.8.1 1.5-1 1.4-1.7"/><path fill="#FDDE44" stroke="#B0732A" stroke-width=".25" d="M84.6 230c1 2.3 3.5 4 6 4.4 3.2.5 6.4-1.1 8.3-3.7.5-.7 1.3-3.7 1.8-3.9 1.3-.6 2.1 2 2.1 3-.1 1.8-2.3 3.6-3.6 4.6-2.3 2-6 2.7-8.9 2.5-3.3-.2-6.5-3.1-8-6-.6-1.2-1.3-3.2-1.1-4.5.4-1.4 2.5-3 4-2.9 0 0-1.3 2.1-1.3 2.7 0 1.2.3 2.7.7 3.8zm4.4 14.2c-3.5 1.8-7.3.1-10.2-1.5-1-.6-1.2-.7-2-1.8-.6-.8-1.4-1.4-2-2.1-1.1-1.3-.4-1.1-1.9-.8-1 .1-1.8.2-2.6.2 1 .4 1.9 1.7 2.6 2.4 1.1 1.1 1.9 2.3 2.9 3.3 1.8 1.9 3.9 2.9 6.5 3.2 2.3.4 4.8.4 6.9-.1.8-.2 2.9-.4 2.9-1.5.1-1.7-2.3-.5-2.4-1.9"/><path fill="#FDDE44" stroke="#B0732A" stroke-width=".25" d="M88.6 233.9c1.3-2.1 1.4-7.3.4-9.4-.8-1.5-2.4-2.9-4.2-2.9s-3.1 2-4.9 1.8c-.2-2.3 2.7-3.6 4.5-3.9 3.1-.6 3.8.5 5.4 2.9 2.5 3.9 2.4 7.9 1.3 12.3-.6-.4-1.3-.6-2-.5"/><path fill="#FDDE44" stroke="#B0732A" stroke-width=".25" d="M91.7 234.4c-.7-.6 0-3 0-4-.1-1.5-.4-3.1-.5-4.5-.2-3.9-2.1-6.2-5.8-7.5 1.2-1.7 3.9-1.2 5.5-.2 2 1.3 2.5 3.7 3 5.8.6 2.5.8 10.2-2.5 10.8m-10.6 1c1.9.5 2.6 2.6 4.8 2.9 2.1.2 1.8-1.5 1.5-3.3-1.5-.1-3.7-.5-4.6-1.9-.6.2-1.4 1.3-1.9 1.9m-2.6 1.8c1 2.1 5.8 3.9 8.1 3.9 1.8 0 2.5-.5 3 1.8.5 2.1-.8 2-2.7 2.3-1.5.2-2.7.6-4.3 0-1.8-.6-2.5-2-3.9-3.2-.7-.6-3.7-2.6-3.7-3.7.1-.8 3.5-1.3 4.3-1.4"/><path fill="#FDDE44" stroke="#B0732A" stroke-width=".25" d="M87.5 238.2c-.1 1 .1 1.8.1 2.6-2 0-8.5.1-8.6-3-.1-2.5 2.1-1.9 3.5-1.2 1.4.9 3.2 1.8 5 1.6m-26.7-10.9c-.5.7-.7 1.9-.5 2.6.5 1.5 1.5 1 2.3 1.8 1.3 1.4 1.7 4.5-1.1 4.2-4.8-.7-4.5-10.2-.8-8.1"/><path fill="#FDDE44" stroke="#B0732A" stroke-width=".25" d="M57.5 225c-2.5 1.3-3.8 3.7-3.1 6.7.8 3.5 4 4.3 6.4 6.2 2.5 2 4.6 1.8 7.7 1.5 1.4-.1 2.6-.8 2.9 1 .2 2-1.2 1.7-2.7 1.5-2.4-.1-4.9.2-7.3.1-3.1-.1-5.6-1.7-7.7-3.9-2.4-2.5-2.5-4.6-2.4-7.9.1-3.3 2.7-5.1 5.6-6.4.5.2.7.7.6 1.2m12-12.7c-1.9-1.1-4.2-.2-6.2.1-.7-1.3 1.8-3 2.9-3.1 1.7-.4 3 1.4 3.9 2.6-.5.2-1 .5-1.5.7"/><path fill="#FDDE44" stroke="#B0732A" stroke-width=".25" d="M59.3 217.8c-3-.1-5.6 4.3-4.5 7 3.2-.4.5-7.3 5.1-6.2.2-.6.1-1.2-.1-1.8"/><path fill="#FDDE44" stroke="#B0732A" stroke-width=".25" d="M52.9 225.5c2.6-.4 1.7-3 2.4-4.9 1-2.5 2.9-2.4 5-3.5-.7-3.9-6-.4-7.1 1.7-1.2 2.1-.5 4.4 0 6.7m8.1-4.3c-.5 1.3-.4 3.5 1 4.2 1.5.8 3.6-.8 4.9-1.7.6 3-3.6 4.4-6 3.9-3.1-.7-3.3-5.5-.2-6.5m.8-8.5c2 .1 7.3-1.4 8 1.1-1 .7-3.1.1-4.4.4-1.3.1-3.5 1.2-4.5 0 0-.2.1-.5.5-.5"/><path fill="#FDDE44" stroke="#B0732A" stroke-width=".25" d="M60.7 217c.5 1.1 3.8-.2 5-.4 1.2 0 4.9 2 4.2-.5-.6-2-10.6-3.5-9.2.4M65 220c.4-.1-.4.5.2 1 .6.5 1.7-.2 2.1.1 1.5 1.3-1.5 2.1-2.4 2-1.4-.1-3.3-.6-3.1-2.4.1-1.1 2.4-2.3 3-1.1m48.9 10.7c1 2.4-3 5.5-4.5 6.7-2.3 1.8-4.5 3.3-7.3 3.9-2.6.6-5.2.2-7.4-1.5-1.1-.8-1-2.3-2-2.7-1.5-.7-2.9.1-2.6 1.4.5 2.3 3.6 5.1 5.7 5.7 2.3.6 5.1.4 7.4.1 3.7-.4 13.8-3.5 11.8-8.8.5.1 1 .2 1.4.5.4-1-1.4-4.9-2-5.8-.2.4-.2.8-.2 1.3m-55.9-6.2c-3.1 1.4-4.8 4.3-3.3 7.6 1.3 3.3 4.6 4.6 7.6 6.2 1.2.6 7.7 2.5 8.7.7.7-1.4-2.9-1.9-3.7-2.1-1.8-.6-2.3-2.4-3.9-2.9.1 1.1-1.2 1.5-2.1 1.5-1.4 0-2.4-1-2.9-2.3-.8-2.5-1-5.5 1.8-6.5-.6-.7-1.4-2.7-2.4-2.3"/><path fill="#FDDE44" stroke="#B0732A" stroke-width=".25" d="M62 220.6c-1.2 2.9 3.9 2.9 5.5 2.3-.4 1.5-3 2.9-4.5 2.5-1.7-.4-2.4-2.6-1.8-4.3m55.1 18.1c-.7-1.2-2 .4-2.3 1.2-.5 1.5.2 1.3 1.4 1.9 1.9 1 4 1.5 6.2 1.5 4.2 0 9.6-1.3 11-5.7-1.7-.5-1.3-2-2.5-3-1.5 2.6-3.9 3.9-6.9 4.8-3.1.8-5.4.4-8-1.3"/><path fill="#FDDE44" stroke="#B0732A" stroke-width=".25" d="M111.8 225.8c2.1-.8 3.1-1.3 5.2-.1 2 1.2 3.2 3.2 4.2 5.4.6 1.3 1.5 3.9 1.2 5.5-.2 1.2-.5 1.2-1.8 1.3-1 .1-1.9.2-2.9 0 2.6-.7 1.2-4.8.5-6.3-1.2-2.5-2.1-4.8-5-5.4m37.9.3c1.1.1 4.2-1.3 3.9-2.7-.1-1.1-3.6-2.5-4.6-2.7-1.5-.4-3.5-.4-5-.2-1.4.2-1.2-.4-1.4 1.2-.1.7.1 1.7 0 2.5 1.2-.5 2.5-1.2 3.8-1.1 1.3.1 3.5 1.2 3.2 2.7m-92.2-1.3c-.4-1.1.1-2.1.7-3 .8-1 1.8-.5 2.5-1.2 1.4-1.3-.6-5.4-2.3-3.2-.2.4.2 1.2-.1 1.4-.5.5-.8-.1-1.4.1-1.1.6-1.4.7-1.9 2.1-.4 1.3.1 5.1 2.1 3.6"/><g fill="#FDDE44" stroke="#B0732A" stroke-width=".25"><path d="M73.3 218.3c-4.5-.2-3.8 10.2-3.1 12.9-1.7-1.3-2-.8-2.4-3.1-.2-1.5-.4-2.9 0-4.5.2-1.5 1-3.2 1.8-4.6.7-1.2 3.5-3 3.5-.4m5.4 1.4c-3.1 2.7-2.5 7-2.9 10.7-5.1.8-1.2-17.6 3.2-11.3-.4.6-.8 1.1-1.1 1.8"/><path d="M64.8 228c-.4 5.4 4.9 6.5 9.2 6.3 2-.1 4.2-.7 6-1.5.8-.4 2.6-1.5 2.5.6-.1 1.1-2 2.5-2.9 3-3.2 1.8-9 2-12.3.5-2.1-1-4-3-4.8-5.4-.2-.7-.1-2.5.4-3.2 1.3-1.5 1.7.4 2.6 1.1"/><path d="M73.3 218.4c-4.3 0-5.5 13.5-2.6 13.8 1.2.1 2.6-1.7 2.9-2.6.2-1.2-.1-2.6 0-3.9.4-2.5 1.1-5.6 3-7.5-.7-.6-3 0-3.8.6"/><path d="M64.3 227.6c1.3-.5 1.8-1.7 3-2.3 1.2 1.5 0 3.5 1.4 5.1 1.8 1.9 3.2 2.1 4.9-.2 1.4.5 3.2.6 4.8.8 1.2.1 3.7-.1 4.4.7-2.3 2.1-7.4 2.1-10.2 2.3-3.1.1-8.3-2.1-8-6"/></g><path fill="#FDDE44" stroke="#B0732A" stroke-width=".25" d="M85.1 224.4c-1.5-.2-1 4.6-.6 5.7.8 2.4 3.7 3.9 6.1 4.3 2.6.4 4.6-.5 6.7-2.1 1.7-1.3 4.2-4.2 3.6-6.5-2.9 2.6-6.2 5.4-10.4 5.7-2.3.2-3.7-1.1-4.3-3.3-.5-1.9.7-3.6.4-5.4-1.1-.1-1.8 1.8-2.4 2.6"/><path fill="#FDDE44" stroke="#B0732A" stroke-width=".25" d="M86.7 223.1c0 1.8-1 3.7-.7 5.4.4 1.9 2.6 3.5 4.5 3.2 2.9-.2 10-2.7 9.5-6.4-1.3-.4-3.7 1.8-4.9 2.3-1.4.7-3.3 1.9-5.1 1.9-2.4 0-2.1-1.5-2.1-3.5 0-.7.2-1.9 0-2.5-.4-.7-1.3-1.7-1.7-.5m59.2-4.1c2.9 0 9.9-1 9.8 3.5 4.6-6-12.1-10.6-11-1.2.1-1.2.8-2 2-2.3"/><path fill="#FDDE44" stroke="#B0732A" stroke-width=".25" d="M125.7 224.8c-2.5 6.5 11.2.6 13.2-.5 3-1.5 5.8-3.2 7.7-6.1 1-1.3 1.2-2.4 1.2-3.9.1-2.3-.7-2.1-2-3.8-1 1.8-1.1 3.7-2.4 5.5-1.5 2-3.9 3-6 4.6-2.9 2.3-8.2 5.5-12 4.2"/><path fill="#FDDE44" stroke="#B0732A" stroke-width=".25" d="M124.6 221.2c3.8 2.4 10.4-1.2 13.3-3.8 2.3-1.9 3.5-3.3 4.4-6.2.4-1 .5-2.6 1.4-2.9 1.4-.2 1.8 1.5 1.8 2.6-.4 5.2-6.2 9.4-10.6 11.7-1.9 1-4.6 2-6.8 2.3-1.3.1-2.5.2-3.3-.8-.7-1-.6-2.7.4-3.3"/><path fill="#FDDE44" stroke="#B0732A" stroke-width=".25" d="M140.8 208.7c-.4-1.7 1.8-3 2.7-1.7.8 1.1-.5 3.7-1 4.6-1.9 3.1-4.6 6.2-7.7 8.1-1.9 1.2-6.7 3.8-8.9 2.1-3-2.1 2.4-8.9 3-4.8 2.5-.5 5.7-1.2 7.9-2.7 2.6-1.9 3.7-4.8 4.9-7.6"/><path fill="#FDDE44" stroke="#B0732A" stroke-width=".25" d="M133.5 213.3c1.1.1 4.2-1.3 3.9-2.7-.1-1.1-3.6-2.5-4.6-2.7-1.5-.4-3.5-.4-5-.2-1.4.2-1.2-.4-1.4 1.2-.1.7.1 1.7 0 2.5 1.2-.5 2.5-1.2 3.8-1.1s3.5 1.2 3.2 2.7"/><g fill="#FDDE44" stroke="#B0732A" stroke-width=".25"><path d="M122.1 223.1c-2.5 6.5 11.2.6 13.2-.5 3-1.5 5.8-3.2 7.7-6.1 1-1.3 1.2-2.4 1.2-3.9.1-2.3-.7-2.1-2-3.8-1 1.8-1.1 3.7-2.4 5.5-1.5 2-3.9 3-6 4.6-2.9 2.3-8.2 5.5-12 4.2m4.7-9.7c.7-.4 1.9-.6 2.9-1.2 1.2-.7 2.3-1.5 3.5-2.3 1.2-.7 2.1-1.5 2.7-2.9.5-1.1.2-2.7 1.7-3.1 1.2 3.5-2 7.7-4.6 9.3-1.7 1-3.1 1.9-5 2.4-.7.2-1.8.7-2.5 0-1.2-1.2.4-1.5 1.1-2.3"/><path d="M121.1 219.5c3.8 2.4 10.4-1.2 13.3-3.8 2.3-1.9 3.5-3.3 4.4-6.2.4-1 .5-2.6 1.4-2.9 1.4-.2 1.8 1.5 1.8 2.6-.4 5.2-6.2 9.4-10.6 11.7-1.9 1-4.6 2-6.8 2.3-1.3.1-2.5.2-3.3-.8-.7-1-.6-2.7.4-3.3"/><path d="M137.3 207c-.4-1.7 1.8-3 2.7-1.7.8 1.1-.5 3.7-1 4.6-1.9 3.1-4.6 6.2-7.7 8.1-1.9 1.2-6.7 3.8-8.9 2.1-3-2.1 2.4-8.9 3-4.8 2.5-.5 5.7-1.2 7.9-2.7 2.6-1.9 3.7-4.8 4.9-7.6m-9.9-6c1.5-.1 3.6-1 5.1-.4 1.3.6 3 3.8 2.5 5.4-.7 2.3-3.1-1.3-4.3-2-.8-.5-1.8-1-2.7-1-1 0-2 1-2.4-.6.5-.5 1-.8 1.5-1.1"/><path d="M122.5 209.5c1.8-.8 8.3-2 7.6 1.9-.4 1.7-2.1 1.3-3.5 1-1.7-.5-2.7-1.4-4.5-1.4-.2-.7 0-1.3.6-1.8"/><path d="M129.9 211.7c1.1.1 4.2-1.3 3.9-2.7-.1-1.1-3.6-2.5-4.6-2.7-1.5-.4-3.5-.4-5-.2-1.4.2-1.2-.4-1.4 1.2-.1.7.1 1.7 0 2.5 1.2-.5 2.5-1.2 3.8-1.1 1.3.1 3.5 1.2 3.2 2.7"/><path d="M124.2 204.2c2.9 0 9.9-1 9.8 3.5 4.6-6-12.1-10.6-11-1.2.1-1.2.8-2 2-2.3"/></g><g fill="#FDDE44" stroke="#B0732A" stroke-width=".25"><path d="M82.5 213.1c-4.5-.2-3.8 10.2-3.1 12.9-1.7-1.3-2-.8-2.4-3.1-.2-1.5-.4-2.9 0-4.5.2-1.5 1-3.2 1.8-4.6.7-1.2 3.5-3 3.5-.4m5.4 1.3c-3.1 2.7-2.5 7-2.9 10.7-5.1.8-1.2-17.6 3.2-11.3-.4.6-.8 1.1-1.1 1.8"/><path d="M74 222.7c-.4 5.4 4.9 6.5 9.2 6.3 2-.1 4.2-.7 6-1.5.8-.4 2.6-1.5 2.5.6-.1 1.1-2 2.5-2.9 3-3.2 1.8-9 2-12.3.5-2.1-1-4-3-4.8-5.4-.2-.7-.1-2.5.4-3.2 1.3-1.5 1.7.4 2.6 1.1"/><path d="M82.5 213.2c-4.3-.1-5.4 13.5-2.6 13.7 1.2.1 2.6-1.7 2.9-2.6.2-1.2-.1-2.6 0-3.9.4-2.5 1.1-5.6 3-7.5-.7-.6-3 0-3.8.6"/><path d="M73.6 222.4c1.3-.5 1.8-1.7 3-2.3 1.2 1.5 0 3.5 1.4 5.1 1.8 1.9 3.1 2.1 4.9-.2 1.4.5 3.2.6 4.8.8 1.2.1 3.7-.1 4.4.7-2.3 2.1-7.4 2.1-10.2 2.3-3.1.1-8.3-2.1-8-6"/></g><g fill="#FDDE44" stroke="#B0732A" stroke-width=".25"><path d="M72.1 205.2c-4.5-.2-3.8 10.2-3.1 12.9-1.7-1.3-2-.8-2.4-3.1-.2-1.5-.4-2.9 0-4.5.2-1.5 1-3.2 1.8-4.6.7-1.2 3.5-3 3.5-.4m5.5 1.3c-3.1 2.7-2.5 7-2.9 10.7-5.1.8-1.2-17.6 3.2-11.3-.4.6-.8 1.1-1.1 1.8"/><path d="M63.7 214.8c-.4 5.4 4.9 6.5 9.2 6.3 2-.1 4.2-.7 6-1.5.8-.4 2.6-1.5 2.5.6-.1 1.1-2 2.5-2.9 3-3.2 1.8-9 2-12.3.5-2.1-1-4-3-4.8-5.4-.2-.7-.1-2.5.4-3.2 1.3-1.5 1.7.4 2.6 1.1"/><path d="M72.1 205.3c-4.3-.1-5.4 13.5-2.6 13.7 1.2.1 2.6-1.7 2.9-2.6.2-1.2-.1-2.6 0-3.9.4-2.5 1.1-5.6 3-7.5-.7-.6-3 0-3.8.6"/><path d="M63.1 214.4c1.3-.5 1.8-1.7 3-2.3 1.2 1.5 0 3.5 1.4 5.1 1.8 1.9 3.1 2.1 4.9-.2 1.4.5 3.2.6 4.8.8 1.2.1 3.7-.1 4.4.7-2.3 2.1-7.4 2.1-10.2 2.3-3.1.1-8.3-2.1-8-6"/></g><g fill="#FDDE44" stroke="#B0732A" stroke-width=".25"><path d="M105.8 228.1c-2.5 6.5 11.2.6 13.2-.5 3-1.5 5.8-3.2 7.7-6.1 1-1.3 1.2-2.4 1.2-3.9.1-2.3-.7-2.1-2-3.8-1 1.8-1.1 3.7-2.4 5.5-1.5 2-3.9 3-6 4.6-2.9 2.3-8.2 5.5-12 4.2m4.7-9.7c.7-.4 1.9-.6 2.9-1.2 1.2-.7 2.3-1.5 3.5-2.3 1.2-.7 2.1-1.5 2.7-2.9.5-1.1.2-2.7 1.7-3.1 1.2 3.5-2 7.7-4.6 9.3-1.7 1-3.1 1.9-5 2.4-.7.2-1.8.7-2.5 0-1.2-1.2.4-1.5 1.1-2.3"/><path d="M104.8 224.4c3.8 2.4 10.4-1.2 13.3-3.8 2.3-1.9 3.5-3.3 4.4-6.2.4-1 .5-2.6 1.4-2.9 1.4-.2 1.8 1.5 1.8 2.6-.4 5.2-6.2 9.4-10.6 11.7-1.9 1-4.6 2-6.8 2.3-1.3.1-2.5.2-3.3-.8-.7-1-.6-2.7.4-3.3"/><path d="M121 212c-.4-1.7 1.8-3 2.7-1.7.8 1.1-.5 3.7-1 4.6-1.9 3.1-4.6 6.2-7.7 8.1-1.9 1.2-6.7 3.8-8.9 2.1-3-2.1 2.4-8.9 3-4.8 2.5-.5 5.7-1.2 7.9-2.7 2.6-1.9 3.7-4.8 4.9-7.6m-9.9-6.1c1.5-.1 3.6-1 5.1-.4 1.3.6 3 3.8 2.5 5.4-.7 2.3-3.1-1.3-4.3-2-.8-.5-1.8-1-2.7-1s-2 1-2.4-.6c.5-.5 1-.8 1.5-1.1"/><path d="M106.2 214.5c1.8-.8 8.3-2 7.6 1.9-.4 1.7-2.1 1.3-3.5 1-1.7-.5-2.7-1.4-4.5-1.4-.2-.7 0-1.3.6-1.8"/><path d="M113.5 216.7c1.1.1 4.2-1.3 3.9-2.7-.1-1.1-3.6-2.5-4.6-2.7-1.5-.4-3.5-.4-5-.2-1.4.2-1.2-.4-1.4 1.2-.1.7.1 1.7 0 2.5 1.2-.5 2.5-1.2 3.8-1.1s3.5 1.2 3.2 2.7"/><path d="M107.9 209c2.9 0 9.9-1 9.8 3.5 4.6-6-12.1-10.6-11-1.2.1-1.2.8-2 2-2.3"/></g><g fill="#FDDE44" stroke="#B0732A" stroke-width=".25"><path d="M83.8 218.2c-5.5 4.4 9.3 6.2 11.7 6.3 3.3.1 6.7.1 9.8-1.3 1.4-.7 2.1-1.4 3-2.7 1.2-1.9.5-2.3.1-4.3-1.8 1.1-2.7 2.7-4.9 3.5-2.4 1-4.9.6-7.5 1-3.6.5-9.9.5-12.5-2.5m9-6.1c.8 0 1.9.5 3.1.5 1.4-.1 2.7-.1 4.2-.1 1.4 0 2.6-.1 3.8-1.1 1-.7 1.7-2.3 3-1.9-.7 3.6-5.6 5.6-8.7 5.6-1.9 0-3.7.1-5.5-.5-.7-.2-1.9-.4-2.1-1.3-.4-1.5 1.1-1.1 2.1-1.3"/><path d="M84.8 214.5c2.1 3.9 9.5 4.3 13.5 3.6 3-.5 4.6-1.2 6.9-3.1.7-.6 1.8-2 2.6-1.7 1.3.5.8 2.3.2 3.1-3 4.3-10.1 5-15 4.6-2.1-.1-5-.6-6.9-1.5-1.2-.6-2.4-1.1-2.5-2.4-.1-1.1.8-2.6 2-2.6"/><path d="M105 212c.6-1.5 3-1.7 3.2 0 .1 1.3-2.3 3-3.2 3.5-3.2 1.7-7.1 3-10.8 3.1-2.3 0-7.6-.1-8.8-2.6-1.5-3.3 6.5-6.5 5-2.6 2.4.8 5.5 1.9 8.1 1.7 3.2-.4 5.6-2.3 8.1-4m-5.2-10.5c1.4.6 3.6 1 4.5 2.3.8 1.2.6 4.8-.6 5.8-1.8 1.5-2-2.7-2.7-3.9-.5-.8-1.1-1.7-1.9-2.3-.8-.5-2.1-.2-1.7-1.7.6-.1 1.3-.2 1.9-.1"/><path d="M91 206.7c1.9.1 8.2 2.5 5.6 5.5-1.2 1.3-2.5.1-3.5-1-1.2-1.3-1.5-2.6-3.2-3.6.1-.7.7-1.1 1.4-1.2"/><path d="M96.2 212.3c.8.7 4.3 1.1 4.8-.4.4-1.1-1.8-4-2.6-4.8-1.2-1.1-2.9-2.1-4.3-2.7-1.3-.6-.8-.8-1.8.2-.5.6-.7 1.5-1.2 2.1 1.2.2 2.7.4 3.8 1.1 1.1.7 2.4 2.7 1.4 4"/><path d="M95.2 202.8c2.4 1.4 8.9 4.3 6.7 7.9 7-2.9-5-15.2-8.8-6.5.7-1 1.8-1.3 3-.8"/></g><g fill="#FDDE44" stroke="#B0732A" stroke-width=".25"><path d="M123.1 202.5c-4.5-.2-3.8 10.2-3.1 12.9-1.7-1.3-2-.8-2.4-3.1-.2-1.5-.4-2.9 0-4.5.2-1.5 1-3.2 1.8-4.6.7-1.2 3.5-3 3.5-.4m5.4 1.2c-3.1 2.7-2.5 7-2.9 10.7-5.1.8-1.2-17.6 3.2-11.3-.4.6-.8 1.1-1.1 1.8"/><path d="M114.6 212c-.4 5.4 4.9 6.5 9.2 6.3 2-.1 4.2-.7 6-1.5.8-.4 2.6-1.5 2.5.6-.1 1.1-2 2.5-2.9 3-3.2 1.8-9 2-12.3.5-2.1-1-4-3-4.8-5.4-.2-.7-.1-2.5.4-3.1 1.3-1.5 1.7.4 2.6 1.1"/><path d="M123.1 202.6c-4.3-.1-5.4 13.5-2.6 13.7 1.2.1 2.6-1.7 2.9-2.6.2-1.2-.1-2.6 0-3.9.4-2.5 1.1-5.6 3-7.5-.7-.6-3 0-3.8.6"/><path d="M114.2 211.7c1.3-.5 1.8-1.7 3-2.3 1.2 1.5 0 3.5 1.4 5.1 1.8 1.9 3.2 2.1 4.9-.2 1.4.5 3.2.6 4.8.8 1.2.1 3.7-.1 4.4.7-2.3 2.1-7.4 2.1-10.2 2.3-3.1.1-8.3-2.1-8-6"/></g><g fill="#FDDE44" stroke="#B0732A" stroke-width=".25"><path d="M107.5 202c-4.5-.2-3.8 10.2-3.1 12.9-1.7-1.3-2-.8-2.4-3.1-.2-1.5-.4-2.9 0-4.5.2-1.5 1-3.2 1.8-4.6.7-1.2 3.5-3 3.5-.4m5.4 1.4c-3.1 2.7-2.5 7-2.9 10.7-5.1.8-1.2-17.6 3.2-11.3-.4.6-.8 1.1-1.1 1.8"/><path d="M98.9 211.7c-.4 5.4 4.9 6.5 9.2 6.3 2-.1 4.2-.7 6-1.5.8-.4 2.6-1.5 2.5.6-.1 1.1-2 2.5-2.9 3-3.2 1.8-9 2-12.3.5-2.1-1-4-3-4.8-5.4-.2-.7-.1-2.5.4-3.1 1.3-1.5 1.7.4 2.6 1.1"/><path d="M107.5 202.3c-4.3-.1-5.4 13.5-2.6 13.7 1.2.1 2.6-1.7 2.9-2.6.2-1.2-.1-2.6 0-3.9.4-2.5 1.1-5.6 3-7.5-.7-.6-3 0-3.8.6"/><path d="M98.5 211.3c1.3-.5 1.8-1.7 3-2.3 1.2 1.5 0 3.5 1.4 5.1 1.8 1.9 3.2 2.1 4.9-.2 1.4.5 3.2.6 4.8.8 1.2.1 3.7-.1 4.4.7-2.3 2.1-7.4 2.1-10.2 2.3-3.1.1-8.3-2.1-8-6"/></g><g fill="#FDDE44" stroke="#B0732A" stroke-width=".25"><path d="M68.6 212.4c-5.5 4.4 9.3 6.2 11.7 6.3 3.3.1 6.7.1 9.8-1.3 1.4-.7 2.1-1.4 3-2.7 1.2-1.9.5-2.3.1-4.3-1.8 1.1-2.7 2.7-4.9 3.5-2.4 1-4.9.6-7.5 1-3.6.5-9.9.5-12.5-2.5m9-6.1c.8 0 1.9.5 3.1.5 1.4-.1 2.7-.1 4.2-.1 1.4 0 2.6-.1 3.8-1.1 1-.7 1.7-2.3 3-1.9-.7 3.6-5.6 5.6-8.7 5.6-1.9 0-3.7.1-5.5-.5-.7-.2-1.9-.4-2.1-1.3-.4-1.5 1.1-1.1 2.1-1.3"/><path d="M69.5 208.7c2.1 3.9 9.5 4.3 13.5 3.6 3-.5 4.6-1.2 6.9-3.1.7-.6 1.8-2 2.6-1.7 1.3.5.8 2.3.2 3.1-3 4.3-10.1 5-15 4.6-2.1-.1-5-.6-6.9-1.5-1.2-.6-2.4-1.1-2.5-2.4-.1-1.1.8-2.6 2-2.6"/><path d="M89.8 206.2c.6-1.5 3-1.7 3.2 0 .1 1.3-2.3 3-3.2 3.5-3.2 1.7-7.1 3-10.8 3.1-2.3 0-7.6-.1-8.8-2.6-1.5-3.3 6.5-6.5 5-2.6 2.4.8 5.5 1.9 8.1 1.7 3.2-.4 5.6-2.3 8.1-4m-5.2-10.5c1.4.6 3.6 1 4.5 2.3.8 1.2.6 4.8-.6 5.8-1.8 1.5-2-2.7-2.7-3.9-.5-.8-1.1-1.7-1.9-2.3-.8-.5-2.1-.2-1.7-1.7.6-.1 1.3-.2 1.9-.1"/><path d="M75.7 200.8c1.9.1 8.2 2.5 5.6 5.5-1.2 1.3-2.5.1-3.5-1-1.2-1.3-1.5-2.6-3.2-3.6.1-.7.7-1.1 1.4-1.2"/><path d="M81 206.4c.8.7 4.3 1.1 4.8-.4.4-1.1-1.8-4-2.6-4.8-1.2-1.1-2.9-2.1-4.3-2.7-1.3-.6-.8-.8-1.8.2-.5.6-.7 1.5-1.2 2.1 1.2.2 2.7.4 3.8 1.1 1.1.7 2.4 2.7 1.4 4"/><path d="M80 197c2.4 1.4 8.9 4.3 6.7 7.9 7-2.9-5-15.2-8.8-6.5.7-1 1.8-1.3 3-.8"/></g><g fill="#FDDE44" stroke="#B0732A" stroke-width=".25"><path d="M88.1 210.2c-5.5 4.4 9.3 6.2 11.7 6.3 3.3.1 6.7.1 9.8-1.3 1.4-.7 2.1-1.4 3-2.7 1.2-1.9.5-2.3.1-4.3-1.8 1.1-2.7 2.7-4.9 3.5-2.4 1-4.9.6-7.5 1-3.6.5-9.9.5-12.5-2.5m9-5.9c.8 0 1.9.5 3.1.5 1.4-.1 2.7-.1 4.2-.1 1.4 0 2.6-.1 3.8-1.1 1-.7 1.7-2.3 3-1.9-.7 3.6-5.6 5.6-8.7 5.6-1.9 0-3.7.1-5.5-.5-.7-.2-1.9-.4-2.1-1.3-.4-1.5 1.1-1.1 2.1-1.3"/><path d="M88.9 206.5c2.1 3.9 9.5 4.3 13.5 3.6 3-.5 4.6-1.2 6.9-3.1.7-.6 1.8-2 2.6-1.7 1.3.5.8 2.3.2 3.1-3 4.3-10.1 5-15 4.6-2.1-.1-5-.6-6.9-1.5-1.2-.6-2.4-1.1-2.5-2.4-.1-1.1.8-2.6 2-2.6"/><path d="M109.3 204.2c.6-1.5 3-1.7 3.2 0 .1 1.3-2.3 3-3.2 3.5-3.2 1.7-7.1 3-10.8 3.1-2.3 0-7.6-.1-8.8-2.6-1.5-3.3 6.5-6.5 5-2.6 2.4.8 5.5 1.9 8.1 1.7 3.2-.4 5.6-2.3 8.1-4m-5.3-10.7c1.4.6 3.6 1 4.5 2.3.8 1.2.6 4.8-.6 5.8-1.8 1.5-2-2.7-2.7-3.9-.5-.8-1.1-1.7-1.9-2.3-.8-.5-2.1-.2-1.7-1.7.6-.1 1.3-.2 1.9-.1"/><path d="M95.2 198.8c1.9.1 8.2 2.5 5.6 5.5-1.2 1.3-2.5.1-3.5-1-1.2-1.3-1.5-2.6-3.2-3.6.1-.7.7-1.1 1.4-1.2"/><path d="M100.5 204.3c.8.7 4.3 1.1 4.8-.4.4-1.1-1.8-4-2.6-4.8-1.2-1.1-2.9-2.1-4.3-2.7-1.3-.6-.8-.8-1.8.2-.5.6-.7 1.5-1.2 2.1 1.2.2 2.7.4 3.8 1.1 1.1.7 2.4 2.7 1.4 4"/><path d="M99.5 195c2.4 1.4 8.9 4.3 6.7 7.9 7-2.9-5-15.2-8.8-6.5.7-1 1.8-1.3 3-.8"/></g><path fill="#FDDE44" stroke="#B0732A" stroke-width=".25" d="M77.9 198c-.2 0-.4 0-.4.2.7.7 1.9.8 2.7 1.3 1 .6 1.5 1.4 2.4 2.1 1.9 1.7 2.7 2.3 3.1 4.9 3.5 1.2.2-6.1-.8-7.1s-3-2.3-4.3-2.6c-1.1-.2-4.3.4-2.6 1.9"/><path fill="#FDDE44" stroke="#B0732A" stroke-width=".25" d="M94 203.6c-1.1-.2-1.5.5-2.5.6-1.2.2-1.9.1-3 .7-2.1 1.1-3.3 1.9-5.8 1.9-1.9.1-3.9.2-5.7-.6-1.1-.5-1.9-1.3-3.1-1.7-1.4-.5-1.8-.1-3.1 0 .2-.8 2.1-2 3.1-2.1 1.9-.2 1.3.8 2.7 2 1.9 1.7 5.1 1.3 7.4.8 2.5-.5 5-2.3 7.1-3.6.7-.5 2.5-2 3.5-1.4 1.8 1.1-.7 2.4-1.1 3.5m3.6-6.9c1.4 0 3.8 2.1 4.8 3.2 1.4 1.4 1.8 3.1 2 5 1.5.6 2.9-1.8 2.9-3.1 0-1.7-1.2-2.9-2.4-3.9-1.1-1.1-2.6-2.4-4.2-2.7-1.1-.4-4.8.5-3 1.9m15.7 12c-.4-.1-.4-.2-.2-.4 1.1 0 2.9.2 3.2 1.4.4 1.4-1.8 2-3 1.7-.1-1.1 0-2-.2-3.1m14.6-2.9c1.9.7 5.6 2 6 4.3 2.6-1.3 1-3.6-.7-5-2.1-1.9-4.2-1.2-5 .6"/><path fill="#FDDE44" stroke="#B0732A" stroke-width=".25" d="M93.1 200.3c1.5.6 1.9 0 3.1 1.4 1 1.1 1.9 2 2.1 3.5-2.1 1.8-2.3-.7-3.5-1.8-.7-.6-4-2-1.3-3.1"/><path fill="#F06032" d="M73.7 202.8c-5.6.1-10.5 9.6-5.2 13.6 4.6 3.5 12.1-5.4 16.9-5.2 7.5.1 8 9.2 15.4 9 6.1-.1 8.5-7.1 15.1-7.3 6 0 10.4 5.8 16.9 4.4 2.7-.6 13.8-7.7 13.1-11.9-.1-.7-14.6-11.1-15.2-11.1-3.2-.4-6.5 4.2-9.8 5-2.6.7-6.7-.1-9.3-.4.7-2.1-1.9-2.4-2.3-5.7-4.4-1.2-5.5-1.2-9.4 0-6.2 1.9-2.5 3.2-8.7 1.9-3.9-.8-5.1-4.8-10.2-3-1.8.6-5.5 8.5-6.7 9.8"/><path d="M75.5 203.7c1.7-2.5 4.8-9.3 8.1-9.8 1.3-.2 3.9 1.2 5 1.9 1.9 1.1 3 1.7 5.4 1.8 3.9.1 6.7-.6 10.1-2.4 1.3-.6 3.3-1.7 4.9-1.2 3.3 1.1 0 2.7.2 4.5.5 2.9 2.5.2 2.9-1.1.4-1.5-2.4-1.9-3.1-3.5-.8-1.9-1.3-1.9-3.2-1.4-1.7.5-1.4-.5-3 .2-3 1.3-6.8 3-10.2 2.9-3.6-.2-6.9-4.2-10.4-4-3.7.1-6.3 8.6-8.5 11.2-1.5 1.9-3.5 1.8-5.1 3.8-1.1 1.3-2.4 4.4-2 6.1 2.4.7 3.3-3.5 4.3-4.9 1.2-1.9 3.9-3.7 5.8-4.9m-2.8 13.9c5.7-5.1 13.9-8.3 19-1.1 2.3 3.2 5.2 4.8 9.2 4.3 4.5-.6 6.1-5.2 10.1-6.4-1.4-2.3-3.5 1.8-4.5 2.7-1.4 1.3-3.8 2.6-5.8 3-4.9 1-7.4-3.5-10.5-6.3-3.2-3-7.3-3.8-11.1-1.9-3.6 1.8-7 6.5-11.2 5.5 1.7-.2 3.3.4 5 .4m48-16.1c2.4 0 4.5-2.6 6.7-3.6 3.1-1.2 4.3.1 6.3 2.4 1.8 2 3.8 3.6 6.3 4.8 1.1.5 2.7.8 2.7 2.3.1 1.3-2 2.7-2.9 3.6-3.2 3-8.9 5-13.3 5-4.5 0-8.9-4.4-13.5-2.5 1.2 1.1 5.2 1.3 7 1.8 2.5.8 4.5 2.7 7.3 3.1 5.1.7 11.3-3.7 14.5-7.3 2.4-2.6 2.1-4.6-.5-6.9-2.1-1.9-4.6-3.9-7-5.5-1.7-1.1-5.2-3.7-7.3-3.2-3 .7-4.5 3.9-6.5 5.7" opacity=".12"/><path fill="#FFF" d="M75.8 209.3c5.2-1 10.6-4.9 16.3-1.4 6.4 3.9 5.5 12.3 14 5.5 6.5-5 8.3-5.1 16.2-2.6 4.9 1.5 14.9 4 14.2-4-.2-2.3-3-7.4-5.5-7.6-2.3-.2-6.2 3.6-9.3 3.9-6.1.8-11.7-.7-17.1-2.5-5.5-1.8-11.8-3.3-17.6-2.1-4 .8-14 8-14.6 11.9 1.3.8 2.7.8 4 0" opacity=".16"/><ellipse cx="124.2" cy="200.1" fill="#B07245" stroke="#925225" stroke-width=".25" rx="2.1" ry="2"/><path fill="#532F12" d="M124.4 201.8c.2-.1.5-.2.6-.4-.2-.2 0-.6.1-.8.1.1.2.1.4.2.2-.2 0-.5-.2-.5.1 0 .2-.2.4-.2-.2-.4-.6-.7-.8-1.1 1.6.2 1.1 2.7-.5 2.8" opacity=".35"/><path fill="none" d="M123.1 198.4c.4 0 .8-.1 1.1.4-.1.1-.2.4-.4.5.7 0 1.4.7.5.8.1.2.4.4.4.6h-.7c0 .1.1.1.1.2-.4.4-1.5-.1-1.7-.5.1-.4.3-1.7.7-2"/><path fill="#FFF" d="M124.2 198.9c.4-.2.7-.2 1 .1-.1 0-.4.2-.5.4.2 0 .6.2.7.5 0 .1 0 .1-.1.2-.2 0-.5 0-.8-.1 0 .2.6.4.8.6-.2 0-.4.1-.6.1-.1.4-.2.6.1.8-.2.1-.5.1-.6.1-.2-.1-.5 0-.6.1-.2-.4-1.1-1.1-1.1-1.5 0-.4.6-1.1 1-1.4.2-.2.7-.2.7.1" opacity=".13"/><path fill="#532F12" d="M124.6 198.4c-1-.5-2.5.2-2.6 1.3-.1 1.1.7 1.9 1.8 2.1-.1.1-.1.1-.2.1-1 .2-1.8-1.5-1.5-2.3.2-.7 2-2.6 2.5-1.2" opacity=".35"/><path fill="#532F12" d="M124 198.8c-.1-.5-1.2.2-1.4.6-.4.5.1 1.3.5 1.9-1.1 0-1-1.3-.6-1.9.6-1.3 1.5-.6 2.6-.6-.2.2-.7.1-1.1.1" opacity=".35"/><path fill="#532F12" d="M123.2 200.1c-.1-.4.2-.6.5-.2-.1 0-.2.1-.4.1.2.1.2.2-.1.1m.8 1.7c.8.4 1.4-.7 1.5-1.3.2-1.3-.4-1.3-1.1-2.1.5 0 .7.5 1.1.7.5.5.5.5.5 1.1-.1 1.2-.7 1.7-1.9 2" opacity=".35"/><ellipse cx="72.9" cy="210.3" fill="#673B1C" rx="2.1" ry="2"/><path fill="#532F12" d="M73.2 212.1c.2-.1.4-.2.6-.4-.2-.2 0-.6.1-.8.1.1.2.1.4.2.2-.2 0-.5-.2-.5.1 0 .2-.2.4-.2-.2-.4-.6-.7-.8-1.1 1.7.2.9 2.7-.5 2.8" opacity=".35"/><path fill="none" d="M71.9 208.8c.4 0 .8-.1 1.1.4-.1.1-.2.4-.4.5.7 0 1.4.7.5.8.1.2.4.4.4.6h-.6c0 .1.1.1.1.2-.4.4-1.5-.1-1.7-.5-.1-.5.1-1.8.6-2"/><path fill="#FFF" d="M72.9 209.3c.4-.2.7-.2 1 .1-.1 0-.4.2-.5.4.2 0 .6.2.7.5 0 .1 0 .1-.1.2-.2 0-.5 0-.8-.1 0 .2.6.4.8.6-.2 0-.4.1-.6.1-.1.4-.2.6.1.8-.2.1-.5.1-.6.1-.2-.1-.5 0-.6.1-.2-.4-1.1-1.1-1.1-1.5 0-.4.6-1.1 1-1.4.3-.3.7-.3.7.1" opacity=".13"/><path fill="#532F12" d="M73.3 208.8c-1-.5-2.5.2-2.6 1.3-.1 1.1.7 1.9 1.8 2.1-.1.1-.1.1-.2.1-1 .2-1.8-1.5-1.5-2.3.2-.7 2-2.6 2.5-1.2" opacity=".35"/><path fill="#532F12" d="M72.9 209.2c-.1-.5-1.2.2-1.4.6-.4.5.1 1.3.5 1.9-1.1 0-1-1.3-.6-1.9.6-1.3 1.5-.6 2.6-.6-.2.2-.7.1-1.1.1" opacity=".35"/><path fill="#532F12" d="M72 210.5c-.1-.4.2-.6.5-.2-.1 0-.2.1-.4.1 0 .1 0 .2-.1.1m.9 1.6c.8.4 1.4-.7 1.5-1.3.2-1.3-.4-1.3-1.1-2.1.5 0 .7.5 1.1.7.5.5.5.5.5 1.1-.1 1.2-.7 1.7-1.9 2" opacity=".35"/><ellipse cx="110.8" cy="207.8" fill="#B07245" stroke="#925225" stroke-width=".25" rx="2.1" ry="2"/><path fill="#532F12" d="M111.1 209.5c.2-.1.5-.2.6-.4-.2-.2 0-.6.1-.8.1.1.2.1.4.2.2-.2 0-.5-.2-.5.1 0 .2-.2.4-.2-.2-.4-.6-.7-.8-1.1 1.6.2 1 2.7-.5 2.8" opacity=".35"/><path fill="none" d="M109.8 206.3c.4 0 .8-.1 1.1.4-.1.1-.2.4-.4.5.7 0 1.4.7.5.8.1.2.4.4.4.6h-.6c0 .1.1.1.1.2-.4.4-1.5-.1-1.7-.5-.2-.5.1-1.9.6-2"/><path fill="#FFF" d="M110.8 206.8c.4-.2.7-.2 1 .1-.1 0-.4.2-.5.4.2 0 .6.2.7.5 0 .1 0 .1-.1.2-.2 0-.5 0-.8-.1 0 .2.6.4.8.6-.2 0-.4.1-.6.1-.1.4-.2.6.1.8-.2.1-.5.1-.6.1-.2-.1-.5 0-.6.1-.2-.4-1.1-1.1-1.1-1.5 0-.4.6-1.1 1-1.4.3-.4.6-.4.7.1" opacity=".13"/><path fill="#532F12" d="M111.3 206.3c-1-.5-2.5.2-2.6 1.3-.1 1.1.7 1.9 1.8 2.1-.1.1-.1.1-.2.1-1 .2-1.8-1.5-1.5-2.3.2-.7 2-2.5 2.5-1.2" opacity=".35"/><path fill="#532F12" d="M110.7 206.5c-.1-.5-1.2.2-1.4.6-.4.5.1 1.3.5 1.9-1.1 0-1-1.3-.6-1.9.6-1.3 1.5-.6 2.6-.6-.2.2-.7.1-1.1.1" opacity=".35"/><path fill="#532F12" d="M109.9 207.8c-.1-.4.2-.6.5-.2-.1 0-.2.1-.4.1.1.3.1.4-.1.1m.8 1.8c.8.4 1.4-.7 1.5-1.3.2-1.3-.4-1.3-1.1-2.1.5 0 .7.5 1.1.7.5.5.5.5.5 1.1-.1 1.2-.7 1.7-1.9 2" opacity=".35"/><ellipse cx="138.1" cy="208.1" fill="#B07245" stroke="#925225" stroke-width=".25" rx="2.1" ry="2"/><path fill="#532F12" d="M138.3 209.8c.2-.1.4-.2.6-.4-.2-.2 0-.6.1-.8.1.1.2.1.4.2.2-.2 0-.5-.2-.5.1 0 .2-.2.4-.2-.2-.4-.7-.7-.8-1.1 1.8.3 1.1 2.6-.5 2.8" opacity=".35"/><path fill="none" d="M137.1 206.5c.4 0 .8-.1 1.1.4-.1.1-.2.4-.4.5.7 0 1.4.7.5.8.1.2.4.4.4.6h-.6c0 .1.1.1.1.2-.4.4-1.5-.1-1.7-.5-.1-.4.2-1.7.6-2"/><path fill="#FFF" d="M138.1 207c.4-.2.7-.2 1 .1-.1 0-.4.2-.5.4.2 0 .6.2.7.5 0 .1 0 .1-.1.2-.2 0-.5 0-.8-.1 0 .2.6.4.8.6-.2 0-.4.1-.6.1-.1.4-.2.6.1.8-.2.1-.5.1-.6.1-.2-.1-.5 0-.6.1-.2-.4-1.1-1.1-1.1-1.5 0-.4.6-1.1 1-1.4.3-.2.7-.2.7.1" opacity=".13"/><path fill="#532F12" d="M138.6 206.5c-1-.5-2.5.2-2.6 1.3-.1 1.1.7 1.9 1.8 2.1-.1.1-.1.1-.2.1-1 .2-1.8-1.5-1.5-2.3.2-.7 2-2.6 2.5-1.2" opacity=".35"/><path fill="#532F12" d="M138.1 206.9c-.1-.5-1.2.2-1.4.6-.4.5.1 1.3.5 1.9-1.1 0-1-1.3-.6-1.9.6-1.3 1.5-.6 2.6-.6-.2.2-.7.1-1.1.1" opacity=".35"/><path fill="#532F12" d="M137.3 208.2c-.1-.4.2-.6.5-.2-.1 0-.2.1-.4.1 0 .1 0 .2-.1.1m.8 1.7c.8.4 1.4-.7 1.5-1.3.2-1.3-.4-1.3-1.1-2.1.5 0 .7.5 1.1.7.5.5.5.5.5 1.1-.1 1.2-.7 1.7-1.9 2" opacity=".35"/><ellipse cx="109.3" cy="198.3" fill="#B07245" stroke="#925225" stroke-width=".25" rx="2.1" ry="2"/><path fill="#532F12" d="M109.5 200c.2-.1.5-.2.6-.4-.2-.2 0-.6.1-.8.1.1.2.1.4.2.2-.2 0-.5-.2-.5.1 0 .2-.2.4-.2-.2-.4-.6-.7-.8-1.1 1.7.2 1.1 2.7-.5 2.8" opacity=".35"/><path fill="none" d="M108.2 196.8c.4 0 .8-.1 1.1.4-.1.1-.2.4-.4.5.7 0 1.4.7.5.8.1.2.4.4.4.6h-.6c0 .1.1.1.1.2-.4.4-1.5-.1-1.7-.5-.1-.5.1-1.8.6-2"/><path fill="#FFF" d="M109.3 197.3c.4-.2.7-.2 1 .1-.1 0-.4.2-.5.4.2 0 .6.2.7.5 0 .1 0 .1-.1.2-.2 0-.5 0-.8-.1 0 .2.6.4.8.6-.2 0-.4.1-.6.1-.1.4-.2.6.1.8-.1-.1-.4 0-.5 0-.2-.1-.5 0-.6.1-.2-.4-1.1-1.1-1.1-1.5 0-.4.6-1.1 1-1.4.1-.3.5-.2.6.2" opacity=".13"/><path fill="#532F12" d="M109.8 196.8c-1-.5-2.5.2-2.6 1.3-.1 1.1.7 1.9 1.8 2.1-.1.1-.1.1-.2.1-1 .2-1.8-1.5-1.5-2.3.2-.7 2-2.6 2.5-1.2" opacity=".35"/><path fill="#532F12" d="M109.2 197.1c-.1-.5-1.2.2-1.4.6-.4.5.1 1.3.5 1.9-1.1 0-1-1.3-.6-1.9.6-1.3 1.5-.6 2.6-.6-.2.2-.7.1-1.1.1" opacity=".35"/><path fill="#532F12" d="M108.3 198.4c-.1-.4.2-.6.5-.2-.1 0-.2.1-.4.1.2.1.2.3-.1.1m.9 1.7c.8.4 1.4-.7 1.5-1.3.2-1.3-.4-1.3-1.1-2.1.5 0 .7.5 1.1.7.5.5.5.5.5 1.1-.1 1.2-.7 1.7-1.9 2" opacity=".35"/><ellipse cx="89.8" cy="202.6" fill="#B07245" stroke="#925225" stroke-width=".25" rx="2.1" ry="2"/><path fill="#532F12" d="M90 204.3c.2-.1.4-.2.6-.4-.2-.2 0-.6.1-.8.1.1.2.1.4.2.2-.2 0-.5-.2-.5.1 0 .2-.2.4-.2-.2-.4-.6-.7-.8-1.1 1.6.2 1 2.7-.5 2.8" opacity=".35"/><path fill="none" d="M88.7 201.1c.4 0 .8-.1 1.1.4-.1.1-.2.4-.4.5.7 0 1.4.7.5.8.1.2.4.4.4.6h-.6c0 .1.1.1.1.2-.4.4-1.5-.1-1.7-.5-.1-.5.1-1.9.6-2"/><path fill="#FFF" d="M89.8 201.5c.4-.2.7-.2 1 .1-.1 0-.4.2-.5.4.2 0 .6.2.7.5 0 .1 0 .1-.1.2-.2 0-.5 0-.8-.1 0 .2.6.4.8.6-.2 0-.4.1-.6.1-.1.4-.2.6.1.8-.2.1-.5.1-.6.1-.2-.1-.5 0-.6.1-.2-.4-1.1-1.1-1.1-1.5 0-.4.6-1.1 1-1.4.2-.3.5-.3.7.1" opacity=".13"/><path fill="#532F12" d="M90.1 201.1c-1-.5-2.5.2-2.6 1.3-.1 1.1.7 1.9 1.8 2.1-.1.1-.1.1-.2.1-1 .2-1.8-1.5-1.5-2.3.2-.7 2-2.6 2.5-1.2" opacity=".35"/><path fill="#532F12" d="M89.6 201.3c-.1-.5-1.2.2-1.4.6-.4.5.1 1.3.5 1.9-1.1 0-1-1.3-.6-1.9.6-1.3 1.5-.6 2.6-.6-.2.2-.7.1-1.1.1" opacity=".35"/><path fill="#532F12" d="M88.8 202.6c-.1-.4.2-.6.5-.2-.1 0-.2.1-.4.1 0 .2.1.3-.1.1m.8 1.8c.8.4 1.4-.7 1.5-1.3.2-1.3-.4-1.3-1.1-2.1.5 0 .7.5 1.1.7.5.5.5.5.5 1.1-.1 1.2-.7 1.7-1.9 2" opacity=".35"/><path fill="#F06032" d="M70 213.3c.6-1.7 2.5-.8 3.6-1.5.8-.6.6-1.2 1.7-1.4.7-.2 1.3 0 2-.4.2 1.8-2.1 2.1-3.3 2.9-.7.4-1.3 1-2.1 1-.7 0-1.3-.5-2.1-.4m21-8.7c.5-1.7 1.5-4.2-1-4-.7 0-1.9.4-2.3 1.1-.4.8 0 2.5 1 2.4 0 .2 1.3.1 1.2.4 1 .4-.1-.7.6-.1-.4.6-.4 1.4-1.2 1.4-1 0-1.2-1.2-1.5-1.7-.5-.7-1-.5-1-1.7 0-.8.5-1.7 1.2-2 1.2-.6 3.3-.7 4 .5 1 1.7.1 3.1-1 4.3-.2 0-.2-.2-.2-.5"/><path fill="#FFF" d="M109.2 206.9c-1.8 0 .4 3.5 2.1 3.1 2.3-.5 1.5-3.9-.5-4.2 1.4-1.3 2 0 2.4 1.2.5 1.4.4 2.7-1.2 3.7-1.2.7-2.6-.2-3.6-1-1.4-1.1-1.2-1.8.1-2.7" opacity=".16"/><path fill="#F06032" d="M122.4 200.3c-1 0-.7.7-.2 1.2.2.2 1.5.4 1.9.4.6 0 1.3-.4 1.7-1 .4-.6 0-1.4.6-2 2.3.7-.5 3-1.2 3.5s-.8 1.2-1.9.7c-.8-.4-.7-1.2-2-.8-.9-1.1 0-1.8 1.1-2m-15.7-1.9c-.4 1.9 3.7 1.7 4.5.6 2.4 1.3.4 1.5-1.3 1.8-.6.1-1.5.4-2.1.2-.7-.1-1.7-1-2.4-1.2.1-.8.7-2.5 1.8-1.9-.1.2-.2.6-.5.8m29.1 10.2c.4.8.8.7 1.5 1 1.1.4.8.4 1.7-.4.6-.5 1.1-.6 1-1.4 0-.7-.6-.8-.5-1.5-.6 0-1.3.2-2 0 .7-2.3 5.5 1.3 3 3.3-.5.5-2.5 1.9-3 1.9-1 0-2-1.7-1.9-2.5"/><ellipse cx="125.8" cy="209" fill="#673B1C" rx="2.1" ry="2"/><path fill="#532F12" d="M126.1 210.7c.2-.1.4-.2.6-.4-.2-.2 0-.6.1-.8.1.1.2.1.4.2.2-.2 0-.5-.2-.5.1 0 .2-.2.4-.2-.2-.4-.6-.7-.8-1.1 1.6.2 1 2.7-.5 2.8" opacity=".35"/><path fill="none" d="M124.9 207.5c.4 0 .8-.1 1.1.4-.1.1-.2.4-.4.5.7 0 1.4.7.5.8.1.2.4.4.4.6h-.6c0 .1.1.1.1.2-.4.4-1.5-.1-1.7-.5-.1-.6.1-1.9.6-2"/><path fill="#FFF" d="M125.8 207.8c.4-.2.7-.2 1 .1-.1 0-.4.2-.5.4.2 0 .6.2.7.5 0 .1 0 .1-.1.2-.2 0-.5 0-.8-.1 0 .2.6.4.8.6-.2 0-.4.1-.6.1-.1.4-.1.6.1.8-.2.1-.5.1-.6.1-.2-.1-.5 0-.6.1-.2-.4-1.1-1.1-1.1-1.5 0-.4.6-1.1 1-1.4.4-.2.7-.2.7.1" opacity=".13"/><path fill="#532F12" d="M126.3 207.5c-1-.5-2.5.2-2.6 1.3-.1 1.1.7 1.9 1.8 2.1-.1.1-.1.1-.2.1-1 .2-1.8-1.5-1.5-2.3.2-.7 2-2.6 2.5-1.2" opacity=".35"/><path fill="#532F12" d="M125.8 207.7c-.1-.5-1.2.2-1.4.6-.4.5.1 1.3.5 1.9-1.1 0-1-1.3-.6-1.9.6-1.3 1.5-.6 2.6-.6-.2.2-.7.1-1.1.1" opacity=".35"/><path fill="#532F12" d="M124.9 209c-.1-.4.2-.6.5-.2-.1 0-.2.1-.4.1.1.3.1.4-.1.1m.9 1.8c.8.4 1.4-.7 1.5-1.3.2-1.3-.4-1.3-1.1-2.1.5 0 .7.5 1.1.7.5.5.5.5.5 1.1-.1 1.2-.7 1.7-1.9 2" opacity=".35"/><path fill="#F06032" d="M122.9 211.9c.6-1.7 2.5-.8 3.6-1.5.8-.6.6-1.2 1.7-1.4.7-.2 1.3 0 2-.4.2 1.8-2.1 2.1-3.3 2.9-.7.4-1.3 1-2.1 1-.7 0-1.3-.5-2.1-.4"/><ellipse cx="97.9" cy="209.9" fill="#673B1C" rx="2.1" ry="2"/><path fill="#532F12" d="M98.1 211.5c.2-.1.5-.2.6-.4-.2-.2 0-.6.1-.8.1.1.2.1.4.2.2-.2 0-.5-.2-.5.1 0 .2-.2.4-.2-.2-.4-.6-.7-.8-1.1 1.6.2 1 2.7-.5 2.8" opacity=".35"/><path fill="none" d="M96.8 208.3c.4 0 .8-.1 1.1.4-.1.1-.2.4-.4.5.7 0 1.4.7.5.8.1.2.4.4.4.6h-.6c0 .1.1.1.1.2-.4.4-1.5-.1-1.7-.5-.1-.4.2-1.7.6-2"/><path fill="#FFF" d="M97.9 208.8c.4-.2.7-.2 1 .1-.1 0-.4.2-.5.4.2 0 .6.2.7.5 0 .1 0 .1-.1.2-.2 0-.5 0-.8-.1 0 .2.6.4.8.6-.2 0-.4.1-.6.1-.1.4-.1.6.1.8-.2.1-.5.1-.6.1-.2-.1-.5 0-.6.1-.2-.4-1.1-1.1-1.1-1.5 0-.4.6-1.1 1-1.4.2-.3.7-.3.7.1" opacity=".13"/><path fill="#532F12" d="M98.3 208.3c-1-.5-2.5.2-2.6 1.3-.1 1.1.7 1.9 1.8 2.1h-.2c-1 .2-1.8-1.5-1.5-2.3s2-2.6 2.5-1.2" opacity=".35"/><path fill="#532F12" d="M97.7 208.7c-.1-.5-1.2.2-1.4.6-.4.5.1 1.3.5 1.9-1.1 0-1-1.3-.6-1.9.6-1.3 1.5-.6 2.6-.6-.2.2-.7.1-1.1.1" opacity=".35"/><path fill="#532F12" d="M96.9 210c-.1-.4.2-.6.5-.2-.1 0-.2.1-.4.1.1.1.1.2-.1.1m.8 1.7c.8.4 1.4-.7 1.5-1.3.2-1.3-.4-1.3-1.1-2.1.5 0 .7.5 1.1.7.5.5.5.5.5 1.1-.1 1.2-.7 1.7-1.9 2" opacity=".35"/><path fill="#F06032" d="M94.9 212.8c.6-1.7 2.5-.8 3.6-1.5.8-.6.6-1.2 1.7-1.4.7-.2 1.3 0 2-.4.2 1.8-2.1 2.1-3.3 2.9-.7.4-1.3 1-2.1 1-.7 0-1.3-.5-2.1-.4"/><path fill="#F06032" stroke="#F06032" d="M144.2 209.4c1.2 2-5.4 7-7 7.9-1.4.8-3.1 1.8-4.8 2.1-1.5.4-3.2 0-4.9.2-3.6.4-6.4-1.5-9.9-1.9-3.5-.5-6.9 2.1-9.8 3.9-2.7 1.7-6.1 2.7-9.3 1.5-1.4-.6-3.5-1.2-4.8-2.1-1.8-1.2-2.7-3.1-4.2-4.4-1.2-1.2-3-1.7-4.6-1.8-1.4-.1-3.5-.8-4.8-.6-2.5.6-5.2 3.1-6.9 5-.8 1-1.2 2.7-2 3.3-1.1.8-3 .4-4-.1-1.9-.7-3.2-2.3-3.8-4.3-1.1-3.6.4-7.6 3.6-9.5-1.2 1.2-1 2.9-.5 4.4.6 2.4 1.5 2.6 3.8 2.6 3.5.1 6.8-1.4 10-2.9 3.7-1.7 6.1-2.5 9.9-.5 2 1.1 2.5 1.8 3.8 3.6 1.1 1.5 3.2 3 5 3.5 4 1.3 6.7-2.1 10.1-3.8 3.3-1.7 6.4-3.7 10.4-3 3.7.6 6.1 3.1 9.8 3.5 3.2.2 7 0 9.6-2 1.8-1.3 3.8-3 4.8-5"/><path fill="#99999A" d="M125.4 200c-2.1-1.3-9.3-6.2-8.6-8.7 1-3.9 10.7-2.9 8.1-8.6-1.5-3.3-6.8-5.2-3.9-8.2.5-.5 2.6-.7 3.2-1.4 1.1-1.2-.2-1.8.1-2.9.7-1.7.7-2.7 4-3.6 0-1.5-3.1-2.1-5.1-3 3.1.6 7.1.1 9.3 1.4-1.5 1.5-4.2 2.5-5.7 3.9-2.3 2-.4 3.2-1.3 5-.8 1.5-4.6 2.1-4.5 3.8 0 1 3.3 3.2 4.2 4.2 3.3 4.4-2.3 4.8-5 8.3-2.6 3.5 6.8 6.7 2.5 9.9" opacity=".17"/><path fill="#99999A" stroke="#E2E0DF" stroke-width=".25" d="M100.7 197.6c-2.3-.5-10-2.4-9.8-4.3.4-3 10.1-4.3 6.5-7.7-2-2-7.4-2.3-5.1-5 .4-.5 2.5-1.1 3-1.7.8-1.1-.6-1.2-.4-2 .5-1.3.2-2.1 3.3-3.3-.2-1.1-3.3-.8-5.5-1.1 3.1-.2 7-1.4 9.4-1-1.3 1.4-3.7 2.6-5 3.9-1.9 1.9.1 2.4-.5 3.8-.6 1.3-4.2 2.5-3.9 3.6.1.7 3.8 1.5 4.6 2 3.9 2.4-1.5 3.8-3.6 6.9-2 3 7.6 3.3 3.9 6.4" opacity=".17"/><path fill="#99999A" d="M111.7 205.5c-2.1-2.4-9.3-11.2-8.6-15.8 1-7.3 10.7-5.2 8.1-15.7-1.5-6.1-6.8-9.5-3.9-15 .5-1 2.6-1.4 3.2-2.6 1.1-2.1-.2-3.3.1-5.1.7-3.1.7-5.1 4-6.5 0-2.7-3.1-3.9-5.1-5.5 3.1 1.1 7.1.4 9.3 2.6-1.5 2.7-4.2 4.5-5.7 7.1-2.3 3.7-.4 6-1.3 9.2-.8 2.9-4.6 3.9-4.5 6.9 0 1.8 3.3 5.8 4.2 7.6 3.3 8.1-2.3 8.8-5 15.2-2.6 6.3 6.8 12.3 2.5 18.1" opacity=".17"/><path fill="#99999A" stroke="#E2E0DF" stroke-width=".25" d="M95.2 163.2c-2.3-.5-10-2.4-9.8-4.3.4-3 10.1-4.3 6.5-7.7-2-2-7.4-2.3-5.1-5 .4-.5 2.5-1.1 3-1.7.8-1.1-.6-1.2-.4-2 .5-1.3.2-2.1 3.3-3.3-.2-1.1-3.3-.8-5.5-1.1 3.3-.1 7.3-1.3 9.5-.8-1.3 1.4-3.7 2.6-5 3.9-1.9 1.9.1 2.4-.5 3.8-.6 1.3-4.2 2.5-3.9 3.6.1.7 3.8 1.5 4.6 2 3.9 2.4-1.5 3.8-3.6 6.9-2 3 7.6 3.3 3.9 6.4" opacity=".17"/><path fill="#5A3A19" d="M4.8 150.7l20.4-20.3h32.9l20.4 20.3v32.8l-20.4 20h-33l-20.3-20v-32.8z"/><path fill="#D0D1CD" stroke="#020202" stroke-width=".25" d="M12 154.1l16.7-16.4h26.5l16 16.4v26.1L55 196.4H28.4L12 180.1v-26z"/><path fill="#FCFCFC" stroke="#282827" stroke-width=".25" d="M14.4 179.1V155l15.1-14.6 24.6-.6 14.7 15.3v24L54.1 194H29.5l-15.1-14.9z"/><path fill="#CECECC" stroke="#282827" stroke-width=".25" d="M25.2 159.8l9.4-9h14.2l9.2 9v14.6l-9.2 9.3H34.9l-9.7-9.3v-14.6z"/><text fill="#231F20" font-family="'MyriadPro-Regular'" font-size="9.495" transform="translate(37.249 148.411)">12</text><text fill="#231F20" font-family="'MyriadPro-Regular'" font-size="9.495" transform="translate(51.57 150.785)">1</text><text fill="#231F20" font-family="'MyriadPro-Regular'" font-size="9.495" transform="translate(58.812 159.599)">2</text><text fill="#231F20" font-family="'MyriadPro-Regular'" font-size="9.495" transform="translate(61.247 170.46)">3</text><path fill="#7C5B39" d="M25.2 130.4l3.5 7.4h26.5l2.9-7.4H25.2z"/><path fill="#361C0D" d="M4.8 150.7l7.2 3.5v26l-7.2 3.3v-32.8zm23.6 45.8l-3.3 6.9-20.3-20 7.2-3.3 16.4 16.4z"/><path fill="#361C0D" d="M54.9 196.5l3.2 6.9h-33l3.3-6.9h26.5z"/><path fill="#5A3A19" d="M71.1 180.2l7.4 3.2-20.4 20-3.2-6.9 16.2-16.3z"/><path fill="#7C5B39" d="M71.1 154.1v26.1l7.4 3.2v-32.8l-7.4 3.5z"/><path fill="#9B7B5A" d="M55.2 137.8l16 16.4 7.4-3.5-20.4-20.3-3 7.4z"/><circle cx="41.7" cy="167.5" r="1.7" fill="#FCFDFF" stroke="#231F20" stroke-width=".25"/><circle cx="41.7" cy="167.5" r="1.2" fill="#EFEFED" stroke="#161615" stroke-width=".25"/><path fill="none" stroke="#231F20" stroke-width=".25" d="M45.2 150.8l-.1.8-5 23.9 5.1-24.7z"/><path fill="#231F20" stroke="#231F20" stroke-width=".25" d="M40.1 172.9h.6l-.6 2.6h-.8l.8-2.6z"/><g fill="#231F20" stroke="#231F20" stroke-width=".25"><path d="M41.7 167.3l-.4-14.3-.6.4.3 13.7.7.2z"/><path d="M40.1 153l2.2.3-.8-4.2-1.4 3.9z"/></g><g stroke="#231F20" stroke-width=".25"><path fill="#231F20" d="M35.9 175l2.5 1.5-2.8 2.2.3-3.7z"/><path fill="none" d="M41.4 169l-4.6 7.2"/></g><text fill="#231F20" font-family="'MyriadPro-Regular'" font-size="9.495" transform="translate(60.813 180.85)">4</text><text fill="#231F20" font-family="'MyriadPro-Regular'" font-size="9.495" transform="translate(52.987 189.82)">5</text><text fill="#231F20" font-family="'MyriadPro-Regular'" font-size="9.495" transform="translate(40.514 191.867)">6</text><text fill="#231F20" font-family="'MyriadPro-Regular'" font-size="9.495" transform="translate(28.319 190.93)">7</text><text fill="#231F20" font-family="'MyriadPro-Regular'" font-size="9.495" transform="translate(18.163 182.985)">8</text><text fill="#231F20" font-family="'MyriadPro-Regular'" font-size="9.495" transform="translate(15.753 171.332)">9</text><text fill="#231F20" font-family="'MyriadPro-Regular'" font-size="9.495" transform="translate(15.753 159.535)">10</text><text fill="#231F20" font-family="'MyriadPro-Regular'" font-size="9.495" transform="translate(24.74 150.709)">11</text><path fill="#F0CB2F" d="M57 178.3c0 1-.8 1.8-1.9 1.8H44.6c-1.1 0-1.9-.8-1.9-1.8v-3.1c0-1 .8-1.8 1.9-1.8H55c1.1 0 1.9.8 1.9 1.8v3.1z"/><text fill="#29367F" font-family="'Futura2-Normal'" font-size="8" transform="matrix(1.0473 0 0 1 43.944 178.455)">pm</text></g></switch></svg>
