<svg xmlns="http://www.w3.org/2000/svg" xmlns:xlink="http://www.w3.org/1999/xlink" version="1.0" viewBox="0 0 220 129"><switch><g><path fill="#4DBC93" d="M.9 0h218.7v52.4H.9z" opacity=".66"/><path fill="#70BF66" d="M36.2 13.6c4.2.4 1.1 3.4 6.4 3.6-.5 1.8 2.2 3 3.6 4.3 1.8-.6 2.7-1.7 3.1-2.7.7.5 1.8.8 2.3 1.6 4.1.4 6.3 4.1 8.1 5.7.5.5 3.6 3.4 4.7 3.3 3.4-.2.9-3.2 1.9-4.1 1-1 5.3-2 6.9-2.9 1.7-.9 2.9-2.3 4.4-3.2 3.2-2.1 7.8-4 11.7-5.8 3.4 2 8.9 3.8 10.6 6.2 4.1-1.7 5.2-4.9 10.1-6.2 3.5.9 5.4 2.2 7.2 3.8 2.4 2.1 3.8 2.5 7 4 3.7 1.8 5.2 3.7 7.5 5.8 1.9 1.7 5.4 2.7 6.7 4.3 3.7.1 14.4-5.4 17-6.7 6.6 1.6 14.3 10.8 22.5 9.6.3-.1 5.3-2.2 5.9-2.4 2.1-1.2 2.4-2.3 4-3.5 1.7-1.3 3.8-2.1 5.4-3.6 1.4-1.2 3.1-3.5 5.2-4.3.6.7 2.1 1.3 2.9 2 5.7-3.4 8.9-7 16.5-9.6 2 5.8 1.1 12.5 1.1 18.4 0 4.1.9 8.4.6 12.4-.2 3-4.9 5.7-4.2 8.6-11.2-.1-22.9.9-34.1 1.1-24.5.5-49 1.6-73.5 2.2-21.8.6-44.3 1.1-66.1.3-9.8-.4-20.3-.3-29.9.4C8.5 45.4 1.7 35 4.6 23.9c.7-2.8 1.1-8.2 6.5-10 5.1-1.6 17.2-.5 23.6-.5"/><path fill="#4DBC93" d="M22.6 30.8c5-1.1 11.3.2 17.1 1.2-.8-.6-1.6-1.7-2.4-2.3 8.6-1.1 16 1.8 18.7 5.3 8.5-1.5 26.2-.6 31.8-4.7 1.2.8 6.1 1.9 7.4 2.9.9-1.9 4-2.3 5.6-3.7 9.6 2 16.7 4.4 26.5 5.5 6 .7 9.8 0 14.9.2 3 .1 10 .7 14.2.5 5.3-.3 10-2.1 15.6-2.6 5.5-.5 10.4.3 16.2.1 7.8-.3 24-1.6 29.2-4.3v16.7L17.3 46l5.3-15.2z" opacity=".66"/><path fill="#669998" d="M5.9 39.8c15.9 0 32.4 1.8 48.4.8 12.5-.7 25.2-.7 37.7.5 12.1 1.2 23.6-.1 35.9.5 7.3.4 13.5.6 20.9-.1 7.7-.7 13.3-.3 21.1-.2 5.2 0 8.7-1 13.5-1.3 5-.3 10.3.2 15.4.2 4.3 0 20 1 21.1 0v9.5H6.5l-.6-9.9z"/><path fill="#663" d="M107.2 46.1c-4.7-2.8-6.2-6.9-6.5-10.3-.4-4.7-1.4-9-3.6-13.6-3.3-7.4-3.4-14.8-3.4-22.2h-8.8s.6 5.4 1.2 10 3.5 14.4 4.1 18.2-.6 8.1-.6 10.6v6.8l17.6.5zm8.2 4.8c3.7-1.7 7.4-3.9 7.7-6.2.2-2.6 1.9-4.2 2.9-6.5 2.1-4.9.1-10.5 1.8-15.4 1.9-5.6 4-8.1 4.7-11.9.6-3.1.3-8.2 2.6-10.8H146s-2.9 12.5-3.5 24.1-4.1 15.7-1.8 19.2 4.1 8.7 4.1 8.7-18.2 2.6-29.4-1.2z"/><path fill="#669998" d="M.1 44.7c-.2 0 21.3.3 32.7.3 14 0 27.6-.9 41.3-.9 12.4 0 25.4-.1 37.6.5 6.5.4 12.6.7 19.1.6 6.8-.1 12.9.8 19.7.9 12.5.1 23-1.6 35.5-.4 10.8 1.1 23.2-.2 34.2-.2V129L.4 128.7c-.6.6-.3-84-.3-84z"/><path fill="#336766" d="M1.8 52.6c2.3-1.8 28.5-.4 34.7-.8-3.6 1.3-13.2.2-14.6 2.1 5.4.1 10.5.3 15.8.6 8.4.6 16-.2 24.3-.1 7.5.1 15.1 1.1 22.7 1.3 4.7.1 11.8-.4 15.4.8-8.5 1.6-21.8.1-31.2.7-9.6.6-19.7 0-29.4.2-13 .3-24.3 0-37.7 0" opacity=".59"/><path fill="#336766" d="M217.3 59.1c-3.4.3-13.2-.5-13.5 1.3 1.9.2 3.8.3 5.8.4-2.9 1.4-24.2 2.4-24.6-.5 2.5-.3 4.7-.5 5.1-1.6-8.3-.2-16.8 0-25.2 0-9 0-23.5-1.5-31.3.3 9.2 1.8 29.1-2 36.7 1.6-5.6 1.7-18.3 1.8-25.3 1.9-9 .2-18 .8-26.5.5-8.1-.3-16.2.3-24.2.3-7 0-18.8-1.8-24.8 0 2.7 1.5 13.1.3 17.6.5 6.2.4 12.1.7 18.7.8 5.7.1 10.8.8 16.6.8 6.2 0 12-.4 18.2-.2 1.6 2.7-20.4 2-25.2 2.2 3.8 2.5 19.1 1.3 25.3 1.3 4.2 0 9.7.4 13.5-.3 4.8-.8 5.9-2.3 11.8-2.4 16.1-.5 37.8 2.7 52.4 0M1.2 79.1c5.2 0 21.4 1.1 24.2-.8-1.4-.6-14-1-5.4-2.6 2.5-.5 6.2.6 8.7.8 3.4.2 7.2 0 10.6 0H63c5.7 0 17.4-1.3 21.9.3-3.1 1.6-14.1-.2-14.7 2.1 6.7 1.1 15.3-.1 22.4 0 9.1.2 17.7 1.3 27 1.1 10.4-.2 20.2-.6 30.7-.2 5.5.2 16.3-.3 20.1 1.6-4.4 2.2-18.5 1.1-24.7 1.1-10.2 0-20.5-.1-30.6.1-10 .2-20.1.2-30.2.2-6.6 0-17.3-1-22.5 1.1.9.2 1.2.6 2.3.9-.3 2-21.7 1.3-24.6 0 1.2-.3 2-.9 2.8-1.2-6.2-1-14.3.6-21.1.3-7.1-.5-14.2-1-21.8-1m220 3.6c-10.9 1.4-22.6 1.1-33.9 1.1-5.8 0-20.4-1.2-24.3.8 3.7 2 12.6 0 17.5 1.4-3.6 1.9-18.7.8-24.3.8-11 0-22.2-.2-33.2 0-8.6.2-16.8 1.1-25.1 1.4-4 .1-18.2-1.1-19.1 1.1 4.2.6 9.3.1 13.9.3 5.6.2 11 .8 16.9.5 12.9-.6 27.1-.8 40.2-.5 14 .4 27.6-.8 41.7-.6 8.1.2 22.7-1.1 29.8.3" opacity=".28"/><path fill="#663" d="M58.4 69.4c-13.2-7-12.2-17.1-20.3-26-7.3-8-3-20.5-2.1-29.3.5-4.8-.8-9.5-1.1-14.1H.1v71.6c-.1 0 24.7 3.2 58.3-2.2zm102.4-16.2c0-4.6 1.8-8.4 4.7-12.6 3.2-4.5 1.6-9.8 4.3-14.4 2.5-4.3 2.3-9.4 2.8-13.9.5-4 0-8.2 0-12.2h14.8s-.6 14.5-.6 25.6-2.4 16.5-1.2 18.8c1.2 2.3 3.5 8 3.5 8s-8.3 3.8-28.3.7zm-77.2-2.5c-3-.3-1.9-9.3-3.1-11.3-3.1-5.1-6.7-10-8.1-15.3C70.2 16 73.6 8 73.6.1H61.3s-4.1 9.2-2.4 16c1.8 6.8 5.9 17.6 5.9 22.2s-4.7 11.9-4.7 11.9 8.2 4.3 23.5.5z"/><path fill="#669998" d="M2.9 72.4c4.7-.6 21.8.2 18.4-4 7.2-.9 32.4.9 35.4-2.7 3.4-.3 21.9 1.9 23.3 3.3 2.7 2.6-22.4 3.8-27 4-9.3.4-17.6 1.6-27.1 1.6-3.8 0-8 .2-11.8 0-4.5-.3-7.1-2.3-11.2-2.2m82.5-22c-5.8 0-10.4.9-15.3.8-4-.1-12.2-2.6-14.8-1.1 4.5 2.6 13.5 3.1 20.2 3 3.8-.1 8.9.2 12.1-.9 4.1-1.4.6-2.4-4-2.1"/><path fill="#346733" d="M187 80.5c-2.7-3.3-6.6-6.4-11.6-9.2 5.4.9 9.7 3.6 12.6 5.6 1.8-3.3-7.2-7.5-11-10 8.2.7 24 13.5 11.7 13.8"/><path fill="#336766" d="M56 63.4c-2.3 0 4.4-.2 5.3 0 2.5.4 4.6.7 3 2.1 2.5.4 1.6.3 2.2 1.4-6.7.4-12.4 2.6-18.8 3-7 .5-14.5-.2-21.1.9 0 .2-.3.4-.5.5 7.2-.1 13.9-.3 20.9-.6 7.1-.3 12.5-1.2 19-2.1 2.6-.4 7.5-.5 9-1.8 2.1-1.9-1.8-1.2-4.9-1.7-5.7-.9-8.3-2.8-15.9-2.4" opacity=".59"/><path fill="#696" stroke="#339947" d="M219.4 117.9c-1.4.2-1.4.2-2.9.3-14.4.9-28.7-.1-42.7-.8-6.7-.3-13.7-1.4-19.8-1.9-4.7-.4-15.7-.6-19.2-2.2-9.6-4.6 13.7-1 11.2-4.8-1.2-1.9-18.6-1.7-22.1-1.6-8.2.2-16 1.7-24.2.9-7.7-.7-18.4-.2-25.4-1.4-1.6-4.7 14.3-1 13.1-5.2-15.2-.4-32-2.5-45.2-5-6.5-1.3-15.5-2.9-22.2-3.2-3.7-.2-6.6.5-10.7-.1-3.8-.5-4.2-2-8.9-1.9v14.6l144.9 23.2 74.1-.3v-10.6z"/><path fill="#663" d="M186.5 81.2c5.3-22 20.3-21.6 20.3-35.4 0-7.4-.6-16.7 1.1-24 1.7-7.3-.3-21.6-.3-21.8H220v83.4s-22 1.4-33.5-2.2z"/><path fill="#346733" stroke="#183319" stroke-width=".25" d="M0 94.7c9.9 2.5 22.4 5.4 34.1 7.2 10.2 1.6 29.2-1.3 22.2 5.6 8.1-.2 10.9 3.3 17.5 4.8 6.8 1.6 16.6 2.3 23.9 2.8 5.9.4 47.8 3.4 33.4 7.8 7.4 2.2 18.7 2.7 26 5.9L0 129.1"/><path fill="#346733" stroke="#183319" stroke-width=".25" d="M21.2 101.1c5.7-6.1-4.5-15.7-7-21.9 13 1.8 16.4 18.1 16.9 23.4 5.7-7.1 3.5-15.2 14.6-21.7-.7 7-8.2 14-8.5 20.9 3-3 8-6.8 15.4-7.6-5.2 3.1-9.7 6.7-10.3 10.5M166.1 123c0-8.9-4.8-15.5-8.9-23.9 11.1 6 11 14.6 14.9 21.7 4.5-4.2 1.7-13.5.2-18.2-1.9-5.9-9.3-10.9-11.1-16.6 19.5 5.8 20.7 22.3 20 32-1.3-5.4 5.7-13.2 15.1-16.4-10.1 6.4-9 14-10 21.3-2.5 0-3.1.7-5.8.1-2.6 5.1-10.5.1-15.2 0"/><path fill="#336766" d="M82.2 49.3c4.4-.5 7.9 1.1 2.4 2.6-4.2 1.2-10.5.2-14.7.8 5.3.2 23.9.4 21.6-3.4-3-.7-6.6-.9-9.9-.9m7.6-5.9c-9.5 1.8 10.2 2.4 12.3 2.5-3 1-8.7 1-12.3.5-5.2-.6-7.4-3.3 0-3m51.9 1.1c1.9.2 6 1 5.2 2.4-1.1 2-6.8 1.1-9.3 1.1-4.2 0-15.3-.8-18.1.3 5.9 1.1 16.4.3 22.8 0 2.9-.1 8.8-.1 8.3-2.2-.6-2.2-6.7-.8-8.8-1.9m19.9 7.4c-3.6-.2-8.6.4-10.7 1.8-3.9 2.7 1.5 2.6 6 3 6.1.5 18.9 1.8 23.5-.5-6.8.5-13.2 1.5-20.6.5-2.5-.3-8-1.3-6.9-3 1.1-1.7 7.5-.9 9.3-1.1M60.4 48.2c-5.6.3-7 2.6-.1 2.8-1 1.1-8.2.4-8.9-.8-1-1.7 5.9-2.2 9-2.2" opacity=".59"/><path fill="#346733" d="M66.3 71.8c-.7-3.2 2.8-6.3 5.1-9.2-5.6 1.1-5.2 3.8-6.4 6.2-1.1-2.8-2-6.8-8-8.9-.2 2.1 1.9 7.4 3.4 8.7-.9-2.1-6.9-4.1-11.1-4.6-.1 1.8 6 3.8 8.1 5.4 2 1.5-.2 1.4 3.4 2.2 2.2.5 3.7.7 6-.1m110.8 8.7c-4.1-3.9-7.7-6.2-9.4-10.5-3.3 2.8-.4 5.8 2.8 8-3.8-1.4-7.2-2.8-12.7-2.7 7.7.6 12.4 8.7 21 5.4M32.7 69.9c0-4.4 1.6-7.2 6.8-10.9-8.2.4-8.4 3.9-10.5 6.4-.5-2.8-3.8-4.7-8.1-6.6.9 2.6 5 4.5 4.6 7.2-2.2-.4-4.5-.8-7.1-.8 4.2.6 8 7.6 14.2 4.9"/><path fill="#989898" stroke="#676767" d="M29.2 113.3c.2-1.8 7.5-3.7 10.5-4.9 6.2-2.4 10.5-1.5 17.9-1.1 8.9.4 9.5.4 14.4 3.8 2.8 2 5.8 4.1 7.2 5.7 0 0-21.2 3.5-30.6 2.7s-12.4-2.2-17.1-2.4c-4.7-.3-10.6-1.4-10.6-1.4l8.3-2.4z"/><path fill="#676767" d="M42 108.6c-7.7 1.2-.2 4.1 2.1 5.3 1.9 1.1 1.5 1.8 4.5 2.6 2.5.7 4.6.6 6.6 1.8-4.8.8-11.3-.1-15.9-.8-2.5-.3-4.6-.9-7.1-1.2-1.7-.2-6.8.3-8-.2-2.2-1 1.5-1.1 3.1-1.8 2.1-.9 2-1.6 3.4-2.7 1.9-1.4 6.7-3 10.3-3.2" opacity=".27"/><path fill="#989898" stroke="#676767" d="M90.4 119.8c-1.9-.7-.9-4.3-7.1-4.6-5.7-.3-9 2.7-8.8 4.9 0 0 7.7 2.4 15.9-.3z"/><path fill="#676767" d="M78.1 116.4c-2.7 1.5 5.4 3.1 7.5 3.3-3.5 2.2-15.8 0-8.4-3.2" opacity=".27"/><path fill="none" stroke="#343416" d="M21.2 69.4c-2-1.7-3.3-2.5-4-4.5-.6-1.9-.9-3.8-1.4-5.7-.9-3.9-4.3-7.6-4.9-11.5-.5-3.7-1.3-7.4-.9-11.2.4-3.7-1.8-6.9-1.8-10.6 0-1.3 0-2.5.9-3.7m14.3 33.2c-2.2-4.1-6.6-7.5-7.1-11.8-.5-4.1.7-8-.9-12-.8-2.2-1.3-4.5-.9-6.8s2.9-4.7 2.7-7c-.2-2.1-2-3.9-1.8-6 .2-1.9.5-3.9.9-5.8.3-1.4 2.3-4.3 0-5.3m178.1 81.9c.5-1.6 4.5-4.2 6.2-6.1 2.1-2.3 2.9-4.6 5-6.9 2-2.2 1.2-4.3 1.7-6.7.7-3 1.5-5.7 1.8-8.7.5-5.1.6-10.4 1.6-15.4.7-3.9-1.1-7.8.1-11.6m-9.4 56.2c4.1-5.1 9.9-9.6 8.8-15.4"/><path fill="none" stroke="#343416" stroke-width=".25" d="M68.5 50.5c-.4-1.6.9-3.2 1-4.7.1-1.6-.6-3.1-1-4.7-.9-4.1-.3-7.7-2.7-11.8M72 50.5c.1-5.1.7-10-.4-15-1.2-5.7-7.7-11.3-6.2-17.5m29.1 25.8c0-3.2.4-6.2.4-9.3 0-3.6-2.8-7.8-1.3-11.4M127.7 45c-3.7-2.4 4.9-8 5.2-11 .2-2.1-2.6-3.5-3-5.5-.5-2.2 2.8-4.3 2.2-6.7m3.1 23.2c.2-1.9-1.6-3.5-.8-5.5.9-2 .3-3.7.8-5.7m30.9 19.9c.7-2.4-.1-4.1 2.1-6.5 1.8-1.9 4.6-4 4.5-6.1-.1-2.1-1.4-3.8 0-5.9 1.5-2.3 1.8-4 1.8-6.5m8.8 24.6c-.2-1.7-3.1-2.9-3.1-4.7 0-1.6 1.3-2.8.9-4.5-.8-3.4-.9-6.6-.9-10.2m-3.5 20.2c0-3.6-.9-6.7-.9-10.4M21.2 9.8c-2.2 3.2-1.4 5.8-.1 8.9 1.3 3.3-1.8 6.3-.4 9.6 1.2 2.8 2.5 5.8 3.1 8.5.7 3.4.4 7.2 4 10.4m175.9 11.4c0 3.1-1.6 5.2-3.6 8.1-1.7 2.5-4.6 5.2-5.7 7.8"/><defs><path id="a" d="M108.8 119.5c-1.4-.2-2.1-.4-3.2.2-.5 0-.7-.2-1.2-.2-.4.8-.5.9-2.1 1.2-.2-.2.1-.4-.1-.6-.1 0-1.6.1-1.6.1-.6-.3-.9-.3-1.8-.4 0-.1-.1-.2-.1-.3-1.7.1-2.4.7-2.2 1.6-3.1.8-12.4-.1-13.1 1.6.9.1 1.5.5 2.2.6-1.5.2-3.8.5-2.3 1-1.3-.1-1.8 0-3 .4 2.4.6 4.6-.1 7-.2 2.2-.1 5.3.7 7.5.4 3.3-.5 1.6-1.6 5.8-1.2 2.3.2 3.5 1.5 7 1 2.5-.3 2.7-1 5.7-1.2 2.7-.2 5.9.8 8.5.6 1.3-.1 5.6-1.4 5.1-1.8-.7-.6-6.8-.6-8.2-.6.3-.3 0-.7.2-1-.8.1-2.1-.1-2.9-.1 0-.2.2-.4.2-.6-1.7-.4-3.4-.4-5.2-.1-.6-.4-1.1-.2-1.9-.3"/></defs><use fill="#696" opacity=".27" overflow="visible" xlink:href="#a"/><path fill="#696" d="M35 107.3c-.6-.1-.9-.2-1.7-.2.2-.3-.3-.8-.1-1.2-.6 0-1.4-.1-2-.1-.1-.8-2-1-3.5-.6-.4-.5-2.8-.6-4.6-.7-1.2-1.4-7.9-1.9-9.8-1 .5.1 1.1.3 1.8.5-1.9.3-8.3-.4-7.6 1-6.9-.2 3.2 1.4 4.5 1.7.6.1 2.5.9 3.7 1.1 1.8.4 3.8-.2 3.8 1-2.7.2-8.7 0-10.1 1.2 1.5-.1 3.3 0 4.4.2-2.4.6-9.3.4-9.3 2.2 4.7.5 11.9 1.2 16.3.4 2.7-.5 10.3-3.2 9.8-4.2 2.2-.4 4.6-.8 4.8-2.1m20 16.9c-3.6-.8-8.4.9-10.7.3-1.1-.3-.5-1.8-1.3-2.1-1.6-.7-5.3-.6-7 0 .6.3.8.7 1.6 1-4.6.2-9.2-1.3-13.9-1.6v.8c.8 0 1.8.1 2.5.1.1 1.9-5.5-.4-5.9 1.2-4.6.5-9.5.5-14.3.6.8.4.7.6 2.5.8-1.3.2-2.5.6-3.5 1 1.8.7 5.9.4 8.4.7 1.6 1.4 10.9-.4 14.1-.5 1.2-1.2 4.6-1.2 6.2-.1-.3.2-.5.5-.8.7 2.9.7 8-.3 11.5 0 3.6.3 7-.1 10.6-.6 3.6-.5 5.4-.5 9.3-.2 2.9.2 8.4.7 8.8-1.1-1.8-.3-3.5 0-5.2-.2-1.7-.2-3-.7-4.9-.8-3.4-.2-6 1.1-9.3.4" opacity=".27"/><path fill="#336766" d="M160.5 94.1c-6.2-.2-12.2 1.4-18.4 1-6.2-.3-8.9-1.4-15.3-.8-7.6.6-23.6-1.1-29.5 1.2 6.1 1.7 17.3-1.1 22.5 1.2-3.9.8-8-.1-11.9 1.1 4.9 1.1 14.9.3 20.8.5 5.2.2 6.4-.7 10.1-1.3 4.2-.7 9.9-.1 14.5-.5 2.6-.2 8.2 0 9.8-.8-.7-.4-1.9-.7-3.2-.8" opacity=".28"/><path fill="#966632" d="M47.5 102.2c0-.5.1-.6.4-1 .3-.3.6-.7.8-1.1.7-1.2 1.4-2.5 1.9-3.8.4.3 1.2-.1 1.7.3.3.3.6.5 1 .6.6.3 1.1.5 1.6.9s.9.8 1.4 1.1c.5.4 1.1.7 1.7 1.1.7.4 1.3.9 2 1.4.9.6 1.6 1.5 2.5 2.1.5.3.9.7 1.2 1.2.2.3.4.5.1.8-.2.3-.5.6-.8 1-.4.7-1.2.8-1.9 1.1-.9.3-1.7.9-2.6 1.3-.5.2-1.3.3-1.8.3-.7 0-1 0-1.5-.4-.3-.2-.7-.4-1-.5-.7-.3-1.3-.7-1.9-1.1-1-.6-1.9-1.4-2.8-2.1-.6-.4-1.1-.9-1.5-1.5-.2-.3-.5-.7-.6-1.1-.1-.3 0-.6 0-.9"/><path fill="#966632" stroke="#231F20" stroke-width=".25" d="M48.8 103.1c0-.8-1.7-1.8-1-2.6-.9-.2.4-2.6 1-2.7l.1-.1c-.6-.5-.9-1.7.2-1.9.1-.6.6-.6 1.1-.5.3.1.5.2.7.5.1.1.2.4.4.5l.1-.1c.3-.1.3 0 .7 0 .3 0 .8-.3.8 0 .1 0 .1.2.2.2s.2-.2.3-.3c.2-.2.5-.4.8-.4.3 0 1.2-.3 1.6.7l.2.2c.2.2.5 0 .7 0 .3-.1.5 0 .8.1.3.1.4.2.7.4.3.2.4.1.7.2.4.2 1.3.2 1.5.6.1.1.1.3.1.4.1.1.3 0 .5.2.1.1.1.3.2.4.2.2.4 0 .6 0h.1c.1.3.3.5.5.6l.3.3v.2c0 .1.1.1.2.2.2.4.7.9.7 1.5 0 .2-.2.1 0 .3.1.2.4.1.4.4 0 .3-.2.1-.1.4.1.2.3.2.3.4.1.3-.2.6-.1.9 0 .3.1.5.1.8 0 .3-.1.5-.2.7"/><path fill="#966632" stroke="#231F20" stroke-width=".25" d="M47.8 100.4c.1-.6.4-1.2 1.1-1.3.3 0 .6.1.8 0 .2 0 .4-.4.6-.2"/><path fill="none" stroke="#231F20" stroke-width=".25" d="M50.7 99.2c.5.3 1 .3 1.6.4.6.1 1 .4 1.5.6.5.2 1 .2 1.4.5.3.2.4.3.7.5.1.1.3 0 .4.1.1.1.1.2.2.2.2.1.6.1.8-.1"/><path fill="#966632" stroke="#231F20" stroke-width=".25" d="M56.6 98.1c.1.3.3.8.6 1.1m-1.1 10.5c-.9-.2-1.7-.1-2.6-.2-.9-.1-1.8-.3-2.7-.3 0 0-2.3-.3-2.5-.8-.3-.5-.7-2.1-.6-2.5 0-.4.1-3.5.1-3.7m8.3 7.5s3 .4 3.7 0c.8-.3 1.9-1.1 1.9-1.1.4-.2.9-.7 1.1-1.1l.5-.8m-6.9-9.5c.3-.1.5.2.7.4m2.2 2.3c.3-.2.6.4.3.5m.6-.6c.2-.1.5 0 .5.2m-1.2-.8c.1-.1.3-.1.3.1m1.2 1.9c.2.1.2.4.1.5m.5-.8c.3-.1.4.3.2.5m-2.4.6c.2-.1.2-.3 0-.4m-1.3-1.1c.1-.2.4 0 .3.3m-.1.8c.2.1.2.3.1.4"/><path fill="none" stroke="#231F20" stroke-width=".25" d="M51.3 99.9c.6 0 1.3.5 1.9.6.5.2 1.1.3 1.6.6s.8.8 1.3 1c.3.2 1.1.4 1.4.2.2-.1.3-.4.2-.7"/><path fill="#966632" stroke="#231F20" stroke-width=".25" d="M47.8 101.4h-.4c-.1 0-.3.3-.2.5-.2.1 0 .4-.1.6-.5.2-.8.8-.8 1.3-.1.6.2 1.1.1 1.7-.1.6-.3 2.3.3 2.7l-.2.1c-.1.2.2.5.2.7.1.4-.1.4-.4.6-.1.1-.5.3-.3.5s.5-.2.7-.2c.5-.2 1-.1 1.3.3.1.2.3.4.5.5.3.2.4-.1.3-.4-.1-.2-.4-.4-.4-.6 0-.3.4-.3.6-.3h.8c.2 0 .5.2.7.2.4-.1.2-.3 0-.5-.2-.1-.5-.1-.7-.2-.3 0-.4-.1-.6-.3-.3-.2-.5-.6-.8-.8l.1-.3c0-.5.2-.6.1-1.1-.1-.5-.5-1.5 0-1.9m9.2-1.2c.2-.2.5-.3.8-.2.3.1.5.1.8.2.4 0 .5.4.8.5.3.1.5.1.9.2.6.3.9.5.9 1.2v1.7c0 1-.1 2.1-.8 2.9-.4.5-.9.6-1.5.7-.2 0-.4 0-.6.1-.2.2-.1.4-.2.6-.4.2-.6-.3-.6-.7-.2-.1-.4.1-.6.1-.2.1-.5.1-.7.1-.3 0-1.1.4-1.3.1.2-.3.7-.3 1-.5.3-.1.6-.2.9-.4-.2-.3-.7-.1-1-.2 0-.5 1.1-.4 1.3-.4.4-.1 1-.3 1.3-.7.1-.2.1-.5.1-.7-.1-.3 0-.4.1-.7.1-.3-.1-.5 0-.8 0-.3.2-.6-.1-.7-.2-.1-.4 0-.6 0-.4 0-.6-.3-.9-.6m1.6.5c.1.1.3 0 .5 0m.9 3.3c.2.1.5-1.1.5-1.3m-2.2 1.7c.1.1.4.2.6.3M46.9 108c.2 0 .4.1.6 0m.3-4.2c-.2-.2-.6-.2-.9-.4m16.1 4.1c.1-.4.4-.8.6-1.2"/><path fill="#966632" stroke="#231F20" stroke-width=".25" d="M63.8 104.4h.2c0 .3.3.1.4.4l.3.6c.1.4.3 1 .3 1.4-.1.4-.5.7-.9.8-.3.1-1 .4-1.3.2"/><path stroke="#231F20" stroke-width=".25" d="M48.8 97.5s.6-1.1 0-1.6c-.7.3-.3 1.6 0 1.6z"/><path fill="#FFC968" d="M49 96.2c-.1-.1-.3-.1-.5 0 .2-.2.4-.2.5 0"/><path fill="#2E1313" d="M51.4 97.8c-.1 0-.4.1-.4.3.2 0 .4 0 .5-.2l-.1-.1m-1.4-.1c.1 0 .4.1.4.3-.2 0-.4 0-.5-.2l.1-.1"/><path fill="none" stroke="#231F20" stroke-width=".25" d="M48.3 99c.7-.1.6-.8 1.1-1.2m3.6-1.3c-.4.3-.9.4-1.4.4"/><path fill="#CACA97" d="M53.7 96.5c-1.7 1.4 2.1 3.2 2.1 1.1-.4-.1-.9.1-1.3-.2-.4-.2-.2-1-.8-.9" opacity=".57"/><linearGradient id="b" x1="54.832" x2="57.9" y1="98.056" y2="95.449" gradientTransform="translate(-2.02 .54)" gradientUnits="userSpaceOnUse"><stop offset="0" stop-color="#ffcb33"/><stop offset="1" stop-color="#c79532"/></linearGradient><path fill="url(#b)" stroke="#000" stroke-width=".25" d="M55.7 97.1c0-.6-.5-1.1-1.1-1.1-.6 0-1.1.5-1.1 1.1 0 .6.5 1.1 1.1 1.1.6 0 1.1-.5 1.1-1.1z"/><path fill="#231F20" stroke="#231F20" stroke-width=".25" d="M53.6 97s.8-1 1.3-.7c.5.3 1.1.8.6 1.2-.6.4-1.8-.1-1.8-.1l-.1-.4z"/><circle cx="55.3" cy="96.6" r=".3" fill="#FFF"/><path fill="#CACA97" d="M48.2 107.8c-.1-.7.3-1.1.1-1.7-.1-.5-.3-1.2 0-1.8-.1-.1-.8-.5-1-.5v.9c0 .4-.2.5-.2.8-.1.5.2 1.2.4 1.6.1.2.2.5.2.7 0 .4 0 .3-.2.6-.1.1-.1.2-.2.3-.1.1-.3 0-.4.1l-.1.3-.3.3c-.2.1-.7.6-.2.4.4-.1.5-.5.9-.4.4 0 .7.2.9.5.1.2.4.8.7.4-.1-.4-1.2-1-.3-1.2.4-.1 1.5-.1 1.8.2.2-.1.2-.2.2-.4-.4-.3-1 0-1.4-.3-.2-.1-.9-.6-.9-.8m9.6-2.8c.1.1.3-.2.3-.3.2.2.3 0 .5.1s.3.2.5.3c.2 0 1.1 0 .6.4-.1.1-.8.1-1 .1-.3-.1-.8-.3-.9-.6m1.6.8c.3 0 .5-.1.8-.2.5-.1.3-.1.3.3s.1.5-.1.9c-.1.3-.1.5-.1.8-.1.4-.3.3-.6.5-.2.2-.2.5-.3.7-.1.4-.3.2-.5.4-.3.3.1.3.2.5.1.1.2.3.2.4 0 .2-.1.1-.2.2-.3.3-.3.4-.4.8-.4 0-.3-.5-.5-.7-.2-.3-.5 0-.8 0-.3.1-1.6.4-1.6.2.6-.3 1.3-.4 1.9-.7-.3-.2-.7-.5-1.1-.3.3-.4 1-.1 1.4-.2.4-.1.9-.4 1.1-.8.2-.3.2-.4.1-.7 0-.3 0-.4.1-.7.2-.1.2-1.2.1-1.4" opacity=".57"/><path fill="#CACA97" d="M48.5 107.7s.2-.8.2-1c0-.2-.2-1-.2-1.2-.1-.2-.2-.6.1-1 .2-.4-.2-.2-.2-.2s.1-.4.3-.5c.2-.1.1-.3.5-.3.3 0 .1-.3.1-.5s-.5-.5-.5-.5-1.5-1.3-.8-1.8c.7-.6.3-.7 1.1-.8.8-.2.8-.3 1.1-.3.2 0 .3 0 .6.2.2.3.5.3.8.4.2.1 1.4.6 1.7.7.3.1.7.2 1 .4.3.2.7.5 1 .7.3.3 1.1.9 1.4.8.3 0 .6.2.5.4-.1.2 0 .1-.2.5-.1.3-.2.4 0 .7.2.3 0 .2 0 .5s.3.5.4.5c.2 0 .7.7 1.4.5.7-.2.3.4.2.5 0 .1-.2.2-.1.4s.2.3.1.6-.3.4-.2.7c.2.3.2.4 0 .7-.2.3-1 .7-1.4.6-.3-.1-.8-.2-1 0-.2.2-.2.4-.3.3-.2-.1-1.6-.3-2.3-.3-.6.1-2.3-.3-2.5-.3-.2 0-.7.1-.7.1s.2-.5-1.1-.5c-.6 0-1-1-1-1z" opacity=".57"/><path fill="none" stroke="#231F20" stroke-width=".25" d="M48.7 104.3c.2.2.4.3.7.3m1.4-.9c.1-.4.3-.6.7-.8m2.9 2.7c.1.4.7.5 1 .2m-3.8-5.4c-.4.4-1 .5-1.5.3-.4-.1-.9-.8-1.3-.3"/></g></switch></svg>
