<svg xmlns="http://www.w3.org/2000/svg" version="1.0" viewBox="0 129 96 71"><switch><g><linearGradient id="a" x1="47.025" x2="54.532" y1="13.981" y2="13.981" gradientTransform="scale(1.8169 -1.8169) rotate(1.897 3562.338 -863.125)" gradientUnits="userSpaceOnUse"><stop offset="0" stop-color="#ca6928"/><stop offset="1" stop-color="#f79838"/></linearGradient><path fill="url(#a)" stroke="#CA6928" stroke-width=".25" d="M36.7 180.5c0 2.9-.1 6-.3 8.9-.2 2.3-.3 3.6 2.1 4.1 1.8.4 4-.1 5.9-.4 1.3-.2 4.9.2 5.7-.8-2.7-1.7-9.6 1.1-11.3-2.3-.7-1.4.6-4 .7-5.5.1-.6.3-2.4.1-2.9-.5-1.5-1.5-.8-2.9-1.6"/><linearGradient id="b" x1="77.159" x2="80.19" y1="37.023" y2="31.9" gradientTransform="scale(1.8169 -1.8169) rotate(1.897 3562.338 -863.125)" gradientUnits="userSpaceOnUse"><stop offset="0" stop-color="#ca6928"/><stop offset="1" stop-color="#f79838"/></linearGradient><path fill="url(#b)" stroke="#CA6928" stroke-width=".25" d="M93.7 145.4s-.1 3.8 1.2 4.8-1.2 1.6-2.5.9c-1.3-.7-4.6-4.7-3.4-7.9 1.2-3.2 4.7 2.2 4.7 2.2z"/><path fill="#986732" d="M49.1 199.2c-.8-2.2.7-1.4 2.2-2.2-.7-1.3-.8-1.4.3-2.6-3-.1-5.9.1-8.8.3.7 3.3-.1 1.6 2.3 3.5"/><linearGradient id="c" x1="52.6" x2="52.696" y1="19.958" y2="8.18" gradientTransform="scale(1.8169 -1.8169) rotate(1.897 3562.338 -863.125)" gradientUnits="userSpaceOnUse"><stop offset="0" stop-color="#ca6928"/><stop offset="1" stop-color="#f79838"/></linearGradient><path fill="url(#c)" stroke="#CA6928" stroke-width=".25" d="M46 180c-.8 4.1-1.7 8-2.3 12-.4 2.7.4 2.3 3 2.2 2.1-.1 4.1-.4 6.2-.4-2.2 1.7-6.1 1-8.9 1.2 1.4 1.3 6.6 1.5 8.6 1.6-1.2 1.3-7.3 0-8.9-.4.7 1.9 4.6 2.3 6.2 3.8-2.8-1.2-5.5-1-7.7-2.8-1.3-1-1.7-.7-1.7-2.6 0-1.1.3-2.5.4-3.7.3-2.4.9-4.5.9-6.9 0-.9-.5-2.8-.1-3.6.7-1.5 3.1-1.2 4.7-.9"/><linearGradient id="d" x1="11.696" x2="14.435" y1="20.895" y2="57.878" gradientTransform="matrix(1.817 0 0 -1.817 23.243 234.38)" gradientUnits="userSpaceOnUse"><stop offset="0" stop-color="#cdcccb"/><stop offset="1" stop-color="#fff"/></linearGradient><path fill="url(#d)" stroke="#989897" stroke-width=".25" d="M62.9 147.4c2.1.3-1.2-4.1-1.2-6.3-.3-10.9 9.8-13.8 18.9-11.2 4.1 1.1 8.2 3.5 11.8 5.7 3.7 2.3 4.8 9 .1 11.1L91 146l-1.9.3s-.7-2.4-6.7-8.4-11.9-1.1-11.9-1.1c-4.1 3.3 3 12.5 4.5 16 0 0 6.3 6.1-3.3 14.6-9.4 8.2-19 8-20.5 9.3-1.5 1.3-3.8 7.7-7.3 7.6-3.6-.1-3.4-1.7-5.7-3.4-2.3-1.7-4.7-3.9-7.7-4.1-3-.2-16-.7-19.9-2.9C6.7 171.8.3 162.7 0 161.2c-.3-1.5 4.4 2.6 6.4 3.1 2 .4-.6-2.3-.6-2.3s2.6 1.2 5.5-.9c3-2.1 7.2-4 9.7-5.1 2.6-1.2 25.6-10.6 41.9-8.6z"/><path fill="#FFF" d="M16 159.5c-1.3.6-2.6 1-4 1.7-.6.3-4.2 1.4-4.4 1.7-.5.8 1 1 .3 1.8-.4.5-1.9.2-2.4 0-1.5-.5-2.7-2.4-4.2-2.6 1.1 2.9 4.3 5.1 7.4 5.1-1.9 1.5-.8 2.1 1.1 2 2.5-.2 4.3-1.4 6.2-3 1.6-1.3 4.1-3.3 3.6-5.7-.4-1.9-2.4-1.5-3.8-1.1"/><linearGradient id="e" x1="49.084" x2="49.363" y1="16.025" y2="45.575" gradientTransform="scale(1.8169 -1.8169) rotate(1.897 3562.338 -863.125)" gradientUnits="userSpaceOnUse"><stop offset="0" stop-color="#cdcccb"/><stop offset="1" stop-color="#fff"/></linearGradient><path fill="url(#e)" stroke="#989897" stroke-width=".25" d="M67.3 149.1c-1.6-.7-2.7-1.9-4.3-2.6l-5.4-2.4c-3.2-1.3-7.1-2.9-10.5-2.7-6.8.4-16.6 2.7-21.2 8 .8-.1 1.9 0 2.5.2-4.7 1.8-10.8 4.8-13.5 9.3 1.3.2 2.5-.2 3.7-.8-2.8 3.1-6.4 5.4-7.5 9.5 1.2.2 3 1.3 3.9.7-1.4 1.7-1.7 1.9-2.1 4.1 2.8.7 4.2.8 6.8-.4-1.1.9-1.5 2.3-.3 3 1.5.9 5.2-1.3 7-1.3-3.7 3.1 4.6 1.4 5.7 1.1 3.4-1 6.8-1.7 10.2-2.5 3.6-.9 16.1-3.5 18.9-11.6"/><path fill="none" stroke="#989897" stroke-width=".25" d="M23.9 155.6c-1.3.2-2.3 1.2-2.7 2.3.9.1 1 .4 2 0-1.6.8-2.7 2.6-2.8 4.4 1.2.5 2.7.3 3.7-.5-3.3 2.7-2.3 5.5 1.8 3.2-.9.6-3 2.6-1.8 3.8.9.8 2.4-.5 3.2-.8"/><path fill="#33679A" stroke="#CA6928" stroke-width=".25" d="M90.9 142.2c1-.3 1.8 1.3.9 1.7-1 .4-1.2-1.2-1-1.7h.1z"/><path fill="#FFF" d="M91.6 142.7c-.6-.9-1 .4-.1.1"/><path fill="#343433" d="M91.5 144.1c0 .2.2.9.5 1.1.4.2.9.2 1.3.1 1.3-.2 1.6 1.6 0 1.6-.4 0-.9 0-1.3-.1s-.7-.4-1.1-.5c-.7-.2-1.9.9-2.3-.2.6-.2 1.3 0 1.9-.4.5-.3.6-.9.7-1.5"/><path fill="#FFF" d="M20.1 159.5c-2 .6-6.5 3.7-7.1 5.8-1 3.1 5.6-.7 6.7-1.4-1.5-.5.1-3.7.2-4.6m.8 5.9c-1.5.6-7.8 5.1-6 6.4 1.3 1 4.3-.3 5.4-1.1 1.5-1.1 2.1-1.9 2.5-3.6-.8-.2-1.1-1-1.6-1.6m2.9 4.3c-1 .3-5 3.4-3.3 4.3 1 .5 5.2-1.7 6-2.4-.4-.5-.9-1.2-1-1.8-.6-.1-1.1-.1-1.7-.1m3.5-15.6c-2 .3-6.1 4.2-2 3 1-.3 3-.6 3.6-1.5.9-1.3-.2-1.8-1.5-1.7m0 7c-2 .3-6.1 4.2-2 3 1-.3 3-.6 3.6-1.5.9-1.3-.2-1.8-1.5-1.7m.9 3.8c-2 .3-6.1 4.2-2 3 1-.3 3-.6 3.6-1.5.9-1.3-.2-1.8-1.5-1.7m-2.8-6.1c-2 .1-6.5 3.5-2.4 2.8 1-.2 3-.3 3.7-1.1 1-1.2 0-1.8-1.3-1.9m13.3-14.7c-3 1-8.4 2.2-10.4 4.7 1 .3 2 .3 3 .6-1.1.9-2.3 1.1-3 2.6 3.2 2.7 13.2-4.2 16.9-5 3-.6 5.5-.1 8.5 0 3.3.2 5.8 1.3 8.9 2.1-1.2-2.8-10-4.8-13-5.4-2-.4-4.1-.8-6.2-.5-1.8.2-3.5 1.2-5.4.9"/><path fill="#FFF" d="M33.4 149.7c-1.8 0-1.9 3-2.7 4.5.4.1.9.3 1.4.2-.9.6-3.1 2.2-3.3 3.4-.3 1.7 2.6 1.6 3.9 1.1-1.3 1.1-3.9 2.8-.1 2.6-1.5.9-1.2 2.5.4 2.5-.8.8-1.6 2-.5 3-1.4.2-6.8 4.7-3.5 4.4-1.2.8-2 2.7-.2 2.8 1.7.1 3.2-.2 4.9-.7 4.2-1.2 9.8-2.2 14.1-3.5 3.1-.9 8.3-3.2 10.4-6 1.7-2.4 7.3-7.1 7.1-9.1-.3-3.2.2-6-2.6-7.8-5.5-3.4-21.9-1.5-27.5-.9"/></g></switch></svg>
