<svg xmlns="http://www.w3.org/2000/svg" viewBox="0 0 40.9 46.8"><g fill="#D0E7C4" stroke="#669866" stroke-width=".25"><path d="M3.6 27.5l.1 3.1 1.5 2.3 1.7.9.3.9 7.1 3 2.1.6.5-.8 1.9 2-.1 1.6.8.8.7 1.5.1 1.2v.7l-.1.9 1.9.1 1.2-.5 2.2 1 2-.7 2.1.7 2.1-2.2 1.8.7 1.7-.9 1.4-.1 4.3-2.5-.1-.8-2.2-1.8-.9-2.4-.3-1.2-.7-3.4.6-2.1-1.1-.4 1.7-2.7-.1-.9-1-.4-1.5-1.9-.2-1.8 2-5.5-6.2-5.2-.2-2.3-9.9-6.3-.4 1.3-1.2-.3v1.9l-1.1.1-.9.7.2.7 3.2.1-1.5 1-.5 1.6-.6-1.2-.8.4-1.8 2.3-.3-2.1L13.3 8l-.9.4-1.1 2-.8-2.8.1-1.9.6-2.2.4-1.6-.5-1.8L9.9 0 4.4.1l-.8.6 1 1.3.7 3.8-1.2.9h-.8L3.2 8l2.3 1.6-2.4 2.5-.7 2.3-2.3 1.2-.1-.1.1.8.7 1.7.3 1.5L.9 21l.6 1-.1.8.6 1.5-1.3 1.5zm35.1-10.3l-.8 2.5 1.4-.9z"/><path d="M37.1 21.1l-.4 2 1.4 1z"/></g></svg>
