<svg xmlns="http://www.w3.org/2000/svg" version="1.0" viewBox="0 0 143.5 77"><switch><g><path fill="#444" d="M10.8 41.5l-4.5.8-3.1 6.9L2 51.9S.7 47.8.7 47c0-.7.2-6.8.2-6.8l3-1.7 4.1.2 2.8 1.7v1.1z"/><path fill="#444" d="M20.5 56.7s-3.4 7.1-4.6 7.5c-1.3.4-4.8.3-4.8.3s-.4-.9.4-2.9 2-9.4 1.5-11.1c-.4-1.6-1.3-5.2-1.9-6-.6-.7-1.5-1.8-2-2.3-.4-.4-1.5-.9-1.8-.7-.3.2.1.2.8-.1.6-.3 1.1.5 1.9 0 .7-.5 1.6.6 1.6.6s2.3 3.8 2.4 4c.1.2.9 3.3 1.1 3.8.1.5.5 1.5.6 1.9.2.4.6.6.4 1.3-.2.7 0 1.8 0 1.8l1 1.4s.3.7.8.7c.3-.1 2.6-.2 2.6-.2z"/><path fill="#444" d="M7.1 64.1s-1.5-.6-2-1.3c-.5-.7-2.4-5.9-2.6-6.5-.2-.6-.7-5.3-.4-6.4.2-1.1 1.6-5.7 2.2-6.2.7-.5 1.4-1.3 1.9-1.5.5-.2 1.1-.7 1.1-.7s1.5.4 2.6 1.7c1.1 1.3 2 3.5 2.4 4.9.4 1.4.9 2.4.7 4.7-.2 2.4-.5 4.2-.8 5.7-.3 1.5-.9 3.1-1 3.7-.2.6.3 2.3-.1 2.3H8.9l-1.8-.4z"/><path fill="#D1CDCD" d="M3.3 53.3c0 4.5 1.6 8.2 3.6 8.2 2.1 0 3.7-3.6 3.8-8.1 0-4.5-1.6-8.2-3.6-8.2-2.1-.1-3.8 3.6-3.8 8.1z"/><path fill="#060606" d="M15.4 51h-.5s.1 1.9 0 2.8c-.1.9-.5 4-.6 4.2l-.9 2.7-.4 1.6-.7 1-.5 1 .4.3 2-5 .6-2.6.5-1.9v-2.9l.1-1.2z"/><path fill="#050505" d="M7.4 46c0 .7.1 1.4.1 2.1.1.5-.1 1.7.2 2.1.7 1.1 1.8-.4 2.5-.3.5.1.4 1.7.1 2-.1.1-.8.5-1 .6-.3.3-.8.5-1.1.9-.5.6-.2 1.5 0 2.2.3.8.7 1.5 1.2 2.2.4.5.6.5.3 1-.2.3-.7.8-1.1.9-.5-.6-1.3-3.1-2.2-3.1-1.3 0-.1 2.5-1 3-.5.3-1.1-.8-1.1-1.2 0-.5.4-1.3.6-1.8.1-.4.5-1.1.3-1.6-.3-.7-.8-.2-1.6-.4-.1-.7 0-1.6.1-2.3.1-.8.1-1.6.3-2.4 1-.2 1.4 1.8 1.9.1.2-.8.1-1.6 0-2.4 0-.5-.1-1.9.2-2.3.2-.3.8-.3 1.2 0 .6.4.4.6.1 1.1" opacity=".14"/><path fill="#878787" d="M9.9 58.1c0-.2.3-.6.2-.7-.1-.4-.3-.3-.6-.6-.4-.4-1-.9-1-1.5s.4-1.1.7-1.6c.3-.5 1.1-.9 1.4-1.4-1.1-1.1-3 1.5-2.9 2.3.2 1.3 1.3 2.6 2 3.6 0-.1.1-.3.1-.4M7 57.5c-.9.4.1 1.7-.2 2.3.7.3 1.4 0 2 .2-.2.7-.8 1.2-1.8 1.2-.8 0-2-.8-1.9-1.5 1-.2.4-1.6.5-2.2 0-.4 0-.8.5-.9.6-.1.8.5.9.9m-3.1-7.8c.5.1 1.3 1.1 1.7.9.5-.2.2-1.2.2-1.6-.1-.5-.3-1-.3-1.6 0-.5.5-1.2.1-1.7-1.1.4-.8 1.7-.6 2.4.1.3.5 1 .2 1.3-.4.4-1-.2-1.3.4m5.2-3c-.9-.6-1.4 2.9-.8 3.4.6-.2 1.3-.7 2-.5-.3.5-1.7 1.1-2.3.7-.7-.4-.4-1.5-.4-2.1.1-.7-.2-1.6.2-2.2.7-1 1.2.4 1.2 1"/><path fill="#020000" d="M6.1 52c.9-.3 1.3 1.5.3 1.7-1.1.2-.7-1.5-.3-1.9"/><path fill="#444" d="M10.4 54.7c-1.1-.1-.4-.7-.3-1.2-.6-.3-1.4 1-1.4 1.4-.1.8.6 1.4 1.3 1.8.4-.3.5-1.7.2-2.1m-1-7.8c-2.3 1.4-1.3 4.7 1.6 2.8 0-1.1-.7-2-1.4-3m-4.8.6c.2.8.5 1.5.9 2.2-.8.6-1.6.4-2.3-.2.4-.5.9-1.3 1.4-1.7M3.3 55c.6-.4 1.1-.6 1.8-.4.6 1 .2 2.1-.8 2.8-1.2-.3-1.2-1.4-1-2.4m5.6 4.7c-1.1-.5-1.3-1.7-2-2.4-.7 1 .3 1.9-.1 3 .6.3 1 .1 1.5-.2m52.4-16.8l-6.2 1-4.3 9.3-1.6 3.7s-1.8-5.6-1.7-6.5c.1-1 .2-9.2.2-9.2l4.2-2.2 5.6.3 3.8 2.2v1.4z"/><path fill="#444" d="M74.1 63.7s-4.6 9.5-6.4 10.1c-1.8.5-6.6.4-6.6.4s-.6-1.2.6-4c1.2-2.7 2.7-12.7 2.1-14.8-.6-2.2-1.7-7-2.6-8-.9-1-2.1-2.4-2.7-3-.6-.6-2.1-1.2-2.5-1-.4.2.2.2 1-.2s1.6.7 2.6 0 2.2.8 2.2.8 3.1 5 3.2 5.3c.1.3 1.3 4.4 1.5 5 .2.6.6 2 .9 2.5.2.6.8.8.5 1.8-.3 1 0 2.4 0 2.4l1.4 1.9s.4.9 1.1.9c.6.1 3.7-.1 3.7-.1z"/><path fill="#444" d="M55.6 73.6s-2-.8-2.8-1.7c-.7-.9-3.3-7.9-3.5-8.7-.2-.8-.9-7.1-.6-8.6.3-1.5 2.2-7.6 3.1-8.3.9-.7 2-1.7 2.7-2.1.7-.3 1.5-1 1.5-1s2.1.5 3.6 2.2c1.5 1.8 2.8 4.7 3.3 6.6.5 1.9 1.2 3.2.9 6.3-.3 3.2-.6 5.7-1.1 7.7-.5 2-1.2 4.2-1.4 4.9-.2.8.4 3-.2 3h-3l-2.5-.3z"/><path fill="#D1CDCD" d="M50.4 59.2c-.1 6 2.2 11 5 11s5.2-4.9 5.2-10.9c.1-6-2.2-11-5-11-2.9-.1-5.2 4.8-5.2 10.9z"/><path fill="#060606" d="M67 56h-.7s.1 2.5 0 3.8c-.1 1.3-.7 5.3-.8 5.7-.1.4-1.3 3.7-1.3 3.7l-.5 2.1-1 1.3-.6 1.3.6.4 2.8-6.7.8-3.5.7-2.5V56z"/><path fill="#050505" d="M56 49.4c0 1 .1 1.9.2 2.8.1.7-.1 2.3.2 2.8 1 1.5 2.4-.6 3.4-.4.7.1.5 2.3.2 2.7-.2.2-1.1.6-1.4.9-.5.4-1.1.7-1.5 1.2-.6.8-.3 2 .1 2.9.4 1 .9 2 1.6 2.9.5.7.8.7.5 1.3-.2.5-1 1.1-1.6 1.2-.7-.8-1.8-4.2-3-4.2-1.8 0-.2 3.4-1.4 4-.6.3-1.5-1.1-1.5-1.6 0-.7.6-1.7.8-2.4.2-.6.8-1.6.5-2.3-.4-.9-1.1-.3-2.1-.5-.2-.9 0-2.1.1-3 .1-1.1.1-2.1.4-3.3 1.3-.3 1.9 2.4 2.6.2.3-1.1.1-2.1 0-3.2 0-.6-.1-2.6.3-3.1.3-.4 1.2-.3 1.7 0 .9.5.5.7.1 1.5" opacity=".14"/><path fill="#878787" d="M59.5 65.6c0-.2.4-.7.3-1-.1-.6-.4-.4-.8-.8-.6-.6-1.3-1.2-1.4-2 0-.8.5-1.5 1-2.1.5-.7 1.5-1.2 1.9-1.9-1.5-1.4-4.2 1.9-4 3.1.3 1.7 1.7 3.4 2.8 4.8.1-.2.2-.4.2-.5m-4-.4c-1.3.5.1 2.3-.3 3.1 1 .5 1.9.1 2.8.2-.3 1-1.1 1.7-2.4 1.7-1.1 0-2.8-1-2.6-2.1 1.4-.2.6-2.1.6-2.9 0-.6 0-1 .6-1.1.9-.2 1.1.7 1.1 1.2m-4.1-10.6c.6.1 1.8 1.4 2.4 1.2.7-.3.3-1.7.2-2.1-.2-.7-.5-1.4-.4-2.1 0-.7.7-1.6.1-2.3-1.6.5-1.1 2.2-.8 3.3.2.4.7 1.3.3 1.7-.5.6-1.4-.2-1.8.6m7.2-4.1c-1.2-.8-2 3.9-1.1 4.5.8-.3 1.8-.9 2.7-.7-.5.6-2.4 1.4-3.2.9-.9-.6-.6-2-.5-2.8.1-.9-.2-2.2.3-3 .9-1.4 1.6.5 1.7 1.4"/><path fill="#020000" d="M54.3 57.5c1.2-.4 1.8 2.1.4 2.3-1.5.2-1-2-.4-2.5"/><path fill="#444" d="M60.2 61.1c-1.5-.2-.6-.9-.5-1.7-.8-.4-1.9 1.3-2 1.9-.2 1 .8 1.9 1.8 2.4.5-.4.7-2.3.2-2.8m-1.1-10.5c-3.2 1.9-1.7 6.4 2.3 3.7 0-1.5-1-2.7-1.9-4m-6.8.9c.3 1 .7 2 1.2 3-1.1.7-2.2.6-3.2-.3.5-.7 1.2-1.8 2-2.3m-1.8 10c.8-.5 1.5-.8 2.4-.5.8 1.4.3 2.8-1.1 3.8-1.5-.5-1.6-1.9-1.3-3.3m7.7 6.3c-1.5-.7-1.7-2.3-2.7-3.2-1 1.4.4 2.5-.1 4.1.8.4 1.3.1 2.1-.3"/><path fill="#EDAF34" d="M.6 52.6s.5-9.8 0-11.5c-.5-1.7-1.1-5.9.2-6.9s1.3-2.4 1.3-2.9 2.5-2.2 5.2-3.9c2.7-1.7 19.1-16.2 24-16.7 4.9-.5 7.1-.7 13-1.4s28.7 0 28.7 0 11.5.2 16.4 2c4.9 1.9 18.9 14.5 20 15.4 1 .8 4.4 1.7 11.8 4.1 7.4 2.3 15.4 5.7 16.7 8.9s2.2 7.9 2.9 12 1.2 12 0 13-61.4 3-66.3 3.6c-4.9.5-8.5 0-8.5 0s-.3-23.5-8.3-24.7c-7.9-1.2-10.1 12.2-9.6 15.9.5 3.7 1.9 8.1 1.9 8.1l-37.5-6.4s.3-17.1-4.4-18.3c-4.7-1.1-6.2 8.9-7.5 9.7z"/><path fill="#89D0EF" stroke="#919191" stroke-width="1.482" d="M45.7 13.5s5.4 14.9 5.6 15.6c.2.7 57.1-.8 57.1-.8S93.6 13.7 91.5 13.5c-2-.1-44.9-1.5-45.8 0zM12.4 28.4S22 14.2 30.2 13.9c8.1-.3 10.8 1 12.7 5.7 1.9 4.7 3.4 9.6 3.4 9.6l-33.9-.8z"/><path fill="#F5F5F5" d="M69.4 46.7s-.2-3.9 0-4.4c.2-.5 2.5-1.7 3.2-1.9.7-.2 17.9 1.9 17.9 1.9l.8 2.7 2.2 2.7s-13.7.8-15 .8c-1.4 0-1.4-1.5-1.4-1.5l-7.7-.3zm63.4-6.3v6.8s4.7.9 5.9 0c1.2-.9 0-6.8 0-6.8h-5.9z"/><path fill="#121013" d="M97.6 42.6l.7 7.9s10.8 3.7 17.6 3.4c6.8-.3 14-4.2 14-4.2l-.7-7.1H97.6z"/><path fill="#DD9D2C" d="M24.9 58.9l18.8 2.7V34.8l2-1.1v-3.6l-19.4-.8-.5 3.7-1.9-.2z"/><path fill="#DD9D2C" d="M24.9 58.2s-6.7.1-9.6-1.5C12.4 55 10 44.8 10 42.6c0-2.2.8-9.5.8-9.5s1.5-1.2 1.5-1.7 1-3 1-3l12.8.8-.3 3.8-1.9-.2 1 25.4z"/><path fill="#121013" d="M71.6 64.3s1.7-5.2 3.2-6.1c1.5-.8 20.3 0 20.3 0s3.2 4.4.8 5.1c-2.3.6-24.3 1-24.3 1zm29.7-8.7s-1.5 1 0 3.6 2.9 3.1 2.9 3.1l21.3-.8s4.2-5.4 2.7-5.9-26.9 0-26.9 0zm31.5 0s-2.2 1.4-1.9 3.6c.3 2.3 1.9 3.1 1.9 3.1l7.6-.8v-6.1l-7.6.2z"/><path fill="#444" d="M115.5 66.5s2.4 7.8 11.4 6.4c9-1.4 9.1-6.4 9.1-6.4v-1.1l-20.5 1.1z"/><path fill="#F7B541" d="M108.4 41.7s-4.9-3.5-10.8-6.9c-5.9-3.4-14.5-6.4-14.5-6.4h14.5s9.3 3.9 13.7 6.6c4.4 2.8 7.8 5.8 7.9 6.6.2.9-10.8.9-10.8.9v-.8zm-35.8-1.3s-5.8-5.1-9.8-5.6c-4.1-.5-8-.7-9.6-1.5-1.7-.8-2.9-.8-2.4-2.5s-2.4-1.2-3.2 0c-.8 1.2-3 4.3-1.9 4.7 1.2.5 7.4.2 10.9 1.8 3.5 1.7 9 3.1 10.2 4.4 1.2 1.2 2.5 4.9 2.5 4.9v-4.4l3.3-1.8z"/><path fill="#CC8A1F" d="M2.1 31.3s1 1.7 2.9 1.5 5.1 0 5.1 0H24l20.5 1.6-.7 1.1H25.6l.7 23-2.4-.7-.7-23.5s-12.5-.2-13.4-.3c-.9-.2-5.7-.3-6.3-.2-.7.2-1 1.9-1.4 2.4-.3.5-2.1 1-2.1.8 0-.2.8-2.9.8-2.9l1-1.3.3-1.5z"/><path fill="#070000" d="M63.2 0h-.4l1.8 9.8h.5z"/><path fill="#73BED8" d="M84.2 29c.2-6.1.2-11.4-5.4-15.1 8-5.3 7.2 10.9 8.3 15.2-.7.2-1.5.2-2.2-.2"/><path fill="#444" d="M79.8 13.5v2.3s-6.2.4-6.6.3c-.4-.1-.7-1.6-.8-2.2-.1-.6 2.4-1.3 2.6-1.1.2.2 3.5 0 3.5 0l1.3.7z"/><path fill="#89D0EF" stroke="#919191" stroke-width="1.482" d="M13.4 28.4l31-4.7s-.8-11.7-14.2-9.9c-13.5 1.9-16.8 14.6-16.8 14.6z"/><path fill="#EDAF34" d="M26.3 29.3l3.9-15.4L24 29.3z"/></g></switch></svg>
