<svg xmlns="http://www.w3.org/2000/svg" version="1.0" viewBox="0 0 220 129"><switch><g><path fill="#F9F5D6" d="M.7 0h220v75.9H.7z"/><path fill="#FC3" stroke="#FCF6C7" stroke-width=".25" d="M0 74.7h220V129H0z"/><path fill="none" d="M58.3 92.7s.9-.2 1.1-.5c.2-.3.1-.6-.3-.7-.4-.1-2.6.3-3.1.4-.4.1-1 .3-1 .6s1.1.4 2 .3c.9-.2 1.3-.1 1.3-.1z"/><linearGradient id="a" x1="53.697" x2="55.125" y1="92.264" y2="92.264" gradientUnits="userSpaceOnUse"><stop offset="0" stop-color="#ffecc4"/><stop offset=".456" stop-color="#ffe8b6"/><stop offset="1" stop-color="#ffe1a0"/></linearGradient><path fill="url(#a)" d="M53.9 91.8l1.2.6-1 .4-.4-.2.1-.9z"/><linearGradient id="b" x1="53.469" x2="54.105" y1="92.874" y2="92.874" gradientUnits="userSpaceOnUse"><stop offset="0" stop-color="#ffecc4"/><stop offset=".456" stop-color="#ffe8b6"/><stop offset="1" stop-color="#ffe1a0"/></linearGradient><path fill="url(#b)" d="M53.7 92.6l-.2.5.6-.3z"/><path fill="none" d="M55.8 91.8s1 0 2-.2c.9-.2 1.6-.3 1.8-.4.2-.1.9-.6.4-.7-.5-.2-1.9.1-2.2.1-.3 0-.8 0-1.1.1-.3.1-1 .9-1 .9l-.1.4.2-.2z"/><path fill="#630" d="M0 71.1h220V75H0z"/><path fill="#D1B195" d="M151.6 65.5c0 .7-.5 1.2-1.2 1.2h-90c-.6 0-1.2-.5-1.2-1.2V2.1c0-.7.5-1.2 1.2-1.2h90c.7 0 1.2.5 1.2 1.2v63.4z"/><path fill="#CCA587" d="M147.4 62.5c0 .6-.5 1.1-1.1 1.1H64c-.6 0-1.1-.5-1.1-1.1V5c0-.6.5-1.1 1.1-1.1h82.3c.6 0 1.1.5 1.1 1.1v57.5z"/><path fill="#B98C6E" d="M144.7 60c0 .5-.4 1-1 1H66.8c-.6 0-1-.4-1-1V8.4c0-.5.5-1 1-1h76.9c.6 0 1 .4 1 1V60z"/><path fill="#6C9A77" d="M143.6 59.3c0 .5-.4.9-1 .9H68.2c-.5 0-1-.4-1-.9v-50c0-.5.4-.9 1-.9h74.4c.5 0 1 .4 1 .9v50z"/><path fill="#B98C6E" d="M64.2 63.6L63 66.1h38.2l-1-2.5z"/><path fill="#C0A387" d="M101.2 66.2c0 .6-.4 1.1-1 1.1H63.9c-.5 0-1-.5-1-1.1 0-.6.4-1.1 1-1.1h36.3c.6 0 1 .5 1 1.1z"/><path fill="#F0F6F3" d="M67.8 62.8l6.1-.6s.4-.3.6.4c.2.7-.5 1.2-.5 1.2l-6.2.5s-.4-.6-.4-.8c0-.3.4-.7.4-.7z"/><text fill="#EBECEC" font-family="'SegoePrint'" font-size="32.562" transform="matrix(.576 0 0 1 106.466 42.793)">=3</text><path fill="#2E57A0" stroke="#223D7A" stroke-width=".25" d="M151.6 66.5l1.3 1.6c1.1 1.5.3.5 1.1 2.4.4.9-.4 1.9-.6 3-.2 1.1-.6 3.3-.4 4.4.2 1.1.3 2 .7 2.8.4.7.2 2.1.5 3.7.2 1.6-.1 3.3.4 5.8s1.1 4.8 1.1 7.1c0 3.3.6 4.9.5 6.4-.1 1.5-.9 2.1-.9 2.1s-.6-.9-1.7-.2c-1.1.6-1.6.2-1.6.2s-1.5-.4-1.3-1c.1-.6 1.6 1.4 0 0s-4.6-26.7-4.6-26.7.6 1.4.6 1.8c0 .5.7 3 .7 3.3 0 .4 0 .4.1 2.7 0 0 .1 2 .1 4.6 0 2.6.2 3 .2 4.6 0 1.6.7 7.3 1.2 8.4.5 1.1.4 1.8.4 1.8s-1.3.7-2.3.7c-1 0-1.3 0-2.2.1-.9.1-2.6 1-2.8.1-.2-.9-.2-3.4.4-3.9.6-.5.5-2.7 1-4.1.5-1.4-1.2-2.4-1.5-4.5-.4-2.1-1-9.1-1-9.1s-.9-4-1.1-4.6c0 0 .1-4.2-.1-5.3-.2-1.1-1.8-6.4-1.8-6.4"/><path fill="#223D7A" stroke="#223D7A" stroke-width=".25" d="M146.3 78.5c-.9-.8-3.3-4.6-3-5.9 2.1.3 2.6 4.8 3.2 6.5"/><path fill="#020202" stroke="#020202" stroke-width=".25" d="M147.7 103.9c-1.8.6-4.3.1-6.2.1-2.6.1-5.6 2.1-1.9 3.6 2.6 1.1 4.1-.1 6.7-.4 1.1-.1 2.7.3 3.3-.9.6-1.1-.8-2.2-1.9-2.3"/><path fill="#2E57A0" stroke="#223D7A" stroke-width=".25" d="M145.4 74.7s-.2.2-.8.1c-.6-.1 1.9 4.4 2.1 6.1.2 1.8.6 2.8.6 2.8"/><path fill="#F8F8F8" stroke="#F8F8F8" stroke-width=".25" d="M125.1 41.4s-2.7-.1-3.5 0c-.9.1-1.3.3-.7.8.7.4 2.4.1 3.4.2s1.6 0 1.6 0l-.8-1z"/><path fill="#E8B989" stroke="#DCA572" stroke-width=".25" d="M123.5 40.5s.9-.2 1.9-.1c1 .1.3-.9 1 .1s.7 1 1.7 1.2c1 .2 1.8-.4 2 .9.2 1.3.1 4.4.1 4.4s-3.4 1.5-3.8 1.2c-.3-.2-.7-2-.8-2.5-.1-.4-2-2.8-1.3-2.7.7.1-.2-.6.1-.7.8-.1 1.6-.3 2 .2.4.6 0 1.1-.3 1-.3-.1-.9-2.2-.9-2.2l-1.3-.4-.4-.4zm35.6-4s.2 4.3-.4 5.1c-.6.7-2.8 2.4-8 3.3-5.9 1.1-8.8.9-11.6 0-2.4-.8-4.2-1.7-5.3-2.8-1.1-1.1-1.7-1.8-2-2.9-.3-1.2-.6-2.2-.3-2.6.3-.3-.7-4.9-.7-5.6 0-3.9 9.5-8.3 14.6-8.7 4.7-.4 13.1 5 13.2 9.7 0 .9.5 4.5.5 4.5z"/><path fill="none" stroke="#000" stroke-width=".25" d="M131.7 35.5l.1-.1"/><path fill="#E8B989" stroke="#DCA572" stroke-width=".25" d="M159.2 39.4s1.2.9 1.6.4c.4-.6.7-1.8.7-2.5 0-.6-1.3-2.3-1.6-2.2-.3 0-1 .1-1 .1l.3 4.2zM131.7 35s-1.1-1-1.5-.5c-.4.5-.8 1.7-.8 2.4s1.1 2.4 1.4 2.4h1l-.1-4.3z"/><path fill="#050506" stroke="#000" stroke-width=".25" d="M139 34.7c0 .4.2.8.5.8s.5-.4.5-.8-.2-.8-.5-.8-.5.3-.5.8zm10.5.6c0 .4.2.8.5.8s.5-.3.5-.8c0-.4-.2-.8-.5-.8s-.5.3-.5.8z"/><path fill="#E8B989" stroke="#C28757" stroke-width=".25" d="M145.8 38.7s-.4-1-1.4-.8c-1 .2-1.2.9-1.2.9"/><linearGradient id="c" x1="404.114" x2="400.437" y1="40.45" y2="40.45" gradientTransform="matrix(-1.3964 0 0 1 713.293 0)" gradientUnits="userSpaceOnUse"><stop offset="0" stop-color="#ec1475"/><stop offset="1" stop-color="#fff5cb"/></linearGradient><path fill="url(#c)" d="M154.1 40.5c0 1.4-1.2 2.6-2.6 2.6-1.4 0-2.6-1.2-2.6-2.6 0-1.4 1.1-2.6 2.6-2.6 1.5-.1 2.6 1.1 2.6 2.6z" opacity=".2"/><linearGradient id="d" x1="410.087" x2="414.562" y1="40.135" y2="40.135" gradientTransform="matrix(-1.3964 0 0 1 713.293 0)" gradientUnits="userSpaceOnUse"><stop offset="0" stop-color="#ec1475"/><stop offset="1" stop-color="#fff5cb"/></linearGradient><path fill="url(#d)" d="M134.4 40.1c0 1.5 1.4 2.7 3.1 2.7 1.7 0 3.1-1.2 3.1-2.7 0-1.5-1.4-2.7-3.1-2.7-1.7.1-3.1 1.3-3.1 2.7z" opacity=".2"/><linearGradient id="e" x1="396.75" x2="417.113" y1="30.501" y2="30.501" gradientTransform="matrix(-1.3964 0 0 1 713.293 0)" gradientUnits="userSpaceOnUse"><stop offset="0" stop-color="#f05525"/><stop offset=".059" stop-color="#db4d22"/><stop offset=".257" stop-color="#993618"/><stop offset=".446" stop-color="#63230f"/><stop offset=".619" stop-color="#381409"/><stop offset=".775" stop-color="#190904"/><stop offset=".907" stop-color="#070201"/><stop offset="1"/></linearGradient><path fill="url(#e)" d="M157.5 38.1l.3-3.3s-2.7-7.2-4.6-7.4c-1.8-.2-6.7-1.7-8.5-1.5-1.8.2-5.9.7-7.8 2.8-1.8 2-4.4 3.9-4.4 5.5v3.1l-1-.8s-1.2-5.2-.5-6.6c.9-2 7.3-9 14.4-7.8 6.8 1.2 10.9 4.3 12.2 6.8 1.4 2.6 1.6 8.6 1.6 9.2.1.6-1.5.6-1.5.6l-.2-.6z"/><linearGradient id="f" x1="398.282" x2="410.237" y1="25.666" y2="25.666" gradientTransform="matrix(-1.3964 0 0 1 713.293 0)" gradientUnits="userSpaceOnUse"><stop offset="0" stop-color="#f05525"/><stop offset=".059" stop-color="#db4d22"/><stop offset=".257" stop-color="#993618"/><stop offset=".446" stop-color="#63230f"/><stop offset=".619" stop-color="#381409"/><stop offset=".775" stop-color="#190904"/><stop offset=".907" stop-color="#070201"/><stop offset="1"/></linearGradient><path fill="url(#f)" d="M140.8 23.6s-.6 2.8-.1 2.9c.5.2 7.5 1.1 10 1.1 2.6 0 4.1.5 4.4 1.3.3.9 2.1-.6 2.1-.6s-6.2-6.5-12.3-6.2c-6.1.4-4.1 1.5-4.1 1.5z"/><linearGradient id="g" x1="432.675" x2="439.9" y1="121.547" y2="121.547" gradientTransform="matrix(-1.3573 -.235 -.3282 .972 781.22 26.15)" gradientUnits="userSpaceOnUse"><stop offset="0" stop-color="#f05525"/><stop offset=".059" stop-color="#db4d22"/><stop offset=".257" stop-color="#993618"/><stop offset=".446" stop-color="#63230f"/><stop offset=".619" stop-color="#381409"/><stop offset=".775" stop-color="#190904"/><stop offset=".907" stop-color="#070201"/><stop offset="1"/></linearGradient><path fill="url(#g)" d="M145.3 39.7s5.2 1.1 6.3 1.7c1.1.6 3.2 2.3 1.8 1.9-1.3-.4-5.3-.1-6.5-.4-1.2-.4-2-1.2-2.4-1.3-.4-.1.1-1.7.1-1.7l.7-.2z"/><linearGradient id="h" x1="358.846" x2="364.672" y1="11.465" y2="11.465" gradientTransform="matrix(-1.3653 .2277 .3554 1.0926 630.733 -53.183)" gradientUnits="userSpaceOnUse"><stop offset="0" stop-color="#f05525"/><stop offset=".059" stop-color="#db4d22"/><stop offset=".257" stop-color="#993618"/><stop offset=".446" stop-color="#63230f"/><stop offset=".619" stop-color="#381409"/><stop offset=".775" stop-color="#190904"/><stop offset=".907" stop-color="#070201"/><stop offset="1"/></linearGradient><path fill="url(#h)" d="M143.7 39.7s-4.1.6-5 1.1c-.9.5-2.4 2.1-1.4 1.8 1.1-.3 4.3.6 5.3.3.9-.2 1.5-1 1.9-1.1.3-.1 0-1.9 0-1.9l-.8-.2z"/><path fill="#020303" stroke="#000" stroke-width=".25" d="M144.5 39.9s7.1 2.2 9.3 2c2.2-.2 2.5.1 3.3-1.5.7-1.6 2.2-2.2 2.2-2.2s.3 2-.5 3.3c-.8 1.3-8.9 4.7-14.8 3.8-5.9-.9-7.3-1.1-9-2.4-1.7-1.3-2.7-2.4-2.5-3 .2-.6 1.8.9 3.8 1.5 2 .7 8.1-1.3 8.2-1.5z" opacity=".04"/><path fill="#020303" stroke="#000" stroke-width=".25" d="M132.9 37.4l-.2 2.7s-.2.1-.8-.9c-.4-.9 1-1.8 1-1.8z" opacity=".04"/><path fill="#F6EBC1" stroke="#DFC96E" stroke-width=".25" d="M169.2 49.4l-3.8-2.2-.2-1.5 3.6 2.4z"/><path fill="#F6EBC1" stroke="#FDE78E" stroke-width=".25" d="M149.3 46.6s4.7-.9 4.9.1c.2 1 3.3 6.4 5 5.7 1.7-.7 5.4-4 5.8-4.4.4-.5 0-1.9 0-1.9l4 2.5s.4.4-.6 1.4c-1 1-5.5 7.6-6.4 7.6-.9 0-7.1-3.1-8-2.7-.9.4-1.2 7.7-1.3 8.1-.1.4.4 2.7-1.3 3.8-1.7 1-4.8 1.2-6.6 1.3-1.8.1-4.5.7-5.1.5-.6-.1-1.3-.2-1.7-.6-.4-.4-1.6-1.8-1.2-3 .4-1.2-.1-4.2-.1-4.8v-2.4l-1.7 1.5s-2-.1-2.8-.4c-.8-.3-1.9-.4-2.9-2.6-.9-2.2-3.2-7.8-3.2-7.8l3.4-.8 1.3 2 2.2 4.2s.9.7 1.3-.4c.4-1 2.6-6.3 3.4-6.6.8-.3 2.9.2 2.9.2l-.3-1.3s5.9-.2 8.2-.8c2.2-.5.8 1.6.8 1.6z"/><path fill="#F6EBC1" stroke="#DFC96E" stroke-width=".25" d="M152.7 65.5s.9 2.7-.3 3c-1.2.3-8.4 1.1-9.6 1-1.1-.2-4.8-.2-5.2-.2-.4 0-.7-1.2-.8-1.8-.1-.7-.2-1.8-.2-1.8s5.7 1.8 7.4 1.8c1.7 0 8.7-2 8.7-2zm-22.6-18.6s-1.2.2-2.1.2c-.9 0-1.8.5-1.8.5l.3 1.2 1.3-.1 1.7-.3.9-.3-.3-1.2zm39.5 1.5s-1.9-1.5-2.3-1.6c-.4-.1-2.1-1-2.1-1s-.2 0-.3.8c-.1.9 1.6 1.6 1.6 1.6l2.2 1.4.9-1.2zm-19.7-2.2s-2.4 1.1-4.4.9c-1.9-.1-3.1-.3-3.5-.3-.4 0-1.5-.2-1.5-.2s-.5-1-.1-1.4c.4-.5 3.2 0 4.8 0 1.2-.1 4.6-1 5.1-.6.5.3-.4 1.6-.4 1.6zm15.5-.4l-.3 1.1"/><path fill="#020303" stroke="#000" stroke-width=".25" d="M136.6 57.5c.8-2.1.9-5.1.7-7.3 2.6 2.2-.5 7.7-.6 10.4-.4-1.1-.2-2.3-.2-3.4m16.8-2.1c-1.1-.8-.9-3.2-1-4.5-1.3 1.2-.9 6 1.4 5.4.1-.3.2-.8.1-1.1-.1 0-.2 0-.3.1m-13.3-8.3c1.2-.7 3.4.4 4.8.4 1.8 0 3.5-.4 5.2-1-3.4 2-6.1 1.5-9.8.6" opacity=".04"/><path fill="#020202" stroke="#020202" stroke-width=".25" d="M153.8 104c-1.8.6-4.3.1-6.2.1-2.6.1-5.6 2.1-1.9 3.6 2.6 1.1 4.1-.1 6.7-.4 1.1-.1 2.7.3 3.3-.8.6-1.1-.8-2.2-1.9-2.4"/><path fill="#223D7A" stroke="#223D7A" stroke-width=".25" d="M146.9 87.6c1-2-.1-5-.3-7.1-.3-2.6-2-4.9-3.3-6.9 0 1.4 1.2 2.4 1.8 3.5.6 1.2.8 2.4.9 3.7.2 1.5 0 7 1.6 6.8"/><path fill="#E8B989" stroke="#DCA572" stroke-width=".25" d="M165.2 45.7c.3-1-1.5-3 0-3.6.8.5.5 1.5 1.6 1.5.8 0 1.9-1.6 2.4-2.1.8-1 1.3-2.4 3-.8 1.4 1.3 1.2 1.8.5 2.9-.9 1.5-2 3.7-3.3 4.9-1.1-.7-2.2-2-3.5-2.3"/><path fill="#BE875A" stroke="#BE875A" stroke-width=".25" d="M167.6 43.8c.8.6.8 1.6.3 2.4.7-.6.8-1.4.2-2.2"/><path fill="none" stroke="#BE875A" stroke-width=".25" d="M170.7 44.1c.2-.6.5-1.2.9-1.8m-1.6.5c-.1-.7.2-1.2.9-1.3"/><path fill="#341515" d="M143.8 32.2c0-.1-.4-.2-.6-.2-.1 0-.3.1-.4.1-.2 0-.3-.1-.5-.2s-.6-.1-.8-.1c-.1 0-.3.1-.4.1-.2 0-.3-.2-.5-.2.1.5-.4.1-.6 0h-.5c-.1 0-.4-.1-.5-.1-.2 0-.3.2-.4.2-.2 0-.3 0-.5-.1-.2 0-.3 0-.5.1-.1 0-.1.2-.2.2s-.1-.1-.2-.1c-.3.1-.6.2-.9.4-.2.2-.1.6-.5.8-.1.1-.3 0-.4 0-.2.1-.1.3-.2.4-.1.2-.3.3-.4.4-.3.1-.2.1-.5 0s-.7 0-.8-.4c0-.2.4-.7.5-.9.2-.3.4-.5.6-.8.2-.3.4-.7.7-1 .1-.2.2-.2.3-.2l.4-.4c.5-.4.4.1.9.2.2 0 .8-.1.9-.1.2-.1.2-.3.4-.3.1 0 .3.2.5.1 0 .1.1.2.1.3.2 0 .5-.2.6-.3-.1-.1-.1-.2-.1-.2.2 0 .4 0 .6-.1.1 0 .2-.2.3-.2.3 0 .1.1.3.2h.3c.1 0 .3.1.4.1.2.1.4.1.7.1.2 0 .4 0 .6.1.2.1.4.2.7.3.1 0 .2-.1.3-.1.2 0 .1.1.3.2.1 0 .2 0 .3.1.1 0 .1.2.3.2 0 .2-.1.1-.2.3-.1.1-.1.2-.1.4-.1.2 0 .5-.1.7m2.8-.7c.2 0 .3.1.5-.1.2.2.2 0 .4.1.2 0 .3.2.5.1v-.1c.2.1.3-.1.5-.1.1 0 .5 0 .6.1.2 0 .3.1.5.1s.5-.2.5.1c.2.1.4-.1.5-.2.1.3.3.1.4.1h.2c.1 0 .1.2.2.2h.5c.3 0 .4 0 .6.2.2.1.3.2.4.3.2.1.3.1.5.1.2.1.3 0 .5.2s.4.3.3.6h.1c-.1 0-.2.2-.2.2.1.1.2.1.4.2.1 0 .1.1.2.2h.2c.3.2.4.6.4.9h.2c0 .1.6.2.8.2.4 0 .5-.3.5-.7 0-.4-.3-.6-.5-.9v-.2c0-.1-.2-.1-.2-.2-.1-.1-.2-.3-.1-.4-.4 0-.1-.7-.7-.6l.1-.2c-.2-.1-.4-.4-.6-.4.2-.4-1.2-.4-1.4-.4-.1 0-.3-.2-.4-.2h-.2l-.1-.2c-.2-.1-.5-.2-.8-.1v.4c-.2-.2-.3-.4-.6-.3 0-.8-1.5-.4-1.9-.7-.2.5-.7-.1-1 .1-.1-.2-.5-.1-.5.2-.4.2-.7-.2-1.1-.1 0 .4-.3.1-.5.2.1.3 0 1.4.2 1.5"/><path fill="none" stroke="#EBECEC" stroke-width=".75" d="M87.4 28.9l-4.8-2.7-5 2.4 1.1-5.4-3.9-3.9 5.5-.7 2.6-4.9 2.3 5 5.4.9-4 3.8zm16.3 12.7l-4.9-2.7-4.9 2.5L95 36l-3.9-4 5.5-.6 2.5-4.9 2.4 5 5.4.9-4 3.8zM85.1 49l-4.8-2.6-4.9 2.4 1-5.4-3.9-3.9 5.5-.7 2.6-4.9 2.3 5 5.5.9-4.1 3.8z"/><path fill="#CC7A36" d="M.4 104.1l51.5.8-17-20.8H.4z"/><path fill="#BC692A" d="M39.6 111L38 129h2.2l2.4-18z"/><path fill="#A85618" d="M44.1 110.5l-43.7-.4v.6l45.3.3 1.5-4.3h-1.7z"/><path fill="#E8ECDB" d="M24.6 99.7s5.8 1.3 6.9.8c1.2-.5 2.4-1.5 2.6-2 .2-.5-1.2-2.6-1.7-2.7-.6 0-3.2-.4-4.1-.2-.9.2-2.3.9-2.8 1.1-.5.2-1.7 1.3-1.7 1.3l-.3.9 1.1.8z"/><path fill="#DDE2CD" d="M24.1 98.1s1.7-.4 2-.7c.3-.3 1.1-1.3 1.1-1.3s-2 .7-2 .6l-1 .9-.1.5z"/><path fill="#DDE2CD" d="M23.6 98.9s.7.7 1.7.9c1 .2 3.2.7 4.5.7 1.2 0 1.9-.1 1.9-.1s1.5-.8 1.7-1c.2-.2.9-1 .9-1s.2-.6-.8.2c-1 .9-1.4 1.5-2.2 1.5-.7 0-2.5-.1-3-.1-.4 0-1.6-.1-2-.3-.4-.2-1.4-.6-1.4-.6s-.4-.1-.5-.3c-.1-.2-.2-.5-.2-.5l-.5.1-.1.5z" opacity=".44"/><path fill="none" d="M23.8 98s4.5-1.5 6-1.2c1.4.3 1.6.4 2.1.5.5.1 1.9.7 1.9.7l.4.5"/><path fill="#2D2D2D" d="M4.4 89.2h.3v.8h-.3zm-3 .1h.2v.8h-.2z" opacity=".76"/><path fill="#BC692A" d="M.4 110.1l43.2.4-1.9-4.1-41.3-.3z"/><path fill="#A85618" d="M.4 106.1l51.5.6v-1.8l-51.5-.8z"/><path fill="#A0531F" d="M44.1 110.5l-.7.1-1.7-4.2 3.8.3z"/><linearGradient id="i" x1="13.854" x2="34.523" y1="100.825" y2="100.825" gradientUnits="userSpaceOnUse"><stop offset="0" stop-color="#ffedc4"/><stop offset=".322" stop-color="#ffe7b6"/><stop offset=".928" stop-color="#ffd692"/><stop offset="1" stop-color="#ffd48d"/></linearGradient><path fill="url(#i)" d="M33.5 97.9c.4-.7.1-2.1-.9-2.6-.3.2-.5.5-.5.8 0-.5-.3-1.1-1.1-.9 0 .2-.1.4 0 .6-.4-1.5-5.1-.7-1.9.2-.7 1-1-.6-1.8-.7-1.4-.1.2 1.1.3 1.4.3.8 0 1.1 1 1.7 1 .6 1.5.8 1.3 1.8-.1.6-.5 1.3-.7 1.8-.1.3.2.6-.3.8-.4.2-1.3-.4-1.6-.6-1.7-.9-9.2-2-11.4-2.5-2.2-.5-2.2 1.6-2 2.8.1.7.3-.1.7.5.6 1.1 7.2 2.1 8.4 2.6 1.2.5 1.1.8 2.6.7 1.1-.1 1.7-.2 2.8 0 1.4.2 4.2.2 5.5-.3 1.2-.5.3-1.4.4-2.3 0-1.1-.4-2-1-3-.7-1-.4-1.6.2-2.8z"/><linearGradient id="j" x1="15.257" x2="18.483" y1="108.346" y2="108.346" gradientUnits="userSpaceOnUse"><stop offset="0" stop-color="#f8ed37"/><stop offset="1" stop-color="#ffca06"/></linearGradient><path fill="url(#j)" stroke="#000" stroke-width=".25" d="M15.3 107l3.2 1.4-1.8 1.3z"/><linearGradient id="k" x1=".424" x2="22.398" y1="116.597" y2="116.597" gradientUnits="userSpaceOnUse"><stop offset="0" stop-color="#950799"/><stop offset=".14" stop-color="#9c15a2"/><stop offset=".404" stop-color="#af39bb"/><stop offset=".761" stop-color="#cc74e2"/><stop offset="1" stop-color="#e29fff"/></linearGradient><path fill="url(#k)" d="M5 108.2c-1.2 0-2.9 0-4.6-.1v12.2c0 2 .8 3.9 2.1 5.3 3 0 5.7 0 7.1-.1 10.7-.8 12.3-1.9 12.8-1.9s-7.5-15.6-7.9-15.9c-.5-.4-6.3.5-9.5.5z"/><linearGradient id="l" x1="18.971" x2="22.035" y1="106.51" y2="106.51" gradientUnits="userSpaceOnUse"><stop offset="0" stop-color="#f94e19"/><stop offset="1"/></linearGradient><path fill="url(#l)" stroke="#000" stroke-width=".25" d="M20.7 104.1s-2.1 1.7-1.6 3c.5 1.4 1.6 1.8 1.6 1.8s.3-1.2 1-2.9.2-2 .2-2l-1.2.1z"/><linearGradient id="m" x1=".424" x2="24.626" y1="99.502" y2="99.502" gradientUnits="userSpaceOnUse"><stop offset="0" stop-color="#f94e19"/><stop offset=".685" stop-color="#4f1908"/><stop offset="1"/></linearGradient><path fill="url(#m)" stroke="#000" stroke-width=".25" d="M5.3 90.3c-1.2 0-2.9.3-4.9.7v17.8c6.4 0 9.6-.4 12.1-.4 2.6 0 5-1.3 6.7-2.1 1.7-.8 3.1-2.7 3.4-4s.7-2.9.4-3.2c-.4-.4 1.6-4.7 1.6-5.5 0-4.4-14.9-3.3-19.3-3.3z"/><linearGradient id="n" x1="23.226" x2="29.543" y1="104.03" y2="104.03" gradientUnits="userSpaceOnUse"><stop offset="0" stop-color="#f94e19"/><stop offset=".685" stop-color="#4f1908"/><stop offset="1"/></linearGradient><path fill="url(#n)" stroke="#000" stroke-width=".25" d="M23.2 103.4s1.5 2 3.4 2.1c1.9.1 2.9-.5 2.9-.5s-1.5-.6-3.4-1.6c-1.9-1.1-2.6-.8-2.6-.8l-.3.8z"/><linearGradient id="o" x1="7.16" x2="8.126" y1="111.362" y2="111.362" gradientUnits="userSpaceOnUse"><stop offset="0" stop-color="#fbf49b"/><stop offset=".185" stop-color="#fce975"/><stop offset=".45" stop-color="#fddc46"/><stop offset=".683" stop-color="#fed223"/><stop offset=".875" stop-color="#ffcc0e"/><stop offset="1" stop-color="#ffca06"/></linearGradient><ellipse cx="7.6" cy="111.4" fill="url(#o)" stroke="#000" stroke-width=".25" rx=".5" ry=".4"/><linearGradient id="p" x1="7.652" x2="8.617" y1="110.629" y2="110.629" gradientUnits="userSpaceOnUse"><stop offset="0" stop-color="#fbf49b"/><stop offset=".185" stop-color="#fce975"/><stop offset=".45" stop-color="#fddc46"/><stop offset=".683" stop-color="#fed223"/><stop offset=".875" stop-color="#ffcc0e"/><stop offset="1" stop-color="#ffca06"/></linearGradient><ellipse cx="8.1" cy="110.6" fill="url(#p)" stroke="#000" stroke-width=".25" rx=".5" ry=".4"/><linearGradient id="q" x1="6.755" x2="7.72" y1="110.298" y2="110.298" gradientUnits="userSpaceOnUse"><stop offset="0" stop-color="#fbf49b"/><stop offset=".185" stop-color="#fce975"/><stop offset=".45" stop-color="#fddc46"/><stop offset=".683" stop-color="#fed223"/><stop offset=".875" stop-color="#ffcc0e"/><stop offset="1" stop-color="#ffca06"/></linearGradient><ellipse cx="7.2" cy="110.3" fill="url(#q)" stroke="#000" stroke-width=".25" rx=".5" ry=".4"/><linearGradient id="r" x1="6.31" x2="7.276" y1="111.044" y2="111.044" gradientUnits="userSpaceOnUse"><stop offset="0" stop-color="#fbf49b"/><stop offset=".185" stop-color="#fce975"/><stop offset=".45" stop-color="#fddc46"/><stop offset=".683" stop-color="#fed223"/><stop offset=".875" stop-color="#ffcc0e"/><stop offset="1" stop-color="#ffca06"/></linearGradient><ellipse cx="6.8" cy="111" fill="url(#r)" stroke="#000" stroke-width=".25" rx=".5" ry=".4"/><linearGradient id="s" x1="2.485" x2="4.056" y1="125.674" y2="125.674" gradientUnits="userSpaceOnUse"><stop offset="0" stop-color="#950799"/><stop offset=".14" stop-color="#9c15a2"/><stop offset=".404" stop-color="#af39bb"/><stop offset=".761" stop-color="#cc74e2"/><stop offset="1" stop-color="#e29fff"/></linearGradient><ellipse cx="3.3" cy="125.7" fill="url(#s)" rx=".8" ry=".5"/><linearGradient id="t" x1="4.094" x2="5.665" y1="125.63" y2="125.63" gradientUnits="userSpaceOnUse"><stop offset="0" stop-color="#950799"/><stop offset=".14" stop-color="#9c15a2"/><stop offset=".404" stop-color="#af39bb"/><stop offset=".761" stop-color="#cc74e2"/><stop offset="1" stop-color="#e29fff"/></linearGradient><ellipse cx="4.9" cy="125.6" fill="url(#t)" rx=".8" ry=".5"/><linearGradient id="u" x1="5.625" x2="7.196" y1="125.603" y2="125.603" gradientUnits="userSpaceOnUse"><stop offset="0" stop-color="#950799"/><stop offset=".14" stop-color="#9c15a2"/><stop offset=".404" stop-color="#af39bb"/><stop offset=".761" stop-color="#cc74e2"/><stop offset="1" stop-color="#e29fff"/></linearGradient><ellipse cx="6.4" cy="125.6" fill="url(#u)" rx=".8" ry=".5"/><linearGradient id="v" x1="7.214" x2="8.784" y1="125.488" y2="125.488" gradientUnits="userSpaceOnUse"><stop offset="0" stop-color="#950799"/><stop offset=".14" stop-color="#9c15a2"/><stop offset=".404" stop-color="#af39bb"/><stop offset=".761" stop-color="#cc74e2"/><stop offset="1" stop-color="#e29fff"/></linearGradient><ellipse cx="8" cy="125.5" fill="url(#v)" rx=".8" ry=".5"/><linearGradient id="w" x1="8.764" x2="10.336" y1="125.492" y2="125.492" gradientUnits="userSpaceOnUse"><stop offset="0" stop-color="#950799"/><stop offset=".14" stop-color="#9c15a2"/><stop offset=".404" stop-color="#af39bb"/><stop offset=".761" stop-color="#cc74e2"/><stop offset="1" stop-color="#e29fff"/></linearGradient><ellipse cx="9.6" cy="125.5" fill="url(#w)" rx=".8" ry=".5"/><linearGradient id="x" x1="10.283" x2="11.855" y1="125.274" y2="125.274" gradientUnits="userSpaceOnUse"><stop offset="0" stop-color="#950799"/><stop offset=".14" stop-color="#9c15a2"/><stop offset=".404" stop-color="#af39bb"/><stop offset=".761" stop-color="#cc74e2"/><stop offset="1" stop-color="#e29fff"/></linearGradient><ellipse cx="11.1" cy="125.3" fill="url(#x)" rx=".8" ry=".5"/><linearGradient id="y" x1="11.842" x2="13.413" y1="125.122" y2="125.122" gradientUnits="userSpaceOnUse"><stop offset="0" stop-color="#950799"/><stop offset=".14" stop-color="#9c15a2"/><stop offset=".404" stop-color="#af39bb"/><stop offset=".761" stop-color="#cc74e2"/><stop offset="1" stop-color="#e29fff"/></linearGradient><ellipse cx="12.6" cy="125.1" fill="url(#y)" rx=".8" ry=".5"/><linearGradient id="z" x1="13.352" x2="14.923" y1="124.958" y2="124.958" gradientUnits="userSpaceOnUse"><stop offset="0" stop-color="#950799"/><stop offset=".14" stop-color="#9c15a2"/><stop offset=".404" stop-color="#af39bb"/><stop offset=".761" stop-color="#cc74e2"/><stop offset="1" stop-color="#e29fff"/></linearGradient><ellipse cx="14.1" cy="125" fill="url(#z)" rx=".8" ry=".5"/><linearGradient id="A" x1="14.896" x2="16.468" y1="124.767" y2="124.767" gradientUnits="userSpaceOnUse"><stop offset="0" stop-color="#950799"/><stop offset=".14" stop-color="#9c15a2"/><stop offset=".404" stop-color="#af39bb"/><stop offset=".761" stop-color="#cc74e2"/><stop offset="1" stop-color="#e29fff"/></linearGradient><ellipse cx="15.7" cy="124.8" fill="url(#A)" rx=".8" ry=".5"/><linearGradient id="B" x1="16.348" x2="17.919" y1="124.463" y2="124.463" gradientUnits="userSpaceOnUse"><stop offset="0" stop-color="#950799"/><stop offset=".14" stop-color="#9c15a2"/><stop offset=".404" stop-color="#af39bb"/><stop offset=".761" stop-color="#cc74e2"/><stop offset="1" stop-color="#e29fff"/></linearGradient><ellipse cx="17.1" cy="124.5" fill="url(#B)" rx=".8" ry=".5"/><linearGradient id="C" x1="17.791" x2="19.362" y1="124.161" y2="124.161" gradientUnits="userSpaceOnUse"><stop offset="0" stop-color="#950799"/><stop offset=".14" stop-color="#9c15a2"/><stop offset=".404" stop-color="#af39bb"/><stop offset=".761" stop-color="#cc74e2"/><stop offset="1" stop-color="#e29fff"/></linearGradient><ellipse cx="18.6" cy="124.2" fill="url(#C)" rx=".8" ry=".5"/><linearGradient id="D" x1="19.3" x2="20.923" y1="123.901" y2="123.901" gradientUnits="userSpaceOnUse"><stop offset="0" stop-color="#950799"/><stop offset=".14" stop-color="#9c15a2"/><stop offset=".404" stop-color="#af39bb"/><stop offset=".761" stop-color="#cc74e2"/><stop offset="1" stop-color="#e29fff"/></linearGradient><ellipse cx="20.1" cy="123.9" fill="url(#D)" rx=".8" ry=".5"/><linearGradient id="E" x1="20.776" x2="22.347" y1="123.55" y2="123.55" gradientUnits="userSpaceOnUse"><stop offset="0" stop-color="#950799"/><stop offset=".14" stop-color="#9c15a2"/><stop offset=".404" stop-color="#af39bb"/><stop offset=".761" stop-color="#cc74e2"/><stop offset="1" stop-color="#e29fff"/></linearGradient><ellipse cx="21.6" cy="123.6" fill="url(#E)" rx=".8" ry=".5"/><linearGradient id="F" x1="118.846" x2="119.295" y1="-152.99" y2="-152.99" gradientTransform="rotate(-82.097 218.606 36.996)" gradientUnits="userSpaceOnUse"><stop offset="0" stop-color="#950799"/><stop offset=".14" stop-color="#9c15a2"/><stop offset=".404" stop-color="#af39bb"/><stop offset=".761" stop-color="#cc74e2"/><stop offset="1" stop-color="#e29fff"/></linearGradient><path fill="url(#F)" stroke="#000" stroke-width=".25" d="M16.8 109.2c.2 0 .3.1.3.3 0 .1-.2.2-.4.2s-.3-.1-.3-.3c0-.1.2-.2.4-.2z"/><linearGradient id="G" x1="119.162" x2="119.611" y1="-152.671" y2="-152.671" gradientTransform="rotate(-82.097 218.606 36.996)" gradientUnits="userSpaceOnUse"><stop offset="0" stop-color="#950799"/><stop offset=".14" stop-color="#9c15a2"/><stop offset=".404" stop-color="#af39bb"/><stop offset=".761" stop-color="#cc74e2"/><stop offset="1" stop-color="#e29fff"/></linearGradient><path fill="url(#G)" stroke="#000" stroke-width=".25" d="M17.1 109c.2 0 .3.1.3.3 0 .1-.2.2-.4.2s-.3-.1-.3-.3c.1-.2.3-.2.4-.2z"/><linearGradient id="H" x1="119.498" x2="119.946" y1="-152.35" y2="-152.35" gradientTransform="rotate(-82.097 218.606 36.996)" gradientUnits="userSpaceOnUse"><stop offset="0" stop-color="#950799"/><stop offset=".14" stop-color="#9c15a2"/><stop offset=".404" stop-color="#af39bb"/><stop offset=".761" stop-color="#cc74e2"/><stop offset="1" stop-color="#e29fff"/></linearGradient><path fill="url(#H)" stroke="#000" stroke-width=".25" d="M17.5 108.7c.2 0 .3.1.3.3 0 .1-.2.2-.4.2s-.3-.1-.3-.3c.1-.1.2-.2.4-.2z"/><linearGradient id="I" x1="119.887" x2="120.337" y1="-151.983" y2="-151.983" gradientTransform="rotate(-82.097 218.606 36.996)" gradientUnits="userSpaceOnUse"><stop offset="0" stop-color="#950799"/><stop offset=".14" stop-color="#9c15a2"/><stop offset=".404" stop-color="#af39bb"/><stop offset=".761" stop-color="#cc74e2"/><stop offset="1" stop-color="#e29fff"/></linearGradient><path fill="url(#I)" stroke="#000" stroke-width=".25" d="M17.9 108.3c.2 0 .3.1.3.3 0 .1-.2.2-.4.2s-.3-.1-.3-.3c.1-.1.2-.2.4-.2z"/><linearGradient id="J" x1="120.275" x2="120.725" y1="-151.62" y2="-151.62" gradientTransform="rotate(-82.097 218.606 36.996)" gradientUnits="userSpaceOnUse"><stop offset="0" stop-color="#950799"/><stop offset=".14" stop-color="#9c15a2"/><stop offset=".404" stop-color="#af39bb"/><stop offset=".761" stop-color="#cc74e2"/><stop offset="1" stop-color="#e29fff"/></linearGradient><path fill="url(#J)" stroke="#000" stroke-width=".25" d="M18.3 108c.2 0 .3.1.3.3 0 .1-.2.2-.4.2s-.3-.1-.3-.3c.1-.1.3-.2.4-.2z"/><linearGradient id="K" x1="5.24" x2="9.309" y1="90.121" y2="90.121" gradientUnits="userSpaceOnUse"><stop offset="0" stop-color="#f94e19"/><stop offset=".685" stop-color="#4f1908"/><stop offset="1"/></linearGradient><path fill="url(#K)" d="M5.2 92.6s.5-.2 2.3-2.2c1.8-2 1.8-2.7 1.8-2.7"/><linearGradient id="L" x1="10.051" x2="11.089" y1="90.734" y2="90.734" gradientUnits="userSpaceOnUse"><stop offset="0" stop-color="#f94e19"/><stop offset=".685" stop-color="#4f1908"/><stop offset="1"/></linearGradient><path fill="url(#L)" d="M11.1 92s-.3-1.5-1-2.5"/><linearGradient id="M" x1="22.516" x2="24.096" y1="103.996" y2="103.996" gradientUnits="userSpaceOnUse"><stop offset="0" stop-color="#f94e19"/><stop offset=".685" stop-color="#4f1908"/><stop offset="1"/></linearGradient><path fill="url(#M)" d="M24 99.3s.3.6-.1 4.2-1.2 4.3-1.3 5.2"/><linearGradient id="N" x1="21.328" x2="24.592" y1="95.802" y2="95.802" gradientUnits="userSpaceOnUse"><stop offset="0" stop-color="#f94e19"/><stop offset=".685" stop-color="#4f1908"/><stop offset="1"/></linearGradient><path fill="url(#N)" d="M21.3 93.2s1.5.8 2.2 2c.7 1.3 1 3.2 1 3.2"/><linearGradient id="O" x1="14.947" x2="18.806" y1="88.47" y2="88.47" gradientUnits="userSpaceOnUse"><stop offset="0" stop-color="#f94e19"/><stop offset=".685" stop-color="#4f1908"/><stop offset="1"/></linearGradient><path fill="url(#O)" d="M14.9 87.8s2.8.2 3.9 1.4"/><linearGradient id="P" x1=".424" x2="20.117" y1="106.627" y2="106.627" gradientUnits="userSpaceOnUse"><stop offset="0" stop-color="#f94e19"/><stop offset=".685" stop-color="#4f1908"/><stop offset="1"/></linearGradient><path fill="url(#P)" d="M.4 109.1c1.5-.8 3-1.6 4.3-1.9.2 1.7-4.1 6.4 2.2 5 4-.9 5.1-4.5 7.4-6.7-.8 1.8-3.2 5.6-2.6 7.4 3.8-.6 7.9-4.3 8.5-7.1L.5 100.4v8.7z"/><linearGradient id="Q" x1="1.998" x2="28.227" y1="95.145" y2="95.145" gradientUnits="userSpaceOnUse"><stop offset="0" stop-color="#f94e19"/><stop offset=".685" stop-color="#4f1908"/><stop offset="1"/></linearGradient><path fill="url(#Q)" d="M12 83.7c-1.1-.8-3.3-3.2-10-3.3v24.2c.4-.1.7-.2 1-.4 2.9-1.4.9-.7.9.9 0 .7-1 .8-1.9.7v.2c2.7 1.7 9.7 9.1 9.1-2.4-.1-1.5 3.4 2.4 3.4 2.4s1.5-.3 1.3-1.6c-.2-1.3 2.9.8 3.7.9.8.1 2.6-9 3.8-5.7 1.3 3.7-.7 9.5-.7 9.5s1.5-.1 2.6-1.6 2.8-5.1 3.1-8.4c.3-3.3-1.6-7.2-5.8-11.9-4.4-4.7-9.4-2.7-10.5-3.5z"/><linearGradient id="R" x1=".424" x2="13.598" y1="93.856" y2="93.856" gradientUnits="userSpaceOnUse"><stop offset="0" stop-color="#f94e19"/><stop offset=".685" stop-color="#4f1908"/><stop offset="1"/></linearGradient><path fill="url(#R)" d="M.4 87.6v7.6c.8 2.1 1.4 5 4.4 5 4.4-.1 1.8-4.6.4-6.4 1.8 2 5.2 3.3 8.4 2.9-2-5.3-7.8-6.8-13.2-9.1z"/><path fill="#A85618" d="M22.1 125l-22.1.6c.1.6 0 3.4 0 3.4h26.8l-4.7-4zm.7-14.5H.4v2.2c11-.1 23.5-.2 24.6 0 1.9.6-2.2-2.2-2.2-2.2z"/><path fill="#CC7A36" d="M25.5 112.5c.3 0-13.5.1-25.1.2v7.5c0 2-.1 3.7-.4 5.3 9.2-.2 22-.4 23-.7 1.8-.5 4-10.6 4-11.5-.1-.8-2-.8-1.5-.8z"/><path fill="#AFAFAF" stroke="#727271" d="M15.6 123.7c-.6-1.3-1.3-2-3.1-2.8-1.1-.5-7.1-.3-12 0 .1.8.3 1.6.6 2.4 4.2-.1 10.5-.3 10.9 0 .4.3 1.2 3.2 1.6 5h3.3c-.4-1.5-.9-3.8-1.3-4.6z"/><linearGradient id="S" x1=".424" x2="26.799" y1="97.166" y2="97.166" gradientUnits="userSpaceOnUse"><stop offset="0" stop-color="#f94e19"/><stop offset=".685" stop-color="#4f1908"/><stop offset="1"/></linearGradient><path fill="url(#S)" d="M19.7 89c-2.2-2.9-4.5-4.3-9-4.2-1.5-1.3-5.2-2.3-7.2-2.7-1-.2-2-.3-3.1-.3v27.7c1.6-1 3.4-1.7 3.8-.1.4 1.4-1.6 3.9 2.2 3 2.5-.6 4.9-2.7 7-3.8-.1 1.3-1.2 2.5-1.3 3.8 2.9 1.2 5.5-3.2 6.8-4.4.3.9 1.2 1.8 2.2 2.3.8-2 .8-4.3 1.8-6.4.1 2.2-.2 4.4-1.5 6.4 2.7-.5 4.2-4.9 4.7-6.7.7-2.2 1.2-5 0-7.2-1.6-2.7-4.5-4.9-6.4-7.4z"/><path fill="#CC7A36" d="M100.3 89l-17.2 17 74.2 1.3-14-18.3z"/><path fill="#E8ECDB" d="M134.8 102.7s4.8 1.2 5.7.7c1-.5 2-1.3 2.1-1.7.1-.4-1-2.3-1.4-2.3-.5 0-2.6-.3-3.4-.1-.8.2-1.9.8-2.3.9-.4.1-1.4 1.1-1.4 1.1l-.2.8.9.6z"/><path fill="#DDE2CD" d="M134.4 101.3s1.4-.3 1.7-.6c.3-.2.9-1.1.9-1.1s-1.7.6-1.6.6l-.8.8-.2.3z"/><path fill="#DDE2CD" d="M133.9 102s.6.6 1.4.8c.8.2 2.7.6 3.7.6s1.6-.1 1.6-.1 1.2-.7 1.4-.9c.2-.1.8-.9.8-.9s.2-.6-.7.2c-.9.8-1.2 1.3-1.8 1.3-.6 0-2.1-.1-2.4-.1-.4 0-1.3-.1-1.6-.3-.3-.2-1.2-.6-1.2-.6s-.4-.1-.4-.3c-.1-.2-.1-.5-.1-.5l-.4.1-.3.7z" opacity=".44"/><path fill="none" d="M134.1 101.2s3.7-1.4 4.9-1.1c1.2.3 1.3.3 1.7.5.4.1 1.5.6 1.5.6l.4.4"/><path fill="#BC692A" d="M92.4 108l56.5.6 1.6 3.6-61.5-.7z"/><path fill="#A85618" d="M83.1 106v1.9l74.2 1v-1.6z"/><path fill="#A0531F" d="M92.4 108l-3.4 3.5-.6-3.5zm58.4 4.2l-.6.1-1.3-3.7 3.1.2z"/><path fill="#BC692A" d="M94 128.4L89.8 112h2.5l3.2 16.4zm53.2-15.8l-1.4 15.8h1.9l1.9-15.8z"/><linearGradient id="T" x1="86.79" x2="110.87" y1="91.383" y2="91.383" gradientUnits="userSpaceOnUse"><stop offset="0" stop-color="#ffedc4"/><stop offset=".322" stop-color="#ffe7b6"/><stop offset=".928" stop-color="#ffd692"/><stop offset="1" stop-color="#ffd48d"/></linearGradient><path fill="url(#T)" stroke="#DB9C5E" stroke-width=".25" d="M96.9 84.5c.2-1 .2-1.8.1-2.8-.1-.7.7-1.7-.2-2.1-1.2-.6-1.4 1.1-1.6 1.6-1.8-1.2-.9-3-1.8-4.3-1.7-2.4-.8 2.7-.9 3.1-1.3-.3-2.3-2.5-2.6-3.6-1.4-.6-1.5.6-1.1 1.5.4.8 1.2 1.6 1.6 2.5-1.6.3-2-2-3.3-2.1-.6 1.5 1.9 2.7 2.8 3.7-.6.7-1.5-.7-2.2-.8-1.6-.4-.9.7-.1 1.4.9.7 2.1.8 3 1.5.7.5 1.4 1.5 2.1 2.1 2.6 2.6 4.2 6.1 6.1 9 .5.8.7 1.6 1.3 2.4.5.7 1.3 1.4 1.9 2.1l3.9 4.2c.6.7 1.3 1.5 2.1 2.1 1.5 1 1.4 0 1.8-.9.4-1 1-2 1-3.1 0-1.6-1-1.4-2.3-2.1-2.1-1.3-3.9-4.1-5.3-6-1.3-1.8-2.8-3.3-4.2-5-1.2-1.6-2.5-2.8-2.1-4.4z"/><linearGradient id="U" x1="128.005" x2="139.994" y1="104.923" y2="104.923" gradientUnits="userSpaceOnUse"><stop offset="0" stop-color="#ffedc4"/><stop offset=".322" stop-color="#ffe7b6"/><stop offset=".928" stop-color="#ffd692"/><stop offset="1" stop-color="#ffd48d"/></linearGradient><path fill="url(#U)" stroke="#DB9C5E" stroke-width=".25" d="M139.2 102.4c.3-.6.1-1.9-.7-2.3-.3.2-.4.4-.4.7 0-.4-.2-1-.9-.8 0 .2-.1.3 0 .5-.3-1.4-4.2-.6-1.6.2-.6.9-.9-.5-1.5-.6-1.1-.1.2.9.3 1.2.3.7 0 1 .8 1.5s1.3.7 1.1 1.6c-.1.5-.4 1.1-.5 1.6-.1.3.2.5-.2.7-.4.2-1.1-.3-1.3-.5-1.4-.8-2.7-1.8-4.4-2.2-1.8-.4-1.8 1.4-1.6 2.4.1.6.3 1 .6 1.6.5.9 5.5 1.6 6.4 1.7 1.2.2 3.4.2 4.5-.3 1-.4 0-3.7-.5-4.6-.8-.8-.6-1.4-.1-2.4z"/><path fill="#A85618" d="M134.6 129l-1.9-4.1h-29l-1.9 4.1zm-47.1-16.8l-.7-4.2h1.6l.6 3.5 61.8.7 1.2-3.4h1.4l-1.2 3.8z"/><path fill="#C92026" stroke="#B82025" stroke-width=".25" d="M109.9 103.6s-5.9 16.9-5.3 17.5c.7.6 14.3 1 17.7.7 9-.9 10.3-2 10.8-2 .4 0-6.3-16.1-6.7-16.4-.4-.3-5.2.6-8 .6-2.6-.2-8-.4-8.5-.4z"/><linearGradient id="V" x1="99.957" x2="133.94" y1="95.474" y2="95.474" gradientUnits="userSpaceOnUse"><stop offset="0" stop-color="#ee4851"/><stop offset="1" stop-color="#f89c1c"/></linearGradient><path fill="url(#V)" d="M133.3 95.1c-.3-.4.6-4.7.6-5.6 0-4.5-12.9-3.5-17.1-3.5-4.2 0-15.9 3.8-16.5 4.5-.7.8.8 5.8.8 5.8s-.8 4.8-1 5.3c-.4 1 4 3.4 10.9 3.4s10.3-.4 12.8-.4 4.8-1.3 6.5-2.1l3.7-7.4"/><path fill="#F7F8F9" d="M128.6 119.7s-.3-.1-.4-.4c-.1-.3-4.3-4.2-3.1-4.3.7 0 4.3 4.4 4.4 4.2.2-.2-.8-1.2-1.2-1.8-.4-.7-3.1-4.4-3.3-4.9-.1-.4 3.5 3.5 4 4.2.5.7 1.6 1.9 1.8 1.7.3-.2-.2-1-.6-1.5-.4-.5-2.3-2.5-2.2-2.7.1-.4 2.7 2.4 2.8 2.1 0-.2-2.1-2.5-2.2-2.8 0-.3.7.1.8.2.1.1 1.2.6 1.3.5.1-.1-1.4-1.4-1.7-1.5-.3-.1 0-.4.2-.4s1.6.5 1.6.6c0 .1.3.9.6 1.5.4.7 1 2 1.1 2.4.1.4.8 1.9.7 2.4-.1.5-1.8 1.1-2.2 1.2-.3.1-1.1.4-1.4.5l-1-1.2m-23 1s-.9 0-.8-.5c0-.1 2.1-2.4 2.8-3.2.7-.8 2-3.1 2.6-3.1.5.1-1.6 3.2-2.2 4-.7.9-2.4 2.8-2.4 2.8zm3.8.7c-.2 0-1.3-.4-1.2-1.5.1-1.1.7-1.6 1-2 .2-.3 1-.6.2-.7-.5-.1-1.8 1.7-2.1 2.2-.3.5-.9 1.2-.8 1.4.1.1.5.2.9.3.5.3 2 .3 2 .3z" opacity=".21"/><linearGradient id="W" x1="80.224" x2="83.577" y1="113.34" y2="113.34" gradientTransform="rotate(-4.365 -114.807 -110.62)" gradientUnits="userSpaceOnUse"><stop offset="0" stop-color="#ffedc4"/><stop offset=".322" stop-color="#ffe7b6"/><stop offset=".928" stop-color="#ffd692"/><stop offset="1" stop-color="#ffd48d"/></linearGradient><path fill="url(#W)" stroke="#ECECEC" stroke-width=".25" d="M99.7 96.1s-1.6-.8-2.1-.3-1 1.6-.9 2.1c.1.6 1.7 1.9 2.1 1.9.4 0 1.4-.1 1.4-.1l-.5-3.6z"/><linearGradient id="X" x1="148.48" x2="151.808" y1="106.027" y2="106.027" gradientTransform="rotate(4.44 262.842 -109.188)" gradientUnits="userSpaceOnUse"><stop offset="0" stop-color="#ffedc4"/><stop offset=".322" stop-color="#ffe7b6"/><stop offset=".928" stop-color="#ffd692"/><stop offset="1" stop-color="#ffd48d"/></linearGradient><path fill="url(#X)" stroke="#ECECEC" stroke-width=".25" d="M132.3 95.1s1.4-.9 2-.5c.6.4 1.2 1.5 1.2 2 0 .6-1.4 2.1-1.8 2.1h-1.4v-3.6z"/><linearGradient id="Y" x1="97.48" x2="134.718" y1="94.776" y2="94.776" gradientUnits="userSpaceOnUse"><stop offset="0" stop-color="#ee4851"/><stop offset="1" stop-color="#f89c1c"/></linearGradient><path fill="url(#Y)" d="M104 108.2c0 .2-1 .9-1.6 1.1-.6.2-.5.2-1 .3-.5 0-1.7 0-2.2-.5-.5-.4-1-1.1-1.1-2.5-.1-1.4 0-1.7.1-2.1.1-.3.8-1.4 1.2-1.9.3-.5.7-.8.8-1.8.1-1-.3-2.3-.6-2.7-.3-.4-1.1-1.2-1.3-1.5-.2-.3-.8-1.6-.8-2.1s-.1-1.5 0-1.7c0-.2 1.6-3.5 2.1-4.3.5-.7 5.6-6 6.8-6.5 0 0 5.9-1.9 9.2-2 3.3-.1 8.2 1.1 9.6 1.8 1.4.7 4.8 2.6 5.8 3.3 1.1.8 2.1 1.6 2.5 2.4.4.8 1.1 2.3 1.1 2.5 0 .3.3 2-.2 2.8-.4.8-2 4.2-2 5 0 .9 1.2 3.2 1.5 3.8.3.5.3 2.6.1 3.4-.2.9-.9 2-1.8 2s-1.9 0-2.7-.6c-.7-.6-.8-.6-.5-.9.3-.3 1.5.2 1.9-.5.4-.7.6-1.5.3-2.4-.4-.9-2.2-3-1.7-5.3.4-2.3.7-2.5 1.3-3.5.6-1 .8-1.9.8-2.9 0-1.1.3-1.5 0-1.6-.3-.2-1.2-.5-2.9-.3s-4.5.5-5.7.7c-1.2.1-1.4.3-2.3-.2-.9-.4-1.9-2.6-3.1-2.5-1.2.1-2.2 2.9-2.2 3 0 .1-9.6.1-10.2.1-.7 0-3.6.8-4.1 1.6-.5.8-.9 1.6-.6 2.7.3 1.1.4 1.4 1.5 2.4 1.1 1.1 1.1 2 1.1 2.8.1.9-.1 2.7-.5 3.4-.4.7-1.4 1.8-1.5 2.3-.1.5 0 1.7.2 1.8.2.1-.2.7.5.9.7.1 2.2.2 2.2.2z"/><linearGradient id="Z" x1="126.908" x2="133.852" y1="80.076" y2="80.076" gradientUnits="userSpaceOnUse"><stop offset="0" stop-color="#ee4851"/><stop offset="1" stop-color="#f89c1c"/></linearGradient><path fill="url(#Z)" d="M126.9 80.9c.3.2 4.2 2 5.4 1.4 1.1-.6 2.1-2.9 1.3-3.6-3-2.4-4.9.5-5.5 1.1-.5.4-1.2 1.1-1.2 1.1z"/><path fill="#F8F7F6" d="M129.5 80.7c.1.1 2 .7 2.4.5.4-.2.6-1.1.3-1.4-1.1-.8-1.8.1-2 .3-.2.2-.7.6-.7.6z" opacity=".14"/><linearGradient id="aa" x1="96.749" x2="104.57" y1="81.34" y2="81.34" gradientUnits="userSpaceOnUse"><stop offset="0" stop-color="#ee4851"/><stop offset="1" stop-color="#f89c1c"/></linearGradient><path fill="url(#aa)" d="M104.6 80.8c-.2.4-3.3 3.8-4.8 3.4-1.4-.3-3.5-2.7-3-3.8 2-3.8 5.2-1.1 6.1-.6.7.4 1.7 1 1.7 1z"/><path fill="#F8F7F6" d="M102.2 81.4c-.1.2-2 1.8-2.6 1.7-.6-.1-1.4-1.3-1.2-1.8.8-1.6 2.2-.6 2.6-.4.3 0 1.2.5 1.2.5z" opacity=".14"/><path fill="#FFF" stroke="#FFF" stroke-width=".25" d="M107.1 105.6s.3-.1.4 0c.1.1-.1.1 0 .2.1 0 .2.1.2.1s.3-.1.4 0c.1.1 0 .2 0 .3l.2.1s.1-.1.3 0c.2.1 0 .1 0 .2s.4.2.4.2l.6-2.1-2.5 1zm20.6.3s-.1-.3.1-.3.2.1.2 0l.1-.1s-.1-.3 0-.3c.1-.1.3 0 .3 0l.2-.2s-.1-.1.1-.3c.2-.2.2 0 .2 0 .2 0 .4-.3.4-.3l-2.6-.6 1 2.1z"/><linearGradient id="ab" x1="97.865" x2="134.394" y1="94.813" y2="94.813" gradientUnits="userSpaceOnUse"><stop offset="0" stop-color="#ee4851"/><stop offset="1" stop-color="#f89c1c"/></linearGradient><path fill="url(#ab)" d="M129.1 105.5s1.5.4 2.3-.2c.7-.6.5-1.6.4-2.3-.1-.7-.6-1.2-1.1-2.1-.5-.8-.9-1.9-.9-2.8 0-.9.3-3.7 1-4.3.7-.7 1.6-3 1.3-4-.2-1-.6-1.4-1.9-1.4-1.4 0-5.4.6-6.4.7-1.1.1-1.8.5-2.2.3-.4-.2-2.8-3.1-3.9-3-1.1.1-2.2 3.3-2.6 3.3-.4 0-9 0-10.1.1-1.1.2-3.8 1.2-4.4 2-.6.8-.7 2.2-.2 3.2.5 1 2.2 2.4 2.4 3.5.2 1.1.2 1.9 0 2.9s-.6 1.5-1.3 2.4c-.7 1-.9 2.4-.8 2.7.1.3-.1.8.3 1.2.4.4.8.7 1.3.7h1.2s.3.1-.3.4c-.6.3-1.1.5-1.7.6-.6 0-1.6-.3-1.9-.4-.2-.1-.9-.9-.9-1.9 0-1-.2-1.4.2-2.5.5-1.1 1.9-2.9 1.9-3.6-.1-.7 0-1.5-.4-2.3-.4-.8-1.5-1.9-1.9-2.5-.5-.6-.8-2.1-.5-3.2.2-1.1.7-1.9.9-2.6.2-.7 1.5-1.8 1.8-2.3.3-.6 1.4-1.7 1.6-1.9.2-.2 3.6-3.7 6.1-4.4 2.5-.7 5.2-1.6 7.5-1.5 2.4 0 7.9 1.5 9.3 1.9 1.4.4 5.9 3.2 6.9 4.3 1 1.1 1.5 1.8 1.7 2.5.2.7.7 1.5.5 2.6-.2 1.1-1.4 3.6-1.7 4.7-.3 1.1-.5 2-.2 3s.8 1.2 1.2 2.5c.4 1.3.4 2.2.2 2.9-.2.7-.2 1.5-.9 1.8-.7.3-1.2.5-1.9.2s-1.2-.4-1.4-.6c-.2-.2-.5-.6-.5-.6z"/><path fill="#69BC45" stroke="#55B848" stroke-width=".25" d="M132.3 82.3l-2.4 3.9s-1.3-1.1-3-1.9c-1.7-.7-1.8-.8-1.8-.8l1.9-2.6 5.3 1.4zm-32.8 1.6l4.8 3.1s.8-1.5 2.2-2.7C107.9 83 108 83 108 83l-3.5-2-5 2.9z"/><linearGradient id="ac" x1="99.392" x2="131.371" y1="85.942" y2="85.942" gradientUnits="userSpaceOnUse"><stop offset="0" stop-color="#ee4851"/><stop offset="1" stop-color="#f89c1c"/></linearGradient><path fill="url(#ac)" d="M99.4 90.7s8.3-9.9 17.2-9.6c9.1.3 11.1 3.9 14.6 5.4 1 .4-1.2.1-2.3.2-1.1.1-4.3 1-5.3.6-1-.5-5.3-3.3-6.2-3-.9.3-2.4 3-3.7 3.2-1.3.2-8.6.4-9.7.7-1.1.3-1.9.5-2.4.8-.5.4-2.2 1.7-2.2 1.7z" opacity=".44"/><linearGradient id="ad" x1="104.238" x2="127.584" y1="84.809" y2="84.809" gradientUnits="userSpaceOnUse"><stop offset="0" stop-color="#ee4851"/><stop offset="1" stop-color="#f89c1c"/></linearGradient><path fill="url(#ad)" d="M104.2 87.4s4.5-2.7 6.5-3.6c2-.9 3.4-1.5 4.8-1.5s4.4.2 6.5.9c2.1.7 4 1.8 4.8 2.2.7.4 1 .6.7.7-.3.1-2.2.5-2.7.5s-4.8-2.4-5.7-2.7c-1-.3-1.7-.5-2.2-.4-.5 0-1.6 1.2-2.1 1.6-.5.4-.5 1.1-1.1 1.3-.6.2-2.8.6-3.7.7-.9.1-2 .1-3 .2-1.2 0-2.8.1-2.8.1z"/><path fill="#F8F7F6" d="M106.2 86.8s7.5-4 10.6-4c3.1-.1 8.9 2.7 9 2.8.2.1-.4.1-.7.1-.2 0-6-2.2-6.8-2.4-.8-.2-1.4-.3-1.6-.3-.2 0-.8.3-1.3.7-.5.3-1.3.9-1.6 1.2-.3.3-.9.8-1.2 1-.3.2-.7.4-1.7.5-1 0-4.7.4-4.7.4zm-5.4 22.1s-2.5-1.6-1.9-3.8c.6-2.2 2.5-3.4 2.5-4 0-.6 1.1-.7 1.1-.7s-2.5 3.9-2.7 4.8c-.2.9 0 2.1.5 2.3.5.3 1.3 1.3 1.3 1.3l-.8.1zm31.7-17.5s-.1.1-.2.4c-.4.9-1.6 3.4-1.7 4.4-.2 1.2 0 3.3.6 3.4.6.1.3-1.5.3-2.1 0-.6.6-3 .6-3.7" opacity=".14"/><path fill="#F8F7F6" d="M106.2 93.6s7.5-4 10.6-4c3.1-.1 8.9 2.7 9 2.8.2.1-.4.1-.7.1-.2 0-6-2.2-6.8-2.4-.8-.2-1.4-.3-1.6-.3-.2 0-.8.3-1.3.7-.5.3-1.3.9-1.6 1.2-.3.3-.9.8-1.2 1-.3.2-.7.4-1.7.5-1 .1-4.7.4-4.7.4z" opacity=".22"/><path fill="#A85618" d="M103.5 112.2s-2.4 1.7-2.6 2c-.1.3 32.6-.5 34.2 0 1.6.5-1.8-2-1.8-2h-29.8z"/><path fill="#CC7A36" d="M104.1 125.6l-4.5-9.4s.1-.6.7-1.3c.6-.8 1.5-.7 1.5-.7s34.1-.2 33.7-.2c-.4-.1 1.2 0 1.2.8s-1.8 9.6-3.3 10.1c-1.4.3-29.3.7-29.3.7z"/><path fill="#AFAFAF" stroke="#727271" d="M125.9 129s-1.1-5.3-1.6-5.6c-.5-.4-11.7-.1-12.2 0-.7.1-1.5.9-1.7 1.5-.3 1.1-1.3 4.1-1.3 4.1h-2.8s2.2-6.5 3.3-7.1c1.6-.9 13.8-1.1 15.2-.4 1.5.7 2.1 1.1 2.6 2.2s1.2 5.3 1.2 5.3h-2.7z"/><path fill="#E8ECDB" d="M219.6 99.2c-.2.1-.3.1-.4.2-.4.1-1.4 1.1-1.4 1.1l-.2.8.9.7s.5.1 1.1.3v-3.1z"/><path fill="#DDE2CD" d="M218.1 100.6s1.4-.4 1.7-.6c.3-.2.9-1.1.9-1.1l-1.7.6-.8.8-.1.3z"/><path fill="none" d="M219.6 100.6v-.7c-1 .3-1.8.6-1.8.6l1.8.1z"/><linearGradient id="ae" x1="209.164" x2="219.266" y1="105.16" y2="105.16" gradientUnits="userSpaceOnUse"><stop offset="0" stop-color="#ffedc4"/><stop offset=".322" stop-color="#ffe7b6"/><stop offset=".928" stop-color="#ffd692"/><stop offset="1" stop-color="#ffd48d"/></linearGradient><path fill="url(#ae)" d="M219.3 104c-2.3-.7-6.9-1.4-8.4-1.8-1.8-.4-1.8 1.4-1.6 2.5.1.6.3-.1.6.5.5 1 6 1.9 7 2.3 1 .4 2.4.6 2.5.6V104z"/><path fill="#F96B1C" stroke="#C1AA2F" stroke-width=".25" d="M210.7 102.5l-2 1.4-1.1-2zm-17.4-1.3l-4.1 2.4 3.1.7z"/><path fill="#F6E1AC" d="M183.2 91.4s-1.6-1-2.2-.5c-.6.5-1.2 1.6-1.2 2.2 0 .6 1.6 2.2 2 2.2h1.5l-.1-3.9z"/><path fill="#F96B1C" stroke="#C1AA2F" stroke-width=".25" d="M207.6 101.8s5.5 10 5.5 10.7c0 .7-8.5 1.7-11 1.7-2.4 0-13 .2-13.6-.3-.6-.5 3.5-9.2 3.9-10.3.4-1.2 1.1-2.5.9-2.6-.3-.2 5.6.5 7.3.5 1.8-.1 7 .3 7 .3z"/><path fill="#190800" d="M219.6 89.8c-3.6-1.1-13.1-3.1-17-3.1-4.7 0-20.9-.9-20.9 2.7 0 .7 2.1 4.3 1.8 4.6-.4.3 0 1.6.4 2.7s1.9 2.6 3.7 3.3c1.9.7 3.8 1.5 6.6 1.5s7.2.5 14.9.5c5.3 0 8.7-1 10.5-1.8V89.8z"/><path fill="#190800" d="M203.4 81.6c-5.4-.4-14.5-.3-16.8 2.2-1.7 1.8-5 3.2-4.9 5.5.4 6.4 1.1 6.3 1.9 6.4 1.1-2.7 2-7.3 6.4-8.1-.1.2-.1.7-.2.9 3.9.5 7.4-.3 11.4-.3s8.1.2 11.9 1c-.2-.2-.4-.6-.7-.9 1.6-.2 3.2 1.9 4.4 2.8 1 .7 2.1 1.3 2.8 2.2v-6.9h-.1c-4.1-2.8-10.7-4.3-16.1-4.8z"/><path fill="#0B2DA8" stroke="#030202" stroke-width=".25" d="M204.8 103.7s-5.5-.2-7.4 0c-1.9.2-3.1 6.1-3.4 7.7-.2 1.6-5.2-.1-5.9 1.1-.7 1.2.6 6.6.6 6.6s0-1.6 0 0 10.5 3.2 10 1.2 1.2-1.9 1.2-1.9-1.3-2.2 0 0 1.5 0 1.1 1.7c-.4 1.7 7.8 1.4 8.5.1.7-1.3 2.1 0 1.5-1.1-.7-1.1 2.1-6.6 2.1-6.6s-2.3-.8-4.2-.9c-2-.1-4.1-7.9-4.1-7.9z"/><path fill="#0B2DA8" stroke="#030202" stroke-width=".25" d="M208.2 102.4s-3.8-.1-3.4 1.3c.4 1.4-1.9-.1-1.9-.1l1.9-1.6 3.4.4zm-10.8 1.3l-1.5 1.1-1.7-3.3 1.7.4z"/><path fill="#051B6B" stroke="#FCD203" stroke-dasharray="1" stroke-width=".75" d="M198.3 121c1.1 0-.4-2.6 1.3-2.5-.8-.9-1.2.3-1.3.8-.1.4-.6 1.8-.1 1.8"/><linearGradient id="af" x1="848.097" x2="865.023" y1="103.182" y2="103.182" gradientTransform="matrix(-1 0 0 1 1039.875 0)" gradientUnits="userSpaceOnUse"><stop offset="0" stop-color="#ffedc4"/><stop offset=".322" stop-color="#ffe7b6"/><stop offset=".928" stop-color="#ffd692"/><stop offset="1" stop-color="#ffd48d"/></linearGradient><path fill="url(#af)" d="M175.7 100.7c-.3-.6-.1-1.9.7-2.3.3.2.4.5.5.7 0-.5.2-1 1-.8 0 .2.1.3 0 .5.3-1.4 4.2-.6 1.6.2.6.9.9-.5 1.5-.6 1.1-.1-.2.9-.3 1.3-.3.7 0 1-.8 1.5-.8.6-1.3.7-1.1 1.6.1.5.4 1.1.6 1.7.1.3-.2.6.2.7.4.2 1.1-.3 1.4-.5 1.4-.8 7.4-2.7 9.2-3.1 1.8-.4 1.8 1.4 1.6 2.5-.1.6-.3 1.1-.6 1.6-.5 1-5.6 1.9-6.7 2.1-1.5.3-7.9.8-9 .3-1-.4-.3-1.3-.3-2 0-1 .3-1.8.8-2.7.5-1.1.2-1.7-.3-2.7z"/><path fill="#A85618" d="M214.9 129l1.4-.9 1.1-1.2-1-2.1h-29.3l-2 4.2zm-28-17.3s-2.5 1.7-2.6 2c-.1.3 33-.5 34.6 0 1.6.5-1.8-2-1.8-2h-30.2z"/><path fill="#CC7A36" d="M187.5 125.5l-4.6-9.7s.1-.6.7-1.4c.6-.8 1.5-.7 1.5-.7s34.5-.2 34.1-.3c-.4-.1 1.2 0 1.2.8s-1.8 9.8-3.3 10.3c-1.5.6-29.6 1-29.6 1z"/><path fill="#AFAFAF" stroke="#727271" d="M209.5 129s-1.1-5.4-1.6-5.8c-.5-.4-11.9.2-12.3 0-.4-.2-1.6.9-1.7 1.6-.1.7-1.4 4.2-1.4 4.2h-2.8s2.2-6.7 3.3-7.2c1.1-.6 13.9-1.4 15.4-.7s2.1 1.3 2.6 2.5 1.2 5.4 1.2 5.4h-2.7z"/><path fill="#F96B1C" stroke="#C1AA2F" stroke-width=".25" d="M188 101.5c2.2 1.2 1.8 3.8 1.8 5.7 3.7-1.7 4.5-8-.7-6m20.8.3c5 .1.3 3.5.9 5.8-2.9-.9-3.5-4.3-.5-5.6"/></g></switch></svg>
