<svg xmlns="http://www.w3.org/2000/svg" version="1.0" viewBox="0 0 95.2 90.9"><switch><g><path fill="#D0E7C4" stroke="#669866" stroke-width=".25" d="M0 34.4l.4.3.7.3.5.6.5.9-.1.7.7.4.7.5.6.3.7.7.4 1.1.4.4.8.1.5.9-.3.4.9 1 2.1 1.2 1.2 1.4.3 1.1.2.7.6.9v1.4l.3.6-.3 1.6.7.6-.1.8.6 1 .7.7 1 1.6s.3.6 1.1 1.2c.9.6 1.3.2 1.3.2l.7.4v.6l1.2.7h.5l1 .7s-.1.6.8.7c.9.1 1.3-.2 1.3-.2l.8-.5.9-.4.5-.8.2-1 .6-.8.6-1 .8-.8.8-.2h1l.5-.2 1.6.2 3 .2 1.1.1 1 .3.5.5.9.3.8 1.3s1.1 1.7 1.6 2.2l.9.9.6 1.5.1 1.3 1.1 2.2.2.6.8 1.5.7 1 .8 1.2.4.4.5.1v.6l.4 1.1 1.1 1.3 1 .5.7.6.2 1.6-.3.8.3.6v2l.3.8.5.5.3.9.2.7.4.9.5 1 2.2 1.7 1.2.7h.5l.7.4.6.7h.7l.5.2 1 .6 1 .1 1.5.1.8.2.7.7s1.1.7 1.3.7c.2 0 1-.2 1-.2l.5-.6-.1-1.2-.5-1.2-.7-1.1-.7-.5s.8-1.1.6-2c-.2-.8-.5-1.9-.5-1.9l.2-.9.7-.9-.3-.6-.8-.2h-.8l.1-1 .9-.1.7-.7.9-.1.2-.7-.5-.3.5-.7-.1-.7-.6-.4-.4-.9 1-.2.9.1h.5l.8-.7.1-.7.1-.8 1.2-.5.8.1.2-.7-.7-.9 1-.1 1.4.1 1-.2-.1-.5-.3-.8-.2-.8 1.2.1 1.5.3.7.2 1.4-.7 1.2-.1 1.8-.8 1.9-1.3.9-1 .4-.9 1.1-.7.4-1-.7-1.3.2-1.1.8-.5 1.1.2.8.2-.3.4.3.4 1.1.2 1.8-.2 1.2-.2 1.1-.4-.4-1.2.4-.9.5-.3h.9s1.3-1.3.2-2.5c-1.2-1.1-.3-1-.3-1l.3-1.2.2-1.6 1.1-.7v-1l-.3-.7.6-.6-.1-.9-.7-.7-.5-.3v-.8l-.2-.7-.6-.5-.8-.3.1-1.1.3-.7-.7-.7-.7-.5-.3-1.3-.1-12-2.6-.2-1.1-.4-.8-.2-.7-.4-.8-.6-.7-.5-.9-.8-.5-.1-.5.2s-.2.1-.5.3c-.2.2-1.3.1-1.3.1h-1.5l-1.9-.1-1.1.6-1.2.7-.6-.5-.4-.2s.1-.7-.3-.7c-.5 0-1.3-.2-1.3-.2l-.6.3-.2-.4-.4-.1-.6.1-.1.4-.4.3-.2.7h-.5l-.3-.9v-.6l-.4-.3-.2.4h-.7l-.5-.2-.5-.5-.8-.5-.4.2-.4.3-.3.4H64l-.5-.2-.5-.5-.2-.6-.6-.6-.8-.1h-.5l-.4.2-.5.1h-.3l-.4-.5-.7-.4-.9-.1h-1.9c-.4 0-.7-.1-.7-.1l-.4-.4v-1.2l-.5-.1-1-.1-.9.2-.6.1-.7-.8-1.3-1.2-.5-.6.3-.4 1.1-14.5L31 0l-.6.1-4.6 36.3h-1.3l-.4-.5L.4 32.7l-.2.3-.2 1.4z"/></g></switch></svg>
