<svg xmlns="http://www.w3.org/2000/svg" viewBox="0 0 64 123.2"><path fill="#D0E7C4" stroke="#669866" stroke-width=".25" d="M38.5 113.4l-1.8-.3-2.4.5-2.1-1-1-1.3-1-.4-1.8-2-1-2.7 1.6-.2-1.3-5.5-.7-.3-1.3-2.4-.3-3.2-1-1.5-1.1-.1-1.7 1.1-1.1-.6v-.8c0-.8-.8-3.9-.8-3.9l-.1-4.1 1.1-3.4.6-2.2.8-6.3-.8 1.9-2.2 3.3-2.5 2.5-.6 3.3s-.3 1.5-.8 3-1.1 4.4-1.1 4.4l-.8 4.1-.2 4.2 1.1 2.6.7.1 1.6-2.2.5 1.9.6 1.4 1.6.1.1 2.3 1.5.5.6 1 .6 2.2 1.4.1.3 1.5 1.5.3-.4 1.8 2.7 3.1 1.7-1.1 2.8 1.6 2.8 2.1v2.1l.5 2.1 3.3-1.5 1.5.5 2-.9.8-2.4-3.3-2.4-1.1-2.9zm23.6-70.6V40l-.3-1-1.1-1.2-1.7-1.1-2.8-2.4L55 32l-.1-2.2-.1-3.8s-.7-1.5-3.4-3.6c-2.7-2.2-1.7-1.9-1.7-1.9l-2.1-2.7-2.4-.6-2.2-.4-1.2.7-.6 2.2-1.6 1.3-2.3-.6-2.1-1.6h-1.8l-1.7 1.5-2.7 3-1.6 1-.8-.6-.2-.7.1-2.2.6-2v-2l.2-2v-3.3l-.9-2.7-.2-1.5-1.8-.6-2.1 1.1-1.6-1.2V3.5L19.5.8 17 0l-3.8.9L12 2.7l-1.8-.1-.7 2.6-3.8 1.1-2.9-.7L1.7 8v3.2l-.6 1.5.9 2.5-1.5.5-.5.7s2.6 3.3 2.6 3.5c0 .2.3 2.9.3 2.9l2.4 2.5 3.6 3s1 3.9 3.1 5.9c2.1 2-.1 2.1-.1 2.1l-1.5 1.4.7 3.3-.8 1.3-1.5 1.9.1 1.5 1.2 2.7 4.1 3.9 1.8 1.8 1.3 4.8-.3 2.2 1.3 3.3 1.7 2.3 2 6 .6-1 .3-.9 1-1.5V67l-.3-2.4.6-3-.3-.9-.6-1.1 1.3-1.5 1.6-.4h2.4l1.7.6-.1.9.1 2.4V65l1.2.1 1.8.1H35l1.6-.6 1.5 1.6 2.3.9.6 2 1 .6 2.6.9-.4-3-.1-1.7-1.6-1.5L42 62l-1.6-3.9.8-1 1.1-1.6 1.4-2.5 1.4-1.5 2.5-.7 2.7-.2h2.1l2.7.2 2.9-.4 2.1 1.5 2.1-2.5.1-1.2L62 46l.1-3.2z"/></svg>
