<svg xmlns="http://www.w3.org/2000/svg" version="1.0" viewBox="0 0 102.3 78.7"><switch><g><path fill="#CD8031" stroke="#CD8031" d="M.9 51.5V53c-.6.1-.9.3-.6 1.3.3 1 3.5 3.1 5 3.6 1.4.6 8.7 6.2 10.6 7.1 1.9.9 4.5 2.4 5.7 3.2 1.2.8 3.9 1.3 4.2 1 .3-.3 3.9-1.5 4.3-1.7.4-.1 7.7-2.5 7.7-2.5s7.8-3.3 8.2-3.3c.3 0 7.1-3 7.1-3s8.8-3.1 9.2-3.5c.1-.1.2-.3.2-.6.1-.7-.2-1.8-1-1.6-1.1.3-24.5-9-26.7-9.4-2.2-.4-3.5-.2-4.4 0-.9.2-4.7-.1-6.3-.3-1.5-.2-4.9.4-6.7.6-1.9.2-3.3.6-4.4.9-1.1.3-1.4.9-1.9 1.1-.4.2-1.1.9-1.7.7-.4-.3-.4-.5-1.1-.5-.7 0-2.1.1-2.4.4-.3.3-.7 1.1-1.2 1.2-.6.1-1.2-.6-1.4-.1-.3.5-1.3 1.3-1.3 1.3s-1.2.6-1.2.9c0 .3-1.1.4-.6.7.6.1.7 1 .7 1z"/><path fill="#C07B2A" d="M62.6 61.6s-.3.9-2.8 1.9c-2.4 1-4.5 1.2-5.6 1.7-1.1.4-2.2.6-2.5.7-.3.1-1.4.4-1.8.7-.3.2-2 .8-2 .8l-1.4.8-2.1 1s-1.2.5-1.7.7c-.4.2-1 .6-1.5.7-.6.1-1 .6-1 .6l-1.3.6s-.7.7-1.2.8c-.6.1-1.7.6-2.2.8-.6.2-2 .7-2.3.8-.3.1-.8.3-1.2.4-.4.1-.7.4-1.3.8-.7.3-1.1.4-1.5.4-.4 0-.7-.3-1.3 0-.7.3-1.5.7-1.5.7s-3-1-3.8-1.2c-.8-.2-1.9-.3-2.5-.8-.7-.4-2.4-2.2-2.4-2.2s-.7-.8-1.2-1.1c-.6-.3-1.1-.4-1.4-.8-.3-.3-1-.7-1.4-1-.4-.3-3.2-2.7-3.7-3-.7-.4-1.6-.6-2-1-.4-.3-1.3.1-1.8-.6-.4-.7-1.8-1.2-2.1-1.4-.3-.2-1.3-1.4-1.7-1.6-.3-.2-1.3-1.3-1.3-1.3s-1.4-1-1.1-3.6c.3-2.6.4-3.8.4-3.8s1.2 3.3 4.9 4.8C8.9 59.2 19.5 68 22.7 68.5c3.2.5 16.9-4.5 19.7-5.7 2.9-1.2 18.1-6.6 19.1-7.6s1-.4 1-1v.6l.7 4.8-.6 2z"/><path fill="#050505" stroke="#81807F" d="M33.8 71.3c-.1-.6.8-.9.3-1.5.2-.3.4-.5.8-.4.1.7-.3 2-1 2.1m2.6-.7c-.2-.4.1-.8.5-1.2.1 0 .1 0 .2.1-.1.5-.4 1.1-.8 1.2m4.7-2.2c0 .1-.2.1-.1.3.6-.3.9-1.2.2-1.5l-.3.3c.3.3.4.6.2 1m9.5-5.1c.1-.4 1.2-2.4 1.5-2.2.8.6-1.1 2.1-1.5 2.2m-3.7 1.4c.3-.2.7-.4 1.1-.6l.2.2c-.3.4-.7.4-1.1.2m-1.8-.5c.5-.2 1-.3 1.3-.6-.1.4-.6.8-1 .8 0-.1-.1-.2-.1-.3m-6.2 3.5c-.6-.6.3-1.1.6-1.6.2.6-.1 1.2-.7 1.4m2.3-1.8c0-.4-.1-.7.3-.8 0 .3-.1.6-.3.9m-3.5-.2c1.2.4.3-1.5-.3-.4.3.2.4.1.4.1m-7.6 5c-.3-.5.4-1.2.9-.6s-.5.9-.9.9m-.9 2.7c.3-.4.2-.9.3-1.3-.9-.1-.8 1.4-.2 1.1m-.9 2c-.8-1.4-2.3-.2-.4-.2 1 0 2.1-.6 3.1-.5-.3.3-.8.5-1.2.8m5.1-2.4c-.2-.3-.3-.7-.4-1.1h-.5c.2 0 .5-.1.7-.1-.1-.1-.2-.3-.3-.4.2-.1.2-.1.4-.1 0 .4 0 .8-.2 1.2.2.2.1.4.2.6m2.2-1.1l-.3-.3c0 .1-.1.1-.2.1 0 .1.2.3.2.4.2-.1.2-.2.3-.3m2.8-2c-.2-.4-.1-1 .2-1.2.1.5 0 1.1-.3 1.3m6.8-2.3c.4-.5.5-1.1.9-1.7.4-.6.5-.7 1.2-1.1-.2.6-1 .9-1.2 1.4l-.3.3c.5.2 1.1-.2 1.5-.4-.4.6-1.2.6-1.7 1.1.3.3 0 .1 0 .2m2.2-4.8c-.4-.5.2-.9.5-1.3.2.6-.4 1.4-.5 1.3m-20.9 9.1c-.1-.3.1-.8.2-1.1-.2.7-.4 1.5-.8 2.2-.2.5-.5 1-1 1.4-.4.3-1.2.4-1.5.9m-1.4-2.6c-.3-.1-.4-.3-.1-.8.5.3.3.8-.1.8m.1-3.1c-.3.1-.5.2-.7.4.3.4.8.4 1.1 0-.1-.2-.1-.4-.2-.5.1 0 .2.1.3.1m1.7 3c-1.3-.9.6-1.8-.2-3 1.3 0 1.2 2.2 1 2.9-.2.6-1.6 3.1-2.2 2.3.6-.8 1.8-1.2 1.6-2.3m-6.5-.6c-.3 0-.7-.3-1.2-.2 0 .5.6.9 1.1.7v-.4m2.6 2.5c-.1-.3-.1-.7 0-1 .2.3.3.6.2.9h-.3m-.1-3.9c0-.3.1-.5.1-.8.4.4.7.9.6 1.4-.4 0-.5-.1-.7-.3.2-.3.3-.6.2-1m-9.1-.7c-.1-.2-.2-.5-.1-.8.5.3.1.7.4 1.1.3.3.8.3 1.2.5 0 .1-.1.2-.1.3-.6-.3-1-.8-1.5-1.2m-3-11.9c-.5.2-.8-.3-1.1-.6.3-.3 1.3-1.1 1.6-.7.7.7-.7 1.1-.6 1.6-.2.1-.1-.1-.1-.1m4.5-1.3c-.2-.5.5-1 .9-.4.2.3-.1.8.2 1.2-.7.3-1.4-.8-2 0 .4-.5 1-.8 1.4-1.2M8 54.8c.4 0 .6-.3.8-.7.2.3.4.6.4 1-.2-.1-.5-.1-.7-.2.1.2.1.4.2.5-.1-.1-.4-.3-.5-.4-.3.3-.7.5-1.1.4.7-1 .1-1-.1-2.1.9-.5.9.5 1.1 1.1m.3-3.9c.5-.1.7-.6.5-1.1 1.5.5-.1 1.5-.5 1.7-.5.3-1.9 1.5-2.1 0 .4-.1.8-.3 1-.7.2.1.5.1.7.4.1-.1.3-.1.4-.2m6.7 1.8c-.8-.4-.4-1.2 0-1.8-.1.3-.3.4-.6.4m-2.7 4.4c-.1-.5-.1-1 .2-1.4-.2-.1-.4-.3-.7-.4.5-1.2 1.3.4.8 1.1m.7-3.1c-.4-.5-.2-1.2-.7-1.7l.1-.1c.1 0 .3.1.5.1-.2.6 0 1.4.8 1 0 .2 0 .4-.1.6.1.1.2.1.3.1-.3 0-.7-.1-1-.3m.3 5c-1-.9.1-2.2 1.2-1.5 0 .2-.1.3-.2.5-.7-.6-.9.2-1 .8m-.9 2.4c0-.3 0-.6.2-.8v.7m-8.9-6.8c.1-1.3-.7-1.8.6-2.2-1.8-1.1-.6 1.3-.8 2m10.7-4.6c-.3-.1-.5-.4-.7-.7.6-.5 1.8-.6 2.3-1.3-.6-.4-2.9.8-2.6 1.5-.2.2-.2.2-.5.2.1-.3 0-.7 0-.9-.8.5.5 1.6 1.2.7m1.2 2.4c-.2.2-.5.6-.9.7-.1-.1 0-.2.1-.3m2.5-.2c-.1-.7.6-.6.9-1.1-.6-.4-.9.2-1.1.7m2.3-3.9c.5.2 1.2.2 1.7 0-.2-.8-1.8-.9-1.7-.1m-1 7.4c-.2-.4-.1-.8.2-1.1-.3-.2-.4-.5-.6-.8.2 0 .4-.1.6 0-.4.8.5.9.9 1-.2.1-.5.4-.8.5.1.1.1.4.2.5-.4.1-.3-.1-.4-.2m2.6 3.4c-.5.1-1.3.9-1.8.5-.6-.6.9-.8 0-1.4-.9.7-.7 1.2.3 1.5.9.3 1.1-.1 2-.5m-3.1 1.9c0 .3.1.5.3.7.3-.5 0-.5-.4-.6M15.4 59c-.1.2-.1.3 0 .5.1-.3-.1-.2-.3-.5m-11-4.2c.2-.2.2-.5.3-.7-.4-.3-.9-.6-1-1.2 1.4.7 1.9 1.2.4 2.1m43.1-5.5c-.5.1-1.1 0-1.3-.5-.5 1 1.3.6 1.3 1.2.3-.3 0-.4-.1-.7m2.4.5c-.3-.1-.6 0-.8.1.4.2.6.1.9-.2M29.9 63.8c.1 0 0 0-.1-.1-.2.3-.2.2-.2.6.3 0 .3-.2.4-.4m1.1-5.4l.3-.6c.2.2.4.3.4.7h-.9c0-.2.1-.4.2-.5M26 56.2c-.1.1-.3.1-.4.2-.5-.3-.8-.1-1.3-.2h1m33.9-2c0 .3-.1 0-.2-.2m-4.1-1.7c-.3.5-1.2.3-.7-.2.2.3.5.5.7.6m-3.2-1.9c0 .1.2.3.3.3m-8.2-2.4c-.1-.1-.2-.2-.2-.3.1-.1.1-.2.3-.3.3.1.6.4.8.6-.3.3-.9.5-1.1.1m7.6 4s-.2-.1-.1-.2c.5 0 .5-.1.6.4-.4-.1-.4-.2-.4-.4m-6.8-1c.2 0 .5 0 .7.1v.3c-.5.1-.4-.1-.5-.4M20.4 48c.2-.4.4-.8.8-.9-.7-.1-1.4.4-.6.9m-1.9-1.5c.7-.2 1.4-.5 2-.8-.5-.4-1.7.2-1.5.7m-.3 3.3c-.1.1.1 0 .1-.1-.3-.3-1.9-1.1-1.4 0 .4 0 1 .1 1.4.2m-8.7 10.3c-.2-.2-.2-.2-.1-.2.5.3.2.3.2.5m3.3-.7c-.6-.1-.7-.5-.2-.8.2.1.2.2.3.3-.1.2-.2.2-.3.4M10 50.9c-.3.7.5.6 1 .4 0-.4-.1-.5-.4-.7-.3.2-.6.5-.8.8m1.3-2c.4-.2.5-.9.8-1.4.5.3.2.8.1 1.2-.3.2-.6.4-1 .5m3-1.8c.3-.3.5-.4.9-.2-.2.4-.6.5-1.1.4-.2-.2 0-.1.1-.3m2.5-1.2c-.1-.2-.2-.4-.2-.7.1 0 .2-.1.3-.1.1.4-.3.8-.4.9m2.3 1.9c-.1-.4-.1-.7 0-1.1.3 0 .6.1.8.3-.1.2-.8.8-.7.7m14.7-3.4c.1-.1.2-.2.2-.3-.5.2-1 .5-1.4.8M25.4 58c0-.5.5-.8 1-.4-.2.4-.4.3-.8.1m-2.8.8c.1-.3.2-.5.5-.7.2.5 0 .8-.6.6m-1.9 1.4v-.7" opacity=".06"/><path fill="#FFF" d="M9.3 47.7c-1.4.3-3.8 1.2-4.3 2.7-.7 2 1 3.8 2.1 5.2 2.3 2.8 5.6 5.7 8.8 7.5 1.3.7 2.6 1.5 3.9 2.3.8.5 2.6 1.5 2.8 2.5-.1.1-.1.2-.2.3-1.6-.8-3.3-1.4-4.7-2.4-2-1.4-3.8-2.8-6-3.9-1.8-.9-3.3-2-4.8-3.1-1.7-1.2-3.8-1.9-5.3-3.3-.8-.7-1.5-1.6-1-2.8.2-.5.6-.6.7-1.1 0-.4-.3-.8-.3-1.3.1-.9 2.9-4.5 3.2-2.4.8.1 1.5-1.4 2.5-1.5.7-.1 2.7.3 2.2 1.3" opacity=".23"/><path fill="#050505" stroke="#050505" d="M48.7 64.5c-.1-.2-.2-.5-.1-.8.5.3.1.7.4 1.1.3.3.8.3 1.2.5 0 .1-.1.2-.1.3-.6-.3-1-.8-1.5-1.2" opacity=".14"/><path fill="#050505" stroke="#050505" d="M59.6 58.1c-.5.1-1.1 0-1.3-.5-.5 1 1.3.6 1.3 1.2.3-.3 0-.4-.1-.7" opacity=".15"/><path fill="#050505" stroke="#050505" d="M55.2 62.7c.1 0 0 0-.1-.1-.2.3-.2.2-.2.6.3 0 .3-.2.4-.4" opacity=".1"/><path fill="#050505" stroke="#050505" d="M43.9 67.2l.3-.6c.2.2.4.3.4.7h-.9c0-.2.1-.4.2-.5m12.6-9.4c-.1-.1-.2-.2-.2-.3.1-.1.1-.2.3-.3.3.1.6.4.8.6-.3.3-.9.5-1.1.1m-33.3 8c-.5.2-.8-.3-1.1-.6.3-.3 1.3-1.1 1.6-.7.7.7-.7 1.1-.6 1.6-.2.1-.1-.1-.1-.1m4.5-1.3c-.2-.5.5-1 .9-.4.2.3-.1.8.2 1.2-.7.3-1.4-.8-2 0 .4-.5 1-.8 1.4-1.2m-7.1-.6c.4 0 .6-.3.8-.7.2.3.4.6.4 1-.2-.1-.4-.1-.6-.2.1.2.1.4.2.5-.1-.1-.4-.3-.5-.4-.3.3-.7.6-1.1.4.7-1 .1-1-.1-2.1.9-.5.9.5 1.1 1.1m.2-3.9c.5-.1.7-.6.5-1.1 1.5.5-.1 1.5-.5 1.7-.5.3-1.9 1.5-2.1 0 .4-.1.8-.3 1-.7.2.1.5.1.7.4.1-.1.3-.1.4-.2m6.8 1.9c-.8-.4-.4-1.2 0-1.8-.2.3-.4.4-.7.4m-2.6 4.4c-.1-.5-.1-1 .2-1.4-.2-.1-.4-.3-.7-.4.5-1.2 1.3.4.8 1.1m.6-3.2c-.4-.5-.2-1.2-.7-1.7l.1-.1c.1 0 .3 0 .5.1-.2.6 0 1.4.8 1 0 .2 0 .4-.1.6.1.1.2.1.3.1-.3 0-.7-.1-1-.3m.4 5.1c-1-.9.1-2.2 1.2-1.5 0 .2-.1.3-.2.5-.7-.6-.9.2-1 .8m-1 2.4c0-.3 0-.6.2-.8v.7m-8.8-6.9c.1-1.3-.7-1.8.6-2.2-1.8-1.1-.6 1.3-.8 2m10.7-4.5c-.3-.1-.5-.4-.7-.7.6-.5 1.8-.6 2.3-1.3-.6-.4-2.9.8-2.6 1.5-.2.2-.2.2-.5.2.1-.3 0-.7 0-.9-.8.5.5 1.6 1.2.7m1.1 2.4c-.2.2-.5.6-.9.7-.1-.1 0-.2.1-.3m2.5-.2c-.1-.7.6-.6.9-1.1-.6-.4-.9.2-1.1.7m2.3-3.9c.5.2 1.2.2 1.7 0-.2-.8-1.8-.9-1.7-.1m-1 7.4c-.2-.4-.1-.8.2-1.1-.3-.2-.4-.5-.6-.8.2 0 .4-.1.6 0-.4.8.5.9.9 1-.2.1-.5.4-.8.5.1.1.1.4.2.5-.4.1-.3-.1-.4-.2m2.6 3.4c-.5.1-1.3.9-1.8.5-.6-.6.9-.8 0-1.4-.9.7-.7 1.2.3 1.5.9.3 1.1-.1 2-.5m-3.1 1.9c0 .3.1.5.3.7.3-.5 0-.5-.4-.6m-2.2 1.6c-.1.2-.1.3 0 .5.1-.3-.1-.2-.3-.5m-11-4.2c.2-.2.2-.5.3-.7-.4-.3-.9-.6-1-1.2 1.4.7 1.9 1.2.4 2.1m22.2 1.3c-.1.1-.3.1-.4.2-.5-.3-.8-.1-1.3-.2h1m-4.8-8.2c.2-.4.4-.8.9-.9-.7-.1-1.4.4-.6.9m-2.1-1.5c.7-.2 1.4-.5 2-.8-.5-.4-1.7.1-1.5.7m-.3 3.3c-.1.1.1 0 .1-.1-.3-.3-1.9-1.1-1.4 0 .4 0 1 .1 1.4.2M23 68.7c-.2-.2-.2-.2-.1-.2.5.3.2.3.2.5m3.3-.6c-.6-.1-.6-.5-.2-.8.2.1.2.2.3.3-.1.2-.2.2-.3.4m-3.5-8.7c-.3.7.5.6 1 .4 0-.4-.1-.5-.4-.7-.3.2-.6.5-.8.8m1.3-2.1c.4-.2.5-.9.8-1.4.5.3.2.8.1 1.2-.3.2-.6.4-1 .5m3.1-1.7c.3-.3.5-.4.9-.2-.2.4-.6.5-1.1.4-.2-.2 0-.1.1-.3m2.4-1.2c-.1-.2-.2-.4-.2-.7.1 0 .2-.1.3-.1.1.4-.3.8-.4.9m2.4 1.8c-.1-.4-.1-.7 0-1.1.3 0 .6.1.8.3-.1.2-.8.8-.7.7m6.8 9.5c0-.5.5-.8 1-.4-.2.4-.4.3-.8.1m-2.8.9c.1-.3.2-.5.5-.7.2.5 0 .8-.6.6m-1.9 1.4v-.7" opacity=".15"/><path fill="#050505" stroke="#81807F" d="M40.4 61.9c-.5.2-.8-.3-1.1-.6.3-.3 1.3-1.1 1.6-.7.7.7-.7 1.1-.6 1.6-.2.1-.1-.1-.1-.1m4.5-1.4c-.2-.5.5-.9.9-.4.2.3-.1.8.2 1.2-.7.3-1.4-.8-2 0 .4-.5 1-.8 1.4-1.2m-7.1-.5c.4 0 .6-.3.8-.7.2.3.4.6.4 1-.2-.1-.4-.1-.6-.2.1.2.1.4.2.5-.1-.1-.4-.3-.5-.4-.3.3-.7.5-1.1.4.7-1 .1-1-.1-2.1.9-.5.9.5 1.1 1.1m.2-3.9c.5-.1.7-.6.5-1.1 1.5.5-.1 1.5-.5 1.7-.5.3-1.9 1.5-2.1 0 .4-.1.8-.3 1-.7.2.1.5.1.7.4.1-.1.3-.1.4-.2m6.7 1.8c-.8-.4-.4-1.2 0-1.8-.2.3-.4.4-.7.4m-2.6 4.4c-.1-.5-.1-1 .2-1.4-.2-.1-.4-.3-.7-.4.5-1.2 1.3.4.8 1.1m.7-3.1c-.4-.5-.2-1.2-.7-1.7l.1-.1c.1 0 .3.1.5.1-.2.6 0 1.4.8 1 0 .2 0 .4-.1.6.1.1.2.1.3.1-.3 0-.7-.1-1-.3m.3 5c-1-.9.1-2.2 1.2-1.5 0 .2-.1.3-.2.5-.7-.6-.9.2-1 .8m-.9 2.4c0-.3 0-.6.2-.8v.7m-8.9-6.8c.1-1.3-.7-1.8.6-2.2-1.8-1.1-.6 1.3-.8 2M44 51.8c-.3-.1-.5-.4-.7-.7.6-.5 1.8-.6 2.3-1.3-.6-.4-2.9.8-2.6 1.5-.2.2-.2.2-.5.2.1-.3 0-.7 0-.9-.8.5.5 1.6 1.2.7m5-1.7c.5.2 1.2.2 1.7 0-.2-.8-1.8-.9-1.7-.1m-1 7.4c-.2-.4-.1-.8.2-1.1-.3-.2-.4-.5-.6-.8.2 0 .4-.1.6 0-.4.8.5.9.9 1-.2.1-.5.4-.8.5.1.1.1.4.2.5-.4.1-.3-.1-.4-.2m2.6 3.4c-.5.1-1.3.9-1.8.5-.6-.6.9-.8 0-1.4-.9.7-.7 1.2.2 1.5.9.3 1.1-.1 2-.5m-3 1.9c0 .3.1.5.3.7.3-.5 0-.5-.4-.6m-2.2 1.6c-.1.2-.1.3 0 .5.1-.3-.1-.2-.3-.5m-11-4.1c.2-.2.2-.5.3-.7-.4-.3-.9-.6-1-1.2 1.4.7 1.9 1.2.4 2.1m22.2 1.2c-.1.1-.3.1-.4.2-.5-.3-.8-.1-1.3-.2h1M50.5 53c.2-.4.4-.8.8-.9-.6-.1-1.3.5-.5.9m-2-1.5c.7-.2 1.4-.5 2-.8-.5-.4-1.7.1-1.5.7m-.3 3.3c-.1.1.1 0 .1-.1-.3-.3-1.9-1.1-1.4 0 .4 0 1 .1 1.4.2m-8.7 10.3c-.2-.2-.2-.2-.1-.2.5.3.2.3.2.5m3.3-.7c-.6-.1-.7-.5-.2-.8.2.1.2.2.3.3-.1.2-.2.2-.3.4m-3.5-8.7c-.3.7.5.6 1 .4 0-.4-.1-.5-.4-.7-.3.2-.6.5-.8.8m1.3-2c.4-.2.5-.9.8-1.4.5.3.2.8.1 1.2-.3.2-.6.4-1 .5m3-1.8c.3-.3.5-.4.9-.2-.2.4-.6.5-1.1.4-.2-.2 0-.1.1-.3m2.5-1.2c-.1-.2-.2-.4-.2-.7.1 0 .2-.1.3-.1.1.4-.3.8-.4.9m2.4 1.9c-.1-.4-.1-.7 0-1.1.3 0 .6.1.8.3-.1.2-.8.8-.7.7m6.8 9.5c0-.5.5-.8 1-.4-.2.4-.4.3-.8.1m-2.8.8c.1-.3.2-.5.5-.7.2.5 0 .8-.6.6m-1.9 1.4v-.7" opacity=".15"/><g fill="#050505" stroke="#81807F" opacity=".27"><path d="M34 51.3c.4-.3.8.1 1.2.4-.2.3-1 1.3-1.5 1-.7-.5.5-1.2.3-1.7.2-.2.1.1.1.1" opacity=".15"/><path d="M34.1 51.5c.3.5-.3 1-.8.6-.3-.2 0-.8-.4-1.1.6-.4 1.6.6 1.9-.3-.3.6-.8.9-1.2 1.4m5.5-3.3c-.4 0-.5.4-.6.8-.3-.3-.5-.6-.6-.9.2.1.5 0 .7.1-.1-.1-.2-.4-.3-.5.1.1.4.2.6.3.2-.4.6-.7 1-.6-.5 1.1.1 1 .5 2-.8.7-.9-.3-1.3-.9m-5.3-2.3c-.5.2-.6.8-.2 1.2-1.6-.2-.2-1.4.2-1.8.4-.4 1.6-1.8 2.1-.4-.4.2-.7.5-.9.8-.2-.1-.5 0-.7-.3-.1.1-.3.2-.4.3m-7.1-.5c.9.2.6 1.1.3 1.8.1-.3.3-.4.6-.5m1.8-4.8c.2.4.3 1 .1 1.4.2 0 .5.2.8.2-.2 1.2-1.4-.1-1-1m-.2 3.3c.5.5.4 1.1 1 1.5 0 0 0 .1-.1.1h-.5c.1-.6-.3-1.4-.9-.8 0-.2-.1-.4 0-.6h-.3c.3 0 .7 0 1 .1m7.6 4.9c1.1.7.3 2.2-.9 1.7 0-.2 0-.4.1-.5.8.4.9-.3.8-1m16.9 2.6c.1.3.1.6-.1.8-.1-.2-.1-.7-.1-.7m-15.3-9.8c.1 1.3 1 1.6-.2 2.3 2 .8.4-1.4.4-2.1M29 51.4c.3.1.6.3.8.5-.5.6-1.7.9-2 1.7.7.3 2.7-1.3 2.3-2 .2-.2.2-.2.5-.3 0 .3.2.7.2.9.7-.6-.8-1.5-1.3-.5m-1.7-2c.2-.3.4-.7.8-.8.1.1.1.2-.1.4m-2.4.5c.2.6-.5.7-.7 1.2.6.3.8-.4.9-.9m-1.4 4.3c-.5-.1-1.2.1-1.7.3.3.7 2 .6 1.7-.2m-.4-7.4c.2.3.2.7 0 1.1.3.2.5.4.8.6-.2.1-.4.1-.6.1.3-.9-.7-.8-1.1-.8.2-.1.4-.5.7-.6-.1-.1-.2-.4-.3-.5.4-.2.4 0 .5.1m-3.3-2.8c.5-.2 1.1-1.1 1.7-.8.7.4-.7.9.2 1.3.7-.8.4-1.3-.5-1.5-1-.2-1.1.3-1.8.9m21.3 6.9c-.1-.3-.2-.5-.4-.6-.2.6.1.5.5.5m10.2 1.5c.2-.4.1-.8-.1-1 0 .8.4.5.9.9m-5.9 4.1c-.1.2-.1.5-.2.7.5.2 1 .4 1.2 1-1.5-.4-2.1-.9-.8-1.9m-32-11.9c.1-.1.3-.2.4-.3.5.2.8-.1 1.3 0-.3.1-.6.1-.9.2m6.1 7.1c-.1.4-.2.9-.7 1 .7 0 1.3-.6.5-1m2.2 1.2c-.6.3-1.3.7-1.8 1.1.5.3 1.6-.5 1.4-.9m-.4-3.3l-.1.1c.4.3 2.1.7 1.4-.2-.4.1-1 0-1.5 0m35.2 3.8c.2.1.2.2.1.2-.6-.2-.2-.3-.3-.5m-18.9-2.2c.6-.1.7.4.4.8l-.4-.2c0-.2.2-.3.2-.4m-7.5-4.2c.1-.7-.6-.5-1-.2.1.4.1.5.5.6.3-.3.5-.6.6-1m-.9 2.3c-.4.3-.3 1-.5 1.5-.5-.2-.3-.8-.3-1.1.3-.2.6-.5.9-.6m-2.8 2.1c-.2.3-.4.5-.8.4.2-.4.5-.6 1-.6.2.1 0 .1 0 .3m-2.2 1.7c.2.2.3.4.3.6-.1 0-.2.1-.3.1-.1-.4.1-.8.3-.9m-2.8-1.4c.2.3.3.7.2 1-.3.1-.6 0-.8-.1.1-.2.6-.9.5-.8m27.7 5.6c.1.5-.4.9-.9.6.1-.4.4-.3.7-.2" opacity=".15"/><path d="M58.7 53.4c0 .3-.1.6-.3.8-.3-.5-.1-.8.5-.7m-5 1c0 .2.1.4.1.7" opacity=".15"/></g><path fill="#FBE400" d="M19.7 71.5c-.7-3.6-4-6.4-7.2-8.1-1.7-.9-3.6-1.2-5.3-2.4-.6-.5-3.2-3.5-3.9-3.5-4.1-.1 5 6.8 5.9 7.5 2.9 2.2 6.3 5 9.4 6.2" opacity=".15"/><path fill="#FFF" d="M32.5 43.2c2.7.8 4.8 1.1 7.4 2.6 2.2 1.2 4.7 1.8 7 2.4 2.8.7 5.3 2.1 8.1 3.1 2.2.8 5 .6 7 2 0 .6.1.9-.2 1.4-.5-2.2-4.1-1.5-5.8-2.2-2.4-1-4.9-2.6-7.5-3.5-2.9-1-5.1-1.4-7.8-2.9-1.8-.9-7.2-1.4-7.9-2.9" opacity=".23"/><path fill="#FFF" d="M8.7 47.6c2 .4 3.6-1.9 5.6-2.5 2.1-.6 4.2-1 6.5-1.2 4.2-.4 8.8.7 13-.3-1.1-1.5-4.3.1-6 .1-2.3-.1-4.4-.6-6.8-.3-2.3.3-4.9.3-7.1 1-1.7.6-3.8 2.8-5.7 1.9.4.6.4 1.1.5 1.3m10.8 18.9c1.9 2.4 7.6 1.5 10.2.8 3.4-.9 7.2-1.9 10.5-3.1 3.3-1.3 6.7-3.2 9.9-4.2 3-.9 7.8-1.1 10.3-3.3 1-.9 1.8-1.9.7-3.1.2 3.7-5.9 3.7-8.2 4.8-3.3 1.7-6.7 2.4-10.1 3.7-5.9 2.3-14.2 6.2-19.8 5-.6-.1-1.1 0-1.6-.8 0 .3-.1.7-.1 1-.7.1-.9-.2-1.3-.7" opacity=".23"/><path fill="#050505" d="M34.6 71.2c-.2.1-.4.3-.6.4-.3-1.1 1.1-4.3-1.4-3.1.2-.6 0-.9.4-1.5-1.7 0-3.8 1-5.7 1.2-1.8.3-4.2.5-5.9 1.1 1.5.1 2.4 1 2 2.6 1 0 1.2.4 1.8.8-.6.3-.8 1-1.3 1.3 1.8 2.4 2.9 1.1 5 .5 1.9-.5 4.7 0 5.8-2.1m24.1-9c.7-.5 1.4-1.1 2-1.8-1.6-1.5-.6-6.1 1.2-6.8.8.4.9 4.1.7 5.2-.3 1.6-1.8 3-3.4 3.4" opacity=".07"/><path fill="#E3C81F" d="M36.4 70.8c1.5.3 3.8-2.8 5.7-3.4.7-.2 1.9 0 2.7-.3.9-.3 1.4-1.2 2.3-1.6 1.6-.8 11.6-2 10.8-4.1.6-.3 1-.8 1.8-.9-.7-.4-1.4-.7-2.3-.8-.1-.4-.4-.6-.6-1-4.1.8-8.3 3.9-12.6 5.1-2.1.6-3.6 1.2-5.5 2.4-1.7 1.1-4.6.9-6 2 .6.3 1.2.9 1.7 1.2-.2.2-.6.3-.9.4.1.1.7.3.7.4-.4.3-.6.9-1 1.2 1.1-.5 2.1-1.6 3.3-1.5.2.4-.2.3-.2.5" opacity=".15"/><g fill="#050505" stroke="#81807F" opacity=".41"><path d="M43.1 59.5c.4-.3.8.1 1.2.4-.2.3-1 1.3-1.5 1-.8-.5.5-1.2.3-1.7.2-.2.1.1.1.1" opacity=".15"/><path d="M43.2 59.7c.3.5-.3 1-.8.6-.3-.2 0-.8-.4-1.1.6-.4 1.6.6 1.9-.3-.3.6-.8.9-1.2 1.4m5.5-3.3c-.4 0-.5.4-.6.8-.3-.2-.5-.6-.6-.9.2.1.5 0 .7.1-.1-.1-.2-.4-.3-.5.1.1.4.2.6.3.2-.4.6-.7 1-.6-.5 1.1.1 1 .5 2-.8.7-.9-.3-1.3-.9M42.9 55c-.5.2-.6.8-.2 1.2-1.6-.2-.2-1.4.2-1.8.4-.4 1.6-1.8 2.1-.4-.3.2-.7.5-.9.8-.2-.1-.5 0-.7-.3-.1.1-.3.2-.4.3m-7.1-.5c.9.2.6 1.1.3 1.8.1-.3.3-.4.6-.5m1.8-4.8c.2.4.3 1 .1 1.4.2 0 .5.2.8.2-.2 1.2-1.4-.1-1-1m-.2 3.4c.5.5.4 1.1 1 1.5 0 0 0 .1-.1.1h-.5c.1-.6-.3-1.4-.9-.8 0-.2-.1-.4 0-.6h-.3c.3 0 .7 0 1 .1m7.6 4.8c1.1.7.3 2.2-.9 1.7 0-.2 0-.4.1-.5.8.4.9-.3.8-1M63 62.7c.1.3.1.6-.1.8-.1-.2-.1-.7-.1-.7M47.5 53c.1 1.3 1 1.6-.2 2.3 2 .8.4-1.4.4-2.1m-9.6 6.4c.3.1.6.3.8.5-.5.6-1.7.9-2 1.7.7.3 2.7-1.3 2.3-2 .2-.2.2-.2.5-.3 0 .3.2.7.2.9.7-.6-.8-1.5-1.3-.5m-1.7-2c.2-.3.4-.7.8-.8.1.1.1.2-.1.4m-2.4.5c.2.6-.5.7-.7 1.2.6.3.8-.4.9-.9M34 62.6c-.5-.1-1.2.1-1.7.3.3.7 2 .6 1.7-.2m-.4-7.4c.2.3.2.7 0 1.1.3.2.5.4.8.6-.2.1-.4.1-.6.1.3-.9-.7-.8-1.1-.8.2-.1.4-.5.7-.6-.1-.1-.2-.4-.3-.5.4-.2.4 0 .5.1m-3.3-2.8c.5-.2 1.1-1.1 1.7-.8.7.4-.7.9.2 1.3.7-.8.4-1.3-.5-1.5-1-.2-1.1.3-1.8.9m21.3 6.9c-.1-.3-.2-.5-.4-.6-.2.6.1.5.5.5m10.2 1.5c.2-.4.1-.8-.1-1 0 .8.4.5.9.9m-10.5 2.6c-.1.2-.1.5-.2.7.5.2 1 .4 1.2 1-1.5-.4-2.1-.9-.8-1.9M24.6 52.6c.1-.1.3-.2.4-.3.5.2.8-.1 1.3 0-.3.1-.6.1-.9.2m6.1 7.1c-.1.5-.2.9-.7 1 .7 0 1.3-.6.5-1m2.2 1.2c-.6.3-1.3.7-1.8 1.1.5.3 1.6-.5 1.4-.9m-.4-3.3l-.1.1c.4.3 2.1.7 1.4-.2-.4.1-1 0-1.5 0m16.1 1.3c.6-.1.7.4.4.8l-.4-.2c0-.2.2-.3.3-.4m-7.6-4.2c.1-.7-.6-.5-1-.2.1.4.1.5.5.6.3-.3.5-.6.6-1m-.9 2.3c-.4.3-.3 1-.5 1.5-.5-.2-.3-.8-.3-1.1.3-.2.6-.5.9-.6m-2.8 2.2c-.2.3-.4.5-.8.4.2-.4.5-.6 1-.6.2.1 0 .1 0 .3m-2.2 1.6c.2.2.3.4.3.6-.1 0-.2.1-.3.1-.1-.4.1-.8.3-.9m-2.8-1.4c.2.3.3.7.2 1-.3.1-.6 0-.8-.1.1-.2.6-.9.5-.8M55.9 62c.1.5-.4.9-.9.6.1-.4.4-.3.7-.2m1.6-.8c0 .2.1.4.1.7" opacity=".15"/></g><path fill="#542922" d="M17.3 49.9c1.1-.2 2.3-.3 3.5-.3-.2.5-.4 1.2-.7 1.7 1.5.1 3.1-.7 4.7-.1-.4.5-1 .8-1.5 1.3 1.3.2 3.3-.4 4.5.4 2.3 1.5-.9 1.5-1.1 3.3 1.5.6 6.5-.9 6.1 2.1 1 0 1.9.1 2.9.2-1.3.6-1.5 2.4-2.5 3-1.1.7-3 .7-4.3 1.2-.2-1.4-3.9-1.1-5.1-.9.1-.2.1-.6.2-.8-.8-.7-2.5-.1-3.5 0 .4-1 1.9-2.4 3-2.9-1.4-.2-2.7.5-4.1.3.7-.7 1.6-1.1 2.2-1.9-1.3-.1-3.2.4-4.1-.5.6-.5 1.4-1 1.5-1.8-1.2-.1-2.4 0-3.6-.1.2-.3.5-1 .8-1.2-1.4-.3-6.8.1-4.2-2.5-.3 0-.9-.3-1.3-.3 1.3-1 2.8-2 4-3-.1-.2-.2-.2-.4-.2 1.1.1 2.1-.1 3.2-.3-.8.4-1.6.9-2.4 1.5 1.4.8 2.6 1.6 4 2.2" opacity=".15"/><path fill="#542922" d="M30.9 47.3c1.1-.2 2.3-.3 3.5-.3-.2.5-.4 1.2-.7 1.7 1.5.1 3.1-.7 4.7-.1-.4.5-1 .8-1.5 1.3 1.3.2 3.3-.4 4.5.4 2.3 1.5-.9 1.5-1.1 3.3 1.5.6 6.5-.9 6.1 2.1 1 0 1.9.1 2.9.2-1.3.6-1.5 2.4-2.5 3-1.1.7-3 .7-4.3 1.2-.2-1.4-3.9-1.1-5.1-.9.1-.2.1-.6.2-.8-.8-.7-2.5-.1-3.5 0 .4-1 1.9-2.4 3-2.9-1.4-.2-2.7.5-4.1.3.7-.7 1.6-1.1 2.2-1.9-1.3-.1-3.2.4-4.1-.5.6-.5 1.4-1 1.5-1.8-1.2-.1-2.4 0-3.6-.1.2-.3.5-1 .8-1.2-1.4-.3-6.8.1-4.2-2.5-.3 0-.9-.3-1.3-.3 1.3-1 2.8-2 4-3-.1-.2-.2-.2-.4-.2 1.1.1 2.1-.1 3.2-.3-.8.4-1.6.9-2.3 1.4 1.4.8 2.6 1.6 4 2.2" opacity=".15"/><path fill="#542922" d="M52.7 56.3c.9-.6 2.1-.8 2.6-1.7-.9-.1-1.9-.1-2.8.1.2-.3.3-.9.6-1.3-.9-.2-2.1 0-3-.2.1-.3.1-.8.2-1.2-1-.3-2.1-.8-1.2-2-.7-.6-4.2-1.3-5-.9.4-.1.9 0 1.3-.1-.5.7-1.3 1.2-1.6 2.1.6.5 1.5.1 2.1.3-1 .7-2.5 1.2-3.2 2.3 1 .5 2.2-.3 3.3-.1-.2.5-.6 1-1.2 1.3.9.5 2.5-.1 3.6.1-.4.5-2.2 1.5-1.4 2.2.4.4 2.3-.2 2.8-.3-.4.3-.9.8-1.3 1.2 1.8 1.7 4.4-2.1 5.9-2.5" opacity=".15"/><path fill="#EDEEEF" d="M99.3 47.3s-9.1 8.7-14.6 9c-11.1.8-40.8-12.3-41.4-12.5-.7-.2-1.9-36.2 1.5-38.5C48.2 3 58.4 0 60 0c1.6 0 29.7 4.6 32.4 5.6 2.7 1 5.3 1.8 5.8 3.3.5 1.5 1 14.3 1.1 18.8.1 4.5-.5 8.8 0 11.8s-.4 5 0 5.6c.4.5 0 2.2 0 2.2z"/><path fill="#D7D7D7" d="M92.2 34.3s.8 2.1 1.7 1.6c.8-.5 2.7-2.2 2.8-2.9.1-.7.4-21.2 0-21.4-.4-.3-1.2-2.2-2.8-1.8-1.6.4-2 1.6-2 2.4 0 .7.3 22.1.3 22.1z"/><path fill="#F3F4F5" d="M44.6 6.5s33.6 5.4 34.1 7.8c.5 2.3.1 40 0 40.9-.1 1-35.5-11.8-35.5-11.8s-1.1-1.1-.8-1.5c.3-.4 1.2-33.2 1.2-33.2l.4-2.2h.6z"/><path fill="#575757" d="M90.7 6.5s-8.3 4.6-10.6 4.9c-2.3.3-4.8 0-4.8 0s-29-6-28.2-6.4C47.9 4.6 58 .8 60.2.8c2.2 0 22.3 3.8 22.3 3.8s5.8 1.8 6.3 1.6c.3-.2 1.9.3 1.9.3z"/><path fill="#D5D6D7" d="M89 6.9s-7.9 4.3-10.1 4.5c-2.2.3-4.5 0-4.5 0S46.8 5.9 47.6 5.5c.8-.4 10.3-3.9 12.4-3.9 2.1 0 21.1 3.5 21.1 3.5s5.5 1.6 5.9 1.4c.4-.1 2 .4 2 .4z"/><path fill="#899FB4" d="M90.2 47l.5.5s-1.1.6-1.7.9c-.6.2-1.4.5-1.6.5h-.7l-.2-.4s1.1-.2 1.8-.5 1.3-.5 1.4-.6c.1-.2.5-.4.5-.4z"/><path fill="#99ABBC" d="M90.9 48.8s.1-.6 0-.9l-.2-.4-4 1.3-.2-.4s-.2.6-.2 1.1c.1.4 0 .7.5.6.5 0 1.7-.6 2.2-.6.5-.1 1.2-.4 1.3-.4.1-.1.6-.3.6-.3z"/><path fill="#99ABBC" stroke="#99ABBC" d="M94.6 40.2v.6m2.2-.3l-.2.8m2.6.5l-.8.5m-6.3.2l.8.5m-1.5 3.7l.9.3m0 3.1l.6-.6"/><path fill="#99C1D8" d="M99.3 47.3s.8.6.8 1.5c0 .8.2 1.7-1.3 3s-3.6 3.2-6.1 4.6c-2.5 1.3-4 2.5-6.2 2.9-2.2.4-5.3.8-7.9.5-2.6-.3-15.2-4.5-22.7-7.3s-11.5-4.6-12.3-5.2c-.8-.5-1.3-1.4-1.1-2.1.1-.7.7-2 .7-2s4.3 2.3 6.4 3.2c2.1.9 10.5 3.9 14.1 5.2 3.6 1.3 12.6 4.3 16.9 4.6 4.2.2 8.2-.9 9.6-1.8 1.3-.8 4.4-3 5.2-3.6.8-.7 2.4-1.3 2.7-1.9.3-.7 1.2-1.6 1.2-1.6z"/><path fill="#989897" d="M92.2 11.5l.3 21.8s-.1-.2-.4 0c-.3.2-.2-21.2-.2-21.2l.3-.6z"/><path fill="#272828" d="M93.8 34.8s1.4-.5 1.5-2.5c.1-2 0-19.3 0-19.3s.1-1 .7-.4.7 4.9.7 4.9l-.1 10.7v4.1s-.5 1.8-1.4 2.5c-.8.7-1.5 1-1.5 1v-1z" opacity=".1"/><path fill="#575757" d="M57.1 2.9L60 1.7l25.5 4.9s-1.4 1-2 1.3c-.5.3-1.4-.1-2 0-.5 0-24.4-5-24.4-5zM53 4.1s-.9.7-1.7.7c-.8 0-1.9 1-1.9 1s21.3 4.7 22.8 5c1.5.3 3.2.1 4.3 0 1.1-.1 2.6-1 2.6-1l.9-1.3-25-4.1-2-.3z"/><path fill="#1D1D1E" d="M54.2 3.4l25.7 5-.3.5-25.4-4.8zM61.5 1l19 3.8 2.9.1v.5L61.5 1.7z"/><ellipse cx="95.3" cy="45.6" fill="#899FB4" rx="2" ry="3.6"/><ellipse cx="96.7" cy="45.6" fill="#99ABBC" rx="2" ry="3.6"/><path fill="#ABBBC8" d="M92.2 21.8h3.2s0 1.5-.1 2.2c-.1.7-1.2 1.1-1.6 1.1-.3 0-1.6 1.5-1.6 1.5v-4.8z"/><path fill="#A7B7C6" d="M95.4 18.6l4.1 2.3-4.1.8h-3.1v-1.6s1.1-1.8 1.6-1.6c.5.4 1.5.1 1.5.1z"/><path fill="#8B9EAE" d="M99.6 23.2c-1.2.4-2.7 1.5-3.8 2.2-.8.5-3.3 3-3.6.8.6-.6 2.8-2.2 3.6-2.4.5-.1 1.1.5 1.8.3.8-.1 1.2-.8 1.9-1.2"/><path fill="#A7B7C6" d="M94.6 18.7s5.7 1 4.5 3.1c-1.3 2.1-4.5 1.2-4.5 1.2l-3-2.5 3-1.8z"/><path fill="#99ABBC" d="M99.5 20.9v1.9s-1.1 1.1-1.8 1.3c-.7.2-2.3-.2-2.3-.2v-2.2l4.1-.8z"/><path fill="#CD8031" stroke="#CD8031" d="M25.2 47.1l-.3 1.4c-.6-.1-.9.1-.8 1.1.1 1 2.7 3.8 4 4.7 1.3.9 7 8.1 8.6 9.4 1.6 1.3 3.8 3.4 4.8 4.5 1 1 3.4 2.2 3.8 2 .4-.2 4.1-.6 4.6-.6S58 69 58 69s8.4-1.4 8.7-1.3c.3.1 7.6-1.2 7.6-1.2s9.3-.9 9.8-1.2c.1-.1.3-.3.3-.5.3-.7.3-1.8-.6-1.8-1.1 0-21.7-14.5-23.7-15.5s-3.4-1.1-4.3-1c-.9 0-4.6-1.2-6-1.7-1.5-.5-4.8-.8-6.7-1-1.9-.2-3.3-.2-4.5-.2-1.2.1-1.6.5-2.1.6-.5.1-1.3.6-1.8.3s-.4-.6-1.1-.7c-.6-.2-2.1-.4-2.5-.1-.4.2-.9.9-1.5.9s-1-.8-1.4-.4c-.3.4-1.5.9-1.5.9s-1.3.3-1.4.6c-.1.3-1.2.2-.7.5.7 0 .6.9.6.9z"/><path fill="#C07B2A" d="M82.7 71.5s-.5.8-3.1 1.2c-2.6.4-4.7.1-5.9.3-1.2.2-2.3 0-2.6.1-.3 0-1.5.1-1.9.2-.4.1-2.1.3-2.1.3l-1.6.4-2.3.5s-1.3.2-1.8.3c-.4 0-1 .2-1.5.2-.6 0-1.1.3-1.1.3l-1.4.2s-.8.5-1.4.5c-.6 0-1.7.1-2.3.2-.6.1-2.1.2-2.4.2-.3 0-.8.1-1.3.1s-.7.3-1.5.4c-.7.2-1.2.2-1.6.1-.4-.1-.6-.5-1.3-.3-.7.2-1.7.3-1.7.3s-2.7-1.7-3.4-2.1c-.7-.4-1.7-.8-2.3-1.3-.5-.6-1.8-2.7-1.8-2.7s-.4-.9-.9-1.3c-.5-.5-1-.7-1.2-1.1-.2-.4-.8-.9-1.2-1.3-.4-.4-2.5-3.4-2.8-3.7-.4-.3-1.2-.7-1.5-1.2-.4-.4-1.3-.2-1.6-1-.3-.7-1.4-1.6-1.7-1.9-.3-.3-1-1.7-1.2-2-.3-.3-1-1.6-1-1.6s-1.1-1.3-.2-3.8c.9-2.5 1.3-3.6 1.3-3.6s.4 3.5 3.6 5.8c3.2 2.2 11.4 13.3 14.3 14.5 3 1.2 17.5-.4 20.5-.8 3.1-.5 19.2-2.1 20.4-2.8 1.2-.7 1.1-.1 1.2-.7l-.1.6-.5 4.9-1.1 1.6z"/><g fill="#050505" stroke="#81807F" opacity=".06"><path d="M52.5 74.1c.1-.6 1-.7.7-1.4.3-.3.5-.3.8-.2 0 .7-.7 1.9-1.4 1.8m2.7-.1c-.1-.4.3-.8.7-1 .1 0 .1.1.2.1-.2.5-.6 1-1 1m5-1.1c0 .1-.2.1-.2.3.6-.2 1.2-.9.6-1.5-.1.1-.3.1-.4.2.2.3.2.6 0 1m10.4-2.5c.1-.4 1.8-2 2-1.8.6.8-1.6 1.8-2 1.8m-3.9.5c.4-.2.8-.3 1.2-.3 0 0 .2.2.1.2-.3.3-.8.3-1.1 0m-1.6-1c.5-.1 1-.1 1.4-.3-.2.4-.7.6-1.1.6 0-.1 0-.2-.1-.3M58.7 72c-.4-.8.6-1 1-1.4.1.6-.4 1.1-1.1 1.2m2.7-1.2c.1-.4.1-.7.5-.7 0 .3-.2.6-.5.8m-3.4-1.1c1.1.6.6-1.4-.2-.4.2.3.4.2.4.2m-8.6 3c-.2-.6.6-1 1-.4.4.7-.7.8-1 .6m-1.6 2.5c.3-.3.5-.8.6-1.2-.9-.3-1.1 1.2-.5 1m-1.3 1.8c-.4-1.6-2.2-.8-.4-.3 1 .2 2.1-.1 3.1.2-.4.2-.9.3-1.4.5m5.7-1.1c-.1-.4-.1-.7-.1-1.1-.1 0-.4-.1-.5-.1.1.1.5 0 .7.1 0-.1-.1-.3-.2-.4.2-.1.2 0 .4 0-.1.4-.2.8-.4 1.1.1.2 0 .4 0 .6m2.4-.7c-.1-.1-.2-.2-.3-.4-.1.1-.1 0-.2 0 0 .1.1.3.1.4.2 0 .2-.2.4-.2m3.1-1.2c-.1-.5.2-1 .4-1.2 0 .5-.2 1.1-.6 1.2m7.3-.5c.5-.4.8-1 1.3-1.4.6-.5.6-.5 1.4-.8-.4.5-1.2.6-1.5 1.1-.1.1-.2.1-.3.3.4.3 1.1.1 1.6 0-.5.5-1.3.3-2 .7.2.3 0 .1-.1.2m3.2-4.3c-.2-.6.4-.8.8-1.1.1.6-.6 1.2-.8 1.1m-22.4 3.9c0-.3.3-.8.4-1-.4.7-.8 1.3-1.3 1.9-.4.4-.8.9-1.3 1.1-.5.2-1.3.1-1.7.5m-.7-2.8c-.3-.2-.3-.4.1-.8.5.4.1.9-.3.7m.9-2.9c-.3 0-.5.1-.8.3.3.4.7.6 1.1.2-.1-.2 0-.4 0-.5.1.1.2.1.3.2"/><path d="M44.9 73.4c-1-1.1 1.1-1.6.5-2.9 1.3.3.7 2.4.3 3-.3.5-2.3 2.6-2.7 1.7.8-.6 2.1-.7 2.1-1.9M39 71.2c-.3-.1-.7-.4-1.1-.5-.1.5.3 1 .9 1 .1-.1.1-.3.1-.4m1.9 3c0-.4.1-.7.2-1 .2.3.1.6 0 .9-.1 0-.2-.1-.3-.1m.8-3.7c.1-.2.2-.5.2-.8.3.5.4 1 .2 1.5-.3-.1-.5-.2-.6-.5.3-.2.5-.5.4-.9m-8.5-2.8c0-.3-.1-.5.1-.8.4.4-.1.7.1 1.2.2.3.8.5 1.1.7-.1.1-.1.2-.2.3-.5-.4-.8-1-1.2-1.5m0-12.3c-.5.1-.7-.5-.9-.8.4-.2 1.5-.8 1.8-.3.5.8-.9.9-.9 1.4-.3.1-.1-.1-.1-.1m4.5-.3c-.1-.6.7-.8 1-.2.1.3-.3.7-.1 1.2-.7.1-1.2-1.2-1.9-.5.5-.4 1.2-.5 1.7-.8m-6.9-2.2c.3.1.7-.2.9-.4.1.3.2.7.2 1-.2-.2-.4-.2-.6-.3 0 .2 0 .4.1.6-.1-.2-.3-.4-.4-.6-.3.3-.8.4-1.2.2.9-.8.3-1 .4-2 1-.3.7.7.8 1.3m1.3-3.9c.5 0 .8-.5.7-1 1.4.8-.4 1.4-.9 1.5-.5.2-2.2 1-2.1-.5.4 0 .9-.1 1.1-.4.2.2.4.2.5.6.1 0 .3 0 .5-.1m6.2 3.4c-.7-.6-.1-1.2.5-1.8-.2.2-.5.3-.8.2m-3.6 3.7c0-.5.1-1 .5-1.3-.2-.1-.4-.4-.6-.5.7-1 1.2.7.5 1.3m1.5-3c-.3-.6.1-1.2-.3-1.8 0 0 .1 0 .1-.1.1 0 .3.1.5.2-.3.5-.3 1.4.5 1.1-.1.2-.1.4-.2.6.1.1.2.1.3.2-.3-.1-.7-.3-.9-.5m-.9 5c-.8-1.1.6-2.1 1.5-1.2-.1.2-.2.3-.3.4-.6-.7-.9 0-1.1.5m-1.6 2.2c0-.3.2-.6.4-.7 0 .2-.2.7-.2.7m-6.9-8.8c.4-1.3-.2-1.9 1.1-2-1.5-1.5-.9 1.1-1.2 1.7M39 45.6c-.2-.2-.4-.5-.5-.8.7-.3 1.9-.2 2.6-.7-.5-.5-3 .1-2.9.8-.3.1-.3.1-.6.1.1-.3.1-.7.2-.9-.9.3.1 1.7 1 1m.6 2.5c-.3.2-.6.5-1 .4-.1-.1 0-.2.2-.3m2.3.5c.1-.7.7-.5 1.2-.8-.4-.6-.9 0-1.2.5m3.1-3.4c.4.3 1.1.4 1.7.4 0-.8-1.6-1.3-1.6-.5m-2.8 7c-.1-.4.1-.8.5-1-.2-.3-.3-.6-.4-.9.2 0 .4.1.6.1-.6.7.3 1 .7 1.2-.2 0-.6.3-.9.3 0 .2 0 .4.1.5-.4 0-.3-.2-.4-.3m1.7 3.9c-.5 0-1.5.6-1.9 0-.5-.7 1-.6.4-1.3-1 .4-.9 1-.1 1.5s1.1.2 2 0m-3.4 1.2c0 .3 0 .5.1.7.4-.4.1-.5-.3-.7m-2.5 1.1c-.1.1-.2.3-.1.4.1-.3-.1-.3-.2-.5M27.6 51c.2-.1.3-.4.5-.6-.3-.4-.8-.8-.7-1.4 1.2 1 1.5 1.7-.1 2.1M70.4 56c-.5 0-1.1-.2-1.2-.8-.7.8 1.1.9 1 1.5.3-.3.1-.4.1-.7m2.2 1.1c-.3-.1-.5-.2-.8-.1.3.3.6.2.9 0m-22.1 8.9c.1 0 0 0-.1-.1-.2.2-.2.1-.3.5.3.1.4-.1.5-.3m2.3-5c.1-.2.2-.3.4-.5.2.2.3.4.2.8-.2 0-.6-.1-.9-.2.1-.2.2-.3.3-.5m-4.5-3.1c-.1 0-.3.1-.5.1-.4-.4-.7-.2-1.2-.5.3.1.6.2.9.2m33.6 6.2c-.1.3-.1 0-.2-.3m-3.6-2.5c-.4.4-1.2 0-.6-.4.1.3.4.6.5.7m-2.6-2.6c0 .1.1.3.2.4m-7.3-4.3c0-.1-.1-.2-.1-.4.1-.1.2-.2.3-.2.2.2.5.5.6.8-.4.3-1 .3-1.1-.1m6.5 5.6s-.2-.1 0-.2c.5.1.5.1.5.5-.4-.2-.3-.3-.3-.5m-6.5-2.6c.2 0 .5.1.6.3 0 .1-.1.2-.1.3-.5 0-.4-.2-.4-.5M45 48.3c.3-.4.6-.7 1-.7-.6-.3-1.4.1-.8.7m-1.5-1.9c.7 0 1.4-.1 2.1-.3-.3-.5-1.7-.3-1.7.3m-1 3.2c-.1.1.1 0 .1-.1-.3-.4-1.6-1.5-1.4-.4.4.1.9.4 1.3.6m-10.8 7.9c-.2-.2-.2-.3 0-.2.5.4.1.3 0 .6m3.4.1c-.6-.2-.5-.6 0-.9l.3.3c-.1.2-.3.2-.4.3m-1.5-9.2c-.4.6.3.7.8.6.1-.4.1-.5-.2-.8-.4.1-.7.3-1 .6m1.9-1.6c.5-.1.7-.8 1.1-1.2.4.4 0 .9-.2 1.2-.4.1-.7.2-1.1.2m3.4-.9c.3-.2.6-.3.9 0-.3.3-.7.3-1.1.1-.1-.2.1-.1.2-.3m2.6-.6c-.1-.2-.1-.5 0-.7h.3c0 .4-.5.7-.6.7m1.8 2.5c0-.4.1-.7.2-1 .3.1.6.3.7.5-.2.1-.9.6-.8.5m15.1.1c.1-.1.2-.1.3-.2-.5.1-1.1.3-1.6.5m-9.3 10.3c.1-.5.7-.7 1-.2-.3.3-.5.2-.8-.1m-2.9.2c.1-.3.3-.5.6-.6.1.5-.2.8-.7.4m-2.2 1.1c.1-.2.1-.4.2-.6"/></g><path fill="#FFF" d="M34.3 45.3c-1.4 0-4 .3-4.9 1.7-1.1 1.8.1 3.9.8 5.5 1.6 3.3 4.1 6.9 6.8 9.4 1.1 1 2.2 2.1 3.2 3.1.6.7 2.2 2.1 2.1 3-.1.1-.1.2-.2.2-1.4-1.2-2.9-2.1-4-3.5-1.6-1.8-3-3.6-4.9-5.2-1.5-1.3-2.7-2.7-4-4.2-1.2-1.4-3.1-2.6-4.2-4.3-.6-.9-1-1.9-.3-2.9.3-.5.7-.4.9-.9.1-.3-.1-.9 0-1.3.3-.9 3.9-3.7 3.7-1.5.7.3 1.8-1 2.8-.9.7.1 2.5 1 1.8 1.8" opacity=".23"/><path fill="#050505" stroke="#050505" d="M68.6 71c0-.3 0-.5.1-.8.4.4-.1.7.1 1.2.2.3.8.5 1.1.7-.1.1-.1.2-.2.3-.5-.4-.8-1-1.2-1.5" opacity=".14"/><path fill="#050505" stroke="#050505" d="M80.7 67.4c-.5 0-1.1-.2-1.2-.8-.7.8 1.1.9 1 1.5.3-.3.1-.4.1-.7" opacity=".15"/><path fill="#050505" stroke="#050505" d="M75.3 70.8c.1 0 0 0-.1-.1-.2.2-.2.1-.3.5.3.1.4-.1.5-.3" opacity=".1"/><path fill="#050505" stroke="#050505" d="M63.2 72.5c.1-.2.2-.3.4-.5.2.2.3.4.2.8-.2 0-.6-.1-.9-.2.1-.2.2-.3.3-.5m14.7-6.2c0-.1-.1-.2-.1-.4.1-.1.2-.2.3-.2.2.2.5.5.6.8-.4.3-1 .3-1.1-.1m-34.2-.1c-.5.1-.7-.5-.9-.8.4-.2 1.5-.8 1.8-.3.5.8-.9.9-.9 1.4-.3.1-.1-.1-.1-.1m4.5-.2c-.1-.6.7-.8 1-.2.1.3-.3.7-.1 1.2-.7.1-1.2-1.2-1.9-.5.5-.4 1.2-.5 1.7-.8m-6.9-2.3c.4.1.7-.2.9-.4.1.3.2.7.2 1-.2-.2-.4-.2-.6-.3 0 .2 0 .4.1.6-.1-.2-.3-.4-.4-.6-.3.3-.8.4-1.2.2.9-.8.3-1 .4-2 1-.3.7.7.8 1.3m1.3-3.8c.5 0 .8-.5.7-.9 1.4.8-.4 1.4-.9 1.5-.5.2-2.2 1-2.1-.5.4 0 .9-.1 1.1-.4.2.2.4.2.5.6.1 0 .3 0 .5-.1m6.2 3.3c-.7-.6-.1-1.2.5-1.8-.2.2-.5.3-.8.2m-3.6 3.7c0-.5.1-1 .5-1.3-.2-.1-.4-.4-.6-.5.7-1 1.2.7.5 1.3m1.5-3c-.3-.6.1-1.2-.3-1.8 0 0 .1 0 .1-.1.1 0 .3.1.5.2-.3.5-.3 1.4.5 1.1-.1.2-.1.4-.2.6.1.1.2.1.3.2-.3-.1-.7-.3-.9-.5m-.9 4.9c-.8-1.1.6-2.1 1.5-1.2-.1.2-.2.3-.3.4-.6-.7-.9 0-1.1.5m-1.6 2.2c0-.3.2-.6.4-.7 0 .2-.2.7-.2.7M38 59.1c.4-1.3-.2-1.9 1.1-2-1.5-1.5-.9 1.1-1.2 1.7M49.3 57c-.2-.2-.4-.5-.5-.8.7-.3 1.9-.2 2.6-.7-.5-.5-3 .1-2.9.8-.3.1-.3.1-.6.1.1-.3.1-.7.2-.9-.9.3.1 1.7 1 1m.6 2.6c-.3.2-.6.5-1 .4-.1-.1 0-.2.2-.3m2.3.5c.1-.7.7-.5 1.2-.8-.4-.6-.9 0-1.2.5m3.1-3.4c.4.3 1.1.4 1.7.4 0-.8-1.6-1.3-1.6-.5m-2.8 6.9c-.1-.4.1-.8.5-1-.2-.3-.3-.6-.4-.9.2 0 .4 0 .6.1-.6.7.3 1 .7 1.2-.2 0-.6.3-.9.3 0 .2 0 .4.1.5-.4 0-.3-.2-.4-.3m1.7 4c-.5 0-1.5.6-1.9 0-.5-.7 1-.6.4-1.3-1 .4-.9 1-.1 1.5s1.1.2 2 0M50.5 68c0 .3 0 .5.1.7.4-.4.1-.5-.3-.7m-2.5 1.2c-.1.1-.2.3-.1.4.1-.3-.1-.3-.2-.5m-9.6-6.7c.2-.1.3-.4.5-.6-.3-.4-.8-.8-.7-1.4 1.2 1 1.5 1.7-.1 2.1M58.7 69c-.1 0-.3.1-.5.1-.4-.4-.7-.2-1.2-.5.3.1.6.2.9.2m-2.6-9.1c.3-.4.6-.7 1-.7-.6-.3-1.4.1-.8.7M54 57.8c.7 0 1.4-.1 2.1-.3-.3-.5-1.7-.3-1.7.3m-1 3.2c-.1.1.1 0 .1-.1-.2-.4-1.6-1.5-1.4-.4.4.1.9.4 1.3.6M42.6 69c-.2-.2-.2-.3 0-.2.5.4.1.3 0 .6m3.4.1c-.6-.2-.5-.6 0-.9l.3.3c-.1.2-.3.2-.4.3M44.5 60c-.4.6.3.7.8.6.1-.4.1-.5-.2-.8-.4.1-.7.3-1 .6m1.8-1.6c.5-.1.7-.8 1.1-1.2.4.4 0 .9-.2 1.2-.3.1-.7.2-1.1.2m3.4-.9c.3-.2.6-.3.9 0-.3.3-.7.3-1.1.1-.1-.2.1-.1.2-.3m2.6-.5c-.1-.2-.1-.5 0-.7h.3c0 .4-.5.7-.6.7m1.9 2.4c0-.4.1-.7.2-1 .3.1.6.3.7.5-.2.1-.9.6-.8.5m4.4 10.8c.1-.5.7-.7 1-.2-.3.3-.5.2-.8-.1m-2.9.2c.1-.3.3-.5.6-.6.1.5-.2.8-.7.4m-2.2 1c.1-.2.1-.4.2-.6" opacity=".15"/><path fill="#050505" stroke="#81807F" d="M61.1 66.5c-.5.1-.7-.5-.9-.8.4-.2 1.5-.8 1.8-.3.5.8-.9.9-.9 1.4-.3.1-.1-.1-.1-.1m4.6-.3c-.1-.6.7-.8 1-.2.1.3-.3.7-.1 1.2-.7.1-1.2-1.2-1.9-.5.5-.4 1.2-.5 1.7-.8m-6.9-2.2c.4.1.7-.2.9-.4.1.3.2.7.2 1-.2-.2-.4-.2-.6-.3 0 .2 0 .4.1.6-.1-.2-.3-.4-.4-.6-.3.3-.8.4-1.2.2.9-.8.3-1 .4-2 1-.3.7.7.8 1.3m1.2-3.9c.5 0 .8-.5.7-1 1.4.8-.4 1.4-.9 1.5-.5.2-2.2 1-2.1-.5.4 0 .9-.1 1.1-.4.2.2.4.2.5.6.1 0 .3-.1.4-.1m6.4 3.4c-.7-.6-.1-1.2.5-1.8-.2.2-.5.3-.8.2M63 65.4c0-.5.1-1 .5-1.3-.2-.1-.4-.4-.6-.5.7-1 1.2.7.5 1.3m1.4-3c-.3-.6.1-1.2-.3-1.8 0 0 .1 0 .1-.1.1 0 .3.1.5.2-.3.5-.3 1.4.5 1.1-.1.2-.1.4-.2.6.1.1.2.1.3.2-.3-.1-.7-.3-.9-.5m-.9 5c-.8-1.1.6-2.1 1.5-1.2-.1.2-.2.3-.3.4-.6-.7-.9 0-1.1.5m-1.6 2.2c0-.3.2-.6.4-.7 0 .2-.2.7-.2.7m-6.9-8.8c.4-1.3-.2-1.9 1.1-2-1.5-1.5-.9 1.1-1.2 1.7M67 57.6c-.2-.2-.4-.5-.5-.8.7-.3 1.9-.2 2.6-.7-.5-.5-3 .1-2.9.8-.3.1-.3.1-.6.1.1-.3.1-.7.2-.9-.9.3.1 1.7 1 1m5.3-.6c.4.3 1.1.4 1.7.4 0-.8-1.6-1.3-1.6-.5m-2.8 7c-.1-.4.1-.8.5-1-.2-.3-.3-.6-.4-.9.2 0 .4.1.6.1-.6.7.3 1 .7 1.2-.2 0-.6.3-.9.3 0 .2 0 .4.1.5-.4 0-.3-.2-.4-.3m1.7 3.9c-.5 0-1.5.6-1.9 0-.5-.7 1-.6.4-1.3-1 .4-.9 1-.1 1.5s1.1.2 2 0m-3.5 1.1c0 .3 0 .5.1.7.4-.4.1-.5-.3-.7m-2.5 1.2c-.1.1-.2.3-.1.4.1-.3-.1-.3-.2-.5M55.6 63c.2-.1.3-.4.5-.6-.3-.4-.8-.8-.7-1.4 1.2 1 1.5 1.7-.1 2.1m21.2 6.4c-.1 0-.3.1-.5.1-.4-.4-.7-.2-1.2-.5.3.1.6.2.9.2m-2.6-9c.3-.4.6-.7 1-.7-.6-.3-1.4.1-.8.7m-1.6-1.9c.7 0 1.4-.1 2.1-.3-.3-.5-1.7-.3-1.7.3m-.9 3.1c-.1.1.1 0 .1-.1-.3-.4-1.6-1.5-1.4-.4.4.1.9.4 1.3.6m-10.8 8c-.2-.2-.2-.3 0-.2.5.4.1.3 0 .6m3.4.1c-.6-.2-.5-.6 0-.9l.3.3c-.1.2-.3.2-.4.3m-1.5-9.2c-.4.6.3.7.8.6.1-.4.1-.5-.2-.8-.4.1-.7.3-1 .6m1.8-1.6c.5-.1.7-.8 1.1-1.2.4.4 0 .9-.2 1.2-.3.1-.7.2-1.1.2m3.5-.9c.3-.2.6-.3.9 0-.4.3-.8.3-1.2.1-.1-.2.1-.1.2-.3m2.6-.6c-.1-.2-.1-.5 0-.7h.3c0 .4-.5.7-.6.7m1.9 2.5c0-.4.1-.7.2-1 .3.1.6.3.7.5-.2.1-.9.6-.8.5m4.4 10.7c.1-.5.7-.7 1-.2-.3.3-.5.2-.8-.1m-2.9.2c.1-.3.3-.5.6-.6.1.5-.2.8-.7.4m-2.1 1c.1-.2.1-.4.2-.6" opacity=".15"/><g fill="#050505" stroke="#81807F" opacity=".27"><path d="M57.4 54.7c.5-.2.8.3 1.1.6-.3.3-1.3 1-1.7.6-.6-.7.8-1 .7-1.6.3-.1.1.1.1.1" opacity=".15"/><path d="M57.5 55c.2.5-.6.9-.9.4-.2-.3.1-.8-.1-1.2.7-.2 1.4.9 2 .1-.4.5-1 .7-1.5 1.1m6-2c-.4-.1-.6.3-.8.6-.2-.3-.3-.7-.4-1 .2.1.4.1.6.2-.1-.2-.1-.4-.2-.5.1.1.4.3.5.5.3-.3.7-.5 1.1-.4-.8.9-.1 1 0 2.1-.9.5-.8-.5-1-1.1m-4.5-3.5c-.5.1-.7.6-.5 1.1-1.5-.6.2-1.4.6-1.7.5-.3 2-1.4 2.1.1-.4.1-.8.3-1 .6-.2-.2-.5-.2-.6-.4-.1.1-.3.1-.4.2m-6.9-2.3c.8.4.3 1.2-.1 1.8.2-.2.4-.4.7-.4m2.9-4.2c.1.5.1 1-.3 1.4.2.1.4.4.7.4-.5 1.2-1.3-.5-.7-1.2m-.9 3.2c.4.6.1 1.2.6 1.7l-.1.1c-.1 0-.3-.1-.5-.1.2-.6 0-1.4-.7-1 0-.2 0-.4.1-.6-.1-.1-.2-.1-.3-.1.3 0 .7.2 1 .4m6.2 6.5c.9.9-.2 2.2-1.3 1.5 0-.2.1-.3.3-.5.7.6.9-.1 1-.7M76 62.5c0 .3-.1.6-.3.8 0-.2.1-.7 0-.7M63.3 49.5c-.2 1.3.6 1.8-.8 2.1 1.8 1.2.7-1.3.9-1.9m-10.9 3.9c.2.1.5.5.6.7-.7.4-1.8.5-2.4 1.2.6.4 2.9-.7 2.7-1.4.2-.2.3-.2.5-.2-.1.3 0 .7 0 .9.9-.4-.4-1.6-1.2-.8m-.9-2.3c.3-.2.5-.6.9-.6.1.1 0 .2-.2.3m-2.4 0c0 .7-.6.6-1 1 .5.5.9-.2 1.1-.7m-2.4 3.9c-.5-.2-1.2-.2-1.7-.1.2.8 1.8 1 1.7.2m1.4-7.4c.1.4 0 .8-.3 1.1.3.2.4.5.6.8h-.6c.5-.8-.5-.9-.9-1.1.2-.1.5-.4.8-.4-.1-.1-.1-.4-.2-.5.4-.1.3.1.4.2m-2.4-3.5c.5-.1 1.4-.8 1.8-.4.6.6-.9.8-.1 1.4.9-.6.7-1.1-.2-1.5-.9-.4-1.1 0-2 .4m19.2 11.6c0-.3-.1-.5-.3-.7-.3.5 0 .5.4.6m9.6 4c.2-.4.3-.7.1-1-.2.7.3.6.6 1.1m-6.6 2.5c-.2.2-.3.4-.4.6.4.3.9.7.9 1.2-1.4-.8-1.8-1.3-.3-2.1m-28.2-19c.1-.1.3-.1.4-.2.4.3.8.1 1.3.3-.3 0-.6 0-1-.1m4.3 8.4c-.2.4-.4.8-.9.8.7.2 1.4-.3.7-.8m1.9 1.7c-.7.2-1.4.4-2 .7.4.4 1.7-.1 1.6-.6m.3-3.3c.1-.1-.1 0-.1.1.3.3 1.8 1.2 1.4.1-.4 0-1-.2-1.4-.3m33.3 12c.2.2.2.2 0 .2-.5-.3-.2-.3-.1-.5m-17.9-6.7c.6.1.6.5.2.9l-.3-.3c.1-.2.2-.2.3-.3m-6.4-5.9c.3-.7-.4-.6-1-.5 0 .4 0 .5.3.7.3-.2.6-.5.9-.8m-1.4 2c-.5.2-.6.9-.9 1.4-.5-.3-.1-.8 0-1.2.3-.2.7-.3 1-.4m-3.1 1.5c-.3.2-.5.4-.9.1.3-.3.7-.4 1.1-.3.2.2 0 .1-.1.3m-2.5 1.1c.1.2.2.4.2.7-.1 0-.2.1-.3.1 0-.4.3-.8.5-.8m-2.4-2.1c.1.4.1.7 0 1.1-.3 0-.6-.2-.8-.3.1-.2.8-.8.7-.6m25.6 11.9c0 .5-.6.8-1 .4.2-.4.4-.2.8 0m7.5-1.5c-.1.3-.3.5-.5.7-.1-.5.1-.8.6-.6m-5-.2v.7" opacity=".15"/></g><path fill="#FBE400" d="M38.7 71c.1-3.7-2.4-7.1-5.1-9.6-1.4-1.3-3.2-2.1-4.5-3.6-.5-.6-2.3-4.2-3-4.3-3.9-1.1 3.2 7.8 3.9 8.7 2.3 2.8 4.9 6.3 7.7 8.3" opacity=".15"/><path fill="#FFF" d="M57.9 46.5c2.4 1.4 4.4 2.2 6.6 4.2 1.8 1.7 4.1 2.9 6.2 4 2.5 1.4 4.7 3.3 7.2 4.9 2 1.3 4.7 1.8 6.3 3.6-.1.6-.1.9-.6 1.3.1-2.3-3.7-2.4-5.1-3.5-2.1-1.6-4.2-3.7-6.5-5.2-2.5-1.6-4.6-2.6-6.9-4.6-1.5-1.3-6.7-3.1-7-4.7" opacity=".23"/><path fill="#FFF" d="M33.7 45.1c1.8.8 4-1 6-1.1 2.2-.1 4.3.1 6.6.4 4.2.6 8.3 2.7 12.7 2.8-.7-1.8-4.2-.9-5.8-1.4-2.2-.7-4.1-1.7-6.5-1.9-2.3-.2-4.9-.9-7.1-.7-1.8.2-4.4 1.8-6 .5.2.7 0 1.1.1 1.4m6 20.9c1.2 2.8 7 3.2 9.7 3.2 3.5-.1 7.4-.1 10.9-.6 3.5-.4 7.2-1.5 10.7-1.7 3.1-.2 7.8.8 10.8-.8 1.2-.6 2.2-1.4 1.4-2.9-.6 3.6-6.6 2.2-9.1 2.7-3.6.8-7.1.8-10.7 1.2-6.3.8-15.3 2.7-20.5.2-.6-.3-1.1-.3-1.3-1.2l-.3.9c-.7 0-.8-.4-1.1-1" opacity=".23"/><path fill="#050505" d="M53.2 74.2c-.2 0-.5.2-.7.3 0-1.1 2.1-3.9-.7-3.3.3-.5.2-.9.7-1.4-1.7-.4-3.9 0-5.8-.1-1.8-.1-4.2-.5-6-.4 1.4.5 2.1 1.6 1.4 3 1 .2 1 .7 1.5 1.2-.6.2-1.1.8-1.6 1 1.1 2.7 2.6 1.7 4.7 1.7 2 0 4.6 1.1 6.1-.7m25.8-3.2c.8-.3 1.6-.7 2.4-1.3-1.2-1.8.9-6 2.8-6.3.7.6-.1 4.2-.5 5.2-.7 1.5-2.5 2.5-4.1 2.5" opacity=".07"/><path fill="#E3C81F" d="M55.1 74.3c1.4.6 4.3-1.9 6.3-1.9.7 0 1.8.5 2.7.3.9-.1 1.7-.8 2.6-1.1 1.7-.4 11.7.8 11.5-1.4.7-.1 1.2-.6 1.9-.5-.6-.5-1.2-1.1-2-1.3 0-.4-.2-.7-.3-1.1-4.2-.2-9 1.8-13.4 2-2.2.1-3.8.3-5.9 1.1-1.9.7-4.7-.2-6.3.5.5.4.9 1.2 1.4 1.6-.2.1-.7.1-.9.2.1.1.6.5.6.5-.4.2-.8.7-1.2.9 1.2-.2 2.4-1.1 3.6-.6.1.5-.3.2-.3.4" opacity=".15"/><g fill="#050505" stroke="#81807F" opacity=".41"><path d="M64.3 64.9c.5-.2.8.3 1.1.6-.3.3-1.3 1-1.7.6-.6-.7.8-1 .7-1.6.3-.1.1.1.1.1" opacity=".15"/><path d="M64.4 65.1c.2.5-.6.9-.9.4-.2-.3.1-.8-.1-1.2.7-.2 1.4.9 2 .1-.4.5-1 .7-1.5 1.1m6-1.9c-.4-.1-.6.3-.8.6-.2-.3-.3-.7-.4-1 .2.1.4.1.6.2-.1-.2-.1-.4-.2-.5.1.1.4.3.5.5.3-.3.7-.5 1.1-.4-.8.9-.1 1 0 2.1-.9.5-.8-.5-1-1.1m-4.6-3.6c-.5.1-.7.6-.5 1.1-1.5-.6.2-1.4.6-1.7.5-.3 2-1.4 2.1.1-.4.1-.8.3-1 .6-.2-.2-.5-.2-.6-.4-.1.1-.3.1-.4.2m-6.8-2.2c.8.4.3 1.2-.1 1.8.2-.2.4-.4.7-.4m2.9-4.2c.1.5.1 1-.3 1.4.2.1.4.4.7.4-.5 1.2-1.3-.5-.7-1.2m-.9 3.2c.4.6.1 1.2.6 1.7l-.1.1c-.1 0-.3-.1-.5-.1.2-.6 0-1.4-.7-1 0-.2 0-.4.1-.6-.1-.2-.2-.2-.3-.3.3 0 .7.2 1 .4m6.2 6.7c.9.9-.2 2.2-1.3 1.5 0-.2.1-.3.3-.5.7.6.9-.1 1-.7m15.8 6.4c0 .3-.1.6-.3.8 0-.2.1-.7 0-.7M70.2 59.6c-.2 1.3.6 1.8-.8 2.1 1.8 1.2.7-1.3.9-1.9m-10.9 4c.2.1.5.5.6.7-.7.4-1.8.5-2.4 1.2.6.4 2.9-.7 2.7-1.4.2-.2.3-.2.5-.2-.1.3 0 .7 0 .9.9-.4-.4-1.6-1.2-.8m-.9-2.4c.3-.2.5-.6.9-.6.1.1 0 .2-.2.3m-2.4 0c0 .7-.6.6-1 1 .5.5.9-.2 1.1-.7m-2.4 3.9c-.5-.2-1.2-.2-1.7-.1.2.8 1.8 1 1.7.2m1.4-7.3c.1.4 0 .8-.3 1.1.3.2.4.5.6.8h-.6c.5-.8-.5-.9-.9-1.1.2-.1.5-.4.8-.4-.1-.1-.1-.4-.2-.5.4-.1.3.1.4.2M53.5 55c.5-.1 1.4-.8 1.8-.4.6.6-.9.8-.1 1.4.9-.6.7-1.1-.2-1.5-.9-.4-1.1 0-2 .4m19.2 11.7c0-.3-.1-.5-.3-.7-.3.5 0 .5.4.6m9.6 3.9c.3-.4.3-.7.1-1-.2.7.3.6.6 1.1m-10.7-.1c-.2.2-.3.4-.4.6.4.3.9.7.9 1.2-1.4-.8-1.8-1.3-.3-2.1M47.9 53.7c.1-.1.3-.1.4-.2.4.3.8.1 1.3.3-.3 0-.6 0-1-.1m4.4 8.5c-.2.4-.4.8-.9.8.7.2 1.4-.3.7-.8m1.9 1.6c-.7.2-1.4.4-2 .7.4.4 1.7-.1 1.6-.6m.3-3.3c.1-.1-.1 0-.1.1.3.3 1.8 1.2 1.4.1-.4 0-1-.2-1.4-.3m15.3 5.1c.6.1.6.5.2.9l-.3-.3c.1-.2.2-.2.3-.3m-6.4-6c.3-.7-.4-.6-1-.5 0 .4 0 .5.3.7.3-.2.6-.5.9-.8m-1.4 2.1c-.5.2-.6.9-.9 1.4-.5-.3-.1-.8 0-1.2.3-.2.7-.3 1-.4m-3.1 1.4c-.3.2-.5.4-.9.1.3-.3.7-.4 1.1-.3.2.2 0 .1-.1.3M57 63.8c.1.2.2.4.2.7-.1 0-.2.1-.3.1 0-.4.3-.8.5-.8M55 61.7c.1.4.1.7 0 1.1-.3 0-.6-.2-.8-.3.1-.2.8-.8.7-.6m21.3 8.4c0 .5-.6.8-1 .4.2-.4.4-.2.8 0m1.6-.4v.7" opacity=".15"/></g><path fill="#542922" d="M74.3 64c1-.3 2.2-.2 3-1-.9-.3-1.8-.5-2.7-.6.3-.2.5-.8.9-1.1-.8-.4-2-.5-2.9-.9.2-.2.3-.8.5-1.1-.9-.6-1.8-1.2-.7-2.3-.6-.8-3.8-2.3-4.6-2.1.4 0 .9.2 1.3.2-.6.6-1.6.8-2 1.6.5.6 1.4.5 2 .8-1.1.5-2.8.6-3.6 1.5.9.7 2.2.2 3.2.7-.3.5-.9.8-1.4 1 .7.7 2.5.5 3.5.9-.5.4-2.5.9-1.9 1.8.3.5 2.2.4 2.8.4-.5.2-1.1.5-1.6.8 1.3 2.1 4.7-1 6.3-1" opacity=".15"/><path fill="#542922" d="M44.9 47.2c-2 .6-9.6 4-9.2 6.8.6 3.8 9.9-.1 11.6 2-2.3 1.8-4.7 2.4-6.1 5.2 1.2.9 2.7.4 4.1.3-.5 1.2-2.1 1.9-1.7 3.4 1.9.5 3.4-.8 5.3-.9-.3.3-.7 1.6-1 2 3.8 1.5 9.2-3 13-3.2 2.6-.2 3.7 1.8 6.2 1.2 2.2-.4 4.1-2.4 5-4.1-2.8-.6-5.7-.7-8.5-1.2 1.9-.9 4.7-.7 5.6-2.9-2-1.3-5.6-.1-7.5-1.5.6-.4 1.2-1.3 1.8-1.7-1.6-1.6-4.7-.3-6.8-1 .8-.8 1.9-1.3 2.7-2.1-2.1-.3-4.3-.1-6.5-.1 1.5-3.2-7.4-3.7-9.4-3.5-.4 1.7-2.6 1.2-3.4 2.6 1 .5 2.1.3 3.2.3" opacity=".15"/><path fill="#542922" d="M39.8 47.2c-1.8 1-4.5 1.5-5 3.7 1.9.8 4.4-.6 6.5-.2-1 .6-2 1.1-2.7 2 1.7.7 4-.1 5.8.6-.7 1.2-2.5 1.5-2.9 3.2 1.5.7 4.8-1.1 5.4 1.2-1.1.9-2.3 1.6-2.9 2.9 1.7 1.4 4.8-.3 6.7 1-.2 2.4-2.9 3.4-2 6.4 3.1.4 7-2.6 10.4-2.9 3.5-.3 6.9.7 10.2-.2 1.6-.4 3.3-.9 4.8-1.5 2.6-.9 3.6-.9 1.4-2.6-2.9-2.2-6.8-1.1-9.9-2.2 1.3-3.1-4.3-6.1-7.3-6.2-.1-1 .5-1.5 1.5-1.7-2.1-.4-2.4-2.2-4.3-3.2-1.6-.8-4.2-1.1-6-1.7-2.6-.8-3.7-1.1-6.1 0-2.1.9-3.7 1.9-6.2 2.1" opacity=".15"/></g></switch></svg>
