<svg xmlns="http://www.w3.org/2000/svg" version="1.0" viewBox="0 0 19.5 16.2"><switch><g><path fill="#999998" stroke="#999998" stroke-width=".25" d="M1.7 1.8c0-.2 0-1.3.4-1 .4.2.8 2 .7 2.2 0 .2.1.3.1.3l.6-.2S3.2.9 2.7.4c-.4-.4-.5-.6-1-.2C1.2.7 1 1.6 1 1.6s-1.1.3-1 1c.1.7.1.8.7.8s1.2-.2 1.3-.7c0-.5-.3-.9-.3-.9z"/><path fill="#F1F1F2" stroke="#8D8D8D" stroke-width=".25" d="M13.3 1.7L7.2.4s-4 1.2-4.9 4.4c-1.5 5.1 1.1 7 3.2 8.4 2.1 1.3 6 1.9 6 1.9"/><ellipse cx="12.6" cy="8.5" fill="#E1E2E0" stroke="#999998" stroke-width=".25" rx="5.8" ry="6.8"/><circle cx="12.6" cy="8.5" r="1.9" fill="#8C6226" stroke="#7F5321" stroke-width=".25" opacity=".27"/><path fill="#B7B7B7" stroke="#B7B7B7" stroke-width=".25" d="M10.8 7.9l2 .9.5-.1-2.2-1.3z"/><path fill="#999998" d="M12.9 9.2l-.1-.4-2-.9z"/><path fill="#999998" d="M12.7 8.5s.3 2.1.2 3c-.1.9-.3 1.9-.5 1.9s0-.9-.4-.9c-.6 0-.7.1-.7.1s-.3 1 .3 1.4c.6.4 1.2.4 1.5-.1.3-.6.3-3.4.3-3.9s-.2-1.2-.4-1.5c0-.3-.3 0-.3 0z"/><g stroke="#B7B7B7" stroke-width=".25"><ellipse cx="11.8" cy="12.6" fill="#B7B7B7" rx=".8" ry=".9"/><path fill="#FCFDFB" d="M11.5 12.1c-.6.3-.3 1.1.3 1.2-.4-.6-.3-.7.1-1.2" opacity=".18"/></g><path fill="#FCFDFB" stroke="#9D9D9C" stroke-width=".25" d="M13 9.3c.1.6 0 1.2 0 1.8 0 .6.2 1.3 0 1.9.5-.5.4-1.4.3-2.1-.1-.7-.1-1.4-.3-2.1-.3 0-.1.7 0 .8" opacity=".18"/></g></switch></svg>
