<svg xmlns="http://www.w3.org/2000/svg" version="1.0" viewBox="0 0 25 7.5"><switch><g><path fill="#E3F3F7" stroke="#35BCED" stroke-width=".25" d="M3.6 7c.1-.1 15.2-1.3 15.6-1.3.4 0 1.5-.8 1.9-.9.3-.2 1.6-.6 1.8-.7.2-.1.8-.2.8-.2l.9-2.2s-.3.2-1.2.1c-.9-.2-2.9-.8-2.9-.8S4 1.3 3.4 1.6c-.5.3.2 5.4.2 5.4z"/><path fill="#75CFF1" d="M3.1 5.5c-.1.1-.1.2 0 .2.5 0 .5-.6.7-1 1 .8 3.4.5 4.6.5 1.7 0 3.4-.1 5.1-.3.9-.1 1.6-.3 2.5-.4.8-.1 1.7-.1 2.5-.3.9-.1 1.6-.2 2.5-.2 1 0 2.2-.9 3.1-1.2 0 1.2-2.1 1.7-2.6 1.8-.5.2-1 .4-1.4.6-.5.3-.7.5-1.2.5-.8.1-1.7.1-2.5.1-.9.1-1.7.3-2.6.4-1.7.2-3.4 0-5.1.2-.8.2-1.6.3-2.5.3-.8.1-1.7.4-2.6.3.1-.1.1-.4.2-.5-.3-.2-.3-.6-.4-1"/><path fill="#8099C4" d="M4.3 4.3c0 1.5-.4 2.7-.9 2.7s-.9-1.2-.9-2.7c0-1.5.4-2.7.9-2.7s.9 1.2.9 2.7z"/><ellipse cx="3.1" cy="4.1" fill="#A2D7C5" rx=".6" ry="1.2"/><path fill="#A2D7C5" d="M3.1 2.9l-2.6.7v.9c0 .1.1.4.2.5.2.1 2.4.2 2.4.2s.4-.6.5-1.2c.1-.2-.5-1.1-.5-1.1z"/><path fill="#84C0AA" d="M.9 4.3c0 .4-.1.8-.2.8s-.2-.4-.2-.8.1-.8.2-.8.2.4.2.8z"/><path fill="#4AC3F1" stroke="#03A5D0" stroke-width=".25" d="M20.4.9s.5.4 1.8.7c1.3.3 2.4 0 2.4 0v-.3s-1.2.1-2.1 0c-.9-.1-1.6-.6-1.6-.6l-.5.2z"/><path fill="#F9FCFF" d="M3.3 3c.6.5.5 1 .2 1.6.6.1.4-.4.6-.7.2-.4.2-.6.7-.7.6-.2 1.5 0 2.1 0 1.4 0 2.7-.2 4-.3 1.8-.2 3.5.1 5.1.1 1.5 0 3.1 0 4.5-.2 1-.2 1-.8 0-1-.6-.1-1.3.1-1.9.2-2.6.3-5.4 0-8.1.1-1.4 0-2.7.4-4.1.4-.7 0-1.4 0-2.1-.2-.4-.2-.2-.6-.7-.3-.2.2-.3.7-.5 1" opacity=".65"/><path fill="#F5FAF9" d="M4.4 6.1c.3.1.8.1 1.1.1.4 0 .8 0 .6-.5-.1-.5-.4 0-.6.1-.2 0-.4.1-.5.1-.2.1-.4 0-.6.2M4 6c-.1.2-.3.4-.5.1-.3-.3.3-.3.5-.1"/><path fill="#F9FCFF" d="M16.6 5.5c1.3-.9 3.8-.4 4.7-2-.7-.1-1.7.9-2.4 1.2-.8.3-1.7.6-2.6.8" opacity=".65"/><path fill="#8099C4" d="M23.9 3c-.7-.1-1 .8-1.4 1.2.4 0 1.5-.4 1.4-1" opacity=".39"/><text fill="#006" font-family="'MyriadPro-Regular'" font-size=".951" transform="matrix(2.5095 -.1026 .2673 .9636 6.347 2.63)">Toothpaste</text><path fill="#84C0AA" stroke="#84C0AA" stroke-width=".25" d="M.8 3.7l2.6-.6m-2.5.7l2.6-.5M.9 4l2.6-.5m-2.6.6l2.7-.3m-2.7.5L3.6 4m-2.7.5l2.7-.2m-2.7.4l2.6-.2m-2.7.4l2.7-.1"/><path fill="none" stroke="#84C0AA" stroke-width=".25" d="M.8 5h2.7m-2.7.1l2.5.1"/><path fill="#8099C4" d="M20.7 4.9c-.3-.8 1-.7 1.3-.4-.4.1-1.2.1-1.4.5" opacity=".39"/></g></switch></svg>
