<svg xmlns="http://www.w3.org/2000/svg" version="1.0" viewBox="0 0 85 76.4"><switch><g><path fill="#8BD3E0" stroke="#336698" stroke-width=".25" d="M43 52.8c-.9 1-2.1 3.2-2.3 4.6 1.9.1 3.9-1.6 5.8-.7 1.8.9 2 2.6 1.7 4.2-.7-2.5-3.9-3.2-5.8-1.8 1.3.6 2.2 3.1 1.2 4.2-.5-1.8-2.6-3.6-4.2-4.2-1 .6-2.2 1.5-2.3 2.7-1-1.8 1.2-3.6 1.9-5.2.7-1.5 1-4.5 3.4-3.6"/><path fill="#343433" stroke="#231F20" stroke-width=".25" d="M23.7 49.1S4.9 63.4 1.8 66.7C-1.4 70 .4 72.4 2 73c1.6.6 5 .3 5.3 2.1.3 1.8 1.1 2.1 3.7-.9s27.5-28.9 27.5-28.9l-14.8 3.8z"/><path fill="#343433" stroke="#231F20" stroke-width=".25" d="M45.1 23.4c13.7-.9 1.7 22.8-6.7 26.5 0 0-11.9 6.9-13.4 7.6-1.3.6-2.2 1.1-3.5 1.7-1 .5-3.3 1.1-4.7 1 1-2.4 3-4.9 5-6.7-.8.5-1.3 1.5-2 2.1-.7.6-1.9 1.7-2.6 2.4-2.1 2.2-3 2.7-4.7 4.2 1-3.2 2-6.8 4.2-9.5-1.9 2.1-2.1 3.5-4.2 5.2-.2-1.9 2-7.6 2-7.6s1.1-3.7 7.2-13.6c6.1-9.8 14.1-10.2 14.1-10.2 1.2-.5 1.1-.7 1.9-1.9 1.5-2.4-.1-5-.4-7.6-.3-3.1-.2-5.2 1.2-8.2 1.2-2.6 2.8-4.2 5.1-5.8C45 2 46 1.7 47.7 1.6c1.2-.1 2.8-.9 3.9-.6-.3-.3-.6-.8-.9-1 .8.2 1.8.8 2.5 1.1-.2-.2-.4-.5-.7-.7.7-.3 1.6.5 2 .9L57.8 21l6.4 8.4c-1 1.9-3.1 6.7-4.2 8.7-1.2 1.9-4.7 7.4-6.7 9.4-2.4 2.4-6.3 4.1-9.5 5.4-4.7 1.9-8.3 2.4-14.2 2.3"/><linearGradient id="a" x1="-1593.865" x2="-1615.85" y1="39.949" y2="8.97" gradientTransform="matrix(-1 0 0 1 -1554.11 0)" gradientUnits="userSpaceOnUse"><stop offset="0" stop-color="#fff"/><stop offset="1" stop-color="#f5eb38"/></linearGradient><path fill="url(#a)" d="M60.3 11.3s-.3-.1-.7 1.1c-1.1 2.9.6 5 2.7 6.6 2 1.7 4.9 12-1.2 17.8-4.6 4.3-4.9 3.8-7.5 3.8-1.6 0-3.5-1.1-2-8.3 1.3-6.4-1.9-8.7-4.5-10-2.6-1.3-6.3-9.9-2.2-16.5 2.4-3.9 9.3-3 9.5-3.7"/><path fill="#8BD3E0" d="M53.6 4.3c-.2-.3-.6-.5-.9-.6.1.2.1.6.2.8-.4-.1-.9-.3-1.3-.5.2.3.1.4.2.7-1.2.1-2.1-.8-3.5-.4-1.1.3-2.3 1.5-2.7 2.5-.9 2.5 1.3 4.2 3.8 3.7 0 .5 0 1 .2 1.4.2-.3.6-.5.9-.8-.2.8.6.9 1.2 1 .4.1.4.3.8.3.3 0 .5-.5.7-.5 1.4.1 1.3 2.3 3.4 1.5 3.1-1.1-2.4-4.6-.6-6.8" opacity=".31"/><path fill="#A6CF58" d="M50.5 5.1C51.8 4.9 52.1 7 52 8c0-.2-.1-.4-.1-.6 0 .7-.2 1.4-.5 1.9v-.6c-1 1.9-3.6 2.1-4.6-.1-1.3-2.7 1.8-3.8 3.7-3.8"/><linearGradient id="b" x1="800.255" x2="788.07" y1="619.833" y2="620.785" gradientTransform="rotate(-28.884 -755.563 1721.492)" gradientUnits="userSpaceOnUse"><stop offset="0" stop-color="#74cddc"/><stop offset="1" stop-color="#70bf67"/></linearGradient><path fill="url(#b)" stroke="#35351A" stroke-width=".25" d="M79.6 7.3s4.2 3.2 4.6 4.2c.3 1-2-1-5.7-1s-12.7.4-15 1.2c-2.3.8-6.9 1.7-7.8-4.9-1-7 23.9.5 23.9.5z"/><path fill="#EE3E25" d="M79.8 7.7s4 2.8 4.3 3.7c.3.9-2-1.2-5.5-1.1 0 0-.6-.6-.3-1S77.8 8 77.8 8s.6-1.5 2-.5" opacity=".89"/><radialGradient id="c" cx="1074.106" cy="625.002" r="13.91" gradientTransform="matrix(.7044 -.3885 .483 .8756 -986.793 -116.343)" gradientUnits="userSpaceOnUse"><stop offset="0" stop-color="#74cddc"/><stop offset="1" stop-color="#a6cf58"/></radialGradient><path fill="url(#c)" stroke="#35351A" stroke-width=".25" d="M53.8 1.6s22.5-7.4 31.6 9.8c-3.2-1.2-7-3.2-9.4-3-2.4.1-9.9-1.2-10.9-.9-1 .2-2.3 1.9-2.3 1.9l-6.2.4s-3.1-6.3-2.8-8.2z"/><path fill="#F79839" d="M75.9 8.2C73.5 8.3 66 7 65 7.3c-1 .3-2.3 1.9-2.3 1.9l-6.2.4s1-.3 1.2-.4c.2-.1-.8-1.9-.3-2.6.5-.7 2.7-2.1 5.3-1.2 2.5.9 3.3.6 4.3.6s3.2.2 3.8.5l1.4.4s.4-.7.5-.9c.2-.3.3.3.4.8.1.5.6.9.7.5.1-.4.4-1.1.4-1.1s0 .6.4 1c.4.3 1.3 1 1.3 1z"/><path fill="#EE3E25" d="M80.3 6.1c1.6 1.4 3.2 3 4.7 5-1.9-.7-4-1.7-5.9-2.3l-.8-.3s-.1-.6 0-.8c.1-.2-.3-1.4.1-1.8.4-.4.8-.7.8-.7l1.1.9z"/><path fill="#EE3E25" d="M79.1 8.9c1.9.6 4 1.6 5.9 2.3-1.5-2-2.1-3.7-3.7-5l-1.7-1.3s-4-2.6-4.8-2.8c-.9-.2-1.7.6-1.7 1.1 0 .6.8 1.4.7 1.7-.2.2.4.8.5 1.4.1.5.5 1.2 1.1 1.5.5.2.6.5.6.5s2.7.4 3.1.6z" opacity=".89"/><path fill="#F79839" d="M72.6 8.3c-.1.1.5 1.1.7 1.3-.1-.3 0-.6 0-.8.1-.3.2-.3.5-.3.4 0 .5 0 .7.4.2.3.3.6.6.8 0-.2.2-.9.1-1.1-.1-.2-.6-.2-.8-.2-.3 0-.6-.1-.9-.1-.2 0-.6.1-.9 0m-1.2-.1c0 .4-.1 1 0 1.4-.7-.3-.6-1.4-1.4-1.6-.9-.2-.8.5-.7 1.3-.3-.4-1-1-.9-1.5l3 .4z"/><path fill="#343433" stroke="#74CDDC" stroke-width=".25" d="M47.6 7.8c0-.9.7-1.7 1.7-1.7.9 0 1.7.8 1.7 1.7 0 .9-.8 1.7-1.7 1.7-1-.1-1.7-.8-1.7-1.7z"/><path fill="#343433" d="M59.7 12.1c-2.1 0-3.4-2.6-4-4.3-.4-1.1-1-2.1-1.3-3.1-.2-.5-.3-1.3-.3-1.8.1-.6.6-1 .3-1.6-2.2.8-.1 5.3.5 6.6 1 2.4 2 4.3 4.6 5.3l.2-1.1z"/><path d="M48.3 7.5c0-.5.4-.9 1-.9s1 .4 1 .9-.4.9-1 .9-1-.4-1-.9z"/><path fill="#FFF" d="M49.1 6.8c-.5.4-.4.7-.3 1.2 0 .1.5-.1.4.3-.1.3-.5.4-.7.4-.4-.6-.5-1.8.6-1.9" opacity=".56"/><linearGradient id="d" x1="-1595.636" x2="-1599.347" y1="20.215" y2="33.391" gradientTransform="matrix(-1 0 0 1 -1554.11 0)" gradientUnits="userSpaceOnUse"><stop offset="0" stop-color="#343433"/><stop offset="1" stop-color="#973721"/></linearGradient><path fill="url(#d)" d="M38.4 20.4c.5.7.8 1.9.7 2.9.1 0 .2-.1.4-.1 0 1-.5 2-.8 3 .6-.1 1.1-.5 1.4-1 0 1-.7 1.8-1.1 2.7 2.1.3 1.8-1.1 3.1-2.1.1.5.5.8.6 1.2.7-.8.2-2.3 1.4-3.2.2.1.4.3.5.4.5-.7 1.4-1 2.2-1.1-.9-1.2-2.4-2-3.1-3.5-.7-1.4-1.1-3.6-.9-5.2"/></g></switch></svg>
