<svg xmlns="http://www.w3.org/2000/svg" version="1.0" viewBox="0 0 220 130"><switch><g><linearGradient id="a" x1="109.789" x2="109.789" y1="129" y2=".682" gradientUnits="userSpaceOnUse"><stop offset="0" stop-color="#fff"/><stop offset=".5" stop-color="#8cd4e6"/><stop offset="1" stop-color="#3297cb"/></linearGradient><path fill="url(#a)" d="M.4.7h218.7V129H.4z"/><path fill="#FFF" d="M143.3 64c-.2-1.1-1.4-1.7-2.4-.7-1.3-1.8-3.5 0-4.2 1.2-1.5-.6-3.1-1.6-4.3-.1-1.6-1.2-4.6-.3-4.6 1.4 1.5.3 2.9.2 4.3.4s2 1.1 3.7.2c.8.8 1.9 1 2.6 0 1.3.7 3.3.1 3.5-1.1 2.1 1.8 6.4-.4 1.1-.9m-90.1-50c.4-1.8 2.3-2.8 4.1-1.2 2.2-2.9 6.1 0 7.2 1.9 2.6-.9 5.4-2.6 7.4-.1 2.8-1.9 7.9-.5 7.8 2.2-2.5.4-5 .3-7.3.6-2.5.3-3.4 1.7-6.4.3-1.4 1.3-3.3 1.5-4.4 0-2.3 1.1-5.6.2-6-1.8-3.7 2.8-11-.6-1.9-1.5m92.4 26.4c-.3-1.3-1.9-2-3.3-.9-1.7-2.1-4.9 0-5.8 1.3-2.1-.7-4.4-1.8-6-.1-2.2-1.3-6.4-.4-6.3 1.6 2 .3 4.1.2 5.9.4 2 .2 2.8 1.2 5.2.2 1.2 1 2.7 1.1 3.6 0 1.9.8 4.5.1 4.8-1.3 3 2 8.9-.5 1.5-1.1m-119.9 0c-.2-1.1-1.4-1.7-2.4-.7-1.3-1.8-3.5 0-4.2 1.2-1.5-.6-3.1-1.6-4.3-.1-1.6-1.3-4.6-.4-4.5 1.3 1.5.3 2.9.2 4.3.4s2 1.1 3.7.2c.8.8 1.9 1 2.6 0 1.3.7 3.3.1 3.5-1.1 2.1 1.8 6.4-.4 1.1-.9m114.9-36c-.2-1.1-1.4-1.7-2.4-.7-1.3-1.8-3.5 0-4.2 1.2-1.5-.6-3.1-1.6-4.3-.1-1.6-1.2-4.6-.3-4.6 1.4 1.5.3 2.9.2 4.3.4s2 1.1 3.7.2c.8.8 1.9 1 2.6 0 1.3.7 3.3.1 3.5-1.1 2.1 1.8 6.4-.4 1.1-.9m69.3 1.8c-.2-1.1-1.4-1.7-2.4-.7-1.3-1.8-3.5 0-4.2 1.2-1.5-.6-3.1-1.6-4.3-.1-1.6-1.2-4.6-.3-4.6 1.4 1.5.3 2.9.2 4.3.4s2 1.1 3.7.2c.8.8 1.9 1 2.6 0 1.3.7 3.3.1 3.5-1.1 2.1 1.8 6.4-.4 1.1-.9M45.3 73c.4-1.8 2.3-2.8 4.1-1.2 2.2-2.9 6.1 0 7.2 1.9 2.6-.9 5.4-2.6 7.4-.1 2.8-1.9 7.9-.5 7.8 2.2-2.5.4-5 .3-7.3.6-2.6.3-3.5 1.6-6.5.2-1.4 1.3-3.3 1.5-4.4 0-2.3 1.1-5.6.2-6-1.8-3.7 2.8-11-.6-1.9-1.5"/><path fill="none" stroke="#55C8E9" d="M.4.6h218.7v128.3H.4z"/><path fill="#24B24B" d="M55.6 49.9c.7-.5 1.6-1 2.5-1-.2.6-.5 1.4-1 2 1.2-.2 2.7-.5 4-.4-1 3.5 1.9.7 3.9.5-.1.7.4 1.9 1.6 1.9.9 0 1.4-1.5 2-2-.1.3 0 .7-.2 1 1.3.2 1.9-.9 3-1.1.2.2.3.5.4.7.2-.2.8-.5 1-.9.5.3 1.3.9 1.8 1.2 0-.4.4-.8.4-1.2.7.2 1.5 0 2.1 0-.4-.5-.2-1-.3-1.3.6-.2.9-.3 1.6-.2-1 2.7 2.9 1.8 1.8-1.3.9 0 2 0 2.6-.6-.6-.6-1.1-1.1-1.8-1.6.9.6 1.2.3 2.1.2-.3-.7-1.1-1.3-1.1-2.1.9.1 1.5-.3 2.2-.4-.6-.4-1.2-1.1-1.4-1.7 1-.1 1.8-.4 2.3-1-1-.7-1.2-.8-1.3-1.9 3.2 0 .3-5.1-.5-6.1.5-.3.7-.9 1-1.1-1-.1-1.8-.5-2-1.3.9-.2 1.3-.8 1.8-1.1-1.6-.1-2.1 1.2-3.4 1.3-.6-1.2 1.1-1.4 1.8-2.1-.9-1-2.2-.1-3.3.3-.3-.5-.6-1.1-.9-1.6.7-.2 1-.7 1.4-.8-.4-.4-3.7-1.5-4.3-1.5.5-.6.6-1.3.2-1.9-1.6.8-2.1-.3-3.4-.8-.2.3-.4.6-.6.8-2.6-1.1-2.3.5-4.4.8 0-.4-.4-.9-.4-1.2-1.3-.1-2 .7-2.2 1.6-.6-.4-1.5-.4-2.1-.6-.3 1 .9 2.3-1.5 2.3-.3-.7-.9-1.2-1.7-1.4-.3.7-.3 1.3.2 2-.7.4-1.6.5-2.5.2-.1.2-.1.3-.1.5-.8-.5-1.7-.6-2.3-.1.4.3.4.9.7 1.2-2.6.4-2 4.6-2.3 6.1-.3 1.8-.2 3.6-.5 5.5-.3 1.7-.8 3.3-1 5-.2 1.6.6 2.8 1.8 4 .5-.4 1.4-.5 1.8-.8.5.5.6 1.2.5 2z"/><path fill="#17A94B" d="M139.8 38.4s-.8-.8-3.8 0-4.9 2.6-5.2 3c-.3.5 4.5 1 4.5 1v2.5s4.5-1.2 4.5-2 1.1-2.5 1.1-2.5l-1.1-2zm-68.5 45s0-2.1 1.8-3.4c1.8-1.3 5.3-1.2 5.3-1.2s-.4 1.3-1.7 2.6c-1.3 1.2-5.4 2-5.4 2zm29.3-14.5c-.2.3.4.9.5 1.1.2.4.7.8 1.2 1 .3.1.5.2.8.3.4.1.6.2.9.3.5.3 1.2.3 1.8.3.5 0 1.2-.1 1.6-.2.2-.1.5-.2.5-.4 0-.1-.2-.5-.3-.6-.6-1-2-1.4-3.1-1.9-.7-.3-1.4-.5-2.3-.4-.3 0-.6.1-.9.1-.3.1-.5.3-.7.4m54.2 6.1s-.5-1.8.8-2.9c1.3-1.2 3-2.1 4.2-2.3 1.2-.1 2.5-.1 2.5-.1s-.4 2.1-1.3 2.9c-1 .8-1.9 1-2.4 1.6-.6.6-1.7 1-2.1 1-.5.1-1.7-.2-1.7-.2zM54.2 30c-1.7-.2-2.9-.1-3.9 1 .5 0 1.4.1 2.1.1-2 .3-3.3 1.1-3.2 2.7.8 0 1.7.2 2.6 0-1.1.5-1.8 1.6-2.6 2.2.7 0 1.6.4 2.2.4-1.7.8-2.5 1.9-1.7 3.1-1.2 1.2-1.4 2.3-.9 3.7.7-.3 1.9-.6 2.3-.9-.6.6-1 2-1.6 2.7 1.2.1 1.7-.4 2.7-.9"/><path fill="#24B24B" d="M56 27c-1.6-.5-3.4-.5-5-.2 1.7.6 3.2 2.1 3.2 3.9-1.2.2-2.4 1.1-3.7 1.3 3.3 1.7 2.4 4-.4 5.9.7.2 1.4 1 2.4 1.2-2.1.8-2.9 2.1-1.8 3.5-1.2.6-1.4 1.5-2 2 .5.1 1 0 1.5 0-.1.4-.1.7 0 1.1 1.5.3 3.3.5 4 .5"/><path fill="#189647" d="M35.1 8c.8-.9 1.4-1 2-.2-1.6 8.2 6.7 1.9 9.1-.6 2.2 3.9 6.7 3.5 9.4.3 2.1 1 3.8 3 5.4 4 .3-1 1.6-2.2 1.8-3.3.4.9 1.7 1.8 2.2 2.8 1-1 3.7-1.9 4.7-2.8.4 1.6 2 2.5 2.8 3.6.6-.7 1.1-1.3 1.7-1.9.6.2 1.1.5 1.6.8.8-1.9 1.7-2.9 2.8-4.3.1-.7-.1-1.4-.5-2.1.5.4 2.2 1 2.6 1.4.8-.8 2.7-1.4 3.5-2.7.9 2.5 2 1.2 4.2 1.7m131.1 37.7c0 1.7-.1 2.9-2.6 3.4-1.4-1.5-2.2-3.3-2.3-5.2-.4 1-1.6 1.9-2.1 2.8-.3-.5-1.9-1.5-2.3-2.6-1.3.7-2.1.6-3.1 2.1-.8.2-1.3.1-1.7-.4-.1.5-.5.8-1 1-2.7-2.3-6-3-7.9.1-.8-1-1.2-1.1-1.4-2.6-.9 0-1.8-.2-2.6-.5-.1-.7-.3-1.4-.5-2.1-.6.7-2.6 1.3-3.3 2.2-3.1-.6-4-2.2-2.6-4.6"/><path fill="none" stroke="#B9982F" stroke-width="3" d="M193.3 43.6c1-.2 5.2-.1 3.1 1-1 .6-4.4.4-5.7.3-3.1-.1-8.2 1-11 .1"/><path fill="#17A94B" d="M28.9 4.9c-2.5-1.1-5.1.1-6.9.9-.5-.3-2.1-.6-2.5-1.1-1.7.3-2.5 1-4.5 1.1-1-.7-1.1-1.5-1.6-2.2-.7.1-1.8-.1-2.4-.1 1-3.5-8.5 1-4.6-3-2-.2-3.4 2-5.3 2.3C-2.9-1.6 6.2.4 13.3.4h204.5c.4 5.4.9 7.7 1.3 13.1.3 3.2.4 6.5.8 9.7.1.8 1.2 3.2-1.9 3-2.4-.1-3-2.9-3.5-3.6-2.5 2.6-10.5-.5-10.3 2.6-3.8 0-2.2-1.8-3.9-2.6-.2.2-1.6 1.3-2.4 1.3-3.8 0-.8-.9-1.6-1.3-1.2-.6-4.6-2.2-7.6-.7-1.7-1-1.5-2.5-4-3.3-.9.5-2.7 1.1-4.3.7-2.5-.6.9-1.4.9-2.2-1.6-.1-3.1-.2-4.7-.3-.5.4-1.6.5-1.9.7-1.1-.8-.3-1.4-.7-2.3-2.1-.1-3.8.3-4.7 1-1.1-.5-2.2-.9-3.4-1.4-.3.3-2.1.8-2.5 1.1-1.9-.7-.2-1.6-.8-2.5-.5.2-1.9.4-2.5.7-.5-.5-1.6-.8-1.6-1.4-1.5.2-3.2.3-4.6.2.1-.6.6-1.3 1.3-1.8-2.3-.3-4.5.1-6.6.4.3-2.1-8.3-2-5.7-3.7-1.3-.7-2.3-1.5-4.4-1.6 2.6 2-.5 2.3-4.5 1.5-1.4.9-1.9 2.6-5.3 1.9.1-.3-.6-.9-.5-1.2-1.8-.1-3.4.2-4.4.8-.7-.2-2.7-.3-3.5-.5-1.8 1.2-1.3 3.3-5.5 3.8-1-.5-2-1.2-2.7-1.7-.5.1-.9.2-1.4.3-.6-.4-1.8-.5-2.3-.7-.6.9-2 1.7-4.9 1.5-1.8-.1 2.3-2.5-2-2.4-1.8 0-2.5 1.5-4 1.8-4.2.9-6.3 1.1-7.7-.1-1.8.2.2-.7 0 0-3.4-1.6-4 .3-5.4 1.2-1.1-.6-2-1.5-3.9-1.9-.1.2-.3.4-.5.6-.5-.2-2.7-.4-3.2-.5.5.6-.5 1.9-2.9 1.7-2.1-.2-2.1-1.6-2.3-2.2-.9.2-1.8.6-2.7 1-.7.3-.3 1.4-.9 1.5-3.6.7-3.2-1.2-5.8-1.7-1.6 2-4.6.4-4.6-.8-2.6.1-3.2-.1-5.6-.3-2.4-.3-.6-1.7-4.5-.6-1.9.5-1.2 1.9-4.2 2.2-3.2.4-4.4-.5-2.9-1.7-1.7-.1-2.8-.5-3-1.2-3.8.9-8.4.1-5.1-1.8-.5-.1-2.5-.5-3.1-.6-.3.4-.7.6-1.2.9-3-.3-2.2-2 .9-2.1"/><path fill="#189647" d="M183.8 7.1s.2-1.8 1.8-2.7c1.7-.8 3.6-1.4 4.9-1.3 1.2.1 2.4.5 2.4.5s-1.1 1.9-2.3 2.5c-1.2.6-2.1.6-2.9 1-.8.4-2 .6-2.4.6-.4 0-1.5-.6-1.5-.6zM119 5.8s.2-1.8 1.8-2.7c1.7-.8 3.6-1.4 4.9-1.3 1.2.1 2.4.5 2.4.5s-1.1 1.9-2.3 2.5c-1.2.6-2.1.6-2.9 1-.8.4-2 .6-2.4.6-.5-.1-1.5-.6-1.5-.6zm86.8 9.7s-2-.9-2.2-2.5c-.2-1.5 0-3.2.7-4 .7-.8 1.6-1.5 1.6-1.5s1.7 1.6 1.8 2.7c.1 1.1-.3 1.7-.2 2.5s-.3 1.6-.5 1.9c0 .4-1.2.9-1.2.9zM81.4 2.5s-1-.6-3.7.8c-2.6 1.4-3.8 3.5-3.9 4-.1.5 4.7 0 4.7 0l.9 2.4s3.9-2.1 3.6-2.9c-.3-.8.1-2.7.1-2.7l-1.7-1.6zM40 2.5s-1.2.4-.9 2.9c.2 2.5 2 4.3 2.5 4.7.5.3 2.4-3.1 2.4-3.1l3.1.6s-.4-3.7-1.4-3.9c-1-.2-2.9-1.4-2.9-1.4l-2.8.2z"/><path fill="#88712C" stroke="#88712C" stroke-width=".886" d="M218.8 20.5v107.7h-21.6s.7-3.2 0-9.5 0-6 0-13.9c0-7.8.4-7.8 1.8-12.8 1.5-4.9 3.6-10.3 4-13.6.4-3.4 2.5-6.5.4-9.4-2.2-2.9-7.6-8.9-9.1-10.5-1.5-1.6-11.3-5.6-16.8-7.4-5.5-1.8-19.7-6.3-27.3-8.3-7.6-2-13.5-5.1-22.2-4.7-8.7.4-15.3.4-19.3.7-4 .2-11.3 0-11.3 0s-5.1.2-6.2 0c-1.1-.2-4 .2-4 .2l-3.6.2-2.9-.4-9.8.4-3.6-.9s5.1-.7 7.3-.9c2.2-.2 6.2-.4 6.2-.4l3.3-.7-5.8-.7s-1.1-.7-2.9-.7c-1.8 0-5.1 1.1-6.6.4-1.5-.7-6.6-3.4-6.6-3.4l-1.8-1.7 7.6 1.7 2.9 1.7.7-1.7s2.5 2.4 4.7 1.7c2.2-.6 5.5-1.7 5.5-1.7h11.7l64.8-.9s13.2-.4 16.8-.9c3.6-.5 10.6-.9 10.6-.9s4.4.4 5.8-.2c1.5-.7-.7-1.3 0-2.2.7-.9 2.2-2.2 2.5-3.4.4-1.1 0-3.1 0-3.1s-1.8-3.4-1.5-4.3c.4-.9 2.9-1.6 2.9-1.6s.4-.4 2.9 0 6.2.4 7.6 1.3c1.5.9 4 1.3 5.8.9 1.8-.4 6.1 1.3 6.1 1.3l1 2.6z"/><path fill="none" stroke="#9D812E" stroke-width="2" d="M218 91.6c1.7.5-.6 5-1 6-1.2 2.6-4.4 4.1-7.3 6.1-1.5 1-3.4 1.6-4.3 2.9-.7 1-.7 2.1-.5 3.2.3 2.4 1.3 4.8 3.7 6.7.2.2.3.1.3-.2"/><path fill="none" stroke="#9D812E" stroke-width="2" d="M213.9 108.1c-3.1.5-2.5 3.2-.7 4.2 1.2.6 2.6.9 3.4 1.8.6.7.7 1.7.9 2.5 1.1 3.1 0 6.2.2 9.3-.1.2-.2.2-.4 0M208 98.5c-1.8-.9-7.4 4.4-8.2 5.5-1.3 1.9-1.3 4.5-.8 6.6.5 2.5 2.1 4.9 3.3 7.4.5 1.1 1.1 2.2 1.6 3.3.5 1 .5 2.5 1.5 3.4m2-33.3c-.2 0-.3-.1-.5-.1-.4 1.1 1.4 2.7 3.1 3.2 1.8.5 5.5-.2 4.5-1.8m-3.6-37c-.2 1.6 1.2 4.3 2.6 5.7.9.9 1.6 1.2 1.8 2.4.2 1.1.2 2.3.4 3.4.7 4 .5 8.2.3 12.2-.1 1.9-.1 3.7-.4 5.5-.3 1.8-.1 4.1-1.8 5.7-2.6 2.5-2.6-2.4-2.6-3.5.1-2-.5-3.9-.4-5.9"/><path fill="none" stroke="#9D812E" stroke-width="2" d="M209 76.3c.7-1 1.8-1.6 2-2.7.1-.9-.1-1.8-.2-2.7-.2-1.9-.6-3.9-1.4-5.7-1-2-2.1-3.5-4.2-5.1-1.9-1.5-2.1-3.5-2.9-5.4-.7-1.7-2.7-3.4-.5-5.2 2.2-1.8 6.5-1.3 7.4-3.8.6-1.6 1.1-3.5 1.4-5.2.4-1.8-.6-3.6-1.3-5.3m-10.9 5.2c1-.7 2.2.8 2.2 1.4 0 .8-1.9 1.4-1.6 2.2 2.9.1 3.7-.9 3.2-2.4-.5-1.8-2.1-2.3-4.9-2.5-2.1-.2-4.5-.1-6.5.2-2.4.3-4.7 1.2-7.1 1.4m-36.8-7.2c1.7-.6 5.5-.6 7.5-.4 2.5.2 4.9.8 7 1.6 4.1 1.5 9.5 2.3 13.8.7m-1.3 2.3c2.6.5 6.3-.2 9.1-.2 2.4-.1 7.7-.2 8.7-1.9-1-.7-2.3-.4-3.5-.1m-37.7 4.2c2.4.4 4.4 1.2 6.7 1.8 2.3.6 4.7.9 6.9 1.7 4.4 1.6 8.4 3.3 13.2 4.4 1.1.2 2.1.5 3.3.5 1.1 0 1.9-.3 3.1-.1 2.5.4 4.5 1.7 6.2 2.8 2 1.3 4 2.3 6.2 3.5 1.8 1 2.8 3.2 5.2 3.4m-7.1-28.5c4.9.4 7.2-2.6 8.2-5.9m8.9 11.3c-7.6-2-.6-7.9 0-11.2M214 56c-.7-9.3 2.1-19.4 2.1-28.9"/><path fill="none" stroke="#9D812E" stroke-width="3" d="M82.8 35.1c4.8.5 9.3-1.7 14.3-1.5 5.4.2 10.9 2.1 16.4 1.7 6.7-.5 9.5-2.5 16.4-1.3 6.2 1 10.2 2.5 16.4.6"/><path fill="#A9AF36" stroke="#A9AF36" d="M163.3 31.2c-1.8-.4-6.9-.4-7.7 1.2 1.4.7 4.4.3 6.1.3-.9.3-2 .5-2.7 1.1 1.3.2 2.4-.3 3.6-.3-1.9.5-4.5.8-5.7 2.2 2.3-.8 5.2-1.4 7.7-2-1.8.6-3.3 1.1-4.7 2.2 2.4-.5 5.3-2.2 7.8-2-.1.5.2.8-.5 1.3 1-.7 2.1-1.2 3.3-1.5.6.8 1.4 1.8 2.4 2.2-.3-.6-.2-1.3.3-1.8 1 1.3 2.7 3.1 5 2.8-.5-1-1.5-2-1.7-3.1.8.8 1.7 1.7 3.1 1.8.2-.6-.4-1.3-1-1.8 1.9.9 5.7 2.7 8 2.7-.4-1.2-2-2-3.4-2.4 2.3-.2 4.5.6 6.7.5-.2-.9-1.6-1.3-2.8-1.3 2.3.1 4.6.4 6.9.5 2.3.1 4.6-.4 6.8-.2-3.2-.8-7.5-2-10.8-1.2 2.2-.5 4.7.2 6.8-.4-3-.8-6.6.2-9.7-.7 1.1-.7 3.2-.9 4.6-1.3 1.8-.4 3.7-1 5.5-1.3-1-2-13.4 1.6-16 2-5.2.7-11.5-1.1-16.5.2"/><path fill="#FCD539" d="M172.3 26.7c-.6-.1-2.6-4.4-3.4-2.2-.3.8.6 1.6 1 2.2.2.4.9.3.6.9-.2.4-1.2-.2-1.2.7.7.2 2.5.1 3 .4.6.4.1.5.3 1 .3.7 0 .6.8 1.2.8.5 2.1 1.1 2.6 0 .2-.5-.5-.8 0-1.2.4-.3 1.4.1 1.7 0 1.7-.2.9-.6 1.2-1.5.2-.6 2-2.2.6-2.7-1.3-.4-4.7 4.6-4 .6.1-.4.1-.8.4-1.1.5-.6.3-.3 1.1-.6 1.1-.5 2.4-1.3 2.6-2.3.4-1.7-1-4.2-3-4.9-2.4-.9-5 1.5-5.7 3.1-.4.8-.4 1.6-.1 2.4.4 1.3 1.2 1.5 2.6 2.1"/><path fill="#D67527" stroke="#D67527" stroke-width=".75" d="M171.2 19c-1.2.6-3.8 1.3-4.1 2.5 1.7.1 4.7-.5 5.8-2.3.5-.9 1.2-4.3-.3-4.6-1.1.6-1.3 2.9-1.4 4"/><path fill="#F68E1E" stroke="#E78224" stroke-width=".25" d="M172.4 14.5c3 .1 2.5 4.5 1.9 5.9-.6 1.4-1.5 1.5-3.3 1.6-1.1 0-3 .2-4.1-.2 1.7-.4 4.4-.6 5.5-1.8.8-.9 1.4-3.7.6-4.6"/><path fill="#DBEFED" d="M175.4 19.3c.6.3 1.3.1 1.6-.3.3-.4.2-1-.4-1.2-.6-.3-1.3-.1-1.6.3-.3.4-.1.9.4 1.2z"/><path fill="#5E2F13" d="M175.6 19c.4.2.8.1 1-.2.2-.3.1-.6-.3-.8s-.8-.1-1 .2c-.1.3 0 .6.3.8z"/><path fill="#FFF" d="M175.4 18.7c.1.1.3 0 .4-.1.1-.1 0-.2-.1-.3-.1-.1-.3 0-.4.1 0 .1 0 .2.1.3zm.9-.1c.1.1.3 0 .4-.1.1-.1 0-.2-.1-.3-.1-.1-.3 0-.4.1-.1.1 0 .2.1.3z"/><path fill="#AB9531" stroke="#87732D" d="M173.2 29.1c-.1-.1.5-.7 1.2-.5.7.3.7.2 1.2-.2.5-.5 2.2-.8 2.1.2.6-.1 1.1-.5 1.8-.6.8-.1.8.2.8.7.5-.6 1.3-1.4 2.2-1.5.3-.1 1.2-.1 1.4.2.2.3-.4.6-.4.9.7.1 1.1 0 .6.6.5.1 1-.1 1.5 0s1.2.5 1.3 1c-.5.2-1.1.2-1.5.6.5.3 1.8.4 1.8 1.1 0 .8-1.4.5-2 .6.4.2.2.4-.2.5-.4 0-.5-.3-.8-.3-.8 0-.4.9-.4 1.2 0 1.3-2.2.8-2.3-.2-.5.1-.7 1.1-1.2 1-.3-.1-.3-1.2-.7-.3-.1.3.1 1.2-.5 1.2-.7 0-.4-.8-.8-1-.4.6.1 1.3-.2 1.9-.5.8-1.7-.1-2-.6-.1-.2 0-.8-.2-1-.4-.2-.7.6-.9.7-1.2.7-.8-.8-1.3-1-.6.3-.7 1-.8 1.5 0 .5 0 1.1-.9.9-1.5-.3-.8-1.9-1-2.7-.4.2-.3.6-.6.8-.2.2-.9.4-1.1.4-1.3-.1-.3-1.1-.2-1.6-.8-.1-.7.6-.9.9-.3.3-1.1.6-1.6.3-1.1-.7 1.2-1.8.9-2.3-.7.2-1.3.3-2 .3-.1-.2 0-.4.1-.6-.4.5-1.1 2.1-2.3 1.5-1-.5 1.3-1.6 1-2.1-.5 0-.8.4-1 0-.2-.5.4-.6.8-.7.3-.1 1-.1.5-.5-.3-.2-.9 0-1.2-.1.1-.3.2-.5.5-.6-.7.1-3.4 1.1-3-.2.4-1.2 2.4-.5 3.4-.9-.3-.5-1.2-.5-1.3-1.1-.1-.7.5-.7 1.2-.6.6.1 3 1 2.9 1.6 0 0 .8-1.1 1.4-.5.6.6 1.3 1 1.6 1 .3 0 .4-.5.4-.5s.5.4 1 .4c.4 0 0-.4.3-.7.3-.3.7 0 .9.1"/><path fill="none" d="M127 24.2l22.6 5.6 5-12.3-22.5-5.7z"/><path fill="#FFCC05" stroke="#DCA927" d="M128.1 21.7l14.6 3.6-1 2.5 10.4-4.2-5.4-8.1-1 2.5-14.6-3.7z"/><path fill="#C57929" stroke="#AE6628" stroke-miterlimit="10" d="M53.8 37c0-1.8-.6-4.2 1.4-5.5 3.5-2.3 4.7 1.5 7.5 2 .6-2.9-5-4.5-7.8-3-2.5 1.3-2.5 5.7-1.7 7.6.4-.1.7-.3.9-.6"/><g stroke="#AE6628" stroke-miterlimit="10"><path fill="#C57929" d="M48.5 25.6c.2.4.7 1.4.8 1.5.1.2.3.2.5.4.5.4 1.7 1.2 2.3.3.4-.7-.2-1.5-1-1.8-.4-.1-.8-.3-1.2-.3-.4-.1-1.5 0-1.1-.1"/><path fill="none" d="M49.8 25.7c-.6.3-.8 1.1-.4 1.6m1.5-1.2c-.7 0-1.3 1.2-1 1.6m2.1-.8c-.6-.2-1.2.8-1 1.2"/></g><path fill="#FCD539" d="M25.4 21.6c.3-1 1.2-1.9 1-3-2.1.6-3.2-.5-5.1.6-.3.5-1.5 1-1.6 1.5-.2 1.2 1.7 1.5.3 2.6 1.6.5 1.2 1.8 2.3 2.6m27-4.8c.9 3.5-2.6 7-7.9 7.9-5.4.8-10.4-1.3-11.4-4.8-.9-3.5 2.6-7 7.9-7.9 5.4-.9 10.5 1.3 11.4 4.8z"/><path fill="#FCD539" d="M31 21.6h-4.5c-1.2 0-2.5.4-3.4 1.8-.9 1.3-1.1 4 0 5.8 1.1 1.8 2.8 2.4 4 2.8 1.2.4 6.9 0 6.9 0l.5.2c.7-.3 2.8-2.7 3-3 .3-.4-6.5-7.6-6.5-7.6zm17.8-2.2c.8-.6 7.7-5.6 4.8-5.8-1.1-.1-2.9 2.1-3.5 2.7-1.2 1.1-1.7 1.9-1.9 3.3.2.1.3.1.5 0"/><path fill="#E6C326" d="M2.9 8.9c-2-.1-1.1 2.3-.6 3 .9 1.2 2.6 2 3.5 3.3-.4-.2-1.5-.9-2-.5-.8.7.8 1.1 1.3 1.4 1.3.7 2.9 1.4 4.1 2.3-3.2.6 2.5 1.9 3 2.2-.2.2-.2.4-.4.5.7 0 1.4-.1 2 .3-.1.1-.2.4-.4.5.6.1 1.3.1 2 .3-.1.2 0 .5-.1.7.8.4 1.9.1 2.6.6-.3.1-.5.3-.6.4 1 .1 2.1.2 3.1.5-.2 0-.4.1-.5.2.1.4 4.1.3 4.5-.2-1-.4-1.8-1.2-2.7-1.8-1-.6-2.1-.9-3.2-1.4-2.1-1-4-2.4-5.7-3.8-1.9-1.5-3.6-3-5.5-4.6-1.5-1.3-4.2-2.5-5-4.1m27.5 14.2c-.6 1.5 1.1 3.8 2.6 4.7 1.7 1 4.4 1 6.4.8-.2 1.4-5.1.1-6.1-.4-1.6-.9-3.8-2.9-3.2-4.6"/><path fill="#E6C326" d="M25.8 25.2c-2.4.4-1.9 3.6-2.2 4.9-1.1-1.5-1.4-3.3-1-5.1 1.5-.2 3.2-.4 4.3-1.2.3.6-1 1.2-1.4 1.7m9.5 5.4c-3.6.1-6.4 1-9.9-.3.1 1.8 4.8 2.1 6.4 2.1 1.3 0 2.4-.1 3.4-.9.5-.5 2.1-1.8 2-2.4-.9 0-1.9 1.4-2.6 1.9"/><path fill="#F68E1E" stroke="#E78224" stroke-width=".75" d="M26.1 31.5c-.6-.1-1.2.2-1.5.6-.6.7.1.7-.1 1.4-.1.6.4.7-.8.8-.1 0-1.7-.3-1.7-.3-.1-.1-.9-.8-.9-.9.1-.7.6-.4 1.3-.7.8-.3 2.3-1.8 3.2-1.3m4.2 1.7c-1.6 0-1.2 1.7.4 1.7 1.5 0 2.2-.8 1.7-1.8-.6.1-1.3.1-1.8-.2"/><path fill="#FCD539" d="M2.3 8.5l2.8 2.1c3.3 2.5 8.6 6.5 9.5 7.1 1.3.9 4.6 3.2 6.1 3.6 1.5.4 5 1.7 5 1.7l.8 1.1s-1.3.8-2.4 0c-1.1-.8-8.3-4-9.1-4.7-.8-.7-8.1-6.3-9-6.9-.9-.6-2.4-1.2-3-2.6l-.7-1.4z"/><path fill="#DBEFED" d="M38.2 23c-.9.4-2 .2-2.5-.6-.5-.7-.2-1.6.6-2 .9-.4 2-.2 2.5.5.5.8.2 1.7-.6 2.1z"/><path fill="#5E2F13" d="M37.8 22.6c-.6.3-1.3.1-1.6-.4-.3-.5-.2-1 .4-1.3.6-.3 1.3-.1 1.6.4.4.4.2 1-.4 1.3z"/><path fill="#FFF" d="M38.1 22.1c-.2.1-.5 0-.6-.1-.1-.2-.1-.4.2-.5.2-.1.5 0 .6.1.1.2 0 .4-.2.5zm-1.3-.2c-.2.1-.5 0-.6-.1-.1-.2-.1-.4.2-.5.2-.1.5 0 .6.1.1.2 0 .4-.2.5z"/><path fill="#DBEFED" d="M44.1 21c-.9.4-2 .2-2.5-.6-.5-.7-.2-1.6.6-2 .9-.4 2-.2 2.5.5.6.8.3 1.7-.6 2.1z"/><path fill="#5E2F13" d="M43.8 20.5c-.6.3-1.3.1-1.6-.4-.3-.5-.2-1 .4-1.3.6-.3 1.3-.1 1.6.4.3.5.2 1.1-.4 1.3z"/><path fill="#FFF" d="M44.1 20.1c-.2.1-.5 0-.6-.1-.1-.2-.1-.4.2-.5.2-.1.5 0 .6.1.1.1 0 .4-.2.5zm-1.3-.2c-.2.1-.5 0-.6-.1-.1-.2-.1-.4.2-.5.2-.1.5 0 .6.1.1.2 0 .4-.2.5z"/><linearGradient id="b" x1="44.651" x2="49.339" y1="21.756" y2="21.756" gradientUnits="userSpaceOnUse"><stop offset="0" stop-color="#ec1475"/><stop offset="1" stop-color="#fff5cb"/></linearGradient><ellipse cx="47" cy="21.8" fill="url(#b)" opacity=".13" rx="2.3" ry="1.9"/><linearGradient id="c" x1="36.087" x2="38.902" y1="24.026" y2="27.152" gradientUnits="userSpaceOnUse"><stop offset="0" stop-color="#ec1475"/><stop offset="1" stop-color="#fff5cb"/></linearGradient><ellipse cx="37.5" cy="25.6" fill="url(#c)" opacity=".13" rx="2.3" ry="1.9"/><path fill="#F68E1E" stroke="#E78224" stroke-width=".75" d="M39 24.5c.6-1.2 2-1.5 3.1-2 1.4-.6 1.8-.8 3.1 0 2.2 1.4 3.3 2.5 4 5 .4 1.3.3 1.7-1.3 1.6-1-.1-2.1-.3-3.1-.6-1.1-.3-2.3-.9-3.1-1.6-.5-.4-.8-1-1.3-1.4-.4-.4-1-.4-1.1-.9"/><path fill="#FCD539" d="M39.7 18.5c.5-1 1.5-1.6 1.6-2.7-.7.1-1.4.5-2 .7.1-.5.7-1.2.1-1.6-.6-.4-1.7 0-1.8.6-.8 0-1.5-.5-2.2-.7-.3.5.1.9-.1 1.3 0 0-.7.3-.8.4-.2.2-.3.6-.5.8-.8.9-2.3 1.4-2.7 2.6"/><path fill="#E78224" stroke="#E78224" stroke-width=".75" d="M39.6 23.7s5.4 3.9 6.2 4.3c.8.4 2.1 1.2 2.1 1.2s.4.2-.9-.1-3.3-.9-4-1.3c-.7-.4-2.1-1.7-2.2-1.8-.1-.1-1.8-1.1-1.9-1.5"/><g stroke="#AE6628" stroke-miterlimit="10"><path fill="#C57929" d="M43.6 27.4c.5.1 1.5.5 1.7.9-.3.2-1 .2-1.4.3-.5.2-.8.6-.9 1-.2.6.1 1.9-1 1.9s-.7-1.5-.4-2c.4-.7 1.1-1.6 2-2.1"/><path fill="#C57929" d="M43 27.9c.2.1.2.3.5.4.2.1.5.2.8.2"/><path fill="none" d="M42.1 28.7c.1.4.6.8 1.1.7m-1.9.3c.1.5 1 1.1 1.6.7"/></g></g></switch></svg>
