<svg xmlns="http://www.w3.org/2000/svg" version="1.0" viewBox="0 0 126.6 105"><switch><g><path fill="#A3C3D8" d="M0 105h126.6L115 81H14.3z"/><path fill="#F9F3C5" d="M14.3 0H115v80.6H14.3z"/><path fill="#ACE856" stroke="#ACE856" d="M14.3 1h20.1v16.8H14.3zm80.6 0H115v16.8H94.9zM54.6 1h20.1v16.8H54.6zM34.5 17.8h20.1v16.8H34.5zm40.2 0h20.1v16.8H74.7zm-60.4 17h20.1v16.8H14.3zm80.6 0H115v16.8H94.9zm-40.3 0h20.1v16.8H54.6zM34.5 51.6h20.1v16.8H34.5zm40.2 0h20.1v16.8H74.7zm-60 16.8h19.8v12.8H14.7zm80.2 0H115v12.5H94.9zm-40.3 0h20.1v12.8H54.6z"/><path fill="#00ADDB" stroke="#00ADDB" stroke-width=".111" d="M116.7 82.6H13.6v-5.8h103.1c.2-.1.2 5.8 0 5.8z"/><path fill="#ACE856" stroke="#ACE856" d="M66.7 27h17.4v17.4H66.7z"/><g stroke="#00ADDB" stroke-width=".111"><path fill="#00ADDB" d="M31.7 40.2L33 39l.1-3.8-2.3 3.6zm26.4-.7l-2.8-.4.1-4.6 3.6 5.2z"/><path fill="#4DDDFF" d="M59.6 39.3c0 .6-.4 1-.9 1h-27c-.5 0-.9-.5-.9-1v-.6c0-.6.4-1 .9-1h26.9c.5 0 .9.5.9 1v.6z"/></g><path fill="#D6D8D8" stroke="#BBF0FC" stroke-width=".25" d="M33.1 40.3s4.6 5.4 4.4 9.6c-.3 4.2-1 10.2 0 11.9 1 1.7 7.7-.7 7.7-.7s0-3.2-.5-6.1c-.5-2.8-4.3-7.9-5-9.2-.7-1.3-6-5.6-6-5.6l-.6.1z"/><path fill="#FDFFFF" stroke="#BBF0FC" stroke-width=".25" d="M56.1 37.4s-20.5-2-22.5 0 .9 3.9 3.1 5.7c2.2 1.7 7.8 8.9 7.8 12.6 0 3.7 0 8.1-1.5 9.2-1.5 1.1-5 1.3-.9 2.2 4.1.9 7.8-.4 10.2-2.8 2.4-2.4 8.1-4.6 8.7-7 .7-2.4-.7-7.8-1.7-10.2-1-2.5-3.2-9.7-3.2-9.7z"/><path fill="none" stroke="#E0E2E2" d="M44.5 43.5c1.8 1.8 3.7 2.7 5.9 3.9"/><g fill="none" stroke="#00ADDB" stroke-width=".111"><path d="M53.5 56.1c-.2-.4.1-1.1.3-1.5.2-.3.3-.4.6-.4.4 0 .5.2.3.4-.3.2-.4.1-.3.6 0 .2.1.4.1.7 0 .6-.4 1.3-.7 1.8-.6.9-1.8 1.4-2.8 1.2-.6-.1-.9-.5-1.3-.9-.4-.3-.9-.9-1.3-.4-.6-.5.4-1.1.9-.9.4.1.5.2.7.5.2.3.5.3.9.4.6.1 1.2.1 1.7-.3s1.1-1 .9-1.5"/><path d="M52.5 58.2c-.3-.3-.5-1-.4-1.4.2-.6.5-1.2.6-1.9.1 0 .3 0 .4-.1.2.2.2.6.2.8.1.3.4.6.4.9.1.3-.3.9-.5 1.2 0 .2-.7.9-.7.5"/><path d="M52.6 58.2c0-.4-.4-1.1-.8-1.2-.6-.3-1.2-.4-1.8-.8l-.3.3c0 .3.3.5.4.7.1.3.2.7.4.9.2.3.8.3 1.2.4.2 0 1.1 0 .9-.3"/><path d="M53.7 61.6s-1-2.4-1.1-2.5c-.3-.5-.4-.6-.4-.6s.8-.4.7-.3c-.2.2 0 .6 0 .6l1.1 2.7c.1-.1 0 0-.3.1zm-3.2-5s.4.6.9 1 .8.6 1 .7c.2 0 .5-.5.5-.9s-.1-1.7-.1-1.8"/><path d="M50 56.5l.8.8c.2.3.5.6.8.7.2.1.4.3.7.3.3 0 .4-.1.6-.5.1-.3.2-1.4.1-1.7-.1-.3-.1-.7-.1-.9 0-.1.1-.2.1-.2"/><path d="M50 56.7s.6.7.9.9c.3.3.7.7 1 .7.3 0 .6-.1.6-.1s.6-.4.6-.9c.1-.5-.1-1.3-.1-1.6v-.5"/><path d="M51.9 56c0 .1 0 .2-.1.2s-.2 0-.2-.1 0-.2.1-.2.2.1.2.1zm-.4.4c0 .1 0 .2-.1.3-.1 0-.2 0-.3-.1 0-.1 0-.2.1-.3.2 0 .3 0 .3.1zm.9-.4c0 .1 0 .2-.1.3-.1 0-.2 0-.3-.1 0-.1 0-.2.1-.3.1 0 .2 0 .3.1zm-.4.5c0 .1 0 .2-.1.3-.1 0-.2 0-.3-.1 0-.1 0-.2.1-.3.2 0 .3 0 .3.1z"/></g><g fill="none" stroke="#00ADDB" stroke-width=".111"><path d="M57.6 56.3c-.1-.3.1-.7.2-.9.1-.2.2-.3.4-.3s.3.1.2.3c-.2.1-.2.1-.2.3 0 .1.1.3.1.4 0 .4-.2.8-.4 1.1-.4.6-1.1.9-1.7.8-.4-.1-.6-.3-.8-.5-.2-.2-.6-.6-.8-.2-.3-.3.3-.7.6-.6.2.1.3.2.4.3.2.2.3.2.5.3.4.1.7.1 1-.2.3-.2.7-.6.6-1"/><path d="M57 57.6c-.2-.2-.3-.6-.2-.9.1-.4.3-.8.4-1.2h.3c.1.1.1.4.1.5.1.2.2.4.3.5 0 .2-.2.5-.3.7-.2.3-.6.7-.6.4"/><path d="M57 57.6c0-.3-.3-.7-.5-.8-.4-.2-.7-.3-1.1-.5 0 .1-.1.1-.2.2 0 .2.2.3.3.5.1.2.1.4.2.6.1.2.5.2.7.2.2 0 .8 0 .6-.2"/><path d="M57.7 59.7s-.6-1.5-.7-1.5c-.2-.3-.3-.4-.3-.4s.5-.3.4-.2c-.1.1 0 .3 0 .3l.7 1.7c.1 0 .1.1-.1.1zm-2-3s.2.4.5.6c.3.3.5.4.6.4.1 0 .3-.3.3-.6S57 56 57 56"/><path d="M55.4 56.6l.5.5c.1.2.3.4.5.5.1.1.3.2.4.2.2 0 .3-.1.4-.3.1-.2.1-.9.1-1.1 0-.2-.1-.5-.1-.5 0-.1.1-.1.1-.1"/><path d="M55.4 56.7l.6.6c.2.2.4.4.6.4.2 0 .4-.1.4-.1s.3-.2.4-.6v-1.3"/><path d="M56.6 56.3c0 .1 0 .1-.1.2h-.2c0-.1 0-.1.1-.2s.2-.1.2 0z"/><path d="M56.4 56.5c0 .1 0 .1-.1.2-.1 0-.1 0-.2-.1 0-.1 0-.1.1-.2.1 0 .1.1.2.1zm.5-.2c0 .1 0 .1-.1.2-.1 0-.1 0-.2-.1 0-.1 0-.1.1-.2.1 0 .2 0 .2.1z"/><circle cx="56.6" cy="56.7" r=".1" transform="rotate(-25.096 56.55 56.655)"/></g><g stroke="#00ADDB" stroke-width=".111"><path fill="#F7F9F9" d="M49.7 59.9c-.1-.3.1-.7.2-.9.1-.2.2-.3.4-.3s.3.1.2.3c-.2.1-.2.1-.2.3 0 .1.1.3.1.4 0 .4-.2.8-.4 1.1-.4.6-1.1.8-1.7.8-.4-.1-.6-.3-.8-.5-.2-.2-.6-.6-.8-.2-.3-.3.3-.7.6-.6.2.1.3.2.4.3.2.2.3.2.5.3.4.1.7.1 1-.2.3-.2.7-.6.6-1"/><path fill="#F7F9F9" d="M49.1 61.2c-.2-.2-.3-.6-.2-.9.1-.4.3-.8.4-1.2h.3c.1.1.1.4.1.5.1.2.2.4.3.5 0 .2-.2.5-.3.7-.2.2-.6.6-.6.4"/><path fill="#F7F9F9" d="M49.1 61.2c0-.3-.3-.7-.5-.8-.4-.2-.7-.3-1.1-.5 0 .1-.1.1-.2.2 0 .2.2.3.3.5.1.2.1.4.2.6.1.2.5.2.7.2.2 0 .8-.1.6-.2"/><path fill="#00ADDB" d="M49.9 63.3s-.6-1.5-.7-1.5c-.2-.3-.3-.4-.3-.4s.5-.3.4-.2c-.1.1 0 .3 0 .3l.7 1.7-.1.1z"/><path fill="#F7F9F9" d="M47.8 60.2s.2.4.5.6c.3.3.5.4.6.4.1 0 .3-.3.3-.6s-.1-1.1-.1-1.1"/><path fill="#F7F9F9" d="M47.6 60.1l.5.5c.1.2.3.4.5.5.1.1.3.2.4.2.2 0 .3-.1.4-.3.1-.2.1-.9.1-1.1 0-.2-.1-.5-.1-.5 0-.1.1-.1.1-.1"/><path fill="#F7F9F9" d="M47.6 60.3l.6.6c.2.2.4.5.6.4.2 0 .4-.1.4-.1s.3-.2.4-.6v-1.3"/><path fill="#F7F9F9" d="M48.7 59.8c0 .1 0 .1-.1.2h-.2c0-.1 0-.1.1-.2h.2zm-.2.3c0 .1 0 .1-.1.2-.1 0-.1 0-.2-.1 0-.1 0-.1.1-.2.1 0 .2 0 .2.1z"/><circle cx="48.9" cy="59.9" r=".1" fill="#F7F9F9" transform="rotate(-24.58 48.887 59.9)"/><path fill="#F7F9F9" d="M48.8 60.1c0 .1 0 .1-.1.2-.1 0-.1 0-.2-.1 0-.1 0-.1.1-.2.1.1.2.1.2.1z"/></g><path fill="#00ADDB" stroke="#00ADDB" stroke-width=".111" d="M33.6 37.4s8.5 9.1 9.4 11.7c.9 2.6 3.3 7.3 3.1 10-.1 2.7-1.7 7.2-2.6 7.1-.9-.1.5.5 2.9 0s4-1.2 6.5-2.7c2.4-1.5 6.6-4.9 6.6-4.9s1.6-3.4.9-5.5c-.7-2.1-5.2-15.8-5.2-15.8h-1s3 10.3 4.1 13.9c1.1 3.6 1.8 5.6.7 6.5-1.1.9-8.6 5.2-9.7 6.1-1.1.9-4.1 1.8-4.1 1.8s2.4-2.3 1.7-7-1.3-5.4-3.6-10.7c-1-2.3-8.5-11.1-8.5-11.1l-1.2.6z"/><path fill="#F6E1AC" stroke="#D1B679" stroke-width=".25" d="M61.7 52.1l6 1 1.9-1.9 1.6.9-2.6 2.1h-4.7z"/><path fill="#F6E1AC" stroke="#D1B679" stroke-width=".25" d="M60.4 50.2c-.5-.2-1.8-.9-2.3-.6-1.2.8.2 1.7.8 1.9 1.1.4 1.4 0 1.9 1.3.4.9.3 1.6.4 2.5.4-1.5 2.7-.7 2.4-2.4-.2-.9-2.4-2.8-3.2-2.8"/><path fill="#EBBB8C" stroke="#CC905E" stroke-width=".25" d="M73.2 46.9c.9.7 1.1 1.8 2.2 2.5.8.5 2.6.7 3.6.9 2.5.7 4.3.4 6.8.7m-6.7 22.8l.4 3.6 3.3 1.5 1-3-1.3-.1 1.3-2.3zm-7.4-1.1v4.9h3.6v-5l-3.6.1z"/><path fill="#0B2DA8" stroke="#030202" stroke-width=".25" d="M64.8 64.8s4.8 8 5.1 8.8c.3.8 6.5 0 6.5 0l1.1-2.2"/><path fill="#0B2DA8" stroke="#030202" stroke-width=".25" d="M65.4 64.9s7.6 6.5 9.9 7.8c2.3 1.3 8.1 1.8 8.5.8.4-1.1.7-2.1.7-2.1l1.3-5.3-20.4-1.2z"/><g stroke-width=".25"><path fill="#FCB315" stroke="#F89B1C" d="M62.8 88.1s7.3-1 8.1-1.7c.8-.7 1-9.9 1-9.9h3.6V88c0 .9-4.2.9-5.6.9h-5c-1.5.1-2.1-.8-2.1-.8z"/><circle cx="74.7" cy="86.7" r=".6" fill="#00864B" stroke="#97CD83"/><circle cx="74.4" cy="85.3" r=".4" fill="#00864B" stroke="#97CD83"/><circle cx="75.2" cy="84.7" r=".3" fill="#00864B" stroke="#97CD83"/><path fill="#00864B" stroke="#97CD83" d="M74.8 84.2c0 .2-.1.3-.3.3-.2 0-.3-.1-.3-.3 0-.2.1-.3.3-.3.1 0 .3.1.3.3z"/><circle cx="75.3" cy="83.6" r=".2" fill="#00864B" stroke="#97CD83"/><path fill="#00864B" stroke="#97CD83" d="M71.9 77.7l3.6.1v-.7h-3.6zm0 1.1h3.6v-.7h-3.6z"/></g><path fill="#F96B1C" stroke="#F96B1C" stroke-width=".25" d="M68.9 50.5s-3.7 13.4-3.7 14.3c0 .9 7.1 1.3 9.8 1.3 2.7 0 10.2.6 10.8 0 .6-.6-1.1-13.7-1.6-15.2s-.2.1 0 0c.4-.3-5.5-.7-7.2 0-3 1.3-8.1-.4-8.1-.4z"/><g stroke-width=".25"><path fill="#FCB315" stroke="#F89B1C" d="M77.6 91.4s5.8-3.5 6.2-4.5c.3-1-3.7-10-3.7-10l3.1-1.2s4.9 10.4 5.3 11.3c.4.9-3.2 2.3-4.4 2.8-1.2.5-3 1.2-4.3 1.7-1.3.5-2.2-.1-2.2-.1z"/><path fill="#00864B" stroke="#97CD83" d="M87.7 85.6c.2.3 0 .7-.3.8-.3.1-.7 0-.8-.4-.2-.3 0-.7.3-.8.3 0 .7.1.8.4zm-1-1.1c.1.2 0 .5-.2.5-.2.1-.4 0-.5-.3-.1-.2 0-.5.2-.5.1 0 .4.1.5.3zm.2-.9c.1.2 0 .3-.1.4-.1.1-.3 0-.4-.2-.1-.2 0-.3.1-.4.2 0 .4.1.4.2zm-.8-.2c.1.2 0 .3-.1.4-.1.1-.3 0-.4-.2-.1-.2 0-.3.1-.4.1 0 .3 0 .4.2zm.4-.8c.1.1 0 .3-.1.3s-.2 0-.3-.2c-.1-.1 0-.3.1-.3s.2.1.3.2zM80.7 78l3-1.2-.3-.7-3.1 1.3zm.4 1l3.1-1.2-.3-.7-3.1 1.3z"/></g><path fill="#0B2DA8" stroke="#030202" stroke-width=".25" d="M65 65.6c-1.1-2.4.6-4.7 1.4-7 1.2-3 1.5-5.6 5.9-5.3 1.3.1 4.5 1.4 5.4 2.3.7.7.2 2.7.2 3.5v7.4"/><path fill="#0B2DA8" stroke="#030202" stroke-width=".25" d="M77.7 56.2c-.8-4.4 4-4.9 7.1-5.3-3.6-3-8 0-9.4 3.8.4.6 1.1 1 1.8 1m-6.6-2.2c.6-.5.6-1.5.1-2.4-.8-.2-1.7-.7-2.4-.7.2 1.3.6 3.5 2.2 3.3"/><g stroke-width=".25"><path fill="#0A83A0" stroke="#0A83A0" d="M78.2 66.7h4.2v4.2s-.3 1-2.1.7c-2.1-.4-1.8 0-1.9-.1-1-1.4-.2-4.8-.2-4.8z"/><path fill="#FCB315" stroke="#FCB315" d="M78.2 66.7s.3 1.7 1.5 1.9c1.2.2 1.3.3 1.9.1.5-.2.9-.1.9-.4v-1.7h-4.3z"/><path fill="#DF1E4D" stroke="#030202" d="M80.2 68.3h1v1.6h-1z"/></g><path fill="#0B2DA8" d="M77.8 62.2s4.2 1.7 5.2.4c1-1.2 2.5-2.5 2.5-2.5s.6 4.6.2 6c-.3 1.4-2 7.4-2 7.4l-5.2.3-6.7-2"/><path fill="#E5AF7F" stroke="#CC905E" stroke-width=".25" d="M75.1 48.6c-.9-.1-2.3.4-2.1 1.6.2 1 2 .9 2.8.9 1.8.1 4.2 0 5.8-.8-2.1-.3-4.1-.3-6-1.5"/><path fill="none" stroke="#000" stroke-width=".25" d="M68.9 45c1.3.7 2.5.8 3.7 0"/><path fill="#A4CDFF" stroke="#096ACC" stroke-width=".25" d="M57.5 53.1c-.2 0-.3-1.6-.9-1.3-.4.1.3 1.6.9 1.3m4.9 2.4c-.4-.1-.5.7 0 .8.6.1.7-.9-.1-.8m-6.1 6.2c-.2.2-.2.5-.2.8-.1.3-.5.7-.5.9-.1.6.5.2.6-.1.2-.3.2-.7.5-.9.1.3-.1.7.1 1 .3-.1.4-.7.4-1 0-.4-.1-.7-.4-1.1m-.2-1.4c-.6-.1-1 .8-.4 1.1.7.3.9-1.1.3-1"/><path fill="#F96B1C" stroke="#E2550E" stroke-width=".25" d="M68.1 53.8l-1.6-.9.2-1.8 2.2-.5z"/><path fill="#F6E1AC" stroke="#F6E1AC" stroke-width=".25" d="M93.4 38s1.5-1.3 2-.6c.6.6 1.1 2.1 1.1 2.9 0 .8-1.5 2.9-1.9 2.9h-1.4l.2-5.2z"/><path fill="#F6E1AC" stroke="#F6E1AC" stroke-width=".25" d="M57.4 41.5s-.3 5.3.5 6.2c.8.9 4.2 3.6 11.4 3.6s11.4-.6 14-.6c2.6 0 4.4-1.1 6.2-2 1.7-.9 3.1-2.9 3.5-4.4.4-1.4.8-3.2.4-3.6-.4-.3 1.6-5 1.6-5.9 0-4.8-15.2-3.6-19.6-3.6-4.4 0-16.6 4-17.3 4.8-.7.7-.7 5.5-.7 5.5z"/><path fill="#F6E1AC" stroke="#F6E1AC" stroke-width=".25" d="M57.4 41.5s-1.5-1.3-2-.6c-.6.6-1.1 2.1-1.1 2.9 0 .8 1.5 2.9 1.9 2.9h1.4l-.2-5.2z"/><linearGradient id="a" x1="81.735" x2="89.602" y1="44.662" y2="44.662" gradientUnits="userSpaceOnUse"><stop offset="0" stop-color="#ec0d74"/><stop offset="1" stop-color="#fff5cb"/></linearGradient><ellipse cx="85.7" cy="44.7" fill="url(#a)" opacity=".1" rx="3.9" ry="4.4"/><linearGradient id="b" x1="70.311" x2="62.471" y1="45.839" y2="45.839" gradientUnits="userSpaceOnUse"><stop offset="0" stop-color="#ec0d74"/><stop offset="1" stop-color="#fff5cb"/></linearGradient><ellipse cx="66.4" cy="45.8" fill="url(#b)" opacity=".1" rx="3.9" ry="4.4"/><path fill="none" stroke="#99282E" stroke-width=".2" d="M57.5 44.6s7.2 3.3 19.7 2.8c9-.4 12.5-3 13.8-3.5 1.3-.4 2.7-1.9 2.7-1.9"/><path fill="none" stroke="#B29904" stroke-width=".25" d="M75.1 43.6s.5-1.2 1.8-1c1.3.2 1.6 1.1 1.6 1.1"/><path fill="#010103" d="M84.7 36.8c.1.5-1.4.9-1.8 1-.4.1-.7.1-.8-.4-.1-.5.2-.3.6-.3.4-.1 1.9-.7 2-.3zM69 37.9c.1-.5 1.6-.2 2-.1.4.1.7.3.6.7-.1.5-.3.2-.7.1-.3-.1-2-.2-1.9-.7z"/><path fill="#190800" d="M59.3 41.4c-.4 1.4 0 2.6.1 3.9-3.1.5-2.2-2.9-2.1-4.8.3-3.4-.1-7.3 2.2-9.6 3.9-4 10.1-6 15.2-6.5 5-.6 13.6-.4 15.8 3 1.5 2.4 4.7 4.2 4.6 7.3-.4 8.5-1 8.3-1.8 8.5-1.1-3.6-1.8-9.7-6-10.7.1.3.1.9.2 1.2-3.7.6-7-.4-10.7-.4-3.7 0-7.6.2-11.2 1.4.2-.3.3-.8.7-1.2-1.5-.2-3 2.6-4.2 3.7-1.4 1.4-3.3 2.7-3.2 5.1"/><path fill="#F6E1AC" stroke="#D1B679" stroke-width=".25" d="M58.4 58.2l23.4-4.6.5 1.5-24 5z"/><path fill="#F96B1C" stroke="#E2550E" stroke-width=".25" d="M77.8 53.2s1.4 8.4 1.8 7.1c.4-1.3 3.1-4.3 2.5-6.5-.6-2.1-4.3-.6-4.3-.6z"/><path fill="#F6E1AC" stroke="#D1B679" stroke-width=".25" d="M58.6 57.9c.1-1.5-1.5-3.6-2.8-4.2-.8-.4-1.7-.5-1.5.6.1.8 1.2 1.4 1.6 2-.9-.3-3-3.1-4-1.8.3 1.1 2 1.8 2.8 2.6-1-.7-2-1.9-3.4-1.5-.4 1.2 2.2 2.1 2.9 2.8-.5-.4-2.8-2.3-3.5-1.5-.7.9 2.2 2.4 2.8 2.6-.6-.2-2-.5-2 .5 0 1.1 2 .7 2.7.8 2 .1 3.6-.4 5.5-.9"/><path fill="#F7BD18" d="M39 19.3h6v8.1h2.5l-5.8 5.8-5.6-5.6h2.8z"/></g></switch></svg>
