<svg xmlns="http://www.w3.org/2000/svg" viewBox="0 0 146 66.7"><path fill="#c9c9c9" stroke="#959595" stroke-width=".25" d="M140.8 28.9c.3-7 .1-12.2 0-19.2l1.2-5.1-1.3 2.2-9-.2-10 5.9-6.4-2.5-8.8 2-6-2.3-1.7 1.1-5.1-1.5L92 8.1l-2.9.5L85 4.5l-3.8-.1-3.3-1.1L76 0l-2.8 1.4-12-1.1-12.8 6-3.2 1.5L45 10l-9.3-.7-3.7.5-5.2-1-1.5 1.1-1.4-1.5-4.3-2.3L15.4 3l-.2-1.7L8.3.1l-4 .5-1.1 5.6v1.7L1 9.7l-.4 2.9-.6 1.7.4 1.1 7.4.4 1.8-1 2.4-3.3 3.3.1 2.3-1.4 3.7.6 4.9-.5V12l2 1.3 3.5.7-6.7 1.2-1 1.1 2 1.1-6 .4-3.2-.2-2-.7-.5 1.5-5.1-1-2.4.1-2-.5-2.3 1.4-.1 1.8-1.1 2.9V27l5.2-.6 1.2.7L6 29.5l1.4 1.7.4 2 .9.8-.5 2.1.5 2.6-4.4-2.5v4.5L7 41l2.5 1.4 1.8 1.4.6 1.8-1.1.5L9.1 45l-3.1.8L8.3 47l2-.5 2.1 3.7 2.4 1.7-.9.8 1.6 1h5.1L19 55.6l1.3 1.9 3-1.8 2.9 1.2h2.6l1.7 4.3L35 63l4.1-1.4 2.6.6.5-3.6.2-3 3.3-.2 5.8 1.8 3.7 2.1 6.2 4.9 5.5-1.1 6.6-1.7.6-1.7 3.9-3.9 5.2 1.7 1.9.7 1.4-.5.1-.7 3.7-2 1.6 2.3-1.4 1.7-2.1 2.4 2.7 4.1 2.1-.7 2.5-3.7-.7-4.2 1.8-.8 5.1 1.3 7.5-2.7 4.7 2.3 6.7.1 8-3L134 53h5l1.8-1.6.7 1.3-.7-1.3c.8-8.6 0-15.7 0-22.5z"/><path fill="#d0e7c4" stroke="#669866" stroke-width=".25" d="M25.2 10l-1.5-1.6-4.3-2.2-4-3.1-.3-1.7L8.3.2l-4 .5-1.1 5.6V8L.9 9.8l-.3 2.8-.6 1.8.4 1.1 7.4.3 1.7-.9 2.4-3.4 3.4.2 2.2-1.5 3.7.6 4-.5"/></svg>
