<svg xmlns="http://www.w3.org/2000/svg" version="1.0" viewBox="0 0 111.2 85.7"><switch><g><ellipse cx="98.4" cy="14" fill="#70662A" rx="5.2" ry="4.8"/><path fill="#70662A" d="M93.9 68.9s-.1 2.5 4.2 2.4c4.3-.1 3.4-3.1 3.4-3.1L100 18.4l-4 .3-2.1 50.2z"/><ellipse cx="14.1" cy="11" fill="#70662A" rx="5.2" ry="4.8"/><path fill="#70662A" d="M9.6 65.9s-.1 2.5 4.2 2.4c4.3-.1 3.4-3.1 3.4-3.1l-1.5-49.9-4 .3-2.1 50.3z"/><ellipse cx="106" cy="19.4" fill="#70662A" rx="5.2" ry="4.8"/><path fill="#FCECF3" d="M108.4 43.8c.1 2.3.6 6.8-.6 8.9-1.3 2.3-5.7 3.2-8.4 3.8-2.8.6-5.7.6-8.5.5-3.3-.1-9.2.7-9.8-2.8-.4-2.5 0-7 4.6-8.8 3.5 0 7 1.1 10.8.7 4.1-.3 7.9-1.7 11.9-2.3"/><path fill="#FFF" stroke="#E4E4E4" d="M101.1 22.1c-.3 0-.5.1-.8.1.3 1.2 1.6 3.2 2.3 4.5 1 1.8 1.4 3.3 1.9 5.2.8 2.7 4.4 7.7 4 10.4-.7 4.4-14.5 4.2-18.5 4.4-4.5.2-6.8 1.9-8.9-2.8-1.3-2.8-4.6-7.6-2.8-10.2 2-2.6 7.8-4.8 10.8-6.1 1.7-.8 3.8-1.4 5.3-2.4 2.1-1.4 3.4-3.6 6.1-4 .5.7.5 1.3.4 2.1"/><path fill="#EA66A5" d="M75.4 30.2c-.1-.3-.5-.5-.9-.4-.3.1-.4.4-.9.7.1-.5.4-.7.4-1 0-.4-.3-.7-.6-.7s-.6.3-.6.7c0 .3.3.5.4 1-.5-.2-.5-.6-.9-.7-.4-.1-.8 0-.9.4-.1.3.1.7.5.8.3.1.6-.1 1.1-.1-.4.4-.7.3-.9.6-.2.3-.2.7.1.9.3.2.7.1.9-.2.2-.3 0-.6.3-1 .2.5.1.8.3 1 .2.3.7.4.9.2.3-.2.3-.6.1-.9-.2-.3-.5-.2-.9-.6.5-.1.8.2 1.1.1.4-.1.6-.5.5-.8z"/><path fill="#FBDDDD" d="M73.4 28.9c-.3 0-.5.3-.5.6 0 .1.1.2.1.4.1.2.2.3.3.6v.3l-.3-.1c-.3-.1-.4-.3-.5-.4-.1-.1-.2-.2-.3-.2-.2-.1-.4 0-.5 0-.1 0-.2.1-.2.2-.1.3.1.5.4.6h.4c.2 0 .4-.1.7 0h.3l-.1.1c-.2.2-.4.3-.6.4-.1.1-.3.1-.3.2-.1.1-.2.3-.1.5 0 .1.1.2.2.3.1.1.2.1.3.1.2 0 .3-.1.4-.3.1-.1.1-.2.1-.4s0-.4.2-.7l.1-.2.1.2c.1.3.2.5.2.7 0 .2 0 .3.1.4.1.1.3.2.4.3.1 0 .2 0 .3-.1.1-.1.2-.2.2-.3 0-.2 0-.3-.1-.5-.1-.1-.2-.1-.3-.2-.2-.1-.4-.2-.6-.4l-.2-.2h1c.2 0 .3.1.4 0 .2-.1.3-.2.4-.3 0-.1.1-.2 0-.3 0-.1-.1-.2-.2-.2-.1-.1-.3-.1-.5 0-.1 0-.2.1-.3.2-.1.1-.3.3-.5.4l-.2.1v-.3c.1-.3.2-.5.3-.6.1-.1.1-.2.1-.4-.2-.2-.4-.5-.7-.5z"/><circle cx="73.5" cy="30.8" r=".2" fill="#FFF"/><path fill="#70662A" d="M102.1 73.5s-.1 2.5 4.2 2.4c4.3-.1 3.4-3.1 3.4-3.1l-1.5-49.9-4 .3-2.1 50.3z"/><path fill="none" stroke="#E4E4E4" d="M73.1 34.9c.9-.5 1.9-.5 2.9-.3.7.2 1.6 1.4 2.2 1.4.2 0 1.7-1.7 2-1.1.3.5-1.1 1.3-1.1 2.1 0 .9.6 1.8.9 2.7.7 1.8.1 3.7.7 5.4"/><path fill="#F9BD22" d="M66.4 44.8c-2.3-1.8-4.6 1.3-6.9-1.6 1.3-.3 1.2.6 1.9.7 1.6.3 1.2.7 3.1.4.9-.1 2-1.2 3-.6 1.5.7.6 1.6-.6 1.9"/><path fill="#E4E4E4" stroke="#E4E4E4" d="M86.2 45.4c2.5 1.1 5.6-2.2 8.2-2.7 2.9-.5 5.3-.1 8.1-1 3.8 3.4-3.4 3.8-5.4 4-3.4.3-6.9-.4-10.3.3m4-10.6c1.2 0 4.3-2.7 5.2-3.5 1.8-1.7 1.2-4.6 2.9-6.2 2.4 1.7-.5 5.5-2.1 6.8-.8.6-2.6 2.2-3.3 2.7-1.2.8-1.8 1.8-3.5.5m-4.3 9.9c4.8-3.1 5.7-3.3 4.7-9 .1 2.3 1 4.3-.6 6.2-1.4 1.6-5 1.5-5.3 3.4.5-.2.8-.6 1-1.1" opacity=".31"/><linearGradient id="a" x1="2528.301" x2="2570.117" y1="22.153" y2="22.153" gradientTransform="matrix(-.625 0 0 1 1690.125 0)" gradientUnits="userSpaceOnUse"><stop offset="0" stop-color="#ffedc4"/><stop offset="0" stop-color="#feebb6"/><stop offset="0" stop-color="#fbe792"/><stop offset="0" stop-color="#f6df57"/><stop offset="0" stop-color="#f1d715"/><stop offset="1" stop-color="#ffe1a0"/></linearGradient><path fill="url(#a)" d="M87.9 9.4s-2.7-2-3.2-1.1c-.5 1-.3 3.2-.2 3.7.1.5 1.3.3 1.2.8-.1.6-1.3.5-1.3 1.5 0 1.1-.1 3 .1 3.6.2.6.5.1.5.1s-1.2 1.1-1.2 2.2 1.2 2.7 1.1 3c-.1.4-1 .8-1.1 1.8-.1.9 0 2.6.1 2.8.1.3.3 2.1.3 2.1l-.1.7s1.3-1 1.5-1c.2 0 8.5 3.9 8.9 3.9.4 0 3.9.4 4.5 1 .6.6 1.7 1.1 2.9 1.2 1.2.1 1.9.6 2.4-.4.5-1.1.9-.2 1.1-.1.2.1 3.3-.5 3.7-4.4.4-3.9-.1-4.6-.1-6-.1-1.4-.1-3.2.3-4.4.4-1.1.6-3.1.4-3.5-.2-.4-.9-1.2-.9-1.2s1.1-2.7 1.2-3.5c.1-.8-.2-1.7-.6-2.4-.4-.7-1.2-1.7-1.3-1.8-.1-.1-4.8 1.7-5.7 2.3-.9.5-2 2.4-2.7 2.3-.7-.1-1.5-1.1-2.4-1-.9.1-3.4 1.7-4.1 1.7-.7 0-1.1-2-2.2-2.7-1.1-.6-1.4-1.1-1.8-1.1-.6.2-1.3-.1-1.3-.1z"/><path fill="#501042" d="M106.5 33.5c.1 0 .4-.1 1-1.4.5-1.3.8-3.5.8-4.1 0-.6-.4-.9-.7-.9-.3.1-.2.9-.4.9s-.5-.4-.8 0c-.2.4-.5 2.9-.5 2.9s-.3 2.1 0 2.1c.4.2.6.5.6.5zm1.9-10.2s.4-.7.4-1.5c0-.9-.1-2-.4-2-.4 0-1.3-.6-1.3-.2 0 .4-.2 1.1-.1 2.6s-.1 1.9 0 2.7c.1.8.4 1.5.9 1.5.4 0 .6-.2.6-.9-.2-.7-.1-2.2-.1-2.2zm-.6-4.7c.1 0 .3-.1.6-1.2.3-1.1.6-3.1.6-3.7 0-.5-.3-.8-.4-.8-.2.1-.1.8-.3.8-.1 0-.3-.4-.5 0-.1.4-.3 2.6-.3 2.6s-.2 1.8 0 1.9c.1.1.3.4.3.4z"/><path fill="#F1D715" d="M105.2 33.9s-.2-.9-.4-1.6c-.2-.8.9-1.8 1-2.6.1-.8.6-1.7 0-2.6-.6-.9-1-1.1-.3-1.6s1.7-2.6 1.2-3.3c-.4-.8-.8-1.7-.8-1.7s.5 1.3.9-.9c.3-2.1.9-2.4.2-3.2-.6-.8-1.2-1.2-.9-1.4.4-.2 1.2 1.5 1.7-1.1.5-2.7.3-3.6.3-3.6"/><linearGradient id="b" x1="71.371" x2="73.961" y1="25.309" y2="25.309" gradientUnits="userSpaceOnUse"><stop offset="0" stop-color="#ffedc4"/><stop offset=".318" stop-color="#ffe6b6"/><stop offset=".914" stop-color="#ffd592"/><stop offset="1" stop-color="#ffd28c"/></linearGradient><path fill="url(#b)" d="M74 23.6c-.9-.1-3 .8-2.5 2 .1.3 1.2.8 1.4.9.3.1.2.8.7.4.2-.1.3-.8.3-1"/><linearGradient id="c" x1="78.859" x2="85.115" y1="12.234" y2="12.234" gradientUnits="userSpaceOnUse"><stop offset="0" stop-color="#ee4851"/><stop offset="1" stop-color="#f89c1e"/></linearGradient><path fill="url(#c)" d="M83.6 11.1c-2.3 4.1-4.4 4.2-1.7 8.9-1.5 1.2-2.9-1.1-3-2.6-.1-1.2.7-3.7 1.2-4.8.9-1.7 1.6-2.5 2.1-4.5.6-2.1 1.2-2.7 2.9-3.9"/><path fill="#070808" d="M15.7 68.9l78.2.5 8.2 4.5-93.2.6z" opacity=".08"/><path fill="#A7BCE1" d="M73.9 22.9s-.8 1.6-.6 2.1c.2.5 2.6 1.7 4.1 1.4 1.5-.3 4.9-1.9 5-2.4.1-.4 1.7-1.5 1.6-1.8-.3-1.3.5-1.7-1.6-2-2.1-.2-3.6 3.3-4 3.3-.4-.1-3-.2-3-.2l-1.5-.4z"/><path fill="#DC1079" d="M73.9 22.9l-.3 1.1-.3 1 .4.3.6-1.2.4-.9z"/><path fill="#CAD4EC" d="M94.7 24.5s-.6 13.2-3.7 15c-3.1 1.8-8.9-1-12.3-4.8-3.4-3.8-4.5-5.6-4.5-5.6s1.4-1.8 4.6-3.3c3.2-1.5 4.7-5.6 4.7-5.6s-.1-.9 2.3.3c2.3 1.1 8.9 4 8.9 4z"/><linearGradient id="d" x1="-1351.886" x2="-1350.421" y1="245.481" y2="245.481" gradientTransform="matrix(-1.0116 -.4002 -.396 .9215 -1184.83 -748.588)" gradientUnits="userSpaceOnUse"><stop offset="0" stop-color="#ec1475"/><stop offset="1" stop-color="#fff5cb"/></linearGradient><path fill="url(#d)" d="M84.1 18c-.1.3.1.7.5.9.4.2.8.1.9-.2.1-.3-.1-.7-.5-.9-.4-.2-.8-.1-.9.2z" opacity=".23"/><path fill="none" stroke="#010101" stroke-width=".328" d="M82.1 15.2l1.4 1.1s1.8 1 2.1 1.3l-1 .2"/><path fill="#CAA385" stroke="#010101" stroke-width=".373" d="M84.4 18.2c-.1.2 0 .4.2.4.2.1.4 0 .4-.2.1-.2 0-.4-.2-.4-.1 0-.3.1-.4.2z"/><path fill="none" stroke="#010101" stroke-width=".373" d="M92.8 17.5s-.4-.5-.8-.6c-.4-.1-1-.1-1-.1"/><linearGradient id="e" x1="5871.56" x2="5876.223" y1="241.019" y2="241.019" gradientTransform="matrix(-1.2964 -.5127 -.396 .9215 7794.152 2804.044)" gradientUnits="userSpaceOnUse"><stop offset="0" stop-color="#ee4851"/><stop offset="1" stop-color="#f89c1e"/></linearGradient><path fill="url(#e)" stroke="#CB4E27" stroke-width=".373" d="M84.1 22.2s-1.8-.7-2.1-1.5c-.3-.8-.1-1.6.4-1.8.5-.3 3.1-1.9 3.3-2.5.2-.6-.5-6.6-.2-6.9.3-.3.8-.5 1.7-.2.9.3.2-1.9-.4-2.1-.6-.3-2.2-.4-2.6-.2-.3.2-1.5 2.1-1.7 2.5-.1.3-.8 1.7-.5 2.3.3.6.7 2.7.4 3.2-.3.5-2.7 1.6-3.1 2.2-.4.6-1 2.9-.3 3.6.7.7 1.1 1.1 2.3 1.4 1.2.3 1.7.3 2.2.3.5-.1.6-.3.6-.3z"/><path fill="#F7F6F5" d="M81.1 21s-1.4-1.9-.3-3.3c1.1-1.4 2.8-1.7 3-2.1.2-.4 1-.2 1-.2s-3 2-3.3 2.6c-.4.6-.6 1.5-.3 1.8.3.3.5 1.4.5 1.4l-.6-.2z" opacity=".14"/><linearGradient id="f" x1="6627.076" x2="6647.87" y1="159.317" y2="159.317" gradientTransform="matrix(-1.1306 -.447 -.396 .9216 7661.035 2835.836)" gradientUnits="userSpaceOnUse"><stop offset="0" stop-color="#ffedc4"/><stop offset=".322" stop-color="#ffe6b6"/><stop offset=".928" stop-color="#ffd592"/><stop offset="1" stop-color="#ffd38d"/></linearGradient><path fill="url(#f)" stroke="#F3B77F" stroke-width=".373" d="M86.7 3.3S83.5 6.9 83 8.2c-.5 1.3-1 3.8-2 5.3-.3.4-1.1 1.3-1.2 1.8-.1.7.2 2 2 3.5 1.7 1.5 4.6 2.6 5.8 3.1 1.7.7 10.4 3.9 11.7 3.7 1.4-.2 2 .1 1.8 0-1.5-.8 1.1-1.1 1.3-1.9.2-.8 1.7-1.1 1.7-1.1-.8-.3-3.7-6.9-6.1-9.3-2.4-2.4-3.7-7.1-5.9-8.2-2.3-1-5.4-1.8-5.4-1.8z"/><linearGradient id="g" x1="7528.205" x2="7534.787" y1="164.856" y2="164.856" gradientTransform="matrix(-.994 -.393 -.396 .9216 7644.828 2829.416)" gradientUnits="userSpaceOnUse"><stop offset="0" stop-color="#fff5cb"/><stop offset="1" stop-color="#ec1475"/></linearGradient><path fill="url(#g)" d="M95.7 22.1c-.6 1.5-2.5 2.1-4.3 1.3-1.8-.8-2.8-2.6-2.2-4.1.6-1.5 2.5-2.1 4.3-1.3 1.9.8 2.8 2.6 2.2 4.1z" opacity=".13"/><linearGradient id="h" x1="6280.595" x2="6285.709" y1="4337.004" y2="4337.004" gradientTransform="matrix(-.6002 -.8427 -.886 .5418 7695.565 2961.27)" gradientUnits="userSpaceOnUse"><stop offset="0" stop-color="#ec1475"/><stop offset="1" stop-color="#fff5cb"/></linearGradient><path fill="url(#h)" d="M80.7 14.1c-1.1.7-1.3 2.2-.5 3.3.9 1.2 2.5 1.6 3.6.9 1.1-.7 1.3-2.2.5-3.3-.9-1.1-2.5-1.6-3.6-.9z" opacity=".13"/><path fill="#F7F6F5" d="M84.3 3.8s6.6-.5 8.9.4c2.3.9 5.7 4.7 5.8 4.8 0 .1-.4 0-.6-.1-.2-.1-3.7-3.5-4.3-3.9-.5-.4-.9-.6-1.1-.7-.1-.1-.7 0-1.1.1-.4.1-1.2.3-1.5.4l-1.2.4c-.2 0-.5 0-1.3-.2-.8-.3-3.6-1.2-3.6-1.2zm17.6 18.3l-.2.2c-.6.5-2.1 2-2.5 2.6-.5.8-.9 2.4-.5 2.7.4.3.6-1 .8-1.4.2-.4 1.3-2 1.5-2.4" opacity=".14"/><path fill="none" stroke="#DFB265" stroke-width=".373" d="M86.6 16.2s.4-1.2 1.4-.9c1 .3 1.3 1.3 1.3 1.3"/><path fill="#DC1079" d="M88.1 25.1s-.2-.1-.3 0c-.1.1-.1.3 0 .4.2.1.2.1.3.2.1 0 .2 0 .2-.1.1-.1.2-.2.2-.3 0-.1.2-.2 0-.4-.1-.1-.1-.1-.2 0 0 .1-.1.3-.2.2zm-.8 5.5s0-.3-.2-.3-.3 0-.4.2v.4l.2.2c.2 0 .3 0 .4.1.1 0 .3 0 .3-.2 0-.1 0-.2-.1-.2h-.3l.1-.2zm-3.4-3.7s0-.3-.2-.3-.3 0-.4.2v.4l.2.2c.2 0 .3 0 .4.1.1 0 .3 0 .3-.2 0-.1 0-.2-.1-.2h-.3l.1-.2zm8.5 0s-.2-.1-.3 0c-.1.1-.1.3 0 .4.2.1.2.1.3.2.1 0 .2 0 .2-.1.1-.1.2-.2.2-.3 0-.1.2-.2 0-.4-.1-.1-.1-.1-.2 0 0 .2-.1.3-.2.2zM82 31.2s0-.3-.2-.3-.3 0-.4.2v.4l.2.2c.2 0 .3 0 .4.1.1 0 .3 0 .3-.2 0-.1 0-.2-.1-.2h-.3l.1-.2zm9.1 5.2s0-.3-.2-.3-.3 0-.4.2v.4l.2.2c.2 0 .3 0 .4.1.1 0 .3 0 .3-.2 0-.1 0-.2-.1-.2H91l.1-.2zm-6.4-14s-.2-.1-.3 0c-.1.1-.1.3 0 .4.2.1.2.1.3.2.1 0 .2 0 .2-.1.1-.1.2-.2.2-.3 0-.1.2-.2 0-.4-.1-.1-.1-.1-.2 0 0 .2-.1.3-.2.2zM79.3 28s0-.3-.2-.3-.3 0-.4.2v.4l.2.2c.2 0 .3 0 .4.1.1 0 .3 0 .3-.2 0-.1 0-.2-.1-.2h-.3l.1-.2zm5.1 6.8s0-.3-.2-.3-.3 0-.4.2v.4l.2.2c.2 0 .3 0 .4.1.1 0 .3 0 .3-.2 0-.1 0-.2-.1-.2h-.3l.1-.2zm3.5 3.1s-.2-.1-.3 0c-.1.1-.1.3 0 .4.2.1.2.1.3.2.1 0 .2 0 .2-.1.1-.1.2-.2.2-.3 0-.1.2-.2 0-.4-.1-.1-.1-.1-.2 0s-.1.2-.2.2zM76.7 29s0-.3-.2-.3-.3 0-.4.2v.4l.2.2c.2 0 .3 0 .4.1.1 0 .3 0 .3-.2 0-.1 0-.2-.1-.2h-.3l.1-.2zm15.9 1.6s0-.3-.2-.3-.3 0-.4.2v.4l.2.2c.2 0 .3 0 .4.1.1 0 .3 0 .3-.2 0-.1 0-.2-.1-.2h-.3l.1-.2z"/><path fill="#DC1079" d="M75.1 28.1c1 .9 3.7 4.9 5.4 6.1 4.1 2.9 4.6 3.2 7.4 4.3 1 .4 3.1 0 3.1 0s.7-.4 1-.4c.2 0 .6.9-.9 1.4-1.5.5-3.4.5-5.5-.3s-5.3-2.8-6.8-4.5c-1.5-1.7-3.4-4.3-3.4-4.3l-1.1-1.1c-.1-.1-.3-2 .8-1.2z"/><path fill="none" stroke="#DFB265" stroke-width=".373" d="M84.8 19.6c3-2.4 3.2 1.3 5.3 2.1"/><path fill="#FFF" d="M90 28.1l1.6 2.4s2-1 1.8-2.1c-.2-1.1-.9-1.1-1.6-1.1-.7 0-1.8.8-1.8.8z"/><path fill="#030305" d="M86.9 13.3c-.2.4-.5.6-.8.5-.3-.1-.3-.5-.2-.9.2-.4.5-.6.8-.5.3.1.4.5.2.9zm5.2 2.7c-.2.4-.5.6-.8.5-.3-.1-.3-.5-.2-.9.2-.4.5-.6.8-.4.3 0 .3.4.2.8z"/><path fill="#A7BCE1" d="M88.2 39.8c-.9 1.9-2.3 1.9-4 2.2-.7.1-1.5 1.1-2.1 1-.7 0-1-1.1-1.2-1.7-.6-1.5-1.7-2.9-2.1-4.5-.3-.8-.3-1.4-.8-2.2-.4-.7-.8-1.2-1-2 1.2.4 2 1.9 3 2.6 1.1.8 2 1.8 3.1 2.5 1.2.8 2.3 1 3.7 1.3 1.1.2 2.9.8 4 .6m-4.1-16.4s-1.7.6-1.9 1.1c-.2.5.6 3 1.9 3.8 1.3.8 4.8 2.1 5.2 1.8.4-.3 2.3.1 2.4-.2.7-1.1 1.6-.9.3-2.5-1.4-1.7-4.9-.2-5.1-.5-.2-.3-2-2.2-2-2.2l-.8-1.3z"/><path fill="#DC1079" d="M84 29.2l-.2 1.1-.3 1 .3.3.7-1.2.3-.9zm.6-8.6s.8.5 3.1 1.4c2.3.9 5.2 2.1 5.2 2.1l1.2.3s-4.6-.1-6.9-1.4c-2.3-1.3-3.7-2.7-3.7-2.7"/><linearGradient id="i" x1="79.071" x2="103.469" y1="19.537" y2="19.537" gradientUnits="userSpaceOnUse"><stop offset="0" stop-color="#ee4851"/><stop offset="1" stop-color="#f89c1e"/></linearGradient><path fill="url(#i)" d="M98.2 14.3c4.7.6-2.8 9.4-3.4 10.8-.7 1.9 0 4-.7 5.9-.5 1.3-2.8 4.7-.7 5.9 2.5 1.4 1.9-3.5 2.7-4.4.9-.9 2.1.1 3.1-.7 1-.8.7-1.8.9-2.9.2-.9.2-2.3.7-3 .6-1.1 1.8-1.4 2.3-2.6 1.1-2.4-.3-4-1-6.1-.7-1.8.1-3.6-.6-5.4-1-2.4-3.5-3-5.1-4.8-1.7-2-2.4-3.7-5.2-4.5-1.4-.4-4.6-1.2-5.8-.4-1.9 1.3-.8 4.2-1.3 6-.5 1.8-2 4-3 5.6-1.5 2.3-2.3 3.1-1.6 5.9.5 1.7 1.8 5.1 4.1 3.6-1.5-3.3-5.3-6.5-3.1-9.8 1.2-1.7 2.5-3 3.3-5.1.7-2 1-3.9 2.8-5.4"/><linearGradient id="j" x1="78.647" x2="106.219" y1="11.481" y2="11.481" gradientUnits="userSpaceOnUse"><stop offset="0" stop-color="#ee4851"/><stop offset="1" stop-color="#f89c1e"/></linearGradient><path fill="url(#j)" d="M102.7 23c.2-1 1.2-2.2 1.1-3.1-.1-1.2 2.1-1.7 1.8-3-.5-2.3.8-4.5.6-6.9-.2-1.9-3.1-5.1-3.9-6.4-1.4-2.3-4.7-3.3-7.2-3.5-4.6-.4-10.3 2.8-12.5 6.3-1.5 2.4-1.8 4.1-2.6 6.7-.6 1.9-2.3 5-.8 6.6.3-1.7-.2-3.7.5-5.3.8-2 2.9-3.4 3.8-5.3.9-2 .8-3.7 2.8-5 2.1-1.4 4.4-.3 5.8 1.9"/><ellipse cx="91.9" cy="15.9" fill="#F7F7F8" rx="1.5" ry="2.1" transform="rotate(25.207 91.862 15.89)"/><ellipse cx="91.1" cy="16.3" fill="#050506" rx=".6" ry=".7" transform="rotate(25.207 91.077 16.304)"/><path fill="#F7F7F8" d="M88.2 13.2c0 1.2-.7 2.1-1.5 2.1s-1.5-.9-1.6-2.1c0-1.2.7-2.1 1.5-2.1.9 0 1.6 1 1.6 2.1z"/><ellipse cx="86.4" cy="13.9" fill="#050506" rx=".6" ry=".7" transform="matrix(.9998 -.01823 .01823 .9998 -.24 1.578)"/><g fill="#70662A"><ellipse cx="5.2" cy="18.4" rx="5.2" ry="5.1"/><path d="M3 23.1L1.6 73.3s1.6 2.3 3.5 2.5C6.9 76 8.9 74 8.9 74L7 23.5l-1.5-.1-2.5-.3z"/></g><path fill="#FFCD33" d="M64.7 61.3c-2.2.5-4-2.1-6.2-1.5-4.9 1.3-7.4 1.4-12 .3-4.3-1.1-7.1.1-11.1 1.1s-8-.8-12-.4c-3.5.4-7.5 0-11-.4-5.1-.6-3.8-1.7-4.4-5.8-.8-5.7-1.8-11.3-2.3-17-.5-5.3-.6-7.8 4.6-10.1 1.8-.8 4.1-1.1 6.1-1.8 3.8-1.3 7.3-2.6 11.1-3.4 7.6-1.5 15.1-3.2 23-2.8 4.5.2 7.6 1.3 9.9 5.5 1.2 2.1 1.6 3.7 3.1 5.6 1.9 2.3 1.6 3 2.2 5.8.9 3.8 3 7.1 3.4 11.1.3 2.9 1.8 6.7 1.2 9.5-.6 2.3-2.8 3.6-5.6 4.3z"/><path fill="#F9BD22" d="M50 22.5c-3.6-2-8.6 1.6-10.6 4.4-1.1 1.6-1.5 3.5-2 5.4-.6 2.2-1.6 4-2.3 6.2 4.2.3 6.2-9.2 8.4-12 2.9-3.6 9.1-.8 12.3-4.9-1.8.2-3.6.9-5.6.4m-5 12.2c1.5.7 4.9 2 3.8 4.1-.8 1.4-4.8 1.2-6.2 1.3-3.8.4-6.5 3.9-10.5 5.4.4-1.7 3.5-2.9 4.9-3.8 2.1-1.4 3.1-1.6 5.8-1.8 1.6-.1 5.7.3 4.1-2.3-.8-1.4-5.4-.9-3.6-3.9"/><path fill="#F9BD22" d="M41.9 37.5c-5.5-.4-10.7 2.4-15.8 3.9-2.8.9-5.3 2-8.4 1.8-3.1-.2-5.4-1.6-8.2-2.7 2.8 0 5.7 1.7 8.7 1.8 3.2.1 5.9-.8 9-1.5 5.8-1.4 11.8-3.8 17.9-3-1.6 1.9-4.4.6-6.5.4"/><path fill="#FFF" stroke="#E4E4E4" d="M81.3 45.3c-.2-3.3 1.8-6 1.8-9.4 0-3.5 2.1-5.6 2.6-9 .4-2.7 1-7.3-.5-9.8-1.5-2.6-6.1-3-8.6-1.8-3.3 1.6-6.1 4-10 3.8-1.5-.1-4.2-1-5.6-.4-1.6.6-1.7 2.6-4 2.2-.3-.8-1-1.1-1.8-.9-.7 3.1 2.8 6.4 4.1 8.8 1.6 2.9 2.2 5.7 3.3 8.8 1 2.9 3.3 5.6 4.1 8.4.6 1.9-.2 8.2 1.3 9.2.6.4 2.4 0 3.2.1 1.1.1 2.2.5 3.2.6 2.1.1 3.6-.7 5.2-2s2.5-2.9 2.6-5c.2-1.9-2-4-.2-5.6"/><path fill="#EA66A5" d="M67.5 27.9c-.1-.3-.5-.5-.9-.4-.3.1-.4.4-.9.7.1-.5.4-.7.4-1 0-.4-.3-.7-.6-.7s-.6.3-.6.7c0 .3.3.5.4 1-.5-.2-.5-.6-.9-.7-.4-.1-.8 0-.9.4-.1.3.1.7.5.8.3.1.6-.1 1.1-.1-.4.4-.7.3-.9.6-.2.3-.2.7.1.9.3.2.7.1.9-.2.2-.3 0-.6.3-1 .2.5.1.8.3 1 .2.3.7.4.9.2.3-.2.3-.6.1-.9-.2-.3-.5-.2-.9-.6.5-.1.8.2 1.1.1.4-.1.6-.5.5-.8z"/><path fill="#FBDDDD" d="M65.6 26.6c-.3 0-.5.3-.5.6 0 .1.1.2.1.4.1.2.2.3.3.6v.3l-.2-.1c-.3-.1-.4-.3-.5-.4-.1-.1-.2-.2-.3-.2-.2-.1-.4 0-.5 0-.1 0-.2.1-.2.2-.1.3.1.5.4.6h.4c.2 0 .4-.1.7 0h.3l-.2.2c-.2.2-.4.3-.6.4-.1.1-.3.1-.3.2-.1.1-.2.3-.1.5 0 .1.1.2.2.3.1.1.2.1.3.1.2 0 .3-.1.4-.3.1-.1.1-.2.1-.4s0-.4.2-.7l.1-.2.1.2c.1.3.2.5.2.7 0 .2 0 .3.1.4.1.1.3.2.4.3.1 0 .2 0 .3-.1.1-.1.2-.2.2-.3 0-.2 0-.3-.1-.5-.1-.1-.2-.1-.3-.2-.2-.1-.4-.2-.6-.4l-.2-.2h1c.2 0 .3.1.4 0 .2-.1.3-.2.4-.3 0-.1.1-.2 0-.3 0-.1-.1-.2-.2-.2-.1-.1-.3-.1-.5 0-.1 0-.2.1-.3.2-.1.1-.3.3-.5.4l-.2.1v-.3c0-.3.2-.5.3-.6.1-.1.1-.2.1-.4-.3-.3-.5-.6-.7-.6z"/><circle cx="65.6" cy="28.5" r=".2" fill="#FFF"/><path fill="#EA66A5" d="M73.1 38.7c-.1-.3-.5-.5-.9-.4-.3.1-.4.4-.9.7.1-.5.4-.7.4-1 0-.4-.3-.7-.6-.7s-.6.3-.6.7c0 .3.3.5.4 1-.5-.2-.5-.6-.9-.7-.4-.1-.8 0-.9.4-.1.3.1.7.5.8.3.1.6-.1 1.1-.1-.4.4-.7.3-.9.6-.2.3-.2.7.1.9.3.2.7.1.9-.2.2-.3 0-.6.3-1 .2.5.1.8.3 1 .2.3.7.4.9.2.3-.2.3-.6.1-.9-.2-.3-.5-.2-.9-.6.5-.1.8.2 1.1.1.4-.1.6-.5.5-.8z"/><path fill="#FBDDDD" d="M71.1 37.5c-.3 0-.5.3-.5.6 0 .1.1.2.1.4.1.2.2.3.3.6v.3l-.2-.1c-.3-.1-.4-.3-.5-.4-.1-.1-.2-.2-.3-.2-.2-.1-.4 0-.5 0-.1 0-.2.1-.2.2-.1.3.1.5.4.6h.4c.2 0 .4-.1.7 0h.3l-.2.2c-.2.2-.4.3-.6.4-.2-.1-.3-.1-.4 0-.1.1-.2.3-.1.5 0 .1.1.2.2.3.1.1.2.1.3.1.2 0 .3-.1.4-.3.1-.1.1-.2.1-.4s0-.4.2-.7l.1-.2.1.2c.1.3.2.5.2.7 0 .2 0 .3.1.4.1.1.3.2.4.3.1 0 .2 0 .3-.1.1-.1.2-.2.2-.3 0-.2 0-.3-.1-.5-.1-.1-.2-.1-.3-.2-.2-.1-.4-.2-.6-.4l-.2-.2h1c.2 0 .3.1.4 0 .2-.1.3-.2.4-.3 0-.1.1-.2 0-.3 0-.1-.1-.2-.2-.2-.1-.1-.3-.1-.5 0-.1 0-.2.1-.3.2-.1.1-.3.3-.5.4l-.2.1v-.3c0-.3.2-.5.3-.6.1-.1.1-.2.1-.4-.1-.2-.3-.4-.6-.4z"/><circle cx="71.2" cy="39.3" r=".2" fill="#FFF"/><path fill="#EA66A5" d="M72.9 21.9c-.1-.3-.5-.5-.9-.4-.3.1-.4.4-.9.7.1-.5.4-.7.4-1 0-.4-.3-.7-.6-.7s-.6.3-.6.7c0 .3.3.5.4 1-.5-.2-.5-.6-.9-.7-.4-.1-.8 0-.9.4-.1.3.1.7.5.8.3.1.6-.1 1.1-.1-.4.4-.7.3-.9.6-.2.3-.2.7.1.9.3.2.7.1.9-.2.2-.3 0-.6.3-1 .2.5.1.8.3 1 .2.3.7.4.9.2.3-.2.3-.6.1-.9-.2-.2-.5-.2-.9-.5.5-.1.8.2 1.1.1.4-.2.6-.5.5-.9z"/><path fill="#FBDDDD" d="M70.9 20.7c-.3 0-.5.3-.5.6 0 .1.1.2.1.4.1.2.2.3.3.6v.3l-.2-.1c-.3-.1-.4-.3-.5-.4-.1-.1-.2-.2-.3-.2-.2-.1-.4 0-.5 0-.1 0-.2.1-.2.2-.1.3.1.5.4.6h.4c.2 0 .4-.1.7 0h.3l-.2.2c-.2.2-.4.3-.6.4-.1.1-.3.1-.3.2-.1.1-.2.3-.1.5 0 .1.1.2.2.3.1.1.2.1.3.1.2 0 .3-.1.4-.3.1-.1.1-.2.1-.4s0-.4.2-.7l.1-.2.1.2c.1.3.2.5.2.7 0 .2 0 .3.1.4.1.1.3.2.4.3.1 0 .2 0 .3-.1.1-.1.2-.2.2-.3 0-.2 0-.3-.1-.5-.1-.1-.2-.1-.3-.2-.2-.1-.4-.2-.6-.4l-.3-.3h1c.2 0 .3.1.4 0 .2-.1.3-.2.4-.3 0-.1.1-.2 0-.3 0-.1-.1-.2-.2-.2-.1-.1-.3-.1-.5 0-.1 0-.2.1-.3.2-.1.1-.3.3-.5.4l-.3.1v-.3c0-.3.2-.5.3-.6.1-.1.1-.2.1-.4 0-.3-.2-.5-.5-.5z"/><circle cx="71" cy="22.6" r=".2" fill="#FFF"/><path fill="#EA66A5" d="M79.7 48.5c-.1-.3-.5-.5-.9-.4-.3.1-.4.4-.9.7.1-.5.4-.7.4-1 0-.4-.3-.7-.6-.7s-.6.3-.6.7c0 .3.3.5.4 1-.5-.2-.5-.6-.9-.7-.4-.1-.8 0-.9.4-.1.3.1.7.5.8.3.1.6-.1 1.1-.1-.4.4-.7.3-.9.6-.2.3-.2.7.1.9.3.2.7.1.9-.2.2-.3 0-.6.3-1 .2.5.1.8.3 1 .2.3.7.4.9.2.3-.2.3-.6.1-.9-.2-.3-.5-.2-.9-.6.5-.1.8.2 1.1.1.3-.1.6-.5.5-.8z"/><path fill="#FBDDDD" d="M77.7 47.2c-.3 0-.5.3-.5.6 0 .1.1.2.1.4.1.2.2.3.3.6v.3l-.2-.1c-.3-.1-.4-.3-.5-.4-.1-.1-.2-.2-.3-.2-.2-.1-.4 0-.5 0-.1 0-.2.1-.2.2-.1.3.1.5.4.6h.4c.2 0 .4-.1.7 0h.3l-.2.2c-.2.2-.4.3-.6.4-.1.1-.3.1-.3.2-.1.1-.2.3-.1.5 0 .1.1.2.2.3.1.1.2.1.3.1.2 0 .3-.1.4-.3.1-.1.1-.2.1-.4s0-.4.2-.7l.1-.2.1.2c.1.3.2.5.2.7 0 .2 0 .3.1.4.1.1.3.2.4.3.1 0 .2 0 .3-.1.1-.1.2-.2.2-.3 0-.2 0-.3-.1-.5-.1-.1-.2-.1-.3-.2-.2-.1-.4-.2-.6-.4l-.2-.2h1c.2 0 .3.1.4 0 .2-.1.3-.2.4-.3 0-.1.1-.2 0-.3 0-.1-.1-.2-.2-.2-.1-.1-.3-.1-.5 0-.1 0-.2.1-.3.2-.1.1-.3.3-.5.4l-.2.1v-.3c.1-.3.2-.5.3-.6.1-.1.1-.2.1-.4-.2-.3-.4-.6-.7-.6z"/><circle cx="77.7" cy="49.1" r=".2" fill="#FFF"/><path fill="#EA66A5" d="M74.9 29.7c-.1-.3-.5-.5-.9-.4-.3.1-.4.4-.9.7.1-.5.4-.7.4-1 0-.4-.3-.7-.6-.7s-.6.3-.6.7c0 .3.3.5.4 1-.5-.2-.5-.6-.9-.7-.4-.1-.8 0-.9.4-.1.3.1.7.5.8.3.1.6-.1 1.1-.1-.4.4-.7.3-.9.6-.2.3-.2.7.1.9.3.2.7.1.9-.2.2-.3 0-.6.3-1 .2.5.1.8.3 1 .2.3.7.4.9.2.3-.2.3-.6.1-.9-.2-.3-.5-.2-.9-.6.5-.1.8.2 1.1.1.4-.1.6-.4.5-.8z"/><path fill="#FBDDDD" d="M73 28.5c-.3 0-.5.3-.5.6 0 .1.1.2.1.4.1.2.2.3.3.6v.3l-.2-.1c-.3-.1-.4-.3-.5-.4-.1-.1-.2-.2-.3-.2-.2-.1-.4 0-.5 0-.1 0-.2.1-.2.2-.1.3.1.5.4.6h.4c.2 0 .4-.1.7 0h.3l-.2.2c-.2.2-.4.3-.6.4-.2-.1-.3-.1-.4 0-.1.1-.2.3-.1.5 0 .1.1.2.2.3.1.1.2.1.3.1.2 0 .3-.1.4-.3.1-.1.1-.2.1-.4s0-.4.2-.7l.1-.2.1.2c.1.3.2.5.2.7 0 .2 0 .3.1.4.1.1.3.2.4.3.1 0 .2 0 .3-.1.1-.1.2-.2.2-.3 0-.2 0-.3-.1-.5-.1-.1-.2-.1-.4-.2s-.4-.2-.6-.4l-.2-.1h1c.2 0 .3.1.4 0 .2-.1.3-.2.4-.3 0-.1.1-.2 0-.3 0-.1-.1-.2-.2-.2-.1-.1-.3-.1-.5 0-.1 0-.2.1-.3.2-.1.1-.3.3-.5.4l-.3.1V30c0-.3.2-.5.3-.6.1-.1.1-.2.1-.4 0-.3-.2-.5-.4-.5z"/><circle cx="73" cy="30.4" r=".2" fill="#FFF"/><path fill="#EA66A5" d="M84.3 21.7c-.1-.3-.5-.5-.9-.4-.4.1-.4.4-.9.7.1-.5.4-.7.4-1 0-.4-.3-.7-.6-.7s-.6.3-.6.7c0 .3.3.5.4 1-.5-.2-.5-.6-.9-.7-.4-.1-.8 0-.9.4-.1.3.1.7.5.8.3.1.6-.1 1.1-.1-.4.4-.7.3-.9.6-.2.3-.2.7.1.9.3.2.7.1.9-.2.2-.3 0-.6.3-1 .2.5.1.8.3 1 .2.3.7.4.9.2.3-.2.3-.6.1-.9-.2-.3-.5-.2-.9-.6.5-.1.8.2 1.1.1.3-.2.6-.5.5-.8z"/><path fill="#FBDDDD" d="M82.3 20.4c-.3 0-.5.3-.5.6 0 .1.1.2.1.4.1.2.2.3.3.6v.3l-.2-.2c-.3-.1-.4-.3-.5-.4-.1-.1-.2-.2-.3-.2-.2-.1-.4 0-.5 0-.1 0-.2.1-.2.2-.1.3.1.5.4.6h.4c.2 0 .4-.1.7 0h.3l-.3.2c-.2.2-.4.3-.6.4-.1.1-.3.1-.3.2-.1.1-.1.3-.1.5 0 .1.1.2.2.3.1.1.2.1.3.1.2 0 .3-.1.4-.3.1-.1.1-.2.1-.4s0-.4.2-.7l.1-.2.1.2c.1.3.2.5.2.7 0 .2 0 .3.1.4.1.1.3.2.4.3.1 0 .2 0 .3-.1.1-.1.2-.2.2-.3 0-.2 0-.3-.1-.5-.1-.1-.2-.1-.3-.2-.2-.1-.4-.2-.6-.4l-.2-.2h1c.2 0 .3.1.4 0 .2-.1.3-.2.4-.3 0-.1.1-.2 0-.3 0-.1-.1-.2-.2-.2-.1-.1-.3-.1-.5 0-.1 0-.2.1-.3.2-.1.1-.3.3-.5.4l-.2.1v-.3c.1-.3.2-.5.3-.6.1-.1.1-.2.1-.4-.1-.2-.3-.5-.6-.5z"/><circle cx="82.3" cy="22.3" r=".2" fill="#FFF"/><path fill="#EA66A5" d="M63.9 21.1c-.1-.3-.5-.5-.9-.4-.3.1-.4.4-.9.7.1-.5.4-.7.4-1 0-.4-.3-.7-.6-.7s-.6.3-.6.7c0 .3.3.5.4 1-.5-.2-.5-.6-.9-.7-.4-.1-.8 0-.9.4-.1.3.1.7.5.8.3.1.6-.1 1.1-.1-.4.4-.7.3-.9.6-.2.3-.2.7.1.9.3.2.7.1.9-.2.2-.3 0-.6.3-1 .2.5.1.8.3 1 .2.3.7.4.9.2.3-.2.3-.6.1-.9-.2-.3-.5-.2-.9-.6.5-.1.8.2 1.1.1.4-.2.6-.5.5-.8z"/><path fill="#FBDDDD" d="M61.9 19.8c-.3 0-.5.3-.5.6 0 .1.1.2.1.4.1.2.2.3.3.6v.3l-.2-.1c-.3-.1-.4-.3-.5-.4-.1-.1-.2-.2-.3-.2-.2-.1-.4 0-.5 0-.1 0-.2.1-.2.2-.1.3.1.5.4.6h.4c.2 0 .4-.1.7 0h.3l-.2.2c-.2.2-.4.3-.6.4-.1.1-.3.1-.3.2-.1.1-.2.3-.1.5 0 .1.1.2.2.3.1.1.2.1.3.1.2 0 .3-.1.4-.3.1-.1.1-.2.1-.4s0-.4.2-.7l.1-.2v.1c.1.3.2.5.2.7 0 .2 0 .3.1.4.1.1.3.2.4.3.1 0 .2 0 .3-.1.1-.1.2-.2.2-.3 0-.2 0-.3-.1-.5-.1-.1-.2-.1-.3-.2-.2-.1-.4-.2-.6-.4l-.2-.2h1c.2 0 .3.1.4 0 .2-.1.3-.2.4-.3 0-.1.1-.2 0-.3 0-.1-.1-.2-.2-.2-.1-.1-.3-.1-.5 0-.1 0-.2.1-.3.2-.1.1-.3.3-.5.4l-.2.1v-.3c0-.3.2-.5.3-.6.1-.1.1-.2.1-.4-.1-.2-.3-.5-.6-.5z"/><circle cx="61.9" cy="21.7" r=".2" fill="#FFF"/><linearGradient id="k" x1="2649.489" x2="2657.921" y1="3985.197" y2="3985.197" gradientTransform="matrix(.2158 -.6156 .5202 .2052 -2566.805 831.917)" gradientUnits="userSpaceOnUse"><stop offset="0" stop-color="#ffedc4"/><stop offset=".318" stop-color="#ffe6b6"/><stop offset=".914" stop-color="#ffd592"/><stop offset="1" stop-color="#ffd28c"/></linearGradient><path fill="url(#k)" d="M76.4 15c-.3.8-.6 2.8.3 3.2 1.1.5 1.2-1.7 1.2-2.4.1.6-.2 2.4.8 2.3 1.1-.2.6-2 .8-2.6.2.7.1 3.1 1.4 2.4 1-.6.5-2.5.2-3.2-.9-1.9-4.7-1.5-4.8 1.1"/><linearGradient id="l" x1="1899.318" x2="1907.749" y1="-14769.376" y2="-14769.376" gradientTransform="matrix(.4316 .507 -.4637 .3334 -7585.87 3982.02)" gradientUnits="userSpaceOnUse"><stop offset="0" stop-color="#ffedc4"/><stop offset=".318" stop-color="#ffe6b6"/><stop offset=".914" stop-color="#ffd592"/><stop offset="1" stop-color="#ffd28c"/></linearGradient><path fill="url(#l)" d="M86.6 21.6c-.6-.7-2.1-1.9-3-1.4-1.1.7.8 1.9 1.5 2.3-.6-.3-2.1-1.4-2.5-.5-.4 1 1.5 1.5 1.9 2-.7-.3-2.9-1.5-2.9-.1 0 1.2 2 1.7 2.8 1.8 2.2.3 3.8-3.2 1.6-4.6"/><path fill="#DC1079" d="M85 26.7c1-1.2 1.4-3.1 1.6-4.7 2.6.2-.1 3.9-1.1 4.7"/><path fill="#70662A" d="M8.9 54.5h100v7.2H8.9z"/><ellipse cx="98.4" cy="14" fill="#70662A" rx="5.2" ry="4.8"/><path fill="#70662A" d="M93.9 68.9s-.1 2.5 4.2 2.4c4.3-.1 3.4-3.1 3.4-3.1L100 18.4l-4 .3-2.1 50.2z"/><ellipse cx="14.1" cy="11" fill="#70662A" rx="5.2" ry="4.8"/><path fill="#70662A" d="M9.6 65.9s-.1 2.5 4.2 2.4c4.3-.1 3.4-3.1 3.4-3.1l-1.5-49.9-4 .3-2.1 50.3z"/><ellipse cx="106" cy="19.4" fill="#70662A" rx="5.2" ry="4.8"/><path fill="#FCECF3" d="M108.4 43.8c.1 2.3.6 6.8-.6 8.9-1.3 2.3-5.7 3.2-8.4 3.8-2.8.6-5.7.6-8.5.5-3.3-.1-9.2.7-9.8-2.8-.4-2.5 0-7 4.6-8.8 3.5 0 7 1.1 10.8.7 4.1-.3 7.9-1.7 11.9-2.3"/><path fill="#FFF" stroke="#E4E4E4" d="M101.1 22.1c-.3 0-.5.1-.8.1.3 1.2 1.6 3.2 2.3 4.5 1 1.8 1.4 3.3 1.9 5.2.8 2.7 4.4 7.7 4 10.4-.7 4.4-14.5 4.2-18.5 4.4-4.5.2-6.8 1.9-8.9-2.8-1.3-2.8-4.6-7.6-2.8-10.2 2-2.6 7.8-4.8 10.8-6.1 1.7-.8 3.8-1.4 5.3-2.4 2.1-1.4 3.4-3.6 6.1-4 .5.7.5 1.3.4 2.1"/><path fill="#EA66A5" d="M75.4 30.2c-.1-.3-.5-.5-.9-.4-.3.1-.4.4-.9.7.1-.5.4-.7.4-1 0-.4-.3-.7-.6-.7s-.6.3-.6.7c0 .3.3.5.4 1-.5-.2-.5-.6-.9-.7-.4-.1-.8 0-.9.4-.1.3.1.7.5.8.3.1.6-.1 1.1-.1-.4.4-.7.3-.9.6-.2.3-.2.7.1.9.3.2.7.1.9-.2.2-.3 0-.6.3-1 .2.5.1.8.3 1 .2.3.7.4.9.2.3-.2.3-.6.1-.9-.2-.3-.5-.2-.9-.6.5-.1.8.2 1.1.1.4-.1.6-.5.5-.8z"/><path fill="#FBDDDD" d="M73.4 28.9c-.3 0-.5.3-.5.6 0 .1.1.2.1.4.1.2.2.3.3.6v.3l-.3-.1c-.3-.1-.4-.3-.5-.4-.1-.1-.2-.2-.3-.2-.2-.1-.4 0-.5 0-.1 0-.2.1-.2.2-.1.3.1.5.4.6h.4c.2 0 .4-.1.7 0h.3l-.1.1c-.2.2-.4.3-.6.4-.1.1-.3.1-.3.2-.1.1-.2.3-.1.5 0 .1.1.2.2.3.1.1.2.1.3.1.2 0 .3-.1.4-.3.1-.1.1-.2.1-.4s0-.4.2-.7l.1-.2.1.2c.1.3.2.5.2.7 0 .2 0 .3.1.4.1.1.3.2.4.3.1 0 .2 0 .3-.1.1-.1.2-.2.2-.3 0-.2 0-.3-.1-.5-.1-.1-.2-.1-.3-.2-.2-.1-.4-.2-.6-.4l-.2-.2h1c.2 0 .3.1.4 0 .2-.1.3-.2.4-.3 0-.1.1-.2 0-.3 0-.1-.1-.2-.2-.2-.1-.1-.3-.1-.5 0-.1 0-.2.1-.3.2-.1.1-.3.3-.5.4l-.2.1v-.3c.1-.3.2-.5.3-.6.1-.1.1-.2.1-.4-.2-.2-.4-.5-.7-.5z"/><circle cx="73.5" cy="30.8" r=".2" fill="#FFF"/><path fill="#70662A" d="M102.1 73.5s-.1 2.5 4.2 2.4c4.3-.1 3.4-3.1 3.4-3.1l-1.5-49.9-4 .3-2.1 50.3z"/><path fill="none" stroke="#E4E4E4" d="M73.1 34.9c.9-.5 1.9-.5 2.9-.3.7.2 1.6 1.4 2.2 1.4.2 0 1.7-1.7 2-1.1.3.5-1.1 1.3-1.1 2.1 0 .9.6 1.8.9 2.7.7 1.8.1 3.7.7 5.4"/><path fill="#F9BD22" d="M66.4 44.8c-2.3-1.8-4.6 1.3-6.9-1.6 1.3-.3 1.2.6 1.9.7 1.6.3 1.2.7 3.1.4.9-.1 2-1.2 3-.6 1.5.7.6 1.6-.6 1.9"/><path fill="#E4E4E4" stroke="#E4E4E4" d="M86.2 45.4c2.5 1.1 5.6-2.2 8.2-2.7 2.9-.5 5.3-.1 8.1-1 3.8 3.4-3.4 3.8-5.4 4-3.4.3-6.9-.4-10.3.3m4-10.6c1.2 0 4.3-2.7 5.2-3.5 1.8-1.7 1.2-4.6 2.9-6.2 2.4 1.7-.5 5.5-2.1 6.8-.8.6-2.6 2.2-3.3 2.7-1.2.8-1.8 1.8-3.5.5m-4.3 9.9c4.8-3.1 5.7-3.3 4.7-9 .1 2.3 1 4.3-.6 6.2-1.4 1.6-5 1.5-5.3 3.4.5-.2.8-.6 1-1.1" opacity=".31"/><linearGradient id="m" x1="2528.301" x2="2570.117" y1="22.153" y2="22.153" gradientTransform="matrix(-.625 0 0 1 1690.125 0)" gradientUnits="userSpaceOnUse"><stop offset="0" stop-color="#ffedc4"/><stop offset="0" stop-color="#feebb6"/><stop offset="0" stop-color="#fbe792"/><stop offset="0" stop-color="#f6df57"/><stop offset="0" stop-color="#f1d715"/><stop offset="1" stop-color="#ffe1a0"/></linearGradient><path fill="url(#m)" d="M87.9 9.4s-2.7-2-3.2-1.1c-.5 1-.3 3.2-.2 3.7.1.5 1.3.3 1.2.8-.1.6-1.3.5-1.3 1.5 0 1.1-.1 3 .1 3.6.2.6.5.1.5.1s-1.2 1.1-1.2 2.2 1.2 2.7 1.1 3c-.1.4-1 .8-1.1 1.8-.1.9 0 2.6.1 2.8.1.3.3 2.1.3 2.1l-.1.7s1.3-1 1.5-1c.2 0 8.5 3.9 8.9 3.9.4 0 3.9.4 4.5 1 .6.6 1.7 1.1 2.9 1.2 1.2.1 1.9.6 2.4-.4.5-1.1.9-.2 1.1-.1.2.1 3.3-.5 3.7-4.4.4-3.9-.1-4.6-.1-6-.1-1.4-.1-3.2.3-4.4.4-1.1.6-3.1.4-3.5-.2-.4-.9-1.2-.9-1.2s1.1-2.7 1.2-3.5c.1-.8-.2-1.7-.6-2.4-.4-.7-1.2-1.7-1.3-1.8-.1-.1-4.8 1.7-5.7 2.3-.9.5-2 2.4-2.7 2.3-.7-.1-1.5-1.1-2.4-1-.9.1-3.4 1.7-4.1 1.7-.7 0-1.1-2-2.2-2.7-1.1-.6-1.4-1.1-1.8-1.1-.6.2-1.3-.1-1.3-.1z"/><path fill="#501042" d="M106.5 33.5c.1 0 .4-.1 1-1.4.5-1.3.8-3.5.8-4.1 0-.6-.4-.9-.7-.9-.3.1-.2.9-.4.9s-.5-.4-.8 0c-.2.4-.5 2.9-.5 2.9s-.3 2.1 0 2.1c.4.2.6.5.6.5zm1.9-10.2s.4-.7.4-1.5c0-.9-.1-2-.4-2-.4 0-1.3-.6-1.3-.2 0 .4-.2 1.1-.1 2.6s-.1 1.9 0 2.7c.1.8.4 1.5.9 1.5.4 0 .6-.2.6-.9-.2-.7-.1-2.2-.1-2.2zm-.6-4.7c.1 0 .3-.1.6-1.2.3-1.1.6-3.1.6-3.7 0-.5-.3-.8-.4-.8-.2.1-.1.8-.3.8-.1 0-.3-.4-.5 0-.1.4-.3 2.6-.3 2.6s-.2 1.8 0 1.9c.1.1.3.4.3.4z"/><path fill="#F1D715" d="M105.2 33.9s-.2-.9-.4-1.6c-.2-.8.9-1.8 1-2.6.1-.8.6-1.7 0-2.6-.6-.9-1-1.1-.3-1.6s1.7-2.6 1.2-3.3c-.4-.8-.8-1.7-.8-1.7s.5 1.3.9-.9c.3-2.1.9-2.4.2-3.2-.6-.8-1.2-1.2-.9-1.4.4-.2 1.2 1.5 1.7-1.1.5-2.7.3-3.6.3-3.6"/><linearGradient id="n" x1="71.371" x2="73.961" y1="25.309" y2="25.309" gradientUnits="userSpaceOnUse"><stop offset="0" stop-color="#ffedc4"/><stop offset=".318" stop-color="#ffe6b6"/><stop offset=".914" stop-color="#ffd592"/><stop offset="1" stop-color="#ffd28c"/></linearGradient><path fill="url(#n)" d="M74 23.6c-.9-.1-3 .8-2.5 2 .1.3 1.2.8 1.4.9.3.1.2.8.7.4.2-.1.3-.8.3-1"/><linearGradient id="o" x1="78.859" x2="85.115" y1="12.234" y2="12.234" gradientUnits="userSpaceOnUse"><stop offset="0" stop-color="#ee4851"/><stop offset="1" stop-color="#f89c1e"/></linearGradient><path fill="url(#o)" d="M83.6 11.1c-2.3 4.1-4.4 4.2-1.7 8.9-1.5 1.2-2.9-1.1-3-2.6-.1-1.2.7-3.7 1.2-4.8.9-1.7 1.6-2.5 2.1-4.5.6-2.1 1.2-2.7 2.9-3.9"/><path fill="#070808" d="M15.7 68.9l78.2.5 8.2 4.5-93.2.6z" opacity=".08"/><path fill="#A7BCE1" d="M73.9 22.9s-.8 1.6-.6 2.1c.2.5 2.6 1.7 4.1 1.4 1.5-.3 4.9-1.9 5-2.4.1-.4 1.7-1.5 1.6-1.8-.3-1.3.5-1.7-1.6-2-2.1-.2-3.6 3.3-4 3.3-.4-.1-3-.2-3-.2l-1.5-.4z"/><path fill="#DC1079" d="M73.9 22.9l-.3 1.1-.3 1 .4.3.6-1.2.4-.9z"/><path fill="#CAD4EC" d="M94.7 24.5s-.6 13.2-3.7 15c-3.1 1.8-8.9-1-12.3-4.8-3.4-3.8-4.5-5.6-4.5-5.6s1.4-1.8 4.6-3.3c3.2-1.5 4.7-5.6 4.7-5.6s-.1-.9 2.3.3c2.3 1.1 8.9 4 8.9 4z"/><linearGradient id="p" x1="-1351.886" x2="-1350.421" y1="245.481" y2="245.481" gradientTransform="matrix(-1.0116 -.4002 -.396 .9215 -1184.83 -748.588)" gradientUnits="userSpaceOnUse"><stop offset="0" stop-color="#ec1475"/><stop offset="1" stop-color="#fff5cb"/></linearGradient><path fill="url(#p)" d="M84.1 18c-.1.3.1.7.5.9.4.2.8.1.9-.2.1-.3-.1-.7-.5-.9-.4-.2-.8-.1-.9.2z" opacity=".23"/><path fill="none" stroke="#010101" stroke-width=".328" d="M82.1 15.2l1.4 1.1s1.8 1 2.1 1.3l-1 .2"/><path fill="#CAA385" stroke="#010101" stroke-width=".373" d="M84.4 18.2c-.1.2 0 .4.2.4.2.1.4 0 .4-.2.1-.2 0-.4-.2-.4-.1 0-.3.1-.4.2z"/><path fill="none" stroke="#010101" stroke-width=".373" d="M92.8 17.5s-.4-.5-.8-.6c-.4-.1-1-.1-1-.1"/><linearGradient id="q" x1="5871.56" x2="5876.223" y1="241.019" y2="241.019" gradientTransform="matrix(-1.2964 -.5127 -.396 .9215 7794.152 2804.044)" gradientUnits="userSpaceOnUse"><stop offset="0" stop-color="#ee4851"/><stop offset="1" stop-color="#f89c1e"/></linearGradient><path fill="url(#q)" stroke="#CB4E27" stroke-width=".373" d="M84.1 22.2s-1.8-.7-2.1-1.5c-.3-.8-.1-1.6.4-1.8.5-.3 3.1-1.9 3.3-2.5.2-.6-.5-6.6-.2-6.9.3-.3.8-.5 1.7-.2.9.3.2-1.9-.4-2.1-.6-.3-2.2-.4-2.6-.2-.3.2-1.5 2.1-1.7 2.5-.1.3-.8 1.7-.5 2.3.3.6.7 2.7.4 3.2-.3.5-2.7 1.6-3.1 2.2-.4.6-1 2.9-.3 3.6.7.7 1.1 1.1 2.3 1.4 1.2.3 1.7.3 2.2.3.5-.1.6-.3.6-.3z"/><path fill="#F7F6F5" d="M81.1 21s-1.4-1.9-.3-3.3c1.1-1.4 2.8-1.7 3-2.1.2-.4 1-.2 1-.2s-3 2-3.3 2.6c-.4.6-.6 1.5-.3 1.8.3.3.5 1.4.5 1.4l-.6-.2z" opacity=".14"/><linearGradient id="r" x1="6627.076" x2="6647.87" y1="159.317" y2="159.317" gradientTransform="matrix(-1.1306 -.447 -.396 .9216 7661.035 2835.836)" gradientUnits="userSpaceOnUse"><stop offset="0" stop-color="#ffedc4"/><stop offset=".322" stop-color="#ffe6b6"/><stop offset=".928" stop-color="#ffd592"/><stop offset="1" stop-color="#ffd38d"/></linearGradient><path fill="url(#r)" stroke="#F3B77F" stroke-width=".373" d="M86.7 3.3S83.5 6.9 83 8.2c-.5 1.3-1 3.8-2 5.3-.3.4-1.1 1.3-1.2 1.8-.1.7.2 2 2 3.5 1.7 1.5 4.6 2.6 5.8 3.1 1.7.7 10.4 3.9 11.7 3.7 1.4-.2 2 .1 1.8 0-1.5-.8 1.1-1.1 1.3-1.9.2-.8 1.7-1.1 1.7-1.1-.8-.3-3.7-6.9-6.1-9.3-2.4-2.4-3.7-7.1-5.9-8.2-2.3-1-5.4-1.8-5.4-1.8z"/><linearGradient id="s" x1="7528.205" x2="7534.787" y1="164.856" y2="164.856" gradientTransform="matrix(-.994 -.393 -.396 .9216 7644.828 2829.416)" gradientUnits="userSpaceOnUse"><stop offset="0" stop-color="#fff5cb"/><stop offset="1" stop-color="#ec1475"/></linearGradient><path fill="url(#s)" d="M95.7 22.1c-.6 1.5-2.5 2.1-4.3 1.3-1.8-.8-2.8-2.6-2.2-4.1.6-1.5 2.5-2.1 4.3-1.3 1.9.8 2.8 2.6 2.2 4.1z" opacity=".13"/><linearGradient id="t" x1="6280.595" x2="6285.709" y1="4337.004" y2="4337.004" gradientTransform="matrix(-.6002 -.8427 -.886 .5418 7695.565 2961.27)" gradientUnits="userSpaceOnUse"><stop offset="0" stop-color="#ec1475"/><stop offset="1" stop-color="#fff5cb"/></linearGradient><path fill="url(#t)" d="M80.7 14.1c-1.1.7-1.3 2.2-.5 3.3.9 1.2 2.5 1.6 3.6.9 1.1-.7 1.3-2.2.5-3.3-.9-1.1-2.5-1.6-3.6-.9z" opacity=".13"/><path fill="#F7F6F5" d="M84.3 3.8s6.6-.5 8.9.4c2.3.9 5.7 4.7 5.8 4.8 0 .1-.4 0-.6-.1-.2-.1-3.7-3.5-4.3-3.9-.5-.4-.9-.6-1.1-.7-.1-.1-.7 0-1.1.1-.4.1-1.2.3-1.5.4l-1.2.4c-.2 0-.5 0-1.3-.2-.8-.3-3.6-1.2-3.6-1.2zm17.6 18.3l-.2.2c-.6.5-2.1 2-2.5 2.6-.5.8-.9 2.4-.5 2.7.4.3.6-1 .8-1.4.2-.4 1.3-2 1.5-2.4" opacity=".14"/><path fill="none" stroke="#DFB265" stroke-width=".373" d="M86.6 16.2s.4-1.2 1.4-.9c1 .3 1.3 1.3 1.3 1.3"/><path fill="#DC1079" d="M88.1 25.1s-.2-.1-.3 0c-.1.1-.1.3 0 .4.2.1.2.1.3.2.1 0 .2 0 .2-.1.1-.1.2-.2.2-.3 0-.1.2-.2 0-.4-.1-.1-.1-.1-.2 0 0 .1-.1.3-.2.2zm-.8 5.5s0-.3-.2-.3-.3 0-.4.2v.4l.2.2c.2 0 .3 0 .4.1.1 0 .3 0 .3-.2 0-.1 0-.2-.1-.2h-.3l.1-.2zm-3.4-3.7s0-.3-.2-.3-.3 0-.4.2v.4l.2.2c.2 0 .3 0 .4.1.1 0 .3 0 .3-.2 0-.1 0-.2-.1-.2h-.3l.1-.2zm8.5 0s-.2-.1-.3 0c-.1.1-.1.3 0 .4.2.1.2.1.3.2.1 0 .2 0 .2-.1.1-.1.2-.2.2-.3 0-.1.2-.2 0-.4-.1-.1-.1-.1-.2 0 0 .2-.1.3-.2.2zM82 31.2s0-.3-.2-.3-.3 0-.4.2v.4l.2.2c.2 0 .3 0 .4.1.1 0 .3 0 .3-.2 0-.1 0-.2-.1-.2h-.3l.1-.2zm9.1 5.2s0-.3-.2-.3-.3 0-.4.2v.4l.2.2c.2 0 .3 0 .4.1.1 0 .3 0 .3-.2 0-.1 0-.2-.1-.2H91l.1-.2zm-6.4-14s-.2-.1-.3 0c-.1.1-.1.3 0 .4.2.1.2.1.3.2.1 0 .2 0 .2-.1.1-.1.2-.2.2-.3 0-.1.2-.2 0-.4-.1-.1-.1-.1-.2 0 0 .2-.1.3-.2.2zM79.3 28s0-.3-.2-.3-.3 0-.4.2v.4l.2.2c.2 0 .3 0 .4.1.1 0 .3 0 .3-.2 0-.1 0-.2-.1-.2h-.3l.1-.2zm5.1 6.8s0-.3-.2-.3-.3 0-.4.2v.4l.2.2c.2 0 .3 0 .4.1.1 0 .3 0 .3-.2 0-.1 0-.2-.1-.2h-.3l.1-.2zm3.5 3.1s-.2-.1-.3 0c-.1.1-.1.3 0 .4.2.1.2.1.3.2.1 0 .2 0 .2-.1.1-.1.2-.2.2-.3 0-.1.2-.2 0-.4-.1-.1-.1-.1-.2 0s-.1.2-.2.2zM76.7 29s0-.3-.2-.3-.3 0-.4.2v.4l.2.2c.2 0 .3 0 .4.1.1 0 .3 0 .3-.2 0-.1 0-.2-.1-.2h-.3l.1-.2zm15.9 1.6s0-.3-.2-.3-.3 0-.4.2v.4l.2.2c.2 0 .3 0 .4.1.1 0 .3 0 .3-.2 0-.1 0-.2-.1-.2h-.3l.1-.2z"/><path fill="#DC1079" d="M75.1 28.1c1 .9 3.7 4.9 5.4 6.1 4.1 2.9 4.6 3.2 7.4 4.3 1 .4 3.1 0 3.1 0s.7-.4 1-.4c.2 0 .6.9-.9 1.4-1.5.5-3.4.5-5.5-.3s-5.3-2.8-6.8-4.5c-1.5-1.7-3.4-4.3-3.4-4.3l-1.1-1.1c-.1-.1-.3-2 .8-1.2z"/><path fill="none" stroke="#DFB265" stroke-width=".373" d="M84.8 19.6c3-2.4 3.2 1.3 5.3 2.1"/><path fill="#FFF" d="M90 28.1l1.6 2.4s2-1 1.8-2.1c-.2-1.1-.9-1.1-1.6-1.1-.7 0-1.8.8-1.8.8z"/><path fill="#030305" d="M86.9 13.3c-.2.4-.5.6-.8.5-.3-.1-.3-.5-.2-.9.2-.4.5-.6.8-.5.3.1.4.5.2.9zm5.2 2.7c-.2.4-.5.6-.8.5-.3-.1-.3-.5-.2-.9.2-.4.5-.6.8-.4.3 0 .3.4.2.8z"/><path fill="#A7BCE1" d="M88.2 39.8c-.9 1.9-2.3 1.9-4 2.2-.7.1-1.5 1.1-2.1 1-.7 0-1-1.1-1.2-1.7-.6-1.5-1.7-2.9-2.1-4.5-.3-.8-.3-1.4-.8-2.2-.4-.7-.8-1.2-1-2 1.2.4 2 1.9 3 2.6 1.1.8 2 1.8 3.1 2.5 1.2.8 2.3 1 3.7 1.3 1.1.2 2.9.8 4 .6m-4.1-16.4s-1.7.6-1.9 1.1c-.2.5.6 3 1.9 3.8 1.3.8 4.8 2.1 5.2 1.8.4-.3 2.3.1 2.4-.2.7-1.1 1.6-.9.3-2.5-1.4-1.7-4.9-.2-5.1-.5-.2-.3-2-2.2-2-2.2l-.8-1.3z"/><path fill="#DC1079" d="M84 29.2l-.2 1.1-.3 1 .3.3.7-1.2.3-.9zm.6-8.6s.8.5 3.1 1.4c2.3.9 5.2 2.1 5.2 2.1l1.2.3s-4.6-.1-6.9-1.4c-2.3-1.3-3.7-2.7-3.7-2.7"/><linearGradient id="u" x1="79.071" x2="103.469" y1="19.537" y2="19.537" gradientUnits="userSpaceOnUse"><stop offset="0" stop-color="#ee4851"/><stop offset="1" stop-color="#f89c1e"/></linearGradient><path fill="url(#u)" d="M98.2 14.3c4.7.6-2.8 9.4-3.4 10.8-.7 1.9 0 4-.7 5.9-.5 1.3-2.8 4.7-.7 5.9 2.5 1.4 1.9-3.5 2.7-4.4.9-.9 2.1.1 3.1-.7 1-.8.7-1.8.9-2.9.2-.9.2-2.3.7-3 .6-1.1 1.8-1.4 2.3-2.6 1.1-2.4-.3-4-1-6.1-.7-1.8.1-3.6-.6-5.4-1-2.4-3.5-3-5.1-4.8-1.7-2-2.4-3.7-5.2-4.5-1.4-.4-4.6-1.2-5.8-.4-1.9 1.3-.8 4.2-1.3 6-.5 1.8-2 4-3 5.6-1.5 2.3-2.3 3.1-1.6 5.9.5 1.7 1.8 5.1 4.1 3.6-1.5-3.3-5.3-6.5-3.1-9.8 1.2-1.7 2.5-3 3.3-5.1.7-2 1-3.9 2.8-5.4"/><linearGradient id="v" x1="78.647" x2="106.219" y1="11.481" y2="11.481" gradientUnits="userSpaceOnUse"><stop offset="0" stop-color="#ee4851"/><stop offset="1" stop-color="#f89c1e"/></linearGradient><path fill="url(#v)" d="M102.7 23c.2-1 1.2-2.2 1.1-3.1-.1-1.2 2.1-1.7 1.8-3-.5-2.3.8-4.5.6-6.9-.2-1.9-3.1-5.1-3.9-6.4-1.4-2.3-4.7-3.3-7.2-3.5-4.6-.4-10.3 2.8-12.5 6.3-1.5 2.4-1.8 4.1-2.6 6.7-.6 1.9-2.3 5-.8 6.6.3-1.7-.2-3.7.5-5.3.8-2 2.9-3.4 3.8-5.3.9-2 .8-3.7 2.8-5 2.1-1.4 4.4-.3 5.8 1.9"/><ellipse cx="91.9" cy="15.9" fill="#F7F7F8" rx="1.5" ry="2.1" transform="rotate(25.207 91.862 15.89)"/><ellipse cx="91.1" cy="16.3" fill="#050506" rx=".6" ry=".7" transform="rotate(25.207 91.077 16.304)"/><path fill="#F7F7F8" d="M88.2 13.2c0 1.2-.7 2.1-1.5 2.1s-1.5-.9-1.6-2.1c0-1.2.7-2.1 1.5-2.1.9 0 1.6 1 1.6 2.1z"/><ellipse cx="86.4" cy="13.9" fill="#050506" rx=".6" ry=".7" transform="matrix(.9998 -.01823 .01823 .9998 -.24 1.578)"/><g fill="#70662A"><ellipse cx="5.2" cy="18.4" rx="5.2" ry="5.1"/><path d="M3 23.1L1.6 73.3s1.6 2.3 3.5 2.5C6.9 76 8.9 74 8.9 74L7 23.5l-1.5-.1-2.5-.3z"/></g><path fill="#020202" d="M60.2 71.7c-3.1.3-5.8-1.8-8.7-1.6-1.7.1-1.7.8-2.6 2.5-.7 1.2-1.5 2.3-1.9 3.5-1.5.1-5.4-.7-5.5 1.3 1.8.1 4.4.1 5.8-1 1.2-1 1.5-3.2 2.7-4.3 2.5-2.2 8.1-.1 11.3-.1"/><ellipse cx="67.8" cy="63" fill="#5E2E10" stroke="#29544D" stroke-width=".25" rx=".5" ry=".8" transform="rotate(59.596 67.772 62.967)"/><path fill="#009F84" d="M74.5 60.1c0-.2.1-1.1-.2-1.3-.4-.4-.6.3-.6.7-.8-1.4-2.7-3.7-4.6-3.6.3.6 1 1.1 1.3 1.7-.6-.2-1.1-.8-1.7-1-.7-.2-1.3-.3-2-.4-.9-.1-2-.5-2.9 0 .3.4.9.6 1.3 1-.7.3-2 0-2.8.1-.7.1-1.8 0-2.4.5.2.5.9.5 1.3.8-.4.3-1.1.3-1.5.4-.6.2-1.3.4-1.9.6-.8.3-1.8.7-1.2 1.5-.4.3-1 .4-1.4.7 0 1.1 2.5.1 2.9 0-.4.4-1 .6-1.4 1-.4.4-.7 1-1 1.5-.8 1.5.5.7 1.3.7-.8.8-1.5 1.4-1.4 2.6.4-.1.9 0 1.3-.1-.2.6-.9 1.4-.8 2.1.5-.1 1-.3 1.5-.5 0 .6-.4 1.6-.7 2.2-.2.4-1 1.2-.9 1.7.1.9 2.7.2 3.3.1-.9 1 .5 1.3 1.2 1.4.9 0 2.5 0 3.3.5-.8.6-1.8.3-2.4 1.1.5.8 3.8.2 4.6.1.5-.1.9-.2 1.4 0 .2.1.2.3.5.3.3.1 1-.2 1.3-.3.9-.3 1.7-.7 2.5-1.3.3-.2.5-.5.8-.7.4-.3.2-.1.6-.2 1.6-.2 1.8-1.6 2.4-3 .2-.4.4-.9.6-1.3.1-.4.1-.7.2-1 1.5.9 1.1-1 .8-2.1-.2-.9-.3-1.7-.4-2.5.3-.2.6-.4.9-.7-.3-.4-1.1-.6-1.5-.9.3-.3 2.1.1 2.1-.7 0-.6-2.5-.5-3-.5.4-.6 1.2-2.1.8-2.9-.6-.9-1.2 1.7-1.7 1.9-.1-.1-.2-.3-.1-.5"/><path fill="#009F84" d="M74.5 60.1c0-.2.1-1.1-.2-1.3-.4-.4-.6.3-.6.7-.8-1.4-2.7-3.7-4.6-3.6.3.6 1 1.1 1.3 1.7-.6-.2-1.1-.8-1.7-1-.7-.2-1.3-.3-2-.4-.9-.1-2-.5-2.9 0 .3.4.9.6 1.3 1-.7.3-2 0-2.8.1-.7.1-1.8 0-2.4.5.2.5.9.5 1.3.8-.4.3-1.1.3-1.5.4-.6.2-1.3.4-1.9.6-.8.3-1.8.7-1.2 1.5-.4.3-1 .4-1.4.7 0 1.1 2.5.1 2.9 0-.4.4-1 .6-1.4 1-.4.4-.7 1-1 1.5-.8 1.5.5.7 1.3.7-.8.8-1.5 1.4-1.4 2.6.4-.1.9 0 1.3-.1-.2.6-.9 1.4-.8 2.1.5-.1 1-.3 1.5-.5 0 .6-.4 1.6-.7 2.2-.2.4-1 1.2-.9 1.7.1.9 2.7.2 3.3.1-.9 1 .5 1.3 1.2 1.4.9 0 2.5 0 3.3.5-.8.6-1.8.3-2.4 1.1.5.8 3.8.2 4.6.1.5-.1.9-.2 1.4 0 .2.1.2.3.5.3.3.1 1-.2 1.3-.3.9-.3 1.7-.7 2.5-1.3.3-.2.5-.5.8-.7.4-.3.2-.1.6-.2 1.6-.2 1.8-1.6 2.4-3 .2-.4.4-.9.6-1.3.1-.4.1-.7.2-1 1.5.9 1.1-1 .8-2.1-.2-.9-.3-1.7-.4-2.5.3-.2.6-.4.9-.7-.3-.4-1.1-.6-1.5-.9.3-.3 2.1.1 2.1-.7 0-.6-2.5-.5-3-.5.4-.6 1.2-2.1.8-2.9-.6-.9-1.2 1.7-1.7 1.9-.1-.1-.2-.3-.1-.5"/><path fill="none" stroke="#29544D" stroke-width=".25" d="M60.4 63l5.7 10.4"/><path fill="#DCF0EE" d="M60.6 64c-.2.8-1.3 1.3-1.4 2.2.9 0 1.7-.3 2.7-.4m7.5-2.1c.1 0 .2 0 .2.1"/><path fill="#FFCD33" d="M72.5 69.2c-.8.5-1.8.1-2.4-.7-.5-.9-.3-2 .5-2.4.8-.5 1.8-.1 2.4.7.5.9.3 2-.5 2.4zM66 60.9c-.8.5-1.8.1-2.4-.7-.5-.9-.3-2 .5-2.4.8-.5 1.8-.1 2.4.7.5.8.3 1.9-.5 2.4zm-5.7 9.9c-.8.5-1.8.1-2.4-.7-.5-.9-.3-2 .5-2.4.8-.5 1.8-.1 2.4.7.5.9.3 1.9-.5 2.4zm11.6 4.4c-.8.5-1.8.1-2.4-.7-.5-.9-.3-2 .5-2.4.8-.5 1.8-.1 2.4.7.5.9.2 2-.5 2.4zm5.3-12.6c.1-.3.2-.7.1-1-.7-.1-1.7 0-2 0 .2-.3.5-.9.7-1.5-.4-.2-.9-.2-1.4.1-.1.2-.2.3-.3.4l-.1-.1c-.5.5-.6 1.4-.1 2.1.5.9 1.6 1.2 2.4.7.1-.1.3-.2.4-.3-.3-.1-.5-.2-.7-.4h1zm-.9 6.6c0-.1 0-.3.1-.4 1.5.9 1.1-1 .8-2.1-.1-.2-.1-.5-.1-.7-.3 0-.5.1-.8.2-.8.5-1 1.6-.5 2.4.1.3.3.5.5.6zm-7.1-13.3c.3.6 1 1.1 1.3 1.7-.6-.2-1.1-.7-1.7-1 0 .4.1.7.3 1.1.5.9 1.6 1.2 2.4.7.4-.2.7-.6.7-1.1-.9-.8-2-1.5-3-1.4z"/><path fill="#DCF0EE" d="M68.6 64.1c-1.1.7-2.6.3-3.3-.9-.7-1.2-.3-2.7.8-3.3 1.1-.7 2.6-.3 3.3.9.7 1.2.3 2.7-.8 3.3z"/><circle cx="67.3" cy="62.1" r="1.6" fill="#5E2E10" stroke="#5E2E10" stroke-width=".25" transform="rotate(59.576 67.34 62.056)"/><circle cx="68.2" cy="62.1" r=".6" fill="#FFF" transform="rotate(59.58 68.235 62.094)"/><circle cx="66.5" cy="61.8" r=".6" fill="#FFF" transform="rotate(59.58 66.517 61.815)"/><path fill="#DCF0EE" d="M72.4 70.2c-1.1.7-2.6.3-3.3-.9-.7-1.2-.3-2.7.8-3.3 1.1-.7 2.6-.3 3.3.9.7 1.1.3 2.6-.8 3.3z"/><path fill="#5E2E10" stroke="#5E2E10" stroke-width=".25" d="M72 69.5c-.7.4-1.7.2-2.1-.6-.4-.8-.2-1.7.5-2.2.7-.4 1.7-.2 2.1.6.5.8.2 1.7-.5 2.2z"/><circle cx="72.1" cy="68.1" r=".6" fill="#FFF" transform="rotate(59.576 72.062 68.14)"/><circle cx="70.3" cy="67.9" r=".6" fill="#FFF" transform="rotate(59.596 70.34 67.848)"/><path fill="#020202" d="M55.6 67.6c-3.1.3-5.8-1.8-8.7-1.6-1.7.1-1.7.8-2.6 2.5-.7 1.2-1.5 2.3-1.9 3.5-1.5.1-5.4-.7-5.5 1.3 1.8.1 4.4.1 5.8-1 1.2-1 1.5-3.2 2.7-4.3 2.5-2.2 8.1-.1 11.3-.1m14.8 8c1.7 2 3.2 4.9 4.7 7.1-1-.1-1.6.4-1.7 1.3.3-.1.8-.2 1.1-.4-.4.5-.5 1.1-.6 1.7.6-.2.8-.1 1.3-.7 0-.2 0-.2 0 0 1 1.7 3.4-.3 1.4-.6 1.4.7 2.1-.9.7-1.6-1.4-.7-2.1.7-3.4-.9-1.4-1.7-1.5-5.9-2.4-6.9M56.1 63.6c0 .8.8.9 1.3-.1.7.6 1.3-.3 1.5-1.2-1-.2-2 0-2.9.2"/><path fill="#070808" d="M57.3 73c-.5.3-.8.8-.8 1.4 1.3.4 2.5 0 3.7-.1 0 .3.3.6.2 1.1 1 .1 2.1 0 3.2 0-.3.1-2.1.8-1.5 1.6.4.5 2.6 0 3.2.1 2 .2 3.9.3 5.9 0 2.7-.4 2.7.7 3.9 2.8.5.9.8 1.6.8 2.6 0 .9-.8 2.1.8 2.1-.1.6-.4 1-.6 1.5.7 0 1.2-.4 1.8-.6-.1 1.1 1.5 1.1 1.6.2-.7-.5-1.6-1-2.3-.4.3-.3.4-.8.6-1.2-.3 0-.8-.1-1.1-.1 1.7-1.5.5-1.9-.6-3.5-.9-1.3-.9-3.4-1.8-4.5-1.5-1.6-3.1.3-4.7.1-1-.1-1.4-.6-2.6-.4-1.1.2-1.8.7-3 .6.4-.3 2.3-.3 2.2-1.1-.1-.9-1.8-.7-2.4-.8-1.1-.2-1.8-.6-2.5-.9-.8-.4-1.6-.4-2.8-.5 1.1-3.6-5.7-1.9-7.4-.4-1.2 1-1.4 2.9-2.6 3.6-1.3.8-3.4-.1-4.6 1 2.9 1.5 5.2-.2 6.9-2.3 1-1.2 5.6-5.3 6-1.7" opacity=".08"/><path fill="#FFCD33" d="M64.7 61.3c-2.2.5-4-2.1-6.2-1.5-4.9 1.3-7.4 1.4-12 .3-4.3-1.1-7.1.1-11.1 1.1s-8-.8-12-.4c-3.5.4-7.5 0-11-.4-5.1-.6-3.8-1.7-4.4-5.8-.8-5.7-1.8-11.3-2.3-17-.5-5.3-.6-7.8 4.6-10.1 1.8-.8 4.1-1.1 6.1-1.8 3.8-1.3 7.3-2.6 11.1-3.4 7.6-1.5 15.1-3.2 23-2.8 4.5.2 7.6 1.3 9.9 5.5 1.2 2.1 1.6 3.7 3.1 5.6 1.9 2.3 1.6 3 2.2 5.8.9 3.8 3 7.1 3.4 11.1.3 2.9 1.8 6.7 1.2 9.5-.6 2.3-2.8 3.6-5.6 4.3z"/><path fill="#F9BD22" d="M50 22.5c-3.6-2-8.6 1.6-10.6 4.4-1.1 1.6-1.5 3.5-2 5.4-.6 2.2-1.6 4-2.3 6.2 4.2.3 6.2-9.2 8.4-12 2.9-3.6 9.1-.8 12.3-4.9-1.8.2-3.6.9-5.6.4m-5 12.2c1.5.7 4.9 2 3.8 4.1-.8 1.4-4.8 1.2-6.2 1.3-3.8.4-6.5 3.9-10.5 5.4.4-1.7 3.5-2.9 4.9-3.8 2.1-1.4 3.1-1.6 5.8-1.8 1.6-.1 5.7.3 4.1-2.3-.8-1.4-5.4-.9-3.6-3.9"/><path fill="#F9BD22" d="M41.9 37.5c-5.5-.4-10.7 2.4-15.8 3.9-2.8.9-5.3 2-8.4 1.8-3.1-.2-5.4-1.6-8.2-2.7 2.8 0 5.7 1.7 8.7 1.8 3.2.1 5.9-.8 9-1.5 5.8-1.4 11.8-3.8 17.9-3-1.6 1.9-4.4.6-6.5.4"/><path fill="#FFF" stroke="#E4E4E4" d="M81.3 45.3c-.2-3.3 1.8-6 1.8-9.4 0-3.5 2.1-5.6 2.6-9 .4-2.7 1-7.3-.5-9.8-1.5-2.6-6.1-3-8.6-1.8-3.3 1.6-6.1 4-10 3.8-1.5-.1-4.2-1-5.6-.4-1.6.6-1.7 2.6-4 2.2-.3-.8-1-1.1-1.8-.9-.7 3.1 2.8 6.4 4.1 8.8 1.6 2.9 2.2 5.7 3.3 8.8 1 2.9 3.3 5.6 4.1 8.4.6 1.9-.2 8.2 1.3 9.2.6.4 2.4 0 3.2.1 1.1.1 2.2.5 3.2.6 2.1.1 3.6-.7 5.2-2s2.5-2.9 2.6-5c.2-1.9-2-4-.2-5.6"/><path fill="#EA66A5" d="M67.5 27.9c-.1-.3-.5-.5-.9-.4-.3.1-.4.4-.9.7.1-.5.4-.7.4-1 0-.4-.3-.7-.6-.7s-.6.3-.6.7c0 .3.3.5.4 1-.5-.2-.5-.6-.9-.7-.4-.1-.8 0-.9.4-.1.3.1.7.5.8.3.1.6-.1 1.1-.1-.4.4-.7.3-.9.6-.2.3-.2.7.1.9.3.2.7.1.9-.2.2-.3 0-.6.3-1 .2.5.1.8.3 1 .2.3.7.4.9.2.3-.2.3-.6.1-.9-.2-.3-.5-.2-.9-.6.5-.1.8.2 1.1.1.4-.1.6-.5.5-.8z"/><path fill="#FBDDDD" d="M65.6 26.6c-.3 0-.5.3-.5.6 0 .1.1.2.1.4.1.2.2.3.3.6v.3l-.2-.1c-.3-.1-.4-.3-.5-.4-.1-.1-.2-.2-.3-.2-.2-.1-.4 0-.5 0-.1 0-.2.1-.2.2-.1.3.1.5.4.6h.4c.2 0 .4-.1.7 0h.3l-.2.2c-.2.2-.4.3-.6.4-.1.1-.3.1-.3.2-.1.1-.2.3-.1.5 0 .1.1.2.2.3.1.1.2.1.3.1.2 0 .3-.1.4-.3.1-.1.1-.2.1-.4s0-.4.2-.7l.1-.2.1.2c.1.3.2.5.2.7 0 .2 0 .3.1.4.1.1.3.2.4.3.1 0 .2 0 .3-.1.1-.1.2-.2.2-.3 0-.2 0-.3-.1-.5-.1-.1-.2-.1-.3-.2-.2-.1-.4-.2-.6-.4l-.2-.2h1c.2 0 .3.1.4 0 .2-.1.3-.2.4-.3 0-.1.1-.2 0-.3 0-.1-.1-.2-.2-.2-.1-.1-.3-.1-.5 0-.1 0-.2.1-.3.2-.1.1-.3.3-.5.4l-.2.1v-.3c0-.3.2-.5.3-.6.1-.1.1-.2.1-.4-.3-.3-.5-.6-.7-.6z"/><circle cx="65.6" cy="28.5" r=".2" fill="#FFF"/><path fill="#EA66A5" d="M73.1 38.7c-.1-.3-.5-.5-.9-.4-.3.1-.4.4-.9.7.1-.5.4-.7.4-1 0-.4-.3-.7-.6-.7s-.6.3-.6.7c0 .3.3.5.4 1-.5-.2-.5-.6-.9-.7-.4-.1-.8 0-.9.4-.1.3.1.7.5.8.3.1.6-.1 1.1-.1-.4.4-.7.3-.9.6-.2.3-.2.7.1.9.3.2.7.1.9-.2.2-.3 0-.6.3-1 .2.5.1.8.3 1 .2.3.7.4.9.2.3-.2.3-.6.1-.9-.2-.3-.5-.2-.9-.6.5-.1.8.2 1.1.1.4-.1.6-.5.5-.8z"/><path fill="#FBDDDD" d="M71.1 37.5c-.3 0-.5.3-.5.6 0 .1.1.2.1.4.1.2.2.3.3.6v.3l-.2-.1c-.3-.1-.4-.3-.5-.4-.1-.1-.2-.2-.3-.2-.2-.1-.4 0-.5 0-.1 0-.2.1-.2.2-.1.3.1.5.4.6h.4c.2 0 .4-.1.7 0h.3l-.2.2c-.2.2-.4.3-.6.4-.2-.1-.3-.1-.4 0-.1.1-.2.3-.1.5 0 .1.1.2.2.3.1.1.2.1.3.1.2 0 .3-.1.4-.3.1-.1.1-.2.1-.4s0-.4.2-.7l.1-.2.1.2c.1.3.2.5.2.7 0 .2 0 .3.1.4.1.1.3.2.4.3.1 0 .2 0 .3-.1.1-.1.2-.2.2-.3 0-.2 0-.3-.1-.5-.1-.1-.2-.1-.3-.2-.2-.1-.4-.2-.6-.4l-.2-.2h1c.2 0 .3.1.4 0 .2-.1.3-.2.4-.3 0-.1.1-.2 0-.3 0-.1-.1-.2-.2-.2-.1-.1-.3-.1-.5 0-.1 0-.2.1-.3.2-.1.1-.3.3-.5.4l-.2.1v-.3c0-.3.2-.5.3-.6.1-.1.1-.2.1-.4-.1-.2-.3-.4-.6-.4z"/><circle cx="71.2" cy="39.3" r=".2" fill="#FFF"/><path fill="#EA66A5" d="M72.9 21.9c-.1-.3-.5-.5-.9-.4-.3.1-.4.4-.9.7.1-.5.4-.7.4-1 0-.4-.3-.7-.6-.7s-.6.3-.6.7c0 .3.3.5.4 1-.5-.2-.5-.6-.9-.7-.4-.1-.8 0-.9.4-.1.3.1.7.5.8.3.1.6-.1 1.1-.1-.4.4-.7.3-.9.6-.2.3-.2.7.1.9.3.2.7.1.9-.2.2-.3 0-.6.3-1 .2.5.1.8.3 1 .2.3.7.4.9.2.3-.2.3-.6.1-.9-.2-.2-.5-.2-.9-.5.5-.1.8.2 1.1.1.4-.2.6-.5.5-.9z"/><path fill="#FBDDDD" d="M70.9 20.7c-.3 0-.5.3-.5.6 0 .1.1.2.1.4.1.2.2.3.3.6v.3l-.2-.1c-.3-.1-.4-.3-.5-.4-.1-.1-.2-.2-.3-.2-.2-.1-.4 0-.5 0-.1 0-.2.1-.2.2-.1.3.1.5.4.6h.4c.2 0 .4-.1.7 0h.3l-.2.2c-.2.2-.4.3-.6.4-.1.1-.3.1-.3.2-.1.1-.2.3-.1.5 0 .1.1.2.2.3.1.1.2.1.3.1.2 0 .3-.1.4-.3.1-.1.1-.2.1-.4s0-.4.2-.7l.1-.2.1.2c.1.3.2.5.2.7 0 .2 0 .3.1.4.1.1.3.2.4.3.1 0 .2 0 .3-.1.1-.1.2-.2.2-.3 0-.2 0-.3-.1-.5-.1-.1-.2-.1-.3-.2-.2-.1-.4-.2-.6-.4l-.3-.3h1c.2 0 .3.1.4 0 .2-.1.3-.2.4-.3 0-.1.1-.2 0-.3 0-.1-.1-.2-.2-.2-.1-.1-.3-.1-.5 0-.1 0-.2.1-.3.2-.1.1-.3.3-.5.4l-.3.1v-.3c0-.3.2-.5.3-.6.1-.1.1-.2.1-.4 0-.3-.2-.5-.5-.5z"/><circle cx="71" cy="22.6" r=".2" fill="#FFF"/><path fill="#EA66A5" d="M79.7 48.5c-.1-.3-.5-.5-.9-.4-.3.1-.4.4-.9.7.1-.5.4-.7.4-1 0-.4-.3-.7-.6-.7s-.6.3-.6.7c0 .3.3.5.4 1-.5-.2-.5-.6-.9-.7-.4-.1-.8 0-.9.4-.1.3.1.7.5.8.3.1.6-.1 1.1-.1-.4.4-.7.3-.9.6-.2.3-.2.7.1.9.3.2.7.1.9-.2.2-.3 0-.6.3-1 .2.5.1.8.3 1 .2.3.7.4.9.2.3-.2.3-.6.1-.9-.2-.3-.5-.2-.9-.6.5-.1.8.2 1.1.1.3-.1.6-.5.5-.8z"/><path fill="#FBDDDD" d="M77.7 47.2c-.3 0-.5.3-.5.6 0 .1.1.2.1.4.1.2.2.3.3.6v.3l-.2-.1c-.3-.1-.4-.3-.5-.4-.1-.1-.2-.2-.3-.2-.2-.1-.4 0-.5 0-.1 0-.2.1-.2.2-.1.3.1.5.4.6h.4c.2 0 .4-.1.7 0h.3l-.2.2c-.2.2-.4.3-.6.4-.1.1-.3.1-.3.2-.1.1-.2.3-.1.5 0 .1.1.2.2.3.1.1.2.1.3.1.2 0 .3-.1.4-.3.1-.1.1-.2.1-.4s0-.4.2-.7l.1-.2.1.2c.1.3.2.5.2.7 0 .2 0 .3.1.4.1.1.3.2.4.3.1 0 .2 0 .3-.1.1-.1.2-.2.2-.3 0-.2 0-.3-.1-.5-.1-.1-.2-.1-.3-.2-.2-.1-.4-.2-.6-.4l-.2-.2h1c.2 0 .3.1.4 0 .2-.1.3-.2.4-.3 0-.1.1-.2 0-.3 0-.1-.1-.2-.2-.2-.1-.1-.3-.1-.5 0-.1 0-.2.1-.3.2-.1.1-.3.3-.5.4l-.2.1v-.3c.1-.3.2-.5.3-.6.1-.1.1-.2.1-.4-.2-.3-.4-.6-.7-.6z"/><circle cx="77.7" cy="49.1" r=".2" fill="#FFF"/><path fill="#EA66A5" d="M74.9 29.7c-.1-.3-.5-.5-.9-.4-.3.1-.4.4-.9.7.1-.5.4-.7.4-1 0-.4-.3-.7-.6-.7s-.6.3-.6.7c0 .3.3.5.4 1-.5-.2-.5-.6-.9-.7-.4-.1-.8 0-.9.4-.1.3.1.7.5.8.3.1.6-.1 1.1-.1-.4.4-.7.3-.9.6-.2.3-.2.7.1.9.3.2.7.1.9-.2.2-.3 0-.6.3-1 .2.5.1.8.3 1 .2.3.7.4.9.2.3-.2.3-.6.1-.9-.2-.3-.5-.2-.9-.6.5-.1.8.2 1.1.1.4-.1.6-.4.5-.8z"/><path fill="#FBDDDD" d="M73 28.5c-.3 0-.5.3-.5.6 0 .1.1.2.1.4.1.2.2.3.3.6v.3l-.2-.1c-.3-.1-.4-.3-.5-.4-.1-.1-.2-.2-.3-.2-.2-.1-.4 0-.5 0-.1 0-.2.1-.2.2-.1.3.1.5.4.6h.4c.2 0 .4-.1.7 0h.3l-.2.2c-.2.2-.4.3-.6.4-.2-.1-.3-.1-.4 0-.1.1-.2.3-.1.5 0 .1.1.2.2.3.1.1.2.1.3.1.2 0 .3-.1.4-.3.1-.1.1-.2.1-.4s0-.4.2-.7l.1-.2.1.2c.1.3.2.5.2.7 0 .2 0 .3.1.4.1.1.3.2.4.3.1 0 .2 0 .3-.1.1-.1.2-.2.2-.3 0-.2 0-.3-.1-.5-.1-.1-.2-.1-.4-.2s-.4-.2-.6-.4l-.2-.1h1c.2 0 .3.1.4 0 .2-.1.3-.2.4-.3 0-.1.1-.2 0-.3 0-.1-.1-.2-.2-.2-.1-.1-.3-.1-.5 0-.1 0-.2.1-.3.2-.1.1-.3.3-.5.4l-.3.1V30c0-.3.2-.5.3-.6.1-.1.1-.2.1-.4 0-.3-.2-.5-.4-.5z"/><circle cx="73" cy="30.4" r=".2" fill="#FFF"/><path fill="#EA66A5" d="M84.3 21.7c-.1-.3-.5-.5-.9-.4-.4.1-.4.4-.9.7.1-.5.4-.7.4-1 0-.4-.3-.7-.6-.7s-.6.3-.6.7c0 .3.3.5.4 1-.5-.2-.5-.6-.9-.7-.4-.1-.8 0-.9.4-.1.3.1.7.5.8.3.1.6-.1 1.1-.1-.4.4-.7.3-.9.6-.2.3-.2.7.1.9.3.2.7.1.9-.2.2-.3 0-.6.3-1 .2.5.1.8.3 1 .2.3.7.4.9.2.3-.2.3-.6.1-.9-.2-.3-.5-.2-.9-.6.5-.1.8.2 1.1.1.3-.2.6-.5.5-.8z"/><path fill="#FBDDDD" d="M82.3 20.4c-.3 0-.5.3-.5.6 0 .1.1.2.1.4.1.2.2.3.3.6v.3l-.2-.2c-.3-.1-.4-.3-.5-.4-.1-.1-.2-.2-.3-.2-.2-.1-.4 0-.5 0-.1 0-.2.1-.2.2-.1.3.1.5.4.6h.4c.2 0 .4-.1.7 0h.3l-.3.2c-.2.2-.4.3-.6.4-.1.1-.3.1-.3.2-.1.1-.1.3-.1.5 0 .1.1.2.2.3.1.1.2.1.3.1.2 0 .3-.1.4-.3.1-.1.1-.2.1-.4s0-.4.2-.7l.1-.2.1.2c.1.3.2.5.2.7 0 .2 0 .3.1.4.1.1.3.2.4.3.1 0 .2 0 .3-.1.1-.1.2-.2.2-.3 0-.2 0-.3-.1-.5-.1-.1-.2-.1-.3-.2-.2-.1-.4-.2-.6-.4l-.2-.2h1c.2 0 .3.1.4 0 .2-.1.3-.2.4-.3 0-.1.1-.2 0-.3 0-.1-.1-.2-.2-.2-.1-.1-.3-.1-.5 0-.1 0-.2.1-.3.2-.1.1-.3.3-.5.4l-.2.1v-.3c.1-.3.2-.5.3-.6.1-.1.1-.2.1-.4-.1-.2-.3-.5-.6-.5z"/><circle cx="82.3" cy="22.3" r=".2" fill="#FFF"/><path fill="#EA66A5" d="M63.9 21.1c-.1-.3-.5-.5-.9-.4-.3.1-.4.4-.9.7.1-.5.4-.7.4-1 0-.4-.3-.7-.6-.7s-.6.3-.6.7c0 .3.3.5.4 1-.5-.2-.5-.6-.9-.7-.4-.1-.8 0-.9.4-.1.3.1.7.5.8.3.1.6-.1 1.1-.1-.4.4-.7.3-.9.6-.2.3-.2.7.1.9.3.2.7.1.9-.2.2-.3 0-.6.3-1 .2.5.1.8.3 1 .2.3.7.4.9.2.3-.2.3-.6.1-.9-.2-.3-.5-.2-.9-.6.5-.1.8.2 1.1.1.4-.2.6-.5.5-.8z"/><path fill="#FBDDDD" d="M61.9 19.8c-.3 0-.5.3-.5.6 0 .1.1.2.1.4.1.2.2.3.3.6v.3l-.2-.1c-.3-.1-.4-.3-.5-.4-.1-.1-.2-.2-.3-.2-.2-.1-.4 0-.5 0-.1 0-.2.1-.2.2-.1.3.1.5.4.6h.4c.2 0 .4-.1.7 0h.3l-.2.2c-.2.2-.4.3-.6.4-.1.1-.3.1-.3.2-.1.1-.2.3-.1.5 0 .1.1.2.2.3.1.1.2.1.3.1.2 0 .3-.1.4-.3.1-.1.1-.2.1-.4s0-.4.2-.7l.1-.2v.1c.1.3.2.5.2.7 0 .2 0 .3.1.4.1.1.3.2.4.3.1 0 .2 0 .3-.1.1-.1.2-.2.2-.3 0-.2 0-.3-.1-.5-.1-.1-.2-.1-.3-.2-.2-.1-.4-.2-.6-.4l-.2-.2h1c.2 0 .3.1.4 0 .2-.1.3-.2.4-.3 0-.1.1-.2 0-.3 0-.1-.1-.2-.2-.2-.1-.1-.3-.1-.5 0-.1 0-.2.1-.3.2-.1.1-.3.3-.5.4l-.2.1v-.3c0-.3.2-.5.3-.6.1-.1.1-.2.1-.4-.1-.2-.3-.5-.6-.5z"/><circle cx="61.9" cy="21.7" r=".2" fill="#FFF"/><linearGradient id="w" x1="2649.489" x2="2657.921" y1="3985.197" y2="3985.197" gradientTransform="matrix(.2158 -.6156 .5202 .2052 -2566.805 831.917)" gradientUnits="userSpaceOnUse"><stop offset="0" stop-color="#ffedc4"/><stop offset=".318" stop-color="#ffe6b6"/><stop offset=".914" stop-color="#ffd592"/><stop offset="1" stop-color="#ffd28c"/></linearGradient><path fill="url(#w)" d="M76.4 15c-.3.8-.6 2.8.3 3.2 1.1.5 1.2-1.7 1.2-2.4.1.6-.2 2.4.8 2.3 1.1-.2.6-2 .8-2.6.2.7.1 3.1 1.4 2.4 1-.6.5-2.5.2-3.2-.9-1.9-4.7-1.5-4.8 1.1"/><linearGradient id="x" x1="1899.318" x2="1907.749" y1="-14769.376" y2="-14769.376" gradientTransform="matrix(.4316 .507 -.4637 .3334 -7585.87 3982.02)" gradientUnits="userSpaceOnUse"><stop offset="0" stop-color="#ffedc4"/><stop offset=".318" stop-color="#ffe6b6"/><stop offset=".914" stop-color="#ffd592"/><stop offset="1" stop-color="#ffd28c"/></linearGradient><path fill="url(#x)" d="M86.6 21.6c-.6-.7-2.1-1.9-3-1.4-1.1.7.8 1.9 1.5 2.3-.6-.3-2.1-1.4-2.5-.5-.4 1 1.5 1.5 1.9 2-.7-.3-2.9-1.5-2.9-.1 0 1.2 2 1.7 2.8 1.8 2.2.3 3.8-3.2 1.6-4.6"/><path fill="#DC1079" d="M85 26.7c1-1.2 1.4-3.1 1.6-4.7 2.6.2-.1 3.9-1.1 4.7"/><path fill="#70662A" d="M8.9 54.5h100v7.2H8.9z"/><path fill="none" d="M23.9 66.2h11.3v7.9H23.9z"/><path fill="#FFCC05" stroke="#DCA927" d="M23.9 67.8h7.3v-1.6l4 3.9-4 4v-1.6h-7.3z"/></g></switch></svg>
