<svg xmlns="http://www.w3.org/2000/svg" xmlns:xlink="http://www.w3.org/1999/xlink" version="1.0" viewBox="0 0 218 129.3"><switch><g><symbol id="m" viewBox="-24.2 -23.4 48.4 46.8"><path fill="#EA66A5" d="M23.9 6c-1.3 4-6.1 5.9-10.8 4.4C9.1 9.1 8.4 5 2.7 2c1.1 6.4 4.8 8.3 4.8 12.5 0 4.9-3.3 8.9-7.5 8.9-4.1 0-7.5-4-7.5-8.9 0-4.2 3.7-6.1 4.8-12.5-5.7 3-6.4 7.1-10.4 8.4-4.7 1.5-9.5-.4-10.8-4.4v-.1C-25.2 2-22.4-2.4-17.7-4c4-1.3 7 1.6 13.4.7-4.6-4.5-8.8-3.9-11.2-7.3-2.9-4-2.5-9.2.8-11.6h.1c3.3-2.4 8.4-1.2 11.3 2.8 2.3 3.5.4 7.2 3.3 13 2.9-5.8 1-9.5 3.5-12.9 2.9-4 7.9-5.2 11.3-2.8h.1c3.3 2.4 3.7 7.6.8 11.6C13.1-7.1 9-7.7 4.4-3.2c6.4.9 9.4-2 13.4-.7C22.4-2.4 25.2 2 23.9 6z"/><path fill="#FBDDDD" d="M0 21.7c-3.2 0-5.8-3.2-5.8-7.2 0-1.6.7-2.8 1.7-4.5C-3 8.1-1.7 5.8-1 2.2l.6-3.4-3 1.6c-3.2 1.7-5 3.7-6.4 5.3-1.3 1.5-2.2 2.5-3.7 3-2.1.7-4.3.6-6-.3-.9-.5-2.1-1.4-2.6-2.9-1-3.1 1.3-6.6 5.1-7.8 1.5-.5 2.9-.2 4.8.2 2.1.5 4.7 1.1 8.3.5L-.8-2l-2.5-2.4c-2.6-2.5-5.1-3.6-7-4.4-1.8-.8-3.1-1.3-4-2.6-1.3-1.8-1.9-3.9-1.5-5.8.2-1 .6-2.4 2-3.4s2.9-1 3.9-.9c1.9.3 3.8 1.5 5.1 3.3.9 1.3 1.1 2.7 1.3 4.6.2 2.2.5 4.8 2.1 8.1L0-2.6l1.5-3.1c1.6-3.2 1.8-5.9 2-8.1.2-1.9.3-3.3 1.3-4.6 1.3-1.8 3.1-3 5.1-3.3 1-.2 2.5-.1 3.9.8 1.4 1 1.9 2.4 2 3.5.3 1.9-.3 4.1-1.6 5.8-.9 1.3-2.2 1.8-4 2.6-2 .9-4.5 1.9-7 4.4L.8-2l3.4.5c3.6.5 6.2-.1 8.3-.5 1.9-.4 3.3-.7 4.8-.2 2.1.7 3.8 2.1 4.7 3.8.5.9.9 2.3.4 3.9-.5 1.7-1.7 2.5-2.6 3-1.7.9-3.9 1-6 .3-1.5-.5-2.4-1.5-3.7-3C8.5 4.2 6.7 2.1 3.5.5l-3-1.6.5 3.3c.7 3.6 2 5.9 3.1 7.8 1 1.7 1.7 2.9 1.7 4.5 0 3.9-2.6 7.2-5.8 7.2z"/><path fill="#FFF" d="M2.9-1.7c0-1.4-1.1-2.5-2.5-2.5C-.9-4.2-2-3.1-2-1.7S-.9.8.5.8C1.8.8 2.9-.3 2.9-1.7z"/></symbol><symbol id="p" viewBox="-30.8 -37.9 61.6 75.8"><path fill="#007647" d="M6.4-1.2c-.2.3-.6.3-.9 0-.1-.1-2-2.1-3.7-5.6.3 10.3 1.3 19.3 1.3 19.5 0 .4-.2.8-.6.8s-.7-.2-.7-.6c0-.2-1.2-11-1.4-22.5C-.7-6-2.1-4.1-2.2-4c-.2.3-.6.3-.9.1-.3-.3-.3-.7-.1-1 0 0 2.5-3.5 3.6-10.4.1-3.9.3-7.7.8-11 .1-.4.5-.7.8-.6.4.1.6.4.5.8-.1.9-.2 1.7-.3 2.7 0 .1.1.2.1.3.1 3-.1 5.7-.5 8v4.7c1.7 5.1 4.6 8.1 4.6 8.1.2.4.3.8 0 1.1z"/><path fill="none" d="M10.8 8.1c-.4.8-1 1.3-1.3 1.1-.4-.3-.3-1.2.1-2s1-1.3 1.3-1c.3.2.3 1.1-.1 1.9zm7.5-1c.6-.6 1.3-1 1.6-.7.3.3 0 1-.6 1.7s-1.3 1-1.6.7c-.3-.4-.1-1.1.6-1.7zm8.7 5.6c-.2 0-.3-.1-.5-.1.1 0 .3 0 .5.1zm-6.7-.1c.2.9 0 1.7-.3 1.7-.4 0-.8-.8-1-1.7-.1-.9.1-1.7.4-1.7.3 0 .7.8.9 1.7zM10.5 2.4c-.3-.3.1-1 .7-1.7.6-.6 1.3-.9 1.6-.6.2.3-.1 1-.7 1.7-.7.7-1.4.9-1.6.6zm4.1 7.1c.4.1.7.9.7 1.9.1 1-.1 1.7-.5 1.6-.4-.1-.8-.9-.8-1.9s.3-1.7.6-1.6zM16.9 3c.2.3-.1 1-.8 1.6-.7.6-1.4.8-1.6.5-.2-.3.1-1 .8-1.6.6-.6 1.3-.8 1.6-.5z"/><path fill="#83B03E" d="M26.3 12.6c-.1.1-.2.1-.3.2-.3.2-.2.6.2 1.1.6.7.9 1 1.5 1.6-.9.5-2 .9-3.2 1.2-.8-1.4-1.1-2.1-1.7-3.5-.2-.5-.6-.8-.9-.8-.1 0-.2 0-.3.1-.3.1-.4.5-.2 1 .6 1.4.9 2.1 1.6 3.5-1 .2-2.2.2-3.3.1-.8-2-1.1-3-1.7-5.1-.1-.5-.5-.9-.8-.9h-.3c-.3 0-.5.4-.4.9.5 1.9.8 2.9 1.5 4.8-1.4-.3-2.9-.8-4.3-1.7-.2-1.9-.2-2.8-.2-4.7 0-.5-.3-1-.6-1.1-.1 0-.2-.1-.3-.1-.3-.1-.6.2-.6.8v3.9c-1.8-1.4-3.2-3.3-4.3-5.4.5-1 .7-1.6 1.2-2.6.2-.4.1-1-.1-1.2-.4.1-.4 0-.6-.1-.2-.2-.7-.1-.9.3-.3.7-.5 1-.8 1.6-.9-3.1-1.7-6-1.4-9.3h.1c5.7 7.9 12.5 12.9 21.3 15.3-.1.1-.2.1-.2.1zM14 11.1c0 1 .4 1.8.8 1.9.4.1.6-.7.5-1.6-.1-1-.4-1.8-.7-1.9-.3-.1-.6.6-.6 1.6zM9.6 7.2c-.4.8-.5 1.7-.1 2s.9-.2 1.3-1.1c.4-.8.4-1.7.1-1.9-.3-.3-.9.2-1.3 1zm9.8 3.7c-.4 0-.6.7-.4 1.7.1.9.6 1.7 1 1.7s.5-.7.3-1.7c-.2-.9-.6-1.7-.9-1.7z"/><path fill="#007647" d="M14.6 3.2c1.3-.9 1.9-1.4 3.1-2.4.7.3 1.3.6 2 1 .4.2.7.5 1 .7C19.3 3.6 18.5 4.1 17 5c-.4.2-.6.6-.4.9.1.1.1.2.2.3.2.3.7.3 1 .1 1.6-1 2.3-1.5 3.8-2.7.1-.1.2-.2.2-.3.7.6 1.4 1.2 2 1.9-1.2 1-1.8 1.5-3.1 2.4-.4.3-.5.7-.3 1 .1.1.1.2.2.3.2.3.7.3 1.1 0 1.3-1 1.9-1.5 3.1-2.6.8.8 1.5 1.7 2.2 2.5-.9.6-1.4.9-2.3 1.4-.4.2-.6.6-.5.9.1.1.1.2.2.3.2.3.7.3 1.1.1 1-.6 1.5-.9 2.4-1.5 1.5 1.7 2.6 3.1 2.9 3.4-1.5-.1-2.3-.3-3.8-.6-.2-.1-.4-.1-.5-.1-8.8-2.6-15.7-7.5-21.3-15.5.4.1 2.3.5 4.6 1.1-.3.3-.4.4-.7.6-.3.3-.4.8-.2 1.1.1.1.1.2.2.3.2.3.7.2 1-.1l1.4-1.4c1.5.4 3.2.8 4.7 1.4-1 .7-1.5 1.1-2.5 1.7-.4.2-.5.7-.4 1 .1.1.1.2.2.3.2.3.7.3 1.1 0zm3 5.5c.3.3 1 0 1.6-.7s.8-1.4.6-1.7c-.3-.3-.9.1-1.6.7-.6.7-.8 1.4-.6 1.7zM12.7.2c-.2-.3-.9 0-1.6.6-.6.6-.9 1.3-.7 1.7.3.3 1 0 1.6-.6.6-.7.9-1.5.7-1.7zM14.4 5c.2.3 1 .1 1.6-.5.7-.6 1-1.3.8-1.6s-.9 0-1.6.5c-.6.7-1 1.3-.8 1.6z"/><path fill="#83B03E" d="M30.8 13.4s-.6.6-1.8 1.3c-.7-.6-1-1-1.6-1.7-.1-.1-.3-.3-.4-.3 1.5.3 2.2.4 3.8.7 0-.1 0 0 0 0z"/><path fill="none" d="M.7 20.8c-.7.3-1.5.2-1.5-.1-.1-.3.5-.8 1.3-1.1.8-.3 1.5-.2 1.6.1 0 .4-.6.8-1.4 1.1zm5.4 4.3c.8.1 1.4.5 1.4.8s-.7.5-1.5.4-1.4-.5-1.4-.8.7-.5 1.5-.4zm-.5 9.4l-.1-.5c.1.1.1.3.1.5zM3 29.2c-.6.5-1.3.7-1.5.4-.2-.3.2-.9.9-1.4.6-.5 1.3-.7 1.5-.4.2.3-.2.9-.9 1.4zm.9-12c0-.3.6-.7 1.5-.7.8-.1 1.5.2 1.5.5s-.6.7-1.5.7c-.8 0-1.5-.2-1.5-.5zm-1.6 6.6c.2.3-.2.9-.9 1.4-.6.6-1.3.8-1.4.5-.2-.3.2-.9.9-1.4.6-.5 1.2-.7 1.4-.5zm5.8-2.1c0 .3-.7.5-1.5.4s-1.4-.5-1.4-.8.7-.5 1.5-.4c.8.1 1.4.5 1.4.8z"/><path fill="#83B03E" d="M5.4 33.9l-.2-.2c-.2-.2-.6 0-.8.5l-.9 1.7c-.6-.6-1.3-1.3-2-2.1l2.2-2.5c.3-.3.4-.8.2-1l-.2-.2c-.3-.2-.7-.1-1 .2L.6 32.7c-.5-.7-1-1.4-1.4-2.2l3.1-3.3c.3-.3.4-.8.2-1l-.2-.2c-.2-.2-.6-.1-.9.2l-2.8 3c-.5-1-.8-2.1-1-3.3l3.2-2.4c.4-.3.5-.7.4-.9l-.2-.2c-.1-.3-.6-.2-.9 0l-2.7 2c-.1-1.7.2-3.5.6-5l2.5-.9c.4-.1.7-.5.6-.8l-.1-.3c-.1-.3-.5-.4-.9-.3l-1.5.6c1.4-3.9 3.6-6.6 3.6-6.6h.1l3.1 22.8zM.8 24.3c-.6.5-1 1.1-.9 1.4.2.3.8.1 1.5-.4.6-.5 1-1.1.9-1.4-.2-.3-.8-.1-1.5.4zm-.4-4.7c-.8.3-1.4.8-1.3 1.1.1.3.8.4 1.6.1S2.1 20 2 19.7c-.1-.3-.8-.3-1.6-.1zm3.5 8.2c-.2-.3-.8-.1-1.5.4-.6.5-1 1.1-.9 1.4.2.3.8.1 1.5-.4s1.1-1.1.9-1.4z"/><path fill="#007647" d="M6.4 20.2l3.7.7c.2.7.4 1.5.6 2.3.1.4.1.9.1 1.3l-4-1.6c-.4-.2-.8-.1-.9.2l-.1.3c-.1.3.2.7.6.8l4.1 1.6c.1 0 .2.1.3.1-.1 1-.2 1.9-.4 2.8L7 27.2c-.4-.2-.8-.1-.9.2l-.1.3c-.1.3.1.7.5.8l3.5 1.6c-.3 1.1-.7 2.1-1.2 3l-2-1.6c-.4-.3-.8-.3-.9-.1l-.1.2c-.2.3 0 .7.4 1l2.1 1.6c-1 1.9-1.9 3.1-2.1 3.4l-.5-3.3c0-.2 0-.4-.1-.5L2.2 11.1c.3.2 1.7 1.2 3.4 2.8l-.8.1c-.4 0-.7.3-.7.6L4 15c0 .3.4.5.8.5l1.9-.2c1 1.2 2 2.6 2.7 4.2l-2.8-.6c-.4-.1-.8.1-.8.4v.3c-.1.2.2.5.6.6zm-1.8 5.3c0 .3.6.7 1.4.8.8.1 1.5 0 1.5-.4 0-.3-.6-.7-1.4-.8-.8-.1-1.5.1-1.5.4zM6.9 17c0-.3-.7-.6-1.5-.5s-1.5.4-1.5.7c0 .3.7.6 1.5.5s1.5-.4 1.5-.7zm-1.8 4.3c0 .3.6.7 1.4.8.8.1 1.5 0 1.5-.4 0-.3-.6-.7-1.4-.8-.7-.2-1.4 0-1.5.4z"/><path fill="#83B03E" d="M6 37.9s-.6-.4-1.5-1.2l1-1.8c.1-.2.1-.3.2-.5l.3 3.5z"/></symbol><path fill="#FBEE9C" d="M0 129.1l202.2-.5.7-128.4L0 0z"/><path fill="#CC783A" d="M218.1 97L0 96.6v32.7h218.9"/><g opacity=".11"><pattern id="b" patternTransform="matrix(.9685 0 0 -.516 -1713.54 -7876.142)" xlink:href="#a"/><path fill="url(#b)" d="M.4.4H211V97H.4z"/></g><path fill="#CBCB64" d="M176.8.1v96.4l41.2 21.3V.1z"/><pattern id="a" patternTransform="matrix(.9685 0 0 -.516 -1662.66 -7836.035)" xlink:href="#c"/><path fill="url(#a)" d="M178.3.1v95.8l40.7 21V.1z" opacity=".17"/><path fill="#FFF" d="M190.8.1v48.5l20.2 7V.1z"/><path fill="#AADEE9" d="M195.1.1v13.2l15.9 2.3V.1zm.6 17.5v27.7l15.3 5.2V20.4z"/><path fill="#CEE194" d="M195.7 37.7v7.6l15.3 5.3V37.2c-8.6-.1-15.3.5-15.3.5z"/><path fill="#D59539" d="M14.7 82.6s1.3 2 0 4.5-4.7 5.4-4.5 7.9c.2 2.5 0 6.5 0 6.5H7.3s-.6-4.1 0-5.6c.6-1.4.6-13.1.6-13.1h6.8zm92-2.8s-1.2 2 0 4.5 4.5 5.4 4.3 7.9c-.2 2.5 0 6.5 0 6.5h2.8s.6-4.1 0-5.6c-.6-1.4-.6-13.1-.6-13.1h-6.5z"/><path fill="#E9B14D" d="M108.6 61.2c-1.9-4.7-7.2-7-8.6-7.9-1.4-.8-12.9-2.2-24.2-6-10.1-3.4-13.1-7.4-21.5-12.1-10.1-5.6-9.2-9.4-28.2-8.5-14.1.8-22 12-25.4 18.9v7.5c1.5 2.1 4.5 6.3 5.8 8.6 1.9 3.1 2.2 11.6 2.2 11.6l102.4-2.7s1-.5-2.5-9.4z"/><path fill="#F3C560" stroke="#F3C560" d="M9.5 87.7s.2-20.4-1.4-24.5c-.9-2.3-4.6-6.9-7.4-9.9v25.4c1.6 2.5 1.9 4.8 1.9 4.8l-.2 4.2h7.1z"/><path fill="#F3C560" stroke="#F3C560" d="M107.9 63.4c-.8-4.9-7.2-8.5-8.6-9.3-1.4-.8-8.3-1.6-18.8-3.5s-18.2-9.7-26.8-14.1c-9.9-4.9-5.4-8.1-25.8-8.6C10.7 27.6 2.7 44.7.6 50v2.1l.7.6s4.9 6.8 6.7 10c1.9 3.1 2.2 11.6 2.2 11.6l99.9-2.2c.1-.3-1.4-3.8-2.2-8.7z"/><path fill="#F6C86F" stroke="#F3C560" d="M112.1 71.1l13 4.6L8.6 78.2v-4.6z"/><path fill="#E9B14D" d="M8.6 78.2l-7.9.2v.1c.5.5 2 2.1 1.9 4.9-.1 3.5-.2 4.1-.2 4.1s106.5 1.1 110.9 0c4.5-1.1 10.6-2.7 10.6-2.7l1.2-9.3L8.6 78.2zm-8.1.2s.1 0 .1.1v-.1H.5z"/><path fill="#E2A542" d="M9.4 87.7s1.3 2 0 4.5-4.7 5.4-4.5 7.9 0 6.5 0 6.5H2s-.6-4.1 0-5.6c.6-1.4.6-13.1.6-13.1h6.8zM117.8 85s-1.2 2 0 4.5 4.5 5.4 4.3 7.9c-.2 2.5 0 6.5 0 6.5h2.8s.6-4.1 0-5.6-.6-13.1-.6-13.1h-6.5z"/><g fill="#E9B14D"><ellipse cx="10.3" cy="47.5" rx="1.9" ry="2.1"/><path d="M11.9 52.7c-.7-1.1-1.1-2.2-.9-3.5m-1.6-1.5c-1.9-.5-3.6.7-4.1 2.6m6.3-3.7c-.6 0-.7-.2-.6-.7.8-.6 1.9-1.2 2.8-1.2M10 46.4c.1-1.3-.4-2.3-1.3-3.2"/></g><g fill="#E9B14D"><ellipse cx="34.4" cy="38.7" rx="1.9" ry="2.1"/><path d="M36 44c-.7-1.1-1.1-2.2-.9-3.5m-1.6-1.6c-1.9-.5-3.6.7-4.1 2.6m6.3-3.6c-.5 0-.7-.2-.6-.7.8-.6 1.9-1.2 2.8-1.2m-3.7 1.6c.1-1.2-.4-2.3-1.3-3.2"/></g><g fill="#E9B14D"><ellipse cx="49.3" cy="44.3" rx="1.9" ry="2.1"/><path d="M50.8 49.5c-.7-1.1-1.1-2.2-.9-3.5m-1.5-1.6c-1.9-.5-3.6.7-4.1 2.6m6.2-3.6c-.5 0-.7-.2-.6-.7.8-.6 1.9-1.2 2.8-1.2M49 43.1c.1-1.2-.4-2.3-1.3-3.2"/></g><g fill="#E9B14D"><ellipse cx="34.3" cy="67.4" rx="1.9" ry="2.1"/><path d="M35.8 72.6c-.7-1.1-1.1-2.2-.9-3.5m-1.6-1.6c-1.9-.5-3.6.7-4.1 2.6m6.4-3.7c-.5 0-.7-.2-.6-.7.8-.6 1.9-1.2 2.8-1.2m-3.9 1.7c.1-1.3-.4-2.3-1.3-3.2"/></g><g fill="#E9B14D"><ellipse cx="16.2" cy="64.3" rx="1.9" ry="2.1"/><path d="M17.7 69.6c-.7-1.1-1.1-2.2-.9-3.5m-1.5-1.6c-1.9-.5-3.6.7-4.1 2.6m6.3-3.7c-.5 0-.7-.2-.6-.7.8-.6 1.9-1.2 2.8-1.2m-3.9 1.7c.1-1.3-.4-2.3-1.3-3.2"/></g><g fill="#E9B14D"><ellipse cx="29.2" cy="51.8" rx="1.9" ry="2.1"/><path d="M30.8 57.1c-.7-1.1-1.1-2.2-.9-3.5m-1.7-1.7c-1.9-.5-3.6.7-4.1 2.6m6.3-3.5c-.5 0-.7-.2-.6-.7.8-.6 1.9-1.2 2.8-1.2m-3.7 1.5c.1-1.2-.4-2.3-1.3-3.2"/></g><g fill="#E9B14D"><path d="M65.5 52.4c0 1.2-.8 2.1-1.9 2.1-1.1 0-1.9-.9-1.9-2.1 0-1.2.8-2.1 1.9-2.1 1.1-.1 1.9.9 1.9 2.1zm-.3 5.2c-.7-1.1-1.1-2.2-.9-3.5m-1.6-1.6c-1.9-.5-3.6.7-4.1 2.6"/><path d="M64.9 51.5c-.5 0-.7-.2-.6-.7.8-.6 1.9-1.2 2.8-1.2m-3.8 1.6c.1-1.2-.4-2.3-1.3-3.2"/></g><ellipse cx="64.1" cy="65.4" fill="#DDD0BC" rx="1.9" ry="2.1"/><path fill="none" stroke="#DDD0BC" d="M65.6 70.6c-.7-1.1-1.1-2.2-.9-3.5m-1.5-1.7c-1.9-.5-3.6.7-4.1 2.6m6.3-3.5c-.5 0-.7-.2-.6-.7.8-.6 1.9-1.2 2.8-1.2m-3.9 1.5c.1-1.3-.4-2.3-1.3-3.2"/><ellipse cx="78.2" cy="60.8" fill="#DDD0BC" rx="1.9" ry="2.1"/><path fill="none" stroke="#DDD0BC" d="M79.7 66c-.7-1.1-1.1-2.2-.9-3.5m-1.7-1.6c-1.9-.5-3.6.7-4.1 2.6m6.4-3.6c-.5 0-.7-.2-.6-.7.8-.6 1.9-1.2 2.8-1.2m-3.8 1.6c.1-1.3-.4-2.3-1.3-3.2"/><ellipse cx="93.6" cy="64.9" fill="#DDD0BC" rx="1.9" ry="2.1"/><path fill="none" stroke="#DDD0BC" d="M95.1 70.2c-.7-1.1-1.1-2.2-.9-3.5M92.6 65c-1.9-.5-3.6.7-4.1 2.6m6.4-3.5c-.5 0-.7-.2-.6-.7.8-.6 1.9-1.2 2.8-1.2m-3.9 1.5c.1-1.2-.4-2.3-1.3-3.2"/><g fill="#E9B14D"><ellipse cx="47" cy="60.5" rx="1.9" ry="2.1"/><path d="M48.5 65.7c-.7-1.1-1.1-2.2-.9-3.5M46 60.6c-1.9-.5-3.6.7-4.1 2.6m6.4-3.6c-.6 0-.7-.2-.6-.7.8-.6 1.9-1.2 2.8-1.2m-3.9 1.6c.1-1.2-.4-2.3-1.3-3.2"/></g><g fill="#E9B14D"><ellipse cx="20.4" cy="37.1" rx="1.9" ry="2.1"/><path d="M22.1 42.4c-.7-1.1-1.1-2.2-.9-3.5m-1.7-1.7c-1.9-.5-3.6.7-4.1 2.6m6.3-3.5c-.6 0-.7-.2-.6-.7.8-.6 1.9-1.2 2.8-1.2m-3.7 1.5c.1-1.3-.4-2.3-1.3-3.2"/></g><path fill="#952A1F" stroke="#952A1F" d="M83.1 51.4s6.6 1.3 10.6 0c4.1-1.3 10.2 0 10.2 0l1.2 19.6s-6.3 1.3-9.2 1.1c-2.8-.2-10.2 0-10.2 0s-.6-10.6-.6-12.2c0-1.7-2-8.5-2-8.5z"/><path fill="#673F18" stroke="#673F18" d="M55.8 67.5s3.5-2.9 4.6-8.6c1.2-5.6 3.5-14.7 3.5-14.7s7.9 3.1 11.3 2.2c3.4-.8 9.5.2 9.5.2s-3.5 12-4.6 15.7c-1.1 3.8-.8 10.3-.8 10.3s-11.3 0-14.6-2.1c-3.2-1.8-8.9-3-8.9-3z"/><g fill="#4B2A13" stroke="#4B2A13"><ellipse cx="69" cy="58.5" rx="1.1" ry="1.2"/><path d="M70 61.3c-.5-.6-.6-1.3-.5-2m-.9-.8c-1.1-.2-2 .4-2.2 1.4m3.3-1.9c-.2 0-.4-.1-.4-.4.5-.4 1.1-.7 1.5-.7m-1.9.9c0-.7-.2-1.3-.7-1.8"/></g><g fill="#811F1A" stroke="#811F1A"><ellipse cx="95.1" cy="62" rx="1.1" ry="1.2"/><path d="M95.9 64.8c-.5-.6-.6-1.3-.5-2m-.9-.8c-1.1-.2-2 .4-2.2 1.4m3.5-1.9c-.2 0-.4-.1-.4-.4.5-.4 1.1-.7 1.5-.7m-2 .9c0-.7-.2-1.3-.7-1.8"/></g><path fill="#FFF" d="M195.7 45.3l-8.2 2.4-.6 3.4 24.1 9.6V50.6z"/><path fill="#FFF" d="M209.8.1c.4.1.8.4 1.2.5V.1h-1.2z" opacity=".51"/><path fill="#D1ECF2" d="M137.7 113.5c-.7-.1-1.8-.1-2.3-.6-.5-.5-.2-1.2-.8-1.6-1.6-1.2-5.8-.1-7.6 0-2.3.1-6.2-.2-8.5.7-.9.5-1.9 1.8-2.6 2.3l.1-.4c-1.1 1.5-1.4 1.3-3.2 1.9-3.2.9-3.3 3.9-.4 5.3 1.2.6 2.5.6 3.6 1.2 1.2.6 2 1.5 3.3 1.9 1.6.5 3.4.6 5.2.5 1.3 0 3.9.2 5-.5.2-.1-.2-.8.1-1.1.4-.2.8-.1 1.2-.2.9-.2 2-.1 2.9-.1 2.3 0 4.9-.2 7.2-.7.8-.2 2-.5 2.6-1.2.7-.8.2-.7.4-1.4.2-1.1-.5-.8.9-1.5.5-.2 2.1-.4 2.5-.8 2.3-3-8.3-3.5-9.6-3.7z" opacity=".54"/><radialGradient id="d" cx="3.659" cy="312.783" r="1.125" gradientTransform="matrix(2.7597 0 0 -2.7597 114.128 982.45)" gradientUnits="userSpaceOnUse"><stop offset="0" stop-color="#fff"/><stop offset=".226" stop-color="#f1fafb"/><stop offset=".649" stop-color="#cdecf2"/><stop offset="1" stop-color="#aadee9"/></radialGradient><path fill="url(#d)" d="M118.8 121.7l5.4 1 3.2-2.4-6.9-1.9z"/><radialGradient id="c" cx="6.728" cy="313.925" r="1.361" gradientTransform="matrix(2.7597 0 0 -2.7597 114.128 982.45)" gradientUnits="userSpaceOnUse"><stop offset="0" stop-color="#fff"/><stop offset=".226" stop-color="#f1fafb"/><stop offset=".649" stop-color="#cdecf2"/><stop offset="1" stop-color="#aadee9"/></radialGradient><path fill="url(#c)" d="M126.2 116.7l3.5 2.9 5.3.7 1.4-2.4-5.3-2.9z"/><radialGradient id="e" cx="3.7" cy="314.326" r=".783" gradientTransform="matrix(2.7597 0 0 -2.7597 114.128 982.45)" gradientUnits="userSpaceOnUse"><stop offset="0" stop-color="#fff"/><stop offset=".226" stop-color="#f1fafb"/><stop offset=".649" stop-color="#cdecf2"/><stop offset="1" stop-color="#aadee9"/></radialGradient><path fill="url(#e)" d="M121.2 116.5l1.8 1.2 3.2-1-.9-2.4z"/><ellipse cx="119.6" cy="115.6" fill="#FFF" rx=".6" ry=".4"/><ellipse cx="120.2" cy="114.3" fill="#FFF" rx=".6" ry=".4"/><ellipse cx="129.5" cy="113.9" fill="#FFF" rx=".6" ry=".4"/><ellipse cx="122.4" cy="114.3" fill="#FFF" rx=".6" ry=".4"/><ellipse cx="126.9" cy="118.7" fill="#FFF" rx=".6" ry=".4"/><ellipse cx="136.5" cy="115" fill="#FFF" rx=".6" ry=".4"/><path fill="#AADEE9" d="M112.6 107.1l-2.9 3.2 6.2 5.5-1.4-3.9 1.6-1.4-1.2-1.6 3.9-2.2z"/><ellipse cx="138.6" cy="116.3" fill="#FFF" rx=".6" ry=".4"/><ellipse cx="138.6" cy="115.1" fill="#FFF" rx=".6" ry=".4"/><radialGradient id="f" cx=".501" cy="319.016" r="5.106" gradientTransform="matrix(2.7597 0 0 -2.7597 114.128 982.45)" gradientUnits="userSpaceOnUse"><stop offset="0" stop-color="#fff"/><stop offset=".226" stop-color="#f1fafb"/><stop offset=".649" stop-color="#cdecf2"/><stop offset="1" stop-color="#aadee9"/></radialGradient><path fill="url(#f)" stroke="#AADEE9" d="M116 97.6c-6.3-1.9-13.1 1.8-15 8.2-1.9 6.3 1.8 13.1 8.2 15 2.3.7 4.8.6 7-.1l.6-3.3-.5-2.9-4.6-2.5.7-2.6 2.9-2.6 4.3.5 4.5-1.6c-1.1-3.6-4-6.8-8.1-8.1z"/><path fill="none" stroke="#AADEE9" d="M115.3 107l-1.4-2h-3.4l-1.9-2m2.6 9.1l-3.1.9-1 2"/><path fill="none" stroke="#AADEE9" stroke-width=".75" d="M112.7 104.9v-1.4"/><path fill="#653614" d="M98.1 107.4l2 10.3 3-.5-2.6-10.5z"/><path fill="#CB9866" stroke="#653614" stroke-width=".5" d="M96.7 107.6l2.7 10.4 1.3-.3-2.4-10.2z"/><ellipse cx="100.8" cy="120.6" fill="#FFF" rx=".6" ry=".4"/><ellipse cx="102.1" cy="122" fill="#FFF" rx=".6" ry=".4"/><ellipse cx="109.3" cy="123.1" fill="#FFF" rx=".5" ry=".4"/><ellipse cx="133.6" cy="124.6" fill="#FFF" rx=".5" ry=".4"/><ellipse cx="132" cy="125.2" fill="#FFF" rx=".5" ry=".4"/><ellipse cx="141.5" cy="120.5" fill="#FFF" rx=".5" ry=".4"/><path fill="#FFF" stroke="#989898" stroke-width=".25" d="M51.8 98.4l5.5-.2 1-14.5-7.4-.3zm6.3-.2l5.4-.2 2.1-14.3h-7.3z"/><linearGradient id="g" x1="-22.596" x2="-20.604" y1="319.112" y2="319.112" gradientTransform="matrix(2.7597 0 0 -2.7597 114.128 982.45)" gradientUnits="userSpaceOnUse"><stop offset="0" stop-color="#fff2ca"/><stop offset=".436" stop-color="#ffeabc"/><stop offset="1" stop-color="#ffdda4"/></linearGradient><path fill="url(#g)" stroke="#F1B74F" stroke-width=".191" d="M51.8 102.5v2.9h5.5v-7.3l-5.5.1v4.3z"/><linearGradient id="h" x1="-20.328" x2="-18.335" y1="319.152" y2="319.152" gradientTransform="matrix(2.7597 0 0 -2.7597 114.128 982.45)" gradientUnits="userSpaceOnUse"><stop offset="0" stop-color="#fff2ca"/><stop offset=".436" stop-color="#ffeabc"/><stop offset="1" stop-color="#ffdda4"/></linearGradient><path fill="url(#h)" stroke="#F1B74F" stroke-width=".191" d="M58.1 102.4v2.9h5.5V98l-5.5.1v4.3z"/><linearGradient id="i" x1="-20.312" x2="-13.383" y1="314.536" y2="314.536" gradientTransform="matrix(2.7597 0 0 -2.7597 114.128 982.45)" gradientUnits="userSpaceOnUse"><stop offset=".012" stop-color="#e1ca20"/><stop offset="1" stop-color="#f7eb22"/></linearGradient><path fill="url(#i)" stroke="#FBED25" stroke-width=".196" d="M63.5 105.4h-5.4v16.8c0 1.4 6.3 1.4 8.5 1.4h7.6c2.3 0 3.2-1.2 3.2-1.2s-11-1.5-12.3-2.5c-1.4-1.2-1.6-14.5-1.6-14.5z"/><linearGradient id="j" x1="-22.686" x2="-18.146" y1="313.943" y2="313.943" gradientTransform="matrix(2.7597 0 0 -2.7597 114.128 982.45)" gradientUnits="userSpaceOnUse"><stop offset=".012" stop-color="#e1ca20"/><stop offset="1" stop-color="#f7eb22"/></linearGradient><path fill="url(#j)" stroke="#FBED25" stroke-width=".196" d="M58 119.7c-1.4-1-.7-14.4-.7-14.4h-5.9v14.4c0 1.4 1.4 5.9 3.6 5.9 2.3 0 4.6 1.4 7.2 1.4 2.4 0 1.6-3.5 1.6-3.5s-4.5-2.7-5.8-3.8z"/><path fill="none" stroke="#BB2025" stroke-width=".25" d="M51.6 111.6s1.5.1 2.6.1c1.2 0 2.7-.1 2.8-.2m-5.4 1.2s1.5.1 2.6.2c1.2 0 2.7-.2 2.8-.2m-5.4 1.1s1.5.1 2.6.1c1.2.1 2.7-.1 2.8-.2m1.3-1.8s1.5.1 2.6.2c1.2.1 2.7-.2 2.8-.2"/><path fill="none" stroke="#BB2025" stroke-width=".25" d="M58.3 111.9s1.5.1 2.6.2c1.2 0 2.7-.2 2.8-.2m-5.4 2.2s1.5.1 2.6.1c1.2.1 2.7-.1 2.8-.2"/><path fill="#FACBCB" stroke="#986698" stroke-width=".25" d="M73.1 50.2c-3.4-.3-5.1 6.1-4.8 10.1L79 58.5c-1.1-2.8-3.2-8.1-5.9-8.3z"/><linearGradient id="k" x1="-15.04" x2="-11.681" y1="329.999" y2="329.999" gradientTransform="matrix(2.7597 0 0 -2.7597 114.128 982.45)" gradientUnits="userSpaceOnUse"><stop offset="0" stop-color="#fff2ca"/><stop offset=".436" stop-color="#ffeabc"/><stop offset="1" stop-color="#ffdda4"/></linearGradient><path fill="url(#k)" stroke="#F1B74F" stroke-width=".191" d="M79.5 67.5c-1.8-.8-3.7 1.4-5.1.1L72.7 70c1.1.8.1.6.2 1.7.1.8-.7.9-.2 1.8.2.5 1.2.9 1.6 1.4 1.2 1 5.6 2.9 4.8-.7 1.2.2 3.2-.8 1.6-2 1.7-1.9 1.7-3.5-1.2-4.7z"/><path fill="#FFF" stroke="#989898" stroke-width=".25" d="M48.6 88.7c3 2.1 5.6 3 9.2 2.9 3.2 0 6.3-.8 9.1-2.1 3.3-1.7 5.9-4.5 9-6.3L40 80.6c3.1 2 5.4 5.9 8.6 8.1z"/><path fill="none" stroke="#989898" stroke-width=".25" d="M52.7 84l7.5.4m7.2 0h-7.2"/><path fill="#FFF" stroke="#989898" stroke-width=".25" d="M51.1 83.6c2.8.1 5.8.9 8.6.9h9.2L46.6 83c1.6.3 3 .5 4.5.6zm17.9.9l7.8.5c-1.4-1.5-5.6-.6-7.8-.5zm-26.8-1.7l4.4.3c-1.5-.2-3-.4-4.4-.3z"/><path fill="#FACBCB" stroke="#986698" stroke-width=".25" d="M73 52.7c.6-.6-10.7 1.2-13.9 1.2-3.3 0-14.9-.8-14.9-.8s-9.9 30.8-9.9 32.5 17.4 2 22 2 24.8-1 25.9-2.3c1.1-1.1-6.7-23.7-7.4-26.5-.8-2.7-2.1-5.9-1.8-6.1z"/><path fill="#F7F7F8" d="M43.8 72.3c-.9-.2-3.4 4.2-3.9 5.3-.6 1.2-1.7 2.9-1.5 3.3.2.3.8.5 1.8.8.9.5 3.5.5 3.5.5-.2 0-2.5-.9-2.1-3.5.2-2.6 1.4-3.8 1.8-4.7.4-.6 1.8-1.3.4-1.7z" opacity=".21"/><path fill="#F7F6F5" d="M76.6 36.6c-.2 2.7 0 7.2.8 7.4.8.2.5-3.2.5-4.5s.8-6.7.8-8l.5-5.3s-.1.3-.2.8c-.7 2-2.2 7.4-2.4 9.6z" opacity=".14"/><linearGradient id="l" x1="-28.402" x2="-12.008" y1="342.902" y2="342.902" gradientTransform="matrix(2.7597 0 0 -2.7597 114.128 982.45)" gradientUnits="userSpaceOnUse"><stop offset="0" stop-color="#fff2ca"/><stop offset=".436" stop-color="#ffeabc"/><stop offset="1" stop-color="#ffdda4"/></linearGradient><path fill="url(#l)" stroke="#996733" stroke-width=".191" d="M71.2 14.9c-4.1-.5-10.5 8.2-16.1 10.5S37.1 40.2 35.7 40c0 0 3.6.7 3 2.6-.6 2 2.8 5.8 0 5.8-.6 0 .7.1 2.5 2.3 1.7 2 16.8 5.6 20 6.1 2.1.3 7.3 1.4 11.2.2 3.9-1.1 5.8-3.6 6.2-5.2.3-1.4 0-4.2 0-5.4.1-4.5 1.8-10.5 2.4-13.9.6-3.4-.5-15-.5-15s-5.3-2.1-9.3-2.6z"/><path fill="#EF6596" d="M52.1 41.5c-3.3-.5-6.1 1-6.7 5-.6 3.9 1.7 6 4.8 6.4 3.3.5 6.2-.7 6.8-4.6.7-4.1-1.6-6.3-4.9-6.8zM73 45.1c-2.4 1.4-3.8 4.1-2.9 6.9.9 2.8 3.5 3.8 5.9 2.3 2.4-1.6 2.5-5 1.2-7.6-.9-1.8-2.8-2.3-4.2-1.6z" opacity=".14"/><path stroke="#3D3D3D" stroke-width=".263" d="M75.3 7.7c-2.1-1.7-9-.5-9.9-.7s-1.5-.8-2.7-1.9C61.5 4 53.9 4 52 4.3c-6.5 1.2-10.3 7.9-11.5 9.6-1.2 1.8-7.9 18.6-8.9 23.3-1 4.7-2.5 20-1.5 24.1 1 4.2 6.9 5.4 9.6 7.3l.7-6.4c1.7-2.8 1.5-10 1.5-10s1.8-3.5 2-7.4c.3-3.9 7.3-18 7.3-18l2.6 1.6s2.6-.3 3.9-.6c1.4-.2 3.8-.6 7.3-.6s4.5-8.8 4.5-8.8 4.6 2.7 5.5 3.8c.9 1.1 5.9 9.6 5.1 14.7-1.6 9.4-1.6 9.4-1.8 13.3-.1 2.5-2.7 14.3-1.4 12.2 1.4-2.1 1.9-1.6 3.6-4.4 1.8-2.8 2.6-9.2 3.4-14.3s.5-18.8-.7-22.3C82 18 80.5 11.8 75.3 7.7z"/><path stroke="#3D3D3D" stroke-width=".263" d="M71.2 19.4s-1.5 8.2 1 8.9c2.5.7 4.1 3.3 5.4 4.1 1.4.8 3.3 0 3.3 0s0-6.7-.7-8.3"/><use width="48.4" height="46.8" x="-24.2" y="-23.4" overflow="visible" transform="matrix(.337 .0525 .0516 -.3315 42.9 25.504)" xlink:href="#m"/><path fill="none" stroke="#966" stroke-width=".5" d="M67.2 42s1.2.3 1.1 1.7c-.1 1.4-1 1.8-1 1.8"/><path fill="#CCCBCB" d="M51.4 14.7c1.6-.6 4.1-.6 5.1-2.4-2.6 1.5-6.4.3-8.7 2.6 2-.2 3.8 1 5.9 1.4 1.8.2 3.9-.3 5.6-1.1-2.4.3-5.4-.4-7.9-.5zm-3.6.2c0-.1-.1-.1-.2 0h.2zm-7.4 22.2v-.2c-.5.3-.7 1-.9 1.7.3-.4.5-.9.9-1.5zM36.9 55c3.8 0 1.2-11.4 2.7-16.3-1.4 2.3-1.9 4.2-1.9 7.3 0 2.9-.9 6-.8 9z" opacity=".05"/><path fill="none" stroke="#676767" stroke-width=".25" d="M57.8 35.7c.6.9 3.2 2 3.9 2.7-.9.2-3.5-.2-4.4 0m16.1-.6c-.8.7-3.4 1.2-4.4 1.7.8.5 3.2.6 3.9 1.1"/><path fill="#FFF" d="M65.5 48.1c-2.4-.3-4.4-1.7-6.9-.8-2.6 1-3.8 3.5-.9 5.3 1.9 1.1 12.4 2.9 9.8-2.5-.9-1.6-2-2-2-2z"/><path fill="#69C8C9" d="M53.4 40c.2.3 1.8-1.2 2.3-1.6h-.3c-.6-.2-2.7.7-2 1.6zm1.3 3.2c.6-.9.3-2 .3-3l.2-.1c-1 .2-1.4 2.7-.5 3.1zm20.5-1l-.2.1c.7.7-.3 1.9.9 2 .4-.8.1-1.6-.7-2.1z"/><linearGradient id="n" x1="-27.242" x2="-24.01" y1="333.085" y2="333.085" gradientTransform="matrix(2.7597 0 0 -2.7597 114.128 982.45)" gradientUnits="userSpaceOnUse"><stop offset="0" stop-color="#fff2ca"/><stop offset=".436" stop-color="#ffeabc"/><stop offset="1" stop-color="#ffdda4"/></linearGradient><path fill="url(#n)" stroke="#F1B74F" stroke-width=".191" d="M44 54.5l-3.5-1-1.6 13.6 6.4 5.9 2.5-1.7-5.9-5.7z"/><path fill="#FACBCB" stroke="#986698" stroke-width=".25" d="M43.2 45c-3.3-.8-5.9 5.3-6.3 9.4l10.8-.2c-.6-3-1.8-8.5-4.5-9.2z"/><linearGradient id="o" x1="-25.55" x2="-22.055" y1="329.235" y2="329.235" gradientTransform="matrix(2.7597 0 0 -2.7597 114.128 982.45)" gradientUnits="userSpaceOnUse"><stop offset="0" stop-color="#fff2ca"/><stop offset=".436" stop-color="#ffeabc"/><stop offset="1" stop-color="#ffdda4"/></linearGradient><path fill="url(#o)" stroke="#F1B74F" stroke-width=".191" d="M51.2 69.8c-1.7-1-3.9.8-5.1-.6l-2 2.1c1 1 .1.7 0 1.8 0 .8-.8.8-.5 1.8.1.6 1 1.1 1.4 1.5 1.1 1.2 5.2 3.7 4.8 0 1.1.3 3.2-.3 1.9-1.7 2-1.6 2.3-3.2-.5-4.9z"/><use width="61.6" height="75.8" x="-30.8" y="-37.9" overflow="visible" transform="matrix(.835 0 0 -.835 148.613 75.515)" xlink:href="#p"/></g></switch></svg>
