<svg xmlns="http://www.w3.org/2000/svg" xmlns:xlink="http://www.w3.org/1999/xlink" version="1.0" viewBox="0 0 220 129"><switch><g><path fill="#C65C49" stroke="#C65C49" d="M0 .5h219.9v127H0z"/><g fill="#F8A28E" stroke="#F8A28E"><path d="M58.3 18.8s-2.3-4-4.5-2.2c-2.7 2.2-.7 4.9.1 5.5.8.6 4.2 2.8 4.2 2.8s3.2-1.6 4.2-2.4c3.7-2.8.8-5.6 0-5.9-1.2-.4-3 1.1-3 1.1-.5.5-1 1.1-1 1.1z"/><path d="M54 17.1c2.1-1.7 4.5 2.2 4.5 2.2s.5-.7 1-1.1c0 0 1.8-1.5 3-1.1.4.1 1.4 1 1.8 2.1-.2-1.4-1.4-2.4-1.9-2.6-1.2-.4-3 1.1-3 1.1-.5.5-1 1.1-1 1.1s-2.3-4-4.5-2.2c-1.4 1.1-1.5 2.4-1.2 3.5-.2-1 .1-2 1.3-3zm8.4 5c-1.1.8-4.2 2.4-4.2 2.4s-4.8-2.7-4.2-2.3c.8.6 4.2 2.8 4.2 2.8s3.2-1.6 4.2-2.4c1.3-1 1.8-1.9 1.8-2.8-.2.7-.7 1.5-1.8 2.3z" opacity=".16"/><path d="M77.4 21.4s-1-1.8-2-1c-1.2 1-.3 2.2 0 2.5.3.3 1.9 1.2 1.9 1.2s1.4-.7 1.9-1.1c1.7-1.2.4-2.5 0-2.6-.5-.2-1.3.5-1.3.5-.3.2-.5.5-.5.5z"/><path d="M75.5 20.6c1-.8 2 1 2 1s.2-.3.4-.5c0 0 .8-.7 1.3-.5.2.1.6.4.8.9-.1-.6-.6-1.1-.8-1.2-.5-.2-1.3.5-1.3.5-.2.2-.4.5-.4.5s-1-1.8-2-1c-.6.5-.7 1.1-.5 1.6-.2-.4 0-.9.5-1.3zm3.7 2.2c-.5.4-1.9 1.1-1.9 1.1s-2.1-1.2-1.9-1c.3.3 1.9 1.2 1.9 1.2s1.4-.7 1.9-1.1c.6-.4.8-.9.8-1.3 0 .4-.3.8-.8 1.1z" opacity=".16"/><path d="M35.8 31.7s-1.6-2.7-3.1-1.5c-1.8 1.5-.5 3.4 0 3.8.5.4 2.9 1.9 2.9 1.9s2.2-1.1 2.9-1.7c2.6-1.9.5-3.9 0-4.1-.8-.3-2.1.8-2.1.8-.2.4-.6.8-.6.8z"/><path d="M32.8 30.5c1.5-1.2 3.1 1.5 3.1 1.5s.3-.5.7-.8c0 0 1.2-1.1 2.1-.8.3.1 1 .7 1.2 1.4-.1-1-1-1.7-1.3-1.8-.8-.3-2.1.8-2.1.8-.3.3-.7.8-.7.8s-1.6-2.7-3.1-1.5c-1 .8-1.1 1.7-.8 2.4-.1-.6.1-1.3.9-2zm5.8 3.5c-.7.5-2.9 1.7-2.9 1.7s-3.3-1.9-2.9-1.6c.5.4 2.9 1.9 2.9 1.9s2.2-1.1 2.9-1.7c.9-.7 1.2-1.3 1.3-1.9-.1.4-.5 1-1.3 1.6z" opacity=".16"/><path stroke-dasharray="3" d="M58.9.3v18.5M36.4 30.6V.9M76.6.3v20.8m-19.4 3.5v16.7"/><path d="M58.1 38.9s-1.6-2.7-3.1-1.5c-1.8 1.5-.5 3.4 0 3.8.5.4 2.9 1.9 2.9 1.9s2.2-1.1 2.9-1.7c2.6-1.9.5-3.9 0-4.1-.8-.3-2.1.8-2.1.8l-.6.8z"/><path d="M55.1 37.7c1.5-1.2 3.1 1.5 3.1 1.5s.3-.5.7-.8c0 0 1.2-1.1 2.1-.8.3.1 1 .7 1.2 1.4-.1-1-1-1.7-1.3-1.8-.8-.3-2.1.8-2.1.8-.3.3-.7.8-.7.8s-1.6-2.7-3.1-1.5c-1 .8-1.1 1.7-.8 2.4-.1-.6.1-1.3.9-2zm5.8 3.5c-.7.5-2.9 1.7-2.9 1.7s-3.3-1.9-2.9-1.6c.5.4 2.9 1.9 2.9 1.9s2.2-1.1 2.9-1.7c.9-.7 1.2-1.3 1.3-1.9-.2.4-.5 1-1.3 1.6z" opacity=".16"/></g><g fill="#F8A28E" stroke="#F8A28E"><path d="M96.9 18.7c-.4-1.4-.7-3.1-1.3-4.4-.8-1.6-3-2.1-4.5-2.8-.8-.4-1.6-.8-2.3-1.2-.4-.3-2-1.9-2.4-1.8-1.8.1 1.5 3.7 1.7 4.2-.6.3-1.2-.4-1.8-.7-1.1.7 2.5 2.1 2.8 2.9-.7.1-2.1-.3-2.6.1.5.4 1.4.3 1.4 1-1 .2-2.3.1-3.2-.4-1.3-.6-1.7-2.2-3.4-1.8-.2 1.1 2 2.1 2.7 2.9 1.5 2.1-.8.8-1.9 1-.6 1.5 3.3 1.5 3.7 2.2-.6.1-2.8.2-2.5 1 .2.7 2.5.4 3.1.6-.5.3-2.2.4-1.8 1.3.3.5 2 .3 2.5.3-.6.1-2 .6-1.1 1.2.6.4 1.6-.3 2.2-.3-2 1-.5 1.3.9 1.3-.4 0-1.4.5-1 1 .3.4 1.4 0 1.8-.1-.3.2-.5.6-.4.9.7.2 1.2-.2 1.9-.3-.2.2-.6.6-.6 1 .4.3.8.2 1.2 0 0 .1.1.4.1.7.4 0 .7-.2 1-.4.3.6.8.6 1.4.3.4 1.3 2.1.3 3.1.4.7 1.3-.5 1.2-1.3 1.7-1.1.8-.9 2-1 3.2-.1 1.2-.9 1-1.9 1.6-.6.4-.8 1.1-1.3 1.4-.9.7-.7.3-1.3-.4-1-1-2.2-.6-3.2-1.3-.7-.6-.1-.8-.4-1.5-.3-.6-1.2-.9-1.8-.8-.6.1-1.1.7-1.6.9-.6.2-1.1.1-1.6.3-.5.2-1.2.8-1 1.4.4 1 .9-.1 1.6.1.4.1.9.8 1.4 1 .6.2 1 .1 1.5.6 1 .9 1.5 2.2 2.7 3 .6.4.9.4 1.6.5.6.1 1 .3 1.5.5 1.1.3 2.3-.1 3.4-.3 1.9-.3 4.9-1.9 6.7-.8.5.3.9.9.7 1.5-.2.6-.7.4-1.2.6-1.4.6-1.2 1.9-2.3 2.7-.8.7-2 1.2-1.4 2.4.5 1 1.8 2.1 3 2.3.3 0 .8.4 1 .1.4-.4-.4-.5-.4-.9-.1-.9.4-1.1-.1-2.1 1.9-1.1 5.6-1.9 6.5-4.2.4-.9-.1-2.3-.3-3.3-.3-1.2-1.1-2.7-1-3.9.2-1.5 1.4-2.6 1.3-4.2 0-.6-.4-1.6-.2-2.2.2-.9.9-.6 1.8-.6 3.1.1 6.6 1.1 9.6-.1.9-.4 1.6-1.2 1.2-2.2-.5-1.2-1.6-.6-2.5-.2-1.5.8-2.9-.2-4.7-.3-.7-.1-.8-.4-1.5-.6-1.2-.3-1.2-1.1-2-1.7-.7-.6-2.2-.5-3.3-1.2-1.5-.9-1.1-1.8.6-2.4 1.2-.4.7.1 1.6-.7.6-.6 1.5-.6 1.8-1.5.2-.6-.1-1.4-.1-2 0-1.4 1.2-2.5 1.2-4.1 0-1.7-.8-2.5 1.3-3.3-.4-.7-2.9 0-1.8-1.4-.1.1-.4.1-.6.3-.2-.5-.2-1.1.1-1.5-.4-.1-.4-.2-.7.2-.3-.3-.7-.7-1.2-.5.1.3.6.9.3 1.2-.5.5-1-.2-.7-.7-.4 0-.7.3-1.1.4-.1-.4 0-.8 0-1.2-.4-.1-.8.2-1 .6-.8-.2-1.2-1.2-2.2-.6.8 1 0 1-.9 1-1 0-1.8.5-2.5 1-.4.3-1.3 1-1.6 1.3-.5.7 0 1.7-.5 2.3.1 0 .2 0 .3.1-.7.8-1.2 1.5-.3 2.4-.1.1-.2.1-.3.2.1.4.1.9 0 1.2.2 0 .4 0 .5.1l-.6.9c.7.5 1.7.3 2.2 1.3.5 1-.4 1.3-.9 2.1.6.4 1.4-.4 1.9-.6 0 .1 0 .2-.1.4.2-.5 1.4 0 1.1.8-.2.5-.6.6-1.2.6-1.2.1-2.2-1-3.5-1z"/><path d="M109.5 23.3l7.4-10.1-.2-.1-7.3 10.2zm-.5 4.8l2.5 10.5v.4l-2.9-10.9z"/><path d="M117.1 12s-.4-.2-.4.5c0 .6 1.9 1.8 3.2 3.6 1.2 1.8 1.9 3.4 1.5 5.1-.4 1.6-1.1 2.3-1.5 2.8-.4.5-.8 1.2-.8 1.2s-1.2 2-.9 3c.3 1 .9 1.5.9 3.6s.2 2.4-1.6 3.9-2 2.3-4 2.8-2 .9-2 .9h-.5s1.1-.9 2.7-1.7c1.6-.8 3.6-2.1 4.2-3.4.6-1.4.7-3.1.1-4.3-.6-1.3-1-2.5-.6-3.5s1.2-1.7 2.1-3c.9-1.3 1.9-2.5 1.3-3.8 0 0 .3-.4-.9-2.1-1.3-1.7-3.3-4.2-3.3-4.2s-.2-.5-.3-.9c-.1-.6.8-.5.8-.5z"/><path d="M118.5 26.1c-.1.2 5.1.5 5.1.5v-.2l-4.9-.4-.2.1z"/><path d="M125.6 26.7s-.7-.8-1.4-.7c-.6 0-.6-.1-.7.2-.1.3.1.3.1.3v.2s-.2-.1-.1.3.1.5.9.3c.9-.3 1.2-.6 1.2-.6z"/></g><g fill="#F8A28E" stroke="#F8A28E"><path d="M214.1 18.9s-2.3-4-4.5-2.2c-2.7 2.2-.7 4.9.1 5.5.8.6 4.2 2.8 4.2 2.8s3.2-1.6 4.2-2.4c3.7-2.8.8-5.6 0-5.9-1.2-.4-3 1.1-3 1.1-.5.5-1 1.1-1 1.1z"/><path d="M209.8 17.2c2.1-1.7 4.5 2.2 4.5 2.2s.5-.7 1-1.1c0 0 1.8-1.5 3-1.1.4.1 1.4 1 1.8 2.1-.2-1.4-1.4-2.4-1.9-2.6-1.2-.4-3 1.1-3 1.1-.5.5-1 1.1-1 1.1s-2.3-4-4.5-2.2c-1.4 1.1-1.5 2.4-1.2 3.5-.2-1 .1-2.1 1.3-3zm8.4 5c-1.1.8-4.2 2.4-4.2 2.4s-4.8-2.7-4.2-2.3c.8.6 4.2 2.8 4.2 2.8s3.2-1.6 4.2-2.4c1.3-1 1.8-1.9 1.8-2.8-.2.7-.7 1.5-1.8 2.3z" opacity=".16"/><path d="M199.8 30.8s-1.6-2.7-3.1-1.5c-1.8 1.5-.5 3.4 0 3.8.5.4 2.9 1.9 2.9 1.9s2.2-1.1 2.9-1.7c2.6-1.9.5-3.9 0-4.1-.8-.3-2.1.8-2.1.8-.2.3-.6.8-.6.8z"/><path d="M196.8 29.6c1.5-1.2 3.1 1.5 3.1 1.5s.3-.5.7-.8c0 0 1.2-1.1 2.1-.8.3.1 1 .7 1.2 1.4-.1-1-1-1.7-1.3-1.8-.8-.3-2.1.8-2.1.8-.3.3-.7.8-.7.8s-1.6-2.7-3.1-1.5c-1 .8-1.1 1.7-.8 2.4-.1-.6.1-1.3.9-2zm5.8 3.4c-.7.5-2.9 1.7-2.9 1.7s-3.3-1.9-2.9-1.6c.5.4 2.9 1.9 2.9 1.9s2.2-1.1 2.9-1.7c.9-.7 1.2-1.3 1.3-1.9-.1.5-.5 1.1-1.3 1.6z" opacity=".16"/><path stroke-dasharray="3" d="M213.8.4v18.5m-14.3 10.8V0"/></g><g fill="#F8A28E" stroke="#F8A28E"><path d="M157.3 18.8s-2.3-4-4.5-2.2c-2.7 2.2-.7 4.9.1 5.5.8.6 4.2 2.8 4.2 2.8s3.2-1.6 4.2-2.4c3.7-2.8.8-5.6 0-5.9-1.2-.4-3 1.1-3 1.1-.5.4-1 1.1-1 1.1z"/><path d="M153 17.1c2.1-1.7 4.5 2.2 4.5 2.2s.5-.7 1-1.1c0 0 1.8-1.5 3-1.1.4.1 1.4 1 1.8 2.1-.2-1.4-1.4-2.4-1.9-2.6-1.2-.4-3 1.1-3 1.1-.5.5-1 1.1-1 1.1s-2.3-4-4.5-2.2c-1.4 1.1-1.5 2.4-1.2 3.5-.1-1 .1-2.1 1.3-3zm8.4 4.9c-1.1.8-4.2 2.4-4.2 2.4s-4.8-2.7-4.2-2.3c.8.6 4.2 2.8 4.2 2.8s3.2-1.6 4.2-2.4c1.3-1 1.8-1.9 1.8-2.8-.2.7-.7 1.5-1.8 2.3z" opacity=".16"/><path d="M176.5 21.3s-1-1.8-2-1c-1.2 1-.3 2.2 0 2.5s1.9 1.2 1.9 1.2 1.4-.7 1.9-1.1c1.7-1.2.4-2.5 0-2.6-.5-.2-1.3.5-1.3.5-.3.2-.5.5-.5.5z"/><path d="M174.5 20.5c1-.8 2 1 2 1s.2-.3.4-.5c0 0 .8-.7 1.3-.5.2.1.6.4.8.9-.1-.6-.6-1.1-.8-1.2-.5-.2-1.3.5-1.3.5-.2.2-.4.5-.4.5s-1-1.8-2-1c-.6.5-.7 1.1-.5 1.6-.1-.3 0-.8.5-1.3zm3.8 2.3c-.5.4-1.9 1.1-1.9 1.1s-2.1-1.2-1.9-1c.3.3 1.9 1.2 1.9 1.2s1.4-.7 1.9-1.1c.6-.4.8-.9.8-1.3-.1.4-.3.7-.8 1.1z" opacity=".16"/><path d="M134.8 31.7s-1.6-2.7-3.1-1.5c-1.8 1.5-.5 3.4 0 3.8.5.4 2.9 1.9 2.9 1.9s2.2-1.1 2.9-1.7c2.6-1.9.5-3.9 0-4.1-.8-.3-2.1.8-2.1.8-.2.3-.6.8-.6.8z"/><path d="M131.9 30.4c1.5-1.2 3.1 1.5 3.1 1.5s.3-.5.7-.8c0 0 1.2-1.1 2.1-.8.3.1 1 .7 1.2 1.4-.1-1-1-1.7-1.3-1.8-.8-.3-2.1.8-2.1.8-.3.3-.7.8-.7.8s-1.6-2.7-3.1-1.5c-1 .8-1.1 1.7-.8 2.4-.1-.5 0-1.3.9-2zm5.8 3.5c-.7.5-2.9 1.7-2.9 1.7s-3.3-1.9-2.9-1.6c.5.4 2.9 1.9 2.9 1.9s2.2-1.1 2.9-1.7c.9-.7 1.2-1.3 1.3-1.9-.2.5-.6 1-1.3 1.6z" opacity=".16"/><path stroke-dasharray="3" d="M157.9.2v18.6m-22.5 11.7V.9m40.2-.7v20.9m-19.3 3.5v16.6"/><path d="M157.1 38.9s-1.6-2.7-3.1-1.5c-1.8 1.5-.5 3.4 0 3.8.5.4 2.9 1.9 2.9 1.9s2.2-1.1 2.9-1.7c2.6-1.9.5-3.9 0-4.1-.8-.3-2.1.8-2.1.8-.2.3-.6.8-.6.8z"/><path d="M154.2 37.7c1.5-1.2 3.1 1.5 3.1 1.5s.3-.5.7-.8c0 0 1.2-1.1 2.1-.8.3.1 1 .7 1.2 1.4-.1-1-1-1.7-1.3-1.8-.8-.3-2.1.8-2.1.8-.3.3-.7.8-.7.8s-1.6-2.7-3.1-1.5c-1 .8-1.1 1.7-.8 2.4-.2-.6 0-1.4.9-2zm5.8 3.4c-.7.5-2.9 1.7-2.9 1.7s-3.3-1.9-2.9-1.6c.5.4 2.9 1.9 2.9 1.9s2.2-1.1 2.9-1.7c.9-.7 1.2-1.3 1.3-1.9-.2.5-.6 1-1.3 1.6z" opacity=".16"/></g><path fill="#F8A28E" stroke="#F8A28E" d="M0 62.6h219.9V129H0z"/><path fill="#713A18" d="M.1 60.8H220v4.9H.1z"/><path fill="#80371B" stroke="#80371B" stroke-width=".25" d="M32.8 90.9l1.8-.4s-1-8.9-2-13.4-2.7-11.4-2.7-11.4h-1.3v1l3 13 1.2 11.2z"/><path fill="#662312" stroke="#662312" stroke-width=".25" d="M28.7 65.7H30l1.6-.8h-1.4z"/><path fill="#8E4420" stroke="#8E4420" stroke-width=".25" d="M31.6 64.9s.7 2.6 1.1 4.9c.4 2.3 1.3 6.2 1.9 9.4.6 3.2.6 5.8.9 7.4.3 1.6.2 2.8.2 2.8l-1.1 1.1s-.3-2.7-.5-4c-.2-1.2-1.1-7.7-1.5-9.4-.4-1.8-1.4-6.1-1.5-6.6-.1-.5-1.1-4.8-1.1-4.8l1.6-.8z"/><path fill="#80371B" stroke="#80371B" stroke-width=".25" d="M65.2 126.3v1.7h1.7z"/><g stroke-width=".25"><path fill="#AD1F62" stroke="#E7282B" d="M106.3 117.5l-1.6-1.6s-16.8-5.9-17.5-6c-.7-.1-11.4 6.5-12.1 7-.7.5.8 3.9.9 4.4.1.5 15.4 4.8 15.4 4.8l3-1.4 11.9-7.2z"/><path fill="#AFADA6" stroke="#AFADA6" d="M91.3 124.5L76.1 120l.7 1.3 14.6 4.9zm14.5-7.4l-.7-.7s-3.5 2.4-6 3.9c-2.4 1.6-5 2.3-5 2.3l.2 2.3 5.6-3.2 6.3-4.2" opacity=".12"/></g><path fill="#F9F6EF" stroke="#AFADA6" stroke-width=".25" d="M98.1 90.6s3.3 8.4 6.1 10.3c2.7 1.9 2.9 3.8 2.9 3.8h-5.3l-3.7-.7s-18.9 9.8-20.9 11c-2 1.2-1.8.9-1.1 2.4.7 1.6.9 3.8.9 3.8s-4 7.4-6.6 7.8c-2.6.3-8.6-4.3-9.3-5.5-.7-1.2-1.1-2.2-1.1-2.2s-.2-2.2 0-2.9c.2-.7-26.6-10.5-29-10.2-2.4.3-4.9-.7-4.9-.7s-4 3.4-4.4 4c-.4.5-1.6.7-2.4.3-.8-.3.7-2.8.7-2.8s6.4-12.2 6.9-13.3c.5-1 2-2.3 2-2.3s13.6 6.7 18.7 8.4c5.2 1.7 19.2 6.8 20.8 6.3 1.7-.5 3.2-1.1 5.5-2.2 2.3-1.2 12.8-6.9 15.1-8.2 2.3-1.3 4.4-2.5 6.4-3.7 2.2-1.3 2.7-3.4 2.7-3.4z"/><path fill="#E2E2E1" stroke="#E2E2E1" stroke-width=".25" d="M73.5 109.5c0 .7.2 1.3.6 1.9-.3.1-.9.6-1 .7 1.1.1 1.4 2.6 1.3 3.6-.2.1-.4.1-.6.1-.1 0 1.7-.1 1.1 0 3.6-1.2 6.3-3.4 9.4-5.3 1.5-.9 3.3-1.8 5-2.6 1.2-.6 3.6-2.2 4.9-2-.1-.2-.2-.3-.2-.5 1.2 0 2.4-.7 3.6-.9-.4 0-.8-.1-1.1-.3.8-.9 1.6-.8 2.9-1.1-.4-.1-.8-.2-1.1-.3 1-.8 2.2-1.1 3.4-1.7.2.2.3.4.4.7 0-.6.2-1.2.6-1.7.1.4.3.9.2 1.4 0-2 .2-1.5-1-2.8-.6-.7-1.3-1.6-1.8-2.3-1-1.6-1.5-3.5-2.4-5.2-.5 3.2-3.2 3.7-6 4.7-3 1.1-5.2 2.8-7.9 4.4-2.5 1.4-5.3 2.7-7.7 4.2-1 .6-2.5 2-2.8 3.1-.2.6 0 2.9.3 3.1"/><path fill="#F9F6EF" stroke="#AFADA6" stroke-width=".25" d="M29.2 92.7l14.3-7.2L56.4 79s-1.1-.7 3.1 0 37.6 10.9 37.6 10.9 1.1 1.9 0 2.8-26.6 15.6-29 15.4c-2.4-.2-39.4-12.1-39.9-13.3-.6-1.1 1-2.1 1-2.1z"/><path fill="#AD1F62" stroke="#AD1F62" stroke-width=".25" d="M48 99.5l33.9-2.2-4.8-13.4-33.6 1.6z"/><path fill="#722D17" stroke="#80371B" stroke-width=".25" d="M109.4 91.1l1.4.7 1.7-.7-1.3-1.3zm-12.2 8.5l2-.9-1.6-.9-2 .6z"/><path fill="#80371B" stroke="#80371B" stroke-width=".25" d="M106.6 103.3c0 2.4-1.8 9.6-1.8 11.7v14h1.8c0-5.3.1-11.9.6-14.2.8-4.1 3.7-23 3.7-23l-1.3-.7c-.2 0-3 9.8-3 12.2z"/><path fill="#8E4420" stroke="#8E4420" stroke-width=".25" d="M109.8 97.8l-1.9 12.2-1.3 8.8V129h1.1v-9.4c.1-4.3 2.5-18.4 3-21.9.5-3.4 1.8-6.7 1.8-6.7l-1.8.7-.9 6.1z"/><path fill="#80371B" stroke="#80371B" stroke-width=".25" d="M108.8 92.7h1.1l-10.7 6-.5-.3z"/><path fill="#8E4420" stroke="#8E4420" stroke-width=".25" d="M94.4 117.1s2.8 0 6.9-3.2c2.9-2.2 4.1-3.1 4.1-3.1l.9-5.1s-.8 1.6-4.8 3.4c-4 1.9-5.8 2.2-5.8 2.2l-1.3 5.8z"/><path fill="#80371B" stroke="#80371B" stroke-width=".25" d="M92.7 125.7v3.3h1.1l1.8-12.2-1.2.2c0 .1-1.7 5.9-1.7 8.7zm2.9-15.7v1.4s4.2-1.4 5.8-2.2c1.6-.8 4.8-3.4 4.8-3.4l-1.6-.9s-2.2 2.2-4.4 3.3c-2 .9-4.6 1.8-4.6 1.8z"/><path fill="#722D17" stroke="#80371B" stroke-width=".25" d="M99.1 104.2l-.4 5.8h.8l.5-6.3zm3.5-1.5l-1.1 5.4h.6l1.5-6.2zm2.7-2.2l-.6 5.6h.6l1.3-5.6z"/><path fill="#8E4420" stroke="#8E4420" stroke-width=".25" d="M96.2 105.7l10.9-5.7 1.4-6.4-6.2 3.4-3.1 1.7-2 .9z"/><path fill="#81381D" stroke="#81381D" stroke-width=".25" d="M106.3 117.5v4.5l-12.6 7.3.7-4.5s3-1.7 5.6-3.2c2.6-1.4 6.3-4.1 6.3-4.1zm-15 8.8s-10.1-3.2-10.9-3.5c-.9-.3-3.5-1.5-3.5-1.5l-1.2 2.9 15.7 4.8v-2.7z"/><path fill="#8E4420" stroke="#8E4420" stroke-width=".25" d="M73.4 126v2h2.5l.2-4.7-.5-.2zm13 3h2v-.8l-2-.7zm17.9-1.5s-3.4-1-5-1.4c-.8-.2 1-.6 1-.6s4.4.7 4.4 1c0 .2-.4 1-.4 1z"/><path fill="#81381D" stroke="#81381D" stroke-width=".25" d="M104.7 128.2l-.4-.7-5-1.4-.1.4z"/><path fill="#662312" stroke="#662312" stroke-width=".25" d="M82.4 62.1l1.7.7 1.1-.3-1.3-.6z"/><path fill="#8E4420" stroke="#8E4420" stroke-width=".25" d="M79.3 84.5s1.1-9.6 1.4-11.6C81 70.8 82 62.3 82 62.3l2.1.5s-1.2 8.6-1.7 12.1c-.5 3.4-1 10.3-1 10.3l-2.1-.7zm21.1-16.6l1.9.5-3 26-1.7-3.8z"/><path fill="#662312" stroke="#662312" stroke-width=".25" d="M103.6 67.9l-1.3.5-3 26 .8 1.6z"/><path fill="#662312" stroke="#662312" stroke-width=".25" d="M101.8 67.2l1.8.7-1.3.5-1.9-.5zm-16.6-4.7l-2.8 22.6h-1.1L84 63.4l.1-.6z"/><path fill="#8E4420" stroke="#8E4420" stroke-width=".25" d="M84.3 63.4s3.2 1 7.4 2.2c4.2 1.3 8.4 2.7 8.4 2.7l-.8 6.7s-6.1-2.3-8.5-3c-2.4-.7-7.5-1.8-7.6-1.8-.1.1 1.1-6.8 1.1-6.8z"/><path fill="#662312" stroke="#662312" stroke-width=".25" d="M100.4 67.9l-.5.2s-6.7-2.1-8.3-2.6c-1.7-.5-6.8-2-7-2.1-.2-.1 1-.1 1-.1s5.2 1.2 7.8 2c2.5.8 4 1.1 5.1 1.8.5.3 1.9.6 1.9.6"/><path fill="#8E4420" stroke="#8E4420" stroke-width=".25" d="M82.6 77.2s4.5.9 8.4 2.2c3.9 1.3 7.7 2.5 7.7 2.5l-1.1 6.7s-6.2-2.1-8.8-2.9c-2.7-.9-6.3-1.8-6.8-1.8s.6-6.7.6-6.7z"/><path fill="#662312" stroke="#662312" stroke-width=".25" d="M98.4 81.1s-6.3-1.8-8.2-2.4c-1.9-.7-6.6-1.7-7-1.7s-.6.3-.6.3 6.2 1.2 7.6 1.8c1.4.6 8.4 2.9 8.4 2.9l-.2-.9z"/><path fill="#662312" stroke="#662312" stroke-width=".25" d="M95.8 73.7l-.8 7h.8l1-6.6zm-4.2-1.5l-.7 6.7.9.3.9-6.6zm-4.3-1.1l-.7 6.6 1 .2.9-6.5z"/><path fill="#80371B" stroke="#80371B" stroke-width=".25" d="M15.9 72.9s2.4 8.1 2.7 10.9c.3 2.8 2 15.5 2.1 16.7.1 1.2.5 5.2.5 5.2s.3-9.4 0-11.4c-.3-2.1-2.3-15.3-2.6-17-.4-1.8-1.3-5-1.3-5l-1.4.6zm4.7 47.5l.8-.4-.2-8.6-.6.4z"/><path fill="#8E4420" stroke="#8E4420" stroke-width=".25" d="M14.3 72.9h1.6s.6 2.1 1.2 4.3c.6 2.2 1.3 4.5 1.5 6.7.3 2.1 1.2 9.6 1.5 11.8.3 2.2.6 4.6.7 6.3.2 1.7.4 3.8.4 3.8s-.6 9.7-.6 10.1v4.5h-1.1s0-8.5-.3-8.6c-.4-.1-.1-6.4-.2-9.7-.1-3.3-1.9-15.5-2.3-17.6-.4-2.1-1.7-8.5-2-9.4-.2-.7-.4-2.2-.4-2.2z"/><path fill="#722D17" stroke="#80371B" stroke-width=".25" d="M15.9 72l1.5.4-1.5.5h-1.6z"/><path fill="#662312" stroke="#662312" stroke-width=".25" d="M30.2 66.6S24.3 69 22.7 70c-1.6 1-4.9 3-4.9 3l-.4-.6s3-2.2 4.9-3.2c1.9-1 5.8-2.6 5.8-2.6h2.1z"/><path fill="#8E4420" stroke="#8E4420" stroke-width=".25" d="M33.1 86.9s-2.9 1-5.7 2.6c-2.9 1.6-6.3 3.9-6.3 3.9l-1-7s2.7-2 5.7-3.3c3.1-1.3 5.8-3.4 5.8-3.4h1l.5 7.2zm-14.2-7.7s3.3-2.4 5.5-3.2c2.2-.8 7.3-2.9 7.3-2.9l-1.5-6.5s-4.5 1.6-6.4 2.8c-1.9 1.1-6 3.6-6 3.6l1.1 6.2z"/><path fill="#662312" stroke="#662312" stroke-width=".25" d="M31.6 79.8H31s-4.4 2-5.6 2.6c-1.3.7-4.7 2.6-4.7 2.6l-.7.6v.9s4.1-2.5 5.7-3.3c1.7-.8 4.2-1.9 4.2-1.9l2.3-1.5h-.6z"/><path fill="#662312" stroke="#662312" stroke-width=".25" d="M26.6 75.1l1.3 6.6 1.1-.5-1.2-6.7zM23 76.6l1.7 6.5.7-.7-1-6.5zm-2.9 1.7l1.2 6.6 1.1-.6-1.3-6.6zm3.5 17.3l-.8.7s5.8 2.7 7.9 3.3c2.1.6 8.4 2 8.4 2l.5-.9s-7.2-1.2-9.3-2.1c-2.3-1-6.7-3-6.7-3z"/><path fill="#722D17" stroke="#80371B" stroke-width=".25" d="M20.6 95.2l1.4.4 1.3-.9-2.1-.3z"/><path fill="#8E4420" stroke="#8E4420" stroke-width=".25" d="M40.3 107.4s-6.7-1.5-8.6-2.1c-1.9-.5-7.3-2.4-7.5-2.8-.3-.4-1.4-6.3-1.4-6.3s5.5 2.7 7.9 3.3c2.4.6 8 2 8.4 2 .4.1 1.2 5.9 1.2 5.9zm-16.1-1.6c-.8-3.5-2.2-10.3-2.2-10.3l-1.4-.3 2.1 11.3c.4 1.8 1.1 12.2 1.2 15.5.1 1.7.3 3.8.4 6h1.5c.1-4 .2-8.3 0-9.6-.2-2.2-.8-9.1-1.6-12.6z"/><path fill="#80371B" stroke="#80371B" stroke-width=".25" d="M27.2 128c-.1-3.4-.4-8.2-.6-10.4-.3-2.8-1-10.2-1-11.8 0-1.6-2.3-11.1-2.3-11.1l-1.3.9s1.7 8.1 1.9 9c.2.9 1.6 10.6 1.6 11.4.1.7.4 4.4.4 8.4v3.7h1.3z"/><path fill="#8E4420" stroke="#8E4420" stroke-width=".25" d="M33.3 127.8l-.3.2h.7z"/><path fill="#81381D" stroke="#81381D" stroke-width=".25" d="M45.5 127.4c.4.2 3.3 1.2 3.3 1.2.2-.1 9.1-5.1 9.1-5.1l.9-.6v-2.4l-13.3 6.9zm-19.6-4.6l16.4 3.9-.6 1.7-7.4-.1-8.4-2.6z"/><path fill="#80371B" stroke="#80371B" stroke-width=".25" d="M56.4 128h1v-4.3l-1.1.6z"/><path fill="#8E4420" stroke="#8E4420" stroke-width=".25" d="M57.4 128h1.5v-5.2l-1.5.9z"/><path fill="#AD1F62" stroke="#AD1F62" stroke-width=".25" d="M40.3 111.8l18.6 6.7v1.9l-13 6.8-3.3.6-16.7-5.3v-1.6l1.4-1.4z"/><path fill="#AFADA6" stroke="#AFADA6" stroke-width=".25" d="M59.4 118.6v1.2l-13.5 7.3s-.7-.1 2.4-2c3.1-1.9 9.8-5.7 9.8-5.7l1.3-.8zm-33.5 3s7.6 2.3 10.3 3.2c2.7.9 6.5 1.5 6.5 1.5v1s-8.8-2.4-10.1-2.5c-1.3-.2-6-1.9-6-1.9l-.7-.2v-1.1z" opacity=".12"/><path fill="#E2E2E1" stroke="#E2E2E1" stroke-width=".25" d="M59.8 108.5c0 2.4-1.9 9.3.1 11 1.2-.8.9-4.5.9-5.8 0-1.4.9-4.8-1.1-5"/><path fill="#AFADA6" stroke="#AFADA6" stroke-width=".25" d="M90.2 92.6c1.2.2 2.4.9 2.1 2.2-.9 0-2.4-1.3-3.1-1.8.4-.4.9-.6 1.5-.5m-15.1 8.6c1.5-1.1 3.8 1 2.8 1.9-.8-.6-1.6-1.4-2.4-1.9m9.5-3.5c-.6 0-3.1-1.7-3.4-.6-.3 1 2.8 1.4 3.4 1.3-.3-.2-.4-.7-.6-.9" opacity=".12"/><path fill="#E2E2E1" stroke="#E2E2E1" stroke-width=".25" d="M69.8 106c1-1.3 4.5-1.2 3.3-3.3.4.1.8.1 1.2.5 0-.7-.6-1.4.1-1.9 1.2.8 1.5 2.4 3 .6.2.3.3.9.3 1.2-2.6 2.1-6.8 4.6-10.3 4.6 0-.8 1-.9 1.6-1.2m28.1-16.2c-1.1-.1-1.3 1.2-2.3 1.5-.6.2-2.2-.4-2.6-.1-.9.8 1.3 1.1 1 1.9-.1.2-2.6 1.4-3 1.6-.6-.6-2.8-1.9-3.2-.8-.2.7 3.3 3 .6 2.4-1-.2-2.3-2.5-3.8-1.6-1.8 1.2 2 1.4 1.6 2.5-.2.4-3.1 1-3.5.9-.6-.1-2.6-2.6-2.6-.6 0 .6 3.1 2.5.9 2.4-1.4 0-1.2-1.8-3-1.5-.2 1.1 1.3 1.2 1.5 2.2-1.2.3-.5 1.5.5 1.4.7-.1 2.1-1.4 2.9-1.8 2.1-.9 3.9-2 5.7-3.2 1.9-1.3 3.9-2.3 5.9-3.5.9-.5 2.2-.8 2.9-1.5.7-.7 1.4-2-.2-2"/><path fill="#AFADA6" stroke="#AFADA6" stroke-width=".25" d="M27 97.2c-.5-5 6.8-.6 8.1 1.1-2 2.1-6.5-.9-8.4-1.4" opacity=".12"/><path fill="#80371B" stroke="#80371B" stroke-width=".25" d="M43.6 117.9c-.2-3.3-2.9-15.4-2.9-15.4l.2-1h-1.8s1.2 5.7 1.6 8.7c.5 3 .9 7 1 8.5.1 1.5.4 5.4.6 6.3 0 .2.1 1.3.2 3H44c-.1-4.4-.3-8.3-.4-10.1z"/><path fill="#8E4420" stroke="#8E4420" stroke-width=".25" d="M43.5 106.1c-.5-3.3-1.6-5.2-1.6-5.2l-1 .7-.2 1s.5 2.5.6 2.7c.1.2 1 4.7 1.4 6.7.3 1.8 1.5 13.5 1.7 16H46c-.1-2.1-1.4-14.7-1.5-16.1-.2-1.3-.4-2.5-1-5.8z"/><path fill="#80371B" stroke="#80371B" stroke-width=".25" d="M97.2 99.6l2-1s-4.6 24.6-4.8 26.2c-.2 1.5-1.7.8-1.7.8l4.5-26z"/><path fill="#8E4420" stroke="#8E4420" stroke-width=".25" d="M94.3 101.2s-1.2 8.1-2.3 13.8c-1.1 5.7-.5 10.7-.5 10.7v3.3h1.3v-2.7c0-3.8 1.8-13.3 2.9-18.6 1.1-5.3 1.5-8.2 1.5-8.2l-1.5-1.2-1.4 2.9z"/><path fill="#722D17" stroke="#80371B" stroke-width=".25" d="M39.3 101.6h1.6l1-.7-2.1-.3z"/><path fill="#8E4420" stroke="#8E4420" stroke-width=".25" d="M41.3 113.9l.5 5.6s-7.5-1.8-9.9-2.8c-2.4-1-6.4-2.2-6.4-2.2l-.8-6.4s3.1 2.1 7.3 3.3c0 0 3.4 1 5.2 1.6 1.9.5 4.1.9 4.1.9z"/><path fill="#80371B" stroke="#80371B" stroke-width=".25" d="M24.8 108.1l.8-.7s6.2 3.4 8.6 4c2.4.5 6.9 1 6.9 1l.2 1.4s-6.4-1.5-9.1-2.4c-2.8-.9-7.4-3.3-7.4-3.3z"/><path fill="#662312" stroke="#662312" stroke-width=".25" d="M27.3 104v4.5l1.4.6v-4.6m2.6.7v5.4l1.4.5v-5.4m3.4.6v5.6l1.3.6v-5.7"/><path fill="#FFF" d="M9.6 29.8c-2.5 1.6-2 6.6-1 8.9.7 1.6 3.9 6.8 5.7 7.3-1.1-2.5-2.3-5.6-2.7-8-.4-2.4.4-6.8-1.3-8.5"/><path fill="#F3F4F5" d="M11.3 28.4s8.3-.9 10.9-.7c2.6.2 9.3 1.7 9.3 1.7S28.1 42.3 27 43.3c-1.1 1.1-5.4 2.6-5.6 2.5-.4-.1-6.4-3.7-6.4-3.7"/><path fill="#1A1616" d="M21.2 61.4L14 51.6l8.5.2z"/><path fill="#030303" d="M28.9 53.8s-1.8 2.1-2.1 2.8c-.3.8-.5 2.3-.5 2.9 0 .7-.2 2.5.2 3s-.1 1.9 0 2.3c.1.4.5 1.2.2 2.3-.3 1.2-.4 1.9-.1 2.8.3.9.6 1.7 1 2.1.5.4-.9.8-1.2 1.1-.3.3-3.2.7-3.4.8-.3.1-1.3.1-1.5-.1-.2-.2.2-4.1.5-5 .3-.9.2-4.8.2-5.1 0-.3-.3-5.2-.3-5.2v-1.4l-.1-3.1s2.5.5 3.8.4c1.2-.2 3.3-.6 3.3-.6z"/><path fill="#030303" d="M13.4 53.7s2 2.1 2.3 2.8c.3.8.6 2.3.6 2.9 0 .7.2 2.5-.2 3s.1 1.9 0 2.3c-.1.4-.5 1.2-.2 2.3.3 1.2.4 1.9.1 2.8-.3.9-.6 1.7-1.1 2.1-.5.4 1 .8 1.3 1.1.3.3 3.5.7 3.8.8.3.1 1.4.1 1.6-.1.2-.2-.2-4.1-.5-5-.3-.9-.2-4.8-.2-5.1 0-.3.3-5.2.3-5.2V57l.1-3.1s-2.7.5-4.1.4c-1.5-.2-3.8-.6-3.8-.6z"/><path fill="#FFF" d="M18 30l.7 18.9s6.4-.3 7.1-.7c.7-.3 2.8-9.4 2.7-10.4-.2-1-1-8.4-1-8.4L18 30z"/><path fill="#3D2B16" d="M15.7 71.6s-4.8 1.5-4.1 3.5c.7 2 7.7 3 8.2 1.8.5-1.2 1.8-3.3 1.8-3.3s-2.9-1.2-4.3-1.2c-1.5 0-1.6-.8-1.6-.8z"/><path fill="#3D2B16" d="M26 71.5s4.1 1.3 3.6 3.4c-.5 2-6.2 3.3-6.7 2.2-.5-1.2-1.7-3.2-1.7-3.2s2.3-1.3 3.5-1.4c1.2-.2 1.3-1 1.3-1z"/><path fill="none" d="M13.5 50.2s1.4-.2 2.5-.2 1.8-5.2 1.1-5.2-2.3.5-3.4.5-.9 4.2-.9 4.2l.7.7z"/><path fill="#0B0C0C" d="M26.4 64.2s-.3.5-.7.7c-.4.2-.7.7-.3.5.5-.2 1.1-.5 1.1-.5l-.1-.7zm-10.3.1s.2.6.4.6c.3 0 .3.6.3.6l-.5-.1-.3-.3.1-.8z" opacity=".18"/><path fill="#BF272A" stroke="#A12325" stroke-width=".25" d="M20.6 46h3.2l-.5 4-3.4.7z"/><path fill="#FFF" d="M17.4 29.6l3.5 18.5 6-18.6s-3.3-.2-5.3 0c-1.9.2-4.2.1-4.2.1z"/><path fill="#030303" d="M20.3 30.8s-2.4-1.9-3.1-.3c-.7 1.6-.3 4.9 1.1 4.2C19.7 34.1 21 33 21 33s2 1.1 2.2 1.2c.2 0 1.7.5 1.9-.1.2-.6.2-3.6.2-3.6s-.7-.6-1.4-.6-1.6 1.1-1.6 1.1l-2-.2z"/><path fill="#F9D5BC" d="M8 21.8s-.2 4 .4 4.6c.6.7 2.8 2.2 7.8 3 5.8 1 8.6.8 11.3 0 2.3-.7 4.1-1.5 5.2-2.5 1.1-1 1.6-1.6 1.9-2.7.3-1.1.5-2.1.3-2.4-.3-.3.7-4.4.7-5.1 0-3.6-9.3-7.6-14.2-8-4.6-.3-12.8 4.5-12.8 8.9-.1.9-.6 4.2-.6 4.2z"/><path fill="#E1C622" d="M33.7 17.2l2.1 3.6-2.5 2z"/><path fill="#F9D5BC" d="M8 24.4s-1.1.8-1.5.3c-.4-.5-.7-1.7-.6-2.3 0-.6 1.3-2.1 1.6-2 .3 0 1 .1 1 .1L8 24.4zm26.7-4.1s1.1-.9 1.5-.5c.4.5.8 1.6.8 2.2 0 .6-1.1 2.2-1.4 2.2h-1l.1-3.9z"/><ellipse cx="27.1" cy="20.3" fill="#090A0B" rx=".5" ry=".7"/><ellipse cx="16.9" cy="20.6" fill="#090A0B" rx=".5" ry=".7"/><path fill="#F9D5BC" stroke="#E1AC85" d="M20.9 23.8s.3-.9 1.3-.8c1 .1 1.2.8 1.2.8"/><linearGradient id="a" x1="17.903" x2="13.705" y1="25.358" y2="25.358" gradientUnits="userSpaceOnUse"><stop offset="0" stop-color="#ea1b76"/><stop offset="1" stop-color="#fff5cc"/></linearGradient><ellipse cx="15.8" cy="25.4" fill="url(#a)" opacity=".18" rx="2.1" ry="2.4"/><linearGradient id="b" x1="25.99" x2="30.883" y1="25.069" y2="25.069" gradientUnits="userSpaceOnUse"><stop offset="0" stop-color="#ea1b76"/><stop offset="1" stop-color="#fff5cc"/></linearGradient><circle cx="28.4" cy="25.1" r="2.4" fill="url(#b)" opacity=".21"/><path fill="#E1C622" d="M9.6 23.2l-.3-3s2.7-6.6 4.4-6.7c1.8-.2 6.5-1.5 8.3-1.3 1.8.2 5.8.7 7.6 2.5 1.8 1.8 4.3 3.5 4.3 5v2.9l.9-.7s1.1-4.8.5-6c-.9-1.8-7.1-8.2-14-7.1-6.6 1.1-10.5 3.9-11.9 6.2-1.3 2.4-1.5 7.8-1.6 8.4-.1.5 1.4.5 1.4.5l.4-.7z"/><path fill="#E1C622" d="M25.9 10s.6 2.5.1 2.7c-.4.2-7.3 1-9.8 1-2.5 0-4.2 1-4.7 1.5-.6.5-1.8-1.5-1.8-1.5s6.2-5.4 12.2-5c5.9.3 4 1.3 4 1.3z"/><path fill="#E4C279" d="M22.3 26.9s-6.5.1-8.6-.1c-2.1-.2-2.5.1-3.2-1.3-.7-1.4-2.2-2-2.2-2s-.2 1.8.5 3c.8 1.2 8.7 4.3 14.5 3.5 5.8-.8 7.1-1 8.8-2.2 1.7-1.2 2.6-2.2 2.4-2.7-.2-.5-1.8.8-3.7 1.3-1.9.6-8.4.6-8.5.5z"/><path fill="#040505" d="M34.2 21.8l.2 2.5s.2.1.7-.8c.5-.9-.9-1.7-.9-1.7z" opacity=".04"/><ellipse cx="21.9" cy="37.1" fill="#030303" rx=".5" ry=".6"/><circle cx="21.7" cy="36.9" r=".1" fill="#F3F4F5"/><circle cx="22.1" cy="36.9" r=".1" fill="#F3F4F5"/><circle cx="21.7" cy="37.3" r=".1" fill="#F3F4F5"/><path fill="#F3F4F5" d="M22.2 37.3c0 .1 0 .1-.1.1s-.1-.1-.1-.1c0-.1 0-.1.1-.1l.1.1z"/><ellipse cx="21.6" cy="39.6" fill="#030303" rx=".5" ry=".6"/><circle cx="21.5" cy="39.4" r=".1" fill="#F3F4F5"/><circle cx="21.8" cy="39.4" r=".1" fill="#F3F4F5"/><circle cx="21.4" cy="39.8" r=".1" fill="#F3F4F5"/><path fill="#F3F4F5" d="M21.9 39.8c0 .1 0 .1-.1.1s-.1-.1-.1-.1c0-.1 0-.1.1-.1.1-.1.1 0 .1.1z"/><ellipse cx="21.6" cy="42" fill="#030303" rx=".5" ry=".6"/><circle cx="21.5" cy="41.8" r=".1" fill="#F3F4F5"/><circle cx="21.8" cy="41.8" r=".1" fill="#F3F4F5"/><circle cx="21.5" cy="42.2" r=".1" fill="#F3F4F5"/><path fill="#F3F4F5" d="M21.9 42.2c0 .1 0 .1-.1.1s-.1 0-.1-.1 0-.1.1-.1.1.1.1.1z"/><path fill="#FFF" d="M14.1 72.9c-.3-.5-.8.7-.8 1 0 .8.7.8 1.3 1.1-.6.5-1.7.3-2-.5-.3-.6.1-.6.5-1 .4-.3.5-.7 1.1-.8m13.5 2.7c.8.2.9-1.5.9-1.9.9 1 .3 2-1 2.2" opacity=".13"/><path fill="#030303" d="M13.2 27.9c-1.3.3-2.6.7-3.9 1.2.6 3.8.9 7 1.6 11 1.2 5.9 3.7 6.7 1.6 11.6 3.6-.6 12.1 2 14.8-.2 1.3-1.1 1.9-5 2.2-6.5.6-2.5 1.1-4.8 1.9-7.3.6-2 1.7-5.4.6-7.4-2-3.7-6.4 2.5-4.1.4 1.3-1.2-4.8 11.8-6.9 11.4-2.5-.4-5-10-6.4-12"/><path fill="#030303" d="M12.7 51.8c-.8 2.3 3.1 3.7 4.9 4.1 1.2.3 2.5.5 3.8.6 1.5 0 2.7-.3 4.2-.7 1-.3 2.8-.7 3.1-1.8.2-.7 0-2-.1-2.7 0-.5.2-2.3-.3-2.6-.6-.3-2.9.5-3.6.6-1 .1-2 .3-3 .5-1.3.2-2.5 0-3.8-.1-1.7-.2-3.3-.9-4.9-1.1 0 .8.2 1-.2 1.8-.3.6-.7 1.3-.4 2"/><path fill="#FFF" d="M32.2 29.3c.6.5 1.2.9 1.3 1.7 0 .3-.1.6 0 .9.1.4.2.5.5.8.3.3.4.4.3.9-.1.3-.5.6-.4 1 .1.3.5.3.7.5.2.3-.2.7-.2 1 0 .5.7.8.6 1.5 0 .3-.4.5-.2.8.2.4.5.4.6.9.2 1.3-.5 3-1.4 4-.8.9-1.6 1.5-2.8 1.3-.5-.1-1-.1-1.6-.3-.6-.1-1-.4-1.5-.5-1.3-.2-2.6-.5-3.9-.5-1 0-1.8-.6-2.8-.6-.1-.6.1-1.3.2-1.9.1-.5.1-1.5.4-2 .4 0 .7.3 1.1.3h1.2c.4 0 .8-.1 1.2-.1l1.2.3c.9.1 3.7.5 4-.6.3-1.1-.1-2.5 0-3.5.1-1.3.4-2.4.8-3.6.2-.6.3-1.9 1-2.2"/><path fill="#F9D5BC" d="M21.5 39.3c-.4-.4-1.6-.5-2.2-.4-.9.1-1.7.6-2.5 1-.3.2-2.4 1.4-1.2 1.4.6 0 1.5-.7 2.1-.9-.4.2-2.6.7-2.3 1.4.2.5 1.9-.3 2.3-.4-.2.1-2.4 1.3-1.4 1.4.7.1 1.5-.7 2.2-.7-.3.4-1.8.5-1.7 1.2.7.1 1.6-.4 2.3-.5.8-.1 1.9-.3 2.2-1.1.2-.6.2-1.8-.2-2.2-.5-.5-1.7-.6-2.4-.3"/><path fill="#AD1F62" stroke="#AD1F62" stroke-width=".25" d="M23.6 52.8l5.7-.2s-.7-8.5-.8-10.3c-.1-1.9 0-3.2 0-3.2l-5.9-.3.6 8.1c0 2.7.4 5.9.4 5.9z"/><path fill="#FFF" d="M26.9 24.9s-3.8 2.5-4.6 2.9c-.8.4-5-2.3-5-2.3s.6.4 5 .3c4.4-.3 4.6-.9 4.6-.9z"/><linearGradient id="c" x1="96.02" x2="120.176" y1="-413.43" y2="-413.43" gradientTransform="rotate(9.6 -2758.736 -317.565)" gradientUnits="userSpaceOnUse"><stop offset="0" stop-color="#756147"/><stop offset=".973" stop-color="#9f5729"/></linearGradient><path fill="url(#c)" d="M96.3 65c-2.3-2-5.2-4.5-7.1-5.2-3.4-1.4-6.7-6.1-9.3-6-2.6.1-6 .9-6 .9s-1.6 5.9-1.6 7.6c0 1.7.6 4.9.3 7.1-.1.6-.6 2.1-.4 2.8.2.8 1.1 2.2 3.5 2.9 2.3.7 5.7.4 7 .3 1.7-.1 9-1 12-1.9l1.6-8.5z"/><linearGradient id="d" x1="615.566" x2="625.67" y1="-297.903" y2="-297.903" gradientTransform="matrix(-.7446 .0314 .0477 .9994 563.882 350.84)" gradientUnits="userSpaceOnUse"><stop offset="0" stop-color="#ea1b76"/><stop offset="1" stop-color="#fff5cc"/></linearGradient><path fill="url(#d)" d="M91.3 72.4c.1 2-1.6 3.8-3.7 3.9-2.1.1-3.8-1.4-3.9-3.5-.1-2 1.6-3.8 3.7-3.9 2.1-.1 3.9 1.4 3.9 3.5z" opacity=".13"/><path fill="#090A0B" d="M77 65.1c0 .5.2.8.5.9.3 0 .7-.3.7-.8s-.2-.8-.5-.9c-.3 0-.6.3-.7.8zm7.5 1c0 .5.2.8.5.9.3 0 .7-.3.7-.8s-.2-.8-.5-.9c-.4 0-.7.4-.7.8z"/><path fill="#FFF" stroke="#090A0A" stroke-width=".25" d="M88.5 49.9c-.9 1-5.8 1.4-4.5 0 .5-.5 2.4-.2 3.1-.4 1-.2 2-.6 2.9-1.1-.8.5-1.3 1.3-2.1 1.7" opacity=".13"/><path fill="none" stroke="#010101" stroke-width=".25" d="M82 68.1s-.4-.9-1.5-.7c-1.1.2-1.3.9-1.3.9"/><path fill="#090A0A" stroke="#090A0A" stroke-width=".25" d="M81.2 72.3c-.7-.8-1.5-1.1-2.6-.8-.4.1-1.1.7-.9 0 .1-.4 1-.7 1.3-.8 1.2-.2 2.3.1 3.2.8.4.3 1 .6 1.3 1 .3.5.1.8.1 1.1"/><linearGradient id="e" x1="89.416" x2="91.558" y1="-406.062" y2="-406.062" gradientTransform="rotate(9.6 -2758.736 -317.565)" gradientUnits="userSpaceOnUse"><stop offset="0" stop-color="#756147"/><stop offset=".973" stop-color="#9f5729"/></linearGradient><path fill="url(#e)" stroke="#502616" stroke-width=".25" d="M64.2 70.3c.8-2.7 2.4-1.3 2.1.7"/><g stroke-width=".25"><path fill="#D3D1D0" stroke="#D3D1D0" d="M60.6 71s1.2-1.3 2.7-.9c1.5.4 4.8 1.2 5.7 1.6.9.4 5.2.8 5.2.8l.3.6s-5.9-.5-7.1-.7c-1.2-.2-4.4-.3-5.7-.9-1.4-.4-1.1-.5-1.1-.5z"/><path fill="#B3B2B2" stroke="#B3B2B2" d="M81.8 74.4c-.2.9-2 1.3-4.2.9-2.2-.3-3.8-1.3-3.6-2.2.2-.9 2-1.3 4.2-.9 2.1.3 3.7 1.3 3.6 2.2z"/><path fill="#D3D1D0" stroke="#D3D1D0" d="M82.1 73.8c-.1.7-2 1-4.2.6-2.2-.3-3.8-1.2-3.7-1.9.1-.7 2-1 4.2-.6 2.1.4 3.8 1.2 3.7 1.9z"/><path fill="#B3B2B2" stroke="#B3B2B2" d="M80.4 73.7c-.1.4-1.2.6-2.6.4-1.3-.2-2.4-.7-2.3-1.2.1-.4 1.2-.6 2.6-.4 1.3.2 2.3.7 2.3 1.2zm-19.8-2.4s1.6.4 6 1.1c3 .5 7.3 1.2 7.3 1.2l.1-.5s-6.4-.7-7.6-.9c-1.2-.2-5.8-.9-5.8-.9z"/></g><linearGradient id="f" x1="91.796" x2="102.269" y1="-397.422" y2="-397.422" gradientTransform="rotate(9.6 -2758.736 -317.565)" gradientUnits="userSpaceOnUse"><stop offset="0" stop-color="#756147"/><stop offset=".973" stop-color="#9f5729"/></linearGradient><path fill="url(#f)" stroke="#502616" stroke-width=".25" d="M75.6 79.8c-2.7 1-6 3.5-9 2.3-4.7-1.9 1.7-6 4.6-5.9"/><linearGradient id="g" x1="88.842" x2="95.745" y1="-398.928" y2="-398.928" gradientTransform="rotate(9.6 -2758.736 -317.565)" gradientUnits="userSpaceOnUse"><stop offset="0" stop-color="#756147"/><stop offset=".973" stop-color="#9f5729"/></linearGradient><path fill="url(#g)" d="M63.3 71.9c.5 2.9-.8 8.2 3.1 10 2.9 1.3 2.4-1.7 2.3-3.5-.1-1.8-.8-1.8-1.4-3.4"/><linearGradient id="h" x1="88.581" x2="95.472" y1="-403.09" y2="-403.09" gradientTransform="rotate(9.6 -2758.736 -317.565)" gradientUnits="userSpaceOnUse"><stop offset="0" stop-color="#756147"/><stop offset=".973" stop-color="#9f5729"/></linearGradient><path fill="url(#h)" stroke="#502616" stroke-width=".25" d="M64.4 70.6s-1.6 1.1-1.5 2.7c.1 1.6.7 2.2 1.7 2.4 1 .2 3.6-.3 4.4-.4.8-.1 1-1.5-.1-1.8-1-.2.5.2.5-.7 0-.9-.2-1.3-1.2-1.2-.9.1.7 0 .7 0s.5-.8-.9-1.3c-1.4-.4-3.6.3-3.6.3z"/><linearGradient id="i" x1="89.523" x2="93.962" y1="-400.48" y2="-400.48" gradientTransform="rotate(9.6 -2758.736 -317.565)" gradientUnits="userSpaceOnUse"><stop offset="0" stop-color="#756147"/><stop offset=".973" stop-color="#9f5729"/></linearGradient><path fill="url(#i)" d="M63.7 74.6s-.4.2-.2.9c.2.6.5 1 .7 1.1.2.1 1.5 0 1.5 0s.9.1 1.3-.3.8-.9.8-.9l.2-.7-1.4-.2s-1.3-.2-1.6-.3c-.3-.1-1.3.4-1.3.4z"/><path fill="#EC9648" d="M78.7 72.5c-.8-.8-1.9.3-.8.8-.2.1-.6.4-.8.5.4.6 1.9.6 2.5.8.2-.8.9-.4 1.4-.6 0-.5-.3-.8-.8-.9 0-.1.1-.2.1-.2-.6-.4-1.3-.6-1.9-.4"/><path fill="#090A0A" stroke="#090A0A" stroke-width=".25" d="M99.8 51.4c-.1-.1-.2-.1-.3-.2-1.2-.7-1.7-.9-2.6-1.9-.8-.8-1.3-1.2-2.6-.9 1.2-2.6-5.7-4.9-6.7-2.5-1.4-2.7-4.3-1.5-5.7.7-.1-.2-.2-.3-.3-.5-.9.3-.9 1-1.7 1.5-1.6-1.1-2.8-2.4-4.2.2-.9 1.7-1.4 3.5-3.9 2.4-.4.5-1 1.5-1.1 2.1-.2 1.3.7 1.1 1.1 2.2-1.3.8-3.3-.1-4.3.6-2.3 1.5.7 2.6 1.8 2.9-.4 1.3-3.5 1.5-1.5 3 .5.4 1.3.2 1.8.6-.2.5 0 1 .4 1.3-.1.4-.4.7-.6 1.1.5.5 1.3.5 2 .6-.2.6-.6 1.2-.7 1.8 1 .5 2.3.1 2.6-1 .3-1-.5-1.2-1-1.7 2.4-.2 1.6-2.4 3.3-2.9 1-.4 1.2.6 2 .6 1.1-.1 1.3-.9 2.1-1.4.4-.2 1.5-.6 2-.6 1.1.2 1 1.1 2 1.4 1.6.4 2.6-1.5 3.8-2.1.5-.2 1.4-.6 2-.5 1.1 0 1.2.9 2.1 1 2.1.2 2.3-2.5 3.9-2.6 1.2 0 .7 1.1 1.6 1.2 1 .1 1.4-.9 1.3-1.5.4-.2.7-.3.9-.3l.5-4.6z"/><path fill="#090A0A" stroke="#090A0A" stroke-width=".25" d="M88.2 58.3c-.7.1-1.1.7-1 1.3 1.5.3 3.3.5 4.3 1.8 1.1 1.4.1 2.6-.4 3.9.7.4 1.8 1.4 1.9 2.2.1 1-1.4 1.6-1.4 2.5 0 .6.7 1 .8 1.3.1.4 0 1 .2 1.3.5.8.9 1.1 2.2 1 1.4-.1 1.4-1.2 2.4-1.5 1.1-.3 1.6 1 2.6.7.7-.2.9-1.5.9-2.2-.1-1.5-.9-1.7 0-3 .2-.3.9-.1 1.1-.7.1-.5-.5-1.2-.7-1.6-.4-1-.4-1.9.1-2.9.6-1.3 1.5-1.7.8-3.2-.4-.8-1.1-2.2-1.5-2.9-.5-.7-1.3-1.1-1.8-1.9-.5-.7-.4-2.3-1.4-2.9-1.4-.8-1.7.7-2.9 1.2s-1.9-.6-2.8-.4c-.9.2-.9 1.3-1.2 1.9-.2.4-.3.6-.6 1-.3.3-.7 0-1 .3-.5.6 0 1.3-.3 1.9-.3.5-1.1.9-1.5 1.5"/><path fill="#4CB859" stroke="#4CB859" stroke-width=".25" d="M93.1 73.8c2.1.7 1.8 6.1 1.7 7.9-.3 2.5-1.4 5.1-1.2 7.6-.5-1.5-4.2-1.4-5.6-2-1.9-.7-2.8-1.2-4.9-1.8-4-1.2-8.3-1.6-12.1-3.4 1.1-.6 1.7-1.4 4.4-2.1-1.5-.4-2.6-2.6-3.9-3.6-1.1-.8-1.3-.5-.5-1.5.5-.6 1.3-1.8 1.9-2.4.5 2.8 7.3 3.1 9.6 3 2-.1 3.8-.3 5.6-.7 1.3-.3 3.9-1.4 5.1-.8"/><path fill="none" stroke="#2CB04C" stroke-width=".25" d="M85.8 81.2c-.1.1-.3.2-.5.3"/><ellipse cx="54.8" cy="97.4" fill="#25275C" stroke="#25275C" rx="11.2" ry="2.6" transform="translate(-.14 .078)"/><ellipse cx="54.9" cy="97.3" fill="#FFF" rx="10.3" ry="2" transform="translate(-.145 .082)"/><ellipse cx="54.9" cy="97.1" fill="#EBE8E8" rx="9.1" ry="1.8" transform="translate(-.138 .078)"/><path fill="#FFF" d="M50.6 97.4c0-.3-.1-.8.1-1.1.3-.3.7.1 1.1-.2-.4-.5-.4-1-.4-1.5-.3.1-.7.2-.9.4.2-.4.2-.8-.2-1-.4.5-.3 1.3-.6 1.8 0-.6-.1-1.2-.7-1.5-.2.6.4 1.5 1 1.8 0 .5.4 1 .6 1.5" opacity=".03"/><path fill="#5E9942" d="M54.7 96.7s-.1 0 0 0c.2.1.3.1.4.1.1 0 .6 0 .8-.1h.4c.1 0 .1-.1.2 0 .1 0 .3.1.3.1l.2-.1s0-.2.1-.2.1-.1.2-.1c0 0 .1-.4.1-.5 0 0 0-.1.1-.2 0-.1.1-.1.1-.2-.1-.1-.1-.2-.2-.2s-.2-.1-.2-.1l-.1-.2h-.2l-.2-.2-.2-.1s-.2-.1-.3-.1h-.1l-.2.1c-.1 0-.1.1-.1.1h-.3c0 .1-.1.2-.1.2h-.1c-.1 0 0 .1 0 .1h-.2s-.2 0-.2.1-.1.1-.1.2.1.2.1.2l.1.1s.2.3.1.1c0 0 .1.3.1.1l.1.1s0 .1-.1.2l-.1.1-.4.4z"/><path fill="#F8E813" d="M54.9 96.8c0-.1.2 0 .3-.1.1 0 .2-.1.2-.1h.1v-.1l-.3.1H55v-.1l.3-.1h.5l.1.1v-.1h.3c.1 0 .2.1.1 0s-.1-.1-.2-.1c-.1.1-.5-.3-.4-.3h.6s-.1-.1-.2 0c-.1 0-.3.1-.2 0 .1-.1.2-.1.2-.1h.2l.1-.1.1-.1h.2l.3.1.1.1v-.1l-.6-.2.2-.1h.1l.2.1h.1l-.4-.1-.3.1s-.2 0-.2.1-.1.1-.1.1H56v-.4s0-.1-.1-.1v-.2l-.1-.1s-.1 0 0 0c0 0 .2.4.2.5 0 .1.1.2 0 .4-.1.1-.3.2-.3.2l-.1.1v-.3l-.1-.1-.1-.1-.1-.1v-.1c0-.1-.1-.2-.1-.2s-.2.1 0 .1c.1.1.2.2.1.2H55l.4.1s.1.2.2.3c.1.1 0 .2 0 .2s0 .1-.1.1c0 .1-.2.3-.2.3l.1-.2c0-.1-.2-.3-.2-.4l-.1-.1c-.1 0-.1-.1-.2-.1s-.2-.1-.2-.1v.1h.2c.1 0 .5.4.4.4-.1.1-.1.1-.1.2v.1s-.2 0-.1.1c0 .1-.1.1-.1.1l-.1.1-.1.1-.1.1.1.1.1-.3z" opacity=".25"/><path fill="#F8E813" d="M57.2 96.1c-.1-.2-.4-.2-.5-.4.1 0 .2.1.2.1.1 0 .2 0 .2.1h-.2c.1.1.4.1.3.2m-.8-.1c0-.2.4.1.5.1-.1-.1-.2-.1-.4-.1 0 0 .1 0 .2-.1-.1 0-.5.1-.5.1.1 0 .3.1.4.1 0 0-.2 0-.2-.1" opacity=".25"/><path fill="none" stroke="#71BE46" stroke-width=".25" d="M54.8 96.7c.1-.1.2-.3.4-.4.2-.1.4-.2.5-.4.1-.2.3-.3.5-.4.1 0 .2-.1.3-.1.1 0 .3 0 .4-.1"/><path fill="#F8E813" d="M56.8 95.3c0-.1-.2-.3-.1-.3s.1.1.1.3c.1 0 .1 0 .1.1 0 0 .1 0 .1.1-.1-.1-.1-.2-.2-.2 0 0 0-.1 0 0" opacity=".25"/><path fill="none" stroke="#71BE46" stroke-width=".25" d="M55.1 96.3c.1-.1.2-.3.1-.5s-.3-.4-.5-.4m.2 1.2l.1.1c.1 0 .2 0 .3-.1m.1-.4c.1-.1.2 0 .3 0 .1 0 .1.1.2.1h.1m-.2-.3h.2m.3 0c.1 0 .2 0 .4-.1m0-.1s.1 0 .1.1c.1 0 .2 0 .2.1h-.2c.1.1.3.1.3.2m.1-.5c-.1-.1-.2-.1-.3-.2-.1 0-.3 0-.4-.1m-.3.2c-.1-.1-.1-.3-.1-.4 0-.1-.1-.1-.1-.2s0-.2-.1-.2m-.5 1.3c.1-.2.2-.3.2-.5 0-.1-.2-.2-.2-.3v-.1c0-.1-.1-.1-.2-.2m1.6.4c0-.1.1-.1.1-.1 0-.1-.1-.1-.1-.2m-1.8.1c.1 0 .2.1.3.1"/><path fill="#111" stroke="#71BE46" stroke-width=".25" d="M54.8 96.5V96c.1-.2.1 0 .2 0s0-.2.2-.2v-.1c.1-.1.2 0 .2.1.1 0 .1-.1.1-.2l.2-.2c0 .1 0 .2-.1.3l-.3.3c0 .3-.4.3-.5.5 0-.1 0-.2.1-.3" opacity=".06"/><path fill="#111" stroke="#71BE46" stroke-width=".25" d="M55.1 96.5c.1-.2.3 0 .5 0l.2-.1c0-.1-.1-.1-.2-.1.1-.1.4-.1.4-.2s-.2-.2 0-.2h.5c-.1-.1-.1-.2 0-.2s.2.1.3.1c-.2-.1-.1-.2 0-.2h.4c-.1 0-.2-.1-.1-.2.4 0 .2.5.2.6-.1.2-.2.4-.5.5-.3.1-.6.2-1 .2-.3 0-.6.1-.9 0 0-.1.2-.2.2-.2" opacity=".02"/><path fill="#111" stroke="#71BE46" stroke-width=".25" d="M56.4 96.7c.1-.1.3-.1.4-.2 0 .1 0 .2-.1.2 0 .1-.1 0-.3 0" opacity=".06"/><path fill="none" stroke="#F8E813" stroke-width=".25" d="M56.3 96.6c.1-.1.3 0 .5-.1.2 0 .3-.1.4-.3" opacity=".25"/><path fill="#5E9942" d="M55.8 96.1s.1 0 0 0c-.1-.2-.2-.3-.3-.3-.1 0-.5-.4-.6-.4l-.3-.3c-.1-.1-.1 0-.2-.1l-.2-.2-.2-.1s-.1.1-.2.1h-.2l-.4.3c-.1 0-.1 0-.2.1s-.2 0-.2.1v.3c0 .1.1.2.1.2v.2l.1.1v.2l.1.2s.1.2.2.2c0 .1.1.1.1.1s.2 0 .2.1h.2c.1 0 .2.1.2.1l.2-.1.1.1c.1 0 .1-.1.1-.1h.1l.2.1s.1.1.2 0c.1 0 .2 0 .2-.1s.1-.2.1-.3v-.3s.1-.3.1-.1v-.1s.1-.1.2-.1h.1l.2.1z"/><path fill="#F8E813" d="M55.7 95.9c-.1.1-.2-.1-.2-.1h-.4l.2.1h.1l.1.1-.1.1-.3-.1-.2-.1-.1-.1v-.2h-.1s-.1 0-.1-.1v-.1c-.1-.1-.1-.2-.1-.1s0 .2.1.2.2.5.2.5c-.1 0-.1-.1-.2-.1 0 0-.1-.1-.2-.1l-.1-.1s0 .1.1.1c0 0 .3.1.1.1h-.3l-.2.1h-.4l-.1-.1-.2-.3v-.2h-.1l.3.5-.2-.1h-.1l-.2-.2v-.1l.2.3.3.2s.1.1.2 0 .1 0 .1 0v.2s0 .1-.1.1l-.1.1-.1.1v.4s.1.1 0 0c0 0 .2-.4.2-.5 0-.1.1-.3.3-.3h.5l-.1.1s-.1.1-.1.2v.5c0 .1-.1.2 0 .2s.2.1.1-.1c-.1-.1 0-.3 0-.2l.1.1s0 .1.1.1c0 .1.1.1.1.1l-.2-.3s.1-.2.1-.4c0-.1.2-.2.2-.2s.1 0 .1-.1c.1 0 .4-.1.4-.1l-.2.1-.1.4v.1c0 .1 0 .2.1.2 0 .1.1.1.1.1v-.1l-.1-.1c-.1-.1-.1-.6 0-.6s.1 0 .2-.1h.1s.1.1.2 0c0-.1.2 0 .2 0h.3v-.1h-.4z" opacity=".25"/><path fill="#F8E813" d="M53.5 95c-.1.2.2.4.1.6-.1-.1 0-.2-.1-.2 0-.1-.1-.1-.1-.2l.1.1c0-.1-.2-.3 0-.3m.6.6c-.1.1-.2-.3-.4-.4 0 .1.1.2.2.3-.1 0-.1-.1-.2 0 0 .1.4.3.5.2 0-.1-.2-.3-.2-.3-.1 0 .1.1.1.2" opacity=".25"/><path fill="none" stroke="#71BE46" stroke-width=".25" d="M55.7 96c-.1.1-.4.1-.6.1-.3-.1-.4-.1-.7 0h-.6c-.1 0-.2-.1-.3-.1-.1 0-.2-.2-.3-.2"/><path fill="#F8E813" d="M53.2 95.9c-.1.1-.1.3-.1.3-.1-.1 0-.2.1-.3-.1 0-.1 0-.1-.1s-.1-.1-.1-.1c.1 0 .1.2.2.2" opacity=".25"/><path fill="none" stroke="#71BE46" stroke-width=".25" d="M55.3 96.1c-.2 0-.3.1-.4.3 0 .2 0 .5.1.7m.5-1.1v-.1c-.1-.1-.2-.1-.2-.1m-.4.2c-.2 0-.2-.1-.2-.2s0-.1-.1-.2-.1 0-.2-.1c0 0 .1 0 .1.1m0 .4c-.1 0-.1 0-.1-.1m-.3-.2c-.1 0-.2-.1-.3-.2m-.2 0c0 .1 0 .1 0 0v-.1c0-.1-.1-.1-.1-.2 0 .1.1.1.1.2 0-.1-.1-.2 0-.3m-.4.2c0 .1.1.2.1.3.1.1.2.2.2.3m.4.1c0 .1-.2.3-.2.3 0 .1 0 .2-.1.2 0 .1-.1.1-.1.2m1.4-.6c-.2.1-.4.1-.5.3v.4c0 .1-.1.1-.1.1v.2m-1-1.3c0 .1-.1 0-.1.1s0 .1-.1.2m1.4 1c-.1-.1-.1-.2-.2-.3"/><path fill="#111" stroke="#71BE46" stroke-width=".25" d="M55.5 96.2c0 .1-.1.1-.2.2s-.1.2-.2.2c-.2.1 0-.1-.1-.2s-.1.2-.2 0l-.1.1c-.1 0-.1-.1-.1-.2-.1 0-.1 0-.2.1h-.3c.1-.1.1-.2.3-.2.1 0 .3 0 .4-.1.2 0 .5.1.7.1 0 0-.1.1-.3.2" opacity=".06"/><path fill="#111" stroke="#71BE46" stroke-width=".25" d="M55.3 96c-.2.1-.3-.2-.4-.3l-.2-.1c-.1 0 0 .1.1.2-.1 0-.4-.2-.5-.1.1.1.2.3 0 .2l-.2-.1c-.1 0-.1-.1-.2-.1 0 .1 0 .2-.2.1-.1 0-.1-.1-.2-.2.1.2 0 .2-.2.1l-.3-.3c0 .1.1.2 0 .2-.3-.2.2-.5.3-.6.2-.1.4-.2.7-.1.3.1.6.2.9.4.2.2.5.3.7.6 0 .1-.2.1-.3.1" opacity=".02"/><path fill="#111" stroke="#71BE46" stroke-width=".25" d="M54.4 95.1c-.1 0-.3-.2-.4-.2 0-.1.1-.2.2-.1.1 0 .2.2.2.3" opacity=".06"/><path fill="none" stroke="#F8E813" stroke-width=".25" d="M54.6 95.2c-.1 0-.3-.2-.4-.3-.2-.1-.3-.1-.5 0" opacity=".25"/><path fill="#FFF8EF" d="M54.4 96.6c-.1-.1.1.3.1 0h-.1m.2-.2c-.1 0-.2 0-.2.1s.2.1.2-.1m1.8-1.4c-.1-.1.1.3.1 0h-.1" opacity=".32"/><path fill="#C4C3C1" d="M48 96.4s.4-.4.8-.5c.4-.2 1.4-.3 1.9-.3s1.1 0 1.5.1c.5.2 1 .6 1.5.9.5.4.9.7 1.4 1 .5.2.8.4 1.2.5l.8.2s.4-.1.6-.1c.2.1 1 0 1 0s.1.3-.3.5c-.3.2-.7.3-.8.4-.1.1-.1.1 0 .2.1.2 0 .5.1.6v.1s-.4-.1-.5-.1c-.1-.1-.6-.5-.8-.6 0 0-.1 0-.3-.1l-.2-.1s-.3-.1-.9 0c-.6.1-.8.2-1.3.2s-1.3.2-2 0-1.5-.5-1.9-.7c-.4-.3-.9-.8-1.2-1-.3-.2-.8-.5-.8-.6 0-.1-.1-.3 0-.3s0-.1.3 0 .2-.1.2-.1l-.3-.2z"/><path fill="#708F9C" d="M57 98.6c-.3.1-.9-.1-1.2-.2-.4-.1-.9-.1-1.3-.3-.5-.2-1.1-.6-1.6-.9-.2-.1-.4-.1-.6-.2-.2-.1-.3-.3-.5-.3-.4-.2-1.3-.3-1.6 0-.2.2-.2.4-.4.6l-.5.5h.2l-.1.1c.4 0 .9-.3 1.3-.2.5.1.9.3 1.4.4.5.1 1 .2 1.4.3.4.1.9 0 1.3.3.2.1.2.2.4.3.2.1.3 0 .5 0 .4-.2 1 0 1.3-.4" opacity=".41"/><path fill="#D5C49B" d="M48 97.2c.3-.7 1.6 1.1 1.8 1.2.7.5 1.6.6 2.4.7 1 .1 1.9-.1 2.9-.2.3 0 1 .1 1.2.4.2.3-.1.2-.3.1-.2 0-.4-.1-.7-.1-.4 0-.8.1-1.2.2-.4.1-.9.1-1.3.2-.4 0-1 0-1.4-.2-.4-.2-.6-.2-.9-.3-.8-.3-1.3-.9-1.9-1.3-.1-.4-.4-.6-.6-.7" opacity=".53"/><path fill="none" stroke="#616263" d="M56.8 99l.8.3m-.9-.1l.9.4m-.7-.2l.8.4m-.7-1l.7.3m-.6-.4h1m-.8-.2l1.1-.2m-.8.3l.9-.1m-1.4.2l1.5-.3m-1.3 0h1.3m-1.3.3l.8.3m-1-.1l.8.4m-.8-.4l.7.5m-1-.4l1 .4m-1.1-.2l1.1.4m-.9-.2l.9.6m-.7-.5l.1.2m0 0l.6.4"/><path fill="none" stroke="#AAAAAB" d="M50 96.4c-.2.2-.4.5-.7.7-.4.2-.5-.1-.9-.3v-.1"/><path fill="#B3B3B3" d="M49.9 96.1c-.2-.2-.4-.3-.7-.3-.2 0 .1-.1.7-.2.8-.2 1.7-.1 2.5.2.5.2.6.4 1 .7.7.4 1.4.9 2.1 1.3.5.3 1 .4 1.5.5-.3.3-1.3-.1-1.7-.1-.4-.1-.9-.3-1.3-.5-.4-.3-.8-.6-1.3-.8-.4-.2-1-.4-1.4-.4-.2 0-.5-.2-.7-.2-.2-.1-.5 0-.7-.2z" opacity=".41"/><path fill="#FFF" d="M49.3 97.8c.5-.5.7-.5 1.3-.1.4.2.9.5 1.4.6h.8c.3 0 .5.2.7.2.4 0 1.1-.4 1.4.1-.6.7-2.3.6-3 .5-.6-.1-2.5-.4-2.6-1" opacity=".42"/><path fill="#B39A65" d="M56.5 98.6c-.3-.1-.7-.3-1-.2-.4 0-.4.3 0 .5-.4.2-.9-.4-1.3-.5-.5-.2-1-.3-1.5-.4-.5-.2-.9-.4-1.4-.6-.6-.3-.9-.2-1.6-.2.9-.8 2.1-.6 3 0 .5.4.5.5 1.1.7.5.1 1 .5 1.5.5" opacity=".49"/><path fill="#708F9C" d="M58.1 98.9c.3-.2.9-.3.7-.8-.7 0-1.4.1-2 .1.4.5.1.8-.2 1.3.4.4.9.2 1.2.8 0-.4-.1-1.3.6-1.2" opacity=".41"/><path fill="none" d="M54.9 98c-.8.1-1.5-.7-2.3-.8-.7-.1-1.7-.5-2.4-.5.1-.6 1.4-.6 1.8-.5.7.2 1.1.9 1.9 1.2.3.1.7.1 1 .2.1 0 .9.2 1 .2.3.3 0 .5-.3.6-.4 0-.5-.5-1-.2"/><path fill="#5E7F88" d="M49.6 97.8c-.1 0-.2 0 0 0 .1 0 .3-.1.5-.2.2-.2 0-.4.1-.6.2-.3.8-.3.8-.8-.3.2-.7.4-1 .6-.3.4-.2.7-.7.9.1.2.1.2.3.1" opacity=".41"/><path fill="#708F9C" d="M57.7 99c.4-.3 1.1-.3 1.1-.9-.6.1-1.1.3-1.8.3-.6 0-.9-.3-1.4-.4 0 .2-.1.3 0 .5h-.3c-.1.2-.2.3-.2.5 1.2-.4 1.6.9 2.7 1.1-.1-.4 0-.8.1-1.1" opacity=".41"/><path fill="#B3B3B3" d="M55 98.9c-.4-.8-1.7-.8-2.4-.9-.9-.2-1.5-1-2.4-.9.3-1.2 1.7-.2 2.4.2.8.5 1.8 1.1 2.8 1-.1.1-.2.3-.3.5.4-.1.8-.3 1.2 0-.4.1-1.1.3-1.4.1" opacity=".57"/><path fill="#708F9C" d="M58.3 98.7c-.1-.1-.3-.3-.3-.4" opacity=".41"/><path fill="none" d="M57.7 99.7c-.1.1-.2.1-.2.1m.6-1.5h.3"/><path fill="#708F9C" d="M57.9 98.7c.1-.2.6-.2.9-.4-.3-.3-1.7.1-1.9.3-.4.4-.2.5.1.8.2.2.7.7 1 .6 0-.3-.2-.6-.3-.8.2-.1.4-.2.6-.2" opacity=".67"/><path fill="#FFF" d="M53.3 98.6c-.6.1-1.1 0-1.7-.2-.2-.1-1.3-.6-1.5-.4.3.5.9.5 1.4.7.6.1 1.1 0 1.8-.1" opacity=".42"/><pattern id="j" patternTransform="matrix(.7395 0 0 .6987 -2093.124 -2464.114)" xlink:href="#j"/><pattern id="k" patternTransform="matrix(.7395 0 0 .6987 -2131.417 -2396.208)" xlink:href="#k"/><path fill="url(#j)" stroke="url(#k)" d="M49.4 98.3c.2.1.7-.3.7-.5.1-.3-.2-.6 0-.8.2-.2.7-.2.8-.5.1-.3 0-.7 0-1 .4.2.9 0 1.3.2.3.2.7.5 1 .7.4.2.8.4 1.1.7.4.3.6.6 1 .7.3.1.5.2.8.4.3.2.5.1.8.1h.9c.3 0 .5-.1.8-.1 0 .3-.5.7-.7.9-.2.2-.3.2-.3.5v.5c-.3.1-.7-.4-1-.6-.4-.2-.7-.3-1.2-.3-.9 0-1.8.2-2.6.3-.3 0-.6.1-1 .1-.3 0-.6-.2-.9-.2-.4-.1-1.3-.5-1.5-1.1" opacity=".08"/><path fill="#545453" stroke="#545453" d="M49.6 96.2c0 .1-.1.2-.3.2-.2 0-.3-.1-.3-.2s.1-.2.3-.2c.1.1.3.1.3.2z"/><path fill="#708F9C" d="M49.5 95.9l.3.3c.3.3-.4.5-.6.4-.2 0-.3-.1-.3-.3 0-.2.1-.3.3-.3l.3-.1z" opacity=".41"/><g stroke="#C9B681" stroke-width=".25"><path fill="#F7F0BC" d="M60.8 95.9c-.6-.3-1.4-.2-2 .2-.7.4-.5 1.2.2 1.4.5.2 4 .1 3.1-1.3-.3-.5-1.3-.5-1.7-.5"/><path fill="#ECE8B0" d="M59.6 96c-.2-.1-.8.1-.9.4-.1.6.5.5.8.5h1c.3 0 1 0 1.2.2-.8.4-2 .5-2.8.2-.5-.1-.8-.4-.4-.9.2-.4.7-.4 1.1-.4m2.4.7c.4-.8-1.1-.9-1.4-.9.3-.2 1.1-.2 1.4.1.3.3.4.9 0 1.1.1-.2.1-.4 0-.6"/><path fill="#F7F0BC" d="M57.7 96c-.5-.4-1.2-.2-1.6.3-.5.6-.4 1.6.2 1.9.4.2 3.3.1 2.6-1.7-.2-.6-1-.7-1.4-.6"/><path fill="#ECE8B0" d="M56.7 96.2c-.2-.1-.7.2-.7.6-.1.8.4.7.7.7h.8c.3 0 .8 0 1 .2-.6.6-1.6.6-2.3.3-.4-.2-.6-.5-.4-1.2.2-.6.6-.7.9-.6m1.9.9c.3-1.1-.9-1.2-1.1-1.2.3-.2.9-.2 1.1.1.2.4.3 1.2 0 1.5.1-.3.1-.6 0-.8"/><path fill="#F7F0BC" d="M59.4 97.1c-.4-.3-1-.2-1.3.2-.4.5-.3 1.3.2 1.6.4.2 2.7.1 2.1-1.4-.2-.5-.9-.6-1.2-.5"/><path fill="#ECE8B0" d="M58.6 97.1c-.2-.1-.6.1-.6.5-.1.7.4.6.6.6h.7c.2 0 .7 0 .8.2-.5.5-1.3.5-1.9.3-.3-.1-.5-.4-.3-1 .1-.5.4-.6.7-.6m1.6.8c.3-.9-.7-.9-.9-1 .2-.2.7-.2.9.1.2.3.2.9 0 1.2.1-.2 0-.5 0-.7"/></g><linearGradient id="l" x1="88.372" x2="94.277" y1="84.898" y2="84.898" gradientUnits="userSpaceOnUse"><stop offset="0" stop-color="#756147"/><stop offset=".973" stop-color="#9f5729"/></linearGradient><path fill="url(#l)" stroke="#502616" stroke-width=".25" d="M88.4 81.7c5.6 0 7 1.2 5.1 6.5-.3-2.2-3.7-2.2-4.7-.6-.1-1.8.3-3.7.3-5.6"/><linearGradient id="m" x1="87.519" x2="94.95" y1="88.681" y2="88.681" gradientUnits="userSpaceOnUse"><stop offset="0" stop-color="#756147"/><stop offset=".973" stop-color="#9f5729"/></linearGradient><path fill="url(#m)" stroke="#502616" stroke-width=".25" d="M88.2 87.6s1.6-1.2 3-1.1c1.3.1 2.6.9 3.5 1.4.9.5-.2 3.4-1.2 3-1-.4-1-1.6-1-1.6s-.4 1.4-.9 1.3c-.5-.1-1.1.1-1.2-1.3 0-.8-.2 1.1-1 1.3-.8.1-1 .1-1.5-.5-.5-.7-.2-1.5-.1-1.8 0-.5.4-.7.4-.7z"/><path fill="#4CB859" stroke="#3FA348" stroke-width=".25" d="M88.1 81.7c.7-1.6 1.3-3.4 1.3-5.1"/><g fill="#F1CFAD" stroke="#C98E5E" stroke-width=".25"><path d="M39.9 89.5c.6-1.4 1.4-1.9 2.6-2.8.8-.6 2.7-1.3 2.4-2.5-3.5-.2-7.8 3.1-7.5 6.7.1 2 2.2 2.4 3.5 1 .9-1 2.5-3.4 2.4-4.7-.6-.1-1.7-.4-2.1 0"/><path d="M43.7 88.3c-.8.1-3.7 1.5-1.9 2.3 1.3.6 2.3-1.2 1.9-2.2"/><path d="M43.7 90.1c-1.1-.1-2.2.6-2.1 1.7 1.4.8 3-.2 2.2-1.7"/></g><path fill="#662312" stroke="#662312" stroke-width=".25" d="M23.4 94.2l-.8.7s5.8 2.7 7.9 3.3c2.1.6 8.4 2 8.4 2l.5-.9s-7.2-1.2-9.3-2.1c-2.2-.9-6.7-3-6.7-3z"/><path fill="#722D17" stroke="#80371B" stroke-width=".25" d="M20.5 93.9l1.4.3 1.2-.9-2-.3z"/><path fill="#8E4420" stroke="#8E4420" stroke-width=".25" d="M40.1 106s-6.7-1.5-8.6-2.1c-1.9-.5-7.3-2.4-7.5-2.8-.3-.4-1.4-6.3-1.4-6.3s5.5 2.7 7.9 3.3c2.4.6 8 2 8.4 2 .5.1 1.2 5.9 1.2 5.9zM24 104.5c-.8-3.5-2.2-10.3-2.2-10.3l-1.4-.3 2.1 11.3c.4 1.8 1.1 12.2 1.2 15.5.1 2.1.3 4.7.5 7.3h1.3c.1-4.3.2-9.5 0-11-.1-2.1-.7-9-1.5-12.5z"/><path fill="#80371B" stroke="#80371B" stroke-width=".25" d="M27.1 128c-.1-3.3-.4-9.2-.7-11.8-.3-2.8-1-10.2-1-11.8 0-1.6-2.3-11.1-2.3-11.1l-1.3.9s1.7 8.1 1.9 9c.2.9 1.6 10.6 1.6 11.4.1.7.4 4.4.4 8.4 0 1.9 0 3.7-.1 5h1.5z"/><path fill="#81381D" stroke="#81381D" stroke-width=".25" d="M45.4 126c.4.2.3 2.1.3 2.4-.1.3 12.2-6.3 12.2-6.3l.9-.6v-2.4L45.4 126zm-19.6-4.5l16.6 4.9-.6 1.8-7.6-1.3-8.4-2.5z"/><path fill="#80371B" stroke="#80371B" stroke-width=".25" d="M56.2 128h1.1v-5.6l-1.1.6z"/><path fill="#8E4420" stroke="#8E4420" stroke-width=".25" d="M57.3 128h1.4v-6.5l-1.4.9z"/><path fill="#AD1F62" stroke="#AD1F62" stroke-width=".25" d="M40.1 110.5l18.6 6.7v1.9l-12.9 6.7-3.4.6-16.6-5.3v-1.6l1.3-1.4z"/><path fill="#F7A8B5" d="M43 112.3c1.5.1 3.7 0 5.1.4 1 .3 4.3 1.6 4.9 2.3-2.4 3.5-8.9 5.1-12.6 7-3.9 2-8.8 1.1-12.7-.5 1.2-1 3.1-1.1 4.5-1.6 1.8-.6 3.8-1.3 5.5-2.1 1.9-.9 3.5-2.2 5.5-3.1.6-.2 2.3-.5 2.4-1.2.1-1-.8-1.1-1.6-.9"/><path fill="#F7A8B5" d="M19.1 97.8c4.7.9 6.1-.4 10.2-1.8 4.2-1.5 7.2 1 11.1.2 1.5-.3 3.4-1.7 4.5-2.7 1.2-1 2.1-3.1 3.3-3.7 5.1-2.2 5 5.9 3.6 8.3-1.8 3.2-6.2 3.3-8.1 5.9-.8 1.1-.9 3.4-.6 4.7.4 1.2 2.8 3.3 2.7 4.4-.1 1.3-14.7 7.6-17.6 9-2.3-3.2-2.9-8.5-4-12.2-1.2-4.2-2.6-7.8-4.8-11.6"/><path fill="#AFADA6" stroke="#AFADA6" stroke-width=".25" d="M59.3 117.3v1.2l-13.5 7.3s-.7-.1 2.4-2c3.1-1.9 9.8-5.7 9.8-5.7l1.3-.8zm-33.5 2.9s7.6 2.3 10.3 3.2c2.7.9 6.5 1.5 6.5 1.5v1s-8.8-2.4-10.1-2.5c-1.3-.2-6-1.9-6-1.9l-.7-.2v-1.1z" opacity=".12"/><path fill="#80371B" stroke="#80371B" stroke-width=".25" d="M43.4 116.6c-.2-3.3-2.9-15.4-2.9-15.4l.2-1h-1.8s1.2 5.7 1.6 8.7c.5 3 .9 7 1 8.5.1 1.5.4 5.4.6 6.3 0 .2.3 2.4.4 4.8H44c-.1-5-.5-10-.6-11.9z"/><path fill="#8E4420" stroke="#8E4420" stroke-width=".25" d="M45.8 126.7c-.1-2-1.4-14.8-1.5-16.1-.2-1.4-.4-2.6-.9-5.8-.5-3.3-1.6-5.2-1.6-5.2l-1 .7-.2 1s.5 2.5.6 2.7c.1.2 1 4.7 1.4 6.7.4 2 1.8 16 1.8 16.4 0 .1-.2.8-.2 1.3h1.5c-.1-.8.1-1.7.1-1.7z"/><path fill="#722D17" stroke="#80371B" stroke-width=".25" d="M39.1 100.2h1.6l1-.7-2-.2z"/><path fill="#8E4420" stroke="#8E4420" stroke-width=".25" d="M41.2 112.6l.5 5.6s-7.5-1.8-9.9-2.8c-2.4-1-6.4-2.2-6.4-2.2l-.8-6.4s3.1 2.1 7.3 3.3c0 0 3.4 1 5.2 1.6 1.8.4 4.1.9 4.1.9z"/><path fill="#80371B" stroke="#80371B" stroke-width=".25" d="M24.6 106.8l.8-.7s6.2 3.4 8.6 4c2.4.5 6.9 1.1 6.9 1.1l.2 1.4s-6.4-1.5-9.1-2.4c-2.8-1.1-7.4-3.4-7.4-3.4z"/><path fill="#662312" stroke="#662312" stroke-width=".25" d="M27.1 102.6v4.5l1.4.6v-4.5m2.6.6v5.4l1.4.6v-5.5"/><path fill="#F1CFAD" stroke="#C98E5E" stroke-width=".25" d="M37.5 74.8c-7.7-11.6-32.1 3.3-20.1 16.9 4 4.5 13.9 8.6 19.4 4.7C44.3 91.1 35 84 38 77.1"/><path fill="#E0E4F2" d="M34.7 79.2c.6-2-.3-4.9-1.8-6.4-2.1-2.3-3.7-2.5-6.8-1.9-5.5 1.2-9.1 5.3-11.2 10.1-.7 1.6-1.3 5-.1 6.5 1.1 1.3 5.8.7 7.2.1 2.3-1.2 4-3.1 6.3-4.4 2.1-1.2 4.6-2.4 6.1-4.3" opacity=".25"/><path fill="#FAF9DA" stroke="#FAF9DA" d="M19.1 96.8c-.1-2.5 5.5-3.1 7.6-2.8 1.2.2 2.5 1.6 3.7 2.1 1.3.5 2.8-.3 3.2 1.6-3.8.8-11 .3-14.5-1.3"/><path fill="#010101" stroke="#010101" stroke-width=".5" d="M38 76.2c.6 3.5-2.8 5-5.7 6.2.9-1.4 2.4-2.8 2.1-4.6-9.3 8.7 1 17.1-.9 26.7-.5 2.3-1.4 5-3 6.9-1.7 2.1-4.4 3.2-5.6 5.5-2.2 4.3-.6-4.5 0 0-5.1 2.7-4.5-2.2-9.1.7-1.4-3.2-.3 3.3 0 0 .3-3.7-.2-7.5-.8-11.1-.5-3.3-1.1-5.6 0-8.7 1.4-3.8 1.8-3.8 1-8.1-1.2-6.3-1-12.7 5.1-16.3 6.2-3.6 13.6-3.2 16.2 4.4"/><path fill="#010101" stroke="#010101" stroke-width=".5" d="M37.5 78c3.3-9-9.3-9.6-15.1-7.9-9.4 2.6-9.5 9.6-9.2 17.8.3 6.7-.2 13.6.5 20.2.3 2.9.7 6.3.5 9.2-.2 2.6-2.1.1 3.1-1.2.3-2.4-.2 2.4 0 0 .3-3 .7-5.9.8-9 .3-5.3 1.3-10.7 1.8-15.9.5-5.3-1.5-12.6 3.6-16.5 6.4-5 8.3 5.1 13.6 3.4"/><path fill="#282827" stroke="#010101" stroke-width=".5" d="M28.1 81.9c-2.4 7-1.6 11.1 1 17.5 2.9 7.1-1.2 11.7-8.4 14.5 1.3-2.8 4.8-4.6 5.7-7.6 1-3.2-.3-6.1-1.1-9.2-1.8-7.1-1.1-13.9 4.9-19.3"/><path fill="#282827" stroke="#010101" stroke-width=".5" d="M21.5 79.3c-6.2 3.1-.3 13.2 0 18.2.4 6.7 1.1 14.1-5.9 17.9 4.3-6.4 4.4-11.3 3.3-18.6-.7-4.5-4.9-17.2 2.1-18m9.3-8.9c3.7 3 5 7.8-.7 9.2 4-2.9 4.3-9.3-2-8.7"/><linearGradient id="n" x1="4823.859" x2="4801.982" y1="1848.691" y2="1848.691" gradientTransform="matrix(.3656 -.1063 .1046 .3658 -1917.213 -73.838)" gradientUnits="userSpaceOnUse"><stop offset="0" stop-color="#ea1b75"/><stop offset="1" stop-color="#fff5cc"/></linearGradient><path fill="url(#n)" d="M31.7 91.9c.5 1.6 2.7 2.4 4.9 1.8 2.2-.6 3.6-2.4 3.1-4s-2.7-2.4-4.9-1.8c-2.1.6-3.5 2.4-3.1 4z" opacity=".18"/><ellipse cx="74" cy="86.6" fill="#25275C" stroke="#25275C" rx="11.2" ry="2.6" transform="translate(-.123 .106)"/><ellipse cx="74.1" cy="86.4" fill="#FFF" rx="10.3" ry="2" transform="translate(-.13 .11)"/><ellipse cx="74.1" cy="86.2" fill="#EBE8E8" rx="9.1" ry="1.8" transform="translate(-.122 .105)"/><path fill="#FFF" d="M69.8 86.5c0-.3-.1-.8.1-1.1.3-.3.7.1 1.1-.2-.4-.5-.4-1-.4-1.5-.3.1-.7.2-.9.4.2-.4.2-.8-.2-1-.4.5-.3 1.3-.6 1.8 0-.6-.1-1.2-.7-1.5-.2.6.4 1.5 1 1.8 0 .5.4 1 .6 1.5" opacity=".03"/><path fill="#5E9942" d="M73.9 85.8s-.1 0 0 0c.2.1.3.1.4.1.1 0 .6 0 .8-.1h.4c.1 0 .1-.1.2 0 .1 0 .3.1.3.1l.2-.1s0-.2.1-.2.1-.1.2-.1c0 0 .1-.4.1-.5 0 0 0-.1.1-.2 0-.1.1-.1.1-.2-.1-.1-.1-.2-.2-.2s-.2-.1-.2-.1l-.1-.2h-.2l-.2-.2-.2-.1s-.2-.1-.3-.1h-.1l-.2.1c-.1 0-.1.1-.1.1h-.3c0 .1-.1.2-.1.2h-.1c-.1 0 0 .1 0 .1h-.2s-.2 0-.2.1-.1.1-.1.2.1.2.1.2l.1.1s.2.3.1.1c0 0 .1.3.1.1l.1.1s0 .1-.1.2l-.1.1-.4.4z"/><path fill="#F8E813" d="M74.1 85.9c0-.1.2 0 .3-.1.1 0 .2-.1.2-.1h.1v-.1l-.3.1h-.2v-.1l.3-.1h.5l.1.1v-.1h.3c.1 0 .2.1.1 0s-.1-.1-.2-.1c-.1.1-.5-.3-.4-.3h.6s-.1-.1-.2 0c-.1 0-.3.1-.2 0 .1-.1.2-.1.2-.1h.2l.1-.1.1-.1h.2l.3.1.1.1v-.1l-.6-.2.2-.1h.1l.2.1h.1l-.4-.1-.3.1s-.2 0-.2.1-.1.1-.1.1h-.1v-.4s0-.1-.1-.1v-.2l-.1-.1s-.1 0 0 0c0 0 .2.4.2.5 0 .1.1.2 0 .4-.1.1-.3.2-.3.2l-.1-.2v-.3l-.1-.1-.1-.1-.1-.1v-.1c0-.1-.1-.2-.1-.2s-.2.1 0 .1c.1.1.2.2.1.2h-.3l.4.1s.1.2.2.3c.1.1 0 .2 0 .2s0 .1-.1.1c0 .1-.2.3-.2.3l.1-.2c0-.1-.2-.3-.2-.4l-.1-.1c-.1 0-.1-.1-.2-.1s-.2-.1-.2-.1v.1h.2c.1 0 .5.4.4.4-.1.1-.1.1-.1.2v.1s-.2 0-.1.1c0 .1-.1.1-.1.1l-.2.1-.1.1-.1.1.1.1h.2z" opacity=".25"/><path fill="#F8E813" d="M76.4 85.2c-.1-.2-.4-.2-.5-.4.1 0 .2.1.2.1.1 0 .2 0 .2.1h-.2c.1.1.4.1.3.2m-.8-.1c0-.2.4.1.5.1-.1-.1-.3-.1-.4-.1 0 0 .1 0 .2-.1-.1 0-.5.1-.5.1.1 0 .3.1.4.1 0 0-.2 0-.2-.1" opacity=".25"/><path fill="none" stroke="#71BE46" stroke-width=".25" d="M74 85.8c.1-.1.2-.3.4-.4.2-.1.4-.2.5-.4.1-.2.3-.3.5-.4.1 0 .2-.1.3-.1.1 0 .3 0 .4-.1"/><path fill="#F8E813" d="M76 84.4c0-.1-.2-.3-.1-.3s.2.1.1.3c.1 0 .1 0 .1.1 0 0 .1 0 .1.1 0-.1-.1-.2-.2-.2 0 0 .1-.1 0 0" opacity=".25"/><path fill="none" stroke="#71BE46" stroke-width=".25" d="M74.3 85.5c.1-.1.2-.3.1-.5s-.3-.4-.5-.4m.2 1.1l.1.1c.1 0 .2 0 .3-.1m.1-.4c.1-.1.2 0 .3 0 .1 0 .1.1.2.1h.1m-.2-.3h.2m.3 0c.1 0 .2 0 .4-.1m.1-.1s.1 0 .1.1c.1 0 .2 0 .2.1h-.2c.1.1.3.1.3.2m0-.5c-.1-.1-.2-.1-.3-.2-.1 0-.3 0-.4-.1m-.3.2c-.1-.1-.1-.3-.1-.4 0-.1-.1-.1-.1-.2s0-.2-.1-.2m-.5 1.4c.1-.2.2-.3.2-.5 0-.1-.2-.2-.2-.3v-.1c0-.1-.1-.1-.2-.2m1.6.3c0-.1.1-.1.1-.1 0-.1-.1-.1-.1-.2m-1.8.1c.1 0 .2.1.3.1"/><path fill="#111" stroke="#71BE46" stroke-width=".25" d="M74.1 85.6v-.5c.1-.2.1 0 .2 0s0-.2.2-.2v-.1c.1-.1.2 0 .2.1.1 0 .1-.1.1-.2l.2-.2c0 .1 0 .2-.1.3l-.3.3c-.1.3-.4.3-.5.5 0-.1 0-.2.1-.3" opacity=".06"/><path fill="#111" stroke="#71BE46" stroke-width=".25" d="M74.3 85.6c.1-.2.3 0 .5 0l.2-.1c0-.1-.1-.1-.2-.1.1-.1.4-.1.4-.2s-.2-.2 0-.2h.5c-.1-.1-.1-.2 0-.2s.2.1.3.1c-.2-.1-.1-.2 0-.2h.4c-.1 0-.2-.1-.1-.2.4 0 .2.5.2.6-.1.2-.2.4-.5.5-.3.1-.6.2-1 .2-.3 0-.6.1-.9 0 0-.1.2-.2.2-.2" opacity=".02"/><path fill="#111" stroke="#71BE46" stroke-width=".25" d="M75.7 85.8c.1-.1.3-.1.4-.2 0 .1 0 .2-.1.2-.1.1-.2 0-.3 0" opacity=".06"/><path fill="none" stroke="#F8E813" stroke-width=".25" d="M75.5 85.8c.1-.1.3 0 .5-.1.2 0 .3-.1.4-.3" opacity=".25"/><path fill="#5E9942" d="M75 85.3s.1 0 0 0c0-.2-.2-.3-.3-.3-.1 0-.5-.4-.6-.4l-.3-.3c-.1-.1-.1 0-.2-.1l-.2-.2-.2-.1s-.1.1-.2.1h-.2l-.4.3c-.1 0-.1 0-.2.1s-.2 0-.2.1v.3c0 .1.1.2.1.2v.2l.1.1v.2l.1.2s.1.2.2.2c0 .1.1.1.1.1s.2 0 .2.1h.2c.1 0 .2.1.2.1l.2-.1.1.1c.1 0 .1-.1.1-.1h.1l.2.1s.1.1.2 0c.1 0 .2 0 .2-.1s.1-.2.1-.3v-.3s.1-.3.1-.1v-.1s.1-.1.2-.1h.1l.2.1z"/><path fill="#F8E813" d="M74.9 85c-.1.1-.2-.1-.2-.1h-.4l.2.1h.1l.1.1-.1.1-.3-.1-.2-.1-.1-.1v-.2h-.1s-.1 0-.1-.1v-.1c-.1-.1-.1-.2-.1-.1s0 .2.1.2.2.5.2.5c-.1 0-.1-.1-.2-.1 0 0-.1-.1-.2-.1l-.1-.1s0 .1.1.1c0 0 .3.1.1.1h-.3l-.1-.1h-.4l-.1-.1-.2-.3v-.2h-.1l.3.5-.2-.1h-.1l-.1-.2-.1-.1.2.3.3.2s.1.1.2 0 .1 0 .1 0v.2s0 .1-.1.1l-.1.1-.1.1v.4s.1.1 0 0c0 0 .2-.4.2-.5 0-.1.1-.3.3-.3h.5l-.1.1s-.1.1-.1.2v.5c0 .1-.1.2 0 .2s.2.1.1-.1c-.1-.1 0-.3 0-.2l.1.1s0 .1.1.1c0 .1.1.1.1.1l-.2-.3s.1-.2.1-.4c0-.1.2-.2.2-.2s.1 0 .1-.1c.1 0 .4-.1.4-.1l-.2.1-.1.4v.1c0 .1 0 .2.1.2 0 .1.1.1.1.1v-.1l-.1-.1c-.1-.1-.1-.6 0-.6s.1 0 .2-.1h.1s.1.1.2 0c0-.1.2 0 .2 0h.2-.3v-.1l-.1.2z" opacity=".25"/><path fill="#F8E813" d="M72.7 84.1c-.1.2.2.4.1.6-.1-.1 0-.2-.1-.2 0-.1-.1-.1-.1-.2l.1.1c.1-.1-.1-.3 0-.3m.6.6c-.1.1-.2-.3-.4-.4 0 .1.1.2.2.3-.1 0-.1-.1-.2 0 0 .1.4.3.5.2 0-.1-.2-.3-.2-.3s.1.1.1.2" opacity=".25"/><path fill="none" stroke="#71BE46" stroke-width=".25" d="M75 85.2c-.1.1-.4.1-.6.1-.3-.1-.4-.1-.7 0h-.6c-.1 0-.2-.1-.3-.1-.1 0-.2-.2-.3-.2"/><path fill="#F8E813" d="M72.4 85c-.1.1-.1.3-.1.3 0-.1 0-.2.1-.3-.1 0-.1 0-.1-.1s-.1-.1-.1-.1c.1 0 .1.2.2.2" opacity=".25"/><path fill="none" stroke="#71BE46" stroke-width=".25" d="M74.5 85.2c-.2 0-.3.1-.4.3 0 .2 0 .5.1.7m.6-1.1V85c-.1-.1-.2-.1-.2-.1m-.4.2c-.2 0-.2-.1-.2-.2s0-.1-.1-.2-.1 0-.2-.1c0 0 .1 0 .1.1m-.1.4c-.1 0-.1 0-.1-.1m-.2-.2c-.1 0-.2-.1-.3-.2m-.3.1v-.1c0-.1-.1-.1-.1-.2 0 .1.1.1.1.2 0-.1-.1-.2 0-.3m-.3.1c0 .1.1.2.1.3.1.1.2.2.2.3m.3.2c0 .1-.2.3-.2.3 0 .1 0 .2-.1.2 0 .1-.1.1-.1.2m1.4-.7c-.2.1-.4.1-.5.3v.4c0 .1-.1.1-.1.1v.2m-1-1.3c0 .1-.1 0-.1.1s0 .1-.1.2m1.5 1c-.1-.1-.1-.2-.2-.3"/><path fill="#111" stroke="#71BE46" stroke-width=".25" d="M74.8 85.3c0 .1-.1.1-.2.2s-.1.2-.2.2c-.2.1 0-.1-.1-.2s-.1.2-.2 0l-.1.1c-.1 0-.1-.1-.1-.2-.1 0-.1 0-.2.1h-.3c.1-.1.1-.2.3-.2.1 0 .3 0 .4-.1.2 0 .5.1.7.1 0 0-.1.1-.3.2" opacity=".06"/><path fill="#111" stroke="#71BE46" stroke-width=".25" d="M74.6 85.1c-.2.1-.3-.2-.4-.3l-.2-.1c-.1 0 0 .1.1.2-.1 0-.4-.2-.5-.1.1.1.2.3 0 .2l-.2-.1c-.1 0-.1-.1-.2-.1 0 .1 0 .2-.2.1-.1 0-.1-.1-.2-.2.1.2 0 .2-.2.1l-.3-.3c0 .1.1.2 0 .2-.3-.2.2-.5.3-.6.2-.1.4-.2.7-.1.3.1.6.2.9.4.2.2.5.3.7.6-.1.2-.3.1-.3.1" opacity=".02"/><path fill="#111" stroke="#71BE46" stroke-width=".25" d="M73.7 84.2c-.1 0-.3-.2-.4-.2 0-.1.1-.2.2-.1.1 0 .1.2.2.3" opacity=".06"/><path fill="none" stroke="#F8E813" stroke-width=".25" d="M73.8 84.3c-.1 0-.3-.2-.4-.3-.2-.1-.3-.1-.5 0" opacity=".25"/><path fill="#FFF8EF" d="M73.6 85.7c-.1-.1.1.3.1 0h-.1m.2-.2c-.1 0-.2 0-.2.1s.2.1.2-.1m1.9-1.4c-.1-.1.1.3.1 0h-.1" opacity=".32"/><path fill="#C4C3C1" d="M67.2 85.5s.4-.4.8-.5c.4-.2 1.4-.3 1.9-.3s1.1 0 1.5.1c.5.2 1 .6 1.5.9.5.4.9.7 1.4 1 .5.2.8.4 1.2.5l.8.2s.4-.1.6-.1c.2.1 1 0 1 0s.1.3-.3.5c-.2.2-.6.4-.6.5-.1.1-.1.1 0 .2.1.2 0 .5.1.6v.1s-.4-.1-.5-.1c-.1-.1-.6-.5-.8-.6 0 0-.1 0-.3-.1l-.2-.1s-.3-.1-.9 0c-.6.1-.8.2-1.3.2s-1.3.2-2 0-1.5-.5-1.9-.7c-.4-.3-.9-.8-1.2-1-.3-.2-.8-.5-.8-.6 0-.1-.1-.3 0-.3s0-.1.3 0 .2-.1.2-.1l-.3-.2-.2-.1z"/><path fill="#708F9C" d="M76.2 87.7c-.3.1-.9-.1-1.2-.2-.4-.1-.9-.1-1.3-.3-.5-.2-1.1-.6-1.6-.9-.2-.1-.4-.1-.6-.2-.2-.1-.3-.3-.5-.3-.4-.2-1.3-.3-1.6 0-.2.2-.2.4-.4.6l-.5.5h.2l-.1.1c.4 0 .9-.3 1.3-.2.5.1.9.3 1.4.4.5.1 1 .2 1.4.3.4.1.9 0 1.3.3.2.1.2.2.4.3.2.1.3 0 .5 0 .4-.2 1 0 1.3-.4" opacity=".41"/><path fill="#D5C49B" d="M67.2 86.3c.3-.7 1.6 1.1 1.8 1.2.7.5 1.6.6 2.4.7 1 .1 1.9-.1 2.9-.2.3 0 1 .1 1.2.4.2.3-.1.2-.3.1-.2 0-.4-.1-.7-.1-.4 0-.8.1-1.2.2-.4.1-.9.1-1.3.2-.4 0-1 0-1.4-.2-.4-.2-.6-.2-.9-.3-.8-.3-1.3-.9-1.9-1.3 0-.4-.4-.6-.6-.7" opacity=".53"/><path fill="none" stroke="#616263" d="M76 88.1l.8.3m-.9-.1l1 .4m-.8-.2l.8.4m-.7-1l.8.4m-.7-.5h1m-.8-.2l1.2-.2m-.9.3l.9-.1m-1.4.2l1.5-.3m-1.3 0h1.3m-1.2.3l.7.3m-.9-.1l.8.4m-.8-.4l.6.5m-1-.4l1 .4m-1.1-.2l1.1.4m-.9-.2l1 .6m-.8-.5l.1.2m0 0l.7.4"/><path fill="none" stroke="#AAAAAB" d="M69.3 85.5c-.2.2-.4.5-.7.7-.4.2-.5-.1-.9-.3v-.1"/><path fill="#B3B3B3" d="M69.1 85.2c-.2-.2-.4-.3-.7-.3-.2 0 .1-.1.7-.2.8-.2 1.7-.1 2.5.2.5.2.6.4 1 .7.7.4 1.4.9 2.1 1.3.5.3 1 .4 1.5.5-.3.3-1.3-.1-1.7-.1-.4-.1-.9-.3-1.3-.5-.4-.3-.8-.6-1.3-.8-.4-.2-1-.4-1.4-.4-.2 0-.5-.2-.7-.2-.2-.1-.4 0-.7-.2z" opacity=".41"/><path fill="#FFF" d="M68.6 87c.5-.5.7-.5 1.3-.1.4.2.9.5 1.4.6h.8c.3 0 .5.2.7.2.4 0 1.1-.4 1.4.1-.6.7-2.3.6-3 .5-.6-.1-2.5-.4-2.6-1" opacity=".42"/><path fill="#B39A65" d="M75.8 87.7c-.3-.1-.7-.3-1-.2-.4 0-.4.3 0 .5-.4.2-.9-.4-1.3-.5-.5-.2-1-.3-1.5-.4-.5-.2-.9-.4-1.4-.6-.6-.3-.9-.2-1.6-.2.9-.8 2.1-.6 3 0 .5.4.5.5 1.1.7.5.1 1 .5 1.5.5" opacity=".49"/><path fill="#708F9C" d="M77.3 88c.3-.2.8-.3.7-.8-.7 0-1.4.1-2 .1.4.5.1.8-.2 1.3.4.4.9.2 1.2.8 0-.4-.1-1.3.6-1.2" opacity=".41"/><path fill="none" d="M74.1 87.1c-.8.1-1.5-.7-2.3-.8-.7-.1-1.7-.5-2.4-.5.1-.6 1.4-.6 1.8-.5.7.2 1.1.9 1.9 1.2.3.1.7.1 1 .2.1 0 .9.2 1 .2.3.3 0 .5-.3.6-.4 0-.5-.5-1-.2"/><path fill="#5E7F88" d="M68.8 86.9s-.2 0 0 0c.1 0 .3-.1.5-.2.2-.2 0-.4.1-.6.2-.3.8-.3.8-.8-.3.2-.7.4-1 .6-.3.4-.2.7-.7.9.1.2.2.2.3.1" opacity=".41"/><path fill="#708F9C" d="M76.9 88.1c.4-.3 1.1-.3 1.1-.9-.6.1-1.1.3-1.8.3-.6 0-.9-.3-1.4-.4 0 .2-.1.3 0 .5h-.3c-.1.2-.2.3-.2.5 1.2-.4 1.6.9 2.7 1.1-.1-.4 0-.8.1-1.1" opacity=".41"/><path fill="#B3B3B3" d="M74.3 88c-.4-.8-1.7-.8-2.4-.9-.9-.2-1.5-1-2.4-.9.3-1.2 1.7-.2 2.4.2.8.5 1.8 1.1 2.8 1-.1.1-.2.3-.3.5.4-.1.8-.3 1.2 0-.4.1-1.1.3-1.4.1" opacity=".57"/><path fill="#708F9C" d="M77.5 87.8c-.1-.1-.3-.3-.3-.4" opacity=".41"/><path fill="none" d="M76.9 88.8c-.1.1-.2.1-.2.1m.6-1.5h.3"/><path fill="#708F9C" d="M77.1 87.8c.1-.2.6-.2.9-.4-.3-.3-1.7.1-1.9.3-.4.4-.2.5.1.8.2.2.7.7 1 .6 0-.3-.2-.6-.3-.8.2-.1.4-.2.6-.2" opacity=".67"/><path fill="#FFF" d="M72.5 87.7c-.6.1-1.1 0-1.7-.2-.2-.1-1.3-.6-1.5-.4.3.5.9.5 1.4.7.7.2 1.2 0 1.8-.1" opacity=".42"/><pattern id="o" patternTransform="matrix(.7395 0 0 .6987 -2073.897 -2475.007)" xlink:href="#j"/><pattern id="p" patternTransform="matrix(.7395 0 0 .6987 -2112.19 -2407.1)" xlink:href="#k"/><path fill="url(#o)" stroke="url(#p)" d="M68.6 87.4c.2.1.7-.3.7-.5.1-.3-.2-.6 0-.8.2-.2.7-.2.8-.5.1-.3 0-.7 0-1 .4.2.9 0 1.3.2.3.2.7.5 1 .7.4.2.8.4 1.1.7.4.3.6.6 1 .7.3.1.5.2.8.4.3.2.5.1.8.1h.9c.3 0 .5-.1.8-.1 0 .3-.5.7-.7.9-.2.2-.3.2-.3.5v.5c-.3.1-.7-.4-1-.6-.4-.2-.7-.3-1.2-.3-.9 0-1.8.2-2.6.3-.3 0-.6.1-1 .1-.3 0-.6-.2-.9-.2-.4-.1-1.2-.5-1.5-1.1" opacity=".08"/><path fill="#545453" stroke="#545453" d="M68.8 85.3c0 .1-.1.2-.3.2-.2 0-.3-.1-.3-.2s.1-.2.3-.2c.2.1.3.1.3.2z"/><path fill="#708F9C" d="M68.7 85l.3.3c.3.3-.4.5-.6.4-.2 0-.3-.1-.3-.3 0-.2.1-.3.3-.3l.3-.1z" opacity=".41"/><g stroke="#C9B681" stroke-width=".25"><path fill="#F7F0BC" d="M80 85c-.6-.3-1.4-.2-2 .2-.7.4-.5 1.2.2 1.4.5.2 4 .1 3.1-1.3-.3-.5-1.3-.5-1.7-.5"/><path fill="#ECE8B0" d="M78.9 85.1c-.3-.1-.9.1-.9.4-.1.6.5.5.8.5h1c.3 0 1 0 1.2.2-.8.4-2 .5-2.8.2-.5-.1-.8-.4-.4-.9.2-.4.6-.4 1.1-.4m2.3.7c.4-.8-1.1-.9-1.4-.9.3-.2 1.1-.2 1.4.1.3.3.4.9 0 1.1.1-.2.1-.4 0-.6"/><path fill="#F7F0BC" d="M76.9 85.1c-.5-.4-1.2-.2-1.6.3-.5.6-.4 1.6.2 1.9.4.2 3.3.1 2.6-1.7-.2-.6-1-.7-1.4-.6"/><path fill="#ECE8B0" d="M76 85.3c-.2-.1-.7.2-.7.6-.1.8.4.7.7.7h.8c.3 0 .8 0 1 .2-.6.6-1.6.6-2.3.3-.5-.1-.7-.5-.5-1.2.2-.6.6-.7 1-.6m1.9.9c.3-1.1-.9-1.2-1.1-1.2.3-.2.9-.2 1.1.1.2.4.3 1.2 0 1.5.1-.3.1-.6 0-.8"/><path fill="#F7F0BC" d="M78.6 86.2c-.4-.3-1-.2-1.3.2-.4.5-.3 1.3.2 1.6.4.2 2.7.1 2.1-1.4-.3-.6-.9-.6-1.2-.6"/><path fill="#ECE8B0" d="M77.8 86.3c-.2-.1-.6.1-.6.5-.1.7.4.6.6.6h.7c.2 0 .7 0 .8.2-.5.5-1.3.5-1.9.3-.3-.1-.5-.4-.3-1 .1-.6.4-.7.7-.6m1.6.7c.3-.9-.7-.9-.9-1 .2-.2.7-.2.9.1.2.3.2.9 0 1.2.1-.2 0-.5 0-.7"/></g><path fill="#B3B3B3" d="M66.2 87.2c0 .2-.1.4-.3.4-.1 0-.3-.2-.3-.4v-32c0-.2.1-.4.3-.4.1 0 .3.2.3.4v32z"/><path fill="#EB3746" stroke="#EB242A" d="M66.5 42s-5.2-8.8-10-5c-6 4.8-1.6 11 .1 12.3 1.7 1.3 9.3 6.2 9.3 6.2s7.1-3.7 9.5-5.4c8.4-6.2 1.8-12.5-.1-13.1-2.7-.9-6.7 2.5-6.7 2.5-1 1-2.1 2.5-2.1 2.5z"/><path fill="#EC313E" stroke="#EC313E" d="M65.9 43.5s-3.9-6.6-7.5-3.8c-4.4 3.6-1.1 8.3.1 9.3 1.3 1 7 4.6 7 4.6s5.4-2.7 7.1-4.1c6.3-4.6 1.3-9.4-.1-9.9-2-.6-5 1.9-5 1.9-.7.9-1.6 2-1.6 2z"/><path fill="#EB242A" stroke="#EB242A" d="M65.6 44.7s-2.9-4.9-5.5-2.7c-3.3 2.6-.9 6 .1 6.8.9.7 5.1 3.4 5.1 3.4s3.9-2 5.2-3c4.6-3.4 1-6.9-.1-7.2-1.5-.5-3.7 1.4-3.7 1.4-.5.5-1.1 1.3-1.1 1.3z"/><path fill="#EB242A" stroke="#EB242A" d="M65.7 54.8c-.1.5-.5.9-.8 1.3.3.2.7.1 1.1-.1.1.2.2.3.4.3.1-.1.3-.2.3-.4.4.4 1 .7 1.3.1-.2-.1-.4-.2-.6-.2.3-.9-.5-1.2-1.3-.9" opacity=".64"/><path fill="#030303" d="M63 81.7s.6-.6 2.9-.6 3 .6 3 .6-1.6-.6-3.2-.5c-2.3.2-2.6.6-2.7.5z" opacity=".22"/><path fill="#F7F7F6" d="M63 81.7s1.2 2.7 1.4 4.4c.2 1.8-.4 4.1-.4 4.1s.7.6 1.9.6 1.9-.6 1.9-.6-.7-3-.6-4.2c.1-1.2 1.6-4.4 1.6-4.4s-2.4.6-2.9.6c-.5.1-2.9-.5-2.9-.5z" opacity=".45"/><ellipse cx="66" cy="90.4" fill="#EBEAE7" rx="1.9" ry=".6"/><ellipse cx="66" cy="81.7" fill="none" stroke="#B7B7B8" stroke-width=".25" rx="2.9" ry=".6"/><path fill="#B3B3B3" d="M64.1 90.2s.4-1.9.4-2.6c0-.7.1-1.4 0-1.8-.1-.4-1.4-4.1-1.4-4.1s.1.2.3.3c.2.1.7 2.1.9 2.4.1.3.5 1.1.5 1.3 0 .2-.5 4.6-.5 4.6l-.2-.1zm4.6-8.3s-1.4 3.6-1.4 4.1c0 .5.3 3 .4 3.3.1.3.2 1 .2 1h-.2s-.7-3.9-.6-4.3c.1-.3 1.4-4 1.4-4l.2-.1z"/><path fill="#B3B3B3" d="M63 81.7s.6.7 2.7.6c2.1-.1 2.5-.2 2.8-.3.2-.1.4-.3.4-.3s.2 1-3.2.9c-3.4-.1-2.7-.9-2.7-.9z"/><path fill="#030303" d="M64 89.9s.4.7 1.7.6c1.3-.1 1.6-.2 1.8-.3.2-.1.3-.3.3-.3s.2 1-2 .9c-2.2-.1-1.8-.9-1.8-.9z" opacity=".22"/><path fill="#80371B" stroke="#80371B" stroke-width=".25" d="M139.3 47.7l1.8-.4s-1-8.7-1.9-13.1c-1-4.4-2.6-11.2-2.6-11.2h-1.3v1l2.9 12.7 1.1 11z"/><path fill="#662312" stroke="#662312" stroke-width=".25" d="M135.3 23.1h1.2l1.7-.8h-1.5z"/><path fill="#8E4420" stroke="#8E4420" stroke-width=".25" d="M138.2 22.3s.7 2.5 1.1 4.8c.4 2.2 1.3 6 1.8 9.2.6 3.2.6 5.7.9 7.3.3 1.6.2 2.8.2 2.8l-1.1 1.1s-.3-2.7-.5-3.9c-.2-1.2-1.1-7.5-1.5-9.2-.4-1.7-1.4-6-1.5-6.5-.1-.6-1.2-4.7-1.2-4.7l1.8-.9z"/><path fill="#80371B" stroke="#80371B" stroke-width=".25" d="M122.8 30.1s2.4 7.9 2.7 10.7c.3 2.8 2 15.1 2.1 16.3.1 1.2.5 5.1.5 5.1s.3-9.2 0-11.2-2.2-14.9-2.6-16.7c-.4-1.7-1.2-4.9-1.2-4.9l-1.5.7zm4.6 46.5l.7-.4-.1-8.4-.6.3z"/><path fill="#8E4420" stroke="#8E4420" stroke-width=".25" d="M121.2 30.1h1.6s.6 2 1.2 4.2c.6 2.1 1.2 4.4 1.5 6.5.3 2.1 1.2 9.4 1.5 11.6.3 2.1.6 4.5.7 6.1.2 1.7.4 3.8.4 3.8s-.6 9.5-.6 9.9v4.4h-1.1s0-8.3-.3-8.4c-.3-.1 0-6.3-.1-9.5s-1.8-15.2-2.2-17.2c-.4-2-1.6-8.3-1.9-9.2-.5-.8-.7-2.2-.7-2.2z"/><path fill="#722D17" stroke="#80371B" stroke-width=".25" d="M122.8 29.2l1.4.4-1.4.5h-1.6z"/><path fill="#662312" stroke="#662312" stroke-width=".25" d="M136.7 23.9s-5.8 2.3-7.4 3.3c-1.6 1-4.8 2.9-4.8 2.9l-.4-.5s2.9-2.1 4.7-3.1c1.8-1 5.7-2.6 5.7-2.6h2.2z"/><path fill="#8E4420" stroke="#8E4420" stroke-width=".25" d="M139.6 43.8s-2.8 1-5.6 2.6-6.1 3.8-6.1 3.8l-1-6.8s2.6-1.9 5.6-3.2c3-1.3 5.7-3.3 5.7-3.3h1l.4 6.9zm-13.8-7.6s3.2-2.3 5.4-3.1c2.1-.8 7.1-2.9 7.1-2.9l-1.5-6.3s-4.4 1.6-6.3 2.7c-1.9 1.1-5.9 3.5-5.9 3.5l1.2 6.1z"/><path fill="#662312" stroke="#662312" stroke-width=".25" d="M138.2 36.8h-.6s-4.3 1.9-5.5 2.6c-1.3.6-4.6 2.6-4.6 2.6l-.7.6v.8s4-2.4 5.6-3.2c1.6-.8 4.1-1.8 4.1-1.8l2.2-1.5h-.5z"/><path fill="#662312" stroke="#662312" stroke-width=".25" d="M133.3 32.2l1.3 6.5 1-.5-1.2-6.5zm-3.6 1.5l1.7 6.4.7-.7-1-6.3zm-2.8 1.7l1.2 6.5 1-.6-1.2-6.5z"/><path fill="#232153" stroke="#010101" stroke-width=".25" d="M132.2 48.8s12-3.2 15-2.9c2.9.2 5.6.4 7.4.8 1.7.4-5.5-2.9-5-5s6.5-7.8 5.2-9c-1.2-1.3-2.2-2.3-2.2-2.3s-6.4 1.1-8.3 1.1c-2 0-6.1-1.3-6.1-1.3s-1.7.8-2.2 1.7c-.5.8-.6 1.4-1.4 2.6-.7 1.3-2.7 2-2 2.6.7.6.2-1.1 0 0-.4 2.4.7 2.1 3.5 1.7 1.7-.3-1.2 4.4-.2 3.8 1-.6-1.2 1.3-2.1 2.9-1 1.7-2.7 3.6-2.7 4.2-.2.5 1.1-.9 1.1-.9zm-2.1 16.4l.7 1 2.2-2.7s-2.7 4-2.5 5.3c.2 1.3.2 3.6 1.7 2.9 1.5-.6 5.2-3.6 5.4-4.4.2-.8.1-2.3.1-2.3s-1.6 2.3-2.3 1.1c-.7-1.3 0-5 0-5s-1.5 0-2.7.8c-1.2.8-2.6 3.3-2.6 3.3zm10.8 7s-1.7 1.5-2.5.4c-.7-1-.7-2.1-.7-2.7 0-.6.5-1.7.5-1.7s-3.4 2.1-3.4 3.6 0 4.8 1.2 4.8 3.4-1 4.2-1.7c.7-.6.7-2.7.7-2.7z"/><path fill="#010101" stroke="#010101" stroke-width=".25" d="M154.8 55.6s-5 6.6-7 8.8c-1.3 1.4 0 0-2.6 3.4-.5.7-2.9 1.6-2.7 2.3.2.6-2.5.4-2.5.4s-.7-1.5-.7-2.7c0-1.3 2.9-4.6 2.9-5.3 0-.6.7-2.5 3.2-3.1 2.5-.6 5.9-2.1 5.9-2.1l3.5-1.7zm-21.5.5s4.2.6 6.1-.4c2-1 8.8-6.1 12.5-3.8 3.7 2.3 2.9 3.6 2.9 3.6s2.1-8 .3-8.8c-1.9-.8-12.1-1.2-14.8-.8-2.7.4-3.9.6-6.1 1.1-2.2.4-2.9 1.9-3.7 2.7-.7.8-1.5 1.7-1 2.5s0 1.9 1.2 2.9c1.4 1 2.6 1 2.6 1z"/><path fill="#231F20" stroke="#231F20" stroke-width=".25" d="M134.2 42.6c.1-.1 1.8-1.1 1.8-1.1s.2-2.5.1-2.8c-.1-.3-1.3.9-1.9 1.6-.6.7-1.2 1.9-1.2 1.9l1.2.4zm9-1s1.6-1 2.3-1.2c.7-.2 1.3-.2 1.8-.1.5 0-.6 1-1.2 1.4-.6.3-1.1.4-1.3.5-.1-.1-1.6-.6-1.6-.6z" opacity=".3"/><path fill="#E8B987" stroke="#CB905E" stroke-width=".25" d="M134.8 23s-.2 5.2.3 6.1c.4.9 2.4 2.4 6.3 3.6 2.1.6 3.3.6 4.3.6 1-.1 1.6-.3 2.3-.3 1.5 0 3.6-2 4.6-2.8 1-.9 1.7-2.9 1.9-4.3.2-1.4.4-3.1.2-3.5-.2-.4-.6-4.6-.6-5.5 0-2.1-6.9-4-9.3-4-2.4 0-9.2 3.9-9.6 4.7-.4.7-.4 5.4-.4 5.4z"/><linearGradient id="q" x1="149.107" x2="154.806" y1="28.259" y2="28.259" gradientUnits="userSpaceOnUse"><stop offset="0" stop-color="#ec1875"/><stop offset="1" stop-color="#fff5cc"/></linearGradient><ellipse cx="152" cy="28.3" fill="url(#q)" opacity=".18" rx="2.8" ry="2.1"/><circle cx="149.4" cy="24.3" r=".5" fill="#090A0B" stroke="#010101" stroke-width=".25"/><circle cx="143.3" cy="24.5" r=".5" fill="#090A0B" stroke="#010101" stroke-width=".25"/><linearGradient id="r" x1="142.203" x2="135.323" y1="28.278" y2="28.278" gradientUnits="userSpaceOnUse"><stop offset="0" stop-color="#ec1875"/><stop offset="1" stop-color="#fff5cc"/></linearGradient><path fill="url(#r)" d="M135.3 28.3c0 1.4 1.5 2.5 3.4 2.5s3.4-1.1 3.4-2.5-1.5-2.5-3.4-2.5c-1.8 0-3.4 1.1-3.4 2.5z" opacity=".18"/><path fill="#010101" stroke="#010101" stroke-width=".25" d="M145.8 16.9c-4.5-.5-8.3 1.7-10 5.8-.7 1.7-.6 3.5-.2 5.2.4 1.7 1.8 4 1.7 5.7-1.3-.6-2.6-.2-3.4 1.1-.9-4.2-1.6-9.6-1.3-13.8.4-4.7 7.5-7.5 12-7.2"/><path fill="none" stroke="#6D3619" stroke-width=".25" d="M145.5 30.4l-.7-.6"/><path fill="#E8B987" stroke="#B07D55" stroke-width=".25" d="M145.8 26.6s.8-1.4 1.2-1.1c.4.3.6 1.3.6 1.3"/><path fill="#010101" stroke="#010101" stroke-width=".25" d="M147.8 51.5c-2.7 1.4-6.7 4-8.2 6.5-.9 1.5-.7 2.8 1.4 3.4 1.7.5 3-.3 4.7-.9 2.3-.9 8.2-2.7 9.1-4.9 1.4-3.3-4.3-5.6-7-3.9"/><path fill="#E8B987" stroke="#CB905E" stroke-width=".25" d="M141.8 70.7c-.3 1.7-2.6 2.7-3.9 1.5-2-1.8.8-2.9 1.1-4.5m.6-9.7c-.9 1.1-4.4 2.5-5.1 3.6-.3.5-.8 3.2-.6 3.8 1.4 3.5 5.7-2 6.8-3.4"/><radialGradient id="s" cx="-1807.167" cy="-6861.274" r="3.866" gradientTransform="matrix(.188 0 0 .1776 479.81 1254.537)" gradientUnits="userSpaceOnUse"><stop offset="0" stop-color="#5aabc7"/><stop offset=".381" stop-color="#6bafc8"/><stop offset="1" stop-color="#8bb9ca"/></radialGradient><ellipse cx="140.1" cy="35.9" fill="url(#s)" rx=".8" ry=".6"/><radialGradient id="t" cx="-1816.786" cy="-6872.311" r="3.873" gradientTransform="matrix(.188 0 0 .1776 479.81 1254.537)" gradientUnits="userSpaceOnUse"><stop offset="0" stop-color="#5aabc7"/><stop offset=".381" stop-color="#6bafc8"/><stop offset="1" stop-color="#8bb9ca"/></radialGradient><ellipse cx="138.3" cy="33.9" fill="url(#t)" rx=".8" ry=".6"/><radialGradient id="u" cx="-1797.881" cy="-6849.927" r="3.873" gradientTransform="matrix(.188 0 0 .1776 479.81 1254.537)" gradientUnits="userSpaceOnUse"><stop offset="0" stop-color="#5aabc7"/><stop offset=".381" stop-color="#6bafc8"/><stop offset="1" stop-color="#8bb9ca"/></radialGradient><ellipse cx="141.9" cy="37.9" fill="url(#u)" rx=".8" ry=".6"/><radialGradient id="v" cx="-1790.599" cy="-6836.87" r="3.866" gradientTransform="matrix(.188 0 0 .1776 479.81 1254.537)" gradientUnits="userSpaceOnUse"><stop offset="0" stop-color="#5aabc7"/><stop offset=".381" stop-color="#6bafc8"/><stop offset="1" stop-color="#8bb9ca"/></radialGradient><ellipse cx="143.2" cy="40.2" fill="url(#v)" rx=".8" ry=".6"/><radialGradient id="w" cx="-1782.514" cy="-6826.161" r="3.868" gradientTransform="matrix(.188 0 0 .1776 479.81 1254.537)" gradientUnits="userSpaceOnUse"><stop offset="0" stop-color="#5aabc7"/><stop offset=".381" stop-color="#6bafc8"/><stop offset="1" stop-color="#8bb9ca"/></radialGradient><ellipse cx="144.8" cy="42.1" fill="url(#w)" rx=".8" ry=".6"/><radialGradient id="x" cx="-1773.348" cy="-6816.278" r="3.866" gradientTransform="matrix(.188 0 0 .1776 479.81 1254.537)" gradientUnits="userSpaceOnUse"><stop offset="0" stop-color="#5aabc7"/><stop offset=".381" stop-color="#6bafc8"/><stop offset="1" stop-color="#8bb9ca"/></radialGradient><ellipse cx="146.5" cy="43.9" fill="url(#x)" rx=".8" ry=".6"/><radialGradient id="y" cx="-1770.11" cy="-6829.764" r="3.873" gradientTransform="matrix(.188 0 0 .1776 479.81 1254.537)" gradientUnits="userSpaceOnUse"><stop offset="0" stop-color="#5aabc7"/><stop offset=".381" stop-color="#6bafc8"/><stop offset="1" stop-color="#8bb9ca"/></radialGradient><ellipse cx="147.1" cy="41.5" fill="url(#y)" rx=".8" ry=".6"/><radialGradient id="z" cx="-1769.23" cy="-6844.079" r="3.872" gradientTransform="matrix(.188 0 0 .1776 479.81 1254.537)" gradientUnits="userSpaceOnUse"><stop offset="0" stop-color="#5aabc7"/><stop offset=".381" stop-color="#6bafc8"/><stop offset="1" stop-color="#8bb9ca"/></radialGradient><ellipse cx="147.2" cy="38.9" fill="url(#z)" rx=".8" ry=".6"/><radialGradient id="A" cx="-1768.002" cy="-6854.057" r="3.872" gradientTransform="matrix(.188 0 0 .1776 479.81 1254.537)" gradientUnits="userSpaceOnUse"><stop offset="0" stop-color="#5aabc7"/><stop offset=".381" stop-color="#6bafc8"/><stop offset="1" stop-color="#8bb9ca"/></radialGradient><ellipse cx="147.5" cy="37.1" fill="url(#A)" rx=".8" ry=".6"/><radialGradient id="B" cx="-1763.873" cy="-6866.255" r="3.872" gradientTransform="matrix(.188 0 0 .1776 479.81 1254.537)" gradientUnits="userSpaceOnUse"><stop offset="0" stop-color="#5aabc7"/><stop offset=".381" stop-color="#6bafc8"/><stop offset="1" stop-color="#8bb9ca"/></radialGradient><path fill="url(#B)" d="M149 35c0 .4-.3.6-.8.6-.4 0-.8-.3-.8-.6 0-.4.3-.6.8-.6.5-.1.8.2.8.6z"/><radialGradient id="C" cx="-1758.59" cy="-6875.924" r="3.872" gradientTransform="matrix(.188 0 0 .1776 479.81 1254.537)" gradientUnits="userSpaceOnUse"><stop offset="0" stop-color="#5aabc7"/><stop offset=".381" stop-color="#6bafc8"/><stop offset="1" stop-color="#8bb9ca"/></radialGradient><ellipse cx="149.2" cy="33.3" fill="url(#C)" rx=".8" ry=".6"/><path fill="#010101" stroke="#010101" stroke-width=".25" d="M142.2 16.2c1.4.8 2.1 2.5 3.9 3.3 1.6.7 3.2 1 4.9 1.4.6.1 2.1.3 2.5.7 1 1 0 1 0 2.2-.1 1.6.6 3.1-.6 4.7-1 1.3-2.6 2-3.2 3.7-.6 1.6.6 2.9.4 4.5-.1.7-2.7 4.8 0 3.8 1.1-.4 1.6-4.1 1.8-5 .8-3.4 2.8-6.1 4.6-9.1 1.5-2.4.7-6.6-.3-9.1-1.5-3.6-4.5-4.7-8.3-5.1-1.6-.1-3.3-.7-4.8 0-2.2.9-2.2 2.8-.6 4.4"/><path fill="#80371B" stroke="#80371B" stroke-width=".25" d="M171 94.2h1.8V84.1l-1.8-1.8z"/><path fill="#8E4420" stroke="#8E4420" stroke-width=".25" d="M174.2 84.1v9.2l-1.4.9V84.1z"/><g stroke-width=".25"><path fill="#AD1F62" stroke="#E7282B" d="M211.2 72.8l-1.5-1.5s-16.5-5.7-17.1-5.8c-.7-.1-11.2 6.3-11.8 6.9-.7.5.8 3.9.9 4.3.1.4 15.1 4.7 15.1 4.7l2.9-1.3 11.5-7.3z"/><path fill="#AFADA6" stroke="#AFADA6" d="M196.5 79.6l-14.8-4.4.6 1.2 14.4 4.9zm14.3-7.3l-.6-.6s-3.5 2.3-5.8 3.8c-2.4 1.5-4.9 2.2-4.9 2.2l.2 2.2 5.5-3.1 6.1-4.1" opacity=".12"/></g><path fill="#F9F6EF" stroke="#AFADA6" stroke-width=".25" d="M203.2 47.4s3.3 8.3 5.9 10.1c2.7 1.9 2.9 3.7 2.9 3.7h-5.2l-3.6-.7s-18.5 9.6-20.5 10.8c-2 1.2-1.7.8-1 2.4.7 1.5.9 3.7.9 3.7s-3.9 7.2-6.4 7.6c-2.5.3-8.4-4.2-9.1-5.4-.7-1.2-1.1-2.2-1.1-2.2s-.2-2.2 0-2.9c.2-.7-26-10.3-28.4-9.9-2.3.3-4.8-.7-4.8-.7s-3.9 3.4-4.3 3.9c-.4.5-1.6.7-2.3.3-.8-.3.7-2.7.7-2.7s6.2-12 6.8-13c.5-1 2-2.3 2-2.3s13.3 6.6 18.3 8.2c5.1 1.6 18.7 6.6 20.4 6.2 1.6-.5 3.1-1.1 5.3-2.2 2.2-1.1 12.5-6.7 14.8-8 2.3-1.3 4.3-2.4 6.3-3.6 1.9-1.2 2.4-3.3 2.4-3.3z"/><path fill="#AFADA6" stroke="#AFADA6" stroke-width=".25" d="M179.2 65.9c0 .7.2 1.3.5 1.9-.3.1-.9.6-1 .7 1.1.1 1.3 2.6 1.3 3.6-.2.1-.4.1-.6.1-.1 0 1.7-.1 1 0 3.5-1.1 6.2-3.3 9.2-5.2 1.4-.9 3.2-1.7 4.9-2.6 1.2-.6 3.5-2.2 4.8-1.9-.1-.2-.2-.3-.2-.5 1.2 0 2.3-.7 3.5-.9-.4 0-.7-.1-1.1-.3.8-.8 1.5-.7 2.8-1-.4-.1-.7-.2-1.1-.3 1-.8 2.2-1.1 3.3-1.7.2.2.3.4.4.7 0-.6.2-1.2.6-1.7.1.4.3.9.2 1.4 0-2 .2-1.4-1-2.8-.6-.7-1.3-1.6-1.7-2.3-1-1.5-1.5-3.4-2.4-5.1-.5 3.1-3.2 3.6-5.9 4.6-2.9 1.1-5 2.7-7.7 4.3-2.4 1.4-5.2 2.6-7.5 4.1-1 .6-2.5 1.9-2.8 3.1-.2.6 0 2.8.3 3" opacity=".12"/><path fill="#F9F6EF" stroke="#AFADA6" stroke-width=".25" d="M135.8 49.5l14-7 12.6-6.4s-1.1-.7 3 0 36.8 10.6 36.8 10.6 1.1 1.9 0 2.8c-1.1.9-26 15.3-28.4 15.1-2.3-.2-38.5-11.8-39.1-13-.5-1.2 1.1-2.1 1.1-2.1z"/><path fill="#722D17" stroke="#80371B" stroke-width=".25" d="M214.3 46.9l1.3.7 1.7-.7-1.3-1.2zm-12 8.4l2-1-1.6-.9-1.9.7z"/><path fill="#80371B" stroke="#80371B" stroke-width=".25" d="M214.3 46.9s-2.8 9.6-2.8 11.9c0 2.4-1.8 9.4-1.8 11.5v21.2h1.8s-.2-17.4.5-21.4 3.6-22.5 3.6-22.5l-1.3-.7z"/><path fill="#8E4420" stroke="#8E4420" stroke-width=".25" d="M217.3 46.9s-1.2 3.1-1.7 6.5-2.9 17.2-2.9 21.4c-.1 4.2 0 16.7 0 16.7h-1.2V74l1.3-8.6 1.9-12 .9-5.8 1.7-.7z"/><path fill="#80371B" stroke="#80371B" stroke-width=".25" d="M213.7 48.5h1.1l-10.5 5.8-.5-.2z"/><path fill="#8E4420" stroke="#8E4420" stroke-width=".25" d="M199.6 72.3s2.7 0 6.7-3.1c2.8-2.2 4-3.1 4-3.1l.9-5s-.8 1.5-4.7 3.4c-3.9 1.9-5.7 2.2-5.7 2.2l-1.2 5.6z"/><path fill="#80371B" stroke="#80371B" stroke-width=".25" d="M197.9 99.6h.7l.2-14.5 2-13-1.2.2s-1.7 5.7-1.7 8.4v18.9zm2.9-34.2v1.3s4.1-1.4 5.7-2.2c1.6-.8 4.7-3.4 4.7-3.4l-1.5-.8s-2.2 2.2-4.3 3.2c-2.1 1.1-4.6 1.9-4.6 1.9z"/><path fill="#722D17" stroke="#80371B" stroke-width=".25" d="M204.2 59.8l-.4 5.6h.8l.4-6.1zm3.4-1.5l-1 5.3h.5l1.5-6.1zm2.7-2.2l-.6 5.5h.6l1.2-5.5z"/><path fill="#8E4420" stroke="#8E4420" stroke-width=".25" d="M201.4 61.2l10.6-5.6 1.4-6.2-6.1 3.3-3 1.6-2 1z"/><path fill="#81381D" stroke="#81381D" stroke-width=".25" d="M211.2 72.8v4.4l-12.3 7.2.7-4.4s3-1.6 5.5-3.1 6.1-4.1 6.1-4.1zm-14.7 8.6s-9.9-3.1-10.7-3.4c-.8-.3-3.5-1.5-3.5-1.5l-1.2 2.8 15.3 4.7v-2.6z"/><path fill="#8E4420" stroke="#8E4420" stroke-width=".25" d="M179.3 93.4l-.3-11.3 2.2-2.8.5.2-.5 13.7s-.3.2-.6.3c-.4.1-1.3-.1-1.3-.1z"/><path fill="#8E4420" stroke="#8E4420" stroke-width=".25" d="M180.6 85l15.9 5v-.6l-15.3-5.1z"/><path fill="#81381D" stroke="#81381D" stroke-width=".25" d="M196.7 91l-.2-1-15.9-5v.9z"/><path fill="#8E4420" stroke="#8E4420" stroke-width=".25" d="M191.8 82.5v3.4l1.5.5c.3.1.5-.5.5-.5v-2.7l-2-.7zm17.5 0s-3.3-1-4.9-1.4c-.8-.2 1-.6 1-.6s4.3.7 4.3 1c0 .3-.4 1-.4 1z"/><path fill="#81381D" stroke="#81381D" stroke-width=".25" d="M209.7 83.2l-.4-.7-4.9-1.4-.2.4z"/><path fill="#662312" stroke="#662312" stroke-width=".25" d="M187.8 19.6l1.7.6 1-.3-1.2-.6z"/><path fill="#8E4420" stroke="#8E4420" stroke-width=".25" d="M184.8 41.5s1.1-9.4 1.4-11.4c.3-2 1.2-10.3 1.2-10.3l2.1.5s-1.2 8.4-1.7 11.8c-.5 3.4-1 10.1-1 10.1l-2-.7zm20.6-16.3l1.9.5-3 25.4-1.6-3.7z"/><path fill="#662312" stroke="#662312" stroke-width=".25" d="M208.6 25.2l-1.3.5-3 25.4.8 1.5z"/><path fill="#662312" stroke="#662312" stroke-width=".25" d="M206.9 24.5l1.7.7-1.3.5-1.9-.5zm-16.4-4.6l-2.7 22.2h-1l2.6-21.3.1-.6z"/><path fill="#8E4420" stroke="#8E4420" stroke-width=".25" d="M189.7 20.8s3.1 1 7.2 2.2c4.1 1.2 8.3 2.7 8.3 2.7l-.9 6.5s-6-2.3-8.3-3c-2.3-.7-7.3-1.8-7.4-1.7l1.1-6.7z"/><path fill="#662312" stroke="#662312" stroke-width=".25" d="M205.4 25.2l-.5.2s-6.5-2-8.2-2.5c-1.6-.5-6.6-2-6.9-2.1-.2-.1 1-.1 1-.1s5.1 1.2 7.6 2 3.9 1.1 5 1.7c.5.3 1.9.6 1.9.6"/><path fill="#8E4420" stroke="#8E4420" stroke-width=".25" d="M188.1 34.3s4.4.9 8.2 2.1c3.8 1.2 7.5 2.5 7.5 2.5l-1 6.5s-6-2-8.6-2.9c-2.6-.8-6.2-1.8-6.7-1.7-.6.1.6-6.5.6-6.5z"/><path fill="#662312" stroke="#662312" stroke-width=".25" d="M203.5 38.2s-6.2-1.7-8-2.4c-1.8-.6-6.5-1.7-6.8-1.7-.4 0-.6.3-.6.3s6 1.2 7.4 1.8c1.4.6 8.2 2.8 8.2 2.8l-.2-.8z"/><path fill="#662312" stroke="#662312" stroke-width=".25" d="M201 30.9l-.8 6.8h.8l1-6.4zm-4.2-1.5l-.7 6.6 1 .3.9-6.5zm-4.1-1.1l-.7 6.5.9.2.9-6.4z"/><path fill="#8E4420" stroke="#8E4420" stroke-width=".25" d="M140.6 84.3l-6.7 3.7v-.9l6-3.3z"/><path fill="#662312" stroke="#662312" stroke-width=".25" d="M133.9 86.3v.8l6-3.3h-1.2z"/><path fill="#80371B" stroke="#80371B" stroke-width=".25" d="M145.9 85.9v2.9h1.6v-2.6l-1.6-.3z"/><path fill="#662312" stroke="#662312" stroke-width=".25" d="M152.3 92.4l11.1-6.5h-.9l-10.2 5.7z"/><path fill="#8E4420" stroke="#8E4420" stroke-width=".25" d="M163.4 87.4v-1.5l-11.1 6.5v1.1z"/><path fill="#81381D" stroke="#81381D" stroke-width=".25" d="M151.8 83.4c.4.2.6 2.3.5 2.5 0 .3 11.6-6.4 11.6-6.4l.9-.6v-2.4l-13 6.9z"/><path fill="#722D17" stroke="#80371B" stroke-width=".25" d="M140.8 85.3l1.9.6v-1.1l-1.9-.5z"/><path fill="#8E4420" stroke="#8E4420" stroke-width=".25" d="M144.2 85.3l-1.5.6v-1.1z"/><path fill="#80371B" stroke="#80371B" stroke-width=".25" d="M163.4 79.8v14.9l-1-.6V80.4z"/><path fill="#8E4420" stroke="#8E4420" stroke-width=".25" d="M164.8 78.9v15.4l-1.4.4V79.8z"/><path fill="#AD1F62" stroke="#AD1F62" stroke-width=".25" d="M146.6 68.2l18.2 6.5v1.9l-12.6 6.6-3.3.6-16.3-4.8v-2l1.3-1.3z"/><path fill="#AFADA6" stroke="#AFADA6" stroke-width=".25" d="M165.4 74.8V76l-13.2 7.2s-.7-.1 2.4-1.9c3-1.9 9.6-5.6 9.6-5.6l1.2-.9zm-32.8 2.9s7.4 2.2 10.1 3.1c2.7.8 6.3 1.4 6.3 1.4v1.7s-8.6-2.7-9.9-2.9c-1.3-.2-5.9-1.5-5.9-1.5l-.6-.6v-1.2z" opacity=".12"/><path fill="#AFADA6" stroke="#AFADA6" stroke-width=".25" d="M165.7 64.9c0 2.4-1.8 9.1.1 10.8 1.2-.8.8-4.4.8-5.7 0-1.4.9-4.7-1.1-4.9m30-15.7c1.2.2 2.4.9 2 2.2-.9 0-2.3-1.3-3-1.7.4-.4.9-.6 1.5-.5m-14.8 8.3c1.4-1 3.7 1 2.7 1.8-.8-.6-1.6-1.3-2.4-1.8m9.4-3.4c-.6 0-3.1-1.6-3.4-.6-.3 1 2.7 1.4 3.3 1.3-.3-.2-.4-.7-.6-.9" opacity=".12"/><path fill="#AFADA6" stroke="#AFADA6" stroke-width=".25" d="M175.5 62.5c1-1.3 4.4-1.2 3.2-3.2.4.1.8.1 1.2.5 0-.7-.5-1.3.1-1.9 1.2.8 1.5 2.3 2.9.6.2.3.3.9.3 1.2-2.6 2.1-6.6 4.5-10.1 4.5 0-.7 1-.9 1.6-1.2m27.6-15.9c-1.1 0-1.2 1.1-2.3 1.5-.6.2-2.2-.4-2.5-.1-.8.8 1.2 1.1 1 1.9-.1.2-2.6 1.4-2.9 1.6-.5-.6-2.7-1.9-3.1-.8-.2.7 3.2 2.9.6 2.4-1-.2-2.3-2.4-3.7-1.5-1.8 1.2 1.9 1.4 1.5 2.4-.2.4-3 1-3.4.9-.6-.1-2.6-2.5-2.5-.6 0 .6 3 2.4.8 2.4-1.3 0-1.2-1.7-2.9-1.4-.2 1.1 1.3 1.1 1.4 2.2-1.2.3-.5 1.5.5 1.4.7-.1 2.1-1.4 2.8-1.7 2-.9 3.8-1.9 5.6-3.2 1.8-1.3 3.9-2.3 5.8-3.4.9-.5 2.1-.8 2.9-1.5.6-.6 1.4-2-.2-2m-68.1 6.2c-.5-4.9 6.7-.6 7.9 1-1.9 2-6.3-.9-8.3-1.3" opacity=".12"/><path fill="#80371B" stroke="#80371B" stroke-width=".25" d="M202.3 55.3l2-.9s-4.5 24.1-4.7 25.6c-.2 1.5-1.7.8-1.7.8l4.4-25.5z"/><path fill="#8E4420" stroke="#8E4420" stroke-width=".25" d="M200.8 54.1l1.4 1.1s-.4 2.7-1.4 8c-1.1 5.2-2.9 14.5-2.9 18.2v18.2h-1.2V80.7s-.6-4.9.5-10.5 2.3-13.5 2.3-13.5l1.3-2.6z"/><path fill="#81381D" stroke="#81381D" stroke-width=".25" d="M132.6 78.9l16.3 4.9.1 2.9-8.2-2.4-8.2-2.5z"/><path fill="#9F1F5E" d="M147.1 52.2l-14.9.8 6.9-21.3 14.9-.9z"/><path fill="#AD1F62" d="M147.1 52.2l11.8 8.5 6.9-21.4-11.8-8.5z"/><path fill="#FFF" stroke="#FFF" stroke-width=".25" d="M159.3 56.1c-1.5.8-3.4.3-4.1-1-.7-1.3-.2-2.9 1.2-3.7-.2 0-.4.1-.7.2-1.7.6-2.5 2.4-1.8 3.9.6 1.6 2.5 2.3 4.1 1.7.8-.3 1.3-.8 1.7-1.4-.1.2-.3.3-.4.3z"/><path fill="none" stroke="#010101" stroke-width=".25" d="M147.1 35.5l4.7-.2m-4.9.7l4.6-.3m-4.8.7l4.7-.2m-6.3 5.4l4.7-.2m-4.9.7l4.7-.3m-4.9.7l4.7-.2m-6.3 5.4l4.7-.3m-4.9.7l4.7-.2m-4.9.6l4.7-.2m6.2-12.5l3.9 2.9m-4.3-2.3l4 2.9m-4-2.1l3.9 2.8m-4.2-2.2l3.9 2.8m-.9 5.6l3.9 2.8m-4.2-2.2l3.9 2.8m-4-2.1l3.9 2.9m-4.2-2.2l3.9 2.8"/><linearGradient id="D" x1="150.937" x2="160.856" y1="55.134" y2="55.134" gradientUnits="userSpaceOnUse"><stop offset="0" stop-color="#ffeec5"/><stop offset=".289" stop-color="#ffe7b8"/><stop offset=".832" stop-color="#ffd697"/><stop offset="1" stop-color="#ffd08d"/></linearGradient><path fill="url(#D)" d="M151.1 57.8c2.1 1.2 5.4-.4 6.1-2.1.4-.9.7-2.9 1.1-3.9.3-1.1 1.7-1.8 2.4-.3.8 1.6-1.7 5.6-2.8 6.9-1.4 1.6-4.7 1.1-7 1.1"/><linearGradient id="E" x1="123.166" x2="150.261" y1="44.87" y2="44.87" gradientUnits="userSpaceOnUse"><stop offset="0" stop-color="#ffeec5"/><stop offset=".289" stop-color="#ffe7b8"/><stop offset=".832" stop-color="#ffd697"/><stop offset="1" stop-color="#ffd08d"/></linearGradient><path fill="url(#E)" d="M149.3 48.8c.6-.3 1-.9 1-1.6 0-.8-.5-1.4-1.2-1.7 0-1.4.2-2.7.1-3.6 0-1.7-2-7.4-2-7.4s-3.5-.5-6.2-.4c-2.7.1-6.5 3.9-9.8 5.6-3.4 1.6-7.1 7.6-8 7.6 0 0 .3.3.1 1.4-.1 1 .2.6.9 2.8.1.3.5 1.2 1.5 1.5 2.4.7 12.4 2.8 14.5 2.8 1.4 0 3.8 0 6.2-.9 2.4-.9 3.3-2.3 3.4-3.2.2-.8-.4-2.2-.5-2.9 0 .1 0 .1 0 0z"/><path fill="#090A0B" d="M148 45.4c.1.4-.2.8-.5.9-.3.1-.7-.3-.8-.7-.1-.4.2-.9.5-.9.4-.1.7.3.8.7z"/><path fill="#F7F6F5" d="M144.9 31.9s-4.2-2.4-5.9-2.4c-1.7 0-4.9 1.8-4.9 1.8-.1.1.2.1.4 0 .1 0 3.3-1.4 3.7-1.6.4-.1.7-.2.9-.2.1 0 .4.2.7.4.3.2.7.6.9.7.2.2.5.5.7.6.2.1.4.2 1 .3.5.2 2.5.4 2.5.4z" opacity=".14"/><path fill="#FFF" stroke="#090A0A" stroke-width=".25" d="M145.4 36.3s0 .8-2.4-.1-4.3-1-4.3-1 2.4 1.4 3.2 1.7c.8.3 2.1 1.3 3.2.9 1.1-.5.3-1.5.3-1.5zm-20.7-1.2c1.6 1.2 5.9 2.6 8.1 1.9-.4-1-3-1.2-4.1-1.3-1.5-.1-2.9-.5-4.4-.7m7.8-4c1 .9 6 .9 4.6-.4-.5-.5-2.4 0-3.2-.1-1-.1-2.1-.5-3-.8.9.4 1.4 1.2 2.2 1.5" opacity=".13"/><path fill="#090A0A" stroke="#090A0A" stroke-width=".25" d="M129.3 36.3c4.2-.7 5 4.4 2.3 4.3.2-1.1.3-2.8-.7-3.7"/><path fill="#010101" stroke="#010101" stroke-width=".25" d="M139.2 47.1c1 1.2 1.1 2.7 1.3 4.2-5.1 1.7-3.3-5.7-6.9-2.8-3.3 2.7 3.3 6.5-3.4 6.8-10.2.5-10.7-14.5-7.4-19.5 3.4-5.1 15.1-6.5 22.5-2.8 4.6 2.3 4.7 5.5-1.2 7.2-5.2 1.5-4.3 3.7-4.3 8.2"/><path fill="#E4C279" d="M141.5 50.7s.1 1.2 3.9-.3l3.8-1.5s1.8.8.6 2.7c-1.2 1.9-1.8 3.2-5.7 3.6-3.9.4-6.5.5-6.5.5l-1.7-1.1 2.3-2.7 2.1-1.8"/><path fill="#010101" stroke="#010101" stroke-width=".25" d="M147.8 42.6c-1.8-.7-3.7 0-4.2 1.6.9-.6 2-1 3.2-1.3"/><path fill="#092441" d="M149.3 68.6s.5-1.2 1.9-.9c1.4.3 4.4 1 3.8 1.8-.5.9-3.2 2.1-3.2 2.1l5.8-.9s1.9-.3 3.7 1.2c1.7 1.5 1.1 1.7 0 2.4s-5.1 3.6-7.9 4.6c-2.8 1.1-6.4 2.3-10.7 1.5-4.3-.8-7.7-1.2-8.5-2.4-.8-1.2-.7-.5-1.2-2.7-.4-2.2 6.3-1.6 7.5-2.3 1.3-.5 8.8-4.4 8.8-4.4z"/><g fill="#092441"><path d="M149 62.3l1.2 5.9.7 3.1s-14.5 6-16.6 5.4c-2.2-.6-1.2-11.3-1.2-13.3s-1-9.1-1-9.1 9.2 1 10.2 1.3c.9.2 5.8-1.8 5.8-1.8l.9 8.5z"/><path d="M132.3 58s6.6.4 10-.8c3.4-1.2 4.5-1.8 4.5-1.8l.8.6s-.9 2.7-5.4 3.5c-5.9 1.1-10 1.7-9.8-.1.2-1.3-.1-1.4-.1-1.4zm-.7-3.8l.5 2.2s1.6.7 4.6 0c3-.7 5.9-.7 5.9-.7s-5.5-.2-6.7-.6c-1.1-.4-4.3-.9-4.3-.9z"/><path d="M149.7 55.9s-5.6-1.4-6.9.8c-1.3 2.2.9 3.1 3.5 4.2s3.5 1.9 4.2.6c.6-1.3 1.1-5.3 1.1-5.3l-1.9-.3z"/><path d="M149.7 55.9s-1.6.7-1.5 2.9c.1 2.2-.1 3-.1 3l-1.9-.9s.3-1.9.5-2.8c.2-.9 1.3-2.4 1.3-2.4l1.7.2zm-5.3 3.8s0-2.2.6-2.9c.6-.7 1.8-1.5 1.8-1.5s-2.6 1-3 1.4c-.3.4-.4 2.9-.4 2.9l1 .1zM133 63s5.3.9 8 .3c2.7-.6 8-1.2 8-1.2l.2 1.2s-3.2 1.7-7.5 1.9c-4.3.2-8.9.3-8.9.3l.2-2.5zm-.2 5.8s6.8.7 9.9 0c3-.7 7.1-1.7 7.1-1.7l.5 1.1s-5.1 3.2-8.4 3c-3.4-.1-8.9 0-8.9 0v-2.4zm.3 5.4s8.8-.8 12.1-2c3.3-1.1 5.7-2.1 5.7-2.1l-.4 1s-15.8 6.3-17.1 4.5c-1.3-1.8-.3-1.4-.3-1.4z"/></g><g stroke-width=".25"><path fill="#662312" stroke="#662312" d="M130.3 52.3l-.8.7s5.7 2.6 7.7 3.2c2 .6 8.3 2 8.3 2l.4-.8s-7-1.2-9.1-2.1c-2.2-1-6.5-3-6.5-3z"/><path fill="#722D17" stroke="#80371B" d="M127.4 51.9l1.4.4 1.2-.9-2-.3z"/><path fill="#8E4420" stroke="#8E4420" d="M128.8 52.3s1.4 6.6 2.1 10c.7 3.4 1.3 10.2 1.6 12.3.3 2.1-.1 11 0 14.9l.1 7-1.1-.3s.1-2.4 0-6.4c-.2-3.9-.7-8.4-.8-11.7-.1-3.3-.8-13.4-1.2-15.2l-2.1-11.1 1.4.5z"/><path fill="#80371B" stroke="#80371B" d="M130 51.4s2.2 9.3 2.2 10.9c0 1.6.7 8.8 1 11.5.3 2.8.6 9.7.7 12.5v10.2h-1.3s-.1-8.1-.1-9c0 0 .1-3.2.1-7.2 0-3.9-.3-7.5-.3-8.2-.1-.7-1.4-10.2-1.6-11.1-.2-.9-1.9-8.8-1.9-8.8l1.2-.8zm19.8 51.3h1.4s-1-23.5-1.4-28.6c-.2-3.3-2.8-15-2.8-15l.2-1h-1.8s1.2 5.5 1.6 8.5c.4 2.9.9 6.9 1 8.3.1 1.4.4 5.3.6 6.1.2.9 1.2 21.7 1.2 21.7z"/><path fill="#8E4420" stroke="#8E4420" d="M148.2 57.5s1.1 1.9 1.6 5.1c.5 3.2.7 4.4.9 5.7.2 1.3 1.4 13.8 1.5 15.8 0 0 .2 11.2 0 13.7-.2 2.4.1 4.5.1 4.5l-1.1.4s-.8-17.7-.8-18.1-1.1-14.3-1.4-16.2c-.4-2-1.3-6.3-1.3-6.6-.1-.2-.6-2.7-.6-2.7l.2-1 .9-.6z"/><path fill="#722D17" stroke="#80371B" d="M145.7 58.1h1.5l1-.6-2-.3z"/><path fill="#8E4420" stroke="#8E4420" d="M147.7 70.2l.5 5.5s-7.4-1.8-9.7-2.7c-2.3-1-6.2-2.1-6.2-2.1l-.8-6.2s3 2.1 7.1 3.2c0 0 3.3 1 5.1 1.5 1.8.4 4 .8 4 .8z"/><path fill="#80371B" stroke="#80371B" d="M131.5 64.6l.8-.7s6.1 3.4 8.4 3.9c2.3.5 6.7 1 6.7 1l.2 1.3s-6.2-1.4-8.9-2.3c-2.8-.9-7.2-3.2-7.2-3.2z"/><path fill="#662312" stroke="#662312" d="M133.9 60.5v4.4l1.4.6V61m2.5.7v5.2l1.4.6v-5.3m3.3.6v5.5l1.4.5v-5.5"/><path fill="#8E4420" stroke="#8E4420" d="M146.6 63.8s-6.6-1.5-8.4-2c-1.9-.5-7.1-2.3-7.4-2.8-.3-.4-1.3-6.1-1.3-6.1s5.4 2.6 7.7 3.2c2.3.6 7.8 2 8.3 2 .4 0 1.1 5.7 1.1 5.7z"/></g><path fill="#B3B3B3" d="M168.3 46.5c0 .2-.1.4-.3.4-.1 0-.3-.2-.3-.4v-31c0-.2.1-.4.3-.4.1 0 .3.2.3.4v31z"/><path fill="#EB3746" stroke="#EB242A" d="M168.6 10.3s-5.1-8.6-9.7-4.8c-5.8 4.7-1.5 10.6.1 11.9 1.7 1.3 9.1 6 9.1 6s6.9-3.5 9.2-5.2c8.1-6 1.7-12.1-.1-12.7-2.6-.8-6.5 2.5-6.5 2.5-1 .9-2.1 2.3-2.1 2.3z"/><path fill="#EC313E" stroke="#EC313E" d="M168.1 11.7s-3.8-6.4-7.3-3.6c-4.3 3.5-1.2 8 .1 8.9 1.3 1 6.8 4.5 6.8 4.5s5.2-2.7 6.9-3.9c6.1-4.5 1.3-9.1-.1-9.5-2-.6-4.9 1.9-4.9 1.9-.7.7-1.5 1.7-1.5 1.7z"/><path fill="#EB242A" stroke="#EB242A" d="M167.7 13s-2.8-4.7-5.3-2.7c-3.2 2.6-.8 5.8.1 6.5.9.7 5 3.3 5 3.3s3.8-1.9 5.1-2.9c4.5-3.3.9-6.7-.1-7-1.4-.5-3.6 1.4-3.6 1.4-.6.6-1.2 1.4-1.2 1.4z"/><path fill="#EB242A" stroke="#EB242A" d="M167.9 22.7c-.1.5-.5.8-.8 1.3.3.2.7.1 1-.1.1.1.2.3.4.3.1-.1.2-.2.3-.4.4.4 1 .6 1.3.1-.2-.1-.4-.2-.6-.2.3-.9-.5-1.1-1.2-.9" opacity=".64"/><path fill="#030303" d="M165.2 41.1s.6-.6 2.8-.6c2.2 0 2.9.6 2.9.6s-1.6-.6-3.1-.5c-2.2.2-2.5.6-2.6.5z" opacity=".22"/><path fill="#F7F7F6" d="M165.2 41.1s1.2 2.6 1.4 4.3c.2 1.7-.4 4-.4 4s.7.6 1.9.6 1.9-.6 1.9-.6-.7-2.9-.6-4.1c.1-1.2 1.5-4.2 1.5-4.2s-2.3.5-2.8.6c-.5 0-2.9-.6-2.9-.6z" opacity=".45"/><ellipse cx="168.1" cy="49.5" fill="#EBEAE7" rx="1.9" ry=".6"/><ellipse cx="168.1" cy="41.1" fill="none" stroke="#B7B7B8" stroke-width=".25" rx="2.8" ry=".6"/><path fill="#B3B3B3" d="M166.2 49.3s.4-1.8.4-2.5.1-1.4 0-1.7c-.1-.4-1.4-4-1.4-4s.1.2.3.3c.2.1.7 2 .8 2.4.1.3.5 1 .5 1.3 0 .2-.5 4.4-.5 4.4l-.1-.2zm4.5-8s-1.3 3.5-1.4 4c0 .5.3 2.9.4 3.2.1.3.2.9.2.9h-.2s-.6-3.8-.5-4.2c.1-.3 1.4-3.9 1.4-3.9h.1z"/><path fill="#B3B3B3" d="M165.2 41.1s.6.7 2.6.6c2-.1 2.4-.2 2.7-.3.2-.1.4-.3.4-.3s.2.9-3.1.8c-3.2 0-2.6-.8-2.6-.8z"/><path fill="#030303" d="M166.2 49.1s.4.7 1.7.6c1.3-.1 1.6-.2 1.7-.3l.3-.3s.1.9-2 .8c-2.2-.1-1.7-.8-1.7-.8z" opacity=".22"/><path fill="#DFB277" d="M77.1 88.5c.7-.3 1.3-.3 1.5.5.2.5 0 1.2-.3 1.6-.2-.3-.3-.7-.5-1-.2-.4-.6-.6-.8-1"/><path fill="#DFB277" d="M70.6 88.8c-1-.9-2.2-.1-2.2 1 0 .5.3.9.4 1.4l.3 1.5c.4 1.2 1 1.8 2.4 2.1 1 .2 2.1 0 3.1-.1 1.1-.1 2.3-.3 3-1.1.8-1 .8-1.7.8-2.9 0-.5.2-.9 0-1.4-.3-.5-1-.7-1.5-.9-1-.4-1.9-.8-3-.6-.5.1-1.1.3-1.6.4-.5.1-1.5.2-1.7.6"/><path fill="#A0743E" d="M73.9 88c-.6.1-.5 2.9-.2 3.4" opacity=".28"/><path fill="#FAFBF5" d="M73.8 91.4c-.4.2-1 0-1.5.2-.6.2-.9.8-1 1.4-.1 1.4 1.1 1.4 2.2 1.3 1-.1 2.3.3 2.4-1.1.1-.6-.3-1.1-.8-1.5-.5-.3-1-.2-1.6-.2" opacity=".45"/><path fill="#A0743E" d="M70.7 88.9c-.5-.2-1.1.5-1.4.9-.1.2-.3.5-.4.7-.1.2 0 .5-.2.7-.3-.2.2-1.1.4-1.3.3-.4.9-.8 1.4-.9m6.7-.4c0 .1-.1.1 0 0 .1.4.4.6.6 1 .3.4.3.7.4 1.1.3-.4-.8-1.9-1.3-2.1" opacity=".28"/><path fill="#A0743E" d="M73.1 92c-.3-.3-.7.2-.5.6.2.3.7.4 1 .3 1.5-.4-.6-1.4-.8-.9"/><path fill="#2F5588" d="M70 95.2c-.6.3-.8 0-1.3 0-.4 0-.9.4-1.4.5.3.1.9.3 1.1.6.3.4 0 .9 0 1.3.5.2 1 .3 1.3.7.3.3.5.9.7 1.4.2.5.3 1 .7 1.4.4.3 1 .4 1.4.6.9.2 2.1.2 2.9-.2 1.1-.5 1.8-1.4 2.7-2.1-.7-.2.3-.7 0-1 .5-.2.1-.8-.1-1.1.2-.2.8.2 1.1.1.6-.1.6-.4.5-.9-.1-.4-.4-.7-.4-1.1 0-.4.2-.8.1-1.1-1.8-.3-2.9 1.6-4.6 1.3l-1.2-.3c-.2-.3-.2-.5-.5-.3-.2.1-.2.4-.5.5-.5.2-2-.1-2.4-.4-.1 0-.1 0-.1.1"/><circle cx="72.6" cy="91.2" r=".3" fill="#262422"/><circle cx="74.8" cy="91.2" r=".3" fill="#262422"/><path fill="#A0743E" d="M73.2 93.1c.4.4.4.8.4 1.4"/><path fill="#DFB277" d="M67.2 95.6c-.6.3-2.5 1.4-1.8 2.3.3.3.3 0 .6-.2.2-.2.5-.3.7-.3.5-.1 1.1 0 1.6 0 .4-.8.3-1.7-1.1-1.8"/><path fill="#DFB277" d="M69.8 99.5c-.1-.4 0-.8-.1-1.1-.2-.5-.4-.6-.9-.7-.4-.1-.9-.4-1.4-.4-.6-.1-.9.1-1.3.4-.4.3-.7.6-.7 1.1 0 .2.1.4 0 .6 0 .2-.1.4-.2.7-.1 1.2.7 1.5 1.5 2.1.7.6 1.4 1.1 2.4 1.1.8.1 1.9-.3 2.6-.7.7-.4.3-.5 0-1l-.3-.6c-.2-.2-.4-.2-.6-.5-.6-.6-.4-1.9-1.2-2.4m8.6 1c-.1.1-.1.1 0 0 .2.1.5-.1.8-.1.4-.1.6.1 1 .1.3.1 2.1-.1 1.5.7 1.1-.2.5 2.2.3 2.6-.3.6-.5 1.2-1.2 1.4-.5.2-1.2.1-1.7 0-1-.1-2.9-.8-2.9-1.9 0-.3.2-.5.3-.8.1-.3.1-.6.3-.8.5-.5 1.3-.7 1.6-1.2"/><path fill="#DFB277" d="M72 102.3c.6.1 1.1.4 1.8.4.6 0 1.8.1 2.3-.4.4-.4.3-1.3.5-1.8-.8.3-1.7.8-2.5.9-.9.1-1.6-.1-2.5-.4 0 .5.6.8.6 1.2l-.2.1"/><path fill="#19335D" d="M73.3 95.2c.5-.1 1.1.1 1.6.1.6-.1 1.2-.2 1.8-.2 0 .2.1.4 0 .6-.2 0-.5-.3-.8-.3-.3 0-.6 0-.8.1-.6.1-1.3.3-1.8-.1m-2 .1c-.4 0-.7.3-1 .3 0-.3 0-.5-.2-.7.4-.1.9.1 1.2.4"/><path fill="#DFB277" d="M81.5 94.5c-.1 0-.2 0 0 0 .3 0 1 .2.9.6-.6.3-1.2.4-1.8.7-.2.1-.6.4-.8.4-.3 0-.2.1-.3-.2-.1-.1-.1-.3-.1-.4 1-.2 1.4-.1 2-1"/><path fill="#C6C3C1" stroke="#C6C3C1" d="M78.5 98.2l.6.4 3-3.9-.7-.3z"/><path fill="#A0743E" d="M68 98.2c-.6 0-.6 1.1 0 .9.5-.2.5-1.4-.2-.9m-1.1.2c-.7.1-.3 1.2.3.8.5-.3.1-1.1-.5-.9m-.7.8c-.5.1-.2.9.3.8.5-.1.1-1.2-.3-.8m2.6.4c-.6 0-1.2.2-1.7.5-.4.3-1.2 1-.3 1.4.4.1 1.4-.2 1.7-.4.4-.2 1.2-1.1.5-1.4m11 .1c-.5.1-1 1.1-.2 1.1.6 0 1.1-1.2.2-1.1m1 .9c-.3.1-.9.8-.3.9.5 0 .9-.9.3-.9m.8 1c-.2 0-1.2.3-.8.6.3.3 1-.3.9-.6h-.1m-2.2-.4c-.1-.2-.4-.6-.7-.5-.3.1-.3.4-.3.7.1.6.5 1.2 1 1.5.7.4 1.2 0 .9-.7-.3-.6-.8-1-1.2-1.5"/><path fill="#EB242A" stroke="#EB242A" d="M85.1 89.4s0-4.6-2.8-4.1c-3.5.7-3.2 4-2.8 4.9.4.9 2.3 4.4 2.3 4.4s3.7 0 5.1-.2c4.8-.7 3.6-4.6 3-5.2-.9-.9-3.3-.4-3.3-.4-.7.3-1.5.6-1.5.6z"/><path fill="#DFB277" d="M81.7 94.1c-.2.2-.4.2-.6.3.1.1.3.2.5.2 0 .1 0 .1.1.2.1 0 .2 0 .2-.1.1.3.3.5.5.3 0-.1-.1-.2-.2-.2.3-.3.1-.6-.3-.6"/><path fill="#2F5588" d="M70.2 94.4c-.2.9.4 1.1 1.2 1.1.6 0 1.7.1 1.9-.6-.6 0-1.1.1-1.7-.1-.3-.1-.6-.1-.9-.3-.3-.2-.6-.4-.6.2m3.3.3c.5 0 .8.2 1.3.3.4.1.9.1 1.3 0 .8-.1 2-.7 1.7-1.7-.2.2-.4.7-.7.8-.1 0-.5-.1-.6-.1-.2 0-.4 0-.6.1-.6.1-2.1.1-2.4.6"/><path fill="#DFB277" d="M81.1 94.2c1.3 1-1.7 2-2 1.2-.2-1 1.2-1.8 2-1.2z"/><path fill="#2F5588" d="M73.2 94.9c.4.4.5.4 1.2.4h1.3c.9 0 2.5-.7 1.8-1.8-.5.5-1.3.8-2.1.9-.6.1-1.7 0-2.2.5"/><path fill="#2F5588" d="M73.3 95.1c-.3.2-.5.5-.8.6-.3.1-.6-.1-.9-.1-.5 0-1.6-.1-1.7-.8 0-.1 0-.3.1-.3.2-.3.3 0 .4.1.4.2.5.3 1 .3.6 0 1.2.1 1.9.1"/><path fill="#2F5588" d="M73.3 95.2c-.3-.1-.8.2-1.2.2-.4 0-.9-.1-1.2 0 .4.4 1.9-.1 2.4-.2"/><path fill="#A0743E" d="M69.9 99.4c-.4-.3.2-1.1-.4-1.5-.3-.2-.6-.1-.9-.2-.5-.2-.5-.2-1-.2-.3 0-.6-.1-.9 0-.3.1-.2.2-.4.3-.1 0-.4.1-.4.2-.3.2-.5.5-.5.8 0 .4.2.6.1.9-.1.3-.3.5-.3.9s.2.7.5.9c.5.4 1.3.8 1.9.7 1.6-.3 2.2-1.6 2.2-3m11.4.7c.5 0 .3-.4 0-.6-.3-.2-.5-.2-.9-.2-.7 0-1.3-.2-1.9.4-.7.8-1.3 2.6-.5 3.4.9 1 2.7 1 3.5-.2.5-.5 1.3-3.2-.2-2.8" opacity=".15"/><text fill="#FFF" font-family="'MyriadPro-Regular'" font-size="2.033" transform="matrix(.9317 .4482 -.4743 .8804 80.948 91.896)">You</text><text fill="#FFF" font-family="'MyriadPro-Regular'" font-size="2.046" transform="matrix(.8596 .551 -.5832 .8123 81.696 89.74)">I LOVE</text><path fill="#35B34A" d="M52.3 88.8v-19s.1-.9.8-1.7c.7-.8 2.1-2.3 2.1-2.3v-2.5h3.2v2.2s.9 1.1 1.2 1.4c.3.3 1 1 1.2 1.5.2.5.3.7.3 1.1.1.4 0 19.2 0 19.2s.4.3-.6.5c-1 .3-5.2.4-6.1.3-.9-.1-1.7-.3-1.7-.3l-.4-.4z"/><path fill="#249346" d="M52.6 70.4c.2 0 8.6-.3 8.5 0-.1.3-.1 18.8-.1 18.8s-2.1.5-4.2.5-4.1-.3-4.1-.3l-.1-19z"/><path fill="#35B34A" d="M55.8 63.4V66s-.5.9-1 1.6c-.5.6-1.4 1.6-1.1 2.7.1.5 7.4.1 7.4.1s.1-1.1-.4-1.8-2.4-2.6-2.4-2.9v-2.2h-2.5z"/><path fill="#2AA64A" d="M55.8 63.4V66s-2.2 3-2.2 3.6c0 .6.7.6.7.6l-2 .1s.2-1.2.5-1.7c.6-1.1 2.3-2.5 2.5-2.8.3-.3.1-2.5.1-2.5h.4zm2.9 2.2c-.4 0-1 .3-1.2.5.7.1.8 0 1.5.4.5.3.7.8 1.2 1.1-.2-.3-.4-.7-.7-1-.4-.3-.6-.8-1.1-1.1"/><path fill="#35B34A" d="M53.4 70.2l.2 19s-.4.1-.6-.3c-.2-.4-.2-18.6-.2-18.6l.6-.1z"/><path fill="#258943" d="M60.2 67.7s.8.9.9 1.4c.1.5 0 17.4 0 17.4l-.5.5.1-17.5-.5-1.8z"/><path fill="#393737" d="M55.2 59.4v-.8s1 .1 1.6 0c.5-.1 1.1 0 1.1 0l.5.8s-1-.5-1.6-.4c-.7.1-1.6.4-1.6.4zm0 4.2h3.2V61s-.7-.4-1.6-.3c-.9.1-1.6 0-1.6 0v2.9z"/><path fill="#393737" d="M58.3 59.4V61s-.3-.4-1.2-.3c-.8.1-2 0-2 0v-1.3s.2-.5 1.6-.4c1.4.1 1.6.4 1.6.4z"/><path fill="#FFF" d="M55.2 63.6h.2v-5h-.2zm2-4.8c.2.8.2 1.5.2 2.3-.1.8.3 1.6.1 2.3.6-.1.1-3.1 0-3.7.1-.3-.2-.5-.3-.9 0-.1-.1-.1-.2-.1 0 .2 0 .3.1.4" opacity=".25"/><path fill="#258943" d="M57.8 89.1c1-.7 3.1-2 3.3-3.4-.3 1.1-.2 2.5-.3 3.8-1.5.1-2.7.1-4.1.2.7-.2 1.5-.6 2.1-.9"/><path fill="#393737" d="M52.2 75.6s2.9.1 4.4 0c1.6-.1 4.4 0 4.4 0v12.2s-2.5.3-4.4.3c-1.9-.1-4.4-.4-4.4-.4V75.6z"/><path fill="#AD1F62" d="M52.8 76.4s2.5.1 3.8 0c1.3-.1 3.8 0 3.8 0v10.5s-2.1.3-3.7.2c-1.6 0-3.8-.3-3.8-.3V76.4z"/><text fill="#FFF" font-family="'Verdana'" font-size="2.518" transform="matrix(1.0583 0 0 1 53.66 81.782)">wine</text><path fill="#F0EEF0" stroke="#B3B3B3" stroke-width=".25" d="M46.8 73.1h4.1s.8 2.5.8 3.1c0 .6.1 2.2-.4 3-.5.8-1 1.5-1.4 1.6-.4.1-.4.1-.5.1-.1.1-.7.2-1.2 0s-1.8-.9-2-2.1c-.3-1.2-.3-2.2-.1-3.1.2-1 .7-2.6.7-2.6z"/><path fill="#F0EEF0" stroke="#C3C3C3" stroke-width=".25" d="M48.7 86.1l.1-4.9s0-.1.2-.1.3.1.3.1v4.9s0 .1-.2.1c-.4 0-.4-.1-.4-.1z"/><path fill="#010101" stroke="#010101" stroke-width=".25" d="M48.7 81.3c-.1-.2-.2-.3-.2-.4 0-.1-.1-.1-.1-.1s.4-.1.6 0c.2 0 .5-.1.5 0s-.2.2-.2.2v.2l-.3-.1c-.1 0-.3.2-.3.2z" opacity=".08"/><path fill="#E0E0DF" stroke="#BBBCBC" stroke-width=".25" d="M46.4 87.4l.6-.2c.3-.1 1-.3 1.1-.4.1-.1.3-.3.4-.3l.1-.1h.7s0 .1.2.2c.1.1.5.4.7.5.2.1.9.3 1.1.3.2 0 .3 0 .3.1-.1 0-5.2-.1-5.2-.1z"/><path fill="#010101" stroke="#010101" stroke-width=".25" d="M46.4 87.5l.1.1c.1 0 1.8.1 2.3.1.5 0 2.2 0 2.4-.1.2-.1.2-.2.2-.2h-4.9s-.1 0-.1.1c0-.1 0 0 0 0zm1.9-.9h1.1c.1 0 0-.1 0-.1-.1 0-.1-.2-.1-.2s-.6.1-.7 0c-.1 0-.2.1-.2.2s-.1.1-.1.1zm-.2.5s.4-.3.9-.3.7.1.7.2l.1.2s-.4.1-.8.1h-.7c-.1-.2-.2-.2-.2-.2z" opacity=".08"/><path fill="#E0E0DF" d="M49.1 81.3v4.8h.1l.1-4.8zm-.4 4.8h.1v-4.8h-.1zm-.2-12.9s-1.5.4-1.8 1c-.2.6-.6 2.5-.5 3.1.1.6.7 2.8 1.9 3 1.1.1 1.8.1 2.1-.3.4-.4 1.1-2.3 1.2-2.7.1-.4-.1-2.2-.3-2.8-.2-.6-.6-1.1-.6-1.2 0-.1-.1-.1 0-.1h.4s.5 1.5.6 2c.1.5.3 1.5.2 2.1 0 .6-.3 1.7-.5 2.1-.3.4-.8 1.1-1 1.2-.2.1-.3.2-.5.2s-.6.2-.6.2h-.7l-.7-.3s-1.2-.7-1.4-1.5c-.2-.8-.4-2.4-.3-3.2.1-.7.7-2.8.7-2.8h1.8z"/><path fill="#010101" d="M48.6 86.1l-.1.2h.6l.2-.1s-.1-.1-.1-.2v-.1s-.2.1-.3.1c0 .2-.2.2-.3.1z" opacity=".19"/><path fill="#010101" stroke="#010101" stroke-width=".25" d="M46.1 77.7h.3s.3 2.7 2.6 2.6c2.3-.2 2.2-2.5 2.2-2.5h.5s-.6 2.1-1.2 2.5c-.6.4-1.2.7-1.8.6-.6-.1-1.6-.7-1.9-1-.3-.3-.6-.9-.7-1.3.1-.5 0-.9 0-.9z" opacity=".08"/><path fill="#AC2250" d="M46.1 77.7h5.7s.1.5-.2 1c-.3.5-.7 1.3-1 1.5-.3.2-.5.4-.8.5-.3.1-.6.1-.8.1-.2 0-1-.2-1.3-.4-.3-.3-1.2-1-1.3-1.8l-.3-.9z"/><path fill="#961B49" d="M50.2 78.7c.4-.1.7-.6 1-.9.1.5-.5.7-1 .9m-3.6-.8c.1.2.2.3.3.5.1.2.4.3.4.5-.3-.1-.8-.8-.7-1"/><path fill="#961B49" d="M51.8 77.7h-5.7v.2h5.7z"/></g></switch></svg>
