<svg xmlns="http://www.w3.org/2000/svg" version="1.0" viewBox="0 0 20.6 41.6"><switch><g><g fill="#D0E7C4" stroke="#D0E7C4" stroke-width=".25"><path d="M6.1 3.4c0-.2-.2-.2-.2-.3-.2-.2-.2-.1-.2-.3 0-.3.1-.7.5-.6.5 0 .5.5.5.8 0 .2.1.2-.1.4-.1.1-.4 0-.2.3-.3.2-.3-.2-.3-.4m0 1.8c.4 0 .7-.3.8.3 0 .4.1.8-.4.8h-.4c-.3-.2-.2-.1-.2-.3-.1-.3 0-.7.3-.9m-5 3.1c-.1.1-.2.7-.2.8 0 .2.2.1.2.3.1.2-.1.3 0 .5 0 .3.3.5.3.7v.5c0 .1.2.2.2.4.1.3-.2.6-.2.9 0 .3.4.6.5.9.1.2 0 .6.3.8.3 0 .7-.1.7-.4h.4c.1-.3.3-.1.6-.1v.1c.2 0 .3-.1.4-.2-.3-.4.3-.3.5-.3 0-.2-.4-.8-.4-1 .5-.1 0-.4 0-.5-.1-.2-.1-.6-.1-.8-.5.1-.5-.7-.4-1-.4-.1-.6.2-.4.5-.3.2 0 .3-.1.5-.1.1-.4.3-.5.3-.3 0-.4-.1-.4-.3 0-.1.1-.2 0-.3 0-.1-.1-.1-.2-.2-.1-.3-.2-.4-.2-.6-.1-.3-.1-.3-.3-.6-.2-.3-.4-.6-.7-.9m6.2 4.4v-.1c.3 0 .5-.3.8-.5.3-.2.6-.3.9-.4.1.3-.2.7-.4.9-.3.3-.8.3-1.2.1v-.1m2.2-3c.3.4.3 1.1.4 1.6 0 .1.1.3.1.4 0 .1-.2.3-.2.3 0 .2.3.4.4.6.2-.3 0-1.1-.1-1.4 0-.5 0-1.5-.6-1.5m.4 3.4c.1.3-.1.5-.2.8-.1.4.2.5.3.8 0 .1-.1.3-.1.4 0 .2.1.2.2.4s.1.8.5.7c.3-.1-.1-1.6-.2-1.9-.1-.3-.1-.6-.2-.9-.1-.3-.4-.6-.3-.1m-5.2 1.4c.2 0 .2-.2 0-.3.2-.3.2-.4-.1-.4h-.7c-.3.2.5.7.8.7m-.3 1.5c0-.3-.2-.9.4-.8.4.1.4.7.8.6.1.2 0 .3.1.5.1.1.3.2.3.3v-.2c.2 0 .2.4.4.6.2.2.5.2.7.3.1.1.4.3.5.5.2.3.1.4.1.7.4 0 .2.2 0 .3-.2.1-.6-.2-.7-.1-.5.1-.4.7-1.1.5 0-.2-.1-.4-.1-.6 0 0 .1-.1 0-.2 0-.1-.2-.2-.2-.3-.2-.4.2-.9-.1-1.3-.3-.6-.6 0-1.1-.3-.3-.2-.2-.3-.1-.6 0-.3.1-.4-.1-.7M9 17.3V17c.2-.1.5-.1.7-.2.2-.1.4-.4.6-.4.2 0 .3.4.4.5.1.3.2.3.4.5.4.5-.6.6-1 .6-.6-.1-.7-.4-1.1-.8m1.1 2.6c.1-.2 0-.8.3-.8.2.2.2.4.3.6.1.1.4.2.5.3.2.2.3.2.5.3.1.1.5.1.5.4-.1.3-.4.1-.6.1-.3-.1-.3-.1-.6-.1-.4.1-.9-.2-.9-.8m1-1.2c0 .2.1.7.4.4.2-.2-.3-.4-.4-.4m.2 6.3h-.4c0 .4-.2.3-.4.5-.1.1-.2.5-.2.6.2.1.7-.3.7.1-.2 0-.3.1-.4.2.2.2.3-.1.5-.1s.3.3.5.3 1.2-.1.8-.4c0 0 .2-.1.2-.2-.1-.2-.2 0-.2-.2-.1-.1-.2-.3-.3-.5-.4-.4-.7-.3-1.2-.5M9.5 6.3c-.2 0-.4.3-.2.4.3.2.4-.3.2-.4M11.9 22v-.1c-.3-.1-.5-.1-.7.2.3.2.5 0 .7-.1m-.6 2.1c-.2.1 0 .6.3.5.1-.2-.1-.5-.3-.5"/><path d="M4.7 13.3v-.1c-.2 0-.3.1-.3.3.2 0 .4 0 .3-.2m10 19.3c0-.2-.1-1.1.1-1.3.3-.4 1-.1.8.3.3 0 .5-.1.7.2-.2.2-.5.1-.7.1 0 .3.4.3.6.5.1.2.3.5.3.7-.5.6-1.2-.1-1.8-.5m1.6 3.2c-.1-.2.2-.4.4-.3.4.1 0 .3.1.5.1.3.4.2.6.4.3.3 0 .3-.1.5s.1.5-.3.4c-.2 0-.3-.3-.3-.5-.3-.2-.7-.7-.4-1m3.3 4.6c-.2-.1-.5-.2-.6 0-.1.2.1.5.3.6.6.3 1-.6.3-.6M7.6 2c.1-.4-.5-.2-.5.1.2.1.4.1.5-.1m0 .9c-.1 0-.1-.1-.2 0 0 .1.1.3.2.3v-.3M5.7 1.3c-.2 0-.4 0-.4-.2 0-.1.1-.1.2-.1.1.1.2.2.2.3"/></g></g></switch></svg>
