<svg xmlns="http://www.w3.org/2000/svg" version="1.0" viewBox="0 0 43.3 28"><switch><g><path fill="#003" d="M.1 0h43.3v27.9H0L.1 0C0 0 0 0 .1 0z"/><circle cx="21.3" cy="14.6" r="12.2" fill="#A9671E"/><g fill="#58310A"><path d="M14.3 11.6c1.2.1.7-1.1 1-1.4.1-.1.6-.4.5-.6-.1-.2-.6-.1-.7-.2-.1-.1 0-.6-.1-.7-.1-.2-.7-.8-1-.7-.8.4-.2.9-.4 1.1-.3.3-.7.1-.9.5-.2.3.5.4.6.5.4.4-.8 1.1 1 1.5zm14.4 10.6c.7.9-.8 1.4-.8 1.7 0 0 .5-.2.6-.3.4-.2.7-1.1.2-1.4zM11.4 9.8c.6 0 .8 1.9.1 1.5-.3-.1.1-.5-.1-.8 0 0-.4-.4-.2-.6.1 0 .2 0 .2-.1z"/><path d="M11 8.8c.3.7 0 1.6-.3 2-.1.1-.3.1-.4.2 0 0-.1.2-.2.2-.1-.1.3-.5.4-.7.2-.6.2-1.2.5-1.7zM22.6 5c.4-.1.9.2 1.2.5.4.4-.5.3-.5.3l.1.1c.5 0 .6.8.9 1 .1.1 1.2.9 1.1 1-.1.1-.2-.1-.2-.1-.3-.1-.7-.3-.9-.5-.2-.2-.3-.6-.5-.8-.1-.1-.3-.1-.4-.2-.1-.1 0-.4-.1-.4-.1-.1-.3-.2-.4-.1-.2.2-1.2 1.3-1.3 1.2-.1-.1.3-.5.4-.6.4-.5.9-.8.6-1.4zm5.3 3.4c-.4.1-.1.7-.4.8-.1 0-.5.2-.4.3.3.3 1.1-.6 1.5-.3.3.3-.7 1-.8 1.1h-.3c-.1.1.6.3.7.3.1.1.2.9.5.5.1-.1.1-1.9 0-2-.1-.1-.8-.1-.9-.3 0-.1.1-.3.1-.4zm-4.4 10.1c.1-1.3 1.4-.7 2.2-1.6 0 0 .2-.1.3-.1.1.1-.5.5-.3.5.1 0 .7-.2.6-.2-.1.3-.5.4-.7.5l-.2.1s.5-.1.6-.2c.2-.1.8-.7 1.1-.4.4.4-1.7 1-1.9 1.1-.2.1-.2.3-.3.4-.2.2-.5-.4-.6-.4-.1.1-.7.3-.8.3z"/></g><g fill="#EBBE5E"><path d="M21.7 9c0 .3.2 1 .5 1.2.8.5 1.8.9 2.4 1.5.2.2.1.6.3.8.1.1.4.6.3.7-.2.2-.8-.5-.9-.4-.1.1.7.7.8.8.2.2.3.5.5.7.2.2-.1.8.1.9 0 0 .1 0 .2-.1.4-.3.3-.8.2-1.1-.1-.2 0-.4-.1-.5-.1-.3-.3-.4-.5-.6-.1-.1.1-.3 0-.4-.3-.6-.2-1.1-.7-1.6-.7-.6-3.3-1-3.1-1.9z"/><path d="M17.6 19.7c.1 0-.4-.3-.3-.3.1 0 0 .3.1.4 0 0 .2-.2.2-.1.2-.1-.2.2-.2.3.2.2.3.5.6.7.5.3 1.1-.9 1.9-.9.3 0 .5.1.6.2.1.1.4-.1.5 0 .1.1.7.3.8.2.2-.2.3-.3.6-.4.1-.1.4-.1.4-.3 0 0 .2-.2.1-.3-.2-.2-2.1.7-2.4.4 0 0-.2-.5-.1-.6.1-.1 0-.3.2-.4.6-.3 1.4-.1 1.8.3.3.3-1.4 0-1.2 0 .1 0 .4.2.6.2.3 0 1.5.1 1.6-.1.1-.1 0-.6.1-.7.1-.1.5-.2.8-.3.5-.3.7-.6 1-.9.1-.1-.4.1-.6-.1-.4-.4.6-1 .7-1.1 0 0-.5-.1-.4-.2.3-.3 1.2.5 1.7.3.1-.1.3 0 .5-.1l.2-.1c0 .2-.3 0-.5 0s-.5.2-.5 0c0-.1.9-.4.9-.2 0 0-.6-.4-.5-.4.1-.1.2.1.3.1 0 0 .3 0 .3.1 0 0 0-.1-.1-.1-.2-.2-.3-.2-.5-.4-.5-.5-.8-.8-1.6-1.2-.5-.3-.3.3-.6.3s-.7-.3-.7-.2c0 .1.6.4.3.4-.2 0-.9-.3-1-.2-.1.1.6.4.6.5-.1.1-.7-.3-.8-.2-.1.1.3.2.3.3.2.2.6 1.3.4 1.5-.1.1-.7-.2-.8-.2-.2.2.4.3.4.4 0 0-.4.1-.4.2-.1.1-1 .9-1 .8-.3-.3 1.1-.6 1.1-.8h-.2c-.4-.4-1.2.6-1.4.6-.3-.1-.9-.7-1.2-.4 0 0-.1.1-.1.2.1.1.3.3.3.5l-.6-.3c-.1-.1-.6.4-.7.5-.5.2 0 .3-.2.4-.2.2-.7-.1-.9.1-.1 0-.4.2-.5.2-.3-.3 1.2-.1.9-.5-.3-.3-.9-.2-1.2.1-.3.3-.9-.5-1-.5-.4-.4-.8.6-.8.6-.1.1-.5 0-.6.1-.2.1.5.4.6.4.4.2 1.4 0 1.5.1.3.3-.7.6-.7.6-.3.3.6.3.6.3.1.1-.1.2.1.3.1.1 0-.3.1-.4.1-.1.4-.4.6-.5.2-.2 1.6.1 1.7.3.2.3-.7.4-.8.5-.2.2.5.4.5.5 0-.3-1.6.5-1.4-.5zm8.6-5.7c.2-.7 1.3-1.5 2.1-1.5.1 0 .2-.1.2 0s-.4.1-.5.2c-.4.1-.7.3-1 .5-.6.3-.1.8-.4 1.1-.2.1-.3-.1-.4-.3z"/><path d="M25.7 13.7c.3-.2.2-.5.3-.8.1-.3.3-1.2.4-1.4.3-.3.5-.9.5-.8 0 .3-.5 1-.6 1.2-.2.6-.3 1.3-.3 1.9 0 0 0 .7-.1.7 0 .3-.1-.8-.2-.8zm-8.4 4.8c-.6.5-1.5-.3-2.1 0-.2.1-1.9.5-1.4 1 0 0-.4-.5-.3-.6.2-.2.5-.2.5-.2 0 .2-.5.1-.5-.1 0-.5 1.6-.2 1.6-.4 0-.3-.6-.1-.7-.2-.4-.4.2-.4.2-.4 0 .2-.8-.5-1.1-.3-.4.2-.3 1.3-.4 1.3-.1 0-.3-1-.4-.8-.3.3-.3 1.4-.1 1.7.2.2.4-.5.4-.5.1 0 0 .6.3.8.1.1.4-.2.4-.2.1 0 .8.8.8.9.1.2.9 1.1 1.1 1 .3-.2.4-.9.7-1.1.2-.2.6-.2.7-.4l-.4.4-.8.8c-.1.1.1.4-.2.4-.5 0-.7-.8-.8-.7l.1.2c.2.5.6 1.5.2 1.9-.3.3-1.5-.5-1.5-.7 0-.1 1.4.6 1.4.5 0-.1-.2-.1-.2-.2-.1-.1 0-.2-.1-.3-.2-.2.4-.1.4-.2s-.1-1-.4-.9c-.4.2 0 .6-.1.8-.2.2-1-.5-1 .2 0 .4-.1.6-.1 1 0 .1.1.3 0 .3s0-1.1-.1-1.2c-.1-.1-1-.5-1-.7 0-.1.1 0 .2.1.3.1.8.3 1 .5.2.2-.6-.7-.5-.7.3 0 .9.8 1.1.5.2-.2-.3-.4-.5-.7-.1-.2 0-1.3.3-1.1.1.1-.2.8-.1 1 .1.2.5.4.4.4 0 0-.5-1.4-.5-1.5 0-.6-.8.3-.5.8.1.1.6.7.6.8-.4.4-.8-1.8-1-1.7-.6.3.6 1.5.5 1.6-.1.1-.7-.3-.8-.3-.1-.1 0-.5-.1-.6-.1-.1-.3-.2-.4-.3 0 0-.1-.1-.2-.1-.1.1.3.5.3.5s.3.5.2.6c-.2.2-.2-.3-.2 0v.4c-.1.1-.1-.7-.2-.7-.2-.2-.8-.2-1-.4-.1-.1.2-.3.4-.5.3-.3-.2-.6-.1-.7.1-.1.6.5.2-.3-.1-.2-.4-.3-.6-.4-.3-.2-.9-1.2-1.1-.6-.1.2-.2 1.6.2 1.6.3 0-.4-1.4-.4-1.4-.2-.7-.4-1.7-.4-2.4 0-.3.1-.7.1-1 0-.3.1-.7.1-.6-.1.1-.1.3-.1.5-.3 1.1.4 1.6.8 2.5.1.2.2.6.4.8.2.2.3-.7.5-.5.1.1.4.6.5.5 0 0-.7-1.3-.8-1.5-.1-.2.3-1 .4-.9 0 0 .3 1.7.3 1.1v-2.3l-.1-.2c-.3.3.7 1.4.9 1.6.2.2 0-.5 0-.6-.1-.2-.3-.4-.3-.4s.4.8.5.8c.2.4.6.4.9.6.5.5-.2.8-.5 1.2 0 0-.5.7-.3.7.1 0 .3-.4.4-.5.3-.3.7-.4.9-.6.1-.1.7-.1.8-.1.3.1-.1.5 0 .5.2.1.6-.1.8.1.1.1-.7.2-.1.5.3.1 2.3.4 2.3.6l-.3-.3zm8 .2c.4-.1.7-.6 1-.6.4 0 .8-.3 1.2-.2.1 0 .5.3.6.3.2-.2.3-.6.4-.7.1-.1 1.8-1 1.8-.7h-.4c-.3.2-.6.2-.9.4-.4.4-.8.7-1.1 1-.1.1-.4-.2-.5-.3-.5-.2-1.8.4-2.1.8zm1-1.6c1.2 1 2.8-2.1 3.2-1.1 0 0-.6-.1-.9 0-.6.3-.9 1-1.4 1.2-.5.3-1.1-.1-.7-.1"/><path d="M28.3 16.2c.4.2.7.4 1 .7.2.2-.2.3-.3.2-.1 0-.1-.3-.2-.4-.1-.2-.3-.3-.5-.5zm4.9-.8c-.3.1-.4.5-.6.7-.4.7-.3 1.1-.3 1.7 0 .1-.1.4-.1.4.1.2.2.4.2.6 0 .1.1.6 0 .6l-.4.3s.3-.5.4-.6c0-.1-.6-2.4-.2-2.8.3-.3.5-.7.7-.9.2 0 .9-.1.3 0z"/><path d="M30.1 17c.1 1.4 1.7.9 2.1-.1.1-.1.2-.3.2-.4v-.2c.1 0 0 .2-.1.3-.2.7-.9 1-1.4 1.5-.2.3-.7-.9-.8-1.1z"/><path d="M30 17.4c-.5.8-.9.3-.1 1.1.1.1.1.2.2.3.3.3-.4 1.2-.4 1.5 0 .1.1 1.4.1 1.4s.1-.4.2-.4c.2-.3 0-.7.2-1 0-.1 0-.4.1-.5.6-.6 0-1.1-.4-1.6-.6-.5.6-.8.1-.8zm-12.4-.1c.4-.9-.2-1.6-.8-1.9-.1-.1-.5 0-.6-.1-.2-.2 1.2.5.6 1.1-.3.3-.8-.4-1.2-.2-.1.1-.5.4-.3.5.4.4 1.6.7 2.3.6zm11.2-1.2c.3-.4 1.2-1.8.6-2.4-.1-.1 0-.3-.1-.3-.2-.2-.3-.3-.3-.7 0-.5-.1-.8-.1-1.3 0-.1.3-.5.3-.3 0 .1-1 .8-.6 1.2.1.1.3.2.4.4.1.1.4 1.6.2 1.8 0 0-.5 1.3-.4 1.6z"/><path d="M28.7 8.5c0 .2-.2.6-.2.8.1.3.5.3.7.5.4.4-.5 2.2.1 2.7 0 0-.1-.4-.1-.5 0-.2.2-.4.3-.5.1-.2-.1-.6-.1-.7 0-1.2-.2-.7-.8-1.4-.1-.2.2-.6.1-.9zm-4.9 10.2c.3.5-.2 1.1-.5 1.5-.2.2.3.9.2 1.1-.1.1-.4.2-.5.3-.2.2 0 .9-.1.9s.1-.9.2-.9c0 0 .7-.4.6-.5-.1-.1-.4 0-.5-.2-.3-.3.6-1.6.8-1.8 0 0-.2-.3-.2-.4z"/><path d="M22.8 19.5c.1.4.2.8-.1 1-.2.2-.3.8-.3 1l.3.4c-.1 0-.1-.2-.1-.3 0-.1-.3-.6-.2-.7.4-.2 1.3-1.2.4-1.4zm-1.5-7.2c-.1.6 0 1.2-.4 1.6-.1.1.6.6.3.8-.1.1-.1.2-.2.3h-.3c0 .3.4.1.6-.2l-.1-.8c-.1-.1-.2-.1-.3-.2-.2-.2.5-.6.6-.7.4-.2-.1-.8-.2-.8zm1 .8c1 .4 1.6-.5 2.3.2 0 0 .2.1.1.2 0 0-.1-.1-.2-.1-.1-.1-.3-.1-.4-.2-.2-.2-1.5.2-1.6.1 0-.1 0-.1-.2-.2zm-6.7 2.6c-.4.3.4-1.5.4-1.1 0 .1-1.2.9-.4 1.1zm-1.7 1.1c0-1 .4-1.7.7-2.4.1-.2.3-.1.4-.2 0 0 .1-.1.2-.1.1.1-.6.8-.8.9-.4.4-.2 1.3-.5 1.8zm6.4 0c-.9-.3.3-1.1 0-1.5-.4-.4-1.5-1-1.5-1.6 0 0 .3.4.6.6.4.2.5.7.8 1 .3.3-.9.9.1 1.5zM18.2 4c-.3.1-.6.2-.8.4-.3.3.1.5.1.5-.1.1-.4-.1-.5 0 0 0 .1.2 0 .3-.2.2-.5-.1-.5-.2s-.3.3-.4.3c-.1-.1.4-.5-.1-.3-.3.2-1.7.8-.7.3.2-.1-.4.2-.5.3-.1.1.1.7-.1.8 0 0-.7.5-.5.7.1.1.2-.7.3-.8.3-.3.2-.7.2-.8.3-.1.7-.2.9-.5.2-.2.6 0 .9-.1.4-.1 1.5-.6 1.7-.9zm10.5 17.1c0 .2-.2.4-.3.5l-.3.3c-.3.6-.8.5-.1.2.3-.1.9-.1 1.3-.1.1 0 .4 0 .5-.1 0 0 .1-.2.1-.1s-.7 0-1 .2c-.1.1-1.1.3-1.2.2-.1-.1 1.1-.7 1-1.1zm-.8-13.7c-.4-.2-.3-.7-.7-.9-.7-.4-1.7-1.1-1.7-1.9l-.4-.9c.6 0 2.2 2 2.5 1.7.4-.4-1.4-.7-1.5-.8-.1-.1-.3-.1-.4-.2-.1-.1-.4-1-.8-.7 0 0-.2.3-.1.4.5.5.8 1.4 1.4 1.9.1.1.1.3.2.4.2.2.7.4.8.7.1.2.1.3.2.4.1-.1.4-.1.5-.1z"/><path d="M25.6 5.3c-.4-.4-.3-.8-.5-1.3-.1-.2-.5-.5-.6-.6-.1-.1-.3 0-.3-.1 0 0 .5.1.6.1.2 0 .8.1.9.3l.3.3s-1.3-.5-1.4-.5c-.1.1.2.4.3.4.2.2.2.8.5 1.1.1.1.3 0 .3.1-.1.1-.2.2-.1.2s.1-.2.2-.1c0 .1-.2.1-.2.1z"/><path d="M24.6 5.6c.1-.2.6-.7.4-.9-.4-.4-.4-1.1-.7-1.4-.1-.1-.3 0-.3-.1s.2.1.3.2c.1.1.6.1.6.2s-.5-.3-.7-.1c-.1.1.2.2.2.2.1.1.1.3.2.4.1.1.1 1.1 0 1.5zm-.8-.5c0-.9-.6-1.9-1.1-2.4-.2-.2-.9-.3-1.1-.3h-.5c-.1 0-.2.1-.2.1 0-.1.7.3 1.4.3.8 0 .8 1.4 1.1 1.7.2.2.3.3.4.6z"/><path d="M22.8 4.8c-.2-.2-.4-.2-.6-.4-.2-.2.2-.6.3-.6.1-.1-.4-1.1-.5-1.1-.1 0 0 .2.1.3.1.1 0 .4.1.5.4.4-.1.8 0 .9.1.3 1.1.5.6.4zM21.7 4c.4-.7 0-.9-.4-1.2-.3-.3-.9-.2-.9-.2 0-.1.3.1.3.1.2.1.6.1.8.3.3.3.1.6.2 1zm-8.5 12.1c-.3-.3-.3-.6-.5-.9-.1-.2-.2-1.8-.2-2.1 0-.1-.1-.3-.1-.4.2-.4.2-.9.2-.9s-.2.7-.3.8c-.2.4.2 1.1.3 1.4.5.5 0 1.3.6 2.1zm4.9 4.8c-.3.2-.6.3-.8 0-.4-.4 0-.8-.5-1.3 0 0 .3.4.3.8 0 .3-.6.7-.9.7-.3 0-.7-.5-.9-.6l-.7-.1.4.2c.3.1.8.2 1.1.5.1.1.2.5.4.3h.2l.4-.4v-.3c.1 0 0 .1.1.2l.3.3c.1.1.6.2.8 0-.1 0-.2-.2-.2-.3z"/></g></g></switch></svg>
