<svg xmlns="http://www.w3.org/2000/svg" version="1.0" viewBox="0 0 74 101.8"><switch><g><linearGradient id="a" x1="3.883" x2="61.638" y1="157.03" y2="-3.48" gradientUnits="userSpaceOnUse"><stop offset="0" stop-color="#663"/><stop offset="1" stop-color="#663433"/></linearGradient><path fill="url(#a)" stroke="#663433" stroke-miterlimit="10" stroke-width=".25" d="M22.7 66.7c.9 3.6 3.8 6.2 5.4 9.5 1.5 3 2.1 7.1 2.7 10.4 1 5.1 2.1 9.2 7.1 13.8 0 0 .7-2.5-2.1-6s-3.5-9.6-4.6-14.9-4.6-9.6-4.6-9.6l-3.9-3.2z"/><linearGradient id="b" x1="16.297" x2="74.052" y1="161.497" y2=".987" gradientUnits="userSpaceOnUse"><stop offset="0" stop-color="#663"/><stop offset="1" stop-color="#663433"/></linearGradient><path fill="url(#b)" stroke="#663433" stroke-miterlimit="10" stroke-width=".25" d="M56.4 49.3c-2.2-7.8-3.5 17.4-7.8 26.6-3.8 8.2-5 9.9-9.9 13.8l.7 3.5s8.9-8.5 11.3-18.1c1.9-7.3 6.4-23.3 5.7-25.8z"/><linearGradient id="c" x1="-2.883" x2="54.873" y1="154.596" y2="-5.915" gradientUnits="userSpaceOnUse"><stop offset="0" stop-color="#663"/><stop offset="1" stop-color="#663433"/></linearGradient><path fill="url(#c)" stroke="#663433" stroke-miterlimit="10" stroke-width=".25" d="M36.7 21.5c-6.6-4.9-15 .3-16.4 7.6-1.6 8.7 2.5 15.1 6.7 22.2 8.5 14.7 12.6 32.2 10.2 49.4 0 0 4.9 1.4 1.4-20.9-3.2-17-10.3-30.5-12.4-33.7-2.1-3.2-8.9-13.5-.4-23.7 5.8.7 10.9-.9 10.9-.9z"/><radialGradient id="d" cx="52.942" cy="55.621" r="27.262" gradientUnits="userSpaceOnUse"><stop offset="0" stop-color="#986698"/><stop offset="1" stop-color="#b79ac8"/></radialGradient><path fill="url(#d)" stroke="#663367" stroke-miterlimit="10" stroke-width=".25" d="M57.3 45.5c-6.3-2.7-15.4-3.6-16.3.7.3.1.4.3.7.4-1.9 1.2.3 3.4 1.6 4 1.7.9 3.8.9 5.5.4 3.3-.9 5.6-5.4 8.5-5.5"/><radialGradient id="e" cx="52.942" cy="55.62" r="27.261" gradientUnits="userSpaceOnUse"><stop offset="0" stop-color="#986698"/><stop offset="1" stop-color="#b79ac8"/></radialGradient><path fill="url(#e)" stroke="#663367" stroke-miterlimit="10" stroke-width=".25" d="M58.1 45.4c4 1.8 14.2 5.3 12.8 9.5-.3-.1-.5.1-.9 0 1.1 2-2 2.8-3.5 2.6-1.9-.1-3.7-1.2-4.9-2.5-2.1-2.4-1.8-7.4-4.4-9.1"/><radialGradient id="f" cx="52.943" cy="55.62" r="27.261" gradientUnits="userSpaceOnUse"><stop offset="0" stop-color="#986698"/><stop offset="1" stop-color="#b79ac8"/></radialGradient><path fill="url(#f)" stroke="#663367" stroke-miterlimit="10" stroke-width=".25" d="M56.7 45.4c1.3-2 3.3-4.7 5.3-6.1 2.1-1.5 4.3-3.4 6.7-4.2 2.5-.9 6-1.7 4.4 2.1-1.4 3.1-2.3 6.7-5.2 8.6-3.7 2.3-6.7 2.2-10.6.4.1.1.3.1.4.2"/><path fill="none" d="M49.7 35c-.1.1-.2.3-.3.5"/><radialGradient id="g" cx="52.943" cy="55.62" r="27.261" gradientUnits="userSpaceOnUse"><stop offset="0" stop-color="#986698"/><stop offset="1" stop-color="#b79ac8"/></radialGradient><path fill="url(#g)" stroke="#663367" stroke-miterlimit="10" stroke-width=".25" d="M57.4 45.4c2.7-.6 2-6 1.3-7.8-1-2.8-2.8-5.2-3.7-8-1.3-3.9-4.5-.5-5 2.2-.4 1.9.1 3.8.2 5.7.2 1.7-.2 3.3.5 4.9.9 2.3 3.6 4.2 6.1 3"/><radialGradient id="h" cx="52.942" cy="55.62" r="27.261" gradientUnits="userSpaceOnUse"><stop offset="0" stop-color="#986698"/><stop offset="1" stop-color="#b79ac8"/></radialGradient><path fill="url(#h)" stroke="#663367" stroke-miterlimit="10" stroke-width=".25" d="M57.4 45.3c-4.6.8-8.5 4-8.1 9.2.2 2.2-.1 2.9.3 5 .2 1.2 1.4 5.9 3.2 2.9.5.8 1.2 1.8 2.4 1.7 1.4-.1 1.3-1 1.8-2 .9-2 2.3-2.4 3.2-4.4.9-1.8 1.1-7.3.2-9.4-.5-1.2-.6-1.8-1.9-2.9"/><path fill="#CA99C5" d="M56.2 45.7c-1.3-.4-3.9 1.2-4 2.5 0 1.3 1.3 2.6 2.8 3.1 1.1.4 3.8.8 4.7 0 2.8-2.2-.9-7-4.1-5.5" opacity=".62"/><path fill="#CBCB30" stroke="#663" stroke-miterlimit="10" stroke-width=".25" d="M58.3 45.2c.5 1.1 2.2 3.4.9 3.9-1.3.5-3.9-2.2-2.9-3.2 0 0-.1-1.6 2-.7z"/><path fill="#986698" stroke="#663367" stroke-miterlimit="10" stroke-width=".25" d="M58.3 45.2c1.8-.1 2.7-1.6 4.1-2.3"/><path fill="none" stroke="#663367" stroke-miterlimit="10" stroke-width=".25" d="M58.7 45.3c1 1 5.3-1 5.9-2.2M59 45.9c1.1.4 2.4.2 3.5-.3m-4.9-1c-.6-.9-1.3-3.5-1.3-4.7m.3 5c-1.4-.3-2.6-3.7-2.6-5.1m2 5.3c-1.8.1-2.3-1.1-3.1-2.5m3 4.1c-2.8.6-3.4 3.7-4.8 5.7m1.9-3.8c-.2 1.4.2 2.6-.2 4.1m4.2-4.6c-.2 1.3-.9 2.5-1.1 3.7-.2 1.3-1 2.3-1.1 3.6m1.6-7.8c-1.7 1-2.8 3.6-1.9 5.5m4-3.9c.2 1.2-.3 3.8-1.2 4.6m2.2-4.8c.4 1.6 0 4.7-1.4 5.8m-3.9-8.9c-2.5.6-4.3.2-6.6 1.6m12.6 0c1 .6 1.5 1.5 2.5 2.2 1.4.9 2 1.2 2.9 2.7m-13.9-6.3c-1.8.3-4-1.8-5.9-.3m17 3.7c1.8.5 3.3.7 4.2 2.4"/><path fill="none" stroke="#663" stroke-miterlimit="10" stroke-width=".25" d="M57.3 45.6c-.6 1.1.9 3.3 2.1 2.9"/><radialGradient id="i" cx="38.313" cy="34.071" r="51.591" gradientUnits="userSpaceOnUse"><stop offset="0" stop-color="#986698"/><stop offset="1" stop-color="#b79ac8"/></radialGradient><path fill="url(#i)" stroke="#663367" stroke-miterlimit="10" stroke-width=".25" d="M37.1 22.5c7.8-3.3 19-4.4 20.1.9-.4.1-.5.4-.9.6 2.4 1.4-.4 4.2-2 5-2.1 1.1-4.7 1.1-6.8.5-3.9-1.4-6.7-6.8-10.4-7"/><radialGradient id="j" cx="38.313" cy="34.071" r="51.59" gradientUnits="userSpaceOnUse"><stop offset="0" stop-color="#986698"/><stop offset="1" stop-color="#b79ac8"/></radialGradient><path fill="url(#j)" stroke="#663367" stroke-miterlimit="10" stroke-width=".25" d="M36.2 22.4c-5 2.3-17.5 6.6-15.8 11.7.4-.1.7.1 1.1 0-1.3 2.5 2.5 3.4 4.3 3.3 2.3-.2 4.6-1.4 6.1-3.1 2.6-2.9 2.2-9.1 5.4-11.3"/><radialGradient id="k" cx="38.313" cy="34.071" r="51.591" gradientUnits="userSpaceOnUse"><stop offset="0" stop-color="#986698"/><stop offset="1" stop-color="#b79ac8"/></radialGradient><path fill="url(#k)" stroke="#663367" stroke-miterlimit="10" stroke-width=".25" d="M37.9 22.3c-1.6-2.4-4.1-5.8-6.5-7.5-2.5-1.8-5.4-4.1-8.3-5.2-3.1-1.1-7.5-2.1-5.4 2.6 1.7 3.8 2.9 8.3 6.5 10.6 4.6 2.9 8.3 2.7 13.1.5-.2.1-.4.2-.5.2"/><path fill="none" d="M46.6 9.6c.2.2.3.3.4.6"/><radialGradient id="l" cx="38.313" cy="34.071" r="51.591" gradientUnits="userSpaceOnUse"><stop offset="0" stop-color="#986698"/><stop offset="1" stop-color="#b79ac8"/></radialGradient><path fill="url(#l)" stroke="#663367" stroke-miterlimit="10" stroke-width=".25" d="M37 22.4c-3.3-.7-2.5-7.4-1.7-9.6 1.2-3.4 3.4-6.4 4.5-9.9 1.6-4.9 5.6-.6 6.2 2.7.4 2.4-.1 4.7-.3 7-.2 2 .2 4.1-.6 6.1-1.1 2.8-4.5 5.2-7.5 3.7"/><radialGradient id="m" cx="38.313" cy="34.071" r="51.591" gradientUnits="userSpaceOnUse"><stop offset="0" stop-color="#986698"/><stop offset="1" stop-color="#b79ac8"/></radialGradient><path fill="url(#m)" stroke="#663367" stroke-miterlimit="10" stroke-width=".25" d="M37.1 22.3c5.7.9 10.5 4.9 10.1 11.3-.2 2.7.1 3.5-.3 6.1-.2 1.4-1.7 7.3-3.9 3.6-.6 1-1.5 2.3-3 2.2-1.8-.1-1.7-1.2-2.3-2.5-1.1-2.5-2.8-3-4-5.4-1.1-2.3-1.4-9.1-.3-11.6.6-1.5.7-2.2 2.4-3.6"/><path fill="#CA99C5" d="M38.6 22.8c1.6-.5 4.8 1.4 4.9 3.1 0 1.6-1.6 3.2-3.4 3.9-1.3.5-4.7 1-5.8 0-3.4-2.8 1.1-8.6 5.1-6.8" opacity=".62"/><path fill="#CBCB30" stroke="#663" stroke-miterlimit="10" stroke-width=".25" d="M35.9 22.1c-.6 1.3-2.7 4.2-1.1 4.8 1.6.6 4.8-2.7 3.6-3.9 0 0 .1-2-2.5-.9z"/><path fill="#986698" stroke="#663367" stroke-miterlimit="10" stroke-width=".25" d="M35.9 22.1c-2.3-.2-3.3-1.9-5-2.9"/><path fill="none" stroke="#663367" stroke-miterlimit="10" stroke-width=".25" d="M35.5 22.3c-1.2 1.2-6.5-1.2-7.2-2.7m6.8 3.5c-1.4.5-3 .3-4.4-.4m6.2-1.3c.8-1.1 1.6-4.3 1.5-5.8m-.3 6.2c1.8-.4 3.2-4.6 3.2-6.3M38.8 22c2.2.1 2.8-1.4 3.9-3.1M38.9 24c3.4.8 4.3 4.5 6 7.1m-2.4-4.7c.3 1.7-.3 3.3.3 5.1m-5.2-5.8c.3 1.6 1.1 3 1.3 4.6.3 1.6 1.2 2.9 1.4 4.5m-2-9.7c2.1 1.3 3.4 4.5 2.3 6.8m-4.9-4.8c-.3 1.4.4 4.7 1.6 5.6m-2.8-5.9c-.5 2 0 5.8 1.8 7.1M41.1 23c3.1.7 5.3.3 8.2 2m-15.7 0c-1.2.8-1.8 1.9-3.1 2.7-1.7 1.1-2.5 1.5-3.5 3.4m17.1-7.9c2.3.3 5-2.2 7.3-.4m-20.9 4.7c-2.3.6-4.1.9-5.2 3"/><path fill="none" stroke="#663" stroke-miterlimit="10" stroke-width=".25" d="M37.2 22.7c.8 1.4-1.1 4.1-2.6 3.6"/><radialGradient id="n" cx="301.505" cy="217.135" r="29.259" gradientTransform="scale(-1 1) rotate(-21.156 -255.315 1016.572)" gradientUnits="userSpaceOnUse"><stop offset="0" stop-color="#986698"/><stop offset="1" stop-color="#b79ac8"/></radialGradient><path fill="url(#n)" stroke="#663367" stroke-miterlimit="10" stroke-width=".25" d="M24.1 58.2c7.4-.2 16.8 2.4 16 7.1-.3 0-.6.2-.9.2 1.5 1.9-1.6 3.3-3.2 3.4-2 .2-4.2-.6-5.7-1.8-2.8-2.3-3.3-7.6-6.2-8.9"/><radialGradient id="o" cx="301.505" cy="217.135" r="29.259" gradientTransform="scale(-1 1) rotate(-21.156 -255.315 1016.572)" gradientUnits="userSpaceOnUse"><stop offset="0" stop-color="#986698"/><stop offset="1" stop-color="#b79ac8"/></radialGradient><path fill="url(#o)" stroke="#663367" stroke-miterlimit="10" stroke-width=".25" d="M23.3 57.8c-4.7.3-16.3-.2-16.4 4.6.3.1.5.3.9.3-1.9 1.6.9 3.5 2.4 4 1.9.6 4.2.3 5.9-.6 3-1.6 4.7-6.7 7.9-7.4"/><radialGradient id="p" cx="301.505" cy="217.135" r="29.259" gradientTransform="scale(-1 1) rotate(-21.156 -255.315 1016.572)" gradientUnits="userSpaceOnUse"><stop offset="0" stop-color="#986698"/><stop offset="1" stop-color="#b79ac8"/></radialGradient><path fill="url(#p)" stroke="#663367" stroke-miterlimit="10" stroke-width=".25" d="M24.7 58.3c-.5-2.5-1.5-5.9-2.9-8.1-1.5-2.3-3-5.1-5.1-6.8-2.1-1.9-5.4-4.1-5.2.4.1 3.6-.3 7.6 1.9 10.6 2.8 3.8 5.9 4.8 10.5 4.5h-.5"/><path fill="none" d="M35.8 50.7c.1.2.1.4.1.6"/><radialGradient id="q" cx="301.505" cy="217.135" r="29.259" gradientTransform="scale(-1 1) rotate(-21.156 -255.315 1016.572)" gradientUnits="userSpaceOnUse"><stop offset="0" stop-color="#986698"/><stop offset="1" stop-color="#b79ac8"/></radialGradient><path fill="url(#q)" stroke="#663367" stroke-miterlimit="10" stroke-width=".25" d="M24 58.1c-2.5-1.6.3-6.8 1.7-8.3 2-2.4 4.8-4.1 6.8-6.6 2.8-3.5 4.7 1.3 4.1 4.1-.4 2.1-1.5 3.8-2.4 5.6-.8 1.6-1.1 3.3-2.4 4.7-1.7 1.9-5.3 2.8-7.2.6"/><radialGradient id="r" cx="301.505" cy="217.135" r="29.259" gradientTransform="scale(-1 1) rotate(-21.156 -255.315 1016.572)" gradientUnits="userSpaceOnUse"><stop offset="0" stop-color="#986698"/><stop offset="1" stop-color="#b79ac8"/></radialGradient><path fill="url(#r)" stroke="#663367" stroke-miterlimit="10" stroke-width=".25" d="M24.1 58c4.3 2.5 7 7.3 4.6 12.4-1 2.1-1 2.9-2.2 4.9-.6 1.1-3.7 5.4-4.3 1.6-.8.6-1.9 1.3-3.1.8-1.4-.7-1-1.5-1-2.8-.1-2.4-1.3-3.3-1.5-5.6-.2-2.2 1.8-7.8 3.4-9.5 1-1 1.3-1.6 3-2.1"/><path fill="#CA99C5" d="M25.1 58.9c1.4.1 3.4 2.7 3 4.1-.5 1.3-2.3 2.1-4 2.1-1.3 0-4.1-.7-4.7-1.8-1.9-3.3 3.6-6.6 6.2-3.9" opacity=".62"/><path fill="#CBCB30" stroke="#663" stroke-miterlimit="10" stroke-width=".25" d="M23.2 57.5c-.9.9-3.5 2.6-2.4 3.5 1.1 1 4.7-.7 4.2-2-.1 0 .7-1.6-1.8-1.5z"/><path fill="#986698" stroke="#663367" stroke-miterlimit="10" stroke-width=".25" d="M23.2 57.5c-1.8-.8-2.1-2.6-3.2-3.9"/><path fill="none" stroke="#663367" stroke-miterlimit="10" stroke-width=".25" d="M22.8 57.5c-1.4.6-4.9-3.1-5-4.5m4.4 5c-1.3 0-2.5-.7-3.4-1.7m5.4 1c1-.7 2.7-3 3.1-4.2M25 57.9c1.6.3 4.1-2.7 4.6-4.1m-4 4.5c1.8.8 2.7-.2 4.1-1.3M25 60c2.5 1.7 2 5 2.6 7.6m-.4-4.6c-.3 1.5-1.3 2.6-1.4 4.2M23.4 61c-.3 1.4-.1 2.8-.4 4.2-.3 1.4.1 2.7-.3 4.1m1.5-8.6c1.3 1.7 1.4 4.7-.3 6.2m-2.4-5.4c-.7 1.1-1.2 3.9-.5 5m-.4-5.6c-1 1.5-1.8 4.7-.8 6.3m7.3-7.4c2.3 1.6 4.2 1.9 6 4.2m-12.7-4.9c-1.2.3-2.1 1-3.3 1.2-1.7.4-2.5.4-3.9 1.6m16.2-.9c1.7 1 4.7-.2 6 1.9m-18.3-2.8c-2-.2-3.6-.6-5.2.8"/><path fill="none" stroke="#663" stroke-miterlimit="10" stroke-width=".25" d="M24 58.4c.2 1.3-2.2 3-3.2 2.1"/><linearGradient id="s" x1="12.54" x2="70.294" y1="160.143" y2="-.363" gradientUnits="userSpaceOnUse"><stop offset="0" stop-color="#663"/><stop offset="1" stop-color="#663433"/></linearGradient><path fill="url(#s)" stroke="#663433" stroke-miterlimit="10" stroke-width=".25" d="M38.3 82.6c.5-3.7 4.3-9.5 8.1-10.2-.3 2.3-3.5 4-4.8 6.1-1.5 2.5-2.9 5.9-2.9 8.8"/><linearGradient id="t" x1="48.972" x2="22.398" y1="71.475" y2="95.569" gradientUnits="userSpaceOnUse"><stop offset="0" stop-color="#663"/><stop offset="1" stop-color="#663433"/></linearGradient><path fill="url(#t)" stroke="#346733" stroke-miterlimit="10" stroke-width=".25" d="M45.4 73.6c-7.5 1.3-8.5-9.5-2.5-11.9.2.4.7.9.8 1.1 1.7-3.2 13.2-6.3 13.8-2 5.7-.5 7.5 3.3 4.4 7.5 3.7 2.3-3.7 11.1-5.7 12-4.9 2.3-14.9-.6-10.8-7.2"/><linearGradient id="u" x1="2.545" x2="60.301" y1="156.55" y2="-3.963" gradientUnits="userSpaceOnUse"><stop offset="0" stop-color="#663"/><stop offset="1" stop-color="#663433"/></linearGradient><path fill="url(#u)" stroke="#663433" stroke-miterlimit="10" stroke-width=".25" d="M33.7 94c-4.1-3.8-9.9-4.9-15.2-5.7 2.9-2.4 12.8.8 15.2 3.2"/><linearGradient id="v" x1="-4.524" x2="86.184" y1="85.155" y2="98.265" gradientUnits="userSpaceOnUse"><stop offset="0" stop-color="#663"/><stop offset="1" stop-color="#663433"/></linearGradient><path fill="url(#v)" stroke="#346733" stroke-miterlimit="10" stroke-width=".25" d="M21 87.6c3.2-.6 8.1-2.5 4.5-5.9-2.2-2.1-8.3-2.7-11.2-2.1-3.3.6-7.9 3.3-10.5 5.4-.9.7-2.8 2.6-3.1 3.6-.8 3 1 1.9 2.9 3.5-1.5 2.8 3.4 2.6 5.2 2.5 0 .5.2 1 .2 1.4 3.6 1.2 8.3 1.1 11.6-.3 6.2-2.6 2.6-4.6.7-8.5"/><path fill="none" stroke="#663433" stroke-miterlimit="10" stroke-width=".25" d="M44 73.8c4.1-5.2 11.5-10 17.7-11.7M.8 89.7c6-4.2 15.9-3.8 22.7-2.5M44 73.4c-4.1-2.7-3.1-7.4-.4-10.5"/><path fill="none" stroke="#663433" stroke-miterlimit="10" stroke-width=".25" d="M43.3 62.9c.3-.2.7-.3 1-.2.8 2.4-1.1 7.3 1.4 8.8m.2.1c1.5 2.1 5.3 2.8 7.6 3 1.8.2 6.4.9 3 3.1-3.6 2.3-11.5.3-12-4.6"/><path fill="none" stroke="#663433" stroke-miterlimit="10" stroke-width=".25" d="M48.2 69c-.3-1-.6-2.1-.5-3.2 0-1.3.7-2.3.7-3.5 0-3-3.1-.7-3.9 1.1m4.1 5.6c2.7 1.9 5.4 1.7 8.5 1.9 3.2.3 4.3 4.9.5 4.8"/><path fill="none" stroke="#663433" stroke-miterlimit="10" stroke-width=".25" d="M51.4 66.7c-1.3-1.7.4-3.4.2-5.1-.3-2.2-2.9-1.9-3.9-.4m4.3 5.5c2.1 1.4 4.7.1 6.9.9 2.6.9 2.1 3.2.2 4.3m-5-7c0-1.6.6-4.7-1.8-4.8m2.1 4.8c2.4 0 4-.3 5.8 1.4m-38 20.6c4.3-.9-1-7.2-3.7-7.3m-2.5-.2c-1.2 2.2 4.9 4.4 4.4 7.3m1.1.3c-1.1 2.1 2.9 3.8.8 6.4-1.2 1.5-5 2.6-6.8 2.4-.8-.1-2.8-.4-2.3-1.8.2-.5 2.5-1.2 3.1-1.7 1.8-1.5 2.3-4.6 4.6-5.4m-3.5-.2c-2.9.3-3.6 3.6-5.5 5.1-.6.5-2.6 1-2.5 2.1.1 1.2 2.4 1.4 3.2.7m4.3-8.3c0-2-7.9-3.9-5.7-5.5"/><path fill="none" stroke="#663433" stroke-miterlimit="10" stroke-width=".25" d="M15.8 86.9c-2.8 0-4.6.4-6.2 2.7-.8 1.1-1.1 1.4-2.2 2-.9.5-2.2.8-2.1 2.1 1.1.6 2.3.9 3.7.6m-.5-7.6c-1.6.3-6.1 5.1-3.2 4.6m2.7-5c-.8-1.2-1.3-2.8.5-3.4"/></g></switch></svg>
