<svg xmlns="http://www.w3.org/2000/svg" version="1.0" viewBox="0 0 50 29"><switch><g><path fill="#D0E7C4" stroke="#669866" stroke-width=".25" d="M0 29l13-2.2.4.2 11.2-2.1 3.9-.7 8.5-2 12.9-3v-.6l.1-.7v-.5l-.6-.6v-.4l-1.1-.3-.3.6-.7.4h-.7l-.9-.4-.8-.4-.7-.5.1-.4s-.1-.3.2-.3c.3 0 .9.1.9.1s.3.1.3.2.2.2.4.2 1.1.1 1.1.1l.1-.4s-.1-.2-.2-.3c-.1-.1-.5-.4-.5-.4l-.3-.3-.3-.4.1-.7.3-.2.1-.5-.4-.5-.6-.4h-.8l-.9-.6-.8-.4-.6-.5-.6-.5.1-.3h.7l.6.2.5.2.3.1.2.4.6.3.3.4h.3l.3-.7-.1-.7-.6-.6-.6-.2-.6-.3s-.1-.2-.2-.2-1.3-.1-1.3-.1l-.9-.1-.8-.3s-.2-.4-.2-.5c0-.1.2-.4-.2-.5-.3-.1-1.1.1-1.1.1s-.4.2-.5 0c-.1-.2-.2-.3-.2-.4 0-.1-.2-.3-.2-.5s-.1-1.3-.1-1.3l.5-.6s.3-.1.3-.2c.1-.1.1-.6.1-.6s.1-.4 0-.5c-.1-.1-.6-.5-.7-.5-.1 0-.6-.4-.8-.5-.2-.1-1-.3-1-.3h-.4l-.2-.2-.2-.6-.8-.3s-.5-.2-.6 0c-.1.1-.3.5-.3.5l-.4.2h-.7c-.1 0-.9-.3-.9-.3l-.9-.3-1-.4-.4.4s.3.4.3.5c0 .1-.2 1-.2 1s0 .6-.1.7c0 .1-.5.7-.5.8 0 .1-.2.4-.2.4l-.6.7V5l-.1.7h-.4l-.5-.1h-.3L27 6l-.1.8-.4 1.8-.5.7-.4.1-.8-.1-.6-.3-.7-.7-.4.5s.2.4.2.5c0 .1-.2.9-.2.9l-.1.7-.2.7-1.1 2.2s-.2.4-.2.5c0 .1-.3.4-.3.5 0 .1-.3 2.6-.3 2.6l-.2.5-.3.3-.7.3h-.5l-1.5 1.2-.9.6s-.2.3-.4.3h-1.2l-.9.1-.4.1-1.2.7-.8-.1-.6-.2-.6-.3-.2-.5-.5-.7-.1.3-1.8 2-.8.4L6 23.7l-.4.7-.2 1.2-.9.5-.4.6-.5.4-1.2.3-.9.9L0 29z"/></g></switch></svg>
