<svg xmlns="http://www.w3.org/2000/svg" version="1.0" viewBox="0 0 220 129"><switch><g><path fill="#00739E" d="M0 0h220v129H0V0z"/><path fill="#231F20" d="M64.9 23h5.2l4.3 12.1L79 23h3.2l4.5 12L91 23h5.3l-7.8 21.3h-3.4l-4.5-12.1-4.7 12.1h-3.3L64.9 23zm55.7 12.2h-17.1c.2 1.5.9 2.7 2 3.6s2.4 1.3 4.1 1.3c2 0 3.7-.7 5.1-2.1l4.5 2.1c-1.1 1.6-2.5 2.8-4 3.5s-3.4 1.1-5.6 1.1c-3.3 0-6-1.1-8.1-3.2s-3.1-4.7-3.1-7.9 1-5.9 3.1-8.1 4.7-3.2 7.9-3.2c3.3 0 6.1 1.1 8.2 3.2s3.1 5 3.1 8.5l-.1 1.2zm-5.4-4.2c-.4-1.2-1-2.1-2.1-2.9-1-.7-2.2-1.1-3.6-1.1-1.5 0-2.8.4-3.9 1.3-.7.5-1.4 1.4-2 2.8l11.6-.1zm10-16.2h4.9v2.7c0 1.7-.2 3.2-.6 4.4-.4 1.2-1.1 2.5-2.1 3.8l-1.9-1.5c.5-.7.8-1.3 1.1-1.8.2-.5.5-1.2.7-2h-2l-.1-5.6zm10.3 0h5.3v29.5h-5.3V14.8zm9.6 0h5.3v29.5h-5.3V14.8zM46 94.3h5.2l4.3 12.1 4.6-12.1h3.2l4.5 12 4.3-12h5.3l-7.8 21.3h-3.4l-4.5-12.1-4.7 12.1h-3.3L46 94.3zm55.6 12.2H84.5c.2 1.5.9 2.7 2 3.6s2.4 1.3 4.1 1.3c2 0 3.7-.7 5.1-2.1l4.5 2.1c-1.1 1.6-2.5 2.8-4 3.5s-3.4 1.1-5.6 1.1c-3.3 0-6-1.1-8.1-3.2s-3.1-4.7-3.1-7.9 1-5.9 3.1-8.1 4.7-3.2 7.9-3.2c3.3 0 6.1 1.1 8.2 3.2s3.1 5 3.1 8.5l-.1 1.2zm-5.3-4.2c-.4-1.2-1-2.1-2.1-2.9-1-.7-2.2-1.1-3.6-1.1-1.5 0-2.8.4-3.9 1.3-.7.5-1.4 1.4-2 2.8h11.6v-.1zm18.5-8h5.2l4.3 12.1 4.6-12.1h3.2l4.5 12 4.3-12h5.3l-7.8 21.3H135l-4.5-12.1-4.7 12.1h-3.3l-7.7-21.3zm36.4-8.7c.9 0 1.7.3 2.4 1s1 1.5 1 2.5-.3 1.8-1 2.4-1.5 1-2.4 1-1.8-.3-2.4-1c-.7-.7-1-1.5-1-2.5 0-.9.3-1.7 1-2.4s1.5-1 2.4-1zm-2.7 8.7h5.3v21.3h-5.3V94.3zm9.6-8.2h5.3v29.5h-5.3V86.1zm9.6 0h5.3v29.5h-5.3V86.1zm-66-27.2h19.5v4.9h-19.5v-4.9zm0 8.4h19.5v4.9h-19.5v-4.9z"/></g></switch></svg>
