<svg xmlns="http://www.w3.org/2000/svg" version="1.0" viewBox="0 0 220 129"><switch><g><path fill="#09F" d="M0 0h220v129H0V0z"/><path fill="#231F20" d="M55.3 23h5.2l4.3 12.1L69.4 23h3.2l4.5 12 4.3-12h5.3l-7.8 21.3h-3.4L71 32.1l-4.7 12.1H63L55.3 23zM111 35.2H93.8c.2 1.5.9 2.7 2 3.6s2.4 1.3 4.1 1.3c2 0 3.7-.7 5.1-2.1l4.5 2.1c-1.1 1.6-2.5 2.8-4 3.5s-3.4 1.1-5.6 1.1c-3.3 0-6-1.1-8.1-3.2-2.1-2.1-3.1-4.7-3.1-7.9s1-5.9 3.1-8.1 4.7-3.2 7.9-3.2c3.3 0 6.1 1.1 8.2 3.2s3.1 5 3.1 8.5v1.2zm-5.4-4.2c-.4-1.2-1-2.1-2.1-2.9-1-.7-2.2-1.1-3.6-1.1-1.5 0-2.8.4-3.9 1.3-.7.5-1.4 1.4-2 2.8l11.6-.1zm10-16.2h4.9v2.7c0 1.7-.2 3.2-.6 4.4-.4 1.2-1.1 2.5-2.1 3.8l-1.9-1.5c.5-.7.8-1.3 1.1-1.8.2-.5.5-1.2.7-2h-2l-.1-5.6zm9.6 8.2h4.6v2.7c.5-1.1 1.2-1.9 2-2.4s1.7-.8 2.7-.8c.7 0 1.4.2 2.2.5l-1.7 4.6c-.6-.3-1.1-.5-1.5-.5-.8 0-1.5.5-2.1 1.5s-.8 3-.8 6v9.6h-5.3l-.1-21.2zm35.3 12.2h-17.1c.2 1.5.9 2.7 2 3.6s2.4 1.3 4.1 1.3c2 0 3.7-.7 5.1-2.1l4.5 2.1c-1.1 1.6-2.5 2.8-4 3.5s-3.4 1.1-5.6 1.1c-3.3 0-6-1.1-8.1-3.2-2.1-2.1-3.1-4.7-3.1-7.9s1-5.9 3.1-8.1 4.7-3.2 7.9-3.2c3.3 0 6.1 1.1 8.2 3.2 2.1 2.1 3.1 5 3.1 8.5l-.1 1.2zm-5.3-4.2c-.4-1.2-1-2.1-2.1-2.9-1-.7-2.2-1.1-3.6-1.1-1.5 0-2.8.4-3.9 1.3-.7.5-1.4 1.4-2 2.8l11.6-.1zM44 94.3h5.2l4.3 12.1 4.6-12.1h3.2l4.5 12 4.3-12h5.3l-7.8 21.3h-3.4l-4.5-12.1-4.7 12.1h-3.3L44 94.3zm55.6 12.2H82.5c.2 1.5.9 2.7 2 3.6s2.4 1.3 4.1 1.3c2 0 3.7-.7 5.1-2.1l4.5 2.1c-1.1 1.6-2.5 2.8-4 3.5s-3.4 1.1-5.6 1.1c-3.3 0-6-1.1-8.1-3.2s-3.1-4.7-3.1-7.9 1-5.9 3.1-8.1 4.7-3.2 7.9-3.2c3.3 0 6.1 1.1 8.2 3.2s3.1 5 3.1 8.5l-.1 1.2zm-5.3-4.2c-.4-1.2-1-2.1-2.1-2.9-1-.7-2.2-1.1-3.6-1.1-1.5 0-2.8.4-3.9 1.3-.7.5-1.4 1.4-2 2.8h11.6v-.1zm36.5-8h5.3v21.3h-5.3v-2.2c-1 1-2.1 1.7-3.1 2.1s-2.2.7-3.4.7c-2.7 0-5.1-1.1-7.1-3.2s-3-4.8-3-7.9c0-3.3 1-6 2.9-8.1s4.3-3.1 7.1-3.1c1.3 0 2.5.2 3.6.7 1.1.5 2.2 1.2 3.1 2.2v-2.5h-.1zm-5.6 4.4c-1.6 0-3 .6-4.1 1.7-1.1 1.2-1.6 2.7-1.6 4.5s.6 3.3 1.7 4.5 2.5 1.8 4.1 1.8c1.7 0 3.1-.6 4.2-1.7s1.7-2.7 1.7-4.6c0-1.8-.6-3.3-1.7-4.5s-2.6-1.7-4.3-1.7zm15.1-4.4h4.6V97c.5-1.1 1.2-1.9 2-2.4s1.7-.8 2.7-.8c.7 0 1.4.2 2.2.5l-1.7 4.6c-.6-.3-1.1-.5-1.5-.5-.8 0-1.5.5-2.1 1.5s-.8 3-.8 6v9.6h-5.3l-.1-21.2zm35.3 12.2h-17.1c.2 1.5.9 2.7 2 3.6s2.4 1.3 4.1 1.3c2 0 3.7-.7 5.1-2.1l4.5 2.1c-1.1 1.6-2.5 2.8-4 3.5s-3.4 1.1-5.6 1.1c-3.3 0-6-1.1-8.1-3.2s-3.1-4.7-3.1-7.9 1-5.9 3.1-8.1 4.7-3.2 7.9-3.2c3.3 0 6.1 1.1 8.2 3.2 2.1 2.1 3.1 5 3.1 8.5l-.1 1.2zm-5.3-4.2c-.4-1.2-1-2.1-2.1-2.9-1-.7-2.2-1.1-3.6-1.1-1.5 0-2.8.4-3.9 1.3-.7.5-1.4 1.4-2 2.8h11.6v-.1zm-68.6-43.4h19.5v4.9h-19.5v-4.9zm0 8.4h19.5v4.9h-19.5v-4.9z"/></g></switch></svg>
