<svg xmlns="http://www.w3.org/2000/svg" version="1.0" viewBox="0 0 51.3 83.2"><switch><g><g stroke-width=".25"><path fill="#F4C569" stroke="#F6C259" d="M40.1 48.9c.2-.1.1-.4 0-.6-.1-.2-.1-.5.2-.9.3-.4.3-1.4.4-1.7.1-.2.2-.5.2-.5s.2-.8.2-1.1c0-.2.1-.5.2-.7 0-.2.4-.9.2-1.1-.1-.2.2-.8.2-.8l.2-1 .4-.4s-.4-.8-.1-1c.3-.2 0-.8 0-.8s-.3-.7 0-1c.3-.3.1-.5.4-.6.3-.1.2-1.1.2-1.1.4-.4.4-.9.6-1.3.1-.2.3-.4.3-.6 0-.3-.2-.5-.1-.8.1-.2.2-.3.3-.5.1-.2-.1-.4 0-.6.1-.4.3-.4.3-.8.1-.4-.1-.7.4-.9-.8-.6.4-1.3.4-2 .5.2.2.4.2.7 0 .3.2.6.2.9-.1.4-.4.4-.4.8 0 .3.4.5-.2.7l.2.2c0 .3-.1.5-.4.6.1 0 .2-.1.3-.1.3.4-.3 1.1-.7 1.2 1.1.2 0 1.2-.3 1.4.5-.5.6.3.4.6-.2.4-.5.6-.7 1 .2-.1.4 0 .5.2.2.4-.2.3-.3.5-.1.3.2.3.2.6 0 .2-.2.5-.2.7-.2.5-.3.7-.4 1.2-.1.3-.2 1-.6 1.2-.1.4-.1.9 0 1.3-.1.1-.2.3-.4.4 0 .6.5.9-.2 1.4.3.5-.2 1-.3 1.5.1.9.5 1.4.1 2-.1.2-.4.3-.5.5-.1.3.1.4.2.7.3.7-.2.7-.8 1 .1.5.4 1 .2 1.5-.1.3-1 1.2-1.4.9-.2-.1.2-2.6.4-2.8z"/><path fill="#FFD57B" stroke="#F6C259" d="M34.7 80.8l-.7-.2 5.5-28.7.8.1z"/><path fill="#F9CD78" stroke="#F1B448" d="M39.6 51.8c-1.7-.2-1-3.1-1.1-4.2.2.4.3.8.4 1.3.1.6.3.7.7 1.1.4.4.6.6.6 1.2 0 .5-.3 1-.9.7"/><path fill="#FFD57B" stroke="#F6C259" d="M44.8 29.9c-.1-.3-.3-.7-.4-1h-.1c-.1.3-.3.7-.2 1 .1.3.5.5.6 0"/><path fill="#FFD57B" stroke="#F6C259" d="M44.1 31c-.2-.4-.6-.8-.4-1.4.1.1.5.3.6.5.1.3-.1.5 0 .8m-.5 1.6c-.4-.3-1.1-1.5-.7-2 .5.7 1.1 1 .8 2m-4.2 17.4c-.7 0-.7-.5-.7-1.1 0-.5-.2-.9-.3-1.5.3-.1 1.3.8 1.4 1 .3.4-.1 1.4-.4 1.6m1.5.1c-.2-.8 1.2-.6 1.6-.8-.1.9-.7 1.7-1.8 1.4.1-.2.1-.4.2-.6"/><path fill="#FFD57B" stroke="#F6C259" d="M40.4 47.4h.1c-.2-.3-1.1-1.4-1.4-.8-.3.5.6 1.4 1 1.5-.2-.3.1-.6.4-.7m1.3 1.6c.2-.1.5-.4.8-.3M45.4 31s-.1 0-.1-.1c.2-.3.5-.6.8-.3-.1.4-.1 1.2-.8.8.1-.2.1-.3 0-.5.1 0 .3-.2.3-.2m-2.1 3.6c-.6-.3-.9-2.2-.4-2.6.3.4.4.7.7 1.1-.3.7.2 1.2-.5 1.6m1.9-1.7c.9 0 .9-.4.8-1.1-.2.1-.5.2-.7 0l-.3.6c.2.2.1.4 0 .6"/><path fill="#FFD57B" stroke="#F6C259" d="M45.9 32.7c-.4-.3-1 .6-1.4.6.2.2.4.3.4.6 0 .2-.3.3-.2.5.2.2.6-.2.8-.3.4-.3.8-1 .4-1.4zm-2.5 1.7c-.2-.6-.6-1.1-.8-.3-.2.8 0 .9.4 1.6.1-.4.5-.9.4-1.3"/><path fill="#FFD57B" stroke="#F6C259" d="M44.4 36c.4-.3.7-.4 1-.7.4-.4.4-.7.6-1.2-.5.2-1.6 0-1.6.7.8 0 0 .8-.2 1 0 .3.1.2.2.2m-2 .9c-.8-.2-.2-1.8 0-2.2 0 .2.2.5.3.7m.1.8c.1.2 0 .4-.2.5m1.3 2.2c.8-.3 1.5-.6 1.2-1.6-.2-.1-.8.1-1.1.2.2.3.1 1.1-.1 1.4"/><path fill="#FFD57B" stroke="#F6C259" d="M42 38.2c-.7-.4-.3-1.1-.4-1.9.4.3.8.5.8 1 0 .1-.2.1-.2.2v.3c0 .2.2.4.2.6-.2.1-.4-.1-.4-.2m0 2.2c-.3-.2-.9-.7-1-1.1-.1-.5.2-1.1-.2-1.4.5.2 1.4.4 1.5.9.1.2 0 .7 0 .9 0 .4 0 .6-.3.7m-1.2.4v-.7c0-.2-.4-.2-.2-.5.7.1.7.8 1.3.9 0 .3 0 1-.4 1.1-.3.1-.6-.5-.7-.8zm-.3 6.3c-1.1-.1-.6-1.7-.5-2.4.5.4.7.4.7 1.1 0 .5 0 1-.2 1.5m.9-3.9c-.2-.1-.7-.4-1-.6-.1.6 0 2.2.5 2.5 0-.8.1-1.2.3-1.9m.7 5.5c.6-.4 1.1 0 .4.4-.3.2-1.1.6-1.4.2.3-.2.7-.4.8-.5"/><path fill="#FFD57B" stroke="#F6C259" d="M41.6 47.7c.3-.3 1-.2 1.4-.3.1.3 0 .9-.2 1.1-.3.3-.6.2-.9.3-.1-.4-.6-.9-.1-1.2m.4-1.9s.1.1 0 0c.5-.2.8-.5 1.2-.7.3.3-.1 1.5-.2 1.8-.3.6-.7.5-1.3.6.5-.4.5-1 .1-1.5m1.4-1.6c-.1.8-.7.9-1.2 1.3l-.1-.1c-.1-.1.3-.6.3-.8.1-.3-.1-.7 0-.9.4-.7 1.1-.1 1 .5z"/><path fill="#FFD57B" stroke="#F6C259" d="M42.8 42.2c.4-.1.9 0 1.4-.1 0 .3-.1 1.1-.3 1.3-.1.1-1 .1-1.1.1.1-.2-.2-.4-.2-.7 0-.3.2-.4.2-.6"/><path fill="#FFD57B" stroke="#F6C259" d="M43.2 40.7c.4 0 .9-.3 1.3-.1 0 .7-.5 2.1-1.5 1.4.3-.3-.3-1 .3-1m.6-2.1c.2 0 .7-.1.9 0 .1.1 0 .8 0 .9-.3.6-.8.6-1.3.6.1-.3 0-1.1.4-1.5m.4-2.9c.2 0 .8-.3 1.1-.1 0 .5.3.9-.1 1.3-.3.2-1.1.2-1.4.1.5-.2.4-.8-.1-.9.2-.1.6-.2.6-.4m-3.7 5.3c-.7.8-.2 1.8.7 2 0-.4.3-1 .1-1.4 0-.1-.8-.6-.8-.6z"/><path fill="none" stroke="#E4A73B" d="M44.4 30.7c-.1 0-.1-.1-.2 0 0 .3.1.7.2 1-.5.3-.2.6-.3 1-.2.5-.7.5-.4 1.1l.2.2c-.3.2-.6 1-.3 1.4-.5.3-1 1.2-.3 1.5-.4.2-.8 1.3-.2 1.5-.2 0-.4.2-.5.3.1.7-.9 1.2-.3 1.9-.3.3-.8 1.1-.4 1.6-.5.3-.5 1.1 0 1.4-.4.4-1.7 1.8-.7 2.2-.6.5-.5 1.1-.7 1.7h.1c-.8.1-.5 1-.4 1.5-.6.5-.6 1.1 0 1.7-.1.1-.2 0-.3 0"/><path fill="none" stroke="#E4A73B" d="M39.8 49.9s.2-1.1.1-1.4c-.1-.4-.8-.7-1-1.1-.2.5.1 2.5.9 2.5"/><path fill="#FFD57B" stroke="#F1B448" d="M40.1 48.2s.2-1.1.1-1.4c-.1-.4-.8-.7-1-1.1-.2.6.1 2.5.9 2.5"/><path fill="#FFD57B" stroke="#F1B448" d="M40.5 46.9s.2-1.1.1-1.4c-.1-.4-.8-.7-1-1.1-.2.5.1 2.4.9 2.5"/><path fill="#FFD57B" stroke="#F1B448" d="M40.7 45.2s.2-1.1.1-1.4c-.1-.4-.8-.7-1-1.1-.2.6.1 2.5.9 2.5"/><path fill="#FFD57B" stroke="#F1B448" d="M41 44.6s.2-1.1.1-1.4c-.1-.4-.8-.7-1-1.1-.2.6.1 2.5.9 2.5"/><path fill="#FFD57B" stroke="#F1B448" d="M41.4 43.5s.2-1.1.1-1.4c-.1-.4-.8-.7-1-1.1-.2.5.1 2.4.9 2.5m1.2-4.8s.2-1.1.1-1.4c-.1-.4-.8-.7-1-1.1-.2.5 0 2.5.9 2.5"/><path fill="#FFD57B" stroke="#F1B448" d="M42.7 36.9s.2-1.1.1-1.4c-.1-.4-.8-.7-1-1.1-.2.6.1 2.5.9 2.5m.9-3.6s.2-1.1.1-1.4c-.1-.4-.8-.7-1-1.1-.2.6.1 2.5.9 2.5"/><path fill="#FFD57B" stroke="#F1B448" d="M44 32.1s.2-1.1.1-1.4c-.1-.4-.8-.7-1-1.1-.2.5.1 2.5.9 2.5m-2.7 15.8s.2-1.1.5-1.3c.3-.3 1.2-.3 1.7-.6 0 .6-1.1 2.3-2.2 1.9m-.6 2.9s.2-1.1.5-1.3c.3-.3 1.2-.3 1.7-.6.1.6-1.1 2.3-2.2 1.9"/><path fill="#FFD57B" stroke="#F1B448" d="M40.9 49.3s.2-1.1.5-1.3c.3-.3 1.2-.3 1.7-.6.1.6-1.1 2.3-2.2 1.9m.9-2.9s.2-1.1.5-1.3c.3-.3 1.2-.3 1.7-.6 0 .6-1.2 2.2-2.2 1.9"/><path fill="#FFD57B" stroke="#F1B448" d="M42.1 45.1s.2-1.1.5-1.3c.3-.3 1.2-.3 1.7-.6 0 .6-1.2 2.2-2.2 1.9"/><path fill="#FFD57B" stroke="#F1B448" d="M42.4 43.7s.2-1.1.5-1.3c.3-.3 1.2-.3 1.7-.6 0 .6-1.2 2.2-2.2 1.9"/><path fill="#FFD57B" stroke="#F1B448" d="M42.8 42.2s.2-1.1.5-1.3c.3-.3 1.2-.3 1.7-.6 0 .6-1.2 2.3-2.2 1.9"/><path fill="#FFD57B" stroke="#F1B448" d="M43.1 40.6s.2-1.1.5-1.3c.3-.3 1.2-.3 1.7-.6 0 .6-1.2 2.3-2.2 1.9m.2-1.7s.2-1.1.5-1.3c.3-.3 1.2-.3 1.7-.6 0 .7-1.2 2.3-2.2 1.9"/><path fill="#FFD57B" stroke="#F1B448" d="M43.6 37.7s.2-1.1.5-1.3c.3-.3 1.2-.3 1.7-.6.1.6-1.1 2.2-2.2 1.9"/><path fill="#FFD57B" stroke="#F1B448" d="M43.9 36.4s.2-1.1.5-1.3c.3-.3 1.2-.3 1.7-.6 0 .6-1.2 2.2-2.2 1.9"/><path fill="#FFD57B" stroke="#F1B448" d="M44.1 34.9s.2-1.1.5-1.3c.3-.3 1.2-.3 1.7-.6.1.6-1.1 2.3-2.2 1.9"/><path fill="#FFD57B" stroke="#F1B448" d="M44.5 33.5s.2-1.1.5-1.3c.3-.3 1.2-.3 1.7-.6 0 .6-1.2 2.2-2.2 1.9"/><path fill="#FFD57B" stroke="#F1B448" d="M44.8 32.2s.2-1.1.5-1.3c.3-.3 1.2-.3 1.7-.6 0 .6-1.2 2.3-2.2 1.9"/><path fill="#FFD57B" stroke="#F1B448" d="M45.3 31.3s-.2-1.1 0-1.4c.2-.4 1-.7 1.4-1.2.2.6-.3 2.5-1.4 2.6"/><path fill="none" stroke="#E4A73B" d="M44.8 29.5c.6.3.4.9-.1 1.1.7.3.7 1.1 0 1.2.3.3.3.5 0 .7.6.7-.1 1-.3 1.5-.3.6.1.8-.6 1.4.7.7-.2 1.1-.2 1.6 0 .4.3.5.2.9 0 .2-.5.5-.6.6.4.4.3.8-.2 1 .2.1.3.4.5.6-.1.1-.3.3-.5.3.5.6.3 1.4-.4 1.6.2.3.2.6-.1.9.3.4.2.8-.3.8 1 .6-.4 1.4-.5 2.1-.2.8.5 1.7-.5 2.2.3.5.5 1.2-.3 1.2.3.4.7.9.3 1.5-.4.6-1.3.2-1.6.9.1.1 0 .3.1.4"/><path fill="#F9CD78" stroke="#F1B448" d="M39.9 51.6c-.1-.2.4-1.2 1.1-1.2.7 0 1.4-.4 1.4-.4s.1.8-.6 1.2c-.7.5-1.2.8-1.5.8-.3 0-.8-.1-.8-.1l.4-.3z"/><path fill="#E4A73B" stroke="#E4A73B" d="M40.3 52l-.5.7-5.6 28-.2-.1 5.5-28.7z"/><path fill="none" stroke="#E4A73B" d="M42.3 50.5l8-20m-8 18.8l7.3-18.7m-6.9 17.3l6.4-17.6m-5.2 13.1L48.6 29m-4.4 13.1l5-12.3m-4.8 10.8L48 28.9m-2.9 8.4l2.4-9M45.7 35l1.7-7.4m-1.8 6l2.6-5.9m-9.7 20.5v.2m0 0l2.3-19.5m-1.7 19L41.6 29m-2.5 17.6l2.6-18.2m-2 16.7l2.4-16m-2.2 14.7l1.4-15.5m-.9 14.5l1.7-14.3m-1.3 11.6l1.8-11.5m-1.2 9.9l1.2-9.9m-.5 6.5l.8-7m.4 6.3l-.9-7.1m-3.9 20.9l1.6-17.9m2.2 20.2l7.3-16.3m-7.8 17.1l8.5-16.2M39 48.9l-.4-16.8m.1 17.6l-.5-15.9m.6 16.4l-1.6-14.3m4 14.8l10.1-14.5"/><path fill="#F4C569" stroke="#F6C259" d="M27.8 55.5c.1-.1-.1-.3-.1-.4s-.2-.3-.1-.7c.1-.4-.2-1.1-.2-1.2v-.4s-.1-.6-.2-.8c-.1-.1-.1-.4-.1-.5 0-.1-.1-.7-.2-.8-.1-.1-.1-.6-.1-.6l-.2-.8.1-.4s-.4-.4-.3-.6c.1-.2-.2-.5-.2-.5s-.3-.4-.3-.7c.1-.3 0-.4.1-.5.1-.2-.2-.8-.2-.8.2-.4 0-.7 0-1.1 0-.1.1-.4 0-.5 0-.2-.2-.3-.3-.5v-.4c0-.2-.1-.2-.2-.4v-.6c-.1-.3-.3-.4 0-.7-.6-.2-.1-1-.3-1.5.3 0 .2.2.3.4.1.2.3.3.3.6.1.3-.1.3 0 .6.1.2.3.2.1.6.1 0 .1.1.2.1 0 .2 0 .4-.1.5 0-.1.1-.1.1-.1.3.2.1.9-.1 1 .7-.2.3.8.2 1.1.2-.5.4 0 .4.3s-.1.6-.1.9c.1-.1.2-.1.3 0 .2.2 0 .3 0 .4 0 .2.2.2.3.3.1.1 0 .4 0 .5 0 .4 0 .6.1.9.1.2.2.8 0 1 0 .3.2.6.3.9 0 .1-.1.3-.1.4.2.4.5.5.3 1 .3.3.2.7.2 1.1.1.5.5.7.4 1.3 0 .2-.2.3-.2.5s.2.3.3.4c.3.4.1.5-.2.9.2.3.5.5.5 1 0 .3-.2 1.1-.5 1 .1-.2-.3-2-.2-2.2z"/><path fill="#FFD57B" stroke="#F6C259" d="M33.7 81l-.6.1-4.9-23.3.6-.2z"/><path fill="#F9CD78" stroke="#F1B448" d="M28.3 57.7c-1 .3-1.4-1.9-1.8-2.6.2.2.4.5.6.8.2.4.3.4.7.6.3.2.5.3.6.6.1.4.1.8-.3.7"/><path fill="#FFD57B" stroke="#F6C259" d="M25.4 41.2c-.1-.2-.3-.4-.5-.6 0 .2 0 .5.2.7 0 .3.3.3.3-.1m-.2.9c-.2-.2-.5-.4-.6-.8.1 0 .4.1.5.2.2.2.1.4.1.6m.3 1.1c-.3-.1-1.1-.7-1-1.2.5.4 1 .4 1 1.2m2.3 13.1c-.4.2-.6-.2-.7-.6-.1-.4-.3-.6-.6-.9.1-.1.9.2 1.1.3.3.3.3 1 .2 1.2m.9-.3c-.3-.5.5-.8.7-1 .2.6 0 1.3-.6 1.4 0-.1-.1-.3-.1-.4"/><path fill="#FFD57B" stroke="#F6C259" d="M27.5 54.4c.1 0 .1 0 0 0-.1-.2-.9-.7-.9-.2 0 .5.7.8 1 .8-.2-.2-.1-.5.1-.6m1.1.7c.1-.1.2-.4.4-.5M26 41.8c-.1-.1-.1 0 0 0-.1-.3 0-.5.3-.4.1.3.3.9-.2.8-.1-.2-.1-.3-.1-.4 0 0 0-.2.1-.2m-.3 3c-.5 0-1.1-1.3-.9-1.7.3.2.4.4.7.5 0 .6.4.7.1 1.3"/><path fill="#FFD57B" stroke="#F6C259" d="M26.4 43c.5-.2.4-.5.1-1-.1.1-.2.3-.4.2v.5c.2.1.2.2.2.4"/><path fill="#FFD57B" stroke="#F6C259" d="M26.8 42.8c-.3-.1-.4.7-.6.8.2.1.3.1.4.3.1.1-.1.3 0 .4.2.1.3-.3.4-.4 0-.3.1-1-.2-1.1zm-1.1 1.8c-.3-.4-.7-.6-.5 0 .1.6.2.6.7 1 0-.2 0-.7-.2-1"/><path fill="#FFD57B" stroke="#F6C259" d="M26.8 45.5c.1-.3.3-.4.4-.8.1-.4 0-.6 0-.9-.2.3-.9.4-.8.9.5-.2.2.6.2.8.1.1.1 0 .2 0m-1 1.1c-.5 0-.6-1.2-.6-1.5.1.1.2.3.4.4m.3.6c.1.1.1.3.1.4m1.3 1.1c.4-.4.7-.8.3-1.4-.1 0-.5.3-.6.4.2.2.3.8.3 1"/><path fill="#FFD57B" stroke="#F6C259" d="M26 47.7c-.5-.1-.5-.7-.7-1.2.3.1.6.1.7.5 0 0-.1.1-.1.2s.1.1.1.2c.1.1.2.2.3.4-.1 0-.3-.1-.3-.1m.6 1.5c-.3-.1-.7-.2-.9-.5-.2-.3-.2-.8-.5-.9.3 0 .9-.1 1.1.2.1.1.2.5.2.7.2.2.2.3.1.5m-.6.5c-.1-.2-.1-.3-.2-.4-.1-.1-.3 0-.2-.3.4-.2.6.3 1 .3.1.2.3.7.1.9-.2.1-.6-.3-.7-.5zm1.5 4.5c-.7.3-.8-1-.9-1.6.4.1.5.1.7.6.1.3.3.7.2 1m-.4-2.8c-.2 0-.5-.1-.7-.2.1.4.6 1.5 1 1.6-.2-.5-.3-.8-.4-1.4m1.9 3.6c.2-.4.6-.3.3.1-.1.2-.5.7-.8.5.1-.2.3-.4.3-.6m-.4-.7c.1-.3.5-.4.7-.6.1.2.2.6.2.8-.1.3-.3.3-.5.5-.1-.2-.5-.5-.4-.7"/><path fill="#FFD57B" stroke="#F6C259" d="M28.1 52.8c.1 0 .1 0 0 0 .2-.2.3-.6.5-.8.2.1.3 1 .3 1.3 0 .5-.2.6-.6.7.2-.4 0-.8-.3-1"/><path fill="#FFD57B" stroke="#F6C259" d="M28.5 51.5c.2.5-.2.8-.4 1.2 0 0-.1 0-.1-.1-.1 0 0-.5 0-.6 0-.2-.2-.5-.2-.6 0-.6.5-.3.7.1z"/><path fill="#FFD57B" stroke="#F6C259" d="M27.5 50.2c.2-.2.5-.2.8-.4 0 .2.3.8.2.9 0 .1-.5.3-.6.3 0-.2-.2-.3-.3-.4-.1-.1 0-.3-.1-.4"/><path fill="#FFD57B" stroke="#F6C259" d="M27.3 49.1c.2-.1.4-.4.7-.4.2.5.3 1.6-.5 1.3.1-.3-.4-.6-.1-.8"/><path fill="#FFD57B" stroke="#F6C259" d="M27.3 47.7c.1-.1.4-.3.5-.2.1 0 .2.5.2.7 0 .5-.3.6-.6.8 0-.5-.3-1-.1-1.3m-.6-2.2c.1 0 .4-.4.6-.4.1.3.5.6.3.9-.1.2-.6.4-.8.4.3-.3 0-.6-.3-.6.2 0 .4-.2.2-.3m-.6 4.6c-.2.7.3 1.3.9 1.2-.1-.3-.1-.8-.3-1l-.6-.2z"/><path fill="none" stroke="#E4A73B" d="M25.3 41.8c-.1.1-.1 0-.1.1.1.2.2.5.4.6-.2.3 0 .5.1.8 0 .4-.3.5.1.9 0 0 .1 0 .1.1-.1.2-.1.9.2 1.1-.2.3-.2 1.1.2 1.1-.2.2-.1 1.1.3 1.1-.1.1-.2.3-.2.3.2.5-.2 1 .3 1.4-.1.3-.2 1 .2 1.2-.2.4 0 .9.4 1-.1.4-.5 1.7.2 1.7-.2.5 0 .9.1 1.3h.1c-.4.3 0 .9.2 1.2-.2.5 0 .9.4 1.2 0 .1-.1.1-.1.1"/><path fill="none" stroke="#E4A73B" d="M27.9 56.3s-.2-.8-.3-1c-.2-.2-.6-.3-.9-.5 0 .5.7 1.7 1.2 1.5"/><path fill="#FFD57B" stroke="#F1B448" d="M27.6 55.1s-.2-.8-.3-1c-.2-.2-.6-.3-.9-.5.1.4.7 1.7 1.2 1.5"/><path fill="#FFD57B" stroke="#F1B448" d="M27.5 54s-.2-.8-.3-1c-.2-.2-.6-.3-.9-.5 0 .5.7 1.7 1.2 1.5"/><path fill="#FFD57B" stroke="#F1B448" d="M27.2 52.9s-.2-.8-.3-1c-.2-.2-.6-.3-.9-.5 0 .4.7 1.7 1.2 1.5"/><path fill="#FFD57B" stroke="#F1B448" d="M27.2 52.3s-.2-.8-.3-1c-.2-.2-.6-.3-.9-.5 0 .5.7 1.7 1.2 1.5"/><path fill="#FFD57B" stroke="#F1B448" d="M27.1 51.4s-.2-.8-.3-1c-.2-.2-.6-.3-.9-.5 0 .5.7 1.7 1.2 1.5m-.7-3.6s-.2-.8-.3-1c-.2-.2-.6-.3-.9-.5.1.5.8 1.7 1.2 1.5"/><path fill="#FFD57B" stroke="#F1B448" d="M26 46.6s-.2-.8-.3-1c-.2-.2-.6-.3-.9-.5.1.5.8 1.7 1.2 1.5m-.4-2.8s-.2-.8-.3-1c-.2-.2-.6-.3-.9-.5 0 .5.7 1.7 1.2 1.5"/><path fill="#FFD57B" stroke="#F1B448" d="M25.5 42.9s-.2-.8-.3-1c-.2-.2-.6-.3-.9-.5 0 .4.7 1.7 1.2 1.5m2.7 11.6s-.2-.8-.1-1c.1-.3.6-.5.8-.8.3.3 0 1.8-.7 1.8m.5 2.2s-.2-.8-.1-1c.1-.3.6-.5.8-.8.2.3 0 1.7-.7 1.8"/><path fill="#FFD57B" stroke="#F1B448" d="M28.4 55.6s-.2-.8-.1-1c.1-.3.6-.5.8-.8.2.3 0 1.8-.7 1.8m-.3-2.3s-.2-.8-.1-1c.1-.3.6-.5.8-.8.2.4 0 1.8-.7 1.8"/><path fill="#FFD57B" stroke="#F1B448" d="M27.9 52.4s-.2-.8-.1-1c.1-.3.6-.5.8-.8.2.3 0 1.7-.7 1.8"/><path fill="#FFD57B" stroke="#F1B448" d="M27.7 51.3s-.2-.8-.1-1c.1-.3.6-.5.8-.8.2.4 0 1.8-.7 1.8"/><path fill="#FFD57B" stroke="#F1B448" d="M27.5 50.2s-.2-.8-.1-1c.1-.3.6-.5.8-.8.2.3 0 1.8-.7 1.8"/><path fill="#FFD57B" stroke="#F1B448" d="M27.2 49s-.2-.8-.1-1c.1-.3.6-.5.8-.8.3.4 0 1.8-.7 1.8"/><path fill="#FFD57B" stroke="#F1B448" d="M26.9 47.8s-.2-.8-.1-1c.1-.3.6-.5.8-.8.3.3 0 1.8-.7 1.8"/><path fill="#FFD57B" stroke="#F1B448" d="M26.8 46.9s-.2-.8-.1-1c.1-.3.6-.5.8-.8.2.3 0 1.7-.7 1.8"/><path fill="#FFD57B" stroke="#F1B448" d="M26.6 45.9s-.2-.8-.1-1c.1-.3.6-.5.8-.8.2.3 0 1.8-.7 1.8"/><path fill="#FFD57B" stroke="#F1B448" d="M26.3 44.8s-.2-.8-.1-1c.1-.3.6-.5.8-.8.3.3 0 1.8-.7 1.8"/><path fill="#FFD57B" stroke="#F1B448" d="M26.1 43.7s-.2-.8-.1-1c.1-.3.6-.5.8-.8.2.3 0 1.8-.7 1.8"/><path fill="#FFD57B" stroke="#F1B448" d="M26 42.8s-.2-.8-.1-1c.1-.3.6-.5.8-.8.2.3 0 1.8-.7 1.8"/><path fill="#FFD57B" stroke="#F1B448" d="M26 42s-.4-.7-.4-.9c0-.3.4-.8.5-1.2.3.3.5 1.8-.1 2.1"/><path fill="none" stroke="#E4A73B" d="M25.2 40.9c.4 0 .4.5.2.8.5 0 .7.6.3.9.2.1.3.2.2.5.6.3.2.7.2 1.1 0 .5.3.6.1 1.1.6.3.2.8.3 1.2.1.3.3.2.4.6 0 .2-.1.5-.2.6.3.1.4.5.2.7.2 0 .3.2.5.2-.1.1-.1.3-.2.4.4.3.5.9.2 1.2.2.2.3.4.2.6.3.2.3.5.1.6.7.1.2 1.1.3 1.6.1.6.7 1 .3 1.7.3.2.6.7.1.9.3.2.6.4.6.9-.1.5-.7.5-.7 1 .1.1.1.2.2.3"/><path fill="#F9CD78" stroke="#F1B448" d="M28.4 57.5c-.1-.1-.1-.9.3-1.1.4-.2.7-.6.7-.6s.3.5 0 1-.5.9-.7.9c-.2.1-.5.1-.5.1l.2-.3z"/><path fill="#E4A73B" stroke="#E4A73B" d="M28.8 57.6l-.2.7 4.7 22.8h-.2l-4.9-23.3z"/><path fill="none" stroke="#E4A73B" d="M29.5 56l-.8-15.9m.5 15.1l-.9-14.8m.7 13.7l-1.1-13.8m.6 10.4l-1.2-11.2m1 10.3l-.4-9.8m.1 8.6l-1.1-9m.6 6.6l-1-6.9m.8 5.1l-1.1-5.5m.6 4.6l-.1-4.7m0 16.7v.1m0 0l-3.9-14.1M27 55.1l-3.7-13.7m3.3 12.8L23.2 41m3.3 12.1l-2.9-11.7M26.3 52l-3.4-11m3.4 10.2l-2.9-10.3m2.4 8.4l-2.1-8.5m2.1 7.2l-2.1-7.2m1.5 4.7l-1.4-5.1m1.9 4.3L23.3 40m3.4 15.5l-3.9-12.8M29.5 56l-.2-13.1m.1 13.8l.5-13.4m-2.8 12.5l-4.7-11.4m4.8 12l-4.6-10.8m4.8 11.2l-4.8-9.5m6.3 9.2l1.9-12.7"/><g fill="#FFD57B" stroke="#F6C259"><path d="M36.2 58.6c-.5-.4-1.1-.6-1.6-1-.8-.5-.8-.8-1.7-1-1.4-.2-2.5-.7-3.8-1.2-1.3-.4-2.6-1.1-3.9-1.4-.5-.1-1.2 0-1.7-.2-.7-.2-1.3-.9-2-1.2-.6-.2-1.1-.1-1.7-.2-.6-.1-1.3-.5-1.9-.8-.6-.3-1.1-.7-1.7-.8-.6-.1-1.2 0-1.9-.1-2.6-.5-4.9-.4-7.4-1.4.6 0 1.1.2 1.6.5.7.3 1.2.5 1.9.7 1.2.2 2.3.2 3.6.2 1.3.1 2.5.5 3.6 1.1.6.3 1.1.3 1.7.4.7.2 1.1.7 1.9.8.5.1 1.3-.2 1.7.1.3.2.3.6.5.8.3.2.7.2 1 .2 1.3.2 2.4.7 3.6 1.2.5.2 1.1.4 1.6.6.6.3 1.3.5 1.9.7 1.3.4 2.7.6 3.8 1.5"/><path d="M39 61c-.5-.4-1.1-.6-1.6-1-.8-.5-.8-.8-1.7-1-1.4-.2-2.5-.7-3.8-1.2-1.3-.4-2.6-1.1-3.9-1.4-.5-.1-1.2 0-1.7-.2-.7-.2-1.3-.9-2-1.2-.6-.2-1.1-.1-1.7-.2-.6-.1-1.3-.5-1.9-.8-.6-.3-1.1-.7-1.7-.8-.6-.1-1.2 0-1.9-.1-2.6-.5-4.9-.4-7.4-1.4.6 0 1.1.2 1.6.5.7.3 1.2.5 1.9.7 1.2.2 2.3.2 3.6.2 1.3.1 2.5.5 3.6 1.1.6.3 1.1.3 1.7.4.7.2 1.1.7 1.9.8.5.1 1.3-.2 1.7.1.3.2.3.6.5.8.3.2.7.2 1 .2 1.3.2 2.4.7 3.6 1.2.5.2 1.1.4 1.6.6.6.3 1.3.5 1.9.7 1.3.4 2.7.6 3.8 1.5"/><path d="M34.7 58.9c.4-.5.6-1.1.9-1.7.4-.8.8-.8.9-1.7.1-1.5.6-2.5 1-3.8.3-1.3 1-2.6 1.2-3.9.1-.5 0-1.2.1-1.7.2-.8.9-1.3 1.2-2 .2-.6.1-1.1.1-1.7.1-.7.4-1.3.7-1.9.2-.6.6-1.1.7-1.7.1-.6 0-1.2.1-1.9.4-2.6.2-4.9 1.1-7.4.1.6-.2 1.1-.4 1.6-.3.7-.5 1.2-.6 2-.2 1.2-.1 2.3-.1 3.6 0 1.3-.4 2.5-.9 3.6-.3.6-.2 1.1-.4 1.7-.2.7-.7 1.1-.8 1.9 0 .5.2 1.3-.1 1.7-.2.3-.6.3-.8.6-.2.3-.2.7-.2 1-.1 1.3-.6 2.5-1.1 3.7-.2.6-.3 1.1-.5 1.7-.2.7-.4 1.3-.6 1.9-.4 1.3-.5 2.7-1.3 3.9m4.8 15.5c.4-.5.6-1.1.9-1.7.4-.8.8-.8.9-1.7.1-1.5.6-2.5 1-3.8.3-1.3 1-2.6 1.2-3.9.1-.5 0-1.2.1-1.7.2-.8.9-1.3 1.2-2 .2-.6.1-1.1.1-1.7.1-.7.4-1.3.7-1.9.2-.6.6-1.1.7-1.7.1-.6 0-1.2.1-1.9.4-2.6.2-4.9 1.1-7.4.1.6-.2 1.1-.4 1.6-.3.7-.5 1.2-.6 2-.2 1.2-.1 2.3-.1 3.6 0 1.3-.4 2.5-.9 3.6-.3.6-.2 1.1-.4 1.7-.2.7-.7 1.1-.8 1.9 0 .5.2 1.3-.1 1.7-.2.3-.6.3-.8.6-.2.3-.2.7-.2 1-.1 1.3-.6 2.5-1.1 3.7-.2.6-.3 1.1-.5 1.7-.2.7-.4 1.3-.6 1.9-.4 1.3-.5 2.7-1.3 3.9m-.4-4.2c.2-1.1.5-1.8.5-3-.1-1.1.2-2 .4-3s0-2 0-2.9c.1-1.1.2-2.1.3-3.2.2-2.3-.1-4.4-.2-6.7 0-1 .1-1.9 0-2.9 0-.6 0-2.9-.4-3-.6.8.1 2.1.1 3 0 1 .2 1.9.4 2.9.2.9.2 1.9.3 2.9.1 1.1-.3 2.1-.3 3.1 0 2 .2 4.3-.1 6.3-.2 1-.5 2-.7 3-.2 1.1.2 2.4-.6 3.3"/><path d="M36.1 81.5c.4-.5.6-1.1.9-1.7.4-.8.8-.8.9-1.7.1-1.4.6-2.5 1-3.8.4-1.3 1-2.6 1.2-3.9.1-.5 0-1.2.1-1.7.2-.8.9-1.3 1.2-2 .2-.6.1-1.1.1-1.7.1-.7.4-1.3.7-1.9.2-.6.6-1.1.7-1.7.1-.6 0-1.2.1-1.9.4-2.6.2-4.9 1.1-7.4.1.6-.2 1.1-.4 1.6-.3.7-.5 1.2-.6 2-.2.9-.1 2-.1 3.3 0 1.3-.4 2.5-.9 3.6-.3.6-.2 1.1-.4 1.7-.2.7-.7 1.1-.8 1.9 0 .5.2 1.3-.1 1.7-.2.3-.6.3-.8.6-.2.3-.2.7-.2 1-.1 1.3-.6 2.5-1.1 3.7-.2.6-.3 1.1-.5 1.7-.2.7-.4 1.3-.6 1.9-.4 1.3-.5 2.7-1.3 3.9m-4.1.7c.4-.5.6-1.1.9-1.7.4-.8.8-.8.9-1.7.1-1.4.6-2.5 1-3.8.4-1.3 1-2.6 1.2-3.9.1-.5 0-1.2.1-1.7.2-.8.9-1.3 1.2-2 .2-.6.1-1.1.1-1.7.1-.6.4-1.3.7-1.9.2-.6.6-1.1.7-1.7.1-.6 0-1.2.1-1.9.4-2.6.2-4.9 1.1-7.4.1.6-.2 1.1-.4 1.6-.3.7-.5 1.2-.6 2-.2 1.2-.1 2.3-.1 3.6 0 1.3-.4 2.5-.9 3.6-.3.6-.2 1.1-.4 1.7-.2.7-.7 1.1-.8 1.9 0 .5.2 1.3-.1 1.7-.2.3-.6.3-.8.6-.2.3-.2.7-.2 1-.1 1.3-.6 2.5-1.1 3.7-.2.6-.3 1.1-.5 1.7-.2.7-.4 1.3-.6 1.9-.4 1.3-.5 2.7-1.3 3.9"/><path d="M37.4 76.8c.4-.5.6-1.1.9-1.7.4-.8.8-.8.9-1.7.1-1.5.6-2.5 1-3.8.4-1.3 1-2.6 1.2-3.9.1-.5 0-1.2.1-1.7.2-.8.9-1.3 1.2-2 .2-.6.1-1.1.1-1.7.1-.6.4-1.3.7-1.9.2-.6.6-1.1.7-1.7.1-.6 0-1.2.1-1.9.4-2.6.2-4.9 1.1-7.4.1.6-.2 1.1-.4 1.6-.3.7-.5 1.2-.6 2-.2 1.2-.1 2.3-.1 3.6 0 1.3-.4 2.5-.9 3.6-.4.4-.3.8-.4 1.5-.2.7-.7 1.1-.8 1.9 0 .5.2 1.3-.1 1.7-.2.3-.6.3-.8.6-.2.3-.2.7-.2 1-.1 1.3-.6 2.5-1.1 3.7-.2.6-.3 1.1-.5 1.7-.2.7-.4 1.3-.6 1.9-.4 1.3-.5 2.7-1.3 3.9M24.2 61.8c.1-.6-.1-1.3-.1-1.9 0-.9.3-1.1-.1-1.9-.6-1.3-.7-2.5-1.1-3.8-.4-1.3-.5-2.8-1-4-.2-.5-.6-1-.8-1.5-.2-.8.1-1.6 0-2.3-.1-.6-.5-1-.8-1.6-.3-.6-.3-1.4-.4-2-.1-.6 0-1.3-.3-1.9-.2-.6-.7-1.1-.9-1.6-1-2.4-2.3-4.4-2.9-6.9.4.5.4 1 .5 1.6.1.7.2 1.3.5 2 .5 1.1 1.1 2 1.8 3.1s.9 2.3 1 3.6c.1.7.4 1 .6 1.7.2.7 0 1.3.3 2 .2.4.8 1 .8 1.5 0 .4-.4.5-.4.9 0 .3.2.7.3 1 .6 1.2.8 2.4 1 3.7.1.6.3 1.1.4 1.7.1.7.3 1.3.5 2 .3 1.3.9 2.6.8 4m12.4 10.6c.1-.6-.1-1.3-.1-1.9 0-.9.3-1.1-.1-1.9-.6-1.3-.7-2.5-1.1-3.8-.4-1.3-.5-2.8-1-4-.2-.5-.6-1-.8-1.5-.2-.8.1-1.6 0-2.3-.1-.6-.5-1-.8-1.6-.3-.6-.3-1.4-.4-2-.1-.6 0-1.3-.3-1.9-.2-.6-.7-1.1-.9-1.6-1-2.4-2.3-4.4-2.9-6.9.4.5.4 1 .5 1.6.1.7.2 1.3.5 2 .5 1.1 1.1 2 1.8 3.1s.9 2.3 1 3.6c.1.7.4 1 .6 1.7.2.7 0 1.3.3 2 .2.4.8 1 .8 1.5 0 .4-.4.5-.4.9 0 .3.2.7.3 1 .6 1.2.8 2.4 1 3.7.1.6.3 1.1.4 1.7.1.7.3 1.3.5 2 .3 1.3.9 2.6.8 4m-2.3-3.3c-.4-1-.5-1.8-1.1-2.8-.6-.9-.8-1.8-1.2-2.8-.4-.9-1-1.7-1.5-2.5-.5-.9-.9-2-1.4-2.9-1-2.1-2.4-3.7-3.6-5.7-.5-.8-.9-1.7-1.5-2.5-.3-.5-1.5-2.4-1.9-2.4 0 1 1.1 1.8 1.7 2.6.6.9 1.2 1.6 1.8 2.3.6.7 1.2 1.5 1.8 2.3.7.8.8 1.9 1.4 2.8 1 1.7 2.4 3.6 3.1 5.4.4 1 .6 1.9.9 2.9.4 1 1.4 1.9 1.2 3.1"/><path d="M37 80.2c.1-.6-.1-1.3-.1-1.9 0-.9.3-1.1-.1-1.9-.6-1.3-.7-2.5-1.1-3.8-.4-1.3-.5-2.8-1-4-.2-.5-.6-1-.8-1.5-.2-.8.1-1.6 0-2.3-.1-.6-.5-1-.8-1.6-.3-.6-.3-1.4-.4-2-.1-.6 0-1.3-.3-1.9-.2-.6-.7-1.1-.9-1.6-1-2.4-2.3-4.4-2.9-6.9.4.5.4 1 .5 1.6.1.7.2 1.3.5 2 .5 1.1 1.1 2 1.8 3.1s.9 2.3 1 3.6c.1.7.4 1 .6 1.7.2.7 0 1.3.3 2 .2.4.8 1 .8 1.5 0 .4-.4.5-.4.9 0 .3.2.7.3 1 .6 1.2.8 2.4 1 3.7.1.6.3 1.1.4 1.7.1.7.3 1.3.5 2 .3 1.3.9 2.6.8 4m-3 2.5c.1-.6-.1-1.3-.1-1.9 0-.9.3-1.1-.1-1.9-.6-1.3-.7-2.5-1.1-3.8-.4-1.3-.5-2.8-1-4-.2-.5-.6-1-.8-1.5-.2-.8.1-1.6 0-2.3-.1-.6-.5-1-.8-1.6-.3-.6-.3-1.4-.4-2-.1-.6 0-1.3-.3-1.9-.2-.6-.7-1.1-.9-1.6-1-2.4-2.3-4.4-2.9-6.9.4.5.4 1 .5 1.6.1.7.2 1.3.5 2 .5 1.1 1.1 2 1.8 3.1s.9 2.3 1 3.6c.1.7.4 1 .6 1.7.2.7 0 1.3.3 2 .2.4.8 1 .8 1.5 0 .4-.4.6-.4.9 0 .3.2.7.3 1 .6 1.2.8 2.4 1 3.7.1.6.3 1.1.4 1.7.1.7.3 1.3.5 2 .3 1.3.9 2.6.8 4"/><path d="M35.8 75.5c.1-.6-.1-1.3-.1-1.9 0-.9.3-1.1-.1-1.9-.6-1.3-.7-2.5-1.1-3.8-.4-1.3-.5-2.8-1-4-.2-.5-.6-1-.8-1.5-.2-.8.1-1.6 0-2.3-.1-.6-.5-1-.8-1.6-.3-.6-.3-1.4-.4-2-.1-.6 0-1.3-.3-1.9-.2-.6-.7-1.1-.9-1.6-1-2.4-2.3-4.4-2.9-6.9.4.5.4 1 .5 1.6.1.7.2 1.3.5 2 .5 1.1 1.1 2 1.8 3.1s.9 2.3 1 3.6c.1.7.4 1 .6 1.7.2.7 0 1.3.3 2 .2.4.8 1 .8 1.5 0 .4-.4.5-.4.9 0 .3.2.7.3 1 .6 1.2.8 2.4 1 3.7.1.6.3 1.1.4 1.7.1.7.3 1.3.5 2 .3 1.3.9 2.6.8 4M40.3 61c.4-.5.6-1.1.9-1.7.4-.8.8-.8.9-1.7.1-1.4.6-2.5 1-3.8.4-1.3 1-2.6 1.2-3.9.1-.5 0-1.2.1-1.7.2-.8.9-1.3 1.2-2 .2-.6.1-1.1.1-1.7.1-.7.4-1.3.7-1.9.2-.6.6-1.1.7-1.7.1-.6 0-1.2.1-1.9.4-2.6.2-4.9 1.1-7.4.1.6-.2 1.1-.4 1.6-.3.7-.5 1.2-.6 2-.2 1.2-.1 2.3-.1 3.6 0 1.3-.4 2.5-.9 3.6-.3.6-.2 1.1-.4 1.7-.2.7-.7 1.1-.8 1.9 0 .5.2 1.3-.1 1.7-.2.3-.6.3-.8.6-.2.3-.2.7-.2 1-.1 1.3-.6 2.5-1.1 3.7-.2.6-.3 1.1-.5 1.7-.2.7-.4 1.3-.6 1.9-.4 1.3-.5 2.7-1.3 3.9m-.4-4.2c.2-1.1.5-1.8.5-3-.1-1.1.2-2 .4-3s0-2 0-2.9c.1-1.1.2-2.1.3-3.2.2-2.3-.1-4.4-.2-6.7 0-1 .1-1.9 0-2.9 0-.6 0-2.9-.4-3-.6.8.1 2.1.1 3 0 1 .2 1.9.4 2.9.2.9.2 1.9.3 2.9.1 1.1-.3 2.1-.3 3.1 0 2 .2 4.3-.1 6.3-.2 1-.5 2-.7 3-.2 1.1.2 2.4-.6 3.3"/><path d="M36.7 68.6c.4-.5.6-1.1.9-1.7.4-.8.8-.8.9-1.7.1-1.4.6-2.5 1-3.8.4-1.3 1-2.6 1.2-3.9.1-.5 0-1.2.1-1.7.2-.8.9-1.3 1.2-2 .2-.6.1-1.1.1-1.7.1-.6.4-1.3.7-1.9.2-.6.6-1.1.7-1.7.1-.6 0-1.2.1-1.9.4-2.6.2-4.9 1.1-7.4.1.6-.2 1.1-.4 1.6-.3.7-.5 1.2-.6 2-.2 1.2-.1 2.3-.1 3.6 0 1.3-.4 2.5-.9 3.6-.3.6-.2 1.1-.4 1.7-.2.7-.7 1.1-.8 1.9 0 .5.2 1.3-.1 1.7-.2.3-.6.3-.8.6-.2.3-.2.7-.2 1-.1 1.3-.6 2.5-1.1 3.7-.2.6-.3 1.1-.5 1.7-.2.7-.4 1.3-.6 1.9-.4 1.3-.5 2.7-1.3 3.9"/><path d="M38 63.9c.4-.5.6-1.1.9-1.7.4-.8.8-.8.9-1.7.1-1.4.6-2.5 1-3.8.4-1.3 1-2.6 1.2-3.9.1-.5 0-1.2.1-1.7.2-.8.9-1.3 1.2-2 .2-.6.1-1.1.1-1.7.1-.7.4-1.3.7-1.9.2-.6.6-1.1.7-1.7.1-.6 0-1.2.1-1.9.4-2.6.2-4.9 1.1-7.4.1.6-.2 1.1-.4 1.6-.3.7-.5 1.2-.6 2-.2 1.2-.1 2.3-.1 3.6 0 1.3-.4 2.5-.9 3.6-.3.6-.2 1.1-.4 1.7-.2.7-.7 1.1-.8 1.9 0 .5.2 1.3-.1 1.7-.2.3-.6.3-.8.6-.2.3-.2.7-.2 1-.1 1.3-.6 2.5-1.1 3.7-.2.6-.3 1.1-.5 1.7-.2.7-.4 1.3-.6 1.9-.4 1.3-.5 2.7-1.3 3.9M24.8 48.9c.1-.6-.1-1.3-.1-1.9 0-.9.3-1.1-.1-1.9-.6-1.3-.7-2.5-1.1-3.8-.4-1.3-.5-2.8-1-4-.2-.5-.6-1-.8-1.5-.2-.8.1-1.6 0-2.3-.1-.6-.5-1-.8-1.6-.3-.6-.3-1.4-.4-2-.1-.6 0-1.3-.3-1.9-.2-.6-.7-1.1-.9-1.6-1-2.4-2.3-4.4-2.9-6.9.4.5.4 1 .5 1.6.1.7.2 1.3.5 2 .5 1.1 1.1 2 1.8 3.1s.9 2.3 1 3.6c.1.7.4 1 .6 1.7.2.7 0 1.3.3 2 .2.4.8 1 .8 1.5 0 .4-.4.6-.4.9 0 .3.2.7.3 1 .6 1.2.8 2.4 1 3.7.1.6.3 1.1.4 1.7.1.7.3 1.3.5 2 .3 1.3.9 2.6.8 4m12.4 10.6c.1-.6-.1-1.3-.1-1.9 0-.9.3-1.1-.1-1.9-.6-1.3-.7-2.5-1.1-3.8-.4-1.3-.5-2.8-1-4-.2-.5-.6-1-.8-1.5-.2-.8.1-1.6 0-2.3-.1-.6-.5-1-.8-1.6-.3-.6-.3-1.4-.4-2-.1-.6 0-1.3-.3-1.9-.2-.6-.7-1.1-.9-1.6-1-2.4-2.3-4.4-2.9-6.9.4.5.4 1 .5 1.6.1.7.2 1.3.5 2 .5 1.1 1.1 2 1.8 3.1s.9 2.3 1 3.6c.1.7.4 1 .6 1.7.2.7 0 1.3.3 2 .2.4.8 1 .8 1.5 0 .4-.4.6-.4.9 0 .3.2.7.3 1 .6 1.2.8 2.4 1 3.7.1.6.3 1.1.4 1.7.1.7.3 1.3.5 2 .3 1.3.9 2.6.8 4M34.3 55c-.4-1-.5-1.8-1.1-2.8-.6-.9-.8-1.8-1.2-2.8-.4-.9-1-1.7-1.5-2.5-.5-.9-.9-2-1.4-2.9-1-2.1-2.4-3.7-3.6-5.7-.5-.8-.9-1.7-1.5-2.5-.3-.5-1.5-2.4-1.9-2.4 0 1 1.1 1.8 1.7 2.6.6.9 1.2 1.6 1.8 2.3.6.7 1.2 1.5 1.8 2.3.7.8.8 1.9 1.4 2.8 1 1.7 2.4 3.6 3.1 5.4.4 1 .6 1.9.9 2.9.4 1 1.4 1.9 1.2 3.1"/><path d="M37.6 67.3c.1-.6-.1-1.3-.1-1.9 0-.9.3-1.1-.1-1.9-.6-1.3-.7-2.5-1.1-3.8-.4-1.3-.5-2.8-1-4-.2-.5-.6-1-.8-1.5-.2-.8.1-1.6 0-2.3-.1-.6-.5-1-.8-1.6-.3-.6-.3-1.4-.4-2-.1-.6 0-1.3-.3-1.9-.2-.6-.7-1.1-.9-1.6-1-2.4-2.3-4.4-2.9-6.9.4.5.4 1 .5 1.6.1.7.2 1.3.5 2 .5 1.1 1.1 2 1.8 3.1s.9 2.3 1 3.6c.1.7.4 1 .6 1.7.2.7 0 1.3.3 2 .2.4.8 1 .8 1.5 0 .4-.4.5-.4.9 0 .3.2.7.3 1 .6 1.2.8 2.4 1 3.7.1.6.3 1.1.4 1.7.1.7.3 1.3.5 2 .3 1.3.9 2.6.8 4"/><path d="M36.4 62.6c.1-.6-.1-1.3-.1-1.9 0-.9.3-1.1-.1-1.9-.6-1.3-.7-2.5-1.1-3.8-.4-1.3-.5-2.8-1-4-.2-.5-.6-1-.8-1.5-.2-.8.1-1.6 0-2.3-.1-.6-.5-1-.8-1.6-.3-.6-.3-1.4-.4-2-.1-.6 0-1.3-.3-1.9-.2-.6-.7-1.1-.9-1.6-1-2.4-2.3-4.4-2.9-6.9.4.5.4 1 .5 1.6.1.7.2 1.3.5 2 .5 1.1 1.1 2 1.8 3.1s.9 2.3 1 3.6c.1.7.4 1 .6 1.7.2.7 0 1.3.3 2 .2.4.8 1 .8 1.5 0 .4-.4.6-.4.9 0 .3.2.7.3 1 .6 1.2.8 2.4 1 3.7.1.6.3 1.1.4 1.7.1.7.3 1.3.5 2 .3 1.3.9 2.6.8 4"/></g><path fill="#FFD57B" stroke="#F6C259" d="M32.1 65.7s1.4 2.5 1.7 3.1l.7 2.1h.5s-1.6-4.8-1.9-5.2c-.3-.4-1 0-1 0zm.8-.5c-.4-.5 0-1.7-.2-2.4-.1-.5-.5-.8-.7-1.2-.2-.4-.2-1-.5-1.3-.8.5.3 1.5.5 2 .1.3-.3 2 .6 1.6.2.3-.1 1 .3 1.1"/><path fill="#FFD57B" stroke="#F6C259" d="M31.1 61.4c-.4.1-1.3.3-.5.9.6.5 1-.3.6-.8"/><path fill="#F4C569" stroke="#F6C259" d="M16.1 51c-.5-.5-.8.2-1.2.4-.7.5-.4.1-1.2-.1-.5-.2-.8.1-1.2.2-.3.1-.3.2-.6.2-.1 0-.4-.2-.6-.2-.5 0-.8.4-1.3.4-.3 0-.3 1.1-.5 1.1-.3 0-.4-.8-.7-.8-.3.1-1 .6-1.2.8-.3.4-.4.4-.7.8-.7.9-1 1-.9 2.2.2 1.1 0 1.7-1.2 1.7-.7.1-.6-.1-1.2.5-.2.2-.6.9-1 1-.5.2-.7-.2-1.1.4-.3.4-.1 1.2-.6 1.2-.7-1.9 1.7-2.7 3-3.4 1.8-1 2.4-2.4 3.9-3.7.7-.6 1.5-1.7 2.1-2.4.4-.4.6-.4 1.1-.5.6-.2.8-.4 1.3-.7.8-.4 1.6-.3 2.4-.4.3 0 .9-.4 1.1-.3.3.2.2 1 0 1.2"/><path fill="#FFD57B" stroke="#F6C259" d="M22.2 51.5s3.5 1.3 5.1 3.6c1.6 2.3 5.1 9.6 5.1 9.6v-2.2s-4.3-7.7-5.7-9.2c-1.4-1.5-4.1-2.3-4.1-2.3l-.4.5z"/><path fill="#FFD57B" stroke="#F6C259" d="M22.3 50.9c-.7-.4-1.3-.9-2-1.3s-1.4-.4-2.2-.6c-.3.5.3.9.5 1.4.2.6-.1 1.1.7 1.2 1 .2 2-.8 3 0 .2-.5-.3-.6-.7-.8"/><path fill="#FFD57B" stroke="#F6C259" d="M19 51.6c0 .7-2.1 1.3-2.7 1.5-.2-.4.2-.6.2-1s-.6-.7-.7-1.1c-.3-.6.1-.5.2-1s-.3-.6-.4-1.1c.6-.3 1.8-.5 2.3.2.4.7 0 1.8.8 2.4"/><path fill="#FFD57B" stroke="#F1B448" d="M16 53.1c-.2-.7-3.5.4-1.8-1.1.4-.3 1.2-1.1 1.5-.9.6.2.7 1.2.7 1.8m-5-1.5c-.6-.1-1.2.4-1.5.9-.4.5-1 1.2-.2 1.5.5.2 1.4 0 1.8-.3.7-.5.4-1 .7-1.7"/><path fill="#FFD57B" stroke="#F1B448" d="M9.7 51.8c-1-.9-3.1.9-2.4 1.6.2.2 1.4.2 1.6.1.4-.1.9-1.1.8-1.7m-8.6 9.6c0-1.1.5-2.6 1.9-2.4.3 0 .4-.2.4.4 0 .3-.3.6-.5.8-.3.3-1.4 1.3-1.8.9m4-3.1c-.1-.6 1.2-1.2 1.7-1.2.3.5-1.1 1.6-1.5 1.7-.1-.4.1-.7.1-1.1m8.7-5.8c-.5 0-1.1-.4-1.6-.2-.7.2-.5 1-.6 1.6-.1.7-.4 1.2.4 1 .4-.1 1.6-.5 1.7-1-.2-.1-.3-.3-.5-.3.1-.3.4-.4.7-.6 0-.1 0-.2-.1-.2m1.7-3c-.3-.4-.8-.1-1.2-.1-.5 0-.9-.1-1.4-.2-.5 1.2 1.8 1.3 2.5 1.3.1-.6-.1-.9-.5-1.4"/><path fill="#FFD57B" stroke="#F1B448" d="M4.8 58c-.5-.4-1.1 0-1.5.4-.6.7.2.7-.1 1.5.7.1 2.3-1.2 1.7-1.9m4.2-4.3c-.4.2-.5.3-.9.4-.4.1-.7-.1-.9.4-.4.7 0 1.6.8 1.4.5-.1 1.7-.7 2-1.1.9-1.1-.6-.7-1-1.3"/><path fill="#FFD57B" stroke="#F1B448" d="M6.7 53.6c-.5.2-1 .9-1.2 1.5.4.3 1.1.3 1.4-.1.2-.3.2-.5.4-.8.3-.2.6.1.7-.4-.3-.1-.6-.3-.9-.5m6-4.7c-.8-.5-1.3 1-.9 1.5.3.4 1.7-.1 2-.3-.4-.2-.8-.7-1-1.1"/><path fill="#FFD57B" stroke="#F1B448" d="M7.1 55.1c-.6.4.8 1.7-.7 1.7-1.4-.1-.2-1.6.7-1.7.2.2.3.5.1.9m5.2-7.4c-.5.3-1 0-1.4.6-.1.2-.5 1.5-.3 1.6.3.3 1.2-.1 1.4-.4.5-.6-.3-.9 0-1.5"/><path fill="none" stroke="#F6C259" d="M8 54.1c.3-.6.6.5.6.8 0 .5-.1 1.3-.8 1.4-1.1.1-.7-2.5.6-2.2"/><path fill="#FFD57B" stroke="#F1B448" d="M11 49.1c-1-.2-2.2 1.2-1.5 2.1.3.4 1 .2 1.3-.3.3-.5-.2-1.2.3-1.6M.9 59.3c-.3.2-1.6 2.1-.4 2 .6 0 .4-1.9.6-2.3"/><path fill="#FFD57B" stroke="#F1B448" d="M9.2 50.4v-.2c-1.6.2-1.4 1.5-1.7 2.7.7 0 1.2-.2 1.7-.7.8-.7.1-1 0-1.8m-6.9 8.2c-.7 0-1.6-.2-1.9.7.2.1.9.1 1.2 0 .6-.1.6-.1.9-.7m5.2-5.3c-.6-.2-2.3.3-1.4.9.7.5 1.8-.4 1.4-1.2-.2.1-.5.2-.6.3"/><path fill="#FFD57B" stroke="#F1B448" d="M2.8 58.3c-.4-.4-1.8-.5-1.8.2.4.2.6-.1.9-.1.5 0 .7.3 1.2 0 .1-.1 0-.2-.1-.2m3-3c-.6-.3-1.2-.1-1.5.5.5.7 1.2.4 1.5-.3"/><path fill="#FFD57B" stroke="#F1B448" d="M5.3 56.1c-.4 0-1.5-.3-1.3.3.2.7 1.4.7 1.5-.1m-2.4 1.5c-.2-.3-1.8-1-1.7 0 0 .3 1.6.7 1.7 0"/><path fill="#FFD57B" stroke="#F1B448" d="M4.3 56.8c-.3-.3-1.7-1.2-1.8-.2 0 .1.7 1 .8 1.1.4.1.9-.3 1.2-.6"/><path fill="#F4C569" stroke="#F6C259" d="M34.4 26.5c.2-.2 0-.5-.1-.7-.1-.2-.2-.6 0-1.1.2-.5 0-1.8.1-2 .1-.3.1-.6.1-.6s.1-1 0-1.3c-.1-.3 0-.7 0-.8 0-.2.2-1.2 0-1.4-.2-.2.1-1 .1-1v-1.2l.3-.6s-.5-.9-.3-1.1c.2-.3-.1-.9-.1-.9s-.4-.7-.2-1.2.1-.6.3-.8c.2-.2 0-1.3 0-1.3.4-.5.2-1.1.4-1.7.1-.2.2-.5.2-.7 0-.3-.3-.5-.2-.9 0-.2.2-.4.2-.6 0-.2-.1-.4-.1-.7 0-.5.2-.6.2-1 0-.5-.3-.8.2-1.1-.9-.6.2-1.6 0-2.4.5.1.3.5.4.8.1.4.3.6.3 1 0 .5-.3.5-.3 1 0 .4.4.5 0 .9.1 0 .2.1.2.2 0 .3-.1.6-.3.8.1-.1.2-.1.3-.2.4.4-.1 1.4-.4 1.6 1.1-.1.2 1.4-.1 1.8.5-.7.6.2.5.6-.1.5-.4.9-.5 1.3.2-.2.3-.1.5.1.2.4-.2.4-.2.7 0 .3.2.3.3.6 0 .2-.1.6-.1.8-.1.6-.1.9-.1 1.5 0 .4 0 1.3-.3 1.5-.1.5.1 1.1.2 1.6l-.3.6c.1.7.7 1 .1 1.7.4.5 0 1.2 0 1.8 0 .7.5 1.3.2 2.1-.1.3-.4.5-.4.7-.1.4.2.5.3.8.4.8-.1.9-.6 1.3.2.6.6 1 .5 1.7-.1.3-.7 1.5-1.2 1.3-.3-.2-.4-3.2-.1-3.5z"/><path fill="#FFD57B" stroke="#F6C259" d="M34.7 83.2h-1l.4-53h1z"/><path fill="#F9CD78" stroke="#F1B448" d="M34.4 30c-1.7.1-1.5-3.4-1.8-4.7.3.4.5.9.7 1.4.2.7.4.7.9 1.2.4.4.7.6.8 1.2.1.6-.2 1.2-.7 1"/><path fill="#FFD57B" stroke="#F6C259" d="M35.6 3.3c-.1-.4-.4-.8-.6-1.1h-.1c-.1.4-.2.8 0 1.2.2.3.6.5.6-.1m-.4 1.4c-.3-.4-.7-.8-.6-1.5.2.1.5.3.6.5.2.4 0 .6.1 1m-.1 1.8c-.5-.3-1.4-1.5-1.1-2.2.6.7 1.3.9 1.2 2.2m-1.1 21.2c-.7.1-.8-.5-.9-1.1-.1-.6-.3-1.1-.6-1.7.2-.1 1.4.6 1.6.9.3.4.1 1.6-.1 2m1.5-.2c-.3-1 1.1-1 1.5-1.3.1 1.1-.4 2.1-1.5 2v-.7"/><path fill="#FFD57B" stroke="#F6C259" d="M34.3 24.7h.1c-.3-.3-1.3-1.4-1.5-.7-.2.7.8 1.5 1.3 1.6-.2-.3 0-.7.3-.9m1.6 1.6c.2-.2.5-.5.7-.6m-.4-21.3c-.1 0-.1.1-.1-.1.1-.3.3-.7.7-.5 0 .5.1 1.4-.6 1.1 0-.2 0-.3-.1-.6l.3-.3m-1.5 4.7c-.7-.2-1.3-2.4-.9-3 .3.4.5.7.9 1.1-.2.9.4 1.3-.2 2"/><path fill="#FFD57B" stroke="#F6C259" d="M36.5 6.5c.9-.2.8-.6.6-1.5-.2.2-.5.4-.7.1-.1.2-.1.6-.2.8.3.1.2.4.2.7"/><path fill="#FFD57B" stroke="#F6C259" d="M37.2 6.3c-.5-.3-.9.9-1.3 1 .2.1.5.2.5.6 0 .2-.3.4-.1.6.3.2.7-.4.8-.5.3-.4.6-1.4.1-1.7zM35 8.8c-.3-.7-.8-1.1-.8-.1s.1 1.1.7 1.8c0-.5.3-1.2.1-1.7"/><path fill="#FFD57B" stroke="#F6C259" d="M36.3 10.5c.3-.4.6-.6.9-1 .3-.6.3-.9.4-1.5-.4.3-1.6.3-1.5 1.1.8-.1.2 1 0 1.2 0 .3.1.2.2.2m-1.9 1.4c-.8-.1-.5-2-.4-2.5.1.2.2.5.4.7m.3 1c.1.2 0 .4-.1.7m1.7 2.2c.8-.5 1.4-1 .9-2.1-.2 0-.8.3-1 .4.3.3.3 1.3 0 1.6"/><path fill="#FFD57B" stroke="#F6C259" d="M34.3 13.6c-.8-.3-.5-1.3-.7-2.1.4.2.9.4 1 1 0 .1-.2.1-.2.3 0 .1.1.2.1.3 0 .2.3.5.3.7-.2 0-.4-.2-.5-.3m.4 2.7c-.4-.2-1-.6-1.2-1.1-.2-.5 0-1.3-.5-1.6.5.1 1.4.1 1.7.7.1.2.1.8.2 1.1.1.4.1.7-.2.9"/><path fill="#FFD57B" stroke="#F6C259" d="M33.6 16.8c-.1-.3-.1-.5-.2-.8-.1-.2-.5-.2-.3-.6.7-.1.9.7 1.5.8 0 .4.2 1.2-.1 1.4-.4.3-.8-.4-.9-.8zm.8 7.6c-1.1.2-.9-1.9-.9-2.7.6.4.8.3.9 1.1.1.5.2 1.2 0 1.8"/><path fill="#FFD57B" stroke="#F6C259" d="M34.6 19.9c-.2-.1-.8-.3-1.1-.5 0 .7.4 2.5.9 2.9-.1-.9-.2-1.4-.1-2.3m1.9 6.1c.5-.6 1-.2.4.3-.3.3-1 .9-1.4.6.2-.3.6-.6.7-.8"/><path fill="#FFD57B" stroke="#F6C259" d="M35.6 24.8c.2-.5 1-.4 1.3-.7.1.4.2 1 0 1.4-.2.4-.6.3-.9.6-.2-.4-.8-.9-.3-1.4"/><path fill="#FFD57B" stroke="#F6C259" d="M35.8 22.3c.1 0 .2.2 0 0 .5-.3.7-.8 1.1-1.1.3.3.2 1.7.1 2.2-.1.8-.6.8-1.2.9.4-.6.3-1.3-.2-1.7m1.2-2.2c.1.9-.5 1.2-1 1.7l-.1-.1c-.1-.1.2-.8.2-1 0-.3-.2-.8-.1-1.1.2-.8 1-.1 1 .5z"/><path fill="#FFD57B" stroke="#F6C259" d="M35.8 18.1c.4-.2.9-.1 1.3-.4 0 .3.1 1.3 0 1.5-.1.1-.9.3-1.1.3 0-.3-.2-.5-.3-.8 0-.2.1-.4.1-.6"/><path fill="#FFD57B" stroke="#F6C259" d="M35.9 16.3c.4-.1.8-.5 1.2-.4.1.8-.1 2.6-1.2 1.9.2-.4-.5-1.1.1-1.3m.3-2.4c.2-.1.7-.3.8-.2.1.1.2.9.1 1.1-.2.7-.7.9-1.2 1 .2-.6 0-1.5.3-1.9m-.1-3.6c.2 0 .7-.5 1.1-.4.1.5.5 1 .2 1.5-.2.3-1.1.5-1.4.4.5-.3.3-1-.2-1 .2-.2.6-.4.6-.6m-2.9 7.1c-.5 1.1.1 2.1 1 2.2-.1-.4.1-1.3-.1-1.6-.1-.2-.9-.6-.9-.6z"/><path fill="none" stroke="#E4A73B" d="M35.3 4.3c-.1.1-.2-.1-.2.1.1.4.2.8.3 1.1-.4.5 0 .8-.1 1.3-.1.6-.6.7-.2 1.4.1 0 .1.1.2.2-.2.3-.4 1.3 0 1.7-.5.4-.7 1.6 0 1.8-.3.3-.5 1.6.1 1.8-.1.1-.3.3-.5.4.2.8-.7 1.6 0 2.3-.3.5-.6 1.5-.1 2-.5.5-.3 1.4.2 1.7-.3.5-1.4 2.5-.3 2.7-.5.7-.3 1.4-.4 2.1h.1c-.8.3-.3 1.3-.1 1.9-.5.7-.4 1.4.3 1.9-.1.1-.1.1-.3.1"/><path fill="none" stroke="#E4A73B" d="M34.2 27.7c0 .1 0-1.3-.1-1.6-.2-.4-.9-.6-1.2-1.1-.1.7.5 2.8 1.3 2.8"/><path fill="#FFD57B" stroke="#F1B448" d="M34.2 25.8c0 .1 0-1.3-.1-1.6-.2-.4-.9-.6-1.2-1.1-.1.7.5 2.8 1.3 2.8"/><path fill="#FFD57B" stroke="#F1B448" d="M34.4 24c0 .1 0-1.3-.1-1.6-.2-.4-.9-.6-1.2-1.1-.1.7.5 2.8 1.3 2.8"/><path fill="#FFD57B" stroke="#F1B448" d="M34.3 22.1c0 .1 0-1.3-.1-1.6-.2-.4-.9-.6-1.2-1.1-.1.7.5 2.8 1.3 2.8"/><path fill="#FFD57B" stroke="#F1B448" d="M34.5 21.3c0 .1 0-1.3-.1-1.6-.2-.4-.9-.6-1.2-1.1-.1.7.5 2.8 1.3 2.8"/><path fill="#FFD57B" stroke="#F1B448" d="M34.6 19.9c0 .1 0-1.3-.1-1.6-.2-.4-.9-.6-1.2-1.1-.1.7.5 2.8 1.3 2.8m.4-6c0 .1 0-1.3-.1-1.6-.2-.4-.9-.6-1.2-1.1-.1.7.5 2.8 1.3 2.8"/><path fill="#FFD57B" stroke="#F1B448" d="M34.8 12c0 .1 0-1.3-.1-1.6-.2-.4-.9-.6-1.2-1.1-.1.7.5 2.8 1.3 2.8m.2-4.6c0 .1 0-1.3-.1-1.6-.2-.4-.9-.6-1.2-1.1-.1.7.5 2.8 1.3 2.8"/><path fill="#FFD57B" stroke="#F1B448" d="M35.2 6c0 .1 0-1.3-.1-1.6-.2-.4-.9-.6-1.2-1.1-.1.7.5 2.8 1.3 2.8m.2 19c0 .1 0-1.3.2-1.6.3-.4 1.2-.6 1.6-1 .2.7-.7 2.8-1.8 2.8m-.1 3.3c0 .1 0-1.3.2-1.6.3-.4 1.2-.6 1.6-1 .2.7-.7 2.8-1.8 2.8"/><path fill="#FFD57B" stroke="#F1B448" d="M35.2 26.8c0 .1 0-1.3.2-1.6.3-.4 1.2-.6 1.6-1 .2.7-.7 2.8-1.8 2.8m.4-3.8c0 .1 0-1.3.2-1.6.3-.4 1.2-.6 1.6-1 .2.7-.7 2.8-1.8 2.8"/><path fill="#FFD57B" stroke="#F1B448" d="M35.6 21.6c0 .1 0-1.3.2-1.6.3-.4 1.2-.6 1.6-1 .2.7-.7 2.8-1.8 2.8"/><path fill="#FFD57B" stroke="#F1B448" d="M35.6 19.9c0 .1 0-1.3.2-1.6.3-.4 1.2-.6 1.6-1 .2.7-.7 2.8-1.8 2.8"/><path fill="#FFD57B" stroke="#F1B448" d="M35.8 18.1c0 .1 0-1.3.2-1.6.3-.4 1.2-.6 1.6-1 .2.7-.7 2.8-1.8 2.8"/><path fill="#FFD57B" stroke="#F1B448" d="M35.8 16.2c0 .1 0-1.3.2-1.6.3-.4 1.2-.6 1.6-1 .2.7-.7 2.8-1.8 2.8"/><path fill="#FFD57B" stroke="#F1B448" d="M35.7 14.2c0 .1 0-1.3.2-1.6.3-.4 1.2-.6 1.6-1 .2.7-.7 2.8-1.8 2.8"/><path fill="#FFD57B" stroke="#F1B448" d="M35.8 12.6c0 .1 0-1.3.2-1.6.3-.4 1.2-.6 1.6-1 .2.7-.7 2.8-1.8 2.8"/><path fill="#FFD57B" stroke="#F1B448" d="M35.8 11.1c0 .1 0-1.3.2-1.6.3-.4 1.2-.6 1.6-1 .2.7-.7 2.8-1.8 2.8"/><path fill="#FFD57B" stroke="#F1B448" d="M35.8 9.3c0 .1 0-1.3.2-1.6.3-.4 1.2-.6 1.6-1 .2.7-.7 2.8-1.8 2.8"/><path fill="#FFD57B" stroke="#F1B448" d="M35.9 7.5c0 .1 0-1.3.2-1.6.3-.4 1.2-.6 1.6-1 .2.7-.7 2.8-1.8 2.8"/><path fill="#FFD57B" stroke="#F1B448" d="M36 6c0 .1 0-1.3.2-1.6.3-.4 1.2-.6 1.6-1 .2.6-.7 2.8-1.8 2.7"/><path fill="#FFD57B" stroke="#F1B448" d="M36.3 4.8c0 .1-.4-1.2-.3-1.6.1-.5.9-1.1 1.1-1.6.4.5.2 2.9-.8 3.3"/><path fill="none" stroke="#E4A73B" d="M35.5 2.8c.6.2.5.9.1 1.3.8.2.9 1.1.2 1.5.4.3.4.5.2.8.7.7.1 1.1 0 1.8-.1.8.3 1-.3 1.8.9.7 0 1.3.1 1.9 0 .5.4.5.4 1 0 .3-.4.7-.5.9.5.3.4.9 0 1.2.2.1.4.4.6.5-.1.1-.3.4-.5.5.6.6.5 1.5-.1 2 .3.3.3.7 0 1 .4.3.4.9-.1 1 1.1.5-.1 1.8-.2 2.6-.1.9.8 1.8-.1 2.7.4.5.7 1.2-.1 1.5.4.4.9.9.6 1.6-.3.7-1.3.5-1.4 1.4.1.1.1.3.1.5"/><path fill="#F9CD78" stroke="#F1B448" d="M34.7 29.8c-.1-.2.2-1.4.9-1.6.7-.2 1.3-.8 1.3-.8s.3.9-.4 1.6c-.6.7-1 1.2-1.4 1.2-.3.1-.8 0-.8 0l.4-.4z"/><path fill="#E4A73B" stroke="#E4A73B" d="M35.1 30.2l-.5.9-.7 52.1h-.2l.4-53z"/><path fill="none" stroke="#E4A73B" d="M36.8 27.9l4.4-25.1m-4.6 23.7L40.5 3m-3.8 21.8l3.2-22m-2.8 16.5l2.1-17.9m-2 16.3l2.7-15.5m-2.8 13.6l1.5-14.4m-1.4 10.5L38 .8M37.4 9l.3-9M37 7.4L38.6 0m-5.9 26v.2m0 0L31.4 2.9m1.8 22.6l-1-22.6m.8 21.2l-.8-21.9m1 20l-.5-19.3m.6 17.6L31.8 2.2m1.7 17.1l-.8-17.1m.8 13.9l-.3-13.9m.6 11.9l-.6-11.9m.7 7.7l-.5-8.4m1.5 7.3L32.8.7M32.7 26L31 4.8m5.8 23.1l4.3-20.6m-4.6 21.6L42 8.2m-8.8 18.5L29.8 7.2m3.3 20.5L29.8 9.2m3.5 19.1l-4.1-16.4m6.6 16.6l7.3-19.3"/><path fill="#FFD57B" stroke="#F6C259" d="M36.3 70.5s-1.5 2.6-1.7 3.2c-.3.6-.8 2.2-.8 2.2h-.5s1.7-5 2-5.4c.3-.4 1 0 1 0z"/><path fill="#FFD57B" stroke="#F6C259" d="M33.8 70.3c.7-.4 1.4-1 2.1-1.4.8-.4 1.5-.5 2.3-.7.3.5-.4.9-.5 1.4-.2.6.1 1.1-.7 1.3-1 .2-2.1-.8-3.1 0-.2-.5.3-.7.7-.9"/><path fill="#FFD57B" stroke="#F6C259" d="M37.2 71c0 .8 2.2 1.4 2.8 1.6.2-.4-.3-.6-.2-1 0-.4.6-.8.8-1.1.3-.7-.1-.6-.2-1.1-.1-.5.3-.6.4-1.1-.7-.3-1.9-.5-2.4.2-.4.7 0 1.9-.8 2.5"/><path fill="#FFD57B" stroke="#F1B448" d="M40.3 72.6c.2-.7 3.6.4 1.9-1.2-.4-.3-1.2-1.1-1.6-1-.7.2-.8 1.3-.8 1.8m5.3-1.4c.7-.1 1.2.4 1.5.9.4.6 1 1.3.2 1.6-.5.2-1.5 0-1.9-.3-.7-.5-.4-1.1-.7-1.8"/><path fill="#FFD57B" stroke="#F1B448" d="M46.9 71.3c1.1-.9 3.2.9 2.5 1.7-.2.2-1.4.3-1.7.1-.5-.2-.9-1.3-.8-1.8m-4.7-.5c.1-.6-1.3-1.2-1.8-1.3-.3.5 1.1 1.7 1.5 1.8.1-.4-.1-.8-.1-1.2m.4.9c.5 0 1.1-.4 1.6-.2.7.3.5 1 .6 1.7.1.7.5 1.3-.4 1.1-.4-.1-1.7-.5-1.7-1 .2-.1.3-.3.5-.4-.1-.3-.5-.4-.7-.6 0-.1 0-.2.1-.2m-1.7-3.2c.3-.4.8-.1 1.2-.1.5 0 .9-.1 1.4-.2.5 1.2-1.9 1.3-2.6 1.3-.2-.6.1-1 .5-1.4"/><path fill="#FFD57B" stroke="#F1B448" d="M47.4 73.2c.4.2.5.3.9.4.5.1.7-.1.9.4.4.7 0 1.7-.8 1.5-.6-.1-1.8-.7-2.1-1.2-.9-1.2.7-.7 1-1.4"/><path fill="#FFD57B" stroke="#F1B448" d="M50 73.1c.5.2 1.1 1 1.3 1.5-.4.3-1.1.3-1.5-.1-.2-.3-.2-.6-.5-.8-.3-.2-.7.1-.7-.4.3-.1.7-.3.9-.5m-6.1-4.9c.8-.5 1.4 1 1 1.5-.3.4-1.7-.1-2.1-.3.4-.2.8-.7 1.1-1.1"/><path fill="#FFD57B" stroke="#F1B448" d="M44 67.9c.5.3 1 0 1.4.6.1.2.5 1.5.4 1.7-.3.4-1.2-.1-1.5-.4-.5-.6.3-.9 0-1.6"/><path fill="none" stroke="#F6C259" d="M48.6 73.6c-.3-.6-.6.5-.6.9 0 .5.1 1.4.8 1.5 1.1.1.8-2.6-.7-2.3"/><path fill="#FFD57B" stroke="#F1B448" d="M45.5 68.4c1.1-.2 2.3 1.2 1.5 2.2-.4.4-1 .2-1.3-.4-.3-.5.2-1.2-.3-1.7"/><path fill="#FFD57B" stroke="#F1B448" d="M47.3 69.8v-.2c1.6.2 1.5 1.5 1.8 2.8-.7 0-1.3-.2-1.8-.7-.7-.8-.1-1 0-1.9m1.7 3c.6-.2 2.4.3 1.5.9-.8.6-2-.3-1.6-1.2.2.1.5.2.7.4m-6.1-3.4c.6-.4 1.3-.1 1.5.5-.5.7-1.3.4-1.5-.3m-.2.9c.1-.6-1.3-1.2-1.8-1.3-.3.5 1.1 1.7 1.5 1.8.1-.4-.1-.8-.1-1.2"/><g fill="#FFD57B" stroke="#F6C259"><path d="M36.2 57.5c-.5-.4-1.1-.6-1.6-1-.8-.5-.8-.8-1.7-1-1.4-.2-2.5-.7-3.8-1.2-1.3-.4-2.6-1.1-3.9-1.4-.5-.1-1.2 0-1.7-.2-.7-.2-1.3-.9-2-1.2-.6-.2-1.1-.1-1.7-.2-.6-.1-1.3-.5-1.9-.8-.6-.3-1.1-.7-1.7-.8-.6-.1-1.2 0-1.9-.1-2.6-.5-4.9-.4-7.4-1.4.6 0 1.1.2 1.6.5.7.3 1.2.5 1.9.7 1.2.2 2.3.2 3.6.2 1.3.1 2.5.5 3.6 1.1.6.3 1.1.3 1.7.4.7.2 1.1.7 1.9.8.5.1 1.3-.2 1.7.1.3.2.3.6.5.8.3.2.7.2 1 .2 1.3.2 2.4.7 3.6 1.2.5.2 1.1.4 1.6.6.6.3 1.3.5 1.9.7 1.3.4 2.7.6 3.8 1.5"/><path d="M39 59.9c-.5-.4-1.1-.6-1.6-1-.8-.5-.8-.8-1.7-1-1.4-.2-2.5-.7-3.8-1.2-1.3-.4-2.6-1.1-3.9-1.4-.5-.1-1.2 0-1.7-.2-.7-.2-1.3-.9-2-1.2-.6-.2-1.1-.1-1.7-.2-.6-.1-1.3-.5-1.9-.8-.6-.3-1.1-.7-1.7-.8-.6-.1-1.2 0-1.9-.1-2.6-.5-4.9-.4-7.4-1.4.6 0 1.1.2 1.6.5.7.3 1.2.5 1.9.7 1.2.2 2.3.2 3.6.2 1.3.1 2.5.5 3.6 1.1.6.3 1.1.3 1.7.4.7.2 1.1.7 1.9.8.5.1 1.3-.2 1.7.1.3.2.3.6.5.8.3.2.7.2 1 .2 1.3.2 2.4.7 3.6 1.2.5.2 1.1.4 1.6.6.6.3 1.3.5 1.9.7 1.3.4 2.7.6 3.8 1.5"/><path d="M34.6 57.8c.4-.5.6-1.1.9-1.7.4-.8.8-.8.9-1.7.1-1.4.6-2.5 1-3.8.3-1.3 1-2.6 1.2-3.9.1-.5 0-1.2.1-1.7.2-.8.9-1.3 1.2-2 .2-.6.1-1.1.1-1.7.1-.7.4-1.3.7-1.9.2-.6.6-1.1.7-1.7.1-.6 0-1.2.1-1.9.4-2.6.2-4.9 1.1-7.4.1.6-.2 1.1-.4 1.6-.3.7-.5 1.2-.6 2-.2 1.2-.1 2.3-.1 3.6 0 1.3-.4 2.5-.9 3.6-.3.6-.2 1.1-.4 1.7-.2.7-.7 1.1-.8 1.9 0 .5.2 1.3-.1 1.7-.2.3-.6.3-.8.6-.2.3-.2.7-.2 1-.1 1.3-.6 2.5-1.1 3.7-.2.6-.3 1.1-.5 1.7-.2.7-.4 1.3-.6 1.9-.4 1.3-.5 2.7-1.3 3.9m4.9 15.5c.4-.5.6-1.1.9-1.7.4-.8.8-.8.9-1.7.1-1.4.6-2.5 1-3.8.3-1.3 1-2.6 1.2-3.9.1-.5 0-1.2.1-1.7.2-.8.9-1.3 1.2-2 .2-.6.1-1.1.1-1.7.1-.7.4-1.3.7-1.9.2-.6.6-1.1.7-1.7.1-.6 0-1.2.1-1.9.4-2.6.2-4.9 1.1-7.4.1.6-.2 1.1-.4 1.6-.3.7-.5 1.2-.6 2-.2 1.2-.1 2.3-.1 3.6 0 1.3-.4 2.5-.9 3.6-.3.6-.2 1.1-.4 1.7-.2.7-.7 1.1-.8 1.9 0 .5.2 1.3-.1 1.7-.2.3-.6.3-.8.6-.2.3-.2.7-.2 1-.1 1.3-.6 2.5-1.1 3.7-.2.6-.3 1.1-.5 1.7-.2.7-.4 1.3-.6 1.9-.4 1.3-.5 2.7-1.3 3.9m-.4-4.2c.2-1.1.5-1.8.5-3-.1-1.1.2-2 .4-3s0-2 0-2.9c0-1.1.2-2.1.3-3.2.2-2.3-.1-4.4-.2-6.7 0-1 .1-1.9 0-2.9 0-.6 0-2.9-.4-3-.6.8.1 2.1.1 3 0 1 .2 1.9.4 2.9.2.9.2 1.9.3 2.9.1 1.1-.3 2.1-.3 3.1 0 2 .2 4.3-.1 6.3-.2 1-.5 2-.7 3-.2 1.1.2 2.4-.6 3.3"/><path d="M36 80.4c.4-.5.6-1.1.9-1.7.4-.8.8-.8.9-1.7.1-1.4.6-2.5 1-3.8.4-1.3 1-2.6 1.2-3.9.1-.5 0-1.2.1-1.7.2-.8.9-1.3 1.2-2 .2-.6.1-1.1.1-1.7.1-.7.4-1.3.7-1.9.2-.6.6-1.1.7-1.7.1-.6 0-1.2.1-1.9.4-2.6.2-4.9 1.1-7.4.1.6-.2 1.1-.4 1.6-.3.7-.5 1.2-.6 2-.2 1.2-.1 2.3-.1 3.6 0 1.3-.4 2.5-.9 3.6-.3.6-.2 1.1-.4 1.7-.2.7-.7 1.1-.8 1.9 0 .5.2 1.3-.1 1.7-.2.3-.6.3-.8.6-.2.3-.2.7-.2 1-.1 1.3-.6 2.5-1.1 3.7-.2.6-.3 1.1-.5 1.7-.2.7-.4 1.3-.6 1.9-.4 1.3-.5 2.7-1.3 3.9m-4 .4c.4-.5.6-1.1.9-1.7.4-.8.8-.8.9-1.7.1-1.5.6-2.5 1-3.8.4-1.3 1-2.6 1.2-3.9.1-.5 0-1.2.1-1.7.2-.8.9-1.3 1.2-2 .2-.6.1-1.1.1-1.7.1-.7.4-1.3.7-1.9.2-.6.6-1.1.7-1.7.1-.6 0-1.2.1-1.9.4-2.6.2-4.9 1.1-7.4.1.6-.2 1.1-.4 1.6-.3.7-.5 1.2-.6 2-.2 1.2-.1 2.3-.1 3.6 0 1.3-.4 2.5-.9 3.6-.3.6-.2 1.1-.4 1.7-.2.7-.7 1.1-.8 1.9 0 .5.2 1.3-.1 1.7-.2.3-.6.3-.8.6-.2.3-.2.7-.2 1-.1 1.3-.6 2.5-1.1 3.7-.2.6-.3 1.1-.5 1.7-.2.7-.4 1.3-.6 1.9-.4 1.3-.5 2.7-1.3 3.9"/><path d="M37.4 75.7c.4-.5.6-1.1.9-1.7.4-.8.8-.8.9-1.7.1-1.5.6-2.5 1-3.8.4-1.3 1-2.6 1.2-3.9.1-.5 0-1.2.1-1.7.2-.8.9-1.3 1.2-2 .2-.6.1-1.1.1-1.7.1-.7.4-1.3.7-1.9.2-.6.6-1.1.7-1.7.1-.6 0-1.2.1-1.9.4-2.6.2-4.9 1.1-7.4.1.6-.2 1.1-.4 1.6-.3.7-.5 1.2-.6 2-.2 1.2-.1 2.3-.1 3.6 0 1.3-.4 2.5-.9 3.6-.3.6-.2 1.1-.4 1.7-.2.7-.7 1.1-.8 1.9 0 .5.2 1.3-.1 1.7-.2.3-.6.3-.8.6-.2.3-.2.7-.2 1-.1 1.3-.6 2.5-1.1 3.7-.2.6-.3 1.1-.5 1.7-.2.7-.4 1.3-.6 1.9-.4 1.3-.5 2.7-1.3 3.9M24.2 60.7c.1-.6-.1-1.3-.1-1.9 0-.9.3-1.1-.1-1.9-.6-1.3-.7-2.5-1.1-3.8-.4-1.3-.5-2.8-1-4-.2-.5-.6-1-.8-1.5-.2-.8.1-1.6 0-2.3-.1-.6-.5-1-.8-1.6-.3-.6-.3-1.4-.4-2-.1-.6 0-1.3-.3-1.9-.2-.6-.7-1.1-.9-1.6-1-2.4-2.3-4.4-2.9-6.9.4.5.4 1 .5 1.6.1.7.2 1.3.5 2 .5 1.1 1.1 2 1.8 3.1s.9 2.3 1 3.6c.1.7.4 1 .6 1.7.2.7 0 1.3.3 2 .2.4.8 1 .8 1.5 0 .4-.4.5-.4.9 0 .3.2.7.3 1 .6 1.2.8 2.4 1 3.7.1.6.3 1.1.4 1.7.1.7.3 1.3.5 2 .3 1.3.9 2.6.8 4m12.3 10.6c.1-.6-.1-1.3-.1-1.9 0-.9.3-1.1-.1-1.9-.6-1.3-.7-2.5-1.1-3.8-.4-1.3-.5-2.8-1-4-.2-.5-.6-1-.8-1.5-.2-.8.1-1.6 0-2.3-.1-.6-.5-1-.8-1.6-.3-.6-.3-1.4-.4-2-.1-.6 0-1.3-.3-1.9-.2-.6-.7-1.1-.9-1.6-1-2.4-2.3-4.4-2.9-6.9.4.5.4 1 .5 1.6.1.7.2 1.3.5 2 .5 1.1 1.1 2 1.8 3.1s.9 2.3 1 3.6c.1.7.4 1 .6 1.7.2.7 0 1.3.3 2 .2.4.8 1 .8 1.5 0 .4-.4.6-.4.9 0 .3.2.7.3 1 .6 1.2.8 2.4 1 3.7.1.6.3 1.1.4 1.7.1.7.3 1.3.5 2 .3 1.3.9 2.6.8 4m-2.2-3.3c-.4-1-.5-1.8-1.1-2.8-.6-.9-.8-1.8-1.2-2.8-.4-.9-1-1.7-1.5-2.5-.5-.9-.9-2-1.4-2.9-1-2.1-2.4-3.7-3.6-5.7-.5-.8-.9-1.7-1.5-2.5-.2-.6-1.4-2.6-1.8-2.5 0 1 1.1 1.8 1.7 2.6.6.9 1.2 1.6 1.8 2.3.6.7 1.2 1.5 1.8 2.3.7.8.8 1.9 1.4 2.8 1 1.7 2.4 3.6 3.1 5.4.4 1 .6 1.9.9 2.9.4 1 1.4 1.9 1.2 3.1"/><path d="M37 79.1c.1-.6-.1-1.3-.1-1.9 0-.9.3-1.1-.1-1.9-.6-1.3-.7-2.5-1.1-3.8-.4-1.3-.5-2.8-1-4-.2-.5-.6-1-.8-1.5-.2-.8.1-1.6 0-2.3-.1-.6-.5-1-.8-1.6-.3-.6-.3-1.4-.4-2-.1-.6 0-1.3-.3-1.9-.2-.6-.7-1.1-.9-1.6-1-2.4-2.3-4.4-2.9-6.9.4.5.4 1 .5 1.6.1.7.2 1.3.5 2 .5 1.1 1.1 2 1.8 3.1s.9 2.3 1 3.6c.1.7.4 1 .6 1.7.2.7 0 1.3.3 2 .2.4.8 1 .8 1.5 0 .4-.4.6-.4.9 0 .3.2.7.3 1 .6 1.2.8 2.4 1 3.7.1.6.3 1.1.4 1.7.1.7.3 1.3.5 2 .3 1.3.9 2.6.8 4M33.6 81c.1-.6-.1-1.3-.1-1.9 0-.9.3-1.1-.1-1.9-.6-1.3-.7-2.5-1.1-3.8-.4-1.3-.5-2.8-1-4-.2-.5-.6-1-.8-1.5-.2-.8.1-1.6 0-2.3-.1-.6-.5-1-.8-1.6-.3-.6-.3-1.4-.4-2-.1-.6 0-1.3-.3-1.9-.2-.6-.7-1.1-.9-1.6-1-2.4-2.3-4.4-2.9-6.9.4.5.4 1 .5 1.6.1.7.2 1.3.5 2 .5 1.1 1.1 2 1.8 3.1s.9 2.3 1 3.6c.1.7.4 1 .6 1.7.2.7 0 1.3.3 2 .2.4.8 1 .8 1.5 0 .4-.4.6-.4.9 0 .3.2.7.3 1 .6 1.2.8 2.4 1 3.7.1.6.3 1.1.4 1.7.1.7.3 1.3.5 2 .3 1.3.9 2.6.8 4"/><path d="M35.7 74.4c.1-.6-.1-1.3-.1-1.9 0-.9.3-1.1-.1-1.9-.6-1.3-.7-2.5-1.1-3.8-.4-1.3-.5-2.8-1-4-.2-.5-.6-1-.8-1.5-.2-.8.1-1.6 0-2.3-.1-.6-.5-1-.8-1.6-.3-.6-.3-1.4-.4-2-.1-.6 0-1.3-.3-1.9-.2-.6-.7-1.1-.9-1.6-1-2.4-2.3-4.4-2.9-6.9.4.5.4 1 .5 1.6.1.7.2 1.3.5 2 .5 1.1 1.1 2 1.8 3.1s.9 2.3 1 3.6c.1.7.4 1 .6 1.7.2.7 0 1.3.3 2 .2.4.8 1 .8 1.5 0 .4-.4.5-.4.9 0 .3.2.7.3 1 .6 1.2.8 2.4 1 3.7.1.6.3 1.1.4 1.7.1.7.3 1.3.5 2 .3 1.3.9 2.6.8 4M40.3 60c.4-.5.6-1.1.9-1.7.4-.8.8-.8.9-1.7.1-1.4.6-2.5 1-3.8.3-1.3 1-2.6 1.2-3.9.1-.5 0-1.2.1-1.7.2-.8.9-1.3 1.2-2 .2-.6.1-1.1.1-1.7.1-.6.4-1.3.7-1.9.2-.6.6-1.1.7-1.7.1-.6 0-1.2.1-1.9.4-2.6.2-4.9 1.1-7.4.1.6-.2 1.1-.4 1.6-.3.7-.5 1.2-.6 2-.2 1.2-.1 2.3-.1 3.6 0 1.3-.4 2.5-.9 3.6-.3.6-.2 1.1-.4 1.7-.2.7-.7 1.1-.8 1.9 0 .5.2 1.3-.1 1.7-.2.3-.6.3-.8.6-.2 0-.2.4-.2.7-.1 1.3-.6 2.5-1.1 3.7-.2.6-.3 1.1-.5 1.7-.2.7-.4 1.3-.6 1.9-.4 1.3-.5 2.7-1.3 3.9m-.4-4c.2-1.1.5-1.8.5-3-.1-1.1.2-2 .4-3s0-2 0-2.9c.1-1.1.2-2.1.3-3.2.2-2.3-.1-4.4-.2-6.7 0-1 .1-1.9 0-2.9 0-.6 0-2.9-.4-3-.6.8.1 2.1.1 3 0 1 .2 1.9.4 2.9.2.9.2 1.9.3 2.9.1 1.1-.3 2.1-.3 3.1 0 2 .2 4.3-.1 6.3-.2 1-.5 2-.7 3-.2 1.1.2 2.4-.6 3.3"/><path d="M36.6 67.5c.4-.5.6-1.1.9-1.7.4-.8.8-.8.9-1.7.1-1.5.6-2.5 1-3.8.4-1.3 1-2.6 1.2-3.9.1-.5 0-1.2.1-1.7.2-.8.9-1.3 1.2-2 .2-.6.1-1.1.1-1.7.1-.7.4-1.3.7-1.9.2-.6.6-1.1.7-1.7.1-.6 0-1.2.1-1.9.4-2.6.2-4.9 1.1-7.4.1.6-.2 1.1-.4 1.6-.3.7-.5 1.2-.6 2-.2 1.2-.1 2.3-.1 3.6 0 1.3-.4 2.5-.9 3.6-.3.6-.2 1.1-.4 1.7-.2.7-.7 1.1-.8 1.9 0 .5.2 1.3-.1 1.7-.2.3-.6.3-.8.6-.2.3-.2.7-.2 1-.1 1.3-.6 2.5-1.1 3.7-.2.6-.3 1.1-.5 1.7-.2.7-.4 1.3-.6 1.9-.4 1.3-.5 2.7-1.3 3.9"/><path d="M38 62.8c.4-.5.6-1.1.9-1.7.4-.8.8-.8.9-1.7.1-1.4.6-2.5 1-3.8.4-1.3 1-2.6 1.2-3.9.1-.5 0-1.2.1-1.7.2-.8.9-1.3 1.2-2 .2-.6.1-1.1.1-1.7.1-.6.4-1.3.7-1.9.2-.6.6-1.1.7-1.7.1-.6 0-1.2.1-1.9.4-2.6.2-4.9 1.1-7.4.1.6-.2 1.1-.4 1.6-.3.7-.5 1.2-.6 2-.2 1.2-.1 2.3-.1 3.6 0 1.3-.4 2.5-.9 3.6-.3.6-.2 1.1-.4 1.7-.2.7-.7 1.1-.8 1.9 0 .5.2 1.3-.1 1.7-.2.3-.6.3-.8.6-.2.3-.2.7-.2 1-.1 1.3-.6 2.5-1.1 3.7-.2.6-.3 1.1-.5 1.7-.2.7-.4 1.3-.6 1.9-.4 1.3-.5 2.7-1.3 3.9M24.8 47.8c.1-.6-.1-1.3-.1-1.9 0-.9.3-1.1-.1-1.9-.6-1.3-.7-2.5-1.1-3.8-.4-1.3-.5-2.8-1-4-.2-.5-.6-1-.8-1.5-.2-.8.1-1.6 0-2.3-.1-.6-.5-1-.8-1.6-.3-.6-.3-1.4-.4-2-.1-.6 0-1.3-.3-1.9-.2-.6-.7-1.1-.9-1.6-1-2.4-2.3-4.4-2.9-6.9.4.5.4 1 .5 1.6.1.7.2 1.3.5 2 .5 1.1 1.1 2 1.8 3.1s.9 2.3 1 3.6c.1.7.4 1 .6 1.7.2.7 0 1.3.3 2 .2.4.8 1 .8 1.5 0 .4-.4.6-.4.9 0 .3.2.7.3 1 .6 1.2.8 2.4 1 3.7.1.6.3 1.1.4 1.7.1.7.3 1.3.5 2 .3 1.3.9 2.6.8 4m12.3 10.7c.1-.6-.1-1.3-.1-1.9 0-.9.3-1.1-.1-1.9-.6-1.3-.7-2.5-1.1-3.8-.4-1.3-.5-2.8-1-4-.2-.5-.6-1-.8-1.5-.2-.8.1-1.6 0-2.3-.1-.6-.5-1-.8-1.6-.3-.6-.3-1.4-.4-2-.1-.6 0-1.3-.3-1.9-.2-.6-.7-1.1-.9-1.6-1-2.4-2.3-4.4-2.9-6.9.4.5.4 1 .5 1.6.1.7.2 1.3.5 2 .5 1.1 1.1 2 1.8 3.1s.9 2.3 1 3.6c.1.7.4 1 .6 1.7.2.7 0 1.3.3 2 .2.4.8 1 .8 1.5 0 .4-.4.6-.4.9 0 .3.2.7.3 1 .6 1.2.8 2.4 1 3.7.1.6.3 1.1.4 1.7.1.7.3 1.3.5 2 .3 1.3.9 2.6.8 4m-2.3-3.4c-.4-1-.5-1.8-1.1-2.8-.6-.9-.8-1.8-1.2-2.8-.4-.9-1-1.7-1.5-2.5-.5-.9-.9-2-1.4-2.9-1-2.1-2.4-3.7-3.6-5.7-.5-.8-.9-1.7-1.5-2.5-.3-.5-1.5-2.4-1.9-2.4 0 1 1.1 1.8 1.7 2.6.6.9 1.2 1.6 1.8 2.3.6.7 1.2 1.5 1.8 2.3.7.8.8 1.9 1.4 2.8 1 1.7 2.4 3.6 3.1 5.4.4 1 .6 1.9.9 2.9.4 1 1.4 1.9 1.2 3.1"/><path d="M37.5 66.2c.1-.6-.1-1.3-.1-1.9 0-.9.3-1.1-.1-1.9-.6-1.3-.7-2.5-1.1-3.8-.4-1.3-.5-2.8-1-4-.2-.5-.6-1-.8-1.5-.2-.8.1-1.6 0-2.3-.1-.6-.5-1-.8-1.6-.3-.6-.3-1.4-.4-2-.1-.6 0-1.3-.3-1.9-.2-.6-.7-1.1-.9-1.6-1-2.4-2.3-4.4-2.9-6.9.4.5.4 1 .5 1.6.1.7.2 1.3.5 2 .5 1.1 1.1 2 1.8 3.1s.9 2.3 1 3.6c.1.7.4 1 .6 1.7.2.7 0 1.3.3 2 .2.4.8 1 .8 1.5 0 .4-.4.5-.4.9 0 .3.2.7.3 1 .6 1.2.8 2.4 1 3.7.1.6.3 1.1.4 1.7.1.7.3 1.3.5 2 .3 1.3.9 2.6.8 4"/><path d="M36.3 61.5c.1-.6-.1-1.3-.1-1.9 0-.9.3-1.1-.1-1.9-.6-1.3-.7-2.5-1.1-3.8-.4-1.3-.5-2.8-1-4-.2-.5-.6-1-.8-1.5-.2-.8.1-1.6 0-2.3-.1-.6-.5-1-.8-1.6-.3-.6-.3-1.4-.4-2-.1-.6 0-1.3-.3-1.9-.2-.6-.7-1.1-.9-1.6-1-2.4-2.3-4.4-2.9-6.9.4.5.4 1 .5 1.6.1.7.2 1.3.5 2 .5 1.1 1.1 2 1.8 3.1s.9 2.3 1 3.6c.1.7.4 1 .6 1.7.2.7 0 1.3.3 2 .2.4.8 1 .8 1.5 0 .4-.4.5-.4.9 0 .3.2.7.3 1 .6 1.2.8 2.4 1 3.7.1.6.3 1.1.4 1.7.1.7.3 1.3.5 2 .3 1.3.9 2.6.8 4"/></g></g></g></switch></svg>
