<svg xmlns="http://www.w3.org/2000/svg" id="Capa_1" x="0" y="0" version="1.0" xml:space="preserve" viewBox="0 0 106 111"><style>.st3,.st4{fill:#cacaca;stroke:#363636}.st4{opacity:.24}</style><switch><g><path fill="#fff" stroke="#569ed8" d="M104.6 104.7c0 2.6-2.1 4.7-4.6 4.7H5.6c-2.6 0-4.6-2.1-4.6-4.7v-99C1 3.1 3.1 1 5.6 1H100c2.6 0 4.6 2.1 4.6 4.7v99z" opacity=".55"/><path fill="#363636" stroke="#363636" d="M53.5 13.2C28.4 13.2 8 32.5 8 56.3c0 23.7 20.4 43 45.5 43S99 80 99 56.3c0-23.8-20.4-43.1-45.5-43.1zm0 78.5c-20.7 0-37.4-15.9-37.4-35.5s16.8-35.5 37.4-35.5c20.7 0 37.4 15.9 37.4 35.5S74.2 91.7 53.5 91.7z"/><path fill="gray" d="M53.9 11.7c-25.1 0-45.5 20-45.5 44.6s20.4 44.6 45.5 44.6 45.5-20 45.5-44.6c0-24.7-20.4-44.6-45.5-44.6zm-.5 81.9c-21.4 0-38.7-17-38.7-37.9 0-21 17.3-37.9 38.7-37.9 21.4 0 38.7 17 38.7 37.9.1 20.9-17.3 37.9-38.7 37.9z"/><path d="M33.8 23s1.4 2.8 3.8 6.1c1.9 2.5 3.6 4.6 5.7 7.1 3.5 4.1 4.5 5.6 5.9 3.5 1.4-2.1 3.3-21.9 3.3-21.9s.1 5.1 0 11c-.1 6-.3 16.4-3.3 15.6-3-.8-9.4-9.2-12.4-13.3-3-4.1-4.8-7-4.8-7l1.8-1.1zm22.7-5.1s-.7 26.2 1.1 26.6c1.9.3 11.2-9.3 12.7-11.1 1.5-1.8 5.6-8.5 5.6-8.5s-1.8-1.2-1.9-1.2c-.1-.1-1.2 3-2.2 4.3-1 1.3-5.2 6.7-6.9 8.3-1.6 1.6-4.7 4.2-5.3 4.3-.5.2-1.7 0-1.7-.2s-.9-12.1-1.1-13.6c-.1-1.6-.3-8.9-.3-8.9zm10.7 25.4c-.1.3-1.1 3.1-1.1 3.1s-.8-.1.8 0c1.7.1 6 .1 10.9-.8 4.9-1 6.4-1.8 7.5-2.3 1.1-.5 2.4-.9 2.6-1.2.3-.3 1-1.6 1-1.6l1.2 3s-1.6 1.1-4.5 2c-2.9 1-20.7 4.9-21.1 3.2-.5-1.7 2.7-5.4 2.7-5.4zm3 13.3s8.1 3.9 11.4 5.2c3.3 1.3 4.9 2.1 6.7 2.1 1.7 0 2.8-.8 2.8-.8s-.5 3.6-.6 3.8c-.1.2-21.3-8.7-22.2-9.5-1-.8-1.4-1.8-1.4-1.8l3.3 1zM65 64s.6-.1 1.8 2.3c1.2 2.4 4.3 8.6 5.5 10.3 1.2 1.7 3.2 4.5 3.7 4.8.5.3.9 1 1.7 1.3.8.3 2.3 0 2.3 0s-2 2.9-2.8 2.6c-.8-.3-10.5-14.1-11.8-17-1.4-2.9-1.2-4.1-1.3-4.6-.1-.5.9.3.9.3zM18.9 38.6s-.5 1.7.6 2.9c1 1.3 5.7 3 9.5 3.9 3.7.8 9.5 1.3 10.7 1.1 1.2-.1 2.2-.2 2.2-.2l1.7 2.5s1.7 2.8-11.4-.6c-5.5-1.4-14.4-4.5-14.6-4.4-.2.1-.7-.3-.7-.3l2-4.9z" class="st3"/><path d="M35.8 34.6l5.9 11.5 1.8 2.5s-1.2-2.9-2.7-6.2c-2.6-5.4-5-7.8-5-7.8zM16.2 63.1s-.1 1.5 1.5 1.5 6.9-1.3 11.2-3.3c4.2-1.9 7.2-4.2 7.2-4.2s1.3-.6 2-.9c.7-.3 3 0 3 0s1.7-.5-1.6 1.8c-3.3 2.4-6.7 4.5-12 6.5-5.3 1.9-9.3 2.9-9.7 3-.4.1-1.1 0-1.1 0s-1-3.3-1.1-4c-.2-.7.6-.4.6-.4zm11.5 20.1s.5 1.7 2.6 0 7.7-10.1 8.9-13.1c1.2-3 1.7-3.7 1.7-3.7s2.1-2.6 2.5-2.7c.4-.1 1.1.6-.5 3.9s-5.1 9.2-6.8 11.8c-1.7 2.6-5 7.3-5.2 7.1-.2-.2-1.5-1.1-2.1-1.6-.5-.4-1.4-1.2-1.4-1.2l.3-.5zm20.2 9.1s2.4.9 2.8-.6c.5-1.6-.1-15.1-.5-17-.5-1.9-.2-4.3-.8-4.4-.6-.1-1.5-.5-1.5-.5s.4-1.6 1.5-1.7c1.1-.1 1.5 1 2.2 6 .6 5 .9 18.3.9 18.6 0 .3.2 1 0 1s-6-.6-6.3-.7c-.3-.1 1.7-.7 1.7-.7zm8.2-12.5c0 .3.3 10.8.7 11.4.5.5 1.2 1.1 1.2 1.1l.5 1-2.5.2V79.8z" class="st3"/><path d="M77.6 18.2s1.1.8.6 2.4c-.5 1.6-5.5 9.8-7.4 12.1-1.9 2.2-12 11.6-12.6 11.7-.6.1-1-.4-1.1-.5 0-.1-.7-25.1-.7-25.9 0-.8 0-2.5.4-3.3.5-.8 2-2.6 2.4-2.6.4 0-9.4-.3-9.7 0-.3.3 1.1-.2 1.7.8.6 1 1.2 3.8 1.2 4.9 0 1.2 0 21.8-1.1 24-1 2.2-.7 2.9-1.9 2.6 0 0-4.9-3.4-6.3-5.1-1.4-1.6-7.3-9.2-8.4-10.9-1.1-1.7-2.8-4.3-2.8-4.3s-1.1-1.9-1.2-2.8c-.1-.9 0-1.6 0-2.1s1.6-2.5.5-1.7c-1.2.9-7.2 5.1-7.4 5.3-.2.2-.8.2.9.5 1.7.4 3.5 2.3 5.3 4 1.8 1.8 3.5 4.4 5.3 6.8 1.8 2.4 3.9 5.5 5.5 8.5s2.6 5.9 2.6 5.9 1.5 1.2-2 1c-3.5-.2-10.4-1.6-14.9-3s-9.3-3-9.8-3.2c-.5-.3-2.8-1.7-3.4-2.5-.6-.8-.6-1.8-.6-1.8s-.3-.5-.9.5c-.6 1-1.6 3.8-1.8 4.8-.3 1-.8 4.2-.8 4.2s.3-1.3 1.7-1.8 3.9-.1 7.5 1 7.2 1.9 11.7 3.5c4.5 1.6 7.4 2.9 8.7 3.2 1.3.3 2.2 1.1 2.2 1.1v.5s-2.7 2.8-5 4.2c-2.3 1.4-17.1 7.1-18.3 7.1-1.1 0-3 .1-3.8.4-.8.4-2.6.6-2.8 0-.2-.6-1.3-.4-1.3-.4s2.1 4.9 2.2 5.5c.1.6 1.1 2.8 1.1 2.8s.2-.7.7-1.9c.5-1.1 1.7-2.6 2.8-2.9 1.1-.3 5.6-2.2 12.6-4.1 7-1.9 11.1-3.3 11.6-3.3.5-.1 2.5 0 2.5 0s.6-1.7.4.3c-.2 1.9-4.5 10.3-5.7 12.2-1.2 1.9-5.4 8.6-6.6 9.3-1.2.8-.6 1.1-.6 1.1l2.9 1.7s1.6-3.3 3.4-5.4c1.8-2.1 3.6-4.3 5.2-6.3s2.9-4.1 3.8-5.1c.9-1 2.2-2.8 2.2-2.8s1.4-1.5 1.9-.3 1.3 5 1.6 8.6c.2 3.7.5 11 .6 12.8 0 1.8.1 3.8.1 3.8s.3.9.1 2.2c-.2 1.3-.3 2.4-1.3 3.1-1 .7-2.4 1.4-2.4 1.4s3.5.4 6 .5c2.5 0 4.4-.4 5.2-.4.8 0-1.4.3-2.6-1.1-1.2-1.4-1.2-3.5-1.2-4.4 0-.9-.2-12.7 0-15.1 0 0-.2-3.4 0-4.7.2-1.3.2-6.9 1.8-7.1 1.6-.2 4.9 3.7 7.3 7.1 2.4 3.4 6.6 8.8 7.5 10s1.4 1.9 2.4 3.6c1 1.7 1.4 2.6 1.4 2.6s.4 1.5.3 1.8c-.1.3-.6 1.9-.6 1.9s2.4-1.4 3.9-2.3c1.5-.9 3.2-2.4 3.8-3 .8-.9 2-1.4 1.5-1.7-.3-.1-1.2.6-2.2.9-1.1.3-3.5-1-6.3-4.5S67.7 70.7 67 69.4c-.8-1.3-2.6-3.7-2.4-4.4.2-.7-1-.9 0-1.6 1-.7 0-.6 0-.6s3.4.2 7 1.2 10.4 3.3 13.2 4.3c2.8 1 3.4 1.1 4.6 1.6 1.2.5 1.5.5 2.9 1.4 1.4.9 2.4 1.4 2.4 2v2.6l2.9-6.9c.8-3.1 1.3-5.3 1.3-5.3s.2 2.6-1.5 3c-1.7.4-7.1 0-9.9-1.2-2.8-1.1-14.4-6.1-16.4-7-2-.9-2.9-1.4-3.3-2-.4-.5-.8-1.2-.8-1.2s.9-.8 5.1-2.3c4.2-1.5 4.4-2.2 9.5-3.3 5.1-1.1 6.7-1.8 8.6-2.4 1.8-.6 2.9-1 3.7-1.1.9-.1 1.4-.5 2.8.2s1.3 1.6 1.5 1.9c.2.2.7 1.3.7-.1 0-1.4-1.4-6.2-1.5-6.5-.1-.3-1.2-2.1-1.4-2.9-.2-.8-.3.6-1 1.4-.7.8-2.4 2.2-3.6 2.6-1.1.4-3.8 2-6.7 2.7-2.8.7-5.7 1.5-9.2 2.1-3.5.6-5.4.8-7 1-1.6.2-3.9.3-4-.2 0-.5.1-1.6.7-2.6s2.2-3.2 2.2-3.2 3.8-5.3 5.3-7.4c1.4-2.1 3.2-4.8 4.1-5.8.9-1 2.4-2.7 2.6-3 .2-.4.9-1.7 2.1-2.4 1.2-.7 1.4-1.1 2.4-1 1 .1-1.6-1.9-2.2-2.4-.6-.5-1.5-1.2-2.3-1.7-.8-.3-1.8-.7-1.8-.7z" class="st3"/><ellipse cx="48.2" cy="48.1" class="st3" rx="2.6" ry="2.3"/><ellipse cx="59.9" cy="47.7" class="st3" rx="2.6" ry="2.3"/><circle cx="44.8" cy="58.9" r="2.6" class="st3"/><ellipse cx="53.9" cy="65.6" class="st3" rx="2.6" ry="2.8"/><ellipse cx="63.4" cy="58.9" class="st3" rx="2.7" ry="2.8" transform="rotate(-11.847 63.406 58.91)"/><circle cx="53.9" cy="46.2" r=".8" class="st3"/><circle cx="44.7" cy="53" r=".8" class="st3"/><circle cx="63.1" cy="53" r=".8" class="st3"/><circle cx="59.6" cy="63.5" r=".8" class="st3"/><circle cx="48.2" cy="63.7" r=".8" class="st3"/><circle cx="53.7" cy="55.7" r="5.6" class="st3"/><ellipse cx="48.2" cy="47.8" class="st3" rx="2.6" ry="2"/><ellipse cx="44.8" cy="58.3" class="st3" rx="2.5" ry="2"/><ellipse cx="63.2" cy="58.3" class="st3" rx="2.7" ry="2"/><ellipse cx="54" cy="64.7" class="st3" rx="2.4" ry="1.9"/><ellipse cx="48" cy="47.4" class="st3" rx="1.3" ry="1.2"/><ellipse cx="59.3" cy="47" class="st3" rx="1.1" ry="1.2"/><circle cx="44.6" cy="57.8" r="1.5" class="st3"/><circle cx="53.5" cy="64.4" r="1.2" class="st3"/><ellipse cx="62.6" cy="57.8" class="st3" rx="1.4" ry="1.2"/><path d="M67.1 46.8c-.4-.8-2.1 1.9-2.7 1.7-.1-1 1.4-4.3 2.3-4.5 0 .8-.4 1.8-.5 2.7.1 0 .2.1.4 0m18.7 38.9c.4-1.4-1.3-3.2-2.5-3.7-.6-.3-1.5-.5-2.1-.1-.7.5-.7 1.5-.7 2.3 0 .7.1 1.4.5 2 .4.6 1.3 1.4 2 1.6.7.2 1.5.3 2.1-.2.5-.5.9-1.4.8-2.1M69.7 90c-.1-.9 1.1-1.3 1.8-1.3.9 0 1.7.6 2.3 1.3.6.6 1.1 1.5 1.3 2.3.1.5.3 2-.5 2.1-.1-.3.1-.6.1-.9 0-.3-.1-.7-.1-1-.1-.7-.5-1.4-1-2-.5-.6-1.3-1-2.1-1.1-.3 0-.7-.1-1 0-.3 0-.5.4-.8.6m-34.3-.5c-1.1.1-1.9 1.9-2 2.9-.1 1.3.1 2.1.5 3.3-.5-.6-.9-.9-1.1-1.7-.1-.6-.2-1.2 0-1.8.2-1 1.4-3.4 2.7-2.9.1.1 0 .2-.1.2" class="st3"/><path d="M22.7 87c-1-.2 0-2.6.3-3 .3-.5 1-1.2 1.6-1.4.5-.2 1.2-.1 1.6-.3-1.4-.9-2.8.5-3.5 1.6-.3.5-.7 1.1-.7 1.7 0 .3.4 2 .7 1.5m2.4 1.1c.9 0 1.6-1.3 2-2 .2-.5.3-.7.4-1.2 0-.4 0-.9.1-1.3.4.9.6 2.2.1 3-.3.5-2.3 2.8-2.8 1.4" class="st4"/><path d="M46.3 13.5c-.8-.4-1.6.9-1.6 1.6 0 1 0 1.7.8 2.3.8.6 1.4.6 2.4.5.9-.1 1.7-.3 2.2-1.2.3-.6.5-1.7.1-2.3-.9-1.3-1.1.6-1.4 1.1-.6.9-1.6 1.3-2.3.3-.2-.4-.4-.8-.5-1.2-.1-.6.2-.7.3-1.2-.1 0-.2-.1-.3 0m13.9.1c-1 .1-1.2 1.4-1.2 2.2 0 1 .7 1.7 1.6 2 .9.3 1.6.2 2.5-.1.9-.3 1-1.3 1.1-2.2 0-.4 0-.7-.1-1.1-.1-.3-.1-.4-.4-.5-.1-.1-.5-.1-.6.1 0 .1.3.4.3.5.1.2.1.4 0 .6 0 .4-.3 1-.6 1.2-.3.2-.8.3-1.1.3-.5 0-.8-.3-1.1-.8-.2-.3-.3-.8-.4-1.2-.1-.2-.1-.4-.1-.6.1-.2.4-.3.3-.6m13.2 3.9c-.4.3-1 .3-1.4.4-.6.2-.9.7-1.2 1.2-.4.9 0 2.3.8 2.8.8.6 2 .7 2.9.3.9-.4 1.8-1.6 1.4-2.7-.4.3-.7.9-1.2 1.2-.5.3-1.1.2-1.5-.2-.4-.4-.7-.9-.6-1.4.1-.6.7-1 .8-1.6m11.7 8c-.9 0-2.1-.2-2.9.4-.8.6-1.2 2-.8 2.9.4 1.1 1.6 1.5 2.7 1.4.9 0 2.5-.6 2.4-1.8-.5.4-.8.7-1.5.6-.6 0-1.1-.3-1.4-.8-.6-1.1.4-2.3 1.5-2.6M92.8 36c-.7-.2-1.9 0-2.7.1-1 .1-1.8.7-1.8 1.8 0 .9.7 2.1 1.7 2.2.7.1 2.1 0 2.7-.5-.4-.1-.8-.1-1.2-.4-.4-.3-.6-.8-.6-1.3.1-.4.3-.9.6-1.3.4-.4 1-.3 1.3-.6m4 12.6c-1.3-.4-4.7-.6-4.7 1.5 0 1 .5 1.9 1.4 2.4.7.3 2 .2 2.7-.2-.4-.3-.7-.4-1-.8-.2-.4-.4-.7-.4-1.2 0-.8 1-1.7 2-1.7m-5.3 14.5c.3.3.6.5.9.8l.9.9c.4.3 1.3.4 1.9.3-.8-.7-1.1-1.8-.3-2.6.3-.4.9-.7 1.4-.6.5.1.8.8 1.3.9.5-.8-1-1.7-1.5-2.1-.8-.5-1.3-.6-2.3-.5-.8.1-1.8.1-2 1-.1.4-.2.7-.1 1.1 0 .2.1 1.1-.3.9m1.9 12.6c0-.7 0-1.1-.4-1.7-.4-.6-.8-1.1-1.5-1.4-.5-.2-1.1-.3-1.7-.3-.5 0-1.3-.3-1.8.1-1 .8-.7 2.6 0 3.4.4.5 2.7 2.5 3.4 1.6-.2-.2-.5-.2-.8-.3-.3-.2-.6-.5-.7-.9-.2-.5-.1-1.3.2-1.8.3-.5 1-.9 1.7-.7.7.1 1.1 1.1 1.5 1.6m-8.1 12.2l.4-.5-.1.1c-.1.1-.2.2-.3.4z" class="st3"/><path fill="#cacaca" d="M85.9 85.2c-.1-.8-.6-1.9-1-2.5-.6-.8-1.6-1.1-2.5-1.3-1-.2-1.5-.4-2.2.4-1.5 1.6-.6 4.1.5 5.5.6.8 1.4 1.2 2.4 1.1.9 0 1.7-.6 2.3-1.2.4-.6.6-1.3.5-2zm-1.3 2.3c-.6.5-1.4.4-2.1.2-.7-.2-1.6-1-2-1.6-.3-.6-.5-1.3-.5-2 0-.8 0-1.8.8-2.3.6-.4 1.5-.2 2.1.1 1.2.5 2.9 2.3 2.5 3.7l.1-.1c0 .6-.4 1.6-.9 2zm-.1 0c-.6.5-1.4.4-2.1.2-.7-.2-1.6-1-2-1.6-.3-.6-.5-1.3-.5-2 0-.8 0-1.8.8-2.3.6-.4 1.5-.2 2.1.1 1.2.5 2.9 2.3 2.5 3.7l.1-.1c-.1.6-.4 1.6-.9 2z"/><path fill="none" stroke="#363636" d="M85.9 85.2c-.1-.8-.6-1.9-1-2.5-.6-.8-1.6-1.1-2.5-1.3-1-.2-1.5-.4-2.2.4-1.5 1.6-.6 4.1.5 5.5.6.8 1.4 1.2 2.4 1.1.9 0 1.7-.6 2.3-1.2.4-.6.6-1.3.5-2zm-1.3 2.3c-.6.5-1.4.4-2.1.2-.7-.2-1.6-1-2-1.6-.3-.6-.5-1.3-.5-2 0-.8 0-1.8.8-2.3.6-.4 1.5-.2 2.1.1 1.2.5 2.9 2.3 2.5 3.7l.1-.1c0 .6-.4 1.6-.9 2zm-.1 0c-.6.5-1.4.4-2.1.2-.7-.2-1.6-1-2-1.6-.3-.6-.5-1.3-.5-2 0-.8 0-1.8.8-2.3.6-.4 1.5-.2 2.1.1 1.2.5 2.9 2.3 2.5 3.7l.1-.1c-.1.6-.4 1.6-.9 2z"/><path d="M74.1 94.4c.6-.1.5-1 .5-1.4 0-.7-.3-1.1-.6-1.7-.6-1.2-1.6-2-3-2-.7 0-1.2.5-1.5 1.1-.3.6-.3 1-.1 1.7.2.6.4 1.2.7 1.7.3.4.7 1.4 1.3 1.3.1-.2-.2-.6-.3-.8-.1-.4-.1-.7-.1-1.1.1-.7.6-1.2 1.3-1.4.7-.2 1.2.1 1.7.7.4.5.3 1.1.3 1.8m-15.6-1.1c.3-.5 1.7-.6 2.1-.3.4.2.8.5 1.1.8.4.3.5.7.6 1.2.3 1.1.5 3.2-.6 4-.5.4-1.4.6-2 .4-.7-.3-1.2-1.1-1.2-1.8s-.1-1.3-.2-2v-1c0-.3 0-.7.1-1 .1-.2.2-.5.4-.5m-13.1 5.4c-.3 0-.4-.7-.5-.9-.1-.4-.2-.7-.2-1.1 0-.7.1-1.6.5-2.2.4-.7 1-1.4 1.8-1.6.8-.2 1.5.2 1.9.9.4.7.4 1.5.3 2.3 0 .7-.1 1.4-.3 2.1-.3.8-.6 1.3-1.4 1.4-.4.1-.6.1-1 0-.4-.2-.7-.6-.9-.9-.2.1-.2 0-.2 0m-12.6-4.5c0-1.6.1-3 1.5-4s3.1-.5 3.4 1.3c.2 1.4-.4 3-1.3 4-1.1 1.1-3.3.9-3.4-1M22.6 87c0-1.4.3-2.8 1.3-3.9s3.2-1.3 3.6.5c.3 1.3-.5 3-1.4 3.8-.5.5-1.2 1.1-1.9.9-.7-.2-1.4-.9-1.5-1.7M16 73.2c.7 0 1.5-.4 2.2-.4.7.1 1.8.2 1.9 1.1.1.8-2.1 4.5-3 3.9.7-.7 1.2-1.8.7-2.8-.3-.5-.7-.8-1.3-.8-.6 0-.9.4-1.4.6-.1-.4.4-1.6.9-1.6m-6-9.7c-.3-2.1 3.1-3.5 4.7-2.7 2.1 1 .2 4.8-1.8 4.5 1-.9.8-2.1-.2-2.8-.4-.3-1-.6-1.5-.3-.4.3-.8 1.5-1.2 1.3m.1-14.3c1.4-.5 3.4-1.2 4.7-.2.9.7 1 1.2.3 2.1-.5.6-1.5 1.3-2.3.9.2-.5.5-.5.5-1.1 0-.4 0-.9-.3-1.2-.7-.9-1.7-.7-2.7-.4m4-12.4c.2-.7 1.3-.9 1.9-1 .7-.2 1.4-.4 2.1-.2 1.4.5.6 3.2-.3 4-.3.3-1.7.8-2 .3-.2-.4.6-.5.7-.7.3-.3.4-.7.4-1.1.1-.8 0-1.6-.8-1.9-.5-.2-1.8-.4-1.9.3M23.1 25c1 .3 2.1-.7 2.9.3.6.8.6 2.2.1 3.1-.6 1-1.7 1.5-2.8 1.3-1.2-.2-1.7-1.3-1.5-2.5.4.6.8 1.2 1.5 1.3.7.2 1.5 0 1.8-.8.2-.5.1-1.3-.2-1.8-.2-.3-.5-.6-.9-.7-.3 0-.7.1-.9-.2m11.7-8c1.3 0 2.4-.2 3 1.2.6 1.3-.2 2.5-1.3 3.3-1 .7-2.4 1.1-3.3 0-.6-.8-1.3-2.8-.1-3.4.2.3 0 .6.1.9.1.4.3.7.6 1 .5.6 1.2.8 1.9.3 1.5-1 .5-3-1-3.4m49.7 70.6c-.6.5-1.4.4-2.1.2-.7-.2-1.6-1-2-1.6-.3-.6-.5-1.3-.5-2 0-.8 0-1.8.8-2.3.6-.4 1.5-.2 2.1.1 1.2.5 2.9 2.3 2.5 3.7l.1-.1c0 .6-.4 1.6-.9 2z" class="st3"/><ellipse cx="34.7" cy="18.9" class="st4" rx="1.6" ry="1.7"/><ellipse cx="34.8" cy="19" class="st3" rx="1" ry="1.1"/><ellipse cx="34.8" cy="18.9" class="st3" rx=".3" ry=".4"/><ellipse cx="47.7" cy="14.6" class="st4" rx="1.6" ry="1.7"/><ellipse cx="47.8" cy="14.7" class="st3" rx="1" ry="1.1"/><ellipse cx="47.8" cy="14.6" class="st3" rx=".3" ry=".4"/><ellipse cx="61.2" cy="14.7" class="st4" rx="1.6" ry="1.7"/><ellipse cx="61.2" cy="14.8" class="st3" rx="1" ry="1.1"/><ellipse cx="61.2" cy="14.7" class="st3" rx=".3" ry=".4"/><ellipse cx="73.8" cy="19" class="st4" rx="1.6" ry="1.7"/><ellipse cx="73.9" cy="19.1" class="st3" rx="1" ry="1.1"/><ellipse cx="73.9" cy="19" class="st3" rx=".3" ry=".4"/><ellipse cx="84.7" cy="27" class="st4" rx="1.6" ry="1.7"/><ellipse cx="84.8" cy="27.1" class="st3" rx="1" ry="1.1"/><ellipse cx="84.8" cy="27" class="st3" rx=".3" ry=".4"/><ellipse cx="92.7" cy="38" class="st4" rx="1.6" ry="1.7"/><ellipse cx="92.7" cy="38.1" class="st3" rx="1" ry="1.1"/><ellipse cx="92.7" cy="38" class="st3" rx=".3" ry=".4"/><ellipse cx="96.1" cy="50.5" class="st4" rx="1.6" ry="1.7"/><ellipse cx="96.2" cy="50.6" class="st3" rx="1" ry="1.1"/><ellipse cx="96.2" cy="50.5" class="st3" rx=".3" ry=".4"/><ellipse cx="95.8" cy="63.5" class="st4" rx="1.6" ry="1.7"/><ellipse cx="95.9" cy="63.6" class="st3" rx="1" ry="1.1"/><ellipse cx="95.9" cy="63.5" class="st3" rx=".3" ry=".4"/><ellipse cx="91.4" cy="75.3" class="st4" rx="1.6" ry="1.7"/><ellipse cx="91.4" cy="75.4" class="st3" rx="1" ry="1.1"/><ellipse cx="91.4" cy="75.3" class="st3" rx=".3" ry=".4"/><ellipse cx="83.5" cy="86.5" class="st4" rx="1.6" ry="1.7"/><ellipse cx="83.6" cy="86.6" class="st3" rx="1" ry="1.1"/><ellipse cx="83.6" cy="86.5" class="st3" rx=".3" ry=".4"/><ellipse cx="72.5" cy="93.6" class="st4" rx="1.6" ry="1.7"/><ellipse cx="72.6" cy="93.7" class="st3" rx="1" ry="1.1"/><ellipse cx="72.5" cy="93.6" class="st3" rx=".3" ry=".4"/><ellipse cx="60.7" cy="97.4" class="st4" rx="1.6" ry="1.7"/><ellipse cx="60.7" cy="97.5" class="st3" rx="1" ry="1.1"/><ellipse cx="60.7" cy="97.4" class="st3" rx=".3" ry=".4"/><ellipse cx="47.4" cy="97.5" class="st4" rx="1.6" ry="1.7"/><ellipse cx="47.4" cy="97.6" class="st3" rx="1" ry="1.1"/><ellipse cx="47.4" cy="97.5" class="st3" rx=".3" ry=".4"/><ellipse cx="35.5" cy="94" class="st4" rx="1.6" ry="1.7"/><ellipse cx="35.5" cy="94.1" class="st3" rx="1" ry="1.1"/><ellipse cx="35.5" cy="94" class="st3" rx=".3" ry=".4"/><ellipse cx="24.1" cy="86.5" class="st4" rx="1.6" ry="1.7"/><ellipse cx="24.2" cy="86.6" class="st3" rx="1" ry="1.1"/><ellipse cx="24.2" cy="86.5" class="st3" rx=".3" ry=".4"/><ellipse cx="16.3" cy="75.9" class="st4" rx="1.6" ry="1.7"/><ellipse cx="16.4" cy="76" class="st3" rx="1" ry="1.1"/><ellipse cx="16.4" cy="75.9" class="st3" rx=".3" ry=".4"/><ellipse cx="11.7" cy="63.7" class="st4" rx="1.6" ry="1.7"/><ellipse cx="11.8" cy="63.8" class="st3" rx="1" ry="1.1"/><ellipse cx="11.8" cy="63.7" class="st3" rx=".3" ry=".4"/><ellipse cx="11.7" cy="50.5" class="st4" rx="1.6" ry="1.7"/><ellipse cx="11.8" cy="50.6" class="st3" rx="1" ry="1.1"/><ellipse cx="11.8" cy="50.5" class="st3" rx=".3" ry=".4"/><ellipse cx="15.6" cy="37.9" class="st4" rx="1.6" ry="1.7"/><ellipse cx="15.7" cy="38" class="st3" rx="1" ry="1.1"/><ellipse cx="15.7" cy="37.9" class="st3" rx=".3" ry=".4"/><ellipse cx="23.3" cy="27.1" class="st4" rx="1.6" ry="1.7"/><ellipse cx="23.4" cy="27.2" class="st3" rx="1" ry="1.1"/><ellipse cx="23.3" cy="27.1" class="st3" rx=".3" ry=".4"/><g opacity=".63"><path fill="#cacaca" stroke="#363636" d="M28.6 22.7c1.6 1.4 2.9 3.3 4.3 4.9l4.5 5.7c-.9.2-2.4-1.8-3.1-2.3-.1.8 1.2 1.6 1.3 2.5-.8 0-2.1-1.9-2.6-2.6-.9-1.1-1.5-2.3-2.6-3.2-.9-.8-1.6-1.8-2.4-2.6-.5-.5-1.2-.9-.8-1.5.2-.4 1.4-.6 1.7-.7m19.4 17.8c.7.4.9 3.3 1.7 3.2 1-.1-.9-3.3-1.4-3.6-.3.2-.2.4 0 .8m8.7.8c.8.1.7-1.3 1.2-1.5.9-.2.8.7.7 1.4 0 .6-.2 1.5-.7 2-.6.6-1.7.4-1.2-.6M15.5 69.9c.3 0 3.9-1 7.3-2.3 3.4-1.3 7.7-2.9 9.2-3.6 1.6-.7 4.3-1.5 6.1-2.2 1.8-.8 3.3-1.1 4-1.1.7 0 4.6-2.6 6.2-1.8 1.6.9 4.1 2.3 4.7 2.4.7 0 4-1.1 4.2-1.2.2-.2 2.4-2 2-2.2-.3-.2 8.1 3 10.5 3.7 2.4.7 15.1 5.9 16.8 6.1 1.7.2 3.3.2 4 .8.6.6 2.1 1.5 2.1 1.5s-1.7-.3-8-1.9c-6.3-1.5-13.8-4-15.7-4.3-1.9-.3-3.8-.6-4.2-.6-.4 0-.4 1 0 2.2.4 1.2 4.4 8.2 4.8 8.7.3.5 3.9 5.8 3.9 5.8s.1 3.4-2.8-2.3c-2.9-5.6-3.6-7.9-4.8-9.1-1.3-1.2.5 1.7 0 1.8-.5.1-.7.7.3 2.6.7 1.3 1.9 2.9 2.5 3.7.3.2.4.4.4.4l1.1 1.4s-2.5-2.8-2.5-2.3.8 1.5.9 1.9c.1.4-.2 1.2-.2 1.2s-6.6-8.9-7.8-9.9c-1.2-1-1.9-2-2.6-1.4-.7.5-1.5 3.9-1.6 5.3-.1 1.4-.2 7.2 0 8.1.2.9-.7 2-.7 1.2s-.6-7.6-.9-6.8c-.3.8-.1 4 0 5.1.1 1-.1-.1-.1-1s-.6-3.5-.5-4c0-.5-1.2-1.7-1-.4.2 1.3-.2 5.1 0 6.2.2 1.1-.4 3.2-.5 1.8-.1-1.4-1.1-8.2-.9-9.3.1-1.1-.5-5.2-1.3-5.6-.9-.4-.6-.4-2.4 1.3-1.7 1.7-4.7 7.3-5.7 7.8s-3.6 2.3-2.7 1.3c1-1 0-2.3 0-1.8 0 .4-.9.7 0-.4s3.3-4.2 3.6-4.8c.2-.6 1.8-3.2 2.4-3.8.6-.6-1.4 1-2.4.8-1.1-.2.9-3 .8-3.9-.1-.9-.3-1.4-.8-1.3s-4.1 0-6.8 1.2c-2.8 1.1-6.5 1.7-7.7 2.3-1.2.6-7 2.4-7.8 2.7-.8.3-2.6.9-3.3 1.2-.8 0-2.1-1.2-2.1-1.2zm-1-24.6c1.7-.1 3.3 1.1 4.9 1.4 1.8.3 3.4.9 5.1 1.6.9.3 1.9.5 2.7.8.9.3 2 .3 2.9.6.9.2 1.7.5 2.6.6.7.1 2.1-.1 2.3.8-1.6 1-3.9.3-5.6-.1-2.1-.4-4-1.4-6-2-1.8-.5-3.7-.4-5.5-1.1-1-.4-1.9-.7-2.9-1.2-.4-.2-1.2-.1-.9-.8.2-.6 1.3-.5 1.8-.6" opacity=".61"/></g><path fill="#cacaca" stroke="#363636" d="M30.2 22.7s2.1 4.1 4.6 7.4c.5.7 1.2 1.5 1.8 2.3 2.3 3 4.9 6.2 4.9 6.2l2.1 3-13.4-18.9zm23.9-6.2s-1 7.5-.6 10.2c.4 2.8 0 5.4 0 5.4s-1-5.3-.6-9 1.2-6.6 1.2-6.6zm10.3 25.1s.6-.9 1.6-2.3c1.2-1.8 3-4.2 4.4-6.1 2.4-3.2 4.8-5.8 4.8-5.8l1.4-2.2.6-1.6-3.9 5.1-8.9 12.9zm-49.3 2.3s1.3.3 7.2 2.3c5.9 1.9 9.8 2.6 9.8 2.6l3 1-11-3.6-9-2.3zm54.6 5.9s7.6-1.2 10.4-2.1c2.8-.9 8.3-2.5 8.3-2.5l2.7-1.3h-.7l-7.6 2.5-13.1 3.4zm.9 10.8s5.6 1.8 8.8 3.3c3.2 1.5 7.9 3.1 7.9 3.1l3 1h2l-11.6-4.2-10.1-3.2zm6.6 26.3s-4.7-5.5-6.7-8c-.8-1-1.8-2.6-2.8-4-1.3-2.1-2.4-4.1-2.4-4.1L63 67.5l10.7 14 3.5 5.4zM53.4 73.6s-.1 18.8 0 20.1c.1 1.2 0 2.9 0 2.9s1.4 1.7.7-8.2c-.7-10.1-.7-14.8-.7-14.8zm-19.3 8.6c1.9-2.8 4.1-5.7 4.1-5.7l3.3-3.7 1.6-3.3.5-2-6.5 9.7s-4.9 7.8-3 5zM15.3 68.4s6.9-2.5 10.1-3.1c3.2-.6 6.7-2 6.7-2l4-2.9 2.6-.3-8.5 2.9-10.1 3.5-4.8 1.9z" opacity=".55"/></g></switch></svg>
