<svg xmlns="http://www.w3.org/2000/svg" version="1.0" viewBox="0 130 219.7 130"><switch><g><path fill="#B2B2B2" d="M47.3 133.9s-8.7 10.7-15 16.2c-6.3 5.5-12.3 9.7-15 14.7s-6 12.6 1.1 19.2 15 5.8 17.6 6-2.1 1.6 2.9 3.2 11 3.4 17.6 2.1 9.6-2.4 13-6.8c5.4-6.1 9.3-21 3.3-33.4-5.2-14.1-18.2-21.5-25.5-21.2z"/><circle cx="38.9" cy="168.9" r="36.9" fill="none" stroke="#DAA827" stroke-width="3"/><path fill="none" stroke="#FFF" stroke-width="3" d="M26.9 172.4c8.5-8 19.8-13.1 31.4-14.2m-28.9 17.7c10.3-5.4 22.8-6.7 34-3.3m-30.8 5.9c4.6-1.2 9.4-.7 14.1-.2 3.1.3 6.3.7 8.8 2.6"/><path fill="none" stroke="#676767" stroke-miterlimit="10" d="M35.8 190.8c4.6.9 9.4 1.3 14.1.8 3.1-.3 6.3-1 8.8-2.8.1-.1.3-.3.2-.4-.1-.2-.4.1-.2.1m-37.2-21.8c.5-.7 1.1-1.4 1.9-1.8m1-3.1c.5-.7 1-1.1 1.6-1.3m4-.3c.9-.3 1.7-.5 2.6-.8m-2.6-2.1c.5-.7 1.2-1.1 1.8-1.3m11.5-6.7c-.9.4-1.7 1.1-2.3 2m-3.4-1.1c-.9.4-1.7.9-2.3 1.6m2.3 2.3c-.8.3-1.6.9-2.1 1.5m-7.1 2.5c-.9.2-1.7.7-2.2 1.4"/><path fill="#F69A6F" stroke="#F06738" d="M20.3 177.7s1.9 2.6 0 4.5-3.4 1.3-7.1-2.2c-3.5-3.4-2.7-6.6.9-8.5s6.8-2.2 8.3-.6c1.4 1.6 2.1 5.6 1 5.9-1.1.1-2.4-.8-3.1.9z"/><path fill="#D5794A" d="M12.9 177.9c-1.3-1.1-1.2-3.4 0-4.7 1.2-1.3 3.1-1.7 4.8-1.6.3 0 .7.1 1 .3.3.2.4.6.2.9-1.1-.4-2.3-.7-3.4-.5-1.1.3-2 1.2-2.4 2.2-.4 1.1-.4 2.2-.2 3.4zm8.1-1.7c-.8-.1-1.6.5-1.7 1.3-.2-.3-.5-.6-.7-.9s-.3-.8 0-1.1c.2-.1.4-.1.6-.2.8-.1 1.8.1 2 .8"/><path fill="none" stroke="#676767" stroke-miterlimit="10" d="M31.7 154.3c.5-.2 1.1-.4 1.6-.6m1.6 5.8c.5-.2.9-.4 1.4-.6m-8 4.8c.5-.4 1-.7 1.6-.8m-4.6-.2c.6-.3 1.2-.5 1.8-.8m-2.6 4.6l.6-.6m14.4-11.3c.2-.2.5-.3.8-.2m-3.8-1.6c.5-.1 1.1-.2 1.6-.3m-4.8 2.9c.4-.1.8-.2 1.2-.4"/><path fill="#949394" stroke="#676767" stroke-width=".25" d="M115.3 199c1.1-1.5.9-6.8 3.9-6.2 3.2.6 2.4 5.8 2.1 7.9"/><path fill="#F69668" stroke="#976732" stroke-width=".25" d="M148.6 244.3c-1.3-.1-3.1.5-3.5 1.8.5 0 1.1-.1 1.8-.2-.6.3-1.6 1.3-1.6 2 .1 1.8 1.2 0 1.6-.2 1.8-.9 3.9-.7 5.8-1.2m18.8-5.4c8.9 0 17.5 1.4 26.5 1.1 4.6-.2 9.2-.9 13.6-2 1.6-.4 7.4-3.1 8.1-1.6-7 4.4-14.3 6.8-22.7 7.8-9 1-18-.5-26.9-.4-1.7 0-3.3.1-5 .4m-8.8 1c-.9.6-2.5.3-3.5 1-3.5 2.4-.4 1.7 1.1.8-.8.4-2.7 1.4-2.7 2.3 1.1.1 2.4-1 3.4-1.3-.5.4-1.1 1.4-1.1 2.1 1 0 3.2-1.7 4.2-2.2 1.3-.7 3.1-1.7 3.6-3.3"/><path fill="#949394" stroke="#676767" stroke-width=".25" d="M174 239c-.1 1.4 2.8 2 3.7 2.4-.2 0-.6.2-.8.3.2 0 .3.1.4.1-.5.3-1 .6-1.5.8.2.1.5.2.8.2-.2.1-.4.5-.5.6.2.1.4.2.7.3-.5.3-1 .7-1.4 1 .4 0 .8.2 1.1.5-.3 0-.5.2-.8.3.1 0 .3.1.5.1-1.3.8-3.3.7-4.8.8-1.3.1-4 .5-4.9-.7"/><path fill="#F69668" stroke="#976732" stroke-width=".25" d="M129.8 240.1c-.2 1.2-.1 4.8.1 5.3l-.2.6c-.6.5-6.2 0-4.6 2.7.4-.6.9-1.4 1.8-1.4-.3.9-2.6 2.7-.6 3.3.1-3.7 5.3-1.9 7-.9.1-1.2-1.4-1.6-.9-2.7l1.8-5.1"/><path fill="#949394" stroke="#676767" stroke-width=".25" d="M139.1 237.3s10.8 12.1 20.2 10.8 9.3-2.7 9.3-2.7c6.7-3.9 9.8-12.1 7.6-19.7-1.2-4.3-3.9-7.7-6.1-11.4-1.9-3.2-4.7-6.7-7.8-8.9-6.2-4.3-13.5-3.5-19.7.2-3.2 1.9-4.7.7-7.7-.9-2.4-1.3-3.9-2.9-5.8-4.6l-5.6-2.1c-4.1.1-6.4.6-10.1.8-3.6.2-5.3 2.1-8.5 3.2-1.9.7-5.6.9-6.8 2.8-1.2 1.9 1.7 4.9 2.9 6 .3.3 2.1 1.2 2.4 1.3.3 1.9 8.5 2.2 10.7 2.8l2.7.1c2.2.2 4.2 3.7 5.8 5.5 1.8 2.1 4 4.1 5.1 6.6 1.1 2.7 1.5 6.1 1.6 9.1.1 1.5.4 2.5.2 4l-.1.4.4.7.3.9c.4-.1.7-.6 1-.9.2.4.2.8.1 1.2.1-.1.5-.2.6-.3v.3c.7-.1.9-.1 1.5-.6.2.5-.4 1 .3 1 .5 0 .9-.6 1.2-.9.5-.7 1-1.5 1.7-2 1.4-1.1 3.6-2.1 4.2-3.9"/><path fill="#F69668" stroke="#976732" stroke-width=".25" d="M138.1 246.9l-.3 2.2c-.8 1.5-4 1.3-3.6 3.5.8-.7 1.5-1.5 2.7-1.4-1.1.8-2.6 2.8-1.8 4 .6-1 1.4-2.7 2.7-2.9.1 1.5-.7 2.5-.9 3.8 1.5-.5 2-2.9 2.9-4 .6.5.8 1.3 1.2 1.8.4-1.8.8-6.9.8-6.9"/><path fill="#949394" stroke="#676767" stroke-width=".25" d="M134.5 232.6c4.6 5.2 3.1 6.4 3.6 12.7l-.3 2.2.7-.4s0 .3.1.5.7-.2.7-.2.7-.3.9-.5c.1-.2.1.6.2.8.1.2.7-.2.7-.2s.3-.1.6.1c.3.1.3-1.1.3-1.1 1-4.2 2.7-7.5 6.3-10.1-.1-.3 0-.7-.1-1 .4 0 .9-.4 1.3-.4-.1-1.6-1-3.3-.8-4.9"/><linearGradient id="a" x1="307.482" x2="309.587" y1="164.224" y2="165.733" gradientTransform="matrix(3.3395 0 0 -3.3395 -905.377 747.923)" gradientUnits="userSpaceOnUse"><stop offset="0" stop-color="#f69668"/><stop offset="1" stop-color="#facbca"/></linearGradient><path fill="url(#a)" stroke="#996766" stroke-width=".25" d="M118.7 199.6c2-1.2 3.3-3 3.9-5.2.3-1.3 1.2-1.8 2.5-2.1 1.2-.3 2.3 1 2.8 2 1.5 2.7.6 4.7 0 5.5-1.2 1.6-2.8 1.7-3.8 1.8h-2.8"/><path fill="#949394" stroke="#676767" stroke-width=".25" d="M119.8 200.9c1.8.1 2.7-.9 3.1-2.5.2-1.1.7-3.7-.3-4.4-.6 2.2-1.9 4.7-4.2 5.7"/><path fill="#343433" d="M110.6 203.4c1.1-.4 1.5-1.6 2.7-1.7 1.4-.2 2.4 1.1 2.7 2.2-.9.6-1.4 1.4-2.7 1.3-.9-.1-1.7-.8-2.3-1.4"/><path fill="#F69668" stroke="#343433" stroke-width=".25" d="M99.1 206.4c.3 1.5-1.6.3-1.8-.6-.3-1.2.5-2.1 1.7-1.6"/><path fill="#FFF" d="M113 202.3c.8-.2 1.1-.4 1.8.2.3.3.4.5.4.8s-.2.7-.5.5c-.1-.7-1-1.8-1.7-1.5" opacity=".22"/><path fill="#FFF" d="M114.3 202.2c.4.2 1.3 1.1.6 1.4-.3-.3-.5-1.2-.9-1.4" opacity=".22"/><path fill="#949394" stroke="#676767" stroke-width=".25" d="M103.3 211.9c.5.3 1.5.2 2 .2"/><path fill="#F69668" d="M98.8 204.3c1-.4 1.2 1.7.2 2"/><path fill="none" stroke="#CAC9C9" stroke-width=".25" d="M101.1 207.8s11.2-5.3 18.9-3.4m-18.1 3.9s12.3-1.6 19.1 2.6m-19-2s7.5-.2 11.2 2.7m.6-10.9s3.9-4.7 7.7-5.4m-7.4 5.6s2.6-2.6 4.9-2.8"/><path fill="#949394" stroke="#343433" stroke-width=".25" d="M121.4 202.1c.3-.4.9-.6 1.5-.8-.1-.1-.4-.2-.6-.2.3-.1.6-.2.6-.5-.2.1-.4.1-.6.1.2-.1.4-.4.5-.7-.4.3-.9.6-1.3.7 0 0-1.4.2-1.5.4"/><path fill="#676768" d="M141.3 206.4c.7-.3 1.2-.8 1.9-.8-.4.2-.7.4-.9.7.8-.5 1.9-.5 2.6-.9-.4.1-.7.4-.9.8.6-.3 1.2-.5 1.9-.4.1 0-.3-.1-.4-.1.6-.5 1.5-.7 2.1-1.2-.3-.2-.8-.4-1.2-.3.8-.8 1.9-.9 2.9-1.2-.1.1-.2.3-.4.5 1.5-.3 2.9 0 4.4-.1-.5 0-1.1.3-1.5.7 1.2.1 2.1.2 3.3.7-.9-.1-1.9.4-2.5.9 1.3 0 2.4.1 3.7.7.7.3 1.5.8 2 1.2.3.3.4.7.9.8-.7 0-1.6-.7-2.3-.9-.9-.2-1.7-.4-2.6-.3.6.4 1.5.8 1.7 1.6-.5-.2-1.2-.3-1.6 0 .8.6 1.8 1.1 2 2.3-.6-.3-.9-.7-1.6-.9-.6-.1-1.2-.1-1.8-.1.2-.2.3-.5.3-.7-.5-.2-1-.1-1.5-.1.3-.6.9-1.1 1.2-1.7-1.3-.1-2.4-.1-3.5.8.1-.8.5-1.3.9-1.9-1.9-.4-3 1.2-4.6 2 .1-.4.4-.9.3-1.4-.7.1-1.2.8-1.8 1.1-.7.2-1.4.3-2.1.5.5-.1 1-.5 1.2-1-1.5.3-3.3.7-4.8.1.6 0 1.1-.1 1.7-.4-2.1 0-5.5-.6-6.5-2.7 1.8 1.2 5 3 7.5 1.7m-13.5-6.2c.5.3 1.1.8 1.5 1.2-.4.1-.7.3-.9.5 1 .6 1.8 1.8 2.6 2.7.9 1.1 1.4 1.7 2.7 2.3-.6-.1-1.2-.1-1.8 0 .5.6 1.7 1.2 2.5 1.1-2.3 2-5.1-2.8-7.5-1.7.8-.4 1.4-.4 2.2-.1-.1-.2-.4-.7-.5-1 .5-.2 1.1-.1 1.6.2.1-.8-1.2-1.6-1.9-1.7-.8-.2-1.6.1-2.4.2.3-.4.6-.8 1.1-.9-.4-.5-1-.8-1.4-1.4.7-.1 1.7-.5 2-1.2m-7.8 15.6c.4.3.7.7 1.2.9-.1-.3-.2-.7-.3-1.1.6.9 2.4 1.3 2.5 2.5.4-.5.2-1.2.1-1.7.8.8.9 2.2 1.4 3 1.2-1.8 0-3.4-1-5 .4 0 .8.1 1.2.1-.9-1.1-1.4-1.4-2.8-1.7 1.8-.9 2.8 1.5 4.5 1.2-.4 0-.7 0-1.1.2.4.6 1.1.7 1.8.7-.8 1.2-1.9.5-.7 2 .5.6.8 1.3 1.5 1.7.4.3 1.1.3 1.4.6-1.3.4-2.4.1-3.5-.4 1.2 1.2 1 3.2 2.7 3.9-1 .2-1.8-.4-2.6-.6.2.6 1.1 1.1 1.5 1.6.5.6 1 1.4 1.3 2.2.5 1.4.4 2.8.2 4.2-.7-.9-1.1-2.6-1.6-3.7-.6-1.4-1.2-2.9-2.1-4.1-.8-1.1-2.2-1.9-3.2-2.8-.4-.4-.9-.7-1.2-1.1-.4-.5-.5-1.2-1-1.7m14.5 15.7c-.3.6-1.4 1.7-2 2.2.2-.1.6-.1.8-.2-.1.9-.4 2-.5 3 .5-.5 1.1-1.1 1.9-1.1-1 1.6-.9 3.7-.6 5.5.2-1.1 1.1-1.8 1.9-2.5 1-.8 1.7-.9 1.6-2.1-.3-2.4-1.6-3.8-3.1-4.8" opacity=".23"/><path fill="none" stroke="#976732" stroke-width=".25" d="M179.8 246.1c.6-.7.5-1.7.5-2.6m1.6-1.9c1.5.2.8 4 .2 4.8m1.4.1c1-.8 1.1-3.3.6-4.3m6.5 0c.3 1.5.3 2.8-.5 4.1m4.3-4.1c.6 1 .9 2.8.3 3.6m3 .5c.7-.6.3-2.3-.1-3m-5.6-1c.3.7.3 2 .1 2.7m11.3-3.2c.7.6.3 1.4.5 2.2m2.1.6c.3-.7-.1-1.6-.3-2.3m5 .8c.2-.7 0-1.5-.5-2.1m.9-.7c.5.2.7 1 .7 1.6m-9.8.1c.9.6.5 2 .6 2.9" opacity=".55"/><path fill="#FFCC07" stroke="#DAA827" stroke-width="3" d="M74 184.4l30.3 21.1"/></g></switch></svg>
