<svg xmlns="http://www.w3.org/2000/svg" version="1.0" viewBox="0 130 220.2 88.5"><switch><g><g fill="#CAC9C9" stroke="#948E7B"><path d="M69.8 148.4c-5.9.6-12.2 5.9-17.8 8.5-6.6 3.2-13 6.9-19.4 10.6-4 2.4-33.7 17.1-32.6 20.5.5 1.9 7 2.6 8.7 2.5 2.7-.1 5.6-1.5 8.1-2.7 5.6-2.6 10.2-7 15.7-10 11.7-6.3 23.3-13.5 33.9-21.7 1.3-1 2.5-2.3 3.8-3.2"/><path d="M74.8 148.4c-5.8 1.7-11 7.8-16 11.5-5.9 4.3-11.6 9-17.3 13.7-3.6 3.1-30.3 22.6-28.6 25.7.9 1.7 7.4 1.3 9.1.9 2.7-.6 5.3-2.4 7.5-4.1 5.1-3.6 8.8-8.6 13.7-12.5 10.5-8.1 20.7-17.2 29.6-27 1.1-1.2 2.1-2.6 3.2-3.7"/><path d="M80.4 150.6c-5.7 2.2-10.4 8.9-15 12.9-5.6 4.9-10.9 10-16.1 15.3-3.4 3.4-28.5 25.3-26.5 28.3 1.1 1.6 7.6.6 9.3.1 2.6-.8 5.1-2.9 7.2-4.8 4.8-4 8-9.4 12.7-13.7 9.8-9.1 19.2-19.1 27.3-29.8 1-1.3 1.9-2.8 2.9-4"/><path d="M92.6 153.6c-2.4 2.2-14.3 19.9-15.8 22.8-1.5 2.9-2.8 6-4.4 8.9-3.2 6-8.4 10.5-13.3 15.2-4 3.8-8.7 8.4-14.2 10-2.6.8-7.4 1-7.5-2.3 0-1.9 3.9-6.2 5-7.7 4.2-6.1 9.1-12.2 13.7-17.9 4.9-6.1 25.3-27.2 28.6-33.8"/><path d="M100.1 154.7c-2.2 2.3-10.1 19.9-11.4 22.9-1.3 3-2.4 6.2-3.7 9.2-2.7 6.2-7.7 11.1-12.2 16.1-3.7 4-8.1 9-13.5 11-2.5.9-7.3 1.5-7.6-1.8-.2-1.8 3.5-6.5 4.4-8 3.8-6.5 8.3-12.8 12.5-18.8 4.5-6.4 18.9-26.4 21.7-33.3"/><path d="M113.7 157.7c-1.3 2.9-8.5 11.4-8.6 14.7-.2 3.3-.1 6.7-.3 9.9-.4 6.8-3.4 12.9-5.9 19.1-2.1 5.1-4.5 11.3-8.9 14.8-2.1 1.8-6.3 3.8-7.7.9-.8-1.7 1-7.2 1.4-9.1 1.3-7.2 3.3-14.8 5.1-21.7 2-7.5 8.8-24.3 9.1-31.6"/><path d="M86.6 169c-2.3 6.7-4.2 12.6-7.2 19.1-2.8 6.1-5.8 11.8-8.7 17.8-2.7 5.4-3 14.3 4.5 7.7 4.8-4.2 7.4-9.3 10-14.8 2.2-4.6 3.2-8.3 4.3-13.2 1.1-4.8 3.5-10.1 3.2-15.2m9 7.6c0 9.8-2.9 19.5-4.4 29.2-.4 2.4-3 9.4 2.4 9.3 3.6-.1 4.3-7 4.8-9.6 0 2.6-.1 5.4.1 7.9 8.3 4.7 8.3-9.5 8.3-14.3 0-3.9-.4-7.4-.8-11.3-.3-3.5 1.1-19.2 0-22.5"/><path d="M110.1 180.4c1 5 2.3 34.8 8.4 33.9 9.9-1.6 3.4-54.7-.1-59.5"/><path d="M117.7 168.7c1 5 4.5 46.7 10.6 45.7 9.9-1.6.1-44.4-3.5-49.2"/><path d="M124.8 165.2c1 5 6.1 49 12.2 48.1 9.9-1.6 1.7-39.1-1.9-43.8"/><path d="M137 178.6c1 5 2.3 34.8 8.4 33.9 9.9-1.6 1.5-29.9-2.1-34.6"/><path d="M145.6 170.2c-1.7 5.2 1.6 22.1 2.4 27.1.8 4.8 4.4 11.3 9.5 12.8 7.1 2.3 1.5-7.9.4-11.6-1.7-5.9-2.4-25.1-3.6-31"/><path d="M154.7 169.4c-1.7 5.2 2 22.1 2.8 27.1.8 4.8 4.4 11.3 9.5 12.8 7.1 2.3 1.5-7.9.4-11.6-1.7-5.9-5.1-25.4-6.3-31.4"/><path d="M158.7 169c-1.2 5.3 7.7 22.7 8.9 27.7 1.2 4.7 5.4 10.9 10.6 12 7.3 1.7.8-8-.6-11.6-2.2-5.7-6.4-22.1-8.2-28"/><path d="M165 164.8c-.5 5.4 9.4 25.8 11.3 30.6 1.8 4.5 6.8 10.1 12.1 10.6 7.5.7-.3-8-2.2-11.5-3-5.4-6-25.6-8.5-31.2"/><path d="M179 176.6c-.5 5.4 3.1 11.6 5 16.3 1.8 4.5 6.8 10.1 12.1 10.6 7.5.7-.3-8-2.2-11.5-3-5.4-5.7-10.9-8.2-16.5"/><path d="M184.1 171.6c-.5 5.4 3 11.6 5 16.3 1.8 4.5 6.8 10.1 12.1 10.6 7.5.7-.3-8-2.2-11.5-3-5.4-5.7-10.9-8.2-16.5"/><path d="M189.7 165c-.5 5.4 3.1 11.6 5 16.3 1.8 4.5 6.8 10.1 12.1 10.6 7.5.7-.3-8-2.2-11.5-3-5.4-5.7-10.9-8.2-16.5"/></g><g fill="#949394"><path d="M46.5 164.2S12.8 184.5 11 184.9c-1.8.5-.7 1-.3.9.5-.1 22.4-13.1 22.4-13.1l15.1-8.5h-1.7zM97 176.3s-10.4 37.3-11.4 38.9c-.9 1.6.1 1.2.4.8.3-.4 7.1-24.5 7.1-24.5l5-16.3-1.1 1.1zm-36.3-14.2s-34.6 31.1-36.5 32.1c-1.9 1-.6 1.3-.1 1.1.5-.2 23-20.3 23-20.3l15.5-13.3-1.9.4zm4.5 6.1s-32.3 33.4-34.1 34.5c-1.9 1.1-.5 1.3 0 1.1.5-.3 21.5-21.7 21.5-21.7l14.6-14.3-2 .4zm9.5-1.4S48 204.6 46.3 205.9s-.3 1.4.2 1c.5-.3 17.9-24.7 17.9-24.7L76.6 166l-1.9.8zm10.8-.1S62 206.4 60.4 207.9c-1.6 1.5-.2 1.4.2 1 .5-.3 15.8-25.9 15.8-25.9l10.8-17.2-1.7.9zm7-2.3s-16.9 42.8-18.2 44.5c-1.3 1.8 0 1.4.4 1 .4-.4 11.4-28.1 11.4-28.1l7.9-18.7-1.5 1.3zm15.4 0s-7 45.3-7.9 47.3c-.9 2 .3 1.4.6.9.3-.5 4.9-29.9 4.9-29.9l3.6-19.9-1.2 1.6zm1.5-1.1s-.7 45.9-1.3 48c-.6 2.1.5 1.3.7.8s.8-30.1.8-30.1l.9-20.2-1.1 1.5zm4.2-1.6s5.2 45.6 4.9 47.7c-.3 2.2.7 1.2.8.7.1-.6-3.1-30-3.1-30l-1.8-20.2-.8 1.8zm7.1.8s7.3 45.3 7.1 47.5c-.2 2.2.7 1.2.8.7.1-.6-4.5-29.9-4.5-29.9l-2.7-20.1-.7 1.8zm8.8-1.3s7.3 45.3 7.1 47.5c-.2 2.2.7 1.2.8.7.1-.6-4.5-29.9-4.5-29.9l-2.7-20.1-.7 1.8zm9-2s7.3 45.3 7.1 47.5c-.2 2.2.7 1.2.8.7.1-.6-4.5-29.9-4.5-29.9l-2.7-20.1-.7 1.8zm8.4-2.3s7.3 45.3 7.1 47.5c-.2 2.2.7 1.2.8.7.1-.6-4.5-29.9-4.5-29.9l-2.7-20.1-.7 1.8zm10-2.1s7.3 45.3 7.1 47.5c-.2 2.2.7 1.2.8.7.1-.6-4.5-29.9-4.5-29.9l-2.7-20.1-.7 1.8z"/><path d="M156 158.2s19.1 41.9 19.4 44c.3 2.2 1 1 1 .4-.1-.6-12.2-27.7-12.2-27.7l-7.9-18.7-.3 2zm6.7-3.3s19.1 41.9 19.4 44c.3 2.2 1 1 1 .4-.1-.6-12.2-27.7-12.2-27.7l-7.9-18.7-.3 2zm6.7-3s19.1 41.9 19.4 44c.3 2.2 1 1 1 .4-.1-.6-12.2-27.7-12.2-27.7l-7.9-18.7-.3 2zm6-4.4s19.1 41.9 19.4 44c.3 2.2 1 1 1 .4-.1-.6-12.2-27.7-12.2-27.7l-7.9-18.7-.3 2zm4.8-3.4s23 40 23.6 42.1c.5 2.1 1.1.9 1 .3-.1-.6-14.8-26.5-14.8-26.5l-9.7-17.8v1.9z"/></g><g fill="#949394" stroke="#676768"><path d="M68.5 146.8c-4.8 3.4-9.9 6.5-14.7 9.8-3.1 2.2-12.7 9.2-4.8 9.2 10.2.1 18.9-8.5 25.5-15.2"/><path d="M74.5 149.6c-4 4.4-8.2 8.3-12.2 12.6-2.5 2.7-10.4 11.6-2.6 10 10-2.1 16.6-12.2 21.6-20.2"/><path d="M81.7 152.4c-3.3 4.9-6.9 9.4-10.2 14.3-2.1 3-8.5 13-1.1 10.3 9.5-3.4 14.5-14.5 18.4-23"/><path d="M89.3 153.4c-2.4 5.4-5.3 10.4-7.8 15.7-1.6 3.3-6.4 14.1.5 10.4 8.9-4.9 12-16.5 14.4-25.4"/><path d="M98.6 152.3c-2.4 5.4-5.1 12.8-7.5 18.1-1.6 3.3-6.4 14.1.5 10.4 8.9-4.9 13.8-18.7 16.1-27.7"/><path d="M108.5 155.1c-2.4 5.4-5.3 10.4-7.8 15.7-1.6 3.3-6.4 14.1.5 10.4 8.9-4.9 12-16.5 14.4-25.4"/><path d="M115.9 157.3c-1.9 5.6-4.2 10.9-6.1 16.3-1.2 3.5-4.8 14.7 1.6 10.2 8.3-5.8 10.2-17.6 11.6-26.8"/><path d="M121.2 157.2c-.1 5.9-.8 11.5-.9 17.3-.1 3.7-.2 15.5 4.6 9.3 6.2-7.8 4.5-19.8 3.1-29"/><path d="M127.4 157c.4 5.6 1.4 11.2 2 16.7.3 3.4 1 10.9 5.9 10.8 2.3-4.5 2.6-9.8 1.6-14.7-.9-4.6-4.5-9.9-3.9-14.8"/><path d="M135.2 156.8c.4 5.6 1.4 11.2 2 16.7.3 3.4 1 10.9 5.9 10.8 2.3-4.5 2.6-9.8 1.6-14.7-.9-4.6-4.5-9.9-3.9-14.8"/><path d="M142.8 156c.4 5.6 1.4 11.2 2 16.7.3 3.4 1 10.9 5.9 10.8 2.3-4.5 2.6-9.8 1.6-14.7-.9-4.6-4.5-9.9-3.9-14.8"/><path d="M147.8 158.8c-.5 5.1 2.5 11 4.5 15.6 1.2 2.8 3.1 10.6 6.5 6.6 2.7-3.2-1-9.1-1.9-12.4-1.1-3.9-1.9-8.1-3.2-12"/><path d="M154.5 158.8c-.5 5.1 2.5 11 4.5 15.6 1.2 2.8 3.1 10.6 6.5 6.6 2.7-3.2-1-9.1-1.9-12.4-1.1-3.9-1.9-8.1-3.2-12"/><path d="M161.7 158.5c-.5 5.1 2.5 11 4.5 15.6 1.2 2.8 3.1 10.6 6.5 6.6 2.7-3.2-1-9.1-1.9-12.4-1.1-3.9-1.9-8.1-3.2-12"/><path d="M168 157.4c-.5 5.1 2.5 11 4.5 15.6 1.2 2.8 3.1 10.6 6.5 6.6 2.7-3.2-1-9.1-1.9-12.4-1.1-3.9-1.9-8.1-3.2-12"/><path d="M174.5 157c-.5 5.1 2.5 11 4.5 15.6 1.2 2.8 3.1 10.6 6.5 6.6 2.7-3.2-1-9.1-1.9-12.4-1.1-3.9-1.9-8.1-3.2-12"/></g><path fill="#676768" stroke="#343433" d="M188.5 168.7c-2.6-3.3-.4-2.3 2.1.9.9 1.2 4.8 5.8 5 6.4 1.9 7.6-11.2-1-13.3-3 1.4 3.1-2.9 3.9-5 3.1-1.6-.6-5.5-4-6.3-5.4 2.8 8.6-9.3 5.9-13.1 3.1 2.9 3.5-1.9 4-4.3 3.7-2.9-.3-4.8-2.1-7.5-2.6 2.6 8-10.9 3.8-12.4-1.1-3.2 7.5-7.6-2-8.6-4.7-1.7 4.4-6 5.5-8.7 1-2-3.3-1.6-9.3-.9-13-.8.9-2.8 3.2-3.9 3.4-2.5.6-2.2-1.7-3.6-1.8-2.8-.1-7.4 5.5-8.8-.2-2.9.8-7.5.9-8.7-2.7-5.6 4.3-11.5 1.3-12.3-5.5-2 1.3-4.3 2.3-6.6 1.5-.1-1.5.6-2.8 1.8-3.8-2 .7-4.5 2.5-6.5 1.5 1.7-3 6.3-4.7 9.1-6.9 0 0 20.7.8 29.5-.8 8.7-1.6 37.8-2.3 51.4-9.3 13.5-6.9 29.5 2.7 33 9.7l3.6 6.9s12.7 7.3 15.5 11.3c2.8 3.9 3.2 6.6-.8 5.5-4-1.2-2.4-.4-2.4-.4s3.7 2.7 6.5 4.2c2.8 1.6 12.4 13.6 6 10.9-6.3-2.7-5.8-1.5-5.8-1.5s-3.1 4.1-6.3 4.5c-3.6.3-8.5-3.2-17.7-14.9z"/><path fill="none" stroke="#343433" d="M97 145.3c-1.4.1-2.6 1.1-2.3 2.5 1 0 1.2.5 2.1-.4-1.9 2.5-.3 6.4 2.5 3.2-1.2 2.7 2.5 3.8 3.2.8 1.7 2.8 2.2 3.6 4.6.6.7 2.5 3.1 1.9 3.7-.3 1.4 1.5 3.6.9 3.6-1.4 1.1 1.8 3.6 1.4 3.6-.9.2-.2.8-.5 1.1-.6.8 2.6 1 10.4 5 6.9.1 2 2.1 4 3.1 1.2-.4 3.2 2.8 5.1 4.1 1.5.7 2.9 5.4 3.3 5.5-.1 2.9 4.7 4.9-1.9 4.5-4.4 1.1 1.3 3.7 2.3 5 .6 1.8 1.9 3.3.1 3.6-2 1.7 1.7 3.9 4.9 6 5.8 2.2 1 5.5.5 3.9-2.3 1.1 1.6 4.8 4.1 6.9 3.6 2.9-.7 1.6-3.5.3-5 1.4 1.3 4.3 5.5 6.8 3.7 1.9-1.4-.1-4.6-.9-6.1 1.6 1.2 3.6 4 6 2.5s.6-3.8-.5-5.6c3.7 1.4 6.4-1.6 3.8-4.9 1.3-1.5-.3-3.4-1.8-4.1"/></g></switch></svg>
