<svg xmlns="http://www.w3.org/2000/svg" id="Capa_1" x="0" y="0" version="1.0" xml:space="preserve" viewBox="0 0 20 13.2"><style>.st2{fill:#86c114}.st3{fill:#4b84c9}.st4{fill:#769668}.st8,.st9{opacity:.69;fill:#fff}.st9{opacity:.27}</style><switch><g><linearGradient id="SVGID_1_" x1="8.914" x2="9.963" y1="-12.714" y2="5.946" gradientUnits="userSpaceOnUse"><stop offset="0" stop-color="#8fc6ed"/><stop offset="1" stop-color="#d7eaf0"/></linearGradient><path fill="url(#SVGID_1_)" d="M0 0h20v13.2H0z"/><path fill="#666b5c" d="M.1 2.7c.6-.2.5 0 1 .2.3.2.7.1 1.1.3.5.3 1 1.3 1.5 1.3.9 0 1.3-1 2.2-.9.8.1 1.1 1.2 2 1.4.5.2.6.7 1.1.9.5.2.8.4 1.4.5.5.1 1.1-.5 1.7-.7.6-.2.4-.3.8-.6.3-.3.2-.3.6-.5.1 0 .5-.4.7-.4.2.1.7.3.9.4.7.3 1.5-.8 2-1.2.7-.5.6-.6 1.4-.3.5.2 1.7.6 1.7.6l.1 9.3-20.3.1.1-10.4z" opacity=".52"/><path d="M11.2 7.3s1.7-.2 3.3-.5c1.5-.3 5.4-.5 5.4-.5v1.5l-8.7-.5zm-9.1-.8c.4-.1 1 .2 1.4.2.6.1 1.1.2 1.7.1.5 0 1.1-.1 1.5.1.4.1 1.2 0 1.5.3-.2.1-.4 0-.6 0-.4 0-.8.1-1.3.1-.8 0-1.7 0-2.5.1-.6.1-1.4.2-1.5-.6" class="st2"/><path d="M2.5 7.1h13.8S15 8.4 14 8.4c-1.1-.1-9.3.1-9.3.1l-2.4-1 .2-.4z" class="st3"/><path d="M0 5.7c.1 0 .1-.1.3-.1v-.2h.2c.1-.2.3-.1.4 0v.2c.2 0 .1 0 .2.1.2 0 .2 0 .2.2.1 0 .1.1.2.1 0 0-.1 0-.1.1.2.1.3.1.5.1 0-.2.2-.2.3-.1.1-.1.1 0 .2-.1 0 0 0 .1.1.1.2 0 .2 0 .3.2v.2c.1.1.1.1.1.2-.3.7-2.5.2-2.9-.1" class="st4"/><path fill="#769749" d="M14.9 6.9c-.1 0-.1-.1-.2-.1v.1c-.1-.1-.1 0-.1 0-.1 0-.2 0-.1.1-.2 0-.1.2-.1.3-.1 0-.2 0-.1.1-.1 0-.1.1-.1.2.1.1.2.1.3 0 .3-.1.6-.2 1-.2.4-.1.9-.1 1.2-.3h-.1c0-.1 0-.2-.1-.2-.1-.2-.5-.1-.7-.1-.3 0-.5-.1-.8 0"/><path d="M19.8 6.9c-.2.3-1.3.3-1.7.4-.6.2-1.3.3-1.9.5-.4.1-.7.3-1 .4-.5.1-1.1.1-1.7.1-.9 0-1.8.1-2.7 0-1-.1-2.2-.1-3.2-.1-.6-.1-.9-.3-1.4-.4-.5-.1-.8-.3-1.3-.3-1 .1-1.5-.3-2.4-.6-.5-.2-.9 0-1.3-.1-.5-.1-.7-.3-1.2-.3v1.9l9 2 10.9-.6-.1-2.9z" class="st2"/><path d="M.1 7.8c.8-.1 1.8.4 2.5.7.9.2 1.6.4 2.4.7.8.3 1.8.8 2.7 1 1.1.2 2.4.2 3.5.2.9 0 1.9.1 2.8-.1.8-.2 1.6-.6 2.3-1 .7-.4 1.3-.8 2.1-1 .4-.1 1.7-.4 1.7-.7v5.7H.1V7.8z" class="st2"/><path d="M13.3 12.6c-.2-.2-.5-.2-.4-.5.1 0 .1-.1.2-.1-.7-.5-.1-.6.5-.8.4-.2 1.1-.3 1.4-.6.1-.1 0-.3.1-.4 0-.1.6-.3.7-.4.2-.2.5-.4.6-.6.3-.5.3-.9-.4-1l-1-.3H1.4l-.1.1c-.7.3.3.7.4.9-.4.4.2.4.4.6.2.5-.4.5-.6.7-.3.2 0 .5-.5.7-.2.1-.9.3-1 .2v2h13.3" class="st3"/><path d="M14.9 6.9c-.1 0-.1.1-.2 0 .1-.1.1-.2.1-.3h-.2c.1-.1.1-.2.2-.2h-.1c.1-.1.2-.3.3-.4 0 0-.1.1-.2.1 0-.2.2-.5.2-.8 0 .2.1.5.3.7l-.1.1c.1 0 .1.2.2.2-.1.1-.1.1.1.3l-.1.1s.1.1.1.2c-.2 0-.4.1-.6 0" class="st4"/><path d="M15.5 6.9h-.2c0-.1.1-.2.1-.2h-.2l.1-.2h-.1c.1-.1.1-.2.1-.2h-.1c.2-.3.4-.6.5-.9.2.1.3.5.4.7h-.2c0 .1.1.2.1.3h-.1s.1.2.1.3h-.2s.1.1.1.2h-.4" class="st4"/><path fill="#8b6739" d="M15.6 7v.2h.1v-.3zM15 7v.3h.1v-.4z"/><path fill="#8b6739" d="M0 11.1c.3.1 1.3-.2 1.3-.5.1-.3.2-.4.6-.5.3 0 .4-.4 0-.6 0 .1 0 .3-.1.4-.2 0-.3 0-.5.1l-.2.1c-.1 0-.1 0-.2.1 0 .1 0 .3.1.4-.4.2-.6.1-1 .1m12.9 1.6c-.1-.1 0-.2.1-.3-.2-.1-.3-.3-.3-.4 0-.2.8-.4.8-.4l-.2.2c-.1.1-.3.2-.2.4.1.1.2.1.2.2v.1s-.1 0-.1.1.2.1.2.1c.1 0 .2.1.3.2.2.1.1.4.2.6h-.6s.1-.3-.1-.5l-.3-.3z" opacity=".26"/><path d="M2.4 1.3c0-.2.2-.2.3-.1.1-.3.4-.2.6-.2v.1c.2 0 .4.3.6.4.3.1.6 0 .8.2-.7.1-1.4.1-2.1 0-.2 0-.3-.1-.5-.1h-.4c-.1-.3.6-.3.7-.3m7.9.9c0-.2.2-.2.4-.2 0-.2.2-.2.4-.2 0-.3.2-.3.4-.4.3-.2.5-.2.8-.1.2.1.4.3.6.4.1.2.3.3.5.5-.3.1-.6 0-.9 0-.4 0-.7.1-1 .1-.4 0-.8 0-1.2-.1" class="st8"/><path d="M3.8 4.4c.3-.2.5-.5.9-.6 0 0 .1 0 .1.1.1-.1.2 0 .3.1-.2.1-.5.1-.7.2 0 .3-.8.6-1 .8.1-.3.3-.5.4-.6m.8-.1c.2-.1.5-.1.7-.2.2.3.3.7.5 1-.2-.1-.3-.3-.5-.4v.2c-.1 0-.1-.2-.3-.3-.1-.1-.2-.1-.4-.3m8.5.7c0-.2.8-.8 1-.8.2.3.7.4.8.7-.2 0-.3 0-.5-.1-.1.3-.3-.1-.5-.1s-.3.2-.5.3h-.1s-.1.1-.2 0m3.2-.9c.3-.3.5-.6.8-.9.3-.3.5-.3.8.1-.2 0-.4 0-.5.2 0 .1.1.3.1.4 0 .1.1.1 0 .2 0 0-.2.1-.3.1-.2.1-.3.3-.4.4.1-.1.2-.4.2-.5-.3 0-.6.4-.8.5 0-.2 0-.3.1-.5" class="st9"/><path d="M17.7 3.9c0-.1-.1-.2-.1-.4.3-.2.9-.2 1 .2-.2 0-.3-.1-.5 0-.2 0-.3.1-.4.2M.1 2.8c.1 0 .2-.2.4-.1.1 0 .2.2.2.3.2.2.5.1.7.2.5.2.7.7.9 1.1-.2-.2-.5-.5-.7-.6 0 0 0 .1.1.1-.2-.1-.5-.4-.8-.3v.2c-.2 0-.3 0-.5-.1-.1-.1-.1-.2-.3-.2" class="st9"/><path d="M6.5 2.3c0-.2-.2-.3-.3-.4 0 0-.1.1-.2.1-.2-.3-1 .2-1 .5.5 0 1.1.2 1.6-.1" class="st8"/><path d="M.1 11.1s1.2.5 2 .6c.7.2 2.3.5 3 .5.7 0 2.4.3 3 .4.6.2 5.3.2 6 .2.6 0 .4.2.4.2H.2v-1.9z" class="st2"/></g></switch></svg>
