<svg xmlns="http://www.w3.org/2000/svg" id="Capa_1" x="0" y="0" version="1.0" xml:space="preserve" viewBox="0 0 20 13.2"><style>.st0{fill:#a5f706}.st1{fill:#a6c96d}.st4{fill:#c9c9c9}.st5{fill:none}</style><switch><g><path d="M.1 0H20v13.1H.1z" class="st0"/><path d="M.1 1.9c.4.1.8.1 1.2.1.5 0 1 .1 1.6.2 1 .1 2 .3 3 .3s1.9-.2 2.9-.1c.8.1 1.6 0 2.3 0 .7-.1 1.3-.2 2-.2h2.7c1.4 0 3.3-.1 4.1 0 .1 0 0 1.2 0 1.2L.1 3.2V1.9z" class="st1"/><path d="M0 .1s4.3 2 5.4 1.9c1.1-.1-3 .7.5 2.1 3.6 1.4 4.7 3.7 4.7 3.7l4.9.6 4.4 1.2v3.6H0V.1z" class="st0"/><path d="M20 6.7c-.4 0-1-.4-1.5-.4-.6-.1-1.2-.1-1.8-.2-1.9-.2-3.9-1-5.8-1.6-.9-.3-1.8-.6-2.7-1C8 3.4 7 3 6.9 2.6c0-.4.7-.7.9-.8 1-.2 2 0 3-.2.9-.2 2-.5 2.9-.6 2-.2 4.2.1 6.3.1v5.6z" class="st0"/><path fill="#bc9668" d="M10.3 3.2c-.3.1-1 .1-1.1.3.2.2.3.2.7.2l-.1.1s.1.1.2.1c-.3.3.4.3.6.4.4.1.6.3.9.4.3.1.6.1.9.1.1 0 .2-.1.3-.1 0 0 .1.1.2.1.2 0 .4.1.6.1h1.1c.2 0 .5-.1.7 0 .2.1.1.2.3.3.6.4 1.6.1 2.3.3.8.2 1.5 0 2.2 0v1.3s-.8-.2-1.1-.2c-.3 0-1.8-.1-2-.1-.2 0-2-.2-2-.2l-2-.7-2-.4s-1.4-.3-2-.5c-.6-.2-2.1-.6-2.1-.8 0-.2.3-.4.7-.5.4-.1 1-.1 1.2-.1h.7l.8-.1zM7.6 8.8c1 .5 1.1 1.4 2.4 1.5.3 0 .5.1.7.2.2.1.4.1.5.2.1.1.3.2.5.2.7.4.8.2 1.8.3.6 0 1.2-.1 1.7.2.5.3.8.7 1.4.8.6.2 1.1 0 1.7.3.2.1.7.6.9.7h.8V12s.3.2-.8.2c-1.1-.1-2.4-.2-2.4-.2s-1-.5-1.3-.5c-.4-.1-1.4-.7-1.9-.8-.6-.2-1.8-.3-2.2-.3-.4 0-1.1-.2-1.3-.2-.3-.1-2.5-1.4-2.5-1.4z" opacity=".33"/><path d="M3.1 2.9c-.3-.2-1.3-.3-1.4 0 .3.1.9.4 1.2.2 0 0 .8-.1.2-.2" class="st1"/><path d="M1.8 3c0-.1-.1-.3-.1-.4l.1.1c0-.1-.1-.3-.2-.4l.2.2c0-.1-.1-.3-.1-.4.2.1.3.2.3.3V2c0 .1.1.3.1.4 0-.1 0-.3.2-.4v.4c0-.1.1-.2.2-.3 0 .2-.1.3-.1.4.1-.1.2-.2.3-.2 0 .1-.1.2-.1.3" class="st1"/><path fill="#b8dce7" d="M12.3 9.5c.2.2.5.4.7.5.2.1.7.2.8.5-.2.1-.4 0-.6 0-.2 0-.3-.1-.5-.1s-.7-.2-.8-.4c.3-.1.8.1 1.1.2-.2-.2-.5-.4-.7-.6" opacity=".21"/><path d="M7.8 4.2s.1-.1.1-.2c0 0 .1-.1.2-.1s.1 0 .2.1c0 0 .1.1.2.1.1.1-.2.2-.3.2-.2 0-.3.1-.4-.1" class="st4"/><path d="M8.4 4.3c.1-.1.1-.2.1-.2h.1s.1 0 .1.1-.1.1-.1.1c-.1.1-.2.1-.2 0M6.3 5.7s.1-.1 0 0c.1-.1.1-.2.1-.2h.1s.1 0 .1.1-.1.1-.1.1c-.1.1-.1.1-.2 0" class="st4"/><path d="M10.3 12.2c0-.2-.1-.3-.2-.4.1 0 .2.1.3.2 0-.1.1-.2.2-.3v.3c.1-.1.2-.1.3-.1-.1.1-.1.2-.1.4m3-8.6c-.1-.1-.1-.2-.1-.3 0 .1.1.2.1.3 0-.2.1-.3.2-.3v.3m-.8-.2v-.3c-.1.1-.2.2-.2.3" class="st5"/><path fill="#1047c4" d="M20 5.8c-1-.6-2.5-.5-3.7-.6-1.6-.2-3.1-.9-4.7-1.1l-1.1-.3c-.8-.5-1.4-.6-2.3-.9-.4-.1-1.3-.5-.7-.9.3-.1 1.2 0 1.6 0 1-.2 1.8-.3 2.9-.3 1 0 1.9-.4 2.9-.3 1.7.1 3.4-.1 5.1-.1V.6s-2 .1-3 .1-2.4-.2-4-.2-3.4.3-4.6.2c-1.3 0-5.6.5-6.4.7-.7.2-3 1.5-.9 2.6.8.4.9.8 1.7 1 .9.3 1.7.4 2.2 1.4.5.9 1 .8 1.3 1.6.5 1.5 1.3 1.4 2.1 1.7.9.4 1.7.8 2.7.7 1.1 0 1.3.2 2.4.6 1.1.4 2 1.2 3.2 1.5.9.2 2 0 2.9.3.1 0 .3.1.4.2"/><path d="M11.9 4.6c-.1-.2-.1-.5-.2-.8 0 .1.1.3.1.5-.2-.2-.3-.4-.5-.5.1.1.1.3.2.4-.1-.1-.2-.1-.3-.1.1.1.2.3.2.4" class="st5"/><path d="M0 0h20v13.2H0z" class="st5"/></g></switch></svg>
