<svg xmlns="http://www.w3.org/2000/svg" version="1.0" viewBox="0 0 220 129"><switch><g><path fill="#CF3" d="M0 0h220v129H0z"/><path fill="#231F20" d="M23.5 22h5.2L33 34.1 37.6 22h3.2l4.5 12 4.3-12h5.3l-7.8 21.3h-3.4l-4.5-12.1-4.7 12.1h-3.3L23.5 22zm44.4-.6c2 0 3.9.5 5.7 1.5s3.1 2.4 4.1 4.1 1.5 3.6 1.5 5.6c0 2-.5 3.9-1.5 5.6s-2.4 3.1-4.1 4.1-3.6 1.5-5.7 1.5c-3 0-5.6-1.1-7.8-3.3s-3.2-4.8-3.2-7.9c0-3.3 1.2-6.1 3.7-8.3 2-1.9 4.5-2.9 7.3-2.9zm0 5.1c-1.7 0-3 .6-4.1 1.7-1.1 1.2-1.7 2.6-1.7 4.4 0 1.8.5 3.3 1.6 4.5 1.1 1.1 2.5 1.7 4.1 1.7s3.1-.6 4.2-1.7 1.7-2.6 1.7-4.5-.5-3.3-1.6-4.4-2.5-1.7-4.2-1.7zM83.5 22h5.4v10.2c0 2 .1 3.4.4 4.2s.7 1.4 1.3 1.8c.6.4 1.4.6 2.2.6s1.6-.2 2.3-.6c.6-.4 1.1-1 1.4-1.9.2-.6.3-1.9.3-3.9V22h5.3v9c0 3.7-.3 6.3-.9 7.6-.7 1.7-1.8 2.9-3.2 3.8s-3.2 1.3-5.3 1.3c-2.3 0-4.2-.5-5.7-1.6s-2.5-2.5-3-4.4c-.4-1.3-.6-3.6-.6-7V22zm23.4-8.2h5.3v29.5h-5.3V13.8zm25.9 0h5.3v29.5h-5.3V41c-1 1-2.1 1.7-3.1 2.1-1 .4-2.2.7-3.4.7-2.7 0-5.1-1.1-7.1-3.2s-3-4.8-3-7.9c0-3.3 1-6 2.9-8.1 1.9-2.1 4.3-3.1 7.1-3.1 1.3 0 2.5.2 3.6.7 1.1.5 2.2 1.2 3.1 2.2V13.8zm-5.6 12.6c-1.6 0-3 .6-4.1 1.7-1.1 1.2-1.6 2.7-1.6 4.5 0 1.8.6 3.3 1.7 4.5 1.1 1.2 2.5 1.8 4.1 1.8 1.7 0 3.1-.6 4.2-1.7 1.1-1.2 1.7-2.7 1.7-4.6 0-1.8-.6-3.3-1.7-4.5-1.3-1.2-2.7-1.7-4.3-1.7zm16.3-4.4h5.3v2.2c1.2-1 2.3-1.7 3.3-2.1 1-.4 2-.6 3-.6 2.1 0 3.9.7 5.4 2.2 1.2 1.3 1.9 3.1 1.9 5.5v14h-5.3v-9.3c0-2.5-.1-4.2-.3-5.1-.2-.8-.6-1.5-1.2-1.9-.6-.4-1.3-.7-2.1-.7-1.1 0-2 .4-2.8 1.1-.8.7-1.3 1.7-1.6 3-.2.7-.2 2.1-.2 4.3v8.5h-5.3V22zm24.3-8.2h4.9v2.7c0 1.7-.2 3.2-.6 4.4-.4 1.2-1.1 2.5-2.1 3.8l-1.9-1.5c.5-.7.8-1.3 1.1-1.8.2-.5.5-1.2.7-2h-2v-5.6zm11.5.4h5.3V22h3.2v4.6h-3.2v16.7h-5.3V26.6h-2.7V22h2.7v-7.8zM14.6 93.3h5.2l4.3 12.1 4.6-12.1h3.2l4.5 12 4.3-12H46l-7.8 21.3h-3.4l-4.5-12.1-4.7 12.1h-3.3l-7.7-21.3zm44.3-.5c2 0 3.9.5 5.7 1.5s3.1 2.4 4.1 4.1 1.5 3.6 1.5 5.6c0 2-.5 3.9-1.5 5.6s-2.4 3.1-4.1 4.1-3.6 1.5-5.7 1.5c-3 0-5.6-1.1-7.8-3.3s-3.2-4.8-3.2-7.9c0-3.3 1.2-6.1 3.7-8.3 2.1-2 4.5-2.9 7.3-2.9zm.1 5c-1.7 0-3 .6-4.1 1.7-1.1 1.2-1.7 2.6-1.7 4.4 0 1.8.5 3.3 1.6 4.5 1.1 1.1 2.5 1.7 4.1 1.7s3.1-.6 4.2-1.7 1.7-2.6 1.7-4.5-.5-3.3-1.6-4.4-2.5-1.7-4.2-1.7zm15.5-4.5h5.4v10.2c0 2 .1 3.4.4 4.2s.7 1.4 1.3 1.8c.6.4 1.4.6 2.2.6s1.6-.2 2.3-.6c.6-.4 1.1-1 1.4-1.9.2-.6.3-1.9.3-3.9V93.3h5.3v9c0 3.7-.3 6.3-.9 7.6-.7 1.7-1.8 2.9-3.2 3.8s-3.2 1.3-5.3 1.3c-2.3 0-4.2-.5-5.7-1.6s-2.5-2.5-3-4.4c-.4-1.3-.6-3.6-.6-7v-8.7zm23.4-8.2h5.3v29.5h-5.3V85.1zm25.9 0h5.3v29.5h-5.3v-2.2c-1 1-2.1 1.7-3.1 2.1-1 .4-2.2.7-3.4.7-2.7 0-5.1-1.1-7.1-3.2s-3-4.8-3-7.9c0-3.3 1-6 2.9-8.1 1.9-2.1 4.3-3.1 7.1-3.1 1.3 0 2.5.2 3.6.7 1.1.5 2.2 1.2 3.1 2.2V85.1zm-5.6 12.6c-1.6 0-3 .6-4.1 1.7-1.1 1.2-1.6 2.7-1.6 4.5 0 1.8.6 3.3 1.7 4.5 1.1 1.2 2.5 1.8 4.1 1.8 1.7 0 3.1-.6 4.2-1.7 1.1-1.2 1.7-2.7 1.7-4.6 0-1.8-.6-3.3-1.7-4.5-1.2-1.1-2.6-1.7-4.3-1.7zm27.5-4.4h5.3v2.2c1.2-1 2.3-1.7 3.3-2.1 1-.4 2-.6 3-.6 2.1 0 3.9.7 5.4 2.2 1.2 1.3 1.9 3.1 1.9 5.5v14h-5.3v-9.3c0-2.5-.1-4.2-.3-5.1-.2-.8-.6-1.5-1.2-1.9-.6-.4-1.3-.7-2.1-.7-1.1 0-2 .4-2.8 1.1-.8.7-1.3 1.7-1.6 3-.2.7-.2 2.1-.2 4.3v8.5h-5.3V93.3zm34-.5c2 0 3.9.5 5.7 1.5s3.1 2.4 4.1 4.1 1.5 3.6 1.5 5.6c0 2-.5 3.9-1.5 5.6s-2.4 3.1-4.1 4.1-3.6 1.5-5.7 1.5c-3 0-5.6-1.1-7.8-3.3s-3.2-4.8-3.2-7.9c0-3.3 1.2-6.1 3.7-8.3 2.1-2 4.5-2.9 7.3-2.9zm.1 5c-1.7 0-3 .6-4.1 1.7-1.1 1.2-1.7 2.6-1.7 4.4 0 1.8.5 3.3 1.6 4.5 1.1 1.1 2.5 1.7 4.1 1.7s3.1-.6 4.2-1.7 1.7-2.6 1.7-4.5-.5-3.3-1.6-4.4-2.5-1.7-4.2-1.7zM196 85.5h5.3v7.8h3.2v4.6h-3.2v16.7H196V97.9h-2.7v-4.6h2.7v-7.8zM98.7 57.9h19.5v4.9H98.7v-4.9zm0 8.4h19.5v4.9H98.7v-4.9z"/></g></switch></svg>
