<svg xmlns="http://www.w3.org/2000/svg" version="1.0" viewBox="0 0 220 129"><switch><g><path fill="#706653" d="M0 0h220v129H0z"/><path fill="#5F69AF" d="M31.8.9h21.6v41.6H31.8z"/><path fill="#C5834D" d="M3 41.9h81.2v5.2H3z"/><path fill="#F8A359" d="M53.2.8c.1.4 9.8 41.6 9.8 41.6h7.5L60.5.8h-7.3z"/><path fill="#A5CD39" d="M60.3.8c.2.3 8.9 41.6 8.9 41.6h11.4L72.1.8H60.3z"/><path fill="#DC1962" d="M22.4 1.5h10.7v40.9H22.4z"/><path fill="#769346" d="M6.7 1.5h15.7v40.9H6.7z"/><path fill="#5F69AF" d="M10.8 8.3h6.4v31.2h-6.4zm-2.4-4H20v1.3H8.4z"/><path fill="#A5CD39" d="M25.3.8h4.6v30.8h-4.6z"/><path fill="#FCED20" stroke="#FCED20" stroke-width=".25" d="M39.9 9.4h5.4v29.2h-5.4zM37.6.9c.2 1.2 2.5 2.1 5.2 2.1S47.7 2 48 .8H37.6z"/><circle cx="28.3" cy="37.5" r="1.6" fill="#A5CD39"/><path fill="#DC1962" d="M65.4 4.9h4.1L77 40.1h-4.4z"/><linearGradient id="a" x1="115.247" x2="142.419" y1="51.949" y2="51.949" gradientUnits="userSpaceOnUse"><stop offset="0" stop-color="#9c5f26"/><stop offset=".195" stop-color="#b7851b"/><stop offset=".446" stop-color="#d5af10"/><stop offset=".672" stop-color="#eace07"/><stop offset=".864" stop-color="#f7e002"/><stop offset="1" stop-color="#fce700"/></linearGradient><path fill="url(#a)" d="M139.1 53.5c-7.7 0-15.9-1.4-22.6 2.8.1-2-1.7-4.3-1.1-6.2.9-2.8 7.2-2.3 9.6-2.3 6.4 0 12-.1 17.5 3.2-.3.7-.5 1.5-.6 2.3-1 .1-2 .2-2.9.5"/><path fill="#C5834D" d="M220 126.8H1.4l31.8-34.7H220z"/><linearGradient id="b" x1="134.859" x2="149.081" y1="48.84" y2="48.84" gradientUnits="userSpaceOnUse"><stop offset="0" stop-color="#9c5f26"/><stop offset=".195" stop-color="#b7851b"/><stop offset=".446" stop-color="#d5af10"/><stop offset=".672" stop-color="#eace07"/><stop offset=".864" stop-color="#f7e002"/><stop offset="1" stop-color="#fce700"/></linearGradient><path fill="url(#b)" d="M144.9 54.3c-3.7-1.8-6.3-.5-10-.5 6.1-3.3 10.4-3.9 14.2-10.9-.3 2.7-3.1 11.3-4.6 11.9"/><linearGradient id="c" x1="144.314" x2="161.01" y1="73.888" y2="73.888" gradientUnits="userSpaceOnUse"><stop offset="0" stop-color="#ffecc4"/><stop offset=".456" stop-color="#ffe8b6"/><stop offset="1" stop-color="#ffe1a0"/></linearGradient><path fill="url(#c)" d="M145.5 53.8c3.7 2.7 22.4 45.2 12.8 39.7-8-4.6-11.7-31.3-14-36.7"/><path fill="#33C5F3" d="M111.4 61.1s3.7-1.9 7.1-2.7c3.3-.8 4.1-2.3 4.1-2.3s-1.1-3.4-.7-4.6c.4-1.1 1.9-.4 1.9-.4s1.1 0 5.2.4 7.4.4 7.4.4l3.2 2.9s2.3-2.2 6.5.9 1.1 17.5 1.1 17.5-3.7 11.4-4.5 14.9c-.7 3.4-.4 8.8-.4 8.8h-26.8s.4-4.2.4-10.3c0-6.1-1.1-9.5-1.1-9.5s-1.1-7.2-1.9-10.7c-.8-3.4-1.5-5.3-1.5-5.3z"/><path fill="none" d="M124.3 51.1l.4 4.9m.9-4.6l.3 5.6m.9-5.4l-.2 5.7m1.9-5.7l.2 5.9m2.4.5l-.2-6.4m1.9.3l.5 6.3m1.4-6.3v5.6m1.5-5.9v4.9m.7-4.6l.5 4.1m-12.7 13.8s5-3.9 6.5-5.2c1.4-1.2 6.7-4.7 6.7-4.7l1.4-.7m-13.2 13.3s4.8-5.2 6.7-6.9c1.9-1.7 5-3.7 5-3.7m-19.6 23.8l3.6 2.2m-5.3 4.1s2.4.7 3.4.7h4.1"/><linearGradient id="d" x1="108.034" x2="150.8" y1="34.833" y2="34.833" gradientUnits="userSpaceOnUse"><stop offset="0" stop-color="#ffecc4"/><stop offset=".456" stop-color="#ffe8b6"/><stop offset="1" stop-color="#ffe1a0"/></linearGradient><path fill="url(#d)" d="M150 34.1c-.4-.7.7-8.9.7-10.5 0-8.5-16.2-6.6-21.5-6.6-5.3 0-20 7.1-20.8 8.5-.9 1.4.9 10.9.9 10.9s-1 9-1.2 9.9c-.4 1.9 5.1 6.4 13.8 6.4 8.7 0 13-.7 16.1-.7 3.1 0 6.1-2.4 8.2-4l4.7-14"/><linearGradient id="e" x1="142.164" x2="151.045" y1="41.752" y2="41.752" gradientUnits="userSpaceOnUse"><stop offset="0" stop-color="#ec1475"/><stop offset="1" stop-color="#fff5cb"/></linearGradient><path fill="url(#e)" d="M151 41.8c0 2.8-2 5.1-4.4 5.1-2.5 0-4.4-2.3-4.4-5.1s2-5.1 4.4-5.1c2.5-.1 4.4 2.2 4.4 5.1z" opacity=".13"/><path fill="#1D3564" d="M129.8 36.9c0 .9-.5 1.6-1.1 1.6-.6 0-1.1-.7-1.1-1.6 0-.9.5-1.6 1.1-1.6.6.1 1.1.8 1.1 1.6z"/><linearGradient id="f" x1="117.71" x2="128.427" y1="42.716" y2="42.716" gradientUnits="userSpaceOnUse"><stop offset="0" stop-color="#ec1475"/><stop offset="1" stop-color="#fff5cb"/></linearGradient><path fill="url(#f)" d="M117.7 42.7c0 3.4 2.4 6.2 5.4 6.2 3 0 5.4-2.8 5.4-6.2 0-3.4-2.4-6.2-5.4-6.2-3 0-5.4 2.8-5.4 6.2z" opacity=".13"/><path fill="none" d="M128.3 39.9s.6-1.6 2.3-1.3c1.7.2 2 1.5 2 1.5"/><path fill="#F8F7F6" d="M148.6 32.2c0 1.1-.8 5.7-.8 6.9 0 1.1.4 4.1-.4 3.9-.8-.2-1-4.1-.8-6.4.2-1.8 1.6-6.5 2.2-8.3.1-.4.2-.7.2-.7" opacity=".14"/><path fill="#1D3564" d="M142.5 36.6c.1.9-.4 1.6-1 1.6s-1.1-.6-1.2-1.5c-.1-.9.4-1.6 1-1.6s1.1.6 1.2 1.5z"/><path fill="none" d="M140.3 52.8s-3-1.2-2.2 3.2c0 0-1.4 1-2.4 1.5s-4.6 1.2-6 1.2c-1.4 0-5-1.2-6.5-2.6"/><path fill="#010101" d="M116.1 96.9s.5-6.3.3-11.2c-.3-4.9-1.5-12.8-1.8-14.3-.2-1.4-2-7.8-2-7.8l-.4-1.1-.1-1.5 2.3 4.4s1.8 9.2 2 12.1c.3 2.8.8 4.7 1 7.5.3 2.9-.3 8.8-.3 8.8l-.3 2.9-.7.2z" opacity=".12"/><path fill="#C6C5C5" stroke="#868686" stroke-width=".25" d="M122.3 34.9c-3.5 0-14.1-1.1-12.4 2.6 3.6-.3 9.8-.1 13.6-.5m24.6-2.2c2.1-.6 5.6-2.8 4.6 1.1-2.2.4-2.4.9-4.7 1.2m-10.4-1.4c0-.3-.2-.5-.5-.5h-2.7c-.3 0-.5.2-.5.5s.2.5.5.5h2.7c.3 0 .5-.3.5-.5z"/><path fill="#C6C5C5" stroke="#868686" stroke-width=".25" d="M145 30.3h-5.6c-2.6 0-2.9 2.2-2.9 4.8 0 2.7.3 4.8 2.9 4.8h5.6c2.6 0 2.9-2.2 2.9-4.8 0-2.6-.3-4.8-2.9-4.8zm-.6 8.7H140c-2.1 0-2.3-1.7-2.3-3.8 0-2.1.3-3.8 2.3-3.8h4.4c2.1 0 2.3 1.7 2.3 3.8 0 2-.3 3.8-2.3 3.8zm-13.5-7.6h-5.6c-2.6 0-2.9 2.2-2.9 4.8 0 2.7.3 4.8 2.9 4.8h5.6c2.6 0 2.9-2.2 2.9-4.8 0-2.7-.3-4.8-2.9-4.8zm-.6 8.6h-4.4c-2.1 0-2.3-1.7-2.3-3.8 0-2.1.3-3.8 2.3-3.8h4.4c2.1 0 2.3 1.7 2.3 3.8 0 2.1-.2 3.8-2.3 3.8z"/><linearGradient id="g" x1="133.243" x2="137.658" y1="41.174" y2="41.174" gradientUnits="userSpaceOnUse"><stop offset="0" stop-color="#ffecc4"/><stop offset=".456" stop-color="#ffe8b6"/><stop offset="1" stop-color="#ffe1a0"/></linearGradient><path fill="url(#g)" stroke="#F3B61A" stroke-width=".25" d="M133.3 42.3c-.2-2.8 4.7-3.1 4.4-.2"/><ellipse cx="136.1" cy="49.2" fill="#B9902E" stroke="#F3B61A" stroke-width=".25" rx="1.5" ry=".6"/><linearGradient id="h" x1="104.477" x2="153.981" y1="33.486" y2="33.486" gradientUnits="userSpaceOnUse"><stop offset="0" stop-color="#9c5f26"/><stop offset=".195" stop-color="#b7851b"/><stop offset=".446" stop-color="#d5af10"/><stop offset=".672" stop-color="#eace07"/><stop offset=".864" stop-color="#f7e002"/><stop offset="1" stop-color="#fce700"/></linearGradient><path fill="url(#h)" d="M133.6 19.5c-8.7-.6-15.7 11.1-17.2 18.9-.5 2.7-1.8 6-.8 8.5.8 2.1 0 4.4.9 6.5 3.7 8.8-5.6 4.2-8.9 2.1-3.3-2.1-2.7-12.1-3.1-19.1-.4-7.6 3.3-12.1 7.2-18.6 4.1-6.9 9.2-10.3 17.3-9 5.4.9 11.3-.9 18 5.8 6.9 6.8 7.9 16.5 6.4 24.8-.9 4.9-.3 23.2-8.6 13.2 2-3.7 2.7-5.9 3.6-10.2.9-4.2 0-8.4-.4-12.5-.4-4.2-1.5-6.9-5.5-8.9-2.3-1.2-9.7-3.7-10.9-.9"/><linearGradient id="i" x1="112.703" x2="137.439" y1="24.007" y2="24.007" gradientUnits="userSpaceOnUse"><stop offset="0" stop-color="#9c5f26"/><stop offset=".195" stop-color="#b7851b"/><stop offset=".446" stop-color="#d5af10"/><stop offset=".672" stop-color="#eace07"/><stop offset=".864" stop-color="#f7e002"/><stop offset="1" stop-color="#fce700"/></linearGradient><path fill="url(#i)" d="M137.4 18.1c-3.6 1.2-7.8 6.6-11.3 7.8.4-1.6-.1-1.7 1.5-2.6-2.4 1.1-2.9 4.2-5.6 4.3.5-.7 1.1-2.1 2-2.9-2 1.2-5.2 4.8-7.4 4.6.5-.5 1.1-1.5 1.6-2-2 .5-3.3 3-5.3 3.3-.3-4.5 18.6-14.9 22.1-12.9"/><path fill="#E21F2A" stroke="#C8202D" stroke-width=".25" d="M127.7 118c0 1.7-4.5 3.1-10 3.1s-10-1.4-10-3.1c0-1.7 4.5-3.1 10-3.1 5.6-.1 10 1.3 10 3.1z"/><path fill="#EE4164" stroke="#EE4164" stroke-width=".25" d="M124.3 118c0 .9-2.9 1.6-6.4 1.6-3.5 0-6.4-.7-6.4-1.6 0-.9 2.9-1.6 6.4-1.6 3.5-.1 6.4.7 6.4 1.6z"/><path fill="#E21F2A" stroke="#C8202D" stroke-width=".25" d="M108.9 110.7c0-.1.7-1.4 2.4-1.9s3.9-.9 5.8-.8c1.9.1 4.2.2 5.4.5.5.1 1.5.4 2.2.9.7.4 1.3 1 1.3 1.4.1.6.1 1.6-.7 3-.7 1.4-1.7 2.7-2.7 3.3-.9.6-2.6 1.6-4.6 1.3-2-.2-3.3-.3-4.6-1-1.3-.7-2.1-1.1-2.7-2.1-.6-1-1.3-1.9-1.4-2.3-.1-.4-.4-.6-.4-.6s.7-.3 0-.4c-.7-.1-2.2-.4-2.6-.2-.4.1-1 .8-1 .8s.2-.8.5-1.2c.3-.3 1.5-.7 1.8-.7h1.3z"/><path fill="#EE4164" stroke="#EE4164" stroke-width=".25" d="M125.2 110.9c0 1.4-3.5 2.7-7.9 2.8-4.4.1-8-1-8-2.5 0-1.4 3.5-2.7 7.9-2.8 4.4 0 8 1.1 8 2.5z"/><path fill="#654118" stroke="#654118" stroke-width=".25" d="M125.4 111.3c0 1.2-3.9 2.6-8.3 2.5-4.3 0-7.8-1-7.8-2.2 0-1.2 3.5-2.1 7.8-2.1 4.4 0 8.3.6 8.3 1.8z"/><path fill="#EE4164" stroke="#EE4164" stroke-width=".25" d="M106.9 112.1l-.8.1c0 .1-.2.6.4 1.1.6.5 1 .7 1.3.7h.3l2.6 1-.9-1.3s-.4 0-1.4-.6c-1-.5-1.3-.5-1.4-.6-.6-.2-.1-.4-.1-.4z"/><path fill="#D51F33" stroke="#C8202D" stroke-width=".25" d="M122.4 117.1c0 1.6-3 1.6-4 1.7-.7.1-1.4 0-2.1-.1-.6-.1-1.9-.4-2.2-1 1.4.1 2.7.8 4.2.6.7-.1 1.4 0 2.1-.3.6-.2 1.8-.4 2-.9"/><path fill="#CECAC5" d="M122.6 97.4c-1.1.6-2.3.3-3.5.5-.9.1-2.8.4-3.3 1.3-.2.4-.1.4-.5.7-.3.2-.5.3-.7.7-.2.6-.1 1.2 0 1.7.1.8.4 1.1 1 1.3.5.2 1.4.3 1.6 1-.4.4-.9.8-1.1 1.3-.2.7.3.8.3 1.4.1.5-.4.9-.3 1.4.1.5.8 1.1 1.3 1 .1.3-.2.4-.3.7-.2.3-.1.4-.2.7-.1.4-.7 1.2-.1 1.5.4.2 1.1-.3 1.4-.5.5-.3 1-.2 1.5-.5.6-.3.3-.8.8-1.2.5-.4 1-.4 1.3-1.1.2-.5.2-1 .3-1.5 0-.3.2-.4.1-.7 0-.3-.2-.5-.2-.8.1-.6.7-.7 1.2-1 .4-.3 1.1-.8 1.4-1.2.8-1.1-1.1-2.2-1.9-2.7-1.1-.6-1.7-1.6-.8-2.8.2-.3 1.1-.9.9-1.3-.3-.6-1.1.2-1.5.3-.6.1-1.1-.1-1.6.3" opacity=".57"/><path fill="#D51F33" stroke="#C8202D" stroke-width=".25" d="M110.7 115.2s-2.7-1.1-2.8-1.1c-.1 0-2.2-1.3-1.9-1.6.3-.3.7-.5 1.5-.3s1.8.5 1.8.5l.1-.6s-1.9-.5-2.6-.4c-.7.1-1.3.3-1.4.8-.1.4.3.9.7 1.2.4.3 1.5.9 1.7.9.2 0 3.1.8 3.1.8l-.2-.2z"/><path fill="#E21F2A" stroke="#E21F2A" stroke-width=".25" d="M109.3 111.6s1.6 2.6 8.6 2.2c7-.4 7.5-2.1 7.5-2.5 0-.4.5-.9.5-.6 0 .9-.3 3.5-7.9 3.7-6.7.2-8.7-1.9-8.7-1.9v-.9z"/><path fill="#FFF" d="M93.2 101.3c-.2-.8 1.6-.9 1.9-1.3.4-.4.7-2 .2-2.3-.4-.3-1.1-.3-1.5-.4-.4-.1-.9-.3-1.3-.2-.4.1-.4.3-.5.8-.1.4-.4.6-.6.9-.6.8.5 1 .3 1.6-.3.7-1.6 1.6-.7 2.4.7.7 1.8 1.2 2.6 1.4.4.1.8.2 1.2.1.6-.1.9-.5 1.4-.9.6-.6 1.6-1.5 1.8-2.4.2-.7-.4-2.1-1.1-2.1-.4 0-.5.8-.6 1.1-.2.4-.4.8-.8 1-.5.2-1.6.4-2.1.1v-.1m8.5-1.5c.2-.8.5-1.6.8-2.3 0-.1.2-.5.2-.6-.1-.2-.7-.2-.9-.2-.5-.1-1.1-.3-1.1-.9 0-.6.5-1.1.8-1.6.4-.6.8-.9 1.5-.8.7.1 1.2 1 1.8 1.4.2.2.7.8.9.1.1-.3-.3-.5-.3-.9.5-.5.7.8 1.2.8s.5-.9.6-1.4c-.5-.2-1.5-.1-1.8-.8.6-.4 1.3-.6 2-.8.4-.2.8-.1 1.1.3.2.2.3.4.3.7.2.6.4.9.7 1.3.4.5.8 1.2 1 1.9.2.5.2 1.2.2 1.8 0 .5.1 1.5-.1 1.9-.1.4-.9.8-1.2.9-.9.4-2.1-.1-3-.2-1.1-.2-2.2-.2-3.2-.2-.5-.1-1.1 0-1.5-.4-.1 0-.1-.1-.1-.2"/><path fill="#D7D7D5" d="M92.9 99.2c-.1.1.1.9 0 1.1-.1.3-.3.5-.2.9.3.1.5-.4.7-.6.2-.2.4-.3.7-.4.3-.2 1-.6 1.1-1 .3-.6-.3-.5-.6-.6l-1.2-.3c-.2-.1-.7-.6-1-.6-.2 0-.4.7-.6.9-.1.2-.4.6-.2.9.3.2.7-.2 1 0l.1.1m8.7-3.9c.1-.5.5-1.2.8-1.6.5-.6.7-.5 1.2 0 .5.4 1.1.8 1.7.9.3 0 1.7.4 1.6-.3-.5 0-.5.3-.8-.3.6 0 1.7.3 1.8-.7.2-1.3-1.3-.6-1.2-1.3.9-.4 2-1.1 2.5.2.2.6.1.9-.3 1.3-.3.3-.7.6-1.1.9-.8.6-1.9 1-2.8.7-.7-.2-2.1-1.1-1.8.5-.2 0-.5-.1-.7-.2-.1-.1-.2-.1-.4-.2h-.2m4.3 2c-.2-.3-.8-.1-1 0-.5.3-.6 1-.8 1.6-.2.8-1.2 2-.5 2.8.3.4.7.2 1.1.3.2 0 .9.3 1.1 0 .3-.3 0-1.2 0-1.6 0-.6.1-.9.4-1.4-.3-.1-.7.1-1 0-.1-.7.2-.9.7-1.1.2-.1.6-.1.8 0 .3.1.3.3.5.5.4.3.7-.1 1.1-.2.6-.1.4.2.4.7.5 0 .7-.4.9-.9.7.4 2 1.3 2.6.2-.2.5-.6 1-.7 1.7-.1.6 0 1.1 0 1.7.7-.3 1.2-2.6 1.1-3.4-.2-1.6-2.1-1.1-2.9-.9-.8.1-1.6.1-2.4-.1-.5-.1-1.1-.3-1.6 0"/><path fill="#FFF" d="M108.1 103.5h1.2c.7 0 1.7.1 2.2-.5.5-.6.6-1.8.4-2.7-.3-1.2-1.3-2.1-2.3-1.8-.5.1-.4.5-.6.9-.2.3-.4.1-.7-.2-.2-.4-.2-.6-.7-.5-.3.1-.6.3-.8.4-.1-.4-.3-.7-.6-.8-.3 0-1 .4-1.1.8.3 0 1.1-.3 1 .4 0 .6-.6.8-.4 1.6.1.5.5.7.6 1.2.1.3-.1.7 0 .9.1.3.1.2.3.3.5.1 1 0 1.5 0z"/><path fill="#33C5F3" d="M120.2 63.9c0-2.8-.7-5.2-3.3-6.6-3-1.6-4.2.2-6.8 1 1.7-2.2 2.6-3.1 5.6-3 2.5.1 5.2 1.1 7.7.9"/><linearGradient id="j" x1="142.392" x2="157.371" y1="98.609" y2="98.609" gradientUnits="userSpaceOnUse"><stop offset="0" stop-color="#ffecc4"/><stop offset=".456" stop-color="#ffe8b6"/><stop offset="1" stop-color="#ffe1a0"/></linearGradient><path fill="url(#j)" d="M142.4 97.1c.8-.4 2.1 1.3 3 1.8 1.3.7 2.5.8 3.9.9 2.7.3 5.2.9 8.1.7-.6-2.9-3.4-2-4.8-3.9"/><path fill="#FFF" stroke="#D7D7D6" stroke-width=".25" d="M129.6 96.3c9.3-.6 22.9-13.9 29.4-6.6 5.7 6.3 14.3 12.9 19.3 17.3-10 .7-18.3 5.7-27.6 6.8-7.9.9-12.1-14.8-17.1-18.1"/><linearGradient id="k" x1="-410.78" x2="-344.705" y1="-803.83" y2="-803.83" gradientTransform="translate(403.534 653.644) scale(.7162)" gradientUnits="userSpaceOnUse"><stop offset="0" stop-color="#ffecc4"/><stop offset=".456" stop-color="#ffe8b6"/><stop offset="1" stop-color="#ffe1a0"/></linearGradient><path fill="url(#k)" d="M112.4 56.5s-2.8 1.9-3.1 5.4c-.3 3.5 1.1 11.1 1.5 15.4.4 4.3 1.8 15.3 2.7 16.8.9 1.5.9 2.6 2.8 2.9 1.9.3 24.1-.3 25.3 0 1.1.3 1.5.5 3.2 1.5 1.6 1 2.7.8 3.3.9.6.1 4.6-2.4 4.6-2.4l2.6.7 1.4-.1s-.3-3.3-.9-3.3c-.6 0-3.2-.4-3.4-.4-.3 0-7.1-1-7.8-1-.7 0-2.5-.2-5.5-.7-3-.5-8.7-1.5-10.3-1.8-1.6-.3-4.2-.4-5.3-.6-1.1-.2-3.3.3-3.3.3s-.4-1.7-.3-3.8c.1-2.2-.2-15.5-.2-16.6 0-1.1 1.3-8.1.7-9.9-.7-1.8-3.3-2.6-5-2.9-1.6-.3-3-.4-3-.4z"/><path fill="#C0D7E8" stroke="#9FBDCD" stroke-width=".25" d="M144.2 83.6l.2.2s-.5.3-.7.4l-.5.5-.1-.1v-.1s.3-.4.5-.5c.1-.1.6-.4.6-.4z"/><path fill="#0E0E0F" stroke="#0E0E0F" stroke-width=".25" d="M143.2 84.7s1.9 2.6 2.3 3.1c.3.5 2 2.2 2.2 2.6.3.3 1 1.2 1.2 1.4.1.2.5.5.5.5s.5-.5.8-.7c.3-.2.7-.5.7-.5l.2-.2s-2.6-3-3.3-3.8c-.6-.7-1.7-1.9-2.1-2.2-.4-.4-1.1-1-1.1-1l-.1-.1s-.5.2-.6.4c-.3.1-.7.5-.7.5z"/><path fill="#C0D7E8" stroke="#9FBDCD" stroke-width=".25" d="M151 90.9s.1.1.1.2v.1l.5.6.3.4s-.4.3-.6.5c-.2.2-.5.4-.6.5-.1.1-.3.2-.3.2l-.8-1s-.1-.1-.2-.1h-.1l.8-.7.5-.4.4-.3z"/><path fill="#0E0E0F" stroke="#0E0E0F" stroke-width=".25" d="M150.4 93.4s2.7 2.9 3 3.4c.3.5 2.5 2.9 2.8 3.2.3.3 2 1.8 2.1 1.8.1 0 .4-.2.5-.3.1-.1.3-.4.3-.4s-.9-1.4-1.2-1.8c-.3-.4-1.9-2.4-2.2-2.7-.3-.4-2.2-2.4-2.4-2.7-.2-.3-.8-1-1-1.3l-.4-.4s-.4.3-.7.5c-.2.2-.8.7-.8.7z"/><path fill="#C0D7E8" stroke="#9FBDCD" stroke-width=".25" d="M160.3 102.9l-.3.2-1.7-1.2s.5-.3.6-.4c.1-.1.3-.4.3-.4l1.1 1.8z"/><path fill="#FFF" d="M151 92.9l5.6 6.4s1 1.2 1.1 1.3c.1.2.8.8.8.8v.1s-1.1-1-1.4-1.3c-.3-.3-.6-.7-.9-1-.2-.3-2-2.4-2.3-2.7-.3-.3-3.1-3.5-3.1-3.5l.2-.1z" opacity=".32"/><path fill="#4A4A4B" stroke="#4A4A4B" stroke-width=".25" d="M150.4 91.4l.4-.3.1.2-.2.1h-.2z" opacity=".11"/><path fill="#FFF" d="M158.9 101.1s-.1-.2-.5-.8c-.4-.5-2.1-2.4-2.1-2.4l-2.3-2.7-1.7-1.9-.5-.6-.3-.3-.2.1s.5.7.8.9c.2.2 1.2 1.4 1.4 1.6.2.2 1.4 1.6 1.6 2 .3.3 1.2 1.3 1.3 1.4.1.2 1 1.1 1.1 1.3.1.2.7.8.7.8l.3.4.4.2z" opacity=".32"/><path fill="#4A4A4B" stroke="#4A4A4B" stroke-width=".25" d="M158.8 101.6l1.3 1.4-1.2-1.5z" opacity=".31"/><path fill="#FFF" d="M159.7 102.1l-.6-.8v.1zm-.9-.5l-.2.2 1.5 1.2-.9-1z" opacity=".32"/><path fill="#C0D7E8" stroke="#9FBDCD" stroke-width=".25" d="M144.1 85.2s1.1 1.2 1.3 1.5c.2.3 2.3 2.8 2.4 2.9.1 0 1.4 1.6 1.4 1.6l.5-.4v-.1l-1.2-1.3-.2-.3-3.6-4.4s-.3 0-.4.1c-.1.1-.2.4-.2.4z"/><path fill="#4A4A4B" stroke="#4A4A4B" stroke-width=".25" d="M148.1 89.6s0 .1.1.1.3-.2.3-.2.1-.1 0-.1h-.1l-.3.2z" opacity=".11"/><path fill="#4A4A4B" stroke="#4A4A4B" stroke-width=".25" d="M149.3 91l.3-.3-1-1.1v-.1c0-.1-.1-.1-.1-.1s-.9-1-1-1.2c-.2-.2-1.4-1.7-1.5-1.8-.1-.1-.6-.7-.6-.8l-.3-.5-.2-.2s-.2-.2-.1-.2.7.7.9 1c.2.2 1.1 1.3 1.2 1.5.2.2.5.6.7.8.1.2.4.5.5.6.1.1.3.4.4.4l.2.3.1.2s1.1 1.1 1.1 1.2c0 .1-.2.2-.2.2l-.3.2-.1-.1zm-5.2-5.9l.3.4.3-.3s-.1-.3-.2-.3c-.1-.1-.1 0-.2 0 0-.1-.2.2-.2.2z" opacity=".11"/><path fill="#4A4A4B" stroke="#4A4A4B" stroke-width=".25" d="M149.4 91l-1.1-1.3s-3.5-4-3.6-4.1l-.2-.2-.3-.4v.1s1.8 2.2 1.9 2.3c.1.1 1.7 2 1.9 2.2.2.2 1 1.1 1 1.2.1.1.2.3.2.3l.2-.1z" opacity=".11"/><path fill="#FFF" stroke="#FFF" stroke-width=".25" d="M149.9 91.7l-.6-.6h-.1l.6.8z" opacity=".32"/><path fill="#FFF" d="M150.5 91.2s-4.6-5.5-4.7-5.3c-.2.2 2.5 2.9 2.6 3.2.1.3 1.6 1.8 1.6 1.8s.3.2.4.3c0 .2.1 0 .1 0z" opacity=".32"/><path fill="#4A4A4B" stroke="#4A4A4B" stroke-width=".25" d="M143.4 84.2l.2.1.3-.2-.1-.2-.2.1z" opacity=".11"/><path fill="#FFF" stroke="#FFF" stroke-width=".25" d="M144 83.8l.2.1-.3.2-.1-.2zm-.7.4l.2.2.1-.1-.2-.1z" opacity=".32"/><path fill="#C0D7E8" stroke="#9FBDCD" stroke-width=".25" d="M149.3 92.3s-.1.1.1.1h.2l.6-.6c.2-.2.9-.6.9-.6V91l-.1-.1s-1 .7-1.2.9c-.3.2-.5.5-.5.5z"/><path fill="#4A4A4B" stroke="#4A4A4B" stroke-width=".25" d="M150.3 91.9l.8.9.3-.2-.9-1-.2.1z" opacity=".31"/><path fill="#4A4A4B" stroke="#4A4A4B" stroke-width=".25" d="M151.8 92.4l-.9-1 .2-.1.8.9zm-2.3-.3l.3.1.9 1 .1-.2-.9-.9h-.4z" opacity=".11"/><path fill="#4A4A4B" stroke="#4A4A4B" stroke-width=".25" d="M150.7 91.1l.2.3.8 1-.7-1.1-.2-.2z" opacity=".11"/><path fill="#FFF" d="M149.7 91.9l.2.2.9.9.2-.1-.9-.9-.2-.3zm.9-.3l.3-.2.8 1-.3.2z" opacity=".32"/><linearGradient id="l" x1="154.321" x2="157.393" y1="95.979" y2="95.979" gradientUnits="userSpaceOnUse"><stop offset="0" stop-color="#ffecc4"/><stop offset=".456" stop-color="#ffe8b6"/><stop offset="1" stop-color="#ffe1a0"/></linearGradient><path fill="url(#l)" d="M155.8 94.5c1.6.9 1.6 1.9 1.6 3.7-.4-1-1.4-.9-1.9-1.6-.2-.3-.1-1.1-.3-1.5-.2-.5-1-.1-.9-1 2-1.3 1.7.8 2.8 1.6"/><linearGradient id="m" x1="141.951" x2="157.543" y1="98.954" y2="98.954" gradientUnits="userSpaceOnUse"><stop offset="0" stop-color="#ffecc4"/><stop offset=".456" stop-color="#ffe8b6"/><stop offset="1" stop-color="#ffe1a0"/></linearGradient><path fill="url(#m)" d="M142 97.3c.7 0 2.4 1.5 3.3 1.9 1.3.6 2.4 1.1 3.9.9 1.6-.2 2.6.1 4.1.3 1.3.2 3.1 0 4.3.7 0-1.7-.3-2.1-1.8-2.6-1.2-.4-3.2.2-2.8-1.7"/><linearGradient id="n" x1="143.298" x2="149.367" y1="41.271" y2="41.271" gradientUnits="userSpaceOnUse"><stop offset="0" stop-color="#ffecc4"/><stop offset=".456" stop-color="#ffe8b6"/><stop offset="1" stop-color="#ffe1a0"/></linearGradient><path fill="url(#n)" d="M147.1 42.9s-.6-1.9-1.4-1.4c-.7.5-1.4 1.9-1.4 1.9s-1.1 0-1.1-1.1 1-2.9 1.7-3.2c.7-.2 2.7.6 3.1 1.1l1.2 1.5-2.1 1.2z"/><linearGradient id="o" x1="140.693" x2="164.685" y1="69.321" y2="69.321" gradientUnits="userSpaceOnUse"><stop offset="0" stop-color="#ffecc4"/><stop offset=".456" stop-color="#ffe8b6"/><stop offset="1" stop-color="#ffe1a0"/></linearGradient><path fill="url(#o)" d="M144.7 53.2s-.7.9-1.7 0-2.2-6.5-2.2-6.5 8.1-5.5 8.7-4.9c.6.5 5.2 8.1 5.8 9.8.6 1.7 4.1 18 4.7 19.7.6 1.7 2.9 7.4 2.9 7.4s1.9 8.9 1.9 9.3c.4 13.8-6 7.5-6.9 7.1-2.2-1-3.2-4.4-4-6.1-.2-.5-.8-3.3-1-4.7-.1-1.4-.4-10-.5-11.2-.1-1.1-.5-10.3-.6-12.1-.1-1.8.6-5.3.2-5.6-.4-.3-2.1-.5-3-.9-.9-.4-1.7-.8-1.7-1.1 0-.4-.2.9-1.4.8-1.1-.1-1.2-1-1.2-1z"/><linearGradient id="p" x1="143.419" x2="149.616" y1="50.154" y2="50.154" gradientUnits="userSpaceOnUse"><stop offset="0" stop-color="#ffecc4"/><stop offset=".456" stop-color="#ffe8b6"/><stop offset="1" stop-color="#ffe1a0"/></linearGradient><path fill="url(#p)" d="M148.8 46s-1.5 2.3-2 2.4c-.5.1-1.9.1-1.9.1s.9 1.5 1.4 1.5c.5 0 3.1-1.7 3.1-1.7s.2-.5.2.8-1.7 3.4-2.2 3.8c-.5.4-.4 1.7-1.5 1.3-1.1-.4-2-3-2-3l-.5-2.2"/><linearGradient id="q" x1="152.218" x2="152.772" y1="58.058" y2="58.058" gradientUnits="userSpaceOnUse"><stop offset="0" stop-color="#ffecc4"/><stop offset=".456" stop-color="#ffe8b6"/><stop offset="1" stop-color="#ffe1a0"/></linearGradient><path fill="url(#q)" d="M152.2 56.3s.4 1.6.5 2.2c.1.5 0 1.4 0 1.4"/><path fill="none" stroke="#030202" stroke-width=".25" d="M169.8 104.9c-1.4-.2-1.7-.6-2.9-.3s-.7 1.7-2.4 1.4c-1-1.9-2.5 1.2-3.7 1.7-1.4-2.5-2.2 2.4-4.5 1.4-.4.8-1 1.2-1.5 1.9-1.2-.9-1.9.1-1.9 0m13.8-10c-.8.4-1.7 0-2.4-.5.1.5-.2 1.2-.1 1.7-.9-.4-1.1-.8-.9-1.9v4.1c-.6-.7-1.1-1.8-1.8-2.4-.2.4-.4.5-.6.9-.9-.2-1.1.3-1.4.5m-73.7 6.7c.4-.6.9-1.2 1.5-1.7.5-.1.5.7.9.9.3.2.7-.2 1-.4.3-.2.8-.3.9 0"/><g stroke-width=".25"><path fill="#FFF" stroke="#D7D7D6" d="M175.2 105.6l25.3-6c5.7 6.3 14.3 12.9 19.3 17.3-10 .7-27.6 6.8-27.6 6.8l-17-18.1"/><path fill="none" stroke="#030202" d="M211.3 114.8c-1.4-.2-1.7-.6-2.9-.3s-.7 1.7-2.4 1.4c-1-1.9-2.5 1.2-3.7 1.7-1.4-2.5-2.2 2.4-4.5 1.4-.4.8-1 1.2-1.5 1.9-1.2-.9-1.9.1-1.9 0m13.9-10c-.8.4-1.7 0-2.4-.5.1.5-.2 1.2-.1 1.7-.9-.4-1.1-.8-.9-1.9v4.1c-.6-.7-1.1-1.8-1.8-2.4-.2.4-.4.5-.6.9-.9-.2-1.1.3-1.4.5m3.5-6.3c-.2-.4-.7-.6-1.1-.4s-.6.6-.5 1c-.3-.3-.6-.7-1-.5-.2.1-.3.2-.4.3-.4.3-.9.2-1.4.4-.5.1-1 .6-.8 1-.4-.6-1.6-.4-1.7.4 0 .2 0 .5-.1.7-.2.3-.7.3-1 0-.3-.3-.4-.6-.4-1-.3.8-.7 1.5-1.2 2.2-.6-.3-1.2-.5-1.7-.8-.2.4-.3.7-.5 1.1m6.9-8.9c-.1.3-.2.7-.3 1-.5-.2-.9-.6-1.2-1l-.6 1.5-.6-1.2c-.3.4-.4.9-.3 1.4-.2-.3-.4-.7-.6-1-.3.5-.6.9-.9 1.4 0-.2 0-.5-.2-.5-.2-.1-.3.3-.1.3m-2.9.9c-.3-.4-.6-.8-1-1.1-.5.5-1 1.1-1.2 1.8-.1-.5-.8-.4-1.2-.2-.4.2-1.1.2-1.2-.3-.3.5-.6.9-1 1.4-.5-.1-1.1.1-1.5.5-.1-.5-.2-1.1-.4-1.6-.2.4-.3.9-.3 1.4-.2.1-.5.1-.7.1m7 10.1c-.2-.5 0-1.2.5-1.5.5-.3 1.2-.2 1.6.3l.3.3c.2.1.4-.2.6-.4.3-.5.6-1.1.9-1.6.3.3.6.5 1 .8.3-.5.7-1 1-1.5.1.8 1.5.8 1.6 0 .2.1.4.3.5.5"/></g><path fill="#B8B8B8" d="M54.3 51.5s.4-1.1-1.5-.9c-1.9.2-43.2 5.9-43.2 5.9s-1.8-.5-1.3.9 11 49.1 11.9 49.1c.9 0 44.2-11.5 44.3-12.2s-.8-3.3-.8-3.3l-9.4-39.5z"/><path fill="#999" d="M19.2 106.8S7.8 58.6 7.7 58.1c-.1-.5-.3-1.5.5-.7s12.1 50 12.1 50l-1.1-.6z"/><path fill="#000010" d="M61.8 91.6s-7.1-38.9-9.1-38.7c-2 .2-40.5 5.5-40.5 5.5s-1.3-.5-.9 1.3 10 42.1 10 42.1-.1 1.1.9.9c1-.2 39-9.9 39.6-11.1z"/><path fill="#B8B8B8" d="M63 94.8s35 10.1 35.5 10.4c.5.3-42.5 15.9-43.5 16.1-1 .2-34.2-13.5-35.8-14.5l43.8-12z"/><path fill="#999" d="M98.5 106.7s-41.8 15.8-42.4 16c-.6.2-.2.8-2.4 0-2.2-.8-34-13.8-34-13.8l-.5-2.2c.9.4 34.3 15 35.8 14.5s43.5-16.1 43.5-16.1.7.4.6 1.2c-.1 1-.6.4-.6.4z"/><circle cx="62.7" cy="93" r=".5" fill="#999"/><path fill="#666" d="M70.5 105.8l-.5.2-10.9 3.7 8.8 3.2s8 .9 10.5-1c2.4-1.9.7-3-1.2-3.9"/><path fill="#666" stroke="#333" d="M31.2 106.2l-4.2 1.2-.8-.5 4.2-1.1zm21.7 14.6v1.6l-2-.8v-1.5zm-2.9-1.1v1.5l-2.5-1.1v-1.3zm-3.1-1.2v1.5l-2.2-1 .3-1.4z"/><path fill="#666" d="M81.7 100.8L67 96.6l-40.3 11.9s-2.4-.3-.5.4 13.2 5.7 13.2 5.7 1.3 1.1 3.3.4 39-13.7 39-13.7v-.5z"/><circle cx="22" cy="103.9" r=".5" fill="#999"/><ellipse cx="21.1" cy="106.7" fill="#666" rx=".6" ry="1" transform="rotate(157.117 21.112 106.7)"/><ellipse cx="60.9" cy="95.7" fill="#999" stroke="#666" rx=".8" ry=".9"/><path fill="#999" stroke="#666" d="M64 93.9l-43.5 12s1.7-.1.9 1.7c-.2.5 43.3-12 43.3-12s1.4-1.4-.7-1.7z"/><path fill="#666" stroke="#666" d="M57.1 97.7s.8.1.3-1.1c-.5-1.2-1.6-.4-1.6-.4l5.2-1.4s.7.2.8.9c.2.7-.8.9-.8.9l-3.9 1.1zm-25.5 7.1s.8.1.3-1.1c-.5-1.2-1.6-.4-1.6-.4l5.2-1.4s.7.2.8.9c.2.7-.8.9-.8.9l-3.9 1.1z"/><path fill="#79C045" d="M193.7 65.7c2.5 6.6 6.2 10.8 8.4 9.5 2.2-1.3 2-7.8-.5-14.3-2.5-6.6-6.2-10.8-8.4-9.5-2.2 1.3-2 7.7.5 14.3z"/><path fill="#ACD26D" d="M214.1 59.2s2.7 6.8-1.8 15.6-4 8.6-3.3 13.2c.7 4.6 1.1 5.5 2.2 6 1.2.4 1.8-1.2 1.8-1.2l1.7.3-.1 3.1s-3.1.3-4.9-.2c-1.8-.5-2.8-3.4-2.8-5.1-.1-1.7-.1-6.3 1-9.6 1.1-3.4 2.2-6.3 3.4-8.1 1.2-1.8 1.6-4.8 1.7-6.9.1-2.1-.9-6.6-.9-6.6l2-.5z"/><path fill="#FFCD33" d="M217.6 101.2s-4-7.1-7.8-6.5c-3.8.6-6.9 5.9-6.9 5.9l14.7.6zm-1.1-43.9l-8.9 5.1s-1-7.6-2.2-8.6c-1.2-1 7.7-6.6 9-5.5 1.3 1.1 1.6 1.9 2.1 4.4.6 2.5-.1 4.1-.1 4.1"/><path fill="#ECF5E5" stroke="#ACD26D" stroke-width=".25" d="M198.9 63.3c.9 2.6 2.5 4.3 3.6 3.7 1.1-.6 1.2-3.2.3-5.9-.9-2.6-2.5-4.3-3.6-3.7-1.1.6-1.3 3.3-.3 5.9z"/><path fill="#ACD26D" d="M208.3 60.8s-4.1 13.7-4.7 13.7c-.7-.1-.7-11.4-2.3-14.7-1.6-3.3-5-7.5-6.4-7.5-1.4.1-2.7.9-2.7.9s.1-1.8 1.8-2c1.7-.3 8.1 1.2 9.2 1.9 1.1.7 2.4.9 2.4.9s.9-.1 1.7 2c.6 2 1 4.8 1 4.8z"/><path fill="#F7DABF" d="M1.4 126.8H220v2.4H1.4z"/><path fill="#33C5F3" d="M14.6 61.1l36.3-5.4 7.9 34.1-36.3 9.8z"/><path fill="#FFF" stroke="#D7D7D6" stroke-width=".25" d="M19.5 65.5l20-3 4.4 18.8-20 5.5z"/><path fill="#FFF" stroke="#D7D7D6" stroke-width=".25" d="M30.5 73.5l20-3 4.4 18.8-20 4.5z"/><path fill="#5F69AF" d="M19.5 65.5l20-3 1.1 4.6-20 3.4zm31 5l1.2 5-19.9 3-1.3-5z"/></g></switch></svg>
