<svg xmlns="http://www.w3.org/2000/svg" xmlns:xlink="http://www.w3.org/1999/xlink" version="1.0" viewBox="0 0 220 129"><switch><g><symbol id="f" viewBox="-20.5 -31.7 41 63.3"><path fill="#659840" d="M5.2-31.7s3.3 17.5-6.5 45.8"/><path fill="#F5EB6B" stroke="#969837" d="M-5.2 22.4s-2.7 9.8 1.6 8.7C.8 30-2 23.5-2 23.5s1.1 3.8 4.9 6c3.8 2.2 2.7-3.8 2.7-3.8l-4.4-5.5s8.2 6 11.5 6c3.3 0 3.3-1.6 0-3.3-3.3-1.6-7.6-3.8-7.6-3.8s7.1 1.6 9.8 1.1c2.7-.5 7.1-1.1 3.8-2.7S8.3 15.9 8.3 15.9l-4.9-.5s5.5-1.6 9.8-3.3c4.4-1.6 7.1-4.9 2.7-3.8-4.4 1.1-12 4.4-12 4.4s.5-3.3 2.7-4.9C9 6 7.4 1.6 4.1 4.3S.3 13 .3 13s1.6-8.2 0-9.8c-1.6-1.6-6-3.3-5.5.5s1.6 9.8 1.6 9.8-3.3-7.1-7.1-8.7c-3.8-1.6-5.5 0-2.7 3.3l3.8 6s-7.6-4.9-9.3-4.4c-1.6.5-2.7 3.8 5.5 8.2 8.2 4.4 4.4 0 4.4 0l-7.6 4.9s0 4.9 3.8 3.8c3.8-1 7.6-4.2 7.6-4.2z"/><path fill="#663817" d="M2.6 18.9s-3.4 7.5-8.3 1.5c-5-5.9 8.9-8.8 8.3-1.5z"/></symbol><path fill="#84C341" d="M0 0h220v128.5H0z"/><path fill="#FAF3A3" d="M190 70.5l.5-31.4L115.6 0H49.8zm29.4-65.3l-27.7 30.6-.4 34.3h.4l27.7-14.5z"/><path fill="#FDDD88" stroke="#FDDD88" stroke-width=".25" d="M219.9 3.6l-31.6 32.7 3.3 1.8 28.3-29.3z"/><linearGradient id="a" x1="207.842" x2="219.428" y1="31.366" y2="31.366" gradientUnits="userSpaceOnUse"><stop offset="0" stop-color="#4da2d9"/><stop offset=".123" stop-color="#5ba9dc"/><stop offset=".355" stop-color="#7fbce4"/><stop offset=".672" stop-color="#bbdbf0"/><stop offset="1" stop-color="#fff"/></linearGradient><path fill="url(#a)" d="M219.4 20.6L207.8 26l1.4 16.1 10.2-4.6z" opacity=".74"/><path fill="#EAEAE9" stroke="#EAEAE9" d="M207.8 43.6l-.4-17.2-2.2-.8s0 16.1.2 16.6c.3.4 2.4 1.4 2.4 1.4z"/><path fill="#DBDBDA" stroke="#DBDBDA" d="M219.4 35.5L208 40.8l-.2 2.6 11.6-5.6z"/><path fill="#EAEAE9" stroke="#EAEAE9" d="M216.8 39l3.2-1.5-.5-9.7-.2-6.8-3.3 1.7z"/><path fill="#DBDBDA" stroke="#DBDBDA" d="M216.3 30l1.7.3-10.2 5.1-.2-1.1z"/><path fill="#FFF" stroke="#FFF" stroke-width=".25" d="M208.6 25.9l.9 16.7-1.7 1-.4-17.5zm10.8-4.9l-2 1 1.5 16.2.5-.3z"/><path fill="#FFF" stroke="#FFF" stroke-width=".25" d="M219.4 37.1l-11.5 5.2-.2 1.2 11.7-5.2zm0-16.9l-11.8 6.1v1.2l11.8-6.4zm0-1.8l-14.1 7.2 2.1.8 12-6.3zM218 30v.6l-8.9 4.2v-.5z"/><path fill="#FDDD88" stroke="#FDDD88" stroke-width=".25" d="M191.3 71.5l-2.2 1 .2-33.6 2.6-.8z"/><path fill="#FDDD88" stroke="#FDDD88" stroke-width=".25" d="M219.4 53.2l-29.9 15.6-.8 2.5 30.7-15.7z"/><path fill="#FDDD88" stroke="#FDDD88" stroke-width=".25" d="M189.3 71.2l.1-1.7L52.3 0H48z"/><path fill="#FDDD88" d="M190.5 39.1l29.4-30.3V0H115.3z"/><path fill="#FDDD88" stroke="#FDDD88" stroke-width=".25" d="M187.7 41l1.5-2.2L114.6 0h-6.1z"/><path fill="#FFF" stroke="#FFF" stroke-width=".25" d="M60.6.6V0h-1.2z"/><path fill="#EDECEA" stroke="#EDECEA" stroke-width=".25" d="M61.7 0h-1.1v.6z"/><path fill="#FFF" stroke="#FFF" stroke-width=".25" d="M60.6.6V0h-1.2z"/><linearGradient id="b" x1="91.819" x2="108.85" y1="3.885" y2="3.885" gradientUnits="userSpaceOnUse"><stop offset="0" stop-color="#4da2d9"/><stop offset=".123" stop-color="#5ba9dc"/><stop offset=".355" stop-color="#7fbce4"/><stop offset=".672" stop-color="#bbdbf0"/><stop offset="1" stop-color="#fff"/></linearGradient><path fill="url(#b)" d="M91.8 1.6l13.7 6.2 3.3-4.7-6.4-3.1h-9.9z" opacity=".76"/><linearGradient id="c" x1="91.863" x2="93.771" y1=".447" y2=".447" gradientUnits="userSpaceOnUse"><stop offset="0" stop-color="#4da2d9"/><stop offset=".123" stop-color="#5ba9dc"/><stop offset=".355" stop-color="#7fbce4"/><stop offset=".672" stop-color="#bbdbf0"/><stop offset="1" stop-color="#fff"/></linearGradient><path fill="url(#c)" d="M92.2 0l-.3.9 1.9-.9z"/><linearGradient id="d" x1="105.127" x2="109.24" y1="5.394" y2="5.394" gradientUnits="userSpaceOnUse"><stop offset="0" stop-color="#4da2d9"/><stop offset=".123" stop-color="#5ba9dc"/><stop offset=".355" stop-color="#7fbce4"/><stop offset=".672" stop-color="#bbdbf0"/><stop offset="1" stop-color="#fff"/></linearGradient><path fill="url(#d)" d="M105.1 8.3l3.5-5.8.6 4.7z"/><path fill="#FFF" stroke="#FFF" stroke-width=".25" d="M91.1 0l-.6 1.4 1.4-.5.3-.9z"/><path fill="#FFF" stroke="#FFF" stroke-width=".25" d="M90.5 1.4l14.6 6.9 1-.4-14.2-7z"/><path fill="#FFF" stroke="#FFF" stroke-width=".25" d="M105.1 8.3l4.1-1.1-.1-.8-3.7 1.1z"/><path fill="#FFF" stroke="#FFF" stroke-width=".25" d="M108.6 2.5l-2.5 5.4-1 .4 2.5-6z"/><path fill="#FFF" stroke="#FFF" stroke-width=".25" d="M107.6 2.8l1-.3-5.2-2.5h-1.8zM92.1 0l-.2.9 1.9-.9z"/><path fill="#EDECEA" stroke="#EDECEA" stroke-width=".25" d="M135.9 22.6v-1.3l1-.3-.4 17.7-1.1.6z"/><linearGradient id="e" x1="136.254" x2="152.994" y1="34.722" y2="34.722" gradientUnits="userSpaceOnUse"><stop offset="0" stop-color="#4da2d9"/><stop offset=".123" stop-color="#5ba9dc"/><stop offset=".355" stop-color="#7fbce4"/><stop offset=".672" stop-color="#bbdbf0"/><stop offset="1" stop-color="#fff"/></linearGradient><path fill="url(#e)" d="M136.3 21.8l15.9 8.2.8 17.7-16.5-9 .5-16.6z" opacity=".71"/><path fill="#FFF" stroke="#FFF" stroke-width=".25" d="M152 48.3v-.6L135.4 39v.4z"/><path fill="#EDECEA" stroke="#EDECEA" stroke-width=".25" d="M136.7 31l-.9.2 7.6 4 1-.2z"/><path fill="#EDECEA" stroke="#EDECEA" stroke-width=".25" d="M143.6 25.4l1-.2-.4 17.7-1.1.6z"/><path fill="#EDECEA" stroke="#EDECEA" stroke-width=".25" d="M144.5 35l-1 .1 7.7 4.1 1-.2z"/><path fill="#FFF" stroke="#FFF" stroke-width=".25" d="M151.8 31v-1.3l-16.2-8.3.3 1.2z"/><path fill="#EDECEA" stroke="#EDECEA" stroke-width=".25" d="M136.8 21l16.2 8.4-.9.5-16.5-8.5z"/><path fill="#EDECEA" stroke="#EDECEA" stroke-width=".25" d="M151.8 29.7l1.4-.4v18.4l-1.2.6z"/><path fill="#FFF" stroke="#FFF" stroke-width=".25" d="M151.8 40.7v-1.3L135.6 31l.3 1.3z"/><path fill="#FFF" stroke="#FFF" stroke-width=".25" d="M135.8 21.4l.4.5-.8 17.3-.6-.2zm16 8.3l.2 18.6-1.2-.6V29.2z"/><use width="41" height="63.3" x="-20.5" y="-31.7" overflow="visible" transform="matrix(.1618 0 0 -.1224 93.162 109.495)" xlink:href="#f"/><path fill="none" d="M86.2 120.9c-.6-.3-1-.7-1.1-1.2.3.2.8.4 1.1.6-.3-.5-.6-1-.5-1.5.7.3.9.9 1.4 1.4.3-.3.8-.5 1.1-.8v1.2"/><use width="41" height="63.3" x="-20.5" y="-31.7" overflow="visible" transform="matrix(.1618 0 0 -.1224 104.546 105.042)" xlink:href="#f"/><path fill="#6FBD44" d="M84.2 98.7c.2-.5.1-1.1-.5-1.3-.4.4 0 1 .5 1.3"/><path fill="none" d="M83.7 100.2s.6-3.3 2.8-4.4"/><path fill="#EE3C39" d="M87.3 94.6c-.3-.3-.5-.8-1-.9-.6-.1-.3.3-.5.6-.2.2-.8.2-.5.7.2.4.8.1 1.2.1-.2.2-1.1.2-1.2.5-.1.2.1.2.3.3.3.2.2.1.4.3.2.2.3.5.7.2.3-.1.4-.5.5-.8.1.2-.2.9.1 1 .3.2.7 0 .7-.2.4 0 .8.2 1-.2.1-.3-.4-.8-.8-.9.3.1 1 .4 1.3.2.3-.2 0-.3.1-.5s.4-.2.2-.4c-.1-.1-.3-.2-.5-.2-.4 0-.8.2-1.1.4.2-.3.8-.7.6-1-.2-.2-.4-.1-.6-.1 0 0-.1.1-.2.1-.2 0-.1-.2-.3-.2-.4-.2-.9-.1-.9.3.1.2.5.5.5.7"/><ellipse cx="87.5" cy="95" fill="#FFCE34" rx=".5" ry=".4"/><path fill="#6FBD44" d="M52.9 93.5c.2-.5.1-1.1-.5-1.3-.3.4 0 1 .5 1.3"/><path fill="none" d="M52.4 95s.6-3.3 2.8-4.4"/><path fill="#EE3C39" d="M56.1 89.3c-.3-.3-.5-.8-1-.9-.6-.1-.3.3-.5.6-.2.2-.8.2-.5.7.2.4.8.1 1.2.1-.3.2-1.1.2-1.2.5-.1.2.1.2.3.3.3.2.2.1.4.3.2.2.3.5.7.2.3-.1.4-.5.5-.8.1.2-.2.9.1 1 .3.2.7 0 .7-.2.4 0 .8.2 1-.2.1-.3-.4-.8-.8-.9.3.1 1 .4 1.3.2.3-.2 0-.3.1-.5s.4-.2.2-.4c-.1-.1-.3-.2-.5-.2-.4 0-.8.2-1.1.4.2-.3.8-.7.6-1-.2-.2-.4-.1-.6-.1 0 0-.1.1-.2.1-.2 0-.1-.2-.3-.2-.4-.2-.9-.1-.9.3 0 .2.4.5.5.7"/><ellipse cx="56.2" cy="89.7" fill="#FFCE34" rx=".5" ry=".4"/><path fill="#6FBD44" d="M36.8 74.2c.2-.5.1-1.1-.5-1.3-.3.4 0 1 .5 1.3"/><path fill="none" d="M36.3 75.7s.6-3.3 2.8-4.4"/><path fill="#EE3C39" d="M40 70.1c-.3-.3-.5-.8-1-.9-.6-.1-.3.3-.5.6-.2.2-.8.2-.5.7.2.4.8.1 1.2.1-.2.1-1.1.1-1.2.4-.1.2.1.2.3.3.3.2.2.1.4.3.2.2.3.5.7.2.3-.1.4-.5.5-.8.1.2-.2.9.1 1 .3.2.7 0 .7-.2.4 0 .8.2 1-.2.1-.3-.4-.8-.8-.9.3.1 1 .4 1.3.2.3-.2 0-.3.1-.5s.4-.2.2-.4c-.1-.1-.3-.2-.5-.2-.4 0-.8.2-1.1.4.2-.3.8-.7.6-1-.2-.2-.4-.1-.6-.1 0 0-.1.1-.2.1-.2 0-.1-.2-.3-.2-.4-.2-.9-.1-.9.3 0 .2.4.5.5.8"/><ellipse cx="40.2" cy="70.5" fill="#FFCE34" rx=".5" ry=".4"/><path fill="#6FBD44" d="M18.3 94c.2-.5.1-1.1-.5-1.3-.3.4 0 1 .5 1.3"/><path fill="none" d="M17.8 95.6s.6-3.3 2.8-4.4"/><path fill="#EE3C39" d="M21.5 89.9c-.3-.3-.5-.8-1-.9-.6-.1-.3.3-.5.6-.2.2-.8.2-.5.7.2.4.8.1 1.2.1-.2.2-1.1.2-1.2.5-.1.2.1.2.3.3.3.2.2.1.4.3.2.2.3.5.7.2.3-.1.4-.5.5-.8.1.2-.2.9.1 1 .3.2.7 0 .7-.2.4 0 .8.2 1-.2.1-.3-.4-.8-.8-.9.3.1 1 .4 1.3.2.3-.2 0-.3.1-.5s.4-.2.2-.4c-.1-.1-.3-.2-.5-.2-.4 0-.8.2-1.1.4.2-.3.8-.7.6-1-.2-.2-.4-.1-.6-.1 0 0-.1.1-.2.1-.2 0-.1-.2-.3-.2-.4-.2-.9-.1-.9.3 0 .2.4.5.5.7"/><ellipse cx="21.6" cy="90.3" fill="#FFCE34" rx=".5" ry=".4"/><use width="41" height="63.3" x="-20.5" y="-31.7" overflow="visible" transform="matrix(.1618 0 0 -.1224 53.948 78.997)" xlink:href="#f"/><use width="41" height="63.3" x="-20.5" y="-31.7" overflow="visible" transform="matrix(.1618 0 0 -.1224 13.22 75.98)" xlink:href="#f"/><use width="41" height="63.3" x="-20.5" y="-31.7" overflow="visible" transform="matrix(-.1618 0 0 -.1224 42.48 77.142)" xlink:href="#f"/><use width="41" height="63.3" x="-20.5" y="-31.7" overflow="visible" transform="matrix(.1618 0 0 -.1224 46.783 53.925)" xlink:href="#f"/><use width="41" height="63.3" x="-20.5" y="-31.7" overflow="visible" transform="matrix(.1618 0 0 -.1224 94.593 92.34)" xlink:href="#f"/><use width="41" height="63.3" x="-20.5" y="-31.7" overflow="visible" transform="matrix(.1618 0 0 -.1224 57.22 85.746)" xlink:href="#f"/><use width="41" height="63.3" x="-20.5" y="-31.7" overflow="visible" transform="matrix(-.1618 0 0 -.1224 72.666 97.516)" xlink:href="#f"/><use width="41" height="63.3" x="-20.5" y="-31.7" overflow="visible" transform="matrix(.1618 0 0 -.1224 32.638 90.575)" xlink:href="#f"/><path fill="#6FBD44" d="M35.6 104.1c.2-.5.1-1.1-.5-1.3-.3.4 0 1 .5 1.3"/><path fill="none" d="M35.1 105.7s.6-3.3 2.8-4.4"/><path fill="#EE3C39" d="M38.8 100c-.3-.3-.5-.8-1-.9-.6-.1-.3.3-.5.6-.2.2-.8.2-.5.7.2.4.8.1 1.2.1-.2.2-1.1.2-1.2.5-.1.2.1.2.3.3.3.2.2.1.4.3.2.2.3.5.7.2.3-.1.4-.5.5-.8.1.2-.2.9.1 1 .3.2.7 0 .7-.2.4 0 .8.2 1-.2.1-.3-.4-.8-.8-.9.3.1 1 .4 1.3.2.3-.2 0-.3.1-.5s.4-.2.2-.4c-.1-.1-.3-.2-.5-.2-.4 0-.8.2-1.1.4.2-.3.8-.7.6-1-.2-.2-.4-.1-.6-.1 0 0-.1.1-.2.1-.2 0-.1-.2-.3-.2-.4-.2-.9-.1-.9.3 0 .2.4.5.5.7"/><ellipse cx="38.9" cy="100.4" fill="#FFCE34" rx=".5" ry=".4"/><path fill="#6FBD44" d="M10.7 104.7c.2-.5.1-1.1-.5-1.3-.4.4-.1 1 .5 1.3"/><path fill="none" d="M10.2 106.3s.6-3.3 2.8-4.4"/><path fill="#EE3C39" d="M13.8 100.6c-.3-.3-.5-.8-1-.9-.6-.1-.3.3-.5.6-.2.2-.8.2-.5.7.2.4.8.1 1.2.1-.2.2-1.1.2-1.2.5-.1.2.1.2.3.3.3.2.2.1.4.3.2.2.3.5.7.2.3-.1.4-.5.5-.8.1.2-.2.9.1 1 .3.2.7 0 .7-.2.4 0 .8.2 1-.2.1-.3-.4-.8-.8-.9.3.1 1 .4 1.3.2.3-.2 0-.3.1-.5s.4-.2.2-.4c-.1-.1-.3-.2-.5-.2-.4 0-.8.2-1.1.4.2-.3.8-.7.6-1-.2-.2-.4-.1-.6-.1 0 0-.1.1-.2.1-.2 0-.1-.2-.3-.2-.4-.2-.9-.1-.9.3 0 .2.5.5.5.7"/><ellipse cx="14" cy="101" fill="#FFCE34" rx=".5" ry=".4"/><path fill="#6FBD44" d="M38.1 94.3c.2-.5.1-1.1-.5-1.3-.4.4-.1 1 .5 1.3"/><path fill="none" d="M37.6 95.8s.6-3.3 2.8-4.4"/><path fill="#EE3C39" d="M41.2 90.2c-.3-.3-.5-.8-1-.9-.6-.1-.3.3-.5.6-.2.2-.8.2-.5.7.2.4.8.1 1.2.1-.2.2-1.1.2-1.2.5-.1.2.1.2.3.3.3.2.2.1.4.3.2.2.3.5.7.2.3-.1.4-.5.5-.8.1.2-.2.9.1 1 .3.2.7 0 .7-.2.4 0 .8.2 1-.2.1-.3-.4-.8-.8-.9.3.1 1 .4 1.3.2.3-.2 0-.3.1-.5s.4-.2.2-.4c-.1-.1-.3-.2-.5-.2-.4 0-.8.2-1.1.4.2-.3.8-.7.6-1-.2-.2-.4-.1-.6-.1 0 0-.1.1-.2.1-.2 0-.1-.2-.3-.2-.4-.2-.9-.1-.9.3.1.2.5.5.5.7"/><ellipse cx="41.4" cy="90.6" fill="#FFCE34" rx=".5" ry=".4"/><path fill="#6FBD44" d="M71.3 95.5c.2-.5.1-1.1-.5-1.3-.4.4-.1 1 .5 1.3"/><path fill="none" d="M70.8 97.1s.6-3.3 2.8-4.4"/><path fill="#EE3C39" d="M74.4 91.4c-.3-.3-.5-.8-1-.9-.6-.1-.3.3-.5.6-.2.2-.8.2-.5.7.2.4.8.1 1.2.1-.2.2-1.1.2-1.2.5-.1.2.1.2.3.3.3.2.2.1.4.3.2.2.3.5.7.2.3-.1.4-.5.5-.8.1.2-.2.9.1 1 .3.2.7 0 .7-.2.4 0 .8.2 1-.2.1-.3-.4-.8-.8-.9.3.1 1 .4 1.3.2.3-.2 0-.3.1-.5s.4-.2.2-.4c-.1-.1-.3-.2-.5-.2-.4 0-.8.2-1.1.4.2-.3.8-.7.6-1-.2-.2-.4-.1-.6-.1 0 0-.1.1-.2.1-.2 0-.1-.2-.3-.2-.4-.2-.9-.1-.9.3 0 .2.4.5.5.7"/><ellipse cx="74.6" cy="91.8" fill="#FFCE34" rx=".5" ry=".4"/><linearGradient id="g" x1="38.977" x2="69.938" y1="119.148" y2="155.559" gradientUnits="userSpaceOnUse"><stop offset="0" stop-color="#6fbd44"/><stop offset="1" stop-color="#359846"/></linearGradient><path fill="url(#g)" d="M77.3 127.2c14.1-.4-5.5-6.7 8.4-6.4-.2-3.5-9.2.3-9.5-3.2-.2-3.4-7.6-6.9-6.8-10.1-2.2.2-2.8 2.1-4.3 3.2.1-.8 0-1.8.2-2.6-1 1.1-1.4 2.3-2.1 3.7-.5-1-.7-2.6-1.3-3.5 0 1.5-.3 3-1.2 4.2-.9-.5-1.3-.9-1.5-2-.2.3-.7.8-.8 1-.1-1.4.4-2.8.2-4.3-1.6.2-2.9 1.8-3.7 3.1-.2-1.5.4-3.3 0-4.7-1.2.9-2.2 2-2.7 3.4-.2-.6-1-1.6-1.2-2.1-.1.2-.2.5-.3.7-.2-.8-.7-1.6-1.1-2.3-.7 1.2-.5 2.5-1.2 3.6-.6-1.1-.8-2.5-1.8-3.4.1 1.7 1.2 6.4-1.8 6.4.1-.9-.2-1.8-.3-2.6-.5 1-1.6 1.8-2.8 1.7.7-1.1 1.4-2.2 1.6-3.4-2.1.5-3.3 1.8-4.9 3.1.5-1.2 1.2-2.6 1.1-3.9-2.5 1-4.2 4-6.4 4.8 0-.9-.6-1.3-.9-2.1-.2 0-.3.1-.3.2-.1-.3-.9-1-1.1-1.4-.3.3-1.1.6-1.4.8-.6-1.3-.9-2.9-.9-4.4-1.4 1.3-2.2 3-2.7 4.7-1-.6-1.9-1.4-2.6-2.3.1 1.1.1 2.1-.3 3.1-.7-.5-1.5-1.2-2-1.9-.2.5-.8 1-.9 1.4-.1-.3-.5-.6-.7-1.3-.2.4-.9 1.2-1.1 1.7-.5-.9-.7-2.2-.6-3.3-1.7 1.3-1.5 3.1-1.8 5-.5-.9-1.4-1.9-2-2.9.4 1.9.6 3.3 0 5.2 0-1.3-.6-2.5-1.6-3.4 1.2 1.8.8 4.2.2 6.1-.1-.4-.5-.8-.7-1.3-.5.7-.7 1.7-.5 2.6-.4-.8-1.1-1.4-1.8-2-.5 1.3-.3 3.1.3 4.5-.9-1.1-1.8-2.7-3.4-3.2.9 1.6 1.6 3.4 1.7 5.3-.2-1.7-2.1-3.1-3.7-3.9.3 1 .7 2 1 3.1-1.9-2.2-3.8-.8-2.1 1.6-.5-.3-1.1-.4-1.7-.6v3c.2.3.4.7.7 1-.3-.1-.5-.2-.7-.2v1.7h13.3c12.8-.2 57.5-1 62.5-1.2z"/><path fill="#FFF" d="M82.2 121.9l-1.1 6.6h5.3l.9-5.9-2.2-2z"/><linearGradient id="h" x1="54.678" x2="64.516" y1="3.156" y2="14.725" gradientUnits="userSpaceOnUse"><stop offset="0" stop-color="#6fbd44"/><stop offset="1" stop-color="#359846"/></linearGradient><path fill="url(#h)" d="M51.7 2.7c2.4 1.3 4.8 2.5 7.2 3.8 1.4.8 3.2 2 4.6 2.5h-.2 1c-.4-.2-.7-.4-1.1-.5.6.1 1 0 .9-.4-.3-.1-.6-.3-.9-.3 1 .1.4-.6-.7-.7.2-.1.5-.1.8-.2-.8-.2-1.8-.5-2-.3.2-.3.7-.4 1.3-.4-.7-.3-1.3-.3-1.8-.3.4-.1.7-.3.6-.6-.4-.1-.8-.2-1-.1.2-.1.2-.3.1-.5h-.4c-.1-.4 0-.9.7-.8-.5-.1-1-.1-1.1.1-.1-.4.2-.6.6-.8-.4 0-.9-.1-1.2 0 0-.4.3-.6-.3-1.2 0 .2-.3.3-.6.4 0-.1-.3-.4-.3-.5-.1.1-.3 0-.4 0 0-.1-.2-.3-.3-.4-.3 0-.7-.1-1.1-.2-.3-.3-.1-.5 0-.6-.4 0-.9-.1-1.4-.3 0-.1 0-.3-.1-.4h-8c1.6.8 3.3 1.7 5.1 2.7z"/><path fill="none" d="M57.2 3.8c.3.1.5.1.6.1-.1-.1-.4-.2-.6-.1.2-.1.4-.1.4-.2-.4-.1-.5-.1-.8-.1-.1-.1-.3-.2-.4-.4 0 .1-.1.1-.1.2"/><linearGradient id="i" x1="2649.373" x2="2667.918" y1="-8789.918" y2="-8768.11" gradientTransform="matrix(-.8305 -.555 -.1435 .2627 1017.5 3796.318)" gradientUnits="userSpaceOnUse"><stop offset="0" stop-color="#6fbd44"/><stop offset="1" stop-color="#359846"/></linearGradient><path fill="url(#i)" d="M92 25.6h1c-.4-.2-.7-.4-1.1-.5.6.1 1 0 .9-.4-.3-.1-.6-.3-.9-.3 1 .1.4-.6-.7-.7.2-.1.5-.1.8-.2-.8-.2-1.8-.5-2-.3.2-.3.7-.4 1.3-.4-.7-.3-1.3-.3-1.8-.3.4-.1.7-.3.6-.6-.4-.1-.8-.2-1-.1.2-.1.2-.3.1-.5h-.4c-.1-.4 0-.9.7-.8-.5-.1-1-.1-1.1.1-.1-.4.2-.6.6-.8-.4 0-.9-.1-1.2 0 0-.4.3-.6-.3-1.2 0 .2-.3.3-.6.4 0-.1-.3-.4-.3-.5-.1.1-.3 0-.4 0 0-.1-.2-.3-.3-.4-.3 0-.7-.1-1.1-.2 0-.2.1-.4.2-.5-.4 0-.9-.1-1.4-.3 0-.4-.2-.8-.7-1.3-.2.2-.5.4-.9.4-.1-.1-.4-.3-.5-.4-.1 0-.6-.1-.6-.1s0-.1-.1-.1c-.2 0-.5 0-.6.1-.9-.6-1.3-1.4-2.3-2.2-.2.2 0 .5.1.8-.6-.6-1-1-1.8-1.6 0 .2.2.6.3.9-.6-.3-1-.6-1.1-.9-.2.1-.4.1-.4.3-1.3-.7-.3-1.1-.1-1.3-.5-.1-.8 0-1.1.1-.2-.3 0-.5-.1-.8-.2 0-.6 0-.7.1v-.2h-.7c-.1-.3-.4-.7-.8-1.1-.4.1-.3.5-.5.7-.2-.4-.6-.9-1.3-1.3-.3.2-.2.5-.4.7 0-.1-.2-.2-.3-.3-.2.1-.5.1-.9-.1-.3-.4-.2-.7-.1-.9-.4 0-.6.2-1 .2-.1-.3-.2-.6-.5-1 0 .1-.2.3-.2.4-.6-.5-1.8.2-2.8-.4 0 .7-.8-.5-1.2 0-.5.5 1.6 2.3 1.1 2.8 6.1 3.2 11.3 5.6 17.5 8.9 2.4 1.3 4.8 2.5 7.2 3.8 1.4.8 3.2 2 4.6 2.5"/><path fill="none" d="M85.9 20.5c.3.1.5.1.6.1-.1-.1-.3-.2-.6-.1.2-.1.4-.1.4-.2-.4-.1-.5-.1-.8-.1-.1-.1-.3-.2-.4-.4 0 .1-.1.1-.1.2m-13.2-6.1c.1 0 .2-.1.2-.2-.1 0-.3-.1-.5-.1v-.1h-.3c-.3-.2-.3-.4-.7-.6-.1.1 0 .3-.2.2m-3.6-2.8c.2 0 .4 0 .7.1-.2-.1-.4-.2-.6-.2h.4c-.4-.1-.7-.2-1-.3-.2-.2-.4-.4-.7-.6-.1.1.1.3 0 .3m8.7 5.1c0-.1-.1-.2-.1-.3.1.1.3.2.4.2-.1-.1-.1-.2-.2-.2.3.2.5.4.5.5.3.1.6.1.9.3-.1 0-.1.1-.2.1"/><linearGradient id="j" x1="2617.803" x2="2636.348" y1="-8801.125" y2="-8779.316" gradientTransform="matrix(-.8305 -.555 -.1435 .2627 1017.5 3796.318)" gradientUnits="userSpaceOnUse"><stop offset="0" stop-color="#6fbd44"/><stop offset="1" stop-color="#359846"/></linearGradient><path fill="url(#j)" d="M119.9 40.2h1c-.4-.2-.7-.4-1.1-.5.6.1 1 0 .9-.4-.3-.1-.6-.3-.9-.3 1 .1.4-.6-.7-.7.2-.1.5-.1.8-.2-.8-.2-1.8-.5-2-.3.2-.3.7-.4 1.3-.4-.7-.3-1.3-.3-1.8-.3.4-.1.7-.3.6-.6-.4-.1-.8-.2-1-.1.2-.1.2-.3.1-.5h-.4c-.1-.4 0-.9.7-.8-.5-.1-1-.1-1.1.1-.1-.4.2-.6.6-.8-.4 0-.9-.1-1.2 0 0-.4.3-.6-.3-1.2 0 .2-.3.3-.6.4 0-.1-.3-.4-.3-.5-.1.1-.3 0-.4 0 0-.1-.2-.3-.3-.4-.3 0-.7-.1-1.1-.2 0-.2.1-.4.2-.5-.4 0-.9-.1-1.4-.3 0-.4-.2-.8-.7-1.3-.2.2-.5.4-.9.4-.1-.1-.4-.3-.5-.4-.1 0-.6-.1-.6-.1s0-.1-.1-.1c-.2 0-.5 0-.6.1-.9-.6-1.3-1.4-2.3-2.2-.2.2 0 .5.1.8-.6-.6-1-1-1.8-1.6 0 .2.2.6.3.9-.6-.3-1-.6-1.1-.9-.2.1-.4.1-.4.3-1.3-.7-.3-1.1-.1-1.3-.5-.1-.8 0-1.1.1-.2-.3 0-.5-.1-.8-.2 0-.6 0-.7.1v-.2h-.7c-.1-.3-.4-.7-.8-1.1-.4.1-.3.5-.5.7-.2-.4-.6-.9-1.3-1.3-.3.2-.2.5-.4.7 0-.1-.2-.2-.3-.3-.2.1-.5.1-.9-.1-.3-.4-.2-.7-.1-.9-.4 0-.6.2-1 .2-.1-.3-.2-.6-.5-1 0 .1-.2.3-.2.4-.6-.5-1.8.2-2.8-.4 0 .7-.8-.5-1.2 0-.5.5 1.6 2.3 1.1 2.8 6.1 3.2 11.3 5.6 17.5 8.9 2.4 1.3 4.8 2.5 7.2 3.8 1.4.8 3.2 2 4.6 2.5"/><path fill="none" d="M113.8 35.1c.3.1.5.1.6.1-.2-.1-.4-.2-.6-.1.2-.1.4-.1.4-.2-.4-.1-.5-.1-.8-.1-.1-.1-.3-.2-.4-.4 0 .1-.1.1-.1.2m-13.2-6.2c.1 0 .2-.1.2-.2-.1 0-.3-.1-.5-.1V28h-.3c-.3-.2-.3-.4-.7-.6-.1.1 0 .3-.2.2m-3.7-2.7c.2 0 .4 0 .7.1-.2-.1-.4-.2-.6-.2h.4c-.4-.1-.7-.2-1-.3-.2-.2-.4-.4-.7-.6 0 .1.1.3 0 .3m8.7 5.1c0-.1-.1-.2-.1-.3.1.1.3.2.4.2-.1-.1-.1-.2-.2-.2.3.2.5.4.5.5.3.1.6.1.9.3-.1 0-.1.1-.2.1"/><linearGradient id="k" x1="2587.996" x2="2606.539" y1="-8813.928" y2="-8792.121" gradientTransform="matrix(-.8305 -.555 -.1435 .2627 1017.5 3796.318)" gradientUnits="userSpaceOnUse"><stop offset="0" stop-color="#6fbd44"/><stop offset="1" stop-color="#359846"/></linearGradient><path fill="url(#k)" d="M146.4 53.4h1c-.4-.2-.7-.4-1.1-.5.6.1 1 0 .9-.4-.3-.1-.6-.3-.9-.3 1 .1.4-.6-.7-.7.2-.1.5-.1.8-.2-.8-.2-1.8-.5-2-.3.2-.3.7-.4 1.3-.4-.7-.3-1.3-.3-1.8-.3.4-.1.7-.3.6-.6-.4-.1-.8-.2-1-.1.2-.1.2-.3.1-.5h-.4c-.1-.4 0-.9.7-.8-.5-.1-.9-.1-1.1.1-.1-.4.2-.6.6-.8-.4 0-.9-.1-1.2 0 0-.4.3-.6-.3-1.2 0 .2-.3.3-.6.4 0-.1-.3-.4-.3-.5-.1.1-.3 0-.4 0 0-.1-.2-.3-.3-.4-.3 0-.7-.1-1.1-.2 0-.2.1-.4.2-.5-.4 0-.9-.1-1.4-.3 0-.4-.2-.8-.7-1.3-.2.2-.5.4-.9.4-.1-.1-.4-.3-.5-.4-.1 0-.6-.1-.6-.1s0-.1-.1-.1c-.2 0-.5 0-.6.1-.9-.6-1.3-1.4-2.3-2.2-.2.2 0 .5.1.8-.6-.6-1-1-1.8-1.6 0 .2.2.6.3.9-.6-.3-1-.6-1.1-.9-.2.1-.4.1-.4.3-1.3-.7-.3-1.1-.1-1.3-.5-.1-.8 0-1.1.1-.2-.3 0-.5-.1-.8-.2 0-.6 0-.7.1v-.2h-.7c-.1-.3-.4-.7-.8-1.1-.4.1-.3.5-.5.7-.2-.4-.6-.9-1.3-1.3-.3.2-.2.5-.4.7 0-.1-.2-.2-.3-.3-.2.1-.5.1-.9-.1-.3-.4-.2-.7-.1-.9-.4 0-.6.2-1 .2-.1-.3-.2-.6-.5-1 0 .1-.2.3-.2.4-.6-.5-1.8.2-2.8-.4 0 .7-.8-.5-1.2 0-.5.5 1.6 2.3 1.1 2.8 6.1 3.2 11.3 5.6 17.5 8.9 2.4 1.3 4.8 2.5 7.2 3.8 1.4.8 3.2 2 4.6 2.5"/><path fill="none" d="M140.4 48.2c.3.1.5.1.6.1-.2 0-.4-.1-.6-.1.2-.1.4-.1.4-.2-.4-.1-.5-.1-.8-.1-.1-.1-.3-.2-.4-.4 0 .1-.1.1-.1.2m-13.2-6.1c.1 0 .2-.1.2-.2-.1 0-.3-.1-.5-.1v-.1h-.3c-.3-.2-.3-.4-.7-.6-.1.1 0 .3-.2.2m-3.7-2.7c.2 0 .4 0 .7.1-.2-.1-.4-.2-.6-.2h.4c-.4-.1-.7-.2-1-.3-.2-.2-.4-.4-.7-.6 0 .1.1.3 0 .3m8.7 5.1c0-.1-.1-.2-.1-.3.1.1.3.2.4.2-.1-.1-.1-.2-.2-.2.3.2.5.4.5.5.3.1.6.1.9.3-.1 0-.1.1-.2.1"/><linearGradient id="l" x1="2554.359" x2="2572.904" y1="-8825.673" y2="-8803.864" gradientTransform="matrix(-.8305 -.555 -.1435 .2627 1017.5 3796.318)" gradientUnits="userSpaceOnUse"><stop offset="0" stop-color="#6fbd44"/><stop offset="1" stop-color="#359846"/></linearGradient><path fill="url(#l)" d="M176.1 69h1c-.4-.2-.7-.4-1.1-.5.6.1 1 0 .9-.4-.3-.1-.6-.3-.9-.3 1 .1.4-.6-.7-.7.2-.1.5-.1.8-.2-.8-.2-1.8-.5-2-.3.2-.3.7-.4 1.3-.4-.7-.3-1.3-.3-1.8-.3.4-.1.7-.3.6-.6-.4-.1-.8-.2-1-.1.2-.1.2-.3.1-.5h-.4c-.1-.4 0-.9.7-.8-.5-.1-1-.1-1.1.1-.1-.4.2-.6.6-.8-.4 0-.9-.1-1.2 0 0-.4.3-.6-.3-1.2 0 .2-.3.3-.6.4 0-.1-.3-.4-.3-.5-.1.1-.3 0-.4 0 0-.1-.2-.3-.3-.4-.3 0-.7-.1-1.1-.2 0-.2.1-.4.2-.5-.4 0-.9-.1-1.4-.3 0-.4-.2-.8-.7-1.3-.2.2-.5.4-.9.4-.1-.1-.4-.3-.5-.4-.1 0-.6-.1-.6-.1s0-.1-.1-.1c-.2 0-.5 0-.6.1-.9-.6-1.3-1.4-2.3-2.2-.2.2 0 .5.1.8-.6-.6-1-1-1.8-1.6 0 .2.2.6.3.9-.6-.3-1-.6-1.1-.9-.2.1-.4.1-.4.3-1.3-.7-.3-1.1-.1-1.3-.5-.1-.8 0-1.1.1-.2-.3 0-.5-.1-.8-.2 0-.6 0-.7.1v-.2h-.7c-.1-.3-.4-.7-.8-1.1-.4.1-.3.5-.5.7-.2-.4-.6-.9-1.3-1.3-.3.2-.2.5-.4.7 0-.1-.2-.2-.3-.3-.2.1-.5.1-.9-.1-.3-.4-.2-.7-.1-.9-.4 0-.6.2-1 .2-.1-.3-.2-.6-.5-1 0 .1-.2.3-.2.4-.6-.5-1.8.2-2.8-.4 0 .7-.8-.5-1.2 0-.5.5 1.6 2.3 1.1 2.8 6.1 3.2 11.3 5.6 17.5 8.9 2.4 1.3 4.8 2.5 7.2 3.8 1.4.8 3.2 2 4.6 2.5"/><path fill="none" d="M170 63.8c.3.1.5.1.6.1-.2 0-.4-.1-.6-.1.2-.1.4-.1.4-.2-.4-.1-.5-.1-.8-.1-.1-.1-.3-.2-.4-.4 0 .1-.1.1-.1.2m-13.2-6.1c.1 0 .2-.1.2-.2-.1 0-.3-.1-.5-.1v-.1h-.3c-.3-.2-.3-.4-.7-.6-.1.1 0 .3-.2.2m-3.7-2.7c.2 0 .4 0 .7.1-.2-.1-.4-.2-.6-.2h.4c-.4-.1-.7-.2-1-.3-.2-.2-.4-.4-.7-.6 0 .1.1.3 0 .3m8.7 5.1c0-.1-.1-.2-.1-.3.1.1.3.2.4.2-.1-.1-.1-.2-.2-.2.3.2.5.4.5.5.3.1.6.1.9.3-.1 0-.1.1-.2.1"/><linearGradient id="m" x1="2540.461" x2="2559.007" y1="-8832.48" y2="-8810.671" gradientTransform="matrix(-.8305 -.555 -.1435 .2627 1017.5 3796.318)" gradientUnits="userSpaceOnUse"><stop offset="0" stop-color="#6fbd44"/><stop offset="1" stop-color="#359846"/></linearGradient><path fill="url(#m)" d="M188.6 74.9h1c-.4-.2-.7-.4-1.1-.5.6.1 1 0 .9-.4-.3-.1-.6-.3-.9-.3 1 .1.4-.6-.7-.7.2-.1.5-.1.8-.2-.8-.2-1.8-.5-2-.3.2-.3.7-.4 1.3-.4-.7-.3-1.3-.3-1.8-.3.4-.1.7-.3.6-.6-.4-.1-.8-.2-1-.1.2-.1.2-.3.1-.5h-.4c-.1-.4 0-.9.7-.8-.5-.1-.9-.1-1.1.1-.1-.4.2-.6.6-.8-.4 0-.9-.1-1.2 0 0-.4.3-.6-.3-1.2 0 .2-.3.3-.6.4 0-.1-.3-.4-.3-.5-.1.1-.3 0-.4 0 0-.1-.2-.3-.3-.4-.3 0-.7-.1-1.1-.2 0-.2.1-.4.2-.5-.4 0-.9-.1-1.4-.3 0-.4-.2-.8-.7-1.3-.2.2-.5.4-.9.4-.1-.1-.4-.3-.5-.4-.1 0-.6-.1-.6-.1s0-.1-.1-.1c-.2 0-.5 0-.6.1-.9-.6-1.3-1.4-2.3-2.2-.2.2 0 .5.1.8-.6-.6-1-1-1.8-1.6 0 .2.2.6.3.9-.6-.3-1-.6-1.1-.9-.2.1-.4.1-.4.3-1.3-.7-.3-1.1-.1-1.3-.5-.1-.8 0-1.1.1-.2-.3 0-.5-.1-.8-.2 0-.6 0-.7.1v-.2h-.7c-.1-.3-.4-.7-.8-1.1-.4.1-.3.5-.5.7-.2-.4-.6-.9-1.3-1.3-.3.2-.2.5-.4.7 0-.1-.2-.2-.3-.3-.2.1-.5.1-.9-.1-.3-.4-.2-.7-.1-.9-.4 0-.6.2-1 .2-.1-.3-.2-.6-.5-1 0 .1-.2.3-.2.4-.6-.5-1.8.2-2.8-.4 0 .7-.8-.5-1.2 0-.5.5 1.6 2.3 1.1 2.8 6.1 3.2 11.3 5.6 17.5 8.9 2.4 1.3 4.8 2.5 7.2 3.8 1.4.8 3.2 2 4.6 2.5"/><path fill="none" d="M182.5 69.8c.3.1.5.1.6.1-.1-.1-.4-.2-.6-.1.2-.1.4-.1.4-.2-.4-.1-.5-.1-.8-.1-.1-.1-.3-.2-.4-.4 0 .1-.1.1-.1.2m-13.2-6.2c.1 0 .2-.1.2-.2-.1 0-.3-.1-.5-.1v-.1h-.3c-.3-.2-.3-.4-.7-.6-.1.1 0 .3-.2.2m-3.7-2.7c.2 0 .4 0 .7.1-.2-.1-.4-.2-.6-.2h.4c-.4-.1-.7-.2-1-.3-.2-.2-.4-.4-.7-.6-.1.1.1.3 0 .3m8.7 5.1c0-.1-.1-.2-.1-.3.1.1.3.2.4.2-.1-.1-.1-.2-.2-.2.3.2.5.4.5.5.3.1.6.1.9.3-.1 0-.1.1-.2.1"/><linearGradient id="n" x1="107.642" x2="138.604" y1="120.367" y2="156.777" gradientUnits="userSpaceOnUse"><stop offset="0" stop-color="#6fbd44"/><stop offset="1" stop-color="#359846"/></linearGradient><path fill="url(#n)" d="M154.5 121.9c-.2-3.5-9.2.3-9.5-3.2-.2-3.4-7.6-6.9-6.8-10.1-2.2.2-2.8 2.1-4.3 3.2.1-.8 0-1.8.2-2.6-1 1.1-1.5 2.3-2.1 3.7-.5-1-.7-2.6-1.3-3.5 0 1.5-.3 3-1.2 4.2-.9-.5-1.3-.9-1.5-2-.2.3-.7.8-.8 1-.1-1.4.4-2.8.2-4.3-1.6.2-2.9 1.8-3.7 3.1-.2-1.5.4-3.3 0-4.7-1.2.9-2.2 2-2.7 3.4-.2-.6-1-1.6-1.2-2.1-.1.2-.2.5-.3.7-.2-.8-.7-1.6-1.1-2.3-.7 1.2-.5 2.5-1.2 3.6-.6-1.1-.8-2.5-1.8-3.4.1 1.7 1.2 6.4-1.8 6.4.1-.9-.2-1.8-.3-2.6-.5 1-1.6 1.8-2.8 1.7.7-1.1 1.4-2.2 1.6-3.4-2.1.5-3.3 1.8-4.9 3.1.5-1.2 1.2-2.6 1.1-3.9-2.5 1-4.2 4-6.4 4.8-.1-.9-.6-1.3-.9-2.1-.2 0-.3.1-.4.2-.1-.3-.9-1-1.1-1.4-.3.3-1.1.6-1.4.8-.6-1.3-.9-2.9-.9-4.4-1.4 1.3-2.2 3-2.7 4.7-1-.6-1.9-1.4-2.6-2.3.1 1.1.1 2.1-.3 3.1-.7-.5-1.5-1.3-2-1.9-.2.5-.8 1-.9 1.4-.1-.3-.5-.6-.7-1.3-.2.4-.9 1.2-1.1 1.7-.5-.9-.7-2.2-.6-3.3-1.7 1.3-1.5 3.1-1.8 5-.5-.9-1.4-1.9-2-2.9.4 1.9.6 3.3 0 5.2 0-1.3-.6-2.5-1.6-3.4 1.2 1.8.8 4.2.2 6.1-.1-.4-.5-.8-.7-1.3-.5.7-.7 1.7-.5 2.6-.4-.8-1.1-1.4-1.8-2-.5 1.3-.3 3.1.3 4.5-.9-1.1-1.8-2.7-3.4-3.2.9 1.6 1.6 3.4 1.7 5.3-.2-1.7-2.1-3.1-3.7-3.9.3 1 .7 2 1 3.1-1.9-2.2-3.8-.8-2.1 1.6-.6-.4-1.4-.4-2-.7-.7 1.4 0 2.9 1 4-.9-.4-1.6-.3-2.5-.2.2.3.5.7.7 1.1h43c15.5-.3 31.2-.6 34.1-.7 13.9-.2-5.6-6.5 8.3-6.2z"/><use width="41" height="63.3" x="-20.5" y="-31.7" overflow="visible" transform="matrix(.1618 0 0 -.1224 130.532 116.09)" xlink:href="#f"/><use width="41" height="63.3" x="-20.5" y="-31.7" overflow="visible" transform="matrix(-.1618 0 0 -.1224 122.422 110.657)" xlink:href="#f"/><path fill="#6FBD44" d="M119.4 122.5c.2-.5.1-1.1-.5-1.3-.3.4 0 1 .5 1.3"/><path fill="none" d="M118.9 124s.6-3.3 2.8-4.4"/><path fill="#EE3C39" d="M122.6 118.4c-.3-.3-.5-.8-1-.9-.6-.1-.3.3-.5.6-.2.2-.8.2-.5.7.2.4.8.1 1.2.1-.2.2-1.1.2-1.2.5-.1.2.1.2.3.3.3.2.2.1.4.3.2.2.3.5.7.2.3-.1.4-.5.5-.8.1.2-.2.9.1 1 .3.2.7 0 .7-.2.4 0 .8.2 1-.2.1-.3-.4-.8-.8-.9.3.1 1 .4 1.3.2.3-.2 0-.3.1-.5s.4-.2.2-.4c-.1-.1-.3-.2-.5-.2-.4 0-.8.2-1.1.4.2-.3.8-.7.6-1-.2-.2-.4-.1-.6-.1 0 0-.1.1-.2.1-.2 0-.1-.2-.3-.2-.4-.2-.9-.1-.9.3 0 .2.4.5.5.7"/><ellipse cx="122.7" cy="118.8" fill="#FFCE34" rx=".5" ry=".4"/><path fill="#6FBD44" d="M140.3 123.7c.2-.5.1-1.1-.5-1.3-.3.4 0 1 .5 1.3"/><path fill="none" d="M139.8 125.2c2.5 1.7 6.2-5.8 2.8-4.4"/><path fill="#EE3C39" d="M143.5 119.6c-.3-.3-.5-.8-1-.9-.6-.1-.3.3-.5.6-.2.2-.8.2-.5.7.2.4.8.1 1.2.1-.2.2-1.1.2-1.2.5-.1.2.1.2.3.3.3.2.2.1.4.3.2.2.3.5.7.2.3-.1.4-.5.5-.8.1.2-.2.9.1 1 .3.2.7 0 .7-.2.4 0 .8.2 1-.2.1-.3-.4-.8-.8-.9.3.1 1 .4 1.3.2.3-.2 0-.3.1-.5s.4-.2.2-.4c-.1-.1-.3-.2-.5-.2-.4 0-.8.2-1.1.4.2-.3.8-.7.6-1-.2-.2-.4-.1-.6-.1 0 0-.1.1-.2.1-.2 0-.1-.2-.3-.2-.4-.2-.9-.1-.9.3 0 .2.4.5.5.7"/><ellipse cx="143.7" cy="120" fill="#FFCE34" rx=".5" ry=".4"/><path fill="#6FBD44" d="M115.6 113.3c.2-.5.1-1.1-.5-1.3-.3.4 0 1 .5 1.3"/><path fill="none" d="M115.1 114.9s.6-3.3 2.8-4.4"/><path fill="#EE3C39" d="M118.8 109.2c-.3-.3-.5-.8-1-.9-.6-.1-.3.3-.5.6-.2.2-.8.2-.5.7.2.4.8.1 1.2.1-.2.2-1.1.2-1.2.5-.1.2.1.2.3.3.3.2.2.1.4.3.2.2.3.5.7.2.3-.1.4-.5.5-.8.1.2-.2.9.1 1 .3.2.7 0 .7-.2.4 0 .8.2 1-.2.1-.3-.4-.8-.8-.9.3.1 1 .4 1.3.2.3-.2 0-.3.1-.5s.4-.2.2-.4c-.1-.1-.3-.2-.5-.2-.4 0-.8.2-1.1.4.2-.3.8-.7.6-1-.2-.2-.4-.1-.6-.1 0 0-.1.1-.2.1-.2 0-.1-.2-.3-.2-.4-.2-.9-.1-.9.3 0 .2.4.5.5.7"/><ellipse cx="119" cy="109.6" fill="#FFCE34" rx=".5" ry=".4"/><path fill="#FFF" d="M100.6 129l-15.4-3.7-26.5-5.6s-28.9-4.2-30.9-4.4c-2-.3-26.4-2.8-26.4-2.8l.5 2.8 8.9.3 14.4 1.4 25.5 3.7 6.4 1.5 7.8 1.7 9.3 1.8 8.3 2.4 4.5 1.1h14l-.4-.2zm16.8-2.7l-.1 2.2h5l.5-1.8-2.5-1.7zm-9.8-.4l-.3 2.6h5.3l.4-2.3-2.9-2.4zm-8.2-1.7l-.6 4.3h5.3l.4-3.7-2.2-1.9z"/><path fill="#FFF" d="M90.2 123.2l-.7 5.3H95l.3-4.7-2.2-1.9zM74 120.4l-.8 8.1h4.9l1-7.5-2.2-1.9zm-8-1.6l-1.5 9.7h5.4l1.2-9.1-2.2-1.9zm-8-1l-1.4 10.7h5l1.2-10.1-2.1-1.9zm-7.1-1.3l-1.9 12h5.4l1.2-11.4-2-1.9zm-8-1.2l-1.8 13.2h5.1l1.4-12.6-2-1.9zm-8.2-1l-1.8 14.2h5l1.5-13.6-2.1-1.8zm-7.5-1l-2 15.2h5.1l1.6-14.6-2.1-1.8zm-7.4-.6l-2.1 15.8h5.1l1.3-15.2-1.8-1.8zm-7.4-.3l-2.2 16.1h5.2l1.7-15.9-1.8-1.9zm-4.2 16.5l1.8-16.6-2.9-2-2.7 2-2.3 15.5z"/><path fill="#6FBD44" d="M62.7 111.8c.2-.5.1-1.1-.5-1.3-.3.4 0 1 .5 1.3"/><path fill="none" d="M62.2 113.4s.6-3.3 2.8-4.4"/><path fill="#EE3C39" d="M65.8 107.7c-.3-.3-.5-.8-1-.9-.6-.1-.3.3-.5.6-.2.2-.8.2-.5.7.2.4.8.1 1.2.1-.2.2-1.1.2-1.2.5-.1.2.1.2.3.3.3.2.2.1.4.3.2.2.3.5.7.2.3-.1.4-.5.5-.8.1.2-.2.9.1 1 .3.2.7 0 .7-.2.4 0 .8.2 1-.2.1-.3-.4-.8-.8-.9.3.1 1 .4 1.3.2.3-.2 0-.3.1-.5s.4-.2.2-.4c-.1-.1-.3-.2-.5-.2-.4 0-.8.2-1.1.4.2-.3.8-.7.6-1-.2-.2-.4-.1-.6-.1 0 0-.1.1-.2.1-.2 0-.1-.2-.3-.2-.4-.2-.9-.1-.9.3.1.2.5.5.5.7"/><ellipse cx="66" cy="108.1" fill="#FFCE34" rx=".5" ry=".4"/><use width="41" height="63.3" x="-20.5" y="-31.7" overflow="visible" transform="matrix(-.1618 0 0 -.1224 7.178 97.175)" xlink:href="#f"/><linearGradient id="o" x1="2341.419" x2="2352.386" y1="6415.223" y2="6428.12" gradientTransform="matrix(-.8483 .5243 .1783 .2398 1046.29 -2701.678)" gradientUnits="userSpaceOnUse"><stop offset="0" stop-color="#6fbd44"/><stop offset="1" stop-color="#359846"/></linearGradient><path fill="url(#o)" d="M219.5 58.7c.1-.1.3-.5.5-.7-.4.2-.7.3-1.1.6.3-.4.4-.7 0-.8-.2.2-.6.3-.8.5.5-.7-.5-.5-1.1.2 0-.2.1-.4.1-.6-.6.5-1.3 1.1-1.2 1.3-.2-.3-.1-.7.1-1.1-.6.4-.9.8-1.1 1.2.1-.3 0-.6-.4-.7-.2.2-.5.5-.6.7 0-.2-.2-.3-.5-.3 0 .1-.1.2-.1.3-.5-.1-1-.4-.6-.9-.3.3-.5.7-.3.8-.5-.1-.6-.4-.6-.7-.1.3-.5.6-.6.8-.4-.2-.5-.5-1.4-.3.2.1.3.3.2.6h-.7c0 .1-.1.2-.1.3h-.6c-.2.2-.4.5-.7.7-.3-.1-.4-.2-.5-.4-.2.3-.5.6-.9.9-.4-.1-1-.2-1.8 0 .2.2.2.5.1.8-.2 0-.5.2-.7.2-.1.1-.3.4-.3.4h-.2c-.1.2-.2.4-.2.5-1.1.4-2.2.4-3.4.8.1.2.6.2 1 .3-.9.2-1.6.3-2.6.7.3.1.7.1 1.1.1-.6.3-1.1.4-1.5.4 0 .1 0 .3.2.4-1.3.7-1.4-.2-1.6-.5-.3.3-.3.6-.4.9-.4 0-.5-.2-1-.2-.1.2-.2.4-.2.6h-.2c0 .1-.3.4-.3.5-.4-.1-.9 0-1.6.1-.1.3.5.4.5.7-.5 0-1.3.1-2 .4.1.2.5.3.6.5h-.5c0 .2-.1.4-.4.6-.5 0-.8-.1-1-.3-.2.3-.1.5-.2.8-.4 0-.8-.1-1.4 0 .2.1.3.2.4.3-.8.2-.6 1.4-1.6 1.9.8.3-.9.4-.6.9.3.5 3.3-.2 3.6.4 6.2-3.1 11.1-5.8 17.4-8.9 2.5-1.2 4.8-2.4 7.3-3.6 1.4-.7 3.6-1.5 4.7-2.3"/><path fill="none" d="M211.1 60.9c.2-.2.4-.3.3-.4 0 .1-.2.2-.3.4 0-.2.1-.3-.1-.4-.3.2-.3.3-.5.5-.2 0-.4.1-.6.1.1 0 .1.1.1.2m-12.3 7c0-.1 0-.2-.1-.2-.1.1-.3.2-.4.3h-.1l-.1.2c-.3.1-.6.1-1 .3 0 .1.3.1.1.2m-4.6 1.5c.1-.1.2-.3.4-.4-.1.1-.4.2-.5.3.1-.1.1-.2.1-.3-.3.2-.5.4-.7.6-.3.1-.6.2-1 .3.1.1.3 0 .3.1m9.6-4.2c-.1 0-.3-.1-.4 0 .1 0 .3-.1.4-.2h-.3c.3-.1.6-.2.8-.2.2-.2.4-.4.7-.5v.2"/><linearGradient id="p" x1="215.923" x2="218.559" y1="58.114" y2="61.213" gradientUnits="userSpaceOnUse"><stop offset="0" stop-color="#6fbd44"/><stop offset="1" stop-color="#359846"/></linearGradient><path fill="url(#p)" d="M219.4 54.7v.1c-.4-.1-.9 0-1.6.1-.1.3.5.4.5.7-.5 0-1.3.1-2 .4.1.2.5.3.6.5h-.5c0 .2-.1.4-.4.6-.5 0-.8-.1-1-.3-.2.3-.1.5-.2.8-.4 0-.8-.1-1.4 0 .2.1.3.2.4.3-.8.2-.6 1.4-1.6 1.9.8.3-.9.4-.6.9.3.5 3.3-.2 3.6.4l4.2-2.1v-4.3z"/><path fill="none" d="M216.6 58.3c.1-.1.2-.3.4-.4-.1.1-.4.2-.5.3.1-.1.1-.2.1-.3-.3.2-.5.4-.7.6-.3.1-.6.2-1 .3.1.1.3 0 .3.1"/><path fill="#6FBD44" d="M108.7 59.9c.2-.5.1-1.1-.5-1.3-.4.4 0 1 .5 1.3"/><path fill="none" d="M108.2 61.5s.6-3.3 2.8-4.4"/><path fill="#EE3C39" d="M111.8 55.8c-.3-.3-.5-.8-1-.9-.6-.1-.3.3-.5.6-.2.2-.8.2-.5.7.2.4.8.1 1.2.1-.2.2-1.1.2-1.2.5-.1.2.1.2.3.3.3.2.2.1.4.3.2.2.3.5.7.2.3-.1.4-.5.5-.8.1.2-.2.9.1 1 .3.2.7 0 .7-.2.4 0 .8.2 1-.2.1-.3-.4-.8-.8-.9.3.1 1 .4 1.3.2.3-.2 0-.3.1-.5s.4-.2.2-.4c-.1-.1-.3-.2-.5-.2-.4 0-.8.2-1.1.4.2-.3.8-.7.6-1-.2-.2-.4-.1-.6-.1 0 0-.1.1-.2.1-.2 0-.1-.2-.3-.2-.4-.2-.9-.1-.9.3.1.2.5.5.5.7"/><ellipse cx="112" cy="56.2" fill="#FFCE34" rx=".5" ry=".4"/><path fill="#6FBD44" d="M108.7 59.9c.2-.5.1-1.1-.5-1.3-.4.4 0 1 .5 1.3"/><path fill="none" d="M108.2 61.5s.6-3.3 2.8-4.4"/><path fill="#EE3C39" d="M111.8 55.8c-.3-.3-.5-.8-1-.9-.6-.1-.3.3-.5.6-.2.2-.8.2-.5.7.2.4.8.1 1.2.1-.2.2-1.1.2-1.2.5-.1.2.1.2.3.3.3.2.2.1.4.3.2.2.3.5.7.2.3-.1.4-.5.5-.8.1.2-.2.9.1 1 .3.2.7 0 .7-.2.4 0 .8.2 1-.2.1-.3-.4-.8-.8-.9.3.1 1 .4 1.3.2.3-.2 0-.3.1-.5s.4-.2.2-.4c-.1-.1-.3-.2-.5-.2-.4 0-.8.2-1.1.4.2-.3.8-.7.6-1-.2-.2-.4-.1-.6-.1 0 0-.1.1-.2.1-.2 0-.1-.2-.3-.2-.4-.2-.9-.1-.9.3.1.2.5.5.5.7"/><ellipse cx="112" cy="56.2" fill="#FFCE34" rx=".5" ry=".4"/><path fill="#6FBD44" d="M108.7 59.9c.2-.5.1-1.1-.5-1.3-.4.4 0 1 .5 1.3"/><path fill="none" d="M108.2 61.5s.6-3.3 2.8-4.4"/><path fill="#EE3C39" d="M111.8 55.8c-.3-.3-.5-.8-1-.9-.6-.1-.3.3-.5.6-.2.2-.8.2-.5.7.2.4.8.1 1.2.1-.2.2-1.1.2-1.2.5-.1.2.1.2.3.3.3.2.2.1.4.3.2.2.3.5.7.2.3-.1.4-.5.5-.8.1.2-.2.9.1 1 .3.2.7 0 .7-.2.4 0 .8.2 1-.2.1-.3-.4-.8-.8-.9.3.1 1 .4 1.3.2.3-.2 0-.3.1-.5s.4-.2.2-.4c-.1-.1-.3-.2-.5-.2-.4 0-.8.2-1.1.4.2-.3.8-.7.6-1-.2-.2-.4-.1-.6-.1 0 0-.1.1-.2.1-.2 0-.1-.2-.3-.2-.4-.2-.9-.1-.9.3.1.2.5.5.5.7"/><ellipse cx="112" cy="56.2" fill="#FFCE34" rx=".5" ry=".4"/><path fill="#6FBD44" d="M108.7 59.9c.2-.5.1-1.1-.5-1.3-.4.4 0 1 .5 1.3"/><path fill="none" d="M108.2 61.5s.6-3.3 2.8-4.4"/><path fill="#EE3C39" d="M111.8 55.8c-.3-.3-.5-.8-1-.9-.6-.1-.3.3-.5.6-.2.2-.8.2-.5.7.2.4.8.1 1.2.1-.2.2-1.1.2-1.2.5-.1.2.1.2.3.3.3.2.2.1.4.3.2.2.3.5.7.2.3-.1.4-.5.5-.8.1.2-.2.9.1 1 .3.2.7 0 .7-.2.4 0 .8.2 1-.2.1-.3-.4-.8-.8-.9.3.1 1 .4 1.3.2.3-.2 0-.3.1-.5s.4-.2.2-.4c-.1-.1-.3-.2-.5-.2-.4 0-.8.2-1.1.4.2-.3.8-.7.6-1-.2-.2-.4-.1-.6-.1 0 0-.1.1-.2.1-.2 0-.1-.2-.3-.2-.4-.2-.9-.1-.9.3.1.2.5.5.5.7"/><ellipse cx="112" cy="56.2" fill="#FFCE34" rx=".5" ry=".4"/><path fill="#6FBD44" d="M108.7 59.9c.2-.5.1-1.1-.5-1.3-.4.4 0 1 .5 1.3"/><path fill="none" d="M108.2 61.5s.6-3.3 2.8-4.4"/><path fill="#EE3C39" d="M111.8 55.8c-.3-.3-.5-.8-1-.9-.6-.1-.3.3-.5.6-.2.2-.8.2-.5.7.2.4.8.1 1.2.1-.2.2-1.1.2-1.2.5-.1.2.1.2.3.3.3.2.2.1.4.3.2.2.3.5.7.2.3-.1.4-.5.5-.8.1.2-.2.9.1 1 .3.2.7 0 .7-.2.4 0 .8.2 1-.2.1-.3-.4-.8-.8-.9.3.1 1 .4 1.3.2.3-.2 0-.3.1-.5s.4-.2.2-.4c-.1-.1-.3-.2-.5-.2-.4 0-.8.2-1.1.4.2-.3.8-.7.6-1-.2-.2-.4-.1-.6-.1 0 0-.1.1-.2.1-.2 0-.1-.2-.3-.2-.4-.2-.9-.1-.9.3.1.2.5.5.5.7"/><ellipse cx="112" cy="56.2" fill="#FFCE34" rx=".5" ry=".4"/><path fill="#6FBD44" d="M108.7 59.9c.2-.5.1-1.1-.5-1.3-.4.4 0 1 .5 1.3"/><path fill="none" d="M108.2 61.5s.6-3.3 2.8-4.4"/><path fill="#EE3C39" d="M111.8 55.8c-.3-.3-.5-.8-1-.9-.6-.1-.3.3-.5.6-.2.2-.8.2-.5.7.2.4.8.1 1.2.1-.2.2-1.1.2-1.2.5-.1.2.1.2.3.3.3.2.2.1.4.3.2.2.3.5.7.2.3-.1.4-.5.5-.8.1.2-.2.9.1 1 .3.2.7 0 .7-.2.4 0 .8.2 1-.2.1-.3-.4-.8-.8-.9.3.1 1 .4 1.3.2.3-.2 0-.3.1-.5s.4-.2.2-.4c-.1-.1-.3-.2-.5-.2-.4 0-.8.2-1.1.4.2-.3.8-.7.6-1-.2-.2-.4-.1-.6-.1 0 0-.1.1-.2.1-.2 0-.1-.2-.3-.2-.4-.2-.9-.1-.9.3.1.2.5.5.5.7"/><ellipse cx="112" cy="56.2" fill="#FFCE34" rx=".5" ry=".4"/><path fill="#6FBD44" d="M108.7 59.9c.2-.5.1-1.1-.5-1.3-.4.4 0 1 .5 1.3"/><path fill="none" d="M108.2 61.5s.6-3.3 2.8-4.4"/><path fill="#EE3C39" d="M111.8 55.8c-.3-.3-.5-.8-1-.9-.6-.1-.3.3-.5.6-.2.2-.8.2-.5.7.2.4.8.1 1.2.1-.2.2-1.1.2-1.2.5-.1.2.1.2.3.3.3.2.2.1.4.3.2.2.3.5.7.2.3-.1.4-.5.5-.8.1.2-.2.9.1 1 .3.2.7 0 .7-.2.4 0 .8.2 1-.2.1-.3-.4-.8-.8-.9.3.1 1 .4 1.3.2.3-.2 0-.3.1-.5s.4-.2.2-.4c-.1-.1-.3-.2-.5-.2-.4 0-.8.2-1.1.4.2-.3.8-.7.6-1-.2-.2-.4-.1-.6-.1 0 0-.1.1-.2.1-.2 0-.1-.2-.3-.2-.4-.2-.9-.1-.9.3.1.2.5.5.5.7"/><ellipse cx="112" cy="56.2" fill="#FFCE34" rx=".5" ry=".4"/><path fill="#6FBD44" d="M108.7 59.9c.2-.5.1-1.1-.5-1.3-.4.4 0 1 .5 1.3"/><path fill="none" d="M108.2 61.5s.6-3.3 2.8-4.4"/><path fill="#EE3C39" d="M111.8 55.8c-.3-.3-.5-.8-1-.9-.6-.1-.3.3-.5.6-.2.2-.8.2-.5.7.2.4.8.1 1.2.1-.2.2-1.1.2-1.2.5-.1.2.1.2.3.3.3.2.2.1.4.3.2.2.3.5.7.2.3-.1.4-.5.5-.8.1.2-.2.9.1 1 .3.2.7 0 .7-.2.4 0 .8.2 1-.2.1-.3-.4-.8-.8-.9.3.1 1 .4 1.3.2.3-.2 0-.3.1-.5s.4-.2.2-.4c-.1-.1-.3-.2-.5-.2-.4 0-.8.2-1.1.4.2-.3.8-.7.6-1-.2-.2-.4-.1-.6-.1 0 0-.1.1-.2.1-.2 0-.1-.2-.3-.2-.4-.2-.9-.1-.9.3.1.2.5.5.5.7"/><ellipse cx="112" cy="56.2" fill="#FFCE34" rx=".5" ry=".4"/><path fill="#6FBD44" d="M108.7 59.9c.2-.5.1-1.1-.5-1.3-.4.4 0 1 .5 1.3"/><path fill="none" d="M108.2 61.5s.6-3.3 2.8-4.4"/><path fill="#EE3C39" d="M111.8 55.8c-.3-.3-.5-.8-1-.9-.6-.1-.3.3-.5.6-.2.2-.8.2-.5.7.2.4.8.1 1.2.1-.2.2-1.1.2-1.2.5-.1.2.1.2.3.3.3.2.2.1.4.3.2.2.3.5.7.2.3-.1.4-.5.5-.8.1.2-.2.9.1 1 .3.2.7 0 .7-.2.4 0 .8.2 1-.2.1-.3-.4-.8-.8-.9.3.1 1 .4 1.3.2.3-.2 0-.3.1-.5s.4-.2.2-.4c-.1-.1-.3-.2-.5-.2-.4 0-.8.2-1.1.4.2-.3.8-.7.6-1-.2-.2-.4-.1-.6-.1 0 0-.1.1-.2.1-.2 0-.1-.2-.3-.2-.4-.2-.9-.1-.9.3.1.2.5.5.5.7"/><ellipse cx="112" cy="56.2" fill="#FFCE34" rx=".5" ry=".4"/><path fill="#6FBD44" d="M108.7 59.9c.2-.5.1-1.1-.5-1.3-.4.4 0 1 .5 1.3"/><path fill="none" d="M108.2 61.5s.6-3.3 2.8-4.4"/><path fill="#EE3C39" d="M111.8 55.8c-.3-.3-.5-.8-1-.9-.6-.1-.3.3-.5.6-.2.2-.8.2-.5.7.2.4.8.1 1.2.1-.2.2-1.1.2-1.2.5-.1.2.1.2.3.3.3.2.2.1.4.3.2.2.3.5.7.2.3-.1.4-.5.5-.8.1.2-.2.9.1 1 .3.2.7 0 .7-.2.4 0 .8.2 1-.2.1-.3-.4-.8-.8-.9.3.1 1 .4 1.3.2.3-.2 0-.3.1-.5s.4-.2.2-.4c-.1-.1-.3-.2-.5-.2-.4 0-.8.2-1.1.4.2-.3.8-.7.6-1-.2-.2-.4-.1-.6-.1 0 0-.1.1-.2.1-.2 0-.1-.2-.3-.2-.4-.2-.9-.1-.9.3.1.2.5.5.5.7"/><ellipse cx="112" cy="56.2" fill="#FFCE34" rx=".5" ry=".4"/><path fill="#6FBD44" d="M108.7 59.9c.2-.5.1-1.1-.5-1.3-.4.4 0 1 .5 1.3"/><path fill="none" d="M108.2 61.5s.6-3.3 2.8-4.4"/><path fill="#EE3C39" d="M111.8 55.8c-.3-.3-.5-.8-1-.9-.6-.1-.3.3-.5.6-.2.2-.8.2-.5.7.2.4.8.1 1.2.1-.2.2-1.1.2-1.2.5-.1.2.1.2.3.3.3.2.2.1.4.3.2.2.3.5.7.2.3-.1.4-.5.5-.8.1.2-.2.9.1 1 .3.2.7 0 .7-.2.4 0 .8.2 1-.2.1-.3-.4-.8-.8-.9.3.1 1 .4 1.3.2.3-.2 0-.3.1-.5s.4-.2.2-.4c-.1-.1-.3-.2-.5-.2-.4 0-.8.2-1.1.4.2-.3.8-.7.6-1-.2-.2-.4-.1-.6-.1 0 0-.1.1-.2.1-.2 0-.1-.2-.3-.2-.4-.2-.9-.1-.9.3.1.2.5.5.5.7"/><ellipse cx="112" cy="56.2" fill="#FFCE34" rx=".5" ry=".4"/><path fill="#6FBD44" d="M108.7 59.9c.2-.5.1-1.1-.5-1.3-.4.4 0 1 .5 1.3"/><path fill="none" d="M108.2 61.5s.6-3.3 2.8-4.4"/><path fill="#EE3C39" d="M111.8 55.8c-.3-.3-.5-.8-1-.9-.6-.1-.3.3-.5.6-.2.2-.8.2-.5.7.2.4.8.1 1.2.1-.2.2-1.1.2-1.2.5-.1.2.1.2.3.3.3.2.2.1.4.3.2.2.3.5.7.2.3-.1.4-.5.5-.8.1.2-.2.9.1 1 .3.2.7 0 .7-.2.4 0 .8.2 1-.2.1-.3-.4-.8-.8-.9.3.1 1 .4 1.3.2.3-.2 0-.3.1-.5s.4-.2.2-.4c-.1-.1-.3-.2-.5-.2-.4 0-.8.2-1.1.4.2-.3.8-.7.6-1-.2-.2-.4-.1-.6-.1 0 0-.1.1-.2.1-.2 0-.1-.2-.3-.2-.4-.2-.9-.1-.9.3.1.2.5.5.5.7"/><ellipse cx="112" cy="56.2" fill="#FFCE34" rx=".5" ry=".4"/><path fill="#6FBD44" d="M108.7 59.9c.2-.5.1-1.1-.5-1.3-.4.4 0 1 .5 1.3"/><path fill="none" d="M108.2 61.5s.6-3.3 2.8-4.4"/><path fill="#EE3C39" d="M111.8 55.8c-.3-.3-.5-.8-1-.9-.6-.1-.3.3-.5.6-.2.2-.8.2-.5.7.2.4.8.1 1.2.1-.2.2-1.1.2-1.2.5-.1.2.1.2.3.3.3.2.2.1.4.3.2.2.3.5.7.2.3-.1.4-.5.5-.8.1.2-.2.9.1 1 .3.2.7 0 .7-.2.4 0 .8.2 1-.2.1-.3-.4-.8-.8-.9.3.1 1 .4 1.3.2.3-.2 0-.3.1-.5s.4-.2.2-.4c-.1-.1-.3-.2-.5-.2-.4 0-.8.2-1.1.4.2-.3.8-.7.6-1-.2-.2-.4-.1-.6-.1 0 0-.1.1-.2.1-.2 0-.1-.2-.3-.2-.4-.2-.9-.1-.9.3.1.2.5.5.5.7"/><ellipse cx="112" cy="56.2" fill="#FFCE34" rx=".5" ry=".4"/><path fill="#6FBD44" d="M108.7 59.9c.2-.5.1-1.1-.5-1.3-.4.4 0 1 .5 1.3"/><path fill="none" d="M108.2 61.5s.6-3.3 2.8-4.4"/><path fill="#EE3C39" d="M111.8 55.8c-.3-.3-.5-.8-1-.9-.6-.1-.3.3-.5.6-.2.2-.8.2-.5.7.2.4.8.1 1.2.1-.2.2-1.1.2-1.2.5-.1.2.1.2.3.3.3.2.2.1.4.3.2.2.3.5.7.2.3-.1.4-.5.5-.8.1.2-.2.9.1 1 .3.2.7 0 .7-.2.4 0 .8.2 1-.2.1-.3-.4-.8-.8-.9.3.1 1 .4 1.3.2.3-.2 0-.3.1-.5s.4-.2.2-.4c-.1-.1-.3-.2-.5-.2-.4 0-.8.2-1.1.4.2-.3.8-.7.6-1-.2-.2-.4-.1-.6-.1 0 0-.1.1-.2.1-.2 0-.1-.2-.3-.2-.4-.2-.9-.1-.9.3.1.2.5.5.5.7"/><ellipse cx="112" cy="56.2" fill="#FFCE34" rx=".5" ry=".4"/><path fill="#6FBD44" d="M108.7 59.9c.2-.5.1-1.1-.5-1.3-.4.4 0 1 .5 1.3"/><path fill="none" d="M108.2 61.5s.6-3.3 2.8-4.4"/><path fill="#EE3C39" d="M111.8 55.8c-.3-.3-.5-.8-1-.9-.6-.1-.3.3-.5.6-.2.2-.8.2-.5.7.2.4.8.1 1.2.1-.2.2-1.1.2-1.2.5-.1.2.1.2.3.3.3.2.2.1.4.3.2.2.3.5.7.2.3-.1.4-.5.5-.8.1.2-.2.9.1 1 .3.2.7 0 .7-.2.4 0 .8.2 1-.2.1-.3-.4-.8-.8-.9.3.1 1 .4 1.3.2.3-.2 0-.3.1-.5s.4-.2.2-.4c-.1-.1-.3-.2-.5-.2-.4 0-.8.2-1.1.4.2-.3.8-.7.6-1-.2-.2-.4-.1-.6-.1 0 0-.1.1-.2.1-.2 0-.1-.2-.3-.2-.4-.2-.9-.1-.9.3.1.2.5.5.5.7"/><ellipse cx="112" cy="56.2" fill="#FFCE34" rx=".5" ry=".4"/><path fill="#6FBD44" d="M108.7 59.9c.2-.5.1-1.1-.5-1.3-.4.4 0 1 .5 1.3"/><path fill="none" d="M108.2 61.5s.6-3.3 2.8-4.4"/><path fill="#EE3C39" d="M111.8 55.8c-.3-.3-.5-.8-1-.9-.6-.1-.3.3-.5.6-.2.2-.8.2-.5.7.2.4.8.1 1.2.1-.2.2-1.1.2-1.2.5-.1.2.1.2.3.3.3.2.2.1.4.3.2.2.3.5.7.2.3-.1.4-.5.5-.8.1.2-.2.9.1 1 .3.2.7 0 .7-.2.4 0 .8.2 1-.2.1-.3-.4-.8-.8-.9.3.1 1 .4 1.3.2.3-.2 0-.3.1-.5s.4-.2.2-.4c-.1-.1-.3-.2-.5-.2-.4 0-.8.2-1.1.4.2-.3.8-.7.6-1-.2-.2-.4-.1-.6-.1 0 0-.1.1-.2.1-.2 0-.1-.2-.3-.2-.4-.2-.9-.1-.9.3.1.2.5.5.5.7"/><ellipse cx="112" cy="56.2" fill="#FFCE34" rx=".5" ry=".4"/></g></switch></svg>
