<svg xmlns="http://www.w3.org/2000/svg" version="1.0" viewBox="0 0 13.8 40.6"><switch><g><path fill="none" stroke="#006a9d" stroke-miterlimit="10" d="M11.6 40.1c.6-.4 1.1-.8 1.7-1.1-.2-.4-.8-.5-1.3-.5s-1.1 0-1.6-.2c-.1-.1-.2-.1-.4-.2-.6-.2-1.2.2-1.9.2-.2 0-.4-.1-.6-.1l-2.7-.6c-.2 0-.4-.1-.6-.1-1.3-.5-2.8-.9-4.2-1.3.8-.2 1.7-.7 1.4-1.2-.1-.2-.4-.3-.6-.4-.2 0-.4 0-.5-.1-.4-.2-.2-.7.1-.9s.9-.4 1.2-.7c-.8-.2-.8-1.1 0-1.3-.4-.3-.8-.6-.8-1s.2-.8.7-1c.8-.2 1.9.2 2.3-.3.2-.3-.1-.6.2-.9.3-.2.8-.1 1.2-.1.8-.1 1.2-.8 1.3-1.3.2-.9.2-1.8.1-2.6 0-.2-.1-.5-.4-.6-.2-.1-.4-.1-.6-.1-.3-.1-.4-.4-.4-.6-.3-1.7-.9-3.3-1.2-4.9-.1-.4.1-1 .7-.9.6-1.1-.8-2.3-.9-3.4 0-.2 0-.4-.2-.6-.1-.2-.4-.3-.5-.4-.1-.1 0-.3.1-.4.5-.8 1.1-1.7 2.1-2.3.3-.1.6-.2.7-.5.2-.3 0-.6.2-.9.1-.2.4-.4.5-.6.2-.3-.1-.7-.5-.9s-.8-.5-1-.8c.8-.1 1-.6 1.2-1.1C7 4 7.7 2.6 8.6 1.3c.1-.1.2-.3.1-.4C8.5.6 7.9.7 7.4.7 6.8.7 6.2.4 6.1 0"/></g></switch></svg>
