<svg xmlns="http://www.w3.org/2000/svg" version="1.0" viewBox="0 0 98.7 43.5"><switch><g><path fill="#C99631" stroke="#9A6767" stroke-miterlimit="10" stroke-width=".25" d="M6.5 3.2C9.9 5.4 14.7 6 18.6 6.7c4.4.8 9.1.7 13.6.9 3.1.1 6.2-.4 9.3-.9 2.2-.3 4.5-.6 6.7-1 1.6-.3 3.5-1 5.2-.9.1 3.4-.9 6.6-1.1 10-.3 3.4.5 6.7-.5 10-.2.8-.2.9-.9 1.1-.7.3-1.9.1-2.6.1l-6 .3c-7.7.4-15.6.5-23.3-.9-3.9-.7-7.6-1.5-11.3-2.7-.7-.2-1.6-.2-2.1-.6-.8-.5-.4-.8-.3-1.8.4-2.3.2-4.9.2-7.3 0-.8-.1-1.6 0-2.4.1-1.2 1-2.2.9-3.5"/><path fill="#FFCD34" stroke="#373A94" stroke-width=".25" d="M6.1 2.8S3 15.4 2.7 17.6c-.2 2.2-2.2 13-2 14 .2 1.1 0 9.8 0 9.8l28 .7.5-8.8 1.2-.6.9.7.3 9.1 29.5-2.7S59.7 22 59.4 19.6c-.3-2.5-1.7-8.8-2.1-9.5-.4-.7-2.2-7.4-2.2-7.4s-12 2.2-12.7 2.6c-.7.4-3.7.4-3.7.4s0 3.6-.6 5.2-3.9 7.3-4.4 8.8c-.5 1.4-1.1 3.3-1.1 3.3s.3-12.5.2-13c0-.5.2-4.1.8-5 .7-1.1.8-3 .8-3s-2.8 1.6-4 1.8c-1.2.2-6.5 1.2-7.4 1-.9-.1-15.8-2.4-16.9-2z"/><linearGradient id="a" x1="28.471" x2="30.965" y1="6.295" y2="6.295" gradientUnits="userSpaceOnUse"><stop offset="0" stop-color="#989798"/><stop offset="1" stop-color="#cccbcb"/></linearGradient><circle cx="29.7" cy="6.3" r="1.2" fill="url(#a)" stroke="#989798" stroke-miterlimit="10" stroke-width=".25"/><path fill="none" stroke="#9A6767" stroke-miterlimit="10" stroke-width=".25" d="M38.4 9.1c2.8.3 6.4-1.1 9.1-1.6 2.7-.5 5.6-1 8.2-1.8m-23 2c-3.6 2.7-9 .3-13.2.4-2.7 0-4.9-.6-7.5-1.5-2.1-.7-4.5-.8-6.5-1.4"/><path fill="#FFCD34" stroke="#373A94" stroke-width=".25" d="M19.6 4.4c-1 1-1.4 3.3-1.4 4.8-.6.1-1.1 0-1.7-.1-.2-1.5.3-3.8 1-5.1m30 0c1 1 1.4 3.3 1.4 4.8.6.1 1.1 0 1.7-.1.2-1.5-.3-3.8-1-5.1"/><path fill="#271B13" d="M42.5 6.8c-1-.1-2.3 0-3 .7 1.2.1 2.7.2 3.4-.9" opacity=".5"/><path fill="none" stroke="#9A6767" stroke-miterlimit="10" stroke-width=".25" d="M32.4 23.4c-.1 1.7-.7 3.3-1 5-.3 1.3-1.1 3.1-.9 4.5"/><path fill="none" stroke="#9A6767" stroke-miterlimit="10" stroke-width=".25" d="M42.7 8.6c-1.5 3.6-2.1 7.5-3.4 11-1.2 3.4-4.2 4.5-7.5 5.3"/><linearGradient id="b" x1="32.601" x2="38.312" y1="15.55" y2="15.55" gradientUnits="userSpaceOnUse"><stop offset="0" stop-color="#989798"/><stop offset="1" stop-color="#cccbcb"/></linearGradient><path fill="url(#b)" stroke="#989798" stroke-miterlimit="10" stroke-width=".25" d="M32.8 21.9l-.2-.4.1-.5h.3l.1-.4-.2-.4.1-.5h.4l.1-.4-.3-.3.2-.7.5-.1.2-.5-.2-.3.2-.6h.4l.3-.5-.2-.5.4-.6.4-.1.3-.5-.1-.4.2-.4.5-.1.2-.4-.1-.6.2-.4.5-.1.3-.5-.4-.3.1-.5.5-.1.2-.4-.4-.4.1-.4.5-.1.1-.3h.2s-.2 1.6-.8 2.7c-.7 1.1-2.5 4.8-2.5 4.8l-1.6 3.6-.6 1.6z"/><path fill="none" stroke="#9A6767" stroke-miterlimit="10" stroke-width=".25" d="M41.3 9c-1.9 1.8-1.9 6.4-2.9 8.9-1 2.7-2.6 5.2-5.9 5"/><path fill="#989798" stroke="#676868" stroke-miterlimit="10" stroke-width=".25" d="M34.3 22.9c.1.6-1 .3-1 .3l-.6-2 .6-.2c0 .1.9 1.3 1 1.9zm-.9-.2c-.1.2 0 .4.2.4.2.1.4 0 .4-.2.1-.2 0-.4-.2-.4-.1-.1-.3 0-.4.2z"/><path fill="none" stroke="#9A6767" stroke-miterlimit="10" stroke-width=".25" d="M13.9 7.4c.3 3.2-1.4 3.9-4.1 4.8-2 .7-3.9 1.5-6.1 1.3M51.6 7c-1.3.7 4.5 5.1 6.4 4.8"/><path fill="#FBCCCB" stroke="#9A6767" stroke-miterlimit="10" stroke-width=".25" d="M.7 40.8c-.4.6-.7 1.2-.7 1.8.2-.1.4-.3.7-.4 0 .2 0 .5.1.6.3-.1.5-.1.8-.3.6.2.4.4 1.1-.2.1.1-.1.3 0 .5.3-.1.7-.2 1-.3.6.1.5.3 1.3-.1 0 .2 0 .4.1.6.3-.1.5-.2.8-.3.3-.1.6 0 1-.1.6.8 1.7.2 2.6.1.6.6 3.4.2 4.1-.2.5.4.8.5 1.4 0 .6.9 6.3.8 7.5.4.4.8 1.1.9 1.6.2.6.5 1.3.5 1.8-.2h1c1.4.8 2.5 0 1.6-1.5m3.2.2c-.2.4-.5 1.1-.7 1.6.2-.1.4-.1.7-.3.3.6.6.7 1.1 0 .5.8 6.1-.3 7.4-.1.3-.1.6-.3 1.2-.2.1-.1.2-.4.2-.5.2.1.5.2.7.4l.4-.5c.9.3 3.3.8 3.9-.2.3.3.8.4 1 .5.1-.2.2-.4.2-.7.8.5 3.5.5 4.2.2.2.1.3.2.6.3 0-.2 0-.4.1-.7.2.2.8.4 1 .7.3-.6 1-.6 1.7-.4.1-.2.1-.3.2-.5.3.3.9.3 1.2.5.1-.2.2-.3.3-.5 1.1.5 2.1.1 3.3.1 0-.1 0-.2.1-.3.2 0 .4.1.7.1 0-.2-.1-.4-.1-.7.3 0 .6 0 .8-.1-.1-.5-.4-.9-.9-1.2"/><path fill="none" stroke="#010101" d="M48.2 16.1c0-5.9-4.8-10.6-10.9-10.6-6 0-10.9 4.7-11 10.5 0 5.9 4.8 10.6 10.9 10.6 6 .1 10.9-4.7 11-10.5zm.1-.1h19"/><path fill="#271B13" d="M38.3 9.2l1.3-.1s-2.7 6.5-3.8 8.3c-1.2 1.8-2.5 4.8-2.5 4.8l-.5.1s2-5.6 2.6-6.6c.6-1 2.1-3.7 2.3-4 .2-.4.6-2.5.6-2.5z" opacity=".5"/><path fill="#FCF9CF" d="M69.7 41.8c-2.7 0-4.9-1.9-4.9-4.2V4.2C64.8 1.9 67 0 69.6 0h22.7c2.7 0 4.9 1.9 4.9 4.2l.1 33.4c0 2.3-2.2 4.2-4.8 4.2H69.7z"/><path fill="#333" stroke="#9A6767" stroke-miterlimit="10" stroke-width=".25" d="M85.6 8.1c1.1-3.1 2.5-6.3 2.5-6.3l-2.8-.5S81.9 12.6 82 13.5c.1.9-2.8.1-2.8.1L75.8 4l-1.1-2.5-2.1.7S74.5 6 75.1 8c.6 1.9 2.6 5.6 2.8 9.2v24.7c2-.2 4.3-.2 6.3 0l-.3-25.3c0-.1.5-5.4 1.7-8.5z"/><linearGradient id="c" x1="78.47" x2="81.414" y1="24.639" y2="24.545" gradientUnits="userSpaceOnUse"><stop offset="0" stop-color="#676868"/><stop offset="1" stop-color="#cccbcb"/></linearGradient><path fill="url(#c)" stroke="#676868" stroke-width=".25" d="M80 24.1v1h.5v-.3h.2l.2.1.3-.2-.2-.4-.2.1h-.3v-.3z"/><linearGradient id="d" x1="78.437" x2="81.382" y1="28.712" y2="28.618" gradientUnits="userSpaceOnUse"><stop offset="0" stop-color="#676868"/><stop offset="1" stop-color="#cccbcb"/></linearGradient><path fill="url(#d)" stroke="#676868" stroke-width=".25" d="M80 28.1v1.1h.5v-.3h.2l.2.1.2-.2-.1-.4-.2.1h-.3v-.4z"/><linearGradient id="e" x1="78.47" x2="81.414" y1="27.678" y2="27.584" gradientUnits="userSpaceOnUse"><stop offset="0" stop-color="#676868"/><stop offset="1" stop-color="#cccbcb"/></linearGradient><path fill="url(#e)" stroke="#676868" stroke-width=".25" d="M80 27.1v1h.5v-.3h.2l.2.2.3-.3-.2-.4-.2.1h-.3v-.3z"/><linearGradient id="f" x1="78.437" x2="81.383" y1="23.574" y2="23.48" gradientUnits="userSpaceOnUse"><stop offset="0" stop-color="#676868"/><stop offset="1" stop-color="#cccbcb"/></linearGradient><path fill="url(#f)" stroke="#676868" stroke-width=".25" d="M80 23v1h.5v-.3h.2l.2.2.2-.3-.1-.4-.2.1h-.3V23z"/><linearGradient id="g" x1="78.47" x2="81.414" y1="26.676" y2="26.582" gradientUnits="userSpaceOnUse"><stop offset="0" stop-color="#676868"/><stop offset="1" stop-color="#cccbcb"/></linearGradient><path fill="url(#g)" stroke="#676868" stroke-width=".25" d="M80 26.1v1h.5v-.3h.2l.2.2.3-.3-.2-.4-.2.1h-.3v-.3z"/><linearGradient id="h" x1="78.47" x2="81.414" y1="25.704" y2="25.61" gradientUnits="userSpaceOnUse"><stop offset="0" stop-color="#676868"/><stop offset="1" stop-color="#cccbcb"/></linearGradient><path fill="url(#h)" stroke="#676868" stroke-width=".25" d="M80 25.1v1.1h.5v-.3h.2l.2.1.3-.2-.2-.5-.2.2h-.3v-.4z"/><linearGradient id="i" x1="4859.272" x2="4862.216" y1="28.21" y2="28.116" gradientTransform="matrix(-1 0 0 1 4942.38 0)" gradientUnits="userSpaceOnUse"><stop offset="0" stop-color="#676868"/><stop offset="1" stop-color="#cccbcb"/></linearGradient><path fill="url(#i)" stroke="#676868" stroke-width=".25" d="M81.6 27.6v1.1H81v-.3h-.1l-.2.1-.3-.2.2-.4.2.1h.2v-.4z"/><linearGradient id="j" x1="4859.24" x2="4862.185" y1="27.177" y2="27.082" gradientTransform="matrix(-1 0 0 1 4942.38 0)" gradientUnits="userSpaceOnUse"><stop offset="0" stop-color="#676868"/><stop offset="1" stop-color="#cccbcb"/></linearGradient><path fill="url(#j)" stroke="#676868" stroke-width=".25" d="M81.6 26.6v1h-.5v-.3h-.2l-.2.2-.3-.3.2-.4.2.1h.3v-.3z"/><linearGradient id="k" x1="4859.24" x2="4862.185" y1="23.042" y2="22.948" gradientTransform="matrix(-1 0 0 1 4942.38 0)" gradientUnits="userSpaceOnUse"><stop offset="0" stop-color="#676868"/><stop offset="1" stop-color="#cccbcb"/></linearGradient><path fill="url(#k)" stroke="#676868" stroke-width=".25" d="M81.6 22.5v1h-.5v-.3h-.2l-.2.1-.3-.2.2-.4.2.1h.3v-.3z"/><linearGradient id="l" x1="4859.24" x2="4862.185" y1="26.143" y2="26.049" gradientTransform="matrix(-1 0 0 1 4942.38 0)" gradientUnits="userSpaceOnUse"><stop offset="0" stop-color="#676868"/><stop offset="1" stop-color="#cccbcb"/></linearGradient><path fill="url(#l)" stroke="#676868" stroke-width=".25" d="M81.6 25.6v1h-.5v-.3h-.2l-.2.1-.3-.2.2-.4.2.1h.3v-.3z"/><linearGradient id="m" x1="4859.24" x2="4862.185" y1="24.107" y2="24.013" gradientTransform="matrix(-1 0 0 1 4942.38 0)" gradientUnits="userSpaceOnUse"><stop offset="0" stop-color="#676868"/><stop offset="1" stop-color="#cccbcb"/></linearGradient><path fill="url(#m)" stroke="#676868" stroke-width=".25" d="M81.6 23.5v1.1h-.5v-.3h-.2l-.2.1-.3-.2.2-.4.2.1h.3v-.4z"/><linearGradient id="n" x1="4859.24" x2="4862.185" y1="25.14" y2="25.047" gradientTransform="matrix(-1 0 0 1 4942.38 0)" gradientUnits="userSpaceOnUse"><stop offset="0" stop-color="#676868"/><stop offset="1" stop-color="#cccbcb"/></linearGradient><path fill="url(#n)" stroke="#676868" stroke-width=".25" d="M81.6 24.6v1h-.5v-.3h-.2l-.2.1-.3-.2.2-.4.2.1h.3v-.3z"/><linearGradient id="o" x1="78.5" x2="81.445" y1="30.748" y2="30.654" gradientUnits="userSpaceOnUse"><stop offset="0" stop-color="#676868"/><stop offset="1" stop-color="#cccbcb"/></linearGradient><path fill="url(#o)" stroke="#676868" stroke-width=".25" d="M80 30.2v1h.6v-.3h.2l.1.2.3-.3-.2-.4-.2.1h-.2v-.3z"/><linearGradient id="p" x1="78.47" x2="81.414" y1="34.821" y2="34.727" gradientUnits="userSpaceOnUse"><stop offset="0" stop-color="#676868"/><stop offset="1" stop-color="#cccbcb"/></linearGradient><path fill="url(#p)" stroke="#676868" stroke-width=".25" d="M80 34.2v1.1h.5V35h.2l.2.1.3-.2-.2-.4-.2.1h-.3v-.4z"/><linearGradient id="q" x1="78.5" x2="81.445" y1="33.787" y2="33.693" gradientUnits="userSpaceOnUse"><stop offset="0" stop-color="#676868"/><stop offset="1" stop-color="#cccbcb"/></linearGradient><path fill="url(#q)" stroke="#676868" stroke-width=".25" d="M80 33.2v1h.6v-.3h.2l.1.2.3-.3-.2-.4-.2.2h-.2v-.4z"/><linearGradient id="r" x1="78.47" x2="81.414" y1="29.683" y2="29.589" gradientUnits="userSpaceOnUse"><stop offset="0" stop-color="#676868"/><stop offset="1" stop-color="#cccbcb"/></linearGradient><path fill="url(#r)" stroke="#676868" stroke-width=".25" d="M80 29.1v1h.5v-.3h.2l.2.2.3-.3-.2-.4-.2.2h-.3v-.4z"/><linearGradient id="s" x1="78.5" x2="81.445" y1="32.785" y2="32.691" gradientUnits="userSpaceOnUse"><stop offset="0" stop-color="#676868"/><stop offset="1" stop-color="#cccbcb"/></linearGradient><path fill="url(#s)" stroke="#676868" stroke-width=".25" d="M80 32.2v1h.6v-.3h.2l.1.2.3-.3-.2-.4-.2.2h-.2v-.4z"/><linearGradient id="t" x1="78.5" x2="81.445" y1="31.813" y2="31.719" gradientUnits="userSpaceOnUse"><stop offset="0" stop-color="#676868"/><stop offset="1" stop-color="#cccbcb"/></linearGradient><path fill="url(#t)" stroke="#676868" stroke-width=".25" d="M80 31.2v1.1h.6V32h.2l.1.1.3-.2-.2-.4-.2.1h-.2v-.4z"/><linearGradient id="u" x1="4859.24" x2="4862.185" y1="34.32" y2="34.226" gradientTransform="matrix(-1 0 0 1 4942.38 0)" gradientUnits="userSpaceOnUse"><stop offset="0" stop-color="#676868"/><stop offset="1" stop-color="#cccbcb"/></linearGradient><path fill="url(#u)" stroke="#676868" stroke-width=".25" d="M81.6 33.7v1.1h-.5v-.3h-.2l-.2.1-.3-.2.2-.4.2.1h.3v-.4z"/><linearGradient id="v" x1="4859.209" x2="4862.153" y1="33.286" y2="33.192" gradientTransform="matrix(-1 0 0 1 4942.38 0)" gradientUnits="userSpaceOnUse"><stop offset="0" stop-color="#676868"/><stop offset="1" stop-color="#cccbcb"/></linearGradient><path fill="url(#v)" stroke="#676868" stroke-width=".25" d="M81.6 32.7v1h-.5v-.3h-.2l-.2.2-.2-.3.1-.4.3.2h.2v-.4z"/><linearGradient id="w" x1="4859.209" x2="4862.153" y1="29.15" y2="29.056" gradientTransform="matrix(-1 0 0 1 4942.38 0)" gradientUnits="userSpaceOnUse"><stop offset="0" stop-color="#676868"/><stop offset="1" stop-color="#cccbcb"/></linearGradient><path fill="url(#w)" stroke="#676868" stroke-width=".25" d="M81.6 28.6v1h-.5v-.3h-.2l-.2.2-.2-.3.1-.4.3.1h.2v-.3z"/><linearGradient id="x" x1="4859.209" x2="4862.153" y1="32.252" y2="32.158" gradientTransform="matrix(-1 0 0 1 4942.38 0)" gradientUnits="userSpaceOnUse"><stop offset="0" stop-color="#676868"/><stop offset="1" stop-color="#cccbcb"/></linearGradient><path fill="url(#x)" stroke="#676868" stroke-width=".25" d="M81.6 31.7v1h-.5v-.3h-.2l-.2.2-.2-.3.1-.4.3.1h.2v-.3z"/><linearGradient id="y" x1="4859.209" x2="4862.153" y1="30.215" y2="30.121" gradientTransform="matrix(-1 0 0 1 4942.38 0)" gradientUnits="userSpaceOnUse"><stop offset="0" stop-color="#676868"/><stop offset="1" stop-color="#cccbcb"/></linearGradient><path fill="url(#y)" stroke="#676868" stroke-width=".25" d="M81.6 29.6v1.1h-.5v-.3h-.2l-.2.1-.2-.2.1-.4.3.1h.2v-.4z"/><linearGradient id="z" x1="4859.209" x2="4862.153" y1="31.249" y2="31.155" gradientTransform="matrix(-1 0 0 1 4942.38 0)" gradientUnits="userSpaceOnUse"><stop offset="0" stop-color="#676868"/><stop offset="1" stop-color="#cccbcb"/></linearGradient><path fill="url(#z)" stroke="#676868" stroke-width=".25" d="M81.6 30.7v1h-.5v-.3h-.2l-.2.2-.2-.3.1-.4.3.1h.2v-.3z"/><linearGradient id="A" x1="78.5" x2="81.445" y1="36.888" y2="36.794" gradientUnits="userSpaceOnUse"><stop offset="0" stop-color="#676868"/><stop offset="1" stop-color="#cccbcb"/></linearGradient><path fill="url(#A)" stroke="#676868" stroke-width=".25" d="M80 36.3v1h.6V37h.2l.1.2.3-.3-.2-.4-.2.2h-.2v-.4z"/><linearGradient id="B" x1="78.47" x2="81.414" y1="40.961" y2="40.867" gradientUnits="userSpaceOnUse"><stop offset="0" stop-color="#676868"/><stop offset="1" stop-color="#cccbcb"/></linearGradient><path fill="url(#B)" stroke="#676868" stroke-width=".25" d="M80 40.4v1h.5v-.3h.2l.2.2.3-.3-.2-.4-.2.1h-.3v-.3z"/><linearGradient id="C" x1="78.5" x2="81.445" y1="39.927" y2="39.833" gradientUnits="userSpaceOnUse"><stop offset="0" stop-color="#676868"/><stop offset="1" stop-color="#cccbcb"/></linearGradient><path fill="url(#C)" stroke="#676868" stroke-width=".25" d="M80 39.4v1h.6v-.3h.2l.1.1.3-.2-.2-.4-.2.1h-.2v-.3z"/><linearGradient id="D" x1="78.47" x2="81.414" y1="35.823" y2="35.729" gradientUnits="userSpaceOnUse"><stop offset="0" stop-color="#676868"/><stop offset="1" stop-color="#cccbcb"/></linearGradient><path fill="url(#D)" stroke="#676868" stroke-width=".25" d="M80 35.2v1.1h.5V36h.2l.2.1.3-.2-.2-.4-.2.1h-.3v-.4z"/><linearGradient id="E" x1="78.5" x2="81.445" y1="38.925" y2="38.831" gradientUnits="userSpaceOnUse"><stop offset="0" stop-color="#676868"/><stop offset="1" stop-color="#cccbcb"/></linearGradient><path fill="url(#E)" stroke="#676868" stroke-width=".25" d="M80 38.4v1h.6v-.3h.2l.1.1.3-.2-.2-.4-.2.1h-.2v-.3z"/><linearGradient id="F" x1="78.5" x2="81.445" y1="37.953" y2="37.859" gradientUnits="userSpaceOnUse"><stop offset="0" stop-color="#676868"/><stop offset="1" stop-color="#cccbcb"/></linearGradient><path fill="url(#F)" stroke="#676868" stroke-width=".25" d="M80 37.4v1h.6v-.3h.2l.1.2.3-.3-.2-.4-.2.1h-.2v-.3z"/><linearGradient id="G" x1="4859.24" x2="4862.185" y1="40.46" y2="40.366" gradientTransform="matrix(-1 0 0 1 4942.38 0)" gradientUnits="userSpaceOnUse"><stop offset="0" stop-color="#676868"/><stop offset="1" stop-color="#cccbcb"/></linearGradient><path fill="url(#G)" stroke="#676868" stroke-width=".25" d="M81.6 39.9v1h-.5v-.3h-.2l-.2.2-.3-.3.2-.4.2.1h.3v-.3z"/><linearGradient id="H" x1="4859.209" x2="4862.153" y1="39.425" y2="39.332" gradientTransform="matrix(-1 0 0 1 4942.38 0)" gradientUnits="userSpaceOnUse"><stop offset="0" stop-color="#676868"/><stop offset="1" stop-color="#cccbcb"/></linearGradient><path fill="url(#H)" stroke="#676868" stroke-width=".25" d="M81.6 38.9v1h-.5v-.3h-.2l-.2.1-.2-.2.1-.4.3.1h.2v-.3z"/><linearGradient id="I" x1="4859.209" x2="4862.153" y1="35.29" y2="35.196" gradientTransform="matrix(-1 0 0 1 4942.38 0)" gradientUnits="userSpaceOnUse"><stop offset="0" stop-color="#676868"/><stop offset="1" stop-color="#cccbcb"/></linearGradient><path fill="url(#I)" stroke="#676868" stroke-width=".25" d="M81.6 34.7v1h-.5v-.3h-.2l-.2.2-.2-.3.1-.4.3.2h.2v-.4z"/><linearGradient id="J" x1="4859.209" x2="4862.153" y1="38.392" y2="38.298" gradientTransform="matrix(-1 0 0 1 4942.38 0)" gradientUnits="userSpaceOnUse"><stop offset="0" stop-color="#676868"/><stop offset="1" stop-color="#cccbcb"/></linearGradient><path fill="url(#J)" stroke="#676868" stroke-width=".25" d="M81.6 37.8v1.1h-.5v-.4h-.2l-.2.2-.2-.3.1-.4.3.2h.2v-.4z"/><linearGradient id="K" x1="4859.209" x2="4862.153" y1="36.356" y2="36.262" gradientTransform="matrix(-1 0 0 1 4942.38 0)" gradientUnits="userSpaceOnUse"><stop offset="0" stop-color="#676868"/><stop offset="1" stop-color="#cccbcb"/></linearGradient><path fill="url(#K)" stroke="#676868" stroke-width=".25" d="M81.6 35.8v1h-.5v-.3h-.2l-.2.2-.2-.3.1-.4.3.1h.2v-.3z"/><linearGradient id="L" x1="4859.209" x2="4862.153" y1="37.389" y2="37.295" gradientTransform="matrix(-1 0 0 1 4942.38 0)" gradientUnits="userSpaceOnUse"><stop offset="0" stop-color="#676868"/><stop offset="1" stop-color="#cccbcb"/></linearGradient><path fill="url(#L)" stroke="#676868" stroke-width=".25" d="M81.6 36.8v1h-.5v-.3h-.2l-.2.2-.2-.3.1-.4.3.2h.2v-.4z"/><linearGradient id="M" x1="78.588" x2="81.264" y1="41.674" y2="41.589" gradientUnits="userSpaceOnUse"><stop offset="0" stop-color="#676868"/><stop offset="1" stop-color="#cccbcb"/></linearGradient><path fill="url(#M)" stroke="#676868" stroke-width=".25" d="M80.8 41.8h-.3v-.3H80v.3h1.1l-.1-.2-.2.2z"/><linearGradient id="N" x1="78.911" x2="81.873" y1="41.441" y2="41.346" gradientUnits="userSpaceOnUse"><stop offset="0" stop-color="#676868"/><stop offset="1" stop-color="#cccbcb"/></linearGradient><path fill="url(#N)" stroke="#676868" stroke-width=".25" d="M81.1 40.9v.3h-.3l-.2-.1-.2.4.3.3.2-.2h.2v.2h.5v-1h-.5z"/><linearGradient id="O" x1="80.375" x2="81.719" y1="41.895" y2="41.852" gradientUnits="userSpaceOnUse"><stop offset="0" stop-color="#676868"/><stop offset="1" stop-color="#cccbcb"/></linearGradient><path fill="url(#O)" stroke="#676868" stroke-width=".25" d="M81.1 41.9h.5v-.1h-.5v.1z"/><linearGradient id="P" x1="551.471" x2="554.416" y1="-643.204" y2="-643.298" gradientTransform="rotate(-17.627 2422.352 1215.253)" gradientUnits="userSpaceOnUse"><stop offset="0" stop-color="#676868"/><stop offset="1" stop-color="#cccbcb"/></linearGradient><path fill="url(#P)" stroke="#676868" stroke-width=".25" d="M77.8 9.6l.3 1 .5-.2v-.3l.1-.1.3.1.1-.3-.3-.3-.1.2h-.3l-.1-.3z"/><linearGradient id="Q" x1="636.144" x2="639.088" y1="-716.633" y2="-716.727" gradientTransform="rotate(-20.107 2414.136 1223.932)" gradientUnits="userSpaceOnUse"><stop offset="0" stop-color="#676868"/><stop offset="1" stop-color="#cccbcb"/></linearGradient><path fill="url(#Q)" stroke="#676868" stroke-width=".25" d="M78.6 11.8l.4 1 .5-.2-.1-.3.2-.1.2.1.1-.3-.3-.3-.1.2-.3.1-.1-.4z"/><linearGradient id="R" x1="687.114" x2="690.06" y1="-774.287" y2="-774.381" gradientTransform="rotate(-21.822 2408.835 1203.287)" gradientUnits="userSpaceOnUse"><stop offset="0" stop-color="#676868"/><stop offset="1" stop-color="#cccbcb"/></linearGradient><path fill="url(#R)" stroke="#676868" stroke-width=".25" d="M76.6 6.3l.4 1 .5-.2-.1-.3.1-.1.3.1.1-.3-.3-.4-.2.2-.2.1-.1-.3z"/><linearGradient id="S" x1="782.332" x2="785.275" y1="-851.439" y2="-851.533" gradientTransform="rotate(-24.18 2444.955 1226.694)" gradientUnits="userSpaceOnUse"><stop offset="0" stop-color="#676868"/><stop offset="1" stop-color="#cccbcb"/></linearGradient><path fill="url(#S)" stroke="#676868" stroke-width=".25" d="M78.2 10.7l.4 1 .5-.3-.1-.3h.4l.1-.3-.3-.3-.2.2-.2.1-.1-.3z"/><linearGradient id="T" x1="728.647" x2="731.592" y1="-806.849" y2="-806.943" gradientTransform="rotate(-22.968 2409.105 1207.56)" gradientUnits="userSpaceOnUse"><stop offset="0" stop-color="#676868"/><stop offset="1" stop-color="#cccbcb"/></linearGradient><path fill="url(#T)" stroke="#676868" stroke-width=".25" d="M77 7.4l.4 1 .5-.2-.1-.3.2-.1.2.1.1-.3-.3-.3-.1.2-.3.1-.1-.4z"/><linearGradient id="U" x1="598.749" x2="601.693" y1="-689.872" y2="-689.966" gradientTransform="rotate(-19.126 2413.098 1210.526)" gradientUnits="userSpaceOnUse"><stop offset="0" stop-color="#676868"/><stop offset="1" stop-color="#cccbcb"/></linearGradient><path fill="url(#U)" stroke="#676868" stroke-width=".25" d="M77.4 8.5l.3 1 .5-.2-.1-.2.2-.1.2.1.2-.3-.3-.4-.1.2-.3.1-.1-.3z"/><linearGradient id="V" x1="5075.301" x2="5078.246" y1="593.041" y2="592.947" gradientTransform="scale(-1 1) rotate(-13.468 38.626 22150.5)" gradientUnits="userSpaceOnUse"><stop offset="0" stop-color="#676868"/><stop offset="1" stop-color="#cccbcb"/></linearGradient><path fill="url(#V)" stroke="#676868" stroke-width=".25" d="M82.6 11.9l-.3 1-.5-.1.1-.3-.2-.1-.2.1-.2-.3.3-.3.1.2h.3l.1-.3z"/><linearGradient id="W" x1="5089.388" x2="5092.333" y1="656.415" y2="656.321" gradientTransform="scale(-1 1) rotate(-14.916 40.316 20094.862)" gradientUnits="userSpaceOnUse"><stop offset="0" stop-color="#676868"/><stop offset="1" stop-color="#cccbcb"/></linearGradient><path fill="url(#W)" stroke="#676868" stroke-width=".25" d="M82.9 10.8l-.3 1-.5-.1.1-.3-.2-.1-.2.1-.2-.3.3-.3.1.1.3.1.1-.3z"/><linearGradient id="X" x1="5112.588" x2="5115.532" y1="787.605" y2="787.511" gradientTransform="scale(-1 1) rotate(-17.92 38.91 16881.06)" gradientUnits="userSpaceOnUse"><stop offset="0" stop-color="#676868"/><stop offset="1" stop-color="#cccbcb"/></linearGradient><path fill="url(#X)" stroke="#676868" stroke-width=".25" d="M84.2 6.2l-.4 1-.5-.2.1-.3h-.2l-.2.1-.1-.3.2-.4.2.2.2.1.1-.4z"/><linearGradient id="Y" x1="5104.086" x2="5107.032" y1="725.165" y2="725.071" gradientTransform="scale(-1 1) rotate(-16.434 35.994 18333.146)" gradientUnits="userSpaceOnUse"><stop offset="0" stop-color="#676868"/><stop offset="1" stop-color="#cccbcb"/></linearGradient><path fill="url(#Y)" stroke="#676868" stroke-width=".25" d="M83.2 9.7l-.3 1-.5-.1.1-.3-.2-.1-.2.1-.2-.3.3-.4.1.2.3.1.1-.3z"/><linearGradient id="Z" x1="5125.627" x2="5128.571" y1="863.317" y2="863.223" gradientTransform="scale(-1 1) rotate(-19.488 31.128 15607.82)" gradientUnits="userSpaceOnUse"><stop offset="0" stop-color="#676868"/><stop offset="1" stop-color="#cccbcb"/></linearGradient><path fill="url(#Z)" stroke="#676868" stroke-width=".25" d="M83.8 7.4l-.3 1-.5-.2.1-.3-.2-.1-.3.1-.1-.3.3-.3.1.1.3.1.1-.3z"/><linearGradient id="aa" x1="5077.02" x2="5079.965" y1="601.267" y2="601.173" gradientTransform="scale(-1 1) rotate(-13.728 37.802 21746.122)" gradientUnits="userSpaceOnUse"><stop offset="0" stop-color="#676868"/><stop offset="1" stop-color="#cccbcb"/></linearGradient><path fill="url(#aa)" stroke="#676868" stroke-width=".25" d="M83.4 8.5l-.2 1-.5-.1v-.3l-.1-.1-.3.1-.2-.3.3-.3.2.2h.2l.1-.3z"/><linearGradient id="ab" x1="687.218" x2="690.163" y1="-776.745" y2="-776.839" gradientTransform="rotate(-21.822 2408.835 1203.287)" gradientUnits="userSpaceOnUse"><stop offset="0" stop-color="#676868"/><stop offset="1" stop-color="#cccbcb"/></linearGradient><path fill="url(#ab)" stroke="#676868" stroke-width=".25" d="M75.8 4l.4.9.5-.2-.2-.2.2-.1.2.1.2-.4-.3-.3-.2.2-.2.1-.1-.3z"/><linearGradient id="ac" x1="728.799" x2="731.745" y1="-809.304" y2="-809.398" gradientTransform="rotate(-22.968 2409.105 1207.56)" gradientUnits="userSpaceOnUse"><stop offset="0" stop-color="#676868"/><stop offset="1" stop-color="#cccbcb"/></linearGradient><path fill="url(#ac)" stroke="#676868" stroke-width=".25" d="M76.2 5.1l.4 1 .5-.2-.1-.3.1-.1.3.1.1-.3-.3-.4-.2.2-.2.1-.1-.3z"/><linearGradient id="ad" x1="5112.658" x2="5115.602" y1="785.082" y2="784.988" gradientTransform="scale(-1 1) rotate(-17.92 38.91 16881.06)" gradientUnits="userSpaceOnUse"><stop offset="0" stop-color="#676868"/><stop offset="1" stop-color="#cccbcb"/></linearGradient><path fill="url(#ad)" stroke="#676868" stroke-width=".25" d="M84.9 3.8l-.4 1-.5-.2.1-.3h-.4l-.1-.3.2-.3.2.2.3.1.1-.4z"/><linearGradient id="ae" x1="5125.765" x2="5128.709" y1="860.796" y2="860.702" gradientTransform="scale(-1 1) rotate(-19.488 31.128 15607.82)" gradientUnits="userSpaceOnUse"><stop offset="0" stop-color="#676868"/><stop offset="1" stop-color="#cccbcb"/></linearGradient><path fill="url(#ae)" stroke="#676868" stroke-width=".25" d="M84.5 5l-.3.9-.5-.1.1-.3-.2-.1-.2.1-.2-.3.3-.4.2.2.2.1.1-.3z"/><path fill="none" stroke="#010101" d="M69.6 41.8c-2.7 0-4.9-1.9-4.9-4.2V4.2c0-2.3 2.2-4.2 4.8-4.2h22.7C94.9 0 97 1.9 97 4.2l.1 33.4c0 2.3-2.2 4.2-4.8 4.2H69.6z"/><linearGradient id="af" x1="79.974" x2="81.596" y1="19.053" y2="19.053" gradientUnits="userSpaceOnUse"><stop offset="0" stop-color="#676868"/><stop offset="1" stop-color="#cccbcb"/></linearGradient><path fill="url(#af)" stroke="#676868" stroke-width=".25" d="M80 23v-7.9h1.6v7.8z"/><linearGradient id="ag" x1="82.885" x2="80.651" y1="9.563" y2="13.315" gradientUnits="userSpaceOnUse"><stop offset="0" stop-color="#676868"/><stop offset="1" stop-color="#cccbcb"/></linearGradient><path fill="url(#ag)" stroke="#676868" stroke-width=".25" d="M79.4 14.4s-.9-1.6-.2-1.6h3.1s.6.5-.3 1.6c-1.1 1.1-2.6 0-2.6 0z"/><linearGradient id="ah" x1="87.844" x2="80.998" y1="6.369" y2="17.869" gradientUnits="userSpaceOnUse"><stop offset="0" stop-color="#676868"/><stop offset="1" stop-color="#cccbcb"/></linearGradient><path fill="url(#ah)" stroke="#676868" stroke-width=".25" d="M79.2 14.2H82l-.1.9.4 7.4s-.5.7-2.9.2c.1-2.6.2-7 .2-7v-.5l-.4-1zm2.3 5.7c0-.3-.2-.5-.5-.5h-.5c-.3 0-.5.2-.5.5v1.6c0 .3.2.5.5.5h.5c.3 0 .5-.2.5-.5v-1.6zm-.2-4.5c0-.3-.2-.5-.5-.5h-.1c-.3 0-.5.2-.5.5v1.3c0 .3.2.5.5.5h.1c.3 0 .5-.2.5-.5v-1.3z"/><linearGradient id="ai" x1="73.214" x2="84.352" y1="14.258" y2="14.349" gradientUnits="userSpaceOnUse"><stop offset="0" stop-color="#676868"/><stop offset="1" stop-color="#cccbcb"/></linearGradient><path fill="url(#ai)" stroke="#676868" stroke-width=".25" d="M81.2 13.2c0-.3-.2-.5-.5-.5s-.5.2-.5.5v2.1c0 .3.2.5.5.5s.5-.2.5-.5v-2.1z"/><path fill="#676868" d="M80 17.5h1.3c.1.4 0 .9 0 1.4h-1.4c.1-.4.1-.9.1-1.4m.5-4.8c0 1-.1 2 0 3-.3 0-.3-1.1-.4-1.4 0-.6.1-1 .4-1.6m.2.1c-.2.3.2 1 .2 1.4.1.5-.1 1.1-.1 1.6.4-.3.3-1 .4-1.5.1-.7.2-1.2-.5-1.5m-.6.3c-.2-.1-.5 0-.8 0-.3.3.2.7.1 1h.6" opacity=".24"/><path fill="#676868" d="M81.1 13.1c.4-.2 1-.1.9.4-.1.5-.5.7-.8.7" opacity=".24"/><path fill="none" stroke="#676868" stroke-miterlimit="10" stroke-width=".25" d="M79.6 14.2l.2.5-.2 7.3s0 .2.4.3c.4.1 1.8-.1 1.8-.1l-.2-7.3V14"/></g></switch></svg>
